<svg xmlns="http://www.w3.org/2000/svg" viewBox="0 0 640 640"><!--! Font Awesome Pro 7.2.0 by @fontawesome - https://fontawesome.com License - https://fontawesome.com/license (Commercial License) Copyright 2026 Fonticons, Inc. --><path fill="currentColor" d="M304 416C365.9 416 416 365.9 416 304L416 168C416 128.2 383.8 96 344 96L296 96C256.2 96 224 128.2 224 168L224 216C224 255.8 256.2 288 296 288L344 288C366.6 288 386.8 277.6 400 261.3L400 304C400 357 357 400 304 400L296 400C291.6 400 288 403.6 288 408C288 412.4 291.6 416 296 416L304 416zM400 216C400 246.9 374.9 272 344 272L296 272C265.1 272 240 246.9 240 216L240 168C240 137.1 265.1 112 296 112L344 112C374.9 112 400 137.1 400 168L400 216z"/></svg>