<svg xmlns="http://www.w3.org/2000/svg" viewBox="0 0 640 640"><!--! Font Awesome Pro 7.2.0 by @fontawesome - https://fontawesome.com License - https://fontawesome.com/license (Commercial License) Copyright 2026 Fonticons, Inc. --><path fill="currentColor" d="M590.5 40.3C593.2 39.6 596.1 40.4 598.1 42.4C600.1 44.4 600.9 47.3 600.2 50L568.2 178C567.5 180.8 565.3 183 562.6 183.8C559.9 184.6 556.9 183.8 554.8 181.7L512.4 139.3L193.3 458.5L208.2 518.1C208.9 520.8 208.1 523.7 206.1 525.7L142.1 589.7C140.1 591.7 137.1 592.5 134.3 591.8C131.5 591.1 129.4 588.8 128.7 586L113.9 526.6L54.6 511.8C51.8 511.1 49.6 508.9 48.8 506.2C48 503.4 48.8 500.5 50.9 498.4L114.9 434.4L116.6 433.1C118.4 432.1 120.5 431.7 122.5 432.3L182 447.1L501.1 128L458.8 85.7C456.8 83.7 456 80.7 456.7 77.9C457.5 75.1 459.7 73 462.5 72.3L590.5 40.3zM455.3 264.3C507.7 351.3 497.9 465.2 426 542.2L454.1 570.3L455.1 571.6C457.1 574.7 456.8 578.9 454.1 581.7C451.4 584.4 447.1 584.8 444 582.7L442.7 581.7L290.3 429.3L301.6 418L414.6 531C480.4 460.2 490 356.4 443.6 276L455.3 264.3zM72.1 499.7L122.4 512.3L124.4 513.1C126.3 514.2 127.6 516 128.2 518.1L140.8 568.4L191.6 517.6L177.9 462.6L122.9 448.9L72.1 499.7zM98.2 214.4C175.2 142.5 289.1 132.7 376.1 185.1L364.4 196.8C284 150.5 180.1 160 109.5 225.7L222.5 338.7L211.2 350L58.8 197.6L57.8 196.4C55.8 193.3 56.1 189.1 58.8 186.3C61.5 183.6 65.8 183.2 68.9 185.3L70.1 186.3L98.2 214.4zM480.1 84.3L556.1 160.3L581.4 58.9L480 84.2z"/></svg>