<svg xmlns="http://www.w3.org/2000/svg" viewBox="0 0 640 640"><!--! Font Awesome Pro 7.2.0 by @fontawesome - https://fontawesome.com License - https://fontawesome.com/license (Commercial License) Copyright 2026 Fonticons, Inc. --><path fill="currentColor" d="M320 64C282.2 64 249.6 85.8 233.9 117.5C224.6 114 214.5 112 204 112C157.6 112 120 149.6 120 196C120 208 122.5 219.4 127.1 229.8C90.3 243.2 64 278.5 64 320C64 373 107 416 160 416L168 416C168 416 215.7 470.5 248.2 554.3C253.2 567.1 265.3 576 279.1 576L361 576C374.8 576 386.9 567.1 391.9 554.3C424.4 470.5 472.1 416 472.1 416L480.1 416C533.1 416 576.1 373 576.1 320C576.1 278.5 549.8 243.2 513 229.8C517.6 219.5 520.1 208 520.1 196C520.1 149.6 482.5 112 436.1 112C425.6 112 415.5 113.9 406.2 117.5C390.5 85.8 357.9 64 320.1 64zM451.4 416L451.4 416C446.2 422.7 439 432.4 430.8 444.9C414.4 469.7 393.7 505.3 376.9 548.5C374.1 555.6 367.6 560 360.9 560L279 560C272.3 560 265.8 555.6 263 548.5C246.2 505.3 225.6 469.7 209.1 444.9C200.9 432.5 193.7 422.7 188.5 416L188.5 416L277.1 416L305.1 485.9C307.5 492 313.4 496 320 496C326.6 496 332.4 492 334.9 485.9L362.9 416L451.5 416zM294.4 416L345.6 416C332.9 447.8 324.3 469.1 320 480C315.7 469.1 307.1 447.8 294.4 416zM245.4 130.9C257.1 101.1 286.1 80 320 80C353.9 80 382.9 101.1 394.6 130.9C395.4 133 397.1 134.7 399.2 135.5C401.3 136.3 403.6 136.2 405.7 135.2C414.8 130.6 425.2 128 436.1 128C473.7 128 504.1 158.4 504.1 196C504.1 208.6 500.7 220.4 494.7 230.6C493.4 232.8 493.2 235.4 494.2 237.8C495.2 240.2 497.2 241.9 499.6 242.5C534.4 251.2 560.1 282.7 560.1 320.1C560.1 364.3 524.3 400.1 480.1 400.1L160 400C115.8 400 80 364.2 80 320C80 282.6 105.7 251.1 140.5 242.4C142.9 241.8 145 240.1 145.9 237.7C146.8 235.3 146.7 232.7 145.4 230.5C139.4 220.4 136 208.6 136 195.9C136 158.3 166.4 127.9 204 127.9C214.9 127.9 225.3 130.5 234.4 135.1C236.4 136.1 238.8 136.2 240.9 135.4C243 134.6 244.7 132.9 245.5 130.8z"/></svg>