<svg xmlns="http://www.w3.org/2000/svg" viewBox="0 0 640 640"><!--! Font Awesome Pro 7.2.0 by @fontawesome - https://fontawesome.com License - https://fontawesome.com/license (Commercial License) Copyright 2026 Fonticons, Inc. --><path fill="currentColor" d="M448 72C448 67.6 451.6 64 456 64L568 64C572.4 64 576 67.6 576 72L576 184C576 188.4 572.4 192 568 192C563.6 192 560 188.4 560 184L560 90.7L357.3 270C354.1 272.8 349.3 272.7 346.3 269.7L223.3 146.7L44.9 286.3C41.4 289 36.4 288.4 33.7 284.9C31 281.4 31.6 276.4 35.1 273.7L219.1 129.7C222.3 127.2 226.8 127.5 229.7 130.3L352.3 253L547.9 80L456 80C451.6 80 448 76.4 448 72zM224 304C215.2 304 208 311.2 208 320L208 512C208 520.8 215.2 528 224 528C232.8 528 240 520.8 240 512L240 320C240 311.2 232.8 304 224 304zM192 320C192 302.3 206.3 288 224 288C241.7 288 256 302.3 256 320L256 512C256 529.7 241.7 544 224 544C206.3 544 192 529.7 192 512L192 320zM112 416C112 407.2 104.8 400 96 400C87.2 400 80 407.2 80 416L80 512C80 520.8 87.2 528 96 528C104.8 528 112 520.8 112 512L112 416zM64 416C64 398.3 78.3 384 96 384C113.7 384 128 398.3 128 416L128 512C128 529.7 113.7 544 96 544C78.3 544 64 529.7 64 512L64 416zM464 576C534.7 576 592 518.7 592 448C592 377.3 534.7 320 464 320C393.3 320 336 377.3 336 448C336 518.7 393.3 576 464 576zM464 304C543.5 304 608 368.5 608 448C608 527.5 543.5 592 464 592C384.5 592 320 527.5 320 448C320 368.5 384.5 304 464 304zM456 368C456 363.6 459.6 360 464 360C468.4 360 472 363.6 472 368L472 384L496 384C500.4 384 504 387.6 504 392C504 396.4 500.4 400 496 400L450.2 400C440.2 400 432 408.1 432 418.2C432 427 438.3 434.5 446.9 436.1L491.9 444.3C508.1 447.3 520 461.4 520 477.9C520 496.8 504.7 512.1 485.8 512.1L472 512.1L472 528.1C472 532.5 468.4 536.1 464 536.1C459.6 536.1 456 532.5 456 528.1L456 512.1L432 512.1C427.6 512.1 424 508.5 424 504.1C424 499.7 427.6 496.1 432 496.1L485.8 496.1C495.8 496.1 504 488 504 477.9C504 469.1 497.7 461.6 489.1 460L444.1 451.8C427.9 448.8 416 434.7 416 418.2C416 399.3 431.3 384 450.2 384L456 384L456 368z"/></svg>