<svg xmlns="http://www.w3.org/2000/svg" viewBox="0 0 640 640"><!--! Font Awesome Pro 7.2.0 by @fontawesome - https://fontawesome.com License - https://fontawesome.com/license (Commercial License) Copyright 2026 Fonticons, Inc. --><path fill="currentColor" d="M480 64C497.7 64 512 78.3 512 96L512 234.7C512 248.5 507.5 262 499.2 273.1L464 320L464 456L505.8 518.7C509.8 524.8 512 531.9 512 539.1C512 559.4 495.5 575.9 475.2 575.9L164.8 576C144.5 576 128 559.5 128 539.2C128 531.9 130.2 524.8 134.2 518.8L176 456L176 320L140.8 273.1C132.5 262 128 248.5 128 234.7L128 96C128 78.3 142.3 64 160 64L480 64zM189.3 464.9L147.5 527.6C145.2 531 144 535 144 539.2C144 550.7 153.3 560 164.8 560L475.1 560C485.2 560 493.6 552.8 495.5 543.3L495.9 539.1C495.9 536 495.2 533 493.9 530.2L492.4 527.5L450.6 464.8C450.4 464.5 450.3 464.2 450.1 463.9L189.8 464C189.6 464.3 189.5 464.6 189.3 464.9zM160 80C151.2 80 144 87.2 144 96L144 234.7C144 245.1 147.4 255.2 153.6 263.5L188.8 310.4C190.9 313.2 192 316.5 192 320L192 448L448 448L448 320C448 316.5 449.1 313.2 451.2 310.4L486.4 263.5L488.6 260.3C493.4 252.7 496 243.8 496 234.7L496 96C496 87.2 488.8 80 480 80L392 80L392 144C392 148.4 388.4 152 384 152C379.6 152 376 148.4 376 144L376 80L264 80L264 144C264 148.4 260.4 152 256 152C251.6 152 248 148.4 248 144L248 80L160 80z"/></svg>