<svg xmlns="http://www.w3.org/2000/svg" viewBox="0 0 640 640"><!--! Font Awesome Pro 7.2.0 by @fontawesome - https://fontawesome.com License - https://fontawesome.com/license (Commercial License) Copyright 2026 Fonticons, Inc. --><path fill="currentColor" d="M80 320C80 187.5 187.5 80 320 80C452.5 80 560 187.5 560 320C560 452.5 452.5 560 320 560C187.5 560 80 452.5 80 320zM576 320C576 178.6 461.4 64 320 64C178.6 64 64 178.6 64 320C64 461.4 178.6 576 320 576C461.4 576 576 461.4 576 320zM346.3 194.3L226.3 314.3C223.2 317.4 223.2 322.5 226.3 325.6L346.3 445.6C349.4 448.7 354.5 448.7 357.6 445.6C360.7 442.5 360.7 437.4 357.6 434.3L243.3 320L357.7 205.7C360.8 202.6 360.8 197.5 357.7 194.4C354.6 191.3 349.5 191.3 346.4 194.4z"/></svg>