<svg xmlns="http://www.w3.org/2000/svg" viewBox="0 0 640 640"><!--! Font Awesome Pro 7.2.0 by @fontawesome - https://fontawesome.com License - https://fontawesome.com/license (Commercial License) Copyright 2026 Fonticons, Inc. --><path fill="currentColor" d="M320 80C452.5 80 560 187.5 560 320C560 452.5 452.5 560 320 560C187.5 560 80 452.5 80 320C80 187.5 187.5 80 320 80zM320 576C461.4 576 576 461.4 576 320C576 178.6 461.4 64 320 64C178.6 64 64 178.6 64 320C64 461.4 178.6 576 320 576zM229.5 192.4C226.2 193.5 224 196.5 224 200L224 320L200 320C195.6 320 192 323.6 192 328C192 332.4 195.6 336 200 336L224 336L224 440C224 444.4 227.6 448 232 448C236.4 448 240 444.4 240 440L240 336L321.8 336L401.5 444.7C403.5 447.5 407.2 448.6 410.4 447.6C413.6 446.6 415.9 443.5 415.9 440L415.9 336L439.9 336C444.3 336 447.9 332.4 447.9 328C447.9 323.6 444.3 320 439.9 320L415.9 320L415.9 200C415.9 195.6 412.3 192 407.9 192C403.5 192 399.9 195.6 399.9 200L399.9 320L329.8 320L238.3 195.3C236.3 192.5 232.6 191.4 229.4 192.4zM400 415.6L341.7 336L400 336L400 415.6zM240 224.4L310.1 320L240 320L240 224.4z"/></svg>