<svg xmlns="http://www.w3.org/2000/svg" viewBox="0 0 640 640"><!--! Font Awesome Pro 7.2.0 by @fontawesome - https://fontawesome.com License - https://fontawesome.com/license (Commercial License) Copyright 2026 Fonticons, Inc. --><path fill="currentColor" d="M320 80C452.5 80 560 187.5 560 320C560 452.5 452.5 560 320 560C187.5 560 80 452.5 80 320C80 187.5 187.5 80 320 80zM320 576C461.4 576 576 461.4 576 320C576 178.6 461.4 64 320 64C178.6 64 64 178.6 64 320C64 461.4 178.6 576 320 576zM238.5 227.3C236.5 224.5 232.8 223.4 229.6 224.4C226.4 225.4 224.1 228.5 224.1 232L224.1 408C224.1 412.4 227.7 416 232.1 416C236.5 416 240.1 412.4 240.1 408L240.1 256.4L313.6 356.7C315.1 358.8 317.5 360 320.1 360C322.7 360 325 358.8 326.6 356.7L400 256.4L400 408C400 412.4 403.6 416 408 416C412.4 416 416 412.4 416 408L416 232C416 228.5 413.8 225.5 410.5 224.4C407.2 223.3 403.6 224.5 401.6 227.3L320 338.5L238.5 227.3z"/></svg>