<svg xmlns="http://www.w3.org/2000/svg" viewBox="0 0 640 640"><!--! Font Awesome Pro 7.2.0 by @fontawesome - https://fontawesome.com License - https://fontawesome.com/license (Commercial License) Copyright 2026 Fonticons, Inc. --><path fill="currentColor" d="M320 80C452.5 80 560 187.5 560 320C560 452.5 452.5 560 320 560C187.5 560 80 452.5 80 320C80 187.5 187.5 80 320 80zM320 576C461.4 576 576 461.4 576 320C576 178.6 461.4 64 320 64C178.6 64 64 178.6 64 320C64 461.4 178.6 576 320 576zM256 232C256 227.6 252.4 224 248 224C243.6 224 240 227.6 240 232L240 336C240 380.2 275.8 416 320 416C364.2 416 400 380.2 400 336L400 232C400 227.6 396.4 224 392 224C387.6 224 384 227.6 384 232L384 336C384 371.3 355.3 400 320 400C284.7 400 256 371.3 256 336L256 232z"/></svg>