<svg xmlns="http://www.w3.org/2000/svg" viewBox="0 0 640 640"><!--! Font Awesome Pro 7.2.0 by @fontawesome - https://fontawesome.com License - https://fontawesome.com/license (Commercial License) Copyright 2026 Fonticons, Inc. --><path fill="currentColor" d="M320 80C452.5 80 560 187.5 560 320C560 452.5 452.5 560 320 560C187.5 560 80 452.5 80 320C80 187.5 187.5 80 320 80zM320 576C461.4 576 576 461.4 576 320C576 178.6 461.4 64 320 64C178.6 64 64 178.6 64 320C64 461.4 178.6 576 320 576zM238.1 226.8C235.2 223.4 230.2 223 226.8 225.9C223.4 228.8 223 233.8 225.9 237.2L312 338.9L312 408C312 412.4 315.6 416 320 416C324.4 416 328 412.4 328 408L328 338.9L414.1 237.1C417 233.7 416.5 228.7 413.2 225.8C409.9 222.9 404.8 223.4 401.9 226.7L320 323.5L238.1 226.7z"/></svg>