<svg xmlns="http://www.w3.org/2000/svg" viewBox="0 0 640 640"><!--! Font Awesome Pro 7.2.0 by @fontawesome - https://fontawesome.com License - https://fontawesome.com/license (Commercial License) Copyright 2026 Fonticons, Inc. --><path fill="currentColor" d="M320 80C452.5 80 560 187.5 560 320C560 452.5 452.5 560 320 560C187.5 560 80 452.5 80 320C80 187.5 187.5 80 320 80zM320 576C461.4 576 576 461.4 576 320C576 178.6 461.4 64 320 64C178.6 64 64 178.6 64 320C64 461.4 178.6 576 320 576zM201.7 320C201.7 253.7 255.4 200 321.7 200C353.6 200 382.6 212.4 404.1 232.7C407.3 235.7 412.4 235.6 415.4 232.4C418.4 229.2 418.3 224.1 415.1 221.1C390.8 198.1 357.9 184 321.8 184C246.7 184 185.8 244.9 185.8 320C185.8 395.1 246.7 456 321.8 456C357.9 456 390.8 441.9 415.1 418.9C418.3 415.9 418.5 410.8 415.4 407.6C412.3 404.4 407.3 404.2 404.1 407.3C384 426.3 357.4 438.4 328 439.9L328 376.1C328 349.6 349.5 328.1 376 328.1C380.4 328.1 384 324.5 384 320.1C384 315.7 380.4 312.1 376 312.1C356.9 312.1 339.7 320.5 328 333.8L328 312.1C328 307.7 324.4 304.1 320 304.1C315.6 304.1 312 307.7 312 312.1L312 439.7C250.3 434.7 201.7 383.1 201.7 320.1z"/></svg>