<svg xmlns="http://www.w3.org/2000/svg" viewBox="0 0 640 640"><!--! Font Awesome Pro 7.2.0 by @fontawesome - https://fontawesome.com License - https://fontawesome.com/license (Commercial License) Copyright 2026 Fonticons, Inc. --><path fill="currentColor" d="M320 80C452.5 80 560 187.5 560 320C560 452.5 452.5 560 320 560C187.5 560 80 452.5 80 320C80 187.5 187.5 80 320 80zM320 576C461.4 576 576 461.4 576 320C576 178.6 461.4 64 320 64C178.6 64 64 178.6 64 320C64 461.4 178.6 576 320 576zM368 224L264 224C259.6 224 256 227.6 256 232L256 312C256 316.4 259.6 320 264 320L336 320C358.1 320 376 337.9 376 360C376 382.1 358.1 400 336 400L264 400C259.6 400 256 403.6 256 408C256 412.4 259.6 416 264 416L336 416C366.9 416 392 390.9 392 360C392 329.1 366.9 304 336 304L272 304L272 240L368 240C372.4 240 376 236.4 376 232C376 227.6 372.4 224 368 224z"/></svg>