<svg xmlns="http://www.w3.org/2000/svg" viewBox="0 0 640 640"><!--! Font Awesome Pro 7.2.0 by @fontawesome - https://fontawesome.com License - https://fontawesome.com/license (Commercial License) Copyright 2026 Fonticons, Inc. --><path fill="currentColor" d="M320 80C452.5 80 560 187.5 560 320C560 452.5 452.5 560 320 560C187.5 560 80 452.5 80 320C80 187.5 187.5 80 320 80zM320 576C461.4 576 576 461.4 576 320C576 178.6 461.4 64 320 64C178.6 64 64 178.6 64 320C64 461.4 178.6 576 320 576zM357.4 176C351.8 176 346.4 178.2 342.4 182.2L215.3 309.4C210.6 314.1 208 320.4 208 327.1C208 340.9 219.2 352.1 233 352.1L292 352.1L262.7 435.9C257.9 449.7 268.1 464.1 282.7 464.1C288.3 464.1 293.7 461.9 297.7 457.9L424.7 330.6C429.4 325.9 432 319.6 432 312.9C432 299.1 420.8 287.9 407 287.9L348 287.9L377.3 204.1C382.1 190.3 371.9 175.9 357.3 175.9zM226.6 320.7L353.8 193.5C357.5 189.8 364.1 193.7 362.3 198.9L329.2 293.4C328.3 295.8 328.7 298.6 330.2 300.7C331.7 302.8 334.1 304.1 336.7 304.1L406.9 304.1C414.8 304.1 418.7 314 413.2 319.4L286.2 446.5C282.5 450.2 275.9 446.3 277.7 441.1L310.8 346.6C312.5 341.7 308.4 336 303.2 336L233 336C225.1 336 221.2 326.1 226.7 320.7z"/></svg>