<svg xmlns="http://www.w3.org/2000/svg" viewBox="0 0 640 640"><!--! Font Awesome Pro 7.2.0 by @fontawesome - https://fontawesome.com License - https://fontawesome.com/license (Commercial License) Copyright 2026 Fonticons, Inc. --><path fill="currentColor" d="M320 80C452.5 80 560 187.5 560 320C560 452.5 452.5 560 320 560C187.5 560 80 452.5 80 320C80 187.5 187.5 80 320 80zM320 576C461.4 576 576 461.4 576 320C576 178.6 461.4 64 320 64C178.6 64 64 178.6 64 320C64 461.4 178.6 576 320 576zM328 168C328 163.6 324.4 160 320 160C315.6 160 312 163.6 312 168L312 191.9C245.9 197.2 193.9 252.6 193.9 320C193.9 387.4 245.9 442.8 312 448.1L312 472C312 476.4 315.6 480 320 480C324.4 480 328 476.4 328 472L328 448.5C360 447.2 389 434.1 410.8 413.5C414.2 410.3 414.4 404.8 411.1 401.4C407.8 398 402.4 397.8 399 401.1C380.3 418.8 355.5 430 328 431.4L328 208.8C355.4 210.1 380.3 221.4 399 239.1C402.4 242.3 407.9 242.2 411.1 238.8C414.3 235.4 414.2 229.9 410.8 226.7C389 206.1 360 193.1 328 191.7L328 168.2zM211.1 320C211.1 262 255.4 214.4 312 209.1L312 431C255.4 425.6 211.1 378 211.1 320z"/></svg>