<svg xmlns="http://www.w3.org/2000/svg" viewBox="0 0 640 640"><!--! Font Awesome Pro 7.2.0 by @fontawesome - https://fontawesome.com License - https://fontawesome.com/license (Commercial License) Copyright 2026 Fonticons, Inc. --><path fill="currentColor" d="M320 80L416 80C442.5 80 464 101.5 464 128L464 264C464 268.4 467.6 272 472 272L544 272C570.5 272 592 293.5 592 320L592 512C592 538.5 570.5 560 544 560L320 560C293.5 560 272 538.5 272 512L272 128C272 101.5 293.5 80 320 80zM256 128L256 160L208 160L208 72C208 67.6 204.4 64 200 64C195.6 64 192 67.6 192 72L192 160L128 160L128 72C128 67.6 124.4 64 120 64C115.6 64 112 67.6 112 72L112 160L96 160C60.7 160 32 188.7 32 224L32 512C32 547.3 60.7 576 96 576L544 576C579.3 576 608 547.3 608 512L608 320C608 284.7 579.3 256 544 256L480 256L480 128C480 92.7 451.3 64 416 64L320 64C284.7 64 256 92.7 256 128zM96 176L256 176L256 512C256 531.1 264.4 548.3 277.7 560L96 560C69.5 560 48 538.5 48 512L48 224C48 197.5 69.5 176 96 176zM336 160L336 192C336 200.8 343.2 208 352 208L384 208C392.8 208 400 200.8 400 192L400 160C400 151.2 392.8 144 384 144L352 144C343.2 144 336 151.2 336 160zM384 160L384 192L352 192L352 160L384 160zM352 240C343.2 240 336 247.2 336 256L336 288C336 296.8 343.2 304 352 304L384 304C392.8 304 400 296.8 400 288L400 256C400 247.2 392.8 240 384 240L352 240zM352 256L384 256L384 288L352 288L352 256zM336 352L336 384C336 392.8 343.2 400 352 400L384 400C392.8 400 400 392.8 400 384L400 352C400 343.2 392.8 336 384 336L352 336C343.2 336 336 343.2 336 352zM384 352L384 384L352 384L352 352L384 352zM128 240C119.2 240 112 247.2 112 256L112 288C112 296.8 119.2 304 128 304L160 304C168.8 304 176 296.8 176 288L176 256C176 247.2 168.8 240 160 240L128 240zM128 256L160 256L160 288L128 288L128 256zM112 352L112 384C112 392.8 119.2 400 128 400L160 400C168.8 400 176 392.8 176 384L176 352C176 343.2 168.8 336 160 336L128 336C119.2 336 112 343.2 112 352zM160 352L160 384L128 384L128 352L160 352zM480 336C471.2 336 464 343.2 464 352L464 384C464 392.8 471.2 400 480 400L512 400C520.8 400 528 392.8 528 384L528 352C528 343.2 520.8 336 512 336L480 336zM480 352L512 352L512 384L480 384L480 352z"/></svg>