<svg xmlns="http://www.w3.org/2000/svg" viewBox="0 0 640 640"><!--! Font Awesome Pro 7.2.0 by @fontawesome - https://fontawesome.com License - https://fontawesome.com/license (Commercial License) Copyright 2026 Fonticons, Inc. --><path fill="currentColor" d="M80 320C80 452.5 187.5 560 320 560C452.5 560 560 452.5 560 320C560 187.5 452.5 80 320 80C187.5 80 80 187.5 80 320zM576 320C576 461.4 461.4 576 320 576C178.6 576 64 461.4 64 320C64 178.6 178.6 64 320 64C461.4 64 576 178.6 576 320zM312 472L312 346.4L262.7 420.4C260.2 424.1 255.3 425.1 251.6 422.6C247.9 420.1 246.9 415.2 249.4 411.5L313.4 315.5C315.4 312.6 319 311.3 322.4 312.3C325.8 313.3 328.1 316.4 328.1 320L328.1 472C328.1 476.4 324.5 480 320.1 480C315.7 480 312.1 476.4 312.1 472z"/></svg>