<svg xmlns="http://www.w3.org/2000/svg" viewBox="0 0 640 640"><!--! Font Awesome Pro 7.2.0 by @fontawesome - https://fontawesome.com License - https://fontawesome.com/license (Commercial License) Copyright 2026 Fonticons, Inc. --><path fill="currentColor" d="M240 64C183.6 64 136.9 105.7 129.1 160L128 160C75 160 32 203 32 256C32 309 75 352 128 352L128.4 352C133.4 347.7 138.8 343.8 144.4 340.4C144.5 338.9 144.6 337.5 144.8 336L128 336C83.8 336 48 300.2 48 256C48 211.8 83.8 176 128 176C130.5 176 133.1 176.1 135.5 176.3C137.6 176.5 139.8 175.8 141.4 174.4C143 173 144.1 171 144.2 168.9C147.8 119.2 189.3 79.9 239.9 79.9C283.9 79.9 320.9 109.4 332.3 149.8C333 152.2 334.7 154.1 337 155C339.3 155.9 341.9 155.8 344 154.5C355.7 147.7 369.4 143.9 383.9 143.9C428.1 143.9 463.9 179.7 463.9 223.9L463.9 224.9C469.3 225.6 474.6 226.6 479.8 227.9C479.9 226.6 479.9 225.2 479.9 223.9C479.9 170.9 436.9 127.9 383.9 127.9C369.9 127.9 356.7 130.9 344.7 136.3C328.7 94 287.8 63.9 239.9 63.9zM208 352C208 299 251 256 304 256C340.5 256 372.3 276.4 388.5 306.5C389.7 308.8 392 310.3 394.5 310.6C397 310.9 399.6 310 401.4 308.2C413.1 295.8 429.6 288.1 448 288.1C483.3 288.1 512 316.8 512 352.1C512 354.6 511.9 357.1 511.6 359.5C511.4 361.7 512 363.8 513.4 365.5C514.8 367.2 516.8 368.2 518.9 368.4C559.9 371.9 592 406.2 592 448.1C592 492.3 556.2 528.1 512 528.1L216 528.1C176.2 528.1 144 495.9 144 456.1C144 420.3 170.1 390.6 204.3 385C206.5 384.6 208.5 383.4 209.7 381.5C210.9 379.6 211.3 377.3 210.8 375.2C209 367.7 208 360 208 352zM304 240C242.1 240 192 290.1 192 352C192 358.4 192.5 364.7 193.6 370.9C155.9 380.8 128 415.2 128 456C128 504.6 167.4 544 216 544L512 544C565 544 608 501 608 448C608 400.4 573.4 360.9 528 353.3C528 352.9 528 352.4 528 352C528 307.8 492.2 272 448 272C428.8 272 411.1 278.8 397.3 290.1C377.2 259.9 342.9 240 304 240z"/></svg>