<svg xmlns="http://www.w3.org/2000/svg" viewBox="0 0 640 640"><!--! Font Awesome Pro 7.2.0 by @fontawesome - https://fontawesome.com License - https://fontawesome.com/license (Commercial License) Copyright 2026 Fonticons, Inc. --><path fill="currentColor" d="M240 64C178.1 64 128 114.1 128 176C128 183.1 128.7 190.1 129.9 196.8C91.6 209.4 64 245.5 64 288C64 341 107 384 160 384L480 384C533 384 576 341 576 288C576 235 533 192 480 192C479.5 192 478.9 192 478.4 192C479.5 186.8 480 181.5 480 176C480 131.8 444.2 96 400 96C375.7 96 353.9 106.9 339.2 124C320.5 88.3 283.1 64 240 64zM144 176C144 123 187 80 240 80C281.3 80 316.6 106.1 330.1 142.8C331.2 145.7 333.8 147.7 336.9 148C340 148.3 343 146.7 344.5 144C355.6 124.8 376.3 112 400 112C435.3 112 464 140.7 464 176C464 183.8 462.6 191.2 460.1 198.1C459.1 200.7 459.6 203.7 461.4 205.9C463.2 208.1 466 209.2 468.7 208.8C472.4 208.3 476.2 208 480 208C524.2 208 560 243.8 560 288C560 332.2 524.2 368 480 368L160 368C115.8 368 80 332.2 80 288C80 250.3 106.1 218.6 141.3 210.2C143.4 209.7 145.2 208.4 146.3 206.5C147.4 204.6 147.7 202.4 147.2 200.4C145.2 192.6 144.1 184.4 144.1 176zM146 526.8L168 477.2L190 526.8C191.3 529.8 192 533.1 192 536.4C192 549.2 181.2 560 168 560C154.8 560 144 549.2 144 536.4C144 533.1 144.7 529.8 146 526.8zM131.4 520.3C129.2 525.4 128 530.8 128 536.3C128 558.2 146.1 575.9 168 575.9C189.9 575.9 208 558.2 208 536.3C208 530.8 206.8 525.3 204.6 520.3L174.4 452.1C173.3 449.6 170.8 447.9 168 447.9C165.2 447.9 162.7 449.5 161.6 452.1L131.4 520.3zM298 526.8L320 477.2L342 526.8C343.3 529.8 344 533.1 344 536.4C344 549.2 333.2 560 320 560C306.8 560 296 549.2 296 536.4C296 533.1 296.7 529.8 298 526.8zM283.4 520.3C281.2 525.4 280 530.8 280 536.3C280 558.2 298.1 575.9 320 575.9C341.9 575.9 360 558.2 360 536.3C360 530.8 358.8 525.3 356.6 520.3L326.4 452.1C325.3 449.6 322.8 447.9 320 447.9C317.2 447.9 314.7 449.5 313.6 452.1L283.4 520.3zM472 477.2L494 526.8C495.3 529.8 496 533.1 496 536.4C496 549.2 485.2 560 472 560C458.8 560 448 549.2 448 536.4C448 533.1 448.7 529.8 450 526.8L472 477.2zM465.6 452.2L435.4 520.4C433.2 525.5 432 530.9 432 536.4C432 558.3 450.1 576 472 576C493.9 576 512 558.3 512 536.4C512 530.9 510.8 525.4 508.6 520.4L478.4 452.2C477.3 449.7 474.8 448 472 448C469.2 448 466.7 449.6 465.6 452.2z"/></svg>