<svg xmlns="http://www.w3.org/2000/svg" viewBox="0 0 640 640"><!--! Font Awesome Pro 7.2.0 by @fontawesome - https://fontawesome.com License - https://fontawesome.com/license (Commercial License) Copyright 2026 Fonticons, Inc. --><path fill="currentColor" d="M480 80C493.4 80 506.4 81.5 519 84.3C519.8 84.5 520.4 85.2 520.5 86C520.6 86.8 520.2 87.7 519.4 88C468.8 113.2 434 165.5 434 225.9C434 311 502.9 379.9 588 379.9C592.2 379.9 596.3 379.7 600.4 379.4C601.2 379.3 602 379.8 602.4 380.6C602.8 381.4 602.6 382.3 602 382.9C577.1 406.9 545.1 423.5 509.4 429.5C512.3 434.3 514.9 439.2 517.1 444.4C553.9 437.2 587 419.5 613 394.5C618.5 389.2 620.1 381.1 616.9 374.1C613.7 367.1 606.6 362.9 599.1 363.5C595.4 363.8 591.7 363.9 588 363.9C511.8 363.9 450 302.1 450 225.9C450 171.8 481.1 124.9 526.6 102.3C533.4 98.9 537.4 91.6 536.4 84C535.4 76.4 529.9 70.4 522.5 68.7C508.8 65.6 494.6 64 480 64C374 64 288 150 288 256C288 258.8 288.1 261.6 288.2 264.4C293.5 268 298.6 271.9 303.4 276.2C304 276.1 304.5 275.9 305.1 275.8C304.4 269.3 304 262.7 304 256.1C304 158.9 382.8 80.1 480 80.1zM128 384C128 339.8 163.8 304 208 304C240 304 267.6 322.8 280.4 350C281.5 352.3 283.6 353.9 286.1 354.4C288.6 354.9 291.2 354.2 293 352.5C304.4 342.2 319.4 336 335.9 336C371.2 336 399.9 364.7 399.9 400C399.9 407.5 398.6 414.7 396.2 421.4C395.4 423.8 395.7 426.4 397.1 428.5C398.5 430.6 400.8 431.9 403.3 432C437 433.8 463.8 461.7 463.8 495.9C463.8 531.2 435.2 559.9 399.9 559.9L127.9 559.9C83.7 559.9 47.9 524.1 47.9 479.9C47.9 438.1 80 403.7 121 400.2C123.1 400 125.1 399 126.5 397.4C127.9 395.8 128.5 393.6 128.3 391.5C128.1 389 127.9 386.5 127.9 383.9zM290.2 334.4C273.4 306.6 242.9 288 208 288C154.5 288 111.3 332 112 385.3C66.6 392.9 32 432.4 32 480C32 533 75 576 128 576L400 576C444.1 576 479.9 540.2 479.9 496C479.9 456.6 451.5 423.9 414.1 417.3C415.3 411.7 416 406 416 400.1C416 355.9 380.2 320.1 336 320.1C319 320.1 303.2 325.4 290.2 334.5z"/></svg>