<svg xmlns="http://www.w3.org/2000/svg" viewBox="0 0 640 640"><!--! Font Awesome Pro 7.2.0 by @fontawesome - https://fontawesome.com License - https://fontawesome.com/license (Commercial License) Copyright 2026 Fonticons, Inc. --><path fill="currentColor" d="M132.5 458.8C135.3 453.1 134.5 446.3 130.5 441.4C98.8 403.4 80 355.7 80 304C80 181.2 186.5 80 320 80C453.5 80 560 181.2 560 304C560 426.8 453.5 528 320 528C284.3 528 250.5 520.7 220.1 507.8C216.2 506.1 211.8 506.1 207.9 507.7L83.1 557.5L132.5 458.8zM64 304C64 359.7 84.2 410.9 118.2 451.7L65.4 557.3C60 568 71.6 579.4 82.4 575L213.9 522.4C246.2 536.2 282.2 543.9 320.1 543.9C461.5 543.9 576.1 436.4 576.1 303.9C576.1 171.4 461.4 64 320 64C178.6 64 64 171.5 64 304zM232 240L264 240C277.3 240 288 250.7 288 264L288 296C288 309.3 277.3 320 264 320L232 320C218.7 320 208 309.3 208 296L208 264C208 250.7 218.7 240 232 240zM288 328L288 344C288 366.1 270.1 384 248 384C243.6 384 240 387.6 240 392C240 396.4 243.6 400 248 400C278.9 400 304 374.9 304 344L304 264C304 241.9 286.1 224 264 224L232 224C209.9 224 192 241.9 192 264L192 296C192 318.1 209.9 336 232 336L264 336C273 336 281.3 333 288 328zM448 344L448 264C448 241.9 430.1 224 408 224L376 224C353.9 224 336 241.9 336 264L336 296C336 318.1 353.9 336 376 336L408 336C417 336 425.3 333 432 328L432 344C432 366.1 414.1 384 392 384C387.6 384 384 387.6 384 392C384 396.4 387.6 400 392 400C422.9 400 448 374.9 448 344zM408 320L376 320C362.7 320 352 309.3 352 296L352 264C352 250.7 362.7 240 376 240L408 240C421.3 240 432 250.7 432 264L432 296C432 309.3 421.3 320 408 320z"/></svg>