<svg xmlns="http://www.w3.org/2000/svg" viewBox="0 0 640 640"><!--! Font Awesome Pro 7.2.0 by @fontawesome - https://fontawesome.com License - https://fontawesome.com/license (Commercial License) Copyright 2026 Fonticons, Inc. --><path fill="currentColor" d="M132.5 458.8C135.3 453.1 134.5 446.3 130.5 441.4C98.8 403.4 80 355.7 80 304C80 181.2 186.5 80 320 80C453.5 80 560 181.2 560 304C560 426.8 453.5 528 320 528C284.3 528 250.5 520.7 220.1 507.8C216.2 506.1 211.8 506.1 207.9 507.7L83.1 557.5L132.5 458.8zM64 304C64 359.7 84.2 410.9 118.2 451.7L65.4 557.3C60 568 71.6 579.4 82.4 575L213.9 522.4C246.2 536.2 282.2 543.9 320.1 543.9C461.5 543.9 576.1 436.4 576.1 303.9C576.1 171.4 461.4 64 320 64C178.6 64 64 171.5 64 304zM325.7 210.3C322.6 207.2 317.5 207.2 314.4 210.3L242.4 282.3C239.3 285.4 239.3 290.5 242.4 293.6C245.5 296.7 250.6 296.7 253.7 293.6L312 235.3L312 392C312 396.4 315.6 400 320 400C324.4 400 328 396.4 328 392L328 235.3L386.3 293.6C389.4 296.7 394.5 296.7 397.6 293.6C400.7 290.5 400.7 285.4 397.6 282.3L325.6 210.3z"/></svg>