<svg xmlns="http://www.w3.org/2000/svg" viewBox="0 0 640 640"><!--! Font Awesome Pro 7.2.0 by @fontawesome - https://fontawesome.com License - https://fontawesome.com/license (Commercial License) Copyright 2026 Fonticons, Inc. --><path fill="currentColor" d="M144 256L272 256C294.1 256 312 238.1 312 216L312 80L288 80C208.5 80 144 144.5 144 224L144 256zM312 64L352 64C440.4 64 512 135.6 512 224L512 416C512 504.4 440.4 576 352 576L288 576C199.6 576 128 504.4 128 416L128 224C128 135.6 199.6 64 288 64L312 64zM144 272L144 416C144 495.5 208.5 560 288 560L352 560C431.5 560 496 495.5 496 416L496 224C496 144.5 431.5 80 352 80L328 80L328 216C328 246.9 302.9 272 272 272L144 272z"/></svg>