<svg xmlns="http://www.w3.org/2000/svg" viewBox="0 0 640 640"><!--! Font Awesome Pro 7.2.0 by @fontawesome - https://fontawesome.com License - https://fontawesome.com/license (Commercial License) Copyright 2026 Fonticons, Inc. --><path fill="currentColor" d="M512 256C512 353.2 433.2 432 336 432L201 432L222.3 426.7C307.9 405.3 368 328.3 368 240L368 152C368 112.2 400.2 80 440 80C479.8 80 512 112.2 512 152L512 256zM352 152L352 211.9L3.3 465.5C-.3 468.1-1 473.1 1.5 476.7C3.6 479.6 7.2 480.6 10.4 479.6L136.9 448L285.9 448L336.6 571L337.4 572.4C339.5 575.5 343.5 576.8 347.1 575.3C350.7 573.8 352.6 570.1 351.9 566.4L351.5 564.8L303.3 447.9L336.1 447.9C351.2 447.9 365.9 446.2 380 442.9L432.7 571L433.5 572.4C435.6 575.5 439.6 576.8 443.2 575.3C446.8 573.8 448.7 570.1 448 566.4L447.5 564.9L395.5 438.6C472.5 413.6 528.1 341.3 528.1 256L528.1 212L619.5 189.2C631 186.3 638.1 174.8 635.5 163.3C629.3 135.2 605.5 114.7 577.3 112.3L571.6 112.1L518.5 112.1C503.9 83.6 474.3 64.1 440.1 64.1C391.5 64.1 352.1 103.5 352.1 152.1zM524.7 128L571.5 128C594.7 128 614.8 144.1 619.8 166.7L619.8 169C619.4 171.2 617.8 173.1 615.5 173.6L528 195.5L528 152C528 143.7 526.8 135.6 524.7 128zM46 454.3L352 231.8L352 240.1C352 321.1 296.9 391.6 218.3 411.3L46 454.3zM440 176C448.8 176 456 168.8 456 160C456 151.2 448.8 144 440 144C431.2 144 424 151.2 424 160C424 168.8 431.2 176 440 176z"/></svg>