<svg xmlns="http://www.w3.org/2000/svg" viewBox="0 0 640 640"><!--! Font Awesome Pro 7.2.0 by @fontawesome - https://fontawesome.com License - https://fontawesome.com/license (Commercial License) Copyright 2026 Fonticons, Inc. --><path fill="currentColor" d="M292.2 53.8C309.8 45.3 330.3 45.3 347.9 53.8L351.6 55.8L543.6 164.6C562.4 175.3 574.4 194.6 575.9 216L576.1 220.3L576.1 435.8C576.1 457.4 565.2 477.5 547.3 489.2L543.6 491.4L351.6 600.2C332 611.3 308 611.3 288.5 600.2L96.4 491.4C76.4 480.1 64 458.8 64 435.8L64 220.3L64.2 216C65.6 194.6 77.7 175.3 96.5 164.6L288.5 55.8L292.2 53.8zM328.1 496.8L328.1 591.9C331.5 591.3 334.9 590.4 338.1 589.1L343.7 586.3L535.7 477.5C537.6 476.4 539.4 475.2 541.1 473.9L328 496.8zM99 474L104.4 477.5L296.4 586.3C301.3 589.1 306.7 590.9 312.1 591.8L312.1 496.7L99 473.9L99.1 474zM94.4 457.3L305.9 480L199.6 280.3L94.3 457.4zM334.2 480L545.7 457.4L440.4 280.3L334.2 480zM320 472.6L426.7 272L213.3 272L320 472.6zM83.6 202.3C81.3 207.9 80 214 80 220.3L80 435.8C80 439.8 80.6 443.8 81.5 447.6L189.1 266.7L83.6 202.3zM451 266.7L558.5 447.5C559.5 443.7 560 439.7 560 435.7L560 220.2C560 213.9 558.8 207.8 556.5 202.2L450.9 266.7zM213.9 256L426.2 256L320 71.5L213.9 256zM304.7 66C301.8 67 299 68.2 296.3 69.7L104.3 178.5L99 182C96.4 184 94.1 186.2 92 188.6L197.2 252.9L304.7 66zM442.9 252.9L548 188.7C544.5 184.7 540.4 181.2 535.7 178.5L343.7 69.7L338 66.9C337.1 66.5 336.2 66.3 335.3 66L442.9 252.9z"/></svg>