<svg xmlns="http://www.w3.org/2000/svg" viewBox="0 0 640 640"><!--! Font Awesome Pro 7.2.0 by @fontawesome - https://fontawesome.com License - https://fontawesome.com/license (Commercial License) Copyright 2026 Fonticons, Inc. --><path fill="currentColor" d="M295.7 62.3C308.5 46.7 332.5 46.7 345.3 62.3L587.7 358.6C599.1 372.5 596.8 393.1 582.6 404.1L340.1 592.7L335.6 595.6C326.2 600.7 314.8 600.7 305.3 595.6L300.8 592.7L58.4 404.1C45.1 393.8 42.2 375.1 51.3 361.3L53.3 358.6L295.7 62.3zM328.5 581.3C329.1 580.9 329.7 580.6 330.3 580.1L572.8 391.5L575.2 389.2C579.4 384.3 580.2 377.2 577.2 371.5L575.4 368.8L332.9 72.5C331.6 71 330.1 69.7 328.5 68.8L328.5 581.4zM310.7 69.8L308.1 72.4L65.6 368.7C59.9 375.7 61.1 385.9 68.2 391.4L310.7 580L312.5 581.2L312.5 68.7C311.9 69 311.3 69.4 310.7 69.8z"/></svg>