<svg xmlns="http://www.w3.org/2000/svg" viewBox="0 0 640 640"><!--! Font Awesome Pro 7.2.0 by @fontawesome - https://fontawesome.com License - https://fontawesome.com/license (Commercial License) Copyright 2026 Fonticons, Inc. --><path fill="currentColor" d="M544 144C570.5 144 592 165.5 592 192L592 448C592 474.5 570.5 496 544 496L96 496C69.5 496 48 474.5 48 448L48 192C48 165.5 69.5 144 96 144L544 144zM96 128C60.7 128 32 156.7 32 192L32 448C32 483.3 60.7 512 96 512L544 512C579.3 512 608 483.3 608 448L608 192C608 156.7 579.3 128 544 128L96 128zM288 208C296.8 208 304 215.2 304 224L304 256C304 264.8 296.8 272 288 272L128 272C119.2 272 112 264.8 112 256L112 224C112 215.2 119.2 208 128 208L288 208zM128 192C110.3 192 96 206.3 96 224L96 256C96 273.7 110.3 288 128 288L288 288C305.7 288 320 273.7 320 256L320 224C320 206.3 305.7 192 288 192L128 192zM416 256C416 229.5 437.5 208 464 208C490.5 208 512 229.5 512 256C512 282.5 490.5 304 464 304C437.5 304 416 282.5 416 256zM528 256C528 220.7 499.3 192 464 192C428.7 192 400 220.7 400 256C400 291.3 428.7 320 464 320C499.3 320 528 291.3 528 256zM96 440C96 444.4 99.6 448 104 448L280 448C284.4 448 288 444.4 288 440C288 435.6 284.4 432 280 432L104 432C99.6 432 96 435.6 96 440zM352 440C352 444.4 355.6 448 360 448L536 448C540.4 448 544 444.4 544 440C544 435.6 540.4 432 536 432L360 432C355.6 432 352 435.6 352 440zM112 368C120.8 368 128 360.8 128 352C128 343.2 120.8 336 112 336C103.2 336 96 343.2 96 352C96 360.8 103.2 368 112 368zM208 352C208 343.2 200.8 336 192 336C183.2 336 176 343.2 176 352C176 360.8 183.2 368 192 368C200.8 368 208 360.8 208 352zM272 368C280.8 368 288 360.8 288 352C288 343.2 280.8 336 272 336C263.2 336 256 343.2 256 352C256 360.8 263.2 368 272 368z"/></svg>