<svg xmlns="http://www.w3.org/2000/svg" viewBox="0 0 640 640"><!--! Font Awesome Pro 7.2.0 by @fontawesome - https://fontawesome.com License - https://fontawesome.com/license (Commercial License) Copyright 2026 Fonticons, Inc. --><path fill="currentColor" d="M32 72C32 67.6 35.6 64 40 64L88 64C110.1 64 128 81.9 128 104L128 440C128 462.1 145.9 480 168 480L600 480C604.4 480 608 483.6 608 488C608 492.4 604.4 496 600 496L547.8 496C555.4 504.5 560 515.7 560 528C560 554.5 538.5 576 512 576C485.5 576 464 554.5 464 528C464 515.7 468.6 504.5 476.2 496L259.8 496C267.4 504.5 272 515.7 272 528C272 554.5 250.5 576 224 576C197.5 576 176 554.5 176 528C176 515.7 180.6 504.5 188.2 496L168 496C137.1 496 112 470.9 112 440L112 104C112 90.7 101.3 80 88 80L40 80C35.6 80 32 76.4 32 72zM512 496C494.3 496 480 510.3 480 528C480 545.7 494.3 560 512 560C529.7 560 544 545.7 544 528C544 510.3 529.7 496 512 496zM192 528C192 545.7 206.3 560 224 560C241.7 560 256 545.7 256 528C256 510.3 241.7 496 224 496C206.3 496 192 510.3 192 528zM344 144L232 144C218.7 144 208 154.7 208 168L208 376C208 389.3 218.7 400 232 400L344 400C357.3 400 368 389.3 368 376L368 168C368 154.7 357.3 144 344 144zM384 232C390.7 227 399 224 408 224L504 224C526.1 224 544 241.9 544 264L544 376C544 398.1 526.1 416 504 416L408 416C394.9 416 383.3 409.7 376 400C368.7 409.7 357.1 416 344 416L232 416C209.9 416 192 398.1 192 376L192 168C192 145.9 209.9 128 232 128L344 128C366.1 128 384 145.9 384 168L384 232zM384 264L384 376C384 389.3 394.7 400 408 400L504 400C517.3 400 528 389.3 528 376L528 264C528 250.7 517.3 240 504 240L408 240C394.7 240 384 250.7 384 264z"/></svg>