<svg xmlns="http://www.w3.org/2000/svg" viewBox="0 0 640 640"><!--! Font Awesome Pro 7.2.0 by @fontawesome - https://fontawesome.com License - https://fontawesome.com/license (Commercial License) Copyright 2026 Fonticons, Inc. --><path fill="currentColor" d="M112 204C112 135.5 167.5 80 236 80L276.3 80C321 80 363.3 90.3 400.9 108.7C402.9 109.7 405.2 109.8 407.3 109C443 95.5 492 80 528.1 80C528.3 80 528.4 80 528.5 80C528.6 80.4 528.7 81.1 528.7 82.4C528.7 87.3 526.6 95.2 522.6 105.3C514.7 125.2 501.1 149.9 490 168.6C488.2 171.6 488.6 175.3 490.8 177.9C534 227.7 560.1 292.6 560.1 363.7C560.1 445.6 493.7 512 411.8 512L324.8 512C321.9 512 319.3 513.5 317.9 516C303 541.9 275.8 558.5 245.7 559.9L279 499.9C280.3 497.5 280.3 494.5 279 492.1L245.7 432.1C275.8 433.5 302.9 450.1 317.9 476C319.3 478.5 322 480 324.8 480L396 480C438 480 472 446 472 404C472 362 438 328 396 328L392 328C387.6 328 384 331.6 384 336L384 397C384 407.5 375.5 416 365 416C360 416 355.3 414.1 351.7 410.6L277.6 338C275.5 336 272.5 335.2 269.7 336L106.2 336C91.8 336 80 324.3 80 309.8C80 300.5 84.9 291.9 93 287.2L122.1 270.2C125.8 268.1 127.1 263.5 125.2 259.7C116.8 243 112 224 112 204zM106.2 352L269.1 352L340.6 422C347.1 428.4 355.9 432 365.1 432C384.4 432 400.1 416.3 400.1 397L400.1 344.1C431.4 346.2 456.1 372.2 456.1 404C456.1 437.1 429.2 464 396.1 464L329.4 464C310.5 434.4 277.6 416 241.8 416L232.2 416C229.4 416 226.7 417.5 225.3 419.9C223.9 422.3 223.8 425.4 225.2 427.8L262.8 496L225 564.1C223.6 566.6 223.7 569.6 225.1 572C226.5 574.4 229.2 575.9 232 575.9L241.6 575.9C277.4 575.9 310.3 557.5 329.2 527.9L411.7 527.9C502.4 527.9 576 454.4 576 363.6C576 290.6 549.9 223.7 506.5 171.7C517.1 153.5 529.7 130.4 537.3 111C541.4 100.7 544.5 90.4 544.5 82.3C544.5 78.2 543.8 73.5 540.8 69.7C537.5 65.5 532.8 63.8 527.8 63.8C489.7 63.8 440.1 79.4 404.6 92.7C365.6 74.2 322.1 63.8 276.1 63.8L236 64C158.7 64 96 126.7 96 204C96 223.9 100.2 242.9 107.7 260.1L84.9 273.4C72 281 64 294.8 64 309.8C64 333.1 82.9 352 106.2 352zM208 224C216.8 224 224 216.8 224 208C224 199.2 216.8 192 208 192C199.2 192 192 199.2 192 208C192 216.8 199.2 224 208 224z"/></svg>