<svg xmlns="http://www.w3.org/2000/svg" viewBox="0 0 640 640"><!--! Font Awesome Pro 7.2.0 by @fontawesome - https://fontawesome.com License - https://fontawesome.com/license (Commercial License) Copyright 2026 Fonticons, Inc. --><path fill="currentColor" d="M152.2 496C147.8 496 144.2 492.4 144.2 488L144.2 198.6C144.2 191.5 152.8 187.9 157.9 192.9L258.6 293.7C260.1 295.2 262.2 296.1 264.3 296C266.4 295.9 268.5 295.1 270 293.5L423.4 133.2C432.7 123.5 448.2 123.3 457.7 132.8L508 183C517.4 192.4 517.4 207.6 508 216.9L346.6 378.3C343.5 381.4 343.5 386.5 346.6 389.6L439.3 482.3C444.3 487.3 440.8 496 433.6 496L152.2 496zM128.2 488C128.2 501.3 138.9 512 152.2 512L433.6 512C455 512 465.7 486.1 450.6 471L363.6 384L519.3 228.3C534.9 212.7 534.9 187.4 519.3 171.7L469 121.5C453.1 105.6 427.3 105.9 411.8 122.1L264.1 276.6L169.2 181.7C154.1 166.6 128.2 177.3 128.2 198.7L128.2 488.1z"/></svg>