<svg xmlns="http://www.w3.org/2000/svg" viewBox="0 0 640 640"><!--! Font Awesome Pro 7.2.0 by @fontawesome - https://fontawesome.com License - https://fontawesome.com/license (Commercial License) Copyright 2026 Fonticons, Inc. --><path fill="currentColor" d="M512 224C582.7 224 640 281.3 640 352C640 392.4 621.2 428.4 592 451.9L592 561.6C592 569.6 585.5 576.1 577.5 576.1C575.3 576.1 573 575.6 571 574.6L511.9 545.1L452.8 574.6C450.8 575.6 448.6 576.1 446.3 576.1C438.3 576.1 431.8 569.6 431.8 561.6L431.8 451.9C402.6 428.4 383.8 392.4 383.8 352C383.8 281.3 441.1 224 511.8 224zM576 462.8C557.2 473.7 535.3 480 512 480C488.7 480 466.8 473.7 448 462.8L448 559L508.4 528.8L510.2 528.2C512 527.8 513.9 528 515.6 528.8L576 559L576 462.8zM512 128C546 128 573.7 154.5 575.8 188C570.3 185.9 564.8 184 559 182.4C554.5 160.5 535.2 144 512 144L119.9 144C97.9 144 80 161.9 80 183.9C80 196.5 86 208.4 96.1 215.9L286.6 357.3C301.2 368.2 319.8 370.9 336.5 365.8C336.9 371.2 337.6 376.6 338.5 381.9C317.7 387.4 295 383.6 277 370.2L86.6 228.8C84.2 227 82 225 80 222.9L80 448C80 474.5 101.5 496 128 496L384 496L384 512L128 512C92.7 512 64 483.3 64 448L64 183.9C64 153 89 128 119.9 128L512 128zM512 240C450.1 240 400 290.1 400 352C400 413.9 450.1 464 512 464C573.9 464 624 413.9 624 352C624 290.1 573.9 240 512 240zM512 400C485.5 400 464 378.5 464 352C464 325.5 485.5 304 512 304C538.5 304 560 325.5 560 352C560 378.5 538.5 400 512 400zM512 320C494.3 320 480 334.3 480 352C480 369.7 494.3 384 512 384C529.7 384 544 369.7 544 352C544 334.3 529.7 320 512 320z"/></svg>