<svg xmlns="http://www.w3.org/2000/svg" viewBox="0 0 640 640"><!--! Font Awesome Pro 7.2.0 by @fontawesome - https://fontawesome.com License - https://fontawesome.com/license (Commercial License) Copyright 2026 Fonticons, Inc. --><path fill="currentColor" d="M320.5 64C335.2 64 348.7 72.1 355.7 85L571.7 485C578.4 497.4 578.1 512.4 570.9 524.5C563.7 536.6 550.6 544 536.5 544L104.5 544C90.4 544 77.4 536.6 70.2 524.5C63 512.4 62.7 497.4 69.4 485L285.4 85C292.4 72.1 305.9 64 320.6 64zM320.5 81.6C312.3 81.6 304.7 86.1 300.8 93.4L84.8 493.4C81.1 500.3 81.2 508.8 85.3 515.5C89.4 522.2 96.7 526.4 104.5 526.4L536.5 526.4C544.4 526.4 551.7 522.2 555.7 515.5C559.7 508.8 559.9 500.3 556.2 493.4L340.2 93.4C336.3 86.2 328.7 81.7 320.5 81.6zM320.5 472C311.7 472 304.5 464.8 304.5 456C304.5 447.2 311.7 440 320.5 440C329.3 440 336.5 447.2 336.5 456C336.5 464.8 329.3 472 320.5 472zM323.4 232.3C330 233.7 334.9 239.7 334.6 246.7L328.5 392.3C328.3 396.6 324.8 400 320.5 400C316.2 400 312.7 396.6 312.5 392.3L306.4 246.7C306.1 238.7 312.5 232 320.5 232L323.4 232.3z"/></svg>