<svg xmlns="http://www.w3.org/2000/svg" viewBox="0 0 640 640"><!--! Font Awesome Pro 7.2.0 by @fontawesome - https://fontawesome.com License - https://fontawesome.com/license (Commercial License) Copyright 2026 Fonticons, Inc. --><path fill="currentColor" d="M320 560C401 560 472.6 519.9 516 458.5C520.3 461.7 524.8 464.6 529.5 467.1C483.2 532.9 406.6 576 320 576C233.4 576 156.8 533 110.5 467.1C115.2 464.6 119.7 461.7 124 458.5C167.5 519.9 239.1 560 320 560zM320 64C441.7 64 543.6 149 569.6 262.8L552.6 260.7C526.2 156.8 432.1 80 320 80C207.9 80 113.8 156.8 87.4 260.7L70.4 262.8C96.4 149 198.3 64 320 64zM457.3 379.6C416 392.7 369.3 400 320 400C270.7 400 224 392.7 182.7 379.6C201.2 437.8 255.7 480 320 480C384.3 480 438.8 437.8 457.3 379.6zM453.5 364C465.1 360.3 476.9 369.6 473.5 381.3C454 447.6 392.6 496 320 496C247.4 496 186 447.6 166.5 381.3C163.1 369.6 174.9 360.3 186.5 364C226.4 376.8 271.8 384 320 384C368.2 384 413.6 376.8 453.5 364zM200 274L200 290C200 294.4 196.4 298 192 298C187.6 298 184 294.4 184 290L184 274C184 243.1 209.1 218 240 218C270.9 218 296 243.1 296 274L296 290C296 294.4 292.4 298 288 298C283.6 298 280 294.4 280 290L280 274C280 251.9 262.1 234 240 234C217.9 234 200 251.9 200 274zM400 234C377.9 234 360 251.9 360 274L360 290C360 294.4 356.4 298 352 298C347.6 298 344 294.4 344 290L344 274C344 243.1 369.1 218 400 218C430.9 218 456 243.1 456 274L456 290C456 294.4 452.4 298 448 298C443.6 298 440 294.4 440 290L440 274C440 251.9 422.1 234 400 234zM16 372.5C16 396.5 35.5 416 59.5 416C81.4 416 99.9 399.7 102.7 377.9L109.6 322.4L54.1 329.3C32.3 332.1 16 350.6 16 372.5zM585.9 329.4L530.4 322.5L537.3 378C540 399.8 558.5 416.1 580.5 416.1C604.5 416.1 624 396.6 624 372.6C624 350.7 607.7 332.2 585.9 329.4zM52.1 313.5L107.6 306.6C118 305.3 126.8 314.1 125.5 324.5L118.6 380C114.9 409.8 89.6 432.1 59.6 432.1C26.7 432.1 .1 405.5 .1 372.6C.1 342.6 22.4 317.3 52.2 313.6zM587.9 313.5C617.7 317.2 640 342.5 640 372.5C640 405.4 613.4 432 580.5 432C550.5 432 525.2 409.7 521.5 379.9L514.6 324.4C513.3 314 522.1 305.2 532.5 306.5L588 313.4z"/></svg>