<svg xmlns="http://www.w3.org/2000/svg" viewBox="0 0 640 640"><!--! Font Awesome Pro 7.2.0 by @fontawesome - https://fontawesome.com License - https://fontawesome.com/license (Commercial License) Copyright 2026 Fonticons, Inc. --><path fill="currentColor" d="M464 512C522.3 468.2 560 398.5 560 320C560 187.5 452.5 80 320 80C187.5 80 80 187.5 80 320C80 412.1 131.9 492.1 208 532.3L208 536C208 541 208.3 545.9 208.9 550.7C123.2 509.3 64 421.6 64 320C64 178.6 178.6 64 320 64C461.4 64 576 178.6 576 320C576 409.5 530.1 488.2 460.6 534C462.8 527.1 464 519.7 464 512zM240 208C248.8 208 256 215.2 256 224C256 232.8 248.8 240 240 240C231.2 240 224 232.8 224 224C224 215.2 231.2 208 240 208zM384 224C384 215.2 391.2 208 400 208C408.8 208 416 215.2 416 224C416 232.8 408.8 240 400 240C391.2 240 384 232.8 384 224zM213.2 332.2C228.4 351.5 248.7 366.5 272 375.3L272 392.3C243.5 382.8 218.8 365.2 200.6 342.1C197.9 338.6 198.5 333.6 201.9 330.9C205.3 328.2 210.4 328.8 213.1 332.2zM439.4 342.1C428.4 356 415.1 367.9 400 377.3L400 358C410.1 350.7 419.1 342 426.8 332.2C429.5 328.7 434.6 328.1 438 330.9C441.4 333.7 442.1 338.7 439.3 342.1zM320 512L320 544L360 544C355 537.3 352 529 352 520L352 512L320 512zM352 496L368 496L368 520C368 533.3 378.7 544 392 544C405.3 544 416 533.3 416 520L416 472C416 458.7 405.3 448 392 448L320 448C284.7 448 256 476.7 256 512L256 544C256 579.3 284.7 608 320 608L392 608C405.3 608 416 597.3 416 584C416 570.7 405.3 560 392 560L320 560C311.2 560 304 552.8 304 544L304 512C304 503.2 311.2 496 320 496L352 496zM352 432L352 352C352 343.2 344.8 336 336 336C327.2 336 320 343.2 320 352L320 432L352 432zM416 552C425.7 559.3 432 570.9 432 584C432 606.1 414.1 624 392 624L320 624C275.8 624 240 588.2 240 544L240 512C240 473.3 267.5 441 304 433.6L304 352C304 334.3 318.3 320 336 320C353.7 320 368 334.3 368 352L368 432L392 432C414.1 432 432 449.9 432 472L432 520C432 533.1 425.7 544.7 416 552z"/></svg>