<svg xmlns="http://www.w3.org/2000/svg" viewBox="0 0 640 640"><!--! Font Awesome Pro 7.2.0 by @fontawesome - https://fontawesome.com License - https://fontawesome.com/license (Commercial License) Copyright 2026 Fonticons, Inc. --><path fill="currentColor" d="M320 80C452.5 80 560 187.5 560 320C560 452.5 452.5 560 320 560C187.5 560 80 452.5 80 320C80 187.5 187.5 80 320 80zM320 576C461.4 576 576 461.4 576 320C576 292.1 571.5 265.2 563.3 240.1C616.4 175.7 634 102.9 639.9 73.6C640.5 70.4 639.2 67.2 636.5 65.4C633.8 63.6 630.3 63.6 627.6 65.4C607.3 78.9 577.1 90.5 547.1 99.5C519.8 107.7 493.3 113.5 475.5 116.7C432.4 83.7 378.5 64.1 320 64.1C261.5 64.1 207.6 83.6 164.5 116.6C146.8 113.4 120.2 107.6 92.9 99.4C62.9 90.4 32.7 78.8 12.4 65.3C9.7 63.5 6.2 63.5 3.5 65.3C.8 67.1-.5 70.3 .1 73.5C6 102.9 23.6 175.7 76.7 240.1C68.5 265.2 64 292.1 64 320C64 461.4 178.6 576 320 576zM556.8 222.6C542.1 186.9 519.6 155.3 491.4 129.9C508.4 126.4 529.8 121.4 551.6 114.8C575.2 107.7 599.9 98.8 620.2 88.2C612.2 120.6 594.7 173.6 556.8 222.6zM88.4 114.8C110.2 121.3 131.6 126.4 148.6 129.9C120.4 155.3 97.9 187 83.2 222.6C45.3 173.7 27.8 120.7 19.8 88.2C40.1 98.8 64.7 107.7 88.4 114.8zM201.9 426.8C198.4 429.5 197.8 434.6 200.6 438C228.4 473.3 271.6 495.9 320 495.9C368.4 495.9 411.6 473.2 439.4 438C442.1 434.5 441.5 429.5 438.1 426.8C434.7 424.1 429.6 424.7 426.9 428.1C401.9 459.7 363.3 480 320 480C276.7 480 238.1 459.7 213.2 428.2C210.5 424.7 205.4 424.1 202 426.9zM240 352C248.8 352 256 344.8 256 336C256 327.2 248.8 320 240 320C231.2 320 224 327.2 224 336C224 344.8 231.2 352 240 352zM416 336C416 327.2 408.8 320 400 320C391.2 320 384 327.2 384 336C384 344.8 391.2 352 400 352C408.8 352 416 344.8 416 336zM194.5 264.4C190.3 263 185.8 265.3 184.4 269.5C183 273.7 185.3 278.2 189.5 279.6L285.5 311.6C289.7 313 294.2 310.7 295.6 306.5C297 302.3 294.7 297.8 290.5 296.4L194.5 264.4zM450.5 279.6C454.7 278.2 457 273.7 455.6 269.5C454.2 265.3 449.7 263 445.5 264.4L349.5 296.4C345.3 297.8 343 302.3 344.4 306.5C345.8 310.7 350.3 313 354.5 311.6L450.5 279.6z"/></svg>