<svg xmlns="http://www.w3.org/2000/svg" viewBox="0 0 640 640"><!--! Font Awesome Pro 7.2.0 by @fontawesome - https://fontawesome.com License - https://fontawesome.com/license (Commercial License) Copyright 2026 Fonticons, Inc. --><path fill="currentColor" d="M560 320C560 187.5 452.5 80 320 80C187.5 80 80 187.5 80 320C80 452.5 187.5 560 320 560C452.5 560 560 452.5 560 320zM64 320C64 178.6 178.6 64 320 64C461.4 64 576 178.6 576 320C576 461.4 461.4 576 320 576C178.6 576 64 461.4 64 320zM276.4 409.3L320 438.3L363.6 409.3C366.3 407.5 369.8 407.5 372.5 409.3L416.6 438.7L444.4 424.8C448.4 422.8 453.2 424.4 455.1 428.4C457 432.4 455.5 437.2 451.5 439.1L419.5 455.1C416.9 456.4 413.9 456.2 411.5 454.6L367.9 425.6L324.3 454.6C321.6 456.4 318.1 456.4 315.4 454.6L271.8 425.6L228.2 454.6C225.8 456.2 222.8 456.4 220.2 455.1L188.2 439.1C184.2 437.1 182.6 432.3 184.6 428.4C186.6 424.5 191.4 422.8 195.3 424.8L223.1 438.7L267.2 409.3C269.9 407.5 273.4 407.5 276.1 409.3zM184.8 252.4C186.8 248.4 191.6 246.8 195.5 248.8L291.5 296.8C294.2 298.2 295.9 300.9 295.9 304C295.9 307.1 294.2 309.8 291.5 311.2L195.5 359.2C191.5 361.2 186.7 359.6 184.8 355.6C182.9 351.6 184.4 346.8 188.4 344.9L270.1 304.1L188.4 263.3C184.4 261.3 182.8 256.5 184.8 252.6zM451.5 263.1L369.8 303.9L451.5 344.7C455.5 346.7 457.1 351.5 455.1 355.4C453.1 359.3 448.3 361 444.4 359L348.4 311C345.7 309.6 344 306.9 344 303.8C344 300.7 345.7 298 348.4 296.6L444.4 248.6C448.4 246.6 453.2 248.2 455.1 252.2C457 256.2 455.5 261 451.5 262.9z"/></svg>