<svg xmlns="http://www.w3.org/2000/svg" viewBox="0 0 640 640"><!--! Font Awesome Pro 7.2.0 by @fontawesome - https://fontawesome.com License - https://fontawesome.com/license (Commercial License) Copyright 2026 Fonticons, Inc. --><path fill="currentColor" d="M325.5 80C329.1 80 332.6 80.4 336 81.2L336 184C336 214.9 361.1 240 392 240L494.8 240C495.6 243.4 496 246.9 496 250.5L496 512C496 538.5 474.5 560 448 560L192 560C165.5 560 144 538.5 144 512L144 128C144 101.5 165.5 80 192 80L325.5 80zM481.9 216.6C484.2 218.9 486.2 221.4 488 224L392 224C369.9 224 352 206.1 352 184L352 88C354.7 89.8 357.1 91.8 359.4 94.1L481.9 216.6zM192 64C156.7 64 128 92.7 128 128L128 512C128 547.3 156.7 576 192 576L448 576C483.3 576 512 547.3 512 512L512 250.5C512 233.5 505.3 217.2 493.3 205.2L370.7 82.7C358.7 70.7 342.5 64 325.5 64L192 64zM320 312C315.6 312 312 315.6 312 320L312 392L240 392C235.6 392 232 395.6 232 400C232 404.4 235.6 408 240 408L312 408L312 480C312 484.4 315.6 488 320 488C324.4 488 328 484.4 328 480L328 408L400 408C404.4 408 408 404.4 408 400C408 395.6 404.4 392 400 392L328 392L328 320C328 315.6 324.4 312 320 312z"/></svg>