<svg xmlns="http://www.w3.org/2000/svg" viewBox="0 0 640 640"><!--! Font Awesome Pro 7.2.0 by @fontawesome - https://fontawesome.com License - https://fontawesome.com/license (Commercial License) Copyright 2026 Fonticons, Inc. --><path fill="currentColor" d="M240 464C244.4 464 248 467.6 248 472L248 600C248 604.4 244.4 608 240 608C235.6 608 232 604.4 232 600L232 544L184 544L184 600C184 604.4 180.4 608 176 608C171.6 608 168 604.4 168 600L168 472C168 467.6 171.6 464 176 464C180.4 464 184 467.6 184 472L184 528L232 528L232 472C232 467.6 235.6 464 240 464zM352 464C356.4 464 360 467.6 360 472C360 476.4 356.4 480 352 480L328 480L328 600C328 604.4 324.4 608 320 608C315.6 608 312 604.4 312 600L312 480L288 480C283.6 480 280 476.4 280 472C280 467.6 283.6 464 288 464L352 464zM498.1 464.3C501.6 465.3 504 468.4 504 472L504 600C504 604.4 500.4 608 496 608C491.6 608 488 604.4 488 600L488 500.9L454.9 556.1C453.5 558.5 450.8 560 448 560C445.2 560 442.6 558.5 441.1 556.1L408 500.9L408 600C408 604.4 404.4 608 400 608C395.6 608 392 604.4 392 600L392 472C392 468.4 394.4 465.2 397.9 464.3C401.4 463.4 405.1 464.8 406.9 467.9L448 536.4L489.1 467.9C490.9 464.8 494.6 463.4 498.1 464.3zM560 464C564.4 464 568 467.6 568 472L568 592L592 592C596.4 592 600 595.6 600 600C600 604.4 596.4 608 592 608L560 608C555.6 608 552 604.4 552 600L552 472C552 467.6 555.6 464 560 464zM267.8 64.3C282.5 65.8 296.2 72.2 306.7 82.7L429.3 205.2C441.3 217.2 448 233.5 448 250.4L448 399.9L432 399.9L432 250.4C432 246.8 431.6 243.3 430.8 239.9L328 240C297.1 240 272 214.9 272 184L272 81.2C268.6 80.4 265.1 80 261.5 80L128 80C101.5 80 80 101.5 80 128L80 512C80 532.9 93.4 550.6 112 557.2L112 573.9C84.4 566.8 64 541.8 64 512L64 128C64 92.7 92.7 64 128 64L261.5 64L267.8 64.3zM288 184C288 206.1 305.9 224 328 224L424 224C422.2 221.3 420.2 218.8 417.9 216.6L295.4 94.1C293.1 91.8 290.6 89.8 288 88L288 184z"/></svg>