<svg xmlns="http://www.w3.org/2000/svg" viewBox="0 0 640 640"><!--! Font Awesome Pro 7.2.0 by @fontawesome - https://fontawesome.com License - https://fontawesome.com/license (Commercial License) Copyright 2026 Fonticons, Inc. --><path fill="currentColor" d="M318.4 82.1C319.4 80.8 321 80 322.7 80C325.6 80 328 82.4 328 85.3L328 107.4C328 124.9 335.2 141.7 347.9 153.7L426.1 228.2C470.7 270.8 496 329.8 496 391.4C496 484.5 420.5 560 327.4 560L312.3 560C219.4 560 144 484.6 144 391.7L144 380.2C144 335.6 161.7 292.9 193.2 261.4L211 243.6C213.3 241.3 216.4 240 219.7 240C226.5 240 232 245.5 232 252.3L232 352C232 382.9 257.1 408 288 408C318.9 408 344 382.9 344 352L344 338C344 322.9 339.1 308.1 330 296L298 253.3C281.5 231.4 273.7 204.1 276 176.8L276.9 166C278.6 145 286.3 124.9 298.9 108.1L318.4 82.1zM305.6 72.5L286.1 98.5C271.7 117.8 262.9 140.7 260.9 164.7L260 175.5C257.4 206.7 266.3 237.9 285.2 262.9L317.2 305.6C324.2 314.9 328 326.3 328 338L328 352C328 374.1 310.1 392 288 392C265.9 392 248 374.1 248 352L248 252.3C248 236.7 235.3 224 219.7 224C212.2 224 205 227 199.7 232.3L181.9 250.1C147.4 284.6 128 331.4 128 380.2L128 391.7C128 493.5 210.5 576 312.3 576L327.4 576C429.3 576 512 493.4 512 391.4C512 325.3 484.9 262.2 437.1 216.6L358.9 142.2C349.4 133.1 344 120.6 344 107.4L344 85.3C344 73.5 334.4 64 322.7 64C316 64 309.7 67.2 305.6 72.5z"/></svg>