<svg xmlns="http://www.w3.org/2000/svg" viewBox="0 0 640 640"><!--! Font Awesome Pro 7.2.0 by @fontawesome - https://fontawesome.com License - https://fontawesome.com/license (Commercial License) Copyright 2026 Fonticons, Inc. --><path fill="currentColor" d="M512 496L128 496C101.5 496 80 474.5 80 448L80 160C80 133.5 101.5 112 128 112L266.7 112C277.1 112 287.2 115.4 295.5 121.6L333.9 150.4C342.2 156.6 352.3 160 362.7 160L512 160C538.5 160 560 181.5 560 208L560 448C560 474.5 538.5 496 512 496zM128 512L512 512C547.3 512 576 483.3 576 448L576 208C576 172.7 547.3 144 512 144L362.7 144C355.8 144 349 141.8 343.5 137.6L305.1 108.8C294 100.5 280.5 96 266.7 96L128 96C92.7 96 64 124.7 64 160L64 448C64 483.3 92.7 512 128 512zM314.3 421.7C317.4 424.8 322.5 424.8 325.6 421.7L397.6 349.7C400.7 346.6 400.7 341.5 397.6 338.4C394.5 335.3 389.4 335.3 386.3 338.4L328 396.7L328 240C328 235.6 324.4 232 320 232C315.6 232 312 235.6 312 240L312 396.7L253.7 338.4C250.6 335.3 245.5 335.3 242.4 338.4C239.3 341.5 239.3 346.6 242.4 349.7L314.4 421.7z"/></svg>