<svg xmlns="http://www.w3.org/2000/svg" viewBox="0 0 640 640"><!--! Font Awesome Pro 7.2.0 by @fontawesome - https://fontawesome.com License - https://fontawesome.com/license (Commercial License) Copyright 2026 Fonticons, Inc. --><path fill="currentColor" d="M400 112C369.1 112 344 137.1 344 168C344 168.1 344 168.3 344 168.4C343.8 172.1 341.1 175.2 337.5 175.8L273.3 188C142.6 212.7 48 326.9 48 460L48 488C48 510.1 65.9 528 88 528L376 528C389.3 528 400 517.3 400 504C400 490.7 389.3 480 376 480L336.1 480C334.3 480 332.5 479.4 331 478.2C327.6 475.4 327 470.4 329.8 467C334.4 461.3 339 455.5 343.6 449.7C354.2 436.4 360 419.9 360 402.9L360 399.2C360 379.7 352.1 362 339.4 349.1C326.5 336.1 308.6 328 288.8 328C269.9 328 251.8 335.5 238.5 348.9L197.7 389.7C194.6 392.8 189.5 392.8 186.4 389.7C183.3 386.6 183.3 381.5 186.4 378.4L227.2 337.6C243.6 321.2 265.7 312.1 288.9 312.1C308 312.1 325.7 318.2 340 328.6C361.9 344.4 376.1 370.2 376.1 399.3L376.1 403C376.1 423.6 369.1 443.7 356.2 459.8L352.8 464.1L376.2 464.1C398.3 464.1 416.2 482 416.2 504.1C416.2 526.2 398.3 544.1 376.2 544.1L88 544C57.1 544 32 518.9 32 488L32 460C32 319.3 132.1 198.4 270.4 172.3L328.3 161.3C331.7 124.7 362.5 96 400 96C439.2 96 471.1 127.4 472 166.4C511.6 173.4 546 184.8 569.6 194C593.9 203.5 608 227.2 608 252.5C608 277.4 594.4 300.2 572.6 312.1L436.2 386.5L547.9 528L600 528C604.4 528 608 531.6 608 536C608 540.4 604.4 544 600 544L544 544C541.6 544 539.2 542.9 537.7 541L417.7 389C416.2 387.2 415.7 384.8 416.1 382.4C416.5 380 418 378.1 420.1 377L564.9 298C581.6 288.9 592 271.4 592 252.4C592 232.9 581.2 215.6 563.8 208.8C539.5 199.3 503.7 187.5 462.6 181C458.5 180.3 455.6 176.6 455.9 172.5C456 171 456.1 169.5 456.1 168C456.1 137.1 431 112 400.1 112zM400 160C408.8 160 416 167.2 416 176C416 184.8 408.8 192 400 192C391.2 192 384 184.8 384 176C384 167.2 391.2 160 400 160z"/></svg>