<svg xmlns="http://www.w3.org/2000/svg" viewBox="0 0 640 640"><!--! Font Awesome Pro 7.2.0 by @fontawesome - https://fontawesome.com License - https://fontawesome.com/license (Commercial License) Copyright 2026 Fonticons, Inc. --><path fill="currentColor" d="M486.5 96.3C518.8 99.6 544 126.9 544 160L544 480L543.7 486.5C540.6 516.6 516.7 540.6 486.6 543.6L480.1 543.9L160.1 543.9L153.6 543.6C123.5 540.5 99.5 516.6 96.5 486.5L96 480L96 160C96 126.9 121.2 99.6 153.5 96.3L160 96L480 96L486.5 96.3zM160 112C133.5 112 112 133.5 112 160L112 480C112 506.5 133.5 528 160 528L480 528C506.5 528 528 506.5 528 480L528 160C528 133.5 506.5 112 480 112L160 112zM451.3 160.2C467.4 161.8 480 175.4 480 192L480 448L479.8 451.3C478.3 466.4 466.3 478.3 451.2 479.9L447.9 480.1L191.9 480.1L188.6 479.9C173.5 478.4 161.6 466.4 160 451.3L160 448L160 192C160 175.4 172.6 161.8 188.7 160.2L192 160L448 160L451.3 160.2zM328 464L448 464C456.8 464 464 456.8 464 448L464 328L328 328L328 464zM176 448C176 456.8 183.2 464 192 464L312 464L312 328L176 328L176 448zM328 312L464 312L464 192C464 183.2 456.8 176 448 176L328 176L328 312zM192 176C183.2 176 176 183.2 176 192L176 312L312 312L312 176L192 176z"/></svg>