<svg xmlns="http://www.w3.org/2000/svg" viewBox="0 0 640 640"><!--! Font Awesome Pro 7.2.0 by @fontawesome - https://fontawesome.com License - https://fontawesome.com/license (Commercial License) Copyright 2026 Fonticons, Inc. --><path fill="currentColor" d="M320 80C452.5 80 560 187.5 560 320C560 452.5 452.5 560 320 560C187.5 560 80 452.5 80 320C80 187.5 187.5 80 320 80zM320 576C461.4 576 576 461.4 576 320C576 178.6 461.4 64 320 64C178.6 64 64 178.6 64 320C64 461.4 178.6 576 320 576zM256 272C256 280.8 248.8 288 240 288L160 288C151.2 288 144 280.8 144 272L144 256C144 225.1 169.1 200 200 200C200.9 200 201.8 200 202.8 200.1C196.2 206 192 214.5 192 224C192 241.7 206.3 256 224 256C236.8 256 247.8 248.5 252.9 237.7C254.9 243.4 256 249.6 256 256L256 272zM200 184C160.2 184 128 216.2 128 256L128 272C128 289.7 142.3 304 160 304L240 304C257.7 304 272 289.7 272 272L272 256C272 216.2 239.8 184 200 184zM240 224C240 232.8 232.8 240 224 240C215.2 240 208 232.8 208 224C208 215.2 215.2 208 224 208C232.8 208 240 215.2 240 224zM424 232C415.2 232 408 224.8 408 216C408 207.2 415.2 200 424 200C432.8 200 440 207.2 440 216C440 224.8 432.8 232 424 232zM402.8 192.1C396.2 198 392 206.5 392 216C392 233.7 406.3 248 424 248C439.1 248 451.8 237.5 455.1 223.5C460.7 233 464 244.2 464 256L464 273.9C464 281.7 457.7 288 449.9 288L350.1 288C342.3 288 336 281.7 336 273.9L336 256C336 220.7 364.7 192 400 192C400.9 192 401.8 192 402.8 192.1zM320 256L320 273.9C320 290.5 333.5 304 350.1 304L449.9 304C466.5 304 480 290.5 480 273.9L480 256C480 211.8 444.2 176 400 176C355.8 176 320 211.8 320 256zM324.7 496L312 496C309.9 496 307.7 496 305.6 495.9C313.1 459.5 345.3 432 384 432C401.7 432 418.1 437.8 431.3 447.5C425.2 455 418.2 461.8 410.6 467.8C386.4 485.5 356.7 496 324.6 496zM289.6 494.4C218 484.2 160.9 425.8 153.5 352L458.5 352C464.9 352 469.9 357.5 469.3 363.9C466.9 390.8 457.2 415.4 442.4 435.9C426.2 423.5 405.9 416.1 383.9 416.1C336.9 416.1 297.8 449.9 289.5 494.5zM420.3 480.6C456.3 454.1 481 412.9 485.3 365.3C486.7 349.6 474.3 336 458.5 336L152.1 336C143.5 336 136.7 343.5 137.5 352.1C145.7 442.3 221.4 512 312 512L329.4 512C363.6 512 395.2 500.3 420.3 480.6z"/></svg>