<svg xmlns="http://www.w3.org/2000/svg" viewBox="0 0 640 640"><!--! Font Awesome Pro 7.2.0 by @fontawesome - https://fontawesome.com License - https://fontawesome.com/license (Commercial License) Copyright 2026 Fonticons, Inc. --><path fill="currentColor" d="M352 464C369.7 464 384 478.3 384 496L384 600C384 604.4 380.4 608 376 608C371.6 608 368 604.4 368 600L368 560L320 560L320 600C320 604.4 316.4 608 312 608C307.6 608 304 604.4 304 600L304 496C304 478.3 318.3 464 336 464L352 464zM472 464C498.5 464 520 485.5 520 512C520 538.5 498.5 560 472 560L448 560L448 600C448 604.4 444.4 608 440 608C435.6 608 432 604.4 432 600L432 472C432 467.6 435.6 464 440 464L472 464zM568 464C572.4 464 576 467.6 576 472L576 600C576 604.4 572.4 608 568 608C563.6 608 560 604.4 560 600L560 472C560 467.6 563.6 464 568 464zM336 480C327.2 480 320 487.2 320 496L320 544L368 544L368 496C368 487.2 360.8 480 352 480L336 480zM448 544L472 544C489.7 544 504 529.7 504 512C504 494.3 489.7 480 472 480L448 480L448 544zM349.9 48C365.1 48 378.2 58.7 381.2 73.6L395.6 143.5C409.7 149.5 422.9 157.2 434.9 166.2L502.7 143.7C517.1 138.9 532.9 144.9 540.5 158.1L570.4 209.9C578 223 575.3 239.7 564 249.8L510.5 297.3C511.4 304.7 511.9 312.3 511.9 320C511.9 327.7 511.4 335.2 510.5 342.7L564 390.2C571.5 396.9 575.2 406.5 574.6 416L558.6 416C559.2 410.9 557.4 405.7 553.4 402.2L500 354.6C496.1 351.1 494.1 345.9 494.8 340.8C495.6 333.9 496.1 326.9 496.1 320C496.1 313.1 495.6 306.1 494.8 299.2C494.2 294 496.1 288.8 500 285.4L553.5 237.9C559.2 232.9 560.5 224.5 556.7 218L526.8 166.2C523 159.6 515.1 156.6 507.9 159L440 181.4C435 183 429.6 182.2 425.4 179C414.3 170.7 402.2 163.7 389.3 158.2C384.5 156.1 381 151.8 379.9 146.7L365.6 76.8C364 69.3 357.5 64 349.9 64L290.1 64C282.5 64 275.9 69.3 274.4 76.8L260 146.7C258.9 151.8 255.5 156.1 250.7 158.2C237.8 163.7 225.7 170.8 214.7 179C210.5 182.1 205 183 200.1 181.4L132.2 158.9C125 156.5 117.1 159.5 113.3 166.1L83.3 217.9C79.5 224.5 80.9 232.8 86.5 237.8L140 285.3C143.9 288.8 145.9 294 145.2 299.1C144.4 305.9 144 312.9 144 319.9C144 326.9 144.4 333.9 145.2 340.7C145.8 345.9 143.9 351.1 140 354.5L86.6 402.2C80.9 407.3 79.6 415.6 83.4 422.1L113.3 473.9C117.1 480.5 125 483.5 132.2 481.1L200 458.6L203.8 457.8C207.6 457.5 211.5 458.6 214.6 460.9C227.2 470.3 241.1 478.1 256 483.9L256 500.9C237.6 494.4 220.4 485.2 205 473.7L137.2 496.3C122.8 501.1 107 495.1 99.4 481.9L69.5 430.1C61.9 417 64.6 400.3 76 390.2L129.4 342.7C128.5 335.3 128.1 327.7 128.1 320C128.1 312.3 128.6 304.7 129.4 297.3L75.9 249.8C64.6 239.7 61.9 223.1 69.5 209.9L99.4 158.1C107 144.9 122.8 138.9 137.2 143.7L205 166.2C217.1 157.2 230.3 149.5 244.3 143.5L258.7 73.6C261.8 58.7 274.9 48 290.1 48L349.9 48zM320 400C275.8 400 240 364.2 240 320C240 275.8 275.8 240 320 240C364.2 240 400 275.8 400 320C400 364.2 364.2 400 320 400zM320 256C284.7 256 256 284.7 256 320C256 355.3 284.7 384 320 384C355.3 384 384 355.3 384 320C384 284.7 355.3 256 320 256z"/></svg>