<svg xmlns="http://www.w3.org/2000/svg" viewBox="0 0 640 640"><!--! Font Awesome Pro 7.2.0 by @fontawesome - https://fontawesome.com License - https://fontawesome.com/license (Commercial License) Copyright 2026 Fonticons, Inc. --><path fill="currentColor" d="M549.6 368C591 368 624.5 401.5 624.5 442.9C624.5 481.3 601 514.3 578.5 539.9C553 568.9 522.4 593.7 502.3 608.6C489.3 618.3 471.8 618.3 458.8 608.6C438.7 593.6 408.1 568.9 382.6 539.9C360.1 514.3 336.6 481.3 336.6 442.9C336.6 401.5 370.1 368 411.5 368C435.5 368 458.1 379.5 472.2 399L480.6 410.7L489 399C503.1 379.5 525.7 368 549.7 368zM549.6 384C530.7 384 513 393.1 501.9 408.4L487 429C485.5 431.1 483.1 432.3 480.5 432.3C477.9 432.3 475.5 431.1 474 429L459.1 408.4C448 393.1 430.3 384 411.4 384C378.9 384 352.5 410.4 352.5 442.9C352.5 475 372.3 504.1 394.6 529.4C419.1 557.2 448.6 581.2 468.4 595.9C475.7 601.4 485.4 601.4 492.8 595.9C512.5 581.2 542.1 557.3 566.6 529.4C588.9 504.1 608.7 475 608.7 442.9C608.7 410.4 582.3 384 549.8 384zM328.5 64C353.8 64 374.5 83.5 376.4 108.3C384.9 100.6 396.2 96 408.5 96C435 96 456.5 117.5 456.5 144L456.5 172.2C465 164.6 476.2 160 488.5 160C515 160 536.5 181.5 536.5 208L536.5 320.8C531.1 321.4 525.7 322.3 520.5 323.6L520.5 208.1C520.5 190.4 506.2 176.1 488.5 176.1C470.8 176.1 456.5 190.4 456.5 208.1L456.5 312.1C456.5 316.5 452.9 320.1 448.5 320.1C444.1 320.1 440.5 316.5 440.5 312.1L440.5 144.1C440.5 126.4 426.2 112.1 408.5 112.1C390.8 112.1 376.5 126.4 376.5 144.1L376.5 312.1C376.5 316.5 372.9 320.1 368.5 320.1C364.1 320.1 360.5 316.5 360.5 312.1L360.5 112.1C360.5 94.4 346.2 80.1 328.5 80.1C310.8 80.1 296.5 94.4 296.5 112.1L296.5 312.1C296.5 316.5 292.9 320.1 288.5 320.1C284.1 320.1 280.5 316.5 280.5 312.1L280.5 144.1C280.5 126.4 266.2 112.1 248.5 112.1C230.8 112.1 216.5 126.4 216.5 144.1L216.5 399.5C216.5 402.7 214.5 405.6 211.6 406.9C208.7 408.2 205.2 407.5 202.9 405.2L135.2 337.5C122.7 325 102.4 325 90 337.5C77.6 350 77.5 370.3 90 382.7L201.6 494.4C237.8 530.6 285.2 553.1 335.6 558.6C339.2 563.2 342.9 567.5 346.5 571.6C347.7 573 349.1 574.4 350.3 575.8C290.2 573.4 233 548.5 190.3 505.8L78.6 393.9C59.9 375.2 59.9 344.8 78.6 326C97.3 307.2 127.7 307.3 146.5 326L200.6 380.1L200.6 144C200.6 117.5 222.1 96 248.6 96C261 96 272.2 100.7 280.7 108.3C282.6 83.5 303.3 64 328.6 64z"/></svg>