<svg xmlns="http://www.w3.org/2000/svg" viewBox="0 0 640 640"><!--! Font Awesome Pro 7.2.0 by @fontawesome - https://fontawesome.com License - https://fontawesome.com/license (Commercial License) Copyright 2026 Fonticons, Inc. --><path fill="currentColor" d="M95.2 66.6C124.7 57.3 156.2 73.6 165.5 103.1L182.8 158C188.9 177.5 192.1 197.8 192.1 218.2L192.1 236.7L221.2 207.6C231.2 197.6 244.7 192 258.9 192C288.3 192 312.1 215.8 312.1 245.2C312.1 249.4 311.5 253.4 310.6 257.4C314.6 256.5 318.7 255.9 322.8 255.9C352.2 255.9 376 279.7 376.1 309.1C376.1 313.3 375.5 317.3 374.6 321.3C378.6 320.4 382.7 319.8 386.8 319.8C416 319.8 439.7 343.3 440 372.5L501.1 311.4C511.1 301.4 524.6 295.8 538.8 295.8C568.2 295.8 592.1 319.6 592.1 349.1C592.1 361.5 587.8 373.4 580 382.9L576.5 386.8L451.1 512.2C410.3 553.1 355 576 297.4 576C177.3 576 80.1 478.7 80 358.7L80 218.2C80 209.2 78.6 200.3 75.9 191.7L58.6 136.9C49.3 107.4 65.7 75.9 95.1 66.6zM150.2 107.9C143.5 86.9 121 75.2 100 81.9C78.9 88.5 67.2 111 73.9 132.1L91.2 186.9C94.4 197 96 207.6 96 218.2L96 358.7L96.3 369C101.7 475.4 189.7 560 297.4 560C350.8 560 402 538.8 439.8 501L565.2 375.6L567.7 372.9C573.1 366.3 576.2 357.9 576.2 349.3C576.2 328.7 559.5 312.1 538.9 312C529 312 519.5 315.9 512.6 322.9L363 472.4C353 482.4 339.5 488 325.3 488C295.9 488 272.1 464.2 272.1 434.8C272.1 434.1 272.2 433.4 272.2 432.7C264.1 437.4 254.9 440.1 245.4 440.1C216 440.1 192.2 416.3 192.1 386.9C192.1 377.4 194.7 368.1 199.4 360C198.7 360 198 360.1 197.3 360.1C167.9 360.1 144.1 336.3 144 306.9C144 292.8 149.6 279.2 159.6 269.2L176 252.8L176 218.3C176 199.5 173.1 180.8 167.5 162.9L150.2 108zM386.8 336C376.9 336 367.4 339.9 360.5 346.9L299 408.4C292 415.4 288.1 424.9 288.1 434.7C288.1 455.3 304.8 471.9 325.3 471.9C335.2 471.9 344.7 468 351.6 461L413.1 399.5C420.1 392.5 424 383 424 373.2C424 352.6 407.3 336 386.7 335.9zM322.8 272C312.9 272 303.4 275.9 296.5 282.9L219 360.4C212 367.4 208.1 376.9 208.1 386.7C208.1 407.3 224.8 423.9 245.4 423.9C255.3 423.9 264.8 420 271.7 413L349.2 335.5C356.2 328.5 360.1 319 360.1 309.2C360.1 288.6 343.4 272 322.8 272zM258.8 208C248.9 208 239.4 211.9 232.5 218.9L171 280.4C164 287.4 160.1 296.9 160.1 306.7C160.1 327.3 176.8 343.9 197.4 343.9C207.3 343.9 216.8 340 223.7 333L285.2 271.5C292.2 264.5 296.1 255 296.1 245.2C296.1 224.6 279.4 208 258.9 208z"/></svg>