<svg xmlns="http://www.w3.org/2000/svg" viewBox="0 0 640 640"><!--! Font Awesome Pro 7.2.0 by @fontawesome - https://fontawesome.com License - https://fontawesome.com/license (Commercial License) Copyright 2026 Fonticons, Inc. --><path fill="currentColor" d="M236.5 64C207.8 64 184.5 87.3 184.5 116L184.5 128L112.5 128C109.4 128 106.6 129.8 105.3 132.5C104 135.2 104.3 138.6 106.3 141L134.3 176L106.3 211C104.4 213.4 104 216.7 105.3 219.5C106.6 222.3 109.4 224 112.5 224L184.5 224L184.5 313.6C178.5 317.3 172.7 321.4 167.2 326.1L138 350.7C121.8 364.4 112.5 384.5 112.5 405.7L112.5 429.7C112.5 478.5 138.7 523.6 181 547.8L199 558.1C219.5 569.8 242.8 576 266.5 576L408.5 576C465.9 576 512.5 529.4 512.5 472L512.5 368C512.5 367.2 512.4 366.5 512.2 365.8C509.1 335.6 483.6 312 452.5 312C448.9 312 445.4 312.3 442 312.9C432.1 293.4 411.8 280 388.5 280C382.4 280 376.5 280.9 370.9 282.6C361.3 262.1 340.6 248 316.5 248C306.4 248 296.9 250.5 288.5 254.9L288.5 116C288.5 87.3 265.2 64 236.5 64zM272.5 128L200.5 128L200.5 116C200.5 96.1 216.6 80 236.5 80C256.4 80 272.5 96.1 272.5 116L272.5 128zM272.5 144L272.5 208L129.1 208L150.7 181C153 178.1 153 173.9 150.7 171L129.1 144L272.5 144zM272.5 224L272.5 270.5C272.5 273.7 274.4 276.6 277.4 277.9C280.4 279.2 283.8 278.5 286.1 276.3C294 268.7 304.7 264.1 316.6 264.1C336.5 264.1 353.3 277.3 358.7 295.4C359.4 297.6 361 299.5 363.1 300.4C365.2 301.3 367.7 301.3 369.8 300.3C375.5 297.6 381.9 296.1 388.6 296.1C407.6 296.1 423.8 308.2 430 325.1C431.5 329.1 435.8 331.3 439.8 330C443.8 328.8 448.1 328.1 452.6 328.1C475.7 328.1 494.7 346 496.5 368.7C496.5 369 496.6 369.3 496.6 369.7L496.6 472.2C496.6 520.8 457.2 560.2 408.6 560.2L266.6 560.2C245.7 560.2 225.2 554.8 207.1 544.4L189 533.9C151.6 512.5 128.5 472.8 128.5 429.7L128.5 405.7C128.5 389.2 135.8 373.6 148.3 363L177.5 338.3C179.8 336.4 182.1 334.6 184.5 332.8L184.5 408C184.5 412.4 188.1 416 192.5 416C196.9 416 200.5 412.4 200.5 408L200.5 224L272.5 224z"/></svg>