<svg xmlns="http://www.w3.org/2000/svg" viewBox="0 0 640 640"><!--! Font Awesome Pro 7.2.0 by @fontawesome - https://fontawesome.com License - https://fontawesome.com/license (Commercial License) Copyright 2026 Fonticons, Inc. --><path fill="currentColor" d="M64 176C64 149.5 85.5 128 112 128L357.6 128C391.8 128 423.8 144.8 443.2 173L557.6 338.8C569.6 356.2 576 376.8 576 397.8L576 504C576 508.4 572.4 512 568 512C563.6 512 560 508.4 560 504L560 397.9C560 380.1 554.6 362.6 544.4 347.9L430 182C413.6 158.2 386.5 144 357.6 144L112 144C94.3 144 80 158.3 80 176C80 193.7 94.3 208 112 208L304 208C339.3 208 368 236.7 368 272C368 307.3 339.3 336 304 336L176 336C158.3 336 144 350.3 144 368C144 385.7 158.3 400 176 400L330.8 400C335.9 400 340.8 401.6 344.9 404.6L422.1 460.8C428.3 465.3 432 472.5 432 480.2L432 504.1C432 508.5 428.4 512.1 424 512.1C419.6 512.1 416 508.5 416 504.1L416 480.2C416 477.6 414.8 475.2 412.7 473.7L335.5 417.6C334.1 416.6 332.5 416.1 330.8 416.1L176 416C149.5 416 128 394.5 128 368C128 341.5 149.5 320 176 320L304 320C330.5 320 352 298.5 352 272C352 245.5 330.5 224 304 224L112 224C85.5 224 64 202.5 64 176z"/></svg>