<svg xmlns="http://www.w3.org/2000/svg" viewBox="0 0 640 640"><!--! Font Awesome Pro 7.2.0 by @fontawesome - https://fontawesome.com License - https://fontawesome.com/license (Commercial License) Copyright 2026 Fonticons, Inc. --><path fill="currentColor" d="M224 116C224 96.1 240.1 80 260 80C279.9 80 296 96.1 296 116L296 256.2C296 259.1 297.6 261.8 300.2 263.2C302.8 264.6 305.9 264.5 308.4 262.9C315.2 258.5 323.4 256 332.1 256C351.1 256 367.4 268.1 373.5 285C374.4 287.4 376.3 289.2 378.7 289.9C381.1 290.6 383.8 290.2 385.8 288.6C393.1 283.1 402.2 279.9 412.1 279.9C432 279.9 448.8 293.1 454.2 311.2C454.9 313.4 456.5 315.3 458.6 316.2C460.7 317.1 463.2 317.1 465.3 316.1C471 313.4 477.4 311.9 484.1 311.9C508.4 311.9 528.1 331.6 528.1 355.9L528.1 471.9C528.1 520.5 488.7 559.9 440.1 559.9L303.1 559.9C263.6 559.9 226.3 541.7 202.1 510.5L118.7 403.6C107.8 389.7 110.4 369.5 124.3 358.7C138.2 347.9 158.4 350.4 169.2 364.3L209.6 416.3C211.7 419 215.3 420.1 218.5 419C221.7 417.9 223.9 414.8 223.9 411.4L224 116zM260 64C231.3 64 208 87.3 208 116L208 388.1L181.9 354.5C165.6 333.6 135.5 329.8 114.5 346.1C93.5 362.4 89.8 392.5 106.1 413.5L189.3 520.4C216.6 555.5 258.5 576 303 576L440 576C497.4 576 544 529.4 544 472L544 356C544 322.9 517.1 296 484 296C477.9 296 472 296.9 466.4 298.6C456.8 278.1 436.1 264 412 264C402 264 392.7 266.4 384.4 270.7C374.1 252.4 354.5 240 332 240C325 240 318.3 241.2 312 243.4L312 116C312 87.3 288.7 64 260 64zM320 376C320 371.6 316.4 368 312 368C307.6 368 304 371.6 304 376L304 488C304 492.4 307.6 496 312 496C316.4 496 320 492.4 320 488L320 376zM384 376C384 371.6 380.4 368 376 368C371.6 368 368 371.6 368 376L368 488C368 492.4 371.6 496 376 496C380.4 496 384 492.4 384 488L384 376zM448 376C448 371.6 444.4 368 440 368C435.6 368 432 371.6 432 376L432 488C432 492.4 435.6 496 440 496C444.4 496 448 492.4 448 488L448 376z"/></svg>