<svg xmlns="http://www.w3.org/2000/svg" viewBox="0 0 640 640"><!--! Font Awesome Pro 7.2.0 by @fontawesome - https://fontawesome.com License - https://fontawesome.com/license (Commercial License) Copyright 2026 Fonticons, Inc. --><path fill="currentColor" d="M146.9 346.4C134.8 333.1 128 315.8 128 297.8L128 256C128 226.2 148.4 201.1 176 194L176 120C176 89.1 201.1 64 232 64C247.7 64 261.8 70.4 272 80.8C282.2 70.4 296.3 64 312 64C330.5 64 347 73 357.1 86.9C365.1 82.5 374.2 80 384 80C406.4 80 425.8 93.2 434.7 112.2C436.4 112 438.2 112 440 112C470.9 112 496 137.1 496 168L496 240L496 240.1L496 274.7C496 300.7 487.6 325.9 472 346.7L432 400L412 400L459.2 337.1C472.7 319.1 480 297.2 480 274.7L480 240L480 239.9L480 168C480 145.9 462.1 128 440 128C437 128 434.1 128.3 431.4 128.9C427.4 129.8 423.4 127.5 422.1 123.6C416.9 107.6 401.8 96 384.1 96C374.9 96 366.4 99.1 359.7 104.3C357.8 105.8 355.4 106.3 353.1 105.8C350.8 105.3 348.8 103.8 347.7 101.7C341 88.8 327.6 80 312.1 80C298.2 80 285.9 87.1 278.8 97.9C277.3 100.1 274.8 101.5 272.1 101.5C269.4 101.5 266.9 100.2 265.4 97.9C258.2 87.1 245.9 80 232 80C209.9 80 192 97.9 192 120L192 200.6C192 204.6 189.1 208 185.1 208.5C161.8 211.8 144 231.8 144 256L144 297.8C144 311.8 149.3 325.3 158.7 335.6L217.7 400L196 400L146.9 346.4zM176 480L176 544C176 552.8 183.2 560 192 560L448 560C456.8 560 464 552.8 464 544L464 480C464 471.2 456.8 464 448 464L192 464C183.2 464 176 471.2 176 480zM160 544L160 480C160 462.3 174.3 448 192 448L448 448C465.7 448 480 462.3 480 480L480 544C480 561.7 465.7 576 448 576L192 576C174.3 576 160 561.7 160 544z"/></svg>