<svg xmlns="http://www.w3.org/2000/svg" viewBox="0 0 640 640"><!--! Font Awesome Pro 7.2.0 by @fontawesome - https://fontawesome.com License - https://fontawesome.com/license (Commercial License) Copyright 2026 Fonticons, Inc. --><path fill="currentColor" d="M348 160.5C370 130 405.3 112 442.9 112C507.6 112 560 164.4 560 229.1C560 289.2 523.1 344.9 484.6 391.8C441.5 444.2 389.2 489.8 353.4 517.2C344.1 524.3 332.4 528 320 528C307.6 528 295.9 524.3 286.6 517.2C250.8 489.8 198.6 444.2 155.4 391.8C116.9 344.9 80 289.2 80 229.1C80 164.4 132.4 112 197.1 112C234.7 112 270 130 292 160.5L312 188.1L312 208C312 210.1 312.8 212.2 314.3 213.7L355.4 254.8L267.5 313.4C265.6 314.6 264.4 316.6 264 318.8C263.6 321 264.3 323.3 265.7 325L329.7 405C332.5 408.4 337.5 409 340.9 406.2C344.3 403.4 344.9 398.4 342.1 395L283.6 321.8L372.3 262.6C374.3 261.3 375.6 259.1 375.8 256.7C376 254.3 375.2 251.9 373.5 250.3L327.8 204.6L327.8 188L347.8 160.4zM442.9 96C400.2 96 360 116.5 335 151.1L320 171.8L305 151.1C280 116.5 239.8 96 197.1 96C123.6 96 64 155.6 64 229.1C64 295.3 104.4 354.9 143.1 402C187.2 455.5 240.4 502 276.9 529.9C289.2 539.4 304.4 544 320 544C335.6 544 350.8 539.4 363.1 529.9C399.6 502 452.8 455.5 496.9 402C535.6 354.9 576 295.3 576 229.1C576 155.6 516.4 96 442.9 96z"/></svg>