<svg xmlns="http://www.w3.org/2000/svg" viewBox="0 0 640 640"><!--! Font Awesome Pro 7.2.0 by @fontawesome - https://fontawesome.com License - https://fontawesome.com/license (Commercial License) Copyright 2026 Fonticons, Inc. --><path fill="currentColor" d="M320.2 80C293.7 80 272.2 101.5 272.2 128C272.2 154.5 293.7 176 320.2 176C346.7 176 368.2 154.5 368.2 128C368.2 101.5 346.7 80 320.2 80zM320.2 64C355.5 64 384.2 92.7 384.2 128C384.2 163.3 355.5 192 320.2 192C284.9 192 256.2 163.3 256.2 128C256.2 92.7 284.9 64 320.2 64zM191.8 298.5L204.6 302.8C222.6 308.8 241.9 309.3 260.2 304.3L279.6 299C297.5 294.1 314 310.6 309.1 328.5L303.9 348C298.9 366.3 299.4 385.6 305.4 403.6L309.7 416.4C314.9 431.9 303.3 448 287 448C252.4 448 224.3 476.1 224.3 510.7L224.3 536C224.3 549.3 213.6 560 200.3 560C195 560 189.7 559.5 184.5 558.4L174.6 556.4C160 553.5 144.9 554 130.5 557.9L104.9 564.9C87 569.8 70.5 553.3 75.4 535.4L82.4 509.8C86.3 495.4 86.9 480.3 83.9 465.7L80.9 450.8C80.5 448.9 80.3 447 80.3 445.1C80.3 429 93.3 416 109.4 416L120.3 416C142.4 416 160.3 398.1 160.3 376L160.3 321.3C160.3 304.9 176.4 293.3 191.9 298.5zM176.2 321.3L176.2 376C176.2 406.9 151.1 432 120.2 432L109.3 432C102.1 432 96.2 437.9 96.2 445.1C96.2 446 96.3 446.8 96.4 447.7L99.4 462.7C102.8 479.7 102.2 497.3 97.6 514.1L90.6 539.7C89 545.7 94.4 551.1 100.4 549.5L126 542.5L132.3 541C147.1 537.9 162.5 537.8 177.4 540.8L187.3 542.8L193.6 543.7C195.7 543.9 197.8 544 200 544C203.9 544 207.1 541.3 207.8 537.6L208 536L208 510.7C208 467.2 243.3 432 286.7 432C291.5 432 295 427.9 294.7 423.4L294.3 421.5L290 408.7C283 387.7 282.4 365.2 288.2 343.8L293.5 324.4L293.8 322.2C293.8 317.9 290.2 314.3 285.9 314.3L283.7 314.6L264.3 319.9C245.6 325 226 325.2 207.4 320.4L199.5 318.1L186.7 313.8C181.5 312.1 176.2 315.9 176.2 321.4zM233.7 144.3C234.7 149.7 236.2 155 238.2 160C212.6 161 192.2 182.1 192.2 208C192.2 234.5 213.7 256 240.2 256C266 256 287.1 235.6 288.2 210C293.2 212 298.5 213.5 303.9 214.5C300.6 246.8 273.4 272 240.2 272C204.9 272 176.2 243.3 176.2 208C176.2 174.8 201.4 147.6 233.7 144.3zM336.5 214.5C341.9 213.5 347.2 212 352.2 210C353.2 235.6 374.3 256 400.2 256C426.7 256 448.2 234.5 448.2 208C448.2 182.2 427.8 161.1 402.2 160C404.2 155 405.7 149.7 406.7 144.3C439 147.6 464.2 174.8 464.2 208C464.2 243.3 435.5 272 400.2 272C367 272 339.8 246.8 336.5 214.5zM449.5 298.5C465 293.3 481.1 304.9 481.1 321.3L481.1 376C481.1 398.1 499 416 521.1 416L532 416C548.1 416 561.1 429 561.1 445.1C561.1 447 560.9 448.9 560.5 450.8L557.5 465.7C554.6 480.3 555.1 495.4 559 509.8L566 535.4C570.9 553.3 554.4 569.8 536.5 564.9L511 558C496.6 554.1 481.5 553.5 466.9 556.5L457 558.5C451.8 559.5 446.5 560.1 441.2 560.1C427.9 560.1 417.2 549.4 417.2 536.1L417.2 510.8C417.2 476.2 389.1 448.1 354.5 448.1C338.1 448.1 326.6 432 331.8 416.5L336.1 403.7C342.1 385.7 342.6 366.4 337.6 348.1L332.3 328.7C327.4 310.8 343.9 294.4 361.8 299.2L381.2 304.5C399.5 309.5 418.8 309 436.8 303L449.6 298.7zM465.1 321.3C465.1 315.8 459.7 312 454.6 313.7L441.8 318L433.9 320.3C415.2 325 395.6 324.9 377 319.8L357.6 314.5L355.4 314.2C351.1 314.2 347.5 317.8 347.5 322.1L347.8 324.3L353.1 343.7C358.9 365 358.3 387.6 351.3 408.6L347 421.4L346.6 423.3C346.3 427.8 349.8 431.9 354.6 431.9C398.1 431.9 433.3 467.2 433.3 510.6L433.3 535.9L433.5 537.5C434.2 541.1 437.5 543.9 441.3 543.9C443.4 543.9 445.6 543.8 447.7 543.6L454 542.7L463.9 540.7C478.8 537.7 494.2 537.8 509 540.9L515.3 542.4L540.9 549.4C546.9 551 552.3 545.6 550.7 539.6L543.7 514C539.7 499.3 538.7 484 540.8 469L541.9 462.6L544.9 447.6C545.1 446.8 545.1 445.9 545.1 445C545.1 437.8 539.2 431.9 532 431.9L521.1 431.9C490.2 431.9 465.1 406.8 465.1 375.9L465.1 321.2z"/></svg>