<svg xmlns="http://www.w3.org/2000/svg" viewBox="0 0 640 640"><!--! Font Awesome Pro 7.2.0 by @fontawesome - https://fontawesome.com License - https://fontawesome.com/license (Commercial License) Copyright 2026 Fonticons, Inc. --><path fill="currentColor" d="M176 224C176 144.5 240.5 80 320 80C399.5 80 464 144.5 464 224C464 232.2 463.3 240.3 462 248.2C461.3 252.4 464 256.4 468.2 257.3C493.3 262.8 512.1 285.2 512.1 312C512.1 342.9 487 368 456.1 368L184 368C153.1 368 128 342.9 128 312C128 285.2 146.8 262.9 171.9 257.3C176.1 256.4 178.8 252.4 178.1 248.2C176.8 240.3 176.1 232.3 176.1 224zM320 64C231.6 64 160 135.6 160 224C160 230.7 160.4 237.2 161.2 243.7C132.6 253.2 112 280.2 112 312C112 351.8 144.2 384 184 384L192 384L296.8 593.7C301.2 602.5 310.1 608 320 608C329.9 608 338.8 602.5 343.2 593.7L448 384L456 384C495.8 384 528 351.8 528 312C528 280.2 507.4 253.2 478.8 243.7C479.6 237.2 480 230.7 480 224C480 135.6 408.4 64 320 64zM430.1 384L328.8 586.5C327.1 589.9 323.7 592 320 592C316.3 592 312.8 589.9 311.2 586.5L209.9 384L430.1 384z"/></svg>