<svg xmlns="http://www.w3.org/2000/svg" viewBox="0 0 640 640"><!--! Font Awesome Pro 7.2.0 by @fontawesome - https://fontawesome.com License - https://fontawesome.com/license (Commercial License) Copyright 2026 Fonticons, Inc. --><path fill="currentColor" d="M232 64C284.4 64 320.7 83.7 342.6 108.4C360.8 100.7 382.5 96 408 96C488.9 96 531.4 143.1 541.6 182.2L542.2 185C544 198.5 531.9 208.1 520.1 208.1L348.6 208.1C352.6 218.1 356.6 229.5 360.2 242.1C373.2 287.7 380.8 349.5 360.7 416.4C427.4 420.8 480.1 476.3 480.1 544.1C480.1 561.8 465.8 576.1 448.1 576.1L128.1 576.1L124.8 575.9C108.6 574.2 96 560.6 96 544C96 473.3 153.3 416 224 416L344 416C364.6 351.2 357.4 291 344.7 246.4C341 233.3 336.7 221.6 332.5 211.5L212.8 331.3C203.9 340.2 187.1 341.6 179.3 328.3C159.3 294.1 155.8 232.4 209.8 176.1L120 176C107.4 176 94.5 165.1 98.4 150.2C108.6 111.1 151.1 64 232 64zM224 432C162.1 432 112 482.1 112 544C112 552.8 119.2 560 128 560L448 560C456.8 560 464 552.8 464 544C464 482.1 413.9 432 352 432L224 432zM232 80C158.1 80 122.2 122.5 113.9 154.2C113.5 155.6 113.9 156.8 114.8 157.9C115.9 159.1 117.7 160 120 160L176 160L176 136C176 131.6 179.6 128 184 128C188.4 128 192 131.6 192 136L192 160L227.2 160C235.5 153.2 243.8 147.5 252.2 142.8L253.7 142.1C257.2 141 261.2 142.5 263.1 145.9C265.2 149.8 263.8 154.6 259.9 156.8L251 162.2C245 166.1 239 170.7 233 176C230.1 178.6 227.1 181.3 224.2 184.2C171.9 236.5 176.6 291.9 193.2 320.2L193.8 321C194.5 321.7 195.4 322 196.5 322.1C198.1 322.2 200 321.5 201.6 319.9L271.1 250.3L258.4 237.6C255.3 234.5 255.3 229.4 258.4 226.3C261.5 223.2 266.6 223.2 269.7 226.3L282.4 239L327.2 194.3L328.4 193.3C329.7 192.4 331.3 192 332.8 192L464 192L464 168C464 163.6 467.6 160 472 160C476.4 160 480 163.6 480 168L480 192L520 192C522.3 192 524.1 191.1 525.2 189.9C525.9 189.1 526.3 188.2 526.3 187.2L526.1 186.2C517.8 154.4 481.9 112 408 112C382 112 360.7 117.3 343.8 125.4C340.4 127 336.4 126.1 334.1 123.2C316 100.4 283.1 80.1 232 80.1z"/></svg>