<svg xmlns="http://www.w3.org/2000/svg" viewBox="0 0 640 640"><!--! Font Awesome Pro 7.2.0 by @fontawesome - https://fontawesome.com License - https://fontawesome.com/license (Commercial License) Copyright 2026 Fonticons, Inc. --><path fill="currentColor" d="M248 80L328 80C332.4 80 336 83.6 336 88L336 144L240 144L240 88C240 83.6 243.6 80 248 80zM224 144L200 144C195.6 144 192 147.6 192 152C192 156.4 195.6 160 200 160L376 160C380.4 160 384 156.4 384 152C384 147.6 380.4 144 376 144L352 144L352 88C352 74.7 341.3 64 328 64L248 64C234.7 64 224 74.7 224 88L224 144zM384 208C445.9 208 496 258.1 496 320L496 512C496 538.5 474.5 560 448 560L192 560C165.5 560 144 538.5 144 512L144 320C144 258.1 194.1 208 256 208L384 208zM256 192C185.3 192 128 249.3 128 320L128 512C128 547.3 156.7 576 192 576L448 576C483.3 576 512 547.3 512 512L512 320C512 249.3 454.7 192 384 192L256 192zM408 272C385.9 272 368 289.9 368 312L368 392C368 414.1 385.9 432 408 432C430.1 432 448 414.1 448 392L448 312C448 289.9 430.1 272 408 272zM384 312C384 298.7 394.7 288 408 288C421.3 288 432 298.7 432 312L432 392C432 405.3 421.3 416 408 416C394.7 416 384 405.3 384 392L384 312z"/></svg>