<svg xmlns="http://www.w3.org/2000/svg" viewBox="0 0 640 640"><!--! Font Awesome Pro 7.2.0 by @fontawesome - https://fontawesome.com License - https://fontawesome.com/license (Commercial License) Copyright 2026 Fonticons, Inc. --><path fill="currentColor" d="M152.1 541.1C136.8 513.5 128 481.8 128 448C128 387.6 155.9 333.8 199.4 298.6L178.8 264.3C166.5 243.7 160 220.2 160 196.2C160 123.2 219.2 64 292.2 64L347.7 64C420.7 64 479.9 123.2 479.9 196.2C479.9 220.2 473.4 243.7 461.1 264.2L440.5 298.5C484.1 333.7 511.9 387.5 511.9 447.9C511.9 481.7 503.1 513.4 487.8 541C473.2 564.9 447 575.2 420 575.9L219.8 576C192.9 575.3 166.6 565 152 541.1zM176 196.2C176 217.3 181.7 238 192.6 256L212.3 289C225.5 280 239.9 272.7 255.2 267.2L233.7 231.3C227.4 220.7 224 208.6 224 196.2C224 158.6 254.6 128 292.2 128L347.7 128C385.4 128 415.9 158.6 415.9 196.2C415.9 208.6 412.5 220.7 406.2 231.3L384.7 267.2C400 272.7 414.4 280 427.6 289L447.4 256.1C458.3 238 464 217.3 464 196.2C464 132.1 411.9 80 347.8 80L292.3 80C228.1 80 176 132.1 176 196.2zM292.2 144C263.4 144 240 167.4 240 196.2C240 205.7 242.6 215 247.4 223.1L270.9 262.3C286.6 258.2 303 256 320 256C337 256 353.4 258.2 369.1 262.3L392.6 223.1C397.5 215 400 205.7 400 196.2C400 167.4 376.6 144 347.8 144L292.3 144zM144 448C144 479 152 508.1 166.1 533.3C175.6 550.4 196.2 560 219.9 560L420.2 560C443.8 560 464.4 550.5 474 533.3C488.1 508 496.1 479 496.1 448C496.1 350.8 417.3 272 320.1 272C222.9 272 144 350.8 144 448z"/></svg>