<svg xmlns="http://www.w3.org/2000/svg" viewBox="0 0 640 640"><!--! Font Awesome Pro 7.2.0 by @fontawesome - https://fontawesome.com License - https://fontawesome.com/license (Commercial License) Copyright 2026 Fonticons, Inc. --><path fill="currentColor" d="M544 144C570.5 144 592 165.5 592 192L592 448C592 474.5 570.5 496 544 496L192 496C165.5 496 144 474.5 144 448L144 192C144 165.5 165.5 144 192 144L544 144zM192 128C156.7 128 128 156.7 128 192L128 448C128 483.3 156.7 512 192 512L544 512C579.3 512 608 483.3 608 448L608 192C608 156.7 579.3 128 544 128L192 128zM424 400C428.4 400 432 403.6 432 408L432 424C432 428.4 428.4 432 424 432L312 432C307.6 432 304 428.4 304 424L304 408C304 403.6 307.6 400 312 400L424 400zM312 384C298.7 384 288 394.7 288 408L288 424C288 437.3 298.7 448 312 448L424 448C437.3 448 448 437.3 448 424L448 408C448 394.7 437.3 384 424 384L312 384zM216 304L232 304C236.4 304 240 307.6 240 312L240 328C240 332.4 236.4 336 232 336L216 336C211.6 336 208 332.4 208 328L208 312C208 307.6 211.6 304 216 304zM192 312L192 328C192 341.3 202.7 352 216 352L232 352C245.3 352 256 341.3 256 328L256 312C256 298.7 245.3 288 232 288L216 288C202.7 288 192 298.7 192 312zM328 304C332.4 304 336 307.6 336 312L336 328C336 332.4 332.4 336 328 336L312 336C307.6 336 304 332.4 304 328L304 312C304 307.6 307.6 304 312 304L328 304zM312 288C298.7 288 288 298.7 288 312L288 328C288 341.3 298.7 352 312 352L328 352C341.3 352 352 341.3 352 328L352 312C352 298.7 341.3 288 328 288L312 288zM408 304L424 304C428.4 304 432 307.6 432 312L432 328C432 332.4 428.4 336 424 336L408 336C403.6 336 400 332.4 400 328L400 312C400 307.6 403.6 304 408 304zM384 312L384 328C384 341.3 394.7 352 408 352L424 352C437.3 352 448 341.3 448 328L448 312C448 298.7 437.3 288 424 288L408 288C394.7 288 384 298.7 384 312zM520 304C524.4 304 528 307.6 528 312L528 328C528 332.4 524.4 336 520 336L504 336C499.6 336 496 332.4 496 328L496 312C496 307.6 499.6 304 504 304L520 304zM504 288C490.7 288 480 298.7 480 312L480 328C480 341.3 490.7 352 504 352L520 352C533.3 352 544 341.3 544 328L544 312C544 298.7 533.3 288 520 288L504 288zM216 208L232 208C236.4 208 240 211.6 240 216L240 232C240 236.4 236.4 240 232 240L216 240C211.6 240 208 236.4 208 232L208 216C208 211.6 211.6 208 216 208zM192 216L192 232C192 245.3 202.7 256 216 256L232 256C245.3 256 256 245.3 256 232L256 216C256 202.7 245.3 192 232 192L216 192C202.7 192 192 202.7 192 216zM328 208C332.4 208 336 211.6 336 216L336 232C336 236.4 332.4 240 328 240L312 240C307.6 240 304 236.4 304 232L304 216C304 211.6 307.6 208 312 208L328 208zM312 192C298.7 192 288 202.7 288 216L288 232C288 245.3 298.7 256 312 256L328 256C341.3 256 352 245.3 352 232L352 216C352 202.7 341.3 192 328 192L312 192zM408 208L424 208C428.4 208 432 211.6 432 216L432 232C432 236.4 428.4 240 424 240L408 240C403.6 240 400 236.4 400 232L400 216C400 211.6 403.6 208 408 208zM384 216L384 232C384 245.3 394.7 256 408 256L424 256C437.3 256 448 245.3 448 232L448 216C448 202.7 437.3 192 424 192L408 192C394.7 192 384 202.7 384 216zM520 208C524.4 208 528 211.6 528 216L528 232C528 236.4 524.4 240 520 240L504 240C499.6 240 496 236.4 496 232L496 216C496 211.6 499.6 208 504 208L520 208zM504 192C490.7 192 480 202.7 480 216L480 232C480 245.3 490.7 256 504 256L520 256C533.3 256 544 245.3 544 232L544 216C544 202.7 533.3 192 520 192L504 192zM77.7 277.7C80.8 274.6 80.8 269.5 77.7 266.4C74.6 263.3 69.5 263.3 66.4 266.4L18.4 314.4C15.3 317.5 15.3 322.6 18.4 325.7L66.4 373.7C69.5 376.8 74.6 376.8 77.7 373.7C80.8 370.6 80.8 365.5 77.7 362.4L35.3 320L77.7 277.7z"/></svg>