<svg xmlns="http://www.w3.org/2000/svg" viewBox="0 0 640 640"><!--! Font Awesome Pro 7.2.0 by @fontawesome - https://fontawesome.com License - https://fontawesome.com/license (Commercial License) Copyright 2026 Fonticons, Inc. --><path fill="currentColor" d="M80 228C80 146.3 146.3 80 228 80L232 80C311.5 80 376 144.5 376 224L384 224C288.8 224 209.8 293.3 194.6 384.1C191.7 401.5 206.3 416 224 416L305.6 416C313 452.5 345.3 480 384 480C422.7 480 455 452.5 462.4 416L544 416C561.7 416 576.3 401.6 573.4 384.1C558.2 293.2 479.2 224 384 224L392 224C392 135.6 320.4 64 232 64L228 64C137.4 64 64 137.4 64 228L64 568C64 572.4 67.6 576 72 576C76.4 576 80 572.4 80 568L80 228zM384 240C471.2 240 543.7 303.5 557.6 386.8C558.6 392.7 553.7 400 544 400L224 400C214.3 400 209.4 392.6 210.4 386.8C224.3 303.5 296.8 240 384 240zM384 464C354.2 464 329.1 443.6 322 416L446 416C438.9 443.6 413.8 464 384 464z"/></svg>