<svg xmlns="http://www.w3.org/2000/svg" viewBox="0 0 640 640"><!--! Font Awesome Pro 7.2.0 by @fontawesome - https://fontawesome.com License - https://fontawesome.com/license (Commercial License) Copyright 2026 Fonticons, Inc. --><path fill="currentColor" d="M538.7 111.5C542.9 110 545.1 105.5 543.6 101.3C542.1 97.1 537.6 94.9 533.4 96.4L101.4 248.4C98.1 249.6 96 252.6 96 256C96 259.4 98.1 262.4 101.3 263.5L533.3 415.5C537.5 417 542 414.8 543.5 410.6C545 406.4 542.8 401.9 538.6 400.4L128.1 256L538.7 111.5zM104 528C99.6 528 96 531.6 96 536C96 540.4 99.6 544 104 544L536 544C540.4 544 544 540.4 544 536C544 531.6 540.4 528 536 528L104 528z"/></svg>