<svg xmlns="http://www.w3.org/2000/svg" viewBox="0 0 640 640"><!--! Font Awesome Pro 7.2.0 by @fontawesome - https://fontawesome.com License - https://fontawesome.com/license (Commercial License) Copyright 2026 Fonticons, Inc. --><path fill="currentColor" d="M331.3 555.3C325.1 561.5 314.9 561.5 308.7 555.3L180.7 427.3C176.1 422.7 174.8 415.8 177.2 409.9C179.6 404 185.5 400 192 400L264 400C268.4 400 272 396.4 272 392L272 224C272 197.5 250.5 176 224 176L160 176C151.2 176 144 168.8 144 160L144 96C144 87.2 151.2 80 160 80L224 80C303.5 80 368 144.5 368 224L368 392C368 396.4 371.6 400 376 400L448 400C454.5 400 460.3 403.9 462.8 409.9C465.3 415.9 463.9 422.8 459.3 427.3L331.3 555.3zM297.4 566.6C309.9 579.1 330.2 579.1 342.7 566.6L470.7 438.6C479.9 429.4 482.6 415.7 477.6 403.7L477.6 403.7C472.6 391.7 461 383.9 448 383.9L384 383.9L384 223.9C384 135.6 312.4 64 224 64L160 64C142.3 64 128 78.3 128 96L128 160C128 177.7 142.3 192 160 192L224 192C241.7 192 256 206.3 256 224L256 384L192 384C179.1 384 167.4 391.8 162.4 403.8C157.4 415.8 160.2 429.5 169.3 438.7L297.3 566.7z"/></svg>