<svg xmlns="http://www.w3.org/2000/svg" viewBox="0 0 640 640"><!--! Font Awesome Pro 7.2.0 by @fontawesome - https://fontawesome.com License - https://fontawesome.com/license (Commercial License) Copyright 2026 Fonticons, Inc. --><path fill="currentColor" d="M208 512L208 587.9C208 590.2 210 591.9 212.1 592C212.9 592 213.8 591.8 214.5 591.3C217.8 589 220.8 586.8 223.6 584.9L224 584.6C230.7 579.9 254.4 563.1 341.2 501.9C346.6 498.1 353 496 359.7 496L480 496C524.2 496 560 460.2 560 416L560 192C560 147.8 524.2 112 480 112L160 112C115.8 112 80 147.8 80 192L80 416C80 460.2 115.8 496 160 496L192 496C200.8 496 208 503.2 208 512zM64 192C64 139 107 96 160 96L480 96C533 96 576 139 576 192L576 416C576 469 533 512 480 512L359.6 512C356.3 512 353.1 513 350.4 514.9L223.8 604.3C220.4 606.7 216.3 608 212.2 608C201.1 608 192.1 599 192.1 587.9L192.1 512L160.1 512C107.1 512 64.1 469 64.1 416L64 192zM277.7 237.7L211.4 304L277.7 370.3C280.8 373.4 280.8 378.5 277.7 381.6C274.6 384.7 269.5 384.7 266.4 381.6L194.4 309.6C191.3 306.5 191.3 301.4 194.4 298.3L266.4 226.3C269.5 223.2 274.6 223.2 277.7 226.3C280.8 229.4 280.8 234.5 277.7 237.6zM373.7 226.4L445.7 298.4C448.8 301.5 448.8 306.6 445.7 309.7L373.7 381.7C370.6 384.8 365.5 384.8 362.4 381.7C359.3 378.6 359.3 373.5 362.4 370.4L428.7 304.1L362.4 237.8C359.3 234.7 359.3 229.6 362.4 226.5C365.5 223.4 370.6 223.4 373.7 226.5z"/></svg>