<svg xmlns="http://www.w3.org/2000/svg" viewBox="0 0 640 640"><!--! Font Awesome Pro 7.2.0 by @fontawesome - https://fontawesome.com License - https://fontawesome.com/license (Commercial License) Copyright 2026 Fonticons, Inc. --><path fill="currentColor" d="M320 560C347.8 560 374.5 555.3 399.4 546.6L393.3 564C393.1 564.5 393 565 392.8 565.5C369.7 572.3 345.3 576 320 576C178.6 576 64 461.4 64 320C64 178.6 178.6 64 320 64C449.7 64 556.8 160.4 573.7 285.5C572.3 284.5 570.9 283.5 569.4 282.7C565.3 280.2 560.8 278.1 556 276.4C535.5 164.7 437.6 80.1 320 80.1C187.5 80.1 80 187.6 80 320.1C80 452.6 187.5 560 320 560zM424 208L424 272C424 276.4 420.4 280 416 280C411.6 280 408 276.4 408 272L408 208C408 203.6 411.6 200 416 200C420.4 200 424 203.6 424 208zM320 200C324.4 200 328 203.6 328 208L328 272C328 276.4 324.4 280 320 280C315.6 280 312 276.4 312 272L312 208C312 203.6 315.6 200 320 200zM232 208L232 272C232 276.4 228.4 280 224 280C219.6 280 216 276.4 216 272L216 208C216 203.6 219.6 200 224 200C228.4 200 232 203.6 232 208zM533.4 320C548 320 558.2 334.4 553.4 348.2L524.1 432L583.1 432C596.9 432 608.1 443.2 608.1 457C608.1 463.6 605.5 470 600.8 474.7L473.5 601.8C469.5 605.8 464.1 608 458.5 608C443.9 608 433.7 593.6 438.5 579.8L467.8 496L408.8 496C395 496 383.8 484.8 383.8 471C383.8 464.4 386.4 458 391.1 453.3L518.5 326.2C522.5 322.2 527.9 320 533.5 320zM402.6 464.7C397.1 470.2 401 480 408.9 480L479.1 480C484.3 480 488.4 485.7 486.7 490.6L453.6 585.1C451.8 590.2 458.4 594.1 462.1 590.5L589.4 463.3C594.9 457.8 591 448 583.1 448L512.9 448C510.3 448 507.9 446.7 506.4 444.6C504.9 442.5 504.5 439.8 505.4 437.3L538.5 342.8C540.3 337.7 533.7 333.8 530 337.4L402.6 464.7z"/></svg>