<svg xmlns="http://www.w3.org/2000/svg" viewBox="0 0 640 640"><!--! Font Awesome Pro 7.2.0 by @fontawesome - https://fontawesome.com License - https://fontawesome.com/license (Commercial License) Copyright 2026 Fonticons, Inc. --><path fill="currentColor" d="M79.4 347.9L175.6 516C185.6 533.4 204.1 544.2 224.2 544.2L415.8 544.2C435.9 544.2 454.4 533.4 464.4 516L560.6 347.9C570.5 330.7 570.5 309.5 560.6 292.3L464.4 124.2C454.5 106.8 435.9 96 415.8 96L224.2 96C204.1 96 185.6 106.8 175.6 124.2L79.4 292.2C69.5 309.4 69.5 330.6 79.4 347.8zM65.5 355.8C52.8 333.6 52.8 306.4 65.5 284.3L161.7 116.2C174.5 93.8 198.4 80 224.2 80L415.8 80C441.6 80 465.5 93.8 478.3 116.2L574.5 284.3C587.2 306.5 587.2 333.7 574.5 355.8L478.3 523.9C465.5 546.3 441.6 560.1 415.8 560.1L224.2 560.1C198.4 560.1 174.5 546.3 161.7 523.9L65.5 355.8zM216 312L424 312C428.4 312 432 315.6 432 320C432 324.4 428.4 328 424 328L216 328C211.6 328 208 324.4 208 320C208 315.6 211.6 312 216 312z"/></svg>