<svg xmlns="http://www.w3.org/2000/svg" viewBox="0 0 640 640"><!--! Font Awesome Pro 7.2.0 by @fontawesome - https://fontawesome.com License - https://fontawesome.com/license (Commercial License) Copyright 2026 Fonticons, Inc. --><path fill="currentColor" d="M306.8 64.3C171.6 71.2 64 183 64 320C64 457 171.6 568.8 306.8 575.7L320 576C352.3 576 383.2 569.9 411.7 559C414.9 557.8 417 554.6 416.8 551.1C416.6 547.6 414.2 544.7 410.9 543.8C312.4 517 240 427 240 320C240 213 312.4 123 410.9 96.2C414.2 95.3 416.6 92.3 416.8 88.9C417 85.5 414.9 82.3 411.7 81C383.2 70 352.3 64 320 64L306.8 64.3zM320 80C341.9 80 363.1 83 383.2 88.5C290.1 124.2 224 214.4 224 320C224 425.6 290.1 515.8 383.2 551.5C363.1 557 341.9 560 320 560L307.7 559.7C180.8 553.3 80 448.4 80 320C80 191.6 180.8 86.7 307.7 80.3L320 80zM538.1 436.3C534.3 434.7 529.9 436.3 527.9 439.9C510.9 469.3 487.9 494.8 460.5 514.6C456.9 517.2 456.1 522.2 458.7 525.8C461.3 529.4 466.3 530.2 469.9 527.6C499.3 506.4 523.9 479.1 542.1 447.5C544.5 443.4 542.6 438.2 538.2 436.3zM567.1 253.1C565.9 248.5 560.9 246.2 556.5 248C552.7 249.6 550.7 253.8 551.8 257.8C557.1 277.7 560 298.5 560 320C560 341.5 557.1 362.4 551.8 382.2C550.7 386.2 552.7 390.4 556.6 392C561 393.8 566 391.5 567.2 386.9C573 365.6 576 343.1 576 320C576 296.8 572.9 274.4 567.1 253.1zM469.8 112.4C466.2 109.8 461.2 110.6 458.6 114.2C456 117.8 456.8 122.8 460.4 125.4C487.8 145.2 510.9 170.7 527.9 200.2C530 203.8 534.3 205.3 538.1 203.8C542.5 202 544.3 196.8 542 192.7C523.8 161.1 499.2 133.8 469.8 112.6z"/></svg>