<svg xmlns="http://www.w3.org/2000/svg" viewBox="0 0 640 640"><!--! Font Awesome Pro 7.2.0 by @fontawesome - https://fontawesome.com License - https://fontawesome.com/license (Commercial License) Copyright 2026 Fonticons, Inc. --><path fill="currentColor" d="M320 64C334.7 64 348.2 72.1 355.2 85L571.2 485C577.9 497.4 577.6 512.4 570.4 524.5C563.2 536.6 550.1 544 536 544L104 544C89.9 544 76.9 536.6 69.7 524.5C62.5 512.4 62.2 497.4 68.9 485L284.9 85L287.8 80.4C295.2 70.2 307.2 64 320 64zM323.3 288L261.6 349.7C258.5 352.8 253.4 352.8 250.3 349.7L192.9 292.2L84.3 493.4C80.6 500.3 80.7 508.7 84.8 515.5L86.5 517.9C90.7 523.2 97.2 526.4 104.1 526.4L536.1 526.4C544 526.4 551.3 522.2 555.3 515.5L556.6 512.9C558.9 507.6 559 501.5 556.9 496.1L555.7 493.4L444.8 288L323.3 288zM320 81.6C313 81.6 306.4 84.9 302.2 90.4L299.9 94.1L200.8 277.5L256 332.7L314.3 274.4L315.5 273.4C316.8 272.5 318.4 272.1 319.9 272.1L436.1 272.1L339.6 93.5C335.7 86.3 328.1 81.7 319.9 81.7z"/></svg>