<svg xmlns="http://www.w3.org/2000/svg" viewBox="0 0 640 640"><!--! Font Awesome Pro 7.2.0 by @fontawesome - https://fontawesome.com License - https://fontawesome.com/license (Commercial License) Copyright 2026 Fonticons, Inc. --><path fill="currentColor" d="M256.3 64C323.4 64 378.4 115.7 383.8 181.4C384.1 182.2 384.3 183.1 384.3 184C384.3 184.5 384.2 185.1 384.1 185.6C384.2 187.7 384.3 189.9 384.3 192L384.3 259.2C378.8 262 373.5 265.1 368.3 268.5L368.3 192L351.9 192C347.8 241.3 306.6 280 256.3 280C206 280 164.8 241.3 160.7 192L144.3 192L144.3 304L328.5 304C324.3 309.1 320.4 314.4 316.8 320L139.5 320C126.1 320 114.6 325.2 108 333.8L105.5 337.7C72.1 400.5 72.1 479.5 105.5 542.3C111.3 553.2 124.1 560 139.5 560L273.1 560C274.2 565.5 275.9 570.9 278.2 576L139.5 576L132.2 575.6C116.4 573.8 101.8 566.2 93.3 553L91.5 549.8C74.2 517.3 64.3 477.4 64.3 440C64.3 407.3 71.9 372.6 85.3 342.7L91.4 330.2C98.9 316.2 112.8 307.8 128.2 305L128.2 192C128.2 189.8 128.2 187.7 128.3 185.6C128.2 185.1 128.2 184.6 128.2 184C128.2 183.1 128.4 182.2 128.6 181.4C134 115.7 189 64 256.2 64zM464.3 288C535 288 592.3 345.3 592.3 416L592.3 477.5L592.7 486.7C593.6 495.8 595.7 504.7 599.1 513.2L606.7 532.2C615.1 553.2 599.6 576.1 577 576.1L351.5 576.1L347.3 575.9C328.3 573.5 315.6 554.7 320.5 536.2L321.8 532.3L329.4 513.3C332.8 504.8 335 495.9 335.8 486.8L336.2 477.6L336.2 416.1C336.2 345.4 393.5 288.1 464.2 288.1zM352.3 477.5C352.3 490 350.2 502.3 346.1 514.1L344.3 519.1L336.7 538.1C332.5 548.6 340.2 560 351.5 560L577 560C587.6 560 595.1 549.9 592.5 540L591.8 538L584.2 519C578.9 505.8 576.2 491.6 576.2 477.4L576.2 431.9L559.8 431.9C555.7 481.2 514.5 519.9 464.2 519.9L454.7 519.4C408.8 514.9 372.4 478 368.6 431.9L352.2 431.9L352.2 477.4zM461.6 383.3C447 412.6 417.3 431.2 384.7 431.9C388.4 469.7 418.4 499.8 456.2 503.6L464.4 504C505.8 504 539.9 472.5 544 432.2L544 431.9C513.5 431.3 485.6 414.9 470.1 388.8L467.1 383.3L464.4 377.8L461.7 383.3zM464.3 304C402.4 304 352.3 354.1 352.3 416L382.9 416C410.2 416 435.1 400.6 447.3 376.2L457.2 356.4L458.4 354.6C459.9 353 462 352 464.3 352C467.3 352 470.1 353.7 471.5 356.4L481.4 376.2L483.8 380.7C496.7 402.5 520.2 416 545.8 416L576.4 416C576.4 354.1 526.3 304 464.4 304zM253.5 143.3C238.9 172.6 209.2 191.2 176.6 191.9C180.6 232.4 214.7 264 256.2 264C297.6 264 331.7 232.5 335.8 192.2L335.8 192C305.3 191.4 277.4 175 261.9 148.9L258.9 143.4L256.2 137.9L253.5 143.4zM256.3 80C199.9 80 153.2 121.7 145.5 176L174.9 176C202.2 176 227.1 160.6 239.3 136.2L249.2 116.4L250.4 114.6C251.9 113 254 112 256.3 112C259.3 112 262.1 113.7 263.5 116.4L273.4 136.2L275.8 140.7C288.7 162.5 312.2 176 337.8 176L367.2 176C359.4 121.7 312.8 80 256.4 80z"/></svg>