<svg xmlns="http://www.w3.org/2000/svg" viewBox="0 0 640 640"><!--! Font Awesome Pro 7.2.0 by @fontawesome - https://fontawesome.com License - https://fontawesome.com/license (Commercial License) Copyright 2026 Fonticons, Inc. --><path fill="currentColor" d="M256 528C176.5 528 112 463.5 112 384C112 293.6 154.6 225.9 209.4 180.3C264.7 134.3 331.2 112 376 112C408.4 112 446.6 131.9 477.4 162.6C508.2 193.3 528 231.6 528 264C528 308.8 505.7 375.3 459.7 430.6C414.1 485.4 346.4 528 256 528zM96 384C96 472.4 167.6 544 256 544C448 544 544 362.1 544 264C544 187.5 452.5 96 376 96C277.9 96 96 192 96 384zM343.9 183.9C351.4 176.4 364.1 173.8 380.6 177.9C396.8 182 415.2 192.4 431.4 208.6C447.6 224.8 458 243.1 462.1 259.4C466.2 275.8 463.6 288.6 456.1 296.1C448.6 303.6 435.9 306.2 419.4 302.1C403.2 298 384.8 287.6 368.6 271.4C352.4 255.2 342 236.9 337.9 220.6C333.8 204.2 336.4 191.4 343.9 183.9zM442.7 197.3C424.8 179.4 404 167.3 384.5 162.4C365.2 157.6 345.6 159.6 332.6 172.6C319.6 185.6 317.6 205.1 322.4 224.5C327.3 244 339.4 264.8 357.3 282.7C375.2 300.6 396 312.7 415.5 317.6C434.8 322.4 454.4 320.4 467.4 307.4C480.4 294.4 482.4 274.9 477.6 255.5C472.7 236 460.6 215.2 442.7 197.3z"/></svg>