<svg xmlns="http://www.w3.org/2000/svg" viewBox="0 0 640 640"><!--! Font Awesome Pro 7.2.0 by @fontawesome - https://fontawesome.com License - https://fontawesome.com/license (Commercial License) Copyright 2026 Fonticons, Inc. --><path fill="currentColor" d="M256 496C141.1 496 48 402.9 48 288C48 173.1 141.1 80 256 80C370.9 80 464 173.1 464 288C464 316.4 458.3 343.4 448 368L448 368C445.9 373 443.7 377.9 441.2 382.6C431.3 401.9 418.5 419.4 403.4 434.7L403.1 435C399.4 438.7 395.6 442.2 391.7 445.6C355.3 477 307.9 495.9 256 495.9zM256 512C312 512 363.3 491.4 402.5 457.4L492.1 554.5C504.7 568.2 522.5 576 541.2 576C578.1 576 608 545.7 608 508.8C608 486 596.5 464.5 577.3 452L461.7 376.9C473.5 349.6 480 319.6 480 288C480 164.3 379.7 64 256 64C132.3 64 32 164.3 32 288C32 411.7 132.3 512 256 512zM503.9 543.7L414.2 446.6C430.3 430.5 444 411.9 454.7 391.5L568.6 465.5C583.1 475 592 491.4 592 508.8C592 537 569.1 560 541.2 560C527 560 513.5 554.1 503.9 543.7zM528 512C536.8 512 544 504.8 544 496C544 487.2 536.8 480 528 480C519.2 480 512 487.2 512 496C512 504.8 519.2 512 528 512zM355.9 202.5C347.2 200.3 335.9 195.4 324.9 188.9C313.9 182.4 304 175.1 297.8 168.6C267.2 136.7 216.5 135.7 184.7 166.4C170.2 180.3 162.1 198.5 160.4 217.1C158.3 240.6 151.7 269.5 141 288.1C114.5 334 130.2 392.7 176.1 419.2C222 445.7 280.6 429.9 307.1 384C310 378.9 316 373.1 324 368.2C331.9 363.3 340.4 360.2 347.1 359.2C359.9 357.4 372.5 352.5 383.6 344.2C419.1 317.9 426.5 267.8 400.2 232.3C388.8 217 373 206.8 355.8 202.5zM351.9 218C365.6 221.5 378.3 229.6 387.4 241.9C408.4 270.3 402.5 310.4 374.1 331.4C365.2 338 355.2 341.9 344.9 343.4C326.3 346 302.7 359.7 293.3 376C271.2 414.3 222.3 427.4 184 405.3C145.7 383.2 132.6 334.3 154.7 296C167.1 274.6 174.1 243 176.2 218.4C177.5 203.5 184 189 195.6 177.9C221.1 153.4 261.6 154.2 286.1 179.7C301.3 195.5 330.6 212.6 351.9 218.1zM216 288C216 265.9 233.9 248 256 248C278.1 248 296 265.9 296 288C296 310.1 278.1 328 256 328C233.9 328 216 310.1 216 288zM312 288C312 257.1 286.9 232 256 232C225.1 232 200 257.1 200 288C200 318.9 225.1 344 256 344C286.9 344 312 318.9 312 288z"/></svg>