<svg xmlns="http://www.w3.org/2000/svg" viewBox="0 0 640 640"><!--! Font Awesome Pro 7.2.0 by @fontawesome - https://fontawesome.com License - https://fontawesome.com/license (Commercial License) Copyright 2026 Fonticons, Inc. --><path fill="currentColor" d="M396.2 96.5C406.8 85.9 421.1 80 436 80C450.9 80 465.2 85.9 475.8 96.5L511.5 132.2C522.1 142.8 528 157.1 528 172C528 186.9 522.1 201.2 511.5 211.8L447.3 276L332 160.7L396.2 96.5zM320.7 172L436 287.3L217.6 505.8C216.8 506.5 216.1 507.3 215.3 508L100.1 392.7C100.8 391.9 101.5 391.2 102.3 390.4L320.7 172zM83.8 422.1C85.4 416.4 87.6 411 90.5 405.9L202.2 517.5C197.1 520.4 191.7 522.7 186 524.2L58.1 559.7C55.3 560.5 52.3 559.7 50.3 557.6C48.3 555.5 47.5 552.6 48.2 549.8L83.8 422.1zM436 64C416.8 64 398.4 71.6 384.9 85.2L90.9 379.2C80.2 389.9 72.4 403.3 68.3 417.9L32.9 545.6C30.6 553.9 32.9 562.9 39.1 569C45.3 575.1 54.2 577.5 62.5 575.2L190.3 539.7C204.9 535.6 218.2 527.9 229 517.1L523 223.1C536.4 209.6 544 191.2 544 172C544 152.8 536.4 134.4 522.8 120.9L487.1 85.2C473.6 71.6 455.2 64 436 64zM296 560C291.6 560 288 563.6 288 568C288 572.4 291.6 576 296 576L600 576C604.4 576 608 572.4 608 568C608 563.6 604.4 560 600 560L296 560z"/></svg>