<svg xmlns="http://www.w3.org/2000/svg" viewBox="0 0 640 640"><!--! Font Awesome Pro 7.2.0 by @fontawesome - https://fontawesome.com License - https://fontawesome.com/license (Commercial License) Copyright 2026 Fonticons, Inc. --><path fill="currentColor" d="M304 64C326.1 64 344 81.9 344 104C344 126.1 326.1 144 304 144C281.9 144 264 126.1 264 104C264 81.9 281.9 64 304 64zM304 160C334.9 160 360 134.9 360 104C360 73.1 334.9 48 304 48C273.1 48 248 73.1 248 104C248 134.9 273.1 160 304 160zM367.7 290.8L435.1 304.3C443.8 306 449.4 314.5 447.7 323.1C446 331.7 437.5 337.4 428.9 335.7L355.2 321C347.1 319.4 340 314.7 335.3 308L317.1 282C313.6 277 307.5 274.4 301.4 275.4C295.3 276.4 290.4 280.8 288.6 286.7L271.1 346C268.9 353.6 272.5 361.7 279.7 365L344.7 395C357.9 401.1 367.6 412.8 371.2 426.9L399.5 540C401.6 548.6 396.4 557.3 387.9 559.4C379.4 561.5 370.6 556.3 368.5 547.8L340.2 434.8C339 430.1 335.8 426.2 331.4 424.2L242.3 383C236.5 380.3 229.7 381.3 224.9 385.6C220.1 389.9 218.4 396.5 220.4 402.6L235.2 447C239.9 461 234.3 476.4 221.8 484.3L104.5 557.6C97 562.3 87.1 560 82.5 552.5C77.9 545 80.1 535.1 87.6 530.5L194.2 463.9C200.5 460 203.2 452.3 200.9 445.3L184 394.6C178.2 377.2 178.6 358.4 185 341.2L214.8 261.6C216.6 256.7 216 251.2 213 246.9C210 242.6 205.1 240 199.8 240L178.1 240C172.5 240 167.3 242.9 164.4 247.8L125.7 312.2C121.2 319.8 111.3 322.2 103.7 317.7C96.1 313.2 93.7 303.3 98.2 295.7L137 231.3C145.7 216.8 161.3 208 178.2 208L254.4 208C285.7 208 315.1 223.3 333 248.9L357.8 284.3C360.2 287.7 363.7 290 367.8 290.8zM370.8 275.1L346 239.7C325 209.8 290.8 191.9 254.2 191.9L178 191.9C155.5 191.9 134.7 203.7 123.1 223L84.6 287.5C75.5 302.7 80.4 322.3 95.6 331.4C110.8 340.5 130.4 335.6 139.5 320.4L178.2 255.9L199.9 255.9C198.9 258.6 188.9 285.2 170.1 335.4C162.4 356 162 378.6 168.9 399.5L185.7 450.2L79 516.9C64.1 526.2 59.5 546 68.9 561C78.3 576 98 580.5 113 571.1L230.3 497.8C249.1 486 257.4 463 250.4 441.9C245 425.7 240.1 410.9 235.6 397.5C240.7 399.8 270.4 413.6 324.7 438.6L353 551.8C357.3 568.9 374.7 579.4 391.8 575.1C408.9 570.8 419.4 553.4 415.1 536.3L386.8 423.1C382.1 404.3 369.1 388.6 351.5 380.5L286.5 350.5C295.3 320.7 301.1 300.9 304 291.1C312.7 303.6 318.8 312.2 322.1 317C329.2 327.1 339.9 334.1 352 336.5L425.7 351.2C443 354.7 459.9 343.4 463.4 326.1C466.9 308.8 455.6 291.9 438.3 288.4L370.9 274.9zM464 448C464 421.5 485.5 400 512 400C538.5 400 560 421.5 560 448C560 474.5 538.5 496 512 496C485.5 496 464 474.5 464 448zM576 448C576 412.7 547.3 384 512 384C476.7 384 448 412.7 448 448C448 483.3 476.7 512 512 512C547.3 512 576 483.3 576 448z"/></svg>