<svg xmlns="http://www.w3.org/2000/svg" viewBox="0 0 640 640"><!--! Font Awesome Pro 7.2.0 by @fontawesome - https://fontawesome.com License - https://fontawesome.com/license (Commercial License) Copyright 2026 Fonticons, Inc. --><path fill="currentColor" d="M203.6 230.2C200.6 226.3 195.9 224 191 224L160.5 224C147.4 224 135.6 232 130.8 244.1L110.9 293.9C107.6 302.1 98.3 306.1 90.1 302.8C81.9 299.5 77.9 290.2 81.2 282L101.1 232.2C110.8 207.9 134.4 192 160.5 192L252.4 192C275.2 192 296.2 204.1 307.7 223.8L340.5 280.1C343.4 285 348.6 288 354.3 288L415.9 288C424.7 288 431.9 295.2 431.9 304C431.9 312.8 424.7 320 415.9 320L354.3 320C337.2 320 321.4 310.9 312.8 296.2L302.8 279.1C299.6 273.6 293.4 270.5 287 271.3C280.6 272.1 275.4 276.5 273.6 282.7L253.1 353C250.6 361.4 255.4 370.3 263.9 372.8L339.3 395.4C357.8 400.9 367.2 421.4 359.3 439L302.6 566.5C299 574.6 289.6 578.2 281.5 574.6C273.4 571 269.8 561.6 273.4 553.5L322.6 442.7C324.5 438.5 324.4 433.7 322.5 429.5C320.6 425.3 317 422.2 312.6 420.9L216.7 392.1C192.1 384.7 177.7 359.4 183.9 334.5L206.6 243.9C207.8 239.1 206.7 234.1 203.7 230.2zM288 48C310.1 48 328 65.9 328 88C328 110.1 310.1 128 288 128C265.9 128 248 110.1 248 88C248 65.9 265.9 48 288 48zM300.2 306.1C311.9 324.7 332.3 336 354.3 336L415.9 336C433.6 336 447.9 321.7 447.9 304C447.9 286.3 433.6 272 415.9 272L354.3 272L321.5 215.7C307.2 191.1 280.9 176 252.4 176L160.5 176C127.8 176 98.4 195.9 86.2 226.3L66.3 276.1C59.7 292.5 67.7 311.1 84.1 317.7C100.5 324.3 119.1 316.3 125.7 299.9L145.6 250.1C148 244 153.9 240 160.5 240L191 240L168.3 330.6C160 363.8 179.3 397.6 212 407.4L292.5 431.5L307.9 436.1L301.3 450.8L258.6 546.9C251.4 563 258.7 582 274.8 589.1C290.9 596.2 309.9 589 317 572.9L373.6 445.5C385.3 419.1 371.2 388.3 343.5 380L268.1 357.4C279.1 319.9 286 296.4 288.8 287L298.8 304.1C299.2 304.7 299.5 305.4 299.9 306zM344 88C344 57.1 318.9 32 288 32C257.1 32 232 57.1 232 88C232 118.9 257.1 144 288 144C318.9 144 344 118.9 344 88zM150.2 412.3L135.8 452.6C133.9 458 130.5 462.9 126 466.5L43.6 534.5C30 545.7 28 565.9 39.3 579.5C50.6 593.1 70.7 595.1 84.3 583.8L166.7 515.9C180.1 504.9 190.2 490.4 196 474.1L205.6 447.2L200.5 445.7C197.1 444.7 193.7 443.5 190.4 442.1L181 468.8C176.1 482.4 167.7 494.4 156.6 503.6L74.2 571.5C67.4 577.1 57.3 576.2 51.7 569.3C46.1 562.4 47 552.4 53.9 546.8L136.3 478.9C143 473.4 148.1 466.2 151 458L162.8 425C158.3 421.1 154.1 416.8 150.4 412.3zM416 104L416 224L432 224L432 104C432 90.7 442.7 80 456 80L568 80C581.3 80 592 90.7 592 104L592 536C592 549.3 581.3 560 568 560L456 560C442.7 560 432 549.3 432 536L432 384L416 384L416 536C416 558.1 433.9 576 456 576L568 576C590.1 576 608 558.1 608 536L608 104C608 81.9 590.1 64 568 64L456 64C433.9 64 416 81.9 416 104z"/></svg>