<svg xmlns="http://www.w3.org/2000/svg" viewBox="0 0 640 640"><!--! Font Awesome Pro 7.2.0 by @fontawesome - https://fontawesome.com License - https://fontawesome.com/license (Commercial License) Copyright 2026 Fonticons, Inc. --><path fill="currentColor" d="M192 48C214.1 48 232 65.9 232 88C232 110.1 214.1 128 192 128C169.9 128 152 110.1 152 88C152 65.9 169.9 48 192 48zM192 144C222.9 144 248 118.9 248 88C248 57.1 222.9 32 192 32C161.1 32 136 57.1 136 88C136 118.9 161.1 144 192 144zM200.1 192L384.1 192C392.9 192 400.1 199.2 400.1 208C400.1 216.8 392.9 224 384.1 224L264.1 224C259.7 224 256.1 227.6 256.1 232L256.1 576C256.1 584.8 248.9 592 240.1 592C231.3 592 224.1 584.8 224.1 576L224.1 432C224.1 414.3 209.8 400 192.1 400C174.4 400 160.1 414.3 160.1 432L160.1 576C160.1 584.8 152.9 592 144.1 592C135.3 592 128.1 584.8 128.1 576L128.1 281.2C128.1 277.7 125.8 274.6 122.5 273.6C119.2 272.6 115.5 273.8 113.5 276.7L61.2 353C56.2 360.3 46.3 362.2 39 357.2C31.7 352.2 29.8 342.3 34.8 335L94.4 247.8C118.2 212.9 157.8 192 200 192zM320.1 176L200.1 176C152.5 176 108 199.5 81.2 238.8L21.6 325.9C11.6 340.5 15.4 360.4 30 370.4C44.6 380.4 64.5 376.6 74.5 362L112.1 307L112.1 575.9C112.1 593.6 126.4 607.9 144.1 607.9C161.8 607.9 176.1 593.6 176.1 575.9L176.1 431.9C176.1 423.1 183.3 415.9 192.1 415.9C200.9 415.9 208.1 423.1 208.1 431.9L208.1 575.9C208.1 593.6 222.4 607.9 240.1 607.9C257.8 607.9 272.1 593.6 272.1 575.9L272.1 239.9L384.1 239.9C401.8 239.9 416.1 225.6 416.1 207.9C416.1 190.2 401.8 175.9 384.1 175.9L336.1 175.9L336.1 111.9C336.1 94.2 350.4 79.9 368.1 79.9L592.1 79.9C609.8 79.9 624.1 94.2 624.1 111.9L624.1 335.9C624.1 353.6 609.8 367.9 592.1 367.9L368.1 367.9C350.4 367.9 336.1 353.6 336.1 335.9L336.1 287.9L320.1 287.9L320.1 335.9C320.1 362.4 341.6 383.9 368.1 383.9L592.1 383.9C618.6 383.9 640.1 362.4 640.1 335.9L640.1 111.9C640.1 85.4 618.6 63.9 592.1 63.9L368 64C341.5 64 320 85.5 320 112L320 176z"/></svg>