<svg xmlns="http://www.w3.org/2000/svg" viewBox="0 0 640 640"><!--! Font Awesome Pro 7.2.0 by @fontawesome - https://fontawesome.com License - https://fontawesome.com/license (Commercial License) Copyright 2026 Fonticons, Inc. --><path fill="currentColor" d="M432 82.1L432 128L280 128C275.6 128 272 124.4 272 120L272 109.2C272 105.2 275 101.8 279 101.3L432 82.1zM277 85.4C265 86.9 256 97.1 256 109.2L256 120C256 133.3 266.7 144 280 144L432 144C440.8 144 448 136.8 448 128L448 82.1C448 72.5 439.6 65 430 66.2L277 85.4zM421.1 312.3L272 482.7L272 368C272 359.2 264.8 352 256 352L104 352C90.7 352 80 341.3 80 328C80 314.7 90.7 304 104 304L377.2 304C392.5 304 407.3 306.9 421.1 312.3zM256 504.4L256 544C256 561.7 270.3 576 288 576L416 576C433.7 576 448 561.7 448 544L448 433.7C455.1 445.7 472.9 475.9 501.6 524.3C512.8 543.3 537.4 549.6 556.4 538.4C575.4 527.2 581.7 502.6 570.5 483.6L494.3 354.8C469.8 313.4 425.3 288 377.2 288L104 288C81.9 288 64 305.9 64 328C64 350.1 81.9 368 104 368L256 368L256 503.6C256 503.8 256 504.1 256 504.3zM272 512L432 512L432 544C432 552.8 424.8 560 416 560L288 560C279.2 560 272 552.8 272 544L272 512zM432 496L281.6 496L436.1 319.4C454.2 329.6 469.6 344.4 480.5 362.9L556.6 491.7C563.3 503.1 559.6 517.8 548.1 524.6C536.6 531.4 522 527.6 515.2 516.1L461.6 425.5C457.9 419.3 450.6 416.3 443.6 418.2C436.6 420.1 432 426.5 432 433.7L432 496zM272 176C272 220.2 307.8 256 352 256C396.2 256 432 220.2 432 176C432 170.5 431.4 165.2 430.4 160L414 160C415.3 165.1 416 170.5 416 176C416 211.3 387.3 240 352 240C316.7 240 288 211.3 288 176C288 170.5 288.7 165.1 290 160L273.6 160C272.6 165.2 272 170.5 272 176z"/></svg>