<svg xmlns="http://www.w3.org/2000/svg" viewBox="0 0 640 640"><!--! Font Awesome Pro 7.2.0 by @fontawesome - https://fontawesome.com License - https://fontawesome.com/license (Commercial License) Copyright 2026 Fonticons, Inc. --><path fill="currentColor" d="M483.9 65.1C487.1 63.2 491.3 63.7 493.9 66.6C496.5 69.5 496.7 73.7 494.5 76.7C489.3 82.2 484 87.6 479.1 93.4C470.4 103.8 458.6 119.5 446.9 140C424.3 179.6 401.6 237.6 400.1 312L536 312C540.4 312 544 315.6 544 320C544 324.4 540.4 328 536 328L400.1 328C401.6 402.5 424.3 460.4 446.9 500C458.6 520.5 470.3 536.2 479.1 546.6C484 552.4 489.3 557.7 494.5 563.3C496.7 566.3 496.5 570.5 493.9 573.4C491.3 576.3 487.1 576.8 483.9 574.9C477.4 570.1 472 563 466.9 556.9C457.6 545.8 445.4 529.5 433.1 508C409.4 466.5 385.7 405.8 384.2 328L255.9 328C254.4 405.8 230.7 466.4 207 508C194.7 529.5 182.4 545.8 173.2 556.9C168.1 563 162.6 570.1 156.2 574.9C153 576.8 148.8 576.3 146.2 573.4C143.6 570.5 143.4 566.3 145.6 563.3C150.8 557.8 156.1 552.4 161 546.6C169.7 536.2 181.5 520.5 193.2 500C215.8 460.4 238.5 402.4 240 328L104 328C99.6 328 96 324.4 96 320C96 315.6 99.6 312 104 312L239.8 312C238.3 237.5 215.7 179.6 193 140C181.3 119.5 169.6 103.8 160.8 93.4C155.9 87.6 150.6 82.3 145.4 76.7C143.2 73.7 143.4 69.5 146 66.6C148.6 63.7 152.8 63.2 156 65.1C162.5 69.9 167.9 77 173 83.1C182.3 94.2 194.5 110.5 206.8 132C230.5 173.5 254.2 234.2 255.7 312L384 312C385.5 234.2 409.2 173.6 432.9 132C445.2 110.5 457.5 94.2 466.7 83.1C471.8 77 477.3 69.9 483.7 65.1z"/></svg>