<svg xmlns="http://www.w3.org/2000/svg" viewBox="0 0 640 640"><!--! Font Awesome Pro 7.2.0 by @fontawesome - https://fontawesome.com License - https://fontawesome.com/license (Commercial License) Copyright 2026 Fonticons, Inc. --><path fill="currentColor" d="M232.6 80.8C218.2 79.8 205.4 89.7 201.7 103.7L188.7 152.3C350.9 158.8 481.2 289.1 487.7 451.3L536.2 438.4C550.3 434.7 560.1 421.9 559.1 407.5C547 232.7 407.3 93 232.5 80.9zM80 560L471.9 455.5C467.5 298.8 341.2 172.5 184.5 168.1L80 560zM186.2 99.6C191.7 78.8 210.9 63.3 233.7 64.9C416.5 77.5 562.5 223.5 575.1 406.3C576.7 429.1 561.1 448.2 540.4 453.8L84.1 575.5C78.6 577 72.7 575.4 68.7 571.4C64.7 567.4 63.1 561.5 64.6 556L186.2 99.6zM240 264C262.1 264 280 281.9 280 304C280 326.1 262.1 344 240 344C217.9 344 200 326.1 200 304C200 281.9 217.9 264 240 264zM264 304C264 290.7 253.3 280 240 280C226.7 280 216 290.7 216 304C216 317.3 226.7 328 240 328C253.3 328 264 317.3 264 304zM296 400C296 377.9 313.9 360 336 360C358.1 360 376 377.9 376 400C376 422.1 358.1 440 336 440C313.9 440 296 422.1 296 400zM336 424C349.3 424 360 413.3 360 400C360 386.7 349.3 376 336 376C322.7 376 312 386.7 312 400C312 413.3 322.7 424 336 424zM208 392C230.1 392 248 409.9 248 432C248 454.1 230.1 472 208 472C185.9 472 168 454.1 168 432C168 409.9 185.9 392 208 392zM232 432C232 418.7 221.3 408 208 408C194.7 408 184 418.7 184 432C184 445.3 194.7 456 208 456C221.3 456 232 445.3 232 432z"/></svg>