<svg xmlns="http://www.w3.org/2000/svg" viewBox="0 0 640 640"><!--! Font Awesome Pro 7.2.0 by @fontawesome - https://fontawesome.com License - https://fontawesome.com/license (Commercial License) Copyright 2026 Fonticons, Inc. --><path fill="currentColor" d="M579.5 374.5C575.7 396.3 554.9 410.8 533.2 406.9C488.6 399 388.8 381.4 233.8 354.1L139.3 337.4L130.2 335.8C106.2 331.6 87.7 312.3 84.4 288.1L67.5 162.3L100.2 168.1L147.5 254.6C148.7 256.7 150.7 258.2 153.1 258.6L247.6 275.3C250.1 275.7 252.7 274.9 254.6 273.2C256.5 271.5 257.3 268.8 256.9 266.3L228.9 77.1L293.3 88.5L431.4 305.1C432.6 307 434.5 308.3 436.8 308.7L547.1 328.1C568.9 331.9 583.4 352.7 579.5 374.4zM136.5 353.2C181.1 361.1 281 378.7 435.9 406L530.4 422.7C560.9 428.1 589.9 407.7 595.3 377.3C600.7 346.9 580.3 317.8 549.9 312.4L443 293.6L304.9 76.9C303.7 75 301.8 73.7 299.5 73.3L220.8 59.4C218.3 59 215.7 59.8 213.8 61.5C211.9 63.2 211.1 65.9 211.5 68.4L239.6 257.6L159.8 243.5L112.5 157C111.3 154.9 109.3 153.4 106.9 153L59.5 144.7C57 144.3 54.4 145 52.6 146.8C50.8 148.6 49.9 151.1 50.2 153.6L68.6 290.3C72.8 321.4 96.6 346.2 127.5 351.6L136.6 353.2zM240 448C240 439.2 247.2 432 256 432C264.8 432 272 439.2 272 448C272 456.8 264.8 464 256 464C247.2 464 240 456.8 240 448zM288 448C288 430.3 273.7 416 256 416C238.3 416 224 430.3 224 448C224 465.7 238.3 480 256 480C273.7 480 288 465.7 288 448zM352 448C360.8 448 368 455.2 368 464C368 472.8 360.8 480 352 480C343.2 480 336 472.8 336 464C336 455.2 343.2 448 352 448zM352 496C369.7 496 384 481.7 384 464C384 446.3 369.7 432 352 432C334.3 432 320 446.3 320 464C320 481.7 334.3 496 352 496zM40 560C35.6 560 32 563.6 32 568C32 572.4 35.6 576 40 576L600 576C604.4 576 608 572.4 608 568C608 563.6 604.4 560 600 560L40 560z"/></svg>