<svg xmlns="http://www.w3.org/2000/svg" viewBox="0 0 640 640"><!--! Font Awesome Pro 7.2.0 by @fontawesome - https://fontawesome.com License - https://fontawesome.com/license (Commercial License) Copyright 2026 Fonticons, Inc. --><path fill="currentColor" d="M132.4 66.9C134 64.8 136.5 63.5 139.2 63.5L224.2 63.5C247.2 63.5 269.2 73.3 284.5 90.6L488.7 320L576 320L576 336L153.1 336C130.4 336 112 354.4 112 377.1C112 389.2 117.4 400.8 126.7 408.6L130.7 411.9C244.5 507.6 388.4 560 537.1 560L576 560L576 576L537.1 576C384.6 576 237.1 522.2 120.3 424.2L116.3 420.9C103.5 410 96 394 96 377.1C96 345.6 121.6 320 153.1 320L202.3 320L131 74.4C130.3 71.8 130.8 69.1 132.4 66.9zM271.8 101.9C259.7 88.3 242.4 80.5 224.2 80.5L150.5 80.5L220 320L466 320L271.8 101.9zM360 416L504 416C508.4 416 512 419.6 512 424C512 428.4 508.4 432 504 432L360 432C355.6 432 352 428.4 352 424C352 419.6 355.6 416 360 416z"/></svg>