<svg xmlns="http://www.w3.org/2000/svg" viewBox="0 0 640 640"><!--! Font Awesome Pro 7.2.0 by @fontawesome - https://fontawesome.com License - https://fontawesome.com/license (Commercial License) Copyright 2026 Fonticons, Inc. --><path fill="currentColor" d="M496 512C496 538.5 474.5 560 448 560L192 560C165.5 560 144 538.5 144 512L144 128C144 101.5 165.5 80 192 80L448 80C474.5 80 496 101.5 496 128L496 512zM512 128C512 92.7 483.3 64 448 64L192 64C156.7 64 128 92.7 128 128L128 512C128 547.3 156.7 576 192 576L448 576C483.3 576 512 547.3 512 512L512 128z"/></svg>