<svg xmlns="http://www.w3.org/2000/svg" viewBox="0 0 640 640"><!--! Font Awesome Pro 7.2.0 by @fontawesome - https://fontawesome.com License - https://fontawesome.com/license (Commercial License) Copyright 2026 Fonticons, Inc. --><path fill="currentColor" d="M464 48C534.7 48 592 105.3 592 176C592 246.7 534.7 304 464 304C393.3 304 336 246.7 336 176C336 105.3 393.3 48 464 48zM464 320C543.5 320 608 255.5 608 176C608 96.5 543.5 32 464 32C384.5 32 320 96.5 320 176C320 255.5 384.5 320 464 320zM464 96C459.6 96 456 99.6 456 104L456 176C456 180.4 459.6 184 464 184L520 184C524.4 184 528 180.4 528 176C528 171.6 524.4 168 520 168L472 168L472 104C472 99.6 468.4 96 464 96zM537.7 353.3C532.8 355.4 527.7 357.2 522.6 358.8C526.1 371.9 527.9 385.7 527.9 399.9C527.9 504.1 453.3 550.6 436.1 559.9C436 559.9 435.9 559.9 435.5 559.9C433.5 559.9 431.8 558.3 431.8 556.2C431.8 554.8 432.8 551.8 436.5 548.4C448.6 537.1 463.8 515.5 463.8 480C463.8 418.1 413.7 368 351.8 368L255.8 368C247 368 239.8 375.2 239.8 384L239.8 464C239.8 470.5 235.9 476.3 229.9 478.8C223.9 481.3 217 479.9 212.5 475.3L52.5 315.3C46.3 309.1 46.3 298.9 52.5 292.7C41.2 281.4 41.2 281.4 52.5 292.7L212.5 132.7C217.1 128.1 224 126.8 229.9 129.2C235.8 131.6 240 137.5 240 144L240 224C240 232.8 247.2 240 256 240L282.9 240C281.1 234.8 279.4 229.4 278 224L256 224L256 144C256 131.1 248.2 119.4 236.2 114.4C224.2 109.4 210.5 112.2 201.3 121.3L41.3 281.3C28.8 293.8 28.8 314.1 41.3 326.6L201.3 486.6C210.5 495.8 224.2 498.5 236.2 493.5C248.2 488.5 256 476.9 256 464L256 384L352 384C405 384 448 427 448 480C448 510.4 435.2 527.9 425.8 536.7C420.3 541.8 416 548.7 416 556.2C416 567.1 424.8 575.9 435.7 575.9C438.5 575.9 441.3 575.3 443.8 574C462.5 563.9 544 513.3 544 399.9C544 383.7 541.8 368.1 537.7 353.2z"/></svg>