<svg xmlns="http://www.w3.org/2000/svg" viewBox="0 0 640 640"><!--! Font Awesome Pro 7.2.0 by @fontawesome - https://fontawesome.com License - https://fontawesome.com/license (Commercial License) Copyright 2026 Fonticons, Inc. --><path fill="currentColor" d="M144 160C166.1 160 184 142.1 184 120C184 97.9 166.1 80 144 80C121.9 80 104 97.9 104 120C104 142.1 121.9 160 144 160zM144 64C174.9 64 200 89.1 200 120C200 150.9 174.9 176 144 176C113.1 176 88 150.9 88 120C88 89.1 113.1 64 144 64zM126.8 208C104.5 208 84.4 221.2 75.5 241.6L15.3 379.2C13.5 383.2 8.8 385.1 4.8 383.3C.8 381.5-1.1 376.8 .7 372.8L60.8 235.2C72.3 209 98.2 192 126.8 192L161.2 192C189.8 192 215.7 208.9 227.2 235.2L287.4 372.8C289.2 376.8 287.3 381.6 283.3 383.3C279.3 385 274.5 383.2 272.8 379.2L212.5 241.6C203.6 221.2 183.4 208 161.2 208L126.8 208zM88 312L88 544C88 552.8 95.2 560 104 560C112.8 560 120 552.8 120 544L120 424C120 410.7 130.7 400 144 400C157.3 400 168 410.7 168 424L168 544C168 552.8 175.2 560 184 560C192.8 560 200 552.8 200 544L200 312C200 307.6 203.6 304 208 304C212.4 304 216 307.6 216 312L216 544C216 561.7 201.7 576 184 576C166.3 576 152 561.7 152 544L152 424C152 419.6 148.4 416 144 416C139.6 416 136 419.6 136 424L136 544C136 561.7 121.7 576 104 576C86.3 576 72 561.7 72 544L72 312C72 307.6 75.6 304 80 304C84.4 304 88 307.6 88 312zM496 160C518.1 160 536 142.1 536 120C536 97.9 518.1 80 496 80C473.9 80 456 97.9 456 120C456 142.1 473.9 160 496 160zM496 64C526.9 64 552 89.1 552 120C552 150.9 526.9 176 496 176C465.1 176 440 150.9 440 120C440 89.1 465.1 64 496 64zM450.5 264.4C454.7 265.8 457 270.3 455.6 274.5L403.1 432L588.9 432L536.4 274.5C535 270.3 537.3 265.8 541.5 264.4C545.7 263 550.2 265.3 551.6 269.5L607.6 437.5C608.4 439.9 608 442.6 606.5 444.7C605 446.8 602.6 448 600 448L568 448L568 544C568 561.7 553.7 576 536 576C518.3 576 504 561.7 504 544L504 448L488 448L488 544C488 561.7 473.7 576 456 576C438.3 576 424 561.7 424 544L424 448L392 448C389.4 448 387 446.8 385.5 444.7C384 442.6 383.6 439.9 384.4 437.5L440.4 269.5C441.8 265.3 446.3 263 450.5 264.4zM440 448L440 544C440 552.8 447.2 560 456 560C464.8 560 472 552.8 472 544L472 448L440 448zM520 544C520 552.8 527.2 560 536 560C544.8 560 552 552.8 552 544L552 448L520 448L520 544zM421.2 256L367.3 379.2C365.5 383.2 360.8 385.1 356.8 383.3C352.8 381.5 350.9 376.8 352.7 372.8L406.6 249.6C421.9 214.6 456.4 192 494.6 192L497.6 192C535.8 192 570.3 214.6 585.6 249.6L639.5 372.8C641.3 376.8 639.4 381.6 635.4 383.3C631.4 385 626.6 383.2 624.9 379.2L570.8 256C558.1 226.9 529.3 208 497.5 208L494.5 208C462.7 208 433.9 226.8 421.2 256zM328 72L328 568C328 572.4 324.4 576 320 576C315.6 576 312 572.4 312 568L312 72C312 67.6 315.6 64 320 64C324.4 64 328 67.6 328 72z"/></svg>