<svg xmlns="http://www.w3.org/2000/svg" viewBox="0 0 640 640"><!--! Font Awesome Pro 7.2.0 by @fontawesome - https://fontawesome.com License - https://fontawesome.com/license (Commercial License) Copyright 2026 Fonticons, Inc. --><path fill="currentColor" d="M224 96L40 96C35.6 96 32 99.6 32 104C32 108.4 35.6 112 40 112L88 112L88 208L40 208C35.6 208 32 211.6 32 216L32 320C32 323.3 34.1 326.3 37.2 327.5L49.3 332C77.4 342.6 96 369.4 96 399.4L96 520C96 533.3 106.7 544 120 544L184 544C197.3 544 208 533.3 208 520L208 432C208 393.3 235.5 361 272 353.6L272 337.3C226.6 344.9 192 384.4 192 432L192 520C192 524.4 188.4 528 184 528L120 528C115.6 528 112 524.4 112 520L112 399.4C112 362.7 89.2 329.9 54.9 317L48 314.4L48 223.9L272 223.9L272 207.9L232 207.9L232 111.9L272 111.9L272 95.9L224 95.9zM216 112L216 208L104 208L104 112L216 112zM560 112C577.7 112 592 126.3 592 144L592 496C592 513.7 577.7 528 560 528L472 528L472 456C472 451.6 468.4 448 464 448C459.6 448 456 451.6 456 456L456 528L368 528C350.3 528 336 513.7 336 496L336 144C336 126.3 350.3 112 368 112L456 112L456 184C456 188.4 459.6 192 464 192C468.4 192 472 188.4 472 184L472 112L560 112zM560 96L368 96C341.5 96 320 117.5 320 144L320 496C320 522.5 341.5 544 368 544L560 544C586.5 544 608 522.5 608 496L608 144C608 117.5 586.5 96 560 96zM464 272C459.6 272 456 275.6 456 280L456 360C456 364.4 459.6 368 464 368C468.4 368 472 364.4 472 360L472 280C472 275.6 468.4 272 464 272z"/></svg>