<svg xmlns="http://www.w3.org/2000/svg" viewBox="0 0 640 640"><!--! Font Awesome Pro 7.2.0 by @fontawesome - https://fontawesome.com License - https://fontawesome.com/license (Commercial License) Copyright 2026 Fonticons, Inc. --><path fill="currentColor" d="M139.3 84.7L181.7 127L162.3 146.3C159.2 149.4 159.2 154.5 162.3 157.6C165.4 160.7 170.5 160.7 173.6 157.6L192.9 138.3L261.6 207L226.3 242.3C223.2 245.4 223.2 250.5 226.3 253.6C229.4 256.7 234.5 256.7 237.6 253.6L272.9 218.3L341.6 287L322.3 306.3C319.2 309.4 319.2 314.5 322.3 317.6C325.4 320.7 330.5 320.7 333.6 317.6L352.9 298.3L421.6 367L386.3 402.3C383.2 405.4 383.2 410.5 386.3 413.6C389.4 416.7 394.5 416.7 397.6 413.6L432.9 378.3L501.6 447L482.3 466.3C479.2 469.4 479.2 474.5 482.3 477.6C485.4 480.7 490.5 480.7 493.6 477.6L512.9 458.3L555.2 500.6C559.8 505.2 561.1 512.1 558.7 518C556.3 523.9 550.5 528 544 528L128 528C119.2 528 112 520.8 112 512L112 96C112 89.5 115.9 83.7 121.9 81.2C127.9 78.7 134.8 80.1 139.3 84.7zM150.6 73.4C141.5 64.2 127.7 61.5 115.8 66.4C103.9 71.3 96 83.1 96 96L96 512C96 529.7 110.3 544 128 544L544 544C556.9 544 568.6 536.2 573.6 524.2C578.6 512.2 575.8 498.5 566.7 489.3L150.6 73.4zM221.6 302.8C219.3 300.5 215.9 299.8 212.9 301.1C209.9 302.4 208 305.3 208 308.5L208 424C208 428.4 211.6 432 216 432L331.5 432C334.7 432 337.7 430.1 338.9 427.1C340.1 424.1 339.5 420.7 337.2 418.4L221.7 302.8zM224 416L224 327.8L312.2 416L224 416z"/></svg>