<svg xmlns="http://www.w3.org/2000/svg" viewBox="0 0 640 640"><!--! Font Awesome Pro 7.2.0 by @fontawesome - https://fontawesome.com License - https://fontawesome.com/license (Commercial License) Copyright 2026 Fonticons, Inc. --><path fill="currentColor" d="M112 144L112 496C112 513.7 126.3 528 144 528L496 528C513.7 528 528 513.7 528 496L528 400C528 382.3 513.7 368 496 368L448 368L448 440C448 444.4 444.4 448 440 448C435.6 448 432 444.4 432 440L432 368L368 368L368 440C368 444.4 364.4 448 360 448C355.6 448 352 444.4 352 440L352 368L288 368L288 440C288 444.4 284.4 448 280 448C275.6 448 272 444.4 272 440L272 368L200 368C195.6 368 192 364.4 192 360C192 355.6 195.6 352 200 352L272 352L272 288L200 288C195.6 288 192 284.4 192 280C192 275.6 195.6 272 200 272L272 272L272 208L200 208C195.6 208 192 204.4 192 200C192 195.6 195.6 192 200 192L272 192L272 144C272 126.3 257.7 112 240 112L144 112C126.3 112 112 126.3 112 144zM440 352L496 352C522.5 352 544 373.5 544 400L544 496C544 522.5 522.5 544 496 544L144 544C117.5 544 96 522.5 96 496L96 144C96 117.5 117.5 96 144 96L240 96C266.5 96 288 117.5 288 144L288 352L440 352z"/></svg>