<svg xmlns="http://www.w3.org/2000/svg" viewBox="0 0 640 640"><!--! Font Awesome Pro 7.2.0 by @fontawesome - https://fontawesome.com License - https://fontawesome.com/license (Commercial License) Copyright 2026 Fonticons, Inc. --><path fill="currentColor" d="M536 96C540.4 96 544 99.6 544 104L544 272C544 276.4 540.4 280 536 280C531.6 280 528 276.4 528 272L528 123.3L299.3 352L381.6 434.3C384.7 437.4 384.7 442.5 381.6 445.6C378.5 448.7 373.4 448.7 370.3 445.6L288 363.3L109.7 541.7C106.6 544.8 101.5 544.8 98.4 541.7C95.3 538.6 95.3 533.5 98.4 530.4L276.7 352L194.3 269.7C191.2 266.6 191.2 261.5 194.3 258.4C197.4 255.3 202.5 255.3 205.6 258.4L288 340.7L516.7 112L368 112C363.6 112 360 108.4 360 104C360 99.6 363.6 96 368 96L536 96z"/></svg>