<svg xmlns="http://www.w3.org/2000/svg" viewBox="0 0 640 640"><!--! Font Awesome Pro 7.2.0 by @fontawesome - https://fontawesome.com License - https://fontawesome.com/license (Commercial License) Copyright 2026 Fonticons, Inc. --><path fill="currentColor" d="M139.3 251.3C142.3 248.3 144 244.2 144 240L144 176C144 158.3 158.3 144 176 144L240 144C244.2 144 248.3 142.3 251.3 139.3L304 86.6C308.2 82.4 314 80 320 80C326 80 331.8 82.4 336 86.6L388.7 139.3C391.7 142.3 395.8 144 400 144L464 144C481.7 144 496 158.3 496 176L496 240C496 244.2 497.7 248.3 500.7 251.3L553.4 304C557.6 308.2 560 314 560 320C560 326 557.6 331.8 553.4 336L500.7 388.7C497.7 391.7 496 395.8 496 400L496 464C496 481.7 481.7 496 464 496L400 496C395.8 496 391.7 497.7 388.7 500.7L336 553.4C331.8 557.6 326 560 320 560C314 560 308.2 557.6 304 553.4L251.3 500.7C248.3 497.7 244.2 496 240 496L176 496C158.3 496 144 481.7 144 464L144 400C144 395.8 142.3 391.7 139.3 388.7L86.6 336C82.4 331.8 80 326 80 320C80 314 82.4 308.2 86.6 304L139.3 251.3zM128 176L128 240L75.3 292.7C68.1 299.9 64 309.8 64 320C64 330.2 68.1 340.1 75.3 347.3L128 400L128 464C128 490.5 149.5 512 176 512L240 512L292.7 564.7C299.9 571.9 309.8 576 320 576C330.2 576 340.1 571.9 347.3 564.7L400 512L464 512C490.5 512 512 490.5 512 464L512 400L564.7 347.3C571.9 340.1 576 330.2 576 320C576 309.8 571.9 299.9 564.7 292.7L512 240L512 176C512 149.5 490.5 128 464 128L400 128L347.3 75.3C340.1 68.1 330.2 64 320 64C309.8 64 299.9 68.1 292.7 75.3L240 128L176 128C149.5 128 128 149.5 128 176zM320 240C345 240 365.2 260.2 365.2 285.2C365.2 307.5 350.9 318.9 337.3 325C324.3 330.8 312 343.4 312 360C312 364.4 315.6 368 320 368C324.4 368 328 364.4 328 360C328 351.9 334.4 343.9 343.9 339.6C360.3 332.3 381.3 316.5 381.3 285.2C381.3 251.4 353.9 224 320.1 224C286.3 224 258.9 251.4 258.9 285.2C258.9 289.6 262.5 293.2 266.9 293.2C271.3 293.2 274.9 289.6 274.9 285.2C274.9 260.2 295.1 240 320.1 240zM336 416C336 407.2 328.8 400 320 400C311.2 400 304 407.2 304 416C304 424.8 311.2 432 320 432C328.8 432 336 424.8 336 416z"/></svg>