<svg xmlns="http://www.w3.org/2000/svg" viewBox="0 0 640 640"><!--! Font Awesome Pro 7.2.0 by @fontawesome - https://fontawesome.com License - https://fontawesome.com/license (Commercial License) Copyright 2026 Fonticons, Inc. --><path fill="currentColor" d="M299.4 32.5C315.3 27 332.9 27.9 348.2 35.3L520.6 118.3L526.9 121.8C541.1 130.8 551.4 145.1 555.2 161.7L597.8 348.2L599 355.4C600.6 369.7 597.3 384.2 589.6 396.5L585.4 402.4L466.1 552L461.3 557.4C451.1 567.6 437.7 574 423.3 575.7L416 576.1L224.7 576.1L217.5 575.7C203.2 574.1 189.8 567.6 179.5 557.4L174.7 552L55.4 402.4C44.8 389.1 40 372.1 41.9 355.4L43.1 348.2L85.7 161.7L87.7 154.7C92.6 140.8 102.1 129 114.7 121.3L120.3 118.3L292.7 35.3L299.4 32.5zM341.3 49.7C329.8 44.2 316.7 43.5 304.7 47.6L299.6 49.7L127.2 132.7C115.9 138.2 107.2 147.9 102.9 159.6L101.1 165.6L58.6 351.8C55.5 366 58.9 381 68 392.4L187.3 542L190.9 546.1C199.8 555 212 560.1 224.8 560.1L416.1 560.1C430.7 560.1 444.5 553.4 453.6 542L572.6 392.8L576.2 387.8C581.8 378.7 584.3 368.1 583.1 357.5L582.2 351.9L539.6 165.4C536.8 153.1 529.2 142.4 518.7 135.6L513.3 132.6L341.3 49.8z"/></svg>