<svg xmlns="http://www.w3.org/2000/svg" viewBox="0 0 640 640"><!--! Font Awesome Pro 7.2.0 by @fontawesome - https://fontawesome.com License - https://fontawesome.com/license (Commercial License) Copyright 2026 Fonticons, Inc. --><path fill="currentColor" d="M301.3 86.6C313.3 81.5 326.8 81.5 338.8 86.6L515.5 161.6C532.1 168.7 544.1 184.8 544 204C543.5 300.6 503.7 474.2 339.5 552.8C327.2 558.7 312.8 558.7 300.5 552.8C136.3 474.2 96.4 300.6 95.9 204C95.8 184.9 107.8 168.7 124.4 161.6L301.1 86.6zM345.1 71.8C329.1 65 311.1 65 295.1 71.8L118.3 146.8C96.3 156.1 79.9 177.8 80 204C80.5 303.2 121.3 484.7 293.6 567.2C310.3 575.2 329.7 575.2 346.4 567.2C518.8 484.7 559.5 303.2 560 204C560.1 177.8 543.7 156.1 521.7 146.8L345.1 71.8zM224 285.3C224 260.3 244.3 240 269.3 240C283.6 240 297 246.7 305.6 258.1L313.6 268.8C315.1 270.8 317.5 272 320 272C322.5 272 324.9 270.8 326.4 268.8L334.4 258.1C343 246.7 356.4 240 370.7 240C395.7 240 416 260.3 416 285.3L416 288C416 312.8 397.9 337.5 375.4 358.4C353.5 378.6 329.3 393.5 320 398.9C310.7 393.5 286.5 378.7 264.6 358.4C242.1 337.6 224 312.8 224 288L224 285.3zM269.4 224C235.5 224 208.1 251.5 208.1 285.3L208.1 288C208.1 320 230.9 348.8 253.9 370.1C277.3 391.7 303 407.4 312.4 412.8C317.2 415.6 323 415.6 327.8 412.8C337.3 407.3 362.9 391.7 386.3 370.1C409.3 348.8 432.1 320 432.1 288L432.1 285.3C432.1 251.4 404.6 224 370.8 224C351.5 224 333.3 233.1 321.7 248.5L320.1 250.6L318.5 248.5C306.9 233.1 288.7 224 269.4 224z"/></svg>