<svg xmlns="http://www.w3.org/2000/svg" viewBox="0 0 640 640"><!--! Font Awesome Pro 7.2.0 by @fontawesome - https://fontawesome.com License - https://fontawesome.com/license (Commercial License) Copyright 2026 Fonticons, Inc. --><path fill="currentColor" d="M306.9 48.5C317.1 48.5 326.9 52.5 334.1 59.7L406 131.6L464.5 143.3C480.7 146.5 493.4 159.2 496.7 175.5L508.4 234L580.3 305.9L582.9 308.7C588.5 315.5 591.6 324.1 591.6 333C591.6 348.6 582.2 362.6 567.8 368.6L347.3 459.3L266.1 532C221.8 571.6 154.3 569.7 112.4 527.7C70.4 485.7 68.5 418.2 108.1 373.9L180.7 292.6L271.4 72.2L274 67C280.9 55.5 293.3 48.3 307 48.3zM120 384.6C86.1 422.5 87.7 480.4 123.7 516.4C159.7 552.4 217.5 554 255.5 520.1L271 506.3L133.9 369.2L120.1 384.7zM144.5 357.2L282.9 495.6L330.1 453.4L186.7 310L144.5 357.2zM309 409.7L343.1 443.8L561.6 353.9C570 350.4 575.5 342.2 575.5 333.2C575.5 328.7 574.2 324.4 571.7 320.8L568.9 317.4L500.5 249L308.9 409.8zM241.7 342.4L297.7 398.4L492.3 235L481 178.7C479 168.8 471.3 161.1 461.4 159.1L405.1 147.7L241.7 342.3zM306.9 64.5C298.9 64.5 291.7 68.7 287.7 75.4L286.2 78.4L196.2 296.9L230.3 331L391.2 139.5L322.8 71.1C318.6 66.9 312.9 64.5 306.9 64.5z"/></svg>