<svg xmlns="http://www.w3.org/2000/svg" viewBox="0 0 640 640"><!--! Font Awesome Pro 7.2.0 by @fontawesome - https://fontawesome.com License - https://fontawesome.com/license (Commercial License) Copyright 2026 Fonticons, Inc. --><path fill="currentColor" d="M396.2 253.2L554.8 312.6C557.9 313.8 560 316.8 560 320.1C560 323.4 557.9 326.4 554.8 327.6L396.2 386.8C391.9 388.4 388.4 391.8 386.8 396.2L327.5 554.8C326.3 557.9 323.3 560 320 560C316.7 560 313.7 557.9 312.5 554.8L253.2 396.2C251.6 391.9 248.2 388.4 243.8 386.8L85.2 327.5C82.1 326.3 80 323.3 80 320C80 316.7 82.1 313.7 85.2 312.5L243.8 253.1C248.1 251.5 251.6 248.1 253.2 243.7L312.5 85.2C313.7 82.1 316.7 80 320 80C323.3 80 326.3 82.1 327.5 85.2L386.9 243.8C388.5 248.1 391.9 251.6 396.3 253.2zM401.8 238.2L342.5 79.6C339 70.2 330 64 320 64C310 64 301 70.2 297.5 79.6L238.2 238.2L79.6 297.5C70.2 301 64 310 64 320C64 330 70.2 339 79.6 342.5L238.2 401.9L297.6 560.5C301 569.8 310 576 320 576C330 576 339 569.8 342.5 560.4L401.9 401.8L560.5 342.4C569.8 339 576 330 576 320C576 310 569.8 301 560.4 297.5L401.8 238.2z"/></svg>