<svg xmlns="http://www.w3.org/2000/svg" viewBox="0 0 640 640"><!--! Font Awesome Pro 7.2.0 by @fontawesome - https://fontawesome.com License - https://fontawesome.com/license (Commercial License) Copyright 2026 Fonticons, Inc. --><path fill="currentColor" d="M160 112C133.5 112 112 133.5 112 160L112 480C112 506.5 133.5 528 160 528L480 528C506.5 528 528 506.5 528 480L528 160C528 133.5 506.5 112 480 112L160 112zM96 160C96 124.7 124.7 96 160 96L480 96C515.3 96 544 124.7 544 160L544 480C544 515.3 515.3 544 480 544L160 544C124.7 544 96 515.3 96 480L96 160zM256 245.3C256 255.2 259.9 264.7 266.9 271.6L291.9 296.6L330.4 269.4C338.9 263.4 343.9 253.7 343.9 243.3L343.9 240C343.9 222.3 329.6 208 311.9 208L293.2 208C272.6 208 255.9 224.7 255.9 245.3zM339.7 282.5L303.4 308.1L374 378.7L417.7 323.1C420.4 319.6 425.5 319 428.9 321.8C432.3 324.6 433 329.6 430.2 333L385.3 390.1L429.6 434.4C432.7 437.5 432.7 442.6 429.6 445.7C426.5 448.8 421.4 448.8 418.3 445.7L375.4 402.8L359.1 423.6C347 439 328.4 448 308.8 448L268.7 448C235.2 448 208 420.8 208 387.3C208 367.6 217.6 349.1 233.7 337.7L278.7 306L255.6 282.9C245.6 272.9 240 259.4 240 245.2C240 215.8 263.8 191.9 293.3 191.9L312 191.9C338.5 191.9 360 213.4 360 239.9L360 243.2C360 258.8 352.4 273.4 339.7 282.4zM242.9 350.8C231 359.2 224 372.8 224 387.3C224 412 244 432 268.7 432L308.8 432C323.5 432 337.4 425.2 346.5 413.7L364 391.4L290.1 317.5L242.9 350.8z"/></svg>