<svg xmlns="http://www.w3.org/2000/svg" viewBox="0 0 640 640"><!--! Font Awesome Pro 7.2.0 by @fontawesome - https://fontawesome.com License - https://fontawesome.com/license (Commercial License) Copyright 2026 Fonticons, Inc. --><path fill="currentColor" d="M96.3 153.5C99.4 123.4 123.3 99.4 153.4 96.4L160 96L160 112C133.5 112 112 133.5 112 160L112 312L528 312L528 160C528 135.1 509.1 114.7 484.9 112.2L480 112L480 96L486.5 96.3C518.8 99.6 544 126.9 544 160L544 480C544 515.3 515.3 544 480 544L160 544L153.5 543.7C121.2 540.4 96 513.1 96 480L96 160L96.3 153.5zM112 480C112 506.5 133.5 528 160 528L480 528C506.5 528 528 506.5 528 480L528 328L112 328L112 480zM232 128C232 123.6 235.6 120 240 120L312 120L312 48C312 43.6 315.6 40 320 40C324.4 40 328 43.6 328 48L328 120L400 120C404.4 120 408 123.6 408 128C408 132.4 404.4 136 400 136L328 136L328 208C328 212.4 324.4 216 320 216C315.6 216 312 212.4 312 208L312 136L240 136C235.6 136 232 132.4 232 128z"/></svg>