<svg xmlns="http://www.w3.org/2000/svg" viewBox="0 0 640 640"><!--! Font Awesome Pro 7.2.0 by @fontawesome - https://fontawesome.com License - https://fontawesome.com/license (Commercial License) Copyright 2026 Fonticons, Inc. --><path fill="currentColor" d="M96.3 153.5C99.4 123.4 123.3 99.4 153.4 96.4L159.9 96.1L191.9 96.1L191.9 112.1L159.9 112.1C133.5 112 112 133.5 112 160L112 312L528 312L528 160C528 133.5 506.5 112 480 112L448 112L448 96L480 96L486.5 96.3C518.8 99.6 544 126.9 544 160L544 480C544 515.3 515.3 544 480 544L160 544L153.5 543.7C121.2 540.4 96 513.1 96 480L96 160L96.3 153.5zM112 480C112 506.5 133.5 528 160 528L480 528C506.5 528 528 506.5 528 480L528 328L112 328L112 480zM254.8 74.2C251.7 71.1 251.7 66 254.8 62.9C257.9 59.8 263 59.8 266.1 62.9L320 116.7L373.8 62.8C376.9 59.7 382 59.7 385.1 62.8C388.2 65.9 388.2 71 385.1 74.1L331.3 128L385.2 181.8C388.3 184.9 388.3 190 385.2 193.1C382.1 196.2 377 196.2 373.9 193.1L320 139.3L266.2 193.2C263.1 196.3 258 196.3 254.9 193.2C251.8 190.1 251.8 185 254.9 181.9L308.7 128L254.8 74.2z"/></svg>