<svg xmlns="http://www.w3.org/2000/svg" viewBox="0 0 640 640"><!--! Font Awesome Pro 7.2.0 by @fontawesome - https://fontawesome.com License - https://fontawesome.com/license (Commercial License) Copyright 2026 Fonticons, Inc. --><path fill="currentColor" d="M153.5 96.3C123.4 99.4 99.4 123.3 96.4 153.4L96 160L112 160C112 133.5 133.5 112 160 112L312 112L312 528L160 528C135.1 528 114.7 509.1 112.2 484.9L112 480L96 480L96.3 486.5C99.6 518.8 126.9 544 160 544L480 544C515.3 544 544 515.3 544 480L544 160L543.7 153.5C540.4 121.2 513.1 96 480 96L160 96L153.5 96.3zM480 112C506.5 112 528 133.5 528 160L528 480C528 506.5 506.5 528 480 528L328 528L328 112L480 112zM128 232C123.6 232 120 235.6 120 240L120 312L48 312C43.6 312 40 315.6 40 320C40 324.4 43.6 328 48 328L120 328L120 400C120 404.4 123.6 408 128 408C132.4 408 136 404.4 136 400L136 328L208 328C212.4 328 216 324.4 216 320C216 315.6 212.4 312 208 312L136 312L136 240C136 235.6 132.4 232 128 232z"/></svg>