<svg xmlns="http://www.w3.org/2000/svg" viewBox="0 0 640 640"><!--! Font Awesome Pro 7.2.0 by @fontawesome - https://fontawesome.com License - https://fontawesome.com/license (Commercial License) Copyright 2026 Fonticons, Inc. --><path fill="currentColor" d="M324.6 65.5C321.8 63.5 318.1 63.5 315.3 65.5L74.1 236.7C67.8 241.2 64 248.5 64 256.3L64 300C64 332.7 87.1 360.1 118 366.5L75.1 525.6C68.3 551 87.4 576 113.8 576L526.3 576C552.6 576 571.8 551 564.9 525.6L522 366.5C552.8 360 576 332.7 576 300L576 256.3C576 248.5 572.2 241.2 565.9 236.7L324.6 65.5zM505.9 368L549.5 529.8C553.5 545 542 560 526.2 560L446.6 560L410.1 363.1C425.9 356.9 439 345.3 447.1 330.5C458 352.1 480.1 367.2 505.8 368zM430.4 560L209.6 560L245.3 367.2C248.8 367.7 252.3 368 256 368C283.9 368 308 352.2 320 329C332 352.2 356.1 368 384 368C387.6 368 391.2 367.7 394.7 367.2L430.4 560zM192.8 330.5C200.9 345.3 214 356.9 229.8 363.1L193.3 560L113.8 560C98 560 86.5 545 90.6 529.8L134.1 368C159.8 367.2 181.9 352.2 192.7 330.5zM320 240L97.1 240L320 81.8L542.9 240L320 240zM80 256.3L80 256L184 256L184 300C184 328.7 160.7 352 132 352C103.3 352 80 328.7 80 300L80 256.3zM456 256L560 256L560 256.3L560 300C560 328.7 536.7 352 508 352C479.3 352 456 328.7 456 300L456 256zM200 296L200 256L312 256L312 296C312 326.9 286.9 352 256 352C225.1 352 200 326.9 200 296zM328 256L440 256L440 296C440 326.9 414.9 352 384 352C353.1 352 328 326.9 328 296L328 256z"/></svg>