<svg xmlns="http://www.w3.org/2000/svg" viewBox="0 0 640 640"><!--! Font Awesome Pro 7.2.0 by @fontawesome - https://fontawesome.com License - https://fontawesome.com/license (Commercial License) Copyright 2026 Fonticons, Inc. --><path fill="currentColor" d="M496 560L144 560L144 256C144 158.8 222.8 80 320 80C417.2 80 496 158.8 496 256L496 560zM128 256L128 560L104 560C99.6 560 96 563.6 96 568C96 572.4 99.6 576 104 576L536 576C540.4 576 544 572.4 544 568C544 563.6 540.4 560 536 560L512 560L512 256C512 150 426 64 320 64C214 64 128 150 128 256zM328 208C328 203.6 324.4 200 320 200C315.6 200 312 203.6 312 208L312 280L240 280C235.6 280 232 283.6 232 288C232 292.4 235.6 296 240 296L312 296L312 432C312 436.4 315.6 440 320 440C324.4 440 328 436.4 328 432L328 296L400 296C404.4 296 408 292.4 408 288C408 283.6 404.4 280 400 280L328 280L328 208z"/></svg>