<svg xmlns="http://www.w3.org/2000/svg" viewBox="0 0 640 640"><!--! Font Awesome Pro 7.2.0 by @fontawesome - https://fontawesome.com License - https://fontawesome.com/license (Commercial License) Copyright 2026 Fonticons, Inc. --><path fill="currentColor" d="M128 136L128 504C128 526.1 110.1 544 88 544C65.9 544 48 526.1 48 504L48 136C48 113.9 65.9 96 88 96C110.1 96 128 113.9 128 136zM88 560C110.3 560 129.6 546.9 138.6 528L501.4 528C510.4 546.9 529.7 560 552 560C582.9 560 608 534.9 608 504L608 136C608 105.1 582.9 80 552 80C529.7 80 510.4 93.1 501.4 112L138.6 112C129.6 93.1 110.3 80 88 80C57.1 80 32 105.1 32 136L32 504C32 534.9 57.1 560 88 560zM512 136C512 113.9 529.9 96 552 96C574.1 96 592 113.9 592 136L592 504C592 526.1 574.1 544 552 544C529.9 544 512 526.1 512 504L512 136zM496 136L496 512L144 512L144 128L496 128L496 136zM326.8 211.7C325.3 209.4 322.8 208 320 208C317.2 208 314.7 209.4 313.2 211.7L280.2 264L224 264C221.1 264 218.4 265.6 217 268.1C215.6 270.6 215.7 273.8 217.2 276.2L244.8 319.9L217.2 363.6C215.6 366.1 215.6 369.2 217 371.7C218.4 374.2 221.1 375.8 224 375.8L280.2 375.8L313.2 428.1C314.7 430.4 317.2 431.8 320 431.8C322.8 431.8 325.3 430.4 326.8 428.1L359.8 375.8L416 375.8C418.9 375.8 421.6 374.2 423 371.7C424.4 369.2 424.3 366 422.8 363.6L395.2 319.9L422.8 276.2C424.4 273.7 424.4 270.6 423 268.1C421.6 265.6 418.9 264 416 264L359.8 264L326.8 211.7zM291.4 276.2L320 231L348.6 276.3C350.1 278.6 352.6 280 355.4 280L401.5 280L378.9 315.7C377.3 318.3 377.3 321.6 378.9 324.2L401.5 359.9L355.4 359.9C352.7 359.9 350.1 361.3 348.6 363.6L320 409L291.4 363.7C289.9 361.4 287.4 360 284.6 360L238.5 360L261.1 324.3C262.7 321.7 262.7 318.4 261.1 315.8L238.5 280.1L284.6 280.1C287.3 280.1 289.9 278.7 291.4 276.4z"/></svg>