<svg xmlns="http://www.w3.org/2000/svg" viewBox="0 0 640 640"><!--! Font Awesome Pro 7.2.0 by @fontawesome - https://fontawesome.com License - https://fontawesome.com/license (Commercial License) Copyright 2026 Fonticons, Inc. --><path fill="currentColor" d="M512 64C547.3 64 576 92.7 576 128C576 160.6 551.6 187.5 520 191.4L520 288C520 310.1 502.1 328 480 328L328 328L328 448.6C359.6 452.5 384 479.4 384 512C384 547.3 355.3 576 320 576C284.7 576 256 547.3 256 512C256 479.4 280.4 452.5 312 448.6L312 328L136 328L136 448.6C167.6 452.5 192 479.4 192 512C192 547.3 163.3 576 128 576C92.7 576 64 547.3 64 512C64 479.4 88.4 452.5 120 448.6L120 191.4C88.4 187.5 64 160.6 64 128C64 92.7 92.7 64 128 64C163.3 64 192 92.7 192 128C192 160.6 167.6 187.5 136 191.4L136 312L312 312L312 191.4C280.4 187.5 256 160.6 256 128C256 92.7 284.7 64 320 64C355.3 64 384 92.7 384 128C384 160.6 359.6 187.5 328 191.4L328 312L480 312C493.3 312 504 301.3 504 288L504 191.4C472.4 187.5 448 160.6 448 128C448 92.7 476.7 64 512 64zM128 464C101.5 464 80 485.5 80 512C80 538.5 101.5 560 128 560C154.5 560 176 538.5 176 512C176 485.5 154.5 464 128 464zM320 464C293.5 464 272 485.5 272 512C272 538.5 293.5 560 320 560C346.5 560 368 538.5 368 512C368 485.5 346.5 464 320 464zM512 80C485.5 80 464 101.5 464 128C464 154.5 485.5 176 512 176C538.5 176 560 154.5 560 128C560 101.5 538.5 80 512 80zM128 80C101.5 80 80 101.5 80 128C80 154.5 101.5 176 128 176C154.5 176 176 154.5 176 128C176 101.5 154.5 80 128 80zM320 80C293.5 80 272 101.5 272 128C272 154.5 293.5 176 320 176C346.5 176 368 154.5 368 128C368 101.5 346.5 80 320 80z"/></svg>