<svg xmlns="http://www.w3.org/2000/svg" viewBox="0 0 640 640"><!--! Font Awesome Pro 7.2.0 by @fontawesome - https://fontawesome.com License - https://fontawesome.com/license (Commercial License) Copyright 2026 Fonticons, Inc. --><path fill="currentColor" d="M308.3 64.3C316.8 59 327.9 59.9 335.5 67L346.4 77.7C358.7 90.2 374.6 107.8 388.8 128.5C395.8 138.7 402.5 149.7 408.1 161.4C423.5 159.7 439 159.8 453.7 160.9C478.7 162.9 502 167.8 518.9 172.2L533.6 176.4C545 179.9 551.7 191.4 549 203L545.2 217.8C540.6 234.7 533.2 257.3 522.5 279.9C516.7 292 509.7 304.3 501.6 315.8C509.7 327.3 516.7 339.6 522.5 351.8C536.9 382 545.1 412.1 549 428.8L549.6 433.1C549.9 441.7 545.3 449.7 537.7 453.7L533.6 455.4C517.2 460.4 487 468.3 453.7 470.9C438.9 472.1 423.2 472.1 407.7 470.4C402.1 482 395.6 493.2 388.6 503.3C369.7 530.9 347.7 553.1 335.2 564.7L331.7 567.4C323.2 572.7 312.1 571.8 304.5 564.7L293.7 554C281.4 541.5 265.5 523.9 251.3 503.2C244.3 493 237.7 481.9 232.1 470.2C216.7 471.9 201.1 471.9 186.3 470.8C161.3 468.8 138 463.9 121.1 459.5L106.4 455.3C95 451.8 88.3 440.3 91 428.7L94.8 413.9C99.4 397 106.8 374.4 117.6 351.8C123.4 339.6 130.4 327.3 138.5 315.8C130.4 304.3 123.4 292.1 117.6 280C103.2 249.8 95 219.7 91.1 203L90.5 198.7C90.2 190.1 94.8 182.2 102.4 178.1L106.5 176.4C122.9 171.4 153.1 163.5 186.4 160.9C201.2 159.7 216.8 159.7 232.2 161.4C237.8 149.8 244.5 138.7 251.5 128.5C270.4 100.9 292.4 78.7 304.9 67.1L308.4 64.4zM320.1 422.9C313 433.1 304 442.2 293.3 449.5L286.8 453.6C275 460.4 262.1 464.9 248.7 467.7C253.4 476.8 258.7 485.7 264.5 494.2C278 513.9 293.2 530.8 305.1 542.8L315.6 553C317.5 554.8 320.1 555.3 322.3 554.4L324.4 553C336.4 541.7 357.5 520.4 375.5 494.2C381.3 485.7 386.6 476.8 391.3 467.7C380.1 465.3 369.2 461.8 359.1 456.7L353.4 453.6C339.7 445.7 328.5 435.1 320 422.9zM317.9 77.3L315.8 78.7C303.8 90 282.7 111.3 264.7 137.5C246.6 163.9 232.2 194.3 232.2 224C232.2 238.4 235.6 251.9 241.7 263.9C243 266.4 242.8 269.3 241.4 271.7C240 274.1 237.4 275.5 234.6 275.5C221.6 275.5 208.4 278.4 196 284.5L190.8 287.3C165.1 302.1 145.9 329.7 132.1 358.6C121.8 380.1 114.8 401.8 110.4 418L106.8 432.2C106 435.6 107.9 438.8 111.2 439.9L125.4 443.9C141.7 448.2 164 452.9 187.7 454.7C219.6 457.2 253.1 454.4 278.8 439.6L284.3 436.1C296.8 427.6 306.5 416.3 313 403.6L314.3 401.8C315.8 400.2 317.9 399.3 320.1 399.3C323.1 399.3 325.8 401 327.2 403.6C334.7 418.1 346.3 430.7 361.4 439.5L366.3 442.2C391.3 454.7 422.6 457 452.5 454.7C484.2 452.2 513.2 444.6 529 439.9L531.2 438.7C532.5 437.7 533.3 436.3 533.5 434.7L533.4 432.2C529.7 416.1 521.7 387.2 508 358.5C495.1 331.4 477.4 305.4 454.1 290.1L449.4 287.2C435.6 279.2 420.6 275.4 405.7 275.4C402.9 275.4 400.3 274 398.9 271.6C397.5 269.2 397.3 266.3 398.6 263.8C404.7 251.8 408.1 238.3 408.1 223.9L407.9 218.3C406.3 190.4 392.6 162.1 375.6 137.4C362.1 117.7 346.9 100.8 335 88.8L324.6 78.7C322.7 76.9 320.1 76.4 317.9 77.3zM320.2 352C293.7 352 272.2 330.5 272.2 304C272.2 277.5 293.7 256 320.2 256C346.7 256 368.2 277.5 368.2 304C368.2 330.5 346.7 352 320.2 352zM320.2 272C302.5 272 288.2 286.3 288.2 304C288.2 321.7 302.5 336 320.2 336C337.9 336 352.2 321.7 352.2 304C352.2 286.3 337.9 272 320.2 272zM225.5 176.8C213 175.7 200.2 175.8 187.6 176.8C155.9 179.3 126.9 186.9 111.1 191.6L108.9 192.8C107.6 193.8 106.8 195.2 106.6 196.8L106.7 199.3C110.4 215.4 118.4 244.3 132.1 273C137 283.2 142.5 293.1 148.8 302.5C158.6 291 169.8 280.9 182.8 273.5L189 270.2C199.8 264.9 211.3 261.6 222.7 260.3C218.5 249 216.2 236.8 216.2 224.1C216.2 208 219.8 192.1 225.5 176.9zM452.6 176.8C440.1 175.8 427.3 175.7 414.8 176.8C420.5 192 424.2 207.9 424.2 224L424 230.3C423.4 240.8 421.2 250.8 417.7 260.2C431.3 261.8 444.9 266.1 457.5 273.4L463 276.8C473.6 283.8 483.1 292.6 491.4 302.4C497.7 293.1 503.3 283.1 508.2 273C518.5 251.5 525.5 229.8 530 213.6L533.6 199.4C534.4 196 532.6 192.8 529.2 191.7L515 187.7C498.7 183.4 476.4 178.7 452.7 176.9z"/></svg>