<svg xmlns="http://www.w3.org/2000/svg" viewBox="0 0 640 640"><!--! Font Awesome Pro 7.2.0 by @fontawesome - https://fontawesome.com License - https://fontawesome.com/license (Commercial License) Copyright 2026 Fonticons, Inc. --><path fill="currentColor" d="M544 112C570.5 112 592 133.5 592 160L592 432C592 458.5 570.5 480 544 480L96 480C69.5 480 48 458.5 48 432L48 160C48 133.5 69.5 112 96 112L544 112zM96 96C60.7 96 32 124.7 32 160L32 432C32 467.3 60.7 496 96 496L544 496C579.3 496 608 467.3 608 432L608 160C608 124.7 579.3 96 544 96L96 96zM160 568C160 572.4 163.6 576 168 576L472 576C476.4 576 480 572.4 480 568C480 563.6 476.4 560 472 560L168 560C163.6 560 160 563.6 160 568zM352 192L352 292.3C340.3 279.8 323.1 272 304 272C268.7 272 240 298.9 240 332C240 365.1 268.7 392 304 392C339.3 392 367.9 365.2 368 332.2L368 192L392 192C396.4 192 400 188.4 400 184C400 179.6 396.4 176 392 176L368 176C359.2 176 352 183.2 352 192zM304 288C331.5 288 352 308.7 352 332C352 355.3 331.5 376 304 376C276.5 376 256 355.3 256 332C256 308.7 276.5 288 304 288z"/></svg>