<svg xmlns="http://www.w3.org/2000/svg" viewBox="0 0 640 640"><!--! Font Awesome Pro 7.2.0 by @fontawesome - https://fontawesome.com License - https://fontawesome.com/license (Commercial License) Copyright 2026 Fonticons, Inc. --><path fill="currentColor" d="M128 72C128 76.4 131.6 80 136 80L504 80C508.4 80 512 76.4 512 72C512 67.6 508.4 64 504 64L136 64C131.6 64 128 67.6 128 72zM314.3 210.3C317.4 207.2 322.5 207.2 325.6 210.3L469.6 354.3C471.9 356.6 472.6 360 471.3 363C470 366 467.1 367.9 463.9 367.9L375.9 367.9C371.5 367.9 367.9 371.5 367.9 375.9L367.9 527.9C367.9 545.6 353.6 559.9 335.9 559.9L303.9 559.9C286.2 559.9 271.9 545.6 271.9 527.9L271.9 447.9L271.9 447.9L271.9 375.9C271.9 371.5 268.3 367.9 263.9 367.9L175.9 367.9C172.7 367.9 169.7 366 168.5 363C167.3 360 167.9 356.6 170.2 354.3L314.2 210.3zM256 448L256 448L256 528C256 554.5 277.5 576 304 576L336 576C362.5 576 384 554.5 384 528L384 384L464 384C473.7 384 482.5 378.2 486.2 369.2C489.9 360.2 487.9 349.9 481 343L337 199C327.6 189.6 312.4 189.6 303.1 199L159 343C152.1 349.9 150.1 360.2 153.8 369.2C157.5 378.2 166.3 384 176 384L256 384L256 448z"/></svg>