<svg xmlns="http://www.w3.org/2000/svg" viewBox="0 0 640 640"><!--! Font Awesome Pro 7.2.0 by @fontawesome - https://fontawesome.com License - https://fontawesome.com/license (Commercial License) Copyright 2026 Fonticons, Inc. --><path fill="currentColor" d="M544 112C570.5 112 592 133.5 592 160L592 480C592 506.5 570.5 528 544 528L96 528C69.5 528 48 506.5 48 480L48 160C48 133.5 69.5 112 96 112L544 112zM96 96C60.7 96 32 124.7 32 160L32 480C32 515.3 60.7 544 96 544L544 544C579.3 544 608 515.3 608 480L608 160C608 124.7 579.3 96 544 96L96 96zM176 256C176 229.5 197.5 208 224 208C250.5 208 272 229.5 272 256C272 282.5 250.5 304 224 304C197.5 304 176 282.5 176 256zM288 256C288 220.7 259.3 192 224 192C188.7 192 160 220.7 160 256C160 291.3 188.7 320 224 320C259.3 320 288 291.3 288 256zM128 424C128 393.1 153.1 368 184 368L264 368C294.9 368 320 393.1 320 424C320 428.4 323.6 432 328 432C332.4 432 336 428.4 336 424C336 384.2 303.8 352 264 352L184 352C144.2 352 112 384.2 112 424C112 428.4 115.6 432 120 432C124.4 432 128 428.4 128 424zM376 224C371.6 224 368 227.6 368 232C368 236.4 371.6 240 376 240L520 240C524.4 240 528 236.4 528 232C528 227.6 524.4 224 520 224L376 224zM376 304C371.6 304 368 307.6 368 312C368 316.4 371.6 320 376 320L520 320C524.4 320 528 316.4 528 312C528 307.6 524.4 304 520 304L376 304z"/></svg>