<svg xmlns="http://www.w3.org/2000/svg" viewBox="0 0 640 640"><!--! Font Awesome Pro 7.2.0 by @fontawesome - https://fontawesome.com License - https://fontawesome.com/license (Commercial License) Copyright 2026 Fonticons, Inc. --><path fill="currentColor" d="M128 144C101.5 144 80 165.5 80 192L80 208L560 208L560 192C560 165.5 538.5 144 512 144L128 144zM80 224L80 448C80 474.5 101.5 496 128 496L512 496C538.5 496 560 474.5 560 448L560 224L80 224zM64 192C64 156.7 92.7 128 128 128L512 128C547.3 128 576 156.7 576 192L576 448C576 483.3 547.3 512 512 512L128 512C92.7 512 64 483.3 64 448L64 192zM400 432L461 432C465.4 432 468.5 430.4 470.3 428.5C486.3 410.2 496 386.3 496 360C496 333.7 486.3 309.8 470.3 291.5C468.6 289.5 465.4 288 461 288L400 288L400 312C426.5 312 448 333.5 448 360C448 386.5 426.5 408 400 408L400 432zM400 392C417.7 392 432 377.7 432 360C432 342.3 417.7 328 400 328L400 392zM384 288L256 288L256 432L384 432L384 288zM240 432L240 408C213.5 408 192 386.5 192 360C192 333.5 213.5 312 240 312L240 288L179 288C174.6 288 171.5 289.6 169.7 291.5C153.7 309.8 144 333.7 144 360C144 386.3 153.7 410.2 169.7 428.5C171.4 430.5 174.6 432 179 432L240 432zM208 360C208 377.7 222.3 392 240 392L240 328C222.3 328 208 342.3 208 360zM179 448C170.9 448 163 445.1 157.7 439C139.2 417.9 128 390.3 128 360C128 329.7 139.2 302.1 157.7 281C163 274.9 170.9 272 179 272L461 272C469.1 272 477 274.9 482.3 281C500.8 302.1 512 329.7 512 360C512 390.3 500.8 417.9 482.3 439C477 445.1 469.1 448 461 448L179 448z"/></svg>