<svg xmlns="http://www.w3.org/2000/svg" viewBox="0 0 640 640"><!--! Font Awesome Pro 7.2.0 by @fontawesome - https://fontawesome.com License - https://fontawesome.com/license (Commercial License) Copyright 2026 Fonticons, Inc. --><path fill="currentColor" d="M384 144C410.5 144 432 165.5 432 192L432 448C432 474.5 410.5 496 384 496L128 496C101.5 496 80 474.5 80 448L80 192C80 165.5 101.5 144 128 144L384 144zM128 128C92.7 128 64 156.7 64 192L64 448C64 483.3 92.7 512 128 512L384 512C419.3 512 448 483.3 448 448L448 192C448 156.7 419.3 128 384 128L128 128zM584 464C597.3 464 608 453.3 608 440L608 200C608 186.7 597.3 176 584 176C578.8 176 573.8 177.7 569.6 180.8L496 236L496 256L579.2 193.6C580.6 192.6 582.3 192 584 192C588.4 192 592 195.6 592 200L592 440C592 444.4 588.4 448 584 448C582.3 448 580.6 447.4 579.2 446.4L496 384L496 404L569.6 459.2C573.8 462.3 578.8 464 584 464zM256 240C281 240 301.2 260.2 301.2 285.2C301.2 307.5 286.9 318.9 273.3 325C260.3 330.8 248 343.4 248 360C248 364.4 251.6 368 256 368C260.4 368 264 364.4 264 360C264 351.9 270.4 343.9 279.9 339.6C296.3 332.3 317.3 316.5 317.3 285.2C317.3 251.4 289.9 224 256.1 224C222.3 224 194.9 251.4 194.9 285.2C194.9 289.6 198.5 293.2 202.9 293.2C207.3 293.2 210.9 289.6 210.9 285.2C210.9 260.2 231.1 240 256.1 240zM272 416C272 407.2 264.8 400 256 400C247.2 400 240 407.2 240 416C240 424.8 247.2 432 256 432C264.8 432 272 424.8 272 416z"/></svg>