<svg xmlns="http://www.w3.org/2000/svg" viewBox="0 0 640 640"><!--! Font Awesome Pro 7.2.0 by @fontawesome - https://fontawesome.com License - https://fontawesome.com/license (Commercial License) Copyright 2026 Fonticons, Inc. --><path fill="currentColor" d="M516.3 458.2C420.7 493.6 310.5 483.8 220.5 423.9C201.9 451.8 188 482.4 179.2 514.5C218.8 543.2 267.4 560.1 320 560.1C401.1 560.1 472.8 519.9 516.3 458.3zM530.8 435C543.1 412.6 551.8 388 556.4 361.9C479 380.4 394.8 371 320.1 329.3C283.8 350.9 253.5 378.8 229.7 410.8C321.6 471.8 435.6 478 530.7 435zM558.8 344.8C559.6 336.7 560.1 328.4 560.1 320C560.1 200.1 472.1 100.7 357.2 82.8C427 151 465.7 249.6 454.1 353.8C489.5 356.7 524.9 353.6 558.8 344.7zM330.5 80.2C327 80 323.5 80 320 80C291.2 80 263.6 85.1 238.1 94.4C292.9 152.1 326.8 229.8 328 315.4C363.1 335 400.5 347.1 438.1 352.2C450 245.6 406.6 145.3 330.5 80.3zM222.1 100.8C138.3 138.3 80 222.3 80 320C80 342.6 83.1 364.4 88.9 385.1C119.1 294.2 185.8 215.3 276.9 176.6L277.2 176.5C262.7 148.5 244.1 123 222.1 100.8zM97.9 411.1C112.7 447.3 136.1 479 165.6 503.8C175.7 469.8 191.2 437.5 211.9 408.1C237.6 371.6 271.2 339.8 312 315.5C311.4 271.1 301.5 229 284.2 191L283.2 191.4C189.5 231.1 122.9 315.8 97.9 411.1zM64 320C64 178.6 178.6 64 320 64C461.4 64 576 178.6 576 320C576 461.4 461.4 576 320 576C178.6 576 64 461.4 64 320z"/></svg>