<svg xmlns="http://www.w3.org/2000/svg" viewBox="0 0 640 640"><!--! Font Awesome Pro 7.2.0 by @fontawesome - https://fontawesome.com License - https://fontawesome.com/license (Commercial License) Copyright 2026 Fonticons, Inc. --><path fill="currentColor" d="M288.8 80L416 80C446.9 80 472 105.1 472 136L472 256L197.8 256L234.8 121.2C241.5 96.9 263.6 80 288.8 80zM472 272L472 464.6C444.9 468.5 424 491.8 424 520C424 550.9 449.1 576 480 576C510.9 576 536 550.9 536 520C536 491.8 515.1 468.4 488 464.6L488 136C488 96.2 455.8 64 416 64L288.8 64C256.4 64 228 85.7 219.4 117L96.3 565.9C95.1 570.2 97.6 574.6 101.9 575.7C106.2 576.8 110.6 574.4 111.7 570.1L193.5 272L472 272zM480 560C457.9 560 440 542.1 440 520C440 497.9 457.9 480 480 480C502.1 480 520 497.9 520 520C520 542.1 502.1 560 480 560z"/></svg>