<svg xmlns="http://www.w3.org/2000/svg" viewBox="0 0 640 640"><!--! Font Awesome Pro 7.2.0 by @fontawesome - https://fontawesome.com License - https://fontawesome.com/license (Commercial License) Copyright 2026 Fonticons, Inc. --><path fill="currentColor" d="M272 269.3C272 262.8 268.1 257 262.1 254.5C256.1 252 249.2 253.4 244.7 258L222.1 280.6C213.1 289.6 208 301.8 208 314.5L208 352C208 360.8 200.8 368 192 368C183.2 368 176 360.8 176 352L176 314.5C176 293.3 184.4 272.9 199.4 257.9L234.5 222.8C254.3 203 281.1 191.9 309 191.9C341 191.9 371.3 206.5 391.3 231.5L409.3 254C418.4 265.4 432.2 272 446.8 272L480 272C488.8 272 496 279.2 496 288C496 296.8 488.8 304 480 304L446.8 304C422.5 304 399.5 293 384.3 274L380.5 269.3C376.3 264 369.1 261.9 362.7 264.2C356.3 266.5 352 272.4 352 279.2L352 394.4C352 399.1 354 403.5 357.6 406.5L392.1 436.1C406.8 448.7 416.5 466.3 419.2 485.5L431.8 573.6C433 582.3 427 590.5 418.2 591.7C409.4 592.9 401.3 586.9 400.1 578.1L387.5 490C385.9 478.5 380.1 467.9 371.2 460.3L299.8 399.1C282.1 383.9 271.9 361.7 271.9 338.4L271.9 269.1zM280 88C280 65.9 297.9 48 320 48C342.1 48 360 65.9 360 88C360 110.1 342.1 128 320 128C297.9 128 280 110.1 280 88zM233.4 291.9L256 269.3L256 338.6C256 366.6 268.2 393.3 289.5 411.5L360.9 472.7C366.8 477.8 370.7 484.8 371.8 492.5L384.4 580.6C386.9 598.1 403.1 610.3 420.6 607.8C438.1 605.3 450.3 589.1 447.8 571.6L435.2 483.5C431.9 460.4 420.3 439.4 402.6 424.2L368.1 394.6L368.1 279.4L371.9 284.1C375.6 288.7 379.7 293 384.1 296.8C401.4 311.7 423.6 320.2 446.9 320.2L480.1 320.2C497.8 320.2 512.1 305.9 512.1 288.2C512.1 270.5 497.8 256.2 480.1 256.2L446.9 256.2C437.2 256.2 428 251.8 421.9 244.2L404 221.8C381 193 346.1 176.2 309.2 176.2C277 176.2 246.1 189 223.4 211.8L188.1 246.6C170.1 264.6 160 289 160 314.5L160 352C160 369.7 174.3 384 192 384C209.7 384 224 369.7 224 352L224 314.5C224 306 227.4 297.9 233.4 291.9zM320 144C350.9 144 376 118.9 376 88C376 57.1 350.9 32 320 32C289.1 32 264 57.1 264 88C264 118.9 289.1 144 320 144zM243.3 480.1L176.3 554.6C164.5 567.7 165.5 588 178.7 599.8C191.9 611.6 212.1 610.6 223.9 597.4L295.9 517.4C299.2 513.8 301.5 509.5 302.9 504.8L309.6 481.3L296.2 469.8L287.5 500.4C286.8 502.7 285.6 504.9 284 506.7L212 586.7C206.1 593.3 196 593.8 189.4 587.9C182.8 582 182.3 571.9 188.2 565.3L255.2 490.8L257.7 488.1L258.7 484.5L269.4 446.9L256 435.4L243.2 480.1z"/></svg>