<svg xmlns="http://www.w3.org/2000/svg" viewBox="0 0 640 640"><!--! Font Awesome Pro 7.2.0 by @fontawesome - https://fontawesome.com License - https://fontawesome.com/license (Commercial License) Copyright 2026 Fonticons, Inc. --><path fill="currentColor" d="M480 80C506.5 80 528 101.5 528 128L528 512C528 538.5 506.5 560 480 560L160 560C133.5 560 112 538.5 112 512L112 128C112 101.5 133.5 80 160 80L480 80zM160 64C124.7 64 96 92.7 96 128L96 512C96 547.3 124.7 576 160 576L480 576C515.3 576 544 547.3 544 512L544 128C544 92.7 515.3 64 480 64L160 64zM208 160C208 151.2 200.8 144 192 144C183.2 144 176 151.2 176 160C176 168.8 183.2 176 192 176C200.8 176 208 168.8 208 160zM256 176C264.8 176 272 168.8 272 160C272 151.2 264.8 144 256 144C247.2 144 240 151.2 240 160C240 168.8 247.2 176 256 176zM447.6 378.3C433.3 381.7 417.2 384 400 384C336 384 304 320 240 320C226.6 320 212.6 322.2 199.3 325.4C216.9 275.7 264.3 240 320 240C390.7 240 448 297.3 448 368C448 371.5 447.9 374.9 447.6 378.3zM445.1 395.3C432.6 452.9 381.3 496.1 320 496.1C249.3 496.1 192 438.8 192 368.1C192 359.6 192.8 351.3 194.4 343.2C209.4 339 225.3 336.1 240 336.1C266.5 336.1 286.6 349.1 311.1 365.4L312.3 366.2C335.5 381.7 363.1 400.1 399.9 400.1C416.1 400.1 431.2 398.2 445 395.3zM320 512C399.5 512 464 447.5 464 368C464 288.5 399.5 224 320 224C240.5 224 176 288.5 176 368C176 447.5 240.5 512 320 512z"/></svg>