<svg xmlns="http://www.w3.org/2000/svg" viewBox="0 0 640 640"><!--! Font Awesome Pro 7.2.0 by @fontawesome - https://fontawesome.com License - https://fontawesome.com/license (Commercial License) Copyright 2026 Fonticons, Inc. --><path opacity=".4" fill="currentColor" d="M144 352C144 449.2 222.8 528 320 528C417.2 528 496 449.2 496 352C496 254.8 417.2 176 320 176C222.8 176 144 254.8 144 352zM296 224L344 224L344 384L296 384L296 224zM296 424L344 424L344 472L296 472L296 424z"/><path fill="currentColor" d="M320 128C443.7 128 544 228.3 544 352C544 405.2 525.5 454.1 494.5 492.5C527.1 525.1 546.9 544.9 554 552L520 585.9C512.9 578.8 493.1 559 460.5 526.4C422.1 557.4 373.2 575.9 320 575.9C266.8 575.9 217.9 557.4 179.5 526.4C146.9 559.1 127.1 578.9 120 585.9L86.1 552C93.2 544.9 113 525.1 145.6 492.5C114.6 454.1 96.1 405.2 96.1 352C96.1 228.3 196.4 128 320.1 128zM320 176C222.8 176 144 254.8 144 352C144 449.2 222.8 528 320 528C417.2 528 496 449.2 496 352C496 254.8 417.2 176 320 176zM344 472L296 472L296 424L344 424L344 472zM344 384L296 384L296 224L344 224L344 384zM159.2 64C187.2 64 212.4 76.1 229.8 95.3C213 101.2 196.8 108.7 181.7 117.7C175 114.1 167.3 112 159.2 112C133.1 112 112 133.2 112 159.2C112 164.3 112.8 169.3 114.3 173.9C102.7 187.2 92.5 201.7 83.6 217.2C71.3 201.1 63.9 181 63.9 159.2C63.9 106.6 106.5 64 159.1 64zM480.7 64C533.3 64 576 106.6 576 159.2C576 181 568.7 201.1 556.3 217.2C547.5 201.8 537.2 187.3 525.6 173.9C527.1 169.3 527.9 164.3 527.9 159.2C527.9 133.1 506.7 112 480.6 112C472.5 112 464.8 114.1 458.1 117.7C443 108.7 426.9 101.2 410 95.3C427.4 76.1 452.6 64 480.6 64z"/></svg>