<svg xmlns="http://www.w3.org/2000/svg" viewBox="0 0 640 640"><!--! Font Awesome Pro 7.2.0 by @fontawesome - https://fontawesome.com License - https://fontawesome.com/license (Commercial License) Copyright 2026 Fonticons, Inc. --><path opacity=".4" fill="currentColor" d="M144 160.4C160 159.6 176.1 160 192 161.6L192 209.9C221 213.3 248.6 221.3 274 233L299.6 192.1C314 199.1 327.9 207.2 341.4 216.4C332.7 229.8 324.2 243.4 315.7 257C341.9 275.3 364.8 298.2 383.1 324.4L423.8 298.9C432.9 312.1 440.9 326 448 340.4L407 366C418.8 391.5 426.7 419.1 430.1 448L478.4 448C480 463.9 480.4 480 479.6 496L144 496L144 160.4z"/><path fill="currentColor" d="M144 120L144 96L96 96L96 544L544 544L544 496L144 496L144 120zM274 233L299.6 192C266.6 175.9 230.3 165.4 192 161.6L192 209.9C221 213.3 248.6 221.3 274 233zM430.1 448L478.4 448C474.6 409.7 464.1 373.4 448 340.3L407 366C418.8 391.5 426.7 419.1 430.1 448zM423.8 298.8C401.5 266.4 373.5 238.4 341.1 216.1L315.6 256.9C341.8 275.2 364.7 298.1 383 324.3L423.8 298.8z"/></svg>