<svg xmlns="http://www.w3.org/2000/svg" viewBox="0 0 640 640"><!--! Font Awesome Pro 7.2.0 by @fontawesome - https://fontawesome.com License - https://fontawesome.com/license (Commercial License) Copyright 2026 Fonticons, Inc. --><path opacity=".4" fill="currentColor" d="M159.6 496L471.7 496C471 479.7 469.1 463.7 466.1 448L417.1 448C411.6 422.9 402.9 399 391.4 376.8L432.3 351.4C424.8 337.2 416.3 323.6 406.9 310.6L366.1 336C353.1 318.5 338.2 302.4 321.8 288.2L344.5 244.6C332 234.5 318.7 225.2 304.8 216.8L159.6 496z"/><path fill="currentColor" d="M349.3 131.1L360.4 109.8L317.8 87.7L306.7 109L98.7 509L80.5 544.1L544 544.1L544 496.1L159.5 496.1L349.3 131.2zM432.3 351.4L391.4 376.8C402.8 399.1 411.6 422.9 417.1 448L466.1 448C459.7 413.7 448.1 381.3 432.3 351.4zM366.1 336L407 310.6C389.1 285.9 368.1 263.7 344.5 244.5L321.8 288.1C338.3 302.4 353.1 318.4 366.1 335.9z"/></svg>