<svg xmlns="http://www.w3.org/2000/svg" viewBox="0 0 640 640"><!--! Font Awesome Pro 7.2.0 by @fontawesome - https://fontawesome.com License - https://fontawesome.com/license (Commercial License) Copyright 2026 Fonticons, Inc. --><path opacity=".4" fill="currentColor" d="M288.7 262.8C294.8 268.9 300.3 275.9 305 284L323.7 316.4L358.9 296.1L315 270.7L335 236.1C356.4 199.1 395.1 184.1 432 184.1L486 184.1C557.8 184.1 616 242.3 616 314.1C616 327.5 613.9 340.9 609.8 353.7L550.1 540.3L473.9 515.9L486.1 477.9L419.6 541.1L364.5 483.1L405.6 444.1L348.1 462.2L324 385.9L351.4 377.3C345.3 371.2 339.8 364.2 335.1 356.1L316.4 323.7L281.2 344L325.1 369.4L305.1 404C283.7 441 245 456 208.1 456L154.1 456C82.3 456 24.1 397.8 24.1 326C24.1 312.6 26.2 299.2 30.3 286.4L90 99.8L166.2 124.2L154 162.2L220.5 99L275.6 157L234.5 196L292 177.9L316.1 254.2L288.7 262.8zM208 376L208 376C224.4 376 232.3 370 235.7 364L247.3 344L235.7 324C232.2 318 224.4 312 208 312C190.3 312 176 326.3 176 344C176 361.7 190.3 376 208 376zM432 264L432 264C415.6 264 407.7 270 404.3 276L392.7 296L404.3 316C407.8 322 415.6 328 432 328C449.7 328 464 313.7 464 296C464 278.3 449.7 264 432 264z"/><path fill="currentColor" d="M221.3 65.1C225.9 69.9 249.8 95.1 292.9 140.5L301.6 149.7L307.6 147.8C311.7 160.9 317.9 180.5 326.2 206.7C354 173.1 394.9 160 432 160L486 160C571 160 640 228.9 640 314C640 329.9 637.5 345.8 632.7 360.9L573 547.5L565.7 570.4C559.4 568.4 526.3 557.8 466.6 538.7L459.3 536.4C442.8 552 429.3 564.9 418.7 575C414.1 570.2 390.2 545 347.1 499.6L338.4 490.4L332.4 492.3C328.3 479.2 322.1 459.6 313.8 433.4C286 467 245.1 480.1 208 480.1L154 480.1C69 480.1 0 411.2 0 326.1C0 310.2 2.5 294.3 7.3 279.2L67 92.5L74.4 69.6C80.7 71.6 113.8 82.2 173.5 101.3L180.8 103.6C197.3 88 210.8 75.1 221.4 65zM135.9 139.7L105.4 130L53 293.7C49.7 304.1 48 315 48 326C48 384.5 95.4 432 154 432L208 432C238.8 432 268.2 419.7 284.2 392L292.2 378.2L269.1 364.8L264.5 362.2L256.5 376C247.8 391.1 230.9 400 208 400L207.9 400C177 400 152 374.9 152 344C152 313.1 177.1 288 208 288C230.9 288 247.8 297 256.5 312L264.5 325.9L269.1 323.3L292.2 309.9L284.2 296.1C280.6 289.9 276.4 284.5 271.8 280L243.5 252L281.5 240L286 238.6L276.4 208.1C264.1 212 219.5 226.1 142.7 250.3C201.6 194.4 234.6 163 241.7 156.2L219.7 133C190 161.1 151 198.1 102.5 244.1L131.1 154.8L135.9 139.7zM504.1 500.3L534.6 510L587 346.2C590.3 335.8 592 324.9 592 313.9C592 255.4 544.6 207.9 486 207.9L432 207.9C401.2 207.9 371.8 220.2 355.8 247.9L347.8 261.7L370.9 275.1L375.5 277.7L383.5 263.9C392.2 248.8 409.1 239.9 432 239.9L432.1 239.9C463 239.9 488 265 488 295.9C488 326.8 462.9 351.9 432 351.9C409.1 351.9 392.2 342.9 383.5 327.9L375.5 314.1L370.9 316.7L347.8 330.1L355.8 343.9C359.4 350.1 363.6 355.5 368.2 360L396.5 388L358.5 400L354 401.4L363.6 431.9C375.9 428 420.5 413.9 497.3 389.7C438.4 445.6 405.4 477 398.3 483.8L420.3 507C450 479 489 441.9 537.5 395.9L508.9 485.2L504.1 500.3zM224 344C224 335.2 216.8 328 208 328C199.2 328 192 335.2 192 344C192 352.8 199.2 360 208 360C216.8 360 224 352.8 224 344zM432 312C440.8 312 448 304.8 448 296C448 287.2 440.8 280 432 280C423.2 280 416 287.2 416 296C416 304.8 423.2 312 432 312z"/></svg>