<svg xmlns="http://www.w3.org/2000/svg" viewBox="0 0 640 640"><!--! Font Awesome Pro 7.2.0 by @fontawesome - https://fontawesome.com License - https://fontawesome.com/license (Commercial License) Copyright 2026 Fonticons, Inc. --><path opacity=".4" fill="currentColor" d="M112 176L112 464L528 464L528 176L112 176zM160 288C160 252.7 188.7 224 224 224L240 224C275.3 224 304 252.7 304 288L304 416L256 416L256 368L208 368L208 416L160 416L160 288zM208 288L208 320L256 320L256 288C256 279.2 248.8 272 240 272L224 272C215.2 272 208 279.2 208 288zM336 224L408 224C447.8 224 480 256.2 480 296L480 344C480 383.8 447.8 416 408 416L336 416L336 224zM384 272L384 368L408 368C421.3 368 432 357.3 432 344L432 296C432 282.7 421.3 272 408 272L384 272z"/><path fill="currentColor" d="M528 176L528 464L112 464L112 176L528 176zM112 128L64 128L64 512L576 512L576 128L112 128zM160 288L160 416L208 416L208 368L256 368L256 416L304 416L304 288C304 252.7 275.3 224 240 224L224 224C188.7 224 160 252.7 160 288zM208 320L208 288C208 279.2 215.2 272 224 272L240 272C248.8 272 256 279.2 256 288L256 320L208 320zM360 224L336 224L336 416L408 416C447.8 416 480 383.8 480 344L480 296C480 256.2 447.8 224 408 224L360 224zM408 368L384 368L384 272L408 272C421.3 272 432 282.7 432 296L432 344C432 357.3 421.3 368 408 368z"/></svg>