<svg xmlns="http://www.w3.org/2000/svg" viewBox="0 0 640 640"><!--! Font Awesome Pro 7.2.0 by @fontawesome - https://fontawesome.com License - https://fontawesome.com/license (Commercial License) Copyright 2026 Fonticons, Inc. --><path opacity=".4" fill="currentColor" d="M176 112L464 112L464 528L176 528L176 112zM189.1 300.2C194.7 307.7 206.5 323.5 224.6 347.6L228 352.1L252 352.1L255.4 347.6C293.5 296.8 313.3 270.4 314.9 268.2L284.2 245.2C280 250.7 265.3 270.4 240 304.1L219.8 277.2L189.1 300.2zM208 160L208 224L272 224L272 160L208 160zM208 416L208 480L272 480L272 416L208 416zM304 168L304 216L432 216L432 168L304 168zM304 424L304 472L432 472L432 424L304 424zM336 296L336 344L432 344L432 296L336 296z"/><path fill="currentColor" d="M176 112L176 528L464 528L464 112L176 112zM128 64L512 64L512 576L128 576L128 64zM272 160L272 224L208 224L208 160L272 160zM208 416L272 416L272 480L208 480L208 416zM328 168L432 168L432 216L304 216L304 168L328 168zM360 296L432 296L432 344L336 344L336 296L360 296zM328 424L432 424L432 472L304 472L304 424L328 424zM314.9 268.2C313.3 270.3 293.5 296.8 255.4 347.6L252 352.1L228 352.1L224.6 347.6C206.5 323.5 194.7 307.7 189.1 300.2L219.8 277.2L240 304.1C265.3 270.4 280 250.8 284.2 245.2L314.9 268.2z"/></svg>