<svg xmlns="http://www.w3.org/2000/svg" viewBox="0 0 640 640"><!--! Font Awesome Pro 7.2.0 by @fontawesome - https://fontawesome.com License - https://fontawesome.com/license (Commercial License) Copyright 2026 Fonticons, Inc. --><path opacity=".4" fill="currentColor" d="M112 320C112 434.9 205.1 528 320 528C368.8 528 413.7 511.2 449.1 483.1L156.9 190.9C128.8 226.3 112 271.2 112 320zM172.8 331.6C188.3 329.4 204.9 327 222.6 324.5L346.1 448L287.9 448L263.1 423.2C242.9 433.3 226.3 441.6 213.1 448.2L191.6 405.3C205 398.6 221.1 390.5 239.8 381.2L239.8 370.6C213.3 374.4 193.1 377.3 179.4 379.2L172.6 331.7zM190.8 156.9L256.9 223L287.9 192L351.9 192L376.7 216.8C396.9 206.7 413.5 198.4 426.7 191.8L448.2 234.7C434.8 241.4 418.7 249.5 400 258.8L400 269.4C426.5 265.6 446.7 262.7 460.4 260.8L467.2 308.3C454.6 310.1 432.2 313.3 400 317.9L400 322C432.2 326.6 454.6 329.8 467.2 331.6L460.4 379.1C445.8 377 427.4 374.4 405.3 371.2L483.2 449.1C511.3 413.6 528.1 368.8 528.1 320C528.1 205.1 435 112 320.1 112C271.3 112 226.4 128.8 191 156.9z"/><path fill="currentColor" d="M320 528C205.1 528 112 434.9 112 320C112 271.2 128.8 226.3 156.9 190.9L449.1 483.1C413.7 511.2 368.8 528 320 528zM405.2 371.3C427.4 374.5 445.8 377.1 460.3 379.2L467.1 331.7C454.5 329.9 432.2 326.7 399.9 322.1L399.9 318C432.1 313.4 454.5 310.2 467.1 308.4L460.3 260.9C446.6 262.9 426.5 265.7 399.9 269.5L399.9 258.9C418.6 249.6 434.7 241.5 448.1 234.8L426.6 191.9C413.5 198.5 396.8 206.8 376.6 216.9L351.8 192.1L287.8 192.1L256.8 223.1L190.7 157C226.2 128.9 271 112.1 319.8 112.1C434.7 112.1 527.8 205.2 527.8 320.1C527.8 368.9 511 413.8 482.9 449.2L405 371.3zM320 576C461.4 576 576 461.4 576 320C576 178.6 461.4 64 320 64C178.6 64 64 178.6 64 320C64 461.4 178.6 576 320 576zM222.7 324.5C204.9 327 188.3 329.4 172.9 331.6L179.7 379.1C193.4 377.1 213.5 374.3 240.1 370.5L240.1 381.1C221.4 390.5 205.3 398.5 191.9 405.2L213.4 448.1C226.5 441.5 243.2 433.2 263.4 423.1L288.2 447.9L346.4 447.9L222.9 324.4z"/></svg>