<svg xmlns="http://www.w3.org/2000/svg" viewBox="0 0 640 640"><!--! Font Awesome Pro 7.2.0 by @fontawesome - https://fontawesome.com License - https://fontawesome.com/license (Commercial License) Copyright 2026 Fonticons, Inc. --><path opacity=".4" fill="currentColor" d="M112.9 339.7C122.2 438.8 201.1 517.7 300.2 527C301 522.5 301.9 518.1 302.9 513.7L308.2 490.3L355 501L349.7 524.4L349.4 525.9C440.7 512.9 512.9 440.8 525.8 349.5C525.3 349.6 524.8 349.7 524.3 349.8L500.9 355.1L490.2 308.3L513.6 303L526.9 300.3C517.6 201.1 438.7 122.3 339.5 113C338.7 117.5 337.9 122 336.9 126.4L331.6 149.8L284.8 139.1L290.1 115.7L290.4 114.1C199.1 127.1 127 199.2 114 290.5C114.5 290.4 115 290.3 115.6 290.2L139 284.9L149.7 331.7L126.3 337L112.9 339.7zM167.1 273.3L187.4 260.5C216.9 241.9 241.9 216.9 260.4 187.5L273.2 167.2L313.8 192.8L301 213.1C278.6 248.7 248.5 278.8 212.9 301.2L192.6 314L167 273.4zM326.1 447.3L338.9 427C361.3 391.4 391.4 361.3 427 338.9L447.3 326.1L472.9 366.7L452.6 379.5C423.1 398.1 398.1 423.1 379.6 452.5L366.8 472.8L326.2 447.2z"/><path fill="currentColor" d="M320 576C178.6 576 64 461.4 64 320C64 178.6 178.6 64 320 64C461.4 64 576 178.6 576 320C576 461.4 461.4 576 320 576zM337 126.3L331.7 149.7L284.9 139L290.2 115.6L290.5 114C199.2 127 127.1 199.1 114.1 290.4C114.6 290.3 115.1 290.2 115.7 290.1L139.1 284.8L149.8 331.6L126.4 336.9L113 339.6C122.3 438.7 201.2 517.6 300.3 526.9C301.1 522.4 302 518 303 513.6L308.3 490.2L355.1 500.9L349.8 524.3L349.5 525.8C440.8 512.8 513 440.7 525.9 349.4C525.4 349.5 524.9 349.6 524.4 349.7L501 355L490.3 308.2L513.7 302.9L527 300.2C517.7 201 438.8 122.2 339.6 112.9C338.8 117.4 338 121.9 337 126.3zM472.9 366.7L452.6 379.5C423.1 398.1 398.1 423.1 379.6 452.5L366.8 472.8L326.2 447.2L339 426.9C361.4 391.3 391.5 361.2 427.1 338.8L447.4 326L473 366.6zM313.9 192.7L301.1 213C278.7 248.6 248.6 278.7 213 301.1L192.7 313.9L167.1 273.3L187.4 260.5C216.9 241.9 241.9 216.9 260.4 187.5L273.2 167.2L313.8 192.8z"/></svg>