<svg xmlns="http://www.w3.org/2000/svg" viewBox="0 0 640 640"><!--! Font Awesome Pro 7.2.0 by @fontawesome - https://fontawesome.com License - https://fontawesome.com/license (Commercial License) Copyright 2026 Fonticons, Inc. --><path opacity=".4" fill="currentColor" d="M112 224L528 224L528 464L112 464L112 224zM152 344C152 383.8 184.2 416 224 416C263.8 416 296 383.8 296 344C296 304.2 263.8 272 224 272C184.2 272 152 304.2 152 344zM336 272L336 416L480 416L480 272L336 272z"/><path fill="currentColor" d="M112 224L112 464L528 464L528 224L112 224zM64 128L576 128L576 512L64 512L64 128zM384 320L384 368L432 368L432 320L384 320zM336 272L480 272L480 416L336 416L336 272zM224 368C237.3 368 248 357.3 248 344C248 330.7 237.3 320 224 320C210.7 320 200 330.7 200 344C200 357.3 210.7 368 224 368zM224 272C263.8 272 296 304.2 296 344C296 383.8 263.8 416 224 416C184.2 416 152 383.8 152 344C152 304.2 184.2 272 224 272z"/></svg>