<svg xmlns="http://www.w3.org/2000/svg" viewBox="0 0 640 640"><!--! Font Awesome Pro 7.2.0 by @fontawesome - https://fontawesome.com License - https://fontawesome.com/license (Commercial License) Copyright 2026 Fonticons, Inc. --><path opacity=".4" fill="currentColor" d="M112.8 272C120.9 361.7 196.2 432 288 432C385.2 432 464 353.2 464 256L464 176C464 140.7 435.3 112 400 112C364.7 112 336 140.7 336 176L336 272L112.8 272zM424 184C424 197.3 413.3 208 400 208C386.7 208 376 197.3 376 184C376 170.7 386.7 160 400 160C413.3 160 424 170.7 424 184z"/><path fill="currentColor" d="M400 64C451.7 64 495.2 99.1 508.1 146.7L576 192L512 234.7L512 256L511.7 267.5C507.2 356.4 450.8 431.6 372.3 463.5L431.9 576L377.6 576L325.1 476.8C313 478.8 300.7 480 288 480C287 480 286 479.9 285 479.9L335.9 576L281.6 576L226.1 471.3C132.5 444.4 64 358.2 64 256L64 224L288 224L288 176C288 114.1 338.1 64 400 64zM400 112C364.7 112 336 140.7 336 176L336 272L112.8 272C120.9 361.7 196.2 432 288 432C385.2 432 464 353.2 464 256L464 176C464 140.7 435.3 112 400 112zM400 208C386.7 208 376 197.3 376 184C376 170.7 386.7 160 400 160C413.3 160 424 170.7 424 184C424 197.3 413.3 208 400 208z"/></svg>