<svg xmlns="http://www.w3.org/2000/svg" viewBox="0 0 640 640"><!--! Font Awesome Pro 7.2.0 by @fontawesome - https://fontawesome.com License - https://fontawesome.com/license (Commercial License) Copyright 2026 Fonticons, Inc. --><path opacity=".4" fill="currentColor" d="M128 152L128 200L152 200L152 248L128 248L128 296L512 296L512 248L488 248L488 200L512 200L512 152L488 152L488 128L440 128L440 152L392 152L392 128L344 128L344 152L296 152L296 128L248 128L248 152L200 152L200 128L152 128L152 152L128 152zM128 344L128 392L152 392L152 440L128 440L128 488L152 488L152 512L200 512L200 488L248 488L248 512L296 512L296 488L344 488L344 512L392 512L392 488L440 488L440 512L488 512L488 488L512 488L512 440L488 440L488 392L512 392L512 344L128 344zM296 200L344 200L344 248L296 248L296 200zM296 392L344 392L344 440L296 440L296 392z"/><path fill="currentColor" d="M104 152L104 104L152 104L152 152L104 152zM104 296L536 296L536 344L104 344L104 296zM488 104L536 104L536 152L488 152L488 104zM392 152L392 104L440 104L440 152L392 152zM392 488L440 488L440 536L392 536L392 488zM200 152L200 104L248 104L248 152L200 152zM296 104L344 104L344 152L296 152L296 104zM296 248L296 200L344 200L344 248L296 248zM200 488L248 488L248 536L200 536L200 488zM296 536L296 488L344 488L344 536L296 536zM296 392L344 392L344 440L296 440L296 392zM104 248L104 200L152 200L152 248L104 248zM488 200L536 200L536 248L488 248L488 200zM104 440L104 392L152 392L152 440L104 440zM488 392L536 392L536 440L488 440L488 392zM104 536L104 488L152 488L152 536L104 536zM488 488L536 488L536 536L488 536L488 488z"/></svg>