<svg xmlns="http://www.w3.org/2000/svg" viewBox="0 0 640 640"><!--! Font Awesome Pro 7.2.0 by @fontawesome - https://fontawesome.com License - https://fontawesome.com/license (Commercial License) Copyright 2026 Fonticons, Inc. --><path opacity=".4" fill="currentColor" d="M112 176L112 208L528 208L528 176L112 176zM112 256L112 309.6C139.4 316.1 164.6 327.9 186.6 344C200.6 319.1 208 291 208 262.3L208 256L112 256zM222.5 377.4C243.4 402 258.7 431.6 266.4 464L373.5 464C381.2 431.5 396.5 402 417.4 377.4C395.6 343 383.9 303.1 383.9 262.4L383.9 256.1L255.9 256.1L255.9 262.4C255.9 303.2 244.3 343.1 222.4 377.4zM432 256L432 262.3C432 291 439.4 319.1 453.4 344C475.4 327.9 500.7 316.1 528 309.6L528 256L432 256z"/><path fill="currentColor" d="M64 128L64 352C152.4 352 224 423.6 224 512L416 512C416 423.6 487.6 352 576 352L576 128L64 128zM266.4 464C258.7 431.5 243.4 402 222.5 377.4C244.3 343 256 303.1 256 262.4L256 256.1L384 256.1L384 262.4C384 303.2 395.6 343.1 417.5 377.4C396.6 402 381.3 431.6 373.6 464L266.5 464zM453.4 344C439.4 319.1 432 291 432 262.3L432 256L528 256L528 309.6C500.6 316.1 475.4 327.9 453.4 344zM432 208L112 208L112 176L528 176L528 208L432 208zM208 262.3C208 291 200.6 319.1 186.6 344C164.6 327.9 139.3 316.1 112 309.6L112 256L208 256L208 262.3z"/></svg>