<svg xmlns="http://www.w3.org/2000/svg" viewBox="0 0 640 640"><!--! Font Awesome Pro 7.2.0 by @fontawesome - https://fontawesome.com License - https://fontawesome.com/license (Commercial License) Copyright 2026 Fonticons, Inc. --><path opacity=".4" fill="currentColor" d="M112 320C112 205.1 205.1 112 320 112C336.6 112 352.8 113.9 368.3 117.6C368.4 118.3 368.6 119.1 368.7 119.9L375.8 162.4C369.7 168.5 363.5 174.7 357.4 180.8C345.5 177.6 333 175.9 320.1 175.9C240.6 175.9 176.1 240.4 176.1 319.9C176.1 399.4 240.6 463.9 320.1 463.9C399.6 463.9 464.1 399.4 464.1 319.9C464.1 307 462.4 294.5 459.2 282.6C465.3 276.5 471.5 270.3 477.6 264.2L520.1 271.3L522.4 271.7C526.1 287.2 528 303.4 528 320C528 434.9 434.9 528 320 528C205.1 528 112 434.9 112 320z"/><path fill="currentColor" d="M416 112L496 32L528 112L608 144L528 224L461.1 212.8L329 345L295 311L427.2 178.9L416 112zM320 64C343.3 64 365.8 67.1 387.2 72.9C385.8 74.3 378.3 81.8 364.6 95.5L368.3 117.6C352.8 113.9 336.6 112 320 112C205.1 112 112 205.1 112 320C112 434.9 205.1 528 320 528C434.9 528 528 434.9 528 320C528 303.4 526.1 287.2 522.4 271.7L544.5 275.4C558.2 261.7 565.7 254.2 567.1 252.8C572.9 274.2 576 296.7 576 320C576 461.4 461.4 576 320 576C178.6 576 64 461.4 64 320C64 178.6 178.6 64 320 64zM320 176C332.9 176 345.4 177.7 357.3 180.9L314 224.2C263.8 227.3 224 269 224 320C224 373 267 416 320 416C371 416 412.7 376.2 415.8 326L459.1 282.7C462.3 294.6 464 307.1 464 320C464 399.5 399.5 464 320 464C240.5 464 176 399.5 176 320C176 240.5 240.5 176 320 176z"/></svg>