<svg xmlns="http://www.w3.org/2000/svg" viewBox="0 0 640 640"><!--! Font Awesome Pro 7.2.0 by @fontawesome - https://fontawesome.com License - https://fontawesome.com/license (Commercial License) Copyright 2026 Fonticons, Inc. --><path opacity=".4" fill="currentColor" d="M144 176L144 496L496 496L496 176L144 176zM198.2 368.1L232.1 334.2L285.1 387.2L390.7 242L404.8 222.6L443.6 250.8L429.5 270.2L307.4 438.1L290.9 460.8L198.2 368.1z"/><path fill="currentColor" d="M240 128L400 128L400 64L448 64L448 128L544 128L544 544L96 544L96 128L192 128L192 64L240 64L240 128zM144 496L496 496L496 176L144 176L144 496zM443.7 250.8L429.6 270.2L307.5 438.1L291 460.8L198.3 368.1L232.2 334.2L285.2 387.2L390.8 242L404.9 222.6L443.7 250.8z"/></svg>