<svg xmlns="http://www.w3.org/2000/svg" viewBox="0 0 640 640"><!--! Font Awesome Pro 7.2.0 by @fontawesome - https://fontawesome.com License - https://fontawesome.com/license (Commercial License) Copyright 2026 Fonticons, Inc. --><path opacity=".4" fill="currentColor" d="M144 176L144 496L496 496L496 176L144 176zM235.1 285.1L269 251.2C277.5 259.7 294.5 276.7 319.9 302.1C345.4 276.6 362.3 259.7 370.8 251.2L404.7 285.1C396.2 293.6 379.2 310.6 353.8 336C379.3 361.5 396.2 378.4 404.7 386.9L370.8 420.8C362.3 412.3 345.3 395.3 319.9 369.9C294.4 395.4 277.5 412.3 269 420.8L235.1 386.9C243.6 378.4 260.6 361.4 286 336C260.5 310.5 243.6 293.6 235.1 285.1z"/><path fill="currentColor" d="M240 64L240 128L400 128L400 64L448 64L448 128L544 128L544 544L96 544L96 128L192 128L192 64L240 64zM240 176L144 176L144 496L496 496L496 176L240 176zM404.9 285.1C396.4 293.6 379.4 310.6 354 336C379.5 361.5 396.4 378.4 404.9 386.9L371 420.8C362.5 412.3 345.5 395.3 320.1 369.9C294.6 395.4 277.7 412.3 269.2 420.8L235.3 386.9C243.8 378.4 260.8 361.4 286.2 336C260.7 310.5 243.8 293.6 235.3 285.1L269.2 251.2C277.7 259.7 294.7 276.7 320.1 302.1C345.6 276.6 362.5 259.7 371 251.2L404.9 285.1z"/></svg>