<svg xmlns="http://www.w3.org/2000/svg" viewBox="0 0 640 640"><!--! Font Awesome Pro 7.2.0 by @fontawesome - https://fontawesome.com License - https://fontawesome.com/license (Commercial License) Copyright 2026 Fonticons, Inc. --><path opacity=".4" fill="currentColor" d="M112 320L112 576L528 576L528 320C528 205.1 434.9 112 320 112C205.1 112 112 205.1 112 320zM160 409.1L163.7 403.3L218.8 315.3L225.9 304L414.3 304L421.4 315.3L476.5 403.3L480.2 409.1L480.2 574L432.2 574L432.2 528L208.2 528L208.2 574L160.2 574L160.2 409.1z"/><path fill="currentColor" d="M112 320C112 205.1 205.1 112 320 112C434.9 112 528 205.1 528 320L528 576L576 576L576 320C576 178.6 461.4 64 320 64C178.6 64 64 178.6 64 320L64 576L112 576L112 320zM239.1 304L225.8 304L218.7 315.3L163.6 403.3L159.9 409.1L159.9 574L207.9 574L207.9 528L431.9 528L431.9 574L479.9 574L479.9 409.1L476.2 403.3L421.1 315.3L414 304L238.9 304zM432 480L208 480L208 448L432 448L432 480zM387.6 352L417.7 400L222.4 400L252.5 352L387.7 352z"/></svg>