<svg xmlns="http://www.w3.org/2000/svg" viewBox="0 0 640 640"><!--! Font Awesome Pro 7.2.0 by @fontawesome - https://fontawesome.com License - https://fontawesome.com/license (Commercial License) Copyright 2026 Fonticons, Inc. --><path opacity=".4" fill="currentColor" d="M528 320C528 434.9 434.9 528 320 528C205.1 528 112 434.9 112 320C112 205.1 205.1 112 320 112C434.9 112 528 205.1 528 320zM254.1 216L271.1 233L358.1 320L271.1 407L254.1 424L288 457.9L305 440.9L409 336.9L426 319.9L409 302.9L305 198.9L288 181.9L254.1 215.8z"/><path fill="currentColor" d="M528 320C528 434.9 434.9 528 320 528C205.1 528 112 434.9 112 320C112 205.1 205.1 112 320 112C434.9 112 528 205.1 528 320zM64 320C64 461.4 178.6 576 320 576C461.4 576 576 461.4 576 320C576 178.6 461.4 64 320 64C178.6 64 64 178.6 64 320zM409 337L426 320L409 303L305 199L288 182L254.1 215.9L271.1 232.9L358.1 319.9L271.1 406.9L254.1 423.9L288 457.8L305 440.8L409 336.8z"/></svg>