<svg xmlns="http://www.w3.org/2000/svg" viewBox="0 0 640 640"><!--! Font Awesome Pro 7.2.0 by @fontawesome - https://fontawesome.com License - https://fontawesome.com/license (Commercial License) Copyright 2026 Fonticons, Inc. --><path opacity=".4" fill="currentColor" d="M112 320C112 434.9 205.1 528 320 528C434.9 528 528 434.9 528 320C528 205.1 434.9 112 320 112C205.1 112 112 205.1 112 320zM176 208L296 208L296 256L224 256L224 299.2L288 299.2L288 347.2L224 347.2L224 384L297.6 384L297.6 432L176 432L176 208zM324.3 432C325.8 428.2 349.8 369.6 396.3 256L328 256L328 208L467.8 208C466.3 211.8 442.3 270.4 395.8 384L464.1 384L464.1 432L324.4 432z"/><path fill="currentColor" d="M320 112C434.9 112 528 205.1 528 320C528 434.9 434.9 528 320 528C205.1 528 112 434.9 112 320C112 205.1 205.1 112 320 112zM320 576C461.4 576 576 461.4 576 320C576 178.6 461.4 64 320 64C178.6 64 64 178.6 64 320C64 461.4 178.6 576 320 576zM200 208L176 208L176 432L297.6 432L297.6 384L224 384L224 347.2L288 347.2L288 299.2L224 299.2L224 256L296 256L296 208L200 208zM352 208L328 208L328 256L396.3 256C349.8 369.6 325.8 428.2 324.3 432L464 432L464 384L395.7 384C442.2 270.4 466.2 211.8 467.7 208L352 208z"/></svg>