<svg xmlns="http://www.w3.org/2000/svg" viewBox="0 0 640 640"><!--! Font Awesome Pro 7.2.0 by @fontawesome - https://fontawesome.com License - https://fontawesome.com/license (Commercial License) Copyright 2026 Fonticons, Inc. --><path opacity=".4" fill="currentColor" d="M112 320C112 434.9 205.1 528 320 528C434.9 528 528 434.9 528 320C528 205.1 434.9 112 320 112C205.1 112 112 205.1 112 320zM232 274.5C232 237.8 261.8 208 298.5 208L392 208L392 256L298.5 256C288.3 256 280 264.3 280 274.5C280 283.8 286.9 291.7 296.2 292.8L349.8 299.5C383.1 303.7 408 331.9 408 365.5C408 402.2 378.2 432 341.5 432L240 432L240 384L341.5 384C351.7 384 360 375.7 360 365.5C360 356.2 353.1 348.3 343.8 347.2L290.2 340.5C257 336.3 232 308 232 274.5z"/><path fill="currentColor" d="M320 112C434.9 112 528 205.1 528 320C528 434.9 434.9 528 320 528C205.1 528 112 434.9 112 320C112 205.1 205.1 112 320 112zM320 576C461.4 576 576 461.4 576 320C576 178.6 461.4 64 320 64C178.6 64 64 178.6 64 320C64 461.4 178.6 576 320 576zM298.5 208C261.8 208 232 237.8 232 274.5C232 308 257 336.3 290.2 340.5L343.8 347.2C353.1 348.4 360 356.2 360 365.5C360 375.7 351.7 384 341.5 384L240 384L240 432L341.5 432C378.2 432 408 402.2 408 365.5C408 332 383 303.7 349.8 299.5L296.2 292.8C286.9 291.6 280 283.8 280 274.5C280 264.3 288.3 256 298.5 256L392 256L392 208L298.5 208z"/></svg>