<svg xmlns="http://www.w3.org/2000/svg" viewBox="0 0 640 640"><!--! Font Awesome Pro 7.2.0 by @fontawesome - https://fontawesome.com License - https://fontawesome.com/license (Commercial License) Copyright 2026 Fonticons, Inc. --><path opacity=".4" fill="currentColor" d="M112 320C112 434.9 205.1 528 320 528C434.9 528 528 434.9 528 320C528 205.1 434.9 112 320 112C205.1 112 112 205.1 112 320zM208 298.7C208 266.3 234.3 240 266.7 240C285.2 240 302.6 248.7 313.6 263.5L320 272L326.4 263.5C337.5 248.7 354.9 240 373.3 240C405.7 240 432 266.3 432 298.7L432 304C432 368 320 432 320 432C320 432 208 368 208 304L208 298.7z"/><path fill="currentColor" d="M320 112C434.9 112 528 205.1 528 320C528 434.9 434.9 528 320 528C205.1 528 112 434.9 112 320C112 205.1 205.1 112 320 112zM320 576C461.4 576 576 461.4 576 320C576 178.6 461.4 64 320 64C178.6 64 64 178.6 64 320C64 461.4 178.6 576 320 576zM313.6 263.5C302.5 248.7 285.1 240 266.7 240C234.3 240 208 266.3 208 298.7L208 304C208 368 320 432 320 432C320 432 432 368 432 304L432 298.7C432 266.3 405.7 240 373.3 240C354.8 240 337.4 248.7 326.4 263.5L320 272L313.6 263.5z"/></svg>