<svg xmlns="http://www.w3.org/2000/svg" viewBox="0 0 640 640"><!--! Font Awesome Pro 7.2.0 by @fontawesome - https://fontawesome.com License - https://fontawesome.com/license (Commercial License) Copyright 2026 Fonticons, Inc. --><path opacity=".4" fill="currentColor" d="M112 320C112 434.9 205.1 528 320 528C434.9 528 528 434.9 528 320C528 205.1 434.9 112 320 112C205.1 112 112 205.1 112 320zM192 192L240 192L240 318.1C283 275.1 307 251.1 312 246.1L345.9 280C338.1 287.8 319.8 306.1 291.2 334.7L344.5 433.7L302.2 456.5C298.6 449.8 283.1 421 255.7 370.2L239.9 386L239.9 448.1L191.9 448.1L191.9 192.1zM352 256L400 256L400 270.2C409.6 266.1 420 264 430.6 264L464 264L464 312L430.6 312C422.5 312 414.7 315.2 408.9 321C403.1 326.8 399.9 334.5 399.9 342.7L399.9 448.1L351.9 448.1L351.9 256.1z"/><path fill="currentColor" d="M320 112C434.9 112 528 205.1 528 320C528 434.9 434.9 528 320 528C205.1 528 112 434.9 112 320C112 205.1 205.1 112 320 112zM320 576C461.4 576 576 461.4 576 320C576 178.6 461.4 64 320 64C178.6 64 64 178.6 64 320C64 461.4 178.6 576 320 576zM240 192L192 192L192 448L240 448L240 385.9L255.8 370.1C283.2 420.9 298.7 449.7 302.3 456.4L344.6 433.6L291.3 334.6C319.9 306 338.2 287.7 346 279.9L312 246.1C307 251.1 283 275.1 240 318.1L240 192zM400 270.2L400 256L352 256L352 448L400 448L400 342.6C400 334.5 403.2 326.7 409 320.9C414.8 315.1 422.5 311.9 430.7 311.9L464.1 311.9L464.1 263.9L430.7 263.9C420.1 263.9 409.7 266.1 400.1 270.1z"/></svg>