<svg xmlns="http://www.w3.org/2000/svg" viewBox="0 0 640 640"><!--! Font Awesome Pro 7.2.0 by @fontawesome - https://fontawesome.com License - https://fontawesome.com/license (Commercial License) Copyright 2026 Fonticons, Inc. --><path opacity=".4" fill="currentColor" d="M112 320C112 434.9 205.1 528 320 528C434.9 528 528 434.9 528 320C528 205.1 434.9 112 320 112C205.1 112 112 205.1 112 320zM224 208L272 208L272 336C272 362.5 293.5 384 320 384C346.5 384 368 362.5 368 336L368 208L416 208L416 336C416 389 373 432 320 432C267 432 224 389 224 336L224 208z"/><path fill="currentColor" d="M320 112C434.9 112 528 205.1 528 320C528 434.9 434.9 528 320 528C205.1 528 112 434.9 112 320C112 205.1 205.1 112 320 112zM320 576C461.4 576 576 461.4 576 320C576 178.6 461.4 64 320 64C178.6 64 64 178.6 64 320C64 461.4 178.6 576 320 576zM272 232L272 208L224 208L224 336C224 389 267 432 320 432C373 432 416 389 416 336L416 208L368 208L368 336C368 362.5 346.5 384 320 384C293.5 384 272 362.5 272 336L272 232z"/></svg>