<svg xmlns="http://www.w3.org/2000/svg" viewBox="0 0 640 640"><!--! Font Awesome Pro 7.2.0 by @fontawesome - https://fontawesome.com License - https://fontawesome.com/license (Commercial License) Copyright 2026 Fonticons, Inc. --><path opacity=".4" fill="currentColor" d="M112 320C112 434.9 205.1 528 320 528C434.9 528 528 434.9 528 320C528 205.1 434.9 112 320 112C205.1 112 112 205.1 112 320zM200 320C200 253.7 253.7 200 320 200C386.3 200 440 253.7 440 320C440 344.5 432.7 367.2 420.1 386.2C428 394.1 437.9 404 449.9 416L416 449.9C404 437.9 394.1 428 386.2 420.1C367.2 432.7 344.5 440 320 440C253.7 440 200 386.3 200 320zM248 320C248 359.8 280.2 392 320 392C331.1 392 341.6 389.5 351 385C332.3 366.3 318 352 308.2 342.2L342.1 308.3C351.9 318.1 366.2 332.4 384.9 351.1C389.4 341.7 391.9 331.2 391.9 320.1C391.9 280.3 359.7 248.1 319.9 248.1C280.1 248.1 247.9 280.3 247.9 320.1z"/><path fill="currentColor" d="M320 112C434.9 112 528 205.1 528 320C528 434.9 434.9 528 320 528C205.1 528 112 434.9 112 320C112 205.1 205.1 112 320 112zM320 576C461.4 576 576 461.4 576 320C576 178.6 461.4 64 320 64C178.6 64 64 178.6 64 320C64 461.4 178.6 576 320 576zM248 320C248 280.2 280.2 248 320 248C359.8 248 392 280.2 392 320C392 331.1 389.5 341.6 385 351C366.3 332.3 352 318 342.2 308.2L308.3 342.1C318.1 351.9 332.4 366.2 351.1 384.9C341.7 389.4 331.2 391.9 320.1 391.9C280.3 391.9 248.1 359.7 248.1 319.9zM440 320C440 253.7 386.3 200 320 200C253.7 200 200 253.7 200 320C200 386.3 253.7 440 320 440C344.5 440 367.2 432.7 386.2 420.1C394.1 428 404 437.9 416 449.9L449.9 416C437.9 404 428 394.1 420.1 386.2C432.7 367.2 440 344.5 440 320z"/></svg>