<svg xmlns="http://www.w3.org/2000/svg" viewBox="0 0 640 640"><!--! Font Awesome Pro 7.2.0 by @fontawesome - https://fontawesome.com License - https://fontawesome.com/license (Commercial License) Copyright 2026 Fonticons, Inc. --><path opacity=".4" fill="currentColor" d="M112 304C112 346.7 127.1 386.4 153.2 418.6L171 440.6C164.1 457.6 156.5 476.1 148.4 496.2C189.3 482.1 212.6 474.1 218.2 472.2L235 479.2C260.9 489.9 289.6 496 320.1 496C437.9 496 528.1 407.2 528.1 304C528.1 200.8 437.8 112 320 112C202.2 112 112 200.8 112 304zM160 272L336 272L336 320L160 320L160 272zM192 368L272 368L272 416L192 416L192 368zM320 368L448 368L448 416L320 416L320 368zM384 272L480 272L480 320L384 320L384 272z"/><path fill="currentColor" d="M160.3 466.9L171 440.7L153.2 418.7C127.1 386.4 112 346.7 112 304C112 200.8 202.2 112 320 112C437.8 112 528 200.8 528 304C528 407.2 437.8 496 320 496C289.5 496 260.8 490 234.9 479.2L218.1 472.2C212.5 474.1 189.3 482.1 148.3 496.2L160.3 466.8zM64 576C98.9 564 149.7 546.5 216.5 523.6C248.1 536.7 283.2 544 320 544C461.4 544 576 436.5 576 304C576 171.5 461.4 64 320 64C178.6 64 64 171.5 64 304C64 358.4 83.3 408.6 115.8 448.8C96.7 495.8 79.4 538.2 64 576zM184 272L160 272L160 320L336 320L336 272L184 272zM408 272L384 272L384 320L480 320L480 272L408 272zM216 368L192 368L192 416L272 416L272 368L216 368zM344 368L320 368L320 416L448 416L448 368L344 368z"/></svg>