<svg xmlns="http://www.w3.org/2000/svg" viewBox="0 0 640 640"><!--! Font Awesome Pro 7.2.0 by @fontawesome - https://fontawesome.com License - https://fontawesome.com/license (Commercial License) Copyright 2026 Fonticons, Inc. --><path opacity=".4" fill="currentColor" d="M112 320C112 434.9 205.1 528 320 528C434.9 528 528 434.9 528 320C528 205.1 434.9 112 320 112C205.1 112 112 205.1 112 320zM235.1 235.1C282 188.2 357.9 188.2 404.8 235.1L370.9 269C342.8 240.9 297.2 240.9 269.1 269C241 297.1 241 342.7 269.1 370.8C297.2 398.9 342.8 398.9 370.9 370.8L404.8 404.7C357.9 451.6 282 451.6 235.1 404.7C188.2 357.8 188.2 281.9 235.1 235z"/><path fill="currentColor" d="M320 112C434.9 112 528 205.1 528 320C528 434.9 434.9 528 320 528C205.1 528 112 434.9 112 320C112 205.1 205.1 112 320 112zM320 576C461.4 576 576 461.4 576 320C576 178.6 461.4 64 320 64C178.6 64 64 178.6 64 320C64 461.4 178.6 576 320 576zM269.1 370.9C241 342.8 241 297.2 269.1 269.1C297.2 241 342.8 241 370.9 269.1L404.8 235.2C357.9 188.3 282 188.3 235.1 235.2C188.2 282.1 188.2 358 235.1 404.9C282 451.8 357.9 451.8 404.8 404.9L370.9 371C342.8 399.1 297.2 399.1 269.1 371z"/></svg>