<svg xmlns="http://www.w3.org/2000/svg" viewBox="0 0 640 640"><!--! Font Awesome Pro 7.2.0 by @fontawesome - https://fontawesome.com License - https://fontawesome.com/license (Commercial License) Copyright 2026 Fonticons, Inc. --><path opacity=".4" fill="currentColor" d="M113.4 296L208 296L208 344L113.4 344C124.4 439.7 200.3 515.6 296 526.6L296 432L344 432L344 526.6C439.7 515.6 515.6 439.7 526.6 344L432 344L432 296L526.6 296C515.6 200.3 439.7 124.4 344 113.4L344 208L296 208L296 113.4C200.3 124.4 124.4 200.3 113.4 296z"/><path fill="currentColor" d="M526.6 296L432 296L432 344L526.6 344C515.6 439.7 439.7 515.6 344 526.6L344 432L296 432L296 526.6C200.3 515.6 124.4 439.7 113.4 344L208 344L208 296L113.4 296C124.4 200.3 200.3 124.4 296 113.4L296 208L344 208L344 113.4C439.7 124.4 515.6 200.3 526.6 296zM320 576C461.4 576 576 461.4 576 320C576 178.6 461.4 64 320 64C178.6 64 64 178.6 64 320C64 461.4 178.6 576 320 576z"/></svg>