<svg xmlns="http://www.w3.org/2000/svg" viewBox="0 0 640 640"><!--! Font Awesome Pro 7.2.0 by @fontawesome - https://fontawesome.com License - https://fontawesome.com/license (Commercial License) Copyright 2026 Fonticons, Inc. --><path opacity=".4" fill="currentColor" d="M120 328L120 342.1C139.6 361.7 150.3 372.4 152 374.1L152 419.9L150.8 423.6L137.4 463.7L160.8 528L189.7 528C173.8 484.2 165 460.2 163.5 456C169.5 451.2 184.4 439.3 207.9 420.4L207.9 366.6C226.8 372.9 252.1 381.3 283.8 391.9L375.9 391.9L375.9 527.9L407.9 527.9L407.9 375.7C407.9 368 409.1 360.3 411.6 352.9C428.6 301.8 437.6 274.8 438.6 271.9L535.9 271.9L535.9 242.5L462.6 175.9L425.7 175.9L399.7 262.8L394.6 279.9L167.8 279.9C141.3 279.9 119.8 301.4 119.8 327.9zM480 224C480 232.8 472.8 240 464 240C455.2 240 448 232.8 448 224C448 215.2 455.2 208 464 208C472.8 208 480 215.2 480 224z"/><path fill="currentColor" d="M320 80L320 64L288 64L288 104C288 134.9 313.1 160 344 160L380.6 160L380.3 160.9L320 176L320 208L366.2 208L359 232L168 232C139.5 232 113.8 244.5 96.2 264.2C76.4 281.8 64 307.4 64 336L64 400L96 400L96 385.9L104 393.9L104 412.1L89.2 456.4L86.6 464.3L89.5 472.2L121.5 560.2L127.2 576L258.3 576C252.9 561.1 240.3 526.5 220.5 472C241.1 455.5 253 446 256.1 443.6L256.1 433.4L272.5 438.9L276.2 440.1L328.1 440.1L328.1 576.1L456.1 576.1L456.1 375.9C456.1 373.3 456.5 370.8 457.3 368.3L473.4 320.1L584.1 320.1L584.1 221.5L576.2 214.4L508.2 152.6C524.8 142.7 536 124.7 536 104L536 64L504 64L504 104C504 117.3 493.3 128 480 128L410.6 128C414.1 120.7 416 112.6 416 104L416 64L384 64L384 104C384 117.3 373.3 128 360 128L344 128C330.7 128 320 117.3 320 104L320 80zM208 420.5C184.4 439.4 169.6 451.2 163.6 456.1C165.1 460.3 173.8 484.3 189.8 528.1L160.9 528.1L137.5 463.8L150.9 423.7L152.1 420L152.1 374.2C150.4 372.5 139.7 361.8 120.1 342.2L120 328C120 301.5 141.5 280 168 280L394.8 280L399.9 262.9L425.9 176L462.8 176L536.1 242.6L536.1 272L438.8 272C437.8 274.9 428.8 301.9 411.8 353C409.4 360.3 408.1 368 408.1 375.8L408.1 528L376.1 528L376.1 392L284 392C252.3 381.4 227 373 208.1 366.7L208.1 420.5zM480 224C480 215.2 472.8 208 464 208C455.2 208 448 215.2 448 224C448 232.8 455.2 240 464 240C472.8 240 480 232.8 480 224z"/></svg>