<svg xmlns="http://www.w3.org/2000/svg" viewBox="0 0 640 640"><!--! Font Awesome Pro 7.2.0 by @fontawesome - https://fontawesome.com License - https://fontawesome.com/license (Commercial License) Copyright 2026 Fonticons, Inc. --><path opacity=".4" fill="currentColor" d="M144 144L144 240L496 240L496 144L144 144zM336 400L336 496L496 496L496 400L336 400z"/><path fill="currentColor" d="M496 144L496 240L144 240L144 144L496 144zM144 96L96 96L96 288L168 288L168 472L288 472L288 544L544 544L544 352L288 352L288 424L216 424L216 288L544 288L544 96L144 96zM496 400L496 496L336 496L336 400L496 400z"/></svg>