<svg xmlns="http://www.w3.org/2000/svg" viewBox="0 0 640 640"><!--! Font Awesome Pro 7.2.0 by @fontawesome - https://fontawesome.com License - https://fontawesome.com/license (Commercial License) Copyright 2026 Fonticons, Inc. --><path opacity=".4" fill="currentColor" d="M240.8 272.8C197.1 316.5 197.1 387.5 240.8 431.2C278.7 469.1 337 474.2 380.4 446.3C318.8 384.7 287.3 353.2 286.1 352L320 318.1C321.2 319.3 352.7 350.8 414.3 412.4C442.1 369 437.1 310.7 399.2 272.8C355.5 229.1 284.5 229.1 240.8 272.8z"/><path fill="currentColor" d="M352 64L288 64L288 128L352 128L352 64zM160 128L96 128L96 192L160 192L160 128zM544 128L480 128L480 192L544 192L544 128zM544 320L544 384L608 384L608 320L544 320zM544 512L480 512L480 576L544 576L544 512zM96 512L96 576L160 576L160 512L96 512zM32 320L32 384L96 384L96 320L32 320zM303 369L380.4 446.4C337 474.2 278.7 469.2 240.8 431.3C197.1 387.6 197.1 316.6 240.8 272.9C284.5 229.2 355.5 229.2 399.2 272.9C437.1 310.8 442.2 369.1 414.3 412.5C352.6 350.8 321.2 319.4 320 318.2L286.1 352.1L303.1 369.1zM433.1 465.2C474.5 425 491.1 365.6 476.4 309.8C461.8 253.9 418.2 210.3 362.3 195.7C306.5 181 247.1 197.5 206.9 238.9C164.8 278.9 147.6 338.7 162.2 395C176.8 451.3 220.7 495.2 277 509.8C333.3 524.4 393.1 507.2 433.1 465.1z"/></svg>