<svg xmlns="http://www.w3.org/2000/svg" viewBox="0 0 640 640"><!--! Font Awesome Pro 7.2.0 by @fontawesome - https://fontawesome.com License - https://fontawesome.com/license (Commercial License) Copyright 2026 Fonticons, Inc. --><path opacity=".4" fill="currentColor" d="M112 334.9L171.4 401.5L210.7 497.1L167.7 472.3L112 375.8L112 335zM112.5 263.4L167 169L296.1 209.6L296.1 305.6L197.4 358.5L112.6 263.4zM222.4 136.1L264.2 112L375.7 112L419.2 137.1L320 166.8L222.3 136.1zM222.4 399.5L320 347.2L417.5 399.5L364.6 528L275.3 528L222.4 399.5zM344 209.8L474 170.8L527.5 263.3L442.7 358.4L344 305.5L344 209.7zM429.2 497L468.6 401.4L528 334.8L528 375.6L472.2 472.1L429.2 496.9z"/><path fill="currentColor" d="M507.4 132.6L576 251.4L576 388.6L507.4 507.4L388.6 576L251.4 576L132.6 507.4L64 388.6L64 251.4L132.6 132.6L251.4 64L388.6 64L507.4 132.6zM222.4 399.5L275.3 528L364.6 528L417.5 399.5L320 347.2L222.4 399.5zM112 375.7L167.7 472.2L210.7 497L171.4 401.4L112 334.8L112 375.6zM468.6 401.5L429.2 497.1L472.2 472.3L528 375.8L528 335L468.6 401.6zM112.5 263.4L197.3 358.5L296 305.6L296 209.6L166.9 169L112.4 263.4zM344 209.8L344 305.6L442.7 358.5L527.5 263.4L474 170.9L344 209.9zM222.4 136.1L320.1 166.8L419.3 137.1L375.8 112L264.3 112L222.5 136.1z"/></svg>