<svg xmlns="http://www.w3.org/2000/svg" viewBox="0 0 640 640"><!--! Font Awesome Pro 7.2.0 by @fontawesome - https://fontawesome.com License - https://fontawesome.com/license (Commercial License) Copyright 2026 Fonticons, Inc. --><path opacity=".4" fill="currentColor" d="M106.8 342.3L170 106.4L405.9 169.7L342.7 405.6L106.8 342.3zM151.1 310C158.8 323.4 176 328 189.4 320.3C202.7 312.5 207.3 295.4 199.6 282C191.9 268.6 174.7 264 161.4 271.8C148 279.5 143.4 296.6 151.1 310zM192.1 189C199.8 202.4 217 207 230.4 199.3C243.7 191.5 248.3 174.4 240.6 161C232.9 147.6 215.7 143 202.4 150.8C189 158.5 184.4 175.6 192.1 189zM232.1 270C239.8 283.4 257 288 270.4 280.3C283.7 272.5 288.3 255.4 280.6 242C272.9 228.6 255.7 224 242.4 231.8C229 239.5 224.4 256.6 232.1 270zM272.1 351C279.8 364.4 297 369 310.4 361.3C323.7 353.5 328.3 336.4 320.6 323C312.9 309.6 295.7 305 282.4 312.8C269 320.5 264.4 337.6 272.1 351zM313.1 230C320.8 243.4 338 248 351.4 240.3C364.7 232.5 369.3 215.4 361.6 202C353.9 188.6 336.7 184 323.4 191.8C310 199.5 305.4 216.6 313.1 230z"/><path fill="currentColor" d="M576.3 576L256.3 576L256.3 481.8L294.6 492.1L294.6 492.1C297.8 493 301.1 493.6 304.3 494.2L304.3 528L528.3 528L528.3 304L469.2 304L482.1 256L576.3 256L576.3 576zM464.7 135.7L376.6 464.3L48 376.3L136 47.7L464.7 135.7zM106.8 342.3L342.7 405.6L405.9 169.7L170 106.4L106.8 342.3zM310.3 361.2C296.9 368.9 279.8 364.3 272.1 351C264.3 337.6 268.9 320.4 282.3 312.7C295.7 305 312.8 309.6 320.6 323C328.3 336.3 323.7 353.5 310.3 361.2zM189.3 320.2C175.9 327.9 158.8 323.3 151.1 310C143.3 296.6 147.9 279.4 161.3 271.7C174.7 264 191.8 268.6 199.6 282C207.3 295.3 202.7 312.5 189.3 320.2zM270.3 280.2C256.9 287.9 239.8 283.3 232.1 270C224.3 256.6 228.9 239.4 242.3 231.7C255.7 224 272.8 228.6 280.6 242C288.3 255.3 283.7 272.5 270.3 280.2zM351.3 240.2C337.9 247.9 320.8 243.3 313.1 230C305.3 216.6 309.9 199.4 323.3 191.7C336.7 184 353.8 188.6 361.6 202C369.3 215.3 364.7 232.5 351.3 240.2zM230.3 199.2C216.9 206.9 199.8 202.3 192.1 189C184.3 175.6 188.9 158.4 202.3 150.7C215.7 143 232.8 147.6 240.6 161C248.3 174.3 243.7 191.5 230.3 199.2z"/></svg>