<svg xmlns="http://www.w3.org/2000/svg" viewBox="0 0 640 640"><!--! Font Awesome Pro 7.2.0 by @fontawesome - https://fontawesome.com License - https://fontawesome.com/license (Commercial License) Copyright 2026 Fonticons, Inc. --><path opacity=".4" fill="currentColor" d="M286.3 88L256 88C180.9 88 120 148.9 120 224C120 240.1 122.8 255.6 127.9 269.9C110.1 280.6 96.8 288.5 88 293.9L88 360L312.9 360L362 408L392 408L392 360L408 360C443.3 360 472 388.7 472 424L472 432C472 467.3 443.3 496 408 496L409.7 496C488.3 496 552 432.3 552 353.7C552 285.7 526.5 223.8 484.5 176.8L528 96L520 91.2L414.3 120.8C376.3 99.9 332.7 88 286.3 88z"/><path fill="currentColor" d="M144 224C144 162.1 194.1 112 256 112L286.3 112C328.5 112 368.2 122.8 402.7 141.8L411.3 146.5L420.7 143.9L484.5 126C468.2 156.3 458.5 174.3 455.3 180.1L466.5 192.7C504.7 235.5 527.9 291.8 527.9 353.6C527.9 384.9 515.7 413.4 495.9 434.6C495.9 433.7 495.9 432.8 495.9 432L495.9 424C495.9 375.4 456.5 336 407.9 336L367.9 336L367.9 380.3L329.6 342.8L322.6 336L111.9 336L111.9 307.5L115.8 305.2C133.3 294.7 147.1 286.4 157.1 280.4L150.4 261.9C146.3 250 144 237.3 144 224zM448 432C448 454.1 430.1 472 408 472L302.4 472L280 416L192 416L224 496L192 576L280 576L302.4 520L409.7 520C501.6 520 576 445.5 576 353.7C576 285.7 552.6 223.2 513.4 173.8C541.4 121.8 556.9 93 560 87.2C526.8 67.3 532.1 70.5 523.5 65.3L513.5 68.1L417 95.1C377.7 75.2 333.3 64 286.3 64L256 64C167.6 64 96 135.6 96 224C96 235.9 97.3 247.6 99.8 258.8C88.5 265.6 66.2 278.9 64 280.3L64 384L303.1 384L345.2 425.2L352.2 432L416 432L416 384.8C434.3 388.5 448 404.6 448 424L448 432zM248 224C248 210.7 237.3 200 224 200C210.7 200 200 210.7 200 224C200 237.3 210.7 248 224 248C237.3 248 248 237.3 248 224z"/></svg>