<svg xmlns="http://www.w3.org/2000/svg" viewBox="0 0 640 640"><!--! Font Awesome Pro 7.2.0 by @fontawesome - https://fontawesome.com License - https://fontawesome.com/license (Commercial License) Copyright 2026 Fonticons, Inc. --><path opacity=".4" fill="currentColor" d="M176 112L368 112L368 528L176 528L176 112zM272 320C272 337.7 286.3 352 304 352C321.7 352 336 337.7 336 320C336 302.3 321.7 288 304 288C286.3 288 272 302.3 272 320z"/><path fill="currentColor" d="M176 112L176 528L368 528L368 112L176 112zM416 112L416 576L96 576L96 528L128 528L128 64L512 64L512 528L544 528L544 576L464 576L464 112L416 112zM336 320C336 337.7 321.7 352 304 352C286.3 352 272 337.7 272 320C272 302.3 286.3 288 304 288C321.7 288 336 302.3 336 320z"/></svg>