<svg xmlns="http://www.w3.org/2000/svg" viewBox="0 0 640 640"><!--! Font Awesome Pro 7.2.0 by @fontawesome - https://fontawesome.com License - https://fontawesome.com/license (Commercial License) Copyright 2026 Fonticons, Inc. --><path opacity=".4" fill="currentColor" d="M144 256C144 176.5 208.5 112 288 112C367.5 112 432 176.5 432 256C432 272.8 429.1 289 423.8 304L384 304L384 352L304 352L304 528L144 528L144 256zM176 256L176 320L216 320C229.3 320 240 330.7 240 344C240 357.3 229.3 368 216 368L176 368L176 416L216 416C255.8 416 288 383.8 288 344C288 306.9 260 276.4 224 272.4L224 256C224 220.7 252.7 192 288 192C323.3 192 352 220.7 352 256L352 288L400 288L400 256C400 194.1 349.9 144 288 144C226.1 144 176 194.1 176 256z"/><path fill="currentColor" d="M144 528L304 528L304 576L96 576L96 256C96 150 182 64 288 64C394 64 480 150 480 256C480 272.6 477.9 288.7 474 304L423.9 304C429.2 289 432.1 272.8 432.1 256C432.1 176.5 367.6 112 288.1 112C208.6 112 144 176.5 144 256L144 528zM288 192C252.7 192 224 220.7 224 256L224 272.4C260 276.4 288 306.9 288 344C288 383.8 255.8 416 216 416L176 416L176 368L216 368C229.3 368 240 357.3 240 344C240 330.7 229.3 320 216 320L176 320L176 256C176 194.1 226.1 144 288 144C349.9 144 400 194.1 400 256L400 288L352 288L352 256C352 220.7 323.3 192 288 192zM480 376L480 608L432 608L432 352L480 352L480 376zM560 408L560 576L512 576L512 384L560 384L560 408zM400 424L400 560L352 560L352 400L400 400L400 424zM640 456L640 528L592 528L592 432L640 432L640 456z"/></svg>