<svg xmlns="http://www.w3.org/2000/svg" viewBox="0 0 640 640"><!--! Font Awesome Pro 7.2.0 by @fontawesome - https://fontawesome.com License - https://fontawesome.com/license (Commercial License) Copyright 2026 Fonticons, Inc. --><path opacity=".4" fill="currentColor" d="M176 352C176 436.6 245.3 512 320 512C394.7 512 464 436.6 464 352C464 303.7 449.9 244.3 422.7 198.5C395.6 152.8 360.9 128 320 128C279.1 128 244.4 152.8 217.3 198.5C190.1 244.3 176 303.7 176 352zM208 352C208 323.7 213.7 290.1 224.9 258.5C236.1 227 253.3 196.1 277.2 174.3L298.8 198C280 215.1 265.2 240.7 255.1 269.2C245 297.6 240 327.5 240 352L240 368L208 368L208 352z"/><path fill="currentColor" d="M320 512C245.3 512 176 436.6 176 352C176 303.7 190.1 244.3 217.3 198.5C244.4 152.8 279.1 128 320 128C360.9 128 395.6 152.8 422.7 198.5C449.9 244.4 464 303.8 464 352C464 436.6 394.7 512 320 512zM128 352C128 458 214 560 320 560C426 560 512 458 512 352C512 240 448 80 320 80C192 80 128 240 128 352zM240 352C240 327.5 245 297.6 255.1 269.2C265.2 240.7 280.1 215.1 298.8 198L277.2 174.4C253.3 196.2 236.1 227 224.9 258.5C213.7 290.1 208 323.7 208 352L208 368L240 368L240 352z"/></svg>