<svg xmlns="http://www.w3.org/2000/svg" viewBox="0 0 640 640"><!--! Font Awesome Pro 7.2.0 by @fontawesome - https://fontawesome.com License - https://fontawesome.com/license (Commercial License) Copyright 2026 Fonticons, Inc. --><path opacity=".4" fill="currentColor" d="M112 176L528 176L528 242.7C517.6 241 506.9 240 496 240C417.7 240 350.3 286.9 320.4 354.2L112 196.1L112 176zM112 256.3L305.5 403.1L306.3 402C304.8 411.8 304 421.8 304 432C304 442.9 304.9 453.6 306.7 464L112 464L112 256.3z"/><path fill="currentColor" d="M88 128L64 128L64 512L321.4 512C314.5 496.9 309.5 480.8 306.6 464L111.9 464L111.9 256.3L305.4 403.1L306.2 402C308.8 385.2 313.6 369.2 320.3 354.2L111.9 196.1L111.9 176L527.9 176L527.9 242.7C544.7 245.5 560.8 250.5 575.9 257.5L576 128L88 128zM640 432C640 352.5 575.5 288 496 288C416.5 288 352 352.5 352 432C352 511.5 416.5 576 496 576C575.5 576 640 511.5 640 432zM566.4 380.5L557 393.4L493 481.4L482 496.5C477.6 492.1 459.9 474.4 428.8 443.3L417.4 432L440 409.4C445 414.4 457.7 427.1 478.1 447.5L531.1 374.6L540.5 361.7L566.4 380.5z"/></svg>