<svg xmlns="http://www.w3.org/2000/svg" viewBox="0 0 640 640"><!--! Font Awesome Pro 7.2.0 by @fontawesome - https://fontawesome.com License - https://fontawesome.com/license (Commercial License) Copyright 2026 Fonticons, Inc. --><path opacity=".4" fill="currentColor" d=""/><path fill="currentColor" d="M431.5 105L494.5 168L64.4 168L64.4 216L494.5 216C444.8 265.7 418.1 292.4 414.5 296L448.4 329.9L465.4 312.9L569.4 208.9L586.4 191.9L569.4 174.9L465.4 70.9L448.4 53.9L414.5 87.8L431.5 104.8zM209.4 361L226.4 344L192.5 310.1L175.5 327.1L71.5 431.1L54.5 448.1L71.5 465.1L175.5 569.1L192.5 586.1L226.4 552.2C222.8 548.6 196.1 521.9 146.4 472.2L576.5 472.2L576.5 424.2L146.4 424.2L209.4 361.2z"/></svg>