<svg xmlns="http://www.w3.org/2000/svg" viewBox="0 0 640 640"><!--! Font Awesome Pro 7.2.0 by @fontawesome - https://fontawesome.com License - https://fontawesome.com/license (Commercial License) Copyright 2026 Fonticons, Inc. --><path opacity=".4" fill="currentColor" d="M112 320C112 434.9 205.1 528 320 528C434.9 528 528 434.9 528 320C528 205.1 434.9 112 320 112C205.1 112 112 205.1 112 320zM166.7 268.6L179.3 230.7L198.3 237L294.3 269L313.3 275.3L300.7 313.2L281.7 306.9C278.5 305.8 275.2 304.7 272 303.9C272 321.6 257.7 335.9 240 335.9C222.3 335.9 208 321.6 208 303.9C208 296.6 210.4 289.9 214.6 284.5C193.7 277.5 177.8 272.2 166.8 268.6zM213.9 447.8C234 409.9 274 384 320 384C366 384 406 409.9 426.1 447.9L383.7 470.4C371.6 447.5 347.6 432 320 432C292.4 432 268.4 447.5 256.3 470.4L213.9 447.9zM326.7 275.4L345.7 269.1L441.7 237.1L460.7 230.8L473.3 268.7C462.3 272.4 446.3 277.7 425.5 284.6C429.6 290 432.1 296.7 432.1 304C432.1 321.7 417.8 336 400.1 336C382.4 336 368.1 321.7 368.1 303.7C363.2 305.3 353.6 308.5 339.5 313.3L326.9 275.4z"/><path fill="currentColor" d="M320 112C434.9 112 528 205.1 528 320C528 434.9 434.9 528 320 528C205.1 528 112 434.9 112 320C112 205.1 205.1 112 320 112zM320 576C461.4 576 576 461.4 576 320C576 178.6 461.4 64 320 64C178.6 64 64 178.6 64 320C64 461.4 178.6 576 320 576zM320 432C347.6 432 371.6 447.5 383.7 470.4L426.1 447.9C406 409.9 366 384 320 384C274 384 234 409.9 213.9 447.9L256.3 470.4C268.4 447.5 292.4 432 320 432zM240 336C257.7 336 272 321.7 272 304L272 303.7C276.9 305.3 286.5 308.5 300.6 313.3L313.2 275.4L294.2 269.1L198.2 237.1L179.2 230.8L166.6 268.7C177.6 272.4 193.6 277.7 214.4 284.6C210.3 290 207.8 296.7 207.8 304C207.8 321.7 222.1 336 239.8 336zM432 304C432 296.7 429.6 290 425.4 284.6C446.3 277.6 462.2 272.3 473.2 268.7L460.6 230.8L441.6 237.1L345.6 269.1L326.6 275.4L339.2 313.3C353.4 308.6 362.9 305.4 367.8 303.7L367.8 304C367.8 321.7 382.1 336 399.8 336C417.5 336 431.8 321.7 431.8 304z"/></svg>