<svg xmlns="http://www.w3.org/2000/svg" viewBox="0 0 640 640"><!--! Font Awesome Pro 7.2.0 by @fontawesome - https://fontawesome.com License - https://fontawesome.com/license (Commercial License) Copyright 2026 Fonticons, Inc. --><path opacity=".4" fill="currentColor" d="M167.7 232C135.7 286.4 135.4 353.8 166.8 408.6C198.2 463.4 256.6 497.1 319.7 497C382.9 496.8 441.1 462.9 472.3 408C504.3 353.6 504.6 286.2 473.2 231.4C441.8 176.6 383.4 142.9 320.3 143C257.1 143.2 198.9 177.1 167.7 232zM324.6 424.2C309.1 451 274.9 460.2 248.1 444.7C221.3 429.2 212.1 395 227.6 368.2C243.1 341.4 277.3 332.2 304.1 347.7C330.9 363.2 340.1 397.4 324.6 424.2zM302.6 254.4C297 264.6 286.4 271 274.8 271.1C263.1 271.2 252.3 265 246.6 254.9C240.9 244.8 241.1 232.3 247.2 222.4C252.8 212.2 263.4 205.8 275 205.7C286.7 205.6 297.5 211.8 303.2 221.9C308.9 232 308.7 244.5 302.6 254.4zM441.2 334.4C435.6 344.6 425 351 413.4 351.1C401.7 351.2 390.9 345 385.2 334.9C379.5 324.8 379.7 312.3 385.8 302.4C391.4 292.2 402 285.8 413.6 285.7C425.3 285.6 436.1 291.8 441.8 301.9C447.5 312 447.3 324.5 441.2 334.4z"/><path fill="currentColor" d="M84.6 184C122.1 118.9 182.5 75.3 249.7 57.3L237.3 10.9C158.2 32.1 87.2 83.5 43 160L84.6 184zM555.7 456C518.1 521.1 457.8 564.7 390.5 582.7L403 629.1C482 607.9 553.1 556.5 597.3 480L555.7 456zM407.9 167.6C492.1 216.1 520.9 323.7 472.4 407.9C423.9 492.1 316.3 520.9 232.1 472.4C147.9 423.9 119.1 316.3 167.6 232.1C216.1 147.9 323.7 119.1 407.9 167.6zM208.1 514C315.2 575.8 452.2 539 514 431.9C575.8 324.8 539 187.8 431.9 126C324.8 64.2 187.8 101 126 208.1C64.2 315.2 101 452.2 208.1 514zM302.5 254.4C308.6 244.5 308.8 232 303.1 221.9C297.4 211.8 286.6 205.6 274.9 205.7C263.3 205.8 252.7 212.2 247.1 222.4C241 232.3 240.8 244.8 246.5 254.9C252.2 265 263 271.2 274.7 271.1C286.3 271 296.9 264.6 302.5 254.4zM397.3 346.1C407.2 352.2 419.7 352.4 429.8 346.7C439.9 341 446.1 330.2 446 318.5C445.9 306.9 439.5 296.3 429.3 290.7C419.4 284.6 406.9 284.4 396.8 290.1C386.7 295.8 380.5 306.6 380.6 318.3C380.7 329.9 387.1 340.5 397.3 346.1zM324.5 424.2C340 397.4 330.8 363.2 304 347.7C277.2 332.2 243 341.4 227.5 368.2C212 395 221.2 429.2 248 444.7C274.8 460.2 309 451 324.5 424.2z"/></svg>