<svg xmlns="http://www.w3.org/2000/svg" viewBox="0 0 640 640"><!--! Font Awesome Pro 7.2.0 by @fontawesome - https://fontawesome.com License - https://fontawesome.com/license (Commercial License) Copyright 2026 Fonticons, Inc. --><path opacity=".4" fill="currentColor" d="M112 320C112 434.9 205.1 528 320 528C340.5 528 360.3 525 379 519.5L338.4 478.9C332.3 479.6 326.2 480 319.9 480C242.5 480 177.9 425 163.1 352L212.5 352C226.3 398.3 269.1 432 319.9 432C370.7 432 413.5 398.3 427.3 352L476.7 352C475.8 356.4 474.7 360.8 473.5 365.1L511 402.5C522 377.2 528 349.3 528 320C528 205.1 434.9 112 320 112C205.1 112 112 205.1 112 320zM172 272C172 234.4 202.4 204 240 204C277.6 204 308 234.4 308 272L308 300L268 300L268 272C268 256.5 255.5 244 240 244C224.5 244 212 256.5 212 272L212 300L172 300L172 272zM332 272C332 234.4 362.4 204 400 204C437.6 204 468 234.4 468 272L468 300L428 300L428 272C428 256.5 415.5 244 400 244C384.5 244 372 256.5 372 272L372 300L332 300L332 272z"/><path fill="currentColor" d="M320 528C205.1 528 112 434.9 112 320C112 205.1 205.1 112 320 112C434.9 112 528 205.1 528 320C528 349.3 521.9 377.2 511 402.5L473.6 365.1C474.9 360.8 475.9 356.4 476.8 352L427.4 352C413.6 398.3 370.8 432 320 432C269.2 432 226.4 398.3 212.6 352L163.2 352C178 425 242.6 480 320 480C326.3 480 332.4 479.6 338.5 478.9L379 519.5C360.3 525 340.5 528 320 528zM451.6 411L487.4 446.8C503 462.4 503 487.7 487.4 503.4C471.8 519.1 446.5 519 430.8 503.4L390.9 463.5C415.3 451.4 436.2 433.3 451.6 411.1zM320 576C356.2 576 390.7 568.5 422 554.9C454.6 570 494.5 564.2 521.3 537.3C545.8 512.8 552.8 477.5 542.4 446.8C563.8 409.4 576 366.1 576 320C576 178.6 461.4 64 320 64C178.6 64 64 178.6 64 320C64 461.4 178.6 576 320 576zM240 244C255.5 244 268 256.5 268 272L268 300L308 300L308 272C308 234.4 277.6 204 240 204C202.4 204 172 234.4 172 272L172 300L212 300L212 272C212 256.5 224.5 244 240 244zM400 244C415.5 244 428 256.5 428 272L428 300L468 300L468 272C468 234.4 437.6 204 400 204C362.4 204 332 234.4 332 272L332 300L372 300L372 272C372 256.5 384.5 244 400 244z"/></svg>