<svg xmlns="http://www.w3.org/2000/svg" viewBox="0 0 640 640"><!--! Font Awesome Pro 7.2.0 by @fontawesome - https://fontawesome.com License - https://fontawesome.com/license (Commercial License) Copyright 2026 Fonticons, Inc. --><path opacity=".4" fill="currentColor" d="M112.6 272C120.8 164.6 210.5 80 320 80C429.5 80 519.2 164.6 527.4 272C389.2 272 250.9 272 112.6 272zM166.7 188.6C177.7 192.3 193.7 197.6 214.5 204.5C210.4 209.9 207.9 216.6 207.9 223.9C207.9 241.6 222.2 255.9 239.9 255.9C257.6 255.9 271.9 241.6 271.9 223.9C275.1 224.7 278.4 225.8 281.6 226.9L300.6 233.2L313.2 195.3L294.2 189L179.2 150.7L166.6 188.6zM326.7 195.3L339.3 233.2C353.5 228.5 363.1 225.3 367.9 223.6C367.9 241.5 382.2 255.9 399.9 255.9C417.6 255.9 431.9 241.6 431.9 223.9C431.9 216.6 429.5 209.9 425.3 204.5C446.2 197.5 462.2 192.2 473.1 188.6L460.5 150.7L441.5 157L345.5 189L326.5 195.3z"/><path fill="currentColor" d="M575.5 272L527.4 272C519.2 164.6 429.5 80 320 80C210.5 80 120.8 164.6 112.6 272L64.5 272C72.8 138.1 184 32 320 32C456 32 567.2 138.1 575.5 272zM288 528L320 528L320 496L352 496L352 528L384 528L384 496L416 496L416 464L384 464L384 432L416 432L416 400L384 400L384 368L352 368L352 400L320 400L320 368L288 368L288 400L256 400L256 432L288 432L288 464L256 464L256 496L288 496L288 528zM240 256C222.3 256 208 241.7 208 224C208 216.7 210.4 210 214.6 204.6C193.7 197.6 177.8 192.3 166.8 188.7L179.4 150.8L294.4 189.1L313.4 195.4L300.8 233.3C286.6 228.6 277.1 225.4 272.1 223.7L272.1 224C272.1 241.7 257.8 256 240.1 256zM432 224C432 241.7 417.7 256 400 256C382.3 256 368 241.7 368 224L368 223.7C363.1 225.3 353.5 228.5 339.4 233.3L326.8 195.4L345.8 189.1L441.8 157.1L460.8 150.8L473.4 188.7C462.4 192.4 446.4 197.7 425.6 204.6C429.7 210 432.2 216.7 432.2 224zM0 320L640 320L640 576L0 576L0 320zM352 432L352 464L320 464L320 432L352 432zM572.1 402.4L582.5 390.3L558.2 369.5L547.8 381.6L451.8 493.6L441.4 505.7L465.7 526.5L476.1 514.4L572.1 402.4zM224 368L192 368L192 464L224 464L224 368zM96 384.5C77.8 387.6 64 403.4 64 422.4C64 440.1 76 455.4 93.1 459.7L123.1 467.2C126 467.9 128 470.5 128 473.5C128 477.1 125.1 480 121.5 480L64 480L64 512L96 512L96 528L128 528L128 511.5C146.2 508.4 160 492.6 160 473.6C160 455.9 148 440.6 130.9 436.3L100.9 428.8C98 428.1 96 425.5 96 422.5C96 418.9 98.9 416 102.5 416L152 416L152 384L128 384L128 368L96 368L96 384.5zM192 496L192 528L224 528L224 496L192 496zM488 376L448 376L448 416L488 416L488 376zM536 480L536 520L576 520L576 480L536 480z"/></svg>