<svg xmlns="http://www.w3.org/2000/svg" viewBox="0 0 640 640"><!--! Font Awesome Pro 7.2.0 by @fontawesome - https://fontawesome.com License - https://fontawesome.com/license (Commercial License) Copyright 2026 Fonticons, Inc. --><path opacity=".4" fill="currentColor" d="M80 144L80 162.2L163.4 162.2C165.1 157.1 166.8 152 168.5 146.9C190.8 136.8 203.4 131 206.4 129.7C199.9 101.3 174.4 80.1 144 80.1C108.7 80.1 80 108.8 80 144.1zM80 210.2L80 528L144 528L144 424L112 424L112 316.3L115.7 305.2L147.4 210.2L80 210.2zM209.3 328L240 328L240 528L304 528L304 400L464 400L464 528L528 528L528 328L558.7 328L521.7 216.9L384 154.3L246.3 216.9L209.3 328zM336 240L432 240L432 336L336 336L336 240z"/><path fill="currentColor" d="M80 528L80 210.2L147.4 210.2C155.9 184.7 161.2 168.7 163.4 162.2L80 162.2L80 144C80 108.7 108.7 80 144 80C174.4 80 199.9 101.2 206.4 129.6L250.6 109.5C236.1 64.5 193.8 32 144 32C82.1 32 32 82.1 32 144L32 576L144 576L144 528L80 528zM393.9 106.2L384 101.7L374.1 106.2L217 177.6L207.5 181.9L204.2 191.8L161.3 320.4L160.1 324.1L160.1 376L192.1 376L192.1 576L576.1 576L576.1 376L608.1 376L608.1 324.1L606.9 320.4L564 191.8L560.7 181.9L551.2 177.6L394.1 106.2zM416 448L416 528L352 528L352 448L416 448zM528 528L464 528L464 400L304 400L304 528L240 528L240 328L209.3 328L246.3 216.9L384 154.3L521.7 216.9L558.7 328L528 328L528 528zM432 336L432 240L336 240L336 336L432 336z"/></svg>