<svg xmlns="http://www.w3.org/2000/svg" viewBox="0 0 640 640"><!--! Font Awesome Pro 7.2.0 by @fontawesome - https://fontawesome.com License - https://fontawesome.com/license (Commercial License) Copyright 2026 Fonticons, Inc. --><path opacity=".4" fill="currentColor" d="M128 320L128 368L310.1 368C287.1 345 271.1 329 262.1 320L296 286.1C298.1 288.2 327.8 317.9 385 375.1L402 392.1C399.9 394.2 370.2 423.9 313 481.1L296 498.1L262.1 464.2C271.1 455.2 287.1 439.2 310.1 416.2L128 416.2L128 464.2L176 464.2L176 528.2L464 528.2L464 272.2L304 272.2L304 112.2L176 112.2L176 320.2L128 320.2z"/><path fill="currentColor" d="M176 112L304 112L304 272L464 272L464 528L176 528L176 464L128 464L128 576L512 576L512 224L352 64L128 64L128 320L176 320L176 112zM352 131.9L444.1 224L352 224L352 131.9zM401.9 392C399.8 389.9 370.1 360.2 312.9 303L295.9 286L262 319.9C271 328.9 287 344.9 310 367.9L64 368L64 416L310.1 416C287.1 439 271.1 455 262.1 464L296 497.9C298.1 495.8 327.8 466.1 385 408.9L402 391.9z"/></svg>