<svg xmlns="http://www.w3.org/2000/svg" viewBox="0 0 640 640"><!--! Font Awesome Pro 7.2.0 by @fontawesome - https://fontawesome.com License - https://fontawesome.com/license (Commercial License) Copyright 2026 Fonticons, Inc. --><path opacity=".4" fill="currentColor" d="M96 176L544 176L544 464L96 464L96 176zM136 280L136 360C136 390.9 161.1 416 192 416L208 416C238.9 416 264 390.9 264 360L264 304L216 304L216 360C216 364.4 212.4 368 208 368L192 368C187.6 368 184 364.4 184 360L184 280C184 275.6 187.6 272 192 272L256 272L256 224L192 224C161.1 224 136 249.1 136 280zM304 224L304 416L352 416L352 224L304 224zM392 224L392 416L440 416L440 352L504 352L504 304L440 304L440 272L520 272L520 224L392 224z"/><path fill="currentColor" d="M96 176L96 464L544 464L544 176L96 176zM48 128L592 128L592 512L48 512L48 128zM184 280L184 360C184 364.4 187.6 368 192 368L208 368C212.4 368 216 364.4 216 360L216 304L264 304L264 360C264 390.9 238.9 416 208 416L192 416C161.1 416 136 390.9 136 360L136 280C136 249.1 161.1 224 192 224L256 224L256 272L192 272C187.6 272 184 275.6 184 280zM352 224L352 416L304 416L304 224L352 224zM416 224L520 224L520 272L440 272L440 304L504 304L504 352L440 352L440 416L392 416L392 224L416 224z"/></svg>