<svg xmlns="http://www.w3.org/2000/svg" viewBox="0 0 640 640"><!--! Font Awesome Pro 7.2.0 by @fontawesome - https://fontawesome.com License - https://fontawesome.com/license (Commercial License) Copyright 2026 Fonticons, Inc. --><path opacity=".4" fill="currentColor" d="M112 400L160 400L160 528L112 528L112 400zM160 272L192 272L192 352L160 352L160 272zM208 144L432 144L432 224L352 224L352 176L288 176L288 224L208 224L208 144zM208 400L432 400L432 528L368 528L368 440L272 440L272 528L208 528L208 400zM240 272L400 272L400 352L352 352L352 304L288 304L288 352L240 352L240 272zM448 272L480 272L480 352L448 352L448 272zM480 400L528 400L528 528L480 528L480 400z"/><path fill="currentColor" d="M208 64L208 96L248 96L248 64L296 64L296 96L344 96L344 64L392 64L392 96L432 96L432 64L480 64L480 224L528 224L528 352L576 352L576 576L64 576L64 352L112 352L112 224L160 224L160 64L208 64zM208 152L208 224L288 224L288 176L352 176L352 224L432 224L432 144L208 144L208 152zM160 272L160 352L192 352L192 272L160 272zM288 352L288 304L352 304L352 352L400 352L400 272L240 272L240 352L288 352zM448 272L448 352L480 352L480 272L448 272zM528 400L480 400L480 528L528 528L528 400zM208 400L208 528L272 528L272 440L368 440L368 528L432 528L432 400L208 400zM160 528L160 400L112 400L112 528L160 528z"/></svg>