<svg xmlns="http://www.w3.org/2000/svg" viewBox="0 0 640 640"><!--! Font Awesome Pro 7.2.0 by @fontawesome - https://fontawesome.com License - https://fontawesome.com/license (Commercial License) Copyright 2026 Fonticons, Inc. --><path opacity=".4" fill="currentColor" d="M144 144L144 240L240 240L240 144L144 144zM144 400L144 496L240 496L240 400L144 400zM400 144L400 240L496 240L496 144L400 144z"/><path fill="currentColor" d="M240 144L240 240L144 240L144 144L240 144zM144 96L96 96L96 288L288 288L288 96L144 96zM240 400L240 496L144 496L144 400L240 400zM144 352L96 352L96 544L288 544L288 352L144 352zM400 144L496 144L496 240L400 240L400 144zM352 96L352 288L544 288L544 96L352 96zM472 352L424 352L424 424L352 424L352 472L424 472L424 544L472 544L472 472L544 472L544 424L472 424L472 352z"/></svg>