<svg xmlns="http://www.w3.org/2000/svg" viewBox="0 0 640 640"><!--! Font Awesome Pro 7.2.0 by @fontawesome - https://fontawesome.com License - https://fontawesome.com/license (Commercial License) Copyright 2026 Fonticons, Inc. --><path opacity=".4" fill="currentColor" d="M144 144L496 144L496 320L144 320L144 144zM144 368L496 368L496 496L144 496L144 368zM312 432C312 445.3 322.7 456 336 456C349.3 456 360 445.3 360 432C360 418.7 349.3 408 336 408C322.7 408 312 418.7 312 432zM408 432C408 445.3 418.7 456 432 456C445.3 456 456 445.3 456 432C456 418.7 445.3 408 432 408C418.7 408 408 418.7 408 432z"/><path fill="currentColor" d="M144 144L144 320L496 320L496 144L144 144zM144 368L144 496L496 496L496 368L144 368zM96 320L96 96L544 96L544 544L96 544L96 320zM312 432C312 418.7 322.7 408 336 408C349.3 408 360 418.7 360 432C360 445.3 349.3 456 336 456C322.7 456 312 445.3 312 432zM432 408C445.3 408 456 418.7 456 432C456 445.3 445.3 456 432 456C418.7 456 408 445.3 408 432C408 418.7 418.7 408 432 408z"/></svg>