<svg xmlns="http://www.w3.org/2000/svg" viewBox="0 0 640 640"><!--! Font Awesome Pro 7.2.0 by @fontawesome - https://fontawesome.com License - https://fontawesome.com/license (Commercial License) Copyright 2026 Fonticons, Inc. --><path opacity=".4" fill="currentColor" d="M112 112L112 528L208 528L208 416L304 416L304 528L334.6 528C349.9 493.1 365.2 458.1 380.5 423.2C372.5 406.5 368 387.8 368 368C368 335.5 380.1 305.9 400 283.3L400 112L112 112zM184 200L232 200L232 152L280 152L280 200L328 200L328 248L280 248L280 296L232 296L232 248L184 248L184 200z"/><path fill="currentColor" d="M112 112L400 112L400 283.3C413 268.5 429.4 256.8 448 249.3L448 64L64 64L64 576L313.6 576L334.6 528L304 528L304 416L208 416L208 528L112 528L112 112zM576 368C576 323.8 540.2 288 496 288C451.8 288 416 323.8 416 368C416 412.2 451.8 448 496 448C540.2 448 576 412.2 576 368zM584 480L408 480L352 608L640 608L584 480zM232 152L232 200L184 200L184 248L232 248L232 296L280 296L280 248L328 248L328 200L280 200L280 152L232 152z"/></svg>