<svg xmlns="http://www.w3.org/2000/svg" viewBox="0 0 640 640"><!--! Font Awesome Pro 7.2.0 by @fontawesome - https://fontawesome.com License - https://fontawesome.com/license (Commercial License) Copyright 2026 Fonticons, Inc. --><path opacity=".4" fill="currentColor" d="M144 112L144 528L288 528L288 448L224 448C224 395 267 352 320 352C373 352 416 395 416 448L352 448L352 528L496 528L496 112L144 112zM192 160L256 160L256 224L192 224L192 160zM192 256L256 256L256 320L192 320L192 256zM288 160L352 160L352 224L288 224L288 160zM288 256L352 256L352 320L288 320L288 256zM384 160L448 160L448 224L384 224L384 160zM384 256L448 256L448 320L384 320L384 256z"/><path fill="currentColor" d="M576 64L64 64L64 112L96 112L96 528L64 528L64 576L576 576L576 528L544 528L544 112L576 112L576 64zM496 528L352 528L352 448L416 448C416 395 373 352 320 352C267 352 224 395 224 448L288 448L288 528L144 528L144 112L496 112L496 528zM256 160L192 160L192 224L256 224L256 160zM288 160L288 224L352 224L352 160L288 160zM448 160L384 160L384 224L448 224L448 160zM192 256L192 320L256 320L256 256L192 256zM352 256L288 256L288 320L352 320L352 256zM384 256L384 320L448 320L448 256L384 256z"/></svg>