<svg xmlns="http://www.w3.org/2000/svg" viewBox="0 0 640 640"><!--! Font Awesome Pro 7.2.0 by @fontawesome - https://fontawesome.com License - https://fontawesome.com/license (Commercial License) Copyright 2026 Fonticons, Inc. --><path opacity=".4" fill="currentColor" d="M112 327.1L112 528L368 528L368 327.1L240 215.8L112 327.1zM192 336L288 336L288 432L192 432L192 336z"/><path fill="currentColor" d="M288 64L288 130.3L336 172L336 111.9L376 111.9L376 175.9L424 175.9L424 111.9L472 111.9L472 175.9L520 175.9L520 111.9L560 111.9L560 527.9L464 527.9L464 575.9L608 575.9L608 63.9L288 63.9zM255.8 165.9L240.1 152.2L224.4 165.9L40.4 325.9L64.1 353.2L64.1 576L416.1 576L416.1 353.2L439.8 325.9L255.8 165.9zM368 327.1L368 528L112 528L112 327.1L240 215.8L368 327.1zM288 336L192 336L192 432L288 432L288 336z"/></svg>