<svg xmlns="http://www.w3.org/2000/svg" viewBox="0 0 640 640"><!--! Font Awesome Pro 7.2.0 by @fontawesome - https://fontawesome.com License - https://fontawesome.com/license (Commercial License) Copyright 2026 Fonticons, Inc. --><path opacity=".4" fill="currentColor" d="M80 224L80 496L133.3 496L160 416L320 416L346.7 496L560 496L560 224L80 224zM296 320C296 350.9 270.9 376 240 376C209.1 376 184 350.9 184 320C184 289.1 209.1 264 240 264C270.9 264 296 289.1 296 320zM384 272L512 272L512 320L384 320L384 272zM384 368L512 368L512 416L384 416L384 368z"/><path fill="currentColor" d="M560 224L560 496L346.7 496L320 416L160 416L133.3 496L80 496L80 224L560 224zM80 96L32 96L32 544L608 544L608 96L80 96zM296 320C296 289.1 270.9 264 240 264C209.1 264 184 289.1 184 320C184 350.9 209.1 376 240 376C270.9 376 296 350.9 296 320zM408 272L384 272L384 320L512 320L512 272L408 272zM408 368L384 368L384 416L512 416L512 368L408 368z"/></svg>