<svg xmlns="http://www.w3.org/2000/svg" viewBox="0 0 640 640"><!--! Font Awesome Pro 7.2.0 by @fontawesome - https://fontawesome.com License - https://fontawesome.com/license (Commercial License) Copyright 2026 Fonticons, Inc. --><path opacity=".4" fill="currentColor" d="M272.5 336L272.5 496L478.5 496L530.4 318.2L427 226.3L399.6 318.8L394.5 336L272.6 336z"/><path fill="currentColor" d="M423.9 67.4L446 72.7L614 112.7L638.5 118.5L631.4 142.7L519.4 526.7L514.4 544L224.4 544L224.4 288L358.5 288L417.4 89.2L423.9 67.4zM457 124.6L442 175.4L545.2 267.2L578.4 153.5L457.1 124.6zM530.3 318.2L426.9 226.3L399.5 318.8L394.4 336L272.5 336L272.5 496L478.5 496L530.4 318.2zM32.5 384C50.2 384 64.5 398.3 64.5 416C64.5 433.7 50.2 448 32.5 448C14.8 448 .5 433.7 .5 416C.5 398.3 14.8 384 32.5 384zM64.5 512C64.5 529.7 50.2 544 32.5 544C14.8 544 .5 529.7 .5 512C.5 494.3 14.8 480 32.5 480C50.2 480 64.5 494.3 64.5 512zM128.5 336C146.2 336 160.5 350.3 160.5 368C160.5 385.7 146.2 400 128.5 400C110.8 400 96.5 385.7 96.5 368C96.5 350.3 110.8 336 128.5 336zM64.5 320C64.5 337.7 50.2 352 32.5 352C14.8 352 .5 337.7 .5 320C.5 302.3 14.8 288 32.5 288C50.2 288 64.5 302.3 64.5 320zM128.5 432C146.2 432 160.5 446.3 160.5 464C160.5 481.7 146.2 496 128.5 496C110.8 496 96.5 481.7 96.5 464C96.5 446.3 110.8 432 128.5 432z"/></svg>