<svg xmlns="http://www.w3.org/2000/svg" viewBox="0 0 640 640"><!--! Font Awesome Pro 7.2.0 by @fontawesome - https://fontawesome.com License - https://fontawesome.com/license (Commercial License) Copyright 2026 Fonticons, Inc. --><path opacity=".4" fill="currentColor" d="M80 176L80 464L560 464L560 176L80 176zM128 368L168 368L168 272L136 272L136 224L216 224L216 368L256 368L256 416L128 416L128 368zM269.8 264.4L286.7 244.7C312.6 214.4 359.4 214.2 385.6 244.2C407.6 269.4 407.1 307.1 384.4 331.6L350.8 368L408 368L408 416L280 416L280 374L349.1 299.1C355.1 292.6 355.3 282.5 349.4 275.8C342.4 267.8 330 267.9 323.1 275.9L306.2 295.6L269.8 264.4z"/><path fill="currentColor" d="M560 176L560 464L80 464L80 176L560 176zM80 128L32 128L32 512L608 512L608 128L80 128zM136 224L136 272L168 272L168 368L128 368L128 416L256 416L256 368L216 368L216 224L136 224zM349.4 275.8C355.3 282.5 355.1 292.5 349.1 299.1L280 374L280 416L408 416L408 368L350.8 368L384.4 331.6C407.1 307 407.6 269.3 385.6 244.2C359.4 214.2 312.6 214.5 286.7 244.7L269.8 264.4L306.2 295.6L323.1 275.9C330 267.8 342.4 267.8 349.4 275.8z"/></svg>