<svg xmlns="http://www.w3.org/2000/svg" viewBox="0 0 640 640"><!--! Font Awesome Pro 7.2.0 by @fontawesome - https://fontawesome.com License - https://fontawesome.com/license (Commercial License) Copyright 2026 Fonticons, Inc. --><path opacity=".4" fill="currentColor" d="M304.5 208C304.5 261 347.5 304 400.5 304C453.5 304 496.5 261 496.5 208C496.5 155 453.5 112 400.5 112C347.5 112 304.5 155 304.5 208z"/><path fill="currentColor" d="M496.5 208C496.5 155 453.5 112 400.5 112C347.5 112 304.5 155 304.5 208C304.5 261 347.5 304 400.5 304C453.5 304 496.5 261 496.5 208zM544.5 208C544.5 287.5 480 352 400.5 352C369.4 352 340.6 342.1 317.1 325.4L229.7 412.8C266.1 449.2 287.4 470.5 293.7 476.8L259.8 510.7C253.5 504.4 232.2 483.1 195.8 446.7L165.6 476.8C202 513.2 223.3 534.5 229.6 540.8L195.7 574.7C192.2 571.2 165.2 544.2 114.7 493.7L97.7 476.7L114.7 459.7L283.1 291.3C266.3 267.8 256.5 239 256.5 207.9C256.5 128.4 321 63.9 400.5 63.9C480 63.9 544.5 128.4 544.5 207.9z"/></svg>