<svg xmlns="http://www.w3.org/2000/svg" viewBox="0 0 640 640"><!--! Font Awesome Pro 7.2.0 by @fontawesome - https://fontawesome.com License - https://fontawesome.com/license (Commercial License) Copyright 2026 Fonticons, Inc. --><path opacity=".4" fill="currentColor" d="M160.7 240L320 165L479.3 240L320 314.9L160.7 240zM160.7 400L218 373L320 421L450.2 359.7L450.2 359.7L422 373L479.3 399.9L320 474.8L160.7 399.9z"/><path fill="currentColor" d="M592 400L320 528L48 400L161.6 346.5L218 373L160.7 400L320 474.9L479.3 400L422 373.1L478.4 346.5L592 400zM592 240L320 368L48 240L320 112L592 240zM160.7 240L320 314.9L479.3 240L320 165L160.7 240z"/></svg>