<svg xmlns="http://www.w3.org/2000/svg" viewBox="0 0 640 640"><!--! Font Awesome Pro 7.2.0 by @fontawesome - https://fontawesome.com License - https://fontawesome.com/license (Commercial License) Copyright 2026 Fonticons, Inc. --><path opacity=".4" fill="currentColor" d="M283 320L368 239.5L368 288L528 288L528 352L368 352L368 400.5L283 320z"/><path fill="currentColor" d="M416 128C396 146.9 340 199.9 248 287L213.1 320C222.2 328.6 273.8 377.5 368 466.6L416 512L416 400L576 400L576 240L416 240L416 128zM283 320L368 239.5L368 288L528 288L528 352L368 352L368 400.5L283 320zM232 496L112 496L112 144L256 144L256 96L64 96L64 544L256 544L256 496L232 496z"/></svg>