<svg xmlns="http://www.w3.org/2000/svg" viewBox="0 0 640 640"><!--! Font Awesome Pro 7.2.0 by @fontawesome - https://fontawesome.com License - https://fontawesome.com/license (Commercial License) Copyright 2026 Fonticons, Inc. --><path opacity=".4" fill="currentColor" d="M176 112L176 176L272 176C277.3 176 282.7 176 288 176L288 432L243.9 432L320 508.1L396.1 432L352 432L352 112L176 112z"/><path fill="currentColor" d="M464 432L512 384L400 384L400 64L128 64L128 224L240 224L240 384L128 384C149.7 405.7 202.4 458.4 286.1 542.1L320 576C329.9 566.1 378 518 464 432zM396.1 432L320 508.1L243.9 432L288 432L288 176L176 176L176 112L352 112L352 432L396.1 432z"/></svg>