<svg xmlns="http://www.w3.org/2000/svg" viewBox="0 0 640 640"><!--! Font Awesome Pro 7.2.0 by @fontawesome - https://fontawesome.com License - https://fontawesome.com/license (Commercial License) Copyright 2026 Fonticons, Inc. --><path opacity=".4" fill="currentColor" d="M176 256C176 309.2 204.9 355.8 248 380.8L272 394.7L272 448.1L368 448.1L368 394.7L392 380.8C435.2 355.8 464 309.3 464 256C464 176.5 399.5 112 320 112C240.5 112 176 176.5 176 256zM224 256C224 203 267 160 320 160L320 208C293.5 208 272 229.5 272 256L224 256z"/><path fill="currentColor" d="M368 394.6L368 448L272 448L272 394.6L248 380.7C204.8 355.7 176 309.2 176 255.9C176 176.4 240.5 111.9 320 111.9C399.5 111.9 464 176.4 464 255.9C464 309.1 435.1 355.7 392 380.7L368 394.6zM416 422.3C473.4 389.1 512 327.1 512 256C512 150 426 64 320 64C214 64 128 150 128 256C128 327.1 166.6 389.1 224 422.3L224 576L416 576L416 422.3zM272 256C272 229.5 293.5 208 320 208L320 160C267 160 224 203 224 256L272 256z"/></svg>