<svg xmlns="http://www.w3.org/2000/svg" viewBox="0 0 640 640"><!--! Font Awesome Pro 7.2.0 by @fontawesome - https://fontawesome.com License - https://fontawesome.com/license (Commercial License) Copyright 2026 Fonticons, Inc. --><path opacity=".4" fill="currentColor" d="M176 252.6C176 280.7 185.1 313.6 201.6 349.1C217.9 384.2 240 419.2 262.9 450.6C283.2 478.6 303.7 503.1 320.1 521.7C336.5 503.1 356.9 478.6 377.3 450.6C400.2 419.2 422.3 384.2 438.6 349.1C455 313.6 464.2 280.7 464.2 252.6C464.2 175.8 400.5 112 320.2 112C239.9 112 176 175.7 176 252.6z"/><path fill="currentColor" d="M320 112C400.3 112 464 175.7 464 252.6C464 280.7 454.9 313.6 438.4 349.1C422.1 384.2 400 419.2 377.1 450.6C356.8 478.6 336.3 503.1 319.9 521.7C303.5 503.1 283.1 478.6 262.7 450.6C239.8 419.2 217.7 384.2 201.4 349.1C185 313.6 175.8 280.7 175.8 252.6C175.8 175.8 239.5 112 319.8 112zM352.9 557C407.7 495.4 512 363.8 512 252.6C512 148.4 426 64 320 64C214 64 128 148.4 128 252.6C128 363.8 232.3 495.4 287.1 557C297.3 568.5 305.8 577.5 311.6 583.5C316.9 589 320 592 320 592C320 592 323 589 328.4 583.5C334.2 577.5 342.7 568.5 352.9 557z"/></svg>