<svg xmlns="http://www.w3.org/2000/svg" viewBox="0 0 640 640"><!--! Font Awesome Pro 7.2.0 by @fontawesome - https://fontawesome.com License - https://fontawesome.com/license (Commercial License) Copyright 2026 Fonticons, Inc. --><path opacity=".4" fill="currentColor" d="M112 400C112 470.7 169.3 528 240 528C266.6 528 283.9 517.1 297.9 497.8C313.5 476.3 324.3 444.6 330.7 407.7C335 383.2 337 358.4 337.8 336.1L286.3 387.6C287.4 391.6 287.9 395.7 287.9 400C287.9 426.5 266.4 448 239.9 448C213.4 448 191.9 426.5 191.9 400C191.9 373.5 213.4 352 239.9 352C244.2 352 248.4 352.6 252.3 353.6L303.8 302.1C281.5 302.9 256.7 304.9 232.2 309.2C195.3 315.7 163.6 326.5 142.1 342C122.8 356 111.9 373.3 111.9 399.9z"/><path fill="currentColor" d="M512 64L432 112L401 205.1L352 254.1C270.9 251.4 64 258.5 64 400C64 497.2 142.8 576 240 576C381.5 576 388.6 369.1 385.9 288.1L434.9 239.1L528 208.1L576 128.1L512 64.1zM232.3 309.3C256.8 305 281.6 303 303.9 302.2L252.4 353.7C248.4 352.6 244.3 352.1 240 352.1C213.5 352.1 192 373.6 192 400.1C192 426.6 213.5 448.1 240 448.1C266.5 448.1 288 426.6 288 400.1C288 395.8 287.4 391.6 286.4 387.7L337.9 336.2C337.1 358.5 335.1 383.3 330.8 407.8C324.3 444.7 313.5 476.4 298 497.9C284 517.2 266.7 528.1 240.1 528.1C169.4 528.1 112.1 470.8 112.1 400.1C112.1 373.5 123 356.2 142.3 342.2C163.8 326.6 195.5 315.8 232.4 309.4z"/></svg>