<svg xmlns="http://www.w3.org/2000/svg" viewBox="0 0 640 640"><!--! Font Awesome Pro 7.2.0 by @fontawesome - https://fontawesome.com License - https://fontawesome.com/license (Commercial License) Copyright 2026 Fonticons, Inc. --><path opacity=".4" fill="currentColor" d="M176 252.6C176 175.7 239.7 112 320 112C400.3 112 464 175.7 464 252.6C464 280.7 454.9 313.6 438.4 349.1C422.1 384.2 400 419.2 377.1 450.6C356.8 478.6 336.3 503.1 319.9 521.7C303.5 503.1 283.1 478.6 262.7 450.6C239.8 419.2 217.7 384.2 201.4 349.1C185 313.6 175.8 280.7 175.8 252.6zM239.4 315.1C249.2 329.7 277.5 356 320 356C362.5 356 390.9 329.7 400.6 315.1L367.3 292.9C362.8 299.6 345.7 316 319.9 316C294.1 316 277 299.6 272.5 292.9L239.2 315.1zM240 216C240 229.3 250.7 240 264 240C277.3 240 288 229.3 288 216C288 202.7 277.3 192 264 192C250.7 192 240 202.7 240 216zM352 216C352 229.3 362.7 240 376 240C389.3 240 400 229.3 400 216C400 202.7 389.3 192 376 192C362.7 192 352 202.7 352 216z"/><path fill="currentColor" d="M176 252.6C176 280.7 185.1 313.6 201.6 349.1C217.9 384.2 240 419.2 262.9 450.6C283.2 478.6 303.7 503.1 320.1 521.7C336.5 503.1 356.9 478.6 377.3 450.6C400.2 419.2 422.3 384.2 438.6 349.1C455 313.6 464.2 280.7 464.2 252.6C464.2 175.8 400.5 112 320.2 112C239.9 112 176 175.7 176 252.6zM512 252.6C512 363.8 407.7 495.4 352.9 557C342.7 568.5 334.2 577.5 328.4 583.5C323.1 589 320 592 320 592C320 592 317 589 311.6 583.5C305.8 577.5 297.3 568.4 287.1 557C232.3 495.4 128 363.8 128 252.6C128 148.4 214 64 320 64C426 64 512 148.4 512 252.6zM264 192C277.3 192 288 202.7 288 216C288 229.3 277.3 240 264 240C250.7 240 240 229.3 240 216C240 202.7 250.7 192 264 192zM352 216C352 202.7 362.7 192 376 192C389.3 192 400 202.7 400 216C400 229.3 389.3 240 376 240C362.7 240 352 229.3 352 216zM239.4 315.1L272.7 292.9C277.2 299.6 294.3 316 320.1 316C345.9 316 363 299.6 367.5 292.9L400.8 315.1C390.9 329.7 362.5 356 320 356C277.5 356 249.1 329.7 239.4 315.1z"/></svg>