<svg xmlns="http://www.w3.org/2000/svg" viewBox="0 0 640 640"><!--! Font Awesome Pro 7.2.0 by @fontawesome - https://fontawesome.com License - https://fontawesome.com/license (Commercial License) Copyright 2026 Fonticons, Inc. --><path opacity=".4" fill="currentColor" d="M224 208C224 261 267 304 320 304C373 304 416 261 416 208C416 155 373 112 320 112C267 112 224 155 224 208z"/><path fill="currentColor" d="M224 208C224 155 267 112 320 112C373 112 416 155 416 208C416 261 373 304 320 304C267 304 224 261 224 208zM344 350C412.1 338.6 464 279.3 464 208C464 128.5 399.5 64 320 64C240.5 64 176 128.5 176 208C176 279.4 227.9 338.6 296 350L296 576L344 576L344 350z"/></svg>