<svg xmlns="http://www.w3.org/2000/svg" viewBox="0 0 640 640"><!--! Font Awesome Pro 7.2.0 by @fontawesome - https://fontawesome.com License - https://fontawesome.com/license (Commercial License) Copyright 2026 Fonticons, Inc. --><path opacity=".4" fill="currentColor" d="M80 176L80 464L304 464L304 176L80 176zM128 224L256 224L256 416L128 416L128 224zM352 176L352 464L560 464L560 176L352 176z"/><path fill="currentColor" d="M304 176L304 464L80 464L80 176L304 176zM352 176L560 176L560 464L352 464L352 176zM80 128L32 128L32 512L608 512L608 128L80 128zM128 224L128 416L256 416L256 224L128 224z"/></svg>