<svg xmlns="http://www.w3.org/2000/svg" viewBox="0 0 640 640"><!--! Font Awesome Pro 7.2.0 by @fontawesome - https://fontawesome.com License - https://fontawesome.com/license (Commercial License) Copyright 2026 Fonticons, Inc. --><path opacity=".4" fill="currentColor" d="M176 160L464 160L464 464C428.7 464 400 492.7 400 528L240 528C240 492.7 211.3 464 176 464L176 160zM224 320C224 373 267 416 320 416C373 416 416 373 416 320C416 267 373 224 320 224C267 224 224 267 224 320z"/><path fill="currentColor" d="M32 64L608 64L608 256L560 256L560 112L80 112L80 256L32 256L32 64zM400 528C400 492.7 428.7 464 464 464L464 160L512 160L512 576L128 576L128 160L176 160L176 464C211.3 464 240 492.7 240 528L400 528zM416 320C416 373 373 416 320 416C267 416 224 373 224 320C224 267 267 224 320 224C373 224 416 267 416 320z"/></svg>