<svg xmlns="http://www.w3.org/2000/svg" viewBox="0 0 640 640"><!--! Font Awesome Pro 7.2.0 by @fontawesome - https://fontawesome.com License - https://fontawesome.com/license (Commercial License) Copyright 2026 Fonticons, Inc. --><path opacity=".4" fill="currentColor" d="M94 64L126 576L128.1 576L96.1 64L94 64zM147.2 112L150.2 160L224.1 160L224.1 208L153.2 208L173.2 528L296.4 528L296.4 224L344.4 224L344.4 528L467 528L487 208L416.1 208L416.1 160L490 160L493 112L147.2 112z"/><path fill="currentColor" d="M96.1 64L544.1 64L541.1 112L512.1 576L128.1 576L96.1 64zM150.2 160L224.1 160L224.1 208L153.2 208L173.2 528L296.4 528L296.4 224L344.4 224L344.4 528L467 528L487 208L416.1 208L416.1 160L490 160L493 112L147.2 112L150.2 160z"/></svg>