<svg xmlns="http://www.w3.org/2000/svg" viewBox="0 0 640 640"><!--! Font Awesome Pro 7.2.0 by @fontawesome - https://fontawesome.com License - https://fontawesome.com/license (Commercial License) Copyright 2026 Fonticons, Inc. --><path opacity=".4" fill="currentColor" d="M120 352C120 301.1 155.6 252 212.6 223.9C224.3 236.9 238.3 247.9 254 256L224 256L224 304L416 304L416 256L386 256C401.8 247.9 415.8 236.9 427.5 223.8C430.8 225.4 434 227.1 437.2 228.8L451.9 236.9L464.5 225.8C477.3 214.7 493.8 208 512 208L513.3 208L498.2 268.3L495.7 278.2L501.1 286.9C507.4 297 512.3 307.7 515.4 318.7L520.4 336L559.9 336L559.9 432L494.4 432L487.2 440.4C475.5 454 461.2 465.4 445 473.5L431.8 480.2L431.8 528L392.1 528C386.6 511.2 382.3 497.9 379 488L260.6 488L247.5 528L207.8 528L207.8 480.2L194.6 473.5C150.4 451.1 120 405.1 120 352zM432 360C432 373.3 442.7 384 456 384C469.3 384 480 373.3 480 360C480 346.7 469.3 336 456 336C442.7 336 432 346.7 432 360z"/><path fill="currentColor" d="M224 128C224 75 267 32 320 32C373 32 416 75 416 128C416 181 373 224 320 224C267 224 224 181 224 128zM72 352C72 279.2 119.1 218.2 187 183.4C193.2 198.4 201.9 212.1 212.6 224C155.6 252 120 301.1 120 352.1C120 405.2 150.4 451.2 194.8 473.6L208 480.3L208 528.1L247.7 528.1L260.8 488.1L379.2 488.1C382.4 498 386.8 511.3 392.3 528.1L432 528.1L432 480.3L445.2 473.6C461.4 465.4 475.7 454.1 487.4 440.5L494.6 432.1L560.1 432.1L560.1 336.1L520.6 336.1L515.6 318.8C512.4 307.8 507.6 297.2 501.3 287L495.9 278.3L498.4 268.4L513.5 208.1L512.2 208.1C494 208.1 477.5 214.8 464.8 225.9L452.2 237L437.5 228.9C434.3 227.2 431.1 225.5 427.8 223.9C440.7 209.5 450.7 192.4 456.9 173.6C473.5 165 492.3 160.1 512.2 160.1L574.9 160.1C572 171.5 562.8 208.3 547.3 270.6C550.4 276.3 553.2 282.1 555.7 288.1L608.2 288.1L608.2 480.1L516.4 480.1C505.6 491.2 493.5 501 480.2 509.1L480.2 576.1L357.6 576.1C354.4 566.2 350 552.9 344.5 536.1L295.7 536.1C290.2 552.9 285.9 566.2 282.6 576.1L160 576.1L160 509.1C107.3 476.8 72 418.6 72 352.1zM456 336C469.3 336 480 346.7 480 360C480 373.3 469.3 384 456 384C442.7 384 432 373.3 432 360C432 346.7 442.7 336 456 336zM248 256L416 256L416 304L224 304L224 256L248 256z"/></svg>