<svg xmlns="http://www.w3.org/2000/svg" viewBox="0 0 640 640"><!--! Font Awesome Pro 7.2.0 by @fontawesome - https://fontawesome.com License - https://fontawesome.com/license (Commercial License) Copyright 2026 Fonticons, Inc. --><path opacity=".4" fill="currentColor" d="M112 488C112 501.3 122.7 512 136 512C142.1 512 147.8 509.7 152 505.9L152 488C152 482.2 152.2 476.4 152.7 470.7C148.4 466.5 142.5 464 136 464C122.7 464 112 474.7 112 488zM200 488L200 528L384 528L384 496L296.2 496C369.2 426.9 364.8 431 383.1 413.7L384 415.1C405.6 451.1 417 470.1 428.6 489.4L432.6 496L451.8 528L489.1 528L403.5 385.3L400.1 379.6L400.1 320L488.1 320L488.1 266.5L437.8 225.5C423.9 214.2 406.5 208 388.5 208C385.6 208 382.7 208.3 380 209L354.5 215L350.7 189.1C346.7 161.6 333.9 135.6 313.5 115.4L310.1 112L308.8 112L308 117.8C301.9 160.8 315.8 204.1 345.4 235.4L352 242.3L352 319.6L333 323.6C257 339.8 200 407.2 200 488zM432 256C432 264.8 424.8 272 416 272C407.2 272 400 264.8 400 256C400 247.2 407.2 240 416 240C424.8 240 432 247.2 432 256z"/><path fill="currentColor" d="M459 89.4C463.2 118.9 459.4 148.5 448.7 175.4C455.5 179.1 461.9 183.4 468 188.4L527.1 236.6L535.9 243.8L535.9 368.1L448.9 368.1L534.7 511.2C545.4 529 558.3 550.6 573.7 576.1L152 576L152 558.2C146.9 559.4 141.5 560 136 560C96.2 560 64 527.8 64 488C64 448.2 96.2 416 136 416C145.4 416 154.3 417.8 162.6 421.1C184.2 354.7 237.2 302.4 304 281.7L304 261.1C268.8 219.9 252.7 165.3 260.5 111C263.2 92.4 265.4 76.8 267.2 64C279.2 64 296.8 64 320 64L329.9 64C334 68.1 339.8 73.8 347.3 81.3C369.7 103.5 385.4 130.8 393.5 160.1C402.2 160.5 410.8 161.7 419.2 163.8C413.6 138.8 403.3 114.8 388.5 93.4C393.2 86.9 398.5 80.8 404.3 75.1L415.4 64.1L455.4 64.1L459 89.5zM152.7 470.7C148.4 466.5 142.5 464 136 464C122.7 464 112 474.7 112 488C112 501.3 122.7 512 136 512C142.1 512 147.8 509.7 152 505.9L152 488C152 482.2 152.2 476.4 152.7 470.7zM384 501.7L384 496L296.2 496C369.2 426.9 364.8 431 383.1 413.7L384 415.1C405.6 451.1 417 470.1 428.6 489.4L432.6 496L451.8 528L489.1 528L403.5 385.3L400.1 379.6L400.1 320L488.1 320L488.1 266.5L437.8 225.5C423.9 214.2 406.5 208 388.5 208C385.6 208 382.7 208.3 380 209L354.5 215L350.7 189.1C346.7 161.6 333.9 135.6 313.5 115.4L313.5 115.4L310.1 112L308.8 112L308 117.8C301.9 160.8 315.8 204.1 345.4 235.4L352 242.3L352 319.6L333 323.6C257 339.8 200 407.2 200 488L200 528L384 528L384 501.7zM416 240C424.8 240 432 247.2 432 256C432 264.8 424.8 272 416 272C407.2 272 400 264.8 400 256C400 247.2 407.2 240 416 240z"/></svg>