<svg xmlns="http://www.w3.org/2000/svg" viewBox="0 0 640 640"><!--! Font Awesome Pro 7.2.0 by @fontawesome - https://fontawesome.com License - https://fontawesome.com/license (Commercial License) Copyright 2026 Fonticons, Inc. --><path opacity=".4" fill="currentColor" d="M176 137.9L176 502.2L180.5 500.2L201.2 491C211.2 496 231.7 506.2 262.5 521.6C286.6 507.8 305.8 496.9 320 488.7C334.2 496.8 353.4 507.8 377.5 521.6C408.3 506.2 428.7 496 438.8 491L459.5 500.2L464 502.2L464 137.9C463.7 138 455.3 141.8 438.8 149.1C428.8 144.1 408.3 133.9 377.5 118.5C353.4 132.3 334.2 143.2 320 151.4C305.8 143.3 286.6 132.3 262.5 118.5C231.7 133.9 211.3 144.1 201.2 149.1C184.7 141.8 176.3 138 176 137.9zM224 200L416 200L416 248L224 248L224 200zM224 296L416 296L416 344L224 344L224 296zM224 392L416 392L416 440L224 440L224 392z"/><path fill="currentColor" d="M221.5 501.1L201.2 491L180.5 500.2L176 502.2L176 137.9C176.3 138 184.7 141.8 201.2 149.1C211.2 144.1 231.7 133.9 262.5 118.5C286.6 132.3 305.8 143.2 320 151.4C334.2 143.3 353.4 132.3 377.5 118.5C408.3 133.9 428.7 144.1 438.8 149.1C455.3 141.8 463.7 138 464 137.9L464 502.2L459.5 500.2L438.8 491C428.8 496 408.3 506.2 377.5 521.6C353.4 507.8 334.2 496.9 320 488.7C305.8 496.8 286.6 507.8 262.5 521.6L221.5 501.1zM128 576C164 560 188 549.3 200 544L264 576L320 544L376 576L440 544C452 549.3 476 560 512 576L512 64C476 80 452 90.7 440 96L376 64L320 96L264 64L200 96C188 90.7 164 80 128 64L128 576zM248 200L224 200L224 248L416 248L416 200L248 200zM224 392L224 440L416 440L416 392L224 392zM248 296L224 296L224 344L416 344L416 296L248 296z"/></svg>