<svg xmlns="http://www.w3.org/2000/svg" viewBox="0 0 640 640"><!--! Font Awesome Pro 7.2.0 by @fontawesome - https://fontawesome.com License - https://fontawesome.com/license (Commercial License) Copyright 2026 Fonticons, Inc. --><path opacity=".4" fill="currentColor" d="M112 176L112 464L528 464L528 176L112 176zM174.1 320L255.1 239L272.1 222L306 255.9C299.7 262.2 278.4 283.5 242 319.9C278.4 356.3 299.7 377.6 306 383.9L272 417.9C268.5 414.4 241.5 387.4 191 336.9L174 319.9zM334.1 256L368 222.1C371.5 225.6 398.5 252.6 449 303.1L466 320.1C462.5 323.6 435.5 350.6 385 401.1L368 418.1L334.1 384.2C340.4 377.9 361.7 356.6 398.1 320.2C361.7 283.8 340.4 262.5 334.1 256.2z"/><path fill="currentColor" d="M528 176L528 464L112 464L112 176L528 176zM112 128L64 128L64 512L576 512L576 128L112 128zM334.1 256C340.4 262.3 361.7 283.6 398.1 320C361.7 356.4 340.4 377.7 334.1 384L368 417.9C371.5 414.4 398.5 387.4 449 336.9L466 319.9C462.5 316.4 435.5 289.4 385 238.9L368 221.9L334.1 255.8zM289 273L306 256L272.1 222.1C268.6 225.6 241.6 252.6 191.1 303.1L174.1 320.1C177.6 323.6 204.6 350.6 255.1 401.1L272.1 418.1L306 384.2C299.7 377.9 278.4 356.6 242 320.2L289 273.2z"/></svg>