<svg xmlns="http://www.w3.org/2000/svg" viewBox="0 0 640 640"><!--! Font Awesome Pro 7.2.0 by @fontawesome - https://fontawesome.com License - https://fontawesome.com/license (Commercial License) Copyright 2026 Fonticons, Inc. --><path opacity=".4" fill="currentColor" d="M64 176L576 176L576 464L64 464L64 176zM96 224L96 307.8C96 339.6 108.6 370.1 131.1 392.7C138.2 399.8 147.8 409.4 160 421.6C172.2 409.4 181.8 399.8 188.9 392.7C211.4 370.2 224 339.7 224 307.8L224 224L176 224L176 307.8C176 324.3 170.3 340.3 160 353.1C149.7 340.3 144 324.4 144 307.8L144 224L96 224zM256 280L256 360C256 390.9 281.1 416 312 416L328 416C358.9 416 384 390.9 384 360L384 280C384 249.1 358.9 224 328 224L312 224C281.1 224 256 249.1 256 280zM304 280C304 275.6 307.6 272 312 272L328 272C332.4 272 336 275.6 336 280L336 360C336 364.4 332.4 368 328 368L312 368C307.6 368 304 364.4 304 360L304 280zM416 224L416 416L480 416C515.3 416 544 387.3 544 352L544 288C544 252.7 515.3 224 480 224L416 224zM464 272L480 272C488.8 272 496 279.2 496 288L496 352C496 360.8 488.8 368 480 368L464 368L464 272z"/><path fill="currentColor" d="M64 176L64 464L576 464L576 176L64 176zM16 128L624 128L624 512L16 512L16 128zM144 248L144 307.8C144 324.3 149.7 340.3 160 353.1C170.3 340.3 176 324.4 176 307.8L176 224L224 224L224 307.8C224 339.6 211.4 370.1 188.9 392.7C181.8 399.8 172.2 409.4 160 421.6C147.8 409.4 138.2 399.8 131.1 392.7C108.6 370.2 96 339.7 96 307.8L96 224L144 224L144 248zM312 272C307.6 272 304 275.6 304 280L304 360C304 364.4 307.6 368 312 368L328 368C332.4 368 336 364.4 336 360L336 280C336 275.6 332.4 272 328 272L312 272zM256 280C256 249.1 281.1 224 312 224L328 224C358.9 224 384 249.1 384 280L384 360C384 390.9 358.9 416 328 416L312 416C281.1 416 256 390.9 256 360L256 280zM440 224L480 224C515.3 224 544 252.7 544 288L544 352C544 387.3 515.3 416 480 416L416 416L416 224L440 224zM464 368L480 368C488.8 368 496 360.8 496 352L496 288C496 279.2 488.8 272 480 272L464 272L464 368z"/></svg>