<svg xmlns="http://www.w3.org/2000/svg" viewBox="0 0 640 640"><!--! Font Awesome Pro 7.2.0 by @fontawesome - https://fontawesome.com License - https://fontawesome.com/license (Commercial License) Copyright 2026 Fonticons, Inc. --><path opacity=".4" fill="currentColor" d="M112 288L112 352L272 352L272 400.5L357 320L272 239.5L272 288L112 288z"/><path fill="currentColor" d="M224 128C244 146.9 300 199.9 392 287L426.9 320C417.8 328.6 366.2 377.5 272 466.6L224 512L224 400L64 400L64 240L224 240L224 128zM357 320L272 239.5L272 288L112 288L112 352L272 352L272 400.5L357 320zM408 496L528 496L528 144L384 144L384 96L576 96L576 544L384 544L384 496L408 496z"/></svg>