<svg xmlns="http://www.w3.org/2000/svg" viewBox="0 0 640 640"><!--! Font Awesome Pro 7.2.0 by @fontawesome - https://fontawesome.com License - https://fontawesome.com/license (Commercial License) Copyright 2026 Fonticons, Inc. --><path opacity=".4" fill="currentColor" d="M124.6 496L296 496L296 432L336 432L336 384L296 384L296 256L344 256L344 368L368 368C368 311.1 405.2 262.8 456.6 246.2L432.6 144L344 144L344 208L296 208L296 144L207.4 144L124.6 496z"/><path fill="currentColor" d="M124.6 496L207.4 144L296 144L296 208L344 208L344 144L432.6 144L456.6 246.2C469 242.2 482.2 240 496 240C498.9 240 501.7 240.1 504.5 240.3L470.6 96L169.4 96L75.3 496L64 544L336 544L336 432L296 432L296 496L124.6 496zM344 360L344 256L296 256L296 384L336 384L336 368L344 368L344 360zM496 336C513.7 336 528 350.3 528 368L528 416L464 416L464 368C464 350.3 478.3 336 496 336zM416 368L416 416L384 416L384 608L608 608L608 416L576 416L576 368C576 323.8 540.2 288 496 288C451.8 288 416 323.8 416 368z"/></svg>