<svg xmlns="http://www.w3.org/2000/svg" viewBox="0 0 640 640"><!--! Font Awesome Pro 7.2.0 by @fontawesome - https://fontawesome.com License - https://fontawesome.com/license (Commercial License) Copyright 2026 Fonticons, Inc. --><path opacity=".4" fill="currentColor" d="M144 144L496 144L496 496L144 496L144 144zM224 208L224 432L272 432L272 362.1L300.6 334.3L359.2 432L415.2 432L406.6 417.7L340.6 307.7L336 300L421 217.4L430.6 208.1L361.7 208.1L272 295.3L272 208.1L224 208.1z"/><path fill="currentColor" d="M144 144L144 496L496 496L496 144L144 144zM96 96L544 96L544 544L96 544L96 96zM361.7 208L430.6 208L421 217.3L336 299.9L340.6 307.6L406.6 417.6L415.2 431.9L359.2 431.9L300.6 334.2L272 362L272 431.9L224 431.9L224 207.9L272 207.9L272 295.1L361.7 207.9z"/></svg>