<svg xmlns="http://www.w3.org/2000/svg" viewBox="0 0 640 640"><!--! Font Awesome Pro 7.2.0 by @fontawesome - https://fontawesome.com License - https://fontawesome.com/license (Commercial License) Copyright 2026 Fonticons, Inc. --><path opacity=".4" fill="currentColor" d="M144 144L144 496L496 496L496 144L144 144zM214.1 320L231.1 303L335.1 199L352.1 182L386 215.9L369 232.9L282 319.9L369 406.9L386 423.9L352.1 457.8L335.1 440.8L231.1 336.8L214.1 319.8z"/><path fill="currentColor" d="M144 496L496 496L496 144L144 144L144 496zM96 544L96 96L544 96L544 544L96 544zM231 303L335 199L352 182L385.9 215.9L368.9 232.9L281.9 319.9L368.9 406.9L385.9 423.9L352 457.8L335 440.8L231 336.8L214 319.8L231 302.8z"/></svg>