<svg xmlns="http://www.w3.org/2000/svg" viewBox="0 0 640 640"><!--! Font Awesome Pro 7.2.0 by @fontawesome - https://fontawesome.com License - https://fontawesome.com/license (Commercial License) Copyright 2026 Fonticons, Inc. --><path opacity=".4" fill="currentColor" d="M144 144L496 144L496 496L144 496L144 144zM206.5 208L213.9 219.2L295.9 343.2L295.9 432L343.9 432L343.9 343.2L425.9 219.2L433.3 208L375.7 208L319.8 292.5L263.9 208L206.3 208z"/><path fill="currentColor" d="M144 144L144 496L496 496L496 144L144 144zM96 96L544 96L544 544L96 544L96 96zM214 219.2L206.6 208L264.2 208L320.1 292.5L376 208L433.6 208L426.2 219.2L344.2 343.2L344.2 432L296.2 432L296.2 343.2L214.2 219.2z"/></svg>