<svg xmlns="http://www.w3.org/2000/svg" viewBox="0 0 640 640"><!--! Font Awesome Pro 7.2.0 by @fontawesome - https://fontawesome.com License - https://fontawesome.com/license (Commercial License) Copyright 2026 Fonticons, Inc. --><path opacity=".4" fill="currentColor" d="M144 144L496 144L496 496L144 496L144 144zM203.8 309.9L213.9 340.3C222.1 337.6 236.1 332.9 256 326.3L256 448.1L416 448.1L416 400.1L304 400.1L304 310.3C359 292 387.1 282.6 388.2 282.2L378.1 251.8C375.3 252.7 350.6 261 304 276.5L304 192L256 192L256 292.5C227.7 301.9 210.2 307.8 203.8 309.9z"/><path fill="currentColor" d="M144 144L144 496L496 496L496 144L144 144zM96 96L544 96L544 544L96 544L96 96zM304 192L304 276.5C350.6 261 375.3 252.7 378.1 251.8L388.2 282.2C387.1 282.6 359 291.9 304 310.3L304 400.1L416 400.1L416 448.1L256 448.1L256 326.3C236.1 332.9 222 337.6 213.9 340.3L203.8 309.9C210.3 307.7 227.7 301.9 256 292.5L256 192L304 192z"/></svg>