<svg xmlns="http://www.w3.org/2000/svg" viewBox="0 0 640 640"><!--! Font Awesome Pro 7.2.0 by @fontawesome - https://fontawesome.com License - https://fontawesome.com/license (Commercial License) Copyright 2026 Fonticons, Inc. --><path opacity=".4" fill="currentColor" d="M144 144L496 144L496 496L144 496L144 144zM200 192L200 240L227.4 240C234.3 240 240 245.6 240 252.6L240 272L210.3 272L210.3 304L240 304L240 387.4C240 420.9 267.1 448 300.6 448L324.6 448C388.3 448 440 396.3 440 332.6L440 316.6C440 283.1 412.9 256 379.4 256L376 256L352 256L352 304L376 304L379.4 304C386.3 304 392 309.6 392 316.6L392 332.6C392 369.8 361.8 400 324.6 400L300.6 400C293.7 400 288 394.4 288 387.4L288 304L320 304L320 272L288 272L288 252.6C288 219.1 260.9 192 227.4 192L200 192z"/><path fill="currentColor" d="M144 144L144 496L496 496L496 144L144 144zM96 96L544 96L544 544L96 544L96 96zM200 192L227.4 192C260.9 192 288 219.1 288 252.6L288 272L320 272L320 304L288 304L288 387.4C288 394.3 293.6 400 300.6 400L324.6 400C361.8 400 392 369.8 392 332.6L392 316.6C392 309.7 386.4 304 379.4 304L376 304L352 304L352 256L376 256L379.4 256C412.9 256 440 283.1 440 316.6L440 332.6C440 396.3 388.3 448 324.6 448L300.6 448C267.1 448 240 420.9 240 387.4L240 304L210.3 304L210.3 272L240 272L240 252.6C240 245.7 234.4 240 227.4 240L200 240L200 192z"/></svg>