<svg xmlns="http://www.w3.org/2000/svg" viewBox="0 0 640 640"><!--! Font Awesome Pro 7.2.0 by @fontawesome - https://fontawesome.com License - https://fontawesome.com/license (Commercial License) Copyright 2026 Fonticons, Inc. --><path opacity=".4" fill="currentColor" d="M144 144L496 144L496 496L144 496L144 144zM224 208L224 256L341.4 256L229.5 392.8L224.1 399.4L224.1 432L416.1 432L416.1 384L298.7 384L410.6 247.2L416 240.6L416 208L224 208z"/><path fill="currentColor" d="M144 144L144 496L496 496L496 144L144 144zM96 96L544 96L544 544L96 544L96 96zM392 208L416 208L416 240.6L410.6 247.2L298.7 384L416.1 384L416.1 432L224.1 432L224.1 399.4L229.5 392.8L341.4 256L224 256L224 208L392 208z"/></svg>