<svg xmlns="http://www.w3.org/2000/svg" viewBox="0 0 640 640"><!--! Font Awesome Pro 7.2.0 by @fontawesome - https://fontawesome.com License - https://fontawesome.com/license (Commercial License) Copyright 2026 Fonticons, Inc. --><path opacity=".4" fill="currentColor" d="M144 144L144 224L496 224L496 144L144 144zM144 272L144 496L208 496L208 272L144 272zM256 272L256 496L496 496L496 272L256 272z"/><path fill="currentColor" d="M496 144L496 224L144 224L144 144L496 144zM96 224L96 544L544 544L544 96L96 96L96 224zM496 496L256 496L256 272L496 272L496 496zM208 496L144 496L144 272L208 272L208 496z"/></svg>