<svg xmlns="http://www.w3.org/2000/svg" viewBox="0 0 640 640"><!--! Font Awesome Pro 7.2.0 by @fontawesome - https://fontawesome.com License - https://fontawesome.com/license (Commercial License) Copyright 2026 Fonticons, Inc. --><path opacity=".4" fill="currentColor" d="M144 280L144 496L232 496L232 280L144 280zM280 280L280 496L360 496L360 280L280 280zM408 280L408 496L496 496L496 280L408 280z"/><path fill="currentColor" d="M96 232L96 544L544 544L544 96L96 96L96 232zM408 280L496 280L496 496L408 496L408 280zM360 280L360 496L280 496L280 280L360 280zM144 496L144 280L232 280L232 496L144 496z"/></svg>