<svg xmlns="http://www.w3.org/2000/svg" viewBox="0 0 640 640"><!--! Font Awesome Pro 7.2.0 by @fontawesome - https://fontawesome.com License - https://fontawesome.com/license (Commercial License) Copyright 2026 Fonticons, Inc. --><path opacity=".4" fill="currentColor" d="M214.1 528L360.5 528L360.5 262L235.3 338.1L214.1 528zM408.4 263.1L408.4 401.7L472.3 528L554.8 528L533.7 338.3L408.5 263.1z"/><path fill="currentColor" d="M128.4 265.9L47.4 184.9L30.4 167.9L64.3 134C74.6 144.3 87.9 157.6 104.3 174L104.3 63.9L152.3 63.9L152.3 174C168.7 157.6 182 144.3 192.3 134L226.2 167.9L145.2 248.9L128.2 265.9zM32.4 528L165.7 528L190.1 309.3L383.2 192L578.6 309.3C598.1 483.6 608 572.4 608.4 576L32.4 576L32.4 528zM360.4 262L235.2 338.1L214 528L360.4 528L360.4 262zM408.4 263L408.4 401.6L472.3 527.9L554.8 527.9L533.7 338.2L408.5 263z"/></svg>