<svg xmlns="http://www.w3.org/2000/svg" viewBox="0 0 640 640"><!--! Font Awesome Pro 7.2.0 by @fontawesome - https://fontawesome.com License - https://fontawesome.com/license (Commercial License) Copyright 2026 Fonticons, Inc. --><path opacity=".4" fill="currentColor" d="M208 80L432 80L432 560L208 560L208 80zM264 176C264 206.9 289.1 232 320 232C350.9 232 376 206.9 376 176C376 145.1 350.9 120 320 120C289.1 120 264 145.1 264 176zM264 320C264 350.9 289.1 376 320 376C350.9 376 376 350.9 376 320C376 289.1 350.9 264 320 264C289.1 264 264 289.1 264 320zM264 464C264 494.9 289.1 520 320 520C350.9 520 376 494.9 376 464C376 433.1 350.9 408 320 408C289.1 408 264 433.1 264 464z"/><path fill="currentColor" d="M208 80L208 560L432 560L432 80L208 80zM160 32L480 32L480 608L160 608L160 32zM320 408C350.9 408 376 433.1 376 464C376 494.9 350.9 520 320 520C289.1 520 264 494.9 264 464C264 433.1 289.1 408 320 408zM376 320C376 350.9 350.9 376 320 376C289.1 376 264 350.9 264 320C264 289.1 289.1 264 320 264C350.9 264 376 289.1 376 320zM320 232C289.1 232 264 206.9 264 176C264 145.1 289.1 120 320 120C350.9 120 376 145.1 376 176C376 206.9 350.9 232 320 232z"/></svg>