<svg xmlns="http://www.w3.org/2000/svg" viewBox="0 0 640 640"><!--! Font Awesome Pro 7.2.0 by @fontawesome - https://fontawesome.com License - https://fontawesome.com/license (Commercial License) Copyright 2026 Fonticons, Inc. --><path opacity=".4" fill="currentColor" d="M80 144L80 432L560 432L560 144L80 144zM240 328C240 297.1 268.7 272 304 272C309.5 272 314.9 272.6 320 273.8L320 192L408 192L408 240L368 240C368 268.1 368 296.1 367.8 324.1C367.9 325.4 368 326.7 368 328C368 358.9 339.3 384 304 384C268.7 384 240 358.9 240 328z"/><path fill="currentColor" d="M560 144L560 432L80 432L80 144L560 144zM80 96L32 96L32 480L608 480L608 96L80 96zM160 528L160 576L480 576L480 528L160 528zM408 192L320 192L320 273.8C314.9 272.6 309.5 272 304 272C268.7 272 240 297.1 240 328C240 358.9 268.7 384 304 384C339.3 384 368 358.9 368 328C368 326.7 367.9 325.4 367.8 324.1L368 324.2L368 240L408 240L408 192z"/></svg>