<svg xmlns="http://www.w3.org/2000/svg" viewBox="0 0 640 640"><!--! Font Awesome Pro 7.2.0 by @fontawesome - https://fontawesome.com License - https://fontawesome.com/license (Commercial License) Copyright 2026 Fonticons, Inc. --><path opacity=".4" fill="currentColor" d="M146.6 576L493.4 576L445.4 432L403.9 432C367.9 468 340 495.9 320 515.9C300 495.9 272.1 468 236.1 432L194.6 432L146.6 576zM240 192L240 208C240 252.2 275.8 288 320 288C364.2 288 400 252.2 400 208L400 192C400 174 394.1 157.4 384 144C371.2 153.6 358.4 163.2 345.6 172.8C329 185.3 308.8 192 288 192L240 192z"/><path fill="currentColor" d="M400 208C400 252.2 364.2 288 320 288C275.8 288 240 252.2 240 208L240 192L288 192C308.8 192 329 185.3 345.6 172.8L384 144L384 144C394 157.4 400 174 400 192L400 208zM320 64C249.3 64 192 121.3 192 192L192 208C192 278.7 249.3 336 320 336C390.7 336 448 278.7 448 208L448 192C448 121.3 390.7 64 320 64zM286.1 414.1L256 384L160 384L96 576L146.6 576L194.6 432L236.1 432C272.1 468 300 495.9 320 515.9C340 495.9 367.9 468 403.9 432L445.4 432L493.4 576L544 576L480 384L384 384L320 448L286.1 414.1z"/></svg>