<svg xmlns="http://www.w3.org/2000/svg" viewBox="0 0 640 640"><!--! Font Awesome Pro 7.2.0 by @fontawesome - https://fontawesome.com License - https://fontawesome.com/license (Commercial License) Copyright 2026 Fonticons, Inc. --><path opacity=".4" fill="currentColor" d="M82.2 576L276.2 576L290.7 488.9L363.6 416L131.4 416L82.2 576zM176 192C176 236.2 211.8 272 256 272C300.2 272 336 236.2 336 192C336 147.8 300.2 112 256 112C211.8 112 176 147.8 176 192z"/><path fill="currentColor" d="M176 192C176 147.8 211.8 112 256 112C300.2 112 336 147.8 336 192C336 236.2 300.2 272 256 272C211.8 272 176 236.2 176 192zM82.2 576L131.4 416L363.6 416L411.6 368L95.9 368L31.9 576L82.1 576zM256 320C326.7 320 384 262.7 384 192C384 121.3 326.7 64 256 64C185.3 64 128 121.3 128 192C128 262.7 185.3 320 256 320zM544 303.9L491.2 356.7L571.2 436.7L624 383.9L544 303.9zM336 511.9L320 607.9L416 591.9L548.6 459.3L468.6 379.3L336 511.9z"/></svg>