<svg xmlns="http://www.w3.org/2000/svg" viewBox="0 0 640 640"><!--! Font Awesome Pro 7.2.0 by @fontawesome - https://fontawesome.com License - https://fontawesome.com/license (Commercial License) Copyright 2026 Fonticons, Inc. --><path fill="currentColor" d="M320 128C443.7 128 544 228.3 544 352C544 408.1 523.4 459.4 489.3 498.7L550.6 560L528 582.6L466.7 521.3C427.4 555.4 376.1 576 320 576C263.9 576 212.6 555.4 173.3 521.3L112 582.6L89.4 560L150.7 498.7C116.6 459.4 96 408.1 96 352C96 228.3 196.3 128 320 128zM320 160C214 160 128 246 128 352C128 458 214 544 320 544C426 544 512 458 512 352C512 246 426 160 320 160zM340 476L300 476L300 436L340 436L340 476zM331.2 400L308.8 400L296 224L344 224L331.2 400zM159.2 64C187.2 64 212.4 76.1 229.8 95.3C218.7 99.2 208 103.8 197.6 109C187 100.8 173.6 96 159.2 96C124.3 96 96 124.3 96 159.2C96 169.6 98.5 179.4 102.9 188C95.9 197.3 89.4 207 83.6 217.2C71.3 201.1 63.9 181 63.9 159.2C63.9 106.6 106.5 64 159.1 64zM480.7 64C533.3 64 576 106.6 576 159.2C576 181 568.7 201.1 556.3 217.2C550.5 207.1 544.1 197.3 537 188C541.4 179.4 543.9 169.6 543.9 159.2C543.9 124.3 515.6 96 480.6 96C466.2 96 452.8 100.8 442.2 109C431.8 103.8 421.1 99.2 410 95.3C427.4 76.1 452.6 64 480.6 64z"/></svg>