<svg xmlns="http://www.w3.org/2000/svg" viewBox="0 0 640 640"><!--! Font Awesome Pro 7.2.0 by @fontawesome - https://fontawesome.com License - https://fontawesome.com/license (Commercial License) Copyright 2026 Fonticons, Inc. --><path fill="currentColor" d="M80 96L64 96L64 128L96 128L96 512L64 512L64 544L248 544L248 424C248 384.2 280.2 352 320 352C359.8 352 392 384.2 392 424L392 544L576 544L576 512L544 512L544 128L576 128L576 96L80 96zM512 128L512 192L128 192L128 128L512 128zM512 224L512 512L424 512L424 424C424 366.6 377.4 320 320 320C262.6 320 216 366.6 216 424L216 512L128 512L128 224L512 224z"/></svg>