<svg xmlns="http://www.w3.org/2000/svg" viewBox="0 0 640 640"><!--! Font Awesome Pro 7.2.0 by @fontawesome - https://fontawesome.com License - https://fontawesome.com/license (Commercial License) Copyright 2026 Fonticons, Inc. --><path fill="currentColor" d="M139.4 100.7L128.1 89.4L116.8 100.7L36.8 180.7L25.5 192L48.1 214.6C48.7 214 70.1 192.6 112.1 150.6L112.1 544L352.1 544L352.1 512L144.1 512L144.1 150.6C186.1 192.6 207.5 214 208.1 214.6L230.7 192L219.4 180.7L139.4 100.7zM500.8 539.3L512.1 550.6L523.4 539.3L603.4 459.3L614.7 448L592.1 425.4L580.8 436.7L528.1 489.4L528.1 96L288.1 96L288.1 128L496.1 128L496.1 489.4L443.4 436.7L432.1 425.4L409.5 448L420.8 459.3L500.8 539.3z"/></svg>