<svg xmlns="http://www.w3.org/2000/svg" viewBox="0 0 640 640"><!--! Font Awesome Pro 7.2.0 by @fontawesome - https://fontawesome.com License - https://fontawesome.com/license (Commercial License) Copyright 2026 Fonticons, Inc. --><path fill="currentColor" d="M356.7 68.7L276.7 148.7L265.4 160L276.7 171.3L356.7 251.3L368 262.6L390.6 240L379.3 228.7L326.6 176L512 176L512 288L544 288L544 144L326.6 144L379.3 91.3L390.6 80L368 57.4L356.7 68.7zM283.3 340.7L272 329.4L249.4 352L260.7 363.3L313.4 416L96 416L96 560L128 560L128 448L313.4 448C271.4 490 250 511.4 249.4 512L272 534.6L283.3 523.3L363.3 443.3L374.6 432L363.3 420.7L283.3 340.7zM480 400C497.7 400 512 414.3 512 432C512 449.7 497.7 464 480 464C462.3 464 448 449.7 448 432C448 414.3 462.3 400 480 400zM480 496C515.3 496 544 467.3 544 432C544 396.7 515.3 368 480 368C444.7 368 416 396.7 416 432C416 467.3 444.7 496 480 496zM192 160C192 177.7 177.7 192 160 192C142.3 192 128 177.7 128 160C128 142.3 142.3 128 160 128C177.7 128 192 142.3 192 160zM96 160C96 195.3 124.7 224 160 224C195.3 224 224 195.3 224 160C224 124.7 195.3 96 160 96C124.7 96 96 124.7 96 160z"/></svg>