<svg xmlns="http://www.w3.org/2000/svg" viewBox="0 0 640 640"><!--! Font Awesome Pro 7.2.0 by @fontawesome - https://fontawesome.com License - https://fontawesome.com/license (Commercial License) Copyright 2026 Fonticons, Inc. --><path fill="currentColor" d="M304 64L288 64L288 576L640 576L640 160L576 160L576 64L544 64L544 160L512 160L512 64L304 64zM320 544L320 96L480 96L480 192L608 192L608 544L320 544zM424 152L376 152L376 200L424 200L424 152zM376 248L376 296L424 296L424 248L376 248zM424 344L376 344L376 392L424 392L424 344zM504 248L504 296L552 296L552 248L504 248zM552 344L504 344L504 392L552 392L552 344zM219.3 308.7L147.3 236.7L136 225.4L113.4 248C115.4 250 134 268.6 169.4 304L48 304L32 304L32 336L169.4 336C134.1 371.3 115.4 390 113.4 392L136 414.6L147.3 403.3L219.3 331.3L230.6 320L219.3 308.7z"/></svg>