<svg xmlns="http://www.w3.org/2000/svg" viewBox="0 0 640 640"><!--! Font Awesome Pro 7.2.0 by @fontawesome - https://fontawesome.com License - https://fontawesome.com/license (Commercial License) Copyright 2026 Fonticons, Inc. --><path fill="currentColor" d="M320 96C196.3 96 96 196.3 96 320C96 443.7 196.3 544 320 544L336 544L336 576L320 576C178.6 576 64 461.4 64 320C64 178.6 178.6 64 320 64C461.4 64 576 178.6 576 320L576 432L488 432C454.6 432 425.5 413.3 410.6 385.9C390.2 413.9 357.2 432 320 432C258.1 432 208 381.9 208 320C208 258.1 258.1 208 320 208C351.3 208 379.7 220.9 400 241.6L400 224L432 224L432 344C432 374.9 457.1 400 488 400L544 400L544 320C544 196.3 443.7 96 320 96zM400 320C400 275.8 364.2 240 320 240C275.8 240 240 275.8 240 320C240 364.2 275.8 400 320 400C364.2 400 400 364.2 400 320z"/></svg>