<svg xmlns="http://www.w3.org/2000/svg" viewBox="0 0 640 640"><!--! Font Awesome Pro 7.2.0 by @fontawesome - https://fontawesome.com License - https://fontawesome.com/license (Commercial License) Copyright 2026 Fonticons, Inc. --><path fill="currentColor" d="M528 224L374.6 70.6L352 48C349.6 50.4 309.1 90.9 230.6 169.4L208 192L276.7 260.7L20.7 516.7L9.4 528C10.8 529.4 30.6 549.2 68.7 587.3L80 598.6L91.3 587.3L347.3 331.3L384 368L384 480L416 480C539.7 480 640 379.7 640 256L640 224L528 224zM54.6 528L299.3 283.3L324.7 308.7L80 553.4L54.6 528zM608 256C608 362 522 448 416 448L416 354.7L406.6 345.3L253.2 191.9L351.9 93.2L505.3 246.6L514.7 256L608 256zM483.3 76.7L472 65.4L449.4 88C450.8 89.4 470.6 109.2 508.7 147.3L520 158.6L542.6 136C541.2 134.6 521.4 114.8 483.3 76.7z"/></svg>