<svg xmlns="http://www.w3.org/2000/svg" viewBox="0 0 640 640"><!--! Font Awesome Pro 7.2.0 by @fontawesome - https://fontawesome.com License - https://fontawesome.com/license (Commercial License) Copyright 2026 Fonticons, Inc. --><path fill="currentColor" d="M240 64L400 64L400 144L416 144C486.7 144 544 201.3 544 272L544 576L96 576L96 272C96 201.3 153.3 144 224 144L240 144L240 64zM368 96L272 96L272 144L368 144L368 96zM416 176L224 176C171 176 128 219 128 272L128 544L192 544L192 320L448 320L448 544L512 544L512 272C512 219 469 176 416 176zM416 544L416 352L224 352L224 544L416 544zM240 224L416 224L416 256L224 256L224 224L240 224z"/></svg>