<svg xmlns="http://www.w3.org/2000/svg" viewBox="0 0 640 640"><!--! Font Awesome Pro 7.2.0 by @fontawesome - https://fontawesome.com License - https://fontawesome.com/license (Commercial License) Copyright 2026 Fonticons, Inc. --><path fill="currentColor" d="M256 128L256 192L384 192L384 128C384 92.7 355.3 64 320 64C284.7 64 256 92.7 256 128zM416 224L128 224L128 512L512 512L512 224L416 224zM224 192L224 128C224 75 267 32 320 32C373 32 416 75 416 128L416 192L544 192L544 544L96 544L96 192L224 192zM304 456L304 384L232 384L232 352L304 352L304 280L336 280L336 352L408 352L408 384L336 384L336 456L304 456z"/></svg>