<svg xmlns="http://www.w3.org/2000/svg" viewBox="0 0 640 640"><!--! Font Awesome Pro 7.2.0 by @fontawesome - https://fontawesome.com License - https://fontawesome.com/license (Commercial License) Copyright 2026 Fonticons, Inc. --><path fill="currentColor" d="M128 256C128 150 214 64 320 64C426 64 512 150 512 256C512 384 352 496 352 496L384 576L256 576L288 496C288 496 128 384 128 256zM320 480C320 480 480 368 480 256C480 167.6 408.4 96 320 96C231.6 96 160 167.6 160 256C160 368 320 480 320 480zM304 544L336 544L320 504L304 544zM240 256L208 256C208 194.1 258.1 144 320 144L320 176C275.8 176 240 211.8 240 256z"/></svg>