<svg xmlns="http://www.w3.org/2000/svg" viewBox="0 0 640 640"><!--! Font Awesome Pro 7.2.0 by @fontawesome - https://fontawesome.com License - https://fontawesome.com/license (Commercial License) Copyright 2026 Fonticons, Inc. --><path fill="currentColor" d="M32 128L608 128L608 160L576 160L544 512L96 512L64 160L32 160L32 128zM96.1 160L125.2 480L514.8 480L543.9 160L96.2 160zM295.7 208L344.3 208L349.1 214.8L391.9 275.5L364.7 292.5L327.7 240L312.3 240L275.3 292.5L248.1 275.5L290.9 214.8L295.7 208zM387.8 325.2L415 308.2L445.1 350.8L448 354.9L448 416L340 416L340 384L416 384L416 365.1L387.8 325.2zM224 384L300 384L300 416L192 416L192 354.9L194.9 350.8L225 308.2L252.2 325.2L224 365.1L224 384z"/></svg>