<svg xmlns="http://www.w3.org/2000/svg" viewBox="0 0 640 640"><!--! Font Awesome Pro 7.2.0 by @fontawesome - https://fontawesome.com License - https://fontawesome.com/license (Commercial License) Copyright 2026 Fonticons, Inc. --><path fill="currentColor" d="M96.2 96L96.2 128L224.2 128L224.2 416L256.2 416L256.2 128L544.2 128L544.2 96L96.2 96zM117.8 176C104.5 237.3 96.4 274.7 93.5 288L121.2 288C105.1 362.7 95.8 405.3 93.5 416L121.2 416C105.1 490.7 95.8 533.3 93.5 544L544.2 544C542.1 533.3 533.5 490.7 518.6 416L544.2 416C542.1 405.3 533.5 362.7 518.6 288L544.2 288C541.5 274.7 534.1 237.3 521.8 176L489.2 176L505.2 256L304.2 256L304.2 288L486 288L505.2 384L304.2 384L304.2 416L486 416L505.2 512L133.2 512L154 416L176.2 416L176.2 384L133.2 384L154 288L176.2 288L176.2 256L133.2 256L150.5 176L117.8 176z"/></svg>