<svg xmlns="http://www.w3.org/2000/svg" viewBox="0 0 640 640"><!--! Font Awesome Pro 7.2.0 by @fontawesome - https://fontawesome.com License - https://fontawesome.com/license (Commercial License) Copyright 2026 Fonticons, Inc. --><path fill="currentColor" d="M232 128L232 192L408 192L408 128L232 128zM200 192L200 128L128 128L128 192L200 192zM128 224L128 304L304 304L304 224L128 224zM128 416L200 416L200 336L128 336L128 416zM128 448L128 512L304 512L304 448L128 448zM232 416L408 416L408 336L232 336L232 416zM440 416L512 416L512 336L440 336L440 416zM512 448L336 448L336 512L512 512L512 448zM512 224L336 224L336 304L512 304L512 224zM512 192L512 128L440 128L440 192L512 192zM96 96L544 96L544 544L96 544L96 96z"/></svg>