<svg xmlns="http://www.w3.org/2000/svg" viewBox="0 0 640 640"><!--! Font Awesome Pro 7.2.0 by @fontawesome - https://fontawesome.com License - https://fontawesome.com/license (Commercial License) Copyright 2026 Fonticons, Inc. --><path fill="currentColor" d="M288 64L304 64C454.2 64 576 185.8 576 336L576 352L544 352L544 336C544 203.5 436.5 96 304 96L288 96L288 64zM128 160L128 432C128 493.9 178.1 544 240 544C301.9 544 352 493.9 352 432C352 370.1 301.9 320 240 320L192 320L192 288L240 288C319.5 288 384 352.5 384 432C384 511.5 319.5 576 240 576C160.5 576 96 511.5 96 432L96 160L128 160zM304 160C401.2 160 480 238.8 480 336L480 352L448 352L448 336C448 256.5 383.5 192 304 192L288 192L288 160L304 160z"/></svg>