<svg xmlns="http://www.w3.org/2000/svg" viewBox="0 0 640 640"><!--! Font Awesome Pro 7.2.0 by @fontawesome - https://fontawesome.com License - https://fontawesome.com/license (Commercial License) Copyright 2026 Fonticons, Inc. --><path fill="currentColor" d="M446.7 376.3C503.3 356.9 544 303.2 544 240C544 160.5 479.5 96 400 96C336.8 96 283.1 136.7 263.7 193.3C255.9 192.4 248 192 240 192C236.8 192 233.7 192.1 230.6 192.2C251.4 118.2 319.4 64 400 64C497.2 64 576 142.8 576 240C576 320.6 521.8 388.6 447.8 409.4C447.9 406.3 448 403.1 448 400C448 392 447.5 384.1 446.7 376.3zM384 400C384 320.5 319.5 256 240 256C160.5 256 96 320.5 96 400C96 479.5 160.5 544 240 544C319.5 544 384 479.5 384 400zM64 400C64 302.8 142.8 224 240 224C337.2 224 416 302.8 416 400C416 497.2 337.2 576 240 576C142.8 576 64 497.2 64 400zM240 304L240 336L288 336L288 368L240 368L240 416L208 416L208 368L160 368L160 336L208 336L208 288L240 288L240 304zM432 144L432 176L480 176L480 208L432 208L432 256L400 256L400 208L352 208L352 176L400 176L400 128L432 128L432 144z"/></svg>