<svg xmlns="http://www.w3.org/2000/svg" viewBox="0 0 640 640"><!--! Font Awesome Pro 7.2.0 by @fontawesome - https://fontawesome.com License - https://fontawesome.com/license (Commercial License) Copyright 2026 Fonticons, Inc. --><path fill="currentColor" d="M367.2 119.1C334 227.8 316.8 284.1 315.6 288L480 288L440.9 320L172.6 539.5L128 576C135.1 552.9 154.6 488.9 186.7 384L196.4 352L32 352L71.1 320L339.4 100.5L384 64L367.2 119.1zM315.6 320L272.4 320C276.7 306 293.4 251.3 322.6 155.6L121.6 320L239.7 320C235.4 334 218.7 388.7 189.5 484.4L390.4 320L315.6 320zM469.9 352L490.2 352L494.5 361.2L596.2 576L560.8 576L538.1 528L422 528L399.3 576L363.9 576L465.6 361.2L469.9 352zM480 405.4L437.1 496L522.9 496L480 405.4z"/></svg>