<svg xmlns="http://www.w3.org/2000/svg" viewBox="0 0 640 640"><!--! Font Awesome Pro 7.2.0 by @fontawesome - https://fontawesome.com License - https://fontawesome.com/license (Commercial License) Copyright 2026 Fonticons, Inc. --><path fill="currentColor" d="M416.1 64L448.1 64L448.1 96L416.1 96L416.1 281.7C432.6 291.2 447.5 303.2 460.5 317L513.5 264C504.8 255.3 496.8 247.3 489.5 240L512.1 217.4C571 276.3 577.5 282.8 582.7 288L560.1 310.6C552.8 303.3 544.8 295.3 536.1 286.6L480.4 342.3C500.4 372.6 512.1 408.9 512.1 448C512.1 494.4 495.6 537 468.2 570.2L463.4 576L176.8 576L172 570.2C144.6 537 128.1 494.4 128.1 448C128.1 376.9 166.7 314.9 224.1 281.7L224.1 96L192.1 96L192.1 64L416.1 64zM256.1 96L256.1 301L247.4 305.5C214.5 322.3 188.3 350.1 173.4 384.1L466.8 384.1C452 350.2 425.7 322.3 392.8 305.5L384.1 301L384.1 96L256.1 96zM476.9 416L163.3 416C161.2 426.3 160.1 437 160.1 448C160.1 484 172 517.3 192.1 544L448.1 544C468.2 517.3 480.1 484 480.1 448C480.1 437 479 426.3 476.9 416z"/></svg>