<svg xmlns="http://www.w3.org/2000/svg" viewBox="0 0 640 640"><!--! Font Awesome Pro 7.2.0 by @fontawesome - https://fontawesome.com License - https://fontawesome.com/license (Commercial License) Copyright 2026 Fonticons, Inc. --><path fill="currentColor" d="M96 64L544 64L544 480L512 480L512 544L544 544L544 576L96 576L96 512L96 512L96 80L96 64zM160 480C142.3 480 128 494.3 128 512L128 544L480 544L480 480L160 480zM128 456.6C137.4 451.2 148.3 448 160 448L512 448L512 96L128 96L128 456.6zM296.7 357.2C287.2 351.4 274.6 343 261.8 332.3C237.3 311.9 208 279.7 208 240C208 204.7 236.7 176 272 176L274.9 176C291.6 176 307.7 182.3 320 193.5C332.3 182.3 348.4 176 365.1 176L368 176C403.3 176 432 204.7 432 240C432 279.7 402.8 311.9 378.2 332.3C365.4 342.9 352.8 351.4 343.3 357.2C335.7 361.8 327.9 366 320 369.9C312.1 365.9 304.2 361.8 296.7 357.2zM365.1 208C355.8 208 347 211.7 340.4 218.2L320 238.6L299.6 218.2C293.1 211.7 284.2 208 274.9 208L272 208C254.3 208 240 222.3 240 240C240 264.3 258.8 288.1 282.2 307.7C293.4 317.1 304.8 324.6 313.3 329.8C315.8 331.3 318 332.6 320 333.7C321.9 332.6 324.2 331.3 326.7 329.8C335.3 324.6 346.6 317 357.8 307.7C381.3 288.1 400 264.3 400 240C400 222.3 385.7 208 368 208L365.1 208z"/></svg>