<svg xmlns="http://www.w3.org/2000/svg" viewBox="0 0 640 640"><!--! Font Awesome Pro 7.2.0 by @fontawesome - https://fontawesome.com License - https://fontawesome.com/license (Commercial License) Copyright 2026 Fonticons, Inc. --><path fill="currentColor" d="M288 205.3L288 64L352 64L352 226.3L371.2 234.7C416.5 254.4 448 299.6 448 352L448 576L192 576L192 352C192 299.6 223.5 254.4 268.8 234.6L288 226.2L288 205.3zM384 32L224 32L224 64L256 64L256 205.3C199.5 230 160 286.4 160 352L160 608L480 608L480 352C480 286.4 440.5 230 384 205.3L384 64L416 64L416 32L384 32zM368 422.2C368 440.7 362 451.3 355.1 457.6C347.7 464.3 336 469 320 469C293 469 272 447.6 272 422.3C272 416.5 274.4 407.1 281 394.1C287.3 381.7 296.1 368.6 305.4 356.3C310.3 349.8 315.3 343.7 319.9 338.3C324.5 343.7 329.5 349.8 334.4 356.3C343.7 368.6 352.5 381.6 358.8 394.1C365.4 407.1 367.8 416.5 367.8 422.3zM240 422.2C240 465.7 275.8 500.9 320 500.9C364.2 500.9 400 474.7 400 422.2C400 387.7 365.4 341.8 341.7 314.5C334.1 305.7 327.6 298.8 323.7 294.8C321.3 292.3 319.9 291 319.9 291C319.9 291 318.5 292.4 316.1 294.8C312.2 298.8 305.8 305.7 298.1 314.5C274.4 341.9 239.8 387.7 239.8 422.2z"/></svg>