<svg xmlns="http://www.w3.org/2000/svg" viewBox="0 0 640 640"><!--! Font Awesome Pro 7.2.0 by @fontawesome - https://fontawesome.com License - https://fontawesome.com/license (Commercial License) Copyright 2026 Fonticons, Inc. --><path fill="currentColor" d="M256 32L240 32L240 115.3C203.1 125.7 176 159.7 176 200C176 221.3 183.6 240.8 196.1 256C183.5 271.2 176 290.7 176 312C176 331.4 182.3 349.4 193 364C182.3 378.6 176 396.6 176 416C176 436.6 183.1 455.6 195 470.6C183.1 486.6 176 506.5 176 528L176 608L464 608L464 528C464 506.5 456.9 486.6 445 470.6C456.9 455.6 464 436.6 464 416C464 396.6 457.7 378.6 447 364C457.7 349.4 464 331.4 464 312C464 290.7 456.4 271.2 443.9 256C456.5 240.8 464 221.3 464 200C464 159.7 436.9 125.8 400 115.3L400 32L256 32zM368 112L272 112L272 64L368 64L368 112zM208 200C208 169.1 233.1 144 264 144L376 144C406.9 144 432 169.1 432 200C432 217.6 423.9 233.3 411.2 243.6L395.8 256L411.2 268.4C423.9 278.7 432 294.4 432 312C432 327.9 425.4 342.2 414.7 352.4L402.6 364L414.7 375.6C425.4 385.8 432 400.1 432 416C432 432.8 424.6 447.9 412.8 458.2L399.6 469.7L412.2 481.8C424.4 493.5 431.9 509.8 431.9 528L431.9 576L207.9 576L207.9 528C207.9 509.8 215.4 493.5 227.6 481.8L240.2 469.7L227 458.2C215.2 447.9 207.8 432.8 207.8 416C207.8 400.1 214.4 385.8 225.1 375.6L237.3 364L225.3 352.4C214.6 342.2 208 327.9 208 312C208 294.4 216.1 278.7 228.8 268.4L244.2 256L228.8 243.6C216.1 233.3 208 217.6 208 200z"/></svg>