<svg xmlns="http://www.w3.org/2000/svg" viewBox="0 0 640 640"><!--! Font Awesome Pro 7.2.0 by @fontawesome - https://fontawesome.com License - https://fontawesome.com/license (Commercial License) Copyright 2026 Fonticons, Inc. --><path fill="currentColor" d="M136.3 240L79 431.9L120.2 576L264.4 576L305.6 431.9L248.3 240L269.4 164.4C271.3 157.5 272.3 150.3 272.3 143.1C272.3 99.4 236.9 64 193.2 64L191.5 64C147.8 64 112.4 99.4 112.4 143.1C112.4 150.3 113.4 157.4 115.3 164.4L136.3 240zM272.3 432.1L240.3 544L144.3 544L112.3 432.1L164.9 256L219.7 256L272.3 432.1zM238.6 155.8L219.6 224L165.1 224L146.1 155.8C145 151.7 144.4 147.4 144.4 143.1C144.4 117.1 165.5 96 191.5 96L193.2 96C219.2 96 240.3 117.1 240.3 143.1C240.3 147.4 239.7 151.6 238.6 155.8zM392.3 240L335 431.9L376.2 576L520.5 576L561.7 431.9L504.4 240L525.5 164.4C527.4 157.5 528.4 150.3 528.4 143.1C528.4 99.4 493 64 449.3 64L447.6 64C403.9 64 368.5 99.4 368.5 143.1C368.5 150.3 369.5 157.4 371.4 164.4L392.3 240zM528.3 432.1L496.3 544L400.3 544L368.3 432.1L420.9 256L475.7 256L528.3 432.1zM494.6 155.8L475.6 224L421.1 224L402.1 155.8C401 151.7 400.4 147.4 400.4 143.1C400.4 117.1 421.5 96 447.5 96L449.2 96C475.2 96 496.3 117.1 496.3 143.1C496.3 147.4 495.7 151.6 494.6 155.8z"/></svg>