<svg xmlns="http://www.w3.org/2000/svg" viewBox="0 0 640 640"><!--! Font Awesome Pro 7.2.0 by @fontawesome - https://fontawesome.com License - https://fontawesome.com/license (Commercial License) Copyright 2026 Fonticons, Inc. --><path fill="currentColor" d="M160 288L160 512L480 512L480 288L512 288C529.7 288 544 273.7 544 256C544 216.9 521.7 185.4 480.3 162.1C438.3 138.5 380.1 125.6 320 125.6C259.9 125.6 201.7 138.5 159.7 162.1C118.3 185.4 96 216.9 96 256C96 273.7 110.3 288 128 288L160 288zM512 512L512 544L128 544L128 320C92.7 320 64 291.3 64 256C64 39.5 576 39.5 576 256C576 291.3 547.3 320 512 320L512 512z"/></svg>