<svg xmlns="http://www.w3.org/2000/svg" viewBox="0 0 640 640"><!--! Font Awesome Pro 7.2.0 by @fontawesome - https://fontawesome.com License - https://fontawesome.com/license (Commercial License) Copyright 2026 Fonticons, Inc. --><path fill="currentColor" d="M224 64L416 64L416 160L576 160L576 289.4C565.8 284.7 555.1 280.9 544 278L544 192L96 192L96 320L369 320C358.2 329.5 348.5 340.3 340 352L272 352L272 400L314.9 400C311.3 410.3 308.5 421 306.6 432L239.9 432L239.9 352L95.9 352L95.9 512L309.9 512C312.8 523.1 316.6 533.8 321.3 544L64 544L64 160L224 160L224 64zM384 96L256 96L256 160L384 160L384 96zM496 576C557.9 576 608 525.9 608 464C608 402.1 557.9 352 496 352C434.1 352 384 402.1 384 464C384 525.9 434.1 576 496 576zM496 320C575.5 320 640 384.5 640 464C640 543.5 575.5 608 496 608C416.5 608 352 543.5 352 464C352 384.5 416.5 320 496 320zM512 384L512 448L560 448L560 480L480 480L480 384L512 384z"/></svg>