<svg xmlns="http://www.w3.org/2000/svg" viewBox="0 0 640 640"><!--! Font Awesome Pro 7.2.0 by @fontawesome - https://fontawesome.com License - https://fontawesome.com/license (Commercial License) Copyright 2026 Fonticons, Inc. --><path fill="currentColor" d="M304 168L304 184L336 184L336 64L304 64L304 168zM320 256C355.3 256 384 284.7 384 320C384 355.3 355.3 384 320 384C284.7 384 256 355.3 256 320C256 284.7 284.7 256 320 256zM320 416C373 416 416 373 416 320C416 267 373 224 320 224C267 224 224 267 224 320C224 373 267 416 320 416zM304 576L336 576L336 464L304 464L304 576zM64 304L64 336L176 336L176 304L64 304zM472 304L456 304L456 336L576 336L576 304L472 304zM127.7 489.7L150.3 512.3L161.6 501L218.2 444.4L229.5 433.1L206.9 410.5L195.6 421.8L139 478.4L127.7 489.7zM416.2 201.2L404.9 212.5L427.5 235.1L438.8 223.8L501 161.6L512.3 150.3L489.7 127.7L478.4 139L416.2 201.2zM150.3 127.7L127.7 150.3L139 161.6L206.9 229.5L229.5 206.9L161.6 139L150.3 127.7zM438.8 416.2L427.5 404.9L404.9 427.5L416.2 438.8L478.4 501L489.7 512.3L512.3 489.7L501 478.4L438.8 416.2z"/></svg>