<svg xmlns="http://www.w3.org/2000/svg" viewBox="0 0 640 640"><!--! Font Awesome Pro 7.2.0 by @fontawesome - https://fontawesome.com License - https://fontawesome.com/license (Commercial License) Copyright 2026 Fonticons, Inc. --><path fill="currentColor" d="M320 64C282.8 64 250.5 85.2 234.6 116.1C226.2 113.4 217.3 112 208 112C159.4 112 120 151.4 120 200C120 210.7 121.9 220.9 125.4 230.4C89.5 244.3 64 279.1 64 320C64 373 107 416 160 416L168 416C168 416 224 480 256 576L384 576C416 480 472 416 472 416L480 416C533 416 576 373 576 320C576 279.2 550.5 244.3 514.6 230.4C518.1 220.9 520 210.7 520 200C520 151.4 480.6 112 432 112C422.7 112 413.8 113.4 405.4 116.1C389.5 85.2 357.2 64 320 64zM347.4 416C343 423.8 333.8 439.7 320 464C306.1 439.8 297 423.7 292.6 416L347.5 416zM256 416L256 416.5L260.2 423.9C285.3 467.9 299.1 491.9 301.4 496L338.5 496C340.8 491.9 354.6 467.9 379.7 423.9L383.9 416.5L383.9 416L431.3 416C426 423.2 419.8 432.2 413 442.7C396.8 468 377.4 502.6 361.4 544L278.4 544C262.5 502.6 243.1 468 226.8 442.7C220 432.2 213.8 423.2 208.5 416L255.9 416zM258.6 141.8C266.5 115.3 291 96 320 96C349 96 373.5 115.3 381.4 141.8L387.1 161L404.6 151.1C412.7 146.5 422 143.9 432 143.9C462.9 143.9 488 169 488 199.9C488 211.7 484.4 222.6 478.2 231.6L463.5 252.9L489.1 256.5C520.1 260.9 544 287.6 544 319.9C544 355.2 515.3 383.9 480 383.9L160 384C124.7 384 96 355.3 96 320C96 287.7 119.9 261 150.9 256.6L176.5 253L161.8 231.7C155.6 222.7 152 211.8 152 200C152 169.1 177.1 144 208 144C218 144 227.3 146.6 235.4 151.2L252.9 161.1L258.6 141.9zM320 528.5L320.3 528L319.7 528L320 528.5z"/></svg>