<svg xmlns="http://www.w3.org/2000/svg" viewBox="0 0 640 640"><!--! Font Awesome Pro 7.2.0 by @fontawesome - https://fontawesome.com License - https://fontawesome.com/license (Commercial License) Copyright 2026 Fonticons, Inc. --><path fill="currentColor" d="M372 276L584 64L608 88L396 300L448 352L448 384L372.1 396.6L373.5 406.4C380.1 452.7 364.5 499.4 331.5 532.4C303.7 560.2 265.9 575.9 226.5 575.9L32 575.9L32 543.9L128 447.9L96 447.9L96 444.1C96 440.8 96.1 437.6 96.3 434.3C96.7 428.1 97.5 421.9 98.7 415.9C104.2 387.9 118 361.8 138.5 341.3C172.1 307.7 219.7 291.8 266.7 298.6L275.2 299.8L287.9 223.9L319.9 223.9L371.9 275.9zM338.3 386.3L285.7 333.7L262.3 330.4C225.2 325.1 187.7 337.6 161.2 364.1C146.7 378.6 136.6 396.5 131.6 416L205.3 416C172 449.3 129.3 492 77.3 544L226.5 544C257.4 544 287 531.7 308.9 509.9C334.8 484 347 447.3 341.9 411L338.4 386.3zM408.8 358.1L313.9 263.2L306.7 306.7L365.4 365.4L408.9 358.2z"/></svg>