<svg xmlns="http://www.w3.org/2000/svg" viewBox="0 0 640 640"><!--! Font Awesome Pro 7.2.0 by @fontawesome - https://fontawesome.com License - https://fontawesome.com/license (Commercial License) Copyright 2026 Fonticons, Inc. --><path fill="currentColor" d="M372 244L584 32L608 56L396 268L448 320L289.2 579.9L272 608L248.7 584.7L55.3 391.3L32 368L60.1 350.8L320 192L372 244zM83.4 374.1L131.3 422C157.2 396.1 172.1 381.2 176 377.3L198.6 400C194.7 403.9 179.8 418.8 153.9 444.7L265.8 556.6L355.4 410L229.9 284.5L83.3 374.1zM372.6 382L407.5 324.8L315.1 232.4L257.9 267.3L372.5 381.9z"/></svg>