<svg xmlns="http://www.w3.org/2000/svg" viewBox="0 0 640 640"><!--! Font Awesome Pro 7.2.0 by @fontawesome - https://fontawesome.com License - https://fontawesome.com/license (Commercial License) Copyright 2026 Fonticons, Inc. --><path fill="currentColor" d="M416 96L96 96L96 544L192 544L192 416L278 416C275.3 426.4 273.5 437 272.6 448L223.9 448L223.9 544L289.3 544C294.5 555.3 300.7 566 307.9 576L63.9 576L63.9 64L447.9 64L447.9 272.7C436.9 273.6 426.3 275.4 415.9 278.1L415.9 96.1zM336 320.9C330.7 325.7 325.6 330.7 320.9 336L288 336L288 288L336 288L336 320.9zM336 176L336 224L288 224L288 176L336 176zM224 176L224 224L176 224L176 176L224 176zM176 288L224 288L224 336L176 336L176 288zM464 576C525.9 576 576 525.9 576 464C576 402.1 525.9 352 464 352C402.1 352 352 402.1 352 464C352 525.9 402.1 576 464 576zM464 320C543.5 320 608 384.5 608 464C608 543.5 543.5 608 464 608C384.5 608 320 543.5 320 464C320 384.5 384.5 320 464 320zM534.4 412.5L525 425.4L461 513.4L450 528.5C445.6 524.1 427.9 506.4 396.8 475.3L385.4 464L408 441.4C413 446.4 425.7 459.1 446.1 479.5L499.1 406.6L508.5 393.7L534.4 412.5z"/></svg>