<svg xmlns="http://www.w3.org/2000/svg" viewBox="0 0 640 640"><!--! Font Awesome Pro 7.2.0 by @fontawesome - https://fontawesome.com License - https://fontawesome.com/license (Commercial License) Copyright 2026 Fonticons, Inc. --><path fill="currentColor" d="M448.1 64L192.1 64L192.1 96L234.7 96L180.8 352L128.1 352L128.1 464L160.1 451.2L160.1 384L480.1 384L480.1 451.2L512.1 464L512.1 352L459.4 352L405.5 96L448.1 96L448.1 64zM372.8 96L382.1 140.4L320.1 212.8L258.1 140.4L267.4 96L372.8 96zM249.8 179.8L299.1 237.3L217.7 332.2L249.8 179.8zM320.2 261.9L397.4 352L243 352L320.2 261.9zM422.6 332.2L341.2 237.3L390.5 179.8L422.6 332.2zM199.1 489L193.4 486.9L187.7 489L66.7 534.9C38.3 524.3 21 517.8 14.7 515.4L3.5 545.4C8.9 547.4 28.1 554.6 61.1 567L66.7 569.1L72.3 567L193.3 521.1L314.3 567L320 569.1L325.7 567L446.7 521.1L567.7 567L573.3 569.1L578.9 567C612 554.6 631.2 547.4 636.5 545.4L625.3 515.4C619 517.8 601.6 524.3 573.3 534.9L452.3 489L446.6 486.9L440.9 489L319.9 534.9L198.9 489z"/></svg>