<svg xmlns="http://www.w3.org/2000/svg" viewBox="0 0 640 640"><!--! Font Awesome Pro 7.2.0 by @fontawesome - https://fontawesome.com License - https://fontawesome.com/license (Commercial License) Copyright 2026 Fonticons, Inc. --><path fill="currentColor" d="M176 48L208 48L208 281.2C196.6 278 185.8 273.9 176 269L176 48zM256 288C250.6 288 245.3 287.7 240 287.2L240 96L272 96L272 287.2C266.7 287.7 261.4 288 256 288zM304 281.2L304 64L336 64L336 265.5C328.8 269.3 322 273.3 315.7 277.6C311.9 278.9 308 280.2 304 281.3zM256 336C257 336 258 336 259 336C252.8 346 247.5 356.6 243.1 367.7C195.8 365.2 146.6 348.8 109 322.3L156.4 512L239.9 512L239.9 544L131.4 544L128.4 531.9L64.4 275.9L93 262.8C123.4 305.6 191.7 336 256 336zM400 224L368 224L368 96L400 96L400 224zM112 224L112 96L144 96L144 224L112 224zM608 384.3L608 432.1L576 432.1L576 390.6C575.3 389 574.3 387.1 573 384.8C569.1 377.9 562.8 368.4 553.3 358.8C534.9 340.4 502.9 320.1 448 320.1C393.1 320.2 361 340.5 342.6 358.9C333.1 368.4 326.8 377.9 322.9 384.8C321.6 387.1 320.7 389 319.9 390.6L319.9 432.1L287.9 432.1L287.9 384.3C287.9 384.3 319.9 288.3 447.9 288.1C575.9 288.2 607.9 384.3 607.9 384.3zM288 607.6L288 528.1L320 528.1L320 575.6L576 575.6L576 528.1L608 528.1L608 607.6L288 607.6zM608 496L288 496L288 464L608 464L608 496zM432 352C432 343.2 439.2 336 448 336C456.8 336 464 343.2 464 352C464 360.8 456.8 368 448 368C439.2 368 432 360.8 432 352zM384 368C392.8 368 400 375.2 400 384C400 392.8 392.8 400 384 400C375.2 400 368 392.8 368 384C368 375.2 375.2 368 384 368zM496 384C496 375.2 503.2 368 512 368C520.8 368 528 375.2 528 384C528 392.8 520.8 400 512 400C503.2 400 496 392.8 496 384z"/></svg>