<svg xmlns="http://www.w3.org/2000/svg" viewBox="0 0 640 640"><!--! Font Awesome Pro 7.2.0 by @fontawesome - https://fontawesome.com License - https://fontawesome.com/license (Commercial License) Copyright 2026 Fonticons, Inc. --><path fill="currentColor" d="M376.8 182.8C347.2 120.9 328.2 81.3 320 64C294 118.4 263.8 181.5 263.2 182.8C259.2 180.4 212 152.3 121.9 98.5L64 64C81.4 93.3 115.6 150.5 166.4 235.6L182.9 263.2C144.7 281.5 69.5 317.4 64.1 320C81.4 328.3 121 347.2 182.9 376.8C160 441.5 145.4 482.9 139.1 501C157.2 494.6 198.6 480 263.3 457.2C292.9 519.1 311.9 558.7 320.1 576C328.4 558.7 347.3 519.1 376.9 457.2C441.6 480.1 483 494.7 501.1 501C494.7 482.9 480.1 441.5 457.3 376.8C519.2 347.2 558.8 328.2 576.1 320C558.8 311.7 519.2 292.8 457.3 263.2C480.2 198.5 494.8 157.1 501.1 139C483 145.4 441.6 160 376.9 182.8zM448.5 191.4C432.1 237.8 421.7 267.2 417.4 279.6C429.3 285.3 457.4 298.7 501.8 320C457.4 341.2 429.3 354.7 417.4 360.4C421.8 372.8 432.2 402.2 448.5 448.6C402.1 432.2 372.7 421.8 360.3 417.5C354.6 429.4 341.2 457.5 319.9 501.9C298.7 457.5 285.2 429.4 279.5 417.5C267.1 421.9 237.7 432.3 191.3 448.6C207.7 402.2 218.1 372.8 222.4 360.4C210.5 354.7 182.4 341.3 138 320C181.4 299.2 211.5 284.9 228.1 276.9C222.1 266.9 198.1 226.7 156.2 156.3C226.5 198.3 266.7 222.2 276.8 228.2C284.8 211.6 299.1 181.5 319.9 138.1C341.1 182.5 354.6 210.6 360.3 222.5C372.7 218.1 402.1 207.7 448.5 191.4z"/></svg>