<svg xmlns="http://www.w3.org/2000/svg" viewBox="0 0 640 640"><!--! Font Awesome Pro 7.2.0 by @fontawesome - https://fontawesome.com License - https://fontawesome.com/license (Commercial License) Copyright 2026 Fonticons, Inc. --><path fill="currentColor" d="M192 80L192 64L160 64L160 128L64 128L64 544L289.4 544C284.7 533.8 280.9 523.1 278 512L96 512L96 256L512 256L512 128L416 128L416 64L384 64L384 128L192 128L192 80zM96 160L480 160L480 224L96 224L96 160zM464 352C525.9 352 576 402.1 576 464C576 525.9 525.9 576 464 576C402.1 576 352 525.9 352 464C352 402.1 402.1 352 464 352zM464 608C543.5 608 608 543.5 608 464C608 384.5 543.5 320 464 320C384.5 320 320 384.5 320 464C320 543.5 384.5 608 464 608zM544 480L544 448L384 448L384 480L544 480z"/></svg>