<svg xmlns="http://www.w3.org/2000/svg" viewBox="0 0 640 640"><!--! Font Awesome Pro 7.2.0 by @fontawesome - https://fontawesome.com License - https://fontawesome.com/license (Commercial License) Copyright 2026 Fonticons, Inc. --><path fill="currentColor" d="M512 320L512 331.2L519 340L554.2 384L85.8 384L121 340L128 331.2L128 128L512 128L512 320zM64 512L64 416L576 416L576 512L64 512zM608 512L608 400L544 320L544 96L96 96L96 320L32 400L32 544L608 544L608 512zM368 256C368 282.5 346.5 304 320 304C293.5 304 272 282.5 272 256C272 229.5 293.5 208 320 208C346.5 208 368 229.5 368 256zM320 176C275.8 176 240 211.8 240 256C240 300.2 275.8 336 320 336C364.2 336 400 300.2 400 256C400 211.8 364.2 176 320 176zM128 448L128 480L512 480L512 448L128 448zM472 168L424 168L424 216L472 216L472 168z"/></svg>