<svg xmlns="http://www.w3.org/2000/svg" viewBox="0 0 640 640"><!--! Font Awesome Pro 7.2.0 by @fontawesome - https://fontawesome.com License - https://fontawesome.com/license (Commercial License) Copyright 2026 Fonticons, Inc. --><path fill="currentColor" d="M399.8 501.4C399.8 500.8 399.8 500.3 399.9 499.7C400 498.5 400 497.3 400 496L400 464L432 464C463.7 464 493.8 451.2 517.2 436.7C518.1 436.2 518.9 435.6 519.7 435.1C520.2 434.7 520.8 434.4 521.3 434C497.4 418.1 474.9 403.1 453.7 388.9L481.3 361.3C507.6 335 523.7 297.1 533.1 263.4C534.6 257.8 535.9 252.4 537.1 247.4C529.9 249 522.1 250.8 514.1 252.9C496.1 257.6 477.3 263.6 460.6 271C443.5 278.5 430.6 286.6 422.6 294.6L368 349.3L368 272C368 214.8 350.1 168.1 332 135.5C327.9 128.2 323.8 121.6 320 115.8C316.2 121.6 312.1 128.2 308 135.5C289.9 168.1 272 214.7 272 272L272 349.3L217.4 294.7C209.4 286.7 196.5 278.6 179.4 271.1C162.7 263.7 143.9 257.7 125.9 253C117.9 250.9 110.1 249 102.9 247.5C104.1 252.6 105.4 258 106.9 263.5C116.3 297.3 132.3 335.1 158.7 361.4L186.2 389C165 403.1 142.5 418.2 118.6 434.1C119.1 434.4 119.6 434.8 120.1 435.1C121 435.7 121.9 436.3 122.8 436.8C146.2 451.2 176.3 464.1 208 464.1L240 464.1L240 496.1C240 497.5 240.1 498.9 240.1 500.2C240.1 500.6 240.1 501 240.1 501.5C258.6 494 281.5 483.3 302.2 469.5L304 468.3L304 384.1L336 384.1L336 468.3L337.8 469.5C358.5 483.3 381.4 494 399.9 501.5zM304 506C260.4 531.4 216 544 216 544C216 544 208 528 208 496C128 496 64 432 64 432L136 384C72 320 64 208 64 208C64 208 192 224 240 272C240 144 320 64 320 64C320 64 400 144 400 272C448 224 576 208 576 208C576 208 568 320 504 384L576 432C576 432 512 496 432 496C432 528 424 544 424 544C424 544 379.6 531.3 336 506L336 576L304 576L304 506z"/></svg>