<svg xmlns="http://www.w3.org/2000/svg" viewBox="0 0 640 640"><!--! Font Awesome Pro 7.2.0 by @fontawesome - https://fontawesome.com License - https://fontawesome.com/license (Commercial License) Copyright 2026 Fonticons, Inc. --><path fill="currentColor" d="M48 96C91.2 96 128.7 120.5 147.3 156.3C170 120.1 210.2 96 256 96C326.7 96 384 153.3 384 224L384 331.4C407.5 304.8 441.8 288 480 288C550.7 288 608 345.3 608 416C608 486.7 550.7 544 480 544C441.8 544 407.5 527.2 384 500.6L384 576L256 576L256 544L352 544L352 224C352 171 309 128 256 128C203 128 160 171 160 224L160 480L128 480L128 208C128 163.8 92.2 128 48 128L32 128L32 96L48 96zM480 320C427 320 384 363 384 416C384 469 427 512 480 512C533 512 576 469 576 416C576 363 533 320 480 320z"/></svg>