<svg xmlns="http://www.w3.org/2000/svg" viewBox="0 0 640 640"><!--! Font Awesome Pro 7.2.0 by @fontawesome - https://fontawesome.com License - https://fontawesome.com/license (Commercial License) Copyright 2026 Fonticons, Inc. --><path fill="currentColor" d="M164.5 96L475.6 96L479.2 106.9L528.9 256L608 256L608 288L576 288L576 544L544 544L544 480L96 480L96 544L64 544L64 288L32 288L32 256L111.1 256L160.8 106.9L164.4 96zM144 288L96 288L96 448L544 448L544 288L144 288zM452.5 128L187.6 128L144.9 256L495.2 256L452.5 128zM144 368C144 354.7 154.7 344 168 344C181.3 344 192 354.7 192 368C192 381.3 181.3 392 168 392C154.7 392 144 381.3 144 368zM472 344C485.3 344 496 354.7 496 368C496 381.3 485.3 392 472 392C458.7 392 448 381.3 448 368C448 354.7 458.7 344 472 344z"/></svg>