<svg xmlns="http://www.w3.org/2000/svg" viewBox="0 0 640 640"><!--! Font Awesome Pro 7.2.0 by @fontawesome - https://fontawesome.com License - https://fontawesome.com/license (Commercial License) Copyright 2026 Fonticons, Inc. --><path fill="currentColor" d="M336 112C336 111.3 335.5 107.5 331.9 100.3C328.9 94.3 324.7 87.8 320 81.4C315.3 87.8 311.1 94.4 308.1 100.3C304.5 107.5 304 111.2 304 112C304 120.8 311.2 128 320 128C327 128 330.7 125.9 332.3 124.5C333.5 123.4 336 120.5 336 112zM272 112C272 94.7 286 72.7 298.9 56.2C309.9 42.1 320 32 320 32C320 32 330.1 42.1 341.1 56.2C354 72.7 368 94.7 368 112C368 144 346.5 160 320 160C293.5 160 272 138.5 272 112zM180 208L459.9 208L463.3 219.5L497.6 336L544 336L544 576L512 576L512 528L128 528L128 576L96 576L96 336L142.4 336L176.7 219.5L180.1 208zM128 448L128 496L512 496L512 368L128 368L128 448zM436 240L203.9 240L175.7 336L464.2 336L436 240zM192 408C205.3 408 216 418.7 216 432C216 445.3 205.3 456 192 456C178.7 456 168 445.3 168 432C168 418.7 178.7 408 192 408zM424 432C424 418.7 434.7 408 448 408C461.3 408 472 418.7 472 432C472 445.3 461.3 456 448 456C434.7 456 424 445.3 424 432zM172.3 124.5C173.5 123.4 176 120.5 176 112C176 111.3 175.5 107.5 171.9 100.3C168.9 94.3 164.7 87.8 160 81.4C155.3 87.8 151.1 94.4 148.1 100.3C144.5 107.5 144 111.2 144 112C144 120.8 151.2 128 160 128C167 128 170.7 125.9 172.3 124.5zM138.9 56.2C149.9 42.1 160 32 160 32C160 32 170.1 42.1 181.1 56.2C194 72.7 208 94.7 208 112C208 144 186.5 160 160 160C133.5 160 112 138.5 112 112C112 94.7 126 72.7 138.9 56.2zM496 112C496 111.3 495.5 107.5 491.9 100.3C488.9 94.3 484.7 87.8 480 81.4C475.3 87.8 471.1 94.4 468.1 100.3C464.5 107.5 464 111.2 464 112C464 120.8 471.2 128 480 128C487 128 490.7 125.9 492.3 124.5C493.5 123.4 496 120.5 496 112zM432 112C432 94.7 446 72.7 458.9 56.2C469.9 42.1 480 32 480 32C480 32 490.1 42.1 501.1 56.2C514 72.7 528 94.7 528 112C528 144 506.5 160 480 160C453.5 160 432 138.5 432 112z"/></svg>