<svg xmlns="http://www.w3.org/2000/svg" viewBox="0 0 640 640"><!--! Font Awesome Pro 7.2.0 by @fontawesome - https://fontawesome.com License - https://fontawesome.com/license (Commercial License) Copyright 2026 Fonticons, Inc. --><path fill="currentColor" d="M176 96L272 96L272 128L144 128L144 96L176 96zM400 96L496 96L496 128L368 128L368 96L400 96zM96 192L96 480L544 480L544 192L96 192zM64 160L576 160L576 512L64 512L64 160zM448 240L448 288L496 288L496 320L448 320L448 368L416 368L416 320L368 320L368 288L416 288L416 240L448 240zM160 288L272 288L272 320L144 320L144 288L160 288z"/></svg>