<svg xmlns="http://www.w3.org/2000/svg" viewBox="0 0 640 640"><!--! Font Awesome Pro 7.2.0 by @fontawesome - https://fontawesome.com License - https://fontawesome.com/license (Commercial License) Copyright 2026 Fonticons, Inc. --><path fill="currentColor" d="M512 576L128 576L128 64L512 64L512 576zM160 544L480 544L480 96L160 96L160 544zM368 448L272 448L272 416L368 416L368 448zM331.3 196.2C349.6 214.5 380.9 245.8 425 289.9C450 314.9 450 355.4 425 380.4C401.6 403.8 364.5 405.3 339.3 384.8L334.5 380.4L320 365.9L305.5 380.4C282.1 403.8 245 405.3 219.8 384.8L215 380.4C190 355.4 190 314.9 215 289.9C257.2 247.6 292.2 212.6 320 184.9L331.3 196.2zM297.3 252.8L237.6 312.5C225.1 325 225.1 345.3 237.6 357.8L240 360C252.6 370.2 271.1 369.5 282.8 357.8C302.4 338.2 314.8 325.8 319.9 320.7L331.2 332L357 357.8C369.5 370.3 389.8 370.3 402.2 357.8C414.6 345.3 414.7 325 402.2 312.5L342.5 252.8L319.8 230.2L297.2 252.8z"/></svg>