<svg xmlns="http://www.w3.org/2000/svg" viewBox="0 0 640 640"><!--! Font Awesome Pro 7.2.0 by @fontawesome - https://fontawesome.com License - https://fontawesome.com/license (Commercial License) Copyright 2026 Fonticons, Inc. --><path fill="currentColor" d="M16 64L0 64L0 96L74.6 96L136.2 434.9L138.6 448L304.6 448C305.5 437 307.3 426.4 310 416L165.3 416L153.7 352L340 352C348.4 340.3 358.2 329.5 369 320L147.9 320L113 128L537.5 128L510.4 272.5C521.2 273.3 531.8 275 542 277.5C564.4 158.2 575.7 97.7 576 96L107.2 96C104.7 82.5 102.8 71.8 101.4 64L16 64zM188 524C188 513 197 504 208 504C219 504 228 513 228 524C228 535 219 544 208 544C197 544 188 535 188 524zM260 524C260 495.3 236.7 472 208 472C179.3 472 156 495.3 156 524C156 552.7 179.3 576 208 576C236.7 576 260 552.7 260 524zM384 464C384 402.1 434.1 352 496 352C557.9 352 608 402.1 608 464C608 525.9 557.9 576 496 576C434.1 576 384 525.9 384 464zM640 464C640 384.5 575.5 320 496 320C416.5 320 352 384.5 352 464C352 543.5 416.5 608 496 608C575.5 608 640 543.5 640 464zM512 400L512 384L480 384L480 448L416 448L416 480L480 480L480 544L512 544L512 480L576 480L576 448L512 448L512 400z"/></svg>