<svg xmlns="http://www.w3.org/2000/svg" viewBox="0 0 640 640"><!--! Font Awesome Pro 7.2.0 by @fontawesome - https://fontawesome.com License - https://fontawesome.com/license (Commercial License) Copyright 2026 Fonticons, Inc. --><path fill="currentColor" d="M96 112L96 96L64 96L64 544L576 544L576 512L96 512L96 112zM369.2 274.9L391.8 299.5C404.7 286.6 426.1 265.2 456.1 235.2L512.1 291.2L512.1 415.9L192.1 415.9L192.1 325.9L304.1 203.7L369.3 274.8zM456 190.1C421.3 224.8 407.2 238.9 392.8 253.3C382.3 241.9 360 217.5 325.8 180.2L304 156.5L282.3 180.2L160 313.6L160 448L544 448L544 278.1C493.3 227.4 464 198.1 456 190.1z"/></svg>