<svg xmlns="http://www.w3.org/2000/svg" viewBox="0 0 640 640"><!--! Font Awesome Pro 7.2.0 by @fontawesome - https://fontawesome.com License - https://fontawesome.com/license (Commercial License) Copyright 2026 Fonticons, Inc. --><path fill="currentColor" d="M96 112L96 96L64 96L64 544L576 544L576 512L96 512L96 112zM187.8 307.7C193.2 284.7 199.3 259 210.5 238.9C221.3 219.5 235.1 208 256 208C275 208 289.1 216.7 301.9 232.2C315.3 248.4 325.8 270.4 337.5 294.9C338.1 296.1 338.6 297.2 339.1 298.4C350 321.3 361.1 344.6 377.3 364.2C394.2 384.7 416.7 400 447.9 400C484.6 400 507.3 378 521.4 352.6C534.8 328.5 541.8 299 546.9 277.1L547.2 275.6L516.1 268.2C510.7 291.2 504.6 316.9 493.4 337C482.6 356.4 468.8 367.9 447.9 367.9C428.9 367.9 414.8 359.2 402 343.7C388.6 327.5 378 305.5 366.4 281C365.9 279.8 365.3 278.7 364.8 277.5C353.9 254.6 342.8 231.3 326.6 211.7C309.7 191.2 287.2 175.9 256 175.9C219.3 175.9 196.6 197.9 182.5 223.3C169.1 247.4 162.1 276.9 157 298.8L156.7 300.3L187.8 307.7z"/></svg>