<svg xmlns="http://www.w3.org/2000/svg" viewBox="0 0 640 640"><!--! Font Awesome Pro 7.2.0 by @fontawesome - https://fontawesome.com License - https://fontawesome.com/license (Commercial License) Copyright 2026 Fonticons, Inc. --><path fill="currentColor" d="M320 96C373 96 416 139 416 192C416 216.6 406.6 239 391.4 256L408 256L408 288L386.7 288L400 448L464 528L464 576L176 576L176 528L240 448L253.3 288L232 288L232 256L248.6 256C233.4 239 224 216.6 224 192C224 139 267 96 320 96zM255.4 480L208 539.3L208 544L432 544L432 539.3L384.6 480L255.4 480zM272.1 448L367.9 448L354.6 288L285.5 288L272.2 448zM320 128C284.7 128 256 156.7 256 192C256 227.3 284.7 256 320 256C355.3 256 384 227.3 384 192C384 156.7 355.3 128 320 128z"/></svg>