<svg xmlns="http://www.w3.org/2000/svg" viewBox="0 0 640 640"><!--! Font Awesome Pro 7.2.0 by @fontawesome - https://fontawesome.com License - https://fontawesome.com/license (Commercial License) Copyright 2026 Fonticons, Inc. --><path fill="currentColor" d="M132.8 128C132.8 110.3 147.1 96 164.8 96C182.5 96 196.8 110.3 196.8 128C196.8 145.7 182.5 160 164.8 160C147.1 160 132.8 145.7 132.8 128zM228.8 128C228.8 92.7 200.1 64 164.8 64C129.5 64 100.8 92.7 100.8 128C100.8 163.3 129.5 192 164.8 192C200.1 192 228.8 163.3 228.8 128zM76.8 464L100.8 464L100.8 576L132.8 576L132.8 464L196.8 464L196.8 576L228.8 576L228.8 464L273.7 464L268.3 443.8L226.8 289.8L296.3 377.9L319.4 359.7L346.5 376.3L396.9 294.2L396.9 576L428.9 576L428.9 448L524.9 448L524.9 576L556.9 576L556.9 294.2L607.3 376.3L634.6 359.6L556.1 231.6L551.4 224L402.5 224L397.8 231.6L320.8 357.2L220.6 230.1L215.8 224L114.1 224L109.3 230.1L8.4 358.1L33.5 377.9L103 289.8L61.5 443.8L56.1 464L77 464zM145 256L184.5 256L231.9 432L97.7 432L145.1 256zM476.8 96C494.5 96 508.8 110.3 508.8 128C508.8 145.7 494.5 160 476.8 160C459.1 160 444.8 145.7 444.8 128C444.8 110.3 459.1 96 476.8 96zM476.8 192C512.1 192 540.8 163.3 540.8 128C540.8 92.7 512.1 64 476.8 64C441.5 64 412.8 92.7 412.8 128C412.8 163.3 441.5 192 476.8 192zM524.8 264L524.8 416L428.8 416L428.8 256L524.8 256L524.8 264z"/></svg>