<svg xmlns="http://www.w3.org/2000/svg" viewBox="0 0 640 640"><!--! Font Awesome Pro 7.2.0 by @fontawesome - https://fontawesome.com License - https://fontawesome.com/license (Commercial License) Copyright 2026 Fonticons, Inc. --><path fill="currentColor" d="M288.1 128C288.1 110.3 302.4 96 320.1 96C337.8 96 352.1 110.3 352.1 128C352.1 145.7 337.8 160 320.1 160C302.4 160 288.1 145.7 288.1 128zM384.1 128C384.1 92.7 355.4 64 320.1 64C284.8 64 256.1 92.7 256.1 128C256.1 163.3 284.8 192 320.1 192C355.4 192 384.1 163.3 384.1 128zM254.6 224L245.6 224L240.9 231.6L162.4 359.6L189.7 376.3L240.1 294.2L240.1 576L272.1 576L272.1 448L368.1 448L368.1 576L400.1 576L400.1 294.2L450.5 376.3L477.8 359.6L399.3 231.6L394.6 224L254.6 224zM368.1 416L272.1 416L272.1 256L368.1 256L368.1 416z"/></svg>