<svg xmlns="http://www.w3.org/2000/svg" viewBox="0 0 640 640"><!--! Font Awesome Pro 7.2.0 by @fontawesome - https://fontawesome.com License - https://fontawesome.com/license (Commercial License) Copyright 2026 Fonticons, Inc. --><path fill="currentColor" d="M320 96C443.7 96 544 196.3 544 320C544 443.7 443.7 544 320 544C196.3 544 96 443.7 96 320C96 196.3 196.3 96 320 96zM320 576C461.4 576 576 461.4 576 320C576 178.6 461.4 64 320 64C178.6 64 64 178.6 64 320C64 461.4 178.6 576 320 576zM415.4 208L415.4 192L383.4 192L383.4 309.4C361.4 318.2 346.7 324.1 339.2 327.1L351.1 356.8C360.6 353 371.3 348.7 383.4 343.9L383.4 448L415.4 448L415.4 331.1C438.4 321.9 453.5 315.9 460.8 313L448.9 283.3C439.6 287 428.5 291.5 415.4 296.7L415.4 208.1zM200 256L200 288L272.4 288L217.2 426.1L208.4 448L328 448L328 416L255.6 416L310.8 277.9L319.6 256L200 256z"/></svg>