<svg xmlns="http://www.w3.org/2000/svg" viewBox="0 0 640 640"><!--! Font Awesome Pro 7.2.0 by @fontawesome - https://fontawesome.com License - https://fontawesome.com/license (Commercial License) Copyright 2026 Fonticons, Inc. --><path fill="currentColor" d="M320 96C443.7 96 544 196.3 544 320C544 443.7 443.7 544 320 544C196.3 544 96 443.7 96 320C96 196.3 196.3 96 320 96zM320 576C461.4 576 576 461.4 576 320C576 178.6 461.4 64 320 64C178.6 64 64 178.6 64 320C64 461.4 178.6 576 320 576zM432 192L400 192L400 224.3C373 227.4 352 250.3 352 278.1C352 300.2 365.5 320.2 386 328.4L418 341.2C426.4 344.6 431.9 352.7 431.9 361.8C431.9 374 422 384 409.7 384L359.9 384L359.9 416L399.9 416L399.9 448L431.9 448L431.9 411.3C450.8 402.8 463.9 383.9 463.9 361.9C463.9 339.8 450.4 319.8 429.9 311.6L397.9 298.8C389.5 295.4 384 287.3 384 278.2C384 266 393.9 256 406.2 256L456 256L456 224L432 224L432 192zM192 208L176 208L176 432L208 432L208 352L245.2 352C267.5 407.8 278.8 436.1 279.1 436.8L308.8 424.9C308.1 423.2 297.6 396.9 277.2 345.8C302.4 334.6 320 309.3 320 280C320 240.2 287.8 208 248 208L192 208zM248 320L208 320L208 240L248 240C270.1 240 288 257.9 288 280C288 302.1 270.1 320 248 320z"/></svg>