<svg xmlns="http://www.w3.org/2000/svg" viewBox="0 0 640 640"><!--! Font Awesome Pro 7.2.0 by @fontawesome - https://fontawesome.com License - https://fontawesome.com/license (Commercial License) Copyright 2026 Fonticons, Inc. --><path fill="currentColor" d="M320 96C443.7 96 544 196.3 544 320C544 443.7 443.7 544 320 544C196.3 544 96 443.7 96 320C96 196.3 196.3 96 320 96zM320 576C461.4 576 576 461.4 576 320C576 178.6 461.4 64 320 64C178.6 64 64 178.6 64 320C64 461.4 178.6 576 320 576zM245.9 264L224 264L224 296L255.3 296L257.3 301.2C259.7 307.3 261.1 313.6 261.6 320L224 320L224 352L256.2 352C254.5 355.8 252.5 359.4 250.2 362.8L226.9 396.6L224.1 400.7L224.1 432L416.1 432L416.1 400L263.5 400L276.6 381C282.8 372 287.3 362.2 290.2 352L384.1 352L384.1 320L293.8 320C293.4 311.9 291.9 303.9 289.5 296L384.1 296L384.1 264L278.3 264C273.4 235.5 295.2 208 325.7 208L328.7 208C340.2 208 351.5 211.9 360.5 219.1L382.2 236.4L402.2 211.4L380.5 194.1C365.8 182.3 347.6 175.9 328.7 175.9L325.7 175.9C276.9 175.9 241.3 218.4 246 263.9z"/></svg>