<svg xmlns="http://www.w3.org/2000/svg" viewBox="0 0 640 640"><!--! Font Awesome Pro 7.2.0 by @fontawesome - https://fontawesome.com License - https://fontawesome.com/license (Commercial License) Copyright 2026 Fonticons, Inc. --><path fill="currentColor" d="M208 176L432 176L432 128L480 128L480 544L160 544L160 128L208 128L208 176zM208 64L208 96L128 96L128 576L512 576L512 96L432 96L432 64L208 64zM400 144L240 144L240 96L400 96L400 144zM240 256L224 256L224 432L256 432L256 368L266 368L325.4 420C300 445.4 285.4 460 281.4 464L304 486.6C307.7 482.9 322.9 467.7 349.5 441.1C380.8 468.5 398.1 483.6 401.5 486.6L422.6 462.5C419 459.3 402.2 444.6 372.2 418.4C402.9 387.7 419.7 370.9 422.6 368L400 345.4C397.3 348.1 380 365.4 348.1 397.3L312 365.7C335.2 358.8 352.1 337.4 352.1 312C352.1 281.1 327 256 296.1 256L240.1 256zM272 336L256 336L256 288L296 288C309.3 288 320 298.7 320 312C320 325.3 309.3 336 296 336L272 336z"/></svg>