<svg xmlns="http://www.w3.org/2000/svg" viewBox="0 0 640 640"><!--! Font Awesome Pro 7.2.0 by @fontawesome - https://fontawesome.com License - https://fontawesome.com/license (Commercial License) Copyright 2026 Fonticons, Inc. --><path fill="currentColor" d="M208 176L432 176L432 128L480 128L480 544L160 544L160 128L208 128L208 176zM208 64L208 96L128 96L128 576L512 576L512 96L432 96L432 64L208 64zM400 144L240 144L240 96L400 96L400 144zM320 272C340.6 272 357.2 288.7 357.2 309.2C357.2 324.9 348.8 333.7 338.7 339.3C328.1 345.3 317.7 346.6 306.1 348L304 348.3L304 400L336 400L336 375.1C365.8 365.9 389.2 342 389.2 309.2C389.2 271 358.2 240 320 240C281.8 240 250.8 271 250.8 309.2L282.8 309.2C282.8 288.6 299.5 272 320 272zM300 428L300 468L340 468L340 428L300 428z"/></svg>