<svg xmlns="http://www.w3.org/2000/svg" viewBox="0 0 640 640"><!--! Font Awesome Pro 7.2.0 by @fontawesome - https://fontawesome.com License - https://fontawesome.com/license (Commercial License) Copyright 2026 Fonticons, Inc. --><path fill="currentColor" d="M544 320C544 196.3 443.7 96 320 96C196.3 96 96 196.3 96 320C96 443.7 196.3 544 320 544C443.7 544 544 443.7 544 320zM64 320C64 178.6 178.6 64 320 64C461.4 64 576 178.6 576 320C576 461.4 461.4 576 320 576C178.6 576 64 461.4 64 320zM336 176L336 315.2L397.3 407.2L406.2 420.5L379.6 438.3L370.7 425L306.7 329L304 325L304 160.2L336 160.2L336 176.2z"/></svg>