<svg xmlns="http://www.w3.org/2000/svg" viewBox="0 0 640 640"><!--! Font Awesome Pro 7.2.0 by @fontawesome - https://fontawesome.com License - https://fontawesome.com/license (Commercial License) Copyright 2026 Fonticons, Inc. --><path fill="currentColor" d="M530.5 32.2C528.2 32.1 525.8 32 523.5 32C467.6 32 419.1 63.9 395.3 110.4C405 115.4 413.9 121.7 421.9 128.9C435.4 99.8 461 77.5 492.2 68.5C474.8 92.4 464.5 121.8 464.5 153.6C464.5 177.9 470.5 200.8 481.1 220.9C495.2 232.4 506.8 246.9 515 263.3C525.1 272 536.5 279.3 548.8 285C540.8 286.9 532.5 287.9 524.2 288C526.8 298.2 528.2 308.9 528.2 319.9C553.6 318.9 578.5 311.2 600.1 297.8C603.2 295.9 606.1 293.9 609.1 291.7C620.4 283.4 630.6 273.4 639.2 262C629.6 264.6 619.6 266.1 609.1 266.1C603.2 266.1 597.4 265.6 591.8 264.8C537.9 256.5 496.6 209.9 496.6 153.6C496.6 117.7 513.4 85.8 539.5 65.2C551.8 55.5 566.2 48.3 581.9 44.4C566.1 37.4 548.8 33.1 530.6 32.3zM281 316.8L128.2 448.7L128.2 492.8L191.2 492.8L166 604.8L199.4 604.8L352.2 472.9L352.2 428.8L289.2 428.8L314.4 316.8L281 316.8zM163.2 460.8L270 368.6L249.3 460.8L317.2 460.8L210.4 553L231.1 460.8L163.2 460.8zM144.3 208C144.3 172.7 172.9 144 208.3 144C237.4 144 262 163.4 269.7 190L278.6 220.6L297.8 195.1C306.6 183.4 320.5 175.9 336.2 175.9C362.7 175.9 384.2 197.4 384.2 223.9L384.2 271.9L400.2 271.9C426.7 271.9 448.2 293.4 448.2 319.9L448.2 367.9L400.3 367.9L400.3 384L400.3 384L400.3 399.9L480.2 399.9L480.2 319.9C480.2 281.2 452.7 248.9 416.2 241.5L416.2 223.9C416.2 179.7 380.4 143.9 336.2 143.9C319.2 143.9 303.4 149.2 290.4 158.3C273.6 130.5 243.1 111.9 208.2 111.9C157.4 111.9 115.9 151.3 112.5 201.2C67 208.7 32.3 248.3 32.3 295.9L32.3 399.9L115.1 399.9L152.2 367.9L64.4 367.9L64.4 295.9C64.4 260.6 93.1 231.9 128.4 231.9L144.4 231.9L144.4 207.9z"/></svg>