<svg xmlns="http://www.w3.org/2000/svg" viewBox="0 0 640 640"><!--! Font Awesome Pro 7.2.0 by @fontawesome - https://fontawesome.com License - https://fontawesome.com/license (Commercial License) Copyright 2026 Fonticons, Inc. --><path fill="currentColor" d="M160 320C183.9 320 205.9 328.8 222.7 343.3C232.9 338.6 244.2 336 256 336C297.8 336 332.1 369 335.6 409.4C364.3 423.9 384 453.6 384 488L384 576L32 576L32 488C32 460.6 44.5 436.2 64.1 420C62 367 105.4 320 160 320zM160 352C121.7 352 91.2 387.5 96.7 425.3L98.2 435.4L89.6 441C74.2 451 64 468.3 64 488L64 544L352 544L352 488C352 463.6 336.4 442.8 314.6 435.2L303.2 431.2L304 419.1C305.7 392 283.3 368 256.1 368C246.1 368 236.8 371.1 229.1 376.3L217.4 384.2L208.1 373.6C196.3 360.3 179.2 351.9 160.1 351.9zM416 256C457.9 256 493.3 282.8 506.4 320.2C508.2 320.1 510.1 320 512 320C565 320 608 363 608 416L608 512L429.8 512C431.2 504.2 432 496.2 432 488C432 485.3 431.9 482.6 431.8 480L576 480L576 416C576 380.7 547.3 352 512 352C507.3 352 502.6 352.5 498.1 353.5L481.8 357.1L478.9 340.7C473.6 310.7 447.4 288 416 288C388.1 288 364.5 305.8 355.7 330.7C348.4 322.1 340 314.5 330.7 308.3C346.6 277.3 378.8 256.1 416 256.1zM272 176C305.6 176 334.3 196.7 346.2 226.1C336.3 231.6 327.2 238.2 318.9 245.7C314.2 224.2 295 208 272.1 208C245.6 208 224.1 229.5 224.1 256C224.1 269.6 229.8 281.9 239 290.7C237.1 291.1 235.2 291.5 233.3 292C221.5 285 208.5 279.7 194.8 276.3C193.1 269.8 192.1 263 192.1 256C192.1 211.8 227.9 176 272.1 176zM285.2 39.2L332.5 109.6L415.8 93.3L439.1 88.8L434.6 112L418.3 195.3L440.2 210C432.3 208.7 424.2 207.9 416 207.9C405.3 207.9 395 209.1 385 211.3L383 210L385 199.6L398.7 129.2L328.3 143L317.9 145L312 136.2L271.9 76.7L231.9 136.2L226 145L215.6 143L145.2 129.2L159 199.6L161 210L152.2 215.9L92.7 255.9L123.5 276.6C110.9 279.9 99 284.8 88 291.2C64 275 46.5 263.3 35.6 255.9C40.3 252.8 70.3 232.5 125.7 195.3L109.4 112L104.9 88.7L128.1 93.2L211.4 109.5L258.8 39.1L272 19.4L285.2 39.1z"/></svg>