<svg xmlns="http://www.w3.org/2000/svg" viewBox="0 0 640 640"><!--! Font Awesome Pro 7.2.0 by @fontawesome - https://fontawesome.com License - https://fontawesome.com/license (Commercial License) Copyright 2026 Fonticons, Inc. --><path fill="currentColor" d="M320.4 110.1L344.7 85.8L349.4 81.1L373.1 81.1C411.8 81.1 443.2 112.5 443.2 151.2C443.2 163.3 440.6 175.3 435.5 186.3L433.2 191L413.4 227.7L449 207.8L453.7 205.3C464.9 199.9 477.2 197.1 489.6 197.1C528.1 197.1 559.3 228.3 559.3 266.8L559.3 290.9L554.6 295.6L530.3 319.9L559.3 348.9L559.3 372.9C559.3 411.5 528 442.7 489.5 442.7C477.2 442.7 465 440 453.9 434.7L449.2 432.3L412.8 412.2L432.9 448.6L435.3 453.3C440.5 464.4 443.3 476.6 443.3 488.9C443.3 527.5 412 558.7 373.5 558.7L349.5 558.7L320.5 529.7L296.2 554L291.5 558.7L267.5 558.7C228.9 558.7 197.6 527.4 197.6 488.9C197.6 474.8 201.2 460.9 208 448.6L228.1 412.2L191.7 432.4C179.4 439.2 165.5 442.8 151.4 442.8C112.8 442.8 81.6 411.5 81.6 373L81.6 355.7L86.3 344.4L110.6 320.1L81.6 291.1L81.6 267.1C81.6 228.5 112.9 197.2 151.4 197.2C165.5 197.2 179.4 200.8 191.7 207.6L228.1 227.7L208 191.3C201.2 179 197.6 165.1 197.6 151C197.6 112.4 228.9 81.2 267.5 81.2L291.5 81.2L320.5 110.2zM267.5 113.1C246.6 113.1 229.6 130 229.6 150.9C229.6 159.6 231.8 168.1 236 175.7L283 260.7L261.3 282.4L176.3 235.4C168.7 231.2 160.2 229 151.5 229C130.6 229 113.7 246 113.7 266.9L113.7 277.6L155.9 319.8L113.7 362L113.7 372.8C113.7 393.7 130.6 410.6 151.5 410.6C160.2 410.6 168.7 408.4 176.3 404.2L261.3 357.2L283 379L236 464C231.8 471.6 229.6 480.1 229.6 488.8C229.6 509.7 246.6 526.6 267.5 526.6L278.2 526.6C302.1 502.7 316.1 488.6 320.4 484.4L362.6 526.6L373.3 526.6C394.2 526.6 411.1 509.6 411.1 488.8C411.1 482.3 409.9 475.8 407.5 469.8L404.8 464L357.8 379L379.6 357.2L464.6 404.2L470.4 406.9C476.4 409.3 482.9 410.5 489.4 410.5C510.3 410.5 527.2 393.5 527.2 372.7L527.2 362L485 319.8L527.2 277.6L527.2 266.8C527.2 246 510.3 229.1 489.5 229.1C480.8 229.1 472.1 231.4 464.5 235.6L380.9 282.4L359 260.9L404.9 175.7L407.6 169.9C409.9 164 411.1 157.6 411.1 151.2C411.1 130.1 394 113.1 373 113.1L362.6 113.1C338.7 137 324.6 151 320.4 155.3L278.2 113.1L267.5 113.1z"/></svg>