<svg xmlns="http://www.w3.org/2000/svg" viewBox="0 0 640 640"><!--! Font Awesome Pro 7.2.0 by @fontawesome - https://fontawesome.com License - https://fontawesome.com/license (Commercial License) Copyright 2026 Fonticons, Inc. --><path fill="currentColor" d="M337 104C382.4 90 416.7 95.1 435.6 113.9C454.5 132.7 459.5 167.1 445.5 212.5C431.7 257.1 400.5 308.1 354.5 354.1C308.5 400.1 257.5 431.3 212.9 445.1C167.5 459.1 133.2 454 114.3 435.2C95.4 416.4 90.4 382 104.4 336.6C118.2 292 149.4 241 195.4 195C241.4 149 292.4 117.8 337 104zM458.2 91.2C426.9 59.9 377.3 58.1 327.6 73.4C277.1 89 221.8 123.4 172.8 172.3C123.8 221.2 89.5 276.6 73.9 327.1C58.5 376.8 60.4 426.4 91.7 457.7L134.1 500.1C182.7 548.7 248.6 576 317.3 576C460.4 576 576.4 460 576.4 316.9C576.4 248.2 549.1 182.3 500.5 133.7L458.2 91.2zM485.4 164.1C523.3 205.8 544.4 260.2 544.4 316.9C544.4 321 544.3 325.1 544.1 329.1C529 314 518.5 303.5 512.4 297.4L489.9 320C493.1 323.2 509.3 339.4 538.6 368.7C530.1 405.2 512.7 438.4 488.9 465.8L432.5 409.4L409.9 432L466.3 488.4C438.9 512.2 405.8 529.5 369.2 538.1C339.9 508.8 323.7 492.6 320.5 489.4L297.9 512C303.9 518 314.5 528.6 329.6 543.7C325.6 543.9 321.5 544 317.4 544C260.8 544 206.4 522.9 164.6 485C183.1 485.1 202.7 481.7 222.4 475.6C272.9 460 328.2 425.6 377.2 376.7C426.2 327.8 460.6 272.4 476.1 221.9C482.2 202.2 485.5 182.6 485.5 164.1zM382.7 167.3C386.2 170.8 392.3 184.3 381 216.1C370.6 245.5 348.1 281 314.8 314.3C281.5 347.6 245.9 370.2 216.6 380.5C184.8 391.7 171.2 385.6 167.8 382.2C164.4 378.8 158.2 365.2 169.5 333.4C179.9 304 202.4 268.5 235.7 235.2C269 201.9 304.6 179.3 333.9 169C365.7 157.8 379.3 163.9 382.7 167.3zM405.3 144.7C371 110.3 284.9 140.7 213 212.5C141.1 284.3 110.8 370.5 145.1 404.8C179.4 439.1 265.6 408.8 337.4 336.9C409.2 265 439.6 178.9 405.3 144.6z"/></svg>