<svg xmlns="http://www.w3.org/2000/svg" viewBox="0 0 640 640"><!--! Font Awesome Pro 7.2.0 by @fontawesome - https://fontawesome.com License - https://fontawesome.com/license (Commercial License) Copyright 2026 Fonticons, Inc. --><path fill="currentColor" d="M249.4 80C252.7 83.3 268.7 99.3 297.4 128L224 128C179.8 128 144 163.8 144 208L144 416L80 416L80 576L240 576L240 416L176 416L176 208C176 181.5 197.5 160 224 160L297.4 160C268.7 188.7 252.7 204.7 249.4 208L272 230.6L283.3 219.3L347.3 155.3L358.6 144L347.3 132.7L283.3 68.7L272 57.4L249.4 80zM528 96L528 192L432 192L432 96L528 96zM496 224L560 224L560 64L400 64L400 224L464 224L464 432C464 458.5 442.5 480 416 480L342.6 480C371.3 451.3 387.3 435.3 390.6 432L368 409.4L356.7 420.7L292.7 484.7L281.4 496L292.7 507.3L356.7 571.3L368 582.6L390.6 560L342.6 512L416 512C460.2 512 496 476.2 496 432L496 224zM208 448L208 544L112 544L112 448L208 448z"/></svg>