<svg xmlns="http://www.w3.org/2000/svg" viewBox="0 0 640 640"><!--! Font Awesome Pro 7.2.0 by @fontawesome - https://fontawesome.com License - https://fontawesome.com/license (Commercial License) Copyright 2026 Fonticons, Inc. --><path fill="currentColor" d="M352 480L343.1 480L335.5 484.6C274.5 521.2 237.4 543.5 224 551.5L224 480L96 480L96 128L544 128L544 480L352 480zM192 551.5L192 608C229.3 585.6 259.4 567.6 352 512L576 512L576 96L64 96L64 512L192 512L192 551.5zM308.7 395.3L320 406.6L331.3 395.3L414.6 312L392 289.4C390 291.4 371.3 310.1 336 345.4L336 208L304 208L304 345.4C268.6 310 250 291.4 248 289.4L225.4 312L236.7 323.3L308.7 395.3z"/></svg>