<svg xmlns="http://www.w3.org/2000/svg" viewBox="0 0 640 640"><!--! Font Awesome Pro 7.2.0 by @fontawesome - https://fontawesome.com License - https://fontawesome.com/license (Commercial License) Copyright 2026 Fonticons, Inc. --><path fill="currentColor" d="M145.5 460.9L152.6 443.4L140.7 428.7C112.5 393.8 96 350.6 96 304C96 191 194.3 96 320 96C445.7 96 544 191 544 304C544 417 445.7 512 320 512C287.4 512 256.6 505.6 228.8 494L217.6 489.4L206.1 493.3L120.2 522.8L145.4 460.8zM64 576C78.8 570.9 129.6 553.4 216.5 523.6C248.1 536.7 283.2 544 320 544C461.4 544 576 436.5 576 304C576 171.5 461.4 64 320 64C178.6 64 64 171.5 64 304C64 358.4 83.3 408.6 115.8 448.8C88.7 515.5 71.4 557.9 64 576zM256 280C269.3 280 280 269.3 280 256C280 242.7 269.3 232 256 232C242.7 232 232 242.7 232 256C232 269.3 242.7 280 256 280zM408 256C408 242.7 397.3 232 384 232C370.7 232 360 242.7 360 256C360 269.3 370.7 280 384 280C397.3 280 408 269.3 408 256zM320 384C282.1 384 248 367.5 224.6 341.3L200.8 362.6C230 395.4 272.6 416 320 416C367.4 416 410 395.4 439.3 362.7L415.5 341.4C392 367.5 357.9 384 320 384z"/></svg>