<svg xmlns="http://www.w3.org/2000/svg" viewBox="0 0 640 640"><!--! Font Awesome Pro 7.2.0 by @fontawesome - https://fontawesome.com License - https://fontawesome.com/license (Commercial License) Copyright 2026 Fonticons, Inc. --><path fill="currentColor" d="M352 480L343.1 480L335.5 484.6C274.5 521.2 237.4 543.5 224 551.5L224 480L96 480L96 128L544 128L544 480L352 480zM192 551.5L192 608C229.3 585.6 259.4 567.6 352 512L576 512L576 96L64 96L64 512L192 512L192 551.5zM176 288L160 288L160 320L352 320L352 288L176 288zM416 288L400 288L400 320L480 320L480 288L416 288zM176 384L160 384L160 416L272 416L272 384L176 384zM336 384L320 384L320 416L480 416L480 384L336 384z"/></svg>