<svg xmlns="http://www.w3.org/2000/svg" viewBox="0 0 640 640"><!--! Font Awesome Pro 7.2.0 by @fontawesome - https://fontawesome.com License - https://fontawesome.com/license (Commercial License) Copyright 2026 Fonticons, Inc. --><path fill="currentColor" d="M272 96L272 128L64 128L64 416L272 416L272 448L32 448L32 96L272 96zM272 512L272 544L128 544L128 512L272 512zM352 128L352 512L576 512L576 128L352 128zM320 96L608 96L608 544L320 544L320 96zM440 216C440 202.7 450.7 192 464 192C477.3 192 488 202.7 488 216C488 229.3 477.3 240 464 240C450.7 240 440 229.3 440 216zM496 400C496 382.3 481.7 368 464 368C446.3 368 432 382.3 432 400C432 417.7 446.3 432 464 432C481.7 432 496 417.7 496 400zM400 400C400 364.7 428.7 336 464 336C499.3 336 528 364.7 528 400C528 435.3 499.3 464 464 464C428.7 464 400 435.3 400 400z"/></svg>