<svg xmlns="http://www.w3.org/2000/svg" viewBox="0 0 640 640"><!--! Font Awesome Pro 7.2.0 by @fontawesome - https://fontawesome.com License - https://fontawesome.com/license (Commercial License) Copyright 2026 Fonticons, Inc. --><path fill="currentColor" d="M544 160L544 480L96 480L96 160L544 160zM96 128L64 128L64 512L576 512L576 128L96 128zM144 384L144 416L240 416L240 384L144 384zM272 384L272 416L368 416L368 384L272 384zM400 384L400 416L496 416L496 384L400 384zM160 208L144 208L144 336L304 336L304 208L160 208zM176 304L176 240L272 240L272 304L176 304z"/></svg>