<svg xmlns="http://www.w3.org/2000/svg" viewBox="0 0 640 640"><!--! Font Awesome Pro 7.2.0 by @fontawesome - https://fontawesome.com License - https://fontawesome.com/license (Commercial License) Copyright 2026 Fonticons, Inc. --><path fill="currentColor" d="M543.4 304L432 304L432 336L543.4 336C535.6 447 447 535.6 336 543.4L336 432L304 432L304 543.4C193 535.6 104.4 447 96.6 336L208 336L208 304L96.6 304C104.4 193 193 104.4 304 96.6L304 208L336 208L336 96.6C447 104.4 535.6 193 543.4 304zM320 576C461.4 576 576 461.4 576 320C576 178.6 461.4 64 320 64C178.6 64 64 178.6 64 320C64 461.4 178.6 576 320 576z"/></svg>