<svg xmlns="http://www.w3.org/2000/svg" viewBox="0 0 640 640"><!--! Font Awesome Pro 7.2.0 by @fontawesome - https://fontawesome.com License - https://fontawesome.com/license (Commercial License) Copyright 2026 Fonticons, Inc. --><path fill="currentColor" d="M123.4 100.7L112.1 89.4L89.5 112L100.8 123.3L173.5 196C145.2 229.5 128.1 272.7 128.1 320C128.1 367.3 145.2 410.5 173.5 444L100.8 516.7L89.5 528L112.1 550.6L123.4 539.3L196.1 466.6C229.6 494.9 272.8 512 320.1 512C367.4 512 410.6 494.9 444.1 466.6L516.8 539.3L528.1 550.6L550.7 528L539.4 516.7L466.7 444C495 410.6 512.1 367.3 512.1 320C512.1 272.7 495 229.5 466.7 196L539.4 123.3L550.7 112L528.1 89.4L516.8 100.7L444.1 173.4C410.7 145.1 367.4 128 320.1 128C272.8 128 229.6 145.1 196.1 173.4L123.4 100.7zM159.9 320C159.9 231.6 231.6 159.9 320.1 159.9C408.5 159.9 480.2 231.6 480.2 320C480.2 408.4 408.5 480.2 320.1 480.2C231.6 480.2 159.9 408.4 159.9 320z"/></svg>