<svg xmlns="http://www.w3.org/2000/svg" viewBox="0 0 640 640"><!--! Font Awesome Pro 7.2.0 by @fontawesome - https://fontawesome.com License - https://fontawesome.com/license (Commercial License) Copyright 2026 Fonticons, Inc. --><path fill="currentColor" d="M154.4 288.9L220.1 272.5L224.6 271.4L229 272.9L319.9 303.2L410.8 272.9L415.2 271.4L419.7 272.5L485.4 288.9L454.6 160L185.1 160L154.3 288.9zM146 324L120.2 432L87.3 432L160 128L480 128L552.7 432L519.8 432L494 324L416.7 304.7L325.1 335.2L320 336.9L314.9 335.2L223.3 304.7L146 324zM64 480L576 480L576 512L64 512L64 480z"/></svg>