<svg xmlns="http://www.w3.org/2000/svg" viewBox="0 0 640 640"><!--! Font Awesome Pro 7.2.0 by @fontawesome - https://fontawesome.com License - https://fontawesome.com/license (Commercial License) Copyright 2026 Fonticons, Inc. --><path fill="currentColor" d="M608 256L576 256L576 512L544 512L544 448L320 448L320 504L288 504L288 256L96 256L96 512L64 512L64 256L32 256L32 128L608 128L608 256zM320 256L320 416L544 416L544 256L320 256zM480 352L384 352L384 320L480 320L480 352zM64 224L576 224L576 160L64 160L64 224z"/></svg>