<svg xmlns="http://www.w3.org/2000/svg" viewBox="0 0 640 640"><!--! Font Awesome Pro 7.2.0 by @fontawesome - https://fontawesome.com License - https://fontawesome.com/license (Commercial License) Copyright 2026 Fonticons, Inc. --><path fill="currentColor" d="M336 64L336 112.6C381.4 116.1 422.7 134.1 455.3 162C472.6 144.7 484.1 133.2 489.7 127.6L512.3 150.2C506.7 155.8 495.3 167.2 477.9 184.6C505.8 217.2 523.9 258.5 527.3 303.9L575.9 303.9L575.9 335.9L527.3 335.9C523.8 381.3 505.8 422.6 477.9 455.2C495.2 472.5 506.7 484 512.3 489.6L489.7 512.2C484.1 506.6 472.7 495.2 455.3 477.8C422.7 505.7 381.4 523.8 336 527.2L336 575.8L304 575.8L304 527.2C258.6 523.7 217.3 505.7 184.7 477.8C167.4 495.1 155.9 506.6 150.3 512.2L127.7 489.7C133.3 484.1 144.7 472.7 162.1 455.3C134.2 422.7 116.1 381.4 112.7 336L64.1 336L64.1 304L112.7 304C116.2 258.6 134.2 217.3 162.1 184.7C144.8 167.4 133.3 155.9 127.7 150.3L150.3 127.7L184.7 162C217.3 134.1 258.6 116 304 112.6L304 64L336 64zM184.7 207.4C162.5 234.1 148 267.4 144.7 304L225.3 304C227.7 289.6 233.4 276.1 241.7 264.4L184.7 207.4zM264.3 241.8C275.7 233.7 289.2 227.9 303.9 225.4L303.9 144.8C267.3 148.1 234 162.6 207.3 184.8L264.3 241.8zM274.1 275.3C262.9 286.7 256.2 302.2 255.9 318.8L255.9 321.1C256 324.3 256.2 327.4 256.8 330.7C259 344 265.3 355.7 274 364.7L275.1 365.8C286.5 377 302 383.7 318.6 384L320.9 384C324.1 383.9 327.2 383.7 330.5 383.1C343.8 380.9 355.5 374.6 364.5 365.8L365.6 364.7C376.8 353.3 383.5 337.8 383.8 321.2L383.8 318.9C383.7 315.7 383.5 312.6 382.9 309.3C380.7 296 374.4 284.3 365.6 275.3L364.5 274.2C353.1 263 337.6 256.3 321 256L318.7 256C315.5 256.1 312.4 256.3 309.1 256.9C295.8 259.1 284.1 265.4 275.1 274.1L274 275.2zM241.7 375.6C233.6 364.2 227.8 350.7 225.3 336L144.7 336C148 372.6 162.5 405.9 184.7 432.6L241.7 375.6zM207.3 455.2C234 477.4 267.3 491.9 303.9 495.2L303.9 414.6C289.5 412.2 276 406.5 264.3 398.2L207.3 455.2zM375.6 398.2C364.2 406.3 350.7 412.1 336 414.6L336 495.2C372.6 491.9 405.9 477.4 432.6 455.2L375.6 398.2zM455.2 432.6C477.4 405.9 491.9 372.6 495.2 336L414.6 336C412.2 350.4 406.5 363.9 398.2 375.6L455.2 432.6zM398.2 264.3C406.3 275.7 412.1 289.2 414.6 303.9L495.2 303.9C491.9 267.3 477.4 234 455.2 207.3L398.2 264.3zM432.6 184.7C405.9 162.5 372.6 148 336 144.7L336 225.3C350.4 227.7 363.9 233.4 375.6 241.7L432.6 184.7z"/></svg>