<svg xmlns="http://www.w3.org/2000/svg" viewBox="0 0 640 640"><!--! Font Awesome Pro 7.2.0 by @fontawesome - https://fontawesome.com License - https://fontawesome.com/license (Commercial License) Copyright 2026 Fonticons, Inc. --><path fill="currentColor" d="M400.1 185.4C403.4 188.7 419.4 204.7 448.1 233.4L448.1 128L320.1 128L320.1 288L96.1 288L96.1 96L480.1 96L480.1 233.4C508.8 204.7 524.8 188.7 528.1 185.4L550.7 208L539.4 219.3L475.4 283.3L464.1 294.6L452.8 283.3L388.8 219.3L377.5 208L400.1 185.4zM512.1 384L128.1 384L128.1 512L512.1 512L512.1 384zM544.1 512L544.1 544L96.1 544L96.1 384L96.1 352L544.1 352L544.1 512zM288.1 128L128.1 128L128.1 256L288.1 256L288.1 128zM176.1 176L256.1 176L256.1 208L160.1 208L160.1 176L176.1 176z"/></svg>