<svg xmlns="http://www.w3.org/2000/svg" viewBox="0 0 640 640"><!--! Font Awesome Pro 7.2.0 by @fontawesome - https://fontawesome.com License - https://fontawesome.com/license (Commercial License) Copyright 2026 Fonticons, Inc. --><path fill="currentColor" d="M52.1 189.2C40.2 212.8 32 247.7 32 288L32 416L156 416C160.4 427.3 165.9 438 172.5 448L0 448L0 288C0 199.6 35.8 128 80 128L560 128C604.2 128 640 199.6 640 288L640 448L467.5 448C474 438 479.6 427.3 484 416L608 416L608 288C608 247.7 599.8 212.8 587.9 189.2C575.1 163.6 563.4 160 560 160L80 160C76.6 160 64.8 163.6 52.1 189.2zM416 352C416 299 373 256 320 256C267 256 224 299 224 352C224 405 267 448 320 448C373 448 416 405 416 352zM384 462.9C365.2 473.8 343.3 480 320 480C296.7 480 274.8 473.8 256 462.9L256 542.1L312.8 513.7L320 510.1L327.2 513.7L384 542.1L384 462.9zM416 436.7L416 593.9C408.8 590.3 376.8 574.3 320 545.9C263.2 574.3 231.2 590.3 224 593.9L224 436.7C204.1 414.1 192 384.5 192 352C192 281.3 249.3 224 320 224C390.7 224 448 281.3 448 352C448 384.5 435.9 414.1 416 436.7zM320 328C306.7 328 296 338.7 296 352C296 365.3 306.7 376 320 376C333.3 376 344 365.3 344 352C344 338.7 333.3 328 320 328zM320 408C289.1 408 264 382.9 264 352C264 321.1 289.1 296 320 296C350.9 296 376 321.1 376 352C376 382.9 350.9 408 320 408z"/></svg>