<svg xmlns="http://www.w3.org/2000/svg" viewBox="0 0 640 640"><!--! Font Awesome Pro 7.2.0 by @fontawesome - https://fontawesome.com License - https://fontawesome.com/license (Commercial License) Copyright 2026 Fonticons, Inc. --><path fill="currentColor" d="M512 128L64 128L64 448L304.7 448C303.8 458.5 303.8 469.5 304.7 480L245.6 480L234.9 544L321.4 544C326.6 555.3 332.8 566 340 576L128 576L128 544L202.4 544L213.1 480L32 480L32 96L544 96L544 278C533.6 275.3 523 273.5 512 272.6L512 128zM416 289.4L416 246.6L299.3 363.3L288 374.6L276.7 363.3L208 294.6L139.3 363.3L128 374.6L105.4 352L116.7 340.7L196.7 260.7L208 249.4L219.3 260.7L288 329.4L393.4 224L320 224L320 192L448 192L448 278C436.9 280.9 426.2 284.7 416 289.4zM496 576C557.9 576 608 525.9 608 464C608 402.1 557.9 352 496 352C434.1 352 384 402.1 384 464C384 525.9 434.1 576 496 576zM496 320C575.5 320 640 384.5 640 464C640 543.5 575.5 608 496 608C416.5 608 352 543.5 352 464C352 384.5 416.5 320 496 320zM512 368L512 392L544 392L544 424L482.2 424C476.6 424 472 428.6 472 434.2C472 439.1 475.5 443.3 480.3 444.2L525.3 452.4C545.3 456 559.9 473.5 559.9 493.9C559.9 517.2 541 536.1 517.7 536.1L511.9 536.1L511.9 560.1L479.9 560.1L479.9 536.1L447.9 536.1L447.9 504.1L517.7 504.1C523.3 504.1 527.9 499.5 527.9 493.9C527.9 489 524.4 484.8 519.6 483.9L474.6 475.7C454.6 472.1 440 454.6 440 434.2C440 411.6 457.7 393.2 480 392.1L480 368L512 368z"/></svg>