<svg xmlns="http://www.w3.org/2000/svg" viewBox="0 0 640 640"><!--! Font Awesome Pro 7.2.0 by @fontawesome - https://fontawesome.com License - https://fontawesome.com/license (Commercial License) Copyright 2026 Fonticons, Inc. --><path fill="currentColor" d="M320 128C408.4 128 480 199.6 480 288C480 376.4 408.4 448 320 448C231.6 448 160 376.4 160 288C160 199.6 231.6 128 320 128zM320 480C426 480 512 394 512 288C512 182 426 96 320 96C214 96 128 182 128 288C128 394 214 480 320 480zM64 400L32 400L32 576L608 576L608 400L576 400L576 544L64 544L64 400zM336 208L336 184L304 184L304 208L302.3 208C276.7 208 256 228.7 256 254.3C256 276.9 272.4 296.3 294.7 300L340 307.6C346.9 308.8 352 314.7 352 321.7C352 329.6 345.6 336 337.7 336L264 336L264 368L304 368L304 392L336 392L336 368L337.7 368C363.3 368 384 347.3 384 321.7C384 299.1 367.6 279.7 345.3 276L300 268.4C293.1 267.2 288 261.3 288 254.3C288 246.4 294.4 240 302.3 240L368 240L368 208L336 208z"/></svg>