<svg xmlns="http://www.w3.org/2000/svg" viewBox="0 0 640 640"><!--! Font Awesome Pro 7.2.0 by @fontawesome - https://fontawesome.com License - https://fontawesome.com/license (Commercial License) Copyright 2026 Fonticons, Inc. --><path fill="currentColor" d="M382.6 414.6L480 512L128 512L128 160C143.8 175.8 176.2 208.2 225.4 257.4L248 280L270.6 257.4L409.4 118.6L432 96C439.7 103.7 469.5 133.5 521.4 185.4L544 208L521.4 230.6L382.6 369.4L360 392L382.6 414.6zM498.7 208L432 141.3L270.6 302.6L248 325.3C240 317.3 210.7 288 160 237.3L160 480L402.7 480C352 429.3 322.7 400 314.7 392L337.4 369.4L498.7 208z"/></svg>