<svg xmlns="http://www.w3.org/2000/svg" viewBox="0 0 640 640"><!--! Font Awesome Pro 7.2.0 by @fontawesome - https://fontawesome.com License - https://fontawesome.com/license (Commercial License) Copyright 2026 Fonticons, Inc. --><path fill="currentColor" d="M256 416L288 416L288 256L352 256L352 416L437.4 416L320 540.3L202.6 416L256 416zM256 224L256 384L128.3 384C160.5 418.1 183.7 442.7 298 563.7C298.9 564.6 306.2 572.4 320 587C329.3 577.1 361.2 543.4 473.4 424.5C475 422.8 487.8 409.3 511.6 384L383.9 384L383.9 224L255.9 224zM512 240L512 256L544 256L544 64L96 64L96 256L128 256L128 96L512 96L512 240z"/></svg>