<svg xmlns="http://www.w3.org/2000/svg" viewBox="0 0 640 640"><!--! Font Awesome Pro 7.2.0 by @fontawesome - https://fontawesome.com License - https://fontawesome.com/license (Commercial License) Copyright 2026 Fonticons, Inc. --><path fill="currentColor" d="M301.3 384L400 384C479.5 384 544 319.5 544 240C544 160.5 479.5 96 400 96C320.5 96 256 160.5 256 240L256 338.7L301.3 384zM224 345.4L224 240C224 142.8 302.8 64 400 64C497.2 64 576 142.8 576 240C576 337.2 497.2 416 400 416L294.6 416L254.1 456.5C265.2 469.2 272 485.8 272 504C272 543.8 239.8 576 200 576C162.8 576 132.2 547.8 128.4 511.6C92.2 507.8 64 477.2 64 440C64 400.2 96.2 368 136 368C154.2 368 170.8 374.8 183.5 385.9L224 345.4zM243.3 371.3C204.6 410 183.6 431 180.2 434.4L169.4 418C162.2 407.1 149.9 400 136 400C113.9 400 96 417.9 96 440C96 462.1 113.9 480 136 480L160 480L160 504C160 526.1 177.9 544 200 544C222.1 544 240 526.1 240 504C240 490 232.9 477.8 222 470.6L205.6 459.8C209 456.4 230 435.4 268.7 396.7L243.3 371.3z"/></svg>