<svg xmlns="http://www.w3.org/2000/svg" viewBox="0 0 640 640"><!--! Font Awesome Pro 7.2.0 by @fontawesome - https://fontawesome.com License - https://fontawesome.com/license (Commercial License) Copyright 2026 Fonticons, Inc. --><path fill="currentColor" d="M66.9 128L573.1 128L575.7 140.9L607.7 300.9L611.5 320L574.1 320L546.1 544L513.9 544L517.9 512L122.1 512L126.1 544L93.9 544L65.9 320L28.5 320L32.3 300.9L64.3 140.9L66.9 128zM98.1 320L118.1 480L521.9 480L541.9 320L98.1 320zM546.9 160L474.3 160L493.8 288L572.5 288L546.9 160zM441.9 160L336 160L336 288L461.4 288L441.9 160zM304 160L197.8 160L178.6 288L304 288L304 160zM165.4 160L93.1 160L67.5 288L146.2 288L165.4 160z"/></svg>