<svg xmlns="http://www.w3.org/2000/svg" viewBox="0 0 640 640"><!--! Font Awesome Pro 7.2.0 by @fontawesome - https://fontawesome.com License - https://fontawesome.com/license (Commercial License) Copyright 2026 Fonticons, Inc. --><path fill="currentColor" d="M288 96C349 96 402.1 130.2 429.1 180.4L447.3 148.6C412.7 97.6 354.3 64 288 64C182 64 96 150 96 256L96 576L203 576L221.3 544L128 544L128 256C128 167.6 199.6 96 288 96zM288 144C226.1 144 176 194.1 176 256L176 304L208 304C225.7 304 240 318.3 240 336C240 353.7 225.7 368 208 368L176 368L176 400L208 400C243.3 400 272 371.3 272 336C272 300.7 243.3 272 208 272L208 256C208 211.8 243.8 176 288 176C332.2 176 368 211.8 368 256L368 280L372.1 280L397.9 234.8C388.1 183.1 342.6 144 288 144zM605.7 576.1L450.4 304.3L432 272.1L413.6 304.3L258.3 576.1L240 608.1L624 608.1L605.7 576.1zM432 336.6L568.9 576.1L295.2 576.1L432.1 336.6zM448 416.1L448 400.1L416 400.1L416 496.1L448 496.1L448 416.1zM448 511.8L416 511.8L416 543.8L448 543.8L448 511.8z"/></svg>