<svg xmlns="http://www.w3.org/2000/svg" viewBox="0 0 640 640"><!--! Font Awesome Pro 7.2.0 by @fontawesome - https://fontawesome.com License - https://fontawesome.com/license (Commercial License) Copyright 2026 Fonticons, Inc. --><path fill="currentColor" d="M333.8 39.8L394.3 140.8L508.5 112.2L534.4 105.7L527.9 131.6L499.3 245.8L600.3 306.3L623.2 320C620.9 321.3 579.6 346.1 499.3 394.2L527.9 508.4L534.4 534.3L508.5 527.8L394.3 499.2C346.2 579.6 321.4 620.8 320.1 623.1L306.4 600.2L245.9 499.2L131.7 527.8L105.8 534.3L112.3 508.4L140.9 394.2L39.9 333.7L17 320L39.9 306.3L140.9 245.8L112.3 131.6L105.8 105.7L131.7 112.2L245.9 140.8L306.4 39.8L320.1 16.9L333.8 39.8zM267.2 167.4L261.1 177.6L249.6 174.7L149.8 149.7L174.8 249.5L177.7 261L167.5 267.1L79.2 320L167.5 372.9L177.7 379L174.8 390.5L149.8 490.3L249.6 465.3L261.1 462.4L267.2 472.6L320.1 560.9L373 472.6L379.1 462.4L390.6 465.3L490.4 490.3L465.4 390.5L462.5 379L472.7 372.9L561 320L472.7 267.1L462.5 261L465.4 249.5L490.4 149.7L390.6 174.7L379.1 177.6L373 167.4L320.1 79.1L267.2 167.4zM319.9 432C258 431.9 208 381.7 208.1 319.9C208.1 258 258.3 207.9 320.2 208C382.1 208.1 432.1 258.3 432.1 320.2C432 382 381.8 432.1 319.9 432zM314 240.3C272.7 243.4 240.1 277.9 240.1 320C240.1 364.2 275.9 400 320.1 400C335.9 400 350.5 395.3 362.9 387.5C324.2 375.1 296.1 338.9 296.1 296.1C296.1 275.3 302.7 256.1 314 240.4zM351.7 246.5C337.3 258.3 328.1 276.1 328.1 296C328.1 330.4 355.3 358.4 389.3 359.8C396.1 348 400.1 334.5 400.1 319.9C400.1 286.9 380.1 258.6 351.7 246.4z"/></svg>