<svg xmlns="http://www.w3.org/2000/svg" viewBox="0 0 640 640"><!--! Font Awesome Pro 7.2.0 by @fontawesome - https://fontawesome.com License - https://fontawesome.com/license (Commercial License) Copyright 2026 Fonticons, Inc. --><path fill="currentColor" d="M552.7 121.2L544 129.9L544 304L480 288L464 240L416 224L400 176L352 160L336 96L510.1 96C513.6 92.5 524.1 82 541.5 64.6C558.5 81.6 569.8 92.9 575.4 98.5L552.7 121.2zM512 129.9L512 128L377 128L378.8 135.2C402.4 143.1 417.9 148.2 425.3 150.7C427.7 157.9 433 173.9 441.3 198.7C466.1 207 482.1 212.3 489.3 214.7C491.8 222.1 496.9 237.6 504.8 261.2L512 263L512 129.9zM233.9 203.3C257.8 191.7 281.9 180 304.2 166.8L314.1 198C292.9 210.1 268.7 222 245.8 233.1C231.7 239.9 218.2 246.5 206.3 252.8C172.3 270.6 144.6 288.5 125.4 311.1C107.2 332.6 95.4 359.9 96 399.6C97.1 478 162 544 240.4 544.1C307.1 544.2 367.6 499 417.2 430.5C438.7 400.9 457.1 368.2 472.2 335.6L503.8 343.5C452 458.1 360.1 576.1 240.4 576C143.9 575.9 65.4 495.3 64 400C62.4 286.5 147.4 245.3 233.9 203.3z"/></svg>