<svg xmlns="http://www.w3.org/2000/svg" viewBox="0 0 640 640"><!--! Font Awesome Pro 7.2.0 by @fontawesome - https://fontawesome.com License - https://fontawesome.com/license (Commercial License) Copyright 2026 Fonticons, Inc. --><path fill="currentColor" d="M262.1 236.7C265 239.6 304.5 279.1 380.6 355.2C429.5 404.1 420.5 395.1 432 406.6L454.6 384C446.1 375.5 440 369.4 432 361.4L425.9 355.3C428.4 352.8 468.7 312.5 546.8 234.4C585.8 195.4 585.8 132.2 546.8 93.3C507.8 54.4 444.6 54.3 405.7 93.3C327.6 171.4 287.3 211.7 284.8 214.2C281.6 211 275.8 205.2 267.4 196.8C264.1 193.5 260.3 189.7 256.1 185.5L233.4 208C251.2 225.8 260.8 235.4 262.1 236.7zM524.1 211.7L403.3 332.6L307.4 236.7L428.2 115.9C454.7 89.4 497.6 89.4 524.1 115.9C550.6 142.4 550.6 185.3 524.1 211.8zM96 408L96 488L64 544L96 576L152 544L232 544L366.7 409.3L341.4 384L165.2 384L253.3 295.9L230.7 273.3L96 408zM128 488L128 421.3L133.3 416L314.8 416L218.8 512L143.6 512C142.3 512.8 130.2 519.7 107.4 532.7C120.4 509.9 127.3 497.9 128.1 496.5L128.1 488z"/></svg>