<svg xmlns="http://www.w3.org/2000/svg" viewBox="0 0 640 640"><!--! Font Awesome Pro 7.2.0 by @fontawesome - https://fontawesome.com License - https://fontawesome.com/license (Commercial License) Copyright 2026 Fonticons, Inc. --><path fill="currentColor" d="M66.8 320C82.1 353.3 110.2 398.6 150 437C194.6 479.9 251.5 512 320 512C388.5 512 445.4 479.9 490 437C529.8 398.7 557.9 353.3 573.2 320C557.9 286.7 529.8 241.4 490 203C445.4 160.1 388.5 128 320 128C251.5 128 194.6 160.1 150 203C110.2 241.3 82.1 286.7 66.8 320zM608 320C578 394.7 478.4 544 320 544C161.6 544 62 394.7 32 320C62 245.3 161.6 96 320 96C478.4 96 578 245.3 608 320zM320 416C373 416 416 373 416 320C416 267 373 224 320 224L320 320L224 320C224 373 267 416 320 416zM229.5 288L288 288L288 229.5C260.7 239.1 239.1 260.8 229.5 288zM320 192C390.7 192 448 249.3 448 320C448 390.7 390.7 448 320 448C249.3 448 192 390.7 192 320C192 249.3 249.3 192 320 192z"/></svg>