<svg xmlns="http://www.w3.org/2000/svg" viewBox="0 0 640 640"><!--! Font Awesome Pro 7.2.0 by @fontawesome - https://fontawesome.com License - https://fontawesome.com/license (Commercial License) Copyright 2026 Fonticons, Inc. --><path fill="currentColor" d="M544 320C544 196.3 443.7 96 320 96C196.3 96 96 196.3 96 320C96 443.7 196.3 544 320 544C443.7 544 544 443.7 544 320zM64 320C64 178.6 178.6 64 320 64C461.4 64 576 178.6 576 320C576 461.4 461.4 576 320 576C178.6 576 64 461.4 64 320zM240 248C253.3 248 264 258.7 264 272C264 285.3 253.3 296 240 296C226.7 296 216 285.3 216 272C216 258.7 226.7 248 240 248zM376 272C376 258.7 386.7 248 400 248C413.3 248 424 258.7 424 272C424 285.3 413.3 296 400 296C386.7 296 376 285.3 376 272zM412.6 455.8C385.6 445.8 353.9 440 320 440C286.1 440 254.5 445.8 227.5 455.8L201.6 465.4L206.2 438.2C214.6 387.7 264 352 320 352C376 352 425.4 387.7 433.9 438.2L438.5 465.4L412.6 455.8zM320 384C289.8 384 264.6 397.1 250.2 415.8C272.1 410.8 295.6 408.1 320 408.1C344.4 408.1 367.9 410.8 389.9 415.9C375.5 397.3 350.3 384.1 320.1 384.1z"/></svg>