<svg xmlns="http://www.w3.org/2000/svg" viewBox="0 0 640 640"><!--! Font Awesome Pro 7.2.0 by @fontawesome - https://fontawesome.com License - https://fontawesome.com/license (Commercial License) Copyright 2026 Fonticons, Inc. --><path fill="currentColor" d="M544 320C544 196.3 443.7 96 320 96C196.3 96 96 196.3 96 320C96 443.7 196.3 544 320 544C443.7 544 544 443.7 544 320zM64 320C64 178.6 178.6 64 320 64C461.4 64 576 178.6 576 320C576 461.4 461.4 576 320 576C178.6 576 64 461.4 64 320zM320 416C282.1 416 245.5 411.8 211.5 404C234.1 440 274.3 464 320 464C365.7 464 405.8 440 428.5 404C394.5 411.8 358 416 320 416zM320 384C364.5 384 406.6 377.8 444.3 366.8C456.3 363.3 467.9 359.3 478.9 354.8C477.4 367.8 474.3 380.4 469.8 392.3C447 452.9 388.5 496 320 496C251.5 496 193 452.9 170.2 392.3C165.7 380.4 162.6 367.8 161.1 354.8C172.1 359.3 183.7 363.3 195.7 366.8C233.3 377.8 275.5 384 320 384zM216 272C216 258.7 226.7 248 240 248C253.3 248 264 258.7 264 272C264 285.3 253.3 296 240 296C226.7 296 216 285.3 216 272zM400 248C413.3 248 424 258.7 424 272C424 285.3 413.3 296 400 296C386.7 296 376 285.3 376 272C376 258.7 386.7 248 400 248z"/></svg>