<svg xmlns="http://www.w3.org/2000/svg" viewBox="0 0 640 640"><!--! Font Awesome Pro 7.2.0 by @fontawesome - https://fontawesome.com License - https://fontawesome.com/license (Commercial License) Copyright 2026 Fonticons, Inc. --><path fill="currentColor" d="M544 320C544 375.1 524.1 425.6 491.1 464.6L513.8 487.3C552.6 442.4 576 383.9 576 320C576 178.6 461.4 64 320 64C178.6 64 64 178.6 64 320C64 393.2 94.7 459.3 144 505.9C144 505.3 144 504.6 144 504L144 458.6C113.9 420.5 96 372.3 96 320C96 196.3 196.3 96 320 96C443.7 96 544 196.3 544 320zM208 280C208 262.3 222.3 248 240 248C257.7 248 272 262.3 272 280L272 296L304 296L304 280C304 244.7 275.3 216 240 216C204.7 216 176 244.7 176 280L176 296L208 296L208 280zM400 248C417.7 248 432 262.3 432 280L432 296L464 296L464 280C464 244.7 435.3 216 400 216C364.7 216 336 244.7 336 280L336 296L368 296L368 280C368 262.3 382.3 248 400 248zM355.3 387.3L366.6 376L344 353.4L332.7 364.7L260.7 436.7L249.4 448L272 470.6L283.3 459.3L355.3 387.3zM224 400L224 384L192 384L192 504C192 561.4 238.6 608 296 608L299.5 608C327.1 608 353.5 597 373 577.5L435.2 515.3L446.5 504L423.9 481.4L412.6 492.7L350.4 554.9C337 568.4 318.6 576 299.5 576L296 576C256.2 576 224 543.8 224 504L224 400zM419.3 427.3L430.6 416L408 393.4L396.7 404.7L316.7 484.7L305.4 496L328 518.6L339.3 507.3L419.3 427.3z"/></svg>