<svg xmlns="http://www.w3.org/2000/svg" viewBox="0 0 640 640"><!--! Font Awesome Pro 7.2.0 by @fontawesome - https://fontawesome.com License - https://fontawesome.com/license (Commercial License) Copyright 2026 Fonticons, Inc. --><path fill="currentColor" d="M463.5 492C512.7 450.9 544 389.1 544 320C544 196.3 443.7 96 320 96C196.3 96 96 196.3 96 320C96 389.1 127.3 450.9 176.5 492C177.9 509 182.3 525.2 189.1 540C114.2 495.4 64 413.5 64 320C64 178.6 178.6 64 320 64C461.4 64 576 178.6 576 320C576 413.5 525.8 495.4 450.9 540C457.7 525.2 462.1 509 463.5 492zM367.8 396.1L404.1 387C417.5 382.4 429.4 376.8 439.4 370.5L456.5 397.5C444.7 405 431 411.5 415.9 416.7L415.9 480C415.9 533 372.9 576 319.9 576C266.9 576 223.9 533 223.9 480L223.9 416.7C208.8 411.5 195.2 405 183.3 397.5L200.4 370.5C210.4 376.8 222.3 382.4 235.7 387L272 396.1C287 398.6 303 400 319.8 400C336.6 400 352.6 398.6 367.6 396.1zM384 480L384 432L336 432L336 456L304 456L304 432L256 432L256 480C256 515.3 284.7 544 320 544C355.3 544 384 515.3 384 480zM192 296L192 312L160 312L160 296C160 265.1 185.1 240 216 240L232 240C262.9 240 288 265.1 288 296L288 312L256 312L256 296C256 282.7 245.3 272 232 272L216 272C202.7 272 192 282.7 192 296zM376.4 272C376.4 258.7 387.1 248 400.4 248C413.7 248 424.4 258.7 424.4 272C424.4 285.3 413.7 296 400.4 296C387.1 296 376.4 285.3 376.4 272zM448 272C448 245.5 426.5 224 400 224C373.5 224 352 245.5 352 272C352 298.5 373.5 320 400 320C426.5 320 448 298.5 448 272zM320 272C320 227.8 355.8 192 400 192C444.2 192 480 227.8 480 272C480 316.2 444.2 352 400 352C355.8 352 320 316.2 320 272z"/></svg>