<svg xmlns="http://www.w3.org/2000/svg" viewBox="0 0 640 640"><!--! Font Awesome Pro 7.2.0 by @fontawesome - https://fontawesome.com License - https://fontawesome.com/license (Commercial License) Copyright 2026 Fonticons, Inc. --><path fill="currentColor" d="M544 320C544 443.7 443.7 544 320 544C262.1 544 209.4 522.1 169.6 486C165.9 496.6 160.7 506.3 154.3 515.1C199 553.1 256.8 575.9 320 575.9C461.4 575.9 576 461.3 576 319.9C576 178.5 461.4 64 320 64C189 64 80.9 162.5 65.8 289.4C71 293.5 86.3 305.7 96.1 313.8C99.4 193 198.4 96 320 96C443.7 96 544 196.3 544 320zM312 368C263.4 368 224 407.4 224 456L224 480L416 480L416 456C416 407.4 376.6 368 328 368L312 368zM328 400C356.2 400 379.6 420.9 383.4 448L256.5 448C260.4 420.9 283.7 400 311.9 400L327.9 400zM376 336C376 349.3 386.7 360 400 360C413.3 360 424 349.3 424 336C424 322.7 413.3 312 400 312C386.7 312 376 322.7 376 336zM240 360C253.3 360 264 349.3 264 336C264 322.7 253.3 312 240 312C226.7 312 216 322.7 216 336C216 349.3 226.7 360 240 360zM270.6 224L248 201.4C239.8 209.6 233.6 215.8 229.3 220.1C210.4 239 186.1 251.5 159.8 255.8L157.3 256.2L141.5 258.8L146.8 290.4L162.6 287.8L165.1 287.4C198 281.9 228.4 266.3 251.9 242.7C256.2 238.4 262.4 232.2 270.6 224zM380.7 235.3L388.1 242.7C411.7 266.3 442 281.9 474.9 287.4L477.4 287.8L493.2 290.4L498.5 258.8L482.7 256.2L480.2 255.8C453.9 251.4 429.6 238.9 410.7 220.1C406.4 215.8 400.2 209.6 392 201.4L369.4 224L380.7 235.3zM64 480C45.3 480 32 466.7 32 448C32 440 35.3 430.3 43.1 418.5C48.9 409.8 56.2 401.4 64 393.3C71.8 401.4 79.1 409.8 84.9 418.5C92.7 430.2 96 440 96 448C96 466.7 82.7 480 64 480zM64 349.5C59.1 353.7 54.3 357.9 49.7 362.4C27.4 384.2 0 414.6 0 448C0 484.4 27.6 512 64 512C100.4 512 128 484.4 128 448C128 414.6 100.7 384.2 78.3 362.4C73.7 357.9 68.9 353.7 64 349.5z"/></svg>