<svg xmlns="http://www.w3.org/2000/svg" viewBox="0 0 640 640"><!--! Font Awesome Pro 7.2.0 by @fontawesome - https://fontawesome.com License - https://fontawesome.com/license (Commercial License) Copyright 2026 Fonticons, Inc. --><path fill="currentColor" d="M544 320C544 196.3 443.7 96 320 96C196.3 96 96 196.3 96 320C96 443.7 196.3 544 320 544C443.7 544 544 443.7 544 320zM64 320C64 178.6 178.6 64 320 64C461.4 64 576 178.6 576 320C576 461.4 461.4 576 320 576C178.6 576 64 461.4 64 320zM248.5 429.9C265.4 450.7 291.1 464 320 464C348.9 464 374.6 450.7 391.5 429.9L416.3 450.1C393.6 478.1 358.9 496 320 496C281.1 496 246.4 478.1 223.7 450.1L248.5 429.9zM408 352L424 352C437.3 352 448 341.3 448 328L448 312L480 312L480 328C480 358.9 454.9 384 424 384L408 384C377.1 384 352 358.9 352 328L352 312L384 312L384 328C384 341.3 394.7 352 408 352zM192 328C192 341.3 202.7 352 216 352L232 352C245.3 352 256 341.3 256 328L256 312L288 312L288 328C288 358.9 262.9 384 232 384L216 384C185.1 384 160 358.9 160 328L160 312L192 312L192 328zM261.1 191.2L254.8 193.3C231.2 201.2 210.8 216.7 197 237.4L189.4 248.9L162.8 231.1L170.4 219.6C188.2 193 214.3 173 244.7 162.9L251 160.8L261.1 191.2zM385.3 193.3L379 191.2L389.1 160.8L395.4 162.9C425.8 173 451.9 193 469.7 219.6L477.3 231.1L450.7 248.9L443.1 237.4C429.3 216.7 409 201.1 385.3 193.3z"/></svg>