<svg xmlns="http://www.w3.org/2000/svg" viewBox="0 0 640 640"><!--! Font Awesome Pro 7.2.0 by @fontawesome - https://fontawesome.com License - https://fontawesome.com/license (Commercial License) Copyright 2026 Fonticons, Inc. --><path fill="currentColor" d="M544 320C544 196.3 443.7 96 320 96C196.3 96 96 196.3 96 320C96 443.7 196.3 544 320 544C443.7 544 544 443.7 544 320zM64 320C64 178.6 178.6 64 320 64C461.4 64 576 178.6 576 320C576 461.4 461.4 576 320 576C178.6 576 64 461.4 64 320zM304 352L336 352C362.5 352 384 373.5 384 400C384 412.3 379.4 423.5 371.8 432C379.4 440.5 384 451.7 384 464C384 490.5 362.5 512 336 512L304 512L304 480L336 480C344.8 480 352 472.8 352 464C352 455.2 344.8 448 336 448L304 448L304 416L336 416C344.8 416 352 408.8 352 400C352 391.2 344.8 384 336 384L304 384L304 352zM232 256C218.7 256 208 266.7 208 280L208 296L176 296L176 280C176 249.1 201.1 224 232 224L248 224C278.9 224 304 249.1 304 280L304 296L272 296L272 280C272 266.7 261.3 256 248 256L232 256zM368 280L368 296L336 296L336 280C336 249.1 361.1 224 392 224L408 224C438.9 224 464 249.1 464 280L464 296L432 296L432 280C432 266.7 421.3 256 408 256L392 256C378.7 256 368 266.7 368 280z"/></svg>