<svg xmlns="http://www.w3.org/2000/svg" viewBox="0 0 640 640"><!--! Font Awesome Pro 7.2.0 by @fontawesome - https://fontawesome.com License - https://fontawesome.com/license (Commercial License) Copyright 2026 Fonticons, Inc. --><path fill="currentColor" d="M463 168.4C473.9 175.8 484.7 181.4 492.7 185.2C499 188.2 505.4 190.6 512 193C518.5 190.6 524.9 188.1 531.3 185.2C539.3 181.5 550.1 175.9 561 168.4C581.7 154.3 608 130.2 608 96L608 93.3C608 59.5 580.6 32 546.7 32C534.2 32 522.1 35.8 512 42.8C501.8 35.8 489.8 32 477.3 32C443.5 32 416 59.4 416 93.3L416 96C416 130.2 442.3 154.4 463 168.4zM477.3 64C485.1 64 492.5 67.1 498 72.6L512 86.6L526.1 72.6C531.5 67.1 539 64 546.7 64C562.9 64 576 77.1 576 93.3L576 96C576 113 562.3 128.8 543 142C531.1 150.1 518.9 155.9 512 158.8C505.1 155.9 492.9 150.1 481 142C461.7 128.9 448 113 448 96L448 93.3C448 77.1 461.1 64 477.3 64zM368 68.5C352.5 65.6 336.4 64 320 64C178.6 64 64 178.6 64 320C64 348.5 68.7 376 77.3 401.6C83.7 402.7 90 404.4 96 406.7C101.1 404.8 106.3 403.3 111.6 402.2C101.6 376.7 96 349 96 320C96 196.3 196.3 96 320 96C336.5 96 352.5 97.8 368 101.2L368 68.5zM528.4 402.2C533.7 403.3 538.9 404.8 544 406.7C550.1 404.4 556.3 402.7 562.7 401.6C571.3 376 576 348.5 576 320C576 286.5 569.6 254.4 557.8 225.1L529.1 239.5C538.7 264.5 544 291.7 544 320C544 349 538.5 376.8 528.4 402.2zM402.9 528.2C377.3 538.4 349.3 544 320 544C290.7 544 262.7 538.4 237.1 528.2C234.6 539.1 230.7 549.1 226 558.2C255.1 569.7 286.8 576 320 576C353.2 576 384.9 569.7 414 558.2C409.3 549.1 405.4 539.1 402.9 528.2zM216.4 379.2L190.5 398C219.6 438 266.7 464 320 464C373.3 464 420.5 438 449.5 398L423.6 379.2C400.3 411.2 362.6 432 320 432C277.4 432 239.7 411.2 216.4 379.2zM208 280C208 266.7 218.7 256 232 256L248 256C261.3 256 272 266.7 272 280L272 296L304 296L304 280C304 249.1 278.9 224 248 224L232 224C201.1 224 176 249.1 176 280L176 296L208 296L208 280zM392 256L408 256C421.3 256 432 266.7 432 280L432 296L464 296L464 280C464 249.1 438.9 224 408 224L392 224C361.1 224 336 249.1 336 280L336 296L368 296L368 280C368 266.7 378.7 256 392 256zM495 584.4C505.9 591.8 516.7 597.4 524.7 601.2C531 604.2 537.4 606.6 544 609C550.5 606.6 556.9 604.1 563.3 601.2C571.3 597.5 582.1 591.9 593 584.4C613.7 570.3 640 546.2 640 512L640 509.3C640 475.5 612.6 448 578.7 448C566.2 448 554.1 451.8 544 458.8C533.8 451.8 521.8 448 509.3 448C475.5 448 448 475.4 448 509.3L448 512C448 546.2 474.3 570.4 495 584.4zM509.3 480C517.1 480 524.5 483.1 530 488.6L544.1 502.7L558.2 488.6C563.7 483.1 571.1 480 578.9 480C595.1 480 608.2 493.1 608.2 509.3L608.2 512C608.2 529 594.5 544.8 575.2 558C563.3 566.1 551.1 571.9 544.2 574.8C537.3 571.9 525.1 566.1 513.2 558C493.9 544.9 480.2 529 480.2 512L480.2 509.3C480.2 493.1 493.3 480 509.5 480zM76.7 601.2C83 604.2 89.4 606.6 96 609C102.5 606.6 108.9 604.1 115.3 601.2C123.3 597.5 134.1 591.9 145 584.4C165.7 570.3 192 546.2 192 512L192 509.3C192 475.5 164.6 448 130.7 448C118.2 448 106.1 451.8 96 458.8C85.9 451.8 73.8 448 61.3 448C27.5 448 0 475.4 0 509.3L0 512C0 546.2 26.3 570.4 47 584.4C57.9 591.8 68.7 597.4 76.7 601.2zM32 509.3C32 493.1 45.1 480 61.3 480C69.1 480 76.5 483.1 82 488.6L96.1 502.7L110.2 488.6C115.7 483.1 123.1 480 130.9 480C147.1 480 160.2 493.1 160.2 509.3L160.2 512C160.2 529 146.5 544.8 127.2 558C115.3 566.1 103.1 571.9 96.2 574.8C89.3 571.9 77.1 566.1 65.2 558C45.9 544.9 32.2 529 32.2 512L32.2 509.3z"/></svg>