<svg xmlns="http://www.w3.org/2000/svg" viewBox="0 0 640 640"><!--! Font Awesome Pro 7.2.0 by @fontawesome - https://fontawesome.com License - https://fontawesome.com/license (Commercial License) Copyright 2026 Fonticons, Inc. --><path fill="currentColor" d="M128 288C128 182 214 96 320 96C426 96 512 182 512 288C512 394 426 480 320 480C214 480 128 394 128 288zM336 511.4C452.2 503.2 544 406.3 544 288C544 164.3 443.7 64 320 64C196.3 64 96 164.3 96 288C96 406.3 187.8 503.2 304 511.4L304 544L160 544L160 576L480 576L480 544L336 544L336 511.4zM291.3 126.6C282.6 130.1 270.3 135.1 254.2 141.6C205 161.5 181.3 217.4 201.2 266.6C210.6 289.8 229.5 310.8 251.8 324.3C216.7 369.2 198.7 392.3 197.8 393.4C205.2 399.1 215.7 407.4 229.3 418C271.1 450.6 331.4 443.2 364.1 401.5C379.5 381.8 388.3 354.9 388.8 328.8C445.3 336.7 474.2 340.8 475.6 341C476.9 331.8 478.8 318.6 481.2 301.4C488.6 248.9 452 200.4 399.5 193C374.7 189.5 347.1 195.4 324.2 208C302.8 155.1 291.9 128 291.4 126.7zM273.6 168.3C295.8 223.1 307.9 253.2 310 258.3L326.8 244.5C345.3 229.3 372.6 221.4 394.9 224.6C429.9 229.5 454.3 261.9 449.4 296.9L448.3 304.8C389.7 296.6 357.7 292.1 352.1 291.3L355.7 312.8C359.6 336.5 352.8 364 338.9 381.8C317.1 409.7 276.9 414.6 249.1 392.8L242.8 387.9C279.2 341.3 299.1 315.8 302.6 311.4L282.2 303.7C259.8 295.3 239.3 275.6 230.9 254.7C217.7 221.9 233.5 184.6 266.3 171.4L273.7 168.4zM320 304C328.8 304 336 296.8 336 288C336 279.2 328.8 272 320 272C311.2 272 304 279.2 304 288C304 296.8 311.2 304 320 304z"/></svg>