<svg xmlns="http://www.w3.org/2000/svg" viewBox="0 0 640 640"><!--! Font Awesome Pro 7.2.0 by @fontawesome - https://fontawesome.com License - https://fontawesome.com/license (Commercial License) Copyright 2026 Fonticons, Inc. --><path fill="currentColor" d="M444.4 438.6C535.5 347.5 569.1 147.7 576 64C492.3 70.9 292.5 104.5 201.4 195.6L195.1 202.2C134.1 268.3 97.8 384.5 157.6 459.8L67 550.4L89.6 573L180.2 482.4C255.5 542.2 371.7 505.9 437.8 444.9L444.4 438.6zM203 459.6L246.6 416L421.7 416C392.1 445.6 348 469.9 303.7 478C265.7 485 230.4 479.8 203 459.6zM448 384L278.7 384L342.7 320L482.7 320C472.5 343.5 461 365.2 448.1 384zM495.4 288L374.7 288L423.6 239.1L401 216.5L180.5 437C160.2 409.5 155.1 374.3 162.1 336.3C170.3 292 194.5 248 224.1 218.3L231.9 211C272.1 175 334.5 148 400.5 129C450.9 114.5 501 105.3 540 100.2C534.8 139.2 525.7 189.3 511.2 239.7C506.5 256.1 501.2 272.3 495.5 288z"/></svg>