<svg xmlns="http://www.w3.org/2000/svg" viewBox="0 0 640 640"><!--! Font Awesome Pro 7.2.0 by @fontawesome - https://fontawesome.com License - https://fontawesome.com/license (Commercial License) Copyright 2026 Fonticons, Inc. --><path fill="currentColor" d="M512 224L512 576L128 576L128 64L352 64L512 224zM160 544L480 544L480 256L320 256L320 96L160 96L160 544zM288 352L256 352L256 377.9L252.2 382.4L237.1 400L252.2 417.6L256 422.1L256 448L288 448L288 480L224 480L224 433.9C208.7 416 199 404.7 194.9 400C199 395.2 208.7 383.9 224 366.1L224 320L288 320L288 352zM416 320L416 366.1C431.3 384 441 395.3 445.1 400C441 404.8 431.3 416.1 416 433.9L416 480L352 480L352 448L384 448L384 422.1L387.8 417.6L402.9 400L387.8 382.4L384 377.9L384 352L352 352L352 320L416 320zM352 224L466.7 224L352 109.2L352 224z"/></svg>