<svg xmlns="http://www.w3.org/2000/svg" viewBox="0 0 640 640"><!--! Font Awesome Pro 7.2.0 by @fontawesome - https://fontawesome.com License - https://fontawesome.com/license (Commercial License) Copyright 2026 Fonticons, Inc. --><path fill="currentColor" d="M256 96L96 96L96 544L307 544C313.9 555.3 321.7 566 330.3 576L64 576L64 64L288 64L448 224L448 274.7L416 285.4L416 256L256 256L256 96zM402.7 224L288 109.3L288 224L402.7 224zM352 391.2L352 419.4C352 482.6 389.2 539.9 447 565.6L448 566L448 359.2L352 391.2zM481 565.5C538.8 539.8 576 482.5 576 419.3L576 391.1L480 359.1L480 565.9L481 565.5zM464 320.1L608 368.1L608 419.3C608 495.2 563.3 563.9 494 594.8L464 608.1L434 594.8C364.7 564 320 495.2 320 419.3L320 368.1L464 320.1z"/></svg>