<svg xmlns="http://www.w3.org/2000/svg" viewBox="0 0 640 640"><!--! Font Awesome Pro 7.2.0 by @fontawesome - https://fontawesome.com License - https://fontawesome.com/license (Commercial License) Copyright 2026 Fonticons, Inc. --><path fill="currentColor" d="M576 96L576 160L64 160L64 96L576 96zM32 192L64 192L64 576L176 576L176 544L96 544L96 192L544 192L544 544L464 544L464 576L576 576L576 192L608 192L608 64L32 64L32 192zM290.9 256C252.1 280.2 174.5 349.1 174.5 430.5C174.5 510.8 239.6 576 320 576C400.4 576 465.5 510.9 465.5 430.5C465.5 406.3 448 343.2 378.2 285C374.5 288.7 364.8 298.4 349.1 314.1C338.2 303.2 318.8 283.8 290.9 255.9zM369.7 334.8L379.2 325.3C426.4 372.7 436.4 417.7 436.4 430.5C436.4 460.7 424.9 488.3 406 509C406.9 504.3 407.3 499.6 407.3 494.7C407.3 430.7 320 372.5 320 372.5C320 372.5 232.7 430.7 232.7 494.7C232.7 499.6 233.2 504.4 234 509C215.1 488.3 203.6 460.8 203.6 430.5C203.6 399 218.8 367.7 240.9 339.9C255.9 321.1 272.9 305.3 287.6 293.8C318.2 324.4 338.7 344.9 349 355.2L369.6 334.6zM320 547C285.9 547 261.8 521.7 261.8 494.6C261.8 474.7 276.3 451.4 297.3 429.7C305.3 421.5 313.3 414.4 320 408.8C326.7 414.3 334.8 421.4 342.7 429.7C363.7 451.4 378.1 474.7 378.1 494.6C378.1 521.7 354 547 319.9 547z"/></svg>