<svg xmlns="http://www.w3.org/2000/svg" viewBox="0 0 640 640"><!--! Font Awesome Pro 7.2.0 by @fontawesome - https://fontawesome.com License - https://fontawesome.com/license (Commercial License) Copyright 2026 Fonticons, Inc. --><path fill="currentColor" d="M128 128L128 512L512 512L512 224L416 128L416 272L192 272L192 128L128 128zM224 128L224 240L384 240L384 128L224 128zM429.3 96L438.7 105.4L544.1 210.8L544.1 544.1L96.1 544.1L96.1 96.1L429.4 96.1zM320 416C337.7 416 352 401.7 352 384C352 366.3 337.7 352 320 352C302.3 352 288 366.3 288 384C288 401.7 302.3 416 320 416zM320 320C355.3 320 384 348.7 384 384C384 419.3 355.3 448 320 448C284.7 448 256 419.3 256 384C256 348.7 284.7 320 320 320z"/></svg>