<svg xmlns="http://www.w3.org/2000/svg" viewBox="0 0 640 640"><!--! Font Awesome Pro 7.2.0 by @fontawesome - https://fontawesome.com License - https://fontawesome.com/license (Commercial License) Copyright 2026 Fonticons, Inc. --><path fill="currentColor" d="M288 96L352 144L576 144L576 512L64 512L64 96L288 96zM352 176L341.3 176L332.8 169.6L277.3 128L96 128L96 480L544 480L544 176L352 176zM241.4 272L264 249.4C266 251.4 284.6 270 320 305.4C355.3 270.1 374 251.4 376 249.4L398.6 272C396.6 274 378 292.6 342.6 328C377.9 363.3 396.6 382 398.6 384L376 406.6L320 350.6C284.7 386 266 404.6 264 406.6L241.4 384C243.4 382 262 363.4 297.4 328C262.1 292.7 243.4 274 241.4 272z"/></svg>