<svg xmlns="http://www.w3.org/2000/svg" viewBox="0 0 640 640"><!--! Font Awesome Pro 7.2.0 by @fontawesome - https://fontawesome.com License - https://fontawesome.com/license (Commercial License) Copyright 2026 Fonticons, Inc. --><path fill="currentColor" d="M512 80L512 64L480 64L480 544L608 544L608 512L512 512L512 80zM64 488C64 457.1 89.1 432 120 432C150.9 432 176 457.1 176 488C176 518.9 150.9 544 120 544C89.1 544 64 518.9 64 488zM32 472L32 488C32 536.6 71.4 576 120 576C160.3 576 194.2 548.9 204.7 512L275.3 512C285.7 548.9 319.7 576 360 576C408.6 576 448 536.6 448 488C448 460.7 435.5 436.3 416 420.1L416 316.5L414.5 313.3L318.5 105.3L314.2 96L128 96L128 224L32 224L32 472zM128 256L137.4 256L228.7 347.3L233.4 352L384 352L384 403.3C376.4 401.1 368.3 400 360 400C314.1 400 276.4 435.1 272.4 480L207.7 480C203.7 435.1 166 400 120.1 400C98.8 400 79.3 407.5 64.1 420.1L64.1 256L128.1 256zM382.4 320L246.6 320L160 233.4L160 128L293.8 128L382.4 320zM304 488C304 457.1 329.1 432 360 432C390.9 432 416 457.1 416 488C416 518.9 390.9 544 360 544C329.1 544 304 518.9 304 488z"/></svg>