<svg xmlns="http://www.w3.org/2000/svg" viewBox="0 0 640 640"><!--! Font Awesome Pro 7.2.0 by @fontawesome - https://fontawesome.com License - https://fontawesome.com/license (Commercial License) Copyright 2026 Fonticons, Inc. --><path fill="currentColor" d="M400 128C373.5 128 352 149.5 352 176L352 192L332.8 192C184.3 192 64 312.3 64 460.8L64 512L384 512L384 480L297.4 480C318.7 458.7 330.7 446.7 333.5 443.9C345.3 432.1 352 416 352 399.2C352 364.3 323.7 336 288.8 336C272 336 256 342.7 244.1 354.5C212 386.6 194.6 404 192 406.6L169.4 384C172 381.4 189.4 364 221.5 331.9C239.4 314 263.6 304 288.8 304C341.4 304 384 346.6 384 399.2C384 416.5 379.3 433.4 370.5 448L416 448L416 544L32 544L32 460.8C32 298.4 160.6 166.1 321.6 160.2C328.9 123.6 361.3 96 400 96C441.4 96 475.4 127.4 479.6 167.7C513.8 174.3 542.4 184 563 192.4C574.6 197.2 583.8 201.6 590.1 204.8C593.3 206.4 595.7 207.7 597.4 208.7C598.2 209.2 598.9 209.6 599.4 209.8L600 210.1L600.2 210.2L600.3 210.2L600.3 210.2L600.3 210.2L592.1 223.9L600.3 210.2L608.1 214.9L608.1 297L600.3 301.7L455.8 388.4L551.9 512L608.1 512L608.1 544L536.3 544L531.5 537.8L419.5 393.8L408.4 379.5L423.9 370.2L576.1 278.9L576.1 233.5L575.7 233.3C570.1 230.4 561.7 226.4 551 222C529.5 213.2 498.7 202.9 461.4 196.9L446.8 194.6L448 179.9C448.1 178.6 448.2 177.3 448.2 176C448.2 149.5 426.7 128 400.2 128zM400 160C408.8 160 416 167.2 416 176C416 184.8 408.8 192 400 192C391.2 192 384 184.8 384 176C384 167.2 391.2 160 400 160z"/></svg>