<svg xmlns="http://www.w3.org/2000/svg" viewBox="0 0 640 640"><!--! Font Awesome Pro 7.2.0 by @fontawesome - https://fontawesome.com License - https://fontawesome.com/license (Commercial License) Copyright 2026 Fonticons, Inc. --><path fill="currentColor" d="M216.1 490.9L199.8 472.3C184.3 480 171.1 486.7 160 492.2L160 256C160 167.6 231.6 96 320 96C408.4 96 480 167.6 480 256L480 492.2C468.9 486.7 455.7 480 440.2 472.3C432.4 481.2 415.4 500.6 389.2 530.6C352.8 498.3 329.8 477.8 320 469.1C310.3 477.8 287.2 498.2 250.8 530.6L216.1 490.9zM128 544L192 512C217.6 541.3 236.3 562.6 248 576C259.9 565.4 283.9 544.1 320 512C356.1 544.1 380.1 565.4 392 576C403.7 562.6 422.4 541.2 448 512L512 544L512 256C512 150 426 64 320 64C214 64 128 150 128 256L128 544zM280 256C280 242.7 269.3 232 256 232C242.7 232 232 242.7 232 256C232 269.3 242.7 280 256 280C269.3 280 280 269.3 280 256zM408 256C408 242.7 397.3 232 384 232C370.7 232 360 242.7 360 256C360 269.3 370.7 280 384 280C397.3 280 408 269.3 408 256z"/></svg>