<svg xmlns="http://www.w3.org/2000/svg" viewBox="0 0 640 640"><!--! Font Awesome Pro 7.2.0 by @fontawesome - https://fontawesome.com License - https://fontawesome.com/license (Commercial License) Copyright 2026 Fonticons, Inc. --><path fill="currentColor" d="M136.2 448C166 490.7 210.3 522.5 261.9 536.3C244.4 513.7 227.7 483.2 215 448L249.2 448C254.3 460.8 259.8 472.8 265.8 483.8C277.6 505.6 290.3 522.3 301.6 533.1C308 539.2 312.8 542.3 315.8 543.9C317.2 543.9 318.5 544 319.9 544C321.3 544 322.6 543.9 324 543.9C327.1 542.3 331.9 539.2 338.3 533.1C349.6 522.3 362.2 505.5 374.1 483.8C380.1 472.8 385.7 460.8 390.7 448L424.9 448C412.2 483.2 395.5 513.8 378 536.3C429.7 522.5 474 490.6 503.8 448L541.7 448C497.4 524.5 414.7 576 320 576C225.3 576 142.6 524.5 98.3 448L136.2 448zM64 291C64 308.3 67.1 325.4 73.2 341.6L80 359.8L91.4 329.4C94.4 321.3 96 312.7 96 304L96 288L128 288L128 304C128 312.7 129.6 321.3 132.6 329.4L144 359.8L150.8 341.6C156.9 325.4 160 308.3 160 291L160 240L192 240L192 291C192 312.1 188.2 333 180.8 352.8L167 389.6L163.1 400L124.9 400L121 389.6L112 365.5L103 389.6L99.1 400L60.9 400L57 389.6L43.2 352.8C35.8 333 32 312.1 32 291L32 240L64 240L64 291zM272 291C272 308.3 275.1 325.4 281.2 341.6L288 359.8L299.4 329.4C302.4 321.3 304 312.7 304 304L304 288L336 288L336 304C336 312.7 337.6 321.3 340.6 329.4L352 359.8L358.8 341.6C364.9 325.4 368 308.3 368 291L368 240L400 240L400 291C400 312.1 396.2 333 388.8 352.8L375 389.6L371.1 400L332.9 400L329 389.6L320 365.5L311 389.6L307.1 400L268.9 400L265 389.6L251.2 352.8C243.8 333 240 312.1 240 291L240 240L272 240L272 291zM480 291C480 308.3 483.1 325.4 489.2 341.6L496 359.8L507.4 329.4C510.4 321.3 512 312.7 512 304L512 288L544 288L544 304C544 312.7 545.6 321.3 548.6 329.4L560 359.8L566.8 341.6C572.9 325.4 576 308.3 576 291L576 240L608 240L608 291C608 312.1 604.2 333 596.8 352.8L583 389.6L579.1 400L540.9 400L537 389.6L528 365.5L519 389.6L515.1 400L476.9 400L473 389.6L459.2 352.8C451.8 333 448 312.1 448 291L448 240L480 240L480 291zM320 64C414.7 64 497.4 115.5 541.7 192L503.8 192C474 149.3 429.7 117.4 378 103.6C395.5 126.2 412.2 156.8 424.9 192L390.7 192C385.6 179.2 380 167.3 374.1 156.3C362.3 134.5 349.6 117.8 338.3 107C331.9 100.8 327 97.8 323.9 96.2C322.6 96.2 321.2 96.1 319.9 96.1C318.6 96.1 317.2 96.2 315.9 96.2C312.8 97.8 308 100.9 301.6 107C290.3 117.8 277.7 134.6 265.8 156.3C259.8 167.3 254.2 179.3 249.2 192L215 192C227.8 156.8 244.5 126.2 262 103.6C210.3 117.4 166 149.3 136.2 192L98.3 192C142.6 115.5 225.3 64 320 64z"/></svg>