<svg xmlns="http://www.w3.org/2000/svg" viewBox="0 0 640 640"><!--! Font Awesome Pro 7.2.0 by @fontawesome - https://fontawesome.com License - https://fontawesome.com/license (Commercial License) Copyright 2026 Fonticons, Inc. --><path fill="currentColor" d="M352 544L352.1 544C352.8 543.9 359.1 542.5 370.5 531.6C381.8 520.9 394.4 504.4 406.2 482.8C427.8 443.5 444.8 391.2 447.6 336L354 336L363.4 304L447.5 304C444.7 248.8 427.6 196.5 406.1 157.2C394.3 135.7 381.7 119.1 370.4 108.4C359 97.6 352.6 96.2 352 96L351.9 96L351.9 96C351.2 96.1 344.9 97.5 333.5 108.4C322.2 119.1 309.6 135.6 297.8 157.2C276.8 195.5 260.1 246.3 256.6 299.9L97.4 346.7C96.5 337.9 96 329 96 320C96 178.6 210.6 64 352 64C493.4 64 608 178.6 608 320C608 461.4 493.4 576 352 576C329.2 576 307 573 286 567.4L295 536.7L295 536.7L295 536.7L306.5 497.6C315.7 512.1 325 523.5 333.5 531.6C344.9 542.4 351.3 543.8 351.9 544L351.9 544zM409 536.7C500.1 512.8 568.6 432.9 575.4 336L479.6 336C475.8 417.5 443.8 492.9 409 536.7zM479.6 304L575.4 304C568.6 207.1 500.1 127.2 409 103.3C443.8 147.1 475.8 222.5 479.6 304zM295 103.3C203.9 127.2 135.4 207.1 128.6 304L224.4 304C228.2 222.5 260.2 147.1 295 103.3zM183.9 456.1L188.7 465.6L216.3 520.9L256.8 383.2L119.1 423.7L174.4 451.3L183.9 456.1zM74 437L32 416C37.8 414.3 116.3 391.2 267.5 346.7L304 336L293.3 372.5C248.8 523.7 225.7 602.2 224 608C212.4 584.8 193.6 547.2 167.5 495.1L75.3 587.3L64 598.6L41.4 576L52.7 564.7L144.9 472.5L74 437z"/></svg>