<svg xmlns="http://www.w3.org/2000/svg" viewBox="0 0 640 640"><!--! Font Awesome Pro 7.2.0 by @fontawesome - https://fontawesome.com License - https://fontawesome.com/license (Commercial License) Copyright 2026 Fonticons, Inc. --><path fill="currentColor" d="M608 544L576 544L576 128L64 128L64 544L32 544L32 96L608 96L608 544zM208 240L304 240L304 176L336 176L336 240L432 240L432 176L464 176L464 240L528 240L528 272L464 272L464 336L528 336L528 368L464 368L464 432L528 432L528 464L464 464L464 544L432 544L432 464L336 464L336 544L304 544L304 464L208 464L208 544L176 544L176 464L112 464L112 432L176 432L176 368L112 368L112 336L176 336L176 272L112 272L112 240L176 240L176 176L208 176L208 240zM208 432L304 432L304 368L208 368L208 432zM336 432L432 432L432 368L336 368L336 432zM208 336L304 336L304 272L208 272L208 336zM336 336L432 336L432 272L336 272L336 336z"/></svg>