<svg xmlns="http://www.w3.org/2000/svg" viewBox="0 0 640 640"><!--! Font Awesome Pro 7.2.0 by @fontawesome - https://fontawesome.com License - https://fontawesome.com/license (Commercial License) Copyright 2026 Fonticons, Inc. --><path fill="currentColor" d="M128 128L128 256L256 256L256 128L128 128zM96 96L288 96L288 288L96 288L96 96zM128 384L128 512L256 512L256 384L128 384zM96 352L288 352L288 544L96 544L96 352zM512 128L384 128L384 256L512 256L512 128zM384 96L544 96L544 288L352 288L352 96L384 96zM384 384L384 512L512 512L512 384L384 384zM352 352L544 352L544 544L352 544L352 352z"/></svg>