<svg xmlns="http://www.w3.org/2000/svg" viewBox="0 0 640 640"><!--! Font Awesome Pro 7.2.0 by @fontawesome - https://fontawesome.com License - https://fontawesome.com/license (Commercial License) Copyright 2026 Fonticons, Inc. --><path fill="currentColor" d="M544 320C544 196.3 443.7 96 320 96C196.3 96 96 196.3 96 320C96 443.7 196.3 544 320 544C443.7 544 544 443.7 544 320zM64 320C64 178.6 178.6 64 320 64C461.4 64 576 178.6 576 320C576 461.4 461.4 576 320 576C178.6 576 64 461.4 64 320zM320 416C282.1 416 245.5 411.8 211.5 404C234.1 440 274.3 464 320 464C365.7 464 405.8 440 428.5 404C394.5 411.8 358 416 320 416zM320 384C364.5 384 406.6 377.8 444.3 366.8C456.3 363.3 467.9 359.3 478.9 354.8C477.4 367.8 474.3 380.4 469.8 392.3C447 452.9 388.5 496 320 496C251.5 496 193 452.9 170.2 392.3C165.7 380.4 162.6 367.8 161.1 354.8C172.1 359.3 183.7 363.3 195.7 366.8C233.3 377.8 275.5 384 320 384zM192.5 230.3L178.2 223.1L192.5 194.5L206.8 201.7L296 246.3L296 265.7L286.8 270.3L206.8 310.3L192.5 317.5L178.2 288.9C181.6 287.2 203.5 276.3 243.9 256.1L192.5 230.4zM461.9 223.1C458.5 224.8 436.6 235.7 396.2 255.9C436.6 276.1 458.5 287.1 461.9 288.7L447.6 317.3L433.3 310.1L353.3 270.1L344.1 265.5L344.1 246.1L353.3 241.5L433.3 201.5L447.6 194.3L461.9 222.9z"/></svg>