<svg xmlns="http://www.w3.org/2000/svg" viewBox="0 0 640 640"><!--! Font Awesome Pro 7.2.0 by @fontawesome - https://fontawesome.com License - https://fontawesome.com/license (Commercial License) Copyright 2026 Fonticons, Inc. --><path fill="currentColor" d="M544 320C544 196.3 443.7 96 320 96C196.3 96 96 196.3 96 320C96 443.7 196.3 544 320 544C443.7 544 544 443.7 544 320zM64 320C64 178.6 178.6 64 320 64C461.4 64 576 178.6 576 320C576 461.4 461.4 576 320 576C178.6 576 64 461.4 64 320zM320 416C282.1 416 245.5 411.8 211.5 404C234.1 440 274.3 464 320 464C365.7 464 405.8 440 428.5 404C394.5 411.8 358 416 320 416zM320 384C364.5 384 406.6 377.8 444.3 366.8C456.3 363.3 467.9 359.3 478.9 354.8C477.4 367.8 474.3 380.4 469.8 392.3C447 452.9 388.5 496 320 496C251.5 496 193 452.9 170.2 392.3C165.7 380.4 162.6 367.8 161.1 354.8C172.1 359.3 183.7 363.3 195.7 366.8C233.3 377.8 275.5 384 320 384zM219.1 203.6C225.7 190.3 237.9 176 256 176C274.1 176 286.3 190.3 292.9 203.6C300 217.8 304 236.4 304 256C304 275.6 300.1 294.2 292.9 308.4C286.3 321.7 274.2 336 256 336C237.8 336 225.7 321.7 219.1 308.4C211.9 294.2 208 275.6 208 256C208 236.4 211.9 217.8 219.1 203.6zM384 176C402.2 176 414.3 190.3 420.9 203.6C428 217.8 432 236.4 432 256C432 275.6 428.1 294.2 420.9 308.4C414.3 321.7 402.2 336 384 336C365.8 336 353.7 321.7 347.1 308.4C339.9 294.2 336 275.6 336 256C336 236.4 339.9 217.8 347.1 203.6C353.7 190.3 365.9 176 384 176zM272 256C272 229.5 264.8 208 256 208C247.2 208 240 229.5 240 256C240 282.5 247.2 304 256 304C264.8 304 272 282.5 272 256zM384 304C392.8 304 400 282.5 400 256C400 229.5 392.8 208 384 208C375.2 208 368 229.5 368 256C368 282.5 375.2 304 384 304z"/></svg>