<svg xmlns="http://www.w3.org/2000/svg" viewBox="0 0 640 640"><!--! Font Awesome Pro 7.2.0 by @fontawesome - https://fontawesome.com License - https://fontawesome.com/license (Commercial License) Copyright 2026 Fonticons, Inc. --><path fill="currentColor" d="M160 256L96 256L96 192L160 192L160 256zM192 192L192 160L64 160L64 288L192 288L192 192zM352 192L352 256L288 256L288 192L352 192zM384 160L256 160L256 288L384 288L384 160zM544 192L544 256L480 256L480 192L544 192zM576 160L448 160L448 288L576 288L576 160zM544 384L544 448L480 448L480 384L544 384zM576 352L448 352L448 480L576 480L576 352zM352 448L288 448L288 384L352 384L352 448zM384 384L384 352L256 352L256 480L384 480L384 384zM160 384L160 448L96 448L96 384L160 384zM192 352L64 352L64 480L192 480L192 352z"/></svg>