<svg xmlns="http://www.w3.org/2000/svg" viewBox="0 0 640 640"><!--! Font Awesome Pro 7.2.0 by @fontawesome - https://fontawesome.com License - https://fontawesome.com/license (Commercial License) Copyright 2026 Fonticons, Inc. --><path fill="currentColor" d="M160 112L160 96L128 96L128 128C75 128 32 171 32 224C32 274.4 70.8 315.7 120.1 319.7L72 512L64 544L224 544L256 416L320 416L320 448L352 448L352 352L320 352L320 384L264 384L280 320L560 320L560 272L608 272L608 176L560 176L560 128L160 128L160 112zM128 160L528 160L528 208L576 208L576 240L528 240L528 288L128 288C92.7 288 64 259.3 64 224C64 188.7 92.7 160 128 160zM128 208L112 208L112 240L496 240L496 208L128 208zM247 320L199 512L105 512L153 320L247 320z"/></svg>