<svg xmlns="http://www.w3.org/2000/svg" viewBox="0 0 640 640"><!--! Font Awesome Pro 7.2.0 by @fontawesome - https://fontawesome.com License - https://fontawesome.com/license (Commercial License) Copyright 2026 Fonticons, Inc. --><path fill="currentColor" d="M128 48C57.3 48 0 105.3 0 176L0 208L91.6 208L112 220.3L112 576L240 576L240 220.3L260.4 208L320 208L320 224L352 224L352 64L320 64L320 80L262.6 80L235.3 52.7L230.6 48L224 48L128 48zM144 544L144 232L208 232L208 544L144 544zM320 112L320 176L251.6 176L247.8 178.3L211.6 200L140.5 200L104.3 178.3L100.5 176L32.1 176L32.1 176C32.1 123 75.1 80 128.1 80L217.5 80L249.5 112L320.1 112zM416 64L400 64L400 264.9L325.3 332.1L320 336.9L320 576L608 576L608 336.9L602.7 332.1L528 264.9L528 64L416 64zM432 272L432 96L496 96L496 279.1L501.3 283.9L576 351.1L576 352L352 352L352 351.1L426.7 283.9L432 279.1L432 272zM352 384L576 384L576 544L448 544L448 480L416 480L416 544L352 544L352 384z"/></svg>