<svg xmlns="http://www.w3.org/2000/svg" viewBox="0 0 640 640"><!--! Font Awesome Pro 7.2.0 by @fontawesome - https://fontawesome.com License - https://fontawesome.com/license (Commercial License) Copyright 2026 Fonticons, Inc. --><path fill="currentColor" d="M288.2 64L272.2 64L272.2 96L192.2 96L192.2 352.8C139.4 300 121.6 282.2 120.2 280.8L108.9 292.1L52.3 348.7L41 360C45.7 364.7 58.9 377.9 80.6 399.6L184.4 503.4C230.9 549.9 294 576 359.7 576L368.2 576C465.4 576 544.2 497.2 544.2 400L544.2 160L464.2 160L464.2 96L384.2 96L384.2 64L288.2 64zM432.2 192L432.2 320L464.2 320L464.2 192L512.2 192L512.2 400C512.2 479.5 447.7 544 368.2 544L359.7 544C302.4 544 247.5 521.2 207 480.7L103.2 377L86.3 360L120.2 326.1C126.3 332.2 148 353.9 185.2 391.1L196.5 402.4C204 394.9 211.7 387.3 219.5 379.4L224.2 374.7L224.2 128.1L272.2 128.1L272.2 320.1L304.2 320.1L304.2 96.1L352.2 96.1L352.2 320.1L384.2 320.1L384.2 128.1L432.2 128.1L432.2 192.1z"/></svg>