<svg xmlns="http://www.w3.org/2000/svg" viewBox="0 0 640 640"><!--! Font Awesome Pro 7.2.0 by @fontawesome - https://fontawesome.com License - https://fontawesome.com/license (Commercial License) Copyright 2026 Fonticons, Inc. --><path fill="currentColor" d="M272 96L320 128L368 96L448 96L487.3 272.7C572.9 280.4 640 352.4 640 440L640 512L0 512L0 430.5C0 344.9 67.9 275.1 152.9 272.1L192 96L272 96zM185.3 273.8C203.5 276.2 221.2 281 238.1 288L457.9 288L422.3 128L377.7 128C347.4 148.2 328.1 161 320 166.5C311.9 161.1 292.6 148.3 262.3 128L217.7 128L185.3 273.8zM292.8 320L494.9 454.7L465 320L292.8 320zM533.3 480L608 480L608 440C608 372.6 559 316.7 494.6 305.9L533.3 480zM158.5 304C88.6 304 32 360.6 32 430.5L32 480L475.2 480L255 333.2C226.4 314.1 192.8 304 158.5 304z"/></svg>