<svg xmlns="http://www.w3.org/2000/svg" viewBox="0 0 640 640"><!--! Font Awesome Pro 7.2.0 by @fontawesome - https://fontawesome.com License - https://fontawesome.com/license (Commercial License) Copyright 2026 Fonticons, Inc. --><path fill="currentColor" d="M320.2 74.4C326 86.7 343.4 123.6 372.2 185C433.8 156.5 470.8 139.4 483.2 133.7C479.7 146.9 469.3 186.3 452 251.9C517.5 269.7 556.8 280.4 570 283.9C558.9 291.8 525.6 315.2 470.1 354.4C508.8 410.1 532.1 443.6 539.9 454.8C526.3 453.7 485.7 450.2 418.1 444.6C412 512.2 408.3 552.8 407 566.3C397.3 556.7 368.4 528 320.3 480.2C272.1 528 243.2 556.7 233.6 566.3C232.4 552.7 228.7 512.1 222.5 444.6C154.9 450.3 114.3 453.7 100.7 454.8C108.5 443.6 131.7 410.1 170.5 354.4C115 315.3 81.7 291.8 70.6 283.9C83.8 280.3 123.1 269.6 188.6 251.9C171.3 186.3 160.8 146.9 157.4 133.7C169.8 139.4 206.8 156.5 268.4 185C297.3 123.6 314.6 86.7 320.4 74.4zM320.2 149.6C296.5 200.1 284.3 226 283.6 227.4C282.2 226.7 256.2 214.7 205.5 191.3C219.8 245.2 227.1 272.9 227.5 274.4C226 274.8 198.3 282.3 144.5 296.9C190.1 329.1 213.5 345.6 214.8 346.5C213.9 347.8 197.5 371.3 165.7 417.1L235.6 411.2L251.4 409.9C251.5 411.4 254.1 440 259.2 495.6C298.8 456.3 319.1 436.1 320.2 435C321.3 436.1 341.6 456.3 381.2 495.6C386.3 440 388.8 411.5 389 409.9L404.8 411.2L474.7 417.1C442.9 371.3 426.5 347.8 425.6 346.5C426.9 345.6 450.3 329.1 495.9 296.9C442.1 282.3 414.4 274.8 412.9 274.4C413.3 272.9 420.6 245.2 434.9 191.3C384.3 214.7 358.2 226.7 356.8 227.4C356.1 226 343.9 200 320.2 149.6z"/></svg>