<svg xmlns="http://www.w3.org/2000/svg" viewBox="0 0 640 640"><!--! Font Awesome Pro 7.2.0 by @fontawesome - https://fontawesome.com License - https://fontawesome.com/license (Commercial License) Copyright 2026 Fonticons, Inc. --><path fill="currentColor" d="M128 128L128 320L512 320L512 128L128 128zM128 352L128 512L512 512L512 352L128 352zM96 320L96 96L544 96L544 544L96 544L96 320zM352 408C365.3 408 376 418.7 376 432C376 445.3 365.3 456 352 456C338.7 456 328 445.3 328 432C328 418.7 338.7 408 352 408zM424 432C424 418.7 434.7 408 448 408C461.3 408 472 418.7 472 432C472 445.3 461.3 456 448 456C434.7 456 424 445.3 424 432z"/></svg>