<svg xmlns="http://www.w3.org/2000/svg" viewBox="0 0 640 640"><!--! Font Awesome Pro 7.2.0 by @fontawesome - https://fontawesome.com License - https://fontawesome.com/license (Commercial License) Copyright 2026 Fonticons, Inc. --><path fill="currentColor" d="M130.7 256C145.9 165.2 224.9 96 320 96C415.1 96 494.1 165.2 509.3 256L384 256L384 448L448 448C472.6 448 495 438.8 512 423.6L512 544.2L400 544.1L400 528.1C400 501.6 378.5 480.1 352 480.1L288 480.1C261.5 480.1 240 501.6 240 528.1L240 576.1L336 576.1L528 576.2L544 576.2L544 288.1C544 164.3 443.7 64 320 64C196.3 64 96 164.3 96 288L96 352C96 405 139 448 192 448L256 448L256 256L130.7 256zM336 544L272 544L272 528C272 519.2 279.2 512 288 512L352 512C360.8 512 368 519.2 368 528L368 544L336 544zM512 320L512 352C512 387.3 483.3 416 448 416L416 416L416 288L512 288L512 320zM128 320L128 288L224 288L224 416L192 416C156.7 416 128 387.3 128 352L128 320z"/></svg>