<svg xmlns="http://www.w3.org/2000/svg" viewBox="0 0 640 640"><!--! Font Awesome Pro 7.2.0 by @fontawesome - https://fontawesome.com License - https://fontawesome.com/license (Commercial License) Copyright 2026 Fonticons, Inc. --><path fill="currentColor" d="M208.4 96L192.4 96L192.4 128L368.4 128L368.4 192L152.4 192L109.2 134.4L104.4 128L28.5 128L32.8 147.5L64.8 291.5L67.6 304L216.6 304L323.8 441.8L328.6 448L448.4 448C519.1 448 576.4 390.7 576.4 320C576.4 249.3 519.1 192 448.4 192L400.4 192L400.4 128L576.4 128L576.4 96L208.4 96zM368.4 224L368.4 416L344.2 416L237 278.2L232.2 272L93.2 272L68.3 160L88.4 160L131.6 217.6L136.4 224L368.4 224zM400.4 416L400.4 224L448.4 224C501.4 224 544.4 267 544.4 320C544.4 373 501.4 416 448.4 416L400.4 416zM608.4 480L576.4 480L576.4 512L256.4 512L256.4 544L608.4 544L608.4 480z"/></svg>