<svg xmlns="http://www.w3.org/2000/svg" viewBox="0 0 640 640"><!--! Font Awesome Pro 7.2.0 by @fontawesome - https://fontawesome.com License - https://fontawesome.com/license (Commercial License) Copyright 2026 Fonticons, Inc. --><path fill="currentColor" d="M280 120C280 106.7 269.3 96 256 96C242.7 96 232 106.7 232 120C232 133.3 242.7 144 256 144C269.3 144 280 133.3 280 120zM312 120C312 145.4 295.1 166.8 272 173.7L272 265.2L312 288L312 333.6L316.4 336.1C310.6 345 305.6 354.5 301.4 364.4L295.8 361.2L272 374.9L272 466.4C280.5 468.9 288.1 473.4 294.4 479.3C298.5 494 304.4 507.9 312 520.8C311.6 551.4 286.7 576 256 576C225.1 576 200 550.9 200 520C200 494.6 216.9 473.2 240 466.3L240 374.8L200 352L200 306.4L126.7 264.5C120.2 270.7 112.4 275.2 104 277.6L104 362.3C112.4 364.8 120.2 369.2 126.7 375.4L168 351.9L168 352L168 370.6L183.9 379.7L142.6 403.3C148.1 426.7 138 451.9 116.1 464.6C89.2 480 55 470.8 39.5 444C24 417.2 33.2 383 60 367.5C63.9 365.3 67.9 363.5 72 362.3L72 277.7C67.9 276.5 63.9 274.8 60 272.5C33.2 257 24 222.8 39.5 196C55 169.2 89.2 160 116 175.5C137.9 188.1 148 213.3 142.5 236.7L216.1 278.7L240 265.1L240 173.6C216.9 166.7 200 145.3 200 119.9C200 89 225.1 63.9 256 63.9C286.9 63.9 312 89 312 119.9zM464 256C438.8 256 414.9 261.3 393.2 270.8C390.4 269 387.8 266.9 385.3 264.5L344 288.1L344 288L344 269.4L328.1 260.3L369.4 236.7C363.9 213.3 374.1 188.1 396 175.5C422.8 160 457 169.2 472.5 196C483.7 215.4 482 238.8 469.9 256.1C467.9 256 466 256 464 256zM436 244.8C447.5 238.2 451.4 223.5 444.8 212C438.2 200.5 423.5 196.6 412 203.2C400.5 209.8 396.6 224.5 403.2 236C409.8 247.5 424.5 251.4 436 244.8zM108.8 236C115.4 224.5 111.5 209.8 100 203.2C88.5 196.6 73.8 200.5 67.2 212C60.6 223.5 64.5 238.2 76 244.8C87.5 251.4 102.2 247.5 108.8 236zM280 520C280 506.7 269.3 496 256 496C242.7 496 232 506.7 232 520C232 533.3 242.7 544 256 544C269.3 544 280 533.3 280 520zM67.2 428C73.8 439.5 88.5 443.4 100 436.8C111.5 430.2 115.4 415.5 108.8 404C102.2 392.5 87.5 388.6 76 395.2C64.5 401.8 60.6 416.5 67.2 428zM232 306.6L232 333.5L256 347.2L280 333.5L280 306.6L256 292.9L232 306.6zM576 432C576 370.1 525.9 320 464 320C402.1 320 352 370.1 352 432C352 493.9 402.1 544 464 544C525.9 544 576 493.9 576 432zM320 432C320 352.5 384.5 288 464 288C543.5 288 608 352.5 608 432C608 511.5 543.5 576 464 576C384.5 576 320 511.5 320 432zM488 352L477.3 416L544 416L440 512L450.7 448L384 448L488 352z"/></svg>