<svg xmlns="http://www.w3.org/2000/svg" viewBox="0 0 640 640"><!--! Font Awesome Pro 7.2.0 by @fontawesome - https://fontawesome.com License - https://fontawesome.com/license (Commercial License) Copyright 2026 Fonticons, Inc. --><path fill="currentColor" d="M45.5 320.1L182.9 560.1L458 560.1L595.4 320.1L458 80L182.9 80L45.5 320.1zM201.5 112L439.5 112L558.6 320.1L439.5 528.2L201.5 528.2L82.4 320.1L201.5 112zM352.9 262C351.4 263.8 328.6 292 284.5 346.7C271.7 335.9 261.8 327.6 254.8 321.8L244.5 333.4L186.1 399L178.4 407.6L184.1 417.6L215.3 472.1L219.9 480.2L420.8 480.2L425.4 472.1L457.2 416.5L462.4 407.3L456 398.9L365 278.4L352.7 262.1zM352.1 314L424.4 409.7L402.4 448.1L238.6 448.1L217.7 411.6L258.1 366.2C271.3 377.3 281.6 385.9 289 392.1L299.2 379.5L352 314zM272.5 224C272.5 232.8 265.3 240 256.5 240C247.7 240 240.5 232.8 240.5 224C240.5 215.2 247.7 208 256.5 208C265.3 208 272.5 215.2 272.5 224zM256.5 176C230 176 208.5 197.5 208.5 224C208.5 250.5 230 272 256.5 272C283 272 304.5 250.5 304.5 224C304.5 197.5 283 176 256.5 176z"/></svg>