<svg xmlns="http://www.w3.org/2000/svg" viewBox="0 0 640 640"><!--! Font Awesome Pro 7.2.0 by @fontawesome - https://fontawesome.com License - https://fontawesome.com/license (Commercial License) Copyright 2026 Fonticons, Inc. --><path fill="currentColor" d="M295.4 480L368 480L592 144L512 64L176 288L176 360.6C138.6 398 114.6 422 104 432.6L120.4 449L36.7 532.7L32 537.4L32 576L166.6 576L171.3 571.3L207 535.6L223.4 552L295.4 480zM184.4 513L153.4 544L70.7 544L143.1 471.6L184.5 513zM223.4 506.8L149.3 432.7L198.7 383.3L208.1 373.9L208.1 305.1L243.2 281.7L374.4 412.9L351 448L282.3 448L272.9 457.4L223.5 506.8zM270.3 263.7L507.9 105.2L550.8 148.1L392.4 385.7L270.2 263.6z"/></svg>