<svg xmlns="http://www.w3.org/2000/svg" viewBox="0 0 640 640"><!--! Font Awesome Pro 7.2.0 by @fontawesome - https://fontawesome.com License - https://fontawesome.com/license (Commercial License) Copyright 2026 Fonticons, Inc. --><path fill="currentColor" d="M331 68.3L320.1 58.1L309.2 68.3L69.2 292.3L57.5 303.2L79.3 326.6C85.5 320.8 96.5 310.6 112.1 296L112.1 576L528.1 576L528.1 296C543.7 310.6 554.6 320.8 560.9 326.6L582.7 303.2C580.1 300.8 561.9 283.8 528.1 252.2L528.1 96L416.1 96L416.1 147.7L331 68.3zM496.1 266.2L496.1 544L344.7 544L294.3 468.4L377 413.3L393.2 402.5L379.4 388.7L283.4 292.7L272.1 281.4L249.5 304L260.8 315.3L343 397.5L263.2 450.7L249.9 459.6L258.8 472.9L306.2 544L144.1 544L144.1 266.2L320.1 101.9L496.1 266.2zM496.1 128L496.1 222.4L448.1 177.6L448.1 128L496.1 128z"/></svg>