<svg xmlns="http://www.w3.org/2000/svg" viewBox="0 0 640 640"><!--! Font Awesome Pro 7.2.0 by @fontawesome - https://fontawesome.com License - https://fontawesome.com/license (Commercial License) Copyright 2026 Fonticons, Inc. --><path fill="currentColor" d="M416 40.1L427.9 53.3L571.9 213.3L576 217.9L576 256L512.7 256L604.6 374.2L608 378.5L608 416L531.6 416L635.9 533.4L639.9 537.9L639.9 576L463.9 576L463.9 544L602.5 544L483.9 410.6L471.2 396.3L482 384L571.7 384L467.3 249.8L447.2 224L538.4 224L415.9 87.9L336.8 175.8L312.7 154.7L404 53.3L415.9 40.1zM250.5 164L442.5 332L421.4 356.1L415.9 351.3L415.9 576L63.9 576L63.9 351.3L58.4 356.1L37.3 332L229.3 164L239.8 154.8L250.3 164zM384 323.3L240 197.3L96 323.3L96 544L384 544L384 323.3zM184 328L296 328L296 440L184 440L184 328zM216 360L216 408L264 408L264 360L216 360z"/></svg>