<svg xmlns="http://www.w3.org/2000/svg" viewBox="0 0 640 640"><!--! Font Awesome Pro 7.2.0 by @fontawesome - https://fontawesome.com License - https://fontawesome.com/license (Commercial License) Copyright 2026 Fonticons, Inc. --><path fill="currentColor" d="M344 80.2L344 63.5L327.3 64.2C216.5 68.7 128 160 128 272C128 373.2 200.3 457.5 296 476.2L296 575.9L312.7 575.2C423.6 570.7 512 479.4 512 367.4C512 266.2 439.7 181.9 344 163.2L344 80.1zM160 272C160 182.9 226.2 109.3 312 97.6L312 191L326 192.7C412.8 203.5 480 277.6 480 367.3C480 456.4 413.8 530 328 541.7L328 448.3L314 446.5C227.2 435.8 160 361.7 160 272zM368 320C368 346.5 346.5 368 320 368C293.5 368 272 346.5 272 320C272 293.5 293.5 272 320 272C346.5 272 368 293.5 368 320zM320 240C275.8 240 240 275.8 240 320C240 364.2 275.8 400 320 400C364.2 400 400 364.2 400 320C400 275.8 364.2 240 320 240z"/></svg>