<svg xmlns="http://www.w3.org/2000/svg" viewBox="0 0 640 640"><!--! Font Awesome Pro 7.2.0 by @fontawesome - https://fontawesome.com License - https://fontawesome.com/license (Commercial License) Copyright 2026 Fonticons, Inc. --><path fill="currentColor" d="M608 416L608 384C608 224.9 479.1 96 320 96C160.9 96 32 224.9 32 384L32 544L608 544L608 416zM512 416L576 416L576 512L416 512L416 416L512 416zM384 384L384 512L256 512L256 352L384 352L384 384zM416 352L416 320L224 320L224 384L160 384L160 256L480 256L480 384L416 384L416 352zM512 256L541.8 256C563.6 293.7 576 337.4 576 384L512 384L512 256zM98.2 256L128 256L128 384L64 384C64 337.4 76.5 293.7 98.2 256zM384 224L384 136.1C438.4 150.1 485.8 181.5 519.9 224L384 224zM352 130L352 224L120.1 224C167 165.5 239.1 128 320 128C330.8 128 341.5 128.7 352 130zM224 512L64 512L64 416L224 416L224 512z"/></svg>