<svg xmlns="http://www.w3.org/2000/svg" viewBox="0 0 640 640"><!--! Font Awesome Pro 7.2.0 by @fontawesome - https://fontawesome.com License - https://fontawesome.com/license (Commercial License) Copyright 2026 Fonticons, Inc. --><path fill="currentColor" d="M99.2 64L540.9 64L543.7 76.5L575.7 220.5L576.1 222.2L576.1 576L64.1 576L64.1 222.2L64.5 220.5L96.5 76.5L99.3 64zM96 384L544 384L544 256L441.9 256L414.3 311.2L409.9 320L230.1 320L225.7 311.2L198.1 256L96 256L96 384zM406.1 416L233.9 416L249.9 448L390.1 448L406.1 416zM198.1 416L96 416L96 544L544 544L544 416L441.9 416L409.9 480L230.1 480L225.7 471.2L198.1 416zM124.8 96L96.4 224L217.9 224L222.3 232.8L249.9 288L390.1 288L417.7 232.8L422.1 224L543.6 224L515.2 96L124.9 96z"/></svg>