<svg xmlns="http://www.w3.org/2000/svg" viewBox="0 0 640 640"><!--! Font Awesome Pro 7.2.0 by @fontawesome - https://fontawesome.com License - https://fontawesome.com/license (Commercial License) Copyright 2026 Fonticons, Inc. --><path fill="currentColor" d="M576 160L576 480L64 480L64 160L576 160zM64 128L32 128L32 512L608 512L608 128L64 128zM128 224L128 256L160 256L160 384L128 384L128 416L224 416L224 384L192 384L192 224L128 224zM297.9 264C309.3 254.3 326.4 255.5 336.2 266.8C345.9 277.9 345 294.8 334.2 304.8L261.2 372.2L256.1 377L256.1 416L384.1 416L384.1 384L295.7 384L356 328.4C379.6 306.6 381.6 270 360.4 245.8C339 221.3 301.9 218.7 277.2 239.8L253.7 259.9L274.5 284.2L298 264.1z"/></svg>