<svg xmlns="http://www.w3.org/2000/svg" viewBox="0 0 640 640"><!--! Font Awesome Pro 7.2.0 by @fontawesome - https://fontawesome.com License - https://fontawesome.com/license (Commercial License) Copyright 2026 Fonticons, Inc. --><path fill="currentColor" d="M320 96C249.3 96 192 153.3 192 224L192 240L160 240L160 224C160 135.6 231.6 64 320 64C408.4 64 480 135.6 480 224L480 224C479.9 279.2 451.3 332.9 400 362.5L336 399.5L336 464L304 464L304 192L336 192L336 362.6L384 334.9C425 311.2 448 268.3 448 224C448 153.3 390.7 96 320 96zM340 536L340 576L300 576L300 536L340 536z"/></svg>