<svg xmlns="http://www.w3.org/2000/svg" viewBox="0 0 640 640"><!--! Font Awesome Pro 7.2.0 by @fontawesome - https://fontawesome.com License - https://fontawesome.com/license (Commercial License) Copyright 2026 Fonticons, Inc. --><path fill="currentColor" d="M80 480C71.2 480 64 472.8 64 464L64 336C64 327.2 71.2 320 80 320C88.8 320 96 327.2 96 336L96 387.8L256 248.7L256 141.4L256.8 138.9L288.8 42.9L292.4 32L347.5 32L351.1 42.9L383.1 138.9L383.9 141.4L383.9 248.5L543.9 381.8L543.9 336C543.9 327.2 551.1 320 559.9 320C568.7 320 575.9 327.2 575.9 336L575.9 464C575.9 472.8 568.7 480 559.9 480C551.1 480 543.9 472.8 543.9 464L543.9 448L383.9 448L383.9 473.4L427.2 516.7L431.9 521.4L431.9 608L207.9 608L207.9 521.4L212.6 516.7L255.9 473.4L255.9 448L95.9 448L95.9 464C95.9 472.8 88.7 480 79.9 480zM256 416L256 291.1L112.4 416L256 416zM384 416L535 416L384 290.2L384 416zM336 576L400 576L400 534.6L356.7 491.3L352 486.6L352 146.6L324.5 64L315.6 64L288.1 146.6L288.1 486.6L283.4 491.3L240.1 534.6L240.1 576L304.1 576L304.1 528C304.1 519.2 311.3 512 320.1 512C328.9 512 336.1 519.2 336.1 528L336.1 576z"/></svg>