<svg xmlns="http://www.w3.org/2000/svg" viewBox="0 0 640 640"><!--! Font Awesome Pro 7.2.0 by @fontawesome - https://fontawesome.com License - https://fontawesome.com/license (Commercial License) Copyright 2026 Fonticons, Inc. --><path fill="currentColor" d="M256 96L192 96L192 128L256 128L256 96zM160 96L160 64L288 64L288 128L320 128L320 160L128 160L128 128L160 128L160 96zM282.7 224L192 224C139 224 96 267 96 320L96 544L272 544L272 563.9L284.1 576L64 576L64 320C64 249.3 121.3 192 192 192L325.3 192C298.3 212.3 284.1 222.9 282.6 224zM384 128L512 128L512 208L576 256L576 320L552 344L576 368L576 432L552 456L576 480L576 544L544 576L352 576L320 544L320 480L344 456L320 432L320 368L344 344L320 320L320 256L384 208L384 128zM480 160L416 160L416 208L480 208L480 160zM544 381.3L506.7 344C523.1 327.6 535.5 315.2 544 306.7L544 272L501.3 240L394.6 240L351.9 272L351.9 306.7C360.3 315.1 372.7 327.5 389.2 344L351.9 381.3L351.9 418.8L389.2 456.1L351.9 493.4L351.9 530.9L365.2 544.2L530.7 544.2L544 530.9L544 493.4L506.7 456.1L544 418.8L544 381.3z"/></svg>