<svg xmlns="http://www.w3.org/2000/svg" viewBox="0 0 640 640"><!--! Font Awesome Pro 7.2.0 by @fontawesome - https://fontawesome.com License - https://fontawesome.com/license (Commercial License) Copyright 2026 Fonticons, Inc. --><path fill="currentColor" d="M208 111.6L209.2 115.5L238.4 215.6L424.6 401.8L524.7 431.1L528.6 432.3L638.8 542.5L542.6 638.7L432.4 528.5L431.2 524.6L402 424.6L215.7 238.3L115.7 209.1L111.8 207.9L1.6 97.7L97.8 1.5L208 111.7zM460.7 511.5L542.5 593.3L593.5 542.3L511.7 460.5L439.7 439.5L460.7 511.5zM190.4 280.7L198.4 288.7C123 385 102.5 482.1 97.6 542.5C158 537.6 255.1 517.2 351.3 441.7L359.3 449.7L365.5 471.1C243 564.8 119.6 576 64.2 576C64.2 520.5 75.3 397.1 169 274.5L190.4 280.8zM252.3 342.6C239.8 355.1 239.8 375.4 252.3 387.9C264.8 400.4 285 400.4 297.5 387.9L320.1 410.5C295.1 435.5 254.6 435.5 229.6 410.5C206.2 387.1 204.7 350 225.2 324.9L229.6 320L252.2 342.6zM576.2 64C576.2 119.5 565 242.8 471.4 365.4L449.9 359.1L442 351.2C517.5 254.9 538 157.7 542.8 97.4C482.4 102.3 385.3 122.8 289 198.3L281 190.3L274.7 168.8C397.3 75.1 520.7 64 576.2 64zM325 225.1C350.1 204.6 387.2 206 410.7 229.5C435.7 254.5 435.7 295 410.7 320L410.7 320L388.1 297.4L388.1 297.4C400.6 284.9 400.6 264.6 388.1 252.1C375.6 239.6 355.3 239.6 342.8 252.1L342.8 252.1L320.2 229.5L320.2 229.5L325 225.1zM46.8 97.6L128.6 179.4L200.6 200.4L179.6 128.4L97.8 46.6L46.8 97.6z"/></svg>