<svg xmlns="http://www.w3.org/2000/svg" viewBox="0 0 640 640"><!--! Font Awesome Pro 7.2.0 by @fontawesome - https://fontawesome.com License - https://fontawesome.com/license (Commercial License) Copyright 2026 Fonticons, Inc. --><path fill="currentColor" d="M288.1 544C325.3 544 360.3 534.9 391.2 518.9C395.1 529.8 399.3 539.8 403.2 548.7C368.6 566.2 329.5 576 288.1 576C146.7 576 32.1 461.4 32.1 320C32.1 178.6 146.7 64 288.1 64C429.5 64 544.1 178.6 544.1 320C544.1 324.1 544 328.2 543.8 332.3C541.9 331 539.9 329.8 537.9 328.6C529.6 323.8 520.9 320.3 512.1 317.9C511 195.1 411.1 96 288.1 96C164.4 96 64.1 196.3 64.1 320C64.1 443.7 164.4 544 288.1 544zM288.1 336L304.1 336C330.6 336 352.1 357.5 352.1 384C352.1 396.3 347.5 407.5 339.9 416C347.5 424.5 352.1 435.7 352.1 448C352.1 474.5 330.6 496 304.1 496L272.1 496L272.1 464L304.1 464C312.9 464 320.1 456.8 320.1 448C320.1 439.2 312.9 432 304.1 432L272.1 432L272.1 400L304.1 400C312.9 400 320.1 392.8 320.1 384C320.1 375.2 312.9 368 304.1 368L272.1 368L272.1 336L288.1 336zM208.1 248C221.4 248 232.1 258.7 232.1 272C232.1 285.3 221.4 296 208.1 296C194.8 296 184.1 285.3 184.1 272C184.1 258.7 194.8 248 208.1 248zM360.1 256C346.8 256 336.1 266.7 336.1 280L336.1 296L304.1 296L304.1 280C304.1 249.1 329.2 224 360.1 224L376.1 224C407 224 432.1 249.1 432.1 280L432.1 296L400.1 296L400.1 280C400.1 266.7 389.4 256 376.1 256L360.1 256zM449.3 542.1C444 532.4 437.2 518.7 431.5 503.1C420.5 473.2 411.2 430.7 431.1 396.3C448.8 365.7 487.9 355.2 518.5 372.9L521 374.4C535.5 382.8 546.3 396.2 551.3 412.1C567.6 408.5 584.6 411.2 599.1 419.5L601.6 421C632.2 438.7 642.7 477.8 625 508.4C605.1 542.8 563.7 556 532.3 561.4C515.9 564.2 500.7 565.2 489.6 565.5C480.7 565.7 471.9 565.4 463 564.9C458.1 557.5 453.4 550 449.2 542.2zM583.1 447.1C575.1 442.5 565.6 441.2 556.6 443.6L528.7 451.1L521.2 423.2C518.8 414.3 513 406.6 504.9 402L502.4 400.5C487.1 391.7 467.5 396.9 458.7 412.2C446.6 433.2 450.9 463.3 461.4 492C466.4 505.7 472.5 517.9 477.3 526.7C478.7 529.3 480 531.5 481.1 533.4C483.3 533.4 485.9 533.4 488.8 533.3C498.8 533.1 512.4 532.2 526.8 529.7C556.9 524.5 585.1 513.2 597.2 492.2C606 476.9 600.8 457.3 585.5 448.5L583 447z"/></svg>