<svg xmlns="http://www.w3.org/2000/svg" viewBox="0 0 640 640"><!--! Font Awesome Pro 7.2.0 by @fontawesome - https://fontawesome.com License - https://fontawesome.com/license (Commercial License) Copyright 2026 Fonticons, Inc. --><path fill="currentColor" d="M512 240C512 214.8 496.1 187.6 461.1 165.1C426.5 142.8 376.7 128 320 128C263.3 128 213.6 142.8 178.9 165.1C143.9 187.6 128 214.8 128 240C128 265.2 143.9 292.4 178.9 314.9C213.6 337.2 263.4 352 320 352C376.6 352 426.4 337.2 461.1 314.9C496.1 292.4 512 265.2 512 240zM544 240L544 320C544 443.7 443.7 544 320 544C196.3 544 96 443.7 96 320L96 240C96 160.5 196.3 96 320 96C443.7 96 544 160.5 544 240zM512 314.2C472.8 356 401.5 384 320 384C238.5 384 167.2 356 128 314.2L128 320C128 426 214 512 320 512C426 512 512 426 512 320L512 314.2zM376 240C376 253.3 350.9 264 320 264C289.1 264 264 253.3 264 240C264 226.7 289.1 216 320 216C350.9 216 376 226.7 376 240zM336 152L336 192L304 192L304 136L336 136L336 152zM251.3 164.7C256.1 169.5 262.5 175.9 270.6 184L248 206.6C230.5 189.1 225.2 183.8 217.4 176L240 153.4L251.3 164.7zM411.3 187.3C406.5 192.1 400.1 198.5 392 206.6L369.4 184C386.9 166.5 392.2 161.2 400 153.4L422.6 176L411.3 187.3zM192 224L240 224L240 256L176 256L176 224L192 224zM416 224L464 224L464 256L400 256L400 224L416 224zM259.3 307.3L240 326.6L217.4 304C234.9 286.5 240.2 281.2 248 273.4L270.6 296L259.3 307.3zM403.3 284.7C408.1 289.5 414.5 295.9 422.6 304L400 326.6C382.5 309.1 377.2 303.8 369.4 296L392 273.4L403.3 284.7zM336 328L336 344L304 344L304 288L336 288L336 328z"/></svg>