<svg xmlns="http://www.w3.org/2000/svg" viewBox="0 0 640 640"><!--! Font Awesome Pro 7.2.0 by @fontawesome - https://fontawesome.com License - https://fontawesome.com/license (Commercial License) Copyright 2026 Fonticons, Inc. --><path fill="currentColor" d="M130.2 352L96 352L192 96L448 96L544 352L400 352L400 380.1C429.3 403.6 448 439.6 448 480C448 518.2 431.2 552.5 404.7 576L235.4 576C208.8 552.5 192.1 518.2 192.1 480C192.1 439.6 210.8 403.5 240.1 380.1L240.1 352L130.3 352zM240 320L497.8 320L425.8 128L214.2 128L142.2 320L240 320zM272 352L272 395.4L260 405C238 422.6 224 449.7 224 480C224 504.6 233.2 527 248.4 544L391.5 544C406.7 527 415.9 504.6 415.9 480C415.9 449.7 401.9 422.7 379.9 405L367.9 395.4L367.9 352L271.9 352z"/></svg>