<svg xmlns="http://www.w3.org/2000/svg" viewBox="0 0 640 640"><!--! Font Awesome Pro 7.2.0 by @fontawesome - https://fontawesome.com License - https://fontawesome.com/license (Commercial License) Copyright 2026 Fonticons, Inc. --><path fill="currentColor" d="M192.2 64L192.2 160L384.2 160L384.2 192L346.8 192L331.1 228.6C309.1 279.9 275.9 325.2 234.4 361.3C248.4 370.8 263.2 379.4 278.6 386.8L278.7 386.8L349.3 420.9L433.6 233.5L437.8 224.1L458.5 224.1L462.7 233.5L616.9 576.1L581.8 576.1L538.6 480.1L357.7 480.1L314.5 576.1L279.4 576.1L336.1 450.1L264.7 415.7L264.7 415.7C244.8 406.2 225.8 394.9 208.1 382.1C190.4 394.9 171.5 406.1 151.5 415.7C100.1 440.3 73.8 452.8 72.6 453.5L58.8 424.6L73.2 417.7L137.7 386.8C153.2 379.4 167.9 370.9 181.9 361.3C150.2 333.7 123.3 300.8 102.6 263.9L94.8 250L122.7 234.3L130.5 248.2C150.5 283.9 176.9 315.5 208.1 341.5C248.4 307.8 280.6 264.9 301.6 216L311.9 192L32.2 192L32.2 160L160.2 160L160.2 64L192.2 64zM372.2 448L524.3 448L448.2 279L372.1 448z"/></svg>