<svg xmlns="http://www.w3.org/2000/svg" viewBox="0 0 640 640"><!--! Font Awesome Pro 7.2.0 by @fontawesome - https://fontawesome.com License - https://fontawesome.com/license (Commercial License) Copyright 2026 Fonticons, Inc. --><path fill="currentColor" d="M112 64L96 64L96 304L32 304L32 360L88 416L304 416L304 384L101.3 384L64 346.7L64 336L304 336L304 304L128 304L128 96L480 96L480 176L512 176L512 64L112 64zM384 544L384 256L544 256L544 544L384 544zM384 224L352 224L352 576L576 576L576 224L384 224zM448 480L432 480L432 512L496 512L496 480L448 480z"/></svg>