<svg xmlns="http://www.w3.org/2000/svg" viewBox="0 0 640 640"><!--! Font Awesome Pro 7.2.0 by @fontawesome - https://fontawesome.com License - https://fontawesome.com/license (Commercial License) Copyright 2026 Fonticons, Inc. --><path fill="currentColor" d="M112 64L96 64L96 304L32 304L32 360L88 416L272 416L272 384L101.3 384L64 346.7L64 336L272 336L272 304L128 304L128 96L480 96L480 176L512 176L512 64L112 64zM544 352L480 352L480 285.3L544 349.3L544 352zM544 384L544 544L352 544L352 256L448 256L448 384L544 384zM464 224L320 224L320 576L576 576L576 336L464 224z"/></svg>