<svg xmlns="http://www.w3.org/2000/svg" viewBox="0 0 640 640"><!--! Font Awesome Pro 7.2.0 by @fontawesome - https://fontawesome.com License - https://fontawesome.com/license (Commercial License) Copyright 2026 Fonticons, Inc. --><path fill="currentColor" d="M432 96L416 96L416 128L576 128L576 96L432 96zM320 380.6L123.2 288L320 195.4L516.8 288L320 380.6zM85.6 305.6L320 416L554.4 305.7L592 288L554.4 270.3L320 160L85.6 270.3L48 288L85.6 305.7zM161.7 394.4C104.5 421.4 66.6 439.2 48 448L85.6 465.7L320 576L554.4 465.7L592 448C573.4 439.2 535.5 421.4 478.4 394.5L440.8 412.2L516.9 448L320.1 540.6L123.3 448L199.4 412.2L161.8 394.5z"/></svg>