<svg xmlns="http://www.w3.org/2000/svg" viewBox="0 0 640 640"><!--! Font Awesome Pro 7.2.0 by @fontawesome - https://fontawesome.com License - https://fontawesome.com/license (Commercial License) Copyright 2026 Fonticons, Inc. --><path fill="currentColor" d="M544.6 73.8C544.6 73.8 544.6 73.8 544.8 73.9L575.4 80L575.4 274.1C575.4 401.5 474.6 505.4 348.9 511.8L336.7 512.1C247.4 512.1 173 445.5 161.6 359.1C121.6 391.4 96.1 440.7 96.1 496.1L96.1 544.1L64.1 544.1L64.1 496.1C64.1 422.2 102.7 357.3 160.8 320.4C168.7 230.5 244.2 160.1 336.1 160.1C424.7 160.1 477.1 136.9 507 115.2C522 104.3 531.6 93.4 537.4 85.6C540.3 81.7 542.2 78.5 543.4 76.4C544 75.4 544.4 74.6 544.6 74.2L544.8 73.8L544.8 73.8zM543.4 126.4C538.3 131.1 532.5 136.1 525.8 140.9C489.8 167.1 430.5 192 336 192C256.5 192 192 256.5 192 336C192 415.4 257 480 336.6 480L347.2 479.8C456.1 474.3 543.4 384.2 543.4 274.1L543.4 126.4zM322.9 240C339.6 240 355.7 246.3 368 257.5C380.3 246.3 396.4 240 413.1 240L416 240C451.3 240 480 268.7 480 304C480 343.7 450.8 375.9 426.2 396.3C413.4 406.9 400.7 415.4 391.3 421.2C383.7 425.8 375.9 429.9 368 433.9C360.1 429.9 352.2 425.8 344.7 421.2C335.3 415.4 322.6 407 309.8 396.3C285.3 375.9 256.1 343.7 256 304C256 268.7 284.7 240 320 240L322.9 240zM320 272C302.3 272 288 286.3 288 304C288 328.3 306.8 352.1 330.2 371.7C341.4 381.1 352.7 388.6 361.3 393.8C363.8 395.3 366 396.6 368 397.7C369.9 396.6 372.2 395.3 374.7 393.8C383.2 388.6 394.6 381 405.8 371.7C429.3 352.1 448 328.3 448 304C448 286.3 433.7 272 416 272L413.1 272C403.8 272 395 275.7 388.4 282.2L368 302.6L347.6 282.2C341.1 275.7 332.2 272 322.9 272L320 272z"/></svg>