<svg xmlns="http://www.w3.org/2000/svg" viewBox="0 0 640 640"><!--! Font Awesome Pro 7.2.0 by @fontawesome - https://fontawesome.com License - https://fontawesome.com/license (Commercial License) Copyright 2026 Fonticons, Inc. --><path fill="currentColor" d="M320 92L320 71.5L300.1 76.5L172.1 108.5L160 111.5L160 384.5L179.9 379.5L291.8 351.5L291.9 351.5C329.9 342 381.9 329 448 312.5L448 359.5L348.1 384.5L336 387.5L336 448L304 448L304 397.5L272 405.5L272 448L224 448L224 576L416 576L416 448L368 448L368 412.5L467.9 387.5L480 384.5L480 271.5L480 271.5L480 111.5L460.1 116.5L320 151.5L320 92zM448 279.5C326.8 309.8 241.4 331.1 192 343.5L192 296.5L448 232.5L448 279.5zM320 184.5L448 152.5L448 199.5L192 263.5L192 216.5L307.9 187.5L320 184.5zM288 159.5L192 183.5L192 136.5L288 112.5L288 159.5zM256 544L256 480L384 480L384 544L256 544z"/></svg>