<svg xmlns="http://www.w3.org/2000/svg" viewBox="0 0 640 640"><!--! Font Awesome Pro 7.2.0 by @fontawesome - https://fontawesome.com License - https://fontawesome.com/license (Commercial License) Copyright 2026 Fonticons, Inc. --><path fill="currentColor" d="M342.1 568.9C392.6 514 512 371.5 512 252.6C512 148.4 426 64 320 64C214 64 128 148.4 128 252.6C128 371.5 247.4 514 297.9 568.9C311.4 583.6 320 592 320 592C320 592 328.6 583.6 342.1 568.9zM320 96C408.9 96 480 166.6 480 252.6C480 283.9 469.9 319.2 453 355.8C436.2 392.2 413.4 428.1 390.2 460C364.1 495.8 338 526 320.1 545.6C302.2 526.1 276 495.8 250 460C226.8 428 204 392.2 187.2 355.8C170.2 319.1 160.2 283.9 160.2 252.6C160.2 166.7 231.3 96 320.2 96z"/></svg>