<svg xmlns="http://www.w3.org/2000/svg" viewBox="0 0 640 640"><!--! Font Awesome Pro 7.2.0 by @fontawesome - https://fontawesome.com License - https://fontawesome.com/license (Commercial License) Copyright 2026 Fonticons, Inc. --><path fill="currentColor" d="M416 128C504.4 128 576 199.6 576 288L461.8 288L414 200.3L402 178.2C395.7 186.7 378.5 210.1 350.2 248.5C324.8 210.5 309.7 187.7 304.7 180.3L291.1 198.4L223.9 288L63.9 288L63.9 403.2L118.7 428.3L31.9 544.1L71.9 544.1L148.5 442L201.6 466.3L144.2 544.1L183.9 544.1L231.2 479.8L231.8 480.1L312.8 480.1L276.2 544.1L313.1 544.1L349.7 480.1L485.9 480.1L517.9 544.1L553.7 544.1L521.5 479.6C570 474.8 607.8 433.8 607.8 384.1L607.8 288.1C607.8 182.1 521.8 96.1 415.8 96.1L319.8 96.1L319.8 128.1L415.8 128.1zM398 237.7L425.4 288L376.6 288L369.2 276.9L398 237.8zM330.1 275.9L321.2 288L264 288L303.2 235.7L330 275.9zM96 320L200 320L138.5 402L96 382.6L96 320zM240 320L576 320L576 384C576 419.3 547.3 448 512 448L239 448L168.3 415.7L240 320zM504 408C517.3 408 528 397.3 528 384C528 370.7 517.3 360 504 360C490.7 360 480 370.7 480 384C480 397.3 490.7 408 504 408z"/></svg>