<svg xmlns="http://www.w3.org/2000/svg" viewBox="0 0 640 640"><!--! Font Awesome Pro 7.2.0 by @fontawesome - https://fontawesome.com License - https://fontawesome.com/license (Commercial License) Copyright 2026 Fonticons, Inc. --><path fill="currentColor" d="M336 80L336 64L304 64L304 246.9L256 275.7L256 96L192 96C89 209.2 32 356.8 32 509.9L32 576L160 576L256 512L256 313.1L320 274.7L384 313.1L384 512L480 576L608 576L608 521.7C608 380.6 561.3 243.4 475.3 131.5L448 96L384 96L384 275.7L336 246.9L336 80zM416 332.3L471.8 365.8L488.3 338.4L416.1 295.1L416.1 128.2L432.3 128.2L450 151.2C531.7 257.3 576 387.6 576 521.7L576 544L489.7 544L416 494.9L416 332.3zM224 128L224 294.9L151.8 338.2L168.3 365.6L224.1 332.1L224.1 494.7L150.4 543.8L64.1 543.8L64.1 509.7C64 369.4 114.7 233.9 206.4 128L224 128z"/></svg>