<svg xmlns="http://www.w3.org/2000/svg" viewBox="0 0 640 640"><!--! Font Awesome Pro 7.2.0 by @fontawesome - https://fontawesome.com License - https://fontawesome.com/license (Commercial License) Copyright 2026 Fonticons, Inc. --><path fill="currentColor" d="M96 96L240 96L240 352C240 396.2 275.8 432 320 432C364.2 432 400 396.2 400 352L400 96L544 96L544 352C544 475.7 443.7 576 320 576C196.3 576 96 475.7 96 352L96 96zM128 128L128 224L208 224L208 128L128 128zM128 352C128 458 214 544 320 544C426 544 512 458 512 352L512 256L432 256L432 352C432 413.9 381.9 464 320 464C258.1 464 208 413.9 208 352L208 256L128 256L128 352zM512 224L512 128L432 128L432 224L512 224z"/></svg>