<svg xmlns="http://www.w3.org/2000/svg" viewBox="0 0 640 640"><!--! Font Awesome Pro 7.2.0 by @fontawesome - https://fontawesome.com License - https://fontawesome.com/license (Commercial License) Copyright 2026 Fonticons, Inc. --><path fill="currentColor" d="M320 320C381.9 320 432 269.9 432 208C432 146.1 381.9 96 320 96C258.1 96 208 146.1 208 208C208 269.9 258.1 320 320 320zM464 208C464 282.1 408 343.2 336 351.1L336 576L304 576L304 351.1C232 343.2 176 282.1 176 208C176 128.5 240.5 64 320 64C399.5 64 464 128.5 464 208zM272 208L240 208C240 163.8 275.8 128 320 128L320 160C293.5 160 272 181.5 272 208z"/></svg>