<svg xmlns="http://www.w3.org/2000/svg" viewBox="0 0 640 640"><!--! Font Awesome Pro 7.2.0 by @fontawesome - https://fontawesome.com License - https://fontawesome.com/license (Commercial License) Copyright 2026 Fonticons, Inc. --><path fill="currentColor" d="M432 64L416 64L416 96L521.4 96L448 169.4C419.3 140.7 403.3 124.7 400 121.4L377.4 144C380.7 147.3 396.7 163.3 425.4 192L384.7 232.7C354.1 207.3 314.8 192 272 192C174.8 192 96 270.8 96 368C96 465.2 174.8 544 272 544C369.2 544 448 465.2 448 368C448 325.2 432.7 285.9 407.3 255.4L448 214.6C476.7 243.3 492.7 259.3 496 262.6L518.6 240C515.3 236.7 499.3 220.7 470.6 192L544 118.6L544 224L576 224L576 64L432 64zM128 368C128 288.5 192.5 224 272 224C351.5 224 416 288.5 416 368C416 447.5 351.5 512 272 512C192.5 512 128 447.5 128 368z"/></svg>