<svg xmlns="http://www.w3.org/2000/svg" viewBox="0 0 640 640"><!--! Font Awesome Pro 7.2.0 by @fontawesome - https://fontawesome.com License - https://fontawesome.com/license (Commercial License) Copyright 2026 Fonticons, Inc. --><path fill="currentColor" d="M223.2 482.3C213.5 465.6 208 446.1 208 425.3C208 399.9 217.1 371.1 229.6 345.2C242.2 319.1 259.2 294.2 276.7 276.7L281.4 272L358.7 272L363.4 276.7C380.9 294.2 397.9 319.1 410.5 345.2C423 371.1 432.1 400 432.1 425.3C432.1 446 426.6 465.3 417.1 481.8C455.6 454.7 480.1 411.9 480.1 364.7C480.1 319.6 458 252.7 421.7 200.2L367.9 128L272 128L218 200.3C181.8 252.7 160 319.7 160 364.8C160 412 184.3 455.1 223.2 482.3zM192 181.6L256 96L384 96L447.6 181.6C450 185 452.3 188.5 454.5 192L640 192L640 412.3L628.1 415.4L487.5 452.4C464.8 490.1 428 519.2 384 533.8L384 473.9C394 460.4 400 443.7 400 425.3C400 406.7 393.1 382.8 381.6 359.1C371.4 338 358.2 318.2 345.2 304L294.9 304C281.8 318.3 268.7 338 258.5 359.1C247 382.8 240.1 406.7 240.1 425.3C240.1 443.6 246 460.5 256.1 474L256.1 533.8C211.6 519.3 174.9 490 152.4 452.3L11.9 415.5L0 412.3L0 192L185.1 192C187.4 188.5 189.7 185 192 181.6zM166.8 224L32 224L32 387.7L135.5 414.9C130.6 399 128 382.2 128 364.8C128 324.3 142.4 271.8 166.8 224zM504.4 414.9L608 387.6L608 223.9L472.9 223.9C497.4 271.7 512 324.2 512 364.7C512 382.1 509.3 399 504.4 414.8zM304 368L336 368L336 576L304 576L304 368z"/></svg>