<svg xmlns="http://www.w3.org/2000/svg" viewBox="0 0 640 640"><!--! Font Awesome Pro 7.2.0 by @fontawesome - https://fontawesome.com License - https://fontawesome.com/license (Commercial License) Copyright 2026 Fonticons, Inc. --><path fill="currentColor" d="M240 64L240 128L304 128L304 64L336 64L336 128L400 128L400 64L432 64L432 128L512 128L512 208L576 208L576 240L512 240L512 304L576 304L576 336L512 336L512 400L576 400L576 432L512 432L512 512L432 512L432 576L400 576L400 512L336 512L336 576L304 576L304 512L240 512L240 576L208 576L208 512L128 512L128 432L64 432L64 400L128 400L128 336L64 336L64 304L128 304L128 240L64 240L64 208L128 208L128 128L208 128L208 64L240 64zM480 160L160 160L160 480L480 480L480 160zM384 240L416 240L416 400L384 400L384 240zM199.9 400L202.1 394.3L224 336.8L224 336L224.3 336L257 250.3L260.9 240L282.9 240L286.8 250.3L319.5 336L319.8 336L319.8 336.8L341.7 394.3L343.9 400L309.6 400L297.4 368L246.1 368L233.9 400L199.6 400zM272 300.8L258.6 336L285.5 336L272.1 300.8z"/></svg>