<svg xmlns="http://www.w3.org/2000/svg" viewBox="0 0 640 640"><!--! Font Awesome Pro 7.2.0 by @fontawesome - https://fontawesome.com License - https://fontawesome.com/license (Commercial License) Copyright 2026 Fonticons, Inc. --><path fill="currentColor" d="M576 128L576 480L64 480L64 128L576 128zM544 512L608 512L608 96L32 96L32 512L96 512L96 544L128 544L128 512L512 512L512 544L544 544L544 512zM480 192L480 416L512 416L512 192L480 192zM160 224L384 224L384 384L160 384L160 224zM128 192L128 416L416 416L416 192L128 192z"/></svg>