<svg xmlns="http://www.w3.org/2000/svg" viewBox="0 0 640 640"><!--! Font Awesome Pro 7.2.0 by @fontawesome - https://fontawesome.com License - https://fontawesome.com/license (Commercial License) Copyright 2026 Fonticons, Inc. --><path fill="currentColor" d="M512 160L64 160L64 480L289.2 480L284.6 512L32 512L32 128L544 128L544 232L512 232L512 160zM411.5 352L379.5 384L320 384L320 352L411.5 352zM448 256L448 288L320 288L320 256L448 256zM176 216L208 216L208 240L240 240L240 272L174.3 272C166.4 272 160 278.4 160 286.3C160 293.3 165.1 299.3 172 300.4L217.3 308C239.6 311.7 256 331 256 353.7C256 379.3 235.3 400 209.7 400L208 400L208 424L176 424L176 400L136 400L136 368L209.7 368C217.6 368 224 361.6 224 353.7C224 346.7 218.9 340.7 212 339.6L166.7 332C144.4 328.3 128 309 128 286.3C128 260.7 148.7 240 174.3 240L176 240L176 216zM366.2 511.1L357.7 570.3L416.9 561.8L526 452.7L475.3 402L366.2 511.1zM497.9 379.3L548.6 430L578.7 399.9L528 349.2L497.9 379.3zM624 400L432 592C371.7 600.6 334.3 606 320 608C322 593.7 327.4 556.3 336 496L528 304L624 400z"/></svg>