<svg xmlns="http://www.w3.org/2000/svg" viewBox="0 0 640 640"><!--! Font Awesome Pro 7.2.0 by @fontawesome - https://fontawesome.com License - https://fontawesome.com/license (Commercial License) Copyright 2026 Fonticons, Inc. --><path fill="currentColor" d="M25.5 144L36.8 132.7L108.8 60.7L120.1 49.4L142.7 72L86.7 128L224.1 128L224.1 128L576.1 128L576.1 389.5L544.1 357.5L544.1 256C491.1 256 448.1 213 448.1 160L154.6 160L154.6 160L86.7 160L142.7 216L120.1 238.6L108.8 227.3L36.8 155.3L25.5 144zM64.1 480L64.1 250.5C69.5 255.9 80.2 266.6 96.1 282.5L96.1 384C149.1 384 192.1 427 192.1 480L416.1 480L416.1 480L553.5 480C518.1 444.6 499.5 426 497.5 424L520.1 401.4L531.4 412.7L603.4 484.7L614.7 496L603.4 507.3L531.4 579.3L520.1 590.6L497.5 568C499.5 566 518.2 547.4 553.5 512L485.6 512L485.6 512L64.1 512L64.1 480zM96.1 416L96.1 480L160.1 480C160.1 444.7 131.4 416 96.1 416zM544.1 224L544.1 160L480.1 160C480.1 195.3 508.8 224 544.1 224zM384.1 320C384.1 284.6 355.4 255.9 320 255.9C284.5 255.9 255.8 284.6 255.8 320C255.8 355.4 284.5 384.2 320 384.2C355.4 384.2 384.1 355.4 384.1 320zM223.8 320C223.8 266.9 266.8 223.9 320 223.9C373.1 223.9 416.1 266.9 416.1 320C416.1 373.1 373.1 416.2 320 416.2C266.8 416.2 223.8 373.1 223.8 320z"/></svg>