<svg xmlns="http://www.w3.org/2000/svg" viewBox="0 0 640 640"><!--! Font Awesome Pro 7.2.0 by @fontawesome - https://fontawesome.com License - https://fontawesome.com/license (Commercial License) Copyright 2026 Fonticons, Inc. --><path fill="currentColor" d="M416 64L416 96L489.4 96L351.2 234.2L250.4 147.8L240 138.9L229.6 147.8L117.6 243.8L138.4 268.1L240 181L341.6 268.1L352.9 277.7L363.4 267.2L512.1 118.5L512.1 191.9L544.1 191.9L544.1 63.9L416.1 63.9zM544 352L544 400C517.5 400 496 378.5 496 352L544 352zM176 352L464 352C464 396.2 499.8 432 544 432L544 464C499.8 464 464 499.8 464 544L176 544C176 499.8 140.2 464 96 464L96 432C140.2 432 176 396.2 176 352zM496 544C496 517.5 517.5 496 544 496L544 544L496 544zM96 496C122.5 496 144 517.5 144 544L96 544L96 496zM144 352C144 378.5 122.5 400 96 400L96 352L144 352zM96 320L64 320L64 576L576 576L576 320L96 320zM288 448C288 430.3 302.3 416 320 416C337.7 416 352 430.3 352 448C352 465.7 337.7 480 320 480C302.3 480 288 465.7 288 448zM384 448C384 412.7 355.3 384 320 384C284.7 384 256 412.7 256 448C256 483.3 284.7 512 320 512C355.3 512 384 483.3 384 448z"/></svg>