<svg xmlns="http://www.w3.org/2000/svg" viewBox="0 0 640 640"><!--! Font Awesome Pro 7.2.0 by @fontawesome - https://fontawesome.com License - https://fontawesome.com/license (Commercial License) Copyright 2026 Fonticons, Inc. --><path fill="currentColor" d="M423.7 85.9C392.1 71.9 357.1 64 320 64C178.6 64 64 178.6 64 320C64 461.4 178.6 576 320 576C385.3 576 444.9 551.5 490.1 511.3C503.1 499.7 515 486.8 525.4 472.8C509.9 477.1 493.6 479.6 476.8 480C475.2 480 473.6 480.1 472 480.1C361.5 480.1 272 390.6 272 280.1C272 203.7 314.8 137.3 377.8 103.6C392.1 95.9 407.5 90 423.7 85.9zM330.4 96.2C275.4 138.6 240 205.2 240 280C240 397 326.6 493.8 439.2 509.7C404.7 531.4 363.8 544 320 544C196.3 544 96 443.7 96 320C96 196.3 196.3 96 320 96C323.5 96 326.9 96.1 330.4 96.2z"/></svg>