<svg xmlns="http://www.w3.org/2000/svg" viewBox="0 0 640 640"><!--! Font Awesome Pro 7.2.0 by @fontawesome - https://fontawesome.com License - https://fontawesome.com/license (Commercial License) Copyright 2026 Fonticons, Inc. --><path fill="currentColor" d="M469.9 91.8C467.1 96 454.8 114.4 433 147.1L447.2 204.1L449.7 214.2L441.8 220.7L390.1 263.8L532.8 279.6L540.7 280.9C579.5 288.9 607.9 323.2 607.9 363.6L607.5 372.2C603.5 411.9 571.8 443.5 532.1 447.6L523.5 448C507.9 448 492.6 443.7 479.3 435.5L473.8 431.8L384.2 366.6L428.2 421.6L431.8 426.1L431.8 476L462 536.5L469.2 550.9L441.2 565.7L434 551.3L400.2 483.8L400.2 437.7L368 397.4L368 511.8L272 511.8L272 397.3L239.8 437.6L239.8 483.7L238.1 487.2L206.1 551.2L198.9 565.6L170.8 550.8L178 536.4L208.3 475.9L208.3 426L211.9 421.5L255.9 366.5L166.3 431.7L160.8 435.4C147.5 443.5 132.2 447.9 116.6 447.9L108 447.5C68.3 443.5 36.6 411.9 32.6 372.1L32 363.6C32 323.3 60.5 289 99.2 280.9L107.1 279.6L249.9 263.8L198.1 220.7L190.2 214.1L192.7 204L206.9 147L178.9 105.1L170 91.7L196 73.4L204.9 86.8L236.9 134.8L240.9 140.9L239.1 148L225.6 202L271.8 240.5L271.8 192L303.8 192L303.8 111.9L335.8 111.9L335.8 192L367.8 192L367.8 240.6L414 202.1L400.5 148.1L398.7 141L402.7 134.9L434.7 86.9L443.6 73.5L469.6 91.8zM304 224L304 480L336 480L336 224L304 224zM110.7 311.5C84.2 314.5 64 336.9 64 363.6C64 392.5 87.5 416 116.5 416C127.6 416 138.4 412.5 147.4 406L272 315.3L272 293.5L110.6 311.4zM368 315.4L492.6 406C501.6 412.5 512.4 416 523.5 416C552.5 416 576 392.5 576 363.6C576 336.9 555.9 314.5 529.3 311.5L368 293.6L368 315.4z"/></svg>