<svg xmlns="http://www.w3.org/2000/svg" viewBox="0 0 640 640"><!--! Font Awesome Pro 7.2.0 by @fontawesome - https://fontawesome.com License - https://fontawesome.com/license (Commercial License) Copyright 2026 Fonticons, Inc. --><path fill="currentColor" d="M272.5 64L256.5 64L256.5 151.6C260.6 158.7 271.3 177 288.5 206.5L288.5 96L448.5 96L448.5 192L576.5 192L576.5 544L485.4 544C486.8 546.5 493.1 557.2 504.1 576L608.5 576L608.5 160L544.5 160L544.5 64L512.5 64L512.5 160L480.5 160L480.5 64L272.5 64zM392.5 152L344.5 152L344.5 200L392.5 200L392.5 152zM344.5 248L344.5 296L392.5 296L392.5 248L344.5 248zM520.5 248L472.5 248L472.5 296L520.5 296L520.5 248zM472.5 344L472.5 392L520.5 392L520.5 344L472.5 344zM19.2 544L.5 576L448.5 576L429.8 544L243 223.8L224.5 192L206 223.8L19.2 544zM392.8 544L56.2 544L139.3 401.5C172.3 434.5 190 452.2 192.4 454.6C194.6 452.4 212.8 434.2 247 400L308.7 400L392.7 544zM224.5 255.5L290.1 368L233.9 368L229.2 372.7L192.5 409.4L156 372.9L224.5 255.5z"/></svg>