<svg xmlns="http://www.w3.org/2000/svg" viewBox="0 0 640 640"><!--! Font Awesome Pro 7.2.0 by @fontawesome - https://fontawesome.com License - https://fontawesome.com/license (Commercial License) Copyright 2026 Fonticons, Inc. --><path fill="currentColor" d="M443.4 100.6C449.6 97.6 456.6 96 464 96C490.5 96 512 117.5 512 144C512 153.6 509.2 162.6 504.3 170.1C491.8 164.6 478.3 161.2 464 160.3L464 160C464 137.6 456.3 117 443.4 100.6zM531.6 186.8C539.4 174.4 544 159.7 544 144C544 99.8 508.2 64 464 64C447.1 64 431.3 69.3 418.4 78.3C403.8 69.3 386.5 64 368 64C314.9 64 272 107.4 272 160.3C272 186 282.2 210.1 299.5 227.8C219.8 244.6 160 315.3 160 400L160 448L128 448C92.7 448 64 476.7 64 512C64 547.3 92.7 576 128 576L544 576L544 544L128 544C110.3 544 96 529.7 96 512C96 494.3 110.3 480 128 480L464 480L464 404.5C460.2 403.2 445.9 398.5 421.2 390.2L442.9 336L576.1 336L576.1 280C576.1 242.4 558.8 208.8 531.7 186.8zM424 448L192 448L192 400C192 320.5 256.5 256 336 256L352 256L357.6 225L345.5 220.5C320.6 211.2 304 187.1 304 160.3C304 124.9 332.7 96 368 96C403.3 96 432 124.7 432 160L432 192L456 192C504.6 192 544 231.4 544 280L544 304L421.2 304L417.2 314.1L390.8 380.1C365.3 371.6 349 366.2 341.9 363.8L331.8 394.2L347 399.3L432.1 427.7L432.1 448.2L424.1 448.2zM400 144L400 128L368 128L368 160L336 160L336 192L400 192L400 144zM496 252C496 241 487 232 476 232C465 232 456 241 456 252C456 263 465 272 476 272C487 272 496 263 496 252z"/></svg>