<svg xmlns="http://www.w3.org/2000/svg" viewBox="0 0 640 640"><!--! Font Awesome Pro 7.2.0 by @fontawesome - https://fontawesome.com License - https://fontawesome.com/license (Commercial License) Copyright 2026 Fonticons, Inc. --><path fill="currentColor" d="M304 96L304 144L272 144L272 128L160 128L160 144L128 144L128 96L272 96L272 64L448 64L448 144L416 144L416 96L304 96zM128 512L448 512L448 224L224 224L224 352L192 352L192 224L128 224L128 512zM480 224L480 384L496 384C540.2 384 576 348.2 576 304C576 259.8 540.2 224 496 224L480 224zM480 416L480 544L96 544L96 192L496 192C557.9 192 608 242.1 608 304C608 365.9 557.9 416 496 416L480 416z"/></svg>