<svg xmlns="http://www.w3.org/2000/svg" viewBox="0 0 640 640"><!--! Font Awesome Pro 7.2.0 by @fontawesome - https://fontawesome.com License - https://fontawesome.com/license (Commercial License) Copyright 2026 Fonticons, Inc. --><path fill="currentColor" d="M256 64C326.7 64 384 121.3 384 192L384 259.2C372.6 265.1 361.8 272.1 352 280.2L352 233.6C332.4 266.2 296.8 287.9 256 287.9C215.2 287.9 179.6 266.1 160 233.6L160 319.9L316.5 319.9C310 329.9 304.4 340.6 300 351.9L124.4 351.9C106.4 379.5 95.9 412.4 95.9 447.9C95.9 483.4 106.4 516.3 124.4 543.9L265.1 543.9C261.5 552.8 257.3 563.4 252.3 575.9L108 575.9L103 569.2C78.5 535.1 64 493.2 64 447.9C64 399.6 80.4 355.2 108 319.9L128 319.9L128 191.9C128 121.3 185.3 64 256 64zM464 288C534.7 288 592 345.3 592 416L592 496L624 576L304 576L336 496L336 416C336 345.3 393.3 288 464 288zM560 473.7C540.4 506.2 504.8 528 464 528C423.2 528 387.6 506.2 368 473.7L368 502.2L365.7 507.9L351.3 544L576.7 544L562.3 507.9L560 502.2L560 473.7zM438.6 432L385.6 432C393 468.5 425.3 496 464 496C502.7 496 535 468.5 542.4 432L489.4 432L464 406.6L438.6 432zM464 320C416.4 320 377 354.6 369.3 400L425.3 400L463.9 361.4L502.5 400L558.5 400C550.9 354.6 511.4 320 463.8 320zM230.6 192L177.6 192C185 228.5 217.3 256 256 256C294.7 256 327 228.5 334.4 192L281.4 192L256 166.6L230.6 192zM256 96C214.2 96 178.8 122.7 165.6 160L217.4 160L256 121.4L294.6 160L346.4 160C333.3 122.7 297.8 96 256 96z"/></svg>