<svg xmlns="http://www.w3.org/2000/svg" viewBox="0 0 640 640"><!--! Font Awesome Pro 7.2.0 by @fontawesome - https://fontawesome.com License - https://fontawesome.com/license (Commercial License) Copyright 2026 Fonticons, Inc. --><path fill="currentColor" d="M480 128L96 128L96 512L284.6 512L280 544L63.9 544L63.9 96L511.9 96L511.9 251.5L479.9 283.5L479.9 128zM416 208L416 347.5L384 379.5L384 224L304 224L304 274.7C322.6 281.3 336 299.1 336 320C336 346.5 314.5 368 288 368C261.5 368 240 346.5 240 320C240 299.1 253.4 281.3 272 274.7L272 192L416 192L416 208zM315.5 448L160 448L160 192L224 192L224 224L192 224L192 416L347.5 416L315.5 448zM288 304C279.2 304 272 311.2 272 320C272 328.8 279.2 336 288 336C296.8 336 304 328.8 304 320C304 311.2 296.8 304 288 304zM366.2 511.1L357.7 570.3L416.9 561.8L526 452.7L475.3 402L366.2 511.1zM497.9 379.3L548.6 430L578.7 399.9L528 349.2L497.9 379.3zM624 400L432 592C371.7 600.6 334.3 606 320 608C322 593.7 327.4 556.3 336 496L528 304L624 400z"/></svg>