<svg xmlns="http://www.w3.org/2000/svg" viewBox="0 0 640 640"><!--! Font Awesome Pro 7.2.0 by @fontawesome - https://fontawesome.com License - https://fontawesome.com/license (Commercial License) Copyright 2026 Fonticons, Inc. --><path fill="currentColor" d="M384 448L192 448L192 96L544 96L544 288L384 288L384 448zM530.7 320L416 434.7L416 320L530.7 320zM192 480L416 480L576 320L576 64L160 64L160 480L192 480zM96 160L64 160L64 576L416 576L416 544L96 544L96 160zM296 152L248 152L248 200L296 200L296 152zM248 248L248 296L296 296L296 248L248 248zM296 344L248 344L248 392L296 392L296 344z"/></svg>