<svg xmlns="http://www.w3.org/2000/svg" viewBox="0 0 640 640"><!--! Font Awesome Pro 7.2.0 by @fontawesome - https://fontawesome.com License - https://fontawesome.com/license (Commercial License) Copyright 2026 Fonticons, Inc. --><path fill="currentColor" d="M96 96L144 96L144 64L64 64L64 144L96 144L96 96zM288 96L288 64L192 64L192 96L288 96zM96 192L64 192L64 288L96 288L96 192zM96 336L64 336L64 416L144 416L144 384L96 384L96 336zM192 416L288 416L288 384L192 384L192 416zM224 464L224 576L576 576L576 224L464 224L464 256L544 256L544 544L256 544L256 464L224 464zM416 256L416 192L384 192L384 288L416 288L416 256zM336 384L336 416L416 416L416 336L384 336L384 384L336 384zM416 144L416 64L336 64L336 96L384 96L384 144L416 144z"/></svg>