<svg xmlns="http://www.w3.org/2000/svg" viewBox="0 0 640 640"><!--! Font Awesome Pro 7.2.0 by @fontawesome - https://fontawesome.com License - https://fontawesome.com/license (Commercial License) Copyright 2026 Fonticons, Inc. --><path fill="currentColor" d="M248.8 123.3C232.6 104.8 189.9 64 128 64C48 64 0 132.3 0 132.3C0 132.3 27.9 167 76.5 183.5C30.6 211.6 0 262.2 0 320L0 352L48 352C136.4 352 208 280.4 208 192L208 178.4L379.6 96L640 96L640 64L372.4 64L369.1 65.6L248.8 123.3zM45 130.6C47.6 128.3 50.5 125.8 53.6 123.4C72.2 109 97.4 96 128 96C158.6 96 183.8 109 202.4 123.4C205.5 125.8 208.4 128.2 211 130.6C208.8 132.3 206.5 133.9 204 135.6C185.6 148.1 159.8 159.9 128 159.9C96.2 159.9 70.4 148.2 52 135.7C49.5 134 47.2 132.3 45 130.7zM412.2 500.6C390.7 529.2 363.4 544 336 544C308.6 544 281.3 529.2 259.8 500.6C238.3 472 224 430.8 224 384C224 337.2 238.3 296.1 259.8 267.4C281.3 238.8 308.6 224 336 224C363.4 224 390.7 238.8 412.2 267.4C433.7 296.1 448 337.2 448 384C448 430.8 433.7 471.9 412.2 500.6zM336 576C415.5 576 480 490 480 384C480 278 415.5 192 336 192C256.5 192 192 278 192 384C192 490 256.5 576 336 576zM465.7 535.8C518.6 552.3 571.2 544.2 605.3 508.8C661.5 450.5 646.3 340.2 571.4 262.4C528.5 217.9 475.3 193.7 427.2 192.1C440.8 202.5 452.9 215 463.4 229C463.9 229.7 464.4 230.4 464.9 231C493.2 240 522.6 257.8 548.3 284.5C581.4 318.9 600.7 359.8 605.8 397.1C611 434.6 601.9 466 582.2 486.4C562.7 506.6 533.3 515.6 498.2 510.4C493.2 509.7 488.1 508.6 483 507.3C477.8 517.3 472 526.8 465.6 535.6zM32 320C32 249.3 89.3 192 160 192L176 192C176 262.7 118.7 320 48 320L32 320z"/></svg>