<svg xmlns="http://www.w3.org/2000/svg" viewBox="0 0 640 640"><!--! Font Awesome Pro 7.2.0 by @fontawesome - https://fontawesome.com License - https://fontawesome.com/license (Commercial License) Copyright 2026 Fonticons, Inc. --><path fill="currentColor" d="M256 256L202.8 264.9C174.8 269.6 148.5 281.6 126.7 299.8L121.6 304C85.1 334.4 64 379.5 64 426.9L64 576L205.7 576C248.1 576 288.8 559.1 318.8 529.1L331.7 516.2C355.3 492.6 370.9 462.3 376.4 429.4L384 384L424.4 377.3C460.6 371.3 494 354.1 519.9 328.1L524.5 323.5C557.5 290.5 576 245.7 576 199L576 64L440.9 64C394.2 64 349.5 82.5 316.4 115.5L311.8 120.1C285.9 146 268.7 179.4 262.6 215.6L256 256zM544 96L544 199.1C544 237.3 528.8 273.9 501.8 300.9L497.2 305.5C476 326.7 448.7 340.8 419 345.7C389.1 350.7 368.1 354.2 356.1 356.2C354.2 367.4 350.5 390.1 344.8 424.2C340.4 450.5 327.9 474.8 309.1 493.7L296.2 506.6C272.2 530.6 239.6 544.1 205.7 544.1L96 544L96 426.9C96 388.9 112.9 352.9 142.1 328.6L147.2 324.4C164.7 309.8 185.7 300.2 208.1 296.5C248.7 289.7 273.9 285.5 283.9 283.9C285.9 271.8 289.4 250.9 294.4 221C299.3 191.4 313.4 164.1 334.6 142.8L339.2 138.2C366.2 111.2 402.8 96 441 96L544 96zM211.2 480C211.2 469.4 202.6 460.8 192 460.8C181.4 460.8 172.8 469.4 172.8 480C172.8 490.6 181.4 499.2 192 499.2C202.6 499.2 211.2 490.6 211.2 480zM416 275.2C426.6 275.2 435.2 266.6 435.2 256C435.2 245.4 426.6 236.8 416 236.8C405.4 236.8 396.8 245.4 396.8 256C396.8 266.6 405.4 275.2 416 275.2zM275.2 480C275.2 469.4 266.6 460.8 256 460.8C245.4 460.8 236.8 469.4 236.8 480C236.8 490.6 245.4 499.2 256 499.2C266.6 499.2 275.2 490.6 275.2 480zM480 275.2C490.6 275.2 499.2 266.6 499.2 256C499.2 245.4 490.6 236.8 480 236.8C469.4 236.8 460.8 245.4 460.8 256C460.8 266.6 469.4 275.2 480 275.2zM275.2 416C275.2 405.4 266.6 396.8 256 396.8C245.4 396.8 236.8 405.4 236.8 416C236.8 426.6 245.4 435.2 256 435.2C266.6 435.2 275.2 426.6 275.2 416zM480 211.2C490.6 211.2 499.2 202.6 499.2 192C499.2 181.4 490.6 172.8 480 172.8C469.4 172.8 460.8 181.4 460.8 192C460.8 202.6 469.4 211.2 480 211.2z"/></svg>