<svg xmlns="http://www.w3.org/2000/svg" viewBox="0 0 640 640"><!--! Font Awesome Pro 7.2.0 by @fontawesome - https://fontawesome.com License - https://fontawesome.com/license (Commercial License) Copyright 2026 Fonticons, Inc. --><path fill="currentColor" d="M112 144C125.3 144 136 133.3 136 120C136 106.7 125.3 96 112 96C98.7 96 88 106.7 88 120C88 133.3 98.7 144 112 144zM112 64C142.9 64 168 89.1 168 120C168 150.9 142.9 176 112 176C81.1 176 56 150.9 56 120C56 89.1 81.1 64 112 64zM421.2 182.6L428.2 184.5L516.2 208.5L524.7 210.8L527.3 219.2L557.6 317.8L600.9 346.6L583.1 373.2L530.4 338L528.7 332.6L513.7 283.9L475.3 394.9L522.5 435.8L526 438.8L527.3 443.3L559.3 550.5L563.9 565.8L533.2 575L528.6 559.7L497.9 457L397.3 369.8C382.9 357.3 377.2 337.4 382.9 319.2L411.6 227.4L364.7 258.7C340.9 312.2 328.2 340.7 326.6 344.4L310.6 333L180.1 239.9L260.1 576L227.2 576L189.1 416L132.7 416L163.2 576L130.6 576L64.1 227L63.8 225.5L63.8 416L31.8 416L31.8 192L168 192L172.2 195L313.2 295.6L337.2 241.5L339.1 237.3L343 234.7L415 186.7L421.1 182.7zM446.7 222.7L413.6 328.7C411.7 334.8 413.6 341.4 418.4 345.6L449.3 372.4L496.4 236.3L446.7 222.7zM96.3 224L126.8 384L181.7 384L144.5 227.7L143.6 224L96.3 224zM512 120C512 106.7 501.3 96 488 96C474.7 96 464 106.7 464 120C464 133.3 474.7 144 488 144C501.3 144 512 133.3 512 120zM432 120C432 89.1 457.1 64 488 64C518.9 64 544 89.1 544 120C544 150.9 518.9 176 488 176C457.1 176 432 150.9 432 120zM393.6 408.9L418.6 430.5L382.3 503.1C381.5 504.6 380.5 506 379.3 507.3L323.3 563.3L312 574.6L289.4 552L300.7 540.7L354.9 486.5L393.7 408.9z"/></svg>