<svg xmlns="http://www.w3.org/2000/svg" viewBox="0 0 640 640"><!--! Font Awesome Pro 7.2.0 by @fontawesome - https://fontawesome.com License - https://fontawesome.com/license (Commercial License) Copyright 2026 Fonticons, Inc. --><path fill="currentColor" d="M392 96C405.3 96 416 106.7 416 120C416 133.3 405.3 144 392 144C378.7 144 368 133.3 368 120C368 106.7 378.7 96 392 96zM392 176C422.9 176 448 150.9 448 120C448 89.1 422.9 64 392 64C361.1 64 336 89.1 336 120C336 150.9 361.1 176 392 176zM64 464C64 419.8 99.8 384 144 384C188.2 384 224 419.8 224 464C224 508.2 188.2 544 144 544C99.8 544 64 508.2 64 464zM256 464C256 402.1 205.9 352 144 352C82.1 352 32 402.1 32 464C32 525.9 82.1 576 144 576C205.9 576 256 525.9 256 464zM416 464C416 419.8 451.8 384 496 384C540.2 384 576 419.8 576 464C576 508.2 540.2 544 496 544C451.8 544 416 508.2 416 464zM608 464C608 402.1 557.9 352 496 352C434.1 352 384 402.1 384 464C384 525.9 434.1 576 496 576C557.9 576 608 525.9 608 464zM330.2 179.7L320.2 171.3L310 179.5L237.4 237.6C206 262.7 210.5 311.8 246 330.7L303.9 361.6L303.9 496L335.9 496L335.9 342.4L327.4 337.9L261 302.5C245.8 294.4 243.8 273.4 257.3 262.6L319.7 212.7L405.7 284.3L410.2 288L496 288L496 256L421.8 256L330.3 179.7z"/></svg>