<svg xmlns="http://www.w3.org/2000/svg" viewBox="0 0 640 640"><!--! Font Awesome Pro 7.2.0 by @fontawesome - https://fontawesome.com License - https://fontawesome.com/license (Commercial License) Copyright 2026 Fonticons, Inc. --><path fill="currentColor" d="M368.5 56L368.5 176.8L361.1 181.5L304.2 217.7L391.9 320L496.5 320L504.2 320L509 326L573 406L583 418.5L558 438.5L548 426L488.8 352L406.6 352L343.4 408.9L460.8 549.8L471 562.1L446.4 582.6L436.2 570.3L210.1 298.9C198.7 319.7 192.5 343.4 192.5 367.8L192.5 456L192.5 472L160.5 472L160.5 456L160.5 367.8C160.5 307.6 191.2 251.6 242 219.3L336.5 159.2L336.5 56L368.5 56zM322.9 384.3L369.1 342.7L276.9 235.1L259.2 246.4C247.9 253.6 237.9 262.2 229.2 271.9L322.9 384.4zM168.5 176C181.8 176 192.5 165.3 192.5 152C192.5 138.7 181.8 128 168.5 128C155.2 128 144.5 138.7 144.5 152C144.5 165.3 155.2 176 168.5 176zM168.5 96C199.4 96 224.5 121.1 224.5 152C224.5 182.9 199.4 208 168.5 208C137.6 208 112.5 182.9 112.5 152C112.5 121.1 137.6 96 168.5 96z"/></svg>