<svg xmlns="http://www.w3.org/2000/svg" viewBox="0 0 640 640"><!--! Font Awesome Pro 7.2.0 by @fontawesome - https://fontawesome.com License - https://fontawesome.com/license (Commercial License) Copyright 2026 Fonticons, Inc. --><path fill="currentColor" d="M184 88C184 74.7 173.3 64 160 64C146.7 64 136 74.7 136 88C136 101.3 146.7 112 160 112C173.3 112 184 101.3 184 88zM104 88C104 57.1 129.1 32 160 32C190.9 32 216 57.1 216 88C216 118.9 190.9 144 160 144C129.1 144 104 118.9 104 88zM88.9 176L208 176L212.8 182.4L280 272L352 272L352 304L264 304L259.2 297.6L208 229.3L208 406.1L263.2 433.7L270.9 437.6L271.9 446.2L287.9 582.2L289.8 598.1L258 601.8L256.1 585.9L241.1 458.5L185.1 430.5C184.9 430.4 184.7 430.3 184.5 430.2L124.2 400C97.1 386.4 80 358.7 80 328.4L80 233.3L32 286.1L32 383.9L0 383.9L0 273.7L4.2 269.1L84.2 181.1L89 175.9zM112 208L112 328.4C112 346.6 122.3 363.2 138.5 371.3L176 390L176 207.9L112 207.9zM97.8 472L106.8 444.9L135.7 459.4L127.2 485L126.2 487.9L124.2 490.3L36.2 594.3L25.9 606.5L1.5 585.8L11.8 573.6L97.8 472zM353.4 416L364.7 404.7L436.7 332.7L448 321.4L470.6 344C468.6 346 450 364.6 414.6 400L544 400C579.3 400 608 371.3 608 336C608 300.7 579.3 272 544 272L416 272L416 240L544 240C597 240 640 283 640 336C640 386.3 601.3 427.6 552 431.7L552 432L414.6 432C450 467.3 468.6 486 470.6 488L448 510.6L436.7 499.3L364.7 427.3L353.4 416z"/></svg>