<svg xmlns="http://www.w3.org/2000/svg" viewBox="0 0 640 640"><!--! Font Awesome Pro 7.2.0 by @fontawesome - https://fontawesome.com License - https://fontawesome.com/license (Commercial License) Copyright 2026 Fonticons, Inc. --><path fill="currentColor" d="M320.1 64C333.4 64 344.1 74.7 344.1 88C344.1 101.3 333.4 112 320.1 112C306.8 112 296.1 101.3 296.1 88C296.1 74.7 306.8 64 320.1 64zM320.1 144C351 144 376.1 118.9 376.1 88C376.1 57.1 351 32 320.1 32C289.2 32 264.1 57.1 264.1 88C264.1 118.9 289.2 144 320.1 144zM160.1 176L149.5 176L145.3 185.7L97.3 297.7L91 312.4L120.4 325L126.7 310.3L170.5 208L234.4 208L196.3 333.1C187.3 362.7 204 394 233.6 403L362 442.1L305.3 569.6L298.8 584.2L328 597.2L334.5 582.6L398.5 438.6L405.9 422.1L388.6 416.8L305 391.4L343.5 275.1C357.8 303.8 365.3 318.8 366 320.1L479.9 320.1L479.9 288.1L385.8 288.1L351.9 220.3C338.4 193.2 310.6 176.1 280.3 176.1L160.1 176zM227.1 342.4L268 208L280.5 208C298.6 208 315.2 218.2 323.4 234.4L274.5 381.9L242.9 372.3C230.2 368.4 223.1 355 226.9 342.4zM170.4 470.9L69.3 563.4L57.5 574.2L79.1 597.8L90.9 587L194.9 491.8L197.8 489.1L199.1 485.4L213 446.6C202.6 442.6 193.1 437.1 184.8 430.5L170.4 470.9zM480.1 544C480.1 526.3 494.4 512 512.1 512C529.8 512 544.1 526.3 544.1 544C544.1 561.7 529.8 576 512.1 576C494.4 576 480.1 561.7 480.1 544zM576.1 544C576.1 508.7 547.4 480 512.1 480C476.8 480 448.1 508.7 448.1 544C448.1 579.3 476.8 608 512.1 608C547.4 608 576.1 579.3 576.1 544z"/></svg>