<svg xmlns="http://www.w3.org/2000/svg" viewBox="0 0 640 640"><!--! Font Awesome Pro 7.2.0 by @fontawesome - https://fontawesome.com License - https://fontawesome.com/license (Commercial License) Copyright 2026 Fonticons, Inc. --><path fill="currentColor" d="M246.9 64L245.9 64.1L133.9 78.9L120 80.7L120 142.7L272 142.7L272 63.9L246.9 63.9zM240 97.2L240 110.8L152 110.8L152 108.9L240 97.2zM416 160.6C416 142.9 430.3 128.6 448 128.6C465.7 128.6 480 142.9 480 160.6C480 178.3 465.7 192.6 448 192.6C430.3 192.6 416 178.3 416 160.6zM512 160.6C512 125.3 483.3 96.6 448 96.6C412.7 96.6 384 125.3 384 160.6C384 195.9 412.7 224.6 448 224.6C483.3 224.6 512 195.9 512 160.6zM143.6 303.6L224.3 352L134.5 352L143.6 303.6zM244.7 326.9L179.7 288L237.4 288L244.7 326.9zM128 160.6C128 195.9 156.7 224.5 192 224.5C227.3 224.5 256 195.9 256 160.6L224 160.6C224 178.2 209.7 192.5 192 192.5C174.3 192.5 160 178.2 160 160.6L128 160.6zM218.5 428.2L206.5 417.7L185.4 441.8C190.1 445.9 204.8 458.7 229.3 480.2L63.9 480.2L63.9 512.2L229.3 512.2C204.7 533.7 190.1 546.5 185.4 550.6L206.5 574.7L218.5 564.2C269.5 519.6 295.5 497 296.3 496.2L282.5 484.2L218.5 428.3zM421.4 428.2L357.4 484.1L343.6 496.1C344.4 496.8 370.4 519.5 421.4 564.1L433.4 574.6L454.5 550.5C449.8 546.4 435.1 533.6 410.6 512.1L576 512.1L576 480.1L410.6 480.1C435.2 458.6 449.8 445.8 454.5 441.7L433.4 417.6L421.4 428.1zM402.6 288L493.5 288L505.5 352L390.6 352L402.6 288zM520 256L376 256L352 384L544 384L520 256zM120 256L96 384L288 384L264 256L120 256z"/></svg>