<svg xmlns="http://www.w3.org/2000/svg" viewBox="0 0 640 640"><!--! Font Awesome Pro 7.2.0 by @fontawesome - https://fontawesome.com License - https://fontawesome.com/license (Commercial License) Copyright 2026 Fonticons, Inc. --><path fill="currentColor" d="M128 64C141.3 64 152 74.7 152 88C152 101.3 141.3 112 128 112C114.7 112 104 101.3 104 88C104 74.7 114.7 64 128 64zM128 144C158.9 144 184 118.9 184 88C184 57.1 158.9 32 128 32C97.1 32 72 57.1 72 88C72 118.9 97.1 144 128 144zM80 176L64 176L64 376L70.4 380.8L192 472L192 608L224 608L224 456L217.6 451.2L176 420L176 267.4L209.4 342.5L213.6 352L320 352L320 320L234.4 320L174.6 185.5L170.4 176L80 176zM144 208L144 396L96 360L96 208L144 208zM64 592L64 608L96 608L96 460L67.2 438.4C66.1 437.6 65.1 436.8 64 435.9L64 592zM288 64L288 256L320 256L320 148L416 304L388.9 480L384 512L576 512L576 608L608 608L608 64L288 64zM443.3 287.2L325.6 96L576 96L576 480L421.3 480L447.6 308.9L449.4 297.3L443.2 287.3zM320 400L288 400L288 608L320 608L320 400z"/></svg>