<svg xmlns="http://www.w3.org/2000/svg" viewBox="0 0 640 640"><!--! Font Awesome Pro 7.2.0 by @fontawesome - https://fontawesome.com License - https://fontawesome.com/license (Commercial License) Copyright 2026 Fonticons, Inc. --><path fill="currentColor" d="M507.7 409.7L498 430.1C509 441.1 519 451.1 528 460.1L528 528L460.1 528C451.1 519 441.1 509 430.1 498L409.7 507.8C382.6 520.8 352.2 528.1 320 528.1C287.8 528.1 257.5 520.8 230.3 507.8L209.9 498C198.9 509 188.9 519 179.9 528L112 528L112 460.1C121 451.1 131 441.1 142 430.1L132.2 409.7C119.3 382.6 112 352.2 112 320C112 287.8 119.3 257.5 132.3 230.3L142.1 209.9L112.1 179.9L112.1 112L180 112C189 121 199 131 210 142L230.4 132.2C257.5 119.3 287.8 112 320 112C352.2 112 382.6 119.3 409.7 132.3L430.1 142C441.1 131 451.1 121 460.1 112L528 112L528 179.9C519 188.9 509 198.9 498 209.9L507.8 230.3C520.8 257.4 528.1 287.8 528.1 320C528.1 352.2 520.8 382.6 507.8 409.7zM560 528L560 446.9L536.6 423.5C551.6 392.2 560 357.1 560 320C560 282.9 551.6 247.9 536.6 216.5L560 193.1L560 80L446.9 80L423.5 103.4C392.1 88.4 357.1 80 320 80C282.9 80 247.9 88.4 216.5 103.4L193.1 80L80 80L80 193.1L103.4 216.5C88.4 247.9 80 282.9 80 320C80 357.1 88.4 392.1 103.4 423.5L80 446.9L80 560L193.1 560L216.5 536.6C247.8 551.6 282.9 560 320 560C357.1 560 392.1 551.6 423.5 536.6L446.9 560L560 560L560 528zM192 320C192 249.3 249.3 192 320 192C390.7 192 448 249.3 448 320C448 390.7 390.7 448 320 448C249.3 448 192 390.7 192 320zM480 320C480 231.6 408.4 160 320 160C231.6 160 160 231.6 160 320C160 408.4 231.6 480 320 480C408.4 480 480 408.4 480 320z"/></svg>