<svg xmlns="http://www.w3.org/2000/svg" viewBox="0 0 640 640"><!--! Font Awesome Pro 7.2.0 by @fontawesome - https://fontawesome.com License - https://fontawesome.com/license (Commercial License) Copyright 2026 Fonticons, Inc. --><path fill="currentColor" d="M96 160L96 192L544 192L544 160L576 160L576 308C566 300.8 555.3 294.6 544 289.4L544 224L96 224L96 416L278 416C275.3 426.4 273.5 437 272.6 448L95.9 448L95.9 480L63.9 480L63.9 160L95.9 160zM464 576C525.9 576 576 525.9 576 464C576 402.1 525.9 352 464 352C402.1 352 352 402.1 352 464C352 525.9 402.1 576 464 576zM464 320C543.5 320 608 384.5 608 464C608 543.5 543.5 608 464 608C384.5 608 320 543.5 320 464C320 384.5 384.5 320 464 320zM534.4 412.5L525 425.4L461 513.4L450 528.5C445.6 524.1 427.9 506.4 396.8 475.3L385.4 464L408 441.4C413 446.4 425.7 459.1 446.1 479.5L499.1 406.6L508.5 393.7L534.4 412.5z"/></svg>