<svg xmlns="http://www.w3.org/2000/svg" viewBox="0 0 640 640"><!--! Font Awesome Pro 7.2.0 by @fontawesome - https://fontawesome.com License - https://fontawesome.com/license (Commercial License) Copyright 2026 Fonticons, Inc. --><path fill="currentColor" d="M280 80L268.7 80L264.9 90.6L231.1 185.1C218.8 179.2 205.6 175.9 191.9 175.9C121.2 175.9 63.9 261.9 63.9 367.9C63.9 473.9 121.3 560 192 560C215.3 560 237.2 550.6 256 534.3C274.8 550.6 296.7 560 320 560C343.3 560 365.2 550.6 384 534.3C402.8 550.6 424.7 560 448 560C518.7 560 576 474 576 368C576 262 518.7 176 448 176C434.3 176 421.2 179.2 408.8 185.2L375.1 90.6L371.3 80L280 80zM379.4 197.9C361.6 183.9 341.4 176 320 176C298.6 176 278.4 183.9 260.6 197.9L291.3 112L348.7 112L379.4 197.9zM277 510.1L256 491.9L235 510.1C220.9 522.3 206.3 528 192 528C170.7 528 147.5 515 128.1 486C108.9 457.2 96 415.6 96 368C96 320.4 108.9 278.8 128.1 250C147.4 221 170.7 208 192 208C206.3 208 220.9 213.6 235 225.9L256 244.1L277 225.9C291.1 213.7 305.7 208 320 208C334.3 208 348.9 213.6 363 225.9L384 244.1L405 225.9C419.1 213.7 433.7 208 448 208C469.3 208 492.5 221 511.9 250C531.1 278.8 544 320.4 544 368C544 415.6 531.1 457.2 511.9 486C492.5 515 469.3 528 448 528C433.7 528 419.1 522.4 405 510.1L384 491.9L363 510.1C348.9 522.3 334.3 528 320 528C305.7 528 291.1 522.4 277 510.1z"/></svg>