<svg xmlns="http://www.w3.org/2000/svg" viewBox="0 0 640 640"><!--! Font Awesome Pro 7.2.0 by @fontawesome - https://fontawesome.com License - https://fontawesome.com/license (Commercial License) Copyright 2026 Fonticons, Inc. --><path fill="currentColor" d="M272 96L272 192L368 192L368 96L272 96zM240 192L240 64L400 64L400 112L480 112L480 144L400 144L400 192L480 192L480 576L160 576L160 192L240 192zM400 224L192 224L192 544L448 544L448 224L400 224zM288 288L368 288L368 336L416 336L416 432L368 432L368 480L272 480L272 432L224 432L224 336L272 336L272 288L288 288zM304 368L256 368L256 400L304 400L304 448L336 448L336 400L384 400L384 368L336 368L336 320L304 320L304 368z"/></svg>