<svg xmlns="http://www.w3.org/2000/svg" viewBox="0 0 640 640"><!--! Font Awesome Pro 7.2.0 by @fontawesome - https://fontawesome.com License - https://fontawesome.com/license (Commercial License) Copyright 2026 Fonticons, Inc. --><path fill="currentColor" d="M368 64L352 64L352 152L400 152C408.8 152 416 159.2 416 168C416 176.8 408.8 184 400 184L352 184L352 272L416 272C416 298.5 437.5 320 464 320C490.5 320 512 298.5 512 272L576 272L576 64L368 64zM384 120L384 96L544 96L544 240L480 240L480 272C480 280.8 472.8 288 464 288C455.2 288 448 280.8 448 272L448 240L384 240L384 216L400 216C426.5 216 448 194.5 448 168C448 141.5 426.5 120 400 120L384 120zM80 128L64 128L64 576L512 576L512 336L400 336L400 384C400 392.8 392.8 400 384 400C375.2 400 368 392.8 368 384L368 336L304 336L304 128L80 128zM272 160L272 336L240 336L240 320C240 293.5 218.5 272 192 272C165.5 272 144 293.5 144 320L144 336L96 336L96 160L272 160zM160 368L176 368L176 320C176 311.2 183.2 304 192 304C200.8 304 208 311.2 208 320L208 368L272 368L272 400L256 400C229.5 400 208 421.5 208 448C208 474.5 229.5 496 256 496L272 496L272 544L96 544L96 368L160 368zM304 480L304 464L256 464C247.2 464 240 456.8 240 448C240 439.2 247.2 432 256 432L304 432L304 368L336 368L336 384C336 410.5 357.5 432 384 432C410.5 432 432 410.5 432 384L432 368L480 368L480 544L304 544L304 480z"/></svg>