<svg xmlns="http://www.w3.org/2000/svg" viewBox="0 0 640 640"><!--! Font Awesome Pro 7.2.0 by @fontawesome - https://fontawesome.com License - https://fontawesome.com/license (Commercial License) Copyright 2026 Fonticons, Inc. --><path fill="currentColor" d="M544 160L544 480L96 480L96 160L544 160zM96 128L64 128L64 512L576 512L576 128L96 128zM345.4 240L356.7 251.3L425.4 320L356.7 388.7L345.4 400L368 422.6L379.3 411.3L459.3 331.3L470.6 320L459.3 308.7L379.3 228.7L368 217.4L345.4 240zM283.3 251.3L294.6 240L272 217.4L260.7 228.7L180.7 308.7L169.4 320L180.7 331.3L260.7 411.3L272 422.6L294.6 400L283.3 388.7L214.6 320L283.3 251.3z"/></svg>