<svg xmlns="http://www.w3.org/2000/svg" viewBox="0 0 640 640"><!--! Font Awesome Pro 7.2.0 by @fontawesome - https://fontawesome.com License - https://fontawesome.com/license (Commercial License) Copyright 2026 Fonticons, Inc. --><path fill="currentColor" d="M464.3 64C526.2 64 576.3 114.1 576.3 176C576.3 237.9 526.2 288 464.3 288C402.4 288 352.3 237.9 352.3 176C352.3 114.1 402.4 64 464.3 64zM464.3 320C543.8 320 608.3 255.5 608.3 176C608.3 96.5 543.8 32 464.3 32C384.8 32 320.3 96.5 320.3 176C320.3 255.5 384.8 320 464.3 320zM480.3 96L448.3 96L448.3 192L528.3 192L528.3 160L480.3 160L480.3 96zM544.3 400C544.3 383.8 542.1 368.2 538 353.3C523.4 359.4 507.9 363.7 491.7 366C494.7 376.8 496.3 388.2 496.3 399.9C496.3 416.9 493.2 431.9 488.1 445.3C477.1 412.2 455.5 383.9 427.4 364.4C403.4 359.7 381 350.6 361 337.8C352.9 336.5 344.7 335.9 336.3 335.9L208.3 335.9L208.3 412L88.2 303.9L208.3 195.8L208.3 271.9L298 271.9C289.4 257 282.7 240.9 278.4 223.9L256.4 223.9L256.4 88C242.4 100.6 174.4 161.8 52.4 271.6L16.5 304C20.4 307.5 84.4 365.1 208.3 476.7L256.3 519.9L256.3 384L336.3 384C398.2 384 448.3 434.1 448.3 496C448.3 497.4 448.3 498.9 448.2 500.3C446.4 545.9 416.3 576 416.3 576C416.3 576 458.1 560.3 494 523C520.9 495 544.3 454.9 544.3 400z"/></svg>