<svg xmlns="http://www.w3.org/2000/svg" viewBox="0 0 640 640"><!--! Font Awesome Pro 7.2.0 by @fontawesome - https://fontawesome.com License - https://fontawesome.com/license (Commercial License) Copyright 2026 Fonticons, Inc. --><path fill="currentColor" d="M96 128C96 110.3 110.3 96 128 96C145.7 96 160 110.3 160 128C160 145.7 145.7 160 128 160C110.3 160 96 145.7 96 128zM192 128C192 92.7 163.3 64 128 64C92.7 64 64 92.7 64 128C64 163.3 92.7 192 128 192C163.3 192 192 163.3 192 128zM64 256L192 256L192 384L64 384L64 256zM32 224L32 416L64 416L64 576L96 576L96 416L160 416L160 576L192 576L192 416L224 416L224 224L32 224zM336 64L304 64L304 576L336 576L336 64zM512 96C529.7 96 544 110.3 544 128C544 145.7 529.7 160 512 160C494.3 160 480 145.7 480 128C480 110.3 494.3 96 512 96zM512 192C547.3 192 576 163.3 576 128C576 92.7 547.3 64 512 64C476.7 64 448 92.7 448 128C448 163.3 476.7 192 512 192zM472.1 256L551.8 256L597.5 416L426.3 416L472 256zM576 224L448 224L393.1 416L384 448L448 448L448 576L480 576L480 448L544 448L544 576L576 576L576 448L640 448L630.9 416L576 224z"/></svg>