<svg xmlns="http://www.w3.org/2000/svg" viewBox="0 0 640 640"><!--! Font Awesome Pro 7.2.0 by @fontawesome - https://fontawesome.com License - https://fontawesome.com/license (Commercial License) Copyright 2026 Fonticons, Inc. --><path fill="currentColor" d="M144.1 144C157.4 144 168.1 133.3 168.1 120C168.1 106.7 157.4 96 144.1 96C130.8 96 120.1 106.7 120.1 120C120.1 133.3 130.8 144 144.1 144zM144.1 64C175 64 200.1 89.1 200.1 120C200.1 150.9 175 176 144.1 176C113.2 176 88.1 150.9 88.1 120C88.1 89.1 113.2 64 144.1 64zM83 192L205.3 192L209.7 201.1L278.6 345.1L285.5 359.5L256.6 373.3L249.7 358.9L208.1 272.1L208.1 576L176.1 576L176.1 416L112.1 416L112.1 576L80.1 576L80.1 272.1L38.5 358.9L31.6 373.3L2.7 359.5L9.6 345.1L78.5 201.1L82.9 192zM112.2 384L176.2 384L176.2 224L112.2 224L112.2 384zM496.2 144C509.5 144 520.2 133.3 520.2 120C520.2 106.7 509.5 96 496.2 96C482.9 96 472.2 106.7 472.2 120C472.2 133.3 482.9 144 496.2 144zM496.2 64C527.1 64 552.2 89.1 552.2 120C552.2 150.9 527.1 176 496.2 176C465.3 176 440.2 150.9 440.2 120C440.2 89.1 465.3 64 496.2 64zM469.6 312.8L462.4 327.1L410 431.9L582.2 431.9L529.8 327.1L522.6 312.8L551.2 298.5L558.4 312.8L622.4 440.8L634 464L560.1 464L560.1 576L528.1 576L528.1 464L464.1 464L464.1 576L432.1 576L432.1 464L358.2 464L369.8 440.8L433.8 312.8L441 298.5L469.6 312.8zM445 192L556.7 192L561.2 200.5L638.1 344.5L609.9 359.6L537.5 224.1L454.5 224.1L382.1 359.6L353.9 344.5L430.8 200.5L435.3 192L444.9 192zM336.1 80L336.1 576L304.1 576L304.1 64L336.1 64L336.1 80z"/></svg>