<svg xmlns="http://www.w3.org/2000/svg" viewBox="0 0 640 640"><!--! Font Awesome Pro 7.2.0 by @fontawesome - https://fontawesome.com License - https://fontawesome.com/license (Commercial License) Copyright 2026 Fonticons, Inc. --><path fill="currentColor" d="M384.3 40.1L411 64.1L610.9 244L624.1 255.9L610.9 267.8L411 447.7L384.3 471.7L384.3 335.8L224.3 335.8L224.3 239.8L64.3 383.8L224.3 527.8L224.3 431.8L320.3 431.8L320.3 463.8L256.3 463.8L256.3 599.7L229.6 575.7L29.7 395.8L16.5 383.9L29.7 372L229.6 192.1L256.3 168.1L256.3 304L416.3 304L416.3 400L576.3 256L416.3 112L416.3 208L320.3 208L320.3 176L384.3 176L384.3 40.1z"/></svg>