<svg xmlns="http://www.w3.org/2000/svg" viewBox="0 0 640 640"><!--! Font Awesome Pro 7.2.0 by @fontawesome - https://fontawesome.com License - https://fontawesome.com/license (Commercial License) Copyright 2026 Fonticons, Inc. --><path fill="currentColor" d="M194.8 128L104.4 512L310 512C312.9 523.1 316.7 533.8 321.4 544L64 544L71.5 512L169.4 96L470.6 96L512.2 272.7C501.7 271.8 490.4 271.8 479.3 272.7L445.2 128L336 128L336 208L304 208L304 128L194.8 128zM329.7 368L304 368L304 272L336 272L336 357.8C333.8 361.1 331.7 364.5 329.7 368zM608 464C608 402.1 557.9 352 496 352C434.1 352 384 402.1 384 464C384 525.9 434.1 576 496 576C557.9 576 608 525.9 608 464zM352 464C352 384.5 416.5 320 496 320C575.5 320 640 384.5 640 464C640 543.5 575.5 608 496 608C416.5 608 352 543.5 352 464zM512 544L480 544L480 512L512 512L512 544zM512 384L512 480L480 480L480 384L512 384z"/></svg>