<svg xmlns="http://www.w3.org/2000/svg" viewBox="0 0 640 640"><!--! Font Awesome Pro 7.2.0 by @fontawesome - https://fontawesome.com License - https://fontawesome.com/license (Commercial License) Copyright 2026 Fonticons, Inc. --><path fill="currentColor" d="M64 220.4L160 374L160 384L64 384L64 220.4zM160 313.6L64 160L32 160L32 416L608 416L588 384L448 160L416 160L416 313.6L320 160L288 160L288 313.6L192 160L160 160L160 313.6zM416 374L416 384L320 384L320 220.4L416 374zM448 384L448 220.4L550.3 384L448 384zM288 374L288 384L192 384L192 220.4L288 374zM0 480L0 512L640 512L640 480L0 480z"/></svg>