<svg xmlns="http://www.w3.org/2000/svg" viewBox="0 0 640 640"><!--! Font Awesome Pro 7.2.0 by @fontawesome - https://fontawesome.com License - https://fontawesome.com/license (Commercial License) Copyright 2026 Fonticons, Inc. --><path fill="currentColor" d="M288 67.6L297.9 75.4L445.5 192L575.9 192L575.9 289.4C565.7 284.7 555 280.9 543.9 278L543.9 223.9L434.3 223.9L429.9 220.5L287.8 108.3L145.7 220.5L141.3 223.9L31.7 223.9L31.7 543.9L223.7 543.9L223.7 399.9L314.6 399.9C311 410.2 308.2 420.9 306.3 431.9L255.6 431.9L255.6 543.9L319.6 543.9L319.6 543.9L321 543.9C326.2 555.2 332.4 565.9 339.6 575.9L0 576L0 192L130.4 192L278.1 75.4L288 67.6zM144 464L96 464L96 416L144 416L144 464zM96 352L96 304L144 304L144 352L96 352zM288 288C305.7 288 320 273.7 320 256C320 238.3 305.7 224 288 224C270.3 224 256 238.3 256 256C256 273.7 270.3 288 288 288zM288 192C323.3 192 352 220.7 352 256C352 291.3 323.3 320 288 320C252.7 320 224 291.3 224 256C224 220.7 252.7 192 288 192zM496 576C557.9 576 608 525.9 608 464C608 402.1 557.9 352 496 352C434.1 352 384 402.1 384 464C384 525.9 434.1 576 496 576zM496 320C575.5 320 640 384.5 640 464C640 543.5 575.5 608 496 608C416.5 608 352 543.5 352 464C352 384.5 416.5 320 496 320zM566.4 412.5L557 425.4L493 513.4L482 528.5C477.6 524.1 459.9 506.4 428.8 475.3L417.4 464L440 441.4C445 446.4 457.7 459.1 478.1 479.5L531.1 406.6L540.5 393.7L566.4 412.5z"/></svg>