<svg xmlns="http://www.w3.org/2000/svg" viewBox="0 0 640 640"><!--! Font Awesome Pro 7.2.0 by @fontawesome - https://fontawesome.com License - https://fontawesome.com/license (Commercial License) Copyright 2026 Fonticons, Inc. --><path fill="currentColor" d="M544 128L96 128L96 240.1C93.8 240 91.6 240 89.3 240L64 240L64 96L576 96L576 544L368 544L368 518.7C368 516.5 368 514.2 367.9 512L544 512L544 128zM80 288C212.5 288 320 395.5 320 528L320 544L288 544L288 528C288 413.1 194.9 320 80 320L64 320L64 288L80 288zM96 480C113.7 480 128 494.3 128 512C128 529.7 113.7 544 96 544C78.3 544 64 529.7 64 512C64 494.3 78.3 480 96 480zM64 384L80 384C159.5 384 224 448.5 224 528L224 544L192 544L192 528C192 466.1 141.9 416 80 416L64 416L64 384z"/></svg>