<svg xmlns="http://www.w3.org/2000/svg" viewBox="0 0 640 640"><!--! Font Awesome Pro 7.2.0 by @fontawesome - https://fontawesome.com License - https://fontawesome.com/license (Commercial License) Copyright 2026 Fonticons, Inc. --><path fill="currentColor" d="M112.6 178.9L320 98.3L527.6 178.9C532.9 270 498.8 463.8 320 541.1C141.3 463.8 107.2 270 112.6 178.9zM559.6 177L558.3 156.5L539.1 149L331.6 68.5L320 64L308.5 68.5L101 149L81.8 156.5L80.6 177C77.7 226.9 85.5 303.3 117.9 377.9C150.6 453.2 208.9 527.9 307.3 570.5L320 576L332.7 570.5C431.1 527.9 489.4 453.2 522.1 377.9C554.5 303.2 562.3 226.9 559.4 177zM304 392L336 392L336 320L408 320L408 288L336 288L336 216L304 216L304 288L232 288L232 320L304 320L304 392z"/></svg>