<svg xmlns="http://www.w3.org/2000/svg" viewBox="0 0 640 640"><!--! Font Awesome Pro 7.2.0 by @fontawesome - https://fontawesome.com License - https://fontawesome.com/license (Commercial License) Copyright 2026 Fonticons, Inc. --><path fill="currentColor" d="M112.6 178.9L320 98.3L527.6 178.9C532.9 270 498.8 463.8 320 541.1C141.3 463.8 107.2 270 112.6 178.9zM559.6 177L558.3 156.5L539.1 149L331.6 68.5L320 64L308.5 68.5L101 149L81.8 156.5L80.6 177C77.7 226.9 85.5 303.3 117.9 377.9C150.6 453.2 208.9 527.9 307.3 570.5L320 576L332.7 570.5C431.1 527.9 489.4 453.2 522.1 377.9C554.5 303.2 562.3 226.9 559.4 177zM320 248C333.3 248 344 258.7 344 272C344 285.3 333.3 296 320 296C306.7 296 296 285.3 296 272C296 258.7 306.7 248 320 248zM376 272C376 241.1 350.9 216 320 216C289.1 216 264 241.1 264 272C264 297.4 280.9 318.8 304 325.7L304 416L336 416L336 325.7C359.1 318.8 376 297.4 376 272z"/></svg>