<svg xmlns="http://www.w3.org/2000/svg" viewBox="0 0 640 640"><!--! Font Awesome Pro 7.2.0 by @fontawesome - https://fontawesome.com License - https://fontawesome.com/license (Commercial License) Copyright 2026 Fonticons, Inc. --><path fill="currentColor" d="M452.4 489L573.4 534.8C601.7 524.2 619.1 517.7 625.4 515.3L636.6 545.3L621.6 550.9L578.9 566.9L573.3 569L567.6 566.9L446.6 521L325.6 566.9L319.9 569.1L314.2 566.9L193.2 521L72.2 566.9L66.5 569L60.9 566.9L18.2 550.9L3.2 545.3L14.4 515.3C20.7 517.7 38.1 524.2 66.4 534.8L187.5 489L193.2 486.8L198.9 489L319.9 534.8L440.9 489L446.6 486.8L452.3 489zM336.1 80L480.1 80L480.1 193.9L547.5 208.3L565.7 212.2L559.2 229.6L512.2 354.8L512.2 463.9L480.2 451.1L480.2 349L481.2 346.3L522.7 235.7L336.2 195.7L336.2 476.7L320.2 483.1L304.2 476.7L304.2 195.6L117.7 235.6L159.2 346.2L160.2 348.9L160.2 451L128.2 463.8L128.2 354.7L81.2 229.5L74.7 212.1L92.9 208.2L160.2 193.8L160.2 79.9L304.2 79.9L304.2 31.9L336.2 31.9L336.2 79.9zM192.1 187.1L316.8 160.4L320.1 159.7L323.4 160.4L448 187.1L448 112.1L192 112.1L192 187.2z"/></svg>