<svg xmlns="http://www.w3.org/2000/svg" viewBox="0 0 640 640"><!--! Font Awesome Pro 7.2.0 by @fontawesome - https://fontawesome.com License - https://fontawesome.com/license (Commercial License) Copyright 2026 Fonticons, Inc. --><path fill="currentColor" d="M224 64L192 64L192 188.6L129.4 329.5L128 332.6L128 576L512 576L512 332.6L510.6 329.5L448 188.6L448 64L416 64L416 128C416 181 373 224 320 224C267 224 224 181 224 128L224 64zM160 339.4L219 206.6C242.4 236.6 279 256 320 256C361 256 397.6 236.7 421 206.6L442.9 255.9L438.6 259L160 460.2L160 339.3zM160 499.7L169.4 492.9L456.2 285.8L480 339.4L480 544L160 544L160 499.7z"/></svg>