<svg xmlns="http://www.w3.org/2000/svg" viewBox="0 0 640 640"><!--! Font Awesome Pro 7.2.0 by @fontawesome - https://fontawesome.com License - https://fontawesome.com/license (Commercial License) Copyright 2026 Fonticons, Inc. --><path fill="currentColor" d="M186 64L454.3 64L458.9 68.1L618.9 212.1L630.3 222.4L620.4 234.2L540.4 330.2L530.7 341.9C527 339.1 510.1 326.5 480.1 304L480.1 576L160.1 576L160.1 304C130.1 326.5 113.3 339.1 109.5 341.9L99.8 330.2L19.8 234.2L9.9 222.4L21.3 212.1L181.3 68.1L185.9 64zM198.3 96L97 187.2L160.7 263.6C161.3 263.1 171.8 255.2 192.2 240L192.2 544L448.2 544L448.2 240C468.5 255.3 479 263.1 479.7 263.6L543.3 187.2L442 96L414.8 96C407.2 141.4 367.7 176 320.1 176C272.5 176 233 141.4 225.4 96L198.2 96zM505.3 282.8L525.6 298L586 225.5L567.1 208.5L505.2 282.7zM73.2 208.6L54.3 225.6L114.7 298.1L135 282.9L73.1 208.7zM320.2 144C350 144 375.1 123.6 382.2 96L258.2 96C265.3 123.6 290.4 144 320.2 144zM288.2 256L288.2 352L352.2 352L352.2 256L288.2 256zM256.2 224L384.2 224L384.2 384L256.2 384L256.2 224z"/></svg>