<svg xmlns="http://www.w3.org/2000/svg" viewBox="0 0 640 640"><!--! Font Awesome Pro 7.2.0 by @fontawesome - https://fontawesome.com License - https://fontawesome.com/license (Commercial License) Copyright 2026 Fonticons, Inc. --><path fill="currentColor" d="M360 128L116.3 320L544 320C544 192 432 128 360 128zM64 336L64 320.5L76.2 310.9L340.2 102.9L348.9 96L360 96C404.3 96 457.6 115.2 499.9 151.8C543.1 189.2 576 245.7 576 320L576 544L64 544L64 336zM96 416L544 416L544 352L96 352L96 416zM96 448L96 512L544 512L544 448L96 448z"/></svg>