<svg xmlns="http://www.w3.org/2000/svg" viewBox="0 0 640 640"><!--! Font Awesome Pro 7.2.0 by @fontawesome - https://fontawesome.com License - https://fontawesome.com/license (Commercial License) Copyright 2026 Fonticons, Inc. --><path fill="currentColor" d="M352 160L352 480L544 480L544 160L352 160zM336 128L576 128L576 512L64 512L64 128L336 128zM320 160L96 160L96 480L320 480L320 160zM496 208L496 240L400 240L400 208L496 208zM496 272L496 304L400 304L400 272L496 272zM496 336L496 368L400 368L400 336L496 336z"/></svg>