<svg xmlns="http://www.w3.org/2000/svg" viewBox="0 0 640 640"><!--! Font Awesome Pro 7.2.0 by @fontawesome - https://fontawesome.com License - https://fontawesome.com/license (Commercial License) Copyright 2026 Fonticons, Inc. --><path fill="currentColor" d="M400 64L432 64L432 107C432 147.3 448 186 476.5 214.5L497.5 235.5C517 255 528 281.4 528 309L528 352L496 352L496 309C496 289.9 488.4 271.6 474.9 258.1L453.9 237.1C419.4 202.6 400 155.8 400 107L400 64zM608 352L576 352L576 309C576 268.7 560 230 531.5 201.5L510.5 180.5C491 161 480 134.6 480 107L480 64L512 64L512 107C512 126.1 519.6 144.4 533.1 157.9L554.1 178.9C588.6 213.4 608 260.2 608 309L608 352zM64 448L64 544L320 544L320 448L64 448zM352 544L512 544L512 448L352 448L352 544zM32 416L544 416L544 576L32 576L32 416zM608 432L608 576L576 576L576 416L608 416L608 432z"/></svg>