<svg xmlns="http://www.w3.org/2000/svg" viewBox="0 0 640 640"><!--! Font Awesome Pro 7.2.0 by @fontawesome - https://fontawesome.com License - https://fontawesome.com/license (Commercial License) Copyright 2026 Fonticons, Inc. --><path fill="currentColor" d="M138 272C121.6 272 106.1 264.5 95.8 251.7L48 192L0 192L0 512L640 512L640 410C640 339.6 589.1 279.5 519.7 267.9L448 256L240 128L192 128L192 218L191.7 223.5C188.9 250.7 165.9 272 138 272zM138 304C185.5 304 224 265.5 224 218L224 160L230.9 160L331.5 221.9L281.4 272L304 294.6L359.5 239.1L410.7 270.6L377.3 304L399.9 326.6L439.5 287L442.7 287.5L514.4 299.4L524.4 301.5C564.8 312 595.5 344.1 605 383.9L32 383.9L32 223.9L32.6 223.9L70.8 271.6L74 275.3C90.3 293.4 113.5 303.9 138 303.9zM32 416L608 416L608 480L32 480L32 416z"/></svg>