<svg xmlns="http://www.w3.org/2000/svg" viewBox="0 0 640 640"><!--! Font Awesome Pro 7.2.0 by @fontawesome - https://fontawesome.com License - https://fontawesome.com/license (Commercial License) Copyright 2026 Fonticons, Inc. --><path fill="currentColor" d="M192 128L192 185.4C207.4 170 218 159.4 224 153.4L246.6 176C244.4 178.2 226.2 196.4 192 230.6L192 292.3L245.4 261.5C257.9 214.8 264.6 189.9 265.4 186.9L296.3 195.2C294.1 203.4 290.2 217.9 284.6 238.9C312.1 223 328.7 213.4 334.3 210.2L350.3 237.9C344.7 241.1 328.2 250.7 300.6 266.6C321.6 272.2 336.1 276.1 344.3 278.3L336 309.2C333 308.4 308.1 301.7 261.4 289.2L208 320L261.4 350.8C308.1 338.3 333 331.6 336 330.8L344.3 361.7C336.1 363.9 321.6 367.8 300.6 373.4C328.2 389.3 344.7 398.9 350.3 402.1L334.3 429.8C328.7 426.6 312.2 417 284.6 401.1C290.2 422.1 294.1 436.6 296.3 444.8L265.4 453.1C264.6 450.1 257.9 425.2 245.4 378.5L192 347.7L192 409.4C226.2 443.6 244.4 461.8 246.6 464L224 486.6C218 480.6 207.4 470 192 454.6L192 512L160 512L160 454.6C144.6 470 134 480.6 128 486.6L105.4 464C107.6 461.8 125.8 443.6 160 409.4L160 347.7L106.6 378.5C94.1 425.2 87.4 450.1 86.6 453.1L55.7 444.8C57.9 436.6 61.8 422.1 67.4 401.1C39.8 417 23.3 426.6 17.7 429.8L1.7 402.1C7.3 398.9 23.8 389.3 51.4 373.4C30.4 367.8 15.9 363.9 7.7 361.7L16 330.8C19 331.6 43.9 338.3 90.6 350.8L144 320L90.6 289.2C43.9 301.7 19 308.4 16 309.2L7.7 278.3C15.9 276.1 30.4 272.2 51.4 266.6C23.8 250.7 7.3 241.1 1.7 237.9L17.7 210.2C23.3 213.4 39.8 223 67.4 238.9C61.8 217.9 57.9 203.4 55.7 195.2L86.6 186.9C87.4 189.9 94.1 214.8 106.6 261.5L160 292.3L160 230.6C125.8 196.4 107.6 178.2 105.4 176L128 153.4C134 159.4 144.6 170 160 185.4L160 128L192 128zM480 512L480 480L560 480C586.5 480 608 458.5 608 432C608 405.5 586.5 384 560 384L384 384L384 352L560 352C604.2 352 640 387.8 640 432C640 476.2 604.2 512 560 512L480 512zM496 128L560 128C604.2 128 640 163.8 640 208C640 252.2 604.2 288 560 288L384 288L384 256L560 256C586.5 256 608 234.5 608 208C608 181.5 586.5 160 560 160L480 160L480 128L496 128z"/></svg>