<svg xmlns="http://www.w3.org/2000/svg" viewBox="0 0 640 640"><!--! Font Awesome Pro 7.2.0 by @fontawesome - https://fontawesome.com License - https://fontawesome.com/license (Commercial License) Copyright 2026 Fonticons, Inc. --><path fill="currentColor" d="M304 64L192 64L192 336L102.4 403.2C78.2 421.3 64 449.8 64 480C64 533 107 576 160 576C175.4 576 190.5 572.3 204 565.3C197.7 556.7 192.3 547.4 188 537.5C179.3 541.7 169.8 543.9 160 543.9C124.7 543.9 96 515.2 96 479.9C96 459.8 105.5 440.8 121.6 428.7L211.2 361.5L224 351.9L224 191.9L304 191.9L304 159.9L224 159.9L224 95.9L304 95.9L304 63.9zM384 192L512 192L512 416L358.4 531.2C347.3 539.5 333.8 544 320 544C284.7 544 256 515.3 256 480C256 459.9 265.5 440.9 281.6 428.8L371.2 361.6L384 352L384 192zM320 576C340.8 576 361 569.3 377.6 556.8L544 432L544 64L352 64L352 336L262.4 403.2C238.2 421.3 224 449.8 224 480C224 533 267 576 320 576zM384 160L384 96L512 96L512 160L384 160z"/></svg>