<svg xmlns="http://www.w3.org/2000/svg" viewBox="0 0 640 640"><!--! Font Awesome Pro 7.2.0 by @fontawesome - https://fontawesome.com License - https://fontawesome.com/license (Commercial License) Copyright 2026 Fonticons, Inc. --><path fill="currentColor" d="M203.3 539.3L192 550.6L180.7 539.3L84.7 443.3L73.4 432L96 409.4L107.3 420.7L176 489.4L176 96L208 96L208 489.4L276.7 420.7L288 409.4L310.6 432L299.3 443.3L203.3 539.3zM384 256L352 256L352 96L512 96L512 256L384 256zM480 224L480 128L384 128L384 224L480 224zM384 544L352 544L352 320L576 320L576 544L384 544zM384 512L544 512L544 352L384 352L384 512z"/></svg>