<svg xmlns="http://www.w3.org/2000/svg" viewBox="0 0 640 640"><!--! Font Awesome Pro 7.2.0 by @fontawesome - https://fontawesome.com License - https://fontawesome.com/license (Commercial License) Copyright 2026 Fonticons, Inc. --><path fill="currentColor" d="M292.8 203.3L304.1 214.6L326.7 192L203.4 68.7L192.1 57.4L180.8 68.7L68.8 180.7L57.5 192L80.1 214.6L91.4 203.3L176.1 118.6L176.1 576L208.1 576L208.1 118.6L292.8 203.3zM548.8 436.7L464.1 521.4L464.1 64L432.1 64L432.1 521.4L347.4 436.7L336.1 425.4L313.5 448L324.8 459.3L436.8 571.3L448.1 582.6L459.4 571.3L571.4 459.3L582.7 448L560.1 425.4L548.8 436.7z"/></svg>