<svg xmlns="http://www.w3.org/2000/svg" viewBox="0 0 640 640"><!--! Font Awesome Pro 7.2.0 by @fontawesome - https://fontawesome.com License - https://fontawesome.com/license (Commercial License) Copyright 2026 Fonticons, Inc. --><path fill="currentColor" d="M426.2 248.8C398 165.8 350.5 116.6 333.9 101.3C330.1 97.8 325.1 96.1 320 96.1C314.9 96.1 309.9 97.8 306.1 101.3C289.5 116.7 242 165.8 213.8 248.8C223.4 254.1 232.8 259.9 241.8 266.1C263.8 196.6 300.8 152 320 132.3C339.2 152 376.2 196.6 398.2 266.1C407.2 259.9 416.6 254.1 426.2 248.8zM32 256C32 266.8 32.6 277.5 33.8 288C47.3 410.5 145.3 518.4 266.6 540C281.1 542.6 296 544 311.1 544L329.1 544C344.2 544 359.1 542.6 373.6 540C494.8 518.3 592.8 410.5 606.4 288C607.6 277.5 608.2 266.8 608.2 256C605.3 256 602.5 256 599.6 256C591.8 256 584 255.9 576.2 256.2C495.5 258.7 423.3 295.3 373.7 352.1C350.5 378.6 332.2 409.5 320.2 443.4C308.2 409.5 289.9 378.6 266.7 352.1C217 295.4 144.9 258.8 64.2 256.2C56.4 256 48.6 256 40.8 256C37.9 256 35.1 256 32.2 256zM266.5 405.5C286 436.8 298.7 472.8 302.7 511.4C290.4 510.6 278.3 508.9 266.5 506.4C161.1 484 79.6 396.7 66 288.2C150.7 291.9 224.4 337.8 266.5 405.5zM373.4 405.5C415.5 337.8 489.2 291.9 573.9 288.2C560.3 396.6 478.8 484 373.4 506.4C361.6 508.9 349.5 510.6 337.2 511.4C341.1 472.8 353.9 436.8 373.4 405.5z"/></svg>