<svg xmlns="http://www.w3.org/2000/svg" viewBox="0 0 640 640"><!--! Font Awesome Pro 7.2.0 by @fontawesome - https://fontawesome.com License - https://fontawesome.com/license (Commercial License) Copyright 2026 Fonticons, Inc. --><path fill="currentColor" d="M178.4 69.8L191.6 72.3L321.2 96.6L450.8 72.3L464 69.8L468.7 82.4L517.5 212.4L598.6 309.7L607.1 319.9L598.6 330.1L517.5 427.4L468.7 557.4L464 570L450.8 567.5L321.2 543.2L191.6 567.5L178.4 570L173.7 557.4L124.9 427.4L43.8 330.1L35.3 319.9L43.8 309.7L124.9 212.4L173.7 82.4L178.4 69.8zM191.5 126.1L154 226.2L153 228.7L151.3 230.8L90.3 304L160.8 304L201.9 257.1L226.5 187.3L191.5 126.1zM219.1 110L253.3 169.9L321 189.5L387.9 170.1L422.1 110.2L324.2 128.6L321.3 129.2L318.4 128.6L219.2 110zM450.6 124.9L415.4 186.6L440.3 257.1L481.4 304L552.4 304L491.4 230.8L489.7 228.7L488.7 226.2L450.7 124.9zM552.2 336L481 336L440.2 382.7L415.9 454.4L450.6 515.1L488.6 413.8L489.6 411.3L491.3 409.2L552.3 336zM422.1 529.8L389.9 473.4L320.7 450.5L253.5 470L219.1 530.1L318.3 511.5L321.2 510.9L324.1 511.5L422 529.9zM191.5 513.9L226.5 452.7L201.9 382.8L161 336.1L90.3 336.1L151.3 409.3L153 411.4L154 413.9L191.5 514zM203.5 336L228 364L230 366.3L231 369.2L247.5 415.9L293.2 336L203.5 336zM276.3 430L316.6 418.3L321.4 416.9L326.1 418.5L366.2 431.8L320.8 352.3L276.4 430zM394.7 417.3L411 369.4L412 366.4L414.1 364L438.6 336L348.3 336L394.8 417.3zM438.7 304L414.1 275.8L412.1 273.5L411.1 270.6L394.4 223.3L348.3 304L438.8 304zM365.1 210L325.5 221.5L321 222.8L316.5 221.5L276.1 209.8L320.6 287.7L365 210zM247.4 224L231 270.6L230 273.5L228 275.8L203.4 304L293.2 304L247.5 224z"/></svg>