<svg xmlns="http://www.w3.org/2000/svg" viewBox="0 0 640 640"><!--! Font Awesome Pro 7.2.0 by @fontawesome - https://fontawesome.com License - https://fontawesome.com/license (Commercial License) Copyright 2026 Fonticons, Inc. --><path fill="currentColor" d="M112 80L528 80L528 120L560 120L560 216L528 216L528 272L560 272L560 368L528 368L528 424L560 424L560 520L528 520L528 560L112 560L112 520L80 520L80 424L112 424L112 368L80 368L80 272L112 272L112 216L80 216L80 120L112 120L112 80zM112 152L112 184L144 184L144 224L496 224L496 184L528 184L528 152L496 152L496 112L144 112L144 152L112 152zM496 256L144 256L144 304L112 304L112 336L144 336L144 384L496 384L496 336L528 336L528 304L496 304L496 256zM496 416L144 416L144 456L112 456L112 488L144 488L144 528L496 528L496 488L528 488L528 456L496 456L496 416z"/></svg>