<svg xmlns="http://www.w3.org/2000/svg" viewBox="0 0 640 640"><!--! Font Awesome Pro 7.2.0 by @fontawesome - https://fontawesome.com License - https://fontawesome.com/license (Commercial License) Copyright 2026 Fonticons, Inc. --><path fill="currentColor" d="M300 108L340 108L340 128C340 139 331 148 320 148C309 148 300 139 300 128L300 108zM268 76L268 128C268 156.7 291.3 180 320 180C348.7 180 372 156.7 372 128L372 76L268 76zM296 512L296 536L344 536L344 512C344 498.7 333.3 488 320 488C306.7 488 296 498.7 296 512zM512 296C498.7 296 488 306.7 488 320C488 333.3 498.7 344 512 344L536 344L536 296L512 296zM128 332L116 332L116 308L128 308C134.6 308 140 313.4 140 320C140 326.6 134.6 332 128 332zM128 276L84 276L84 364L128 364C152.3 364 172 344.3 172 320C172 295.7 152.3 276 128 276zM489.7 184.2L472.7 201.2C463.3 210.6 448.1 210.6 438.8 201.2C429.5 191.8 429.4 176.6 438.8 167.3L455.8 150.3L489.7 184.2zM478.4 127.7L455.8 105C439.8 121 426.6 134.2 416.2 144.6C394.3 166.5 394.3 201.9 416.2 223.8C438.1 245.7 473.5 245.7 495.4 223.8C505.8 213.4 519 200.2 535 184.2C521.8 171 502.9 152.1 478.4 127.6zM144.6 455.8C157.8 469 171 482.2 184.2 495.4L204 475.6C214.9 464.7 214.9 446.9 204 436C193.1 425.1 175.3 425.1 164.4 436L144.6 455.8zM465 465L482 448L465 431C455.6 421.6 440.4 421.6 431.1 431C421.8 440.4 421.7 455.6 431.1 464.9L448.1 481.9L465.1 464.9zM173 195.6L161.7 184.3L184.3 161.7L195.6 173C201.8 179.2 201.8 189.4 195.6 195.6C189.4 201.8 179.2 201.8 173 195.6zM218.3 150.3C212.6 144.6 201.3 133.3 184.4 116.4C150.5 150.3 127.8 173 116.5 184.3C133.5 201.3 144.8 212.6 150.4 218.2C169.1 236.9 199.5 236.9 218.3 218.2C237.1 199.5 237 169.1 218.3 150.3z"/></svg>