<svg xmlns="http://www.w3.org/2000/svg" viewBox="0 0 640 640"><!--! Font Awesome Pro 7.2.0 by @fontawesome - https://fontawesome.com License - https://fontawesome.com/license (Commercial License) Copyright 2026 Fonticons, Inc. --><path fill="currentColor" d="M128 128L128 512L512 512L512 128L128 128zM96 96L544 96L544 544L96 544L96 96zM288 192L288 281.8L362.9 256.8L378.1 251.7L388.2 282.1L373 287.2L287.9 315.6L287.9 416.1L415.9 416.1L415.9 448.1L255.9 448.1L255.9 326.3C236 332.9 221.9 337.6 213.8 340.3L203.7 309.9C210.2 307.7 227.6 301.9 255.9 292.5L255.9 192L287.9 192z"/></svg>