<svg xmlns="http://www.w3.org/2000/svg" viewBox="0 0 640 640"><!--! Font Awesome Pro 7.2.0 by @fontawesome - https://fontawesome.com License - https://fontawesome.com/license (Commercial License) Copyright 2026 Fonticons, Inc. --><path fill="currentColor" d="M128 128L128 512L512 512L512 128L128 128zM96 96L544 96L544 544L96 544L96 96zM385 265L384.6 265.4L362 288C376.4 302.4 392.9 318.9 411.4 337.4C413.3 339.3 420.8 346.8 434 360C408.6 385.4 408.5 385.5 382.7 411.3C380.8 413.2 373.3 420.7 360.1 433.9C326.8 400.6 296.7 370.5 288.1 361.9L265.5 384.5L265.1 384.9C263 387 249.3 400.7 224.1 425.9L224.1 224L426 224C400.8 249.2 387.2 262.8 385 265zM339.3 310.7L316.7 288C334 270.7 344.7 260 348.7 256L256 256L256 348.7C260 344.7 270.7 334 288 316.7C298.6 327.3 322.6 351.3 360 388.7L388.7 360L339.3 310.6z"/></svg>