<svg xmlns="http://www.w3.org/2000/svg" viewBox="0 0 640 640"><!--! Font Awesome Pro 7.2.0 by @fontawesome - https://fontawesome.com License - https://fontawesome.com/license (Commercial License) Copyright 2026 Fonticons, Inc. --><path fill="currentColor" d="M128 128L128 512L512 512L512 128L128 128zM96 96L544 96L544 544L96 544L96 96zM272 240L272 336C272 362.5 293.5 384 320 384C346.5 384 368 362.5 368 336L368 224L400 224L400 336C400 380.2 364.2 416 320 416C275.8 416 240 380.2 240 336L240 224L272 224L272 240z"/></svg>