<svg xmlns="http://www.w3.org/2000/svg" viewBox="0 0 640 640"><!--! Font Awesome Pro 7.2.0 by @fontawesome - https://fontawesome.com License - https://fontawesome.com/license (Commercial License) Copyright 2026 Fonticons, Inc. --><path fill="currentColor" d="M80 96L176 96L176 128L96 128L96 208L64 208L64 96L80 96zM64 256L96 256L96 384L64 384L64 256zM64 432L96 432L96 512L278 512C280.9 523.1 284.7 533.8 289.4 544L64 544L64 432zM512 112L512 278C501.6 275.3 491 273.5 480 272.6L480 127.9L400 127.9L400 95.9L512 95.9L512 111.9zM352 128L224 128L224 96L352 96L352 128zM576 464C576 402.1 525.9 352 464 352C402.1 352 352 402.1 352 464C352 525.9 402.1 576 464 576C525.9 576 576 525.9 576 464zM320 464C320 384.5 384.5 320 464 320C543.5 320 608 384.5 608 464C608 543.5 543.5 608 464 608C384.5 608 320 543.5 320 464zM480 400L480 448L544 448L544 480L480 480L480 544L448 544L448 480L384 480L384 448L448 448L448 384L480 384L480 400z"/></svg>