<svg xmlns="http://www.w3.org/2000/svg" viewBox="0 0 640 640"><!--! Font Awesome Pro 7.2.0 by @fontawesome - https://fontawesome.com License - https://fontawesome.com/license (Commercial License) Copyright 2026 Fonticons, Inc. --><path fill="currentColor" d="M512 512L512 128L128 128L128 512L512 512zM544 544L96 544L96 96L544 96L544 544zM255 375L255.4 374.6L278 352C263.6 337.6 247.1 321.1 228.6 302.6L206.1 280C231.5 254.6 231.6 254.5 257.4 228.7L280 206.1C313.3 239.4 343.4 269.5 352 278.1L374.6 255.5L375 255.1C377.1 253 390.8 239.3 416 214.1L416 416L214.1 416C239.3 390.8 252.9 377.2 255.1 375zM300.7 329.3L323.3 352C306 369.3 295.3 380 291.3 384L384 384L384 291.3C380 295.3 369.3 306 352 323.3C341.4 312.7 317.4 288.7 280 251.3L251.3 280L300.7 329.4z"/></svg>