<svg xmlns="http://www.w3.org/2000/svg" viewBox="0 0 640 640"><!--! Font Awesome Pro 7.2.0 by @fontawesome - https://fontawesome.com License - https://fontawesome.com/license (Commercial License) Copyright 2026 Fonticons, Inc. --><path fill="currentColor" d="M128 128L128 512L512 512L512 128L128 128zM96 96L544 96L544 544L96 544L96 96zM304 160L336 160L336 192.9C371.6 197.1 402.7 216 423.2 243.2L397.6 262.4C380.1 239.1 352.2 224 320.8 224C267.8 224 224.8 267 224.8 320C224.8 373 267.8 416 320.8 416C352.2 416 380.1 400.9 397.6 377.6L423.2 396.8C402.7 424 371.6 442.9 336 447.1L336 480L304 480L304 446.9C241.2 438.7 192.8 385 192.8 320C192.8 255 241.2 201.3 304 193.1L304 160z"/></svg>