<svg xmlns="http://www.w3.org/2000/svg" viewBox="0 0 640 640"><!--! Font Awesome Pro 7.2.0 by @fontawesome - https://fontawesome.com License - https://fontawesome.com/license (Commercial License) Copyright 2026 Fonticons, Inc. --><path fill="currentColor" d="M128 128L128 512L512 512L512 128L128 128zM96 96L544 96L544 544L96 544L96 96zM343.8 223.9C352.1 204.6 371.1 192 392.1 192L432 192L432 224L392.1 224C383.9 224 376.4 228.9 373.2 236.5L351.1 288L416 288L416 320L337.4 320L296.2 416.1C287.9 435.4 268.9 448 247.9 448L208 448L208 416L247.9 416C256.1 416 263.6 411.1 266.8 403.5L302.6 320L224 320L224 288L316.3 288L343.8 223.9z"/></svg>