<svg xmlns="http://www.w3.org/2000/svg" viewBox="0 0 640 640"><!--! Font Awesome Pro 7.2.0 by @fontawesome - https://fontawesome.com License - https://fontawesome.com/license (Commercial License) Copyright 2026 Fonticons, Inc. --><path fill="currentColor" d="M512 128L512 512L128 512L128 128L512 128zM544 96L96 96L96 544L544 544L544 96zM255 265L255.4 265.4L278 288C263.6 302.4 247.1 318.9 228.6 337.4C226.7 339.3 219.2 346.8 206 360C231.4 385.4 231.5 385.5 257.3 411.3C259.2 413.2 266.7 420.7 279.9 433.9C313.2 400.6 343.3 370.5 351.9 361.9L374.5 384.5L374.9 384.9C377 387 390.7 400.7 415.9 425.9L415.9 224L214 224L255 265zM300.7 310.7L323.3 288C306 270.7 295.3 260 291.3 256L384 256L384 348.7C380 344.7 369.3 334 352 316.7C341.4 327.3 317.4 351.3 280 388.7L251.3 360L300.7 310.6z"/></svg>