<svg xmlns="http://www.w3.org/2000/svg" viewBox="0 0 640 640"><!--! Font Awesome Pro 7.2.0 by @fontawesome - https://fontawesome.com License - https://fontawesome.com/license (Commercial License) Copyright 2026 Fonticons, Inc. --><path fill="currentColor" d="M128 128L128 512L512 512L512 128L128 128zM96 96L544 96L544 544L96 544L96 96zM208 208L264 208C303.8 208 336 240.2 336 280C336 309.4 318.4 334.7 293.2 345.8C313.6 396.8 324.2 423.2 324.8 424.9L295.1 436.8C294.8 436.1 283.5 407.8 261.2 352L224 352L224 432L192 432L192 208L208 208zM264 320C286.1 320 304 302.1 304 280C304 257.9 286.1 240 264 240L224 240L224 320L264 320zM352 307.2C352 278.9 374.9 256 403.2 256L456 256L456 288L403.2 288C392.6 288 384 296.6 384 307.2C384 316.3 390.4 324.2 399.4 326L422.9 330.7C446.8 335.5 464 356.5 464 380.9C464 409.2 441.1 432.1 412.8 432.1L360 432.1L360 400.1L412.8 400.1C423.4 400.1 432 391.5 432 380.9C432 371.8 425.6 363.9 416.6 362.1L393.1 357.4C369.2 352.6 352 331.6 352 307.2z"/></svg>