<svg xmlns="http://www.w3.org/2000/svg" viewBox="0 0 640 640"><!--! Font Awesome Pro 7.2.0 by @fontawesome - https://fontawesome.com License - https://fontawesome.com/license (Commercial License) Copyright 2026 Fonticons, Inc. --><path fill="currentColor" d="M128 128L128 512L512 512L512 128L128 128zM96 96L544 96L544 544L96 544L96 96zM304 160L304 192L320 192L320 160L352 160L352 192.1C390.5 193.5 421.3 225.2 421.3 264C421.3 283.1 413.9 300.4 401.8 313.3C423.6 325.7 438.3 349.1 438.3 376C438.3 415.8 406.1 448 366.3 448L352.1 448L352.1 480L320.1 480L320.1 448L304.1 448L304.1 480L272.1 480L272.1 448L225.9 448L225.9 192L272.1 192L272.1 160L304.1 160zM352 416L366.2 416C388.3 416 406.2 398.1 406.2 376C406.2 353.9 388.3 336 366.2 336L257.7 336L257.7 416L351.9 416zM320 224L257.8 224L257.8 304L349.3 304C371.4 304 389.3 286.1 389.3 264C389.3 241.9 371.4 224 349.3 224L320 224z"/></svg>