<svg xmlns="http://www.w3.org/2000/svg" viewBox="0 0 640 640"><!--! Font Awesome Pro 7.2.0 by @fontawesome - https://fontawesome.com License - https://fontawesome.com/license (Commercial License) Copyright 2026 Fonticons, Inc. --><path fill="currentColor" d="M128 128L128 512L512 512L512 128L128 128zM96 96L544 96L544 544L96 544L96 96zM256 280C256 249.1 281.1 224 312 224L328 224C358.9 224 384 249.1 384 280C384 293.8 379 306.4 370.8 316.1C383.7 326.4 392 342.2 392 360C392 390.9 366.9 416 336 416L304 416C273.1 416 248 390.9 248 360C248 342.2 256.3 326.4 269.2 316.1C261 306.3 256 293.7 256 280zM352 280C352 266.7 341.3 256 328 256L312 256C298.7 256 288 266.7 288 280C288 293.3 298.7 304 312 304L328 304C341.3 304 352 293.3 352 280zM304 336C290.7 336 280 346.7 280 360C280 373.3 290.7 384 304 384L336 384C349.3 384 360 373.3 360 360C360 346.7 349.3 336 336 336L304 336z"/></svg>