<svg xmlns="http://www.w3.org/2000/svg" viewBox="0 0 640 640"><!--! Font Awesome Pro 7.2.0 by @fontawesome - https://fontawesome.com License - https://fontawesome.com/license (Commercial License) Copyright 2026 Fonticons, Inc. --><path fill="currentColor" d="M128 128L128 512L512 512L512 128L128 128zM96 96L544 96L544 544L96 544L96 96zM269.1 269.1C241 297.2 241 342.8 269.1 370.9C297.2 399 342.8 399 370.9 370.9L393.5 393.5C352.9 434.1 287 434.1 246.4 393.5C205.8 352.9 205.8 287 246.4 246.4C287 205.8 352.9 205.8 393.5 246.4L370.9 269C342.8 240.9 297.2 240.9 269.1 269z"/></svg>