<svg xmlns="http://www.w3.org/2000/svg" viewBox="0 0 640 640"><!--! Font Awesome Pro 7.2.0 by @fontawesome - https://fontawesome.com License - https://fontawesome.com/license (Commercial License) Copyright 2026 Fonticons, Inc. --><path fill="currentColor" d="M288.3 6.1C291.6 7.7 331.3 27.6 407.5 65.7L436.1 80C426.8 84.7 388.2 104 320.3 137.9L320.3 160C379.4 160 434.5 167 480.3 179.3L480.3 38.1C483.6 39.7 523.3 59.6 599.5 97.7L628.1 112C618.8 116.7 580.2 136 512.3 169.9L512.3 189.3C514.3 190 516.4 190.8 518.3 191.5C544 201.3 565.9 213.4 581.6 227.6C597.3 241.8 608.2 259.5 608.2 280L608.2 472C608.2 492.5 597.3 510.1 581.6 524.4C565.9 538.7 544 550.7 518.3 560.5C466.8 580.2 396.8 592 320.3 592C243.8 592 173.7 580.2 122.3 560.5C96.6 550.7 74.7 538.6 59 524.4C43.3 510.2 32.3 492.5 32.3 472L32.3 280C32.3 259.5 43.2 241.9 58.9 227.6C69 218.5 81.7 210.2 96.3 202.8L96.3 38C99.6 39.6 139.3 59.5 215.5 97.6L244.1 112C234.8 116.7 196.2 136 128.3 169.9L128.3 189.3C171.7 173.7 227.2 163.4 288.3 160.7L288.3 6.1zM512.3 134.1L556.5 112L512.3 89.9L512.3 134.1zM320.3 102.1L364.5 80L320.3 57.9L320.3 102.1zM128.3 121.4L128.3 134.1L172.5 112L128.3 89.9L128.3 121.4zM437.2 202.4C402.2 195.8 362.5 192.1 320.3 192.1C278.1 192.1 238.4 195.9 203.4 202.4L267.7 292.4C284.6 290.9 302.2 290 320.4 290C338.6 290 356.2 290.8 373.1 292.4L437.4 202.4zM471.1 210L409 296.9C421.8 299 434 301.6 445.3 304.5C473.3 311.8 498 322.1 514.7 335.4C534.4 327.2 549.7 318 560.1 308.6C571.9 297.9 576.2 288.3 576.2 280C576.2 271.7 571.9 262 560.1 251.4C548.3 240.8 530.4 230.4 506.8 221.4C495.9 217.2 483.9 213.4 471 210zM133.7 221.4C110.2 230.4 92.2 240.7 80.4 251.4C68.6 262.1 64.3 271.7 64.3 280L64.3 280C64.3 288.3 68.6 298 80.4 308.6C90.8 318 106.1 327.2 125.8 335.4C142.6 322.1 167.3 311.8 195.2 304.5C206.5 301.5 218.7 299 231.5 296.9L169.5 210C156.6 213.4 144.7 217.2 133.7 221.4zM518.3 368.5C466.8 388.2 396.8 400 320.3 400C243.8 400 173.7 388.2 122.3 368.5C99.4 359.8 79.5 349.2 64.3 336.9L64.3 472C64.3 480.3 68.6 490 80.4 500.6C92.2 511.2 110.1 521.6 133.7 530.6C162.8 541.7 199.3 550.4 240.3 555.3L240.3 432L400.3 432L400.3 555.3C441.3 550.3 477.8 541.7 506.9 530.6C530.4 521.6 548.4 511.3 560.2 500.6C572 489.9 576.3 480.3 576.3 472L576.3 336.9C561.1 349.2 541.2 359.7 518.3 368.5zM272.3 558.4C287.8 559.5 303.9 560.1 320.3 560.1C336.7 560.1 352.8 559.5 368.3 558.4L368.3 464.1L272.3 464.1L272.3 558.4zM320.3 368.1C378.7 368.1 432.3 360.9 475.4 349C465.2 344.2 452.4 339.6 437.2 335.6C405 327.2 364.5 322.1 320.2 322.1C275.9 322.1 235.4 327.2 203.2 335.6C188 339.6 175.3 344.2 165 349C208.1 360.9 261.7 368.1 320.1 368.1z"/></svg>