<svg xmlns="http://www.w3.org/2000/svg" viewBox="0 0 640 640"><!--! Font Awesome Pro 7.2.0 by @fontawesome - https://fontawesome.com License - https://fontawesome.com/license (Commercial License) Copyright 2026 Fonticons, Inc. --><path fill="currentColor" d="M448 608C395 608 352 565 352 512C352 459 395 416 448 416C501 416 544 459 544 512C544 565 501 608 448 608zM448 448C412.7 448 384 476.7 384 512C384 547.3 412.7 576 448 576C483.3 576 512 547.3 512 512C512 476.7 483.3 448 448 448zM372.3 64C484.8 64 576 155.2 576 267.7C576 314.1 560.1 358.8 531.4 394.7C522.6 388.4 513.1 383.1 503 378.9C529.3 348 544 308.6 544 267.7L543.8 258.9C539.3 171 468.9 100.7 381.2 96.2L372.4 96C329.7 96 288.7 111.9 257.2 140.4L251 146.3L177.9 219.3L358.1 399.5C349.7 406.2 342.2 413.8 335.5 422.1L155.3 241.9L128 269.2L128 338.7L197.2 408L109.2 496L144 530.7L232 442.7L301.2 512L304 512L304.2 519.4C304.6 527.8 305.8 536 307.6 544L288 544L232 488L144 576L64 496L152 408L96 352L96 256L228.4 123.7C266.6 85.5 318.3 64 372.3 64z"/></svg>