<svg xmlns="http://www.w3.org/2000/svg" viewBox="0 0 640 640"><!--! Font Awesome Pro 7.2.0 by @fontawesome - https://fontawesome.com License - https://fontawesome.com/license (Commercial License) Copyright 2026 Fonticons, Inc. --><path fill="currentColor" d="M512 128L512 224L128 224L128 128L512 128zM224 256L512 256L512 512L128 512L128 256L192 256L192 448L320 448L320 416L224 416L224 352L288 352L288 320L224 320L224 256zM128 96L96 96L96 544L544 544L544 96L128 96zM352 320L352 352L448 352L448 320L352 320zM384 416L384 448L448 448L448 416L384 416z"/></svg>