<svg xmlns="http://www.w3.org/2000/svg" viewBox="0 0 640 640"><!--! Font Awesome Pro 7.2.0 by @fontawesome - https://fontawesome.com License - https://fontawesome.com/license (Commercial License) Copyright 2026 Fonticons, Inc. --><path fill="currentColor" d="M205.4 120.9L214.3 107.6L187.7 89.8L178.8 103.1L125.6 182.9L80.1 137.4L57.5 160C58.9 161.4 78.7 181.2 116.8 219.3L130.6 233.1L141.4 216.9L205.4 120.9zM272.1 144L256.1 144L256.1 176L576.1 176L576.1 144L272.1 144zM272.1 304L256.1 304L256.1 336L576.1 336L576.1 304L272.1 304zM240.1 464L224.1 464L224.1 496L576.1 496L576.1 464L240.1 464zM120.1 456C106.8 456 96.1 466.7 96.1 480C96.1 493.3 106.8 504 120.1 504C133.4 504 144.1 493.3 144.1 480C144.1 466.7 133.4 456 120.1 456zM214.3 267.6L187.7 249.8L178.8 263.1L125.6 342.9L80.1 297.4L57.5 320C58.9 321.4 78.7 341.2 116.8 379.3L130.6 393.1L141.4 376.9L205.4 280.9L214.3 267.6z"/></svg>