<svg xmlns="http://www.w3.org/2000/svg" viewBox="0 0 640 640"><!--! Font Awesome Pro 7.2.0 by @fontawesome - https://fontawesome.com License - https://fontawesome.com/license (Commercial License) Copyright 2026 Fonticons, Inc. --><path fill="currentColor" d="M272.4 103L256.4 113.6C200.8 76.7 170.6 56.7 165.9 53.6C164.8 59.1 157.6 94.6 144.4 160C79 173.2 43.5 180.4 38 181.5C41.1 186.2 61.1 216.4 98 272C61.1 327.6 41.1 357.8 38 362.5C43.5 363.6 79 370.8 144.4 384C157.6 449.4 164.8 484.9 165.9 490.4C173.2 485.5 198.1 469 240.6 440.9C240.5 438 240.4 435 240.4 432C240.4 421.5 241.3 411.1 242.9 401L187.8 437.5L173.6 367.2L171.5 356.8L161.1 354.7L90.8 340.5L130.4 280.7L136.3 271.9L130.4 263.1L90.8 203.3L161.1 189.1L171.5 187L173.6 176.6L187.8 106.3L247.6 145.9L256.4 151.8C262.6 147.7 267.9 144.2 272.4 141.2L272.4 102.9zM272.4 193.6C267.2 192.6 261.9 192 256.4 192C212.2 192 176.4 227.8 176.4 272C176.4 316.2 212.2 352 256.4 352C256.9 352 257.4 352 257.8 352C262 342.9 266.9 334.1 272.4 325.9L272.4 317.3C267.4 319.1 262 320 256.4 320C229.9 320 208.4 298.5 208.4 272C208.4 245.5 229.9 224 256.4 224C262 224 267.4 225 272.4 226.7L272.4 193.6zM336.4 64L320.4 64L320.4 341.5C300.4 366.2 288.4 397.7 288.4 432C288.4 511.5 352.9 576 432.4 576C511.9 576 576.4 511.5 576.4 432C576.4 397.7 564.4 366.2 544.4 341.5L544.4 64L336.4 64zM352.4 176L352.4 96L512.4 96L512.4 353.4L516.4 357.9C533.8 377.7 544.4 403.6 544.4 432C544.4 493.9 494.3 544 432.4 544C370.5 544 320.4 493.9 320.4 432C320.4 403.6 331 377.7 348.4 357.9L352.4 353.4L352.4 176zM400.4 432C400.4 414.3 414.7 400 432.4 400C450.1 400 464.4 414.3 464.4 432C464.4 449.7 450.1 464 432.4 464C414.7 464 400.4 449.7 400.4 432zM496.4 432C496.4 402.2 476 377.1 448.4 370L448.4 160L416.4 160L416.4 370C388.8 377.1 368.4 402.2 368.4 432C368.4 467.3 397.1 496 432.4 496C467.7 496 496.4 467.3 496.4 432z"/></svg>