<svg xmlns="http://www.w3.org/2000/svg" viewBox="0 0 640 640"><!--! Font Awesome Pro 7.2.0 by @fontawesome - https://fontawesome.com License - https://fontawesome.com/license (Commercial License) Copyright 2026 Fonticons, Inc. --><path fill="currentColor" d="M443.4 436.7L432.1 425.4L409.5 448L420.8 459.3L500.8 539.3L512.1 550.6L523.4 539.3L603.4 459.3L614.7 448L592.1 425.4L580.8 436.7L528.1 489.4L528.1 150.7C570.1 192.7 591.5 214.1 592.1 214.7L614.7 192.1L603.4 180.8L523.4 100.8L512.1 89.5L500.8 100.8L420.8 180.8L409.5 192.1L432.1 214.7C432.7 214.1 454.1 192.7 496.1 150.7L496.1 489.4L443.4 436.7zM48.1 96L32.1 96L32.1 224L64.1 224L64.1 128L176.1 128L176.1 512L96.1 512L96.1 544L288.1 544L288.1 512L208.1 512L208.1 128L320.1 128L320.1 224L352.1 224L352.1 96L48.1 96z"/></svg>