<svg xmlns="http://www.w3.org/2000/svg" viewBox="0 0 640 640"><!--! Font Awesome Pro 7.2.0 by @fontawesome - https://fontawesome.com License - https://fontawesome.com/license (Commercial License) Copyright 2026 Fonticons, Inc. --><path fill="currentColor" d="M496 96L496 160L512 160L512 224L528 224L528 288L544 288L544 416L328.5 416C349.9 454 368.6 487.3 384.7 516L392.5 529.9L378.6 537.7L288 588.7L274.1 596.5C271.8 592.4 260.7 572.7 240.8 537.2L192 450.5L192 479.8L64 479.8L64 159.8L175.3 159.8L190.1 149.2L246.1 109.2L246.1 109.2C257.6 101 263.9 96.5 264.9 95.8L496 96zM275.2 128L264.7 135.5L264.7 135.5L208.7 175.5L191.9 187.5L191.9 385.5L196.5 393.7C253.6 495.1 283.4 548.3 286.2 553.1L349 517.7C341.6 504.6 321 468 287.2 407.8L273.8 384L512 384L512 320L496 320L496 256L480 256L480 192L464 192L464 128L275.2 128zM96 192L96 448L160 448L160 192L96 192z"/></svg>