<svg xmlns="http://www.w3.org/2000/svg" viewBox="0 0 640 640"><!--! Font Awesome Pro 7.2.0 by @fontawesome - https://fontawesome.com License - https://fontawesome.com/license (Commercial License) Copyright 2026 Fonticons, Inc. --><path fill="currentColor" d="M67.6 44.8L56.3 33.5L33.7 56.1L45 67.4L572.8 595.2L584.1 606.5L606.8 583.9L595.4 572.6L414.5 391.7L522.4 269.1C542.5 289.2 555.1 301.8 560.1 306.8L582.8 284.1L571.4 272.8L367.3 68.7L356 57.4L333.4 80C338.4 85 351 97.6 371.1 117.7L248.5 225.6L67.6 44.8zM271.1 248.3L393.7 140.4L499.7 246.4L391.8 369L271.1 248.3zM112.2 260C103.5 266.3 95.3 273.2 87.7 280.8L110.3 303.4L336.6 529.7L359.2 552.3C373.2 538.3 388.7 518.6 401.1 491.6L376.7 467.2C371.6 480.5 365 493.2 357 504.9L135.2 283C146.9 275 159.6 268.5 172.9 263.3L148.5 238.9C135.8 244.7 123.6 251.8 112.2 260zM68.8 548.7L57.5 560L80.1 582.6L91.4 571.3L200.9 461.8L178.3 439.2L68.8 548.7z"/></svg>