<svg xmlns="http://www.w3.org/2000/svg" viewBox="0 0 640 640"><!--! Font Awesome Pro 7.2.0 by @fontawesome - https://fontawesome.com License - https://fontawesome.com/license (Commercial License) Copyright 2026 Fonticons, Inc. --><path fill="currentColor" d="M288 51.3L378.6 102.3L392.5 110.1C387.5 119 339.6 204 328.4 224L543.9 224L543.9 352L527.9 352L527.9 416L511.9 416L511.9 480L495.9 480L495.9 544L264.8 544L260.6 541L246 530.6L246 530.6L191.9 491.9L191.9 544L63.9 544L63.9 224L172.4 224C292.1 11.4 261.8 65.3 274.1 43.4L288 51.3zM96 512L160 512L160 256L96 256L96 512zM268.6 118.4L196.6 246.4L192 254.6L192 452.6L208.8 464.6L264.8 504.6L264.8 504.6L275.3 512.1L464.1 512.1L464.1 448.1L480.1 448.1L480.1 384.1L496.1 384.1L496.1 320.1L512.1 320.1L512.1 256.1L273.9 256.1C277.7 249.3 296.9 215.2 331.5 153.8L349.2 122.4L286.5 87.1L268.8 118.5z"/></svg>