<svg xmlns="http://www.w3.org/2000/svg" viewBox="0 0 640 640"><!--! Font Awesome Pro 7.2.0 by @fontawesome - https://fontawesome.com License - https://fontawesome.com/license (Commercial License) Copyright 2026 Fonticons, Inc. --><path fill="currentColor" d="M113.5 113.2C16.1 132.9 49.1 126.2 23.5 131.4C37.2 152.1 49.5 170.6 74.3 208C19.4 290.8 38 262.7 23.5 284.6C48 289.6 69.4 293.9 112.4 302.6C112.5 291.6 114 281 116.7 270.8L76.4 262.6C94.9 234.8 106.9 216.6 112.6 208C106.9 199.4 94.8 181.2 76.4 153.4C109.1 146.8 130.5 142.4 140.6 140.4C142.6 130.3 147 108.9 153.6 76.2C181.4 94.7 199.6 106.7 208.2 112.4C216.8 106.7 235 94.6 262.8 76.2L264.8 86.2C274.8 83 285.3 80.9 296.2 80.3C288.7 43.4 287.6 37.9 284.7 23.2C264 36.9 245.5 49.2 208.1 74C125.3 19.1 153.4 37.7 131.5 23.2C126.6 47.5 122.2 69.3 113.3 113.2zM432.2 128C467.5 128 496.2 156.6 496.2 192L496.2 216L512.2 216C547.5 216 576.2 244.7 576.2 280L576.2 352L528.3 352L528.3 368.1L528.3 368.1L528.3 384L608.2 384L608.2 280C608.2 232.4 573.5 192.8 528 185.3C524.6 135.4 483 96 432.2 96C397.3 96 366.8 114.6 350 142.4C337 133.3 321.3 128 304.2 128C260 128 224.2 163.8 224.2 208L224.2 225.6C187.7 233 160.2 265.3 160.2 304L160.2 384L243 384L280.1 352L192.2 352L192.2 304C192.2 277.5 213.7 256 240.2 256L256.2 256L256.2 208C256.2 181.5 277.7 160 304.2 160C319.9 160 333.8 167.5 342.6 179.2L361.8 204.7L370.7 174.1C378.5 147.5 403.1 128.1 432.1 128.1zM409.1 304L256.3 435.9L256.3 480L319.3 480L294.1 592L327.5 592L480.3 460.1L480.3 416L417.3 416L442.4 304L409 304zM291.3 448L398.1 355.8L377.4 448L445.3 448L338.5 540.2L359.2 448L291.3 448z"/></svg>