<svg xmlns="http://www.w3.org/2000/svg" viewBox="0 0 640 640"><!--! Font Awesome Pro 7.2.0 by @fontawesome - https://fontawesome.com License - https://fontawesome.com/license (Commercial License) Copyright 2026 Fonticons, Inc. --><path fill="currentColor" d="M96 402.7L96 237.3L237.3 96L402.7 96L544 237.3L544 402.7L402.7 544L237.3 544L96 402.7zM224 64L64 224L64 416L224 576L416 576L576 416L576 224L416 64L224 64zM419.4 243.2L396.8 220.6L385.5 231.9L320 297.4L254.5 231.9L243.2 220.6L220.6 243.2L231.9 254.5L297.4 320L231.9 385.5L220.6 396.8L243.2 419.4L254.5 408.1L320 342.6L385.5 408.1L396.8 419.4L419.4 396.8L342.6 320L408.1 254.5L419.4 243.2z"/></svg>