<svg xmlns="http://www.w3.org/2000/svg" viewBox="0 0 640 640"><!--! Font Awesome Pro 7.2.0 by @fontawesome - https://fontawesome.com License - https://fontawesome.com/license (Commercial License) Copyright 2026 Fonticons, Inc. --><path fill="currentColor" d="M517.9 457.1L508.3 475.1C514.6 483.4 526.5 499.3 544 522.7L544 544L96 544L96 522.7C113.5 499.3 125.4 483.4 131.7 475.1L122.1 457.1C105.5 425.8 96 390.1 96 352C96 228.3 196.3 128 320 128C443.7 128 544 228.3 544 352C544 390.1 534.5 425.8 517.9 457.1zM576 544L576 512L546.1 472.1C565.2 436.3 576 395.4 576 352C576 210.6 461.4 96 320 96C178.6 96 64 210.6 64 352C64 395.4 74.8 436.3 93.9 472.1L64 512L64 576L576 576L576 544zM448 352C448 360.3 447.2 368.3 445.7 376.2L383.9 356C384 354.7 384 353.3 384 352C384 336.6 378.5 322.4 369.5 311.4L407.7 258.8C432.5 282.1 448 315.2 448 352zM373.9 386.4L435.8 406.5C417.5 445.3 380.2 473.4 336 478.9L336 413.9C351.9 409.8 365.4 399.8 374 386.3zM303.9 413.9L303.9 478.9C259.7 473.4 222.4 445.3 204.1 406.5L266 386.4C274.6 399.8 288.1 409.8 303.9 413.9zM192 352C192 315.2 207.5 282.1 232.3 258.7C254 288.6 266.8 306.2 270.5 311.3C261.4 322.3 256 336.5 256 351.9C256 353.3 256 354.6 256.1 355.9L194.3 376C192.8 368.2 192 360.1 192 351.8zM320 288C311.7 288 303.7 289.6 296.4 292.5C292.7 287.4 280 269.9 258.2 239.9C276.5 229.8 297.6 224 320 224C342.4 224 363.5 229.8 381.8 239.9L343.6 292.5C336.3 289.6 328.3 288 320 288zM480 352C480 263.6 408.4 192 320 192C231.6 192 160 263.6 160 352C160 440.4 231.6 512 320 512C408.4 512 480 440.4 480 352zM288 352C288 334.3 302.3 320 320 320C337.7 320 352 334.3 352 352C352 369.7 337.7 384 320 384C302.3 384 288 369.7 288 352z"/></svg>