<svg xmlns="http://www.w3.org/2000/svg" viewBox="0 0 640 640"><!--! Font Awesome Pro 7.2.0 by @fontawesome - https://fontawesome.com License - https://fontawesome.com/license (Commercial License) Copyright 2026 Fonticons, Inc. --><path fill="currentColor" d="M64 224C64 206.3 78.3 192 96 192L320 192C334.2 192 347.8 188.8 359.6 181.1C371.4 173.4 378.9 162.8 383.5 152.3C386.4 145.6 388.3 138.5 389.6 131.5C402.2 134.5 413.8 139.5 423.2 146.1C438.8 157 448 171.8 448 192C448 227.3 419.3 256 384 256L64 256L64 224zM392 99.3C381.4 97.1 370.6 96 360 96C360 126.8 357.7 160 320 160L96 160C60.7 160 32 188.7 32 224L32 288L384 288C437 288 480 245 480 192C480 139.5 438.4 108.8 392 99.3zM96 336L96 320L64 320L64 512L32 512L32 544L608 544L608 512L416 512L416 320L384 320L384 512L352 512L352 320L320 320L320 512L288 512L288 320L256 320L256 512L224 512L224 320L192 320L192 512L160 512L160 320L128 320L128 512L96 512L96 336z"/></svg>