<svg xmlns="http://www.w3.org/2000/svg" viewBox="0 0 640 640"><!--! Font Awesome Pro 7.2.0 by @fontawesome - https://fontawesome.com License - https://fontawesome.com/license (Commercial License) Copyright 2026 Fonticons, Inc. --><path fill="currentColor" d="M128 112L128 528L64 528L64 112L128 112zM160 560L160 528L480 528L480 560L608 560L608 80L480 80L480 112L160 112L160 80L32 80L32 560L160 560zM480 144L480 496L160 496L160 144L480 144zM512 528L512 112L576 112L576 528L512 528zM333.5 207.5L320 186C313.8 195.8 299.1 219.1 275.8 256L195 256C203.8 269.9 217.2 291.2 235.4 320C217.2 348.8 203.7 370.1 195 384L275.8 384C299.1 420.9 313.8 444.2 320 454C326.2 444.2 340.9 420.9 364.2 384L445 384C436.2 370.1 422.8 348.8 404.6 320C422.8 291.2 436.3 269.9 445 256L364.2 256L333.5 207.5zM298.1 280.6L319.9 246L341.7 280.6L346.4 288.1L386.8 288.1C375.4 306.2 368.6 316.9 366.6 320.1C368.6 323.3 375.4 334 386.8 352.1L346.4 352.1L341.7 359.6L319.9 394.2C302.5 366.6 293.6 352.6 293.4 352.2L253 352C264.4 333.9 271.2 323.2 273.2 320C271.2 316.8 264.4 306.1 253 288L293.4 288L298.1 280.5z"/></svg>