<svg xmlns="http://www.w3.org/2000/svg" viewBox="0 0 640 640"><!--! Font Awesome Pro 7.2.0 by @fontawesome - https://fontawesome.com License - https://fontawesome.com/license (Commercial License) Copyright 2026 Fonticons, Inc. --><path fill="currentColor" d="M195.5 176L215.5 96L248.5 96L228.5 176L411.5 176L391.5 96L424.5 96L444.5 176L512 176L512 208L452.5 208L476.5 304L544 304L544 336L484.5 336L508.5 432L576 432L576 464L516.5 464L536.5 544L503.5 544L483.5 464L156.5 464L136.5 544L103.5 544L123.5 464L64 464L64 432L131.5 432L155.5 336L96 336L96 304L163.5 304L187.5 208L128 208L128 176L195.5 176zM419.5 208L220.5 208L196.5 304L443.5 304L419.5 208zM451.5 336L188.5 336L164.5 432L475.5 432L451.5 336z"/></svg>