<svg xmlns="http://www.w3.org/2000/svg" viewBox="0 0 640 640"><!--! Font Awesome Pro 7.2.0 by @fontawesome - https://fontawesome.com License - https://fontawesome.com/license (Commercial License) Copyright 2026 Fonticons, Inc. --><path fill="currentColor" d="M448 128L448 320L368 320L368 240L272 240L272 320L192 320L192 128L448 128zM480 133.5C517.3 146.7 544 182.2 544 224L544 320L480 320L480 133.5zM544 352L544 512L480 512L480 352L544 352zM448 512L192 512L192 352L272 352L272 432L368 432L368 352L448 352L448 512zM160 512L96 512L96 352L160 352L160 512zM96 320L96 224C96 182.2 122.7 146.6 160 133.5L160 320L96 320zM192 96C121.3 96 64 153.3 64 224L64 544L576 544L576 224C576 153.3 518.7 96 448 96L192 96zM336 272L336 400L304 400L304 272L336 272z"/></svg>