<svg xmlns="http://www.w3.org/2000/svg" viewBox="0 0 640 640"><!--! Font Awesome Pro 7.2.0 by @fontawesome - https://fontawesome.com License - https://fontawesome.com/license (Commercial License) Copyright 2026 Fonticons, Inc. --><path fill="currentColor" d="M368.3 96L352.3 96L352.3 452.1L43.7 544.7L28.4 549.3L37.6 580L52.9 575.4L370.7 480.1L432.7 480.1C432.5 482.7 432.3 485.4 432.3 488.1C432.3 536.7 471.7 576.1 520.3 576.1C568.9 576.1 608.3 536.7 608.3 488.1C608.3 439.5 568.9 400.1 520.3 400.1C486.1 400.1 456.5 419.6 441.9 448.1L384.3 448.1L384.3 128.1L608.3 128.1L608.3 96.1L368.3 96.1zM464.3 488C464.3 457.1 489.4 432 520.3 432C551.2 432 576.3 457.1 576.3 488C576.3 518.9 551.2 544 520.3 544C489.4 544 464.3 518.9 464.3 488zM63 253.4L216 206.6L262.8 359.6L109.8 406.4L63 253.4zM23 232.2L32.4 262.8L79.2 415.8L88.6 446.4L119.2 437L272.2 390.2L302.8 380.8L293.4 350.2L246.6 197.2L237.2 166.6L206.6 176L53.6 222.8L23 232.2z"/></svg>