<svg xmlns="http://www.w3.org/2000/svg" viewBox="0 0 640 640"><!--! Font Awesome Pro 7.2.0 by @fontawesome - https://fontawesome.com License - https://fontawesome.com/license (Commercial License) Copyright 2026 Fonticons, Inc. --><path fill="currentColor" d="M416 128L416 409.6C389.8 423 371.1 449.2 368.4 480L271.7 480C267.7 435.1 230 400 184.1 400C138.2 400 100.5 435.1 96.5 480L64 480L64 128L416 128zM448 400.4L448 352L576 352L576 480L543.6 480C539.6 435.1 501.9 400 456 400C453.3 400 450.6 400.1 448 400.4zM576 278.6L576 320L448 320L448 224L521.4 224L576 278.6zM64 512L99.3 512C109.7 548.9 143.7 576 184 576C224.3 576 258.2 548.9 268.7 512L371.3 512C381.7 548.9 415.7 576 456 576C496.3 576 530.2 548.9 540.7 512L608 512L608 265.4L603.3 260.7L539.3 196.7L534.6 192L448 192L448 96L32 96L32 512L64 512zM128 488C128 457.1 153.1 432 184 432C214.9 432 240 457.1 240 488C240 518.9 214.9 544 184 544C153.1 544 128 518.9 128 488zM400 488C400 457.1 425.1 432 456 432C486.9 432 512 457.1 512 488C512 518.9 486.9 544 456 544C425.1 544 400 518.9 400 488zM280 296C280 312.4 274.7 321.4 269.2 326.5C263.3 332 253.6 336 240 336C217.9 336 200 318.1 200 296C200 291.3 202 283 207.9 271.3C213.5 260.1 221.3 248.3 229.6 237.2C233.1 232.5 236.6 228.1 240 224C243.4 228.1 246.9 232.5 250.4 237.2C258.7 248.3 266.5 260.1 272.1 271.3C277.9 283 280 291.2 280 296zM168 296C168 335.8 200.2 368 240 368C279.8 368 312 344 312 296C312 265.4 282.7 225 261.5 199.8C249.4 185.5 240 176 240 176C240 176 230.6 185.4 218.5 199.8C197.3 225 168 265.4 168 296z"/></svg>