<svg xmlns="http://www.w3.org/2000/svg" viewBox="0 0 640 640"><!--! Font Awesome Pro 7.2.0 by @fontawesome - https://fontawesome.com License - https://fontawesome.com/license (Commercial License) Copyright 2026 Fonticons, Inc. --><path fill="currentColor" d="M448 128L448 437.4C439.4 449.7 433.8 464.2 432.4 480L319.7 480C315.7 435.1 278 400 232.1 400C202.3 400 176 414.8 160.1 437.4C144.2 414.8 117.9 400 88.1 400C66.8 400 47.3 407.5 32.1 420.1L32 128L448 128zM0 128L0 488C0 536.6 39.4 576 88 576C117.8 576 144.1 561.2 160 538.6C175.9 561.2 202.2 576 232 576C272.3 576 306.2 548.9 316.7 512L435.3 512C445.7 548.9 479.7 576 520 576C560.3 576 594.2 548.9 604.7 512L640 512L640 265.4L635.3 260.7L571.3 196.7L566.6 192L480 192L480 96L0 96L0 128zM480 224L553.4 224L608 278.6L608 320L480 320L480 224zM608 352L608 480L607.6 480C603.6 435.1 565.9 400 520 400C505.6 400 492 403.5 480 409.6L480 352L608 352zM88 432C118.9 432 144 457.1 144 488C144 518.9 118.9 544 88 544C57.1 544 32 518.9 32 488C32 457.1 57.1 432 88 432zM464 488C464 457.1 489.1 432 520 432C550.9 432 576 457.1 576 488C576 518.9 550.9 544 520 544C489.1 544 464 518.9 464 488zM232 432C262.9 432 288 457.1 288 488C288 518.9 262.9 544 232 544C201.1 544 176 518.9 176 488C176 457.1 201.1 432 232 432z"/></svg>