<svg xmlns="http://www.w3.org/2000/svg" viewBox="0 0 640 640"><!--! Font Awesome Pro 7.2.0 by @fontawesome - https://fontawesome.com License - https://fontawesome.com/license (Commercial License) Copyright 2026 Fonticons, Inc. --><path fill="currentColor" d="M285.9 128L362.7 256L160 256L160 128L285.9 128zM128 128L128 256L0 256L0 448L32.4 448C32.2 450.6 32 453.3 32 456C32 504.6 71.4 544 120 544C168.6 544 208 504.6 208 456C208 453.3 207.9 450.6 207.6 448L304.3 448C304.1 450.6 303.9 453.3 303.9 456C303.9 504.6 343.3 544 391.9 544C440.5 544 479.9 504.6 479.9 456L479.9 368L543.9 368L543.9 464C543.9 508.2 579.7 544 623.9 544L639.9 544L639.9 512L623.9 512C597.4 512 575.9 490.5 575.9 464L575.9 240C575.9 213.5 597.4 192 623.9 192L639.9 192L639.9 160L623.9 160C579.7 160 543.9 195.8 543.9 240L543.9 336L479.9 336L479.9 256L399.9 256L303.9 96L127.9 96L127.9 128zM448 360L448 388.1C432.8 375.5 413.3 368 392 368C357.8 368 328.2 387.5 313.6 416L198.4 416C183.8 387.5 154.2 368 120 368C85.8 368 56.2 387.5 41.6 416L32 416L32 288L448 288L448 360zM64 456C64 425.1 89.1 400 120 400C150.9 400 176 425.1 176 456C176 486.9 150.9 512 120 512C89.1 512 64 486.9 64 456zM392 400C422.9 400 448 425.1 448 456C448 486.9 422.9 512 392 512C361.1 512 336 486.9 336 456C336 425.1 361.1 400 392 400z"/></svg>