<svg xmlns="http://www.w3.org/2000/svg" viewBox="0 0 640 640"><!--! Font Awesome Pro 7.2.0 by @fontawesome - https://fontawesome.com License - https://fontawesome.com/license (Commercial License) Copyright 2026 Fonticons, Inc. --><path fill="currentColor" d="M32 224L128 224L128 368C128 482.9 221.1 576 336 576C450.9 576 544 482.9 544 368L544 128L416 128L416 368C416 412.2 380.2 448 336 448C291.8 448 256 412.2 256 368L256 224L352 224L192 64L32 224zM274.8 192L224 192L224 368C224 427.9 271.1 476.8 330.2 479.8L336 480C397.8 480 448 429.8 448 368L448 160L512 160L512 368C512 465.2 433.2 544 336 544L326.9 543.8C234 539.1 160 462.2 160 368L160 192L109.2 192L192 109.2L274.8 192z"/></svg>