<svg xmlns="http://www.w3.org/2000/svg" viewBox="0 0 640 640"><!--! Font Awesome Pro 7.2.0 by @fontawesome - https://fontawesome.com License - https://fontawesome.com/license (Commercial License) Copyright 2026 Fonticons, Inc. --><path fill="currentColor" d="M336.5 48L336.5 32L304.5 32L304.5 64.5C173.9 72.6 69.8 178.5 64.7 310C64.6 312.3 64.6 314.5 64.5 316.8L64 354.9L91.6 328.5C93.2 327 94.8 325.6 96.4 324.2C111.6 311.6 131.2 304 152.5 304C180.6 304 205.7 317.2 221.8 337.8C223.9 340.5 225.8 343.2 227.6 346.1L240.5 367.1L254.5 346.7C256.4 343.9 258.5 341.3 260.7 338.7C275.4 322.2 296.7 311.8 320.5 311.8C344.3 311.8 365.6 322.2 380.3 338.7C382.5 341.2 384.6 343.9 386.5 346.7L400.5 367.1L413.4 346.1C415.2 343.2 417.1 340.4 419.2 337.8C435.3 317.2 460.4 304 488.5 304C509.8 304 529.3 311.6 544.6 324.2C546.3 325.6 547.9 327 549.4 328.5L577 354.9L576.5 316.7C576.5 314.4 576.4 312.2 576.3 309.9C571.2 178.5 467.1 72.5 336.5 64.4L336.5 47.9zM541.6 284.4C525.6 276.5 507.5 272 488.4 272C452.8 272 420.8 287.5 398.9 312.1C378.7 292.3 351 280 320.4 280C289.8 280 262.1 292.3 241.9 312.1C220 287.5 188 272 152.5 272C133.4 272 115.3 276.5 99.3 284.4C116.3 177.6 208.9 96 320.5 96C432.1 96 524.6 177.6 541.7 284.4zM304.5 364.3L304.5 512.4C304.5 529.9 290.3 544 272.9 544C257.4 544 244.2 532.8 241.7 517.6C241 513.4 239.7 505.4 237.7 493.6L206 498.8C208 510.6 209.3 518.6 210 522.8C215.1 553.5 241.7 576 272.8 576C307.9 576 336.4 547.5 336.4 512.4L336.4 364.3C331.7 361.6 326.2 360 320.4 360C314.6 360 309.1 361.6 304.4 364.3z"/></svg>