<svg xmlns="http://www.w3.org/2000/svg" viewBox="0 0 640 640"><!--! Font Awesome Pro 7.2.0 by @fontawesome - https://fontawesome.com License - https://fontawesome.com/license (Commercial License) Copyright 2026 Fonticons, Inc. --><path fill="currentColor" d="M382.6 225.4C431.8 176.2 464.2 143.8 480 128L128 128L128 480C143.8 464.2 176.2 431.8 225.4 382.6L248 360L270.6 382.6L409.4 521.4L432 544L544 432L521.4 409.4L382.6 270.6L360 248L382.6 225.4zM498.7 432L432 498.7L270.6 337.4L248 314.7C240 322.7 210.7 352 160 402.7L160 160L402.7 160C352 210.7 322.7 240 314.7 248L337.4 270.6L498.7 432z"/></svg>