<svg xmlns="http://www.w3.org/2000/svg" viewBox="0 0 640 640"><!--! Font Awesome Pro 7.2.0 by @fontawesome - https://fontawesome.com License - https://fontawesome.com/license (Commercial License) Copyright 2026 Fonticons, Inc. --><path fill="currentColor" d="M128 64L128 112L176 112L176 64L128 64zM224 384L256 384L256 448L256 448L256 576L384 576L384 384L512 384C510 381.9 453.4 322.1 342 204.4L320 181.1L298 204.4C186.6 322.1 130 381.9 128 384L224 384zM352 448L352 544L288 544L288 448L288 448L288 352L202.3 352L320 227.7L437.7 352L352 352L352 448zM288 64L240 64L240 112L288 112L288 64zM352 64L352 112L400 112L400 64L352 64zM512 64L464 64L464 112L512 112L512 64z"/></svg>