<svg xmlns="http://www.w3.org/2000/svg" viewBox="0 0 640 640"><!--! Font Awesome Pro 7.2.0 by @fontawesome - https://fontawesome.com License - https://fontawesome.com/license (Commercial License) Copyright 2026 Fonticons, Inc. --><path fill="currentColor" d="M128.3 171.8C130.6 111.9 179.8 64 240.3 64L272.3 64C332.7 64 382 111.9 384.2 171.8L430.3 256.4L432.3 260L432.3 310.7L427.6 315.4L400.3 342.7L400.3 374.7L395.6 379.4L347.6 427.4L342.9 432.1L310.9 432.1L283.6 459.4L278.9 464.1L233.6 464.1L228.9 459.4L201.6 432.1L169.6 432.1L164.9 427.4L116.9 379.4L112.2 374.7L112.2 342.7L84.9 315.4L80.2 310.7L80.2 260L82.2 256.4L128.3 171.8zM240.3 96C201.6 96 169.3 123.5 161.9 160L217.7 160C238.6 139.1 251.5 126.2 256.3 121.4C261.2 126.3 274.1 139.2 294.9 160L350.7 160C343.3 123.5 311 96 272.3 96L240.3 96zM160.3 208C160.3 232.8 169.7 255.4 185.2 272.5L213 244.7L217.7 240L295 240L299.7 244.7L327.5 272.5C343 255.5 352.4 232.8 352.4 208L352.4 192L281.8 192C281.3 191.5 272.9 183.1 256.4 166.6C239.9 183.1 231.5 191.5 231 192L160.4 192L160.4 208zM302 292.4L281.6 272L230.9 272L210.5 292.4C224.1 299.8 239.7 304 256.3 304C272.9 304 288.5 299.8 302.1 292.4zM112.3 268.1L112.3 297.4L139.6 324.7L144.3 329.4L144.3 361.4L182.9 400L214.9 400L219.6 404.7L246.9 432L265.6 432L292.9 404.7L297.6 400L329.6 400L368.2 361.4L368.2 329.4L372.9 324.7L400.2 297.4L400.2 268.1L381.6 233.9C369.7 292.2 318.1 336 256.3 336C194.5 336 142.9 292.2 130.9 233.9L112.3 268.1zM32.3 576L85.6 415.9L110.9 441.2L66 576L32.3 576zM552.6 304L568.8 304C564.5 321.2 555.2 358.5 540.8 416L637.6 416L611.9 443L459.9 603L440 624L423.8 624C428.1 606.8 437.4 569.5 451.8 512L355 512L380.7 485L532.7 325L552.6 304zM472.3 480L492.8 480C490.2 490.4 485.5 509.4 478.6 536.9L563.1 448L499.9 448C502.5 437.6 507.2 418.6 514.1 391.1L429.6 480L472.3 480z"/></svg>