<svg xmlns="http://www.w3.org/2000/svg" viewBox="0 0 640 640"><!--! Font Awesome Pro 7.2.0 by @fontawesome - https://fontawesome.com License - https://fontawesome.com/license (Commercial License) Copyright 2026 Fonticons, Inc. --><path fill="currentColor" d="M192.1 171.8C194.3 111.9 243.6 64 304 64L336 64C396.4 64 445.7 111.9 447.9 171.8L494 256.4L496 260L496 310.7L491.3 315.4L464 342.7L464 374.7L459.3 379.4L411.3 427.4L406.6 432.1L374.6 432.1L347.3 459.4L342.6 464.1L297.3 464.1L292.6 459.4L265.3 432.1L233.3 432.1L228.6 427.4L180.6 379.4L175.9 374.7L175.9 342.7L148.6 315.4L143.9 310.7L143.9 260L145.9 256.4L192 171.8zM304 96C265.3 96 233 123.5 225.6 160L281.4 160C302.3 139.1 315.2 126.2 320 121.4C324.9 126.3 337.8 139.2 358.6 160L414.4 160C407 123.5 374.7 96 336 96L304 96zM224 208C224 232.8 233.4 255.4 248.9 272.5L276.7 244.7L281.4 240L358.7 240L363.4 244.7L391.2 272.5C406.7 255.5 416.1 232.8 416.1 208L416.1 192L345.5 192L340.8 187.3L320.1 166.6C303.6 183.1 295.2 191.5 294.7 192L224.1 192L224.1 208zM365.8 292.4L345.4 272L294.7 272L274.3 292.4C287.9 299.8 303.5 304 320.1 304C336.7 304 352.3 299.8 365.9 292.4zM176 268.1L176 297.4L203.3 324.7L208 329.4L208 361.4L246.6 400L278.6 400L283.3 404.7L310.6 432L329.3 432L356.6 404.7L361.3 400L393.3 400L431.9 361.4L431.9 329.4L436.6 324.7L463.9 297.4L463.9 268.1L445.3 233.9C433.4 292.2 381.8 336 320 336C258.2 336 206.6 292.2 194.6 233.9L176 268.1zM96 576L149.4 415.9L174.7 441.2L129.7 576L96 576zM510.3 576L465.4 441.2L490.7 415.9L544.1 576L510.4 576z"/></svg>