<svg xmlns="http://www.w3.org/2000/svg" viewBox="0 0 640 640"><!--! Font Awesome Pro 7.2.0 by @fontawesome - https://fontawesome.com License - https://fontawesome.com/license (Commercial License) Copyright 2026 Fonticons, Inc. --><path fill="currentColor" d="M352 192C352 139 309 96 256 96C203 96 160 139 160 192C160 245 203 288 256 288C309 288 352 245 352 192zM65.5 576L32 576L96 368L328.2 368C328.1 370.6 328 373.3 328 376C328 384.1 328.6 392.2 329.7 400L119.6 400L65.4 576zM256 64C326.7 64 384 121.3 384 192C384 262.7 326.7 320 256 320C185.3 320 128 262.7 128 192C128 121.3 185.3 64 256 64zM496 288C447.4 288 408 327.4 408 376C408 409.9 427.2 439.4 455.4 454.1L464 458.6L464 568.1L504 598.4L535.7 574.4C521.7 560.4 511.6 550.3 505.4 544.1L537.4 512.1L516.7 491.4L512 486.7L512 463.4L523.1 459.8C558.5 448.4 584 415.2 584 376C584 327.4 544.6 288 496 288zM376 376C376 309.7 429.7 256 496 256C562.3 256 616 309.7 616 376C616 421.9 590.3 461.7 552.5 481.9L582.6 512C576.6 518 566 528.7 550.6 544C565.7 559.1 576.9 570.3 584.3 577.7C581.4 579.9 557.9 597.7 513.7 631.2L504 638.5L494.3 631.2L438.3 588.8L432 584L432 477.6C398.4 456.4 376 418.8 376 376.1zM496 376C482.7 376 472 365.3 472 352C472 338.7 482.7 328 496 328C509.3 328 520 338.7 520 352C520 365.3 509.3 376 496 376z"/></svg>