<svg xmlns="http://www.w3.org/2000/svg" viewBox="0 0 640 640"><!--! Font Awesome Pro 7.2.0 by @fontawesome - https://fontawesome.com License - https://fontawesome.com/license (Commercial License) Copyright 2026 Fonticons, Inc. --><path fill="currentColor" d="M416 208L416 192C416 171 409.3 151.6 397.8 135.8L329.8 188.7L325.5 192.1L224 192.1L224 208.1C224 261.1 267 304.1 320 304.1C373 304.1 416 261.1 416 208.1zM320 96C278.2 96 242.6 122.7 229.5 160L314.5 160L374.7 113.1C359.2 102.3 340.4 96 320 96zM320 64C390.7 64 448 121.3 448 192L448 208C448 278.7 390.7 336 320 336C249.3 336 192 278.7 192 208L192 192C192 121.3 249.3 64 320 64zM272 368L368 368L368 400L347.9 400L379 453.3L424 384L480 384L544 576L510.3 576L457 416L441.4 416L346.9 561.4L337.4 576L302.7 576L293.2 561.4L198.7 416L183.1 416L129.8 576L96.1 576L160.1 384L216.1 384L261.1 453.3L292.2 400L272.1 400L272.1 368zM300.9 514.6L320 544C332.5 524.8 345.7 504.5 359.4 483.3L320 415.7L280.6 483.3L300.9 514.6z"/></svg>