<svg xmlns="http://www.w3.org/2000/svg" viewBox="0 0 640 640"><!--! Font Awesome Pro 7.2.0 by @fontawesome - https://fontawesome.com License - https://fontawesome.com/license (Commercial License) Copyright 2026 Fonticons, Inc. --><path fill="currentColor" d="M304 64L288 64C235 64 192 107 192 160L192 220.2C148.7 306.9 126.7 350.8 126.1 352L240 352L240 368L400 368L400 352L513.9 352C513.3 350.8 491.3 306.9 448 220.2L448 160C448 107 405 64 352 64L336 64L336 48L304 48L304 64zM224 216C224 193.9 241.9 176 264 176L304 176L304 200L336 200L336 176L376 176C398.1 176 416 193.9 416 216L416 227.8L417.7 231.2L462.1 320L394.1 320L335.9 250.2L335.9 240C335.9 231.2 328.7 224 319.9 224C311.1 224 303.9 231.2 303.9 240L303.9 250.2L245.7 320L177.7 320L222.1 231.2L223.8 227.8L223.8 216zM336 144L264 144C249.3 144 235.5 148.4 224.1 156C226.1 122.5 254 96 288 96L352 96C386 96 413.8 122.5 415.9 156C404.5 148.4 390.8 144 376 144L336 144zM181.7 448L458.4 448L509.6 576L544.1 576L480.1 416L160.1 416L96.1 576L130.6 576L181.8 448zM224 528L224 512L192 512L192 576L224 576L224 528zM336 528L336 512L304 512L304 576L336 576L336 528zM448 528L448 512L416 512L416 576L448 576L448 528zM320 281L365.8 336L274.1 336L319.9 281z"/></svg>