<svg xmlns="http://www.w3.org/2000/svg" viewBox="0 0 640 640"><!--! Font Awesome Pro 7.2.0 by @fontawesome - https://fontawesome.com License - https://fontawesome.com/license (Commercial License) Copyright 2026 Fonticons, Inc. --><path fill="currentColor" d="M96 64L384 64L384 96L352 96L352 289.4C340.7 294.6 330 300.8 320 308L320 288L160 288L160 464C160 508.2 195.8 544 240 544C245.7 544 251.3 543.4 256.6 542.3C261.1 552.4 266.5 562.1 272.6 571.2C262.3 574.3 251.3 576 239.9 576C178 576 127.9 525.9 127.9 464L127.9 96L95.9 96L95.9 64zM160 96L160 256L320 256L320 96L160 96zM432 576C493.9 576 544 525.9 544 464C544 402.1 493.9 352 432 352C370.1 352 320 402.1 320 464C320 525.9 370.1 576 432 576zM432 320C511.5 320 576 384.5 576 464C576 543.5 511.5 608 432 608C352.5 608 288 543.5 288 464C288 384.5 352.5 320 432 320zM502.4 412.5L493 425.4L429 513.4L418 528.5C413.6 524.1 395.9 506.4 364.8 475.3L353.4 464L376 441.4C381 446.4 393.7 459.1 414.1 479.5L467.1 406.6L476.5 393.7L502.4 412.5z"/></svg>