<svg xmlns="http://www.w3.org/2000/svg" viewBox="0 0 640 640"><!--! Font Awesome Pro 7.2.0 by @fontawesome - https://fontawesome.com License - https://fontawesome.com/license (Commercial License) Copyright 2026 Fonticons, Inc. --><path fill="currentColor" d="M329.2 66.9L320 60.5L310.8 66.9L154.9 176L111.9 176L111.9 208L159.9 208L159.9 234.4L104.2 304L63.9 304L63.9 336L127.9 336L127.9 395.2L71.3 480L31.9 480L31.9 512L79.9 512L79.9 576L111.9 576L111.9 512L303.9 512L303.9 576L335.9 576L335.9 512L527.9 512L527.9 576L559.9 576L559.9 512L607.9 512L607.9 480L568.5 480L511.9 395.2L511.9 336L575.9 336L575.9 304L535.6 304L479.9 234.4L479.9 208L527.9 208L527.9 176L484.9 176L329 66.9zM480 336L480 384L160 384L160 336L480 336zM494.7 304L145.3 304L183.7 256L456.3 256L494.7 304zM448 224L192 224L192 189.1L320 99.5L448 189.1L448 224zM530.1 480L109.9 480L152.6 416L487.5 416L530.2 480z"/></svg>