<svg xmlns="http://www.w3.org/2000/svg" viewBox="0 0 640 640"><!--! Font Awesome Pro 7.2.0 by @fontawesome - https://fontawesome.com License - https://fontawesome.com/license (Commercial License) Copyright 2026 Fonticons, Inc. --><path fill="currentColor" d="M67.6 44.8L56.3 33.5L33.7 56.1L45 67.4L572.8 595.2L584.1 606.5L606.8 583.9L595.4 572.6L352.1 329.3L352.1 72C343.1 79.8 297.1 119.5 214 191.2L67.6 44.8zM236.8 213.9L320.2 141.9L320.2 297.3L236.8 213.9zM133.6 224L64.1 224L64.1 416L176.1 416C290.8 515 349.4 565.7 352.1 568L352.1 442.5L320.1 410.5L320.1 498.1L197 391.8L188 384L96.1 384L96.1 256L165.6 256L133.6 224zM412.3 261.1L422.5 268.8C438.1 280.5 448.1 299.1 448.1 320C448.1 330.8 445.4 341.1 440.6 350L464 373.3C474.2 358.1 480.2 339.7 480.2 320C480.2 288.6 465.1 260.7 441.8 243.2L431.6 235.5L412.4 261.1zM576.1 320C576.1 257.1 547.4 200.9 502.5 163.8L491.8 155L472.6 180.6L482.1 188.4C520 219.7 544.1 267 544.1 319.9C544.1 357.5 531.9 392.3 511.2 420.5L534.1 443.4C560.4 409.2 576.1 366.4 576.1 319.9z"/></svg>