<svg xmlns="http://www.w3.org/2000/svg" viewBox="0 0 640 640"><!--! Font Awesome Pro 7.2.0 by @fontawesome - https://fontawesome.com License - https://fontawesome.com/license (Commercial License) Copyright 2026 Fonticons, Inc. --><path fill="currentColor" d="M229.5 128L410.4 128L403.3 64L236.6 64L229.5 128zM432 32L442.7 128L512 128L512 512L442.7 512L432 608L208 608L197.3 512L128 512L128 128L197.3 128L208 32L432 32zM414 160L160 160L160 480L480 480L480 160L414 160zM229.5 512L236.6 576L403.3 576L410.4 512L229.5 512zM224 224L224 288L416 288L416 224L224 224zM192 192L448 192L448 320L192 320L192 192zM256 352L256 384L192 384L192 352L256 352zM352 352L352 384L288 384L288 352L352 352zM448 352L448 384L384 384L384 352L448 352zM256 448L192 448L192 416L256 416L256 448zM288 416L352 416L352 448L288 448L288 416zM448 448L384 448L384 416L448 416L448 448z"/></svg>