<svg xmlns="http://www.w3.org/2000/svg" viewBox="0 0 640 640"><!--! Font Awesome Pro 7.2.0 by @fontawesome - https://fontawesome.com License - https://fontawesome.com/license (Commercial License) Copyright 2026 Fonticons, Inc. --><path fill="currentColor" d="M227.9 142.4C255.5 128.1 286.8 120 320 120C353.2 120 384.5 128.1 412.1 142.4L403.4 64L236.6 64L227.9 142.4zM193.2 165.3L208 32L432 32L446.8 165.3C491.5 202 520 257.7 520 320C520 382.3 491.5 438 446.8 474.7L432 608L208 608L193.2 474.7C148.5 438 120 382.3 120 320C120 257.7 148.5 202 193.2 165.3zM227.9 497.6L236.6 576L403.3 576L412 497.6C384.5 511.9 353.2 520 320 520C286.8 520 255.5 511.9 227.9 497.6zM336 224L336 313.4C370.2 347.6 388.4 365.8 390.6 368L368 390.6C366.6 389.2 346.8 369.4 308.7 331.3L304 326.6L304 224L336 224zM488 320C488 227.2 412.8 152 320 152C227.2 152 152 227.2 152 320C152 412.8 227.2 488 320 488C412.8 488 488 412.8 488 320z"/></svg>