<svg xmlns="http://www.w3.org/2000/svg" viewBox="0 0 640 640"><!--! Font Awesome Pro 7.2.0 by @fontawesome - https://fontawesome.com License - https://fontawesome.com/license (Commercial License) Copyright 2026 Fonticons, Inc. --><path fill="currentColor" d="M452.4 489L573.4 534.8C601.7 524.2 619.1 517.7 625.4 515.3L636.6 545.3L621.6 550.9L578.9 566.9L573.3 569L567.6 566.9L446.6 521L325.6 566.9L319.9 569.1L314.2 566.9L193.2 521L72.2 566.9L66.5 569L60.9 566.9L18.2 550.9L3.2 545.3L14.4 515.3C20.7 517.7 38.1 524.2 66.4 534.8L187.5 489L193.2 486.8L198.9 489L319.9 534.8L440.9 489L446.6 486.8L452.3 489zM416.1 96L336.1 96L336.1 160L416.1 160L416.1 192L336.1 192L336.1 289.6C372.6 297 400.1 329.3 400.1 368C400.1 412.2 364.3 448 320.1 448C275.9 448 240.1 412.2 240.1 368C240.1 329.3 267.6 297 304.1 289.6L304.1 64L416.1 64L416.1 96zM192.1 368C192.1 376.8 193 385.3 194.6 393.6L193.4 393.1L72.4 439L66.7 441.1L61.1 439L18.4 423L3.4 417.4L14.6 387.4C20.9 389.8 38.3 396.3 66.6 406.9L187.7 361.1L192.4 359.3C192.2 362.2 192.1 365.1 192.1 368zM452.4 361L573.4 406.8C601.7 396.2 619.1 389.7 625.4 387.3L636.6 417.3L621.6 422.9L578.9 438.9L573.3 441L567.6 438.9L446.6 393L445.4 393.4C447.1 385.1 448 376.6 448 367.9C448 365 447.9 362.1 447.7 359.2L452.4 361zM320.1 320C293.6 320 272.1 341.5 272.1 368C272.1 394.5 293.6 416 320.1 416C346.6 416 368.1 394.5 368.1 368C368.1 341.5 346.6 320 320.1 320z"/></svg>