<svg xmlns="http://www.w3.org/2000/svg" viewBox="0 0 640 640"><!--! Font Awesome Pro 7.2.0 by @fontawesome - https://fontawesome.com License - https://fontawesome.com/license (Commercial License) Copyright 2026 Fonticons, Inc. --><path fill="currentColor" d="M336 288L336 304L304 304L304 118.6L240 182.6L217.4 160L228.7 148.7L308.7 68.7L320 57.4L331.3 68.7L411.3 148.7L422.6 160L400 182.6L388.7 171.3L336 118.6L336 288zM193.3 358.9L199 361L320 406.9L441 361L446.7 358.9L452.4 361L579.1 409L567.8 438.9L446.8 393L325.8 438.9L320.1 441L314.4 438.9L193.4 393L72.4 438.9L61.1 409L187.8 361L193.5 358.9zM193.3 486.9L199 489L320 534.9L441 489L446.7 486.9L452.4 489L579.1 537L567.8 566.9L446.8 521L325.8 566.9L320.1 569L314.4 566.9L193.4 521L72.4 566.9L61.1 537L187.8 489L193.5 486.9z"/></svg>