<svg xmlns="http://www.w3.org/2000/svg" viewBox="0 0 640 640"><!--! Font Awesome Pro 7.2.0 by @fontawesome - https://fontawesome.com License - https://fontawesome.com/license (Commercial License) Copyright 2026 Fonticons, Inc. --><path fill="currentColor" d="M67.6 44.8L56.3 33.5L33.7 56.1L45 67.4L572.8 595.2L584.1 606.5L606.8 583.9L595.4 572.6L473.8 451C517.1 410.2 544.1 352.3 544.1 288C544.1 164.3 443.8 64 320.1 64C255.9 64 198 91 157.1 134.3L67.6 44.8zM179.8 157C214.8 119.5 264.7 96 320.1 96C426.1 96 512.1 182 512.1 288C512.1 343.4 488.7 393.3 451.1 428.3L405.9 383C431.8 359.6 448.1 325.7 448.1 288C448.1 217.3 390.8 160 320.1 160C282.4 160 248.5 176.3 225.1 202.2L179.8 157zM383.2 360.4L247.8 224.9C265.4 204.7 291.3 192 320.2 192C373.2 192 416.2 235 416.2 288C416.2 316.9 403.5 342.8 383.3 360.4zM112.8 203.1C102.1 229.3 96.2 257.9 96.2 288C96.2 406.3 188 503.2 304.2 511.4L304.2 544L208.2 544L208.2 576L432.2 576L432.2 544L336.2 544L336.2 511.4C360.4 509.7 383.6 504.1 405.1 495.3L380.2 470.4C361.3 476.6 341.2 479.9 320.3 479.9C214.3 479.9 128.3 393.9 128.3 287.9C128.3 267 131.7 246.8 137.8 228L112.8 203.1z"/></svg>