<svg xmlns="http://www.w3.org/2000/svg" viewBox="0 0 640 640"><!--! Font Awesome Pro 7.2.0 by @fontawesome - https://fontawesome.com License - https://fontawesome.com/license (Commercial License) Copyright 2026 Fonticons, Inc. --><path fill="currentColor" d="M177.7 346.7C202 371.1 210.7 405.6 203 437.2C234.7 429.5 269.2 438.2 293.6 462.5L351 519.9L332.3 538.6C294.8 576.1 234 576.1 196.5 538.6L160.3 502.4L67.6 595.1C60 587.8 52.5 580.2 45 572.7L137.7 480L101.6 443.9C64.1 406.4 64.1 345.6 101.6 308.1L120.4 289.3L177.8 346.7zM270.9 485.2C248.1 462.4 211.8 460.1 186.3 479.9L184.4 481.4L219 516C242.7 539.7 280.3 540.9 305.4 519.7L270.9 485.2zM281.7 242.7C306 267.1 314.7 301.6 307 333.2C338.7 325.5 373.2 334.2 397.6 358.5L455 415.9L436.3 434.6C398.8 472.1 338 472.1 300.5 434.6L205.6 339.7C168.1 302.2 168.1 241.4 205.6 203.9L224.4 185.1L281.8 242.5zM120.5 334.8C99.3 359.9 100.5 397.6 124.2 421.2L158.8 455.8L160.3 453.9L163.8 449C179.8 423.9 176.5 390.7 155.1 369.3L120.5 334.8zM374.9 381.2C352.1 358.4 315.8 356.1 290.3 375.9L288.4 377.4L323 412C346.7 435.7 384.3 436.9 409.4 415.7L374.9 381.2zM385.7 138.8C410 163.2 418.7 197.7 411 229.3C442.7 221.6 477.2 230.3 501.6 254.6L559 312L540.3 330.7C502.8 368.2 442 368.2 404.5 330.7L309.6 235.8C272.1 198.3 272.1 137.5 309.6 100.1L328.4 81.3L385.8 138.7zM224.5 230.8C203.3 255.9 204.5 293.6 228.2 317.2L262.8 351.8L264.3 349.9L267.8 345C283.8 319.9 280.5 286.7 259.1 265.3L224.5 230.7zM478.9 277.2C456.1 254.4 419.8 252.1 394.3 272L392.4 273.5L427 308.1C450.7 331.8 488.3 333 513.4 311.8L478.9 277.3zM328.5 126.8C307.3 151.9 308.5 189.6 332.2 213.2L366.8 247.8L368.3 245.9L371.8 241C387.8 215.9 384.5 182.7 363.1 161.3L328.5 126.8zM592.3 99L592.2 103.8C589.8 151.4 551.7 189.5 504.1 191.9L499.3 192L448.3 192L448.3 141C448.3 89.6 489.9 48 541.3 48L592.3 48L592.3 99zM541.3 80C507.6 80 480.3 107.3 480.3 141L480.3 160L499.3 160L505.5 159.7C534.2 156.8 557 134 559.9 105.3L560.2 99.1L560.2 80.1L541.2 80.1z"/></svg>