<svg xmlns="http://www.w3.org/2000/svg" viewBox="0 0 640 640"><!--! Font Awesome Pro 7.2.0 by @fontawesome - https://fontawesome.com License - https://fontawesome.com/license (Commercial License) Copyright 2026 Fonticons, Inc. --><path fill="currentColor" d="M352 64L352 96L432 96C458.5 96 480 117.5 480 144C480 170.5 458.5 192 432 192L64 192L64 224L432 224C476.2 224 512 188.2 512 144C512 99.8 476.2 64 432 64L352 64zM416 480L488 480C536.6 480 576 440.6 576 392C576 343.4 536.6 304 488 304L64 304L64 336L488 336C518.9 336 544 361.1 544 392C544 422.9 518.9 448 488 448L416 448L416 480zM176 576L240 576C284.2 576 320 540.2 320 496C320 451.8 284.2 416 240 416L64 416L64 448L240 448C266.5 448 288 469.5 288 496C288 522.5 266.5 544 240 544L160 544L160 576L176 576z"/></svg>