<svg xmlns="http://www.w3.org/2000/svg" viewBox="0 0 640 640"><!--! Font Awesome Pro 7.2.0 by @fontawesome - https://fontawesome.com License - https://fontawesome.com/license (Commercial License) Copyright 2026 Fonticons, Inc. --><path fill="currentColor" d="M80 96L64 96L64 128L96 128L96 512L64 512L64 544L576 544L576 512L544 512L544 128L576 128L576 96L80 96zM128 512L128 128L512 128L512 512L128 512zM336 192L336 176L304 176L304 224L208 224L208 256L304 256L304 304L192 304L192 336L304 336L304 384L208 384L208 416L304 416L304 464L336 464L336 416L432 416L432 384L336 384L336 336L448 336L448 304L336 304L336 256L432 256L432 224L336 224L336 192z"/></svg>