<svg xmlns="http://www.w3.org/2000/svg" viewBox="0 0 640 640"><!--! Font Awesome Pro 7.2.0 by @fontawesome - https://fontawesome.com License - https://fontawesome.com/license (Commercial License) Copyright 2026 Fonticons, Inc. --><path opacity=".4" fill="currentColor" d="M215.4 144.6C215.4 141.4 215.6 138.3 216 135.1C216.4 173.5 244.2 203.6 280 207.6L280 216.8C243.7 212.8 215.4 182 215.4 144.6zM344 136C344 166.9 318.9 192 288 192C257.1 192 232 166.9 232 136C232 105.1 257.1 80 288 80C318.9 80 344 105.1 344 136zM296 207.6C331.7 203.6 359.6 173.5 360 135.3C360.4 138.4 360.6 141.5 360.6 144.7C360.6 182.1 332.3 212.9 296 216.9L296 207.7z"/><path fill="currentColor" d="M344 136C344 166.9 318.9 192 288 192C257.1 192 232 166.9 232 136C232 105.1 257.1 80 288 80C318.9 80 344 105.1 344 136zM288 64C248.2 64 216 96.2 216 136C216 173.1 244 203.6 280 207.6L280 544L120 544L120 321.6L170.7 366L176.7 371.3L187.2 359.3L181.2 354L117.2 298L111.9 293.4L106.6 298L42.6 354L36.6 359.3L47.1 371.3L53.1 366L103.8 321.6L103.8 552L103.8 560L367.8 560L367.8 544L295.8 544L295.8 207.6C331.8 203.6 359.8 173.1 359.8 136C359.8 96.2 327.6 64 287.8 64zM528 304C554.5 304 576 325.5 576 352L576 416L480 416L480 352C480 325.5 501.5 304 528 304zM464 352L464 416L416 416L416 608L640 608L640 416L592 416L592 352C592 316.7 563.3 288 528 288C492.7 288 464 316.7 464 352zM432 432L624 432L624 592L432 592L432 432z"/></svg>