<svg xmlns="http://www.w3.org/2000/svg" viewBox="0 0 640 640"><!--! Font Awesome Pro 7.2.0 by @fontawesome - https://fontawesome.com License - https://fontawesome.com/license (Commercial License) Copyright 2026 Fonticons, Inc. --><path opacity=".4" fill="currentColor" d="M80 112L560 112L560 192L80 192L80 112zM112 208L528 208L528 528L112 528L112 208zM232 288L232 304L408 304L408 288L232 288z"/><path fill="currentColor" d="M560 112L560 192L80 192L80 112L560 112zM80 208L96 208L96 544L544 544L544 208L576 208L576 96L64 96L64 208L80 208zM112 208L528 208L528 528L112 528L112 208zM240 288L232 288L232 304L408 304L408 288L240 288z"/></svg>