<svg xmlns="http://www.w3.org/2000/svg" viewBox="0 0 640 640"><!--! Font Awesome Pro 7.2.0 by @fontawesome - https://fontawesome.com License - https://fontawesome.com/license (Commercial License) Copyright 2026 Fonticons, Inc. --><path opacity=".4" fill="currentColor" d=""/><path fill="currentColor" d="M320 560C187.5 560 80 452.5 80 320L80 312L64 312L64 320C64 461.4 178.6 576 320 576C461.4 576 576 461.4 576 320L576 312L560 312L560 320C560 452.5 452.5 560 320 560zM194.3 186.3L188.6 192L199.9 203.3L205.6 197.6L311.9 91.3L311.9 416L327.9 416L327.9 91.3L434.2 197.6L439.9 203.3L451.2 192L445.5 186.3L325.5 66.3L319.8 60.6L314.1 66.3L194.1 186.3z"/></svg>