<svg xmlns="http://www.w3.org/2000/svg" viewBox="0 0 640 640"><!--! Font Awesome Pro 7.2.0 by @fontawesome - https://fontawesome.com License - https://fontawesome.com/license (Commercial License) Copyright 2026 Fonticons, Inc. --><path opacity=".4" fill="currentColor" d="M208 160C208 186.5 186.5 208 160 208C133.5 208 112 186.5 112 160C112 133.5 133.5 112 160 112C186.5 112 208 133.5 208 160zM528 432C528 458.5 506.5 480 480 480C453.5 480 432 458.5 432 432C432 405.5 453.5 384 480 384C506.5 384 528 405.5 528 432z"/><path fill="currentColor" d="M346.3 82.3L352 76.6L363.3 87.9L357.6 93.6L299.3 151.9L544 151.9L544 287.9L528 287.9L528 167.9L299.3 167.9L357.6 226.2L363.3 231.9L352 243.2L346.3 237.5L274.3 165.5L268.6 159.8L274.3 154.1L346.3 82.1zM293.6 354.3L365.6 426.3L371.3 432L365.6 437.7L293.6 509.7L287.9 515.4L276.6 504.1L282.3 498.4L340.6 440.1L111.9 440.1L111.9 560.1L95.9 560.1L95.9 424.1L340.6 424.1L282.3 365.8L276.6 360.1L287.9 348.8L293.6 354.5zM480 480C506.5 480 528 458.5 528 432C528 405.5 506.5 384 480 384C453.5 384 432 405.5 432 432C432 458.5 453.5 480 480 480zM480 368C515.3 368 544 396.7 544 432C544 467.3 515.3 496 480 496C444.7 496 416 467.3 416 432C416 396.7 444.7 368 480 368zM112 160C112 186.5 133.5 208 160 208C186.5 208 208 186.5 208 160C208 133.5 186.5 112 160 112C133.5 112 112 133.5 112 160zM224 160C224 195.3 195.3 224 160 224C124.7 224 96 195.3 96 160C96 124.7 124.7 96 160 96C195.3 96 224 124.7 224 160z"/></svg>