<svg xmlns="http://www.w3.org/2000/svg" viewBox="0 0 640 640"><!--! Font Awesome Pro 7.2.0 by @fontawesome - https://fontawesome.com License - https://fontawesome.com/license (Commercial License) Copyright 2026 Fonticons, Inc. --><path opacity=".4" fill="currentColor" d="M48 337.3L48 490.8C58.2 494.2 68.3 497.6 78.5 501L182.2 459.5L200 452.4L217.8 459.5L320 500.4L422.2 459.5L440 452.4L457.8 459.5L561.5 501L589.4 491.7L589.4 337.3L304 337.3C304 336.9 304 336.4 304 336L112 336C112 336.4 112 336.9 112 337.3L48 337.3zM112 112C112 181.3 112 250.7 112 320L304 320C304 250.7 304 181.3 304 112L112 112z"/><path fill="currentColor" d="M474.4 98.3C477.5 95.2 482.6 95.2 485.7 98.3L589.7 202.3C592.8 205.4 592.8 210.5 589.7 213.6C586.6 216.7 581.5 216.7 578.4 213.6L488.1 123.3L488.1 320L608.1 320L608.1 485.6L592.9 490.7L592.1 491L592.1 336.1L48.1 336.1L48.1 491L47.3 490.7L32.1 485.6L32.1 320L96.1 320L96.1 96L320.1 96L320.1 320L472.1 320L472.1 123.3L381.8 213.6C378.7 216.7 373.6 216.7 370.5 213.6C367.4 210.5 367.4 205.4 370.5 202.3L474.5 98.3zM112 112L112 320L304 320L304 112L112 112zM193.3 495.4L196.1 496.5L319.9 543.4L443.7 496.5L446.5 495.4L449.3 496.5L573.4 543.5L621.4 528.3L629 525.9L633.8 541.2L626.2 543.6L575.5 559.6L572.9 560.4L570.3 559.4L446.5 512.5L322.7 559.4L319.9 560.5L317.1 559.4L193.3 512.5L69.5 559.4L66.9 560.4L64.3 559.6L13.6 543.6L6 541.2L10.8 525.9L18.4 528.3L66.4 543.5L190.5 496.5L193.3 495.4z"/></svg>