<svg xmlns="http://www.w3.org/2000/svg" viewBox="0 0 640 640"><!--! Font Awesome Pro 7.2.0 by @fontawesome - https://fontawesome.com License - https://fontawesome.com/license (Commercial License) Copyright 2026 Fonticons, Inc. --><path opacity=".4" fill="currentColor" d="M80 144L80 496L560 496L560 144L80 144zM160 288C160 252.7 188.7 224 224 224L232 224C267.3 224 296 252.7 296 288L296 416L280 416L280 336L176 336L176 416L160 416L160 288zM176 288L176 320L280 320L280 288C280 261.5 258.5 240 232 240L224 240C197.5 240 176 261.5 176 288zM344 224L408 224C447.8 224 480 256.2 480 296L480 344C480 383.8 447.8 416 408 416L344 416L344 224zM360 240L360 400L408 400C438.9 400 464 374.9 464 344L464 296C464 265.1 438.9 240 408 240L360 240z"/><path fill="currentColor" d="M560 144L560 496L80 496L80 144L560 144zM80 128L64 128L64 512L576 512L576 128L80 128zM160 288L160 416L176 416L176 336L280 336L280 416L296 416L296 288C296 252.7 267.3 224 232 224L224 224C188.7 224 160 252.7 160 288zM176 320L176 288C176 261.5 197.5 240 224 240L232 240C258.5 240 280 261.5 280 288L280 320L176 320zM352 224L344 224L344 416L408 416C447.8 416 480 383.8 480 344L480 296C480 256.2 447.8 224 408 224L352 224zM408 400L360 400L360 240L408 240C438.9 240 464 265.1 464 296L464 344C464 374.9 438.9 400 408 400z"/></svg>