<svg xmlns="http://www.w3.org/2000/svg" viewBox="0 0 640 640"><!--! Font Awesome Pro 7.2.0 by @fontawesome - https://fontawesome.com License - https://fontawesome.com/license (Commercial License) Copyright 2026 Fonticons, Inc. --><path opacity=".4" fill="currentColor" d="M80 256C80 329 112.6 394.4 164 438.4C188.7 391.3 234 356.8 288 346.9L288 165.1C234 155.2 188.7 120.6 164 73.6C112.6 117.6 80 183 80 256zM352 165.1L352 346.9C406 356.8 451.3 391.3 476 438.4C515.5 404.6 543.9 358.2 554.9 305.5C525 275.6 508.4 259 505.4 256C508.5 252.9 525 236.4 554.9 206.5C543.8 153.8 515.5 107.4 476 73.6C451.3 120.7 406 155.2 352 165.1z"/><path fill="currentColor" d="M539.3 244.7L572.2 211.8C561.5 150.5 529 96.6 483 58.6C478.7 55.1 474.3 51.7 469.8 48.4C467.9 53.5 465.7 58.6 463.2 63.4C441.5 106.7 400.8 138.9 352 148.8L352 64L288 64L288 148.8C239.2 138.9 198.4 106.7 176.8 63.4C174.4 58.5 172.2 53.5 170.2 48.4C165.7 51.7 161.3 55.1 157 58.6C100.2 105.6 64 176.6 64 256C64 335.4 100.2 406.5 157 453.4C161.3 456.9 165.7 460.3 170.2 463.6C172.1 458.5 174.3 453.4 176.8 448.6C198.5 405.3 239.2 373.1 288 363.2L288 608L352 608L352 363.2C400.8 373.1 441.6 405.3 463.2 448.6C465.6 453.5 467.8 458.5 469.8 463.6C474.3 460.3 478.7 456.9 483 453.4C529 415.3 561.6 361.5 572.2 300.2C546.7 274.7 532 259.9 528 256L539.3 244.7zM352 346.9L352 165.1C406 155.2 451.3 120.7 476 73.6C515.5 107.4 543.9 153.8 554.9 206.5C524.9 236.5 508.4 253 505.4 256C508.5 259.1 525 275.6 554.9 305.5C543.8 358.2 515.5 404.6 476 438.4C451.3 391.3 406 356.8 352 346.9zM288 346.9C234 356.8 188.7 391.3 164 438.4C112.5 394.4 80 329 80 256C80 183 112.6 117.6 164 73.6C188.7 120.7 234 155.2 288 165.1L288 346.9zM304 80L336 80L336 592L304 592L304 80z"/></svg>