<svg xmlns="http://www.w3.org/2000/svg" viewBox="0 0 640 640"><!--! Font Awesome Pro 7.2.0 by @fontawesome - https://fontawesome.com License - https://fontawesome.com/license (Commercial License) Copyright 2026 Fonticons, Inc. --><path opacity=".4" fill="currentColor" d="M52.2 445.6L119.2 512.6L247.9 413.6L345.9 225.8L346.9 223.9L348.7 222.8L511.5 118.1L445.2 51.8L295.2 154.3L201.2 339.2L200.3 341L198.7 342.1L52.4 445.6zM130.6 524L194.9 588.3L344.9 485.8L438.9 300.9L439.8 299.1L441.4 298L587.7 194.5L522.9 129.7L359 235.1L261.2 422.6L260.4 424.2L259 425.3L130.6 524.1z"/><path fill="currentColor" d="M284.4 142.2L282.7 143.4L281.8 145.2L187.7 330.2L35.2 438L27.5 443.5L34.2 450.2L188.3 604.3L193 609L198.5 605.3L355.7 497.9L357.4 496.7L358.3 494.9L452.4 309.9L604.9 202.1L612.6 196.6L605.9 189.9L451.8 35.8L447.1 31.1L441.6 34.8L284.4 142.2zM201.1 339.2L295.1 154.3L445.1 51.8L511.4 118.1L348.6 222.8L346.8 223.9L345.8 225.8L247.8 413.6L119.1 512.6L52.1 445.6L198.4 342.1L200 341L200.9 339.2zM130.6 523.9L259 425.1L260.4 424L261.2 422.4L359 234.9L522.9 129.5L587.7 194.3L441.4 297.8L439.8 298.9L438.9 300.7L344.9 485.6L194.9 588.1L130.6 523.8z"/></svg>