<svg xmlns="http://www.w3.org/2000/svg" viewBox="0 0 640 640"><!--! Font Awesome Pro 7.2.0 by @fontawesome - https://fontawesome.com License - https://fontawesome.com/license (Commercial License) Copyright 2026 Fonticons, Inc. --><path opacity=".4" fill="currentColor" d="M80 176L208 176L208 244.7L80 372.7L80 176zM80 395.3L208 267.3L208 464L80 464L80 395.3z"/><path fill="currentColor" d="M560 176L560 464L224 464L224 176L560 176zM80 176L208 176L208 244.7L80 372.7L80 176zM80 395.3L208 267.3L208 464L80 464L80 395.3zM80 160L64 160L64 480L576 480L576 160L80 160z"/></svg>