<svg xmlns="http://www.w3.org/2000/svg" viewBox="0 0 640 640"><!--! Font Awesome Pro 7.2.0 by @fontawesome - https://fontawesome.com License - https://fontawesome.com/license (Commercial License) Copyright 2026 Fonticons, Inc. --><path opacity=".4" fill="currentColor" d="M33.6 536L104.2 606.6L126.8 584L56.2 513.4L33.6 536zM186 414.4L225.8 454.2L379.5 377.4L604.9 152L488.2 35.3L262.8 260.8L186 414.4z"/><path fill="currentColor" d="M627.6 152L389 390.6L229 470.6L132.5 567.1L149.5 584.1L104.3 629.4L11.1 536.1L56.3 490.8L73.3 507.8L169.8 411.3L249.8 251.3L488.4 12.7L627.7 152zM33.6 536L104.2 606.6L126.8 584L56.2 513.4L33.6 536zM84.5 519L121.2 555.7L212.9 463.9L176.2 427.2L84.5 519zM262.8 260.8L186 414.4L225.8 454.2L379.5 377.4L604.9 152L488.2 35.3L262.8 260.8z"/></svg>