<svg xmlns="http://www.w3.org/2000/svg" viewBox="0 0 640 640"><!--! Font Awesome Pro 7.2.0 by @fontawesome - https://fontawesome.com License - https://fontawesome.com/license (Commercial License) Copyright 2026 Fonticons, Inc. --><path opacity=".4" fill="currentColor" d="M155.3 144L576 144L576 496L507.4 496L155.3 144z"/><path fill="currentColor" d="M53.7 42.4L48 36.7L36.7 48L42.4 53.7L586.6 597.7L592.3 603.4L603.6 592.1L597.9 586.4L523.4 512L592 512L592 400L640 400L640 240L592 240L592 128L139.3 128L53.7 42.4zM155.3 144L576 144L576 496L507.4 496L155.3 144zM416.8 496L48 496L48 144L64.8 144L48.8 128L32 128L32 512L432.8 512L416.8 496zM592 256L624 256L624 384L592 384L592 256z"/></svg>