<svg xmlns="http://www.w3.org/2000/svg" viewBox="0 0 640 640"><!--! Font Awesome Pro 7.2.0 by @fontawesome - https://fontawesome.com License - https://fontawesome.com/license (Commercial License) Copyright 2026 Fonticons, Inc. --><path opacity=".4" fill="currentColor" d="M283.4 334.9L306 420.8C306.6 423.2 306.7 425.6 306.2 428.1L286 529L612.6 439L550.8 360.5C549.5 358.8 548.5 356.8 547.9 354.7L525.3 268.8C507.7 201.8 439.3 162.3 372.5 180.6C305.7 198.9 265.8 268 283.4 335z"/><path fill="currentColor" d="M76.7 222.4L10.7 306.3L0 319.9L16.8 324.5L230 383.3L225.3 365.4L27.6 310.9L89.4 232.4C90.7 230.7 91.7 228.7 92.3 226.6L114.9 140.7C132.5 73.7 200.9 34.2 267.7 52.5C304.8 62.6 333.6 88.4 348.8 120.8C353.7 119.2 359 117.8 364.4 116.6C347.5 78.9 314.5 48.7 271.8 37C196.5 16.4 119.3 60.9 99.5 136.5L76.7 222.4zM239.5 436.1L227.1 432.7C218.3 442.1 205.8 448 192 448C169 448 149.8 431.8 145.1 410.3L128.2 405.7C131.1 438.4 158.5 464 192 464C210 464 226.2 456.6 237.8 444.7L239.5 436.1zM563.3 350.5L540.7 264.6C520.9 189 443.8 144.4 368.4 165C293 185.6 248.1 263.6 267.9 339.1L290.5 425L268.7 533.7L265.2 551.3L282.4 546.6L623.2 452.7L640 448.1L629.3 434.5L563.3 350.6zM612.5 439L285.9 529L306.1 428.1C306.6 425.7 306.5 423.2 305.9 420.8L283.3 334.9C265.7 267.9 305.6 198.8 372.4 180.5C439.2 162.2 507.6 201.7 525.2 268.7L547.8 354.6C548.4 356.7 549.3 358.7 550.7 360.4L612.5 439zM360.1 575.1C371 594.7 392 608 416 608C451.3 608 480 579.3 480 544C480 543.4 480 542.9 480 542.3L463.9 546.7C462.5 571.9 441.6 592 416 592C399.4 592 384.7 583.6 376.1 570.7L360 575.1z"/></svg>