<svg xmlns="http://www.w3.org/2000/svg" viewBox="0 0 640 640"><!--! Font Awesome Pro 7.2.0 by @fontawesome - https://fontawesome.com License - https://fontawesome.com/license (Commercial License) Copyright 2026 Fonticons, Inc. --><path opacity=".4" fill="currentColor" d=""/><path fill="currentColor" d="M288 64L296 64C450.6 64 576 189.4 576 344L576 352L560 352L560 344C560 198.2 441.8 80 296 80L288 80L288 64zM112 160L112 432C112 502.7 169.3 560 240 560C310.7 560 368 502.7 368 432C368 361.3 310.7 304 240 304L200 304L200 288L240 288C319.5 288 384 352.5 384 432C384 511.5 319.5 576 240 576C160.5 576 96 511.5 96 432L96 160L112 160zM296 160C397.6 160 480 242.4 480 344L480 352L464 352L464 344C464 251.2 388.8 176 296 176L288 176L288 160L296 160z"/></svg>