<svg xmlns="http://www.w3.org/2000/svg" viewBox="0 0 640 640"><!--! Font Awesome Pro 7.2.0 by @fontawesome - https://fontawesome.com License - https://fontawesome.com/license (Commercial License) Copyright 2026 Fonticons, Inc. --><path opacity=".4" fill="currentColor" d="M144.3 448C144.3 490.6 159.4 529.6 184.5 560L456 560C481.1 529.6 496.2 490.6 496.2 448C496.2 431.4 493.9 415.3 489.6 400L150.9 400C146.6 415.3 144.3 431.4 144.3 448z"/><path fill="currentColor" d="M400.3 64L432.3 64L432.3 80L400.3 80L400.3 273.4C425.7 285 448.1 302 466 323L466.6 322.4L524.9 264.1C510.6 249.8 502.6 241.8 500.9 240.1L512.2 228.8C514.6 231.2 560 276.6 565.9 282.5L571.6 288.2L560.3 299.5C558.6 297.8 550.6 289.8 536.3 275.5L478 333.8L476 335.8C498.8 367.4 512.3 406.2 512.3 448.2C512.3 496 494.8 539.8 465.9 573.4L463.5 576.2L177.2 576.2L174.8 573.4C145.9 539.8 128.4 496 128.4 448.2C128.4 370.7 174.3 303.9 240.4 273.6L240.4 80.2L208.4 80.2L208.4 64.2L400.4 64.2zM256.3 80L256.3 283.9L251.4 286C208 304.5 173.5 339.9 156.3 384L484.3 384C467.1 339.9 432.6 304.5 389.2 286L384.3 283.9L384.3 80L256.3 80zM489.7 400L150.9 400C146.6 415.3 144.3 431.4 144.3 448C144.3 490.6 159.4 529.6 184.5 560L456 560C481.1 529.6 496.2 490.6 496.2 448C496.2 431.4 493.9 415.3 489.6 400z"/></svg>