<svg xmlns="http://www.w3.org/2000/svg" viewBox="0 0 640 640"><!--! Font Awesome Pro 7.2.0 by @fontawesome - https://fontawesome.com License - https://fontawesome.com/license (Commercial License) Copyright 2026 Fonticons, Inc. --><path opacity=".4" fill="currentColor" d="M112 87.1L112 485.7C123.7 472.4 140.9 464 160 464L528 464L528 80L119.4 80C116.6 82 114.1 84.4 112 87.1zM224 232L280 232L280 176L360 176L360 232L416 232L416 312L360 312L360 368L280 368L280 312L224 312L224 232z"/><path fill="currentColor" d="M96 64L544 64L544 480L512 480L512 560L544 560L544 576L96 576L96 64zM160 480C133.5 480 112 501.5 112 528L112 560L496 560L496 480L160 480zM112 485.7C123.7 472.4 140.9 464 160 464L528 464L528 80L112 80L112 485.7zM288 176L360 176L360 232L416 232L416 312L360 312L360 368L280 368L280 312L224 312L224 232L280 232L280 176L288 176zM296 240L296 248L240 248L240 296L296 296L296 352L344 352L344 296L400 296L400 248L344 248L344 192L296 192L296 240z"/></svg>