<svg xmlns="http://www.w3.org/2000/svg" viewBox="0 0 640 640"><!--! Font Awesome Pro 7.2.0 by @fontawesome - https://fontawesome.com License - https://fontawesome.com/license (Commercial License) Copyright 2026 Fonticons, Inc. --><path opacity=".4" fill="currentColor" d="M128 144L144 144L144 128L208 128L208 144L240 144L240 128L304 128L304 144L336 144L336 128L400 128L400 144L432 144L432 128L496 128L496 144L512 144L512 208L496 208L496 240L512 240L512 312L128 312L128 240L144 240L144 208L128 208L128 144zM128 328L512 328L512 400L496 400L496 432L512 432L512 496L496 496L496 512L432 512L432 496L400 496L400 512L336 512L336 496L304 496L304 512L240 512L240 496L208 496L208 512L144 512L144 496L128 496L128 432L144 432L144 400L128 400L128 328zM304 208L304 240L336 240L336 208L304 208zM304 400L304 432L336 432L336 400L304 400z"/><path fill="currentColor" d="M104 312L96 312L96 328L544 328L544 312L104 312zM112 144L144 144L144 112L112 112L112 144zM112 528L144 528L144 496L112 496L112 528zM208 144L240 144L240 112L208 112L208 144zM208 528L240 528L240 496L208 496L208 528zM400 496L400 528L432 528L432 496L400 496zM400 144L432 144L432 112L400 112L400 144zM304 496L304 528L336 528L336 496L304 496zM304 144L336 144L336 112L304 112L304 144zM496 496L496 528L528 528L528 496L496 496zM496 112L496 144L528 144L528 112L496 112zM304 400L304 432L336 432L336 400L304 400zM496 432L528 432L528 400L496 400L496 432zM112 400L112 432L144 432L144 400L112 400zM496 240L528 240L528 208L496 208L496 240zM112 208L112 240L144 240L144 208L112 208zM304 240L336 240L336 208L304 208L304 240z"/></svg>