<svg xmlns="http://www.w3.org/2000/svg" viewBox="0 0 640 640"><!--! Font Awesome Pro 7.2.0 by @fontawesome - https://fontawesome.com License - https://fontawesome.com/license (Commercial License) Copyright 2026 Fonticons, Inc. --><path opacity=".4" fill="currentColor" d="M96.2 340.6L268.3 438.9L276.1 443.3L279.6 435.1L312.3 358.9L312.3 562.4L96.3 443.2L96.3 340.5zM328.2 324.7L544.3 209L544.3 443.3L328.2 562.5L328.2 324.8z"/><path fill="currentColor" d="M279.6 435.2L276.1 443.4L268.3 439L96.2 340.7L96.2 443.4L312.2 562.6L312.2 359.1L279.5 435.3zM310 323.6L92.5 207.1L91.6 206.6L58.1 300.4L268.5 420.6L310.1 323.6zM101.3 193.6L320.3 310.9L539.3 193.6L320.3 65.2L101.3 193.6zM560.3 225.8L560.3 452.7L556.2 455L324.2 583L320.3 585.1L316.4 583L84.4 455L80.3 452.7L80.3 331.5L44.3 310.9L38.5 307.6L40.8 301.3L80.8 189.3L81.8 186.6L84.3 185.1L316.3 49.1L320.3 46.7L324.3 49.1L556.3 185.1L558.3 186.3L559.4 188.4L599.4 268.4L603 275.6L588.7 282.8L585.1 275.6L560.2 225.9zM328.3 324.7L328.3 562.4L544.4 443.2L544.4 208.9L328.3 324.6z"/></svg>