<svg xmlns="http://www.w3.org/2000/svg" viewBox="0 0 640 640"><!--! Font Awesome Pro 7.2.0 by @fontawesome - https://fontawesome.com License - https://fontawesome.com/license (Commercial License) Copyright 2026 Fonticons, Inc. --><path opacity=".4" fill="currentColor" d="M112 208L112 528L528 528L528 208L112 208zM115.7 192L312 192L312 96L184.2 96L115.6 192zM328 96L328 192L524.3 192L455.7 96L327.9 96z"/><path fill="currentColor" d="M524.3 192L455.7 96L327.9 96L327.9 192L524.2 192zM528 208L112 208L112 528L528 528L528 208zM115.7 192L312 192L312 96L184.2 96L115.6 192zM176 80L464 80L544 192L544 544L96 544L96 192L176 80z"/></svg>