<svg xmlns="http://www.w3.org/2000/svg" viewBox="0 0 640 640"><!--! Font Awesome Pro 7.2.0 by @fontawesome - https://fontawesome.com License - https://fontawesome.com/license (Commercial License) Copyright 2026 Fonticons, Inc. --><path opacity=".4" fill="currentColor" d="M112 192L112 288C112 332.2 147.8 368 192 368C236.2 368 272 332.2 272 288L272 192C272 147.8 236.2 112 192 112C147.8 112 112 147.8 112 192zM368 384L368 480C368 524.2 403.8 560 448 560C492.2 560 528 524.2 528 480L528 384C528 339.8 492.2 304 448 304C403.8 304 368 339.8 368 384z"/><path fill="currentColor" d="M507.3 239.1L502.1 245.2L464.2 289.4C506.9 296.7 540 332.2 543.6 376L584 376L584 392L544 392L544 472L584 472L584 488L543.6 488C539.5 537.3 498.4 576 448 576C397.6 576 356.5 537.3 352.4 488L312 488L312 472L352 472L352 392L312 392L312 376L352.4 376C356 332.1 389.1 296.6 431.8 289.4L394 245.2L388.8 239.1L401 228.7L406.2 234.8L448.1 283.7L490 234.8L495.2 228.7L507.4 239.1zM448 304C403.8 304 368 339.8 368 384L368 480C368 524.2 403.8 560 448 560C492.2 560 528 524.2 528 480L528 384C528 339.8 492.2 304 448 304zM251.3 47.1L246.1 53.2L208.2 97.4C250.9 104.7 284 140.2 287.6 184L328 184L328 200L288 200L288 280L328 280L328 296L287.6 296C283.5 345.3 242.4 384 192 384C141.6 384 100.5 345.3 96.4 296L56 296L56 280L96 280L96 200L56 200L56 184L96.4 184C100 140.1 133.1 104.6 175.8 97.4L138 53.2L132.8 47.1L145 36.7L150.2 42.8L192.1 91.7L234 42.8L239.2 36.7L251.4 47.1zM192 112C147.8 112 112 147.8 112 192L112 288C112 332.2 147.8 368 192 368C236.2 368 272 332.2 272 288L272 192C272 147.8 236.2 112 192 112z"/></svg>