<svg xmlns="http://www.w3.org/2000/svg" viewBox="0 0 640 640"><!--! Font Awesome Pro 7.2.0 by @fontawesome - https://fontawesome.com License - https://fontawesome.com/license (Commercial License) Copyright 2026 Fonticons, Inc. --><path opacity=".4" fill="currentColor" d="M180.4 460.3L200.1 368L440.1 368L459.7 460.3L457.9 459.6L440.1 452.5L320.1 500.5L200.1 452.5L182.3 459.6C181.7 459.8 181.1 460.1 180.5 460.3zM203.5 352L254.6 112L385.6 112L436.7 352L203.5 352z"/><path fill="currentColor" d="M449.5 496.5L573.6 543.5L621.6 528.3L629.2 525.9L634 541.2L626.4 543.6L575.7 559.6L573 560.4L570.4 559.4L446.6 512.5L322.8 559.4L320 560.5L317.2 559.4L193.4 512.5L69.6 559.4L67 560.4L64.3 559.6L13.6 543.6L6 541.2L10.8 525.9L18.4 528.3L66.4 543.5L190.5 496.5L193.3 495.4L196.1 496.5L319.9 543.4L443.7 496.5L446.5 495.4L449.3 496.5zM328 96L398.5 96L399.8 102.3L477.5 467.4L459.6 460.2L440 367.9L200 367.9L180.3 460.2L162.5 467.4L240.2 102.3L241.5 96L312 96L312 64L328 64L328 96zM203.5 352L436.7 352L385.6 112L254.6 112L203.5 352z"/></svg>