<svg xmlns="http://www.w3.org/2000/svg" viewBox="0 0 640 640"><!--! Font Awesome Pro 7.2.0 by @fontawesome - https://fontawesome.com License - https://fontawesome.com/license (Commercial License) Copyright 2026 Fonticons, Inc. --><path opacity=".4" fill="currentColor" d="M112.9 576L527.2 576L468.5 400L171.6 400L112.9 576zM209.3 160L269.1 160L314.9 121.9L320 117.6L325.1 121.9L370.9 160L430.7 160C423.1 114.6 383.6 80 336 80L304 80C256.4 80 216.9 114.6 209.3 160z"/><path fill="currentColor" d="M304 80C256.4 80 216.9 114.6 209.3 160L269.1 160L314.9 121.9L320 117.6L325.1 121.9L370.9 160L430.7 160C423.1 114.6 383.6 80 336 80L304 80zM193.1 160C200.9 105.7 247.6 64 304 64L336 64C392.4 64 439.1 105.7 446.9 160L456 160L456 176L448 176L448 208C448 228.8 443 248.5 434.2 265.9C437.1 278.8 442.9 290.9 451.3 301.3C459.6 311.7 464.9 318.3 467.3 321.2L454.8 331.2C452.5 328.3 447.1 321.6 438.8 311.2C432.1 302.9 426.9 293.6 423.1 283.9C417.1 292 410.1 299.4 402.4 305.9C412.2 323.1 417.8 332.8 419 334.9L405 342.9C403.6 340.5 398.4 331.4 389.4 315.6C369.4 328.5 345.6 336 320 336C294.4 336 270.6 328.5 250.6 315.6C241.5 331.4 236.3 340.6 235 342.9L221.1 335C222.3 332.9 227.8 323.2 237.7 306C230 299.5 223 292.1 217 284C213.2 293.8 207.9 303 201.3 311.3C193 321.7 187.7 328.3 185.3 331.3L172.8 321.3C175.1 318.4 180.5 311.7 188.8 301.4C197.1 291 203 278.8 205.9 266C197.1 248.6 192.1 229 192.1 208.1L192.1 176.1L176.1 176.1L176.1 160.1L193.2 160.1zM432 176L365.1 176L362.9 174.1L320 138.4L277.1 174.1L274.9 176L208 176L208 208C208 269.9 258.1 320 320 320C381.9 320 432 269.9 432 208L432 176zM171.5 400L112.8 576L95.9 576L159.9 384L479.9 384L543.9 576L527 576L468.3 400L171.4 400z"/></svg>