<svg xmlns="http://www.w3.org/2000/svg" viewBox="0 0 640 640"><!--! Font Awesome Pro 7.2.0 by @fontawesome - https://fontawesome.com License - https://fontawesome.com/license (Commercial License) Copyright 2026 Fonticons, Inc. --><path opacity=".4" fill="currentColor" d="M112 144L112 528L528 528L528 144L432 144L432 176L416 176L416 144L224 144L224 176L208 176L208 144L112 144zM304 208L336 208L328 400L312 400L304 208z"/><path fill="currentColor" d="M224 128L416 128L416 64L432 64L432 128L544 128L544 544L96 544L96 128L208 128L208 64L224 64L224 128zM112 528L528 528L528 144L432 144L432 176L416 176L416 144L224 144L224 176L208 176L208 144L112 144L112 528zM332 459.8L308 459.8L308 435.8L332 435.8L332 459.8zM328 400L312 400L304 208L336 208L328 400z"/></svg>