<svg xmlns="http://www.w3.org/2000/svg" viewBox="0 0 640 640"><!--! Font Awesome Pro 7.2.0 by @fontawesome - https://fontawesome.com License - https://fontawesome.com/license (Commercial License) Copyright 2026 Fonticons, Inc. --><path opacity=".4" fill="currentColor" d="M112 144L112 528L528 528L528 144L432 144L432 176L416 176L416 144L224 144L224 176L208 176L208 144L112 144zM236.7 320L242.4 314.3L314.4 242.3L320.1 236.6L325.8 242.3L397.8 314.3L403.5 320L392.2 331.3L386.5 325.6L328.2 267.3L328.2 432L312.2 432L312.2 267.3L253.9 325.6L248.2 331.3L236.9 320z"/><path fill="currentColor" d="M224 64L224 128L416 128L416 64L432 64L432 128L544 128L544 544L96 544L96 128L208 128L208 64L224 64zM208 168L208 144L112 144L112 528L528 528L528 144L432 144L432 176L416 176L416 144L224 144L224 176L208 176L208 168zM325.7 242.3L397.7 314.3L403.4 320L392.1 331.3L386.4 325.6L328.1 267.3L328.1 432L312.1 432L312.1 267.3L253.8 325.6L248.1 331.3L236.8 320L242.5 314.3L314.5 242.3L320.2 236.6L325.9 242.3z"/></svg>