<svg xmlns="http://www.w3.org/2000/svg" viewBox="0 0 640 640"><!--! Font Awesome Pro 7.2.0 by @fontawesome - https://fontawesome.com License - https://fontawesome.com/license (Commercial License) Copyright 2026 Fonticons, Inc. --><path opacity=".4" fill="currentColor" d="M135.4 524.6L192 581.2C204.8 568.4 235.8 537.4 285.2 488L172.1 488C169.9 490.2 157.7 502.4 135.5 524.6zM237.3 151.3L293.9 207.9C313.7 188.1 330.7 171.1 344.8 157C349.4 152.4 354.7 148.7 360.2 146.1L360.2 62.8C333.8 67.5 308.6 80.1 288.2 100.5C274.1 114.6 257.1 131.6 237.3 151.4zM276.1 384L389.2 384L469.2 304L356.1 304L276.1 384zM427.1 160.4C436.7 171.7 441.1 186 440.2 200L520.3 200C521.2 165.5 509 130.7 483.8 103.7L427.1 160.4z"/><path fill="currentColor" d="M344.7 156.9C330.6 171 313.6 188 293.8 207.8L237.3 151.3C257.1 131.5 274.1 114.5 288.2 100.4C308.6 80 333.8 67.5 360.2 62.7L360.2 146C354.6 148.7 349.4 152.3 344.8 156.9zM415.1 149.7C403.4 142 389.5 139.1 376.1 141.1L376.1 60.7C410 58.7 444.6 69.3 472.1 92.6L415.1 149.6zM427.1 160.3L483.7 103.7C508.9 130.7 521.1 165.5 520.2 200L440.1 200C441 186 436.6 171.7 427 160.4zM518.9 216C515.1 242.1 503.8 267.2 484.9 288L372 288L423.9 236.1C429.8 230.2 434.1 223.3 436.8 216L518.9 216zM276.1 384L356.1 304L469.2 304L389.2 384L276.1 384zM373.2 400L301.2 472L188.1 472L260.1 400L373.2 400zM163.7 496.3L172 488L285.1 488C235.7 537.4 204.7 568.4 191.9 581.2L135.3 524.6L163.6 496.3zM305.1 219.1C324.9 199.3 341.9 182.3 356 168.2C371.6 152.6 396.9 152.6 412.6 168.2C428.3 183.8 428.2 209.1 412.6 224.8L152.4 485C130.7 506.7 117.5 519.9 112.8 524.6L124.1 535.9L180.7 592.5L192 603.8C196.7 599.1 209.9 585.9 231.6 564.2L491.8 304C551.2 244.6 551.2 148.4 491.8 89C432.4 29.6 336.2 29.6 276.8 89L225.9 139.9L214.6 151.2L225.9 162.5L293.8 230.4L305.1 219.1z"/></svg>