<svg xmlns="http://www.w3.org/2000/svg" viewBox="0 0 640 640"><!--! Font Awesome Pro 7.2.0 by @fontawesome - https://fontawesome.com License - https://fontawesome.com/license (Commercial License) Copyright 2026 Fonticons, Inc. --><path opacity=".4" fill="currentColor" d="M48 272L336 272C333.4 283.6 332 295.6 332 308C332 359.1 355.4 404.7 392 434.8L392 448L48 448L48 272zM96 352C96 369.7 110.3 384 128 384C131.3 384 134.4 383.5 137.4 382.6C139.4 383.5 141.6 384 144 384C152.8 384 160 376.8 160 368C160 365.7 159.5 363.4 158.6 361.4C159.5 358.4 160 355.3 160 352C160 334.3 145.7 320 128 320C110.3 320 96 334.3 96 352zM112 352C112 343.2 119.2 336 128 336C136.8 336 144 343.2 144 352C135.2 352 128 359.2 128 368C119.2 368 112 360.8 112 352zM112 464L392 464L392 472L112 472L112 464z"/><path fill="currentColor" d="M144 96L138.5 96L136.5 101.2L77.5 256L32 256L32 544L112 544L112 464L392 464L392 448L48 448L48 272L336 272C337.2 266.6 338.7 261.2 340.5 256L94.7 256L149.6 112L426.6 112L442.2 153.1C447.2 151.4 452.4 149.8 457.6 148.6L439.5 101.2L437.5 96L144 96zM48 464L96 464L96 528L48 528L48 464zM128 336C136.8 336 144 343.2 144 352C144 360.8 136.8 368 128 368C119.2 368 112 360.8 112 352C112 343.2 119.2 336 128 336zM128 384C145.7 384 160 369.7 160 352C160 334.3 145.7 320 128 320C110.3 320 96 334.3 96 352C96 369.7 110.3 384 128 384zM496 208C551.2 208 596 252.8 596 308C596 352.9 566.4 390.9 525.6 403.5L520 405.2L520 419.2L548.7 447.9L522.4 474.2L516.7 479.9L548.2 511.4L504 549.3L456 508.2L456 399.7L451.6 397.5C418.7 381.1 396 347.1 396 307.9C396 252.7 440.8 207.9 496 207.9zM380 308C380 351.8 404.2 389.9 440 409.6L440 515.7L442.8 518.1L498.8 566.1L504 570.6L509.2 566.1L565.2 518.1L571.8 512.5L565.7 506.4L539.4 480.1L571.4 448.1L565.7 442.4L539.1 415.8C581.8 398.7 612 356.9 612 308.1C612 244 560.1 192.1 496 192.1C431.9 192.1 380 243.9 380 308zM480 288C480 279.2 487.2 272 496 272C504.8 272 512 279.2 512 288C512 296.8 504.8 304 496 304C487.2 304 480 296.8 480 288zM528 288C528 270.3 513.7 256 496 256C478.3 256 464 270.3 464 288C464 305.7 478.3 320 496 320C513.7 320 528 305.7 528 288z"/></svg>