<svg xmlns="http://www.w3.org/2000/svg" viewBox="0 0 640 640"><!--! Font Awesome Pro 7.2.0 by @fontawesome - https://fontawesome.com License - https://fontawesome.com/license (Commercial License) Copyright 2026 Fonticons, Inc. --><path opacity=".4" fill="currentColor" d="M63.9 320.1L192.2 96L448.8 96L577 320.1L448.8 544.1L192.2 544.1L63.9 320.1zM176.5 352C176.5 378.5 198 400 224.5 400C245 400 262.5 387.2 269.4 369.1L336.6 382.5C336.6 383 336.6 383.5 336.6 383.9C336.6 410.4 358.1 431.9 384.6 431.9C411.1 431.9 432.6 410.4 432.6 383.9C432.6 357.4 411.1 335.9 384.6 335.9C381.1 335.9 377.7 336.3 374.4 337L345.5 265C359.3 256.6 368.5 241.4 368.5 224C368.5 197.5 347 176 320.5 176C294 176 272.5 197.5 272.5 224C272.5 236.8 277.5 248.5 285.7 257.1L246.5 309.4C239.9 306 232.4 304.1 224.5 304.1C198 304.1 176.5 325.6 176.5 352.1zM259.3 318.9L298.5 266.6C305.1 270 312.6 271.9 320.5 271.9C324 271.9 327.4 271.5 330.7 270.8L359.4 343C350.4 348.5 343.4 356.9 339.6 366.8L272.4 353.4C272.4 352.9 272.4 352.4 272.4 352C272.4 339.2 267.4 327.5 259.2 318.9z"/><path fill="currentColor" d="M182.9 560.1L45.5 320.1L182.9 80L458 80L595.4 320.1L458 560.1L182.9 560.1zM63.9 320.1L192.2 544.1L448.8 544.1L577 320.1L448.8 96L192.2 96L63.9 320.1zM295.5 244C306.5 257.8 326.7 260 340.5 249C354.3 238 356.5 217.8 345.5 204C334.5 190.2 314.3 188 300.5 199C286.7 210 284.5 230.2 295.5 244zM272.5 224C272.5 197.5 294 176 320.5 176C347 176 368.5 197.5 368.5 224C368.5 241.3 359.3 256.5 345.5 265L374.3 337.1C377.6 336.4 381 336 384.5 336C411 336 432.5 357.5 432.5 384C432.5 410.5 411 432 384.5 432C358 432 336.5 410.5 336.5 384C336.5 383.5 336.5 383 336.5 382.6L269.3 369.2C262.4 387.3 244.9 400.1 224.4 400.1C197.9 400.1 176.4 378.6 176.4 352.1C176.4 325.6 197.9 304.1 224.4 304.1C232.3 304.1 239.8 306 246.4 309.4L285.6 257.1C277.4 248.5 272.4 236.9 272.4 224zM272.5 352C272.5 352.5 272.5 353 272.5 353.4L339.7 366.8C343.5 356.8 350.6 348.5 359.5 343L330.7 270.9C327.4 271.6 324 272 320.5 272C312.6 272 305.1 270.1 298.5 266.7L259.3 319C267.5 327.6 272.5 339.2 272.5 352.1zM416.5 384C416.5 366.3 402.2 352 384.5 352C366.8 352 352.5 366.3 352.5 384C352.5 401.7 366.8 416 384.5 416C402.2 416 416.5 401.7 416.5 384zM224.5 384C242.2 384 256.5 369.7 256.5 352C256.5 334.3 242.2 320 224.5 320C206.8 320 192.5 334.3 192.5 352C192.5 369.7 206.8 384 224.5 384z"/></svg>