<svg xmlns="http://www.w3.org/2000/svg" viewBox="0 0 640 640"><!--! Font Awesome Pro 7.2.0 by @fontawesome - https://fontawesome.com License - https://fontawesome.com/license (Commercial License) Copyright 2026 Fonticons, Inc. --><path opacity=".4" fill="currentColor" d="M80 336C80 223.2 163.5 129.8 272 114.3L272 368L525.7 368C510.2 476.6 416.8 560 304 560C180.3 560 80 459.7 80 336z"/><path fill="currentColor" d="M352 64.5C346.7 64.2 341.4 64 336 64L336 304L576 304C576 298.6 575.8 293.3 575.5 288C567.6 168.2 471.8 72.4 352 64.5zM559.4 288L352 288L352 80.6C463 88.4 551.6 177 559.4 288zM288 105.2L288 96.3L279.2 97.2C158.3 109.7 64 211.8 64 336C64 468.6 171.5 576 304 576C428.2 576 530.3 481.7 542.7 360.8L543.6 352L288 352L288 105.2zM80 336C80 223.2 163.5 129.8 272 114.3L272 368L525.7 368C510.2 476.6 416.8 560 304 560C180.3 560 80 459.7 80 336z"/></svg>