<svg xmlns="http://www.w3.org/2000/svg" viewBox="0 0 640 640"><!--! Font Awesome Pro 7.2.0 by @fontawesome - https://fontawesome.com License - https://fontawesome.com/license (Commercial License) Copyright 2026 Fonticons, Inc. --><path opacity=".4" fill="currentColor" d="M80 336L80 528L560 528L560 336L480 336C480 362.5 458.5 384 432 384C405.5 384 384 362.5 384 336L80 336zM90.1 320L386.8 320C393.4 301.4 411.2 288 432.1 288C453 288 470.8 301.4 477.4 320L560.1 320C560.1 206.9 469.9 114.9 357.5 112.1L293.5 161.9C313.5 167.7 328.1 186.1 328.1 208C328.1 234.5 306.6 256 280.1 256C254.1 256 233 235.4 232.1 209.6L90.1 320zM288 432C288 458.5 266.5 480 240 480C213.5 480 192 458.5 192 432C192 405.5 213.5 384 240 384C266.5 384 288 405.5 288 432z"/><path fill="currentColor" d="M80 336L80 528L560 528L560 336L480 336C480 362.5 458.5 384 432 384C405.5 384 384 362.5 384 336L80 336zM560 320C560 206.9 469.8 114.9 357.4 112.1L293.4 161.9C313.4 167.7 328 186.1 328 208C328 234.5 306.5 256 280 256C254 256 232.9 235.4 232 209.6L90.1 320L386.7 320C393.3 301.4 411.1 288 432 288C452.9 288 470.7 301.4 477.3 320L560 320zM432 304C414.3 304 400 318.3 400 336C400 353.7 414.3 368 432 368C449.7 368 464 353.7 464 336C464 318.3 449.7 304 432 304zM250.7 195C248.9 199 248 203.4 248 208C248 225.7 262.3 240 280 240C297.7 240 312 225.7 312 208C312 190.3 297.7 176 280 176C278.2 176 276.4 176.2 274.6 176.4L250.7 195zM267.6 161.6L352 96C475.7 96 576 196.3 576 320L576 544L64 544L64 320L238.1 184.6L267.7 161.6zM240 464C257.7 464 272 449.7 272 432C272 414.3 257.7 400 240 400C222.3 400 208 414.3 208 432C208 449.7 222.3 464 240 464zM240 384C266.5 384 288 405.5 288 432C288 458.5 266.5 480 240 480C213.5 480 192 458.5 192 432C192 405.5 213.5 384 240 384z"/></svg>