<svg xmlns="http://www.w3.org/2000/svg" viewBox="0 0 640 640"><!--! Font Awesome Pro 7.2.0 by @fontawesome - https://fontawesome.com License - https://fontawesome.com/license (Commercial License) Copyright 2026 Fonticons, Inc. --><path opacity=".4" fill="currentColor" d="M80 336L560 336L560 528L80 528L80 336zM90.1 320L357.4 112.1C469.8 114.9 560 206.9 560 320L90.1 320z"/><path fill="currentColor" d="M80 336L80 528L560 528L560 336L80 336zM90.1 320L560 320C560 206.9 469.8 114.9 357.4 112.1L90.1 320zM64 320L352 96C475.7 96 576 196.3 576 320L576 544L64 544L64 320z"/></svg>