<svg xmlns="http://www.w3.org/2000/svg" viewBox="0 0 640 640"><!--! Font Awesome Pro 7.2.0 by @fontawesome - https://fontawesome.com License - https://fontawesome.com/license (Commercial License) Copyright 2026 Fonticons, Inc. --><path opacity=".4" fill="currentColor" d="M112 80L304 80L304 208L112 208L112 80zM112 224L304 224L304 336L112 336L112 224zM112 352L528 352L528 528L112 528L112 352zM272 416L272 432L368 432L368 416L272 416zM320 80L528 80L528 208L320 208L320 80zM320 224L528 224L528 336L320 336L320 224z"/><path fill="currentColor" d="M544 576L528 576L528 544L112 544L112 576L96 576L96 64L544 64L544 576zM112 352L112 528L528 528L528 352L112 352zM368 432L272 432L272 416L368 416L368 432zM112 336L304 336L304 224L112 224L112 336zM320 336L528 336L528 224L320 224L320 336zM112 208L304 208L304 80L112 80L112 208zM320 208L528 208L528 80L320 80L320 208z"/></svg>