<svg xmlns="http://www.w3.org/2000/svg" viewBox="0 0 640 640"><!--! Font Awesome Pro 7.2.0 by @fontawesome - https://fontawesome.com License - https://fontawesome.com/license (Commercial License) Copyright 2026 Fonticons, Inc. --><path opacity=".4" fill="currentColor" d="M112 112L112 528L528 528L528 112L112 112zM188.7 288L200 276.7L205.7 282.4L320 396.7L434.3 282.4L440 276.7L451.3 288L445.6 293.7L325.6 413.7L319.9 419.4L314.2 413.7L194.2 293.7L188.5 288z"/><path fill="currentColor" d="M112 528L112 112L528 112L528 528L112 528zM96 544L544 544L544 96L96 96L96 544zM325.7 413.7L445.7 293.7L451.4 288L440.1 276.7L434.4 282.4L320.1 396.7L205.8 282.4L200.1 276.7L188.8 288L194.5 293.7L314.5 413.7L320.2 419.4L325.9 413.7z"/></svg>