<svg xmlns="http://www.w3.org/2000/svg" viewBox="0 0 640 640"><!--! Font Awesome Pro 7.2.0 by @fontawesome - https://fontawesome.com License - https://fontawesome.com/license (Commercial License) Copyright 2026 Fonticons, Inc. --><path opacity=".4" fill="currentColor" d="M80 320C80 452.5 187.5 560 320 560C452.5 560 560 452.5 560 320C560 187.5 452.5 80 320 80C187.5 80 80 187.5 80 320zM193 320C193 252.2 245.4 196.7 312 191.8L312 160L328 160L328 191.6C367.4 193.5 402.2 213.2 424.5 242.9L410.8 253.2C391.7 227.7 361.9 210.7 328.1 208.8L328.1 431.3C361.9 429.4 391.7 412.4 410.8 386.9L424.5 397.2C402.3 426.8 367.5 446.5 328 448.5L328 480.1L312 480.1L312 448.3C245.5 443.4 193 387.9 193 320.1zM210.1 320C210.1 378.3 254.9 426.2 311.9 431L311.9 209C254.9 213.9 210.1 261.7 210.1 320z"/><path fill="currentColor" d="M320 80C452.5 80 560 187.5 560 320C560 452.5 452.5 560 320 560C187.5 560 80 452.5 80 320C80 187.5 187.5 80 320 80zM320 576C461.4 576 576 461.4 576 320C576 178.6 461.4 64 320 64C178.6 64 64 178.6 64 320C64 461.4 178.6 576 320 576zM312 448.2L312 480L328 480L328 448.4C367.4 446.5 402.2 426.8 424.5 397.1L410.8 386.8C391.7 412.3 361.9 429.3 328.1 431.2L328.1 208.7C361.9 210.6 391.7 227.6 410.8 253.1L424.5 242.8C402.3 213.2 367.5 193.5 328 191.5L328 159.9L312 159.9L312 191.7C245.5 196.6 193 252.1 193 319.9C193 387.7 245.4 443.2 312 448.1zM312 209L312 431C255 426.1 210.2 378.3 210.2 320C210.2 261.7 255 213.8 312 209z"/></svg>