<svg xmlns="http://www.w3.org/2000/svg" viewBox="0 0 640 640"><!--! Font Awesome Pro 7.2.0 by @fontawesome - https://fontawesome.com License - https://fontawesome.com/license (Commercial License) Copyright 2026 Fonticons, Inc. --><path opacity=".4" fill="currentColor" d="M80 320C80 452.5 187.5 560 320 560C452.5 560 560 452.5 560 320C560 187.5 452.5 80 320 80C187.5 80 80 187.5 80 320zM216 224L232 224C232 229.2 232 234.8 232 240.8C242.2 230.4 256.3 224 272 224C293 224 311.3 235.5 320.9 252.6C326.6 243.3 334.7 235.8 344.4 230.7L368.5 165.2L371.3 157.7L386.3 163.2L383.5 170.7L363.7 224.5C366.4 224.1 369.2 223.9 372 223.9C405.1 223.9 432 250.8 432 283.9L432 415.9L416 415.9L416 283.9C416 259.6 396.3 239.9 372 239.9C366.7 239.9 361.7 240.8 357 242.5L328 321.3L328 407.9L328 415.9L312 415.9C312 408.4 312 391.4 312 364.8L271.5 474.7L268.7 482.2L253.7 476.7L256.5 469.2L312 318.5L312 283.9L312 283.2L312 279.9C312 257.8 294.1 239.9 272 239.9C249.9 239.9 232 257.8 232 279.9L232 407.9L232 415.9L216 415.9L216 407.9C216 373.2 216 338.6 216 303.9L216 295.9L216 231.9L216 223.9z"/><path fill="currentColor" d="M320 80C452.5 80 560 187.5 560 320C560 452.5 452.5 560 320 560C187.5 560 80 452.5 80 320C80 187.5 187.5 80 320 80zM320 576C461.4 576 576 461.4 576 320C576 178.6 461.4 64 320 64C178.6 64 64 178.6 64 320C64 461.4 178.6 576 320 576zM386.3 163.2L371.3 157.7L368.5 165.2L344.4 230.7C334.7 235.7 326.6 243.3 320.9 252.6C311.3 235.5 293 224 272 224C256.3 224 242.2 230.4 232 240.8C232 234.8 232 229.2 232 224L216 224L216 232L216 296L216 304L216 304L216 408L216 416L232 416L232 408L232 280C232 257.9 249.9 240 272 240C294.1 240 312 257.9 312 280L312 283.3L312 284L312 318.6L256.5 469.3L253.7 476.8L268.7 482.3L271.5 474.8L312 364.9C312 392.9 312 407.2 312 408L312 408L312 416L328 416L328 408L328 321.4L357 242.6C361.7 240.9 366.7 240 372 240C396.3 240 416 259.7 416 284L416 416L432 416L432 284C432 250.9 405.1 224 372 224C369.2 224 366.4 224.2 363.7 224.6L383.5 170.8L386.3 163.3z"/></svg>