<svg xmlns="http://www.w3.org/2000/svg" viewBox="0 0 640 640"><!--! Font Awesome Pro 7.2.0 by @fontawesome - https://fontawesome.com License - https://fontawesome.com/license (Commercial License) Copyright 2026 Fonticons, Inc. --><path opacity=".4" fill="currentColor" d="M80 320C80 452.5 187.5 560 320 560C452.5 560 560 452.5 560 320C560 187.5 452.5 80 320 80C187.5 80 80 187.5 80 320zM216 320C216 262.6 262.6 216 320 216C346.6 216 370.9 226 389.3 242.5L378.6 254.4C363 240.5 342.5 232 319.9 232C271.3 232 231.9 271.4 231.9 320C231.9 368.6 271.3 408 319.9 408C365.8 408 403.5 372.9 407.6 328L320 328L320 312L424 312L424 320C424 377.4 377.4 424 320 424C262.6 424 216 377.4 216 320z"/><path fill="currentColor" d="M320 80C452.5 80 560 187.5 560 320C560 452.5 452.5 560 320 560C187.5 560 80 452.5 80 320C80 187.5 187.5 80 320 80zM320 576C461.4 576 576 461.4 576 320C576 178.6 461.4 64 320 64C178.6 64 64 178.6 64 320C64 461.4 178.6 576 320 576zM232 320C232 271.4 271.4 232 320 232C342.5 232 363.1 240.5 378.7 254.4L389.4 242.5C371 226 346.7 216 320.1 216C262.7 216 216.1 262.6 216.1 320C216.1 377.4 262.7 424 320.1 424C377.5 424 424.1 377.4 424.1 320L424.1 312L320.1 312L320.1 328L407.7 328C403.7 372.9 365.9 408 320 408C271.4 408 232 368.6 232 320z"/></svg>