<svg xmlns="http://www.w3.org/2000/svg" viewBox="0 0 640 640"><!--! Font Awesome Pro 7.2.0 by @fontawesome - https://fontawesome.com License - https://fontawesome.com/license (Commercial License) Copyright 2026 Fonticons, Inc. --><path opacity=".4" fill="currentColor" d="M80 320C80 452.5 187.5 560 320 560C452.5 560 560 452.5 560 320C560 187.5 452.5 80 320 80C187.5 80 80 187.5 80 320zM224 222.1C294.6 292.7 279.4 277.5 292 290.1C293.5 288.6 313.1 269 351 231.1C374.1 207.9 367 215.1 376 206.1C391.8 221.9 397 227.1 417 247.1C419.8 249.9 425.5 255.6 434 264.1C412.2 285.9 401.4 296.7 361.3 336.8L349.9 348C392.6 390.7 412.2 410.3 417.9 416L224 416L224 222.1z"/><path fill="currentColor" d="M320 80C187.5 80 80 187.5 80 320C80 452.5 187.5 560 320 560C452.5 560 560 452.5 560 320C560 187.5 452.5 80 320 80zM320 576C178.6 576 64 461.4 64 320C64 178.6 178.6 64 320 64C461.4 64 576 178.6 576 320C576 461.4 461.4 576 320 576zM377 375C395.1 393.1 408.8 406.8 418 416L224.1 416L224.1 222.1C294.7 292.7 279.5 277.5 292.1 290.1C292.2 290 314.6 267.6 359.1 223.1C361.9 220.3 367.6 214.6 376.1 206.1C391.9 221.9 397.1 227.1 417.1 247.1C419.9 249.9 425.6 255.6 434.1 264.1C423.6 274.6 407.8 290.4 361.4 336.8L349.9 348C356.7 354.8 365.7 363.8 376.9 375zM405.7 269.6L411.4 263.9C410.7 263.2 400.8 253.3 381.7 234.2L376 228.5L370.3 234.2L303.3 301.2L292 312.5C287.1 307.6 274.3 294.8 253.7 274.2L240 260.5L240 399.8L379.3 399.8C372.4 392.9 358.9 379.4 338.6 359.1L327.3 347.8L338.6 336.5L405.6 269.5z"/></svg>