<svg xmlns="http://www.w3.org/2000/svg" viewBox="0 0 640 640"><!--! Font Awesome Pro 7.2.0 by @fontawesome - https://fontawesome.com License - https://fontawesome.com/license (Commercial License) Copyright 2026 Fonticons, Inc. --><path opacity=".4" fill="currentColor" d="M80 320C80 452.5 187.5 560 320 560C452.5 560 560 452.5 560 320C560 187.5 452.5 80 320 80C187.5 80 80 187.5 80 320zM172.7 302.9L178.9 297.8L314.9 185.8L320 181.6L325.1 185.8L461.1 297.8L467.3 302.9L457.1 315.3C455.1 313.7 446.7 306.8 432 294.6L432 448L208 448L208 294.6C193.3 306.7 184.9 313.6 182.9 315.3L172.7 302.9zM296 352L296 432L344 432L344 352L296 352z"/><path fill="currentColor" d="M320 80C452.5 80 560 187.5 560 320C560 452.5 452.5 560 320 560C187.5 560 80 452.5 80 320C80 187.5 187.5 80 320 80zM320 576C461.4 576 576 461.4 576 320C576 178.6 461.4 64 320 64C178.6 64 64 178.6 64 320C64 461.4 178.6 576 320 576zM296 432L296 352L344 352L344 432L296 432zM280 432L224 432L224 281.4L320 202.3L416 281.4L416 432L360 432L360 336L280 336L280 432zM208 294.6L208 448L432 448L432 294.6C446.7 306.7 455.1 313.6 457.1 315.3L467.3 302.9L461.1 297.8L325.1 185.8L320 181.6L314.9 185.8L178.9 297.8L172.7 302.9L182.9 315.3C184.9 313.7 193.3 306.8 208 294.6z"/></svg>