<svg xmlns="http://www.w3.org/2000/svg" viewBox="0 0 640 640"><!--! Font Awesome Pro 7.2.0 by @fontawesome - https://fontawesome.com License - https://fontawesome.com/license (Commercial License) Copyright 2026 Fonticons, Inc. --><path opacity=".4" fill="currentColor" d="M80 320C80 452.5 187.5 560 320 560C452.5 560 560 452.5 560 320C560 187.5 452.5 80 320 80C187.5 80 80 187.5 80 320zM173.2 272.3C176 271.9 209.5 266.5 273.8 256.3C303.4 198.3 318.8 168.1 320.1 165.6C321.4 168.1 336.8 198.3 366.4 256.3C430.7 266.5 464.2 271.9 467 272.3C465 274.3 441 298.3 395 344.3C405.1 408.6 410.4 442.1 410.9 444.9C408.4 443.6 378.2 428.2 320.1 398.7C262.1 428.2 231.8 443.6 229.3 444.9C229.7 442.1 235 408.6 245.2 344.3C199.2 298.2 175.2 274.2 173.2 272.3z"/><path fill="currentColor" d="M320 80C452.5 80 560 187.5 560 320C560 452.5 452.5 560 320 560C187.5 560 80 452.5 80 320C80 187.5 187.5 80 320 80zM320 576C461.4 576 576 461.4 576 320C576 178.6 461.4 64 320 64C178.6 64 64 178.6 64 320C64 461.4 178.6 576 320 576zM352 263.6L355.7 270.9L363.7 272.2L433.3 283.3L383.5 333.2L377.7 339L379 347L390 416.6L327.2 384.6L319.9 380.9L312.6 384.6L249.8 416.6L260.8 347L262.1 339L256.3 333.2L206.5 283.3L276.1 272.2L284.1 270.9L287.8 263.6L319.8 200.8L351.8 263.6zM466.8 272.3C464 271.9 430.5 266.5 366.2 256.3C336.6 198.3 321.2 168.1 319.9 165.6C318.6 168.1 303.2 198.3 273.6 256.3C209.3 266.5 175.8 271.9 173 272.3C175 274.3 199 298.3 245 344.3C234.9 408.6 229.6 442.1 229.1 444.9C231.6 443.6 261.8 428.2 319.9 398.7C377.9 428.2 408.2 443.6 410.7 444.9C410.3 442.1 405 408.6 394.8 344.3C440.8 298.2 464.8 274.2 466.8 272.3z"/></svg>