<svg xmlns="http://www.w3.org/2000/svg" viewBox="0 0 640 640"><!--! Font Awesome Pro 7.2.0 by @fontawesome - https://fontawesome.com License - https://fontawesome.com/license (Commercial License) Copyright 2026 Fonticons, Inc. --><path opacity=".4" fill="currentColor" d="M80 320C80 452.5 187.5 560 320 560C452.5 560 560 452.5 560 320C560 187.5 452.5 80 320 80C187.5 80 80 187.5 80 320zM198.7 428.1L201.9 420.8L225.3 368L200 368L200 352L232.4 352L253.7 304L200.1 304L200.1 288L260.8 288L308.3 180.8L310.4 176L329.8 176L331.9 180.8L379.4 288L440.1 288L440.1 304L386.5 304L407.8 352L440.2 352L440.2 368L414.9 368L438.3 420.8L441.5 428.1L426.9 434.6L423.7 427.3L397.5 368.1L243.1 368.1L216.9 427.3L213.7 434.6L199.1 428.1zM249.9 352L390.2 352L368.9 304L271.1 304L249.8 352zM278.2 288L361.8 288L320 193.6L278.2 288z"/><path fill="currentColor" d="M320 80C452.5 80 560 187.5 560 320C560 452.5 452.5 560 320 560C187.5 560 80 452.5 80 320C80 187.5 187.5 80 320 80zM320 576C461.4 576 576 461.4 576 320C576 178.6 461.4 64 320 64C178.6 64 64 178.6 64 320C64 461.4 178.6 576 320 576zM310.3 176L308.2 180.8L260.7 288L200 288L200 304L253.6 304L232.3 352L199.9 352L199.9 368L225.2 368L201.8 420.8L198.6 428.1L213.2 434.6L216.4 427.3L242.6 368.1L397 368.1L423.2 427.3L426.4 434.6L441 428.1L437.8 420.8L414.4 368L439.7 368L439.7 352L407.3 352L386 304L439.6 304L439.6 288L378.9 288L331.4 180.8L329.3 176L309.9 176zM320 193.6L361.8 288L278.2 288L320 193.6zM249.9 352L271.2 304L369 304L390.3 352L250 352z"/></svg>