<svg xmlns="http://www.w3.org/2000/svg" viewBox="0 0 640 640"><!--! Font Awesome Pro 7.2.0 by @fontawesome - https://fontawesome.com License - https://fontawesome.com/license (Commercial License) Copyright 2026 Fonticons, Inc. --><path opacity=".4" fill="currentColor" d="M80 320C80 452.5 187.5 560 320 560C452.5 560 560 452.5 560 320C560 187.5 452.5 80 320 80C187.5 80 80 187.5 80 320zM256 224L340 224C368.7 224 392 247.3 392 276C392 294.5 382.3 310.8 367.7 320C382.3 329.2 392 345.5 392 364C392 392.7 368.7 416 340 416L256 416L256 400L340 400C359.9 400 376 383.9 376 364C376 344.1 359.9 328 340 328L272 328L272 312L340 312C359.9 312 376 295.9 376 276C376 256.1 359.9 240 340 240L256 240L256 224z"/><path fill="currentColor" d="M320 80C452.5 80 560 187.5 560 320C560 452.5 452.5 560 320 560C187.5 560 80 452.5 80 320C80 187.5 187.5 80 320 80zM320 576C461.4 576 576 461.4 576 320C576 178.6 461.4 64 320 64C178.6 64 64 178.6 64 320C64 461.4 178.6 576 320 576zM340 312L272 312L272 328L340 328C359.9 328 376 344.1 376 364C376 383.9 359.9 400 340 400L256 400L256 416L340 416C368.7 416 392 392.7 392 364C392 345.5 382.3 329.2 367.7 320C382.3 310.8 392 294.5 392 276C392 247.3 368.7 224 340 224L256 224L256 240L340 240C359.9 240 376 256.1 376 276C376 295.9 359.9 312 340 312z"/></svg>