<svg xmlns="http://www.w3.org/2000/svg" viewBox="0 0 640 640"><!--! Font Awesome Pro 7.2.0 by @fontawesome - https://fontawesome.com License - https://fontawesome.com/license (Commercial License) Copyright 2026 Fonticons, Inc. --><path opacity=".4" fill="currentColor" d="M80 320C80 452.5 187.5 560 320 560C452.5 560 560 452.5 560 320C560 187.5 452.5 80 320 80C187.5 80 80 187.5 80 320zM208 208L304 208C334.9 208 360 233.1 360 264L360 352L344 352L344 264C344 241.9 326.1 224 304 224L224 224L224 432L208 432L208 208zM280 288L296 288L296 296L296 416L376 416C398.1 416 416 398.1 416 376L416 208L432 208L432 376C432 406.9 406.9 432 376 432L280 432L280 424L280 296L280 288z"/><path fill="currentColor" d="M320 80C452.5 80 560 187.5 560 320C560 452.5 452.5 560 320 560C187.5 560 80 452.5 80 320C80 187.5 187.5 80 320 80zM320 576C461.4 576 576 461.4 576 320C576 178.6 461.4 64 320 64C178.6 64 64 178.6 64 320C64 461.4 178.6 576 320 576zM432 216L432 208L416 208L416 376C416 398.1 398.1 416 376 416L296 416L296 296L296 288L280 288L280 296L280 424L280 432L376 432C406.9 432 432 406.9 432 376L432 216zM216 208L208 208L208 432L224 432L224 224L304 224C326.1 224 344 241.9 344 264L344 352L360 352L360 264C360 233.1 334.9 208 304 208L216 208z"/></svg>