<svg xmlns="http://www.w3.org/2000/svg" viewBox="0 0 640 640"><!--! Font Awesome Pro 7.2.0 by @fontawesome - https://fontawesome.com License - https://fontawesome.com/license (Commercial License) Copyright 2026 Fonticons, Inc. --><path opacity=".4" fill="currentColor" d="M80 320C80 452.5 187.5 560 320 560C452.5 560 560 452.5 560 320C560 187.5 452.5 80 320 80C187.5 80 80 187.5 80 320zM208 393.2C208 369.8 219.4 347.9 238.5 334.4L277.8 306.7L255.6 283.6C245.6 273.2 240 259.3 240 244.8L240 192.1L360 192.1L360 243.4C360 259 352.4 273.6 339.7 282.6L302.2 309L371.8 381.5L417.7 323.1L422.6 316.8L435.2 326.7L430.3 333L383 393.2L435.7 448.1L413.5 448.1L373 405.9L342.3 445L339.9 448.1L208 448.1L208 393.3zM224 393.2L224 432L332.1 432L361.8 394.2L289 318.3L247.7 347.4C232.8 357.9 224 375 224 393.2zM256 208L256 244.7C256 255 260 264.9 267.1 272.4L291 297.3L330.4 269.5C338.9 263.5 343.9 253.8 343.9 243.4L343.9 208.1L255.9 208.1z"/><path fill="currentColor" d="M320 80C452.5 80 560 187.5 560 320C560 452.5 452.5 560 320 560C187.5 560 80 452.5 80 320C80 187.5 187.5 80 320 80zM320 576C461.4 576 576 461.4 576 320C576 178.6 461.4 64 320 64C178.6 64 64 178.6 64 320C64 461.4 178.6 576 320 576zM240 192L240 244.7C240 259.2 245.6 273 255.6 283.5L277.8 306.6L238.5 334.3C219.4 347.8 208 369.7 208 393.1L208 447.9L339.9 447.9L342.3 444.8L373 405.7L413.5 447.9L435.7 447.9L383 393L430.3 332.8L435.2 326.5L422.6 316.6L417.7 322.9L371.8 381.3L302.2 308.8L339.7 282.4C352.4 273.4 360 258.8 360 243.2L360 191.9L240 191.9zM291 297.3L267.1 272.4C260 264.9 256 255 256 244.7L256 208L344 208L344 243.3C344 253.7 338.9 263.4 330.5 269.4L291 297.3zM289 318.3L361.8 394.2L332.1 432L224 432L224 393.2C224 375 232.8 357.9 247.7 347.4L289 318.3z"/></svg>