<svg xmlns="http://www.w3.org/2000/svg" viewBox="0 0 640 640"><!--! Font Awesome Pro 7.2.0 by @fontawesome - https://fontawesome.com License - https://fontawesome.com/license (Commercial License) Copyright 2026 Fonticons, Inc. --><path opacity=".4" fill="currentColor" d="M144 112L144 560L496 560L496 112L432 112L432 160L208 160L208 112L144 112zM205.6 359.6L218.1 349.6C219.2 350.9 227 360.8 241.8 379.2L280.9 330.9L285.9 324.7L298.3 334.8L293.3 341L248 397L241.7 404.7C240.7 403.4 230.3 390.5 210.6 365.8L205.6 359.6zM224 256L256 256L256 288L224 288L224 256zM224 448L256 448L256 480L224 480L224 448zM304 264L432 264L432 280L304 280L304 264zM304 456L432 456L432 472L304 472L304 456zM320 360L432 360L432 376L320 376L320 360z"/><path fill="currentColor" d="M208 160L208 112L144 112L144 560L496 560L496 112L432 112L432 160L208 160zM144 96L208 96L208 64L432 64L432 96L512 96L512 576L128 576L128 96L144 96zM416 80L224 80L224 144L416 144L416 80zM312 264L432 264L432 280L304 280L304 264L312 264zM312 456L432 456L432 472L304 472L304 456L312 456zM224 448L256 448L256 480L224 480L224 448zM256 256L256 288L224 288L224 256L256 256zM298.4 334.8L293.4 341L248.1 397L241.8 404.7C240.8 403.4 230.4 390.5 210.7 365.8L205.7 359.6L218.2 349.6C219.3 350.9 227.1 360.8 241.9 379.2L281 330.9L286 324.7L298.4 334.8zM328 360L432 360L432 376L320 376L320 360L328 360z"/></svg>