<svg xmlns="http://www.w3.org/2000/svg" viewBox="0 0 640 640"><!--! Font Awesome Pro 7.2.0 by @fontawesome - https://fontawesome.com License - https://fontawesome.com/license (Commercial License) Copyright 2026 Fonticons, Inc. --><path opacity=".4" fill="currentColor" d="M144 112L144 560L496 560L496 112L432 112L432 160L208 160L208 112L144 112zM224 312L280 312L280 256L360 256L360 312L416 312L416 392L360 392L360 448L280 448L280 392L224 392L224 312z"/><path fill="currentColor" d="M208 160L208 112L144 112L144 560L496 560L496 112L432 112L432 160L208 160zM144 96L208 96L208 64L432 64L432 96L512 96L512 576L128 576L128 96L144 96zM416 80L224 80L224 144L416 144L416 80zM288 256L360 256L360 312L416 312L416 392L360 392L360 448L280 448L280 392L224 392L224 312L280 312L280 256L288 256zM296 320L296 328L240 328L240 376L296 376L296 432L344 432L344 376L400 376L400 328L344 328L344 272L296 272L296 320z"/></svg>