<svg xmlns="http://www.w3.org/2000/svg" viewBox="0 0 640 640"><!--! Font Awesome Pro 7.2.0 by @fontawesome - https://fontawesome.com License - https://fontawesome.com/license (Commercial License) Copyright 2026 Fonticons, Inc. --><path opacity=".4" fill="currentColor" d="M144 112L144 560L496 560L496 112L432 112L432 160L208 160L208 112L144 112zM220.8 372.1L232.3 361L237.9 366.8L293.6 424.4L401.7 275.7L406.4 269.2L419.3 278.6L414.6 285.1L300.9 441.5L295.3 449.2L288.7 442.4L226.4 377.9L220.8 372.1z"/><path fill="currentColor" d="M432 96L512 96L512 576L128 576L128 96L208 96L208 64L432 64L432 96zM144 560L496 560L496 112L432 112L432 160L208 160L208 112L144 112L144 560zM419.3 278.7L414.6 285.2L300.9 441.6L295.3 449.3L288.7 442.5L226.4 378L220.8 372.2L232.3 361.1L237.9 366.9L293.6 424.5L401.7 275.8L406.4 269.3L419.3 278.7zM224 144L416 144L416 80L224 80L224 144z"/></svg>