<svg xmlns="http://www.w3.org/2000/svg" viewBox="0 0 640 640"><!--! Font Awesome Pro 7.2.0 by @fontawesome - https://fontawesome.com License - https://fontawesome.com/license (Commercial License) Copyright 2026 Fonticons, Inc. --><path opacity=".4" fill="currentColor" d="M144 112L144 560L496 560L496 112L432 112L432 160L208 160L208 112L144 112zM218.7 512L240 448L400 448L421.3 512L218.6 512zM384 352C384 387.3 355.3 416 320 416C284.7 416 256 387.3 256 352C256 316.7 284.7 288 320 288C355.3 288 384 316.7 384 352z"/><path fill="currentColor" d="M208 160L208 112L144 112L144 560L496 560L496 112L432 112L432 160L208 160zM144 96L208 96L208 64L432 64L432 96L512 96L512 576L128 576L128 96L144 96zM416 80L224 80L224 144L416 144L416 80zM368 352C368 325.5 346.5 304 320 304C293.5 304 272 325.5 272 352C272 378.5 293.5 400 320 400C346.5 400 368 378.5 368 352zM256 352C256 316.7 284.7 288 320 288C355.3 288 384 316.7 384 352C384 387.3 355.3 416 320 416C284.7 416 256 387.3 256 352zM251.5 464L235.5 512L218.6 512L239.9 448L399.9 448L421.2 512L404.3 512L388.3 464L251.4 464z"/></svg>