<svg xmlns="http://www.w3.org/2000/svg" viewBox="0 0 640 640"><!--! Font Awesome Pro 7.2.0 by @fontawesome - https://fontawesome.com License - https://fontawesome.com/license (Commercial License) Copyright 2026 Fonticons, Inc. --><path opacity=".4" fill="currentColor" d="M112 288C112 402.9 205.1 496 320 496C434.9 496 528 402.9 528 288C528 173.1 434.9 80 320 80C205.1 80 112 173.1 112 288zM312 160L328 160L328 284.7L381.7 338.4L387.4 344.1L376.1 355.4L370.4 349.7L314.4 293.7L312.1 291.4L312.1 160.1z"/><path fill="currentColor" d="M112 288C112 173.1 205.1 80 320 80C434.9 80 528 173.1 528 288C528 402.9 434.9 496 320 496C205.1 496 112 402.9 112 288zM528 371.3L528 560L112 560L112 371.3C145.1 453.8 225.7 512 320 512C414.3 512 494.9 453.8 528 371.3zM96 288L96 576L544 576L544 288C544 164.3 443.7 64 320 64C196.3 64 96 164.3 96 288zM328 160L312 160L312 291.3L314.3 293.6L370.3 349.6L376 355.3L387.3 344L381.6 338.3L327.9 284.6L327.9 159.9z"/></svg>