<svg xmlns="http://www.w3.org/2000/svg" viewBox="0 0 640 640"><!--! Font Awesome Pro 7.2.0 by @fontawesome - https://fontawesome.com License - https://fontawesome.com/license (Commercial License) Copyright 2026 Fonticons, Inc. --><path opacity=".4" fill="currentColor" d="M80 320C80 452.5 187.5 560 320 560C452.5 560 560 452.5 560 320C560 187.5 452.5 80 320 80C187.5 80 80 187.5 80 320zM312 293.6C313.5 295.9 339.8 335.3 390.7 411.6L395.1 418.3L381.8 427.2L377.4 420.5L328.1 346.5L328.1 480.1L312.1 480.1L312.1 293.7z"/><path fill="currentColor" d="M80 320C80 187.5 187.5 80 320 80C452.5 80 560 187.5 560 320C560 452.5 452.5 560 320 560C187.5 560 80 452.5 80 320zM576 320C576 178.6 461.4 64 320 64C178.6 64 64 178.6 64 320C64 461.4 178.6 576 320 576C461.4 576 576 461.4 576 320zM328 472L328 346.4L377.3 420.4L381.7 427.1L395 418.2L390.6 411.5C339.7 335.2 313.5 295.8 311.9 293.5L311.9 479.9L327.9 479.9L327.9 471.9z"/></svg>