<svg xmlns="http://www.w3.org/2000/svg" viewBox="0 0 640 640"><!--! Font Awesome Pro 7.2.0 by @fontawesome - https://fontawesome.com License - https://fontawesome.com/license (Commercial License) Copyright 2026 Fonticons, Inc. --><path opacity=".4" fill="currentColor" d="M80 320C80 452.5 187.5 560 320 560C452.5 560 560 452.5 560 320C560 187.5 452.5 80 320 80C187.5 80 80 187.5 80 320zM212.9 381.8L219.6 377.4L312 315.8L312 160.1L328 160.1L328 324.4L324.4 326.8L228.4 390.8L221.7 395.2L212.8 381.9z"/><path fill="currentColor" d="M560 320C560 187.5 452.5 80 320 80C187.5 80 80 187.5 80 320C80 452.5 187.5 560 320 560C452.5 560 560 452.5 560 320zM64 320C64 178.6 178.6 64 320 64C461.4 64 576 178.6 576 320C576 461.4 461.4 576 320 576C178.6 576 64 461.4 64 320zM328 168L328 324.3L324.4 326.7L228.4 390.7L221.7 395.1L212.8 381.8L219.5 377.4L311.9 315.8L311.9 160.1L327.9 160.1L327.9 168.1z"/></svg>