<svg xmlns="http://www.w3.org/2000/svg" viewBox="0 0 640 640"><!--! Font Awesome Pro 7.2.0 by @fontawesome - https://fontawesome.com License - https://fontawesome.com/license (Commercial License) Copyright 2026 Fonticons, Inc. --><path opacity=".4" fill="currentColor" d="M48 496L48 560L368 560L368 496C368 465.3 346.4 439.7 317.6 433.4L310.3 431.8L311.4 424.4C316.4 391.3 289.8 360 256 360C243.8 360 232.6 363.9 223.4 370.4L216.6 375.2L212 368.3C199.1 348.8 177 336 151.9 336C112.1 336 79.9 368.2 79.9 408C79.9 416.1 81.2 423.8 83.7 431L85.8 437.2L80.1 440.4C60.9 451.5 48 472.3 48 496zM64.2 256L108.4 285.7C126.4 276.9 146.6 272 167.9 272C180 272 191.8 273.6 202.9 276.6C202.9 276.6 202.9 276.6 202.9 276.5C200 275.7 197.1 275.1 194.2 274.5C192.8 268.5 192 262.3 192 255.9C192 211.7 227.8 175.9 272 175.9C309.5 175.9 340.9 201.8 349.6 236.6C347.2 238.1 344.8 239.6 342.5 241.2L342.5 241.2C364.8 225.9 391.6 216.7 420.5 216C412.7 210.8 406.1 206.3 400.6 202.7L402.6 192.3L418.9 109.1L335.7 125.4L325.3 127.4L319.4 118.6L272 48.2L224.7 118.5L218.8 127.3L208.4 125.3L125.2 109L141.5 192.3L143.6 202.7L134.8 208.6L64.4 255.9zM357.3 332.8C368.7 346.9 377 363.7 381.1 382C412 406.9 431.9 445.1 431.9 488C431.9 493.4 431.5 498.8 430.9 504L431.9 504L431.9 496L591.9 496L591.9 424C591.9 384.2 559.7 352 519.9 352C514.6 352 509.3 352.6 504.3 353.7L496.2 355.5L494.7 347.3C488.7 313.6 459.3 288 423.9 288C393.8 288 368 306.5 357.2 332.7z"/><path fill="currentColor" d="M152 320C179.9 320 204.7 333 220.8 353.2C231.2 347.4 243.2 344 256 344C297.1 344 329.7 379.7 327.8 419.6C360.3 429.7 384 460.1 384 496L384 576L32 576L32 496C32 468.6 45.8 444.4 66.8 430C65 423 64 415.6 64 408C64 359.4 103.4 320 152 320zM152 336C112.2 336 80 368.2 80 408C80 416.1 81.3 423.8 83.8 431L85.9 437.2L80.2 440.4C60.9 451.5 48 472.3 48 496L48 560L368 560L368 496C368 465.3 346.4 439.7 317.6 433.4L310.3 431.8L311.4 424.4C316.4 391.3 289.8 360 256 360C243.8 360 232.6 363.9 223.4 370.4L216.6 375.2L212 368.3C199.1 348.8 177 336 151.9 336zM424 272C464.5 272 498.6 299.4 508.8 336.7C512.5 336.2 516.2 336 520 336C568.6 336 608 375.4 608 424L608 512L432 512L432 496L592 496L592 424C592 384.2 559.8 352 520 352C514.7 352 509.4 352.6 504.4 353.7L496.3 355.5L494.8 347.3C488.8 313.6 459.4 288 424 288C393.9 288 368.1 306.5 357.3 332.7C353.7 328.2 349.8 324 345.5 320.1C360 291.6 389.7 272 423.9 272zM332.6 109.6L439.1 88.8L418.3 195.3L453.6 219.1C444 217.1 434.1 216 423.9 216C422.7 216 421.6 216 420.4 216.1C412.6 210.9 406 206.4 400.5 202.8L402.5 192.4L418.8 109.2L335.6 125.5L325.2 127.5L319.3 118.7L271.9 48.3L224.6 118.6L218.7 127.4L208.3 125.4L125.1 109.1L141.4 192.4L143.5 202.8L134.7 208.7L64.3 256L108.5 285.8C103.1 288.4 97.9 291.4 93 294.6L35.6 256L125.7 195.3L104.8 88.8L211.4 109.7L272 19.6L332.6 109.6zM272 176C309.5 176 340.9 201.9 349.6 236.7C344.6 239.7 339.8 243.1 335.3 246.6C330.8 215.7 304.2 192 272.1 192C236.8 192 208.1 220.7 208.1 256C208.1 264.3 209.7 272.2 212.6 279.5C206.7 277.5 200.6 275.8 194.4 274.6C193 268.6 192.2 262.4 192.2 256C192.2 211.8 228 176 272.2 176z"/></svg>