<svg xmlns="http://www.w3.org/2000/svg" viewBox="0 0 640 640"><!--! Font Awesome Pro 7.2.0 by @fontawesome - https://fontawesome.com License - https://fontawesome.com/license (Commercial License) Copyright 2026 Fonticons, Inc. --><path opacity=".4" fill="currentColor" d="M48 400L48 528L592 528L592 416C592 373 567.8 335.7 532.3 316.9L528 314.6L528 255.9C528 211.7 492.2 175.9 448 175.9C430.4 175.9 414.2 181.6 401 191.1L393 196.9L389 187.9C369.1 143.1 324.2 111.9 272 111.9C201.3 111.9 144 169.2 144 239.9L144 275.8L138.3 277.5C86 293.7 48 342.4 48 400zM240 240L320 240L320 336L240 336L240 240zM256 256L256 320L304 320L304 256L256 256zM256 368L288 368L288 464L272 464L272 384L256 384L256 368zM352 368L432 368L432 464L352 464L352 368zM368 240L400 240L400 336L384 336L384 256L368 256L368 240zM368 384L368 448L416 448L416 384L368 384z"/><path fill="currentColor" d="M128 240C128 160.5 192.5 96 272 96C327.4 96 375.5 127.3 399.6 173.1C413.8 164.8 430.4 160 448 160C501 160 544 203 544 256L544 305.1C582.2 327.2 608 368.6 608 416L608 544L32 544L32 400C32 337.3 72.1 284 128 264.2L128 240zM272 112C201.3 112 144 169.3 144 240L144 275.9L138.3 277.6C86 293.7 48 342.4 48 400L48 528L592 528L592 416C592 373 567.8 335.7 532.3 316.9L528 314.6L528 255.9C528 211.7 492.2 175.9 448 175.9C430.4 175.9 414.2 181.6 401 191.1L393 196.9L389 187.9C369.1 143.1 324.2 111.9 272 111.9zM240 240L320 240L320 336L240 336L240 240zM256 256L256 320L304 320L304 256L256 256zM376 240L400 240L400 336L384 336L384 256L368 256L368 240L376 240zM256 368L288 368L288 464L272 464L272 384L256 384L256 368zM360 368L432 368L432 464L352 464L352 368L360 368zM368 448L416 448L416 384L368 384L368 448z"/></svg>