<svg xmlns="http://www.w3.org/2000/svg" viewBox="0 0 640 640"><!--! Font Awesome Pro 7.2.0 by @fontawesome - https://fontawesome.com License - https://fontawesome.com/license (Commercial License) Copyright 2026 Fonticons, Inc. --><path opacity=".4" fill="currentColor" d="M112 80L112 176L208 176L208 80L112 80zM272 464L272 560L368 560L368 464L272 464zM432 80L432 176L528 176L528 80L432 80z"/><path fill="currentColor" d="M208 80L208 176L112 176L112 80L208 80zM112 64L96 64L96 192L152 192L152 248C152 296.6 191.4 336 240 336L312 336L312 448L256 448L256 576L384 576L384 448L328 448L328 336L400 336C448.6 336 488 296.6 488 248L488 192L544 192L544 64L416 64L416 192L472 192L472 248C472 287.8 439.8 320 400 320L240 320C200.2 320 168 287.8 168 248L168 192L224 192L224 64L112 64zM368 464L368 560L272 560L272 464L368 464zM432 80L528 80L528 176L432 176L432 80z"/></svg>