<svg xmlns="http://www.w3.org/2000/svg" viewBox="0 0 640 640"><!--! Font Awesome Pro 7.2.0 by @fontawesome - https://fontawesome.com License - https://fontawesome.com/license (Commercial License) Copyright 2026 Fonticons, Inc. --><path opacity=".4" fill="currentColor" d="M145.6 211.4L247.8 80L392.2 80L494.4 211.4L395.9 560L244.1 560L145.6 211.4zM224 240L224 256L312 256L312 416L328 416L328 256L416 256L416 240L328 240L328 160L312 160L312 240L224 240z"/><path fill="currentColor" d="M145.6 211.4L247.8 80L392.2 80L494.4 211.4L395.9 560L244.1 560L145.6 211.4zM232 576L408 576L512 208L400 64L240 64L128 208L232 576zM328 168L328 160L312 160L312 240L224 240L224 256L312 256L312 416L328 416L328 256L416 256L416 240L328 240L328 168z"/></svg>