<svg xmlns="http://www.w3.org/2000/svg" viewBox="0 0 640 640"><!--! Font Awesome Pro 7.2.0 by @fontawesome - https://fontawesome.com License - https://fontawesome.com/license (Commercial License) Copyright 2026 Fonticons, Inc. --><path opacity=".4" fill="currentColor" d="M48 208C48 242.2 59.8 273.9 80 300L85.2 306.8L82.5 314.9L57.2 390.7L153.9 358.5L158.9 356.8L163.9 358.5C182.6 364.7 202.8 368 223.9 368C322.4 368 399.9 295.1 399.9 208C399.9 120.9 322.5 48 224 48C125.5 48 48 120.9 48 208zM162.8 165.2C162.8 131.4 190.2 104 224 104C257.8 104 285.2 131.4 285.2 165.2C285.2 192.3 269.4 207.9 254.5 216.2C246 221 237.6 223.6 232 224.9L232 247.9L216 247.9L216 211.3L216.8 211.2C221.4 210.6 225.7 210.1 230.2 208.9C234.8 207.7 240.8 205.6 246.7 202.3C258.4 195.7 269.2 184.7 269.2 165.2C269.2 140.2 249 120 224 120C199 120 178.8 140.2 178.8 165.2L162.8 165.2zM208 280L240 280L240 312L208 312L208 280zM243.4 431.3C259.3 503.9 329.5 560 416 560C437.1 560 457.3 556.6 476 550.5L481 548.8L486 550.5L582.7 582.7L557.4 506.9L554.7 498.8L559.9 492C580.2 465.9 591.9 434.1 591.9 400C591.9 326.6 536.9 263.3 460.7 245.2C442.6 347.7 350.8 423.1 243.3 431.3z"/><path fill="currentColor" d="M85.3 306.8L82.6 314.9L57.3 390.7L154 358.5L159 356.8L164 358.5C182.7 364.7 202.9 368 224 368C322.5 368 400 295.1 400 208C400 120.9 322.5 48 224 48C125.5 48 48 120.9 48 208C48 242.2 59.8 273.9 80 300L85.2 306.8zM51 409.7L32 416C32.4 414.7 44.2 379.3 67.4 309.8C45.1 281.1 32 245.9 32 208C32 110.8 118 32 224 32C330 32 416 110.8 416 208C416 305.2 330 384 224 384C201.2 384 179.3 380.4 159 373.7L51 409.7zM227.2 432C232.6 431.9 238.1 431.7 243.4 431.3C259.3 503.9 329.5 560 416 560C437.1 560 457.3 556.6 476 550.5L481 548.8L486 550.5L582.7 582.7L557.4 506.9L554.7 498.8L559.9 492C580.2 465.9 591.9 434.1 591.9 400C591.9 326.6 536.9 263.3 460.7 245.2C461.6 240 462.4 234.7 462.9 229.3C546.2 248.5 607.9 317.6 607.9 400C607.9 437.9 594.8 473.1 572.5 501.8L601.6 589L607.9 608L588.9 601.7L480.9 565.7C460.6 572.4 438.7 576 415.9 576C321.8 576 243.5 513.9 227.1 432zM224 120C199 120 178.8 140.2 178.8 165.2L162.8 165.2C162.8 131.4 190.2 104 224 104C257.8 104 285.2 131.4 285.2 165.2C285.2 192.3 269.4 207.9 254.5 216.2C246 221 237.6 223.6 232 224.9L232 247.9L216 247.9L216 211.3L216.8 211.2C221.4 210.6 225.7 210.1 230.2 208.9C234.8 207.7 240.8 205.6 246.7 202.3C258.4 195.7 269.2 184.7 269.2 165.2C269.2 140.2 249 120 224 120zM208 280L240 280L240 312L208 312L208 280z"/></svg>