<svg xmlns="http://www.w3.org/2000/svg" viewBox="0 0 640 640"><!--! Font Awesome Pro 7.2.0 by @fontawesome - https://fontawesome.com License - https://fontawesome.com/license (Commercial License) Copyright 2026 Fonticons, Inc. --><path opacity=".4" fill="currentColor" d="M80 112L80 496L208 496L208 579.7L347.6 496L560 496L560 112L80 112zM224 264L280 264L280 208L360 208L360 264L416 264L416 344L360 344L360 400L280 400L280 344L224 344L224 264z"/><path fill="currentColor" d="M576 512L352 512L192 608L192 512L64 512L64 96L576 96L576 512zM347.6 496L560 496L560 112L80 112L80 496L208 496L208 579.7L347.6 496zM288 208L360 208L360 264L416 264L416 344L360 344L360 400L280 400L280 344L224 344L224 264L280 264L280 208L288 208zM296 272L296 280L240 280L240 328L296 328L296 384L344 384L344 328L400 328L400 280L344 280L344 224L296 224L296 272z"/></svg>