<svg xmlns="http://www.w3.org/2000/svg" viewBox="0 0 640 640"><!--! Font Awesome Pro 7.2.0 by @fontawesome - https://fontawesome.com License - https://fontawesome.com/license (Commercial License) Copyright 2026 Fonticons, Inc. --><path opacity=".4" fill="currentColor" d="M80 112L80 496L247.5 496L252.3 501.8L320 583.1L387.7 501.8L392.5 496L560 496L560 112L80 112z"/><path fill="currentColor" d="M247.5 496L252.3 501.8L320 583.1L387.7 501.8L392.5 496L560 496L560 112L80 112L80 496L247.5 496zM80 512L64 512L64 96L576 96L576 512L400 512L330.4 595.5L320 608L309.6 595.5L240 512L80 512z"/></svg>