<svg xmlns="http://www.w3.org/2000/svg" viewBox="0 0 640 640"><!--! Font Awesome Pro 7.2.0 by @fontawesome - https://fontawesome.com License - https://fontawesome.com/license (Commercial License) Copyright 2026 Fonticons, Inc. --><path opacity=".4" fill="currentColor" d="M80 112L80 496L208 496L208 579.7L347.6 496L560 496L560 112L80 112zM160 320L352 320L352 336L160 336L160 320zM160 400L272 400L272 416L160 416L160 400zM320 400L480 400L480 416L320 416L320 400zM400 320L480 320L480 336L400 336L400 320z"/><path fill="currentColor" d="M576 512L352 512L192 608L192 512L64 512L64 96L576 96L576 512zM347.6 496L560 496L560 112L80 112L80 496L208 496L208 579.7L347.6 496zM168 320L352 320L352 336L160 336L160 320L168 320zM408 320L480 320L480 336L400 336L400 320L408 320zM168 400L272 400L272 416L160 416L160 400L168 400zM328 400L480 400L480 416L320 416L320 400L328 400z"/></svg>