<svg xmlns="http://www.w3.org/2000/svg" viewBox="0 0 640 640"><!--! Font Awesome Pro 7.2.0 by @fontawesome - https://fontawesome.com License - https://fontawesome.com/license (Commercial License) Copyright 2026 Fonticons, Inc. --><path opacity=".4" fill="currentColor" d="M48 112L48 448L272 448L272 112L48 112zM336 112L336 528L592 528L592 112L336 112zM544 400C544 444.2 508.2 480 464 480C419.8 480 384 444.2 384 400C384 355.8 419.8 320 464 320C508.2 320 544 355.8 544 400zM496 192C496 209.7 481.7 224 464 224C446.3 224 432 209.7 432 192C432 174.3 446.3 160 464 160C481.7 160 496 174.3 496 192z"/><path fill="currentColor" d="M48 96L32 96L32 464L272 464L272 448L48 448L48 112L272 112L272 96L48 96zM136 528L128 528L128 544L272 544L272 528L136 528zM592 112L592 528L336 528L336 112L592 112zM336 96L320 96L320 544L608 544L608 96L336 96zM400 400C400 364.7 428.7 336 464 336C499.3 336 528 364.7 528 400C528 435.3 499.3 464 464 464C428.7 464 400 435.3 400 400zM544 400C544 355.8 508.2 320 464 320C419.8 320 384 355.8 384 400C384 444.2 419.8 480 464 480C508.2 480 544 444.2 544 400zM464 208C455.2 208 448 200.8 448 192C448 183.2 455.2 176 464 176C472.8 176 480 183.2 480 192C480 200.8 472.8 208 464 208zM432 192C432 209.7 446.3 224 464 224C481.7 224 496 209.7 496 192C496 174.3 481.7 160 464 160C446.3 160 432 174.3 432 192zM480 400C480 408.8 472.8 416 464 416C455.2 416 448 408.8 448 400C448 391.2 455.2 384 464 384C472.8 384 480 391.2 480 400zM464 368C446.3 368 432 382.3 432 400C432 417.7 446.3 432 464 432C481.7 432 496 417.7 496 400C496 382.3 481.7 368 464 368z"/></svg>