<svg xmlns="http://www.w3.org/2000/svg" viewBox="0 0 640 640"><!--! Font Awesome Pro 7.2.0 by @fontawesome - https://fontawesome.com License - https://fontawesome.com/license (Commercial License) Copyright 2026 Fonticons, Inc. --><path opacity=".4" fill="currentColor" d="M80 320C80 452.5 187.5 560 320 560C452.5 560 560 452.5 560 320C560 187.5 452.5 80 320 80C187.5 80 80 187.5 80 320zM192 448L197 430L248 248L430 197L448 192L443 210L392 392L210 443L192 448zM251.6 294.6L262.3 262.4L294.5 251.7L260.9 261.1L251.5 294.7zM304 320C304 328.8 311.2 336 320 336C328.8 336 336 328.8 336 320C336 311.2 328.8 304 320 304C311.2 304 304 311.2 304 320zM345.4 388.4L379.1 379L388.5 345.3L377.7 377.6L345.4 388.4z"/><path fill="currentColor" d="M320 80C452.5 80 560 187.5 560 320C560 452.5 452.5 560 320 560C187.5 560 80 452.5 80 320C80 187.5 187.5 80 320 80zM320 576C461.4 576 576 461.4 576 320C576 178.6 461.4 64 320 64C178.6 64 64 178.6 64 320C64 461.4 178.6 576 320 576zM197 430L192 448L210 443L392 392L443 210L448 192L430 197L248 248L197 430zM215 425L261 261L424.9 215.1L379 379L215.1 424.9zM304 320C304 311.2 311.2 304 320 304C328.8 304 336 311.2 336 320C336 328.8 328.8 336 320 336C311.2 336 304 328.8 304 320zM352 320C352 302.3 337.7 288 320 288C302.3 288 288 302.3 288 320C288 337.7 302.3 352 320 352C337.7 352 352 337.7 352 320z"/></svg>