<svg xmlns="http://www.w3.org/2000/svg" viewBox="0 0 640 640"><!--! Font Awesome Pro 7.2.0 by @fontawesome - https://fontawesome.com License - https://fontawesome.com/license (Commercial License) Copyright 2026 Fonticons, Inc. --><path opacity=".4" fill="currentColor" d="M80 346.7L80 456.9L108.1 487.4L212.8 382.7C234.1 361.4 260.1 345.7 288.2 336.6L288.2 325.2C288.2 259.9 262.5 197.3 216.6 150.9L197.8 207.3C196.1 212.3 193.5 217 190 221L80 346.7zM113.8 493.5L175.2 560L293 560L401.9 451.1C406 447 411 443.8 416.5 441.8L489.4 415.3L468.1 394C435.7 361.6 391.9 343.5 346.1 343.5C300.3 343.5 256.5 361.7 224.1 394L119.1 499L113.7 493.6z"/><path fill="currentColor" d="M517.9 64C502.8 64 488.9 69.8 478.6 79.3C470.4 74.9 461 72.4 451 72.4C430.8 72.4 413 82.7 402.6 98.3C399.3 97.7 396 97.4 392.5 97.4C372.3 97.4 354.5 107.7 344.1 123.3C340.8 122.7 337.5 122.4 334 122.4C313.2 122.4 295 133.3 284.7 149.7C288.3 154.6 291.7 159.5 295 164.6C301.3 149.3 316.4 138.5 334 138.5C338.1 138.5 342 139.1 345.8 140.2L352.1 142L355.1 136.2C362.1 122.7 376.3 113.5 392.5 113.5C396.6 113.5 400.5 114.1 404.3 115.2L410.6 117L413.6 111.2C420.6 97.7 434.8 88.5 451 88.5C460 88.5 468.4 91.3 475.2 96.1L481.1 100.3L485.8 94.8C493.5 85.8 505 80.1 517.8 80.1C541.1 80.1 559.9 99 559.9 122.2C559.9 135 554.2 146.4 545.2 154.2L539.7 158.9L543.9 164.8C548.7 171.6 551.5 180 551.5 189C551.5 205.3 542.3 219.4 528.8 226.4L523 229.4L524.8 235.7C525.9 239.4 526.5 243.4 526.5 247.5C526.5 263.8 517.3 277.9 503.8 284.9L498 287.9L499.8 294.2C500.9 297.9 501.5 301.9 501.5 306C501.5 319.4 495.3 331.3 485.5 339C489.6 342.4 493.7 346 497.6 349.8C509.8 339.1 517.5 323.5 517.5 306C517.5 302.6 517.2 299.2 516.6 295.9C532.2 285.5 542.5 267.7 542.5 247.5C542.5 244.1 542.2 240.7 541.6 237.4C557.2 227 567.5 209.2 567.5 189C567.5 179 565 169.7 560.6 161.4C570.1 151.1 575.9 137.3 575.9 122.1C575.9 90 549.9 64 517.8 64zM218.9 130.3L209.7 121.1L205.6 133.4L182.7 202.1C181.7 205.1 180.1 207.9 178 210.3L65.9 338.4L63.9 340.7L63.9 463.1L66 465.4L165.7 573.4L168.1 576L299.5 576L301.8 573.7L413.1 462.4C415.6 459.9 418.6 458 421.9 456.8L506.6 426L518.4 421.7C516 419.3 503 406.3 479.3 382.6C443.9 347.2 396 327.4 346 327.4C331.8 327.4 317.8 329 304.2 332.1L304.2 325.1C304.2 255.1 276.4 187.9 226.9 138.4L218.8 130.3zM288.3 325.1L288.3 336.5C260.1 345.6 234.2 361.3 212.9 382.6L108.1 487.3L80 456.9L80 346.7L190.1 220.9C193.6 216.9 196.3 212.2 197.9 207.2L216.7 150.8C262.5 197.2 288.3 259.8 288.3 325.1zM175.2 560L113.8 493.5L119.2 498.9L224.2 393.9C256.6 361.5 300.4 343.4 346.2 343.4C392 343.4 435.8 361.6 468.2 393.9L489.5 415.2L416.6 441.7C411.1 443.7 406.1 446.9 402 451L293 560L175.2 560z"/></svg>