<svg xmlns="http://www.w3.org/2000/svg" viewBox="0 0 640 640"><!--! Font Awesome Pro 7.2.0 by @fontawesome - https://fontawesome.com License - https://fontawesome.com/license (Commercial License) Copyright 2026 Fonticons, Inc. --><path opacity=".4" fill="currentColor" d="M80 144L80 496L560 496L560 144L80 144zM144 416L240 416L240 432L144 432L144 416zM160 224L288 224L288 320L160 320L160 224zM272 416L368 416L368 432L272 432L272 416zM400 416L496 416L496 432L400 432L400 416z"/><path fill="currentColor" d="M560 144L560 496L80 496L80 144L560 144zM80 128L64 128L64 512L576 512L576 128L80 128zM144 416L144 432L240 432L240 416L144 416zM272 416L272 432L368 432L368 416L272 416zM400 416L400 432L496 432L496 416L400 416zM176 240L272 240L272 304L176 304L176 240zM160 224L160 320L288 320L288 224L160 224z"/></svg>