<svg xmlns="http://www.w3.org/2000/svg" viewBox="0 0 640 640"><!--! Font Awesome Pro 7.2.0 by @fontawesome - https://fontawesome.com License - https://fontawesome.com/license (Commercial License) Copyright 2026 Fonticons, Inc. --><path opacity=".4" fill="currentColor" d="M112 296L112 352L528 352L528 296C528 249.6 492 211.5 446.4 208.2L437.5 207.6L439.2 198.8C439.8 195.7 440.1 192.6 440.1 189.4C440.1 129 391.1 80.1 330.8 80.1L319.1 80.1L321.7 83.9C325.9 90.3 328.2 97.7 328.2 105.4C328.2 126.8 310.9 144.1 289.5 144.1L248 144C221.5 144 200 165.5 200 192C200 194.4 200.2 196.8 200.5 199.1L201.8 207.6L193.2 208.3C147.8 211.7 112 249.7 112 296z"/><path fill="currentColor" d="M304 64L289.1 64C294.2 71.7 300.6 81.2 308.2 92.7C310.7 96.4 312 100.8 312 105.3C312 117.8 301.8 128 289.3 128L248 128C212.7 128 184 156.7 184 192C184 192.4 184 192.8 184 193.2C134.1 200.9 96 244 96 296L96 368L162.3 368L192 576L448 576L477.7 368L544 368L544 296C544 244 505.8 200.9 455.9 193.2C456 191.9 456 190.6 456 189.3C456 120.1 399.9 64 330.7 64L304 64zM461.6 368L434.2 560L368.1 560L384 368.7L384.1 368L461.6 368zM368 368L352.1 559.3L352 560L288.1 560L288 559.3L272.1 368L368 368zM256 368L256.1 368.7L272 560L205.9 560L178.5 368L256 368zM321.5 83.8L318.9 80L330.6 80C391 80 439.9 129 439.9 189.3C439.9 192.5 439.6 195.7 439 198.7L437.3 207.5L446.2 208.1C492 211.5 528 249.6 528 296L528 352L112 352L112 296C112 249.7 147.8 211.7 193.2 208.3L201.8 207.6L200.5 199.1C200.2 196.8 200 194.4 200 192C200 165.5 221.5 144 248 144L289.3 144C310.7 144 328 126.7 328 105.3C328 97.7 325.7 90.2 321.5 83.8z"/></svg>