<svg xmlns="http://www.w3.org/2000/svg" viewBox="0 0 640 640"><!--! Font Awesome Pro 7.2.0 by @fontawesome - https://fontawesome.com License - https://fontawesome.com/license (Commercial License) Copyright 2026 Fonticons, Inc. --><path opacity=".4" fill="currentColor" d="M231.8 273.1L267.3 308.6L308.7 267.2L273.2 231.7C263.3 248.9 249 263.2 231.8 273.1zM231.8 366.8C249 376.7 263.3 391 273.2 408.2L569.4 112L486.6 112L231.8 366.9zM365.3 406.6L486.7 528L569.4 528L406.7 365.3C392.9 379.1 379.1 392.9 365.3 406.7z"/><path fill="currentColor" d="M80 176C80 123 123 80 176 80C229 80 272 123 272 176C272 229 229 272 176 272C123 272 80 229 80 176zM288 176C288 114.1 237.9 64 176 64C114.1 64 64 114.1 64 176C64 237.9 114.1 288 176 288C190.3 288 203.9 285.3 216.5 280.5L256 320L216.5 359.5C203.9 354.6 190.3 352 176 352C114.1 352 64 402.1 64 464C64 525.9 114.1 576 176 576C237.9 576 288 525.9 288 464C288 449.7 285.3 436.1 280.5 423.5L592 112L608 96L480 96L320 256L280.5 216.5C285.4 203.9 288 190.3 288 176zM308.7 267.3L267.3 308.7L231.8 273.2C249 263.3 263.3 249 273.2 231.8L308.7 267.3zM273.1 408.2C263.2 391 248.9 376.7 231.7 366.8L486.6 112L569.4 112L273.1 408.2zM80 464C80 411 123 368 176 368C229 368 272 411 272 464C272 517 229 560 176 560C123 560 80 517 80 464zM417.9 353.9L406.6 365.2L569.3 527.9L486.6 527.9L365.2 406.5L353.9 417.8L480 543.9L608 543.9L417.9 353.8z"/></svg>