<svg xmlns="http://www.w3.org/2000/svg" viewBox="0 0 640 640"><!--! Font Awesome Pro 7.2.0 by @fontawesome - https://fontawesome.com License - https://fontawesome.com/license (Commercial License) Copyright 2026 Fonticons, Inc. --><path opacity=".4" fill="currentColor" d="M144.2 302.2C144.2 214.9 215.8 144 304.2 144C392.6 144 464.2 214.9 464.2 302.2C464.2 353.9 439.1 399.8 400.2 428.7C398.2 430.2 397 432.6 397 435.1L397 456C397 513.4 350.4 560 293 560L262.6 560C244.3 521.3 225.9 482.6 207.6 443.9L253.9 397.6L259.6 391.9L248.3 380.6L242.6 386.3L200.3 428.6L144.1 310C144.2 307.5 144.2 304.8 144.2 302.2zM192.2 304L192.2 312L208.2 312L208.2 304C208.2 251 251.2 208 304.2 208C357.2 208 400.2 251 400.2 304L400.2 312L416.2 312L416.2 304C416.2 242.1 366.1 192 304.2 192C242.3 192 192.2 242.1 192.2 304z"/><path fill="currentColor" d="M493.8 157.7L488.1 163.4L476.8 152.1L482.5 146.4L562.5 66.4L573.8 77.7L493.8 157.7zM253.8 397.7L77.8 573.7L66.5 562.4L242.5 386.4L248.2 380.7L259.5 392L253.8 397.7zM304.2 144C215.8 144 144.2 214.9 144.2 302.2L144.2 310.2L128.2 310.2L128.2 302.2C128.2 205.9 207 128 304.2 128C401.4 128 480.2 205.9 480.2 302.2C480.2 357.8 453.9 407.2 413 439.1L413 456C413 522.3 359.3 576 293 576L262.6 576L262.6 560L293 560C350.4 560 397 513.4 397 456L397 435.1C397 432.6 398.2 430.2 400.2 428.7C439.1 399.8 464.2 353.9 464.2 302.2C464.2 214.9 392.7 144 304.2 144zM304.2 208C251.2 208 208.2 251 208.2 304L208.2 312L192.2 312L192.2 304C192.2 242.1 242.3 192 304.2 192C366.1 192 416.2 242.1 416.2 304L416.2 312L400.2 312L400.2 304C400.2 251 357.2 208 304.2 208z"/></svg>