<svg xmlns="http://www.w3.org/2000/svg" viewBox="0 0 640 640"><!--! Font Awesome Pro 7.2.0 by @fontawesome - https://fontawesome.com License - https://fontawesome.com/license (Commercial License) Copyright 2026 Fonticons, Inc. --><path opacity=".4" fill="currentColor" d="M22.2 247.4L89 317L139.3 273.9L148.1 266.3L152 277.3L190.1 384L560.5 384L560.5 224L270 224C259.2 224 248.9 219.7 241.4 211.9L193.3 162.7L187.4 156.7L193.8 151.1C205.2 141.1 215.8 130.8 216.5 116.7L204.9 87.6L149.2 126.6L144.6 129.8L140 126.6L84.3 87.6L72.7 116.7C73.3 128.5 80.9 137.1 90.9 146.9L95.9 151.9L91.6 157.5L22.4 247.5zM304.4 304C304.4 321.7 290.1 336 272.4 336C254.7 336 240.4 321.7 240.4 304C240.4 286.3 254.7 272 272.4 272C290.1 272 304.4 286.3 304.4 304zM256.4 304C256.4 312.8 263.6 320 272.4 320C281.2 320 288.4 312.8 288.4 304C288.4 295.2 281.2 288 272.4 288C263.6 288 256.4 295.2 256.4 304zM400.4 304C400.4 321.7 386.1 336 368.4 336C350.7 336 336.4 321.7 336.4 304C336.4 286.3 350.7 272 368.4 272C386.1 272 400.4 286.3 400.4 304zM352.4 304C352.4 312.8 359.6 320 368.4 320C377.2 320 384.4 312.8 384.4 304C384.4 295.2 377.2 288 368.4 288C359.6 288 352.4 295.2 352.4 304zM496.4 304C496.4 321.7 482.1 336 464.4 336C446.7 336 432.4 321.7 432.4 304C432.4 286.3 446.7 272 464.4 272C482.1 272 496.4 286.3 496.4 304zM448.4 304C448.4 312.8 455.6 320 464.4 320C473.2 320 480.4 312.8 480.4 304C480.4 295.2 473.2 288 464.4 288C455.6 288 448.4 295.2 448.4 304z"/><path fill="currentColor" d="M215.9 72.2L212.2 62.8L203.9 68.6L144.5 110.2L85.1 68.6L76.8 62.8C76.3 64 69.7 80.5 57 112.2L56.4 113.6L56.4 115.1C56.4 131.9 65.5 143.9 74.4 153.1L5.3 243L1.1 248.5L5.9 253.5L82.7 333.5L87.9 339L93.6 334.1L140.8 293.7L176.4 393.4L176.4 576L288.4 576L288.4 464L464.4 464L464.4 576L576.4 576L576.4 234.8L622 331.4L625.4 338.6L639.9 331.8L636.5 324.6L583.7 212.6L581.5 208L269.9 208C263.4 208 257.2 205.4 252.7 200.8L210.5 157.5C220.8 147.9 232.4 134.2 232.4 115.2L232.4 113.7L231.8 112.3L215.8 72.3zM456.4 224L560.4 224L560.4 384L190 384L151.9 277.3L148 266.3L139.2 273.9L88.9 317L22.1 247.4L91.3 157.4L95.6 151.8L90.6 146.8C80.6 137 73 128.4 72.4 116.6L84 87.5L139.7 126.5L144.3 129.7L148.9 126.5L204.6 87.5L216.2 116.6C215.5 130.7 204.9 141 193.5 151L187.1 156.6L193 162.6L241.1 211.8C248.6 219.5 258.9 223.9 269.7 223.9L456.2 223.9zM192.4 400L560.4 400L560.4 560L480.4 560L480.4 448L272.4 448L272.4 560L192.4 560L192.4 400zM288.4 304C288.4 312.8 281.2 320 272.4 320C263.6 320 256.4 312.8 256.4 304C256.4 295.2 263.6 288 272.4 288C281.2 288 288.4 295.2 288.4 304zM272.4 272C254.7 272 240.4 286.3 240.4 304C240.4 321.7 254.7 336 272.4 336C290.1 336 304.4 321.7 304.4 304C304.4 286.3 290.1 272 272.4 272zM464.4 320C455.6 320 448.4 312.8 448.4 304C448.4 295.2 455.6 288 464.4 288C473.2 288 480.4 295.2 480.4 304C480.4 312.8 473.2 320 464.4 320zM432.4 304C432.4 321.7 446.7 336 464.4 336C482.1 336 496.4 321.7 496.4 304C496.4 286.3 482.1 272 464.4 272C446.7 272 432.4 286.3 432.4 304zM384.4 304C384.4 312.8 377.2 320 368.4 320C359.6 320 352.4 312.8 352.4 304C352.4 295.2 359.6 288 368.4 288C377.2 288 384.4 295.2 384.4 304zM368.4 272C350.7 272 336.4 286.3 336.4 304C336.4 321.7 350.7 336 368.4 336C386.1 336 400.4 321.7 400.4 304C400.4 286.3 386.1 272 368.4 272z"/></svg>