<svg xmlns="http://www.w3.org/2000/svg" viewBox="0 0 640 640"><!--! Font Awesome Pro 7.2.0 by @fontawesome - https://fontawesome.com License - https://fontawesome.com/license (Commercial License) Copyright 2026 Fonticons, Inc. --><path opacity=".4" fill="currentColor" d="M112 384C112 481.2 190.8 560 288 560C385.2 560 464 481.2 464 384C464 361.3 453.4 328.8 435.5 291.1C400.4 217 340.7 130.4 305 81.5C298.4 72.4 292.6 64.6 287.9 58.4C283.2 64.6 277.4 72.4 270.8 81.5C235.1 130.5 175.4 217 140.3 291.1C122.4 328.8 111.8 361.3 111.8 384z"/><path fill="currentColor" d="M288 560C385.2 560 464 481.2 464 384C464 361.3 453.4 328.8 435.5 291.1C400.4 217 340.7 130.4 305 81.5C298.4 72.4 292.6 64.6 287.9 58.4C283.2 64.6 277.4 72.4 270.8 81.5C235.1 130.5 175.4 217 140.3 291.1C122.4 328.8 111.8 361.3 111.8 384C111.8 481.2 190.6 560 287.8 560zM96 384C96 292.7 238.4 97.5 277.9 45.2C284.3 36.7 288 32 288 32C288 32 291.7 36.7 298.1 45.2C337.6 97.5 480 292.7 480 384C480 490 394 576 288 576C182 576 96 490 96 384zM592 144C592 108.7 563.3 80 528 80C492.7 80 464 108.7 464 144C464 179.3 492.7 208 528 208C563.3 208 592 179.3 592 144zM448 144C448 99.8 483.8 64 528 64C572.2 64 608 99.8 608 144C608 188.2 572.2 224 528 224C483.8 224 448 188.2 448 144z"/></svg>