<svg xmlns="http://www.w3.org/2000/svg" viewBox="0 0 640 640"><!--! Font Awesome Pro 7.2.0 by @fontawesome - https://fontawesome.com License - https://fontawesome.com/license (Commercial License) Copyright 2026 Fonticons, Inc. --><path opacity=".4" fill="currentColor" d="M48 112L160 112L160 368L48 368L48 112zM48 384L312 384L312 528L48 528L48 384zM176 112L256 112L256 240L176 240L176 112zM176 256L256 256L256 368L176 368L176 256zM272 112L368 112L368 368L272 368L272 112zM328 384L592 384L592 528L328 528L328 384zM384 112L464 112L464 240L384 240L384 112zM384 256L464 256L464 368L384 368L384 256zM480 112L592 112L592 368L480 368L480 112z"/><path fill="currentColor" d="M480 112L480 368L592 368L592 112L480 112zM464 112L384 112L384 240L464 240L464 112zM368 112L272 112L272 368L368 368L368 112zM256 112L176 112L176 240L256 240L256 112zM160 112L48 112L48 368L160 368L160 112zM48 384L48 528L312 528L312 384L48 384zM328 528L592 528L592 384L328 384L328 528zM32 96L608 96L608 544L32 544L32 96zM256 368L256 256L176 256L176 368L256 368zM464 256L384 256L384 368L464 368L464 256z"/></svg>