<svg xmlns="http://www.w3.org/2000/svg" viewBox="0 0 640 640"><!--! Font Awesome Pro 7.2.0 by @fontawesome - https://fontawesome.com License - https://fontawesome.com/license (Commercial License) Copyright 2026 Fonticons, Inc. --><path opacity=".4" fill="currentColor" d="M208.4 368L576 368L576 496L307.9 496L208.3 368zM276.3 288L278.7 284.4L372.3 144L576 144L576 288L276.3 288z"/><path fill="currentColor" d="M363.7 128L576 128L576 144L372.3 144L278.7 284.4L276.3 288L32 288L32 272L267.7 272L361.3 131.6L363.7 128zM188.1 368L32 368L32 352L576 352L576 368L208.4 368L308 496L576.1 496L576.1 512L300.2 512L297.8 508.9L188.2 368z"/></svg>