<svg xmlns="http://www.w3.org/2000/svg" viewBox="0 0 640 640"><!--! Font Awesome Pro 7.2.0 by @fontawesome - https://fontawesome.com License - https://fontawesome.com/license (Commercial License) Copyright 2026 Fonticons, Inc. --><path opacity=".4" fill="currentColor" d="M112 112L112 272L528 272L528 112L112 112z"/><path fill="currentColor" d="M528 272L112 272L112 112L528 112L528 272zM328 288L544 288L544 96L96 96L96 288L312 288L312 420.7L253.7 362.4L248 356.7L236.7 368L242.4 373.7L314.4 445.7L320.1 451.4L403.4 368.1L392.1 356.8L328.1 420.8L328.1 288.1zM112 352L96 352L96 544L544 544L544 352L448 352L448 368L528 368L528 528L112 528L112 368L192 368L192 352L112 352z"/></svg>