<svg xmlns="http://www.w3.org/2000/svg" viewBox="0 0 640 640"><!--! Font Awesome Pro 7.2.0 by @fontawesome - https://fontawesome.com License - https://fontawesome.com/license (Commercial License) Copyright 2026 Fonticons, Inc. --><path opacity=".4" fill="currentColor" d="M112 368L528 368L528 528L112 528L112 368z"/><path fill="currentColor" d="M528 288L544 288L544 96L96 96L96 288L192 288L192 272L112 272L112 112L528 112L528 272L448 272L448 288L528 288zM112 368L528 368L528 528L112 528L112 368zM312 352L96 352L96 544L544 544L544 352L328 352L328 219.3L386.3 277.6L392 283.3L403.3 272L397.6 266.3L325.6 194.3L319.9 188.6L314.2 194.3L242.2 266.3L236.5 272L247.8 283.3L253.5 277.6L311.8 219.3L311.8 352z"/></svg>