<svg xmlns="http://www.w3.org/2000/svg" viewBox="0 0 640 640"><!--! Font Awesome Pro 7.2.0 by @fontawesome - https://fontawesome.com License - https://fontawesome.com/license (Commercial License) Copyright 2026 Fonticons, Inc. --><path opacity=".4" fill="currentColor" d="M70.6 320L320 70.6L569.4 320L320 569.4L70.6 320zM304 192L312 384L328 384L336 192L304 192z"/><path fill="currentColor" d="M592 320L320 592L48 320L320 48L592 320zM70.6 320L320 569.4L569.4 320L320 70.6L70.6 320zM332 443.8L308 443.8L308 419.8L332 419.8L332 443.8zM328 384L312 384L304 192L336 192L328 384z"/></svg>