<svg xmlns="http://www.w3.org/2000/svg" viewBox="0 0 640 640"><!--! Font Awesome Pro 7.2.0 by @fontawesome - https://fontawesome.com License - https://fontawesome.com/license (Commercial License) Copyright 2026 Fonticons, Inc. --><path opacity=".4" fill="currentColor" d="M176 112L176 174.2L212.8 336L235.3 336L272.1 174.2L272.1 112L176.1 112zM368 112L368 174.2L404.8 336L427.3 336L464.1 174.2L464.1 112L368.1 112z"/><path fill="currentColor" d="M212.8 336L176 174.2L176 112L272 112L272 174.2L235.2 336L212.7 336zM288 96L160 96L160 176L200 352L248 352L288 176L288 96zM404.8 336L368 174.2L368 112L464 112L464 174.2L427.2 336L404.7 336zM480 96L352 96L352 176L392 352L440 352L480 176L480 96z"/></svg>