<svg xmlns="http://www.w3.org/2000/svg" viewBox="0 0 640 640"><!--! Font Awesome Pro 7.2.0 by @fontawesome - https://fontawesome.com License - https://fontawesome.com/license (Commercial License) Copyright 2026 Fonticons, Inc. --><path opacity=".4" fill="currentColor" d="M112 112L528 112L528 528L112 528L112 112zM256 274.7C256 300.1 274.8 321.6 300 324.9L346 331C363.2 333.3 376.1 348 376.1 365.4C376.1 384.5 360.6 400.1 341.4 400.1L264.1 400.1L264.1 416.1L312.1 416.1L312.1 448.1L328.1 448.1L328.1 416.1L341.4 416.1C369.4 416.1 392.1 393.4 392.1 365.4C392.1 340 373.3 318.5 348.1 315.2L302.1 309.1C284.9 306.8 272 292.1 272 274.7C272 255.6 287.5 240 306.7 240L368 240L376 240L376 224L368 224L328 224L328 192L312 192L312 224L306.7 224C278.7 224 256 246.7 256 274.7z"/><path fill="currentColor" d="M112 112L112 528L528 528L528 112L112 112zM96 96L544 96L544 544L96 544L96 96zM328 192L328 224L368 224L376 224L376 240L368 240L306.7 240C287.6 240 272 255.5 272 274.7C272 292.1 284.9 306.8 302.1 309.1L348.1 315.2C373.3 318.6 392.1 340 392.1 365.4C392.1 393.4 369.4 416.1 341.4 416.1L328.1 416.1L328.1 448.1L312.1 448.1L312.1 416.1L264.1 416.1L264.1 400.1L341.4 400.1C360.5 400.1 376.1 384.6 376.1 365.4C376.1 348 363.2 333.3 346 331L300 324.9C274.8 321.5 256 300.1 256 274.7C256 246.7 278.7 224 306.7 224L312 224L312 192L328 192z"/></svg>