<svg xmlns="http://www.w3.org/2000/svg" viewBox="0 0 640 640"><!--! Font Awesome Pro 7.2.0 by @fontawesome - https://fontawesome.com License - https://fontawesome.com/license (Commercial License) Copyright 2026 Fonticons, Inc. --><path opacity=".4" fill="currentColor" d="M224.1 496C224.1 522.5 245.6 544 272.1 544C298.6 544 320.1 522.5 320.1 496C320.1 469.5 298.6 448 272.1 448C245.6 448 224.1 469.5 224.1 496z"/><path fill="currentColor" d="M56.1 88L165.9 88L167.7 93.5L280.7 432.6C298.8 435 314.6 445.1 324.6 459.4L573.6 376.4L581.2 373.9L586.3 389.1L578.7 391.6L332.2 473.8C334.8 480.7 336.2 488.2 336.2 496C336.2 531.3 307.5 560 272.2 560C236.9 560 208.2 531.3 208.2 496C208.2 463.5 232.5 436.6 263.9 432.5L154.4 104L56.1 104L56.1 88zM272.1 544C298.6 544 320.1 522.5 320.1 496C320.1 469.5 298.6 448 272.1 448C245.6 448 224.1 469.5 224.1 496C224.1 522.5 245.6 544 272.1 544z"/></svg>