<svg xmlns="http://www.w3.org/2000/svg" viewBox="0 0 640 640"><!--! Font Awesome Pro 7.2.0 by @fontawesome - https://fontawesome.com License - https://fontawesome.com/license (Commercial License) Copyright 2026 Fonticons, Inc. --><path opacity=".4" fill="currentColor" d="M80 294.8L80 336L275.6 336L277.9 338.3L357.2 416L383.9 416L383.9 328L395.9 328C437.9 328 471.9 362 471.9 404C471.9 446 437.9 480 395.9 480L320 480L317.9 475.2L298.7 432L244.2 432L271.2 492.8L272.6 496L271.2 499.2L244.2 560L298.7 560L317.9 516.8L320 512L411.6 512C493.5 512 559.9 445.6 559.9 363.7C559.9 292.7 533.8 227.8 490.7 178L487.3 174.1L489.5 169.4L526 90.3L517.9 83.8L404.5 108.6L401.8 109.2L399.3 108C362.1 90 320.3 79.9 276.1 79.9L236 80C167.5 80 112 135.5 112 204C112 224.1 116.8 243 125.2 259.7L128.6 266.4L122.1 270.2C95 286.1 80.9 294.3 80 294.8zM224 208C224 216.8 216.8 224 208 224C199.2 224 192 216.8 192 208C192 199.2 199.2 192 208 192C216.8 192 224 199.2 224 208z"/><path fill="currentColor" d="M112 204C112 135.5 167.5 80 236 80L276.3 80C320.4 80 362.2 90.1 399.5 108.1L402 109.3L404.7 108.7L518.1 83.9L526.2 90.4L489.7 169.5L487.5 174.2L490.9 178.1C533.9 227.8 560 292.7 560 363.7C560 445.6 493.6 512 411.7 512L320.1 512L318 516.8L298.8 560L244.3 560L271.3 499.2L272.7 496L271.3 492.8L244.3 432L298.8 432L318 475.2L320.1 480L396 480C438 480 472 446 472 404C472 362 438 328 396 328L384 328L384 416L357.3 416L278 338.3L275.7 336L80.1 336L80.1 294.8C81 294.3 95.1 286.1 122.2 270.2L128.7 266.4L125.3 259.7C116.8 243 112 224.1 112 204zM236 64C158.7 64 96 126.7 96 204C96 223.9 100.2 242.9 107.7 260.1C59.3 288.3 68.6 282.9 64 285.6L64 352L269.1 352L348.4 429.7L350.7 432L400 432L400 344.1C431.3 346.2 456 372.2 456 404C456 437.1 429.1 464 396 464L330.5 464L311.3 420.8L309.2 416L219.7 416L224.7 427.2L255.3 496L224.7 564.8L219.7 576L309.2 576L311.3 571.2L330.5 528L411.7 528C502.4 528 576 454.5 576 363.7C576 290.6 549.8 223.5 506.3 171.5L543.3 91.3L545.9 85.6C544.5 84.5 537.5 79 525 69L522 66.6L518.3 67.4L403.9 92.5C365.2 74.2 321.9 64 276.3 64L236 64zM208 224C216.8 224 224 216.8 224 208C224 199.2 216.8 192 208 192C199.2 192 192 199.2 192 208C192 216.8 199.2 224 208 224z"/></svg>