<svg xmlns="http://www.w3.org/2000/svg" viewBox="0 0 640 640"><!--! Font Awesome Pro 7.2.0 by @fontawesome - https://fontawesome.com License - https://fontawesome.com/license (Commercial License) Copyright 2026 Fonticons, Inc. --><path opacity=".4" fill="currentColor" d="M218.5 207.2C224.7 197 231.1 186.8 237.5 176.9C261.3 139.9 285.1 106.1 303 81.5C309.6 72.4 315.4 64.6 320.1 58.4C324.8 64.6 330.6 72.4 337.2 81.5C372.9 130.5 432.6 217 467.7 291.1C485.6 328.8 496.2 361.3 496.2 384C496.2 413.2 489.1 440.7 476.5 465L218.5 207.2z"/><path fill="currentColor" d="M488.1 476.8L597.8 586.5L603.5 592.2L592.2 603.5L586.5 597.8L42.3 53.8L36.6 48.1L47.9 36.8L53.6 42.5L206.8 195.6C246.7 130.5 290.6 70.8 310 45.2C316.3 36.7 320 32 320 32C320 32 323.7 36.7 330.1 45.2C369.6 97.6 512 292.7 512 384C512 417.6 503.3 449.3 488.1 476.8zM218.5 207.2L476.3 465C488.9 440.8 496 413.2 496 384C496 361.3 485.4 328.8 467.5 291.1C432.4 217 372.7 130.4 337 81.5C330.4 72.4 324.6 64.6 319.9 58.4C315.2 64.6 309.4 72.4 302.8 81.5C284.9 106 261.1 139.8 237.3 176.9C230.9 186.8 224.6 197 218.3 207.2zM172.5 291.1C154.6 328.8 144 361.3 144 384C144 481.2 222.8 560 320 560C364.7 560 405.6 543.3 436.6 515.8L448 527.2C414 557.6 369.2 576 320 576C214 576 128 490 128 384C128 350.3 147.4 302.5 173.8 253L185.6 264.8C180.9 273.7 176.5 282.5 172.4 291.1z"/></svg>