<svg xmlns="http://www.w3.org/2000/svg" viewBox="0 0 640 640"><!--! Font Awesome Pro 7.2.0 by @fontawesome - https://fontawesome.com License - https://fontawesome.com/license (Commercial License) Copyright 2026 Fonticons, Inc. --><path opacity=".4" fill="currentColor" d="M80 311.9C95.1 329.8 120 345.2 152 357.2L152 500C149.7 499.1 147.5 498.2 145.3 497.2C100 477.6 80 453.5 80 431.9L80 311.8zM168 362.7C208.5 375.5 258.2 383.2 312 383.9L312 527.9C257.3 527.2 207.5 519.1 168 505.9L168 362.7zM328 383.9C381.8 383.2 431.5 375.5 472 362.7L472 505.9C432.5 519.1 382.7 527.2 328 527.9L328 383.9zM488 357.2C520 345.2 544.9 329.8 560 311.9L560 432C560 453.6 540 477.7 494.7 497.3C492.5 498.2 490.3 499.2 488 500.1L488 357.3z"/><path fill="currentColor" d="M572.3 110.7L471 176.3C534.7 193.2 576 223.9 576 272L576 432C576 464 547.4 492 501 512C495.1 514.5 489 516.9 482.6 519.2C438.4 534.8 381.8 544 319.9 544C258 544 201.4 534.8 157.2 519.2C150.8 516.9 144.7 514.6 138.9 512C92.6 492 63.9 464 63.9 432L64 272C64 192 178.6 160 320 160C367.2 160 411.4 163.6 449.3 171.3L563.7 97.3L572.4 110.7zM80 311.9L80 432C80 453.6 100 477.7 145.3 497.3C147.5 498.2 149.7 499.2 152 500.1L152 357.3C120 345.3 95.1 329.9 80 312zM168 362.7L168 505.9C207.5 519.1 257.3 527.2 312 527.9L312 383.9C258.2 383.2 208.5 375.5 168 362.7zM328 383.9L328 527.9C382.7 527.2 432.5 519.1 472 505.9L472 362.7C431.5 375.5 381.8 383.2 328 383.9zM488 357.2L488 500C490.3 499.1 492.5 498.2 494.7 497.2C540 477.6 560 453.5 560 431.9L560 311.8C544.9 329.7 520 345.1 488 357.1zM560 272C560 241.8 539 217.9 495.2 200.9C482.4 195.9 468.1 191.7 452.4 188.3L300.3 286.7L293.6 291L284.9 277.6L291.6 273.3L429.7 184C397 178.6 359.8 176 320 176C250.1 176 188.4 184 144.8 200.9C101 217.9 80 241.8 80 272C80 293.6 100 317.7 145.3 337.3C189.1 356.2 250.9 368 320 368C389.1 368 450.8 356.2 494.7 337.3C540 317.7 560 293.6 560 272z"/></svg>