<svg xmlns="http://www.w3.org/2000/svg" viewBox="0 0 640 640"><!--! Font Awesome Pro 7.2.0 by @fontawesome - https://fontawesome.com License - https://fontawesome.com/license (Commercial License) Copyright 2026 Fonticons, Inc. --><path opacity=".4" fill="currentColor" d="M240 240L240 345.4L294.6 400L400 400C488.4 400 560 328.4 560 240C560 151.6 488.4 80 400 80C311.6 80 240 151.6 240 240z"/><path fill="currentColor" d="M294.6 400L400 400C488.4 400 560 328.4 560 240C560 151.6 488.4 80 400 80C311.6 80 240 151.6 240 240L240 345.4L294.6 400zM291.3 416L238.9 468.4C249.5 479.8 256 495.1 256 512C256 547.3 227.3 576 192 576C156.7 576 128 547.3 128 512C92.7 512 64 483.3 64 448C64 412.7 92.7 384 128 384C144.8 384 160.1 390.5 171.6 401.1L224 348.7L224 240C224 142.8 302.8 64 400 64C497.2 64 576 142.8 576 240C576 337.2 497.2 416 400 416L291.3 416zM233.6 361.7L177 418.3L170.7 424.6L165.1 417.7C156.4 406.9 143 400 128 400C101.5 400 80 421.5 80 448C80 474.5 101.5 496 128 496C130.5 496 133 495.8 135.4 495.4L146.2 493.7L144.5 504.5C144.1 506.9 143.9 509.4 143.9 511.9C143.9 538.4 165.4 559.9 191.9 559.9C218.4 559.9 239.9 538.4 239.9 511.9C239.9 496.9 233 483.5 222.2 474.7L215.3 469.1L221.6 462.8L278.2 406.2L233.5 361.5z"/></svg>