<svg xmlns="http://www.w3.org/2000/svg" viewBox="0 0 640 640"><!--! Font Awesome Pro 7.2.0 by @fontawesome - https://fontawesome.com License - https://fontawesome.com/license (Commercial License) Copyright 2026 Fonticons, Inc. --><path opacity=".4" fill="currentColor" d="M80 416C80 431.5 88.8 444.9 101.7 451.6L110.2 456L104.3 463.6C99.1 470.4 96 478.8 96 488C96 510.1 113.9 528 136 528L208 528L208 488C208 476.1 202.8 465.3 194.5 458L187.7 452L194.5 446C202.8 438.7 208 427.9 208 416C208 404.1 202.8 393.3 194.5 386L187.7 380L194.5 374C202.8 366.7 208 355.9 208 344L208 304L136 304C113.9 304 96 321.9 96 344C96 353.2 99.1 361.7 104.3 368.4L110.2 376L101.7 380.4C88.8 387.1 80 400.5 80 416zM432 304L432 344C432 355.9 437.2 366.7 445.5 374L452.3 380L445.5 386C437.2 393.3 432 404.1 432 416C432 427.9 437.2 438.7 445.5 446L452.3 452L445.5 458C437.2 465.3 432 476.1 432 488L432 528L504 528C526.1 528 544 510.1 544 488C544 478.8 540.9 470.3 535.7 463.6L529.8 456L538.3 451.6C551.2 444.9 560 431.5 560 416C560 400.5 551.2 387.1 538.3 380.4L529.8 376L535.7 368.4C540.9 361.6 544 353.2 544 344C544 321.9 526.1 304 504 304L432 304z"/><path fill="currentColor" d="M320 80C222.8 80 144 158.8 144 256L144 288L224 288L224 344C224 357.7 219.1 370.3 210.9 380C219.1 389.7 224 402.3 224 416C224 429.7 219.1 442.3 210.9 452C219.1 461.7 224 474.3 224 488L224 544L136 544C105.1 544 80 518.9 80 488C80 478.3 82.5 469.1 86.9 461.1C73 451 64 434.5 64 416C64 397.5 73 381 86.9 370.9C82.5 362.9 80 353.8 80 344C80 315.8 100.9 292.4 128 288.6L128 256C128 150 214 64 320 64C426 64 512 150 512 256L512 288.6C539.1 292.5 560 315.8 560 344C560 353.7 557.5 362.9 553.1 370.9C566.9 381.1 576 397.5 576 416C576 434.5 567 451 553.1 461.1C557.5 469.1 560 478.2 560 488C560 518.9 534.9 544 504 544L416 544L416 488C416 474.3 420.9 461.7 429.1 452C420.9 442.3 416 429.7 416 416C416 402.3 420.9 389.7 429.1 380C420.9 370.3 416 357.7 416 344L416 288L496 288L496 256C496 158.8 417.2 80 320 80zM136 304C113.9 304 96 321.9 96 344C96 353.2 99.1 361.7 104.3 368.4L110.2 376L101.7 380.4C88.8 387.1 80 400.5 80 416C80 431.5 88.8 444.9 101.7 451.6L110.2 456L104.3 463.6C99.1 470.4 96 478.8 96 488C96 510.1 113.9 528 136 528L208 528L208 488C208 476.1 202.8 465.3 194.5 458L187.7 452L194.5 446C202.8 438.7 208 427.9 208 416C208 404.1 202.8 393.3 194.5 386L187.7 380L194.5 374C202.8 366.7 208 355.9 208 344L208 304L136 304zM544 344C544 321.9 526.1 304 504 304L432 304L432 344C432 355.9 437.2 366.7 445.5 374L452.3 380L445.5 386C437.2 393.3 432 404.1 432 416C432 427.9 437.2 438.7 445.5 446L452.3 452L445.5 458C437.2 465.3 432 476.1 432 488L432 528L504 528C526.1 528 544 510.1 544 488C544 478.8 540.9 470.3 535.7 463.6L529.8 456L538.3 451.6C551.2 444.9 560 431.5 560 416C560 400.5 551.2 387.1 538.3 380.4L529.8 376L535.7 368.4C540.9 361.6 544 353.2 544 344z"/></svg>