<svg xmlns="http://www.w3.org/2000/svg" viewBox="0 0 640 640"><!--! Font Awesome Pro 7.2.0 by @fontawesome - https://fontawesome.com License - https://fontawesome.com/license (Commercial License) Copyright 2026 Fonticons, Inc. --><path opacity=".4" fill="currentColor" d="M240 368L240 468.7L283.3 512L352 512L352 557.9C417.3 549.2 474.3 514.3 512 464C512 458.7 512 453.3 512 448L484.7 448L452.7 416L420.7 416L372.7 368L240 368zM272 283.3L272 304L320 304L320 272L416 272L416 224L496 224L496 272L464 272L464 340.7L507.3 384L551.4 384C557 363.6 560 342.2 560 320C560 205.8 480.2 110.2 373.4 86L304 155.4L304 176.1L352 176.1L352 203.4L349.7 205.7L272 283.4z"/><path fill="currentColor" d="M336 559.5L336 528L276.7 528L274.4 525.7L226.4 477.7L224.1 475.4L224.1 352.1L379.4 352.1L427.4 400.1L459.4 400.1L491.4 432.1L528.1 432.1L528.1 439.9C535.4 427.3 541.5 414 546.4 400.1L500.7 400.1L448 347.4L448 256.1L480 256.1L480 240.1L432 240.1L432 288.1L336 288.1L336 320.1L256 320.1L256 276.8L258.3 274.5L336 196.8L336 192.1L288 192.1L288 148.8L290.3 146.5L354.2 82.6C343.1 80.8 331.6 80 320 80C187.5 80 80 187.5 80 320C80 452.5 187.5 560 320 560C325.4 560 330.7 559.8 336 559.5zM304 155.3L304 176L352 176L352 203.3L349.7 205.6L272 283.3L272 304L320 304L320 272L416 272L416 224L496 224L496 272L464 272L464 340.7L507.3 384L551.4 384C557 363.6 560 342.2 560 320C560 205.8 480.2 110.2 373.4 86L304 155.3zM352 557.9C417.3 549.2 474.3 514.3 512 464L512 464L512 448L484.7 448L452.7 416L420.7 416L372.7 368L240 368L240 468.7L283.3 512L352 512L352 557.9zM64 320C64 178.6 178.6 64 320 64C461.4 64 576 178.6 576 320C576 461.4 461.4 576 320 576C178.6 576 64 461.4 64 320zM245.7 181.7L213.7 213.7L208 219.4L196.7 208.1L202.4 202.4L234.4 170.4L240.1 164.7L251.4 176L245.7 181.7z"/></svg>