<svg xmlns="http://www.w3.org/2000/svg" viewBox="0 0 640 640"><!--! Font Awesome Pro 7.2.0 by @fontawesome - https://fontawesome.com License - https://fontawesome.com/license (Commercial License) Copyright 2026 Fonticons, Inc. --><path opacity=".4" fill="currentColor" d="M80 144L560 144L560 196.1L320 381.9L80 196.1L80 144zM80 216.3L315.1 398.3L320 402.1L324.9 398.3L560 216.3L560 496L80 496L80 216.3z"/><path fill="currentColor" d="M64 128L576 128L576 512L64 512L64 128zM560 144L80 144L80 196.1L320 381.9L560 196.1L560 144zM80 216.3L80 496L560 496L560 216.3L324.9 398.3L320 402.1L315.1 398.3L80 216.3z"/></svg>