<svg xmlns="http://www.w3.org/2000/svg" viewBox="0 0 640 640"><!--! Font Awesome Pro 7.2.0 by @fontawesome - https://fontawesome.com License - https://fontawesome.com/license (Commercial License) Copyright 2026 Fonticons, Inc. --><path opacity=".4" fill="currentColor" d="M16 448C16 492.2 51.8 528 96 528L320 528C364.2 528 400 492.2 400 448C400 403.8 364.2 368 320 368L96 368C51.8 368 16 403.8 16 448zM48 280L48 364.8C62.1 356.7 78.5 352 96 352L320 352C337.5 352 353.9 356.7 368 364.8L368 272L56 272C53 274.3 50.3 277 48 280zM384 268.1L384 360.4L624 187.9L624 95.6L384 268.1zM480 525.8L480 528L568 528C598.9 528 624 502.9 624 472L624 401.5L480 525.9z"/><path fill="currentColor" d="M640 80L640 64.4L627.3 73.5L378.4 252.4L286.9 99.9L284.6 96L128.1 96L128.1 256L32.1 256L32.1 376.4C12.4 394 0 419.6 0 448C0 501 43 544 96 544L320 544C373 544 416 501 416 448C416 420.7 404.6 396 386.2 378.5L624 207.6L624 380.3L466.8 516.1L464 518.5L464 544L568 544C607.8 544 640 511.8 640 472L640 80zM48 364.8L48 272L368 272L368 364.8C353.9 356.6 337.5 352 320 352L96 352C78.5 352 62.1 356.7 48 364.8zM361.9 256L144 256L144 112L275.5 112L361.9 256zM384 360.4L384 268.1L624 95.6L624 187.9L384 360.4zM480 525.8L624 401.4L624 471.9C624 502.8 598.9 527.9 568 527.9L480 527.9L480 525.7zM96 368L320 368C364.2 368 400 403.8 400 448C400 492.2 364.2 528 320 528L96 528C51.8 528 16 492.2 16 448C16 403.8 51.8 368 96 368z"/></svg>