<svg xmlns="http://www.w3.org/2000/svg" viewBox="0 0 640 640"><!--! Font Awesome Pro 7.2.0 by @fontawesome - https://fontawesome.com License - https://fontawesome.com/license (Commercial License) Copyright 2026 Fonticons, Inc. --><path opacity=".4" fill="currentColor" d="M112 112L112 528L528 528L528 112L112 112zM304 192L336 192L328 384L312 384L304 192z"/><path fill="currentColor" d="M544 544L96 544L96 96L544 96L544 544zM112 528L528 528L528 112L112 112L112 528zM332 443.8L308 443.8L308 419.8L332 419.8L332 443.8zM328 384L312 384L304 192L336 192L328 384z"/></svg>