<svg xmlns="http://www.w3.org/2000/svg" viewBox="0 0 640 640"><!--! Font Awesome Pro 7.2.0 by @fontawesome - https://fontawesome.com License - https://fontawesome.com/license (Commercial License) Copyright 2026 Fonticons, Inc. --><path opacity=".4" fill="currentColor" d="M80 320C80 452.5 187.5 560 320 560C452.5 560 560 452.5 560 320C560 187.5 452.5 80 320 80C187.5 80 80 187.5 80 320zM181.9 245.1L187 229.9L194.6 232.4L290.6 264.4L298.2 266.9L293.1 282.1L285.5 279.6L189.5 247.6L181.9 245.1zM222.9 474.9L224.3 460.1C228.9 412.7 270.2 375.9 319.9 375.9C369.7 375.9 410.9 412.6 415.6 460.1L417 474.9L406.3 469.3C406.6 471.7 406.6 474.1 406.5 476.4C341.6 444.1 273.8 455.7 233.3 474.5C233.3 472.8 233.4 471 233.7 469.2L222.9 474.9zM256 304C256 312.8 248.8 320 240 320C231.2 320 224 312.8 224 304C224 295.2 231.2 288 240 288C248.8 288 256 295.2 256 304zM246 439.5C260.9 417.8 287.8 398.6 320.4 398.6C350.8 399.2 377.3 415.8 392.6 436.6C379.9 410.4 352.3 392 320 392C286.5 392 258 411.7 246 439.5zM341.8 267L349.4 264.5L445.4 232.5L453 230L458.1 245.2L450.5 247.7L354.5 279.7L346.9 282.2L341.8 267zM416 304C416 312.8 408.8 320 400 320C391.2 320 384 312.8 384 304C384 295.2 391.2 288 400 288C408.8 288 416 295.2 416 304z"/><path fill="currentColor" d="M320 80C452.5 80 560 187.5 560 320C560 452.5 452.5 560 320 560C187.5 560 80 452.5 80 320C80 187.5 187.5 80 320 80zM320 576C461.4 576 576 461.4 576 320C576 178.6 461.4 64 320 64C178.6 64 64 178.6 64 320C64 461.4 178.6 576 320 576zM417.1 474.9L415.7 460.1C411.1 412.6 369.8 375.9 320 375.9C270.3 375.9 229 412.6 224.4 460.1L223 474.9L236.1 468C260.1 455.4 288.9 448 320 448C351.1 448 380 455.4 404 468L417.1 474.9zM396.8 447C373.7 437.4 347.6 432 320 432C292.4 432 266.3 437.4 243.3 447C253.1 415.3 283.6 392 320 392C356.4 392 386.9 415.3 396.8 447zM240 320C248.8 320 256 312.8 256 304C256 295.2 248.8 288 240 288C231.2 288 224 295.2 224 304C224 312.8 231.2 320 240 320zM416 304C416 295.2 408.8 288 400 288C391.2 288 384 295.2 384 304C384 312.8 391.2 320 400 320C408.8 320 416 312.8 416 304zM194.5 232.4L186.9 229.9L181.8 245.1L189.4 247.6L285.4 279.6L293 282.1L298.1 266.9L290.5 264.4L194.5 232.4zM450.5 247.6L458.1 245.1L453 229.9L445.4 232.4L349.4 264.4L341.8 266.9L346.9 282.1L354.5 279.6L450.5 247.6z"/></svg>