<svg xmlns="http://www.w3.org/2000/svg" viewBox="0 0 640 640"><!--! Font Awesome Pro 7.2.0 by @fontawesome - https://fontawesome.com License - https://fontawesome.com/license (Commercial License) Copyright 2026 Fonticons, Inc. --><path opacity=".4" fill="currentColor" d="M80 320C80 452.5 187.5 560 320 560C452.5 560 560 452.5 560 320C560 187.5 452.5 80 320 80C187.5 80 80 187.5 80 320zM128 256C128 216.2 160.2 184 200 184C239.8 184 272 216.2 272 256L272 304L128 304L128 256zM136 336L488 336L486.5 352L486.4 352.7C478.3 442.9 402.6 512 312 512C221.4 512 145.7 442.9 137.5 352.7L137.4 352L135.9 336zM208 224C208 232.8 215.2 240 224 240C232.8 240 240 232.8 240 224C240 215.2 232.8 208 224 208C215.2 208 208 215.2 208 224zM305.6 495.9C307.7 496 309.8 496 312 496C357.3 496 398.2 475.9 425.9 443.8C413.7 436.3 399.4 432 384 432C345.3 432 313.1 459.4 305.6 495.9zM336 256C336 211.8 371.8 176 416 176C460.2 176 496 211.8 496 256L496 304L336 304L336 256zM424 216C424 224.8 431.2 232 440 232C448.8 232 456 224.8 456 216C456 207.2 448.8 200 440 200C431.2 200 424 207.2 424 216z"/><path fill="currentColor" d="M320 80C452.5 80 560 187.5 560 320C560 452.5 452.5 560 320 560C187.5 560 80 452.5 80 320C80 187.5 187.5 80 320 80zM320 576C461.4 576 576 461.4 576 320C576 178.6 461.4 64 320 64C178.6 64 64 178.6 64 320C64 461.4 178.6 576 320 576zM256 288L144 288L144 256C144 225.1 169.1 200 200 200C200.9 200 201.8 200 202.8 200.1C196.2 206 192 214.5 192 224C192 241.7 206.3 256 224 256C236.8 256 247.8 248.5 252.9 237.7C254.9 243.4 256 249.6 256 256L256 288zM200 184C160.2 184 128 216.2 128 256L128 304L272 304L272 256C272 216.2 239.8 184 200 184zM240 224C240 232.8 232.8 240 224 240C215.2 240 208 232.8 208 224C208 215.2 215.2 208 224 208C232.8 208 240 215.2 240 224zM440 232C431.2 232 424 224.8 424 216C424 207.2 431.2 200 440 200C448.8 200 456 207.2 456 216C456 224.8 448.8 232 440 232zM418.8 192.1C412.2 198 408 206.5 408 216C408 233.7 422.3 248 440 248C455.1 248 467.8 237.5 471.1 223.5C476.7 233 480 244.2 480 256L480 288L352 288L352 256C352 220.7 380.7 192 416 192C416.9 192 417.8 192 418.8 192.1zM336 256L336 304L496 304L496 256C496 211.8 460.2 176 416 176C371.8 176 336 211.8 336 256zM425.9 443.8C398.2 475.9 357.3 496 312 496C309.9 496 307.7 496 305.6 495.9C313.1 459.5 345.3 432 384 432C399.4 432 413.7 436.3 425.9 443.8zM438.7 433.1C423.2 422.3 404.3 416 383.9 416C336.9 416 297.8 449.8 289.5 494.4C217.7 484.3 160.5 426 153.4 352L470.4 352C467.5 382.5 456.1 410.3 438.7 433.1zM312 512C402.6 512 478.3 442.9 486.5 352.7L486.6 352L488.1 336L136.1 336L137.6 352L137.7 352.7C145.7 442.9 221.4 512 312 512z"/></svg>