<svg xmlns="http://www.w3.org/2000/svg" viewBox="0 0 640 640"><!--! Font Awesome Pro 7.2.0 by @fontawesome - https://fontawesome.com License - https://fontawesome.com/license (Commercial License) Copyright 2026 Fonticons, Inc. --><path opacity=".4" fill="currentColor" d="M80 320C80 452.5 187.5 560 320 560C452.5 560 560 452.5 560 320C560 187.5 452.5 80 320 80C187.5 80 80 187.5 80 320zM166.8 281.4C173 280.4 176.4 279.8 177.2 279.7C205.2 275 231 261.8 251 241.7C256.2 236.5 260.5 232.2 264 228.7L275.3 240C271.8 243.5 267.5 247.8 262.3 253C239.9 275.4 211.1 290.2 179.8 295.5L169.4 297.2L166.8 281.4zM192 479.5C192 473.1 192.5 466.8 193.4 460.7C202.7 399.1 255.8 351.9 320 351.9C384.2 351.9 437.3 399.1 446.6 460.7C447.5 466.8 448 473.1 448 479.5C442.7 476.6 437.3 473.9 431.7 471.4C398.8 456.5 360.7 448 320 448C279.3 448 241.2 456.5 208.3 471.4C202.7 473.9 197.3 476.7 192 479.5zM364.7 240L376 228.7C379.5 232.2 383.8 236.5 389 241.7C409 261.7 434.8 275 462.8 279.7C463.6 279.8 467 280.4 473.2 281.4L470.6 297.2C464.4 296.2 461 295.6 460.2 295.5C428.9 290.3 400.1 275.4 377.7 253C372.5 247.8 368.2 243.5 364.7 240z"/><path fill="currentColor" d="M560 320C560 187.5 452.5 80 320 80C187.5 80 80 187.5 80 320C80 452.5 187.5 560 320 560C452.5 560 560 452.5 560 320zM64 320C64 178.6 178.6 64 320 64C461.4 64 576 178.6 576 320C576 461.4 461.4 576 320 576C178.6 576 64 461.4 64 320zM320 432C359 432 395.9 439.4 428.6 452.7C416.4 404 372.4 368 320 368C267.6 368 223.5 404 211.4 452.7C244.1 439.4 281 432 320 432zM320 448C279.3 448 241.2 456.5 208.3 471.4C202.7 473.9 197.3 476.7 192 479.5C192 473.1 192.5 466.8 193.4 460.7C202.7 399.1 255.8 351.9 320 351.9C384.2 351.9 437.3 399.1 446.6 460.7C447.5 466.8 448 473.1 448 479.5C442.7 476.6 437.3 473.9 431.7 471.4C398.8 456.5 360.7 448 320 448zM275.3 240C271.8 243.5 267.5 247.8 262.3 253C239.9 275.4 211.1 290.2 179.8 295.5L169.4 297.2L166.8 281.4C173 280.4 176.4 279.8 177.2 279.7C205.2 275 231 261.8 251 241.7C256.2 236.5 260.5 232.2 264 228.7L275.3 240zM370.3 245.7L364.6 240L375.9 228.7C379.4 232.2 383.7 236.5 388.9 241.7C408.9 261.7 434.7 275 462.7 279.7C463.5 279.8 466.9 280.4 473.1 281.4L470.5 297.2C464.3 296.2 460.9 295.6 460.1 295.5C428.8 290.3 400 275.4 377.6 253L370.2 245.6z"/></svg>