<svg xmlns="http://www.w3.org/2000/svg" viewBox="0 0 640 640"><!--! Font Awesome Pro 7.2.0 by @fontawesome - https://fontawesome.com License - https://fontawesome.com/license (Commercial License) Copyright 2026 Fonticons, Inc. --><path opacity=".4" fill="currentColor" d="M80 320C80 187.5 187.5 80 320 80C452.5 80 560 187.5 560 320C560 383 535.7 440.3 496 483.2L496 505.9C462.1 538 419.4 561 371.8 570.7L451.6 490.9L457.3 485.2L451.6 479.5L414 441.9L441.1 414.8L446.8 409.1L441.1 403.4L391.1 353.4L374.7 369.8L337 332.2L331.3 326.5L325.6 332.2L240.9 416.9L240.9 362.8L175.8 362.8L175.8 495.8C175.8 510.2 178.5 524 183.5 536.7C162.7 523.6 144 507.6 127.8 489.3L128 464C97.9 423.9 80 374 80 320zM184 256L184 280L200 280L200 256C200 233.9 217.9 216 240 216C262.1 216 280 233.9 280 256L280 280L296 280L296 256C296 225.1 270.9 200 240 200C209.1 200 184 225.1 184 256zM344 256L344 280L360 280L360 256C360 233.9 377.9 216 400 216C422.1 216 440 233.9 440 256L440 280L456 280L456 256C456 225.1 430.9 200 400 200C369.1 200 344 225.1 344 256z"/><path fill="currentColor" d="M320 80C187.5 80 80 187.5 80 320C80 374 97.9 423.9 128 464L128 489.3C88.2 444.2 64 384.9 64 320C64 178.6 178.6 64 320 64C461.4 64 576 178.6 576 320C576 393.2 545.3 459.2 496 505.9L496 483.2C535.7 440.3 560 383 560 320C560 187.5 452.5 80 320 80zM200 256L200 280L184 280L184 256C184 225.1 209.1 200 240 200C270.9 200 296 225.1 296 256L296 280L280 280L280 256C280 233.9 262.1 216 240 216C217.9 216 200 233.9 200 256zM400 216C377.9 216 360 233.9 360 256L360 280L344 280L344 256C344 225.1 369.1 200 400 200C430.9 200 456 225.1 456 256L456 280L440 280L440 256C440 233.9 422.1 216 400 216zM337.1 332.3L374.8 369.9L391.2 353.5L441.2 403.5L446.9 409.2L441.2 414.9L414.1 442L451.7 479.6L457.4 485.3L451.7 491L367.5 575.2C346.5 596.2 317.9 608 288.2 608C226.3 608 176.1 557.8 176.1 495.9L176.1 362.9L241.2 362.9L241.2 417L325.9 332.3L331.6 326.6L337.3 332.3zM351.1 504.9L339.8 493.6L397.1 436.3L424.2 409.2L391.2 376.2L380.5 386.9L306.9 460.5L295.6 449.2L363.6 381.2L331.6 349.2L238.9 441.9L225.2 455.6L225.2 378.8L192.1 378.8L192.1 495.8C192.1 548.9 235.1 591.9 288.2 591.9C313.7 591.9 338.1 581.8 356.2 563.7L434.8 485.1L402.8 453.1L351.2 504.7z"/></svg>