<svg xmlns="http://www.w3.org/2000/svg" viewBox="0 0 640 640"><!--! Font Awesome Pro 7.2.0 by @fontawesome - https://fontawesome.com License - https://fontawesome.com/license (Commercial License) Copyright 2026 Fonticons, Inc. --><path opacity=".4" fill="currentColor" d="M80 320C80 452.5 187.5 560 320 560C452.5 560 560 452.5 560 320C560 187.5 452.5 80 320 80C187.5 80 80 187.5 80 320zM142.5 241.9C147.6 240.8 153 239.6 158.8 238.3C195.8 230.1 226.1 203.7 239.4 168.3C239.9 167 241.2 163.4 243.4 157.7L258.4 163.3C256.3 169 254.9 172.6 254.4 173.9C247.1 193.4 235.2 210.5 220.2 224.1C221.5 224 222.8 224 224.1 224C268.3 224 304.1 259.8 304.1 304C304.1 348.2 268.3 384 224.1 384C179.9 384 144.1 348.2 144.1 304C144.1 285.1 150.6 267.8 161.6 254.1C156.5 255.2 151.3 256.4 146.1 257.6L142.6 242zM192 304C192 321.7 206.3 336 224 336C241.7 336 256 321.7 256 304C256 292 249.4 281.6 239.7 276.1C237.7 291.8 224.2 304 208 304C202.3 304 196.9 302.5 192.3 299.9C192.1 301.3 192 302.6 192 304zM280 448L360 448L360 464L280 464L280 448zM336 304C336 259.8 371.8 224 416 224C417.3 224 418.6 224 419.9 224.1C404.9 210.6 393 193.5 385.7 173.9C385.2 172.6 383.9 169 381.7 163.3L396.7 157.7C398.8 163.4 400.2 167 400.7 168.3C414 203.8 444.3 230.1 481.3 238.3C487.1 239.6 492.5 240.8 497.6 241.9L494.1 257.5C488.9 256.3 483.7 255.2 478.6 254C489.5 267.7 496.1 285 496.1 303.9C496.1 348.1 460.3 383.9 416.1 383.9C371.9 383.9 336.1 348.1 336.1 303.9zM384.3 299.9C384.1 301.3 384 302.6 384 304C384 321.7 398.3 336 416 336C433.7 336 448 321.7 448 304C448 292 441.4 281.6 431.7 276.1C429.7 291.8 416.2 304 400 304C394.3 304 388.9 302.5 384.3 299.9z"/><path fill="currentColor" d="M560 320C560 187.5 452.5 80 320 80C187.5 80 80 187.5 80 320C80 452.5 187.5 560 320 560C452.5 560 560 452.5 560 320zM64 320C64 178.6 178.6 64 320 64C461.4 64 576 178.6 576 320C576 461.4 461.4 576 320 576C178.6 576 64 461.4 64 320zM384.5 170.8L381.7 163.3L396.7 157.7C398.8 163.4 400.2 167 400.7 168.3C414 203.8 444.3 230.1 481.3 238.3C487.1 239.6 492.5 240.8 497.6 241.9L494.1 257.5C488.9 256.3 483.7 255.2 478.6 254C489.5 267.7 496.1 285 496.1 303.9C496.1 348.1 460.3 383.9 416.1 383.9C371.9 383.9 336.1 348.1 336.1 303.9C336.1 259.7 371.9 223.9 416.1 223.9C417.4 223.9 418.7 223.9 420 224C405 210.5 393.1 193.4 385.8 173.8L384.6 170.7zM258.3 163.3C256.2 169 254.8 172.6 254.3 173.9C247 193.4 235.1 210.5 220.1 224.1C221.4 224 222.7 224 224 224C268.2 224 304 259.8 304 304C304 348.2 268.2 384 224 384C179.8 384 144 348.2 144 304C144 285.1 150.5 267.8 161.5 254.1C156.4 255.2 151.2 256.4 146 257.6L142.5 242C147.6 240.9 153 239.7 158.8 238.4C195.8 230.2 226.1 203.8 239.4 168.4C239.9 167.1 241.2 163.5 243.4 157.8L258.4 163.4zM288 304C288 268.7 259.3 240 224 240C188.7 240 160 268.7 160 304C160 339.3 188.7 368 224 368C259.3 368 288 339.3 288 304zM416 368C451.3 368 480 339.3 480 304C480 268.7 451.3 240 416 240C380.7 240 352 268.7 352 304C352 339.3 380.7 368 416 368zM256 304C256 292 249.4 281.6 239.7 276.1C237.7 291.8 224.2 304 208 304C202.3 304 196.9 302.5 192.3 299.9C192.1 301.3 192 302.6 192 304C192 321.7 206.3 336 224 336C241.7 336 256 321.7 256 304zM176 304C176 291.4 180.8 280.3 188.2 272C189.6 270.5 191 269 192.6 267.7C192.2 269.1 192 270.5 192 272C192 277.2 194.5 281.9 198.4 284.8C201.1 286.8 204.4 288 208 288C216.8 288 224 280.8 224 272L224 271.9C224 265.2 219.7 259.4 213.8 257.1C217.1 256.4 220.5 256 224 256C228.4 256 232.6 256.6 236.6 257.7C257 263.2 272 281.9 272 304C272 330.5 250.5 352 224 352C197.5 352 176 330.5 176 304zM416 336C433.7 336 448 321.7 448 304C448 292 441.4 281.6 431.7 276.1C429.7 291.8 416.2 304 400 304C394.3 304 388.9 302.5 384.3 299.9C384.1 301.3 384 302.6 384 304C384 321.7 398.3 336 416 336zM371.4 286.3C373.5 281 376.5 276.2 380.3 272C381.7 270.5 383.1 269 384.7 267.7C384.3 269.1 384.1 270.5 384.1 272C384.1 277.2 386.6 281.9 390.5 284.8C393.2 286.8 396.5 288 400.1 288C408.9 288 416.1 280.8 416.1 272C416.1 265.2 411.9 259.4 405.9 257.1C409.2 256.4 412.6 256 416.1 256C420.5 256 424.7 256.6 428.7 257.7C449.1 263.2 464.1 281.9 464.1 304C464.1 330.5 442.6 352 416.1 352C389.6 352 368.1 330.5 368.1 304C368.1 297.8 369.3 291.8 371.5 286.3zM288 448L360 448L360 464L280 464L280 448L288 448z"/></svg>