<svg xmlns="http://www.w3.org/2000/svg" viewBox="0 0 640 640"><!--! Font Awesome Pro 7.2.0 by @fontawesome - https://fontawesome.com License - https://fontawesome.com/license (Commercial License) Copyright 2026 Fonticons, Inc. --><path opacity=".4" fill="currentColor" d="M80 320C80 187.5 187.5 80 320 80C325.4 80 330.7 80.2 336 80.5L336 64.5C375 66.9 411.7 78 444 96L384 96L384 112L460.7 112L386.4 186.3L384.1 188.6C384.1 192 384.1 205.5 384.1 207.9L480.1 207.9L480.1 191.9L403.4 191.9L477.4 117.9C521.3 152.1 553.7 200.4 568 255.9L551.4 255.9C557 276.3 560 297.7 560 319.9C560 452.4 452.5 559.9 320 559.9C187.5 559.9 80 452.5 80 320zM160 296C160 326.9 185.1 352 216 352L232 352C262.9 352 288 326.9 288 296L272 296C272 318.1 254.1 336 232 336L216 336C193.9 336 176 318.1 176 296L160 296zM272 448C272 474.5 293.5 496 320 496C346.5 496 368 474.5 368 448C368 421.5 346.5 400 320 400C293.5 400 272 421.5 272 448zM352 296C352 326.9 377.1 352 408 352L424 352C454.9 352 480 326.9 480 296L464 296C464 318.1 446.1 336 424 336L408 336C385.9 336 368 318.1 368 296L352 296z"/><path fill="currentColor" d="M544 0L544 16L620.7 16L546.4 90.3L544.1 92.6C544.1 96 544.1 109.5 544.1 111.9L640.1 111.9L640.1 95.9L563.4 95.9L637.7 21.6L640 19.3C640 15.9 640 2.4 640 0L544 0zM384 96L384 112L460.7 112L386.4 186.3L384.1 188.6C384.1 192 384.1 205.5 384.1 207.9L480.1 207.9L480.1 191.9L403.4 191.9L477.7 117.6L480 115.3C480 111.9 480 98.4 480 96L384 96zM336 64.5C330.7 64.2 325.4 64 320 64C178.6 64 64 178.6 64 320C64 461.4 178.6 576 320 576C461.4 576 576 461.4 576 320C576 297.9 573.2 276.5 567.9 256L551.3 256C556.9 276.4 559.9 297.8 559.9 320C559.9 452.5 452.4 560 319.9 560C187.4 560 80 452.5 80 320C80 187.5 187.5 80 320 80C325.4 80 330.7 80.2 336 80.5L336 64.5zM320 480C302.3 480 288 465.7 288 448C288 430.3 302.3 416 320 416C337.7 416 352 430.3 352 448C352 465.7 337.7 480 320 480zM272 448C272 474.5 293.5 496 320 496C346.5 496 368 474.5 368 448C368 421.5 346.5 400 320 400C293.5 400 272 421.5 272 448zM408 336C385.9 336 368 318.1 368 296L352 296C352 326.9 377.1 352 408 352L424 352C454.9 352 480 326.9 480 296L464 296C464 318.1 446.1 336 424 336L408 336zM176 296L160 296C160 326.9 185.1 352 216 352L232 352C262.9 352 288 326.9 288 296L272 296C272 318.1 254.1 336 232 336L216 336C193.9 336 176 318.1 176 296z"/></svg>