<svg xmlns="http://www.w3.org/2000/svg" viewBox="0 0 640 640"><!--! Font Awesome Pro 7.2.0 by @fontawesome - https://fontawesome.com License - https://fontawesome.com/license (Commercial License) Copyright 2026 Fonticons, Inc. --><path opacity=".4" fill="currentColor" d="M88 296L88 344L136 344L136 296L88 296zM152 152L152 200L200 200L200 152L152 152zM152 440L152 488L200 488L200 440L152 440zM243.3 560L396.6 560C395.2 556 375.3 499.9 336.9 391.8L330.9 375C327.3 375.7 323.7 376.1 319.9 376.1C316.1 376.1 312.5 375.7 308.9 375L302.9 391.8L254.6 528L243.2 560zM296 88L296 136L344 136L344 88L296 88zM440 152L440 200L488 200L488 152L440 152zM440 440L440 488L488 488L488 440L440 440zM504 296L504 344L552 344L552 296L504 296z"/><path fill="currentColor" d="M280 72L360 72L360 107.7C386.4 112.6 411.1 122.4 433.2 136L504 136L504 206.8C517.6 228.9 527.4 253.6 532.3 280L568 280L568 360L532.3 360C527.4 386.4 517.6 411.1 504 433.2L504 504L424 504L424 424L490.9 424C502.7 404.6 511.4 383 516 360L488 360L488 328L375.4 328C372.8 346.1 361.6 361.4 346 369.6L407.9 544L407.9 544.1C413.5 559.9 417.3 570.7 419.2 576L220.5 576C226.2 560 230 549.3 231.8 544.1L231.8 544L293.7 369.6C278.2 361.4 266.9 346.1 264.3 328L151.7 328L151.7 360L123.7 360C128.4 383 137 404.6 148.8 424L215.7 424L215.7 504L135.7 504L135.7 433.2C122.4 411.1 112.6 386.4 107.7 360L72 360L72 280L107.7 280C112.6 253.6 122.4 228.9 136 206.8L136 136L206.8 136C228.9 122.4 253.6 112.6 280 107.7L280 72zM275.1 286.5L204.6 216L149 216C137.3 235.4 128.7 257 124 280L152 280L152 312L264.6 312C266 302.5 269.7 293.8 275.2 286.5zM312 264.6L312 152L280 152L280 124C257 128.7 235.4 137.3 216 149.1L216 204.7L286.5 275.2C293.8 269.7 302.5 266 312 264.6zM353.5 275.2L424 204.7L424 149.1C404.6 137.3 383 128.7 360 124L360 152L328 152L328 264.6C337.5 266 346.2 269.7 353.5 275.2zM375.4 312L488 312L488 280L516 280C511.3 257 502.7 235.4 490.9 216L435.3 216L364.8 286.5C370.3 293.8 374 302.5 375.4 312zM309 374.9L303 391.7L254.7 527.9L243.3 559.9L396.6 559.9C395.2 555.9 375.3 499.8 336.9 391.7L330.9 374.9C327.3 375.6 323.7 376 319.9 376C316.1 376 312.5 375.6 308.9 374.9zM360 320C360 297.9 342.1 280 320 280C297.9 280 280 297.9 280 320C280 342.1 297.9 360 320 360C342.1 360 360 342.1 360 320zM344 88L296 88L296 136L344 136L344 88zM88 296L88 344L136 344L136 296L88 296zM200 152L152 152L152 200L200 200L200 152zM152 440L152 488L200 488L200 440L152 440zM488 152L440 152L440 200L488 200L488 152zM440 440L440 488L488 488L488 440L440 440zM552 296L504 296L504 344L552 344L552 296z"/></svg>