<svg xmlns="http://www.w3.org/2000/svg" viewBox="0 0 640 640"><!--! Font Awesome Pro 7.2.0 by @fontawesome - https://fontawesome.com License - https://fontawesome.com/license (Commercial License) Copyright 2026 Fonticons, Inc. --><path opacity=".4" fill="currentColor" d="M144 80L144 560L496 560L496 240L336 240L336 80L144 80zM304 280L336 280L328 448L312 448L304 280z"/><path fill="currentColor" d="M512 224L512 576L128 576L128 64L352 64L512 224zM144 560L496 560L496 240L336 240L336 80L144 80L144 560zM332 515.8L308 515.8L308 491.8L332 491.8L332 515.8zM328 448L312 448L304 280L336 280L328 448zM352 224L489.4 224L352 86.6L352 224z"/></svg>