<svg xmlns="http://www.w3.org/2000/svg" viewBox="0 0 640 640"><!--! Font Awesome Pro 7.2.0 by @fontawesome - https://fontawesome.com License - https://fontawesome.com/license (Commercial License) Copyright 2026 Fonticons, Inc. --><path opacity=".4" fill="currentColor" d="M80 80L80 560L176 560L176 400L432 400L432 240L272 240L272 80L80 80z"/><path fill="currentColor" d="M80 80L272 80L272 240L432 240L432 400L448 400L448 224L288 64L64 64L64 576L176 576L176 560L80 560L80 80zM425.4 224L288 224L288 86.6L425.4 224zM344 472L344 464C331.1 464 328.5 464 325.6 464L323.3 468.3L287.8 535.2L250.9 468.2L248.6 464.1C241.9 464.1 237.4 464.1 231.9 464.1L231.9 608.1L247.9 608.1L247.9 496L280.9 556L288 569L294.9 555.9L327.8 493.8L327.8 608.2L343.8 608.2L343.8 472.2zM400 464L392 464L392 608L408 608L408 560L432 560C458.5 560 480 538.5 480 512C480 485.5 458.5 464 432 464L400 464zM432 544L408 544L408 480L432 480C449.7 480 464 494.3 464 512C464 529.7 449.7 544 432 544zM560 608C582.1 608 600 590.1 600 568C600 554.9 593.7 543.3 584 536C593.7 528.7 600 517.1 600 504C600 481.9 582.1 464 560 464L512 464L512 480L560 480C573.3 480 584 490.7 584 504C584 517.3 573.3 528 560 528L528 528L528 544L560 544C573.3 544 584 554.7 584 568C584 581.3 573.3 592 560 592L512 592L512 608L560 608z"/></svg>