<svg xmlns="http://www.w3.org/2000/svg" viewBox="0 0 640 640"><!--! Font Awesome Pro 7.2.0 by @fontawesome - https://fontawesome.com License - https://fontawesome.com/license (Commercial License) Copyright 2026 Fonticons, Inc. --><path opacity=".4" fill="currentColor" d="M144 80L144 560L496 560L496 240L336 240L336 80L144 80zM240 444C240 410.9 268.7 384 304 384C323.1 384 340.3 391.9 352 404.3L352 288L400 288L400 304L368 304L368 444.2C367.9 477.3 339.3 504 304 504C268.7 504 240 477.1 240 444z"/><path fill="currentColor" d="M336 80L336 240L496 240L496 560L144 560L144 80L336 80zM352 86.6L489.4 224L352 224L352 86.6zM352 64L128 64L128 576L512 576L512 224L352 64zM352 288L352 404.3C340.3 391.8 323.1 384 304 384C268.7 384 240 410.9 240 444C240 477.1 268.7 504 304 504C339.3 504 367.9 477.2 368 444.2L368 304L400 304L400 288L352 288zM304 400C331.5 400 352 420.7 352 444C352 467.3 331.5 488 304 488C276.5 488 256 467.3 256 444C256 420.7 276.5 400 304 400z"/></svg>