<svg xmlns="http://www.w3.org/2000/svg" viewBox="0 0 640 640"><!--! Font Awesome Pro 7.2.0 by @fontawesome - https://fontawesome.com License - https://fontawesome.com/license (Commercial License) Copyright 2026 Fonticons, Inc. --><path opacity=".4" fill="currentColor" d="M144 80L144 560L496 560L496 240L336 240L336 80L144 80zM220.8 420.1L232.3 409L237.9 414.8L293.6 472.4L401.7 323.7L406.4 317.2L419.3 326.6L414.6 333.1L300.9 489.5L295.3 497.2L288.7 490.4L226.4 425.9L220.8 420.1z"/><path fill="currentColor" d="M512 224L512 576L128 576L128 64L352 64L512 224zM144 560L496 560L496 240L336 240L336 80L144 80L144 560zM419.3 326.7L414.6 333.2L300.9 489.6L295.3 497.3L288.7 490.5L226.4 426L220.8 420.2L232.3 409.1L237.9 414.9L293.6 472.5L401.7 323.8L406.4 317.3L419.3 326.7zM352 224L489.4 224L352 86.6L352 224z"/></svg>