<svg xmlns="http://www.w3.org/2000/svg" viewBox="0 0 640 640"><!--! Font Awesome Pro 7.2.0 by @fontawesome - https://fontawesome.com License - https://fontawesome.com/license (Commercial License) Copyright 2026 Fonticons, Inc. --><path opacity=".4" fill="currentColor" d="M80 80L80 560L208 560L208 400L432 400L432 240L272 240L272 80L80 80z"/><path fill="currentColor" d="M80 80L272 80L272 240L432 240L432 400L448 400L448 224L288 64L64 64L64 576L208 576L208 560L80 560L80 80zM425.4 224L288 224L288 86.6L425.4 224zM504 472L504 464C491.1 464 488.5 464 485.6 464L483.3 468.3L447.8 535.2L410.9 468.2L408.6 464.1C401.9 464.1 397.4 464.1 391.9 464.1L391.9 608.1L407.9 608.1L407.9 496L440.9 556L448 569L454.9 555.9L487.8 493.8L487.8 608.2L503.8 608.2L503.8 472.2zM280 472L280 464L264 464L264 472C264 484 267.6 495.8 274.2 505.8L294.4 536L274.2 566.2C267.6 576.2 264 588 264 600L264 608L280 608L280 600C280 591.1 282.6 582.5 287.5 575.1L304 550.4L320.5 575.1C325.4 582.5 328 591.1 328 600L328 608L344 608L344 600C344 588 340.4 576.2 333.8 566.2L313.6 536L333.8 505.8C340.5 495.8 344 484.1 344 472L344 464L328 464L328 472C328 480.9 325.4 489.5 320.5 496.9L304 521.6L287.5 496.9C282.6 489.5 280 480.9 280 472zM552 608L600 608L600 592L568 592L568 464L552 464L552 608z"/></svg>