<svg xmlns="http://www.w3.org/2000/svg" viewBox="0 0 640 640"><!--! Font Awesome Pro 7.2.0 by @fontawesome - https://fontawesome.com License - https://fontawesome.com/license (Commercial License) Copyright 2026 Fonticons, Inc. --><path opacity=".4" fill="currentColor" d="M80 80L80 560L208 560L208 400L432 400L432 240L272 240L272 80L80 80z"/><path fill="currentColor" d="M80 80L272 80L272 240L432 240L432 400L448 400L448 224L288 64L64 64L64 576L208 576L208 560L80 560L80 80zM425.4 224L288 224L288 86.6L425.4 224zM272 464L264 464L264 608L280 608L280 560L304 560C330.5 560 352 538.5 352 512C352 485.5 330.5 464 304 464L272 464zM304 544L280 544L280 480L304 480C321.7 480 336 494.3 336 512C336 529.7 321.7 544 304 544zM400 464L392 464L392 608L408 608L408 560L432 560C458.5 560 480 538.5 480 512C480 485.5 458.5 464 432 464L400 464zM432 544L408 544L408 480L432 480C449.7 480 464 494.3 464 512C464 529.7 449.7 544 432 544zM520 464L520 480L552 480L552 608L568 608L568 480L600 480L600 464L520 464z"/></svg>