<svg xmlns="http://www.w3.org/2000/svg" viewBox="0 0 640 640"><!--! Font Awesome Pro 7.2.0 by @fontawesome - https://fontawesome.com License - https://fontawesome.com/license (Commercial License) Copyright 2026 Fonticons, Inc. --><path opacity=".4" fill="currentColor" d="M160 240L160 528L480 528L480 240L160 240z"/><path fill="currentColor" d="M168 48L160 48L160 64L480 64L480 48L168 48zM120 144L112 144L112 160L528 160L528 144L120 144zM560 304L496 304L496 240L560 240L560 304zM496 224L64 224L64 544L576 544L576 224L496 224zM480 240L480 528L160 528L160 240L480 240zM80 240L144 240L144 304L80 304L80 240zM80 376L80 320L144 320L144 376L80 376zM80 448L80 392L144 392L144 448L80 448zM80 528L80 464L144 464L144 528L80 528zM560 464L560 528L496 528L496 464L560 464zM560 392L560 448L496 448L496 392L560 392zM560 320L560 376L496 376L496 320L560 320z"/></svg>