<svg xmlns="http://www.w3.org/2000/svg" viewBox="0 0 640 640"><!--! Font Awesome Pro 7.2.0 by @fontawesome - https://fontawesome.com License - https://fontawesome.com/license (Commercial License) Copyright 2026 Fonticons, Inc. --><path opacity=".4" fill="currentColor" d="M80 400L170.6 400C208 439.2 260.6 464 320 464C378.9 464 431.5 439.2 469.1 400L560 400L560 528L80 528L80 400zM480 464C480 472.8 487.2 480 496 480C504.8 480 512 472.8 512 464C512 455.2 504.8 448 496 448C487.2 448 480 455.2 480 464z"/><path fill="currentColor" d="M288 64.2L340.7 116.8L352 128.2C358 122.2 368.7 111.6 384 96.2C460.8 160.2 480 229.5 480 256.2C480 344.6 408.4 416.2 320 416.2C231.6 416.2 160 344.5 160 256.2C160 166.6 245.3 90.9 288 64.2zM363.3 139.5L352 150.8L340.7 139.5L286 84.7C266.7 98.3 241.8 119.8 220.6 146.5C195.1 178.5 176.1 216.4 176.1 256.1C176.1 305.9 201.4 349.8 239.8 375.7C229.9 361.6 224.1 344.7 224.1 326.5C224.1 256.1 320.1 192.1 320.1 192.1C320.1 192.1 416.1 256.1 416.1 326.5C416.1 344.7 410.3 361.6 400.4 375.7C438.8 349.8 464.1 305.9 464.1 256.1C464.1 235.9 449.2 176.4 384.9 118L363.3 139.5zM320 400.2C365.2 400.2 400 366.2 400 326.6C400 298.1 380 268.4 356.5 244.1C342.7 229.8 328.7 218.5 320 211.9C311.2 218.5 297.3 229.8 283.5 244.1C260 268.4 240 298 240 326.6C240 366.2 274.8 400.2 320 400.2zM156.8 384C161.1 389.6 165.8 394.9 170.6 400L80 400L80 528L560 528L560 400L469.1 400C474 394.9 478.6 389.6 483 384L576 384L576 544L64 544L64 384L156.8 384zM496 448C504.8 448 512 455.2 512 464C512 472.8 504.8 480 496 480C487.2 480 480 472.8 480 464C480 455.2 487.2 448 496 448z"/></svg>