<svg xmlns="http://www.w3.org/2000/svg" viewBox="0 0 640 640"><!--! Font Awesome Pro 7.2.0 by @fontawesome - https://fontawesome.com License - https://fontawesome.com/license (Commercial License) Copyright 2026 Fonticons, Inc. --><path opacity=".4" fill="currentColor" d="M51.5 227.2L94.3 312.9L97.9 320.1L94.3 327.3L51.5 413L67.9 429.4L181 384.2L190.8 380.3L198.3 387.8C217.7 407.4 241.9 426.8 270.8 441.2L280.9 446.2L279.6 457.4L273.2 511.8L294.6 524.7L363.7 467.8L368 464.3L373.5 464.2C446 462.4 500.8 425.4 538.2 387.6C556.8 368.7 570.8 350 580.2 335.9C584.4 329.6 587.6 324.2 589.9 320.3C587.6 316.4 584.4 311 580.2 304.7C570.9 290.6 556.9 271.9 538.2 253C500.8 215.2 446 178.1 373.5 176.4L368 176.3L363.7 172.8L294.6 115.9L273.2 128.8C278.3 172.3 280.9 194.2 280.9 194.4L270.8 199.4C239.9 214.8 214.4 235.9 194.3 256.9L186.5 265.1L176.2 260.5L67.6 211.6L51.6 227.6zM480 320C480 337.7 465.7 352 448 352C430.3 352 416 337.7 416 320C416 302.3 430.3 288 448 288C465.7 288 480 302.3 480 320z"/><path fill="currentColor" d="M296 96L373.8 160.1C529.9 163.9 608 320 608 320C608 320 529.9 476.1 373.8 479.9L296 544L256 520L263.6 455.3C232.8 440 207.2 419.4 186.8 398.8L64 448L32 416L80 320L32 224L64 192L182.7 245.4C203.7 223.5 230.6 201.1 263.6 184.7L256 120L296 96zM580 304.4C570.7 290.3 556.7 271.6 538 252.7C500.6 214.9 445.8 177.8 373.3 176.1L367.8 176L363.5 172.5L294.4 115.6L273 128.5C278.1 172 280.7 193.9 280.7 194.1L270.6 199.1C239.7 214.5 214.2 235.6 194.1 256.6L186.3 264.8L176 260.2L67.4 211.3L51.4 227.3L94.2 313L97.8 320.2L94.2 327.4L51.4 413.1L67.8 429.5L180.9 384.3L190.7 380.4L198.2 387.9C217.6 407.5 241.8 426.9 270.7 441.3L280.8 446.3L279.5 457.5L273.1 511.9L294.5 524.8L363.6 467.9L367.9 464.4L373.4 464.3C445.9 462.5 500.7 425.5 538.1 387.7C556.7 368.8 570.7 350.1 580.1 336C584.3 329.7 587.5 324.3 589.8 320.4C587.5 316.5 584.3 311.1 580.1 304.8zM593.7 327.2L593.7 327.2zM448 288C465.7 288 480 302.3 480 320C480 337.7 465.7 352 448 352C430.3 352 416 337.7 416 320C416 302.3 430.3 288 448 288zM464 320C464 311.2 456.8 304 448 304C439.2 304 432 311.2 432 320C432 328.8 439.2 336 448 336C456.8 336 464 328.8 464 320z"/></svg>