<svg xmlns="http://www.w3.org/2000/svg" viewBox="0 0 640 640"><!--! Font Awesome Pro 7.2.0 by @fontawesome - https://fontawesome.com License - https://fontawesome.com/license (Commercial License) Copyright 2026 Fonticons, Inc. --><path opacity=".4" fill="currentColor" d="M80 320C80 452.5 187.5 560 320 560C452.5 560 560 452.5 560 320C560 187.5 452.5 80 320 80C187.5 80 80 187.5 80 320zM164.7 304L170.4 298.3L298.4 170.3L304.1 164.6L315.4 175.9L309.7 181.6L181.7 309.6L176 315.3L164.7 304zM212.7 416L218.4 410.3L410.4 218.3L416.1 212.6L427.4 223.9L421.7 229.6L229.7 421.6L224 427.3L212.7 416zM324.7 464L464 324.7L475.3 336L336 475.3L324.7 464z"/><path fill="currentColor" d="M560 320C560 187.5 452.5 80 320 80C187.5 80 80 187.5 80 320C80 452.5 187.5 560 320 560C452.5 560 560 452.5 560 320zM64 320C64 178.6 178.6 64 320 64C461.4 64 576 178.6 576 320C576 461.4 461.4 576 320 576C178.6 576 64 461.4 64 320zM421.7 229.7L229.7 421.7L224 427.4L212.7 416.1L218.4 410.4L410.4 218.4L416.1 212.7L427.4 224L421.7 229.7zM315.3 176L309.6 181.7L181.6 309.7L175.9 315.4L164.6 304.1L170.3 298.4L298.3 170.4L304 164.7L315.3 176zM469.7 341.7L336 475.3L324.7 464L464 324.7L475.3 336L469.7 341.7z"/></svg>