<svg xmlns="http://www.w3.org/2000/svg" viewBox="0 0 640 640"><!--! Font Awesome Pro 7.2.0 by @fontawesome - https://fontawesome.com License - https://fontawesome.com/license (Commercial License) Copyright 2026 Fonticons, Inc. --><path opacity=".4" fill="currentColor" d="M112 400C112 488.4 183.6 560 272 560L312 560C312 471.6 240.4 400 152 400L112 400zM192 152C192 171 199.4 188.3 211.5 201.2C213.2 202.6 214.9 203.8 216.8 205C217.8 205.7 218.3 206.7 218.3 208C218.4 209.2 217.8 210.3 216.8 211C215 212.2 213.2 213.5 211.5 214.8C199.4 227.7 192 244.9 192 264C192 303.8 224.2 336 264 336C283.1 336 300.3 328.6 313.2 316.4C314.5 314.7 315.8 313 317 311.2C317.7 310.2 318.8 309.7 320 309.7C321.2 309.6 322.3 310.2 323 311.2C324.2 313 325.4 314.7 326.8 316.4C339.7 328.5 357 336 376 336C415.8 336 448 303.8 448 264C448 244.9 440.6 227.6 428.4 214.8C426.7 213.5 425 212.2 423.2 211C422.2 210.3 421.7 209.2 421.7 208C421.6 206.8 422.2 205.7 423.2 205C425 203.8 426.7 202.6 428.4 201.2C440.5 188.3 448 171 448 152C448 112.2 415.8 80 376 80C357 80 339.7 87.4 326.8 99.5C325.4 101.2 324.2 102.9 323 104.8C322.3 105.8 321.3 106.3 320 106.2C318.7 106.3 317.7 105.8 317 104.8C315.8 103 314.5 101.2 313.2 99.5C300.3 87.4 283 80 264 80C224.2 80 192 112.2 192 152zM265.4 208L320 153.4L374.6 208L320 262.6L265.4 208zM328 560L368 560C456.4 560 528 488.4 528 400L488 400C399.6 400 328 471.6 328 560z"/><path fill="currentColor" d="M376 64C424.6 64 464 103.4 464 152C464 173.3 456.3 192.8 443.8 208C456.4 223.2 464 242.7 464 264C464 312.6 424.6 352 376 352C358.2 352 341.8 346.6 328 337.6L328 486.6C354.6 428.7 411.8 387.7 478.9 384.3L488 384.1L544 384.1L544 400.1L543.8 409.2C539.2 499.2 467.1 571.4 377.1 575.9L368 576.1L272 576.1L262.9 575.9C172.9 571.2 100.8 499.1 96.2 409.1L96 400L96 384L152 384L161.1 384.2C228.2 387.6 285.4 428.6 312 486.5L312 337.5C298.2 346.6 281.8 351.9 264 351.9C215.4 351.9 176 312.5 176 263.9C176 242.6 183.6 223.1 196.2 207.9C183.6 192.7 176 173.2 176 151.9C176 103.3 215.4 63.9 264 63.9C285.3 63.9 304.8 71.5 320 84.1C335.2 71.5 354.7 63.9 376 63.9zM112 400C112 488.4 183.6 560 272 560L312 560C312 471.6 240.4 400 152 400L112 400zM488 400C399.6 400 328 471.6 328 560L368 560C456.4 560 528 488.4 528 400L488 400zM376 80C356.4 80 338.6 87.9 325.6 100.6L320 106.1L314.4 100.6C301.4 87.8 283.6 80 264 80C224.2 80 192 112.2 192 152C192 171.6 199.9 189.4 212.6 202.4L218.1 208L212.6 213.6C199.8 226.6 192 244.4 192 264C192 303.8 224.2 336 264 336C283.6 336 301.4 328.1 314.4 315.3L320 309.8L325.6 315.3C338.6 328.1 356.4 336 376 336C415.8 336 448 303.8 448 264C448 244.4 440.1 226.6 427.3 213.6L421.8 208L427.3 202.4C440.1 189.4 448 171.6 448 152C448 112.2 415.8 80 376 80zM374.6 208L320 262.6L265.4 208L320 153.4L374.6 208zM288 208L320 240L352 208L320 176L288 208z"/></svg>