<svg xmlns="http://www.w3.org/2000/svg" viewBox="0 0 640 640"><!--! Font Awesome Pro 7.2.0 by @fontawesome - https://fontawesome.com License - https://fontawesome.com/license (Commercial License) Copyright 2026 Fonticons, Inc. --><path opacity=".4" fill="currentColor" d="M80 112L80 496L560 496L560 160L346.7 160C344.2 158.1 340.7 155.5 336 152L331.2 152L317.9 138.4L282.7 112L80 112zM236.7 344L248 332.7L253.7 338.4L312 396.7L312 232L328 232L328 396.7L392 332.7L403.3 344L320 427.3L314.3 421.6L242.3 349.6L236.6 343.9z"/><path fill="currentColor" d="M288 96L352 144L576 144L576 512L64 512L64 96L288 96zM352 160L346.7 160L342.4 156.8L282.7 112L80 112L80 496L560 496L560 160L352 160zM314.3 421.7L242.3 349.7L236.6 344L247.9 332.7L253.6 338.4L311.9 396.7L311.9 232L327.9 232L327.9 396.7L391.9 332.7L403.2 344L319.9 427.3L314.2 421.6z"/></svg>