<svg xmlns="http://www.w3.org/2000/svg" viewBox="0 0 640 640"><!--! Font Awesome Pro 7.2.0 by @fontawesome - https://fontawesome.com License - https://fontawesome.com/license (Commercial License) Copyright 2026 Fonticons, Inc. --><path opacity=".4" fill="currentColor" d="M80 112L80 496L560 496L560 160L346.7 160L336 152L331.2 152L317.9 138.4L282.6 112L79.9 112zM220.7 328L304 244.7L315.3 256L251.3 320L416 320L416 336L251.3 336L315.3 400L304 411.3L220.7 328z"/><path fill="currentColor" d="M352 144L576 144L576 512L64 512L64 96L288 96L352 144zM80 496L560 496L560 160L346.7 160L282.7 112L80 112L80 496zM315.3 256L251.3 320L416 320L416 336L251.3 336L315.3 400L304 411.3L220.7 328L304 244.7L315.3 256z"/></svg>