<svg xmlns="http://www.w3.org/2000/svg" viewBox="0 0 640 640"><!--! Font Awesome Pro 7.2.0 by @fontawesome - https://fontawesome.com License - https://fontawesome.com/license (Commercial License) Copyright 2026 Fonticons, Inc. --><path opacity=".4" fill="currentColor" d="M80 112L80 496L560 496L560 160L346.7 160C344.2 158.1 340.7 155.5 336 152L331.2 152L317.9 138.4L282.7 112L80 112zM192 303.9C214.6 263.6 226.7 241.8 228.5 238.7C237.1 243.7 247.6 249.7 260.1 256.9C266.7 251.9 274 247.6 281.8 244.4L281.8 207.9L358.6 207.9L358.6 244.5C366.3 247.8 373.6 252 380.1 257C392.7 249.7 403.2 243.6 411.8 238.7C413.5 241.8 425.6 263.5 448 303.9L418.3 322.5C418.9 326.9 419.2 331.4 419.2 336C419.2 340.6 418.9 345 418.3 349.4L448 367.9C425.6 408.3 413.5 430.1 411.8 433.2C403.2 428.3 392.7 422.2 380.1 414.9C373.5 419.9 366.3 424.1 358.6 427.4L358.6 464L281.8 464C281.8 454.1 281.8 441.9 281.8 427.5C274 424.2 266.7 420 260.1 415C247.7 422.2 237.1 428.3 228.5 433.2C226.8 430.1 214.6 408.3 192 367.9L221.7 349.5C221.1 345.1 220.8 340.6 220.8 336C220.8 331.4 221.1 326.9 221.7 322.4L192 303.9zM296 335.9C296 349.2 306.7 359.9 320 359.9C333.3 359.9 344 349.2 344 335.9C344 322.6 333.3 311.9 320 311.9C306.7 311.9 296 322.6 296 335.9z"/><path fill="currentColor" d="M288 96L352 144L576 144L576 512L64 512L64 96L288 96zM352 160L346.7 160L342.4 156.8L282.7 112L80 112L80 496L560 496L560 160L352 160zM358.5 244.6C366.2 247.9 373.5 252.1 380 257.1C392.6 249.8 403.1 243.7 411.7 238.8C413.4 241.9 425.5 263.6 447.9 304L418.2 322.6C418.8 327 419.1 331.5 419.1 336.1C419.1 340.7 418.8 345.1 418.2 349.5L448 367.9C425.6 408.3 413.5 430.1 411.8 433.2C403.2 428.3 392.7 422.1 380.1 414.9C373.5 419.9 366.3 424.1 358.6 427.4L358.6 464L281.8 464C281.8 454.1 281.8 441.9 281.8 427.5C274 424.2 266.7 420 260.1 415C247.7 422.2 237.1 428.3 228.5 433.2C226.8 430.1 214.6 408.3 192 367.9L221.7 349.5C221.1 345.1 220.8 340.6 220.8 336C220.8 331.4 221.1 326.9 221.7 322.4L192 303.9C214.6 263.6 226.7 241.8 228.5 238.7C237.1 243.7 247.6 249.7 260.1 256.9C266.7 251.9 274 247.6 281.8 244.4L281.8 207.9L358.6 207.9L358.6 244.5zM405.7 260.8C392.6 268.4 383.6 273.6 378.9 276.3L370.4 269.8C364.9 265.6 358.8 262.1 352.3 259.3L342.5 255.2L342.5 224L297.7 224L297.7 255.1L287.9 259.2C281.4 261.9 275.3 265.5 269.7 269.7L261.2 276.1C256.4 273.4 247.5 268.2 234.5 260.7L213.4 298.4C225.9 306.2 234.4 311.5 239 314.3L237.6 324.6C237.1 328.3 236.8 332.1 236.8 336C236.8 339.9 237.1 343.6 237.6 347.3L239 357.6C234.4 360.4 225.9 365.7 213.5 373.4L234.6 411.2C247.7 403.7 256.6 398.5 261.3 395.8L269.8 402.2C275.4 406.4 281.5 410 288 412.7L297.8 416.8C297.8 422.3 297.8 432.6 297.8 447.9L342.6 447.9L342.6 416.7L352.4 412.6C358.9 409.9 364.9 406.3 370.5 402.1L379 395.6C383.8 398.3 392.7 403.5 405.8 411.1L426.8 373.3C414.3 365.5 405.7 360.2 401.2 357.4L402.6 347.1C403.1 343.4 403.4 339.7 403.4 335.8C403.4 332 403.1 328.2 402.6 324.5L401 314.4C405.5 311.6 414 306.2 426.6 298.4L405.7 260.7zM320 311.9C306.7 311.9 296 322.6 296 335.9C296 349.2 306.7 359.9 320 359.9C333.3 359.9 344 349.2 344 335.9C344 322.6 333.3 311.9 320 311.9zM360 335.9C360 358 342.1 375.9 320 375.9C297.9 375.9 280 358 280 335.9C280 313.8 297.9 295.9 320 295.9C342.1 295.9 360 313.8 360 335.9z"/></svg>