<svg xmlns="http://www.w3.org/2000/svg" viewBox="0 0 640 640"><!--! Font Awesome Pro 7.2.0 by @fontawesome - https://fontawesome.com License - https://fontawesome.com/license (Commercial License) Copyright 2026 Fonticons, Inc. --><path opacity=".4" fill="currentColor" d="M100.5 367.8C92.5 426.9 96.3 486.2 105.7 534.6C170.3 545 225.8 546.3 273.4 540.6L100.5 367.8zM103.6 348.3L293.1 537.8C316.4 533.9 337.6 528.3 356.9 521.1C420.2 497.6 463.8 457.9 492.8 410.4C515 374.1 528.7 333.2 536.3 291.6L346.8 102.1C323.5 106 302.3 111.7 283 118.9C219.7 142.4 176.1 182.1 147.1 229.6C124.9 265.9 111.1 306.7 103.6 348.3zM220.7 344L232 332.7L307.3 408L296 419.3L220.7 344zM276.7 288L288 276.7L363.3 352L352 363.3L276.7 288zM332.7 232L344 220.7L419.3 296L408 307.3L332.7 232zM366.7 99.3L539.5 272.2C547.5 213.1 543.8 153.9 534.3 105.4C469.7 95 414.2 93.7 366.6 99.3z"/><path fill="currentColor" d="M277.5 103.9C340.1 80.7 420.2 72.8 521.9 87.3L542.5 90.5L547.9 91.4L549 96.7C567.6 187 567.9 318.6 506.5 418.8C475.7 469.1 429.4 511.3 362.5 536.1C295.8 560.9 209 568.1 97.5 549.5L92.1 548.6L91 543.2C72.3 453 72.1 321.3 133.5 221.2C164.3 170.9 210.6 128.7 277.5 103.9zM100.5 367.8C92.5 426.9 96.3 486.2 105.7 534.6C170.3 545 225.8 546.3 273.4 540.6L100.5 367.8zM346.8 102.1C323.5 106 302.3 111.7 283 118.9C219.7 142.4 176.1 182.1 147.1 229.6C124.9 265.9 111.1 306.7 103.6 348.3L293.1 537.8C316.4 533.9 337.6 528.3 356.9 521.1C420.2 497.6 463.8 457.9 492.8 410.4C515 374.1 528.7 333.2 536.3 291.6L346.8 102.1zM307.3 408L296 419.3L220.7 344L232 332.7L307.3 408zM363.3 352L352 363.3L276.7 288L288 276.7L363.3 352zM419.3 296L408 307.3L332.7 232L344 220.7L419.3 296zM534.3 105.4C469.7 95 414.2 93.7 366.6 99.3L539.5 272.2C547.5 213.1 543.8 153.9 534.3 105.4z"/></svg>