<svg xmlns="http://www.w3.org/2000/svg" viewBox="0 0 640 640"><!--! Font Awesome Pro 7.2.0 by @fontawesome - https://fontawesome.com License - https://fontawesome.com/license (Commercial License) Copyright 2026 Fonticons, Inc. --><path opacity=".4" fill="currentColor" d="M336.5 179.5L344 172C346.2 169.8 348.5 167.8 351 166L476.7 76.3C483.9 83.5 491.1 90.7 498.2 97.8L370.6 213.2L363.8 219.4L375.1 230.7L381.3 225.1L509.5 109.1C516.7 116.4 524 123.6 531.3 130.8L409.7 265.3L421.1 276.6L542.7 142.2C549.9 149.4 557.1 156.6 564.2 163.7L474.5 289.4C472.7 291.9 470.7 294.3 468.5 296.4L460.9 304C439 325.9 403.6 325.9 381.7 304L336.4 258.7C314.5 236.8 314.5 201.4 336.4 179.5z"/><path fill="currentColor" d="M341.8 153L465.3 64.8L476.7 76.3L351.1 166C348.6 167.8 346.2 169.8 344.1 172L336.5 179.6C314.6 201.5 314.6 236.9 336.5 258.8L381.7 304C403.6 325.9 439 325.9 460.9 304L468.5 296.4C470.7 294.2 472.7 291.9 474.5 289.4L564.2 163.8L575.7 175.3L487.5 298.8C485.2 302 482.6 305.1 479.8 307.9L472.2 315.5C444.1 343.6 398.5 343.6 370.4 315.5L353.4 298.5L81.9 570L76.2 575.7L64.9 564.4L70.6 558.7L342.1 287.2L325.1 270.2C297 242.1 297 196.5 325.1 168.4L332.7 160.8C335.5 158 338.5 155.4 341.8 153.1zM370.7 213.2L498.3 97.8L509.6 109.1L381.4 225.1L375.2 230.7L363.9 219.4L370.7 213.2zM409.7 265.3L531.3 130.9L542.6 142.2L421 276.6L409.7 265.3z"/></svg>