<svg xmlns="http://www.w3.org/2000/svg" viewBox="0 0 640 640"><!--! Font Awesome Pro 7.2.0 by @fontawesome - https://fontawesome.com License - https://fontawesome.com/license (Commercial License) Copyright 2026 Fonticons, Inc. --><path opacity=".4" fill="currentColor" d="M48 176L48 304L272 304L272 176L48 176zM96 320L96 560L240 560L240 400L400 400L400 560L544 560L544 320L352 320L352 248L288 248L288 320L96 320zM368 176L368 304L592 304L592 176L368 176z"/><path fill="currentColor" d="M48 96L48 160L152 160L152 96L168 96L168 160L272 160L272 96L288 96L288 232L352 232L352 96L368 96L368 160L472 160L472 96L488 96L488 160L592 160L592 96L608 96L608 320L560 320L560 576L80 576L80 320L32 320L32 96L48 96zM256 560L384 560L384 416L256 416L256 560zM400 560L544 560L544 320L352 320L352 248L288 248L288 320L96 320L96 560L240 560L240 400L400 400L400 560zM272 232L272 176L48 176L48 304L272 304L272 232zM368 304L592 304L592 176L368 176L368 304z"/></svg>