<svg xmlns="http://www.w3.org/2000/svg" viewBox="0 0 640 640"><!--! Font Awesome Pro 7.2.0 by @fontawesome - https://fontawesome.com License - https://fontawesome.com/license (Commercial License) Copyright 2026 Fonticons, Inc. --><path opacity=".4" fill="currentColor" d="M144 144L144 496L496 496L496 144L144 144z"/><path fill="currentColor" d="M576 144L576 128L512 128L512 64L496 64L496 128L144 128L144 64L128 64L128 128L64 128L64 144L128 144L128 496L64 496L64 512L128 512L128 576L144 576L144 512L496 512L496 576L512 576L512 512L576 512L576 496L512 496L512 144L576 144zM496 144L496 496L144 496L144 144L496 144z"/></svg>