<svg xmlns="http://www.w3.org/2000/svg" viewBox="0 0 640 640"><!--! Font Awesome Pro 7.2.0 by @fontawesome - https://fontawesome.com License - https://fontawesome.com/license (Commercial License) Copyright 2026 Fonticons, Inc. --><path opacity=".4" fill="currentColor" d="M112 288C112 352.3 141.2 409.8 187.1 448L312 448L312 355.3L261.7 405.6L256 411.3L244.7 400L250.4 394.3L312.1 332.6L312.1 275.2L261.8 325.5L256.1 331.2L244.8 319.9L250.5 314.2L314.5 250.2L320.2 244.5L325.9 250.2L389.9 314.2L395.6 319.9L384.3 331.2L378.6 325.5L328.3 275.2L328.3 332.6L395.6 399.9L384.3 411.2L328.3 355.2L328.3 447.9L453.2 447.9C499.1 409.7 528.3 352.2 528.3 287.9C528.3 173 435.2 79.9 320.3 79.9C205.4 79.9 112 173.1 112 288zM112 547.1L112 560L528 560L528 547.1L452.5 464L187.6 464L112.1 547.1zM192 304C192 312.8 184.8 320 176 320C167.2 320 160 312.8 160 304C160 295.2 167.2 288 176 288C184.8 288 192 295.2 192 304zM352 144C352 152.8 344.8 160 336 160C327.2 160 320 152.8 320 144C320 135.2 327.2 128 336 128C344.8 128 352 135.2 352 144zM448 240C448 248.8 440.8 256 432 256C423.2 256 416 248.8 416 240C416 231.2 423.2 224 432 224C440.8 224 448 231.2 448 240z"/><path fill="currentColor" d="M528 288C528 173.1 434.9 80 320 80C205.1 80 112 173.1 112 288C112 352.3 141.2 409.8 187.1 448L312 448L312 355.3L261.7 405.6L256 411.3L244.7 400L250.4 394.3L312.1 332.6L312.1 275.2L261.8 325.5L256.1 331.2L244.8 319.9L250.5 314.2L314.5 250.2L320.2 244.5L325.9 250.2L389.9 314.2L395.6 319.9L384.3 331.2L378.6 325.5L328.3 275.2L328.3 332.6L395.6 399.9L384.3 411.2L328.3 355.2L328.3 447.9L453.2 447.9C499.1 409.7 528.3 352.2 528.3 287.9zM172.6 456.7C125.6 415.6 96 355.3 96 288C96 164.3 196.3 64 320 64C443.7 64 544 164.3 544 288C544 355.3 514.4 415.6 467.4 456.7L541.9 538.7L544 541L544 576.1L96 576.1L96 541L98.1 538.7L172.6 456.7zM187.6 464L112.1 547.1L112.1 560L528.1 560L528.1 547.1L452.6 464L187.7 464zM336 128C344.8 128 352 135.2 352 144C352 152.8 344.8 160 336 160C327.2 160 320 152.8 320 144C320 135.2 327.2 128 336 128zM416 240C416 231.2 423.2 224 432 224C440.8 224 448 231.2 448 240C448 248.8 440.8 256 432 256C423.2 256 416 248.8 416 240zM176 288C184.8 288 192 295.2 192 304C192 312.8 184.8 320 176 320C167.2 320 160 312.8 160 304C160 295.2 167.2 288 176 288z"/></svg>