<svg xmlns="http://www.w3.org/2000/svg" viewBox="0 0 640 640"><!--! Font Awesome Pro 7.2.0 by @fontawesome - https://fontawesome.com License - https://fontawesome.com/license (Commercial License) Copyright 2026 Fonticons, Inc. --><path opacity=".4" fill="currentColor" d="M117 192L214.9 192C235 140.2 264.8 103.4 291.3 81.8C217.9 90.5 154.7 132.4 117 192zM117 448C154.7 507.6 217.9 549.5 291.2 558.2C264.8 536.6 234.9 499.8 214.9 448L117 448zM232 192L407.9 192C383.5 132.3 345.6 95.5 320 81.2C294.4 95.5 256.5 132.3 232.1 192zM232 448C256.5 507.6 294.3 544.5 319.9 558.8C345.5 544.4 383.3 507.6 407.8 448L232 448zM348.7 81.8C375.1 103.4 405 140.2 425 192L522.9 192C485.3 132.4 422.1 90.5 348.7 81.8zM348.7 558.3C422.1 549.5 485.3 507.6 523 448L425 448C405 499.8 375.1 536.6 348.7 558.2z"/><path fill="currentColor" d="M117 448C154.7 507.6 217.9 549.5 291.2 558.2C264.8 536.6 234.9 499.8 214.9 448L232 448C256.5 507.6 294.3 544.5 319.9 558.8C345.5 544.4 383.3 507.6 407.8 448L424.9 448C404.9 499.8 375 536.6 348.6 558.2C422 549.5 485.2 507.6 522.9 448L541.6 448C497.4 524.5 414.7 576 320 576C225.3 576 142.6 524.5 98.3 448L117 448zM56 296.3C56 316.2 59.9 335.9 67.5 354.3L79.2 382.9L98.2 339.5C102 330.8 104 321.5 104 312.1L104 304.1L120 304.1L120 312.1C120 321.6 121.9 331.1 125.5 339.9L143.2 383L155.2 355.7C163.6 336.5 168 315.7 168 294.8L168 256.3L184 256.3L184 294.8C184 318 179.2 340.9 169.9 362.1L155.3 395.4L153.2 400.2L133 400.2L131 395.3L111.8 348.6L91.4 395.4L89.3 400.2L69.1 400.2L67.1 395.3L52.8 360.6C44.3 340 40 318.3 40 296.3L40 256L56 256L56 296.3zM264 296.3C264 316.2 267.9 335.9 275.5 354.3L287.2 382.9L306.2 339.5C310 330.8 312 321.5 312 312.1L312 304.1L328 304.1L328 312.1C328 321.6 329.9 331.1 333.5 339.9L351.3 383L363.3 355.7C371.7 336.5 376 315.7 376 294.8L376 256.3L392 256.3L392 294.8C392 318 387.2 340.9 377.9 362.1L363.3 395.4L361.2 400.2L341 400.2L339 395.3L319.8 348.6L299.4 395.4L297.3 400.2L277.1 400.2L275.1 395.3L260.8 360.6C252.3 340 248 318.3 248 296.3L248 256L264 256L264 296.3zM472 296.3C472 316.2 475.9 335.9 483.5 354.3L495.3 382.9L514.3 339.5C518.1 330.8 520.1 321.5 520.1 312.1L520.1 304.1L536.1 304.1L536.1 312.1C536.1 321.6 538 331.1 541.6 339.9L559.4 383L571.4 355.7C579.8 336.5 584.1 315.7 584.1 294.8L584.1 256.3L600.1 256.3L600.1 294.8C600.1 318 595.3 340.9 586 362.1L571.4 395.4L569.3 400.2L549.1 400.2L547.1 395.3L527.9 348.6L507.5 395.4L505.4 400.2L485.2 400.2L483.2 395.3L468.9 360.6C460.3 340 456 318.3 456 296.3L456 256L472 256L472 296.3zM320 64C414.7 64 497.4 115.5 541.7 192L523 192C485.3 132.4 422.1 90.5 348.7 81.8C375.1 103.4 405 140.2 425 192L407.9 192C383.5 132.3 345.6 95.5 320 81.2C294.4 95.5 256.5 132.3 232.1 192L215 192C235 140.2 264.8 103.4 291.3 81.8C217.9 90.5 154.7 132.4 117 192L98.3 192C142.6 115.5 225.3 64 320 64z"/></svg>