<svg xmlns="http://www.w3.org/2000/svg" viewBox="0 0 640 640"><!--! Font Awesome Pro 7.2.0 by @fontawesome - https://fontawesome.com License - https://fontawesome.com/license (Commercial License) Copyright 2026 Fonticons, Inc. --><path opacity=".4" fill="currentColor" d="M48 112L592 112L592 544L456 544L456 456L544 456L544 440L456 440L456 360L544 360L544 344L456 344L456 264L544 264L544 248L456 248L456 160L440 160L440 248L328 248L328 160L312 160L312 248L200 248L200 160L184 160L184 248L96 248L96 264L184 264L184 344L96 344L96 360L184 360L184 440L96 440L96 456L184 456L184 544L48 544L48 112zM200 264L312 264L312 344L200 344L200 264zM200 360L312 360L312 440L200 440L200 360zM200 456L312 456L312 544L200 544L200 456zM328 264L440 264L440 344L328 344L328 264zM328 360L440 360L440 440L328 440L328 360zM328 456L440 456L440 544L328 544L328 456z"/><path fill="currentColor" d="M608 544L592 544L592 112L48 112L48 544L32 544L32 96L608 96L608 544zM200 248L312 248L312 160L328 160L328 248L440 248L440 160L456 160L456 248L544 248L544 264L456 264L456 344L544 344L544 360L456 360L456 440L544 440L544 456L456 456L456 544L440 544L440 456L328 456L328 544L312 544L312 456L200 456L200 544L184 544L184 456L96 456L96 440L184 440L184 360L96 360L96 344L184 344L184 264L96 264L96 248L184 248L184 160L200 160L200 248zM200 440L312 440L312 360L200 360L200 440zM328 440L440 440L440 360L328 360L328 440zM200 344L312 344L312 264L200 264L200 344zM328 344L440 344L440 264L328 264L328 344z"/></svg>