<svg xmlns="http://www.w3.org/2000/svg" viewBox="0 0 640 640"><!--! Font Awesome Pro 7.2.0 by @fontawesome - https://fontawesome.com License - https://fontawesome.com/license (Commercial License) Copyright 2026 Fonticons, Inc. --><path opacity=".4" fill="currentColor" d="M48 144L592 144L592 256L508.7 256L506.4 258.3L476.7 288L48 288L48 144zM84.5 528L140.5 304L283.5 304L227.5 528L84.5 528zM96 192L96 208L544 208L544 192L96 192z"/><path fill="currentColor" d="M544 96L544 128L608 128L608 272L515.3 272L485.6 301.7L483.3 304L413.8 304L383.6 394.5L381.8 400L276 400L240 544L64 544L124 304L32 304L32 128L528 128L528 96L544 96zM370.2 384L396.9 304L300 304L280 384L370.2 384zM140.5 304L84.5 528L227.5 528L283.5 304L140.5 304zM48 144L48 288L476.7 288L506.4 258.3L508.7 256L592 256L592 144L48 144zM104 192L544 192L544 208L96 208L96 192L104 192z"/></svg>