<svg xmlns="http://www.w3.org/2000/svg" viewBox="0 0 640 640"><!--! Font Awesome Pro 7.2.0 by @fontawesome - https://fontawesome.com License - https://fontawesome.com/license (Commercial License) Copyright 2026 Fonticons, Inc. --><path opacity=".4" fill="currentColor" d="M32.1 432L104.1 432C105.7 432 107.2 431.5 108.5 430.7L202.5 368L400.1 368L400.1 432L272.1 432L272.1 448L431.1 448L433.1 446.6L558.1 362.9L589 406.1L421.5 527.9L32.1 527.9L32.1 431.9zM51.2 233.8L218.7 112L608.1 112L608.1 208L536.1 208C534.5 208 533 208.5 531.7 209.3L437.7 272L240.1 272L240.1 208L368.1 208L368.1 192L209.1 192L207.1 193.4L82.1 277.1L51.2 233.9z"/><path fill="currentColor" d="M78.1 299L73.6 292.7L33.6 236.7L29 230.2L35.4 225.5L211.4 97.5L213.5 96L608.1 96L608.1 112L218.7 112L51.2 233.8L82.1 277L207.1 193.3L209.1 191.9L368.1 191.9L368.1 207.9L240.1 207.9L240.1 271.9L437.7 271.9L531.7 209.2C533 208.3 534.6 207.9 536.1 207.9L608.1 207.9L608.1 223.9L538.5 223.9L444.5 286.6L442.5 287.9L224.1 287.9L224.1 207.9L214 207.9L84.6 294.5L78.2 298.8zM562.1 341.1L566.6 347.4L606.6 403.4L611.2 409.9L604.8 414.6L428.8 542.6L426.7 544.1L32.1 544.1L32.1 528.1L421.5 528.1L589 406.3L558.1 363.1L433.1 446.8L431.1 448.2L272.1 448.2L272.1 432.2L400.1 432.2L400.1 368.2L202.5 368.2L108.5 430.9C107.2 431.8 105.6 432.2 104.1 432.2L32.1 432.2L32.1 416.2L101.7 416.2L195.7 353.5L197.7 352.2L416.1 352.2L416.1 432.2L426.2 432.2L555.6 345.6L562.1 341.3z"/></svg>