<svg xmlns="http://www.w3.org/2000/svg" viewBox="0 0 640 640"><!--! Font Awesome Pro 7.2.0 by @fontawesome - https://fontawesome.com License - https://fontawesome.com/license (Commercial License) Copyright 2026 Fonticons, Inc. --><path opacity=".4" fill="currentColor" d="M118.5 392.9C123.5 399.8 151.1 437.8 201.3 507.2C225.4 540.4 263.9 560.1 304.9 560.1L439.9 560.1C488.5 560.1 527.9 520.7 527.9 472.1L527.9 312.1L455.9 312.1L455.9 280.1L375.9 280.1L375.9 256.1L295.9 256.1L295.9 80.1L223.9 80.1L223.9 393.7C221.7 395.9 211.1 406.5 208.9 408.7C204.3 402.4 178.2 366.3 170.2 355.4L118.5 392.9zM304 368L320 368L320 496L304 496L304 368zM368 368L384 368L384 496L368 496L368 368zM432 368L448 368L448 496L432 496L432 368z"/><path fill="currentColor" d="M216 64L208 64L208 380C207 378.6 197.2 365 178.6 339.4L173.9 332.9L167.4 337.6L102.6 384.6L96.1 389.3L100.8 395.8C109.7 408.1 138.9 448.3 188.3 516.5C215.4 553.9 258.7 576 304.9 576L439.9 576C497.3 576 543.9 529.4 543.9 472L543.9 296L471.9 296L471.9 264L391.9 264L391.9 240L311.9 240L311.9 64L215.9 64zM224 390.3L224 80L296 80L296 256L376 256L376 280L456 280L456 312L528 312L528 472C528 520.6 488.6 560 440 560L305 560C264 560 225.4 540.3 201.4 507.1C151.1 437.8 123.5 399.7 118.6 392.8L170.4 355.2C201.5 398.1 207.8 406.8 209.1 408.5C213.6 404 217.8 399.8 221.8 395.8L224.1 393.5L224.1 390.2zM320 376L320 368L304 368L304 496L320 496L320 376zM384 376L384 368L368 368L368 496L384 496L384 376zM448 376L448 368L432 368L432 496L448 496L448 376z"/></svg>