<svg xmlns="http://www.w3.org/2000/svg" viewBox="0 0 640 640"><!--! Font Awesome Pro 7.2.0 by @fontawesome - https://fontawesome.com License - https://fontawesome.com/license (Commercial License) Copyright 2026 Fonticons, Inc. --><path opacity=".4" fill="currentColor" d="M48 384C48 481.2 126.8 560 224 560C321.2 560 400 481.2 400 384C400 286.8 321.2 208 224 208C126.8 208 48 286.8 48 384zM368 384C368 463.5 303.5 528 224 528C144.5 528 80 463.5 80 384C80 304.5 144.5 240 224 240C303.5 240 368 304.5 368 384zM160 160L160 202.9C180 195.8 201.6 192 224 192C246.4 192 268 195.8 288 202.9L288 160L160 160zM360 160L360 186.2C364.8 189.5 369.4 193 374 196.6C387.5 193.6 401.6 192 416 192C438.4 192 460 195.8 480 202.9L480 160L360 160zM389.3 210C399 219.2 407.9 229.3 416 240C495.5 240 560 304.5 560 384C560 463.5 495.5 528 416 528C407.9 538.7 399 548.8 389.3 558C398.2 559.3 407 560 416 560C513.2 560 592 481.2 592 384C592 286.8 513.2 208 416 208C406.9 208 398 208.7 389.3 210z"/><path fill="currentColor" d="M336 16L304 16L304 48L336 48L336 16zM240 80L208 80L208 112L240 112L240 80zM152 144L144 144L144 209.4C77.9 239.7 32 306.5 32 384C32 490 118 576 224 576C330 576 416 490 416 384C416 306.5 370.1 239.7 304 209.4L304 144L152 144zM288 202.9C268 195.8 246.4 192 224 192C201.6 192 180 195.8 160 202.9L160 160L288 160L288 202.9zM224 208C321.2 208 400 286.8 400 384C400 481.2 321.2 560 224 560C126.8 560 48 481.2 48 384C48 286.8 126.8 208 224 208zM368 384C368 304.5 303.5 240 224 240C144.5 240 80 304.5 80 384C80 463.5 144.5 528 224 528C303.5 528 368 463.5 368 384zM224 256C294.7 256 352 313.3 352 384C352 454.7 294.7 512 224 512C153.3 512 96 454.7 96 384C96 313.3 153.3 256 224 256zM360 160L480 160L480 202.9C460 195.8 438.4 192 416 192C401.6 192 387.5 193.6 374 196.6C379.3 200.8 384.4 205.3 389.3 210C398 208.7 406.9 208 416 208C513.2 208 592 286.8 592 384C592 481.2 513.2 560 416 560C406.9 560 398 559.3 389.3 558C384.4 562.7 379.3 567.1 374 571.4C387.5 574.4 401.6 576 416 576C522 576 608 490 608 384C608 306.5 562.1 239.7 496 209.4L496 144L360 144L360 160zM427.4 256.5C492.7 262.3 544 317.1 544 384C544 450.9 492.7 505.8 427.4 511.5C423.8 517.2 420.1 522.7 416 528C495.5 528 560 463.5 560 384C560 304.5 495.5 240 416 240C420 245.3 423.8 250.8 427.4 256.5zM400 80L400 112L432 112L432 80L400 80z"/></svg>