<svg xmlns="http://www.w3.org/2000/svg" viewBox="0 0 640 640"><!--! Font Awesome Pro 7.2.0 by @fontawesome - https://fontawesome.com License - https://fontawesome.com/license (Commercial License) Copyright 2026 Fonticons, Inc. --><path opacity=".4" fill="currentColor" d="M366.7 187.1L310.5 154.7L326.8 126.6L271.7 94.3L254.3 122.4L200 90.8L104.1 254.9L104.1 166.5L39.8 166.5L39.8 298.6C41 333 58.4 396.7 120.9 433.4C132.4 425.3 145.7 419.7 160.1 417.3C160 415.2 160 413.1 160 411C160 331.7 207.5 260.2 280.6 229.4L361.6 195.3L366.7 187.1zM267.9 540C298.6 560.3 332.7 567.6 352.7 568.4L536.5 568.4L536.5 504.2L567.7 504.2L567.7 440.3L600.8 440.3L600.8 376.4L567.7 376.4L567.7 312.5L352.7 312.5L426.4 281.2L402.1 222L310.6 259.9C256.7 279.3 239.8 303.8 225.8 324.3L225.8 324.3L225.2 325.2C212.3 343.9 196.6 375.4 200.1 419.1C241.5 429.8 272 467.4 272 512C272 521.7 270.6 531.1 267.9 540z"/><path fill="currentColor" d="M424 128C437.3 128 448 117.3 448 104C448 90.7 437.3 80 424 80C410.7 80 400 90.7 400 104C400 117.3 410.7 128 424 128zM424 64C446.1 64 464 81.9 464 104C464 126.1 446.1 144 424 144C401.9 144 384 126.1 384 104C384 81.9 401.9 64 424 64zM196.4 79.4L203.3 83.4L251.6 111.3C261.2 95 266.7 85.7 268 83.4L274.9 87.5L330 120L336.9 124.1C335.5 126.5 330.2 135.5 320.8 151.3L321 151.4L321 151.4L369.5 179.4L376.4 183.4L372.4 190.3L372.2 190.7C360 195.8 351.9 199.3 347.8 201L354.6 189.2L313 165.2L274.5 232C263.9 236.9 253.9 242.6 244.6 249.1L315 129.7L273.7 105.3L265.5 119.3L265.7 119.4L261.7 126.3L197.7 237.2L193.7 244.1L179.8 236.1L183.8 229.2L243.8 125.3L202.2 101.3L110.8 259.6L95.9 285.5C95.9 273.9 95.9 237.4 95.9 176.1L47.9 176.1L47.9 290.6C48 347 77.9 399.3 126.6 428L128 428.8C123 431.7 118.2 435.1 113.8 438.9C63 406.8 32 350.8 32 290.5L32 168L32 160L112 160L112 168L112 225.7L192.4 86.4L196.4 79.5zM357 576C322.9 576 291.3 565.7 265 548C267.1 542.8 268.7 537.5 269.9 531.9C294.4 549.6 324.5 560 357 560L528 560L528 512L400 512L400 496L560 496L560 448L400 448L400 432L592 432L592 384L400 384L400 368L560 368L560 320L344 320L341 308.1L349.3 304.6L415.4 276.8L396.8 232.6L299.2 273.7C243.9 297 208 351.1 208 411C208 414.6 208.1 418.1 208.4 421.6C203.2 419.7 197.7 418.3 192.1 417.4C192 415.3 192 413.2 192 411.1C192 344.7 231.8 284.8 293 259L398 214.8L405.4 211.7L408.5 219.1L433.3 278.1L436.4 285.5L429 288.6L392.1 304.2L576 304.2L576 368.2L608 368.2L608 448.2L576 448.2L576 512.2L544 512.2L544 576.2L357 576.2zM224 512C224 485.5 202.5 464 176 464C149.5 464 128 485.5 128 512C128 538.5 149.5 560 176 560C202.5 560 224 538.5 224 512zM112 512C112 476.7 140.7 448 176 448C211.3 448 240 476.7 240 512C240 547.3 211.3 576 176 576C140.7 576 112 547.3 112 512zM560 208C560 190.3 545.7 176 528 176C510.3 176 496 190.3 496 208C496 225.7 510.3 240 528 240C545.7 240 560 225.7 560 208zM480 208C480 181.5 501.5 160 528 160C554.5 160 576 181.5 576 208C576 234.5 554.5 256 528 256C501.5 256 480 234.5 480 208z"/></svg>