<svg xmlns="http://www.w3.org/2000/svg" viewBox="0 0 640 640"><!--! Font Awesome Pro 7.2.0 by @fontawesome - https://fontawesome.com License - https://fontawesome.com/license (Commercial License) Copyright 2026 Fonticons, Inc. --><path opacity=".4" fill="currentColor" d="M89.6 382.4L201.6 494.4C243.6 536.4 300.6 560 360 560L368.5 560C452.4 560 520.5 491.9 520.5 408L520.5 176L456.5 176L456.5 320L440.5 320L440.5 112L376.5 112L376.5 320L360.5 320L360.5 80L296.5 80L296.5 320L280.5 320L280.5 112L216.5 112L216.5 399.4L202.8 405.1C168.8 371.1 146.2 348.5 134.9 337.2L89.6 382.4z"/><path fill="currentColor" d="M288.5 64L280.5 64L280.5 96L200.5 96L200.5 380.1C178.8 358.4 158.8 338.4 140.6 320.2L134.9 314.5L129.2 320.2L72.6 376.8L66.9 382.5L72.6 388.2C81.3 396.9 120.5 436.1 190.2 505.8C235.2 550.8 296.3 576.1 359.9 576.1L368.4 576.1C461.2 576.1 536.4 500.9 536.4 408.1L536.4 160.1L456.4 160.1L456.4 96.1L376.4 96.1L376.4 64.1L288.4 64.1zM376.5 112L440.5 112L440.5 320L456.5 320L456.5 176L520.5 176L520.5 408C520.5 491.9 452.4 560 368.5 560L360 560C300.6 560 243.6 536.4 201.6 494.4L89.6 382.4L134.9 337.1C146.2 348.4 168.8 371 202.8 405L216.5 399.3L216.5 111.9L280.5 111.9L280.5 319.9L296.5 319.9L296.5 79.9L360.5 79.9L360.5 319.9L376.5 319.9L376.5 111.9z"/></svg>