<svg xmlns="http://www.w3.org/2000/svg" viewBox="0 0 640 640"><!--! Font Awesome Pro 7.2.0 by @fontawesome - https://fontawesome.com License - https://fontawesome.com/license (Commercial License) Copyright 2026 Fonticons, Inc. --><path opacity=".4" fill="currentColor" d="M432 432L624 432L624 592L432 592L432 432z"/><path fill="currentColor" d="M200.4 192L227.8 64L244.2 64L216.8 192L414.2 192L441.6 64L458 64L430.6 192L544.2 192L540.8 208L427.2 208C414.6 266.7 398.6 341.3 379.2 432L375.8 448L349.7 569.7L348.3 576L331.9 576L359.3 448L161.9 448L134.5 576L118.1 576L145.5 448L31.9 448L35.3 432L148.9 432L196.9 208L83.3 208L86.7 192L200.3 192zM213.3 208L165.3 432L362.7 432L410.7 208L213.3 208zM528 304C501.5 304 480 325.5 480 352L480 416L576 416L576 352C576 325.5 554.5 304 528 304zM464 352C464 316.7 492.7 288 528 288C563.3 288 592 316.7 592 352L592 416L640 416L640 608L416 608L416 416L464 416L464 352zM432 432L432 592L624 592L624 432L432 432z"/></svg>