<svg xmlns="http://www.w3.org/2000/svg" viewBox="0 0 640 640"><!--! Font Awesome Pro 7.2.0 by @fontawesome - https://fontawesome.com License - https://fontawesome.com/license (Commercial License) Copyright 2026 Fonticons, Inc. --><path opacity=".4" fill="currentColor" d="M16 455.7L170 332.5L175.6 328L328 328C328 328.4 328 328.8 328 329.1C328 390.3 377.6 440 438.9 440C453.4 440 467.3 437.2 480 432.1C492.7 437.2 506.6 440 521.1 440C543.5 440 564.3 433.4 581.8 421.9L624 455.7L624 496L16 496L16 455.7zM176.2 248C180.4 172.2 243.1 112 320 112C352.4 112 382.3 122.7 406.4 140.8C361 154.7 328 196.9 328 246.8C328 247.2 328 247.6 328 248C277.4 247.9 226.8 247.9 176.2 247.9z"/><path fill="currentColor" d="M170 332.5L175.6 328L328 328C328.1 322.6 328.5 317.2 329.3 312L176 312L176 264L329.3 264C328.5 258.8 328 253.4 328 248L176.2 248C180.4 172.2 243.1 112 320 112C352.4 112 382.4 122.7 406.4 140.8C412.9 138.8 419.6 137.4 426.6 136.7C398.3 111.4 361 96 320 96C231.6 96 160 167.6 160 256L160 320L0 448L0 512L640 512L640 448L594.9 411.9C590.8 415.6 586.4 418.9 581.8 421.9L624 455.7L624 496L16 496L16 455.7L170 332.5zM376 246.9C376 262.6 381.8 277 391.3 288C381.8 299 376 313.4 376 329.1C376 363.8 404.1 392 438.9 392C454.6 392 469 386.2 480 376.7C491 386.2 505.4 392 521.1 392C555.8 392 584 363.9 584 329.1C584 313.4 578.2 299 568.7 288C578.2 277 584 262.6 584 246.9C584 212.2 555.9 184 521.1 184C505.4 184 491 189.8 480 199.3C469 189.8 454.6 184 438.9 184C404.2 184 376 212.1 376 246.9zM438.9 200C452.9 200 465.4 206.1 474 215.9L480 222.7L486 215.9C494.6 206.2 507.2 200 521.1 200C547 200 568 221 568 246.9C568 260.9 561.9 273.4 552.1 282L545.3 288L552.1 294C561.8 302.6 568 315.2 568 329.1C568 355 547 376 521.1 376C507.1 376 494.6 369.9 486 360.1L480 353.3L474 360.1C465.4 369.8 452.8 376 438.9 376C413 376 392 355 392 329.1C392 315.1 398.1 302.6 407.9 294L414.7 288L407.9 282C398.2 273.4 392 260.8 392 246.9C392 221 413 200 438.9 200zM485.7 250.3L480 244.6L474.3 250.3L442.3 282.3L436.6 288L442.3 293.7L474.3 325.7L480 331.4L485.7 325.7L517.7 293.7L523.4 288L517.7 282.3L485.7 250.3zM480 308.7L459.3 288L480 267.3L500.7 288L480 308.7z"/></svg>