<svg xmlns="http://www.w3.org/2000/svg" viewBox="0 0 640 640"><!--! Font Awesome Pro 7.2.0 by @fontawesome - https://fontawesome.com License - https://fontawesome.com/license (Commercial License) Copyright 2026 Fonticons, Inc. --><path opacity=".4" fill="currentColor" d="M122.6 244C115.8 257 102.4 265.3 87.7 265.5C73 265.7 59.4 257.8 52.2 245C45.1 232.1 45.5 216.4 53.4 204C64.4 184.9 88.9 178.3 108.1 189.4C127.2 200.4 133.7 224.9 122.7 244zM122.6 396C130.5 408.4 130.9 424.1 123.8 437C116.6 449.8 103 457.7 88.3 457.5C73.6 457.3 60.2 449 53.4 436C42.4 416.9 48.9 392.4 68.1 381.4C87.2 370.3 111.7 376.9 122.7 396zM296 120C296 142.1 278.1 160 256 160C233.9 160 216 142.1 216 120C216 97.9 233.9 80 256 80C278.1 80 296 97.9 296 120zM216 297.3L256 274.4L296 297.3L296 342.7L256 365.6L216 342.7L216 297.3zM296 520C296 542.1 278.1 560 256 560C233.9 560 216 542.1 216 520C216 497.9 233.9 480 256 480C278.1 480 296 497.9 296 520zM389.4 244C378.4 224.9 384.9 200.4 404 189.4C423.1 178.4 447.6 184.9 458.6 204C469.1 222.1 463.7 245.1 446.8 256.8C451 256.4 455.3 256.1 459.6 256C450.8 265.8 438.1 271.9 423.9 271.9C416.2 271.9 409 270.1 402.5 266.9C406.5 265.4 410.6 264.1 414.7 262.9C404.3 260.5 395 253.9 389.2 244z"/><path fill="currentColor" d="M216 120C216 97.9 233.9 80 256 80C278.1 80 296 97.9 296 120C296 142.1 278.1 160 256 160C233.9 160 216 142.1 216 120zM264 175.4C291.1 171.5 312 148.2 312 120C312 89.1 286.9 64 256 64C225.1 64 200 89.1 200 120C200 148.2 220.9 171.6 248 175.4L248 260.5L208.1 283.3L140.1 244.5C150.2 219.1 140.4 189.5 116 175.4C89.2 160 55 169.2 39.5 196C24 222.8 33.2 257 60 272.5C66.4 276.2 73.1 278.5 80 279.4L80 360.5C73.1 361.5 66.4 363.8 60 367.4C33.2 383 24 417.2 39.5 444C55 470.8 89.2 480 116 464.5C140.4 450.4 150.2 420.8 140.1 395.4L175.8 375L168 370.5L168 361L132.2 381.5C123.1 369.8 110 362.6 96 360.5L96 279.4C110 277.4 123.1 270.1 132.2 258.4L200 297.2L200 352L248 379.4L248 464.5C220.9 468.4 200 491.7 200 519.9C200 550.8 225.1 575.9 256 575.9C286.7 575.9 311.6 551.2 312 520.7C304.5 507.8 298.5 493.9 294.4 479.2C286.2 471.5 275.7 466.2 264 464.5L264 379.4L303.9 356.6L304.7 357C307 352.2 309.5 347.4 312.2 342.8L312 342.7L312 287.9L264 260.5L264 175.4zM472.5 196C457 169.2 422.8 160 396 175.5C371.6 189.6 361.8 219.2 371.9 244.5L336.2 265L344 269.5L344 279L379.8 258.5C383.6 263.4 388.2 267.6 393.2 270.9C400.2 267.8 407.4 265.2 414.8 263C404.4 260.6 395.1 254 389.3 244.1C378.3 225 384.8 200.5 403.9 189.5C423 178.5 447.5 185 458.5 204.1C469 222.2 463.6 245.2 446.7 256.9C452.3 256.4 458 256.1 463.8 256.1C465.8 256.1 467.8 256.1 469.7 256.2C481.8 238.9 483.5 215.6 472.3 196.1zM53.4 204C64.4 184.9 88.9 178.3 108.1 189.4C127.2 200.4 133.7 224.9 122.7 244C111.7 263.1 87.2 269.7 68.1 258.7C48.9 247.6 42.4 223.1 53.4 204zM216 520C216 497.9 233.9 480 256 480C278.1 480 296 497.9 296 520C296 542.1 278.1 560 256 560C233.9 560 216 542.1 216 520zM122.6 396C130.5 408.4 130.9 424.1 123.8 437C116.6 449.8 103 457.7 88.3 457.5C73.6 457.3 60.2 449 53.4 436C42.4 416.9 48.9 392.4 68.1 381.4C87.2 370.3 111.7 376.9 122.7 396zM256 274.4L296 297.3L296 342.7L256 365.6L216 342.7L216 297.3L256 274.4zM464 304C534.7 304 592 361.3 592 432C592 502.7 534.7 560 464 560C393.3 560 336 502.7 336 432C336 361.3 393.3 304 464 304zM464 576C543.5 576 608 511.5 608 432C608 352.5 543.5 288 464 288C384.5 288 320 352.5 320 432C320 511.5 384.5 576 464 576zM488.8 344.8L470.5 362.3L386.5 442.3L372 456L392 456L443.8 456L436.1 494.4L431.1 519.2L449.4 501.7L533.4 421.7L548 408L528 408L476.2 408L483.9 369.6L488.9 344.8zM412 440L463.2 391.2L458.6 414.4L456.7 424L466.5 424L508.1 424L456.9 472.8L461.5 449.6L463.4 440L453.6 440L412 440z"/></svg>