<svg xmlns="http://www.w3.org/2000/svg" viewBox="0 0 640 640"><!--! Font Awesome Pro 7.2.0 by @fontawesome - https://fontawesome.com License - https://fontawesome.com/license (Commercial License) Copyright 2026 Fonticons, Inc. --><path opacity=".4" fill="currentColor" d="M63.9 320.1C106.6 394.8 149.4 469.5 192.1 544.2L448.7 544.2L576.9 320.1C534.2 245.4 491.4 170.7 448.7 96C363.2 96 277.7 96 192.1 96C149.3 170.7 106.6 245.4 63.9 320.1zM224.5 256L416.5 256L416.5 272L224.5 272L224.5 256zM224.5 368L416.5 368L416.5 384L224.5 384L224.5 368z"/><path fill="currentColor" d="M182.9 560.1L45.5 320.1L182.9 80L458 80L595.4 320.1L458 560.1L182.9 560.1zM63.9 320.1L192.2 544.1L448.8 544.1L577 320.1L448.8 96L192.2 96L63.9 320.1zM224.5 256L416.5 256L416.5 272L224.5 272L224.5 256zM224.5 368L416.5 368L416.5 384L224.5 384L224.5 368z"/></svg>