<svg xmlns="http://www.w3.org/2000/svg" viewBox="0 0 640 640"><!--! Font Awesome Pro 7.2.0 by @fontawesome - https://fontawesome.com License - https://fontawesome.com/license (Commercial License) Copyright 2026 Fonticons, Inc. --><path opacity=".4" fill="currentColor" d="M128.3 262.1L128.3 560L512.3 560L512.3 262.1L320.3 82.9L128.3 262.1zM208.3 349.3C208.3 315.4 235.8 288 269.6 288C290.3 288 308.1 298.4 320.3 314.7C332.5 298.5 350.3 288 371 288C404.9 288 432.3 315.5 432.3 349.3L432.3 352C432.3 370.2 424.9 387.2 414.7 402.3C404.4 417.4 390.8 430.9 377.5 442.1C359.8 457.1 340.6 469.9 320.3 481.1C300.1 469.9 280.8 457.1 263.1 442.1C249.8 430.8 236.2 417.3 225.9 402.3C215.6 387.3 208.3 370.2 208.3 352L208.3 349.3zM246.9 403.5C254.8 413 264.1 421.9 273.4 429.9C276.1 432.2 278.8 434.4 281.5 436.5C269.8 426 257.6 414.9 246.9 403.5zM349.2 444C355 439.8 361.1 435.1 367.2 429.9C379.9 419.2 392.3 406.7 401.5 393.2C402.1 392.4 402.6 391.6 403.1 390.8C390.5 405.9 374.2 420.9 358.5 435.4C355.4 438.3 352.3 441.2 349.2 444z"/><path fill="currentColor" d="M320.3 61.1L325.8 66.2L565.8 290.2L571.6 295.7L560.7 307.4L554.9 301.9L528.4 277.1L528.4 576L112.4 576L112.4 277.1C91.3 296.8 80.5 306.9 80 307.3L69.1 295.6L74.9 290.1L314.9 66.1L320.4 61zM320.3 83L128.3 262.2L128.3 560.1L512.3 560.1L512.3 262.2L320.3 83zM263.1 442.1C249.8 430.8 236.2 417.3 225.9 402.3C215.6 387.3 208.3 370.2 208.3 352L208.3 349.3C208.3 315.4 235.8 288 269.6 288C290.3 288 308.1 298.4 320.3 314.7C332.5 298.5 350.3 288 371 288C404.9 288 432.3 315.5 432.3 349.3L432.3 352C432.3 370.2 424.9 387.2 414.7 402.3C404.4 417.4 390.8 430.9 377.5 442.1C359.8 457.1 340.6 469.9 320.3 481.1C300.1 469.9 280.8 457.1 263.1 442.1zM269.6 304C244.6 304 224.3 324.3 224.3 349.3L224.3 352C224.3 365.8 229.9 379.8 239.2 393.2C248.4 406.6 260.8 419.1 273.5 429.9C286.2 440.6 298.8 449.4 308.4 455.5C313.4 458.7 317.6 461.2 320.3 462.8C323.1 461.2 327.2 458.7 332.2 455.5C341.8 449.4 354.4 440.6 367.1 429.9C379.8 419.2 392.2 406.7 401.4 393.2C410.6 379.7 416.3 365.8 416.3 352L416.3 349.3C416.3 324.3 396 304 371 304C356.7 304 343.3 310.7 334.7 322.1L320.3 341.3L305.9 322.1C297.3 310.7 283.9 304 269.6 304z"/></svg>