<svg xmlns="http://www.w3.org/2000/svg" viewBox="0 0 640 640"><!--! Font Awesome Pro 7.2.0 by @fontawesome - https://fontawesome.com License - https://fontawesome.com/license (Commercial License) Copyright 2026 Fonticons, Inc. --><path opacity=".4" fill="currentColor" d="M112 80L112 112L155.8 112L153.9 121.6L116.2 308.2C113.4 321.9 112 336 112 350C112 465 205.2 560 320 560C434.8 560 528 465 528 350C528 339.5 527.2 328.9 525.7 318.5L523.9 308.2L486.2 121.6L484.3 112L528.1 112L528.1 80L393.5 80L430.4 308.8L431.7 319.4C432 322.9 432.1 326.5 432.1 330.1L432.1 336C432.1 397.9 382 448 320.1 448C258.2 448 208 397.9 208 336L208 330.1C208 323 208.6 315.9 209.7 308.8L246.6 80L112 80z"/><path fill="currentColor" d="M263.9 73.3L225.5 311.3C224.5 317.5 224 323.7 224 330L224 335.9C224 388.9 267 431.9 320 431.9C373 431.9 416 388.9 416 335.9L416 330C416 326.9 415.9 323.7 415.6 320.6L414.5 311.3L376.1 73.2L374.6 63.9L544 63.9L544 127.9L503.8 127.9L539.6 304.9L541.5 316.1C543.2 327.3 544 338.6 544 349.9C544 473.5 443.8 575.9 320 575.9C196.2 575.9 96 473.6 96 350C96 335 97.5 319.8 100.5 305L136.2 128L96 128L96 64L265.4 64L263.9 73.3zM112 112L155.8 112L153.9 121.6L116.2 308.2C113.4 321.9 112 336 112 350C112 465 205.2 560 320 560C434.8 560 528 465 528 350C528 339.5 527.2 328.9 525.7 318.5L523.9 308.2L486.2 121.6L484.3 112L528.1 112L528.1 80L393.5 80L430.4 308.8L431.7 319.4C432 322.9 432.1 326.5 432.1 330.1L432.1 336C432.1 397.9 382 448 320.1 448C258.2 448 208 397.9 208 336L208 330.1C208 323 208.6 315.9 209.7 308.8L246.6 80L112 80L112 112z"/></svg>