<svg xmlns="http://www.w3.org/2000/svg" viewBox="0 0 640 640"><!--! Font Awesome Pro 7.2.0 by @fontawesome - https://fontawesome.com License - https://fontawesome.com/license (Commercial License) Copyright 2026 Fonticons, Inc. --><path opacity=".4" fill="currentColor" d="M176 144L464 144L464 204L320 310.1L176 204L176 144z"/><path fill="currentColor" d="M128 64L512 64L512 80L480 80L480 212L476.7 214.4L333.4 320L476.7 425.6L480 428L480 560L512 560L512 576L128 576L128 560L160 560L160 428L163.3 425.6L306.6 320L163.3 214.4L160 212L160 80L128 80L128 64zM176 80L176 128L464 128L464 80L176 80zM176 144L176 204L320 310.1L464 204L464 144L176 144zM176 436L176 560L464 560L464 436L320 329.9L176 436z"/></svg>