<svg xmlns="http://www.w3.org/2000/svg" viewBox="0 0 640 640"><!--! Font Awesome Pro 7.2.0 by @fontawesome - https://fontawesome.com License - https://fontawesome.com/license (Commercial License) Copyright 2026 Fonticons, Inc. --><path opacity=".4" fill="currentColor" d="M64.3 215.3L192.2 106.6L261.6 168.3C217.4 207.6 189 232.9 176.3 244.1L176.3 400L64.3 400C64.3 338.4 64.3 276.9 64.3 215.3z"/><path fill="currentColor" d="M240.3 256L304.9 256L368.9 176L477.5 176L576.2 274.7L576.2 384L512.2 384L512.2 301.3L480.2 269.3L480.2 338.6C480.2 366.6 468 393.3 446.7 411.5L366.1 480.6L349.5 588.7L347.1 604.5C339.2 603.3 323.4 600.9 299.7 597.2L283.9 594.8L286.3 579L306.5 447.5L368.3 394.5L368.3 279.3C357.7 292.5 346.9 306.1 335.7 320.1L224.3 320.1L224.3 256.1L240.3 256.1zM240.3 272L240.3 304L328 304C346.4 281 365.2 257.5 384.3 233.6L384.3 401.8L378.7 406.6L321.4 455.7L302.1 581.4L333.7 586.3L350.3 478.2L351.2 472.3L355.7 468.4L436.3 399.3C454 384.1 464.2 361.9 464.2 338.6L464.2 230.7C481.6 248.1 501.4 267.9 523.5 290L528.2 294.7L528.2 368.1L560.2 368.1L560.2 281.5L470.8 192.1L376.5 192.1L317.3 266.1L312.5 272.1L240.2 272.1zM416.3 128C438.4 128 456.3 110.1 456.3 88C456.3 65.9 438.4 48 416.3 48C394.2 48 376.3 65.9 376.3 88C376.3 110.1 394.2 128 416.3 128zM472.3 88C472.3 118.9 447.2 144 416.3 144C385.4 144 360.3 118.9 360.3 88C360.3 57.1 385.4 32 416.3 32C447.2 32 472.3 57.1 472.3 88zM480.2 435L492.8 479.2L550.9 537.3C558.4 544.8 566 552.4 573.5 559.9C567.8 565.6 556.5 576.9 539.6 593.8L528.3 605.1C520.1 596.9 491.2 568 441.7 518.5L435.8 512.6C435 509.9 432 499.4 426.8 481.1L440.2 469.6L448.9 500.2L450 504.2L516.9 571.1L528.2 582.4L550.8 559.8L539.5 548.5L478.4 487.4L477.3 483.4L466.8 446.7L472.7 441.6C475.2 439.4 477.7 437.2 480.1 434.8zM197.6 90L302 182.8L292 195.3L192.2 106.6L64.3 215.3L64.3 400L248.3 400L248.3 416L48.3 416L48.3 228.9C40.3 235.7 34.7 240.5 31.4 243.3L21 231.1L27.1 225.9L187.1 89.9L192.4 85.4L197.6 90z"/></svg>