<svg xmlns="http://www.w3.org/2000/svg" viewBox="0 0 640 640"><!--! Font Awesome Pro 7.2.0 by @fontawesome - https://fontawesome.com License - https://fontawesome.com/license (Commercial License) Copyright 2026 Fonticons, Inc. --><path opacity=".4" fill="currentColor" d="M128.3 262.1L128.3 560L512.3 560L512.3 262.1L320.3 82.9L128.3 262.1zM208.3 480L240.3 384L400.3 384L432.3 480L208.3 480zM384.3 288C384.3 323.3 355.6 352 320.3 352C285 352 256.3 323.3 256.3 288C256.3 252.7 285 224 320.3 224C355.6 224 384.3 252.7 384.3 288zM448.3 112L448.3 180.5L512.3 240.2L512.3 111.9L448.3 111.9z"/><path fill="currentColor" d="M325.8 66.1L320.3 61L314.8 66.1L74.8 290.1L69 295.6L79.9 307.3C80.3 306.9 91.1 296.8 112.3 277.1L112.3 576L528.3 576L528.3 277.1L554.8 301.9L560.6 307.4L571.5 295.7L565.7 290.2L528.2 255.2L528.2 96L432.2 96L432.2 165.6L325.7 66.2zM512.3 262.1L512.3 560L128.3 560L128.3 262.1L320.3 82.9L512.3 262.1zM512.3 112L512.3 240.3L448.3 180.6L448.3 112.1L512.3 112.1zM320.3 240C346.8 240 368.3 261.5 368.3 288C368.3 314.5 346.8 336 320.3 336C293.8 336 272.3 314.5 272.3 288C272.3 261.5 293.8 240 320.3 240zM320.3 352C355.6 352 384.3 323.3 384.3 288C384.3 252.7 355.6 224 320.3 224C285 224 256.3 252.7 256.3 288C256.3 323.3 285 352 320.3 352zM225.2 480L251.9 400L388.8 400L415.5 480L432.4 480L400.4 384L240.4 384L208.4 480L225.3 480z"/></svg>