<svg xmlns="http://www.w3.org/2000/svg" viewBox="0 0 640 640"><!--! Font Awesome Pro 7.2.0 by @fontawesome - https://fontawesome.com License - https://fontawesome.com/license (Commercial License) Copyright 2026 Fonticons, Inc. --><path opacity=".4" fill="currentColor" d="M96.5 262.1L288.5 82.9L427.3 212.4C425.9 213.3 424.5 214.2 423.1 215.1C397.7 231 361.4 260.1 331 298.3C312.2 321.9 294.1 350.9 283.1 384L208.5 384L208.5 560L96.5 560L96.5 262.1z"/><path fill="currentColor" d="M288.5 61.1L294 66.2L441.4 203.8L427.4 212.6L288.6 83.1L96.6 262.3L96.6 560.2L208.6 560.2L208.6 384.2L283.2 384.2C281.5 389.4 279.9 394.8 278.6 400.2L224.6 400.2L224.6 560.2L305.4 560.2C308.9 565.7 312.7 571.1 316.8 576.2L80.7 576.2L80.7 277.3C59.6 297 48.8 307.1 48.3 307.5L37.4 295.8L43.2 290.3L283.2 66.3L288.7 61.2zM501.2 308.8L512.5 320.1C518.5 314.1 529.1 303.5 544.5 288.1C621.3 352.1 640.5 421.4 640.5 448.1C640.5 536.5 568.9 608.1 480.5 608.1C392.1 608.1 320.5 536.5 320.5 448.1C320.5 358.5 405.8 282.8 448.5 256.1L501.2 308.8zM576.5 518.5C576.5 536.7 570.7 553.6 560.8 567.7C599.2 541.8 624.5 497.9 624.5 448.1C624.5 427.9 609.6 368.4 545.3 310C529.3 326 518.4 336.9 512.5 342.8L501.2 331.5L446.5 276.8C427.2 290.4 402.3 311.9 381.1 338.6C355.6 370.6 336.6 408.5 336.6 448.2C336.6 498 361.9 541.9 400.3 567.8C390.4 553.7 384.6 536.8 384.6 518.6C384.6 448.2 480.6 384.2 480.6 384.2C480.6 384.2 576.6 448.2 576.6 518.6zM480.5 592.1C525.7 592.1 560.5 558.1 560.5 518.5C560.5 490 540.5 460.3 517 436C505.6 424.2 494.2 414.5 485.6 407.7C483.8 406.2 482.1 404.9 480.5 403.8C479 405 477.3 406.3 475.4 407.7C466.8 414.5 455.4 424.2 444 436C420.5 460.3 400.5 489.9 400.5 518.5C400.5 558.1 435.3 592.1 480.5 592.1z"/></svg>