<svg xmlns="http://www.w3.org/2000/svg" viewBox="0 0 640 640"><!--! Font Awesome Pro 7.2.0 by @fontawesome - https://fontawesome.com License - https://fontawesome.com/license (Commercial License) Copyright 2026 Fonticons, Inc. --><path opacity=".4" fill="currentColor" d="M80 112L496 112L496 240C437.3 240 384.8 266.3 349.6 307.8C333.9 280.3 324 263 320 256C318.2 258.9 302.3 283.5 272.5 329.9L263.6 343.7L252 332.1L251.4 331.5L239.9 320L230.6 333.3L139.1 464L127.9 480L309.9 480C314.3 497 320.9 513.1 329.5 528L80 528L80 112zM144 224C144 250.5 165.5 272 192 272C218.5 272 240 250.5 240 224C240 197.5 218.5 176 192 176C165.5 176 144 197.5 144 224z"/><path fill="currentColor" d="M496 112L80 112L80 528L329.7 528C332.9 533.5 336.3 538.9 340 544L64 544L64 96L512 96L512 240.7C506.7 240.3 501.4 240 496 240L496 112zM329 271.7L349.6 307.8C345.9 312.2 342.3 316.8 339 321.5L319.2 286.9C285.9 338.7 268.3 366.1 266.4 369.1C256.4 359.1 248.3 351 242.2 344.9L158.7 464L306.7 464C307.6 469.4 308.7 474.7 310.1 480L128.1 480L139.3 464L230.8 333.3L240.1 320L251.6 331.5L252.2 332.1L263.8 343.7C264.9 342 280.4 317.8 310.4 271.2L320.2 256L329.2 271.7zM192 256C209.7 256 224 241.7 224 224C224 206.3 209.7 192 192 192C174.3 192 160 206.3 160 224C160 241.7 174.3 256 192 256zM192 176C218.5 176 240 197.5 240 224C240 250.5 218.5 272 192 272C165.5 272 144 250.5 144 224C144 197.5 165.5 176 192 176zM624 432C624 361.3 566.7 304 496 304C425.3 304 368 361.3 368 432C368 502.7 425.3 560 496 560C566.7 560 624 502.7 624 432zM352 432C352 352.5 416.5 288 496 288C575.5 288 640 352.5 640 432C640 511.5 575.5 576 496 576C416.5 576 352 511.5 352 432zM504 368L504 424L568 424L568 440L504 440L504 504L488 504L488 440L424 440L424 424L488 424L488 360L504 360L504 368z"/></svg>