<svg xmlns="http://www.w3.org/2000/svg" viewBox="0 0 640 640"><!--! Font Awesome Pro 7.2.0 by @fontawesome - https://fontawesome.com License - https://fontawesome.com/license (Commercial License) Copyright 2026 Fonticons, Inc. --><path opacity=".4" fill="currentColor" d="M80 112L496 112L496 267L384 290.3L384 367.9L329 271.6C326 266.4 323 261.2 320 255.9C318.2 258.8 302.3 283.4 272.5 329.8C269.5 334.4 266.6 339 263.6 343.6L252 332L251.4 331.4L239.9 319.9L230.6 333.2L139.1 463.9L127.9 479.9L311 479.9C295 491.8 282.3 507.9 276.1 527.9L80 528L80 112zM144 224C144 250.5 165.5 272 192 272C218.5 272 240 250.5 240 224C240 197.5 218.5 176 192 176C165.5 176 144 197.5 144 224z"/><path fill="currentColor" d="M496 112L80 112L80 528L276.2 528C274.6 533.1 273.5 538.4 272.8 544L64.1 544L64.1 96L512.1 96L512.1 263.7L496.1 267L496.1 112zM329 271.7L384 368L384 400.2L319.2 286.8C285.9 338.6 268.3 366 266.4 369C256.4 359 248.3 350.9 242.2 344.8L158.7 464L340.6 464C330.1 467.9 320 473.3 311 480L127.9 480L139.1 464L230.6 333.3L239.9 320L251.4 331.5L252 332.1L263.6 343.7C264.7 342 280.2 317.8 310.2 271.2L320 256L329 271.7zM192 256C209.7 256 224 241.7 224 224C224 206.3 209.7 192 192 192C174.3 192 160 206.3 160 224C160 241.7 174.3 256 192 256zM192 176C218.5 176 240 197.5 240 224C240 250.5 218.5 272 192 272C165.5 272 144 250.5 144 224C144 197.5 165.5 176 192 176zM640 295.8L640 524C640 552.7 611.4 576 576 576C540.6 576 512 552.7 512 524C512 495.3 540.6 472 576 472C595.1 472 612.3 478.8 624 489.6L624 385.6L448 422.3L448 556C448 584.7 419.4 608 384 608C348.6 608 320 584.7 320 556C320 527.3 348.6 504 384 504C403.1 504 420.3 510.8 432 521.6L432 329.3L438.4 328L630.4 288L640 286L640 295.8zM624 369.3L624 305.6L448 342.3L448 406L624 369.3zM384 519.9C354.3 519.9 336 538.9 336 555.9C336 572.9 354.3 591.9 384 591.9C413.7 591.9 432 572.9 432 555.9C432 538.9 413.7 519.9 384 519.9zM624 523.9C624 506.9 605.7 487.9 576 487.9C546.3 487.9 528 506.9 528 523.9C528 540.9 546.3 559.9 576 559.9C605.7 559.9 624 540.9 624 523.9z"/></svg>