<svg xmlns="http://www.w3.org/2000/svg" viewBox="0 0 640 640"><!--! Font Awesome Pro 7.2.0 by @fontawesome - https://fontawesome.com License - https://fontawesome.com/license (Commercial License) Copyright 2026 Fonticons, Inc. --><path opacity=".4" fill="currentColor" d="M48 144L48 496L592 496L592 144L48 144zM184 240C184 262.1 166.1 280 144 280C121.9 280 104 262.1 104 240C104 217.9 121.9 200 144 200C166.1 200 184 217.9 184 240zM128 448L137.6 435.2L233.6 307.2L239.7 299L246.2 307L281.3 350.2L361.6 243.2L368 234.7L374.4 243.2L518.4 435.2L528 448L128 448z"/><path fill="currentColor" d="M592 144L592 496L48 496L48 144L592 144zM48 128L32 128L32 512L608 512L608 128L48 128zM144 264C130.7 264 120 253.3 120 240C120 226.7 130.7 216 144 216C157.3 216 168 226.7 168 240C168 253.3 157.3 264 144 264zM104 240C104 262.1 121.9 280 144 280C166.1 280 184 262.1 184 240C184 217.9 166.1 200 144 200C121.9 200 104 217.9 104 240zM374.4 243.2L368 234.7L361.6 243.2L281.3 350.2L246.2 307L239.7 299L233.6 307.2L137.6 435.2L128 448L528 448L518.4 435.2L374.4 243.2zM288 368L368 261.3L496 432L160 432L240.3 325L275.4 368.2L281.9 376.2L288 368z"/></svg>