<svg xmlns="http://www.w3.org/2000/svg" viewBox="0 0 640 640"><!--! Font Awesome Pro 7.2.0 by @fontawesome - https://fontawesome.com License - https://fontawesome.com/license (Commercial License) Copyright 2026 Fonticons, Inc. --><path opacity=".4" fill="currentColor" d="M60.1 498.5L141.8 580.2L314.2 476.8L350.9 440.1C268 439.3 201 372.2 200.3 289.4L163.5 326.1L60.1 498.5zM353.6 136C436.5 136.7 503.5 203.8 504.2 286.6L598.9 192L448.2 41.4L353.6 136z"/><path fill="currentColor" d="M367.8 423.1C362.7 423.7 357.5 424 352.3 424C277.2 424 216.3 363.1 216.3 288C216.3 282.8 216.6 277.6 217.2 272.5C218.4 262.3 220.6 252.5 223.9 243.2C237.5 204.1 268.5 173.2 307.5 159.6C316.8 156.3 326.7 154.1 336.8 152.9C341.9 152.3 347.1 152 352.3 152C427.4 152 488.3 212.9 488.3 288C488.3 293.2 488 298.4 487.4 303.5C486.2 313.7 484 323.5 480.7 332.8C467.1 371.9 436.1 402.8 397.1 416.4C387.8 419.7 377.9 421.9 367.8 423.1zM350.9 440L314.2 476.7L141.8 580.1L60.1 498.4L163.5 326L200.2 289.3C201 372.2 268 439.3 350.9 440zM202 265L150.8 316.2L40 501L139.3 600.3L324.1 489.4L375.2 438.3C440.7 428.4 492.6 376.6 502.5 311L621.5 192L448.2 18.7L329.2 137.7C263.7 147.7 211.9 199.5 202 265zM353.6 136L448.2 41.4L598.8 192L504.2 286.6C503.5 203.8 436.5 136.7 353.6 136zM360.2 224L344.2 224L344.2 280L296.2 280L288.2 280L288.2 296L296.2 296L344.2 296L344.2 352L360.2 352L360.2 296L416.2 296L416.2 280L360.2 280L360.2 224z"/></svg>