<svg xmlns="http://www.w3.org/2000/svg" viewBox="0 0 640 640"><!--! Font Awesome Pro 7.2.0 by @fontawesome - https://fontawesome.com License - https://fontawesome.com/license (Commercial License) Copyright 2026 Fonticons, Inc. --><path opacity=".4" fill="currentColor" d="M16 464C16 517 59 560 112 560C164.7 560 207.5 517.5 208 464.9C208 464.6 208 464.3 208 464C208 463.9 208 463.8 208 463.7C208 460.6 207.8 457.5 207.5 454.3C207.2 451 206.7 447.8 206 444.6C204.7 438.4 202.8 432.3 200.4 426.6C195.5 415.1 188.5 404.8 179.8 396.1C162.4 378.7 138.4 368 111.9 368C58.9 368 15.9 411 15.9 464zM432 175.1C432 175.4 432 175.7 432 176C432 177.8 432 179.4 432.1 181C432.2 182.6 432.3 184.2 432.5 185.8C432.8 189.1 433.3 192.3 434 195.4C435.3 201.6 437.2 207.7 439.6 213.4C444.5 224.9 451.5 235.2 460.2 243.9C477.6 261.3 501.6 272 528.1 272C581.1 272 624.1 229 624.1 176C624.1 123 581.1 80 528.1 80C475.4 80 432.6 122.5 432.1 175.1z"/><path fill="currentColor" d="M624 176C624 123 581 80 528 80C475.3 80 432.5 122.5 432 175.1L432 176L432 176C432 229 475 272 528 272C581 272 624 229 624 176zM417.1 160C424.9 105.7 471.6 64 528 64C589.9 64 640 114.1 640 176C640 237.9 589.9 288 528 288C466.1 288 416 237.9 416 176L272 176L272 256L256 256L256 176L176 176L176 248L176 256L160 256L160 248L160 168L160 160L417.1 160zM16 464C16 517 59 560 112 560C164.7 560 207.5 517.5 208 464.9L208 464L208 464C208 411 165 368 112 368C59 368 16 411 16 464zM222.9 480C215.1 534.3 168.5 576 112 576C50.1 576 0 525.9 0 464C0 402.1 50.1 352 112 352C173.9 352 224 402.1 224 464L368 464L368 384L384 384L384 464L464 464L464 392L464 384L480 384L480 392L480 472L480 480L222.9 480z"/></svg>