<svg xmlns="http://www.w3.org/2000/svg" viewBox="0 0 640 640"><!--! Font Awesome Pro 7.2.0 by @fontawesome - https://fontawesome.com License - https://fontawesome.com/license (Commercial License) Copyright 2026 Fonticons, Inc. --><path opacity=".4" fill="currentColor" d="M64 80L64 432L576 432L576 80L64 80zM96 128L160 128L160 192L96 192L96 128zM96 224L160 224L160 288L96 288L96 224zM192 128L256 128L256 192L192 192L192 128zM192 224L256 224L256 288L192 288L192 224zM192 320L448 320L448 384L192 384L192 320zM288 128L352 128L352 192L288 192L288 128zM288 224L352 224L352 288L288 288L288 224zM384 128L448 128L448 192L384 192L384 128zM384 224L448 224L448 288L384 288L384 224zM480 128L544 128L544 192L480 192L480 128zM480 224L544 224L544 288L480 288L480 224z"/><path fill="currentColor" d="M576 80L576 432L64 432L64 80L576 80zM64 64L48 64L48 448L592 448L592 64L64 64zM144 240L144 272L112 272L112 240L144 240zM112 224L96 224L96 288L160 288L160 224L112 224zM208 240L240 240L240 272L208 272L208 240zM192 224L192 288L256 288L256 224L192 224zM336 240L336 272L304 272L304 240L336 240zM304 224L288 224L288 288L352 288L352 224L304 224zM400 240L432 240L432 272L400 272L400 240zM384 224L384 288L448 288L448 224L384 224zM240 144L240 176L208 176L208 144L240 144zM208 128L192 128L192 192L256 192L256 128L208 128zM208 336L432 336L432 368L208 368L208 336zM192 320L192 384L448 384L448 320L192 320zM528 240L528 272L496 272L496 240L528 240zM496 224L480 224L480 288L544 288L544 224L496 224zM112 144L144 144L144 176L112 176L112 144zM96 128L96 192L160 192L160 128L96 128zM336 144L336 176L304 176L304 144L336 144zM304 128L288 128L288 192L352 192L352 128L304 128zM400 144L432 144L432 176L400 176L400 144zM384 128L384 192L448 192L448 128L384 128zM528 144L528 176L496 176L496 144L528 144zM496 128L480 128L480 192L544 192L544 128L496 128zM269.7 538.3L264 532.6L252.7 543.9L258.4 549.6L314.4 605.6L320.1 611.3L387.4 544L376.1 532.7L320.1 588.7L269.8 538.4z"/></svg>