<svg xmlns="http://www.w3.org/2000/svg" viewBox="0 0 640 640"><!--! Font Awesome Pro 7.2.0 by @fontawesome - https://fontawesome.com License - https://fontawesome.com/license (Commercial License) Copyright 2026 Fonticons, Inc. --><path opacity=".4" fill="currentColor" d="M16 339.8C16 251.3 53.5 167 119.3 107.8L125.1 102.5C161.3 70.1 216.9 73 249.4 109.1C281.9 145.2 279 200.9 242.9 233.4L237.1 238.7C208.4 264.5 192.1 301.2 192.1 339.8L192.1 344C192.1 392.6 152.7 432 104.1 432C55.5 432 16.1 392.6 16.1 344L16.1 339.8zM390.6 109.1C423.1 73 478.7 70.1 514.9 102.6L520.7 107.9C586.5 167 624 251.3 624 339.8L624 344C624 392.6 584.6 432 536 432C487.4 432 448 392.6 448 344L448 339.8C448 301.2 431.6 264.5 403 238.7L397.2 233.4C361.1 200.9 358.1 145.2 390.7 109.1z"/><path fill="currentColor" d="M125.1 102.6C161.3 70.1 216.9 73 249.4 109.1C281.9 145.2 279 200.9 242.9 233.4L237.1 238.7C208.4 264.5 192.1 301.2 192.1 339.8L192.1 344C192.1 392.6 152.7 432 104.1 432C55.5 432 16.1 392.6 16.1 344L16.1 339.8C16 251.3 53.5 167 119.3 107.8L125.1 102.5zM261.3 98.4C222.9 55.7 157.1 52.3 114.4 90.7L108.6 96C39.5 158.2 0 246.8 0 339.8L0 344C0 401.4 46.6 448 104 448C161.4 448 208 401.4 208 344L208 339.8C208 329.4 209.4 319.1 212 309.2L272 355.9L272 576L288 576L288 348.1L284.9 345.7L217.4 293.2C224.2 277.1 234.5 262.5 247.7 250.6L253.5 245.3C296.2 206.9 299.7 141.1 261.2 98.4zM525.6 90.7C482.9 52.3 417.1 55.7 378.7 98.4C340.3 141.1 343.7 206.9 386.4 245.3L392.2 250.6C405.5 262.5 415.7 277.1 422.5 293.2L355 345.7L351.9 348.1L351.9 576L367.9 576L367.9 355.9L427.9 309.2C430.5 319.1 431.9 329.3 431.9 339.8L431.9 344C431.9 401.4 478.5 448 535.9 448C593.3 448 639.9 401.4 639.9 344L639.9 339.8C639.9 246.8 600.4 158.2 531.3 96L525.5 90.7zM390.6 109.1C423.1 73 478.7 70.1 514.9 102.6L520.7 107.9C586.5 167 624 251.3 624 339.8L624 344C624 392.6 584.6 432 536 432C487.4 432 448 392.6 448 344L448 339.8C448 301.2 431.6 264.5 403 238.7L397.2 233.4C361.1 200.9 358.1 145.2 390.7 109.1z"/></svg>