<svg xmlns="http://www.w3.org/2000/svg" viewBox="0 0 640 640"><!--! Font Awesome Pro 7.2.0 by @fontawesome - https://fontawesome.com License - https://fontawesome.com/license (Commercial License) Copyright 2026 Fonticons, Inc. --><path opacity=".4" fill="currentColor" d="M57.8 541L287 306.4C317.8 337.2 348.5 367.9 379.2 398.6L367.9 409.9L399.8 441.8C327.1 512.4 255.7 560 144.4 560C109.8 560 84 552.5 67 545.3C63.6 543.8 60.5 542.4 57.8 541zM339.8 256L507.9 87.9L584.3 157.3L482.6 266.6L480.5 268.9L480.5 330.8L434.3 350.6L339.8 256.1zM448.5 208C448.5 216.8 455.7 224 464.5 224C473.3 224 480.5 216.8 480.5 208C480.5 199.2 473.3 192 464.5 192C455.7 192 448.5 199.2 448.5 208zM496.5 160C496.5 168.8 503.7 176 512.5 176C521.3 176 528.5 168.8 528.5 160C528.5 151.2 521.3 144 512.5 144C503.7 144 496.5 151.2 496.5 160z"/><path fill="currentColor" d="M513.1 70.9L601.1 150.9L607.1 156.3L601.6 162.2L496.5 275.1L496.5 341.2L491.7 343.3L435.7 367.3L430.7 369.4L426.9 365.6L322.9 261.6L317.2 255.9L322.9 250.2L502.1 71L507.5 65.6L513.1 70.7zM339.8 256L434.3 350.5L480.5 330.7L480.5 268.8L482.6 266.5L584.3 157.2L507.9 87.8L339.8 255.9zM43.8 532.5L275.7 295.1L287 306.4L57.8 541C60.5 542.4 63.6 543.8 67 545.3C84 552.5 109.9 560 144.4 560C255.7 560 327.1 512.4 399.8 441.8L367.9 409.9L379.2 398.6L422.5 441.9C418.7 445.7 414.9 449.4 411.1 453.1C337 525.1 261.7 575.9 144.4 575.9C96.2 575.9 63.2 562.3 46.1 552.8C37 547.8 32.4 543.9 32.4 543.9L43.7 532.4zM448.5 208C448.5 199.2 455.7 192 464.5 192C473.3 192 480.5 199.2 480.5 208C480.5 216.8 473.3 224 464.5 224C455.7 224 448.5 216.8 448.5 208zM512.5 144C521.3 144 528.5 151.2 528.5 160C528.5 168.8 521.3 176 512.5 176C503.7 176 496.5 168.8 496.5 160C496.5 151.2 503.7 144 512.5 144z"/></svg>