<svg xmlns="http://www.w3.org/2000/svg" viewBox="0 0 640 640"><!--! Font Awesome Pro 7.2.0 by @fontawesome - https://fontawesome.com License - https://fontawesome.com/license (Commercial License) Copyright 2026 Fonticons, Inc. --><path opacity=".4" fill="currentColor" d=""/><path fill="currentColor" d="M192.4 72L192.4 64L176.4 64L176.4 144L32.4 144L32.4 160L325.6 160L314.3 196.8C294.8 260.1 257.8 315.6 208.5 357.6C171.1 325.8 140.7 286.1 119.7 241.2L116.3 234L101.8 240.8L105.2 248C126.7 294.1 157.7 334.9 195.8 367.9C170.9 387.2 143.1 403.1 113.2 415.1L69.4 432.6L62 435.6L67.9 450.5L75.3 447.5L119.1 430C151.5 417 181.5 399.6 208.4 378.4C235.2 399.6 265.2 417 297.7 430L341.5 447.5L342.1 447.7L284 576L301.6 576L345 480L551.8 480L595.2 576L612.8 576L455.7 228.7L448.4 212.6L441.1 228.7L348.6 433.1L347.3 432.6L303.5 415.1C273.6 403.1 245.9 387.2 220.9 367.9C271.4 324.2 309.3 266.8 329.4 201.6L342.2 160.1L384.3 160.1L384.3 144.1L192.3 144.1L192.3 72.1zM544.6 464L352.3 464L448.5 251.4L544.7 464z"/></svg>