<svg xmlns="http://www.w3.org/2000/svg" viewBox="0 0 640 640"><!--! Font Awesome Pro 7.2.0 by @fontawesome - https://fontawesome.com License - https://fontawesome.com/license (Commercial License) Copyright 2026 Fonticons, Inc. --><path opacity=".4" fill="currentColor" d=""/><path fill="currentColor" d="M272 64L272 134C287.3 130.1 303.4 128 320 128C330.9 128 341.6 128.9 352 130.7L352 64L368 64L368 134C450.8 155.3 512 230.5 512 320L496 320C496 239.4 441.9 171.5 368 150.6L368 320L352 320L352 146.9C341.6 145 330.9 144 320 144C303.4 144 287.3 146.3 272 150.6L272 320L256 320L256 156C190.4 181.6 144 245.4 144 320C144 417.2 222.8 496 320 496L512 496L512 512L128 512L128 496L243.1 496C175.4 466.4 128 398.7 128 320C128 236.4 181.4 165.3 256 138.9L256 64L272 64z"/></svg>