<svg xmlns="http://www.w3.org/2000/svg" viewBox="0 0 640 640"><!--! Font Awesome Pro 7.2.0 by @fontawesome - https://fontawesome.com License - https://fontawesome.com/license (Commercial License) Copyright 2026 Fonticons, Inc. --><path opacity=".4" fill="currentColor" d="M85.6 192L320 302.3L554.4 192L320 81.7L85.6 192zM85.6 320L320 430.3L554.4 320L493.6 291.4C435.7 318.6 377.9 345.9 320 373.1C262.1 345.9 204.3 318.6 146.4 291.4L85.6 320zM85.6 448L320 558.3L554.4 448L493.6 419.4C435.7 446.6 377.9 473.9 320 501.1C262.1 473.9 204.3 446.6 146.4 419.4L85.6 448z"/><path fill="currentColor" d="M320 302.3L85.6 192L320 81.7L554.4 192L320 302.3zM66.8 200.8L320 320L573.2 200.8L592 192L573.2 183.2L320 64L66.8 183.2L48 192L66.8 200.8zM127.6 282.5C80.1 304.9 53.5 317.4 48 320L66.8 328.8L320 448L573.2 328.8L592 320C586.5 317.4 559.9 304.9 512.4 282.5L493.6 291.3L554.4 319.9L320 430.2L85.6 319.9L146.4 291.3L127.6 282.5zM66.8 439.2L48 448L66.8 456.8L320 576L573.2 456.8L592 448C586.5 445.4 559.9 432.9 512.4 410.5L493.6 419.3L554.4 447.9L320 558.2L85.6 447.9L146.4 419.3L127.6 410.5L66.8 439.1z"/></svg>