<svg xmlns="http://www.w3.org/2000/svg" viewBox="0 0 640 640"><!--! Font Awesome Pro 7.2.0 by @fontawesome - https://fontawesome.com License - https://fontawesome.com/license (Commercial License) Copyright 2026 Fonticons, Inc. --><path opacity=".4" fill="currentColor" d="M236.4 320L400 474.8L400 368L560 368L560 272L400 272L400 165.2L236.4 320z"/><path fill="currentColor" d="M416 384L416 512L400 496.9L224.8 331.1L213.2 320.1L224.8 309.1L400 143.3L416 128.2L416 256.2L576 256.2L576 384.2L416 384.2zM400 384L400 368L560 368L560 272L400 272L400 165.2L236.4 320L400 474.8L400 384zM248 528L256 528L256 544L72 544C67.6 544 64 540.4 64 536L64 104C64 99.6 67.6 96 72 96L256 96L256 112L80 112L80 528L248 528z"/></svg>