<svg xmlns="http://www.w3.org/2000/svg" viewBox="0 0 640 640"><!--! Font Awesome Pro 7.2.0 by @fontawesome - https://fontawesome.com License - https://fontawesome.com/license (Commercial License) Copyright 2026 Fonticons, Inc. --><path opacity=".4" fill="currentColor" d="M144 256C144 321.1 179.4 378 232 408.5L240 413.1L240 464L400 464L400 413.1L408 408.5C460.6 378 496 321.2 496 256C496 158.8 417.2 80 320 80C222.8 80 144 158.8 144 256zM240 480L240 560L400 560L400 480L240 480zM264 218.6C264 195 283.1 176 306.6 176L312 176L312 152L328 152L328 176L360 176L360 192L306.6 192C291.9 192 280 203.9 280 218.6C280 231.6 289.4 242.7 302.3 244.9L340.4 251.2C361 254.6 376 272.4 376 293.3C376 316.9 356.9 335.9 333.4 335.9L328 335.9L328 359.9L312 359.9L312 335.9L272 335.9L272 319.9L333.4 319.9C348.1 319.9 360 308 360 293.3C360 280.3 350.6 269.2 337.7 267L299.6 260.7C279 257.3 264 239.5 264 218.6z"/><path fill="currentColor" d="M400 413.1L400 464L240 464L240 413.1L232 408.5C179.4 378 144 321.1 144 256C144 158.8 222.8 80 320 80C417.2 80 496 158.8 496 256C496 321.1 460.6 378 408 408.5L400 413.1zM240 560L240 480L400 480L400 560L240 560zM416 422.3C473.4 389.1 512 327.1 512 256C512 150 426 64 320 64C214 64 128 150 128 256C128 327.1 166.6 389.1 224 422.3L224 576L416 576L416 422.3zM328 176L328 152L312 152L312 176L306.6 176C283 176 264 195.1 264 218.6C264 239.4 279.1 257.2 299.6 260.7L337.7 267C350.6 269.1 360 280.3 360 293.3C360 308 348.1 319.9 333.4 319.9L272 319.9L272 335.9L312 335.9L312 359.9L328 359.9L328 335.9L333.4 335.9C357 335.9 376 316.8 376 293.3C376 272.5 360.9 254.7 340.4 251.2L302.3 244.9C289.5 242.8 280 231.6 280 218.6C280 203.9 291.9 192 306.6 192L360 192L360 176L328 176z"/></svg>