<svg xmlns="http://www.w3.org/2000/svg" viewBox="0 0 640 640"><!--! Font Awesome Pro 7.2.0 by @fontawesome - https://fontawesome.com License - https://fontawesome.com/license (Commercial License) Copyright 2026 Fonticons, Inc. --><path opacity=".4" fill="currentColor" d="M172 160.7C203.3 112.1 257.9 80 320 80C417.2 80 496 158.8 496 256C496 318.1 463.9 372.6 415.3 404L231.1 219.8C245.4 184.7 279.8 160 320 160L320 144C275.5 144 237 170 218.9 207.7L172 160.7z"/><path fill="currentColor" d="M53.7 42.4L48 36.7L36.7 48L42.4 53.7L586.6 597.7L592.3 603.4L603.6 592.1L597.9 586.4L426.9 415.5C478.2 381.1 512 322.5 512 256C512 150 426 64 320 64C253.5 64 194.9 97.8 160.4 149.2L53.7 42.4zM172 160.7C203.3 112.1 257.9 80 320 80C417.2 80 496 158.8 496 256C496 318.1 463.9 372.6 415.3 404L231.1 219.8C245.4 184.7 279.8 160 320 160L320 144C275.5 144 237 170 218.9 207.7L172 160.7zM144 256C144 245.7 144.9 235.6 146.6 225.8L133 212.2C129.7 226.3 128 240.9 128 256C128 327.1 166.6 389.1 224 422.3L224 576L416 576L416 495.2L384.8 464L240 464L240 413.1L232 408.5C179.4 378 144 321.1 144 256zM240 560L240 480L400 480L400 560L240 560z"/></svg>