<svg xmlns="http://www.w3.org/2000/svg" viewBox="0 0 640 640"><!--! Font Awesome Pro 7.2.0 by @fontawesome - https://fontawesome.com License - https://fontawesome.com/license (Commercial License) Copyright 2026 Fonticons, Inc. --><path opacity=".4" fill="currentColor" d=""/><path fill="currentColor" d="M32 320C32 214 118 128 224 128L288 128L288 144L224 144C126.8 144 48 222.8 48 320C48 417.2 126.8 496 224 496L288 496L288 512L224 512C118 512 32 426 32 320zM608 320C608 426 522 512 416 512L352 512L352 496L416 496C513.2 496 592 417.2 592 320C592 222.8 513.2 144 416 144L352 144L352 128L416 128C522 128 608 214 608 320zM200 312L448 312L448 328L192 328L192 312L200 312z"/></svg>