<svg xmlns="http://www.w3.org/2000/svg" viewBox="0 0 640 640"><!--! Font Awesome Pro 7.2.0 by @fontawesome - https://fontawesome.com License - https://fontawesome.com/license (Commercial License) Copyright 2026 Fonticons, Inc. --><path opacity=".4" fill="currentColor" d="M80 128L144 128L144 192L80 192L80 128zM208 288L272 288L272 352L208 352L208 288zM208 448L272 448L272 512L208 512L208 448z"/><path fill="currentColor" d="M80 128L80 192L144 192L144 128L80 128zM104 208L64 208L64 112L160 112L160 208L120 208L120 320L192 320L192 272L288 272L288 368L192 368L192 336L120 336L120 480L192 480L192 432L288 432L288 528L192 528L192 496L104 496L104 208zM208 480L208 512L272 512L272 448L208 448L208 480zM208 352L272 352L272 288L208 288L208 352zM232 152L568 152L568 168L232 168L232 152zM360 312L568 312L568 328L360 328L360 312zM360 472L568 472L568 488L360 488L360 472z"/></svg>