<svg xmlns="http://www.w3.org/2000/svg" viewBox="0 0 640 640"><!--! Font Awesome Pro 7.2.0 by @fontawesome - https://fontawesome.com License - https://fontawesome.com/license (Commercial License) Copyright 2026 Fonticons, Inc. --><path opacity=".4" fill="currentColor" d="M144 240L144 560L496 560L496 240C448 240 400 240 208 240C202.7 240 197.3 240 192 240C176 240 160 240 144 240zM288 336L352 336L352 464L288 464L288 336z"/><path fill="currentColor" d="M320 48C381.9 48 432 98.1 432 160L432 224L208 224L208 160C208 98.2 258.1 48 320 48zM192 240L208 240L208 240L432 240L432 240L448 240L448 240L496 240L496 560L144 560L144 240L192 240L192 240zM192 160L192 224L128 224L128 576L512 576L512 224L448 224L448 160C448 89.3 390.7 32 320 32C249.3 32 192 89.3 192 160zM304 448L304 352L336 352L336 448L304 448zM288 336L288 464L352 464L352 336L288 336z"/></svg>