<svg xmlns="http://www.w3.org/2000/svg" viewBox="0 0 640 640"><!--! Font Awesome Pro 7.2.0 by @fontawesome - https://fontawesome.com License - https://fontawesome.com/license (Commercial License) Copyright 2026 Fonticons, Inc. --><path opacity=".4" fill="currentColor" d="M80 256C80 326.7 137.3 384 208 384L224 384C285.9 384 336 333.9 336 272L336 256C336 211.8 300.2 176 256 176C211.8 176 176 211.8 176 256C176 278.1 193.9 296 216 296C238.1 296 256 278.1 256 256L256 240L272 240L272 256C272 284.2 251.1 307.6 224 311.4L224 312L216 312C185.1 312 160 286.9 160 256L160 248L160.3 248C164.4 198.7 205.6 160 256 160L264 160L264 160.3C313.3 164.4 352 205.6 352 256L352 272C352 342.7 294.7 400 224 400L208 400C177.3 400 148.8 390.4 125.4 373.9C157.6 409.6 204.2 432 256 432C353.2 432 432 353.2 432 256C432 158.8 353.2 80 256 80C158.8 80 80 158.8 80 256z"/><path fill="currentColor" d="M256 432C204.2 432 157.6 409.6 125.4 373.9C148.8 390.3 177.3 400 208 400L224 400C294.7 400 352 342.7 352 272L352 256C352 205.7 313.3 164.4 264 160.3L264 160L256 160C205.7 160 164.4 198.7 160.3 248L160 248L160 256C160 286.9 185.1 312 216 312L224 312L224 311.4C251.1 307.5 272 284.2 272 256L272 240L256 240L256 256C256 278.1 238.1 296 216 296C193.9 296 176 278.1 176 256C176 211.8 211.8 176 256 176C300.2 176 336 211.8 336 256L336 272C336 333.9 285.9 384 224 384L208 384C137.3 384 80 326.7 80 256C80 158.8 158.8 80 256 80C353.2 80 432 158.8 432 256C432 353.2 353.2 432 256 432zM64 256C64 362 150 448 256 448C306.1 448 351.8 428.8 386 397.3L386.4 397.7L563.3 574.6L574.6 563.3L397.7 386.4L397.3 386C428.8 351.8 448 306.1 448 256C448 150 362 64 256 64C150 64 64 150 64 256z"/></svg>