<svg xmlns="http://www.w3.org/2000/svg" viewBox="0 0 640 640"><!--! Font Awesome Pro 7.2.0 by @fontawesome - https://fontawesome.com License - https://fontawesome.com/license (Commercial License) Copyright 2026 Fonticons, Inc. --><path opacity=".4" fill="currentColor" d="M72.3 272L80.3 272C80.3 166 166.3 80 272.3 80C319.2 80 362.2 96.8 395.5 124.8C357.4 162.9 337.7 182.6 336.3 184C343.6 191.3 351.6 199.3 360.3 208L461.8 208C468.6 228.1 472.3 249.6 472.3 272L464.3 272C464.3 378 378.3 464 272.3 464C225.4 464 182.4 447.2 149.1 419.2C187.2 381.1 206.9 361.4 208.3 360C201 352.7 193 344.7 184.3 336L82.8 336C76 315.9 72.3 294.4 72.3 272z"/><path fill="currentColor" d="M347.6 172.7L336.3 184C343.6 191.3 351.6 199.3 360.3 208L480.3 208L480.3 88C471.6 79.3 463.6 71.3 456.3 64C453.2 67.1 436.7 83.6 406.9 113.4C370.6 82.6 323.6 64 272.3 64C157.4 64 64.3 157.1 64.3 272L80.3 272C80.3 166 166.3 80 272.3 80C319.2 80 362.2 96.8 395.5 124.8L347.6 172.7zM456.3 86.6L464.3 94.6L464.3 192L366.9 192L358.9 184L456.3 86.6zM197 371.3L208.3 360C201 352.7 193 344.7 184.3 336L64.3 336L64.3 456C73 464.7 81 472.7 88.3 480C91.4 476.9 107.9 460.4 137.7 430.6C174 461.4 221 480 272.3 480C326.9 480 376.5 459 413.6 424.6L568.3 579.3L579.6 568L424.9 413.3C459.3 376.2 480.3 326.5 480.3 272L464.3 272C464.3 378 378.3 464 272.3 464C225.4 464 182.4 447.2 149.1 419.2L197 371.3zM88.3 457.4L80.3 449.4L80.3 352L177.7 352L185.7 360L88.3 457.4z"/></svg>