<svg xmlns="http://www.w3.org/2000/svg" viewBox="0 0 640 640"><!--! Font Awesome Pro 7.2.0 by @fontawesome - https://fontawesome.com License - https://fontawesome.com/license (Commercial License) Copyright 2026 Fonticons, Inc. --><path opacity=".4" fill="currentColor" d="M182.8 272L368.2 457.4L368.2 336L400.2 336C470.9 336 528.2 393.3 528.2 464C528.2 477.6 526 490 522.6 501C555.6 475.8 592.2 433.2 592.2 368C592.2 279.6 520.6 208 432.2 208L368.2 208L368.2 86.6L182.8 272z"/><path fill="currentColor" d="M384.2 48L384.2 192L432.2 192C529.4 192 608.2 270.8 608.2 368C608.2 496 480.2 544 480.2 544C480.2 544 512.2 512 512.2 464C512.2 402.1 462.1 352 400.2 352L384.2 352L384.2 496L160.2 272L384.2 48zM592.2 368C592.2 279.6 520.6 208 432.2 208L368.2 208L368.2 86.6L182.8 272L368.2 457.4L368.2 336L400.2 336C470.9 336 528.2 393.3 528.2 464C528.2 477.6 526 490 522.6 501C555.6 475.8 592.2 433.2 592.2 368zM229.8 84.3L42.1 272L229.8 459.7L218.5 471L25.2 277.7L19.5 272L25.2 266.3L218.5 73L229.8 84.3z"/></svg>