<svg xmlns="http://www.w3.org/2000/svg" viewBox="0 0 640 640"><!--! Font Awesome Pro 7.2.0 by @fontawesome - https://fontawesome.com License - https://fontawesome.com/license (Commercial License) Copyright 2026 Fonticons, Inc. --><path opacity=".4" fill="currentColor" d="M80 176.8L224 103.7L224 479.8L80 544.9L80 176.8zM240 100.4L416 159.1L416 269.8C372.6 299.6 344 349.2 344 405.9C344 439.1 354.4 471.3 367.2 499C371.9 509.1 377 519 382.5 528.5L240 480.9L240 100.4zM432 160.1L560 95.7L560 246.9C544.8 242.4 528.6 240 512 240C483.1 240 455.9 247.2 432 260L432 160.1z"/><path fill="currentColor" d="M576 82.7L576 69.7L564.4 75.5L425.6 145.4L236.2 82.3L233 81.2L230 82.7L68.4 164.8L64 167L64 569.7L75.3 564.6L230.3 494.5L395.4 549.5C391 542.7 386.7 535.6 382.5 528.3L240 480.8L240 100.3L416 159L416 269.7C421.1 266.2 426.5 262.9 432 260L432 160.1L560 95.7L560 246.9C565.4 248.5 570.8 250.4 576 252.5L576 82.7zM224 479.8L80 544.9L80 176.8L224 103.7L224 479.8zM512 304C569.7 304 616 349.9 616 405.9C616 426.3 609.5 448.9 598.7 472.1C588 495.2 573.7 517.8 559 537.9C544.4 558 529.8 575.2 518.8 587.4C516.3 590.2 514 592.7 512 594.9C509.9 592.7 507.6 590.2 505.2 587.4C494.2 575.2 479.6 557.9 465 537.9C450.4 517.8 436 495.1 425.3 472.1C414.6 448.9 408 426.3 408 405.9C408 349.9 454.3 304 512 304zM523.1 606.5C552.8 574.6 632 482.4 632 405.9C632 340.8 578.3 288 512 288C445.7 288 392 340.8 392 405.9C392 482.5 471.2 574.6 500.9 606.5C503.2 608.9 505.1 611 506.8 612.7C510.1 616.1 512 618 512 618C512 618 513.9 616.1 517.2 612.7C518.8 611 520.8 608.9 523.1 606.5zM512 440C494.3 440 480 425.7 480 408C480 390.3 494.3 376 512 376C529.7 376 544 390.3 544 408C544 425.7 529.7 440 512 440zM464 408C464 434.5 485.5 456 512 456C538.5 456 560 434.5 560 408C560 381.5 538.5 360 512 360C485.5 360 464 381.5 464 408z"/></svg>