<svg xmlns="http://www.w3.org/2000/svg" viewBox="0 0 640 640"><!--! Font Awesome Pro 7.2.0 by @fontawesome - https://fontawesome.com License - https://fontawesome.com/license (Commercial License) Copyright 2026 Fonticons, Inc. --><path opacity=".4" fill="currentColor" d="M16 128.4C16 137 23 144 31.6 144L32.4 144C41 144 48 137 48 128.4C48 126.1 47 121.7 44.3 115.2C41.7 109.1 38.1 102.4 34.3 96.1C33.5 94.8 32.8 93.6 32 92.4C31.2 93.6 30.5 94.9 29.7 96.1C25.9 102.4 22.3 109.1 19.7 115.2C16.9 121.7 16 126.1 16 128.4zM112 128.4C112 137 119 144 127.6 144L128.4 144C137 144 144 137 144 128.4C144 126.1 143 121.7 140.3 115.2C137.7 109.1 134.1 102.4 130.3 96.1C129.5 94.8 128.8 93.6 128 92.4C127.2 93.6 126.5 94.9 125.7 96.1C121.9 102.4 118.3 109.1 115.7 115.2C112.9 121.7 112 126.1 112 128.4zM208 128.4C208 137 215 144 223.6 144L224.4 144C233 144 240 137 240 128.4C240 126.1 239 121.7 236.3 115.2C233.7 109.1 230.1 102.4 226.3 96.1C225.5 94.8 224.8 93.6 224 92.4C223.2 93.6 222.5 94.9 221.7 96.1C217.9 102.4 214.3 109.1 211.7 115.2C208.9 121.7 208 126.1 208 128.4zM304 128.4C304 137 311 144 319.6 144L320.4 144C329 144 336 137 336 128.4C336 126.1 335 121.7 332.3 115.2C329.7 109.1 326.1 102.4 322.3 96.1C321.5 94.8 320.8 93.6 320 92.4C319.2 93.6 318.5 94.9 317.7 96.1C313.9 102.4 310.3 109.1 307.7 115.2C304.9 121.7 304 126.1 304 128.4zM400 128.4C400 137 407 144 415.6 144L416.4 144C425 144 432 137 432 128.4C432 126.1 431 121.7 428.3 115.2C425.7 109.1 422.1 102.4 418.3 96.1C417.5 94.8 416.8 93.6 416 92.4C415.2 93.6 414.5 94.9 413.7 96.1C409.9 102.4 406.3 109.1 403.7 115.2C400.9 121.7 400 126.1 400 128.4zM496 128.4C496 137 503 144 511.6 144L512.4 144C521 144 528 137 528 128.4C528 126.1 527 121.7 524.3 115.2C521.7 109.1 518.1 102.4 514.3 96.1C513.5 94.8 512.8 93.6 512 92.4C511.2 93.6 510.5 94.9 509.7 96.1C505.9 102.4 502.3 109.1 499.7 115.2C496.9 121.7 496 126.1 496 128.4zM592 128.4C592 137 599 144 607.6 144L608.4 144C617 144 624 137 624 128.4C624 126.1 623 121.7 620.3 115.2C617.7 109.1 614.1 102.4 610.3 96.1C609.5 94.8 608.8 93.6 608 92.4C607.2 93.6 606.5 94.9 605.7 96.1C601.9 102.4 598.3 109.1 595.7 115.2C592.9 121.7 592 126.1 592 128.4z"/><path fill="currentColor" d="M32.4 144C41 144 48 137 48 128.4C48 126.1 47 121.7 44.3 115.2C41.7 109.1 38.1 102.4 34.3 96.1C33.5 94.8 32.8 93.6 32 92.4C31.2 93.6 30.5 94.9 29.7 96.1C25.9 102.4 22.3 109.1 19.7 115.2C16.9 121.7 16 126.1 16 128.4C16 137 23 144 31.6 144L32.4 144zM22.3 77.9C27.7 69.6 32 64 32 64C32 64 36.3 69.6 41.7 77.9C51.1 92.2 64 114.3 64 128.4C64 145.8 49.8 160 32.4 160L31.6 160C14.2 160 0 145.8 0 128.4C0 114.3 12.9 92.2 22.3 77.9zM128.4 144C137 144 144 137 144 128.4C144 126.1 143 121.7 140.3 115.2C137.7 109.1 134.1 102.4 130.3 96.1C129.5 94.8 128.8 93.6 128 92.4C127.2 93.6 126.5 94.9 125.7 96.1C121.9 102.4 118.3 109.1 115.7 115.2C112.9 121.7 112 126.1 112 128.4C112 137 119 144 127.6 144L128.4 144zM118.3 77.9C123.7 69.6 128 64 128 64C128 64 132.3 69.6 137.7 77.9C147.1 92.2 160 114.3 160 128.4C160 145.8 145.8 160 128.4 160L127.6 160C110.2 160 96 145.8 96 128.4C96 114.3 108.9 92.2 118.3 77.9zM208 128.4C208 137 215 144 223.6 144L224.4 144C233 144 240 137 240 128.4C240 126.1 239 121.7 236.3 115.2C233.7 109.1 230.1 102.4 226.3 96.1C225.5 94.8 224.8 93.6 224 92.4C223.2 93.6 222.5 94.9 221.7 96.1C217.9 102.4 214.3 109.1 211.7 115.2C208.9 121.7 208 126.1 208 128.4zM214.3 77.9C219.7 69.6 224 64 224 64C224 64 228.3 69.6 233.7 77.9C243.1 92.2 256 114.3 256 128.4C256 145.8 241.8 160 224.4 160L223.6 160C206.1 160 192 145.8 192 128.4C192 114.3 204.9 92.2 214.3 77.9zM320.4 144C329 144 336 137 336 128.4C336 126.1 335 121.7 332.3 115.2C329.7 109.1 326.1 102.4 322.3 96.1C321.5 94.8 320.8 93.6 320 92.4C319.2 93.6 318.5 94.9 317.7 96.1C313.9 102.4 310.3 109.1 307.7 115.2C304.9 121.7 304 126.1 304 128.4C304 137 311 144 319.6 144L320.4 144zM310.3 77.9C315.7 69.6 320 64 320 64C320 64 324.3 69.6 329.7 77.9C339.1 92.2 352 114.3 352 128.4C352 145.8 337.8 160 320.4 160L319.6 160C302.1 160 288 145.8 288 128.4C288 114.3 300.9 92.2 310.3 77.9zM406.3 77.9C411.7 69.6 416 64 416 64C416 64 420.3 69.6 425.7 77.9C435.1 92.2 448 114.3 448 128.4C448 145.8 433.8 160 416.4 160L415.6 160C398.1 160 384 145.8 384 128.4C384 114.3 396.9 92.2 406.3 77.9zM416 92.4C415.2 93.6 414.5 94.9 413.7 96.1C409.9 102.4 406.3 109.1 403.7 115.2C400.9 121.7 400 126.1 400 128.4C400 137 407 144 415.6 144L416.4 144C425 144 432 137 432 128.4C432 126.1 431 121.7 428.3 115.2C425.7 109.1 422.1 102.4 418.3 96.1C417.5 94.8 416.8 93.6 416 92.4zM512.4 144C521 144 528 137 528 128.4C528 126.1 527 121.7 524.3 115.2C521.7 109.1 518.1 102.4 514.3 96.1C513.5 94.8 512.8 93.6 512 92.4C511.2 93.6 510.5 94.9 509.7 96.1C505.9 102.4 502.3 109.1 499.7 115.2C496.9 121.7 496 126.1 496 128.4C496 137 503 144 511.6 144L512.4 144zM502.3 77.9C507.7 69.6 512 64 512 64C512 64 516.3 69.6 521.7 77.9C531.1 92.2 544 114.3 544 128.4C544 145.8 529.8 160 512.4 160L511.6 160C494.1 160 480 145.8 480 128.4C480 114.3 492.9 92.2 502.3 77.9zM598.3 77.9C603.7 69.6 608 64 608 64C608 64 612.3 69.6 617.7 77.9C627.1 92.2 640 114.3 640 128.4C640 145.8 625.8 160 608.4 160L607.6 160C590.1 160 576 145.8 576 128.4C576 114.3 588.9 92.2 598.3 77.9zM608 92.4C607.2 93.6 606.5 94.9 605.7 96.1C601.9 102.4 598.3 109.1 595.7 115.2C592.9 121.7 592 126.1 592 128.4C592 137 599 144 607.6 144L608.4 144C617 144 624 137 624 128.4C624 126.1 623 121.7 620.3 115.2C617.7 109.1 614.1 102.4 610.3 96.1C609.5 94.8 608.8 93.6 608 92.4zM40 192L40 376C40 406.9 65.1 432 96 432L120 432L120 192L136 192L136 432L216 432L216 192L232 192L232 432L312 432L312 192L328 192L328 432L408 432L408 192L424 192L424 432L504 432L504 192L520 192L520 432L544 432C574.9 432 600 406.9 600 376L600 192L616 192L616 376C616 415.8 583.8 448 544 448L328 448L328 560L512 560L512 576L128 576L128 560L312 560L312 448L96 448C56.2 448 24 415.8 24 376L24 200L24 192L40 192z"/></svg>