<svg xmlns="http://www.w3.org/2000/svg" viewBox="0 0 640 640"><!--! Font Awesome Pro 7.2.0 by @fontawesome - https://fontawesome.com License - https://fontawesome.com/license (Commercial License) Copyright 2026 Fonticons, Inc. --><path opacity=".4" fill="currentColor" d="M80 112L80 496L208 496L208 579.7L347.6 496L560 496L560 112L80 112zM252.7 248L264 236.7L269.7 242.4L320 292.7L370.3 242.4L376 236.7L387.3 248L381.6 253.7L331.3 304L381.6 354.3L387.3 360L376 371.3L370.3 365.6L320 315.3L269.7 365.6L264 371.3L252.7 360L258.4 354.3L308.7 304L258.4 253.7L252.7 248z"/><path fill="currentColor" d="M576 512L352 512L192 608L192 512L64 512L64 96L576 96L576 512zM347.6 496L560 496L560 112L80 112L80 496L208 496L208 579.7L347.6 496zM264 236.7L269.7 242.4L320 292.7L370.3 242.4L376 236.7L387.3 248L381.6 253.7L331.3 304L381.6 354.3L387.3 360L376 371.3L370.3 365.6L320 315.3L269.7 365.6L264 371.3L252.7 360L258.4 354.3L308.7 304L258.4 253.7L252.7 248L264 236.7z"/></svg>