<svg xmlns="http://www.w3.org/2000/svg" viewBox="0 0 640 640"><!--! Font Awesome Pro 7.2.0 by @fontawesome - https://fontawesome.com License - https://fontawesome.com/license (Commercial License) Copyright 2026 Fonticons, Inc. --><path opacity=".4" fill="currentColor" d=""/><path fill="currentColor" d="M80 144L80 496L560 496L560 144L80 144zM64 128L576 128L576 512L64 512L64 128zM496 352L496 368L336 368L336 352L496 352zM336 272L496 272L496 288L336 288L336 272zM232 216L232 240L264 240L264 256L210.6 256C195.9 256 184 267.9 184 282.6C184 295.6 193.4 306.7 206.3 308.9L244.4 315.2C265 318.6 280 336.4 280 357.3C280 380.9 260.9 399.9 237.4 399.9L232 399.9L232 423.9L216 423.9L216 399.9L176 399.9L176 383.9L237.4 383.9C252.1 383.9 264 372 264 357.3C264 344.3 254.6 333.2 241.7 331L203.6 324.7C183 321.3 168 303.5 168 282.6C168 259 187.1 240 210.6 240L216 240L216 216L232 216z"/></svg>