<svg xmlns="http://www.w3.org/2000/svg" viewBox="0 0 640 640"><!--! Font Awesome Pro 7.2.0 by @fontawesome - https://fontawesome.com License - https://fontawesome.com/license (Commercial License) Copyright 2026 Fonticons, Inc. --><path opacity=".4" fill="currentColor" d="M64.3 144L127.5 144C242.4 144 357.3 144 472.3 144C472.3 192.6 511.7 232 560.3 232L560.3 384.8L576.3 400.8L576.3 468.7L528.3 420.7L517 432L522.7 437.7L576.4 491.4L576.4 496.1C340.4 496.1 420.4 496.1 168.4 496.1C168.4 447.5 129 408.1 80.4 408.1L80.4 255.3C75.5 250.4 70.1 245 64.4 239.3L64.4 171.4L106.7 213.7L112.4 219.4L123.7 208.1L118 202.4L64.3 148.7L64.3 144zM80.3 424C120.1 424 152.3 456.2 152.3 496L80.3 496L80.3 424zM224.3 320C224.3 372.9 267.1 415.7 320 415.7C372.9 415.7 415.7 372.9 415.7 320C415.7 267.1 372.9 224.3 320 224.3C267.1 224.3 224.3 267.1 224.3 320zM488.3 144L560.3 144L560.3 216C520.5 216 488.3 183.8 488.3 144z"/><path fill="currentColor" d="M29 136L34.7 130.3L106.7 58.3L112.4 52.6L123.7 63.9L59.7 127.9L224.4 127.9L224.4 127.9L576.4 127.9L576.4 400.7L560.4 384.7L560.4 231.9C511.8 231.9 472.4 192.5 472.4 143.9L127.6 143.9L127.6 143.9L59.7 143.9L118 202.2L123.7 207.9L112.4 219.2L106.7 213.5L34.7 141.5L29 135.8zM64.3 496L64.3 239.2C70 244.9 75.4 250.3 80.3 255.2L80.3 408C128.9 408 168.3 447.4 168.3 496L416.3 496L416.3 496L581 496L522.7 437.7L517 432L528.3 420.7L611.6 504L605.9 509.7L533.9 581.7L528.2 587.4L516.9 576.1L580.9 512.1L513 512.1L513 512.1L64.2 512.1L64.2 496.1zM80.3 424L80.3 496L152.3 496C152.3 456.2 120.1 424 80.3 424zM560.3 216L560.3 144L488.3 144C488.3 183.8 520.5 216 560.3 216zM400.3 320C400.3 275.7 364.3 239.7 320 239.7C275.7 239.7 239.7 275.7 239.7 320C239.7 364.3 275.7 400.3 320 400.3C364.3 400.3 400.3 364.3 400.3 320zM223.7 320C223.7 266.8 266.8 223.7 320 223.7C373.2 223.7 416.3 266.8 416.3 320C416.3 373.2 373.2 416.3 320 416.3C266.8 416.3 223.7 373.2 223.7 320z"/></svg>