<svg xmlns="http://www.w3.org/2000/svg" viewBox="0 0 640 640"><!--! Font Awesome Pro 7.2.0 by @fontawesome - https://fontawesome.com License - https://fontawesome.com/license (Commercial License) Copyright 2026 Fonticons, Inc. --><path opacity=".4" fill="currentColor" d="M240.5 320L240.7 329.8C244.7 430 310.2 514.2 400.5 546.1C429.3 535.9 455.5 520.4 478 500.8C485.9 493.9 493.3 486.5 500.3 478.6C503.2 475.3 506 472 508.8 468.5C515.4 460.1 521.5 451.3 527 442.1C527.3 441.6 527.6 441 527.9 440.5C535.2 427.9 541.5 414.7 546.5 400.8C547.9 396.9 549.2 392.9 550.4 388.9C553.6 378.1 556.2 367 557.9 355.6L559.4 343.9C560.2 336 560.6 328 560.6 319.9C560.6 311.8 560.2 303.8 559.4 295.9L557.9 284.2C556.2 272.8 553.7 261.7 550.5 250.9C550.3 250.3 550.1 249.6 549.9 249C547.8 242.1 545.3 235.3 542.6 228.6C542.6 228.5 542.6 228.5 542.5 228.4C539.7 221.6 536.6 215.1 533.2 208.6C525.6 194.1 517.2 181.7 508.9 171.2C498.7 158.4 488.2 147.7 478.1 138.9C457.8 121.2 434.5 106.9 409 96.8C406.2 95.7 403.3 94.7 400.5 93.6C307.3 126.6 240.6 215.4 240.6 319.8z"/><path fill="currentColor" d="M320.5 64C356.2 64 390.1 71.4 421 84.6C421.4 84.8 421.7 84.9 422.1 85.1C424.7 86.2 427.2 87.4 429.7 88.5C430.3 88.8 431 89.1 431.6 89.4C433.6 90.4 435.6 91.4 437.6 92.4C438.3 92.8 439.1 93.1 439.8 93.5C442.2 94.8 444.6 96.1 447 97.5C461 105.5 474.1 114.7 486.3 125.1C486.4 125.2 486.6 125.4 486.7 125.5C495.6 133.1 504 141.3 511.7 150C512.1 150.4 512.5 150.9 512.9 151.3C515 153.6 517 156 518.9 158.4C519.5 159.1 520.1 159.9 520.7 160.6C538.1 182.4 552 207.2 561.5 233.9C561.6 234.3 561.8 234.7 561.9 235.1C563.1 238.4 564.2 241.8 565.2 245.2C565.4 245.8 565.6 246.3 565.7 246.9C572.6 270.1 576.3 294.6 576.3 320C576.3 345.3 572.6 369.8 565.7 392.9C565.5 393.5 565.3 394.1 565.1 394.7C564.1 398.1 563 401.5 561.8 404.8C561.7 405.2 561.5 405.6 561.4 406.1C560.1 409.6 558.8 413.1 557.4 416.6C557.3 416.8 557.2 417 557.2 417.1C552.6 428.2 547.3 438.9 541.3 449.1C541 449.7 540.7 450.2 540.3 450.8C538.7 453.5 537 456.2 535.3 458.9C535 459.4 534.6 460 534.3 460.5C527.8 470.4 520.5 479.9 512.7 488.8C512.3 489.2 512 489.6 511.6 490.1C509.3 492.7 507 495.2 504.6 497.6C504.2 498 503.9 498.3 503.5 498.7C498.1 504.3 492.4 509.6 486.5 514.6C486.4 514.7 486.2 514.9 486.1 515L486.1 515C473.9 525.4 460.8 534.6 446.8 542.6L446.8 542.6C446.5 542.8 446.1 543 445.8 543.2C443 544.8 440.2 546.3 437.3 547.8C432.3 550.4 427.1 552.8 421.9 555.1C421.5 555.3 421.2 555.4 420.8 555.6C389.9 568.8 356 576.3 320.2 576.3C274.2 576.3 231 564.1 193.7 542.8L202.9 529.6C237.6 549.1 277.6 560.2 320.2 560.2C339.2 560.2 357.8 557.9 375.5 553.7C289.4 515 228.4 430.2 224.4 330.7L224.2 320.2C224.2 216.1 286.3 126.6 375.5 86.6C357.7 82.4 339.2 80.2 320.2 80.2C277.6 80.2 237.6 91.3 203 110.8L194 97.4C231.3 76.2 274.5 64 320.5 64zM400.4 93.8C307.2 126.7 240.5 215.5 240.5 320L240.7 329.8C244.7 430 310.2 514.2 400.5 546.1C429.3 535.9 455.5 520.4 478 500.8C485.9 493.9 493.3 486.5 500.3 478.6C503.2 475.3 506 472 508.8 468.5C515.4 460.1 521.5 451.3 527 442.1C527.3 441.6 527.6 441 527.9 440.5C535.2 427.9 541.5 414.7 546.5 400.8C547.9 396.9 549.2 392.9 550.4 388.9C553.6 378.1 556.2 367 557.9 355.6L559.4 343.9C560.2 336 560.6 328 560.6 319.9C560.6 311.8 560.2 303.8 559.4 295.9L557.9 284.2C556.2 272.8 553.7 261.7 550.5 250.9C550.3 250.3 550.1 249.6 549.9 249C547.8 242.1 545.3 235.3 542.6 228.6C542.6 228.5 542.6 228.5 542.5 228.4C539.7 221.6 536.6 215.1 533.2 208.6C525.6 194.1 517.2 181.7 508.9 171.2C498.7 158.4 488.2 147.7 478.1 138.9C457.8 121.2 434.5 106.9 409 96.8C406.2 95.7 403.3 94.7 400.5 93.6zM81.7 344C88 407 118.6 462.7 163.9 501.8L154.7 515C105.3 472.9 72 412.4 65.7 344L81.8 344zM164 138.1C118.6 177.2 88 233 81.7 296L65.7 296C72 227.6 105.3 167.1 154.7 125L164 138.1z"/></svg>