<svg xmlns="http://www.w3.org/2000/svg" viewBox="0 0 640 640"><!--! Font Awesome Pro 7.2.0 by @fontawesome - https://fontawesome.com License - https://fontawesome.com/license (Commercial License) Copyright 2026 Fonticons, Inc. --><path opacity=".4" fill="currentColor" d="M48 384L48 432L240 432L240 272L160 272C98.1 272 48 322.1 48 384zM442.6 188.5L450.8 226.4L528 245.7L528 155.6L442.6 188.5z"/><path fill="currentColor" d="M320 96L422.4 96L423.8 102.3L439.1 172.7L533.1 136.5L544 132.3L544 266.2L534.1 263.7L454.6 243.8L463.8 286.2L464.5 289.6L462.6 292.4L358.6 444.4L356.2 447.9L247.6 447.9C247.8 450.5 248 453.2 248 455.9C248 504.5 208.6 543.9 160 543.9C111.4 543.9 72 504.5 72 455.9C72 453.2 72.1 450.5 72.4 447.9L32 448L32 384C32 313.3 89.3 256 160 256L256 256L256 432L347.8 432L447.5 286.3L409.6 112L320 112L320 96zM450.8 226.5L528 245.8L528 155.7L442.6 188.6L450.8 226.5zM75.3 432L240 432L240 272L160 272C98.1 272 48 322.1 48 384L48 432L75.3 432zM88.4 448C88.1 450.6 88 453.3 88 456C88 495.8 120.2 528 160 528C199.8 528 232 495.8 232 456C232 453.3 231.9 450.6 231.6 448L88.4 448zM256 208L256 224L96 224L96 208L256 208zM512 528C551.8 528 584 495.8 584 456C584 416.2 551.8 384 512 384C472.2 384 440 416.2 440 456C440 495.8 472.2 528 512 528zM512 368C560.6 368 600 407.4 600 456C600 504.6 560.6 544 512 544C463.4 544 424 504.6 424 456C424 407.4 463.4 368 512 368z"/></svg>