<svg xmlns="http://www.w3.org/2000/svg" viewBox="0 0 640 640"><!--! Font Awesome Pro 7.2.0 by @fontawesome - https://fontawesome.com License - https://fontawesome.com/license (Commercial License) Copyright 2026 Fonticons, Inc. --><path opacity=".4" fill="currentColor" d="M431.3 320L561.2 320L561.2 290C561.2 248.7 539.2 212.6 506.2 192.7C524.3 181.1 536.3 160.8 536.3 137.7C536.3 101.6 507 72.4 471 72.4C451.1 72.4 433.3 81.3 421.3 95.3C406.3 81.1 386 72.4 363.7 72.4C317.4 72.4 279.8 110 279.8 156.3L279.8 157.8C279.8 193.1 301.5 224.8 334.5 237.5L343.2 240.9L328.6 240.9C240.2 240.9 168.6 312.5 168.6 400.9L168.6 471.9L455.4 471.9L455.4 431.7L390.3 410.8L431.4 320z"/><path fill="currentColor" d="M466.7 80.2C454.6 81.4 443.6 86.4 435 94L435 94C434.4 94.5 433.9 95 433.4 95.5C447.5 111.7 456.1 132.8 456.1 156L456.1 168.6L456.7 168.6C473.7 169.8 489.7 174.6 504 182.1C505.8 180.8 507.5 179.5 509.2 178L509.2 178C512.1 175.4 514.7 172.6 517.1 169.5C518 168.3 518.8 167.1 519.6 165.9C525.1 157.3 528.2 147 528.2 136C528.2 105.1 503.1 80 472.2 80C470.4 80 468.7 80.1 466.9 80.2zM472 64C511.8 64 544 96.2 544 136C544 138.7 543.9 141.3 543.6 144C542.4 154.9 538.8 165.1 533.3 173.9C529.6 179.9 525 185.4 519.7 190L519.7 190C519.3 190.4 518.9 190.7 518.5 191.1C548.7 213 568.1 248.5 568.1 288.3L568.1 328L437.3 328L401.5 406.8L458.5 424.3L464.1 426L464.1 479.9L120.1 479.9C98 479.9 80.1 497.8 80.1 519.9C80.1 542 98 559.9 120.1 559.9L544.1 559.9L544.1 575.9L120.1 575.9C91.8 576 68.4 555.1 64.6 528L64 528L64 520C64 489.1 89.1 464 120 464L160 464L160 400C160 312.7 226.6 241 311.7 232.8C287.4 218 272 191.3 272 162L272 156C272 105.2 313.2 64 364 64C385.9 64 406 71.6 421.8 84.4C422.6 83.6 423.5 82.8 424.4 82L424.4 82C428.2 78.6 432.4 75.6 436.9 73.1C447.3 67.3 459.3 64 472 64zM400 160L400 200L352 200L352 184L384 184L384 152L400 152L400 160zM480 240C488.8 240 496 247.2 496 256C496 264.8 488.8 272 480 272C471.2 272 464 264.8 464 256C464 247.2 471.2 240 480 240zM176 400L176 464L448 464L448 437.9L349.6 407.6L342 405.2L346.7 389.9L354.3 392.3L385.9 402L424.7 316.6L426.8 311.9L552 311.9L552 288.2C552 233.6 509.8 188.4 455.4 184.5C450 184.1 444.9 183.7 440 183.4L440 156C440 114 406 80 364 80C322 80 288 114 288 156L288 162C288 190.8 306.4 216.4 333.8 225.5L354.5 232.4L352 248L328 248C244.1 248 176 316.1 176 400z"/></svg>