<svg xmlns="http://www.w3.org/2000/svg" viewBox="0 0 640 640"><!--! Font Awesome Pro 7.2.0 by @fontawesome - https://fontawesome.com License - https://fontawesome.com/license (Commercial License) Copyright 2026 Fonticons, Inc. --><path opacity=".4" fill="currentColor" d=""/><path fill="currentColor" d="M168 96L160 96L160 320L96 320L96 336L160 336L160 544L176 544L176 336L321.2 336L460.1 540.5L462.5 544L480.1 544L480.1 336L544.1 336L544.1 320L480.1 320L480.1 96L464.1 96L464.1 320L329.8 320L180.1 99.5L177.7 96L168.1 96zM340.5 336L464 336L464 517.8L340.5 336zM310.3 320L176 320L176 122.2L310.3 320z"/></svg>