<svg xmlns="http://www.w3.org/2000/svg" viewBox="0 0 640 640"><!--! Font Awesome Pro 7.2.0 by @fontawesome - https://fontawesome.com License - https://fontawesome.com/license (Commercial License) Copyright 2026 Fonticons, Inc. --><path opacity=".4" fill="currentColor" d="M119.4 448.9L119.4 314.5L184.1 268.4L184.1 160.9L96 222.3L7.9 160.9L7.9 268.4L72 314.5L72 416.1C72 500 140.1 568.1 224 568.1L463.6 568.1C556.3 568.1 631.5 492.9 631.5 400.2C631.5 307.5 556.2 232.3 463.5 232.3L451.6 232.3C409.4 232.3 368.4 246.8 335.7 273.4L119.4 448.9z"/><path fill="currentColor" d="M630 98.5L580.6 268.6C580.1 268.1 579.5 267.6 579 267.2C616.3 299.5 640 347 640 400C640 497.2 561.2 576 464 576L224 576C135.6 576 64 504.4 64 416L64 317.1L6.8 277.1L0 272.3L0 264L0 176L0 145.3C16 156.5 37.8 171.7 96 212.5L166.8 162.9C171.8 159.4 180.2 153.5 192 145.3C192 164.6 192 191.7 192 264L192 272.3L185.2 277.1L128 317.1L128 432L144 419L322.9 273.6C362.4 241.5 412.2 224 463.1 224C472.5 224 481.8 224.7 490.8 226.2L615.7 90.5L640 64L630 98.5zM509 230C530.2 235.7 549.8 245.2 567.1 257.7L605.6 125L509 230zM96 232L86.8 225.6L16 176L16 264L73.2 304L80 308.8L80 416C80 495.5 144.5 560 224 560L464 560C552.4 560 624 488.4 624 400C624 311.7 551.6 240 463.1 240C415.8 240 369.7 256.3 333 286L138.1 444.4L112 465.6L112 308.8L118.8 304L176 264L176 176L105.2 225.6L96 232zM480 368C480 359.2 487.2 352 496 352C504.8 352 512 359.2 512 368C512 376.8 504.8 384 496 384C487.2 384 480 376.8 480 368z"/></svg>