<svg xmlns="http://www.w3.org/2000/svg" viewBox="0 0 640 640"><!--! Font Awesome Pro 7.2.0 by @fontawesome - https://fontawesome.com License - https://fontawesome.com/license (Commercial License) Copyright 2026 Fonticons, Inc. --><path opacity=".4" fill="currentColor" d="M80.5 112L80.5 528L284.4 528C286.6 514.9 288.8 501.9 290.9 488.8C299.2 480.5 307.4 472.3 315.7 464L144.5 464L144.5 176L224.5 176L224.5 192L160.5 192L160.5 448L331.7 448C360 419.7 388.2 391.5 416.5 363.2L416.5 192L296.5 192L296.5 272.7C319.2 276.5 336.5 296.3 336.5 320C336.5 346.5 315 368 288.5 368C262 368 240.5 346.5 240.5 320C240.5 296.2 257.8 276.5 280.5 272.7L280.5 176L432.5 176L432.5 347.2C453.8 325.9 475.2 304.5 496.5 283.2L496.5 112L80.5 112z"/><path fill="currentColor" d="M80.5 112L496.5 112L496.5 283.2L512.5 267.2L512.5 96L64.5 96L64.5 544L281.7 544L284.4 528L80.5 528L80.5 112zM432.5 184L432.5 176L280.5 176L280.5 272.7C257.8 276.5 240.5 296.3 240.5 320C240.5 346.5 262 368 288.5 368C315 368 336.5 346.5 336.5 320C336.5 296.2 319.2 276.5 296.5 272.7L296.5 192L416.5 192L416.5 363.2L432.5 347.2L432.5 184zM160.5 448L160.5 192L224.5 192L224.5 176L144.5 176L144.5 464L315.7 464L331.7 448L160.5 448zM320.5 320C320.5 337.7 306.2 352 288.5 352C270.8 352 256.5 337.7 256.5 320C256.5 302.3 270.8 288 288.5 288C306.2 288 320.5 302.3 320.5 320zM351.4 519.6L494.1 377L551.5 434.4L408.8 577L340 588.5L351.5 519.7zM601.8 383.9L562.7 423L505.3 365.6L544.4 326.5L601.8 383.9zM533.1 315.2L336.5 511.9C325.9 575.2 320.6 607.2 320.5 607.9C321.2 607.8 353.2 602.5 416.5 591.9L613.2 395.2L624.5 383.9L613.2 372.6L555.8 315.2L544.5 303.9L533.2 315.2z"/></svg>