<svg xmlns="http://www.w3.org/2000/svg" viewBox="0 0 640 640"><!--! Font Awesome Pro 7.2.0 by @fontawesome - https://fontawesome.com License - https://fontawesome.com/license (Commercial License) Copyright 2026 Fonticons, Inc. --><path opacity=".4" fill="currentColor" d=""/><path fill="currentColor" d="M144 104L144 96L128 96L128 544L144 544L144 403.8L200.8 358.4L337.6 540.8L342.4 547.2L355.2 537.6L350.4 531.2L213.3 348.4L341 246.2L347.2 241.2L337.2 228.7L331 233.7L144 383.3L144 103.9zM416 232L400 232L400 544L416 544L416 343.6C416 320.4 425.2 298.1 441.7 281.7C458.2 265.3 480.4 256 503.6 256L544 256L544 240L503.6 240C476.1 240 449.8 250.9 430.3 270.3C424.8 275.8 420 281.8 416 288.2L416 231.9z"/></svg>