<svg xmlns="http://www.w3.org/2000/svg" viewBox="0 0 640 640"><!--! Font Awesome Pro 7.2.0 by @fontawesome - https://fontawesome.com License - https://fontawesome.com/license (Commercial License) Copyright 2026 Fonticons, Inc. --><path opacity=".4" fill="currentColor" d="M112 112L112 528L377.4 528L528 377.4L528 112L112 112zM224 280L280 280L280 224L360 224L360 280L416 280L416 360L360 360L360 416L280 416L280 360L224 360L224 280z"/><path fill="currentColor" d="M112 528L112 112L528 112L528 377.4L377.4 528L112 528zM112 544L384 544L544 384L544 96L96 96L96 544L112 544zM288 224L280 224L280 280L224 280L224 360L280 360L280 416L360 416L360 360L416 360L416 280L360 280L360 224L288 224zM296 288L296 240L344 240L344 296L400 296L400 344L344 344L344 400L296 400L296 344L240 344L240 296L296 296L296 288z"/></svg>