<svg xmlns="http://www.w3.org/2000/svg" viewBox="0 0 640 640"><!--! Font Awesome Pro 7.2.0 by @fontawesome - https://fontawesome.com License - https://fontawesome.com/license (Commercial License) Copyright 2026 Fonticons, Inc. --><path opacity=".4" fill="currentColor" d="M112 112L272 112L272 336L112 336L112 112zM112 432L272 432L272 528L112 528L112 432zM368 112L528 112L528 208L368 208L368 112zM368 304L528 304L528 528L368 528L368 304z"/><path fill="currentColor" d="M112 112L112 336L272 336L272 112L112 112zM96 96L288 96L288 352L96 352L96 96zM368 304L368 528L528 528L528 304L368 304zM352 288L544 288L544 544L352 544L352 288zM272 432L112 432L112 528L272 528L272 432zM112 416L288 416L288 544L96 544L96 416L112 416zM368 112L368 208L528 208L528 112L368 112zM352 96L544 96L544 224L352 224L352 96z"/></svg>