<svg xmlns="http://www.w3.org/2000/svg" viewBox="0 0 640 640"><!--! Font Awesome Pro 7.2.0 by @fontawesome - https://fontawesome.com License - https://fontawesome.com/license (Commercial License) Copyright 2026 Fonticons, Inc. --><path opacity=".4" fill="currentColor" d="M188.2 515.6C200.9 511.2 213.1 505.6 224.9 498.9L284 465.1C284.6 464.7 285.2 464.4 285.8 464L354 464C354.6 464.4 355.2 464.7 355.8 465.1L414.9 498.9C426.6 505.6 438.9 511.2 451.6 515.6C429.6 495.6 415.8 466.8 415.8 434.7L415.8 432.3C415.8 426.4 416.3 420.5 417.2 414.6C423.1 377.4 432.8 317.1 446.1 233.8C447.2 226.9 447.8 219.8 447.8 212.8L447.8 208C447.8 137.3 390.5 80 319.8 80C249.1 80 192 137.3 192 208L192 212.8C192 219.8 192.6 226.8 193.7 233.8C207 317.1 216.7 377.4 222.6 414.6C223.5 420.4 224 426.3 224 432.3L224 434.7C224 466.8 210.2 495.6 188.2 515.6zM288 336C288 344.8 280.8 352 272 352C263.2 352 256 344.8 256 336C256 327.2 263.2 320 272 320C280.8 320 288 327.2 288 336zM384 336C384 344.8 376.8 352 368 352C359.2 352 352 344.8 352 336C352 327.2 359.2 320 368 320C376.8 320 384 327.2 384 336z"/><path fill="currentColor" d="M320 80C390.7 80 448 137.3 448 208L448 212.8C448 219.8 447.4 226.8 446.3 233.8C433 317.1 423.3 377.4 417.4 414.6C416.5 420.4 416 426.3 416 432.3L416 434.7C416 466.8 429.8 495.6 451.8 515.6C439.1 511.2 426.8 505.6 415.1 498.9L356 465.1L354.2 464L286 464L284.2 465.1L225.1 498.9C213.4 505.6 201.1 511.2 188.4 515.6C210.4 495.6 224.2 466.8 224.2 434.7L224.2 432.3C224.2 426.4 223.7 420.5 222.8 414.6C216.8 377.4 207.2 317.1 193.9 233.8C192.8 226.9 192.2 219.8 192.2 212.8L192.2 208C192.2 137.3 249.5 80 320.2 80zM312 64.2C236.2 68.4 176 131.2 176 208L176 212.8C176 220.7 176.6 228.5 177.9 236.3L196.1 349.8L196.1 349.8C200.3 376.1 179.9 400 153.3 400C133 400 115.4 385.9 111 366L103.6 332.5C93.5 287.8 53.8 256 8 256L0 256L0 272L8 272C46.3 272 79.5 298.6 87.8 336L95.2 369.5C101.2 396.7 125.3 416 153.2 416C173.9 416 191.8 405.5 202.4 389.8L206.8 417.1C207.6 422.1 208 427.2 208 432.2L208 434.6C208 486.1 166.2 527.9 114.7 527.9C67.2 527.9 27.2 492.1 22 444.9L16 391L.1 392.8L6.1 446.7C12.2 502.1 59 544 114.7 544L115.1 544C156.4 544 197 533.2 232.8 512.7L290.1 480L349.9 480L407.2 512.7C443 533.2 483.6 544 524.9 544L525.3 544C581 544 627.8 502.1 633.9 446.8L639.9 392.9L624 391.1L618 445C612.7 492.3 572.8 528 525.3 528C473.8 528 432 486.2 432 434.7L432 432.3C432 427.2 432.4 422.2 433.2 417.2L437.6 389.9C448.2 405.6 466.1 416.1 486.8 416.1C514.6 416.1 538.7 396.8 544.8 369.6L552.2 336.1C560.5 298.7 593.7 272.1 632 272.1L640 272.1L640 256.1L632 256.1C586.2 256.1 546.5 287.9 536.6 332.7L529.1 366C524.7 385.8 507.1 400 486.8 400C460.1 400 439.8 376.1 444 349.8L462.2 236.3C463.4 228.5 464.1 220.7 464.1 212.8L464.1 208C464 131.2 403.8 68.4 328 64.2L328 64L312 64L312 64.2zM288 336C288 327.2 280.8 320 272 320C263.2 320 256 327.2 256 336C256 344.8 263.2 352 272 352C280.8 352 288 344.8 288 336zM368 352C376.8 352 384 344.8 384 336C384 327.2 376.8 320 368 320C359.2 320 352 327.2 352 336C352 344.8 359.2 352 368 352z"/></svg>