<svg xmlns="http://www.w3.org/2000/svg" viewBox="0 0 640 640"><!--! Font Awesome Pro 7.2.0 by @fontawesome - https://fontawesome.com License - https://fontawesome.com/license (Commercial License) Copyright 2026 Fonticons, Inc. --><path opacity=".4" fill="currentColor" d=""/><path fill="currentColor" d="M320 112C205.1 112 112 205.1 112 320C112 398.7 155.7 467.2 220.2 502.5L224.4 504.8L224.4 544L96.1 544L96.1 528L208.4 528L208.4 514.2C141.2 475.5 96 403.1 96 320C96 196.3 196.3 96 320 96C443.7 96 544 196.3 544 320C544 403.1 498.8 475.5 431.7 514.2L431.7 528L544 528L544 544L415.7 544L415.7 504.8L419.9 502.5C484.3 467.2 528 398.7 528 320C528 205.1 434.9 112 320 112z"/></svg>