<svg xmlns="http://www.w3.org/2000/svg" viewBox="0 0 640 640"><!--! Font Awesome Pro 7.2.0 by @fontawesome - https://fontawesome.com License - https://fontawesome.com/license (Commercial License) Copyright 2026 Fonticons, Inc. --><path opacity=".4" fill="currentColor" d="M112 112L528 112L528 528L112 528L112 112zM176 320C176 400 240 448 240 448L400 448C400 448 464 400 464 320C464 240 400 192 400 192L240 192C240 192 176 240 176 320zM304 368C304 359.2 311.2 352 320 352C328.8 352 336 359.2 336 368L336 384L304 384L304 368z"/><path fill="currentColor" d="M112 112L112 528L528 528L528 112L112 112zM96 96L544 96L544 544L96 544L96 96zM192 320C192 355.6 206.2 384.4 220.9 404.6C228.2 414.7 235.6 422.5 241 427.7C242.8 429.4 244.4 430.9 245.7 432L394.2 432C395.5 430.9 397.1 429.4 398.9 427.7C404.4 422.5 411.7 414.7 419 404.6C433.7 384.4 447.9 355.6 447.9 320C447.9 284.4 433.7 255.6 419 235.4C411.7 225.3 404.3 217.5 398.9 212.3C397.1 210.6 395.5 209.1 394.2 208L245.7 208C244.4 209.1 242.8 210.6 241 212.3C235.5 217.5 228.2 225.3 220.9 235.4C206.2 255.6 192 284.4 192 320zM176 320C176 240 240 192 240 192L400 192C400 192 464 240 464 320C464 400 400 448 400 448L240 448C240 448 176 400 176 320zM272 264L272 312L256 312L256 264L272 264zM368 312L368 264L384 264L384 312L368 312zM320 336C337.7 336 352 350.3 352 368L352 400L288 400L288 368C288 350.3 302.3 336 320 336zM304 368L304 384L336 384L336 368C336 359.2 328.8 352 320 352C311.2 352 304 359.2 304 368z"/></svg>