<svg xmlns="http://www.w3.org/2000/svg" viewBox="0 0 640 640"><!--! Font Awesome Pro 7.2.0 by @fontawesome - https://fontawesome.com License - https://fontawesome.com/license (Commercial License) Copyright 2026 Fonticons, Inc. --><path opacity=".4" fill="currentColor" d="M48 132.6L48 507.4C49.6 507 51.3 506.6 53 506.2C69 502.4 91.7 497.3 119 492.3C173.5 482.2 246.6 472 319.9 472C393.2 472 466.3 482.2 520.8 492.3C548.1 497.4 570.9 502.4 586.8 506.2C588.6 506.6 590.2 507 591.8 507.4L591.8 132.6C590.2 133 588.5 133.4 586.8 133.8C570.8 137.6 548.1 142.7 520.8 147.7C466.3 157.8 393.2 168 319.9 168C246.6 168 173.6 157.8 119.1 147.7C91.8 142.6 69 137.6 53.1 133.8C51.3 133.4 49.7 133 48.1 132.6zM184 240C184 262.1 166.1 280 144 280C121.9 280 104 262.1 104 240C104 217.9 121.9 200 144 200C166.1 200 184 217.9 184 240zM135.6 439C137.1 436.8 145.2 425.1 148 421.1L238.3 291.2C241.4 286.8 244.4 282.4 247.5 278C265.1 292.9 286.2 310.8 289.1 313.2C292.4 309 295.7 304.8 299 300.6L357.6 226.4C361.1 222 365.5 216.4 366.6 215.1L369.2 215C374.4 222.5 375.5 224 377.6 227L515 424.4C519.2 430.4 523.4 436.5 527.6 442.5C520.8 441.4 513.5 440.3 505.8 439.2L502.3 438.7C452 431.5 384.6 424 320 424C263.4 424 204.7 429.8 157.1 436C150.4 436.9 143.9 437.8 137.7 438.7L135.6 439z"/><path fill="currentColor" d="M592 116.1C602.3 113.6 608 112 608 112L608 528C608 528 602.3 526.4 592 523.9C550.6 513.7 435.3 488 320 488C204.7 488 89.4 513.7 48 523.9C37.7 526.4 32 528 32 528L32 112C32 112 37.7 113.6 48 116.1C89.4 126.3 204.7 152 320 152C435.3 152 550.6 126.3 592 116.1zM592 132.6C590.4 133 588.7 133.4 587 133.8C571 137.6 548.3 142.7 521 147.7C466.5 157.8 393.4 168 320.1 168C246.8 168 173.6 157.8 119.1 147.7C91.8 142.6 69 137.6 53.1 133.8C51.3 133.4 49.7 133 48.1 132.6L48.1 507.4C49.7 507 51.4 506.6 53.1 506.2C69.1 502.4 91.8 497.3 119.1 492.3C173.6 482.2 246.7 472 320 472C393.3 472 466.4 482.2 520.9 492.3C548.2 497.4 571 502.4 586.9 506.2C588.7 506.6 590.3 507 591.9 507.4L591.9 132.6zM144 216C130.7 216 120 226.7 120 240C120 253.3 130.7 264 144 264C157.3 264 168 253.3 168 240C168 226.7 157.3 216 144 216zM184 240C184 262.1 166.1 280 144 280C121.9 280 104 262.1 104 240C104 217.9 121.9 200 144 200C166.1 200 184 217.9 184 240zM259.8 288.4C272 298.7 281.8 307 289.1 313.2L299 300.6L357.6 226.4C362 220.8 365 217 366.6 215.1L369.2 215C371.1 217.7 373.9 221.7 377.6 227L515 424.4L527.6 442.6C520.8 441.5 513.5 440.4 505.8 439.3L502.3 438.8C452 431.6 384.6 424.1 320 424.1C263.4 424.1 204.7 429.9 157.1 436.1C150.4 437 143.9 437.9 137.7 438.8L135.6 439.1L137.4 436.5L148 421.2L238.3 291.3L247.5 278.1L259.8 288.5zM301.7 323.1L291.4 336.1C285.6 331.2 272 319.7 250.6 301.6L169.5 418.3C214.7 412.7 268.1 408 320 408C380.9 408 444.1 414.6 493.3 421.3L367.1 240.1L301.6 323.1z"/></svg>