<svg xmlns="http://www.w3.org/2000/svg" viewBox="0 0 640 640"><!--! Font Awesome Pro 7.2.0 by @fontawesome - https://fontawesome.com License - https://fontawesome.com/license (Commercial License) Copyright 2026 Fonticons, Inc. --><path opacity=".4" fill="currentColor" d="M48 208.5L48 250.6L89.3 267.1C188.1 306.6 261.6 391.6 286.4 495.1L294.3 528L345.7 528L353.6 495.1C378.4 391.6 451.9 306.6 550.7 267.1L592 250.6L592 208.5C512.6 223.4 419.5 232 320 232C220.5 232 127.4 223.4 48 208.5z"/><path fill="currentColor" d="M608 189.1L608 261.4L603 263.4L556.7 281.9C462.7 319.5 392.8 400.3 369.2 498.8L359.8 537.8L358.3 543.9L281.7 543.9L280.2 537.8L270.8 498.8C247.2 400.4 177.3 319.5 83.3 282L37 263.5L32 261.5L32 189.2L41.5 191.1C121.8 206.9 217.3 216.1 320 216.1C422.7 216.1 518.2 206.9 598.5 191.1L608 189.2zM592 208.5C512.6 223.4 419.5 232 320 232C220.5 232 127.4 223.4 48 208.5L48 250.6L89.3 267.1C188.1 306.6 261.6 391.6 286.4 495.1L294.3 528L345.7 528L353.6 495.1C378.4 391.6 451.9 306.6 550.7 267.1L592 250.6L592 208.5z"/></svg>