<svg xmlns="http://www.w3.org/2000/svg" viewBox="0 0 640 640"><!--! Font Awesome Pro 7.2.0 by @fontawesome - https://fontawesome.com License - https://fontawesome.com/license (Commercial License) Copyright 2026 Fonticons, Inc. --><path opacity=".4" fill="currentColor" d="M111 80L116 160L206 160L206 176L117 176L141 560L312 560L312 240L328 240L328 560L494.9 560L518.9 176L429.9 176L429.9 160L519.9 160L524.9 80L111 80z"/><path fill="currentColor" d="M94 64L542 64L541 80L510 576L126 576L94 64zM328.1 560L495 560L519 176L430 176L430 160L520 160L525 80L111.1 80L116.1 160L206.1 160L206.1 176L117.1 176L141.1 560L312.1 560L312.1 240L328.1 240L328.1 560z"/></svg>