<svg xmlns="http://www.w3.org/2000/svg" viewBox="0 0 640 640"><!--! Font Awesome Pro 7.2.0 by @fontawesome - https://fontawesome.com License - https://fontawesome.com/license (Commercial License) Copyright 2026 Fonticons, Inc. --><path opacity=".4" fill="currentColor" d="M48 192L48 338.6C48 362 58.2 384.1 75.9 399.3L157.2 469L160 471.4L160 592L192 592L192 456.6L186.4 451.8L130.8 404.1L128 401.7L128 257.8C134 266.2 151 290 179 329.2L183.8 335.9L272 335.9L272 303.9L200.2 303.9L197.8 300.5L125 198.6L120.2 191.9L48 191.9zM48 449.1L48 592L80 592L80 476.5C69.3 467.4 58.7 458.2 48 449.1zM56 88C56 110.1 73.9 128 96 128C118.1 128 136 110.1 136 88C136 65.9 118.1 48 96 48C73.9 48 56 65.9 56 88zM240 176L240 288L288 288L288 336L352 336L352 288L400 288L400 176L240 176zM368 304L368 336L456.2 336L461 329.3C489 290.1 506 266.3 512 257.9L512 401.8L509.2 404.2L453.6 451.9L448 456.7L448 592.1L480 592.1L480 471.5L482.8 469.1L564.1 399.4C581.8 384.2 592 362 592 338.7L592 192.1L519.8 192.1L515 198.8L442.2 300.7L439.8 304.1L368 304.1zM504 88C504 110.1 521.9 128 544 128C566.1 128 584 110.1 584 88C584 65.9 566.1 48 544 48C521.9 48 504 65.9 504 88zM560 476.5L560 592L592 592L592 449.1C581.3 458.2 570.7 467.4 560 476.5z"/><path fill="currentColor" d="M136 88C136 65.9 118.1 48 96 48C73.9 48 56 65.9 56 88C56 110.1 73.9 128 96 128C118.1 128 136 110.1 136 88zM40 88C40 57.1 65.1 32 96 32C126.9 32 152 57.1 152 88C152 118.9 126.9 144 96 144C65.1 144 40 118.9 40 88zM32 176L128.5 176C129.3 177.1 132.5 181.6 138.1 189.4L208.5 288L224 288L224 160L416 160L416 288L431.5 288L501.9 189.4C507.5 181.6 510.7 177.1 511.5 176L608 176L608 338.6C608 366.6 595.8 393.3 574.5 411.5L496 478.8L496 608.1L432 608.1L432 449.4C432.9 448.6 436.7 445.4 443.2 439.8L496 394.5L496 307.9C457.3 362 469 345.7 464.5 352L175.6 352C174.8 350.9 171.6 346.4 166 338.6L144 307.9L144 394.5L196.8 439.8C203.3 445.4 207 448.6 208 449.4L208 608.1L144 608.1L144 478.8L65.5 411.5C44.2 393.2 32 366.6 32 338.6L32 176zM288 336L352 336L352 288L400 288L400 176L240 176L240 288L288 288L288 336zM48 192L48 338.6C48 362 58.2 384.1 75.9 399.3L157.2 469L160 471.4L160 592L192 592L192 456.6L186.4 451.8L130.8 404.1L128 401.7L128 257.8C134 266.2 151 290 179 329.2L183.8 335.9L272 335.9L272 303.9L200.2 303.9L197.8 300.5L125 198.6L120.2 191.9L48 191.9zM32 434.9C34.4 437.3 36.9 439.6 39.5 441.8L48 449.1L48 592L80 592L80 476.5L96 490.2L96 607.9L32 607.9L32 434.8zM504 88C504 110.1 521.9 128 544 128C566.1 128 584 110.1 584 88C584 65.9 566.1 48 544 48C521.9 48 504 65.9 504 88zM600 88C600 118.9 574.9 144 544 144C513.1 144 488 118.9 488 88C488 57.1 513.1 32 544 32C574.9 32 600 57.1 600 88zM592 192L519.8 192L515 198.7L442.2 300.6L439.8 304L368 304L368 336L456.2 336L461 329.3C489 290.1 506 266.3 512 257.9L512 401.8L509.2 404.2L453.6 451.9L448 456.7L448 592.1L480 592.1L480 471.5L482.8 469.1L564.1 399.4C581.8 384.2 592 362 592 338.7L592 192zM608 434.9L608 608L544 608L544 490.3L560 476.6L560 592.1L592 592.1L592 449.2L600.5 441.9C603.1 439.7 605.6 437.4 608 435z"/></svg>