<svg xmlns="http://www.w3.org/2000/svg" viewBox="0 0 640 640"><!--! Font Awesome Pro 7.2.0 by @fontawesome - https://fontawesome.com License - https://fontawesome.com/license (Commercial License) Copyright 2026 Fonticons, Inc. --><path opacity=".4" fill="currentColor" d="M115.6 112L162.5 112L180.5 64L133.6 64L115.6 112zM260.6 564.7L287.4 582.2L399.7 409.7L432.1 400.1L416.2 574.7L448.1 577.4L462.9 399.8C463.9 388 462.2 376.1 458.1 365.1L413.9 247.3L500.7 199.1L437.3 56.3L408.1 69.3L459.7 185.3L315.5 265.4L374 390.9L260.8 564.9zM280 160C280 182.1 297.9 200 320 200C342.1 200 360 182.1 360 160C360 137.9 342.1 120 320 120C297.9 120 280 137.9 280 160z"/><path fill="currentColor" d="M462.6 594.5L398.8 589.2L413 418.3L292 604.2L238.4 569.3L355.5 389.4L294.4 258.5L438.9 178.2L388.1 64L197.6 64L175.5 122.8L173.6 128L92.5 128L96.6 117.2L120.6 53.2L122.5 48L416 48L416 48L445.2 35L521.1 205.8L433.5 254.4L472.8 359.3C477.8 372.6 479.8 386.8 478.6 401L462.6 594.5zM399.6 409.6L432 400L416.1 574.6L448 577.3L462.8 399.7C463.8 387.9 462.1 376 458 365L413.8 247.2L500.6 199L437.2 56.2L408 69.2L459.6 185.2L315.4 265.3L373.9 390.8L260.7 564.8L287.5 582.3L399.8 409.8zM320 104C350.9 104 376 129.1 376 160C376 190.9 350.9 216 320 216C289.1 216 264 190.9 264 160C264 129.1 289.1 104 320 104zM360 160C360 137.9 342.1 120 320 120C297.9 120 280 137.9 280 160C280 182.1 297.9 200 320 200C342.1 200 360 182.1 360 160zM133.6 64L115.6 112L162.5 112L180.5 64L133.6 64z"/></svg>