<svg xmlns="http://www.w3.org/2000/svg" viewBox="0 0 640 640"><!--! Font Awesome Pro 7.2.0 by @fontawesome - https://fontawesome.com License - https://fontawesome.com/license (Commercial License) Copyright 2026 Fonticons, Inc. --><path opacity=".4" fill="currentColor" d="M112 421.3L112 467.7L284.4 553.9L314.8 493.1L228.5 449.9L224.1 447.7L224.1 351.8L288 351.8L288 404.6L332.6 449.2L384.9 471.6L449.6 390.7L454.6 384.5L467.1 394.5L462.1 400.7L383.9 498.4L437 540.9L528 427.1L528 388.3L431 271.9L224 271.9L112 421.2zM256 144C256 179.3 284.7 208 320 208C355.3 208 384 179.3 384 144C384 108.7 355.3 80 320 80C284.7 80 256 108.7 256 144zM416 392C416 418.5 394.5 440 368 440C341.5 440 320 418.5 320 392C320 365.5 341.5 344 368 344C394.5 344 416 365.5 416 392z"/><path fill="currentColor" d="M384 144C384 179.3 355.3 208 320 208C284.7 208 256 179.3 256 144C256 108.7 284.7 80 320 80C355.3 80 384 108.7 384 144zM320 64C275.8 64 240 99.8 240 144C240 188.2 275.8 224 320 224C364.2 224 400 188.2 400 144C400 99.8 364.2 64 320 64zM220 256L216 256L213.6 259.2L97.6 413.9L96 416L96 418.7L96 472.8L96 477.7L100.4 479.9L284.4 571.9L291.6 575.5L295.2 568.3L332.8 493.2L336.4 486L329.2 482.4L240.1 437.9L240.1 367.9L272 367.9L272 411.3L274.3 413.6L322.3 461.6L323.4 462.7L324.8 463.3L374.5 484.6C368.6 492 364.2 497.4 361.4 501L367.6 506L433.2 558.5L439.4 563.5L444.4 557.3L542.2 435.1L544 432.9L544 382.7L542.1 380.5L440.8 259L438.4 256.1L219.9 256.1zM449.6 390.8L384.9 471.7L332.6 449.3L288 404.7L288 351.9L224.1 351.9L224.1 447.8L228.5 450L314.8 493.2L284.4 554L112 467.8L112 421.4L224 272.1L431 272.1L528 388.5L528 427.3L437 541.1L383.9 498.6L462.1 400.9L467.1 394.7L454.6 384.7L449.6 390.9zM368 440C394.5 440 416 418.5 416 392C416 365.5 394.5 344 368 344C341.5 344 320 365.5 320 392C320 418.5 341.5 440 368 440zM336 392C336 374.3 350.3 360 368 360C385.7 360 400 374.3 400 392C400 409.7 385.7 424 368 424C350.3 424 336 409.7 336 392z"/></svg>