<svg xmlns="http://www.w3.org/2000/svg" viewBox="0 0 640 640"><!--! Font Awesome Pro 7.2.0 by @fontawesome - https://fontawesome.com License - https://fontawesome.com/license (Commercial License) Copyright 2026 Fonticons, Inc. --><path opacity=".4" fill="currentColor" d="M128.3 152C128.3 174.1 146.2 192 168.3 192C190.4 192 208.3 174.1 208.3 152C208.3 129.9 190.4 112 168.3 112C146.2 112 128.3 129.9 128.3 152zM172.3 378.6C172.3 433.1 172.3 462.9 172.3 468L212.3 468C212.3 462.9 212.3 433.1 212.3 378.6C212.3 356.3 217.6 334.7 227.4 315.4L233 304.4L240.8 314L435.9 554.2L446 566.6L470.8 546.4L460.7 534L347.5 394.7L342.6 388.7C344.9 386.7 352.1 380.5 364.4 370L366.6 368.1L472.2 368.1L474.6 371.3C507 414.5 523.8 436.9 525 438.5L550.6 419.3L541 406.5L493 342.5L488.2 336.1L375.7 336.1L373.3 333.2L306.8 253.4L300.8 246.2L308.8 241.4L362.5 209.2L372.2 203.4L372.2 76.1L332.2 76.1L332.2 180.8L328.3 183.1L259.6 224.3C205.4 256.8 172.2 315.4 172.2 378.6z"/><path fill="currentColor" d="M388.3 68L388.3 60L380.3 60L324.3 60L316.3 60C316.3 62 316.3 74 316.3 96L316.3 171.6L251.5 210.5C192.5 245.9 156.3 309.7 156.3 378.6C156.3 499.9 156.3 472.9 156.3 484L164.3 484L220.3 484L228.3 484C228.3 482 228.3 470 228.3 448L228.3 378.6C228.3 363.2 231.2 348.1 236.5 334.1L423.5 564.2C435.3 578.7 442 587 443.7 589L449.9 584L487.2 553.7L493.4 548.7C491.7 546.6 485 538.4 473.2 523.9L365 390.7L372.7 384.1L464.4 384.1C531.6 473.7 514.8 451.3 522 460.9L528.4 456.1L566.8 427.3L573.2 422.5L554 396.9L506 332.9L496.4 320.1L383.4 320.1L325.3 250.4C406.1 201.9 379 218.2 388.4 212.5L388.4 208L388.4 68.1zM332.3 96L332.3 76L372.3 76L372.3 203.3L362.6 209.1L308.9 241.3L300.9 246.1L306.9 253.3L373.4 333.1L375.8 336L488.3 336L493.1 342.4L541.1 406.4L550.7 419.2L525.1 438.4C523.9 436.8 507.1 414.4 474.7 371.2L472.3 368L366.7 368L364.5 369.9C352.3 380.4 345 386.6 342.7 388.6L347.6 394.6L460.8 533.9L470.9 546.3L446.1 566.5L436 554.1L240.9 313.9L233.1 304.3L227.5 315.3C217.7 334.6 212.4 356.2 212.4 378.5C212.4 433 212.4 462.8 212.4 467.9L172.4 467.9C172.4 462.8 172.4 433 172.4 378.5C172.4 315.3 205.6 256.7 259.8 224.2L328.5 183L332.4 180.7L332.4 96zM128.3 152C128.3 129.9 146.2 112 168.3 112C190.4 112 208.3 129.9 208.3 152C208.3 174.1 190.4 192 168.3 192C146.2 192 128.3 174.1 128.3 152zM224.3 152C224.3 121.1 199.2 96 168.3 96C137.4 96 112.3 121.1 112.3 152C112.3 182.9 137.4 208 168.3 208C199.2 208 224.3 182.9 224.3 152z"/></svg>