<svg xmlns="http://www.w3.org/2000/svg" viewBox="0 0 640 640"><!--! Font Awesome Pro 7.2.0 by @fontawesome - https://fontawesome.com License - https://fontawesome.com/license (Commercial License) Copyright 2026 Fonticons, Inc. --><path opacity=".4" fill="currentColor" d="M217.4 549.8L238.7 573.7L250.7 563.1L330.7 491.9L333.8 489.2L335.2 485.3L350.6 442.1C340.3 437.8 330.9 432 322.7 425L307.7 466.9L306.3 470.8L303.2 473.5L229.3 539.2L217.3 549.8zM235.2 296.9L264.9 308.8C265.9 306.4 275.8 281.5 294.8 234.1L298.8 224L371.5 224C371.1 225.5 361.9 262.3 343.9 334.5C337.7 359.4 352.1 384.7 376.7 392.1L472.6 420.9L490 426.1L482.6 442.7L433.4 553.5L426.9 568.1L456.1 581.1L462.6 566.5L526.6 422.5L534 405.9L516.6 400.7L423.8 372.9L408.6 368.3C408.9 367.3 417.3 338.8 433.8 282.7L444.3 247C456.7 268.2 469.3 289.9 482.2 312L486.8 319.9L592 319.9L592 287.9L505.2 287.9L500.6 280L472.4 231.6C458 207.1 431.7 192 403.2 192L277.1 192L273.1 202.1L241.1 282.1L235.2 297zM408 88C408 110.1 425.9 128 448 128C470.1 128 488 110.1 488 88C488 65.9 470.1 48 448 48C425.9 48 408 65.9 408 88z"/><path fill="currentColor" d="M460.2 306.2C465.4 315.2 471.2 325.1 477.6 336L608 336L608 272L514.4 272L486.2 223.6C469 194.1 437.4 176 403.2 176L266.3 176C264.9 179.4 251.6 212.8 226.3 276.1C222.3 286 218.4 295.9 214.4 305.8C221.8 308.8 236.7 314.7 259 323.6L273.9 329.5C279.8 314.7 291.8 284.8 309.7 239.9L351.1 239.9C350.9 240.8 343.3 271 328.4 330.5C320.1 363.7 339.4 397.5 372.1 407.3L452.6 431.4L468 436L461.4 450.7L418.7 546.8C414.4 556.5 410 566.3 405.7 576C413 579.2 427.6 585.7 449.6 595.5L464.2 602C468.5 592.2 472.9 582.5 477.2 572.8L541.2 428.8C546.9 415.9 551.9 404.8 556 395.6C546.4 392.7 498 378.2 428.4 357.3C439.4 319.8 446.3 296.3 449.1 286.9L460.2 305.9zM534 405.9L526.6 422.5L462.6 566.5L456.1 581.1L426.9 568.1L433.4 553.5L482.6 442.7L490 426.1L472.6 420.9L376.7 392.1C352.1 384.7 337.7 359.4 343.9 334.5C361.9 262.3 371.2 225.5 371.5 224L298.8 224L294.8 234.1C275.8 281.5 265.9 306.4 264.9 308.8L235.2 296.9L241.1 282L273.1 202L277.1 191.9L403.2 191.9C431.7 191.9 458 207 472.3 231.6L500.5 280L505.1 287.9L591.9 287.9L591.9 319.9L486.7 319.9C484.5 316.2 448.4 254.3 444.1 246.9C438.8 264.8 428.4 300.2 412.9 352.9L408.4 368.2L423.6 372.8L516.4 400.6L533.8 405.8zM448 48C470.1 48 488 65.9 488 88C488 110.1 470.1 128 448 128C425.9 128 408 110.1 408 88C408 65.9 425.9 48 448 48zM504 88C504 57.1 478.9 32 448 32C417.1 32 392 57.1 392 88C392 118.9 417.1 144 448 144C478.9 144 504 118.9 504 88zM310.2 412.3L292.6 461.5L218.7 527.2C210.7 534.3 202.8 541.4 194.8 548.5C200.1 554.5 210.8 566.4 226.7 584.4L237.3 596.4C243.9 590.5 278.5 559.7 341.2 504L347.3 498.6L350.1 490.9L365.6 447.4L360.5 445.9C357.1 444.9 353.7 443.7 350.4 442.3L335 485.5L333.6 489.4L330.5 492.1L250.5 563.3L238.5 573.9L217.2 550L229.2 539.4L303.1 473.7L306.2 471L307.6 467.1L322.6 425.2C318.1 421.3 313.9 417 310.2 412.5zM40 159.8L32 159.8L32 175.8L192 175.8L192 159.8L40 159.8zM64 255.8L64 271.8L160 271.8L160 255.8L64 255.8zM48 351.8L40 351.8L40 367.8L192 367.8L192 351.8L48 351.8z"/></svg>