<svg xmlns="http://www.w3.org/2000/svg" viewBox="0 0 640 640"><!--! Font Awesome Pro 7.2.0 by @fontawesome - https://fontawesome.com License - https://fontawesome.com/license (Commercial License) Copyright 2026 Fonticons, Inc. --><path opacity=".4" fill="currentColor" d="M64 152C64 174.1 81.9 192 104 192C126.1 192 144 174.1 144 152C144 129.9 126.1 112 104 112C81.9 112 64 129.9 64 152zM108 378.6C108 433.1 108 462.9 108 468L148 468C148 462.9 148 433.1 148 378.6C148 356.3 153.3 334.7 163.1 315.4L168.7 304.4L176.5 314L371.6 554.2L381.7 566.6L406.5 546.4L396.4 534L283.2 394.7L278.3 388.7C280.6 386.7 287.8 380.5 300.1 370L302.3 368.1L407.9 368.1L410.3 371.3C442.7 414.5 459.5 436.9 460.7 438.5L486.3 419.3L476.7 406.5L428.7 342.5L423.9 336.1L311.4 336.1L309 333.2L242.5 253.4L236.5 246.2L244.5 241.4L298.2 209.2L307.9 203.4L307.9 192.1C307.9 115.4 307.9 76.8 307.9 76.1L267.9 76.1C267.9 79.4 267.9 112.8 267.9 176.2L267.9 180.7L264 183L195.3 224.2C141.2 256.8 108 315.4 108 378.6z"/><path fill="currentColor" d="M324 60C324 298.6 324 175.2 324 212.4C323 213 317.2 216.5 306.5 222.9L260.8 250.3L318.9 320L431.9 320L441.5 332.8C526.3 445.9 498.3 408.5 508.7 422.4L502.3 427.2L463.9 456L457.5 460.8C455.9 458.7 449.5 450.1 438.3 435.2L399.9 384L308.2 384L300.5 390.6L408.7 523.8C420.5 538.3 427.2 546.6 428.9 548.6L422.7 553.6L385.4 583.9L379.2 588.9C377.5 586.8 370.8 578.6 359 564.1L172.2 334.1C166.8 348.1 164 363.1 164 378.6C164 499.9 164 472.9 164 484L156 484L100 484L92 484C92 482 92 470 92 448L92 378.6C92 309.8 128.1 246 187.2 210.5L252 171.6C252 39 252 73.2 252 60L260 60L316 60L324 60zM268 76C268 79.3 268 112.7 268 176.1L268 180.6L264.1 182.9L195.4 224.1C141.2 256.6 108 315.2 108 378.4C108 432.9 108 462.7 108 467.8L148 467.8C148 462.7 148 432.9 148 378.4C148 356.1 153.3 334.5 163.1 315.2L168.7 304.2L176.5 313.8L371.6 554L381.7 566.4L406.5 546.2L396.4 533.8L283.2 394.5L278.3 388.5C280.6 386.5 287.8 380.3 300.1 369.8L302.3 367.9L407.9 367.9L410.3 371.1C442.7 414.3 459.5 436.7 460.7 438.3L486.3 419.1L476.7 406.3L428.7 342.3L423.9 335.9L311.4 335.9L309 333L242.5 253.2L236.5 246L244.5 241.2L298.2 209L307.9 203.2L307.9 191.9C307.9 115.2 307.9 76.6 307.9 75.9L267.9 75.9zM104 192C126.1 192 144 174.1 144 152C144 129.9 126.1 112 104 112C81.9 112 64 129.9 64 152C64 174.1 81.9 192 104 192zM104 96C134.9 96 160 121.1 160 152C160 182.9 134.9 208 104 208C73.1 208 48 182.9 48 152C48 121.1 73.1 96 104 96zM408 136.1L408 144.1L392 144.1L392 80.1L408 80.1L408 136.1zM536 280.1L528 280.1L528 264.1L592 264.1L592 280.1L536 280.1zM496.2 187.2L484.9 175.9L490.6 170.2L524.5 136.3L530.2 130.6L541.5 141.9L535.8 147.6L501.9 181.5L496.2 187.2z"/></svg>