<svg xmlns="http://www.w3.org/2000/svg" viewBox="0 0 640 640"><!--! Font Awesome Pro 7.2.0 by @fontawesome - https://fontawesome.com License - https://fontawesome.com/license (Commercial License) Copyright 2026 Fonticons, Inc. --><path opacity=".4" fill="currentColor" d="M90.1 309.5L117.5 326C117.9 325.3 133.5 299.3 164.4 247.8L169.1 240L223 240L185.1 341.2C178.7 358.4 178.3 377.2 184.1 394.6C197.5 434.8 204.4 455.6 204.9 457.2L194.2 463.9L103.6 520.5L90 529L107 556.1C111.5 553.3 116 550.4 120.6 547.6C157.9 524.3 195.3 500.9 232.6 477.6L243.3 470.9C243.1 470.3 235.5 447.6 220.5 402.6L208.8 367.5C221.9 373.6 262.8 392.4 331.5 424.1L338.5 427.3L340.4 434.7L368.7 547.8L372.6 563.3L403.6 555.5L399.7 540L367.7 412L365.8 404.6L358.8 401.4L279.9 365L267.4 359.2C267.7 358 274.9 333.9 288.8 286.6L298.2 254.7C310.5 272.2 324.1 291.7 339.1 313.1L342.8 318.4L349.1 319.7L429.1 335.7L444.8 338.8L451.1 307.4C449.3 307 421.6 301.5 368 290.8L361.7 289.5L358 284.2L309.4 214.7L304.6 207.9L151.2 207.9L146.5 215.7L98.5 295.7L90.3 309.4zM264 104C264 126.1 281.9 144 304 144C326.1 144 344 126.1 344 104C344 81.9 326.1 64 304 64C281.9 64 264 81.9 264 104zM464 448C464 474.5 485.5 496 512 496C538.5 496 560 474.5 560 448C560 421.5 538.5 400 512 400C485.5 400 464 421.5 464 448z"/><path fill="currentColor" d="M325.8 322.4C319.4 313.2 312.1 302.8 304 291.2C301.1 301 295.3 320.7 286.5 350.6L365.4 387L379.3 393.4L383 408.3L415 536.3C417.6 546.6 420.2 557 422.8 567.3C415 569.2 399.5 573.1 376.2 578.9L360.7 582.8C358.9 575.8 346.9 527.7 324.7 438.6C270.4 413.5 240.7 399.8 235.6 397.5C245 425.8 261.3 474.6 262.4 477.8L241 491.2L129 561.2C120 566.9 110.9 572.5 101.9 578.2C97.7 571.4 89.2 557.8 76.5 537.5L67.9 523.8C75.4 519.1 114.7 494.6 185.7 450.2L168.8 399.6C161.8 378.7 162.3 356.1 170 335.5C188.9 285.2 198.8 258.7 199.8 256L178.1 256C109.9 369.6 137.2 324.1 123 347.9C116.1 343.8 102.4 335.5 81.8 323.2L68.1 315C73.8 305.5 95.3 269.6 132.6 207.6L141.9 192.1L312.7 192.1L322.3 205.7L370.9 275.2C489.3 298.9 444.6 289.9 469.7 295C468.1 302.8 465 318.5 460.3 342.1L457.2 357.8C444.4 355.2 407.2 347.8 345.8 335.5L333.2 333L325.8 322.5zM358.7 401.5L279.8 365.1L267.3 359.3C267.6 358.1 274.8 334 288.7 286.7L298.1 254.8C310.4 272.3 324 291.8 339 313.2L342.7 318.5L349 319.8L429 335.8L444.7 338.9L451 307.5C449.2 307.1 421.5 301.6 367.9 290.9L361.6 289.6L357.9 284.3L309.3 214.8L304.5 208L151.1 208L146.4 215.8L98.4 295.8L90.2 309.5L117.6 326C118 325.3 133.6 299.3 164.5 247.8L169.2 240L223.1 240L185.2 341.2C178.8 358.4 178.4 377.2 184.2 394.6C197.6 434.8 204.5 455.6 205 457.2L194.3 463.9L103.7 520.5L90.1 529L107.1 556.1L120.7 547.6C128.7 560.4 128.7 560.4 120.7 547.6L232.7 477.6L243.4 470.9C243.2 470.3 235.6 447.6 220.6 402.6L208.9 367.5C222 373.6 262.9 392.4 331.6 424.1L338.6 427.3L340.5 434.7L368.8 547.8L372.7 563.3L403.7 555.5L399.8 540L367.8 412L365.9 404.6L358.9 401.4zM344 104C344 81.9 326.1 64 304 64C281.9 64 264 81.9 264 104C264 126.1 281.9 144 304 144C326.1 144 344 126.1 344 104zM304 48C334.9 48 360 73.1 360 104C360 134.9 334.9 160 304 160C273.1 160 248 134.9 248 104C248 73.1 273.1 48 304 48zM560 448C560 421.5 538.5 400 512 400C485.5 400 464 421.5 464 448C464 474.5 485.5 496 512 496C538.5 496 560 474.5 560 448zM448 448C448 412.7 476.7 384 512 384C547.3 384 576 412.7 576 448C576 483.3 547.3 512 512 512C476.7 512 448 483.3 448 448z"/></svg>