<svg xmlns="http://www.w3.org/2000/svg" viewBox="0 0 640 640"><!--! Font Awesome Pro 7.2.0 by @fontawesome - https://fontawesome.com License - https://fontawesome.com/license (Commercial License) Copyright 2026 Fonticons, Inc. --><path opacity=".4" fill="currentColor" d="M80 137.9L80 144C80 373.7 266.3 560 496 560L502.1 560L554.8 454.5L434.8 387.8L376.3 447L368.3 455.1L358 450.2C284.2 415.1 224.7 355.7 189.7 281.9L184.8 271.6L192.9 263.6L252.1 205.1L185.4 85.1L80 137.8z"/><path fill="currentColor" d="M272 208L204.2 275C237.7 345.5 294.5 402.3 365 435.8L432 368L576 448L512 576L496 576C257.4 576 64 382.6 64 144L64 128L192 64L272 208zM376.3 447L368.3 455.1L358 450.2C284.2 415.1 224.7 355.7 189.7 281.9L184.8 271.6L192.9 263.6L252.1 205.1L185.4 85.1L80 137.8L80 143.9C80 373.6 266.3 559.9 496 559.9L502.1 559.9L554.8 454.4L434.8 387.7L376.3 446.9zM432 84.7L437.7 90.4L488 140.7L538.3 90.4L544 84.7L555.3 96L549.6 101.7L499.3 152L549.6 202.3L555.3 208L544 219.3L538.3 213.6L488 163.3L437.7 213.6L432 219.3L420.7 208L426.4 202.3L476.7 152L426.4 101.7L420.7 96L432 84.7z"/></svg>