<svg xmlns="http://www.w3.org/2000/svg" viewBox="0 0 640 640"><!--! Font Awesome Pro 7.2.0 by @fontawesome - https://fontawesome.com License - https://fontawesome.com/license (Commercial License) Copyright 2026 Fonticons, Inc. --><path opacity=".4" fill="currentColor" d="M80 326.6L80 441.4L198.6 560L313.4 560L496 377.4L496 262.6L377.4 144L262.6 144L80 326.6zM148.7 384L160 372.7C160.3 373 171 383.7 192 404.7C213 383.7 223.7 373 224 372.7L235.3 384L229.6 389.7L197.6 421.7L191.9 427.4L186.2 421.7L154.2 389.7L148.5 384zM212.7 288L224 276.7C224.3 277 235 287.7 256 308.7C277 287.7 287.7 277 288 276.7L299.3 288L293.6 293.7L261.6 325.7L255.9 331.4L250.2 325.7L218.2 293.7L212.5 288zM212.7 480L224 468.7C224.3 469 235 479.7 256 500.7C277 479.7 287.7 469 288 468.7L299.3 480L293.6 485.7L261.6 517.7L255.9 523.4L250.2 517.7L218.2 485.7L212.5 480zM276.7 384L288 372.7C288.3 373 299 383.7 320 404.7L352 372.7L363.3 384L320 427.3L314.3 421.6L282.3 389.6L276.6 383.9z"/><path fill="currentColor" d="M524.7 188.7L513.4 200C521.7 208.3 527.7 214.3 531.6 218.2L490.6 234.6L502.9 246.9C534.4 234.3 553.4 226.7 560 224L547.7 211.7L547.3 211.3L536 200C552 184 572.4 163.6 576 160C564 156 554 152.7 546 150C554.3 108.7 558.9 85.3 560 80C554.7 81.1 531.3 85.7 490 94C487.3 86 484 76 480 64C461.4 82.6 443 101 440 104L428.7 92.7L428.3 92.3L416 80C413.3 86.6 405.7 105.7 393.1 137.1L405.4 149.4L421.8 108.4C425.6 112.2 431.7 118.3 440 126.6C445.8 120.8 456.8 109.8 473 93.6C473.8 95.9 475.9 102.2 479.3 112.4C483.1 111.6 503.2 107.6 539.6 100.3C532.3 136.7 528.3 156.8 527.5 160.6C537.8 164 544 166.1 546.3 166.9L524.6 188.6zM198.6 560L80 441.4L80 326.6L262.6 144L377.4 144L496 262.6L496 377.4L313.4 560L198.6 560zM64 448L192 576L320 576L512 384L512 256L384 128L256 128L64 320L64 448zM229.7 282.3L224 276.6L212.7 287.9L218.4 293.6L250.4 325.6L256.1 331.3L261.8 325.6L293.8 293.6L299.5 287.9L288.2 276.6C287.9 276.9 277.2 287.6 256.2 308.6L229.9 282.3zM165.7 378.3L160 372.6L148.7 383.9L154.4 389.6L186.4 421.6L192.1 427.3L197.8 421.6L229.8 389.6L235.5 383.9L224.2 372.6C223.9 372.9 213.2 383.6 192.2 404.6L165.9 378.3zM293.7 378.3L288 372.6L276.7 383.9L282.4 389.6L314.4 421.6L320.1 427.3L363.4 384L352.1 372.7L320.1 404.7L293.8 378.4zM229.7 474.3L224 468.6L212.7 479.9L218.4 485.6L250.4 517.6L256.1 523.3L261.8 517.6L293.8 485.6L299.5 479.9L288.2 468.6C287.9 468.9 277.2 479.6 256.2 500.6L229.9 474.3z"/></svg>