<svg xmlns="http://www.w3.org/2000/svg" viewBox="0 0 640 640"><!--! Font Awesome Pro 7.2.0 by @fontawesome - https://fontawesome.com License - https://fontawesome.com/license (Commercial License) Copyright 2026 Fonticons, Inc. --><path opacity=".4" fill="currentColor" d="M112 336L112 394L113.1 397.2L130.7 412C244.5 507.6 388.4 560 537.1 560L576 560L576 336.1C545.2 336.2 514.5 336.2 483.7 336.2L483.5 335.9L112 335.9zM150.5 80.5L220 320L466 320L252.8 80.5L150.5 80.5zM352 416L512 416L512 432L352 432L352 416z"/><path fill="currentColor" d="M127.9 63.5L260.4 63.5L262.9 66.3L488.7 319.9L576 319.9L576 335.9L112 335.9L112 396.2L130.6 411.9C244.5 507.6 388.4 560 537.1 560L576 560L576 576L537.1 576C384.6 576 237.1 522.2 120.3 424.2L98.9 406.1L96 403.7L96 320L202.3 320L131 74.4L127.9 63.5zM252.8 80.5L150.5 80.5L220 320L466 320L252.8 80.5zM360 416L512 416L512 432L352 432L352 416L360 416z"/></svg>