<svg xmlns="http://www.w3.org/2000/svg" viewBox="0 0 640 640"><!--! Font Awesome Pro 7.2.0 by @fontawesome - https://fontawesome.com License - https://fontawesome.com/license (Commercial License) Copyright 2026 Fonticons, Inc. --><path opacity=".4" fill="currentColor" d="M176 224L176 432L312 432L312 224L328 224L328 432L464 432L464 224C464 144.5 399.5 80 320 80C240.5 80 176 144.5 176 224z"/><path fill="currentColor" d="M464 224C464 144.5 399.5 80 320 80C240.5 80 176 144.5 176 224L176 432L312 432L312 224L328 224L328 432L464 432L464 224zM312 448L160 448L160 224C160 135.6 231.6 64 320 64C408.4 64 480 135.6 480 224L480 448L328 448L328 576L312 576L312 448z"/></svg>