<svg xmlns="http://www.w3.org/2000/svg" viewBox="0 0 640 640"><!--! Font Awesome Pro 7.2.0 by @fontawesome - https://fontawesome.com License - https://fontawesome.com/license (Commercial License) Copyright 2026 Fonticons, Inc. --><path opacity=".4" fill="currentColor" d="M80 368C80 418.3 93.6 463.1 114.8 494.9C136.1 526.8 163.7 544 192 544C210.8 544 229.1 536.5 245.5 522.2L256 513.1L266.5 522.2C282.9 536.5 301.2 544 320 544C338.8 544 357.1 536.5 373.5 522.2L384 513.1L394.5 522.2C411 536.5 429.2 544 448 544C476.3 544 503.9 526.8 525.2 494.9C546.4 463.1 560 418.3 560 368C560 317.7 546.4 272.9 525.2 241.1C503.9 209.2 476.3 192 448 192C429.2 192 410.9 199.5 394.5 213.8L384 222.9L373.5 213.8C357.1 199.5 338.8 192 320 192C301.2 192 282.9 199.5 266.5 213.8L256 222.9L245.5 213.8C229.1 199.5 210.8 192 192 192C163.7 192 136.1 209.2 114.8 241.1C93.6 272.9 80 317.7 80 368z"/><path fill="currentColor" d="M280 80L274.4 80L272.5 85.3L236 187.6C222.2 180.1 207.4 176 192 176C121.3 176 64 262 64 368C64 474 121.3 560 192 560C215.3 560 237.2 550.6 256 534.3C274.8 550.6 296.7 560 320 560C343.3 560 365.2 550.6 384 534.3C402.8 550.6 424.7 560 448 560C518.7 560 576 474 576 368C576 262 518.7 176 448 176C432.6 176 417.8 180.1 404.1 187.6L367.5 85.3L365.6 80L280 80zM390.3 196.6C388.2 198.2 386.1 199.9 384 201.7C365.2 185.4 343.3 176 320 176C296.7 176 274.8 185.3 256 201.7C253.9 199.9 251.8 198.2 249.7 196.6L285.6 96L354.3 96L390.2 196.6zM266.5 522.2L256 513.1L245.5 522.2C229.1 536.5 210.8 544 192 544C163.7 544 136.1 526.8 114.8 494.9C93.6 463.1 80 418.3 80 368C80 317.7 93.6 272.9 114.8 241.1C136.1 209.2 163.7 192 192 192C210.8 192 229.1 199.5 245.5 213.8L256 222.9L266.5 213.8C282.9 199.5 301.2 192 320 192C338.8 192 357.1 199.5 373.5 213.8L384 222.9L394.5 213.8C411 199.5 429.2 192 448 192C476.3 192 503.9 209.2 525.2 241.1C546.4 272.9 560 317.7 560 368C560 418.3 546.4 463.1 525.2 494.9C503.9 526.8 476.3 544 448 544C429.2 544 410.9 536.5 394.5 522.2L384 513.1L373.5 522.2C357.1 536.5 338.8 544 320 544C301.2 544 282.9 536.5 266.5 522.2z"/></svg>