<svg xmlns="http://www.w3.org/2000/svg" viewBox="0 0 640 640"><!--! Font Awesome Pro 7.2.0 by @fontawesome - https://fontawesome.com License - https://fontawesome.com/license (Commercial License) Copyright 2026 Fonticons, Inc. --><path opacity=".4" fill="currentColor" d="M80 208L80 312L105.4 312C115 293.5 131.8 280 152 280C168.3 280 182.5 288.8 192.3 301.9C202.1 315 208 332.7 208 352C208 371.3 202.2 389 192.3 402.1C182.4 415.2 168.3 424 152 424C131.7 424 115 410.5 105.4 392L80 392L80 560L248 560L248 534.6C229.5 525 216 508.2 216 488C216 471.7 224.8 457.5 237.9 447.7C251 437.9 268.7 432 288 432C307.3 432 325 437.8 338.1 447.7C351.2 457.6 360 471.7 360 488C360 508.3 346.5 525 328 534.6L328 560L432 560L432 376L483.7 376L485.8 380.8C493.3 398.1 506.5 408 520 408C530.2 408 540 402.5 547.5 392.5C555 382.5 560 368.2 560 352C560 335.8 555.1 321.6 547.5 311.5C539.9 301.4 530.1 296 520 296C506.4 296 493.3 305.9 485.8 323.2L483.7 328L432 328L432 208L312 208L312 156.3L316.8 154.2C334.1 146.7 344 133.5 344 120C344 109.8 338.5 100 328.5 92.5C318.5 85 304.1 80 288 80C271.9 80 257.6 84.9 247.5 92.5C237.4 100.1 232 109.8 232 120C232 133.6 241.9 146.7 259.2 154.2L264 156.3L264 208L80 208z"/><path fill="currentColor" d="M237.9 79.7C251 69.8 268.8 64 288 64C307.2 64 325 69.8 338.1 79.7C351.2 89.6 360 103.7 360 120C360 140.3 346.5 157 328 166.6L328 192L448 192L448 312L473.4 312C483 293.5 499.8 280 520 280C536.3 280 550.5 288.8 560.3 301.9C570.1 315 576 332.7 576 352C576 371.3 570.2 389 560.3 402.1C550.4 415.2 536.3 424 520 424C499.7 424 483 410.5 473.4 392L448 392L448 576L312 576L312 524.3L316.8 522.2C334.1 514.7 344 501.5 344 488C344 477.8 338.5 468 328.5 460.5C318.5 453 304.1 448 288 448C271.9 448 257.6 452.9 247.5 460.5C237.4 468.1 232 477.8 232 488C232 501.6 241.9 514.7 259.2 522.2L264 524.3L264 576L64 576L64 376L115.7 376L117.8 380.8C125.3 398.1 138.5 408 152 408C162.2 408 172 402.5 179.5 392.5C187 382.5 192 368.1 192 352C192 335.9 187.1 321.6 179.5 311.5C171.9 301.4 162.2 296 152 296C138.4 296 125.3 305.9 117.8 323.2L115.7 328L64 328L64 192L248 192L248 166.6C229.5 157 216 140.2 216 120C216 103.7 224.8 89.5 237.9 79.7zM247.5 92.5C237.5 100 232 109.8 232 120C232 133.6 241.9 146.7 259.2 154.2L264 156.3L264 208L80 208L80 312L105.4 312C115 293.5 131.8 280 152 280C168.3 280 182.5 288.8 192.3 301.9C202.1 315 208 332.7 208 352C208 371.3 202.2 389 192.3 402.1C182.4 415.2 168.3 424 152 424C131.7 424 115 410.5 105.4 392L80 392L80 560L248 560L248 534.6C229.5 525 216 508.2 216 488C216 471.7 224.8 457.5 237.9 447.7C251 437.9 268.7 432 288 432C307.3 432 325 437.8 338.1 447.7C351.2 457.6 360 471.7 360 488C360 508.3 346.5 525 328 534.6L328 560L432 560L432 376L483.7 376L485.8 380.8C493.3 398.1 506.5 408 520 408C530.2 408 540 402.5 547.5 392.5C555 382.5 560 368.2 560 352C560 335.8 555.1 321.6 547.5 311.5C539.9 301.4 530.1 296 520 296C506.4 296 493.3 305.9 485.8 323.2L483.7 328L432 328L432 208L312 208L312 156.3L316.8 154.2C334.1 146.7 344 133.5 344 120C344 109.8 338.5 100 328.5 92.5C318.5 85 304.1 80 288 80C271.9 80 257.6 84.9 247.5 92.5z"/></svg>