<svg xmlns="http://www.w3.org/2000/svg" viewBox="0 0 640 640"><!--! Font Awesome Pro 7.2.0 by @fontawesome - https://fontawesome.com License - https://fontawesome.com/license (Commercial License) Copyright 2026 Fonticons, Inc. --><path opacity=".4" fill="currentColor" d="M80 144L80 496L560 496L560 144L80 144zM136 288C136 252.7 164.7 224 200 224C235.3 224 264 252.7 264 288L264 416L248 416L248 336L152 336L152 416L136 416L136 288zM152 288L152 320L248 320L248 288C248 261.5 226.5 240 200 240C173.5 240 152 261.5 152 288zM304 224L376 224C406.9 224 432 249.1 432 280C432 310.9 406.9 336 376 336L320 336L320 416L304 416L304 224zM320 240L320 320L376 320C398.1 320 416 302.1 416 280C416 257.9 398.1 240 376 240L320 240zM472 224L488 224L488 416L472 416L472 224z"/><path fill="currentColor" d="M576 512L64 512L64 128L576 128L576 512zM80 496L560 496L560 144L80 144L80 496zM200 224C235.3 224 264 252.7 264 288L264 416L248 416L248 336L152 336L152 416L136 416L136 288C136 252.7 164.7 224 200 224zM376 224C406.9 224 432 249.1 432 280C432 310.9 406.9 336 376 336L320 336L320 416L304 416L304 224L376 224zM488 416L472 416L472 224L488 224L488 416zM200 240C173.5 240 152 261.5 152 288L152 320L248 320L248 288C248 261.5 226.5 240 200 240zM320 320L376 320C398.1 320 416 302.1 416 280C416 257.9 398.1 240 376 240L320 240L320 320z"/></svg>