<svg xmlns="http://www.w3.org/2000/svg" viewBox="0 0 640 640"><!--! Font Awesome Pro 7.2.0 by @fontawesome - https://fontawesome.com License - https://fontawesome.com/license (Commercial License) Copyright 2026 Fonticons, Inc. --><path opacity=".4" fill="currentColor" d="M16 144L16 496L624 496L624 144L16 144zM80 224L100.8 224L103.1 228.2L192.1 391.3L192.1 224L208.1 224L208.1 416L187.3 416L185 411.8L96 248.7L96 416L80 416L80 224zM248 224L376 224L376 240L264 240L264 312L360 312L360 328L264 328L264 400L376 400L376 416L248 416L248 224zM400 224L416 224L416 310.8C416 321 418.2 331 422.3 340.3L444 388.5L472.7 324.7L474.8 320L485.1 320L487.2 324.7L515.9 388.5L537.6 340.3C541.8 331 543.9 320.9 543.9 310.8L543.9 224L559.9 224L559.9 310.8C559.9 323.2 557.3 335.5 552.1 346.9L523.1 411.2L521 415.9L510.7 415.9L508.6 411.2L479.9 347.4L451.2 411.2L449.1 415.9L438.8 415.9L436.7 411.2L407.7 346.9C402.6 335.6 400 323.2 399.9 310.8L399.9 224z"/><path fill="currentColor" d="M640 512L0 512L0 128L640 128L640 512zM16 496L624 496L624 144L16 144L16 496zM103 228.2L192 391.3L192 224L208 224L208 416L187.2 416L184.9 411.8L95.9 248.7L95.9 416L79.9 416L79.9 224L100.7 224L103 228.2zM376 240L264 240L264 312L360 312L360 328L264 328L264 400L376 400L376 416L248 416L248 224L376 224L376 240zM416 224L416 310.8C416 321 418.2 331 422.3 340.3L444 388.5L472.7 324.7L474.8 320L485.1 320L487.2 324.7L515.9 388.5L537.6 340.3C541.8 331 543.9 320.9 543.9 310.8L543.9 224L559.9 224L559.9 310.8C559.9 323.2 557.3 335.5 552.1 346.9L523.1 411.2L521 415.9L510.7 415.9L508.6 411.2L479.9 347.4L451.2 411.2L449.1 415.9L438.8 415.9L436.7 411.2L407.7 346.9C402.6 335.6 400 323.2 399.9 310.8L399.9 224L415.9 224z"/></svg>