<svg xmlns="http://www.w3.org/2000/svg" viewBox="0 0 640 640"><!--! Font Awesome Pro 7.2.0 by @fontawesome - https://fontawesome.com License - https://fontawesome.com/license (Commercial License) Copyright 2026 Fonticons, Inc. --><path opacity=".4" fill="currentColor" d="M72.3 249.5L90.5 208L198.2 208L216.4 249.5C216.4 302.9 216.4 321 216.4 304L200.4 304L200.4 560L168.4 560L168.4 400L120.4 400L120.4 560L88.4 560L88.4 304L72.4 304C72.4 321.1 72.4 302.9 72.4 249.5zM184.3 120C184.3 142.1 166.4 160 144.3 160C122.2 160 104.3 142.1 104.3 120C104.3 97.9 122.2 80 144.3 80C166.4 80 184.3 97.9 184.3 120zM372.6 368L442.5 208L550.2 208L620.1 368L584.8 368L552 269.5L549.5 261.9L534.3 267L536.8 274.6L589.3 432.1L403.5 432.1L456 274.6L458.5 267L443.3 261.9L440.8 269.5L408 368L372.7 368zM440.4 448L472.4 448L472.4 560L440.4 560L440.4 448zM536.4 120C536.4 142.1 518.5 160 496.4 160C474.3 160 456.4 142.1 456.4 120C456.4 97.9 474.3 80 496.4 80C518.5 80 536.4 97.9 536.4 120zM520.4 448L552.4 448L552.4 560L520.4 560L520.4 448z"/><path fill="currentColor" d="M144.3 160C166.4 160 184.3 142.1 184.3 120C184.3 97.9 166.4 80 144.3 80C122.2 80 104.3 97.9 104.3 120C104.3 142.1 122.2 160 144.3 160zM144.3 64C175.2 64 200.3 89.1 200.3 120C200.3 150.9 175.2 176 144.3 176C113.4 176 88.3 150.9 88.3 120C88.3 89.1 113.4 64 144.3 64zM80 192L208.6 192L210.7 196.8L287.6 372.8L272.9 379.2L198.1 208L90.4 208L15.6 379.2L.9 372.8L77.8 196.8L79.9 192zM88.3 312L88.3 560L120.3 560L120.3 400L168.3 400L168.3 560L200.3 560L200.3 304L216.3 304L216.3 576L152.3 576L152.3 416L136.3 416L136.3 576L72.3 576L72.3 304L88.3 304L88.3 312zM496.3 160C518.4 160 536.3 142.1 536.3 120C536.3 97.9 518.4 80 496.3 80C474.2 80 456.3 97.9 456.3 120C456.3 142.1 474.2 160 496.3 160zM496.3 64C527.2 64 552.3 89.1 552.3 120C552.3 150.9 527.2 176 496.3 176C465.4 176 440.3 150.9 440.3 120C440.3 89.1 465.4 64 496.3 64zM458.5 266.9L456 274.5L403.5 432L589.3 432L536.8 274.5L534.3 266.9L549.5 261.8L552 269.4L608 437.4L611.5 447.9L568.4 447.9L568.4 575.9L504.4 575.9L504.4 447.9L488.4 447.9L488.4 575.9L424.4 575.9L424.4 447.9L381.3 447.9L384.8 437.4L440.8 269.4L443.3 261.8L458.5 266.9zM440.3 448L440.3 560L472.3 560L472.3 448L440.3 448zM520.3 560L552.3 560L552.3 448L520.3 448L520.3 560zM437.3 192L560.7 192L562.8 196.8L639.7 372.8L625 379.2L550.2 208L442.5 208L367.7 379.2L353 372.8L429.9 196.8L432 192L437.2 192zM328.3 72L328.3 576L312.3 576L312.3 64L328.3 64L328.3 72z"/></svg>