<svg xmlns="http://www.w3.org/2000/svg" viewBox="0 0 640 640"><!--! Font Awesome Pro 7.2.0 by @fontawesome - https://fontawesome.com License - https://fontawesome.com/license (Commercial License) Copyright 2026 Fonticons, Inc. --><path opacity=".4" fill="currentColor" d="M16 272L16 368L336 368L336 473.4L489.4 320L336 166.6L336 272L16 272z"/><path fill="currentColor" d="M320 256L320 128L336 144L500.7 308.7L512 320L320 512L320 384L0 384L0 256L320 256zM336 256L336 272L16 272L16 368L336 368L336 473.4L489.4 320L336 166.6L336 256zM640 168L640 480L624 480L624 160L640 160L640 168z"/></svg>