<svg xmlns="http://www.w3.org/2000/svg" viewBox="0 0 640 640"><!--! Font Awesome Pro 7.2.0 by @fontawesome - https://fontawesome.com License - https://fontawesome.com/license (Commercial License) Copyright 2026 Fonticons, Inc. --><path opacity=".4" fill="currentColor" d="M80 245.1L80 253.6C80.4 254.2 80.9 254.9 81.6 255.7C83.6 258.4 86.7 262.2 91.1 266.9C99.8 276.2 113.2 288.8 132.2 301.4C132.5 301.6 132.8 301.8 133.2 302C174.3 277.9 235.1 256 320 256C405 256 465.8 277.9 506.9 302C507.2 301.8 507.6 301.6 507.9 301.3C526.9 288.7 540.4 276.1 549 266.8C553.3 262.1 556.4 258.3 558.5 255.6C559.1 254.8 559.6 254.1 560.1 253.5L560.1 245C537.4 214.4 461.4 144 320 144C178.6 144 102.6 214.4 80 245.1zM80 278.5L80 395C102.6 425.6 178.6 496 320 496C461.4 496 537.4 425.6 560 394.9L560 278.4C550.6 288.5 536.4 301.6 516.7 314.6C476.2 341.4 412.7 367.9 320 367.9C227.3 367.9 163.8 341.5 123.3 314.7C103.6 301.6 89.4 288.5 80 278.5z"/><path fill="currentColor" d="M80 245.1L80 253.6C80.4 254.2 80.9 254.9 81.6 255.7C83.6 258.4 86.7 262.2 91.1 266.9C99.8 276.2 113.2 288.8 132.2 301.4C132.5 301.6 132.8 301.8 133.2 302C174.3 277.9 235.1 256 320 256C405 256 465.8 277.9 506.9 302C507.2 301.8 507.6 301.6 507.9 301.3C526.9 288.7 540.4 276.1 549 266.8C553.3 262.1 556.4 258.3 558.5 255.6C559.1 254.8 559.6 254.1 560.1 253.5L560.1 245C537.4 214.4 461.4 144 320 144C178.6 144 102.6 214.4 80 245.1zM491.2 311.5C452.6 290.5 396.9 272 320 272C243.1 272 187.4 290.5 148.8 311.5C187 332.9 242.7 352 320 352C397.3 352 453 332.9 491.2 311.5zM80 394.9C102.6 425.6 178.6 496 320 496C461.4 496 537.4 425.6 560 394.9L560 278.4C550.6 288.5 536.4 301.6 516.7 314.6C476.2 341.4 412.7 367.9 320 367.9C227.3 367.9 163.8 341.5 123.3 314.7C103.6 301.6 89.4 288.5 80 278.5L80 395zM576 240L576 400C554.7 432 473.6 512 320 512C166.4 512 85.3 432 64 400L64 240C85.3 208 166.4 128 320 128C473.6 128 554.7 208 576 240z"/></svg>