<svg xmlns="http://www.w3.org/2000/svg" viewBox="0 0 640 640"><!--! Font Awesome Pro 7.2.0 by @fontawesome - https://fontawesome.com License - https://fontawesome.com/license (Commercial License) Copyright 2026 Fonticons, Inc. --><path opacity=".4" fill="currentColor" d="M192 208L192 240L448 240L448 208C448 137.3 390.7 80 320 80C249.3 80 192 137.3 192 208zM328 160C328 182.1 310.1 200 288 200C265.9 200 248 182.1 248 160C248 137.9 265.9 120 288 120C310.1 120 328 137.9 328 160zM384 176C384 184.8 376.8 192 368 192C359.2 192 352 184.8 352 176C352 167.2 359.2 160 368 160C376.8 160 384 167.2 384 176z"/><path fill="currentColor" d="M320 64C240.5 64 176 128.5 176 208L176 240L96 240L96 486.1L64.8 548.4L64 550.1L64 576L192 576L192 453L242 509.3L244.4 512L395.6 512L398 509.3L448 453L448 576L576 576L576 550.1L544 486.1L544 240L464 240L464 208C464 128.5 399.5 64 320 64zM464 256L528 256L528 489.9L528.8 491.6L560 553.9L560 560L464 560L464 256zM448 240L192 240L192 208C192 137.3 249.3 80 320 80C390.7 80 448 137.3 448 208L448 240zM192 256L448 256L448 429L388.4 496L251.6 496L192 429L192 256zM176 256L176 560L80 560L80 553.9L111.2 491.6L112 489.9L112 256L176 256zM264 160C264 146.7 274.7 136 288 136C301.3 136 312 146.7 312 160C312 173.3 301.3 184 288 184C274.7 184 264 173.3 264 160zM328 160C328 137.9 310.1 120 288 120C265.9 120 248 137.9 248 160C248 182.1 265.9 200 288 200C310.1 200 328 182.1 328 160zM368 192C376.8 192 384 184.8 384 176C384 167.2 376.8 160 368 160C359.2 160 352 167.2 352 176C352 184.8 359.2 192 368 192zM256 304L256 320L384 320L384 304L256 304zM256 368L256 384L384 384L384 368L256 368z"/></svg>