<svg xmlns="http://www.w3.org/2000/svg" viewBox="0 0 640 640"><!--! Font Awesome Pro 7.2.0 by @fontawesome - https://fontawesome.com License - https://fontawesome.com/license (Commercial License) Copyright 2026 Fonticons, Inc. --><path opacity=".4" fill="currentColor" d="M80 368L80 528L560 528L560 368L80 368zM176 448C176 456.8 168.8 464 160 464C151.2 464 144 456.8 144 448C144 439.2 151.2 432 160 432C168.8 432 176 439.2 176 448zM256 448C256 456.8 248.8 464 240 464C231.2 464 224 456.8 224 448C224 439.2 231.2 432 240 432C248.8 432 256 439.2 256 448z"/><path fill="currentColor" d="M571 133C520.7 90 455.4 64 384 64C312.6 64 247.3 90 197 133L208.4 144.4C255.7 104.2 317 80 384 80C451 80 512.3 104.2 559.7 144.3L571 133zM491.4 212.6C461.7 189.6 424.4 176 384 176C343.6 176 306.3 189.6 276.6 212.6L288 224C314.7 203.9 348 192 384 192C420 192 453.3 203.9 480 224L491.4 212.6zM376 368L560 368L560 528L80 528L80 368L376 368zM376 352L64 352L64 544L576 544L576 352L392 352L392 288L376 288L376 352zM160 432C151.2 432 144 439.2 144 448C144 456.8 151.2 464 160 464C168.8 464 176 456.8 176 448C176 439.2 168.8 432 160 432zM224 448C224 456.8 231.2 464 240 464C248.8 464 256 456.8 256 448C256 439.2 248.8 432 240 432C231.2 432 224 439.2 224 448z"/></svg>