<svg xmlns="http://www.w3.org/2000/svg" viewBox="0 0 640 640"><!--! Font Awesome Pro 7.2.0 by @fontawesome - https://fontawesome.com License - https://fontawesome.com/license (Commercial License) Copyright 2026 Fonticons, Inc. --><path opacity=".4" fill="currentColor" d="M112 112L112 528L528 528L528 368L448 368L448 448L432 448L432 368L368 368L368 448L352 448L352 368L288 368L288 448L272 448L272 368L192 368L192 352L272 352L272 288L192 288L192 272L272 272L272 208L192 208L192 192L272 192L272 112L112 112z"/><path fill="currentColor" d="M104 96L96 96L96 544L544 544L544 352L288 352L288 96L104 96zM272 192L192 192L192 208L272 208L272 272L192 272L192 288L272 288L272 352L192 352L192 368L272 368L272 448L288 448L288 368L352 368L352 448L368 448L368 368L432 368L432 448L448 448L448 368L528 368L528 528L112 528L112 112L272 112L272 192z"/></svg>