<svg xmlns="http://www.w3.org/2000/svg" viewBox="0 0 640 640"><!--! Font Awesome Pro 7.2.0 by @fontawesome - https://fontawesome.com License - https://fontawesome.com/license (Commercial License) Copyright 2026 Fonticons, Inc. --><path opacity=".4" fill="currentColor" d="M121.6 549.8L142.9 573.7L154.9 563.1L234.9 491.9L238 489.2L239.4 485.3L254.8 442.1C244.3 437.9 235 432 226.8 425L211.8 466.9L210.4 470.8L207.3 473.5L133.4 539.2L121.4 549.8zM139.4 296.9L169.1 308.8C170.1 306.4 180 281.5 199 234.1L203 224L275.7 224C275.3 225.5 266.1 262.3 248.1 334.5C241.9 359.4 256.3 384.7 280.9 392.1L376.8 420.9L394.2 426.1L386.8 442.7L337.6 553.5L331.1 568.1L360.3 581.1L366.8 566.5L430.8 422.5L438.2 405.9L420.8 400.7L328 372.9L312.8 368.3C313.1 367.3 321.5 338.8 338 282.7L348.4 247C360.8 268.2 373.4 289.9 386.3 312L390.9 319.9L496.1 319.9L496.1 287.9L409.3 287.9L404.7 280L376.5 231.6C362.2 207 335.9 191.9 307.4 191.9L181.3 191.9L177.3 202L145.3 282L139.4 296.9zM312.2 88C312.2 110.1 330.1 128 352.2 128C374.3 128 392.2 110.1 392.2 88C392.2 65.9 374.3 48 352.2 48C330.1 48 312.2 65.9 312.2 88z"/><path fill="currentColor" d="M372.5 320.1C367.6 311.6 361.2 300.6 353.3 287.1C350.5 296.5 343.6 319.9 332.6 357.5L425.4 385.3C439 389.4 450.6 392.8 460.2 395.7C456.1 404.9 451.2 416 445.4 428.9L381.4 572.9C377.1 582.6 372.7 592.4 368.4 602.1L324.5 582.6L309.9 576.1C313.6 567.7 332.2 526 365.6 450.8L372.2 436.1L356.8 431.5L276.3 407.4C243.6 397.6 224.3 363.7 232.6 330.6L255.3 240L213.9 240C172 344.8 187 307.2 178.1 329.6C170.7 326.6 155.8 320.7 133.5 311.8L118.6 305.9C123.2 294.5 137.8 257.9 162.5 196.2L170.5 176.1L307.4 176.1C341.5 176.1 373.1 194.2 390.3 223.7L418.5 272.1L512.1 272.1L512.1 336.1L381.7 336.1L372.4 320.2zM420.7 400.7L327.9 372.9L312.7 368.3C313 367.3 321.4 338.8 337.9 282.7L348.4 247C360.8 268.2 373.4 289.9 386.3 312L390.9 319.9L496.1 319.9L496.1 287.9L409.3 287.9L404.7 280L376.5 231.6C362.2 207 335.9 191.9 307.4 191.9L181.3 191.9L177.3 202L145.3 282L139.4 296.9L169.1 308.8C170.1 306.4 180 281.5 199 234.1L203 224L275.7 224C275.3 225.5 266.1 262.3 248.1 334.5C241.9 359.4 256.3 384.7 280.9 392.1L376.8 420.9L394.2 426.1L386.8 442.7L337.6 553.5L331.1 568.1L360.3 581.1L366.8 566.5L430.8 422.5L438.2 405.9L420.8 400.7zM392.2 88C392.2 65.9 374.3 48 352.2 48C330.1 48 312.2 65.9 312.2 88C312.2 110.1 330.1 128 352.2 128C374.3 128 392.2 110.1 392.2 88zM352.2 32C383.1 32 408.2 57.1 408.2 88C408.2 118.9 383.1 144 352.2 144C321.3 144 296.2 118.9 296.2 88C296.2 57.1 321.3 32 352.2 32zM196.8 461.5L214.4 412.3C218.2 416.9 222.3 421.1 226.8 425L211.8 466.9L210.4 470.8L207.3 473.5L133.4 539.2L121.4 549.8L142.7 573.7L154.7 563.1L234.7 491.9L237.8 489.2L239.2 485.3L254.6 442.1C257.9 443.5 261.2 444.7 264.7 445.7L269.8 447.2L254.3 490.7L251.5 498.4L245.4 503.8L165.4 575C157.4 582.1 149.5 589.2 141.5 596.3C136.2 590.3 125.5 578.4 109.6 560.4L99 548.5C106.6 541.7 139.2 512.7 196.8 461.5z"/></svg>