<svg xmlns="http://www.w3.org/2000/svg" viewBox="0 0 640 640"><!--! Font Awesome Pro 7.2.0 by @fontawesome - https://fontawesome.com License - https://fontawesome.com/license (Commercial License) Copyright 2026 Fonticons, Inc. --><path opacity=".4" fill="currentColor" d=""/><path fill="currentColor" d="M160 207.5C160 145.9 209.9 96 271.5 96L464 96L464 112L271.5 112C218.7 112 176 154.8 176 207.5C176 254.5 210.2 294.5 256.6 301.9L385.8 322.3C440 330.9 479.9 377.6 479.9 432.5C479.9 494.1 430 544 368.4 544L175.9 544L175.9 528L368.4 528C421.2 528 463.9 485.2 463.9 432.5C463.9 385.5 429.7 345.5 383.3 338.1L254.1 317.7C199.9 309.1 160 262.4 160 207.5z"/></svg>