<svg xmlns="http://www.w3.org/2000/svg" viewBox="0 0 640 640"><!--! Font Awesome Pro 7.2.0 by @fontawesome - https://fontawesome.com License - https://fontawesome.com/license (Commercial License) Copyright 2026 Fonticons, Inc. --><path opacity=".4" fill="currentColor" d="M16 208L138.9 208L141.1 206.1L287.9 82.4L434.7 206.1L436.9 208L559.8 208L559.8 244.6C549.7 241.6 538.9 240 527.8 240C465.9 240 415.8 290.1 415.8 352L415.8 368L367.8 368L367.8 560L335.8 560L335.8 416C330.5 416 325.1 416 319.8 416L239.8 416L239.8 560L15.8 560L15.8 208zM80 272L80 344L152 344L152 272L80 272zM80 400L80 472L152 472L152 400L80 400zM224 256C224 291.3 252.7 320 288 320C323.3 320 352 291.3 352 256C352 220.7 323.3 192 288 192C252.7 192 224 220.7 224 256z"/><path fill="currentColor" d="M293.2 65.9L288 61.6L282.8 65.9L133 192L-.1 192L-.1 576L367.9 576L367.9 560L335.9 560L335.9 416L239.9 416L239.9 560L15.9 560L15.9 208L138.8 208L141 206.1L287.8 82.4L434.6 206.1L436.8 208L559.7 208L559.7 244.6C565.2 246.2 570.6 248.3 575.7 250.7L575.7 191.9L442.6 191.9L292.8 65.8zM320 432L320 560L256 560L256 432L320 432zM240 256C240 229.5 261.5 208 288 208C314.5 208 336 229.5 336 256C336 282.5 314.5 304 288 304C261.5 304 240 282.5 240 256zM352 256C352 220.7 323.3 192 288 192C252.7 192 224 220.7 224 256C224 291.3 252.7 320 288 320C323.3 320 352 291.3 352 256zM88 272L80 272L80 344L152 344L152 272L88 272zM96 328L96 288L136 288L136 328L96 328zM80 400L80 472L152 472L152 400L80 400zM96 416L136 416L136 456L96 456L96 416zM528 304C554.5 304 576 325.5 576 352L576 368L592 368L592 352C592 316.7 563.3 288 528 288C492.7 288 464 316.7 464 352L464 416L416 416L416 608L640 608L640 416L480 416L480 352C480 325.5 501.5 304 528 304zM432 432L624 432L624 592L432 592L432 432z"/></svg>