<svg xmlns="http://www.w3.org/2000/svg" viewBox="0 0 640 640"><!--! Font Awesome Pro 7.2.0 by @fontawesome - https://fontawesome.com License - https://fontawesome.com/license (Commercial License) Copyright 2026 Fonticons, Inc. --><path opacity=".4" fill="currentColor" d="M80 80L560 80L560 273.1C554.8 272.4 549.4 272 544 272C482.1 272 432 322.1 432 384C432 322.1 381.9 272 320 272C258.1 272 208 322.1 208 384C208 322.1 157.9 272 96 272C90.6 272 85.2 272.4 80 273.1L80 80z"/><path fill="currentColor" d="M560 80L80 80L80 273.1C74.5 273.9 69.2 275.1 64 276.6L64 64L576 64L576 276.6C570.8 275.1 565.5 273.9 560 273.1L560 80zM96 432C122.5 432 144 410.5 144 384C144 357.5 122.5 336 96 336C69.5 336 48 357.5 48 384C48 410.5 69.5 432 96 432zM96 320C131.3 320 160 348.7 160 384C160 419.3 131.3 448 96 448C60.7 448 32 419.3 32 384C32 348.7 60.7 320 96 320zM320 432C346.5 432 368 410.5 368 384C368 357.5 346.5 336 320 336C293.5 336 272 357.5 272 384C272 410.5 293.5 432 320 432zM320 320C355.3 320 384 348.7 384 384C384 419.3 355.3 448 320 448C284.7 448 256 419.3 256 384C256 348.7 284.7 320 320 320zM592 384C592 357.5 570.5 336 544 336C517.5 336 496 357.5 496 384C496 410.5 517.5 432 544 432C570.5 432 592 410.5 592 384zM480 384C480 348.7 508.7 320 544 320C579.3 320 608 348.7 608 384C608 419.3 579.3 448 544 448C508.7 448 480 419.3 480 384zM43.5 496L16.8 576L-.1 576L31.9 480L159.9 480L191.9 576L175 576L148.3 496L43.4 496zM240.8 576L223.9 576L255.9 480L383.9 480L415.9 576L399 576L372.3 496L267.4 496L240.7 576zM491.5 496L464.8 576L447.9 576L479.9 480L607.9 480L639.9 576L623 576L596.3 496L491.4 496z"/></svg>