<svg xmlns="http://www.w3.org/2000/svg" viewBox="0 0 640 640"><!--! Font Awesome Pro 7.2.0 by @fontawesome - https://fontawesome.com License - https://fontawesome.com/license (Commercial License) Copyright 2026 Fonticons, Inc. --><path opacity=".4" fill="currentColor" d="M208 134.6L208 496L528 496L528 48L294.6 48L208 134.6zM336 96L352 96L352 192L336 192L336 96zM400 96L416 96L416 192L400 192L400 96zM464 96L480 96L480 192L464 192L464 96z"/><path fill="currentColor" d="M544 496L544 512L192 512L192 128L288 32L544 32L544 496zM528 48L294.6 48L208 134.6L208 496L528 496L528 48zM112 224L112 592L448 592L448 608L96 608L96 224L112 224zM352 104L352 192L336 192L336 96L352 96L352 104zM416 104L416 192L400 192L400 96L416 96L416 104zM480 104L480 192L464 192L464 96L480 96L480 104z"/></svg>