<svg xmlns="http://www.w3.org/2000/svg" viewBox="0 0 640 640"><!--! Font Awesome Pro 7.2.0 by @fontawesome - https://fontawesome.com License - https://fontawesome.com/license (Commercial License) Copyright 2026 Fonticons, Inc. --><path opacity=".4" fill="currentColor" d="M74.4 218.3C106.3 205.1 138.1 191.9 170 178.7C172 177.9 174.1 177 176.1 176.2C176.9 174.2 177.8 172.1 178.6 170.1C191.8 138.2 205 106.4 218.2 74.5C250.1 87.7 281.9 100.9 313.8 114.1C315.8 114.9 317.9 115.8 319.9 116.6C321.9 115.8 324 114.9 326 114.1C357.9 100.9 389.7 87.7 421.6 74.5C434.8 106.4 448 138.2 461.2 170.1C462 172.1 462.9 174.2 463.7 176.2C465.7 177 467.8 177.9 469.8 178.7C501.7 191.9 533.5 205.1 565.4 218.3C552.2 250.2 539 282 525.8 313.9C525 315.9 524.1 318 523.3 320C524.1 322 525 324.1 525.8 326.1C539 358 552.2 389.8 565.4 421.7C533.5 434.9 501.7 448.1 469.8 461.3C467.8 462.1 465.7 463 463.7 463.8C462.9 465.8 462 467.9 461.2 469.9C448 501.8 434.8 533.6 421.6 565.5C389.7 552.3 357.9 539.1 326 525.9C324 525.1 321.9 524.2 319.9 523.4C317.9 524.2 315.8 525.1 313.8 525.9C281.9 539.1 250.1 552.3 218.2 565.5C205 533.6 191.8 501.8 178.6 469.9C177.8 467.9 176.9 465.8 176.1 463.8C174.1 463 172 462.1 170 461.3C138.1 448.1 106.3 434.9 74.4 421.7C87.6 389.8 100.8 358 114 326.1C114.8 324.1 115.7 322 116.5 320C115.7 318 114.8 315.9 114 313.9C100.8 282 87.6 250.2 74.4 218.3z"/><path fill="currentColor" d="M163.9 163.9L68.3 203.5L53.5 209.6L59.6 224.4L99.2 320L59.6 415.6L53.5 430.4L68.3 436.5L163.9 476.1L203.5 571.7L209.6 586.5L224.4 580.4L320 540.8L415.6 580.4L430.4 586.5L436.5 571.7L476.1 476.1L571.7 436.5L586.5 430.4L580.4 415.6L540.8 320L580.4 224.4L586.5 209.6L571.7 203.5L476.1 163.9L436.5 68.3L430.4 53.5L415.6 59.6L320 99.2L224.4 59.6L209.6 53.5L203.5 68.3L163.9 163.9zM218.3 74.4L313.9 114L320 116.5L326.1 114L421.7 74.4L461.3 170L463.8 176.1L469.9 178.6L565.5 218.2L525.9 313.8L523.4 319.9L525.9 326L565.5 421.6L469.9 461.2L463.8 463.7L461.3 469.8L421.7 565.4L326.1 525.8L320 523.3L313.9 525.8L218.3 565.4L178.7 469.8L176.2 463.7L170.1 461.2L74.5 421.6L114.1 326L116.6 319.9L114.1 313.8L74.5 218.2L170.1 178.6L176.2 176.1L178.7 170L218.3 74.4z"/></svg>