<svg xmlns="http://www.w3.org/2000/svg" viewBox="0 0 640 640"><!--! Font Awesome Pro 7.2.0 by @fontawesome - https://fontawesome.com License - https://fontawesome.com/license (Commercial License) Copyright 2026 Fonticons, Inc. --><path opacity=".4" fill="currentColor" d="M16 112L16 528L432 528L432 112L16 112zM80 192L96 192L96 320L80 320L80 192zM144 192L160 192L160 320L144 320L144 192z"/><path fill="currentColor" d="M432 112L432 528L16 528L16 112L432 112zM16 96L0 96L0 544L448 544L448 96L16 96zM96 192L80 192L80 320L96 320L96 192zM160 192L144 192L144 320L160 320L160 192zM604.1 142.9L611 138.8L602.8 125.1L595.9 129.2L515.9 177.2L509 181.3L517.2 195L524.1 190.9L604.1 142.9zM520 312L512 312L512 328L640 328L640 312L520 312zM524.1 449.1L517.2 445L509 458.7L515.9 462.8L595.9 510.8L602.8 514.9L611 501.2L604.1 497.1L524.1 449.1z"/></svg>