<svg xmlns="http://www.w3.org/2000/svg" viewBox="0 0 640 640"><!--! Font Awesome Pro 7.2.0 by @fontawesome - https://fontawesome.com License - https://fontawesome.com/license (Commercial License) Copyright 2026 Fonticons, Inc. --><path opacity=".4" fill="currentColor" d="M101.1 348.7C101.5 347.1 102.1 345.6 102.7 344.1L312 260.4L312 497.2C274.7 482.3 237.3 467.3 200 452.4C191.6 455.7 172.7 463.3 143.2 475.1L101.1 348.7zM240 83.5C241.1 82.2 242.2 81.1 243.5 80L396.4 80C397.7 81.1 398.9 82.4 400 83.7L400 128L240 128L240 83.5zM328 260.4L537.3 344.1C538 345.6 538.5 347.1 538.9 348.6L496.7 475.2C467.3 463.4 448.3 455.8 440 452.5C402.7 467.4 365.3 482.4 328 497.3L328 260.5z"/><path fill="currentColor" d="M449.5 496.5L573.6 543.5L621.6 528.3L629.2 525.9L634 541.2L626.4 543.6L575.7 559.6L573 560.4L570.4 559.4L446.6 512.5L322.8 559.4L320 560.5L317.2 559.4L193.4 512.5L69.6 559.4L67 560.4L64.3 559.6L13.6 543.6L6 541.2L10.8 525.9L18.4 528.3L66.4 543.5L190.5 496.5L193.3 495.4L196.1 496.5L319.9 543.4L443.7 496.5L446.5 495.4L449.3 496.5zM416 128L512 128L512 316.8L560 336L511.6 481.1L496.7 475.1L540 345.2L328 260.4L328 497.2L320 500.4L312 497.2L312 260.4L99.9 345.2L143.2 475.1L128.3 481.1L79.9 336L127.9 316.8L127.9 128L223.9 128L223.9 64L415.9 64L415.9 128zM144 310.4L320 240L496 310.4L496 144L144 144L144 310.4zM240 128L400 128L400 80L240 80L240 128z"/></svg>