<svg xmlns="http://www.w3.org/2000/svg" viewBox="0 0 640 640"><!--! Font Awesome Pro 7.2.0 by @fontawesome - https://fontawesome.com License - https://fontawesome.com/license (Commercial License) Copyright 2026 Fonticons, Inc. --><path opacity=".4" fill="currentColor" d="M236.1 172.1C198.6 209.6 198.6 270.4 236.1 307.9L254.4 326.2L390.2 190.4L371.9 172.1C334.4 134.6 273.6 134.6 236.1 172.1z"/><path fill="currentColor" d="M72 96L64 96L64 544L80 544L80 112L164.7 112L218.4 165.7L219.4 166.7C181.2 210.7 183 277.4 224.9 319.2L243.2 337.5C230.1 350.6 222.7 358 220.7 360L232 371.3L237.7 365.6L429.7 173.6L435.4 167.9L424.1 156.6C422.2 158.5 414.7 166 401.6 179.1L383.2 160.8C341.4 119 274.7 117.1 230.7 155.3L229.7 154.3L173.7 98.3L171.4 96L72.1 96zM390.2 190.5L254.4 326.3L236.1 308C198.6 270.5 198.6 209.7 236.1 172.2C273.6 134.7 334.4 134.7 371.9 172.2L390.2 190.5zM480 272C480 263.2 472.8 256 464 256C455.2 256 448 263.2 448 272C448 280.8 455.2 288 464 288C472.8 288 480 280.8 480 272zM400 352C408.8 352 416 344.8 416 336C416 327.2 408.8 320 400 320C391.2 320 384 327.2 384 336C384 344.8 391.2 352 400 352zM352 400C352 391.2 344.8 384 336 384C327.2 384 320 391.2 320 400C320 408.8 327.2 416 336 416C344.8 416 352 408.8 352 400zM432 448C440.8 448 448 440.8 448 432C448 423.2 440.8 416 432 416C423.2 416 416 423.2 416 432C416 440.8 423.2 448 432 448zM368 512C376.8 512 384 504.8 384 496C384 487.2 376.8 480 368 480C359.2 480 352 487.2 352 496C352 504.8 359.2 512 368 512zM496 384C504.8 384 512 376.8 512 368C512 359.2 504.8 352 496 352C487.2 352 480 359.2 480 368C480 376.8 487.2 384 496 384zM576 304C576 295.2 568.8 288 560 288C551.2 288 544 295.2 544 304C544 312.8 551.2 320 560 320C568.8 320 576 312.8 576 304z"/></svg>