<svg xmlns="http://www.w3.org/2000/svg" viewBox="0 0 640 640"><!--! Font Awesome Pro 7.2.0 by @fontawesome - https://fontawesome.com License - https://fontawesome.com/license (Commercial License) Copyright 2026 Fonticons, Inc. --><path opacity=".4" fill="currentColor" d="M48 112L48 192L128 192L128 112L48 112zM48 208L48 312L192 312L192 328L48 328L48 432L134.5 432L213.1 400.6L214.5 400L424 400C483.5 400 552 366.7 589.9 320C552.1 273.3 483.5 240 424 240L214.5 240L213.1 239.4L134.5 208L48 208zM48 448L48 528L128 528L128 448L48 448zM144 112L144 194.6L217.5 224L374.2 224L187.5 112L143.9 112zM144 445.4L144 528L187.6 528L374.3 416L217.6 416L144.1 445.4zM464 280L480 280L480 360L464 360L464 280z"/><path fill="currentColor" d="M192 544L405.3 416L424 416C490.5 416 566.5 378 606.4 324.8L610 320L606.4 315.2C566.5 262 490.5 224 424 224L405.3 224L192 96L32 96L32 544L192 544zM48 448L128 448L128 528L48 528L48 448zM187.6 528L144 528L144 445.4L217.5 416L374.2 416L187.5 528zM48 432L48 328L192 328L192 312L48 312L48 208L134.5 208L213.1 239.4L214.5 240L424 240C483.5 240 552 273.3 589.9 320C552.1 366.7 483.5 400 424 400L214.5 400L213.1 400.6L134.5 432L48 432zM48 192L48 112L128 112L128 192L48 192zM217.5 224L144 194.6L144 112L187.6 112L374.3 224L217.6 224zM480 280L464 280L464 360L480 360L480 280z"/></svg>