<svg xmlns="http://www.w3.org/2000/svg" viewBox="0 0 640 640"><!--! Font Awesome Pro 7.2.0 by @fontawesome - https://fontawesome.com License - https://fontawesome.com/license (Commercial License) Copyright 2026 Fonticons, Inc. --><path opacity=".4" fill="currentColor" d="M288 144L288 496L560 496L560 144L288 144z"/><path fill="currentColor" d="M560 144L560 496L288 496L288 144L560 144zM80 144L272 144L272 496L80 496L80 144zM80 128L64 128L64 512L576 512L576 128L80 128zM136 208L128 208L128 224L224 224L224 208L136 208zM136 272L128 272L128 288L224 288L224 272L136 272zM136 336L128 336L128 352L224 352L224 336L136 336z"/></svg>