<svg xmlns="http://www.w3.org/2000/svg" viewBox="0 0 640 640"><!--! Font Awesome Pro 7.2.0 by @fontawesome - https://fontawesome.com License - https://fontawesome.com/license (Commercial License) Copyright 2026 Fonticons, Inc. --><path opacity=".4" fill="currentColor" d="M80 272L80 368L240 368L240 474.8L403.6 320L240 165.2L240 272L80 272z"/><path fill="currentColor" d="M224 384L224 512L240 496.9L415.2 331.1L426.8 320.1L415.2 309.1L240 143.3L224 128.2L224 256.2L64 256.2L64 384.2L224 384.2zM240 384L240 368L80 368L80 272L240 272L240 165.2L403.6 320L240 474.8L240 384zM392 528L384 528L384 544L568 544C572.4 544 576 540.4 576 536L576 104C576 99.6 572.4 96 568 96L384 96L384 112L560 112L560 528L392 528z"/></svg>