<svg xmlns="http://www.w3.org/2000/svg" viewBox="0 0 640 640"><!--! Font Awesome Pro 7.2.0 by @fontawesome - https://fontawesome.com License - https://fontawesome.com/license (Commercial License) Copyright 2026 Fonticons, Inc. --><path opacity=".4" fill="currentColor" d="M112 400L528 400L528 528L112 528L112 400zM152.9 384L190 112L450.1 112L487.2 384L238.3 384L256 224.9L256.1 224L240 224L222.2 384L152.9 384z"/><path fill="currentColor" d="M44.1 97.1L124.1 145.1L131 149.2L122.8 162.9L115.9 158.8L35.9 110.8L29 106.7L37.2 93L44.1 97.1zM604.1 110.8L524.1 158.8L517.2 162.9L509 149.2L515.9 145.1L595.9 97.1L602.8 93L611 106.7L604.1 110.8zM8 256L96 256L96 272L0 272L0 256L8 256zM552 256L640 256L640 272L544 272L544 256L552 256zM150.7 400L112 400L112 528L528 528L528 400L150.7 400zM503.3 384L544 384L544 544L96 544L96 384L136.7 384L176 96L464 96L503.3 384zM152.9 384L222.2 384L240 224L256.1 224L256 224.9L238.3 384L487.2 384L450.1 112L190 112L152.9 384zM215.6 520L223.2 520L223.1 520.8L215.6 520z"/></svg>