<svg xmlns="http://www.w3.org/2000/svg" viewBox="0 0 640 640"><!--! Font Awesome Pro 7.2.0 by @fontawesome - https://fontawesome.com License - https://fontawesome.com/license (Commercial License) Copyright 2026 Fonticons, Inc. --><path opacity=".4" fill="currentColor" d="M80 112L80 320C80 364.2 115.8 400 160 400L480 400C524.2 400 560 364.2 560 320L560 272L310.9 272L306.2 264.2L214.9 112L80 112z"/><path fill="currentColor" d="M40 96L32 96L32 112L64 112L64 320C64 361.8 90.7 397.4 128 410.5L128 512L32 512L32 528L576 528C611.3 528 640 499.3 640 464L640 448L624 448L624 464C624 490.5 602.5 512 576 512L480 512L480 416C533 416 576 373 576 320L576 176L608 176L608 160L560 160L560 256L320 256L224 96L40 96zM464 512L144 512L144 414.7C149.2 415.6 154.5 416 160 416L464 416L464 512zM480 400L160 400C115.8 400 80 364.2 80 320L80 112L214.9 112L306.2 264.2L310.9 272L560 272L560 320C560 364.2 524.2 400 480 400z"/></svg>