<svg xmlns="http://www.w3.org/2000/svg" viewBox="0 0 640 640"><!--! Font Awesome Pro 7.2.0 by @fontawesome - https://fontawesome.com License - https://fontawesome.com/license (Commercial License) Copyright 2026 Fonticons, Inc. --><path opacity=".4" fill="currentColor" d="M80 147.2L80 219.3L128.4 293.2C137.8 307.6 143 324.3 143.4 341.4C143.9 362 137.4 382.2 125 398.7L96 437.4L96 510.8L239.6 499.8C274 497.2 308.1 507.7 335 529.2L373.7 560.1L446.2 560.1L439.7 502C434.4 454.2 454.8 407.1 493.3 378.2L560.1 328.1L560.1 267.2L496.1 243.2C457.7 228.8 427.8 197.8 414.8 158.9L388.6 80.2L327.6 80.2L297.2 116.7C265.7 154.1 216.5 172 168.3 163.2L80 147.2z"/><path fill="currentColor" d="M115 301.8C122.8 313.7 127.1 327.5 127.4 341.6C127.8 358.6 122.5 375.3 112.2 389L80 432L80 528L96 526.8L240.8 515.7C271.1 513.4 301.2 522.6 325 541.6L368 576L464 576C463.6 572.6 460.8 547.3 455.6 500.1C450.9 457.9 468.9 416.3 502.9 390.8L576.1 335.9L576.1 255.9L501.7 228C467.8 215.3 441.4 187.9 430 153.6L400 64L320 64L284.8 106.2C257.1 139.4 213.7 155.2 171.1 147.4L80 130.9L64 128L64 224L115 301.8zM80 219.2L80 147.1L168.3 163.2C216.5 172 265.7 154.1 297.1 116.5L327.5 80L388.5 80L414.7 158.7C427.7 197.6 457.5 228.6 496 243L560 267L560 327.9L493.2 378C454.7 406.9 434.3 454 439.6 501.8L446.1 559.9L373.6 559.9L334.9 529C308 507.5 273.9 497 239.5 499.6L95.9 510.6L95.9 437.2L124.9 398.5C137.3 382 143.8 361.8 143.3 341.2C142.9 324 137.7 307.3 128.3 293L80 219.2z"/></svg>