<svg xmlns="http://www.w3.org/2000/svg" viewBox="0 0 640 640"><!--! Font Awesome Pro 7.2.0 by @fontawesome - https://fontawesome.com License - https://fontawesome.com/license (Commercial License) Copyright 2026 Fonticons, Inc. --><path opacity=".4" fill="currentColor" d="M112 112L528 112L528 528L112 528L112 112zM198.7 444.1L213.3 450.6L216.5 443.3L242.7 384.1L397.1 384.1L423.3 443.3L426.5 450.6L441.1 444.1L437.9 436.8L414.5 384L439.8 384L439.8 368L407.4 368L386.1 320L439.7 320L439.7 304L379 304L331.5 196.8L329.4 192L310 192L307.9 196.8L260.4 304L199.7 304L199.7 320L253.3 320L232 368L199.6 368L199.6 384L224.9 384L201.5 436.8L198.3 444.1zM249.9 368L271.2 320L369 320L390.3 368L250 368zM278.2 304L320 209.6L361.8 304L278.2 304z"/><path fill="currentColor" d="M112 112L112 528L528 528L528 112L112 112zM96 96L544 96L544 544L96 544L96 96zM310.3 192L329.7 192L331.8 196.8L379.3 304L440 304L440 320L386.4 320L407.7 368L440.1 368L440.1 384L414.8 384L438.2 436.8L441.4 444.1L426.8 450.6L423.6 443.3L397.4 384.1L243 384.1L216.8 443.3L213.6 450.6L199 444.1L202.2 436.8L225.6 384L200.3 384L200.3 368L232.7 368L254 320L200.4 320L200.4 304L261.1 304L308.6 196.8L310.7 192zM320 209.6L278.2 304L361.8 304L320 209.6zM249.9 368L390.2 368L368.9 320L271.1 320L249.8 368z"/></svg>