<svg xmlns="http://www.w3.org/2000/svg" viewBox="0 0 640 640"><!--! Font Awesome Pro 7.2.0 by @fontawesome - https://fontawesome.com License - https://fontawesome.com/license (Commercial License) Copyright 2026 Fonticons, Inc. --><path opacity=".4" fill="currentColor" d="M112 112L528 112L528 528L112 528L112 112zM208 280L208 296L240 296L240 440L256 440L256 384L320 384C370.3 384 411.6 345.3 415.7 296L448 296L448 280L415.7 280C411.6 230.7 370.4 192 320 192L240 192L240 280L208 280zM256 208L320 208C361.5 208 395.6 239.6 399.6 280L256 280L256 208zM256 296L399.6 296C395.6 336.4 361.5 368 320 368L256 368L256 296z"/><path fill="currentColor" d="M112 112L112 528L528 528L528 112L112 112zM96 96L544 96L544 544L96 544L96 96zM240 192L320 192C370.3 192 411.6 230.7 415.7 280L448 280L448 296L415.7 296C411.6 345.3 370.4 384 320 384L256 384L256 440L240 440L240 296L208 296L208 280L240 280L240 192zM320 208L256 208L256 280L399.6 280C395.6 239.6 361.5 208 320 208zM256 368L320 368C361.5 368 395.6 336.4 399.6 296L256 296L256 368z"/></svg>