<svg xmlns="http://www.w3.org/2000/svg" viewBox="0 0 640 640"><!--! Font Awesome Pro 7.2.0 by @fontawesome - https://fontawesome.com License - https://fontawesome.com/license (Commercial License) Copyright 2026 Fonticons, Inc. --><path opacity=".4" fill="currentColor" d="M112 112L528 112L528 528L112 528L112 112zM240 224L240 240L375.1 240L241.8 402.9L240 405.1L240 416L400 416L400 400L264.9 400L398.2 237.1L400 234.9L400 224L240 224z"/><path fill="currentColor" d="M112 112L112 528L528 528L528 112L112 112zM96 96L544 96L544 544L96 544L96 96zM392 224L400 224L400 234.9L398.2 237.1L264.9 400L400 400L400 416L240 416L240 405.1L241.8 402.9L375.1 240L240 240L240 224L392 224z"/></svg>