<svg xmlns="http://www.w3.org/2000/svg" viewBox="0 0 640 640"><!--! Font Awesome Pro 7.2.0 by @fontawesome - https://fontawesome.com License - https://fontawesome.com/license (Commercial License) Copyright 2026 Fonticons, Inc. --><path opacity=".4" fill="currentColor" d="M112 112L528 112L528 528L112 528L112 112zM240 224L240 416L320 416C373 416 416 373 416 320C416 267 373 224 320 224L240 224zM256 240L320 240C364.2 240 400 275.8 400 320C400 364.2 364.2 400 320 400L256 400L256 240z"/><path fill="currentColor" d="M112 112L112 528L528 528L528 112L112 112zM96 96L544 96L544 544L96 544L96 96zM248 224L320 224C373 224 416 267 416 320C416 373 373 416 320 416L240 416L240 224L248 224zM256 400L320 400C364.2 400 400 364.2 400 320C400 275.8 364.2 240 320 240L256 240L256 400z"/></svg>