<svg xmlns="http://www.w3.org/2000/svg" viewBox="0 0 640 640"><!--! Font Awesome Pro 7.2.0 by @fontawesome - https://fontawesome.com License - https://fontawesome.com/license (Commercial License) Copyright 2026 Fonticons, Inc. --><path opacity=".4" fill="currentColor" d="M112 112L112 528L528 528L528 112L112 112zM192 275.3C192 247 215 224 243.3 224L296 224L296 240L243.3 240C223.8 240 208 255.8 208 275.3C208 292.6 220.5 307.3 237.5 310.1L261.1 314C285.8 318.1 304 339.5 304 364.6C304 392.9 281 415.9 252.7 415.9L200 415.9L200 399.9L252.7 399.9C272.2 399.9 288 384.1 288 364.6C288 347.3 275.5 332.6 258.5 329.8L234.9 325.9C210.1 321.8 192 300.4 192 275.3zM336 275.3C336 247 359 224 387.3 224L392 224L392 192L408 192L408 224L440 224L440 240L387.3 240C367.8 240 352 255.8 352 275.3C352 292.6 364.5 307.3 381.5 310.1L405.1 314C429.8 318.1 448 339.5 448 364.6C448 389.1 430.9 409.5 408 414.7L408 448L392 448L392 416L344 416L344 400L396.7 400C416.2 400 432 384.2 432 364.7C432 347.4 419.5 332.7 402.5 329.9L378.9 326C354.2 321.9 336 300.5 336 275.4z"/><path fill="currentColor" d="M528 112L528 528L112 528L112 112L528 112zM112 96L96 96L96 544L544 544L544 96L112 96zM192 275.3C192 300.4 210.1 321.8 234.9 325.9L258.5 329.8C275.5 332.6 288 347.4 288 364.6C288 384.1 272.2 399.9 252.7 399.9L200 399.9L200 415.9L252.7 415.9C281 415.9 304 392.9 304 364.6C304 339.5 285.9 318.1 261.1 314L237.5 310.1C220.5 307.3 208 292.5 208 275.3C208 255.8 223.8 240 243.3 240L296 240L296 224L243.3 224C215 224 192 247 192 275.3zM387.3 224C359 224 336 247 336 275.3C336 300.4 354.1 321.8 378.9 325.9L402.5 329.8C419.5 332.6 432 347.4 432 364.6C432 384.1 416.2 399.9 396.7 399.9L344 399.9L344 415.9L392 415.9L392 447.9L408 447.9L408 414.6C430.9 409.5 448 389 448 364.5C448 339.4 429.9 318 405.1 313.9L381.5 310C364.5 307.2 352 292.4 352 275.2C352 255.7 367.8 239.9 387.3 239.9L440 239.9L440 223.9L408 223.9L408 191.9L392 191.9L392 223.9L387.3 223.9z"/></svg>