<svg xmlns="http://www.w3.org/2000/svg" viewBox="0 0 640 640"><!--! Font Awesome Pro 7.2.0 by @fontawesome - https://fontawesome.com License - https://fontawesome.com/license (Commercial License) Copyright 2026 Fonticons, Inc. --><path opacity=".4" fill="currentColor" d="M112 112L112 528L528 528L528 112L112 112zM192 272L320 272L320 208L344 208L444.7 308.7L456 320L344 432L320 432L320 368L192 368L192 272z"/><path fill="currentColor" d="M528 112L112 112L112 528L528 528L528 112zM544 96L544 544L96 544L96 96L544 96zM320 272L320 208L344 208L444.7 308.7L456 320L344 432L320 432L320 368L192 368L192 272L320 272zM336 272L336 288L208 288L208 352L336 352L336 416L337.4 416L433.4 320L337.4 224L336 224L336 272z"/></svg>