<svg xmlns="http://www.w3.org/2000/svg" viewBox="0 0 640 640"><!--! Font Awesome Pro 7.2.0 by @fontawesome - https://fontawesome.com License - https://fontawesome.com/license (Commercial License) Copyright 2026 Fonticons, Inc. --><path opacity=".4" fill="currentColor" d="M112 112L112 528L528 528L528 112L112 112zM228.7 240L240 228.7L245.7 234.4L400 388.7L400 272L416 272L416 416L272 416L272 400L388.7 400L234.4 245.7L228.7 240z"/><path fill="currentColor" d="M528 528L528 112L112 112L112 528L528 528zM544 544L96 544L96 96L544 96L544 544zM408 416L272 416L272 400L388.7 400L234.4 245.7L228.7 240L240 228.7L245.7 234.4L400 388.7L400 272L416 272L416 416L408 416z"/></svg>