<svg xmlns="http://www.w3.org/2000/svg" viewBox="0 0 640 640"><!--! Font Awesome Pro 7.2.0 by @fontawesome - https://fontawesome.com License - https://fontawesome.com/license (Commercial License) Copyright 2026 Fonticons, Inc. --><path opacity=".4" fill="currentColor" d="M60 235.5L187.5 363.2L159.4 541.4L312.2 463.7L312.2 62.2L238.2 207.2L60 235.5z"/><path fill="currentColor" d="M470 368.7L613.9 224.6L412.8 192.6L320.2 11.2L227.6 192.6L26.5 224.6L170.4 368.7L138.7 569.9L320.2 477.6L501.7 569.9L470 368.7zM328.2 62.1L402.2 207.1L580.4 235.4L452.9 363.1L481 541.3L328.2 463.6L328.2 62.1zM312.2 62.1L312.2 463.6L159.4 541.3L187.5 363.1L60 235.4L238.2 207.1L312.2 62.1z"/></svg>