<svg xmlns="http://www.w3.org/2000/svg" viewBox="0 0 640 640"><!--! Font Awesome Pro 7.2.0 by @fontawesome - https://fontawesome.com License - https://fontawesome.com/license (Commercial License) Copyright 2026 Fonticons, Inc. --><path opacity=".4" fill="currentColor" d="M81.1 259.9L220.4 368.2L229.2 375L225.8 385.6L170.9 558.1L310.6 449.5L312.4 448.1L312.4 102.8L266 248.8L262.5 259.9L81.2 259.9z"/><path fill="currentColor" d="M374.9 248.7L378.4 259.8L559.7 259.8L420.4 368.1L411.6 374.9L415 385.5L469.9 558L330.2 449.4L328.4 448L328.4 102.7L374.8 248.7zM312.5 102.7L312.5 448L310.7 449.4L171 558L225.9 385.5L229.3 374.9L220.5 368.1L81.2 259.8L262.5 259.8L266 248.7L312.4 102.7zM606.4 243.9L390.1 243.9L328.8 51.3L320.4 24.9L312 51.3L250.7 243.9L34.4 243.9L55 259.9L210.5 380.8L148.6 575.5L140 602.4L162.3 585L320.4 462L478.5 585L500.8 602.4L492.2 575.5L430.3 380.8L585.8 259.9L606.4 243.9z"/></svg>