<svg xmlns="http://www.w3.org/2000/svg" viewBox="0 0 640 640"><!--! Font Awesome Pro 7.2.0 by @fontawesome - https://fontawesome.com License - https://fontawesome.com/license (Commercial License) Copyright 2026 Fonticons, Inc. --><path opacity=".4" fill="currentColor" d="M240 288L240 352L272.1 352L273.7 366.2L286.3 480L353.7 480L366.3 366.2L367.9 352L400 352L400 288C400 261.5 378.5 240 352 240L288 240C261.5 240 240 261.5 240 288zM272 128C272 154.5 293.5 176 320 176C346.5 176 368 154.5 368 128C368 101.5 346.5 80 320 80C293.5 80 272 101.5 272 128z"/><path fill="currentColor" d="M400 368L416 368L416 288C416 252.7 387.3 224 352 224L288 224C252.7 224 224 252.7 224 288L224 368L257.8 368L272 496L368 496L382.2 368L400 368zM366.3 366.2L353.7 480L286.3 480L273.7 366.2L272.1 352L240 352L240 288C240 261.5 261.5 240 288 240L352 240C378.5 240 400 261.5 400 288L400 352L367.9 352L366.3 366.2zM272 128C272 101.5 293.5 80 320 80C346.5 80 368 101.5 368 128C368 154.5 346.5 176 320 176C293.5 176 272 154.5 272 128zM320 192C355.3 192 384 163.3 384 128C384 92.7 355.3 64 320 64C284.7 64 256 92.7 256 128C256 163.3 284.7 192 320 192zM80 489.5C80 480.4 87.5 469.6 106.5 458.7C124.9 448.1 151.8 438.8 184.9 431.8L181.6 416.1C147.7 423.2 119 433 98.5 444.8C78.6 456.3 64 471.2 64 489.5C64 504 73.3 516.4 86.7 526.5C100.2 536.6 119.3 545.4 142.2 552.7C188.1 567.2 250.9 576.1 320 576.1C389.1 576.1 451.9 567.2 497.8 552.7C520.7 545.5 539.8 536.7 553.3 526.5C566.7 516.5 576 504.1 576 489.5C576 471.2 561.4 456.3 541.5 444.8C521.1 433 492.4 423.3 458.4 416.1L455.1 431.8C488.2 438.7 515.1 448 533.5 458.7C552.4 469.6 560 480.4 560 489.5C560 496.7 555.4 504.9 543.7 513.7C532.1 522.3 514.9 530.5 492.9 537.4C449 551.3 387.9 560 320 560C252.1 560 191 551.3 147.1 537.4C125.1 530.4 107.9 522.3 96.3 513.7C84.6 504.9 80 496.7 80 489.5z"/></svg>