<svg xmlns="http://www.w3.org/2000/svg" viewBox="0 0 640 640"><!--! Font Awesome Pro 7.2.0 by @fontawesome - https://fontawesome.com License - https://fontawesome.com/license (Commercial License) Copyright 2026 Fonticons, Inc. --><path opacity=".4" fill="currentColor" d="M33.1 132L76.3 64.7L110 86.3L296.1 205.8L300.1 208.3L304.8 208.3L552.3 208L592.3 207.9L592.5 287.9L552.5 288L288.5 288.4L276.7 288.4L266.8 282.1L66.8 153.7L33.1 132.1z"/><path fill="currentColor" d="M608.4 352L608.4 368L429.7 368L333.9 438.1L404.2 489.6C412.1 483.9 421.8 480.4 432.4 480.4C458.9 480.4 480.4 501.9 480.4 528.4C480.4 554.9 458.9 576.4 432.4 576.4C405.9 576.4 384.4 554.9 384.4 528.4C384.4 518.3 387.5 508.8 392.9 501.1L320.4 448L247.8 501.1C253.2 508.8 256.4 518.2 256.4 528.4C256.4 554.9 234.9 576.4 208.4 576.4C181.9 576.4 160.4 554.9 160.4 528.4C160.4 501.9 181.9 480.4 208.4 480.4C218.9 480.4 228.6 483.8 236.5 489.6L236.5 489.6L306.8 438.1L211.1 368L32.4 368L32.4 352L608.4 352zM208.4 496.4C190.7 496.4 176.4 510.7 176.4 528.4C176.4 546.1 190.7 560.4 208.4 560.4C226.1 560.4 240.4 546.1 240.4 528.4C240.4 510.7 226.1 496.4 208.4 496.4zM432.4 496.4C414.7 496.4 400.4 510.7 400.4 528.4C400.4 546.1 414.7 560.4 432.4 560.4C450.1 560.4 464.4 546.1 464.4 528.4C464.4 510.7 450.1 496.4 432.4 496.4zM320.4 428.2L402.6 368.1L238.3 368.1L320.4 428.2zM118.6 72.9L304.7 192.4L552.2 192.1L608.2 192L608.4 304L552.4 304.1L288.4 304.5L271.9 304.5L258 295.6C99.3 193.6 16.9 140.7 11 136.9L71.5 42.6L118.6 72.9zM33.1 132L66.8 153.6L266.8 282L276.7 288.3L288.5 288.3L552.5 287.9L592.5 287.8L592.3 207.8L552.3 207.9L304.8 208.2L300.1 208.2L296.1 205.7L110 86.2L76.3 64.6L33.1 131.9z"/></svg>