<svg xmlns="http://www.w3.org/2000/svg" viewBox="0 0 640 640"><!--! Font Awesome Pro 7.2.0 by @fontawesome - https://fontawesome.com License - https://fontawesome.com/license (Commercial License) Copyright 2026 Fonticons, Inc. --><path opacity=".4" fill="currentColor" d=""/><path fill="currentColor" d="M160 207.5C160 145.9 209.9 96 271.5 96L464 96L464 112L271.5 112C218.7 112 176 154.8 176 207.5C176 254.5 210.2 294.5 256.6 301.9L371.3 320L576 320L576 336L64 336L64 320L268.7 320L254.1 317.7C199.9 309.1 160 262.4 160 207.5zM450.8 384L468.9 384C476 398.7 480 415.2 480 432.5C480 494.1 430.1 544 368.5 544L176 544L176 528L368.5 528C421.3 528 464 485.2 464 432.5C464 414.9 459.2 398.3 450.8 384z"/></svg>