<svg xmlns="http://www.w3.org/2000/svg" viewBox="0 0 640 640"><!--! Font Awesome Pro 7.2.0 by @fontawesome - https://fontawesome.com License - https://fontawesome.com/license (Commercial License) Copyright 2026 Fonticons, Inc. --><path opacity=".4" fill="currentColor" d="M27 48.3L48.3 27.1L387.3 336L283.6 336L27 48.3zM357.9 223.8L358.6 223.2L367.4 231.2L583.7 35L604.9 56.2L410.5 270.5L418.2 277.6L417.5 278.3L357.7 223.7z"/><path fill="currentColor" d="M47.7 4.9L42.3 10.3L10.3 42.3L5 47.6L10 53.2L264 338L264 359.9L544 639.9L640 543.9L432 335.9L411.1 335.9L53.4 10L47.8 4.9zM27 48.3L48.3 27.1L387.3 336L283.6 336L27 48.3zM617.4 544L586.4 575L475.4 464L506.4 433L617.4 544zM575 586.3L544 617.3L433 506.3L464 475.3L575 586.3zM495 421.7L421.6 495.1L278.6 352.1L425.3 352.1L495 421.8zM10.3 538.3L4.6 544L10.3 549.7L90.3 629.7L96 635.4L101.7 629.7L283.8 447.6L272.5 436.3L264.1 444.7L195.4 376L215.6 355.8L204.9 343.8L10.4 538.3zM621.9 61.4L627 55.8L621.6 50.4L589.6 18.4L584.2 13L578.6 18.1L355.5 220.5L367.4 231.3L583.7 35.1L604.9 56.3L410.5 270.6L422.3 281.4L621.8 61.4zM147.3 424L184 387.3L252.7 456L216 492.7L147.3 424zM136 435.3L204.7 504L96 612.7L27.3 544L136 435.3z"/></svg>