<svg xmlns="http://www.w3.org/2000/svg" viewBox="0 0 640 640"><!--! Font Awesome Pro 7.2.0 by @fontawesome - https://fontawesome.com License - https://fontawesome.com/license (Commercial License) Copyright 2026 Fonticons, Inc. --><path opacity=".4" fill="currentColor" d="M16 339.8C16 317.5 21.2 295.4 31.2 275.5L36 265.9L83.1 360L144 360L144 328C144 261.7 197.7 208 264 208L307 208L309.2 206.1L365.2 158.1L368 155.7L368 144C368 108.7 396.7 80 432 80L500.7 80L538.4 117.7L540.7 120L568 120C598.9 120 624 145.1 624 176L624 240L547.3 240L517.6 210.3L515.3 208L472 208L472 224L508.7 224L538.4 253.7L540.7 256L580.7 256L564.7 272L468.9 272L466.6 274.1L404.2 331.9C406.7 337 408.8 342.4 410.5 347.9C401.5 356.3 392.4 364.7 383.4 373C378 329.6 341 296 296.1 296L288.1 296L288.1 312L296.1 312C335.2 312 367.1 343.2 368.1 382.2L337 444.5L335.6 447.3L336.5 450.3L352.5 506.3L354.2 512.1L368.2 512.1C385.9 512.1 400.2 526.4 400.2 544.1L400.2 560.1L299.7 560.1L224.2 477L224.2 416.1L208.2 416.1L208.2 472.1L148.4 472.1C75.2 472 16 412.8 16 339.8zM480 144C480 152.8 487.2 160 496 160C504.8 160 512 152.8 512 144C512 135.2 504.8 128 496 128C487.2 128 480 135.2 480 144z"/><path fill="currentColor" d="M352 144C352 99.8 387.8 64 432 64L507.3 64L509.6 66.3L547.3 104L568 104C607.8 104 640 136.2 640 176L640 256L603.3 256L573.6 285.7L571.3 288L475.1 288L423.6 335.7L468 361L472 363.3L472 407.9L456 407.9L456 372.5L411.3 347L410.5 347.8C408.8 342.3 406.6 337 404.2 331.8L466.6 274L468.9 271.9L564.7 271.9L580.7 255.9L540.7 255.9L538.4 253.6L508.7 223.9L472 223.9L472 207.9L515.3 207.9L517.6 210.2L547.3 239.9L624 239.9L624 175.9C624 145 598.9 119.9 568 119.9L540.7 119.9L538.4 117.6L500.7 79.9L432 79.9C396.7 79.9 368 108.6 368 143.9L368 155.6L365.2 158L309.2 206L307 207.9L264 207.9C197.7 207.9 144 261.6 144 327.9L144 359.9L83.1 359.9L36 265.8L31.2 275.4C21.2 295.4 16 317.4 16 339.7C16 412.7 75.2 471.9 148.2 471.9L208 471.9L208 415.9L224 415.9L224 476.8L299.5 559.9L400 559.9L400 543.9C400 526.2 385.7 511.9 368 511.9L354 511.9L352.3 506.1L336.3 450.1L335.4 447.1L336.8 444.3L367.9 382C366.9 343.1 335.1 311.8 295.9 311.8L287.9 311.8L287.9 295.8L295.9 295.8C344.5 295.8 383.9 335.2 383.9 383.8L383.9 385.7L383.1 387.4L352.5 448.6L366 495.8L368 495.8C394.5 495.8 416 517.3 416 543.8L416 575.8L292.5 575.8L290.1 573.2L212.5 487.8L148.2 487.8C66.3 488 0 421.7 0 339.8C0 315 5.8 290.6 16.9 268.4C23.1 255.8 26.5 249 27.1 248L45 248L47.2 252.4L93 344L128.1 344L128.1 328C128.1 252.9 189 192 264.1 192L301.1 192L352.1 148.3L352.1 144zM496 128C504.8 128 512 135.2 512 144C512 152.8 504.8 160 496 160C487.2 160 480 152.8 480 144C480 135.2 487.2 128 496 128z"/></svg>