<svg xmlns="http://www.w3.org/2000/svg" viewBox="0 0 640 640"><!--! Font Awesome Pro 7.2.0 by @fontawesome - https://fontawesome.com License - https://fontawesome.com/license (Commercial License) Copyright 2026 Fonticons, Inc. --><path opacity=".4" fill="currentColor" d="M112 176L112 240L528 240L528 176C528 140.7 499.3 112 464 112L176 112C140.7 112 112 140.7 112 176z"/><path fill="currentColor" d="M464 96C508.2 96 544 131.8 544 176L544 256L328 256L328 528L440 528L440 544L200 544L200 528L312 528L312 256L96 256L96 176C96 134.6 127.5 100.5 167.8 96.4L176 96L464 96zM176 112C140.7 112 112 140.7 112 176L112 240L528 240L528 176C528 140.7 499.3 112 464 112L176 112z"/></svg>