<svg xmlns="http://www.w3.org/2000/svg" viewBox="0 0 640 640"><!--! Font Awesome Pro 7.2.0 by @fontawesome - https://fontawesome.com License - https://fontawesome.com/license (Commercial License) Copyright 2026 Fonticons, Inc. --><path opacity=".4" fill="currentColor" d="M96 432C96 502.7 153.3 560 224 560C294.7 560 352 502.7 352 432C352 392.9 334.5 357.9 306.8 334.4L304 332L304 80L144 80L144 332L141.2 334.4C113.5 357.9 96 392.9 96 432zM160 432C160 399.4 184.4 372.4 216 368.5L216 224L232 224L232 368.5C263.6 372.4 288 399.4 288 432C288 467.3 259.3 496 224 496C188.7 496 160 467.3 160 432z"/><path fill="currentColor" d="M136 64L128 64L128 324.7C98.6 351 80 389.4 80 432C80 511.5 144.5 576 224 576C303.5 576 368 511.5 368 432C368 389.4 349.4 351 320 324.7L320 64L136 64zM144 160L144 80L304 80L304 332L306.8 334.4C334.5 357.9 352 392.9 352 432C352 502.7 294.7 560 224 560C153.3 560 96 502.7 96 432C96 392.9 113.5 357.9 141.2 334.4L144 332L144 160zM176 432C176 405.5 197.5 384 224 384C250.5 384 272 405.5 272 432C272 458.5 250.5 480 224 480C197.5 480 176 458.5 176 432zM288 432C288 399.4 263.6 372.4 232 368.5L232 224L216 224L216 368.5C184.4 372.4 160 399.4 160 432C160 467.3 188.7 496 224 496C259.3 496 288 467.3 288 432zM392 96L384 96L384 112L544 112L544 96L392 96zM392 224L384 224L384 240L544 240L544 224L392 224zM424 352L416 352L416 368L544 368L544 352L424 352z"/></svg>