<svg xmlns="http://www.w3.org/2000/svg" viewBox="0 0 640 640"><!--! Font Awesome Pro 7.2.0 by @fontawesome - https://fontawesome.com License - https://fontawesome.com/license (Commercial License) Copyright 2026 Fonticons, Inc. --><path opacity=".4" fill="currentColor" d="M114.5 560L312.3 560L312.3 247.5L140.9 351L114.4 560zM328.3 247.5L328.3 349.9L445 560L526.1 560L499.6 351L328.2 247.5z"/><path fill="currentColor" d="M574 154.3L579.7 160L574 165.7L502 237.7L496.3 243.4L485 232.1L490.7 226.4L549 168.1L256.3 168.1L256.3 168.1L91.6 168.1L155.6 232.1L144.3 243.4L138.6 237.7L66.6 165.7L60.9 160L66.6 154.3L138.6 82.3L144.3 76.6L155.6 87.9L149.9 93.6L91.6 151.9L192.3 151.9L192.3 151.9L549 151.9L490.7 93.6L485 87.9L496.3 76.6L502 82.3L574 154.3zM112.4 576L96.3 576L98.3 560L126 341.3L320.3 224L514.6 341.3L542.3 560L544.3 576L112.4 576zM426.7 560L328.3 382.9L328.3 560L426.7 560zM312.3 247.5L140.9 351L114.4 560L312.2 560L312.2 247.5zM499.7 351L328.3 247.5L328.3 349.9L445 560L526.1 560L499.6 351z"/></svg>