<svg xmlns="http://www.w3.org/2000/svg" viewBox="0 0 640 640"><!--! Font Awesome Pro 7.2.0 by @fontawesome - https://fontawesome.com License - https://fontawesome.com/license (Commercial License) Copyright 2026 Fonticons, Inc. --><path opacity=".4" fill="currentColor" d="M177.9 560L204.8 318.9L376.1 215.5L376.1 560L178 560zM392 215.5L563.3 318.9L590.2 560L508.4 560L392.1 381.6L392.1 215.5z"/><path fill="currentColor" d="M128 259.3L133.7 253.6L205.7 181.6L211.4 175.9L200.1 164.6L194.4 170.3L136.1 228.6L136.1 63.9L120.1 63.9L120.1 228.6L61.8 170.3L56.1 164.6L44.8 175.9L50.5 181.6L122.5 253.6L128.2 259.3zM576 576L608 576L606.2 560L578.3 309.3L384 192L189.7 309.3L161.8 560L32 560L32 576L576 576zM392 560L392 410.9L489.2 560L392 560zM376 560L177.9 560L204.7 318.9L376 215.5L376 560zM392 215.5L563.3 318.9L590.2 560L508.4 560L392.1 381.6L392.1 215.5z"/></svg>