<svg xmlns="http://www.w3.org/2000/svg" viewBox="0 0 640 640"><!--! Font Awesome Pro 7.2.0 by @fontawesome - https://fontawesome.com License - https://fontawesome.com/license (Commercial License) Copyright 2026 Fonticons, Inc. --><path opacity=".4" fill="currentColor" d=""/><path fill="currentColor" d="M104.3 64L96.3 64L96.3 192L112.3 192L112.3 80L312.3 80L312.3 336L224.3 336L224.3 352L416.3 352L416.3 336L328.3 336L328.3 80L528.3 80L528.3 192L544.3 192L544.3 64L104.3 64zM198 429.7L203.7 424L192.4 412.7L186.7 418.4L98.7 506.4L93 512.1L98.7 517.8L186.7 605.8L192.4 611.5L203.7 600.2L198 594.5L123.7 520.2L517.1 520.2L442.8 594.5L437.1 600.2L448.4 611.5L547.7 512.2L448.4 412.9L437.1 424.2L442.8 429.9L517.1 504.2L123.7 504.2L198 429.9z"/></svg>