<svg xmlns="http://www.w3.org/2000/svg" viewBox="0 0 640 640"><!--! Font Awesome Pro 7.2.0 by @fontawesome - https://fontawesome.com License - https://fontawesome.com/license (Commercial License) Copyright 2026 Fonticons, Inc. --><path opacity=".4" fill="currentColor" d="M48 144L592 144L592 258C564.4 265.1 544 290.2 544 320C544 349.8 564.4 374.9 592 382L592 496L48 496L48 144zM85.8 248L88.3 257.9L103.8 320L85.8 392L132 392L134.4 388.8L156 360L194.2 360L168.4 437.5L164.9 448L236.6 448L238.9 444L287.9 360L352 360C374.1 360 392 342.1 392 320C392 297.9 374.1 280 352 280L287.9 280L238.9 196L236.6 192L164.9 192L168.4 202.5L194.2 280L156 280L134.4 251.2L132 248L85.8 248zM432 224C432 232.8 439.2 240 448 240C456.8 240 464 232.8 464 224C464 215.2 456.8 208 448 208C439.2 208 432 215.2 432 224zM432 320C432 328.8 439.2 336 448 336C456.8 336 464 328.8 464 320C464 311.2 456.8 304 448 304C439.2 304 432 311.2 432 320zM432 416C432 424.8 439.2 432 448 432C456.8 432 464 424.8 464 416C464 407.2 456.8 400 448 400C439.2 400 432 407.2 432 416z"/><path fill="currentColor" d="M32 128L608 128L608 271.5L601.1 272.5C577.9 275.8 560 295.8 560 320C560 344.2 577.9 364.2 601.1 367.5L608 368.5L608 512L32 512L32 128zM48 144L48 496L592 496L592 382C564.4 374.9 544 349.8 544 320C544 290.2 564.4 265.1 592 258L592 144L48 144zM432 224C432 215.2 439.2 208 448 208C456.8 208 464 215.2 464 224C464 232.8 456.8 240 448 240C439.2 240 432 232.8 432 224zM432 320C432 311.2 439.2 304 448 304C456.8 304 464 311.2 464 320C464 328.8 456.8 336 448 336C439.2 336 432 328.8 432 320zM448 400C456.8 400 464 407.2 464 416C464 424.8 456.8 432 448 432C439.2 432 432 424.8 432 416C432 407.2 439.2 400 448 400zM176 192L236.6 192L238.9 196L287.9 280L352 280C374.1 280 392 297.9 392 320C392 342.1 374.1 360 352 360L287.9 360L238.9 444L236.6 448L164.9 448L168.4 437.5L194.2 360L156 360L134.4 388.8L132 392L85.8 392L103.8 320L88.3 257.9L85.8 248L132 248L134.4 251.2L156 280L194.2 280L168.4 202.5L164.9 192L176 192zM212.9 285.5L216.4 296L148 296L145.6 292.8L124 264L106.2 264L119.7 318.1L120.2 320L106.2 376L124 376L145.6 347.2L148 344L216.4 344L212.9 354.5L187.1 432L227.4 432L276.4 348L278.7 344L352 344C365.3 344 376 333.3 376 320C376 306.7 365.3 296 352 296L278.7 296L276.4 292L227.4 208L187.1 208L212.9 285.5z"/></svg>