<svg xmlns="http://www.w3.org/2000/svg" viewBox="0 0 640 640"><!--! Font Awesome Pro 7.2.0 by @fontawesome - https://fontawesome.com License - https://fontawesome.com/license (Commercial License) Copyright 2026 Fonticons, Inc. --><path opacity=".4" fill="currentColor" d="M80 368C80 320 96.6 280.1 124.9 249.4C134.6 239.4 145.4 230.1 157.1 221.6C177 207.8 200.1 197 225.6 189.3C200.6 204.8 184 232.5 184 264.1L184 288.1L240 288.1C275.5 288.1 306.1 267.1 320 236.8C333.9 267.1 364.5 288.1 400 288.1L456 288.1L456 264.1C456 232.5 439.4 204.9 414.4 189.3C443.6 198.1 469.6 211 491.2 227.7C533.8 260.5 559.9 307.9 559.9 368.1C559.9 428.3 533.7 475.7 491.2 508.5C448.3 541.4 388 560 320 560C252 560 191.7 541.4 148.7 508.4C106.1 475.6 80 428.2 80 368z"/><path fill="currentColor" d="M328 56C328 51.6 324.4 48 320 48C315.6 48 312 51.6 312 56L312 117.4C296.1 94.8 269.8 80 240 80L184 80L184 104C184 132.8 197.8 158.4 219.2 174.4C127.9 202.5 64 270.2 64 368C64 498.9 178.6 576 320 576C461.4 576 576 498.9 576 368C576 270.2 512.1 202.5 420.8 174.4C442.2 158.3 456 132.8 456 104L456 80L400 80C370.2 80 343.9 94.8 328 117.4L328 56zM312 168L312 176L272 176C232.2 176 200 143.8 200 104L200 96L240 96C279.8 96 312 128.2 312 168zM272 192L312 192L312 200C312 239.8 279.8 272 240 272L200 272L200 264C200 224.2 232.2 192 272 192zM328 200L328 192L368 192C407.8 192 440 224.2 440 264L440 272L400 272C360.2 272 328 239.8 328 200zM368 176L328 176L328 168C328 128.2 360.2 96 400 96L440 96L440 104C440 143.8 407.8 176 368 176zM414.4 189.2C443.6 198 469.6 210.9 491.2 227.6C533.8 260.4 559.9 307.8 559.9 368C559.9 428.2 533.7 475.6 491.2 508.4C448.3 541.4 388 560 320 560C252 560 191.7 541.4 148.7 508.4C106.1 475.6 80 428.2 80 368C80 307.8 106.1 260.4 148.7 227.6C170.3 211 196.3 198 225.5 189.2C200.5 204.7 183.9 232.4 183.9 264L183.9 288L239.9 288C275.4 288 306 267 319.9 236.7C333.8 267 364.4 288 399.9 288L455.9 288L455.9 264C455.9 232.4 439.3 204.8 414.3 189.2z"/></svg>