<svg xmlns="http://www.w3.org/2000/svg" viewBox="0 0 640 640"><!--! Font Awesome Pro 7.2.0 by @fontawesome - https://fontawesome.com License - https://fontawesome.com/license (Commercial License) Copyright 2026 Fonticons, Inc. --><path opacity=".4" fill="currentColor" d="M176 48L176 592L464 592L464 48L176 48zM376 176C376 206.9 350.9 232 320 232C289.1 232 264 206.9 264 176C264 145.1 289.1 120 320 120C350.9 120 376 145.1 376 176zM376 320C376 350.9 350.9 376 320 376C289.1 376 264 350.9 264 320C264 289.1 289.1 264 320 264C350.9 264 376 289.1 376 320zM264 464C264 433.1 289.1 408 320 408C350.9 408 376 433.1 376 464C376 494.9 350.9 520 320 520C289.1 520 264 494.9 264 464z"/><path fill="currentColor" d="M464 48L464 592L176 592L176 48L464 48zM176 32L160 32L160 608L480 608L480 32L176 32zM320 424C342.1 424 360 441.9 360 464C360 486.1 342.1 504 320 504C297.9 504 280 486.1 280 464C280 441.9 297.9 424 320 424zM320 408C289.1 408 264 433.1 264 464C264 494.9 289.1 520 320 520C350.9 520 376 494.9 376 464C376 433.1 350.9 408 320 408zM360 320C360 342.1 342.1 360 320 360C297.9 360 280 342.1 280 320C280 297.9 297.9 280 320 280C342.1 280 360 297.9 360 320zM264 320C264 350.9 289.1 376 320 376C350.9 376 376 350.9 376 320C376 289.1 350.9 264 320 264C289.1 264 264 289.1 264 320zM320 216C297.9 216 280 198.1 280 176C280 153.9 297.9 136 320 136C342.1 136 360 153.9 360 176C360 198.1 342.1 216 320 216zM320 120C289.1 120 264 145.1 264 176C264 206.9 289.1 232 320 232C350.9 232 376 206.9 376 176C376 145.1 350.9 120 320 120zM320 448C311.2 448 304 455.2 304 464C304 472.8 311.2 480 320 480C328.8 480 336 472.8 336 464C336 455.2 328.8 448 320 448z"/></svg>