<svg xmlns="http://www.w3.org/2000/svg" viewBox="0 0 640 640"><!--! Font Awesome Pro 7.2.0 by @fontawesome - https://fontawesome.com License - https://fontawesome.com/license (Commercial License) Copyright 2026 Fonticons, Inc. --><path opacity=".4" fill="currentColor" d="M144 192L144 560L496 560L496 192L144 192zM227.8 128L412.2 128L386.6 64L253.4 64L227.8 128zM236.7 336L242.4 330.3L314.4 258.3L320.1 252.6L325.8 258.3L397.8 330.3L403.5 336L392.2 347.3L386.5 341.6L328.2 283.3L328.2 448L312.2 448L312.2 283.3L253.9 341.6L248.2 347.3L236.9 336z"/><path fill="currentColor" d="M248 48L242.6 48L210.6 128L96 128L96 144L544 144L544 128L429.4 128L399.4 53L397.4 48L248 48zM412.2 128L227.8 128L253.4 64L386.6 64L412.2 128zM128 192L128 576L512 576L512 192L496 192L496 560L144 560L144 192L128 192zM325.7 258.3L320 252.6L314.3 258.3L242.3 330.3L236.6 336L247.9 347.3L253.6 341.6L311.9 283.3L311.9 448L327.9 448L327.9 283.3L386.2 341.6L391.9 347.3L403.2 336L397.5 330.3L325.5 258.3z"/></svg>