<svg xmlns="http://www.w3.org/2000/svg" viewBox="0 0 640 640"><!--! Font Awesome Pro 7.2.0 by @fontawesome - https://fontawesome.com License - https://fontawesome.com/license (Commercial License) Copyright 2026 Fonticons, Inc. --><path opacity=".4" fill="currentColor" d="M89.6 560L551 560L426.2 413.2L415 400L515.5 400L402.2 269.2L390.8 256L478.1 256L320.3 83.8L162.5 256L249.8 256L238.3 269.2L125.1 400L225.6 400L214.4 413.2L89.6 560zM288.3 336C288.3 344.8 281.1 352 272.3 352C263.5 352 256.3 344.8 256.3 336C256.3 327.2 263.5 320 272.3 320C281.1 320 288.3 327.2 288.3 336zM352.3 208C352.3 216.8 345.1 224 336.3 224C327.5 224 320.3 216.8 320.3 208C320.3 199.2 327.5 192 336.3 192C345.1 192 352.3 199.2 352.3 208zM384.3 464C384.3 472.8 377.1 480 368.3 480C359.5 480 352.3 472.8 352.3 464C352.3 455.2 359.5 448 368.3 448C377.1 448 384.3 455.2 384.3 464z"/><path fill="currentColor" d="M326.2 66.6L502.2 258.6L514.5 272L425.8 272L539 402.7L550.4 416L449.5 416L574.3 562.8L585.5 576L54.9 576L66.1 562.8L190.9 416L90 416L101.4 402.7L214.6 272L125.9 272L138.2 258.6L314.2 66.6L320.1 60.2L326 66.6zM162.5 256L249.8 256L238.3 269.2L125.1 400L225.6 400L214.4 413.2L89.6 560L551 560L426.2 413.2L415 400L515.5 400L402.2 269.2L390.8 256L478.1 256L320.3 83.8L162.5 256zM368.3 480C359.5 480 352.3 472.8 352.3 464C352.3 455.2 359.5 448 368.3 448C377.1 448 384.3 455.2 384.3 464C384.3 472.8 377.1 480 368.3 480zM272.3 352C263.5 352 256.3 344.8 256.3 336C256.3 327.2 263.5 320 272.3 320C281.1 320 288.3 327.2 288.3 336C288.3 344.8 281.1 352 272.3 352zM336.3 224C327.5 224 320.3 216.8 320.3 208C320.3 199.2 327.5 192 336.3 192C345.1 192 352.3 199.2 352.3 208C352.3 216.8 345.1 224 336.3 224z"/></svg>