<svg xmlns="http://www.w3.org/2000/svg" viewBox="0 0 640 640"><!--! Font Awesome Pro 7.2.0 by @fontawesome - https://fontawesome.com License - https://fontawesome.com/license (Commercial License) Copyright 2026 Fonticons, Inc. --><path opacity=".4" fill="currentColor" d="M16 208L32 208L32 336L16 336L16 208zM48 112L400 112L400 432L236.7 432C226.3 395.1 192.3 368 152 368C111.7 368 77.8 395.1 67.3 432L48 432L48 112zM120 200L120 272C120 294.1 137.9 312 160 312C182.1 312 200 294.1 200 272L200 200L184 200L184 272C184 285.3 173.3 296 160 296C146.7 296 136 285.3 136 272L136 200L120 200zM248 200L248 312L264 312L264 225.9L304.8 307.6L307 312L327.9 312L327.9 200L311.9 200L311.9 286.1L271.1 204.4L268.9 200L248 200zM416 288L592 288L592 432L572.7 432C562.3 395.1 528.3 368 488 368C458.2 368 431.9 382.8 416 405.4L416 288z"/><path fill="currentColor" d="M48 112L48 432L67.3 432C77.7 395.1 111.7 368 152 368C192.3 368 226.2 395.1 236.7 432L400 432L400 112L48 112zM32 432L32 352L0 352L0 192L32 192L32 96L416 96L416 160L485.2 160L487.3 164.8L534.2 272L608 272L608 448L575.6 448C575.8 450.6 576 453.3 576 456C576 504.6 536.6 544 488 544C439.4 544 400 504.6 400 456C400 453.3 400.1 450.6 400.4 448L239.7 448C239.9 450.6 240.1 453.3 240.1 456C240.1 504.6 200.7 544 152.1 544C103.5 544 64.1 504.6 64.1 456C64.1 453.3 64.2 450.6 64.5 448L32.1 448L32.1 432zM32 208L16 208L16 336L32 336L32 208zM416 405.4C431.9 382.8 458.2 368 488 368C528.3 368 562.2 395.1 572.7 432L592 432L592 288L416 288L416 405.4zM416 272L516.8 272L474.8 176L416 176L416 272zM152 528C191.8 528 224 495.8 224 456C224 416.2 191.8 384 152 384C112.2 384 80 416.2 80 456C80 495.8 112.2 528 152 528zM560 456C560 416.2 527.8 384 488 384C448.2 384 416 416.2 416 456C416 495.8 448.2 528 488 528C527.8 528 560 495.8 560 456zM136 208L136 272C136 285.3 146.7 296 160 296C173.3 296 184 285.3 184 272L184 200L200 200L200 272C200 294.1 182.1 312 160 312C137.9 312 120 294.1 120 272L120 200L136 200L136 208zM256 200L268.9 200L271.1 204.4L311.9 286.1L311.9 200L327.9 200L327.9 312L307 312L304.8 307.6L264 225.9L264 312L248 312L248 200L256 200z"/></svg>