<svg xmlns="http://www.w3.org/2000/svg" viewBox="0 0 640 640"><!--! Font Awesome Pro 7.2.0 by @fontawesome - https://fontawesome.com License - https://fontawesome.com/license (Commercial License) Copyright 2026 Fonticons, Inc. --><path opacity=".4" fill="currentColor" d="M48 384L48 432L128 432L128 528L192 528L192 432L288 432L288 528L352 528L352 432L504 432L504 336L592 336L592 280C592 240.2 559.8 208 520 208L464 208L464 384L48 384zM80 272L80 336L400 336L400 272C400 183.6 328.4 112 240 112C151.6 112 80 183.6 80 272zM544 272C544 280.8 536.8 288 528 288C519.2 288 512 280.8 512 272C512 263.2 519.2 256 528 256C536.8 256 544 263.2 544 272z"/><path fill="currentColor" d="M240 112C151.6 112 80 183.6 80 272L80 336L64 336L64 272C64 174.8 142.8 96 240 96L248 96L248 96.2C341.5 100.4 416 177.5 416 272L416 336L400 336L400 272C400 183.6 328.4 112 240 112zM448 192L520 192C568.6 192 608 231.4 608 280L608 352L520 352L520 448L368 448L368 544L272 544L272 448L208 448L208 544L112 544L112 448L32 448L32 368L448 368L448 192zM272 432L288 432L288 528L352 528L352 432L504 432L504 336L592 336L592 280C592 240.2 559.8 208 520 208L464 208L464 384L48 384L48 432L128 432L128 528L192 528L192 432L272 432zM528 256C536.8 256 544 263.2 544 272C544 280.8 536.8 288 528 288C519.2 288 512 280.8 512 272C512 263.2 519.2 256 528 256z"/></svg>