<svg xmlns="http://www.w3.org/2000/svg" viewBox="0 0 640 640"><!--! Font Awesome Pro 7.2.0 by @fontawesome - https://fontawesome.com License - https://fontawesome.com/license (Commercial License) Copyright 2026 Fonticons, Inc. --><path opacity=".4" fill="currentColor" d="M48 112L48 480L592 480L592 112L48 112zM240 332C240 298.9 268.7 272 304 272C323.1 272 340.3 279.9 352 292.3L352 176L400 176L400 192L368 192L368 332.2C367.9 365.3 339.3 392 304 392C268.7 392 240 365.1 240 332zM256 330.1C256 330.7 256 331.3 256 332C256 353 272.5 371.8 295.8 375.3C273.9 371.5 257 352.9 256 330.1zM312.1 375.3C335.4 371.8 351.9 353 351.9 332C351.9 331.4 351.9 330.7 351.9 330.1C350.9 352.9 334 371.5 312.1 375.3z"/><path fill="currentColor" d="M592 112L592 480L48 480L48 112L592 112zM48 96L32 96L32 496L608 496L608 96L48 96zM160 560L160 576L480 576L480 560L160 560zM352 176L352 292.3C340.3 279.8 323.1 272 304 272C268.7 272 240 298.9 240 332C240 365.1 268.7 392 304 392C339.3 392 367.9 365.2 368 332.2L368 192L400 192L400 176L352 176zM304 288C331.5 288 352 308.7 352 332C352 355.3 331.5 376 304 376C276.5 376 256 355.3 256 332C256 308.7 276.5 288 304 288z"/></svg>