<svg xmlns="http://www.w3.org/2000/svg" viewBox="0 0 640 640"><!--! Font Awesome Pro 7.2.0 by @fontawesome - https://fontawesome.com License - https://fontawesome.com/license (Commercial License) Copyright 2026 Fonticons, Inc. --><path opacity=".4" fill="currentColor" d="M80.2 326.1L80 336C80 438.7 160.7 522.6 262.1 527.8L272 528L496 528L496 432L272 432C219 432 176 389 176 336L176.1 331.1C178.6 282 218 242.7 267 240.2L271.9 240.1L431.9 240.1L431.9 313.5L553.3 192.1L431.9 70.7L431.9 144.1L271.9 144.1L262 144.3C164 149.2 85.2 228 80.2 326.1z"/><path fill="currentColor" d="M416 32L416 128L272 128C157.1 128 64 221.1 64 336C64 450.9 157.1 544 272 544L512 544L512 416L272 416C227.8 416 192 380.2 192 336L192.4 327.8C196.5 287.5 230.6 256 272 256L416 256L416 352L576 192L416 32zM432 313.4L432 240L272 240L267.1 240.1C218 242.6 178.7 282 176.2 331L176 336C176 389 219 432 272 432L496 432L496 528L272 528L262.1 527.8C160.7 522.6 80 438.7 80 336L80.2 326.1C85.2 228 164 149.2 262.1 144.2L272 144L432 144L432 70.6L553.4 192L432 313.4z"/></svg>