<svg xmlns="http://www.w3.org/2000/svg" viewBox="0 0 640 640"><!--! Font Awesome Pro 7.2.0 by @fontawesome - https://fontawesome.com License - https://fontawesome.com/license (Commercial License) Copyright 2026 Fonticons, Inc. --><path opacity=".4" fill="currentColor" d="M321.7 179.1L318.4 199.3L143 199.3C98.8 199.3 63 235.1 63 279.3L63 287.4L103.5 379.3L103.5 397.7L76.7 458.8L107.1 567.2L207.9 567.2L179 468.7L195.2 430.3C198.5 422.4 200.2 414 200.2 405.4L200.2 363.2L319.4 389.1L319.4 567.1L408.1 567.1L408.1 373.3L429.4 341.6C436.5 331 440.3 318.6 440.3 305.9L440.3 216.3L456.8 216.3L488.4 278.7L568.5 241.1L558.6 143.2C557.5 132.7 553.9 122.5 547.9 113.8L519.8 72L448 72C385.4 72 331.9 117.3 321.7 179.1z"/><path fill="currentColor" d="M448 80L515.7 80L549.5 130.8L559.5 235.3L491.6 269.3L463.2 212.5L461 208.1L432.1 208.1L432.1 304.1C431.9 329.5 420.5 351.7 402.9 366.6L400.1 369L400.1 560.2L328.1 560.2L328.1 383.4L321.8 382L201.8 355.7L192.1 353.6L192.1 416.4L188.9 423.9L171.5 464.4L170.4 467L171.2 469.7L196.3 560.2L113.3 560.2L89.6 474.9L85.8 461.4C87.1 458.5 95.6 438.5 111.5 401.5L112.1 400L112.1 376.9L111.4 375.3L78.1 302C74.2 293.4 72.2 284 72.2 274.6C72.2 238 101.9 208.3 138.5 208.3L328.2 208.3L328.2 200.3C328.2 134 381.9 80.3 448.2 80.3zM545.6 96L534.9 80L560 80L560 64L448 64C375.6 64 316.4 120.6 312.2 192L138.3 192C111.8 192 88.2 204.5 73.2 224L64 224C28.7 224 0 252.7 0 288L0 384L16 384L16 288C16 261.7 37.2 240.3 63.5 240C58.7 250.4 56 262.1 56 274.3C56 286 58.5 297.7 63.4 308.4L96 380.2L96 396.6C61.6 476.8 71.8 453.1 68.8 460L69.6 462.7L74.1 479L99.4 570.2L101 576.1L217.2 576.1L214.4 566L187.2 468.1C216.2 400.4 204.6 427.5 208 419.6L208 373.4L312 396.2L312 576.1L416 576.1L416 376.2C433.3 360.4 445.1 338.3 447.5 313.2L448 313.3L448 224.2L451.1 224.2L480.9 283.8L484.5 291L491.7 287.4L571.7 247.4L576.6 244.9L576.1 239.4L567.5 149.6L635.3 119.5L640.1 117.4L640.1 96.2L545.7 96.2zM556.3 112L612.3 112L565.8 132.7L565.3 127.3L565.1 125.3L564 123.6L556.3 112zM496 160C504.8 160 512 152.8 512 144C512 135.2 504.8 128 496 128C487.2 128 480 135.2 480 144C480 152.8 487.2 160 496 160z"/></svg>