<svg xmlns="http://www.w3.org/2000/svg" viewBox="0 0 640 640"><!--! Font Awesome Pro 7.2.0 by @fontawesome - https://fontawesome.com License - https://fontawesome.com/license (Commercial License) Copyright 2026 Fonticons, Inc. --><path opacity=".4" fill="currentColor" d="M165.2 400L272 400L272 560L368 560L368 400L474.8 400L320 236.4L165.2 400z"/><path fill="currentColor" d="M256 416L128 416L143.1 400L308.9 224.8L319.9 213.2L330.9 224.8L496.7 400L511.8 416L383.8 416L383.8 576L255.8 576L255.8 416zM256 400L272 400L272 560L368 560L368 400L474.8 400L320 236.4L165.2 400L256 400zM112 248L112 256L96 256L96 72C96 67.6 99.6 64 104 64L536 64C540.4 64 544 67.6 544 72L544 256L528 256L528 80L112 80L112 248z"/></svg>