<svg xmlns="http://www.w3.org/2000/svg" viewBox="0 0 640 640"><!--! Font Awesome Pro 7.2.0 by @fontawesome - https://fontawesome.com License - https://fontawesome.com/license (Commercial License) Copyright 2026 Fonticons, Inc. --><path opacity=".4" fill="currentColor" d="M48.7 576L336 576L336 384L107.8 384L48.7 576zM144 192C144 253.9 194.1 304 256 304C317.9 304 368 253.9 368 192C368 130.1 317.9 80 256 80C194.1 80 144 130.1 144 192z"/><path fill="currentColor" d="M256 304C317.9 304 368 253.9 368 192C368 130.1 317.9 80 256 80C194.1 80 144 130.1 144 192C144 253.9 194.1 304 256 304zM107.8 384L48.7 576L32 576L96 368L336 368L336 384L107.8 384zM128 192C128 121.3 185.3 64 256 64C326.7 64 384 121.3 384 192C384 262.7 326.7 320 256 320C185.3 320 128 262.7 128 192zM544 352L544 368L560 368L560 352C560 316.7 531.3 288 496 288C460.7 288 432 316.7 432 352L432 416L384 416L384 608L608 608L608 416L448 416L448 352C448 325.5 469.5 304 496 304C522.5 304 544 325.5 544 352zM432 432L592 432L592 592L400 592L400 432L432 432z"/></svg>