<svg xmlns="http://www.w3.org/2000/svg" viewBox="0 0 640 640"><!--! Font Awesome Pro 7.2.0 by @fontawesome - https://fontawesome.com License - https://fontawesome.com/license (Commercial License) Copyright 2026 Fonticons, Inc. --><path opacity=".4" fill="currentColor" d="M112.7 576L527.2 576L512.4 528L518.9 528L504.7 480L497.6 480L481.1 426.4L486.8 419.5L473.9 376L460.6 376L453.9 384L399.8 384L399.8 376L351.8 376L351.8 384L287.8 384L287.8 376L239.8 376L239.8 384L185.7 384L179 376L165.7 376L152.8 419.5L158.5 426.4L142 480L134.9 480L120.7 528L127.2 528L112.4 576zM200 192C200 200.2 200.8 208.2 202.4 216L210.6 216C215.6 239 227.7 259.4 244.5 274.7L240.4 281.8C252.4 292.4 266.5 300.7 282 305.8L286.1 298.7C296.8 302.1 308.2 303.9 320 303.9C331.8 303.9 343.2 302.1 353.9 298.7L358 305.8C373.5 300.6 387.6 292.4 399.6 281.8L395.5 274.7C412.3 259.4 424.4 239 429.4 216L437.6 216C439.2 208.2 440 200.2 440 192C440 183.8 439.2 175.8 437.6 168L429.4 168C424.4 145 412.3 124.6 395.5 109.3L399.6 102.2C387.6 91.6 373.5 83.3 358 78.2L353.9 85.3C343.2 81.8 331.8 80 320 80C308.2 80 296.8 81.8 286.1 85.2L282 78.1C266.5 83.3 252.4 91.5 240.4 102.1L244.5 109.2C227.7 124.6 215.6 145 210.6 168L202.4 168C200.8 175.8 200 183.8 200 192z"/><path fill="currentColor" d="M320 320C334.7 320 348.9 317.5 362.1 312.9L353.9 298.8C343.2 302.2 331.8 304 320 304C308.2 304 296.8 302.2 286.1 298.8L277.9 312.9C291.1 317.5 305.3 320 320 320zM236.3 288.9L244.5 274.8C227.7 259.5 215.6 239.1 210.6 216.1L194.3 216.1C199.8 245 215 270.5 236.4 289zM429.4 168L445.7 168C440.2 139.1 425 113.6 403.6 95.1L395.4 109.2C412.3 124.6 424.4 145 429.4 168zM353.9 85.2L362.1 71.1C348.9 66.5 334.7 64 320 64C305.3 64 291.1 66.5 277.9 71.1L286.1 85.2C296.8 81.8 308.2 80 320 80C331.8 80 343.2 81.8 353.9 85.2zM445.8 216L429.5 216C424.5 239 412.4 259.4 395.6 274.7L403.8 288.8C425.2 270.3 440.4 244.8 445.9 215.9zM210.6 168C215.6 145 227.7 124.6 244.5 109.3L236.3 95.2C214.9 113.7 199.7 139.2 194.2 168.1L210.5 168.1zM158.8 426.4L146.6 411.7L125.6 480L142.3 480L158.8 426.4zM127.5 528L110.8 528L96 576L112.7 576L127.5 528zM185.9 384L240 384L240 368L172.6 368L185.9 384zM288 384L352 384L352 368L288 368L288 384zM400 368L400 384L454.1 384L467.4 368L400 368zM493.5 411.7L481.3 426.4L497.8 480L514.5 480L493.5 411.7zM529.2 528L512.5 528L527.3 576L544 576L529.2 528z"/></svg>