<svg xmlns="http://www.w3.org/2000/svg" viewBox="0 0 640 640"><!--! Font Awesome Pro 7.2.0 by @fontawesome - https://fontawesome.com License - https://fontawesome.com/license (Commercial License) Copyright 2026 Fonticons, Inc. --><path opacity=".4" fill="currentColor" d="M112.9 576L240 576C209.1 576 184 550.9 184 520C184 491.8 204.9 468.4 232 464.6L232 400L171.5 400L112.8 576zM200 520C200 542.1 217.9 560 240 560C262.1 560 280 542.1 280 520C280 497.9 262.1 480 240 480C217.9 480 200 497.9 200 520zM208 192C208 253.9 258.1 304 320 304C381.9 304 432 253.9 432 192C432 130.1 381.9 80 320 80C258.1 80 208 130.1 208 192zM240 576L527.1 576L468.4 400L407.9 400L407.9 464.6C435 468.5 455.9 491.8 455.9 520L455.9 568L439.9 568L439.9 520C439.9 497.9 422 480 399.9 480C377.8 480 359.9 497.9 359.9 520L359.9 568L343.9 568L343.9 520C343.9 491.8 364.8 468.4 391.9 464.6L391.9 400L247.9 400L247.9 464.6C275 468.5 295.9 491.8 295.9 520C295.9 550.9 270.8 576 239.9 576z"/><path fill="currentColor" d="M320 304C381.9 304 432 253.9 432 192C432 130.1 381.9 80 320 80C258.1 80 208 130.1 208 192C208 253.9 258.1 304 320 304zM448 192C448 262.7 390.7 320 320 320C249.3 320 192 262.7 192 192C192 121.3 249.3 64 320 64C390.7 64 448 121.3 448 192zM392 464.6L392 400L248 400L248 464.6C275.1 468.5 296 491.8 296 520C296 550.9 270.9 576 240 576C209.1 576 184 550.9 184 520C184 491.8 204.9 468.4 232 464.6L232 400L171.5 400L112.8 576L95.9 576L159.9 384L479.9 384L543.9 576L527 576L468.3 400L407.8 400L407.8 464.6C434.9 468.5 455.8 491.8 455.8 520L455.8 568L439.8 568L439.8 520C439.8 497.9 421.9 480 399.8 480C377.7 480 359.8 497.9 359.8 520L359.8 568L343.8 568L343.8 520C343.8 491.8 364.7 468.4 391.8 464.6zM280 520C280 497.9 262.1 480 240 480C217.9 480 200 497.9 200 520C200 542.1 217.9 560 240 560C262.1 560 280 542.1 280 520z"/></svg>