<svg xmlns="http://www.w3.org/2000/svg" viewBox="0 0 640 640"><!--! Font Awesome Pro 7.2.0 by @fontawesome - https://fontawesome.com License - https://fontawesome.com/license (Commercial License) Copyright 2026 Fonticons, Inc. --><path opacity=".4" fill="currentColor" d="M112.9 576L527.2 576L468.5 400L391.7 400C344.4 459.1 320.6 488.9 320 489.6C319.5 488.9 295.6 459 248.3 400L171.5 400L112.8 576zM160 88L160 92.2L320 48.6L480 92.2L480 88L320 40L160 88zM160 92.2L160 118.9C178.9 130.3 189.6 136.7 192 138.1L192 165.4L193.6 166.1C200.7 169 211.1 172.8 223.8 176.6C247.4 183.7 278.6 190.8 311.9 191.8C310.8 190.7 309.7 189.6 308.6 188.5C276 155.9 258.4 138.3 255.9 135.8C258.4 133.3 276 115.7 308.6 83.1L320 72C322.5 74.5 340.1 92.1 372.7 124.7L384 136C381.5 138.5 363.9 156.1 331.3 188.7C330.2 189.8 329.2 190.8 328 192C361.3 190.9 392.5 183.9 416.1 176.8C428.8 173 439.2 169.1 446.3 166.3L447.9 165.6L447.9 138.3C450.3 136.8 461 130.4 479.9 119.1L479.9 92.4L319.9 48.8L159.9 92.4zM178.8 320L258 320C231.3 305.2 210.4 281 199.8 252L178.8 320zM192 165.5L192 168L256 192C274.7 192 293.3 192 311.9 191.9C278.6 190.8 247.4 183.8 223.8 176.7C211.1 172.9 200.7 169 193.6 166.2L192 165.5zM278.6 136L281.8 139.2L280 136L320 96L360 136L358.2 139.2L361.4 136L320 94.6L278.6 136zM464 512C464 538.5 442.5 560 416 560C389.5 560 368 538.5 368 512C368 485.5 389.5 464 416 464C442.5 464 464 485.5 464 512zM382 320L461.1 320L440.2 252C429.6 281.1 408.7 305.2 382 320z"/><path fill="currentColor" d="M464 147.2L496 128L496 80L320 32L144 80L144 128L176 147.2L176 176C176 176 181.8 178.8 192 182.7L192 222.8L160.4 325.7L157.2 336.1L482.9 336.1L479.7 325.7L448.1 222.8L448.1 182.7C458.3 178.8 464.1 176 464.1 176L464.1 147.2zM432 188.4L432 208C432 269.7 382.1 319.7 320.5 320L319.5 320C257.9 319.7 208 269.7 208 208L208 188.4C234.9 197.4 275.8 208 320 208C364.2 208 405.1 197.4 432 188.4zM440.2 252L461.1 320L382 320C408.7 305.2 429.6 281 440.2 252zM258 320L178.8 320L199.7 252C210.3 281.1 231.2 305.2 257.9 320zM448 165.5L446.4 166.2C439.3 169.1 428.9 172.9 416.2 176.7C392.6 183.8 361.4 190.9 328.2 191.9L331.4 188.7C364 156.1 381.6 138.5 384.1 136C381.6 133.5 364 115.9 331.4 83.3L320 72C317.5 74.5 299.9 92.1 267.3 124.7L256 136C258.5 138.5 276.1 156.1 308.7 188.7L311.9 191.9C278.6 190.9 247.4 183.9 223.9 176.7C211.2 172.9 200.8 169 193.7 166.2L192.1 165.5L192.1 138.2C189.7 136.7 179 130.3 160.1 119L160.1 92.3L320.1 48.7L480.1 92.3L480.1 119C461.2 130.3 450.5 136.7 448.1 138.2L448.1 165.5zM256 384L160 384L96 576L112.9 576L171.6 400L248.4 400C295.6 459.1 319.5 488.9 320.1 489.6C320.6 488.9 344.5 459.1 391.8 400L468.6 400L527.3 576L544.2 576L480.2 384L384.2 384L330.4 451.2L320.2 464L256.2 384zM320 94.6L361.4 136L320 177.4L278.6 136L320 94.6zM416 544C398.3 544 384 529.7 384 512C384 494.3 398.3 480 416 480C433.7 480 448 494.3 448 512C448 529.7 433.7 544 416 544zM416 560C442.5 560 464 538.5 464 512C464 485.5 442.5 464 416 464C389.5 464 368 485.5 368 512C368 538.5 389.5 560 416 560z"/></svg>