<svg xmlns="http://www.w3.org/2000/svg" viewBox="0 0 640 640"><!--! Font Awesome Pro 7.2.0 by @fontawesome - https://fontawesome.com License - https://fontawesome.com/license (Commercial License) Copyright 2026 Fonticons, Inc. --><path opacity=".4" fill="currentColor" d="M80 80L80 160L160 160L160 80L80 80zM80 480L80 560L160 560L160 480L80 480zM344 280L344 360L424 360L424 280L344 280zM480 80L480 160L560 160L560 80L480 80zM480 480L480 560L560 560L560 480L480 480z"/><path fill="currentColor" d="M560 80L560 160L480 160L480 80L560 80zM464 80L464 112L176 112L176 64L64 64L64 176L112 176L112 464L64 464L64 576L176 576L176 528L464 528L464 576L576 576L576 464L491.6 464L431.8 376L440 376L440 264L431.8 264L491.6 176L576 176L576 64L464 64L464 80zM472.2 176L412.4 264L328 264L328 376L412.4 376L472.2 464L464 464L464 512L176 512L176 464L128 464L128 176L176 176L176 128L464 128L464 176L472.2 176zM160 80L160 160L80 160L80 80L160 80zM80 480L160 480L160 560L80 560L80 480zM480 560L480 480L560 480L560 560L480 560zM424 280L424 360L344 360L344 280L424 280z"/></svg>