<svg xmlns="http://www.w3.org/2000/svg" viewBox="0 0 640 640"><!--! Font Awesome Pro 7.2.0 by @fontawesome - https://fontawesome.com License - https://fontawesome.com/license (Commercial License) Copyright 2026 Fonticons, Inc. --><path opacity=".4" fill="currentColor" d="M160 272L320 272L320 308C271.5 342.9 240 399.7 240 464C240 497.5 248.6 529 263.7 556.4C256.2 558.7 248.3 560 240 560C195.8 560 160 524.2 160 480L160 272z"/><path fill="currentColor" d="M112 64L368 64L368 80L336 80L336 297.7C330.5 300.9 325.1 304.3 320 308L320 272L160 272L160 480C160 524.2 195.8 560 240 560C248.2 560 256.2 558.8 263.7 556.4C266.3 561.2 269.2 565.9 272.2 570.4C262.1 574 251.3 575.9 240 575.9C187 575.9 144 532.9 144 479.9L144 79.9L112 79.9L112 63.9zM160 80L160 256L320 256L320 80L160 80zM432 592C502.7 592 560 534.7 560 464C560 393.3 502.7 336 432 336C361.3 336 304 393.3 304 464C304 534.7 361.3 592 432 592zM432 320C511.5 320 576 384.5 576 464C576 543.5 511.5 608 432 608C352.5 608 288 543.5 288 464C288 384.5 352.5 320 432 320zM499.2 400.2L494.5 406.7L414.5 516.7L408.5 525L401.9 517.1L361.9 469.1L356.8 463L369.1 452.8L374.2 458.9L407.6 499L481.6 397.3L486.3 390.8L499.2 400.2z"/></svg>