<svg xmlns="http://www.w3.org/2000/svg" viewBox="0 0 640 640"><!--! Font Awesome Pro 7.2.0 by @fontawesome - https://fontawesome.com License - https://fontawesome.com/license (Commercial License) Copyright 2026 Fonticons, Inc. --><path opacity=".4" fill="currentColor" d="M80 144L80 496L432 496L432 144L80 144zM168 312L248 312L248 232L264 232L264 312L344 312L344 328L264 328L264 408L248 408L248 328L168 328L168 312zM496 253.9L496 386.1L592 450.1L592 189.9L496 253.9z"/><path fill="currentColor" d="M432 144L432 496L80 496L80 144L432 144zM80 128L64 128L64 512L448 512L448 128L80 128zM496 405.3L592 469.3L608 480L608 160L592 170.7L496 234.7L496 253.9L592 189.9L592 450.1L496 386.1L496 405.3zM248 408L264 408L264 328L344 328L344 312L264 312L264 232L248 232L248 312L168 312L168 328L248 328L248 408z"/></svg>