<svg xmlns="http://www.w3.org/2000/svg" viewBox="0 0 640 640"><!--! Font Awesome Pro 7.2.0 by @fontawesome - https://fontawesome.com License - https://fontawesome.com/license (Commercial License) Copyright 2026 Fonticons, Inc. --><path opacity=".4" fill="currentColor" d="M80 240L80 400L182 400L186.5 403.9L336 533L336 106.9L186.5 236.1L182 240L80 240z"/><path fill="currentColor" d="M182 400L186.5 403.9L336 533L336 106.9L186.5 236.1L182 240L80 240L80 400L182 400zM80 416L64 416L64 224L176 224L336 85.8L352 72L352 568L336 554.2L176 416L80 416zM435.3 238.4L441.7 243.2C464.9 260.8 480 288.6 480 320C480 351.4 464.9 379.2 441.7 396.7L435.3 401.5L425.7 388.7L432.1 383.9C451.5 369.3 464 346.1 464 319.9C464 293.7 451.5 270.5 432.1 255.9L425.7 251.1L435.3 238.3zM500.9 167.6C546.5 202.7 576 257.9 576 320C576 382.1 546.5 437.3 500.9 472.3L494.6 477.2L484.8 464.5L491.1 459.6C533 427.5 560 376.9 560 320C560 263.1 533 212.5 491.1 180.3L484.8 175.4L494.6 162.7L500.9 167.6z"/></svg>