<svg xmlns="http://www.w3.org/2000/svg" viewBox="0 0 640 640"><!--! Font Awesome Pro 7.2.0 by @fontawesome - https://fontawesome.com License - https://fontawesome.com/license (Commercial License) Copyright 2026 Fonticons, Inc. --><path opacity=".4" fill="currentColor" d="M139 443.6L443.6 139C476.2 176.8 496 226.1 496 280C496 399.3 399.3 496 280 496C226.1 496 176.8 476.3 139 443.6zM228.7 400C229.4 400.7 239.3 410.6 258.4 429.7L264.1 435.4L275.4 424.1C274.7 423.4 264.8 413.5 245.7 394.4L240 388.7L228.7 400zM308.7 320C309.4 320.7 319.3 330.6 338.4 349.7L344.1 355.4L355.4 344.1C354.7 343.4 344.8 333.5 325.7 314.4L320 308.7L308.7 320zM316.7 408C317.4 408.7 327.3 418.6 346.4 437.7L352.1 443.4L363.4 432.1L328.1 396.8L316.8 408.1zM388.7 240C389.4 240.7 399.3 250.6 418.4 269.7L424.1 275.4L435.4 264.1C434.7 263.4 424.8 253.5 405.7 234.4L400 228.7L388.7 240zM396.7 328L432 363.3L443.3 352L413.6 322.3L407.9 316.6L396.6 327.9z"/><path fill="currentColor" d="M272 560C431.1 560 560 431.1 560 272C560 202.3 535.3 138.4 494 88.6L455 127.7C490.5 168.5 512 221.7 512 280C512 408.1 408.1 512 280 512C221.7 512 168.4 490.5 127.7 455L88.6 494C138.4 535.2 202.3 560 272 560zM139 443.6C176.8 476.2 226.1 496 280 496C399.3 496 496 399.3 496 280C496 226.1 476.3 176.8 443.6 139L139 443.6zM77.2 505.4C73.1 502 69.1 498.4 65.2 494.8L76.5 483.5L483.5 76.5L494.8 65.2C498.4 69.1 502 73.1 505.4 77.2C549.5 130 576 197.9 576 272C576 439.9 439.9 576 272 576C197.9 576 130 549.5 77.2 505.4zM400 228.7C400.7 229.4 410.6 239.3 429.7 258.4L435.4 264.1L424.1 275.4C423.4 274.7 413.5 264.8 394.4 245.7L388.7 240L400 228.7zM320 308.7C320.7 309.4 330.6 319.3 349.7 338.4L355.4 344.1L344.1 355.4C343.4 354.7 333.5 344.8 314.4 325.7L308.7 320L320 308.7zM408 316.7C408.7 317.4 418.6 327.3 437.7 346.4L443.4 352.1L432.1 363.4L396.8 328.1L408.1 316.8zM240 388.7C240.7 389.4 250.6 399.3 269.7 418.4L275.4 424.1L264.1 435.4C263.4 434.7 253.5 424.8 234.4 405.7L228.7 400L240 388.7zM328 396.7L363.3 432L352 443.3L322.3 413.6L316.6 407.9L327.9 396.6z"/></svg>