<svg xmlns="http://www.w3.org/2000/svg" viewBox="0 0 640 640"><!--! Font Awesome Pro 7.2.0 by @fontawesome - https://fontawesome.com License - https://fontawesome.com/license (Commercial License) Copyright 2026 Fonticons, Inc. --><path opacity=".4" fill="currentColor" d="M64 384.5C64 427.2 64 469.8 64 512.5C106.2 496.5 148.4 480.5 190.7 464.5C191.6 464.1 192.6 463.8 193.5 463.4C194.4 463.8 195.4 464.1 196.3 464.5C237.6 480.1 278.8 495.8 320.1 511.4C361.4 495.8 402.7 480.1 443.9 464.5C444.8 464.1 445.8 463.8 446.7 463.4C447.6 463.8 448.6 464.1 449.5 464.5L576.2 512.5L576.2 384.5C574.3 389.5 572.4 394.5 570.5 399.5C529.1 383.8 487.8 368.2 446.4 352.5C438.1 355.1 429.8 357.7 421.5 360.3C394.3 368.9 367 363 346.4 347.9C336.1 340.3 327.5 330.5 321.5 318.9C318.5 313.1 316.1 306.9 314.5 300.4C313.7 297.1 313.1 293.8 312.7 290.4C312.6 289.5 312.5 288.7 312.4 287.9C312.3 286.9 312.2 286.1 312.2 285.3C312.1 284.3 312.1 283.5 312.1 282.8C312.1 281.7 312.1 281 312.1 279.9C312.1 275.7 312.3 271.6 312.7 267.6C313.1 263.6 313.7 259.6 314.5 255.7C316.1 247.9 318.5 240.4 321.5 233.2C327.6 218.8 336.4 205.9 347.2 195.1C368.9 173.4 398.9 160 432.1 160C440.3 160 448.3 160.8 456.1 162.4C425.6 131.3 383.1 112 336.1 112C289.7 112 247.7 130.8 217.3 161.2C202.1 176.4 189.8 194.5 181.3 214.6C177.1 224.6 173.7 235.2 171.5 246.1C170.4 251.6 169.5 257.1 169 262.8C168.4 268.4 168.1 274.1 168.1 280C168.1 305.5 168.1 331.1 168.1 356.6C168.1 358.4 168.1 360.3 168.1 362.1C166.4 362.8 164.7 363.4 162.9 364.1L69.7 399.5C67.8 394.5 65.9 389.5 64 384.5z"/><path fill="currentColor" d="M168.2 280C168.2 187.2 243.4 112 336.2 112C383.2 112 425.7 131.3 456.2 162.4C448.4 160.8 440.4 160 432.2 160C365.9 160 312.2 213.7 312.2 280C312.2 336.9 367.5 377.5 421.8 360.3L446.7 352.5L570.8 399.5L576.5 384.5L449.8 336.5L447.2 335.5L444.6 336.3L417.1 345C373.1 358.9 328.3 326.1 328.3 279.9C328.3 222.5 374.9 175.9 432.3 175.9C448.3 175.9 463.4 179.5 476.9 185.9L486.9 174.1C453.6 126.8 398.6 95.9 336.4 95.9C234.8 95.9 152.4 178.3 152.4 279.9L152.4 351L64.2 384.4L69.9 399.4L163.2 364L168.4 362L168.4 279.8zM196.4 464.5L193.6 463.4L190.8 464.5L64.1 512.5L69.8 527.5L193.6 480.6L317.4 527.5L320.2 528.6L323 527.5L446.8 480.6L570.6 527.5L576.3 512.5L449.6 464.5L446.8 463.4L444 464.5L320.2 511.4L196.4 464.5z"/></svg>