<svg xmlns="http://www.w3.org/2000/svg" viewBox="0 0 640 640"><!--! Font Awesome Pro 7.2.0 by @fontawesome - https://fontawesome.com License - https://fontawesome.com/license (Commercial License) Copyright 2026 Fonticons, Inc. --><path opacity=".4" fill="currentColor" d=""/><path fill="currentColor" d="M280 64L280 544L264 544L264 64L280 64zM472 128L472 480L456 480L456 128L472 128zM184 160L184 448L168 448L168 160L184 160zM376 192L376 416L360 416L360 192L376 192zM88 256L88 352L72 352L72 256L88 256zM568 256L568 352L552 352L552 256L568 256z"/></svg>