<svg xmlns="http://www.w3.org/2000/svg" viewBox="0 0 640 640"><!--! Font Awesome Pro 7.2.0 by @fontawesome - https://fontawesome.com License - https://fontawesome.com/license (Commercial License) Copyright 2026 Fonticons, Inc. --><path opacity=".4" fill="currentColor" d="M62.9 253.6L186.3 528L453.7 528L577.1 253.6C573.3 252.4 569.7 250.7 566.4 248.6L451.1 271.7L443.4 273.2L437.5 268L323.1 167.9C321.2 168 319.2 168 317 167.9L202.6 268L196.7 273.2L189 271.7L73.7 248.6C70.4 250.7 66.8 252.4 63 253.6z"/><path fill="currentColor" d="M284.2 116C284.2 96.1 300.3 80 320.2 80C340.1 80 356.2 96.1 356.2 116C356.2 135.9 340.1 152 320.2 152C300.3 152 284.2 135.9 284.2 116zM323 167.9L437.4 268L443.3 273.2L451 271.7L566.3 248.6C569.6 250.7 573.2 252.4 577 253.6L453.7 528L186.3 528L62.9 253.6C66.7 252.4 70.3 250.7 73.6 248.6L188.9 271.7L196.6 273.2L202.5 268L316.9 167.9C319 168 321.1 168 323 167.9zM46.4 256L176 544L464 544L593.6 256C619.4 255.1 640 234 640 208C640 181.5 618.5 160 592 160C565.5 160 544 181.5 544 208C544 218.1 547.1 227.4 552.4 235.1L448 256L342 163.2C359.8 155 372.2 136.9 372.2 116C372.2 87.3 348.9 64 320.2 64C291.5 64 268.2 87.3 268.2 116C268.2 136.8 280.5 154.8 298.2 163.1L192 256L87.6 235.1C92.9 227.4 96 218 96 208C96 181.5 74.5 160 48 160C21.5 160 0 181.5 0 208C0 234 20.6 255.1 46.4 256zM592 176C609.7 176 624 190.3 624 208C624 225.7 609.7 240 592 240C574.3 240 560 225.7 560 208C560 190.3 574.3 176 592 176zM16 208C16 190.3 30.3 176 48 176C65.7 176 80 190.3 80 208C80 225.7 65.7 240 48 240C30.3 240 16 225.7 16 208z"/></svg>