<svg xmlns="http://www.w3.org/2000/svg" viewBox="0 0 640 640"><!--! Font Awesome Pro 7.2.0 by @fontawesome - https://fontawesome.com License - https://fontawesome.com/license (Commercial License) Copyright 2026 Fonticons, Inc. --><path opacity=".4" fill="currentColor" d="M162.9 151.7C201 107.8 257.3 80 320 80C434.9 80 528 173.1 528 288C528 350.7 500.3 406.9 456.4 445L399.6 388.2C429.1 364.8 448 328.6 448 287.9C448 217.2 390.7 159.9 320 159.9C279.4 159.9 243.2 178.8 219.7 208.3L162.9 151.7z"/><path fill="currentColor" d="M53.7 42.4L48 36.7L36.7 48L42.4 53.7L586.6 597.7L592.3 603.4L603.6 592.1L597.9 586.4L467.8 456.3C514.5 415.3 544 355.1 544 288C544 164.3 443.7 64 320 64C252.9 64 192.6 93.5 151.6 140.3L53.7 42.4zM162.9 151.7C201 107.8 257.3 80 320 80C434.9 80 528 173.1 528 288C528 350.7 500.3 406.9 456.4 445L399.6 388.2C429.1 364.8 448 328.6 448 287.9C448 217.2 390.7 159.9 320 159.9C279.4 159.9 243.2 178.8 219.7 208.3L162.9 151.7zM388.2 376.9L231.1 219.9C251.6 193.2 283.8 176.1 320 176.1C381.9 176.1 432 226.2 432 288.1C432 324.3 414.8 356.5 388.2 377zM335.8 415L320.8 400L320 400C258.1 400 208 349.9 208 288L208 287.2L193 272.2C192.4 277.4 192 282.7 192 288C192 358.7 249.3 416 320 416C325.4 416 330.6 415.7 335.8 415zM112 288C112 259.4 117.8 232.2 128.2 207.4L116.1 195.2C103.2 223.5 96.1 254.9 96.1 288C96.1 409 192.1 507.6 312.1 511.9L312.1 560L224.1 560L224.1 576L416.1 576L416.1 560L328.1 560L328.1 511.9C358.2 510.8 386.9 503.8 412.9 492L400.8 479.9C376 490.3 348.8 496.1 320.2 496.1C205.3 496.1 112.2 403 112.2 288.1z"/></svg>