<svg xmlns="http://www.w3.org/2000/svg" viewBox="0 0 640 640"><!--! Font Awesome Pro 7.2.0 by @fontawesome - https://fontawesome.com License - https://fontawesome.com/license (Commercial License) Copyright 2026 Fonticons, Inc. --><path opacity=".4" fill="currentColor" d="M80.5 416C80.5 495.5 145 560 224.5 560C287.2 560 340.5 519.9 360.3 464C348.8 464 337.2 464 325.7 464C307.7 501.8 269.2 528 224.5 528C162.6 528 112.5 477.9 112.5 416C112.5 365.5 145.9 322.8 191.9 308.8C189.8 298.3 187.7 287.8 185.6 277.3C125 294.3 80.5 349.9 80.5 416zM216.5 104C216.5 126.1 234.4 144 256.5 144C278.6 144 296.5 126.1 296.5 104C296.5 81.9 278.6 64 256.5 64C234.4 64 216.5 81.9 216.5 104zM237 208L240.8 227.1L267.7 361.4C272.2 383.8 291.9 400 314.8 400L437.5 400L441.4 410.4L481.6 517.6L487 532C491.2 530.6 512.1 523.6 549.6 511.1L564.8 506L554.7 475.6C532.4 483 510.9 490.2 506.1 491.8L500.7 477.4L463.5 378.3L459.6 367.9L341.6 367.9L339 355L312.1 220.7L309.5 207.8L236.9 207.8z"/><path fill="currentColor" d="M441.3 410.4L481.5 517.6L486.9 532C491.1 530.6 512 523.6 549.5 511.1L564.7 506L554.6 475.6C532.3 483 510.8 490.2 506 491.8L500.6 477.4L463.4 378.3L459.5 367.9L341.5 367.9L338.9 355L312 220.7L309.4 207.8L236.8 207.8L240.6 226.9L267.5 361.2C272 383.6 291.7 399.8 314.6 399.8L437.3 399.8L441.2 410.2zM225.1 230.3C221.9 214.4 219.4 201.6 217.4 192L322.7 192L327.8 217.7L354.7 352L470.6 352L478.4 372.8L515.6 471.9C544.9 462.1 555.9 458.5 564.7 455.5C567.2 463.1 572.3 478.3 579.9 501L585 516.2C542.2 530.5 479.9 551.2 477.4 552.1C475.1 545.9 458.1 500.5 426.4 416L314.8 416C284.3 416 258 394.5 252 364.6L225.1 230.3zM296.5 104C296.5 81.9 278.6 64 256.5 64C234.4 64 216.5 81.9 216.5 104C216.5 126.1 234.4 144 256.5 144C278.6 144 296.5 126.1 296.5 104zM256.5 48C287.4 48 312.5 73.1 312.5 104C312.5 134.9 287.4 160 256.5 160C225.6 160 200.5 134.9 200.5 104C200.5 73.1 225.6 48 256.5 48zM224.5 576C136.1 576 64.5 504.4 64.5 416C64.5 342.2 114.5 280.1 182.4 261.6L185.5 277.3C124.9 294.3 80.4 349.9 80.4 416C80.4 495.5 144.9 560 224.4 560C287.1 560 340.4 519.9 360.2 464L377.1 464C356.7 528.9 296.1 576 224.4 576zM112.5 416C112.5 365.5 145.9 322.8 191.9 308.8L195.1 324.6C156.5 337 128.6 373.3 128.6 416C128.6 469 171.6 512 224.6 512C260.2 512 291.3 492.6 307.9 463.8C310.2 463.9 312.5 464 314.9 464L319 464C320 464 321.1 464 322.1 464L325.8 464C307.8 501.8 269.3 528 224.6 528C162.7 528 112.6 477.9 112.6 416z"/></svg>