<svg xmlns="http://www.w3.org/2000/svg" viewBox="0 0 640 640"><!--! Font Awesome Pro 7.2.0 by @fontawesome - https://fontawesome.com License - https://fontawesome.com/license (Commercial License) Copyright 2026 Fonticons, Inc. --><path opacity=".4" fill="currentColor" d="M112 416C112 495.5 176.5 560 256 560C335.5 560 400 495.5 400 416C400 336.5 335.5 272 256 272C176.5 272 112 336.5 112 416zM217.5 174L238 198.5C243.6 193.8 257 182.7 278.1 165.1L288.2 156.7C290.7 158.8 306.1 171.2 334.3 194.2L348 205.4C340.3 213.1 330.6 222.8 318.8 234.6C348.8 245 375.3 262.6 396.5 285.3C420.7 258.7 434.9 243.1 439.2 238.4L426.1 227.7L298.1 123.7L287.9 115.4C287.5 115.8 268.1 131.9 229.8 163.8L217.5 174zM424 120C424 142.1 441.9 160 464 160C486.1 160 504 142.1 504 120C504 97.9 486.1 80 464 80C441.9 80 424 97.9 424 120zM430.6 336C435.3 346.2 439.1 356.9 442 368L484.5 368L480.7 387.1L456.4 508.8L453.3 524.5L484.7 530.8L487.8 515.1L519.8 355.1L523.6 336L430.7 336z"/><path fill="currentColor" d="M430.6 336C428.1 330.5 425.3 325.2 422.3 320L543 320C541.1 329.6 538.5 342.4 535.3 358.3L503.3 518.3C501.2 528.8 499.1 539.2 497 549.7C489.2 548.1 473.5 545 449.9 540.3L434.2 537.2C435.9 528.7 445 483 461.6 400.1L464.8 384.1L445.2 384.1C444.3 378.7 443.2 373.4 441.8 368.1L484.3 368.1L480.5 387.2L456.2 508.9L453.1 524.6L484.5 530.9L487.6 515.2L519.6 355.2L523.4 336.1L430.5 336.1zM407 297.4C403.7 293.2 400.2 289.1 396.5 285.2C420.7 258.6 434.9 243 439.2 238.3L426.1 227.6L298.1 123.6L287.9 115.3C287.5 115.7 268.1 131.8 229.8 163.7L217.5 174L238 198.5C243.6 193.8 257 182.7 278.1 165.1L288.2 156.7C290.7 158.8 306.1 171.2 334.3 194.2L348 205.4C340.3 213.1 330.6 222.8 318.8 234.6C313.1 232.6 307.3 230.9 301.3 229.5C308.9 221.9 316.5 214.3 324.1 206.7C317.6 201.4 305.6 191.7 288.2 177.5C241.4 216.5 247.2 211.7 235.8 221.1C230.7 215 220.4 202.7 205.1 184.2L194.9 171.9C207.4 161.5 231.6 141.3 267.5 111.4L287.7 94.5L308.1 111.1L436.1 215.1C445.5 222.8 454.3 229.9 462.4 236.4C450.1 250 429.8 272.2 407 297.3zM464 160C486.1 160 504 142.1 504 120C504 97.9 486.1 80 464 80C441.9 80 424 97.9 424 120C424 142.1 441.9 160 464 160zM464 64C494.9 64 520 89.1 520 120C520 150.9 494.9 176 464 176C433.1 176 408 150.9 408 120C408 89.1 433.1 64 464 64zM400 416C400 336.5 335.5 272 256 272C176.5 272 112 336.5 112 416C112 495.5 176.5 560 256 560C335.5 560 400 495.5 400 416zM96 416C96 327.6 167.6 256 256 256C344.4 256 416 327.6 416 416C416 504.4 344.4 576 256 576C167.6 576 96 504.4 96 416z"/></svg>