<svg xmlns="http://www.w3.org/2000/svg" viewBox="0 0 640 640"><!--! Font Awesome Pro 7.2.0 by @fontawesome - https://fontawesome.com License - https://fontawesome.com/license (Commercial License) Copyright 2026 Fonticons, Inc. --><path opacity=".4" fill="currentColor" d="M176 131.4L288 152.9L288 391.1L176 412.6L176 131.3zM448 183.7L560 205.2L560 338.8L448 360.3L448 183.7z"/><path fill="currentColor" d="M80 64L80 192L160 192L160 112L176 115.1L576 192L576 352L176 428.9L160 432L160 352L80 352L80 576L64 576L64 64L80 64zM80 208L80 336L160 336L160 208L80 208zM176 131.4L176 412.7L288 391.2L288 153L176 131.5zM304 156L304 388L432 363.4L432 180.6L304 156zM448 183.7L448 360.3L560 338.8L560 205.2L448 183.7z"/></svg>