<svg xmlns="http://www.w3.org/2000/svg" viewBox="0 0 640 640"><!--! Font Awesome Pro 7.2.0 by @fontawesome - https://fontawesome.com License - https://fontawesome.com/license (Commercial License) Copyright 2026 Fonticons, Inc. --><path opacity=".4" fill="currentColor" d="M64 320C64 322.2 64.9 324.3 66.5 325.8L258.5 509.8C260.8 512 264.2 512.6 267.2 511.4C270.2 510.2 272.1 507.2 272.1 504L272.1 136C272.1 132.8 270.2 129.9 267.2 128.6C264.2 127.3 260.8 128 258.5 130.2L66.5 314.2C64.9 315.7 64 317.8 64 320zM304 320C304 322.2 304.9 324.3 306.5 325.8L498.5 509.8C500.8 512 504.2 512.6 507.2 511.4C510.2 510.2 512.1 507.2 512.1 504L512.1 136C512.1 132.8 510.2 129.9 507.2 128.6C504.2 127.3 500.8 128 498.5 130.2L306.5 314.2C304.9 315.7 304 317.8 304 320z"/><path fill="currentColor" d="M498.5 130.2C500.8 128 504.2 127.4 507.2 128.6C510.2 129.8 512 132.8 512 136L512 504C512 507.2 510.1 510.1 507.1 511.4C504.1 512.7 500.7 512 498.4 509.8L306.4 325.8C304.8 324.3 303.9 322.2 303.9 320C303.9 317.8 304.8 315.7 306.4 314.2L498.4 130.2zM304 367.7L476.3 532.9C487.9 544 504.9 547.1 519.7 540.8C534.5 534.5 544 520 544 504L544 136C544 120 534.4 105.5 519.7 99.2C505 92.9 487.9 96 476.3 107.1L304 272.3L304 136C304 120 294.4 105.5 279.7 99.2C265 92.9 247.9 96 236.3 107.1L44.3 291.1C36.5 298.7 32 309.1 32 320C32 330.9 36.5 341.3 44.3 348.9L236.3 532.9C247.9 544 264.9 547.1 279.7 540.8C294.5 534.5 304 520 304 504L304 367.7zM267.1 128.6C270 129.9 272 132.8 272 136L272 504C272 507.2 270.1 510.1 267.1 511.4C264.1 512.7 260.7 512 258.4 509.8L66.4 325.8C64.8 324.3 63.9 322.2 63.9 320C63.9 317.8 64.8 315.7 66.4 314.2L258.4 130.2C260.7 128 264.1 127.4 267.1 128.6z"/></svg>