<svg xmlns="http://www.w3.org/2000/svg" viewBox="0 0 640 640"><!--! Font Awesome Pro 7.2.0 by @fontawesome - https://fontawesome.com License - https://fontawesome.com/license (Commercial License) Copyright 2026 Fonticons, Inc. --><path opacity=".4" fill="currentColor" d="M160 128L160 512C160 529.7 174.3 544 192 544L448 544C465.7 544 480 529.7 480 512L480 128C480 110.3 465.7 96 448 96L192 96C174.3 96 160 110.3 160 128zM187.2 313.6C181.9 306.5 183.3 296.5 190.4 291.2C197.5 285.9 207.5 287.3 212.8 294.4L224 309.3L259.2 262.4C264.5 255.3 274.5 253.9 281.6 259.2C288.7 264.5 290.1 274.5 284.8 281.6L236.8 345.6C233.8 349.6 229 352 224 352C219 352 214.2 349.6 211.2 345.6L187.2 313.6zM248 192C248 205.3 237.3 216 224 216C210.7 216 200 205.3 200 192C200 178.7 210.7 168 224 168C237.3 168 248 178.7 248 192zM248 448C248 461.3 237.3 472 224 472C210.7 472 200 461.3 200 448C200 434.7 210.7 424 224 424C237.3 424 248 434.7 248 448zM288 192C288 183.2 295.2 176 304 176L416 176C424.8 176 432 183.2 432 192C432 200.8 424.8 208 416 208L304 208C295.2 208 288 200.8 288 192zM288 448C288 439.2 295.2 432 304 432L416 432C424.8 432 432 439.2 432 448C432 456.8 424.8 464 416 464L304 464C295.2 464 288 456.8 288 448zM320 320C320 311.2 327.2 304 336 304L416 304C424.8 304 432 311.2 432 320C432 328.8 424.8 336 416 336L336 336C327.2 336 320 328.8 320 320z"/><path fill="currentColor" d="M448 96C465.7 96 480 110.3 480 128L480 512C480 529.7 465.7 544 448 544L192 544C174.3 544 160 529.7 160 512L160 128C160 110.3 174.3 96 192 96L448 96zM192 64C156.7 64 128 92.7 128 128L128 512C128 547.3 156.7 576 192 576L448 576C483.3 576 512 547.3 512 512L512 128C512 92.7 483.3 64 448 64L192 64zM288 192C288 200.8 295.2 208 304 208L416 208C424.8 208 432 200.8 432 192C432 183.2 424.8 176 416 176L304 176C295.2 176 288 183.2 288 192zM320 320C320 328.8 327.2 336 336 336L416 336C424.8 336 432 328.8 432 320C432 311.2 424.8 304 416 304L336 304C327.2 304 320 311.2 320 320zM288 448C288 456.8 295.2 464 304 464L416 464C424.8 464 432 456.8 432 448C432 439.2 424.8 432 416 432L304 432C295.2 432 288 439.2 288 448zM224 168C210.7 168 200 178.7 200 192C200 205.3 210.7 216 224 216C237.3 216 248 205.3 248 192C248 178.7 237.3 168 224 168zM200 448C200 461.3 210.7 472 224 472C237.3 472 248 461.3 248 448C248 434.7 237.3 424 224 424C210.7 424 200 434.7 200 448zM284.8 281.6C290.1 274.5 288.7 264.5 281.6 259.2C274.5 253.9 264.5 255.3 259.2 262.4L224 309.3L212.8 294.4C207.5 287.3 197.5 285.9 190.4 291.2C183.3 296.5 181.9 306.5 187.2 313.6L211.2 345.6C214.2 349.6 219 352 224 352C229 352 233.8 349.6 236.8 345.6L284.8 281.6z"/></svg>