<svg xmlns="http://www.w3.org/2000/svg" viewBox="0 0 640 640"><!--! Font Awesome Pro 7.2.0 by @fontawesome - https://fontawesome.com License - https://fontawesome.com/license (Commercial License) Copyright 2026 Fonticons, Inc. --><path opacity=".4" fill="currentColor" d="M96 256L96 264C96 365.6 178.4 448 280 448C381.6 448 464 365.6 464 264L464 168C464 128.2 431.8 96 392 96C352.2 96 320 128.2 320 168L320 192C320 227.3 291.3 256 256 256L96 256zM416 184C416 197.3 405.3 208 392 208C378.7 208 368 197.3 368 184C368 170.7 378.7 160 392 160C405.3 160 416 170.7 416 184zM496 172.2L496 211.7L528.9 192L496 172.2z"/><path fill="currentColor" d="M392 64C436.3 64 474.1 91.8 489.1 130.8L568.2 178.3C573 181.2 576 186.4 576 192C576 197.6 573 202.8 568.2 205.7L496 249L496 264C496 352.6 442.6 428.7 366.2 462L414.1 552.5L415.3 555.5C417.4 562.6 414.3 570.5 407.4 574.1C400.5 577.7 392.3 575.9 387.6 570.2L385.8 567.5L335.6 472.7C317.8 477.4 299.2 480 279.9 480C279.8 480 279.7 480 279.6 480L318 552.5L319.2 555.5C321.3 562.6 318.2 570.5 311.3 574.1C304.4 577.7 296.2 575.9 291.5 570.2L289.7 567.5L241.5 476.5C140.7 458.4 64 370.2 64 264L64 252.4C64 237.7 75.2 225.6 89.5 224.1L92.4 223.9L256 223.9C273.7 223.9 288 209.6 288 191.9L288 167.9C288 110.6 334.6 64 392 64zM392 96C352.2 96 320 128.2 320 168L320 192C320 227.3 291.3 256 256 256L96 256L96 264C96 365.6 178.4 448 280 448C381.6 448 464 365.6 464 264L464 168C464 128.2 431.8 96 392 96zM496 211.7L528.9 192L496 172.2L496 211.7zM392 208C378.7 208 368 197.3 368 184C368 170.7 378.7 160 392 160C405.3 160 416 170.7 416 184C416 197.3 405.3 208 392 208z"/></svg>