<svg xmlns="http://www.w3.org/2000/svg" viewBox="0 0 640 640"><!--! Font Awesome Pro 7.2.0 by @fontawesome - https://fontawesome.com License - https://fontawesome.com/license (Commercial License) Copyright 2026 Fonticons, Inc. --><path opacity=".4" fill="currentColor" d=""/><path fill="currentColor" d="M102.8 198.3C196.5 104.6 348.5 104.6 442.2 198.3C535.9 292 535.9 444 442.2 537.7L437.5 542.4L459.8 564.7C466 570.9 466 581.1 459.8 587.3C453.6 593.5 443.4 593.5 437.2 587.3L53.2 203.3C47 197.1 47 186.9 53.2 180.7C59.4 174.5 69.6 174.5 75.8 180.7L98.1 203L102.8 198.3zM419.6 220.9C338.4 139.7 206.7 139.7 125.4 220.9L120.7 225.6L414.9 519.8L419.6 515.1C500.8 433.9 500.8 302.2 419.6 220.9z"/></svg>