<svg xmlns="http://www.w3.org/2000/svg" viewBox="0 0 640 640"><!--! Font Awesome Pro 7.2.0 by @fontawesome - https://fontawesome.com License - https://fontawesome.com/license (Commercial License) Copyright 2026 Fonticons, Inc. --><path opacity=".4" fill="currentColor" d="M128 128C128 110.3 142.3 96 160 96L416 96C433.7 96 448 110.3 448 128L448 400L368 400C349.9 400 333.6 407.5 322 419.5C316.4 417.2 310.4 416 304 416L272 416C245.5 416 224 437.5 224 464L224 544L160 544C142.3 544 128 529.7 128 512L128 128zM208 192L208 208C208 216.8 215.2 224 224 224L240 224C248.8 224 256 216.8 256 208L256 192C256 183.2 248.8 176 240 176L224 176C215.2 176 208 183.2 208 192zM208 304L208 320C208 328.8 215.2 336 224 336L240 336C248.8 336 256 328.8 256 320L256 304C256 295.2 248.8 288 240 288L224 288C215.2 288 208 295.2 208 304zM320 192L320 208C320 216.8 327.2 224 336 224L352 224C360.8 224 368 216.8 368 208L368 192C368 183.2 360.8 176 352 176L336 176C327.2 176 320 183.2 320 192zM320 304L320 320C320 328.8 327.2 336 336 336L352 336C360.8 336 368 328.8 368 320L368 304C368 295.2 360.8 288 352 288L336 288C327.2 288 320 295.2 320 304z"/><path fill="currentColor" d="M416 96L160 96C142.3 96 128 110.3 128 128L128 512C128 529.7 142.3 544 160 544L224 544L224 464C224 437.5 245.5 416 272 416L304 416C310.4 416 316.4 417.2 322 419.5C314.4 427.4 308.8 437.2 306 448.1C305.3 448 304.7 448 304 448L272 448C263.2 448 256 455.2 256 464L256 544L304 544L304 576L160 576C124.7 576 96 547.3 96 512L96 128C96 92.7 124.7 64 160 64L416 64C451.3 64 480 92.7 480 128L480 400L448 400L448 128C448 110.3 433.7 96 416 96zM336 176L352 176C360.8 176 368 183.2 368 192L368 208C368 216.8 360.8 224 352 224L336 224C327.2 224 320 216.8 320 208L320 192C320 183.2 327.2 176 336 176zM320 304C320 295.2 327.2 288 336 288L352 288C360.8 288 368 295.2 368 304L368 320C368 328.8 360.8 336 352 336L336 336C327.2 336 320 328.8 320 320L320 304zM224 176L240 176C248.8 176 256 183.2 256 192L256 208C256 216.8 248.8 224 240 224L224 224C215.2 224 208 216.8 208 208L208 192C208 183.2 215.2 176 224 176zM208 304C208 295.2 215.2 288 224 288L240 288C248.8 288 256 295.2 256 304L256 320C256 328.8 248.8 336 240 336L224 336C215.2 336 208 328.8 208 320L208 304zM492.3 448.4C499.5 446.7 507 450.2 510.3 456.8L544 524.2L544 464C544 455.2 551.2 448 560 448C568.8 448 576 455.2 576 464L576 592C576 599.4 570.9 605.9 563.7 607.6C556.5 609.3 549 605.8 545.7 599.2L512 531.8L512 592C512 600.8 504.8 608 496 608C487.2 608 480 600.8 480 592L480 464C480 456.6 485.1 450.1 492.3 448.4zM384 464L384 560C384 568.8 391.2 576 400 576C408.8 576 416 568.8 416 560L416 464C416 455.2 423.2 448 432 448C440.8 448 448 455.2 448 464L448 560C448 586.5 426.5 608 400 608C373.5 608 352 586.5 352 560L352 464C352 455.2 359.2 448 368 448C376.8 448 384 455.2 384 464z"/></svg>