<svg xmlns="http://www.w3.org/2000/svg" viewBox="0 0 640 640"><!--! Font Awesome Pro 7.2.0 by @fontawesome - https://fontawesome.com License - https://fontawesome.com/license (Commercial License) Copyright 2026 Fonticons, Inc. --><path opacity=".4" fill="currentColor" d="M160 224L160 296C160 335.8 192.2 368 232 368L240 368C248.8 368 256 375.2 256 384L256 528C256 536.8 263.2 544 272 544L368 544C376.8 544 384 536.8 384 528L384 496C384 487.2 391.2 480 400 480L408 480C447.8 480 480 447.8 480 408L480 336C480 318.3 465.7 304 448 304C430.3 304 416 318.3 416 336L416 400C416 408.8 408.8 416 400 416C399.9 416.6 399.5 417 398.9 417L398.9 415.9C390.6 415.3 384 408.4 384 399.9L384 159.9C384 124.6 355.3 95.9 320 95.9C284.7 95.9 256 124.6 256 159.9L256 287.9C256 296.7 248.8 303.9 240 303.9C231.2 303.9 224 296.7 224 287.9L224 223.9C224 206.2 209.7 191.9 192 191.9C174.3 191.9 160 206.2 160 223.9zM328 224C328 237.3 317.3 248 304 248C290.7 248 280 237.3 280 224C280 210.7 290.7 200 304 200C317.3 200 328 210.7 328 224zM360 384C360 397.3 349.3 408 336 408C322.7 408 312 397.3 312 384C312 370.7 322.7 360 336 360C349.3 360 360 370.7 360 384z"/><path fill="currentColor" d="M320 64C373 64 416 107 416 160L416 280.6C425.4 275.1 436.3 272 448 272C483.3 272 512 300.7 512 336L512 408C512 462.7 469.7 507.6 416 511.7L416 528C416 554.5 394.5 576 368 576L272 576C245.5 576 224 554.5 224 528L224 399.7C170.3 395.6 128 350.7 128 296L128 224C128 188.7 156.7 160 192 160C203.7 160 214.6 163.2 224 168.6L224 160C224 107 267 64 320 64zM320 96C284.7 96 256 124.7 256 160L256 288C256 296.8 248.8 304 240 304C231.2 304 224 296.8 224 288L224 224C224 206.3 209.7 192 192 192C174.3 192 160 206.3 160 224L160 296C160 335.8 192.2 368 232 368L240 368C248.8 368 256 375.2 256 384L256 528C256 536.8 263.2 544 272 544L368 544C376.8 544 384 536.8 384 528L384 496C384 487.2 391.2 480 400 480L408 480C447.8 480 480 447.8 480 408L480 336C480 318.3 465.7 304 448 304C430.3 304 416 318.3 416 336L416 400C416 408.8 408.8 416 400 416C391.2 416 384 408.8 384 400L384 160C384 124.7 355.3 96 320 96zM336 408C322.7 408 312 397.3 312 384C312 370.7 322.7 360 336 360C349.3 360 360 370.7 360 384C360 397.3 349.3 408 336 408zM304 248C290.7 248 280 237.3 280 224C280 210.7 290.7 200 304 200C317.3 200 328 210.7 328 224C328 237.3 317.3 248 304 248z"/></svg>