<svg xmlns="http://www.w3.org/2000/svg" viewBox="0 0 640 640"><!--! Font Awesome Pro 7.2.0 by @fontawesome - https://fontawesome.com License - https://fontawesome.com/license (Commercial License) Copyright 2026 Fonticons, Inc. --><path opacity=".4" fill="currentColor" d="M128 192L128 480C128 497.7 142.3 512 160 512L480 512C497.7 512 512 497.7 512 480L512 192C512 174.3 497.7 160 480 160L160 160C142.3 160 128 174.3 128 192zM192 304C192 295.2 199.2 288 208 288L432 288C440.8 288 448 295.2 448 304C448 312.8 440.8 320 432 320L208 320C199.2 320 192 312.8 192 304zM192 400C192 391.2 199.2 384 208 384L336 384C344.8 384 352 391.2 352 400C352 408.8 344.8 416 336 416L208 416C199.2 416 192 408.8 192 400z"/><path fill="currentColor" d="M224 80C224 71.2 216.8 64 208 64C199.2 64 192 71.2 192 80L192 128L160 128C124.7 128 96 156.7 96 192L96 480C96 515.3 124.7 544 160 544L480 544C515.3 544 544 515.3 544 480L544 192C544 156.7 515.3 128 480 128L448 128L448 80C448 71.2 440.8 64 432 64C423.2 64 416 71.2 416 80L416 128L224 128L224 80zM160 160L480 160C497.7 160 512 174.3 512 192L512 480C512 497.7 497.7 512 480 512L160 512C142.3 512 128 497.7 128 480L128 192C128 174.3 142.3 160 160 160zM192 304C192 312.8 199.2 320 208 320L432 320C440.8 320 448 312.8 448 304C448 295.2 440.8 288 432 288L208 288C199.2 288 192 295.2 192 304zM208 384C199.2 384 192 391.2 192 400C192 408.8 199.2 416 208 416L336 416C344.8 416 352 408.8 352 400C352 391.2 344.8 384 336 384L208 384z"/></svg>