<svg xmlns="http://www.w3.org/2000/svg" viewBox="0 0 640 640"><!--! Font Awesome Pro 7.2.0 by @fontawesome - https://fontawesome.com License - https://fontawesome.com/license (Commercial License) Copyright 2026 Fonticons, Inc. --><path opacity=".4" fill="currentColor" d="M128 112C128 103.2 135.2 96 144 96L304 96L304 192L128 192L128 112zM128 224L304 224L304 320L128 320L128 224zM128 352L512 352L512 512L128 512L128 352zM272 432C272 440.8 279.2 448 288 448L352 448C360.8 448 368 440.8 368 432C368 423.2 360.8 416 352 416L288 416C279.2 416 272 423.2 272 432zM336 96L496 96C504.8 96 512 103.2 512 112L512 192L336 192L336 96zM336 224L512 224L512 320L336 320L336 224z"/><path fill="currentColor" d="M496 64C522.5 64 544 85.5 544 112L544 560C544 568.8 536.8 576 528 576C519.2 576 512 568.8 512 560L512 544L128 544L128 560C128 568.8 120.8 576 112 576C103.2 576 96 568.8 96 560L96 112C96 85.5 117.5 64 144 64L496 64zM128 352L128 512L512 512L512 352L128 352zM352 416C360.8 416 368 423.2 368 432C368 440.8 360.8 448 352 448L288 448C279.2 448 272 440.8 272 432C272 423.2 279.2 416 288 416L352 416zM128 320L304 320L304 224L128 224L128 320zM336 320L512 320L512 224L336 224L336 320zM144 96C135.2 96 128 103.2 128 112L128 192L304 192L304 96L144 96zM336 192L512 192L512 112C512 103.2 504.8 96 496 96L336 96L336 192z"/></svg>