<svg xmlns="http://www.w3.org/2000/svg" viewBox="0 0 640 640"><!--! Font Awesome Pro 7.2.0 by @fontawesome - https://fontawesome.com License - https://fontawesome.com/license (Commercial License) Copyright 2026 Fonticons, Inc. --><path opacity=".4" fill="currentColor" d="M96 320C96 443.7 196.3 544 320 544C443.7 544 544 443.7 544 320C544 196.3 443.7 96 320 96C196.3 96 96 196.3 96 320zM256 240C256 231.2 263.2 224 272 224L368 224C376.8 224 384 231.2 384 240C384 248.8 376.8 256 368 256L288 256L288 296L340 296C373.1 296 400 322.9 400 356C400 389.1 373.1 416 340 416L272 416C263.2 416 256 408.8 256 400C256 391.2 263.2 384 272 384L340 384C355.5 384 368 371.5 368 356C368 340.5 355.5 328 340 328L272 328C263.2 328 256 320.8 256 312L256 240z"/><path fill="currentColor" d="M320 96C443.7 96 544 196.3 544 320C544 443.7 443.7 544 320 544C196.3 544 96 443.7 96 320C96 196.3 196.3 96 320 96zM320 576C461.4 576 576 461.4 576 320C576 178.6 461.4 64 320 64C178.6 64 64 178.6 64 320C64 461.4 178.6 576 320 576zM368 224L272 224C263.2 224 256 231.2 256 240L256 312C256 320.8 263.2 328 272 328L340 328C355.5 328 368 340.5 368 356C368 371.5 355.5 384 340 384L272 384C263.2 384 256 391.2 256 400C256 408.8 263.2 416 272 416L340 416C373.1 416 400 389.1 400 356C400 322.9 373.1 296 340 296L288 296L288 256L368 256C376.8 256 384 248.8 384 240C384 231.2 376.8 224 368 224z"/></svg>