<svg xmlns="http://www.w3.org/2000/svg" viewBox="0 0 640 640"><!--! Font Awesome Pro 7.2.0 by @fontawesome - https://fontawesome.com License - https://fontawesome.com/license (Commercial License) Copyright 2026 Fonticons, Inc. --><path opacity=".4" fill="currentColor" d="M96 320C96 443.7 196.3 544 320 544C443.7 544 544 443.7 544 320C544 196.3 443.7 96 320 96C196.3 96 96 196.3 96 320zM217.3 320C217.3 263.3 263.3 217.3 320 217.3C376.7 217.3 422.7 263.3 422.7 320C422.7 343.1 415.1 364.3 402.3 381.5L418.4 397.6C424.1 403.3 424.1 412.6 418.4 418.3C412.7 424 403.4 424 397.7 418.3L381.6 402.2C364.5 415 343.2 422.6 320.1 422.6C263.4 422.6 217.4 376.6 217.4 319.9zM246.6 320C246.6 360.5 279.4 393.3 319.9 393.3C334.8 393.3 348.7 388.8 360.3 381.1L325.5 346.3C319.8 340.6 319.8 331.3 325.5 325.6C331.2 319.9 340.5 319.9 346.2 325.6L381 360.4C388.7 348.8 393.2 334.9 393.2 320C393.2 279.5 360.4 246.7 319.9 246.7C279.4 246.7 246.6 279.5 246.6 320z"/><path fill="currentColor" d="M320 96C443.7 96 544 196.3 544 320C544 443.7 443.7 544 320 544C196.3 544 96 443.7 96 320C96 196.3 196.3 96 320 96zM320 576C461.4 576 576 461.4 576 320C576 178.6 461.4 64 320 64C178.6 64 64 178.6 64 320C64 461.4 178.6 576 320 576zM246.7 320C246.7 279.5 279.5 246.7 320 246.7C360.5 246.7 393.3 279.5 393.3 320C393.3 334.9 388.8 348.8 381.1 360.4L346.3 325.6C340.6 319.9 331.3 319.9 325.6 325.6C319.9 331.3 319.9 340.6 325.6 346.3L360.4 381.1C348.8 388.8 334.9 393.3 320 393.3C279.5 393.3 246.7 360.5 246.7 320zM422.7 320C422.7 263.3 376.7 217.3 320 217.3C263.3 217.3 217.3 263.3 217.3 320C217.3 376.7 263.3 422.7 320 422.7C343.1 422.7 364.3 415.1 381.5 402.3L397.6 418.4C403.3 424.1 412.6 424.1 418.3 418.4C424 412.7 424 403.4 418.3 397.7L402.2 381.6C415 364.5 422.6 343.2 422.6 320.1z"/></svg>