<svg xmlns="http://www.w3.org/2000/svg" viewBox="0 0 640 640"><!--! Font Awesome Pro 7.2.0 by @fontawesome - https://fontawesome.com License - https://fontawesome.com/license (Commercial License) Copyright 2026 Fonticons, Inc. --><path opacity=".4" fill="currentColor" d="M96 320C96 443.7 196.3 544 320 544C443.7 544 544 443.7 544 320C544 196.3 443.7 96 320 96C196.3 96 96 196.3 96 320zM184.5 320C184.5 244.9 245.4 184 320.5 184C356.6 184 389.5 198.1 413.8 221.1C420.2 227.2 420.5 237.3 414.4 243.7C408.3 250.1 398.2 250.4 391.8 244.4C373.2 226.8 348.1 216 320.4 216C263 216 216.4 262.6 216.4 320C216.4 371.8 254.3 414.8 303.9 422.7L304 312C304 303.2 311.2 296 320 296C328.8 296 336 303.2 336 312L336 316.1C347.4 308.4 361.2 304 376 304C384.8 304 392 311.2 392 320C392 328.8 384.8 336 376 336C353.9 336 336 353.9 336 376L336 422.9C357.5 419.7 376.8 409.9 391.8 395.7C398.2 389.6 408.4 389.9 414.4 396.3C420.4 402.7 420.2 412.9 413.8 418.9C389.5 441.9 356.6 456 320.5 456C245.4 456 184.5 395.1 184.5 320z"/><path fill="currentColor" d="M320 96C443.7 96 544 196.3 544 320C544 443.7 443.7 544 320 544C196.3 544 96 443.7 96 320C96 196.3 196.3 96 320 96zM320 576C461.4 576 576 461.4 576 320C576 178.6 461.4 64 320 64C178.6 64 64 178.6 64 320C64 461.4 178.6 576 320 576zM216.5 320C216.5 262.6 263.1 216 320.5 216C348.1 216 373.2 226.8 391.9 244.4C398.3 250.5 408.5 250.2 414.5 243.7C420.5 237.2 420.3 227.1 413.9 221.1C389.6 198.1 356.7 184 320.6 184C245.5 184 184.6 244.9 184.6 320C184.6 395.1 245.5 456 320.6 456C356.7 456 389.6 441.9 413.9 418.9C420.3 412.8 420.6 402.7 414.5 396.3C408.4 389.9 398.3 389.6 391.9 395.7C376.8 409.9 357.5 419.7 336.1 422.9L336.1 376C336.1 353.9 354 336 376.1 336C384.9 336 392.1 328.8 392.1 320C392.1 311.2 384.9 304 376.1 304C361.3 304 347.5 308.5 336.1 316.1L336.1 312C336.1 303.2 328.9 296 320.1 296C311.3 296 304.1 303.2 304.1 312L304.1 422.7C254.5 414.8 216.6 371.8 216.6 320z"/></svg>