<svg xmlns="http://www.w3.org/2000/svg" viewBox="0 0 640 640"><!--! Font Awesome Pro 7.2.0 by @fontawesome - https://fontawesome.com License - https://fontawesome.com/license (Commercial License) Copyright 2026 Fonticons, Inc. --><path opacity=".4" fill="currentColor" d="M96 320C96 443.7 196.3 544 320 544C443.7 544 544 443.7 544 320C544 196.3 443.7 96 320 96C196.3 96 96 196.3 96 320zM209.8 423.4C207 418.1 207.5 411.7 210.9 406.8L241.7 362.8C244.1 359.4 246.2 355.7 247.9 351.9L240.1 351.9C231.3 351.9 224.1 344.7 224.1 335.9C224.1 327.1 231.3 319.9 240.1 319.9L253.6 319.9C253.1 313.4 251.7 306.9 249.3 300.7L247.4 295.9L240.1 295.9C231.3 295.9 224.1 288.7 224.1 279.9C224.1 271.8 230.2 265.1 238 264C233.2 218.5 268.8 175.9 317.6 175.9L318.9 175.9C344.4 175.9 368.8 186 386.8 204L395.4 212.6C401.6 218.8 401.6 229 395.4 235.2C389.2 241.4 379 241.4 372.8 235.2L364.2 226.6C352.2 214.6 335.9 207.9 318.9 207.9L317.6 207.9C287.2 207.9 265.3 235.4 270.2 263.9L368 263.9C376.8 263.9 384 271.1 384 279.9C384 288.7 376.8 295.9 368 295.9L281.3 295.9C283.7 303.8 285.1 311.8 285.5 319.9L368 319.9C376.8 319.9 384 327.1 384 335.9C384 344.7 376.8 351.9 368 351.9L281.8 351.9C278.8 362.2 274.2 372.1 267.9 381.1L254.7 400L400 400C408.8 400 416 407.2 416 416C416 424.8 408.8 432 400 432L224 432C218 432 212.6 428.7 209.8 423.4z"/><path fill="currentColor" d="M320 96C443.7 96 544 196.3 544 320C544 443.7 443.7 544 320 544C196.3 544 96 443.7 96 320C96 196.3 196.3 96 320 96zM320 576C461.4 576 576 461.4 576 320C576 178.6 461.4 64 320 64C178.6 64 64 178.6 64 320C64 461.4 178.6 576 320 576zM247.3 296L249.2 300.8C251.6 307 253.1 313.5 253.5 320L240 320C231.2 320 224 327.2 224 336C224 344.8 231.2 352 240 352L247.8 352C246.1 355.8 244.1 359.4 241.6 362.9L210.8 406.9C207.4 411.8 207 418.2 209.7 423.5C212.4 428.8 218 432 224 432L400 432C408.8 432 416 424.8 416 416C416 407.2 408.8 400 400 400L254.7 400L267.9 381.2C274.2 372.2 278.9 362.3 281.8 352L368 352C376.8 352 384 344.8 384 336C384 327.2 376.8 320 368 320L285.5 320C285.1 311.9 283.7 303.9 281.3 296L368 296C376.8 296 384 288.8 384 280C384 271.2 376.8 264 368 264L270.2 264C265.3 235.5 287.1 208 317.6 208L318.9 208C335.9 208 352.2 214.7 364.2 226.7L372.8 235.3C379 241.5 389.2 241.5 395.4 235.3C401.6 229.1 401.6 218.9 395.4 212.7L386.8 204.1C368.8 186.1 344.4 176 318.9 176L317.6 176C268.8 176 233.2 218.6 238 264.1C230.2 265.1 224.1 271.8 224.1 280C224.1 288.8 231.3 296 240.1 296L247.4 296z"/></svg>