<svg xmlns="http://www.w3.org/2000/svg" viewBox="0 0 640 640"><!--! Font Awesome Pro 7.2.0 by @fontawesome - https://fontawesome.com License - https://fontawesome.com/license (Commercial License) Copyright 2026 Fonticons, Inc. --><path opacity=".4" fill="currentColor" d="M96 304C96 350.7 112.5 393.8 140.8 428.8C148.9 438.9 150.2 452.9 144 464.2L103.8 537.8L204.8 494.5C212.7 491.1 221.6 491 229.6 494.3C257.2 505.6 287.8 511.9 320 511.9C445.7 511.9 544 416.9 544 303.9C544 190.9 445.7 96 320 96C194.3 96 96 191 96 304zM216 304C216 317.3 205.3 328 192 328C178.7 328 168 317.3 168 304C168 290.7 178.7 280 192 280C205.3 280 216 290.7 216 304zM344 304C344 317.3 333.3 328 320 328C306.7 328 296 317.3 296 304C296 290.7 306.7 280 320 280C333.3 280 344 290.7 344 304zM472 304C472 317.3 461.3 328 448 328C434.7 328 424 317.3 424 304C424 290.7 434.7 280 448 280C461.3 280 472 290.7 472 304z"/><path fill="currentColor" d="M144 464.2C150.2 452.8 148.9 438.8 140.8 428.8C112.6 393.9 96 350.7 96 304C96 191 194.3 96 320 96C445.7 96 544 191 544 304C544 417 445.7 512 320 512C287.7 512 257.2 505.7 229.6 494.4C221.7 491.1 212.7 491.2 204.8 494.6L103.8 537.8L144 464.2zM64 304C64 358.4 83.3 408.6 115.9 448.9L67.1 538.3C65.1 542 64 546.2 64 550.5C64 564.6 75.4 576 89.5 576C93.5 576 97.3 575.4 101 573.9L217.4 524C248.8 536.9 283.5 544 320 544C461.4 544 576 436.5 576 304C576 171.5 461.4 64 320 64C178.6 64 64 171.5 64 304zM192 328C205.3 328 216 317.3 216 304C216 290.7 205.3 280 192 280C178.7 280 168 290.7 168 304C168 317.3 178.7 328 192 328zM320 328C333.3 328 344 317.3 344 304C344 290.7 333.3 280 320 280C306.7 280 296 290.7 296 304C296 317.3 306.7 328 320 328zM472 304C472 290.7 461.3 280 448 280C434.7 280 424 290.7 424 304C424 317.3 434.7 328 448 328C461.3 328 472 317.3 472 304z"/></svg>