<svg xmlns="http://www.w3.org/2000/svg" viewBox="0 0 640 640"><!--! Font Awesome Pro 7.2.0 by @fontawesome - https://fontawesome.com License - https://fontawesome.com/license (Commercial License) Copyright 2026 Fonticons, Inc. --><path opacity=".4" fill="currentColor" d="M96 192L96 416C96 451.3 124.7 480 160 480L200 480C213.3 480 224 490.7 224 504L224 572L336 488C342.9 482.8 351.3 480 360 480L480 480C515.3 480 544 451.3 544 416L544 192C544 156.7 515.3 128 480 128L160 128C124.7 128 96 156.7 96 192zM224 304C224 295.2 231.2 288 240 288L400 288C408.8 288 416 295.2 416 304C416 312.8 408.8 320 400 320L240 320C231.2 320 224 312.8 224 304z"/><path fill="currentColor" d="M243.2 597.6L243.2 597.6L355.2 513.6C356.6 512.6 358.3 512 360 512L480 512C533 512 576 469 576 416L576 192C576 139 533 96 480 96L160 96C107 96 64 139 64 192L64 416C64 469 107 512 160 512L192 512L192 580C192 595.5 204.5 608 220 608C226.1 608 232 606 236.8 602.4L243.2 597.6zM224 512L224 504C224 490.7 213.3 480 200 480L160 480C124.7 480 96 451.3 96 416L96 192C96 156.7 124.7 128 160 128L480 128C515.3 128 544 156.7 544 192L544 416C544 451.3 515.3 480 480 480L360 480C351.3 480 342.9 482.8 336 488L224 572L224 512zM240 288C231.2 288 224 295.2 224 304C224 312.8 231.2 320 240 320L400 320C408.8 320 416 312.8 416 304C416 295.2 408.8 288 400 288L240 288z"/></svg>