<svg xmlns="http://www.w3.org/2000/svg" viewBox="0 0 640 640"><!--! Font Awesome Pro 7.2.0 by @fontawesome - https://fontawesome.com License - https://fontawesome.com/license (Commercial License) Copyright 2026 Fonticons, Inc. --><path opacity=".4" fill="currentColor" d="M96 304C96 350.7 112.5 393.8 140.8 428.8C148.9 438.9 150.2 452.9 144 464.2L103.8 537.8L204.8 494.5C212.7 491.1 221.6 491 229.6 494.3C257.2 505.6 287.8 511.9 320 511.9C445.7 511.9 544 416.9 544 303.9C544 190.9 445.7 96 320 96C194.3 96 96 191 96 304zM192 272C192 263.2 199.2 256 208 256L432 256C440.8 256 448 263.2 448 272C448 280.8 440.8 288 432 288L208 288C199.2 288 192 280.8 192 272zM192 368C192 359.2 199.2 352 208 352L336 352C344.8 352 352 359.2 352 368C352 376.8 344.8 384 336 384L208 384C199.2 384 192 376.8 192 368z"/><path fill="currentColor" d="M144 464.2C150.2 452.8 148.9 438.8 140.8 428.8C112.6 393.9 96 350.7 96 304C96 191 194.3 96 320 96C445.7 96 544 191 544 304C544 417 445.7 512 320 512C287.7 512 257.2 505.7 229.6 494.4C221.7 491.1 212.7 491.2 204.8 494.6L103.8 537.8L144 464.2zM64 304C64 358.4 83.3 408.6 115.9 448.9L67.1 538.3C65.1 542 64 546.2 64 550.5C64 564.6 75.4 576 89.5 576C93.5 576 97.3 575.4 101 573.9L217.4 524C248.8 536.9 283.5 544 320 544C461.4 544 576 436.5 576 304C576 171.5 461.4 64 320 64C178.6 64 64 171.5 64 304zM208 256C199.2 256 192 263.2 192 272C192 280.8 199.2 288 208 288L432 288C440.8 288 448 280.8 448 272C448 263.2 440.8 256 432 256L208 256zM208 352C199.2 352 192 359.2 192 368C192 376.8 199.2 384 208 384L336 384C344.8 384 352 376.8 352 368C352 359.2 344.8 352 336 352L208 352z"/></svg>