<svg xmlns="http://www.w3.org/2000/svg" viewBox="0 0 640 640"><!--! Font Awesome Pro 7.2.0 by @fontawesome - https://fontawesome.com License - https://fontawesome.com/license (Commercial License) Copyright 2026 Fonticons, Inc. --><path opacity=".4" fill="currentColor" d="M96 304C96 350.7 112.5 393.8 140.8 428.8C148.9 438.9 150.2 452.9 144 464.2L103.8 537.8L204.8 494.5C212.7 491.1 221.6 491 229.6 494.3C257.2 505.6 287.8 511.9 320 511.9C445.7 511.9 544 416.9 544 303.9C544 190.9 445.7 96 320 96C194.3 96 96 191 96 304zM236.7 300.7C242.9 294.5 253.1 294.5 259.3 300.7L304 345.4L304 224C304 215.2 311.2 208 320 208C328.8 208 336 215.2 336 224L336 345.4L380.7 300.7C386.9 294.5 397.1 294.5 403.3 300.7C409.5 306.9 409.5 317.1 403.3 323.3L331.3 395.3C325.1 401.5 314.9 401.5 308.7 395.3L236.7 323.3C230.5 317.1 230.5 306.9 236.7 300.7z"/><path fill="currentColor" d="M144 464.2C150.2 452.8 148.9 438.8 140.8 428.8C112.6 393.9 96 350.7 96 304C96 191 194.3 96 320 96C445.7 96 544 191 544 304C544 417 445.7 512 320 512C287.7 512 257.2 505.7 229.6 494.4C221.7 491.1 212.7 491.2 204.8 494.6L103.8 537.8L144 464.2zM64 304C64 358.4 83.3 408.6 115.9 448.9L67.1 538.3C65.1 542 64 546.2 64 550.5C64 564.6 75.4 576 89.5 576C93.5 576 97.3 575.4 101 573.9L217.4 524C248.8 536.9 283.5 544 320 544C461.4 544 576 436.5 576 304C576 171.5 461.4 64 320 64C178.6 64 64 171.5 64 304zM308.7 395.3C314.9 401.5 325.1 401.5 331.3 395.3L403.3 323.3C409.5 317.1 409.5 306.9 403.3 300.7C397.1 294.5 386.9 294.5 380.7 300.7L336 345.4L336 224C336 215.2 328.8 208 320 208C311.2 208 304 215.2 304 224L304 345.4L259.3 300.7C253.1 294.5 242.9 294.5 236.7 300.7C230.5 306.9 230.5 317.1 236.7 323.3L308.7 395.3z"/></svg>