<svg xmlns="http://www.w3.org/2000/svg" viewBox="0 0 640 640"><!--! Font Awesome Pro 7.2.0 by @fontawesome - https://fontawesome.com License - https://fontawesome.com/license (Commercial License) Copyright 2026 Fonticons, Inc. --><path opacity=".4" fill="currentColor" d="M96 344L96 416L544 416L544 344C544 330.7 533.3 320 520 320L120 320C106.7 320 96 330.7 96 344zM96 448L96 520C96 533.3 106.7 544 120 544L520 544C533.3 544 544 533.3 544 520L544 448L96 448zM160 368C160 376.8 152.8 384 144 384C135.2 384 128 376.8 128 368C128 359.2 135.2 352 144 352C152.8 352 160 359.2 160 368zM160 496C160 504.8 152.8 512 144 512C135.2 512 128 504.8 128 496C128 487.2 135.2 480 144 480C152.8 480 160 487.2 160 496zM512 368C512 376.8 504.8 384 496 384C487.2 384 480 376.8 480 368C480 359.2 487.2 352 496 352C504.8 352 512 359.2 512 368zM512 496C512 504.8 504.8 512 496 512C487.2 512 480 504.8 480 496C480 487.2 487.2 480 496 480C504.8 480 512 487.2 512 496z"/><path fill="currentColor" d="M544 448L544 520C544 533.3 533.3 544 520 544L120 544C106.7 544 96 533.3 96 520L96 448L544 448zM544 416L96 416L96 344C96 330.7 106.7 320 120 320L520 320C533.3 320 544 330.7 544 344L544 416zM576 416L576 344C576 313.1 550.9 288 520 288L120 288C89.1 288 64 313.1 64 344L64 520C64 550.9 89.1 576 120 576L520 576C550.9 576 576 550.9 576 520L576 416zM160 368C160 359.2 152.8 352 144 352C135.2 352 128 359.2 128 368C128 376.8 135.2 384 144 384C152.8 384 160 376.8 160 368zM496 384C504.8 384 512 376.8 512 368C512 359.2 504.8 352 496 352C487.2 352 480 359.2 480 368C480 376.8 487.2 384 496 384zM160 496C160 487.2 152.8 480 144 480C135.2 480 128 487.2 128 496C128 504.8 135.2 512 144 512C152.8 512 160 504.8 160 496zM496 512C504.8 512 512 504.8 512 496C512 487.2 504.8 480 496 480C487.2 480 480 487.2 480 496C480 504.8 487.2 512 496 512z"/></svg>