<svg xmlns="http://www.w3.org/2000/svg" viewBox="0 0 640 640"><!--! Font Awesome Pro 7.2.0 by @fontawesome - https://fontawesome.com License - https://fontawesome.com/license (Commercial License) Copyright 2026 Fonticons, Inc. --><path opacity=".4" fill="currentColor" d="M132.9 236.6L144 81.1C144.4 75.6 142 70.6 138 67.4L138.6 63.9L277.6 63.9L278.2 67.4C274.2 70.6 271.8 75.6 272.2 81.1L283.3 236.5C285.3 264.3 263.3 287.9 235.4 287.9L180.9 287.9C153 287.9 131 264.3 133 236.5zM160 239.2C159.6 248 166.4 255.5 175.2 256C184 256.5 191.5 249.6 192 240.8L200 80.8C200.4 72 193.6 64.5 184.8 64C184.6 64 184.3 64 184.1 64C175.5 64 168.5 70.7 168.1 79.2L160.1 239.2zM216 80.8L224 240.8C224.4 249.6 232 256.4 240.8 256C249.6 255.6 256.4 248 256 239.2L248 79.2C247.6 70.7 240.5 64 232.1 64C231.7 64 231.5 64 231.2 64C222.4 64.4 215.6 72 216 80.8zM416 200C416 145.3 458.3 100.4 512 96.3L512 384L448 384C430.3 384 416 369.7 416 352L416 200z"/><path fill="currentColor" d="M129.1 64C138 64.7 144.6 72.3 144 81.1L132.9 236.6C130.9 264.4 152.9 288 180.8 288L235.3 288C263.2 288 285.2 264.4 283.2 236.6L272 81.1C271.4 72.3 278 64.7 286.9 64C295.8 63.3 303.3 70 304 78.9L315.1 234.3C318.4 280.6 281.7 320 235.3 320L224 320L224 560C224 568.8 216.8 576 208 576C199.2 576 192 568.8 192 560L192 320L180.7 320C134.3 320 97.6 280.6 100.9 234.3L112 78.9C112.7 70 120.3 63.4 129.1 64zM184.8 64C193.6 64.4 200.4 72 200 80.8L192 240.8C191.6 249.6 184 256.4 175.2 256C166.4 255.6 159.6 248 160 239.2L168 79.2C168.5 70.4 176 63.6 184.8 64zM231.2 64C240 63.6 247.5 70.4 248 79.2L256 239.2C256.4 248 249.6 255.5 240.8 256C232 256.5 224.5 249.6 224 240.8L216 80.8C215.6 72 222.4 64.5 231.2 64zM384 200C384 124.9 444.9 64 520 64L528 64C536.8 64 544 71.2 544 80L544 560C544 568.8 536.8 576 528 576C519.2 576 512 568.8 512 560L512 416L448 416C412.7 416 384 387.3 384 352L384 200zM512 384L512 96.3C458.3 100.4 416 145.3 416 200L416 352C416 369.7 430.3 384 448 384L512 384z"/></svg>