<svg xmlns="http://www.w3.org/2000/svg" viewBox="0 0 640 640"><!--! Font Awesome Pro 7.2.0 by @fontawesome - https://fontawesome.com License - https://fontawesome.com/license (Commercial License) Copyright 2026 Fonticons, Inc. --><path opacity=".4" fill="currentColor" d="M32 271.8L32 277.2C32 300.8 51.1 319.9 74.7 319.9C84.7 319.9 94.4 316.4 102.1 310L133.8 283.6C137.9 280.2 143.3 279.1 148.4 280.5C153.5 281.9 157.5 285.8 159.2 290.8L190.2 383.9L544 383.9L544 271.9C544 245.4 522.6 224 496.1 223.9L277.5 223.9C264.5 223.9 252.1 218.7 243.1 209.4L194.4 159.4C189 153.9 188.3 145.3 192.8 139C197.5 132.4 200 125.9 200 119.9C200 116.7 199.2 111.6 197.4 106.5C196.3 103.4 195.1 101 194 99.2C193.8 99.4 193.6 99.5 193.3 99.7L155.7 131.4C153.4 133.3 150.6 134.6 147.7 135C147.1 135.1 146.6 135.2 146 135.3C141.3 136.2 136.4 134.9 132.7 131.8L94.6 99.8C94.4 99.6 94.1 99.4 93.9 99.3C92.8 101.1 91.6 103.6 90.5 106.6C88.7 111.8 87.9 116.9 87.9 120C87.9 129.5 94.1 139.6 103.2 148.7C109.1 154.6 109.5 164.1 104 170.5L43.7 240.4C36.1 249.2 32 260.3 32 271.8zM296 304C296 317.3 285.3 328 272 328C258.7 328 248 317.3 248 304C248 290.7 258.7 280 272 280C285.3 280 296 290.7 296 304zM392 304C392 317.3 381.3 328 368 328C354.7 328 344 317.3 344 304C344 290.7 354.7 280 368 280C381.3 280 392 290.7 392 304zM488 304C488 317.3 477.3 328 464 328C450.7 328 440 317.3 440 304C440 290.7 450.7 280 464 280C477.3 280 488 290.7 488 304z"/><path fill="currentColor" d="M213.3 72.6C205.7 65.6 196.4 65 189.3 66.6C182.6 68.1 176.9 71.8 172.8 75.2L144 99.5L115.2 75.3C111.1 71.9 105.4 68.2 98.7 66.7C91.5 65 82.3 65.7 74.7 72.7C67.5 79.3 63 88.4 60.3 96.2C57.5 104.2 56 112.8 56 120.1C56 136.1 62.9 149.7 70.8 160.2L19.5 219.5C6.9 234 0 252.6 0 271.8L0 277.2C0 318.5 33.5 351.9 74.7 351.9C92.2 351.9 109.1 345.8 122.5 334.6L136.2 323.2L160 394.5L160 527.9C160 554.4 181.5 575.9 208 575.9L256 575.9C282.5 575.9 304 554.4 304 527.9L304 479.9L432 479.9L432 527.9C432 554.4 453.5 575.9 480 575.9L528 575.9C554.5 575.9 576 554.4 576 527.9L576 271.9C576 256.3 571.5 241.8 563.8 229.5C589.7 240.4 608 266 608 295.9C608 304.7 615.2 311.9 624 311.9C632.8 311.9 640 304.7 640 295.9C640 238.5 593.4 191.9 536 191.9L277.5 191.9C273.2 191.9 269 190.2 266 187.1L225.9 145.9C229.5 138.3 232 129.6 232 120C232 112.8 230.4 104.1 227.7 96.1C225 88.3 220.5 79.2 213.3 72.6zM440 224L496.1 224C522.6 224.1 544 245.5 544 272L544 384L190.2 384L159.2 290.9C157.5 285.9 153.5 282 148.4 280.6C143.3 279.2 137.8 280.3 133.8 283.7L102.1 310.1C94.4 316.5 84.7 320 74.7 320C51.1 320 32 300.9 32 277.3L32 271.9C32 260.4 36.1 249.2 43.7 240.5L104.1 170.6C109.6 164.3 109.2 154.7 103.3 148.8C94.2 139.7 88 129.6 88 120.1C88 116.9 88.8 111.8 90.6 106.7C91.7 103.6 92.9 101.2 94 99.4C94.2 99.6 94.4 99.7 94.7 99.9L132.8 132C136.5 135.1 141.3 136.4 146.1 135.5C146.7 135.4 147.2 135.3 147.8 135.2C150.8 134.8 153.5 133.5 155.8 131.6L193.5 99.9C193.7 99.7 194 99.5 194.2 99.4C195.3 101.2 196.5 103.7 197.6 106.7C199.4 111.9 200.2 117 200.2 120.1C200.2 126.2 197.7 132.6 193 139.2C188.6 145.5 189.2 154.1 194.6 159.6L243.3 209.6C252.3 218.9 264.7 224.1 277.7 224.1L440 224zM192 528L192 416L544 416L544 528C544 536.8 536.8 544 528 544L480 544C471.2 544 464 536.8 464 528L464 464C464 455.2 456.8 448 448 448L288 448C279.2 448 272 455.2 272 464L272 528C272 536.8 264.8 544 256 544L208 544C199.2 544 192 536.8 192 528zM272 328C285.3 328 296 317.3 296 304C296 290.7 285.3 280 272 280C258.7 280 248 290.7 248 304C248 317.3 258.7 328 272 328zM368 328C381.3 328 392 317.3 392 304C392 290.7 381.3 280 368 280C354.7 280 344 290.7 344 304C344 317.3 354.7 328 368 328zM488 304C488 290.7 477.3 280 464 280C450.7 280 440 290.7 440 304C440 317.3 450.7 328 464 328C477.3 328 488 317.3 488 304z"/></svg>