<svg xmlns="http://www.w3.org/2000/svg" viewBox="0 0 640 640"><!--! Font Awesome Pro 7.2.0 by @fontawesome - https://fontawesome.com License - https://fontawesome.com/license (Commercial License) Copyright 2026 Fonticons, Inc. --><path opacity=".4" fill="currentColor" d="M97.4 315C91.7 336.3 104.3 358.3 125.7 364L315.2 414.8C335.2 420.1 355.7 409.4 362.9 390.4L364.2 386.5L415 197L415.8 193.2C418.9 174.5 408.5 156.1 390.9 149.3L386 147.7L198.3 97.4L192.6 96.2C174.3 93.5 156.4 103.8 149.7 121L147.9 126.3L97.4 315zM188 292C194.6 303.5 190.7 318.2 179.2 324.8C167.7 331.4 153 327.5 146.4 316C139.8 304.5 143.7 289.8 155.2 283.2C166.7 276.6 181.4 280.5 188 292zM229 155C235.6 166.5 231.7 181.2 220.2 187.8C208.7 194.4 194 190.5 187.4 179C180.8 167.5 184.7 152.8 196.2 146.2C207.7 139.6 222.4 143.5 229 155zM277 244C283.6 255.5 279.7 270.2 268.2 276.8C256.7 283.4 242 279.5 235.4 268C228.8 256.5 232.7 241.8 244.2 235.2C255.7 228.6 270.4 232.5 277 244zM325 333C331.6 344.5 327.7 359.2 316.2 365.8C304.7 372.4 290 368.5 283.4 357C276.8 345.5 280.7 330.8 292.2 324.2C303.7 317.6 318.4 321.5 325 333zM366 196C372.6 207.5 368.7 222.2 357.2 228.8C345.7 235.4 331 231.5 324.4 220C317.8 208.5 321.7 193.8 333.2 187.2C344.7 180.6 359.4 184.5 366 196z"/><path fill="currentColor" d="M518.7 256.3C551 259.6 576.2 286.8 576.2 320L576.2 512L575.9 518.5C572.8 548.6 548.9 572.6 518.8 575.6L512.3 575.9L320.3 575.9L313.8 575.6C283.7 572.5 259.7 548.6 256.7 518.5L256.4 512L256.4 481.8L288.4 490.4L288.4 512C288.4 529.7 302.7 544 320.4 544L512.4 544C530.1 544 544.4 529.7 544.4 512L544.4 320C544.4 302.3 530.1 288 512.4 288L473.6 288L482.2 256L512.4 256L518.9 256.3zM119.5 110.2C131.6 78.4 164.6 59.3 198.2 64.8L205.4 66.3L394.9 117.1L401.9 119.4C436 132.4 455.5 169.3 445.8 205.3L395 394.8L392.7 401.8C380.6 433.6 347.6 452.7 314 447.2L306.8 445.7L117.3 394.9C81.3 385.3 59 349.9 64.9 313.9L66.4 306.7L117.2 117.2L119.5 110.2zM192.5 96.3C174.2 93.6 156.3 103.9 149.6 121.1L147.9 126.3L97.4 315C91.7 336.3 104.3 358.3 125.7 364L315.2 414.8L315.2 414.8C335.2 420.1 355.7 409.4 362.9 390.4L364.2 386.5L415 197L415.8 193.2C418.9 174.5 408.5 156.1 390.9 149.3L386 147.7L198.3 97.4L192.6 96.2zM316.1 365.8C304.6 372.4 289.9 368.5 283.3 357C276.7 345.5 280.6 330.8 292.1 324.2C303.6 317.6 318.3 321.5 324.9 333C331.5 344.5 327.6 359.2 316.1 365.8zM179.1 324.8C167.6 331.4 152.9 327.5 146.3 316C139.7 304.5 143.6 289.8 155.1 283.2C166.6 276.6 181.3 280.5 187.9 292C194.5 303.5 190.6 318.2 179.1 324.8zM268.1 276.8C256.6 283.4 241.9 279.5 235.3 268C228.7 256.5 232.6 241.8 244.1 235.2C255.6 228.6 270.3 232.5 276.9 244C283.5 255.5 279.6 270.2 268.1 276.8zM357.1 228.8C345.6 235.4 330.9 231.5 324.3 220C317.7 208.5 321.6 193.8 333.1 187.2C344.6 180.6 359.3 184.5 365.9 196C372.5 207.5 368.6 222.2 357.1 228.8zM220.1 187.8C208.6 194.4 193.9 190.5 187.3 179C180.7 167.5 184.6 152.8 196.1 146.2C207.6 139.6 222.3 143.5 228.9 155C235.5 166.5 231.6 181.2 220.1 187.8z"/></svg>