<svg xmlns="http://www.w3.org/2000/svg" viewBox="0 0 640 640"><!--! Font Awesome Pro 7.2.0 by @fontawesome - https://fontawesome.com License - https://fontawesome.com/license (Commercial License) Copyright 2026 Fonticons, Inc. --><path opacity=".4" fill="currentColor" d="M64 160C64 142.3 78.3 128 96 128L480 128C497.7 128 512 142.3 512 160L512 272.7C506.7 272.3 501.4 272 496 272C479.4 272 463.3 274.1 448 278L448 208C448 199.2 440.8 192 432 192L336 192C327.2 192 320 199.2 320 208C320 216.8 327.2 224 336 224L393.4 224L288 329.4L219.3 260.7C213.1 254.5 202.9 254.5 196.7 260.7L116.7 340.7C110.5 346.9 110.5 357.1 116.7 363.3C122.9 369.5 133.1 369.5 139.3 363.3L208 294.6L276.7 363.3C279.7 366.3 283.8 368 288 368C292.2 368 296.3 366.3 299.3 363.3L416 246.6L416 289.4C354.5 317.6 310.5 377.4 304.7 448L96 448C78.3 448 64 433.7 64 416L64 160zM234.9 544L245.6 480L304.7 480C306.6 502.7 312.4 524.2 321.5 544L235 544z"/><path fill="currentColor" d="M480 128L96 128C78.3 128 64 142.3 64 160L64 416C64 433.7 78.3 448 96 448L304.7 448C303.8 458.5 303.8 469.5 304.7 480L245.6 480L234.9 544L321.4 544C326.6 555.3 332.8 566 340 576L144 576C135.2 576 128 568.8 128 560C128 551.2 135.2 544 144 544L202.4 544L213.1 480L96 480C60.7 480 32 451.3 32 416L32 160C32 124.7 60.7 96 96 96L480 96C515.3 96 544 124.7 544 160L544 278C533.6 275.3 523 273.5 512 272.6L512 160C512 142.3 497.7 128 480 128zM416 289.4L416 246.6L299.3 363.3C296.3 366.3 292.2 368 288 368C283.8 368 279.7 366.3 276.7 363.3L208 294.6L139.3 363.3C133.1 369.5 122.9 369.5 116.7 363.3C110.5 357.1 110.5 346.9 116.7 340.7L196.7 260.7C202.9 254.5 213.1 254.5 219.3 260.7L288 329.4L393.4 224L336 224C327.2 224 320 216.8 320 208C320 199.2 327.2 192 336 192L432 192C440.8 192 448 199.2 448 208L448 278C436.9 280.9 426.2 284.7 416 289.4zM496 576C557.9 576 608 525.9 608 464C608 402.1 557.9 352 496 352C434.1 352 384 402.1 384 464C384 525.9 434.1 576 496 576zM496 320C575.5 320 640 384.5 640 464C640 543.5 575.5 608 496 608C416.5 608 352 543.5 352 464C352 384.5 416.5 320 496 320zM480 384C480 375.2 487.2 368 496 368C504.8 368 512 375.2 512 384L512 392L528 392C536.8 392 544 399.2 544 408C544 416.8 536.8 424 528 424L482.2 424C476.6 424 472 428.6 472 434.2C472 439.1 475.5 443.3 480.3 444.2L525.3 452.4C545.3 456 559.9 473.5 559.9 493.9C559.9 517.2 541 536.1 517.7 536.1L511.9 536.1L511.9 544.1C511.9 552.9 504.7 560.1 495.9 560.1C487.1 560.1 479.9 552.9 479.9 544.1L479.9 536.1L463.9 536.1C455.1 536.1 447.9 528.9 447.9 520.1C447.9 511.3 455.1 504.1 463.9 504.1L517.7 504.1C523.3 504.1 527.9 499.5 527.9 493.9C527.9 489 524.4 484.8 519.6 483.9L474.6 475.7C454.6 472.1 440 454.6 440 434.2C440 411.6 457.7 393.2 480 392.1L480 384z"/></svg>