<svg xmlns="http://www.w3.org/2000/svg" viewBox="0 0 640 640"><!--! Font Awesome Pro 7.2.0 by @fontawesome - https://fontawesome.com License - https://fontawesome.com/license (Commercial License) Copyright 2026 Fonticons, Inc. --><path opacity=".4" fill="currentColor" d="M128 384C128 472.4 199.6 544 288 544C376.4 544 448 472.4 448 384C448 367.6 441.8 343.8 429.5 314.2C417.5 285.3 400.9 253.7 382.7 222.8C346.7 161.4 306.1 104.7 288 80.1C269.9 104.7 229.3 161.4 193.3 222.8C175.1 253.8 158.5 285.3 146.5 314.2C134.2 343.8 128 367.6 128 384z"/><path fill="currentColor" d="M288 544C199.6 544 128 472.4 128 384C128 367.6 134.2 343.8 146.5 314.2C158.5 285.3 175.1 253.7 193.3 222.8C229.3 161.4 269.9 104.7 288 80.1C306.1 104.7 346.7 161.4 382.7 222.8C400.9 253.8 417.5 285.3 429.5 314.2C441.8 343.8 448 367.6 448 384C448 472.4 376.4 544 288 544zM96 384C96 490 182 576 288 576C394 576 480 490 480 384C480 292.8 349.8 109.9 313.4 60.5C307.5 52.5 298.2 48 288.2 48L287.8 48C277.8 48 268.5 52.5 262.6 60.5C226.2 109.9 96 292.8 96 384zM480 144C480 117.5 501.5 96 528 96C554.5 96 576 117.5 576 144C576 170.5 554.5 192 528 192C501.5 192 480 170.5 480 144zM608 144C608 99.8 572.2 64 528 64C483.8 64 448 99.8 448 144C448 188.2 483.8 224 528 224C572.2 224 608 188.2 608 144z"/></svg>