<svg xmlns="http://www.w3.org/2000/svg" viewBox="0 0 640 640"><!--! Font Awesome Pro 7.2.0 by @fontawesome - https://fontawesome.com License - https://fontawesome.com/license (Commercial License) Copyright 2026 Fonticons, Inc. --><path opacity=".4" fill="currentColor" d="M96 320C96 196.3 196.3 96 320 96C443.7 96 544 196.3 544 320C544 443.7 443.7 544 320 544C308.5 544 297.3 543.1 286.3 541.5C292 513 297.7 484.5 303.4 456L304 456C306.8 456 309.5 455.3 311.9 453.9L359.3 426.8L399.1 453.3C403.2 456 408.4 456.7 413 455.2L437 447.2C445.4 444.4 449.9 435.3 447.1 427C444.3 418.7 435.2 414.1 426.9 416.9L410.3 422.4L368.8 394.7C363.8 391.3 357.2 391.1 352 394.1L311 417.5C311.3 415.9 311.6 414.3 312 412.7C322.1 362.3 277.7 317.9 227.3 328C184.4 336.6 141.5 345.2 98.5 353.8C96.8 342.8 96 331.5 96 320.1zM185.3 224.8C181.3 232.7 184.6 242.3 192.5 246.3L243.9 272L192.5 297.7C184.6 301.7 181.4 311.3 185.3 319.2C189.2 327.1 198.9 330.3 206.8 326.4L286.8 286.4C292.2 283.7 295.6 278.1 295.6 272.1C295.6 266.1 292.2 260.5 286.8 257.8L206.8 217.8C198.9 213.8 189.3 217.1 185.3 225zM344.4 272C344.4 278.1 347.8 283.6 353.2 286.3L433.2 326.3C441.1 330.3 450.7 327 454.7 319.1C458.7 311.2 455.4 301.6 447.5 297.6L396.1 271.9L447.5 246.2C455.4 242.2 458.6 232.6 454.7 224.7C450.8 216.8 441.1 213.6 433.2 217.5L353.2 257.5C347.8 260.2 344.4 265.8 344.4 271.8z"/><path fill="currentColor" d="M320 544C443.7 544 544 443.7 544 320C544 196.3 443.7 96 320 96C196.3 96 96 196.3 96 320C96 331.5 96.9 342.7 98.5 353.7L67.1 360C65.1 347 64 333.6 64 320C64 178.6 178.6 64 320 64C461.4 64 576 178.6 576 320C576 461.4 461.4 576 320 576C306.4 576 293 574.9 280 572.9L286.3 541.5C297.3 543.2 308.6 544 320 544zM303.4 456L311.1 417.5L352.1 394.1C357.4 391.1 363.9 391.3 368.9 394.7L410.4 422.4L427 416.9C435.4 414.1 444.4 418.6 447.2 427C450 435.4 445.5 444.4 437.1 447.2L413.1 455.2C408.4 456.8 403.3 456.1 399.2 453.3L359.4 426.8L312 453.9C309.6 455.3 306.8 456 304.1 456L303.5 456zM192.5 246.3C184.6 242.3 181.4 232.7 185.3 224.8C189.2 216.9 198.9 213.7 206.8 217.6L286.8 257.6C292.2 260.3 295.6 265.9 295.6 271.9C295.6 277.9 292.2 283.5 286.8 286.2L206.8 326.2C198.9 330.2 189.3 326.9 185.3 319C181.3 311.1 184.6 301.5 192.5 297.5L243.9 271.8L192.5 246.1zM454.7 224.8C458.7 232.7 455.4 242.3 447.5 246.3L396.1 272L447.5 297.7C455.4 301.7 458.6 311.3 454.7 319.2C450.8 327.1 441.1 330.3 433.2 326.4L353.2 286.4C347.8 283.7 344.4 278.1 344.4 272.1C344.4 266.1 347.8 260.5 353.2 257.8L433.2 217.8C441.1 213.8 450.7 217.1 454.7 225zM263.8 394.6L231.8 586.6C230.7 593.3 225.5 598.5 218.8 599.7C212.1 600.9 205.4 597.8 202.1 591.9L176.1 546.4L91.9 567.5C86.4 568.9 80.7 567.3 76.7 563.3C72.7 559.3 71.1 553.6 72.5 548.1L93.6 463.9L48.1 437.9C42.2 434.5 39.1 427.9 40.3 421.2C41.5 414.5 46.7 409.3 53.4 408.2L245.4 376.2C250.5 375.4 255.7 377 259.3 380.7C262.9 384.4 264.6 389.5 263.8 394.6zM119.9 442.1C126.1 445.7 129.2 452.9 127.5 459.9L110 530L180.1 512.5C187.1 510.8 194.3 513.9 197.9 520.1L207.6 537.1L228.5 411.5L102.9 432.4L119.9 442.1z"/></svg>