<svg xmlns="http://www.w3.org/2000/svg" viewBox="0 0 640 640"><!--! Font Awesome Pro 7.2.0 by @fontawesome - https://fontawesome.com License - https://fontawesome.com/license (Commercial License) Copyright 2026 Fonticons, Inc. --><path opacity=".4" fill="currentColor" d="M160 128L160 512C160 529.7 174.3 544 192 544L448 544C465.7 544 480 529.7 480 512L480 256L384 256C348.7 256 320 227.3 320 192L320 96L192 96C174.3 96 160 110.3 160 128zM256 336C256 327.2 263.2 320 272 320L328 320C363.3 320 392 348.7 392 384C392 419.3 363.3 448 328 448L288 448L288 480C288 488.8 280.8 496 272 496C263.2 496 256 488.8 256 480L256 336zM288 352L288 416L328 416C345.7 416 360 401.7 360 384C360 366.3 345.7 352 328 352L288 352z"/><path fill="currentColor" d="M192 96L320 96L320 192C320 227.3 348.7 256 384 256L480 256L480 512C480 529.7 465.7 544 448 544L192 544C174.3 544 160 529.7 160 512L160 128C160 110.3 174.3 96 192 96zM352 109.3L466.7 224L384 224C366.3 224 352 209.7 352 192L352 109.3zM192 64C156.7 64 128 92.7 128 128L128 512C128 547.3 156.7 576 192 576L448 576C483.3 576 512 547.3 512 512L512 250.5C512 233.5 505.3 217.2 493.3 205.2L370.7 82.7C358.7 70.7 342.5 64 325.5 64L192 64zM272 320C263.2 320 256 327.2 256 336L256 480C256 488.8 263.2 496 272 496C280.8 496 288 488.8 288 480L288 448L328 448C363.3 448 392 419.3 392 384C392 348.7 363.3 320 328 320L272 320zM328 416L288 416L288 352L328 352C345.7 352 360 366.3 360 384C360 401.7 345.7 416 328 416z"/></svg>