<svg xmlns="http://www.w3.org/2000/svg" viewBox="0 0 640 640"><!--! Font Awesome Pro 7.2.0 by @fontawesome - https://fontawesome.com License - https://fontawesome.com/license (Commercial License) Copyright 2026 Fonticons, Inc. --><path opacity=".4" fill="currentColor" d="M160 128L160 512C160 529.7 174.3 544 192 544L448 544C465.7 544 480 529.7 480 512L480 256L384 256C348.7 256 320 227.3 320 192L320 96L192 96C174.3 96 160 110.3 160 128zM224 336C224 327.2 231.2 320 240 320L400 320C408.8 320 416 327.2 416 336C416 344.8 408.8 352 400 352L240 352C231.2 352 224 344.8 224 336zM224 432C224 423.2 231.2 416 240 416L400 416C408.8 416 416 423.2 416 432C416 440.8 408.8 448 400 448L240 448C231.2 448 224 440.8 224 432z"/><path fill="currentColor" d="M192 96L320 96L320 192C320 227.3 348.7 256 384 256L480 256L480 512C480 529.7 465.7 544 448 544L192 544C174.3 544 160 529.7 160 512L160 128C160 110.3 174.3 96 192 96zM352 109.3L466.7 224L384 224C366.3 224 352 209.7 352 192L352 109.3zM192 64C156.7 64 128 92.7 128 128L128 512C128 547.3 156.7 576 192 576L448 576C483.3 576 512 547.3 512 512L512 250.5C512 233.5 505.3 217.2 493.3 205.2L370.7 82.7C358.7 70.7 342.5 64 325.5 64L192 64zM240 320C231.2 320 224 327.2 224 336C224 344.8 231.2 352 240 352L400 352C408.8 352 416 344.8 416 336C416 327.2 408.8 320 400 320L240 320zM240 416C231.2 416 224 423.2 224 432C224 440.8 231.2 448 240 448L400 448C408.8 448 416 440.8 416 432C416 423.2 408.8 416 400 416L240 416z"/></svg>