<svg xmlns="http://www.w3.org/2000/svg" viewBox="0 0 640 640"><!--! Font Awesome Pro 7.2.0 by @fontawesome - https://fontawesome.com License - https://fontawesome.com/license (Commercial License) Copyright 2026 Fonticons, Inc. --><path opacity=".4" fill="currentColor" d="M160 128L160 512C160 529.7 174.3 544 192 544L448 544C465.7 544 480 529.7 480 512L480 256L384 256C348.7 256 320 227.3 320 192L320 96L192 96C174.3 96 160 110.3 160 128zM211.9 389.6L259.9 333.6C265.7 326.9 275.8 326.1 282.5 331.9C289.2 337.7 290 347.7 284.2 354.5L245.1 400.1L284.2 445.7C290 452.4 289.2 462.5 282.5 468.3C275.8 474.1 265.7 473.3 259.9 466.6L211.9 410.6C206.8 404.6 206.8 395.8 211.9 389.8zM355.9 354.4C350.1 347.7 350.9 337.6 357.6 331.8C364.3 326 374.4 326.8 380.2 333.5L428.2 389.5C433.3 395.5 433.3 404.3 428.2 410.3L380.2 466.3C374.4 473 364.4 473.8 357.6 468C350.8 462.2 350.1 452.2 355.9 445.4L395 399.8L355.9 354.2z"/><path fill="currentColor" d="M192 96L320 96L320 192C320 227.3 348.7 256 384 256L480 256L480 512C480 529.7 465.7 544 448 544L192 544C174.3 544 160 529.7 160 512L160 128C160 110.3 174.3 96 192 96zM352 109.3L466.7 224L384 224C366.3 224 352 209.7 352 192L352 109.3zM192 64C156.7 64 128 92.7 128 128L128 512C128 547.3 156.7 576 192 576L448 576C483.3 576 512 547.3 512 512L512 250.5C512 233.5 505.3 217.2 493.3 205.2L370.7 82.7C358.7 70.7 342.5 64 325.5 64L192 64zM284.1 354.4C289.9 347.7 289.1 337.6 282.4 331.8C275.7 326 265.6 326.8 259.8 333.5L211.8 389.5C206.7 395.5 206.7 404.3 211.8 410.3L259.8 466.3C265.6 473 275.7 473.8 282.4 468C289.1 462.2 289.9 452.2 284.1 445.4L245 399.8L284.1 354.2zM380.1 333.6C374.3 326.9 364.3 326.1 357.5 331.9C350.7 337.7 350 347.7 355.8 354.5L394.9 400.1L355.8 445.7C350 452.4 350.8 462.5 357.5 468.3C364.2 474.1 374.3 473.3 380.1 466.6L428.1 410.6C433.2 404.6 433.2 395.8 428.1 389.8L380.1 333.8z"/></svg>