<svg xmlns="http://www.w3.org/2000/svg" viewBox="0 0 640 640"><!--! Font Awesome Pro 7.2.0 by @fontawesome - https://fontawesome.com License - https://fontawesome.com/license (Commercial License) Copyright 2026 Fonticons, Inc. --><path opacity=".4" fill="currentColor" d="M160 385.6C160 472.7 232.2 544 320 544C407.8 544 480 472.7 480 385.6C480 367.1 476.8 348.8 470.5 331.5L469.8 329.6C438.2 242.6 386.9 164.2 320 100.4C253.1 164.2 201.8 242.6 170.2 329.5L169.5 331.4C163.2 348.8 160 367.1 160 385.5zM192 380.8C192 352.9 203.8 326.2 224.6 307.5L229.9 302.7C234.7 298.4 240.8 296 247.3 296C261.6 296 273.2 307.6 273.2 321.9L273.2 358.3C273.2 372.5 284.7 384 298.9 384L301.4 384C314.2 384 324.7 373.6 324.7 360.7C324.7 354.7 322.4 348.9 318.2 344.6L310 336.1C293 318.5 283.6 295 283.6 270.6L283.6 270C283.6 256.1 286.6 242.4 292.5 229.8L303.4 206.2C307.4 197.6 316 192.1 325.5 192.1C339 192.1 349.9 203 349.9 216.5L349.9 236.7C349.9 244.3 353.2 251.6 359 256.5L403.6 294.6C431.9 318.8 448.2 354.1 448.2 391.3C448.2 458 394.1 512 327.5 512L320.2 512C249.5 512 192.2 454.7 192.2 384L192.2 380.8z"/><path fill="currentColor" d="M469.8 329.5C438.2 242.6 386.9 164.2 320 100.4C253.1 164.2 201.8 242.6 170.2 329.5L169.5 331.4C163.2 348.8 160 367.1 160 385.6C160 472.7 232.2 544 320 544C407.8 544 480 472.7 480 385.6C480 367.1 476.8 348.8 470.5 331.5L470.5 331.5L469.8 329.6zM499.9 318.6L500.6 320.5C508.2 341.4 512.1 363.4 512.1 385.6C512.1 490.8 425.3 576 320.1 576C214.9 576 128 490.7 128 385.6C128 363.4 131.9 341.4 139.5 320.5L140.2 318.6C174.2 224.8 230 140.5 302.9 72.5L306.2 69.5C309.9 66 314.9 64 320 64C325.1 64 330.1 66 333.8 69.5L337.1 72.5C410 140.5 465.8 224.9 499.8 318.6zM315.4 270L315.4 270.6C315.4 286.7 321.7 302.2 332.9 313.9L341.1 322.4C351 332.7 356.6 346.5 356.6 360.8C356.6 391.3 331.9 416.1 301.3 416.1L298.8 416.1C266.9 416.1 241.1 390.3 241.1 358.4L241.1 336.2C230.1 348.4 224 364.3 224 380.9L224 384.1C224 437.1 267 480.1 320 480.1L327.3 480.1C376.3 480.1 416 440.4 416 391.4C416 363.5 403.8 337.1 382.6 319L338 280.9C328.3 272.6 321.6 261.3 319 249C316.6 255.8 315.4 262.9 315.4 270.1zM325.3 192C338.8 192 349.7 202.9 349.7 216.4L349.7 236.6C349.7 244.2 353 251.5 358.8 256.4L403.4 294.5C431.7 318.7 448 354 448 391.2C448 457.9 393.9 511.9 327.3 511.9L320 511.9C249.3 511.9 192 454.6 192 383.9L192 380.7C192 352.8 203.8 326.1 224.6 307.4L229.9 302.6C234.7 298.3 240.8 295.9 247.3 295.9C261.6 295.9 273.2 307.5 273.2 321.8L273.2 358.2C273.2 372.4 284.7 383.9 298.9 383.9L301.4 383.9C314.2 383.9 324.7 373.5 324.7 360.6C324.7 354.6 322.4 348.8 318.2 344.5L310 336C293 318.4 283.6 294.9 283.6 270.5L283.6 269.9C283.6 256 286.6 242.3 292.5 229.7L303.4 206.1C307.4 197.5 316 192 325.5 192z"/></svg>