<svg xmlns="http://www.w3.org/2000/svg" viewBox="0 0 640 640"><!--! Font Awesome Pro 7.2.0 by @fontawesome - https://fontawesome.com License - https://fontawesome.com/license (Commercial License) Copyright 2026 Fonticons, Inc. --><path opacity=".4" fill="currentColor" d="M128.1 416C129.4 486.9 187.3 544 258.5 544L303.1 544C295.1 472 234.1 416 160 416L128.1 416zM192 128L192 198.2L192.4 207.1C196.8 251.2 233.9 285.7 279.1 286.2L359.1 287C408 287.5 447.9 247.9 447.9 199L447.9 128L409.5 156.8C402.7 161.9 393.1 160.8 387.6 154.2L320 73L252.3 154.2C247.5 159.9 239.6 161.5 233.1 158.4L230.4 156.8L192 128zM336.9 544L381.5 544C452.7 544 510.6 486.9 511.9 416L480 416C405.9 416 344.9 472 336.9 544z"/><path fill="currentColor" d="M320 32C324.7 32 329.2 34.1 332.3 37.8L402.5 122.1L454.4 83.2C459.2 79.6 465.7 79 471.1 81.7C476.5 84.4 480 89.9 480 96L480 199C480 265.7 425.6 319.6 358.9 319L336 318.8L336 458.8C366.2 415.9 415.1 387 470.9 384.2L480 384L514.5 384L517.5 384.2C532.4 385.7 544 398.3 544 413.6L543.8 422C539.6 505 473 571.6 389.9 575.8L381.5 576L258.4 576L250 575.8C167 571.6 100.4 505 96.2 421.9L96 413.5C96 398.2 107.6 385.6 122.5 384.1L125.5 383.9L160 383.9L169.1 384.1C224.9 386.9 273.8 415.8 304 458.7L304 318.4L278.9 318.2C215.1 317.6 163.4 267.3 160.2 204.4L160 198.2L160 96L160.2 93.8C160.9 88.6 164.1 84.1 168.9 81.7C174.3 79 180.8 79.6 185.6 83.2L237.4 122.1L307.7 37.8L310.2 35.4C313 33.3 316.4 32.1 320 32.1zM128.1 416C129.4 486.9 187.3 544 258.5 544L303.1 544C295.1 472 234.1 416 160 416L128.1 416zM480 416C405.9 416 344.9 472 336.9 544L381.5 544C452.7 544 510.6 486.9 511.9 416L480 416zM252.3 154.2C247.5 159.9 239.6 161.5 233.1 158.4L230.4 156.8L192 128L192 198.2L192.4 207.1C196.8 251.2 233.9 285.7 279.1 286.2L359.1 287C408 287.5 447.9 247.9 447.9 199L447.9 128L409.5 156.8C402.7 161.9 393.1 160.8 387.6 154.2L320 73L252.3 154.2z"/></svg>