<svg xmlns="http://www.w3.org/2000/svg" viewBox="0 0 640 640"><!--! Font Awesome Pro 7.2.0 by @fontawesome - https://fontawesome.com License - https://fontawesome.com/license (Commercial License) Copyright 2026 Fonticons, Inc. --><path opacity=".4" fill="currentColor" d="M96 200L96 248C96 252.4 99.6 256 104 256L152 256C156.4 256 160 252.4 160 248L160 200C160 195.6 156.4 192 152 192L104 192C99.6 192 96 195.6 96 200zM96 392L96 440C96 444.4 99.6 448 104 448L152 448C156.4 448 160 444.4 160 440L160 392C160 387.6 156.4 384 152 384L104 384C99.6 384 96 387.6 96 392zM288 200L288 248C288 252.4 291.6 256 296 256L344 256C348.4 256 352 252.4 352 248L352 200C352 195.6 348.4 192 344 192L296 192C291.6 192 288 195.6 288 200zM288 392L288 440C288 444.4 291.6 448 296 448L344 448C348.4 448 352 444.4 352 440L352 392C352 387.6 348.4 384 344 384L296 384C291.6 384 288 387.6 288 392zM480 200L480 248C480 252.4 483.6 256 488 256L536 256C540.4 256 544 252.4 544 248L544 200C544 195.6 540.4 192 536 192L488 192C483.6 192 480 195.6 480 200zM480 392L480 440C480 444.4 483.6 448 488 448L536 448C540.4 448 544 444.4 544 440L544 392C544 387.6 540.4 384 536 384L488 384C483.6 384 480 387.6 480 392z"/><path fill="currentColor" d="M160 248C160 252.4 156.4 256 152 256L104 256C99.6 256 96 252.4 96 248L96 200C96 195.6 99.6 192 104 192L152 192C156.4 192 160 195.6 160 200L160 248zM192 200C192 177.9 174.1 160 152 160L104 160C81.9 160 64 177.9 64 200L64 248C64 270.1 81.9 288 104 288L152 288C174.1 288 192 270.1 192 248L192 200zM352 200L352 248C352 252.4 348.4 256 344 256L296 256C291.6 256 288 252.4 288 248L288 200C288 195.6 291.6 192 296 192L344 192C348.4 192 352 195.6 352 200zM344 160L296 160C273.9 160 256 177.9 256 200L256 248C256 270.1 273.9 288 296 288L344 288C366.1 288 384 270.1 384 248L384 200C384 177.9 366.1 160 344 160zM544 200L544 248C544 252.4 540.4 256 536 256L488 256C483.6 256 480 252.4 480 248L480 200C480 195.6 483.6 192 488 192L536 192C540.4 192 544 195.6 544 200zM536 160L488 160C465.9 160 448 177.9 448 200L448 248C448 270.1 465.9 288 488 288L536 288C558.1 288 576 270.1 576 248L576 200C576 177.9 558.1 160 536 160zM544 392L544 440C544 444.4 540.4 448 536 448L488 448C483.6 448 480 444.4 480 440L480 392C480 387.6 483.6 384 488 384L536 384C540.4 384 544 387.6 544 392zM536 352L488 352C465.9 352 448 369.9 448 392L448 440C448 462.1 465.9 480 488 480L536 480C558.1 480 576 462.1 576 440L576 392C576 369.9 558.1 352 536 352zM352 440C352 444.4 348.4 448 344 448L296 448C291.6 448 288 444.4 288 440L288 392C288 387.6 291.6 384 296 384L344 384C348.4 384 352 387.6 352 392L352 440zM384 392C384 369.9 366.1 352 344 352L296 352C273.9 352 256 369.9 256 392L256 440C256 462.1 273.9 480 296 480L344 480C366.1 480 384 462.1 384 440L384 392zM160 392L160 440C160 444.4 156.4 448 152 448L104 448C99.6 448 96 444.4 96 440L96 392C96 387.6 99.6 384 104 384L152 384C156.4 384 160 387.6 160 392zM152 352L104 352C81.9 352 64 369.9 64 392L64 440C64 462.1 81.9 480 104 480L152 480C174.1 480 192 462.1 192 440L192 392C192 369.9 174.1 352 152 352z"/></svg>