<svg xmlns="http://www.w3.org/2000/svg" viewBox="0 0 640 640"><!--! Font Awesome Pro 7.2.0 by @fontawesome - https://fontawesome.com License - https://fontawesome.com/license (Commercial License) Copyright 2026 Fonticons, Inc. --><path opacity=".4" fill="currentColor" d="M160 384L160 416C160 486.7 217.3 544 288 544L352 544C421.8 544 478.6 488.1 480 418.6C472.7 422 464.6 424 456 424C438.2 424 422.4 415.7 412.1 402.8C402.3 411 389.7 416 376 416C360.3 416 346.2 409.6 336 399.2C325.8 409.6 311.7 416 296 416L240 416C231.2 416 224 408.8 224 400C224 391.2 231.2 384 240 384L296 384C309.3 384 320 373.3 320 360C320 346.7 309.2 336 296 336L208 336C181.5 336 160 357.5 160 384zM192 120L192 305.6C197.2 304.6 202.5 304 208 304L240 304L240 120C240 106.7 229.3 96 216 96C202.7 96 192 106.7 192 120zM272 264L272 304L296 304C304.6 304 312.7 305.9 320 309.4L320 264C320 250.7 309.3 240 296 240C282.7 240 272 250.7 272 264zM352 296L352 360C352 373.3 362.7 384 376 384C389.3 384 400 373.3 400 360L400 296C400 282.7 389.3 272 376 272C362.8 272 352 282.7 352 296zM432 312L432 368C432 381.3 442.7 392 456 392C469.3 392 480 381.3 480 368L480 312C480 298.7 469.3 288 456 288C442.7 288 432 298.7 432 312z"/><path fill="currentColor" d="M192 120C192 106.7 202.7 96 216 96C229.3 96 240 106.7 240 120L240 304L208 304C202.5 304 197.2 304.6 192 305.6L192 120zM240 336L296 336C309.2 336 320 346.7 320 360L320 360C320 373.3 309.3 384 296 384L240 384C231.2 384 224 391.2 224 400C224 408.8 231.2 416 240 416L296 416C311.7 416 325.8 409.6 336 399.2C346.2 409.6 360.3 416 376 416C389.8 416 402.4 411 412.1 402.8C422.4 415.7 438.2 424 456 424C464.6 424 472.7 422.1 480 418.6C478.6 488.1 421.8 544 352 544L288 544C217.3 544 160 486.7 160 416L160 384C160 357.5 181.5 336 208 336L240 336zM272 304L272 264C272 250.7 282.7 240 296 240C309.3 240 320 250.7 320 264L320 309.4C312.7 305.9 304.6 304 296 304L272 304zM272 213.4L272 120C272 89.1 246.9 64 216 64C185.1 64 160 89.1 160 120L160 320C140.6 334.6 128 357.8 128 384L128 416C128 504.4 199.6 576 288 576L352 576C440.4 576 512 504.4 512 416L512 312C512 281.1 486.9 256 456 256C443.9 256 432.7 259.8 423.5 266.4C413.6 250.6 396 240 376 240C366.3 240 357.2 242.5 349.3 246.8C342 224.3 320.9 208 296 208C287.4 208 279.3 209.9 272 213.4zM352 336L352 296C352 282.8 362.8 272 376 272C389.3 272 400 282.7 400 296L400 360C400 373.3 389.3 384 376 384C362.7 384 352 373.3 352 360L352 336zM480 336L480 368C480 381.3 469.3 392 456 392C442.7 392 432 381.3 432 368L432 312C432 298.7 442.7 288 456 288C469.3 288 480 298.7 480 312L480 336z"/></svg>