<svg xmlns="http://www.w3.org/2000/svg" viewBox="0 0 640 640"><!--! Font Awesome Pro 7.2.0 by @fontawesome - https://fontawesome.com License - https://fontawesome.com/license (Commercial License) Copyright 2026 Fonticons, Inc. --><path opacity=".4" fill="currentColor" d="M133.4 407.1L208.6 499.6C231.4 527.6 265.6 543.9 301.7 543.9L432 544C476.2 544 512 508.2 512 464L512 352C512 334.3 497.7 320 480 320C471.8 320 464.3 323.1 458.6 328.2C454.1 332.3 447.6 333.4 441.9 331.2C436.2 329 432.4 323.6 431.9 317.5C430.7 301 416.8 288 400 288C391.8 288 384.3 291.1 378.6 296.2C374.1 300.3 367.6 301.4 361.9 299.2C356.2 297 352.4 291.6 351.9 285.5C350.7 269 336.8 256 320 256C311.8 256 304.3 259.1 298.7 264.1C294 268.3 287.3 269.4 281.5 266.8C275.7 264.2 272 258.5 272 252.2L272 120C272 106.7 261.3 96 248 96C234.7 96 224 106.7 224 120L224 397.5C224 404.3 219.7 410.3 213.4 412.6C207.1 414.9 199.9 412.9 195.6 407.6L170.6 376.9C162.2 366.6 147.1 365 136.8 373.4C126.5 381.8 125 396.8 133.4 407.1zM288 384C288 375.2 295.2 368 304 368C312.8 368 320 375.2 320 384L320 480C320 488.8 312.8 496 304 496C295.2 496 288 488.8 288 480L288 384zM352 384C352 375.2 359.2 368 368 368C376.8 368 384 375.2 384 384L384 480C384 488.8 376.8 496 368 496C359.2 496 352 488.8 352 480L352 384zM416 384C416 375.2 423.2 368 432 368C440.8 368 448 375.2 448 384L448 480C448 488.8 440.8 496 432 496C423.2 496 416 488.8 416 480L416 384z"/><path fill="currentColor" d="M224 120C224 106.7 234.7 96 248 96C261.3 96 272 106.7 272 120L272 252.2C272 258.5 275.7 264.2 281.5 266.8C287.3 269.4 294 268.3 298.7 264.1C304.4 259 311.8 256 320 256C336.8 256 350.7 269 351.9 285.5C352.4 291.6 356.2 296.9 361.9 299.2C367.6 301.5 374 300.3 378.6 296.2C384.3 291.1 391.8 288 400 288C416.8 288 430.7 301 431.9 317.5C432.4 323.6 436.2 328.9 441.9 331.2C447.6 333.5 454 332.3 458.6 328.2C464.3 323.1 471.8 320 480 320C497.7 320 512 334.3 512 352L512 464C512 508.2 476.2 544 432 544L301.7 544C265.6 544 231.4 527.7 208.6 499.7L133.4 407.1C125 396.8 126.6 381.7 136.9 373.3C147.2 364.9 162.3 366.5 170.7 376.8L195.7 407.5C200 412.8 207.1 414.8 213.5 412.5C219.9 410.2 224.1 404.2 224.1 397.4L224 120zM248 64C217.1 64 192 89.1 192 120L192 352.8C172 332.3 139.3 330.1 116.7 348.5C92.7 368 89 403.3 108.6 427.3L183.8 519.8C212.7 555.3 256 576 301.8 576L432 576C493.9 576 544 525.9 544 464L544 352C544 316.7 515.3 288 480 288C472.1 288 464.6 289.4 457.6 292C447.2 270.7 425.3 256 400 256C392.1 256 384.6 257.4 377.6 260C367.2 238.7 345.3 224 320 224C314.5 224 309.1 224.7 304 226L304 120C304 89.1 278.9 64 248 64zM320 384C320 375.2 312.8 368 304 368C295.2 368 288 375.2 288 384L288 480C288 488.8 295.2 496 304 496C312.8 496 320 488.8 320 480L320 384zM384 384C384 375.2 376.8 368 368 368C359.2 368 352 375.2 352 384L352 480C352 488.8 359.2 496 368 496C376.8 496 384 488.8 384 480L384 384zM448 384C448 375.2 440.8 368 432 368C423.2 368 416 375.2 416 384L416 480C416 488.8 423.2 496 432 496C440.8 496 448 488.8 448 480L448 384z"/></svg>