<svg xmlns="http://www.w3.org/2000/svg" viewBox="0 0 640 640"><!--! Font Awesome Pro 7.2.0 by @fontawesome - https://fontawesome.com License - https://fontawesome.com/license (Commercial License) Copyright 2026 Fonticons, Inc. --><path opacity=".4" fill="currentColor" d="M144 408L144 427.5C144 468.7 166.6 506.6 202.9 526.1L211.2 530.6C227.5 539.4 245.8 544 264.3 544L400 544C444.2 544 480 508.2 480 464L480 368C480 350.3 465.7 336 448 336C443.8 336 439.8 336.8 436.2 338.2C432 339.9 427.2 339.7 423.1 337.6C419 335.5 416 331.9 414.8 327.5C411.1 313.9 398.7 303.9 383.9 303.9C377.8 303.9 372.2 305.6 367.3 308.5C362.8 311.2 357.3 311.6 352.5 309.4C347.7 307.2 344.3 302.9 343.3 297.8C340.5 283 327.5 271.9 311.9 271.9C300.8 271.9 291 277.6 285.2 286.2C281.3 292.1 274 294.7 267.2 292.7C260.4 290.7 256 284.5 256 277.5L256 120C256 106.7 245.3 96 232 96C218.7 96 208 106.7 208 120L208 408C208 416.8 200.8 424 192 424C183.2 424 176 416.8 176 408L176 360L163.2 369.6C151.1 378.7 144 392.9 144 408z"/><path fill="currentColor" d="M232 64C201.1 64 176 89.1 176 120L176 320.6C172.8 322.6 169.6 324.8 166.5 327.1L144 344C123.9 359.1 112 382.8 112 408L112 427.5C112 480.5 141.1 529.2 187.7 554.3L196 558.8C217 570.1 240.4 576 264.3 576L400 576C461.9 576 512 525.9 512 464L512 368C512 332.7 483.3 304 448 304C445.2 304 442.4 304.2 439.7 304.5C428.7 285.1 407.9 272 384 272C378.7 272 373.5 272.7 368.5 273.9C357.7 253.7 336.5 240 312 240C303.5 240 295.4 241.7 288 244.7L288 120C288 89.1 262.9 64 232 64zM208 120C208 106.7 218.7 96 232 96C245.3 96 256 106.7 256 120L256 277.5C256 284.6 260.6 290.8 267.4 292.8C274.2 294.8 281.4 292.2 285.4 286.3C291.2 277.6 301 272 312.1 272C327.7 272 340.7 283.2 343.5 297.9C344.5 303 347.9 307.4 352.7 309.5C357.5 311.6 363 311.3 367.5 308.6C372.3 305.7 378 304 384.1 304C398.8 304 411.3 314 415 327.6C416.2 332 419.2 335.7 423.3 337.7C427.4 339.7 432.1 339.9 436.4 338.3C440 336.9 444 336.1 448.2 336.1C465.9 336.1 480.2 350.4 480.2 368.1L480.2 464.1C480.2 508.3 444.4 544.1 400.2 544.1L264.5 544.1C246 544.1 227.7 539.5 211.4 530.7L211.4 530.7L203.1 526.2C166.6 506.6 144 468.7 144 427.5L144 408C144 392.9 151.1 378.7 163.2 369.6L176 360L176 408C176 416.8 183.2 424 192 424C200.8 424 208 416.8 208 408L208 120z"/></svg>