<svg xmlns="http://www.w3.org/2000/svg" viewBox="0 0 640 640"><!--! Font Awesome Pro 7.2.0 by @fontawesome - https://fontawesome.com License - https://fontawesome.com/license (Commercial License) Copyright 2026 Fonticons, Inc. --><path opacity=".4" fill="currentColor" d="M108.4 447.3L109.4 450.3L112.1 459.4C117.5 480.7 117.3 503.1 111.5 524.5L109.9 530.4L115.9 528.8C140.3 522.2 166.1 522.9 190 530.9L192.3 531.6L192.3 510.7C192.3 462.1 228.9 422 276.1 416.6L275.1 413.6C267.1 389.6 266.4 363.8 273 339.5L274.6 333.5L268.7 335.1C247.4 340.9 225 341.1 203.6 335.7L194.5 333L192.2 332.2L192.2 353.1C192.2 401.7 155.5 441.7 108.4 447.1zM208.2 208C208.2 225.7 222.5 240 240.2 240C256.8 240 270.5 227.3 272 211.1C257.5 202.7 245.5 190.6 237.1 176.2C220.9 177.7 208.2 191.4 208.2 208zM288.2 128C288.2 145.7 302.5 160 320.2 160C337.9 160 352.2 145.7 352.2 128C352.2 110.3 337.9 96 320.2 96C302.5 96 288.2 110.3 288.2 128zM364.4 416.7C411.6 422.1 448.2 462.1 448.2 510.8L448.2 531.7L450.5 531C474.5 523 500.3 522.3 524.6 528.9L530.6 530.5L529 524.6C523.2 503.3 523 480.9 528.4 459.5L531.1 450.4L532.1 447.4C484.9 442 448.3 402 448.3 353.4L448.3 332.5L446 333.3L436.9 336C415.6 341.4 393.2 341.2 371.8 335.4L365.9 333.8L367.5 339.8C374.1 364.2 373.4 390 365.4 413.9L364.4 416.9zM368.4 211.1C369.9 227.3 383.6 240 400.2 240C417.9 240 432.2 225.7 432.2 208C432.2 191.4 419.5 177.7 403.3 176.2C394.9 190.7 382.8 202.7 368.4 211.1z"/><path fill="currentColor" d="M160.2 321.3C160.2 304.9 176.3 293.3 191.8 298.5L204.6 302.8C220.3 308 237.1 309.1 253.3 306L260.2 304.4L279.6 299.1C297.5 294.2 314 310.7 309.1 328.6L303.8 348L302.2 354.9C299.1 371.1 300.1 387.9 305.4 403.6L309.7 416.4C314.9 431.9 303.3 448 286.9 448L280.5 448.3C248.9 451.5 224.2 478.2 224.2 510.7L224.2 542.7C224.2 558.1 210.1 569.2 195.5 566.2L192.6 565.4L179.8 561.1C161.8 555.1 142.5 554.6 124.2 559.5L104.8 564.8L101.5 565.5C85 567.7 70.8 552.2 75.4 535.4L80.6 516C85 500 85.1 483.2 81.1 467.2L79.1 460.4L74.8 447.6C69.6 432.1 81.2 416 97.6 416C130.1 416 156.8 391.3 160 359.7L160.3 353.3L160.3 321.3zM448.6 298.5C464.1 293.3 480.2 304.9 480.2 321.3L480.2 353.3L480.5 359.7C483.7 391.3 510.4 416 542.9 416C559.3 416 570.9 432.1 565.7 447.6L561.4 460.4L559.4 467.2C555.3 483.2 555.5 500 559.9 516L565.2 535.4C569.8 552.2 555.6 567.7 539.1 565.5L535.8 564.8L516.4 559.5C498.1 554.5 478.8 555.1 460.8 561.1L448 565.4L445.1 566.2C430.5 569.1 416.4 558 416.4 542.7L416.4 510.7C416.4 478.2 391.7 451.5 360.1 448.3L353.7 448C337.3 448 325.8 431.9 331 416.4L335.3 403.6C340.5 387.9 341.6 371.1 338.5 354.9L336.9 348L331.6 328.6C326.7 310.7 343.2 294.2 361.1 299.1L380.5 304.4L387.4 306C403.6 309.2 420.4 308.1 436.1 302.8L448.9 298.5zM192.2 353.3C192.2 401.9 155.5 441.9 108.4 447.3L109.4 450.3L112.1 459.4C117.5 480.7 117.3 503.1 111.5 524.5L109.9 530.4L115.9 528.8C140.3 522.2 166.1 522.9 190 530.9L192.3 531.6L192.3 510.7C192.3 462.1 228.9 422 276.1 416.6L275.1 413.6C267.1 389.6 266.4 363.8 273 339.5L274.6 333.5L268.7 335.1C247.4 340.9 225 341.1 203.6 335.7L194.5 333L192.2 332.2L192.2 353.1zM445.9 333.1L436.8 335.8C415.5 341.2 393.1 341 371.7 335.2L365.8 333.6L367.4 339.6C374 364 373.3 389.8 365.3 413.7L364.3 416.7C411.5 422.1 448.1 462.1 448.1 510.8L448.1 531.7L450.4 531C474.4 523 500.2 522.3 524.5 528.9L530.5 530.5L528.9 524.6C523.1 503.3 522.9 480.9 528.3 459.5L531 450.4L532 447.4C484.8 442 448.2 402 448.2 353.4L448.2 332.5L445.9 333.3zM225.8 145.6C227.8 156.5 231.7 166.8 237.1 176.1C220.9 177.6 208.2 191.3 208.2 207.9C208.2 225.6 222.5 239.9 240.2 239.9C256.8 239.9 270.5 227.2 272 211C281.3 216.4 291.6 220.3 302.5 222.3C296 250.7 270.5 271.9 240.1 271.9C204.8 271.9 176.1 243.2 176.1 207.9C176.1 177.5 197.3 152.1 225.7 145.5zM414.6 145.6C443 152.1 464.2 177.6 464.2 208C464.2 243.3 435.5 272 400.2 272C369.8 272 344.4 250.8 337.8 222.4C348.7 220.4 359 216.5 368.3 211.1C369.8 227.3 383.5 240 400.1 240C417.8 240 432.1 225.7 432.1 208C432.1 191.4 419.4 177.7 403.2 176.2C408.6 166.9 412.5 156.6 414.5 145.7zM320.2 192C284.9 192 256.2 163.3 256.2 128C256.2 92.7 284.9 64 320.2 64C355.5 64 384.2 92.7 384.2 128C384.2 163.3 355.5 192 320.2 192zM320.2 96C302.5 96 288.2 110.3 288.2 128C288.2 145.7 302.5 160 320.2 160C337.9 160 352.2 145.7 352.2 128C352.2 110.3 337.9 96 320.2 96z"/></svg>