<svg xmlns="http://www.w3.org/2000/svg" viewBox="0 0 640 640"><!--! Font Awesome Pro 7.2.0 by @fontawesome - https://fontawesome.com License - https://fontawesome.com/license (Commercial License) Copyright 2026 Fonticons, Inc. --><path opacity=".4" fill="currentColor" d="M96 320L96 512C96 529.7 110.3 544 128 544L281.3 544C275.3 529.2 272 513 272 496C272 475.9 276.6 456.9 284.9 440C276.7 423.1 272 404.1 272 384C272 364.1 276.6 345.2 284.7 328.3C276.6 311.5 272 292.7 272 272.8C272 255.7 275.4 239.1 281.8 223.9L192 224C139 224 96 267 96 320zM192 96L192 128L256 128L256 96L192 96zM352 272.9C352 285.7 357.1 297.3 365.5 305.9C377.7 318.3 377.7 338.1 365.6 350.6C357.2 359.3 352 371 352 384C352 397.1 357.2 408.9 365.7 417.6C377.9 430 377.9 450 365.7 462.4C357.2 471.1 352 482.9 352 496C352 522.5 373.5 544 400 544L496 544C522.5 544 544 522.5 544 496C544 482.9 538.8 471.1 530.3 462.4C518.1 450 518.1 430 530.3 417.6C538.8 408.9 544 397.1 544 384C544 371 538.9 359.2 530.4 350.6C518.3 338.1 518.3 318.3 530.5 305.9C538.9 297.4 544 285.8 544 272.9C544 255.1 533.9 238.7 518 230.8L515.4 229.5C508.2 225.9 500.3 224 492.2 224L403.8 224C395.8 224 387.8 225.9 380.6 229.5L378 230.8C362 238.8 352 255.1 352 272.9zM416 168L416 192L480 192L480 168C480 163.6 476.4 160 472 160L424 160C419.6 160 416 163.6 416 168z"/><path fill="currentColor" d="M192 96L256 96L256 128L192 128L192 96zM160 88L160 128L144 128C135.2 128 128 135.2 128 144C128 152.8 135.2 160 144 160L304 160C312.8 160 320 152.8 320 144C320 135.2 312.8 128 304 128L288 128L288 88C288 74.7 277.3 64 264 64L184 64C170.7 64 160 74.7 160 88zM96 320C96 267 139 224 192 224L281.8 224C286.6 212.4 293.1 201.7 301.1 192L192 192C121.3 192 64 249.3 64 320L64 512C64 547.3 92.7 576 128 576L300.1 576C292.4 566.4 286 555.6 281.3 544L128 544C110.3 544 96 529.7 96 512L96 320zM365.5 305.9C357.1 297.4 352 285.8 352 272.9C352 255.1 362.1 238.7 378 230.8L380.6 229.5C387.8 225.9 395.7 224 403.8 224L492.2 224C500.2 224 508.2 225.9 515.4 229.5L518 230.8C534 238.8 544 255.1 544 272.9C544 285.7 538.9 297.3 530.5 305.9C518.3 318.3 518.3 338.1 530.4 350.6C538.8 359.3 544 371 544 384C544 397.1 538.8 408.9 530.3 417.6C518.1 430 518.1 450 530.3 462.4C538.8 471.1 544 482.9 544 496C544 522.5 522.5 544 496 544L400 544C373.5 544 352 522.5 352 496C352 482.9 357.2 471.1 365.7 462.4C377.9 450 377.9 430 365.7 417.6C357.2 408.9 352 397.1 352 384C352 371 357.1 359.2 365.6 350.6C377.7 338.1 377.7 318.3 365.5 305.9zM532.3 202.1L529.7 200.8C524 198 518.1 195.8 512 194.3L512 167.9C512 145.8 494.1 127.9 472 127.9L424 127.9C401.9 127.9 384 145.8 384 167.9L384 194.3C377.9 195.8 372 198 366.3 200.8L363.7 202.1C336.9 215.5 320 242.9 320 272.9C320 294.5 328.6 314 342.6 328.3C328.6 342.7 320 362.4 320 384C320 405.8 328.7 425.6 342.9 440C328.8 454.4 320 474.2 320 496C320 540.2 355.8 576 400 576L496 576C540.2 576 576 540.2 576 496C576 474.2 567.3 454.4 553.1 440C567.2 425.6 576 405.8 576 384C576 362.3 567.4 342.7 553.4 328.3C567.4 314 576 294.5 576 272.9C576 242.9 559.1 215.5 532.3 202.1zM416 192L416 168C416 163.6 419.6 160 424 160L472 160C476.4 160 480 163.6 480 168L480 192L416 192z"/></svg>