<svg xmlns="http://www.w3.org/2000/svg" viewBox="0 0 640 640"><!--! Font Awesome Pro 7.2.0 by @fontawesome - https://fontawesome.com License - https://fontawesome.com/license (Commercial License) Copyright 2026 Fonticons, Inc. --><path opacity=".4" fill="currentColor" d="M160 192L160 512C160 529.7 174.3 544 192 544L448 544C465.7 544 480 529.7 480 512L480 192L160 192zM224 272C224 263.2 231.2 256 240 256L400 256C408.8 256 416 263.2 416 272C416 280.8 408.8 288 400 288L240 288C231.2 288 224 280.8 224 272zM224 368C224 359.2 231.2 352 240 352L400 352C408.8 352 416 359.2 416 368C416 376.8 408.8 384 400 384L240 384C231.2 384 224 376.8 224 368zM224 464C224 455.2 231.2 448 240 448L336 448C344.8 448 352 455.2 352 464C352 472.8 344.8 480 336 480L240 480C231.2 480 224 472.8 224 464z"/><path fill="currentColor" d="M448 96C465.7 96 480 110.3 480 128L480 160L160 160L160 128C160 110.3 174.3 96 192 96L448 96zM480 192L480 512C480 529.7 465.7 544 448 544L192 544C174.3 544 160 529.7 160 512L160 192L480 192zM192 64C156.7 64 128 92.7 128 128L128 512C128 547.3 156.7 576 192 576L448 576C483.3 576 512 547.3 512 512L512 128C512 92.7 483.3 64 448 64L192 64zM224 272C224 280.8 231.2 288 240 288L400 288C408.8 288 416 280.8 416 272C416 263.2 408.8 256 400 256L240 256C231.2 256 224 263.2 224 272zM224 368C224 376.8 231.2 384 240 384L400 384C408.8 384 416 376.8 416 368C416 359.2 408.8 352 400 352L240 352C231.2 352 224 359.2 224 368zM224 464C224 472.8 231.2 480 240 480L336 480C344.8 480 352 472.8 352 464C352 455.2 344.8 448 336 448L240 448C231.2 448 224 455.2 224 464z"/></svg>