<svg xmlns="http://www.w3.org/2000/svg" viewBox="0 0 640 640"><!--! Font Awesome Pro 7.2.0 by @fontawesome - https://fontawesome.com License - https://fontawesome.com/license (Commercial License) Copyright 2026 Fonticons, Inc. --><path opacity=".4" fill="currentColor" d="M96 192L96 416C96 451.3 124.7 480 160 480L200 480C213.3 480 224 490.7 224 504L224 572L336 488C342.9 482.8 351.3 480 360 480L480 480C515.3 480 544 451.3 544 416L544 192C544 156.7 515.3 128 480 128L160 128C124.7 128 96 156.7 96 192zM236.7 300.7C242.9 294.5 253.1 294.5 259.3 300.7L304 345.4L304 224C304 215.2 311.2 208 320 208C328.8 208 336 215.2 336 224L336 345.4L380.7 300.7C386.9 294.5 397.1 294.5 403.3 300.7C409.5 306.9 409.5 317.1 403.3 323.3L331.3 395.3C325.1 401.5 314.9 401.5 308.7 395.3L236.7 323.3C230.5 317.1 230.5 306.9 236.7 300.7z"/><path fill="currentColor" d="M243.2 597.6L243.2 597.6L355.2 513.6C356.6 512.6 358.3 512 360 512L480 512C533 512 576 469 576 416L576 192C576 139 533 96 480 96L160 96C107 96 64 139 64 192L64 416C64 469 107 512 160 512L192 512L192 580C192 595.5 204.5 608 220 608C226.1 608 232 606 236.8 602.4L243.2 597.6zM224 512L224 504C224 490.7 213.3 480 200 480L160 480C124.7 480 96 451.3 96 416L96 192C96 156.7 124.7 128 160 128L480 128C515.3 128 544 156.7 544 192L544 416C544 451.3 515.3 480 480 480L360 480C351.3 480 342.9 482.8 336 488L224 572L224 512zM308.7 395.3C314.9 401.5 325.1 401.5 331.3 395.3L403.3 323.3C409.5 317.1 409.5 306.9 403.3 300.7C397.1 294.5 386.9 294.5 380.7 300.7L336 345.4L336 224C336 215.2 328.8 208 320 208C311.2 208 304 215.2 304 224L304 345.4L259.3 300.7C253.1 294.5 242.9 294.5 236.7 300.7C230.5 306.9 230.5 317.1 236.7 323.3L308.7 395.3z"/></svg>