<svg xmlns="http://www.w3.org/2000/svg" viewBox="0 0 640 640"><!--! Font Awesome Pro 7.2.0 by @fontawesome - https://fontawesome.com License - https://fontawesome.com/license (Commercial License) Copyright 2026 Fonticons, Inc. --><path opacity=".4" fill="currentColor" d="M352 98.3L352 541.7C460.6 526.1 544 432.8 544 320L543.8 309.2C538.6 201.2 457.1 113.3 352 98.3z"/><path fill="currentColor" d="M346.5 65.3C475.4 78.6 576 187.6 576 320C576 452.4 475.4 561.4 346.5 574.6C339.7 575.3 333 573.1 327.9 568.6C322.9 564.1 320 557.6 320 550.8L320 89.2C320 82.4 322.9 75.9 327.9 71.4C332.9 66.9 339.7 64.6 346.5 65.3zM153.8 490.8C160.1 485.5 169.3 485.9 175.6 491.2C199.9 511.7 228.7 527.2 260.3 535.9C268.8 538.3 273.8 547.1 271.5 555.6C269.1 564.1 260.3 569.1 251.8 566.8C215 556.6 181.5 538.4 153.3 514.2C146.1 508 146.6 497 153.9 490.9zM352 541.7C460.6 526.1 544 432.8 544 320L543.8 309.2C538.6 201.2 457.1 113.3 352 98.3L352 541.7zM82.8 344C91 344 97.9 350.2 99.3 358.3C103.9 384.9 113.2 409.9 126.3 432.5C130.4 439.6 129.2 448.8 122.9 454.1C115.6 460.2 104.7 458.7 99.8 450.6C83.8 423.7 72.6 393.6 67.4 361.6C65.9 352.2 73.3 344.1 82.8 344.1zM99.8 189.4C104.7 181.2 115.6 179.8 122.9 185.9C129.2 191.2 130.4 200.3 126.3 207.5C113.2 230 103.9 255.1 99.3 281.7C97.9 289.8 91 296.1 82.8 296.1C73.3 296.1 65.8 287.9 67.4 278.5C72.6 246.4 83.8 216.3 99.8 189.4zM251.8 73.2C260.3 70.9 269.1 75.8 271.5 84.4C273.8 92.9 268.8 101.7 260.3 104.1C228.7 112.8 200 128.3 175.6 148.8C169.3 154.1 160.1 154.5 153.8 149.2C146.5 143.1 146 132 153.2 125.9C181.4 101.7 214.9 83.5 251.7 73.3z"/></svg>