<svg xmlns="http://www.w3.org/2000/svg" viewBox="0 0 640 640"><!--! Font Awesome Pro 7.2.0 by @fontawesome - https://fontawesome.com License - https://fontawesome.com/license (Commercial License) Copyright 2026 Fonticons, Inc. --><path opacity=".4" fill="currentColor" d="M97.6 115L123.6 531C125.2 556.3 146.2 576 171.5 576C147.1 574.9 127.2 555.6 125.7 531L99.7 115C98 88.1 118.8 65.2 145.5 64C117.8 64 95.9 87.4 97.6 115zM131.6 113L134.5 160L192.4 160C201.2 160 208.4 167.2 208.4 176C208.4 184.8 201.2 192 192.4 192L136.5 192L157.6 529C158.1 537.4 165.1 544 173.6 544L304.5 544L304.5 248C304.5 239.2 311.7 232 320.5 232C329.3 232 336.5 239.2 336.5 248L336.5 544L467.4 544C475.8 544 482.8 537.4 483.4 529L504.5 192L448.6 192C439.8 192 432.6 184.8 432.6 176C432.6 167.2 439.8 160 448.6 160L506.5 160L509.4 113C510 103.8 502.7 96 493.4 96L147.6 96C138.4 96 131.1 103.8 131.6 113z"/><path fill="currentColor" d="M147.6 96C138.4 96 131.1 103.8 131.6 113L134.5 160L192.4 160C201.2 160 208.4 167.2 208.4 176C208.4 184.8 201.2 192 192.4 192L136.5 192L157.6 529C158.1 537.4 165.1 544 173.6 544L304.5 544L304.5 248C304.5 239.2 311.7 232 320.5 232C329.3 232 336.5 239.2 336.5 248L336.5 544L467.4 544C475.8 544 482.8 537.4 483.4 529L504.5 192L448.6 192C439.8 192 432.6 184.8 432.6 176C432.6 167.2 439.8 160 448.6 160L506.5 160L509.4 113C510 103.8 502.7 96 493.4 96L147.6 96zM320.5 576L173.6 576C148.3 576 127.3 556.3 125.7 531L99.7 115C97.9 87.4 119.9 64 147.6 64L493.4 64C521.1 64 543 87.4 541.3 115L515.3 531C513.7 556.3 492.7 576 467.4 576L320.5 576z"/></svg>