<svg xmlns="http://www.w3.org/2000/svg" viewBox="0 0 640 640"><!--! Font Awesome Pro 7.2.0 by @fontawesome - https://fontawesome.com License - https://fontawesome.com/license (Commercial License) Copyright 2026 Fonticons, Inc. --><path opacity=".4" fill="currentColor" d="M176 220.7L176 400L272 400L272 220.7C257.6 212.5 241.1 208 224 208C206.9 208 190.4 212.5 176 220.7zM200 88C200 101.3 210.7 112 224 112C237.3 112 248 101.3 248 88C248 74.7 237.3 64 224 64C210.7 64 200 74.7 200 88z"/><path fill="currentColor" d="M200 88C200 74.7 210.7 64 224 64C237.3 64 248 74.7 248 88C248 101.3 237.3 112 224 112C210.7 112 200 101.3 200 88zM280 88C280 57.1 254.9 32 224 32C193.1 32 168 57.1 168 88C168 118.9 193.1 144 224 144C254.9 144 280 118.9 280 88zM140.8 255.1C141.8 253.4 142.9 251.7 144 250.1L144 592C144 600.8 151.2 608 160 608C168.8 608 176 600.8 176 592L176 432L272 432L272 592C272 600.8 279.2 608 288 608C296.8 608 304 600.8 304 592L304 250.1C305.1 251.7 306.2 253.4 307.2 255.1L354.6 334.1C362 326.1 370 318.7 378.7 312L334.7 238.6C311.3 199.8 269.3 176 224 176C178.7 176 136.7 199.8 113.4 238.6L50.3 343.8C45.8 351.4 48.2 361.2 55.8 365.7C63.4 370.2 73.2 367.8 77.8 360.2L140.9 255.1zM272 400L176 400L176 220.7C190.4 212.5 206.9 208 224 208C241.1 208 257.6 212.5 272 220.7L272 400zM496 352C557.9 352 608 402.1 608 464C608 525.9 557.9 576 496 576C434.1 576 384 525.9 384 464C384 402.1 434.1 352 496 352zM496 608C575.5 608 640 543.5 640 464C640 384.5 575.5 320 496 320C416.5 320 352 384.5 352 464C352 543.5 416.5 608 496 608zM553.4 403.1C546.3 397.9 536.2 399.5 531.1 406.6L478.1 479.5L451.3 452.7C445.1 446.5 434.9 446.5 428.7 452.7C422.5 458.9 422.5 469.1 428.7 475.3L468.7 515.3C472 518.6 476.6 520.3 481.3 519.9C486 519.5 490.2 517.1 493 513.4L557 425.4C562.2 418.3 560.6 408.2 553.5 403z"/></svg>