<svg xmlns="http://www.w3.org/2000/svg" viewBox="0 0 640 640"><!--! Font Awesome Pro 7.2.0 by @fontawesome - https://fontawesome.com License - https://fontawesome.com/license (Commercial License) Copyright 2026 Fonticons, Inc. --><path opacity=".4" fill="currentColor" d="M96 519.4C96 533 107 544 120.6 544C127.1 544 133.4 541.4 138 536.8L187.4 487.4L192.2 483.1C215.4 464.2 248.8 464.2 271.9 483.1C274.9 485.8 278.5 489.1 282.9 493C289.4 498.3 296.6 502.5 304.2 505.6C304.1 507.7 304 509.8 304 512C304 512.5 304 513.1 304 513.5C304.3 513.7 304.6 513.8 304.8 514C304.8 513.4 304.8 512.9 304.8 512.3C304.8 478.4 316.5 447.3 336.1 422.7L155.3 241.9L152.5 244.7C138.7 258.5 130.2 276.5 128.3 295.7L128 304C128 326.2 136.8 347.6 152.6 363.3L156.9 368.1C175.8 391.3 175.8 424.7 156.9 447.9L152.6 452.7L103.2 502.1C99.7 505.6 97.4 509.9 96.5 514.7L96 519.5zM177.9 219.3L358.6 400C383.3 380.2 414.6 368.3 448.8 368.3C468 368.3 486.3 372.1 503 378.9C527.5 350.1 541.8 314 543.7 276.2L543.9 267.7C543.9 175.9 471.8 100.9 381.1 96.3L372.3 96.1C329.6 96.1 288.6 112 257.1 140.5L250.9 146.4L177.8 219.4z"/><path fill="currentColor" d="M448 608C395 608 352 565 352 512C352 459 395 416 448 416C501 416 544 459 544 512C544 565 501 608 448 608zM448 448C412.7 448 384 476.7 384 512C384 547.3 412.7 576 448 576C483.3 576 512 547.3 512 512C512 476.7 483.3 448 448 448zM382.8 64.2C490.4 69.7 576 158.7 576 267.7L575.8 277.8C573.7 320.6 558.1 361.4 531.5 394.7C522.7 388.4 513.2 383.1 503.1 378.9C527.6 350.1 542 314 543.9 276.1L544.1 267.6C544.1 175.8 472 100.8 381.3 96.2L372.5 96C329.8 96 288.8 111.9 257.3 140.4L251.1 146.3L178 219.3L358.2 399.5C349.8 406.2 342.3 413.8 335.6 422.1L155.4 241.9L152.6 244.7C138.8 258.5 130.3 276.5 128.4 295.7L128 304C128 326.2 136.8 347.6 152.6 363.3L156.9 368.1C175.8 391.3 175.8 424.7 156.9 447.9L152.6 452.7L103.2 502.1C99.7 505.6 97.4 509.9 96.5 514.7L96 519.5C96 533.1 107 544.1 120.6 544.1C127.1 544.1 133.4 541.5 138 536.9L187.4 487.5L192.2 483.2C215.4 464.3 248.8 464.3 271.9 483.2C274.9 485.9 278.5 489.2 282.9 493.1C289.4 498.4 296.6 502.6 304.2 505.7C304.1 507.8 304 509.9 304 512.1C304 521.7 305 531.2 306.8 540.3C287 535.2 268.8 524.9 254.1 510.2C241.9 498 222.2 498 210 510.2L160.6 559.6L156.4 563.4C146.3 571.4 133.7 576 120.6 576L114.8 575.7C88.2 573 67 551.8 64.3 525.2L64 519.4C64 506.3 68.6 493.6 76.8 483.6L80.6 479.4L130 430C141.4 418.6 142.1 400.5 132.2 388.2L130 385.8C109.6 365.4 97.6 338.2 96.2 309.6L96 304C96 275.2 106.7 247.5 126 226.2L130 222L228.4 123.6C266.6 85.5 318.3 64 372.3 64L382.8 64.2z"/></svg>