<svg xmlns="http://www.w3.org/2000/svg" viewBox="0 0 640 640"><!--! Font Awesome Pro 7.2.0 by @fontawesome - https://fontawesome.com License - https://fontawesome.com/license (Commercial License) Copyright 2026 Fonticons, Inc. --><path opacity=".4" fill="currentColor" d="M96 192L96 448C96 465.7 110.3 480 128 480L512 480C529.7 480 544 465.7 544 448L544 192C544 174.3 529.7 160 512 160L128 160C110.3 160 96 174.3 96 192zM160 240C160 231.2 167.2 224 176 224C184.8 224 192 231.2 192 240L192 304L272 304L272 240C272 231.2 279.2 224 288 224C296.8 224 304 231.2 304 240L304 400C304 408.8 296.8 416 288 416C279.2 416 272 408.8 272 400L272 336L192 336L192 400C192 408.8 184.8 416 176 416C167.2 416 160 408.8 160 400L160 240zM336 240C336 231.2 343.2 224 352 224L408 224C447.8 224 480 256.2 480 296L480 344C480 383.8 447.8 416 408 416L352 416C343.2 416 336 408.8 336 400L336 240zM368 256L368 384L408 384C430.1 384 448 366.1 448 344L448 296C448 273.9 430.1 256 408 256L368 256z"/><path fill="currentColor" d="M512 160C529.7 160 544 174.3 544 192L544 448C544 465.7 529.7 480 512 480L128 480C110.3 480 96 465.7 96 448L96 192C96 174.3 110.3 160 128 160L512 160zM128 128C92.7 128 64 156.7 64 192L64 448C64 483.3 92.7 512 128 512L512 512C547.3 512 576 483.3 576 448L576 192C576 156.7 547.3 128 512 128L128 128zM176 224C167.2 224 160 231.2 160 240L160 400C160 408.8 167.2 416 176 416C184.8 416 192 408.8 192 400L192 336L272 336L272 400C272 408.8 279.2 416 288 416C296.8 416 304 408.8 304 400L304 240C304 231.2 296.8 224 288 224C279.2 224 272 231.2 272 240L272 304L192 304L192 240C192 231.2 184.8 224 176 224zM352 224C343.2 224 336 231.2 336 240L336 400C336 408.8 343.2 416 352 416L408 416C447.8 416 480 383.8 480 344L480 296C480 256.2 447.8 224 408 224L352 224zM408 384L368 384L368 256L408 256C430.1 256 448 273.9 448 296L448 344C448 366.1 430.1 384 408 384z"/></svg>