<svg xmlns="http://www.w3.org/2000/svg" viewBox="0 0 640 640"><!--! Font Awesome Pro 7.2.0 by @fontawesome - https://fontawesome.com License - https://fontawesome.com/license (Commercial License) Copyright 2026 Fonticons, Inc. --><path opacity=".4" fill="currentColor" d="M160 64L160 576C160 593.7 174.3 608 192 608L448 608C465.7 608 480 593.7 480 576L480 64C480 46.3 465.7 32 448 32L192 32C174.3 32 160 46.3 160 64z"/><path fill="currentColor" d="M448 32C465.7 32 480 46.3 480 64L480 576C480 593.7 465.7 608 448 608L192 608C174.3 608 160 593.7 160 576L160 64C160 46.3 174.3 32 192 32L448 32zM192 0C156.7 0 128 28.7 128 64L128 576C128 611.3 156.7 640 192 640L448 640C483.3 640 512 611.3 512 576L512 64C512 28.7 483.3 0 448 0L192 0z"/></svg>