<svg xmlns="http://www.w3.org/2000/svg" viewBox="0 0 640 640"><!--! Font Awesome Pro 7.2.0 by @fontawesome - https://fontawesome.com License - https://fontawesome.com/license (Commercial License) Copyright 2026 Fonticons, Inc. --><path opacity=".4" fill="currentColor" d="M192 96L192 448C192 518.7 249.3 576 320 576C390.7 576 448 518.7 448 448L448 96C448 78.3 433.7 64 416 64L224 64C206.3 64 192 78.3 192 96zM400 192C400 236.2 364.2 272 320 272C275.8 272 240 236.2 240 192C240 147.8 275.8 112 320 112C364.2 112 400 147.8 400 192zM296 344C296 357.3 285.3 368 272 368C258.7 368 248 357.3 248 344C248 330.7 258.7 320 272 320C285.3 320 296 330.7 296 344zM248 432C248 418.7 258.7 408 272 408C285.3 408 296 418.7 296 432C296 445.3 285.3 456 272 456C258.7 456 248 445.3 248 432zM392 344C392 357.3 381.3 368 368 368C354.7 368 344 357.3 344 344C344 330.7 354.7 320 368 320C381.3 320 392 330.7 392 344zM344 432C344 418.7 354.7 408 368 408C381.3 408 392 418.7 392 432C392 445.3 381.3 456 368 456C354.7 456 344 445.3 344 432z"/><path fill="currentColor" d="M416 32C451.3 32 480 60.7 480 96L480 448L479.8 456.2C475.5 540.8 405.6 608 320 608C234.4 608 164.5 540.8 160.2 456.2L160 448L160 96C160 60.7 188.7 32 224 32L416 32zM224 64C206.3 64 192 78.3 192 96L192 448C192 518.7 249.3 576 320 576C390.7 576 448 518.7 448 448L448 96C448 78.3 433.7 64 416 64L224 64zM272 408C285.3 408 296 418.7 296 432C296 445.3 285.3 456 272 456C258.7 456 248 445.3 248 432C248 418.7 258.7 408 272 408zM368 408C381.3 408 392 418.7 392 432C392 445.3 381.3 456 368 456C354.7 456 344 445.3 344 432C344 418.7 354.7 408 368 408zM272 368C258.7 368 248 357.3 248 344C248 330.7 258.7 320 272 320C285.3 320 296 330.7 296 344C296 357.3 285.3 368 272 368zM368 368C354.7 368 344 357.3 344 344C344 330.7 354.7 320 368 320C381.3 320 392 330.7 392 344C392 357.3 381.3 368 368 368zM320 272C275.8 272 240 236.2 240 192C240 147.8 275.8 112 320 112C364.2 112 400 147.8 400 192C400 236.2 364.2 272 320 272zM320 144C293.5 144 272 165.5 272 192C272 218.5 293.5 240 320 240C346.5 240 368 218.5 368 192C368 165.5 346.5 144 320 144z"/></svg>