<svg xmlns="http://www.w3.org/2000/svg" viewBox="0 0 640 640"><!--! Font Awesome Pro 7.2.0 by @fontawesome - https://fontawesome.com License - https://fontawesome.com/license (Commercial License) Copyright 2026 Fonticons, Inc. --><path opacity=".4" fill="currentColor" d="M96.7 543.7C111.6 543 129.8 541.2 147.3 537.1C168.3 532.1 184.6 524.6 194.1 515C213.1 496 213.1 465.3 194.1 446.3C175.1 427.3 144.4 427.3 125.4 446.3C115.9 455.8 108.3 472.1 103.3 493.1C99.1 510.6 97.3 528.8 96.7 543.7zM120.9 320L224.4 320C225.5 320 226.7 320 227.8 320.1C237 283.3 248.3 251.5 261.1 224L187.6 224C182 224 176.8 226.9 173.9 231.8L120.9 320zM259.1 326.5C284.2 336.2 304.1 356.2 313.9 381.3C435.3 350.7 493.6 298.1 520.7 245.7C546.7 195.3 545.4 142.1 538.7 101.8C498.4 95 445.2 93.8 394.8 119.8C342.4 146.9 289.8 205.2 259.2 326.6zM320.3 412.6C320.3 413.7 320.4 414.8 320.4 416L320.4 519.5L408.6 466.6C413.4 463.7 416.4 458.5 416.4 452.9L416.4 379.4C389 392.3 357.1 403.5 320.3 412.7zM488.4 208C488.4 238.9 463.3 264 432.4 264C401.5 264 376.4 238.9 376.4 208C376.4 177.1 401.5 152 432.4 152C463.3 152 488.4 177.1 488.4 208z"/><path fill="currentColor" d="M568.1 84.9C566.8 78.6 561.9 73.6 555.5 72.3C511.2 63.4 444.3 58.1 380 91.3C342.6 110.6 307.2 142.4 277.9 192L187.5 192C170.6 192 155 200.8 146.3 215.3L93.5 303.5C80.7 324.9 96 352 120.9 352L224.4 352C259.7 352 288.4 380.7 288.4 416L288.4 519.5C288.4 544.4 315.5 559.7 336.9 546.9L425.1 494C439.6 485.3 448.4 469.7 448.4 452.8L448.4 362.4C498 333.1 529.8 297.7 549.1 260.3C582.3 196 576.9 129.1 568.1 84.8zM416.4 379.3L416.4 452.8C416.4 458.4 413.5 463.6 408.6 466.5L320.4 519.4L320.4 415.9C320.4 414.8 320.4 413.6 320.3 412.5C357.1 403.3 388.9 392 416.4 379.2zM313.9 381.2C304.2 356.1 284.2 336.2 259.1 326.4C289.7 205 342.3 146.7 394.7 119.6C445.1 93.6 498.3 94.9 538.6 101.6C545.4 141.9 546.6 195.1 520.6 245.5C493.5 297.9 435.2 350.5 313.8 381.1zM227.8 320C226.7 320 225.6 319.9 224.4 319.9L120.9 319.9L173.8 231.7C176.7 226.9 181.9 223.9 187.5 223.9L261 223.9C248.1 251.3 236.9 283.2 227.7 320zM432.4 232C419.1 232 408.4 221.3 408.4 208C408.4 194.7 419.1 184 432.4 184C445.7 184 456.4 194.7 456.4 208C456.4 221.3 445.7 232 432.4 232zM376.4 208C376.4 238.9 401.5 264 432.4 264C463.3 264 488.4 238.9 488.4 208C488.4 177.1 463.3 152 432.4 152C401.5 152 376.4 177.1 376.4 208zM194.2 514.9C184.7 524.4 168.4 532 147.4 537C129.9 541.2 111.7 543 96.8 543.6C97.5 528.7 99.3 510.5 103.4 493C108.4 472 115.9 455.7 125.5 446.2C144.5 427.2 175.2 427.2 194.2 446.2C213.2 465.2 213.2 495.9 194.2 514.9zM216.8 537.5C248.3 506 248.3 455 216.8 423.5C185.3 392 134.3 392 102.8 423.5C71.5 454.8 65.3 515.5 64.5 549.9C64.1 564.5 75.7 576.1 90.4 575.8C124.9 575 185.5 568.8 216.8 537.5z"/></svg>