<svg xmlns="http://www.w3.org/2000/svg" viewBox="0 0 640 640"><!--! Font Awesome Pro 7.2.0 by @fontawesome - https://fontawesome.com License - https://fontawesome.com/license (Commercial License) Copyright 2026 Fonticons, Inc. --><path opacity=".4" fill="currentColor" d="M96 416C96 431 105.9 454.3 123.8 481.2C135.6 499 149 515.7 160 528.6C171.1 515.7 184.5 499 196.2 481.2C214 454.3 224 431 224 416C224 380.7 195.3 352 160 352C124.7 352 96 380.7 96 416zM184 416C184 429.3 173.3 440 160 440C146.7 440 136 429.3 136 416C136 402.7 146.7 392 160 392C173.3 392 184 402.7 184 416zM416 160C416 175.2 426.1 199.7 443.9 228.2C455.6 246.9 468.9 264.7 480 278.6C491.1 264.7 504.4 246.9 516.1 228.2C533.9 199.7 544 175.3 544 160C544 124.7 515.3 96 480 96C444.7 96 416 124.7 416 160zM504 160C504 173.3 493.3 184 480 184C466.7 184 456 173.3 456 160C456 146.7 466.7 136 480 136C493.3 136 504 146.7 504 160z"/><path fill="currentColor" d="M516.1 228.2C504.4 246.9 491.1 264.7 480 278.6C468.9 264.7 455.6 246.9 443.9 228.2C426.1 199.7 416 175.3 416 160C416 124.7 444.7 96 480 96C515.3 96 544 124.7 544 160C544 175.2 533.9 199.7 516.1 228.2zM491.4 315C516.8 285.1 576 210.2 576 160C576 107 533 64 480 64C427 64 384 107 384 160C384 198.7 419 251.9 446.7 288L400 288C355.8 288 320 323.8 320 368C320 412.2 355.8 448 400 448L496 448C522.5 448 544 469.5 544 496C544 522.5 522.5 544 496 544L230 544C220.6 556.3 211.4 567.2 203.6 576L496 576C540.2 576 576 540.2 576 496C576 451.8 540.2 416 496 416L400 416C373.5 416 352 394.5 352 368C352 341.5 373.5 320 400 320L476.9 320C482 321.1 487.6 319.4 491.4 315zM196.2 481.2C184.5 499 171.1 515.7 160 528.6C148.9 515.7 135.5 499 123.8 481.2C105.9 454.3 96 431 96 416C96 380.7 124.7 352 160 352C195.3 352 224 380.7 224 416C224 431 214.1 454.3 196.2 481.2zM188.6 544.3C216.9 510.7 256 456.8 256 415.9C256 362.9 213 319.9 160 319.9C107 319.9 64 363 64 416C64 466.5 123.8 537 149 564.4C155 570.9 165 570.9 170.9 564.4C174 561 177.7 556.9 181.8 552.2C184 549.7 186.2 547.1 188.5 544.3zM504 160C504 146.7 493.3 136 480 136C466.7 136 456 146.7 456 160C456 173.3 466.7 184 480 184C493.3 184 504 173.3 504 160zM160 440C173.3 440 184 429.3 184 416C184 402.7 173.3 392 160 392C146.7 392 136 402.7 136 416C136 429.3 146.7 440 160 440z"/></svg>