<svg xmlns="http://www.w3.org/2000/svg" viewBox="0 0 640 640"><!--! Font Awesome Pro 7.2.0 by @fontawesome - https://fontawesome.com License - https://fontawesome.com/license (Commercial License) Copyright 2026 Fonticons, Inc. --><path opacity=".4" fill="currentColor" d="M224 80L224 560C224 568.8 231.2 576 240 576L400 576C408.8 576 416 568.8 416 560L416 512L336 512C327.2 512 320 504.8 320 496C320 487.2 327.2 480 336 480L416 480L416 424L368 424C359.2 424 352 416.8 352 408C352 399.2 359.2 392 368 392L416 392L416 336L336 336C327.2 336 320 328.8 320 320C320 311.2 327.2 304 336 304L416 304L416 248L368 248C359.2 248 352 240.8 352 232C352 223.2 359.2 216 368 216L416 216L416 160L336 160C327.2 160 320 152.8 320 144C320 135.2 327.2 128 336 128L416 128L416 80C416 71.2 408.8 64 400 64L240 64C231.2 64 224 71.2 224 80z"/><path fill="currentColor" d="M224 560L224 80C224 71.2 231.2 64 240 64L400 64C408.8 64 416 71.2 416 80L416 128L336 128C327.2 128 320 135.2 320 144C320 152.8 327.2 160 336 160L416 160L416 216L368 216C359.2 216 352 223.2 352 232C352 240.8 359.2 248 368 248L416 248L416 304L336 304C327.2 304 320 311.2 320 320C320 328.8 327.2 336 336 336L416 336L416 392L368 392C359.2 392 352 399.2 352 408C352 416.8 359.2 424 368 424L416 424L416 480L336 480C327.2 480 320 487.2 320 496C320 504.8 327.2 512 336 512L416 512L416 560C416 568.8 408.8 576 400 576L240 576C231.2 576 224 568.8 224 560zM448 144L448 80C448 53.5 426.5 32 400 32L240 32C213.5 32 192 53.5 192 80L192 560C192 586.5 213.5 608 240 608L400 608C426.5 608 448 586.5 448 560L448 144z"/></svg>