<svg xmlns="http://www.w3.org/2000/svg" viewBox="0 0 640 640"><!--! Font Awesome Pro 7.2.0 by @fontawesome - https://fontawesome.com License - https://fontawesome.com/license (Commercial License) Copyright 2026 Fonticons, Inc. --><path opacity=".4" fill="currentColor" d="M224 154.5L224 448C224 465.7 238.3 480 256 480L480 480C497.7 480 512 465.7 512 448L512 96C512 78.3 497.7 64 480 64L314.5 64C306 64 297.9 67.4 291.9 73.4L233.4 131.9C227.4 137.9 224 146 224 154.5zM352 144C352 135.2 359.2 128 368 128C376.8 128 384 135.2 384 144L384 208C384 216.8 376.8 224 368 224C359.2 224 352 216.8 352 208L352 144zM432 144C432 135.2 439.2 128 448 128C456.8 128 464 135.2 464 144L464 208C464 216.8 456.8 224 448 224C439.2 224 432 216.8 432 208L432 144z"/><path fill="currentColor" d="M256 480C238.3 480 224 465.7 224 448L224 154.5C224 146 227.4 137.9 233.4 131.9L291.9 73.4C297.9 67.4 306 64 314.5 64L480 64C497.7 64 512 78.3 512 96L512 448C512 465.7 497.7 480 480 480L256 480zM256 512L480 512C515.3 512 544 483.3 544 448L544 96C544 60.7 515.3 32 480 32L314.5 32C297.5 32 281.2 38.7 269.2 50.7L210.7 109.3C198.7 121.3 192 137.5 192 154.5L192 448C192 483.3 220.7 512 256 512zM112 224C103.2 224 96 231.2 96 240L96 544C96 579.3 124.7 608 160 608L432 608C440.8 608 448 600.8 448 592C448 583.2 440.8 576 432 576L160 576C142.3 576 128 561.7 128 544L128 240C128 231.2 120.8 224 112 224zM384 144C384 135.2 376.8 128 368 128C359.2 128 352 135.2 352 144L352 208C352 216.8 359.2 224 368 224C376.8 224 384 216.8 384 208L384 144zM464 144C464 135.2 456.8 128 448 128C439.2 128 432 135.2 432 144L432 208C432 216.8 439.2 224 448 224C456.8 224 464 216.8 464 208L464 144z"/></svg>