<svg xmlns="http://www.w3.org/2000/svg" viewBox="0 0 640 640"><!--! Font Awesome Pro 7.2.0 by @fontawesome - https://fontawesome.com License - https://fontawesome.com/license (Commercial License) Copyright 2026 Fonticons, Inc. --><path opacity=".4" fill="currentColor" d="M119.9 354.5L304 280.9L304 481.5C300.9 479.8 297.3 477.5 293 474.7L284.4 468.8C252.4 446 213.9 436.7 176.6 441C151.3 417.8 131.5 388.4 119.9 354.4zM256 112C256 103.2 263.2 96 272 96L368 96C376.8 96 384 103.2 384 112L384 128L256 128L256 112zM336 280.9L520.1 354.5C508.5 388.4 488.7 417.9 463.4 441C428.1 436.9 391.6 445 360.7 465.3L355.6 468.8C347.8 474.3 341.6 478.3 336.7 481.1L336 480.9L336 280.9z"/><path fill="currentColor" d="M383.5 507.9C420.6 481.4 470.6 481.4 507.7 507.9C525.9 520.9 544.2 530.7 562.1 534.1C579.3 537.4 596.7 534.9 614.7 522.1C621.9 517 631.9 518.6 637 525.8C642.1 533 640.4 543 633.2 548.1C607.6 566.3 581.2 570.3 556 565.5C531.5 560.8 508.8 547.9 489.1 533.9C463.1 515.3 428 515.3 402 533.9C376.4 552.2 349.1 568 320 568C290.9 568 263.6 552.2 238 533.9C212 515.3 176.9 515.3 150.9 533.9C126.2 551.5 96.3 567.6 64 567.4C44.7 567.3 25.4 561.4 6.8 548.1C-.4 543-2.1 533 3.1 525.8C8.3 518.6 18.2 517 25.4 522.1C38.8 531.7 51.8 535.3 64.2 535.4C86.2 535.5 109.2 524.4 132.4 507.9C169.5 481.4 219.5 481.4 256.6 507.9C281.9 526 301.9 536 320.1 536C338.3 536 358.3 525.9 383.6 507.9zM368 64C394.5 64 416 85.5 416 112L416 128L432 128C476.2 128 512 163.8 512 208L512 316.8L533.6 325.4C548.4 331.3 556 347.8 551 362.9C540 395.9 522.3 425.3 499.8 449.8C488 445.4 475.7 442.4 463.3 441C488.6 417.8 508.4 388.4 520.1 354.4L336 280.9L336 481.4C329.4 485.1 325.3 486.8 322.8 487.5L320 488C318.9 488 314.4 487.3 304 481.4L304 280.8L119.9 354.4C131.5 388.3 151.3 417.8 176.6 441C164.2 442.4 151.9 445.3 140.1 449.7C117.6 425.2 100 395.9 89 362.9C83.9 347.7 91.6 331.3 106.4 325.3L128 316.7L128 207.9C128 163.7 163.8 127.9 208 127.9L224 127.9L224 111.9C224 85.4 245.5 63.9 272 63.9L368 63.9zM208 160C181.5 160 160 181.5 160 208L160 304L296.2 249.5C311.5 243.4 328.5 243.4 343.8 249.5L480 304L480 208C480 181.5 458.5 160 432 160L208 160zM272 96C263.2 96 256 103.2 256 112L256 128L384 128L384 112C384 103.2 376.8 96 368 96L272 96z"/></svg>