<svg xmlns="http://www.w3.org/2000/svg" viewBox="0 0 640 640"><!--! Font Awesome Pro 7.2.0 by @fontawesome - https://fontawesome.com License - https://fontawesome.com/license (Commercial License) Copyright 2026 Fonticons, Inc. --><path opacity=".4" fill="currentColor" d="M108.1 483.1C107.3 487.5 110.2 491.6 114.6 492.4L252.6 516.4C256.8 517.1 260.8 514.5 261.8 510.4L294.7 372.1C297.5 360.3 308 352 320.1 352C332.2 352 342.7 360.3 345.5 372.1L378.4 510.4C379.4 514.5 383.4 517.2 387.6 516.4L525.6 492.4C530 491.6 532.9 487.5 532.1 483.1L485.6 224L154.6 224L108.1 483.1zM160.1 136L160.1 192L480.1 192L480.1 136C480.1 131.6 476.5 128 472.1 128L168.1 128C163.7 128 160.1 131.6 160.1 136z"/><path fill="currentColor" d="M160.1 136C160.1 131.6 163.7 128 168.1 128L472.1 128C476.5 128 480.1 131.6 480.1 136L480.1 192L160.1 192L160.1 136zM154.6 224L485.6 224L532.1 483.1C532.9 487.5 530 491.6 525.6 492.4L387.6 516.4C383.4 517.1 379.4 514.5 378.4 510.4L345.5 372.1C342.7 360.3 332.2 352 320.1 352C308 352 297.5 360.3 294.7 372.1L261.8 510.3C260.8 514.4 256.8 517.1 252.6 516.3L114.6 492.3C110.2 491.5 107.3 487.4 108.1 483L154.6 224zM168.1 96C146 96 128.1 113.9 128.1 136L128.1 190.6L76.6 477.4C72.7 499.2 87.3 520.1 109.1 523.9L247.1 547.9C267.9 551.5 288 538.3 292.9 517.8L320.1 403.5L347.3 517.8C352.2 538.4 372.2 551.6 393.1 547.9L531.1 523.9C552.9 520.1 567.5 499.3 563.6 477.4L512.1 190.6L512.1 136C512.1 113.9 494.2 96 472.1 96L168.1 96z"/></svg>