<svg xmlns="http://www.w3.org/2000/svg" viewBox="0 0 640 640"><!--! Font Awesome Pro 7.2.0 by @fontawesome - https://fontawesome.com License - https://fontawesome.com/license (Commercial License) Copyright 2026 Fonticons, Inc. --><path opacity=".4" fill="currentColor" d="M352 224L352 416C352 433.7 366.3 448 384 448L416 448C433.7 448 448 433.7 448 416L448 224C448 206.3 433.7 192 416 192L384 192C366.3 192 352 206.3 352 224z"/><path fill="currentColor" d="M416 192C433.7 192 448 206.3 448 224L448 416C448 433.7 433.7 448 416 448L384 448C366.3 448 352 433.7 352 416L352 224C352 206.3 366.3 192 384 192L416 192zM384 160C348.7 160 320 188.7 320 224L320 416C320 451.3 348.7 480 384 480L416 480C451.3 480 480 451.3 480 416L480 336L592 336C600.8 336 608 328.8 608 320C608 311.2 600.8 304 592 304L480 304L480 224C480 188.7 451.3 160 416 160L384 160zM32 320C32 328.8 39.2 336 48 336L272 336L272 304L48 304C39.2 304 32 311.2 32 320z"/></svg>