<svg xmlns="http://www.w3.org/2000/svg" viewBox="0 0 640 640"><!--! Font Awesome Pro 7.2.0 by @fontawesome - https://fontawesome.com License - https://fontawesome.com/license (Commercial License) Copyright 2026 Fonticons, Inc. --><path opacity=".4" fill="currentColor" d="M128 160L128 480C128 497.7 142.3 512 160 512L480 512C497.7 512 512 497.7 512 480L512 160C512 142.3 497.7 128 480 128L160 128C142.3 128 128 142.3 128 160zM208 264C208 255.2 215.2 248 224 248L240 248L240 208C240 199.2 247.2 192 256 192L320 192C358.7 192 392.1 215 407.3 248L432 248C440.8 248 448 255.2 448 264C448 272.8 440.8 280 432 280L415.7 280C415.9 282.6 416 285.3 416 288C416 290.7 415.9 293.4 415.7 296L432 296C440.8 296 448 303.2 448 312C448 320.8 440.8 328 432 328L407.3 328C392.1 361 358.8 384 320 384L272 384L272 432C272 440.8 264.8 448 256 448C247.2 448 240 440.8 240 432L240 328L224 328C215.2 328 208 320.8 208 312C208 303.2 215.2 296 224 296L240 296L240 280L224 280C215.2 280 208 272.8 208 264zM272 224L272 248L370 248C358.3 233.4 340.2 224 320 224L272 224zM272 280L272 296L383.5 296C383.8 293.4 384 290.7 384 288C384 285.3 383.8 282.6 383.5 280L272 280zM272 328L272 352L320 352C340.2 352 358.2 342.6 370 328L272 328z"/><path fill="currentColor" d="M160 128L480 128C497.7 128 512 142.3 512 160L512 480C512 497.7 497.7 512 480 512L160 512C142.3 512 128 497.7 128 480L128 160C128 142.3 142.3 128 160 128zM160 96C124.7 96 96 124.7 96 160L96 480C96 515.3 124.7 544 160 544L480 544C515.3 544 544 515.3 544 480L544 160C544 124.7 515.3 96 480 96L160 96zM240 208L240 248L224 248C215.2 248 208 255.2 208 264C208 272.8 215.2 280 224 280L240 280L240 296L224 296C215.2 296 208 303.2 208 312C208 320.8 215.2 328 224 328L240 328L240 432C240 440.8 247.2 448 256 448C264.8 448 272 440.8 272 432L272 384L320 384C358.7 384 392.1 361 407.3 328L432 328C440.8 328 448 320.8 448 312C448 303.2 440.8 296 432 296L415.7 296C415.9 293.4 416 290.7 416 288C416 285.3 415.9 282.6 415.7 280L432 280C440.8 280 448 272.8 448 264C448 255.2 440.8 248 432 248L407.3 248C392.1 215 358.8 192 320 192L256 192C247.2 192 240 199.2 240 208zM320 224C340.2 224 358.2 233.4 370 248L272 248L272 224L320 224zM272 296L272 280L383.5 280C383.8 282.6 384 285.3 384 288C384 290.7 383.8 293.4 383.5 296L272 296zM272 328L370 328C358.3 342.6 340.3 352 320 352L272 352L272 328z"/></svg>