<svg xmlns="http://www.w3.org/2000/svg" viewBox="0 0 640 640"><!--! Font Awesome Pro 7.2.0 by @fontawesome - https://fontawesome.com License - https://fontawesome.com/license (Commercial License) Copyright 2026 Fonticons, Inc. --><path opacity=".4" fill="currentColor" d="M128 160C128 142.3 142.3 128 160 128L480 128C497.7 128 512 142.3 512 160L512 480C512 497.7 497.7 512 480 512L160 512C142.3 512 128 497.7 128 480L128 160zM208 208L208 336C208 344.8 215.2 352 224 352C232.8 352 240 344.8 240 336L240 208C240 199.2 232.8 192 224 192C215.2 192 208 199.2 208 208zM304 208L304 304C304 312.8 311.2 320 320 320C328.8 320 336 312.8 336 304L336 208C336 199.2 328.8 192 320 192C311.2 192 304 199.2 304 208zM400 208L400 400C400 408.8 407.2 416 416 416C424.8 416 432 408.8 432 400L432 208C432 199.2 424.8 192 416 192C407.2 192 400 199.2 400 208z"/><path fill="currentColor" d="M128 160L128 480C128 497.7 142.3 512 160 512L480 512C497.7 512 512 497.7 512 480L512 160C512 142.3 497.7 128 480 128L160 128C142.3 128 128 142.3 128 160zM96 160C96 124.7 124.7 96 160 96L480 96C515.3 96 544 124.7 544 160L544 480C544 515.3 515.3 544 480 544L160 544C124.7 544 96 515.3 96 480L96 160zM224 352C215.2 352 208 344.8 208 336L208 208C208 199.2 215.2 192 224 192C232.8 192 240 199.2 240 208L240 336C240 344.8 232.8 352 224 352zM400 400L400 208C400 199.2 407.2 192 416 192C424.8 192 432 199.2 432 208L432 400C432 408.8 424.8 416 416 416C407.2 416 400 408.8 400 400zM320 320C311.2 320 304 312.8 304 304L304 208C304 199.2 311.2 192 320 192C328.8 192 336 199.2 336 208L336 304C336 312.8 328.8 320 320 320z"/></svg>