<svg xmlns="http://www.w3.org/2000/svg" viewBox="0 0 640 640"><!--! Font Awesome Pro 7.2.0 by @fontawesome - https://fontawesome.com License - https://fontawesome.com/license (Commercial License) Copyright 2026 Fonticons, Inc. --><path opacity=".4" fill="currentColor" d="M128 160C128 142.3 142.3 128 160 128L480 128C497.7 128 512 142.3 512 160L512 304L128 304L128 160z"/><path fill="currentColor" d="M96 480C96 515.3 124.7 544 160 544L160 512C142.3 512 128 497.7 128 480L128 336L512 336L512 480C512 496.6 499.4 510.2 483.3 511.8L480 512L480 544C515.3 544 544 515.3 544 480L544 160L543.7 153.5C540.6 123.4 516.7 99.4 486.6 96.4L480 96L160 96C124.7 96 96 124.7 96 160L96 480zM128 160C128 142.3 142.3 128 160 128L480 128C497.7 128 512 142.3 512 160L512 304L128 304L128 160zM232 512C232 520.8 239.2 528 248 528L304 528L304 584C304 592.8 311.2 600 320 600C328.8 600 336 592.8 336 584L336 528L392 528C400.8 528 408 520.8 408 512C408 503.2 400.8 496 392 496L336 496L336 440C336 431.2 328.8 424 320 424C311.2 424 304 431.2 304 440L304 496L248 496C239.2 496 232 503.2 232 512z"/></svg>