<svg xmlns="http://www.w3.org/2000/svg" viewBox="0 0 640 640"><!--! Font Awesome Pro 7.2.0 by @fontawesome - https://fontawesome.com License - https://fontawesome.com/license (Commercial License) Copyright 2026 Fonticons, Inc. --><path opacity=".4" fill="currentColor" d="M128 336L128 480C128 497.7 142.3 512 160 512L480 512C497.7 512 512 497.7 512 480L512 336L128 336z"/><path fill="currentColor" d="M96 160C96 124.7 124.7 96 160 96L192 96L192 128L160 128C142.3 128 128 142.3 128 160L128 304L512 304L512 160C512 142.3 497.7 128 480 128L448 128L448 96L480 96C515.3 96 544 124.7 544 160L544 480L543.7 486.5C540.6 516.6 516.7 540.6 486.6 543.6L480.1 543.9L160.1 543.9C124.8 543.9 96.1 515.2 96.1 479.9L96 160zM128 480C128 497.7 142.3 512 160 512L480 512C497.7 512 512 497.7 512 480L512 336L128 336L128 480zM252.7 83.3C246.5 77.1 246.5 66.9 252.7 60.7C258.9 54.5 269.1 54.5 275.3 60.7L320 105.4L364.7 60.7C370.9 54.5 381.1 54.5 387.3 60.7C393.5 66.9 393.5 77.1 387.3 83.3L342.6 128L387.3 172.7C393.5 178.9 393.5 189.1 387.3 195.3C381.1 201.5 370.9 201.5 364.7 195.3L320 150.6L275.3 195.3C269.1 201.5 258.9 201.5 252.7 195.3C246.5 189.1 246.5 178.9 252.7 172.7L297.4 128L252.7 83.3z"/></svg>