<svg xmlns="http://www.w3.org/2000/svg" viewBox="0 0 640 640"><!--! Font Awesome Pro 7.2.0 by @fontawesome - https://fontawesome.com License - https://fontawesome.com/license (Commercial License) Copyright 2026 Fonticons, Inc. --><path opacity=".4" fill="currentColor" d="M128 544L512 544L458.7 416L181.4 416L128.1 544zM194.7 384L445.4 384L405.4 288L234.7 288L194.7 384zM248 256L392 256L327.4 100.9C326.2 97.9 323.2 96 320 96C316.8 96 313.9 97.9 312.6 100.9L248 256z"/><path fill="currentColor" d="M320 96C323.2 96 326.1 97.9 327.4 100.9L392 256L248 256L312.6 100.9C313.8 97.9 316.8 96 320 96zM405.3 288L445.3 384L194.6 384L234.6 288L405.3 288zM458.6 416L511.9 544L127.9 544L181.2 416L458.5 416zM283.1 88.6L93.3 544L80 544C71.2 544 64 551.2 64 560C64 568.8 71.2 576 80 576L560 576C568.8 576 576 568.8 576 560C576 551.2 568.8 544 560 544L546.7 544L357 88.6C350.7 73.7 336.1 64 320 64C303.9 64 289.3 73.7 283.1 88.6z"/></svg>