<svg xmlns="http://www.w3.org/2000/svg" viewBox="0 0 640 640"><!--! Font Awesome Pro 7.2.0 by @fontawesome - https://fontawesome.com License - https://fontawesome.com/license (Commercial License) Copyright 2026 Fonticons, Inc. --><path opacity=".4" fill="currentColor" d="M156.8 208L179.5 514.4C180.7 531.1 194.7 544 211.4 544L428.5 544C445.3 544 459.2 531.1 460.4 514.4L483.2 208L156.8 208zM212.7 324.7L284.7 252.7C290.9 246.5 301.1 246.5 307.3 252.7C313.5 258.9 313.5 269.1 307.3 275.3L262.6 320L336 320C380.2 320 416 355.8 416 400L416 440C416 448.8 408.8 456 400 456C391.2 456 384 448.8 384 440L384 400C384 373.5 362.5 352 336 352L262.6 352L307.3 396.7C313.5 402.9 313.5 413.1 307.3 419.3C301.1 425.5 290.9 425.5 284.7 419.3L212.7 347.3C206.5 341.1 206.5 330.9 212.7 324.7zM245.5 128L394.5 128L383.5 91.4C381.9 86.2 377.9 82.3 373 80.7C371.4 80.4 369.8 80.1 368.2 80L273.7 80C273.1 80 272.4 80 271.8 80C270.2 80.2 268.6 80.4 267 80.7C262 82.3 258 86.2 256.5 91.4L245.5 128z"/><path fill="currentColor" d="M256.5 91.4C258.5 84.6 264.8 80 271.8 80L368.2 80C375.3 80 381.5 84.6 383.5 91.4L394.5 128L245.5 128L256.5 91.4zM212.1 128L112 128C103.2 128 96 135.2 96 144C96 152.8 103.2 160 112 160L528 160C536.8 160 544 152.8 544 144C544 135.2 536.8 128 528 128L427.9 128L414.2 82.2C408.1 61.9 389.4 48 368.2 48L271.8 48C250.6 48 231.9 61.9 225.8 82.2L212.1 128zM124.7 208L147.6 516.7C150.1 550.1 177.9 576 211.4 576L428.5 576C462 576 489.8 550.1 492.3 516.7L515.2 208L483.1 208L460.4 514.4C459.2 531.1 445.2 544 428.5 544L211.4 544C194.6 544 180.7 531.1 179.5 514.4L156.8 208L124.7 208zM307.3 252.7C301.1 246.5 290.9 246.5 284.7 252.7L212.7 324.7C206.5 330.9 206.5 341.1 212.7 347.3L284.7 419.3C290.9 425.5 301.1 425.5 307.3 419.3C313.5 413.1 313.5 402.9 307.3 396.7L262.6 352L336 352C362.5 352 384 373.5 384 400L384 440C384 448.8 391.2 456 400 456C408.8 456 416 448.8 416 440L416 400C416 355.8 380.2 320 336 320L262.6 320L307.3 275.3C313.5 269.1 313.5 258.9 307.3 252.7z"/></svg>