<svg xmlns="http://www.w3.org/2000/svg" viewBox="0 0 640 640"><!--! Font Awesome Pro 7.2.0 by @fontawesome - https://fontawesome.com License - https://fontawesome.com/license (Commercial License) Copyright 2026 Fonticons, Inc. --><path opacity=".4" fill="currentColor" d="M156.8 208L483.1 208L460.4 514.4C459.2 531.1 445.2 544 428.5 544L211.4 544C194.6 544 180.7 531.1 179.5 514.4L156.8 208zM228.5 391.6L282.9 447.9C286.2 451.3 290.8 453.1 295.5 452.7C300.2 452.3 304.6 450 307.3 446.2L412.9 301C418.1 293.9 416.5 283.9 409.4 278.7C402.3 273.5 392.3 275.1 387.1 282.2L292.7 412L251.5 369.4C245.4 363.1 235.2 362.9 228.9 369C222.6 375.1 222.4 385.3 228.5 391.6zM245.5 128L256.5 91.4C258.1 86.2 262.1 82.3 267.1 80.7C268.7 80.4 270.3 80.1 271.9 80C272.5 80 273.2 80 273.8 80L368.3 80C369.9 80.2 371.5 80.4 373.1 80.7C378.1 82.3 382.1 86.2 383.7 91.4L394.7 128L245.7 128z"/><path fill="currentColor" d="M179.5 514.4C180.7 531.1 194.7 544 211.4 544L428.5 544C445.3 544 459.2 531.1 460.4 514.4L483.1 208L515.2 208L492.3 516.7C489.8 550.1 462 576 428.5 576L211.4 576C177.9 576 150 550.1 147.6 516.7L124.8 208L156.8 208L179.5 514.4zM387.1 282.2C392.3 275.1 402.3 273.5 409.4 278.7C416.5 283.9 418.1 293.9 412.9 301L307.3 446.2C304.5 450 300.2 452.4 295.5 452.7C290.8 453 286.2 451.3 282.9 447.9L228.5 391.6C222.4 385.2 222.5 375.1 228.9 369C235.3 362.9 245.4 363.1 251.5 369.4L292.7 412L387.1 282.2zM368.2 48C389.4 48 408.1 61.9 414.2 82.2L427.9 128L528 128C536.8 128 544 135.2 544 144C544 152.8 536.8 160 528 160L112 160C103.2 160 96 152.8 96 144C96 135.2 103.2 128 112 128L212.1 128L225.9 82.2C232 61.9 250.7 48 271.9 48L368.3 48zM271.8 80C264.7 80 258.5 84.6 256.5 91.4L245.5 128L394.5 128L383.5 91.4C381.5 84.6 375.2 80 368.2 80L271.8 80z"/></svg>