<svg xmlns="http://www.w3.org/2000/svg" viewBox="0 0 640 640"><!--! Font Awesome Pro 7.2.0 by @fontawesome - https://fontawesome.com License - https://fontawesome.com/license (Commercial License) Copyright 2026 Fonticons, Inc. --><path opacity=".4" fill="currentColor" d="M96 320C96 443.7 196.3 544 320 544C443.7 544 544 443.7 544 320C544 196.3 443.7 96 320 96C196.3 96 96 196.3 96 320zM193.7 248.8C197.7 240.9 207.3 237.7 215.2 241.6L236.3 252.1C262.3 265.1 291 271.9 320.1 271.9C349.2 271.9 377.9 265.1 403.9 252.1L425 241.6C432.9 237.6 442.5 240.9 446.5 248.8C450.5 256.7 447.2 266.3 439.3 270.3L418.2 280.8C402.2 288.8 385.4 294.8 368.1 298.6L368.1 373.9L391.6 468C393.7 476.6 388.5 485.3 380 487.4C371.5 489.5 362.7 484.3 360.6 475.8L339.6 391.9L300.6 391.9L279.6 475.8C277.5 484.4 268.8 489.6 260.2 487.4C251.6 485.2 246.4 476.6 248.6 468L272.1 373.9L272.1 298.6C254.8 294.7 238 288.7 222 280.8L200.9 270.3C193 266.3 189.8 256.7 193.7 248.8zM272 192C272 165.5 293.5 144 320 144C346.5 144 368 165.5 368 192C368 217.9 347.6 238.9 322 239.9C321.4 239.9 320.7 240 320 240C319.3 240 318.7 240 318 239.9C292.4 238.9 272 217.8 272 192z"/><path fill="currentColor" d="M320 96C443.7 96 544 196.3 544 320C544 443.7 443.7 544 320 544C196.3 544 96 443.7 96 320C96 196.3 196.3 96 320 96zM320 576C461.4 576 576 461.4 576 320C576 178.6 461.4 64 320 64C178.6 64 64 178.6 64 320C64 461.4 178.6 576 320 576zM304 192C304 183.2 311.2 176 320 176C328.8 176 336 183.2 336 192C336 200.8 328.8 208 320 208C311.2 208 304 200.8 304 192zM368 192C368 165.5 346.5 144 320 144C293.5 144 272 165.5 272 192C272 218.5 293.5 240 320 240C346.5 240 368 218.5 368 192zM193.7 248.8C189.7 256.7 193 266.3 200.9 270.3L222 280.8C238 288.8 254.8 294.8 272.1 298.6L272.1 373.9L248.6 468C246.5 476.6 251.7 485.3 260.2 487.4C268.7 489.5 277.5 484.3 279.6 475.8L300.6 391.9L339.6 391.9L360.6 475.8C362.7 484.4 371.4 489.6 380 487.4C388.6 485.2 393.8 476.6 391.6 468L368 374L368 298.7C385.3 294.8 402.1 288.8 418.1 280.9L439.2 270.4C447.1 266.4 450.3 256.8 446.4 248.9C442.5 241 432.8 237.8 424.9 241.7L403.8 252.2C377.8 265.2 349.1 272 320 272C290.9 272 262.2 265.2 236.2 252.2L215.1 241.7C207.2 237.7 197.6 241 193.6 248.9zM304 303.4C314.6 304.2 325.4 304.2 336 303.4L336 360L304 360L304 303.4z"/></svg>