<svg xmlns="http://www.w3.org/2000/svg" viewBox="0 0 640 640"><!--! Font Awesome Pro 7.2.0 by @fontawesome - https://fontawesome.com License - https://fontawesome.com/license (Commercial License) Copyright 2026 Fonticons, Inc. --><path opacity=".4" fill="currentColor" d="M113.4 575.9C155.6 576 197.8 576 240 576C209.1 576 184 550.9 184 520C184 494.6 200.9 473.2 224 466.3L224 424.2C168.1 444 128 497.3 128 560C128 568.4 121.6 575.3 113.4 575.9zM216 520C216 533.3 226.7 544 240 544C253.3 544 264 533.3 264 520C264 506.7 253.3 496 240 496C226.7 496 216 506.7 216 520zM225.6 160L237.2 160C255.9 160 274 153.4 288.4 141.5L309.7 123.8C315.6 118.9 324.3 118.9 330.2 123.8L351.5 141.5C365.9 153.4 384 160 402.8 160L414.4 160C412.6 151.3 409.4 143 405.1 135.5C400 127.8 394.1 120.8 387.4 114.6C373.5 102.9 355.6 95.9 336 95.9L304 95.9C284.4 95.9 266.5 102.9 252.6 114.6C245.9 120.7 240 127.7 234.9 135.4C230.5 142.9 227.3 151.1 225.6 159.9zM240 576L526 576C518.1 574.9 512 568.2 512 560C512 497.3 471.9 444 416 424.2L416 466C443.6 473.1 464 498.2 464 528L464 552C464 560.8 456.8 568 448 568C439.2 568 432 560.8 432 552L432 528C432 510.3 417.7 496 400 496C382.3 496 368 510.3 368 528L368 552C368 560.8 360.8 568 352 568C343.2 568 336 560.8 336 552L336 528C336 498.2 356.4 473.1 384 466L384 416.9C378.7 416.3 373.4 416 368 416L272 416C266.6 416 261.3 416.3 256 416.9L256 466.3C279.1 473.2 296 494.6 296 520C296 550.9 270.9 576 240 576z"/><path fill="currentColor" d="M304 96L336 96C374.7 96 407 123.5 414.4 160L402.8 160C384.1 160 366 153.4 351.6 141.5L330.2 123.7C324.3 118.8 315.6 118.8 309.7 123.7L288.5 141.5C274.1 153.4 256 160 237.2 160L225.6 160C233 123.5 265.3 96 304 96zM193.1 160L192 160C183.2 160 176 167.2 176 176C176 184.8 183.2 192 192 192L192 246.3C192 264.5 185.8 282.1 174.5 296.3L163.5 310C158 316.9 159.1 327 166 332.5C172.9 338 183 336.9 188.5 330L199.5 316.3C207.2 306.7 213.2 295.9 217.4 284.4C223.1 292.1 229.7 299.1 236.9 305.3L226.2 324.1C221.8 331.8 224.5 341.5 232.2 345.9C239.9 350.3 249.6 347.6 254 339.9L263.7 322.9C280.7 331.3 299.9 336 320.1 336C340.3 336 359.5 331.3 376.5 322.9L386.2 339.9C390.6 347.6 400.4 350.2 408 345.9C415.6 341.6 418.3 331.7 414 324.1L403.3 305.3C410.6 299.1 417.1 292.1 422.8 284.4C426.9 295.8 433 306.6 440.7 316.3L451.7 330C457.2 336.9 467.3 338 474.2 332.5C481.1 327 482.2 316.9 476.7 310L465.7 296.3C454.4 282.1 448.2 264.5 448.2 246.3L448.2 192C457 192 464.2 184.8 464.2 176C464.2 167.2 457 160 448.2 160L447.1 160C439.1 105.7 392.4 64 336 64L304 64C247.6 64 200.9 105.7 193.1 160zM416 208.2C415.9 261.1 373 304 320 304C267 304 224 261 224 208L224 192L237.2 192C263.4 192 288.8 182.8 308.9 166L320 156.8L331.1 166C351.2 182.8 376.6 192 402.8 192L416 192L416 208.2zM128 560C128 497.3 168.1 444 224 424.2L224 466.3C200.9 473.2 184 494.6 184 520C184 550.9 209.1 576 240 576C270.9 576 296 550.9 296 520C296 494.6 279.1 473.2 256 466.3L256 416.9C261.3 416.3 266.6 416 272 416L368 416C373.4 416 378.7 416.3 384 416.9L384 466C356.4 473.1 336 498.2 336 528L336 552C336 560.8 343.2 568 352 568C360.8 568 368 560.8 368 552L368 528C368 510.3 382.3 496 400 496C417.7 496 432 510.3 432 528L432 552C432 560.8 439.2 568 448 568C456.8 568 464 560.8 464 552L464 528C464 498.2 443.6 473.1 416 466L416 424.2C471.9 444 512 497.3 512 560C512 568.8 519.2 576 528 576C536.8 576 544 568.8 544 560C544 462.8 465.2 384 368 384L272 384C174.8 384 96 462.8 96 560C96 568.8 103.2 576 112 576C120.8 576 128 568.8 128 560zM264 520C264 533.3 253.3 544 240 544C226.7 544 216 533.3 216 520C216 506.7 226.7 496 240 496C253.3 496 264 506.7 264 520z"/></svg>