<svg xmlns="http://www.w3.org/2000/svg" viewBox="0 0 640 640"><!--! Font Awesome Pro 7.2.0 by @fontawesome - https://fontawesome.com License - https://fontawesome.com/license (Commercial License) Copyright 2026 Fonticons, Inc. --><path opacity=".4" fill="currentColor" d="M64 421.9C64 422.9 64.1 423.9 64.3 424.8C65.9 433.5 74.2 439.3 82.9 437.7C107.8 433.2 130.9 420.2 150.9 405.9C176.9 387.3 212 387.3 238 405.9C263.6 424.2 290.9 440 320 440C349.1 440 376.4 424.2 402 405.9C428 387.3 463.1 387.3 489.1 405.9C509.1 420.2 532.2 433.2 557.1 437.7C565.8 439.3 574.1 433.5 575.7 424.8C575.8 424 575.9 423.2 576 422.4L576 549.5C575.8 542.1 570.4 535.6 562.9 534.2C544.8 530.9 526.2 521 507.8 507.8C470.7 481.3 420.7 481.3 383.5 507.8C358.2 525.9 338.2 535.9 320 535.9C301.8 535.9 281.9 525.8 256.5 507.8C219.4 481.3 169.4 481.3 132.2 507.8C113.7 521 95.2 530.9 77.1 534.2C69.1 535.6 63.6 542.8 64 549.9C64 507.2 64 464.6 64 421.8zM132.3 379.9C169.4 353.4 219.4 353.4 256.6 379.9L257.6 380.6C219.5 353.4 169.5 353.4 132.4 379.9zM238 533.9C263.6 552.2 290.9 568 320 568C291.2 568 264.3 552.6 238.9 534.6C238.6 534.4 238.3 534.1 237.9 533.9zM383.5 379.9C420.6 353.4 470.6 353.4 507.8 379.9L508.6 380.5C470.7 353.4 420.6 353.4 383.5 379.9zM489.2 533.9C509.2 548.2 532.3 561.2 557.2 565.7C532.6 561.2 509.8 548.5 490 534.5C489.7 534.3 489.4 534.1 489.1 533.9z"/><path fill="currentColor" d="M336 288C336 296.8 328.8 304 320 304C311.2 304 304 296.8 304 288L304 118.6L251.3 171.3C245.1 177.5 234.9 177.5 228.7 171.3C222.5 165.1 222.5 154.9 228.7 148.7L308.7 68.7C314.9 62.5 325.1 62.5 331.3 68.7L411.3 148.7C417.5 154.9 417.5 165.1 411.3 171.3C405.1 177.5 394.9 177.5 388.7 171.3L336 118.6L336 288zM489.1 405.9C463.1 387.3 428 387.3 402 405.9C376.4 424.2 349.1 440 320 440C290.9 440 263.6 424.2 238 405.9C212 387.3 176.9 387.3 150.9 405.9C130.9 420.2 107.8 433.2 82.9 437.7C74.2 439.3 65.9 433.5 64.3 424.8C62.7 416.1 68.5 407.8 77.2 406.2C95.3 402.9 113.9 393 132.3 379.8C169.4 353.3 219.4 353.3 256.6 379.8C281.9 397.9 301.9 407.9 320.1 407.9C338.3 407.9 358.2 397.8 383.6 379.8C420.7 353.3 470.7 353.3 507.9 379.8C526.4 393 544.9 402.9 563 406.2C571.7 407.8 577.5 416.1 575.9 424.8C574.3 433.5 566 439.3 557.3 437.7C532.4 433.2 509.3 420.2 489.3 405.9zM489.1 533.9C463.1 515.3 428 515.3 402 533.9C376.4 552.2 349.1 568 320 568C290.9 568 263.6 552.2 238 533.9C212 515.3 176.9 515.3 150.9 533.9C130.9 548.2 107.8 561.2 82.9 565.7C74.2 567.3 65.9 561.5 64.3 552.8C62.7 544.1 68.5 535.8 77.2 534.2C95.3 530.9 113.9 521 132.3 507.8C169.4 481.3 219.4 481.3 256.6 507.8C281.9 525.9 301.9 535.9 320.1 535.9C338.3 535.9 358.2 525.8 383.6 507.8C420.7 481.3 470.7 481.3 507.9 507.8C526.4 521 544.9 530.9 563 534.2C571.7 535.8 577.5 544.1 575.9 552.8C574.3 561.5 566 567.3 557.3 565.7C532.4 561.2 509.3 548.2 489.3 533.9z"/></svg>