<svg xmlns="http://www.w3.org/2000/svg" viewBox="0 0 640 640"><!--! Font Awesome Pro 7.2.0 by @fontawesome - https://fontawesome.com License - https://fontawesome.com/license (Commercial License) Copyright 2026 Fonticons, Inc. --><path fill="currentColor" d="M448.4 370.2C453.4 367.3 459.6 367.3 464.7 370.2L600.7 450.2C608.3 454.7 610.8 464.5 606.4 472.1C601.9 479.7 592.1 482.2 584.5 477.8L456.6 402.5L328.7 477.8C323.7 480.7 317.5 480.7 312.4 477.8L184.5 402.5L56.6 477.8C49 482.3 39.2 479.7 34.7 472.1C30.2 464.5 32.8 454.7 40.4 450.2L176.4 370.2C181.4 367.3 187.6 367.3 192.6 370.2L320.5 445.4L448.4 370.2zM448.4 162.2C453.4 159.3 459.6 159.3 464.7 162.2L600.7 242.2C608.3 246.7 610.8 256.5 606.4 264.1C601.9 271.7 592.1 274.2 584.5 269.8L456.6 194.6L328.7 269.8C323.7 272.7 317.5 272.7 312.4 269.8L184.5 194.5L56.6 269.8C49 274.3 39.2 271.7 34.7 264.1C30.2 256.5 32.8 246.7 40.4 242.2L176.4 162.2C181.4 159.3 187.6 159.3 192.6 162.2L320.5 237.4L448.4 162.2z"/></svg>