<svg xmlns="http://www.w3.org/2000/svg" viewBox="0 0 640 640"><!--! Font Awesome Pro 7.2.0 by @fontawesome - https://fontawesome.com License - https://fontawesome.com/license (Commercial License) Copyright 2026 Fonticons, Inc. --><path fill="currentColor" d="M472 64C498.6 64 525.2 74.2 545.5 94.5C586.1 135.1 586.1 200.9 545.5 241.6L535.7 251.4C529.5 257.6 519.3 257.6 513.1 251.4C506.9 245.2 506.9 235 513.1 228.8L522.9 219C551 190.8 551 145.2 522.9 117.1C508.9 103 490.5 96 472 96L465.8 96.3C434.8 99.1 409.2 122.5 404 153.7L335.8 562.7C335.8 562.9 335.6 563.2 335.6 563.4C335.5 563.9 335.4 564.3 335.2 564.7C335 565.2 334.9 565.7 334.7 566.2C334.5 566.7 334.2 567.2 333.9 567.7C333.7 568.1 333.4 568.5 333.2 568.9C332.9 569.4 332.5 569.8 332.2 570.2C331.9 570.6 331.6 570.9 331.3 571.3C330.9 571.7 330.4 572.1 330 572.5C329.7 572.8 329.4 573 329 573.2C328.5 573.5 328 573.8 327.5 574.1C327.1 574.3 326.7 574.5 326.2 574.7C325.7 574.9 325.3 575 324.8 575.2C324.2 575.4 323.7 575.5 323.1 575.6C322.9 575.6 322.8 575.7 322.6 575.8C322.3 575.8 322 575.8 321.7 575.8C321.1 575.9 320.5 575.9 319.9 575.9C319.3 575.9 318.7 575.8 318.1 575.8C317.8 575.8 317.5 575.8 317.3 575.8C317.1 575.8 317 575.7 316.8 575.6C316.2 575.5 315.6 575.3 315.1 575.2C314.6 575 314.2 574.9 313.7 574.7C313.3 574.5 312.9 574.3 312.4 574.1C311.9 573.8 311.4 573.5 310.9 573.2C310.6 573 310.3 572.7 309.9 572.5C309.4 572.1 309 571.8 308.6 571.3C308.3 571 308 570.6 307.7 570.2C307.3 569.8 307 569.3 306.7 568.9C306.4 568.5 306.2 568.1 306 567.7C305.7 567.2 305.5 566.7 305.2 566.2C305 565.8 304.9 565.4 304.8 565C304.6 564.4 304.4 563.8 304.3 563.2C304.3 563 304.2 562.9 304.2 562.7L236 153.7C230.8 122.5 205.2 99.1 174.2 96.3L168 96C149.6 96 131.2 103 117.1 117.1C89 145.2 89 190.8 117.1 218.9L126.9 228.7C133.1 234.9 133.1 245.1 126.9 251.3C120.7 257.5 110.5 257.5 104.3 251.3L94.5 241.5C53.8 200.9 53.8 135.1 94.5 94.5C114.8 74.2 141.4 64 168 64L177.2 64.4C222.5 68.5 260.1 102.7 267.7 148.4L320 462.7L372.4 148.4C380 102.8 417.5 68.5 462.9 64.4L472 64z"/></svg>