<svg xmlns="http://www.w3.org/2000/svg" viewBox="0 0 640 640"><!--! Font Awesome Pro 7.2.0 by @fontawesome - https://fontawesome.com License - https://fontawesome.com/license (Commercial License) Copyright 2026 Fonticons, Inc. --><path fill="currentColor" d="M320 64C461.4 64 576 178.6 576 320C576 461.4 461.4 576 320 576C221.7 576 136.4 520.6 93.5 439.5C89.4 431.7 92.4 422 100.2 417.9C108 413.8 117.7 416.8 121.8 424.6C159.4 495.6 234.1 544 320 544C443.7 544 544 443.7 544 320C544 196.3 443.7 96 320 96C258 96 198.8 121.5 156.2 166.6L91.6 235C87.1 239.8 80.2 241.3 74.1 238.9C68 236.5 64 230.6 64 224L64 80C64 71.2 71.2 64 80 64C88.8 64 96 71.2 96 80L96 183.8L133 144.7C181.6 93.2 249.2 64 320 64zM248.8 225.7C253.8 223.2 259.6 223.5 264.4 226.4C269.2 229.3 272 234.5 272 240L272 400C272 408.8 264.8 416 256 416C247.2 416 240 408.8 240 400L240 265.9L215.2 278.3C207.3 282.3 197.7 279 193.7 271.1C189.7 263.2 193 253.6 200.9 249.6L248.9 225.6zM408 224C416.8 224 424 231.2 424 240C424 248.8 416.8 256 408 256L336 256L336 304L376 304C406.9 304 432 329.1 432 360C432 390.9 406.9 416 376 416L320 416C311.2 416 304 408.8 304 400C304 391.2 311.2 384 320 384L376 384C389.3 384 400 373.3 400 360C400 346.7 389.3 336 376 336L320 336C311.2 336 304 328.8 304 320L304 240C304 231.2 311.2 224 320 224L408 224z"/></svg>