<svg xmlns="http://www.w3.org/2000/svg" viewBox="0 0 640 640"><!--! Font Awesome Pro 7.2.0 by @fontawesome - https://fontawesome.com License - https://fontawesome.com/license (Commercial License) Copyright 2026 Fonticons, Inc. --><path fill="currentColor" d="M560 128C586.5 128 608 149.5 608 176L608 208C608 228.9 594.6 246.6 576 253.2L576 496C576 504.8 568.8 512 560 512C551.2 512 544 504.8 544 496L544 448L320 448L320 488C320 496.8 312.8 504 304 504C295.2 504 288 496.8 288 488L288 256L96 256L96 496C96 504.8 88.8 512 80 512C71.2 512 64 504.8 64 496L64 253.2C45.4 246.6 32 228.9 32 208L32 176C32 151.1 50.9 130.7 75.1 128.2L80 128L560 128zM320 256L320 416L544 416L544 256L320 256zM464 320C472.8 320 480 327.2 480 336C480 344.8 472.8 352 464 352L400 352C391.2 352 384 344.8 384 336C384 327.2 391.2 320 400 320L464 320zM80 160C71.2 160 64 167.2 64 176L64 208C64 216.8 71.2 224 80 224L560 224C568.8 224 576 216.8 576 208L576 176C576 167.2 568.8 160 560 160L80 160z"/></svg>