<svg xmlns="http://www.w3.org/2000/svg" viewBox="0 0 640 640"><!--! Font Awesome Pro 7.2.0 by @fontawesome - https://fontawesome.com License - https://fontawesome.com/license (Commercial License) Copyright 2026 Fonticons, Inc. --><path fill="currentColor" d="M240 448C248.8 448 256 455.2 256 464L256 592C256 600.8 248.8 608 240 608C231.2 608 224 600.8 224 592L224 544L192 544L192 592C192 600.8 184.8 608 176 608C167.2 608 160 600.8 160 592L160 464C160 455.2 167.2 448 176 448C184.8 448 192 455.2 192 464L192 512L224 512L224 464C224 455.2 231.2 448 240 448zM352 448C360.8 448 368 455.2 368 464C368 472.8 360.8 480 352 480L336 480L336 592C336 600.8 328.8 608 320 608C311.2 608 304 600.8 304 592L304 480L288 480C279.2 480 272 472.8 272 464C272 455.2 279.2 448 288 448L352 448zM482.3 455.8C486 449.6 493.4 446.7 500.3 448.6C507.2 450.5 512 456.8 512 464L512 592C512 600.8 504.8 608 496 608C487.2 608 480 600.8 480 592L480 521.8L461.7 552.3C458.8 557.1 453.6 560.1 448 560.1C442.4 560.1 437.2 557.1 434.3 552.3L416 521.8L416 592C416 600.8 408.8 608 400 608C391.2 608 384 600.8 384 592L384 464C384 456.8 388.8 450.5 395.7 448.6C402.6 446.7 410 449.6 413.7 455.8L448 512.9L482.3 455.8zM560 448C568.8 448 576 455.2 576 464L576 576L592 576C600.8 576 608 583.2 608 592C608 600.8 600.8 608 592 608L560 608C551.2 608 544 600.8 544 592L544 464C544 455.2 551.2 448 560 448zM267.8 64.3C282.5 65.8 296.2 72.2 306.7 82.7L429.3 205.2C441.3 217.2 448 233.5 448 250.4L448 399.9L416 399.9L416 255.9L320 255.9C284.7 255.9 256 227.2 256 191.9L256 95.9L128 95.9C110.3 96 96 110.3 96 128L96 512C96 523.8 102.5 534.1 112 539.7L112 573.9C84.4 566.8 64 541.8 64 512L64 128C64 92.7 92.7 64 128 64L261.5 64L267.8 64.3zM288 192C288 209.7 302.3 224 320 224L402.7 224L288 109.2L288 192z"/></svg>