<svg xmlns="http://www.w3.org/2000/svg" viewBox="0 0 640 640"><!--! Font Awesome Pro 7.2.0 by @fontawesome - https://fontawesome.com License - https://fontawesome.com/license (Commercial License) Copyright 2026 Fonticons, Inc. --><path fill="currentColor" d="M562.1 378.2C570.6 382.1 576 390.6 576 400C576 409.4 570.6 417.9 562.1 421.8L343.5 522.8L337.8 525C324.3 529.5 309.5 528.8 296.5 522.8L77.9 421.7C69.4 417.8 64 409.3 64 400C64 390.6 69.5 382.1 77.9 378.2L146.6 346.4L184.7 364L106.9 399.9L309.8 493.7C316.2 496.6 323.5 496.6 329.9 493.7L532.7 399.9L455 364L493.1 346.4L561.9 378.2zM296.5 117.1C311.4 110.2 328.6 110.2 343.5 117.1L562.1 218.1C570.6 222 576 230.5 576 239.9C576 249.3 570.6 257.8 562.1 261.7L343.5 362.7L337.8 364.9C324.3 369.4 309.5 368.7 296.5 362.7L77.9 261.7C69.4 257.8 64 249.3 64 240C64 230.6 69.5 222.1 77.9 218.2L296.5 117.2zM330.1 146.2C323.7 143.3 316.4 143.3 310 146.2L107.1 240L309.9 333.7C316.3 336.6 323.6 336.6 330 333.7L532.9 240L330.1 146.2z"/></svg>