<svg xmlns="http://www.w3.org/2000/svg" viewBox="0 0 640 640"><!--! Font Awesome Pro 7.2.0 by @fontawesome - https://fontawesome.com License - https://fontawesome.com/license (Commercial License) Copyright 2026 Fonticons, Inc. --><path fill="currentColor" d="M560 480C568.8 480 576 487.2 576 496C576 504.8 568.8 512 560 512L80 512C71.2 512 64 504.8 64 496C64 487.2 71.2 480 80 480L560 480zM320 96C417.2 96 496 174.8 496 272C496 288.6 493.6 304.7 489.3 320L560 320C568.8 320 576 327.2 576 336C576 344.8 568.8 352 560 352L466.7 352C461.3 352 456.3 349.3 453.3 344.7C450.3 340.1 449.9 334.5 452 329.5C459.7 311.9 464 292.4 464 271.9C464 192.4 399.5 127.9 320 127.9C240.5 127.9 176 192.5 176 272C176 292.5 180.3 312 188 329.6C190.2 334.5 189.7 340.2 186.7 344.8C183.7 349.4 178.7 352.1 173.3 352.1L80 352C71.2 352 64 344.8 64 336C64 327.2 71.2 320 80 320L150.7 320C146.4 304.7 144 288.6 144 272C144 174.8 222.8 96 320 96z"/></svg>