<svg xmlns="http://www.w3.org/2000/svg" viewBox="0 0 640 640"><!--! Font Awesome Pro 7.2.0 by @fontawesome - https://fontawesome.com License - https://fontawesome.com/license (Commercial License) Copyright 2026 Fonticons, Inc. --><path fill="currentColor" d="M512 128C547.3 128 576 156.7 576 192L576 448L575.7 454.5C572.4 486.8 545.1 512 512 512L128 512C94.9 512 67.6 486.8 64.3 454.5L64 448L64 192C64 156.7 92.7 128 128 128L512 128zM128 160C111.4 160 97.8 172.6 96.2 188.7L96 192L96 448C96 465.7 110.3 480 128 480L224 480L224 160L128 160zM256 480L384 480L384 160L256 160L256 480zM416 480L512 480C529.7 480 544 465.7 544 448L544 192C544 174.3 529.7 160 512 160L416 160L416 480zM176 400C184.8 400 192 407.2 192 416C192 424.8 184.8 432 176 432L144 432C135.2 432 128 424.8 128 416C128 407.2 135.2 400 144 400L176 400zM176 336C184.8 336 192 343.2 192 352C192 360.8 184.8 368 176 368L144 368C135.2 368 128 360.8 128 352C128 343.2 135.2 336 144 336L176 336zM320 272C306.7 272 296 261.3 296 248C296 234.7 306.7 224 320 224C333.3 224 344 234.7 344 248C344 261.3 333.3 272 320 272zM480 272C466.7 272 456 261.3 456 248C456 234.7 466.7 224 480 224C493.3 224 504 234.7 504 248C504 261.3 493.3 272 480 272z"/></svg>