<svg xmlns="http://www.w3.org/2000/svg" viewBox="0 0 640 640"><!--! Font Awesome Pro 7.2.0 by @fontawesome - https://fontawesome.com License - https://fontawesome.com/license (Commercial License) Copyright 2026 Fonticons, Inc. --><path fill="currentColor" d="M512 128C547.3 128 576 156.7 576 192L576 448L575.7 454.5C572.4 486.8 545.1 512 512 512L128 512C94.9 512 67.6 486.8 64.3 454.5L64 448L64 192C64 156.7 92.7 128 128 128L512 128zM128 160C111.4 160 97.8 172.6 96.2 188.7L96 192L96 448C96 465.7 110.3 480 128 480L512 480C529.7 480 544 465.7 544 448L544 192C544 174.3 529.7 160 512 160L128 160zM160 224C168.8 224 176 231.2 176 240L176 400C176 408.8 168.8 416 160 416C151.2 416 144 408.8 144 400L144 240C144 231.2 151.2 224 160 224zM288 224C323.3 224 352 252.7 352 288C352 308.3 342.5 326.4 327.7 338.1C342.6 351.3 352 370.5 352 392L352 400C352 408.8 344.8 416 336 416C327.2 416 320 408.8 320 400L320 392C320 369.9 302.1 352 280 352L256 352L256 400C256 408.8 248.8 416 240 416C231.2 416 224 408.8 224 400L224 240C224 231.2 231.2 224 240 224L288 224zM456 224C486.9 224 512 249.1 512 280C512 288.8 504.8 296 496 296C487.2 296 480 288.8 480 280C480 266.7 469.3 256 456 256L440 256C426.7 256 416 266.7 416 280L416 360C416 373.3 426.7 384 440 384L456 384C469.3 384 480 373.3 480 360C480 351.2 487.2 344 496 344C504.8 344 512 351.2 512 360C512 390.9 486.9 416 456 416L440 416C409.1 416 384 390.9 384 360L384 280C384 249.1 409.1 224 440 224L456 224zM256 320L288 320C305.7 320 320 305.7 320 288C320 270.3 305.7 256 288 256L256 256L256 320z"/></svg>