<svg xmlns="http://www.w3.org/2000/svg" viewBox="0 0 640 640"><!--! Font Awesome Pro 7.2.0 by @fontawesome - https://fontawesome.com License - https://fontawesome.com/license (Commercial License) Copyright 2026 Fonticons, Inc. --><path fill="currentColor" d="M464 48C472.8 48 480 55.2 480 64C480 126.1 444.6 179.8 392.9 206.4C462.8 235.1 512 303.8 512 384C512 490 426 576 320 576C214 576 128 490 128 384C128 303.8 177.2 235.1 247 206.4C195.4 179.8 160 126.1 160 64C160 55.2 167.2 48 176 48C184.8 48 192 55.2 192 64C192 134.7 249.3 192 320 192C390.7 192 448 134.7 448 64C448 55.2 455.2 48 464 48zM320 224C231.6 224 160 295.6 160 384C160 472.4 231.6 544 320 544C408.4 544 480 472.4 480 384C480 295.6 408.4 224 320 224z"/></svg>