<svg xmlns="http://www.w3.org/2000/svg" viewBox="0 0 640 640"><!--! Font Awesome Pro 7.2.0 by @fontawesome - https://fontawesome.com License - https://fontawesome.com/license (Commercial License) Copyright 2026 Fonticons, Inc. --><path opacity=".4" fill="currentColor" d="M240 256L240 464L400 464L400 256L240 256zM368 320C368 333.3 357.3 344 344 344C330.7 344 320 333.3 320 320C320 306.7 330.7 296 344 296C357.3 296 368 306.7 368 320zM368 400C368 413.3 357.3 424 344 424C330.7 424 320 413.3 320 400C320 386.7 330.7 376 344 376C357.3 376 368 386.7 368 400z"/><path fill="currentColor" d="M400 208C426.5 208 448 229.5 448 256L448 464L488 464C501.3 464 512 474.7 512 488C512 501.3 501.3 512 488 512L448 512L448 528C448 554.5 426.5 576 400 576L240 576C213.5 576 192 554.5 192 528L192 512L152 512C138.7 512 128 501.3 128 488C128 474.7 138.7 464 152 464L192 464L192 256C192 229.5 213.5 208 240 208L400 208zM240 464L400 464L400 256L240 256L240 464zM344 424C330.7 424 320 413.3 320 400C320 386.7 330.7 376 344 376C357.3 376 368 386.7 368 400C368 413.3 357.3 424 344 424zM344 344C330.7 344 320 333.3 320 320C320 306.7 330.7 296 344 296C357.3 296 368 306.7 368 320C368 333.3 357.3 344 344 344zM440 48C453.3 48 464 58.7 464 72C464 85.3 453.3 96 440 96L416 96L416 160L368 160L368 96L272 96L272 160L224 160L224 96L200 96C186.7 96 176 85.3 176 72C176 58.7 186.7 48 200 48L440 48z"/></svg>