<svg xmlns="http://www.w3.org/2000/svg" viewBox="0 0 640 640"><!--! Font Awesome Pro 7.2.0 by @fontawesome - https://fontawesome.com License - https://fontawesome.com/license (Commercial License) Copyright 2026 Fonticons, Inc. --><path opacity=".4" fill="currentColor" d="M128.5 304L512.5 304L480.5 528L160.5 528L128.5 304zM206.2 416C206.2 460.2 257.4 496 320.5 496C383.6 496 434.8 460.2 434.8 416C434.8 371.8 383.6 336 320.5 336C257.4 336 206.2 371.8 206.2 416z"/><path fill="currentColor" d="M216.5 64C203.2 64 192.5 74.7 192.5 88C192.5 101.3 203.2 112 216.5 112L424.5 112C437.8 112 448.5 101.3 448.5 88C448.5 74.7 437.8 64 424.5 64L216.5 64zM168.5 160C155.2 160 144.5 170.7 144.5 184C144.5 197.3 155.2 208 168.5 208L472.5 208C485.8 208 496.5 197.3 496.5 184C496.5 170.7 485.8 160 472.5 160L168.5 160zM548.8 272.6C539.6 262 526.4 256 512.5 256L128.5 256C114.6 256 101.4 262 92.2 272.6C83 283.2 79 297 81 310.8L113 534.8C116.4 558.4 136.6 576 160.5 576L480.5 576C504.4 576 524.6 558.4 528 534.8L560 310.8C562 297 557.9 283.1 548.7 272.6zM128.5 304L512.5 304L480.5 528L160.5 528L128.5 304zM434.8 416C434.8 371.8 383.6 336 320.5 336C257.4 336 206.2 371.8 206.2 416C206.2 460.2 257.4 496 320.5 496C383.6 496 434.8 460.2 434.8 416zM352.5 416C352.5 428.4 338.2 438.4 320.5 438.4C302.8 438.4 288.5 428.4 288.5 416C288.5 403.6 302.8 393.6 320.5 393.6C338.2 393.6 352.5 403.6 352.5 416z"/></svg>