<svg xmlns="http://www.w3.org/2000/svg" viewBox="0 0 640 640"><!--! Font Awesome Pro 7.2.0 by @fontawesome - https://fontawesome.com License - https://fontawesome.com/license (Commercial License) Copyright 2026 Fonticons, Inc. --><path opacity=".4" fill="currentColor" d="M144 352L144 400L496 400L496 352L488 352C474.7 352 464 341.3 464 328L464 272L440 272C426.7 272 416 261.3 416 248L416 240L224 240L224 248C224 261.3 213.3 272 200 272L176 272L176 328C176 341.3 165.3 352 152 352L144 352zM224 304C224 295.2 231.2 288 240 288L272 288C280.8 288 288 295.2 288 304L288 352C288 360.8 280.8 368 272 368L240 368C231.2 368 224 360.8 224 352L224 304zM352 304C352 295.2 359.2 288 368 288L400 288C408.8 288 416 295.2 416 304L416 352C416 360.8 408.8 368 400 368L368 368C359.2 368 352 360.8 352 352L352 304z"/><path fill="currentColor" d="M488 96C501.3 96 512 106.7 512 120L512 144L511.9 146.5C510.6 158.6 500.4 168 488 168L464 168L464 224L488 224C501.3 224 512 234.7 512 248L512 304L560 304L560 216C560 202.7 570.7 192 584 192C597.3 192 608 202.7 608 216L608 328C608 341.3 597.3 352 584 352L544 352L544 424C544 437.3 533.3 448 520 448L480 448L480 520C480 533.3 469.3 544 456 544L376 544C362.7 544 352 533.3 352 520C352 506.7 362.7 496 376 496L432 496L432 448L208 448L208 496L264 496C277.3 496 288 506.7 288 520C288 533.3 277.3 544 264 544L184 544C170.7 544 160 533.3 160 520L160 448L120 448C106.7 448 96 437.3 96 424L96 352L56 352C42.7 352 32 341.3 32 328L32 216C32 202.7 42.7 192 56 192C69.3 192 80 202.7 80 216L80 304L128 304L128 248C128 234.7 138.7 224 152 224L176 224L176 168L152 168C138.7 168 128 157.3 128 144L128 120C128 106.7 138.7 96 152 96C165.3 96 176 106.7 176 120L200 120L202.5 120.1C214.6 121.4 224 131.6 224 144L224 192L416 192L416 144L416.1 141.5C417.4 129.4 427.6 120 440 120L464 120C464 106.7 474.7 96 488 96zM224 248C224 261.3 213.3 272 200 272L176 272L176 328C176 341.3 165.3 352 152 352L144 352L144 400L496 400L496 352L488 352C474.7 352 464 341.3 464 328L464 272L440 272C426.7 272 416 261.3 416 248L416 240L224 240L224 248zM272 288C280.8 288 288 295.2 288 304L288 352C288 360.8 280.8 368 272 368L240 368C231.2 368 224 360.8 224 352L224 304C224 295.2 231.2 288 240 288L272 288zM400 288C408.8 288 416 295.2 416 304L416 352C416 360.8 408.8 368 400 368L368 368C359.2 368 352 360.8 352 352L352 304C352 295.2 359.2 288 368 288L400 288z"/></svg>