<svg xmlns="http://www.w3.org/2000/svg" viewBox="0 0 640 640"><!--! Font Awesome Pro 7.2.0 by @fontawesome - https://fontawesome.com License - https://fontawesome.com/license (Commercial License) Copyright 2026 Fonticons, Inc. --><path opacity=".4" fill="currentColor" d=""/><path fill="currentColor" d="M216 104C202.7 104 192 114.7 192 128C192 141.3 202.7 152 216 152L424 152C437.3 152 448 141.3 448 128C448 114.7 437.3 104 424 104L216 104zM120 232C106.7 232 96 242.7 96 256C96 269.3 106.7 280 120 280L520 280C533.3 280 544 269.3 544 256C544 242.7 533.3 232 520 232L120 232zM192 384C192 397.3 202.7 408 216 408L424 408C437.3 408 448 397.3 448 384C448 370.7 437.3 360 424 360L216 360C202.7 360 192 370.7 192 384zM120 488C106.7 488 96 498.7 96 512C96 525.3 106.7 536 120 536L520 536C533.3 536 544 525.3 544 512C544 498.7 533.3 488 520 488L120 488z"/></svg>