<svg xmlns="http://www.w3.org/2000/svg" viewBox="0 0 640 640"><!--! Font Awesome Pro 7.2.0 by @fontawesome - https://fontawesome.com License - https://fontawesome.com/license (Commercial License) Copyright 2026 Fonticons, Inc. --><path opacity=".4" fill="currentColor" d="M248 152C248 174.1 265.9 192 288 192C310.1 192 328 174.1 328 152C328 129.9 310.1 112 288 112C265.9 112 248 129.9 248 152z"/><path fill="currentColor" d="M288 112C265.9 112 248 129.9 248 152C248 174.1 265.9 192 288 192C310.1 192 328 174.1 328 152C328 129.9 310.1 112 288 112zM200 152C200 103.4 239.4 64 288 64C336.6 64 376 103.4 376 152C376 192.3 348.9 226.2 312 236.7L312 409C306.8 426.4 304 444.9 304 464C304 497.4 312.5 528.8 327.5 556.1C314.7 558.7 301.5 560 288 560C177.5 560 88 470.5 88 360L88 348.9L63.8 370.1C53.8 378.8 38.7 377.8 29.9 367.8C21.1 357.8 22.2 342.7 32.2 333.9L96.2 277.9C105.2 270 118.8 270 127.8 277.9L191.8 333.9C201.8 342.6 202.8 357.8 194.1 367.8C185.4 377.8 170.2 378.8 160.2 370.1L136 348.9L136 360C136 435.8 191.5 498.6 264 510.1L264 236.7C227.1 226.3 200 192.3 200 152zM496 320C575.5 320 640 384.5 640 464C640 543.5 575.5 608 496 608C416.5 608 352 543.5 352 464C352 384.5 416.5 320 496 320zM555.3 427.3C561.5 421.1 561.5 410.9 555.3 404.7C549.1 398.5 538.9 398.5 532.7 404.7L496 441.4L459.3 404.7C453.1 398.5 442.9 398.5 436.7 404.7C430.5 410.9 430.5 421.1 436.7 427.3L473.4 464L436.7 500.7C430.5 506.9 430.5 517.1 436.7 523.3C442.9 529.5 453.1 529.5 459.3 523.3L496 486.6L532.7 523.3C538.9 529.5 549.1 529.5 555.3 523.3C561.5 517.1 561.5 506.9 555.3 500.7L518.6 464L555.3 427.3z"/></svg>