<svg xmlns="http://www.w3.org/2000/svg" viewBox="0 0 640 640"><!--! Font Awesome Pro 7.2.0 by @fontawesome - https://fontawesome.com License - https://fontawesome.com/license (Commercial License) Copyright 2026 Fonticons, Inc. --><path opacity=".4" fill="currentColor" d="M144 352C144 320.3 151.6 289.5 164.4 268.3C176.5 248.4 190.6 240 208 240C225.8 240 251.2 247.4 273.3 256C303.3 267.7 336.8 267.7 366.8 256C388.9 247.4 414.3 240 432.1 240C449.4 240 463.6 248.3 475.7 268.3C488.6 289.5 496.1 320.4 496.1 352C496.1 406.2 479.1 452 455.7 483.2C431.7 515.2 404.5 528 384.1 528C379.5 528 370.5 526.3 359.2 522.9C333.8 515.3 306.5 515.3 281.1 522.9C269.8 526.3 260.8 528 256.2 528C235.8 528 208.6 515.2 184.6 483.2C161.2 452 144.2 406.2 144.2 352z"/><path fill="currentColor" d="M320 176L336 176C380.2 176 416 140.2 416 96L416 80C416 71.2 408.8 64 400 64L384 64C339.8 64 304 99.8 304 144L304 160C304 168.8 311.2 176 320 176zM144 352C144 320.3 151.6 289.5 164.4 268.3C176.5 248.4 190.6 240 208 240C225.8 240 251.2 247.4 273.3 256C303.3 267.7 336.8 267.7 366.8 256C388.9 247.4 414.3 240 432.1 240C449.4 240 463.6 248.3 475.7 268.3C488.6 289.5 496.1 320.4 496.1 352C496.1 406.2 479.1 452 455.7 483.2C431.7 515.2 404.5 528 384.1 528C379.5 528 370.5 526.3 359.2 522.9C333.8 515.3 306.5 515.3 281.1 522.9C269.8 526.3 260.8 528 256.2 528C235.8 528 208.6 515.2 184.6 483.2C161.2 452 144.2 406.2 144.2 352zM208 192C131.7 192 96 275.7 96 352C96 480 176 576 256 576C267.9 576 282.5 572.6 294.8 568.9C311.2 564 328.9 564 345.3 568.9C357.5 572.6 372.1 576 384.1 576C464.1 576 544.1 480 544.1 352C544.1 275.7 508.4 192 432.1 192C404.8 192 372.4 202.3 349.4 211.3C330.6 218.6 309.5 218.6 290.7 211.3C267.8 202.4 235.3 192 208 192z"/></svg>