<svg xmlns="http://www.w3.org/2000/svg" viewBox="0 0 640 640"><!--! Font Awesome Pro 7.2.0 by @fontawesome - https://fontawesome.com License - https://fontawesome.com/license (Commercial License) Copyright 2026 Fonticons, Inc. --><path opacity=".4" fill="currentColor" d="M128 351.5C128.1 298.5 146.6 249.8 177.5 211.5L359 393C368.4 402.4 383.6 402.4 392.9 393C402.2 383.6 402.3 368.4 392.9 359.1L211.5 177.5C249.8 146.6 298.5 128.1 351.5 128C338.5 128.3 328 138.9 328 152C328 165.3 338.7 176 352 176C449.2 176 528 254.8 528 352C528 449.2 449.2 528 352 528C254.8 528 176 449.2 176 352C176 338.7 165.3 328 152 328C138.9 328 128.3 338.5 128 351.5z"/><path fill="currentColor" d="M248 64L88 64C74.7 64 64 74.7 64 88L64 248C64 261.3 74.7 272 88 272C101.3 272 112 261.3 112 248L112 145.9L359 393C368.4 402.4 383.6 402.4 392.9 393C402.2 383.6 402.3 368.4 392.9 359.1L145.9 112L248 112C261.3 112 272 101.3 272 88C272 74.7 261.3 64 248 64zM352 128C338.7 128 328 138.7 328 152C328 165.3 338.7 176 352 176C449.2 176 528 254.8 528 352C528 449.2 449.2 528 352 528C254.8 528 176 449.2 176 352C176 338.7 165.3 328 152 328C138.7 328 128 338.7 128 352C128 475.7 228.3 576 352 576C475.7 576 576 475.7 576 352C576 228.3 475.7 128 352 128z"/></svg>