<svg xmlns="http://www.w3.org/2000/svg" viewBox="0 0 640 640"><!--! Font Awesome Pro 7.2.0 by @fontawesome - https://fontawesome.com License - https://fontawesome.com/license (Commercial License) Copyright 2026 Fonticons, Inc. --><path opacity=".4" fill="currentColor" d=""/><path fill="currentColor" d="M432.5 176C432.5 158.3 446.8 144 464.5 144C482.2 144 496.5 158.3 496.5 176C496.5 193.7 482.2 208 464.5 208C446.8 208 432.5 193.7 432.5 176zM437.1 281.9C429.3 292.6 431.7 307.6 442.4 315.4C453.1 323.2 468.1 320.8 475.9 310.1L521.1 248C536.3 227.1 544.5 201.9 544.5 176C544.5 131.8 508.7 96 464.5 96C420.3 96 384.5 131.8 384.5 176C384.5 217.4 415.9 251.4 456.2 255.6L437.1 281.9zM488.5 376C488.5 368.5 485 361.4 479 356.8C473 352.2 465.2 350.8 458 352.9L402 368.9C389.3 372.5 381.9 385.8 385.5 398.6C389.1 411.4 402.4 418.7 415.2 415.1L440.6 407.8L440.6 496L408.6 496C395.3 496 384.6 506.7 384.6 520C384.6 533.3 395.3 544 408.6 544L520.6 544C533.9 544 544.6 533.3 544.6 520C544.6 506.7 533.9 496 520.6 496L488.6 496L488.6 376zM209.5 103C200.1 93.6 184.9 93.6 175.6 103L71.5 207C62.1 216.4 62.1 231.6 71.5 240.9C80.9 250.2 96.1 250.3 105.4 240.9L168.4 177.9L168.4 520C168.4 533.3 179.1 544 192.4 544C205.7 544 216.4 533.3 216.4 520L216.4 177.9L279.4 240.9C288.8 250.3 304 250.3 313.3 240.9C322.6 231.5 322.7 216.3 313.3 207L209.5 103z"/></svg>