<svg xmlns="http://www.w3.org/2000/svg" viewBox="0 0 640 640"><!--! Font Awesome Pro 7.2.0 by @fontawesome - https://fontawesome.com License - https://fontawesome.com/license (Commercial License) Copyright 2026 Fonticons, Inc. --><path opacity=".4" fill="currentColor" d="M233.9 336L264 336C277.3 336 288 346.7 288 360C288 420 288 476 288 528L352 528L352 360C352 346.7 362.7 336 376 336L406.1 336L320 249.9L233.9 336z"/><path fill="currentColor" d="M128 88C128 101.3 138.7 112 152 112L488 112C501.3 112 512 101.3 512 88C512 74.7 501.3 64 488 64L152 64C138.7 64 128 74.7 128 88zM337 199C327.6 189.6 312.4 189.6 303.1 199L159 343C152.1 349.9 150.1 360.2 153.8 369.2C157.5 378.2 166.3 384 176 384L240 384L240 448L240 448L240 528C240 554.5 261.5 576 288 576L352 576C378.5 576 400 554.5 400 528L400 384L464 384C473.7 384 482.5 378.2 486.2 369.2C489.9 360.2 487.9 349.9 481 343L337 199zM352 448L352 528L288 528L288 448L288 448L288 360C288 346.7 277.3 336 264 336L233.9 336L320 249.9L406.1 336L376 336C362.7 336 352 346.7 352 360L352 448z"/></svg>