<svg xmlns="http://www.w3.org/2000/svg" viewBox="0 0 640 640"><!--! Font Awesome Pro 7.2.0 by @fontawesome - https://fontawesome.com License - https://fontawesome.com/license (Commercial License) Copyright 2026 Fonticons, Inc. --><path opacity=".4" fill="currentColor" d="M119.8 320L160 353.5L160 286.5L119.8 320zM286.5 160L353.5 160L320 119.8L286.5 160zM286.5 480L320 520.2L353.5 480L286.5 480zM480 286.5L480 353.5L520.2 320L480 286.5z"/><path fill="currentColor" d="M320 119.8L353.5 160L286.5 160L320 119.8zM293.8 76.3L232.2 150.2C226.9 156.5 224 164.5 224 172.8C224 192.3 239.8 208 259.2 208L296 208L296 296L208 296L208 259.2C208 239.7 192.2 224 172.8 224C164.6 224 156.6 226.9 150.2 232.2L76.3 293.8C68.5 300.2 64 309.9 64 320C64 330.1 68.5 339.8 76.3 346.2L150.2 407.8C156.5 413.1 164.5 416 172.8 416C192.3 416 208 400.2 208 380.8L208 344L296 344L296 432L259.2 432C239.7 432 224 447.8 224 467.2C224 475.4 226.9 483.4 232.2 489.8L293.8 563.7C300.3 571.5 309.9 576 320 576C330.1 576 339.8 571.5 346.2 563.7L407.8 489.8C413.1 483.5 416 475.5 416 467.2C416 447.7 400.2 432 380.8 432L344 432L344 344L432 344L432 380.8C432 400.3 447.8 416 467.2 416C475.4 416 483.4 413.1 489.8 407.8L563.7 346.2C571.5 339.7 576 330.1 576 320C576 309.9 571.5 300.2 563.7 293.8L489.8 232.2C483.5 226.9 475.5 224 467.2 224C447.7 224 432 239.8 432 259.2L432 296L344 296L344 208L380.8 208C400.3 208 416 192.2 416 172.8C416 164.6 413.1 156.6 407.8 150.2L346.2 76.3C339.8 68.5 330.1 64 320 64C309.9 64 300.2 68.5 293.8 76.3zM320 520.2L286.5 480L353.5 480L320 520.2zM520.2 320L480 353.5L480 286.5L520.2 320zM160 353.5L119.8 320L160 286.5L160 353.5z"/></svg>