<svg xmlns="http://www.w3.org/2000/svg" viewBox="0 0 640 640"><!--! Font Awesome Pro 7.2.0 by @fontawesome - https://fontawesome.com License - https://fontawesome.com/license (Commercial License) Copyright 2026 Fonticons, Inc. --><path opacity=".4" fill="currentColor" d=""/><path fill="currentColor" d="M209.5 71C200.1 61.6 184.9 61.6 175.6 71L55.5 191C46.1 200.4 46.1 215.6 55.5 224.9C64.9 234.2 80.1 234.3 89.4 224.9L168.4 145.9L168.4 388C168.4 491.8 252.6 576 356.4 576C460.2 576 544.4 491.8 544.4 388L544.4 152L544.3 149.5C543.1 137.4 532.9 128 520.5 128C508.1 128 497.9 137.4 496.6 149.5L496.5 152L496.5 388C496.5 465.3 433.8 528 356.5 528C279.2 528 216.5 465.3 216.5 388L216.5 145.9L295.5 224.9L297.3 226.6C306.7 234.3 320.6 233.7 329.4 224.9C338.2 216.1 338.7 202.2 331.1 192.8L329.4 191L209.4 71z"/></svg>