<svg xmlns="http://www.w3.org/2000/svg" viewBox="0 0 640 640"><!--! Font Awesome Pro 7.2.0 by @fontawesome - https://fontawesome.com License - https://fontawesome.com/license (Commercial License) Copyright 2026 Fonticons, Inc. --><path opacity=".4" fill="currentColor" d=""/><path fill="currentColor" d="M96 128C78.3 128 64 142.3 64 160C64 177.7 78.3 192 96 192C113.7 192 128 177.7 128 160C128 142.3 113.7 128 96 128zM199 303C189.6 312.4 189.6 327.6 199 336.9L335 473C344.4 482.4 359.6 482.4 368.9 473C378.2 463.6 378.3 448.4 368.9 439.1L273.9 344.1L552 344.1C565.3 344.1 576 333.4 576 320.1C576 306.8 565.3 296.1 552 296.1L273.9 296.1L368.9 201.1C378.3 191.7 378.3 176.5 368.9 167.2C359.5 157.9 344.3 157.8 335 167.2L199 303zM64 266.7C64 284.4 78.3 298.7 96 298.7C113.7 298.7 128 284.4 128 266.7C128 249 113.7 234.7 96 234.7C78.3 234.7 64 249 64 266.7zM96 341.4C78.3 341.4 64 355.7 64 373.4C64 391.1 78.3 405.4 96 405.4C113.7 405.4 128 391.1 128 373.4C128 355.7 113.7 341.4 96 341.4zM64 480C64 497.7 78.3 512 96 512C113.7 512 128 497.7 128 480C128 462.3 113.7 448 96 448C78.3 448 64 462.3 64 480z"/></svg>