<svg xmlns="http://www.w3.org/2000/svg" viewBox="0 0 640 640"><!--! Font Awesome Pro 7.2.0 by @fontawesome - https://fontawesome.com License - https://fontawesome.com/license (Commercial License) Copyright 2026 Fonticons, Inc. --><path opacity=".4" fill="currentColor" d=""/><path fill="currentColor" d="M431.5 569C440.9 578.4 456.1 578.4 465.4 569L585.4 449C594.8 439.6 594.8 424.4 585.4 415.1C576 405.7 560.8 405.7 551.5 415.1L472.5 494.1L472.5 252C472.5 148.2 388.3 64 284.5 64C180.7 64 96.5 148.2 96.5 252L96.5 488L96.6 490.5C97.9 502.6 108.1 512 120.5 512C132.9 512 143.1 502.6 144.4 490.5L144.5 488L144.5 252C144.5 174.7 207.2 112 284.5 112C361.8 112 424.5 174.7 424.5 252L424.5 494.1L345.5 415.1L343.7 413.4C334.3 405.7 320.4 406.3 311.6 415.1C302.8 423.9 302.3 437.8 309.9 447.2L311.6 449L431.6 569z"/></svg>