<svg xmlns="http://www.w3.org/2000/svg" viewBox="0 0 640 640"><!--! Font Awesome Pro 7.2.0 by @fontawesome - https://fontawesome.com License - https://fontawesome.com/license (Commercial License) Copyright 2026 Fonticons, Inc. --><path opacity=".4" fill="currentColor" d=""/><path fill="currentColor" d="M569 209C578.4 199.6 578.4 184.4 569 175.1L449 55C439.6 45.6 424.4 45.6 415.1 55C405.8 64.4 405.7 79.6 415.1 88.9L494.1 167.9L252 167.9C148.2 168 64 252.2 64 356C64 459.8 148.2 544 252 544L488 544L490.5 543.9C502.6 542.7 512 532.4 512 520C512 507.6 502.6 497.4 490.5 496.1L488 496L252 496C174.7 496 112 433.3 112 356C112 278.7 174.7 216 252 216L494.1 216L415.1 295L413.4 296.8C405.7 306.2 406.3 320.1 415.1 328.9C423.9 337.7 437.8 338.2 447.2 330.6L449 329L569 209z"/></svg>