<svg xmlns="http://www.w3.org/2000/svg" viewBox="0 0 640 640"><!--! Font Awesome Pro 7.2.0 by @fontawesome - https://fontawesome.com License - https://fontawesome.com/license (Commercial License) Copyright 2026 Fonticons, Inc. --><path opacity=".4" fill="currentColor" d="M209.8 176L512 176C520.8 176 528 183.2 528 192L528 448C528 456.8 520.8 464 512 464L497.8 464L441.5 407.7C464.4 395.6 480 371.6 480 344L480 296C480 256.2 447.8 224 408 224L360 224C346.7 224 336 234.7 336 248L336 302.2L209.8 176zM384 272L408 272C421.3 272 432 282.7 432 296L432 344C432 357.3 421.3 368 408 368L401.8 368L384 350.2L384 272z"/><path fill="currentColor" d="M73 39.1C63.6 29.7 48.4 29.7 39.1 39.1C29.8 48.5 29.7 63.7 39 73.1L567 601.1C576.4 610.5 591.6 610.5 600.9 601.1C610.2 591.7 610.3 576.5 600.9 567.2L539.5 505.8C561.1 495.4 576 473.5 576 448L576 192C576 156.7 547.3 128 512 128L161.8 128L73 39.1zM209.8 176L512 176C520.8 176 528 183.2 528 192L528 448C528 456.8 520.8 464 512 464L497.8 464L441.5 407.7C464.4 395.6 480 371.6 480 344L480 296C480 256.2 447.8 224 408 224L360 224C346.7 224 336 234.7 336 248L336 302.2L209.8 176zM401.8 368L384 350.2L384 272L408 272C421.3 272 432 282.7 432 296L432 344C432 357.3 421.3 368 408 368L401.8 368zM164 265.8C161.4 272.7 160 280.2 160 288L160 392C160 405.3 170.7 416 184 416C197.3 416 208 405.3 208 392L208 368L256 368L256 392C256 405.3 266.7 416 280 416C289.2 416 297.3 410.8 301.3 403.1L164 265.8zM112 213.8L68 169.8C65.4 176.7 64 184.2 64 192L64 448C64 483.3 92.7 512 128 512L410.2 512L362.2 464L128 464C119.2 464 112 456.8 112 448L112 213.8z"/></svg>