<svg xmlns="http://www.w3.org/2000/svg" viewBox="0 0 640 640"><!--! Font Awesome Pro 7.2.0 by @fontawesome - https://fontawesome.com License - https://fontawesome.com/license (Commercial License) Copyright 2026 Fonticons, Inc. --><path opacity=".4" fill="currentColor" d="M112 224C112 215.2 119.2 208 128 208L176 208L176 254L112 318L112 224zM112 385.9L176 321.9L176 432L128 432C119.2 432 112 424.8 112 416L112 385.9z"/><path fill="currentColor" d="M512 208C520.8 208 528 215.2 528 224L528 416C528 424.8 520.8 432 512 432L224 432L224 208L512 208zM128 208L176 208L176 254L112 318L112 224C112 215.2 119.2 208 128 208zM112 385.9L176 321.9L176 432L128 432C119.2 432 112 424.8 112 416L112 385.9zM128 160C92.7 160 64 188.7 64 224L64 416C64 451.3 92.7 480 128 480L512 480C547.3 480 576 451.3 576 416L576 224C576 188.7 547.3 160 512 160L128 160z"/></svg>