<svg xmlns="http://www.w3.org/2000/svg" viewBox="0 0 640 640"><!--! Font Awesome Pro 7.2.0 by @fontawesome - https://fontawesome.com License - https://fontawesome.com/license (Commercial License) Copyright 2026 Fonticons, Inc. --><path opacity=".4" fill="currentColor" d="M112 319.8C112 368.7 128.8 413.6 156.9 449.1L286.1 320L243.4 277.4C209.4 304.1 166.5 320 120 320C117.3 320 114.7 319.9 112 319.8zM117.6 272C118.4 272 119.2 272 120 272C153.3 272 184.1 261.3 209.2 243.1L156.9 190.9C138.3 214.4 124.7 241.9 117.5 272zM190.9 156.9L243.1 209.1C261.3 184.1 272 153.2 272 119.9C272 119.1 272 118.3 272 117.5C241.9 124.6 214.3 138.3 190.9 156.9zM190.9 483C226.4 511.1 271.2 527.9 320.2 527.9C320.1 525.2 320 522.6 320 519.9C320 473.3 335.9 430.5 362.6 396.5L320 353.9L190.9 483.1zM277.4 243.4L320 286.1L449.1 156.9C413.6 128.8 368.8 112 320 112C319.9 114.7 320 117.3 320 120C320 166.6 304.1 209.4 277.4 243.4zM353.9 320L396.5 362.6C430.5 335.9 473.4 320 519.9 320C522.6 320 525.2 320.1 527.9 320.2C527.9 271.3 511.1 226.4 483 190.9L353.9 320zM368 520C368 520.8 368 521.6 368 522.4C398.1 515.3 425.7 501.6 449.1 483L396.9 430.8C378.7 455.8 368 486.7 368 520zM430.8 396.9L483 449.1C501.6 425.6 515.2 398.1 522.4 368C521.6 368 520.8 368 520 368C486.7 368 455.9 378.7 430.8 396.9z"/><path fill="currentColor" d="M368 522.4C368 521.6 368 520.8 368 520C368 486.7 378.7 455.9 396.9 430.8L449.1 483C425.6 501.6 398.1 515.2 368 522.4zM320.2 528L320 528C271.2 528 226.3 511.2 190.9 483.1L320 353.9L362.6 396.6C335.9 430.6 320 473.5 320 520C320 522.7 320.1 525.3 320.2 528zM396.6 362.6L353.9 320L483.1 190.9C511.2 226.3 528 271.2 528 320L528 320.2C525.3 320.1 522.7 320 520 320C473.4 320 430.6 335.9 396.6 362.6zM522.4 368C515.3 398.1 501.6 425.7 483 449.1L430.8 396.9C455.8 378.7 486.7 368 520 368C520.8 368 521.6 368 522.4 368zM320 286.1L277.4 243.5C304.1 209.5 320 166.6 320 120.1C320 117.4 319.9 114.8 319.8 112.1L320 112.1C368.8 112.1 413.7 128.9 449.1 157L320 286.1zM243.1 209.2L190.9 156.9C214.4 138.3 241.9 124.7 272 117.5C272 118.3 272 119.1 272 119.9C272 153.2 261.3 184 243.1 209.1zM209.2 243.1C184.2 261.3 153.3 272 120 272C119.2 272 118.4 272 117.6 272C124.7 241.9 138.4 214.3 157 190.9L209.2 243.1zM112 319.8C114.7 319.9 117.3 320 120 320C166.6 320 209.4 304.1 243.4 277.4L286.1 320L156.9 449.1C128.8 413.7 112 368.8 112 320L112 319.8zM320 576C461.4 576 576 461.4 576 320C576 178.6 461.4 64 320 64C178.6 64 64 178.6 64 320C64 461.4 178.6 576 320 576z"/></svg>