<svg xmlns="http://www.w3.org/2000/svg" viewBox="0 0 640 640"><!--! Font Awesome Pro 7.2.0 by @fontawesome - https://fontawesome.com License - https://fontawesome.com/license (Commercial License) Copyright 2026 Fonticons, Inc. --><path opacity=".4" fill="currentColor" d="M151.6 432L488.5 432L475.6 409.9C452.3 370 440 324.6 440 278.5L440 264C440 197.7 386.3 144 320 144C253.7 144 200 197.7 200 264L200 278.5C200 324.7 187.7 370 164.5 409.9L151.6 432z"/><path fill="currentColor" d="M176.6 105.4C136.8 143.3 112 196.7 112 256C112 269.3 101.3 280 88 280C74.7 280 64 269.3 64 256C64 183.1 94.5 117.2 143.4 70.6C153 61.5 168.2 61.8 177.4 71.4C186.6 81 186.2 96.2 176.6 105.3zM496.6 70.6C545.5 117.2 576 183 576 256C576 269.3 565.3 280 552 280C538.7 280 528 269.3 528 256C528 196.7 503.2 143.3 463.4 105.4C453.8 96.3 453.4 81.1 462.6 71.5C471.8 61.9 486.9 61.5 496.5 70.7zM296 88C296 74.7 306.7 64 320 64C333.3 64 344 74.7 344 88L344 97.7C425.4 109.3 488 179.4 488 264L488 278.5C488 316.2 498 353.2 517 385.8L538.9 423.3C542.3 429.1 544 435.6 544 442.3C544 463.2 527.1 480.1 506.2 480.1L133.8 480C112.9 480 96 463.1 96 442.2C96 435.5 97.8 428.9 101.1 423.2L123 385.7C142 353.1 152 316.1 152 278.4L152 264C152 179.4 214.6 109.3 296 97.7L296 88zM475.5 409.9C452.3 370 440 324.6 440 278.5L440 264C440 197.7 386.3 144 320 144C253.7 144 200 197.7 200 264L200 278.5C200 324.7 187.7 370 164.5 409.9L151.6 432L488.5 432L475.6 409.9zM320 576C288.7 576 262 556 252.1 528L387.9 528C378 556 351.3 576 320 576z"/></svg>