<svg xmlns="http://www.w3.org/2000/svg" viewBox="0 0 640 640"><!--! Font Awesome Pro 7.2.0 by @fontawesome - https://fontawesome.com License - https://fontawesome.com/license (Commercial License) Copyright 2026 Fonticons, Inc. --><path opacity=".4" fill="currentColor" d="M314.4 326.9L320.1 348.8C332.2 394.7 330.3 443.2 315 487.9L573.5 417.2C537.8 386 512.2 344.7 500.1 298.5L494.3 276.6C481.3 226.9 430.7 197.7 381.1 211.2C331.2 224.9 301.2 276.7 314.4 326.8z"/><path fill="currentColor" d="M23.9 327.3C6.8 322.6-3.4 304.9 1.1 287.8C2.9 280.8 7 274.7 12.7 270.4L24 262C58.1 236.4 82.6 199.9 93.5 158.4L99.3 136.5C119.1 61 196.3 16.4 271.6 37C314.4 48.7 347.3 78.9 364.2 116.6C361.5 117.2 358.9 117.9 356.2 118.6C343.1 122.2 330.6 127.1 318.9 133.1C307.3 109.5 286 90.7 258.9 83.3C209.3 69.7 158.7 98.9 145.7 148.7L140 170.6C127.9 216.8 102.3 258.1 66.6 289.3L217.4 330.5C218.4 337.6 219.9 344.7 221.7 351.8L227.5 373.7C228.4 377 229.1 380.3 229.7 383.7C86.6 344.6 51.3 334.9 23.9 327.4zM230.2 433.5C229 440.7 227.3 447.8 225.1 454.8C215.4 460.6 204.1 464 192 464C158.6 464 131.1 438.4 128.2 405.7L128.2 405.7C175 418.5 209 427.8 230.2 433.6zM616.1 455.3C371.8 522.1 308.5 539.4 296.1 542.8L295.6 542.9C278.7 547.3 261.5 537.2 257 520.2C255.2 513.2 255.7 505.9 258.6 499.2L264.2 486.1C281.2 446.5 284.5 402.4 273.6 360.9L267.8 339C248.1 263.6 293.1 185.6 368.4 165C443.7 144.4 520.9 189 540.7 264.5L546.5 286.4C557.4 327.9 581.9 364.4 616 390L627.3 398.5C633 402.8 637.1 408.9 638.9 415.9C643.4 433 633.2 450.7 616.1 455.4zM473.9 544L480 542.3L480 542.3C480 542.9 480 543.4 480 544C480 570.1 464.4 592.5 442.1 602.5C436.3 605.1 430 606.9 423.4 607.6C421 607.9 418.5 608 416 608C392 608 371 594.7 360.1 575.1L360.1 575.1L415.5 560L424.7 557.5L474 544zM573.4 417.3C537.7 386.1 512.1 344.8 500 298.6L494.2 276.7C481.2 227 430.6 197.8 381 211.3C331.1 225 301.1 276.8 314.3 326.9L320 348.8C332.1 394.7 330.2 443.2 314.9 487.9L573.4 417.2z"/></svg>