<svg xmlns="http://www.w3.org/2000/svg" viewBox="0 0 640 640"><!--! Font Awesome Pro 7.2.0 by @fontawesome - https://fontawesome.com License - https://fontawesome.com/license (Commercial License) Copyright 2026 Fonticons, Inc. --><path opacity=".4" fill="currentColor" d="M191.8 157.9C220.7 129.5 260.3 112 304 112C392.4 112 464 183.6 464 272C464 315.7 446.5 355.3 418.1 384.2L361.5 327.6C375.4 313.2 384 293.6 384 272C384 227.8 348.2 192 304 192C282.4 192 262.8 200.6 248.4 214.5L191.8 157.9z"/><path fill="currentColor" d="M73 39.1C63.6 29.7 48.4 29.7 39.1 39.1C29.8 48.5 29.7 63.7 39 73.1L567 601.1C576.4 610.5 591.6 610.5 600.9 601.1C610.2 591.7 610.3 576.5 600.9 567.2L551.1 517.4C561.9 499.4 568 478.4 568 456L568 448C577.7 440.7 584 429.1 584 416C584 393.9 566.1 376 544 376C521.9 376 504 393.9 504 416C504 429.1 510.3 440.7 520 448L520 456C520 465 518.4 473.6 515.4 481.5L452 418.2C489.1 380.6 512 329 512 272C512 157.1 418.9 64 304 64C247 64 195.4 86.9 157.8 124L73 39.1zM191.8 157.9C220.7 129.5 260.3 112 304 112C392.4 112 464 183.6 464 272C464 315.7 446.5 355.3 418.1 384.2L361.5 327.6C375.4 313.2 384 293.6 384 272C384 227.8 348.2 192 304 192C282.4 192 262.8 200.6 248.4 214.5L191.8 157.9zM327.5 293.7L282.3 248.5C288 243.2 295.6 240 304 240C321.7 240 336 254.3 336 272C336 280.4 332.8 288 327.5 293.7zM471.8 573.7L426.2 528L224 528C215.2 528 208 520.8 208 512L208 504.6C191 497.7 174.9 489.1 160 478.9L160 512C160 547.3 188.7 576 224 576L448 576C456.2 576 464.1 575.2 471.8 573.6zM328.3 430.2C320.4 431.4 312.2 432 304 432C215.6 432 144 360.4 144 272C144 263.7 144.6 255.6 145.8 247.7L106.1 207.9C99.6 228.1 96 249.6 96 272C96 386.9 189.1 480 304 480C326.4 480 347.9 476.5 368.1 469.9L328.3 430.1z"/></svg>