<svg xmlns="http://www.w3.org/2000/svg" viewBox="0 0 640 640"><!--! Font Awesome Pro 7.2.0 by @fontawesome - https://fontawesome.com License - https://fontawesome.com/license (Commercial License) Copyright 2026 Fonticons, Inc. --><path opacity=".4" fill="currentColor" d="M144 272C144 360.4 215.6 432 304 432C392.4 432 464 360.4 464 272C464 183.6 392.4 112 304 112C215.6 112 144 183.6 144 272zM384 272C384 316.2 348.2 352 304 352C259.8 352 224 316.2 224 272C224 227.8 259.8 192 304 192C348.2 192 384 227.8 384 272z"/><path fill="currentColor" d="M304 112C392.4 112 464 183.6 464 272C464 360.4 392.4 432 304 432C215.6 432 144 360.4 144 272C144 183.6 215.6 112 304 112zM304 480C418.9 480 512 386.9 512 272C512 157.1 418.9 64 304 64C189.1 64 96 157.1 96 272C96 386.9 189.1 480 304 480zM304 240C321.7 240 336 254.3 336 272C336 289.7 321.7 304 304 304C286.3 304 272 289.7 272 272C272 254.3 286.3 240 304 240zM304 352C348.2 352 384 316.2 384 272C384 227.8 348.2 192 304 192C259.8 192 224 227.8 224 272C224 316.2 259.8 352 304 352zM584 416C584 393.9 566.1 376 544 376C521.9 376 504 393.9 504 416C504 429.1 510.3 440.7 520 448L520 456C520 495.8 487.8 528 448 528L446 528C447.3 522.9 448 517.5 448 512L448 478.9C433.1 489.1 417 497.7 400 504.6L400 512C400 520.8 392.8 528 384 528L224 528C215.2 528 208 520.8 208 512L208 504.6C191 497.7 174.9 489.1 160 478.9L160 512C160 547.3 188.7 576 224 576L448 576C514.3 576 568 522.3 568 456L568 448C577.7 440.7 584 429.1 584 416z"/></svg>