<svg xmlns="http://www.w3.org/2000/svg" viewBox="0 0 640 640"><!--! Font Awesome Pro 7.2.0 by @fontawesome - https://fontawesome.com License - https://fontawesome.com/license (Commercial License) Copyright 2026 Fonticons, Inc. --><path opacity=".4" fill="currentColor" d="M112 224L528 224L528 448C528 456.8 520.8 464 512 464L128 464C119.2 464 112 456.8 112 448L112 224zM152 344C152 383.8 184.2 416 224 416C263.8 416 296 383.8 296 344C296 304.2 263.8 272 224 272C184.2 272 152 304.2 152 344zM336 304L336 384C336 401.7 350.3 416 368 416L448 416C465.7 416 480 401.7 480 384L480 304C480 286.3 465.7 272 448 272L368 272C350.3 272 336 286.3 336 304z"/><path fill="currentColor" d="M112 224L112 448C112 456.8 119.2 464 128 464L512 464C520.8 464 528 456.8 528 448L528 224L112 224zM64 192C64 156.7 92.7 128 128 128L512 128C547.3 128 576 156.7 576 192L576 448C576 483.3 547.3 512 512 512L128 512C92.7 512 64 483.3 64 448L64 192zM384 320L384 368L432 368L432 320L384 320zM336 304C336 286.3 350.3 272 368 272L448 272C465.7 272 480 286.3 480 304L480 384C480 401.7 465.7 416 448 416L368 416C350.3 416 336 401.7 336 384L336 304zM224 368C237.3 368 248 357.3 248 344C248 330.7 237.3 320 224 320C210.7 320 200 330.7 200 344C200 357.3 210.7 368 224 368zM224 272C263.8 272 296 304.2 296 344C296 383.8 263.8 416 224 416C184.2 416 152 383.8 152 344C152 304.2 184.2 272 224 272z"/></svg>