<svg xmlns="http://www.w3.org/2000/svg" viewBox="0 0 640 640"><!--! Font Awesome Pro 7.2.0 by @fontawesome - https://fontawesome.com License - https://fontawesome.com/license (Commercial License) Copyright 2026 Fonticons, Inc. --><path opacity=".4" fill="currentColor" d="M48 176C48 184.8 55.2 192 64 192C72.8 192 80 184.8 80 176C80 167.2 72.8 160 64 160C55.2 160 48 167.2 48 176zM80 432L80 496L144 496L144 432L80 432zM288 144L288 208L352 208L352 144L288 144zM496 432L496 496L560 496L560 432L496 432zM560 176C560 184.8 567.2 192 576 192C584.8 192 592 184.8 592 176C592 167.2 584.8 160 576 160C567.2 160 560 167.2 560 176z"/><path fill="currentColor" d="M352 144L352 208L288 208L288 144L352 144zM288 96C261.5 96 240 117.5 240 144L240 152L123.3 152C113.9 128.5 90.9 112 64 112C28.7 112 0 140.7 0 176C0 211.3 28.7 240 64 240C90.9 240 113.9 223.5 123.3 200L202.3 200C138.2 237.8 93.9 305.5 88.5 384L80 384C53.5 384 32 405.5 32 432L32 496C32 522.5 53.5 544 80 544L144 544C170.5 544 192 522.5 192 496L192 432C192 405.5 170.5 384 144 384L136.7 384C142.6 315.6 185.9 257.9 246.1 231.4C254.3 246.1 270 256 288 256L352 256C370 256 385.7 246.1 393.9 231.4C454.1 257.8 497.4 315.5 503.3 384L496 384C469.5 384 448 405.5 448 432L448 496C448 522.5 469.5 544 496 544L560 544C586.5 544 608 522.5 608 496L608 432C608 405.5 586.5 384 560 384L551.5 384C546.2 305.5 501.8 237.8 437.7 200L516.7 200C526.2 223.5 549.2 240 576 240C611.3 240 640 211.3 640 176C640 140.7 611.3 112 576 112C549.1 112 526.1 128.5 516.7 152L400 152L400 144C400 117.5 378.5 96 352 96L288 96zM48 176C48 167.2 55.2 160 64 160C72.8 160 80 167.2 80 176C80 184.8 72.8 192 64 192C55.2 192 48 184.8 48 176zM560 176C560 167.2 567.2 160 576 160C584.8 160 592 167.2 592 176C592 184.8 584.8 192 576 192C567.2 192 560 184.8 560 176zM144 432L144 496L80 496L80 432L144 432zM496 432L560 432L560 496L496 496L496 432z"/></svg>