<svg xmlns="http://www.w3.org/2000/svg" viewBox="0 0 640 640"><!--! Font Awesome Pro 7.2.0 by @fontawesome - https://fontawesome.com License - https://fontawesome.com/license (Commercial License) Copyright 2026 Fonticons, Inc. --><path opacity=".4" fill="currentColor" d="M113.7 176L526.4 176L501.5 449.4C500.8 457.6 493.8 464 485.6 464L154.5 464C146.2 464 139.3 457.7 138.6 449.4L113.7 176zM192 361.9C192 391.8 216.2 416 246.1 416L276 416C289.3 416 300 405.3 300 392C300 378.7 289.3 368 276 368L246.1 368C242.7 368 240 365.3 240 361.9C240 360.6 240.4 359.3 241.2 358.3L246 351.8C254.3 340.5 251.2 324.7 239.4 317.3C228.7 310.6 214.8 313.3 207.3 323.5L202.5 330C195.7 339.3 192 350.5 192 362zM259.4 252.2C251.1 263.5 254.2 279.3 266 286.7C276.7 293.4 290.6 290.7 298.1 280.5L313.8 259C315.2 257.1 317.5 255.9 319.9 255.9C322.3 255.9 324.6 257 326 259L341.7 280.5C349.1 290.6 363.1 293.3 373.8 286.7C385.6 279.3 388.7 263.4 380.4 252.2L364.7 230.7C354.3 216.4 337.7 208 320 208C302.3 208 285.7 216.4 275.2 230.7L259.5 252.2zM340 392C340 405.3 350.7 416 364 416L393.9 416C423.8 416 448 391.8 448 361.9C448 350.4 444.3 339.2 437.5 329.9L432.7 323.4C425.3 313.3 411.3 310.6 400.6 317.2C388.8 324.6 385.7 340.5 394 351.7L398.8 358.2C399.6 359.3 400 360.5 400 361.8C400 365.2 397.3 367.9 393.9 367.9L364 368C350.7 368 340 378.7 340 392z"/><path fill="currentColor" d="M32 152C32 138.7 42.7 128 56 128L584 128C597.3 128 608 138.7 608 152C608 165.3 597.3 176 584 176L574.5 176L549.2 453.8C546.2 486.8 518.6 512 485.5 512L154.4 512C121.3 512 93.7 486.8 90.7 453.8L65.5 176L56 176C42.7 176 32 165.3 32 152zM113.7 176L138.6 449.4C139.3 457.6 146.3 464 154.5 464L485.6 464C493.9 464 500.8 457.7 501.5 449.4L526.3 176L113.7 176zM320 256C317.6 256 315.3 257.1 313.9 259.1L298.2 280.6C290.8 290.7 276.8 293.4 266.1 286.8C254.3 279.4 251.2 263.5 259.5 252.3L275.2 230.8C285.7 216.4 302.3 208 320 208C337.7 208 354.3 216.4 364.8 230.7L380.5 252.2C388.8 263.5 385.7 279.3 373.9 286.7C363.2 293.4 349.3 290.7 341.8 280.5L326.1 259C324.7 257.1 322.4 255.9 320 255.9zM239.3 317.2C251.1 324.6 254.2 340.5 245.9 351.7L241.1 358.2C240.3 359.3 239.9 360.5 239.9 361.8C239.9 365.2 242.6 367.9 246 367.9L275.9 367.9C289.2 367.9 299.9 378.6 299.9 391.9C299.9 405.2 289.2 415.9 275.9 415.9L246 415.9C216.1 415.9 191.9 391.7 191.9 361.8C191.9 350.3 195.6 339.1 202.4 329.8L207.2 323.3C214.6 313.2 228.6 310.5 239.3 317.1zM340 392C340 378.7 350.7 368 364 368L393.9 368C397.3 368 400 365.3 400 361.9C400 360.6 399.6 359.3 398.8 358.3L394 351.8C385.7 340.5 388.8 324.7 400.6 317.3C411.3 310.6 425.2 313.3 432.7 323.5L437.5 330C444.3 339.3 448 350.5 448 362C448 391.9 423.8 416.1 393.9 416.1L364 416C350.7 416 340 405.3 340 392z"/></svg>