<svg xmlns="http://www.w3.org/2000/svg" viewBox="0 0 640 640"><!--! Font Awesome Pro 7.2.0 by @fontawesome - https://fontawesome.com License - https://fontawesome.com/license (Commercial License) Copyright 2026 Fonticons, Inc. --><path opacity=".4" fill="currentColor" d=""/><path fill="currentColor" d="M39 39.1C48.4 29.7 63.6 29.7 72.9 39.1L134.2 100.4C144.6 78.9 166.5 64 192 64L256 64C291.3 64 320 92.7 320 128L320 224C320 241.2 313.2 256.8 302.2 268.3L385.9 352L448.1 352C483.4 352 512.1 380.7 512.1 416L512.1 478.2L601.1 567.2C610.5 576.6 610.5 591.8 601.1 601.1C591.7 610.4 576.5 610.5 567.2 601.1L39 73.1C29.7 63.7 29.7 48.5 39 39.1zM268.2 234.4C270.6 231.6 272 228 272 224L272 128C272 119.2 264.8 112 256 112L192 112C183.2 112 176 119.2 176 128L176 142.2L268.2 234.4zM426.2 528L470.2 572C463.3 574.6 455.8 576 448 576L384 576C348.7 576 320 547.3 320 512L320 421.8L368 469.8L368 512C368 520.8 375.2 528 384 528L426.2 528zM456 88L456 240L488 240C501.3 240 512 250.7 512 264C512 277.3 501.3 288 488 288L376 288C362.7 288 352 277.3 352 264C352 250.7 362.7 240 376 240L408 240L408 121.3L391.6 126.8C379 131 365.4 124.2 361.2 111.6C357 99 363.8 85.4 376.4 81.2L424.4 65.2C431.7 62.8 439.8 64 446 68.5C452.2 73 456 80.3 456 88zM232 376L232 528L264 528C277.3 528 288 538.7 288 552C288 565.3 277.3 576 264 576L152 576C138.7 576 128 565.3 128 552C128 538.7 138.7 528 152 528L184 528L184 409.3L167.6 414.8C155 419 141.4 412.2 137.2 399.6C133 387 139.8 373.4 152.4 369.2L200.4 353.2C207.7 350.8 215.8 352 222 356.5C228.2 361 232 368.3 232 376z"/></svg>