<svg xmlns="http://www.w3.org/2000/svg" viewBox="0 0 640 640"><!--! Font Awesome Pro 7.2.0 by @fontawesome - https://fontawesome.com License - https://fontawesome.com/license (Commercial License) Copyright 2026 Fonticons, Inc. --><path opacity=".4" fill="currentColor" d=""/><path fill="currentColor" d="M120 128C106.7 128 96 138.7 96 152C96 165.3 106.7 176 120 176L520 176C533.3 176 544 165.3 544 152C544 138.7 533.3 128 520 128L120 128zM248 296C234.7 296 224 306.7 224 320C224 333.3 234.7 344 248 344L520 344C533.3 344 544 333.3 544 320C544 306.7 533.3 296 520 296L248 296zM224 488C224 501.3 234.7 512 248 512L520 512C533.3 512 544 501.3 544 488C544 474.7 533.3 464 520 464L248 464C234.7 464 224 474.7 224 488zM96 488C96 501.3 106.7 512 120 512C133.3 512 144 501.3 144 488L144 312C144 298.7 133.3 288 120 288C106.7 288 96 298.7 96 312L96 488z"/></svg>