<svg xmlns="http://www.w3.org/2000/svg" viewBox="0 0 640 640"><!--! Font Awesome Pro 7.2.0 by @fontawesome - https://fontawesome.com License - https://fontawesome.com/license (Commercial License) Copyright 2026 Fonticons, Inc. --><path opacity=".4" fill="currentColor" d=""/><path fill="currentColor" d="M288 88C288 74.7 298.7 64 312 64C457.8 64 576 182.2 576 328C576 341.3 565.3 352 552 352C538.7 352 528 341.3 528 328C528 208.7 431.3 112 312 112C298.7 112 288 101.3 288 88zM120 160C133.3 160 144 170.7 144 184L144 432C144 485 187 528 240 528C293 528 336 485 336 432C336 379 293 336 240 336L216 336C202.7 336 192 325.3 192 312C192 298.7 202.7 288 216 288L240 288C319.5 288 384 352.5 384 432C384 511.5 319.5 576 240 576C160.5 576 96 511.5 96 432L96 184C96 170.7 106.7 160 120 160zM312 160C404.8 160 480 235.2 480 328C480 341.3 469.3 352 456 352C442.7 352 432 341.3 432 328C432 261.7 378.3 208 312 208C298.7 208 288 197.3 288 184C288 170.7 298.7 160 312 160z"/></svg>