<svg xmlns="http://www.w3.org/2000/svg" viewBox="0 0 640 640"><!--! Font Awesome Pro 7.2.0 by @fontawesome - https://fontawesome.com License - https://fontawesome.com/license (Commercial License) Copyright 2026 Fonticons, Inc. --><path opacity=".4" fill="currentColor" d="M273.1 239.1L372.7 150L331.9 272.3C329.5 279.6 330.7 287.7 335.2 293.9C339.7 300.1 347 303.9 354.7 303.9L475.1 303.9L402.7 368.7L273.1 239.1z"/><path fill="currentColor" d="M73 39C63.6 29.7 48.4 29.7 39 39C29.6 48.3 29.7 63.6 39 73L567 601C576.4 610.4 591.6 610.4 600.9 601C610.2 591.6 610.3 576.4 600.9 567.1L436.6 402.8L532.3 317.2C539.7 310.5 544 301 544 291.1C544 271.7 528.3 256 508.9 256L387.9 256L446.7 79.6C450.1 69.3 446.2 57.9 437.1 52C428 46.1 416.1 46.8 408 54L239.1 205.1L73 39zM273.1 239.1L372.7 150L331.9 272.3C329.5 279.6 330.7 287.7 335.2 293.9C339.7 300.1 347 303.9 354.7 303.9L475.1 303.9L402.7 368.7L273.1 239.1zM267.4 489.7L297.6 399.2L234.3 335.9L165.1 335.9L201.6 303.2L167.6 269.2L107.8 322.7C100.4 329.4 96.1 338.9 96.1 348.8C96.1 368.2 111.8 383.9 131.2 383.9L252.2 383.9L193.4 560.3C190 570.6 193.9 582 203 587.9C212.1 593.8 224.1 593 232.2 585.7L365.2 466.7L331.2 432.7L267.5 489.7z"/></svg>