<svg xmlns="http://www.w3.org/2000/svg" viewBox="0 0 640 640"><!--! Font Awesome Pro 7.2.0 by @fontawesome - https://fontawesome.com License - https://fontawesome.com/license (Commercial License) Copyright 2026 Fonticons, Inc. --><path opacity=".4" fill="currentColor" d="M112 128C112 119.2 119.2 112 128 112L176 112C184.8 112 192 119.2 192 128L192 160L112 160L112 128zM112 208L192 208L192 432L112 432L112 208zM112 480L192 480L192 512C192 520.8 184.8 528 176 528L128 528C119.2 528 112 520.8 112 512L112 480zM240 192C240 183.2 247.2 176 256 176L304 176C312.8 176 320 183.2 320 192L320 387.1C309.7 410.6 304 436.6 304 464C304 485.2 307.4 505.6 313.8 524.7C311.1 526.8 307.7 528 304 528L256 528C247.2 528 240 520.8 240 512L240 192zM363.5 145.4C361.2 136.9 366.3 128.1 374.8 125.8L421.2 113.4C429.7 111.1 438.5 116.2 440.8 124.7L449.1 155.6L371.8 176.3L363.5 145.4zM384.2 222.7L461.5 202L480.4 272.6C452.8 274.8 426.8 282.9 403.7 295.5L384.2 222.6z"/><path fill="currentColor" d="M128 112L176 112C184.8 112 192 119.2 192 128L192 160L112 160L112 128C112 119.2 119.2 112 128 112zM112 208L192 208L192 432L112 432L112 208zM240 130L240 128C240 92.7 211.3 64 176 64L128 64C92.7 64 64 92.7 64 128L64 512C64 547.3 92.7 576 128 576L176 576C191.1 576 205 570.7 216 562C227 570.8 240.9 576 256 576L304 576C315.1 576 325.6 573.2 334.7 568.2C326 554.8 318.9 540.2 313.8 524.7C311.1 526.8 307.7 528 304 528L256 528C247.2 528 240 520.8 240 512L240 192C240 183.2 247.2 176 256 176L304 176C312.8 176 320 183.2 320 192L320 387.1C337 348.1 366.7 315.9 403.8 295.5L384.3 222.6L461.6 201.9L480.5 272.5C485.6 272.1 490.8 271.9 496.1 271.9C508 271.9 519.6 273 530.9 275L487.2 112.3C478 78.2 442.9 57.9 408.8 67.1L362.4 79.5C338 86 320.6 105.9 316.1 129.2C312.2 128.4 308.1 128.1 304 128.1L256 128.1C250.5 128.1 245.1 128.8 240 130.1zM192 512C192 520.8 184.8 528 176 528L128 528C119.2 528 112 520.8 112 512L112 480L192 480L192 512zM421.2 113.4C429.7 111.1 438.5 116.2 440.8 124.7L449.1 155.6L371.8 176.3L363.5 145.4C361.2 136.9 366.3 128.1 374.8 125.8L421.2 113.4zM496 608C575.5 608 640 543.5 640 464C640 384.5 575.5 320 496 320C416.5 320 352 384.5 352 464C352 543.5 416.5 608 496 608zM485.3 384L506.6 384C515.4 384 522.6 391.2 522.6 400L522.6 437.3L559.9 437.3C568.7 437.3 575.9 444.5 575.9 453.3L575.9 474.6C575.9 483.4 568.7 490.6 559.9 490.6L522.6 490.6L522.6 527.9C522.6 536.7 515.4 543.9 506.6 543.9L485.3 543.9C476.5 543.9 469.3 536.7 469.3 527.9L469.3 490.6L432 490.6C423.2 490.6 416 483.4 416 474.6L416 453.3C416 444.5 423.2 437.3 432 437.3L469.3 437.3L469.3 400C469.3 391.2 476.5 384 485.3 384z"/></svg>