<svg xmlns="http://www.w3.org/2000/svg" viewBox="0 0 640 640"><!--! Font Awesome Pro 7.2.0 by @fontawesome - https://fontawesome.com License - https://fontawesome.com/license (Commercial License) Copyright 2026 Fonticons, Inc. --><path opacity=".4" fill="currentColor" d="M256 112L256 448C256 461.3 266.7 472 280 472C293.3 472 304 461.3 304 448L304 112L256 112zM352 112L352 448C352 461.3 362.7 472 376 472C389.3 472 400 461.3 400 448L400 112L352 112zM448 112L448 448C448 461.3 458.7 472 472 472C485.3 472 496 461.3 496 448L496 128C496 119.2 488.8 112 480 112L448 112zM480 64C497.6 64 513.5 71.1 525 82.5C519.9 71.6 508.9 64 496 64L480 64z"/><path fill="currentColor" d="M144 128C144 119.2 151.2 112 160 112L208 112L208 448C208 487.8 240.2 520 280 520C298.4 520 315.3 513.1 328 501.7C340.7 513.1 357.6 520 376 520C394.4 520 411.3 513.1 424 501.7C436.7 513.1 453.6 520 472 520C480.4 520 488.5 518.6 496 515.9L496 552C496 565.3 506.7 576 520 576C533.3 576 544 565.3 544 552L544 128C544 92.7 515.3 64 480 64L160 64C124.7 64 96 92.7 96 128L96 552C96 565.3 106.7 576 120 576C133.3 576 144 565.3 144 552L144 128zM496 448C496 461.3 485.3 472 472 472C458.7 472 448 461.3 448 448L448 112L480 112C488.8 112 496 119.2 496 128L496 448zM400 128L400 448C400 461.3 389.3 472 376 472C362.7 472 352 461.3 352 448L352 112L400 112L400 128zM256 448L256 112L304 112L304 448C304 461.3 293.3 472 280 472C266.7 472 256 461.3 256 448z"/></svg>