<svg xmlns="http://www.w3.org/2000/svg" viewBox="0 0 640 640"><!--! Font Awesome Pro 7.2.0 by @fontawesome - https://fontawesome.com License - https://fontawesome.com/license (Commercial License) Copyright 2026 Fonticons, Inc. --><path opacity=".4" fill="currentColor" d="M128 152L128 200C141.3 200 152 210.7 152 224C152 237.3 141.3 248 128 248L128 296L296 296L296 128L248 128C248 141.3 237.3 152 224 152C210.7 152 200 141.3 200 128L152 128C152 141.3 141.3 152 128 152zM128 344L128 392C141.3 392 152 402.7 152 416C152 429.3 141.3 440 128 440L128 488C141.3 488 152 498.7 152 512L200 512C200 498.7 210.7 488 224 488C237.3 488 248 498.7 248 512L296 512L296 344L128 344zM344 128L344 296L512 296L512 248C498.7 248 488 237.3 488 224C488 210.7 498.7 200 512 200L512 152C498.7 152 488 141.3 488 128L440 128C440 141.3 429.3 152 416 152C402.7 152 392 141.3 392 128L344 128zM344 344L344 512L392 512C392 498.7 402.7 488 416 488C429.3 488 440 498.7 440 512L488 512C488 498.7 498.7 488 512 488L512 440C498.7 440 488 429.3 488 416C488 402.7 498.7 392 512 392L512 344L344 344z"/><path fill="currentColor" d="M512 344C525.3 344 536 333.3 536 320C536 306.7 525.3 296 512 296L344 296L344 128C344 114.7 333.3 104 320 104C306.7 104 296 114.7 296 128L296 296L128 296C114.7 296 104 306.7 104 320C104 333.3 114.7 344 128 344L296 344L296 512C296 525.3 306.7 536 320 536C333.3 536 344 525.3 344 512L344 344L512 344zM152 512C152 498.7 141.3 488 128 488C114.7 488 104 498.7 104 512C104 525.3 114.7 536 128 536C141.3 536 152 525.3 152 512zM128 152C141.3 152 152 141.3 152 128C152 114.7 141.3 104 128 104C114.7 104 104 114.7 104 128C104 141.3 114.7 152 128 152zM152 224C152 210.7 141.3 200 128 200C114.7 200 104 210.7 104 224C104 237.3 114.7 248 128 248C141.3 248 152 237.3 152 224zM512 248C525.3 248 536 237.3 536 224C536 210.7 525.3 200 512 200C498.7 200 488 210.7 488 224C488 237.3 498.7 248 512 248zM152 416C152 402.7 141.3 392 128 392C114.7 392 104 402.7 104 416C104 429.3 114.7 440 128 440C141.3 440 152 429.3 152 416zM512 440C525.3 440 536 429.3 536 416C536 402.7 525.3 392 512 392C498.7 392 488 402.7 488 416C488 429.3 498.7 440 512 440zM248 512C248 498.7 237.3 488 224 488C210.7 488 200 498.7 200 512C200 525.3 210.7 536 224 536C237.3 536 248 525.3 248 512zM224 152C237.3 152 248 141.3 248 128C248 114.7 237.3 104 224 104C210.7 104 200 114.7 200 128C200 141.3 210.7 152 224 152zM440 512C440 498.7 429.3 488 416 488C402.7 488 392 498.7 392 512C392 525.3 402.7 536 416 536C429.3 536 440 525.3 440 512zM416 152C429.3 152 440 141.3 440 128C440 114.7 429.3 104 416 104C402.7 104 392 114.7 392 128C392 141.3 402.7 152 416 152zM536 512C536 498.7 525.3 488 512 488C498.7 488 488 498.7 488 512C488 525.3 498.7 536 512 536C525.3 536 536 525.3 536 512zM512 152C525.3 152 536 141.3 536 128C536 114.7 525.3 104 512 104C498.7 104 488 114.7 488 128C488 141.3 498.7 152 512 152z"/></svg>