<svg xmlns="http://www.w3.org/2000/svg" viewBox="0 0 640 640"><!--! Font Awesome Pro 7.2.0 by @fontawesome - https://fontawesome.com License - https://fontawesome.com/license (Commercial License) Copyright 2026 Fonticons, Inc. --><path opacity=".4" fill="currentColor" d="M128 160C145.7 160 160 145.7 160 128L224 128C224 145.7 238.3 160 256 160C273.7 160 288 145.7 288 128L352 128C352 145.7 366.3 160 384 160C401.7 160 416 145.7 416 128L480 128C480 145.7 494.3 160 512 160L512 224C494.3 224 480 238.3 480 256C480 273.7 494.3 288 512 288L512 352C494.3 352 480 366.3 480 384C480 401.7 494.3 416 512 416L512 488C512 490.8 511.6 493.4 511 496L129 496C128.3 493.4 128 490.8 128 488L128 416C145.7 416 160 401.7 160 384C160 366.3 145.7 352 128 352L128 288C145.7 288 160 273.7 160 256C160 238.3 145.7 224 128 224L128 160z"/><path fill="currentColor" d="M544 520C544 533.3 533.3 544 520 544L120 544C106.7 544 96 533.3 96 520C96 506.7 106.7 496 120 496L520 496C533.3 496 544 506.7 544 520zM480 384C480 366.3 494.3 352 512 352C529.7 352 544 366.3 544 384C544 401.7 529.7 416 512 416C494.3 416 480 401.7 480 384zM160 384C160 401.7 145.7 416 128 416C110.3 416 96 401.7 96 384C96 366.3 110.3 352 128 352C145.7 352 160 366.3 160 384zM480 256C480 238.3 494.3 224 512 224C529.7 224 544 238.3 544 256C544 273.7 529.7 288 512 288C494.3 288 480 273.7 480 256zM160 256C160 273.7 145.7 288 128 288C110.3 288 96 273.7 96 256C96 238.3 110.3 224 128 224C145.7 224 160 238.3 160 256zM480 128C480 110.3 494.3 96 512 96C529.7 96 544 110.3 544 128C544 145.7 529.7 160 512 160C494.3 160 480 145.7 480 128zM160 128C160 145.7 145.7 160 128 160C110.3 160 96 145.7 96 128C96 110.3 110.3 96 128 96C145.7 96 160 110.3 160 128zM352 128C352 110.3 366.3 96 384 96C401.7 96 416 110.3 416 128C416 145.7 401.7 160 384 160C366.3 160 352 145.7 352 128zM288 128C288 145.7 273.7 160 256 160C238.3 160 224 145.7 224 128C224 110.3 238.3 96 256 96C273.7 96 288 110.3 288 128z"/></svg>