<svg xmlns="http://www.w3.org/2000/svg" viewBox="0 0 640 640"><!--! Font Awesome Pro 7.2.0 by @fontawesome - https://fontawesome.com License - https://fontawesome.com/license (Commercial License) Copyright 2026 Fonticons, Inc. --><path opacity=".4" fill="currentColor" d="M224 327.9L224 336L264 336C277.3 336 288 346.7 288 360C288 373.3 277.3 384 264 384L224 384L224 448L264 448C277.3 448 288 458.7 288 472C288 485.3 277.3 496 264 496L224 496L224 544C224 552.7 230.9 559.7 239.5 560C239.7 560 239.8 560 240 560L400 560C400.2 560 400.3 560 400.5 560C409.1 559.7 416 552.7 416 544L416 327.9C416 310.5 411.3 293.4 402.3 278.5L388.8 256L251.2 256L237.7 278.5C228.7 293.4 224 310.5 224 327.9z"/><path fill="currentColor" d="M284.6 81.7L288 80L288 64C288 46.3 302.3 32 320 32C337.7 32 352 46.3 352 64L352 80L355.4 81.7C372.9 90.5 384 108.4 384 128C401.7 128 416 142.3 416 160L416 208L443.5 253.8C456.9 276.2 464 301.8 464 327.9L464 544C464 579.3 435.3 608 400 608L240 608C204.7 608 176 579.3 176 544L176 327.9C176 301.8 183.1 276.2 196.5 253.8L224 208L224 160C224 142.3 238.3 128 256 128C256 108.4 267.1 90.5 284.6 81.7zM416 544L416 327.9C416 310.5 411.3 293.4 402.3 278.5L388.8 256L251.2 256L237.7 278.5C228.7 293.4 224 310.5 224 327.9L224 336L264 336C277.3 336 288 346.7 288 360C288 373.3 277.3 384 264 384L224 384L224 448L264 448C277.3 448 288 458.7 288 472C288 485.3 277.3 496 264 496L224 496L224 544C224 552.8 231.2 560 240 560L400 560C408.8 560 416 552.8 416 544z"/></svg>