<svg xmlns="http://www.w3.org/2000/svg" viewBox="0 0 640 640"><!--! Font Awesome Pro 7.2.0 by @fontawesome - https://fontawesome.com License - https://fontawesome.com/license (Commercial License) Copyright 2026 Fonticons, Inc. --><path opacity=".4" fill="currentColor" d="M103.4 491L127.8 466.6L164.6 475.8L173.8 512.6L149.4 537L143.7 514.1C141.8 506.6 136.4 500.5 129.4 497.6L126.3 496.6L103.4 490.9zM511.4 93L559.5 81L547.5 129.1L511.4 93z"/><path fill="currentColor" d="M586.7 24.7C594.9 22.7 603.5 25.1 609.5 31C615.5 36.9 617.8 45.6 615.8 53.8L583.8 181.8C581.7 190.2 575.3 196.8 566.9 199.1C558.5 201.4 549.6 199.1 543.5 192.9L512.4 161.8L211 463.2L223.7 514L224.3 517.1C225.1 524.3 222.6 531.6 217.4 536.8L153.4 600.8C147.3 606.9 138.4 609.3 130 607C121.6 604.7 115.2 598.1 113.1 589.7L100.6 539.7L50.6 527.2C42.2 525.1 35.6 518.7 33.3 510.3C31 501.9 33.3 493 39.5 486.9L103.5 422.9L105.8 420.8C111.6 416.4 119.1 414.8 126.2 416.6L177 429.3L478.4 127.9L447.4 96.9C441.3 90.8 438.9 81.9 441.2 73.5C443.5 65.1 450.1 58.7 458.5 56.6L586.5 24.6zM491.2 251.1C541.2 344.5 527.1 463.2 448.8 542.4L465.5 559.1L467.2 560.9C474.9 570.3 474.3 584.2 465.5 593C456.7 601.8 442.8 602.3 433.4 594.7L431.6 593L290.5 451.9L324.4 418L414.9 508.5C474.2 448.4 487.7 360 455.4 287.1L491.3 251.2zM103.4 491L126.3 496.7L129.4 497.7C136.5 500.5 141.9 506.6 143.7 514.2L149.4 537.1L173.8 512.7L164.6 475.9L127.8 466.7L103.4 491.1zM98.1 191.6C177.2 113.4 296 99.3 389.4 149.2L353.5 185.1C280.5 152.8 192.1 166.2 132 225.6L222.5 316.1L188.6 350L47.5 208.9L45.8 207.1C38.1 197.7 38.7 183.8 47.5 175C56.3 166.2 70.2 165.7 79.6 173.3L81.4 175L98 191.6zM511.4 93L547.5 129.1L559.5 81L511.4 93z"/></svg>