<svg xmlns="http://www.w3.org/2000/svg" viewBox="0 0 640 640"><!--! Font Awesome Pro 7.2.0 by @fontawesome - https://fontawesome.com License - https://fontawesome.com/license (Commercial License) Copyright 2026 Fonticons, Inc. --><path opacity=".4" fill="currentColor" d="M96 304L352 304L352 352L96 352L96 304zM112 400L336 400L336 512C336 520.8 328.8 528 320 528L128 528C119.2 528 112 520.8 112 512L112 400zM240 128C240 119.2 247.2 112 256 112L304 112L304 184C304 197.3 314.7 208 328 208L240 208L240 128zM368 208L440 208C453.3 208 464 197.3 464 184L464 112L512 112C520.8 112 528 119.2 528 128L528 512C528 520.8 520.8 528 512 528L430.9 528C431.6 522.8 432 517.4 432 512L432 384C442 370.6 448 354 448 336L448 288C448 243.8 412.2 208 368 208z"/><path fill="currentColor" d="M464 112L512 112C520.8 112 528 119.2 528 128L528 512C528 520.8 520.8 528 512 528L430.9 528C428.4 545.7 421.7 562 412 576L512 576C547.3 576 576 547.3 576 512L576 128C576 92.7 547.3 64 512 64L256 64C220.7 64 192 92.7 192 128L192 208L240 208L240 128C240 119.2 247.2 112 256 112L304 112L304 184C304 197.3 314.7 208 328 208L440 208C453.3 208 464 197.3 464 184L464 112zM416 112L416 160L352 160L352 112L416 112zM336 512C336 520.8 328.8 528 320 528L128 528C119.2 528 112 520.8 112 512L112 400L336 400L336 512zM64 387.8L64 512C64 547.3 92.7 576 128 576L320 576C355.3 576 384 547.3 384 512L384 387.8C393.8 379 400 366.2 400 352L400 304C400 277.5 378.5 256 352 256L96 256C69.5 256 48 277.5 48 304L48 352C48 366.2 54.2 379 64 387.8zM96 352L96 304L352 304L352 352L96 352z"/></svg>