<svg xmlns="http://www.w3.org/2000/svg" viewBox="0 0 640 640"><!--! Font Awesome Pro 7.2.0 by @fontawesome - https://fontawesome.com License - https://fontawesome.com/license (Commercial License) Copyright 2026 Fonticons, Inc. --><path opacity=".4" fill="currentColor" d="M80 256L496 256L496 274.7C485.6 273 474.9 272 464 272C411.3 272 363.5 293.3 328.8 327.7C316.2 322.7 302.4 320 288 320C226.1 320 176 370.1 176 432L176 496L128 496L128 393.4C128 357.7 109.7 324.7 80 305.8L80 256z"/><path fill="currentColor" d="M56 96C42.7 96 32 106.7 32 120C32 133.3 42.7 144 56 144L72 144L72 208L56 208C42.7 208 32 218.7 32 232L32 320C32 329.1 37.1 337.4 45.3 341.5L49.1 343.4C68.1 352.9 80.1 372.3 80.1 393.5L80 504C80 526.1 97.9 544 120 544L184 544C206.1 544 224 526.1 224 504L224 432C224 396.7 252.7 368 288 368C291.2 368 294.3 368.2 297.3 368.7C305.9 353.6 316.6 339.8 328.8 327.7C316.2 322.7 302.4 320 288 320C226.1 320 176 370.1 176 432L176 496L128 496L128 393.4C128 357.7 109.7 324.7 80 305.8L80 256L496 256L496 274.7C512.8 277.5 528.9 282.5 544 289.5L544 232.1C544 218.8 533.3 208.1 520 208.1L504 208.1L504 144.1L520 144.1C533.3 144.1 544 133.4 544 120.1C544 106.8 533.3 96.1 520 96.1L56 96zM456 144L456 208L376 208L376 144L456 144zM328 144L328 208L248 208L248 144L328 144zM200 144L200 208L120 208L120 144L200 144zM464 608C543.5 608 608 543.5 608 464C608 384.5 543.5 320 464 320C384.5 320 320 384.5 320 464C320 543.5 384.5 608 464 608zM523.3 427.3L486.6 464L523.3 500.7C529.5 506.9 529.5 517.1 523.3 523.3C517.1 529.5 506.9 529.5 500.7 523.3L464 486.6L427.3 523.3C421.1 529.5 410.9 529.5 404.7 523.3C398.5 517.1 398.5 506.9 404.7 500.7L441.4 464L404.7 427.3C398.5 421.1 398.5 410.9 404.7 404.7C410.9 398.5 421.1 398.5 427.3 404.7L464 441.4L500.7 404.7C506.9 398.5 517.1 398.5 523.3 404.7C529.5 410.9 529.5 421.1 523.3 427.3z"/></svg>