<svg xmlns="http://www.w3.org/2000/svg" viewBox="0 0 640 640"><!--! Font Awesome Pro 7.2.0 by @fontawesome - https://fontawesome.com License - https://fontawesome.com/license (Commercial License) Copyright 2026 Fonticons, Inc. --><path opacity=".4" fill="currentColor" d="M112 224L112 480C112 488.8 119.2 496 128 496L512 496C520.8 496 528 488.8 528 480L528 224C528 215.2 520.8 208 512 208L128 208C119.2 208 112 215.2 112 224zM216 352C216 338.7 226.7 328 240 328L342.1 328L311.1 297C301.7 287.6 301.7 272.4 311.1 263.1C320.5 253.8 335.7 253.7 345 263.1L417 335.1C426.4 344.5 426.4 359.7 417 369L345 441C335.6 450.4 320.4 450.4 311.1 441C301.8 431.6 301.7 416.4 311.1 407.1L342.1 376.1L240 376.1C226.7 376.1 216 365.4 216 352.1z"/><path fill="currentColor" d="M264 112L376 112C380.4 112 384 115.6 384 120L384 160L256 160L256 120C256 115.6 259.6 112 264 112zM208 120L208 160L128 160C92.7 160 64 188.7 64 224L64 480C64 515.3 92.7 544 128 544L512 544C547.3 544 576 515.3 576 480L576 224C576 188.7 547.3 160 512 160L432 160L432 120C432 89.1 406.9 64 376 64L264 64C233.1 64 208 89.1 208 120zM232 208L512 208C520.8 208 528 215.2 528 224L528 480C528 488.8 520.8 496 512 496L128 496C119.2 496 112 488.8 112 480L112 224C112 215.2 119.2 208 128 208L232 208zM345 441L417 369C426.4 359.6 426.4 344.4 417 335.1L345 263.1C335.6 253.7 320.4 253.7 311.1 263.1C301.8 272.5 301.7 287.7 311.1 297L342.1 328L240 328C226.7 328 216 338.7 216 352C216 365.3 226.7 376 240 376L342.1 376L311.1 407C301.7 416.4 301.7 431.6 311.1 440.9C320.5 450.2 335.7 450.3 345 440.9z"/></svg>