<svg xmlns="http://www.w3.org/2000/svg" viewBox="0 0 640 640"><!--! Font Awesome Pro 7.2.0 by @fontawesome - https://fontawesome.com License - https://fontawesome.com/license (Commercial License) Copyright 2026 Fonticons, Inc. --><path opacity=".4" fill="currentColor" d="M176 128L176 352L464 352L464 128C464 119.2 456.8 112 448 112L368 112L368 168C368 181.3 357.3 192 344 192C330.7 192 320 181.3 320 168L320 112L272 112L272 200C272 213.3 261.3 224 248 224C234.7 224 224 213.3 224 200L224 112L192 112C183.2 112 176 119.2 176 128z"/><path fill="currentColor" d="M176 352L176 128C176 119.2 183.2 112 192 112L224 112L224 200C224 213.3 234.7 224 248 224C261.3 224 272 213.3 272 200L272 112L320 112L320 168C320 181.3 330.7 192 344 192C357.3 192 368 181.3 368 168L368 112L448 112C456.8 112 464 119.2 464 128L464 352L176 352zM128 384C128 419.3 156.7 448 192 448L256 448L256 512C256 547.3 284.7 576 320 576C355.3 576 384 547.3 384 512L384 448L448 448C483.3 448 512 419.3 512 384L512 128C512 92.7 483.3 64 448 64L192 64C156.7 64 128 92.7 128 128L128 384zM320 528C311.2 528 304 520.8 304 512C304 503.2 311.2 496 320 496C328.8 496 336 503.2 336 512C336 520.8 328.8 528 320 528z"/></svg>