<svg xmlns="http://www.w3.org/2000/svg" viewBox="0 0 640 640"><!--! Font Awesome Pro 7.2.0 by @fontawesome - https://fontawesome.com License - https://fontawesome.com/license (Commercial License) Copyright 2026 Fonticons, Inc. --><path opacity=".4" fill="currentColor" d="M112 320C112 364.2 147.8 400 192 400L256 400L256 240C234.7 240 213.3 240 192 240C147.8 240 112 275.8 112 320zM304 239.1L304 400.8C368 405.6 429.2 430 479 471.1L496 485.1L496 154.8L479 168.8C429.2 209.8 368 234.3 304 239.1z"/><path fill="currentColor" d="M530.2 82.3C538.6 86.3 544 94.7 544 104L544 536C544 545.3 538.6 553.7 530.2 557.7C521.8 561.7 511.9 560.4 504.7 554.5L448.5 508.2C407.3 474.2 356.8 453.7 304 449L304 528C304 554.5 282.5 576 256 576L208 576C181.5 576 160 554.5 160 528L160 444C104.8 429.8 64 379.6 64 320C64 249.3 121.3 192 192 192L281.4 192C342.4 191.8 401.4 170.6 448.5 131.8L504.7 85.5C511.9 79.6 521.8 78.4 530.2 82.3zM304 400L304 400.9C368 405.7 429.2 430.1 479 471.2L496 485.2L496 154.9L479 168.9C429.2 209.9 368 234.4 304 239.2L304 400zM256 448L208 448L208 528L256 528L256 448zM192 240C147.8 240 112 275.8 112 320C112 364.2 147.8 400 192 400L256 400L256 240L192 240z"/></svg>