<svg xmlns="http://www.w3.org/2000/svg" viewBox="0 0 640 640"><!--! Font Awesome Pro 7.2.0 by @fontawesome - https://fontawesome.com License - https://fontawesome.com/license (Commercial License) Copyright 2026 Fonticons, Inc. --><path opacity=".4" fill="currentColor" d="M176.5 416C176.5 407.2 183.7 400 192.5 400L448.5 400C457.3 400 464.5 407.2 464.5 416L464.5 434.1C455.9 432.7 447.2 432 438.5 432C406 432.2 373.6 442.7 346.1 463.4C324 480 317 480 294.9 463.4C266.8 442.3 233.6 431.8 200.5 432C192.5 432.1 184.4 432.7 176.5 434L176.5 416z"/><path fill="currentColor" d="M375 501.7C413.4 472.7 465.6 472.7 504 501.7C520.9 514.4 536.9 523.2 551.8 526.3C565.5 529.1 579.2 527.2 594.1 516C604.7 508 619.7 510.1 627.7 520.7C635.7 531.3 633.6 546.3 623 554.3C596.6 574.2 568.8 578.7 542.3 573.4C517 568.3 494.2 554.5 475.1 540.1C453.8 524 425.2 524 403.9 540.1C379.7 558.4 351.6 576 320.5 576C289.4 576 261.4 558.3 237.1 540.1C215.8 524 187.2 524 165.9 540.1C142.2 558 111.8 575.6 77.9 575.4C57.5 575.3 37.2 568.7 18.1 554.3C7.5 546.3 5.4 531.3 13.4 520.7C21.4 510.1 36.4 508 47 516C58.3 524.5 68.6 527.4 78.2 527.5C95.8 527.6 115.5 518.1 137.1 501.8C175.5 472.8 227.7 472.8 266.1 501.8C290.1 519.9 306.8 528.1 320.6 528.1C334.4 528.1 351.1 519.9 375.1 501.8zM424.5 64C437.8 64 448.5 74.7 448.5 88C448.5 101.3 437.8 112 424.5 112L415.8 112L466.9 354.7C493.3 362.6 512.6 387.1 512.6 416L512.6 450.4C497.4 442.2 481.2 436.8 464.6 434.1L464.6 416C464.6 407.2 457.4 400 448.6 400L192.6 400C183.8 400 176.6 407.2 176.6 416L176.6 434C160 436.7 143.8 442.2 128.6 450.3L128.6 415.9C128.6 386.9 147.9 362.4 174.3 354.6L225.4 111.9L216.6 111.9C203.3 111.9 192.6 101.2 192.6 87.9C192.6 74.6 203.3 63.9 216.6 63.9L424.6 63.9zM253.8 352L387.2 352L320.5 274.2L253.8 352zM234.5 300.7L288.8 237.3L255.9 198.9L234.5 300.7zM352.1 237.3L406.4 300.7L385 198.9L352.1 237.3zM268.4 139.7L320.5 200.5L372.6 139.7L366.8 112L274.4 112L268.6 139.7z"/></svg>