<svg xmlns="http://www.w3.org/2000/svg" viewBox="0 0 640 640"><!--! Font Awesome Pro 7.2.0 by @fontawesome - https://fontawesome.com License - https://fontawesome.com/license (Commercial License) Copyright 2026 Fonticons, Inc. --><path opacity=".4" fill="currentColor" d="M144 192L144 480C144 488.8 151.2 496 160 496L480 496C488.8 496 496 488.8 496 480L496 192C496 183.2 488.8 176 480 176L160 176C151.2 176 144 183.2 144 192zM256 288C256 305.7 241.7 320 224 320C206.3 320 192 305.7 192 288C192 270.3 206.3 256 224 256C241.7 256 256 270.3 256 288zM192 408C192 394.7 202.7 384 216 384L328 384C341.3 384 352 394.7 352 408C352 421.3 341.3 432 328 432L216 432C202.7 432 192 421.3 192 408zM288 280C288 266.7 298.7 256 312 256L424 256C437.3 256 448 266.7 448 280C448 293.3 437.3 304 424 304L312 304C298.7 304 288 293.3 288 280zM448 416C448 433.7 433.7 448 416 448C398.3 448 384 433.7 384 416C384 398.3 398.3 384 416 384C433.7 384 448 398.3 448 416z"/><path fill="currentColor" d="M240 88C240 74.7 229.3 64 216 64C202.7 64 192 74.7 192 88L192 128L160 128C124.7 128 96 156.7 96 192L96 480C96 515.3 124.7 544 160 544L480 544C515.3 544 544 515.3 544 480L544 192C544 156.7 515.3 128 480 128L448 128L448 88C448 74.7 437.3 64 424 64C410.7 64 400 74.7 400 88L400 128L240 128L240 88zM424 176L480 176C488.8 176 496 183.2 496 192L496 480C496 488.8 488.8 496 480 496L160 496C151.2 496 144 488.8 144 480L144 192C144 183.2 151.2 176 160 176L424 176zM192 288C192 305.7 206.3 320 224 320C241.7 320 256 305.7 256 288C256 270.3 241.7 256 224 256C206.3 256 192 270.3 192 288zM416 384C398.3 384 384 398.3 384 416C384 433.7 398.3 448 416 448C433.7 448 448 433.7 448 416C448 398.3 433.7 384 416 384zM288 280C288 293.3 298.7 304 312 304L424 304C437.3 304 448 293.3 448 280C448 266.7 437.3 256 424 256L312 256C298.7 256 288 266.7 288 280zM328 384L216 384C202.7 384 192 394.7 192 408C192 421.3 202.7 432 216 432L328 432C341.3 432 352 421.3 352 408C352 394.7 341.3 384 328 384z"/></svg>