<svg xmlns="http://www.w3.org/2000/svg" viewBox="0 0 640 640"><!--! Font Awesome Pro 7.2.0 by @fontawesome - https://fontawesome.com License - https://fontawesome.com/license (Commercial License) Copyright 2026 Fonticons, Inc. --><path opacity=".4" fill="currentColor" d="M144 192L144 480C144 488.8 151.2 496 160 496L480 496C488.8 496 496 488.8 496 480L496 192C496 183.2 488.8 176 480 176L160 176C151.2 176 144 183.2 144 192zM231 311L303 239C312.4 229.6 327.6 229.6 336.9 239L408.9 311C418.3 320.4 418.3 335.6 408.9 344.9C399.5 354.2 384.3 354.3 375 344.9L344 313.9L344 416C344 429.3 333.3 440 320 440C306.7 440 296 429.3 296 416L296 313.9L265 344.9C255.6 354.3 240.4 354.3 231.1 344.9C221.8 335.5 221.7 320.3 231.1 311z"/><path fill="currentColor" d="M216 64C229.3 64 240 74.7 240 88L240 128L400 128L400 88C400 74.7 410.7 64 424 64C437.3 64 448 74.7 448 88L448 128L480 128C515.3 128 544 156.7 544 192L544 480C544 515.3 515.3 544 480 544L160 544C124.7 544 96 515.3 96 480L96 192C96 156.7 124.7 128 160 128L192 128L192 88C192 74.7 202.7 64 216 64zM216 176L160 176C151.2 176 144 183.2 144 192L144 480C144 488.8 151.2 496 160 496L480 496C488.8 496 496 488.8 496 480L496 192C496 183.2 488.8 176 480 176L216 176zM337 239L409 311C418.4 320.4 418.4 335.6 409 344.9C399.6 354.2 384.4 354.3 375.1 344.9L344.1 313.9L344.1 416C344.1 429.3 333.4 440 320.1 440C306.8 440 296.1 429.3 296.1 416L296.1 313.9L265.1 344.9C255.7 354.3 240.5 354.3 231.2 344.9C221.9 335.5 221.8 320.3 231.2 311L303.2 239C312.6 229.6 327.8 229.6 337.1 239z"/></svg>