<svg xmlns="http://www.w3.org/2000/svg" viewBox="0 0 640 640"><!--! Font Awesome Pro 7.2.0 by @fontawesome - https://fontawesome.com License - https://fontawesome.com/license (Commercial License) Copyright 2026 Fonticons, Inc. --><path opacity=".4" fill="currentColor" d="M144 192L144 480C144 488.8 151.2 496 160 496L480 496C488.8 496 496 488.8 496 480L496 192C496 183.2 488.8 176 480 176L160 176C151.2 176 144 183.2 144 192zM352 432C352 449.7 337.7 464 320 464C302.3 464 288 449.7 288 432C288 414.3 302.3 400 320 400C337.7 400 352 414.3 352 432zM288.6 241.7C287.3 223.5 301.7 208 320 208C338.2 208 352.7 223.5 351.4 241.7L344 345.7C343.1 358.3 332.6 368 320.1 368C307.5 368 297.1 358.3 296.2 345.7L288.8 241.7z"/><path fill="currentColor" d="M424 64C437.3 64 448 74.7 448 88L448 128L480 128C515.3 128 544 156.7 544 192L544 480C544 515.3 515.3 544 480 544L160 544C124.7 544 96 515.3 96 480L96 192C96 156.7 124.7 128 160 128L192 128L192 88C192 74.7 202.7 64 216 64C229.3 64 240 74.7 240 88L240 128L400 128L400 88C400 74.7 410.7 64 424 64zM160 176C151.2 176 144 183.2 144 192L144 480C144 488.8 151.2 496 160 496L480 496C488.8 496 496 488.8 496 480L496 192C496 183.2 488.8 176 480 176L160 176zM320 464C302.3 464 288 449.7 288 432C288 414.3 302.3 400 320 400C337.7 400 352 414.3 352 432C352 449.7 337.7 464 320 464zM320 208C338.2 208 352.7 223.5 351.4 241.7L344 345.7C343.1 358.3 332.6 368 320.1 368C307.5 368 297.1 358.3 296.2 345.7L288.8 241.7C287.3 223.5 301.8 208 320 208z"/></svg>