<svg xmlns="http://www.w3.org/2000/svg" viewBox="0 0 640 640"><!--! Font Awesome Pro 7.2.0 by @fontawesome - https://fontawesome.com License - https://fontawesome.com/license (Commercial License) Copyright 2026 Fonticons, Inc. --><path opacity=".4" fill="currentColor" d="M208 256L208 384C208 392.8 215.2 400 224 400L416 400C424.8 400 432 392.8 432 384L432 256C432 247.2 424.8 240 416 240L389.7 240C380.1 240 371.4 234.3 367.6 225.5L360.1 208L279.7 208L272.2 225.5C268.4 234.3 259.7 240 250.1 240L224 240C215.2 240 208 247.2 208 256zM376 320C376 350.9 350.9 376 320 376C289.1 376 264 350.9 264 320C264 289.1 289.1 264 320 264C350.9 264 376 289.1 376 320z"/><path fill="currentColor" d="M128 64L200 64C213.3 64 224 74.7 224 88C224 101.3 213.3 112 200 112L128 112C119.2 112 112 119.2 112 128L112 200C112 213.3 101.3 224 88 224C74.7 224 64 213.3 64 200L64 128C64 92.7 92.7 64 128 64zM440 64L512 64C547.3 64 576 92.7 576 128L576 200C576 213.3 565.3 224 552 224C538.7 224 528 213.3 528 200L528 128C528 119.2 520.8 112 512 112L440 112C426.7 112 416 101.3 416 88C416 74.7 426.7 64 440 64zM112 440L112 512C112 520.8 119.2 528 128 528L200 528C213.3 528 224 538.7 224 552C224 565.3 213.3 576 200 576L128 576C92.7 576 64 547.3 64 512L64 440C64 426.7 74.7 416 88 416C101.3 416 112 426.7 112 440zM576 440L576 512C576 547.3 547.3 576 512 576L440 576C426.7 576 416 565.3 416 552C416 538.7 426.7 528 440 528L512 528C520.8 528 528 520.8 528 512L528 440C528 426.7 538.7 416 552 416C565.3 416 576 426.7 576 440zM237.8 184.2C244.1 169.5 258.6 160 274.6 160L365.5 160C381.5 160 396 169.5 402.3 184.2L405.6 192L416.1 192C451.4 192 480.1 220.7 480.1 256L480.1 384C480.1 419.3 451.4 448 416.1 448L224.1 448C188.8 448 160.1 419.3 160.1 384L160.1 256C160.1 220.7 188.8 192 224.1 192L234.6 192L237.9 184.2zM279.8 208L272.3 225.5C268.5 234.3 259.8 240 250.2 240L224 240C215.2 240 208 247.2 208 256L208 384C208 392.8 215.2 400 224 400L416 400C424.8 400 432 392.8 432 384L432 256C432 247.2 424.8 240 416 240L389.7 240C380.1 240 371.4 234.3 367.6 225.5L360.1 208L279.7 208zM264 320C264 289.1 289.1 264 320 264C350.9 264 376 289.1 376 320C376 350.9 350.9 376 320 376C289.1 376 264 350.9 264 320z"/></svg>