<svg xmlns="http://www.w3.org/2000/svg" viewBox="0 0 640 640"><!--! Font Awesome Pro 7.2.0 by @fontawesome - https://fontawesome.com License - https://fontawesome.com/license (Commercial License) Copyright 2026 Fonticons, Inc. --><path opacity=".4" fill="currentColor" d="M192 353.4L192 498.2C195.4 501.2 202.2 505.7 213.7 510.4C238.5 520.5 276 527.9 320 527.9C364 527.9 401.5 520.5 426.3 510.4C437.8 505.7 444.6 501.2 448 498.2L448 353.4C433.8 359.6 417 364.7 398.3 368.5C390.7 404.8 358.5 432 320 432C281.5 432 249.3 404.8 241.7 368.5C223 364.7 206.2 359.6 192 353.4z"/><path fill="currentColor" d="M448 498.3C444.6 501.3 437.8 505.8 426.3 510.5C401.5 520.6 364 528 320 528C276 528 238.5 520.6 213.7 510.5C202.2 505.8 195.4 501.3 192 498.3L192 353.5C206.2 359.7 223 364.8 241.7 368.6C249.3 404.9 281.5 432.1 320 432.1C358.5 432.1 390.7 404.9 398.3 368.6C417 364.8 433.8 359.7 448 353.5L448 498.3zM496 504L496 136C496 96.2 417.2 64 320 64C222.8 64 144 96.2 144 136L144 504C144 543.8 222.8 576 320 576C417.2 576 496 543.8 496 504zM432 136C432 149.3 381.9 160 320 160C258.1 160 208 149.3 208 136C208 122.7 258.1 112 320 112C381.9 112 432 122.7 432 136zM320 320C337.7 320 352 334.3 352 352C352 369.7 337.7 384 320 384C302.3 384 288 369.7 288 352C288 334.3 302.3 320 320 320z"/></svg>