<svg xmlns="http://www.w3.org/2000/svg" viewBox="0 0 640 640"><!--! Font Awesome Pro 7.2.0 by @fontawesome - https://fontawesome.com License - https://fontawesome.com/license (Commercial License) Copyright 2026 Fonticons, Inc. --><path opacity=".4" fill="currentColor" d=""/><path fill="currentColor" d="M472 216C529.4 216 576 262.6 576 320C576 461.4 461.4 576 320 576C265.6 576 215.2 559 173.7 530.1C162.8 522.5 160.2 507.6 167.8 496.7C175.4 485.8 190.3 483.2 201.2 490.7C234.9 514.2 275.8 528 320 528C398.9 528 467.5 484.1 502.8 419.3C493.1 422.3 482.7 424 472 424C414.6 424 368 377.4 368 320C368 262.6 414.6 216 472 216zM320 64C374.4 64 424.8 81 466.3 109.9C477.2 117.5 479.8 132.4 472.2 143.3C464.6 154.2 449.7 156.8 438.8 149.3C405.1 125.8 364.2 112 320 112C241.1 112 172.4 155.9 137.2 220.6C146.9 217.6 157.3 216 168 216C225.4 216 272 262.6 272 320C272 377.4 225.4 424 168 424C110.6 424 64 377.4 64 320C64 318.1 64.1 316.2 64.2 314.3C67.2 175.5 180.5 64 320 64zM168 264C137.1 264 112 289.1 112 320C112 350.9 137.1 376 168 376C198.9 376 224 350.9 224 320C224 289.1 198.9 264 168 264zM472 264C441.1 264 416 289.1 416 320C416 350.9 441.1 376 472 376C502.9 376 528 350.9 528 320C528 289.1 502.9 264 472 264z"/></svg>