<svg xmlns="http://www.w3.org/2000/svg" viewBox="0 0 640 640"><!--! Font Awesome Pro 7.2.0 by @fontawesome - https://fontawesome.com License - https://fontawesome.com/license (Commercial License) Copyright 2026 Fonticons, Inc. --><path opacity=".4" fill="currentColor" d="M88 576L552 576C538.7 576 528 565.3 528 552L528 320C528 205.1 434.9 112 320 112C205.1 112 112 205.1 112 320L112 552C112 565.3 101.3 576 88 576zM160 431.9C160 417.5 163.5 403.4 170.2 390.7L208.8 317.8C218.5 299.5 237.5 288 258.3 288L381.6 288C402.3 288 421.4 299.5 431.1 317.8L469.7 390.7C476.4 403.4 479.9 417.5 479.9 431.9L480 550C480 563.3 469.3 574 456 574C442.7 574 432 563.3 432 550L432 528C357.3 528 282.7 528 208 528L208 550C208 563.3 197.3 574 184 574C170.7 574 160 563.3 160 550L160 431.9z"/><path fill="currentColor" d="M112 320C112 205.1 205.1 112 320 112C434.9 112 528 205.1 528 320L528 552C528 565.3 538.7 576 552 576C565.3 576 576 565.3 576 552L576 320C576 178.6 461.4 64 320 64C178.6 64 64 178.6 64 320L64 552C64 565.3 74.7 576 88 576C101.3 576 112 565.3 112 552L112 320zM251.3 340.2C252.7 337.6 255.4 335.9 258.4 335.9L381.7 335.9C384.7 335.9 387.4 337.5 388.8 340.2L412 383.9L228.2 383.9L251.4 340.2zM208 480L208 432L432 432L432 480L208 480zM208 528L432 528L432 550C432 563.3 442.7 574 456 574C469.3 574 480 563.3 480 550L480 431.9C480 417.5 476.5 403.4 469.8 390.7L431.2 317.8C421.5 299.5 402.5 288 381.7 288L258.4 288C237.7 288 218.6 299.5 208.9 317.8L170.3 390.7C163.5 403.4 160 417.5 160 431.9L160 550C160 563.3 170.7 574 184 574C197.3 574 208 563.3 208 550L208 528z"/></svg>