<svg xmlns="http://www.w3.org/2000/svg" viewBox="0 0 640 640"><!--! Font Awesome Pro 7.2.0 by @fontawesome - https://fontawesome.com License - https://fontawesome.com/license (Commercial License) Copyright 2026 Fonticons, Inc. --><path opacity=".4" fill="currentColor" d="M246.9 320L336.3 409.4L336.3 230.6L246.9 320z"/><path fill="currentColor" d="M201.7 297.4C190.1 310.3 188.9 329.8 201.7 342.6L329.7 470.6C338.8 479.8 352.6 482.5 364.6 477.5L368.9 475.3C378.4 469.6 384.4 459.2 384.4 447.9L384.4 191.9L384.1 187.1C382.7 177.7 377.1 169.4 369 164.5L364.7 162.3C352.7 157.4 339 160.1 329.8 169.2L201.8 297.2zM336.3 230.6L336.3 409.4L246.9 320L336.3 230.6z"/></svg>