<svg xmlns="http://www.w3.org/2000/svg" viewBox="0 0 640 640"><!--! Font Awesome Pro 7.2.0 by @fontawesome - https://fontawesome.com License - https://fontawesome.com/license (Commercial License) Copyright 2026 Fonticons, Inc. --><path opacity=".4" fill="currentColor" d="M124.6 95.3L286.8 95.3L247 135C237.6 144.4 237.6 159.6 247 168.9C256.4 178.2 271.6 178.3 280.9 168.9L311.9 137.9L311.9 240C311.9 253.3 322.6 264 335.9 264C349.2 264 359.9 253.3 359.9 240L359.9 137.9L390.9 168.9C400.3 178.3 415.5 178.3 424.8 168.9C434.1 159.5 434.2 144.3 424.8 135L385 95.2L568 95.2L566.9 101.2C563.9 98.8 560.4 97.1 556.4 96.3C543.4 93.8 530.8 102.3 528.3 115.3L495.9 284.5C493.7 295.8 483.8 304 472.3 304L162.5 304L124.5 95.3z"/><path fill="currentColor" d="M0 72C0 58.7 10.7 48 24 48L69.3 48C96.4 48 119.6 67.4 124.4 94L162.6 304L472.4 304C483.9 304 493.8 295.8 496 284.5L528.4 115.5C530.9 102.5 543.5 94 556.5 96.5C569.5 99 578 111.6 575.5 124.6L543.1 293.6C536.6 327.5 506.9 352 472.4 352L171.4 352L176.5 380.3C178.6 391.7 188.5 400 200.1 400L456 400C469.3 400 480 410.7 480 424C480 437.3 469.3 448 456 448L200.1 448C165.3 448 135.5 423.1 129.3 388.9L77.2 102.6C76.5 98.8 73.2 96 69.3 96L24 96C10.7 96 0 85.3 0 72zM160 528C160 501.5 181.5 480 208 480C234.5 480 256 501.5 256 528C256 554.5 234.5 576 208 576C181.5 576 160 554.5 160 528zM384 528C384 501.5 405.5 480 432 480C458.5 480 480 501.5 480 528C480 554.5 458.5 576 432 576C405.5 576 384 554.5 384 528zM353 63L425 135C434.4 144.4 434.4 159.6 425 168.9C415.6 178.2 400.4 178.3 391.1 168.9L360.1 137.9L360.1 240C360.1 253.3 349.4 264 336.1 264C322.8 264 312.1 253.3 312.1 240L312.1 137.9L281.1 168.9C271.7 178.3 256.5 178.3 247.2 168.9C237.9 159.5 237.8 144.3 247.2 135L319 63C328.4 53.6 343.6 53.6 352.9 63z"/></svg>