<svg xmlns="http://www.w3.org/2000/svg" viewBox="0 0 640 640"><!--! Font Awesome Pro 7.2.0 by @fontawesome - https://fontawesome.com License - https://fontawesome.com/license (Commercial License) Copyright 2026 Fonticons, Inc. --><path opacity=".4" fill="currentColor" d="M112 496L112 512C112 520.8 119.2 528 128 528L512 528C520.8 528 528 520.8 528 512L528 496L112 496zM112.5 448L527.5 448L504.3 285.7C503.2 277.8 496.4 272 488.5 272L151.5 272C143.5 272 136.8 277.9 135.7 285.7L112.5 448zM200 320C200 333.3 189.3 344 176 344C162.7 344 152 333.3 152 320C152 306.7 162.7 296 176 296C189.3 296 200 306.7 200 320zM248 400C248 413.3 237.3 424 224 424C210.7 424 200 413.3 200 400C200 386.7 210.7 376 224 376C237.3 376 248 386.7 248 400zM296 320C296 333.3 285.3 344 272 344C258.7 344 248 333.3 248 320C248 306.7 258.7 296 272 296C285.3 296 296 306.7 296 320zM344 400C344 413.3 333.3 424 320 424C306.7 424 296 413.3 296 400C296 386.7 306.7 376 320 376C333.3 376 344 386.7 344 400zM392 320C392 333.3 381.3 344 368 344C354.7 344 344 333.3 344 320C344 306.7 354.7 296 368 296C381.3 296 392 306.7 392 320zM440 400C440 413.3 429.3 424 416 424C402.7 424 392 413.3 392 400C392 386.7 402.7 376 416 376C429.3 376 440 386.7 440 400zM488 320C488 333.3 477.3 344 464 344C450.7 344 440 333.3 440 320C440 306.7 450.7 296 464 296C477.3 296 488 306.7 488 320z"/><path fill="currentColor" d="M160 64C124.7 64 96 92.7 96 128C96 163.3 124.7 192 160 192L208 192L208 224L151.5 224C119.7 224 92.6 247.4 88.1 278.9L64.6 443.5C64.2 446.5 64 449.5 64 452.5L64 512C64 547.3 92.7 576 128 576L512 576C547.3 576 576 547.3 576 512L576 452.5C576 449.5 575.8 446.4 575.4 443.5L551.8 278.9C547.3 247.4 520.3 224 488.4 224L271.9 224L271.9 192L319.9 192C355.2 192 383.9 163.3 383.9 128C383.9 92.7 355.3 64 320 64L160 64zM160 112L320 112C328.8 112 336 119.2 336 128C336 136.8 328.8 144 320 144L160 144C151.2 144 144 136.8 144 128C144 119.2 151.2 112 160 112zM112 512L112 496L528 496L528 512C528 520.8 520.8 528 512 528L128 528C119.2 528 112 520.8 112 512zM504.3 285.7L527.5 448L112.5 448L135.7 285.7C136.8 277.8 143.6 272 151.5 272L488.5 272C496.5 272 503.2 277.9 504.3 285.7zM176 296C162.7 296 152 306.7 152 320C152 333.3 162.7 344 176 344C189.3 344 200 333.3 200 320C200 306.7 189.3 296 176 296zM248 320C248 333.3 258.7 344 272 344C285.3 344 296 333.3 296 320C296 306.7 285.3 296 272 296C258.7 296 248 306.7 248 320zM224 376C210.7 376 200 386.7 200 400C200 413.3 210.7 424 224 424C237.3 424 248 413.3 248 400C248 386.7 237.3 376 224 376zM344 320C344 333.3 354.7 344 368 344C381.3 344 392 333.3 392 320C392 306.7 381.3 296 368 296C354.7 296 344 306.7 344 320zM320 376C306.7 376 296 386.7 296 400C296 413.3 306.7 424 320 424C333.3 424 344 413.3 344 400C344 386.7 333.3 376 320 376zM440 320C440 333.3 450.7 344 464 344C477.3 344 488 333.3 488 320C488 306.7 477.3 296 464 296C450.7 296 440 306.7 440 320zM416 376C402.7 376 392 386.7 392 400C392 413.3 402.7 424 416 424C429.3 424 440 413.3 440 400C440 386.7 429.3 376 416 376z"/></svg>