<svg xmlns="http://www.w3.org/2000/svg" viewBox="0 0 640 640"><!--! Font Awesome Pro 7.2.0 by @fontawesome - https://fontawesome.com License - https://fontawesome.com/license (Commercial License) Copyright 2026 Fonticons, Inc. --><path opacity=".4" fill="currentColor" d="M112 336C112 252.4 165.4 181.3 240 154.9L240 360C240 382.1 257.9 400 280 400L485.1 400C458.7 474.6 387.6 528 304 528C198 528 112 442 112 336z"/><path fill="currentColor" d="M384 256L384 118C451.4 135.4 504.6 188.5 522 256L384 256zM544 304C561.7 304 576.2 289.6 573.9 272.1C559.7 165.1 474.9 80.4 367.9 66.1C350.4 63.8 336 78.3 336 96L336 272C336 289.7 350.3 304 368 304L544 304zM112 336C112 252.4 165.4 181.3 240 154.9L240 360C240 382.1 257.9 400 280 400L485.1 400C458.7 474.6 387.6 528 304 528C198 528 112 442 112 336zM288 143C288 118.7 265.2 97.5 238.7 105C137.9 133.4 64 226 64 336C64 468.6 171.5 576 304 576C414 576 506.6 502.1 535 401.3C542.5 374.8 521.3 352 497 352L288 352L288 143z"/></svg>