<svg xmlns="http://www.w3.org/2000/svg" viewBox="0 0 640 640"><!--! Font Awesome Pro 7.2.0 by @fontawesome - https://fontawesome.com License - https://fontawesome.com/license (Commercial License) Copyright 2026 Fonticons, Inc. --><path opacity=".4" fill="currentColor" d="M112 398.1C130.3 379.8 148.7 361.4 167 343.1C157.6 352.5 157.6 367.7 167 377C176.4 386.3 191.6 386.4 200.9 377L271.9 306L350.9 385C360.3 394.4 375.5 394.4 384.8 385L495.8 274L495.8 328.1C495.8 341.4 506.5 352.1 519.8 352.1C533.1 352.1 543.8 341.4 543.8 328.1L543.8 496.1L143.8 496.1C126.1 496.1 111.8 481.8 111.8 464.1L111.8 398.2z"/><path fill="currentColor" d="M112 120C112 106.7 101.3 96 88 96C74.7 96 64 106.7 64 120L64 464C64 508.2 99.8 544 144 544L552 544C565.3 544 576 533.3 576 520C576 506.7 565.3 496 552 496L144 496C126.3 496 112 481.7 112 464L112 120zM384 216C384 229.3 394.7 240 408 240L462.1 240L368 334.1L289 255.1C279.6 245.7 264.4 245.7 255.1 255.1L167.1 343.1C157.7 352.5 157.7 367.7 167.1 377C176.5 386.3 191.7 386.4 201 377L272 306L351 385C360.4 394.4 375.6 394.4 384.9 385L495.9 274L495.9 328.1C495.9 341.4 506.6 352.1 519.9 352.1C533.2 352.1 543.9 341.4 543.9 328.1L543.9 216.1C543.9 202.8 533.2 192.1 519.9 192.1L407.9 192.1C394.6 192.1 383.9 202.8 383.9 216.1z"/></svg>