<svg xmlns="http://www.w3.org/2000/svg" viewBox="0 0 640 640"><!--! Font Awesome Pro 7.2.0 by @fontawesome - https://fontawesome.com License - https://fontawesome.com/license (Commercial License) Copyright 2026 Fonticons, Inc. --><path opacity=".4" fill="currentColor" d="M233.7 528L406.3 528L374.3 480L265.7 480L233.7 528zM248 256C248 275.8 254.9 294.9 267.6 310.1L275.8 320L364.2 320L372.4 310.1C385 294.9 392 275.8 392 256C392 245 389.8 234.2 385.8 224.2L361 249C351.6 258.4 336.4 258.4 327.1 249C317.8 239.6 317.7 224.4 327.1 215.1L357.8 184.3L320 139L267.6 201.9C254.9 217 248 236.2 248 256zM288 368L288 432L352 432L352 368L288 368z"/><path fill="currentColor" d="M368 64C381.3 64 392 74.7 392 88C392 101.3 381.3 112 368 112L360 112L409.3 171.1C429.2 194.9 440 225 440 256C440 280.1 433.4 303.5 421.2 324C427.7 328.3 432 335.7 432 344C432 357.3 421.3 368 408 368L400 368L400 432L457.8 518.7C461.8 524.8 464 531.9 464 539.1C464 559.4 447.5 575.9 427.2 575.9L212.8 576C192.5 576 176 559.5 176 539.2C176 531.9 178.2 524.8 182.2 518.8L240 432.1L240 368.1L232 368.1C218.7 368.1 208 357.4 208 344.1C208 335.7 212.3 328.4 218.8 324.1C206.6 303.7 200 280.2 200 256.1C200 225.1 210.9 195.1 230.7 171.2L280 112L272 112C258.7 112 248 101.3 248 88C248 74.7 258.7 64 272 64L368 64zM233.7 528L406.3 528L374.3 480L265.7 480L233.7 528zM288 368L288 432L352 432L352 368L288 368zM267.6 201.8C254.9 217 248 236.2 248 256C248 275.8 254.9 294.9 267.6 310.1L275.8 320L364.2 320L372.4 310.1C385 294.9 392 275.8 392 256C392 245 389.8 234.2 385.8 224.2L361 249C351.6 258.4 336.4 258.4 327.1 249C317.8 239.6 317.7 224.4 327.1 215.1L357.8 184.3L320 139L267.6 201.9z"/></svg>