<svg xmlns="http://www.w3.org/2000/svg" viewBox="0 0 640 640"><!--! Font Awesome Pro 7.2.0 by @fontawesome - https://fontawesome.com License - https://fontawesome.com/license (Commercial License) Copyright 2026 Fonticons, Inc. --><path opacity=".4" fill="currentColor" d="M144.9 396.9L332.9 118.7C336.4 114.4 341.3 112 346.5 112C355.7 112 364.6 120 364.6 131.5C364.6 136.1 363.2 140.2 360.8 143.4L144.9 396.9zM309.5 420.7L561.1 180.2C564.4 177.6 568.5 176 573 176C583.4 176 591.9 184.4 591.9 194.9C591.9 200.4 589.5 205.4 585.7 208.9L309.5 420.7z"/><path fill="currentColor" d="M144.9 396.9L332.9 118.7C336.4 114.4 341.3 112 346.5 112C355.7 112 364.6 120 364.6 131.5C364.6 136.1 363.2 140.2 360.8 143.4L144.9 396.9zM346.5 64C325.1 64 306.3 74.4 294.3 90.1L293.9 90.6L293.5 91.2L7.4 514.7C-4.6 531.1-1.8 554.5 14.2 567.5C30.7 580.9 54.6 578 67.6 561.6L397.8 173.9L398.2 173.4L398.6 172.9C407.4 161.4 412.6 147 412.6 131.5C412.6 95 383.7 64 346.5 64zM309.5 420.7L561.1 180.2C564.4 177.6 568.5 176 573 176C583.4 176 591.9 184.4 591.9 194.9C591.9 200.4 589.5 205.4 585.7 208.9L309.5 420.7zM573 128C556.4 128 541.2 134.1 529.5 144.1L529 144.5L528.5 144.9L147.5 509.1C132 522.9 130.4 546.7 144 562.6C157.6 578.5 181.3 580.5 197.4 567.3L615.6 246.4L616.1 246L616.6 245.6C630.8 233.4 639.9 215.2 639.9 194.8C639.9 157.9 610 127.9 573 127.9z"/></svg>