<svg xmlns="http://www.w3.org/2000/svg" viewBox="0 0 640 640"><!--! Font Awesome Pro 7.2.0 by @fontawesome - https://fontawesome.com License - https://fontawesome.com/license (Commercial License) Copyright 2026 Fonticons, Inc. --><path opacity=".4" fill="currentColor" d="M112 320C112 434.9 205.1 528 320 528C434.9 528 528 434.9 528 320C528 205.1 434.9 112 320 112C205.1 112 112 205.1 112 320zM176 232C176 218.7 186.7 208 200 208L248 208C287.8 208 320 240.2 320 280C320 306.9 305.3 330.3 283.5 342.6L302.8 400.4C307 413 300.2 426.6 287.6 430.8C275 435 261.4 428.2 257.2 415.6L236 352L224 352L224 408C224 421.3 213.3 432 200 432C186.7 432 176 421.3 176 408L176 232zM224 256L224 304L248 304C261.3 304 272 293.3 272 280C272 266.7 261.3 256 248 256L224 256zM344 278.2C344 245.9 368.6 219.4 400 216.3L400 208C400 199.2 407.2 192 416 192C424.8 192 432 199.2 432 208L432 216L440 216C453.3 216 464 226.7 464 240C464 253.3 453.3 264 440 264L406.2 264C398.4 264 392 270.3 392 278.2C392 284 395.5 289.2 400.9 291.3L432.9 304.1C456.5 313.5 472 336.4 472 361.8C472 388.3 455.4 411 432 419.9L432 432C432 440.8 424.8 448 416 448C407.2 448 400 440.8 400 432L400 424L376 424C362.7 424 352 413.3 352 400C352 386.7 362.7 376 376 376L409.8 376C417.6 376 424 369.7 424 361.8C424 356 420.5 350.8 415.1 348.7L383.1 335.9C359.5 326.5 344 303.6 344 278.2z"/><path fill="currentColor" d="M320 112C434.9 112 528 205.1 528 320C528 434.9 434.9 528 320 528C205.1 528 112 434.9 112 320C112 205.1 205.1 112 320 112zM320 576C461.4 576 576 461.4 576 320C576 178.6 461.4 64 320 64C178.6 64 64 178.6 64 320C64 461.4 178.6 576 320 576zM416 192C407.2 192 400 199.2 400 208L400 216.3C368.6 219.4 344 245.9 344 278.2C344 303.6 359.5 326.5 383.1 335.9L415.1 348.7C420.5 350.9 424 356.1 424 361.8C424 369.6 417.7 376 409.8 376L376 376C362.7 376 352 386.7 352 400C352 413.3 362.7 424 376 424L400 424L400 432C400 440.8 407.2 448 416 448C424.8 448 432 440.8 432 432L432 419.9C455.4 411 472 388.3 472 361.8C472 336.4 456.5 313.5 432.9 304.1L400.9 291.3C395.5 289.1 392 283.9 392 278.2C392 270.4 398.3 264 406.2 264L440 264C453.3 264 464 253.3 464 240C464 226.7 453.3 216 440 216L432 216L432 208C432 199.2 424.8 192 416 192zM200 208C186.7 208 176 218.7 176 232L176 408C176 421.3 186.7 432 200 432C213.3 432 224 421.3 224 408L224 352L236 352L257.2 415.6C261.4 428.2 275 435 287.6 430.8C300.2 426.6 307 413 302.8 400.4L283.5 342.6C305.3 330.2 320 306.8 320 280C320 240.2 287.8 208 248 208L200 208zM248 304L224 304L224 256L248 256C261.3 256 272 266.7 272 280C272 293.3 261.3 304 248 304z"/></svg>