<svg xmlns="http://www.w3.org/2000/svg" viewBox="0 0 640 640"><!--! Font Awesome Pro 7.2.0 by @fontawesome - https://fontawesome.com License - https://fontawesome.com/license (Commercial License) Copyright 2026 Fonticons, Inc. --><path opacity=".4" fill="currentColor" d="M112 320C112 434.9 205.1 528 320 528C434.9 528 528 434.9 528 320C528 205.1 434.9 112 320 112C205.1 112 112 205.1 112 320zM240 232C240 218.7 250.7 208 264 208L332 208C378.4 208 416 245.6 416 292C416 338.4 378.4 376 332 376L288 376L288 408C288 421.3 277.3 432 264 432C250.7 432 240 421.3 240 408L240 232zM288 256L288 328L332 328C351.9 328 368 311.9 368 292C368 272.1 351.9 256 332 256L288 256z"/><path fill="currentColor" d="M320 112C434.9 112 528 205.1 528 320C528 434.9 434.9 528 320 528C205.1 528 112 434.9 112 320C112 205.1 205.1 112 320 112zM320 576C461.4 576 576 461.4 576 320C576 178.6 461.4 64 320 64C178.6 64 64 178.6 64 320C64 461.4 178.6 576 320 576zM264 208C250.7 208 240 218.7 240 232L240 408C240 421.3 250.7 432 264 432C277.3 432 288 421.3 288 408L288 376L332 376C378.4 376 416 338.4 416 292C416 245.6 378.4 208 332 208L264 208zM332 328L288 328L288 256L332 256C351.9 256 368 272.1 368 292C368 311.9 351.9 328 332 328z"/></svg>