<svg xmlns="http://www.w3.org/2000/svg" viewBox="0 0 640 640"><!--! Font Awesome Pro 7.2.0 by @fontawesome - https://fontawesome.com License - https://fontawesome.com/license (Commercial License) Copyright 2026 Fonticons, Inc. --><path opacity=".4" fill="currentColor" d="M528 320C528 434.9 434.9 528 320 528C205.1 528 112 434.9 112 320C112 205.1 205.1 112 320 112C434.9 112 528 205.1 528 320zM271 199C261.6 208.4 261.6 223.6 271 232.9L358 319.9L271 406.9C261.6 416.3 261.6 431.5 271 440.8C280.4 450.1 295.6 450.2 304.9 440.8L409 337C418.4 327.6 418.4 312.4 409 303.1L305 199C295.6 189.6 280.4 189.6 271.1 199z"/><path fill="currentColor" d="M528 320C528 434.9 434.9 528 320 528C205.1 528 112 434.9 112 320C112 205.1 205.1 112 320 112C434.9 112 528 205.1 528 320zM64 320C64 461.4 178.6 576 320 576C461.4 576 576 461.4 576 320C576 178.6 461.4 64 320 64C178.6 64 64 178.6 64 320zM305 441L409 337C418.4 327.6 418.4 312.4 409 303.1L305 199C295.6 189.6 280.4 189.6 271.1 199C261.8 208.4 261.7 223.6 271.1 232.9L358.1 319.9L271.1 406.9C261.7 416.3 261.7 431.5 271.1 440.8C280.5 450.1 295.7 450.2 305 440.8z"/></svg>