<svg xmlns="http://www.w3.org/2000/svg" viewBox="0 0 640 640"><!--! Font Awesome Pro 7.2.0 by @fontawesome - https://fontawesome.com License - https://fontawesome.com/license (Commercial License) Copyright 2026 Fonticons, Inc. --><path opacity=".4" fill="currentColor" d="M112 320C112 434.9 205.1 528 320 528C434.9 528 528 434.9 528 320C528 205.1 434.9 112 320 112C205.1 112 112 205.1 112 320zM240 232C240 218.7 250.7 208 264 208L344 208C383.8 208 416 240.2 416 280C416 308.9 399 333.8 374.4 345.3L404.6 395.6C411.4 407 407.7 421.7 396.4 428.5C385.1 435.3 370.3 431.6 363.5 420.3L322.5 352L288.1 352L288.1 408C288.1 421.3 277.4 432 264.1 432C250.8 432 240.1 421.3 240.1 408L240.1 232zM288 256L288 304L344 304C357.3 304 368 293.3 368 280C368 266.7 357.3 256 344 256L288 256z"/><path fill="currentColor" d="M320 112C434.9 112 528 205.1 528 320C528 434.9 434.9 528 320 528C205.1 528 112 434.9 112 320C112 205.1 205.1 112 320 112zM320 576C461.4 576 576 461.4 576 320C576 178.6 461.4 64 320 64C178.6 64 64 178.6 64 320C64 461.4 178.6 576 320 576zM264 208C250.7 208 240 218.7 240 232L240 408C240 421.3 250.7 432 264 432C277.3 432 288 421.3 288 408L288 352L322.4 352L363.4 420.3C370.2 431.7 385 435.3 396.3 428.5C407.6 421.7 411.3 406.9 404.5 395.6L374.3 345.3C398.9 333.8 415.9 308.9 415.9 280C415.9 240.2 383.7 208 343.9 208L263.9 208zM336 304L288 304L288 256L344 256C357.3 256 368 266.7 368 280C368 293.3 357.3 304 344 304L336 304z"/></svg>