<svg xmlns="http://www.w3.org/2000/svg" viewBox="0 0 640 640"><!--! Font Awesome Pro 7.2.0 by @fontawesome - https://fontawesome.com License - https://fontawesome.com/license (Commercial License) Copyright 2026 Fonticons, Inc. --><path opacity=".4" fill="currentColor" d="M112 320C112 434.9 205.1 528 320 528C434.9 528 528 434.9 528 320C528 205.1 434.9 112 320 112C205.1 112 112 205.1 112 320zM224 248C224 234.7 234.7 224 248 224L376 224C385.7 224 394.5 229.8 398.2 238.8C401.9 247.8 399.9 258.1 393 265L358 300L425 367C434.4 376.4 434.4 391.6 425 400.9L401 424.9C391.6 434.3 376.4 434.3 367.1 424.9L300.1 357.9L265.1 392.9C258.2 399.8 247.9 401.8 238.9 398.1C229.9 394.4 224 385.7 224 376L224 248z"/><path fill="currentColor" d="M320 112C434.9 112 528 205.1 528 320C528 434.9 434.9 528 320 528C205.1 528 112 434.9 112 320C112 205.1 205.1 112 320 112zM320 576C461.4 576 576 461.4 576 320C576 178.6 461.4 64 320 64C178.6 64 64 178.6 64 320C64 461.4 178.6 576 320 576zM376 224L248 224C234.7 224 224 234.7 224 248L224 376C224 385.7 229.8 394.5 238.8 398.2C247.8 401.9 258.1 399.9 265 393L300 358L367 425C376.4 434.4 391.6 434.4 400.9 425L424.9 401C434.3 391.6 434.3 376.4 424.9 367.1L357.9 300.1L392.9 265.1C399.8 258.2 401.8 247.9 398.1 238.9C394.4 229.9 385.7 224 376 224z"/></svg>