<svg xmlns="http://www.w3.org/2000/svg" viewBox="0 0 640 640"><!--! Font Awesome Pro 7.2.0 by @fontawesome - https://fontawesome.com License - https://fontawesome.com/license (Commercial License) Copyright 2026 Fonticons, Inc. --><path opacity=".4" fill="currentColor" d="M112 320C112 434.9 205.1 528 320 528C434.9 528 528 434.9 528 320C528 205.1 434.9 112 320 112C205.1 112 112 205.1 112 320zM224 232C224 221.9 230.4 212.8 239.9 209.4C249.4 206 260.1 209 266.5 216.8L368 340.8L368 232C368 218.7 378.7 208 392 208C405.3 208 416 218.7 416 232L416 408C416 418.1 409.6 427.2 400.1 430.6C390.6 434 379.9 431 373.5 423.2L272 299.2L272 408C272 421.3 261.3 432 248 432C234.7 432 224 421.3 224 408L224 232z"/><path fill="currentColor" d="M320 112C434.9 112 528 205.1 528 320C528 434.9 434.9 528 320 528C205.1 528 112 434.9 112 320C112 205.1 205.1 112 320 112zM320 576C461.4 576 576 461.4 576 320C576 178.6 461.4 64 320 64C178.6 64 64 178.6 64 320C64 461.4 178.6 576 320 576zM266.6 216.8C260.2 208.9 249.5 206 240 209.4C230.5 212.8 224 221.9 224 232L224 408C224 421.3 234.7 432 248 432C261.3 432 272 421.3 272 408L272 299.2L373.4 423.2C379.8 431.1 390.5 434 400 430.6C409.5 427.2 416 418.1 416 408L416 232C416 218.7 405.3 208 392 208C378.7 208 368 218.7 368 232L368 340.8L266.6 216.8z"/></svg>