<svg xmlns="http://www.w3.org/2000/svg" viewBox="0 0 640 640"><!--! Font Awesome Pro 7.2.0 by @fontawesome - https://fontawesome.com License - https://fontawesome.com/license (Commercial License) Copyright 2026 Fonticons, Inc. --><path opacity=".4" fill="currentColor" d="M112 320C112 434.9 205.1 528 320 528C434.9 528 528 434.9 528 320C528 205.1 434.9 112 320 112C205.1 112 112 205.1 112 320zM216 320C216 306.7 226.7 296 240 296L342.1 296L311.1 265C301.7 255.6 301.7 240.4 311.1 231.1C320.5 221.8 335.7 221.7 345 231.1L417 303.1C426.4 312.5 426.4 327.7 417 337L345 409C335.6 418.4 320.4 418.4 311.1 409C301.8 399.6 301.7 384.4 311.1 375.1L342.1 344.1L240 344.1C226.7 344.1 216 333.4 216 320.1z"/><path fill="currentColor" d="M320 112C434.9 112 528 205.1 528 320C528 434.9 434.9 528 320 528C205.1 528 112 434.9 112 320C112 205.1 205.1 112 320 112zM320 576C461.4 576 576 461.4 576 320C576 178.6 461.4 64 320 64C178.6 64 64 178.6 64 320C64 461.4 178.6 576 320 576zM345 409L417 337C426.4 327.6 426.4 312.4 417 303.1L345 231.1C335.6 221.7 320.4 221.7 311.1 231.1C301.8 240.5 301.7 255.7 311.1 265L342.1 296L240 296C226.7 296 216 306.7 216 320C216 333.3 226.7 344 240 344L342.1 344L311.1 375C301.7 384.4 301.7 399.6 311.1 408.9C320.5 418.2 335.7 418.3 345 408.9z"/></svg>