<svg xmlns="http://www.w3.org/2000/svg" viewBox="0 0 640 640"><!--! Font Awesome Pro 7.2.0 by @fontawesome - https://fontawesome.com License - https://fontawesome.com/license (Commercial License) Copyright 2026 Fonticons, Inc. --><path opacity=".4" fill="currentColor" d="M112 320C112 434.9 205.1 528 320 528C434.9 528 528 434.9 528 320C528 205.1 434.9 112 320 112C205.1 112 112 205.1 112 320zM208 288C208 279.2 215.2 272 224 272L357 272C363.8 268 368 260.6 368 252.7C368 239.2 356.2 228.7 342.7 230.4L267 239.8C253.8 241.4 241.9 232.1 240.2 219C238.5 205.9 247.9 193.9 261 192.2L336.8 182.7C378.9 177.4 416 210.2 416 252.6C416 259.2 415.1 265.7 413.3 271.9L416 271.9C424.8 271.9 432 279.1 432 287.9C432 296.7 424.8 303.9 416 303.9L224 303.9C215.2 303.9 208 296.7 208 287.9zM208 352C208 343.2 215.2 336 224 336L416 336C424.8 336 432 343.2 432 352C432 360.8 424.8 368 416 368L283.1 368C276.3 372.1 272 379.6 272 387.6C272 401.2 283.9 411.9 297.4 410.4L389.3 400.2C402.5 398.7 414.3 408.2 415.8 421.4C417.3 434.6 407.8 446.4 394.6 447.9L302.7 458.1C260.7 462.8 224 429.9 224 387.6C224 380.9 225 374.3 226.8 368L224 368C215.2 368 208 360.8 208 352z"/><path fill="currentColor" d="M320 112C434.9 112 528 205.1 528 320C528 434.9 434.9 528 320 528C205.1 528 112 434.9 112 320C112 205.1 205.1 112 320 112zM320 576C461.4 576 576 461.4 576 320C576 178.6 461.4 64 320 64C178.6 64 64 178.6 64 320C64 461.4 178.6 576 320 576zM336.8 182.7L261 192.2C247.8 193.8 238.5 205.8 240.2 219C241.9 232.2 253.8 241.5 267 239.8L342.8 230.3C356.2 228.6 368.1 239.1 368.1 252.6C368.1 260.6 363.9 267.9 357.1 271.9L224.1 271.9C215.3 271.9 208.1 279.1 208.1 287.9C208.1 296.7 215.3 303.9 224.1 303.9L416.1 303.9C424.9 303.9 432.1 296.7 432.1 287.9C432.1 279.1 424.9 271.9 416.1 271.9L413.4 271.9C415.2 265.7 416.1 259.2 416.1 252.6C416.1 210.2 378.9 177.4 336.9 182.7zM340.6 336L224 336C215.2 336 208 343.2 208 352C208 360.8 215.2 368 224 368L226.8 368C225 374.3 224 380.9 224 387.6C224 429.9 260.7 462.7 302.7 458.1L394.6 447.9C407.8 446.4 417.3 434.6 415.8 421.4C414.3 408.2 402.5 398.7 389.3 400.2L297.4 410.4C283.8 411.9 272 401.3 272 387.6C272 379.6 276.2 372.1 283.1 368L416 368C424.8 368 432 360.8 432 352C432 343.2 424.8 336 416 336L340.6 336z"/></svg>