<svg xmlns="http://www.w3.org/2000/svg" viewBox="0 0 640 640"><!--! Font Awesome Pro 7.2.0 by @fontawesome - https://fontawesome.com License - https://fontawesome.com/license (Commercial License) Copyright 2026 Fonticons, Inc. --><path opacity=".4" fill="currentColor" d="M112 320C112 434.9 205.1 528 320 528C434.9 528 528 434.9 528 320C528 205.1 434.9 112 320 112C205.1 112 112 205.1 112 320zM231 375L334 272L279.9 272C266.6 272 255.9 261.3 255.9 248C255.9 234.7 266.6 224 279.9 224L391.9 224C405.2 224 415.9 234.7 415.9 248L415.9 360C415.9 373.3 405.2 384 391.9 384C378.6 384 367.9 373.3 367.9 360L367.9 305.9L264.9 408.9C255.5 418.3 240.3 418.3 231 408.9C221.7 399.5 221.6 384.3 231 375z"/><path fill="currentColor" d="M320 528C434.9 528 528 434.9 528 320C528 205.1 434.9 112 320 112C205.1 112 112 205.1 112 320C112 434.9 205.1 528 320 528zM320 64C461.4 64 576 178.6 576 320C576 461.4 461.4 576 320 576C178.6 576 64 461.4 64 320C64 178.6 178.6 64 320 64zM368 360L368 305.9L265 408.9C255.6 418.3 240.4 418.3 231.1 408.9C221.8 399.5 221.7 384.3 231.1 375L334.1 272L280 272C266.7 272 256 261.3 256 248C256 234.7 266.7 224 280 224L392 224C405.3 224 416 234.7 416 248L416 360C416 373.3 405.3 384 392 384C378.7 384 368 373.3 368 360z"/></svg>