<svg xmlns="http://www.w3.org/2000/svg" viewBox="0 0 640 640"><!--! Font Awesome Pro 7.2.0 by @fontawesome - https://fontawesome.com License - https://fontawesome.com/license (Commercial License) Copyright 2026 Fonticons, Inc. --><path opacity=".4" fill="currentColor" d="M112 320C112 434.9 205.1 528 320 528C434.9 528 528 434.9 528 320C528 205.1 434.9 112 320 112C205.1 112 112 205.1 112 320zM208 232C208 221.6 214.7 212.4 224.5 209.2C234.3 206 245.2 209.4 251.3 217.8L319.9 311.4L388.5 217.8C394.6 209.4 405.5 206 415.3 209.2C425.1 212.4 432 221.6 432 232L432 408C432 421.3 421.3 432 408 432C394.7 432 384 421.3 384 408L384 305.3L339.4 366.2C334.9 372.4 327.7 376 320 376C312.3 376 305.2 372.4 300.6 366.2L256 305.3L256 408C256 421.3 245.3 432 232 432C218.7 432 208 421.3 208 408L208 232z"/><path fill="currentColor" d="M320 112C434.9 112 528 205.1 528 320C528 434.9 434.9 528 320 528C205.1 528 112 434.9 112 320C112 205.1 205.1 112 320 112zM320 576C461.4 576 576 461.4 576 320C576 178.6 461.4 64 320 64C178.6 64 64 178.6 64 320C64 461.4 178.6 576 320 576zM251.4 217.8C245.3 209.4 234.4 206 224.6 209.2C214.8 212.4 208 221.6 208 232L208 408C208 421.3 218.7 432 232 432C245.3 432 256 421.3 256 408L256 305.3L300.6 366.2C305.1 372.4 312.3 376 320 376C327.7 376 334.8 372.4 339.4 366.2L384 305.3L384 408C384 421.3 394.7 432 408 432C421.3 432 432 421.3 432 408L432 232C432 221.6 425.3 212.4 415.5 209.2C405.7 206 394.8 209.4 388.7 217.8L320.1 311.4L251.5 217.8z"/></svg>