<svg xmlns="http://www.w3.org/2000/svg" viewBox="0 0 640 640"><!--! Font Awesome Pro 7.2.0 by @fontawesome - https://fontawesome.com License - https://fontawesome.com/license (Commercial License) Copyright 2026 Fonticons, Inc. --><path opacity=".4" fill="currentColor" d="M112 320C112 434.9 205.1 528 320 528C434.9 528 528 434.9 528 320C528 205.1 434.9 112 320 112C205.1 112 112 205.1 112 320zM201.2 329.9C203.7 323.9 209.5 320 216 320L288 320L288 216C288 202.7 298.7 192 312 192L328 192C341.3 192 352 202.7 352 216L352 320L424 320C430.5 320 436.3 323.9 438.8 329.9C441.3 335.9 439.9 342.8 435.3 347.3L331.3 451.3C325.1 457.5 314.9 457.5 308.7 451.3L204.7 347.3C200.1 342.7 198.8 335.8 201.2 329.9z"/><path fill="currentColor" d="M320 528C205.1 528 112 434.9 112 320C112 205.1 205.1 112 320 112C434.9 112 528 205.1 528 320C528 434.9 434.9 528 320 528zM320 64C178.6 64 64 178.6 64 320C64 461.4 178.6 576 320 576C461.4 576 576 461.4 576 320C576 178.6 461.4 64 320 64zM308.7 451.3C314.9 457.5 325.1 457.5 331.3 451.3L435.3 347.3C439.9 342.7 441.2 335.8 438.8 329.9C436.4 324 430.5 320 424 320L352 320L352 216C352 202.7 341.3 192 328 192L312 192C298.7 192 288 202.7 288 216L288 320L216 320C209.5 320 203.7 323.9 201.2 329.9C198.7 335.9 200.1 342.8 204.7 347.3L308.7 451.3z"/></svg>