<svg xmlns="http://www.w3.org/2000/svg" viewBox="0 0 640 640"><!--! Font Awesome Pro 7.2.0 by @fontawesome - https://fontawesome.com License - https://fontawesome.com/license (Commercial License) Copyright 2026 Fonticons, Inc. --><path opacity=".4" fill="currentColor" d="M112 320C112 434.9 205.1 528 320 528C434.9 528 528 434.9 528 320C528 205.1 434.9 112 320 112C205.1 112 112 205.1 112 320zM231 295L303 223C312.4 213.6 327.6 213.6 336.9 223L408.9 295C418.3 304.4 418.3 319.6 408.9 328.9C399.5 338.2 384.3 338.3 375 328.9L344 297.9L344 400C344 413.3 333.3 424 320 424C306.7 424 296 413.3 296 400L296 297.9L265 328.9C255.6 338.3 240.4 338.3 231.1 328.9C221.8 319.5 221.7 304.3 231.1 295z"/><path fill="currentColor" d="M320 112C434.9 112 528 205.1 528 320C528 434.9 434.9 528 320 528C205.1 528 112 434.9 112 320C112 205.1 205.1 112 320 112zM320 576C461.4 576 576 461.4 576 320C576 178.6 461.4 64 320 64C178.6 64 64 178.6 64 320C64 461.4 178.6 576 320 576zM337 223C327.6 213.6 312.4 213.6 303.1 223L231.1 295C221.7 304.4 221.7 319.6 231.1 328.9C240.5 338.2 255.7 338.3 265 328.9L296 297.9L296 400C296 413.3 306.7 424 320 424C333.3 424 344 413.3 344 400L344 297.9L375 328.9C384.4 338.3 399.6 338.3 408.9 328.9C418.2 319.5 418.3 304.3 408.9 295L336.9 223z"/></svg>