<svg xmlns="http://www.w3.org/2000/svg" viewBox="0 0 640 640"><!--! Font Awesome Pro 7.2.0 by @fontawesome - https://fontawesome.com License - https://fontawesome.com/license (Commercial License) Copyright 2026 Fonticons, Inc. --><path opacity=".4" fill="currentColor" d="M112 320C112 434.9 205.1 528 320 528C434.9 528 528 434.9 528 320C528 205.1 434.9 112 320 112C205.1 112 112 205.1 112 320zM192 320C192 254.2 241.7 200 305.5 192.8L312.8 170.9C315.6 162.5 324.7 158 333 160.8C341.3 163.6 345.9 172.7 343.1 181L339 193.4C348.7 194.8 358 197.4 366.8 200.8L376.8 170.9C379.6 162.5 388.7 158 397 160.8C405.3 163.6 409.9 172.7 407.1 181L395.3 216.5C399.7 219.7 403.9 223.2 407.8 226.9C417.4 236 417.9 251.2 408.8 260.8C401 269.1 388.6 270.6 379.2 265L334.6 398.7C350 395.9 363.9 388.6 374.9 378.2C384.5 369.1 399.7 369.5 408.8 379.2C417.9 388.9 417.5 404 407.8 413.1C384.9 434.7 353.9 448 319.9 448C319.3 448 318.7 448 318.1 448L311.1 469.1C308.3 477.5 299.2 482 290.9 479.2C282.6 476.4 278 467.3 280.8 459L286 443.5C276.6 440.9 267.7 437.3 259.3 432.8L247.2 469.1C244.4 477.5 235.3 482 227 479.2C218.7 476.4 214.1 467.3 216.9 459L232.2 413.1C207.4 389.7 192 356.7 192 320zM240 320C240 334.2 243.7 347.5 250.1 359L287.5 246.9C259.5 259.4 240 287.4 240 320zM274.9 386C282.8 391.4 291.7 395.4 301.3 397.7L351.7 246.4C343 242.7 333.5 240.4 323.6 240L274.9 386z"/><path fill="currentColor" d="M320 112C434.9 112 528 205.1 528 320C528 434.9 434.9 528 320 528C205.1 528 112 434.9 112 320C112 205.1 205.1 112 320 112zM320 576C461.4 576 576 461.4 576 320C576 178.6 461.4 64 320 64C178.6 64 64 178.6 64 320C64 461.4 178.6 576 320 576zM343.2 181.1C346 172.7 341.5 163.7 333.1 160.9C324.7 158.1 315.7 162.6 312.9 171L305.6 192.9C241.7 200.1 192.1 254.3 192.1 320.1C192.1 356.8 207.5 389.8 232.2 413.2L216.9 459.1C214.1 467.5 218.6 476.5 227 479.3C235.4 482.1 244.4 477.6 247.2 469.2L259.3 432.9C267.7 437.4 276.6 441 286 443.6L280.8 459.1C278 467.5 282.5 476.5 290.9 479.3C299.3 482.1 308.3 477.6 311.1 469.2L318.1 448.1C318.7 448.1 319.3 448.1 319.9 448.1C353.9 448.1 384.9 434.8 407.8 413.2C417.4 404.1 417.9 388.9 408.8 379.3C399.7 369.7 384.5 369.2 374.9 378.3C363.9 388.7 350.1 395.9 334.6 398.8L379.2 265C388.6 270.6 401 269.1 408.8 260.8C417.9 251.2 417.5 236 407.8 226.9C403.9 223.2 399.7 219.7 395.3 216.5L407.1 181C409.9 172.6 405.4 163.6 397 160.8C388.6 158 379.6 162.5 376.8 170.9L366.8 200.8C358 197.3 348.7 194.8 339 193.4L343.1 181zM351.7 246.5L301.2 397.8C291.6 395.5 282.7 391.5 274.8 386.1L323.5 240.1C333.5 240.5 342.9 242.8 351.6 246.5zM287.6 246.9L250.1 359C243.6 347.5 240 334.2 240 320C240 287.4 259.5 259.3 287.5 246.9z"/></svg>