<svg xmlns="http://www.w3.org/2000/svg" viewBox="0 0 640 640"><!--! Font Awesome Pro 7.2.0 by @fontawesome - https://fontawesome.com License - https://fontawesome.com/license (Commercial License) Copyright 2026 Fonticons, Inc. --><path opacity=".4" fill="currentColor" d="M112 320C112 434.9 205.1 528 320 528C434.9 528 528 434.9 528 320C528 205.1 434.9 112 320 112C205.1 112 112 205.1 112 320zM240 391.6C240 355.4 262.1 322.9 295.8 309.7L340.5 292.1C347.4 289.4 351.9 282.7 351.9 275.3C351.9 265.3 343.8 257.3 333.9 257.3L271.9 257.3C258.6 257.3 247.9 246.6 247.9 233.3C247.9 220 258.6 209.3 271.9 209.3L333.9 209.3C370.4 209.3 399.9 238.9 399.9 275.3C399.9 302.4 383.3 326.8 358 336.7L313.3 354.3C300.4 359.4 291.2 370.6 288.7 383.9L368 383.9C381.3 383.9 392 394.6 392 407.9C392 421.2 381.3 431.9 368 431.9L264 431.9C250.7 431.9 240 421.2 240 407.9L240 391.5z"/><path fill="currentColor" d="M320 112C434.9 112 528 205.1 528 320C528 434.9 434.9 528 320 528C205.1 528 112 434.9 112 320C112 205.1 205.1 112 320 112zM320 576C461.4 576 576 461.4 576 320C576 178.6 461.4 64 320 64C178.6 64 64 178.6 64 320C64 461.4 178.6 576 320 576zM272 209.3C258.7 209.3 248 220 248 233.3C248 246.6 258.7 257.3 272 257.3L334 257.3C344 257.3 352 265.4 352 275.3C352 282.7 347.5 289.4 340.6 292.1L295.9 309.7C262.2 322.9 240.1 355.4 240.1 391.6L240.1 408C240.1 421.3 250.8 432 264.1 432L368.1 432C381.4 432 392.1 421.3 392.1 408C392.1 394.7 381.4 384 368.1 384L288.8 384C291.4 370.7 300.5 359.5 313.4 354.4L358.1 336.8C383.4 326.9 400 302.5 400 275.4C400 238.9 370.4 209.4 334 209.4L272 209.4z"/></svg>