<svg xmlns="http://www.w3.org/2000/svg" viewBox="0 0 640 640"><!--! Font Awesome Pro 7.2.0 by @fontawesome - https://fontawesome.com License - https://fontawesome.com/license (Commercial License) Copyright 2026 Fonticons, Inc. --><path opacity=".4" fill="currentColor" d="M179.4 414.6C197.2 427.9 217.7 437.8 240 443.3L240 354L179.4 414.6zM272 336L272 447.8C274.7 447.9 277.3 448 280 448C320.6 448 357.9 433.6 386.9 409.6L304.5 327.2C294.5 333.1 283.2 336.1 272 336.1zM327.1 304.5L409.5 386.9C433.5 357.8 447.9 320.6 447.9 280C447.9 277.3 447.8 274.7 447.7 272L336 272C336 283.3 333 294.5 327.1 304.5zM353.9 240L443.2 240C437.8 217.7 427.9 197.2 414.5 179.4L353.9 240z"/><path fill="currentColor" d="M71 455C66.5 459.5 64 465.6 64 472C64 478.4 66.5 484.5 71 489C186.6 604.6 373.6 605 489.3 489.3C605 373.6 604.5 186.6 489 71C479.6 61.6 464.4 61.6 455.1 71L71 455zM455.3 455.3C364.2 546.4 220.1 551.5 122.7 471.1L145.1 448.7C182.1 478.3 228.9 495.9 279.9 495.9C399.2 495.9 495.9 399.2 495.9 279.9C495.9 228.9 478.2 182 448.7 145.1L471.1 122.7C551.5 220.1 546.4 364.2 455.3 455.3zM414.5 179.3C427.8 197.1 437.7 217.6 443.2 239.9L353.9 239.9L414.5 179.3zM336 272L447.8 272C447.9 274.7 448 277.3 448 280C448 320.6 433.6 357.9 409.6 386.9L327.2 304.5C333.1 294.5 336.1 283.2 336.1 272zM304.5 327.1L386.9 409.5C357.8 433.5 320.6 447.9 280 447.9C277.3 447.9 274.7 447.8 272 447.7L272 336C283.3 336 294.5 333 304.5 327.1zM179.4 414.6L240 354L240 443.3C217.7 437.9 197.2 428 179.4 414.6z"/></svg>