<svg xmlns="http://www.w3.org/2000/svg" viewBox="0 0 640 640"><!--! Font Awesome Pro 7.2.0 by @fontawesome - https://fontawesome.com License - https://fontawesome.com/license (Commercial License) Copyright 2026 Fonticons, Inc. --><path opacity=".4" fill="currentColor" d="M80 224L80 512C80 520.8 87.2 528 96 528L242 528C240.7 522.9 240 517.5 240 512L240 208L96 208C87.2 208 80 215.2 80 224zM128 272C128 263.2 135.2 256 144 256L176 256C184.8 256 192 263.2 192 272L192 304C192 312.8 184.8 320 176 320L144 320C135.2 320 128 312.8 128 304L128 272zM128 368C128 359.2 135.2 352 144 352L176 352C184.8 352 192 359.2 192 368L192 400C192 408.8 184.8 416 176 416L144 416C135.2 416 128 408.8 128 400L128 368zM288 128L288 512C288 520.8 295.2 528 304 528L544 528C552.8 528 560 520.8 560 512L560 320C560 311.2 552.8 304 544 304L472 304C458.7 304 448 293.3 448 280L448 128C448 119.2 440.8 112 432 112L304 112C295.2 112 288 119.2 288 128zM336 176C336 167.2 343.2 160 352 160L384 160C392.8 160 400 167.2 400 176L400 208C400 216.8 392.8 224 384 224L352 224C343.2 224 336 216.8 336 208L336 176zM336 272C336 263.2 343.2 256 352 256L384 256C392.8 256 400 263.2 400 272L400 304C400 312.8 392.8 320 384 320L352 320C343.2 320 336 312.8 336 304L336 272zM336 368C336 359.2 343.2 352 352 352L384 352C392.8 352 400 359.2 400 368L400 400C400 408.8 392.8 416 384 416L352 416C343.2 416 336 408.8 336 400L336 368zM448 368C448 359.2 455.2 352 464 352L496 352C504.8 352 512 359.2 512 368L512 400C512 408.8 504.8 416 496 416L464 416C455.2 416 448 408.8 448 400L448 368z"/><path fill="currentColor" d="M304 112L432 112C440.8 112 448 119.2 448 128L448 280C448 293.3 458.7 304 472 304L544 304C552.8 304 560 311.2 560 320L560 512C560 520.8 552.8 528 544 528L304 528C295.2 528 288 520.8 288 512L288 128C288 119.2 295.2 112 304 112zM240 512C240 517.5 240.7 522.9 242 528L96 528C87.2 528 80 520.8 80 512L80 224C80 215.2 87.2 208 96 208L240 208L240 512zM240 128L240 160L208 160L208 88C208 74.7 197.3 64 184 64C170.7 64 160 74.7 160 88L160 160L128 160L128 88C128 74.7 117.3 64 104 64C90.7 64 80 74.7 80 88L80 162C52.4 169.1 32 194.2 32 224L32 512C32 547.3 60.7 576 96 576L544 576C579.3 576 608 547.3 608 512L608 320C608 284.7 579.3 256 544 256L496 256L496 128C496 92.7 467.3 64 432 64L304 64C268.7 64 240 92.7 240 128zM336 176L336 208C336 216.8 343.2 224 352 224L384 224C392.8 224 400 216.8 400 208L400 176C400 167.2 392.8 160 384 160L352 160C343.2 160 336 167.2 336 176zM464 352C455.2 352 448 359.2 448 368L448 400C448 408.8 455.2 416 464 416L496 416C504.8 416 512 408.8 512 400L512 368C512 359.2 504.8 352 496 352L464 352zM336 272L336 304C336 312.8 343.2 320 352 320L384 320C392.8 320 400 312.8 400 304L400 272C400 263.2 392.8 256 384 256L352 256C343.2 256 336 263.2 336 272zM144 256C135.2 256 128 263.2 128 272L128 304C128 312.8 135.2 320 144 320L176 320C184.8 320 192 312.8 192 304L192 272C192 263.2 184.8 256 176 256L144 256zM336 368L336 400C336 408.8 343.2 416 352 416L384 416C392.8 416 400 408.8 400 400L400 368C400 359.2 392.8 352 384 352L352 352C343.2 352 336 359.2 336 368zM144 352C135.2 352 128 359.2 128 368L128 400C128 408.8 135.2 416 144 416L176 416C184.8 416 192 408.8 192 400L192 368C192 359.2 184.8 352 176 352L144 352z"/></svg>