<svg xmlns="http://www.w3.org/2000/svg" viewBox="0 0 640 640"><!--! Font Awesome Pro 7.2.0 by @fontawesome - https://fontawesome.com License - https://fontawesome.com/license (Commercial License) Copyright 2026 Fonticons, Inc. --><path opacity=".4" fill="currentColor" d="M176 160L176 512C176 520.8 183.2 528 192 528L448 528C456.8 528 464 520.8 464 512L464 160C464 151.2 456.8 144 448 144L431.6 144C427.6 180 397.1 208 360 208L280 208C242.9 208 212.4 180 208.4 144L192 144C183.2 144 176 151.2 176 160zM288 456C288 438.3 302.3 424 320 424C337.7 424 352 438.3 352 456C352 473.7 337.7 488 320 488C302.3 488 288 473.7 288 456zM288.8 282C287.3 263.7 301.7 248 320 248C338.3 248 352.8 263.7 351.3 282L344 370C343 382.4 332.6 392 320.1 392C307.6 392 297.2 382.4 296.2 370L288.9 282z"/><path fill="currentColor" d="M360 64C385 64 407 76.7 419.9 96L448 96C483.3 96 512 124.7 512 160L512 512C512 547.3 483.3 576 448 576L192 576C156.7 576 128 547.3 128 512L128 160C128 124.7 156.7 96 192 96L220.1 96C233 76.7 255 64 280 64L360 64zM192 144C183.2 144 176 151.2 176 160L176 512C176 520.8 183.2 528 192 528L448 528C456.8 528 464 520.8 464 512L464 160C464 151.2 456.8 144 448 144L431.6 144C427.6 180 397.1 208 360 208L280 208C242.9 208 212.4 180 208.4 144L192 144zM320 424C337.7 424 352 438.3 352 456C352 473.7 337.7 488 320 488C302.3 488 288 473.7 288 456C288 438.3 302.3 424 320 424zM320 248C338.3 248 352.8 263.7 351.3 282L344 370C343 382.4 332.6 392 320.1 392C307.6 392 297.2 382.4 296.2 370L288.9 282C287.4 263.7 301.8 248 320.1 248zM280 112C266.7 112 256 122.7 256 136C256 149.3 266.7 160 280 160L360 160C373.3 160 384 149.3 384 136C384 122.7 373.3 112 360 112L280 112z"/></svg>