<svg xmlns="http://www.w3.org/2000/svg" viewBox="0 0 640 640"><!--! Font Awesome Pro 7.2.0 by @fontawesome - https://fontawesome.com License - https://fontawesome.com/license (Commercial License) Copyright 2026 Fonticons, Inc. --><path opacity=".4" fill="currentColor" d="M112 280C112 252.6 131.8 229.7 157.9 224.9C170.9 222.5 179.6 210 177.2 197C176.4 192.8 176 188.5 176 184C176 144.2 208.2 112 248 112C276.9 112 301.9 129.1 313.4 153.8C316.7 160.9 323.3 166 331 167.4C338.7 168.8 346.7 166.2 352.2 160.6C362.4 150.3 376.4 144 392 144C422.9 144 448 169.1 448 200C448 213.3 458.7 224 472 224C502.9 224 528 249.1 528 280C528 310.9 502.9 336 472 336L412.8 336C401.6 330.3 389 327.5 376.3 327.9C362.1 312.8 342.1 304 320.9 304L318.9 304C297.8 304 277.8 312.8 263.5 327.9C250.8 327.5 238.3 330.3 227 336L168 336C137.1 336 112 310.9 112 280z"/><path fill="currentColor" d="M248 112C208.2 112 176 144.2 176 184C176 188.5 176.4 192.8 177.2 197C179.6 210 170.9 222.5 157.9 224.9C131.8 229.7 112 252.5 112 280C112 310.9 137.1 336 168 336L227.2 336C220 339.6 213.4 344.3 207.6 350.2L206.2 351.6C197 360.8 190.5 372 187 384L168 384C110.6 384 64 337.4 64 280C64 236.7 90.4 199.7 128 184C128 117.7 181.7 64 248 64C285.9 64 319.7 81.6 341.7 109C356.6 100.7 373.8 96 392 96C442 96 483.7 131.3 493.7 178.3C540.7 188.3 576 230 576 280C576 337.4 529.4 384 472 384L453.1 384C449.6 371.9 443 360.7 433.9 351.6L432.5 350.2C426.7 344.4 420.1 339.6 412.9 336L472.1 336C503 336 528.1 310.9 528.1 280C528.1 249.1 503 224 472.1 224C458.8 224 448.1 213.3 448.1 200C448.1 169.1 423 144 392.1 144C376.5 144 362.5 150.3 352.3 160.6C346.8 166.2 338.9 168.7 331.1 167.4C323.3 166.1 316.8 161 313.5 153.8C301.9 129.1 276.9 112 248 112zM220.5 488.3C212.7 483.1 208 474.3 208 465L208 463C208 453.6 212.7 444.9 220.5 439.7C230 433.4 234.7 422 232.4 410.9C230.6 401.7 233.4 392.2 240.1 385.6L241.5 384.2C248.1 377.6 257.6 374.7 266.8 376.5C277.9 378.7 289.3 374 295.6 364.6C300.8 356.8 309.6 352.1 318.9 352.1L320.9 352.1C330.3 352.1 339 356.8 344.2 364.6C350.5 374.1 361.9 378.8 373 376.5C382.2 374.7 391.7 377.5 398.3 384.2L399.7 385.6C406.3 392.2 409.2 401.7 407.4 410.9C405.2 422 409.9 433.4 419.3 439.7C427.1 444.9 431.8 453.7 431.8 463L431.8 465C431.8 474.4 427.1 483.1 419.3 488.3C409.8 494.6 405.1 506 407.4 517.1C409.2 526.3 406.4 535.8 399.7 542.4L398.3 543.8C391.7 550.4 382.2 553.3 373 551.5C361.9 549.3 350.5 554 344.2 563.4C339 571.2 330.2 575.9 320.9 575.9L318.9 575.9C309.5 575.9 300.8 571.2 295.6 563.4C289.3 553.9 277.9 549.2 266.8 551.5C257.6 553.3 248.1 550.5 241.5 543.8L240.1 542.4C233.5 535.8 230.6 526.3 232.4 517.1C234.6 506 229.9 494.6 220.5 488.3zM112 416C138.5 416 160 437.5 160 464C160 490.5 138.5 512 112 512C85.5 512 64 490.5 64 464C64 437.5 85.5 416 112 416zM528 416C554.5 416 576 437.5 576 464C576 490.5 554.5 512 528 512C501.5 512 480 490.5 480 464C480 437.5 501.5 416 528 416z"/></svg>