<svg xmlns="http://www.w3.org/2000/svg" viewBox="0 0 640 640"><!--! Font Awesome Pro 7.2.0 by @fontawesome - https://fontawesome.com License - https://fontawesome.com/license (Commercial License) Copyright 2026 Fonticons, Inc. --><path opacity=".4" fill="currentColor" d="M80 400C80 453 123 496 176 496L480 496C524.2 496 560 460.2 560 416C560 378.5 534.2 347 499.4 338.3C491.9 336.4 485.8 331.1 482.9 324C480 316.9 480.8 308.7 484.9 302.2C491.9 291 496.1 278 496.1 264C496.1 224.2 463.9 192 424.1 192C413.1 192 402.7 194.5 393.3 199C382.8 204 370.2 200.7 363.4 191.2C343.1 162.6 309.7 144 272.1 144C210.2 144 160.1 194.1 160.1 256C160.1 264.4 161.1 272.6 162.8 280.5C165.5 292.6 158.5 304.8 146.7 308.6C108 321 80.1 357.3 80.1 400zM230.8 389.5C221.6 380 221.8 364.8 231.4 355.6C241 346.4 256.1 346.7 265.3 356.2L291.8 383.6L377.4 265.9C385.2 255.2 400.2 252.8 410.9 260.6C421.6 268.4 424 283.4 416.2 294.1L313.8 434.9C309.6 440.6 303.1 444.3 296 444.7C288.9 445.1 282 442.5 277.1 437.4L230.7 389.4z"/><path fill="currentColor" d="M272 96C319.1 96 361.4 116.4 390.7 148.8C401.3 145.7 412.5 144 424 144C490.3 144 544 197.7 544 264C544 277.3 541.7 290 537.8 301.8C579.5 322.9 608 366 608 416C608 486.7 550.7 544 480 544L176 544C96.5 544 32 479.5 32 400C32 343.2 64.9 294.1 112.7 270.7C112.3 265.9 112 261 112 256C112 167.6 183.6 96 272 96zM272 144C210.1 144 160 194.1 160 256C160 264.4 161 272.6 162.7 280.5C165.4 292.6 158.4 304.8 146.6 308.6C107.9 321 80 357.3 80 400C80 453 123 496 176 496L480 496C524.2 496 560 460.2 560 416C560 378.5 534.2 347 499.4 338.3C491.9 336.4 485.8 331.1 482.9 324C480 316.9 480.8 308.7 484.9 302.2C491.9 291 496.1 278 496.1 264C496.1 224.2 463.9 192 424.1 192C413.1 192 402.7 194.5 393.3 199C382.8 204 370.2 200.7 363.4 191.2C343.1 162.6 309.7 144 272.1 144zM377.4 265.9C385.2 255.2 400.2 252.8 410.9 260.6C421.6 268.4 424 283.4 416.2 294.1L313.8 434.9C309.6 440.6 303.1 444.3 296 444.7C288.9 445.1 282 442.5 277.1 437.4L230.7 389.4C221.5 379.9 221.7 364.7 231.3 355.5C240.9 346.3 256 346.6 265.2 356.1L291.7 383.5L377.3 265.8z"/></svg>