<svg xmlns="http://www.w3.org/2000/svg" viewBox="0 0 640 640"><!--! Font Awesome Pro 7.2.0 by @fontawesome - https://fontawesome.com License - https://fontawesome.com/license (Commercial License) Copyright 2026 Fonticons, Inc. --><path opacity=".4" fill="currentColor" d="M130 266.8L130 269.6L130.2 272.8C130.9 280.2 134.2 287.2 139.5 292.5L150 303L153 306.7C155.6 310.6 157 315.2 157 320C157 324.8 155.6 329.4 153 333.3L150 337L139.5 347.5C133.4 353.6 130 361.8 130 370.4L130 373.2L130.2 376.2C131.7 391.1 144.3 402.8 159.7 402.8C167.1 402.8 174.4 400.9 180.8 397.3L248.6 359.1L252.2 357.4C260.8 354.3 270.7 356.3 277.3 363C283.9 369.7 286 379.5 282.9 388.1L281.2 391.7L243 459.5C239.4 465.9 237.5 473.2 237.5 480.6C237.5 497 250.8 510.2 267.1 510.2L269.9 510.2C278.5 510.2 286.8 506.8 292.8 500.7L303.3 490.2L307 487.2C310.9 484.6 315.5 483.2 320.3 483.2C326.7 483.2 332.8 485.7 337.3 490.2L347.8 500.7L350.2 502.9C356 507.6 363.2 510.2 370.7 510.2L373.5 510.2C389.9 510.2 403.1 496.9 403.1 480.6C403.1 473.2 401.2 465.9 397.6 459.5L359.4 391.7C354.1 382.3 355.7 370.6 363.3 362.9C370.9 355.2 382.7 353.7 392.1 359L459.9 397.2C466.3 400.8 473.6 402.7 481 402.7C497.4 402.7 510.6 389.4 510.6 373.1L510.6 370.3C510.6 362.8 508 355.5 503.3 349.8L501.1 347.4L490.6 336.9C486.1 332.4 483.6 326.3 483.6 319.9C483.6 313.5 486.1 307.4 490.6 302.9L501.1 292.4L503.3 290C508 284.2 510.6 277 510.6 269.4L510.6 266.4C510.6 250.1 497.4 237 481.2 237C475.6 237 470.1 238.1 465 240.2L460 242.6L393.7 280.6C384.4 285.9 372.6 284.4 364.9 276.9C357.2 269.4 355.5 257.7 360.7 248.2L397.9 180.3L400.2 175.4C402.2 170.3 403.2 164.9 403.2 159.5C403.2 143 389.8 129.6 373.3 129.6L370.8 129.6C363.3 129.6 356 132.2 350.3 136.9L347.9 139.1L337.4 149.6C332.9 154.1 326.8 156.6 320.4 156.6C314 156.6 307.9 154.1 303.4 149.6L292.8 139.2C286.7 133.1 278.5 129.7 269.9 129.7L267.1 129.7C250.7 129.7 237.5 143 237.5 159.3C237.5 166.7 239.4 174 243 180.4L281.2 248.2L282.9 251.8C286 260.4 284 270.3 277.3 276.9C269.7 284.5 257.9 286.1 248.6 280.8L180.8 242.6C174.4 239 167.1 237.1 159.7 237.1C143.3 237.1 130.1 250.4 130.1 266.7z"/><path fill="currentColor" d="M269.9 81.7C288.3 81.7 306.1 88.1 320.3 99.5C334.5 88 352.3 81.7 370.7 81.7L373.2 81.7C416.2 81.7 451.1 116.6 451.1 159.6C451.1 172.7 448.2 185.7 442.8 197.6C454.8 192 467.9 189.1 481.1 189.1C523.9 189.1 558.5 223.8 558.5 266.5L558.5 269.5C558.5 287.9 552.2 305.7 540.7 319.9C552.1 334.1 558.5 351.9 558.5 370.3L558.5 373.1C558.5 416 523.7 450.7 480.9 450.7C467.6 450.7 454.5 447.7 442.5 442.2C448.1 454.2 451 467.3 451 480.6C451 523.5 416.2 558.2 373.4 558.2L370.6 558.2C352.2 558.2 334.4 551.9 320.2 540.4C306 551.8 288.2 558.2 269.8 558.2L267 558.2C224.1 558.2 189.4 523.4 189.4 480.6C189.4 467.3 192.3 454.2 197.9 442.2C185.9 447.8 172.8 450.7 159.5 450.7C119.3 450.7 86.3 420.2 82.3 381L81.9 373.1L81.9 370.3C81.9 351.9 88.3 334.1 99.7 319.9C89.9 307.7 83.8 293 82.3 277.5L81.9 269.5L81.9 266.7C81.9 223.8 116.7 189.1 159.5 189.1C172.8 189.1 185.9 192.1 197.9 197.6C192.3 185.6 189.4 172.5 189.4 159.2C189.4 116.3 224.2 81.6 267 81.6L269.8 81.6zM267.1 129.7C250.7 129.7 237.5 143 237.5 159.3C237.5 166.7 239.4 174 243 180.4L281.2 248.2L282.9 251.8C286 260.4 284 270.3 277.3 276.9C269.7 284.5 257.9 286.1 248.6 280.8L180.8 242.6C174.4 239 167.1 237.1 159.7 237.1C143.3 237.1 130.1 250.4 130.1 266.7L130.1 269.5L130.3 272.7C131 280.1 134.3 287.1 139.6 292.4L150 303L153 306.7C155.6 310.6 157 315.2 157 320C157 324.8 155.6 329.4 153 333.3L150 337L139.5 347.5C133.4 353.6 130 361.8 130 370.4L130 373.2L130.2 376.2C131.7 391.1 144.3 402.8 159.7 402.8C167.1 402.8 174.4 400.9 180.8 397.3L248.6 359.1L252.2 357.4C260.8 354.3 270.7 356.3 277.3 363C283.9 369.7 286 379.5 282.9 388.1L281.2 391.7L243 459.5C239.4 465.9 237.5 473.2 237.5 480.6C237.5 497 250.8 510.2 267.1 510.2L269.9 510.2C278.5 510.2 286.8 506.8 292.8 500.7L303.3 490.2L307 487.2C310.9 484.6 315.5 483.2 320.3 483.2C326.7 483.2 332.8 485.7 337.3 490.2L347.8 500.7L350.2 502.9C356 507.6 363.2 510.2 370.7 510.2L373.5 510.2C389.9 510.2 403.1 496.9 403.1 480.6C403.1 473.2 401.2 465.9 397.6 459.5L359.4 391.7C354.1 382.3 355.7 370.6 363.3 362.9C370.9 355.2 382.7 353.7 392.1 359L459.9 397.2C466.3 400.8 473.6 402.7 481 402.7C497.4 402.7 510.6 389.4 510.6 373.1L510.6 370.3C510.6 362.8 508 355.5 503.3 349.8L501.1 347.4L490.6 336.9C486.1 332.4 483.6 326.3 483.6 319.9C483.6 313.5 486.1 307.4 490.6 302.9L501.1 292.4L503.3 290C508 284.2 510.6 277 510.6 269.4L510.6 266.4C510.6 250.1 497.4 237 481.2 237C475.6 237 470.1 238.1 465 240.2L460 242.6L393.7 280.6C384.4 285.9 372.6 284.4 364.9 276.9C357.2 269.4 355.5 257.7 360.7 248.2L397.9 180.3L400.2 175.4C402.2 170.3 403.2 164.9 403.2 159.5C403.2 143 389.8 129.6 373.3 129.6L370.8 129.6C363.3 129.6 356 132.2 350.3 136.9L347.9 139.1L337.4 149.6C332.9 154.1 326.8 156.6 320.4 156.6C314 156.6 307.9 154.1 303.4 149.6L292.8 139.2C286.7 133.1 278.5 129.7 269.9 129.7L267.1 129.7z"/></svg>