<svg xmlns="http://www.w3.org/2000/svg" viewBox="0 0 640 640"><!--! Font Awesome Pro 7.2.0 by @fontawesome - https://fontawesome.com License - https://fontawesome.com/license (Commercial License) Copyright 2026 Fonticons, Inc. --><path opacity=".4" fill="currentColor" d="M176 144C176 161.7 190.3 176 208 176C225.7 176 240 161.7 240 144C240 126.3 225.7 112 208 112C190.3 112 176 126.3 176 144zM176 496C176 513.7 190.3 528 208 528C225.7 528 240 513.7 240 496C240 478.3 225.7 464 208 464C190.3 464 176 478.3 176 496zM400 496C400 513.7 414.3 528 432 528C449.7 528 464 513.7 464 496C464 478.3 449.7 464 432 464C414.3 464 400 478.3 400 496z"/><path fill="currentColor" d="M240 144C240 126.3 225.7 112 208 112C190.3 112 176 126.3 176 144C176 161.7 190.3 176 208 176C225.7 176 240 161.7 240 144zM288 144C288 179.8 264.5 210.1 232 220.3L232 419.6C264.5 429.8 288 460.1 288 495.9C288 540.1 252.2 575.9 208 575.9C163.8 575.9 128 540.2 128 496C128 460.2 151.5 429.9 184 419.7L184 220.4C151.5 210.1 128 179.8 128 144C128 99.8 163.8 64 208 64C252.2 64 288 99.8 288 144zM208 528C225.7 528 240 513.7 240 496C240 478.3 225.7 464 208 464C190.3 464 176 478.3 176 496C176 513.7 190.3 528 208 528zM432 528C449.7 528 464 513.7 464 496C464 478.3 449.7 464 432 464C414.3 464 400 478.3 400 496C400 513.7 414.3 528 432 528zM432 576C387.8 576 352 540.2 352 496C352 460.2 375.5 429.9 408 419.7L408 280C408 266.7 418.7 256 432 256C445.3 256 456 266.7 456 280L456 419.7C488.5 429.9 512 460.2 512 496C512 540.2 476.2 576 432 576zM359 71C368.4 61.6 383.6 61.6 392.9 71L431.9 110L470.9 71C480.3 61.6 495.5 61.6 504.8 71C514.1 80.4 514.2 95.6 504.8 104.9L465.8 143.9L504.8 182.9C514.2 192.3 514.2 207.5 504.8 216.8C495.4 226.1 480.2 226.2 470.9 216.8L431.9 177.8L392.9 216.8C383.5 226.2 368.3 226.2 359 216.8C349.7 207.4 349.6 192.2 359 182.9L398 143.9L359 104.9C349.6 95.5 349.6 80.3 359 71z"/></svg>