<svg xmlns="http://www.w3.org/2000/svg" viewBox="0 0 640 640"><!--! Font Awesome Pro 7.2.0 by @fontawesome - https://fontawesome.com License - https://fontawesome.com/license (Commercial License) Copyright 2026 Fonticons, Inc. --><path opacity=".4" fill="currentColor" d="M144.6 375.8C140.7 324 161.1 263.1 212.1 212.1C295.8 128.4 405.9 127 459.4 180.6C467.5 188.7 474.4 198.1 479.9 208.6L460.2 231.5C425.1 272.4 373.9 296 319.9 296C252.6 296 188.7 325.1 144.5 375.8zM160.1 431.5L179.7 408.6C214.8 367.7 266 344.1 320 344.1C387.3 344.1 451.2 315 495.4 264.3C499.3 316.1 478.9 377 427.9 428C344.2 511.7 234.1 513.1 180.6 459.5C172.5 451.4 165.6 441.9 160.1 431.5z"/><path fill="currentColor" d="M160.1 431.4L179.7 408.5C214.8 367.6 266 344 320 344C387.3 344 451.2 314.9 495.4 264.2C499.3 316 478.9 376.9 427.9 427.9C344.2 511.6 234.1 513 180.6 459.4C172.5 451.3 165.6 441.8 160.1 431.4zM144.6 375.8C140.7 324 161.1 263.1 212.1 212.1C295.8 128.4 405.9 127 459.4 180.6C467.5 188.7 474.4 198.1 479.9 208.6L460.2 231.5C425.1 272.4 373.9 296 319.9 296C252.6 296 188.7 325.1 144.5 375.8zM178.2 178.2C82.4 273.9 68.3 415 146.6 493.4C224.9 571.8 366.1 557.6 461.8 461.8C557.5 366 571.7 225 493.4 146.6C415.1 68.2 273.9 82.4 178.2 178.2z"/></svg>