<svg xmlns="http://www.w3.org/2000/svg" viewBox="0 0 640 640"><!--! Font Awesome Pro 7.2.0 by @fontawesome - https://fontawesome.com License - https://fontawesome.com/license (Commercial License) Copyright 2026 Fonticons, Inc. --><path opacity=".4" fill="currentColor" d="M112 304C112 346.8 127.1 386.4 153.2 418.7C165.4 433.8 167.3 454.8 158 471.9L140 505L198.5 479.9C210.3 474.8 223.7 474.7 235.6 479.6C261.3 490.1 289.8 496 319.9 496C437.7 496 527.9 407.2 527.9 304C527.9 200.8 437.8 112 320 112C202.2 112 112 200.8 112 304zM231 359L334 256L279.9 256C266.6 256 255.9 245.3 255.9 232C255.9 218.7 266.6 208 279.9 208L391.9 208C405.2 208 415.9 218.7 415.9 232L415.9 344C415.9 357.3 405.2 368 391.9 368C378.6 368 367.9 357.3 367.9 344L367.9 289.9L264.9 392.9C255.5 402.3 240.3 402.3 231 392.9C221.7 383.5 221.6 368.3 231 359z"/><path fill="currentColor" d="M64 304C64 358.4 83.3 408.6 115.9 448.9L67.1 538.3C65.1 542 64 546.2 64 550.5C64 564.6 75.4 576 89.5 576C93.5 576 97.3 575.4 101 573.9L217.4 524C248.8 536.9 283.5 544 320 544C461.4 544 576 436.5 576 304C576 171.5 461.4 64 320 64C178.6 64 64 171.5 64 304zM158 471.9C167.3 454.8 165.4 433.8 153.2 418.7C127.1 386.4 112 346.8 112 304C112 200.8 202.2 112 320 112C437.8 112 528 200.8 528 304C528 407.2 437.8 496 320 496C289.8 496 261.3 490.1 235.7 479.6C223.8 474.7 210.4 474.8 198.6 479.9L140 504.9L158 471.9zM368 344C368 357.3 378.7 368 392 368C405.3 368 416 357.3 416 344L416 232C416 218.7 405.3 208 392 208L280 208C266.7 208 256 218.7 256 232C256 245.3 266.7 256 280 256L334.1 256L231.1 359C221.7 368.4 221.7 383.6 231.1 392.9C240.5 402.2 255.7 402.3 265 392.9L368 289.9L368 344z"/></svg>