<svg xmlns="http://www.w3.org/2000/svg" viewBox="0 0 640 640"><!--! Font Awesome Pro 7.2.0 by @fontawesome - https://fontawesome.com License - https://fontawesome.com/license (Commercial License) Copyright 2026 Fonticons, Inc. --><path opacity=".4" fill="currentColor" d="M112 304C112 200.8 202.2 112 320 112C437.8 112 528 200.8 528 304C528 315.1 526.9 326.1 524.9 336.8C522.4 337.2 519.9 337.7 517.4 338.4C504.7 317.8 482 304 456 304C424.3 304 397.4 324.5 387.8 353C384 352.4 380 352 376 352C336.2 352 304 384.2 304 424L304 495.4C279.7 493.7 256.7 488.2 235.7 479.5C223.8 474.6 210.4 474.7 198.6 479.8L140.1 504.9L158.1 471.8C167.4 454.7 165.5 433.7 153.3 418.6C127.2 386.3 112.1 346.7 112.1 303.9z"/><path fill="currentColor" d="M115.9 448.9C83.3 408.6 64 358.4 64 304C64 171.5 178.6 64 320 64C461.4 64 576 171.5 576 304C576 318.2 574.7 332.2 572.1 345.7C561.5 339.5 549.1 336 536 336C532.2 336 528.5 336.3 524.9 336.8C526.9 326.1 528 315.1 528 304C528 200.8 437.8 112 320 112C202.2 112 112 200.8 112 304C112 346.8 127.1 386.4 153.2 418.7C165.4 433.8 167.3 454.8 158 471.9L140 505L198.5 479.9C210.3 474.8 223.7 474.7 235.6 479.6C256.7 488.3 279.7 493.8 303.9 495.5L303.9 536.1C303.9 538.7 304 541.2 304.3 543.7C273.5 542 244.2 535.1 217.3 524.1L101 573.9C97.3 575.5 93.5 576 89.5 576C75.4 576 64 564.6 64 550.5C64 546.2 65.1 542 67.1 538.3L115.9 448.9zM480 376L480 584C480 597.3 469.3 608 456 608C442.7 608 432 597.3 432 584L432 376C432 362.7 442.7 352 456 352C469.3 352 480 362.7 480 376zM560 408L560 552C560 565.3 549.3 576 536 576C522.7 576 512 565.3 512 552L512 408C512 394.7 522.7 384 536 384C549.3 384 560 394.7 560 408zM400 424L400 536C400 549.3 389.3 560 376 560C362.7 560 352 549.3 352 536L352 424C352 410.7 362.7 400 376 400C389.3 400 400 410.7 400 424zM640 456L640 504C640 517.3 629.3 528 616 528C602.7 528 592 517.3 592 504L592 456C592 442.7 602.7 432 616 432C629.3 432 640 442.7 640 456z"/></svg>