<svg xmlns="http://www.w3.org/2000/svg" viewBox="0 0 640 640"><!--! Font Awesome Pro 7.2.0 by @fontawesome - https://fontawesome.com License - https://fontawesome.com/license (Commercial License) Copyright 2026 Fonticons, Inc. --><path opacity=".4" fill="currentColor" d="M112 192L112 416C112 442.5 133.5 464 160 464L216 464C226.4 464 235.3 470.6 238.6 479.9C239.5 482.4 240 485.1 240 488L240 537.7C272.7 514.6 303.3 493 331.9 472.8C340 467.1 349.7 464 359.6 464L480 464C506.5 464 528 442.5 528 416L528 192C528 165.5 506.5 144 480 144L160 144C133.5 144 112 165.5 112 192zM160 296C160 282.7 170.7 272 184 272L312 272C325.3 272 336 282.7 336 296C336 309.3 325.3 320 312 320L184 320C170.7 320 160 309.3 160 296zM160 392C160 378.7 170.7 368 184 368L232 368C245.3 368 256 378.7 256 392C256 405.3 245.3 416 232 416L184 416C170.7 416 160 405.3 160 392zM304 392C304 378.7 314.7 368 328 368L456 368C469.3 368 480 378.7 480 392C480 405.3 469.3 416 456 416L328 416C314.7 416 304 405.3 304 392zM384 296C384 282.7 394.7 272 408 272L456 272C469.3 272 480 282.7 480 296C480 309.3 469.3 320 456 320L408 320C394.7 320 384 309.3 384 296z"/><path fill="currentColor" d="M267.7 576.9L267.7 576.9L359.6 512L480 512C533 512 576 469 576 416L576 192C576 139 533 96 480 96L160 96C107 96 64 139 64 192L64 416C64 469 107 512 160 512L192 512L192 584C192 593 197 601.2 205 605.3C213 609.4 222.6 608.8 229.9 603.6L267.7 576.9zM359.6 464C349.7 464 340 467.1 331.9 472.8C303.3 493 272.6 514.6 240 537.7L240 488C240 485.2 239.5 482.4 238.6 479.9C235.3 470.6 226.4 464 216 464L160 464C133.5 464 112 442.5 112 416L112 192C112 165.5 133.5 144 160 144L480 144C506.5 144 528 165.5 528 192L528 416C528 442.5 506.5 464 480 464L359.6 464zM184 272C170.7 272 160 282.7 160 296C160 309.3 170.7 320 184 320L312 320C325.3 320 336 309.3 336 296C336 282.7 325.3 272 312 272L184 272zM408 272C394.7 272 384 282.7 384 296C384 309.3 394.7 320 408 320L456 320C469.3 320 480 309.3 480 296C480 282.7 469.3 272 456 272L408 272zM184 368C170.7 368 160 378.7 160 392C160 405.3 170.7 416 184 416L232 416C245.3 416 256 405.3 256 392C256 378.7 245.3 368 232 368L184 368zM328 368C314.7 368 304 378.7 304 392C304 405.3 314.7 416 328 416L456 416C469.3 416 480 405.3 480 392C480 378.7 469.3 368 456 368L328 368z"/></svg>