<svg xmlns="http://www.w3.org/2000/svg" viewBox="0 0 640 640"><!--! Font Awesome Pro 7.2.0 by @fontawesome - https://fontawesome.com License - https://fontawesome.com/license (Commercial License) Copyright 2026 Fonticons, Inc. --><path opacity=".4" fill="currentColor" d="M112 304C112 346.8 127.1 386.4 153.2 418.7C165.4 433.8 167.3 454.8 158 471.9L140 505L198.5 479.9C210.3 474.8 223.7 474.7 235.6 479.6C261.3 490.1 289.8 496 319.9 496C437.7 496 527.9 407.2 527.9 304C527.9 200.8 437.8 112 320 112C202.2 112 112 200.8 112 304zM160 296C160 282.7 170.7 272 184 272L312 272C325.3 272 336 282.7 336 296C336 309.3 325.3 320 312 320L184 320C170.7 320 160 309.3 160 296zM192 392C192 378.7 202.7 368 216 368L248 368C261.3 368 272 378.7 272 392C272 405.3 261.3 416 248 416L216 416C202.7 416 192 405.3 192 392zM320 392C320 378.7 330.7 368 344 368L424 368C437.3 368 448 378.7 448 392C448 405.3 437.3 416 424 416L344 416C330.7 416 320 405.3 320 392zM384 296C384 282.7 394.7 272 408 272L456 272C469.3 272 480 282.7 480 296C480 309.3 469.3 320 456 320L408 320C394.7 320 384 309.3 384 296z"/><path fill="currentColor" d="M64 304C64 358.4 83.3 408.6 115.9 448.9L67.1 538.3C65.1 542 64 546.2 64 550.5C64 564.6 75.4 576 89.5 576C93.5 576 97.3 575.4 101 573.9L217.4 524C248.8 536.9 283.5 544 320 544C461.4 544 576 436.5 576 304C576 171.5 461.4 64 320 64C178.6 64 64 171.5 64 304zM158 471.9C167.3 454.8 165.4 433.8 153.2 418.7C127.1 386.4 112 346.8 112 304C112 200.8 202.2 112 320 112C437.8 112 528 200.8 528 304C528 407.2 437.8 496 320 496C289.8 496 261.3 490.1 235.7 479.6C223.8 474.7 210.4 474.8 198.6 479.9L140 504.9L158 471.9zM184 272C170.7 272 160 282.7 160 296C160 309.3 170.7 320 184 320L312 320C325.3 320 336 309.3 336 296C336 282.7 325.3 272 312 272L184 272zM408 272C394.7 272 384 282.7 384 296C384 309.3 394.7 320 408 320L456 320C469.3 320 480 309.3 480 296C480 282.7 469.3 272 456 272L408 272zM216 368C202.7 368 192 378.7 192 392C192 405.3 202.7 416 216 416L248 416C261.3 416 272 405.3 272 392C272 378.7 261.3 368 248 368L216 368zM344 368C330.7 368 320 378.7 320 392C320 405.3 330.7 416 344 416L424 416C437.3 416 448 405.3 448 392C448 378.7 437.3 368 424 368L344 368z"/></svg>