<svg xmlns="http://www.w3.org/2000/svg" viewBox="0 0 640 640"><!--! Font Awesome Pro 7.2.0 by @fontawesome - https://fontawesome.com License - https://fontawesome.com/license (Commercial License) Copyright 2026 Fonticons, Inc. --><path opacity=".4" fill="currentColor" d="M112 192L112 416C112 417.7 112.1 419.3 112.2 420.9C114.7 445.1 135.1 464 160 464L216 464C229.3 464 240 474.7 240 488L240 537.7L331.9 472.8C340 467.1 349.7 464 359.6 464L480 464C481.7 464 483.3 463.9 484.9 463.8C509.1 461.3 528 440.9 528 416L528 192C528 165.5 506.5 144 480 144L160 144C133.5 144 112 165.5 112 192zM215.1 319.1C224.5 309.7 239.7 309.7 249 319.1L285 355.1L390.6 209.9C398.4 199.2 413.4 196.8 424.1 204.6C434.8 212.4 437.2 227.4 429.4 238.1L307.4 406.1C303.3 411.8 296.9 415.4 289.9 415.9C282.9 416.4 276 413.9 271.1 409L215.2 353.1C205.8 343.7 205.8 328.5 215.2 319.2z"/><path fill="currentColor" d="M480 96C533 96 576 139 576 192L576 416C576 467.4 535.7 509.3 484.9 511.9C483.3 512 481.6 512 480 512L359.6 512L229.8 603.6C222.5 608.8 212.9 609.4 204.9 605.3C196.9 601.2 192 593 192 584L192 512L160 512C107 512 64 469 64 416L64 192C64 139 107 96 160 96L480 96zM160 144C133.5 144 112 165.5 112 192L112 416C112 417.7 112.1 419.3 112.2 420.9C114.7 445.1 135.1 464 160 464L216 464C229.3 464 240 474.7 240 488L240 537.7L331.9 472.8C340 467.1 349.7 464 359.6 464L480 464C481.7 464 483.3 463.9 484.9 463.8C509.1 461.3 528 440.9 528 416L528 192C528 165.5 506.5 144 480 144L160 144zM390.7 209.9C398.5 199.2 413.5 196.8 424.2 204.6C434.9 212.4 437.3 227.4 429.5 238.1L307.4 406.1C303.3 411.8 296.9 415.4 289.9 415.9C282.9 416.4 276 413.9 271.1 409L215.2 353.1C205.8 343.7 205.8 328.5 215.2 319.2C224.6 309.9 239.8 309.8 249.1 319.2L285.1 355.2L390.7 210z"/></svg>