<svg xmlns="http://www.w3.org/2000/svg" viewBox="0 0 640 640"><!--! Font Awesome Pro 7.2.0 by @fontawesome - https://fontawesome.com License - https://fontawesome.com/license (Commercial License) Copyright 2026 Fonticons, Inc. --><path opacity=".4" fill="currentColor" d="M112 304C112 346.8 127.1 386.4 153.2 418.7C165.4 433.8 167.3 454.8 158 471.9L140 505L198.5 479.9C210.3 474.8 223.7 474.7 235.6 479.6C261.3 490.1 289.8 496 319.9 496C437.7 496 527.9 407.2 527.9 304C527.9 200.8 437.8 112 320 112C202.2 112 112 200.8 112 304zM212.7 384C203.9 374.1 204.7 359 214.6 350.1C224.5 341.2 239.6 342.1 248.5 352C266.1 371.7 291.6 384 320.1 384C348.6 384 374 371.7 391.7 352C400.5 342.1 415.7 341.3 425.6 350.1C435.5 358.9 436.3 374.1 427.5 384C401 413.4 362.6 432 320 432C277.4 432 239 413.4 212.7 384zM288 256C288 273.7 273.7 288 256 288C238.3 288 224 273.7 224 256C224 238.3 238.3 224 256 224C273.7 224 288 238.3 288 256zM416 256C416 273.7 401.7 288 384 288C366.3 288 352 273.7 352 256C352 238.3 366.3 224 384 224C401.7 224 416 238.3 416 256z"/><path fill="currentColor" d="M64 304C64 358.4 83.3 408.6 115.9 448.9L67.1 538.3C65.1 542 64 546.2 64 550.5C64 564.6 75.4 576 89.5 576C93.5 576 97.3 575.4 101 573.9L217.4 524C248.8 536.9 283.5 544 320 544C461.4 544 576 436.5 576 304C576 171.5 461.4 64 320 64C178.6 64 64 171.5 64 304zM158 471.9C167.3 454.8 165.4 433.8 153.2 418.7C127.1 386.4 112 346.8 112 304C112 200.8 202.2 112 320 112C437.8 112 528 200.8 528 304C528 407.2 437.8 496 320 496C289.8 496 261.3 490.1 235.7 479.6C223.8 474.7 210.4 474.8 198.6 479.9L140 504.9L158 471.9zM256 288C273.7 288 288 273.7 288 256C288 238.3 273.7 224 256 224C238.3 224 224 238.3 224 256C224 273.7 238.3 288 256 288zM384 288C401.7 288 416 273.7 416 256C416 238.3 401.7 224 384 224C366.3 224 352 238.3 352 256C352 273.7 366.3 288 384 288zM214.5 350.1C204.6 358.9 203.8 374.1 212.6 384C238.9 413.4 277.3 432 319.9 432C362.5 432 400.9 413.4 427.2 384C436 374.1 435.2 359 425.3 350.1C415.4 341.2 400.3 342.1 391.4 352C373.8 371.7 348.3 384 319.8 384C291.3 384 265.9 371.7 248.2 352C239.4 342.1 224.2 341.3 214.3 350.1z"/></svg>