<svg xmlns="http://www.w3.org/2000/svg" viewBox="0 0 640 640"><!--! Font Awesome Pro 7.2.0 by @fontawesome - https://fontawesome.com License - https://fontawesome.com/license (Commercial License) Copyright 2026 Fonticons, Inc. --><path opacity=".4" fill="currentColor" d="M112 304C112 346.8 127.1 386.4 153.2 418.7C165.4 433.8 167.3 454.8 158 471.9L140 505L198.5 479.9C210.3 474.8 223.7 474.7 235.6 479.6C261.3 490.1 289.8 496 319.9 496C437.7 496 527.9 407.2 527.9 304C527.9 200.8 437.8 112 320 112C202.2 112 112 200.8 112 304zM256 208C256 225.7 241.7 240 224 240C206.3 240 192 225.7 192 208C192 190.3 206.3 176 224 176C241.7 176 256 190.3 256 208zM192 371.4C192 364.1 194.8 357 199.9 351.7L296.7 249.9C302.7 243.5 311.1 240 320.2 240C329 240 337.3 243.6 343.4 249.9L440.2 351.7C445.3 357 448.1 364.1 448.1 371.4C448.1 387.2 435.3 400 419.5 400L220.7 400C204.9 400 192.1 387.2 192.1 371.4z"/><path fill="currentColor" d="M64 304C64 358.4 83.3 408.6 115.9 448.9L67.1 538.3C65.1 542 64 546.2 64 550.5C64 564.6 75.4 576 89.5 576C93.5 576 97.3 575.4 101 573.9L217.4 524C248.8 536.9 283.5 544 320 544C461.4 544 576 436.5 576 304C576 171.5 461.4 64 320 64C178.6 64 64 171.5 64 304zM158 471.9C167.3 454.8 165.4 433.8 153.2 418.7C127.1 386.4 112 346.8 112 304C112 200.8 202.2 112 320 112C437.8 112 528 200.8 528 304C528 407.2 437.8 496 320 496C289.8 496 261.3 490.1 235.7 479.6C223.8 474.7 210.4 474.8 198.6 479.9L140 504.9L158 471.9zM256 208C256 190.3 241.7 176 224 176C206.3 176 192 190.3 192 208C192 225.7 206.3 240 224 240C241.7 240 256 225.7 256 208zM192 371.4C192 387.2 204.8 400 220.6 400L419.4 400C435.2 400 448 387.2 448 371.4C448 364.1 445.2 357 440.1 351.7L343.3 249.9C337.3 243.5 328.9 240 320.1 240L319.8 240C311 240 302.7 243.6 296.6 249.9L199.9 351.7C194.8 357 192 364.1 192 371.4z"/></svg>