<svg xmlns="http://www.w3.org/2000/svg" viewBox="0 0 640 640"><!--! Font Awesome Pro 7.2.0 by @fontawesome - https://fontawesome.com License - https://fontawesome.com/license (Commercial License) Copyright 2026 Fonticons, Inc. --><path opacity=".4" fill="currentColor" d="M190.8 157C226.3 128.8 271.2 112 320 112C434.9 112 528 205.1 528 320C528 368.8 511.2 413.7 483 449.2L393.4 359.6L444.6 226.4C452.1 207 433 187.9 413.6 195.4L280.4 246.6L190.8 157z"/><path fill="currentColor" d="M73 39.1C63.6 29.7 48.4 29.7 39.1 39.1C29.8 48.5 29.7 63.7 39 73.1L567 601.1C576.4 610.5 591.6 610.5 600.9 601.1C610.2 591.7 610.3 576.5 600.9 567.2L517.1 483.4C553.9 439 576 382.1 576 320C576 178.6 461.4 64 320 64C257.9 64 201 86.1 156.7 122.8L73 39.1zM190.8 157C226.3 128.8 271.2 112 320 112C434.9 112 528 205.1 528 320C528 368.8 511.2 413.7 483 449.2L393.4 359.6L444.6 226.4C452.1 207 433 187.9 413.6 195.4L280.4 246.6L190.8 157zM407.1 509C380.6 521.2 351.1 528.1 320 528.1C205.1 528.1 112 435 112 320.1C112 289 118.8 259.5 131.1 233L95.3 197.2C75.3 233.7 64 275.5 64 320C64 461.4 178.6 576 320 576C364.5 576 406.4 564.6 442.8 544.7L407.1 509zM195.4 413.6C187.9 433 207 452.1 226.4 444.6L310.5 412.3L227.8 329.6L195.5 413.7z"/></svg>