<svg xmlns="http://www.w3.org/2000/svg" viewBox="0 0 640 640"><!--! Font Awesome Pro 7.2.0 by @fontawesome - https://fontawesome.com License - https://fontawesome.com/license (Commercial License) Copyright 2026 Fonticons, Inc. --><path opacity=".4" fill="currentColor" d="M80 160C80 151.2 87.2 144 96 144L272 144L272 400L96 400C87.2 400 80 392.8 80 384L80 160zM368 144L560 144L560 496L368 496L368 144zM416 400C416 426.5 437.5 448 464 448C490.5 448 512 426.5 512 400C512 373.5 490.5 352 464 352C437.5 352 416 373.5 416 400zM432 224C432 241.7 446.3 256 464 256C481.7 256 496 241.7 496 224C496 206.3 481.7 192 464 192C446.3 192 432 206.3 432 224z"/><path fill="currentColor" d="M284.8 96C276.7 110.1 272 126.5 272 144L96 144C87.2 144 80 151.2 80 160L80 384C80 392.8 87.2 400 96 400L272 400L272 448L96 448C60.7 448 32 419.3 32 384L32 160C32 124.7 60.7 96 96 96L284.8 96zM272 496C272 513.5 276.7 529.9 284.8 544L152 544C138.7 544 128 533.3 128 520C128 506.7 138.7 496 152 496L272 496zM368 144L368 496L560 496L560 144L368 144zM320 144C320 117.5 341.5 96 368 96L560 96C586.5 96 608 117.5 608 144L608 496C608 522.5 586.5 544 560 544L368 544C341.5 544 320 522.5 320 496L320 144zM432 224C432 206.3 446.3 192 464 192C481.7 192 496 206.3 496 224C496 241.7 481.7 256 464 256C446.3 256 432 241.7 432 224zM464 352C490.5 352 512 373.5 512 400C512 426.5 490.5 448 464 448C437.5 448 416 426.5 416 400C416 373.5 437.5 352 464 352z"/></svg>