<svg xmlns="http://www.w3.org/2000/svg" viewBox="0 0 640 640"><!--! Font Awesome Pro 7.2.0 by @fontawesome - https://fontawesome.com License - https://fontawesome.com/license (Commercial License) Copyright 2026 Fonticons, Inc. --><path opacity=".4" fill="currentColor" d="M192 192L192 414.1L414.1 192L192 192zM225.9 448L448 448L448 225.9L225.9 448z"/><path fill="currentColor" d="M144 88C144 74.7 154.7 64 168 64C181.3 64 192 74.7 192 88L192 414.1L414.1 192L240 192L240 144L462.1 144L535.1 71C544.5 61.6 559.7 61.6 569 71C578.3 80.4 578.4 95.6 569 104.9L496 177.9L496 448L552 448C565.3 448 576 458.7 576 472C576 485.3 565.3 496 552 496L496 496L496 552C496 565.3 485.3 576 472 576C458.7 576 448 565.3 448 552L448 225.9L225.9 448L400 448L400 496L200 496C169.1 496 144 470.9 144 440L144 192L88 192C74.7 192 64 181.3 64 168C64 154.7 74.7 144 88 144L144 144L144 88z"/></svg>