<svg xmlns="http://www.w3.org/2000/svg" viewBox="0 0 640 640"><!--! Font Awesome Pro 7.2.0 by @fontawesome - https://fontawesome.com License - https://fontawesome.com/license (Commercial License) Copyright 2026 Fonticons, Inc. --><path opacity=".4" fill="currentColor" d="M113.4 296L184 296C197.3 296 208 306.7 208 320C208 333.3 197.3 344 184 344L113.4 344C124.4 439.7 200.3 515.6 296 526.6L296 456C296 442.7 306.7 432 320 432C333.3 432 344 442.7 344 456L344 526.6C439.7 515.6 515.6 439.7 526.6 344L456 344C442.7 344 432 333.3 432 320C432 306.7 442.7 296 456 296L526.6 296C515.6 200.3 439.7 124.4 344 113.4L344 184C344 197.3 333.3 208 320 208C306.7 208 296 197.3 296 184L296 113.4C200.3 124.4 124.4 200.3 113.4 296z"/><path fill="currentColor" d="M526.6 296L456 296C442.7 296 432 306.7 432 320C432 333.3 442.7 344 456 344L526.6 344C515.6 439.7 439.7 515.6 344 526.6L344 456C344 442.7 333.3 432 320 432C306.7 432 296 442.7 296 456L296 526.6C200.3 515.6 124.4 439.7 113.4 344L184 344C197.3 344 208 333.3 208 320C208 306.7 197.3 296 184 296L113.4 296C124.4 200.3 200.3 124.4 296 113.4L296 184C296 197.3 306.7 208 320 208C333.3 208 344 197.3 344 184L344 113.4C439.7 124.4 515.6 200.3 526.6 296zM64 320C64 461.4 178.6 576 320 576C461.4 576 576 461.4 576 320C576 178.6 461.4 64 320 64C178.6 64 64 178.6 64 320z"/></svg>