<svg xmlns="http://www.w3.org/2000/svg" viewBox="0 0 640 640"><!--! Font Awesome Pro 7.2.0 by @fontawesome - https://fontawesome.com License - https://fontawesome.com/license (Commercial License) Copyright 2026 Fonticons, Inc. --><path opacity=".4" fill="currentColor" d="M135.1 432L504.9 432L475.5 311.6C460 307.1 444.5 304 432 304C415.3 304 403.2 309.6 386.4 317.6L385.4 318.1C369.1 326 348.2 336 320 336C291.8 336 270.9 326 254.6 318.1L253.6 317.6C236.8 309.5 224.7 304 208 304C195.5 304 180 307.1 164.5 311.6L135.1 432zM177.4 259.2C187.8 257.2 198.2 256 208.1 256C236.3 256 257.2 266 273.5 273.9L274.5 274.4C291.3 282.5 303.4 288 320.1 288C336.8 288 348.9 282.4 365.7 274.4L366.7 273.9C383 266 403.9 256 432.1 256C442 256 452.4 257.2 462.8 259.2L445.4 188.2C443.6 181 437.2 176 429.9 176L210.4 176C203 176 196.6 181 194.9 188.2L177.5 259.2z"/><path fill="currentColor" d="M148.1 176.8L85.7 432L135.1 432L164.5 311.6C180 307.1 195.5 304 208 304C224.7 304 236.8 309.6 253.6 317.6L254.6 318.1C270.9 326 291.8 336 320 336C348.2 336 369.1 326 385.4 318.1L386.4 317.6C403.2 309.5 415.3 304 432 304C444.5 304 460 307.1 475.5 311.6L504.9 432L554.3 432L491.9 176.8C484.9 148.2 459.2 128 429.7 128L210.2 128C180.7 128 155 148.2 148 176.8zM462.7 259.2C452.3 257.2 441.9 256 432 256C403.8 256 382.9 266 366.6 273.9L365.6 274.4C348.8 282.4 336.7 288 320 288C303.3 288 291.2 282.4 274.4 274.4L273.4 273.9C257.1 266 236.2 256 208 256C198.1 256 187.7 257.2 177.3 259.2L194.7 188.2C196.5 181 202.9 176 210.2 176L429.7 176C437.1 176 443.5 181 445.2 188.2L462.6 259.2zM64 488C64 501.3 74.7 512 88 512L552 512C565.3 512 576 501.3 576 488C576 474.7 565.3 464 552 464L88 464C74.7 464 64 474.7 64 488z"/></svg>