<svg xmlns="http://www.w3.org/2000/svg" viewBox="0 0 640 640"><!--! Font Awesome Pro 7.2.0 by @fontawesome - https://fontawesome.com License - https://fontawesome.com/license (Commercial License) Copyright 2026 Fonticons, Inc. --><path opacity=".4" fill="currentColor" d="M112 320C112 322.6 113 325.2 114.9 327L296 508.1L296 131.9L114.9 313C113 314.9 112 317.4 112 320z"/><path fill="currentColor" d="M296 131.9L296 508.1L114.9 327C113 325.1 112 322.6 112 320C112 317.4 113 314.8 114.9 313L296 131.9zM344 508.1L344 131.9L525.1 313C527 314.9 528 317.4 528 320C528 322.6 527 325.2 525.1 327L344 508.1zM279 81L81 279C70.1 289.9 64 304.6 64 320C64 335.4 70.1 350.1 81 361L279 559C289.9 569.9 304.6 576 320 576C335.4 576 350.1 569.9 361 559L559 361C569.9 350.1 576 335.4 576 320C576 304.6 569.9 289.9 559 279L361 81C350.1 70.1 335.4 64 320 64C304.6 64 289.9 70.1 279 81z"/></svg>