<svg xmlns="http://www.w3.org/2000/svg" viewBox="0 0 640 640"><!--! Font Awesome Pro 7.2.0 by @fontawesome - https://fontawesome.com License - https://fontawesome.com/license (Commercial License) Copyright 2026 Fonticons, Inc. --><path opacity=".4" fill="currentColor" d="M112 320C112 322.6 113 325.2 114.9 327L313 525.1C314.9 527 317.4 528 320 528C322.6 528 325.2 527 327 525.1L525.1 327C527 325.1 528 322.6 528 320C528 317.4 527 314.8 525.1 313L327 114.9C325.1 113 322.6 112 320 112C317.4 112 314.8 113 313 114.9L114.9 313C113 314.9 112 317.4 112 320zM224 352C224 312.2 256.2 280 296 280L350.1 280L327.1 257C317.7 247.6 317.7 232.4 327.1 223.1C336.5 213.8 351.7 213.7 361 223.1L425 287.1C434.4 296.5 434.4 311.7 425 321L361 385C351.6 394.4 336.4 394.4 327.1 385C317.8 375.6 317.7 360.4 327.1 351.1L350.1 328.1L296 328.1C282.7 328.1 272 338.8 272 352.1L272 376.1C272 389.4 261.3 400.1 248 400.1C234.7 400.1 224 389.4 224 376.1L224 352.1z"/><path fill="currentColor" d="M114.9 313L313 114.9C314.9 113 317.4 112 320 112C322.6 112 325.2 113 327 114.9L525.1 313C527 314.9 528 317.4 528 320C528 322.6 527 325.2 525.1 327L327 525.1C325.1 527 322.6 528 320 528C317.4 528 314.8 527 313 525.1L114.9 327C113 325.1 112 322.6 112 320C112 317.4 113 314.8 114.9 313zM279 81L81 279C70.1 289.9 64 304.6 64 320C64 335.4 70.1 350.1 81 361L279 559C289.9 569.9 304.6 576 320 576C335.4 576 350.1 569.9 361 559L559 361C569.9 350.1 576 335.4 576 320C576 304.6 569.9 289.9 559 279L361 81C350.1 70.1 335.4 64 320 64C304.6 64 289.9 70.1 279 81zM425 321C434.4 311.6 434.4 296.4 425 287.1L361 223.1C351.6 213.7 336.4 213.7 327.1 223.1C317.8 232.5 317.7 247.7 327.1 257L350.1 280L296 280C256.2 280 224 312.2 224 352L224 376C224 389.3 234.7 400 248 400C261.3 400 272 389.3 272 376L272 352C272 338.7 282.7 328 296 328L350.1 328L327.1 351C317.7 360.4 317.7 375.6 327.1 384.9C336.5 394.2 351.7 394.3 361 384.9L425 320.9z"/></svg>