<svg xmlns="http://www.w3.org/2000/svg" viewBox="0 0 640 640"><!--! Font Awesome Pro 7.2.0 by @fontawesome - https://fontawesome.com License - https://fontawesome.com/license (Commercial License) Copyright 2026 Fonticons, Inc. --><path opacity=".4" fill="currentColor" d="M112.1 234C112.1 243.1 115.1 251.9 120.5 259.1L140.1 285.2C153.1 302.6 160.2 323.7 160.2 345.4C160.2 365.6 154.1 385.3 142.7 402L134.3 414.3C130.3 420.2 128.1 427.2 128.1 434.4C128.1 457.8 150.3 474.8 172.9 468.8L207 459.7C216.3 457.2 225.9 456 235.5 456L242.1 456C277.7 456 312 469.2 338.4 493L366 517.9C373.3 524.5 382.7 528.1 392.5 528.1C414.4 528.1 432.1 510.4 432.1 488.5L432.1 455.8C432.1 413.6 455.6 375 493.1 355.6L502 351C518.1 342.7 528.2 326.1 528.2 308C528.2 289.8 518 273.1 501.7 264.8L469.6 248.5C437.9 232.4 414.5 203.6 405.2 169.3L399 146.5C393.5 126.1 375.1 112 354 112C339.8 112 326.4 118.4 317.6 129.5L306.8 143C282 174 244.5 192 204.8 192L154.1 192C130.9 192 112.1 210.8 112.1 234zM256 288C256 305.7 241.7 320 224 320C206.3 320 192 305.7 192 288C192 270.3 206.3 256 224 256C241.7 256 256 270.3 256 288zM384 256C384 273.7 369.7 288 352 288C334.3 288 320 273.7 320 256C320 238.3 334.3 224 352 224C369.7 224 384 238.3 384 256zM384 384C384 401.7 369.7 416 352 416C334.3 416 320 401.7 320 384C320 366.3 334.3 352 352 352C369.7 352 384 366.3 384 384z"/><path fill="currentColor" d="M354 64C325.2 64 298 77.1 280.1 99.5L269.3 113C253.6 132.6 229.9 144 204.8 144L154.1 144C104.4 144 64.1 184.3 64.1 234.1C64.1 253.5 70.4 272.4 82.1 288L101.7 314C108.5 323.1 112.2 334.1 112.2 345.4C112.2 355.9 109 366.2 103.1 374.9L94.7 387.2C85.2 401.1 80.1 417.5 80.1 434.3C80.1 489.2 132.2 529.2 185.3 515.1L219.4 506C224.7 504.6 230.1 503.9 235.6 503.9L242.2 503.9C265.9 503.9 288.8 512.7 306.4 528.5L334 553.4C350.1 567.9 371 575.9 392.6 575.9C441 575.9 480.2 536.7 480.2 488.3L480.2 455.6C480.2 431.4 493.7 409.2 515.2 398L524.1 393.4C556.1 376.8 576.2 343.8 576.2 307.8C576.2 271.5 555.8 238.3 523.4 221.8L491.3 205.5C471.7 195.6 457.3 177.8 451.6 156.6L445.3 134C434.2 92.7 396.7 64 354 64zM317.6 129.5C326.4 118.4 339.8 112 354 112C375 112 393.5 126.1 399 146.5L405.1 169.3C414.4 203.6 437.7 232.4 469.5 248.5L501.6 264.8C517.9 273 528.1 289.7 528.1 308C528.1 326.1 518 342.7 501.9 351L493 355.6C455.6 375 432 413.6 432 455.8L432 488.5C432 510.4 414.3 528.1 392.4 528.1C382.6 528.1 373.2 524.5 365.9 517.9L338.3 493C311.9 469.2 277.5 456 242 456L235.4 456C225.8 456 216.2 457.3 206.9 459.7L172.8 468.8C150.2 474.8 128 457.8 128 434.4C128 427.2 130.2 420.2 134.2 414.3L142.6 402C154 385.3 160.1 365.6 160.1 345.4C160.1 323.7 153.1 302.6 140 285.2L120.5 259.2C115.1 251.9 112.1 243.1 112.1 234.1C112.1 210.9 130.9 192.1 154.1 192.1L204.8 192.1C244.5 192.1 282 174.1 306.8 143.1L317.6 129.6zM224 320C241.7 320 256 305.7 256 288C256 270.3 241.7 256 224 256C206.3 256 192 270.3 192 288C192 305.7 206.3 320 224 320zM384 256C384 238.3 369.7 224 352 224C334.3 224 320 238.3 320 256C320 273.7 334.3 288 352 288C369.7 288 384 273.7 384 256zM352 416C369.7 416 384 401.7 384 384C384 366.3 369.7 352 352 352C334.3 352 320 366.3 320 384C320 401.7 334.3 416 352 416z"/></svg>