<svg xmlns="http://www.w3.org/2000/svg" viewBox="0 0 640 640"><!--! Font Awesome Pro 7.2.0 by @fontawesome - https://fontawesome.com License - https://fontawesome.com/license (Commercial License) Copyright 2026 Fonticons, Inc. --><path opacity=".4" fill="currentColor" d="M104 160L104 416C104 424.8 111.2 432 120 432L504 432C512.8 432 520 424.8 520 416L520 160C520 151.2 512.8 144 504 144L120 144C111.2 144 104 151.2 104 160zM199 271L247 223C256.4 213.6 271.6 213.6 280.9 223C290.2 232.4 290.3 247.6 280.9 256.9L249.9 287.9L280.9 318.9C290.3 328.3 290.3 343.5 280.9 352.8C271.5 362.1 256.3 362.2 247 352.8L199 304.8C189.6 295.4 189.6 280.2 199 270.9zM276.3 528L347.6 528L339.6 480L284.3 480L276.3 528zM359 223C368.4 213.6 383.6 213.6 392.9 223L440.9 271C450.3 280.4 450.3 295.6 440.9 304.9L392.9 352.9C383.5 362.3 368.3 362.3 359 352.9C349.7 343.5 349.6 328.3 359 319L390 288L359 257C349.6 247.6 349.6 232.4 359 223.1z"/><path fill="currentColor" d="M504 144C512.8 144 520 151.2 520 160L520 416C520 424.8 512.8 432 504 432L120 432C111.2 432 104 424.8 104 416L104 160C104 151.2 111.2 144 120 144L504 144zM120 96C84.7 96 56 124.7 56 160L56 416C56 451.3 84.7 480 120 480L235.7 480L227.7 528L176 528C162.7 528 152 538.7 152 552C152 565.3 162.7 576 176 576L448 576C461.3 576 472 565.3 472 552C472 538.7 461.3 528 448 528L396.3 528L388.3 480L504 480C539.3 480 568 451.3 568 416L568 160C568 124.7 539.3 96 504 96L120 96zM276.3 528L284.3 480L339.6 480L347.6 528L276.3 528zM281 257C290.4 247.6 290.4 232.4 281 223.1C271.6 213.8 256.4 213.7 247.1 223.1L199.1 271.1C189.7 280.5 189.7 295.7 199.1 305L247.1 353C256.5 362.4 271.7 362.4 281 353C290.3 343.6 290.4 328.4 281 319.1L250 288.1L281 257.1zM393 223C383.6 213.6 368.4 213.6 359.1 223C349.8 232.4 349.7 247.6 359.1 256.9L390.1 287.9L359.1 318.9C349.7 328.3 349.7 343.5 359.1 352.8C368.5 362.1 383.7 362.2 393 352.8L441 304.8C450.4 295.4 450.4 280.2 441 270.9L393 222.9z"/></svg>