<svg xmlns="http://www.w3.org/2000/svg" viewBox="0 0 640 640"><!--! Font Awesome Pro 7.2.0 by @fontawesome - https://fontawesome.com License - https://fontawesome.com/license (Commercial License) Copyright 2026 Fonticons, Inc. --><path opacity=".4" fill="currentColor" d="M136.3 481.3L219.3 522.8L287.1 455L290.8 452C294.7 449.4 299.3 448 304.1 448L376.1 448C442.4 448 496.1 394.3 496.1 328L496.1 224C496.1 219.9 497.2 215.9 499.1 212.3L519.3 176L456.1 176C425.2 176 400.1 201.1 400.1 232L400.1 288C400.1 296.6 395.5 304.5 388.1 308.8C380.7 313.1 371.5 313 364.1 308.7L141.3 179.4C136 203.3 134.2 236.5 141.5 271C151.7 318.9 178.7 366.5 234.7 394.5C243 398.7 248.2 407.2 248 416.5C247.8 425.8 242.2 434.1 233.8 437.9L136.3 481.2zM256.3 189.4C256.2 189.8 256.1 190.1 256 190.5L352 246.2L352 231.9C352 225.9 352.5 220 353.5 214.3L297.7 117.1C282 134 265.7 159.1 256.4 189.4zM472 224C472 237.3 461.3 248 448 248C434.7 248 424 237.3 424 224C424 210.7 434.7 200 448 200C461.3 200 472 210.7 472 224z"/><path fill="currentColor" d="M309.6 56.7C316 58.2 321.6 62.4 324.9 68.1L379 162.3C398 141.3 425.4 128 456 128L560 128L563.2 128.2C570.5 129.2 577 133.4 580.7 139.8C584.4 146.2 585 154 582.4 160.8L581 163.6L544 230.1L544 327.9C544 420.7 468.8 495.9 376 495.9L313.9 495.9L240.9 568.9C233.6 576.2 222.4 578 213.2 573.4L69.2 501.4C60.9 497.2 55.7 488.7 55.9 479.4C56.1 470.1 61.7 461.8 70.1 458L173.3 412.1C128 376.1 104.3 327.6 94.3 280.9C82.1 223.3 90.1 165.6 106.3 133.2L107.5 131C110.6 126.2 115.3 122.5 120.9 120.9C127.2 119 134.1 119.8 139.8 123.2L213.2 165.8C230.8 117.1 262.7 78.5 290.8 60L292.9 58.8C298 56.2 303.9 55.4 309.5 56.7zM456 176C425.1 176 400 201.1 400 232L400 288C400 296.6 395.4 304.5 388 308.8C380.6 313.1 371.4 313 364 308.7L141.3 179.4C136 203.3 134.2 236.5 141.5 271C151.7 318.9 178.7 366.5 234.7 394.5C243 398.7 248.2 407.2 248 416.5C247.8 425.8 242.2 434.1 233.8 437.9L136.3 481.2L219.3 522.7L287.1 454.9L290.8 451.9C294.7 449.3 299.3 447.9 304.1 447.9L376.1 447.9C442.4 447.9 496.1 394.2 496.1 327.9L496.1 223.9C496.1 219.8 497.2 215.8 499.1 212.2L519.3 175.9L456.1 175.9zM448 248C434.7 248 424 237.3 424 224C424 210.7 434.7 200 448 200C461.3 200 472 210.7 472 224C472 237.3 461.3 248 448 248zM297.7 117.1C282 134 265.7 159.1 256.4 189.4C256.3 189.8 256.2 190.1 256.1 190.5L352.1 246.2L352.1 231.9C352.1 225.9 352.6 220 353.6 214.3L297.7 117.1z"/></svg>