<svg xmlns="http://www.w3.org/2000/svg" viewBox="0 0 640 640"><!--! Font Awesome Pro 7.2.0 by @fontawesome - https://fontawesome.com License - https://fontawesome.com/license (Commercial License) Copyright 2026 Fonticons, Inc. --><path opacity=".4" fill="currentColor" d="M176.1 241.9L176.1 464L398.2 464L327.2 393C317.8 383.6 317.8 368.4 327.2 359.1L478.2 208.1L432.1 162L281.1 313C271.7 322.4 256.5 322.4 247.2 313L176.2 242z"/><path fill="currentColor" d="M176.1 464L398.2 464L327.2 393C317.8 383.6 317.8 368.4 327.2 359.1L478.2 208.1L432.1 162L281.1 313C271.7 322.4 256.5 322.4 247.2 313L176.2 242L176.2 464.1zM160.1 512C142.4 512 128.1 497.7 128.1 480L128.1 203.3C128.1 174.8 162.6 160.5 182.7 180.7L264.1 262.1L398.1 128C416.8 109.3 447.2 109.3 466 128L512.1 174.1C530.8 192.8 530.8 223.2 512.1 242L378 376L459.4 457.4C479.6 477.6 465.3 512 436.8 512L160.1 512z"/></svg>