<svg xmlns="http://www.w3.org/2000/svg" viewBox="0 0 640 640"><!--! Font Awesome Pro 7.2.0 by @fontawesome - https://fontawesome.com License - https://fontawesome.com/license (Commercial License) Copyright 2026 Fonticons, Inc. --><path opacity=".4" fill="currentColor" d="M144.8 327.4L144.5 330.5L144.5 496L310 496C314.2 496 318.3 494.3 321.3 491.3L389.6 423L217.5 250.9L149.2 319.2C147 321.5 145.4 324.3 144.8 327.4zM251.4 217L423.5 389.1L460.6 352L288.5 179.9L251.4 217z"/><path fill="currentColor" d="M535.5 71C544.9 61.6 560.1 61.6 569.4 71C578.7 80.4 578.8 95.6 569.4 104.9L425.4 248.9L494.5 318C513.2 336.7 513.2 367.1 494.5 385.9L355.2 525.2L350.5 529.4C340.7 537.4 328.8 542.3 316.2 543.6L309.9 543.9L144.4 543.9C117.9 543.9 96.4 522.4 96.4 495.9L96.4 330.4C96.4 315.5 101.6 301.2 110.9 289.8L115.2 285.1L254.5 145.8C273.2 127.1 303.6 127.1 322.4 145.8L391.5 215L535.5 71zM149.2 319.2C147 321.5 145.4 324.3 144.8 327.4L144.5 330.5L144.5 496L310 496C314.2 496 318.3 494.3 321.3 491.3L389.6 423L217.5 250.9L149.2 319.2zM251.4 217L423.5 389.1L460.6 352L288.5 179.9L251.4 217z"/></svg>