<svg xmlns="http://www.w3.org/2000/svg" viewBox="0 0 640 640"><!--! Font Awesome Pro 7.2.0 by @fontawesome - https://fontawesome.com License - https://fontawesome.com/license (Commercial License) Copyright 2026 Fonticons, Inc. --><path opacity=".4" fill="currentColor" d="M176 112L176 192L464 192L464 112L176 112zM176 240L176 352L464 352L464 240L368 240L368 248C368 261.3 357.3 272 344 272L296 272C282.7 272 272 261.3 272 248L272 240L176 240zM176 400L176 496L464 496L464 400L368 400L368 408C368 421.3 357.3 432 344 432L296 432C282.7 432 272 421.3 272 408L272 400L176 400z"/><path fill="currentColor" d="M464 64C490.5 64 512 85.5 512 112L512 552C512 565.3 501.3 576 488 576C474.7 576 464 565.3 464 552L464 544L176 544L176 552C176 565.3 165.3 576 152 576C138.7 576 128 565.3 128 552L128 112C128 85.5 149.5 64 176 64L464 64zM368 400L368 408C368 421.3 357.3 432 344 432L296 432C282.7 432 272 421.3 272 408L272 400L176 400L176 496L464 496L464 400L368 400zM176 352L464 352L464 240L368 240L368 248C368 261.3 357.3 272 344 272L296 272C282.7 272 272 261.3 272 248L272 240L176 240L176 352zM176 192L464 192L464 112L176 112L176 192z"/></svg>