<svg xmlns="http://www.w3.org/2000/svg" viewBox="0 0 640 640"><!--! Font Awesome Pro 7.2.0 by @fontawesome - https://fontawesome.com License - https://fontawesome.com/license (Commercial License) Copyright 2026 Fonticons, Inc. --><path opacity=".4" fill="currentColor" d="M194.7 304L445.4 304L360.1 368L280.1 368L194.8 304z"/><path fill="currentColor" d="M0 168C0 154.7 10.7 144 24 144L264 144C277.3 144 288 154.7 288 168C288 181.3 277.3 192 264 192L168 192L168 256L472 256L472 192L376 192C362.7 192 352 181.3 352 168C352 154.7 362.7 144 376 144L616 144C629.3 144 640 154.7 640 168C640 181.3 629.3 192 616 192L520 192L520 296C520 303.6 516.4 310.7 510.4 315.2L471.5 344.4L493.7 380C505.7 399 512 421 512 443.5L512 488C512 501.3 501.3 512 488 512C474.7 512 464 501.3 464 488L464 443.5C464 430 460.2 416.8 453.1 405.3L433 373.2L382.4 411.1C378.2 414.2 373.2 415.9 368 415.9L272 415.9C266.8 415.9 261.8 414.2 257.6 411.1L207 373.2L186.9 405.3C179.8 416.8 176 430 176 443.5L176 488C176 501.3 165.3 512 152 512C138.7 512 128 501.3 128 488L128 443.5C128 421 134.3 399 146.2 379.9L168.4 344.3L129.5 315.1C123.5 310.6 119.9 303.5 119.9 295.9L119.9 191.9L23.9 191.9C10.6 191.9-.1 181.2-.1 167.9zM194.7 304L280 368L360 368L445.3 304L194.6 304z"/></svg>