<svg xmlns="http://www.w3.org/2000/svg" viewBox="0 0 640 640"><!--! Font Awesome Pro 7.2.0 by @fontawesome - https://fontawesome.com License - https://fontawesome.com/license (Commercial License) Copyright 2026 Fonticons, Inc. --><path opacity=".4" fill="currentColor" d="M176 384C176 463.5 240.5 528 320 528C399.5 528 464 463.5 464 384C464 370.8 458.8 349.4 446.7 320.3C435.1 292.3 418.8 261.4 400.9 230.8C372.3 181.9 340.6 136.1 320 107.3C299.4 136.1 267.7 182 239.1 230.8C221.2 261.4 204.9 292.3 193.3 320.3C181.2 349.4 176.1 370.8 176.1 384zM224 384C224 370.7 234.7 360 248 360L296 360L296 312C296 298.7 306.7 288 320 288C333.3 288 344 298.7 344 312L344 360L392 360C405.3 360 416 370.7 416 384C416 397.3 405.3 408 392 408L344 408L344 456L343.9 458.5C342.6 470.6 332.4 480 320 480C307.6 480 297.4 470.6 296.1 458.5L296 456L296 408L248 408C234.7 408 224 397.3 224 384z"/><path fill="currentColor" d="M320.2 48C330.2 48 339.5 52.5 345.4 60.5C381.8 109.9 512 292.8 512 384C512 490 426 576 320 576C214 576 128 490 128 384C128 292.8 258.2 109.9 294.6 60.5C299.8 53.5 307.5 49.2 316.1 48.2L319.8 48L320.2 48zM320 107.3C299.4 136.1 267.7 182 239.1 230.8C221.2 261.4 204.9 292.3 193.3 320.3C181.2 349.4 176.1 370.8 176.1 384C176.1 463.5 240.6 528 320.1 528C399.6 528 464.1 463.5 464.1 384C464.1 370.8 458.9 349.4 446.8 320.3C435.2 292.3 418.9 261.4 401 230.8C372.4 181.9 340.7 136.1 320.1 107.3zM320 288C333.3 288 344 298.7 344 312L344 360L392 360C405.3 360 416 370.7 416 384C416 397.3 405.3 408 392 408L344 408L344 456L343.9 458.5C342.6 470.6 332.4 480 320 480C307.6 480 297.4 470.6 296.1 458.5L296 456L296 408L248 408C234.7 408 224 397.3 224 384C224 370.7 234.7 360 248 360L296 360L296 312C296 298.7 306.7 288 320 288z"/></svg>