<svg xmlns="http://www.w3.org/2000/svg" viewBox="0 0 640 640"><!--! Font Awesome Pro 7.2.0 by @fontawesome - https://fontawesome.com License - https://fontawesome.com/license (Commercial License) Copyright 2026 Fonticons, Inc. --><path opacity=".4" fill="currentColor" d="M116.3 352L135 464L505 464L523.7 352L116.4 352zM138.7 256L187.7 256L213.3 128L164.3 128L138.7 256zM296 128L296 256L344 256L344 128L296 128zM426.7 128L452.3 256L501.3 256L475.7 128L426.7 128z"/><path fill="currentColor" d="M164.3 128L138.7 256L56 256C42.7 256 32 245.3 32 232L32 227.9C32 225.3 32.4 222.8 33.2 220.3L58.5 144.4C61.8 134.6 71 128 81.3 128L164.3 128zM187.7 256L213.3 128L296 128L296 256L187.7 256zM344 128L426.7 128L452.3 256L344 256L344 128zM475.7 128L558.7 128C569 128 578.2 134.6 581.5 144.4L606.8 220.3C607.6 222.7 608 225.3 608 227.9L608 232C608 245.3 597.3 256 584 256L501.3 256L475.7 128zM59.7 304L580.4 304L575.7 331.9L543.7 523.9C541.5 537 529.2 545.8 516.1 543.6C503 541.4 494.2 529.1 496.4 516L497.1 511.9L143.1 511.9L143.8 516C146 529.1 137.1 541.4 124.1 543.6C111.1 545.8 98.5 537 96.3 523.9L64.3 331.9L59.6 304zM135 464L505 464L523.7 352L116.4 352L135.1 464z"/></svg>