<svg xmlns="http://www.w3.org/2000/svg" viewBox="0 0 640 640"><!--! Font Awesome Pro 7.2.0 by @fontawesome - https://fontawesome.com License - https://fontawesome.com/license (Commercial License) Copyright 2026 Fonticons, Inc. --><path opacity=".4" fill="currentColor" d="M116.3 352L135 464L272.8 464C272.3 458.1 272 452.1 272 446.1C272 414.4 283.6 381.6 299.1 352L116.3 352zM138.7 256C215.3 256.2 291.9 256.3 368.6 256.4L369 256L344.1 256L344.1 128L296.1 128L296.1 256L187.8 256L213.4 128L164.4 128L138.8 256zM426.7 128L442.7 208C458.1 207.8 473.5 213.1 485.6 224.1C489.4 227.5 493.2 231 496.9 234.6L475.6 128L426.6 128z"/><path fill="currentColor" d="M164.3 128L138.7 256L56 256C42.7 256 32 245.3 32 232L32 227.9C32 225.3 32.4 222.8 33.2 220.3L58.5 144.4C61.8 134.6 71 128 81.3 128L164.3 128zM187.7 256L213.3 128L296 128L296 256L187.7 256zM344 128L426.7 128L442.7 208C428 208.2 413.4 213.5 401.8 223.9C390.3 234.2 379.3 244.9 369 256L344.1 256L344.1 128zM320 304L329.2 304C322.8 312.8 316.9 321.6 311.5 330.3C307.2 337.3 303 344.5 299.1 352L116.3 352L135 464L272.8 464C274.2 480.5 277.6 496.6 282.6 512L143 512L143.7 516.1C145.9 529.2 137 541.5 124 543.7C111 545.9 98.5 537 96.3 523.9L64.3 331.9L59.6 304L319.9 304zM608 232C608 243 600.6 252.3 590.5 255.1C589.6 254.3 588.8 253.5 587.9 252.7C566.1 232.7 533.6 230.9 509.9 247.2C505.7 242.9 501.4 238.7 497 234.6L475.7 128L558.7 128C569 128 578.2 134.6 581.5 144.4L606.8 220.3C607.6 222.7 608 225.3 608 227.9L608 232zM505.7 304.3L518 290.5C523.4 284.4 531.3 281.7 538.9 281.6C546.1 281.6 553.2 284.2 558.8 289.4C578.5 307.7 598.6 332.6 613.8 360C628.9 387.2 640 418.1 640 448.1C640 536.8 568.7 607.9 480 607.9C390.4 607.9 320 536.6 320 448.1C320 410.8 336 374.7 356.8 343.6C377.7 312.3 404.3 284.6 427.7 263.4C433.4 258.2 440.8 255.7 448 255.9C455.2 256.1 461.4 259.1 466.8 263.4C481.2 274.8 505.7 304.1 505.7 304.1zM544 496.2C544 459.7 507 423.2 489.2 407.8C483.8 403.1 476.1 403.1 470.7 407.8C453 423.2 415.9 459.7 415.9 496.2C415.9 531.5 444.6 560.2 479.9 560.2C515.2 560.2 543.9 531.5 543.9 496.2z"/></svg>