<svg xmlns="http://www.w3.org/2000/svg" viewBox="0 0 640 640"><!--! Font Awesome Pro 7.2.0 by @fontawesome - https://fontawesome.com License - https://fontawesome.com/license (Commercial License) Copyright 2026 Fonticons, Inc. --><path opacity=".4" fill="currentColor" d="M144 256C144 176.5 208.5 112 288 112C367.5 112 432 176.5 432 256C432 276.5 427.7 296 420 313.6C405 322.3 393.4 336.2 387.7 352.9C383.9 352.3 379.9 351.9 375.9 351.9C336.1 351.9 303.9 384.1 303.9 423.9L303.9 485.4C290.1 511.3 263.1 527.9 233.2 527.9L223.9 527.9C179.7 527.9 143.9 492.1 143.9 447.9L143.9 255.9zM176 256L176 296C176 309.3 186.7 320 200 320L216 320C229.3 320 240 330.7 240 344C240 357.3 229.3 368 216 368L200 368C186.7 368 176 378.7 176 392C176 405.3 186.7 416 200 416L216 416C255.8 416 288 383.8 288 344C288 306.9 260 276.4 224 272.4L224 256C224 220.7 252.7 192 288 192C323.3 192 352 220.7 352 256L352 264C352 277.3 362.7 288 376 288C389.3 288 400 277.3 400 264L400 256C400 194.1 349.9 144 288 144C226.1 144 176 194.1 176 256z"/><path fill="currentColor" d="M432 256C432 276.5 427.7 296 420 313.6C430.6 307.5 442.9 304 456 304C462 304 467.8 304.7 473.4 306.1C477.7 290.1 480 273.3 480 256C480 150 394 64 288 64C182 64 96 150 96 256L96 448C96 518.7 153.3 576 224 576L233.3 576C259.9 576 285.1 567.8 306.1 553.3C304.7 547.8 304 542 304 536L304 485.5C290.2 511.4 263.2 528 233.3 528L224 528C179.8 528 144 492.2 144 448L144 256C144 176.5 208.5 112 288 112C367.5 112 432 176.5 432 256zM224 256C224 220.7 252.7 192 288 192C323.3 192 352 220.7 352 256L352 264C352 277.3 362.7 288 376 288C389.3 288 400 277.3 400 264L400 256C400 194.1 349.9 144 288 144C226.1 144 176 194.1 176 256L176 296C176 309.3 186.7 320 200 320L216 320C229.3 320 240 330.7 240 344C240 357.3 229.3 368 216 368L200 368C186.7 368 176 378.7 176 392C176 405.3 186.7 416 200 416L216 416C255.8 416 288 383.8 288 344C288 306.9 260 276.4 224 272.4L224 256zM480 376C480 362.7 469.3 352 456 352C442.7 352 432 362.7 432 376L432 584C432 597.3 442.7 608 456 608C469.3 608 480 597.3 480 584L480 376zM560 408C560 394.7 549.3 384 536 384C522.7 384 512 394.7 512 408L512 552C512 565.3 522.7 576 536 576C549.3 576 560 565.3 560 552L560 408zM400 424C400 410.7 389.3 400 376 400C362.7 400 352 410.7 352 424L352 536C352 549.3 362.7 560 376 560C389.3 560 400 549.3 400 536L400 424zM640 456C640 442.7 629.3 432 616 432C602.7 432 592 442.7 592 456L592 504C592 517.3 602.7 528 616 528C629.3 528 640 517.3 640 504L640 456z"/></svg>