<svg xmlns="http://www.w3.org/2000/svg" viewBox="0 0 640 640"><!--! Font Awesome Pro 7.2.0 by @fontawesome - https://fontawesome.com License - https://fontawesome.com/license (Commercial License) Copyright 2026 Fonticons, Inc. --><path opacity=".4" fill="currentColor" d="M144 256C144 176.5 208.5 112 288 112C367.5 112 432 176.5 432 256C420.9 256 410.1 258 400 261.9L400 256C400 194.1 349.9 144 288 144C226.1 144 176 194.1 176 256L176 296C176 309.3 186.7 320 200 320L216 320C229.3 320 240 330.7 240 344C240 357.3 229.3 368 216 368L200 368C186.7 368 176 378.7 176 392C176 405.3 186.7 416 200 416L216 416C255.8 416 288 383.8 288 344C288 306.9 260 276.4 224 272.4L224 256C224 220.7 252.7 192 288 192C323.3 192 352 220.7 352 256L352 264C352 273.4 357.4 281.6 365.3 285.5C361.2 290 357.6 294.8 354.5 300.1L220 526.7C219.8 527.1 219.5 527.5 219.3 527.9C177.3 525.5 144 490.6 144 448L144 256z"/><path fill="currentColor" d="M288 112C367.5 112 432 176.5 432 256C449.1 256 465.5 260.8 479.5 269.5C479.8 265 480 260.5 480 256C480 150 394 64 288 64C182 64 96 150 96 256L96 448C96 513.3 144.9 567.2 208.1 575C208 573.4 208 571.8 208 570.3C208 555.4 211.9 540.8 219.3 527.9C177.3 525.5 144 490.6 144 448L144 256C144 176.5 208.5 112 288 112zM400 256C400 194.1 349.9 144 288 144C226.1 144 176 194.1 176 256L176 296C176 309.3 186.7 320 200 320L216 320C229.3 320 240 330.7 240 344C240 357.3 229.3 368 216 368L200 368C186.7 368 176 378.7 176 392C176 405.3 186.7 416 200 416L216 416C255.8 416 288 383.8 288 344C288 306.9 260 276.4 224 272.4L224 256C224 220.7 252.7 192 288 192C323.3 192 352 220.7 352 256L352 264C352 273.4 357.4 281.6 365.3 285.5C374.9 275 386.8 266.9 400 261.9L400 256zM261.2 551.3C257.8 557.1 256 563.7 256 570.4C256 591.1 272.8 607.8 293.4 607.8L570.5 607.8C591.2 607.8 607.9 591 607.9 570.4C607.9 563.7 606.1 557.1 602.7 551.3L468.3 324.7C460.7 311.9 446.9 304.1 432 304.1C417.1 304.1 403.3 311.9 395.7 324.7L261.2 551.3zM448 391.2L448 472.1C448 480.9 440.8 488.1 432 488.1C423.2 488.1 416 480.9 416 472.1L416 391.2C416 382.4 423.2 375.2 432 375.2C440.8 375.2 448 382.4 448 391.2zM432 520.1C445.3 520.1 456 530.8 456 544.1C456 557.4 445.3 568.1 432 568.1C418.7 568.1 408 557.4 408 544.1C408 530.8 418.7 520.1 432 520.1z"/></svg>