<svg xmlns="http://www.w3.org/2000/svg" viewBox="0 0 640 640"><!--! Font Awesome Pro 7.2.0 by @fontawesome - https://fontawesome.com License - https://fontawesome.com/license (Commercial License) Copyright 2026 Fonticons, Inc. --><path opacity=".4" fill="currentColor" d="M115.7 359.1C134 455.3 218.5 528 320 528C368.1 528 412.3 511.7 447.5 484.3L441.6 480L423 486.9C403.2 494.3 381.2 485 372.5 465.8L367 453.4C358.5 434.5 365.9 412.2 384 402.1L420.2 382C422.5 380.7 424.5 378.9 425.9 376.7L432 367.2C438 357.8 448.4 352.1 459.6 352.1C470.8 352.1 481.2 357.8 487.2 367.2L489.2 370.3C492.9 376.1 500 378.9 506.7 377L521.3 372.9C525.7 356 528.1 338.4 528.1 320.1C528.1 229.4 470 152.2 389 123.8L372.6 164.7C369.7 171.9 363.6 177.2 356.1 179.1L339.1 183.4C322.5 187.6 315.4 207.4 325.7 221.1L341.8 242.6C347.9 250.7 348.2 261.8 342.6 270.3L331.9 286.4C324.5 297.3 312 304 298.6 304L296.3 304C280.2 304 268.7 319.5 273.3 334.9L279.3 354.8C283.7 369.4 272.8 384 257.6 384C246.9 384 237 377.9 232.2 368.3L222.9 349.8C215.6 335.1 196 332 184.5 343.6L169.1 359C163.4 364.7 155.3 367.1 147.4 365.6L115.7 359.3zM208.5 412.1C210.6 403.5 219.3 398.3 227.9 400.5L259.9 408.5C268.5 410.6 273.7 419.3 271.5 427.9C269.3 436.5 260.7 441.7 252.1 439.5L220.1 431.5C211.5 429.4 206.3 420.7 208.5 412.1zM300.5 392.1L308.5 360.1C310.6 351.5 319.3 346.3 327.9 348.5C336.5 350.7 341.7 359.3 339.5 367.9L331.5 399.9C329.4 408.5 320.7 413.7 312.1 411.5C303.5 409.3 298.3 400.7 300.5 392.1zM369.7 216.8L385.7 184.8C389.7 176.9 399.3 173.7 407.2 177.6C415.1 181.5 418.3 191.2 414.4 199.1L398.4 231.1C394.4 239 384.8 242.2 376.9 238.3C369 234.4 365.8 224.7 369.7 216.8z"/><path fill="currentColor" d="M528 320C528 229.3 469.9 152.1 388.9 123.7L372.5 164.6C369.6 171.8 363.5 177.1 356 179L339 183.3C322.4 187.5 315.3 207.3 325.6 221L341.7 242.5C347.8 250.6 348.1 261.7 342.5 270.2L331.8 286.3C324.5 297.3 312 304 298.6 304L296.3 304C280.2 304 268.7 319.5 273.3 334.9L279.3 354.8C283.7 369.4 272.8 384 257.6 384C246.9 384 237 377.9 232.2 368.3L222.9 349.8C215.6 335.1 196 332 184.5 343.6L169.1 359C163.4 364.7 155.3 367.1 147.4 365.6L115.7 359.3C134 455.3 218.5 528 320 528C368.1 528 412.3 511.7 447.5 484.3L441.6 480L423 486.9C403.2 494.3 381.2 485 372.5 465.8L367 453.4C358.5 434.5 365.9 412.2 384 402.1L420.2 382C422.5 380.7 424.5 378.9 425.9 376.7L432 367.2C438 357.8 448.4 352.1 459.6 352.1C470.8 352.1 481.2 357.8 487.2 367.2L489.2 370.3C492.9 376.1 500 378.9 506.7 377L521.3 372.9C525.7 356 528.1 338.4 528.1 320.1zM64 320C64 178.6 178.6 64 320 64C461.4 64 576 178.6 576 320C576 461.4 461.4 576 320 576C178.6 576 64 461.4 64 320zM227.9 400.5L259.9 408.5C268.5 410.6 273.7 419.3 271.5 427.9C269.3 436.5 260.7 441.7 252.1 439.5L220.1 431.5C211.5 429.4 206.3 420.7 208.5 412.1C210.7 403.5 219.3 398.3 227.9 400.5zM312.1 411.5C303.5 409.4 298.3 400.7 300.5 392.1L308.5 360.1C310.6 351.5 319.3 346.3 327.9 348.5C336.5 350.7 341.7 359.3 339.5 367.9L331.5 399.9C329.4 408.5 320.7 413.7 312.1 411.5zM414.3 199.2L398.3 231.2C394.3 239.1 384.7 242.3 376.8 238.4C368.9 234.5 365.7 224.8 369.6 216.9L385.6 184.9C389.6 177 399.2 173.8 407.1 177.7C415 181.6 418.2 191.3 414.3 199.2z"/></svg>