<svg xmlns="http://www.w3.org/2000/svg" viewBox="0 0 640 640"><!--! Font Awesome Pro 7.2.0 by @fontawesome - https://fontawesome.com License - https://fontawesome.com/license (Commercial License) Copyright 2026 Fonticons, Inc. --><path opacity=".4" fill="currentColor" d="M99 320L170 367.8C178 373.2 182 382.8 180.2 392.3L163.8 476.3L247.8 459.9L251.3 459.5C259.6 459.1 267.6 463.1 272.3 470.1L320.1 541.1L367.9 470.1L370.1 467.3C375.7 461.2 384.1 458.3 392.4 460L476.4 476.4L460 392.4C458.2 382.9 462.2 373.3 470.2 367.9L541.2 320.1L470.2 272.3C462.2 266.9 458.2 257.3 460 247.8L476.4 163.8L392.4 180.2C382.9 182 373.3 178 367.9 170L320.1 99L272.3 170C266.9 178 257.3 182 247.8 180.2L163.8 163.8L180.2 247.8C182 257.3 178 266.9 170 272.3L99 320zM224 320C224 299.5 230.4 280.5 241.4 264.8C241.4 264.8 241.4 264.8 241.4 264.8C241.7 264.3 242 263.9 242.4 263.5C242.6 263.2 242.8 262.9 243 262.6C243 262.6 243 262.6 243 262.6C243.9 261.4 244.9 260.2 245.8 259C263.4 237.7 290.1 224 319.9 224C372.9 224 415.9 267 415.9 320C415.9 362.7 388 398.9 349.5 411.3C348 411.8 346.4 412.3 344.8 412.7C336.8 414.8 328.5 416 319.9 416C266.9 416 223.9 373 223.9 320z"/><path fill="currentColor" d="M320 32C328 32 335.4 36 339.9 42.6L398.7 130L502.1 109.8C509.9 108.3 518 110.7 523.7 116.4C529.4 122.1 531.8 130.2 530.3 138L510 241.3L597.4 300.1C604 304.5 608 312 608 320C608 328 604 335.4 597.4 339.9L510 398.7L530.2 502C531.7 509.8 529.3 517.9 523.6 523.6C517.9 529.3 509.8 531.7 502 530.2L398.7 510L339.9 597.4C335.4 604 328 608 320 608C312 608 304.6 604 300.1 597.4L241.3 510L137.9 530.2C130.1 531.7 122 529.3 116.3 523.6C110.6 517.9 108.2 509.8 109.7 502L130 398.7L42.6 339.9C36 335.4 32 328 32 320C32 312 36 304.6 42.6 300.1L130 241.3L109.8 137.9C108.3 130.1 110.7 122 116.4 116.3C122.1 110.6 130.2 108.2 138 109.7L241.3 129.9L300.1 42.5L301.9 40.2C306.4 35 313 32 320 32zM272.2 170C266.8 178 257.2 182 247.7 180.2L163.7 163.8L180.1 247.8C181.9 257.3 177.9 266.9 169.9 272.3L99 320L170 367.8C178 373.2 182 382.8 180.2 392.3L163.8 476.3L247.8 459.9L251.3 459.5C259.6 459.1 267.6 463.1 272.3 470.1L320.1 541.1L367.9 470.1L370.1 467.3C375.7 461.2 384.1 458.3 392.4 460L476.4 476.4L460 392.4C458.2 382.9 462.2 373.3 470.2 367.9L541.2 320.1L470.2 272.3C462.2 266.9 458.2 257.3 460 247.8L476.4 163.8L392.4 180.2C382.9 182 373.3 178 367.9 170L320.1 99L272.3 170zM320 224C325.6 224 331.1 224.5 336.5 225.4C342.3 226.4 347.1 230.5 348.9 236.1C350.8 241.7 349.4 247.8 345.4 252.1C334.6 263.6 328 279 328 295.9C328 327.5 350.9 353.8 381 359C386.8 360 391.6 364.1 393.4 369.7C395.2 375.3 393.9 381.4 389.9 385.7C372.4 404.3 347.5 415.9 320 415.9C267 415.9 224 372.9 224 319.9C224 266.9 267 223.9 320 223.9z"/></svg>