<svg xmlns="http://www.w3.org/2000/svg" viewBox="0 0 640 640"><!--! Font Awesome Pro 7.2.0 by @fontawesome - https://fontawesome.com License - https://fontawesome.com/license (Commercial License) Copyright 2026 Fonticons, Inc. --><path opacity=".4" fill="currentColor" d="M112 320C112 434.9 205.1 528 320 528C434.9 528 528 434.9 528 320C528 301 525.5 282.6 520.7 265.1L517.8 294.3C514.5 327.1 487 352 454.1 352L401.9 352C369 352 341.5 327.1 338.2 294.4L334.4 256L305.6 256L301.8 294.4C298.5 327.1 271 352 238.1 352L185.9 352C153 352 125.5 327.1 122.2 294.4L119.3 265.2C114.5 282.6 112 301 112 320zM155.3 193C158.5 192.3 161.7 192 165.1 192L259 192C273.3 192 286 198.2 294.8 208L345.3 208C354.1 198.2 366.8 192 381.1 192L475 192C478.4 192 481.6 192.3 484.8 193C446.8 143.7 387.1 112 320.1 112C253.1 112 193.3 143.7 155.3 193zM206.7 432.6C197.5 423 197.8 407.8 207.4 398.7C217 389.6 232.2 389.8 241.3 399.4C256.3 415 282.4 432 320 432C357.6 432 383.7 415 398.7 399.4C407.9 389.8 423.1 389.5 432.6 398.7C442.1 407.9 442.5 423.1 433.3 432.6C411.2 455.6 373.3 480 320 480C266.7 480 228.8 455.6 206.7 432.6z"/><path fill="currentColor" d="M320 528C205.1 528 112 434.9 112 320C112 301 114.5 282.6 119.3 265.1L122.2 294.3C125.5 327.1 153 352 185.9 352L238.1 352C271 352 298.5 327.1 301.8 294.4L305.6 256L334.4 256L338.2 294.4C341.5 327.1 369 352 401.9 352L454.1 352C487 352 514.5 327.1 517.8 294.4L520.7 265.2C525.5 282.7 528 301.1 528 320.1C528 435 434.9 528.1 320 528.1zM155.3 193C193.3 143.7 253 112 320 112C387 112 446.7 143.7 484.7 193C481.6 192.3 478.3 192 474.9 192L381 192C366.7 192 354 198.2 345.2 208L294.7 208C285.9 198.2 273.2 192 258.9 192L165 192C161.6 192 158.4 192.3 155.2 193zM320 576C461.4 576 576 461.4 576 320C576 178.6 461.4 64 320 64C178.6 64 64 178.6 64 320C64 461.4 178.6 576 320 576zM207.4 398.7C197.8 407.9 197.5 423.1 206.7 432.6C228.8 455.6 266.7 480 320 480C373.3 480 411.2 455.6 433.3 432.6C442.5 423 442.2 407.8 432.6 398.7C423 389.6 407.8 389.8 398.7 399.4C383.7 415 357.6 432 320 432C282.4 432 256.3 415 241.3 399.4C232.1 389.8 216.9 389.5 207.4 398.7z"/></svg>