<svg xmlns="http://www.w3.org/2000/svg" viewBox="0 0 640 640"><!--! Font Awesome Pro 7.2.0 by @fontawesome - https://fontawesome.com License - https://fontawesome.com/license (Commercial License) Copyright 2026 Fonticons, Inc. --><path opacity=".4" fill="currentColor" d="M112 320C112 434.9 205.1 528 320 528C434.9 528 528 434.9 528 320C528 205.1 434.9 112 320 112C205.1 112 112 205.1 112 320zM173.3 255C165 244.6 166.7 229.5 177 221.3L257 157.3C267.4 149 282.5 150.7 290.7 161C298.9 171.3 297.3 186.5 287 194.7L207 258.7C196.6 267 181.5 265.3 173.3 255zM184.8 317.8C181.6 304.9 189.4 291.9 202.3 288.7L266.3 272.7C279.2 269.5 292.2 277.3 295.4 290.2C298.6 303.1 290.8 316.1 277.9 319.3L213.9 335.3C201 338.5 188 330.7 184.8 317.8zM191 383C200.4 373.6 215.6 373.6 224.9 383L229.7 387.8C238.7 396.8 252.4 399 263.7 393.3C289.9 380.2 321.3 383 344.8 400.6L372.7 421.6C374.8 423.2 377.4 424 380 424C384 424 387.8 422 390 418.7L412.1 386.4C419.6 375.5 434.5 372.7 445.5 380.2C456.5 387.7 459.2 402.6 451.7 413.6L429.6 445.9C418.4 462.3 399.8 472.1 380 472.1C367 472.1 354.3 467.9 343.9 460.1L316 439C307.1 432.3 295.1 431.2 285.2 436.2C255.4 451.1 219.4 445.3 195.8 421.7L191 417C181.6 407.6 181.6 392.4 191 383.1zM352 272C352 236.7 373.5 208 400 208C426.5 208 448 236.7 448 272C448 307.3 426.5 336 400 336C373.5 336 352 307.3 352 272z"/><path fill="currentColor" d="M320 112C434.9 112 528 205.1 528 320C528 434.9 434.9 528 320 528C205.1 528 112 434.9 112 320C112 205.1 205.1 112 320 112zM320 576C461.4 576 576 461.4 576 320C576 178.6 461.4 64 320 64C178.6 64 64 178.6 64 320C64 461.4 178.6 576 320 576zM448 272C448 236.7 426.5 208 400 208C373.5 208 352 236.7 352 272C352 307.3 373.5 336 400 336C426.5 336 448 307.3 448 272zM277.8 319.3C290.7 316.1 298.5 303.1 295.3 290.2C292.1 277.3 279.1 269.5 266.2 272.7L202.2 288.7C189.3 291.9 181.5 304.9 184.7 317.8C187.9 330.7 200.9 338.5 213.8 335.3L277.8 319.3zM290.7 161C282.4 150.6 267.3 149 257 157.3L177 221.3C166.6 229.6 165 244.7 173.3 255C181.6 265.3 196.7 267 207 258.7L287 194.7C297.4 186.4 299 171.3 290.7 161zM451.8 413.6C459.3 402.7 456.5 387.7 445.6 380.2C434.7 372.7 419.7 375.5 412.2 386.4L390.1 418.7C387.8 422 384.1 424 380.1 424C377.5 424 374.9 423.1 372.8 421.6L344.9 400.6C321.4 383 290 380.2 263.8 393.3C252.5 399 238.8 396.7 229.8 387.8L225 383C215.6 373.6 200.4 373.6 191.1 383C181.8 392.4 181.7 407.6 191.1 416.9L195.9 421.7C219.5 445.3 255.5 451.1 285.3 436.2C295.3 431.2 307.2 432.3 316.1 439L344 460C354.4 467.8 367.1 472 380.1 472C399.9 472 418.5 462.2 429.7 445.8L451.8 413.5z"/></svg>