<svg xmlns="http://www.w3.org/2000/svg" viewBox="0 0 640 640"><!--! Font Awesome Pro 7.2.0 by @fontawesome - https://fontawesome.com License - https://fontawesome.com/license (Commercial License) Copyright 2026 Fonticons, Inc. --><path opacity=".4" fill="currentColor" d="M112 320C112 205.1 205.1 112 320 112C407.7 112 482.8 166.3 513.3 243.2C483.5 263.3 464 297.4 464 336L464 344L394.5 344C386.9 338.9 377.8 336 368 336L336 336C327.2 336 320 343.2 320 352C320 360.8 327.2 368 336 368L352 368C360.8 368 368 375.2 368 384C368 392.8 360.8 400 352 400L336 400C327.2 400 320 407.2 320 416C320 424.8 327.2 432 336 432L352 432C360.8 432 368 439.2 368 448C368 456.8 360.8 464 352 464L336 464C327.2 464 320 471.2 320 480C320 488.8 327.2 496 336 496L368 496C377.8 496 386.9 493.1 394.5 488L442.6 488C408.2 513.2 365.8 528 319.9 528C205 528 111.9 434.9 111.9 320zM172 280C172 291 181 300 192 300C203 300 212 291 212 280C212 269 221 260 232 260L248 260C259 260 268 269 268 280C268 291 277 300 288 300C299 300 308 291 308 280C308 246.9 281.1 220 248 220L232 220C198.9 220 172 246.9 172 280zM332 280C332 291 341 300 352 300C363 300 372 291 372 280C372 269 381 260 392 260L408 260C419 260 428 269 428 280C428 291 437 300 448 300C459 300 468 291 468 280C468 246.9 441.1 220 408 220L392 220C358.9 220 332 246.9 332 280z"/><path fill="currentColor" d="M36.4 139.7C62.9 98.2 98.2 62.9 139.7 36.4L205.4 55.7C138.5 84.8 84.8 138.5 55.7 205.4L36.4 139.7zM258.7 71.4C278.3 66.6 298.9 64 320 64C428 64 520.4 130.9 558 225.4C541.7 228 526.5 234.2 513.4 243.1C482.8 166.3 407.8 111.9 320.1 111.9C205.2 111.9 112.1 205 112.1 319.9C112.1 434.8 205.2 527.9 320.1 527.9C366 527.9 408.4 513.1 442.8 487.9L513.3 487.9C466.4 541.8 397.2 575.9 320.1 575.9C178.7 575.9 64.1 461.3 64.1 319.9C64.1 298.8 66.7 278.2 71.5 258.6C94.1 166.5 166.7 93.9 258.8 71.3zM24.8 100.3L2.7 25.1C1 19.5 2.6 13.4 6.7 9.3L9.3 6.7C13.4 2.6 19.5 1 25.1 2.7L100.2 24.8C71.6 46.2 46.2 71.6 24.8 100.3zM212 280C212 291 203 300 192 300C181 300 172 291 172 280C172 246.9 198.9 220 232 220L248 220C281.1 220 308 246.9 308 280C308 291 299 300 288 300C277 300 268 291 268 280C268 269 259 260 248 260L232 260C221 260 212 269 212 280zM392 260C381 260 372 269 372 280C372 291 363 300 352 300C341 300 332 291 332 280C332 246.9 358.9 220 392 220L408 220C441.1 220 468 246.9 468 280C468 291 459 300 448 300C437 300 428 291 428 280C428 269 419 260 408 260L392 260zM336 336L368 336C394.5 336 416 357.5 416 384C416 386.7 415.8 389.4 415.3 392L560 392C577.7 392 592 377.7 592 360L592 336C592 327.2 584.8 320 576 320C567.2 320 560 327.2 560 336L560 352L512 352L512 336C512 300.7 540.7 272 576 272C611.3 272 640 300.7 640 336L640 360C640 404.2 604.2 440 560 440L415.3 440C415.7 442.6 416 445.3 416 448C416 474.5 394.5 496 368 496L336 496C327.2 496 320 488.8 320 480C320 471.2 327.2 464 336 464L352 464C360.8 464 368 456.8 368 448C368 439.2 360.8 432 352 432L336 432C327.2 432 320 424.8 320 416C320 407.2 327.2 400 336 400L352 400C360.8 400 368 392.8 368 384C368 375.2 360.8 368 352 368L336 368C327.2 368 320 360.8 320 352C320 343.2 327.2 336 336 336z"/></svg>