<svg xmlns="http://www.w3.org/2000/svg" viewBox="0 0 640 640"><!--! Font Awesome Pro 7.2.0 by @fontawesome - https://fontawesome.com License - https://fontawesome.com/license (Commercial License) Copyright 2026 Fonticons, Inc. --><path opacity=".4" fill="currentColor" d="M208 320C208 381.9 258.1 432 320 432C381.9 432 432 381.9 432 320C432 258.1 381.9 208 320 208C258.1 208 208 258.1 208 320zM247.2 362C241.7 352.4 244.9 340.2 254.5 334.7C264.1 329.2 276.3 332.4 281.8 342C289.4 355.2 303.7 364 319.9 364C336.1 364 350.4 355.2 358 342C363.5 332.4 375.8 329.2 385.3 334.7C394.8 340.2 398.1 352.5 392.6 362C378.1 387.1 351 404 319.9 404C288.8 404 261.6 387.1 247.1 362zM304 288C304 301.3 293.3 312 280 312C266.7 312 256 301.3 256 288C256 274.7 266.7 264 280 264C293.3 264 304 274.7 304 288zM384 288C384 301.3 373.3 312 360 312C346.7 312 336 301.3 336 288C336 274.7 346.7 264 360 264C373.3 264 384 274.7 384 288z"/><path fill="currentColor" d="M64 128L64 200C64 213.3 74.7 224 88 224C101.3 224 112 213.3 112 200L112 128C112 119.2 119.2 112 128 112L200 112C213.3 112 224 101.3 224 88C224 74.7 213.3 64 200 64L128 64C92.7 64 64 92.7 64 128zM416 88C416 101.3 426.7 112 440 112L512 112C520.8 112 528 119.2 528 128L528 200C528 213.3 538.7 224 552 224C565.3 224 576 213.3 576 200L576 128C576 92.7 547.3 64 512 64L440 64C426.7 64 416 74.7 416 88zM88 416C74.7 416 64 426.7 64 440L64 512C64 547.3 92.7 576 128 576L200 576C213.3 576 224 565.3 224 552C224 538.7 213.3 528 200 528L128 528C119.2 528 112 520.8 112 512L112 440C112 426.7 101.3 416 88 416zM552 416C538.7 416 528 426.7 528 440L528 512C528 520.8 520.8 528 512 528L440 528C426.7 528 416 538.7 416 552C416 565.3 426.7 576 440 576L512 576C547.3 576 576 547.3 576 512L576 440C576 426.7 565.3 416 552 416zM320 208C381.9 208 432 258.1 432 320C432 381.9 381.9 432 320 432C258.1 432 208 381.9 208 320C208 258.1 258.1 208 320 208zM320 480C408.4 480 480 408.4 480 320C480 231.6 408.4 160 320 160C231.6 160 160 231.6 160 320C160 408.4 231.6 480 320 480zM280 312C293.3 312 304 301.3 304 288C304 274.7 293.3 264 280 264C266.7 264 256 274.7 256 288C256 301.3 266.7 312 280 312zM384 288C384 274.7 373.3 264 360 264C346.7 264 336 274.7 336 288C336 301.3 346.7 312 360 312C373.3 312 384 301.3 384 288zM281.9 342C276.4 332.4 264.1 329.2 254.6 334.7C245.1 340.2 241.8 352.5 247.3 362C261.8 387.1 288.9 404 320.1 404C351.3 404 378.4 387.1 392.8 362C398.3 352.4 395.1 340.2 385.5 334.7C375.9 329.2 363.7 332.4 358.2 342C350.6 355.2 336.3 364 320.1 364C303.9 364 289.6 355.2 282 342z"/></svg>