<svg xmlns="http://www.w3.org/2000/svg" viewBox="0 0 640 640"><!--! Font Awesome Pro 7.2.0 by @fontawesome - https://fontawesome.com License - https://fontawesome.com/license (Commercial License) Copyright 2026 Fonticons, Inc. --><path opacity=".4" fill="currentColor" d="M112 320C112 434.9 205.1 528 320 528C434.9 528 528 434.9 528 320C528 205.1 434.9 112 320 112C205.1 112 112 205.1 112 320zM304 288C304 332.2 268.2 368 224 368C179.8 368 144 332.2 144 288C144 243.8 179.8 208 224 208C268.2 208 304 243.8 304 288zM240 440C240 426.7 250.7 416 264 416L376 416C389.3 416 400 426.7 400 440C400 453.3 389.3 464 376 464L264 464C250.7 464 240 453.3 240 440zM496 288C496 332.2 460.2 368 416 368C371.8 368 336 332.2 336 288C336 243.8 371.8 208 416 208C460.2 208 496 243.8 496 288z"/><path fill="currentColor" d="M320 112C434.9 112 528 205.1 528 320C528 434.9 434.9 528 320 528C205.1 528 112 434.9 112 320C112 205.1 205.1 112 320 112zM320 576C461.4 576 576 461.4 576 320C576 178.6 461.4 64 320 64C178.6 64 64 178.6 64 320C64 461.4 178.6 576 320 576zM240 440C240 453.3 250.7 464 264 464L376 464C389.3 464 400 453.3 400 440C400 426.7 389.3 416 376 416L264 416C250.7 416 240 426.7 240 440zM224 328C201.9 328 184 310.1 184 288C184 278.5 187.3 269.9 192.8 263C196 277.3 208.8 288 224 288C239.2 288 252 277.3 255.2 263C260.7 269.8 264 278.5 264 288C264 310.1 246.1 328 224 328zM224 368C268.2 368 304 332.2 304 288C304 243.8 268.2 208 224 208C179.8 208 144 243.8 144 288C144 332.2 179.8 368 224 368zM416 328C393.9 328 376 310.1 376 288C376 278.5 379.3 269.9 384.8 263C388 277.3 400.8 288 416 288C431.2 288 444 277.3 447.2 263C452.7 269.8 456 278.5 456 288C456 310.1 438.1 328 416 328zM416 368C460.2 368 496 332.2 496 288C496 243.8 460.2 208 416 208C371.8 208 336 243.8 336 288C336 332.2 371.8 368 416 368z"/></svg>