<svg xmlns="http://www.w3.org/2000/svg" viewBox="0 0 640 640"><!--! Font Awesome Pro 7.2.0 by @fontawesome - https://fontawesome.com License - https://fontawesome.com/license (Commercial License) Copyright 2026 Fonticons, Inc. --><path opacity=".4" fill="currentColor" d="M154.4 445.9C192.4 495.8 252.4 528 320 528C346 528 370.9 523.2 393.9 514.5C383.8 504.4 373.8 494.4 363.7 484.3C363.5 484.1 363.2 483.8 363 483.6C350.7 491.6 336.1 496.1 320 496.1C284.7 496.1 256 474.6 256 448.1C256 421.6 284.7 400.1 320 400.1C332.7 400.1 344.5 402.9 354.4 407.6C357 403.4 360.1 399.4 363.7 395.8C365.5 394 367.4 392.3 369.4 390.8C362.7 379 360.2 365.5 361.9 352.3C343.6 336.9 332 313.8 332 288.1C332 241.7 369.6 204.1 416 204.1C454.8 204.1 487.4 230.4 497.1 266.1C506.4 267.5 515.4 270.9 523.4 276.4C503.3 182.5 419.9 112.1 320 112.1C276.7 112.1 236.5 125.3 203.2 148C204.6 150 205.9 152 207 154.1C225.9 151.4 245.8 157.3 260.3 171.8C280.6 192.1 284.1 222.9 270.6 246.8C272.6 248.3 274.5 250 276.3 251.8C300.8 276.3 300.8 315.9 276.3 340.4L202.1 414.6C188.4 428.3 172.1 439 154.4 446z"/><path fill="currentColor" d="M393.9 514.5L430.5 551C397.1 567 359.6 576 320.1 576C228.7 576 148.5 528.1 103.2 456C121 455.8 138.3 452.4 154.5 445.9C192.5 495.8 252.5 528 320.1 528C346.1 528 371 523.2 394 514.5zM320 112C276.7 112 236.5 125.2 203.2 147.9C201.2 145 198.9 142.3 196.3 139.7C185.6 129 172.1 123 158.1 121.7C202.2 85.7 258.6 64 320 64C458.1 64 570.7 173.4 575.8 310.2C572.7 312.7 569.8 315.6 567.2 318.6L532.3 283.7C529.5 280.9 526.5 278.5 523.4 276.3C503.3 182.4 419.9 112 320 112zM363 483.6C351.6 491.3 336.6 496 320 496C284.7 496 256 474.5 256 448C256 421.5 284.7 400 320 400C332.7 400 344.5 402.8 354.4 407.5C339.9 431.3 342.8 462.7 363 483.5zM497.1 266C486.2 264.4 475.1 265.7 464.7 269.8C457.3 250 438.3 236 416 236C387.3 236 364 259.3 364 288C364 300.3 368.3 311.6 375.4 320.5C367.8 329.9 363.3 340.9 361.9 352.2C343.6 336.8 332 313.7 332 288C332 241.6 369.6 204 416 204C454.8 204 487.4 230.3 497.1 266zM416.4 264C429.7 264 440.4 274.7 440.4 288C440.4 301.3 429.7 312 416.4 312C403.1 312 392.4 301.3 392.4 288C392.4 274.7 403.1 264 416.4 264zM0 314.2L0 216C0 202.7 10.7 192 24 192C37.3 192 48 202.7 48 216L48 246.3C48 249.9 52.3 251.6 54.8 249.1L136 168C144.8 159.2 159.2 159.2 168 168C176.8 176.8 176.8 191.2 168 200L120 248C115.6 252.4 115.6 259.6 120 264C124.4 268.4 131.6 268.4 136 264L200 200C208.8 191.2 223.2 191.2 232 200C240.8 208.8 240.8 223.2 232 232L168 296C163.6 300.4 163.6 307.6 168 312C172.4 316.4 179.6 316.4 184 312L216 280C224.8 271.2 239.2 271.2 248 280C256.8 288.8 256.8 303.2 248 312L173.8 386.2C154.7 405.3 128.8 416 101.8 416C45.6 416 0 370.4 0 314.2zM640 360L640 458.2C640 514.4 594.4 560 538.2 560C511.2 560 485.3 549.3 466.2 530.2L392 456C383.2 447.2 383.2 432.8 392 424C400.8 415.2 415.2 415.2 424 424L456 456C460.4 460.4 467.6 460.4 472 456C476.4 451.6 476.4 444.4 472 440L408 376C399.2 367.2 399.2 352.8 408 344C416.8 335.2 431.2 335.2 440 344L504 408C508.4 412.4 515.6 412.4 520 408C524.4 403.6 524.4 396.4 520 392L472 344C463.2 335.2 463.2 320.8 472 312C480.8 303.2 495.2 303.2 504 312L585.2 393.2C587.7 395.7 592 393.9 592 390.4L592 360.1C592 346.8 602.7 336.1 616 336.1C629.3 336.1 640 346.8 640 360.1z"/></svg>