<svg xmlns="http://www.w3.org/2000/svg" viewBox="0 0 640 640"><!--! Font Awesome Pro 7.2.0 by @fontawesome - https://fontawesome.com License - https://fontawesome.com/license (Commercial License) Copyright 2026 Fonticons, Inc. --><path opacity=".4" fill="currentColor" d="M112 320C112 365.9 126.8 408.3 152 442.7L152 408C152 372.7 180.7 344 216 344C235.6 344 253.1 352.8 264.8 366.6L299.7 331.7C324.2 307.2 363.8 307.2 388.3 331.7C392.6 336 396.2 340.9 399 346C417.9 343.3 437.8 349.2 452.3 363.7C472.6 384 476.1 414.8 462.6 438.7C464.6 440.2 466.5 441.9 468.3 443.7C472 447.4 475.1 451.4 477.7 455.7C509.1 419.3 528 371.9 528 320C528 205.1 434.9 112 320 112C205.1 112 112 205.1 112 320zM272 272C272 289.7 257.7 304 240 304C222.3 304 208 289.7 208 272C208 254.3 222.3 240 240 240C257.7 240 272 254.3 272 272zM432 272C432 289.7 417.7 304 400 304C382.3 304 368 289.7 368 272C368 254.3 382.3 240 400 240C417.7 240 432 254.3 432 272z"/><path fill="currentColor" d="M112 320C112 365.9 126.8 408.3 152 442.7L152 506.2C152 508.6 152.1 511 152.2 513.3C98.2 466.4 64 397.2 64 320C64 178.6 178.6 64 320 64C461.4 64 576 178.6 576 320C576 402.7 536.8 476.3 475.9 523.1C489.6 502.9 490.2 476.5 477.7 455.7C509.1 419.3 528 371.9 528 320C528 205.1 434.9 112 320 112C205.1 112 112 205.1 112 320zM240 240C257.7 240 272 254.3 272 272C272 289.7 257.7 304 240 304C222.3 304 208 289.7 208 272C208 254.3 222.3 240 240 240zM368 272C368 254.3 382.3 240 400 240C417.7 240 432 254.3 432 272C432 289.7 417.7 304 400 304C382.3 304 368 289.7 368 272zM192 408C192 394.7 202.7 384 216 384C229.3 384 240 394.7 240 408L240 438.3C240 441.9 244.3 443.7 246.8 441.1L328 360C336.8 351.2 351.2 351.2 360 360C368.8 368.8 368.8 383.2 360 392L312 440C307.6 444.4 307.6 451.6 312 456C316.4 460.4 323.6 460.4 328 456L392 392C400.8 383.2 415.2 383.2 424 392C432.8 400.8 432.8 415.2 424 424L360 488C355.6 492.4 355.6 499.6 360 504C364.4 508.4 371.6 508.4 376 504L408 472C416.8 463.2 431.2 463.2 440 472C448.8 480.8 448.8 495.2 440 504L365.8 578.2C346.7 597.3 320.8 608 293.8 608C237.6 608 192 562.4 192 506.2L192 408z"/></svg>