<svg xmlns="http://www.w3.org/2000/svg" viewBox="0 0 640 640"><!--! Font Awesome Pro 7.2.0 by @fontawesome - https://fontawesome.com License - https://fontawesome.com/license (Commercial License) Copyright 2026 Fonticons, Inc. --><path opacity=".4" fill="currentColor" d="M112.6 272C120.8 164.6 210.5 80 320 80C429.5 80 519.2 164.6 527.4 272C389.2 272 250.9 272 112.6 272zM173 169.7C169.5 180.2 175.2 191.5 185.6 195L214.5 204.6C210.4 210 207.9 216.7 207.9 224C207.9 241.7 222.2 256 239.9 256C257.6 256 271.9 241.7 271.9 224C275.1 224.8 278.4 225.9 281.6 227C292.1 230.5 303.4 224.8 306.9 214.4C310.4 204 304.7 192.6 294.3 189.1L198.3 157.1C187.8 153.6 176.5 159.3 173 169.7zM333 214.3C336.5 224.8 347.8 230.4 358.3 226.9L368 223.7C368 241.6 382.3 256 400 256C417.7 256 432 241.7 432 224C432 216.7 429.6 210 425.4 204.6L454.3 195C464.8 191.5 470.4 180.2 466.9 169.7C463.4 159.2 452.2 153.5 441.7 157L345.7 189C335.2 192.5 329.6 203.8 333.1 214.3z"/><path fill="currentColor" d="M575.5 272C567.2 138.1 456 32 320 32C184 32 72.8 138.1 64.5 272L112.6 272C120.8 164.6 210.5 80 320 80C429.5 80 519.2 164.6 527.4 272L575.5 272zM368 528C359.2 528 352 520.8 352 512L352 496L320 496L320 512C320 520.8 312.8 528 304 528C295.2 528 288 520.8 288 512L288 496L272 496C263.2 496 256 488.8 256 480C256 471.2 263.2 464 272 464L288 464L288 432L272 432C263.2 432 256 424.8 256 416C256 407.2 263.2 400 272 400L288 400L288 384C288 375.2 295.2 368 304 368C312.8 368 320 375.2 320 384L320 400L352 400L352 384C352 375.2 359.2 368 368 368C376.8 368 384 375.2 384 384L384 400L400 400C408.8 400 416 407.2 416 416C416 424.8 408.8 432 400 432L384 432L384 464L400 464C408.8 464 416 471.2 416 480C416 488.8 408.8 496 400 496L384 496L384 512C384 520.8 376.8 528 368 528zM240 256C257.7 256 272 241.7 272 224L272 223.7L281.7 226.9C292.2 230.4 303.5 224.7 307 214.3C310.5 203.9 304.8 192.5 294.4 189L198.4 157C187.9 153.5 176.6 159.2 173.1 169.6C169.6 180 175.3 191.4 185.7 194.9L214.6 204.5C210.5 209.9 208 216.6 208 223.9C208 241.6 222.3 255.9 240 255.9zM432 224C432 216.7 429.6 210 425.4 204.6L454.3 195C464.8 191.5 470.4 180.2 466.9 169.7C463.4 159.2 452.2 153.5 441.7 157L345.7 189C335.2 192.5 329.6 203.8 333.1 214.3C336.6 224.8 347.9 230.4 358.4 226.9L368.1 223.7L368.1 224C368.1 241.7 382.4 256 400.1 256C417.8 256 432.1 241.7 432.1 224zM64 320C28.7 320 0 348.7 0 384L0 512C0 547.3 28.7 576 64 576L576 576C611.3 576 640 547.3 640 512L640 384C640 348.7 611.3 320 576 320L64 320zM320 432L320 464L352 464L352 432L320 432zM570.4 379.9C577.1 385.7 577.9 395.7 572.1 402.5L476.1 514.5C470.3 521.2 460.3 522 453.5 516.2C446.7 510.4 446 500.4 451.8 493.6L547.8 381.6C553.6 374.9 563.6 374.1 570.4 379.9zM448 400C448 386.7 458.7 376 472 376C485.3 376 496 386.7 496 400C496 413.3 485.3 424 472 424C458.7 424 448 413.3 448 400zM552 472C565.3 472 576 482.7 576 496C576 509.3 565.3 520 552 520C538.7 520 528 509.3 528 496C528 482.7 538.7 472 552 472zM208 368C216.8 368 224 375.2 224 384L224 448C224 456.8 216.8 464 208 464C199.2 464 192 456.8 192 448L192 384C192 375.2 199.2 368 208 368zM184 504C184 490.7 194.7 480 208 480C221.3 480 232 490.7 232 504C232 517.3 221.3 528 208 528C194.7 528 184 517.3 184 504zM64 422.5C64 403.5 77.8 387.7 96 384.6L96 384.1C96 375.3 103.2 368.1 112 368.1C120.8 368.1 128 375.3 128 384.1L136 384.1C144.8 384.1 152 391.3 152 400.1C152 408.9 144.8 416.1 136 416.1L102.5 416.1C98.9 416.1 96 419 96 422.6C96 425.6 98 428.2 100.9 428.9L130.9 436.4C148 440.7 160 456.1 160 473.7C160 492.7 146.2 508.5 128 511.6L128 512.1C128 520.9 120.8 528.1 112 528.1C103.2 528.1 96 520.9 96 512.1L80 512.1C71.2 512.1 64 504.9 64 496.1C64 487.3 71.2 480.1 80 480.1L121.5 480.1C125.1 480.1 128 477.2 128 473.6C128 470.6 126 468 123.1 467.3L93.1 459.8C76 455.5 64 440.1 64 422.5z"/></svg>