<svg xmlns="http://www.w3.org/2000/svg" viewBox="0 0 640 640"><!--! Font Awesome Pro 7.2.0 by @fontawesome - https://fontawesome.com License - https://fontawesome.com/license (Commercial License) Copyright 2026 Fonticons, Inc. --><path opacity=".4" fill="currentColor" d="M112 320C112 205.1 205.1 112 320 112C434.9 112 528 205.1 528 320C528 379 503.4 432.3 464 470.1C463.1 433.9 435.4 404.3 400 400.4L400 394.6C419.4 383.4 436.3 368.2 449.4 350.1C457.2 339.4 454.8 324.4 444.1 316.6C433.4 308.8 418.4 311.2 410.6 321.9C406.4 327.6 401.7 333 396.5 337.8C387.1 308.9 360 288 328 288C292.1 288 262.4 314.2 256.9 348.6C246.3 341.3 237 332.3 229.4 321.9C221.6 311.2 206.6 308.8 195.9 316.6C185.2 324.4 182.8 339.4 190.6 350.1C207.2 372.9 229.8 391.2 256 402.7L256 424C232.8 441.4 216.1 467.1 210.3 496.7C151.3 460 112 394.6 112 320zM208 224C208 241.7 222.3 256 240 256C257.7 256 272 241.7 272 224C272 206.3 257.7 192 240 192C222.3 192 208 206.3 208 224zM368 224C368 241.7 382.3 256 400 256C417.7 256 432 241.7 432 224C432 206.3 417.7 192 400 192C382.3 192 368 206.3 368 224z"/><path fill="currentColor" d="M528 320C528 379 503.4 432.3 464 470.1C464 470.7 464 471.4 464 472L464 512C464 519.7 462.8 527 460.6 534C530.1 488.2 576 409.5 576 320C576 178.6 461.4 64 320 64C178.6 64 64 178.6 64 320C64 421.6 123.2 509.3 208.9 550.7C208.3 545.9 208 541 208 536L208 520C208 512 208.8 504.3 210.3 496.7C151.3 460 112 394.6 112 320C112 205.1 205.1 112 320 112C434.9 112 528 205.1 528 320zM272 224C272 206.3 257.7 192 240 192C222.3 192 208 206.3 208 224C208 241.7 222.3 256 240 256C257.7 256 272 241.7 272 224zM400 256C417.7 256 432 241.7 432 224C432 206.3 417.7 192 400 192C382.3 192 368 206.3 368 224C368 241.7 382.3 256 400 256zM195.9 316.6C185.2 324.4 182.8 339.4 190.6 350.1C207.2 372.9 229.8 391.2 256 402.7L256 360C256 356.1 256.3 352.3 256.9 348.6C246.3 341.3 237 332.3 229.4 321.9C221.6 311.2 206.6 308.8 195.9 316.6zM400 394.6C419.4 383.4 436.3 368.2 449.4 350.1C457.2 339.4 454.8 324.4 444.1 316.6C433.4 308.8 418.4 311.2 410.6 321.9C406.4 327.6 401.7 333 396.5 337.8C398.8 344.8 400 352.3 400 360L400 394.6zM328 496L368 496L368 504C368 517.3 378.7 528 392 528C405.3 528 416 517.3 416 504L416 472C416 458.7 405.3 448 392 448L352 448L352 360C352 346.7 341.3 336 328 336C314.7 336 304 346.7 304 360L304 452.1C276 462 256 488.7 256 520L256 536C256 575.8 288.2 608 328 608L392 608C405.3 608 416 597.3 416 584C416 570.7 405.3 560 392 560L328 560C314.7 560 304 549.3 304 536L304 520C304 506.7 314.7 496 328 496z"/></svg>