<svg xmlns="http://www.w3.org/2000/svg" viewBox="0 0 640 640"><!--! Font Awesome Pro 7.2.0 by @fontawesome - https://fontawesome.com License - https://fontawesome.com/license (Commercial License) Copyright 2026 Fonticons, Inc. --><path opacity=".4" fill="currentColor" d="M144 288C144 385.2 222.8 464 320 464C417.2 464 496 385.2 496 288C496 190.8 417.2 112 320 112C222.8 112 144 190.8 144 288zM214.4 261.6C197.8 220.6 217.6 174 258.6 157.5C270.9 152.5 284.9 158.5 289.8 170.8L319 243C335.7 219.3 364.8 205.5 395.6 209.8C439.4 215.9 469.8 256.4 463.7 300.2C461.9 313.3 449.7 322.5 436.6 320.6L359.5 309.8C371.7 336.2 369.1 368.2 349.9 392.7C322.7 427.5 272.4 433.7 237.6 406.5C227.2 398.3 225.3 383.3 233.5 372.8L281.4 311.4C252.5 308.8 226 290.4 214.4 261.7z"/><path fill="currentColor" d="M320 464C417.2 464 496 385.2 496 288C496 190.8 417.2 112 320 112C222.8 112 144 190.8 144 288C144 385.2 222.8 464 320 464zM544 288C544 403.6 456.4 498.8 344 510.7L344 528L456 528C469.3 528 480 538.7 480 552C480 565.3 469.3 576 456 576L184 576C170.7 576 160 565.3 160 552C160 538.7 170.7 528 184 528L296 528L296 510.7C183.6 498.8 96 403.6 96 288C96 164.3 196.3 64 320 64C443.7 64 544 164.3 544 288zM214.4 261.6C197.8 220.6 217.6 174 258.6 157.5C270.9 152.5 284.9 158.5 289.8 170.8L319 243C335.7 219.3 364.8 205.5 395.6 209.8C439.4 215.9 469.8 256.4 463.7 300.2C461.9 313.3 449.7 322.5 436.6 320.6L359.5 309.8C371.7 336.2 369.1 368.2 349.9 392.7C322.7 427.5 272.4 433.7 237.6 406.5C227.2 398.3 225.3 383.3 233.5 372.8L281.4 311.4C252.5 308.8 226 290.4 214.4 261.7zM320 304C328.8 304 336 296.8 336 288C336 279.2 328.8 272 320 272C311.2 272 304 279.2 304 288C304 296.8 311.2 304 320 304z"/></svg>