<svg xmlns="http://www.w3.org/2000/svg" viewBox="0 0 640 640"><!--! Font Awesome Pro 7.2.0 by @fontawesome - https://fontawesome.com License - https://fontawesome.com/license (Commercial License) Copyright 2026 Fonticons, Inc. --><path opacity=".4" fill="currentColor" d="M280.9 528L359.1 528L345.2 484.9L343.6 480L320 406.4L296.4 480L294.8 484.9L280.9 528zM403.5 509.5L404.7 513.3L414.8 544.6C415.4 546.5 415.8 548.5 415.9 550.5L424.2 550.5L403.5 509.4z"/><path fill="currentColor" d="M367.9 109.3C392.2 114.8 415 124.4 435.4 137.4C443.4 131.5 453.3 128 464 128C490.5 128 512 149.5 512 176C512 186.7 508.5 196.6 502.6 204.5C515.6 224.9 525.2 247.7 530.7 272C556 273.4 576 294.3 576 319.9C576 345.5 555.9 366.4 530.7 367.8C525.2 392.1 515.6 414.9 502.6 435.3C508.5 443.3 512 453.2 512 463.9C512 490.4 490.5 511.9 464 511.9C460.7 511.9 457.5 511.6 454.5 511L433 444.3C461.2 418.7 480.6 383.5 486.3 344L413 344C415 336.3 416 328.3 416 320C416 311.7 415 303.7 413 296L486.3 296C482.5 269.3 472.4 244.7 457.6 223.6C455.5 223.3 453.5 222.9 451.6 222.4L402.7 271.3C394.4 257.3 382.7 245.6 368.8 237.4L417.7 188.5C417.2 186.5 416.8 184.5 416.5 182.5C395.4 167.7 370.7 157.6 344.1 153.8L344.1 227.1C336.4 225.1 328.4 224.1 320.1 224.1C311.8 224.1 303.8 225.2 296.1 227.1L296.1 153.8C269.4 157.6 244.8 167.7 223.7 182.5C223.4 184.6 223 186.6 222.5 188.5L271.4 237.4C257.4 245.7 245.7 257.4 237.5 271.3L188.6 222.4C186.6 222.9 184.6 223.3 182.6 223.6C167.8 244.7 157.7 269.3 153.9 296L227.2 296C225.2 303.7 224.2 311.7 224.2 320C224.2 328.3 225.3 336.3 227.2 344L153.9 344C159.6 383.6 179 418.7 207.2 444.3L185.7 511C182.6 511.6 179.4 511.9 176.2 511.9C149.7 511.9 128.2 490.4 128.2 463.9C128.2 453.2 131.7 443.3 137.6 435.3C124.6 414.9 115 392.1 109.5 367.8C84.2 366.4 64.2 345.5 64.2 319.9C64.2 294.3 84.3 273.4 109.5 272C115 247.7 124.6 224.9 137.6 204.5C131.7 196.5 128.2 186.6 128.2 176C128.2 149.5 149.7 128 176.2 128C186.9 128 196.8 131.5 204.7 137.4C225.1 124.4 247.9 114.8 272.2 109.3C273.6 84 294.5 64 320.1 64C345.7 64 366.6 84.1 368 109.3zM294.8 484.9L280.9 528L359.1 528L345.2 484.9L343.6 480L320 406.4L296.4 480L294.8 484.9zM368 320C368 333.4 362.5 345.5 353.6 354.2C357.1 365.2 374.2 418.2 404.7 513.3L414.8 544.6C417.1 551.9 415.9 559.9 411.3 566.1C406.7 572.3 399.7 576 392 576L248 576C240.3 576 233.1 572.3 228.6 566.1C224.1 559.9 222.8 551.9 225.1 544.6L225.1 544.6C227 538.7 243.4 487.8 274.3 391.7L286.4 354.2C277.5 345.5 272 333.4 272 320C272 296 289.6 276.1 312.6 272.6C315 272.2 317.5 272 320 272C322.5 272 325 272.2 327.4 272.6C350.4 276.2 368 296 368 320z"/></svg>