<svg xmlns="http://www.w3.org/2000/svg" viewBox="0 0 640 640"><!--! Font Awesome Pro 7.2.0 by @fontawesome - https://fontawesome.com License - https://fontawesome.com/license (Commercial License) Copyright 2026 Fonticons, Inc. --><path opacity=".4" fill="currentColor" d="M176 128L176 512C176 520.8 183.2 528 192 528L448 528C456.8 528 464 520.8 464 512L464 272L376 272C336.2 272 304 239.8 304 200L304 112L192 112C183.2 112 176 119.2 176 128zM256 344C256 330.7 266.7 320 280 320L332 320C369.6 320 400 350.4 400 388C400 425.6 369.6 456 332 456L304 456L304 472C304 485.3 293.3 496 280 496C266.7 496 256 485.3 256 472L256 344zM304 368L304 408L332 408C343 408 352 399 352 388C352 377 343 368 332 368L304 368z"/><path fill="currentColor" d="M192 112L304 112L304 200C304 239.8 336.2 272 376 272L464 272L464 512C464 520.8 456.8 528 448 528L192 528C183.2 528 176 520.8 176 512L176 128C176 119.2 183.2 112 192 112zM352 131.9L444.1 224L376 224C362.7 224 352 213.3 352 200L352 131.9zM192 64C156.7 64 128 92.7 128 128L128 512C128 547.3 156.7 576 192 576L448 576C483.3 576 512 547.3 512 512L512 250.5C512 233.5 505.3 217.2 493.3 205.2L370.7 82.7C358.7 70.7 342.5 64 325.5 64L192 64zM280 320C266.7 320 256 330.7 256 344L256 472C256 485.3 266.7 496 280 496C293.3 496 304 485.3 304 472L304 456L332 456C369.6 456 400 425.6 400 388C400 350.4 369.6 320 332 320L280 320zM332 408L304 408L304 368L332 368C343 368 352 377 352 388C352 399 343 408 332 408z"/></svg>