<svg xmlns="http://www.w3.org/2000/svg" viewBox="0 0 640 640"><!--! Font Awesome Pro 7.2.0 by @fontawesome - https://fontawesome.com License - https://fontawesome.com/license (Commercial License) Copyright 2026 Fonticons, Inc. --><path opacity=".4" fill="currentColor" d="M112 128C112 119.2 119.2 112 128 112L240 112L240 200C240 239.8 272.2 272 312 272L400 272L400 400L272 400C236.7 400 208 428.7 208 464L208 528L128 528C119.2 528 112 520.8 112 512L112 128z"/><path fill="currentColor" d="M240 112L128 112C119.2 112 112 119.2 112 128L112 512C112 520.8 119.2 528 128 528L208 528L208 576L128 576C92.7 576 64 547.3 64 512L64 128C64 92.7 92.7 64 128 64L261.5 64C278.5 64 294.8 70.7 306.8 82.7L429.3 205.3C441.3 217.3 448 233.6 448 250.6L448 400.1L400 400.1L400 272.1L312 272.1C272.2 272.1 240 239.9 240 200.1L240 112.1zM380.1 224L288 131.9L288 200C288 213.3 298.7 224 312 224L380.1 224zM304 444L328 444C339 444 348 453 348 464C348 475 339 484 328 484L304 484C297.4 484 292 489.4 292 496C292 502.6 297.4 508 304 508C332.7 508 356 531.3 356 560C356 588.7 332.7 612 304 612L272 612C261 612 252 603 252 592C252 581 261 572 272 572L304 572C310.6 572 316 566.6 316 560C316 553.4 310.6 548 304 548C275.3 548 252 524.7 252 496C252 467.3 275.3 444 304 444zM420 464L420 495.6C420 515.2 424.1 534.5 432 552.3C439.9 534.5 444 515.2 444 495.6L444 464C444 453 453 444 464 444C475 444 484 453 484 464L484 495.6C484 531.1 473.5 565.9 453.8 595.4L448.7 603.1C445 608.7 438.7 612 432.1 612C425.5 612 419.2 608.7 415.5 603.1L410.4 595.4C390.7 565.8 380.2 531.1 380.2 495.6L380.2 464C380.2 453 389.2 444 400.2 444C411.2 444 420.2 453 420.2 464zM508 488C508 463.7 527.7 444 552 444L576 444C595.9 444 612 460.1 612 480C612 491 603 500 592 500C582.3 500 574.3 493.1 572.4 484L552 484C549.8 484 548 485.8 548 488L548 568C548 570.2 549.8 572 552 572L568 572C570.2 572 572 570.2 572 568L572 560C567.1 556.4 564 550.5 564 544C564 533 573 524 584 524L592 524C603 524 612 533 612 544L612 568C612 592.3 592.3 612 568 612L552 612C527.7 612 508 592.3 508 568L508 488z"/></svg>