<svg xmlns="http://www.w3.org/2000/svg" viewBox="0 0 640 640"><!--! Font Awesome Pro 7.2.0 by @fontawesome - https://fontawesome.com License - https://fontawesome.com/license (Commercial License) Copyright 2026 Fonticons, Inc. --><path opacity=".4" fill="currentColor" d="M112 128C112 119.2 119.2 112 128 112L240 112L240 200C240 239.8 272.2 272 312 272L400 272L400 400L272 400C236.7 400 208 428.7 208 464L208 528L128 528C119.2 528 112 520.8 112 512L112 128z"/><path fill="currentColor" d="M240 112L128 112C119.2 112 112 119.2 112 128L112 512C112 520.8 119.2 528 128 528L208 528L208 576L128 576C92.7 576 64 547.3 64 512L64 128C64 92.7 92.7 64 128 64L261.5 64C278.5 64 294.8 70.7 306.8 82.7L429.3 205.3C441.3 217.3 448 233.6 448 250.6L448 400.1L400 400.1L400 272.1L312 272.1C272.2 272.1 240 239.9 240 200.1L240 112.1zM380.1 224L288 131.9L288 200C288 213.3 298.7 224 312 224L380.1 224zM272 444L336 444C347 444 356 453 356 464C356 475 347 484 336 484L292 484L292 508L320 508C331 508 340 517 340 528C340 539 331 548 320 548L292 548L292 572L336 572C347 572 356 581 356 592C356 603 347 612 336 612L272 612C261 612 252 603 252 592L252 464C252 453 261 444 272 444zM400 444L432 444C465.1 444 492 470.9 492 504C492 537.1 465.1 564 432 564L420 564L420 592C420 603 411 612 400 612C389 612 380 603 380 592L380 464C380 453 389 444 400 444zM432 524C443 524 452 515 452 504C452 493 443 484 432 484L420 484L420 524L432 524zM508 496C508 467.3 531.3 444 560 444L584 444C595 444 604 453 604 464C604 475 595 484 584 484L560 484C553.4 484 548 489.4 548 496C548 502.6 553.4 508 560 508C588.7 508 612 531.3 612 560C612 588.7 588.7 612 560 612L528 612C517 612 508 603 508 592C508 581 517 572 528 572L560 572C566.6 572 572 566.6 572 560C572 553.4 566.6 548 560 548C531.3 548 508 524.7 508 496z"/></svg>