<svg xmlns="http://www.w3.org/2000/svg" viewBox="0 0 640 640"><!--! Font Awesome Pro 7.2.0 by @fontawesome - https://fontawesome.com License - https://fontawesome.com/license (Commercial License) Copyright 2026 Fonticons, Inc. --><path opacity=".4" fill="currentColor" d="M176 128L176 512C176 520.8 183.2 528 192 528L448 528C456.8 528 464 520.8 464 512L464 272L376 272C336.2 272 304 239.8 304 200L304 112L192 112C183.2 112 176 119.2 176 128zM224 344C224 330.7 234.7 320 248 320L392 320C405.3 320 416 330.7 416 344C416 357.3 405.3 368 392 368L248 368C234.7 368 224 357.3 224 344zM224 440C224 426.7 234.7 416 248 416L392 416C405.3 416 416 426.7 416 440C416 453.3 405.3 464 392 464L248 464C234.7 464 224 453.3 224 440z"/><path fill="currentColor" d="M192 112L304 112L304 200C304 239.8 336.2 272 376 272L464 272L464 512C464 520.8 456.8 528 448 528L192 528C183.2 528 176 520.8 176 512L176 128C176 119.2 183.2 112 192 112zM352 131.9L444.1 224L376 224C362.7 224 352 213.3 352 200L352 131.9zM192 64C156.7 64 128 92.7 128 128L128 512C128 547.3 156.7 576 192 576L448 576C483.3 576 512 547.3 512 512L512 250.5C512 233.5 505.3 217.2 493.3 205.2L370.7 82.7C358.7 70.7 342.5 64 325.5 64L192 64zM248 320C234.7 320 224 330.7 224 344C224 357.3 234.7 368 248 368L392 368C405.3 368 416 357.3 416 344C416 330.7 405.3 320 392 320L248 320zM248 416C234.7 416 224 426.7 224 440C224 453.3 234.7 464 248 464L392 464C405.3 464 416 453.3 416 440C416 426.7 405.3 416 392 416L248 416z"/></svg>