<svg xmlns="http://www.w3.org/2000/svg" viewBox="0 0 640 640"><!--! Font Awesome Pro 7.2.0 by @fontawesome - https://fontawesome.com License - https://fontawesome.com/license (Commercial License) Copyright 2026 Fonticons, Inc. --><path opacity=".4" fill="currentColor" d="M176 128L176 512C176 520.8 183.2 528 192 528L448 528C456.8 528 464 520.8 464 512L464 272L376 272C336.2 272 304 239.8 304 200L304 112L192 112C183.2 112 176 119.2 176 128zM208 408C208 394.7 218.7 384 232 384C245.3 384 256 394.7 256 408L256 456C256 469.3 245.3 480 232 480C218.7 480 208 469.3 208 456L208 408zM296 344C296 330.7 306.7 320 320 320C333.3 320 344 330.7 344 344L344 456C344 469.3 333.3 480 320 480C306.7 480 296 469.3 296 456L296 344zM384 376C384 362.7 394.7 352 408 352C421.3 352 432 362.7 432 376L432 456C432 469.3 421.3 480 408 480C394.7 480 384 469.3 384 456L384 376z"/><path fill="currentColor" d="M192 112L304 112L304 200C304 239.8 336.2 272 376 272L464 272L464 512C464 520.8 456.8 528 448 528L192 528C183.2 528 176 520.8 176 512L176 128C176 119.2 183.2 112 192 112zM352 131.9L444.1 224L376 224C362.7 224 352 213.3 352 200L352 131.9zM192 64C156.7 64 128 92.7 128 128L128 512C128 547.3 156.7 576 192 576L448 576C483.3 576 512 547.3 512 512L512 250.5C512 233.5 505.3 217.2 493.3 205.2L370.7 82.7C358.7 70.7 342.5 64 325.5 64L192 64zM344 344C344 330.7 333.3 320 320 320C306.7 320 296 330.7 296 344L296 456C296 469.3 306.7 480 320 480C333.3 480 344 469.3 344 456L344 344zM432 376C432 362.7 421.3 352 408 352C394.7 352 384 362.7 384 376L384 456C384 469.3 394.7 480 408 480C421.3 480 432 469.3 432 456L432 376zM256 408C256 394.7 245.3 384 232 384C218.7 384 208 394.7 208 408L208 456C208 469.3 218.7 480 232 480C245.3 480 256 469.3 256 456L256 408z"/></svg>