<svg xmlns="http://www.w3.org/2000/svg" viewBox="0 0 640 640"><!--! Font Awesome Pro 7.2.0 by @fontawesome - https://fontawesome.com License - https://fontawesome.com/license (Commercial License) Copyright 2026 Fonticons, Inc. --><path opacity=".4" fill="currentColor" d="M176 128L176 512C176 520.8 183.2 528 192 528L448 528C456.8 528 464 520.8 464 512L464 272L376 272C336.2 272 304 239.8 304 200L304 112L192 112C183.2 112 176 119.2 176 128zM208 312C208 298.7 218.7 288 232 288L288 288C323.3 288 352 316.7 352 352C352 369.9 344.7 386.1 332.8 397.7L350.6 413L375.9 390.2C385.8 381.3 400.9 382.1 409.8 392C418.7 401.9 417.9 417 408 425.9L387.3 444.5L407.5 461.8C417.6 470.4 418.7 485.6 410.1 495.6C401.5 505.6 386.3 506.8 376.3 498.2L351.3 476.8L327.9 497.8C318 506.7 302.9 505.9 294 496C285.1 486.1 285.9 471 295.8 462.1L314.5 445.3L280.3 416L255.8 416L255.8 456C255.8 469.3 245.1 480 231.8 480C218.5 480 207.8 469.3 207.8 456L207.8 312zM256 336L256 368L288 368C290.6 368 293 367.4 295.2 366.3C295.4 366.1 295.5 365.9 295.9 365.9C300.8 363.2 304.1 357.9 304.1 351.9C304.1 343.1 296.9 335.9 288.1 335.9L256.1 335.9z"/><path fill="currentColor" d="M192 112L304 112L304 200C304 239.8 336.2 272 376 272L464 272L464 512C464 520.8 456.8 528 448 528L192 528C183.2 528 176 520.8 176 512L176 128C176 119.2 183.2 112 192 112zM352 131.9L444.1 224L376 224C362.7 224 352 213.3 352 200L352 131.9zM192 64C156.7 64 128 92.7 128 128L128 512C128 547.3 156.7 576 192 576L448 576C483.3 576 512 547.3 512 512L512 250.5C512 233.5 505.3 217.2 493.3 205.2L370.7 82.7C358.7 70.7 342.5 64 325.5 64L192 64zM232 288C218.7 288 208 298.7 208 312L208 456C208 469.3 218.7 480 232 480C245.3 480 256 469.3 256 456L256 416L280.5 416L314.7 445.3L296 462.1C286.1 471 285.3 486.1 294.2 496C303.1 505.9 318.2 506.7 328.1 497.8L351.5 476.8L376.5 498.2C386.6 506.8 401.7 505.7 410.3 495.6C418.9 485.5 417.8 470.4 407.7 461.8L387.5 444.5L408.2 425.9C418.1 417 418.9 401.9 410 392C401.1 382.1 386 381.3 376.1 390.2L350.8 413L333 397.7C344.8 386.1 352.2 369.9 352.2 352C352.2 316.7 323.5 288 288.2 288L232.2 288zM295.8 366L295.6 365.8L295.1 366.3C292.9 367.4 290.5 368 287.9 368L255.9 368L255.9 336L287.9 336C296.7 336 303.9 343.2 303.9 352C303.9 358 300.6 363.2 295.7 366z"/></svg>