<svg xmlns="http://www.w3.org/2000/svg" viewBox="0 0 640 640"><!--! Font Awesome Pro 7.2.0 by @fontawesome - https://fontawesome.com License - https://fontawesome.com/license (Commercial License) Copyright 2026 Fonticons, Inc. --><path opacity=".4" fill="currentColor" d="M208 272L208 496L432 496L432 272L208 272z"/><path fill="currentColor" d="M160 56C160 42.7 170.7 32 184 32L456 32C469.3 32 480 42.7 480 56C480 69.3 469.3 80 456 80L184 80C170.7 80 160 69.3 160 56zM112 152C112 138.7 122.7 128 136 128L504 128C517.3 128 528 138.7 528 152C528 165.3 517.3 176 504 176L136 176C122.7 176 112 165.3 112 152zM160 272L128 272C119.2 272 112 279.2 112 288L112 312L160 312L160 272zM160 224L512 224C547.3 224 576 252.7 576 288L576 480C576 515.3 547.3 544 512 544L128 544C92.7 544 64 515.3 64 480L64 288C64 252.7 92.7 224 128 224L160 224zM208 496L432 496L432 272L208 272L208 496zM480 272L480 312L528 312L528 288C528 279.2 520.8 272 512 272L480 272zM528 360L480 360L480 408L528 408L528 360zM528 456L480 456L480 496L512 496C520.8 496 528 488.8 528 480L528 456zM160 496L160 456L112 456L112 480C112 488.8 119.2 496 128 496L160 496zM112 408L160 408L160 360L112 360L112 408z"/></svg>