<svg xmlns="http://www.w3.org/2000/svg" viewBox="0 0 640 640"><!--! Font Awesome Pro 7.2.0 by @fontawesome - https://fontawesome.com License - https://fontawesome.com/license (Commercial License) Copyright 2026 Fonticons, Inc. --><path opacity=".4" fill="currentColor" d="M102.6 259.3L123.7 296.2C132.1 311 132.1 329.1 123.7 343.8L102.6 380.7L161.3 353.8C179.4 345.5 200.7 349.2 214.9 363.1C223.3 371.4 232.7 379.5 242.8 387.1C254 395.5 266.3 403.4 279.6 410.1C296.3 418.5 306.6 435.9 305.9 454.5L305.1 478.1L351.3 441.8C359 435.7 368.5 432.2 378.3 431.6C423 429.1 462 410.6 493.2 387.1C522.6 365 544.5 339.1 557.2 319.9C544.5 300.7 522.6 274.8 493.2 252.7C461.9 229.2 423 210.7 378.3 208.2C368.5 207.7 359.1 204.1 351.3 198L304.9 161.5L305.5 185.8C306 204.3 295.8 221.5 279.2 229.9C266.1 236.6 253.8 244.4 242.7 252.7C232.5 260.3 223.2 268.5 214.8 276.7C200.6 290.6 179.3 294.3 161.2 286L102.6 259.3zM480 320C480 337.7 465.7 352 448 352C430.3 352 416 337.7 416 320C416 302.3 430.3 288 448 288C465.7 288 480 302.3 480 320z"/><path fill="currentColor" d="M279.3 230C266.2 236.7 253.9 244.5 242.8 252.8C232.6 260.4 223.3 268.6 214.9 276.8C200.7 290.7 179.4 294.4 161.3 286.1L102.6 259.2L123.7 296.1C132.1 310.9 132.1 329 123.7 343.7L102.6 380.6L161.3 353.7C179.4 345.4 200.7 349.1 214.9 363C223.3 371.3 232.7 379.4 242.8 387C254 395.4 266.3 403.3 279.6 410C296.3 418.4 306.6 435.8 305.9 454.4L305.1 478L351.3 441.7C359 435.6 368.5 432.1 378.3 431.5C423 429 462 410.5 493.2 387C522.6 364.9 544.5 339 557.2 319.8C544.5 300.6 522.6 274.7 493.2 252.6C461.9 229.1 423 210.6 378.3 208.1C368.5 207.6 359.1 204 351.3 197.9L304.9 161.4L305.5 185.7C306 204.2 295.8 221.4 279.2 229.8zM40.4 437.6C31 427.3 29.3 412.2 36.2 400.1L82 320L36.2 239.9C29.3 227.8 31 212.7 40.4 202.4C49.8 192.1 64.7 189.1 77.3 194.9L181.2 242.5C191 232.9 202 223.3 213.9 214.4C227 204.6 241.6 195.2 257.5 187.2L256 128.9C255.7 116.5 262.5 105 273.6 99.5C284.7 94 298 95.3 307.7 102.9L381 160.4C437.6 163.6 485.5 187 522.1 214.4C561.3 243.8 589.3 279.1 603.7 303.9C609.5 313.8 609.5 326.1 603.7 336C589.3 360.8 561.2 396.1 522.1 425.5C485.5 453 437.6 476.4 381 479.5L307.8 537C298 544.7 284.7 546 273.6 540.4C262.5 534.8 255.7 523.2 256.1 510.8L258 452.9C241.9 444.8 227.2 435.4 214 425.5C202 416.5 191.1 407 181.3 397.4L77.3 445.1C64.7 450.9 49.7 447.9 40.4 437.6zM448 288C465.7 288 480 302.3 480 320C480 337.7 465.7 352 448 352C430.3 352 416 337.7 416 320C416 302.3 430.3 288 448 288z"/></svg>