<svg xmlns="http://www.w3.org/2000/svg" viewBox="0 0 640 640"><!--! Font Awesome Pro 7.2.0 by @fontawesome - https://fontawesome.com License - https://fontawesome.com/license (Commercial License) Copyright 2026 Fonticons, Inc. --><path opacity=".4" fill="currentColor" d="M102.6 259.3L123.7 296.2C132.1 311 132.1 329.1 123.7 343.8L102.6 380.7L156.9 355.8C176.1 347 198.8 351.8 212.9 367.6C222.1 378 232.3 388.2 243.6 397.7C277.3 426.2 319.6 447.9 368.1 447.9C416.6 447.9 458.9 426.1 492.6 397.7C522.9 372.2 545.3 342 557.9 319.9C545.3 297.8 522.9 267.7 492.6 242.1C458.9 213.6 416.6 191.9 368.1 191.9C319.6 191.9 277.3 213.6 243.6 242.1C232.3 251.6 222.1 261.8 212.9 272.2C198.9 288 176.2 292.8 156.9 284L102.6 259.3zM480 320C480 337.7 465.7 352 448 352C430.3 352 416 337.7 416 320C416 302.3 430.3 288 448 288C465.7 288 480 302.3 480 320z"/><path fill="currentColor" d="M212.8 367.7C222 378.1 232.2 388.3 243.5 397.8C277.2 426.3 319.5 448 368 448C416.5 448 458.8 426.2 492.5 397.8C522.8 372.3 545.2 342.1 557.8 320C545.2 297.9 522.8 267.8 492.5 242.2C458.8 213.7 416.5 192 368 192C319.5 192 277.2 213.7 243.5 242.2C232.2 251.7 222 261.9 212.8 272.3C198.8 288.1 176.1 292.9 156.8 284.1L102.5 259.2L123.6 296.1C132 310.9 132 329 123.6 343.7L102.5 380.6L156.8 355.7C176 346.9 198.7 351.7 212.8 367.5zM36.2 400.1L82 320L36.2 239.9C29.3 227.8 31 212.7 40.4 202.4C49.8 192.1 64.7 189.1 77.3 194.9L176.8 240.5C187.3 228.6 199.3 216.7 212.5 205.5C251.7 172.4 304.5 144 368 144C431.5 144 484.3 172.5 523.5 205.5C562.6 238.5 590.4 277.9 604.5 305.3C609.2 314.5 609.2 325.4 604.5 334.6C590.4 362 562.6 401.4 523.5 434.4C484.3 467.5 431.5 495.9 368 495.9C304.5 495.9 251.7 467.4 212.5 434.4C199.3 423.2 187.4 411.3 176.8 399.4L77.3 445.1C64.7 450.9 49.7 447.9 40.4 437.6C31.1 427.3 29.3 412.2 36.2 400.1zM448 288C465.7 288 480 302.3 480 320C480 337.7 465.7 352 448 352C430.3 352 416 337.7 416 320C416 302.3 430.3 288 448 288z"/></svg>