<svg xmlns="http://www.w3.org/2000/svg" viewBox="0 0 640 640"><!--! Font Awesome Pro 7.2.0 by @fontawesome - https://fontawesome.com License - https://fontawesome.com/license (Commercial License) Copyright 2026 Fonticons, Inc. --><path opacity=".4" fill="currentColor" d="M176 384C176 463.5 240.5 528 320 528C399.5 528 464 463.5 464 384C464 326.6 430.4 277 381.7 253.8C373.3 249.8 368 241.4 368 232.1L368 111.9L272 111.9L272 232.1C272 241.4 266.7 249.8 258.3 253.8C209.6 276.9 176 326.5 176 384zM208 376C208 327.4 258.1 288 320 288C381.9 288 432 327.4 432 376C432 405.9 413 432.3 384 448.2L384 464C384 481.7 369.7 496 352 496L288 496C270.3 496 256 481.7 256 464L256 448.2C227 432.3 208 405.9 208 376z"/><path fill="currentColor" d="M216 112L224 112L224 217.7C166.6 250.9 128 312.9 128 384C128 490 214 576 320 576C426 576 512 490 512 384C512 312.9 473.4 250.9 416 217.7L416 112L424 112C437.3 112 448 101.3 448 88C448 74.7 437.3 64 424 64L216 64C202.7 64 192 74.7 192 88C192 101.3 202.7 112 216 112zM272 232.2L272 112L368 112L368 232.2C368 241.5 373.3 249.9 381.7 253.9C430.4 277 464 326.6 464 384.1C464 463.6 399.5 528.1 320 528.1C240.5 528.1 176 463.5 176 384C176 326.6 209.6 277 258.3 253.8C266.7 249.8 272 241.4 272 232.1zM432 376C432 327.4 381.9 288 320 288C258.1 288 208 327.4 208 376C208 405.9 227 432.3 256 448.2L256 464C256 481.7 270.3 496 288 496L352 496C369.7 496 384 481.7 384 464L384 448.2C413 432.3 432 405.9 432 376zM280 352C293.3 352 304 362.7 304 376C304 389.3 293.3 400 280 400C266.7 400 256 389.3 256 376C256 362.7 266.7 352 280 352zM336 376C336 362.7 346.7 352 360 352C373.3 352 384 362.7 384 376C384 389.3 373.3 400 360 400C346.7 400 336 389.3 336 376z"/></svg>