<svg xmlns="http://www.w3.org/2000/svg" viewBox="0 0 640 640"><!--! Font Awesome Pro 7.2.0 by @fontawesome - https://fontawesome.com License - https://fontawesome.com/license (Commercial License) Copyright 2026 Fonticons, Inc. --><path opacity=".4" fill="currentColor" d="M112 160C112 151.2 119.2 144 128 144L160 144L160 240C160 257.7 174.3 272 192 272L352 272C369.7 272 384 257.7 384 240L384 150.6L459.3 225.9C462.3 228.9 464 233 464 237.2L464 271.9C409.2 271.9 359.9 294.8 324.9 331.6C314.5 324.2 301.8 319.9 288 319.9C252.7 319.9 224 348.6 224 383.9C224 414 244.8 439.3 272.8 446.1C272.3 452 272 457.9 272 463.9C272 474.8 272.9 485.5 274.7 495.9L128 496C119.2 496 112 488.8 112 480L112 160z"/><path fill="currentColor" d="M128 144C119.2 144 112 151.2 112 160L112 480C112 488.8 119.2 496 128 496L274.7 496C277.5 512.8 282.5 528.9 289.5 544L128 544C92.7 544 64 515.3 64 480L64 160C64 124.7 92.7 96 128 96L370.7 96C387.7 96 404 102.7 416 114.7L493.3 192C505.3 204 512 220.3 512 237.3L512 278.1C496.7 274.2 480.6 272.1 464 272.1L464 237.4C464 233.2 462.3 229.1 459.3 226.1L384 150.6L384 240C384 257.7 369.7 272 352 272L192 272C174.3 272 160 257.7 160 240L160 144L128 144zM272.8 446.2C244.8 439.4 224 414.1 224 384C224 348.7 252.7 320 288 320C301.7 320 314.4 324.3 324.9 331.7C296 362.1 276.9 402 272.8 446.2zM208 144L208 224L336 224L336 144L208 144zM320 464C320 384.5 384.5 320 464 320C543.5 320 608 384.5 608 464C608 543.5 543.5 608 464 608C384.5 608 320 543.5 320 464zM460.7 396.7C454.5 402.9 454.5 413.1 460.7 419.3L489.4 448L400 448C391.2 448 384 455.2 384 464C384 472.8 391.2 480 400 480L489.4 480L460.7 508.7C454.5 514.9 454.5 525.1 460.7 531.3C466.9 537.5 477.1 537.5 483.3 531.3L539.3 475.3C545.5 469.1 545.5 458.9 539.3 452.7L483.3 396.7C477.1 390.5 466.9 390.5 460.7 396.7z"/></svg>