<svg xmlns="http://www.w3.org/2000/svg" viewBox="0 0 640 640"><!--! Font Awesome Pro 7.2.0 by @fontawesome - https://fontawesome.com License - https://fontawesome.com/license (Commercial License) Copyright 2026 Fonticons, Inc. --><path opacity=".4" fill="currentColor" d=""/><path fill="currentColor" d="M112 232L112 336L240 336L240 232C240 201.1 214.9 176 184 176L168 176C137.1 176 112 201.1 112 232zM112 384L112 488C112 501.3 101.3 512 88 512C74.7 512 64 501.3 64 488L64 232C64 174.6 110.6 128 168 128L184 128C241.4 128 288 174.6 288 232L288 488C288 501.3 277.3 512 264 512C250.7 512 240 501.3 240 488L240 384L112 384zM456 304C425.1 304 400 329.1 400 360L400 408C400 438.9 425.1 464 456 464L472 464C502.9 464 528 438.9 528 408L528 360C528 329.1 502.9 304 472 304L456 304zM529 273C532 263.2 541.1 256 552 256C565.3 256 576 266.7 576 280L576 398.5C576 423.4 580 448.2 587.9 471.9L590.8 480.5C595 493.1 588.2 506.7 575.6 510.9C563 515.1 549.4 508.3 545.2 495.7L542.3 487.1C542.1 486.5 541.9 485.9 541.7 485.2C523.2 501.9 498.8 512.1 471.9 512.1L455.9 512.1C398.5 512.1 351.9 465.5 351.9 408.1L351.9 360.1C351.9 302.7 398.5 256.1 455.9 256.1L471.9 256.1C493 256.1 512.6 262.4 528.9 273.1z"/></svg>