<svg xmlns="http://www.w3.org/2000/svg" viewBox="0 0 640 640"><!--! Font Awesome Pro 7.2.0 by @fontawesome - https://fontawesome.com License - https://fontawesome.com/license (Commercial License) Copyright 2026 Fonticons, Inc. --><path opacity=".4" fill="currentColor" d="M176 176L176 464L464 464L464 176L176 176z"/><path fill="currentColor" d="M576 152C576 138.7 565.3 128 552 128L512 128L512 88C512 74.7 501.3 64 488 64C474.7 64 464 74.7 464 88L464 128L176 128L176 88C176 74.7 165.3 64 152 64C138.7 64 128 74.7 128 88L128 128L88 128C74.7 128 64 138.7 64 152C64 165.3 74.7 176 88 176L128 176L128 464L88 464C74.7 464 64 474.7 64 488C64 501.3 74.7 512 88 512L128 512L128 552C128 565.3 138.7 576 152 576C165.3 576 176 565.3 176 552L176 512L464 512L464 552C464 565.3 474.7 576 488 576C501.3 576 512 565.3 512 552L512 512L552 512C565.3 512 576 501.3 576 488C576 474.7 565.3 464 552 464L512 464L512 176L552 176C565.3 176 576 165.3 576 152zM176 464L176 176L464 176L464 464L176 464z"/></svg>