<svg xmlns="http://www.w3.org/2000/svg" viewBox="0 0 640 640"><!--! Font Awesome Pro 7.2.0 by @fontawesome - https://fontawesome.com License - https://fontawesome.com/license (Commercial License) Copyright 2026 Fonticons, Inc. --><path opacity=".4" fill="currentColor" d="M113.5 299.9C123.1 365.6 179.7 416 248 416C275 416 300.1 408.2 321.2 394.6C329.1 389.5 339.3 389.6 347.2 394.7C355.1 399.8 359.3 409.1 357.8 418.4C351.5 459.9 331 498.1 299.8 526.5C365.5 516.9 415.9 460.3 415.9 392C415.9 365 408.1 339.9 394.5 318.8C389.4 310.9 389.5 300.7 394.6 292.8C399.7 284.9 409 280.7 418.3 282.2C459.8 288.5 498 309 526.4 340.2C516.8 274.5 460.2 224.1 391.8 224.1C364.8 224.1 339.7 231.9 318.6 245.5C310.7 250.6 300.5 250.5 292.6 245.4C284.7 240.3 280.5 231 282 221.7C288.3 180.2 308.8 142 340 113.6C274.3 123.2 223.9 179.8 223.9 248.1C223.9 275.1 231.7 300.2 245.3 321.3C250.4 329.2 250.3 339.4 245.2 347.3C240.1 355.2 230.8 359.4 221.5 357.9C180 351.6 141.8 331.1 113.4 299.9zM352 320C352 337.7 337.7 352 320 352C302.3 352 288 337.7 288 320C288 302.3 302.3 288 320 288C337.7 288 352 302.3 352 320z"/><path fill="currentColor" d="M224 248C224 179.7 274.4 123.1 340.1 113.5C308.9 141.9 288.5 180.1 282.1 221.6C280.7 230.9 284.8 240.2 292.7 245.3C300.6 250.4 310.8 250.5 318.7 245.4C339.8 231.9 364.9 224 391.9 224C460.2 224 516.8 274.4 526.5 340.1C498.1 308.9 459.9 288.5 418.4 282.1C409.1 280.7 399.8 284.8 394.7 292.7C389.6 300.6 389.5 310.8 394.6 318.7C408.1 339.8 416 364.9 416 391.9C416 460.2 365.6 516.8 299.9 526.4C331.1 498 351.5 459.8 357.9 418.3C359.3 409 355.2 399.7 347.3 394.6C339.4 389.5 329.2 389.4 321.3 394.5C300.2 408 275.1 415.9 248.1 415.9C179.8 415.9 123.2 365.5 113.6 299.8C142 331 180.2 351.4 221.7 357.8C231 359.2 240.3 355.1 245.4 347.2C250.5 339.3 250.6 329.1 245.5 321.2C231.8 300.1 224 275 224 248zM360 64C258.4 64 176 146.4 176 248C176 263.9 178 279.3 181.8 294C165.4 284.6 151 271.8 139.6 256.1L126.6 238.2C120.1 229.2 109.7 224 98.6 224C79.5 224 64 239.5 64 258.6L64 280C64 381.6 146.4 464 248 464C263.9 464 279.3 462 294 458.2C284.6 474.6 271.8 489 256.1 500.4L238.2 513.4C229.2 519.9 224 530.3 224 541.4C224 560.5 239.5 576 258.6 576L280 576C381.6 576 464 493.6 464 392C464 376.1 462 360.7 458.2 346C474.6 355.4 489 368.2 500.4 383.9L513.4 401.8C519.9 410.8 530.3 416 541.4 416C560.5 416 576 400.5 576 381.4L576 360C576 258.4 493.6 176 392 176C376.1 176 360.7 178 346 181.8C355.4 165.4 368.2 151 383.9 139.6L401.8 126.6L401.8 126.6C410.8 120.1 416 109.7 416 98.6C416 79.5 400.5 64 381.4 64L360 64zM320 352C337.7 352 352 337.7 352 320C352 302.3 337.7 288 320 288C302.3 288 288 302.3 288 320C288 337.7 302.3 352 320 352z"/></svg>