<svg xmlns="http://www.w3.org/2000/svg" viewBox="0 0 640 640"><!--! Font Awesome Pro 7.2.0 by @fontawesome - https://fontawesome.com License - https://fontawesome.com/license (Commercial License) Copyright 2026 Fonticons, Inc. --><path opacity=".4" fill="currentColor" d="M144 320L144 480C144 488.8 151.2 496 160 496L320 496L320 320L144 320zM320 144L320 320L496 320L496 160C496 151.2 488.8 144 480 144L320 144z"/><path fill="currentColor" d="M320 496L160 496C151.2 496 144 488.8 144 480L144 320L320 320L320 496zM496 320L320 320L320 144L480 144C488.8 144 496 151.2 496 160L496 320zM160 544L480 544C515.3 544 544 515.3 544 480L544 160C544 124.7 515.3 96 480 96L160 96C124.7 96 96 124.7 96 160L96 480C96 513.1 121.2 540.4 153.5 543.7L160 544z"/></svg>