<svg xmlns="http://www.w3.org/2000/svg" viewBox="0 0 640 640"><!--! Font Awesome Pro 7.2.0 by @fontawesome - https://fontawesome.com License - https://fontawesome.com/license (Commercial License) Copyright 2026 Fonticons, Inc. --><path opacity=".4" fill="currentColor" d="M176 128L176 480C176 506.5 197.5 528 224 528L416 528C442.5 528 464 506.5 464 480L464 128C464 119.2 456.8 112 448 112L192 112C183.2 112 176 119.2 176 128zM208 400C208 391.2 215.2 384 224 384L240 384L240 368C240 359.2 247.2 352 256 352C264.8 352 272 359.2 272 368L272 384L288 384C296.8 384 304 391.2 304 400C304 408.8 296.8 416 288 416L272 416L272 432C272 440.8 264.8 448 256 448C247.2 448 240 440.8 240 432L240 416L224 416C215.2 416 208 408.8 208 400zM224 176C224 167.2 231.2 160 240 160L400 160C408.8 160 416 167.2 416 176L416 288C416 305.7 401.7 320 384 320L256 320C238.3 320 224 305.7 224 288L224 176zM384 424C384 437.3 373.3 448 360 448C346.7 448 336 437.3 336 424C336 410.7 346.7 400 360 400C373.3 400 384 410.7 384 424zM432 376C432 389.3 421.3 400 408 400C394.7 400 384 389.3 384 376C384 362.7 394.7 352 408 352C421.3 352 432 362.7 432 376z"/><path fill="currentColor" d="M192 112C183.2 112 176 119.2 176 128L176 480C176 506.5 197.5 528 224 528L416 528C442.5 528 464 506.5 464 480L464 128C464 119.2 456.8 112 448 112L192 112zM128 128C128 92.7 156.7 64 192 64L448 64C483.3 64 512 92.7 512 128L512 480C512 533 469 576 416 576L224 576C171 576 128 533 128 480L128 128zM360 400C373.3 400 384 410.7 384 424C384 437.3 373.3 448 360 448C346.7 448 336 437.3 336 424C336 410.7 346.7 400 360 400zM384 376C384 362.7 394.7 352 408 352C421.3 352 432 362.7 432 376C432 389.3 421.3 400 408 400C394.7 400 384 389.3 384 376zM256 352C264.8 352 272 359.2 272 368L272 384L288 384C296.8 384 304 391.2 304 400C304 408.8 296.8 416 288 416L272 416L272 432C272 440.8 264.8 448 256 448C247.2 448 240 440.8 240 432L240 416L224 416C215.2 416 208 408.8 208 400C208 391.2 215.2 384 224 384L240 384L240 368C240 359.2 247.2 352 256 352zM240 160L400 160C408.8 160 416 167.2 416 176L416 288C416 305.7 401.7 320 384 320L256 320C238.3 320 224 305.7 224 288L224 176C224 167.2 231.2 160 240 160z"/></svg>