<svg xmlns="http://www.w3.org/2000/svg" viewBox="0 0 640 640"><!--! Font Awesome Pro 7.2.0 by @fontawesome - https://fontawesome.com License - https://fontawesome.com/license (Commercial License) Copyright 2026 Fonticons, Inc. --><path opacity=".4" fill="currentColor" d="M112 320C112 434.9 205.1 528 320 528C434.9 528 528 434.9 528 320C528 205.1 434.9 112 320 112C205.1 112 112 205.1 112 320zM264 416C264 386 287.6 361.5 317.3 360.1L377.8 214.8C382.9 202.6 396.9 196.8 409.2 201.9C421.5 207 427.2 221 422.1 233.3L361.6 378.5C370.5 388.4 376 401.6 376 416C376 446.9 350.9 472 320 472C289.1 472 264 446.9 264 416z"/><path fill="currentColor" d="M320 112C434.9 112 528 205.1 528 320C528 434.9 434.9 528 320 528C205.1 528 112 434.9 112 320C112 205.1 205.1 112 320 112zM320 576C461.4 576 576 461.4 576 320C576 178.6 461.4 64 320 64C178.6 64 64 178.6 64 320C64 461.4 178.6 576 320 576zM376 416C376 401.6 370.6 388.4 361.6 378.5L422.1 233.2C427.2 221 421.4 206.9 409.2 201.8C397 196.7 382.9 202.5 377.8 214.7L317.3 360.1C287.6 361.5 264 386 264 416C264 446.9 289.1 472 320 472C350.9 472 376 446.9 376 416z"/></svg>