<svg xmlns="http://www.w3.org/2000/svg" viewBox="0 0 640 640"><!--! Font Awesome Pro 7.2.0 by @fontawesome - https://fontawesome.com License - https://fontawesome.com/license (Commercial License) Copyright 2026 Fonticons, Inc. --><path opacity=".4" fill="currentColor" d="M240.2 240L399.9 240C400.2 248.5 400.1 256.8 399.8 264.9C398.3 297.8 391.3 323.9 378.9 341.3C367.5 357.2 350 368 320.1 368C290.2 368 272.7 357.2 261.3 341.3C248.9 324 241.9 297.8 240.4 264.9C240 256.8 240 248.5 240.3 240z"/><path fill="currentColor" d="M230.2 48.1C233.6 38.4 242.7 32 252.9 32L387.2 32C397.4 32 406.5 38.4 409.9 48.1C430 105.4 451.2 192.8 447.7 267.1C446 304.2 438.1 341.1 417.9 369.2C400.8 393.1 376.2 408.9 344.1 414.1L344.1 560L392.1 560C405.4 560 416.1 570.7 416.1 584C416.1 597.3 405.4 608 392.1 608L248.1 608C234.8 608 224.1 597.3 224.1 584C224.1 570.7 234.8 560 248.1 560L296.1 560L296.1 414.2C264 409 239.3 393.2 222.2 369.3C202.1 341.1 194.1 304.3 192.4 267.2C189 192.8 210.2 105.5 230.2 48.2zM240.2 240C239.9 248.5 240 256.8 240.3 264.9C241.8 297.8 248.8 323.9 261.2 341.3C272.6 357.2 290.1 368 320 368C349.9 368 367.4 357.2 378.8 341.3C391.2 324 398.2 297.8 399.7 264.9C400.1 256.8 400.1 248.5 399.8 240L240.2 240zM244.4 192L395.7 192C390.3 152.5 380.4 112.8 369.9 80L270.1 80C259.6 112.8 249.8 152.5 244.4 192z"/></svg>