<svg xmlns="http://www.w3.org/2000/svg" viewBox="0 0 640 640"><!--! Font Awesome Pro 7.2.0 by @fontawesome - https://fontawesome.com License - https://fontawesome.com/license (Commercial License) Copyright 2026 Fonticons, Inc. --><path opacity=".4" fill="currentColor" d="M112 320C112 434.9 205.1 528 320 528C425.5 528 512.7 449.4 526.2 347.5L497 340.3C486.4 337.6 477.9 329.8 474.4 319.4L457.5 268.7C452.1 252.6 460.2 235.2 476 228.9L501.6 218.7C467.6 158 404 116 330.4 112.4L332.8 116.6C339.5 128.3 338.1 143 329.3 153.3L313.6 171.6C303.4 183.5 303.3 200.9 313.3 212.9L326.9 229C332.3 235.5 332.8 244.8 328.1 251.8C323.3 259 314.3 262 306.2 259.3L283 251.7C276 249.4 268.3 249.9 261.7 253.2L255.8 256.2C246.8 260.7 242.5 271.2 245.6 280.7C247.2 285.4 250.4 289.4 254.8 291.9L289.3 311.6C299 317.1 309.9 320 321.1 320L364.2 320C376.9 320 389.1 325.1 398.1 334.1L402 338C411 347 416.1 359.2 416.1 371.9L416.1 380.2C416.1 397.4 406.9 413.3 391.9 421.9L382.7 427.2C368.2 435.5 357.5 449.1 352.9 465.2L351.4 470.6C346.9 486.5 334.4 498.9 318.6 503.4C303.3 507.8 288.1 496.3 288.1 480.4L288.1 450C288.1 439 281.9 429 272.1 424.1C262.3 419.2 256.1 409.2 256.1 398.2L256.1 358.3C256.1 340.4 244.3 324.7 227.1 319.8L169.2 303.2C153.1 298.6 139.5 287.9 131.2 273.4L121.7 257C115.4 276.9 112 298 112 320z"/><path fill="currentColor" d="M320 528C205.1 528 112 434.9 112 320C112 298 115.4 276.9 121.7 257L131.1 273.4C139.4 287.9 153 298.6 169.1 303.2L227 319.7C244.2 324.6 256 340.3 256 358.2L256 398.1C256 409.1 262.2 419.1 272 424C281.8 428.9 288 438.9 288 449.9L288 480.3C288 496.2 303.2 507.6 318.5 503.3C334.4 498.8 346.8 486.3 351.3 470.5L352.8 465.1C357.4 449 368.1 435.4 382.6 427.1L391.8 421.8C406.8 413.3 416 397.3 416 380.1L416 371.8C416 359.1 410.9 346.9 401.9 337.9L398 334C389 325 376.8 319.9 364.1 319.9L321 320C309.9 320 298.9 317.1 289.2 311.6L254.7 291.9C250.4 289.4 247.1 285.4 245.5 280.7C242.3 271.1 246.6 260.7 255.7 256.2L261.6 253.2C268.2 249.9 275.9 249.3 282.9 251.7L306.1 259.4C314.3 262.1 323.3 259 328 251.9C332.7 244.9 332.2 235.6 326.8 229.1L313.2 212.8C303.2 200.8 303.3 183.3 313.5 171.5L329.2 153.2C338 142.9 339.4 128.2 332.7 116.5L330.3 112.3C403.9 115.9 467.5 157.9 501.5 218.6L476 228.8C460.3 235.1 452.2 252.6 457.5 268.6L474.4 319.3C477.9 329.7 486.4 337.6 497 340.2L526.1 347.5C512.7 449.4 425.5 528 320 528zM320 576C461.4 576 576 461.4 576 320C576 178.6 461.4 64 320 64C178.6 64 64 178.6 64 320C64 461.4 178.6 576 320 576z"/></svg>