<svg xmlns="http://www.w3.org/2000/svg" viewBox="0 0 640 640"><!--! Font Awesome Pro 7.2.0 by @fontawesome - https://fontawesome.com License - https://fontawesome.com/license (Commercial License) Copyright 2026 Fonticons, Inc. --><path opacity=".4" fill="currentColor" d="M80 224C80 250.5 101.5 272 128 272L480 272C506.5 272 528 250.5 528 224C528 197.5 506.5 176 480 176L128 176C101.5 176 80 197.5 80 224zM112 224C112 215.2 119.2 208 128 208L480 208C488.8 208 496 215.2 496 224C496 232.8 488.8 240 480 240L128 240C119.2 240 112 232.8 112 224zM116.5 496L187.5 496L231.5 320L160.5 320L116.5 496z"/><path fill="currentColor" d="M136 96C149.3 96 160 106.7 160 120L160 128L480 128C521.8 128 557.4 154.7 570.5 192L584 192C597.3 192 608 202.7 608 216L608 232C608 245.3 597.3 256 584 256L570.5 256C557.3 293.3 521.8 320 480 320L281 320L263 392L304 392L304 376C304 362.7 314.7 352 328 352C341.3 352 352 362.7 352 376L352 456C352 469.3 341.3 480 328 480C314.7 480 304 469.3 304 456L304 440L251 440L231.1 519.8C227.5 534 214.7 544 200 544L96 544C86.1 544 76.8 539.5 70.8 531.7C64.8 523.9 62.6 513.8 65 504.2L111.4 318.6C66.3 310.7 32 271.3 32 224C32 176.4 66.6 136.9 112 129.3L112 120C112 106.7 122.7 96 136 96zM160.5 320L116.5 496L187.5 496L231.5 320L160.5 320zM480 272C506.5 272 528 250.5 528 224C528 197.5 506.5 176 480 176L128 176C101.5 176 80 197.5 80 224C80 250.5 101.5 272 128 272L480 272zM128 208L480 208C488.8 208 496 215.2 496 224C496 232.8 488.8 240 480 240L128 240C119.2 240 112 232.8 112 224C112 215.2 119.2 208 128 208z"/></svg>