<svg xmlns="http://www.w3.org/2000/svg" viewBox="0 0 640 640"><!--! Font Awesome Pro 7.2.0 by @fontawesome - https://fontawesome.com License - https://fontawesome.com/license (Commercial License) Copyright 2026 Fonticons, Inc. --><path opacity=".4" fill="currentColor" d="M112 383.6C112 387.7 113.6 391.7 116.6 394.6L200.4 478.4C232.1 510.2 275.1 528 320 528C364.9 528 407.9 510.2 439.6 478.5L523.4 394.7C526.3 391.8 528 387.8 528 383.7C528 375.1 521 368.1 512.4 368.1L464 368C450.7 368 440 357.3 440 344L440 168C440 154.7 429.3 144 416 144C402.7 144 392 154.7 392 168L392 264C392 277.3 381.3 288 368 288C354.7 288 344 277.3 344 264L344 136C344 122.7 333.3 112 320 112C306.7 112 296 122.7 296 136L296 264C296 277.3 285.3 288 272 288C258.7 288 248 277.3 248 264L248 168C248 154.7 237.3 144 224 144C210.7 144 200 154.7 200 168L200 344C200 357.3 189.3 368 176 368L127.6 368C119 368 112 375 112 383.6zM224 416C224 410.8 225.8 405.9 229.4 402.2C243.2 387.8 281.6 352 320 352C358.4 352 396.8 387.8 410.6 402.2C414.2 405.9 416 410.9 416 416C416 421.1 414.2 426.1 410.6 429.8C396.8 444.2 358.4 480 320 480C281.6 480 243.2 444.2 229.4 429.8C225.8 426.1 224 421.1 224 416z"/><path fill="currentColor" d="M248 168L248 264C248 277.3 258.7 288 272 288C285.3 288 296 277.3 296 264L296 136C296 122.7 306.7 112 320 112C333.3 112 344 122.7 344 136L344 264C344 277.3 354.7 288 368 288C381.3 288 392 277.3 392 264L392 168C392 154.7 402.7 144 416 144C429.3 144 440 154.7 440 168L440 344C440 357.3 450.7 368 464 368L512.4 368C521 368 528 375 528 383.6C528 387.7 526.4 391.7 523.4 394.6L439.6 478.4C407.9 510.2 364.9 528 320 528C275.1 528 232.1 510.2 200.4 478.5L116.6 394.6C113.7 391.7 112 387.7 112 383.6C112 375 119 368 127.6 368L176 368C189.3 368 200 357.3 200 344L200 168C200 154.7 210.7 144 224 144C237.3 144 248 154.7 248 168zM255.8 103.4C246.2 98.7 235.4 96 224 96C184.2 96 152 128.2 152 168L152 320L127.6 320C92.5 320 64 348.5 64 383.6C64 400.5 70.7 416.6 82.6 428.6L166.4 512.4C207.1 553.1 262.4 576 319.9 576C377.4 576 432.7 553.1 473.4 512.4L557.2 428.6C569.1 416.7 575.8 400.5 575.8 383.6C575.8 348.5 547.3 320 512.2 320L487.8 320L487.8 168C487.8 128.2 455.6 96 415.8 96C404.4 96 393.6 98.7 384 103.4C372.1 80 347.8 64 319.8 64C291.8 64 267.5 80 255.6 103.4zM229.4 402.2C225.8 405.9 224 410.9 224 416C224 421.1 225.8 426.1 229.4 429.8C243.2 444.2 281.6 480 320 480C358.4 480 396.8 444.2 410.6 429.8C414.2 426.1 416 421.1 416 416C416 410.9 414.2 405.9 410.6 402.2C396.8 387.8 358.4 352 320 352C281.6 352 243.2 387.8 229.4 402.2zM320 384C337.7 384 352 398.3 352 416C352 433.7 337.7 448 320 448C302.3 448 288 433.7 288 416C288 398.3 302.3 384 320 384z"/></svg>