<svg xmlns="http://www.w3.org/2000/svg" viewBox="0 0 640 640"><!--! Font Awesome Pro 7.2.0 by @fontawesome - https://fontawesome.com License - https://fontawesome.com/license (Commercial License) Copyright 2026 Fonticons, Inc. --><path opacity=".4" fill="currentColor" d="M32 440C32 453.3 42.7 464 56 464L104 464C108.7 464 113.4 462.6 117.3 460L197.2 406.7C203.8 402.3 211.5 400 219.4 400L352 400C360.8 400 368 407.2 368 416C368 424.8 360.8 432 352 432L288 432C274.7 432 264 442.7 264 456C264 469.3 274.7 480 288 480L432 480C436.8 480 441.6 478.5 445.6 475.8L521.6 423.7C532.3 416.4 547 419.6 553.6 430.7C559.7 440.9 556.8 454.2 547 460.9L466.9 515.5C454.9 523.7 440.8 528 426.3 528L56 528C42.7 528 32 538.7 32 552L32 440z"/><path fill="currentColor" d="M320 64C395.1 64 456 124.9 456 200L456 204.4C456 237.6 446.2 270 427.8 297.6L420 309.3C412.6 320.3 397.7 323.3 386.7 316C375.7 308.7 372.7 293.7 380 282.7L387.8 271C401 251.3 408 228.1 408 204.4L408 200C408 151.4 368.6 112 320 112C271.4 112 232 151.4 232 200C232 217.7 246.3 232 264 232C281.7 232 296 217.7 296 200C296 186.7 306.7 176 320 176C333.3 176 344 186.7 344 200C344 244.2 308.2 280 264 280C219.8 280 184 244.2 184 200C184 124.9 244.9 64 320 64zM219.4 400C211.5 400 203.8 402.3 197.2 406.7L117.3 460C113.4 462.6 108.7 464 104 464L56 464C42.7 464 32 453.3 32 440C32 426.7 42.7 416 56 416L96.7 416L170.5 366.8C185 357.1 202 352 219.4 352L352 352C387.3 352 416 380.7 416 416C416 421.5 415.3 426.9 414 432L424.6 432L494.5 384.1C528 361.1 573.9 371.2 594.8 406C614 438 604.9 479.5 574.1 500.5L494 555.1C474.1 568.7 450.5 576 426.4 576L56 576C42.7 576 32 565.3 32 552C32 538.7 42.7 528 56 528L426.4 528C440.9 528 455 523.6 467 515.5L547 460.9C556.9 454.2 559.8 440.9 553.6 430.7C546.9 419.6 532.3 416.4 521.6 423.7L445.6 475.8C441.6 478.5 436.9 480 432 480L288 480C274.7 480 264 469.3 264 456C264 442.7 274.7 432 288 432L352 432C360.8 432 368 424.8 368 416C368 407.2 360.8 400 352 400L219.4 400z"/></svg>