<svg xmlns="http://www.w3.org/2000/svg" viewBox="0 0 640 640"><!--! Font Awesome Pro 7.2.0 by @fontawesome - https://fontawesome.com License - https://fontawesome.com/license (Commercial License) Copyright 2026 Fonticons, Inc. --><path opacity=".4" fill="currentColor" d="M80 392C80 396.4 83.6 400 88 400L216 400C229.3 400 240 410.7 240 424C240 437.3 229.3 448 216 448L119.9 448C115.5 448 112 451.6 112 456C112 460.4 115.6 464 120 464L216 464C229.3 464 240 474.7 240 488C240 501.3 229.3 512 216 512L151.9 512C147.5 512.1 144 515.6 144 520C144 524.4 147.6 528 152 528L281.9 528C352.5 528 410.3 473.5 415.6 404.3C415.6 403.7 415.7 403.1 415.8 402.5C415.9 401.7 416 400.9 416 400C416 399.1 416 398.2 416 397.3L416 396.7C416 395.6 416 394.7 416 393.9C416 366.7 407.8 340.8 393.2 319.1C393 318.9 392.9 318.6 392.7 318.4C377.2 293.5 354.7 273 327.2 260L270.8 233.5C262.8 229.7 253.3 233.2 249.5 241.2C245.7 249.2 249.2 258.7 257.2 262.5L282.3 274.3C292.5 279.1 298 290.3 295.5 301.3C293 312.3 283.3 320 272.1 320L120 320C115.6 320 112 323.6 112 328C112 332.4 115.6 336 120 336L216 336C229.3 336 240 346.7 240 360C240 373.3 229.3 384 216 384L88 384C83.6 384 80 387.6 80 392zM301.9 151.2L315.4 174.6L368.9 198.4C446.2 232.8 496 309.4 496 394C496 411.9 493.8 429.2 489.7 445.8C496.2 442.5 502.6 438.8 508.4 434.8C510.3 424 511.5 412.9 511.9 401.6C542.2 373.9 560 334.4 560 292.5L560 207.9C560 199.1 552.8 191.9 544 191.9C535.2 191.9 528 199.1 528 207.9L528 245.3C528 256.2 520.7 265.7 510.2 268.5C499.7 271.3 488.6 266.7 483.2 257.3L401.7 116C399.5 112.2 394.6 110.9 390.8 113.1C387 115.3 385.7 120.2 387.9 124.1L435.9 207.2C439.2 212.9 439.9 219.3 438.4 225.2C420.2 208.3 399 194.2 375.5 183.7L364.1 178.6C334.4 127.2 337.6 132.7 330.4 120.3C328.2 116.5 323.3 115.2 319.5 117.4C315.7 119.6 314.4 124.5 316.6 128.3C328.8 149.5 336.4 162.7 339.3 167.6L306.2 153C304.8 152.4 303.3 151.8 301.9 151.2z"/><path fill="currentColor" d="M560 207.8C560 199 552.8 191.8 544 191.8C535.2 191.8 528 199 528 207.8L528 245.2C528 256.1 520.7 265.6 510.2 268.4C499.7 271.2 488.6 266.6 483.2 257.2L401.7 116C399.5 112.2 394.6 110.9 390.8 113.1C387 115.3 385.7 120.2 387.9 124L387.9 124.1L435.9 207.2C439.2 212.9 439.9 219.3 438.4 225.2C420.2 208.3 399 194.2 375.5 183.7L364.1 178.6C350.7 155.4 342.2 140.6 338.4 134.1L338.4 134L330.4 120.2C328.2 116.4 323.3 115.1 319.5 117.3C315.7 119.5 314.4 124.4 316.6 128.2L332.6 155.9L332.6 156L339.2 167.5L306.3 152.9C285.5 143.7 263.3 141.8 242.6 146.2C246.4 142.1 250.8 138.4 256 135.5C259.8 133.3 263.7 131.6 267.7 130.4C265.4 109 275.5 87.2 295.4 75.8C315.3 64.4 339.2 66.4 356.5 79.1C359.6 76.2 363 73.7 366.8 71.5C393.6 56 427.8 65.2 443.3 92L490.2 173.2C501.6 155.5 521.5 143.8 544.1 143.8C579.4 143.8 608.1 172.5 608.1 207.8L608.1 292.4C608.1 361.8 571.4 426 511.6 461.2C507.8 463.4 504 465.5 500.1 467.5C507.1 446.7 511.2 424.6 512 401.6C542.3 373.9 560.1 334.4 560.1 292.5L560.1 207.9zM206.1 220.8C221.2 188.8 259.3 175.1 291.3 190.1L347.7 216.6C383.7 233.5 413.1 260.3 433.4 292.7C453 322.1 464.1 357.1 464.1 393.9C464.1 394.9 464.1 395.9 464.1 396.9C464.1 397.9 464.1 399 464.1 400C464.1 403 463.9 405.9 463.5 408.7C455.9 502.3 377.6 576 282 576L152 576C121.1 576 96 550.9 96 520C96 515.6 96.5 511.4 97.5 507.3C77.8 498.6 64 478.9 64 456C64 451.6 64.5 447.4 65.5 443.3C45.8 434.6 32 414.9 32 392C32 369.1 45.8 349.4 65.5 340.7C64.6 336.6 64 332.4 64 328C64 297.1 89.1 272 120 272L204.7 272C198.3 256 198.2 237.5 206.1 220.7zM104 384L88 384C83.6 384 80 387.6 80 392C80 396.4 83.6 400 88 400L216 400C229.3 400 240 410.7 240 424C240 437.3 229.3 448 216 448L119.9 448C115.5 448 112 451.6 112 456C112 460.4 115.6 464 120 464L216 464C229.3 464 240 474.7 240 488C240 501.3 229.3 512 216 512L151.9 512C147.5 512.1 144 515.6 144 520C144 524.4 147.6 528 152 528L281.9 528C352.5 528 410.3 473.5 415.6 404.3C415.6 403.7 415.7 403.1 415.8 402.5C415.9 401.7 416 400.9 416 400C416 399.1 416 398.2 416 397.3L416 396.7L416 396.4C416 395.6 416 394.7 416 393.9C416 366.7 407.8 340.8 393.2 319.1C393 318.9 392.9 318.6 392.7 318.4C377.2 293.5 354.7 273 327.2 260L270.8 233.5C262.8 229.7 253.3 233.2 249.5 241.2C245.7 249.2 249.2 258.7 257.2 262.5L282.3 274.3C292.5 279.1 298 290.3 295.5 301.3C293 312.3 283.3 320 272.1 320L120 320C115.6 320 112 323.6 112 328C112 332.4 115.6 336 120 336L216 336C229.3 336 240 346.7 240 360C240 373.3 229.3 384 216 384L104 384z"/></svg>