<svg xmlns="http://www.w3.org/2000/svg" viewBox="0 0 640 640"><!--! Font Awesome Pro 7.2.0 by @fontawesome - https://fontawesome.com License - https://fontawesome.com/license (Commercial License) Copyright 2026 Fonticons, Inc. --><path opacity=".4" fill="currentColor" d="M145.4 160.2L196.3 304.9C200.2 304.3 204.2 304 208.2 304L229.9 304L175.6 149.6C172.7 141.3 163.5 136.9 155.2 139.8C146.9 142.7 142.5 151.8 145.4 160.2zM176.2 384L176.2 408C176.2 474.3 229.9 528 296.2 528L344.2 528C410.5 528 464.2 474.3 464.2 408L464.2 398C459.1 399.3 453.7 400 448.2 400C422.9 400 401 385.3 390.6 364C383.6 366.6 376.1 368 368.2 368C362.7 368 357.3 367.3 352.2 366C352.2 366.7 352.2 367.3 352.2 368C352.2 403.3 323.5 432 288.2 432L248.2 432C234.9 432 224.2 421.3 224.2 408C224.2 394.7 234.9 384 248.2 384L288.2 384C297 384 304.2 376.8 304.2 368C304.2 359.2 297 352 288.2 352L208.2 352C190.5 352 176.2 366.3 176.2 384zM275.4 288.7L280.8 304L288.2 304C293.7 304 299.1 304.7 304.2 306C304.2 305.3 304.2 304.7 304.2 304L304.2 256C304.2 243 308.1 230.9 314.7 220.8L324.2 130.7C325.1 121.9 318.7 114 310 113.1C301.3 112.2 293.3 118.6 292.4 127.3L275.4 288.6zM352.2 256L352.2 304C352.2 312.8 359.4 320 368.2 320C377 320 384.2 312.8 384.2 304L384.2 256C384.2 247.2 377 240 368.2 240C359.4 240 352.2 247.2 352.2 256zM432.2 288L432.2 336C432.2 344.8 439.4 352 448.2 352C457 352 464.2 344.8 464.2 336L464.2 288C464.2 279.2 457 272 448.2 272C439.4 272 432.2 279.2 432.2 288z"/><path fill="currentColor" d="M315 65.4C279.8 61.7 248.4 87.2 244.7 122.4L238.3 183L220.9 133.6C209.2 100.3 172.6 82.8 139.3 94.5C106 106.2 88.4 142.8 100.1 176.1L152.9 326.2C137.7 340.7 128.2 361.3 128.2 384L128.2 408C128.2 500.8 203.4 576 296.2 576L344.2 576C437 576 512.2 500.8 512.2 408L512.2 288C512.2 252.7 483.5 224 448.2 224C440.3 224 432.8 225.4 425.8 228C415.4 206.7 393.5 192 368.2 192C367.5 192 366.7 192 366 192L371.9 135.7C375.6 100.5 350.1 69.1 314.9 65.4zM314.8 220.8C308.2 230.9 304.3 243 304.3 256L304.3 304C304.3 304.7 304.3 305.4 304.3 306C299.2 304.7 293.8 304 288.3 304L280.9 304L275.5 288.7L292.5 127.4C293.4 118.6 301.3 112.2 310.1 113.2C318.9 114.2 325.3 122 324.3 130.8L314.8 220.9zM175.6 149.6L229.9 304L208.2 304C204.2 304 200.2 304.3 196.3 304.9L145.4 160.2C142.5 151.9 146.9 142.7 155.2 139.8C163.5 136.9 172.7 141.3 175.6 149.6zM352.2 256C352.2 247.2 359.4 240 368.2 240C377 240 384.2 247.2 384.2 256L384.2 304C384.2 312.8 377 320 368.2 320C359.4 320 352.2 312.8 352.2 304L352.2 256zM390.6 364C401 385.3 422.9 400 448.2 400C453.7 400 459.1 399.3 464.2 398L464.2 408C464.2 474.3 410.5 528 344.2 528L296.2 528C229.9 528 176.2 474.3 176.2 408L176.2 384C176.2 366.3 190.5 352 208.2 352L288.2 352C297 352 304.2 359.2 304.2 368C304.2 376.8 297 384 288.2 384L248.2 384C234.9 384 224.2 394.7 224.2 408C224.2 421.3 234.9 432 248.2 432L288.2 432C323.5 432 352.2 403.3 352.2 368C352.2 367.3 352.2 366.6 352.2 366C357.3 367.3 362.7 368 368.2 368C376.1 368 383.6 366.6 390.6 364zM464.2 336C464.2 344.8 457 352 448.2 352C439.4 352 432.2 344.8 432.2 336L432.2 288C432.2 279.2 439.4 272 448.2 272C457 272 464.2 279.2 464.2 288L464.2 336z"/></svg>