<svg xmlns="http://www.w3.org/2000/svg" viewBox="0 0 640 640"><!--! Font Awesome Pro 7.2.0 by @fontawesome - https://fontawesome.com License - https://fontawesome.com/license (Commercial License) Copyright 2026 Fonticons, Inc. --><path opacity=".4" fill="currentColor" d=""/><path fill="currentColor" d="M96 120C96 106.7 106.7 96 120 96L232 96C245.3 96 256 106.7 256 120C256 133.3 245.3 144 232 144L200 144L200 288L440 288L440 144L408 144C394.7 144 384 133.3 384 120C384 106.7 394.7 96 408 96L520 96C533.3 96 544 106.7 544 120C544 133.3 533.3 144 520 144L488 144L488 496L520 496C533.3 496 544 506.7 544 520C544 533.3 533.3 544 520 544L408 544C394.7 544 384 533.3 384 520C384 506.7 394.7 496 408 496L440 496L440 336L200 336L200 496L232 496C245.3 496 256 506.7 256 520C256 533.3 245.3 544 232 544L120 544C106.7 544 96 533.3 96 520C96 506.7 106.7 496 120 496L152 496L152 144L120 144C106.7 144 96 133.3 96 120z"/></svg>