<svg xmlns="http://www.w3.org/2000/svg" viewBox="0 0 640 640"><!--! Font Awesome Pro 7.2.0 by @fontawesome - https://fontawesome.com License - https://fontawesome.com/license (Commercial License) Copyright 2026 Fonticons, Inc. --><path opacity=".4" fill="currentColor" d="M273.2 327.6C275.7 299.1 300.8 278 329.4 280.5C346 281.9 360.8 291.3 369.4 305.5L396.3 350.5C400.3 357.1 407.1 361.4 414.8 362.1C422.5 362.8 430 359.7 435 353.9L469.3 314.3C480.2 301.7 496.4 295.1 513 296.6C541.5 299.1 562.6 324.2 560.1 352.8L559.9 354.7C557.8 379 538.2 411.7 503.2 447.3C470 481.1 430.3 510.2 403.4 527.2C403.3 527.3 402.3 527.8 400.2 527.6C398.1 527.4 397.2 526.7 397.1 526.6C373.5 505.1 339.5 469.6 312.7 430.5C284.4 389.3 270.9 353.8 273 329.5L273.2 327.6z"/><path fill="currentColor" d="M311.1 136.4C339.6 133.9 364.8 155 367.3 183.5L367.5 185.4C367.6 187 367.7 188.7 367.7 190.5C384.3 195.5 399.7 203.4 413.5 213.6C415.5 202.6 416.2 191.7 415.3 181.2L415.1 179.3C410.3 124.4 361.9 83.7 306.9 88.5C275 91.3 246.3 109.2 229.9 136.7L220.1 153.2L207.5 138.7C186.5 114.5 155.2 101.8 123.3 104.6C68.4 109.4 27.7 157.8 32.5 212.8L32.7 214.7L32.7 214.7C36.4 256.6 66.5 299.6 102.9 336.7C132.4 366.8 166.1 393 193.3 411.7C183.9 388.5 177.6 364 176.8 339.3C163.3 328.2 149.7 316 137.1 303.1C102.1 267.5 82.6 234.8 80.4 210.5L80.4 210.5L80.2 208.6C77.8 180.1 99 155 127.5 152.5C144 151 160.3 157.6 171.2 170.2L205.5 209.8C210.5 215.6 218.1 218.7 225.7 218C233.3 217.3 240.3 213 244.2 206.4L271.1 161.4C279.6 147.1 294.5 137.8 311.1 136.4zM273.2 327.6C275.7 299.1 300.8 278 329.4 280.5C346 281.9 360.8 291.3 369.4 305.5L396.3 350.5C400.3 357.1 407.1 361.4 414.8 362.1C422.5 362.8 430 359.7 435 353.9L469.3 314.3C480.2 301.7 496.4 295.1 513 296.6C541.5 299.1 562.6 324.2 560.1 352.8L559.9 354.7C557.8 379 538.2 411.7 503.2 447.3C470 481.1 430.3 510.2 403.4 527.2C403.3 527.3 402.3 527.8 400.2 527.6C398.1 527.4 397.2 526.7 397.1 526.6C373.5 505.1 339.5 469.6 312.7 430.5C284.4 389.3 270.9 353.8 273 329.5L273 329.5L273.2 327.6zM333.6 232.7C278.7 227.9 230.2 268.5 225.4 323.5L225.2 325.4C217.9 409.2 313.9 515.7 364.8 562.1C373.4 569.9 384.5 574.4 396.1 575.4L396.1 575.4C407.7 576.4 419.4 573.9 429.2 567.7C487.4 530.8 600.4 442.6 607.8 358.8L608 356.9C612.8 302 572.2 253.5 517.2 248.7C485.3 245.9 454 258.6 433 282.8L420.4 297.3L410.5 280.8C394.1 253.3 365.4 235.4 333.5 232.6z"/></svg>