<svg xmlns="http://www.w3.org/2000/svg" viewBox="0 0 640 640"><!--! Font Awesome Pro 7.2.0 by @fontawesome - https://fontawesome.com License - https://fontawesome.com/license (Commercial License) Copyright 2026 Fonticons, Inc. --><path opacity=".4" fill="currentColor" d="M112 229.1C112 279 144 327.5 180.1 371.4C209.1 406.6 242.6 438.9 272 464.1L272 187.4L266.1 179.3C250.1 157.2 224.4 144.1 197.1 144.1C150.1 144.1 112 182.2 112 229.2z"/><path fill="currentColor" d="M197.1 144C150.1 144 112 182.1 112 229.1C112 279 144 327.5 180.1 371.4C209.1 406.6 242.6 438.9 272 464.1L272 187.4L266.1 179.3C250.1 157.2 224.4 144.1 197.1 144.1zM64 229.1C64 155.6 123.6 96 197.1 96C239.8 96 280 116.5 305 151.1L315.4 165.5C318.4 169.6 320 174.5 320 179.6L320 513.8C320 522.4 315.4 530.3 308 534.6C300.6 538.9 291.4 538.9 284 534.6C281.5 533.2 279.1 531.6 276.9 529.8C240.4 501.9 187.2 455.4 143.1 401.9C106.9 358 64 297.7 64 229.1z"/></svg>