<svg xmlns="http://www.w3.org/2000/svg" viewBox="0 0 640 640"><!--! Font Awesome Pro 7.2.0 by @fontawesome - https://fontawesome.com License - https://fontawesome.com/license (Commercial License) Copyright 2026 Fonticons, Inc. --><path opacity=".4" fill="currentColor" d="M80 229.1C80 182.1 118.1 144 165.1 144C192.4 144 218.1 157.1 234.1 179.2L268.5 226.8C273 233 280.2 236.7 287.9 236.7C295.6 236.7 302.8 233 307.3 226.8L341.7 179.2C357.7 157.1 383.4 144 410.7 144C457.7 144 495.8 182.1 495.8 229.1C495.8 244 492.9 258.9 487.9 273.5C480 272.5 471.9 272 463.8 272C357.8 272 271.8 358 271.8 464C271.8 473.4 272.5 482.7 273.8 491.7C239.3 465.4 189.1 421.4 148 371.4C111.8 327.5 79.9 279 79.9 229.1z"/><path fill="currentColor" d="M410.9 144C383.6 144 357.9 157.1 341.9 179.2L307.5 226.8C303 233 295.8 236.7 288.1 236.7C280.4 236.7 273.2 233 268.7 226.8L234.3 179.2C218.3 157.1 192.6 144 165.3 144C118.3 144 80.2 182.1 80.2 229.1C80.2 279 112.2 327.5 148.3 371.4C189.4 421.3 239.7 465.3 274.1 491.7C276.8 510.1 282 527.6 289.5 543.9C289 543.9 288.6 543.9 288.1 543.9C272.5 543.9 257.3 539.2 245 529.8C208.5 501.9 155.3 455.4 111.2 401.9C75 358 32.1 297.7 32.1 229.1C32.1 155.6 91.7 96 165.2 96C207.9 96 248 116.5 273.1 151.1L288.1 171.8L303.1 151.1C328.1 116.5 368.3 96 411 96C484.5 96 544.1 155.6 544.1 229.1C544.1 248.6 540.6 267.4 534.8 285.4C520.1 279.6 504.5 275.5 488.2 273.5C493.2 258.9 496.1 244.1 496.1 229.1C496.1 182.1 458 144 411 144zM320 464C320 384.5 384.5 320 464 320C543.5 320 608 384.5 608 464C608 543.5 543.5 608 464 608C384.5 608 320 543.5 320 464zM497.4 387C491.6 382.8 483.6 383 478 387.5L398 451.5C392.7 455.7 390.6 462.9 392.9 469.3C395.2 475.7 401.2 480 408 480L440.9 480L425 522.4C422.5 529.1 424.8 536.7 430.6 541C436.4 545.3 444.4 545 450 540.5L530 476.5C535.3 472.3 537.4 465.1 535.1 458.7C532.8 452.3 526.8 448 520 448L487.1 448L503 405.6C505.5 398.9 503.2 391.3 497.4 387z"/></svg>