<svg xmlns="http://www.w3.org/2000/svg" viewBox="0 0 640 640"><!--! Font Awesome Pro 7.2.0 by @fontawesome - https://fontawesome.com License - https://fontawesome.com/license (Commercial License) Copyright 2026 Fonticons, Inc. --><path opacity=".4" fill="currentColor" d="M107.2 308.1C103 315.5 103 324.6 107.2 331.9L203.4 500C207.7 507.5 215.6 512.1 224.2 512.1L415.8 512.1C424.4 512.1 432.4 507.5 436.6 500L532.8 332C537 324.6 537 315.5 532.8 308.2L436.7 140.1C432.4 132.6 424.4 128 415.8 128L224.2 128C215.6 128 207.6 132.6 203.4 140.1L107.2 308.1zM195.2 405L236.3 346.3C240.8 339.9 248.1 336.1 256 336.1C263.9 336.1 271.2 339.9 275.7 346.3L292.9 370.9L339.4 291.9C343.7 284.6 351.6 280.1 360.1 280.1C368.6 280.1 376.5 284.6 380.8 291.9L445.4 401.7L409.7 464L229.1 464L195.3 405zM288 224C288 241.7 273.7 256 256 256C238.3 256 224 241.7 224 224C224 206.3 238.3 192 256 192C273.7 192 288 206.3 288 224z"/><path fill="currentColor" d="M65.5 284.3C52.8 306.5 52.8 333.7 65.5 355.8L161.7 523.9C174.5 546.3 198.4 560.1 224.2 560.1L415.8 560.1C441.6 560.1 465.5 546.3 478.3 523.9L574.5 355.8C587.2 333.6 587.2 306.4 574.5 284.3L478.3 116.2C465.5 93.8 441.6 80 415.8 80L224.2 80C198.4 80 174.5 93.8 161.7 116.2L65.5 284.3zM107.2 332C103 324.6 103 315.5 107.2 308.2L203.4 140.1C207.7 132.6 215.6 128 224.2 128L415.8 128C424.4 128 432.4 132.6 436.6 140.1L532.8 308.2C537 315.6 537 324.7 532.8 332L436.7 500C432.4 507.5 424.5 512.1 415.9 512.1L224.3 512.1C215.7 512.1 207.7 507.5 203.5 500L107.2 332zM380.7 291.9C376.4 284.6 368.5 280.1 360 280.1C351.5 280.1 343.6 284.6 339.3 291.9L292.8 370.9L275.6 346.3C271.1 339.9 263.8 336.1 255.9 336.1C248 336.1 240.7 339.9 236.2 346.3L195.1 405L228.9 464L409.5 464L445.2 401.7L380.6 291.9zM288 224C288 206.3 273.7 192 256 192C238.3 192 224 206.3 224 224C224 241.7 238.3 256 256 256C273.7 256 288 241.7 288 224z"/></svg>