<svg xmlns="http://www.w3.org/2000/svg" viewBox="0 0 640 640"><!--! Font Awesome Pro 7.2.0 by @fontawesome - https://fontawesome.com License - https://fontawesome.com/license (Commercial License) Copyright 2026 Fonticons, Inc. --><path opacity=".4" fill="currentColor" d="M97.9 528L142 528L166.7 503.3L144.6 481.2L97.9 527.9zM278 268.1L379.9 370L534.8 154.2C535.6 153.1 536 151.8 536 150.5C536 148.8 535.3 147.2 534.1 146L502 113.9C500.8 112.7 499.2 112 497.5 112C496.2 112 494.9 112.4 493.8 113.2L278 268.1z"/><path fill="currentColor" d="M201.9 394.6L163.8 432.7L215.3 484.2L253.4 446.1C262.4 437.1 274.6 432 287.3 432L335.3 432L351.5 409.5L238.5 296.5L216 312.7L216 360.7C216 373.4 210.9 385.6 201.9 394.6zM379.9 370L534.8 154.2C535.6 153.1 536 151.8 536 150.5C536 148.8 535.3 147.2 534.1 146L502 113.9C500.8 112.7 499.2 112 497.5 112C496.2 112 494.9 112.4 493.8 113.2L278 268.1L379.9 370zM335.4 480L287.4 480L243.7 523.7C233 534.4 217.7 537.8 204.2 533.8L171.4 566.6C165.4 572.6 157.3 576 148.8 576L64 576C46.3 576 32 561.7 32 544L32 539.3C32 530.8 35.4 522.7 41.4 516.7L114.2 443.9C110.2 430.3 113.6 415.1 124.3 404.4L168 360.7L168 312.7C168 297.2 175.4 282.7 188 273.7L465.8 74.2C475 67.6 486.1 64 497.5 64C511.9 64 525.7 69.7 535.9 79.9L568.1 112.1C578.3 122.3 584 136.1 584 150.5C584 161.9 580.4 173 573.8 182.2L374.4 460C365.4 472.6 350.9 480 335.4 480zM144.7 481.3L98 528L142.1 528L166.8 503.3L144.7 481.2zM312 528L584 528C597.3 528 608 538.7 608 552C608 565.3 597.3 576 584 576L312 576C298.7 576 288 565.3 288 552C288 538.7 298.7 528 312 528z"/></svg>