<svg xmlns="http://www.w3.org/2000/svg" viewBox="0 0 640 640"><!--! Font Awesome Pro 7.2.0 by @fontawesome - https://fontawesome.com License - https://fontawesome.com/license (Commercial License) Copyright 2026 Fonticons, Inc. --><path opacity=".4" fill="currentColor" d="M48 440L48 520C48 524.4 51.6 528 56 528L96 528L96 432L56 432C51.6 432 48 435.6 48 440zM144 432L144 528L162.9 528C190.8 528 216.3 511.8 228.1 486.5L253.6 432L144 432zM386.4 432L411.9 486.5C423.7 511.8 449.2 528 477.1 528L496 528L496 432L386.4 432zM544 432L544 528L584 528C588.4 528 592 524.4 592 520L592 440C592 435.6 588.4 432 584 432L544 432z"/><path fill="currentColor" d="M584 384C614.9 384 640 409.1 640 440L640 520C640 550.9 614.9 576 584 576L477.1 576C430.5 576 388.1 549 368.4 506.8L346.5 460L382.1 384L584 384zM435.4 43.7C441.6 33.3 454.9 29 466.2 34.3C477.5 39.6 482.7 52.5 478.7 64L477.8 66.2L271.7 506.9C251.9 549 209.5 576 162.9 576L56 576C25.1 576 0 550.9 0 520L0 440C0 409.1 25.1 384 56 384L276.1 384L434.3 45.8L435.5 43.6zM411.9 486.5C423.7 511.8 449.2 528 477.1 528L496 528L496 432L386.4 432L411.9 486.5zM544 528L584 528C588.4 528 592 524.4 592 520L592 440C592 435.6 588.4 432 584 432L544 432L544 528zM56 432C51.6 432 48 435.6 48 440L48 520C48 524.4 51.6 528 56 528L96 528L96 432L56 432zM144 528L162.9 528C190.8 528 216.3 511.8 228.1 486.5L253.6 432L144 432L144 528zM173.8 34.3C185.1 29 198.3 33.3 204.5 43.7L205.7 45.9L293.5 233.5L267 290.2L162.2 66.3L161.3 64C157.3 52.5 162.5 39.6 173.8 34.3z"/></svg>