<svg xmlns="http://www.w3.org/2000/svg" viewBox="0 0 640 640"><!--! Font Awesome Pro 7.2.0 by @fontawesome - https://fontawesome.com License - https://fontawesome.com/license (Commercial License) Copyright 2026 Fonticons, Inc. --><path opacity=".4" fill="currentColor" d="M112 380.7L112 504C112 517.3 122.7 528 136 528L357.4 528C363.2 528 368 523.3 368 517.4C368 513.2 366.8 509.1 364.5 505.5L321.1 437.3C284.8 441.1 247.5 427.3 222.5 397.3L197.5 367.3C189 357.1 190.4 342 200.6 333.5C210.8 325 225.9 326.4 234.4 336.6L259.4 366.6C281.8 393.5 321.5 397.8 349.1 376.3C361.5 366.7 379.2 368.4 389.5 380.2L415.7 410.2C427.9 424 445.5 432 463.9 432L471.3 432C485.9 432 499.8 426.2 510.1 415.9C527 399 531 373 520 351.7L471.8 259C457.2 231 429.9 211.9 398.5 208L397 207.8C387.5 206.6 379.6 199.9 376.9 190.7C374.2 181.5 377.2 171.6 384.6 165.5L418.9 137C422.1 134.3 424 130.3 424 126.1C424 116.3 414.3 109.4 405.1 112.7L266.3 162.1C173.8 195 112 282.5 112 380.7zM384 264C384 277.3 373.3 288 360 288C346.7 288 336 277.3 336 264C336 250.7 346.7 240 360 240C373.3 240 384 250.7 384 264z"/><path fill="currentColor" d="M405.1 112.7C414.3 109.4 424 116.3 424 126.1C424 130.3 422.1 134.3 418.9 137L384.6 165.5C377.3 171.6 374.2 181.5 376.9 190.7C379.6 199.9 387.5 206.6 397 207.8L398.5 208C429.8 211.9 457.2 231 471.8 259L520 351.8C531 373.1 527 399 510.1 416C499.8 426.3 485.8 432.1 471.3 432.1L463.9 432.1C445.4 432.1 427.9 424.1 415.7 410.2L389.5 380.2C379.2 368.4 361.5 366.7 349.1 376.3C321.5 397.8 281.8 393.5 259.4 366.6L234.4 336.6C225.9 326.4 210.8 325 200.6 333.5C190.4 342 189 357.1 197.5 367.3L222.5 397.3C247.5 427.3 284.8 441.1 321.1 437.3L364.5 505.5C366.8 509 368 513.2 368 517.4C368 523.2 363.3 528 357.4 528L136 528C122.7 528 112 517.3 112 504L112 380.7C112 282.5 173.8 195 266.3 162.1L405.1 112.7zM449.7 173.8C463.8 162 472 144.5 472 126.1C472 83.1 429.5 53.1 389 67.5L250.2 116.9C138.6 156.5 64 262.2 64 380.7L64 504C64 543.8 96.2 576 136 576L357.4 576C389.8 576 416 549.8 416 517.4C416 504.1 412.2 491 405 479.8L383.5 446C404.5 467.7 433.5 480.1 463.9 480.1L471.3 480.1C498.6 480.1 524.8 469.3 544.1 450C575.8 418.3 583.3 369.6 562.6 329.8L514.3 237C499.9 209.2 477 187.4 449.6 174zM360 288C373.3 288 384 277.3 384 264C384 250.7 373.3 240 360 240C346.7 240 336 250.7 336 264C336 277.3 346.7 288 360 288z"/></svg>