<svg xmlns="http://www.w3.org/2000/svg" viewBox="0 0 640 640"><!--! Font Awesome Pro 7.2.0 by @fontawesome - https://fontawesome.com License - https://fontawesome.com/license (Commercial License) Copyright 2026 Fonticons, Inc. --><path opacity=".4" fill="currentColor" d="M144 112L144 528L288 528L288 448L240 448C231.2 448 223.9 440.8 225.3 432.1C232.9 386.7 272.4 352 320 352C367.6 352 407.1 386.6 414.7 432.1C416.2 440.8 408.9 448 400 448L352 448L352 528L496 528L496 112L144 112zM192 176C192 167.2 199.2 160 208 160L240 160C248.8 160 256 167.2 256 176L256 208C256 216.8 248.8 224 240 224L208 224C199.2 224 192 216.8 192 208L192 176zM192 272C192 263.2 199.2 256 208 256L240 256C248.8 256 256 263.2 256 272L256 304C256 312.8 248.8 320 240 320L208 320C199.2 320 192 312.8 192 304L192 272zM288 176C288 167.2 295.2 160 304 160L336 160C344.8 160 352 167.2 352 176L352 208C352 216.8 344.8 224 336 224L304 224C295.2 224 288 216.8 288 208L288 176zM288 272C288 263.2 295.2 256 304 256L336 256C344.8 256 352 263.2 352 272L352 304C352 312.8 344.8 320 336 320L304 320C295.2 320 288 312.8 288 304L288 272zM384 176C384 167.2 391.2 160 400 160L432 160C440.8 160 448 167.2 448 176L448 208C448 216.8 440.8 224 432 224L400 224C391.2 224 384 216.8 384 208L384 176zM384 272C384 263.2 391.2 256 400 256L432 256C440.8 256 448 263.2 448 272L448 304C448 312.8 440.8 320 432 320L400 320C391.2 320 384 312.8 384 304L384 272z"/><path fill="currentColor" d="M88 64C74.7 64 64 74.7 64 88C64 101.3 74.7 112 88 112L96 112L96 528L88 528C74.7 528 64 538.7 64 552C64 565.3 74.7 576 88 576L552 576C565.3 576 576 565.3 576 552C576 538.7 565.3 528 552 528L544 528L544 112L552 112C565.3 112 576 101.3 576 88C576 74.7 565.3 64 552 64L88 64zM496 528L352 528L352 448L400 448C408.8 448 416.1 440.8 414.7 432.1C407.1 386.7 367.6 352 320 352C272.4 352 232.9 386.6 225.3 432.1C223.8 440.8 231.1 448 240 448L288 448L288 528L144 528L144 112L496 112L496 528zM208 160C199.2 160 192 167.2 192 176L192 208C192 216.8 199.2 224 208 224L240 224C248.8 224 256 216.8 256 208L256 176C256 167.2 248.8 160 240 160L208 160zM288 176L288 208C288 216.8 295.2 224 304 224L336 224C344.8 224 352 216.8 352 208L352 176C352 167.2 344.8 160 336 160L304 160C295.2 160 288 167.2 288 176zM400 160C391.2 160 384 167.2 384 176L384 208C384 216.8 391.2 224 400 224L432 224C440.8 224 448 216.8 448 208L448 176C448 167.2 440.8 160 432 160L400 160zM192 272L192 304C192 312.8 199.2 320 208 320L240 320C248.8 320 256 312.8 256 304L256 272C256 263.2 248.8 256 240 256L208 256C199.2 256 192 263.2 192 272zM304 256C295.2 256 288 263.2 288 272L288 304C288 312.8 295.2 320 304 320L336 320C344.8 320 352 312.8 352 304L352 272C352 263.2 344.8 256 336 256L304 256zM384 272L384 304C384 312.8 391.2 320 400 320L432 320C440.8 320 448 312.8 448 304L448 272C448 263.2 440.8 256 432 256L400 256C391.2 256 384 263.2 384 272z"/></svg>