<svg xmlns="http://www.w3.org/2000/svg" viewBox="0 0 640 640"><!--! Font Awesome Pro 7.2.0 by @fontawesome - https://fontawesome.com License - https://fontawesome.com/license (Commercial License) Copyright 2026 Fonticons, Inc. --><path opacity=".4" fill="currentColor" d="M160 263.7L160 512C160 520.8 167.2 528 176 528L464 528C472.8 528 480 520.8 480 512L480 263.7L320 120.2L160 263.7zM232 336C232 327.2 239.2 320 248 320L288 320L288 280C288 271.2 295.2 264 304 264L336 264C344.8 264 352 271.2 352 280L352 320L392 320C400.8 320 408 327.2 408 336L408 368C408 376.8 400.8 384 392 384L352 384L352 424C352 432.8 344.8 440 336 440L304 440C295.2 440 288 432.8 288 424L288 384L248 384C239.2 384 232 376.8 232 368L232 336z"/><path fill="currentColor" d="M336 70.1C326.9 61.9 313.1 61.9 304 70.1L72 278.1C62.1 286.9 61.3 302.1 70.2 312C79.1 321.9 94.2 322.7 104.1 313.8L112.1 306.6L112.1 511.9C112.1 547.2 140.8 575.9 176.1 575.9L464.1 575.9C499.4 575.9 528.1 547.2 528.1 511.9L528.1 306.6L536.1 313.8C546 322.6 561.1 321.8 570 312C578.9 302.2 578 287 568.2 278.1L528.2 242.2L528.2 152C528.2 138.7 517.5 128 504.2 128C490.9 128 480.2 138.7 480.2 152L480.2 199.2L336.2 70.1zM480 263.7L480 512C480 520.8 472.8 528 464 528L176 528C167.2 528 160 520.8 160 512L160 263.7L320 120.2L480 263.7zM288 280L288 320L248 320C239.2 320 232 327.2 232 336L232 368C232 376.8 239.2 384 248 384L288 384L288 424C288 432.8 295.2 440 304 440L336 440C344.8 440 352 432.8 352 424L352 384L392 384C400.8 384 408 376.8 408 368L408 336C408 327.2 400.8 320 392 320L352 320L352 280C352 271.2 344.8 264 336 264L304 264C295.2 264 288 271.2 288 280z"/></svg>