<svg xmlns="http://www.w3.org/2000/svg" viewBox="0 0 640 640"><!--! Font Awesome Pro 7.2.0 by @fontawesome - https://fontawesome.com License - https://fontawesome.com/license (Commercial License) Copyright 2026 Fonticons, Inc. --><path opacity=".4" fill="currentColor" d="M160 263.7L160 512C160 520.8 167.2 528 176 528L464 528C472.8 528 480 520.8 480 512L480 263.7L320 120.2L160 263.7z"/><path fill="currentColor" d="M336 70.1C326.9 61.9 313.1 61.9 304 70.1L72 278.1C62.1 286.9 61.3 302.1 70.2 312C79.1 321.9 94.2 322.7 104.1 313.8L112.1 306.6L112.1 511.9C112.1 547.2 140.8 575.9 176.1 575.9L464.1 575.9C499.4 575.9 528.1 547.2 528.1 511.9L528.1 306.6L536.1 313.8C546 322.6 561.1 321.8 570 312C578.9 302.2 578 287 568.2 278.1L336 70.1zM480 263.7L480 512C480 520.8 472.8 528 464 528L176 528C167.2 528 160 520.8 160 512L160 263.7L320 120.2L480 263.7z"/></svg>