<svg xmlns="http://www.w3.org/2000/svg" viewBox="0 0 640 640"><!--! Font Awesome Pro 7.2.0 by @fontawesome - https://fontawesome.com License - https://fontawesome.com/license (Commercial License) Copyright 2026 Fonticons, Inc. --><path opacity=".4" fill="currentColor" d="M224 340L224 544C224 552.8 231.2 560 240 560L496 560C504.8 560 512 552.8 512 544L512 340L368 201.3L224 340zM320 376C320 362.7 330.7 352 344 352L392 352C405.3 352 416 362.7 416 376L416 424C416 437.3 405.3 448 392 448L344 448C330.7 448 320 437.3 320 424L320 376z"/><path fill="currentColor" d="M192 80C200.2 80 208.3 80.9 216 82.6L216 32C216 18.7 205.3 8 192 8C178.7 8 168 18.7 168 32L168 82.6C175.7 80.9 183.8 80 192 80zM252.4 97.7C266 106.4 277.6 118 286.3 131.6L322.1 95.8C331.5 86.4 331.5 71.2 322.1 61.9C312.7 52.6 297.5 52.5 288.2 61.9L252.4 97.7zM172.7 257.9L258.7 175C250.3 147.8 224.9 128 194.9 128C158 128 128.1 157.9 128.1 194.8C128.1 224 146.8 248.8 172.8 257.9zM131.6 286.3C118 277.6 106.4 266 97.7 252.4L61.9 288.2C52.5 297.6 52.5 312.8 61.9 322.1C71.3 331.4 86.5 331.5 95.8 322.1L131.6 286.3zM80 192C80 183.8 80.9 175.7 82.6 168L32 168C18.7 168 8 178.7 8 192C8 205.3 18.7 216 32 216L82.6 216C80.9 208.3 80 200.2 80 192zM97.7 131.6C106.4 118 118 106.4 131.6 97.7L95.8 61.9C86.4 52.5 71.2 52.5 61.9 61.9C52.6 71.3 52.5 86.5 61.9 95.8L97.7 131.6zM384.7 150.7C375.4 141.8 360.7 141.8 351.4 150.7L135.4 358.7C125.9 367.9 125.6 383.1 134.8 392.6C144 402.1 159.2 402.4 168.7 393.2L176.1 386.1L176.1 543.9C176.1 579.2 204.8 607.9 240.1 607.9L496.1 607.9C531.4 607.9 560.1 579.2 560.1 543.9L560.1 386.1L567.5 393.2C577 402.4 592.2 402.1 601.4 392.6C610.6 383.1 610.3 367.9 600.8 358.7L384.8 150.7zM512 340L512 544C512 552.8 504.8 560 496 560L240 560C231.2 560 224 552.8 224 544L224 340L368 201.3L512 340zM320 376L320 424C320 437.3 330.7 448 344 448L392 448C405.3 448 416 437.3 416 424L416 376C416 362.7 405.3 352 392 352L344 352C330.7 352 320 362.7 320 376z"/></svg>