<svg xmlns="http://www.w3.org/2000/svg" viewBox="0 0 640 640"><!--! Font Awesome Pro 7.2.0 by @fontawesome - https://fontawesome.com License - https://fontawesome.com/license (Commercial License) Copyright 2026 Fonticons, Inc. --><path opacity=".4" fill="currentColor" d="M128 263.7L288 120.2L402.7 223.1C402.4 223.4 402.1 223.7 401.8 223.9C365.4 256.5 334.1 293.7 311.6 330.3C307.4 337.2 303.2 344.3 299.4 351.7L275.1 351.7C272.9 351.7 270.8 351.8 268.7 352L264.1 352C224.3 352 192.1 384.2 192.1 424L192.1 528L144.1 528C135.3 528 128.1 520.8 128.1 512L128.1 263.7z"/><path fill="currentColor" d="M272 70.1C281.1 61.9 294.9 61.9 304 70.1L460.3 210.2C440.7 204.8 419 209.1 402.8 223.1L288 120.2L128 263.7L128 512C128 520.8 135.2 528 144 528L192 528L192 424C192 384.2 224.2 352 264 352L299.2 352C291.1 367.3 284.1 383.5 279.3 400L264 400C250.7 400 240 410.7 240 424L240 528L288.6 528C295.9 545.2 305.4 561.4 316.8 576L144 576C108.7 576 80 547.3 80 512L80 306.7L72 313.9C62.1 322.7 47 321.9 38.1 312.1C29.2 302.3 30.1 287.1 39.9 278.2L272 70.1zM505.7 304.3L518 290.5C523.4 284.4 531.3 281.7 538.9 281.6C546.1 281.6 553.2 284.2 558.8 289.4C578.5 307.7 598.6 332.6 613.8 360C628.9 387.2 640 418.1 640 448.1C640 536.8 568.7 607.9 480 607.9C390.4 607.9 320 536.6 320 448.1C320 410.8 336 374.7 356.8 343.6C377.7 312.3 404.3 284.6 427.7 263.4C433.4 258.2 440.8 255.7 448 255.9C462.1 256.2 471.8 267.3 480.7 277.5L480.7 277.5C482.7 279.8 484.7 282.1 486.7 284.2L505.7 304.1zM544 496.2C544 459.7 507 423.2 489.2 407.8C483.8 403.1 476.1 403.1 470.7 407.8C453 423.2 415.9 459.7 415.9 496.2C415.9 531.5 444.6 560.2 479.9 560.2C515.2 560.2 543.9 531.5 543.9 496.2z"/></svg>