<svg xmlns="http://www.w3.org/2000/svg" viewBox="0 0 640 640"><!--! Font Awesome Pro 7.2.0 by @fontawesome - https://fontawesome.com License - https://fontawesome.com/license (Commercial License) Copyright 2026 Fonticons, Inc. --><path opacity=".4" fill="currentColor" d="M144 160L144 400L496 400L496 160C496 151.2 488.8 144 480 144L160 144C151.2 144 144 151.2 144 160zM240 208C240 225.7 225.7 240 208 240C190.3 240 176 225.7 176 208C176 190.3 190.3 176 208 176C225.7 176 240 190.3 240 208zM192 340.5C192 333.5 194.7 326.8 199.5 321.7L296.7 218.1C302.7 211.7 311.2 208 320 208C328.8 208 337.3 211.7 343.3 218.1L440.5 321.7C445.3 326.8 448 333.5 448 340.5C448 355.7 435.7 368 420.5 368L219.5 368C204.3 368 192 355.7 192 340.5z"/><path fill="currentColor" d="M144 448L496 448L496 480C496 488.8 488.8 496 480 496L160 496C151.2 496 144 488.8 144 480L144 448zM496 160L496 400L144 400L144 160C144 151.2 151.2 144 160 144L480 144C488.8 144 496 151.2 496 160zM544 400L544 160C544 124.7 515.3 96 480 96L160 96C124.7 96 96 124.7 96 160L96 480C96 515.3 124.7 544 160 544L480 544C515.3 544 544 515.3 544 480L544 400zM373.2 320L266.9 320L320.1 263.4L373.3 320zM199.5 321.7C194.7 326.8 192 333.5 192 340.5C192 355.7 204.3 368 219.5 368L420.5 368C435.7 368 448 355.7 448 340.5C448 333.5 445.3 326.8 440.5 321.7L343.3 218.1C337.3 211.7 328.8 208 320 208C311.2 208 302.7 211.7 296.7 218.1L199.5 321.7zM208 240C225.7 240 240 225.7 240 208C240 190.3 225.7 176 208 176C190.3 176 176 190.3 176 208C176 225.7 190.3 240 208 240z"/></svg>