<svg xmlns="http://www.w3.org/2000/svg" viewBox="0 0 640 640"><!--! Font Awesome Pro 7.2.0 by @fontawesome - https://fontawesome.com License - https://fontawesome.com/license (Commercial License) Copyright 2026 Fonticons, Inc. --><path opacity=".4" fill="currentColor" d="M112 160C112 151.2 119.2 144 128 144L448 144C456.8 144 464 151.2 464 160L464 242.7C423.9 249.4 388.1 268.5 360.5 296L348.7 275.9C344.4 268.6 336.5 264.1 328 264.1C319.5 264.1 311.6 268.6 307.3 275.9L260.8 354.9L243.6 330.3C239.1 323.9 231.8 320.1 223.9 320.1C216 320.1 208.7 323.9 204.2 330.3L148.2 410.3C143.1 417.6 142.4 427.2 146.6 435.1C150.8 443 159.1 448 168 448L304.7 448C306.1 464.7 309.6 480.8 315 496L128 496C119.2 496 112 488.8 112 480L112 160zM160 224C160 241.7 174.3 256 192 256C209.7 256 224 241.7 224 224C224 206.3 209.7 192 192 192C174.3 192 160 206.3 160 224z"/><path fill="currentColor" d="M128 144L448 144C456.8 144 464 151.2 464 160L464 242.7C474.4 241 485.1 240 496 240C501.4 240 506.7 240.2 512 240.7L512 160C512 124.7 483.3 96 448 96L128 96C92.7 96 64 124.7 64 160L64 480C64 515.3 92.7 544 128 544L340 544C329.5 529.4 321 513.3 314.9 496L128 496C119.2 496 112 488.8 112 480L112 160C112 151.2 119.2 144 128 144zM348.7 275.8C344.4 268.5 336.5 264 328 264C319.5 264 311.6 268.5 307.3 275.8L260.8 354.8L243.6 330.2C239.1 323.8 231.8 320 223.9 320C216 320 208.7 323.8 204.2 330.2L148.2 410.2C143.1 417.5 142.4 427.1 146.6 435C150.8 442.9 159.1 448 168 448L304.7 448C304.3 442.7 304 437.4 304 432C304 378.8 325.6 330.7 360.5 296L348.7 275.9zM192 256C209.7 256 224 241.7 224 224C224 206.3 209.7 192 192 192C174.3 192 160 206.3 160 224C160 241.7 174.3 256 192 256zM496 576C575.5 576 640 511.5 640 432C640 352.5 575.5 288 496 288C416.5 288 352 352.5 352 432C352 511.5 416.5 576 496 576zM563.3 428.7C569.5 434.9 569.5 445.1 563.3 451.3L507.3 507.3C501.1 513.5 490.9 513.5 484.7 507.3L428.7 451.3C422.5 445.1 422.5 434.9 428.7 428.7C434.9 422.5 445.1 422.5 451.3 428.7L480 457.4L480 368C480 359.2 487.2 352 496 352C504.8 352 512 359.2 512 368L512 457.4L540.7 428.7C546.9 422.5 557.1 422.5 563.3 428.7z"/></svg>