<svg xmlns="http://www.w3.org/2000/svg" viewBox="0 0 640 640"><!--! Font Awesome Pro 7.2.0 by @fontawesome - https://fontawesome.com License - https://fontawesome.com/license (Commercial License) Copyright 2026 Fonticons, Inc. --><path opacity=".4" fill="currentColor" d="M105.3 508.6C103.6 517.3 109.3 525.8 118 527.4L213.2 545.7C221.7 547.3 229.9 541.9 231.8 533.5L296.3 245.3L296.3 176L272 176C267.9 229.7 223 272 168.3 272L152.3 272L105.3 508.6zM161.9 224L168.3 224C196.5 224 219.9 203.1 223.7 176L171.4 176L161.9 224zM181 128L459.7 128L455.9 108.9C454.4 101.4 447.8 96 440.2 96L200.5 96C192.9 96 186.3 101.4 184.8 108.9L181 128zM344.4 176L344.4 245.3L408.9 533.5C410.8 541.9 419 547.3 427.5 545.7L522.7 527.4C531.4 525.7 537.1 517.3 535.4 508.6L488.4 272L472.4 272C417.7 272 372.8 229.7 368.7 176L344.4 176zM417 176C420.9 203.1 444.2 224 472.4 224L478.8 224L469.3 176L417 176z"/><path fill="currentColor" d="M137.7 99.5C143.7 69.6 170 48 200.5 48L440.2 48C470.7 48 497 69.6 503 99.5L582.5 499.2C589.4 534 566.7 567.8 531.8 574.5L436.6 592.8C402.6 599.3 369.6 577.7 362.1 543.9L320.3 357.8L278.7 544C271.1 577.8 238.1 599.4 204.2 592.9L108.9 574.6C74.1 567.8 51.3 534 58.2 499.2L137.7 99.5zM200.5 96C192.9 96 186.3 101.4 184.8 108.9L181 128L459.7 128L455.9 108.9C454.4 101.4 447.8 96 440.2 96L200.5 96zM368.7 176L344.4 176L344.4 245.3L408.9 533.5C410.8 541.9 419 547.3 427.5 545.7L522.7 527.4C531.4 525.7 537.1 517.3 535.4 508.6L488.4 272L472.4 272C417.7 272 372.8 229.7 368.7 176zM417 176C420.9 203.1 444.2 224 472.4 224L478.8 224L469.3 176L417 176zM296.4 176L272 176C267.9 229.7 223 272 168.3 272L152.3 272L105.3 508.6C103.6 517.3 109.3 525.8 118 527.4L213.2 545.7C221.7 547.3 229.9 541.9 231.8 533.5L296.3 245.3L296.3 176zM171.5 176L162 224L168.4 224C196.6 224 220 203.1 223.8 176L171.5 176z"/></svg>