<svg xmlns="http://www.w3.org/2000/svg" viewBox="0 0 640 640"><!--! Font Awesome Pro 7.2.0 by @fontawesome - https://fontawesome.com License - https://fontawesome.com/license (Commercial License) Copyright 2026 Fonticons, Inc. --><path opacity=".4" fill="currentColor" d="M208 192L208 448C208 456.8 215.2 464 224 464L544 464C552.8 464 560 456.8 560 448L560 192C560 183.2 552.8 176 544 176L224 176C215.2 176 208 183.2 208 192zM248 232C248 223.2 255.2 216 264 216L280 216C288.8 216 296 223.2 296 232L296 248C296 256.8 288.8 264 280 264L264 264C255.2 264 248 256.8 248 248L248 232zM248 312C248 303.2 255.2 296 264 296L280 296C288.8 296 296 303.2 296 312L296 328C296 336.8 288.8 344 280 344L264 344C255.2 344 248 336.8 248 328L248 312zM288 400C288 391.2 295.2 384 304 384L464 384C472.8 384 480 391.2 480 400L480 416C480 424.8 472.8 432 464 432L304 432C295.2 432 288 424.8 288 416L288 400zM322.7 232C322.7 223.2 329.9 216 338.7 216L354.7 216C363.5 216 370.7 223.2 370.7 232L370.7 248C370.7 256.8 363.5 264 354.7 264L338.7 264C329.9 264 322.7 256.8 322.7 248L322.7 232zM322.7 312C322.7 303.2 329.9 296 338.7 296L354.7 296C363.5 296 370.7 303.2 370.7 312L370.7 328C370.7 336.8 363.5 344 354.7 344L338.7 344C329.9 344 322.7 336.8 322.7 328L322.7 312zM397.4 232C397.4 223.2 404.6 216 413.4 216L429.4 216C438.2 216 445.4 223.2 445.4 232L445.4 248C445.4 256.8 438.2 264 429.4 264L413.4 264C404.6 264 397.4 256.8 397.4 248L397.4 232zM397.4 312C397.4 303.2 404.6 296 413.4 296L429.4 296C438.2 296 445.4 303.2 445.4 312L445.4 328C445.4 336.8 438.2 344 429.4 344L413.4 344C404.6 344 397.4 336.8 397.4 328L397.4 312zM472 232C472 223.2 479.2 216 488 216L504 216C512.8 216 520 223.2 520 232L520 248C520 256.8 512.8 264 504 264L488 264C479.2 264 472 256.8 472 248L472 232zM472 312C472 303.2 479.2 296 488 296L504 296C512.8 296 520 303.2 520 312L520 328C520 336.8 512.8 344 504 344L488 344C479.2 344 472 336.8 472 328L472 312z"/><path fill="currentColor" d="M544 176C552.8 176 560 183.2 560 192L560 448C560 456.8 552.8 464 544 464L224 464C215.2 464 208 456.8 208 448L208 192C208 183.2 215.2 176 224 176L544 176zM224 128C188.7 128 160 156.7 160 192L160 448C160 483.3 188.7 512 224 512L544 512C579.3 512 608 483.3 608 448L608 192C608 156.7 579.3 128 544 128L224 128zM288 400L288 416C288 424.8 295.2 432 304 432L464 432C472.8 432 480 424.8 480 416L480 400C480 391.2 472.8 384 464 384L304 384C295.2 384 288 391.2 288 400zM264 216C255.2 216 248 223.2 248 232L248 248C248 256.8 255.2 264 264 264L280 264C288.8 264 296 256.8 296 248L296 232C296 223.2 288.8 216 280 216L264 216zM322.7 232L322.7 248C322.7 256.8 329.9 264 338.7 264L354.7 264C363.5 264 370.7 256.8 370.7 248L370.7 232C370.7 223.2 363.5 216 354.7 216L338.7 216C329.9 216 322.7 223.2 322.7 232zM413.4 216C404.6 216 397.4 223.2 397.4 232L397.4 248C397.4 256.8 404.6 264 413.4 264L429.4 264C438.2 264 445.4 256.8 445.4 248L445.4 232C445.4 223.2 438.2 216 429.4 216L413.4 216zM472 232L472 248C472 256.8 479.2 264 488 264L504 264C512.8 264 520 256.8 520 248L520 232C520 223.2 512.8 216 504 216L488 216C479.2 216 472 223.2 472 232zM264 296C255.2 296 248 303.2 248 312L248 328C248 336.8 255.2 344 264 344L280 344C288.8 344 296 336.8 296 328L296 312C296 303.2 288.8 296 280 296L264 296zM322.7 312L322.7 328C322.7 336.8 329.9 344 338.7 344L354.7 344C363.5 344 370.7 336.8 370.7 328L370.7 312C370.7 303.2 363.5 296 354.7 296L338.7 296C329.9 296 322.7 303.2 322.7 312zM413.4 296C404.6 296 397.4 303.2 397.4 312L397.4 328C397.4 336.8 404.6 344 413.4 344L429.4 344C438.2 344 445.4 336.8 445.4 328L445.4 312C445.4 303.2 438.2 296 429.4 296L413.4 296zM472 312L472 328C472 336.8 479.2 344 488 344L504 344C512.8 344 520 336.8 520 328L520 312C520 303.2 512.8 296 504 296L488 296C479.2 296 472 303.2 472 312zM105 289C114.4 279.6 114.4 264.4 105 255.1C95.6 245.8 80.4 245.7 71.1 255.1L23 303C13.6 312.4 13.6 327.6 23 336.9L71 384.9C80.4 394.3 95.6 394.3 104.9 384.9C114.2 375.5 114.3 360.3 104.9 351L73.9 320L104.9 289z"/></svg>