<svg xmlns="http://www.w3.org/2000/svg" viewBox="0 0 640 640"><!--! Font Awesome Pro 7.2.0 by @fontawesome - https://fontawesome.com License - https://fontawesome.com/license (Commercial License) Copyright 2026 Fonticons, Inc. --><path opacity=".4" fill="currentColor" d="M147.1 368L193.6 240L446.4 240L492.9 368L147.1 368z"/><path fill="currentColor" d="M278.4 136L248 136C225.9 136 208 153.9 208 176L208 192L446.4 192C466.6 192 484.6 204.6 491.5 223.6L541.6 361.2C543.2 365.7 544.1 370.4 544.1 375.1C544.1 397.6 525.8 415.9 503.3 415.9L344.1 415.9L344.1 527.9L392.1 527.9C405.4 527.9 416.1 538.6 416.1 551.9C416.1 565.2 405.4 575.9 392.1 575.9L248.1 575.9C234.8 575.9 224.1 565.2 224.1 551.9C224.1 538.6 234.8 527.9 248.1 527.9L296.1 527.9L296.1 415.9L136.9 415.9C114.4 415.9 96.1 397.6 96.1 375.1C96.1 370.3 96.9 365.6 98.6 361.2L160 192L160 176C160 127.4 199.4 88 248 88L278.4 88C286.7 73.7 302.2 64 320 64L384 64C410.5 64 432 85.5 432 112C432 138.5 410.5 160 384 160L320 160C302.2 160 286.7 150.3 278.4 136zM147.1 368L492.9 368L446.4 240L193.6 240L147.1 368z"/></svg>