<svg xmlns="http://www.w3.org/2000/svg" viewBox="0 0 640 640"><!--! Font Awesome Pro 7.2.0 by @fontawesome - https://fontawesome.com License - https://fontawesome.com/license (Commercial License) Copyright 2026 Fonticons, Inc. --><path opacity=".4" fill="currentColor" d="M104.1 288C104.1 328.4 124.5 367.2 147.3 397.6C157.3 411 168 423.5 179.3 434.6L215.3 414.1L205.8 407.6C145.6 366.2 115.6 295.8 121.3 227C111.1 244.1 104 264.4 104 288zM425.9 414.1L461.8 434.6C473.2 423.5 483.9 411 493.9 397.7C516.7 367.3 537.1 328.5 537.1 288.1C537.1 263.8 529.7 243 518.9 225.6C525.6 294.1 498.1 364.5 435.3 407.6L425.8 414.1z"/><path fill="currentColor" d="M304.7 72C313.6 64.6 326.5 64.6 335.4 72L373.2 103.5C381.9 110.8 384.3 123.1 379.2 133.1C378 135.5 376.4 138.6 374.6 142.3C408.8 161.5 431.9 198.1 431.9 240.1C431.9 282.1 408.8 318.7 374.6 337.9C376.4 341.6 377.9 344.7 379.2 347.1C384.3 357.1 381.9 369.4 373.2 376.7L336 407.7L336 427.5L371.6 403C371.6 403 371.6 403 371.7 403L412.8 374.8C484.9 325.2 499 223.7 451.9 153.1C447.9 147.1 448.4 139.1 453.2 133.6C458 128.1 466 126.7 472.5 130C531 160 577.2 221.3 577.2 288.2C577.2 341.3 550.8 388.7 526 421.8C511.2 441.5 494.3 460.5 475.4 476.5C470.3 480.8 463 481.4 457.2 478.1L381.6 435.1L348.9 457.6L394.4 488.9C396.2 488.5 398.1 488.2 400.1 488.2C413.4 488.2 424.1 498.9 424.1 512.2C424.1 525.5 413.4 536.2 400.1 536.2C387.9 536.2 377.8 527.1 376.3 515.2L336.1 487.6L336.1 516.5C345.7 522 352.1 532.4 352.1 544.2C352.1 561.9 337.8 576.2 320.1 576.2C302.4 576.2 288.1 561.9 288.1 544.2C288.1 532.4 294.5 522 304.1 516.5L304.1 488.4L263.8 516.1C262 527.5 252 536.2 240.1 536.2C226.8 536.2 216.1 525.5 216.1 512.2C216.1 498.9 226.8 488.2 240.1 488.2C242.3 488.2 244.5 488.5 246.6 489.1L292.4 457.6L259.7 435.1L184.1 478.1C178.3 481.4 171.1 480.8 165.9 476.5C146.9 460.6 130.1 441.5 115.3 421.8C90.5 388.7 64.1 341.3 64.1 288.2C64.1 234.5 91 194.6 116.8 168.9C132.2 153.5 149.5 139.7 169 129.9C175.5 126.7 183.3 128.2 188.2 133.6C195.1 141.4 191.6 149.9 186.7 157.3C140.3 226.8 159.2 327.1 228.6 374.8L269.7 403L269.8 403L304.3 426.7L304.3 407.6L267.1 376.6C258.4 369.3 256 357 261.1 347C262.3 344.6 263.9 341.5 265.7 337.8C231.5 318.6 208.4 282 208.4 240C208.4 198 231.5 161.4 265.7 142.2C263.9 138.5 262.4 135.4 261.1 133C256 123 258.4 110.7 267.1 103.4L304.7 72zM284.3 186.9C267.3 198.4 256.1 217.9 256.1 240C256.1 262.1 267.3 281.6 284.3 293.1C291.1 273.9 296.1 254.7 296.1 240C296.1 225.3 291.2 206.1 284.3 186.9zM355.8 293.1C372.8 281.6 384 262.1 384 240C384 217.9 372.8 198.4 355.8 186.9C349 206.1 344 225.3 344 240C344 254.7 348.9 273.9 355.8 293.1zM121.3 227C111.1 244.1 104 264.4 104 288C104 328.4 124.4 367.2 147.2 397.6C157.2 411 167.9 423.5 179.2 434.6L215.2 414.1L205.7 407.6C145.6 366.2 115.6 295.7 121.3 227zM493.9 397.6C516.7 367.2 537.1 328.4 537.1 288C537.1 263.7 529.7 242.9 518.9 225.5C525.6 294 498.1 364.4 435.3 407.5L425.8 414L461.7 434.5C473.1 423.4 483.8 410.9 493.8 397.6z"/></svg>