<svg xmlns="http://www.w3.org/2000/svg" viewBox="0 0 640 640"><!--! Font Awesome Pro 7.2.0 by @fontawesome - https://fontawesome.com License - https://fontawesome.com/license (Commercial License) Copyright 2026 Fonticons, Inc. --><path opacity=".4" fill="currentColor" d="M289.1 348.9L322.6 148.5L406.1 232L289.1 348.9zM473.9 232L560 145.9L560 318L473.9 231.9z"/><path fill="currentColor" d="M560 64C586.5 64 608 85.5 608 112L608 343.3L607.8 347.6C605.9 369.1 589.6 387 567.9 390.6L264.7 441.2L141.9 564C134.2 571.7 123.8 576 112.9 576C90.3 576 71.9 557.7 71.9 535L71.9 359L38 380.2C34 382.7 29.5 384 24.8 384C11.1 384-.1 372.9-.1 359.1L-.1 312.8C-.1 299.1 11 287.9 24.8 287.9C29.5 287.9 34 289.2 38 291.7L72 313L72 264C72 250.7 61.3 240 48 240L24 240C10.7 240 0 229.3 0 216C0 202.7 10.7 192 24 192L48 192C87.8 192 120 224.2 120 264L120 313L154 291.8C157.9 289.3 162.5 288 167.2 288C180.9 288 192.1 299.1 192.1 312.9L192.1 359.2C192.1 372.9 181 384.1 167.2 384.1C162.5 384.1 158 382.8 154 380.3L120 359.1L120 518.2L230.8 407.4L281.3 104.2C284.9 82.5 302.8 66.2 324.3 64.3L328.6 64L560 64zM323.1 382.8L523.4 349.4L439.9 265.9L323 382.7zM289.1 348.9L406.1 232L322.6 148.5L289.1 348.9zM473.9 232L560 318.1L560 146L473.9 232.1zM440 198.1L526.1 112L353.9 112L440 198.1z"/></svg>