<svg xmlns="http://www.w3.org/2000/svg" viewBox="0 0 640 640"><!--! Font Awesome Pro 7.2.0 by @fontawesome - https://fontawesome.com License - https://fontawesome.com/license (Commercial License) Copyright 2026 Fonticons, Inc. --><path opacity=".4" fill="currentColor" d="M97.7 373.8L212.4 410.9C224 414.7 230.9 426.5 228.6 438.5L222.8 467.5L296.2 443L296.2 280.1L296.3 277.6C297.5 265.5 307.8 256.1 320.2 256.1C332.6 256.1 342.8 265.5 344.1 277.6L344.2 280.1L344.2 443.1L416.8 467.7L411.6 437.9C409.6 426.1 416.5 414.6 427.9 411L542.7 373.9L531.5 354.4C528.3 348.9 527.4 342.3 529.1 336.2L539.9 295.8L499.5 285C493.4 283.4 488.1 279.3 484.9 273.8L473.6 254.3L423.5 299.5C415.8 306.4 404.6 307.7 395.6 302.6C386.6 297.5 381.9 287.2 383.9 277L405.6 168.9L377.5 168.9C370.2 168.9 363.3 165.6 358.8 159.9L320.1 111.6L281.5 159.9C277 165.6 270 168.9 262.8 168.9L234.7 168.9L256.4 277L256.8 280.8C257.1 289.6 252.5 298.1 244.7 302.6C235.7 307.7 224.4 306.5 216.8 299.5L166.8 254.3L155.5 273.8C153.1 277.9 149.6 281.2 145.3 283.3L140.9 285L100.5 295.8L111.3 336.2C112.9 342.3 112.1 348.9 108.9 354.4L97.7 373.8z"/><path fill="currentColor" d="M293.4 68.6C308.3 53.9 332.4 53.9 347.2 68.6L350.2 72L389.2 120.7L417.5 120.7L422 120.9C443.9 123.4 459.6 144.3 455.1 166.5L455.1 166.5L445.4 214.9L450.4 210.4L453.9 207.6C470.8 195.5 494.5 199.3 506.8 215.9L509.3 219.7L521.5 240.9L561.7 251.7L561.7 251.7C582.1 257.2 594.3 278.2 588.9 298.6L588.9 298.6L578.1 338.7L590.4 360L592.4 364C600.6 383.1 592 405.4 573.1 414L568.9 415.6L462.5 449.9L466.9 475.2L466.9 475.2L467.4 480.5C468.3 504.9 445.9 524 421.9 519.4L416.8 518.1L416.8 518.1L344.2 493.5L344.2 583.8C344.2 597.1 333.5 607.8 320.2 607.8C306.9 607.8 296.2 597.1 296.2 583.8L296.2 493.3L222.2 518L222.2 518C194.3 527.3 166.8 502.9 172.5 474.1L177.3 449.7L71.5 415.6L71.5 415.6C48.4 408.3 38 381.3 50.2 360.1L62.5 338.8L51.7 298.7C46.2 278.2 58.4 257.2 78.8 251.7L119 241L131.2 219.8L133.7 216C146.1 199.3 169.7 195.6 186.6 207.7L190.1 210.5L195.1 215L185.4 166.6L185.4 166.6C180.7 142.9 198.8 120.8 223 120.8L251.3 120.8L290.3 72.1L293.3 68.7zM281.7 159.7C277.2 165.4 270.2 168.7 263 168.7L234.9 168.7L256.6 276.8L257 280.6C257.3 289.4 252.7 297.9 244.9 302.4C235.9 307.5 224.6 306.3 217 299.3L167 254.1L155.7 273.6C153.3 277.7 149.8 281 145.5 283.1L141.1 284.8L100.7 295.6L111.5 336C113.1 342.1 112.3 348.7 109.1 354.2L97.8 373.7L212.5 410.8C224.1 414.6 231 426.4 228.7 438.4L222.9 467.4L296.3 442.9L296.3 280L296.4 277.5C297.6 265.4 307.9 256 320.3 256C332.7 256 342.9 265.4 344.2 277.5L344.3 280L344.3 443L416.9 467.6L411.7 437.8C409.7 426 416.6 414.5 428 410.9L542.8 373.8L531.6 354.3C528.4 348.8 527.5 342.2 529.2 336.1L540 295.7L499.6 284.9C493.5 283.3 488.2 279.2 485 273.7L473.7 254.2L423.6 299.4C415.9 306.3 404.7 307.6 395.7 302.5C386.7 297.4 382 287.1 384 276.9L405.7 168.8L377.6 168.8C370.3 168.8 363.4 165.5 358.9 159.8L320.2 111.5L281.6 159.8z"/></svg>