<svg xmlns="http://www.w3.org/2000/svg" viewBox="0 0 640 640"><!--! Font Awesome Pro 7.2.0 by @fontawesome - https://fontawesome.com License - https://fontawesome.com/license (Commercial License) Copyright 2026 Fonticons, Inc. --><path opacity=".4" fill="currentColor" d="M249.9 320L336 406.1L336 376C336 362.7 346.7 352 360 352L528 352L528 288C476 288 420 288 360 288C346.7 288 336 277.3 336 264L336 233.9L249.9 320z"/><path fill="currentColor" d="M128 160C128 177.7 113.7 192 96 192C78.3 192 64 177.7 64 160C64 142.3 78.3 128 96 128C113.7 128 128 142.3 128 160zM128 266.7C128 284.4 113.7 298.7 96 298.7C78.3 298.7 64 284.4 64 266.7C64 249 78.3 234.7 96 234.7C113.7 234.7 128 249 128 266.7zM96 405.3C78.3 405.3 64 391 64 373.3C64 355.6 78.3 341.3 96 341.3C113.7 341.3 128 355.6 128 373.3C128 391 113.7 405.3 96 405.3zM128 480C128 497.7 113.7 512 96 512C78.3 512 64 497.7 64 480C64 462.3 78.3 448 96 448C113.7 448 128 462.3 128 480zM199 337C194.5 332.5 192 326.4 192 320C192 313.6 194.5 307.5 199 303L343 159C349.9 152.1 360.2 150.1 369.2 153.8C378.2 157.5 384 166.3 384 176L384 240L448 240L448 240L528 240C554.5 240 576 261.5 576 288L576 352C576 378.5 554.5 400 528 400L384 400L384 464C384 473.7 378.2 482.5 369.2 486.2C360.2 489.9 349.9 487.9 343 481L199 337zM448 352L528 352L528 288L448 288L448 288L360 288C346.7 288 336 277.3 336 264L336 233.9L249.9 320L336 406.1L336 376C336 362.7 346.7 352 360 352L448 352z"/></svg>