<svg xmlns="http://www.w3.org/2000/svg" viewBox="0 0 640 640"><!--! Font Awesome Pro 7.2.0 by @fontawesome - https://fontawesome.com License - https://fontawesome.com/license (Commercial License) Copyright 2026 Fonticons, Inc. --><path opacity=".4" fill="currentColor" d="M176 256C176 294.4 191 329.2 215.5 355C236.8 377.5 260.4 409 268.8 448L371.2 448C379.6 409 403.2 377.5 424.5 355C449 329.2 464 294.4 464 256C464 176.5 399.5 112 320 112C240.5 112 176 176.5 176 256zM352 344C352 361.7 337.7 376 320 376C302.3 376 288 361.7 288 344C288 326.3 302.3 312 320 312C337.7 312 352 326.3 352 344zM289 202.6C287 184.1 301.4 168 320 168C338.6 168 353 184.1 351 202.6L343.9 266.7C342.5 278.8 332.2 288 320 288C307.8 288 297.5 278.8 296.2 266.7L289 202.6z"/><path fill="currentColor" d="M320 64C426 64 512 150 512 256C512 307.2 492 353.7 459.3 388.1L450.7 397.7C431.1 420.6 416 447.7 416 477.7L416 496.1C416 540.3 380.2 576.1 336 576.1L304 576.1C259.8 576.1 224 540.3 224 496.1L224 477.7C224 443.4 204.3 413 180.7 388.1C148.1 353.7 128 307.2 128 256C128 150 214 64 320 64zM320 112C240.5 112 176 176.5 176 256C176 294.4 191 329.2 215.5 355C236.8 377.5 260.4 409 268.8 448L371.2 448C379.6 409 403.2 377.5 424.5 355C449 329.2 464 294.4 464 256C464 176.5 399.5 112 320 112zM69.3 362.5C81.2 356.6 95.6 361.4 101.5 373.2C107.4 385 102.6 399.5 90.7 405.4L58.7 421.4C46.8 427.3 32.4 422.5 26.5 410.7C20.6 398.9 25.4 384.4 37.3 378.5L69.3 362.5zM538.5 373.2C544.4 361.4 558.8 356.5 570.7 362.5L602.7 378.5C614.5 384.4 619.4 398.8 613.4 410.7C607.5 422.5 593.1 427.4 581.2 421.4L549.2 405.4C537.4 399.5 532.5 385.1 538.5 373.2zM320 376C302.3 376 288 361.7 288 344C288 326.3 302.3 312 320 312C337.7 312 352 326.3 352 344C352 361.7 337.7 376 320 376zM320 168C338.6 168 353 184.1 351 202.6L343.9 266.7C342.5 278.8 332.2 288 320 288C307.8 288 297.5 278.8 296.2 266.7L289 202.6C287 184.1 301.4 168 320 168zM56 232C69.3 232 80 242.7 80 256C80 269.3 69.3 280 56 280L24 280C10.7 280 0 269.3 0 256C0 242.7 10.7 232 24 232L56 232zM616 232C629.3 232 640 242.7 640 256C640 269.3 629.3 280 616 280L584 280C570.7 280 560 269.3 560 256C560 242.7 570.7 232 584 232L616 232zM26.5 101.3C32.4 89.4 46.8 84.6 58.7 90.5L90.7 106.5C102.6 112.4 107.4 126.8 101.5 138.7C95.6 150.6 81.1 155.4 69.3 149.5L37.3 133.5C25.4 127.5 20.6 113.1 26.5 101.3zM581.3 90.5C593.2 84.6 607.6 89.4 613.5 101.3C619.4 113.2 614.6 127.6 602.8 133.5L570.8 149.5C558.9 155.4 544.5 150.6 538.6 138.7C532.7 126.8 537.5 112.4 549.3 106.5L581.3 90.5z"/></svg>