<svg xmlns="http://www.w3.org/2000/svg" viewBox="0 0 640 640"><!--! Font Awesome Pro 7.2.0 by @fontawesome - https://fontawesome.com License - https://fontawesome.com/license (Commercial License) Copyright 2026 Fonticons, Inc. --><path opacity=".4" fill="currentColor" d="M78.7 320.3L143.6 403.2C181.5 451.6 239.6 479.9 301.1 479.9L338.8 479.9C400.3 479.9 458.4 451.6 496.3 403.2L561.2 320.3L458.8 195.2C444.7 178 423.6 168 401.4 168C389.2 168 377.2 171 366.4 176.8L331.2 195.6C324.1 199.4 315.6 199.4 308.6 195.6L273.4 176.8C262.6 171.1 250.6 168 238.4 168C216.2 168 195.1 178 181 195.2L78.7 320.3zM136.1 322.3C135.4 315.1 137.9 308 143 303L207 239C213.4 232.6 222.9 230.3 231.6 233.2L320 262.7L408.4 233.2C417 230.3 426.5 232.6 433 239L497 303C502.1 308.1 504.6 315.2 503.9 322.3C503.2 329.4 499.3 336 493.3 340L445.7 371.8C410.2 395.4 368.5 408 325.9 408L314.2 408C271.6 408 229.9 395.4 194.4 371.7L146.7 340C140.7 336 136.8 329.6 136.1 322.4z"/><path fill="currentColor" d="M238.5 120C201.9 120 167.1 136.4 143.9 164.8L29.4 304.8C22.3 313.5 22.2 325.9 29.1 334.8L105.8 432.9C152.8 493 224.8 528.1 301.1 528.1L338.8 528.1C415.1 528.1 487.1 493 534.1 432.9L610.8 334.8C617.7 326 617.6 313.5 610.5 304.8L496 164.8C472.8 136.4 438.1 120 401.4 120C381.3 120 361.5 125 343.8 134.4L320 147.2L296.1 134.4C278.4 125 258.6 120 238.5 120zM181.1 195.2C195.2 178 216.3 168 238.5 168C250.7 168 262.7 171 273.5 176.8L308.7 195.6C315.8 199.4 324.3 199.4 331.3 195.6L366.5 176.8C377.3 171.1 389.3 168 401.5 168C423.7 168 444.8 178 458.9 195.2L561.3 320.3L496.4 403.2C458.5 451.6 400.4 479.9 338.9 479.9L301.2 479.9C239.7 479.9 181.6 451.6 143.7 403.2L78.7 320.3L181.1 195.2zM231.6 233.2C223 230.3 213.5 232.6 207 239L143 303C137.9 308.1 135.4 315.2 136.1 322.3C136.8 329.4 140.7 335.9 146.7 339.9L194.3 371.7C229.8 395.4 271.5 408 314.1 408L325.8 408C368.4 408 410.1 395.4 445.6 371.7L493.3 340C499.3 336 503.2 329.6 503.9 322.4C504.6 315.2 502.1 308.1 497 303.1L433 239.1C426.6 232.7 417.1 230.4 408.4 233.3L320 262.8L231.6 233.3zM197.7 316.2L230.5 283.4L312.4 310.7C317.3 312.3 322.7 312.3 327.6 310.7L409.5 283.4L442.3 316.2L419 331.7C391.4 350.1 359 359.9 325.8 359.9L314.1 359.9C280.9 359.9 248.5 350.1 220.9 331.7L197.6 316.2z"/></svg>