<svg xmlns="http://www.w3.org/2000/svg" viewBox="0 0 640 640"><!--! Font Awesome Pro 7.2.0 by @fontawesome - https://fontawesome.com License - https://fontawesome.com/license (Commercial License) Copyright 2026 Fonticons, Inc. --><path opacity=".4" fill="currentColor" d="M104 320C104 333.3 114.7 344 128 344C141.3 344 152 333.3 152 320C152 306.7 141.3 296 128 296C114.7 296 104 306.7 104 320zM104 480C104 493.3 114.7 504 128 504C141.3 504 152 493.3 152 480C152 466.7 141.3 456 128 456C114.7 456 104 466.7 104 480z"/><path fill="currentColor" d="M64 160C64 124.7 92.7 96 128 96C163.3 96 192 124.7 192 160C192 195.3 163.3 224 128 224C92.7 224 64 195.3 64 160zM152 320C152 306.7 141.3 296 128 296C114.7 296 104 306.7 104 320C104 333.3 114.7 344 128 344C141.3 344 152 333.3 152 320zM64 320C64 284.7 92.7 256 128 256C163.3 256 192 284.7 192 320C192 355.3 163.3 384 128 384C92.7 384 64 355.3 64 320zM152 480C152 466.7 141.3 456 128 456C114.7 456 104 466.7 104 480C104 493.3 114.7 504 128 504C141.3 504 152 493.3 152 480zM64 480C64 444.7 92.7 416 128 416C163.3 416 192 444.7 192 480C192 515.3 163.3 544 128 544C92.7 544 64 515.3 64 480zM280 136L552 136C565.3 136 576 146.7 576 160C576 173.3 565.3 184 552 184L280 184C266.7 184 256 173.3 256 160C256 146.7 266.7 136 280 136zM280 296L552 296C565.3 296 576 306.7 576 320C576 333.3 565.3 344 552 344L280 344C266.7 344 256 333.3 256 320C256 306.7 266.7 296 280 296zM280 456L552 456C565.3 456 576 466.7 576 480C576 493.3 565.3 504 552 504L280 504C266.7 504 256 493.3 256 480C256 466.7 266.7 456 280 456z"/></svg>