<svg xmlns="http://www.w3.org/2000/svg" viewBox="0 0 640 640"><!--! Font Awesome Pro 7.2.0 by @fontawesome - https://fontawesome.com License - https://fontawesome.com/license (Commercial License) Copyright 2026 Fonticons, Inc. --><path opacity=".4" fill="currentColor" d="M176 252.6C176 298.2 199.8 354.1 234.9 409.7C263.2 454.5 295.9 494.4 320 521.7C344.1 494.4 376.8 454.5 405.1 409.7C440.2 354.2 464 298.2 464 252.6C464 175.8 400.3 112 320 112C239.7 112 176 175.7 176 252.6zM352 384C352 401.7 337.7 416 320 416C302.3 416 288 401.7 288 384C288 366.3 302.3 352 320 352C337.7 352 352 366.3 352 384zM288.6 193.7C287.3 175.5 301.7 160 320 160C338.2 160 352.7 175.5 351.4 193.7L344 297.7C343.1 310.3 332.6 320 320.1 320C307.5 320 297.1 310.3 296.2 297.7L288.8 193.7z"/><path fill="currentColor" d="M320 64C426 64 512 148.4 512 252.6C512 371.9 391.8 514.9 341.6 569.4L341.6 569.4C329.8 582.2 310.2 582.2 298.3 569.4L298.3 569.4C248.1 514.8 128 371.9 128 252.6C128 148.4 214 64 320 64zM320 112C239.7 112 176 175.7 176 252.6C176 298.2 199.8 354.1 234.9 409.7C263.2 454.5 295.9 494.4 320 521.7C344.1 494.4 376.8 454.5 405.1 409.7C440.2 354.2 464 298.2 464 252.6C464 175.8 400.3 112 320 112zM320 416C302.3 416 288 401.7 288 384C288 366.3 302.3 352 320 352C337.7 352 352 366.3 352 384C352 401.7 337.7 416 320 416zM320 160C338.2 160 352.7 175.5 351.4 193.7L344 297.7C343.1 310.3 332.6 320 320.1 320C307.5 320 297.1 310.3 296.2 297.7L288.8 193.7C287.3 175.5 301.8 160 320 160z"/></svg>