<svg xmlns="http://www.w3.org/2000/svg" viewBox="0 0 640 640"><!--! Font Awesome Pro 7.2.0 by @fontawesome - https://fontawesome.com License - https://fontawesome.com/license (Commercial License) Copyright 2026 Fonticons, Inc. --><path opacity=".4" fill="currentColor" d="M143.4 286.9L277.9 331.7C292.2 336.5 303.5 347.7 308.3 362.1L353.1 496.6L484.1 155.9L143.4 286.9z"/><path fill="currentColor" d="M277.9 331.8C292.2 336.6 303.5 347.8 308.3 362.2L353.1 496.6L484.1 155.9L143.4 286.9L277.9 331.8zM534.6 105.4C543.5 114.3 546.4 127.7 541.8 139.5L381.8 555.5C377 568.1 364.7 576.3 351.2 576C337.7 575.7 325.8 566.9 321.6 554.1L262.7 377.3L85.9 318.4C73.1 314.1 64.3 302.2 64 288.7C63.7 275.2 71.9 263 84.5 258.1L500.5 98.1C512.3 93.6 525.7 96.4 534.6 105.3z"/></svg>