<svg xmlns="http://www.w3.org/2000/svg" viewBox="0 0 640 640"><!--! Font Awesome Pro 7.2.0 by @fontawesome - https://fontawesome.com License - https://fontawesome.com/license (Commercial License) Copyright 2026 Fonticons, Inc. --><path opacity=".4" fill="currentColor" d="M112 252.6C112 298.2 135.8 354.1 170.9 409.7C199.2 454.5 231.9 494.5 256 521.8C270 506 286.8 485.9 304 463.1C304.3 435 316.6 409.8 336 392.5L336 368.1C336 320.8 361.7 279.4 399.9 257.3C400 255.8 400 254.2 400 252.7C400 175.9 336.3 112.1 256 112.1C175.7 112.1 112 175.7 112 252.6zM336 256C336 300.2 300.2 336 256 336C211.8 336 176 300.2 176 256C176 211.8 211.8 176 256 176C300.2 176 336 211.8 336 256z"/><path fill="currentColor" d="M112 252.6C112 175.7 175.7 112 256 112C336.3 112 400 175.7 400 252.6C400 254.1 400 255.7 399.9 257.2C414.3 248.9 430.4 243.3 447.6 241.1C441.5 142.3 358 64.1 256 64.1C150 64.1 64 148.5 64 252.7C64 372 184.2 515 234.4 569.5C246.2 582.3 265.9 582.3 277.7 569.5C285.2 561.4 294.1 551.4 304.1 539.7L304.1 464L304.1 463.1C286.9 485.9 270.1 506 256.1 521.8C232 494.5 199.4 454.6 171 409.7C135.9 354.2 112.1 298.2 112.1 252.6zM224 256C224 238.3 238.3 224 256 224C273.7 224 288 238.3 288 256C288 273.7 273.7 288 256 288C238.3 288 224 273.7 224 256zM336 256C336 211.8 300.2 176 256 176C211.8 176 176 211.8 176 256C176 300.2 211.8 336 256 336C300.2 336 336 300.2 336 256zM496 368.1L496 416L432 416L432 368.1C432 350.4 446.3 336.1 464 336.1C481.7 336.1 496 350.4 496 368.1zM352 464L352 560C352 586.5 373.5 608 400 608L528 608C554.5 608 576 586.5 576 560L576 464C576 443.1 562.6 425.3 544 418.7L544 368.1C544 323.9 508.2 288.1 464 288.1C419.8 288.1 384 323.9 384 368.1L384 418.7C365.4 425.3 352 443.1 352 464z"/></svg>