<svg xmlns="http://www.w3.org/2000/svg" viewBox="0 0 640 640"><!--! Font Awesome Pro 7.2.0 by @fontawesome - https://fontawesome.com License - https://fontawesome.com/license (Commercial License) Copyright 2026 Fonticons, Inc. --><path opacity=".4" fill="currentColor" d="M176 288L176 512C176 520.8 183.2 528 192 528L448 528C456.8 528 464 520.8 464 512L464 288C464 279.2 456.8 272 448 272C432 272 416 272 400 272C274.7 272 205.3 272 192 272C183.2 272 176 279.1 176 288zM220 360C220 349 229 340 240 340L260 340L260 320C260 309 269 300 280 300C291 300 300 309 300 320L300 340L340 340L340 320C340 309 349 300 360 300C371 300 380 309 380 320L380 340L400 340C411 340 420 349 420 360C420 371 411 380 400 380L380 380L380 420L400 420C411 420 420 429 420 440C420 451 411 460 400 460L380 460L380 480C380 491 371 500 360 500C349 500 340 491 340 480L340 460L300 460L300 480C300 491 291 500 280 500C269 500 260 491 260 480L260 460L240 460C229 460 220 451 220 440C220 429 229 420 240 420L260 420L260 380L240 380C229 380 220 371 220 360zM300 380L300 420L340 420L340 380L300 380z"/><path fill="currentColor" d="M240 160L240 224L400 224L400 160C400 115.8 364.2 80 320 80C275.8 80 240 115.8 240 160zM192 224L192 160C192 89.3 249.3 32 320 32C390.7 32 448 89.3 448 160L448 224C483.3 224 512 252.7 512 288L512 512C512 547.3 483.3 576 448 576L192 576C156.7 576 128 547.3 128 512L128 288C128 252.7 156.7 224 192 224zM400 272L240 272L240 272L192 272L192 272C183.2 272 176 279.2 176 288L176 512C176 520.8 183.2 528 192 528L448 528C456.8 528 464 520.8 464 512L464 288C464 279.2 456.8 272 448 272L448 272L400 272L400 272zM280 300C291 300 300 309 300 320L300 340L340 340L340 320C340 309 349 300 360 300C371 300 380 309 380 320L380 340L400 340C411 340 420 349 420 360C420 371 411 380 400 380L380 380L380 420L400 420C411 420 420 429 420 440C420 451 411 460 400 460L380 460L380 480C380 491 371 500 360 500C349 500 340 491 340 480L340 460L300 460L300 480C300 491 291 500 280 500C269 500 260 491 260 480L260 460L240 460C229 460 220 451 220 440C220 429 229 420 240 420L260 420L260 380L240 380C229 380 220 371 220 360C220 349 229 340 240 340L260 340L260 320C260 309 269 300 280 300zM300 380L300 420L340 420L340 380L300 380z"/></svg>