<svg xmlns="http://www.w3.org/2000/svg" viewBox="0 0 640 640"><!--! Font Awesome Pro 7.2.0 by @fontawesome - https://fontawesome.com License - https://fontawesome.com/license (Commercial License) Copyright 2026 Fonticons, Inc. --><path opacity=".4" fill="currentColor" d="M112 272C112 360.4 183.6 432 272 432C360.4 432 432 360.4 432 272C432 183.6 360.4 112 272 112C183.6 112 112 183.6 112 272zM168 280C168 266.7 178.7 256 192 256C205.3 256 216 266.7 216 280L216 328C216 341.3 205.3 352 192 352C178.7 352 168 341.3 168 328L168 280zM248 184C248 170.7 258.7 160 272 160C285.3 160 296 170.7 296 184L296 328C296 341.3 285.3 352 272 352C258.7 352 248 341.3 248 328L248 184zM328 248C328 234.7 338.7 224 352 224C365.3 224 376 234.7 376 248L376 328C376 341.3 365.3 352 352 352C338.7 352 328 341.3 328 328L328 248z"/><path fill="currentColor" d="M272 112C360.4 112 432 183.6 432 272C432 360.4 360.4 432 272 432C183.6 432 112 360.4 112 272C112 183.6 183.6 112 272 112zM272 480C320.8 480 365.7 463.2 401.1 435.1L535 569C544.4 578.4 559.6 578.4 568.9 569C578.2 559.6 578.3 544.4 568.9 535.1L435.1 401.1C463.2 365.7 480 320.8 480 272C480 157.1 386.9 64 272 64C157.1 64 64 157.1 64 272C64 386.9 157.1 480 272 480zM168 280L168 328C168 341.3 178.7 352 192 352C205.3 352 216 341.3 216 328L216 280C216 266.7 205.3 256 192 256C178.7 256 168 266.7 168 280zM248 184L248 328C248 341.3 258.7 352 272 352C285.3 352 296 341.3 296 328L296 184C296 170.7 285.3 160 272 160C258.7 160 248 170.7 248 184zM328 248L328 328C328 341.3 338.7 352 352 352C365.3 352 376 341.3 376 328L376 248C376 234.7 365.3 224 352 224C338.7 224 328 234.7 328 248z"/></svg>