<svg xmlns="http://www.w3.org/2000/svg" viewBox="0 0 640 640"><!--! Font Awesome Pro 7.2.0 by @fontawesome - https://fontawesome.com License - https://fontawesome.com/license (Commercial License) Copyright 2026 Fonticons, Inc. --><path opacity=".4" fill="currentColor" d="M80 336L336 336L336 358.8L210.9 431.2C210 431.7 209 432 208 432C207 432 206 431.7 205.1 431.2L80 358.8L80 336zM80 414.3L181.1 472.8C189.3 477.5 198.6 480 208 480C217.4 480 226.8 477.5 234.9 472.8L336 414.3L336 528L80 528L80 414.3zM240 208L560 208L560 432L432 432L432 336C432 283 389 240 336 240L240 240L240 208zM432 280L432 328C432 341.3 442.7 352 456 352L504 352C517.3 352 528 341.3 528 328L528 280C528 266.7 517.3 256 504 256L456 256C442.7 256 432 266.7 432 280z"/><path fill="currentColor" d="M144 112L448 112C448 85.5 426.5 64 400 64L144 64C117.5 64 96 85.5 96 112L96 240L144 240L144 112zM240 240L240 208L560 208L560 432L432 432L432 480L560 480C586.5 480 608 458.5 608 432L608 208C608 181.5 586.5 160 560 160L240 160C213.5 160 192 181.5 192 208L192 240L240 240zM336 336L336 358.8L210.9 431.2C210 431.7 209 432 208 432C207 432 206 431.7 205.1 431.2L80 358.8L80 336L336 336zM80 528L80 414.3L181.1 472.8C189.3 477.5 198.6 480 208 480C217.4 480 226.8 477.5 234.9 472.8L336 414.3L336 528L80 528zM80 288C53.5 288 32 309.5 32 336L32 528C32 554.5 53.5 576 80 576L336 576C362.5 576 384 554.5 384 528L384 336C384 309.5 362.5 288 336 288L80 288zM456 256C442.7 256 432 266.7 432 280L432 328C432 341.3 442.7 352 456 352L504 352C517.3 352 528 341.3 528 328L528 280C528 266.7 517.3 256 504 256L456 256z"/></svg>