<svg xmlns="http://www.w3.org/2000/svg" viewBox="0 0 640 640"><!--! Font Awesome Pro 7.2.0 by @fontawesome - https://fontawesome.com License - https://fontawesome.com/license (Commercial License) Copyright 2026 Fonticons, Inc. --><path opacity=".4" fill="currentColor" d="M144 271.7L144 432C144 435 147.6 450.5 183.1 468.3C215.7 484.6 264 496 320 496C376 496 424.4 484.5 456.9 468.3C492.4 450.5 496 435 496 432L496 271.7C482.8 282.9 467 291.4 451 297.8C415.1 312.2 368.8 320 320 320C271.2 320 225 312.2 189 297.8C173 291.4 157.1 282.9 144 271.7z"/><path fill="currentColor" d="M496 271.7C482.8 282.9 467 291.4 451 297.8C415.1 312.2 368.8 320 320 320C271.2 320 225 312.2 189 297.8C173 291.4 157.1 282.9 144 271.7L144 432C144 435 147.6 450.5 183.1 468.3C215.7 484.6 264 496 320 496C376 496 424.4 484.5 456.9 468.3C492.4 450.5 496 435 496 432L496 271.7zM160 208C160 218.4 166.2 228.1 177.1 236.8C197.5 213.5 223 196.4 247.4 184.1C267.5 174 287.6 166.8 304.9 162.2C303.2 156.4 301.9 150.5 301.1 144.5C221.6 148.2 160 175.3 160 208.1zM214 255.9C242.2 265.9 279.4 272 320 272C350.9 272 379.8 268.5 404.2 262.4C368.8 248.9 340.4 226.3 322.2 199C306.2 202.8 285.8 209.5 265.3 219.8C246.7 229.1 228.7 241.1 213.9 255.9zM480 208C480 175.6 419.9 148.8 341.8 144.6C351.1 187.1 395.1 229.9 464.6 235.4C474.4 227.1 480 217.8 480 208zM320 96C443.7 96 544 146.1 544 208L544 432C544 493.9 443.7 544 320 544C196.3 544 96 493.9 96 432L96 208C96 146.1 196.3 96 320 96z"/></svg>