<svg xmlns="http://www.w3.org/2000/svg" viewBox="0 0 640 640"><!--! Font Awesome Pro 7.2.0 by @fontawesome - https://fontawesome.com License - https://fontawesome.com/license (Commercial License) Copyright 2026 Fonticons, Inc. --><path opacity=".4" fill="currentColor" d="M281.9 280L360 358.1L511.8 206.2C522.2 195.8 528 181.8 528 167.2C528 136.7 503.3 112 472.8 112C458.2 112 444.1 117.8 433.8 128.2L281.9 280z"/><path fill="currentColor" d="M472.8 112C458.2 112 444.1 117.8 433.8 128.2L281.9 280L360 358.1L511.8 206.2C522.2 195.8 528 181.8 528 167.2C528 136.7 503.3 112 472.8 112zM200.3 361.7C157.4 404.6 128.7 459.8 118.1 519.6L117.6 522.5L120.5 522C180.3 511.4 235.4 482.8 278.4 439.8L326.1 392.1L248 314L200.3 361.7zM399.8 94.2C419.2 74.8 445.4 64 472.8 64C529.8 64 576 110.2 576 167.2C576 194.6 565.1 220.8 545.8 240.2L312.3 473.7C262.4 523.6 198.3 557 128.8 569.2L92.1 575.7C84.5 577 76.6 574.5 71 569C65.4 563.5 63 555.6 64.3 547.9L70.8 511.2C83.1 441.7 116.4 377.6 166.3 327.7L348.1 145.9L335 132.9C325.6 123.5 310.4 123.5 301.1 132.9L201 233C191.6 242.4 176.4 242.4 167.1 233C157.8 223.6 157.7 208.4 167.1 199.1L267.1 98.9C295.2 70.8 340.8 70.8 368.9 98.9L382.1 112L399.8 94.2z"/></svg>