<svg xmlns="http://www.w3.org/2000/svg" viewBox="0 0 640 640"><!--! Font Awesome Pro 7.2.0 by @fontawesome - https://fontawesome.com License - https://fontawesome.com/license (Commercial License) Copyright 2026 Fonticons, Inc. --><path opacity=".4" fill="currentColor" d="M96 320C96 390.7 153.3 448 224 448C294.7 448 352 390.7 352 320C352 249.3 294.7 192 224 192C153.3 192 96 249.3 96 320z"/><path fill="currentColor" d="M352 320C352 249.3 294.7 192 224 192C153.3 192 96 249.3 96 320C96 390.7 153.3 448 224 448C294.7 448 352 390.7 352 320zM224 144C313.1 144 386.7 210.2 398.4 296L432 296L432 256C432 242.7 442.7 232 456 232C469.3 232 480 242.7 480 256L480 296L536 296L516.8 270.4C508.8 259.8 511 244.8 521.6 236.8C532.2 228.8 547.2 231 555.2 241.6L603.2 305.6C609.6 314.1 609.6 325.9 603.2 334.4L555.2 398.4C547.2 409 532.2 411.2 521.6 403.2C511 395.2 508.8 380.2 516.8 369.6L536 344L480 344L480 384C480 397.3 469.3 408 456 408C442.7 408 432 397.3 432 384L432 344L398.4 344C386.7 429.8 313.1 496 224 496C126.8 496 48 417.2 48 320C48 222.8 126.8 144 224 144z"/></svg>