<svg xmlns="http://www.w3.org/2000/svg" viewBox="0 0 640 640"><!--! Font Awesome Pro 7.2.0 by @fontawesome - https://fontawesome.com License - https://fontawesome.com/license (Commercial License) Copyright 2026 Fonticons, Inc. --><path opacity=".4" fill="currentColor" d="M80 336C80 379.9 95.3 410.8 116.8 431C138.8 451.6 170.5 464 208 464L216.4 464C222.5 464 228 460.6 230.7 455.2L253.9 408.9C266.4 383.8 292 368 320 368C348 368 373.6 383.8 386.1 408.8L409.3 455.1C412 460.5 417.5 463.9 423.6 463.9L432 463.9C469.4 463.9 501.2 451.5 523.2 430.9C544.7 410.7 560 379.8 560 335.9C560 289.1 547 252.4 516.6 226.2C484.9 198.8 426.2 175.9 320 175.9C213.8 175.9 155.1 198.9 123.4 226.3C93 252.5 80 289.2 80 336zM256 320C256 355.3 227.3 384 192 384C156.7 384 128 355.3 128 320C128 284.7 156.7 256 192 256C227.3 256 256 284.7 256 320zM512 320C512 355.3 483.3 384 448 384C412.7 384 384 355.3 384 320C384 284.7 412.7 256 448 256C483.3 256 512 284.7 512 320z"/><path fill="currentColor" d="M123.4 226.3C93.1 252.5 80 289.2 80 336C80 379.9 95.3 410.8 116.8 431C138.8 451.6 170.5 464 208 464L216.4 464C222.5 464 228 460.6 230.7 455.2L253.9 408.9L253.9 408.9C266.4 383.8 292 368 320 368C348 368 373.6 383.8 386.1 408.8L409.3 455.1C412 460.5 417.5 463.9 423.6 463.9L432 463.9C469.4 463.9 501.2 451.5 523.2 430.9C544.7 410.7 560 379.8 560 335.9C560 289.1 547 252.4 516.6 226.2C484.9 198.8 426.2 175.9 320 175.9C213.8 175.9 155.1 198.9 123.4 226.3zM32 336C32 224 96 128 320 128C544 128 608 224 608 336C608 448 528 512 432 512L423.6 512C399.4 512 377.2 498.3 366.4 476.6L343.2 430.3C338.8 421.5 329.8 416 320 416C310.2 416 301.2 421.5 296.8 430.3L273.6 476.6C262.8 498.3 240.6 512 216.4 512L208 512C112 512 32 448 32 336zM128 320C128 284.7 156.7 256 192 256C227.3 256 256 284.7 256 320C256 355.3 227.3 384 192 384C156.7 384 128 355.3 128 320zM448 256C483.3 256 512 284.7 512 320C512 355.3 483.3 384 448 384C412.7 384 384 355.3 384 320C384 284.7 412.7 256 448 256z"/></svg>