<svg xmlns="http://www.w3.org/2000/svg" viewBox="0 0 640 640"><!--! Font Awesome Pro 7.2.0 by @fontawesome - https://fontawesome.com License - https://fontawesome.com/license (Commercial License) Copyright 2026 Fonticons, Inc. --><path opacity=".4" fill="currentColor" d="M80 104L80 296C80 309.3 90.7 320 104 320L136 320C149.3 320 160 330.7 160 344L160 375.3L214.6 333.3C225.8 324.7 239.5 320 253.6 320L344 320C357.3 320 368 309.3 368 296L368 104C368 90.7 357.3 80 344 80L104 80C90.7 80 80 90.7 80 104zM161.3 145.2C170.1 119 194.8 100 224 100C260.5 100 290.1 129.6 290.1 166.1C290.1 190.3 278.2 206.6 264.9 216.5C255.8 223.3 246.1 227.1 238.9 229.3C235.2 233.4 229.9 236 224 236C213 236 204 227 204 216C204 203.8 212.8 194.3 223.4 192C227.6 191.1 235.1 188.8 241 184.4C246.2 180.5 250.1 175.3 250.1 166.1C250.1 151.7 238.4 140 224 140C212.5 140 202.7 147.4 199.2 157.8C195.7 168.3 184.4 173.9 173.9 170.4C163.4 166.9 157.8 155.6 161.3 145.1zM248 272C248 285.3 237.3 296 224 296C210.7 296 200 285.3 200 272C200 258.7 210.7 248 224 248C237.3 248 248 258.7 248 272z"/><path fill="currentColor" d="M104 80L344 80C357.3 80 368 90.7 368 104L368 296C368 309.3 357.3 320 344 320L253.6 320C239.5 320 225.8 324.7 214.6 333.3L160 375.3L160 344C160 330.7 149.3 320 136 320L104 320C90.7 320 80 309.3 80 296L80 104C80 90.7 90.7 80 104 80zM32 104L32 296C32 335.8 64.2 368 104 368L112 368L112 424C112 433.1 117.2 441.5 125.4 445.5C133.6 449.5 143.4 448.6 150.6 443L243.8 371.3C246.6 369.1 250 368 253.6 368L344 368C383.8 368 416 335.8 416 296L416 104C416 64.2 383.8 32 344 32L104 32C64.2 32 32 64.2 32 104zM272 456L272 416L264.5 416L224 447.1L224 456C224 495.8 256.2 528 296 528L386.4 528C389.9 528 393.4 529.2 396.2 531.3L489.4 603C496.6 608.6 506.4 609.5 514.6 605.5C522.8 601.5 528 593.1 528 584L528 528L536 528C575.8 528 608 495.8 608 456L608 264C608 224.2 575.8 192 536 192L464 192L464 240L536 240C549.3 240 560 250.7 560 264L560 456C560 469.3 549.3 480 536 480L504 480C490.7 480 480 490.7 480 504L480 535.3L425.4 493.3C414.2 484.7 400.5 480 386.4 480L296 480C282.7 480 272 469.3 272 456zM224 140C238.4 140 250.1 151.7 250.1 166.1C250.1 175.3 246.2 180.5 241 184.4C235.1 188.8 227.6 191.1 223.4 192C212.8 194.3 204 203.7 204 216C204 227 213 236 224 236C229.9 236 235.3 233.4 238.9 229.3C246.1 227.1 255.8 223.3 264.9 216.5C278.2 206.6 290.1 190.3 290.1 166.1C290.1 129.6 260.5 100 224 100C194.8 100 170 118.9 161.3 145.2C157.8 155.7 163.5 167 173.9 170.5C184.3 174 195.7 168.3 199.2 157.9C202.7 147.4 212.5 140 224 140zM248 272C248 258.7 237.3 248 224 248C210.7 248 200 258.7 200 272C200 285.3 210.7 296 224 296C237.3 296 248 285.3 248 272z"/></svg>