<svg xmlns="http://www.w3.org/2000/svg" viewBox="0 0 640 640"><!--! Font Awesome Pro 7.2.0 by @fontawesome - https://fontawesome.com License - https://fontawesome.com/license (Commercial License) Copyright 2026 Fonticons, Inc. --><path opacity=".4" fill="currentColor" d="M112 192L112 416C112 442.5 133.5 464 160 464L216 464C226.4 464 235.3 470.6 238.6 479.9C239.5 482.4 240 485.1 240 488L240 537.7C272.7 514.6 303.3 493 331.9 472.8C340 467.1 349.7 464 359.6 464L480 464C506.5 464 528 442.5 528 416L528 192C528 165.5 506.5 144 480 144L160 144C133.5 144 112 165.5 112 192zM208 282.7C208 250.3 234.3 224 266.7 224C285.2 224 302.6 232.7 313.6 247.5L320 256L326.4 247.5C337.5 232.7 354.9 224 373.3 224C405.7 224 432 250.3 432 282.7L432 288C432 337.1 366.2 386.1 335.5 406.3C326 412.5 314 412.5 304.6 406.3C273.9 386.1 208.1 337 208.1 288L208.1 282.7z"/><path fill="currentColor" d="M267.7 576.9L267.7 576.9L359.6 512L480 512C533 512 576 469 576 416L576 192C576 139 533 96 480 96L160 96C107 96 64 139 64 192L64 416C64 469 107 512 160 512L192 512L192 584C192 593 197 601.2 205 605.3C213 609.4 222.6 608.8 229.9 603.6L267.7 576.9zM359.6 464C349.7 464 340 467.1 331.9 472.8C303.3 493 272.6 514.6 240 537.7L240 488C240 485.2 239.5 482.4 238.6 479.9C235.3 470.6 226.4 464 216 464L160 464C133.5 464 112 442.5 112 416L112 192C112 165.5 133.5 144 160 144L480 144C506.5 144 528 165.5 528 192L528 416C528 442.5 506.5 464 480 464L359.6 464zM313.6 247.5C302.5 232.7 285.1 224 266.7 224C234.3 224 208 250.3 208 282.7L208 288C208 337.1 273.8 386.1 304.5 406.3C314 412.5 326 412.5 335.4 406.3C366.1 386.1 431.9 337 431.9 288L431.9 282.7C431.9 250.3 405.6 224 373.2 224C354.7 224 337.3 232.7 326.3 247.5L319.9 256L313.5 247.5z"/></svg>