<svg xmlns="http://www.w3.org/2000/svg" viewBox="0 0 640 640"><!--! Font Awesome Pro 7.2.0 by @fontawesome - https://fontawesome.com License - https://fontawesome.com/license (Commercial License) Copyright 2026 Fonticons, Inc. --><path opacity=".4" fill="currentColor" d="M112 320C112 205.1 205.1 112 320 112C408.3 112 483.7 167 513.9 244.6C512.5 245.4 511.2 246.2 509.9 247.1C502 239.2 494 231.5 485.7 224C461.9 202.6 425.7 202.5 401.8 223.8C365.4 256.4 334.1 293.6 311.6 330.2C290.2 364.9 272.1 406.3 272.1 446C272.1 473.9 277.6 500.7 287.6 525.4C188.1 509.8 112.1 423.8 112.1 319.9zM208 216L208 264C208 277.3 218.7 288 232 288C245.3 288 256 277.3 256 264L256 216C256 202.7 245.3 192 232 192C218.7 192 208 202.7 208 216zM296 216L296 264C296 277.3 306.7 288 320 288C333.3 288 344 277.3 344 264L344 216C344 202.7 333.3 192 320 192C306.7 192 296 202.7 296 216z"/><path fill="currentColor" d="M320 112C408.3 112 483.7 167 513.9 244.6C528.8 235.9 546.5 233.9 562.8 238.6C528.8 137.1 432.9 64 320 64C178.6 64 64 178.6 64 320C64 460.3 176.9 574.2 316.8 576C304.9 560.7 295 543.7 287.6 525.5C188.1 509.9 112.1 423.9 112.1 320C112.1 205.1 205.2 112 320.1 112zM320 192C306.7 192 296 202.7 296 216L296 264C296 277.3 306.7 288 320 288C333.3 288 344 277.3 344 264L344 216C344 202.7 333.3 192 320 192zM256 216C256 202.7 245.3 192 232 192C218.7 192 208 202.7 208 216L208 264C208 277.3 218.7 288 232 288C245.3 288 256 277.3 256 264L256 216zM505.7 304.1C505.7 304.1 481.2 274.7 466.8 263.4C461.4 259.1 455.3 256.1 448 255.9C440.7 255.7 433.4 258.2 427.7 263.4C404.3 284.5 377.7 312.3 356.8 343.6C336 374.7 320 410.8 320 448.1C320 536.7 390.4 607.9 480 607.9C568.7 607.9 640 536.7 640 448.1C640 418.1 629 387.2 613.8 360C598.6 332.6 578.5 307.7 558.8 289.4C553.2 284.2 546 281.6 538.9 281.6C531.3 281.6 523.4 284.4 518 290.5L505.7 304.3zM544 496C544 531.3 515.3 560 480 560C444.7 560 416 531.3 416 496C416 459.5 453 423 470.8 407.6C476.2 402.9 483.9 402.9 489.3 407.6C507 423 544.1 459.5 544.1 496z"/></svg>