<svg xmlns="http://www.w3.org/2000/svg" viewBox="0 0 640 640"><!--! Font Awesome Pro 7.2.0 by @fontawesome - https://fontawesome.com License - https://fontawesome.com/license (Commercial License) Copyright 2026 Fonticons, Inc. --><path opacity=".4" fill="currentColor" d="M80 192L80 448C80 456.8 87.2 464 96 464L544 464C552.8 464 560 456.8 560 448L560 192C560 183.2 552.8 176 544 176L96 176C87.2 176 80 183.2 80 192zM128 248C128 234.7 138.7 224 152 224L392 224C405.3 224 416 234.7 416 248L416 392C416 405.3 405.3 416 392 416L152 416C138.7 416 128 405.3 128 392L128 248zM464 248C464 234.7 474.7 224 488 224C501.3 224 512 234.7 512 248L512 392C512 405.3 501.3 416 488 416C474.7 416 464 405.3 464 392L464 248z"/><path fill="currentColor" d="M544 176C552.8 176 560 183.2 560 192L560 448C560 456.8 552.8 464 544 464L96 464C87.2 464 80 456.8 80 448L80 192C80 183.2 87.2 176 96 176L544 176zM96 128C60.7 128 32 156.7 32 192L32 448C32 483.3 60.7 512 96 512L96 520C96 533.3 106.7 544 120 544C133.3 544 144 533.3 144 520L144 512L496 512L496 520C496 533.3 506.7 544 520 544C533.3 544 544 533.3 544 520L544 512C579.3 512 608 483.3 608 448L608 192C608 156.7 579.3 128 544 128L96 128zM464 248L464 392C464 405.3 474.7 416 488 416C501.3 416 512 405.3 512 392L512 248C512 234.7 501.3 224 488 224C474.7 224 464 234.7 464 248zM152 224C138.7 224 128 234.7 128 248L128 392C128 405.3 138.7 416 152 416L392 416C405.3 416 416 405.3 416 392L416 248C416 234.7 405.3 224 392 224L152 224z"/></svg>