<svg xmlns="http://www.w3.org/2000/svg" viewBox="0 0 640 640"><!--! Font Awesome Pro 7.2.0 by @fontawesome - https://fontawesome.com License - https://fontawesome.com/license (Commercial License) Copyright 2026 Fonticons, Inc. --><path opacity=".4" fill="currentColor" d="M120 336C120 314.4 132.2 295.6 150.3 286.2C156.2 283.2 160.5 277.8 162.3 271.5C164.1 265.2 163.2 258.3 159.8 252.6C154.8 244.2 151.9 234.5 151.9 224C151.9 193.1 177 168 207.9 168C221.2 168 231.9 157.3 231.9 144C231.9 126.3 246.2 112 263.9 112C281.6 112 295.9 126.3 295.9 144L295.9 429.9C290.7 445.7 287.9 462.5 287.9 480C287.9 490.1 288.7 499.6 290.3 508.5C283.3 520.2 270.5 528 255.9 528C239.1 528 224.7 517.7 218.8 502.9C215 493.3 205.5 487.3 195.2 487.9C194.1 488 193 488 192 488C161.1 488 136 462.9 136 432C136 422.5 138.4 413.5 142.5 405.7C147.6 396.1 145.6 384.3 137.7 376.9C126.7 366.7 119.9 352.1 119.9 336zM344 144C344 126.3 358.3 112 376 112C393.7 112 408 126.3 408 144C408 157.3 418.7 168 432 168C462.9 168 488 193.1 488 224C488 234.5 485.1 244.3 480.1 252.6C476.7 258.3 475.8 265.1 477.6 271.5C478.2 273.6 479.1 275.6 480.2 277.4C469.9 288.9 464 304 464 320L448 320C408.3 320 372 334.5 344 358.4L344 144z"/><path fill="currentColor" d="M264 64C227.4 64 196.5 88.6 187 122.1C139.6 131.8 104 173.7 104 224C104 235.3 105.8 246.2 109.1 256.3C86.4 275.4 72 304 72 336C72 359.7 80 381.6 93.3 399.1C89.8 409.5 88 420.5 88 432C88 486 129.2 530.5 181.9 535.5C197.5 559.8 224.8 576 256 576C275.4 576 293.2 569.8 307.8 559.2C300.2 545 293.7 528.2 290.4 508.5C283.4 520.2 270.6 528 256 528C239.2 528 224.8 517.7 218.9 502.9C215.1 493.3 205.6 487.3 195.3 487.9C194.2 488 193.1 488 192.1 488C161.2 488 136.1 462.9 136.1 432C136.1 422.5 138.5 413.5 142.6 405.7C147.7 396.1 145.7 384.3 137.8 376.9C126.8 366.7 120 352.1 120 336C120 314.4 132.2 295.6 150.3 286.2C156.2 283.2 160.5 277.8 162.3 271.5C164.1 265.2 163.2 258.3 159.8 252.6C154.8 244.2 151.9 234.5 151.9 224C151.9 193.1 177 168 207.9 168C221.2 168 231.9 157.3 231.9 144C231.9 126.3 246.2 112 263.9 112C281.6 112 295.9 126.3 295.9 144L295.9 429.9C305.1 401.8 321.9 377.2 343.9 358.4L344 144C344 126.3 358.3 112 376 112C393.7 112 408 126.3 408 144C408 157.3 418.7 168 432 168C462.9 168 488 193.1 488 224C488 234.5 485.1 244.3 480.1 252.6C476.7 258.3 475.8 265.1 477.6 271.5C478.2 273.6 479.1 275.6 480.2 277.4C486.5 270.4 494.4 264.6 503.5 260.9C512.4 257.2 521.7 255.7 530.9 256.1C534.2 246 535.9 235.2 535.9 224C535.9 173.7 500.3 131.8 452.9 122.1C443.4 88.6 412.5 64 375.9 64C354.1 64 334.3 72.7 319.9 86.9C305.5 72.8 285.7 64 263.9 64zM635.3 404.7L539.3 308.7C529.4 298.8 512 306 512 320L512 368L448 368C386.1 368 336 418.1 336 480C336 534.3 370.6 565.6 381 573.8C388.6 579.8 400 573 400 563.7L400 528C400 492.7 428.7 464 464 464L512 464L512 512C512 526 529.4 533.2 539.3 523.3L635.3 427.3C641.5 421.1 641.5 410.9 635.3 404.7z"/></svg>