<svg xmlns="http://www.w3.org/2000/svg" viewBox="0 0 640 640"><!--! Font Awesome Pro 7.2.0 by @fontawesome - https://fontawesome.com License - https://fontawesome.com/license (Commercial License) Copyright 2026 Fonticons, Inc. --><path opacity=".4" fill="currentColor" d="M192 128L192 512C192 520.8 199.2 528 208 528L432 528C440.8 528 448 520.8 448 512L448 128C448 119.2 440.8 112 432 112L384 112L384 120C384 133.3 373.3 144 360 144L280 144C266.7 144 256 133.3 256 120L256 112L208 112C199.2 112 192 119.2 192 128zM256 456C256 442.7 266.7 432 280 432L360 432C373.3 432 384 442.7 384 456C384 469.3 373.3 480 360 480L280 480C266.7 480 256 469.3 256 456z"/><path fill="currentColor" d="M256 112L256 120C256 133.3 266.7 144 280 144L360 144C373.3 144 384 133.3 384 120L384 112L432 112C440.8 112 448 119.2 448 128L448 512C448 520.8 440.8 528 432 528L208 528C199.2 528 192 520.8 192 512L192 128C192 119.2 199.2 112 208 112L256 112zM208 64C172.7 64 144 92.7 144 128L144 512C144 547.3 172.7 576 208 576L432 576C467.3 576 496 547.3 496 512L496 128C496 92.7 467.3 64 432 64L208 64zM256 456C256 469.3 266.7 480 280 480L360 480C373.3 480 384 469.3 384 456C384 442.7 373.3 432 360 432L280 432C266.7 432 256 442.7 256 456z"/></svg>