<svg xmlns="http://www.w3.org/2000/svg" viewBox="0 0 640 640"><!--! Font Awesome Pro 7.2.0 by @fontawesome - https://fontawesome.com License - https://fontawesome.com/license (Commercial License) Copyright 2026 Fonticons, Inc. --><path opacity=".4" fill="currentColor" d="M112 423.5C140.9 419.9 163.9 396.9 167.5 368L472.5 368C476.1 397 499.1 419.9 528 423.5L528 472.5C499 476.1 476.1 499.1 472.5 528L167.5 528C163.9 499 140.9 476.1 112 472.5L112 423.5zM256 448C256 483.3 284.7 512 320 512C355.3 512 384 483.3 384 448C384 412.7 355.3 384 320 384C284.7 384 256 412.7 256 448z"/><path fill="currentColor" d="M240 48C231.2 48 224 55.2 224 64C224 108.2 259.8 144 304 144C312.8 144 320 136.8 320 128C320 83.8 284.2 48 240 48zM120 64C106.7 64 96 74.7 96 88C96 101.3 106.7 112 120 112L168 112C181.3 112 192 101.3 192 88C192 74.7 181.3 64 168 64L120 64zM88 136C74.7 136 64 146.7 64 160C64 173.3 74.7 184 88 184L200 184C213.3 184 224 173.3 224 160C224 146.7 213.3 136 200 136L88 136zM96 232C96 245.3 106.7 256 120 256L168 256C181.3 256 192 245.3 192 232C192 218.7 181.3 208 168 208L120 208C106.7 208 96 218.7 96 232zM336 64C336 108.2 371.8 144 416 144C424.8 144 432 136.8 432 128C432 83.8 396.2 48 352 48C343.2 48 336 55.2 336 64zM464 48C455.2 48 448 55.2 448 64C448 108.2 483.8 144 528 144C536.8 144 544 136.8 544 128C544 83.8 508.2 48 464 48zM544 192C544 183.2 536.8 176 528 176C483.8 176 448 211.8 448 256C448 264.8 455.2 272 464 272C508.2 272 544 236.2 544 192zM416 176C371.8 176 336 211.8 336 256C336 264.8 343.2 272 352 272C396.2 272 432 236.2 432 192C432 183.2 424.8 176 416 176zM320 192C320 183.2 312.8 176 304 176C259.8 176 224 211.8 224 256C224 264.8 231.2 272 240 272C284.2 272 320 236.2 320 192zM112 423.5C140.9 419.9 163.9 396.9 167.5 368L472.5 368C476.1 397 499.1 419.9 528 423.5L528 472.5C499 476.1 476.1 499.1 472.5 528L167.5 528C163.9 499 140.9 476.1 112 472.5L112 423.5zM112 320C85.5 320 64 341.5 64 368L64 528C64 554.5 85.5 576 112 576L528 576C554.5 576 576 554.5 576 528L576 368C576 341.5 554.5 320 528 320L112 320zM320 512C355.3 512 384 483.3 384 448C384 412.7 355.3 384 320 384C284.7 384 256 412.7 256 448C256 483.3 284.7 512 320 512z"/></svg>