<svg xmlns="http://www.w3.org/2000/svg" viewBox="0 0 640 640"><!--! Font Awesome Pro 7.2.0 by @fontawesome - https://fontawesome.com License - https://fontawesome.com/license (Commercial License) Copyright 2026 Fonticons, Inc. --><path opacity=".4" fill="currentColor" d=""/><path fill="currentColor" d="M512 176C520.8 176 528 183.2 528 192L528 448C528 456.8 520.8 464 512 464L128 464C119.2 464 112 456.8 112 448L112 192C112 183.2 119.2 176 128 176L512 176zM128 128C92.7 128 64 156.7 64 192L64 448C64 483.3 92.7 512 128 512L512 512C547.3 512 576 483.3 576 448L576 192C576 156.7 547.3 128 512 128L128 128zM160 360C160 373.3 170.7 384 184 384L328 384C341.3 384 352 373.3 352 360C352 346.7 341.3 336 328 336L184 336C170.7 336 160 346.7 160 360zM184 256C170.7 256 160 266.7 160 280C160 293.3 170.7 304 184 304L456 304C469.3 304 480 293.3 480 280C480 266.7 469.3 256 456 256L184 256z"/></svg>