<svg xmlns="http://www.w3.org/2000/svg" viewBox="0 0 640 640"><!--! Font Awesome Pro 7.2.0 by @fontawesome - https://fontawesome.com License - https://fontawesome.com/license (Commercial License) Copyright 2026 Fonticons, Inc. --><path opacity=".4" fill="currentColor" d="M112 423.5L112 472.5C140.9 476.1 163.9 499.1 167.5 528L472.5 528C476.1 499 499.1 476.1 528 472.5L528 423.5C499 419.9 476.1 396.9 472.5 368L167.5 368C163.9 397 140.9 419.9 112 423.5zM384 448C384 483.3 355.3 512 320 512C284.7 512 256 483.3 256 448C256 412.7 284.7 384 320 384C355.3 384 384 412.7 384 448z"/><path fill="currentColor" d="M544 72C544 58.7 533.3 48 520 48L418.2 48C404.9 48 394.2 58.7 394.2 72C394.2 85.3 404.9 96 418.2 96L462.1 96L350.8 207.3L255.7 125.8C246.7 118.1 233.5 118.1 224.5 125.8L112.5 221.8C102.4 230.4 101.3 245.6 109.9 255.6C118.5 265.6 133.7 266.8 143.7 258.2L240.1 175.6L336.5 258.2C346 266.4 360.2 265.8 369.1 256.9L496.1 129.9L496.1 173.8C496.1 187.1 506.8 197.8 520.1 197.8C533.4 197.8 544.1 187.1 544.1 173.8L544 72zM167.5 368L472.5 368C476.1 397 499.1 419.9 528 423.5L528 472.5C499 476.1 476.1 499.1 472.5 528L167.5 528C163.9 499 140.9 476.1 112 472.5L112 423.5C140.9 419.9 163.9 396.9 167.5 368zM112 320C85.5 320 64 341.5 64 368L64 528C64 554.5 85.5 576 112 576L528 576C554.5 576 576 554.5 576 528L576 368C576 341.5 554.5 320 528 320L112 320zM320 512C355.3 512 384 483.3 384 448C384 412.7 355.3 384 320 384C284.7 384 256 412.7 256 448C256 483.3 284.7 512 320 512z"/></svg>