<svg xmlns="http://www.w3.org/2000/svg" viewBox="0 0 640 640"><!--! Font Awesome Pro 7.2.0 by @fontawesome - https://fontawesome.com License - https://fontawesome.com/license (Commercial License) Copyright 2026 Fonticons, Inc. --><path opacity=".4" fill="currentColor" d="M112 192L112 304L208 304C216.4 304 224.2 308.4 228.6 315.7L254.1 358.2L314.5 237.3C318.4 229.5 326.3 224.4 335 224.1C343.7 223.8 352 228.2 356.5 235.7L397.5 304L455.9 304C469.2 304 479.9 314.7 479.9 328C479.9 341.3 469.2 352 455.9 352L383.9 352C375.5 352 367.7 347.6 363.3 340.3L337.8 297.8L277.4 418.7C273.5 426.5 265.6 431.6 256.9 431.9C248.2 432.2 239.9 427.8 235.4 420.3L194.4 352L112 352L112 448C112 456.8 119.2 464 128 464L512 464C520.8 464 528 456.8 528 448L528 192C528 183.2 520.8 176 512 176L128 176C119.2 176 112 183.2 112 192z"/><path fill="currentColor" d="M128 176C119.2 176 112 183.2 112 192L112 304L208 304C216.4 304 224.2 308.4 228.6 315.7L254.1 358.2L314.5 237.3C318.4 229.5 326.3 224.4 335 224.1C343.7 223.8 352 228.2 356.5 235.7L397.5 304L455.9 304C469.2 304 479.9 314.7 479.9 328C479.9 341.3 469.2 352 455.9 352L383.9 352C375.5 352 367.7 347.6 363.3 340.3L337.8 297.8L277.4 418.7C273.5 426.5 265.6 431.6 256.9 431.9C248.2 432.2 239.9 427.8 235.4 420.3L194.4 352L112 352L112 448C112 456.8 119.2 464 128 464L512 464C520.8 464 528 456.8 528 448L528 192C528 183.2 520.8 176 512 176L128 176zM64 192C64 156.7 92.7 128 128 128L512 128C547.3 128 576 156.7 576 192L576 448C576 483.3 547.3 512 512 512L128 512C92.7 512 64 483.3 64 448L64 192z"/></svg>