<svg xmlns="http://www.w3.org/2000/svg" viewBox="0 0 640 640"><!--! Font Awesome Pro 7.2.0 by @fontawesome - https://fontawesome.com License - https://fontawesome.com/license (Commercial License) Copyright 2026 Fonticons, Inc. --><path opacity=".4" fill="currentColor" d="M208.5 305.1C250.9 310.6 286.8 336.8 305.7 373.2C351.1 387.5 384 429.9 384 480C384 495.6 380.8 510.5 375 524C388.5 526.7 402 528 416 528C449.3 528 480.7 520.2 508.6 506.3C405.2 482.9 328 390.5 328 280C328 214.2 355.4 154.9 399.3 112.7C297.1 120.8 215.8 202.7 208.5 305.1z"/><path fill="currentColor" d="M399.3 112.7C297.1 120.8 215.8 202.7 208.5 305.1C203.1 304.4 197.6 304 192 304C181 304 170.4 305.4 160.3 308C166.6 172.2 278.7 64 416 64C435.4 64 454.4 66.2 472.7 70.3C482.6 72.5 490 80.8 491.2 90.8C492.4 100.8 487.2 110.6 478.1 115.2C417.5 145.4 376 207.9 376 280C376 381.6 458.4 464 560 464C565 464 569.9 463.8 574.8 463.4C584.9 462.6 594.4 468.2 598.6 477.5C602.8 486.8 600.6 497.6 593.3 504.6C547.3 548.8 484.8 576 416 576C391 576 366.9 572.4 344.1 565.8C357.4 554.6 368.1 540.3 375.1 524C388.3 526.6 402 528 416.1 528C449.4 528 480.8 520.2 508.7 506.3C405.3 482.9 328.1 390.5 328.1 280C328.1 214.2 355.5 154.9 399.4 112.7zM272 544L104 544C64.2 544 32 511.8 32 472C32 432.2 64.2 400 104 400C108.8 400 113.5 400.5 118.1 401.4C130.1 372.4 158.7 352 192 352C230.7 352 263 379.5 270.4 416C270.9 416 271.5 416 272 416C307.3 416 336 444.7 336 480C336 515.3 307.3 544 272 544z"/></svg>