<svg xmlns="http://www.w3.org/2000/svg" viewBox="0 0 640 640"><!--! Font Awesome Pro 7.2.0 by @fontawesome - https://fontawesome.com License - https://fontawesome.com/license (Commercial License) Copyright 2026 Fonticons, Inc. --><path opacity=".4" fill="currentColor" d="M368.5 117.6L368.5 522.4C460.2 500.7 528.5 418.4 528.5 320C528.5 221.6 460.2 139.3 368.5 117.6z"/><path fill="currentColor" d="M347 65.3C475.9 78.6 576.5 187.6 576.5 320C576.5 452.4 475.9 561.4 347 574.6C340.2 575.3 333.5 573.1 328.4 568.6C323.3 564.1 320.5 557.6 320.5 550.8L320.5 89.2C320.5 82.4 323.4 75.9 328.4 71.4C333.4 66.9 340.2 64.7 347 65.3zM161.1 485.1C170.5 477.2 184.3 477.7 194.1 485.2C212.5 499.3 233.4 510.4 255.9 517.8C268.5 521.9 275.4 535.5 271.3 548C267.2 560.6 253.6 567.5 241.1 563.4C211.6 553.8 184.4 538.9 160.7 519.9C149.5 511 150.3 494.2 161.2 485.1zM368.4 522.4C460.1 500.7 528.4 418.4 528.4 320C528.4 221.6 460.2 139.3 368.5 117.6L368.5 522.4zM92.3 344C104.6 344 114.8 353.3 117.5 365.3C121.5 383.1 127.7 400 135.9 415.8C141.6 426.7 139.7 440.4 130.3 448.3C119.4 457.5 102.8 455.3 95.9 442.8C83.7 420.5 74.7 396.1 69.5 370.3C66.7 356.3 78 344 92.3 344zM95.9 197.2C102.8 184.7 119.3 182.5 130.3 191.7C139.7 199.6 141.6 213.3 135.9 224.3C127.7 240.1 121.5 257 117.5 274.8C114.8 286.8 104.6 296.1 92.3 296.1C78 296.1 66.7 283.8 69.5 269.8C74.6 244 83.6 219.6 95.9 197.3zM241.1 76.6C253.7 72.5 267.2 79.4 271.3 92C275.4 104.6 268.5 118.1 255.9 122.2C233.4 129.6 212.5 140.7 194.1 154.8C184.3 162.3 170.6 162.8 161.1 154.9C150.2 145.7 149.4 129 160.6 120.1C184.3 101.1 211.5 86.2 241 76.6z"/></svg>