<svg xmlns="http://www.w3.org/2000/svg" viewBox="0 0 640 640"><!--! Font Awesome Pro 7.2.0 by @fontawesome - https://fontawesome.com License - https://fontawesome.com/license (Commercial License) Copyright 2026 Fonticons, Inc. --><path opacity=".4" fill="currentColor" d="M80 368L80 512C80 520.8 87.2 528 96 528L272 528L272 480C272 453.5 293.5 432 320 432C346.5 432 368 453.5 368 480L368 528L544 528C552.8 528 560 520.8 560 512L560 368L80 368zM176 257.2C176 291.9 204.1 320 238.8 320L401.2 320C435.9 320 464 291.9 464 257.2C464 239.6 456.6 222.9 443.7 211L320 97.2L196.3 210.9C183.4 222.8 176 239.6 176 257.1z"/><path fill="currentColor" d="M320 97.2L196.3 210.9C183.4 222.8 176 239.6 176 257.1C176 291.8 204.1 319.9 238.8 319.9L401.2 319.9C435.9 319.9 464 291.8 464 257.1C464 239.5 456.6 222.8 443.7 210.9L320 97.2zM147.5 320C135.2 302.1 128 280.5 128 257.2C128 226.2 141 196.6 163.8 175.6L309.2 42C315.3 36.4 324.7 36.4 330.9 42L476.2 175.6C499 196.6 512 226.2 512 257.2C512 280.5 504.8 302.2 492.5 320L560 320L560 280C560 266.7 570.7 256 584 256C597.3 256 608 266.7 608 280L608 512C608 547.3 579.3 576 544 576L96 576C60.7 576 32 547.3 32 512L32 280C32 266.7 42.7 256 56 256C69.3 256 80 266.7 80 280L80 320L147.5 320zM238.8 368L80 368L80 512C80 520.8 87.2 528 96 528L272 528L272 480C272 453.5 293.5 432 320 432C346.5 432 368 453.5 368 480L368 528L544 528C552.8 528 560 520.8 560 512L560 368L238.8 368z"/></svg>