<svg xmlns="http://www.w3.org/2000/svg" viewBox="0 0 640 640"><!--! Font Awesome Pro 7.2.0 by @fontawesome - https://fontawesome.com License - https://fontawesome.com/license (Commercial License) Copyright 2026 Fonticons, Inc. --><path opacity=".4" fill="currentColor" d="M117.9 496L523.1 496L428.1 320L332.6 320L291.8 374.4C287.3 380.4 280.3 383.9 272.8 384C266.3 384.1 260 381.5 255.5 376.8L253.7 374.7L212.3 321.4L118.1 495.9z"/><path fill="currentColor" d="M320.5 64C335.2 64 348.7 72.1 355.7 85L571.7 485C578.4 497.4 578.1 512.4 570.9 524.5L567.9 528.8C561.5 537 552.1 542.3 541.7 543.6L536.5 543.9L104.5 543.9L99.3 543.6C89 542.3 79.6 537 73.1 528.8L70.1 524.5C62.9 512.4 62.6 497.4 69.3 485L285.3 85L288.2 80.4C295.7 70.2 307.6 64 320.5 64zM332.5 320L291.7 374.4C287.2 380.4 280.2 383.9 272.7 384C266.2 384.1 259.9 381.5 255.4 376.8L253.6 374.7L212.2 321.4L118 495.9L523.2 495.9L428.2 319.9L332.7 319.9zM237 275.3L272.1 320.4L301.3 281.6L303.1 279.4C307.6 274.7 313.9 272 320.5 272L402.1 272L320.5 120.8L237.1 275.3z"/></svg>