<svg xmlns="http://www.w3.org/2000/svg" viewBox="0 0 640 640"><!--! Font Awesome Pro 7.2.0 by @fontawesome - https://fontawesome.com License - https://fontawesome.com/license (Commercial License) Copyright 2026 Fonticons, Inc. --><path opacity=".4" fill="currentColor" d="M85.4 496L490.6 496L395.6 320L300.1 320L259.3 374.4C254.8 380.4 247.8 383.9 240.3 384C233.8 384.1 227.5 381.4 223 376.8L221.2 374.7L179.8 321.4L85.6 495.9z"/><path fill="currentColor" d="M288 64C302.7 64 316.2 72.1 323.2 85L539.2 485C545.9 497.4 545.6 512.4 538.4 524.5L535.4 528.8C529 537 519.6 542.3 509.2 543.6L504 543.9L72 543.9L66.8 543.6C56.5 542.2 47.1 536.9 40.6 528.8L37.6 524.5C30.4 512.4 30.1 497.4 36.8 485L252.8 85L255.7 80.4C263.2 70.2 275.2 64 288 64zM259.2 374.4C254.7 380.4 247.7 383.9 240.2 384C233.7 384.1 227.4 381.4 222.9 376.8L221.1 374.7L179.7 321.4L85.5 495.9L490.7 495.9L395.7 319.9L300.2 319.9L259.4 374.3zM204.5 275.3L239.6 320.4L268.8 281.6L270.6 279.4C275.1 274.7 281.4 272 288 272L369.6 272L288 120.8L204.6 275.3zM528 224C483.8 224 448 188.2 448 144C448 99.8 483.8 64 528 64C572.2 64 608 99.8 608 144C608 188.2 572.2 224 528 224z"/></svg>