<svg xmlns="http://www.w3.org/2000/svg" viewBox="0 0 640 640"><!--! Font Awesome Pro 7.2.0 by @fontawesome - https://fontawesome.com License - https://fontawesome.com/license (Commercial License) Copyright 2026 Fonticons, Inc. --><path opacity=".4" fill="currentColor" d="M176 128L176 512C176 520.8 183.2 528 192 528L448 528C456.8 528 464 520.8 464 512L464 128C464 119.2 456.8 112 448 112L192 112C183.2 112 176 119.2 176 128zM224 192C224 174.3 238.3 160 256 160L384 160C401.7 160 416 174.3 416 192L416 224C416 241.7 401.7 256 384 256L256 256C238.3 256 224 241.7 224 224L224 192zM408 392C408 440.6 368.6 480 320 480C271.4 480 232 440.6 232 392C232 343.4 271.4 304 320 304C368.6 304 408 343.4 408 392z"/><path fill="currentColor" d="M448 112C456.8 112 464 119.2 464 128L464 512C464 520.8 456.8 528 448 528L192 528C183.2 528 176 520.8 176 512L176 128C176 119.2 183.2 112 192 112L448 112zM192 64C156.7 64 128 92.7 128 128L128 512C128 547.3 156.7 576 192 576L448 576C483.3 576 512 547.3 512 512L512 128C512 92.7 483.3 64 448 64L192 64zM320 352C342.1 352 360 369.9 360 392C360 414.1 342.1 432 320 432C297.9 432 280 414.1 280 392C280 369.9 297.9 352 320 352zM320 480C368.6 480 408 440.6 408 392C408 343.4 368.6 304 320 304C271.4 304 232 343.4 232 392C232 440.6 271.4 480 320 480zM256 160C238.3 160 224 174.3 224 192L224 224C224 241.7 238.3 256 256 256L384 256C401.7 256 416 241.7 416 224L416 192C416 174.3 401.7 160 384 160L256 160z"/></svg>