<svg xmlns="http://www.w3.org/2000/svg" viewBox="0 0 640 640"><!--! Font Awesome Pro 7.2.0 by @fontawesome - https://fontawesome.com License - https://fontawesome.com/license (Commercial License) Copyright 2026 Fonticons, Inc. --><path opacity=".4" fill="currentColor" d="M144 240L144 448C144 474.5 165.5 496 192 496L384 496C410.5 496 432 474.5 432 448L432 240L224 240L224 328C224 341.3 213.3 352 200 352C186.7 352 176 341.3 176 328L176 240L144 240z"/><path fill="currentColor" d="M320 64L416 64C433.7 64 448 78.3 448 96L448 144L128 144L128 128C128 110.3 142.3 96 160 96L288 96C288 78.3 302.3 64 320 64zM144 448C144 474.5 165.5 496 192 496L384 496C410.5 496 432 474.5 432 448L432 240L224 240L224 328C224 341.3 213.3 352 200 352C186.7 352 176 341.3 176 328L176 240L144 240L144 448zM480 240L480 384L488 384C527.8 384 560 351.8 560 312C560 272.2 527.8 240 488 240L480 240zM480 432L480 448C480 501 437 544 384 544L192 544C139 544 96 501 96 448L96 224C96 206.3 110.3 192 128 192L488 192C554.3 192 608 245.7 608 312C608 378.3 554.3 432 488 432L480 432z"/></svg>