<svg xmlns="http://www.w3.org/2000/svg" viewBox="0 0 640 640"><!--! Font Awesome Pro 7.2.0 by @fontawesome - https://fontawesome.com License - https://fontawesome.com/license (Commercial License) Copyright 2026 Fonticons, Inc. --><path opacity=".4" fill="currentColor" d="M177.8 144L480 144C488.8 144 496 151.2 496 160L496 462.2L447.6 413.8C447.9 411.9 448 410 448 408.1L448 232.1C448 210 430.1 192.1 408 192.1L336 192.1C313.9 192.1 296 210 296 232.1L296 262.2L177.8 144zM344 240L400 240L400 366.2L359.6 325.8C359.9 323.9 360 322 360 320.1C360 307 353.7 295.4 344 288.1L344 240.1z"/><path fill="currentColor" d="M73 39.1C63.6 29.7 48.4 29.7 39.1 39.1C29.8 48.5 29.7 63.7 39 73.1L567 601.1C576.4 610.5 591.6 610.5 600.9 601.1C610.2 591.7 610.3 576.5 600.9 567.2L538.8 505.1C542.1 497.4 543.9 488.9 543.9 480L543.9 160C543.9 124.7 515.2 96 479.9 96L160 96C151.1 96 142.6 97.8 134.9 101.1L72.9 39.1zM177.8 144L480 144C488.8 144 496 151.2 496 160L496 462.2L447.6 413.8C447.9 411.9 448 410 448 408.1L448 232.1C448 210 430.1 192.1 408 192.1L336 192.1C313.9 192.1 296 210 296 232.1L296 262.2L177.8 144zM400 366.2L359.6 325.8C359.9 323.9 360 322 360 320.1C360 307 353.7 295.4 344 288.1L344 240.1L400 240.1L400 366.3zM144 246L96 198L96 480C96 515.3 124.7 544 160 544L442 544L394 496L160 496C151.2 496 144 488.8 144 480L144 246zM346 448L298 400L240 400L240 342L192 294L192 408C192 430.1 209.9 448 232 448L346 448z"/></svg>