<svg xmlns="http://www.w3.org/2000/svg" viewBox="0 0 640 640"><!--! Font Awesome Pro 7.2.0 by @fontawesome - https://fontawesome.com License - https://fontawesome.com/license (Commercial License) Copyright 2026 Fonticons, Inc. --><path opacity=".4" fill="currentColor" d="M272 464L272 512C272 520.8 279.2 528 288 528L512 528C520.8 528 528 520.8 528 512L528 288C528 279.2 520.8 272 512 272L464 272L464 352C464 413.9 413.9 464 352 464L272 464z"/><path fill="currentColor" d="M128 112L144 112L144 64L128 64C92.7 64 64 92.7 64 128L64 144L112 144L112 128C112 119.2 119.2 112 128 112zM288 112L288 64L192 64L192 112L288 112zM112 192L64 192L64 288L112 288L112 192zM112 336L64 336L64 352C64 387.3 92.7 416 128 416L144 416L144 368L128 368C119.2 368 112 360.8 112 352L112 336zM192 416L288 416L288 368L192 368L192 416zM224 464L224 512C224 547.3 252.7 576 288 576L512 576C547.3 576 576 547.3 576 512L576 288C576 252.7 547.3 224 512 224L464 224L464 272L512 272C520.8 272 528 279.2 528 288L528 512C528 520.8 520.8 528 512 528L288 528C279.2 528 272 520.8 272 512L272 464L224 464zM416 272L416 192L368 192L368 288L416 288L416 272zM336 368L336 416L352 416C387.3 416 416 387.3 416 352L416 336L368 336L368 352C368 360.8 360.8 368 352 368L336 368zM416 144L416 128C416 92.7 387.3 64 352 64L336 64L336 112L352 112C360.8 112 368 119.2 368 128L368 144L416 144z"/></svg>