<svg xmlns="http://www.w3.org/2000/svg" viewBox="0 0 640 640"><!--! Font Awesome Pro 7.2.0 by @fontawesome - https://fontawesome.com License - https://fontawesome.com/license (Commercial License) Copyright 2026 Fonticons, Inc. --><path opacity=".4" fill="currentColor" d="M240 176L240 240L528 240L528 176L240 176zM240 400L240 464L400 464L400 400L240 400z"/><path fill="currentColor" d="M64 88C64 74.7 74.7 64 88 64C101.3 64 112 74.7 112 88L112 552C112 565.3 101.3 576 88 576C74.7 576 64 565.3 64 552L64 88zM240 240L528 240L528 176L240 176L240 240zM192 176C192 149.5 213.5 128 240 128L528 128C554.5 128 576 149.5 576 176L576 240C576 266.5 554.5 288 528 288L240 288C213.5 288 192 266.5 192 240L192 176zM240 464L400 464L400 400L240 400L240 464zM192 400C192 373.5 213.5 352 240 352L400 352C426.5 352 448 373.5 448 400L448 464C448 490.5 426.5 512 400 512L240 512C213.5 512 192 490.5 192 464L192 400z"/></svg>