<svg xmlns="http://www.w3.org/2000/svg" viewBox="0 0 640 640"><!--! Font Awesome Pro 7.2.0 by @fontawesome - https://fontawesome.com License - https://fontawesome.com/license (Commercial License) Copyright 2026 Fonticons, Inc. --><path opacity=".4" fill="currentColor" d="M112.5 245.6L246 112.1L394.8 112.1L528.3 245.6L528.3 394.4L394.8 527.9L246 527.9L112.5 394.4L112.5 245.6zM231.5 231.1C222.1 240.5 222.1 255.7 231.5 265L286.5 320L231.5 375C222.1 384.4 222.1 399.6 231.5 408.9C240.9 418.2 256.1 418.3 265.4 408.9L320.4 353.9L375.4 408.9C384.8 418.3 400 418.3 409.3 408.9C418.6 399.5 418.7 384.3 409.3 375L354.3 320L409.3 265C418.7 255.6 418.7 240.4 409.3 231.1C399.9 221.8 384.7 221.7 375.4 231.1L320.4 286.1L265.4 231.1C256 221.7 240.8 221.7 231.5 231.1z"/><path fill="currentColor" d="M394.9 64.1C407.6 64.1 419.8 69.2 428.8 78.2L562.3 211.6C571.3 220.6 576.4 232.8 576.4 245.5L576.4 394.3C576.4 407 571.3 419.2 562.3 428.2L428.8 561.9C419.8 570.9 407.6 576 394.9 576L246.1 576C233.4 576 221.2 570.9 212.2 561.9L78.6 428.4C69.6 419.4 64.5 407.2 64.5 394.5L64.5 245.7C64.5 233 69.6 220.8 78.6 211.8L212.1 78.1C221.1 69.1 233.3 64 246 64L394.8 64zM112.5 245.6L112.5 394.4L246 527.9L394.8 527.9L528.3 394.4L528.3 245.6L394.8 112.1L246 112.1L112.5 245.6zM231.5 231.1C240.9 221.7 256.1 221.7 265.4 231.1L320.4 286.1L375.4 231.1C384.8 221.7 400 221.7 409.3 231.1C418.6 240.5 418.7 255.7 409.3 265L354.3 320L409.3 375C418.7 384.4 418.7 399.6 409.3 408.9C399.9 418.2 384.7 418.3 375.4 408.9L320.4 353.9L265.4 408.9C256 418.3 240.8 418.3 231.5 408.9C222.2 399.5 222.1 384.3 231.5 375L286.5 320L231.5 265C222.1 255.6 222.1 240.4 231.5 231.1z"/></svg>