<svg xmlns="http://www.w3.org/2000/svg" viewBox="0 0 640 640"><!--! Font Awesome Pro 7.2.0 by @fontawesome - https://fontawesome.com License - https://fontawesome.com/license (Commercial License) Copyright 2026 Fonticons, Inc. --><path opacity=".4" fill="currentColor" d="M208 224C208 162.1 258.1 112 320 112C350.9 112 378.9 124.5 399.2 144.8C409.3 154.9 417.5 167 423.2 180.4C426 187.1 428.3 194.2 429.7 201.5C430.1 203.3 430.4 205.1 430.7 206.9C431.6 212.5 432 218.2 432 224C432 232.6 431.5 240.5 430.1 248.1C420.7 299.8 411.3 351.5 401.9 403.3C401.6 404.9 401.4 406.4 401.2 407.9C401.2 408.2 401.1 408.5 401.1 408.8C401 409.7 400.9 410.5 400.8 411.4C400.3 415.8 400.1 420.2 400.1 424.7L400.1 425.6C400.1 426.1 400.1 426.7 400.1 427.2C400.1 437.3 401.4 447.1 403.8 456.5C399.7 454.3 395.7 452.2 391.6 450C369.6 438.3 345 432.1 320.1 432.1C295.2 432.1 270.6 438.2 248.6 450C244.5 452.2 240.5 454.3 236.4 456.5C237.6 451.8 238.5 447 239.1 442.2L239.2 441.7C239.3 440.8 239.4 439.9 239.5 438.9C239.5 438.7 239.5 438.4 239.6 438.2C239.7 437.3 239.8 436.3 239.8 435.4C239.8 435.1 239.8 434.7 239.9 434.4C240 433.5 240 432.5 240 431.6C240 431.4 240 431.1 240 430.9C240 429.9 240 428.9 240.1 427.9C240.1 427.7 240.1 427.5 240.1 427.3C240.1 426.5 240.1 425.6 240.1 424.8C240.1 419.4 239.7 413.9 239 408.5C238.8 407.1 238.6 405.8 238.4 404.4C238.3 404.1 238.3 403.7 238.2 403.4C228.8 351.7 219.4 300 210 248.1C209.8 246.8 209.6 245.5 209.4 244.2C208.7 238.9 208.3 233.4 208.2 227.6C208.2 226.5 208.2 225.3 208.2 224.2zM248 336C248 349.3 258.7 360 272 360C285.3 360 296 349.3 296 336C296 335.3 296 334.6 295.9 334C296 333.4 296 332.7 296 332C296 321 287 312 276 312C275.3 312 274.7 312 274.1 312.1C273.4 312 272.7 312 272 312C258.7 312 248 322.7 248 336zM344 332C344 332.6 344 333.3 344.1 333.9C344 334.6 344 335.3 344 336C344 349.3 354.7 360 368 360C381.3 360 392 349.3 392 336C392 322.7 381.3 312 368 312C367.3 312 366.6 312 365.9 312.1C365.3 312 364.6 312 364 312C353 312 344 321 344 332z"/><path fill="currentColor" d="M248 336C248 322.7 258.7 312 272 312C285.3 312 296 322.7 296 336C296 349.3 285.3 360 272 360C258.7 360 248 349.3 248 336zM368 360C381.3 360 392 349.3 392 336C392 322.7 381.3 312 368 312C354.7 312 344 322.7 344 336C344 349.3 354.7 360 368 360zM477.4 256.7C479.5 245.4 480 234.4 480 224C480 135.6 408.4 64 320 64C231.6 64 160 135.6 160 224C160 234.4 160.6 245.4 162.6 256.7L181.8 362.2C184.6 377.7 172.7 392 156.9 392C145.7 392 135.8 384.6 132.6 373.8L118.8 327C106.4 284.9 67.8 256 24 256C10.7 256 0 266.7 0 280C0 293.3 10.7 304 24 304C46.6 304 66.4 318.9 72.8 340.5L86.6 387.4C95.8 418.6 124.4 440 156.9 440C169.7 440 181.5 436.8 191.9 431.2C189.8 467.4 159.8 496 123.1 496C90.6 496 62.5 473.3 55.7 441.5L47.5 403C44.7 390 32 381.8 19 384.6C6 387.4-2.2 400.1 .5 413L8.8 451.6C20.3 505.5 68 544 123.1 544C156.5 544 189.4 535.8 218.9 520L271 492.2C286.1 484.2 302.9 480 319.9 480C336.9 480 353.8 484.2 368.8 492.2L421.1 520C450.6 535.7 483.5 544 516.9 544C572 544 619.7 505.5 631.2 451.6L639.5 413C642.3 400 634 387.3 621.1 384.5C608.2 381.7 595.3 390 592.5 403L584.2 441.6C577.4 473.4 549.3 496.1 516.8 496.1C480.1 496.1 450.1 467.4 448 431.3C458.3 436.9 470.2 440.1 483 440.1C515.5 440.1 544.2 418.7 553.3 387.5L567.1 340.6C573.5 319 593.3 304.1 615.9 304.1C629.2 304.1 639.9 293.4 639.9 280.1C639.9 266.8 629.2 256.1 615.9 256.1C572.1 256.1 533.4 285 521.1 327.1L507.3 374C504.1 384.8 494.2 392.2 483 392.2C467.2 392.2 455.3 377.9 458.1 362.4L477.3 256.9zM320 112C381.9 112 432 162.1 432 224C432 232.7 431.5 240.6 430.1 248.1L401.9 403.2C400.4 411.6 400 419.7 400 427.1C400 437.2 401.3 447 403.7 456.4L391.5 449.9C369.5 438.1 345 432 320 432C295 432 270.5 438.1 248.5 449.9L236.3 456.4C238.7 447 240 437.2 240 427.1C240 419.7 239.6 411.6 238.1 403.2L209.9 248.1C208.5 240.6 208 232.7 208 224C208 162.1 258.1 112 320 112z"/></svg>