<svg xmlns="http://www.w3.org/2000/svg" viewBox="0 0 640 640"><!--! Font Awesome Pro 7.2.0 by @fontawesome - https://fontawesome.com License - https://fontawesome.com/license (Commercial License) Copyright 2026 Fonticons, Inc. --><path opacity=".4" fill="currentColor" d="M120 122.2L198.5 122.2C242.7 122.2 278.5 158 278.5 202.2L278.5 293.9C278.5 315.5 292.7 333.7 312.3 339.8C278.4 330.2 266 309.4 264.6 295.5L160 280.9L59.2 295.4C52.9 373.7 101.2 415 126.2 425.9L376.6 425.9C370.5 387.9 390.5 355 402.5 341.8L431.5 341.8C431.5 298.6 466.5 263.6 509.7 263.6L514 263.6L514 336.5C543.8 321.6 590.6 268.7 539.1 176.9C576.6 194.4 642.3 262.1 604.5 392.5C582.8 435.1 517.8 519.7 431.4 518L262.3 518C147.4 518 54.3 424.9 54.3 310L54.3 267.2L39.8 267.2L39.8 202.1C39.8 157.9 75.6 122.1 119.8 122.1zM394.7 341.9L326.5 341.9C322.9 341.9 319.3 341.5 315.9 340.7C335.1 345.5 360.8 346.8 394.7 341.9z"/><path fill="currentColor" d="M135.1 249C130.6 246 128 241 128 235.7L128 232C128 218.7 138.7 208 152 208L168 208C181.3 208 192 218.7 192 232L192 235.7C192 241 189.3 246 184.9 249L173.1 256.9C177.9 259.3 185 262.9 194.3 267.5C200.2 270.5 206.7 272 213.4 272C236.9 272 256 252.9 256 229.4L256 208C256 172.7 227.3 144 192 144L128 144C92.7 144 64 172.7 64 208L64 229.4C64 252.9 83.1 272 106.6 272C113.2 272 119.7 270.5 125.7 267.5C135 262.8 142.1 259.3 146.9 256.9L135.1 249zM160 304L147.1 310.4C134.5 316.7 120.6 320 106.6 320C101.5 320 96.5 319.6 91.7 318.8C101.2 347.4 128.2 368 160 368L224 368C237.3 368 248 378.7 248 392C248 394.8 247.5 397.5 246.6 400L352 400C352 388.6 354.4 377.8 358.7 368L328 368C291.3 368 259.9 345.6 246.7 313.7C236.4 317.8 225.2 320 213.4 320C199.3 320 185.5 316.7 172.9 310.4L160 304zM410.8 320C421.6 274.1 462.8 240 512 240C525.3 240 536 250.7 536 264L536 258.3C536 219.5 511.1 185 474.3 172.7L456.4 166.7C444.3 162.7 437.5 149.9 440.8 137.7C444.1 125.5 456.5 117.9 468.9 120.5L485.1 123.9C575.3 142.9 639.9 222.5 639.9 314.7C639.9 435 547.3 533.6 429.5 543.2C425 543.7 420.5 544 415.9 544L257.5 544C133 544 32 443 32 318.4L32 280.8C21.9 266.2 16 248.5 16 229.4L16 208L16 206.6C6.7 203.3 0 194.5 0 184C0 170.7 10.7 160 24 160L26.8 160C44.8 122.2 83.3 96 128 96L192 96C236.7 96 275.2 122.2 293.2 160L296 160C309.3 160 320 170.7 320 184C320 194.5 313.3 203.3 304 206.6L304 208L304 229.4C304 237.4 303 245.1 301 252.5C313.4 244.6 328.2 240 344 240L360 240C373.3 240 384 250.7 384 264C384 277.3 373.3 288 360 288L344 288C327.4 288 313.8 300.6 312.2 316.7C317.1 318.8 322.4 320 328 320L410.8 320zM99.7 399.8L99.8 400L100.1 400L99.7 399.8zM410.8 496C415.5 496 420.2 495.8 424.9 495.5C460.5 491.1 488 460.8 488 424L488 293.4C469.1 302.4 456 321.7 456 344C456 357.3 445.3 368 432 368C414.3 368 400 382.3 400 400L400 424C400 437.3 389.3 448 376 448L136.2 448C168 477.8 210.7 496 257.6 496L410.8 496zM536 424C536 432.2 535.2 440.3 533.6 448C569.5 414.9 592 367.4 592 314.7C592 298 589.2 281.9 584 266.8L584 271.9C584 307.4 564.7 338.5 536 355.1L536 423.9zM96 192C104.8 192 112 199.2 112 208C112 216.8 104.8 224 96 224C87.2 224 80 216.8 80 208C80 199.2 87.2 192 96 192zM208 208C208 199.2 215.2 192 224 192C232.8 192 240 199.2 240 208C240 216.8 232.8 224 224 224C215.2 224 208 216.8 208 208z"/></svg>