<svg xmlns="http://www.w3.org/2000/svg" viewBox="0 0 640 640"><!--! Font Awesome Pro 7.2.0 by @fontawesome - https://fontawesome.com License - https://fontawesome.com/license (Commercial License) Copyright 2026 Fonticons, Inc. --><path opacity=".4" fill="currentColor" d="M176 128L176 512C176 520.8 183.2 528 192 528L448 528C456.8 528 464 520.8 464 512L464 250.5C464 246.3 462.3 242.2 459.3 239.2L336.8 116.7C333.8 113.7 329.7 112 325.5 112L192 112C183.2 112 176 119.2 176 128zM224 382.4C224 378.2 225.5 374.2 228.2 371.1L306.9 278.1C310.2 274.2 315 272 320.1 272C325.2 272 330 274.2 333.3 278.1L412 371.1C414.7 374.3 416.2 378.3 416.2 382.4C416.2 392.1 408.3 400 398.6 400L241.7 400C232 400 224.1 392.1 224.1 382.4z"/><path fill="currentColor" d="M192 112C183.2 112 176 119.2 176 128L176 512C176 520.8 183.2 528 192 528L448 528C456.8 528 464 520.8 464 512L464 250.5C464 246.3 462.3 242.2 459.3 239.2L336.8 116.7C333.8 113.7 329.7 112 325.5 112L192 112zM128 128C128 92.7 156.7 64 192 64L325.5 64C342.5 64 358.8 70.7 370.8 82.7L493.3 205.3C505.3 217.3 512 233.6 512 250.6L512 512C512 547.3 483.3 576 448 576L192 576C156.7 576 128 547.3 128 512L128 128zM228.2 371.1L306.9 278.1C310.2 274.2 315 272 320.1 272C325.2 272 330 274.2 333.3 278.1L412 371.1C414.7 374.3 416.2 378.3 416.2 382.4C416.2 392.1 408.3 400 398.6 400L241.7 400C232 400 224.1 392.1 224.1 382.4C224.1 378.2 225.6 374.2 228.3 371.1z"/></svg>