<svg xmlns="http://www.w3.org/2000/svg" viewBox="0 0 640 640"><!--! Font Awesome Pro 7.2.0 by @fontawesome - https://fontawesome.com License - https://fontawesome.com/license (Commercial License) Copyright 2026 Fonticons, Inc. --><path opacity=".4" fill="currentColor" d="M112 192L112 448C112 456.8 119.2 464 128 464L512 464C520.8 464 528 456.8 528 448L528 192C528 183.2 520.8 176 512 176L128 176C119.2 176 112 183.2 112 192zM160 256C160 238.3 174.3 224 192 224L448 224C465.7 224 480 238.3 480 256L480 288C480 305.7 465.7 320 448 320L192 320C174.3 320 160 305.7 160 288L160 256zM160 392C160 378.7 170.7 368 184 368L232 368C245.3 368 256 378.7 256 392C256 405.3 245.3 416 232 416L184 416C170.7 416 160 405.3 160 392zM288 392C288 378.7 298.7 368 312 368L360 368C373.3 368 384 378.7 384 392C384 405.3 373.3 416 360 416L312 416C298.7 416 288 405.3 288 392z"/><path fill="currentColor" d="M512 176C520.8 176 528 183.2 528 192L528 448C528 456.8 520.8 464 512 464L128 464C119.2 464 112 456.8 112 448L112 192C112 183.2 119.2 176 128 176L512 176zM128 128C92.7 128 64 156.7 64 192L64 448C64 483.3 92.7 512 128 512L512 512C547.3 512 576 483.3 576 448L576 192C576 156.7 547.3 128 512 128L128 128zM160 256L160 288C160 305.7 174.3 320 192 320L448 320C465.7 320 480 305.7 480 288L480 256C480 238.3 465.7 224 448 224L192 224C174.3 224 160 238.3 160 256zM184 368C170.7 368 160 378.7 160 392C160 405.3 170.7 416 184 416L232 416C245.3 416 256 405.3 256 392C256 378.7 245.3 368 232 368L184 368zM312 368C298.7 368 288 378.7 288 392C288 405.3 298.7 416 312 416L360 416C373.3 416 384 405.3 384 392C384 378.7 373.3 368 360 368L312 368z"/></svg>