<svg xmlns="http://www.w3.org/2000/svg" viewBox="0 0 640 640"><!--! Font Awesome Pro 7.2.0 by @fontawesome - https://fontawesome.com License - https://fontawesome.com/license (Commercial License) Copyright 2026 Fonticons, Inc. --><path opacity=".4" fill="currentColor" d="M310.1 276.2L512.3 118.2C517.5 114.1 523.9 111.9 530.5 111.9C546.8 111.9 560.1 125.1 560.1 141.5C560.1 148.1 557.9 154.5 553.8 159.7L395.8 361.9L310.1 276.2z"/><path fill="currentColor" d="M73 39.1C63.6 29.7 48.4 29.7 39.1 39.1C29.8 48.5 29.7 63.7 39 73.1L567 601.1C576.4 610.5 591.6 610.5 600.9 601.1C610.2 591.7 610.3 576.5 600.9 567.2L429.9 396.2C430.5 395.5 431.1 394.7 431.7 394L591.6 189.3C602.3 175.7 608 158.9 608 141.6C608 98.8 573.3 64 530.4 64C513.1 64 496.3 69.8 482.6 80.4L278.1 240.3C277.3 240.9 276.6 241.5 275.9 242.1L73 39.1zM310.1 276.2L512.3 118.2C517.5 114.1 523.9 111.9 530.5 111.9C546.8 111.9 560.1 125.1 560.1 141.5C560.1 148.1 557.9 154.5 553.8 159.7L395.8 361.9L310.1 276.2zM296.7 414.5C301.4 424.7 304 436 304 448C304 492.2 268.2 528 224 528L131.9 528C132.4 527.3 132.9 526.5 133.4 525.8C144.9 508.3 150 485.9 145.6 463.8C144.6 458.7 144 453.4 144 448C144 403.8 179.8 368 224 368C236 368 247.3 370.6 257.5 375.3L203.8 321.6C142.7 331.3 96 384.2 96 448C96 456.6 96.9 465.1 98.5 473.2C102.1 491.3 90 512 71.5 512L64 512C46.3 512 32 526.3 32 544C32 561.7 46.3 576 64 576L224 576C287.8 576 340.7 529.3 350.4 468.2L296.7 414.5z"/></svg>