<svg xmlns="http://www.w3.org/2000/svg" viewBox="0 0 640 640"><!--! Font Awesome Pro 7.2.0 by @fontawesome - https://fontawesome.com License - https://fontawesome.com/license (Commercial License) Copyright 2026 Fonticons, Inc. --><path opacity=".4" fill="currentColor" d="M333.9 300L514.1 119.9C519.1 114.9 526 112 533.1 112C539.5 112 545.3 114.2 549.9 117.9L554.1 122.1C557.8 126.7 560 132.5 560 138.9C560 146 557.2 152.9 552.1 157.9L372 338.1L333.9 300z"/><path fill="currentColor" d="M73 39.1C63.6 29.7 48.4 29.7 39.1 39.1C29.8 48.5 29.7 63.7 39 73.1L567 601.1C576.4 610.5 591.6 610.5 600.9 601.1C610.2 591.7 610.3 576.5 600.9 567.2L405.9 372L586.1 191.9C600.2 177.9 608 158.8 608 138.9C608 97.5 574.5 64 533.1 64C513.2 64 494.2 71.9 480.1 85.9L300 266.1L73 39.1zM333.9 300L514.1 119.9C519.1 114.9 526 112 533.1 112C548 112 560 124 560 138.9C560 146 557.2 152.9 552.1 157.9L372 338.1L333.9 300zM296.7 414.5C301.4 424.7 304 436 304 448C304 492.2 268.2 528 224 528L131.9 528C132.4 527.3 132.9 526.5 133.4 525.8C144.9 508.3 150 485.9 145.6 463.8C144.6 458.7 144 453.4 144 448C144 403.8 179.8 368 224 368C236 368 247.3 370.6 257.5 375.3L203.8 321.6C142.7 331.3 96 384.2 96 448C96 456.6 96.9 465.1 98.5 473.2C102.1 491.3 90 512 71.5 512L64 512C46.3 512 32 526.3 32 544C32 561.7 46.3 576 64 576L224 576C287.8 576 340.7 529.3 350.4 468.2L296.7 414.5z"/></svg>