<svg xmlns="http://www.w3.org/2000/svg" viewBox="0 0 640 640"><!--! Font Awesome Pro 7.2.0 by @fontawesome - https://fontawesome.com License - https://fontawesome.com/license (Commercial License) Copyright 2026 Fonticons, Inc. --><path opacity=".4" fill="currentColor" d="M105.3 508.6C103.6 517.3 109.3 525.8 118 527.4L213.2 545.7C221.7 547.3 229.9 541.9 231.8 533.5L296.9 242.7C299.4 231.7 309.1 223.9 320.3 223.9C331.5 223.9 341.3 231.7 343.7 242.7L408.8 533.5C410.7 541.9 418.9 547.3 427.4 545.7L522.6 527.4C531.3 525.7 537 517.3 535.3 508.6L472.4 192L424.3 192C411 192 400.3 181.3 400.3 168C400.3 154.7 411 144 424.3 144L462.8 144L455.8 108.9C454.3 101.4 447.7 96 440.1 96L200.5 96C192.9 96 186.3 101.4 184.8 108.9L177.8 144L216.3 144C229.6 144 240.3 154.7 240.3 168C240.3 181.3 229.6 192 216.3 192L168.2 192L105.3 508.6z"/><path fill="currentColor" d="M137.7 99.5C143.7 69.6 170 48 200.5 48L440.2 48C470.7 48 497 69.6 503 99.5L582.5 499.2C589.4 534 566.7 567.8 531.8 574.5L436.6 592.8C402.6 599.3 369.6 577.7 362.1 543.9L320.3 357.8L278.7 544C271.1 577.8 238.1 599.4 204.2 592.9L108.9 574.6C74.1 567.8 51.3 534 58.2 499.2L137.7 99.5zM200.5 96C192.9 96 186.3 101.4 184.8 108.9L177.8 144L216.3 144C229.6 144 240.3 154.7 240.3 168C240.3 181.3 229.6 192 216.3 192L168.2 192L105.3 508.6C103.6 517.3 109.3 525.8 118 527.4L213.2 545.7C221.7 547.3 229.9 541.9 231.8 533.5L296.9 242.7C299.4 231.7 309.1 223.9 320.3 223.9C331.5 223.9 341.3 231.7 343.7 242.7L408.8 533.5C410.7 541.9 418.9 547.3 427.4 545.7L522.6 527.4C531.3 525.7 537 517.3 535.3 508.6L472.4 192L424.3 192C411 192 400.3 181.3 400.3 168C400.3 154.7 411 144 424.3 144L462.8 144L455.8 108.9C454.3 101.4 447.7 96 440.1 96L200.5 96z"/></svg>