<svg xmlns="http://www.w3.org/2000/svg" viewBox="0 0 640 640"><!--! Font Awesome Pro 7.2.0 by @fontawesome - https://fontawesome.com License - https://fontawesome.com/license (Commercial License) Copyright 2026 Fonticons, Inc. --><path opacity=".4" fill="currentColor" d="M80 229.7L80 241.5L129.2 267.2C212.9 310.8 274.9 386.9 300.8 477.7L306.1 496.1L333.9 496.1L339.2 477.7C365.1 387 427.2 310.9 510.8 267.2L560 241.5L560 229.7C487.9 241.4 406.3 248 320 248C233.7 248 152.1 241.4 80 229.7z"/><path fill="currentColor" d="M599.3 182.6C604.8 187.2 608 193.9 608 201.1L608 256C608 264.9 603 273.1 595.1 277.3L533 309.7C461 347.3 407.6 412.7 385.3 490.8L375.1 526.6C372.1 536.9 362.7 544 352 544L288 544C277.3 544 267.9 536.9 264.9 526.6L254.7 490.8C232.4 412.7 179 347.2 107 309.7L44.9 277.3C37 273.1 32 264.9 32 256L32 201.1C32 194 35.2 187.2 40.7 182.6C46.2 178 53.4 176.2 60.5 177.5C135.9 191.8 224.7 200 320 200C415.3 200 504.1 191.8 579.6 177.5C586.6 176.2 593.9 178.1 599.4 182.6zM560 229.6C487.9 241.4 406.3 248 320 248C233.7 248 152.1 241.4 80 229.7L80 241.5L129.2 267.2C212.9 310.8 274.9 386.9 300.8 477.7L306.1 496.1L333.9 496.1L339.2 477.7C365.1 387 427.2 310.9 510.8 267.2L560 241.5L560 229.7z"/></svg>