<svg xmlns="http://www.w3.org/2000/svg" viewBox="0 0 640 640"><!--! Font Awesome Pro 7.2.0 by @fontawesome - https://fontawesome.com License - https://fontawesome.com/license (Commercial License) Copyright 2026 Fonticons, Inc. --><path opacity=".4" fill="currentColor" d="M177.8 144L480 144C488.8 144 496 151.2 496 160L496 462.2L396.4 362.6C418.1 345 432 318.1 432 288C432 235 389 192 336 192L256 192C247.6 192 240 195.2 234.3 200.5L177.8 144zM273.8 240L336 240C362.5 240 384 261.5 384 288C384 304.9 375.3 319.7 362.1 328.3L273.8 240z"/><path fill="currentColor" d="M73 39.1C63.6 29.7 48.4 29.7 39.1 39.1C29.8 48.5 29.7 63.7 39 73.1L567 601.1C576.4 610.5 591.6 610.5 600.9 601.1C610.2 591.7 610.3 576.5 600.9 567.2L538.8 505.1C542.1 497.4 543.9 488.9 543.9 480L543.9 160C543.9 124.7 515.2 96 479.9 96L160 96C151.1 96 142.6 97.8 134.9 101.1L72.9 39.1zM177.8 144L480 144C488.8 144 496 151.2 496 160L496 462.2L396.4 362.6C418.1 345 432 318.1 432 288C432 235 389 192 336 192L256 192C247.6 192 240 195.2 234.3 200.5L177.8 144zM362.1 328.3L273.8 240L336 240C362.5 240 384 261.5 384 288C384 304.9 375.3 319.7 362.1 328.3zM394.2 496L160 496C151.2 496 144 488.8 144 480L144 245.8L96 197.8L96 480C96 515.3 124.7 544 160 544L442.2 544L394.2 496zM224 360L224 424C224 437.3 234.7 448 248 448C261.3 448 272 437.3 272 424L272 384L282.2 384L224 325.8L224 360z"/></svg>