<svg xmlns="http://www.w3.org/2000/svg" viewBox="0 0 640 640"><!--! Font Awesome Pro 7.2.0 by @fontawesome - https://fontawesome.com License - https://fontawesome.com/license (Commercial License) Copyright 2026 Fonticons, Inc. --><path opacity=".4" fill="currentColor" d="M123.3 516.7L210.2 484.1L155.9 429.8L123.3 516.7zM174.4 380.5L259.5 465.6L323.3 441.7L198.3 316.7L174.4 380.5z"/><path fill="currentColor" d="M96 96C96 78.3 110.3 64 128 64C145.7 64 160 78.3 160 96C160 113.7 145.7 128 128 128C110.3 128 96 113.7 96 96zM512 224C512 206.3 526.3 192 544 192C561.7 192 576 206.3 576 224C576 241.7 561.7 256 544 256C526.3 256 512 241.7 512 224zM544 480C561.7 480 576 494.3 576 512C576 529.7 561.7 544 544 544C526.3 544 512 529.7 512 512C512 494.3 526.3 480 544 480zM231 217C221.6 207.6 221.6 192.4 231 183.1L239.3 174.8C256 158.1 266.5 136.2 269.1 112.7L272.1 85.3C273.6 72.2 285.5 62.7 298.7 64.1C311.9 65.5 321.4 77.4 319.9 90.6L316.9 118C313.1 152.3 297.7 184.3 273.3 208.7L265 217C255.6 226.4 240.4 226.4 231.1 217zM423 375L431.2 366.8C455.6 342.4 487.6 327 521.9 323.2L549.3 320.2C562.5 318.7 574.3 328.2 575.8 341.4C577.3 354.6 567.8 366.4 554.6 367.9L527.2 370.9C503.7 373.5 481.8 384 465.1 400.7L457 409C447.6 418.4 432.4 418.4 423.1 409C413.8 399.6 413.7 384.4 423.1 375.1zM570.3 72.5C578.9 82.6 577.6 97.8 567.5 106.3L557.5 114.8C542.7 127.3 523.8 133.9 504.5 133.4C487.9 133 473.9 145.8 472.9 162.4L471.1 192.4C468.6 234.9 432.8 267.7 390.3 266.6C382.7 266.4 375.3 269 369.6 273.9L359.6 282.4C349.5 291 334.3 289.7 325.8 279.6C317.3 269.5 318.5 254.3 328.6 245.8L338.6 237.3C353.4 224.8 372.3 218.2 391.6 218.7C408.2 219.1 422.2 206.3 423.2 189.7L425 159.7C427.5 117.2 463.3 84.4 505.8 85.5C513.4 85.7 520.8 83.1 526.5 78.2L536.5 69.7C546.6 61.1 561.8 62.4 570.3 72.5zM123.3 516.7L210.2 484.1L155.9 429.8L123.3 516.7zM323.4 441.7L198.4 316.7L174.5 380.5L259.6 465.6L323.4 441.7zM162.1 276.6C170.1 255.2 198.5 249 214.7 265.2L374.9 425.3C391.1 441.5 384.9 469.9 363.5 477.9L107.3 574C82.1 583.4 56.6 558 66 532.8L162.1 276.6z"/></svg>