<svg xmlns="http://www.w3.org/2000/svg" viewBox="0 0 640 640"><!--! Font Awesome Pro 7.2.0 by @fontawesome - https://fontawesome.com License - https://fontawesome.com/license (Commercial License) Copyright 2026 Fonticons, Inc. --><path opacity=".4" fill="currentColor" d="M112 320C112 434.9 205.1 528 320 528C434.9 528 528 434.9 528 320C528 205.1 434.9 112 320 112C205.1 112 112 205.1 112 320zM240 248C240 234.7 250.7 224 264 224C277.3 224 288 234.7 288 248L288 392C288 405.3 277.3 416 264 416C250.7 416 240 405.3 240 392L240 248zM352 248C352 234.7 362.7 224 376 224C389.3 224 400 234.7 400 248L400 392C400 405.3 389.3 416 376 416C362.7 416 352 405.3 352 392L352 248z"/><path fill="currentColor" d="M320 112C434.9 112 528 205.1 528 320C528 434.9 434.9 528 320 528C205.1 528 112 434.9 112 320C112 205.1 205.1 112 320 112zM320 576C461.4 576 576 461.4 576 320C576 178.6 461.4 64 320 64C178.6 64 64 178.6 64 320C64 461.4 178.6 576 320 576zM288 248C288 234.7 277.3 224 264 224C250.7 224 240 234.7 240 248L240 392C240 405.3 250.7 416 264 416C277.3 416 288 405.3 288 392L288 248zM400 248C400 234.7 389.3 224 376 224C362.7 224 352 234.7 352 248L352 392C352 405.3 362.7 416 376 416C389.3 416 400 405.3 400 392L400 248z"/></svg>