<svg xmlns="http://www.w3.org/2000/svg" viewBox="0 0 640 640"><!--! Font Awesome Pro 7.2.0 by @fontawesome - https://fontawesome.com License - https://fontawesome.com/license (Commercial License) Copyright 2026 Fonticons, Inc. --><path opacity=".4" fill="currentColor" d="M269.6 235.7L360.9 210.8L429.2 279.1L404.3 370.4L269.6 235.7z"/><path fill="currentColor" d="M73 39.1C63.6 29.7 48.4 29.7 39.1 39.1C29.8 48.5 29.7 63.7 39 73.1L567 601.1C576.4 610.5 591.6 610.5 600.9 601.1C610.2 591.7 610.3 576.5 600.9 567.2L443.3 409.6L476.2 289.1L486.6 278.7L557.6 207.7C579.5 185.8 579.5 150.4 557.6 128.5L511.6 82.3C489.7 60.4 454.3 60.4 432.4 82.3L361.4 153.4L351 163.8L230.5 196.6L73 39.1zM269.6 235.7L360.9 210.8L429.2 279.1L404.3 370.4L269.6 235.7zM343.5 445.2L157.8 510.5L255.3 413C260.5 414.9 266.1 416 272 416C283.8 416 294.6 411.8 302.9 404.7L235.3 337.1C228.3 345.4 224 356.2 224 368C224 373.9 225.1 379.5 227 384.7L129.5 482.2L194.7 296.6L157.1 258.9L71 504C64.5 522.5 69.2 543.1 83 556.9C96.8 570.7 117.4 575.4 135.9 568.9L381 482.8L343.4 445.1z"/></svg>