<svg xmlns="http://www.w3.org/2000/svg" viewBox="0 0 640 640"><!--! Font Awesome Pro 7.2.0 by @fontawesome - https://fontawesome.com License - https://fontawesome.com/license (Commercial License) Copyright 2026 Fonticons, Inc. --><path opacity=".4" fill="currentColor" d="M122.5 517.5L209.4 493.4C216 491.6 222.1 488 227 483.1L434.1 276L364 205.9L156.9 413.1C152 418 148.5 424 146.6 430.7L122.5 517.5z"/><path fill="currentColor" d="M148.1 286.1L182 252.2L87.8 158C82.8 153 79.9 146.1 79.9 139C79.9 124.1 91.9 112.1 106.8 112.1C113.9 112.1 120.8 114.9 125.8 120L220 214.2L253.9 180.3L159.7 86.1C145.8 71.9 126.8 64 106.9 64C65.5 64 32 97.5 32 138.9C32 158.8 39.9 177.8 53.9 191.9L148.1 286.1zM316.9 529C340.4 557.7 376.1 576 416 576L576 576C593.7 576 608 561.7 608 544C608 526.3 593.7 512 576 512L568.5 512C550 512 537.9 491.4 541.5 473.2C543.1 465 544 456.6 544 448C544 408 525.7 372.3 497 348.9L462.8 383.1C482.9 397.6 496.1 421.3 496.1 448C496.1 453.5 495.6 458.8 494.5 463.8C490.1 485.9 495.2 508.3 506.7 525.8C507.2 526.5 507.7 527.3 508.2 528L416 528C389.3 528 365.6 514.9 351.1 494.7L316.9 529zM122.9 379.1C112.2 389.8 104.4 403.2 100.3 417.8L64.9 545.6C62.6 553.9 64.9 562.9 71.1 569C77.3 575.1 86.2 577.5 94.5 575.2L222.3 539.7C236.9 535.6 250.2 527.9 261 517.1L555 223.1C568.4 209.6 576 191.2 576 172C576 152.8 568.4 134.4 554.8 120.9L519.1 85.2C505.6 71.6 487.2 64 468 64C448.8 64 430.4 71.6 416.9 85.2L122.9 379.2zM468 112C474.4 112 480.6 114.6 485.2 119.1L520.9 154.8C525.5 159.4 528 165.5 528 172C528 178.5 525.4 184.6 520.9 189.2L468 242.1L397.9 172L450.8 119.1C455.4 114.5 461.5 112 468 112zM156.9 413.1L364 205.9L434.1 276L226.9 483.1C222 488 216 491.5 209.3 493.4L122.4 517.5L146.5 430.6C148.3 424 151.9 417.9 156.8 413z"/></svg>