<svg xmlns="http://www.w3.org/2000/svg" viewBox="0 0 640 640"><!--! Font Awesome Pro 7.2.0 by @fontawesome - https://fontawesome.com License - https://fontawesome.com/license (Commercial License) Copyright 2026 Fonticons, Inc. --><path opacity=".4" fill="currentColor" d="M108.1 240L136.2 368L167.1 368L139 240L108.1 240zM429.8 330.6C428.7 333.8 429.8 337.2 432.3 339.3L448.6 352.6L481 248.8C481.1 248.5 481.2 248.1 481.3 247.8C474.6 244.3 467.3 241.9 459.6 240.7L429.7 330.5z"/><path fill="currentColor" d="M112 64C138.5 64 160 85.5 160 112C160 138.5 138.5 160 112 160C85.5 160 64 138.5 64 112C64 85.5 85.5 64 112 64zM80 335.9L80 392C80 405.3 69.3 416 56 416C42.7 416 32 405.3 32 392L32 248C32 217.1 57.1 192 88 192L146.4 192C161.5 192 176.3 195.9 189.4 203.2L311.9 271.9C329.8 237.9 360.3 211.9 397 199.6C412.3 194.5 428.3 191.9 444.4 191.9L449.3 191.9C501.8 191.9 548 226.7 562.5 277.3L573.4 315.4L601 343C610.4 352.4 610.4 367.6 601 376.9C591.6 386.2 576.4 386.3 567.1 376.9L538 347.9C533.2 343.1 529.7 337.1 527.8 330.6L517.3 293.9L488.8 385.2L538.9 425.9C545.8 431.5 550.7 439.3 552.7 448L575.5 546.6C578.5 559.5 570.4 572.4 557.5 575.4C544.6 578.4 531.7 570.3 528.7 557.4L506.6 461.4L402.2 376.6C384.1 361.9 377 337.5 384.4 315.4L407 247.1C382.3 256.9 362.3 276 351.4 300.4L341.9 321.7C336.5 333.8 322.3 339.3 310.2 333.9C303.4 330.9 298.7 325.1 296.9 318.5L192.5 259.9L255.5 546.8C258.3 559.7 250.2 572.5 237.2 575.4C224.2 578.3 211.5 570 208.6 557.1L177.6 416L146.7 416L175.4 546.9C178.2 559.8 170.1 572.6 157.1 575.5C144.1 578.4 131.4 570.1 128.5 557.2L80 335.9zM138.9 240L108 240L136.1 368L167 368L138.9 240zM496 64C522.5 64 544 85.5 544 112C544 138.5 522.5 160 496 160C469.5 160 448 138.5 448 112C448 85.5 469.5 64 496 64zM429.8 330.6C428.7 333.8 429.8 337.2 432.3 339.3L448.6 352.6L481 248.8C481.1 248.5 481.2 248.1 481.3 247.8C474.6 244.3 467.3 241.9 459.6 240.7L429.7 330.5zM387.7 406.2L426.7 437.9L407.5 485.9C405.5 490.9 402.5 495.5 398.6 499.3L329 569C319.6 578.4 304.4 578.4 295.1 569C285.8 559.6 285.7 544.4 295.1 535.1L363.6 466.6L387.7 406.2z"/></svg>