<svg xmlns="http://www.w3.org/2000/svg" viewBox="0 0 640 640"><!--! Font Awesome Pro 7.2.0 by @fontawesome - https://fontawesome.com License - https://fontawesome.com/license (Commercial License) Copyright 2026 Fonticons, Inc. --><path opacity=".4" fill="currentColor" d="M127.7 400L256.4 400L227.5 298.7C223 282.9 208.5 272 192.1 272C175.7 272 161.2 282.9 156.7 298.7L127.7 400zM383.7 400L512.4 400L483.5 298.7C479 282.9 464.5 272 448.1 272C431.7 272 417.2 282.9 412.7 298.7L383.7 400z"/><path fill="currentColor" d="M256.1 128C256.1 92.7 227.4 64 192.1 64C156.8 64 128.1 92.7 128.1 128C128.1 163.3 156.8 192 192.1 192C227.4 192 256.1 163.3 256.1 128zM256.5 400L127.7 400L156.7 298.7C161.2 282.9 175.7 272 192.1 272C208.5 272 223 282.9 227.5 298.7L256.5 400zM192.1 224C154.2 224 120.9 249.1 110.5 285.5L75.8 407.2C69.9 427.7 85.3 448 106.5 448L128.1 448L128.1 552C128.1 565.3 138.8 576 152.1 576C165.4 576 176.1 565.3 176.1 552L176.1 448L208.1 448L208.1 552C208.1 565.3 218.8 576 232.1 576C245.4 576 256.1 565.3 256.1 552L256.1 448L277.7 448C299 448 314.3 427.7 308.5 407.2L273.7 285.5C263.3 249.1 230 224 192.1 224zM512.1 128C512.1 92.7 483.4 64 448.1 64C412.8 64 384.1 92.7 384.1 128C384.1 163.3 412.8 192 448.1 192C483.4 192 512.1 163.3 512.1 128zM512.5 400L383.8 400L412.7 298.7C417.2 282.9 431.7 272 448.1 272C464.5 272 479 282.9 483.5 298.7L512.5 400zM448.1 224C410.2 224 376.9 249.1 366.5 285.5L331.8 407.2C326 427.6 341.3 448 362.6 448L384.2 448L384.2 552C384.2 565.3 394.9 576 408.2 576C421.5 576 432.2 565.3 432.2 552L432.2 448L464.2 448L464.2 552C464.2 565.3 474.9 576 488.2 576C501.5 576 512.2 565.3 512.2 552L512.2 448L533.8 448C555.1 448 570.4 427.7 564.6 407.2L529.7 285.5C519.3 249.1 486 224 448.1 224z"/></svg>