<svg xmlns="http://www.w3.org/2000/svg" viewBox="0 0 640 640"><!--! Font Awesome Pro 7.2.0 by @fontawesome - https://fontawesome.com License - https://fontawesome.com/license (Commercial License) Copyright 2026 Fonticons, Inc. --><path opacity=".4" fill="currentColor" d="M192 231.1L192 384L256 384L256 231.1C246.1 226.5 235.2 224 224 224C212.8 224 201.9 226.5 192 231.1z"/><path fill="currentColor" d="M224 32C254.9 32 280 57.1 280 88C280 118.9 254.9 144 224 144C193.1 144 168 118.9 168 88C168 57.1 193.1 32 224 32zM192 384L256 384L256 231.1C246.1 226.5 235.2 224 224 224C212.8 224 201.9 226.5 192 231.1L192 384zM192 432L192 584C192 597.3 181.3 608 168 608C154.7 608 144 597.3 144 584L144 281.6L83.5 366C75.8 376.8 60.8 379.3 50 371.5C39.2 363.7 36.8 348.8 44.5 338L123.7 227.5C146.8 195.2 184.2 176 224 176C263.8 176 301.2 195.2 324.3 227.5L382.7 309C369.6 318.6 357.8 329.8 347.5 342.3L304 281.6L304 584C304 597.3 293.3 608 280 608C266.7 608 256 597.3 256 584L256 432L192 432zM496 320C575.5 320 640 384.5 640 464C640 543.5 575.5 608 496 608C416.5 608 352 543.5 352 464C352 384.5 416.5 320 496 320zM512 400C512 391.2 504.8 384 496 384C487.2 384 480 391.2 480 400L480 448L432 448C423.2 448 416 455.2 416 464C416 472.8 423.2 480 432 480L480 480L480 528C480 536.8 487.2 544 496 544C504.8 544 512 536.8 512 528L512 480L560 480C568.8 480 576 472.8 576 464C576 455.2 568.8 448 560 448L512 448L512 400z"/></svg>