<svg xmlns="http://www.w3.org/2000/svg" viewBox="0 0 640 640"><!--! Font Awesome Pro 7.2.0 by @fontawesome - https://fontawesome.com License - https://fontawesome.com/license (Commercial License) Copyright 2026 Fonticons, Inc. --><path opacity=".4" fill="currentColor" d="M303.3 311.9C296.1 323.9 300.6 339.5 313.1 345.7L319.1 348.7L379.8 242.8L383.3 244.8C374.4 237.7 364.8 231.4 354.6 226.3L303.2 311.9z"/><path fill="currentColor" d="M456.8 192C487.7 192 512.8 166.9 512.8 136C512.8 105.1 487.7 80 456.8 80C425.9 80 400.8 105.1 400.8 136C400.8 166.9 425.9 192 456.8 192zM544 305.9C551.5 299.2 554.2 288.3 550.1 278.5C544.9 266.3 530.8 260.7 518.6 265.9L485.2 280.2C481.9 281.6 478 280.6 475.7 277.8L448.6 243C419.2 205.4 378.2 178.6 331.9 166.7L295.9 157.5C255.4 147.1 214.7 173.3 207.2 214.4L200.4 251.7C199.7 255.5 200 259.2 201 262.7L55.1 496L92.9 496L228.1 279.7C237.7 278 245.8 270.5 247.6 260.3L254.4 223C256.9 209.3 270.5 200.6 284 204L308.3 210.2L262.1 287.1C240.5 323.1 254.1 369.8 291.6 388.6L363.2 424.4C366.9 426.2 368.6 430.6 367.1 434.4L331.1 527.9L206.7 527.9L256 466.3C259.2 462.4 261.8 458 263.7 453.4L272.5 432.8L270.1 431.6C255.5 424.3 243.1 414.5 233.1 403L219.6 434.6C219.3 435.3 218.9 435.9 218.5 436.4L157.3 513C153.8 517.4 152 522.7 152 528L56 528C42.7 528 32 538.7 32 552C32 565.3 42.7 576 56 576L540.6 576C558 576 575 570.9 589.4 561.2L597.3 555.9C608.3 548.5 611.3 533.6 604 522.6C596.7 511.6 581.7 508.6 570.7 515.9L562.8 521.2C556.2 525.6 548.5 527.9 540.6 527.9L382.6 527.9L412 451.6C422.4 424.7 410.6 394.3 384.8 381.4L362.2 370.1L415.1 277.9L438 307.2C453.6 327.2 480.8 334.2 504.2 324.2L512.1 320.8L512.1 495.8L544.1 495.8L544.1 305.7zM379.9 242.9L319.2 348.8L313.2 345.8C300.7 339.5 296.2 324 303.4 312L354.8 226.4C365 231.6 374.6 237.8 383.5 244.9L380 242.9z"/></svg>