<svg xmlns="http://www.w3.org/2000/svg" viewBox="0 0 640 640"><!--! Font Awesome Pro 7.2.0 by @fontawesome - https://fontawesome.com License - https://fontawesome.com/license (Commercial License) Copyright 2026 Fonticons, Inc. --><path opacity=".4" fill="currentColor" d="M255.7 400L384.4 400L355.5 298.7C351 282.9 336.5 272 320.1 272C303.7 272 289.2 282.9 284.7 298.7L255.7 400z"/><path fill="currentColor" d="M320.1 64C355.4 64 384.1 92.7 384.1 128C384.1 163.3 355.4 192 320.1 192C284.8 192 256.1 163.3 256.1 128C256.1 92.7 284.8 64 320.1 64zM355.5 298.7C351 282.9 336.5 272 320.1 272C303.7 272 289.2 282.9 284.7 298.7L255.7 400L384.5 400L355.5 298.7zM238.5 285.5C248.9 249.1 282.2 224 320.1 224C358 224 391.3 249.1 401.7 285.5L436.5 407.2C442.3 427.6 427 448 405.7 448L384.1 448L384.1 552C384.1 565.3 373.4 576 360.1 576C346.8 576 336.1 565.3 336.1 552L336.1 448L304.1 448L304.1 552C304.1 565.3 293.4 576 280.1 576C266.8 576 256.1 565.3 256.1 552L256.1 448L234.5 448C213.2 448 197.9 427.7 203.7 407.2L238.5 285.5z"/></svg>