<svg xmlns="http://www.w3.org/2000/svg" viewBox="0 0 640 640"><!--! Font Awesome Pro 7.2.0 by @fontawesome - https://fontawesome.com License - https://fontawesome.com/license (Commercial License) Copyright 2026 Fonticons, Inc. --><path opacity=".4" fill="currentColor" d="M288.5 239.9L288.5 384L352.5 384L352.5 224.3L302.7 235.6C297.8 236.7 293.1 238.2 288.5 239.9z"/><path fill="currentColor" d="M480.5 56C480.5 42.7 469.8 32 456.5 32C443.2 32 432.5 42.7 432.5 56L432.5 105.8C432.5 135.7 411.8 161.6 382.7 168.2L292.1 188.8C252.6 197.8 218.3 222.2 196.9 256.5L140.1 347.3C133.1 358.5 136.5 373.3 147.7 380.4C158.9 387.5 173.7 384 180.8 372.8L237.5 282C238.4 280.5 239.4 279 240.4 277.5L240.4 584C240.4 597.3 251.1 608 264.4 608C277.7 608 288.4 597.3 288.4 584L288.4 432L352.4 432L352.4 584C352.4 597.3 363.1 608 376.4 608C389.7 608 400.4 597.3 400.4 584L400.4 213.1C447.6 199.1 480.4 155.6 480.4 105.8L480.4 56zM352.5 384L288.5 384L288.5 239.9C293.1 238.1 297.8 236.7 302.7 235.6L352.5 224.3L352.5 384zM320.5 144C351.4 144 376.5 118.9 376.5 88C376.5 57.1 351.4 32 320.5 32C289.6 32 264.5 57.1 264.5 88C264.5 118.9 289.6 144 320.5 144z"/></svg>