<svg xmlns="http://www.w3.org/2000/svg" viewBox="0 0 640 640"><!--! Font Awesome Pro 7.2.0 by @fontawesome - https://fontawesome.com License - https://fontawesome.com/license (Commercial License) Copyright 2026 Fonticons, Inc. --><path opacity=".4" fill="currentColor" d="M304 336L376 336C376.5 336 377 336 377.4 336L304 418.1L304 336zM304 496L400 496L400 528L304 528L304 496zM320 176C320 170.2 321.6 164.7 324.3 160L379.7 160C382.4 164.7 384 170.2 384 176C384 193.7 369.7 208 352 208C334.3 208 320 193.7 320 176zM341.7 448L400 382.8L400 448L341.7 448z"/><path fill="currentColor" d="M256 103C256 90 266 79.2 278.9 78.1L430.7 65.4C440 64.7 448 72 448 81.4L448 112C448 120.8 440.8 128 432 128L281 128C267.2 128 256 116.8 256 103zM64 312C64 298.7 74.7 288 88 288L376.6 288C419.5 288 459.1 310.9 480.5 348L572.8 508C579.4 519.5 575.5 534.2 564 540.8C552.5 547.4 537.8 543.5 531.2 532L448 387.8L448 544C448 561.7 433.7 576 416 576L288 576C270.3 576 256 561.7 256 544L256 336L88 336C74.7 336 64 325.3 64 312zM304 336L304 418.1L377.4 336C376.9 336 376.4 336 376 336L304 336zM304 528L400 528L400 496L304 496L304 528zM400 382.8L341.7 448L400 448L400 382.8zM272 176C272 170.5 272.6 165.2 273.6 160L324.3 160C321.6 164.7 320 170.2 320 176C320 193.7 334.3 208 352 208C369.7 208 384 193.7 384 176C384 170.2 382.4 164.7 379.7 160L430.4 160C431.4 165.2 432 170.5 432 176C432 220.2 396.2 256 352 256C307.8 256 272 220.2 272 176z"/></svg>