<svg xmlns="http://www.w3.org/2000/svg" viewBox="0 0 640 640"><!--! Font Awesome Pro 7.2.0 by @fontawesome - https://fontawesome.com License - https://fontawesome.com/license (Commercial License) Copyright 2026 Fonticons, Inc. --><path opacity=".4" fill="currentColor" d="M128 226.2C134 224.8 140.2 224 146.4 224C153.8 224 161 225 168 227L168 381.8L145.8 367C134.7 359.6 128 347.1 128 333.7L128 226.1z"/><path fill="currentColor" d="M104 88C104 57.1 129.1 32 160 32C190.9 32 216 57.1 216 88C216 118.9 190.9 144 160 144C129.1 144 104 118.9 104 88zM128 226.2L128 333.8C128 347.2 134.7 359.7 145.8 367.1L168 381.8L168 227C161 225 153.8 224 146.4 224C140.1 224 134 224.7 128 226.2zM80 257.9L59.7 278.2C52.2 285.7 48 295.9 48 306.5L48 360C48 373.3 37.3 384 24 384C10.7 384 0 373.3 0 360L0 306.5C0 283.2 9.3 260.8 25.8 244.3L57 213C80.7 189.3 112.8 176 146.4 176C182.2 176 216.4 191.2 240.3 217.8L262.7 242.7C270.3 251.1 281.1 255.9 292.4 255.9L327.9 255.9C341.2 255.9 351.9 266.6 351.9 279.9C351.9 293.2 341.2 303.9 327.9 303.9L292.4 303.9C267.5 303.9 243.7 293.3 227 274.8L215.9 262.5L215.9 413.8L237.1 427.9C258.2 441.9 272.2 464.4 275.5 489.5L287.7 580.8C289.5 593.9 280.2 606 267.1 607.8C254 609.6 241.9 600.3 240.1 587.2L228 495.9C226.5 484.5 220.1 474.3 210.5 467.9L119.2 407C94.7 390.6 80 363.2 80 333.7L80 257.9zM99.7 451.7L141.6 479.7L139.6 486.7C135.5 501.1 127.8 514.2 117.2 524.7L41 601C31.6 610.4 16.4 610.4 7.1 601C-2.2 591.6-2.3 576.4 7 567L83.3 490.7C88.1 485.9 91.6 479.9 93.5 473.4L99.7 451.6zM537 409C527.6 418.4 512.4 418.4 503.1 409C493.8 399.6 493.7 384.4 503.1 375.1L534.1 344.1L432 344.1C418.7 344.1 408 333.4 408 320.1C408 306.8 418.7 296.1 432 296.1L534.1 296.1L503.1 265.1C493.7 255.7 493.7 240.5 503.1 231.2C512.5 221.9 527.7 221.8 537 231.2L609 303.2C618.4 312.6 618.4 327.8 609 337.1L537 409.1zM408 48C421.3 48 432 58.7 432 72L432 104C432 117.3 421.3 128 408 128C394.7 128 384 117.3 384 104L384 72C384 58.7 394.7 48 408 48zM432 200L432 232C432 245.3 421.3 256 408 256C394.7 256 384 245.3 384 232L384 200C384 186.7 394.7 176 408 176C421.3 176 432 186.7 432 200zM408 384C421.3 384 432 394.7 432 408L432 440C432 453.3 421.3 464 408 464C394.7 464 384 453.3 384 440L384 408C384 394.7 394.7 384 408 384zM432 536L432 568C432 581.3 421.3 592 408 592C394.7 592 384 581.3 384 568L384 536C384 522.7 394.7 512 408 512C421.3 512 432 522.7 432 536z"/></svg>