<svg xmlns="http://www.w3.org/2000/svg" viewBox="0 0 640 640"><!--! Font Awesome Pro 7.2.0 by @fontawesome - https://fontawesome.com License - https://fontawesome.com/license (Commercial License) Copyright 2026 Fonticons, Inc. --><path opacity=".4" fill="currentColor" d="M112 464C112 481.7 126.3 496 144 496L304 496C321.7 496 336 481.7 336 464C336 446.3 321.7 432 304 432L144 432C126.3 432 112 446.3 112 464zM144 344L144 384L464 384C499.3 384 528 355.3 528 320L528 317.9L392.3 240.3L340.5 324.5C336.1 331.6 328.4 335.9 320.1 335.9L152 336C147.6 336 144 339.6 144 344z"/><path fill="currentColor" d="M256 112C256 85.5 234.5 64 208 64C181.5 64 160 85.5 160 112C160 138.5 181.5 160 208 160C234.5 160 256 138.5 256 112zM373.8 126C368.3 114 354.1 108.7 342 114.2C329.9 119.7 324.7 133.9 330.2 146L357.4 205.5L340.9 232.3L242.1 197C232.9 193.7 223.2 192 213.4 192C166.3 192 128 230.2 128 277.4L128 293.4C109.1 302.4 96 321.7 96 344L96 400C76.6 414.6 64 437.8 64 464C64 508.2 99.8 544 144 544L304 544C348.2 544 384 508.2 384 464C384 452.6 381.6 441.8 377.3 432L428.9 432L458.4 496L438.9 496C425.6 496 414.9 506.7 414.9 520C414.9 533.3 425.6 544 438.9 544L495.4 544C495.8 544 496.1 544 496.5 544L520 544C550.9 544 576 518.9 576 488C576 474.7 565.3 464 552 464C538.7 464 528 474.7 528 488C528 492.4 524.4 496 520 496L511.4 496L481.3 430.7C534.9 422.4 576 376 576 320L576 304C576 295.4 571.4 287.4 563.9 283.2L403.9 191.8L373.8 126.1zM176 288L176 277.4C176 256.8 192.7 240 213.4 240C217.7 240 221.9 240.7 226 242.2L315.2 274.1L306.6 288.1L176 288.1zM263.9 384L144 384L144 344C144 339.6 147.6 336 152 336L320 336C328.3 336 336.1 331.7 340.4 324.6L392.2 240.4L527.9 318L527.9 320.1C527.9 355.4 499.2 384.1 463.9 384.1L263.8 384.1zM144 432L304 432C321.7 432 336 446.3 336 464C336 481.7 321.7 496 304 496L144 496C126.3 496 112 481.7 112 464C112 446.3 126.3 432 144 432z"/></svg>