<svg xmlns="http://www.w3.org/2000/svg" viewBox="0 0 640 640"><!--! Font Awesome Pro 7.2.0 by @fontawesome - https://fontawesome.com License - https://fontawesome.com/license (Commercial License) Copyright 2026 Fonticons, Inc. --><path opacity=".4" fill="currentColor" d="M121.9 227.4C149 381.2 259.3 491.6 413.1 518.7C461.5 527.2 505 493.4 520.1 448.2C521.4 444.2 519.5 439.9 515.7 438.2L428.4 398.5C425 397 421 397.9 418.7 400.8L385.2 442.7C378.2 451.4 366.2 454.2 356.2 449.4C283.7 415 225.7 355.1 193.8 281.2C189.5 271.3 192.4 259.7 200.8 253L239.7 221.9C242.6 219.6 243.6 215.6 242 212.2L202.4 124.7C200.7 120.9 196.4 119 192.4 120.3C147.2 135.4 113.3 178.9 121.9 227.3z"/><path fill="currentColor" d="M569.5 105C578.9 95.6 578.9 80.4 569.5 71.1C560.1 61.8 544.9 61.7 535.6 71.1L432.6 174.1L432.6 120C432.6 106.7 421.9 96 408.6 96C395.3 96 384.6 106.7 384.6 120L384.6 232C384.6 245.3 395.3 256 408.6 256L520.6 256C533.9 256 544.6 245.3 544.6 232C544.6 218.7 533.9 208 520.6 208L466.5 208L569.5 105zM246.1 104.9C234.2 78.7 204.5 65.8 177.2 74.9C114.9 95.7 61 158.6 74.6 235.8C105.2 409.5 231.1 535.4 404.8 566C482 579.6 544.9 525.6 565.7 463.4C574.8 436.1 561.8 406.4 535.7 394.5L448.4 354.8C425 344.2 397.4 350.8 381.3 370.8L360 397.3C311.1 370 271.1 328.5 245.6 278.5L269.8 259.2C289.9 243.1 296.5 215.5 285.8 192.1L246.1 104.9zM192.4 120.4C196.4 119.1 200.7 121 202.4 124.8L242.1 212C243.6 215.4 242.7 219.4 239.8 221.7L200.9 252.8C192.5 259.6 189.6 271.1 193.9 281C225.8 354.9 283.8 414.8 356.3 449.2C366.4 454 378.4 451.2 385.3 442.5L418.8 400.6C421.1 397.7 425.1 396.7 428.5 398.3L515.8 438C519.6 439.7 521.5 444 520.2 448C505.1 493.3 461.6 527.1 413.2 518.5C259.4 491.4 149.1 381.1 122 227.2C113.5 178.8 147.3 135.3 192.5 120.2z"/></svg>