<svg xmlns="http://www.w3.org/2000/svg" viewBox="0 0 640 640"><!--! Font Awesome Pro 7.2.0 by @fontawesome - https://fontawesome.com License - https://fontawesome.com/license (Commercial License) Copyright 2026 Fonticons, Inc. --><path opacity=".4" fill="currentColor" d="M129.5 479.1L192.8 417.2C198.1 412 200.7 404.7 199.9 397.4L187.4 285.3L316.7 414.2C312.4 424.8 309.2 435.8 307.1 447.3L242.7 440.2C236.4 439.5 230.2 441.3 225.3 445.1L223.3 446.9L159.3 509.5C152 516.6 140.9 517.5 132.7 512L129.4 509.3C121 500.9 121.1 487.4 129.6 479.1zM210 240L323.7 126.2C339.3 110.6 364.6 110.6 380.3 126.2L515.5 261.4C528.4 274.3 530.6 293.8 522.2 309.1C508.7 305.8 494.6 304 480 304C423.9 304 373.9 330.3 341.5 371.3C297.7 327.4 253.8 283.7 209.9 239.9z"/><path fill="currentColor" d="M480 608C409.3 608 352 550.7 352 480C352 409.3 409.3 352 480 352C550.7 352 608 409.3 608 480C608 550.7 550.7 608 480 608zM480 532C469 532 460 541 460 552C460 563 469 572 480 572C491 572 500 563 500 552C500 541 491 532 480 532zM289.8 92.3C324.2 58 379.9 57.9 414.2 92.3L549.5 227.5C576.4 254.4 582.1 294.4 566.9 326.9C553.1 319 538.1 313 522.2 309.1C530.6 293.9 528.4 274.4 515.5 261.4L380.3 126.2C364.7 110.6 339.4 110.6 323.7 126.2L210 240L341.6 371.2C331.4 384.2 323 398.6 316.7 414.2L187.4 285.3L199.9 397.3C200.7 404.6 198.1 411.9 192.8 417.1L129.5 479.1C121 487.4 121 501 129.3 509.3L132.6 512C140.8 517.4 151.9 516.6 159.2 509.5L223.2 446.9L225.2 445.1C230.1 441.3 236.4 439.5 242.6 440.2L307 447.3C305 457.9 303.9 468.8 303.9 480C303.9 485.2 304.2 490.3 304.6 495.3L248.6 489.1L192.7 543.8C167.4 568.6 127.6 570 100.6 548L95.4 543.3C68.2 516 68.4 471.8 95.9 444.8L150.8 391L139.5 289.2C136.6 262.6 145.9 236.2 164.7 217.3L289.7 92.3zM408 460C397 460 388 469 388 480C388 491 397 500 408 500C419 500 428 491 428 480C428 469 419 460 408 460zM480 460C469 460 460 469 460 480C460 491 469 500 480 500C491 500 500 491 500 480C500 469 491 460 480 460zM552 460C541 460 532 469 532 480C532 491 541 500 552 500C563 500 572 491 572 480C572 469 563 460 552 460zM480 388C469 388 460 397 460 408C460 419 469 428 480 428C491 428 500 419 500 408C500 397 491 388 480 388z"/></svg>