<svg xmlns="http://www.w3.org/2000/svg" viewBox="0 0 640 640"><!--! Font Awesome Pro 7.2.0 by @fontawesome - https://fontawesome.com License - https://fontawesome.com/license (Commercial License) Copyright 2026 Fonticons, Inc. --><path opacity=".4" fill="currentColor" d="M80 320C80 326.9 84.9 332.7 91.7 333.9L179.6 349.4C189.2 351.1 199 352 208.8 352L528 352C545.7 352 560 337.7 560 320C560 302.3 545.7 288 528 288L208.8 288C199 288 189.2 288.9 179.6 290.6L91.7 306.1C85 307.3 80 313.1 80 320zM282.8 240L333 240L314.9 104L300.9 104L282.8 240zM282.8 400L300.9 536L314.9 536L333 400L282.8 400z"/><path fill="currentColor" d="M608 320C608 275.8 572.2 240 528 240L381.5 240L371.9 168L400 168L400 192C400 200.8 407.2 208 416 208C424.8 208 432 200.8 432 192L432 166.6C441.3 163.3 448 154.4 448 144C448 133.6 441.3 124.7 432 121.4L432 96C432 87.2 424.8 80 416 80C407.2 80 400 87.2 400 96L400 120L365.5 120L359.7 76.8C358.2 64.9 348 56 336 56L280 56C268 56 257.8 64.9 256.2 76.8L250.5 120L232 120C218.7 120 208 130.7 208 144C208 157.3 218.7 168 232 168L244.1 168L234.5 240L208.9 240C202.1 240 195.3 240.3 188.6 241L166.1 190.3C162.2 181.6 153.7 176 144.2 176L104.2 176C93.4 176 83.9 183.2 81 193.7L60.8 267.7C43.3 278.8 32 298.3 32 320C32 341.7 43.2 361.2 60.6 372.3L80.8 446.3C83.7 456.8 93.2 464 104 464L144 464C153.5 464 162.1 458.4 165.9 449.7L188.5 399C195.3 399.6 202.1 400 208.8 400L234.4 400L244 472L231.9 472C218.6 472 207.9 482.7 207.9 496C207.9 509.3 218.6 520 231.9 520L250.4 520L256.2 563.2C256.4 564.7 256.7 566.1 257.2 567.5C260.4 577.2 269.5 584 280 584L336 584C348 584 358.2 575.1 359.8 563.2L365.6 520L400.1 520L400.1 544C400.1 552.8 407.3 560 416.1 560C424.9 560 432.1 552.8 432.1 544L432.1 518.6C441.4 515.3 448.1 506.4 448.1 496C448.1 485.6 441.4 476.7 432.1 473.4L432.1 448C432.1 439.2 424.9 432 416.1 432C407.3 432 400.1 439.2 400.1 448L400.1 472L372 472L381.6 400L528.1 400C572.3 400 608.1 364.2 608.1 320zM139.5 391.1L128.4 416L122.3 416L114.3 386.7L139.4 391.1zM128.4 224L139.5 248.9L114.4 253.3L122.4 224L128.5 224zM333.1 400L315 536L301 536L282.9 400L333.1 400zM282.9 240L301 104L315 104L333.1 240L282.9 240zM224 288L528 288C545.7 288 560 302.3 560 320C560 337.7 545.7 352 528 352L208.8 352C199 352 189.2 351.1 179.6 349.4L91.7 333.9C85 332.7 80 326.9 80 320C80 313.1 84.9 307.3 91.7 306.1L179.6 290.6C189.2 288.9 199 288 208.8 288L224 288z"/></svg>