<svg xmlns="http://www.w3.org/2000/svg" viewBox="0 0 640 640"><!--! Font Awesome Pro 7.2.0 by @fontawesome - https://fontawesome.com License - https://fontawesome.com/license (Commercial License) Copyright 2026 Fonticons, Inc. --><path opacity=".4" fill="currentColor" d="M196.4 256L443.7 256L421.3 513.4C420.6 521.7 413.7 528 405.4 528L234.8 528C226.5 528 219.6 521.7 218.9 513.4L196.4 256z"/><path fill="currentColor" d="M278.4 136L264 136C241.9 136 224 153.9 224 176L224 208L504 208C517.3 208 528 218.7 528 232C528 245.3 517.3 256 504 256L491.8 256L469.1 517.5C466.2 550.6 438.5 576 405.3 576L234.7 576C201.5 576 173.8 550.6 170.9 517.5L148.2 256L136 256C122.7 256 112 245.3 112 232C112 218.7 122.7 208 136 208L176 208L176 176C176 127.4 215.4 88 264 88L278.4 88C286.7 73.7 302.2 64 320 64L384 64C410.5 64 432 85.5 432 112C432 138.5 410.5 160 384 160L320 160C302.2 160 286.7 150.3 278.4 136zM196.4 256L218.8 513.4C219.5 521.7 226.4 528 234.7 528L405.3 528C413.6 528 420.5 521.7 421.2 513.4L443.6 256L196.3 256z"/></svg>