<svg xmlns="http://www.w3.org/2000/svg" viewBox="0 0 640 640"><!--! Font Awesome Pro 7.2.0 by @fontawesome - https://fontawesome.com License - https://fontawesome.com/license (Commercial License) Copyright 2026 Fonticons, Inc. --><path opacity=".4" fill="currentColor" d="M158.2 163C88.3 266.2 98 414.1 190.9 480.5C193.9 482.5 196.8 484.4 199.7 486.4C288.3 541.7 415 503 484.5 409.8L491.2 400.3C526.1 348.6 515.9 285.4 477.4 258.2C451.5 239.6 403.4 246.5 365.3 292.6C352.3 309.6 328.2 313.6 310.4 300.7C293 288.1 288.7 264.6 299.6 246.6C328.7 193.7 317.9 144.5 291.2 126.1C253.2 99.2 192.9 111.1 158.2 163z"/><path fill="currentColor" d="M118.3 136.2C164.4 67.5 253.8 40.8 318.9 86.9L318.9 86.9C364 118.2 374 178.1 356.7 234C401.8 198.4 460.2 186.8 505.1 218.9L511 223.3C570.2 270.5 575.4 361.2 530.9 427.1L530.9 427.1C451.2 544.8 283.7 606 163 519.5L152 511.2C42.4 422.4 41 250.3 118.3 136.2zM291.2 126.1C253.2 99.2 192.9 111.1 158.2 163L158.1 163.1C88.3 266.2 97.9 414.1 190.8 480.5L190.9 480.5L199.6 486.4C288.2 541.7 414.9 503 484.4 409.8L491.1 400.3C526 348.6 515.8 285.4 477.3 258.2L477.2 258.1C451.4 239.6 403.3 246.5 365.2 292.6C352.2 309.6 328.1 313.6 310.3 300.7C292.9 288.1 288.6 264.6 299.5 246.6C328.6 193.7 317.8 144.5 291.3 126.2L291.1 126z"/></svg>