<svg xmlns="http://www.w3.org/2000/svg" viewBox="0 0 640 640"><!--! Font Awesome Pro 7.2.0 by @fontawesome - https://fontawesome.com License - https://fontawesome.com/license (Commercial License) Copyright 2026 Fonticons, Inc. --><path opacity=".4" fill="currentColor" d="M112 472C112 502.9 137.1 528 168 528L472 528C502.9 528 528 502.9 528 472C528 450.8 516.2 432.3 498.8 422.8C492.3 419.3 487.9 413 486.6 405.7C485.3 398.4 487.6 391 492.5 385.6C499.6 377.8 503.9 367.4 503.9 356C503.9 333.7 487.3 315.3 465.9 312.4C459 311.5 452.9 307.6 449 301.8C445.1 296 444.1 288.8 446 282.1C447.3 277.6 447.9 272.9 447.9 268C447.9 245.7 433.9 226.6 414.1 219.3C405.9 216.3 400.1 209 398.8 200.4C393.2 163.4 368.1 132.8 334.3 119.4C335.4 124.7 335.9 130.1 335.9 135.5L335.9 138.7C335.9 181.4 301.3 216 258.6 216L240.8 216C238.6 216 236.5 216.3 234.5 216.8C234.1 216.9 233.7 217 233.3 217.1C209.7 222 191.9 243 191.9 268C191.9 272.9 192.6 277.7 193.8 282.1C195.7 288.8 194.6 296 190.8 301.8C187 307.6 180.8 311.5 173.9 312.4C152.4 315.3 135.9 333.7 135.9 356C135.9 367.4 140.2 377.8 147.3 385.6C152.3 391 154.4 398.5 153.2 405.7C152 412.9 147.5 419.3 141 422.8C123.7 432.3 112 450.8 112 472z"/><path fill="currentColor" d="M265.8 78.8C269.5 69.8 278.3 64 288 64L296 64C367.6 64 427.6 113.5 443.7 180.1C474.8 197 496 230 496 268C496 269.1 496 270.2 495.9 271.3C528.9 285.3 552 317.9 552 356C552 370.3 548.7 383.8 542.9 395.9C563.2 414.9 576 441.9 576 472C576 529.4 529.4 576 472 576L168 576C110.6 576 64 529.4 64 472C64 441.9 76.8 414.9 97.1 395.9C91.3 383.8 88 370.3 88 356C88 317.9 111.1 285.3 144.1 271.3C144.1 270.2 144 269.1 144 268C144 219.9 177.9 179.8 223.1 170.2C228.8 168.8 234.8 168 240.9 168L258.7 168C274.9 168 288 154.9 288 138.7L288 135.5C288 126.9 284.6 118.6 278.5 112.5L271 105C264.1 98.1 262.1 87.8 265.8 78.8zM334.3 119.3C335.4 124.6 335.9 130 335.9 135.4L335.9 138.6C335.9 181.3 301.3 215.9 258.6 215.9L240.8 215.9C238.6 215.9 236.5 216.2 234.5 216.7C234.1 216.8 233.7 216.9 233.3 217C209.7 221.9 191.9 242.9 191.9 267.9C191.9 272.8 192.6 277.6 193.8 282C195.7 288.7 194.6 295.9 190.8 301.7C187 307.5 180.8 311.4 173.9 312.3C152.4 315.2 135.9 333.6 135.9 355.9C135.9 367.3 140.2 377.7 147.3 385.5C152.3 390.9 154.4 398.4 153.2 405.6C152 412.8 147.5 419.2 141 422.7C123.5 432.2 111.8 450.7 111.8 471.9C111.8 502.8 136.9 527.9 167.8 527.9L471.8 527.9C502.7 527.9 527.8 502.8 527.8 471.9C527.8 450.7 516 432.2 498.6 422.7C492.1 419.2 487.7 412.9 486.4 405.6C485.1 398.3 487.4 390.9 492.3 385.5C499.4 377.7 503.7 367.3 503.7 355.9C503.7 333.6 487.1 315.2 465.7 312.3C458.8 311.4 452.7 307.5 448.8 301.7C444.9 295.9 443.9 288.7 445.8 282C447.1 277.5 447.7 272.8 447.7 267.9C447.7 245.6 433.7 226.5 413.9 219.2C405.7 216.2 399.9 208.9 398.6 200.3C393 163.3 367.9 132.7 334.1 119.3z"/></svg>