<svg xmlns="http://www.w3.org/2000/svg" viewBox="0 0 640 640"><!--! Font Awesome Pro 7.2.0 by @fontawesome - https://fontawesome.com License - https://fontawesome.com/license (Commercial License) Copyright 2026 Fonticons, Inc. --><path opacity=".4" fill="currentColor" d="M180.6 272L202.5 513.4C203.2 521.6 210.2 528 218.4 528L249.5 528L233 272L180.6 272zM281.1 272L297.6 528L342.4 528L358.9 272L281.1 272zM390.5 528L421.6 528C429.9 528 436.8 521.7 437.5 513.4L459.5 272L407.1 272L390.6 528z"/><path fill="currentColor" d="M130.7 224L509.2 224C511 219 511.9 213.6 511.9 208C511.9 181.5 490.4 160 463.9 160C460 160 456.3 160.5 452.7 161.3C454.8 155.9 455.9 150.1 455.9 144C455.9 117.5 434.4 96 407.9 96C395.1 96 383.5 101 374.9 109.2C369.9 83.4 347.2 64 319.9 64C292.6 64 270 83.4 264.9 109.2C256.3 101 244.7 96 231.9 96C205.4 96 183.9 117.5 183.9 144C183.9 150.1 185 155.9 187.1 161.3C183.5 160.4 179.7 160 175.9 160C149.4 160 127.9 181.5 127.9 208C127.9 213.6 128.9 219 130.6 224zM132.3 272L154.7 517.8C157.7 550.8 185.3 576 218.4 576L421.5 576C454.6 576 482.2 550.8 485.2 517.8L507.5 272L459.3 272L437.3 513.4C436.6 521.6 429.6 528 421.4 528L390.3 528L406.8 272L358.7 272L342.2 528L297.4 528L280.9 272L232.8 272L249.3 528L218.2 528C209.9 528 203 521.7 202.3 513.4L180.6 272L132.4 272z"/></svg>