<svg xmlns="http://www.w3.org/2000/svg" viewBox="0 0 640 640"><!--! Font Awesome Pro 7.2.0 by @fontawesome - https://fontawesome.com License - https://fontawesome.com/license (Commercial License) Copyright 2026 Fonticons, Inc. --><path opacity=".4" fill="currentColor" d=""/><path fill="currentColor" d="M375.9 369.5C388.4 365 402.1 371.5 406.6 383.9C427.7 442.5 409.9 513.2 360.1 563.1C358.1 565.1 356 567.1 353.9 569C344.1 578 329 577.3 320 567.5C311 557.7 311.7 542.6 321.4 533.6C323 532.2 324.5 530.6 326.1 529.1C364.5 490.7 375.4 439 361.4 400.1C356.9 387.6 363.4 373.9 375.9 369.4zM292.7 405.7C298.3 393.7 312.6 388.6 324.6 394.2C336.6 399.8 341.7 414.1 336.1 426.1C309.6 482.5 247 519.9 176.5 519.9C173.6 519.9 170.8 519.8 168 519.7C154.8 519.1 144.5 507.9 145.1 494.7C145.7 481.5 156.9 471.2 170.1 471.8C172.2 471.9 174.4 471.9 176.6 471.9C230.9 471.9 275.2 443.1 292.8 405.7zM394.7 315.7C400.3 303.7 414.6 298.6 426.6 304.2C483 330.7 520.4 393.3 520.4 463.8C520.4 466.7 520.3 469.5 520.2 472.3C519.6 485.5 508.4 495.8 495.2 495.2C482 494.6 471.7 483.4 472.3 470.2C472.4 468.1 472.4 465.9 472.4 463.7C472.4 409.4 443.6 365.1 406.2 347.5C394.2 341.9 389.1 327.6 394.7 315.6zM72.8 319.6C82.6 310.7 97.7 311.3 106.7 321.1C108.1 322.7 109.7 324.2 111.2 325.8C149.6 364.2 201.2 375.1 240.1 361.1C252.6 356.6 266.3 363.1 270.8 375.6C275.3 388.1 268.8 401.8 256.4 406.3C197.8 427.4 127.1 409.6 77.2 359.7C75.2 357.7 73.2 355.6 71.3 353.5C62.3 343.7 63 328.6 72.8 319.6zM319.7 352C302 351.8 287.9 337.3 288.1 319.7C288.2 302 302.7 287.8 320.4 288C338.1 288.2 352.2 302.7 352.1 320.4C351.9 338 337.4 352.2 319.7 352zM145.5 144.7C158.7 145.3 169 156.5 168.4 169.7C168.3 171.8 168.3 174 168.3 176.2C168.3 230.5 197.1 274.8 234.5 292.4C246.5 298 251.6 312.3 246 324.3C240.4 336.3 226.1 341.4 214.1 335.8C157.7 309.3 120.3 246.7 120.3 176.2C120.3 173.3 120.4 170.5 120.5 167.7C121.1 154.5 132.3 144.2 145.5 144.8zM384.3 233.8C442.9 212.7 513.6 230.5 563.5 280.3C565.5 282.3 567.5 284.4 569.4 286.5C578.4 296.3 577.7 311.4 567.9 320.4C558.1 329.4 543 328.7 534 318.9C532.6 317.3 531 315.8 529.5 314.2C491.1 275.8 439.4 264.9 400.5 278.9C388 283.4 374.3 276.9 369.8 264.5C365.3 252.1 371.8 238.3 384.2 233.8zM286.8 71C296.6 62 311.7 62.7 320.7 72.4C329.7 82.2 329 97.3 319.3 106.3C317.7 107.7 316.1 109.3 314.6 110.8C276.2 149.2 265.3 200.8 279.3 239.7C283.8 252.2 277.3 265.9 264.9 270.4C252.4 274.9 238.7 268.4 234.2 256C213.1 197.4 230.9 126.7 280.7 76.8C282.7 74.8 284.8 72.8 286.9 70.9zM472.7 120.2C485.9 120.8 496.2 132 495.6 145.2C495 158.4 483.8 168.7 470.6 168.1C468.5 168 466.3 168 464.1 168C409.8 168 365.5 196.8 347.9 234.2C342.3 246.2 328 251.3 316 245.7C304 240.1 298.9 225.8 304.5 213.8C331 157.4 393.6 120 464.1 120C467 120 469.8 120.1 472.6 120.2z"/></svg>