<svg xmlns="http://www.w3.org/2000/svg" viewBox="0 0 640 640"><!--! Font Awesome Pro 7.2.0 by @fontawesome - https://fontawesome.com License - https://fontawesome.com/license (Commercial License) Copyright 2026 Fonticons, Inc. --><path opacity=".4" fill="currentColor" d="M208 256L208 512C208 520.8 215.2 528 224 528L416 528C424.8 528 432 520.8 432 512L432 256C432 247.2 424.8 240 416 240L224 240C215.2 240 208 247.2 208 256zM256 408C256 375.5 293 327.1 306.9 310.1C310.1 306.2 315 304 320 304C325 304 329.9 306.2 333.1 310.1C346.9 327 384 375.4 384 408C384 443.3 355.3 464 320 464C284.7 464 256 443.3 256 408zM288 112L288 192L352 192L352 112L288 112z"/><path fill="currentColor" d="M288 112L352 112L352 192L288 192L288 112zM240 96L240 192L224 192C188.7 192 160 220.7 160 256L160 512C160 547.3 188.7 576 224 576L416 576C451.3 576 480 547.3 480 512L480 256C480 220.7 451.3 192 416 192L400 192L400 152L456 152C469.3 152 480 141.3 480 128C480 114.7 469.3 104 456 104L400 104L400 96C400 78.3 385.7 64 368 64L272 64C254.3 64 240 78.3 240 96zM352 240L416 240C424.8 240 432 247.2 432 256L432 512C432 520.8 424.8 528 416 528L224 528C215.2 528 208 520.8 208 512L208 256C208 247.2 215.2 240 224 240L352 240zM384 408C384 375.5 347 327.1 333.1 310.1C329.9 306.2 325 304 320 304C315 304 310.1 306.2 306.9 310.1C293.1 327 256 375.4 256 408C256 443.3 284.7 464 320 464C355.3 464 384 443.3 384 408z"/></svg>