<svg xmlns="http://www.w3.org/2000/svg" viewBox="0 0 640 640"><!--! Font Awesome Pro 7.2.0 by @fontawesome - https://fontawesome.com License - https://fontawesome.com/license (Commercial License) Copyright 2026 Fonticons, Inc. --><path opacity=".4" fill="currentColor" d="M112 488C112 501.3 122.7 512 136 512C142.9 512 149.1 509.1 153.5 504.4C152.5 499.1 152 493.6 152 488C152 482.2 152.2 476.4 152.7 470.7C148.4 466.5 142.5 464 136 464C122.7 464 112 474.7 112 488zM200 488C200 510.1 217.9 528 240 528L368 528C376.8 528 384 520.8 384 512C384 503.2 376.8 496 368 496L352 496C342.3 496 333.5 490.2 329.8 481.2C326.1 472.2 328.1 461.9 335 455L362.4 427.6C367.3 422.7 374.1 420.1 381.1 420.6C388.1 421.1 394.4 424.6 398.6 430.1L467.2 521.5C472.5 528.6 482.5 530 489.6 524.7C496.7 519.4 498.1 509.4 492.8 502.3L396.8 374.3C393.7 370.1 392 365.1 392 359.9L392 343.9C392 330.6 402.7 319.9 416 319.9L451.7 319.9C471.7 319.9 488 303.7 488 283.6C488 272.7 483.1 262.4 474.6 255.5L437.7 225.4C423.8 214.1 406.4 207.9 388.4 207.9C385.5 207.9 382.6 208.2 379.9 208.9C373.4 210.5 366.5 209.2 360.9 205.4C355.3 201.6 351.6 195.7 350.6 189C346.6 161.5 333.8 135.5 313.4 115.3L310.3 112.2C310.1 112 309.9 111.9 309.6 111.9C309.1 111.9 308.7 112.3 308.6 112.8L307.9 117.7C301.8 160.7 315.7 204 345.3 235.3C349.5 239.8 351.9 245.7 351.9 251.8L351.9 300.1C351.9 311.4 344 321.2 332.9 323.6C256.9 339.7 199.9 407.2 199.9 487.9zM432 256C432 264.8 424.8 272 416 272C407.2 272 400 264.8 400 256C400 247.2 407.2 240 416 240C424.8 240 432 247.2 432 256z"/><path fill="currentColor" d="M309.7 64C285.3 64 264.6 81.9 261.2 106.1L260.5 111C252.7 165.3 268.9 219.9 304 261.1L304 281.7C237.2 302.4 184.2 354.7 162.6 421.1C154.4 417.8 145.4 416 136 416C96.2 416 64 448.2 64 488C64 527.8 96.2 560 136 560C150.7 560 164.3 555.6 175.7 548.1C191.8 565.3 214.6 576 240 576L368 576C391.9 576 412.7 562.9 423.7 543.6L428.8 550.4C450 578.7 490.1 584.4 518.4 563.2C546.7 542 552.4 501.9 531.2 473.6L452 368C498.4 367.9 536 330.2 536 283.7C536 258.4 524.6 234.4 505 218.4L468 188.3C462.4 183.8 456.5 179.7 450.4 176.3C460.5 151.5 464 124.2 460.2 96.9L459.3 90.9C457.1 75.5 443.9 64.1 428.3 64.1C420.1 64.1 412.1 67.4 406.3 73.2L404.3 75.2C398.5 80.9 393.3 87.1 388.6 93.5C403.3 115 413.7 138.9 419.3 163.9C410.9 161.8 402.3 160.5 393.6 160.2C385.4 130.9 369.8 103.6 347.4 81.4L344.3 78.3L344.3 78.3C335 69.1 322.6 64 309.7 64zM152.7 470.7C152.3 476.4 152 482.1 152 488C152 493.6 152.5 499.1 153.5 504.4C149.1 509.1 142.9 512 136 512C122.7 512 112 501.3 112 488C112 474.7 122.7 464 136 464C142.5 464 148.4 466.6 152.7 470.7zM308.7 112.8C308.8 112.3 309.2 111.9 309.7 111.9C310 111.9 310.2 112 310.4 112.2L313.5 115.3L313.5 115.3C333.9 135.5 346.7 161.5 350.7 189C351.7 195.7 355.4 201.6 361 205.4C366.6 209.2 373.5 210.4 380 208.9C382.7 208.3 385.5 207.9 388.5 207.9C406.4 207.9 423.8 214.1 437.8 225.4L474.7 255.5C483.1 262.4 488.1 272.7 488.1 283.6C488.1 303.6 471.9 319.9 451.8 319.9L416 320C402.7 320 392 330.7 392 344L392 360C392 365.2 393.7 370.2 396.8 374.4L492.8 502.4C498.1 509.5 496.7 519.5 489.6 524.8C482.5 530.1 472.5 528.7 467.2 521.6L398.6 430.2C394.4 424.6 388 421.2 381.1 420.7C374.2 420.2 367.3 422.8 362.4 427.7L335 455C328.1 461.9 326.1 472.2 329.8 481.2C333.5 490.2 342.3 496 352 496L368 496C376.8 496 384 503.2 384 512C384 520.8 376.8 528 368 528L240 528C217.9 528 200 510.1 200 488C200 407.2 257 339.8 333 323.7C344.1 321.3 352 311.6 352 300.2L352 251.9C352 245.8 349.6 239.8 345.4 235.4C315.7 204.1 301.8 160.8 308 117.8L308.7 112.9zM416 272C424.8 272 432 264.8 432 256C432 247.2 424.8 240 416 240C407.2 240 400 247.2 400 256C400 264.8 407.2 272 416 272z"/></svg>