<svg xmlns="http://www.w3.org/2000/svg" viewBox="0 0 640 640"><!--! Font Awesome Pro 7.2.0 by @fontawesome - https://fontawesome.com License - https://fontawesome.com/license (Commercial License) Copyright 2026 Fonticons, Inc. --><path opacity=".4" fill="currentColor" d="M80 336C80 327.2 87.2 320 96 320L337 320C297.1 355.2 272 406.7 272 464C272 474.9 272.9 485.6 274.7 496L96 496C87.2 496 80 488.8 80 480L80 336z"/><path fill="currentColor" d="M274.7 496L96 496C87.2 496 80 488.8 80 480L80 336C80 327.2 87.2 320 96 320L337 320C370.8 290.1 415.3 272 464 272L96 272C60.7 272 32 300.7 32 336L32 480C32 515.3 60.7 544 96 544L289.4 544C282.5 528.9 277.5 512.8 274.6 496zM496 192C496 178.7 485.3 168 472 168L104 168C90.7 168 80 178.7 80 192C80 205.3 90.7 216 104 216L472 216C485.3 216 496 205.3 496 192zM448 88C448 74.7 437.3 64 424 64L152 64C138.7 64 128 74.7 128 88C128 101.3 138.7 112 152 112L424 112C437.3 112 448 101.3 448 88zM464 608C543.5 608 608 543.5 608 464C608 384.5 543.5 320 464 320C384.5 320 320 384.5 320 464C320 543.5 384.5 608 464 608zM480 400L480 448L528 448C536.8 448 544 455.2 544 464C544 472.8 536.8 480 528 480L480 480L480 528C480 536.8 472.8 544 464 544C455.2 544 448 536.8 448 528L448 480L400 480C391.2 480 384 472.8 384 464C384 455.2 391.2 448 400 448L448 448L448 400C448 391.2 455.2 384 464 384C472.8 384 480 391.2 480 400z"/></svg>