<svg xmlns="http://www.w3.org/2000/svg" viewBox="0 0 640 640"><!--! Font Awesome Pro 7.2.0 by @fontawesome - https://fontawesome.com License - https://fontawesome.com/license (Commercial License) Copyright 2026 Fonticons, Inc. --><path opacity=".4" fill="currentColor" d="M112 192L112 448C112 456.8 119.2 464 128 464L512 464C520.8 464 528 456.8 528 448L528 192C528 183.2 520.8 176 512 176L128 176C119.2 176 112 183.2 112 192zM160 288C160 252.7 188.7 224 224 224L240 224C275.3 224 304 252.7 304 288L304 392C304 405.3 293.3 416 280 416C266.7 416 256 405.3 256 392L256 368L208 368L208 392C208 405.3 197.3 416 184 416C170.7 416 160 405.3 160 392L160 288zM208 288L208 320L256 320L256 288C256 279.2 248.8 272 240 272L224 272C215.2 272 208 279.2 208 288zM328 340C328 298 362 264 404 264C413.9 264 423.3 265.9 432 269.3L432 248C432 234.7 442.7 224 456 224C469.3 224 480 234.7 480 248L480 392C480 405.3 469.3 416 456 416C448.9 416 442.5 412.9 438.1 408C427.9 413.1 416.3 416 404 416C362 416 328 382 328 340zM376 340C376 355.5 388.5 368 404 368C419.5 368 432 355.5 432 340C432 324.5 419.5 312 404 312C388.5 312 376 324.5 376 340z"/><path fill="currentColor" d="M128 176C119.2 176 112 183.2 112 192L112 448C112 456.8 119.2 464 128 464L512 464C520.8 464 528 456.8 528 448L528 192C528 183.2 520.8 176 512 176L128 176zM64 192C64 156.7 92.7 128 128 128L512 128C547.3 128 576 156.7 576 192L576 448C576 483.3 547.3 512 512 512L128 512C92.7 512 64 483.3 64 448L64 192zM208 288L208 320L256 320L256 288C256 279.2 248.8 272 240 272L224 272C215.2 272 208 279.2 208 288zM256 392L256 368L208 368L208 392C208 405.3 197.3 416 184 416C170.7 416 160 405.3 160 392L160 288C160 252.7 188.7 224 224 224L240 224C275.3 224 304 252.7 304 288L304 392C304 405.3 293.3 416 280 416C266.7 416 256 405.3 256 392zM480 248L480 392C480 405.3 469.3 416 456 416C448.9 416 442.5 412.9 438.1 408C427.9 413.1 416.3 416 404 416C362 416 328 382 328 340C328 298 362 264 404 264C413.9 264 423.3 265.9 432 269.3L432 248C432 234.7 442.7 224 456 224C469.3 224 480 234.7 480 248zM404 312C388.5 312 376 324.5 376 340C376 355.5 388.5 368 404 368C419.5 368 432 355.5 432 340C432 324.5 419.5 312 404 312z"/></svg>