<svg xmlns="http://www.w3.org/2000/svg" viewBox="0 0 640 640"><!--! Font Awesome Pro 7.2.0 by @fontawesome - https://fontawesome.com License - https://fontawesome.com/license (Commercial License) Copyright 2026 Fonticons, Inc. --><path opacity=".4" fill="currentColor" d=""/><path fill="currentColor" d="M382.6 148C354.9 100 285.6 100 257.9 148L248.6 164.1C242 175.6 227.3 179.5 215.8 172.9C204.3 166.3 200.4 151.6 207 140.1L216.3 124C262.5 44 378 44 424.2 124L480.5 221.5L488.9 190C492.3 177.2 505.5 169.6 518.3 173C531.1 176.4 538.7 189.6 535.3 202.4L511.9 289.8C508.5 302.6 495.3 310.2 482.5 306.8L395 283.5C382.2 280.1 374.6 266.9 378 254.1C381.4 241.3 394.6 233.7 407.4 237.1L438.9 245.5L382.6 148zM520.7 339.1C532.2 332.5 546.9 336.4 553.5 347.9L562.8 364C609 444 551.3 544 458.9 544L346.3 544L369.3 567C378.7 576.4 378.7 591.6 369.3 600.9C359.9 610.2 344.7 610.3 335.4 600.9L271.4 536.9C262 527.5 262 512.3 271.4 503L335.4 439C344.8 429.6 360 429.6 369.3 439C378.6 448.4 378.7 463.6 369.3 472.9L346.3 495.9L458.9 495.9C514.3 495.9 549 435.9 521.3 387.9L512 371.8C505.4 360.3 509.3 345.6 520.8 339zM184.1 321.9L175.7 290.4L119.4 387.9C91.7 435.9 126.3 495.9 181.8 495.9L200.4 495.9C213.7 495.9 224.4 506.6 224.4 519.9C224.4 533.2 213.7 543.9 200.4 543.9L181.8 543.9C89.3 544 31.6 444 77.8 364L134.1 266.5L102.6 274.9C89.8 278.3 76.6 270.7 73.2 257.9C69.8 245.1 77.4 231.9 90.2 228.5L177.6 205.1C190.4 201.7 203.6 209.3 207 222.1L230.4 309.5C233.8 322.3 226.2 335.5 213.4 338.9C200.6 342.3 187.4 334.7 184 321.9z"/></svg>