<svg xmlns="http://www.w3.org/2000/svg" viewBox="0 0 640 640"><!--! Font Awesome Pro 7.2.0 by @fontawesome - https://fontawesome.com License - https://fontawesome.com/license (Commercial License) Copyright 2026 Fonticons, Inc. --><path opacity=".4" fill="currentColor" d="M160 160L160 224C160 237.3 170.7 248 184 248L456 248C469.3 248 480 237.3 480 224L480 160L432 160L432 112L208 112L208 160L160 160zM160 224L160 320C160 306.7 170.7 296 184 296L480 296L480 224C480 210.7 469.3 200 456 200L184 200C170.7 200 160 210.7 160 224zM160 320L160 416C160 429.3 170.7 440 184 440L456 440C469.3 440 480 429.3 480 416L480 344L184 344C170.7 344 160 333.3 160 320zM160 416L160 480L208 480L208 528L432 528L432 480L480 480L480 416C480 402.7 469.3 392 456 392L184 392C170.7 392 160 402.7 160 416z"/><path fill="currentColor" d="M128 88C128 74.7 138.7 64 152 64L488 64C501.3 64 512 74.7 512 88C512 101.3 501.3 112 488 112L480 112L480 160L432 160L432 112L208 112L208 160L160 160L160 112L152 112C138.7 112 128 101.3 128 88zM128 552C128 538.7 138.7 528 152 528L160 528L160 480L208 480L208 528L432 528L432 480L480 480L480 528L488 528C501.3 528 512 538.7 512 552C512 565.3 501.3 576 488 576L152 576C138.7 576 128 565.3 128 552zM184 200L456 200C469.3 200 480 210.7 480 224C480 237.3 469.3 248 456 248L184 248C170.7 248 160 237.3 160 224C160 210.7 170.7 200 184 200zM184 296L520 296C533.3 296 544 306.7 544 320C544 333.3 533.3 344 520 344L184 344C170.7 344 160 333.3 160 320C160 306.7 170.7 296 184 296zM160 416C160 402.7 170.7 392 184 392L456 392C469.3 392 480 402.7 480 416C480 429.3 469.3 440 456 440L184 440C170.7 440 160 429.3 160 416z"/></svg>