<svg xmlns="http://www.w3.org/2000/svg" viewBox="0 0 640 640"><!--! Font Awesome Pro 7.2.0 by @fontawesome - https://fontawesome.com License - https://fontawesome.com/license (Commercial License) Copyright 2026 Fonticons, Inc. --><path opacity=".4" fill="currentColor" d="M86.6 384L208 262.6L208 320C208 326.4 210.5 332.5 215 337C219.5 341.5 225.6 344 232 344L320 344L320 448C320 434.7 309.3 424 296 424L232 424C218.7 424 208 434.7 208 448L208 505.4L86.6 384zM320 192C320 205.3 330.7 216 344 216L408 216C421.3 216 432 205.3 432 192L432 134.6L553.4 256L432 377.4L432 320C432 313.6 429.5 307.5 425 303C420.5 298.5 414.4 296 408 296L320 296L320 192z"/><path fill="currentColor" d="M432 134.6L432 192C432 205.3 421.3 216 408 216L344 216C330.7 216 320 205.3 320 192C320 178.7 330.7 168 344 168L384 168L384 96C384 83.1 391.8 71.4 403.8 66.4L403.8 66.4C415.8 61.4 429.5 64.2 438.7 73.3L598.7 233.3C611.2 245.8 611.2 266.1 598.7 278.6L438.7 438.6C429.5 447.8 415.8 450.5 403.8 445.5C391.8 440.5 384 428.9 384 416L384 344L232 344C225.6 344 219.5 341.5 215 337C210.5 332.5 208 326.4 208 320L208 262.6L86.6 384L208 505.4L208 448C208 434.7 218.7 424 232 424L296 424C309.3 424 320 434.7 320 448C320 461.3 309.3 472 296 472L256 472L256 544C256 556.9 248.2 568.6 236.2 573.6L236.2 573.6C224.2 578.6 210.5 575.8 201.3 566.7L41.3 406.7C28.8 394.2 28.8 373.9 41.3 361.4L201.3 201.4C210.5 192.2 224.2 189.5 236.2 194.5C248.2 199.5 256 211.1 256 224L256 296L408 296C414.4 296 420.5 298.5 425 303C429.5 307.5 432 313.6 432 320L432 377.4L553.4 256L432 134.6zM404.7 404.7L404.7 404.7zM235.3 532.7L235.3 532.7C235.3 532.7 235.3 532.7 235.3 532.7zM75.3 372.7C75.3 372.7 75.3 372.7 75.3 372.7L75.3 372.7L75.3 372.7z"/></svg>