<svg xmlns="http://www.w3.org/2000/svg" viewBox="0 0 640 640"><!--! Font Awesome Pro 7.2.0 by @fontawesome - https://fontawesome.com License - https://fontawesome.com/license (Commercial License) Copyright 2026 Fonticons, Inc. --><path opacity=".4" fill="currentColor" d="M112 288L112 352L280 352C293.3 352 304 362.7 304 376L304 406.1L390.1 320L304 233.9L304 264C304 277.3 293.3 288 280 288C220 288 164 288 112 288z"/><path fill="currentColor" d="M512 480C512 462.3 526.3 448 544 448C561.7 448 576 462.3 576 480C576 497.7 561.7 512 544 512C526.3 512 512 497.7 512 480zM512 373.3C512 355.6 526.3 341.3 544 341.3C561.7 341.3 576 355.6 576 373.3C576 391 561.7 405.3 544 405.3C526.3 405.3 512 391 512 373.3zM544 234.6C561.7 234.6 576 248.9 576 266.6C576 284.3 561.7 298.6 544 298.6C526.3 298.6 512 284.3 512 266.6C512 248.9 526.3 234.6 544 234.6zM512 160C512 142.3 526.3 128 544 128C561.7 128 576 142.3 576 160C576 177.7 561.7 192 544 192C526.3 192 512 177.7 512 160zM441 303C445.5 307.5 448 313.6 448 320C448 326.4 445.5 332.5 441 337L297 481C290.1 487.9 279.8 489.9 270.8 486.2C261.8 482.5 256 473.7 256 464L256 400L112 400C85.5 400 64 378.5 64 352L64 288C64 261.5 85.5 240 112 240L192 240L192 240L256 240L256 176C256 166.3 261.8 157.5 270.8 153.8C279.8 150.1 290.1 152.2 297 159L441 303zM192 288L192 288L112 288L112 352L280 352C293.3 352 304 362.7 304 376L304 406.1L390.1 320L304 233.9L304 264C304 277.3 293.3 288 280 288L192 288z"/></svg>