<svg xmlns="http://www.w3.org/2000/svg" viewBox="0 0 640 640"><!--! Font Awesome Pro 7.2.0 by @fontawesome - https://fontawesome.com License - https://fontawesome.com/license (Commercial License) Copyright 2026 Fonticons, Inc. --><path opacity=".4" fill="currentColor" d=""/><path fill="currentColor" d="M188.1 106.8C180.8 95.7 166 92.6 154.9 99.9C143.8 107.2 140.7 122.1 147.9 133.1L280.8 336L216 336C202.7 336 192 346.7 192 360C192 373.3 202.7 384 216 384L296 384L296 416L216 416C202.7 416 192 426.7 192 440C192 453.3 202.7 464 216 464L296 464L296 520C296 533.3 306.7 544 320 544C333.3 544 344 533.3 344 520L344 464L424 464C437.3 464 448 453.3 448 440C448 426.7 437.3 416 424 416L344 416L344 384L424 384C437.3 384 448 373.3 448 360C448 346.7 437.3 336 424 336L359.2 336L492.1 133.2C499.4 122.1 496.3 107.2 485.2 100C474.1 92.8 459.2 95.8 452 106.9L320 308.2L188.1 106.8z"/></svg>