<svg xmlns="http://www.w3.org/2000/svg" viewBox="0 0 640 640"><!--! Font Awesome Pro 7.2.0 by @fontawesome - https://fontawesome.com License - https://fontawesome.com/license (Commercial License) Copyright 2026 Fonticons, Inc. --><path opacity=".4" fill="currentColor" d="M112.5 473.7C112.5 471.7 112.8 469.6 113.3 467.6L201.5 155.6C203.4 148.7 209.7 144 216.9 144L296.6 144L296.6 184C296.6 197.3 307.3 208 320.6 208C333.9 208 344.6 197.3 344.6 184L344.6 144L424.1 144C431.3 144 437.5 148.8 439.5 155.6L472.8 273.4C420.8 279.8 375.2 307 344.7 346.5L344.7 280C344.7 266.7 334 256 320.7 256C307.4 256 296.7 266.7 296.7 280L296.7 360C296.7 373.3 307.4 384 320.7 384C321.1 384 321.6 384 322 384C310.8 408.4 304.6 435.5 304.6 464C304.6 474.9 305.5 485.6 307.3 496L134.9 496C122.6 496 112.6 486 112.6 473.7z"/><path fill="currentColor" d="M201.5 155.6L113.3 467.6C112.7 469.6 112.5 471.6 112.5 473.7C112.5 486 122.5 496 134.8 496L307.2 496C310 512.8 315 528.9 322 544L134.9 544C96.1 544 64.6 512.5 64.6 473.7C64.6 467.2 65.5 460.8 67.2 454.6L155.4 142.6C163.1 115 188.3 96 216.9 96L424.1 96C452.7 96 477.9 115 485.7 142.6L522.8 273.8C514.2 272.6 505.5 272 496.5 272C488.5 272 480.6 272.5 472.8 273.5L439.5 155.6C437.6 148.7 431.3 144 424.1 144L344.6 144L344.6 184C344.6 197.3 333.9 208 320.6 208C307.3 208 296.6 197.3 296.6 184L296.6 144L216.9 144C209.7 144 203.5 148.8 201.5 155.6zM321.9 384C321.5 384 321 384 320.6 384C307.3 384 296.6 373.3 296.6 360L296.6 280C296.6 266.7 307.3 256 320.6 256C333.9 256 344.6 266.7 344.6 280L344.6 346.5C335.7 358 328 370.6 321.9 384zM496.5 320C576 320 640.5 384.5 640.5 464C640.5 543.5 576 608 496.5 608C417 608 352.5 543.5 352.5 464C352.5 384.5 417 320 496.5 320zM555.8 427.3C562 421.1 562 410.9 555.8 404.7C549.6 398.5 539.4 398.5 533.2 404.7L496.5 441.4L459.8 404.7C453.6 398.5 443.4 398.5 437.2 404.7C431 410.9 431 421.1 437.2 427.3L473.9 464L437.2 500.7C431 506.9 431 517.1 437.2 523.3C443.4 529.5 453.6 529.5 459.8 523.3L496.5 486.6L533.2 523.3C539.4 529.5 549.6 529.5 555.8 523.3C562 517.1 562 506.9 555.8 500.7L519.1 464L555.8 427.3z"/></svg>