<svg xmlns="http://www.w3.org/2000/svg" viewBox="0 0 640 640"><!--! Font Awesome Pro 7.2.0 by @fontawesome - https://fontawesome.com License - https://fontawesome.com/license (Commercial License) Copyright 2026 Fonticons, Inc. --><path opacity=".4" fill="currentColor" d="M166 430.2L184.9 499.5L229.8 454.6C233.1 451.3 236.6 448.2 240.1 445.3C228.4 424.5 218.7 404.5 210.9 385.3L165.9 430.3zM240.8 197.2C223.7 248.7 225.5 321.6 282.6 422.7C307.2 415.1 333.6 415.1 358.1 422.7C415.2 321.5 417 248.7 399.9 197.2C384.1 149.6 350.9 116 320.3 93.3C289.7 116 256.5 149.6 240.7 197.2zM360.4 224C360.4 246.1 342.5 264 320.4 264C298.3 264 280.4 246.1 280.4 224C280.4 201.9 298.3 184 320.4 184C342.5 184 360.4 201.9 360.4 224zM400.6 445.3C404.2 448.2 407.6 451.3 410.9 454.6L455.8 499.5L474.7 430.2L429.7 385.2C421.8 404.4 412.2 424.4 400.5 445.2z"/><path fill="currentColor" d="M307.1 44C315.2 38.6 325.7 38.6 333.7 44C371.3 69.1 422.6 112.8 445.6 182.2C459.7 224.9 462.5 275.4 447 334.6L508.8 396.4C521 408.6 525.7 426.4 521.2 443L495 538.9C488.5 562.6 458.9 570.5 441.5 553.1L377.1 488.7C345.9 457.5 295.2 457.5 264 488.7L199.4 553C182 570.4 152.4 562.5 145.9 538.8L119.7 442.9C115.2 426.3 119.9 408.5 132.1 396.3L193.9 334.5C178.3 275.4 181.1 224.9 195.2 182.2C218.2 112.8 269.4 69.1 307.1 44zM400.6 445.3C404.2 448.2 407.6 451.3 410.9 454.6L455.8 499.5L474.7 430.2L429.7 385.2C421.8 404.4 412.2 424.4 400.5 445.2zM400 197.3C384.2 149.7 351 116.1 320.4 93.4C289.8 116.1 256.6 149.7 240.8 197.3C223.7 248.8 225.5 321.7 282.6 422.8C307.2 415.2 333.6 415.2 358.1 422.8C415.2 321.6 417 248.8 399.9 197.3zM211 385.3L166 430.3L184.9 499.6L229.8 454.7C233.1 451.4 236.6 448.3 240.1 445.4C228.4 424.6 218.7 404.6 210.9 385.4zM320.4 184C342.5 184 360.4 201.9 360.4 224C360.4 246.1 342.5 264 320.4 264C298.3 264 280.4 246.1 280.4 224C280.4 201.9 298.3 184 320.4 184z"/></svg>