<svg xmlns="http://www.w3.org/2000/svg" viewBox="0 0 640 640"><!--! Font Awesome Pro 7.2.0 by @fontawesome - https://fontawesome.com License - https://fontawesome.com/license (Commercial License) Copyright 2026 Fonticons, Inc. --><path opacity=".4" fill="currentColor" d="M176.6 515.3C175.4 521.8 180.6 528 187.2 528L453.6 528C460.2 528 465.4 521.8 464.2 515.3L418 256L222.9 256L176.6 515.3z"/><path fill="currentColor" d="M187.3 576L453.7 576C489.8 576 517.9 542.1 511.6 506.9L452.2 174.3C440.8 110.5 385.3 64 320.5 64C255.7 64 200.2 110.5 188.8 174.3L129.4 506.9C123.1 542.1 151.2 576 187.3 576zM453.7 528L187.3 528C180.7 528 175.5 521.8 176.7 515.3L222.9 256L418 256L464.3 515.3C465.5 521.8 460.3 528 453.7 528zM320.5 112C329.3 112 336.5 119.2 336.5 128C336.5 136.8 329.3 144 320.5 144C311.7 144 304.5 136.8 304.5 128C304.5 119.2 311.7 112 320.5 112zM256.5 160C256.5 151.2 263.7 144 272.5 144C281.3 144 288.5 151.2 288.5 160C288.5 168.8 281.3 176 272.5 176C263.7 176 256.5 168.8 256.5 160zM368.5 144C377.3 144 384.5 151.2 384.5 160C384.5 168.8 377.3 176 368.5 176C359.7 176 352.5 168.8 352.5 160C352.5 151.2 359.7 144 368.5 144z"/></svg>