<svg xmlns="http://www.w3.org/2000/svg" viewBox="0 0 640 640"><!--! Font Awesome Pro 7.2.0 by @fontawesome - https://fontawesome.com License - https://fontawesome.com/license (Commercial License) Copyright 2026 Fonticons, Inc. --><path opacity=".4" fill="currentColor" d="M131.1 327.1L312.9 509C317.5 494.9 320 479.8 320 464C320 384.5 255.5 320 176 320C160.3 320 145.2 322.5 131 327.1zM280.1 302.5C303.1 317.3 322.6 336.9 337.5 359.9L505.5 191.9L448.1 134.5L280.1 302.5z"/><path fill="currentColor" d="M263.1 71C272.5 61.6 287.7 61.6 297 71L370.4 144.4L425.4 89.4C437.9 76.9 458.2 76.9 470.7 89.4L550.7 169.4C563.2 181.9 563.2 202.2 550.7 214.7L495.7 269.7L569.1 343.1C578.5 352.5 578.5 367.7 569.1 377L473.1 473C463.7 482.4 448.5 482.4 439.2 473L365.8 399.6L359.3 406.1C365.1 424.4 368.2 443.8 368.2 464C368.2 504.6 355.6 542.3 334 573.4C328.6 581.1 317.7 581.6 311 574.9L205 469L153 521C143.6 530.4 128.4 530.4 119.1 521C109.8 511.6 109.7 496.4 119.1 487.1L171.1 435.1L65.2 329.2C58.6 322.6 59 311.6 66.7 306.2C97.7 284.7 135.4 272 176.1 272C196.3 272 215.7 275.1 234 280.9L240.5 274.4L167.1 201C157.7 191.6 157.7 176.4 167.1 167.1L263.1 71.1zM399.6 365.7L456 422.1L518.1 360L461.7 303.6L399.6 365.7zM274.4 240.4L336.5 178.3L280.1 121.9L218 184L274.4 240.4zM337.4 360L505.4 192L448 134.6L280 302.6C303 317.4 322.5 337 337.4 360zM320 464C320 384.5 255.5 320 176 320C160.3 320 145.2 322.5 131 327.1L312.9 509C317.5 494.9 320 479.8 320 464z"/></svg>