<svg xmlns="http://www.w3.org/2000/svg" viewBox="0 0 640 640"><!--! Font Awesome Pro 7.2.0 by @fontawesome - https://fontawesome.com License - https://fontawesome.com/license (Commercial License) Copyright 2026 Fonticons, Inc. --><path opacity=".4" fill="currentColor" d=""/><path fill="currentColor" d="M540.6 80.7C544.6 93.3 537.7 106.8 525.1 110.9L397.3 151.7C394.2 184.1 371.8 210.9 341.7 220.3L341.7 528L517.7 528C531 528 541.7 538.7 541.7 552C541.7 565.3 531 576 517.7 576L317.7 576C304.4 576 293.7 565.3 293.7 552L293.7 220.3C279.5 215.8 266.9 207.5 257.3 196.5L125 238.9C112.4 242.9 98.9 236 94.8 223.4C90.7 210.8 97.7 197.3 110.3 193.2L238.1 152.3C237.8 149.6 237.7 146.8 237.7 144C237.7 99.8 273.5 64 317.7 64C347.5 64 373.5 80.3 387.3 104.5L510.4 65.1C523 61.1 536.5 68 540.6 80.6zM509.7 227.8L437.3 352L582.2 352L509.8 227.8zM383.7 369.1C381.1 358.1 384.7 346.8 390.4 337L485.6 173.8C490.6 165.2 499.8 160 509.7 160C519.6 160 528.8 165.3 533.8 173.8L629 337.1C634.7 346.9 638.3 358.2 635.7 369.2C624.9 414 572.6 448.1 509.7 448.1C446.8 448.1 394.5 414.1 383.7 369.2zM54.4 480L199.3 480L126.9 355.8L54.5 480zM126.8 576C63.9 576 11.6 542 .8 497.1C-1.8 486.1 1.8 474.8 7.5 465L102.7 301.8C107.7 293.2 116.9 288 126.8 288C136.7 288 145.9 293.3 150.9 301.8L246.1 465C251.8 474.8 255.4 486.1 252.8 497.1C242 541.9 189.7 576 126.8 576zM317.7 176C335.4 176 349.7 161.7 349.7 144C349.7 126.3 335.4 112 317.7 112C300 112 285.7 126.3 285.7 144C285.7 161.7 300 176 317.7 176z"/></svg>