<svg xmlns="http://www.w3.org/2000/svg" viewBox="0 0 640 640"><!--! Font Awesome Pro 7.2.0 by @fontawesome - https://fontawesome.com License - https://fontawesome.com/license (Commercial License) Copyright 2026 Fonticons, Inc. --><path opacity=".4" fill="currentColor" d="M80 208C80 243.3 108.7 272 144 272L326.4 272L344.7 144L144 144C108.7 144 80 172.7 80 208zM192 320L192 496L246.4 496L271.5 320L192 320z"/><path fill="currentColor" d="M278.4 272L326.4 272L344.7 144L144 144C108.7 144 80 172.7 80 208C80 243.3 108.7 272 144 272L278.4 272zM271.5 320L192 320L192 496L246.4 496L271.5 320zM144 320C82.1 320 32 269.9 32 208C32 146.1 82.1 96 144 96L344.7 96C373.9 96 396.3 121.9 392.2 150.8L373.9 278.8C370.5 302.4 350.3 320 326.4 320L320 320L293.9 502.8C290.5 526.4 270.3 544 246.4 544L192 544C165.5 544 144 522.5 144 496L144 320zM472 96L584 96C597.3 96 608 106.7 608 120C608 133.3 597.3 144 584 144L472 144C458.7 144 448 133.3 448 120C448 106.7 458.7 96 472 96zM472 256L584 256C597.3 256 608 266.7 608 280C608 293.3 597.3 304 584 304L472 304C458.7 304 448 293.3 448 280C448 266.7 458.7 256 472 256zM448 520C448 506.7 458.7 496 472 496L584 496C597.3 496 608 506.7 608 520C608 533.3 597.3 544 584 544L472 544C458.7 544 448 533.3 448 520zM464 192L592 192C600.8 192 608 199.2 608 208C608 216.8 600.8 224 592 224L464 224C455.2 224 448 216.8 448 208C448 199.2 455.2 192 464 192zM448 368C448 359.2 455.2 352 464 352L592 352C600.8 352 608 359.2 608 368C608 376.8 600.8 384 592 384L464 384C455.2 384 448 376.8 448 368zM464 416L592 416C600.8 416 608 423.2 608 432C608 440.8 600.8 448 592 448L464 448C455.2 448 448 440.8 448 432C448 423.2 455.2 416 464 416z"/></svg>