<svg xmlns="http://www.w3.org/2000/svg" viewBox="0 0 640 640"><!--! Font Awesome Pro 7.2.0 by @fontawesome - https://fontawesome.com License - https://fontawesome.com/license (Commercial License) Copyright 2026 Fonticons, Inc. --><path opacity=".4" fill="currentColor" d="M48 288C48 249.7 55.9 217.3 66.4 196.3C74.2 180.6 80.2 176.8 81.7 176L320 176C222.8 176 144 254.8 144 352C144 368.6 146.3 384.7 150.6 400L81.6 400C80.1 399.2 74.1 395.4 66.3 379.7C55.8 358.7 47.9 326.4 47.9 288zM320 176L558.3 176C559.8 176.8 565.8 180.6 573.6 196.3C584.1 217.3 592 249.6 592 288C592 326.4 584.1 358.7 573.6 379.7C565.8 395.4 559.8 399.2 558.3 400L489.3 400C493.6 384.7 495.9 368.6 495.9 352C495.9 254.8 417.1 176 319.9 176z"/><path fill="currentColor" d="M81.7 400C80.2 399.2 74.2 395.4 66.4 379.7C55.9 358.7 48 326.4 48 288C48 249.6 55.9 217.3 66.4 196.3C74.2 180.6 80.2 176.8 81.7 176L558.4 176C559.9 176.8 565.9 180.6 573.7 196.3C584.2 217.3 592.1 249.6 592.1 288C592.1 326.4 584.2 358.7 573.7 379.7C565.9 395.4 559.9 399.2 558.4 400L489.4 400C484.5 417.2 477.1 433.4 467.6 448L560.1 448C604.3 448 640.1 376.4 640.1 288C640.1 199.6 604.2 128 560 128L80 128C35.8 128 0 199.6 0 288C0 376.4 35.8 448 80 448L172.5 448C163 433.4 155.5 417.2 150.7 400L81.7 400zM448 352C448 281.3 390.7 224 320 224C249.3 224 192 281.3 192 352C192 384.6 204.2 414.3 224.2 436.9C224.1 437.9 224 439 224 440L224 556.2C224 567.1 232.9 576 243.8 576C246.6 576 249.3 575.4 251.8 574.3L320 544L388.2 574.3C390.7 575.4 393.5 576 396.2 576C407.1 576 416 567.1 416 556.2L416 440C416 438.9 415.9 437.9 415.8 436.9C435.8 414.3 448 384.6 448 352zM320 304C346.5 304 368 325.5 368 352C368 378.5 346.5 400 320 400C293.5 400 272 378.5 272 352C272 325.5 293.5 304 320 304z"/></svg>