<svg xmlns="http://www.w3.org/2000/svg" viewBox="0 0 640 640"><!--! Font Awesome Pro 7.2.0 by @fontawesome - https://fontawesome.com License - https://fontawesome.com/license (Commercial License) Copyright 2026 Fonticons, Inc. --><path opacity=".4" fill="currentColor" d="M176 368L176 416L464 416L464 368L176 368zM240 128L240 320L400 320L400 128C400 119.2 392.8 112 384 112L256 112C247.2 112 240 119.2 240 128z"/><path fill="currentColor" d="M384 112C392.8 112 400 119.2 400 128L400 320L240 320L240 128C240 119.2 247.2 112 256 112L384 112zM192 128L192 320L176 320C149.5 320 128 341.5 128 368L128 416C128 436.9 141.4 454.7 160 461.3L160 552C160 565.3 170.7 576 184 576C197.3 576 208 565.3 208 552L208 464L432 464L432 552C432 565.3 442.7 576 456 576C469.3 576 480 565.3 480 552L480 461.3C498.6 454.7 512 436.9 512 416L512 368C512 341.5 490.5 320 464 320L448 320L448 128C448 92.7 419.3 64 384 64L256 64C220.7 64 192 92.7 192 128zM456 416L176 416L176 368L464 368L464 416L456 416z"/></svg>