<svg xmlns="http://www.w3.org/2000/svg" viewBox="0 0 640 640"><!--! Font Awesome Pro 7.2.0 by @fontawesome - https://fontawesome.com License - https://fontawesome.com/license (Commercial License) Copyright 2026 Fonticons, Inc. --><path opacity=".4" fill="currentColor" d="M80 96L80 192C80 200.8 87.2 208 96 208L192 208C200.8 208 208 200.8 208 192L208 96C208 87.2 200.8 80 192 80L96 80C87.2 80 80 87.2 80 96zM432 448L432 544C432 552.8 439.2 560 448 560L544 560C552.8 560 560 552.8 560 544L560 448C560 439.2 552.8 432 544 432L448 432C439.2 432 432 439.2 432 448z"/><path fill="currentColor" d="M192 80C200.8 80 208 87.2 208 96L208 192C208 200.8 200.8 208 192 208L96 208C87.2 208 80 200.8 80 192L80 96C80 87.2 87.2 80 96 80L192 80zM96 32C60.7 32 32 60.7 32 96L32 192C32 227.3 60.7 256 96 256L192 256C227.3 256 256 227.3 256 192L256 96C256 60.7 227.3 32 192 32L96 32zM544 432C552.8 432 560 439.2 560 448L560 544C560 552.8 552.8 560 544 560L448 560C439.2 560 432 552.8 432 544L432 448C432 439.2 439.2 432 448 432L544 432zM448 384C412.7 384 384 412.7 384 448L384 544C384 579.3 412.7 608 448 608L544 608C579.3 608 608 579.3 608 544L608 448C608 412.7 579.3 384 544 384L448 384zM160 304L160 416C160 451.3 188.7 480 224 480L336 480L336 448C336 386.1 386.1 336 448 336L480 336L480 224C480 188.7 451.3 160 416 160L304 160L304 192C304 253.9 253.9 304 192 304L160 304z"/></svg>