<svg xmlns="http://www.w3.org/2000/svg" viewBox="0 0 640 640"><!--! Font Awesome Pro 7.2.0 by @fontawesome - https://fontawesome.com License - https://fontawesome.com/license (Commercial License) Copyright 2026 Fonticons, Inc. --><path opacity=".4" fill="currentColor" d="M48 160L48 480C48 488.8 55.2 496 64 496L384 496C392.8 496 400 488.8 400 480L400 160C400 151.2 392.8 144 384 144L64 144C55.2 144 48 151.2 48 160zM96 216C96 202.7 106.7 192 120 192C133.3 192 144 202.7 144 216L144 296C144 309.3 133.3 320 120 320C106.7 320 96 309.3 96 296L96 216zM192 216C192 202.7 202.7 192 216 192C229.3 192 240 202.7 240 216L240 296C240 309.3 229.3 320 216 320C202.7 320 192 309.3 192 296L192 216z"/><path fill="currentColor" d="M384 144C392.8 144 400 151.2 400 160L400 480C400 488.8 392.8 496 384 496L64 496C55.2 496 48 488.8 48 480L48 160C48 151.2 55.2 144 64 144L384 144zM64 96C28.7 96 0 124.7 0 160L0 480C0 515.3 28.7 544 64 544L384 544C419.3 544 448 515.3 448 480L448 160C448 124.7 419.3 96 384 96L64 96zM120 192C106.7 192 96 202.7 96 216L96 296C96 309.3 106.7 320 120 320C133.3 320 144 309.3 144 296L144 216C144 202.7 133.3 192 120 192zM216 192C202.7 192 192 202.7 192 216L192 296C192 309.3 202.7 320 216 320C229.3 320 240 309.3 240 296L240 216C240 202.7 229.3 192 216 192zM597.3 172C608.3 164.6 611.3 149.7 604 138.7C596.7 127.7 581.7 124.7 570.7 132L522.7 164C511.7 171.4 508.7 186.3 516 197.3C523.3 208.3 538.3 211.3 549.3 204L597.3 172zM536 296C522.7 296 512 306.7 512 320C512 333.3 522.7 344 536 344L616 344C629.3 344 640 333.3 640 320C640 306.7 629.3 296 616 296L536 296zM549.3 436C538.3 428.6 523.4 431.6 516 442.7C508.6 453.8 511.6 468.6 522.7 476L570.7 508C581.7 515.4 596.6 512.4 604 501.3C611.4 490.2 608.4 475.4 597.3 468L549.3 436z"/></svg>