<svg xmlns="http://www.w3.org/2000/svg" viewBox="0 0 640 640"><!--! Font Awesome Pro 7.2.0 by @fontawesome - https://fontawesome.com License - https://fontawesome.com/license (Commercial License) Copyright 2026 Fonticons, Inc. --><path opacity=".4" fill="currentColor" d="M144 160C144 151.2 151.2 144 160 144L480 144C488.8 144 496 151.2 496 160L496 282.7C479.3 265.9 456.3 256 432 256C400.2 256 370.7 272.8 354.5 300.1C315.7 365.4 277 430.7 238.2 496L160 496C151.2 496 144 488.8 144 480L144 160zM192 216L192 296C192 309.3 202.7 320 216 320C229.3 320 240 309.3 240 296L240 216C240 202.7 229.3 192 216 192C202.7 192 192 202.7 192 216zM288 216L288 296C288 309.3 298.7 320 312 320C325.3 320 336 309.3 336 296L336 216C336 202.7 325.3 192 312 192C298.7 192 288 202.7 288 216z"/><path fill="currentColor" d="M160 144L480 144C488.8 144 496 151.2 496 160L496 282.7C501.1 287.9 505.7 293.7 509.5 300.2L544 358.2L544 160C544 124.7 515.3 96 480 96L160 96C124.7 96 96 124.7 96 160L96 480C96 515.3 124.7 544 160 544L212.1 544C214 538 216.7 532.2 219.9 526.7L238.1 496L159.9 496C151.1 496 143.9 488.8 143.9 480L143.9 160C143.9 151.2 151.1 144 159.9 144zM240 216C240 202.7 229.3 192 216 192C202.7 192 192 202.7 192 216L192 296C192 309.3 202.7 320 216 320C229.3 320 240 309.3 240 296L240 216zM336 216C336 202.7 325.3 192 312 192C298.7 192 288 202.7 288 216L288 296C288 309.3 298.7 320 312 320C325.3 320 336 309.3 336 296L336 216zM261.2 551.3C257.8 557.1 256 563.7 256 570.4C256 591.1 272.8 607.8 293.4 607.8L570.5 607.8C591.2 607.8 607.9 591 607.9 570.4C607.9 563.7 606.1 557.1 602.7 551.3L468.3 324.7C460.7 311.9 446.9 304.1 432 304.1C417.1 304.1 403.3 311.9 395.7 324.7L261.2 551.3zM448 391.2L448 472.1C448 480.9 440.8 488.1 432 488.1C423.2 488.1 416 480.9 416 472.1L416 391.2C416 382.4 423.2 375.2 432 375.2C440.8 375.2 448 382.4 448 391.2zM432 520.1C445.3 520.1 456 530.8 456 544.1C456 557.4 445.3 568.1 432 568.1C418.7 568.1 408 557.4 408 544.1C408 530.8 418.7 520.1 432 520.1z"/></svg>