<svg xmlns="http://www.w3.org/2000/svg" viewBox="0 0 640 640"><!--! Font Awesome Pro 7.2.0 by @fontawesome - https://fontawesome.com License - https://fontawesome.com/license (Commercial License) Copyright 2026 Fonticons, Inc. --><path opacity=".4" fill="currentColor" d="M176 344.7L176 512C176 520.8 183.2 528 192 528L448 528C456.8 528 464 520.8 464 512L464 344.7C464 337.9 459.8 328.8 451.2 317.4C437.9 299.8 423 270.9 412.7 224.3C389.4 248.8 356.5 264.1 320 264.1C283.5 264.1 250.6 248.8 227.3 224.3C217 270.9 202.1 299.7 188.8 317.4C180.2 328.8 176 337.9 176 344.7z"/><path fill="currentColor" d="M240 88C240 74.7 229.3 64 216 64C202.7 64 192 74.7 192 88C192 215.9 165.2 269 150.5 288.5C140.9 301.2 128 321.2 128 344.7L128 512C128 547.3 156.7 576 192 576L448 576C483.3 576 512 547.3 512 512L512 344.7C512 321.2 499.1 301.2 489.5 288.4C474.8 268.9 448 215.8 448 87.9C448 74.6 437.3 63.9 424 63.9C410.7 63.9 400 74.6 400 87.9L400 135.9C400 180.1 364.2 215.9 320 215.9C275.8 215.9 240 180.1 240 135.9L240 87.9zM227.3 224.2C250.6 248.7 283.5 264 320 264C356.5 264 389.4 248.7 412.7 224.2C423 270.9 437.9 299.7 451.2 317.3C459.8 328.7 464 337.8 464 344.6L464 512C464 520.8 456.8 528 448 528L192 528C183.2 528 176 520.8 176 512L176 344.7C176 337.9 180.2 328.8 188.8 317.4C202.1 299.8 217 270.9 227.3 224.3z"/></svg>