<svg xmlns="http://www.w3.org/2000/svg" viewBox="0 0 640 640"><!--! Font Awesome Pro 7.2.0 by @fontawesome - https://fontawesome.com License - https://fontawesome.com/license (Commercial License) Copyright 2026 Fonticons, Inc. --><path opacity=".4" fill="currentColor" d="M272 224L272 288C272 296.8 279.2 304 288 304L352 304C360.8 304 368 296.8 368 288L368 224C368 215.2 360.8 208 352 208L288 208C279.2 208 272 215.2 272 224z"/><path fill="currentColor" d="M280 480C266.7 480 256 469.3 256 456C256 442.7 266.7 432 280 432L296 432C335.8 432 368 399.8 368 360L368 349.9C364.9 350.7 361.8 351.3 358.5 351.6L352 351.9L288 351.9L281.5 351.6C249.2 348.4 224 321.1 224 288L224 224L224.3 217.5C227.4 187.4 251.3 163.4 281.4 160.4L287.9 160.1L351.9 160.1L358.4 160.4C388.5 163.5 412.5 187.4 415.5 217.5L415.8 224L415.8 360C415.8 426.3 362.1 480 295.8 480L279.8 480zM352 304C360.8 304 368 296.8 368 288L368 224C368 215.2 360.8 208 352 208L288 208C279.2 208 272 215.2 272 224L272 288C272 296.8 279.2 304 288 304L352 304z"/></svg>