<svg xmlns="http://www.w3.org/2000/svg" viewBox="0 0 640 640"><!--! Font Awesome Pro 7.2.0 by @fontawesome - https://fontawesome.com License - https://fontawesome.com/license (Commercial License) Copyright 2026 Fonticons, Inc. --><path opacity=".4" fill="currentColor" d="M48 336C48 442 134 528 240 528C346 528 432 442 432 336C432 230 346 144 240 144C134 144 48 230 48 336zM110.6 414.1C102.8 403.4 105.2 388.4 115.9 380.6C126.6 372.8 141.6 375.2 149.4 385.9C169.8 413.9 202.8 432 240 432C277.2 432 310.2 413.9 330.6 385.9C338.4 375.2 353.4 372.8 364.1 380.6C374.8 388.4 377.2 403.4 369.4 414.1C340.3 454 293.2 480 240 480C186.8 480 139.7 454 110.6 414.1zM192 288C192 305.7 177.7 320 160 320C142.3 320 128 305.7 128 288C128 270.3 142.3 256 160 256C177.7 256 192 270.3 192 288zM352 288C352 305.7 337.7 320 320 320C302.3 320 288 305.7 288 288C288 270.3 302.3 256 320 256C337.7 256 352 270.3 352 288z"/><path fill="currentColor" d="M568 24C568 10.7 557.3 0 544 0C530.7 0 520 10.7 520 24L520 72L472 72C458.7 72 448 82.7 448 96C448 109.3 458.7 120 472 120L520 120L520 168C520 181.3 530.7 192 544 192C557.3 192 568 181.3 568 168L568 120L616 120C629.3 120 640 109.3 640 96C640 82.7 629.3 72 616 72L568 72L568 24zM240 144C346 144 432 230 432 336C432 442 346 528 240 528C134 528 48 442 48 336C48 230 134 144 240 144zM240 576C372.5 576 480 468.5 480 336C480 203.5 372.5 96 240 96C107.5 96 0 203.5 0 336C0 468.5 107.5 576 240 576zM149.4 385.9C141.6 375.2 126.6 372.8 115.9 380.6C105.2 388.4 102.8 403.4 110.6 414.1C139.7 454 186.8 480 240 480C293.2 480 340.3 454 369.4 414.1C377.2 403.4 374.8 388.4 364.1 380.6C353.4 372.8 338.4 375.2 330.6 385.9C310.2 413.9 277.2 432 240 432C202.8 432 169.8 413.9 149.4 385.9zM192 288C192 270.3 177.7 256 160 256C142.3 256 128 270.3 128 288C128 305.7 142.3 320 160 320C177.7 320 192 305.7 192 288zM320 320C337.7 320 352 305.7 352 288C352 270.3 337.7 256 320 256C302.3 256 288 270.3 288 288C288 305.7 302.3 320 320 320z"/></svg>