<svg xmlns="http://www.w3.org/2000/svg" viewBox="0 0 640 640"><!--! Font Awesome Pro 7.2.0 by @fontawesome - https://fontawesome.com License - https://fontawesome.com/license (Commercial License) Copyright 2026 Fonticons, Inc. --><path opacity=".4" fill="currentColor" d="M277.1 305.9L299.6 324.6L372.7 261.9L347.6 244.2L277.1 305.9z"/><path fill="currentColor" d="M456.5 80C487.4 80 512.5 105.1 512.5 136C512.5 166.9 487.4 192 456.5 192C425.6 192 400.5 166.9 400.5 136C400.5 105.1 425.6 80 456.5 80zM204.9 114.2C212.5 103.4 227.5 100.8 238.3 108.4L510.3 300.4C521.1 308 523.7 323 516.1 333.8C508.5 344.6 493.5 347.2 482.7 339.6L413.2 290.5L337 355.8L350.6 367.2C367 380.9 376.5 401.1 376.5 422.5L376.5 508.8L462 525.5C468.2 526.7 474.6 526.4 480.7 524.7L521.9 512.9C534.6 509.3 547.9 516.6 551.6 529.4C555.3 542.2 547.9 555.4 535.1 559.1L493.9 570.9C480.5 574.7 466.5 575.3 452.8 572.7L119.1 507.3C101.9 503.9 86.1 495.5 73.8 483.2L47.5 457C38.1 447.6 38.1 432.4 47.5 423.1C56.9 413.8 72.1 413.7 81.4 423.1L107.6 449.3C113.2 454.9 120.4 458.7 128.2 460.3L200.4 474.4L200.4 349.1C200.4 323.7 211.4 299.6 230.5 282.9L307.1 215.8L210.6 147.7C199.8 140 197.2 125 204.9 114.2zM248.5 483.8L328.5 499.5L328.5 422.6C328.5 415.5 325.3 408.7 319.9 404.2L248.8 344.9C248.6 346.3 248.6 347.7 248.6 349.2L248.6 483.9zM372.7 262L347.6 244.3L277.1 306L299.6 324.7L372.7 262z"/></svg>