<svg xmlns="http://www.w3.org/2000/svg" viewBox="0 0 640 640"><!--! Font Awesome Pro 7.2.0 by @fontawesome - https://fontawesome.com License - https://fontawesome.com/license (Commercial License) Copyright 2026 Fonticons, Inc. --><path opacity=".4" fill="currentColor" d="M467.1 195.5C463.1 199.9 457.1 201.7 451.4 200.3C445.6 198.8 441.2 194.4 439.7 188.6C438.3 182.9 440.1 176.9 444.5 172.9C448.5 168.5 454.5 166.7 460.2 168.1C466 169.6 470.4 174 471.9 179.8C473.3 185.5 471.5 191.5 467.1 195.5z"/><path fill="currentColor" d="M320 116C326.6 116 332 121.4 332 128C332 134.6 326.6 140 320 140C313.4 140 308 134.6 308 128C308 121.4 313.4 116 320 116zM268 128C268 156.7 291.3 180 320 180C348.7 180 372 156.7 372 128C372 99.3 348.7 76 320 76C291.3 76 268 99.3 268 128zM288 512C288 529.7 302.3 544 320 544C337.7 544 352 529.7 352 512C352 494.3 337.7 480 320 480C302.3 480 288 494.3 288 512zM544 320C544 302.3 529.7 288 512 288C494.3 288 480 302.3 480 320C480 337.7 494.3 352 512 352C529.7 352 544 337.7 544 320zM128 284C108.1 284 92 300.1 92 320C92 339.9 108.1 356 128 356C147.9 356 164 339.9 164 320C164 300.1 147.9 284 128 284zM467.1 195.5C463.1 199.9 457.1 201.7 451.4 200.3C445.6 198.8 441.2 194.4 439.7 188.6C438.3 182.9 440.1 176.9 444.5 172.9C448.5 168.5 454.5 166.7 460.2 168.1C466 169.6 470.4 174 471.9 179.8C473.3 185.5 471.5 191.5 467.1 195.5zM495.4 144.6C473.5 122.7 438.1 122.7 416.2 144.6C394.3 166.5 394.3 201.9 416.2 223.8C438.1 245.7 473.5 245.7 495.4 223.8C517.3 201.9 517.3 166.5 495.4 144.6zM161.6 433.1C149.1 445.6 149.1 465.9 161.6 478.4C174.1 490.9 194.4 490.9 206.9 478.4C219.4 465.9 219.4 445.6 206.9 433.1C194.4 420.6 174.1 420.6 161.6 433.1zM478.4 478.4C490.9 465.9 490.9 445.6 478.4 433.1C465.9 420.6 445.6 420.6 433.1 433.1C420.6 445.6 420.6 465.9 433.1 478.4C445.6 490.9 465.9 490.9 478.4 478.4zM189.9 189.9C187.9 192.1 184.9 193 182 192.3C179.2 191.6 176.9 189.3 176.2 186.5C175.5 183.6 176.4 180.6 178.6 178.6C180.6 176.4 183.6 175.5 186.5 176.2C189.3 176.9 191.6 179.2 192.3 182C193 184.9 192.1 187.9 189.9 189.9zM218.2 150.3C199.4 131.5 169.1 131.5 150.3 150.3C131.5 169.1 131.5 199.4 150.3 218.2C169.1 237 199.4 237 218.2 218.2C237 199.4 237 169.1 218.2 150.3z"/></svg>