<svg xmlns="http://www.w3.org/2000/svg" viewBox="0 0 640 640"><!--! Font Awesome Pro 7.2.0 by @fontawesome - https://fontawesome.com License - https://fontawesome.com/license (Commercial License) Copyright 2026 Fonticons, Inc. --><path opacity=".4" fill="currentColor" d="M144 160L144 480C144 488.8 151.2 496 160 496L480 496C488.8 496 496 488.8 496 480L496 160C496 151.2 488.8 144 480 144L160 144C151.2 144 144 151.2 144 160zM256 320C256 337.7 241.7 352 224 352C206.3 352 192 337.7 192 320C192 302.3 206.3 288 224 288C241.7 288 256 302.3 256 320zM352 320C352 337.7 337.7 352 320 352C302.3 352 288 337.7 288 320C288 302.3 302.3 288 320 288C337.7 288 352 302.3 352 320zM448 320C448 337.7 433.7 352 416 352C398.3 352 384 337.7 384 320C384 302.3 398.3 288 416 288C433.7 288 448 302.3 448 320z"/><path fill="currentColor" d="M144 480C144 488.8 151.2 496 160 496L480 496C488.8 496 496 488.8 496 480L496 160C496 151.2 488.8 144 480 144L160 144C151.2 144 144 151.2 144 160L144 480zM160 544C124.7 544 96 515.3 96 480L96 160C96 124.7 124.7 96 160 96L480 96C515.3 96 544 124.7 544 160L544 480C544 515.3 515.3 544 480 544L160 544zM288 320C288 302.3 302.3 288 320 288C337.7 288 352 302.3 352 320C352 337.7 337.7 352 320 352C302.3 352 288 337.7 288 320zM224 352C206.3 352 192 337.7 192 320C192 302.3 206.3 288 224 288C241.7 288 256 302.3 256 320C256 337.7 241.7 352 224 352zM384 320C384 302.3 398.3 288 416 288C433.7 288 448 302.3 448 320C448 337.7 433.7 352 416 352C398.3 352 384 337.7 384 320z"/></svg>