<svg xmlns="http://www.w3.org/2000/svg" viewBox="0 0 640 640"><!--! Font Awesome Pro 7.2.0 by @fontawesome - https://fontawesome.com License - https://fontawesome.com/license (Commercial License) Copyright 2026 Fonticons, Inc. --><path opacity=".4" fill="currentColor" d="M144 160C144 151.2 151.2 144 160 144L480 144C488.8 144 496 151.2 496 160L496 480C496 488.8 488.8 496 480 496L160 496C151.2 496 144 488.8 144 480L144 160zM200 216L200 328C200 341.3 210.7 352 224 352C237.3 352 248 341.3 248 328L248 216C248 202.7 237.3 192 224 192C210.7 192 200 202.7 200 216zM296 216L296 296C296 309.3 306.7 320 320 320C333.3 320 344 309.3 344 296L344 216C344 202.7 333.3 192 320 192C306.7 192 296 202.7 296 216zM392 216L392 392C392 405.3 402.7 416 416 416C429.3 416 440 405.3 440 392L440 216C440 202.7 429.3 192 416 192C402.7 192 392 202.7 392 216z"/><path fill="currentColor" d="M144 160L144 480C144 488.8 151.2 496 160 496L480 496C488.8 496 496 488.8 496 480L496 160C496 151.2 488.8 144 480 144L160 144C151.2 144 144 151.2 144 160zM96 160C96 124.7 124.7 96 160 96L480 96C515.3 96 544 124.7 544 160L544 480C544 515.3 515.3 544 480 544L160 544C124.7 544 96 515.3 96 480L96 160zM224 352C210.7 352 200 341.3 200 328L200 216C200 202.7 210.7 192 224 192C237.3 192 248 202.7 248 216L248 328C248 341.3 237.3 352 224 352zM392 392L392 216C392 202.7 402.7 192 416 192C429.3 192 440 202.7 440 216L440 392C440 405.3 429.3 416 416 416C402.7 416 392 405.3 392 392zM320 320C306.7 320 296 309.3 296 296L296 216C296 202.7 306.7 192 320 192C333.3 192 344 202.7 344 216L344 296C344 309.3 333.3 320 320 320z"/></svg>