<svg xmlns="http://www.w3.org/2000/svg" viewBox="0 0 640 640"><!--! Font Awesome Pro 7.2.0 by @fontawesome - https://fontawesome.com License - https://fontawesome.com/license (Commercial License) Copyright 2026 Fonticons, Inc. --><path opacity=".4" fill="currentColor" d="M144 160L144 480C144 488.8 151.2 496 160 496L480 496C488.8 496 496 488.8 496 480L496 160C496 151.2 488.8 144 480 144L160 144C151.2 144 144 151.2 144 160zM352 416C352 433.7 337.7 448 320 448C302.3 448 288 433.7 288 416C288 398.3 302.3 384 320 384C337.7 384 352 398.3 352 416zM288.6 225.7C287.3 207.5 301.7 192 320 192C338.2 192 352.7 207.5 351.4 225.7L344 329.7C343.1 342.3 332.6 352 320.1 352C307.5 352 297.1 342.3 296.2 329.7L288.8 225.7z"/><path fill="currentColor" d="M480 96C515.3 96 544 124.7 544 160L544 480C544 515.3 515.3 544 480 544L160 544C124.7 544 96 515.3 96 480L96 160C96 124.7 124.7 96 160 96L480 96zM160 144C151.2 144 144 151.2 144 160L144 480C144 488.8 151.2 496 160 496L480 496C488.8 496 496 488.8 496 480L496 160C496 151.2 488.8 144 480 144L160 144zM320 448C302.3 448 288 433.7 288 416C288 398.3 302.3 384 320 384C337.7 384 352 398.3 352 416C352 433.7 337.7 448 320 448zM320 192C338.2 192 352.7 207.5 351.4 225.7L344 329.7C343.1 342.3 332.6 352 320.1 352C307.5 352 297.1 342.3 296.2 329.7L288.8 225.7C287.3 207.5 301.8 192 320 192z"/></svg>