<svg xmlns="http://www.w3.org/2000/svg" viewBox="0 0 640 640"><!--! Font Awesome Pro 7.2.0 by @fontawesome - https://fontawesome.com License - https://fontawesome.com/license (Commercial License) Copyright 2026 Fonticons, Inc. --><path opacity=".4" fill="currentColor" d="M144 160L144 480C144 488.8 151.2 496 160 496L480 496C488.8 496 496 488.8 496 480L496 160C496 151.2 488.8 144 480 144L160 144C151.2 144 144 151.2 144 160zM224 232C224 218.7 234.7 208 248 208C261.3 208 272 218.7 272 232L272 336C272 362.5 293.5 384 320 384C346.5 384 368 362.5 368 336L368 232C368 218.7 378.7 208 392 208C405.3 208 416 218.7 416 232L416 336C416 389 373 432 320 432C267 432 224 389 224 336L224 232z"/><path fill="currentColor" d="M160 144C151.2 144 144 151.2 144 160L144 480C144 488.8 151.2 496 160 496L480 496C488.8 496 496 488.8 496 480L496 160C496 151.2 488.8 144 480 144L160 144zM96 160C96 124.7 124.7 96 160 96L480 96C515.3 96 544 124.7 544 160L544 480C544 515.3 515.3 544 480 544L160 544C124.7 544 96 515.3 96 480L96 160zM272 232L272 336C272 362.5 293.5 384 320 384C346.5 384 368 362.5 368 336L368 232C368 218.7 378.7 208 392 208C405.3 208 416 218.7 416 232L416 336C416 389 373 432 320 432C267 432 224 389 224 336L224 232C224 218.7 234.7 208 248 208C261.3 208 272 218.7 272 232z"/></svg>