<svg xmlns="http://www.w3.org/2000/svg" viewBox="0 0 640 640"><!--! Font Awesome Pro 7.2.0 by @fontawesome - https://fontawesome.com License - https://fontawesome.com/license (Commercial License) Copyright 2026 Fonticons, Inc. --><path opacity=".4" fill="currentColor" d="M144 160L144 480C144 488.8 151.2 496 160 496L480 496C488.8 496 496 488.8 496 480L496 160C496 151.2 488.8 144 480 144L160 144C151.2 144 144 151.2 144 160zM271 199C280.4 189.6 295.6 189.6 304.9 199L409 303C418.4 312.4 418.4 327.6 409 336.9L305 441C295.6 450.4 280.4 450.4 271.1 441C261.8 431.6 261.7 416.4 271.1 407.1L358.1 320.1L271.1 233.1C261.7 223.7 261.7 208.5 271.1 199.2z"/><path fill="currentColor" d="M496 160C496 151.2 488.8 144 480 144L160 144C151.2 144 144 151.2 144 160L144 480C144 488.8 151.2 496 160 496L480 496C488.8 496 496 488.8 496 480L496 160zM480 96C515.3 96 544 124.7 544 160L544 480C544 515.3 515.3 544 480 544L160 544C124.7 544 96 515.3 96 480L96 160C96 124.7 124.7 96 160 96L480 96zM409 337L305 441C295.6 450.4 280.4 450.4 271.1 441C261.8 431.6 261.7 416.4 271.1 407.1L358.1 320.1L271.1 233.1C261.7 223.7 261.7 208.5 271.1 199.2C280.5 189.9 295.7 189.8 305 199.2L409 303C418.4 312.4 418.4 327.6 409 336.9z"/></svg>