<svg xmlns="http://www.w3.org/2000/svg" viewBox="0 0 640 640"><!--! Font Awesome Pro 7.2.0 by @fontawesome - https://fontawesome.com License - https://fontawesome.com/license (Commercial License) Copyright 2026 Fonticons, Inc. --><path opacity=".4" fill="currentColor" d="M144 160L144 480C144 488.8 151.2 496 160 496L480 496C488.8 496 496 488.8 496 480L496 160C496 151.2 488.8 144 480 144L160 144C151.2 144 144 151.2 144 160zM231 311C240.4 301.6 255.6 301.6 264.9 311L295.9 342L295.9 239.9C295.9 226.6 306.6 215.9 319.9 215.9C333.2 215.9 343.9 226.6 343.9 239.9L343.9 342L374.9 311C384.3 301.6 399.5 301.6 408.8 311C418.1 320.4 418.2 335.6 408.8 344.9L336.8 416.9C327.4 426.3 312.2 426.3 302.9 416.9L230.9 344.9C221.5 335.5 221.5 320.3 230.9 311z"/><path fill="currentColor" d="M160 144C151.2 144 144 151.2 144 160L144 480C144 488.8 151.2 496 160 496L480 496C488.8 496 496 488.8 496 480L496 160C496 151.2 488.8 144 480 144L160 144zM96 160C96 124.7 124.7 96 160 96L480 96C515.3 96 544 124.7 544 160L544 480C544 515.3 515.3 544 480 544L160 544C124.7 544 96 515.3 96 480L96 160zM303 417L231 345C221.6 335.6 221.6 320.4 231 311.1C240.4 301.8 255.6 301.7 264.9 311.1L295.9 342.1L295.9 240C295.9 226.7 306.6 216 319.9 216C333.2 216 343.9 226.7 343.9 240L343.9 342.1L374.9 311.1C384.3 301.7 399.5 301.7 408.8 311.1C418.1 320.5 418.2 335.7 408.8 345L336.8 417C327.4 426.4 312.2 426.4 302.9 417z"/></svg>