<svg xmlns="http://www.w3.org/2000/svg" viewBox="0 0 640 640"><!--! Font Awesome Pro 7.2.0 by @fontawesome - https://fontawesome.com License - https://fontawesome.com/license (Commercial License) Copyright 2026 Fonticons, Inc. --><path opacity=".4" fill="currentColor" d="M144 160L144 480C144 488.8 151.2 496 160 496L480 496C488.8 496 496 488.8 496 480L496 160C496 151.2 488.8 144 480 144L160 144C151.2 144 144 151.2 144 160zM208.8 309.1C206 300.7 210.5 291.7 218.9 288.9L256 276.5L256 216C256 202.7 266.7 192 280 192C293.3 192 304 202.7 304 216L304 260.5L362.9 240.9C371.3 238.1 380.3 242.6 383.1 251C385.9 259.4 381.4 268.4 373 271.2L303.9 294.2L303.9 324.5L362.8 304.9C371.2 302.1 380.2 306.6 383 315C385.8 323.4 381.3 332.4 372.9 335.2L303.8 358.2L303.8 400L351.8 400C378.3 400 399.8 378.5 399.8 352C399.8 338.7 410.5 328 423.8 328C437.1 328 447.8 338.7 447.8 352C447.8 405 404.8 448 351.8 448L279.8 448C266.5 448 255.8 437.3 255.8 424L255.8 374.2L228.9 383.2C220.5 386 211.5 381.5 208.7 373.1C205.9 364.7 210.4 355.7 218.8 352.9L255.9 340.5L255.9 310.2L229 319.2C220.6 322 211.6 317.5 208.8 309.1z"/><path fill="currentColor" d="M160 144C151.2 144 144 151.2 144 160L144 480C144 488.8 151.2 496 160 496L480 496C488.8 496 496 488.8 496 480L496 160C496 151.2 488.8 144 480 144L160 144zM96 160C96 124.7 124.7 96 160 96L480 96C515.3 96 544 124.7 544 160L544 480C544 515.3 515.3 544 480 544L160 544C124.7 544 96 515.3 96 480L96 160zM280 192C293.3 192 304 202.7 304 216L304 260.5L362.9 240.9C371.3 238.1 380.3 242.6 383.1 251C385.9 259.4 381.4 268.4 373 271.2L303.9 294.2L303.9 324.5L362.8 304.9C371.2 302.1 380.2 306.6 383 315C385.8 323.4 381.3 332.4 372.9 335.2L303.8 358.2L303.8 400L351.8 400C378.3 400 399.8 378.5 399.8 352C399.8 338.7 410.5 328 423.8 328C437.1 328 447.8 338.7 447.8 352C447.8 405 404.8 448 351.8 448L279.8 448C266.5 448 255.8 437.3 255.8 424L255.8 374.2L228.9 383.2C220.5 386 211.5 381.5 208.7 373.1C205.9 364.7 210.4 355.7 218.8 352.9L255.9 340.5L255.9 310.2L229 319.2C220.6 322 211.6 317.5 208.8 309.1C206 300.7 210.5 291.7 218.9 288.9L256 276.5L256 216C256 202.7 266.7 192 280 192z"/></svg>