<svg xmlns="http://www.w3.org/2000/svg" viewBox="0 0 640 640"><!--! Font Awesome Pro 7.2.0 by @fontawesome - https://fontawesome.com License - https://fontawesome.com/license (Commercial License) Copyright 2026 Fonticons, Inc. --><path opacity=".4" fill="currentColor" d="M144 160L144 480C144 488.8 151.2 496 160 496L480 496C488.8 496 496 488.8 496 480L496 160C496 151.2 488.8 144 480 144L160 144C151.2 144 144 151.2 144 160zM208 216C208 202.7 218.7 192 232 192L408 192C421.3 192 432 202.7 432 216C432 229.3 421.3 240 408 240L344 240L344 279.1L386.9 264.8C395.3 262 404.3 266.5 407.1 274.9C409.9 283.3 405.4 292.3 397 295.1L343.9 312.8L343.9 343.1L386.8 328.8C395.2 326 404.2 330.5 407 338.9C409.8 347.3 405.3 356.3 396.9 359.1L344 376.9L344 424C344 437.3 333.3 448 320 448C306.7 448 296 437.3 296 424L296 392.9L253.1 407.2C244.7 410 235.7 405.5 232.9 397.1C230.1 388.7 234.6 379.7 243 376.9L296.1 359.2L296.1 328.9L253.2 343.2C244.8 346 235.8 341.5 233 333.1C230.2 324.7 234.7 315.7 243.1 312.9L296.2 295.2L296.2 240.1L232.2 240.1C218.9 240.1 208.2 229.4 208.2 216.1z"/><path fill="currentColor" d="M160 144C151.2 144 144 151.2 144 160L144 480C144 488.8 151.2 496 160 496L480 496C488.8 496 496 488.8 496 480L496 160C496 151.2 488.8 144 480 144L160 144zM96 160C96 124.7 124.7 96 160 96L480 96C515.3 96 544 124.7 544 160L544 480C544 515.3 515.3 544 480 544L160 544C124.7 544 96 515.3 96 480L96 160zM208 216C208 202.7 218.7 192 232 192L408 192C421.3 192 432 202.7 432 216C432 229.3 421.3 240 408 240L344 240L344 279.1L386.9 264.8C395.3 262 404.3 266.5 407.1 274.9C409.9 283.3 405.4 292.3 397 295.1L343.9 312.8L343.9 343.1L386.8 328.8C395.2 326 404.2 330.5 407 338.9C409.8 347.3 405.3 356.3 396.9 359.1L344 376.9L344 424C344 437.3 333.3 448 320 448C306.7 448 296 437.3 296 424L296 392.9L253.1 407.2C244.7 410 235.7 405.5 232.9 397.1C230.1 388.7 234.6 379.7 243 376.9L296.1 359.2L296.1 328.9L253.2 343.2C244.8 346 235.8 341.5 233 333.1C230.2 324.7 234.7 315.7 243.1 312.9L296.2 295.2L296.2 240.1L232.2 240.1C218.9 240.1 208.2 229.4 208.2 216.1z"/></svg>