<svg xmlns="http://www.w3.org/2000/svg" viewBox="0 0 640 640"><!--! Font Awesome Pro 7.2.0 by @fontawesome - https://fontawesome.com License - https://fontawesome.com/license (Commercial License) Copyright 2026 Fonticons, Inc. --><path opacity=".4" fill="currentColor" d="M144 160L144 480C144 488.8 151.2 496 160 496L480 496C488.8 496 496 488.8 496 480L496 160C496 151.2 488.8 144 480 144L160 144C151.2 144 144 151.2 144 160zM176 320C176 311.2 183.2 304 192 304L202.8 304L177.1 223.3C173.1 210.7 180.1 197.2 192.7 193.1C205.3 189 218.8 196.1 222.9 208.7L253.3 304L272.6 304L296.9 210C299.6 199.4 309.1 192.1 320 192C330.9 191.9 340.5 199.2 343.3 209.8L368.7 304L388 304L417.2 208.9C421.1 196.2 434.5 189.1 447.2 193C459.9 196.9 467 210.3 463.1 223L438 304L448 304C456.8 304 464 311.2 464 320C464 328.8 456.8 336 448 336L428.2 336L399 431.1C395.9 441.3 386.3 448.2 375.6 448C364.9 447.8 355.6 440.6 352.9 430.2L327.5 336L313.8 336L289.5 430C286.8 440.4 277.6 447.7 266.9 448C256.2 448.3 246.6 441.5 243.4 431.3L213 336L192 336C183.2 336 176 328.8 176 320z"/><path fill="currentColor" d="M160 144C151.2 144 144 151.2 144 160L144 480C144 488.8 151.2 496 160 496L480 496C488.8 496 496 488.8 496 480L496 160C496 151.2 488.8 144 480 144L160 144zM96 160C96 124.7 124.7 96 160 96L480 96C515.3 96 544 124.7 544 160L544 480C544 515.3 515.3 544 480 544L160 544C124.7 544 96 515.3 96 480L96 160zM192.7 193.1C205.3 189.1 218.8 196.1 222.9 208.7L253.3 304L272.6 304L296.9 210C299.6 199.4 309.1 192.1 320 192C330.9 191.9 340.5 199.2 343.3 209.8L368.7 304L388 304L417.2 208.9C421.1 196.2 434.5 189.1 447.2 193C459.9 196.9 467 210.3 463.1 223L438 304L448 304C456.8 304 464 311.2 464 320C464 328.8 456.8 336 448 336L428.2 336L399 431.1C395.9 441.3 386.3 448.2 375.6 448C364.9 447.8 355.6 440.6 352.9 430.2L327.5 336L313.8 336L289.5 430C286.8 440.4 277.6 447.7 266.9 448C256.2 448.3 246.6 441.5 243.4 431.3L213 336L192 336C183.2 336 176 328.8 176 320C176 311.2 183.2 304 192 304L202.8 304L177.1 223.3C173.1 210.7 180.1 197.2 192.7 193.1zM263.9 337.3L264.3 335.9L263.5 335.9L263.9 337.3zM377.6 337.3L378 335.9L377.2 335.9L377.6 337.3z"/></svg>