<svg xmlns="http://www.w3.org/2000/svg" viewBox="0 0 640 640"><!--! Font Awesome Pro 7.2.0 by @fontawesome - https://fontawesome.com License - https://fontawesome.com/license (Commercial License) Copyright 2026 Fonticons, Inc. --><path opacity=".4" fill="currentColor" d=""/><path fill="currentColor" d="M176 120C176 133.3 165.3 144 152 144C129.9 144 112 161.9 112 184C112 197.3 101.3 208 88 208C74.7 208 64 197.3 64 184C64 135.4 103.4 96 152 96C165.3 96 176 106.7 176 120zM64 280C64 266.7 74.7 256 88 256C101.3 256 112 266.7 112 280L112 360C112 373.3 101.3 384 88 384C74.7 384 64 373.3 64 360L64 280zM88 432C101.3 432 112 442.7 112 456C112 478.1 129.9 496 152 496L274.7 496C277.5 512.8 282.5 528.9 289.5 544L152 544C103.4 544 64 504.6 64 456C64 442.7 74.7 432 88 432zM512 278C496.7 274.1 480.6 272 464 272L464 184C464 161.9 446.1 144 424 144C410.7 144 400 133.3 400 120C400 106.7 410.7 96 424 96C472.6 96 512 135.4 512 184L512 278zM328 144L248 144C234.7 144 224 133.3 224 120C224 106.7 234.7 96 248 96L328 96C341.3 96 352 106.7 352 120C352 133.3 341.3 144 328 144zM320 464C320 384.5 384.5 320 464 320C543.5 320 608 384.5 608 464C608 543.5 543.5 608 464 608C384.5 608 320 543.5 320 464zM464 384C455.2 384 448 391.2 448 400L448 448L400 448C391.2 448 384 455.2 384 464C384 472.8 391.2 480 400 480L448 480L448 528C448 536.8 455.2 544 464 544C472.8 544 480 536.8 480 528L480 480L528 480C536.8 480 544 472.8 544 464C544 455.2 536.8 448 528 448L480 448L480 400C480 391.2 472.8 384 464 384z"/></svg>