<svg xmlns="http://www.w3.org/2000/svg" viewBox="0 0 640 640"><!--! Font Awesome Pro 7.2.0 by @fontawesome - https://fontawesome.com License - https://fontawesome.com/license (Commercial License) Copyright 2026 Fonticons, Inc. --><path opacity=".4" fill="currentColor" d="M286.7 279.4C284.8 293.3 292.7 310.2 311.8 329.3C330.9 348.4 347.8 356.3 361.7 354.4C402.7 348.8 473.5 310.1 515.2 144.6C518 133.3 507.9 123.1 496.6 126C331 167.7 292.4 238.4 286.8 279.5z"/><path fill="currentColor" d="M204.2 68.3C197.9 62.2 187.9 62.2 181.7 68.4L178.9 71.2C144.9 105.2 145.6 158.9 177 192.2L162.6 206.5C143.9 225.2 143.9 255.6 162.6 274.4L190.8 302.6C200.2 312 200.2 327.3 190.8 336.8C181.4 346.2 166.2 346.2 156.7 336.9L156.6 336.8C153.4 333.6 147.6 327.8 139.2 319.4C120.5 300.7 90.1 300.7 71.3 319.4C65.1 325.6 65.1 335.8 71.3 342C77.5 348.2 87.7 348.2 93.9 342C100.1 335.8 110.3 335.8 116.5 342C124.9 350.4 130.7 356.2 133.9 359.4L134 359.5L172.2 397.7C167.3 399.5 162.5 402.1 158.1 405.4L129 427.6C125.5 430.2 121.3 431.6 117 431.6C106 431.6 97.1 422.7 97.1 411.7L97.1 399.6C97.1 390.8 89.9 383.6 81.1 383.6C72.3 383.6 65.1 390.8 65.1 399.6L65.1 411.7C65.1 440.4 88.3 463.6 117 463.6C128.3 463.6 139.3 459.9 148.4 453.1L177.6 431C186.7 424.1 199.5 425 207.6 433L207.8 433.2C215.8 441.3 216.6 454.1 209.8 463.2L187.6 492.5C180.8 501.5 177.1 512.5 177.1 523.9C177.1 552.6 200.3 575.8 229 575.8L241.1 575.8C249.9 575.8 257.1 568.6 257.1 559.8C257.1 551 249.9 543.8 241.1 543.8L229 543.8C218 543.8 209.1 534.9 209.1 523.9C209.1 519.6 210.5 515.3 213.1 511.9L235.3 482.6C238.6 478.2 241.2 473.5 243 468.5L286.3 511.8L286.3 511.8L297.6 523.1C303.8 529.3 303.8 539.5 297.6 545.7C291.4 551.9 291.4 562.1 297.6 568.3C303.8 574.5 314 574.5 320.2 568.3C338.9 549.6 338.9 519.2 320.2 500.4L303.8 484C294.5 474.7 294.5 459.4 303.9 449.9C313.3 440.4 328.6 440.5 338 449.8L366.3 478.1C385 496.8 415.4 496.8 434.2 478.1L448.5 463.8C481.8 495.2 535.5 495.9 569.5 461.9L572.3 459.1C578.5 452.9 578.6 442.8 572.4 436.6L536 399.5C517.3 380.5 486.7 380.3 467.8 399.2L411.5 455.6C405.3 461.8 395.1 461.8 388.9 455.6L360.6 427.3C356.7 423.4 352.4 420.2 347.7 417.7C394.7 411.3 451.3 380 498.1 306.7L556.7 319.8C562 321 567.5 319.4 571.3 315.7C575.1 312 576.9 306.5 575.9 301.2L553 182.9C562 153 569.8 119.7 576 82.6C576.8 77.5 575.2 72.3 571.5 68.7C567.8 65.1 562.7 63.4 557.6 64.2C520.2 70.4 486.6 78.3 456.4 87.5L340.3 64.3C335 63.2 329.5 64.9 325.7 68.8C321.9 72.7 320.3 78.2 321.5 83.5L334.5 142C260.8 189.2 229.7 246.4 223.5 293.7C220.9 288.8 217.6 284.2 213.4 280L185.2 251.8C179 245.6 179 235.4 185.2 229.2L241.6 172.8C260.5 153.9 260.3 123.3 241.3 104.6L204.2 68.3zM249.2 328C258 328 265.2 335.2 265.2 344C265.2 352.8 258 360 249.2 360C240.4 360 233.2 352.8 233.2 344C233.2 335.2 240.4 328 249.2 328zM281.2 392C281.2 383.2 288.4 376 297.2 376C306 376 313.2 383.2 313.2 392C313.2 400.8 306 408 297.2 408C288.4 408 281.2 400.8 281.2 392zM496.5 126C507.8 123.2 518 133.3 515.1 144.6C473.4 310.2 402.7 348.8 361.6 354.4C347.7 356.3 330.8 348.4 311.7 329.3C292.6 310.2 284.7 293.2 286.6 279.4C292.2 238.4 330.9 167.6 496.4 125.9z"/></svg>