<svg xmlns="http://www.w3.org/2000/svg" viewBox="0 0 640 640"><!--! Font Awesome Pro 7.2.0 by @fontawesome - https://fontawesome.com License - https://fontawesome.com/license (Commercial License) Copyright 2026 Fonticons, Inc. --><path opacity=".4" fill="currentColor" d="M80 305.5L80 334.6L163.4 353.1C161.2 342.4 160 331.4 160 320C160 308.6 161.2 297.6 163.4 286.9L80 305.5zM208 320C208 381.9 258.1 432 320 432C381.9 432 432 381.9 432 320C432 258.1 381.9 208 320 208C258.1 208 208 258.1 208 320zM376 320C376 350.9 350.9 376 320 376C289.1 376 264 350.9 264 320C264 289.1 289.1 264 320 264C350.9 264 376 289.1 376 320zM476.6 286.9C478.8 297.6 480 308.6 480 320C480 331.4 478.8 342.4 476.6 353.1L560 334.6L560 305.5L476.6 287z"/><path fill="currentColor" d="M178.1 103.7C186.8 93.7 185.7 78.5 175.7 69.8C165.7 61.1 150.5 62.2 141.8 72.2L45.6 183.2C36.9 193.4 32 206.5 32 219.9L32 420.1C32 433.6 36.9 446.6 45.7 456.8L141.9 567.8C150.6 577.8 165.7 578.9 175.8 570.2C185.9 561.5 186.9 546.4 178.2 536.3L82 425.3C80.7 423.8 80 422 80 420.1L80 383.7L185.8 407.2C214.4 451 263.8 480 320 480C376.2 480 425.6 451 454.2 407.2L560 383.7L560 412.6C560 414.4 559.4 416.2 558.2 417.6L461.4 536.9C453 547.2 454.6 562.3 464.9 570.7C475.2 579.1 490.3 577.5 498.7 567.2L595.5 448C603.6 438 608 425.5 608 412.7L608 212.6C608 198.5 602.7 184.9 593 174.5L497.6 71.7C488.6 62 473.4 61.4 463.7 70.4C454 79.4 453.4 94.6 462.4 104.3L557.8 207.1C559.2 208.6 559.9 210.5 559.9 212.5L559.9 256.2L454.1 232.7C425.6 189 376.2 160 320 160C263.8 160 214.4 189 185.8 232.8L80 256.3L80 219.9C80 218 80.7 216.1 82 214.7L178.2 103.7zM476.6 286.9L560 305.4L560 334.5L476.6 353C478.8 342.3 480 331.3 480 319.9C480 308.5 478.8 297.5 476.6 286.8zM163.4 353.1L80 334.6L80 305.5L163.4 287C161.2 297.7 160 308.7 160 320.1C160 331.5 161.2 342.5 163.4 353.2zM320 208C381.9 208 432 258.1 432 320C432 381.9 381.9 432 320 432C258.1 432 208 381.9 208 320C208 258.1 258.1 208 320 208zM320 376C350.9 376 376 350.9 376 320C376 289.1 350.9 264 320 264C289.1 264 264 289.1 264 320C264 350.9 289.1 376 320 376z"/></svg>