<svg xmlns="http://www.w3.org/2000/svg" viewBox="0 0 640 640"><!--! Font Awesome Pro 7.2.0 by @fontawesome - https://fontawesome.com License - https://fontawesome.com/license (Commercial License) Copyright 2026 Fonticons, Inc. --><path opacity=".4" fill="currentColor" d="M260 471.4C262 473.1 264 474.7 266 476.3C269.7 479.4 273.4 482.4 276.9 485.2C305.3 508 336 527.9 383.9 527.9C452.4 527.9 509.8 480 524.3 415.9L496 416C470 416 444.8 407.6 424 392L411.2 382.4C398.7 373.1 383.6 368 368 368L366.9 368C359.6 422.8 315.3 465.9 260 471.4z"/><path fill="currentColor" d="M240 88C240 74.7 229.3 64 216 64C202.7 64 192 74.7 192 88L192 152C192 218.3 245.7 272 312 272L321 272C320.3 277.2 320 282.6 320 288L320 352C320 391.8 287.8 424 248 424L184 424C117.7 424 64 477.7 64 544L64 552C64 565.3 74.7 576 88 576C101.3 576 112 565.3 112 552L112 544C112 508.7 140.7 480 176 480C185.6 480 195 483.5 206.6 491.1C215.4 496.8 223.7 503.7 233.5 511.8C237.7 515.2 242.1 518.9 247 522.8C278.6 548 319.9 576.1 384 576.1C490 576.1 576 490.1 576 384.1L576 288.1C576 217.4 518.7 160.1 448 160.1C400.6 160.1 359.3 185.8 337.1 224.1L312 224C272.2 224 240 191.8 240 152L240 88zM368 288C368 243.8 403.8 208 448 208C492.2 208 528 243.8 528 288L528 368L496 368C480.4 368 465.3 362.9 452.8 353.6L440 344C419.2 328.4 394 320 368 320L368 288zM496 416L524.4 416C509.8 480.1 452.5 528 384 528C336.1 528 305.4 508 277 485.3C273.5 482.5 269.8 479.5 266.1 476.4C264.1 474.8 262.1 473.1 260.1 471.5C315.4 466 359.7 422.9 367 368.1L368.1 368.1C383.7 368.1 398.8 373.2 411.3 382.5L424 392C444.8 407.6 470 416 496 416z"/></svg>