<svg xmlns="http://www.w3.org/2000/svg" viewBox="0 0 640 640"><!--! Font Awesome Pro 7.2.0 by @fontawesome - https://fontawesome.com License - https://fontawesome.com/license (Commercial License) Copyright 2026 Fonticons, Inc. --><path opacity=".4" fill="currentColor" d="M118.9 495.1C121.8 495.7 124.9 496 128 496L192 496C218.5 496 240 474.5 240 448L240 396.1L118.9 495.1zM438.9 495.1C441.8 495.7 444.9 496 448 496L512 496C538.5 496 560 474.5 560 448L560 396.1L438.9 495.1z"/><path fill="currentColor" d="M167.8 144C150.1 144 134.5 155.7 129.4 172.6L85.8 320L256 320C273.7 320 288 334.3 288 352L352 352C352 334.3 366.3 320 384 320L554.2 320L510.5 172.6C505.5 155.6 489.9 144 472.1 144L440 144C426.7 144 416 133.3 416 120C416 106.7 426.7 96 440 96L472.2 96C511.2 96 545.5 121.6 556.6 159L604.4 320.3C606.8 328.4 608 336.8 608 345.3L608 448C608 501 565 544 512 544L448 544C395 544 352 501 352 448L352 400L288 400L288 448C288 501 245 544 192 544L128 544C75 544 32 501 32 448L32 345.3C32 336.8 33.2 328.4 35.6 320.3L83.4 159C94.5 121.6 128.8 96 167.8 96L200 96C213.3 96 224 106.7 224 120C224 133.3 213.3 144 200 144L167.8 144zM518.5 368L400 368L400 448C400 453.2 400.8 458.3 402.4 463L518.5 368zM560 396.1L438.9 495.1C441.8 495.7 444.9 496 448 496L512 496C538.5 496 560 474.5 560 448L560 396.1zM80 368L80 448C80 453.2 80.8 458.3 82.4 463L198.5 368L80 368zM128 496L192 496C218.5 496 240 474.5 240 448L240 396.1L118.9 495.1C121.8 495.7 124.9 496 128 496z"/></svg>