<svg xmlns="http://www.w3.org/2000/svg" viewBox="0 0 640 640"><!--! Font Awesome Pro 7.2.0 by @fontawesome - https://fontawesome.com License - https://fontawesome.com/license (Commercial License) Copyright 2026 Fonticons, Inc. --><path opacity=".4" fill="currentColor" d="M48 355.7C48 340.4 50.9 325.3 56.6 311.1L57.6 308.6L67.9 342.2C74.1 362.3 92.6 375.9 113.6 375.9L117.9 375.9C140.8 375.9 159.7 358 161.1 335.2C164.2 281.7 208.6 239.9 262.1 239.9L304 239.9C311.1 239.9 317.9 236.7 322.4 231.3L362.4 183.3C366 179 368 173.5 368 167.9C368 137 393.1 111.9 423.8 111.9C429.9 111.9 435.9 112.9 441.6 114.8C446.8 116.6 452.5 116.5 457.7 114.5C462.2 112.8 467 111.9 472 111.9C486.5 111.9 499.9 119.6 507.1 132C511.4 139.4 519.3 143.9 527.8 143.9L536 143.9C566.9 143.9 592 169 592 199.9L592 223.9C592 232.7 584.8 239.9 576 239.9L537.9 239.9C535.8 239.9 533.7 239.1 532.2 237.6L514.3 219.7C506.8 212.2 496.6 208 486 208L464 208C455.2 208 448 215.2 448 224C448 232.8 455.2 240 464 240L486.1 240C488.2 240 490.3 240.8 491.8 242.3L509.7 260.2C516.3 266.8 525.1 270.9 534.3 271.7C533.5 271.8 532.8 271.9 532 271.9L448 271.9C440.4 271.9 433.3 275.5 428.8 281.5L400 320C409.4 337.6 415.1 357.6 415.9 378.8L400 400L359.4 447.2L364.7 440.6C377.2 425 384 405.6 384 385.6L384 384C384 331 341 288 288 288C274.7 288 264 298.7 264 312C264 325.3 274.7 336 288 336C314.5 336 336 357.5 336 384L336 385.6C336 394.7 332.9 403.5 327.2 410.6L309.2 433.1C302.7 441.3 302.2 452.7 308 461.4L324 485.4C328.5 492 336 496 344 496L368 496C376.8 496 384 503.2 384 512L384 528L297.9 528L240 470.1L240 440C240 426.7 229.3 416 216 416C202.7 416 192 426.7 192 440L192 464L152 464C94.6 464 48 417.4 48 360L48 355.7zM456 152C456 160.8 463.2 168 472 168C480.8 168 488 160.8 488 152C488 143.2 480.8 136 472 136C463.2 136 456 143.2 456 152z"/><path fill="currentColor" d="M423.8 112C393 112 368 137.1 368 168C368 173.6 366 179.1 362.4 183.4L322.4 231.4C317.8 236.9 311.1 240 304 240L262.1 240C208.5 240 164.2 281.8 161.1 335.3C159.8 358.2 140.8 376 117.9 376L113.6 376C92.6 376 74.1 362.3 67.9 342.3L57.6 308.7L56.6 311.2C50.9 325.4 48 340.5 48 355.8L48 360.1C48 417.5 94.6 464.1 152 464.1L192 464.1L192 440.1C192 426.8 202.7 416.1 216 416.1C229.3 416.1 240 426.8 240 440.1L240 470.2L297.9 528.1L384 528.1L384 512.1C384 503.3 376.8 496.1 368 496.1L344 496.1C336 496.1 328.5 492.1 324 485.4L308 461.4C302.2 452.7 302.7 441.3 309.2 433.1L327.2 410.6C332.9 403.5 336 394.7 336 385.6L336 384C336 357.5 314.5 336 288 336C274.7 336 264 325.3 264 312C264 298.7 274.7 288 288 288C341 288 384 331 384 384L384 385.6C384 405.6 377.2 425 364.7 440.6L358.7 448.1L368 448.1C403.3 448.1 432 476.8 432 512.1L432 552.1C432 565.4 421.3 576.1 408 576.1L288 576.1C281.6 576.1 275.5 573.6 271 569.1L214 512.1L151.9 512.1C68.1 512 0 443.9 0 360L0 355.7C0 334.3 4.1 313.2 12 293.3L32.3 242.6C36.8 231.3 47.7 224 59.8 224C72.8 224 84.3 232.5 88.1 244.9L113.4 327.2C120.6 250.9 184.8 192 262.1 192L292.8 192L320.4 158.8C325 105.8 369.5 64 423.8 64C432.3 64 440.7 65 448.8 67.1C456.2 65.1 464 64 471.9 64C498.6 64 523.6 76 540.2 96.1C595.6 98.4 639.9 144 639.9 200L639.9 224C639.9 254.9 618 280.7 588.9 286.7L583.1 294.4L583.1 294.4C571.1 310.5 552.1 320 532 320L460 320L444.7 340.5L491.5 366.5C504.2 373.6 512.1 386.9 512.1 401.5L512.1 424.1C512.1 437.4 501.4 448.1 488.1 448.1C474.8 448.1 464.1 437.4 464.1 424.1L464.1 406.2L416 379.5C415.3 358 409.6 337.9 400.1 320.1L428.9 281.7C433.4 275.7 440.5 272.1 448.1 272.1L532.1 272.1C532.9 272.1 533.6 272 534.4 271.9C525.1 271.1 516.4 267 509.8 260.4L491.9 242.5C490.4 241 488.4 240.2 486.2 240.2L464 240C455.2 240 448 232.8 448 224C448 215.2 455.2 208 464 208L486.1 208C496.7 208 506.9 212.2 514.4 219.7L532.3 237.6C533.8 239.1 535.8 239.9 538 239.9L576.1 239.9C584.9 239.9 592.1 232.7 592.1 223.9L592.1 199.9C592.1 169 567 143.9 536.1 143.9L527.9 143.9C519.4 143.9 511.5 139.4 507.2 132C499.9 119.6 486.6 111.9 472.1 111.9C467.1 111.9 462.3 112.8 457.8 114.5C452.6 116.4 446.9 116.5 441.7 114.8C436 112.9 430 111.9 423.9 111.9zM456 152C456 143.2 463.2 136 472 136C480.8 136 488 143.2 488 152C488 160.8 480.8 168 472 168C463.2 168 456 160.8 456 152z"/></svg>