<svg xmlns="http://www.w3.org/2000/svg" viewBox="0 0 640 640"><!--! Font Awesome Pro 7.2.0 by @fontawesome - https://fontawesome.com License - https://fontawesome.com/license (Commercial License) Copyright 2026 Fonticons, Inc. --><path opacity=".4" fill="currentColor" d="M144 160L144 224L296 224L296 144L160 144C151.2 144 144 151.2 144 160zM144 416L144 480C144 488.8 151.2 496 160 496L296 496L296 416L144 416zM344 144L344 224L496 224L496 160C496 151.2 488.8 144 480 144L344 144zM344 416L344 496L480 496C488.8 496 496 488.8 496 480L496 416L344 416z"/><path fill="currentColor" d="M480 96C513.1 96 540.4 121.2 543.7 153.5L544 160L544 480L543.7 486.5C540.6 516.6 516.7 540.6 486.6 543.6L480.1 543.9L160.1 543.9C124.8 543.9 96.1 515.2 96.1 479.9L96 160C96 124.7 124.7 96 160 96L480 96zM344 496L480 496C488.8 496 496 488.8 496 480L496 416L344 416L344 496zM144 480C144 488.8 151.2 496 160 496L296 496L296 416L144 416L144 480zM144 368L496 368L496 272L144 272L144 368zM344 224L496 224L496 160C496 151.2 488.8 144 480 144L344 144L344 224zM160 144C151.2 144 144 151.2 144 160L144 224L296 224L296 144L160 144z"/></svg>