<svg xmlns="http://www.w3.org/2000/svg" viewBox="0 0 640 640"><!--! Font Awesome Pro 7.2.0 by @fontawesome - https://fontawesome.com License - https://fontawesome.com/license (Commercial License) Copyright 2026 Fonticons, Inc. --><path opacity=".4" fill="currentColor" d="M112 160L112 232L200 232L200 144L128 144C119.2 144 112 151.2 112 160zM112 280L112 360L200 360L200 280L112 280zM112 408L112 480C112 488.8 119.2 496 128 496L200 496L200 408L112 408zM248 144L248 232L328 232L328 144L248 144zM248 280L248 360L328 360L328 280L248 280zM248 408L248 496L328 496L328 408L248 408zM376 144L376 232L453.4 232C456.8 229.5 460.4 227.2 464 225.1L464 160C464 151.2 456.8 144 448 144L376 144zM376 280L376 360L400 360L400 336C400 315.9 404.6 296.9 412.9 280L376 280z"/><path fill="currentColor" d="M376 144L448 144C456.8 144 464 151.2 464 160L464 225.1C478.5 216.7 494.7 211.1 512 209L512 160C512 124.7 483.3 96 448 96L128 96C92.7 96 64 124.7 64 160L64 480C64 515.3 92.7 544 128 544L369.3 544C368.4 538.8 368 533.4 368 527.9L368 431.9C368 403.4 380.4 377.9 400 360.4L400 360L376 360L376 280L412.9 280C422.2 260.8 436.2 244.3 453.4 232L376 232L376 144zM328 144L328 232L248 232L248 144L328 144zM200 144L200 232L112 232L112 160C112 151.2 119.2 144 128 144L200 144zM112 360L112 280L200 280L200 360L112 360zM112 408L200 408L200 496L128 496C119.2 496 112 488.8 112 480L112 408zM248 496L248 408L328 408L328 496L248 496zM248 360L248 280L328 280L328 360L248 360zM560 336L608 336C607.9 291.9 572.2 256.1 528 256.1C483.8 256.1 448 291.9 448 336.1L448 386.7C429.4 393.3 416 411.1 416 432L416 528C416 554.5 437.5 576 464 576L592 576C618.5 576 640 554.5 640 528L640 432C640 405.5 618.5 384 592 384L496 384L496 336.1C496 318.4 510.3 304.1 528 304.1C545.6 304.1 559.9 318.4 560 336z"/></svg>