<svg xmlns="http://www.w3.org/2000/svg" viewBox="0 0 640 640"><!--! Font Awesome Pro 7.2.0 by @fontawesome - https://fontawesome.com License - https://fontawesome.com/license (Commercial License) Copyright 2026 Fonticons, Inc. --><path opacity=".4" fill="currentColor" d="M160 432C160 485 203 528 256 528C309 528 352 485 352 432C352 406.8 342.3 383.9 326.4 366.7C322.3 362.3 320 356.4 320 350.4L320 176C320 140.7 291.3 112 256 112C220.7 112 192 140.7 192 176L192 350.4C192 356.5 189.7 362.3 185.6 366.7C169.7 383.8 160 406.7 160 432zM208 432C208 414.2 217.7 398.7 232 390.4L232 176C232 162.7 242.7 152 256 152C269.3 152 280 162.7 280 176L280 390.4C294.3 398.7 304 414.2 304 432C304 458.5 282.5 480 256 480C229.5 480 208 458.5 208 432z"/><path fill="currentColor" d="M192 176C192 140.7 220.7 112 256 112C291.3 112 320 140.7 320 176L320 350.4C320 356.5 322.3 362.3 326.4 366.7C342.3 383.8 352 406.7 352 432C352 485 309 528 256 528C203 528 160 485 160 432C160 406.8 169.7 383.9 185.6 366.7C189.7 362.3 192 356.4 192 350.4L192 176zM256 64C194.1 64 144 114.1 144 176L144 341.5C124 366.2 112 397.7 112 432C112 511.5 176.5 576 256 576C335.5 576 400 511.5 400 432C400 397.7 388 366.2 368 341.5L368 176C368 114.1 317.9 64 256 64zM256 480C282.5 480 304 458.5 304 432C304 414.2 294.3 398.7 280 390.4L280 176C280 162.7 269.3 152 256 152C242.7 152 232 162.7 232 176L232 390.4C217.7 398.7 208 414.2 208 432C208 458.5 229.5 480 256 480zM464 144C464 126.3 478.3 112 496 112C513.7 112 528 126.3 528 144C528 161.7 513.7 176 496 176C478.3 176 464 161.7 464 144zM576 144C576 99.8 540.2 64 496 64C451.8 64 416 99.8 416 144C416 188.2 451.8 224 496 224C540.2 224 576 188.2 576 144z"/></svg>