<svg xmlns="http://www.w3.org/2000/svg" viewBox="0 0 640 640"><!--! Font Awesome Pro 7.2.0 by @fontawesome - https://fontawesome.com License - https://fontawesome.com/license (Commercial License) Copyright 2026 Fonticons, Inc. --><path opacity=".4" fill="currentColor" d="M117.1 496L296.2 496L296.2 167.6L146 263.7C141.9 266.3 139.2 270.7 138.7 275.6L117.1 496zM344.2 168.7L344.2 320L439.5 496L523.2 496L501.7 275.8C501.2 270.9 498.5 266.5 494.3 263.8L344.2 168.7z"/><path fill="currentColor" d="M296.2 496L296.2 167.6L146 263.7C141.9 266.3 139.2 270.7 138.7 275.6L117.1 496L296.2 496zM344.2 320L439.5 496L523.2 496L501.7 275.8C501.2 270.9 498.5 266.5 494.3 263.8L344.1 168.7L344.1 320zM67.7 508.9L90.9 270.9C92.8 251.4 103.6 233.8 120.1 223.2L293.3 112.5C309 102.5 329.1 102.4 344.8 112.4L520.1 223.3C536.8 233.9 547.6 251.5 549.6 271.1L572.8 508.9C574.6 527.7 559.9 544 541 544L99.5 544C80.6 544 65.8 527.7 67.7 508.9z"/></svg>