<svg xmlns="http://www.w3.org/2000/svg" viewBox="0 0 640 640"><!--! Font Awesome Pro 7.2.0 by @fontawesome - https://fontawesome.com License - https://fontawesome.com/license (Commercial License) Copyright 2026 Fonticons, Inc. --><path opacity=".4" fill="currentColor" d="M80.3 253.1C80.1 253.4 80 253.7 80 253.7L80 288L560 288L560 253.7C560 253.6 559.9 253.4 559.7 253.1C559.3 252.4 558.4 251.4 557 250.5C527.2 232.2 488.8 203.1 455.2 160.6C425.6 189.8 379.3 222.7 320 222.7C260.7 222.7 214.5 189.7 184.8 160.5C151.2 203.1 112.8 232.1 83 250.4C81.6 251.3 80.7 252.3 80.2 253zM80 336L80 512C80 520.8 87.2 528 96 528L288 528L288 336L80 336zM336 336L439.4 528L544 528C552.8 528 560 520.8 560 512L560 336L336 336z"/><path fill="currentColor" d="M474.2 104.4C467.4 93.6 450.6 92.8 442.6 102.8C420 131.2 376.3 174.6 320 174.6C263.7 174.6 220 131.2 197.4 102.7C189.5 92.7 172.6 93.6 165.8 104.3C133.3 155.9 90.2 189.6 57.9 209.5C42.4 219 32 235.4 32 253.6L32 512C32 547.3 60.7 576 96 576L544 576C579.3 576 608 547.3 608 512L608 253.7C608 235.5 597.6 219.1 582.1 209.6C549.8 189.7 506.7 156 474.2 104.4zM557 250.4C558.4 251.3 559.3 252.3 559.7 253C559.9 253.3 560 253.6 560 253.6L560 287.9L80 287.9L80 253.6C80 253.5 80.1 253.3 80.3 253C80.7 252.3 81.6 251.3 83.1 250.4C112.9 232.1 151.3 203 184.9 160.5C214.5 189.7 260.8 222.6 320.1 222.6C379.4 222.6 425.6 189.7 455.3 160.5C488.9 203.1 527.3 232.1 557.1 250.4zM80 336L288 336L288 528L96 528C87.2 528 80 520.8 80 512L80 336zM336 336L560 336L560 512C560 520.8 552.8 528 544 528L439.4 528L336 336z"/></svg>