<svg xmlns="http://www.w3.org/2000/svg" viewBox="0 0 640 640"><!--! Font Awesome Pro 7.2.0 by @fontawesome - https://fontawesome.com License - https://fontawesome.com/license (Commercial License) Copyright 2026 Fonticons, Inc. --><path opacity=".4" fill="currentColor" d="M80 192L80 236.9C108.7 253.5 128 284.5 128 320C128 355.5 108.7 386.6 80 403.1L80 448C80 456.8 87.2 464 96 464L544 464C552.8 464 560 456.8 560 448L560 403.1C531.3 386.5 512 355.5 512 320C512 284.5 531.3 253.4 560 236.9L560 192C560 183.2 552.8 176 544 176L96 176C87.2 176 80 183.2 80 192z"/><path fill="currentColor" d="M96 176L544 176C552.8 176 560 183.2 560 192L560 236.9C531.3 253.5 512 284.5 512 320C512 355.5 531.3 386.6 560 403.1L560 448C560 456.8 552.8 464 544 464L96 464C87.2 464 80 456.8 80 448L80 403.1C108.7 386.5 128 355.5 128 320C128 284.5 108.7 253.4 80 236.9L80 192C80 183.2 87.2 176 96 176zM96 128C60.7 128 32 156.7 32 192L32 256C32 264.8 39.4 271.7 47.7 274.6C66.5 281.1 80 299 80 320C80 341 66.5 358.9 47.7 365.4C39.4 368.3 32 375.2 32 384L32 448C32 483.3 60.7 512 96 512L544 512C579.3 512 608 483.3 608 448L608 384C608 375.2 600.6 368.3 592.3 365.4C573.5 358.9 560 341 560 320C560 299 573.5 281.1 592.3 274.6C600.6 271.7 608 264.8 608 256L608 192C608 156.7 579.3 128 544 128L96 128z"/></svg>