<svg xmlns="http://www.w3.org/2000/svg" viewBox="0 0 640 640"><!--! Font Awesome Pro 7.2.0 by @fontawesome - https://fontawesome.com License - https://fontawesome.com/license (Commercial License) Copyright 2026 Fonticons, Inc. --><path opacity=".4" fill="currentColor" d="M144 160L144 188.9C172.7 205.5 192 236.5 192 272C192 307.5 172.7 338.6 144 355.1L144 384C144 392.8 151.2 400 160 400L544 400C552.8 400 560 392.8 560 384L560 355.1C531.3 338.5 512 307.5 512 272C512 236.5 531.3 205.4 560 188.9L560 160C560 151.2 552.8 144 544 144L160 144C151.2 144 144 151.2 144 160zM240 232C240 209.9 257.9 192 280 192L424 192C446.1 192 464 209.9 464 232L464 312C464 334.1 446.1 352 424 352L280 352C257.9 352 240 334.1 240 312L240 232zM288 240L288 304L416 304L416 240L288 240z"/><path fill="currentColor" d="M160 144L544 144C552.8 144 560 151.2 560 160L560 188.9C531.3 205.5 512 236.5 512 272C512 307.5 531.3 338.6 560 355.1L560 384C560 392.8 552.8 400 544 400L160 400C151.2 400 144 392.8 144 384L144 355.1C172.7 338.5 192 307.5 192 272C192 236.5 172.7 205.4 144 188.9L144 160C144 151.2 151.2 144 160 144zM160 96C124.7 96 96 124.7 96 160L96 208C96 216.8 103.4 223.7 111.7 226.6C130.5 233.1 144 251 144 272C144 293 130.5 310.9 111.7 317.4C103.4 320.3 96 327.2 96 336L96 384C96 419.3 124.7 448 160 448L544 448C579.3 448 608 419.3 608 384L608 336C608 327.2 600.6 320.3 592.3 317.4C573.5 310.9 560 293 560 272C560 251 573.5 233.1 592.3 226.6C600.6 223.7 608 216.8 608 208L608 160C608 124.7 579.3 96 544 96L160 96zM24 192C10.7 192 0 202.7 0 216L0 472C0 511.8 32.2 544 72 544L488 544C501.3 544 512 533.3 512 520C512 506.7 501.3 496 488 496L72 496C58.7 496 48 485.3 48 472L48 216C48 202.7 37.3 192 24 192zM416 304L288 304L288 240L416 240L416 304zM240 232L240 312C240 334.1 257.9 352 280 352L424 352C446.1 352 464 334.1 464 312L464 232C464 209.9 446.1 192 424 192L280 192C257.9 192 240 209.9 240 232z"/></svg>