<svg xmlns="http://www.w3.org/2000/svg" viewBox="0 0 640 640"><!--! Font Awesome Pro 7.2.0 by @fontawesome - https://fontawesome.com License - https://fontawesome.com/license (Commercial License) Copyright 2026 Fonticons, Inc. --><path opacity=".4" fill="currentColor" d="M144 185.1L144 257.8C144 273.9 147.8 289.9 155 304.3L178.8 351.9C187.2 368.7 192.4 386.8 194.2 405.5L204.3 511.9C205.2 521 212.8 528 222 528C230.4 528 237.7 522.1 239.4 513.8L267.6 378.6C272.8 353.8 294.6 336 320 336C345.4 336 367.2 353.8 372.4 378.6L400.6 513.8C402.3 522.1 409.6 528 418 528C427.2 528 434.9 521 435.7 511.9L445.8 405.5C447.6 386.9 452.8 368.7 461.2 351.9L485 304.3C492.2 289.9 496 273.9 496 257.8L496 185.1C496 144.7 463.3 112 422.9 112C411.6 112 400.4 114.6 390.2 119.7L330.7 149.5C323.9 152.9 316 152.9 309.2 149.5L249.8 119.7C239.6 114.6 228.4 112 217.1 112C176.7 112 144 144.7 144 185.1z"/><path fill="currentColor" d="M96 185.1C96 118.2 150.2 64 217.1 64C235.9 64 254.4 68.4 271.2 76.8L320 101.2L368.8 76.8C385.6 68.4 404.1 64 422.9 64C489.8 64 544 118.2 544 185.1L544 257.8C544 281.4 538.5 304.7 528 325.8L504.2 373.4C498.5 384.9 494.9 397.3 493.7 410L483.5 516.4C480.3 550.2 451.9 576 418 576C386.8 576 359.9 554.1 353.6 523.6L325.4 388.4C324.9 385.8 322.6 384 320 384C317.4 384 315.1 385.8 314.6 388.4L286.4 523.6C280 554.1 253.2 576 222 576C188.1 576 159.7 550.2 156.5 516.4L146.4 410C145.2 397.2 141.6 384.8 135.9 373.4L112 325.8C101.4 304.7 96 281.4 96 257.8L96 185.1zM217.1 112C176.7 112 144 144.7 144 185.1L144 257.8C144 273.9 147.8 289.9 155 304.3L178.8 351.9C187.2 368.7 192.4 386.8 194.2 405.5L204.3 511.9C205.2 521 212.8 528 222 528C230.4 528 237.7 522.1 239.4 513.8L267.6 378.6C272.8 353.8 294.6 336 320 336C345.4 336 367.2 353.8 372.4 378.6L400.6 513.8C402.3 522.1 409.6 528 418 528C427.2 528 434.9 521 435.7 511.9L445.8 405.5C447.6 386.9 452.8 368.7 461.2 351.9L485 304.3C492.2 289.9 496 273.9 496 257.8L496 185.1C496 144.7 463.3 112 422.9 112C411.6 112 400.4 114.6 390.2 119.7L330.7 149.5C323.9 152.9 316 152.9 309.2 149.5L249.8 119.7C239.7 114.6 228.5 112 217.1 112z"/></svg>