<svg xmlns="http://www.w3.org/2000/svg" viewBox="0 0 640 640"><!--! Font Awesome Pro 7.2.0 by @fontawesome - https://fontawesome.com License - https://fontawesome.com/license (Commercial License) Copyright 2026 Fonticons, Inc. --><path opacity=".4" fill="currentColor" d=""/><path fill="currentColor" d="M320.5 168C351.4 168 376.5 193.1 376.5 224C376.5 246.3 363.4 265.5 344.5 274.5L344.5 552C344.5 565.2 333.7 576 320.5 576C307.3 576 296.5 565.2 296.5 552L296.5 274.5C277.6 265.5 264.5 246.3 264.5 224C264.5 193.1 289.6 168 320.5 168zM144.6 75.5C155.9 68.6 170.7 72.3 177.5 83.6C202.3 124.6 216.5 172.7 216.5 224C216.5 275.3 202.3 323.4 177.5 364.4C170.6 375.7 155.9 379.4 144.6 372.5C133.3 365.6 129.6 350.9 136.4 339.6C156.8 305.9 168.5 266.3 168.5 224C168.5 181.7 156.8 142.1 136.4 108.4C129.6 97.1 133.2 82.3 144.6 75.5zM463.5 83.6C470.4 72.3 485.1 68.6 496.4 75.5C507.7 82.4 511.4 97.1 504.6 108.4C484.2 142.1 472.5 181.7 472.5 224C472.5 266.3 484.2 305.9 504.6 339.6C511.4 350.9 507.8 365.7 496.4 372.5C485 379.3 470.3 375.7 463.5 364.4C438.7 323.4 424.5 275.3 424.5 224C424.5 172.7 438.7 124.6 463.5 83.6zM59.5 121.8C70.7 114.6 85.5 117.9 92.7 129C110.3 156.4 120.5 189 120.5 224C120.5 259 110.3 291.6 92.7 319C85.5 330.1 70.7 333.4 59.5 326.2C48.3 319 45.1 304.2 52.3 293C65.1 273.1 72.5 249.4 72.5 223.9C72.5 198.4 65.1 174.8 52.3 154.9C45.1 143.7 48.4 128.9 59.5 121.7zM548.3 129C555.5 117.9 570.3 114.6 581.5 121.8C592.6 129 595.9 143.8 588.7 155C575.9 174.9 568.5 198.6 568.5 224C568.5 249.4 575.9 273.2 588.7 293.1C595.9 304.3 592.6 319.1 581.5 326.3C570.4 333.5 555.5 330.2 548.3 319.1C530.7 291.7 520.5 259 520.5 224.1C520.5 189.2 530.7 156.5 548.3 129.1z"/></svg>