<svg xmlns="http://www.w3.org/2000/svg" viewBox="0 0 640 640"><!--! Font Awesome Pro 7.2.0 by @fontawesome - https://fontawesome.com License - https://fontawesome.com/license (Commercial License) Copyright 2026 Fonticons, Inc. --><path opacity=".4" fill="currentColor" d="M172.9 208L195.5 513.2C196.1 521.6 203.1 528 211.5 528L428.6 528C437 528 443.9 521.5 444.6 513.2L467.1 208L172.9 208zM224 352C224 338.7 234.7 328 248 328L296 328L296 280C296 266.7 306.7 256 320 256C333.3 256 344 266.7 344 280L344 328L392 328C405.3 328 416 338.7 416 352C416 365.3 405.3 376 392 376L344 376L344 424C344 437.3 333.3 448 320 448C306.7 448 296 437.3 296 424L296 376L248 376C234.7 376 224 365.3 224 352z"/><path fill="currentColor" d="M262.2 48C248.9 48 236.9 56.3 232.2 68.8L216 112L120 112C106.7 112 96 122.7 96 136C96 149.3 106.7 160 120 160L520 160C533.3 160 544 149.3 544 136C544 122.7 533.3 112 520 112L424 112L407.8 68.8C403.1 56.3 391.2 48 377.8 48L262.2 48zM124.7 208L147.6 516.7C150.1 550.1 177.9 576 211.4 576L428.5 576C462 576 489.8 550.1 492.3 516.7L515.2 208L467.1 208L444.5 513.2C443.9 521.6 436.9 528 428.5 528L211.4 528C203 528 196.1 521.5 195.4 513.2L172.9 208L124.7 208zM320 256C306.7 256 296 266.7 296 280L296 328L248 328C234.7 328 224 338.7 224 352C224 365.3 234.7 376 248 376L296 376L296 424C296 437.3 306.7 448 320 448C333.3 448 344 437.3 344 424L344 376L392 376C405.3 376 416 365.3 416 352C416 338.7 405.3 328 392 328L344 328L344 280C344 266.7 333.3 256 320 256z"/></svg>