<svg xmlns="http://www.w3.org/2000/svg" viewBox="0 0 640 640"><!--! Font Awesome Pro 7.2.0 by @fontawesome - https://fontawesome.com License - https://fontawesome.com/license (Commercial License) Copyright 2026 Fonticons, Inc. --><path opacity=".4" fill="currentColor" d="M172.9 208L195.5 513.2C196.1 521.6 203.1 528 211.5 528L428.6 528C437 528 443.9 521.5 444.6 513.2L467.1 208L172.9 208zM239 327L303 263C312.4 253.6 327.6 253.6 336.9 263L400.9 327C410.3 336.4 410.3 351.6 400.9 360.9C391.5 370.2 376.3 370.3 367 360.9L344 337.9L344 424C344 437.3 333.3 448 320 448C306.7 448 296 437.3 296 424L296 337.9L273 360.9C263.6 370.3 248.4 370.3 239.1 360.9C229.8 351.5 229.7 336.3 239.1 327z"/><path fill="currentColor" d="M262.2 48C248.9 48 236.9 56.3 232.2 68.8L216 112L120 112C106.7 112 96 122.7 96 136C96 149.3 106.7 160 120 160L520 160C533.3 160 544 149.3 544 136C544 122.7 533.3 112 520 112L424 112L407.8 68.8C403.1 56.3 391.2 48 377.8 48L262.2 48zM124.7 208L147.6 516.7C150.1 550.1 177.9 576 211.4 576L428.5 576C462 576 489.8 550.1 492.3 516.7L515.2 208L467.1 208L444.5 513.2C443.9 521.6 436.9 528 428.5 528L211.4 528C203 528 196.1 521.5 195.4 513.2L172.9 208L124.7 208zM337 263C327.6 253.6 312.4 253.6 303.1 263L239.1 327C229.7 336.4 229.7 351.6 239.1 360.9C248.5 370.2 263.7 370.3 273 360.9L296 337.9L296 424C296 437.3 306.7 448 320 448C333.3 448 344 437.3 344 424L344 337.9L367 360.9C376.4 370.3 391.6 370.3 400.9 360.9C410.2 351.5 410.3 336.3 400.9 327L336.9 263z"/></svg>