<svg xmlns="http://www.w3.org/2000/svg" viewBox="0 0 640 640"><!--! Font Awesome Pro 7.2.0 by @fontawesome - https://fontawesome.com License - https://fontawesome.com/license (Commercial License) Copyright 2026 Fonticons, Inc. --><path opacity=".4" fill="currentColor" d="M112 368C112 403.3 140.7 432 176 432L296 432L296 312C296 298.7 306.7 288 320 288C333.3 288 344 298.7 344 312L344 432L464 432C499.3 432 528 403.3 528 368C528 341.5 511.9 318.7 488.8 309C481.6 305.9 476.3 299.5 474.6 291.8C473 284.1 475.2 276.1 480.6 270.4C490.2 260.3 495.9 246.8 495.9 232C495.9 201.1 470.8 176 439.9 176C433.1 176 426.6 177.3 420.4 179.6C414.2 181.9 407.2 181.5 401.3 178.5C395.4 175.5 390.9 170.2 389 163.8C380.3 133.8 352.6 112 319.9 112C287.2 112 259.5 133.8 250.8 163.8C248.9 170.2 244.5 175.5 238.6 178.5C232.7 181.5 225.7 181.9 219.4 179.6C213.2 177.3 206.7 176 199.9 176C169 176 143.9 201.1 143.9 232C143.9 246.8 149.7 260.3 159.2 270.4L161.1 272.6C165.1 278.1 166.6 285.1 165.2 291.8C163.6 299.5 158.3 305.9 151 309C127.9 318.7 111.8 341.5 111.8 368z"/><path fill="currentColor" d="M320 64C366.5 64 406.5 90.5 426.5 129C430.9 128.4 435.4 128 440 128C497.4 128 544 174.6 544 232C544 249.1 539.8 265.2 532.4 279.4C558.9 299.9 576 331.9 576 368C576 429.9 525.9 480 464 480L344 480L344 584C344 597.3 333.3 608 320 608C306.7 608 296 597.3 296 584L296 480L176 480C114.1 480 64 429.9 64 368C64 331.9 81.1 299.9 107.5 279.4C100.2 265.2 96 249.1 96 232C96 174.6 142.6 128 200 128C204.6 128 209.1 128.4 213.5 129C233.4 90.4 273.6 64 320 64zM320 112C287.3 112 259.6 133.8 250.9 163.8C249 170.2 244.6 175.5 238.7 178.5C232.8 181.5 225.8 181.9 219.5 179.6C213.3 177.3 206.8 176 200 176C169.1 176 144 201.1 144 232C144 246.8 149.8 260.3 159.3 270.4L161.2 272.6C165.2 278.1 166.7 285.1 165.3 291.8C163.7 299.5 158.4 305.9 151.1 309C128 318.7 111.9 341.5 111.9 368C111.9 403.3 140.6 432 175.9 432L295.9 432L295.9 312C295.9 298.7 306.6 288 319.9 288C333.2 288 343.9 298.7 343.9 312L343.9 432L463.9 432C499.2 432 527.9 403.3 527.9 368C527.9 341.5 511.8 318.7 488.7 309C481.5 305.9 476.2 299.5 474.5 291.8C472.9 284.1 475.1 276.1 480.5 270.4C490.1 260.3 495.8 246.8 495.8 232C495.8 201.1 470.7 176 439.8 176C433 176 426.5 177.3 420.3 179.6C414.1 181.9 407.1 181.5 401.2 178.5C395.3 175.5 390.8 170.2 388.9 163.8C380.3 133.8 352.7 112 320 112z"/></svg>