<svg xmlns="http://www.w3.org/2000/svg" viewBox="0 0 640 640"><!--! Font Awesome Pro 7.2.0 by @fontawesome - https://fontawesome.com License - https://fontawesome.com/license (Commercial License) Copyright 2026 Fonticons, Inc. --><path opacity=".4" fill="currentColor" d="M75.7 464L340.2 464L265.3 375.5C259.3 368.4 257.9 358.4 261.8 349.9C265.7 341.4 274.3 336 283.7 336L309.1 336L235.8 247.3C229.9 240.1 228.6 230.2 232.6 221.8C236.6 213.4 245 208 254.2 208L276.7 208L207.9 125.5L139.1 208L161.6 208C170.9 208 179.4 213.4 183.3 221.8C187.2 230.2 186 240.1 180.1 247.3L106.8 336L132.2 336C141.5 336 150.1 341.4 154 349.9C157.9 358.4 156.6 368.4 150.5 375.5L75.7 464z"/><path fill="currentColor" d="M432 64C439.1 64 445.9 67.2 450.4 72.6L570.4 216.6L572.4 219.4C576.6 226.2 577.1 234.8 573.7 242.2C569.7 250.6 561.3 256 552 256L529.2 256L602.5 344.7C608.4 351.9 609.7 361.8 605.7 370.2C601.7 378.6 593.3 384 584 384L559.4 384L634.3 472.5C640.3 479.6 641.7 489.6 637.8 498.1C633.9 506.6 625.3 512 616 512L456 512L456 552C456 565.3 445.3 576 432 576C418.7 576 408 565.3 408 552L408 512L232 512L232 552C232 565.3 221.3 576 208 576C194.7 576 184 565.3 184 552L184 512L24 512C14.7 512 6.2 506.6 2.2 498.1C-1.8 489.6-.4 479.6 5.7 472.5L80.6 384L56 384C46.7 384 38.2 378.6 34.3 370.2C30.4 361.8 31.6 351.9 37.5 344.7L110.8 256L88 256C78.7 256 70.2 250.6 66.3 242.2C62.4 233.8 63.6 223.8 69.6 216.6L189.6 72.6L191.4 70.7C195.8 66.4 201.8 64 208 64C215.1 64 221.9 67.2 226.4 72.6L346.4 216.6L348.4 219.4C352.6 226.2 353.1 234.8 349.7 242.2C345.7 250.6 337.3 256 328 256L305.2 256L378.5 344.7C384.4 351.9 385.7 361.8 381.7 370.2C377.7 378.6 369.3 384 360 384L335.4 384L403.1 464L564.2 464L489.3 375.5C483.3 368.4 481.9 358.4 485.8 349.9C489.7 341.4 498.3 336 507.7 336L533.1 336L459.8 247.3C453.9 240.1 452.6 230.2 456.6 221.8C460.6 213.4 469 208 478.2 208L500.7 208L432 125.5L382.5 184.9L351.3 147.4L413.6 72.6L415.4 70.7C419.8 66.4 425.8 64 432 64zM139.2 208L161.7 208C171 208 179.5 213.4 183.4 221.8C187.3 230.2 186.1 240.1 180.2 247.3L106.9 336L132.3 336C141.6 336 150.2 341.4 154.1 349.9C158 358.4 156.7 368.4 150.6 375.5L75.7 464L340.2 464L265.3 375.5C259.3 368.4 257.9 358.4 261.8 349.9C265.7 341.4 274.3 336 283.7 336L309.1 336L235.8 247.3C229.9 240.1 228.6 230.2 232.6 221.8C236.6 213.4 245 208 254.2 208L276.7 208L207.9 125.5L139.1 208z"/></svg>