<svg xmlns="http://www.w3.org/2000/svg" viewBox="0 0 640 640"><!--! Font Awesome Pro 7.2.0 by @fontawesome - https://fontawesome.com License - https://fontawesome.com/license (Commercial License) Copyright 2026 Fonticons, Inc. --><path opacity=".4" fill="currentColor" d="M156.8 266.8L229.2 339.2L231.1 320.5C233.6 295.3 239.5 270.8 248.5 247.5C225.2 256.5 200.7 262.4 175.5 264.9L156.8 266.8z"/><path fill="currentColor" d="M430.5 99.5L417.9 112L512 206.1L524.5 193.5C537 181 544 164.1 544 146.5C544 109.8 514.2 80 477.5 80C459.9 80 442.9 87 430.5 99.5zM384 145.9C375.4 154.5 362.6 167.3 345.6 184.3C343 186.9 340.6 189.5 338.1 192.1L432 286.1L478.1 240L384 145.9zM398.1 320L309.4 231.3C292.7 259.9 282.2 291.9 278.8 325.3L273 383.1C270.5 407.7 240.5 418.5 223 400.9L95 273C77.5 255.5 88.2 225.5 112.8 223L170.6 217.2C223.9 211.9 273.7 188.3 311.6 150.4C320.8 141.2 349.1 112.9 396.5 65.5C418 44 447.1 32 477.5 32C536.8 32 585.6 77.1 591.4 134.8C591.8 138.6 592 142.6 592 146.5C592 173.1 582.8 198.7 566.1 219.1C563.7 222 561.2 224.8 558.5 227.5C443.9 342.1 326.1 459.9 204.9 581.1C187.7 598.3 164.3 608 139.9 608C89.2 608 48 566.9 48 516.1C48 491.7 57.7 468.4 74.9 451.1L140.1 385.9L174 419.8L108.8 485C100.6 493.2 95.9 504.4 95.9 516C95.9 540.2 115.5 559.9 139.8 559.9C151.4 559.9 162.6 555.3 170.8 547L351 367.1C351 367.1 351 367.1 351 367.1L398 320.1zM175.5 265L156.8 266.9L229.2 339.3L231.1 320.6C233.6 295.4 239.5 270.9 248.5 247.6C225.2 256.6 200.7 262.5 175.5 265z"/></svg>