<svg xmlns="http://www.w3.org/2000/svg" viewBox="0 0 640 640"><!--! Font Awesome Pro 7.2.0 by @fontawesome - https://fontawesome.com License - https://fontawesome.com/license (Commercial License) Copyright 2026 Fonticons, Inc. --><path opacity=".4" fill="currentColor" d="M80 160L80 448C80 456.8 87.2 464 96 464L99.3 464C109.7 427.1 143.7 400 184 400C224.3 400 258.2 427.1 268.7 464L371.3 464C376.2 446.6 386.4 431.3 400 420.1L400 160C400 151.2 392.8 144 384 144L96 144C87.2 144 80 151.2 80 160zM168 296C168 262.8 202.5 218 223.8 193.6C232.5 183.6 247.6 183.6 256.3 193.6C277.5 218 312.1 262.7 312.1 296C312.1 344 279.9 368 240.1 368C200.3 368 168.1 335.8 168.1 296zM448 368L448 400.4C450.6 400.2 453.3 400 456 400C496.3 400 530.2 427.1 540.7 464L544 464C552.8 464 560 456.8 560 448L560 368L448 368z"/><path fill="currentColor" d="M384 144C392.8 144 400 151.2 400 160L400 420.1C386.4 431.3 376.2 446.6 371.3 464L268.7 464C258.3 427.1 224.3 400 184 400C143.7 400 109.8 427.1 99.3 464L96 464C87.2 464 80 456.8 80 448L80 160C80 151.2 87.2 144 96 144L384 144zM96 512L99.3 512C109.7 548.9 143.7 576 184 576C224.3 576 258.2 548.9 268.7 512L371.3 512C381.7 548.9 415.7 576 456 576C496.3 576 530.2 548.9 540.7 512L544 512C579.3 512 608 483.3 608 448L608 296.6C608 279.6 601.3 263.3 589.3 251.3L548.7 210.7C536.7 198.7 520.4 192 503.4 192L448 192L448 160C448 124.7 419.3 96 384 96L96 96C60.7 96 32 124.7 32 160L32 448C32 483.3 60.7 512 96 512zM448 240L503.4 240C507.6 240 511.7 241.7 514.7 244.7L555.3 285.3C558.3 288.3 560 292.4 560 296.6L560 320L448 320L448 240zM448 400.4L448 368L560 368L560 448C560 456.8 552.8 464 544 464L540.7 464C530.3 427.1 496.3 400 456 400C453.3 400 450.6 400.1 448 400.4zM144 488C144 465.9 161.9 448 184 448C206.1 448 224 465.9 224 488C224 510.1 206.1 528 184 528C161.9 528 144 510.1 144 488zM416 488C416 465.9 433.9 448 456 448C478.1 448 496 465.9 496 488C496 510.1 478.1 528 456 528C433.9 528 416 510.1 416 488zM240 368C279.8 368 312 344 312 296C312 262.8 277.5 218 256.2 193.6C247.5 183.6 232.4 183.6 223.7 193.6C202.5 218 167.9 262.7 167.9 296C167.9 335.8 200.1 368 239.9 368z"/></svg>