<svg xmlns="http://www.w3.org/2000/svg" viewBox="0 0 640 640"><!--! Font Awesome Pro 7.2.0 by @fontawesome - https://fontawesome.com License - https://fontawesome.com/license (Commercial License) Copyright 2026 Fonticons, Inc. --><path opacity=".4" fill="currentColor" d="M48 288L48 320L408 320C467.9 320 519.9 351.4 556.8 382.2C570.2 393.4 582 404.8 592 415.4L592 192.7C582 203.2 570.2 214.7 556.8 225.9C519.9 256.7 467.9 288.1 408 288.1L48 288z"/><path fill="currentColor" d="M592 192.7L592 415.4C582 404.9 570.2 393.4 556.8 382.2C519.9 351.4 467.9 320 408 320L48 320L48 288L408 288C467.9 288 519.9 256.6 556.8 225.8C570.2 214.6 582 203.2 592 192.6zM348.7 368L352 368L352 480L312 480L312 368L348.7 368zM400 480L400 368L408 368C451.4 368 492.6 391.1 526 419C559 446.6 581.5 476.3 587 483.9C592.7 491.8 601.6 496 610.7 496C626.9 496 639.9 482.9 639.9 466.8L639.9 141.3C639.9 125.2 626.8 112.1 610.7 112.1C601.6 112.1 592.6 116.3 587 124.2C581.5 131.8 559.1 161.5 526 189.1C492.6 217 451.4 240.1 408 240.1L400 240.1L400 232.1C400 218.8 389.3 208.1 376 208.1C362.7 208.1 352 218.8 352 232.1L352 240.1L312 240.1L312 232.1C312 218.8 301.3 208.1 288 208.1C274.7 208.1 264 218.8 264 232.1L264 240.1L224 240.1L224 232.1C224 218.8 213.3 208.1 200 208.1C186.7 208.1 176 218.8 176 232.1L176 240.1L48 240.1L48 232.1C48 218.8 37.3 208.1 24 208.1C10.7 208.1 0 218.7 0 232L0 376C0 389.3 10.7 400 24 400C37.3 400 48 389.3 48 376L48 368L80.3 368C70 384.2 64 403.4 64 424C64 481.4 110.6 528 168 528L408 528C454.4 528 493.8 497.6 507.1 455.5C504.9 453.6 502.7 451.6 500.4 449.7C488.4 439.7 476.2 431.1 464 424.4C463.8 455.1 438.8 479.9 408 479.9L400 479.9zM264 480L224 480L224 368L264 368L264 480zM176 480L168 480C137.1 480 112 454.9 112 424C112 393.1 137.1 368 168 368L176 368L176 480z"/></svg>