<svg xmlns="http://www.w3.org/2000/svg" viewBox="0 0 640 640"><!--! Font Awesome Pro 7.2.0 by @fontawesome - https://fontawesome.com License - https://fontawesome.com/license (Commercial License) Copyright 2026 Fonticons, Inc. --><path opacity=".4" fill="currentColor" d="M112 400L112 464L176 464L176 384C176 366.3 190.3 352 208 352L408 352C421.3 352 432 362.7 432 376L432 409.4L521.4 320L432 230.6L432 264C432 277.3 421.3 288 408 288L224 288C162.1 288 112 338.1 112 400z"/><path fill="currentColor" d="M521.4 320L432 409.4L432 376C432 362.7 421.3 352 408 352L208 352C190.3 352 176 366.3 176 384L176 464L112 464L112 400C112 338.1 162.1 288 224 288L408 288C421.3 288 432 277.3 432 264L432 230.6L521.4 320zM566.7 342.6C579.2 330.1 579.2 309.8 566.7 297.3L438.7 169.3C429.5 160.1 415.8 157.4 403.8 162.4L403.8 162.4C391.8 167.4 384 179 384 192L384 240L224 240C135.6 240 64 311.6 64 400L64 480C64 497.7 78.3 512 96 512L192 512C209.7 512 224 497.7 224 480L224 400L384 400L384 448C384 460.9 391.8 472.6 403.8 477.6L403.8 477.6C415.8 482.6 429.5 479.8 438.7 470.7L566.7 342.7L566.7 342.7z"/></svg>