<svg xmlns="http://www.w3.org/2000/svg" viewBox="0 0 640 640"><!--! Font Awesome Pro 7.2.0 by @fontawesome - https://fontawesome.com License - https://fontawesome.com/license (Commercial License) Copyright 2026 Fonticons, Inc. --><path opacity=".4" fill="currentColor" d="M119.1 192L192.5 265.4L192.5 248C192.5 234.8 203.3 224 216.5 224L360.5 224L365.8 224.1C420.8 226.9 464.5 272.3 464.5 328C464.5 383.7 420.8 429.1 365.8 431.9L360.5 432L176.5 432L176.5 496L360.5 496L369.2 495.8C458 491.3 528.5 417.9 528.5 328C528.5 238.1 457.9 164.7 369.1 160.2L360.4 160L216.4 160C203.2 160 192.4 149.2 192.4 136L192.4 118.6L119 192z"/><path fill="currentColor" d="M71.2 211.7C60.9 198.9 64 183.7 70.1 174L73.1 170L74.1 169L185.8 57.3L185.8 57.3L189.7 54C210 39.2 240.4 53.4 240.4 80L240.4 112L360.4 112L371.5 112.3C485.7 118.1 576.5 212.4 576.5 328C576.5 443.6 485.7 537.9 371.6 543.7L360.5 544L160.5 544C142.8 544 128.5 529.7 128.5 512L128.5 416C128.5 398.3 142.8 384 160.5 384L360.5 384L366.2 383.7C394.4 380.8 416.5 357 416.5 328C416.5 299 394.5 275.1 366.2 272.3L360.5 272L240.5 272L240.5 304C240.5 328.5 214.3 343.2 193.5 332.3L190.5 330.4L188.6 329L185.9 326.7L73.9 214.7L71.3 211.8zM192.4 265.4L192.4 248C192.4 234.8 203.2 224 216.4 224L360.4 224L365.7 224.1C420.7 226.9 464.4 272.3 464.4 328C464.4 383.7 420.7 429.1 365.7 431.9L360.4 432L176.4 432L176.4 496L360.4 496L369.1 495.8C457.9 491.3 528.4 417.9 528.4 328C528.4 238.1 457.9 164.7 369.1 160.2L360.4 160L216.4 160C203.2 160 192.4 149.2 192.4 136L192.4 118.6L119 192L192.4 265.4z"/></svg>