<svg xmlns="http://www.w3.org/2000/svg" viewBox="0 0 640 640"><!--! Font Awesome Pro 7.2.0 by @fontawesome - https://fontawesome.com License - https://fontawesome.com/license (Commercial License) Copyright 2026 Fonticons, Inc. --><path opacity=".4" fill="currentColor" d="M144.5 176L144.5 360L144.7 368.7C149.2 457.4 222.6 528 312.5 528C402.4 528 475.8 457.4 480.3 368.7L480.5 360L480.5 216C480.5 202.8 491.2 192 504.5 192L521.9 192L448.5 118.6L375.1 192L392.5 192C405.8 192 416.5 202.8 416.5 216L416.5 360L416.4 365.3C413.6 420.3 368.2 464 312.5 464C256.8 464 211.4 420.3 208.6 365.3L208.5 360L208.5 176L144.5 176z"/><path fill="currentColor" d="M428.7 70.7C441.5 60.4 456.7 63.5 466.4 69.6L470.4 72.6L471.4 73.6L583.1 185.3L583.1 185.3L586.4 189.2C601.2 209.5 587 239.9 560.4 239.9L528.4 239.9L528.4 359.9L528.1 371C522.4 485.2 428 576 312.5 576C197 576 102.5 485.2 96.7 371.1L96.4 360L96.4 160C96.4 142.3 110.7 128 128.4 128L224.4 128C242.1 128 256.4 142.3 256.4 160L256.4 360L256.7 365.7C259.6 393.9 283.4 416 312.4 416C341.4 416 365.3 394 368.1 365.7L368.4 360L368.4 240L336.4 240C312 240 297.2 213.8 308.1 193L310 190L311.4 188.1L313.7 185.4L425.7 73.4L428.6 70.8zM375.1 192L392.5 192C405.8 192 416.5 202.8 416.5 216L416.5 360L416.4 365.3C413.6 420.3 368.2 464 312.5 464C256.8 464 211.4 420.3 208.6 365.3L208.5 360L208.5 176L144.5 176L144.5 360L144.7 368.7C149.2 457.4 222.6 528 312.5 528C402.4 528 475.8 457.4 480.3 368.7L480.5 360L480.5 216C480.5 202.8 491.2 192 504.5 192L521.9 192L448.5 118.6L375.1 192z"/></svg>