<svg xmlns="http://www.w3.org/2000/svg" viewBox="0 0 640 640"><!--! Font Awesome Pro 7.2.0 by @fontawesome - https://fontawesome.com License - https://fontawesome.com/license (Commercial License) Copyright 2026 Fonticons, Inc. --><path opacity=".4" fill="currentColor" d="M120 576L192 576L192 528C192 510.3 206.3 496 224 496L416 496C433.7 496 448 510.3 448 528L448 576L520 576C506.7 576 496 565.3 496 552C496 493.3 453.8 444.4 398.1 434C373.8 443 347.5 448 320 448C292.5 448 266.2 443.1 241.9 434C186.2 444.4 144 493.2 144 552C144 565.3 133.3 576 120 576zM192 224C192 294.7 249.3 352 320 352C390.7 352 448 294.7 448 224C448 153.3 390.7 96 320 96C249.3 96 192 153.3 192 224zM224 240C224 195.8 259.8 160 304 160L336 160C380.2 160 416 195.8 416 240C416 284.2 380.2 320 336 320L304 320C259.8 320 224 284.2 224 240z"/><path fill="currentColor" d="M448 224C448 153.3 390.7 96 320 96C249.3 96 192 153.3 192 224C192 294.7 249.3 352 320 352C390.7 352 448 294.7 448 224zM320 48C394.6 48 458.4 94.4 484 160L488 160C501.3 160 512 170.7 512 184L512 264C512 277.3 501.3 288 488 288L484 288C458.4 353.6 394.6 400 320 400C245.4 400 181.6 353.6 156 288L152 288C138.7 288 128 277.3 128 264L128 184C128 170.7 138.7 160 152 160L156 160C181.6 94.4 245.4 48 320 48zM224 240C224 195.8 259.8 160 304 160L336 160C380.2 160 416 195.8 416 240C416 284.2 380.2 320 336 320L304 320C259.8 320 224 284.2 224 240zM309.3 226.7L303.3 205.5C302.4 202.2 299.4 200 296 200C292.6 200 289.6 202.2 288.7 205.5L282.7 226.7L261.5 232.7C258.2 233.6 256 236.6 256 240C256 243.4 258.2 246.4 261.5 247.3L282.7 253.3L288.7 274.5C289.6 277.8 292.6 280 296 280C299.4 280 302.4 277.8 303.3 274.5L309.3 253.3L330.5 247.3C333.8 246.4 336 243.4 336 240C336 236.6 333.8 233.6 330.5 232.7L309.3 226.7zM185.7 403.3C202.7 416.1 221.6 426.5 241.9 434C186.2 444.4 144 493.2 144 552C144 565.3 133.3 576 120 576C106.7 576 96 565.3 96 552C96 487.5 132.4 431.5 185.7 403.3zM398.1 434C418.4 426.5 437.3 416.1 454.3 403.3C507.7 431.4 544 487.5 544 552C544 565.3 533.3 576 520 576C506.7 576 496 565.3 496 552C496 493.3 453.8 444.4 398.1 434zM224 496L416 496C433.7 496 448 510.3 448 528L448 576L392 576L392 552C392 538.7 381.3 528 368 528C354.7 528 344 538.7 344 552L344 576L296 576L296 552C296 538.7 285.3 528 272 528C258.7 528 248 538.7 248 552L248 576L192 576L192 528C192 510.3 206.3 496 224 496z"/></svg>