<svg xmlns="http://www.w3.org/2000/svg" viewBox="0 0 640 640"><!--! Font Awesome Pro 7.2.0 by @fontawesome - https://fontawesome.com License - https://fontawesome.com/license (Commercial License) Copyright 2026 Fonticons, Inc. --><path opacity=".4" fill="currentColor" d="M216 448C229.3 448 240 437.3 240 424L240 416C240 389.5 261.5 368 288 368L352 368C378.5 368 400 389.5 400 416L400 424C400 437.3 410.7 448 424 448L216 448zM352 192C352 209.7 337.7 224 320 224C302.3 224 288 209.7 288 192C288 174.3 302.3 160 320 160C337.7 160 352 174.3 352 192z"/><path fill="currentColor" d="M320 160C337.7 160 352 174.3 352 192C352 209.7 337.7 224 320 224C302.3 224 288 209.7 288 192C288 174.3 302.3 160 320 160zM320 272C364.2 272 400 236.2 400 192C400 147.8 364.2 112 320 112C275.8 112 240 147.8 240 192C240 236.2 275.8 272 320 272zM192 192C192 175.8 195 160.2 200.5 145.9C195.2 144.7 189.6 144 184 144C144.2 144 112 176.2 112 216C112 255.8 144.2 288 184 288C198.6 288 212.2 283.6 223.6 276.2C213 264.1 204.7 250 199.3 234.6C195.2 238 189.8 240.1 184.1 240.1C170.8 240.1 160.1 229.4 160.1 216.1C160.1 202.8 170.8 192.1 184.1 192.1C186.9 192.1 189.6 192.6 192.1 193.5L192.1 192.1zM456 288C495.8 288 528 255.8 528 216C528 176.2 495.8 144 456 144C450.3 144 444.8 144.7 439.5 145.9C445 160.2 448 175.7 448 192L448 193.4C450.5 192.5 453.2 192 456 192C469.3 192 480 202.7 480 216C480 229.3 469.3 240 456 240C450.2 240 444.9 238 440.8 234.5C435.4 249.9 427 264 416.5 276.1C427.9 283.6 441.5 287.9 456.1 287.9zM64 416L64 424C64 437.3 74.7 448 88 448C101.3 448 112 437.3 112 424L112 416C112 391 131.1 370.5 155.4 368.2C162.8 350.2 173.4 333.9 186.6 320L160 320C107 320 64 363 64 416zM484.6 368.2C508.9 370.5 528 391 528 416L528 424C528 437.3 538.7 448 552 448C565.3 448 576 437.3 576 424L576 416C576 363 533 320 480 320L453.3 320C466.5 333.9 477.2 350.2 484.5 368.2zM288 320C235 320 192 363 192 416L192 424C192 437.3 202.7 448 216 448C229.3 448 240 437.3 240 424L240 416C240 389.5 261.5 368 288 368L352 368C378.5 368 400 389.5 400 416L400 424C400 437.3 410.7 448 424 448C437.3 448 448 437.3 448 424L448 416C448 363 405 320 352 320L288 320zM56 496C42.7 496 32 506.7 32 520C32 533.3 42.7 544 56 544L584 544C597.3 544 608 533.3 608 520C608 506.7 597.3 496 584 496L56 496z"/></svg>