<svg xmlns="http://www.w3.org/2000/svg" viewBox="0 0 640 640"><!--! Font Awesome Pro 7.2.0 by @fontawesome - https://fontawesome.com License - https://fontawesome.com/license (Commercial License) Copyright 2026 Fonticons, Inc. --><path opacity=".4" fill="currentColor" d="M57.4 576C97 576 136.5 576 176 576C149.5 576 128 554.5 128 528C128 510.2 137.7 494.7 152 486.4L152 442C109.6 460.5 80 502.8 80 552C80 564.8 70 575.3 57.4 576zM176 192C176 236.2 211.8 272 256 272C278.2 272 298.3 262.9 312.8 248.3C307.1 236 304 222.4 304 208L304 128C290.6 118 274 112 256 112C211.8 112 176 147.8 176 192zM176 576L454 576C441.7 574.9 432 564.6 432 552C432 496.8 394.7 450.3 344 436.3L344 473C365.2 482.3 380 503.4 380 528L380 552C380 563 371 572 360 572C349 572 340 563 340 552L340 528C340 517 331 508 320 508C309 508 300 517 300 528L300 552C300 563 291 572 280 572C269 572 260 563 260 552L260 528C260 503.4 274.8 482.3 296 473L296 432L200 432L200 486.4C214.3 494.7 224 510.2 224 528C224 554.5 202.5 576 176 576z"/><path fill="currentColor" d="M304 112C304 99.4 306.4 87.3 310.9 76.3C294.2 68.4 275.6 64 256 64C185.3 64 128 121.3 128 192C128 262.7 185.3 320 256 320C289.8 320 320.5 306.9 343.4 285.5C330.3 275.9 319.7 263.1 312.9 248.3C298.4 262.9 278.3 272 256.1 272C211.9 272 176.1 236.2 176.1 192C176.1 147.8 211.9 112 256.1 112C274.1 112 290.7 118 304.1 128L304.1 112zM200 486.4L200 432L296 432L296 473C274.8 482.3 260 503.4 260 528L260 552C260 563 269 572 280 572C291 572 300 563 300 552L300 528C300 517 309 508 320 508C331 508 340 517 340 528L340 552C340 563 349 572 360 572C371 572 380 563 380 552L380 528C380 503.4 365.2 482.3 344 473L344 436.3C394.7 450.3 432 496.8 432 552C432 565.3 442.7 576 456 576C469.3 576 480 565.3 480 552C480 459.2 404.8 384 312 384L200 384C107.2 384 32 459.2 32 552C32 565.3 42.7 576 56 576C69.3 576 80 565.3 80 552C80 502.8 109.6 460.5 152 442L152 486.4C137.7 494.7 128 510.2 128 528C128 554.5 149.5 576 176 576C202.5 576 224 554.5 224 528C224 510.2 214.3 494.7 200 486.4zM352 112L352 208C352 234.5 373.5 256 400 256L416 256L416 297.4C416 311.7 433.2 318.8 443.3 308.7L496 256L560 256C586.5 256 608 234.5 608 208L608 112C608 85.5 586.5 64 560 64L400 64C373.5 64 352 85.5 352 112z"/></svg>