<svg xmlns="http://www.w3.org/2000/svg" viewBox="0 0 640 640"><!--! Font Awesome Pro 7.2.0 by @fontawesome - https://fontawesome.com License - https://fontawesome.com/license (Commercial License) Copyright 2026 Fonticons, Inc. --><path opacity=".4" fill="currentColor" d="M56 576C69.3 576 80 565.3 80 552L80 544C80 473.3 137.3 416 208 416L304.5 416C304.2 418.7 304 421.5 304 424.2L304 432.2C304 491.6 333.4 544.1 378.5 576L56 576zM336 192C336 236.2 300.2 272 256 272C211.8 272 176 236.2 176 192C176 147.8 211.8 112 256 112C300.2 112 336 147.8 336 192z"/><path fill="currentColor" d="M336 192C336 147.8 300.2 112 256 112C211.8 112 176 147.8 176 192C176 236.2 211.8 272 256 272C300.2 272 336 236.2 336 192zM128 192C128 121.3 185.3 64 256 64C326.7 64 384 121.3 384 192C384 262.7 326.7 320 256 320C185.3 320 128 262.7 128 192zM80 544L80 552C80 565.3 69.3 576 56 576C42.7 576 32 565.3 32 552L32 544C32 446.8 110.8 368 208 368L304 368C312.5 368 320.8 368.6 328.9 369.8C315.6 381.3 306.5 397.6 304.4 416L208 416C137.3 416 80 473.3 80 544zM432 336C432 309.5 453.5 288 480 288C506.5 288 528 309.5 528 336L528 432C528 458.5 506.5 480 480 480C453.5 480 432 458.5 432 432L432 336zM376 400C389.3 400 400 410.7 400 424L400 432C400 476.2 435.8 512 480 512C524.2 512 560 476.2 560 432L560 424C560 410.7 570.7 400 584 400C597.3 400 608 410.7 608 424L608 432C608 494.5 563.2 546.5 504 557.8L504 584C504 597.3 493.3 608 480 608C466.7 608 456 597.3 456 584L456 557.8C396.8 546.5 352 494.5 352 432L352 424C352 410.7 362.7 400 376 400z"/></svg>