<svg xmlns="http://www.w3.org/2000/svg" viewBox="0 0 640 640"><!--! Font Awesome Pro 7.2.0 by @fontawesome - https://fontawesome.com License - https://fontawesome.com/license (Commercial License) Copyright 2026 Fonticons, Inc. --><path opacity=".4" fill="currentColor" d="M241.6 208L398.4 208C391 244.5 358.7 272 320 272C281.3 272 249 244.5 241.6 208zM259.7 432.1C261.1 432 262.6 432 264 432L376 432C442.3 432 496 485.7 496 552C496 564.6 505.7 574.9 518 576L356 576C389.1 576 416 549.1 416 516C416 482.9 389.1 456 356 456L272.3 456L259.6 432.1zM297.7 504L356 504C362.6 504 368 509.4 368 516C368 522.6 362.6 528 356 528L310.4 528L297.7 504z"/><path fill="currentColor" d="M320 272C358.7 272 391 244.5 398.4 208L241.6 208C249 244.5 281.3 272 320 272zM319.1 112C286.7 112.4 258.9 132 246.7 160L290.3 160L319.1 112zM359.5 122.4L336.9 160L393.3 160C386.4 144.1 374.4 130.9 359.4 122.4zM448 192C448 262.7 390.7 320 320 320C249.3 320 192 262.7 192 192C192 121.3 249.3 64 320 64C390.7 64 448 121.3 448 192zM146.4 528L256.1 528L211.6 444C178.5 460.1 153.9 490.9 146.3 528zM120 576C106.7 576 96 565.3 96 552C96 459.2 171.2 384 264 384L376 384C468.8 384 544 459.2 544 552C544 565.3 533.3 576 520 576C506.7 576 496 565.3 496 552C496 485.7 442.3 432 376 432L264 432C262.5 432 261.1 432 259.7 432.1L272.4 456L356.1 456C389.2 456 416.1 482.9 416.1 516C416.1 549.1 389.2 576 356.1 576L296.6 576C296.3 576 296 576 295.6 576L120 576zM310.4 528L356 528C362.6 528 368 522.6 368 516C368 509.4 362.6 504 356 504L297.7 504L310.4 528z"/></svg>