<svg xmlns="http://www.w3.org/2000/svg" viewBox="0 0 640 640"><!--! Font Awesome Pro 7.2.0 by @fontawesome - https://fontawesome.com License - https://fontawesome.com/license (Commercial License) Copyright 2026 Fonticons, Inc. --><path opacity=".4" fill="currentColor" d="M120 576C133.3 576 144 565.3 144 552L144 544C144 487.2 181.1 438.9 232.4 422.2L302.6 496.4C307.1 501.2 313.4 503.9 320 503.9C326.6 503.9 332.9 501.2 337.4 496.4L407.6 422.2C458.9 438.9 496 487.2 496 544L496 552C496 565.3 506.7 576 520 576L120 576zM240 192L283.9 192C307.2 192 329.6 183.6 347.1 168.2L380.2 139.3C392.5 153.4 400 171.8 400 192L400 208C400 252.2 364.2 288 320 288C275.8 288 240 252.2 240 208L240 192z"/><path fill="currentColor" d="M400 192C400 171.8 392.5 153.4 380.2 139.3L347.1 168.2C329.6 183.5 307.1 192 283.9 192L240 192L240 208C240 252.2 275.8 288 320 288C364.2 288 400 252.2 400 208L400 192zM192 192C192 153.1 209.4 118.2 236.8 94.7C240.4 90.9 244.7 87.6 249.4 85.2C269.6 71.8 293.9 64 320 64C390.7 64 448 121.3 448 192L448 216.2C448 241.7 458.1 266.1 476.1 284.1L489.4 297.4C493.6 301.6 496 307.4 496 313.4C496 325.9 485.9 336 473.4 336L166.6 336C154.1 336 144 325.9 144 313.4C144 307.4 146.4 301.6 150.6 297.4L163.9 284.1C181.9 266.1 192 241.7 192 216.2L192 192zM257.4 378.9L320 445.1L382.6 378.9C388.4 372.8 396.9 370.2 405.1 371.9C484.5 388.9 544.1 459.5 544.1 544L544.1 552C544.1 565.3 533.4 576 520.1 576C506.8 576 496.1 565.3 496.1 552L496.1 544C496.1 487.2 459 438.9 407.7 422.2L337.5 496.4C333 501.2 326.7 503.9 320.1 503.9C313.5 503.9 307.2 501.2 302.7 496.4L232.5 422.2C181.1 438.9 144 487.2 144 544L144 552C144 565.3 133.3 576 120 576C106.7 576 96 565.3 96 552L96 544C96 459.5 155.6 388.9 235 371.9C243.2 370.1 251.7 372.8 257.5 378.9z"/></svg>