<svg xmlns="http://www.w3.org/2000/svg" viewBox="0 0 640 640"><!--! Font Awesome Pro 7.2.0 by @fontawesome - https://fontawesome.com License - https://fontawesome.com/license (Commercial License) Copyright 2026 Fonticons, Inc. --><path opacity=".4" fill="currentColor" d="M128.5 512L128.8 518.5C131.3 542.7 147.2 562.9 169 571.5C145.3 562.1 128.5 539 128.5 511.9zM128.8 218C131.6 188.1 154.9 164.3 184.5 160.6L184.5 160.5C154.9 164.2 131.6 188.1 128.8 218zM176.5 224L176.5 512C176.5 520.8 183.7 528 192.5 528L448.5 528C457.3 528 464.5 520.8 464.5 512L464.5 282.5C464.5 278.3 462.8 274.2 459.8 271.2L401.3 212.7C398.3 209.7 394.2 208 390 208L192.5 208C183.7 208 176.5 215.2 176.5 224zM207.5 287C216.9 277.6 232.1 277.6 241.4 287L266.4 312L374.5 312L399.5 287C408.9 277.6 424.1 277.6 433.4 287C442.7 296.4 442.8 311.6 433.4 320.9L408.4 345.9L408.4 422L433.4 447C442.8 456.4 442.8 471.6 433.4 480.9C424 490.2 408.8 490.3 399.5 480.9L374.5 455.9L266.4 455.9L241.4 480.9C232 490.3 216.8 490.3 207.5 480.9C198.2 471.5 198.1 456.3 207.5 447L232.5 422L232.5 345.9L207.5 320.9C198.1 311.5 198.1 296.3 207.5 287zM280.5 360L280.5 408L360.5 408L360.5 360L280.5 360zM400.5 160.9L400.5 160.9C413.6 163.1 425.8 169.2 435.2 178.7C425.7 169.2 413.5 163 400.5 160.8zM448.5 576L455 575.7C481.2 573 502.8 554.5 509.9 529.9C502.2 556.5 477.6 576 448.4 576z"/><path fill="currentColor" d="M344.5 64C375.4 64 400.5 89.1 400.5 120L400.5 160.9C413.6 163.1 425.8 169.2 435.2 178.7L493.7 237.2C505.7 249.2 512.4 265.5 512.4 282.4L512.4 511.9C512.4 545 487.2 572.3 454.9 575.6L448.4 575.9L192.4 575.9C159.3 575.9 132 550.7 128.7 518.4L128.4 511.9L128.4 223.9C128.4 191.3 152.8 164.4 184.4 160.5L184.4 119.9C184.4 89 209.5 63.9 240.4 63.9L344.4 63.9zM192.5 208C183.7 208 176.5 215.2 176.5 224L176.5 512C176.5 520.8 183.7 528 192.5 528L448.5 528C457.3 528 464.5 520.8 464.5 512L464.5 282.5C464.5 278.3 462.8 274.2 459.8 271.2L401.3 212.7C398.3 209.7 394.2 208 390 208L192.5 208zM399.5 287C408.9 277.6 424.1 277.6 433.4 287C442.7 296.4 442.8 311.6 433.4 320.9L408.4 345.9L408.4 422L433.4 447C442.8 456.4 442.8 471.6 433.4 480.9C424 490.2 408.8 490.3 399.5 480.9L374.5 455.9L266.4 455.9L241.4 480.9C232 490.3 216.8 490.3 207.5 480.9C198.2 471.5 198.1 456.3 207.5 447L232.5 422L232.5 345.9L207.5 320.9C198.1 311.5 198.1 296.3 207.5 287C216.9 277.7 232.1 277.6 241.4 287L266.4 312L374.5 312L399.5 287zM280.5 408L360.5 408L360.5 360L280.5 360L280.5 408zM463.5 111C472.9 101.6 488.1 101.6 497.4 111L561.4 175C570.8 184.4 570.8 199.6 561.4 208.9C552 218.2 536.8 218.3 527.5 208.9L463.5 144.9C454.1 135.5 454.1 120.3 463.5 111zM240.5 112C236.1 112 232.5 115.6 232.5 120L232.5 160L352.5 160L352.5 120C352.5 115.6 348.9 112 344.5 112L240.5 112z"/></svg>