<svg xmlns="http://www.w3.org/2000/svg" viewBox="0 0 640 640"><!--! Font Awesome Pro 7.2.0 by @fontawesome - https://fontawesome.com License - https://fontawesome.com/license (Commercial License) Copyright 2026 Fonticons, Inc. --><path opacity=".4" fill="currentColor" d="M112 320C112 434.9 205.1 528 320 528C434.9 528 528 434.9 528 320C528 205.1 434.9 112 320 112C205.1 112 112 205.1 112 320zM191 351C200.4 341.6 215.6 341.6 224.9 351L288.9 415C298.3 424.4 298.3 439.6 288.9 448.9C279.5 458.2 264.3 458.3 255 448.9L191 384.9C181.6 375.5 181.6 360.3 191 351zM207 207C269.4 144.6 370.5 144.6 432.9 207C495.3 269.4 495.3 370.5 432.9 432.9C423.5 442.3 408.3 442.3 399 432.9C389.7 423.5 389.6 408.3 399 399C442.6 355.4 442.6 284.6 399 240.9C355.4 197.2 284.6 197.3 241 241C231.6 250.4 216.4 250.4 207.1 241C197.8 231.6 197.7 216.4 207.1 207.1zM255 287C264.4 277.6 279.6 277.6 288.9 287L352.9 351C362.3 360.4 362.3 375.6 352.9 384.9C343.5 394.2 328.3 394.3 319 384.9L255 320.9C245.6 311.5 245.6 296.3 255 287z"/><path fill="currentColor" d="M320 112C434.9 112 528 205.1 528 320C528 434.9 434.9 528 320 528C205.1 528 112 434.9 112 320C112 205.1 205.1 112 320 112zM320 576C461.4 576 576 461.4 576 320C576 178.6 461.4 64 320 64C178.6 64 64 178.6 64 320C64 461.4 178.6 576 320 576zM399 241C442.6 284.6 442.6 355.4 399 399.1C389.6 408.5 389.6 423.7 399 433C408.4 442.3 423.6 442.4 432.9 433C495.3 370.6 495.3 269.4 432.9 207.1C370.5 144.8 269.4 144.6 207 207C197.6 216.4 197.6 231.6 207 240.9C216.4 250.2 231.6 250.3 240.9 240.9C284.5 197.3 355.3 197.3 399 240.9zM289 287C279.6 277.6 264.4 277.6 255.1 287C245.8 296.4 245.7 311.6 255.1 320.9L319.1 384.9C328.5 394.3 343.7 394.3 353 384.9C362.3 375.5 362.4 360.3 353 351L289 287zM225 351C215.6 341.6 200.4 341.6 191.1 351C181.8 360.4 181.7 375.6 191.1 384.9L255.1 448.9C264.5 458.3 279.7 458.3 289 448.9C298.3 439.5 298.4 424.3 289 415L225 351z"/></svg>