<svg xmlns="http://www.w3.org/2000/svg" viewBox="0 0 640 640"><!--! Font Awesome Pro 7.2.0 by @fontawesome - https://fontawesome.com License - https://fontawesome.com/license (Commercial License) Copyright 2026 Fonticons, Inc. --><path opacity=".4" fill="currentColor" d="M80 192L80 400C80 408.8 87.2 416 96 416L105.6 416C120.2 387.5 149.8 368 184 368C218.2 368 247.8 387.5 262.4 416L377.6 416C392.2 387.5 421.8 368 456 368C490.2 368 519.8 387.5 534.4 416L544 416C552.8 416 560 408.8 560 400L560 320L448 320C424.3 320 403.6 307.1 392.6 288L384 288L384 176L96 176C87.2 176 80 183.2 80 192z"/><path fill="currentColor" d="M96 176L384 176L384 256C384 291.3 412.7 320 448 320L560 320L560 400C560 408.8 552.8 416 544 416L534.4 416C519.8 387.5 490.2 368 456 368C421.8 368 392.2 387.5 377.6 416L262.4 416C247.8 387.5 218.2 368 184 368C149.8 368 120.2 387.5 105.6 416L96 416C87.2 416 80 408.8 80 400L80 192C80 183.2 87.2 176 96 176zM543.6 464L544 464C579.3 464 608 435.3 608 400L608 301.5C608 287.4 603.4 273.8 594.8 262.6L511.1 153.1C499 137.3 480.2 128 460.2 128L96 128C60.7 128 32 156.7 32 192L32 400C32 435.3 60.7 464 96 464L96.4 464C100.4 508.9 138.1 544 184 544C229.9 544 267.6 508.9 271.6 464L368.3 464C372.3 508.9 410 544 455.9 544C501.8 544 539.5 508.9 543.5 464zM432 176L460.2 176C465.2 176 469.9 178.3 472.9 182.3L541.5 272L447.9 272C439.1 272 431.9 264.8 431.9 256L431.9 176zM416 456C416 433.9 433.9 416 456 416C478.1 416 496 433.9 496 456C496 478.1 478.1 496 456 496C433.9 496 416 478.1 416 456zM184 416C206.1 416 224 433.9 224 456C224 478.1 206.1 496 184 496C161.9 496 144 478.1 144 456C144 433.9 161.9 416 184 416z"/></svg>