<svg xmlns="http://www.w3.org/2000/svg" viewBox="0 0 640 640"><!--! Font Awesome Pro 7.2.0 by @fontawesome - https://fontawesome.com License - https://fontawesome.com/license (Commercial License) Copyright 2026 Fonticons, Inc. --><path opacity=".4" fill="currentColor" d="M112 160L112 480C112 488.8 119.2 496 128 496L512 496C520.8 496 528 488.8 528 480L528 160C528 151.2 520.8 144 512 144L128 144C119.2 144 112 151.2 112 160zM400 320C400 390.7 342.7 448 272 448C201.3 448 144 390.7 144 320C144 249.3 201.3 192 272 192C342.7 192 400 249.3 400 320zM440 248C440 234.7 450.7 224 464 224C477.3 224 488 234.7 488 248L488 392C488 405.3 477.3 416 464 416C450.7 416 440 405.3 440 392L440 248z"/><path fill="currentColor" d="M128 144C119.2 144 112 151.2 112 160L112 480C112 488.8 119.2 496 128 496L512 496C520.8 496 528 488.8 528 480L528 160C528 151.2 520.8 144 512 144L128 144zM64 160C64 124.7 92.7 96 128 96L512 96C547.3 96 576 124.7 576 160L576 480C576 515.3 547.3 544 512 544L512 552C512 565.3 501.3 576 488 576C474.7 576 464 565.3 464 552L464 544L176 544L176 552C176 565.3 165.3 576 152 576C138.7 576 128 565.3 128 552L128 544C92.7 544 64 515.3 64 480L64 160zM352 320C352 275.8 316.2 240 272 240C227.8 240 192 275.8 192 320C192 364.2 227.8 400 272 400C316.2 400 352 364.2 352 320zM144 320C144 249.3 201.3 192 272 192C342.7 192 400 249.3 400 320C400 390.7 342.7 448 272 448C201.3 448 144 390.7 144 320zM464 224C477.3 224 488 234.7 488 248L488 392C488 405.3 477.3 416 464 416C450.7 416 440 405.3 440 392L440 248C440 234.7 450.7 224 464 224zM272 288C289.7 288 304 302.3 304 320C304 337.7 289.7 352 272 352C254.3 352 240 337.7 240 320C240 302.3 254.3 288 272 288z"/></svg>