<svg xmlns="http://www.w3.org/2000/svg" viewBox="0 0 640 640"><!--! Font Awesome Pro 7.2.0 by @fontawesome - https://fontawesome.com License - https://fontawesome.com/license (Commercial License) Copyright 2026 Fonticons, Inc. --><path opacity=".4" fill="currentColor" d="M120 320C120 333.3 109.3 344 96 344C82.7 344 72 333.3 72 320C72 306.7 82.7 296 96 296C109.3 296 120 306.7 120 320zM344 96C344 109.3 333.3 120 320 120C306.7 120 296 109.3 296 96C296 82.7 306.7 72 320 72C333.3 72 344 82.7 344 96zM344 544C344 557.3 333.3 568 320 568C306.7 568 296 557.3 296 544C296 530.7 306.7 520 320 520C333.3 520 344 530.7 344 544zM568 320C568 333.3 557.3 344 544 344C530.7 344 520 333.3 520 320C520 306.7 530.7 296 544 296C557.3 296 568 306.7 568 320z"/><path fill="currentColor" d="M320 120C333.3 120 344 109.3 344 96C344 82.7 333.3 72 320 72C306.7 72 296 82.7 296 96C296 109.3 306.7 120 320 120zM258.1 79.8C265.2 52.3 290.3 32 320 32C349.7 32 374.8 52.3 381.9 79.8C469.1 102.2 537.8 170.9 560.2 258.1C587.7 265.3 608 290.3 608 320C608 349.7 587.7 374.8 560.2 381.9C537.8 469.1 469.1 537.8 381.9 560.2C374.7 587.7 349.7 608 320 608C290.3 608 265.2 587.7 258.1 560.2C170.9 537.8 102.2 469.1 79.8 381.9C52.3 374.8 32 349.7 32 320C32 290.3 52.3 265.2 79.8 258.1C102.2 170.9 170.9 102.2 258.1 79.8zM264.5 127.8C198.7 146.8 146.8 198.6 127.9 264.4C147.1 275.4 160.1 296.2 160.1 319.9C160.1 343.6 147.1 364.4 127.9 375.4C146.9 441.2 198.7 493.1 264.5 512C275.5 492.8 296.3 479.8 320 479.8C343.7 479.8 364.5 492.8 375.5 512C441.3 493 493.2 441.2 512.1 375.4C492.9 364.4 479.9 343.6 479.9 319.9C479.9 296.2 492.9 275.4 512.1 264.4C493.2 198.7 441.3 146.8 375.5 127.8C364.5 147 343.8 160 320 160C296.2 160 275.5 147 264.5 127.8zM520 320C520 333.3 530.7 344 544 344C557.3 344 568 333.3 568 320C568 306.7 557.3 296 544 296C530.7 296 520 306.7 520 320zM296 544C296 557.3 306.7 568 320 568C333.3 568 344 557.3 344 544C344 530.7 333.3 520 320 520C306.7 520 296 530.7 296 544zM72 320C72 333.3 82.7 344 96 344C109.3 344 120 333.3 120 320C120 306.7 109.3 296 96 296C82.7 296 72 306.7 72 320z"/></svg>