<svg xmlns="http://www.w3.org/2000/svg" viewBox="0 0 640 640"><!--! Font Awesome Pro 7.2.0 by @fontawesome - https://fontawesome.com License - https://fontawesome.com/license (Commercial License) Copyright 2026 Fonticons, Inc. --><path opacity=".4" fill="currentColor" d="M112 288L112 480C112 488.8 119.2 496 128 496L384 496C392.8 496 400 488.8 400 480L400 288C400 279.2 392.8 272 384 272L128 272C119.2 272 112 279.2 112 288zM160 344C160 330.7 170.7 320 184 320L328 320C341.3 320 352 330.7 352 344C352 357.3 341.3 368 328 368L184 368C170.7 368 160 357.3 160 344zM496 360L496 408L560 456L560 312L496 360z"/><path fill="currentColor" d="M200 144C177.9 144 160 161.9 160 184L160 224L384 224C419.3 224 448 252.7 448 288L448 480C448 515.3 419.3 544 384 544L128 544C92.7 544 64 515.3 64 480L64 288C64 258.2 84.4 233.1 112 226L112 184C112 135.4 151.4 96 200 96L360 96C373.3 96 384 106.7 384 120C384 133.3 373.3 144 360 144L200 144zM128 272C119.2 272 112 279.2 112 288L112 480C112 488.8 119.2 496 128 496L384 496C392.8 496 400 488.8 400 480L400 288C400 279.2 392.8 272 384 272L128 272zM184 320L328 320C341.3 320 352 330.7 352 344C352 357.3 341.3 368 328 368L184 368C170.7 368 160 357.3 160 344C160 330.7 170.7 320 184 320zM569.6 244.8C573.8 241.7 578.8 240 584 240C597.3 240 608 250.7 608 264L608 504C608 517.3 597.3 528 584 528C578.8 528 573.8 526.3 569.6 523.2L496 468L496 408L560 456L560 312L496 360L496 300L569.6 244.8z"/></svg>