<svg xmlns="http://www.w3.org/2000/svg" viewBox="0 0 640 640"><!--! Font Awesome Pro 7.2.0 by @fontawesome - https://fontawesome.com License - https://fontawesome.com/license (Commercial License) Copyright 2026 Fonticons, Inc. --><path opacity=".4" fill="currentColor" d="M112 192L112 448C112 456.8 119.2 464 128 464L384 464C392.8 464 400 456.8 400 448L400 192C400 183.2 392.8 176 384 176L128 176C119.2 176 112 183.2 112 192zM178.8 277.2C178.8 234.6 213.4 200 256 200C298.6 200 333.2 234.6 333.2 277.2C333.2 322.7 298.7 341.9 279.5 349C277.2 359.8 267.6 368 256 368C242.7 368 232 357.3 232 344C232 323.8 246.6 309.4 261.5 304.5C267.5 302.5 273.8 299.4 278.3 295C282.2 291.2 285.2 286 285.2 277.3C285.2 261.2 272.1 248.1 256 248.1C239.9 248.1 226.8 261.2 226.8 277.3C226.8 290.6 216.1 301.3 202.8 301.3C189.5 301.3 178.8 290.6 178.8 277.3zM284 416C284 431.5 271.5 444 256 444C240.5 444 228 431.5 228 416C228 400.5 240.5 388 256 388C271.5 388 284 400.5 284 416zM496 296L496 344L560 392L560 248L496 296z"/><path fill="currentColor" d="M384 176C392.8 176 400 183.2 400 192L400 448C400 456.8 392.8 464 384 464L128 464C119.2 464 112 456.8 112 448L112 192C112 183.2 119.2 176 128 176L384 176zM128 128C92.7 128 64 156.7 64 192L64 448C64 483.3 92.7 512 128 512L384 512C419.3 512 448 483.3 448 448L448 192C448 156.7 419.3 128 384 128L128 128zM496 236L496 296L560 248L560 392L496 344L496 404L569.6 459.2C573.8 462.3 578.8 464 584 464C597.3 464 608 453.3 608 440L608 200C608 186.7 597.3 176 584 176C578.8 176 573.8 177.7 569.6 180.8L496 236zM256 248C272.1 248 285.2 261.1 285.2 277.2C285.2 285.9 282.1 291.1 278.3 294.9C273.8 299.3 267.6 302.4 261.5 304.4C246.6 309.4 232 323.7 232 343.9C232 357.2 242.7 367.9 256 367.9C267.5 367.9 277.2 359.8 279.5 348.9C298.7 341.8 333.2 322.6 333.2 277.1C333.2 234.5 298.6 199.9 256 199.9C213.4 199.9 178.8 234.5 178.8 277.1C178.8 290.4 189.5 301.1 202.8 301.1C216.1 301.1 226.8 290.4 226.8 277.1C226.8 261 239.9 247.9 256 247.9zM284 416C284 400.5 271.5 388 256 388C240.5 388 228 400.5 228 416C228 431.5 240.5 444 256 444C271.5 444 284 431.5 284 416z"/></svg>