<svg xmlns="http://www.w3.org/2000/svg" viewBox="0 0 640 640"><!--! Font Awesome Pro 7.2.0 by @fontawesome - https://fontawesome.com License - https://fontawesome.com/license (Commercial License) Copyright 2026 Fonticons, Inc. --><path opacity=".4" fill="currentColor" d="M48 304C48 357 91 400 144 400C197 400 240 357 240 304C240 251 197 208 144 208C91 208 48 251 48 304zM400 304C400 357 443 400 496 400C549 400 592 357 592 304C592 251 549 208 496 208C443 208 400 251 400 304z"/><path fill="currentColor" d="M144 208C197 208 240 251 240 304C240 357 197 400 144 400C91 400 48 357 48 304C48 251 91 208 144 208zM251.3 400C274.1 374.5 288 340.9 288 304C288 224.5 223.5 160 144 160C64.5 160 0 224.5 0 304C0 383.5 64.5 448 144 448L496 448C575.5 448 640 383.5 640 304C640 224.5 575.5 160 496 160C416.5 160 352 224.5 352 304C352 340.9 365.9 374.5 388.7 400L251.4 400zM496 208C549 208 592 251 592 304C592 357 549 400 496 400C443 400 400 357 400 304C400 251 443 208 496 208z"/></svg>