<svg xmlns="http://www.w3.org/2000/svg" viewBox="0 0 640 640"><!--! Font Awesome Pro 7.2.0 by @fontawesome - https://fontawesome.com License - https://fontawesome.com/license (Commercial License) Copyright 2026 Fonticons, Inc. --><path opacity=".4" fill="currentColor" d=""/><path fill="currentColor" d="M320 64C331.7 64 341.7 72.4 343.7 83.9L399.2 405.6L440.4 148.2C442.2 136.9 451.8 128.4 463.3 128C474.8 127.6 484.9 135.4 487.5 146.6L531.1 336L568 336C581.3 336 592 346.7 592 360C592 373.3 581.3 384 568 384L512 384C500.8 384 491.1 376.3 488.6 365.4L468.3 277.2L423.7 555.8C421.8 567.4 411.9 575.9 400.1 576C388.3 576.1 378.3 567.6 376.3 556.1L320 229.3L263.7 556.1C261.7 567.7 251.6 576.1 239.9 576C228.2 575.9 218.2 567.4 216.3 555.8L171.7 277.2L151.4 365.4C148.9 376.3 139.2 384 128 384L72 384C58.7 384 48 373.3 48 360C48 346.7 58.7 336 72 336L108.9 336L152.6 146.6C155.2 135.4 165.3 127.6 176.8 128C188.3 128.4 197.9 136.9 199.7 148.2L240.9 405.6L296.4 83.9C298.3 72.4 308.3 64 320 64z"/></svg>