<svg xmlns="http://www.w3.org/2000/svg" viewBox="0 0 640 640"><!--! Font Awesome Pro 7.2.0 by @fontawesome - https://fontawesome.com License - https://fontawesome.com/license (Commercial License) Copyright 2026 Fonticons, Inc. --><path opacity=".4" fill="currentColor" d="M112 520.2C112 524.5 115.5 528 119.8 528L520.2 528C524.5 528 528 524.5 528 520.2L527.7 517.9L447.8 251.4C445.8 244.6 439.5 240 432.5 240L207.8 240C201.6 240 196.1 243.5 193.4 249L192.4 251.4L112.5 517.9C112.3 518.6 112.2 519.4 112.2 520.2z"/><path fill="currentColor" d="M320 64C368.6 64 408 103.4 408 152C408 166.4 404.5 180 398.3 192L432.4 192L437.7 192.2C463.8 194.3 486.1 212.2 493.8 237.6L573.8 504.1C575.4 509.3 576.1 514.7 576.1 520.1L575.8 525.8C573.1 552.1 552.2 572.9 526 575.6L520.3 575.9L119.9 575.9L114.2 575.6C87.8 573 67 552.2 64.3 525.9L64 520.2C64 516.1 64.4 512.1 65.3 508.1L66.3 504.2L146.3 237.7C153.9 212.3 176.3 194.4 202.4 192.3L207.6 192.1L241.7 192.1C235.6 180.1 232 166.5 232 152.1C232 103.5 271.4 64.1 320 64.1zM207.6 240C201.4 240 195.9 243.5 193.2 249L192.2 251.4L112.3 517.9C112.1 518.6 112 519.4 112 520.2C112 524.5 115.5 528 119.8 528L520.2 528C524.5 528 528 524.5 528 520.2L527.7 517.9L447.8 251.4C445.8 244.6 439.5 240 432.5 240L207.8 240zM320 112C297.9 112 280 129.9 280 152C280 174.1 297.9 192 320 192C342.1 192 360 174.1 360 152C360 129.9 342.1 112 320 112z"/></svg>