<svg xmlns="http://www.w3.org/2000/svg" viewBox="0 0 640 640"><!--! Font Awesome Pro 7.2.0 by @fontawesome - https://fontawesome.com License - https://fontawesome.com/license (Commercial License) Copyright 2026 Fonticons, Inc. --><path opacity=".4" fill="currentColor" d="M329.2 139.1L357.1 167C375.5 185.4 378.5 213.7 365.4 235.4L337.5 207.5C318.9 188.9 316.2 160.6 329.2 139zM404.5 274.5C426.3 261.4 454.6 264.5 473 282.8L500.9 310.7C479.4 323.7 451 321 432.5 302.4L404.6 274.5zM488 141C488 111.7 511.7 88 541 88L552 88L552 99L551.7 104.4C549.2 129.4 529.3 149.2 504.4 151.7L499 152L488 152L488 141z"/><path fill="currentColor" d="M39 39.1C47.8 30.3 61.7 29.8 71.1 37.4L72.9 39.1L600.9 567.1L602.6 568.9C610.3 578.3 609.7 592.2 600.9 601C592.1 609.8 578.2 610.3 568.8 602.7L567 601.1L39 73.1L37.4 71.2C29.7 61.8 30.2 47.9 39 39.1zM104 304C110.4 304 116.5 306.5 121 311L167 357.1C190.4 380.5 200.4 412.5 196.7 443.3C227.5 439.5 259.6 449.6 282.9 473L328.9 519C333.4 523.5 335.9 529.6 335.9 536C335.9 542.4 333.4 548.5 328.9 553L321.5 560.4C280.9 601 215 601 174.4 560.4L143.9 529.9L80.9 592.9C71.5 602.3 56.4 602.3 47 592.9C37.6 583.5 37.6 568.3 47 559L110 496L79.5 465.5C39 424.9 39 359.1 79.6 318.5L87 311.1L90.7 308.1C94.6 305.5 99.2 304.1 104 304.1zM249 506.9C230.6 488.5 202.3 485.4 180.5 498.6L208.4 526.5C227 545.1 255.3 547.8 276.8 534.8L248.9 506.9zM375.8 477.5C344.2 482.3 310.8 472.7 286.5 448.4L191.6 353.5C167.3 329.2 157.6 295.8 162.4 264.2L375.7 477.5zM105.2 363.1C92.2 384.6 95 413 113.5 431.6L141.4 459.5C154.5 437.7 151.5 409.4 133.1 391.1L105.2 363.1zM328 80C334.4 80 340.5 82.5 345 87L391 133.1C414.4 156.5 424.4 188.5 420.7 219.3C451.5 215.5 483.6 225.6 506.9 249L552.9 295C557.4 299.5 559.9 305.6 559.9 312C559.9 318.4 557.4 324.5 552.9 329L545.5 336.4C508.9 373 452 376.6 411.3 347.3L292.6 228.6C263.4 188 267.1 131 303.6 94.5L311 87.1L314.7 84.1C318.6 81.5 323.2 80.1 328 80.1zM473 282.9C454.6 264.5 426.3 261.4 404.5 274.6L432.4 302.5C451 321.1 479.3 323.8 500.8 310.8L472.9 282.9zM329.2 139.1C316.2 160.6 319 189 337.5 207.6L365.4 235.5C378.5 213.7 375.5 185.4 357.1 167.1L329.2 139.1zM576 40C582.4 40 588.5 42.5 593 47C597.5 51.5 600 57.6 600 64L600 99L599.9 104.2C597.3 155.9 555.9 197.3 504.2 199.9L499 200L464 200C457.6 200 451.5 197.5 447 193C442.5 188.5 440 182.4 440 176L440 141C440 85.2 485.2 40 541 40L576 40zM541 88C511.7 88 488 111.7 488 141L488 152L499 152L504.4 151.7C529.4 149.2 549.2 129.3 551.7 104.4L552 99L552 88L541 88z"/></svg>