<svg xmlns="http://www.w3.org/2000/svg" viewBox="0 0 640 640"><!--! Font Awesome Pro 7.2.0 by @fontawesome - https://fontawesome.com License - https://fontawesome.com/license (Commercial License) Copyright 2026 Fonticons, Inc. --><path opacity=".4" fill="currentColor" d="M105.7 363.1L133.6 391C152 409.4 155 437.7 141.9 459.4L114 431.6C95.4 413 92.7 384.7 105.7 363.1zM181 498.6C202.8 485.5 231.1 488.6 249.5 506.9L277.4 534.8C255.9 547.8 227.5 545.1 209 526.5L181 498.6zM217.7 251.2L245.6 279C264 297.4 267 325.7 253.9 347.4L226 319.6C207.4 301 204.7 272.7 217.7 251.1zM293 386.6C314.8 373.5 343.1 376.6 361.5 394.9L389.4 422.8C367.9 435.8 339.5 433.1 321 414.5L293 386.6zM329.7 139.1L357.6 167C376 185.4 379 213.7 365.9 235.4L338 207.6C319.4 189 316.7 160.7 329.7 139.1zM405 274.6C426.8 261.5 455.1 264.6 473.5 282.9L501.4 310.8C479.9 323.8 451.5 321.1 433 302.5L405 274.6z"/><path fill="currentColor" d="M104.5 304C110.9 304 117 306.5 121.5 311L167.6 357.1C191 380.5 201 412.5 197.3 443.3C228.1 439.5 260.2 449.6 283.5 473L329.4 519C333.9 523.5 336.4 529.6 336.4 536C336.4 542.4 333.9 548.5 329.4 553L322 560.4C281.4 601 215.5 601 174.9 560.4L144.4 529.9L81.4 592.9C72 602.3 56.9 602.3 47.5 592.9C38.1 583.5 38.1 568.3 47.5 559L110.5 496L80 465.5C39.4 424.9 39.4 359 80 318.4L87.4 311L91.1 308C95 305.4 99.6 304 104.4 304zM249.5 506.9C231.1 488.5 202.8 485.4 181 498.6L208.9 526.5C227.5 545.1 255.8 547.8 277.3 534.8L249.4 506.9zM216.5 192C222.9 192 229 194.5 233.5 199L279.6 245.1C303 268.5 313 300.5 309.3 331.3C340.1 327.5 372.2 337.6 395.5 361L441.4 407C445.9 411.5 448.4 417.6 448.4 424C448.4 430.4 445.9 436.5 441.4 441L434 448.4C393.4 489 327.5 489 286.9 448.4L192 353.5C151.4 312.9 151.4 247 192 206.4L199.4 199L203.1 196C207 193.4 211.6 192 216.4 192zM105.7 363.1C92.7 384.6 95.5 413 114 431.6L141.9 459.5C155 437.7 152 409.4 133.6 391.1L105.7 363.1zM361.5 394.9C343.1 376.5 314.8 373.4 293 386.6L320.9 414.5C339.5 433.1 367.8 435.8 389.3 422.8L361.4 394.9zM527.2 79C536.6 69.6 551.8 69.6 561.1 79C569.9 87.8 570.4 101.7 562.7 111.2L561.2 113L453.7 220.4C461.1 221.8 468.4 224.1 475.4 227.1L527.5 175C536.9 165.6 552.1 165.6 561.5 175C570.3 183.8 570.8 197.7 563.1 207.1L561.5 208.9L514.4 255.9L553.4 294.9C557.9 299.4 560.4 305.5 560.4 311.9C560.4 318.3 557.9 324.4 553.4 328.9L546 336.3C505.4 376.9 439.5 376.9 398.9 336.3L304 241.4C263.4 200.8 263.4 134.9 304 94.3L311.4 86.9L315.1 83.9C319 81.3 323.6 79.9 328.4 79.9C334.8 79.9 340.9 82.4 345.4 86.9L384.4 125.9L431.4 78.9C440.8 69.5 456 69.5 465.4 78.9C474.2 87.7 474.7 101.6 467 111L465.4 112.8L413.2 165C416.2 171.8 418.4 178.9 419.8 186.2L527.2 79zM217.7 251.1C204.7 272.6 207.5 301 226 319.6L253.9 347.5C267 325.7 264 297.4 245.6 279.1L217.7 251.2zM473.5 282.9C455.1 264.5 426.8 261.4 405 274.6L432.9 302.5C451.5 321.1 479.8 323.8 501.3 310.8L473.4 282.9zM329.7 139.1C316.7 160.6 319.5 189 338 207.6L365.9 235.5C379 213.7 376 185.4 357.6 167.1L329.7 139.1z"/></svg>