<svg xmlns="http://www.w3.org/2000/svg" viewBox="0 0 640 640"><!--! Font Awesome Pro 7.2.0 by @fontawesome - https://fontawesome.com License - https://fontawesome.com/license (Commercial License) Copyright 2026 Fonticons, Inc. --><path opacity=".4" fill="currentColor" d=""/><path fill="currentColor" d="M186.3 381.7C218.6 343.9 266.5 320 320.1 320C373.7 320 421.7 343.9 454 381.7C462.6 391.8 477.8 393 487.8 384.4C497.8 375.8 499.1 360.6 490.5 350.6C449.5 302.6 388.3 272 320.1 272C251.9 272 190.8 302.5 149.8 350.6C141.2 360.7 142.4 375.8 152.5 384.4C162.6 393 177.7 391.8 186.3 381.7zM320.1 544C346.6 544 368.1 522.5 368.1 496C368.1 469.5 346.6 448 320.1 448C293.6 448 272.1 469.5 272.1 496C272.1 522.5 293.6 544 320.1 544z"/></svg>