<svg xmlns="http://www.w3.org/2000/svg" viewBox="0 0 640 640"><!--! Font Awesome Pro 7.2.0 by @fontawesome - https://fontawesome.com License - https://fontawesome.com/license (Commercial License) Copyright 2026 Fonticons, Inc. --><path opacity=".4" fill="currentColor" d="M240 171L240 372.9L304 359.6L304 184.3L240 171zM480 221L480 322.9L528 312.9L528 231L480 221z"/><path fill="currentColor" d="M88 64C101.3 64 112 74.7 112 88L112 160L192 160L192 151.4C192 131.1 210.7 115.9 230.5 120.1L550.5 186.8C565.3 189.9 576 203 576 218.1L576 326.1C576 341.3 565.4 354.3 550.5 357.4L230.5 424C210.6 428.1 192 413 192 392.7L192 384.1L112 384.1L112 552.1C112 565.4 101.3 576.1 88 576.1C74.7 576.1 64 565.3 64 552L64 88C64 74.7 74.7 64 88 64zM112 208L112 336L192 336L192 208L112 208zM480 323L528 313L528 231.1L480 221.1L480 323zM432 333L432 211.1L352 194.4L352 349.7L432 333zM304 359.6L304 184.3L240 171L240 372.9L304 359.6z"/></svg>