<svg xmlns="http://www.w3.org/2000/svg" viewBox="0 0 640 640"><!--! Font Awesome Pro 7.2.0 by @fontawesome - https://fontawesome.com License - https://fontawesome.com/license (Commercial License) Copyright 2026 Fonticons, Inc. --><path opacity=".4" fill="currentColor" d=""/><path fill="currentColor" d="M24 96L616 96C629.3 96 640 106.7 640 120C640 133.3 629.3 144 616 144L24 144C10.7 144 0 133.3 0 120C0 106.7 10.7 96 24 96zM24 496L616 496C629.3 496 640 506.7 640 520C640 533.3 629.3 544 616 544L24 544C10.7 544 0 533.3 0 520C0 506.7 10.7 496 24 496zM41 231L96 286L151 231C160.4 221.6 175.6 221.6 184.9 231C194.2 240.4 194.3 255.6 184.9 264.9L129.9 319.9L184.9 374.9C194.3 384.3 194.3 399.5 184.9 408.8C175.5 418.1 160.3 418.2 151 408.8L96 353.8L41 408.8C31.6 418.2 16.4 418.2 7.1 408.8C-2.2 399.4-2.3 384.4 7 375L62 320L7 265C-2.4 255.6-2.4 240.4 7 231.1C16.4 221.8 31.6 221.7 40.9 231.1zM265 231L320 286L375 231C384.4 221.6 399.6 221.6 408.9 231C418.2 240.4 418.3 255.6 408.9 264.9L353.9 319.9L408.9 374.9C418.3 384.3 418.3 399.5 408.9 408.8C399.5 418.1 384.3 418.2 375 408.8L320 353.8L265 408.8C255.6 418.2 240.4 418.2 231.1 408.8C221.8 399.4 221.7 384.2 231.1 374.9L286.1 319.9L231.1 264.9C221.7 255.5 221.7 240.3 231.1 231C240.5 221.7 255.7 221.6 265 231zM455 231C464.4 221.6 479.6 221.6 488.9 231L543.9 286L598.9 231C608.3 221.6 623.5 221.6 632.8 231C642.1 240.4 642.2 255.6 632.8 264.9L577.8 319.9L632.8 374.9C642.2 384.3 642.2 399.5 632.8 408.8C623.4 418.1 608.2 418.2 598.9 408.8L543.9 353.8L488.9 408.8C479.5 418.2 464.3 418.2 455 408.8C445.7 399.4 445.6 384.2 455 374.9L510 319.9L455 264.9C445.6 255.5 445.6 240.3 455 231z"/></svg>