<svg xmlns="http://www.w3.org/2000/svg" viewBox="0 0 640 640"><!--! Font Awesome Pro 7.2.0 by @fontawesome - https://fontawesome.com License - https://fontawesome.com/license (Commercial License) Copyright 2026 Fonticons, Inc. --><path opacity=".4" fill="currentColor" d="M107.2 308.1C103 315.5 103 324.6 107.2 331.9L203.4 500C207.7 507.5 215.6 512.1 224.2 512.1L415.8 512.1C424.4 512.1 432.4 507.5 436.6 500L532.8 332C537 324.6 537 315.5 532.8 308.2L436.7 140.1C432.4 132.6 424.4 128 415.8 128L224.2 128C215.6 128 207.6 132.6 203.4 140.1L107.2 308.1zM231 231C240.4 221.6 255.6 221.6 264.9 231L319.9 286L374.9 231C384.3 221.6 399.5 221.6 408.8 231C418.1 240.4 418.2 255.6 408.8 264.9L353.8 319.9L408.8 374.9C418.2 384.3 418.2 399.5 408.8 408.8C399.4 418.1 384.2 418.2 374.9 408.8L319.9 353.8L264.9 408.8C255.5 418.2 240.3 418.2 231 408.8C221.7 399.4 221.6 384.2 231 374.9L286 319.9L231 264.9C221.6 255.5 221.6 240.3 231 231z"/><path fill="currentColor" d="M65.5 284.3C52.8 306.5 52.8 333.7 65.5 355.8L161.7 523.9C174.5 546.3 198.4 560.1 224.2 560.1L415.8 560.1C441.6 560.1 465.5 546.3 478.3 523.9L574.5 355.8C587.2 333.6 587.2 306.4 574.5 284.3L478.3 116.2C465.5 93.8 441.6 80 415.8 80L224.2 80C198.4 80 174.5 93.8 161.7 116.2L65.5 284.3zM107.2 332C103 324.6 103 315.5 107.2 308.2L203.4 140.1C207.7 132.6 215.6 128 224.2 128L415.8 128C424.4 128 432.4 132.6 436.6 140.1L532.8 308.2C537 315.6 537 324.7 532.8 332L436.7 500C432.4 507.5 424.5 512.1 415.9 512.1L224.3 512.1C215.7 512.1 207.7 507.5 203.5 500L107.2 332zM231 231C221.6 240.4 221.6 255.6 231 264.9L286 319.9L231 374.9C221.6 384.3 221.6 399.5 231 408.8C240.4 418.1 255.6 418.2 264.9 408.8L319.9 353.8L374.9 408.8C384.3 418.2 399.5 418.2 408.8 408.8C418.1 399.4 418.2 384.2 408.8 374.9L353.8 319.9L408.8 264.9C418.2 255.5 418.2 240.3 408.8 231C399.4 221.7 384.2 221.6 374.9 231L319.9 286L264.9 231C255.5 221.6 240.3 221.6 231 231z"/></svg>