<svg xmlns="http://www.w3.org/2000/svg" viewBox="0 0 640 640"><!--! Font Awesome Pro 7.2.0 by @fontawesome - https://fontawesome.com License - https://fontawesome.com/license (Commercial License) Copyright 2026 Fonticons, Inc. --><path opacity=".4" fill="currentColor" d=""/><path fill="currentColor" d="M128 120C128 106.7 138.7 96 152 96L488 96C497.3 96 505.8 101.4 509.8 109.9C513.8 118.4 512.4 128.3 506.4 135.5L203.5 496L488 496C501.3 496 512 506.7 512 520C512 533.3 501.3 544 488 544L152 544C142.7 544 134.2 538.6 130.2 530.1C126.2 521.6 127.6 511.7 133.6 504.5L436.5 144L152 144C138.7 144 128 133.3 128 120z"/></svg>