<svg xmlns="http://www.w3.org/2000/svg" viewBox="0 0 640 640"><!--! Font Awesome Pro 7.2.0 by @fontawesome - https://fontawesome.com License - https://fontawesome.com/license (Commercial License) Copyright 2026 Fonticons, Inc. --><path opacity=".4" fill="currentColor" d=""/><path fill="currentColor" d="M280 64C266.7 64 256 74.7 256 88C256 101.3 266.7 112 280 112L339.1 112L261.9 200.2C255.7 207.3 254.2 217.3 258.1 225.9C262 234.5 270.6 240 280 240L392 240C405.3 240 416 229.3 416 216C416 202.7 405.3 192 392 192L332.9 192L410.1 103.8C416.3 96.7 417.8 86.7 413.9 78.1C410 69.5 401.4 64 392 64L280 64zM408 288C394.7 288 384 298.7 384 312C384 325.3 394.7 336 408 336L470.9 336L389 441.3C383.4 448.5 382.4 458.3 386.4 466.6C390.4 474.9 398.8 480 408 480L520 480C533.3 480 544 469.3 544 456C544 442.7 533.3 432 520 432L457.1 432L539 326.7C544.6 319.5 545.6 309.7 541.6 301.4C537.6 293.1 529.2 288 520 288L408 288zM120 288C106.7 288 96 298.7 96 312C96 325.3 106.7 336 120 336L248.6 336L100.6 537.8C95.3 545.1 94.5 554.8 98.5 562.8C102.5 570.8 111 576 120 576L296 576C309.3 576 320 565.3 320 552C320 538.7 309.3 528 296 528L167.4 528L315.4 326.2C320.7 318.9 321.5 309.2 317.5 301.2C313.5 293.2 305 288 296 288L120 288z"/></svg>