<svg xmlns="http://www.w3.org/2000/svg" viewBox="0 0 640 640"><!--! Font Awesome Pro 7.2.0 by @fontawesome - https://fontawesome.com License - https://fontawesome.com/license (Commercial License) Copyright 2026 Fonticons, Inc. --><path fill="currentColor" d="M495.6 304C491.5 382.1 456.6 493.3 330.1 540.4C323.6 542.8 316.4 542.8 309.9 540.4C183.4 493.2 148.5 382.1 144.4 304L495.5 304zM324.8 73.6C332.8 63 347.8 60.8 358.4 68.8C369 76.8 371.1 91.8 363.2 102.4L358.4 108.8C354 114.7 350.5 121.2 348.1 128L448 128C501 128 544 171 544 224C544 241.7 529.7 256 512 256L128 256C110.3 256 96 241.7 96 224C96 171 139 128 192 128L298.4 128C302 110.7 309.3 94.3 320 80L324.8 73.6z"/></svg>