<svg xmlns="http://www.w3.org/2000/svg" viewBox="0 0 640 640"><!--! Font Awesome Pro 7.2.0 by @fontawesome - https://fontawesome.com License - https://fontawesome.com/license (Commercial License) Copyright 2026 Fonticons, Inc. --><path fill="currentColor" d="M128 192L512 192L512 416L465.1 416L527.3 478.2C555.3 471.3 576 446.1 576 416L576 192C576 156.7 547.3 128 512 128L128 128C92.7 128 64 156.7 64 192L64 416C64 446.1 84.7 471.3 112.7 478.2L174.9 416L128 416L128 192zM162.4 524.2C167.4 536.2 179 544 192 544L448 544C460.9 544 472.6 536.2 477.6 524.2C482.6 512.2 479.8 498.5 470.7 489.3L342.7 361.3C330.2 348.8 309.9 348.8 297.4 361.3L169.4 489.3C160.2 498.5 157.5 512.2 162.5 524.2z"/></svg>