<svg xmlns="http://www.w3.org/2000/svg" viewBox="0 0 640 640"><!--! Font Awesome Pro 7.2.0 by @fontawesome - https://fontawesome.com License - https://fontawesome.com/license (Commercial License) Copyright 2026 Fonticons, Inc. --><path fill="currentColor" d="M320 128C443.7 128 544 228.3 544 352C544 402.3 527.4 448.8 499.4 486.2L534.6 521.4C547.1 533.9 547.1 554.2 534.6 566.6C522.1 579 501.8 579.1 489.4 566.6L454.2 531.4C416.8 559.4 370.3 576 320 576C269.7 576 223.2 559.4 185.8 531.4L150.6 566.6C138.1 579.1 117.8 579.1 105.4 566.6C93 554.1 92.9 533.8 105.4 521.4L140.6 486.2C112.6 448.8 96 402.3 96 352C96 228.3 196.3 128 320 128zM320 416C302.3 416 288 430.3 288 448C288 465.7 302.3 480 320 480C337.7 480 352 465.7 352 448C352 430.3 337.7 416 320 416zM320 224C301.8 224 287.3 239.5 288.6 257.7L296 361.7C296.9 374.3 307.4 384 319.9 384C332.5 384 342.9 374.3 343.8 361.7L351.2 257.7C352.5 239.5 338.1 224 319.8 224zM159.2 64C178.5 64 196.5 69.8 211.5 79.7C221 86 217.8 99.6 207.4 104.3C162.6 124.7 124.3 156.9 96.5 196.9C90 206.3 76 207 71.5 196.5C66.6 185.1 63.9 172.4 63.9 159.2C63.9 106.6 106.5 64 159.1 64zM480.7 64C533.3 64 576 106.6 576 159.2C576 172.4 573.3 185 568.4 196.5C563.9 207 550 206.3 543.4 196.9C515.6 156.9 477.3 124.7 432.5 104.3C422.1 99.6 418.8 86 428.4 79.7C443.4 69.8 461.4 64 480.7 64z"/></svg>