<svg xmlns="http://www.w3.org/2000/svg" viewBox="0 0 640 640"><!--! Font Awesome Pro 7.2.0 by @fontawesome - https://fontawesome.com License - https://fontawesome.com/license (Commercial License) Copyright 2026 Fonticons, Inc. --><path fill="currentColor" d="M320 64C320.8 64 321.5 64 322.3 64C333.9 64.1 340.4 76.7 334.6 86.7L241.5 248C235.3 258.7 219.9 258.7 213.8 248L153 142.8C149.3 136.3 150.5 128 156.2 123.2C200.6 86.2 257.7 64 320 64zM64 320C64 272.5 76.9 228.1 99.4 189.9C105.3 179.9 119.4 180.6 125.2 190.7L218.4 352C224.6 362.7 216.9 376 204.5 376L83 376C75.5 376 69 370.8 67.7 363.4C65.3 349.3 64 334.8 64 320zM250 553.3C246.3 559.8 238.5 562.9 231.5 560.3C174.4 539.2 126.8 498.4 97.2 446C91.5 435.9 99.2 424 110.7 424L297 424C309.3 424 317 437.3 310.9 448L250 553.3zM320 576C319.2 576 318.5 576 317.7 576C306.1 575.9 299.6 563.3 305.4 553.3L398.5 392C404.7 381.3 420.1 381.3 426.2 392L487 497.2C490.7 503.7 489.5 511.9 483.8 516.7C439.4 553.7 382.3 575.9 320 575.9zM576 320C576 367.5 563.1 411.9 540.6 450.1C534.7 460.1 520.6 459.4 514.8 449.3L421.6 288C415.4 277.3 423.1 264 435.5 264L557 264C564.5 264 571 269.2 572.3 276.6C574.7 290.7 576 305.2 576 320zM390 86.7C393.7 80.2 401.5 77.1 408.5 79.7C465.6 100.8 513.2 141.6 542.8 194C548.5 204.1 540.8 216 529.3 216L343 216C330.7 216 323 202.7 329.1 192L390 86.7z"/></svg>