<svg xmlns="http://www.w3.org/2000/svg" viewBox="0 0 640 640"><!--! Font Awesome Pro 7.2.0 by @fontawesome - https://fontawesome.com License - https://fontawesome.com/license (Commercial License) Copyright 2026 Fonticons, Inc. --><path fill="currentColor" d="M64 480C64 497.7 78.3 512 96 512C113.7 512 128 497.7 128 480L128 160C128 142.3 113.7 128 96 128C78.3 128 64 142.3 64 160L64 480zM201.4 297.4C188.9 309.9 188.9 330.2 201.4 342.7L329.4 470.7C341.9 483.2 362.2 483.2 374.7 470.7C387.2 458.2 387.2 437.9 374.7 425.4L301.3 352L544 352C561.7 352 576 337.7 576 320C576 302.3 561.7 288 544 288L301.3 288L374.7 214.6C387.2 202.1 387.2 181.8 374.7 169.3C362.2 156.8 341.9 156.8 329.4 169.3L201.4 297.3z"/></svg>