<svg xmlns="http://www.w3.org/2000/svg" viewBox="0 0 640 640"><!--! Font Awesome Pro 7.2.0 by @fontawesome - https://fontawesome.com License - https://fontawesome.com/license (Commercial License) Copyright 2026 Fonticons, Inc. --><path fill="currentColor" d="M214.6 105.4C202.1 92.9 181.8 92.9 169.3 105.4L89.3 185.4C76.8 197.9 76.8 218.2 89.3 230.7C101.8 243.2 122.1 243.2 134.6 230.7L160 205.3L160 512C160 529.7 174.3 544 192 544C209.7 544 224 529.7 224 512L224 205.3L249.4 230.7C261.9 243.2 282.2 243.2 294.7 230.7C307.2 218.2 307.2 197.9 294.7 185.4L214.7 105.4zM352 144L352 208C352 234.5 373.5 256 400 256L464 256C490.5 256 512 234.5 512 208L512 144C512 117.5 490.5 96 464 96L400 96C373.5 96 352 117.5 352 144zM352 368L352 496C352 522.5 373.5 544 400 544L528 544C554.5 544 576 522.5 576 496L576 368C576 341.5 554.5 320 528 320L400 320C373.5 320 352 341.5 352 368z"/></svg>