<svg xmlns="http://www.w3.org/2000/svg" viewBox="0 0 640 640"><!--! Font Awesome Pro 7.2.0 by @fontawesome - https://fontawesome.com License - https://fontawesome.com/license (Commercial License) Copyright 2026 Fonticons, Inc. --><path fill="currentColor" d="M96 128C78.3 128 64 142.3 64 160C64 177.7 78.3 192 96 192C113.7 192 128 177.7 128 160C128 142.3 113.7 128 96 128zM201.4 297.4C188.9 309.9 188.9 330.2 201.4 342.7L329.4 470.7C341.9 483.2 362.2 483.2 374.7 470.7C387.2 458.2 387.2 437.9 374.7 425.4L301.3 352L544 352C561.7 352 576 337.7 576 320C576 302.3 561.7 288 544 288L301.3 288L374.7 214.6C387.2 202.1 387.2 181.8 374.7 169.3C362.2 156.8 341.9 156.8 329.4 169.3L201.4 297.3zM64 266.7C64 284.4 78.3 298.7 96 298.7C113.7 298.7 128 284.4 128 266.7C128 249 113.7 234.7 96 234.7C78.3 234.7 64 249 64 266.7zM96 341.4C78.3 341.4 64 355.7 64 373.4C64 391.1 78.3 405.4 96 405.4C113.7 405.4 128 391.1 128 373.4C128 355.7 113.7 341.4 96 341.4zM64 480C64 497.7 78.3 512 96 512C113.7 512 128 497.7 128 480C128 462.3 113.7 448 96 448C78.3 448 64 462.3 64 480z"/></svg>