<svg xmlns="http://www.w3.org/2000/svg" viewBox="0 0 640 640"><!--! Font Awesome Pro 7.2.0 by @fontawesome - https://fontawesome.com License - https://fontawesome.com/license (Commercial License) Copyright 2026 Fonticons, Inc. --><path fill="currentColor" d="M294.6 454.6L214.6 534.6C202.1 547.1 181.8 547.1 169.3 534.6L89.3 454.6C76.8 442.1 76.8 421.8 89.3 409.3C101.8 396.8 122.1 396.8 134.6 409.3L160 434.7L160 128C160 110.3 174.3 96 192 96C209.7 96 224 110.3 224 128L224 434.7L249.4 409.3C261.9 396.8 282.2 396.8 294.7 409.3C307.2 421.8 307.2 442.1 294.7 454.6zM352 136C352 113.9 369.9 96 392 96L504 96C526.1 96 544 113.9 544 136L544 248C544 270.1 526.1 288 504 288L392 288C369.9 288 352 270.1 352 248L352 136zM475.1 367L555.1 495C561.3 504.9 561.6 517.3 556 527.5C550.4 537.7 539.6 544 528 544L368 544C356.4 544 345.7 537.7 340 527.5C334.3 517.3 334.7 504.9 340.9 495L420.9 367C426.7 357.6 437 352 448 352C459 352 469.3 357.7 475.1 367z"/></svg>