<svg xmlns="http://www.w3.org/2000/svg" viewBox="0 0 640 640"><!--! Font Awesome Pro 7.2.0 by @fontawesome - https://fontawesome.com License - https://fontawesome.com/license (Commercial License) Copyright 2026 Fonticons, Inc. --><path fill="currentColor" d="M512 96C512 113.7 497.7 128 480 128L160 128C142.3 128 128 113.7 128 96C128 78.3 142.3 64 160 64L480 64C497.7 64 512 78.3 512 96zM337 569C327.6 578.4 312.4 578.4 303.1 569L159 425C152.1 418.1 150.1 407.8 153.8 398.8C157.5 389.8 166.3 384 176 384L256 384L256 240C256 213.5 277.5 192 304 192L336 192C362.5 192 384 213.5 384 240L384 384L464 384C473.7 384 482.5 389.8 486.2 398.8C489.9 407.8 487.9 418.1 481 425L337 569z"/></svg>