<svg xmlns="http://www.w3.org/2000/svg" viewBox="0 0 640 640"><!--! Font Awesome Pro 7.2.0 by @fontawesome - https://fontawesome.com License - https://fontawesome.com/license (Commercial License) Copyright 2026 Fonticons, Inc. --><path fill="currentColor" d="M566.6 470.6L470.6 566.6C458.1 579.1 437.8 579.1 425.3 566.6C412.8 554.1 412.8 533.8 425.3 521.3L466.7 480L96 480C78.3 480 64 465.7 64 448C64 430.3 78.3 416 96 416L466.7 416L425.3 374.6C412.8 362.1 412.8 341.8 425.3 329.3C437.8 316.8 458.1 316.8 470.6 329.3L566.6 425.3C579.1 437.8 579.1 458.1 566.6 470.6zM73.4 214.6C60.9 202.1 60.9 181.8 73.4 169.3L169.4 73.3C181.9 60.8 202.2 60.8 214.7 73.3C227.2 85.8 227.2 106.1 214.7 118.6L173.3 160L544 160C561.7 160 576 174.3 576 192C576 209.7 561.7 224 544 224L173.3 224L214.7 265.4C227.2 277.9 227.2 298.2 214.7 310.7C202.2 323.2 181.9 323.2 169.4 310.7L73.4 214.7z"/></svg>