<svg xmlns="http://www.w3.org/2000/svg" viewBox="0 0 640 640"><!--! Font Awesome Pro 7.2.0 by @fontawesome - https://fontawesome.com License - https://fontawesome.com/license (Commercial License) Copyright 2026 Fonticons, Inc. --><path fill="currentColor" d="M212.7 568.8C200.1 579.1 181.6 578.3 169.9 566.6L57.9 454.6C45.4 442.1 45.4 421.8 57.9 409.4C70.4 397 90.7 396.9 103.1 409.4L160.5 466.8L160.5 256.1C160.5 153.3 241.2 69.4 342.6 64.3L352.5 64.1C458.5 64.1 544.5 150.1 544.5 256.1L544.5 480.1L544.3 483.4C542.7 499.5 529 512.1 512.5 512.1C496 512.1 482.3 499.5 480.7 483.4L480.5 480.1L480.5 256.1C480.5 185.4 423.2 128.1 352.5 128.1L345.9 128.3C278.3 131.6 224.5 187.5 224.5 256L224.5 466.7L281.9 409.3L284.3 407.1C296.9 396.9 315.4 397.6 327.1 409.3C338.8 421 339.5 439.5 329.3 452.1L327.1 454.5L215.1 566.5L212.7 568.7z"/></svg>