<svg xmlns="http://www.w3.org/2000/svg" viewBox="0 0 640 640"><!--! Font Awesome Pro 7.2.0 by @fontawesome - https://fontawesome.com License - https://fontawesome.com/license (Commercial License) Copyright 2026 Fonticons, Inc. --><path fill="currentColor" d="M473.9 169.9L528 224L616 224C629.3 224 640 234.7 640 248L640 256C640 379.7 539.7 480 416 480L408 480C394.7 480 384 469.3 384 456L384 368L230.6 214.6C218.1 202.1 218.1 181.8 230.6 169.3L329.4 70.6C341.9 58.1 362.2 58.1 374.7 70.6L406.1 102L414.1 94C432.8 75.3 463.2 75.3 482 94C500.8 112.7 500.7 143.1 482 161.9L474 169.9zM228.1 280L296 347.9L97.9 545.9C79.2 564.6 48.8 564.6 30 545.9C11.2 527.2 11.3 496.8 30 478L228.1 280z"/></svg>