<svg xmlns="http://www.w3.org/2000/svg" viewBox="0 0 640 640"><!--! Font Awesome Pro 7.2.0 by @fontawesome - https://fontawesome.com License - https://fontawesome.com/license (Commercial License) Copyright 2026 Fonticons, Inc. --><path fill="currentColor" d="M280 112L360 112C364.4 112 368 115.6 368 120L368 160L272 160L272 120C272 115.6 275.6 112 280 112zM224 120L224 160C153.3 160 96 217.3 96 288L96 512C96 547.3 124.7 576 160 576L176 576L176 440C176 400.2 208.2 368 248 368L392 368C431.8 368 464 400.2 464 440L464 576L480 576C515.3 576 544 547.3 544 512L544 288C544 217.3 486.7 160 416 160L416 120C416 89.1 390.9 64 360 64L280 64C249.1 64 224 89.1 224 120zM416 576L416 440C416 426.7 405.3 416 392 416L248 416C234.7 416 224 426.7 224 440L224 576L416 576zM248 240L392 240C405.3 240 416 250.7 416 264C416 277.3 405.3 288 392 288L248 288C234.7 288 224 277.3 224 264C224 250.7 234.7 240 248 240z"/></svg>