<svg xmlns="http://www.w3.org/2000/svg" viewBox="0 0 640 640"><!--! Font Awesome Pro 7.2.0 by @fontawesome - https://fontawesome.com License - https://fontawesome.com/license (Commercial License) Copyright 2026 Fonticons, Inc. --><path fill="currentColor" d="M128 128L102.6 102.6C98.4 98.4 96 92.6 96 86.6C96 74.1 106.1 64 118.6 64L521.4 64C533.9 64 544 74.1 544 86.6C544 92.6 541.6 98.4 537.4 102.6L512 128L530.6 202.5C539.5 238 544 274.5 544 311.2L544 328.9C544 365.5 539.5 402 530.6 437.6L512 512L537.4 537.4C541.6 541.6 544 547.4 544 553.4C544 565.9 533.9 576 521.4 576L118.6 576C106.1 576 96 565.9 96 553.4C96 547.4 98.4 541.6 102.6 537.4L128 512L109.4 437.5C100.5 402 96 365.5 96 328.8L96 311.1C96 274.5 100.5 238 109.4 202.5L128 128zM208 224C199.2 224 192 231.2 192 240C192 299.2 237.9 347.6 296 351.7L296 392C296 405.3 306.7 416 320 416C333.3 416 344 405.3 344 392L344 351.7C402.1 347.6 448 299.1 448 240C448 231.2 440.8 224 432 224L430 224C382.7 224 341.6 250 320 288.5C298.4 250 257.3 224 210 224L208 224z"/></svg>