<svg xmlns="http://www.w3.org/2000/svg" viewBox="0 0 640 640"><!--! Font Awesome Pro 7.2.0 by @fontawesome - https://fontawesome.com License - https://fontawesome.com/license (Commercial License) Copyright 2026 Fonticons, Inc. --><path fill="currentColor" d="M640 272C640 384.8 550.3 476.6 438.3 479.9C445.8 464.6 451.7 448.4 456 431.5L471 421.3C476.1 417.8 482 415.9 488.2 415.7L513.5 415C526.7 414.6 538.3 406.2 542.8 393.7L551.3 369.8C553.4 364 557.1 358.9 561.9 355.2L582 339.8C592.5 331.7 596.9 318.1 593.2 305.4L586 281C584.3 275.1 584.3 268.8 586 262.9L593.2 238.6C596.9 225.9 592.5 212.3 582 204.2L561.9 188.7C557 184.9 553.3 179.9 551.3 174.1L542.8 150.2C538.4 137.7 526.7 129.3 513.5 128.9L488.2 128.2C482 128 476.1 126.1 471 122.6L450.1 108.4C439.2 100.9 424.8 100.9 413.9 108.4L393 122.7C387.9 126.2 382 128.1 375.8 128.3L350.5 129C340.9 129.3 332.2 133.8 326.4 141C313.5 134.2 299.9 128.6 285.8 124.1C323.4 87 375 64.1 432 64.1C546.9 64.1 640 157.2 640 272.1zM410.7 211.6C417.4 209.3 424.5 208 432 208C467.3 208 496 236.7 496 272C496 296.9 481.8 318.5 461.1 329C454.4 285.2 436.7 245.1 410.8 211.6zM0 368C0 253.1 93.1 160 208 160C322.9 160 416 253.1 416 368C416 482.9 322.9 576 208 576C93.1 576 0 482.9 0 368zM256 368C256 341.5 234.5 320 208 320C181.5 320 160 341.5 160 368C160 394.5 181.5 416 208 416C234.5 416 256 394.5 256 368zM112 480C120.8 480 128 472.8 128 464C128 455.2 120.8 448 112 448C103.2 448 96 455.2 96 464C96 472.8 103.2 480 112 480zM256 496C256 487.2 248.8 480 240 480C231.2 480 224 487.2 224 496C224 504.8 231.2 512 240 512C248.8 512 256 504.8 256 496zM304 480C312.8 480 320 472.8 320 464C320 455.2 312.8 448 304 448C295.2 448 288 455.2 288 464C288 472.8 295.2 480 304 480zM320 304C320 295.2 312.8 288 304 288C295.2 288 288 295.2 288 304C288 312.8 295.2 320 304 320C312.8 320 320 312.8 320 304zM144 288C152.8 288 160 280.8 160 272C160 263.2 152.8 256 144 256C135.2 256 128 263.2 128 272C128 280.8 135.2 288 144 288zM96 336C96 327.2 88.8 320 80 320C71.2 320 64 327.2 64 336C64 344.8 71.2 352 80 352C88.8 352 96 344.8 96 336z"/></svg>