<svg xmlns="http://www.w3.org/2000/svg" viewBox="0 0 640 640"><!--! Font Awesome Pro 7.2.0 by @fontawesome - https://fontawesome.com License - https://fontawesome.com/license (Commercial License) Copyright 2026 Fonticons, Inc. --><path fill="currentColor" d="M322.5 164.5L248.1 214.1L305 271C314.4 280.4 314.4 295.6 305 304.9C295.6 314.2 280.4 314.3 271.1 304.9L207.4 241.2L132.9 290.8L193 350.9C202.4 360.3 202.4 375.5 193 384.8C183.6 394.1 168.4 394.2 159.1 384.8L92.1 318.1L57 341.5C-1.8 380.7-17.7 460.2 21.5 519C60.7 577.8 140.2 593.7 199 554.5L583 298.5C641.8 259.3 657.7 179.8 618.5 121C579.3 62.2 499.8 46.3 441 85.5L363.3 137.3L417 191C426.4 200.4 426.4 215.6 417 224.9C407.6 234.2 392.4 234.3 383.1 224.9L322.6 164.4z"/></svg>