<svg xmlns="http://www.w3.org/2000/svg" viewBox="0 0 640 640"><!--! Font Awesome Pro 7.2.0 by @fontawesome - https://fontawesome.com License - https://fontawesome.com/license (Commercial License) Copyright 2026 Fonticons, Inc. --><path fill="currentColor" d="M352 224C352 135.6 280.4 64 192 64C103.6 64 32 135.6 32 224C32 336 160 432 160 432L132.1 473.8C129.4 477.8 128 482.6 128 487.4C128 501 139 512 152.6 512L231.5 512C245.1 512 256.1 501 256.1 487.4C256.1 482.6 254.7 477.8 252 473.8L224 432C224 432 352 336 352 224zM176 168C153.9 168 136 185.9 136 208C136 221.3 125.3 232 112 232C98.7 232 88 221.3 88 208C88 159.4 127.4 120 176 120C189.3 120 200 130.7 200 144C200 157.3 189.3 168 176 168zM416 496L388.1 537.8C385.4 541.8 384 546.6 384 551.4C384 565 395 576 408.6 576L487.5 576C501.1 576 512.1 565 512.1 551.4C512.1 546.6 510.7 541.8 508 537.8L480 496C480 496 608 400 608 288C608 199.6 536.4 128 448 128C424.9 128 402.9 132.9 383.1 141.7C389.8 157.3 394.7 173.8 397.4 191C408 186.5 419.7 183.9 432 183.9C445.3 183.9 456 194.6 456 207.9C456 221.2 445.3 231.9 432 231.9C417.8 231.9 405.3 239.3 398.2 250.5C391.6 300.3 367.4 344.1 343.3 377.1C337.6 384.9 331.8 392.3 326 399.3C363.7 456.8 416 496 416 496z"/></svg>