<svg xmlns="http://www.w3.org/2000/svg" viewBox="0 0 640 640"><!--! Font Awesome Pro 7.2.0 by @fontawesome - https://fontawesome.com License - https://fontawesome.com/license (Commercial License) Copyright 2026 Fonticons, Inc. --><path fill="currentColor" d="M336 208C336 243.7 328.7 277.6 315.5 308.5C320.3 311.5 324.9 314.7 329.4 318.3L364.9 346.6L446 325C456.6 322.2 467.4 320.6 478.3 320.1C479.5 309.6 480.1 298.8 480.1 288C480.1 203.3 443.5 127.1 385.3 74.4C377.7 67.6 368 64 358.3 64C328.9 64 310.8 93.4 320.3 119C330.6 146.7 336.2 176.7 336.2 208zM309.4 343.2C290.6 328.2 267.3 320 243.3 320C220.4 320 198.1 327.4 179.8 341.2L137.6 372.8C127 380.8 124.8 395.8 132.8 406.4C140.8 417 155.8 419.2 166.4 411.2L208.6 379.6C218.6 372.1 230.8 368 243.3 368C253.8 368 264.1 370.9 273 376.2C226.1 430 157 464 80 464C53.5 464 32 485.5 32 512L32 528C32 554.5 53.5 576 80 576L192 576C309.3 576 410.2 505.9 455.1 405.4L466.6 402.3C472.3 400.8 478.2 400 484.1 400C507.9 400 530 412.5 542.2 432.9L563.5 468.3C570.3 479.7 585.1 483.3 596.4 476.5C607.7 469.7 611.4 454.9 604.6 443.6L583.3 408.2C562.4 373.3 524.7 352 484 352C480.2 352 476.5 352.2 472.7 352.6C467.2 353.1 461.8 354.1 456.4 355.4C455.6 355.6 454.9 355.8 454.1 356L357.4 381.8L309.3 343.3z"/></svg>