<svg xmlns="http://www.w3.org/2000/svg" viewBox="0 0 640 640"><!--! Font Awesome Pro 7.2.0 by @fontawesome - https://fontawesome.com License - https://fontawesome.com/license (Commercial License) Copyright 2026 Fonticons, Inc. --><path fill="currentColor" d="M73 519L165 427C172.3 419.7 178.4 411.3 183 402.1L249.1 270C253.7 260.8 259.8 252.3 267.1 245.1L462.8 49.3C473.9 38.2 488.9 32 504.5 32C519.6 32 534.2 37.8 545.1 48.2L592.3 93C604.9 105 611.4 122 609.8 139.4C608.6 152.7 602.8 165.2 593.3 174.6L395.1 373C387.8 380.3 379.4 386.4 370.1 391L238 457C228.8 461.6 220.3 467.7 213.1 475L121.1 567L122.8 568.8C130.5 578.2 129.9 592.1 121.1 600.9C112.3 609.7 98.4 610.2 89 602.6L87.2 600.9L39.2 552.9L37.5 551.1C29.8 541.7 30.4 527.8 39.2 519C48 510.2 61.9 509.7 71.3 517.3L73 519z"/></svg>