<svg xmlns="http://www.w3.org/2000/svg" viewBox="0 0 640 640"><!--! Font Awesome Pro 7.2.0 by @fontawesome - https://fontawesome.com License - https://fontawesome.com/license (Commercial License) Copyright 2026 Fonticons, Inc. --><path fill="currentColor" d="M320 64C326.6 64 332.9 66.7 337.4 71.5L481.4 223.5L481.9 224L560 224C577.7 224 592 238.3 592 256C592 270.5 582.4 282.7 569.2 286.7L523.1 493.9C516.6 523.2 490.6 544 460.6 544L179.3 544C149.3 544 123.3 523.2 116.8 493.9L70.8 286.7C57.6 282.8 48 270.5 48 256C48 238.3 62.3 224 80 224L158.1 224L158.6 223.5L302.6 71.5C307.1 66.7 313.4 64 320 64zM320 122.9L224.2 224L415.8 224L320 122.9zM248 360C234.7 360 224 370.7 224 384C224 397.3 234.7 408 248 408L392 408C405.3 408 416 397.3 416 384C416 370.7 405.3 360 392 360L248 360z"/></svg>