<svg xmlns="http://www.w3.org/2000/svg" viewBox="0 0 640 640"><!--! Font Awesome Pro 7.2.0 by @fontawesome - https://fontawesome.com License - https://fontawesome.com/license (Commercial License) Copyright 2026 Fonticons, Inc. --><path fill="currentColor" d="M73 39.1C63.6 29.7 48.4 29.7 39.1 39.1C29.8 48.5 29.7 63.7 39 73.1L567 601.1C576.4 610.5 591.6 610.5 600.9 601.1C610.2 591.7 610.3 576.5 600.9 567.2L544.1 510.4C580.5 502.9 607.9 470.7 607.9 432L607.9 384C625.6 384 639.9 369.7 639.9 352L639.9 288C639.9 270.3 625.6 256 607.9 256L607.9 208C607.9 163.8 572.1 128 527.9 128L161.8 128L73 39.1zM225.8 192L528 192C536.8 192 544 199.2 544 208L544 432C544 440.8 536.8 448 528 448L481.8 448L225.8 192zM346.2 448L112 448C103.2 448 96 440.8 96 432L96 208C96 205.1 96.8 202.3 98.2 200L52.6 154.4C39.8 168.6 32 187.4 32 208L32 432C32 476.2 67.8 512 112 512L410.2 512L346.2 448z"/></svg>