<svg xmlns="http://www.w3.org/2000/svg" viewBox="0 0 640 640"><!--! Font Awesome Pro 7.2.0 by @fontawesome - https://fontawesome.com License - https://fontawesome.com/license (Commercial License) Copyright 2026 Fonticons, Inc. --><path fill="currentColor" d="M606.1 78.5C611.3 90.7 605.7 104.8 593.5 110L537.5 134C525.3 139.2 511.2 133.6 506 121.4C500.8 109.2 506.4 95.1 518.6 89.9L574.6 65.9C586.8 60.7 600.9 66.3 606.1 78.5zM288 96C288 78.3 302.3 64 320 64C337.7 64 352 78.3 352 96L352 99.2C425 114 480 178.6 480 256L480 277.7C480 325.8 496.4 372.5 526.4 410.1L536.2 422.3C541.2 428.6 544 436.4 544 444.5C544 464.1 528.1 480 508.5 480L131.6 480C112 480 96.1 464.1 96.1 444.5C96.1 436.4 98.8 428.6 103.9 422.3L113.7 410.1C143.8 372.5 160.1 325.8 160.1 277.7L160.1 256C160.1 178.6 215.1 114 288.1 99.2L288.1 96zM320 576C290.2 576 265.1 555.6 258 528L382 528C374.9 555.6 349.8 576 320 576zM0 248C0 234.7 10.7 224 24 224L88 224C101.3 224 112 234.7 112 248C112 261.3 101.3 272 88 272L24 272C10.7 272 0 261.3 0 248zM552 224L616 224C629.3 224 640 234.7 640 248C640 261.3 629.3 272 616 272L552 272C538.7 272 528 261.3 528 248C528 234.7 538.7 224 552 224zM46.5 110.1C34.4 104.8 28.7 90.7 33.9 78.5C39.1 66.3 53.3 60.7 65.5 65.9L121.5 89.9C133.7 95.1 139.3 109.2 134.1 121.4C128.9 133.6 114.8 139.2 102.6 134L46.6 110z"/></svg>