<svg xmlns="http://www.w3.org/2000/svg" viewBox="0 0 640 640"><!--! Font Awesome Pro 7.2.0 by @fontawesome - https://fontawesome.com License - https://fontawesome.com/license (Commercial License) Copyright 2026 Fonticons, Inc. --><path fill="currentColor" d="M400 64C426.5 64 448 85.5 448 112C448 138.5 426.5 160 400 160C373.5 160 352 138.5 352 112C352 85.5 373.5 64 400 64zM365.4 175.2L427.2 224L480 224C497.7 224 512 238.3 512 256C512 273.7 497.7 288 480 288L416 288C408.7 288 401.7 285.5 396 281L355.3 248.4L295 296.9L337.7 325.4C346.6 331.3 351.9 341.3 351.9 352L351.9 480C351.9 497.7 337.6 512 319.9 512C302.2 512 287.9 497.7 287.9 480L287.9 369.1L227.4 330.7C194.6 309.9 192.4 262.8 223.1 239.1L306.2 174.9C323.6 161.4 348 161.6 365.3 175.2zM151.4 338.4C165 341.3 177.7 346.6 189 354C198.3 348.3 210.5 349.4 218.6 357.5C226.7 365.6 227.8 377.8 222.1 387.1C229.4 398.4 234.8 411.1 237.7 424.7C248.3 427.2 256.1 436.7 256.1 448.1C256.1 459.5 248.2 468.9 237.7 471.5C234.8 485.1 229.5 497.8 222.1 509.1C227.8 518.4 226.7 530.6 218.6 538.7C210.5 546.8 198.3 547.9 189 542.2C177.7 549.5 165 554.9 151.4 557.8C148.9 568.4 139.4 576.2 128 576.2C116.6 576.2 107.2 568.3 104.6 557.8C91 554.9 78.3 549.6 67 542.2C57.7 547.9 45.5 546.8 37.4 538.7C29.3 530.6 28.3 518.2 34 509C26.7 497.7 21.3 485 18.4 471.4C7.9 468.8 0 459.3 0 448C0 436.7 7.9 427.2 18.4 424.6C21.3 411 26.6 398.3 34 387C28.3 377.7 29.4 365.5 37.5 357.4C45.6 349.3 57.8 348.3 67 354C78.3 346.7 91 341.3 104.6 338.4C107.1 327.8 116.6 320 128 320C139.4 320 148.8 327.9 151.4 338.4zM128 512C163.3 512 192 483.3 192 448C192 412.7 163.3 384 128 384C92.7 384 64 412.7 64 448C64 483.3 92.7 512 128 512zM512 320C523.3 320 532.8 327.9 535.4 338.4C549 341.3 561.7 346.6 573 354C582.3 348.3 594.5 349.4 602.6 357.5C610.7 365.6 611.8 377.8 606.1 387.1C613.4 398.4 618.8 411.1 621.7 424.7C632.3 427.2 640.1 436.7 640.1 448.1C640.1 459.5 632.2 468.9 621.7 471.5C618.8 485.1 613.5 497.8 606.1 509.1C611.8 518.4 610.7 530.6 602.6 538.7C594.5 546.8 582.3 547.9 573 542.2C561.7 549.5 549 554.9 535.4 557.8C532.9 568.4 523.4 576.2 512 576.2C500.6 576.2 491.2 568.3 488.6 557.8C475 554.9 462.3 549.6 451 542.2C441.7 547.9 429.5 546.8 421.4 538.7C413.3 530.6 412.2 518.4 417.9 509.1C410.6 497.8 405.2 485.1 402.3 471.5C391.7 469 383.9 459.5 383.9 448.1C383.9 436.7 391.8 427.3 402.3 424.7C405.2 411.1 410.5 398.4 417.9 387.1C412.2 377.8 413.3 365.6 421.4 357.5C429.5 349.4 441.7 348.3 451 354C462.3 346.7 475 341.3 488.6 338.4C491.1 327.8 500.6 320 512 320zM576 448C576 412.7 547.3 384 512 384C476.7 384 448 412.7 448 448C448 483.3 476.7 512 512 512C547.3 512 576 483.3 576 448z"/></svg>