<svg xmlns="http://www.w3.org/2000/svg" viewBox="0 0 640 640"><!--! Font Awesome Pro 7.2.0 by @fontawesome - https://fontawesome.com License - https://fontawesome.com/license (Commercial License) Copyright 2026 Fonticons, Inc. --><path fill="currentColor" d="M160 96L224 96C241.7 96 256 110.3 256 128L256 160C291.3 160 320 188.7 320 224C320 188.7 348.7 160 384 160L384 128C384 110.3 398.3 96 416 96L480 96C497.7 96 512 110.3 512 128L512 160C547.3 160 576 188.7 576 224L576 240L64 240L64 224C64 188.7 92.7 160 128 160L128 128C128 110.3 142.3 96 160 96zM32 320C32 302.3 46.3 288 64 288L576 288C593.7 288 608 302.3 608 320C608 337.7 593.7 352 576 352L572 352L551 519.9C547 551.9 519.8 576 487.5 576L152.5 576C120.2 576 93 552 89 519.9L68 352L64 352C46.3 352 32 337.7 32 320z"/></svg>