<svg xmlns="http://www.w3.org/2000/svg" viewBox="0 0 640 640"><!--! Font Awesome Pro 7.2.0 by @fontawesome - https://fontawesome.com License - https://fontawesome.com/license (Commercial License) Copyright 2026 Fonticons, Inc. --><path fill="currentColor" d="M128 96C110.3 96 96 110.3 96 128C96 145.7 110.3 160 128 160L208 160L208 392C208 405.3 218.7 416 232 416C245.3 416 256 405.3 256 392L256 160L512 160C529.7 160 544 145.7 544 128C544 110.3 529.7 96 512 96L128 96zM512 288C529.7 288 544 273.7 544 256C544 238.3 529.7 224 512 224L304 224L304 288L512 288zM128 224C110.3 224 96 238.3 96 256C96 273.7 110.3 288 128 288L160 288L160 224L128 224zM128 416L160 416L160 352L128 352C110.3 352 96 366.3 96 384C96 401.7 110.3 416 128 416zM512 352L304 352L304 416L512 416C529.7 416 544 401.7 544 384C544 366.3 529.7 352 512 352zM128 544L512 544C529.7 544 544 529.7 544 512C544 494.3 529.7 480 512 480L128 480C110.3 480 96 494.3 96 512C96 529.7 110.3 544 128 544z"/></svg>