<svg xmlns="http://www.w3.org/2000/svg" viewBox="0 0 640 640"><!--! Font Awesome Pro 7.2.0 by @fontawesome - https://fontawesome.com License - https://fontawesome.com/license (Commercial License) Copyright 2026 Fonticons, Inc. --><path fill="currentColor" d="M128 128C110.3 128 96 142.3 96 160C96 177.7 110.3 192 128 192L512 192C529.7 192 544 177.7 544 160C544 142.3 529.7 128 512 128L128 128zM256 288C238.3 288 224 302.3 224 320C224 337.7 238.3 352 256 352L512 352C529.7 352 544 337.7 544 320C544 302.3 529.7 288 512 288L256 288zM224 480C224 497.7 238.3 512 256 512L512 512C529.7 512 544 497.7 544 480C544 462.3 529.7 448 512 448L256 448C238.3 448 224 462.3 224 480zM128 288C110.3 288 96 302.3 96 320L96 480C96 497.7 110.3 512 128 512C145.7 512 160 497.7 160 480L160 320C160 302.3 145.7 288 128 288z"/></svg>