<svg xmlns="http://www.w3.org/2000/svg" viewBox="0 0 640 640"><!--! Font Awesome Pro 7.2.0 by @fontawesome - https://fontawesome.com License - https://fontawesome.com/license (Commercial License) Copyright 2026 Fonticons, Inc. --><path fill="currentColor" d="M128 96C110.3 96 96 110.3 96 128C96 145.7 110.3 160 128 160C145.7 160 160 145.7 160 128C160 110.3 145.7 96 128 96zM288 128C288 110.3 273.7 96 256 96C238.3 96 224 110.3 224 128C224 145.7 238.3 160 256 160C273.7 160 288 145.7 288 128zM416 128C416 110.3 401.7 96 384 96C366.3 96 352 110.3 352 128C352 145.7 366.3 160 384 160C401.7 160 416 145.7 416 128zM160 384C160 366.3 145.7 352 128 352C110.3 352 96 366.3 96 384C96 401.7 110.3 416 128 416C145.7 416 160 401.7 160 384zM128 224C110.3 224 96 238.3 96 256C96 273.7 110.3 288 128 288C145.7 288 160 273.7 160 256C160 238.3 145.7 224 128 224zM544 128C544 110.3 529.7 96 512 96C494.3 96 480 110.3 480 128L480 480L128 480C110.3 480 96 494.3 96 512C96 529.7 110.3 544 128 544L480 544C515.3 544 544 515.3 544 480L544 128z"/></svg>