<svg xmlns="http://www.w3.org/2000/svg" viewBox="0 0 640 640"><!--! Font Awesome Pro 7.2.0 by @fontawesome - https://fontawesome.com License - https://fontawesome.com/license (Commercial License) Copyright 2026 Fonticons, Inc. --><path fill="currentColor" d="M348 128C348 112.5 335.5 100 320 100C304.5 100 292 112.5 292 128L292 292L128 292C112.5 292 100 304.5 100 320C100 335.5 112.5 348 128 348L292 348L292 512C292 527.5 304.5 540 320 540C335.5 540 348 527.5 348 512L348 348L512 348C527.5 348 540 335.5 540 320C540 304.5 527.5 292 512 292L348 292L348 128zM128 248C141.3 248 152 237.3 152 224C152 210.7 141.3 200 128 200C114.7 200 104 210.7 104 224C104 237.3 114.7 248 128 248zM152 512C152 498.7 141.3 488 128 488C114.7 488 104 498.7 104 512C104 525.3 114.7 536 128 536C141.3 536 152 525.3 152 512zM152 128C152 114.7 141.3 104 128 104C114.7 104 104 114.7 104 128C104 141.3 114.7 152 128 152C141.3 152 152 141.3 152 128zM536 224C536 210.7 525.3 200 512 200C498.7 200 488 210.7 488 224C488 237.3 498.7 248 512 248C525.3 248 536 237.3 536 224zM128 440C141.3 440 152 429.3 152 416C152 402.7 141.3 392 128 392C114.7 392 104 402.7 104 416C104 429.3 114.7 440 128 440zM536 416C536 402.7 525.3 392 512 392C498.7 392 488 402.7 488 416C488 429.3 498.7 440 512 440C525.3 440 536 429.3 536 416zM224 536C237.3 536 248 525.3 248 512C248 498.7 237.3 488 224 488C210.7 488 200 498.7 200 512C200 525.3 210.7 536 224 536zM248 128C248 114.7 237.3 104 224 104C210.7 104 200 114.7 200 128C200 141.3 210.7 152 224 152C237.3 152 248 141.3 248 128zM416 536C429.3 536 440 525.3 440 512C440 498.7 429.3 488 416 488C402.7 488 392 498.7 392 512C392 525.3 402.7 536 416 536zM440 128C440 114.7 429.3 104 416 104C402.7 104 392 114.7 392 128C392 141.3 402.7 152 416 152C429.3 152 440 141.3 440 128zM512 536C525.3 536 536 525.3 536 512C536 498.7 525.3 488 512 488C498.7 488 488 498.7 488 512C488 525.3 498.7 536 512 536zM536 128C536 114.7 525.3 104 512 104C498.7 104 488 114.7 488 128C488 141.3 498.7 152 512 152C525.3 152 536 141.3 536 128z"/></svg>