<svg xmlns="http://www.w3.org/2000/svg" viewBox="0 0 640 640"><!--! Font Awesome Pro 7.2.0 by @fontawesome - https://fontawesome.com License - https://fontawesome.com/license (Commercial License) Copyright 2026 Fonticons, Inc. --><path fill="currentColor" d="M320 272C320 243 331 216.5 349.2 196.6C369.4 174.4 398.5 160.3 430.9 160L432 160C493.9 160 544 210.1 544 272L320 272zM208 160L209.1 160C241.5 160.3 270.6 174.4 290.8 196.6C278.8 219.1 272 244.7 272 272L96 272C96 210.1 146.1 160 208 160zM412.7 113.2C376.8 117.5 344.5 133.7 320 157.7C295.5 133.7 263.2 117.5 227.3 113.2C247.4 83.5 281.4 64 320 64C358.6 64 392.6 83.5 412.7 113.2zM96 336C96 327.2 103.2 320 112 320L528 320C536.8 320 544 327.2 544 336L544 352C544 422.7 486.7 480 416 480L380.8 480L426.8 537.5C430.2 541.7 432 546.9 432 552.3C432 565.4 421.4 576 408.3 576L231.7 576C218.6 576 208 565.4 208 552.3C208 546.9 209.8 541.7 213.2 537.5L259.2 480L224 480C153.3 480 96 422.7 96 352L96 336z"/></svg>