<svg xmlns="http://www.w3.org/2000/svg" viewBox="0 0 640 640"><!--! Font Awesome Pro 7.2.0 by @fontawesome - https://fontawesome.com License - https://fontawesome.com/license (Commercial License) Copyright 2026 Fonticons, Inc. --><path fill="currentColor" d="M96.2 208C96.1 209.5 96 211 96 212.5L96 480C96 515.3 124.7 544 160 544L480 544C515.3 544 544 515.3 544 480L544 212.5C544 211 543.9 209.5 543.8 208L384 208L384 256C384 273.7 369.7 288 352 288L288 288C270.3 288 256 273.7 256 256L256 208L96.2 208zM118.9 160L265.2 160L288.1 80L209 80C188.3 80 168.9 90 156.9 106.8L118.9 160zM374.9 160L521.2 160L483.2 106.8C471.1 90 451.7 80 431.1 80L352 80L374.9 160z"/></svg>