<svg xmlns="http://www.w3.org/2000/svg" viewBox="0 0 640 640"><!--! Font Awesome Pro 7.2.0 by @fontawesome - https://fontawesome.com License - https://fontawesome.com/license (Commercial License) Copyright 2026 Fonticons, Inc. --><path fill="currentColor" d="M288.7 80C279.4 99.6 273.8 121.2 272.7 144L177.5 144L143.2 192L264.5 192L264.5 382.1L241.5 359.1L239.7 357.4C230.3 349.7 216.4 350.3 207.6 359.1C198.8 367.9 198.3 381.8 205.9 391.2L207.6 393L271.6 457C280.4 465.8 294.3 466.3 303.7 458.7L305.5 457L369.5 393C378.9 383.6 378.9 368.4 369.5 359.1C360.1 349.8 344.9 349.7 335.6 359.1L312.6 382.1L312.6 260.8C343.4 297 389.3 320 440.6 320C460.4 320 479.4 316.6 497.1 310.2L512.6 325.7L512.6 479.9L512.3 486.4C509.2 516.5 485.3 540.5 455.2 543.5L448.7 543.8L128.7 543.8L122.2 543.5C92.1 540.4 68.1 516.5 65.1 486.4L64.8 479.9L64.8 212.4C64.8 200.7 68 189.3 74 179.4L76.7 175.2L125.6 106.7C136.1 92 152.3 82.5 170 80.4L177.7 79.9L288.9 79.9zM440.5 32.1C506.8 32.1 560.5 85.8 560.5 152.1C560.5 176.5 553.1 199.3 540.6 218.2L601.5 279.1C610.9 288.5 610.9 303.7 601.5 313C592.7 321.8 578.8 322.3 569.4 314.7L567.6 313L506.7 252.1C487.7 264.7 465 272 440.5 272C374.2 272 320.5 218.3 320.5 152C320.5 85.7 374.2 32 440.5 32zM440.5 80.1C400.7 80.1 368.5 112.3 368.5 152.1C368.5 191.9 400.7 224.1 440.5 224.1C480.3 224.1 512.5 191.9 512.5 152.1C512.5 112.3 480.3 80.1 440.5 80.1z"/></svg>