<svg xmlns="http://www.w3.org/2000/svg" viewBox="0 0 640 640"><!--! Font Awesome Pro 7.2.0 by @fontawesome - https://fontawesome.com License - https://fontawesome.com/license (Commercial License) Copyright 2026 Fonticons, Inc. --><path fill="currentColor" d="M465.4 192L431.1 144L344 144L344 192L465.4 192zM296 192L296 144L208.9 144L174.6 192L296 192zM96 212.5C96 199.2 100.2 186.2 107.9 175.3L156.9 106.8C168.9 90 188.3 80 208.9 80L431 80C451.7 80 471.1 90 483.1 106.8L532 175.3C539.8 186.2 543.9 199.2 543.9 212.5L544 480C544 515.3 515.3 544 480 544L160 544C124.7 544 96 515.3 96 480L96 212.5zM324 256C313 256 304 265 304 276L304 280C275.2 280.3 252 303.7 252 332.5C252 358.2 270.5 380.1 295.9 384.3L337.6 391.3C343.6 392.3 348 397.5 348 403.6C348 410.5 342.4 416.1 335.5 416.1L280 416C269 416 260 425 260 436C260 447 269 456 280 456L304 456L304 460C304 471 313 480 324 480C335 480 344 471 344 460L344 455.3C369 451.2 388 429.6 388 403.5C388 377.8 369.5 355.9 344.1 351.7L302.4 344.7C296.4 343.7 292 338.5 292 332.4C292 325.5 297.6 319.9 304.5 319.9L352 319.9C363 319.9 372 310.9 372 299.9C372 288.9 363 279.9 352 279.9L344 279.9L344 275.9C344 264.9 335 255.9 324 255.9z"/></svg>