<svg xmlns="http://www.w3.org/2000/svg" viewBox="0 0 640 640"><!--! Font Awesome Pro 7.2.0 by @fontawesome - https://fontawesome.com License - https://fontawesome.com/license (Commercial License) Copyright 2026 Fonticons, Inc. --><path fill="currentColor" d="M160 96C124.7 96 96 124.7 96 160L96 480C96 515.3 124.7 544 160 544L480 544C515.3 544 544 515.3 544 480L544 160C544 124.7 515.3 96 480 96L160 96zM216 416L424 416C437.3 416 448 426.7 448 440C448 453.3 437.3 464 424 464L216 464C202.7 464 192 453.3 192 440C192 426.7 202.7 416 216 416zM175 273C165.6 263.6 165.6 248.4 175 239.1L223 191.1C227.5 186.6 233.6 184.1 240 184.1C246.4 184.1 252.5 186.6 257 191.1L305 239.1C314.4 248.5 314.4 263.7 305 273C295.6 282.3 280.4 282.4 271.1 273L264.1 266L264.1 344.1C264.1 357.4 253.4 368.1 240.1 368.1C226.8 368.1 216.1 357.4 216.1 344.1L216.1 266L209.1 273C199.7 282.4 184.5 282.4 175.2 273zM335 239L383 191C392.4 181.6 407.6 181.6 416.9 191L464.9 239C474.3 248.4 474.3 263.6 464.9 272.9C455.5 282.2 440.3 282.3 431 272.9L424 265.9L424 344C424 357.3 413.3 368 400 368C386.7 368 376 357.3 376 344L376 265.9L369 272.9C359.6 282.3 344.4 282.3 335.1 272.9C325.8 263.5 325.7 248.3 335.1 239z"/></svg>