<svg xmlns="http://www.w3.org/2000/svg" viewBox="0 0 640 640"><!--! Font Awesome Pro 7.2.0 by @fontawesome - https://fontawesome.com License - https://fontawesome.com/license (Commercial License) Copyright 2026 Fonticons, Inc. --><path fill="currentColor" d="M465.4 192L431.1 144L344 144L344 192L465.4 192zM296 192L296 144L208.9 144L174.6 192L296 192zM96 212.5C96 199.2 100.2 186.2 107.9 175.3L156.9 106.8C168.9 90 188.3 80 208.9 80L431 80C451.7 80 471.1 90 483.1 106.8L532 175.3C539.8 186.2 543.9 199.2 543.9 212.5L544 480C544 515.3 515.3 544 480 544L160 544C124.7 544 96 515.3 96 480L96 212.5zM313.6 295.5C302.5 280.7 285.1 272 266.7 272C234.3 272 208 298.3 208 330.7L208 336C208 385.1 273.8 434.1 304.5 454.3C314 460.5 326 460.5 335.4 454.3C366.1 434.1 431.9 385 431.9 336L431.9 330.7C431.9 298.3 405.6 272 373.2 272C354.7 272 337.3 280.7 326.3 295.5L319.9 304L313.5 295.5z"/></svg>