<svg xmlns="http://www.w3.org/2000/svg" viewBox="0 0 640 640"><!--! Font Awesome Pro 7.2.0 by @fontawesome - https://fontawesome.com License - https://fontawesome.com/license (Commercial License) Copyright 2026 Fonticons, Inc. --><path fill="currentColor" d="M209.8 154.6C224.5 144.8 228.5 124.9 218.7 110.2C208.9 95.5 189 91.6 174.2 101.4C135.9 126.9 64 204.2 64 320C64 435.8 135.9 513 174.2 538.6C188.9 548.4 208.8 544.4 218.6 529.7C228.4 515 224.4 495.1 209.7 485.3C184.1 468.3 128 409 128 320C128 231 184.1 171.7 209.8 154.6zM430.3 154.6C455.9 171.7 512 231 512 320C512 409 455.9 468.3 430.2 485.4C415.5 495.2 411.5 515.1 421.3 529.8C431.1 544.5 451 548.5 465.7 538.7C504.1 513.1 576 435.8 576 320C576 204.2 504.1 126.9 465.8 101.4C451.1 91.6 431.2 95.6 421.4 110.3C411.6 125 415.6 144.9 430.3 154.7z"/></svg>