<svg xmlns="http://www.w3.org/2000/svg" viewBox="0 0 640 640"><!--! Font Awesome Pro 7.2.0 by @fontawesome - https://fontawesome.com License - https://fontawesome.com/license (Commercial License) Copyright 2026 Fonticons, Inc. --><path fill="currentColor" d="M320 544C196.3 544 96 443.7 96 320C96 196.3 196.3 96 320 96C443.7 96 544 196.3 544 320C544 443.7 443.7 544 320 544zM50.8 147C58 135.9 72.8 132.6 84 139.8C95.1 147 98.4 161.8 91.2 173C63.9 215.4 48.1 265.8 48.1 320C48.1 374.2 63.8 424.6 91.1 467C98.3 478.1 95.1 493 83.9 500.2C72.8 507.4 57.9 504.1 50.7 493C18.6 443.1-.1 383.7-.1 320C-.1 256.3 18.6 196.9 50.8 147zM556.1 139.8C567.2 132.6 582.1 135.9 589.3 147C621.4 196.9 640 256.3 640 320C640 383.7 621.4 443.1 589.3 493C582.1 504.1 567.3 507.4 556.1 500.2C545 493 541.7 478.2 548.9 467C576.2 424.6 592 374.2 592 320C592 265.8 576.2 215.4 548.9 173C541.7 161.9 544.9 147 556.1 139.8zM320 384C302.3 384 288 398.3 288 416C288 433.7 302.3 448 320 448C337.7 448 352 433.7 352 416C352 398.3 337.7 384 320 384zM320 192C301.8 192 287.3 207.5 288.6 225.7L296 329.7C296.9 342.3 307.4 352 319.9 352C332.5 352 342.9 342.3 343.8 329.7L351.2 225.7C352.5 207.5 338.1 192 319.8 192z"/></svg>