<svg xmlns="http://www.w3.org/2000/svg" viewBox="0 0 640 640"><!--! Font Awesome Pro 7.2.0 by @fontawesome - https://fontawesome.com License - https://fontawesome.com/license (Commercial License) Copyright 2026 Fonticons, Inc. --><path fill="currentColor" d="M137.4 79.9C136.7 81.8 136.3 83.8 136.1 85.9C132 123.5 108.6 157.2 75.2 178.3C64 185.4 60.6 200.2 67.7 211.4C74.8 222.6 89.6 226 100.8 218.9C113.6 210.8 125.4 201.2 136 190.3L136 320L64 320L64 400C101.6 409.4 128 443.2 128 482L128 544C128 561.7 142.3 576 160 576L194.9 576C211 576 224 563 224 546.9L224 512C224 459 267 416 320 416C373 416 416 459 416 512L416 546.9C416 563 429 576 445.1 576L480 576C497.7 576 512 561.7 512 544L512 482C512 443.2 538.4 409.4 576 400L576 320L504 320L504 191.7C514.5 202.5 526.4 212.1 539.4 220.1C550.7 227 565.5 223.5 572.4 212.2C579.3 200.9 575.8 186.1 564.5 179.2C530.8 158.5 508 124.5 503.8 86C503.6 83.9 503.2 81.9 502.5 79.9C500.1 73.2 494.7 67.8 487.9 65.4C485.5 64.5 482.8 64.1 480.1 64.1C477.2 64.1 474.4 64.6 471.8 65.5C465.2 67.9 459.8 73.2 457.4 80C456.7 81.9 456.3 83.9 456.1 85.9C449.2 148.8 392 200 320 200C248 200 190.8 148.8 183.9 85.9C183.7 83.8 183.3 81.9 182.6 80C181.4 76.5 179.4 73.5 176.8 71C174.4 68.6 171.4 66.7 168.1 65.5C165.5 64.6 162.7 64 159.8 64.1C157.1 64.1 154.5 64.6 152 65.4C148.5 66.6 145.4 68.6 142.8 71.2C140.4 73.6 138.5 76.6 137.3 80zM400 230.8C421.2 221.2 440.2 207.8 456 191.5L456 320L400 320L400 230.8zM320 248C330.9 248 341.6 247.1 352 245.4L352 320L288 320L288 245.4C298.4 247.1 309.1 248 320 248zM184 191.5C199.8 207.8 218.8 221.1 240 230.8L240 320L184 320L184 191.5z"/></svg>