<svg xmlns="http://www.w3.org/2000/svg" viewBox="0 0 640 640"><!--! Font Awesome Pro 7.2.0 by @fontawesome - https://fontawesome.com License - https://fontawesome.com/license (Commercial License) Copyright 2026 Fonticons, Inc. --><path fill="currentColor" d="M598.6 41.4C586.1 28.9 565.8 28.9 553.3 41.4L361.3 233.4L345.5 217.6C330.3 202.4 307 199.2 288.2 209.6L255.7 227.6L412.2 384.1L430.2 351.6C440.6 332.9 437.3 309.5 422.2 294.3L406.4 278.5L598.4 86.5C610.9 74 610.9 53.7 598.4 41.2zM219.5 247.8L48.4 342.9C38.3 348.5 32 359.2 32 370.8C32 379.2 35.4 387.4 41.3 393.3L84.5 436.5C86.6 438.6 89.8 439.4 92.7 438.4L144.8 421C151.1 418.9 157 424.9 154.9 431.1L137.5 483.2C136.5 486.1 137.3 489.2 139.4 491.4L246.7 598.7C252.7 604.7 260.8 608 269.3 608C280.9 608 291.6 601.7 297.2 591.6L392.3 420.5L219.6 247.8z"/></svg>