<svg xmlns="http://www.w3.org/2000/svg" viewBox="0 0 640 640"><!--! Font Awesome Pro 7.2.0 by @fontawesome - https://fontawesome.com License - https://fontawesome.com/license (Commercial License) Copyright 2026 Fonticons, Inc. --><path fill="currentColor" d="M96 64C60.7 64 32 92.7 32 128L32 512C32 547.3 60.7 576 96 576L305.3 576C304.4 570.8 304 565.5 304 560L304 352L272 352C263.2 352 256 344.8 256 336L256 304C256 295.2 263.2 288 272 288L304 288L304 240C304 234.5 304.5 229.2 305.3 223.9C304.9 223.9 304.4 224 304 224L272 224C263.2 224 256 216.8 256 208L256 176C256 167.2 263.2 160 272 160L304 160C312.8 160 320 167.2 320 176L320 186.9C337.2 161 366.6 144 400 144L416 144L416 128C416 92.7 387.3 64 352 64L96 64zM224 416C250.5 416 272 437.5 272 464L272 528L176 528L176 464C176 437.5 197.5 416 224 416zM128 176C128 167.2 135.2 160 144 160L176 160C184.8 160 192 167.2 192 176L192 208C192 216.8 184.8 224 176 224L144 224C135.2 224 128 216.8 128 208L128 176zM128 304C128 295.2 135.2 288 144 288L176 288C184.8 288 192 295.2 192 304L192 336C192 344.8 184.8 352 176 352L144 352C135.2 352 128 344.8 128 336L128 304zM352 256L352 544C352 579.3 380.7 608 416 608L576 608C611.3 608 640 579.3 640 544L640 256C640 220.7 611.3 192 576 192L416 192C380.7 192 352 220.7 352 256zM424 304C424 290.7 434.7 280 448 280L544 280C557.3 280 568 290.7 568 304C568 317.3 557.3 328 544 328L448 328C434.7 328 424 317.3 424 304zM448 376L544 376C557.3 376 568 386.7 568 400C568 413.3 557.3 424 544 424L448 424C434.7 424 424 413.3 424 400C424 386.7 434.7 376 448 376zM424 496C424 482.7 434.7 472 448 472L512 472C525.3 472 536 482.7 536 496C536 509.3 525.3 520 512 520L448 520C434.7 520 424 509.3 424 496z"/></svg>