<svg xmlns="http://www.w3.org/2000/svg" viewBox="0 0 640 640"><!--! Font Awesome Pro 7.2.0 by @fontawesome - https://fontawesome.com License - https://fontawesome.com/license (Commercial License) Copyright 2026 Fonticons, Inc. --><path fill="currentColor" d="M512 320C512 426 426 512 320 512C317.6 512 315.2 512 312.8 511.9L300.7 548.3C297.3 558.6 291.8 567.1 285.1 573.7C296.5 575.3 308.1 576.1 320 576.1C461.4 576.1 576 461.5 576 320.1C576 178.7 461.4 64 320 64C178.6 64 64 178.6 64 320C64 331.8 64.8 343.5 66.4 354.9C73 348.2 81.5 342.8 91.8 339.3L128.2 327.2C128.1 324.8 128.1 322.4 128.1 320C128.1 214 214.1 128 320.1 128C426.1 128 512.1 214 512.1 320zM464 320C464 240.5 399.5 176 320 176C243.5 176 180.9 235.7 176.3 311.1L246.9 287.6C259.3 259.6 287.4 240 320.1 240C364.3 240 400.1 275.8 400.1 320C400.1 352.6 380.5 380.7 352.5 393.2L329 463.8C404.3 459.1 464 396.5 464 320zM319.2 341.1C321.1 335.3 319.6 329 315.3 324.7C311 320.4 304.7 318.9 298.9 320.8L106.9 384.8C100.4 387 96 393.1 96 400C96 406.9 100.4 413 106.9 415.2L169.9 436.2L79 527.1C69.6 536.5 69.6 551.7 79 561C88.4 570.3 103.6 570.4 112.9 561L203.8 470.1L224.8 533.1C227 539.6 233.1 544 240 544C246.9 544 253 539.6 255.2 533.1L319.2 341.1z"/></svg>