<svg xmlns="http://www.w3.org/2000/svg" viewBox="0 0 640 640"><!--! Font Awesome Pro 7.2.0 by @fontawesome - https://fontawesome.com License - https://fontawesome.com/license (Commercial License) Copyright 2026 Fonticons, Inc. --><path fill="currentColor" d="M224 64C206.3 64 192 78.3 192 96C192 111.3 202.8 124.1 217.1 127.3L164.5 390.2C142.9 400.5 128 422.5 128 448L128 450.4C150.5 438.3 175.3 432.2 200 432C233.1 431.8 266.3 442.2 294.4 463.4C316.5 480 323.5 480 345.6 463.4C373.1 442.7 405.5 432.2 438 432C463.4 431.8 488.9 438 512 450.4L512 448C512 422.5 497.1 400.5 475.5 390.2L422.9 127.3C437.3 124.1 448 111.3 448 96C448 78.3 433.7 64 416 64L224 64zM357.8 128L367.6 177L320 232.5L272.4 177L282.2 128L357.7 128zM379.6 236.8L396.6 321.7L351.7 269.3L379.6 236.7zM288.5 269.4L243.6 321.8L260.6 236.9L288.5 269.5zM253.3 384L320 306.2L386.7 384L253.3 384zM403.3 540.1C424.6 524 453.2 524 474.5 540.1C493.5 554.5 516.4 568.3 541.7 573.4C568.2 578.8 596 574.2 622.4 554.3C633 546.3 635.1 531.3 627.1 520.7C619.1 510.1 604.1 508 593.5 516C578.6 527.2 564.9 529.1 551.2 526.3C536.3 523.3 520.3 514.4 503.4 501.7C465 472.7 412.9 472.7 374.4 501.7C350.4 519.8 333.7 528 319.9 528C306.1 528 289.4 519.8 265.4 501.7C227 472.7 174.9 472.7 136.4 501.7C114.8 518 95.1 527.5 77.5 527.4C67.9 527.3 57.6 524.4 46.3 515.9C35.7 507.9 20.7 510 12.7 520.6C4.7 531.2 7 546.3 17.6 554.3C36.7 568.7 57 575.3 77.4 575.4C111.3 575.6 141.7 558 165.5 540.1C186.8 524 215.4 524 236.7 540.1C260.9 558.4 289 576 320.1 576C351.2 576 379.2 558.3 403.5 540.1z"/></svg>