<svg xmlns="http://www.w3.org/2000/svg" viewBox="0 0 640 640"><!--! Font Awesome Pro 7.2.0 by @fontawesome - https://fontawesome.com License - https://fontawesome.com/license (Commercial License) Copyright 2026 Fonticons, Inc. --><path fill="currentColor" d="M288 64C270.3 64 256 78.3 256 96L256 128L208 128C181.5 128 160 149.5 160 176L160 224L576 224L576 176C576 149.5 554.5 128 528 128L480 128L480 96C480 78.3 465.7 64 448 64C430.3 64 416 78.3 416 96L416 128L320 128L320 96C320 78.3 305.7 64 288 64zM160 272L160 432C160 458.5 181.5 480 208 480L528 480C554.5 480 576 458.5 576 432L576 272L160 272zM112 248C112 234.7 101.3 224 88 224C74.7 224 64 234.7 64 248L64 512C64 547.3 92.7 576 128 576L456 576C469.3 576 480 565.3 480 552C480 538.7 469.3 528 456 528L128 528C119.2 528 112 520.8 112 512L112 248z"/></svg>