<svg xmlns="http://www.w3.org/2000/svg" viewBox="0 0 640 640"><!--! Font Awesome Pro 7.2.0 by @fontawesome - https://fontawesome.com License - https://fontawesome.com/license (Commercial License) Copyright 2026 Fonticons, Inc. --><path fill="currentColor" d="M224 96C224 78.3 209.7 64 192 64C174.3 64 160 78.3 160 96L160 128L128 128C92.7 128 64 156.7 64 192L64 240L512 240L512 192C512 156.7 483.3 128 448 128L416 128L416 96C416 78.3 401.7 64 384 64C366.3 64 352 78.3 352 96L352 128L224 128L224 96zM64 480C64 515.3 92.7 544 128 544L289.4 544C278.2 519.6 272 492.6 272 464C272 385.3 319.4 317.6 387.1 288L64 288L64 480zM464 608C543.5 608 608 543.5 608 464C608 384.5 543.5 320 464 320C384.5 320 320 384.5 320 464C320 543.5 384.5 608 464 608zM480 400L480 448L528 448C536.8 448 544 455.2 544 464C544 472.8 536.8 480 528 480L480 480L480 528C480 536.8 472.8 544 464 544C455.2 544 448 536.8 448 528L448 480L400 480C391.2 480 384 472.8 384 464C384 455.2 391.2 448 400 448L448 448L448 400C448 391.2 455.2 384 464 384C472.8 384 480 391.2 480 400z"/></svg>