<svg xmlns="http://www.w3.org/2000/svg" viewBox="0 0 640 640"><!--! Font Awesome Pro 7.2.0 by @fontawesome - https://fontawesome.com License - https://fontawesome.com/license (Commercial License) Copyright 2026 Fonticons, Inc. --><path fill="currentColor" d="M128 64L200 64C213.3 64 224 74.7 224 88C224 101.3 213.3 112 200 112L128 112C119.2 112 112 119.2 112 128L112 200C112 213.3 101.3 224 88 224C74.7 224 64 213.3 64 200L64 128C64 92.7 92.7 64 128 64zM440 64L512 64C547.3 64 576 92.7 576 128L576 200C576 213.3 565.3 224 552 224C538.7 224 528 213.3 528 200L528 128C528 119.2 520.8 112 512 112L440 112C426.7 112 416 101.3 416 88C416 74.7 426.7 64 440 64zM112 440L112 512C112 520.8 119.2 528 128 528L200 528C213.3 528 224 538.7 224 552C224 565.3 213.3 576 200 576L128 576C92.7 576 64 547.3 64 512L64 440C64 426.7 74.7 416 88 416C101.3 416 112 426.7 112 440zM576 440L576 512C576 547.3 547.3 576 512 576L440 576C426.7 576 416 565.3 416 552C416 538.7 426.7 528 440 528L512 528C520.8 528 528 520.8 528 512L528 440C528 426.7 538.7 416 552 416C565.3 416 576 426.7 576 440zM244 192L250.2 175.6C253.7 166.2 262.7 160 272.7 160L367.4 160C377.4 160 386.4 166.2 389.9 175.6L396.1 192L432.1 192C458.6 192 480.1 213.5 480.1 240L480.1 400C480.1 426.5 458.6 448 432.1 448L208.1 448C181.6 448 160.1 426.5 160.1 400L160.1 240C160.1 213.5 181.6 192 208.1 192L244.1 192zM384 320C384 284.7 355.3 256 320 256C284.7 256 256 284.7 256 320C256 355.3 284.7 384 320 384C355.3 384 384 355.3 384 320z"/></svg>