<svg xmlns="http://www.w3.org/2000/svg" viewBox="0 0 640 640"><!--! Font Awesome Pro 7.2.0 by @fontawesome - https://fontawesome.com License - https://fontawesome.com/license (Commercial License) Copyright 2026 Fonticons, Inc. --><path fill="currentColor" d="M343.2 107.9C343.2 107.9 321.1 81.2 308.2 70.9C303.2 66.9 297.8 64.2 291.2 64C284.6 63.8 278.1 66.1 272.9 70.8C251.8 90 227.9 115.2 209.1 143.7C190.4 172 176 204.7 176 238.7C176 319.2 239.4 384 320 384C399.8 384 464 319.3 464 238.7C464 211.4 454.1 183.3 440.4 158.6C426.7 133.7 408.6 111 390.9 94.4C385.9 89.7 379.4 87.3 373 87.3C366.2 87.3 359 89.8 354.2 95.4L343.2 107.9zM379.7 282.3C379.7 314.4 353.6 340.5 321.5 340.5C289.4 340.5 263.3 314.5 263.3 282.3C263.3 249.1 297 215.9 313.1 201.9C318 197.7 325 197.7 329.9 201.9C346 215.9 379.7 249.1 379.7 282.3zM106.8 353.9C90.2 348 71.8 356.6 65.9 373.3C60 390 68.6 408.3 85.3 414.2L224.9 464L85.2 513.9C68.6 519.8 59.9 538.1 65.9 554.8C71.9 571.5 90.2 580.1 106.8 574.2L320 498L533.2 574.1C549.8 580 568.2 571.4 574.1 554.7C580 538 571.4 519.7 554.7 513.8L415.2 464L554.8 414.1C571.4 408.2 580.1 389.8 574.2 373.2C568.3 356.6 549.9 347.9 533.3 353.8L320 430L106.8 353.9z"/></svg>