<svg xmlns="http://www.w3.org/2000/svg" viewBox="0 0 640 640"><!--! Font Awesome Pro 7.2.0 by @fontawesome - https://fontawesome.com License - https://fontawesome.com/license (Commercial License) Copyright 2026 Fonticons, Inc. --><path fill="currentColor" d="M526.5 346.7L194 154.7C229 127.9 272.8 112 320.3 112C359.9 112 396.8 123 428.3 142.2L460.3 36.8C463.8 25.4 475 18.3 486.8 20C498.6 21.7 507.3 31.8 507.3 43.7L507.3 85.6L535.6 72.7C544.7 68.6 555.4 70.5 562.5 77.6C569.6 84.7 571.5 95.4 567.4 104.5L554.5 132.8L596.4 132.8C608.3 132.8 618.4 141.5 620.1 153.3C621.8 165.1 614.7 176.3 603.3 179.8L498 212C517.2 243.5 528.2 280.5 528.2 320C528.2 329 527.6 338 526.5 346.7zM514.2 395.1C506.4 415.3 495.5 433.9 482.2 450.5L126.2 244.9C134 224.7 144.9 206.1 158.3 189.5L514.3 395.1zM446.5 485.3C411.5 512.1 367.7 528 320.2 528C280.6 528 243.7 517 212.2 497.8L180.1 603.2C176.6 614.6 165.4 621.7 153.6 620C141.8 618.3 133.1 608.2 133.1 596.3L133.1 554.4L104.8 567.3C95.7 571.4 85 569.5 77.9 562.4C70.8 555.3 68.9 544.6 73 535.5L85.9 507.2L44 507.2C32.1 507.2 22 498.5 20.3 486.7C18.6 474.9 25.7 463.7 37.1 460.2L142.4 428C123.2 396.5 112.2 359.5 112.2 320C112.2 310.9 112.8 302 113.9 293.2L446.5 485.2z"/></svg>