<svg xmlns="http://www.w3.org/2000/svg" viewBox="0 0 640 640"><!--! Font Awesome Pro 7.2.0 by @fontawesome - https://fontawesome.com License - https://fontawesome.com/license (Commercial License) Copyright 2026 Fonticons, Inc. --><path fill="currentColor" d="M49.1 417.8L26.5 429.1C2.8 440.9-6.8 469.8 5.1 493.5C17 517.2 45.8 526.8 69.5 515L92 503.7C134.7 544.9 200.3 556.9 256.4 528.8C262.5 525.6 271.2 520.7 281.8 514.3C265.5 491 256 462.6 256 432C256 352.5 320.5 288 400 288C452.4 288 498.3 316 523.5 357.9C556.4 336 586.4 316 609.5 300.5C636.2 282.6 645.2 247.8 630.9 219L600.2 157.5C585.8 128.8 552.5 115.1 522.2 125.7C414.8 163.3 177.1 247.2 127.6 271.2C71.5 299.2 41.7 358.9 49.1 417.8zM400 544C461.9 544 512 493.9 512 432C512 370.1 461.9 320 400 320C338.1 320 288 370.1 288 432C288 493.9 338.1 544 400 544zM400 400C417.7 400 432 414.3 432 432C432 449.7 417.7 464 400 464C382.3 464 368 449.7 368 432C368 414.3 382.3 400 400 400z"/></svg>