<svg xmlns="http://www.w3.org/2000/svg" viewBox="0 0 640 640"><!--! Font Awesome Pro 7.2.0 by @fontawesome - https://fontawesome.com License - https://fontawesome.com/license (Commercial License) Copyright 2026 Fonticons, Inc. --><path fill="currentColor" d="M375 501.7C413.4 472.7 465.6 472.7 504 501.7C520.9 514.4 536.9 523.2 551.8 526.3C565.5 529.1 579.2 527.2 594.1 516C604.7 508 619.7 510.2 627.7 520.7C635.7 531.3 633.6 546.3 623 554.3C596.6 574.1 568.8 578.7 542.3 573.4C517 568.3 494.2 554.5 475.1 540.1C453.8 524 425.2 524 403.9 540.1C379.7 558.4 351.6 576 320.5 576C289.4 576 261.4 558.3 237.1 540.1C215.8 524 187.2 524 165.9 540.1C142.2 558 111.8 575.6 77.9 575.4C57.5 575.3 37.2 568.7 18.1 554.3C7.5 546.3 5.4 531.3 13.4 520.7C21.4 510.1 36.4 508 47 516C58.3 524.5 68.6 527.4 78.2 527.5C95.8 527.6 115.5 518.1 137.1 501.8C175.5 472.8 227.7 472.8 266.1 501.8C290.1 519.9 306.8 528.1 320.6 528.1C334.4 528.1 351.1 519.9 375.1 501.8zM32.5 355.8C32.5 332 57.5 316.6 78.8 327.2L88 331.8C114.6 345 144 352 173.8 352L467.1 352C496.9 352 526.3 345 553 331.7L562.2 327.1C583.5 316.5 608.5 331.9 608.5 355.7L608.5 383.9C608.5 418.3 594.8 449.6 572.7 472.6C570.1 474.1 567.6 475.7 565.2 477.5C560.5 481 555.7 477.5 550.9 475C545.7 472.3 539.8 468.4 532.9 463.3C504.8 442.2 471.6 431.7 438.5 431.9C406 432.1 373.6 442.6 346.2 463.3C324.1 479.9 317.1 479.9 295 463.3C266.9 442.2 233.7 431.7 200.6 431.9C168.1 432.1 135.7 442.6 108.3 463.3C99.5 469.9 92.3 474.2 86.6 476.8C82.4 478.7 79.6 480.3 75.9 477.5C73.5 475.7 70.9 474 68.3 472.6C46.2 449.6 32.6 418.4 32.5 383.9L32.5 355.7zM220 192C233.2 192 246.1 196.4 256.6 204.5L384.4 304L160.4 304L160.4 251.6C160.4 218.7 187.1 192 220 192zM208.5 160C182 160 160.5 138.5 160.5 112C160.5 85.5 182 64 208.5 64C235 64 256.5 85.5 256.5 112C256.5 138.5 235 160 208.5 160z"/></svg>