<svg xmlns="http://www.w3.org/2000/svg" viewBox="0 0 640 640"><!--! Font Awesome Pro 7.2.0 by @fontawesome - https://fontawesome.com License - https://fontawesome.com/license (Commercial License) Copyright 2026 Fonticons, Inc. --><path fill="currentColor" d="M496 272C418.5 272 351.7 317.9 321.4 384L320 384L256 384C208.6 384 167.1 409.8 145 448.2C180.2 487.4 231.2 512 288 512C295.4 512 302.6 511.6 309.7 510.8C315.2 532.7 324.5 553.2 336.8 571.4C321 574.4 304.7 576 288 576C146.6 576 32 461.4 32 320C32 178.6 146.6 64 288 64C414.8 64 520.1 156.2 540.4 277.2C526.1 273.8 511.3 272 496 272zM288 336C327.8 336 360 303.8 360 264C360 224.2 327.8 192 288 192C248.2 192 216 224.2 216 264C216 303.8 248.2 336 288 336zM352 464C352 384.5 416.5 320 496 320C575.5 320 640 384.5 640 464C640 543.5 575.5 608 496 608C416.5 608 352 543.5 352 464zM496 384C487.2 384 480 391.2 480 400L480 464C480 472.8 487.2 480 496 480L544 480C552.8 480 560 472.8 560 464C560 455.2 552.8 448 544 448L512 448L512 400C512 391.2 504.8 384 496 384z"/></svg>