<svg xmlns="http://www.w3.org/2000/svg" viewBox="0 0 640 640"><!--! Font Awesome Pro 7.2.0 by @fontawesome - https://fontawesome.com License - https://fontawesome.com/license (Commercial License) Copyright 2026 Fonticons, Inc. --><path fill="currentColor" d="M320 576C461.4 576 576 461.4 576 320C576 178.6 461.4 64 320 64C178.6 64 64 178.6 64 320C64 461.4 178.6 576 320 576zM288 176L352 176C361.8 176 370.6 182 374.3 191.1L381.1 208L424.1 208C437.4 208 448.1 218.7 448.1 232C448.1 245.3 437.4 256 424.1 256L216.1 256C202.8 256 192.1 245.3 192.1 232C192.1 218.7 202.8 208 216.1 208L259.1 208L265.9 191.1C269.4 182 278.2 176 288 176zM236.8 419.5L224 304L416 304L403.2 419.5C401.4 435.7 387.7 448 371.4 448L268.7 448C252.4 448 238.7 435.7 236.9 419.5z"/></svg>