<svg xmlns="http://www.w3.org/2000/svg" viewBox="0 0 640 640"><!--! Font Awesome Pro 7.2.0 by @fontawesome - https://fontawesome.com License - https://fontawesome.com/license (Commercial License) Copyright 2026 Fonticons, Inc. --><path fill="currentColor" d="M64 320C64 178.6 178.6 64 320 64C461.4 64 576 178.6 576 320C576 461.4 461.4 576 320 576C178.6 576 64 461.4 64 320zM267.7 202.3C261.7 193.7 250.8 189.9 240.8 193.1C230.8 196.3 224 205.5 224 216L224 320L208 320C199.2 320 192 327.2 192 336C192 344.8 199.2 352 208 352L224 352L224 424C224 437.3 234.7 448 248 448C261.3 448 272 437.3 272 424L272 352L313 352L372.3 437.7C378.3 446.3 389.2 450.1 399.2 446.9C409.2 443.7 416 434.5 416 424L416 352L432 352C440.8 352 448 344.8 448 336C448 327.2 440.8 320 432 320L416 320L416 216C416 202.7 405.3 192 392 192C378.7 192 368 202.7 368 216L368 320L349.2 320L267.7 202.3zM290.8 320L272 320L272 292.8L290.8 320z"/></svg>