<svg xmlns="http://www.w3.org/2000/svg" viewBox="0 0 640 640"><!--! Font Awesome Pro 7.2.0 by @fontawesome - https://fontawesome.com License - https://fontawesome.com/license (Commercial License) Copyright 2026 Fonticons, Inc. --><path fill="currentColor" d="M320 576C461.4 576 576 461.4 576 320C576 178.6 461.4 64 320 64C178.6 64 64 178.6 64 320C64 461.4 178.6 576 320 576zM227 320C227 364.5 258.2 401.7 300 410.8L300 312C300 301 309 292 320 292C330.1 292 338.4 299.5 339.8 309.2C350.6 303.4 362.9 300 376 300C387 300 396 309 396 320C396 331 387 340 376 340C356.1 340 340 356.1 340 376L340 410.8C356.7 407.1 371.8 399 383.8 387.6C393.4 378.5 408.6 378.9 417.7 388.6C426.8 398.3 426.4 413.4 416.7 422.5C391.5 446.3 357.4 461 319.9 461C242 461 178.9 397.9 178.9 320C178.9 242.1 242 179 319.9 179C357.4 179 391.4 193.6 416.7 217.5C426.3 226.6 426.8 241.8 417.7 251.4C408.6 261 393.4 261.5 383.8 252.4C367.1 236.7 344.7 227 320 227C268.6 227 227 268.6 227 320z"/></svg>