<svg xmlns="http://www.w3.org/2000/svg" viewBox="0 0 640 640"><!--! Font Awesome Pro 7.2.0 by @fontawesome - https://fontawesome.com License - https://fontawesome.com/license (Commercial License) Copyright 2026 Fonticons, Inc. --><path fill="currentColor" d="M496 272C418.5 272 351.7 317.9 321.4 384L320 384L256 384C208.6 384 167.1 409.8 145 448.2C180.2 487.4 231.2 512 288 512C295.4 512 302.6 511.6 309.7 510.8C315.2 532.7 324.5 553.2 336.8 571.4C321 574.4 304.7 576 288 576C146.6 576 32 461.4 32 320C32 178.6 146.6 64 288 64C414.8 64 520.1 156.2 540.4 277.2C526.1 273.8 511.3 272 496 272zM288 336C327.8 336 360 303.8 360 264C360 224.2 327.8 192 288 192C248.2 192 216 224.2 216 264C216 303.8 248.2 336 288 336zM496 320C575.5 320 640 384.5 640 464C640 543.5 575.5 608 496 608C416.5 608 352 543.5 352 464C352 384.5 416.5 320 496 320zM394.5 464C394.5 519 439.1 563.5 494 563.5C526.1 563.5 554.6 548.3 572.8 524.8C574.8 522.2 575.1 518.7 573.6 515.8C572.1 512.9 569 511.2 565.7 511.4C563.8 511.5 561.9 511.6 560 511.6C516 511.6 480.3 475.9 480.3 431.9C480.3 411.3 488.1 392.5 501 378.3C503.2 375.9 503.8 372.4 502.5 369.4C501.2 366.4 498.2 364.5 495 364.4L494.1 364.4C439.1 364.4 394.6 409 394.6 463.9z"/></svg>