<svg xmlns="http://www.w3.org/2000/svg" viewBox="0 0 640 640"><!--! Font Awesome Pro 7.2.0 by @fontawesome - https://fontawesome.com License - https://fontawesome.com/license (Commercial License) Copyright 2026 Fonticons, Inc. --><path fill="currentColor" d="M320 576C178.6 576 64 461.4 64 320C64 178.6 178.6 64 320 64C461.4 64 576 178.6 576 320C576 461.4 461.4 576 320 576zM272 280C272 266.7 261.3 256 248 256C234.7 256 224 266.7 224 280L224 392C224 405.3 234.7 416 248 416L360 416C373.3 416 384 405.3 384 392C384 378.7 373.3 368 360 368L305.9 368L408.9 265C418.3 255.6 418.3 240.4 408.9 231.1C399.5 221.8 384.3 221.7 375 231.1L272 334.1L272 280z"/></svg>