<svg xmlns="http://www.w3.org/2000/svg" viewBox="0 0 640 640"><!--! Font Awesome Pro 7.2.0 by @fontawesome - https://fontawesome.com License - https://fontawesome.com/license (Commercial License) Copyright 2026 Fonticons, Inc. --><path fill="currentColor" d="M320 576C461.4 576 576 461.4 576 320C576 178.6 461.4 64 320 64C178.6 64 64 178.6 64 320C64 461.4 178.6 576 320 576zM248 192.7C257.8 190 268.1 195.1 272 204.5L292.3 253.2C295.7 261.5 293.4 271 286.4 276.7L264.3 294.7C280.5 330.5 308.8 359.7 343.9 377.1L363.2 353.5C368.9 346.6 378.4 344.2 386.7 347.6L435.4 367.9C444.8 371.8 449.8 382.1 447.2 391.9L446.4 394.7C437.6 427 406.3 454.6 368.2 446.5C280.7 428 211.9 359.1 193.3 271.6C185.2 233.5 212.8 202.2 245.1 193.4L247.9 192.6z"/></svg>