<svg xmlns="http://www.w3.org/2000/svg" viewBox="0 0 640 640"><!--! Font Awesome Pro 7.2.0 by @fontawesome - https://fontawesome.com License - https://fontawesome.com/license (Commercial License) Copyright 2026 Fonticons, Inc. --><path fill="currentColor" d="M320 576C461.4 576 576 461.4 576 320C576 178.6 461.4 64 320 64C178.6 64 64 178.6 64 320C64 461.4 178.6 576 320 576zM280 255.6C280 259.7 281.6 263.7 284.6 266.6L299.1 281.1L322.7 263.8C326.1 261.3 328.1 257.4 328.1 253.2C328.1 245.9 322.2 240 314.9 240L295.7 240C287.1 240 280.1 247 280.1 255.6zM351 302.5L333.4 315.4L362.1 344.1L388.3 306.3C395.8 295.4 410.8 292.7 421.7 300.2C432.6 307.7 435.3 322.7 427.8 333.6L396.7 378.6L425.1 407C434.5 416.4 434.5 431.6 425.1 440.9C415.7 450.2 400.5 450.3 391.2 440.9L368.8 418.5C353.7 437 331 447.9 306.8 447.9L274.6 447.9C237.9 447.9 208.1 418.1 208.1 381.4C208.1 360.2 218.2 340.3 235.3 327.8L260 309.7L250.8 300.5C238.9 288.6 232.2 272.4 232.2 255.5C232.2 220.4 260.7 191.9 295.8 191.9L315 191.9C348.8 191.9 376.2 219.3 376.2 253.1C376.2 272.6 366.9 290.9 351.2 302.4zM263.5 366.6C258.8 370.1 256 375.6 256 381.5C256 391.7 264.3 400 274.5 400L306.7 400C317.2 400 327 394.8 333 386.2L334.4 384.2L294.3 344.1L263.6 366.6z"/></svg>