<svg xmlns="http://www.w3.org/2000/svg" viewBox="0 0 640 640"><!--! Font Awesome Pro 7.2.0 by @fontawesome - https://fontawesome.com License - https://fontawesome.com/license (Commercial License) Copyright 2026 Fonticons, Inc. --><path fill="currentColor" d="M320 576C178.6 576 64 461.4 64 320C64 178.6 178.6 64 320 64C461.4 64 576 178.6 576 320C576 461.4 461.4 576 320 576zM438.6 184.9C425.9 181.3 412.6 188.6 408.9 201.4L344.9 425.4C341.3 438.1 348.6 451.4 361.4 455.1C374.2 458.8 387.4 451.4 391.1 438.6L455.1 214.6C458.7 201.9 451.4 188.6 438.6 184.9zM255.6 216C220.5 216 192 244.5 192 279.6C192 309.9 213.4 336 243.1 341.9L259.5 345.2C266.8 346.7 272 353 272 360.5C272 369.1 265 376.1 256.4 376.1L224 376C210.7 376 200 386.7 200 400C200 413.3 210.7 424 224 424L256.4 424C291.5 424 320 395.5 320 360.4C320 330.1 298.6 304 268.9 298.1L252.5 294.8C245.2 293.3 240 287 240 279.6C240 271 247 264 255.6 264L280 264C293.3 264 304 253.3 304 240C304 226.7 293.3 216 280 216L255.6 216z"/></svg>