<svg xmlns="http://www.w3.org/2000/svg" viewBox="0 0 640 640"><!--! Font Awesome Pro 7.2.0 by @fontawesome - https://fontawesome.com License - https://fontawesome.com/license (Commercial License) Copyright 2026 Fonticons, Inc. --><path fill="currentColor" d="M320 576C461.4 576 576 461.4 576 320C576 178.6 461.4 64 320 64C178.6 64 64 178.6 64 320C64 461.4 178.6 576 320 576zM256 216C256 202.7 266.7 192 280 192L392 192C405.3 192 416 202.7 416 216C416 229.3 405.3 240 392 240L304 240L304 280L360 280C373.3 280 384 290.7 384 304C384 317.3 373.3 328 360 328L304 328L304 352L336 352C344.8 352 352 359.2 352 368C352 376.8 344.8 384 336 384L304 384L304 424C304 437.3 293.3 448 280 448C266.7 448 256 437.3 256 424L256 384L240 384C231.2 384 224 376.8 224 368C224 359.2 231.2 352 240 352L256 352L256 216z"/></svg>