<svg xmlns="http://www.w3.org/2000/svg" viewBox="0 0 640 640"><!--! Font Awesome Pro 7.2.0 by @fontawesome - https://fontawesome.com License - https://fontawesome.com/license (Commercial License) Copyright 2026 Fonticons, Inc. --><path fill="currentColor" d="M320 576C178.6 576 64 461.4 64 320C64 178.6 178.6 64 320 64C461.4 64 576 178.6 576 320C576 461.4 461.4 576 320 576zM344 456L344 327.3L404 237.3C411.4 226.3 408.4 211.4 397.3 204C386.2 196.6 371.4 199.6 364 210.7L300 306.7C297.4 310.6 296 315.3 296 320L296 456C296 469.3 306.7 480 320 480C333.3 480 344 469.3 344 456z"/></svg>