<svg xmlns="http://www.w3.org/2000/svg" viewBox="0 0 640 640"><!--! Font Awesome Pro 7.2.0 by @fontawesome - https://fontawesome.com License - https://fontawesome.com/license (Commercial License) Copyright 2026 Fonticons, Inc. --><path fill="currentColor" d="M584 304C560.5 304 538.7 311.2 520.6 323.6C512.1 318.6 503.1 314.5 493.6 311.3C492.1 303.5 489.8 295.9 487 288.7C513.9 268.2 547.5 255.9 584 255.9C597.3 255.9 608 266.6 608 279.9C608 293.2 597.3 303.9 584 303.9zM584 208C538 208 495.5 222.9 461.1 248.2C449.6 236 435.8 226.1 420.3 219.2C464.7 182.3 521.7 160 584 160C597.3 160 608 170.7 608 184C608 197.3 597.3 208 584 208zM584 112C496.5 112 417.6 149 362.2 208.1C346.1 208.8 330.8 212.5 316.8 218.6C311.9 214.1 306.8 209.9 301.4 206C365.6 119.8 468.3 63.9 584 63.9C597.3 63.9 608 74.6 608 87.9C608 101.2 597.3 111.9 584 111.9zM128 544C75 544 32 501 32 448C32 405.5 59.6 369.4 97.9 356.8C96.6 350.1 96 343.1 96 336C96 274.1 146.1 224 208 224C251.1 224 288.5 248.3 307.2 284C321.9 266.9 343.7 256 368 256C412.2 256 448 291.8 448 336C448 341.5 447.4 346.8 446.4 352C446.9 352 447.5 352 448 352C501 352 544 395 544 448C544 501 501 544 448 544L128 544z"/></svg>