<svg xmlns="http://www.w3.org/2000/svg" viewBox="0 0 640 640"><!--! Font Awesome Pro 7.2.0 by @fontawesome - https://fontawesome.com License - https://fontawesome.com/license (Commercial License) Copyright 2026 Fonticons, Inc. --><path fill="currentColor" d="M363.4 139.6L557.7 64.9C559.2 64.3 560.9 64 562.5 64C570 64 576 70 576 77.5C576 79.2 575.7 80.8 575.1 82.3L500.4 276.5L529.7 274.2C542.5 273.2 551.2 287 544.8 298.2L442.6 474.7C406.3 537.4 339.4 576 267 576C154.9 576 64 485.1 64 373C64 300.6 102.6 233.7 165.3 197.4L341.7 95.2C352.8 88.7 366.7 97.4 365.7 110.3L363.4 139.6zM256 264C249.9 264 244.3 267.5 241.7 272.9L212.5 332.1L147.2 341.6C141.2 342.5 136.2 346.7 134.3 352.5C132.4 358.3 134 364.7 138.3 368.9L185.5 414.9L174.3 479.9C173.3 485.9 175.7 492 180.7 495.6C185.7 499.2 192.2 499.7 197.5 496.8L255.9 466.1L314.3 496.8C319.7 499.6 326.2 499.2 331.1 495.6C336 492 338.5 486 337.5 479.9L326.3 414.9L373.5 368.9C377.9 364.6 379.4 358.3 377.5 352.5C375.6 346.7 370.6 342.5 364.6 341.6L299.3 332.1L270.1 272.9C267.4 267.4 261.8 264 255.8 264z"/></svg>