<svg xmlns="http://www.w3.org/2000/svg" viewBox="0 0 640 640"><!--! Font Awesome Pro 7.2.0 by @fontawesome - https://fontawesome.com License - https://fontawesome.com/license (Commercial License) Copyright 2026 Fonticons, Inc. --><path fill="currentColor" d="M320 64C461.4 64 576 171.5 576 304C576 436.5 461.4 544 320 544C282.9 544 247.7 536.6 215.9 523.3L97.5 574.1C88.1 578.1 77.3 575.8 70.4 568.3C63.5 560.8 62.1 549.8 66.8 540.8L115.6 448.6C83.2 408.3 64 358.3 64 304C64 171.5 178.6 64 320 64zM424.2 212.7C413.5 204.9 398.5 207.3 390.7 218L285.1 363.2L249.1 327.2C239.7 317.8 224.5 317.8 215.2 327.2C205.9 336.6 205.8 351.8 215.2 361.1L271 417C276 422 282.9 424.5 289.8 423.9C296.8 423.3 303.2 419.8 307.3 414.1L429.5 246.2C437.3 235.5 434.9 220.5 424.2 212.7z"/></svg>