<svg xmlns="http://www.w3.org/2000/svg" viewBox="0 0 640 640"><!--! Font Awesome Pro 7.2.0 by @fontawesome - https://fontawesome.com License - https://fontawesome.com/license (Commercial License) Copyright 2026 Fonticons, Inc. --><path fill="currentColor" d="M320 544C461.4 544 576 436.5 576 304C576 171.5 461.4 64 320 64C178.6 64 64 171.5 64 304C64 358.3 83.2 408.3 115.6 448.5L66.8 540.8C62 549.8 63.5 560.8 70.4 568.3C77.3 575.8 88.2 578.1 97.5 574.1L215.9 523.4C247.7 536.6 282.9 544 320 544zM216 224L248 224C270.1 224 288 241.9 288 264L288 344C288 383.8 255.8 416 216 416C202.7 416 192 405.3 192 392C192 378.7 202.7 368 216 368C229.3 368 240 357.3 240 344L240 336L216 336C193.9 336 176 318.1 176 296L176 264C176 241.9 193.9 224 216 224zM448 296L448 344C448 383.8 415.8 416 376 416C362.7 416 352 405.3 352 392C352 378.7 362.7 368 376 368C389.3 368 400 357.3 400 344L400 336L376 336C353.9 336 336 318.1 336 296L336 264C336 241.9 353.9 224 376 224L408 224C430.1 224 448 241.9 448 264L448 296z"/></svg>