<svg xmlns="http://www.w3.org/2000/svg" viewBox="0 0 640 640"><!--! Font Awesome Pro 7.2.0 by @fontawesome - https://fontawesome.com License - https://fontawesome.com/license (Commercial License) Copyright 2026 Fonticons, Inc. --><path fill="currentColor" d="M576 304C576 318.2 574.7 332.2 572.1 345.7C561.5 339.5 549.1 336 536 336C529.6 336 523.4 336.8 517.4 338.4C504.7 317.8 482 304 456 304C424.3 304 397.4 324.5 387.8 353C384 352.4 380 352 376 352C336.2 352 304 384.2 304 424L304 536C304 538.6 304.1 541.1 304.4 543.6C273 541.8 243.2 534.8 215.9 523.4L97.5 574.1C88.1 578.1 77.3 575.8 70.4 568.3C63.5 560.8 62.1 549.8 66.8 540.8L115.6 448.6C83.2 408.3 64 358.3 64 304C64 171.5 178.6 64 320 64C461.4 64 576 171.5 576 304zM480 376L480 584C480 597.3 469.3 608 456 608C442.7 608 432 597.3 432 584L432 376C432 362.7 442.7 352 456 352C469.3 352 480 362.7 480 376zM560 408L560 552C560 565.3 549.3 576 536 576C522.7 576 512 565.3 512 552L512 408C512 394.7 522.7 384 536 384C549.3 384 560 394.7 560 408zM400 424L400 536C400 549.3 389.3 560 376 560C362.7 560 352 549.3 352 536L352 424C352 410.7 362.7 400 376 400C389.3 400 400 410.7 400 424zM640 456L640 504C640 517.3 629.3 528 616 528C602.7 528 592 517.3 592 504L592 456C592 442.7 602.7 432 616 432C629.3 432 640 442.7 640 456z"/></svg>