<svg xmlns="http://www.w3.org/2000/svg" viewBox="0 0 640 640"><!--! Font Awesome Pro 7.2.0 by @fontawesome - https://fontawesome.com License - https://fontawesome.com/license (Commercial License) Copyright 2026 Fonticons, Inc. --><path fill="currentColor" d="M320 544C461.4 544 576 436.5 576 304C576 171.5 461.4 64 320 64C178.6 64 64 171.5 64 304C64 358.3 83.2 408.3 115.6 448.5L66.8 540.8C62 549.8 63.5 560.8 70.4 568.3C77.3 575.8 88.2 578.1 97.5 574.1L215.9 523.4C247.7 536.6 282.9 544 320 544zM368 344L368 289.9L265 392.9C255.6 402.3 240.4 402.3 231.1 392.9C221.8 383.5 221.7 368.3 231.1 359L334.1 256L280 256C266.7 256 256 245.3 256 232C256 218.7 266.7 208 280 208L392 208C405.3 208 416 218.7 416 232L416 344C416 357.3 405.3 368 392 368C378.7 368 368 357.3 368 344z"/></svg>