<svg xmlns="http://www.w3.org/2000/svg" viewBox="0 0 640 640"><!--! Font Awesome Pro 7.2.0 by @fontawesome - https://fontawesome.com License - https://fontawesome.com/license (Commercial License) Copyright 2026 Fonticons, Inc. --><path fill="currentColor" d="M320 544C461.4 544 576 436.5 576 304C576 171.5 461.4 64 320 64C178.6 64 64 171.5 64 304C64 358.3 83.2 408.3 115.6 448.5L66.8 540.8C62 549.8 63.5 560.8 70.4 568.3C77.3 575.8 88.2 578.1 97.5 574.1L215.9 523.4C247.7 536.6 282.9 544 320 544zM216 240L424 240C437.3 240 448 250.7 448 264C448 277.3 437.3 288 424 288L216 288C202.7 288 192 277.3 192 264C192 250.7 202.7 240 216 240zM216 336L328 336C341.3 336 352 346.7 352 360C352 373.3 341.3 384 328 384L216 384C202.7 384 192 373.3 192 360C192 346.7 202.7 336 216 336z"/></svg>