<svg xmlns="http://www.w3.org/2000/svg" viewBox="0 0 640 640"><!--! Font Awesome Pro 7.2.0 by @fontawesome - https://fontawesome.com License - https://fontawesome.com/license (Commercial License) Copyright 2026 Fonticons, Inc. --><path fill="currentColor" d="M64 112L64 272C64 298.5 85.5 320 112 320L272 320C298.5 320 320 298.5 320 272L320 112C320 85.5 298.5 64 272 64L112 64C85.5 64 64 85.5 64 112zM96 384C43 384 0 427 0 480C0 533 43 576 96 576L544 576C597 576 640 533 640 480C640 427 597 384 544 384L96 384zM128 448C145.7 448 160 462.3 160 480C160 497.7 145.7 512 128 512C110.3 512 96 497.7 96 480C96 462.3 110.3 448 128 448zM288 480C288 462.3 302.3 448 320 448C337.7 448 352 462.3 352 480C352 497.7 337.7 512 320 512C302.3 512 288 497.7 288 480zM512 448C529.7 448 544 462.3 544 480C544 497.7 529.7 512 512 512C494.3 512 480 497.7 480 480C480 462.3 494.3 448 512 448zM432 128C405.5 128 384 149.5 384 176L384 272C384 298.5 405.5 320 432 320L528 320C554.5 320 576 298.5 576 272L576 176C576 149.5 554.5 128 528 128L432 128z"/></svg>