<svg xmlns="http://www.w3.org/2000/svg" viewBox="0 0 640 640"><!--! Font Awesome Pro 7.2.0 by @fontawesome - https://fontawesome.com License - https://fontawesome.com/license (Commercial License) Copyright 2026 Fonticons, Inc. --><path fill="currentColor" d="M208 336C208 288.7 173.8 249.4 128.8 241.5C136 177.6 190.2 128 256 128L384 128C449.8 128 504 177.6 511.2 241.5C466.2 249.5 432 288.7 432 336L432 368L208 368L208 336zM128 512C92.7 512 64 483.3 64 448L64 336C64 309.5 85.5 288 112 288C138.5 288 160 309.5 160 336L160 416L480 416L480 336C480 309.5 501.5 288 528 288C554.5 288 576 309.5 576 336L576 448C576 483.3 547.3 512 512 512C512 529.7 497.7 544 480 544C462.3 544 448 529.7 448 512L192 512C192 529.7 177.7 544 160 544C142.3 544 128 529.7 128 512z"/></svg>