<svg xmlns="http://www.w3.org/2000/svg" viewBox="0 0 640 640"><!--! Font Awesome Pro 7.2.0 by @fontawesome - https://fontawesome.com License - https://fontawesome.com/license (Commercial License) Copyright 2026 Fonticons, Inc. --><path fill="currentColor" d="M320 80C320 71.2 312.8 64 304 64C295.2 64 288 71.2 288 80L288 104C288 134.9 313.1 160 344 160L384 160L333.6 172.6C325.6 174.6 320 181.8 320 190C320 199.9 328 208 338 208L376 208L366.4 240L260.3 240C259.5 240 258.6 240 257.8 240C257.2 240 256.6 240 256.1 240L170.2 240C115.9 240 70.7 281.8 66.5 336L64.2 366.1C63.2 379.3 73.1 390.9 86.3 391.9C99.3 392.9 110.7 383.3 112 370.4C114.4 373.7 117.2 376.9 120.1 379.9C129.1 388.9 129.1 403.4 122.5 414.3C105.1 442.9 101 478.2 112.5 510.6L128 554.6C132.5 567.4 144.6 576 158.2 576L192.1 576C214.2 576 229.6 554.2 222.3 533.4L203 478.7C200.8 472.5 202.4 465.7 207 461L217.6 450.4C229.7 438.3 237.4 422.5 239.5 405.6C260.5 422.1 287 432 315.8 432L352.1 432L352.1 544C352.1 561.7 366.4 576 384.1 576L416.1 576C433.8 576 448.1 561.7 448.1 544L448.1 368L474.8 288L530.9 288C555.9 288 576.2 267.7 576.2 242.7C576.2 239.3 575.8 236 575.1 232.8C585.4 225.6 592.2 213.6 592.2 200C592.2 177.9 574.3 160 552.2 160C541.2 160 531.2 164.5 523.9 171.7L507.4 155.4C506.8 154.8 506.3 154.3 505.7 153.8C523.7 144.5 536 125.7 536 104L536 80C536 71.2 528.8 64 520 64C511.2 64 504 71.2 504 80L504 104C504 117.3 493.3 128 480 128L410.6 128C414.1 120.7 416 112.6 416 104L416 80C416 71.2 408.8 64 400 64C391.2 64 384 71.2 384 80L384 104C384 117.3 373.3 128 360 128L344 128C330.7 128 320 117.3 320 104L320 80zM448 208C448 199.2 455.2 192 464 192C472.8 192 480 199.2 480 208C480 216.8 472.8 224 464 224C455.2 224 448 216.8 448 208z"/></svg>