<svg xmlns="http://www.w3.org/2000/svg" viewBox="0 0 640 640"><!--! Font Awesome Pro 7.2.0 by @fontawesome - https://fontawesome.com License - https://fontawesome.com/license (Commercial License) Copyright 2026 Fonticons, Inc. --><path fill="currentColor" d="M128 160L128 416L512 416L512 160L128 160zM64 160C64 124.7 92.7 96 128 96L512 96C547.3 96 576 124.7 576 160L576 416C576 451.3 547.3 480 512 480L368 480L384 528L456 528C469.3 528 480 538.7 480 552C480 565.3 469.3 576 456 576L184 576C170.7 576 160 565.3 160 552C160 538.7 170.7 528 184 528L256 528L272 480L128 480C92.7 480 64 451.3 64 416L64 160zM288 216C288 207.2 295.2 200 304 200L336 200C344.8 200 352 207.2 352 216L352 256L392 256C400.8 256 408 263.2 408 272L408 304C408 312.8 400.8 320 392 320L352 320L352 360C352 368.8 344.8 376 336 376L304 376C295.2 376 288 368.8 288 360L288 320L248 320C239.2 320 232 312.8 232 304L232 272C232 263.2 239.2 256 248 256L288 256L288 216z"/></svg>