<svg xmlns="http://www.w3.org/2000/svg" viewBox="0 0 640 640"><!--! Font Awesome Pro 7.2.0 by @fontawesome - https://fontawesome.com License - https://fontawesome.com/license (Commercial License) Copyright 2026 Fonticons, Inc. --><path fill="currentColor" d="M496 160L496 336L544 336L544 160L496 160zM448 160L400 160L400 224L448 224L448 160zM352 160L288 160L288 336L352 336L352 160zM240 160L192 160L192 224L240 224L240 160zM144 160L96 160L96 336L144 336L144 160zM96 384L96 480L296 480L296 384L96 384zM344 480L544 480L544 384L344 384L344 480zM32 160C32 124.7 60.7 96 96 96L544 96C579.3 96 608 124.7 608 160L608 480C608 515.3 579.3 544 544 544L96 544C60.7 544 32 515.3 32 480L32 160zM240 336L240 272L192 272L192 336L240 336zM448 272L400 272L400 336L448 336L448 272z"/></svg>