<svg xmlns="http://www.w3.org/2000/svg" viewBox="0 0 640 640"><!--! Font Awesome Pro 7.2.0 by @fontawesome - https://fontawesome.com License - https://fontawesome.com/license (Commercial License) Copyright 2026 Fonticons, Inc. --><path fill="currentColor" d="M320 64C337.7 64 352 78.3 352 96C352 113.7 337.7 128 320 128C302.3 128 288 113.7 288 96C288 78.3 302.3 64 320 64zM207.1 238.2C263.8 181.5 352.5 176.2 415.1 222.5L303.3 334.4C293.9 343.8 293.9 359 303.3 368.3C312.7 377.6 327.9 377.7 337.2 368.3L449.1 256.4C495.3 319 490.1 407.7 433.4 464.4C370.9 526.9 269.6 526.9 207.1 464.4C144.6 401.9 144.6 300.6 207.1 238.1zM544 352C544 334.3 558.3 320 576 320C593.7 320 608 334.3 608 352C608 369.7 593.7 384 576 384C558.3 384 544 369.7 544 352zM64 320C81.7 320 96 334.3 96 352C96 369.7 81.7 384 64 384C46.3 384 32 369.7 32 352C32 334.3 46.3 320 64 320zM96 160C96 142.3 110.3 128 128 128C145.7 128 160 142.3 160 160C160 177.7 145.7 192 128 192C110.3 192 96 177.7 96 160zM512 128C529.7 128 544 142.3 544 160C544 177.7 529.7 192 512 192C494.3 192 480 177.7 480 160C480 142.3 494.3 128 512 128zM96 544C96 526.3 110.3 512 128 512C145.7 512 160 526.3 160 544C160 561.7 145.7 576 128 576C110.3 576 96 561.7 96 544zM512 512C529.7 512 544 526.3 544 544C544 561.7 529.7 576 512 576C494.3 576 480 561.7 480 544C480 526.3 494.3 512 512 512z"/></svg>