<svg xmlns="http://www.w3.org/2000/svg" viewBox="0 0 640 640"><!--! Font Awesome Pro 7.2.0 by @fontawesome - https://fontawesome.com License - https://fontawesome.com/license (Commercial License) Copyright 2026 Fonticons, Inc. --><path fill="currentColor" d="M352 88L352 258.7L377.4 233.3C389.9 220.8 410.2 220.8 422.7 233.3C435.2 245.8 435.2 266.1 422.7 278.6L342.7 358.6C330.2 371.1 309.9 371.1 297.4 358.6L217.4 278.6C204.9 266.1 204.9 245.8 217.4 233.3C229.9 220.8 250.2 220.8 262.7 233.3L288 258.7L288 88C288 70.3 302.3 56 320 56C337.7 56 352 70.3 352 88zM128 96L240 96L240 160L128 160L128 416L512 416L512 160L400 160L400 96L512 96C547.3 96 576 124.7 576 160L576 416C576 451.3 547.3 480 512 480L368 480L384 528L456 528C469.3 528 480 538.7 480 552C480 565.3 469.3 576 456 576L184 576C170.7 576 160 565.3 160 552C160 538.7 170.7 528 184 528L256 528L272 480L128 480C92.7 480 64 451.3 64 416L64 160C64 124.7 92.7 96 128 96z"/></svg>