<svg xmlns="http://www.w3.org/2000/svg" viewBox="0 0 640 640"><!--! Font Awesome Pro 7.2.0 by @fontawesome - https://fontawesome.com License - https://fontawesome.com/license (Commercial License) Copyright 2026 Fonticons, Inc. --><path fill="currentColor" d="M32 96C32 78.3 46.3 64 64 64L80 64C124.2 64 160 99.8 160 144L160 432C160 440.8 167.2 448 176 448L576 448C593.7 448 608 462.3 608 480C608 497.7 593.7 512 576 512L541.3 512C543.1 517 544 522.4 544 528C544 554.5 522.5 576 496 576C469.5 576 448 554.5 448 528C448 522.4 449 517 450.7 512L253.2 512C255 517 255.9 522.4 255.9 528C255.9 554.5 234.4 576 207.9 576C181.4 576 159.9 554.5 159.9 528C159.9 522 161 516.3 163 511C124.9 504.8 95.9 471.8 95.9 432L96 144C96 135.2 88.8 128 80 128L64 128C46.3 128 32 113.7 32 96z"/></svg>