<svg xmlns="http://www.w3.org/2000/svg" viewBox="0 0 640 640"><!--! Font Awesome Pro 7.2.0 by @fontawesome - https://fontawesome.com License - https://fontawesome.com/license (Commercial License) Copyright 2026 Fonticons, Inc. --><path fill="currentColor" d="M134.8 269.1C150.1 280.8 160 299.2 160 320C160 340.8 150.1 359.2 134.8 370.9C152.7 436 204 487.3 269.1 505.2C280.8 489.9 299.2 480 320 480C340.8 480 359.2 489.9 370.9 505.2C436 487.3 487.3 436 505.2 370.9C489.9 359.2 480 340.8 480 320C480 299.2 489.9 280.8 505.2 269.1C487.3 204 436 152.7 370.9 134.8C359.2 150.1 340.8 160 320 160C299.2 160 280.8 150.1 269.1 134.8C204 152.7 152.7 204 134.8 269.1zM569.2 378.8C547.1 473 473 547.1 378.8 569.2C369.1 592 346.4 608 320 608C293.6 608 270.9 592 261.2 569.2C167 547.1 92.9 473 70.8 378.8C48 369.1 32 346.4 32 320C32 293.6 48 270.9 70.8 261.2C92.9 167 167 92.9 261.2 70.8C270.9 48 293.6 32 320 32C346.4 32 369.1 48 378.8 70.8C473 92.9 547.1 167 569.2 261.2C592 270.9 608 293.6 608 320C608 346.4 592 369.1 569.2 378.8z"/></svg>