<svg xmlns="http://www.w3.org/2000/svg" viewBox="0 0 640 640"><!--! Font Awesome Pro 7.2.0 by @fontawesome - https://fontawesome.com License - https://fontawesome.com/license (Commercial License) Copyright 2026 Fonticons, Inc. --><path fill="currentColor" d="M24 144C10.7 144 0 154.7 0 168C0 181.3 10.7 192 24 192L120 192L120 304C120 312.3 124.3 320 131.3 324.4L167 346.7L146.2 379.9C134.3 399 128 421 128 443.5L128 488C128 501.3 138.7 512 152 512C165.3 512 176 501.3 176 488L176 443.5C176 430 179.8 416.8 186.9 405.3L207.7 372.1L259.3 404.3C263.1 406.7 267.5 407.9 272 407.9L368 407.9C372.5 407.9 376.9 406.6 380.7 404.3L432.3 372.1L453.1 405.3C460.3 416.7 464 430 464 443.5L464 488C464 501.3 474.7 512 488 512C501.3 512 512 501.3 512 488L512 443.5C512 421 505.7 399 493.8 379.9L473 346.7L508.7 324.4C515.7 320 520 312.3 520 304L520 192L616 192C629.3 192 640 181.3 640 168C640 154.7 629.3 144 616 144L376 144C362.7 144 352 154.7 352 168C352 181.3 362.7 192 376 192L472 192L472 256L168 256L168 192L264 192C277.3 192 288 181.3 288 168C288 154.7 277.3 144 264 144L24 144z"/></svg>