<svg xmlns="http://www.w3.org/2000/svg" viewBox="0 0 640 640"><!--! Font Awesome Pro 7.2.0 by @fontawesome - https://fontawesome.com License - https://fontawesome.com/license (Commercial License) Copyright 2026 Fonticons, Inc. --><path fill="currentColor" d="M128 320C128 328.8 135.2 336 144 336C152.8 336 160 328.8 160 320C160 311.2 152.8 304 144 304C135.2 304 128 311.2 128 320zM208 320C208 355.3 179.3 384 144 384C108.7 384 80 355.3 80 320C80 284.7 108.7 256 144 256C179.3 256 208 284.7 208 320zM320 304C311.2 304 304 311.2 304 320C304 328.8 311.2 336 320 336C328.8 336 336 328.8 336 320C336 311.2 328.8 304 320 304zM320 384C284.7 384 256 355.3 256 320C256 284.7 284.7 256 320 256C355.3 256 384 284.7 384 320C384 355.3 355.3 384 320 384zM496 304C487.2 304 480 311.2 480 320C480 328.8 487.2 336 496 336C504.8 336 512 328.8 512 320C512 311.2 504.8 304 496 304zM496 384C460.7 384 432 355.3 432 320C432 284.7 460.7 256 496 256C531.3 256 560 284.7 560 320C560 355.3 531.3 384 496 384z"/></svg>