<svg xmlns="http://www.w3.org/2000/svg" viewBox="0 0 640 640"><!--! Font Awesome Pro 7.2.0 by @fontawesome - https://fontawesome.com License - https://fontawesome.com/license (Commercial License) Copyright 2026 Fonticons, Inc. --><path fill="currentColor" d="M480 96C515.3 96 544 124.7 544 160L544 480C544 515.3 515.3 544 480 544L160 544C124.7 544 96 515.3 96 480L96 160C96 124.7 124.7 96 160 96L480 96zM320 384C302.3 384 288 398.3 288 416C288 433.7 302.3 448 320 448C337.7 448 352 433.7 352 416C352 398.3 337.7 384 320 384zM320 192C301.8 192 287.3 207.5 288.6 225.7L296 329.7C296.9 342.3 307.4 352 319.9 352C332.5 352 342.9 342.3 343.8 329.7L351.2 225.7C352.5 207.5 338.1 192 319.8 192z"/></svg>