<svg xmlns="http://www.w3.org/2000/svg" viewBox="0 0 640 640"><!--! Font Awesome Pro 7.2.0 by @fontawesome - https://fontawesome.com License - https://fontawesome.com/license (Commercial License) Copyright 2026 Fonticons, Inc. --><path fill="currentColor" d="M493.6 508.1C544.3 461.4 576 394.4 576 320C576 178.6 461.4 64 320 64C178.6 64 64 178.6 64 320C64 393.2 94.7 459.2 144 505.9L144 440C144 400.2 176.2 368 216 368C219.1 368 222.2 368.2 225.2 368.6C232.6 322.9 272.2 288 320 288C368.2 288 408 323.5 414.9 369.7C430.6 371.2 445.9 378 457.9 390C479.2 411.3 484 442.7 472.5 468.6C473 469 473.4 469.5 473.9 470C484.7 480.8 491.2 494.1 493.6 508.1zM274.7 177C283 187.4 281.3 202.5 271 210.7L191 274.7C180.6 283 165.5 281.3 157.3 271C149.1 260.7 150.7 245.5 161 237.3L241 173.3C251.4 165 266.5 166.7 274.7 177zM369 210.7C358.6 202.4 357 187.3 365.2 177C373.4 166.7 388.6 165 398.9 173.3L478.9 237.3C489.3 245.6 490.9 260.7 482.7 271C474.5 281.3 459.3 283 449 274.7L369 210.7zM192 440L192 538.2C192 594.4 237.6 640 293.8 640C320.8 640 346.7 629.3 365.8 610.2L440 536C448.8 527.2 448.8 512.8 440 504C431.2 495.2 416.8 495.2 408 504L376 536C371.6 540.4 364.4 540.4 360 536C355.6 531.6 355.6 524.4 360 520L424 456C432.8 447.2 432.8 432.8 424 424C415.2 415.2 400.8 415.2 392 424L328 488C323.6 492.4 316.4 492.4 312 488C307.6 483.6 307.6 476.4 312 472L360 424C368.8 415.2 368.8 400.8 360 392C351.2 383.2 336.8 383.2 328 392L246.8 473.2C244.3 475.7 240 473.9 240 470.4L240 440.1C240 426.8 229.3 416.1 216 416.1C202.7 416.1 192 426.8 192 440.1z"/></svg>