<svg xmlns="http://www.w3.org/2000/svg" viewBox="0 0 640 640"><!--! Font Awesome Pro 7.2.0 by @fontawesome - https://fontawesome.com License - https://fontawesome.com/license (Commercial License) Copyright 2026 Fonticons, Inc. --><path fill="currentColor" d="M320 576C461.4 576 576 461.4 576 320C576 178.6 461.4 64 320 64C178.6 64 64 178.6 64 320C64 461.4 178.6 576 320 576zM388 328C388 339 397 348 408 348L424 348C435 348 444 339 444 328C444 317 453 308 464 308C475 308 484 317 484 328C484 361.1 457.1 388 424 388L408 388C374.9 388 348 361.1 348 328C348 317 357 308 368 308C379 308 388 317 388 328zM216 348L232 348C243 348 252 339 252 328C252 317 261 308 272 308C283 308 292 317 292 328C292 361.1 265.1 388 232 388L216 388C182.9 388 156 361.1 156 328C156 317 165 308 176 308C187 308 196 317 196 328C196 339 205 348 216 348zM261.5 434C274.6 452.2 295.9 464 320 464C344.1 464 365.4 452.2 378.5 434C386.2 423.2 401.2 420.8 412 428.5C422.8 436.2 425.2 451.2 417.5 462C395.8 492.2 360.2 512 320 512C279.8 512 244.3 492.2 222.5 462C214.8 451.2 217.2 436.2 228 428.5C238.8 420.8 253.8 423.2 261.5 434zM275 169.7C278.5 180.2 272.8 191.5 262.4 195L256.1 197.1C233.3 204.7 213.7 219.7 200.4 239.7L192.8 251.2C186.7 260.4 174.3 262.9 165.1 256.7C155.9 250.5 153.4 238.2 159.6 229L167.2 217.5C185.5 190.1 212.3 169.6 243.5 159.2L249.8 157.1C260.3 153.6 271.6 159.3 275.1 169.7zM377.7 195C367.2 191.5 361.6 180.2 365.1 169.7C368.6 159.2 379.8 153.5 390.3 157L396.6 159.1C427.8 169.5 454.7 190 472.9 217.4L480.5 228.9C486.6 238.1 484.1 250.5 475 256.6C465.9 262.7 453.4 260.2 447.3 251.1L439.7 239.6C426.4 219.6 406.8 204.6 384 197L377.7 194.9z"/></svg>