<svg xmlns="http://www.w3.org/2000/svg" viewBox="0 0 640 640"><!--! Font Awesome Pro 7.2.0 by @fontawesome - https://fontawesome.com License - https://fontawesome.com/license (Commercial License) Copyright 2026 Fonticons, Inc. --><path fill="currentColor" d="M573.4 356.7C570.3 378.4 586 400 607.9 400C625.6 400 640 414.3 640 432C640 449.7 625.7 464 608 464L568 464C554.7 464 544 474.7 544 488C544 501.3 554.7 512 568 512L576 512C593.7 512 608 526.3 608 544C608 561.7 593.7 576 576 576L32 576C14.3 576 0 561.7 0 544C0 526.3 14.3 512 32 512L44.9 512C81.7 512 103.3 461.3 87.8 427.9C72.5 395.1 64 358.5 64 320C64 178.6 178.6 64 320 64C461.4 64 576 178.6 576 320C576 332.5 575.1 344.7 573.4 356.7zM215.5 360.2C210.7 347.8 196.8 341.7 184.5 346.4C172.2 351.1 166 365.1 170.7 377.4C188.4 423.4 227.2 460.7 278.6 474.5C330 488.3 382.2 475.4 420.6 444.4C430.9 436.1 432.5 421 424.2 410.6C415.9 400.2 400.8 398.7 390.4 407C363.4 428.8 326.9 437.7 291 428.1C255.1 418.5 227.9 392.4 215.4 360.1zM288 256C288 238.3 273.7 224 256 224C238.3 224 224 238.3 224 256C224 273.7 238.3 288 256 288C273.7 288 288 273.7 288 256zM416 320C433.7 320 448 305.7 448 288C448 270.3 433.7 256 416 256C398.3 256 384 270.3 384 288C384 305.7 398.3 320 416 320z"/></svg>