<svg xmlns="http://www.w3.org/2000/svg" viewBox="0 0 640 640"><!--! Font Awesome Pro 7.2.0 by @fontawesome - https://fontawesome.com License - https://fontawesome.com/license (Commercial License) Copyright 2026 Fonticons, Inc. --><path fill="currentColor" d="M384 304C384 312.8 391.2 320 400 320L568 320C590.1 320 608 337.9 608 360C608 382.1 590.1 400 568 400L464 400C455.2 400 448 407.2 448 416C448 424.8 455.2 432 464 432L550.3 432C508.8 517.3 421.3 576 320 576C178.6 576 64 461.4 64 320C64 178.6 178.6 64 320 64C450.5 64 558.3 161.7 574 288L400 288C391.2 288 384 295.2 384 304zM272 472C272 467.6 275.6 464 280 464L328 464C341.3 464 352 453.3 352 440C352 426.7 341.3 416 328 416L280 416C249.1 416 224 441.1 224 472C224 485.3 234.7 496 248 496C261.3 496 272 485.3 272 472zM272 240C272 222.3 257.7 208 240 208C222.3 208 208 222.3 208 240C208 257.7 222.3 272 240 272C257.7 272 272 257.7 272 240zM400 272C417.7 272 432 257.7 432 240C432 222.3 417.7 208 400 208C382.3 208 368 222.3 368 240C368 257.7 382.3 272 400 272z"/></svg>