<svg xmlns="http://www.w3.org/2000/svg" viewBox="0 0 640 640"><!--! Font Awesome Pro 7.2.0 by @fontawesome - https://fontawesome.com License - https://fontawesome.com/license (Commercial License) Copyright 2026 Fonticons, Inc. --><path fill="currentColor" d="M544 0C557.3 0 568 10.7 568 24L568 72L616 72C629.3 72 640 82.7 640 96C640 109.3 629.3 120 616 120L568 120L568 168C568 181.3 557.3 192 544 192C530.7 192 520 181.3 520 168L520 120L472 120C458.7 120 448 109.3 448 96C448 82.7 458.7 72 472 72L520 72L520 24C520 10.7 530.7 0 544 0zM0 336C0 203.5 107.5 96 240 96C372.5 96 480 203.5 480 336C480 468.5 372.5 576 240 576C107.5 576 0 468.5 0 336zM115.9 396.6C105.2 404.4 102.8 419.4 110.6 430.1C139.7 470 186.8 496 240 496C293.2 496 340.3 470 369.4 430.1C377.2 419.4 374.8 404.4 364.1 396.6C353.4 388.8 338.4 391.2 330.6 401.9C310.2 429.9 277.2 448 240 448C202.8 448 169.8 429.9 149.4 401.9C141.6 391.2 126.6 388.8 115.9 396.6zM160 320C177.7 320 192 305.7 192 288C192 270.3 177.7 256 160 256C142.3 256 128 270.3 128 288C128 305.7 142.3 320 160 320zM352 288C352 270.3 337.7 256 320 256C302.3 256 288 270.3 288 288C288 305.7 302.3 320 320 320C337.7 320 352 305.7 352 288z"/></svg>