<svg xmlns="http://www.w3.org/2000/svg" viewBox="0 0 640 640"><!--! Font Awesome Pro 7.2.0 by @fontawesome - https://fontawesome.com License - https://fontawesome.com/license (Commercial License) Copyright 2026 Fonticons, Inc. --><path fill="currentColor" d="M320 576C461.4 576 576 461.4 576 320C576 178.6 461.4 64 320 64C178.6 64 64 178.6 64 320C64 336.4 65.5 352.4 68.5 367.9L228.9 335.8C273.7 326.8 313.2 366.3 304.2 411.1L299.2 436L313 436L347.5 408.4C354.3 403 363.8 402.5 371.1 407.4L411 434L425.7 429.1C436.2 425.6 447.5 431.3 451 441.7C454.5 452.1 448.8 463.5 438.4 467L414.4 475C408.5 477 402.1 476.1 397 472.7L361.2 448.8L332.6 471.7C329.1 474.5 324.6 476.1 320.1 476.1L291.3 476.1L272.2 571.6C287.7 574.5 303.7 576.1 320.1 576.1zM189.8 228.3C183.6 223.1 182.2 214 186.7 207.2C191.2 200.4 200 198 207.3 201.7L286.9 241.7C292.3 244.4 295.7 249.9 295.7 256C295.7 262.1 292.3 267.6 286.9 270.3L207.3 310.3C200 313.9 191.2 311.6 186.7 304.8C182.2 298 183.6 288.9 189.8 283.7L223 256L189.8 228.3zM453.4 207.2C457.9 214 456.5 223.1 450.3 228.3L417 256L450.2 283.7C456.4 288.9 457.8 298 453.3 304.8C448.8 311.6 440 314 432.7 310.3L353.1 270.3C347.7 267.6 344.3 262.1 344.3 256C344.3 249.9 347.7 244.4 353.1 241.7L432.7 201.7C440 198.1 448.8 200.4 453.3 207.2zM80 480L69.5 542.9C66.8 559.1 80.9 573.2 97.1 570.5L160 560L185 597.5C189.4 604.1 196.8 608 204.6 608C215.9 608 225.6 600.1 227.8 589L264.9 403.3C268.3 386.5 253.5 371.7 236.7 375.1L51 412.2C40 414.4 32 424.1 32 435.4C32 443.3 35.9 450.7 42.5 455.1L80 480z"/></svg>