<svg xmlns="http://www.w3.org/2000/svg" viewBox="0 0 640 640"><!--! Font Awesome Pro 7.2.0 by @fontawesome - https://fontawesome.com License - https://fontawesome.com/license (Commercial License) Copyright 2026 Fonticons, Inc. --><path fill="currentColor" d="M532 24C532 13 541 4 552 4L616 4C623.7 4 630.7 8.4 634 15.3C637.3 22.2 636.4 30.5 631.6 36.5L593.6 84L616 84C627 84 636 93 636 104C636 115 627 124 616 124L552 124C544.3 124 537.3 119.6 534 112.7C530.7 105.8 531.6 97.5 536.4 91.5L574.4 44L552 44C541 44 532 35 532 24zM388 120C388 109 397 100 408 100L472 100C479.7 100 486.7 104.4 490 111.3C493.3 118.2 492.4 126.5 487.6 132.5L449.6 180L472 180C483 180 492 189 492 200C492 211 483 220 472 220L408 220C400.3 220 393.3 215.6 390 208.7C386.7 201.8 387.6 193.5 392.4 187.5L430.4 140L408 140C397 140 388 131 388 120zM364.4 67.8C349.5 80.3 340 99 340 120C340 135 344.8 148.8 353 160C338.3 180.2 335.8 206.8 346.7 229.5C358 253.1 381.8 268 408 268L472 268C509.6 268 540 237.6 540 200C540 195.5 539.6 191.2 538.7 186.9C562.3 225.7 576 271.2 576 320C576 461.4 461.4 576 320 576C178.6 576 64 461.4 64 320C64 178.6 178.6 64 320 64C335.1 64 350 65.3 364.4 67.8zM196 344C196 333 187 324 176 324C165 324 156 333 156 344C156 377.1 182.9 404 216 404L232 404C265.1 404 292 377.1 292 344C292 333 283 324 272 324C261 324 252 333 252 344C252 355 243 364 232 364L216 364C205 364 196 355 196 344zM408 364C397 364 388 355 388 344C388 333 379 324 368 324C357 324 348 333 348 344C348 377.1 374.9 404 408 404L424 404C457.1 404 484 377.1 484 344C484 333 475 324 464 324C453 324 444 333 444 344C444 355 435 364 424 364L408 364zM360 480C360 457.9 342.1 440 320 440C297.9 440 280 457.9 280 480C280 502.1 297.9 520 320 520C342.1 520 360 502.1 360 480z"/></svg>