<svg xmlns="http://www.w3.org/2000/svg" viewBox="0 0 640 640"><!--! Font Awesome Pro 7.2.0 by @fontawesome - https://fontawesome.com License - https://fontawesome.com/license (Commercial License) Copyright 2026 Fonticons, Inc. --><path fill="currentColor" d="M384 554.3C387.8 558.1 391.8 561.5 396 564.5C372 572 346.5 576 320 576C178.6 576 64 461.4 64 320C64 178.6 178.6 64 320 64C461.4 64 576 178.6 576 320C576 365.8 564 408.9 542.9 446.1C538.1 435.2 531.3 424.9 522.4 416L489.7 383.3C490.7 381 491.6 378.7 492.5 376.4C497.1 364 490.8 350.2 478.4 345.5C466 340.8 452.2 347.2 447.5 359.6C428.1 411.3 378.3 448 320 448C261.7 448 211.9 411.3 192.6 359.6C188 347.2 174.1 340.9 161.7 345.5C149.3 350.1 143 364 147.6 376.4C173.7 446.2 241 496 320 496C321.9 496 323.7 496 325.6 495.9L384 554.3zM382.6 485.1C415.1 473.3 443.4 452.7 464.4 426L488.3 449.9C507.8 469.4 507.8 500.9 488.3 520.3C468.8 539.7 437.3 539.8 417.9 520.3L382.6 485zM240 244C255.5 244 268 256.5 268 272L268 280C268 291 277 300 288 300C299 300 308 291 308 280L308 272C308 234.4 277.6 204 240 204C202.4 204 172 234.4 172 272L172 280C172 291 181 300 192 300C203 300 212 291 212 280L212 272C212 256.5 224.5 244 240 244zM372 272C372 256.5 384.5 244 400 244C415.5 244 428 256.5 428 272L428 280C428 291 437 300 448 300C459 300 468 291 468 280L468 272C468 234.4 437.6 204 400 204C362.4 204 332 234.4 332 272L332 280C332 291 341 300 352 300C363 300 372 291 372 280L372 272z"/></svg>