<svg xmlns="http://www.w3.org/2000/svg" viewBox="0 0 640 640"><!--! Font Awesome Pro 7.2.0 by @fontawesome - https://fontawesome.com License - https://fontawesome.com/license (Commercial License) Copyright 2026 Fonticons, Inc. --><path fill="currentColor" d="M192.1 64C227.4 64 256.1 92.7 256.1 128C256.1 163.3 227.4 192 192.1 192C156.8 192 128.1 163.3 128.1 128C128.1 92.7 156.8 64 192.1 64zM160.1 224L224.1 224C224.5 224 225 224 225.4 224C224.5 229.2 224.1 234.5 224.1 240C224.1 261.6 231.2 281.6 243.3 297.6C212.2 321 192.1 358.1 192.1 400L192.1 416C192.1 446.5 204.3 474.2 224.1 494.4L224.1 544C224.1 553.6 225.8 562.8 228.9 571.3C222.6 574.3 215.6 576 208.1 576L176.1 576C149.6 576 128.1 554.5 128.1 528L128.1 407.4C109 396.3 96.1 375.7 96.1 352L96.1 288C96.1 252.7 124.8 224 160.1 224zM432.1 576C424.7 576 417.6 574.3 411.3 571.3C414.4 562.8 416.1 553.6 416.1 544L416.1 494.4C435.9 474.2 448.1 446.6 448.1 416L448.1 400C448.1 358.1 428 321 396.9 297.6C409 281.6 416.1 261.6 416.1 240C416.1 236.8 415.9 233.6 415.6 230.5C425.7 226.3 436.7 224 448.1 224C486 224 519.3 249.1 529.7 285.5L564.5 407.2C570.3 427.6 555 448 533.7 448L512.1 448L512.1 528C512.1 554.5 490.6 576 464.1 576L432.1 576zM448.1 64C483.4 64 512.1 92.7 512.1 128C512.1 163.3 483.4 192 448.1 192C412.8 192 384.1 163.3 384.1 128C384.1 92.7 412.8 64 448.1 64zM320.1 192C346.6 192 368.1 213.5 368.1 240C368.1 266.5 346.6 288 320.1 288C293.6 288 272.1 266.5 272.1 240C272.1 213.5 293.6 192 320.1 192zM320.1 320C364.3 320 400.1 355.8 400.1 400L400.1 416C400.1 439.7 387.2 460.4 368.1 471.4L368.1 544C368.1 561.7 353.8 576 336.1 576L304.1 576C286.4 576 272.1 561.7 272.1 544L272.1 471.4C253 460.3 240.1 439.7 240.1 416L240.1 400C240.1 355.8 275.9 320 320.1 320z"/></svg>