<svg xmlns="http://www.w3.org/2000/svg" viewBox="0 0 640 640"><!--! Font Awesome Pro 7.2.0 by @fontawesome - https://fontawesome.com License - https://fontawesome.com/license (Commercial License) Copyright 2026 Fonticons, Inc. --><path fill="currentColor" d="M128 128C128 92.7 156.7 64 192 64L341.5 64C358.5 64 374.8 70.7 386.8 82.7L493.3 189.3C505.3 201.3 512 217.6 512 234.6L512 512C512 547.3 483.3 576 448 576L192 576C156.7 576 128 547.3 128 512L128 128zM336 122.5L336 216C336 229.3 346.7 240 360 240L453.5 240L336 122.5zM320 304C306.7 304 296 314.7 296 328L296 376L248 376C234.7 376 224 386.7 224 400C224 413.3 234.7 424 248 424L296 424L296 472C296 485.3 306.7 496 320 496C333.3 496 344 485.3 344 472L344 424L392 424C405.3 424 416 413.3 416 400C416 386.7 405.3 376 392 376L344 376L344 328C344 314.7 333.3 304 320 304z"/></svg>