<svg xmlns="http://www.w3.org/2000/svg" viewBox="0 0 640 640"><!--! Font Awesome Pro 7.2.0 by @fontawesome - https://fontawesome.com License - https://fontawesome.com/license (Commercial License) Copyright 2026 Fonticons, Inc. --><path fill="currentColor" d="M73 39.1C63.6 29.7 48.4 29.7 39.1 39.1C29.8 48.5 29.7 63.7 39 73.1L567 601.1C576.4 610.5 591.6 610.5 600.9 601.1C610.2 591.7 610.3 576.5 600.9 567.2L511.9 478.2L511.9 234.6C511.9 217.6 505.2 201.3 493.2 189.3L386.7 82.7C374.7 70.7 358.5 64 341.5 64L192 64C166.5 64 144.6 78.9 134.2 100.4L73 39.1zM128 229.8L128 512C128 547.3 156.7 576 192 576L448 576C455.8 576 463.3 574.6 470.2 572L128 229.8zM453.5 240L360 240C346.7 240 336 229.3 336 216L336 122.5L453.5 240z"/></svg>