<svg xmlns="http://www.w3.org/2000/svg" viewBox="0 0 640 640"><!--! Font Awesome Pro 7.2.0 by @fontawesome - https://fontawesome.com License - https://fontawesome.com/license (Commercial License) Copyright 2026 Fonticons, Inc. --><path fill="currentColor" d="M128 128C128 92.7 156.7 64 192 64L341.5 64C358.5 64 374.8 70.7 386.8 82.7L493.3 189.3C505.3 201.3 512 217.6 512 234.6L512 512C512 547.3 483.3 576 448 576L192 576C156.7 576 128 547.3 128 512L128 128zM336 122.5L336 216C336 229.3 346.7 240 360 240L453.5 240L336 122.5zM387.9 332.1C378.5 322.7 363.3 322.7 354 332.1L320.1 366L286.2 332.1C276.8 322.7 261.6 322.7 252.3 332.1C243 341.5 242.9 356.7 252.3 366L286.2 399.9L252.3 433.8C242.9 443.2 242.9 458.4 252.3 467.7C261.7 477 276.9 477.1 286.2 467.7L320.1 433.8L354 467.7C363.4 477.1 378.6 477.1 387.9 467.7C397.2 458.3 397.3 443.1 387.9 433.8L354 399.9L387.9 366C397.3 356.6 397.3 341.4 387.9 332.1z"/></svg>