<svg xmlns="http://www.w3.org/2000/svg" viewBox="0 0 640 640"><!--! Font Awesome Pro 7.2.0 by @fontawesome - https://fontawesome.com License - https://fontawesome.com/license (Commercial License) Copyright 2026 Fonticons, Inc. --><path fill="currentColor" d="M128 64C92.7 64 64 92.7 64 128L64 512C64 547.3 92.7 576 128 576L208 576L208 464C208 428.7 236.7 400 272 400L448 400L448 234.5C448 217.5 441.3 201.2 429.3 189.2L322.7 82.7C310.7 70.7 294.5 64 277.5 64L128 64zM389.5 240L296 240C282.7 240 272 229.3 272 216L272 122.5L389.5 240zM272 444C261 444 252 453 252 464L252 592C252 603 261 612 272 612C283 612 292 603 292 592L292 564L304 564C337.1 564 364 537.1 364 504C364 470.9 337.1 444 304 444L272 444zM304 524L292 524L292 484L304 484C315 484 324 493 324 504C324 515 315 524 304 524zM400 444C389 444 380 453 380 464L380 592C380 603 389 612 400 612C411 612 420 603 420 592L420 564L432 564C465.1 564 492 537.1 492 504C492 470.9 465.1 444 432 444L400 444zM432 524L420 524L420 484L432 484C443 484 452 493 452 504C452 515 443 524 432 524zM508 464C508 475 517 484 528 484L540 484L540 592C540 603 549 612 560 612C571 612 580 603 580 592L580 484L592 484C603 484 612 475 612 464C612 453 603 444 592 444L528 444C517 444 508 453 508 464z"/></svg>