<svg xmlns="http://www.w3.org/2000/svg" viewBox="0 0 640 640"><!--! Font Awesome Pro 7.2.0 by @fontawesome - https://fontawesome.com License - https://fontawesome.com/license (Commercial License) Copyright 2026 Fonticons, Inc. --><path fill="currentColor" d="M128 64C92.7 64 64 92.7 64 128L64 512C64 547.3 92.7 576 128 576L208 576L208 464C208 428.7 236.7 400 272 400L448 400L448 234.5C448 217.5 441.3 201.2 429.3 189.2L322.7 82.7C310.7 70.7 294.5 64 277.5 64L128 64zM389.5 240L296 240C282.7 240 272 229.3 272 216L272 122.5L389.5 240zM272 444C261 444 252 453 252 464L252 592C252 603 261 612 272 612L304 612C332.7 612 356 588.7 356 560L356 496C356 467.3 332.7 444 304 444L272 444zM292 572L292 484L304 484C310.6 484 316 489.4 316 496L316 560C316 566.6 310.6 572 304 572L292 572zM424 444C399.7 444 380 463.7 380 488L380 568C380 592.3 399.7 612 424 612L440 612C464.3 612 484 592.3 484 568L484 488C484 463.7 464.3 444 440 444L424 444zM420 488C420 485.8 421.8 484 424 484L440 484C442.2 484 444 485.8 444 488L444 568C444 570.2 442.2 572 440 572L424 572C421.8 572 420 570.2 420 568L420 488zM508 488L508 568C508 592.3 527.7 612 552 612L568 612C592.3 612 612 592.3 612 568L612 560C612 549 603 540 592 540C581 540 572 549 572 560L572 568C572 570.2 570.2 572 568 572L552 572C549.8 572 548 570.2 548 568L548 488C548 485.8 549.8 484 552 484L568 484C570.2 484 572 485.8 572 488L572 496C572 507 581 516 592 516C603 516 612 507 612 496L612 488C612 463.7 592.3 444 568 444L552 444C527.7 444 508 463.7 508 488z"/></svg>