<svg xmlns="http://www.w3.org/2000/svg" viewBox="0 0 640 640"><!--! Font Awesome Pro 7.2.0 by @fontawesome - https://fontawesome.com License - https://fontawesome.com/license (Commercial License) Copyright 2026 Fonticons, Inc. --><path fill="currentColor" d="M64 160C64 124.7 92.7 96 128 96L448 96C483.3 96 512 124.7 512 160L512 262.7L411.1 281C376.9 287.2 352 317 352 351.8L352 467.7C336.7 471.5 322.3 478.2 309.9 487.4C292.8 500.2 278 519.6 273.4 543.9L128 544C92.7 544 64 515.3 64 480L64 160zM112 432L112 464C112 472.8 119.2 480 128 480L160 480C168.8 480 176 472.8 176 464L176 432C176 423.2 168.8 416 160 416L128 416C119.2 416 112 423.2 112 432zM112 304L112 336C112 344.8 119.2 352 128 352L160 352C168.8 352 176 344.8 176 336L176 304C176 295.2 168.8 288 160 288L128 288C119.2 288 112 295.2 112 304zM112 176L112 208C112 216.8 119.2 224 128 224L160 224C168.8 224 176 216.8 176 208L176 176C176 167.2 168.8 160 160 160L128 160C119.2 160 112 167.2 112 176zM416 160C407.2 160 400 167.2 400 176L400 208C400 216.8 407.2 224 416 224L448 224C456.8 224 464 216.8 464 208L464 176C464 167.2 456.8 160 448 160L416 160zM624 319.9L624 527.9C624 551.2 606 563.3 594.9 568.4C583 573.8 569.5 575.9 560 575.9C550.5 575.9 537.1 573.8 525.1 568.4C514 563.4 496 551.2 496 527.9C496 504.6 514 492.5 525.1 487.4C537 482 550.5 479.9 560 479.9C564.6 479.9 570.1 480.4 576 481.5L576 396.6L448 419.9L448 559.8C448 583.1 430 595.2 418.9 600.3C407 605.7 393.5 607.8 384 607.8C374.5 607.8 361.1 605.7 349.1 600.3C338 595.3 320 583.1 320 559.8C320 536.5 338 524.4 349.1 519.3C361 513.9 374.5 511.8 384 511.8C388.6 511.8 394.1 512.3 400 513.4L400 351.8C400 340.2 408.3 330.3 419.7 328.2L595.7 296.2C602.7 294.9 609.9 296.8 615.4 301.4C620.9 306 624 312.7 624 319.8z"/></svg>