<svg xmlns="http://www.w3.org/2000/svg" viewBox="0 0 640 640"><!--! Font Awesome Pro 7.2.0 by @fontawesome - https://fontawesome.com License - https://fontawesome.com/license (Commercial License) Copyright 2026 Fonticons, Inc. --><path fill="currentColor" d="M352 96L352 100C397 111.6 432.4 147 444 192L456 192C469.3 192 480 202.7 480 216C480 229.3 469.3 240 456 240L184 240C170.7 240 160 229.3 160 216C160 202.7 170.7 192 184 192L196 192C207.6 147 243 111.6 288 100L288 96C288 78.3 302.3 64 320 64C337.7 64 352 78.3 352 96zM160 552C160 538.7 170.7 528 184 528L192 528L192 464L176 464C158.3 464 144 449.7 144 432L144 368C144 350.3 158.3 336 176 336L192 336L192 272L448 272L448 336L464 336C481.7 336 496 350.3 496 368L496 432C496 449.7 481.7 464 464 464L448 464L448 528L456 528C469.3 528 480 538.7 480 552C480 565.3 469.3 576 456 576L184 576C170.7 576 160 565.3 160 552zM320 464C355.3 464 384 435.3 384 400C384 364.7 355.3 336 320 336C284.7 336 256 364.7 256 400C256 435.3 284.7 464 320 464z"/></svg>