<svg xmlns="http://www.w3.org/2000/svg" viewBox="0 0 640 640"><!--! Font Awesome Pro 7.2.0 by @fontawesome - https://fontawesome.com License - https://fontawesome.com/license (Commercial License) Copyright 2026 Fonticons, Inc. --><path fill="currentColor" d="M160 96C160 78.3 145.7 64 128 64C110.3 64 96 78.3 96 96L96 544C96 561.7 110.3 576 128 576C145.7 576 160 561.7 160 544L160 448L520 448C533.3 448 544 437.3 544 424C544 418.8 542.3 413.8 539.2 409.6L448 288L539.2 166.4C542.3 162.2 544 157.2 544 152C544 138.7 533.3 128 520 128L160 128L160 96z"/></svg>