<svg xmlns="http://www.w3.org/2000/svg" viewBox="0 0 640 640"><!--! Font Awesome Pro 7.2.0 by @fontawesome - https://fontawesome.com License - https://fontawesome.com/license (Commercial License) Copyright 2026 Fonticons, Inc. --><path fill="currentColor" d="M160 128C160 92.7 188.7 64 224 64L431.4 64C448.4 64 464.7 70.7 476.7 82.7L557.3 163.3C569.3 175.3 576 191.6 576 208.6L576 416C576 451.3 547.3 480 512 480L224 480C188.7 480 160 451.3 160 416L160 128zM112 184L112 512C112 520.8 119.2 528 128 528L456 528C469.3 528 480 538.7 480 552C480 565.3 469.3 576 456 576L128 576C92.7 576 64 547.3 64 512L64 184C64 170.7 74.7 160 88 160C101.3 160 112 170.7 112 184zM424 344C424 313.1 398.9 288 368 288C337.1 288 312 313.1 312 344C312 374.9 337.1 400 368 400C398.9 400 424 374.9 424 344zM288 128C270.3 128 256 142.3 256 160L256 192C256 209.7 270.3 224 288 224L416 224C433.7 224 448 209.7 448 192L448 160C448 142.3 433.7 128 416 128L288 128z"/></svg>