<svg xmlns="http://www.w3.org/2000/svg" viewBox="0 0 640 640"><!--! Font Awesome Pro 7.2.0 by @fontawesome - https://fontawesome.com License - https://fontawesome.com/license (Commercial License) Copyright 2026 Fonticons, Inc. --><path fill="currentColor" d="M128 96C92.7 96 64 124.7 64 160L64 480C64 515.3 92.7 544 128 544L289.4 544C280.1 523.7 274.2 501.5 272.5 478.1C244.6 471.2 224 446 224 416C224 380.7 252.7 352 288 352C294.3 352 300.4 352.9 306.2 354.6C340.9 304.7 398.6 272 464 272C480.6 272 496.7 274.1 512 278L512 237.2C512 220.2 505.3 203.9 493.3 191.9L416 114.7C404 102.7 387.7 96 370.7 96L128 96zM160 192C160 174.3 174.3 160 192 160L352 160C369.7 160 384 174.3 384 192L384 256C384 273.7 369.7 288 352 288L192 288C174.3 288 160 273.7 160 256L160 192zM608 464C608 384.5 543.5 320 464 320C384.5 320 320 384.5 320 464C320 543.5 384.5 608 464 608C543.5 608 608 543.5 608 464zM460.7 396.7C466.9 390.5 477.1 390.5 483.3 396.7L539.3 452.7C545.5 458.9 545.5 469.1 539.3 475.3L483.3 531.3C477.1 537.5 466.9 537.5 460.7 531.3C454.5 525.1 454.5 514.9 460.7 508.7L489.4 480L400 480C391.2 480 384 472.8 384 464C384 455.2 391.2 448 400 448L489.4 448L460.7 419.3C454.5 413.1 454.5 402.9 460.7 396.7z"/></svg>