<svg xmlns="http://www.w3.org/2000/svg" viewBox="0 0 640 640"><!--! Font Awesome Pro 7.2.0 by @fontawesome - https://fontawesome.com License - https://fontawesome.com/license (Commercial License) Copyright 2026 Fonticons, Inc. --><path fill="currentColor" d="M320 32C327.5 32 334.5 35.5 339 41.4L402.3 123.7L439 87C445.9 80.1 456.2 78.1 465.2 81.8C474.2 85.5 480 94.3 480 104L480 192C480 262.7 422.7 320 352 320L352 458.8C383.8 413.5 436.5 384 496 384L514.5 384C530.8 384 544 397.2 544 413.5C544 503.2 471.3 576 381.5 576L258.4 576C168.7 576 96 503.3 96 413.5C96 397.2 109.2 384 125.5 384L144 384C203.5 384 256.2 413.6 288 458.8L288 320C217.3 320 160 262.7 160 192L160 104L160.3 100.4C161.5 92.2 167 85.1 174.8 81.8C183.8 78.1 194.1 80.2 201 87L237.7 123.7L301 41.4L302.8 39.3C307.3 34.7 313.5 32 320 32z"/></svg>