<svg xmlns="http://www.w3.org/2000/svg" viewBox="0 0 640 640"><!--! Font Awesome Pro 7.2.0 by @fontawesome - https://fontawesome.com License - https://fontawesome.com/license (Commercial License) Copyright 2026 Fonticons, Inc. --><path fill="currentColor" d="M277.1 39L293.1 44.3C299.6 46.5 304 52.6 304 59.5L304 287.1C286.6 285.2 270.3 280.5 256 273.8L256 54.2C256 43.3 266.7 35.6 277.1 39zM224 107.5L224 253C218.8 248.3 214.3 243.4 210.7 238.3C201.8 225.8 189.6 216.9 176 212L176 102.2C176 91.3 186.7 83.6 197.1 87L213.1 92.3C219.6 94.5 224 100.6 224 107.5zM464 107.5L464 212.1C450.4 216.9 438.1 225.8 429.3 238.4C426.1 242.9 421.7 247.6 416 252.5L416 102.3C416 91.4 426.7 83.7 437.1 87.1L453.1 92.4C459.6 94.6 464 100.7 464 107.6zM384 102.2L384 272.5L383.5 272.7C367.5 280.1 350.9 284.8 336 286.9L336 107.6C336 100.7 340.4 94.6 346.9 92.4L363 87C373.4 83.5 384.1 91.3 384.1 102.2zM141.8 258.3C152.3 253.4 164.9 256.7 171.6 266.2C200.6 307.1 258.6 336.1 320 336.1C346.1 336.1 376.2 329.1 403.7 316.4C431.3 303.6 454.5 286 468.4 266.3C475.1 256.8 487.7 253.5 498.2 258.4C508.7 263.3 514.2 275.1 511.2 286.3L453.5 502.4C447 526.9 424.8 544 399.4 544L240.6 544C215.2 544 193 526.9 186.5 502.4L128.8 286.2C125.8 275 131.3 263.2 141.8 258.3z"/></svg>