<svg xmlns="http://www.w3.org/2000/svg" viewBox="0 0 640 640"><!--! Font Awesome Pro 7.2.0 by @fontawesome - https://fontawesome.com License - https://fontawesome.com/license (Commercial License) Copyright 2026 Fonticons, Inc. --><path fill="currentColor" d="M369.4 85.8C368.1 75.4 360.3 67 349.9 65.8C340.1 64.7 330.1 64.1 320 64.1C308.9 64.1 297.9 64.8 287.2 66.2C276.9 67.5 269.2 75.9 267.9 86.2L265 109.3C264.2 115.7 259.6 120.9 253.5 123C243.9 126.2 234.5 130.2 225.6 134.7C219.8 137.7 212.8 137.2 207.6 133.2L189.6 119.2C181.4 112.8 169.9 112.4 161.7 118.8C145.1 131.8 130.2 146.8 117.3 163.5C111 171.7 111.4 183.1 117.8 191.3L132 209.6C136 214.7 136.4 221.6 133.5 227.4C129.1 236.2 125.3 245.3 122.2 254.8C120.2 261 114.9 265.6 108.5 266.4L85.7 269.3C75.4 270.6 67 278.4 65.7 288.7C64.4 299 63.8 309.6 63.8 320.2C63.8 330.8 64.4 341.3 65.7 351.6C67 361.9 75.4 369.7 85.7 371L108.5 373.9C114.9 374.7 120.2 379.3 122.2 385.5C125.3 395 129.1 404.2 133.5 413C136.4 418.8 135.9 425.7 132 430.8L118 448.8C111.6 457 111.2 468.4 117.5 476.6C130.4 493.3 145.3 508.3 161.9 521.3C170.1 527.7 181.6 527.3 189.8 520.9L207.8 506.9C212.9 502.9 220 502.5 225.8 505.4C234.8 510 244.1 513.9 253.7 517.1C259.8 519.2 264.4 524.4 265.2 530.8L268.1 553.9C269.4 564.2 277.1 572.6 287.4 573.9C298.1 575.3 309.1 576 320.2 576C330.3 576 340.3 575.4 350.1 574.3C360.5 573.1 368.3 564.6 369.6 554.3L372.4 531.8C373.2 525.3 377.9 520 384.1 518C394.1 514.8 403.8 510.8 413.1 506.2C418.9 503.3 425.8 503.8 430.9 507.7L449 521.9C457.2 528.3 468.6 528.7 476.8 522.4C479.6 520.2 482.3 518 485 515.7L515.7 485C517.5 482.8 519.3 480.6 521.1 478.4C527.6 470.2 527.1 458.7 520.7 450.5L506.7 432.6C502.7 427.5 502.3 420.4 505.2 414.6C510 405.2 514.2 395.3 517.5 385.1C519.5 378.9 524.8 374.3 531.2 373.5L554 370.7C564.3 369.4 572.8 361.6 574 351.3C574.2 349.6 574.4 347.8 574.6 346.1L574.6 294.2C574.4 292.5 574.2 290.7 574 289C572.7 278.7 564.3 270.9 554 269.6L531.2 266.8C524.8 266 519.5 261.4 517.5 255.2C514.1 245 510 235.1 505.2 225.7C502.2 219.9 502.7 212.9 506.7 207.7L520.7 189.8C527.1 181.6 527.5 170.1 521.1 161.9C519.3 159.7 517.5 157.5 515.7 155.3L485 124.3C482.3 122 479.6 119.8 476.8 117.6C468.6 111.2 457.2 111.7 449 118.1L430.7 132.3C425.6 136.3 418.6 136.7 412.9 133.8C403.6 129.2 393.9 125.2 383.9 122C377.7 120 373 114.7 372.2 108.3L369.4 85.8zM363.5 220.5L315.5 428.5C313 439.3 302.3 446 291.5 443.5C280.7 441 274 430.3 276.5 419.5L324.5 211.5C327 200.7 337.7 194 348.5 196.5C359.3 199 366 209.7 363.5 220.5zM246.1 302.1L228.2 320L246.1 337.9C253.9 345.7 253.9 358.4 246.1 366.2C238.3 374 225.6 374 217.8 366.2L185.8 334.2C178 326.4 178 313.7 185.8 305.9L217.8 273.9C225.6 266.1 238.3 266.1 246.1 273.9C253.9 281.7 253.9 294.4 246.1 302.2zM422.1 273.8L454.1 305.8C461.9 313.6 461.9 326.3 454.1 334.1L422.1 366.1C414.3 373.9 401.6 373.9 393.8 366.1C386 358.3 386 345.6 393.8 337.8L411.7 319.9L393.8 302C386 294.2 386 281.5 393.8 273.7C401.6 265.9 414.3 265.9 422.1 273.7z"/></svg>