<svg xmlns="http://www.w3.org/2000/svg" viewBox="0 0 640 640"><!--! Font Awesome Pro 7.2.0 by @fontawesome - https://fontawesome.com License - https://fontawesome.com/license (Commercial License) Copyright 2026 Fonticons, Inc. --><path fill="currentColor" d="M96 128C96 110.3 110.3 96 128 96L512 96C529.7 96 544 110.3 544 128L544 416C544 486.7 486.7 544 416 544L224 544C153.3 544 96 486.7 96 416L96 128zM160 288L203.5 288C199.8 300.6 199.4 314.3 203 327.9L222.9 402.1C233.4 441.4 273.8 464.7 313 454.1L387.2 434.2C426.5 423.7 449.8 383.3 439.2 344.1L424.2 288L480 288L480 160L160 160L160 288zM373 282.3L392.9 356.5C396.6 370.2 388.5 384.2 374.8 387.9L300.6 407.8C286.9 411.5 272.9 403.4 269.2 389.7L249.3 315.5C245.6 301.8 253.7 287.8 267.4 284.1L341.6 264.2C355.3 260.5 369.3 268.6 373 282.3z"/></svg>