<svg xmlns="http://www.w3.org/2000/svg" viewBox="0 0 640 640"><!--! Font Awesome Pro 7.2.0 by @fontawesome - https://fontawesome.com License - https://fontawesome.com/license (Commercial License) Copyright 2026 Fonticons, Inc. --><path fill="currentColor" d="M421.1 59.3C427.3 53.1 437.5 53.1 443.7 59.3L455.8 71.4C487 102.6 487 153.3 455.8 184.5C487 153.3 537.7 153.3 568.9 184.5L581 196.6C587.2 202.8 587.2 213 581 219.2L568.9 231.3C537.7 262.5 487 262.5 455.8 231.3C440.2 215.7 424.6 200.1 408.9 184.4C377.7 153.2 377.7 102.5 408.9 71.3L421.1 59.3zM256.4 216C256.4 185.1 281.5 160 312.4 160C343.3 160 368.4 185.1 368.4 216C368.4 246.9 343.3 272 312.4 272C281.5 272 256.4 246.9 256.4 216zM176.4 184C207.3 184 232.4 209.1 232.4 240C232.4 270.9 207.3 296 176.4 296C145.5 296 120.4 270.9 120.4 240C120.4 209.1 145.5 184 176.4 184zM96.4 376C96.4 345.1 121.5 320 152.4 320C183.3 320 208.4 345.1 208.4 376C208.4 406.9 183.3 432 152.4 432C121.5 432 96.4 406.9 96.4 376zM64.4 520C64.4 489.1 89.5 464 120.4 464C151.3 464 176.4 489.1 176.4 520C176.4 550.9 151.3 576 120.4 576C89.5 576 64.4 550.9 64.4 520zM208.4 488C208.4 457.1 233.5 432 264.4 432C295.3 432 320.4 457.1 320.4 488C320.4 518.9 295.3 544 264.4 544C233.5 544 208.4 518.9 208.4 488zM400.4 408C431.3 408 456.4 433.1 456.4 464C456.4 494.9 431.3 520 400.4 520C369.5 520 344.4 494.9 344.4 464C344.4 433.1 369.5 408 400.4 408zM232.4 352C232.4 321.1 257.5 296 288.4 296C319.3 296 344.4 321.1 344.4 352C344.4 382.9 319.3 408 288.4 408C257.5 408 232.4 382.9 232.4 352zM424.4 272C455.3 272 480.4 297.1 480.4 328C480.4 358.9 455.3 384 424.4 384C393.5 384 368.4 358.9 368.4 328C368.4 297.1 393.5 272 424.4 272z"/></svg>