<svg xmlns="http://www.w3.org/2000/svg" viewBox="0 0 640 640"><!--! Font Awesome Pro 7.2.0 by @fontawesome - https://fontawesome.com License - https://fontawesome.com/license (Commercial License) Copyright 2026 Fonticons, Inc. --><path fill="currentColor" d="M288 144C288 117.5 266.5 96 240 96L144 96C117.5 96 96 117.5 96 144L96 240C96 266.5 117.5 288 144 288L240 288C266.5 288 288 266.5 288 240L288 144zM288 400C288 373.5 266.5 352 240 352L144 352C117.5 352 96 373.5 96 400L96 496C96 522.5 117.5 544 144 544L240 544C266.5 544 288 522.5 288 496L288 400zM352 144L352 240C352 266.5 373.5 288 400 288L496 288C522.5 288 544 266.5 544 240L544 144C544 117.5 522.5 96 496 96L400 96C373.5 96 352 117.5 352 144zM544 400C544 373.5 522.5 352 496 352L400 352C373.5 352 352 373.5 352 400L352 496C352 522.5 373.5 544 400 544L496 544C522.5 544 544 522.5 544 496L544 400z"/></svg>