<svg xmlns="http://www.w3.org/2000/svg" viewBox="0 0 640 640"><!--! Font Awesome Pro 7.2.0 by @fontawesome - https://fontawesome.com License - https://fontawesome.com/license (Commercial License) Copyright 2026 Fonticons, Inc. --><path fill="currentColor" d="M192 96C139 96 96 139 96 192C96 245 139 288 192 288C245 288 288 245 288 192C288 139 245 96 192 96zM192 352C139 352 96 395 96 448C96 501 139 544 192 544C245 544 288 501 288 448C288 395 245 352 192 352zM352 192C352 245 395 288 448 288C501 288 544 245 544 192C544 139 501 96 448 96C395 96 352 139 352 192zM472 376C472 362.7 461.3 352 448 352C434.7 352 424 362.7 424 376L424 424L376 424C362.7 424 352 434.7 352 448C352 461.3 362.7 472 376 472L424 472L424 520C424 533.3 434.7 544 448 544C461.3 544 472 533.3 472 520L472 472L520 472C533.3 472 544 461.3 544 448C544 434.7 533.3 424 520 424L472 424L472 376z"/></svg>