<svg xmlns="http://www.w3.org/2000/svg" viewBox="0 0 640 640"><!--! Font Awesome Pro 7.2.0 by @fontawesome - https://fontawesome.com License - https://fontawesome.com/license (Commercial License) Copyright 2026 Fonticons, Inc. --><path fill="currentColor" d="M128 160C128 142.3 113.7 128 96 128C78.3 128 64 142.3 64 160L64 480C64 497.7 78.3 512 96 512C113.7 512 128 497.7 128 480L128 352L224 352L224 480C224 497.7 238.3 512 256 512C273.7 512 288 497.7 288 480L288 160C288 142.3 273.7 128 256 128C238.3 128 224 142.3 224 160L224 288L128 288L128 160zM384 128C366.3 128 352 142.3 352 160L352 304C352 321.7 366.3 336 384 336L464 336C494.9 336 520 361.1 520 392C520 422.9 494.9 448 464 448L384 448C366.3 448 352 462.3 352 480C352 497.7 366.3 512 384 512L464 512C530.3 512 584 458.3 584 392C584 325.7 530.3 272 464 272L416 272L416 192L536 192C553.7 192 568 177.7 568 160C568 142.3 553.7 128 536 128L384 128z"/></svg>