<svg xmlns="http://www.w3.org/2000/svg" viewBox="0 0 640 640"><!--! Font Awesome Pro 7.2.0 by @fontawesome - https://fontawesome.com License - https://fontawesome.com/license (Commercial License) Copyright 2026 Fonticons, Inc. --><path fill="currentColor" d="M96 128C113.7 128 128 142.3 128 160L128 288L224 288L224 160C224 142.3 238.3 128 256 128C273.7 128 288 142.3 288 160L288 480C288 497.7 273.7 512 256 512C238.3 512 224 497.7 224 480L224 352L128 352L128 480C128 497.7 113.7 512 96 512C78.3 512 64 497.7 64 480L64 160C64 142.3 78.3 128 96 128zM448 192C430.3 192 416 206.3 416 224L416 277.5C426 274 436.8 272 448 272L480 272C533 272 576 315 576 368L576 416C576 469 533 512 480 512L448 512C395 512 352 469 352 416L352 224C352 171 395 128 448 128L512 128C529.7 128 544 142.3 544 160C544 177.7 529.7 192 512 192L448 192zM416 368L416 416C416 433.7 430.3 448 448 448L480 448C497.7 448 512 433.7 512 416L512 368C512 350.3 497.7 336 480 336L448 336C430.3 336 416 350.3 416 368z"/></svg>