<svg xmlns="http://www.w3.org/2000/svg" viewBox="0 0 640 640"><!--! Font Awesome Pro 7.2.0 by @fontawesome - https://fontawesome.com License - https://fontawesome.com/license (Commercial License) Copyright 2026 Fonticons, Inc. --><path fill="currentColor" d="M0 201.7C0 155.7 23 112.7 61.3 87.1C83.9 72 110.5 64 137.7 64L199.8 64C215.6 64 231 68.7 244.2 77.4L272 96L288 96C288 78.3 302.3 64 320 64C337.7 64 352 78.3 352 96L352 192C352 209.7 337.7 224 320 224C302.3 224 288 209.7 288 192L272 192L244.2 210.6C231 219.3 215.6 224 199.8 224L152.2 224C136.4 224 121 219.3 107.8 210.6L94 201.3C85.2 195.5 74.1 194.3 64.4 198.2L19.3 216.2C10 220 0 213.2 0 203.2L0 201.7zM224 272L224 528C224 554.5 202.5 576 176 576C149.5 576 128 554.5 128 528L128 272L224 272zM448 512L416 576L368 576C341.5 576 320 554.5 320 528L320 400L608 400L608 528C608 554.5 586.5 576 560 576L480 576L448 512zM320 352C320.7 331.5 331.3 312.5 348.5 301L416 256L416 112C416 85.5 437.5 64 464 64C490.5 64 512 85.5 512 112L512 256L579.5 301C596.7 312.5 607.2 331.5 608 352L320 352z"/></svg>