<svg xmlns="http://www.w3.org/2000/svg" viewBox="0 0 640 640"><!--! Font Awesome Pro 7.2.0 by @fontawesome - https://fontawesome.com License - https://fontawesome.com/license (Commercial License) Copyright 2026 Fonticons, Inc. --><path fill="currentColor" d="M393.7 512C388.6 512 384 515.7 384 520.8L384 528C384 554.5 362.5 576 336 576L176 576C149.5 576 128 554.5 128 528L128 464.4C128 451.8 122.9 439.9 114.9 430.2C83.1 391.5 64 342 64 288C64 164.3 164.3 64 288 64C400.7 64 494 147.3 509.7 255.7C510.1 258.7 511.4 261.6 513.3 264L549.1 306.9C556.1 315.3 560 326 560 337C560 362.9 539 384 513 384L512 384C503.2 384 496 391.2 496 400L496 448C496 483.3 467.3 512 432 512L393.7 512zM384 288C401.7 288 416 273.7 416 256C416 238.3 401.7 224 384 224C366.3 224 352 238.3 352 256C352 273.7 366.3 288 384 288z"/></svg>