<svg xmlns="http://www.w3.org/2000/svg" viewBox="0 0 640 640"><!--! Font Awesome Pro 7.2.0 by @fontawesome - https://fontawesome.com License - https://fontawesome.com/license (Commercial License) Copyright 2026 Fonticons, Inc. --><path fill="currentColor" d="M131.5 127.8C89.8 168.4 64 225.2 64 288C64 342 83.1 391.5 114.9 430.2C122.9 439.9 128 451.8 128 464.4L128 528C128 554.5 149.5 576 176 576L336 576C362.5 576 384 554.5 384 528L384 520.8C384 515.7 388.5 512 393.7 512L432 512C467.3 512 496 483.3 496 448L496 400C496 391.2 503.2 384 512 384L513 384C539 384 560 363 560 337C560 326 556.1 315.4 549.1 306.9L513.3 264C511.3 261.6 510.1 258.7 509.7 255.7C502.5 205.9 478.9 161.3 444.5 127.8L416.9 155.4C408.7 163.7 404 174.8 404 186.5L404 221.3C416 228.2 424 241.1 424 255.9C424 278 406.1 295.9 384 295.9C361.9 295.9 344 278 344 255.9C344 241.1 352 228.2 364 221.3L364 186.5C364 164.2 372.9 142.9 388.6 127.1L413.4 102.3C382.8 81.6 346.8 68.3 308 64.9L308 157.4C320 164.3 328 177.2 328 192C328 214.1 310.1 232 288 232C265.9 232 248 214.1 248 192C248 177.2 256 164.3 268 157.4L268 64.9C229.2 68.3 193.2 81.6 162.6 102.3L187.4 127.1C203.2 142.9 212 164.2 212 186.5L212 221.3C224 228.2 232 241.1 232 255.9C232 278 214.1 295.9 192 295.9C169.9 295.9 152 278 152 255.9C152 241.1 160 228.2 172 221.3L172 186.5C172 174.8 167.4 163.6 159.1 155.4L131.5 127.8zM248 320C248 297.9 265.9 280 288 280C310.1 280 328 297.9 328 320C328 342.1 310.1 360 288 360C265.9 360 248 342.1 248 320z"/></svg>