<svg xmlns="http://www.w3.org/2000/svg" viewBox="0 0 640 640"><!--! Font Awesome Pro 7.2.0 by @fontawesome - https://fontawesome.com License - https://fontawesome.com/license (Commercial License) Copyright 2026 Fonticons, Inc. --><path fill="currentColor" d="M64 96C64 78.3 78.3 64 96 64L416 64C433.7 64 448 78.3 448 96C448 113.7 433.7 128 416 128L416 139C416 181.4 399.1 222.1 369.1 252.1L301.2 320L319.1 337.9C304.7 354.4 293.1 373.5 285 394.3L256 365.3L188.1 433.2C170.1 451.2 160 475.6 160 501.1L160 512.1L278 512.1C284 535.4 294.3 557.1 308 576.1L96 576C78.3 576 64 561.7 64 544C64 526.3 78.3 512 96 512L96 501C96 458.6 112.9 417.9 142.9 387.9L210.8 320L142.9 252.1C112.9 222.1 96 181.4 96 139L96 128C78.3 128 64 113.7 64 96zM160 128L160 139C160 164.5 170.1 188.9 188.1 206.9L256 274.8L323.9 206.9C341.9 188.9 352 164.5 352 139L352 128L160 128zM320 464C320 384.5 384.5 320 464 320C543.5 320 608 384.5 608 464C608 543.5 543.5 608 464 608C384.5 608 320 543.5 320 464zM464 384C455.2 384 448 391.2 448 400L448 464C448 472.8 455.2 480 464 480L512 480C520.8 480 528 472.8 528 464C528 455.2 520.8 448 512 448L480 448L480 400C480 391.2 472.8 384 464 384z"/></svg>