<svg xmlns="http://www.w3.org/2000/svg" viewBox="0 0 640 640"><!--! Font Awesome Pro 7.2.0 by @fontawesome - https://fontawesome.com License - https://fontawesome.com/license (Commercial License) Copyright 2026 Fonticons, Inc. --><path fill="currentColor" d="M320 128L320 180.1L438.2 283.5C454.6 297.8 464 318.6 464 340.3C464 365.8 451.4 388.4 432 402L432 523.2C432 542.6 426.5 560.6 417.1 576L576 576C611.3 576 640 547.3 640 512L640 128C640 92.7 611.3 64 576 64L384 64C348.7 64 320 92.7 320 128zM440.4 221.6L384.4 172.6C386 165.4 392.4 160 400 160L432 160C440.8 160 448 167.2 448 176L448 208C448 213.8 445 218.8 440.4 221.6zM528 160L560 160C568.8 160 576 167.2 576 176L576 208C576 216.8 568.8 224 560 224L528 224C519.2 224 512 216.8 512 208L512 176C512 167.2 519.2 160 528 160zM512 304C512 295.2 519.2 288 528 288L560 288C568.8 288 576 295.2 576 304L576 336C576 344.8 568.8 352 560 352L528 352C519.2 352 512 344.8 512 336L512 304zM528 416L560 416C568.8 416 576 423.2 576 432L576 464C576 472.8 568.8 480 560 480L528 480C519.2 480 512 472.8 512 464L512 432C512 423.2 519.2 416 528 416zM384 368L388.5 368C403.7 368 416 355.7 416 340.5C416 332.6 412.6 325 406.6 319.8L236 170.5C228.3 163.7 218.3 160 208 160C197.7 160 187.7 163.7 180 170.5L9.4 319.8C3.4 325 0 332.6 0 340.5C0 355.7 12.3 368 27.5 368L32 368L32 523.4C32 552.4 55.6 576 84.6 576L331.4 576C360.5 576 384 552.4 384 523.4L384 368zM160 360C160 346.7 170.7 336 184 336L232 336C245.3 336 256 346.7 256 360L256 408C256 421.3 245.3 432 232 432L184 432C170.7 432 160 421.3 160 408L160 360z"/></svg>