<svg xmlns="http://www.w3.org/2000/svg" viewBox="0 0 640 640"><!--! Font Awesome Pro 7.2.0 by @fontawesome - https://fontawesome.com License - https://fontawesome.com/license (Commercial License) Copyright 2026 Fonticons, Inc. --><path fill="currentColor" d="M128 96C92.7 96 64 124.7 64 160L64 480C64 515.3 92.7 544 128 544L340 544C326.3 525 316 503.3 310 480L152 480C143.1 480 134.8 475 130.7 467.1C126.6 459.2 127.2 449.6 132.3 442.3L188.3 362.3C192.8 355.9 200.1 352.1 208 352.1C215.9 352.1 223.2 355.9 227.7 362.3L254.1 400.1L315.5 299.6C319.9 292.5 327.6 288.1 336 288.1C344.4 288.1 352.1 292.5 356.5 299.6L356.7 300C391.7 263.1 441.2 240.1 496 240.1C501.4 240.1 506.7 240.3 512 240.8L512 160C512 124.7 483.3 96 448 96L128 96zM192 176C218.5 176 240 197.5 240 224C240 250.5 218.5 272 192 272C165.5 272 144 250.5 144 224C144 197.5 165.5 176 192 176zM496 576C575.5 576 640 511.5 640 432C640 352.5 575.5 288 496 288C416.5 288 352 352.5 352 432C352 511.5 416.5 576 496 576zM512 368L512 416L560 416C568.8 416 576 423.2 576 432C576 440.8 568.8 448 560 448L512 448L512 496C512 504.8 504.8 512 496 512C487.2 512 480 504.8 480 496L480 448L432 448C423.2 448 416 440.8 416 432C416 423.2 423.2 416 432 416L480 416L480 368C480 359.2 487.2 352 496 352C504.8 352 512 359.2 512 368z"/></svg>