<svg xmlns="http://www.w3.org/2000/svg" viewBox="0 0 640 640"><!--! Font Awesome Pro 7.2.0 by @fontawesome - https://fontawesome.com License - https://fontawesome.com/license (Commercial License) Copyright 2026 Fonticons, Inc. --><path fill="currentColor" d="M367.9 216.1L233.5 395.3C228.1 402.5 224.8 411.1 224.1 420.1L223.9 423.9L224.1 427.8C224.9 437 228.3 445.7 233.9 453.1L304.2 544L160 544C124.7 544 96 515.3 96 480L96 160C96 124.7 124.7 96 160 96L275.1 96L367.9 216.1zM480 96C515.3 96 544 124.7 544 160L544 480C544 515.3 515.3 544 480 544L364.9 544C330.9 500 300 460 272.1 423.9L406.5 244.7C412.7 236.4 416 226.4 416 216.1C416 205.5 412.5 195.3 406 186.9L335.8 96L480 96zM332.4 423.4L376.1 480L456 480C464.7 480 472.7 475.3 476.9 467.8C481.1 460.3 481 451 476.4 443.6L405 326.6L332.4 423.4zM224 176C197.5 176 176 197.5 176 224C176 250.5 197.5 272 224 272C250.5 272 272 250.5 272 224C272 197.5 250.5 176 224 176z"/></svg>