<svg xmlns="http://www.w3.org/2000/svg" viewBox="0 0 640 640"><!--! Font Awesome Pro 7.2.0 by @fontawesome - https://fontawesome.com License - https://fontawesome.com/license (Commercial License) Copyright 2026 Fonticons, Inc. --><path fill="currentColor" d="M64 128C64 110.3 78.3 96 96 96L160 96C177.7 96 192 110.3 192 128L192 279.4L348.6 195.1C364.6 186.5 384 198.1 384 216.2L384 279.4L540.6 195.1C556.6 186.5 576 198.1 576 216.2L576 496C576 522.5 554.5 544 528 544L112 544C85.5 544 64 522.5 64 496L64 128zM304 384C295.2 384 288 391.2 288 400L288 432C288 440.8 295.2 448 304 448L336 448C344.8 448 352 440.8 352 432L352 400C352 391.2 344.8 384 336 384L304 384zM160 400L160 432C160 440.8 167.2 448 176 448L208 448C216.8 448 224 440.8 224 432L224 400C224 391.2 216.8 384 208 384L176 384C167.2 384 160 391.2 160 400zM432 384C423.2 384 416 391.2 416 400L416 432C416 440.8 423.2 448 432 448L464 448C472.8 448 480 440.8 480 432L480 400C480 391.2 472.8 384 464 384L432 384z"/></svg>