<svg xmlns="http://www.w3.org/2000/svg" viewBox="0 0 640 640"><!--! Font Awesome Pro 7.2.0 by @fontawesome - https://fontawesome.com License - https://fontawesome.com/license (Commercial License) Copyright 2026 Fonticons, Inc. --><path fill="currentColor" d="M256 48L384 48C401.7 48 416 62.3 416 80C416 97.7 401.7 112 384 112L256 112C238.3 112 224 97.7 224 80C224 62.3 238.3 48 256 48zM496 232C496 218.7 485.3 208 472 208C461.7 208 452.9 214.5 449.5 223.6L474.6 255.8C486.7 254.5 496 244.3 496 231.9zM400 160L418.5 183.8C431.7 169.2 450.8 160 472 160C511.8 160 544 192.2 544 232C544 261.2 526.6 286.3 501.7 297.6C508.5 313.4 512 330.5 512 347.9L512 512C512 547.3 483.3 576 448 576L192 576C156.7 576 128 547.3 128 512L128 347.9C128 319.4 137.5 291.8 155 269.3L240 160L400 160zM224 352C206.3 352 192 366.3 192 384L192 448C192 465.7 206.3 480 224 480L416 480C433.7 480 448 465.7 448 448L448 384C448 366.3 433.7 352 416 352L224 352z"/></svg>