<svg xmlns="http://www.w3.org/2000/svg" viewBox="0 0 640 640"><!--! Font Awesome Pro 7.2.0 by @fontawesome - https://fontawesome.com License - https://fontawesome.com/license (Commercial License) Copyright 2026 Fonticons, Inc. --><path fill="currentColor" d="M51.2 47.9C72.4 26.7 106.9 26.7 128.1 47.9L210.2 130C213.6 133.4 216.2 137.4 218 141.8L246.2 212.2L428 394L498.4 422.2C502.8 424 506.8 426.6 510.2 430L592.2 512C613.4 533.2 613.4 567.7 592.2 588.9L588.9 592.2C567.7 613.4 533.2 613.4 512 592.2L429.9 510.1C426.5 506.7 423.9 502.7 422.1 498.3L393.9 427.9L212.1 246.1L141.7 217.9C137.3 216.1 133.3 213.5 129.9 210.1L47.9 128.1C26.7 106.8 26.7 72.4 47.9 51.1L51.2 47.8zM185.2 287L224.3 326.1C204.8 351.2 206.5 387.5 229.6 410.6C252.7 433.7 288.9 435.4 314 415.9L353 454.9L360.9 474.7C275.4 538.6 189.9 562.8 127.8 571.5C92.8 576.4 63.7 547.3 68.6 512.3C77.3 450.2 101.5 364.7 165.4 279.1L185.2 287zM512.3 68.6C547.3 63.7 576.4 92.8 571.5 127.8C562.8 189.9 538.6 275.4 474.7 360.9L454.9 353L415.9 314C435.4 288.9 433.8 252.6 410.7 229.5C387.6 206.4 351.3 204.7 326.2 224.3L287.1 185.2L279.2 165.4C364.7 101.5 450.2 77.3 512.3 68.6z"/></svg>