<svg xmlns="http://www.w3.org/2000/svg" viewBox="0 0 640 640"><!--! Font Awesome Pro 7.2.0 by @fontawesome - https://fontawesome.com License - https://fontawesome.com/license (Commercial License) Copyright 2026 Fonticons, Inc. --><path fill="currentColor" d="M48 128C48 92.7 76.7 64 112 64L528 64C563.3 64 592 92.7 592 128L592 384C592 419.3 563.3 448 528 448L112 448C76.7 448 48 419.3 48 384L48 128zM96 144L96 176C96 184.8 103.2 192 112 192L144 192C152.8 192 160 184.8 160 176L160 144C160 135.2 152.8 128 144 128L112 128C103.2 128 96 135.2 96 144zM112 224C103.2 224 96 231.2 96 240L96 272C96 280.8 103.2 288 112 288L144 288C152.8 288 160 280.8 160 272L160 240C160 231.2 152.8 224 144 224L112 224zM192 336L192 368C192 376.8 199.2 384 208 384L432 384C440.8 384 448 376.8 448 368L448 336C448 327.2 440.8 320 432 320L208 320C199.2 320 192 327.2 192 336zM208 128C199.2 128 192 135.2 192 144L192 176C192 184.8 199.2 192 208 192L240 192C248.8 192 256 184.8 256 176L256 144C256 135.2 248.8 128 240 128L208 128zM192 240L192 272C192 280.8 199.2 288 208 288L240 288C248.8 288 256 280.8 256 272L256 240C256 231.2 248.8 224 240 224L208 224C199.2 224 192 231.2 192 240zM304 128C295.2 128 288 135.2 288 144L288 176C288 184.8 295.2 192 304 192L336 192C344.8 192 352 184.8 352 176L352 144C352 135.2 344.8 128 336 128L304 128zM288 240L288 272C288 280.8 295.2 288 304 288L336 288C344.8 288 352 280.8 352 272L352 240C352 231.2 344.8 224 336 224L304 224C295.2 224 288 231.2 288 240zM400 128C391.2 128 384 135.2 384 144L384 176C384 184.8 391.2 192 400 192L432 192C440.8 192 448 184.8 448 176L448 144C448 135.2 440.8 128 432 128L400 128zM384 240L384 272C384 280.8 391.2 288 400 288L432 288C440.8 288 448 280.8 448 272L448 240C448 231.2 440.8 224 432 224L400 224C391.2 224 384 231.2 384 240zM496 128C487.2 128 480 135.2 480 144L480 176C480 184.8 487.2 192 496 192L528 192C536.8 192 544 184.8 544 176L544 144C544 135.2 536.8 128 528 128L496 128zM480 240L480 272C480 280.8 487.2 288 496 288L528 288C536.8 288 544 280.8 544 272L544 240C544 231.2 536.8 224 528 224L496 224C487.2 224 480 231.2 480 240zM272 496L368 496C377.7 496 386.5 501.8 390.2 510.8C393.9 519.8 391.9 530.1 385 537L337 585C327.6 594.4 312.4 594.4 303.1 585L255.1 537C248.2 530.1 246.2 519.8 249.9 510.8C253.6 501.8 262.3 496 272 496z"/></svg>