<svg xmlns="http://www.w3.org/2000/svg" viewBox="0 0 640 640"><!--! Font Awesome Pro 7.2.0 by @fontawesome - https://fontawesome.com License - https://fontawesome.com/license (Commercial License) Copyright 2026 Fonticons, Inc. --><path fill="currentColor" d="M178.5 115.7C183.4 103.8 195.1 96 208 96L432 96C444.9 96 456.6 103.8 461.5 115.7L541.5 307.7C545.6 317.6 544.5 328.9 538.6 337.8C532.7 346.7 522.7 352 512 352L128 352C117.3 352 107.3 346.7 101.4 337.8C95.5 328.9 94.4 317.6 98.5 307.7L178.5 115.7zM220.1 400L420 400C437.6 421.9 448.1 449.7 448.1 480C448.1 518.2 431.3 552.5 404.8 576L235.5 576C208.9 552.5 192.2 518.2 192.2 480C192.2 449.7 202.7 421.9 220.3 400z"/></svg>