<svg xmlns="http://www.w3.org/2000/svg" viewBox="0 0 640 640"><!--! Font Awesome Pro 7.2.0 by @fontawesome - https://fontawesome.com License - https://fontawesome.com/license (Commercial License) Copyright 2026 Fonticons, Inc. --><path fill="currentColor" d="M64 160C64 124.7 92.7 96 128 96L512 96C547.3 96 576 124.7 576 160L576 400L512 400L512 160L128 160L128 400L64 400L64 160zM0 467.2C0 456.6 8.6 448 19.2 448L620.8 448C631.4 448 640 456.6 640 467.2C640 509.6 605.6 544 563.2 544L76.8 544C34.4 544 0 509.6 0 467.2zM200 192L216 192C238.1 192 256 209.9 256 232L256 264C256 286.1 238.1 304 216 304L200 304C177.9 304 160 286.1 160 264L160 232C160 209.9 177.9 192 200 192zM192 232L192 264C192 268.4 195.6 272 200 272L216 272C220.4 272 224 268.4 224 264L224 232C224 227.6 220.4 224 216 224L200 224C195.6 224 192 227.6 192 232zM304 192L320 192C328.8 192 336 199.2 336 208L336 288C336 296.8 328.8 304 320 304C311.2 304 304 296.8 304 288L304 224C295.2 224 288 216.8 288 208C288 199.2 295.2 192 304 192zM384 232C384 209.9 401.9 192 424 192L440 192C462.1 192 480 209.9 480 232L480 264C480 286.1 462.1 304 440 304L424 304C401.9 304 384 286.1 384 264L384 232zM424 224C419.6 224 416 227.6 416 232L416 264C416 268.4 419.6 272 424 272L440 272C444.4 272 448 268.4 448 264L448 232C448 227.6 444.4 224 440 224L424 224zM192 336L208 336C216.8 336 224 343.2 224 352L224 400L192 400L192 368C183.2 368 176 360.8 176 352C176 343.2 183.2 336 192 336zM448 352L448 400L416 400L416 368C407.2 368 400 360.8 400 352C400 343.2 407.2 336 416 336L432 336C440.8 336 448 343.2 448 352zM368 376L368 400L336 400L336 376C336 371.6 332.4 368 328 368L312 368C307.6 368 304 371.6 304 376L304 400L272 400L272 376C272 353.9 289.9 336 312 336L328 336C350.1 336 368 353.9 368 376z"/></svg>