<svg xmlns="http://www.w3.org/2000/svg" viewBox="0 0 640 640"><!--! Font Awesome Pro 7.2.0 by @fontawesome - https://fontawesome.com License - https://fontawesome.com/license (Commercial License) Copyright 2026 Fonticons, Inc. --><path fill="currentColor" d="M383 42.4C380.7 36.1 374.7 32 368 32C361.3 32 355.3 36.2 353 42.4L338.3 82.3L298.4 97C292.1 99.3 288 105.3 288 112C288 118.7 292.2 124.7 298.4 127L338.2 141.7L352.9 181.5C355.2 187.8 361.2 191.9 367.9 191.9C374.6 191.9 380.6 187.7 382.9 181.5L397.7 141.7L437.6 127C443.9 124.7 448 118.7 448 112C448 105.3 443.8 99.3 437.6 97L397.7 82.3L383 42.4zM240.4 104.7C201.7 113.4 167.1 128.2 139 147.6C92.6 179.4 64 223.5 64 272C64 320.5 92.6 364.6 139 396.4C144.5 400.2 150.2 403.8 156.1 407.2L205.2 437.9C216.9 445.2 224 458.1 224 471.9C224 494 206.1 512 183.9 512L178.3 512C171.2 512 164.2 510.4 157.9 507.2L110.3 483.4C94.5 475.5 75.3 481.9 67.4 497.7C59.5 513.5 65.9 532.7 81.7 540.6L129.3 564.4C144.5 572 161.3 576 178.3 576L183.9 576C241.4 576 288 529.4 288 471.9C288 463.2 286.9 454.6 284.8 446.3C296.3 447.4 308 447.9 320 447.9C461.3 448 576.1 369 576 271.9C576 223.4 547.4 179.3 501 147.4C497.3 144.8 493.4 142.4 489.5 140C482.4 154.5 470 166.1 454.2 171.9L435.1 179L433.7 182.9C445.2 188 455.6 193.9 464.8 200.2C499.4 224 512 250.4 512 271.9C512 293.4 499.3 319.8 464.8 343.6C430.4 367.2 379.4 383.9 320 383.9C268 383.9 222.5 371.2 188.9 352.1L174.7 343.2C140.5 319.5 128 293.3 128 271.9C128 250.4 140.7 224 175.2 200.2C198.9 183.9 230.5 170.9 267.4 164.4C250.5 152.6 240 133.1 240 111.9C240 109.4 240.1 107 240.4 104.6zM528 448C521.3 448 515.3 452.2 513 458.4L498.3 498.2L458.5 512.9C452.2 515.2 448.1 521.2 448.1 527.9C448.1 534.6 452.3 540.6 458.5 542.9L498.3 557.6L513 597.4C515.3 603.7 521.3 607.8 528 607.8C534.7 607.8 540.7 603.6 543 597.4L557.7 557.6L597.5 542.9C603.8 540.6 607.9 534.6 607.9 527.9C607.9 521.2 603.7 515.2 597.5 512.9L557.7 498.2L543 458.4C540.7 452.1 534.7 448 528 448z"/></svg>