<svg xmlns="http://www.w3.org/2000/svg" viewBox="0 0 640 640"><!--! Font Awesome Pro 7.2.0 by @fontawesome - https://fontawesome.com License - https://fontawesome.com/license (Commercial License) Copyright 2026 Fonticons, Inc. --><path fill="currentColor" d="M416 512C416 556.2 380.2 592 336 592L304 592C259.8 592 224 556.2 224 512L224 496L416 496L416 512zM320 64C426 64 512 150 512 256C512 307.2 492 353.7 459.3 388.1C442.8 405.5 428.1 425.7 420.9 448L219.2 448C211.9 425.7 197.3 405.5 180.8 388.1C148.1 353.7 128.1 307.2 128.1 256C128.1 150 214.1 64 320.1 64zM69.3 362.5C81.2 356.6 95.6 361.4 101.5 373.2C107.4 385 102.6 399.5 90.7 405.4L58.7 421.4C46.8 427.3 32.4 422.5 26.5 410.7C20.6 398.9 25.4 384.4 37.3 378.5L69.3 362.5zM538.5 373.2C544.4 361.4 558.8 356.5 570.7 362.5L602.7 378.5C614.5 384.4 619.4 398.8 613.4 410.7C607.5 422.5 593.1 427.4 581.2 421.4L549.2 405.4C537.4 399.5 532.5 385.1 538.5 373.2zM320 312C302.3 312 288 326.3 288 344C288 361.7 302.3 376 320 376C337.7 376 352 361.7 352 344C352 326.3 337.7 312 320 312zM56 232C69.3 232 80 242.7 80 256C80 269.3 69.3 280 56 280L24 280C10.7 280 0 269.3 0 256C0 242.7 10.7 232 24 232L56 232zM320 136C301.7 136 287.2 151.7 288.8 170L296.1 258C297.1 270.4 307.5 280 320 280C332.5 280 342.9 270.4 343.9 258L351.2 170C352.7 151.7 338.3 136 319.9 136zM616 232C629.3 232 640 242.7 640 256C640 269.3 629.3 280 616 280L584 280C570.7 280 560 269.3 560 256C560 242.7 570.7 232 584 232L616 232zM26.5 101.3C32.4 89.4 46.8 84.6 58.7 90.5L90.7 106.5C102.6 112.4 107.4 126.8 101.5 138.7C95.6 150.6 81.1 155.4 69.3 149.5L37.3 133.5C25.4 127.5 20.6 113.1 26.5 101.3zM581.3 90.5C593.2 84.6 607.6 89.4 613.5 101.3C619.4 113.2 614.6 127.6 602.8 133.5L570.8 149.5C558.9 155.4 544.5 150.6 538.6 138.7C532.7 126.8 537.5 112.4 549.3 106.5L581.3 90.5z"/></svg>