<svg xmlns="http://www.w3.org/2000/svg" viewBox="0 0 640 640"><!--! Font Awesome Pro 7.2.0 by @fontawesome - https://fontawesome.com License - https://fontawesome.com/license (Commercial License) Copyright 2026 Fonticons, Inc. --><path fill="currentColor" d="M320.2 64C337.9 64 352.2 78.3 352.2 96L352.2 226C468 240.4 559.8 332.3 574.2 448.1C576.4 465.6 561.8 480 544.2 480L438.9 480C419.9 526.9 373.9 560 320.2 560C266.5 560 220.5 526.9 201.5 480L96.2 480C78.5 480 64 465.6 66.2 448.1C80.6 332.3 172.4 240.5 288.2 226L288.2 96C288.2 78.3 302.5 64 320.2 64zM256.2 480C270.8 499.4 294 512 320.2 512C346.4 512 369.6 499.4 384.2 480L256.2 480z"/></svg>