<svg xmlns="http://www.w3.org/2000/svg" viewBox="0 0 640 640"><!--! Font Awesome Pro 7.2.0 by @fontawesome - https://fontawesome.com License - https://fontawesome.com/license (Commercial License) Copyright 2026 Fonticons, Inc. --><path fill="currentColor" d="M73 39.1C63.6 29.7 48.4 29.7 39.1 39.1C29.8 48.5 29.7 63.7 39 73.1L567 601.1C576.4 610.5 591.6 610.5 600.9 601.1C610.2 591.7 610.3 576.5 600.9 567.2L442.2 408.3C447.5 401.2 453.3 394.5 459.3 388.1C492 353.7 512 307.2 512 256C512 150 426 64 320 64C259.3 64 205.2 92.2 170 136.1L73 39.1zM213.4 179.6C235.1 148.4 271.1 128 312 128C325.3 128 336 138.7 336 152C336 165.3 325.3 176 312 176C284.4 176 260.4 191.6 248.3 214.4L213.4 179.5zM129.6 231.4C128.6 239.5 128 247.7 128 256C128 307.2 148 353.7 180.7 388.1C197.2 405.5 211.9 425.7 219.1 448L346.2 448L129.6 231.4zM415.8 517.6L394.2 496L224 496L224 512C224 556.2 259.8 592 304 592L336 592C378.3 592 412.9 559.2 415.8 517.6z"/></svg>