<svg xmlns="http://www.w3.org/2000/svg" viewBox="0 0 640 640"><!--! Font Awesome Pro 7.2.0 by @fontawesome - https://fontawesome.com License - https://fontawesome.com/license (Commercial License) Copyright 2026 Fonticons, Inc. --><path fill="currentColor" d="M224 512C224 556.2 259.8 592 304 592L336 592C380.2 592 416 556.2 416 512L416 496L224 496L224 512zM420.9 448C428.2 425.7 442.8 405.5 459.3 388.1C492 353.7 512 307.2 512 256C512 150 426 64 320 64C214 64 128 150 128 256C128 307.2 148 353.7 180.7 388.1C197.2 405.5 211.9 425.7 219.1 448L420.8 448zM324 144C335 144 344 153 344 164L344 168L352 168C363 168 372 177 372 188C372 199 363 208 352 208L304.5 208C297.6 208 292 213.6 292 220.5C292 226.6 296.4 231.8 302.4 232.8L344.1 239.8C369.4 244 388 265.9 388 291.6C388 317.7 369 339.3 344 343.4L344 348.1C344 359.1 335 368.1 324 368.1C313 368.1 304 359.1 304 348.1L304 344.1L280 344.1C269 344.1 260 335.1 260 324.1C260 313.1 269 304.1 280 304.1L335.5 304.1C342.4 304.1 348 298.5 348 291.6C348 285.5 343.6 280.3 337.6 279.3L295.9 272.3C270.6 268.1 252 246.2 252 220.5C252 191.7 275.2 168.3 304 168L304 164C304 153 313 144 324 144z"/></svg>