<svg xmlns="http://www.w3.org/2000/svg" viewBox="0 0 640 640"><!--! Font Awesome Pro 7.2.0 by @fontawesome - https://fontawesome.com License - https://fontawesome.com/license (Commercial License) Copyright 2026 Fonticons, Inc. --><path fill="currentColor" d="M160 96C124.7 96 96 124.7 96 160L96 240L544 240L544 160C544 124.7 515.3 96 480 96L160 96zM544 288L96 288L96 480C96 515.3 124.7 544 160 544L480 544C515.3 544 544 515.3 544 480L544 288zM216 344L424 344C437.3 344 448 354.7 448 368C448 381.3 437.3 392 424 392L216 392C202.7 392 192 381.3 192 368C192 354.7 202.7 344 216 344zM216 440L424 440C437.3 440 448 450.7 448 464C448 477.3 437.3 488 424 488L216 488C202.7 488 192 477.3 192 464C192 450.7 202.7 440 216 440zM385.2 153.9C387.7 147.9 393.5 144 400 144L464 144C470.5 144 476.3 147.9 478.8 153.9C481.3 159.9 479.9 166.8 475.3 171.3L443.3 203.3C437.1 209.5 426.9 209.5 420.7 203.3L388.7 171.3C384.1 166.7 382.8 159.8 385.2 153.9z"/></svg>