<svg xmlns="http://www.w3.org/2000/svg" viewBox="0 0 640 640"><!--! Font Awesome Pro 7.2.0 by @fontawesome - https://fontawesome.com License - https://fontawesome.com/license (Commercial License) Copyright 2026 Fonticons, Inc. --><path fill="currentColor" d="M128 252.6C128 148.4 214 64 320 64C426 64 512 148.4 512 252.6C512 371.9 391.8 514.9 341.6 569.4C329.8 582.2 310.1 582.2 298.3 569.4C248.1 514.9 127.9 371.9 127.9 252.6zM387.9 188.1C378.5 178.7 363.3 178.7 354 188.1L320.1 222L286.2 188.1C276.8 178.7 261.6 178.7 252.3 188.1C243 197.5 242.9 212.7 252.3 222L286.2 255.9L252.3 289.8C242.9 299.2 242.9 314.4 252.3 323.7C261.7 333 276.9 333.1 286.2 323.7L320.1 289.8L354 323.7C363.4 333.1 378.6 333.1 387.9 323.7C397.2 314.3 397.3 299.1 387.9 289.8L354 255.9L387.9 222C397.3 212.6 397.3 197.4 387.9 188.1z"/></svg>