<svg xmlns="http://www.w3.org/2000/svg" viewBox="0 0 640 640"><!--! Font Awesome Pro 7.2.0 by @fontawesome - https://fontawesome.com License - https://fontawesome.com/license (Commercial License) Copyright 2026 Fonticons, Inc. --><path fill="currentColor" d="M128 64C92.7 64 64 92.7 64 128L64 512C64 547.3 92.7 576 128 576L308 576C285.3 544.5 272 505.8 272 464C272 363.4 349.4 280.8 448 272.7L448 128C448 92.7 419.3 64 384 64L128 64zM160 216C160 202.7 170.7 192 184 192L328 192C341.3 192 352 202.7 352 216C352 229.3 341.3 240 328 240L184 240C170.7 240 160 229.3 160 216zM160 312C160 298.7 170.7 288 184 288L248 288C261.3 288 272 298.7 272 312C272 325.3 261.3 336 248 336L184 336C170.7 336 160 325.3 160 312zM160 408C160 394.7 170.7 384 184 384L216 384C229.3 384 240 394.7 240 408C240 421.3 229.3 432 216 432L184 432C170.7 432 160 421.3 160 408zM608 464C608 384.5 543.5 320 464 320C384.5 320 320 384.5 320 464C320 543.5 384.5 608 464 608C543.5 608 608 543.5 608 464zM521.4 403.1C528.5 408.3 530.1 418.3 524.9 425.4L460.9 513.4C458.1 517.2 453.9 519.6 449.2 519.9C444.5 520.2 439.9 518.6 436.6 515.3L396.6 475.3C390.4 469.1 390.4 458.9 396.6 452.7C402.8 446.5 413 446.5 419.2 452.7L446 479.5L499 406.6C504.2 399.5 514.2 397.9 521.4 403.1z"/></svg>