<svg xmlns="http://www.w3.org/2000/svg" viewBox="0 0 640 640"><!--! Font Awesome Pro 7.2.0 by @fontawesome - https://fontawesome.com License - https://fontawesome.com/license (Commercial License) Copyright 2026 Fonticons, Inc. --><path fill="currentColor" d="M416 104C416 64.2 383.8 32 344 32L104 32C64.2 32 32 64.2 32 104L32 296C32 335.8 64.2 368 104 368L128 368L128 432C128 440.8 135.2 448 144 448L145.8 448C149.8 448 153.6 446.5 156.6 443.8L240 368L344 368C383.8 368 416 335.8 416 296L416 104zM224 447.4L224 456C224 495.8 256.2 528 296 528L400 528L483.4 603.8C486.3 606.5 490.2 608 494.2 608L496 608C504.8 608 512 600.8 512 592L512 528L536 528C575.8 528 608 495.8 608 456L608 264C608 224.2 575.8 192 536 192L464 192L464 296C464 362.3 410.3 416 344 416L258.6 416L224 447.4zM224 140C212.5 140 202.7 147.4 199.2 157.8C195.7 168.3 184.4 173.9 173.9 170.4C163.4 166.9 157.8 155.6 161.3 145.1C170.1 118.9 194.8 99.9 224 99.9C260.5 99.9 290.1 129.5 290.1 166C290.1 205.2 260.1 221.7 243.6 227.6C241.8 236.9 233.7 243.8 224 243.8C213 243.8 204 234.8 204 223.8C204 206.7 216.4 194.5 229 190.3C234.3 188.5 239.8 185.8 243.8 181.8C247.3 178.4 250.1 173.7 250.1 165.9C250.1 151.5 238.4 139.8 224 139.8zM200 288C200 274.7 210.7 264 224 264C237.3 264 248 274.7 248 288C248 301.3 237.3 312 224 312C210.7 312 200 301.3 200 288z"/></svg>