<svg xmlns="http://www.w3.org/2000/svg" viewBox="0 0 640 640"><!--! Font Awesome Pro 7.2.0 by @fontawesome - https://fontawesome.com License - https://fontawesome.com/license (Commercial License) Copyright 2026 Fonticons, Inc. --><path fill="currentColor" d="M64 192L64 416C64 469 107 512 160 512L192 512L192 584C192 597.3 202.7 608 216 608C221.2 608 226.2 606.3 230.4 603.2L345.6 516.8C349.8 513.7 354.8 512 360 512L480 512C533 512 576 469 576 416L576 192C576 139 533 96 480 96L160 96C107 96 64 139 64 192zM320 232C303.9 232 290.8 245.1 290.8 261.2C290.8 274.5 280.1 285.2 266.8 285.2C253.5 285.2 242.8 274.5 242.8 261.2C242.8 218.6 277.4 184 320 184C362.6 184 397.2 218.6 397.2 261.2C397.2 306.7 362.7 325.9 343.5 333C341.2 343.8 331.6 352 320 352C306.7 352 296 341.3 296 328C296 307.8 310.6 293.4 325.5 288.5C331.5 286.5 337.8 283.4 342.3 279C346.2 275.2 349.2 270 349.2 261.3C349.2 245.2 336.1 232.1 320 232.1zM292 400C292 384.5 304.5 372 320 372C335.5 372 348 384.5 348 400C348 415.5 335.5 428 320 428C304.5 428 292 415.5 292 400z"/></svg>