<svg xmlns="http://www.w3.org/2000/svg" viewBox="0 0 640 640"><!--! Font Awesome Pro 7.2.0 by @fontawesome - https://fontawesome.com License - https://fontawesome.com/license (Commercial License) Copyright 2026 Fonticons, Inc. --><path fill="currentColor" d="M64 192L64 416C64 469 107 512 160 512L192 512L192 584C192 597.3 202.7 608 216 608C221.2 608 226.2 606.3 230.4 603.2L345.6 516.8C349.8 513.7 354.8 512 360 512L480 512C533 512 576 469 576 416L576 192C576 139 533 96 480 96L160 96C107 96 64 139 64 192zM208.4 398.3L220.7 348.9C222.8 340.5 227.2 332.7 233.3 326.6L354.7 205.3C363.2 196.8 374.7 192 386.7 192C411.7 192 432 212.3 432 237.3C432 249.3 427.2 260.8 418.7 269.3L297.4 390.6C291.2 396.8 283.5 401.1 275.1 403.2L225.7 415.5C224.6 415.8 223.4 415.9 222.2 415.9C214.3 415.9 208 409.5 208 401.7C208 400.5 208.1 399.4 208.4 398.2z"/></svg>