<svg xmlns="http://www.w3.org/2000/svg" viewBox="0 0 640 640"><!--! Font Awesome Pro 7.2.0 by @fontawesome - https://fontawesome.com License - https://fontawesome.com/license (Commercial License) Copyright 2026 Fonticons, Inc. --><path fill="currentColor" d="M240 64C209.1 64 184 89.1 184 120L184 144C139.8 144 104 179.8 104 224C104 239 108.1 253 115.2 264.9C89.5 278.2 72 305 72 336C72 362.2 84.6 385.4 104 400C94 413.4 88 430 88 448C88 492.2 123.8 528 168 528C168.7 528 169.3 528 170 528C177.1 555.6 202.2 576 232 576L264 576C281.7 576 296 561.7 296 544L296 531.7C291.1 516.6 288 499.3 288 480C288 462.5 290.8 445.7 296 429.9L296 96C296 78.3 281.7 64 264 64L240 64zM529.3 256C533.6 246.2 536 235.4 536 224C536 179.8 500.2 144 456 144L456 120C456 89.1 430.9 64 400 64L376 64C358.3 64 344 78.3 344 96L344 358.4C372 334.5 408.3 320 448 320L464 320C464 294.1 479.6 270.8 503.5 260.9C511.9 257.4 520.6 255.9 529.3 256zM635.3 404.7L539.3 308.7C529.4 298.8 512 306 512 320L512 368L448 368C386.1 368 336 418.1 336 480C336 534.3 370.6 565.6 381 573.8C388.6 579.8 400 573 400 563.7L400 528C400 492.7 428.7 464 464 464L512 464L512 512C512 526 529.4 533.2 539.3 523.3L635.3 427.3C641.5 421.1 641.5 410.9 635.3 404.7z"/></svg>