<svg xmlns="http://www.w3.org/2000/svg" viewBox="0 0 640 640"><!--! Font Awesome Pro 7.2.0 by @fontawesome - https://fontawesome.com License - https://fontawesome.com/license (Commercial License) Copyright 2026 Fonticons, Inc. --><path fill="currentColor" d="M39 39.1C47.8 30.3 61.7 29.8 71.1 37.4L72.9 39.1L160 126.2C161 91.7 189.3 64 224 64L416 64C451.3 64 480 92.7 480 128L480 446.2L601 567.2L602.7 569C610.4 578.4 609.8 592.3 601 601.1C592.2 609.9 578.3 610.4 568.9 602.8L567 601.1L39 73.1L37.4 71.2C29.7 61.8 30.2 47.9 39 39.1zM458.2 560C446.9 569.9 432.2 576 416 576L224 576C188.7 576 160 547.3 160 512L160 261.8L458.2 560zM280 480C266.7 480 256 490.7 256 504C256 517.3 266.7 528 280 528L358.3 528L310.3 480L280 480zM119.4 221.2C118.4 225.5 116.3 229.6 113 233L82 264L107.4 289.4L110.3 292.6C116.6 300.3 120.1 310 120.1 320C120.1 331.5 115.5 342.5 107.4 350.6L82 376L113 407L114.7 408.8C122.4 418.2 121.8 432.1 113 440.9C104.2 449.7 90.3 450.2 80.9 442.6L79 441L44.7 406.6C37.6 399.5 33.2 390.2 32.2 380.3L32 376L32.2 371.7C33.2 361.8 37.6 352.5 44.7 345.4L70.1 320L44.7 294.6C37.6 287.5 33.2 278.2 32.2 268.3L32 264L32.2 259.7C33.2 249.8 37.6 240.5 44.7 233.4L79 199L80.8 197.4C83.8 195 87.2 193.4 90.8 192.6L119.4 221.2zM527 199C535.8 190.2 549.7 189.7 559.1 197.3L560.9 199L595.2 233.3C602.3 240.4 606.7 249.7 607.7 259.6L607.9 263.9L607.7 268.2C606.7 278.1 602.3 287.4 595.2 294.5L569.8 319.9L595.2 345.3C602.3 352.4 606.7 361.7 607.7 371.6L607.9 375.9L607.7 380.2C606.7 390.1 602.3 399.4 595.2 406.5L560.9 440.8L559.1 442.5C549.7 450.2 535.8 449.6 527 440.8C518.2 432 517.7 418.1 525.3 408.7L527 406.9L558 375.9L532.6 350.5C524.5 342.4 519.9 331.4 519.9 319.9C519.9 309.9 523.4 300.2 529.7 292.5L532.6 289.3L558 263.9L527 232.9C517.6 223.5 517.6 208.3 527 199z"/></svg>