<svg xmlns="http://www.w3.org/2000/svg" viewBox="0 0 640 640"><!--! Font Awesome Pro 7.2.0 by @fontawesome - https://fontawesome.com License - https://fontawesome.com/license (Commercial License) Copyright 2026 Fonticons, Inc. --><path fill="currentColor" d="M555.3 403.3C549.1 397.1 538.9 397.1 532.7 403.3L484.7 451.3C481.7 454.3 480 458.4 480 462.6L480 464C480 472.8 487.2 480 496 480L519.5 480C515.5 516 485 544 448 544C429.7 544 413 537.1 400.2 525.8L366.1 559.8C387.5 579.8 416.3 592 447.9 592C511.5 592 563.5 542.5 567.6 480L591.9 480C600.7 480 607.9 472.8 607.9 464L607.9 462.6C607.9 458.4 606.2 454.3 603.2 451.3L555.2 403.3zM424.4 78.3C399.3 57.8 362.2 59.3 338.7 82.7L82.7 338.7L78.3 343.5C57.8 368.6 59.3 405.7 82.7 429.2L210.7 557.2C234.1 580.6 271.2 582.1 296.4 561.6L301.2 557.2L557.2 301.2C582.2 276.2 582.2 235.7 557.2 210.7L429.2 82.7L424.4 78.3zM167.1 391C175.9 382.2 189.8 381.7 199.2 389.3L201 391L249 439C258.4 448.4 258.4 463.6 249 472.9C239.6 482.3 224.4 482.3 215 472.9L167 424.9L165.3 423.1C157.6 413.7 158.2 399.8 167 391zM192 48C128.4 48 76.4 97.5 72.3 160L48 160C39.2 160 32 167.2 32 176L32 177.4C32 181.6 33.7 185.7 36.7 188.7L84.7 236.7C90.9 242.9 101.1 242.9 107.3 236.7L155.3 188.7C158.3 185.7 160 181.6 160 177.4L160 176C160 167.2 152.8 160 144 160L120.5 160C124.5 124 155 96 192 96C210.3 96 227 102.9 239.8 114.2L273.9 80.2C252.4 60.3 223.6 48 192 48z"/></svg>