<svg xmlns="http://www.w3.org/2000/svg" viewBox="0 0 640 640"><!--! Font Awesome Pro 7.2.0 by @fontawesome - https://fontawesome.com License - https://fontawesome.com/license (Commercial License) Copyright 2026 Fonticons, Inc. --><path fill="currentColor" d="M256 96C269.7 96 282.4 103.5 289 115.6L491.5 488.6C497.8 500.2 497.5 514.3 490.7 525.7C483.9 537 471.7 544 458.5 544L53.5 544C40.3 544 28 537 21.3 525.7C14.6 514.4 14.3 500.2 20.6 488.6L223.1 115.6L225.9 111.3C232.8 101.8 244 96 256 96zM416 160C427.7 160 438.4 166.4 444.1 176.6L619.6 496.6L621.4 500.4C624.9 509.5 624.1 519.8 619.1 528.3C613.3 538 602.9 544 591.6 544L535.4 544C547.4 519.3 547 490.2 533.7 465.8L533.7 465.8L382.3 187L388 176.8L390.3 173.1C396.3 165 405.8 160.1 416 160.1zM178.7 331.5L200.5 353.2C206.4 359 215.8 359 221.7 353.2L262.4 312.8C268 307.2 275.6 304.1 283.6 304.1L318.6 304.1L256.2 189.1L178.9 331.6z"/></svg>