<svg xmlns="http://www.w3.org/2000/svg" viewBox="0 0 640 640"><!--! Font Awesome Pro 7.2.0 by @fontawesome - https://fontawesome.com License - https://fontawesome.com/license (Commercial License) Copyright 2026 Fonticons, Inc. --><path fill="currentColor" d="M499.7 70.8C507.5 76.8 512 86.1 512 96L512 192C512 206.7 502 219.5 487.8 223L384 249L384 464C384 517 333.9 560 272 560C210.1 560 160 517 160 464C160 411 210.1 368 272 368C289.2 368 305.5 371.3 320 377.2L320 128C320 113.3 330 100.5 344.2 97L472.2 65C481.8 62.6 491.9 64.8 499.7 70.8z"/></svg>