<svg xmlns="http://www.w3.org/2000/svg" viewBox="0 0 640 640"><!--! Font Awesome Pro 7.2.0 by @fontawesome - https://fontawesome.com License - https://fontawesome.com/license (Commercial License) Copyright 2026 Fonticons, Inc. --><path fill="currentColor" d="M73 39.1C63.6 29.7 48.4 29.7 39.1 39.1C29.8 48.5 29.7 63.7 39 73.1L567 601.1C576.4 610.5 591.6 610.5 600.9 601.1C610.2 591.7 610.3 576.5 600.9 567.2L538.8 505.1C542.1 497.4 543.9 488.9 543.9 480L543.9 160C543.9 124.7 515.2 96 479.9 96L160 96C151.1 96 142.6 97.8 134.9 101.1L72.9 39.1zM194.3 160.4C196.2 160.1 198.1 160 200 160L232 160C245.3 160 256 170.7 256 184C256 194.3 249.5 203.1 240.4 206.5L194.3 160.4zM296 262.2L296 200C296 177.9 313.9 160 336 160L440 160C462.1 160 480 177.9 480 200L480 440C480 442 479.9 443.9 479.6 445.7L432 398.1L432 207.9L344 207.9L344 310.1L296 262.1zM208 432L330 432L208 310L208 432zM160 440L160 262L96 198L96 480C96 515.3 124.7 544 160 544L442 544L378 480L200 480C177.9 480 160 462.1 160 440z"/></svg>