<svg xmlns="http://www.w3.org/2000/svg" viewBox="0 0 640 640"><!--! Font Awesome Pro 7.2.0 by @fontawesome - https://fontawesome.com License - https://fontawesome.com/license (Commercial License) Copyright 2026 Fonticons, Inc. --><path fill="currentColor" d="M160 416C160 451.3 188.7 480 224 480L405.5 480C422.5 480 438.8 473.3 450.8 461.3L557.3 354.7C569.3 342.7 576 326.4 576 309.4L576 128C576 92.7 547.3 64 512 64L224 64C188.7 64 160 92.7 160 128L160 416zM400 421.5L400 328C400 314.7 410.7 304 424 304L517.5 304L400 421.5zM112 184C112 170.7 101.3 160 88 160C74.7 160 64 170.7 64 184L64 512C64 547.3 92.7 576 128 576L392 576C405.3 576 416 565.3 416 552C416 538.7 405.3 528 392 528L128 528C119.2 528 112 520.8 112 512L112 184z"/></svg>