<svg xmlns="http://www.w3.org/2000/svg" viewBox="0 0 640 640"><!--! Font Awesome Pro 7.2.0 by @fontawesome - https://fontawesome.com License - https://fontawesome.com/license (Commercial License) Copyright 2026 Fonticons, Inc. --><path fill="currentColor" d="M96 64L544 64C561.7 64 576 78.3 576 96C576 113.7 561.7 128 544 128L96 128C78.3 128 64 113.7 64 96C64 78.3 78.3 64 96 64zM128 240C128 213.5 149.5 192 176 192L240 192C266.5 192 288 213.5 288 240L288 528C288 554.5 266.5 576 240 576L176 576C149.5 576 128 554.5 128 528L128 240zM352 240C352 213.5 373.5 192 400 192L464 192C490.5 192 512 213.5 512 240L512 400C512 426.5 490.5 448 464 448L400 448C373.5 448 352 426.5 352 400L352 240z"/></svg>