<svg xmlns="http://www.w3.org/2000/svg" viewBox="0 0 640 640"><!--! Font Awesome Pro 7.2.0 by @fontawesome - https://fontawesome.com License - https://fontawesome.com/license (Commercial License) Copyright 2026 Fonticons, Inc. --><path fill="currentColor" d="M2.7 117.1C13.8 105.6 59 64 128 64C194.9 64 239.4 103.1 252.2 116L306 90.7C343.3 73.1 384 64 425.2 64L616 64C629.3 64 640 74.7 640 88C640 101.3 629.3 112 616 112L425.2 112C391 112 357.3 119.5 326.4 134.1L191.9 197.4C189.1 283.3 118.6 352 32 352L16 352C7.2 352 0 344.8 0 336L0 320C0 258.6 34.5 205.4 85.2 178.5C40.4 166.8 11.3 139.8 2.7 130.9C.9 129 0 126.6 0 124C0 121.4 .9 119 2.7 117.1zM480 384C480 490 415.5 576 336 576C256.5 576 192 490 192 384C192 278 256.5 192 336 192C415.5 192 480 278 480 384zM465.7 535.8C494.9 495.3 512 441.8 512 384C512 324.7 494 269.8 463.4 229C452.9 215 440.7 202.5 427.2 192.1C475.4 193.7 528.5 217.9 571.4 262.4C646.4 340.2 661.6 450.5 605.3 508.8C571.2 544.2 518.5 552.3 465.7 535.8z"/></svg>