<svg xmlns="http://www.w3.org/2000/svg" viewBox="0 0 640 640"><!--! Font Awesome Pro 7.2.0 by @fontawesome - https://fontawesome.com License - https://fontawesome.com/license (Commercial License) Copyright 2026 Fonticons, Inc. --><path fill="currentColor" d="M160 128L480 128C497.7 128 512 113.7 512 96C512 78.3 497.7 64 480 64L160 64C142.3 64 128 78.3 128 96C128 113.7 142.3 128 160 128zM320 192C214 192 128 278 128 384C128 490 214 576 320 576C426 576 512 490 512 384C512 278 426 192 320 192zM448 384C448 454.7 390.7 512 320 512C249.3 512 192 454.7 192 384C192 313.3 249.3 256 320 256C390.7 256 448 313.3 448 384z"/></svg>