<svg xmlns="http://www.w3.org/2000/svg" viewBox="0 0 640 640"><!--! Font Awesome Pro 7.2.0 by @fontawesome - https://fontawesome.com License - https://fontawesome.com/license (Commercial License) Copyright 2026 Fonticons, Inc. --><path fill="currentColor" d="M320 576C461.4 576 576 461.4 576 320C576 178.6 461.4 64 320 64C178.6 64 64 178.6 64 320C64 461.4 178.6 576 320 576zM320 128C357.2 128 389.3 154.3 396.6 190.8L397.2 194C398.6 201.3 393.1 208 385.7 208L254.3 208C246.9 208 241.4 201.2 242.8 194L243.4 190.8C250.7 154.3 282.8 128 320 128zM230.1 249.9C237.9 257.7 237.9 270.4 230.1 278.2L198.1 310.2C190.3 318 177.6 318 169.8 310.2C162 302.4 162 289.7 169.8 281.9L201.8 249.9C209.6 242.1 222.3 242.1 230.1 249.9zM296 288C296 274.7 306.7 264 320 264C333.3 264 344 274.7 344 288C344 301.3 333.3 312 320 312C306.7 312 296 301.3 296 288zM416 424C429.3 424 440 434.7 440 448C440 461.3 429.3 472 416 472C402.7 472 392 461.3 392 448C392 434.7 402.7 424 416 424zM227.3 348.7C229.4 350.8 230.8 353.3 231.5 356C231.9 357.7 232.3 359.4 232.6 361.1C233.7 366.5 234.7 372.1 238.5 375.8L241.9 379.2C244.9 382.2 249 383.9 253.2 383.9L279.9 383.9C310.8 383.9 335.9 409 335.9 439.9C335.9 470.8 310.8 495.9 279.9 495.9C249 495.9 223.9 470.8 223.9 439.9L223.9 413.2C223.9 409 222.2 404.9 219.2 401.9L215.8 398.5C212 394.7 206.5 393.7 201.1 392.6C199.4 392.3 197.6 391.9 196 391.5C193.3 390.8 190.8 389.4 188.7 387.3C182.5 381.1 182.5 370.9 188.7 364.7L204.7 348.7C210.9 342.5 221.1 342.5 227.3 348.7zM455.8 248.2C460.3 243.7 467.7 243.7 472.2 248.2L475 251C488.4 264.4 496 282.6 496 301.6L496 306.4C496 325.1 487.5 342.8 472.9 354.5C462 363.2 448.4 368 434.4 368L430.3 368C410.9 368 392.3 360.3 378.5 346.6L376.1 344.2C371.6 339.7 371.6 332.3 376.1 327.8L455.7 248.2zM24 224C10.7 224 0 234.7 0 248L0 392C0 405.3 10.7 416 24 416C37.3 416 48 405.3 48 392L48 248C48 234.7 37.3 224 24 224zM640 248C640 234.7 629.3 224 616 224C602.7 224 592 234.7 592 248L592 392C592 405.3 602.7 416 616 416C629.3 416 640 405.3 640 392L640 248z"/></svg>