<svg xmlns="http://www.w3.org/2000/svg" viewBox="0 0 640 640"><!--! Font Awesome Pro 7.2.0 by @fontawesome - https://fontawesome.com License - https://fontawesome.com/license (Commercial License) Copyright 2026 Fonticons, Inc. --><path fill="currentColor" d="M64 160C64 124.7 92.7 96 128 96L448 96C483.3 96 512 124.7 512 160L512 236.2C500 236.5 488.2 240.1 477.9 247.2C470 239.3 462 231.6 453.7 224.1C451.9 222.5 450 220.9 448 219.6L448 192C448 174.3 433.7 160 416 160L160 160C142.3 160 128 174.3 128 192L128 256C128 273.7 142.3 288 160 288L309.3 288C298.2 302 288.2 316.2 279.5 330.3C273.5 340 267.7 350.3 262.6 360.9C260.5 360.3 258.3 360 256 360C242.7 360 232 370.7 232 384C232 393.5 237.6 401.8 245.6 405.7C242 419.2 240 432.7 240 446.1C240 481.1 248.7 514.5 264.1 544L128 544C92.7 544 64 515.3 64 480L64 160zM184 384C184 370.7 173.3 360 160 360C146.7 360 136 370.7 136 384C136 397.3 146.7 408 160 408C173.3 408 184 397.3 184 384zM473.7 304.1L486 290.3C491.4 284.2 499.3 281.5 506.9 281.4C514.1 281.4 521.2 284 526.8 289.2C546.5 307.5 566.6 332.4 581.8 359.8C596.9 387 608 417.9 608 447.9C608 536.6 536.7 607.7 448 607.7C358.4 607.7 288 536.4 288 447.9C288 410.6 304 374.5 324.8 343.4C345.7 312.1 372.3 284.4 395.7 263.2C401.4 258 408.8 255.5 416 255.7C423.2 255.9 429.4 258.9 434.8 263.2C449.2 274.6 473.7 303.9 473.7 303.9zM512 496C512 459.5 475 423 457.2 407.6C451.8 402.9 444.1 402.9 438.7 407.6C421 423 383.9 459.5 383.9 496C383.9 531.3 412.6 560 447.9 560C483.2 560 511.9 531.3 511.9 496z"/></svg>