<svg xmlns="http://www.w3.org/2000/svg" viewBox="0 0 640 640"><!--! Font Awesome Pro 7.2.0 by @fontawesome - https://fontawesome.com License - https://fontawesome.com/license (Commercial License) Copyright 2026 Fonticons, Inc. --><path fill="currentColor" d="M320.5 288C361.8 288 454.9 323.9 507.3 465.2C510.9 474.9 512.5 485.3 512.5 495.7L512.5 497.3C512.5 523.1 491.6 544 465.8 544C454.3 544 442.9 542.6 431.8 539.8L343.8 517.8C328.5 514 312.5 514 297.2 517.8L209.2 539.8C198.1 542.6 186.7 544 175.2 544C149.4 544 128.4 523.1 128.4 497.3L128.4 495.7C128.4 485.3 130 474.9 133.6 465.2C186 323.9 279.1 288 320.4 288zM88.5 176C101.8 176 112.5 186.7 112.5 200L112.5 224.4C131.8 226.7 152.1 240.6 164.9 262.6C183.8 295 179.2 332.7 154.7 346.8C130.2 360.9 95 345.9 76.2 313.5C68.2 299.8 64.5 285.3 64.5 272L64.5 200C64.5 186.7 75.2 176 88.5 176zM552.5 176C565.8 176 576.5 186.7 576.5 200L576.5 272C576.6 285.3 572.8 299.8 564.9 313.4C546 345.8 510.9 360.7 486.4 346.7C461.9 332.7 457.3 295 476.2 262.5C489 240.5 509.2 226.7 528.6 224.3L528.6 199.9C528.6 186.6 539.3 175.9 552.6 175.9zM200.5 48C213.7 48 224.5 58.8 224.5 72L224.5 96.3C254.3 93.3 286.1 118.3 299 156.8C313.3 199.7 298.7 243 266.4 253.6C234.1 264.2 196.3 238 182 195.2C178 183.3 176.3 171.3 176.6 160L176.5 72C176.5 58.8 187.2 48 200.5 48zM440.5 48C453.7 48 464.5 58.8 464.5 72L464.4 160C464.6 171.3 463 183.2 459 195.2C444.7 238.1 406.9 264.3 374.6 253.7C342.3 243.1 327.7 199.7 342 156.8C354.9 118.2 386.7 93.2 416.5 96.3L416.5 72C416.5 58.8 427.3 48 440.5 48z"/></svg>