<svg xmlns="http://www.w3.org/2000/svg" viewBox="0 0 640 640"><!--! Font Awesome Pro 7.2.0 by @fontawesome - https://fontawesome.com License - https://fontawesome.com/license (Commercial License) Copyright 2026 Fonticons, Inc. --><path fill="currentColor" d="M480 302.1L480 224L496 224L505.8 243.6C518.3 268.7 548 280 574.1 269.6C594.6 261.4 608 241.6 608 219.5L608 144C608 124.9 599.6 107.7 586.3 96L592 96C600.8 96 608 88.8 608 80C608 71.2 600.8 64 592 64L480 64C410.4 64 353.7 119.6 352 188.8L216.9 98.7C212 95.4 205.7 95.1 200.5 97.9C195.3 100.7 192 106.1 192 112C192 160.1 195.8 211.9 218 251.8C227.2 268.4 239.7 283.1 256.2 294.5C249 292 242.2 289.1 235.9 285.7C213.4 273.6 197.3 256.3 186 235.9C178.7 222.7 173.3 208.1 169.5 192.9C143.6 196.4 121.4 211.5 108.4 232.9C65.3 238.6 32.1 275.5 32.1 320.1L32.1 376.1C32.1 389.4 42.8 400.1 56.1 400.1C69.4 400.1 80.1 389.4 80.1 376.1L80.1 320.1C80.1 306.7 86.7 294.9 96.8 287.6C98.4 300.6 103.1 313 110.4 324L138.6 366.4C146.9 378.8 145 395.1 137.4 408C120.9 436 116.8 470.2 127.4 501.9L144.9 554.3C149.3 567.4 161.5 576.2 175.3 576.2L209 576.2C230.8 576.2 246.3 554.8 239.4 534.1L218.6 471.6C216.5 465.2 218.1 458.2 222.9 453.4L235.6 440.7C248.8 427.5 256.2 409.6 256.2 391C256.2 388.7 256.1 386.4 255.9 384.1L339.9 408.1C344 409.3 348.1 410.2 352.2 410.9L352 544C352 561.7 366.3 576 384 576L416 576C433.7 576 448 561.7 448 544L448 379.7C467.2 360.5 479.5 334 480 304L480 304L480 302.1zM528 128C536.8 128 544 135.2 544 144C544 152.8 536.8 160 528 160C519.2 160 512 152.8 512 144C512 135.2 519.2 128 528 128z"/></svg>