<svg xmlns="http://www.w3.org/2000/svg" viewBox="0 0 640 640"><!--! Font Awesome Pro 7.2.0 by @fontawesome - https://fontawesome.com License - https://fontawesome.com/license (Commercial License) Copyright 2026 Fonticons, Inc. --><path fill="currentColor" d="M288 32C318.9 32 344 57.1 344 88C344 118.9 318.9 144 288 144C257.1 144 232 118.9 232 88C232 57.1 257.1 32 288 32zM224 235.1C224 202.5 250.5 176 283.1 176C306.6 176 328.6 187.3 342.2 206.4L390.9 274.6C396.9 283 406.6 288 416.9 288L448 288C465.7 288 480 302.3 480 320C480 337.7 465.7 352 448 352L416.9 352C385.9 352 356.8 337 338.8 311.8L336 307.9L336 388L377.6 419.2C401.8 437.3 416 465.8 416 496L416 576C416 593.7 401.7 608 384 608C366.3 608 352 593.7 352 576L352 496C352 485.9 347.3 476.4 339.2 470.4L262.4 412.8C238.2 394.7 224 366.2 224 336L224 235.1zM224 443.3C227.1 446 230.3 448.7 233.6 451.2L288 492L288 576C288 593.7 273.7 608 256 608C238.3 608 224 593.7 224 576L224 443.3z"/></svg>