<svg xmlns="http://www.w3.org/2000/svg" viewBox="0 0 640 640"><!--! Font Awesome Pro 7.2.0 by @fontawesome - https://fontawesome.com License - https://fontawesome.com/license (Commercial License) Copyright 2026 Fonticons, Inc. --><path fill="currentColor" d="M248 88C248 57.1 222.9 32 192 32C161.1 32 136 57.1 136 88C136 118.9 161.1 144 192 144C222.9 144 248 118.9 248 88zM187.1 176C154.5 176 128 202.5 128 235.1L128 336C128 366.2 142.2 394.7 166.4 412.8L243.2 470.4C251.3 476.4 256 485.9 256 496L256 576C256 593.7 270.3 608 288 608C305.7 608 320 593.7 320 576L320 496C320 465.8 305.8 437.3 281.6 419.2L240 388L240 307.9L242.8 311.8C260.8 337 289.9 352 320.9 352L480 352C497.7 352 512 337.7 512 320L512 192C512 174.3 497.7 160 480 160L352 160C334.3 160 320 174.3 320 192L320 288C310 287.7 300.7 282.8 294.9 274.6L246.2 206.4C232.6 187.3 210.5 176 187.1 176zM128 576C128 593.7 142.3 608 160 608C177.7 608 192 593.7 192 576L192 492L137.6 451.2C134.3 448.7 131.1 446.1 128 443.3L128 576z"/></svg>