<svg xmlns="http://www.w3.org/2000/svg" viewBox="0 0 640 640"><!--! Font Awesome Pro 7.2.0 by @fontawesome - https://fontawesome.com License - https://fontawesome.com/license (Commercial License) Copyright 2026 Fonticons, Inc. --><path fill="currentColor" d="M360 136C360 105.1 334.9 80 304 80C273.1 80 248 105.1 248 136C248 166.9 273.1 192 304 192C334.9 192 360 166.9 360 136zM360 384L360 292C360 263.3 336.7 240 308 240C279.3 240 256 263.3 256 292L256 384C256 419.3 284.7 448 320 448L400 448C408.8 448 416 455.2 416 464L416 544C416 561.7 430.3 576 448 576L496 576C513.7 576 528 561.7 528 544C528 526.3 513.7 512 496 512L480 512L480 464C480 419.8 444.2 384 400 384L360 384zM208 256C208 238.3 193.7 224 176 224C158.3 224 144 238.3 144 256L144 432C144 502.7 201.3 560 272 560L336 560C353.7 560 368 545.7 368 528C368 510.3 353.7 496 336 496L272 496C236.7 496 208 467.3 208 432L208 256z"/></svg>