<svg xmlns="http://www.w3.org/2000/svg" viewBox="0 0 640 640"><!--! Font Awesome Pro 7.2.0 by @fontawesome - https://fontawesome.com License - https://fontawesome.com/license (Commercial License) Copyright 2026 Fonticons, Inc. --><path fill="currentColor" d="M320 192C355.3 192 384 163.3 384 128C384 92.7 355.3 64 320 64C284.7 64 256 92.7 256 128C256 163.3 284.7 192 320 192zM320 224C282.1 224 248.8 249.1 238.4 285.5L203.7 407.2C197.9 427.6 213.2 448 234.5 448L256.1 448L256.1 528C256.1 554.5 277.6 576 304.1 576L336.1 576C362.6 576 384.1 554.5 384.1 528L384.1 448L405.7 448C427 448 442.3 427.7 436.5 407.2L401.6 285.5C391.2 249.1 357.9 224 320 224zM96 112L64 112C46.3 112 32 126.3 32 144L32 176C32 252.7 77 318.9 142 349.7C113.9 373.2 96 408.5 96 448L96 464C96 481.7 110.3 496 128 496L160 496C174.6 496 188.6 493.6 201.7 489.1C166.9 473.5 146.1 433.8 157.5 394.1L192.3 272.4C200.2 244.7 216.5 221.2 238.1 204.4C224.1 189.4 214.2 170.6 210.1 149.6C178.2 126 138.7 112.1 96 112.1zM480 496L512 496C529.7 496 544 481.7 544 464L544 448C544 408.5 526.1 373.2 498 349.7C563 319 608 252.7 608 176L608 144C608 126.3 593.7 112 576 112L544 112C501.3 112 461.8 126 429.9 149.5C425.8 170.4 415.9 189.3 402 204.3C423.5 221.2 439.8 244.7 447.8 272.3L482.5 394C493.9 433.8 473.1 473.4 438.3 489C451.4 493.5 465.4 495.9 480 495.9z"/></svg>