<svg xmlns="http://www.w3.org/2000/svg" viewBox="0 0 640 640"><!--! Font Awesome Pro 7.2.0 by @fontawesome - https://fontawesome.com License - https://fontawesome.com/license (Commercial License) Copyright 2026 Fonticons, Inc. --><path fill="currentColor" d="M480 56L480 264C480 277.3 469.3 288 456 288C442.7 288 432 277.3 432 264L432 56C432 42.7 442.7 32 456 32C469.3 32 480 42.7 480 56zM560 88L560 232C560 245.3 549.3 256 536 256C522.7 256 512 245.3 512 232L512 88C512 74.7 522.7 64 536 64C549.3 64 560 74.7 560 88zM400 104L400 216C400 229.3 389.3 240 376 240C362.7 240 352 229.3 352 216L352 104C352 90.7 362.7 80 376 80C389.3 80 400 90.7 400 104zM640 136L640 184C640 197.3 629.3 208 616 208C602.7 208 592 197.3 592 184L592 136C592 122.7 602.7 112 616 112C629.3 112 640 122.7 640 136zM176.1 65.4C195.8 60 216.4 70.1 224.2 88.9L264.7 186.2C271.6 202.7 266.8 221.8 252.9 233.2L208.8 269.3C241.3 340.9 297.8 399.3 368.1 434.2L406.7 387C418 373.1 437.1 368.4 453.7 375.2L551 415.8C569.8 423.6 579.9 444.2 574.5 463.9L573 469.4C555.4 534 492.8 589.2 416.6 573.1C241.6 536 103.9 398.3 66.8 223.3C50.6 147 105.9 84.5 170.5 66.9L176 65.4z"/></svg>