<svg xmlns="http://www.w3.org/2000/svg" viewBox="0 0 640 640"><!--! Font Awesome Pro 7.2.0 by @fontawesome - https://fontawesome.com License - https://fontawesome.com/license (Commercial License) Copyright 2026 Fonticons, Inc. --><path fill="currentColor" d="M112 96C85.5 96 64 117.5 64 144L64 496C64 522.5 85.5 544 112 544L128 544C154.5 544 176 522.5 176 496L176 144C176 117.5 154.5 96 128 96L112 96zM288 96C252.7 96 224 124.7 224 160L224 480C224 515.3 252.7 544 288 544L512 544C547.3 544 576 515.3 576 480L576 160C576 124.7 547.3 96 512 96L288 96zM312 408C325.3 408 336 418.7 336 432C336 445.3 325.3 456 312 456C298.7 456 288 445.3 288 432C288 418.7 298.7 408 312 408zM376 432C376 418.7 386.7 408 400 408C413.3 408 424 418.7 424 432C424 445.3 413.3 456 400 456C386.7 456 376 445.3 376 432zM488 408C501.3 408 512 418.7 512 432C512 445.3 501.3 456 488 456C474.7 456 464 445.3 464 432C464 418.7 474.7 408 488 408zM288 195.2C288 175.8 303.8 160 323.2 160L476.8 160C496.2 160 512 175.8 512 195.2L512 284.8C512 304.2 496.2 320 476.8 320L323.2 320C303.8 320 288 304.2 288 284.8L288 195.2z"/></svg>