<svg xmlns="http://www.w3.org/2000/svg" viewBox="0 0 640 640"><!--! Font Awesome Pro 7.2.0 by @fontawesome - https://fontawesome.com License - https://fontawesome.com/license (Commercial License) Copyright 2026 Fonticons, Inc. --><path fill="currentColor" d="M448 288C501 288 544 245 544 192C544 139 501 96 448 96C395 96 352 139 352 192C352 245 395 288 448 288zM470.1 542.4C485 547.2 500.8 540.6 508 527.4C515.4 513.9 512.2 496.6 499.6 486.8L253.6 278.5C213 244.4 152.4 249.7 118.4 290.3C84.4 330.9 89.7 391.5 130.3 425.6C139.5 433.3 150.2 439.4 162.3 443.3L470.1 542.4zM160 352C160 334.3 174.3 320 192 320C209.7 320 224 334.3 224 352C224 369.7 209.7 384 192 384C174.3 384 160 369.7 160 352z"/></svg>