<svg xmlns="http://www.w3.org/2000/svg" viewBox="0 0 640 640"><!--! Font Awesome Pro 7.2.0 by @fontawesome - https://fontawesome.com License - https://fontawesome.com/license (Commercial License) Copyright 2026 Fonticons, Inc. --><path fill="currentColor" d="M263 376L272 448L256 448C238.3 448 224 462.3 224 480C224 497.7 238.3 512 256 512L280 512L286.2 562C287.2 570 294 576 302.1 576L337.9 576C346 576 352.8 570 353.8 562L360 512L388 512L388 520C388 531 397 540 408 540C419 540 428 531 428 520L428 440C428 429 419 420 408 420C397 420 388 429 388 440L388 448L368 448L377 376L552 376C582.9 376 608 350.9 608 320C608 289.1 582.9 264 552 264L377 264L368 192L388 192L388 200C388 211 397 220 408 220C419 220 428 211 428 200L428 120C428 109 419 100 408 100C397 100 388 109 388 120L388 128L360 128L353.8 78C352.8 70 346 64 337.9 64L302.1 64C294 64 287.2 70 286.2 78L280 128L256 128C238.3 128 224 142.3 224 160C224 177.7 238.3 192 256 192L272 192L263 264L206.3 264C196.8 264 187.2 264.7 177.8 266.1L158.5 269L132.4 216.8C129.7 211.4 124.1 208 118.1 208L99.9 208C92.8 208 86.6 212.6 84.6 219.4L65.5 283L63.7 283.3C45.5 286 32 301.6 32 320C32 338.4 45.5 354 63.6 356.7L65.4 357L84.5 420.6C86.5 427.4 92.8 432 99.8 432L118 432C124.1 432 129.6 428.6 132.3 423.2L158.4 371L177.7 373.9C187.1 375.3 196.7 376 206.2 376L262.9 376z"/></svg>