<svg xmlns="http://www.w3.org/2000/svg" viewBox="0 0 640 640"><!--! Font Awesome Pro 7.2.0 by @fontawesome - https://fontawesome.com License - https://fontawesome.com/license (Commercial License) Copyright 2026 Fonticons, Inc. --><path fill="currentColor" d="M400 96C420.5 96 439.9 105.2 452.8 121.1L481.7 156.7L450.2 149.4C430 144.7 410.5 153.6 400 169.3C389.5 153.6 369.9 144.7 349.8 149.4L318.3 156.7L347.2 121.1C360.1 105.2 379.5 96 400 96zM360.7 269.3C355.1 265.6 349.3 262.3 343.2 259.3L383.1 237.5C390 233.7 395.7 228.4 399.9 222.2C404.1 228.5 409.8 233.8 416.7 237.5L456.6 259.3C450.6 262.2 444.7 265.5 439.1 269.3L424 279.4C423.7 266.4 413.1 256 400 256C386.9 256 376.3 266.4 376 279.4L360.7 269.2zM548.2 187.9L527.9 162.9L541.7 121.4C543.2 117 543.9 112.3 543.9 107.6C543.9 83.6 524.4 64.1 500.4 64.1L499.1 64.1C495.8 64.1 492.6 64.5 489.4 65.2L445.3 75C431.5 67.8 416 64 400 64C384 64 368.5 67.8 354.7 74.9L310.6 65.1C307.4 64.4 304.1 64 300.9 64L299.6 64C275.6 64 256.1 83.5 256.1 107.5C256.1 112.2 256.9 116.8 258.3 121.3L272.1 162.8L251.8 187.8C244.2 197.1 240.1 208.8 240.1 220.8C240.1 243.9 255.3 264.3 277.4 271L313.2 281.7C323.8 284.9 333.8 289.6 343 295.7L361.8 308.3C373.1 316 386.4 320 400 320C413.6 320 426.9 316 438.2 308.4L457 295.9C466.2 289.8 476.2 285 486.8 281.9L522.6 271.2C544.8 264.6 559.9 244.2 559.9 221C559.9 209 555.8 197.3 548.2 188zM352 176C360.8 176 368 183.2 368 192C368 200.8 360.8 208 352 208C343.2 208 336 200.8 336 192C336 183.2 343.2 176 352 176zM432 192C432 183.2 439.2 176 448 176C456.8 176 464 183.2 464 192C464 200.8 456.8 208 448 208C439.2 208 432 200.8 432 192zM249.1 293.3C195.3 330.9 160 393.3 160 464C160 472.8 152.8 480 144 480C135.2 480 128 472.8 128 464C128 447.6 129.7 431.5 132.8 416L64 416L64 464C64 525.9 114.1 576 176 576L384 576L384 560C384 533.5 362.5 512 336 512L304 512C295.2 512 288 504.8 288 496C288 487.2 295.2 480 304 480L336 480C380.2 480 416 515.8 416 560L416 576L544 576L544 559.6C543.8 533.3 522.4 512 496 512L480 512L480 440L473.6 444.8C466.5 450.1 456.5 448.7 451.2 441.6C445.9 434.5 447.3 424.5 454.4 419.2L492.5 390.7C504.8 381.5 512 367 512 351.6C512 336.7 505.2 322.6 493.5 313.3C486.9 315.5 480.6 318.6 474.8 322.5L456 335.1C439.4 346.1 420 352 400.1 352C380.2 352 360.7 346.1 344.2 335.1L325.4 322.5C318.8 318.1 311.7 314.8 304.1 312.5L268.3 301.8C261.5 299.8 255.1 296.9 249.2 293.4zM64 192L192 192L192 160C192 124.7 163.3 96 128 96C92.7 96 64 124.7 64 160L64 192zM64 224L64 288L192 288L192 224L64 224zM64 384L141.7 384C149.9 360.8 161.5 339.3 176 320L64 320L64 384zM544 360L543.7 359.1C543.7 359.5 543.6 359.9 543.6 360.4L544.1 360zM381.7 440.2C377.2 447.8 367.3 450.2 359.8 445.7L279.8 397.7C272.2 393.2 269.8 383.3 274.3 375.8C278.8 368.3 288.7 365.8 296.3 370.3L376.3 418.3C383.9 422.8 386.3 432.7 381.8 440.2z"/></svg>