<svg xmlns="http://www.w3.org/2000/svg" viewBox="0 0 640 640"><!--! Font Awesome Pro 7.2.0 by @fontawesome - https://fontawesome.com License - https://fontawesome.com/license (Commercial License) Copyright 2026 Fonticons, Inc. --><path fill="currentColor" d="M512 128C299.9 128 128 299.9 128 512C128 529.7 113.7 544 96 544C78.3 544 64 529.7 64 512C64 264.6 264.6 64 512 64C529.7 64 544 78.3 544 96C544 113.7 529.7 128 512 128zM512 256C370.6 256 256 370.6 256 512C256 529.7 241.7 544 224 544C206.3 544 192 529.7 192 512C192 335.3 335.3 192 512 192C529.7 192 544 206.3 544 224C544 241.7 529.7 256 512 256zM384 512C384 529.7 369.7 544 352 544C334.3 544 320 529.7 320 512C320 406 406 320 512 320C529.7 320 544 334.3 544 352C544 369.7 529.7 384 512 384C441.3 384 384 441.3 384 512z"/></svg>