<svg xmlns="http://www.w3.org/2000/svg" viewBox="0 0 640 640"><!--! Font Awesome Pro 7.2.0 by @fontawesome - https://fontawesome.com License - https://fontawesome.com/license (Commercial License) Copyright 2026 Fonticons, Inc. --><path fill="currentColor" d="M224 128L320 128L320 120C320 106.7 330.7 96 344 96C357.3 96 368 106.7 368 120L368 360C368 373.3 357.3 384 344 384C330.7 384 320 373.3 320 360L320 359.6L220.6 558.4C212.7 574.2 193.5 580.6 177.7 572.7L97.7 532.7C81.9 524.8 75.5 505.6 83.4 489.8L152.2 352.1L144 352.1C82.1 352 32 301.9 32 240C32 195.3 58.2 156.8 96 138.8L96 88.6C96 75 107 64 120.6 64C125.4 64 130.2 65.4 134.2 68.1L224 128zM424 128C437.3 128 448 138.7 448 152L448 208L508.9 208L586 177.1C590.9 175.1 596.5 175.7 600.9 178.7C605.3 181.7 607.9 186.6 607.9 191.9L607.9 287.9C607.9 293.2 605.3 298.2 600.9 301.1C596.5 304 590.9 304.7 586 302.7L508.9 271.8L448 271.8L448 327.8C448 341.1 437.3 351.8 424 351.8C410.7 351.8 400 341.1 400 327.8L400 151.8C400 138.5 410.7 127.8 424 127.8zM168 240C168 226.7 157.3 216 144 216C130.7 216 120 226.7 120 240C120 253.3 130.7 264 144 264C157.3 264 168 253.3 168 240zM240 264C253.3 264 264 253.3 264 240C264 226.7 253.3 216 240 216C226.7 216 216 226.7 216 240C216 253.3 226.7 264 240 264z"/></svg>