<svg xmlns="http://www.w3.org/2000/svg" viewBox="0 0 640 640"><!--! Font Awesome Pro 7.2.0 by @fontawesome - https://fontawesome.com License - https://fontawesome.com/license (Commercial License) Copyright 2026 Fonticons, Inc. --><path fill="currentColor" d="M433.7 337.4L508.6 412.3C520.8 424.5 525.5 442.3 521 458.9L494.8 554.8C488.3 578.5 458.7 586.4 441.3 569L376.9 504.6C376.9 504.6 376.8 504.5 376.8 504.5L371.3 499C343.2 470.9 297.6 470.9 269.5 499L263.8 504.7L199.4 569.1C182 586.5 152.4 578.6 145.9 554.9L119.7 458.9C115.2 442.3 119.9 424.5 132.1 412.3L207 337.4C167.3 190.4 241.5 106.1 303 60.3C313.4 52.6 327.5 52.6 337.8 60.3C399.3 106.1 473.5 190.4 433.8 337.4zM368.4 224C368.4 197.5 346.9 176 320.4 176C293.9 176 272.4 197.5 272.4 224C272.4 250.5 293.9 272 320.4 272C346.9 272 368.4 250.5 368.4 224z"/></svg>