<svg xmlns="http://www.w3.org/2000/svg" viewBox="0 0 640 640"><!--! Font Awesome Pro 7.2.0 by @fontawesome - https://fontawesome.com License - https://fontawesome.com/license (Commercial License) Copyright 2026 Fonticons, Inc. --><path fill="currentColor" d="M150.6 73.4C141.5 64.2 127.7 61.5 115.8 66.4C103.9 71.3 96 83.1 96 96L96 512C96 529.7 110.3 544 128 544L544 544C556.9 544 568.6 536.2 573.6 524.2C578.6 512.2 575.8 498.5 566.7 489.3L535.7 458.3L521.1 472.9C511.7 482.3 496.5 482.3 487.2 472.9C477.9 463.5 477.8 448.3 487.2 439L501.8 424.4L455.7 378.3L417.1 416.9C407.7 426.3 392.5 426.3 383.2 416.9C373.9 407.5 373.8 392.3 383.2 383L421.8 344.4L375.7 298.3L361.1 312.9C351.7 322.3 336.5 322.3 327.2 312.9C317.9 303.5 317.8 288.3 327.2 279L341.8 264.4L295.7 218.3L257.1 256.9C247.7 266.3 232.5 266.3 223.2 256.9C213.9 247.5 213.8 232.3 223.2 223L261.7 184.4L215.6 138.3L201 153C191.6 162.4 176.4 162.4 167.1 153C157.8 143.6 157.7 128.4 167 119L181.6 104.4L150.6 73.4zM224 327.8L312.2 416L224 416L224 327.8z"/></svg>