<svg xmlns="http://www.w3.org/2000/svg" viewBox="0 0 640 640"><!--! Font Awesome Pro 7.2.0 by @fontawesome - https://fontawesome.com License - https://fontawesome.com/license (Commercial License) Copyright 2026 Fonticons, Inc. --><path fill="currentColor" d="M246.7 240L171.4 370.1C169.2 373.9 168 378.3 168 382.7L168 385.3C168 397.8 178.1 407.9 190.6 407.9C196.6 407.9 202.4 405.5 206.6 401.3L319 289L311 281C301.6 271.6 301.6 256.4 311 247.1C320.4 237.8 335.6 237.7 344.9 247.1L352.9 255.1L367 241L359 233C349.6 223.6 349.6 208.4 359 199.1C368.4 189.8 383.6 189.7 392.9 199.1L400.9 207.1L415 193L407 185C397.6 175.6 397.6 160.4 407 151.1C416.4 141.8 431.6 141.7 440.9 151.1L448.9 159.1L493.2 114.8C505.2 102.8 521.5 96.1 538.5 96.1L568.8 96.1C583.8 96.1 598.3 101.3 609.8 110.9L634.1 131.2C637.8 134.3 640 138.9 640 143.8C640 152.8 632.7 160.1 623.7 160.1L559.5 160.1C549.7 160.1 540.5 164.6 534.4 172.2L288.6 482.6C257.9 521.4 211.2 544 161.8 544C72.4 544 0 471.6 0 382.2L0 379.1C0 366.4 1.5 353.7 4.4 341.3L28.2 240L24 240C10.7 240 0 229.3 0 216C0 202.7 10.7 192 24 192L264 192C277.3 192 288 202.7 288 216C288 229.3 277.3 240 264 240L246.7 240zM120 384C120 370.7 109.3 360 96 360C82.7 360 72 370.7 72 384C72 397.3 82.7 408 96 408C109.3 408 120 397.3 120 384zM128 312C141.3 312 152 301.3 152 288C152 274.7 141.3 264 128 264C114.7 264 104 274.7 104 288C104 301.3 114.7 312 128 312z"/></svg>