<svg xmlns="http://www.w3.org/2000/svg" viewBox="0 0 640 640"><!--! Font Awesome Pro 7.2.0 by @fontawesome - https://fontawesome.com License - https://fontawesome.com/license (Commercial License) Copyright 2026 Fonticons, Inc. --><path fill="currentColor" d="M432 144C432 161.2 428.1 177.5 421.2 192L512 192C517.9 192 523.3 195.2 526.1 200.5C528.9 205.8 528.6 212 525.3 216.9L517.7 228.3L537.6 243.2C541.6 246.2 544 251 544 256C544 261 541.6 265.8 537.6 268.8L517.7 283.7L525.3 295.1C528.6 300 528.9 306.3 526.1 311.5C523.3 316.7 517.9 320 512 320L439 320C428.9 320 421.3 329.2 423.3 339.1L443.8 441.7C447.8 461.5 432.6 480 412.4 480L351.9 480L351.9 576C351.9 593.7 337.6 608 319.9 608C302.2 608 287.9 593.7 287.9 576L287.9 480L227.4 480C207.2 480 192.1 461.5 196 441.7L216.5 339.1C218.5 329.2 210.9 320 200.8 320L127.8 320C121.9 320 116.5 316.8 113.7 311.5C110.9 306.2 111.2 300 114.5 295.1L122.1 283.7L102.2 268.8C98.4 265.8 96 261 96 256C96 251 98.4 246.2 102.4 243.2L122.3 228.3L114.7 216.9C111.4 212 111.1 205.7 113.9 200.5C116.7 195.3 122.1 192 128 192L218.8 192C211.9 177.5 208 161.2 208 144C208 82.1 258.1 32 320 32C381.9 32 432 82.1 432 144zM304 120C304 106.7 293.3 96 280 96C266.7 96 256 106.7 256 120C256 133.3 266.7 144 280 144C293.3 144 304 133.3 304 120zM360 160C373.3 160 384 149.3 384 136C384 122.7 373.3 112 360 112C346.7 112 336 122.7 336 136C336 149.3 346.7 160 360 160z"/></svg>