<svg xmlns="http://www.w3.org/2000/svg" viewBox="0 0 640 640"><!--! Font Awesome Pro 7.2.0 by @fontawesome - https://fontawesome.com License - https://fontawesome.com/license (Commercial License) Copyright 2026 Fonticons, Inc. --><path fill="currentColor" d="M286.2 81.9C305 63.2 335.3 63.2 354.1 81.9L400.2 128L464.2 128C490.7 128 512.2 149.5 512.2 176L512.2 240L557.8 285.6C576.5 304.3 576.5 334.7 557.8 353.5L512.2 399.1L512.2 464C512.2 490.5 490.7 512 464.2 512L399.3 512L354.2 557.1C335.5 575.8 305.1 575.8 286.3 557.1L241.2 512L176.3 512C149.8 512 128.3 490.5 128.3 464L128.3 399.1L82.7 353.5C64 334.8 64 304.4 82.7 285.6L128.3 240L128.3 176C128.3 149.5 149.8 128 176.3 128L240.3 128L286.4 81.9zM320.1 248C336.2 248 349.3 261.1 349.3 277.2C349.3 285.9 346.2 291.1 342.4 294.9C337.9 299.3 331.7 302.4 325.6 304.4C310.7 309.4 296.1 323.7 296.1 343.9C296.1 357.2 306.8 367.9 320.1 367.9C331.6 367.9 341.3 359.8 343.6 348.9C362.8 341.8 397.3 322.6 397.3 277.1C397.3 234.5 362.7 199.9 320.1 199.9C277.5 199.9 242.9 234.5 242.9 277.1C242.9 290.4 253.6 301.1 266.9 301.1C280.2 301.1 290.9 290.4 290.9 277.1C290.9 261 304 247.9 320.1 247.9zM348.1 416C348.1 400.5 335.6 388 320.1 388C304.6 388 292.1 400.5 292.1 416C292.1 431.5 304.6 444 320.1 444C335.6 444 348.1 431.5 348.1 416z"/></svg>