<svg xmlns="http://www.w3.org/2000/svg" viewBox="0 0 640 640"><!--! Font Awesome Pro 7.2.0 by @fontawesome - https://fontawesome.com License - https://fontawesome.com/license (Commercial License) Copyright 2026 Fonticons, Inc. --><path fill="currentColor" d="M0 168C0 132.7 28.7 104 64 104L384 104C419.3 104 448 132.7 448 168L448 488C448 523.3 419.3 552 384 552L64 552C28.7 552 0 523.3 0 488L0 168zM88 168C74.7 168 64 178.7 64 192L64 336C64 349.3 74.7 360 88 360C101.3 360 112 349.3 112 336L112 192C112 178.7 101.3 168 88 168zM184 168C170.7 168 160 178.7 160 192L160 336C160 349.3 170.7 360 184 360C197.3 360 208 349.3 208 336L208 192C208 178.7 197.3 168 184 168zM597.3 172L549.3 204C538.3 211.4 523.4 208.4 516 197.3C508.6 186.2 511.6 171.4 522.7 164L570.7 132C581.7 124.6 596.6 127.6 604 138.7C611.4 149.8 608.4 164.6 597.3 172zM536 296L616 296C629.3 296 640 306.7 640 320C640 333.3 629.3 344 616 344L536 344C522.7 344 512 333.3 512 320C512 306.7 522.7 296 536 296zM549.3 436L597.3 468C608.3 475.4 611.3 490.3 604 501.3C596.7 512.3 581.7 515.3 570.7 508L522.7 476C511.7 468.6 508.7 453.7 516 442.7C523.3 431.7 538.3 428.7 549.3 436z"/></svg>