<svg xmlns="http://www.w3.org/2000/svg" viewBox="0 0 640 640"><!--! Font Awesome Pro 7.2.0 by @fontawesome - https://fontawesome.com License - https://fontawesome.com/license (Commercial License) Copyright 2026 Fonticons, Inc. --><path fill="currentColor" d="M275.8 82.4C263.8 87.4 256 99 256 112L256 192L208 192C110.8 192 32 270.8 32 368C32 481.3 113.5 531.9 132.2 542.1C134.7 543.5 137.5 544 140.3 544C151.2 544 160 535.1 160 524.3C160 516.8 155.7 509.9 150.2 504.8C140.8 496 128 478.4 128 448.1C128 395.1 171 352.1 224 352.1L256 352.1L256 432.1C256 445 263.8 456.7 275.8 461.7C287.8 466.7 301.5 463.9 310.7 454.8L470.7 294.8C483.2 282.3 483.2 262 470.7 249.5L310.7 89.5C301.5 80.3 287.8 77.6 275.8 82.6zM402.5 87.1C393.1 96.5 393.1 111.7 402.5 121L553.4 272L402.4 422.9C393 432.3 393 447.5 402.4 456.8C411.8 466.1 427 466.2 436.3 456.8L598 295.2C604.4 289.2 608 280.8 608 272C608 263.2 604.4 254.8 598 248.8L436.4 87.1C427 77.7 411.8 77.7 402.5 87.1z"/></svg>