<svg xmlns="http://www.w3.org/2000/svg" viewBox="0 0 640 640"><!--! Font Awesome Pro 7.2.0 by @fontawesome - https://fontawesome.com License - https://fontawesome.com/license (Commercial License) Copyright 2026 Fonticons, Inc. --><path fill="currentColor" d="M333.4 66.9C329.2 65 324.7 64 320 64C315.3 64 310.8 65 306.6 66.9L118.3 146.8C96.3 156.1 79.9 177.8 80 204C80.5 303.2 121.3 484.7 293.6 567.2C310.3 575.2 329.7 575.2 346.4 567.2C518.8 484.7 559.6 303.2 560 204C560.1 177.8 543.7 156.1 521.7 146.8L333.4 66.9zM144 205.4L320 130.8L320 288L154.1 288C147.2 258 144.3 229.5 144 205.4zM320 508.8L320 288L486 288C467.5 368.5 420.5 460.2 320 508.8z"/></svg>