<svg xmlns="http://www.w3.org/2000/svg" viewBox="0 0 640 640"><!--! Font Awesome Pro 7.2.0 by @fontawesome - https://fontawesome.com License - https://fontawesome.com/license (Commercial License) Copyright 2026 Fonticons, Inc. --><path fill="currentColor" d="M333.4 66.9C329.2 65 324.7 64 320 64C315.3 64 310.8 65 306.6 66.9L118.3 146.8C96.3 156.1 79.9 177.8 80 204C80.5 303.2 121.3 484.7 293.6 567.2C310.3 575.2 329.7 575.2 346.4 567.2C518.8 484.7 559.6 303.2 560 204C560.1 177.8 543.7 156.1 521.7 146.8L333.4 66.9zM320 130.8L352 144.4L352 192.1C352 209.8 366.3 224.1 384 224.1L495.3 224.1C494.1 243.7 491.1 265.5 485.9 288.1L383.9 288.1C366.2 288.1 351.9 302.4 351.9 320.1L351.9 490.9C341.9 497.4 331.2 503.4 319.9 508.9C308.6 503.4 297.9 497.4 287.9 490.9L288 320C288 302.3 273.7 288 256 288L154.1 288C148.9 265.4 146 243.6 144.7 224L256 224C273.7 224 288 209.7 288 192L288 144.3L320 130.7z"/></svg>