<svg xmlns="http://www.w3.org/2000/svg" viewBox="0 0 640 640"><!--! Font Awesome Pro 7.2.0 by @fontawesome - https://fontawesome.com License - https://fontawesome.com/license (Commercial License) Copyright 2026 Fonticons, Inc. --><path fill="currentColor" d="M457.4 41.4C469.9 28.9 490.2 28.9 502.7 41.4L598.7 137.4C611.2 149.9 611.2 170.2 598.7 182.7L554.6 226.8C535.9 245.5 510.5 256.1 484 256.1C468.1 256.1 453.1 252.4 439.7 245.8L310.7 374.8L350.1 414.2C368.8 432.9 368.8 463.3 350.1 482.1L265.3 566.9C238.8 593.2 203 608 165.7 608C91.9 608 32 548.1 32 474.3C32 437 46.8 401.2 73.2 374.8L158 290C176.7 271.3 207.1 271.3 225.9 290L265.3 329.4L394.3 200.4C387.7 187.1 384 172 384 156.1C384 129.6 394.5 104.2 413.3 85.5L457.4 41.4zM480 109.3L458.5 130.7C451.8 137.4 448 146.6 448 156.1C448 175.9 464.1 192 483.9 192C493.4 192 502.5 188.2 509.3 181.5L530.7 160L480 109.3z"/></svg>