<svg xmlns="http://www.w3.org/2000/svg" viewBox="0 0 640 640"><!--! Font Awesome Pro 7.2.0 by @fontawesome - https://fontawesome.com License - https://fontawesome.com/license (Commercial License) Copyright 2026 Fonticons, Inc. --><path fill="currentColor" d="M326.4 488.3L293.2 517.5C245.3 559.4 173 557 128 512C83 467 80.6 394.8 122.5 346.8L151.6 313.5L326.4 488.3zM303.8 64C313.8 64 322.8 69.6 327.3 78.5L345.6 115.1C349.7 123.3 350.1 132.8 346.7 141.3L288 288L387.8 159.6C395.2 150 407.5 145.5 419.3 147.8L459 155.7C471.7 158.2 481.6 168.1 484.1 180.8L492 220.5C494.4 232.4 489.8 244.6 480.2 252.1L352 352L498.7 293.3C507.2 289.9 516.7 290.3 524.9 294.4L561.5 312.7C570.4 317.2 576 326.2 576 336.2C576 345.9 570.6 354.8 562.1 359.4L368.6 462.6L177.4 271.4L280.6 77.9C285.1 69.3 294.1 64 303.8 64z"/></svg>