<svg xmlns="http://www.w3.org/2000/svg" viewBox="0 0 640 640"><!--! Font Awesome Pro 7.2.0 by @fontawesome - https://fontawesome.com License - https://fontawesome.com/license (Commercial License) Copyright 2026 Fonticons, Inc. --><path fill="currentColor" d="M512 512L320 512L320 128L512 128C547.3 128 576 156.7 576 192L576 448C576 483.3 547.3 512 512 512zM128 128L272 128L272 512L128 512C92.7 512 64 483.3 64 448L64 192C64 156.7 92.7 128 128 128zM136 192C122.7 192 112 202.7 112 216C112 229.3 122.7 240 136 240L200 240C213.3 240 224 229.3 224 216C224 202.7 213.3 192 200 192L136 192zM112 304C112 317.3 122.7 328 136 328L200 328C213.3 328 224 317.3 224 304C224 290.7 213.3 280 200 280L136 280C122.7 280 112 290.7 112 304zM136 368C122.7 368 112 378.7 112 392C112 405.3 122.7 416 136 416L200 416C213.3 416 224 405.3 224 392C224 378.7 213.3 368 200 368L136 368z"/></svg>