<svg xmlns="http://www.w3.org/2000/svg" viewBox="0 0 640 640"><!--! Font Awesome Pro 7.2.0 by @fontawesome - https://fontawesome.com License - https://fontawesome.com/license (Commercial License) Copyright 2026 Fonticons, Inc. --><path fill="currentColor" d="M424.7 64C444.9 64 459.9 82.7 455.5 102.4L432 208L360 208C346.7 208 336 218.7 336 232C336 245.3 346.7 256 360 256L421.3 256L410.6 304L343.9 304C330.6 304 319.9 314.7 319.9 328C319.9 341.3 330.6 352 343.9 352L399.9 352L505.9 399.1C529 409.4 543.9 432.3 543.9 457.6L543.9 512L547.2 512.2C563.3 513.8 575.9 527.5 575.9 544C575.9 561.7 561.6 576 543.9 576L96 576C78.3 576 64 561.7 64 544L64 512L88.8 383.2C89.6 383.1 90.4 383 91.3 382.9C97.1 382 105.2 380.4 114.9 377.6C134.3 371.9 160.2 361.3 187.3 341.4C240.5 302.3 295.6 229.5 317.9 96.1L392.1 96.1L394.1 88C397.5 73.9 410.2 64 424.7 64zM269 96C247.8 213.5 199.7 272.6 158.7 302.7C136.8 318.8 116.2 327.2 101.3 331.5C100.3 331.8 99.4 332 98.5 332.2L139 122C141.9 106.9 155.1 96 170.4 96L269 96z"/></svg>