<svg xmlns="http://www.w3.org/2000/svg" viewBox="0 0 640 640"><!--! Font Awesome Pro 7.2.0 by @fontawesome - https://fontawesome.com License - https://fontawesome.com/license (Commercial License) Copyright 2026 Fonticons, Inc. --><path fill="currentColor" d="M616 456C629.3 456 640 466.7 640 480L640 488C640 536.6 600.6 576 552 576L24 576C10.7 576 0 565.3 0 552C0 538.7 10.7 528 24 528L552 528C574.1 528 592 510.1 592 488L592 480C592 466.7 602.7 456 616 456zM393.5 64C413.4 64 428.2 82.3 424.2 101.7L412 160L344 160C330.8 160 320 170.8 320 184C320 197.2 330.8 208 344 208L402 208L392 256L328 256C314.8 256 304 266.8 304 280C304 293.2 314.8 304 328 304L382 304L470.2 336.6C495.3 345.9 512 369.8 512 396.6L512 416C512 451.3 483.3 480 448 480L155 480C124.6 480 101.8 452 108 422.2L135.3 290.9C139.4 290.2 144.9 289.1 151.3 287.3C165.4 283.2 184.2 275.4 203.9 261C240.9 233.8 278.9 184.3 296.1 96L361.3 96L362.8 88.9C365.8 74.4 378.6 64 393.5 64zM255.3 96C239.2 170.6 207.3 208.9 180.3 228.7C167 238.5 154.3 244.1 144.5 247.4L165.4 147C171.6 117.3 197.7 96 228.1 96L255.3 96z"/></svg>