<svg xmlns="http://www.w3.org/2000/svg" viewBox="0 0 640 640"><!--! Font Awesome Pro 7.2.0 by @fontawesome - https://fontawesome.com License - https://fontawesome.com/license (Commercial License) Copyright 2026 Fonticons, Inc. --><path fill="currentColor" d="M64 320C64 178.6 178.6 64 320 64C461.4 64 576 178.6 576 320C576 461.4 461.4 576 320 576C178.6 576 64 461.4 64 320zM303 167L223 247C216.1 253.9 214.1 264.2 217.8 273.2C221.5 282.2 230.3 288 240 288L400 288C409.7 288 418.5 282.2 422.2 273.2C425.9 264.2 423.9 253.9 417 247L337 167C327.6 157.6 312.4 157.6 303.1 167zM303 473C312.4 482.4 327.6 482.4 336.9 473L416.9 393C423.8 386.1 425.8 375.8 422.1 366.8C418.4 357.8 409.7 352 400 352L240 352C230.3 352 221.5 357.8 217.8 366.8C214.1 375.8 216.1 386.1 223 393L303 473z"/></svg>