<svg xmlns="http://www.w3.org/2000/svg" viewBox="0 0 640 640"><!--! Font Awesome Pro 7.2.0 by @fontawesome - https://fontawesome.com License - https://fontawesome.com/license (Commercial License) Copyright 2026 Fonticons, Inc. --><path fill="currentColor" d="M576 320C576 330.8 575.3 341.4 574 351.9C501.6 377.1 414.4 392 320 392C225.6 392 138.4 377.1 66 351.9C64.7 341.4 64 330.8 64 320C64 178.6 178.6 64 320 64C377.8 64 431.1 83.1 473.9 115.4C477.8 118.4 480 123 480 127.8L480 144C480 152.8 472.8 160 464 160L432 160C423.2 160 416 167.2 416 176L416 208C416 216.8 423.2 224 432 224L496 224C504.8 224 512 231.2 512 240L512 272C512 280.8 519.2 288 528 288L559.9 288C568 288 574.8 294 575.4 302.1C575.8 308 576 314 576 320zM320 440C364.1 440 407.1 436.9 448 431L448 448C448 456.8 455.2 464 464 464L496 464C504.8 464 512 471.2 512 480L512 483.3C512 487.2 510.6 491 507.9 493.8C461.1 544.3 394.2 576 320 576C209 576 114.5 505.3 79 406.5C150.8 427.9 233 440 320 440zM224 224C224 206.3 238.3 192 256 192C273.7 192 288 206.3 288 224C288 241.7 273.7 256 256 256C238.3 256 224 241.7 224 224zM336 224C336 179.8 300.2 144 256 144C211.8 144 176 179.8 176 224C176 268.2 211.8 304 256 304C300.2 304 336 268.2 336 224z"/></svg>