<svg xmlns="http://www.w3.org/2000/svg" viewBox="0 0 640 640"><!--! Font Awesome Pro 7.2.0 by @fontawesome - https://fontawesome.com License - https://fontawesome.com/license (Commercial License) Copyright 2026 Fonticons, Inc. --><path fill="currentColor" d="M96 160C96 124.7 124.7 96 160 96L480 96C515.3 96 544 124.7 544 160L544 480C544 515.3 515.3 544 480 544L160 544C124.7 544 96 515.3 96 480L96 160zM167 223C157.6 232.4 157.6 247.6 167 256.9L230 319.9L167 382.9C157.6 392.3 157.6 407.5 167 416.8C176.4 426.1 191.6 426.2 200.9 416.8L280.9 336.8C290.3 327.4 290.3 312.2 280.9 302.9L200.9 222.9C191.5 213.5 176.3 213.5 167 222.9zM312 400C298.7 400 288 410.7 288 424C288 437.3 298.7 448 312 448L456 448C469.3 448 480 437.3 480 424C480 410.7 469.3 400 456 400L312 400z"/></svg>