<svg xmlns="http://www.w3.org/2000/svg" viewBox="0 0 640 640"><!--! Font Awesome Pro 7.2.0 by @fontawesome - https://fontawesome.com License - https://fontawesome.com/license (Commercial License) Copyright 2026 Fonticons, Inc. --><path fill="currentColor" d="M160 96C124.7 96 96 124.7 96 160L96 480C96 515.3 124.7 544 160 544L480 544C515.3 544 544 515.3 544 480L544 160C544 124.7 515.3 96 480 96L160 96zM320 208C329.1 208 337.4 213.1 341.5 221.3L429.5 397.3C435.4 409.2 430.6 423.6 418.8 429.5C407 435.4 392.5 430.6 386.6 418.8L377.2 400.1L262.9 400.1L253.5 418.8C247.6 430.7 233.2 435.5 221.3 429.5C209.4 423.5 204.6 409.2 210.6 397.3L298.6 221.3C302.7 213.2 311 208 320.1 208zM320 285.7L286.8 352L353.1 352L319.9 285.7z"/></svg>