<svg xmlns="http://www.w3.org/2000/svg" viewBox="0 0 640 640"><!--! Font Awesome Pro 7.2.0 by @fontawesome - https://fontawesome.com License - https://fontawesome.com/license (Commercial License) Copyright 2026 Fonticons, Inc. --><path fill="currentColor" d="M160 96C124.7 96 96 124.7 96 160L96 480C96 515.3 124.7 544 160 544L480 544C515.3 544 544 515.3 544 480L544 160C544 124.7 515.3 96 480 96L160 96zM410.5 200.8C418.9 211 417.4 226.2 407.2 234.6L322.5 304.3L399.8 304.3C408.6 304.3 415.8 311.5 415.8 320.3C415.8 329.1 408.6 336.3 399.8 336.3L322.7 336.3L407.2 405.5C417.5 413.9 419 429 410.6 439.3C402.2 449.6 387 451 376.8 442.6L288 369.9L288 424C288 437.3 277.3 448 264 448C250.7 448 240 437.3 240 424L240 336.2L224.2 336.2C215.4 336.2 208.2 329 208.2 320.2C208.2 311.4 215.4 304.2 224.2 304.2L240 304.2L240 216C240 202.7 250.7 192 264 192C277.3 192 288 202.7 288 216L288 270.5L376.8 197.5C387 189.1 402.2 190.6 410.6 200.8z"/></svg>