<svg xmlns="http://www.w3.org/2000/svg" viewBox="0 0 640 640"><!--! Font Awesome Pro 7.2.0 by @fontawesome - https://fontawesome.com License - https://fontawesome.com/license (Commercial License) Copyright 2026 Fonticons, Inc. --><path fill="currentColor" d="M160 96C124.7 96 96 124.7 96 160L96 480C96 515.3 124.7 544 160 544L480 544C515.3 544 544 515.3 544 480L544 160C544 124.7 515.3 96 480 96L160 96zM304 192C304 183.2 311.2 176 320 176C328.8 176 336 183.2 336 192L336 201.1C362.3 204.6 386 216.7 404 234.3C413.5 243.6 413.6 258.8 404.3 268.2C395 277.6 379.8 277.8 370.4 268.5C361 259.3 349.2 252.7 336 249.7L336 295.9L416 295.9C429.3 295.9 440 306.6 440 319.9C440 380.7 394.7 431 336 438.8L336 447.9C336 456.7 328.8 463.9 320 463.9C311.2 463.9 304 456.7 304 447.9L304 438.8C245.3 431 200 380.7 200 319.9C200 259.1 245.3 208.8 304 201L304 191.9zM248 320C248 354.3 271.9 382.9 304 390.2L304 249.8C271.9 257.1 248 285.8 248 320zM387.9 344L336 344L336 390.2C360.2 384.7 379.8 367 387.9 344z"/></svg>