<svg xmlns="http://www.w3.org/2000/svg" viewBox="0 0 640 640"><!--! Font Awesome Pro 7.2.0 by @fontawesome - https://fontawesome.com License - https://fontawesome.com/license (Commercial License) Copyright 2026 Fonticons, Inc. --><path fill="currentColor" d="M297.1 80.7C300.3 70.8 309.6 64 320 64C330.4 64 339.7 70.8 342.9 80.7L348.1 96.9L349.4 100.9L349.5 101.2L393.7 240L552.2 240C562.5 240 571.6 246.5 574.9 256.2C578.2 265.9 575 276.6 566.9 282.9L552.2 294.4L550.2 295.9L550.1 296L436.1 384.7L480.5 524.2L480.6 524.6C481 525.7 483.1 532.4 487 544.8C490.2 554.8 486.5 565.8 477.9 571.8C469.3 577.8 457.7 577.5 449.4 571.1C439.2 563.1 433.6 558.8 432.7 558.1L432.4 557.8L320.2 470.5L190.9 571C182.6 577.5 171.1 577.8 162.4 571.7C153.7 565.6 150.1 554.8 153.3 544.7L204.1 384.7L73.3 282.9C65.2 276.6 62 265.9 65.3 256.2C68.6 246.5 77.7 240 88 240L246.5 240L297.2 80.7zM320 414.4C332.1 414.4 344.3 418.3 354.4 426.2L402.3 463.4L382.6 401.6C375.5 379.2 383.1 354.8 401.6 340.4L458.8 295.9L393.6 295.9C369.2 295.9 347.6 280.1 340.2 256.9L320 193.5L320 414.4z"/></svg>