<svg xmlns="http://www.w3.org/2000/svg" viewBox="0 0 640 640"><!--! Font Awesome Pro 7.2.0 by @fontawesome - https://fontawesome.com License - https://fontawesome.com/license (Commercial License) Copyright 2026 Fonticons, Inc. --><path fill="currentColor" d="M200 528C213.3 528 224 538.7 224 552C224 565.3 213.3 576 200 576L120 576C106.7 576 96 565.3 96 552C96 538.7 106.7 528 120 528L200 528zM584 528C597.3 528 608 538.7 608 552C608 565.3 597.3 576 584 576L296 576C282.7 576 272 565.3 272 552C272 538.7 282.7 528 296 528L584 528zM520 432C533.3 432 544 442.7 544 456C544 469.3 533.3 480 520 480L56 480C42.7 480 32 469.3 32 456C32 442.7 42.7 432 56 432L520 432zM320 32C328.4 32 336.3 36.4 340.6 43.7L396.1 136.3L500.8 110C509 108 517.7 110.4 523.6 116.3C529.5 122.2 532 131 530 139.1L503.7 243.8L596.4 299.3C603.6 303.6 608.1 311.5 608.1 319.9C608.1 328.3 603.7 336.2 596.4 340.5L523.9 384L449 384C458.6 364.7 464 343 464 320C464 240.5 399.5 176 320 176C240.5 176 176 240.5 176 320C176 343 181.4 364.7 191 384L116.2 384L43.7 340.6C36.4 336.2 32 328.4 32 320C32 311.6 36.4 303.7 43.7 299.4L136.3 243.9L110 139.1C108 130.9 110.4 122.3 116.3 116.3C122.2 110.3 131 108 139.2 110L243.9 136.2L299.4 43.6L301.2 41C305.7 35.3 312.6 31.9 320 31.9zM320 224C373 224 416 267 416 320C416 344.6 406.8 367 391.6 384L248.5 384C233.3 367 224 344.6 224 320C224 267 267 224 320 224z"/></svg>