<svg xmlns="http://www.w3.org/2000/svg" viewBox="0 0 640 640"><!--! Font Awesome Pro 7.2.0 by @fontawesome - https://fontawesome.com License - https://fontawesome.com/license (Commercial License) Copyright 2026 Fonticons, Inc. --><path fill="currentColor" d="M128 96C145.7 96 160 110.3 160 128L160 512C160 529.7 145.7 544 128 544C110.3 544 96 529.7 96 512L96 128C96 110.3 110.3 96 128 96zM256 96C273.7 96 288 110.3 288 128L288 512C288 529.7 273.7 544 256 544C238.3 544 224 529.7 224 512L224 128C224 110.3 238.3 96 256 96zM416 128L416 512C416 529.7 401.7 544 384 544C366.3 544 352 529.7 352 512L352 128C352 110.3 366.3 96 384 96C401.7 96 416 110.3 416 128z"/></svg>