<svg xmlns="http://www.w3.org/2000/svg" viewBox="0 0 640 640"><!--! Font Awesome Pro 7.2.0 by @fontawesome - https://fontawesome.com License - https://fontawesome.com/license (Commercial License) Copyright 2026 Fonticons, Inc. --><path fill="currentColor" d="M308 70.9C310.5 66.6 315 64 320 64C325 64 329.5 66.7 332 70.9L382 158.5C388.5 170 392 182.9 392 196.1L392 200C392 239.8 359.8 272 320 272C280.2 272 248 239.8 248 200L248 196.1C248 182.9 251.4 169.9 258 158.5L308 70.9zM216.3 134.7C211.7 142.7 208.1 151.2 205.4 160L160 160L160 328.2C194.5 313.8 234.5 318.3 265.5 341.7C289.5 359.8 306.2 368 320 368C333.8 368 350.5 359.8 374.5 341.7C405.6 318.3 445.5 313.8 480 328.2L480 160L434.6 160C431.9 151.2 428.3 142.7 423.7 134.7L401.6 96L480 96C515.3 96 544 124.7 544 160L544 480C544 515.3 515.3 544 480 544L160 544C124.7 544 96 515.3 96 480L96 160C96 124.7 124.7 96 160 96L238.4 96L216.3 134.7z"/></svg>