<svg xmlns="http://www.w3.org/2000/svg" viewBox="0 0 640 640"><!--! Font Awesome Pro 7.2.0 by @fontawesome - https://fontawesome.com License - https://fontawesome.com/license (Commercial License) Copyright 2026 Fonticons, Inc. --><path fill="currentColor" d="M128 160C128 107 171 64 224 64C277 64 320 107 320 160L320 324.7C349.5 351.1 368 389.4 368 432C368 511.5 303.5 576 224 576C144.5 576 80 511.5 80 432C80 389.4 98.5 351 128 324.7L128 160zM224 496C259.3 496 288 467.3 288 432C288 405.1 271.5 382.1 248 372.7L248 280C248 266.7 237.3 256 224 256C210.7 256 200 266.7 200 280L200 372.7C176.5 382.2 160 405.2 160 432C160 467.3 188.7 496 224 496zM416 96L512 96C529.7 96 544 110.3 544 128C544 145.7 529.7 160 512 160L416 160C398.3 160 384 145.7 384 128C384 110.3 398.3 96 416 96zM416 224L512 224C529.7 224 544 238.3 544 256C544 273.7 529.7 288 512 288L416 288C398.3 288 384 273.7 384 256C384 238.3 398.3 224 416 224zM416 384C416 366.3 430.3 352 448 352L512 352C529.7 352 544 366.3 544 384C544 401.7 529.7 416 512 416L448 416C430.3 416 416 401.7 416 384z"/></svg>