<svg xmlns="http://www.w3.org/2000/svg" viewBox="0 0 640 640"><!--! Font Awesome Pro 7.2.0 by @fontawesome - https://fontawesome.com License - https://fontawesome.com/license (Commercial License) Copyright 2026 Fonticons, Inc. --><path fill="currentColor" d="M391.1 96C382.3 107.1 375 119.1 369.2 130.8C347.8 173.5 336 229.1 336 288L336 552C336 582.9 310.9 608 280 608L120 608C89.1 608 64 582.9 64 552L64 288C64 182 107 96 160 96L391.1 96zM480 96C533 96 576 182 576 288C576 394 533 480 480 480C427 480 384 394 384 288C384 182 427 96 480 96zM270.2 218.6C259.5 210.8 244.5 213.2 236.7 223.9L177.4 305.5L161.3 288.9C152.1 279.4 136.9 279.1 127.4 288.3C117.9 297.5 117.6 312.7 126.8 322.2L162.7 359.4C167.6 364.5 174.6 367.2 181.6 366.7C188.7 366.2 195.2 362.6 199.4 356.9L275.5 252.2C283.3 241.5 280.9 226.5 270.2 218.7zM480 224C462.3 224 448 252.7 448 288C448 323.3 462.3 352 480 352C497.7 352 512 323.3 512 288C512 252.7 497.7 224 480 224z"/></svg>