<svg xmlns="http://www.w3.org/2000/svg" viewBox="0 0 640 640"><!--! Font Awesome Pro 7.2.0 by @fontawesome - https://fontawesome.com License - https://fontawesome.com/license (Commercial License) Copyright 2026 Fonticons, Inc. --><path fill="currentColor" d="M128 256C128 150 214 64 320 64C426 64 512 150 512 256L512 512C529.7 512 544 526.3 544 544C544 561.7 529.7 576 512 576L128 576C110.3 576 96 561.7 96 544C96 526.3 110.3 512 128 512L128 256zM344 184C344 170.7 333.3 160 320 160C306.7 160 296 170.7 296 184L296 224L248 224C234.7 224 224 234.7 224 248C224 261.3 234.7 272 248 272L296 272L296 392C296 405.3 306.7 416 320 416C333.3 416 344 405.3 344 392L344 272L392 272C405.3 272 416 261.3 416 248C416 234.7 405.3 224 392 224L344 224L344 184z"/></svg>