<svg xmlns="http://www.w3.org/2000/svg" viewBox="0 0 640 640"><!--! Font Awesome Pro 7.2.0 by @fontawesome - https://fontawesome.com License - https://fontawesome.com/license (Commercial License) Copyright 2026 Fonticons, Inc. --><path fill="currentColor" d="M96 288C60.7 288 32 259.3 32 224C32 188.7 60.7 160 96 160L320 160C351.2 160 358.2 137.3 359.6 112C360.1 103.2 367.2 95.9 376 96.8C428.4 102.1 480 133.5 480 192C480 245 437 288 384 288L96 288zM88 320C101.3 320 112 330.7 112 344L112 480L144 480L144 344C144 330.7 154.7 320 168 320C181.3 320 192 330.7 192 344L192 480L224 480L224 344C224 330.7 234.7 320 248 320C261.3 320 272 330.7 272 344L272 480L304 480L304 344C304 330.7 314.7 320 328 320C341.3 320 352 330.7 352 344L352 480L384 480L384 344C384 330.7 394.7 320 408 320C421.3 320 432 330.7 432 344L432 480L576 480C593.7 480 608 494.3 608 512C608 529.7 593.7 544 576 544L64 544C46.3 544 32 529.7 32 512C32 494.3 46.3 480 64 480L64 344C64 330.7 74.7 320 88 320z"/></svg>