<svg xmlns="http://www.w3.org/2000/svg" viewBox="0 0 640 640"><!--! Font Awesome Pro 7.2.0 by @fontawesome - https://fontawesome.com License - https://fontawesome.com/license (Commercial License) Copyright 2026 Fonticons, Inc. --><path fill="currentColor" d="M320 160C355.3 160 384 188.7 384 224C384 247.7 371.1 268.3 352 279.4L352 544C352 561.7 337.7 576 320 576C302.3 576 288 561.7 288 544L288 279.4C268.9 268.3 256 247.7 256 224C256 188.7 284.7 160 320 160zM144.1 75.5C155.4 68.7 170.2 72.3 177 83.6C201.8 124.6 216 172.7 216 224C216 275.3 201.8 323.4 177 364.4C170.1 375.7 155.4 379.4 144.1 372.5C132.8 365.6 129.1 350.9 135.9 339.6C156.3 305.9 168 266.3 168 224C168 181.7 156.3 142.1 135.9 108.4C129.1 97.1 132.7 82.3 144.1 75.5zM463 83.6C469.9 72.3 484.6 68.6 495.9 75.5C507.2 82.4 510.9 97.1 504.1 108.4C483.7 142.1 472 181.7 472 224C472 266.3 483.7 305.9 504.1 339.6C510.9 350.9 507.3 365.7 495.9 372.5C484.5 379.3 469.8 375.7 463 364.4C438.2 323.4 424 275.3 424 224C424 172.7 438.2 124.6 463 83.6zM59 121.8C70.2 114.6 85 117.9 92.2 129C109.8 156.4 120 189 120 224C120 259 109.8 291.6 92.2 319C85 330.1 70.2 333.4 59 326.2C47.8 319 44.6 304.2 51.8 293C64.6 273.1 72 249.5 72 224C72 198.5 64.6 174.9 51.8 155C44.7 143.8 47.9 129 59 121.8zM547.8 129C555 117.9 569.8 114.6 581 121.8C592.2 129 595.4 143.8 588.2 155C575.4 174.9 568 198.6 568 224C568 249.4 575.4 273.2 588.2 293.1C595.4 304.3 592.1 319.1 581 326.3C569.9 333.5 555 330.2 547.8 319.1C530.2 291.7 520 259 520 224.1C520 189.2 530.2 156.5 547.8 129.1z"/></svg>