<svg xmlns="http://www.w3.org/2000/svg" viewBox="0 0 640 640"><!--! Font Awesome Pro 7.2.0 by @fontawesome - https://fontawesome.com License - https://fontawesome.com/license (Commercial License) Copyright 2026 Fonticons, Inc. --><path fill="currentColor" d="M264 88L264 96L288 96C296.8 96 304 103.2 304 112C304 120.8 296.8 128 288 128L192 128C183.2 128 176 120.8 176 112C176 103.2 183.2 96 192 96L216 96L216 88C216 74.7 226.7 64 240 64C253.3 64 264 74.7 264 88zM424 88L424 96L448 96C456.8 96 464 103.2 464 112C464 120.8 456.8 128 448 128L352 128C343.2 128 336 120.8 336 112C336 103.2 343.2 96 352 96L376 96L376 88C376 74.7 386.7 64 400 64C413.3 64 424 74.7 424 88zM176 176C176 167.2 183.2 160 192 160L288 160C296.8 160 304 167.2 304 176C304 184.8 296.8 192 288 192L192 192C183.2 192 176 184.8 176 176zM336 176C336 167.2 343.2 160 352 160L448 160C456.8 160 464 167.2 464 176C464 184.8 456.8 192 448 192L352 192C343.2 192 336 184.8 336 176zM128 256C128 238.3 142.3 224 160 224L480 224C497.7 224 512 238.3 512 256C512 273.7 497.7 288 480 288L480 512C497.7 512 512 526.3 512 544C512 561.7 497.7 576 480 576L160 576C142.3 576 128 561.7 128 544C128 526.3 142.3 512 160 512L160 288C142.3 288 128 273.7 128 256zM248.5 416L294 416L269.6 494C266.8 502.9 273.5 512 282.8 512C286.1 512 289.4 510.8 291.9 508.6L402.3 412.9C405.9 409.8 408 405.2 408 400.4C408 391.3 400.6 383.9 391.5 383.9L346 383.9L370.4 305.9C373.2 297 366.5 287.9 357.2 287.9C353.9 287.9 350.6 289.1 348.1 291.3L237.7 387.1C234.1 390.2 232 394.8 232 399.6C232 408.7 239.4 416.1 248.5 416.1z"/></svg>