<svg xmlns="http://www.w3.org/2000/svg" viewBox="0 0 640 640"><!--! Font Awesome Pro 7.2.0 by @fontawesome - https://fontawesome.com License - https://fontawesome.com/license (Commercial License) Copyright 2026 Fonticons, Inc. --><path fill="currentColor" d="M263.1 48L377 48C390.8 48 403 56.8 407.4 69.9L416 96L512 96C529.7 96 544 110.3 544 128C544 145.7 529.7 160 512 160L128 160C110.3 160 96 145.7 96 128C96 110.3 110.3 96 128 96L224 96L232.7 69.9C237.1 56.8 249.3 48 263.1 48zM128 208L512 208L512 512C512 547.3 483.3 576 448 576L192 576C156.7 576 128 547.3 128 512L128 208zM320 288C306.7 288 296 298.7 296 312L296 360L248 360C234.7 360 224 370.7 224 384C224 397.3 234.7 408 248 408L296 408L296 456C296 469.3 306.7 480 320 480C333.3 480 344 469.3 344 456L344 408L392 408C405.3 408 416 397.3 416 384C416 370.7 405.3 360 392 360L344 360L344 312C344 298.7 333.3 288 320 288z"/></svg>