<svg xmlns="http://www.w3.org/2000/svg" viewBox="0 0 640 640"><!--! Font Awesome Pro 7.2.0 by @fontawesome - https://fontawesome.com License - https://fontawesome.com/license (Commercial License) Copyright 2026 Fonticons, Inc. --><path fill="currentColor" d="M200.7 69.9L192 96L96 96C78.3 96 64 110.3 64 128C64 145.7 78.3 160 96 160L480 160C497.7 160 512 145.7 512 128C512 110.3 497.7 96 480 96L384 96L375.3 69.9C370.9 56.8 358.7 48 344.9 48L231.1 48C217.3 48 205.1 56.8 200.7 69.9zM480 208L96 208L117.1 531.1C118.7 556.4 139.7 576 165 576L308 576C285.3 544.5 272 505.8 272 464C272 358 358 272 464 272C468 272 471.9 272.1 475.8 272.4L480 208zM608 464C608 384.5 543.5 320 464 320C384.5 320 320 384.5 320 464C320 543.5 384.5 608 464 608C543.5 608 608 543.5 608 464zM464 384C472.8 384 480 391.2 480 400L480 448L512 448C520.8 448 528 455.2 528 464C528 472.8 520.8 480 512 480L464 480C455.2 480 448 472.8 448 464L448 400C448 391.2 455.2 384 464 384z"/></svg>