<svg xmlns="http://www.w3.org/2000/svg" viewBox="0 0 640 640"><!--! Font Awesome Pro 7.2.0 by @fontawesome - https://fontawesome.com License - https://fontawesome.com/license (Commercial License) Copyright 2026 Fonticons, Inc. --><path fill="currentColor" d="M167.1 48L313 48C326.8 48 339 56.8 343.4 69.9L352 96L416 96C433.7 96 448 110.3 448 128C448 145.7 433.7 160 416 160L64 160C46.3 160 32 145.7 32 128C32 110.3 46.3 96 64 96L128 96L136.7 69.9C141.1 56.8 153.3 48 167.1 48zM64 208L416 208L394.9 531.1C393.3 556.4 372.3 576 347 576L133 576C107.7 576 86.7 556.4 85.1 531.1L64 208zM512 192L608 192C625.7 192 640 206.3 640 224C640 241.7 625.7 256 608 256L512 256C494.3 256 480 241.7 480 224C480 206.3 494.3 192 512 192zM480 352C480 334.3 494.3 320 512 320L576 320C593.7 320 608 334.3 608 352C608 369.7 593.7 384 576 384L512 384C494.3 384 480 369.7 480 352zM512 512C494.3 512 480 497.7 480 480C480 462.3 494.3 448 512 448C529.7 448 544 462.3 544 480C544 497.7 529.7 512 512 512z"/></svg>