<svg xmlns="http://www.w3.org/2000/svg" viewBox="0 0 640 640"><!--! Font Awesome Pro 7.2.0 by @fontawesome - https://fontawesome.com License - https://fontawesome.com/license (Commercial License) Copyright 2026 Fonticons, Inc. --><path fill="currentColor" d="M232.7 69.9L224 96L128 96C110.3 96 96 110.3 96 128C96 145.7 110.3 160 128 160L512 160C529.7 160 544 145.7 544 128C544 110.3 529.7 96 512 96L416 96L407.3 69.9C402.9 56.8 390.7 48 376.9 48L263.1 48C249.3 48 237.1 56.8 232.7 69.9zM512 208L128 208L128 512C128 547.3 156.7 576 192 576L448 576C483.3 576 512 547.3 512 512L512 208zM313.8 279.9C322.7 289.8 321.9 304.9 312 313.8L278.5 344L336 344C384.6 344 424 383.4 424 432L424 472C424 485.3 413.3 496 400 496C386.7 496 376 485.3 376 472L376 432C376 409.9 358.1 392 336 392L278.5 392L312 422.2C321.9 431.1 322.7 446.2 313.8 456.1C304.9 466 289.8 466.8 279.9 457.9L199.9 385.9C194.8 381.3 192 374.9 192 368.1C192 361.3 194.9 354.8 199.9 350.3L279.9 278.3C289.8 269.4 304.9 270.2 313.8 280.1z"/></svg>