<svg xmlns="http://www.w3.org/2000/svg" viewBox="0 0 640 640"><!--! Font Awesome Pro 7.2.0 by @fontawesome - https://fontawesome.com License - https://fontawesome.com/license (Commercial License) Copyright 2026 Fonticons, Inc. --><path fill="currentColor" d="M355.2 85C348.2 72.1 334.7 64 320 64C305.3 64 291.8 72.1 284.8 85L68.8 485C62.1 497.4 62.4 512.4 69.6 524.5C76.8 536.6 89.9 544 104 544L536 544C550.1 544 563.1 536.6 570.4 524.5C577.7 512.4 577.9 497.4 571.2 485L355.2 85zM224.5 332C226.3 325 232.7 320 240 320L276.2 320C294.4 320 311 330.3 319.1 346.5L329.9 368.1L386.6 402.1L397.9 381.5C404 370.4 419.9 370.4 426 381.5L467 456.2C472.8 466.9 465.1 479.9 453 479.9L371 479.9C358.8 479.9 351.1 466.9 357 456.2L371.3 430.1L309.7 393.1L232.2 349.8C225.8 346.2 222.7 338.8 224.5 331.8zM304 224C321.7 224 336 238.3 336 256C336 273.7 321.7 288 304 288C286.3 288 272 273.7 272 256C272 238.3 286.3 224 304 224zM207.3 378.9C211.6 377.7 216.3 378.3 220.1 380.7L280.4 418.4C285.1 421.3 287.9 426.5 287.9 432L287.9 464C287.9 472.8 280.7 480 271.9 480C263.1 480 255.9 472.8 255.9 464L255.9 440.9L218 417.2L191.2 471.1C187.3 479 177.7 482.2 169.7 478.3C161.7 474.4 158.6 464.8 162.5 456.8L197.2 387.1C199.2 383.1 202.8 380.1 207.2 378.8z"/></svg>