<svg xmlns="http://www.w3.org/2000/svg" viewBox="0 0 640 640"><!--! Font Awesome Pro 7.2.0 by @fontawesome - https://fontawesome.com License - https://fontawesome.com/license (Commercial License) Copyright 2026 Fonticons, Inc. --><path fill="currentColor" d="M41.9 169.4C54.4 156.9 74.7 156.9 87.1 169.4L215.1 297.4L217.3 299.8C227.5 312.4 226.8 330.9 215.1 342.6L87.1 470.6L84.7 472.8C72.1 483 53.6 482.3 41.9 470.6C30.2 458.9 29.5 440.4 39.7 427.8L41.9 425.4L147.2 320L41.9 214.6C29.4 202.1 29.4 181.8 41.9 169.4zM233.9 169.4C246.4 156.9 266.7 156.9 279.1 169.4L407.1 297.4L409.3 299.8C419.5 312.4 418.8 330.9 407.1 342.6L279.1 470.6L276.7 472.8C264.1 483 245.6 482.3 233.9 470.6C222.2 458.9 221.5 440.4 231.7 427.8L233.9 425.4L339.3 320L233.9 214.6C221.4 202.1 221.4 181.8 233.9 169.4zM425.9 169.4C438.4 156.9 458.7 156.9 471.1 169.4L599.1 297.4L601.3 299.8C611.5 312.4 610.8 330.9 599.1 342.6L471.1 470.6L468.7 472.8C456.1 483 437.6 482.3 425.9 470.6C414.2 458.9 413.5 440.4 423.7 427.8L425.9 425.4L531.3 320L425.9 214.6C413.4 202.1 413.4 181.8 425.9 169.4z"/></svg>