<svg xmlns="http://www.w3.org/2000/svg" viewBox="0 0 640 640"><!--! Font Awesome Pro 7.2.0 by @fontawesome - https://fontawesome.com License - https://fontawesome.com/license (Commercial License) Copyright 2026 Fonticons, Inc. --><path fill="currentColor" d="M24 96L328 96C341.3 96 352 106.7 352 120C352 133.3 341.3 144 328 144L320 144L320 224L328 224C341.3 224 352 234.7 352 248C352 261.3 341.3 272 328 272L24 272C10.7 272 0 261.3 0 248C0 234.7 10.7 224 24 224L32 224L32 144L24 144C10.7 144 0 133.3 0 120C0 106.7 10.7 96 24 96zM272 144L240 144L240 224L272 224L272 144zM192 144L160 144L160 224L192 224L192 144zM112 144L80 144L80 224L112 224L112 144zM32 368C32 341.5 53.5 320 80 320L384 320L384 192C384 174.3 398.3 160 416 160L488.4 160C512.6 160 534.8 173.7 545.6 195.4L601.2 306.5C605.5 315 608 324.8 608 335.1L608 416C608 451.3 579.3 480 544 480L540.7 480C530.3 516.9 496.3 544 456 544C415.7 544 381.8 516.9 371.3 480L268.7 480C258.3 516.9 224.3 544 184 544C143.7 544 109.8 516.9 99.3 480L80 480C53.5 480 32 458.5 32 432L32 368zM488.4 224L448 224L448 320L536.4 320L488.4 224zM224 456C224 433.9 206.1 416 184 416C161.9 416 144 433.9 144 456C144 478.1 161.9 496 184 496C206.1 496 224 478.1 224 456zM456 496C478.1 496 496 478.1 496 456C496 433.9 478.1 416 456 416C433.9 416 416 433.9 416 456C416 478.1 433.9 496 456 496z"/></svg>