<svg xmlns="http://www.w3.org/2000/svg" viewBox="0 0 640 640"><!--! Font Awesome Pro 7.2.0 by @fontawesome - https://fontawesome.com License - https://fontawesome.com/license (Commercial License) Copyright 2026 Fonticons, Inc. --><path fill="currentColor" d="M96 96C60.7 96 32 124.7 32 160L32 448C32 483.3 60.7 512 96 512L99.3 512C109.7 548.9 143.7 576 184 576C224.3 576 258.2 548.9 268.7 512L371.3 512C381.7 548.9 415.7 576 456 576C496.3 576 530.2 548.9 540.7 512L544 512C579.3 512 608 483.3 608 448L608 301.3C608 284.3 601.3 268 589.3 256L544 210.7C532 198.7 515.7 192 498.7 192L448 192L448 160C448 124.7 419.3 96 384 96L96 96zM544 301.3L544 352L448 352L448 256L498.7 256L544 301.3zM184 448C206.1 448 224 465.9 224 488C224 510.1 206.1 528 184 528C161.9 528 144 510.1 144 488C144 465.9 161.9 448 184 448zM416 488C416 465.9 433.9 448 456 448C478.1 448 496 465.9 496 488C496 510.1 478.1 528 456 528C433.9 528 416 510.1 416 488zM128 272C128 210.1 178.1 160 240 160C301.9 160 352 210.1 352 272C352 333.9 301.9 384 240 384C178.1 384 128 333.9 128 272zM240 206.2C231.2 206.2 224 213.4 224 222.2L224 272C224 280.8 231.2 288 240 288L277.3 288C286.1 288 293.3 280.8 293.3 272C293.3 263.2 286.1 256 277.3 256L256 256L256 222.2C256 213.4 248.8 206.2 240 206.2z"/></svg>