<svg xmlns="http://www.w3.org/2000/svg" viewBox="0 0 640 640"><!--! Font Awesome Pro 7.2.0 by @fontawesome - https://fontawesome.com License - https://fontawesome.com/license (Commercial License) Copyright 2026 Fonticons, Inc. --><path fill="currentColor" d="M144 128L192 320L96 320C60.7 320 32 348.7 32 384L32 448C32 483.3 60.7 512 96 512L99.3 512C109.7 548.9 143.7 576 184 576C224.3 576 258.2 548.9 268.7 512L371.3 512C381.7 548.9 415.7 576 456 576C496.3 576 530.2 548.9 540.7 512L544 512C579.3 512 608 483.3 608 448L608 329.2C608 323.1 606.8 317 604.6 311.4L556.1 190.2C548.8 171.9 531.1 160 511.5 160L400 160C373.5 160 352 181.5 352 208L352 316.8L148.9 43.8C143.3 36.4 134.6 32 125.3 32C109.1 32 96 45.1 96 61.3L96 192C96 200.8 88.8 208 80 208C71.2 208 64 200.8 64 192L64 184C64 170.7 53.3 160 40 160C26.7 160 16 170.7 16 184L16 192C16 227.3 44.7 256 80 256C115.3 256 144 227.3 144 192L144 128zM536 320L416 320L416 224L500.7 224L539.1 320.1C538.1 320.1 537 320 536 320zM144 488C144 465.9 161.9 448 184 448C206.1 448 224 465.9 224 488C224 510.1 206.1 528 184 528C161.9 528 144 510.1 144 488zM456 448C478.1 448 496 465.9 496 488C496 510.1 478.1 528 456 528C433.9 528 416 510.1 416 488C416 465.9 433.9 448 456 448z"/></svg>