<svg xmlns="http://www.w3.org/2000/svg" viewBox="0 0 640 640"><!--! Font Awesome Pro 7.2.0 by @fontawesome - https://fontawesome.com License - https://fontawesome.com/license (Commercial License) Copyright 2026 Fonticons, Inc. --><path fill="currentColor" d="M32 88C32 101.3 42.7 112 56 112L64 112L64 200.6C44.9 211.6 32 232.3 32 256L32 304L336 304L336 112L584 112C597.3 112 608 101.3 608 88C608 74.7 597.3 64 584 64L56 64C42.7 64 32 74.7 32 88zM32 352L32 448C32 483.3 60.7 512 96 512L99.3 512C109.7 548.9 143.7 576 184 576C224.3 576 258.2 548.9 268.7 512L371.3 512C381.7 548.9 415.7 576 456 576C496.3 576 530.2 548.9 540.7 512L544 512C579.3 512 608 483.3 608 448L608 256C608 220.7 579.3 192 544 192L512 192C512 174.3 497.7 160 480 160C462.3 160 448 174.3 448 192L384 192L384 328C384 341.3 373.3 352 360 352L32 352zM288 192L224 192L224 112L288 112L288 192zM112 112L176 112L176 192L112 192L112 112zM448 352L448 256L544 256L544 352L448 352zM184 448C206.1 448 224 465.9 224 488C224 510.1 206.1 528 184 528C161.9 528 144 510.1 144 488C144 465.9 161.9 448 184 448zM416 488C416 465.9 433.9 448 456 448C478.1 448 496 465.9 496 488C496 510.1 478.1 528 456 528C433.9 528 416 510.1 416 488z"/></svg>