<svg xmlns="http://www.w3.org/2000/svg" viewBox="0 0 640 640"><!--! Font Awesome Pro 7.2.0 by @fontawesome - https://fontawesome.com License - https://fontawesome.com/license (Commercial License) Copyright 2026 Fonticons, Inc. --><path fill="currentColor" d="M159.2 96C127.6 96 98.9 114.6 86.1 143.5L38.9 249.7C34.3 259.9 32 271 32 282.2L32 384C32 414 52.7 439.2 80.5 446.1C80.1 449.3 80 452.6 80 456C80 504.6 119.4 544 168 544C216.6 544 256 504.6 256 456C256 453.3 255.9 450.6 255.6 448L384.3 448C384.1 450.6 383.9 453.3 383.9 456C383.9 504.6 423.3 544 471.9 544C520.5 544 559.9 504.6 559.9 456C559.9 452.7 559.7 449.4 559.4 446.1C587.3 439.2 607.9 414 607.9 384L607.9 320C607.9 284.7 579.2 256 543.9 256L522.8 256L457.6 137.4C443.7 111.9 416.8 96 387.6 96L159.2 96zM449.9 256L288 256L288 160L387.6 160C393.4 160 398.8 163.2 401.6 168.3L449.9 256zM224 256L106.1 256L144.5 169.5C147.1 163.7 152.8 160 159.1 160L223.9 160L223.9 256zM128 456C128 433.9 145.9 416 168 416C190.1 416 208 433.9 208 456C208 478.1 190.1 496 168 496C145.9 496 128 478.1 128 456zM472 416C494.1 416 512 433.9 512 456C512 478.1 494.1 496 472 496C449.9 496 432 478.1 432 456C432 433.9 449.9 416 472 416z"/></svg>