<svg xmlns="http://www.w3.org/2000/svg" viewBox="0 0 640 640"><!--! Font Awesome Pro 7.2.0 by @fontawesome - https://fontawesome.com License - https://fontawesome.com/license (Commercial License) Copyright 2026 Fonticons, Inc. --><path fill="currentColor" d="M352 176C352 131.8 387.8 96 432 96L608 96L608 488C608 536.6 568.6 576 520 576C471.4 576 432 536.6 432 488C432 485.3 432.1 482.6 432.4 480L388.7 480L73.2 574.6C56.3 579.7 38.4 570.1 33.4 553.1C28.4 536.1 37.9 518.3 54.9 513.3L352 424.2L352 176zM560 487.9C559.9 465.9 542.1 448 520 448C497.9 448 480 465.9 480 488C480 510.1 497.9 528 520 528C542.1 528 560 510.1 560 488L560 487.9z"/></svg>