<svg xmlns="http://www.w3.org/2000/svg" viewBox="0 0 640 640"><!--! Font Awesome Pro 7.2.0 by @fontawesome - https://fontawesome.com License - https://fontawesome.com/license (Commercial License) Copyright 2026 Fonticons, Inc. --><path fill="currentColor" d="M628.7 128.7C635.4 130.8 640 137 640 144L640 432C640 439 635.4 445.2 628.7 447.3C622 449.4 614.7 446.8 610.7 441.1C595 418.6 575.7 398.2 555.3 380C520.5 349.1 474.6 320.4 424.9 320L399.9 320L399.9 446C427.5 438.9 447.9 413.8 447.9 384L447.9 371.3C468.6 376.8 489.9 388.8 510.2 404.8C500.3 465.6 447.5 512 383.9 512L191.9 512C121.2 512 63.9 454.7 63.9 384C63.9 360.7 70.1 338.8 81 320L46.5 320C43.2 329.3 34.3 336 23.9 336C10.6 336-.1 325.3-.1 312L-.1 264C-.1 250.7 10.6 240 23.9 240C34.3 240 43.2 246.7 46.5 256L175.9 256L175.9 216C175.9 202.7 186.6 192 199.9 192C213.2 192 223.9 202.7 223.9 216L223.9 256L263.9 256L263.9 216C263.9 202.7 274.6 192 287.9 192C301.2 192 311.9 202.7 311.9 216L311.9 256L351.9 256L351.9 216C351.9 202.7 362.6 192 375.9 192C389.2 192 399.9 202.7 399.9 216L399.9 256C403.9 256 411.9 256 423.9 256C474 256 520.3 227.2 555.3 196C575.7 177.8 595 157.4 610.7 134.9C614.7 129.1 621.9 126.6 628.6 128.7zM176 322C148.4 329.1 128 354.2 128 384C128 413.8 148.4 438.9 176 446L176 322zM224 448L264 448L264 320L224 320L224 448zM312 448L352 448L352 320L312 320L312 448z"/></svg>