<svg xmlns="http://www.w3.org/2000/svg" viewBox="0 0 640 640"><!--! Font Awesome Pro 7.2.0 by @fontawesome - https://fontawesome.com License - https://fontawesome.com/license (Commercial License) Copyright 2026 Fonticons, Inc. --><path fill="currentColor" d="M337 71C327.6 61.6 312.4 61.6 303.1 71L159 215C152.1 221.9 150.1 232.2 153.8 241.2C157.5 250.2 166.3 256 176 256L256 256L256 368C256 394.5 277.5 416 304 416L336 416C362.5 416 384 394.5 384 368L384 256L464 256C473.7 256 482.5 250.2 486.2 241.2C489.9 232.2 487.9 221.9 481 215L337 71zM160 416C160 398.3 145.7 384 128 384C110.3 384 96 398.3 96 416L96 480C96 533 139 576 192 576L448 576C501 576 544 533 544 480L544 416C544 398.3 529.7 384 512 384C494.3 384 480 398.3 480 416L480 480C480 497.7 465.7 512 448 512L192 512C174.3 512 160 497.7 160 480L160 416z"/></svg>