<svg xmlns="http://www.w3.org/2000/svg" viewBox="0 0 640 640"><!--! Font Awesome Pro 7.2.0 by @fontawesome - https://fontawesome.com License - https://fontawesome.com/license (Commercial License) Copyright 2026 Fonticons, Inc. --><path fill="currentColor" d="M312 48C303.2 48 296 55.2 296 64L288 64C235 64 192 107 192 160L192 224L139.6 328.8C134.3 339.5 142 352 153.9 352L226.4 352C236.9 361.9 251.1 368 266.7 368L373.4 368C389 368 403.2 361.9 413.7 352L486.2 352C498.1 352 505.8 339.5 500.5 328.8L448 224L448 160C448 107 405 64 352 64L344 64C344 55.2 336.8 48 328 48L312 48zM272 176L288 176C296.8 176 304 183.2 304 192L304 208C304 216.8 296.8 224 288 224L256 224C247.2 224 240 216.8 240 208C240 190.3 254.3 176 272 176zM400 208C400 216.8 392.8 224 384 224L352 224C343.2 224 336 216.8 336 208L336 192C336 183.2 343.2 176 352 176L368 176C385.7 176 400 190.3 400 208zM336 256L336 268L379.7 300.8C382.4 302.8 384 306 384 309.3C384 315.2 379.2 320 373.3 320L266.6 320C260.7 320 255.9 315.2 255.9 309.3C255.9 305.9 257.5 302.8 260.2 300.8L303.9 268L303.9 256C303.9 247.2 311.1 240 319.9 240C328.7 240 335.9 247.2 335.9 256zM112 553.1C112 565.8 122.2 576 134.9 576L200 576L200 536C200 522.7 210.7 512 224 512C237.3 512 248 522.7 248 536L248 576L296 576L296 536C296 522.7 306.7 512 320 512C333.3 512 344 522.7 344 536L344 576L392 576L392 536C392 522.7 402.7 512 416 512C429.3 512 440 522.7 440 536L440 576L505.1 576C517.7 576 528 565.8 528 553.1C528 477.4 466.6 416 390.9 416L249.2 416C173.4 416 112 477.4 112 553.1z"/></svg>