<svg xmlns="http://www.w3.org/2000/svg" viewBox="0 0 640 640"><!--! Font Awesome Pro 7.2.0 by @fontawesome - https://fontawesome.com License - https://fontawesome.com/license (Commercial License) Copyright 2026 Fonticons, Inc. --><path fill="currentColor" d="M256 312C322.3 312 376 258.3 376 192C376 125.7 322.3 72 256 72C189.7 72 136 125.7 136 192C136 258.3 189.7 312 256 312zM226.3 368C127.8 368 48 447.8 48 546.3C48 562.7 61.3 576 77.7 576L378.4 576C333.4 544.1 303.9 491.6 303.9 432.2L303.9 424.2C303.9 403.9 312.3 385.6 325.8 372.5C312.9 369.5 299.4 368 285.6 368L226.2 368zM432 336L432 432C432 458.5 453.5 480 480 480C506.5 480 528 458.5 528 432L528 336C528 309.5 506.5 288 480 288C453.5 288 432 309.5 432 336zM376 400C362.7 400 352 410.7 352 424L352 432C352 494.5 396.8 546.5 456 557.8L456 584C456 597.3 466.7 608 480 608C493.3 608 504 597.3 504 584L504 557.8C563.2 546.6 608 494.5 608 432L608 424C608 410.7 597.3 400 584 400C570.7 400 560 410.7 560 424L560 432C560 476.2 524.2 512 480 512C435.8 512 400 476.2 400 432L400 424C400 410.7 389.3 400 376 400z"/></svg>