<svg xmlns="http://www.w3.org/2000/svg" viewBox="0 0 640 640"><!--! Font Awesome Pro 7.2.0 by @fontawesome - https://fontawesome.com License - https://fontawesome.com/license (Commercial License) Copyright 2026 Fonticons, Inc. --><path fill="currentColor" d="M272 192C272 227.3 243.3 256 208 256C172.7 256 144 227.3 144 192L272 192zM96 89.9L96 192C96 253.9 146.1 304 208 304C269.9 304 320 253.9 320 192L320 89.9C320 78 307.5 70.3 296.8 75.6L266.3 90.8C260.1 93.9 252.7 92.7 247.8 87.8L219.3 59.3C213.1 53.1 202.9 53.1 196.7 59.3L168.2 87.8C163.3 92.7 155.9 93.9 149.7 90.8L119.2 75.6C108.5 70.3 96 78 96 89.9zM464 320C517 320 560 277 560 224C560 171 517 128 464 128C411 128 368 171 368 224C368 277 411 320 464 320zM464 368C435 368 408 376.6 385.5 391.3C414.7 429.1 432 476.5 432 528L432 534C432 549.2 428.2 563.5 421.6 576L566.4 576C589.4 576 608 557.4 608 534.4L608 512C608 432.5 543.5 368 464 368zM208 352C110.8 352 32 430.8 32 528L32 534C32 557.2 50.8 576 74 576L342 576C365.2 576 384 557.2 384 534L384 528C384 430.8 305.2 352 208 352z"/></svg>