<svg xmlns="http://www.w3.org/2000/svg" viewBox="0 0 640 640"><!--! Font Awesome Pro 7.2.0 by @fontawesome - https://fontawesome.com License - https://fontawesome.com/license (Commercial License) Copyright 2026 Fonticons, Inc. --><path fill="currentColor" d="M256 312C322.3 312 376 258.3 376 192C376 125.7 322.3 72 256 72C189.7 72 136 125.7 136 192C136 258.3 189.7 312 256 312zM226.3 368C127.8 368 48 447.8 48 546.3C48 562.7 61.3 576 77.7 576L400 576L400 496C363 468.2 338.4 424.7 336.2 375.2C320.2 370.5 303.3 368 285.8 368L226.4 368zM608 368C608 306.1 557.9 256 496 256C434.1 256 384 306.1 384 368C384 412.7 410.2 451.2 448 469.2L448 585.4C448 589.6 449.7 593.7 452.7 596.7L484.7 628.7C490.9 634.9 501.1 634.9 507.3 628.7L548.7 587.3C554.9 581.1 554.9 570.9 548.7 564.7L528 544L549.9 522.1C555.7 516.3 556.2 507.2 551.1 500.8L530.2 474.7C575.3 460.3 608 417.9 608 368zM464 352C464 334.3 478.3 320 496 320C513.7 320 528 334.3 528 352C528 369.7 513.7 384 496 384C478.3 384 464 369.7 464 352z"/></svg>