<svg xmlns="http://www.w3.org/2000/svg" viewBox="0 0 640 640"><!--! Font Awesome Pro 7.2.0 by @fontawesome - https://fontawesome.com License - https://fontawesome.com/license (Commercial License) Copyright 2026 Fonticons, Inc. --><path fill="currentColor" d="M230.9 64L281 64C337.8 64 383.9 110.1 383.9 166.9C383.9 172.9 384.9 178.9 387 184.5L412.2 253.8C414.6 260.5 415.9 267.6 415.9 274.8C415.9 299.4 401.3 320.8 380.2 330.5C382.6 337.2 383.9 344.5 383.9 352C383.9 369.8 376.6 386 364.8 397.6C363.4 398.9 362 400.2 360.6 401.4C349.5 410.5 335.4 416 319.9 416C312.7 416 305.7 414.8 299.3 412.6C291.6 428.8 275.1 440 255.9 440C236.7 440 220.2 428.8 212.5 412.6C211.7 412.9 210.9 413.1 210.1 413.4C204.3 415.1 198.2 416 191.9 416C174.4 416 158.5 409 147 397.6C135.2 386 127.9 369.9 127.9 352C127.9 344.5 129.2 337.2 131.6 330.5C110.5 320.8 95.9 299.5 95.9 274.8C95.9 267.7 97.1 260.5 99.6 253.8L124.8 184.5C127 178.9 128 172.9 128 166.9C128 110.1 174.1 64 230.9 64zM336 192C336 180.6 333.6 169.8 329.3 160L312 160C287.9 160 266.9 146.7 256 127C245.1 146.7 224.1 160 200 160L182.7 160C178.4 169.8 176 180.6 176 192L176 208C176 220.5 178.9 232.4 184 243C184.9 242.5 185.8 241.9 186.6 241.2L187.2 240.6C205.4 222.4 230.2 212.1 256 212.1C281.8 212.1 306.5 222.3 324.8 240.6L325.4 241.2C326.2 242 327 242.6 328 243C333.1 232.4 336 220.6 336 208L336 192zM293.9 278.5C296.7 277 299.3 275.4 301.9 273.6C300.3 272.3 298.7 270.9 297.2 269.4L296.6 268.8C285.7 258 271.2 252 256 252C240.8 252 226.3 258 215.5 268.8L214.9 269.4C213.4 270.9 211.8 272.3 210.2 273.6C212.8 275.4 215.4 277 218.2 278.5C229.5 284.6 242.4 288 256.1 288C269.8 288 282.7 284.6 294 278.5zM192.5 464C209.4 478.9 231.6 488 256 488C280.4 488 302.6 478.9 319.5 464L320 464C325.4 464 330.8 463.6 336 462.9L336 463.5C336 498.3 363.5 526.6 397.9 528L385.2 570.4C384.6 572.3 384.2 574.2 383.8 576.1L75.4 576C60.3 576 48 563.7 48 548.6C48 498.5 70.4 453.6 105.7 423.4C126.2 448.2 157.3 464 192 464L192.5 464zM400.6 480C391.4 480 384 472.6 384 463.4C384 458.7 386 454.2 389.5 451L530.7 324.7C534.1 321.7 538.5 320 543.1 320C555.5 320 564.4 332 560.9 343.9L529.7 448L591.5 448C600.7 448 608.1 455.4 608.1 464.6C608.1 469.3 606.1 473.8 602.6 477L461.3 603.3C457.9 606.3 453.5 608 448.9 608C436.5 608 427.6 596 431.1 584.1L462.3 480L400.5 480z"/></svg>