<svg xmlns="http://www.w3.org/2000/svg" viewBox="0 0 640 640"><!--! Font Awesome Pro 7.2.0 by @fontawesome - https://fontawesome.com License - https://fontawesome.com/license (Commercial License) Copyright 2026 Fonticons, Inc. --><path fill="currentColor" d="M160 80C160 71.2 167.2 64 176 64L192 64C200.8 64 208 71.2 208 80C208 88.8 200.8 96 192 96L192 134C219.1 91.8 266.5 64 320 64C400.1 64 466.5 126.2 471.7 206.2L479 320.5C480.3 340.5 466.6 358.4 446.9 362.3L346.1 382.4C340.9 383.4 335.7 384 330.4 384L309.5 384C304.2 384 299 383.5 293.8 382.4L193 362.3C176.8 359.1 164.6 346.3 161.6 330.7C160.6 327.3 160 323.7 160 320L160 80zM320 112C274 112 234.6 142 221 184L419 184C405.4 142 366 112 320 112zM214.7 233.4C254.3 250.2 283.1 287.6 287.5 332.2L296.1 333.9L296.1 235.5L215.6 220.4L214.8 233.4zM344 333.9L352.6 332.2C356.9 287.6 385.7 250.2 425.4 233.4L424.6 220.4L344.1 235.5L344.1 333.9zM112 553.1C112 477.4 173.4 416 249.1 416L390.8 416C466.5 416 527.9 477.4 527.9 553.1C527.9 565.7 517.7 576 505 576L383.9 576L383.9 536C383.9 531 381.5 526.2 377.5 523.2L329.5 487.2C323.8 482.9 316 482.9 310.3 487.2L262.3 523.2C258.3 526.2 255.9 531 255.9 536L255.9 576L134.8 576C122.2 576 112 565.8 112 553.1z"/></svg>