<svg xmlns="http://www.w3.org/2000/svg" viewBox="0 0 640 640"><!--! Font Awesome Pro 7.2.0 by @fontawesome - https://fontawesome.com License - https://fontawesome.com/license (Commercial License) Copyright 2026 Fonticons, Inc. --><path fill="currentColor" d="M476.4 69.9C481.6 76.3 481.2 85.5 475.3 91.4L384 182.6C378.8 187.8 378.8 196.2 384 201.4C388.9 206.3 396.8 206.6 402.1 202L501.5 115.9C507.8 110.4 517.4 110.7 523.3 116.7C529.2 122.7 529.6 132.1 524.1 138.5L438 237.9C433.4 243.2 433.7 251.1 438.6 256C443.8 261.2 452.2 261.2 457.4 256L548.7 164.7C554.5 158.9 563.8 158.4 570.2 163.6C576.6 168.8 577.9 178 573.4 184.8L502.4 291.3C483.8 319.2 452.5 335.9 419 335.9C399.7 335.9 381.1 330.4 365.1 320.2L118.6 566.6C106.1 579.1 85.8 579.1 73.3 566.6C60.8 554.1 60.8 533.8 73.3 521.3L319.7 275C309.5 259 304 240.3 304 221.1C304 187.6 320.8 156.3 348.6 137.7L455.1 66.7C461.9 62.1 471.1 63.5 476.3 69.9z"/></svg>