<svg xmlns="http://www.w3.org/2000/svg" viewBox="0 0 640 640"><!--! Font Awesome Pro 7.2.0 by @fontawesome - https://fontawesome.com License - https://fontawesome.com/license (Commercial License) Copyright 2026 Fonticons, Inc. --><path fill="currentColor" d="M64 192C64 156.7 92.7 128 128 128L384 128C419.3 128 448 156.7 448 192L448 448C448 483.3 419.3 512 384 512L128 512C92.7 512 64 483.3 64 448L64 192zM496 240L569.5 181.2C573.7 177.8 578.9 176 584.3 176C597.4 176 608 186.6 608 199.7L608 440.3C608 453.4 597.4 464 584.3 464C578.9 464 573.7 462.2 569.5 458.8L496 400L496 240zM304 360C304 373.3 314.7 384 328 384C341.3 384 352 373.3 352 360L352 248C352 234.7 341.3 224 328 224L216 224C202.7 224 192 234.7 192 248C192 261.3 202.7 272 216 272L270.1 272L167.1 375C157.7 384.4 157.7 399.6 167.1 408.9C176.5 418.2 191.7 418.3 201 408.9L304 305.9L304 360z"/></svg>