<svg xmlns="http://www.w3.org/2000/svg" viewBox="0 0 640 640"><!--! Font Awesome Pro 7.2.0 by @fontawesome - https://fontawesome.com License - https://fontawesome.com/license (Commercial License) Copyright 2026 Fonticons, Inc. --><path fill="currentColor" d="M64 192C64 156.7 92.7 128 128 128L384 128C419.3 128 448 156.7 448 192L448 448C448 483.3 419.3 512 384 512L128 512C92.7 512 64 483.3 64 448L64 192zM496 240L569.5 181.2C573.7 177.8 578.9 176 584.3 176C597.4 176 608 186.6 608 199.7L608 440.3C608 453.4 597.4 464 584.3 464C578.9 464 573.7 462.2 569.5 458.8L496 400L496 240zM256 248C272.1 248 285.2 261.1 285.2 277.2C285.2 285.9 282.1 291.1 278.3 294.9C273.8 299.3 267.6 302.4 261.5 304.4C246.6 309.4 232 323.7 232 343.9C232 357.2 242.7 367.9 256 367.9C267.5 367.9 277.2 359.8 279.5 348.9C298.7 341.8 333.2 322.6 333.2 277.1C333.2 234.5 298.6 199.9 256 199.9C213.4 199.9 178.8 234.5 178.8 277.1C178.8 290.4 189.5 301.1 202.8 301.1C216.1 301.1 226.8 290.4 226.8 277.1C226.8 261 239.9 247.9 256 247.9zM284 416C284 400.5 271.5 388 256 388C240.5 388 228 400.5 228 416C228 431.5 240.5 444 256 444C271.5 444 284 431.5 284 416z"/></svg>