<svg xmlns="http://www.w3.org/2000/svg" viewBox="0 0 640 640"><!--! Font Awesome Pro 7.2.0 by @fontawesome - https://fontawesome.com License - https://fontawesome.com/license (Commercial License) Copyright 2026 Fonticons, Inc. --><path fill="currentColor" d="M192 160C174.3 160 160 174.3 160 192L160 224L384 224C419.3 224 448 252.7 448 288L448 480C448 515.3 419.3 544 384 544L128 544C92.7 544 64 515.3 64 480L64 288C64 264.3 76.9 243.6 96 232.6L96 192C96 139 139 96 192 96L352 96C369.7 96 384 110.3 384 128C384 145.7 369.7 160 352 160L192 160zM496 464L496 304L569.5 245.2C573.7 241.8 578.9 240 584.3 240C597.4 240 608 250.6 608 263.7L608 504.3C608 517.4 597.4 528 584.3 528C578.9 528 573.7 526.2 569.5 522.8L496 464zM152 288C138.7 288 128 298.7 128 312C128 325.3 138.7 336 152 336L360 336C373.3 336 384 325.3 384 312C384 298.7 373.3 288 360 288L152 288z"/></svg>