<svg xmlns="http://www.w3.org/2000/svg" viewBox="0 0 640 640"><!--! Font Awesome Pro 7.2.0 by @fontawesome - https://fontawesome.com License - https://fontawesome.com/license (Commercial License) Copyright 2026 Fonticons, Inc. --><path fill="currentColor" d="M32 544L32 206.1C32 178.6 49.6 154.1 75.8 145.4L304.8 69.1C314.7 65.8 325.3 65.8 335.2 69.1L564.2 145.4C590.3 154.1 608 178.6 608 206.1L608 544C608 561.7 593.7 576 576 576C558.3 576 544 561.7 544 544L544 288C544 270.3 529.7 256 512 256L128 256C110.3 256 96 270.3 96 288L96 544C96 561.7 81.7 576 64 576C46.3 576 32 561.7 32 544zM192 320L320 320C337.7 320 352 334.3 352 352L352 432C352 440.8 359.2 448 368 448L448 448C465.7 448 480 462.3 480 480L480 544C480 561.7 465.7 576 448 576L192 576C174.3 576 160 561.7 160 544L160 352C160 334.3 174.3 320 192 320z"/></svg>