<svg xmlns="http://www.w3.org/2000/svg" viewBox="0 0 640 640"><!--! Font Awesome Pro 7.2.0 by @fontawesome - https://fontawesome.com License - https://fontawesome.com/license (Commercial License) Copyright 2026 Fonticons, Inc. --><path fill="currentColor" d="M56.5 217C76.6 163.5 127.7 128 184.9 128C241 128 291.4 162.1 312.2 214.2L387.3 402C398.4 429.8 425.3 448 455.2 448C485.7 448 513 429.1 523.7 400.6L546 340.8C552.2 324.3 570.6 315.9 587.2 322.1C603.8 328.3 612.1 346.7 605.9 363.3L583.5 423C563.4 476.5 512.3 512 455.1 512C399 512 348.6 477.9 327.8 425.8L252.7 238C241.6 210.2 214.7 192 184.8 192C154.3 192 127 210.9 116.3 239.4L94 299.2C87.8 315.7 69.3 324.1 52.8 317.9C36.3 311.7 27.8 293.3 34 276.8L56.5 217z"/></svg>