<svg xmlns="http://www.w3.org/2000/svg" viewBox="0 0 640 640"><!--! Font Awesome Pro 7.2.0 by @fontawesome - https://fontawesome.com License - https://fontawesome.com/license (Commercial License) Copyright 2026 Fonticons, Inc. --><path fill="currentColor" d="M237.1 289.5L175.4 400C149.2 400.4 128.1 421.7 128.1 448C128.1 474.5 149.6 496 176.1 496C202.6 496 224.1 474.5 224.1 448C224.1 439 221.6 430.6 217.3 423.4L289.6 294.1C296 282.6 292 268 280.5 261.5C250.1 244.2 233.6 208.2 242.5 172.6C253.2 129.7 296.6 103.6 339.5 114.3C375.1 123.2 399.2 154.6 400.1 189.6C400.5 202.8 411.5 213.3 424.8 212.9C438.1 212.5 448.5 201.5 448.1 188.2C446.5 132.2 408.1 81.9 351.1 67.7C282.5 50.6 213 92.4 195.9 161C183.7 209.8 201.4 259 237.2 289.5zM361.3 216.4C365.6 209.2 368 200.9 368 191.9C368 165.4 346.5 143.9 320 143.9C293.5 143.9 272 165.4 272 191.9C272 218.2 293.2 239.6 319.5 239.9L392.1 369C395.2 374.5 400.4 378.6 406.6 380.3C412.8 382 419.3 381.2 424.8 378.1C455.3 360.9 494.7 365.4 520.6 391.3C551.8 422.5 551.8 473.2 520.6 504.4C494.7 530.3 455.3 534.8 424.8 517.6C413.3 511.1 398.6 515.2 392.1 526.7C385.6 538.2 389.7 552.9 401.2 559.4C450 586.9 512.9 579.9 554.5 538.3C604.5 488.3 604.5 407.3 554.5 357.3C519 321.8 467.8 311.5 423.3 326.4L361.3 216.2zM464 496C490.5 496 512 474.5 512 448C512 421.5 490.5 400 464 400C446.2 400 430.7 409.7 422.4 424L280 424C273.6 424 267.5 426.5 263 431C258.5 435.5 256 441.6 256 448C256 482.8 233.1 514.8 198 524.9C155.5 537.1 111.2 512.5 99 470C88.9 434.7 104.1 398.2 133.9 379.8C145.2 372.9 148.7 358.1 141.8 346.8C134.9 335.5 120.1 332 108.8 338.9C61.1 368.2 36.7 426.7 52.9 483.2C72.4 551.2 143.3 590.4 211.2 571C259.2 557.2 292.9 517.8 301.7 472L422.4 472C430.7 486.3 446.2 496 464 496z"/></svg>