<svg xmlns="http://www.w3.org/2000/svg" viewBox="0 0 640 640"><!--! Font Awesome Pro 7.2.0 by @fontawesome - https://fontawesome.com License - https://fontawesome.com/license (Commercial License) Copyright 2026 Fonticons, Inc. --><path fill="currentColor" d="M39 39.1C47.8 30.3 61.7 29.8 71.1 37.4L72.9 39.1L600.9 567.1L602.6 568.9C610.3 578.3 609.7 592.2 600.9 601C592.1 609.8 578.2 610.3 568.8 602.7L567 601.1L39 73.1L37.4 71.2C29.7 61.8 30.2 47.9 39 39.1zM81 593C71.6 602.3 56.5 602.3 47.1 593C37.7 583.6 37.7 568.4 47.1 559.1L81 593zM111.2 298.6C117.4 294.5 125.9 295.2 131.3 300.7L177.4 346.8L183.5 353.5C203.2 377.3 209.7 408.5 202.7 437.4C234.4 429.7 268.9 438.4 293.3 462.7L339.4 508.8C345.6 515 345.6 525.2 339.4 531.4L332 538.8C294.5 576.3 233.7 576.3 196.2 538.8L165.7 508.3L81 593C69.7 581.7 58.4 570.3 47.1 559L131.8 474.3L101.3 443.8C63.8 406.3 63.8 345.5 101.3 308L108.7 300.6L111.2 298.5zM526.7 79C536.1 69.6 551.3 69.6 560.6 79C569.4 87.8 569.9 101.7 562.3 111.1L560.7 113L446.2 227.4C453.9 228.4 461.5 230.4 468.7 233.3L527 175C536.4 165.6 551.6 165.6 561 175C569.8 183.8 570.3 197.7 562.6 207.1L560.9 208.9L508.2 261.6L547.2 300.6C553.4 306.8 553.4 317 547.2 323.2L539.8 330.6C502.3 368.1 441.5 368.1 404 330.6L309.1 235.7C271.6 198.2 271.6 137.4 309.1 100L316.5 92.6L319 90.5C325.2 86.4 333.7 87.1 339.1 92.6L378.1 131.6L430.8 78.9C440.2 69.5 455.4 69.5 464.8 78.9C473.6 87.7 474.1 101.6 466.4 111L465 113L406.7 171.2C409.5 178.3 411.4 185.7 412.4 193.3L526.7 79z"/></svg>