<svg xmlns="http://www.w3.org/2000/svg" viewBox="0 0 640 640"><!--! Font Awesome Pro 7.2.0 by @fontawesome - https://fontawesome.com License - https://fontawesome.com/license (Commercial License) Copyright 2026 Fonticons, Inc. --><path opacity=".4" fill="currentColor" d="M48 492C48 463 66.2 438.1 91.9 428.4C95.5 427.1 97.6 423.4 97 419.6C90.1 376.8 124.3 336 168.1 336C190.6 336 210.7 346.3 223.9 362.5C226.2 365.3 230 366.2 233.3 364.7C269.7 348.5 313.6 377.7 312 418.2C311.8 421.9 314.3 425.3 317.9 426.3C346.8 434.1 368.1 460.6 368.1 491.9C368.1 529.4 337.7 559.8 300.2 559.8L116 559.8C80.8 559.8 51.9 533.1 48.4 498.8L48 492zM64.5 255.8L139 205.7C141.7 203.9 143 200.7 142.4 197.5L125.2 109.3L213.5 126.4C215.1 126.7 216.7 126.5 218.1 125.9C219.5 125.3 220.8 124.3 221.7 123L272.2 48.4L322.3 123C324.1 125.7 327.3 127 330.5 126.4L418.7 109.2L401.6 197.6C401 200.8 402.3 204 405 205.8L420.4 216.2C391.5 216.9 364.7 226.1 342.5 241.4L342.5 241.4C344.8 239.8 347.2 238.3 349.6 236.8C341 202 309.5 176.1 272 176.1C227.8 176.1 192 211.9 192 256.1C192 262.5 192.8 268.7 194.2 274.7C185.7 273 176.9 272.1 167.9 272.1C143.3 272.1 120.2 278.6 100.3 290.1L100.3 290.1C103 288.6 105.7 287.1 108.5 285.8L64.5 255.8zM357.4 332.7C368.1 306.4 393.9 288 424.1 288C459.5 288 488.9 313.6 494.9 347.3C495.3 349.4 496.5 351.3 498.3 352.6C500.1 353.9 502.3 354.2 504.5 353.8C509.5 352.7 514.8 352.1 520.1 352.1C559.9 352.1 592.1 384.3 592.1 424.1C592.1 463.9 559.9 496.1 520.1 496.1L431.9 496.1C431.7 498.8 431.5 501.4 431.2 504.1L431.2 504.1C431.8 498.9 432.2 493.5 432.2 488.1C432.2 445.2 412.3 406.9 381.4 382.1C377.3 363.7 369 347 357.6 332.9z"/><path fill="currentColor" d="M168 320C193.4 320 216.3 330.8 232.3 348C276.2 332.8 325.6 365.5 327.8 412.7C360.5 424.2 383.9 455.3 383.9 492C383.9 538.3 346.3 575.9 300 575.9L115.8 575.9C72.4 575.9 36.6 542.9 32.3 500.6L32 492C32 458.3 51.8 429.3 80.4 415.9C76 365.8 116.5 320 168 320zM168 336C124.3 336 90 376.8 96.9 419.6C97.5 423.4 95.4 427 91.8 428.4C66.1 438.1 47.9 462.9 47.9 492L48.2 498.9C51.7 533.1 80.6 559.9 115.8 559.9L300 559.9C337.5 559.9 367.9 529.5 367.9 492C367.9 460.6 346.6 434.2 317.7 426.4C314.1 425.4 311.6 422.1 311.8 418.3C313.4 377.7 269.5 348.6 233.1 364.8C229.8 366.3 225.9 365.3 223.7 362.6C210.5 346.4 190.4 336.1 167.9 336.1zM424 272C464.5 272 498.6 299.4 508.8 336.7C512.5 336.2 516.2 336 520 336C568.6 336 608 375.4 608 424C608 472.6 568.6 512 520 512L429.8 512C430.7 506.8 431.4 501.4 431.7 496L519.9 496C559.7 496 591.9 463.8 591.9 424C591.9 384.2 559.7 352 519.9 352C514.6 352 509.3 352.6 504.3 353.7C502.2 354.2 500 353.7 498.1 352.5C496.2 351.3 495 349.4 494.7 347.2C488.7 313.5 459.3 287.9 423.9 287.9C393.8 287.9 368 306.4 357.2 332.6C353.6 328.1 349.7 323.9 345.4 320C359.9 291.5 389.6 271.9 423.8 271.9zM272 32.4C276.7 32.4 282 34.4 285.2 39.2L332.6 109.6L415.9 93.3C421.6 92.2 426.8 94.5 430.1 97.8C433.4 101.1 435.7 106.3 434.6 112L418.3 195.3L453.6 219C444 217 434.1 215.9 424 215.9C422.8 215.9 421.6 215.9 420.4 216L405 205.7C402.3 203.9 401 200.7 401.6 197.5L418.7 109.1L330.5 126.3C327.3 126.9 324.1 125.6 322.3 122.9L272.2 48.4L221.7 123C220.8 124.3 219.5 125.3 218.1 125.9C216.7 126.5 215.1 126.7 213.5 126.4L125.1 109.3L142.4 197.5C143 200.7 141.7 203.9 139 205.7L64.5 255.9L108.6 285.7C103.2 288.3 98 291.3 93 294.6L55.3 269.2C50.5 266 48.5 260.6 48.5 255.9C48.5 251.2 50.5 245.9 55.3 242.7L125.7 195.3L109.5 112C108.4 106.3 110.7 101.1 114 97.8C117.3 94.5 122.5 92.2 128.2 93.3L211.5 109.6L258.9 39.2C262.1 34.4 267.4 32.4 272.1 32.4zM272 176C309.5 176 340.9 201.9 349.6 236.7C344.6 239.7 339.8 243.1 335.3 246.6C330.8 215.7 304.2 192 272.1 192C236.8 192 208.1 220.7 208.1 256C208.1 264.3 209.7 272.2 212.6 279.5C206.7 277.4 200.6 275.8 194.3 274.6C192.9 268.6 192.1 262.4 192.1 256C192.1 211.8 227.9 176 272.1 176z"/></svg>