<svg xmlns="http://www.w3.org/2000/svg" viewBox="0 0 640 640"><!--! Font Awesome Pro 7.2.0 by @fontawesome - https://fontawesome.com License - https://fontawesome.com/license (Commercial License) Copyright 2026 Fonticons, Inc. --><path opacity=".4" fill="currentColor" d="M48 160C48 151.2 55.2 144 64 144L576 144C584.8 144 592 151.2 592 160L592 208C592 216.8 584.8 224 576 224L64 224C55.2 224 48 216.8 48 208L48 160zM304 240L560 240L560 416L304 416L304 240zM384 328C384 332.4 387.6 336 392 336L472 336C476.4 336 480 332.4 480 328C480 323.6 476.4 320 472 320L392 320C387.6 320 384 323.6 384 328z"/><path fill="currentColor" d="M576 128C593.7 128 608 142.3 608 160L608 208C608 225.7 593.7 240 576 240L576 504C576 508.4 572.4 512 568 512C563.6 512 560 508.4 560 504L560 432L304 432L304 504C304 508.4 300.4 512 296 512C291.6 512 288 508.4 288 504L288 240L80 240L80 504C80 508.4 76.4 512 72 512C67.6 512 64 508.4 64 504L64 240C46.3 240 32 225.7 32 208L32 160C32 142.3 46.3 128 64 128L576 128zM304 240L304 416L560 416L560 240L304 240zM472 320C476.4 320 480 323.6 480 328C480 332.4 476.4 336 472 336L392 336C387.6 336 384 332.4 384 328C384 323.6 387.6 320 392 320L472 320zM64 144C55.2 144 48 151.2 48 160L48 208C48 216.8 55.2 224 64 224L576 224C584.8 224 592 216.8 592 208L592 160C592 151.2 584.8 144 576 144L64 144z"/></svg>