<svg xmlns="http://www.w3.org/2000/svg" viewBox="0 0 640 640"><!--! Font Awesome Pro 7.2.0 by @fontawesome - https://fontawesome.com License - https://fontawesome.com/license (Commercial License) Copyright 2026 Fonticons, Inc. --><path opacity=".4" fill="currentColor" d="M128.5 333.3C109.4 380.2 126.9 435 171.3 461.7L356.2 572.6C377.3 585.3 401.5 592 426.2 592L561.2 592C578.3 592 592.1 578.2 592.1 561.1C592.1 532.5 570.8 508.3 542.4 504.7L473.7 495.9C470.9 495.6 468.6 493.8 467.4 491.3L395.3 332.7L334.1 405.1C331.2 408.5 326.2 408.9 322.9 406C319.6 403.1 319.1 398.1 322 394.8C323.5 393 325 391.2 326.5 389.4C306.2 413.4 271.6 419.1 244.7 403L128.5 333.3z"/><path fill="currentColor" d="M279.1 32C374.1 32 451 109 451 203.9C451 244.6 436.6 283.9 410.3 315L406.7 319.2L480 480.6L544.3 488.8C580.7 493.4 607.9 524.4 607.9 561C607.9 586.9 586.9 607.9 561 607.9L426 607.9C398.5 607.9 371.4 600.4 347.8 586.2L163.1 475.4C107.8 442.2 88.6 371.2 119.7 314.7L140.7 276.5C114 261.4 96 232.8 96 200L96 172.6C59.1 162.1 32 128.3 32 88L32 69.2C32 48.7 48.7 32 69.2 32L279.1 32zM69.2 48C57.5 48 48 57.5 48 69.2L48 88C48 127.8 80.2 160 120 160L280 160C284.4 160 288 163.6 288 168C288 172.4 284.4 176 280 176L120 176C117.3 176 114.6 175.8 112 175.6L112 200C112 239.8 144.2 272 184 272L258 272C262.4 272 266 275.6 266 280C266 284.4 262.4 288 258 288L184 288C173.9 288 164.3 286.2 155.3 283.1L133.7 322.4C106.8 371.4 123.4 432.9 171.3 461.7L356.2 572.6C377.3 585.3 401.5 592 426.2 592L561.2 592C578.3 592 592.1 578.2 592.1 561.1C592.1 532.5 570.8 508.3 542.4 504.7L473.7 495.9C470.9 495.6 468.6 493.8 467.4 491.3L395.3 332.7L334.1 405.1C331.2 408.5 326.2 408.9 322.9 406C319.6 403.1 319.1 398.1 322 394.8L398.2 304.6C422 276.4 435.1 240.7 435.1 203.9C435.1 117.8 365.3 48 279.2 48L69.2 48z"/></svg>