<svg xmlns="http://www.w3.org/2000/svg" viewBox="0 0 640 640"><!--! Font Awesome Pro 7.2.0 by @fontawesome - https://fontawesome.com License - https://fontawesome.com/license (Commercial License) Copyright 2026 Fonticons, Inc. --><path opacity=".4" fill="currentColor" d="M112 160L112 480C112 506.5 133.5 528 160 528L312 528L312 448L328 448L328 528L480 528C506.5 528 528 506.5 528 480L528 160C528 133.5 506.5 112 480 112L328 112L328 192L312 192L312 112L160 112C133.5 112 112 133.5 112 160zM225.3 315.6L226.3 314.4L298.3 242.4C301.4 239.3 306.5 239.3 309.6 242.4C312.7 245.5 312.7 250.6 309.6 253.7L251.3 312L408 312C412.4 312 416 315.6 416 320C416 324.4 412.4 328 408 328L251.3 328L309.6 386.3C312.7 389.4 312.7 394.5 309.6 397.6C306.5 400.7 301.4 400.7 298.3 397.6L226.3 325.6C223.6 322.9 223.2 318.6 225.3 315.5z"/><path fill="currentColor" d="M160 96C124.7 96 96 124.7 96 160L96 480C96 513.1 121.2 540.4 153.5 543.7L160 544L480 544L486.5 543.7C516.6 540.6 540.6 516.7 543.6 486.6L543.9 480.1L543.9 160.1C543.9 124.8 515.2 96.1 479.9 96.1L160 96zM480 112C506.5 112 528 133.5 528 160L528 480C528 506.5 506.5 528 480 528L328 528L328 448L312 448L312 528L160 528C133.5 528 112 506.5 112 480L112 160C112 133.5 133.5 112 160 112L312 112L312 192L328 192L328 112L480 112zM309.7 242.3C306.6 239.2 301.5 239.2 298.4 242.3L226.4 314.3L225.4 315.5C223.3 318.6 223.7 322.8 226.4 325.6L298.4 397.6C301.5 400.7 306.6 400.7 309.7 397.6C312.8 394.5 312.8 389.4 309.7 386.3L251.3 328L408 328C412.4 328 416 324.4 416 320C416 315.6 412.4 312 408 312L251.3 312L309.6 253.7C312.7 250.6 312.7 245.5 309.6 242.4z"/></svg>