<svg xmlns="http://www.w3.org/2000/svg" viewBox="0 0 640 640"><!--! Font Awesome Pro 7.2.0 by @fontawesome - https://fontawesome.com License - https://fontawesome.com/license (Commercial License) Copyright 2026 Fonticons, Inc. --><path fill="currentColor" d="M640 96C640 78.3 625.7 64 608 64C590.3 64 576 78.3 576 96C576 113.7 590.3 128 608 128C625.7 128 640 113.7 640 96zM320 192L352 192L352 128L320 128C267 128 224 171 224 224L224 335.8L224 336L224 432C224 476.2 259.8 512 304 512C348.2 512 384 476.2 384 432L384 336C384 291.8 348.2 256 304 256C298.5 256 293.2 256.6 288 257.6L288 224C288 206.3 302.3 192 320 192zM288 384L288 335.9C288 327.1 295.2 320 304 320C312.8 320 320 327.2 320 336L320 432C320 440.8 312.8 448 304 448C295.2 448 288 440.8 288 432L288 384zM32 128L0 128L0 192L97.3 192L39.7 259.2L32 268.2L32 320L80 320C106.5 320 128 341.5 128 368L128 416C128 433.7 113.7 448 96 448C78.3 448 64 433.7 64 416L0 416C0 469 43 512 96 512C149 512 192 469 192 416L192 368C192 320.4 162.2 279.7 120.3 263.5L184.3 188.9L192 179.9L192 128.1L32 128.1zM480 208C480 199.2 487.2 192 496 192C504.8 192 512 199.2 512 208L512 432C512 440.8 504.8 448 496 448C487.2 448 480 440.8 480 432L480 208zM496 128C451.8 128 416 163.8 416 208L416 432C416 476.2 451.8 512 496 512C540.2 512 576 476.2 576 432L576 208C576 163.8 540.2 128 496 128z"/></svg>