<svg xmlns="http://www.w3.org/2000/svg" viewBox="0 0 640 640"><!--! Font Awesome Pro 7.2.0 by @fontawesome - https://fontawesome.com License - https://fontawesome.com/license (Commercial License) Copyright 2026 Fonticons, Inc. --><path fill="currentColor" d="M544 160L544 272L480 272L480 240L512 240L512 192L480 192L480 160L544 160zM448 192L416 192L416 240L448 240L448 272L320 272L320 240L352 240L352 192L320 192L320 160L448 160L448 192zM288 192L256 192L256 240L288 240L288 272L192 272L192 240L224 240L224 192L192 192L192 160L288 160L288 192zM160 192L128 192L128 240L160 240L160 272L96 272L96 160L160 160L160 192zM96 480L96 304L160 304L160 328L128 328L128 376L160 376L160 400L128 400L128 448L160 448L160 480L96 480zM192 448L224 448L224 400L192 400L192 376L224 376L224 328L192 328L192 304L288 304L288 328L256 328L256 376L288 376L288 400L256 400L256 448L288 448L288 480L192 480L192 448zM320 376L352 376L352 328L320 328L320 304L448 304L448 400L416 400L416 448L448 448L448 480L320 480L320 448L352 448L352 400L320 400L320 376zM480 448L512 448L512 400L480 400L480 304L544 304L544 480L480 480L480 448zM96 96L32 96L32 544L608 544L608 96L96 96z"/></svg>