<svg xmlns="http://www.w3.org/2000/svg" viewBox="0 0 640 640"><!--! Font Awesome Pro 7.2.0 by @fontawesome - https://fontawesome.com License - https://fontawesome.com/license (Commercial License) Copyright 2026 Fonticons, Inc. --><path fill="currentColor" d="M192.3 64L192.3 112L448.3 112L448.3 64L192.3 64zM128.3 256L73 256C74.2 264.3 87.5 357.3 112.8 534.8L118.7 576L522 576L527.9 534.8C553.3 357.2 566.5 264.3 567.7 256L128.3 256zM480.3 416C480.3 477.9 408.7 528 320.3 528C231.9 528 160.3 477.9 160.3 416C160.3 354.1 231.9 304 320.3 304C408.7 304 480.3 354.1 480.3 416zM320.3 444C342.4 444 360.3 431.5 360.3 416C360.3 400.5 342.4 388 320.3 388C298.2 388 280.3 400.5 280.3 416C280.3 431.5 298.2 444 320.3 444zM168.3 160L144.3 160L144.3 208L496.3 208L496.3 160L168.3 160z"/></svg>