<svg xmlns="http://www.w3.org/2000/svg" viewBox="0 0 640 640"><!--! Font Awesome Pro 7.2.0 by @fontawesome - https://fontawesome.com License - https://fontawesome.com/license (Commercial License) Copyright 2026 Fonticons, Inc. --><path fill="currentColor" d="M64 96L512 96L512 278C496.7 274.1 480.6 272 464 272C456.2 272 448.6 272.5 441.1 273.4C421.1 207.8 360.1 160 288 160C199.6 160 128 231.6 128 320C128 403.2 191.5 471.5 272.6 479.3C274.4 502.3 280.2 524.1 289.4 544L64 544L64 96zM288 288C305.7 288 320 302.3 320 320C320 337.7 305.7 352 288 352C270.3 352 256 337.7 256 320C256 302.3 270.3 288 288 288zM320 464C320 384.5 384.5 320 464 320C543.5 320 608 384.5 608 464C608 543.5 543.5 608 464 608C384.5 608 320 543.5 320 464zM543.5 542.9L528 512L400 512L384.5 542.9C404.8 563.4 432.9 576 464 576C495.1 576 523.2 563.4 543.5 542.9zM512 432C512 405.5 490.5 384 464 384C437.5 384 416 405.5 416 432C416 458.5 437.5 480 464 480C490.5 480 512 458.5 512 432z"/></svg>