<svg xmlns="http://www.w3.org/2000/svg" viewBox="0 0 640 640"><!--! Font Awesome Pro 7.2.0 by @fontawesome - https://fontawesome.com License - https://fontawesome.com/license (Commercial License) Copyright 2026 Fonticons, Inc. --><path fill="currentColor" d="M288 128C270.3 128 256 142.3 256 160C256 177.7 270.3 192 288 192C305.7 192 320 177.7 320 160C320 142.3 305.7 128 288 128zM192 160C192 107 235 64 288 64C341 64 384 107 384 160C384 201.8 357.3 237.4 320 250.5L320 512L368 512L368 576L80 576L80 371.9C69.5 381.1 58.1 391.1 45.7 401.9L14.1 365.7C18.5 361.9 45.8 337.9 96.2 293.9L112 280.1C114.5 282.3 141.1 305.6 191.8 349.9L209.9 365.7L178.3 401.8C165.9 391 154.5 381 144 371.8L144 511.9L256 511.9L256 250.4C218.7 237.2 192 201.7 192 159.9zM528 336C510.3 336 496 350.3 496 368L496 416L560 416L560 368C560 350.3 545.7 336 528 336zM448 368C448 323.8 483.8 288 528 288C572.2 288 608 323.8 608 368L608 416L640 416L640 608L416 608L416 416L448 416L448 368z"/></svg>