<svg xmlns="http://www.w3.org/2000/svg" viewBox="0 0 640 640"><!--! Font Awesome Pro 7.2.0 by @fontawesome - https://fontawesome.com License - https://fontawesome.com/license (Commercial License) Copyright 2026 Fonticons, Inc. --><path fill="currentColor" d="M256 192C256 156.7 284.7 128 320 128C355.3 128 384 156.7 384 192C384 233.6 363.3 268.6 337.4 296.1C331.5 302.3 325.6 307.9 320 312.8C314.4 307.9 308.5 302.3 302.6 296.1C276.7 268.6 256 233.5 256 192zM320 64C249.3 64 192 121.3 192 192C192 244.4 213.5 287.5 238.8 320L160 320L160 384L288 384L288 576L352 576L352 384L480 384L480 320L401.2 320C426.5 287.5 448 244.4 448 192C448 121.3 390.7 64 320 64z"/></svg>