<svg xmlns="http://www.w3.org/2000/svg" viewBox="0 0 640 640"><!--! Font Awesome Pro 7.2.0 by @fontawesome - https://fontawesome.com License - https://fontawesome.com/license (Commercial License) Copyright 2026 Fonticons, Inc. --><path fill="currentColor" d="M480 64L160 64L160 160L32 160L32 576L608 576L608 256L480 256L480 64zM272 416L368 416L368 528L272 528L272 416zM96 416L96 352L160 352L160 416L96 416zM416 160L416 224L352 224L352 160L416 160zM224 160L288 160L288 224L224 224L224 160zM416 320L352 320L352 256L416 256L416 320zM480 416L480 352L544 352L544 416L480 416zM160 320L96 320L96 256L160 256L160 320zM224 320L224 256L288 256L288 320L224 320z"/></svg>