<svg xmlns="http://www.w3.org/2000/svg" viewBox="0 0 640 640"><!--! Font Awesome Pro 7.2.0 by @fontawesome - https://fontawesome.com License - https://fontawesome.com/license (Commercial License) Copyright 2026 Fonticons, Inc. --><path fill="currentColor" d="M320 50.7L342.6 73.3L470.6 201.3L493.2 223.9L447.9 269.2C441.3 262.6 409.3 230.6 351.9 173.2L351.9 447.9L287.9 447.9L287.9 173.2C230.5 230.6 198.5 262.6 191.9 269.2L146.7 224L169.4 201.4L297.4 73.4L320 50.7zM128 512L192 512L192 576L128 576L128 512zM298.7 512L298.7 576L234.7 576L234.7 512L298.7 512zM341.4 512L405.4 512L405.4 576L341.4 576L341.4 512zM512 512L512 576L448 576L448 512L512 512z"/></svg>