<svg xmlns="http://www.w3.org/2000/svg" viewBox="0 0 640 640"><!--! Font Awesome Pro 7.2.0 by @fontawesome - https://fontawesome.com License - https://fontawesome.com/license (Commercial License) Copyright 2026 Fonticons, Inc. --><path fill="currentColor" d="M192 589.3C197.5 583.8 231.7 549.6 294.6 486.7L317.3 464L272 418.7C257.4 433.3 241.4 449.3 224 466.7L224 352L369 352C373.2 318.1 390.7 288.4 416 268.1L416 173.3C433.4 190.7 449.4 206.7 464 221.3L509.3 176C503.8 170.5 469.6 136.3 406.7 73.4L384 50.7C378.5 56.2 344.3 90.4 281.4 153.3L258.7 176L304 221.3C318.6 206.7 334.6 190.7 352 173.3L352 288L64 288L64 352L160 352L160 466.7C142.6 449.3 126.6 433.3 112 418.7L66.7 464C72.2 469.5 106.4 503.7 169.3 566.6L192 589.3zM160 96L160 240L224 240L224 64L160 64L160 96zM496 336C513.7 336 528 350.3 528 368L528 416L464 416L464 368C464 350.3 478.3 336 496 336zM416 368L416 416L384 416L384 608L608 608L608 416L576 416L576 368C576 323.8 540.2 288 496 288C451.8 288 416 323.8 416 368z"/></svg>