<svg xmlns="http://www.w3.org/2000/svg" viewBox="0 0 640 640"><!--! Font Awesome Pro 7.2.0 by @fontawesome - https://fontawesome.com License - https://fontawesome.com/license (Commercial License) Copyright 2026 Fonticons, Inc. --><path fill="currentColor" d="M406.9 41.4L384.3 18.7C381.4 21.6 341.9 61.1 265.7 137.3L243 160L288.3 205.3C300.3 193.3 321.6 172 352.3 141.3L352.3 320L173.6 320C204.3 289.3 225.6 268 237.6 256L192.3 210.7C189.4 213.6 149.9 253.1 73.7 329.3L51 352C53.9 354.9 93.4 394.4 169.6 470.6L192.2 493.2L237.5 447.9L173.5 383.9L352.2 383.9L352.2 575.9L544.2 575.9L544.2 511.9L416.2 511.9L416.2 141.2L480.2 205.2L525.5 159.9C522.6 157 483.1 117.5 406.9 41.3z"/></svg>