<svg xmlns="http://www.w3.org/2000/svg" viewBox="0 0 640 640"><!--! Font Awesome Pro 7.2.0 by @fontawesome - https://fontawesome.com License - https://fontawesome.com/license (Commercial License) Copyright 2026 Fonticons, Inc. --><path fill="currentColor" d="M512 96L512 64L576 64L576 256L384 256L384 192L463.1 192C427.9 152.7 376.8 128 320 128C214 128 128 214 128 320C128 426 214 512 320 512C395 512 460 469 491.6 406.2L548.8 435C506.8 518.5 420.1 576 320 576C178.6 576 64 461.4 64 320C64 178.6 178.6 64 320 64C396.5 64 465.1 97.6 512 150.7L512 96z"/></svg>