<svg xmlns="http://www.w3.org/2000/svg" viewBox="0 0 640 640"><!--! Font Awesome Pro 7.2.0 by @fontawesome - https://fontawesome.com License - https://fontawesome.com/license (Commercial License) Copyright 2026 Fonticons, Inc. --><path fill="currentColor" d="M214.9 105.4L192.3 82.7C186.8 88.2 152.6 122.4 89.7 185.3L67 208L112.3 253.3C126.9 238.7 142.9 222.7 160.3 205.3L160.3 544L224.3 544L224.3 205.3C241.7 222.7 257.7 238.7 272.3 253.3L317.5 208C312 202.5 277.8 168.3 214.9 105.4zM512.3 96L352.3 96L352.3 160L435 160L361.6 233.4L352.2 242.8L352.2 288.1L544.2 288.1L544.2 224.1L461.5 224.1L534.9 150.7L544.3 141.3L544.3 96L512.3 96zM418.3 320L410.4 340.5L332.1 544L400.7 544L413 512L483.5 512L495.8 544L564.4 544L486.1 340.5L478.2 320L418.2 320zM448.3 420.3L465.1 464L431.5 464L448.3 420.3z"/></svg>