<svg xmlns="http://www.w3.org/2000/svg" viewBox="0 0 640 640"><!--! Font Awesome Pro 7.2.0 by @fontawesome - https://fontawesome.com License - https://fontawesome.com/license (Commercial License) Copyright 2026 Fonticons, Inc. --><path fill="currentColor" d="M576 512L576 448L512 448L512 512L576 512zM461.3 320L438.7 297.4L310.7 169.4L288.1 146.8L242.8 192.1C249.4 198.7 281.4 230.7 338.8 288.1L64 288L64 352L338.7 352C281.3 409.4 249.3 441.4 242.7 448L288 493.3L310.6 470.7L438.6 342.7L461.2 320.1zM576 341.3L512 341.3L512 405.3L576 405.3L576 341.3zM576 298.6L576 234.6L512 234.6L512 298.6L576 298.6zM576 128L512 128L512 192L576 192L576 128z"/></svg>