<svg xmlns="http://www.w3.org/2000/svg" viewBox="0 0 640 640"><!--! Font Awesome Pro 7.2.0 by @fontawesome - https://fontawesome.com License - https://fontawesome.com/license (Commercial License) Copyright 2026 Fonticons, Inc. --><path fill="currentColor" d="M576 256L516.8 272.9L484.8 221.5L484.7 221.3L484.6 221.1C450.9 165.2 389.8 128 320 128C214 128 128 214 128 320C128 426 214 512 320 512C395 512 460 469 491.7 406.2C510.7 415.8 529.8 425.4 548.9 434.9C506.8 518.5 420.2 576 320.1 576C178.7 576 64.1 461.4 64.1 320C64.1 178.6 178.6 64 320 64C396.5 64 465.1 97.6 512 150.7L512 64L576 64L576 256zM272 416L224 416L224 286.8L205.3 296.2L183.8 253.3C195.5 247.4 215 237.7 242.3 224L272 224L272 416zM424 272L352 272L352 296L372 296C405.1 296 432 322.9 432 356C432 389.1 405.1 416 372 416L304 416L304 368L372 368C378.6 368 384 362.6 384 356C384 349.4 378.6 344 372 344L304 344L304 224L424 224L424 272z"/></svg>