<svg xmlns="http://www.w3.org/2000/svg" viewBox="0 0 640 640"><!--! Font Awesome Pro 7.2.0 by @fontawesome - https://fontawesome.com License - https://fontawesome.com/license (Commercial License) Copyright 2026 Fonticons, Inc. --><path fill="currentColor" d="M165.4 475.1C164.1 473.8 153 458.3 168.7 411.1C172.2 400.7 176.7 389.7 182.3 378.2C193.9 392.4 206.6 406.5 220.3 420.1C234 433.7 248 446.5 262.2 458.1C250.8 463.7 239.8 468.3 229.4 471.7C182.2 487.4 166.7 476.3 165.4 475zM218.2 320C231.7 301.7 247.5 283.2 265.6 265.1C283.7 247 302.2 231.2 320.5 217.7C338.8 231.2 357.3 247 375.4 265.1C393.5 283.2 409.3 301.7 422.8 320C409.3 338.3 393.5 356.8 375.4 374.9C357.3 393 338.8 408.8 320.5 422.3C302.2 408.8 283.7 393 265.6 374.9C247.5 356.8 231.7 338.3 218.2 320zM262.3 181.9C248.1 193.5 234 206.2 220.4 219.9C206.8 233.6 194 247.6 182.4 261.8C176.8 250.4 172.2 239.4 168.8 229C153.1 181.8 164.2 166.3 165.5 165C166.8 163.7 182.3 152.6 229.5 168.3C239.9 171.8 250.9 176.3 262.3 181.9zM320.5 140.8C238.4 91.6 159.4 80.5 120.2 119.7C81 158.9 92.1 237.9 141.3 320C92.1 402.1 81 481.1 120.2 520.3C159.4 559.5 238.4 548.4 320.5 499.2C402.6 548.4 481.6 559.5 520.8 520.3C560 481.1 548.9 402.1 499.7 320C548.9 237.9 560 158.9 520.8 119.7C481.6 80.5 402.6 91.6 320.5 140.8zM378.7 181.9C390.1 176.3 401.1 171.7 411.6 168.3C458.8 152.6 474.3 163.7 475.6 165C476.9 166.3 488 181.8 472.3 229C468.8 239.4 464.3 250.4 458.7 261.8C447.1 247.6 434.4 233.5 420.7 219.9C407 206.3 393 193.5 378.8 181.9zM458.6 378.2C464.2 389.6 468.8 400.6 472.2 411.1C487.9 458.3 476.8 473.8 475.5 475.1C474.2 476.4 458.7 487.5 411.5 471.8C401.1 468.3 390.1 463.8 378.6 458.2C392.8 446.6 406.9 433.9 420.5 420.2C434.1 406.5 446.9 392.5 458.5 378.3zM320.5 360L360.5 320L320.5 280L280.5 320L320.5 360z"/></svg>