<svg xmlns="http://www.w3.org/2000/svg" viewBox="0 0 640 640"><!--! Font Awesome Pro 7.2.0 by @fontawesome - https://fontawesome.com License - https://fontawesome.com/license (Commercial License) Copyright 2026 Fonticons, Inc. --><path fill="currentColor" d="M291.9 96L348 96L356.2 115.8L434.1 304L536 304L536 352L454 352L473.9 400L536.1 400L536.1 448L493.8 448L533.5 544L464.2 544L424.5 448L215.7 448L176 544L106.7 544L146.4 448L104.1 448L104.1 400L166.3 400L186.2 352L104.2 352L104.2 304L206.1 304L284 115.8L292.2 96zM255.3 352L235.4 400L404.5 400L384.6 352L255.2 352zM364.8 304L320 195.6L275.2 304L364.8 304z"/></svg>