<svg xmlns="http://www.w3.org/2000/svg" viewBox="0 0 640 640"><!--! Font Awesome Pro 7.2.0 by @fontawesome - https://fontawesome.com License - https://fontawesome.com/license (Commercial License) Copyright 2026 Fonticons, Inc. --><path fill="currentColor" d="M534.3 309.8C590.5 253.6 590.5 162.4 534.3 106.2C478.1 50 386.9 50 330.7 106.2L276.8 160C222.1 158.9 167.1 179.2 125.4 220.9C44.2 302.1 44.2 433.8 125.4 515.1C206.6 596.4 338.3 596.3 419.6 515.1C461.3 473.4 481.6 418.4 480.5 363.7L534.4 309.8zM347.7 411.2C306 452.9 245.6 460.3 212.9 427.6C180.2 394.9 187.6 334.6 229.3 292.8C271 251 331.4 243.7 364.1 276.4C396.8 309.1 389.4 369.4 347.7 411.2z"/></svg>