<svg xmlns="http://www.w3.org/2000/svg" viewBox="0 0 640 640"><!--! Font Awesome Pro 7.2.0 by @fontawesome - https://fontawesome.com License - https://fontawesome.com/license (Commercial License) Copyright 2026 Fonticons, Inc. --><path fill="currentColor" d="M371.6 63.4L320 32L268.4 63.4L208 62L179 115L126 144L127.4 204.4L96 256L127.4 307.6L126 368L179 397L190.8 418.5L128 544L256 608L320 492.8L384 608L512 544L449.2 418.5L461 397L514 368L512.6 307.6L544 256L512.6 204.4L514 144L461 115L432 62L371.6 63.4zM320 160C373 160 416 203 416 256C416 309 373 352 320 352C267 352 224 309 224 256C224 203 267 160 320 160z"/></svg>