<svg xmlns="http://www.w3.org/2000/svg" viewBox="0 0 640 640"><!--! Font Awesome Pro 7.2.0 by @fontawesome - https://fontawesome.com License - https://fontawesome.com/license (Commercial License) Copyright 2026 Fonticons, Inc. --><path fill="currentColor" d="M240 170.6C198.4 146.6 168.7 104.4 161.6 54.9C102.2 101.7 64 174.4 64 256C64 337.6 102.2 410.3 161.6 457.1C168.7 407.6 198.4 365.4 240 341.4L240 170.6zM400 341.4C441.6 365.4 471.3 407.6 478.4 457.1C527.8 418.1 562.5 361.4 572.8 296.5L512 256L572.8 215.5C562.5 150.6 527.8 93.9 478.4 54.9C471.3 104.4 441.6 146.6 400 170.6L400 341.4zM352 96L352 64L288 64L288 608L352 608L352 96z"/></svg>