<svg xmlns="http://www.w3.org/2000/svg" viewBox="0 0 640 640"><!--! Font Awesome Pro 7.2.0 by @fontawesome - https://fontawesome.com License - https://fontawesome.com/license (Commercial License) Copyright 2026 Fonticons, Inc. --><path fill="currentColor" d="M224 64L416 64L416 160C486.7 160 544 217.3 544 288L544 576L464 576L464 368L176 368L176 576L96 576L96 288C96 217.3 153.3 160 224 160L224 64zM224 576L224 416L416 416L416 576L224 576zM368 112L272 112L272 160L368 160L368 112zM248 240L224 240L224 288L416 288L416 240L248 240z"/></svg>