<svg xmlns="http://www.w3.org/2000/svg" viewBox="0 0 640 640"><!--! Font Awesome Pro 7.2.0 by @fontawesome - https://fontawesome.com License - https://fontawesome.com/license (Commercial License) Copyright 2026 Fonticons, Inc. --><path fill="currentColor" d="M352 224C352 135.6 280.4 64 192 64C103.6 64 32 135.6 32 224C32 336 160 432 160 432L128 512L256 512L224 432C224 432 352 336 352 224zM192 160C156.7 160 128 188.7 128 224L80 224C80 162.1 130.1 112 192 112L192 160zM416 496L384 576L512 576L480 496C480 496 608 400 608 288C608 199.6 536.4 128 448 128C424.9 128 402.9 132.9 383.1 141.7C389.4 156.4 394.1 172 397 188.3C412.3 180.4 429.7 176 448.1 176L448.1 224C428.2 224 410.5 233.1 398.7 247.3C391.4 309.7 356.4 363.1 326.1 399.4C363.8 456.9 416.1 496.1 416.1 496.1z"/></svg>