<svg xmlns="http://www.w3.org/2000/svg" viewBox="0 0 640 640"><!--! Font Awesome Pro 7.2.0 by @fontawesome - https://fontawesome.com License - https://fontawesome.com/license (Commercial License) Copyright 2026 Fonticons, Inc. --><path fill="currentColor" d="M431.1 163.7L440 128L512 64L576 128L512 200L476.3 208.9L395.2 290C409.1 310.6 418.6 334.3 422.2 360L447.9 360L447.9 408L422.2 408C418.1 436.5 406.9 462.6 390.5 484.6L391.7 485.8L408.7 502.8L374.8 536.7L357.8 519.7L356.6 518.5C334.6 535 308.5 546.2 280 550.2L280 575.9L232 575.9L232 550.2C203.5 546.1 177.4 534.9 155.4 518.5L154.2 519.7L137.2 536.7L103.3 502.8L120.3 485.8L121.5 484.6C105 462.6 93.8 436.5 89.7 408L64 408L64 360L89.7 360C93.8 331.5 105 305.4 121.4 283.4L120.2 282.2L103.2 265.2L137.1 231.3L154.1 248.3L155.3 249.5C177.3 233 203.5 221.8 231.9 217.8L231.9 192.1L279.9 192.1L279.9 217.8C305.6 221.5 329.4 230.9 349.9 244.8L431 163.7zM256 496C317.9 496 368 445.9 368 384C368 322.1 317.9 272 256 272C194.1 272 144 322.1 144 384C144 445.9 194.1 496 256 496zM225 367C262.2 404.2 283.8 425.8 290 432L256 465.9C249.9 459.8 228.2 438.1 191 400.9L174 383.9L207.9 350L224.9 367z"/></svg>