<svg xmlns="http://www.w3.org/2000/svg" viewBox="0 0 640 640"><!--! Font Awesome Pro 7.2.0 by @fontawesome - https://fontawesome.com License - https://fontawesome.com/license (Commercial License) Copyright 2026 Fonticons, Inc. --><path fill="currentColor" d="M160 96L96 96L96 288L32 288L32 336L608 336L608 288L544 288L544 96L496 96L496 288L448 288L448 96L400 96L400 288L352 288L352 96L288 96L288 288L240 288L240 96L192 96L192 288L160 288L160 96zM96 544L160 544L160 384L96 384L96 544zM192 544L240 544L240 384L192 384L192 544zM288 544L352 544L352 384L288 384L288 544zM400 544L448 544L448 384L400 384L400 544zM496 544L544 544L544 384L496 384L496 544z"/></svg>