<svg xmlns="http://www.w3.org/2000/svg" viewBox="0 0 640 640"><!--! Font Awesome Pro 7.2.0 by @fontawesome - https://fontawesome.com License - https://fontawesome.com/license (Commercial License) Copyright 2026 Fonticons, Inc. --><path fill="currentColor" d="M88 64L64 64L64 224L112 224L112 112L224 112L224 64L88 64zM440 64L416 64L416 112L528 112L528 224L576 224L576 64L440 64zM112 440L112 416L64 416L64 576L224 576L224 528L112 528L112 440zM576 440L576 416L528 416L528 528L416 528L416 576L576 576L576 440zM160 192L160 448L224 448L224 192L160 192zM336 192L336 448L384 448L384 192L336 192zM480 192L416 192L416 448L480 448L480 192zM256 192L256 448L288 448L288 192L256 192z"/></svg>