<svg xmlns="http://www.w3.org/2000/svg" viewBox="0 0 640 640"><!--! Font Awesome Pro 7.2.0 by @fontawesome - https://fontawesome.com License - https://fontawesome.com/license (Commercial License) Copyright 2026 Fonticons, Inc. --><path fill="currentColor" d="M296.4 65.1C174.2 76.5 76.9 173.8 65.5 296C87.8 295.9 109.4 292.6 129.8 286.7L143.3 332.8C118.6 340 92.5 344 65.5 344.1C76.9 466.3 174.2 563.6 296.4 575C296.5 548 300.4 521.9 307.7 497.2L353.8 510.7C347.8 531.1 344.6 552.6 344.5 575C466.7 563.6 564 466.3 575.4 344.1C553.1 344.2 531.5 347.5 511.1 353.4L497.6 307.3C522.3 300.1 548.4 296.1 575.4 296C564 173.8 466.7 76.5 344.5 65.1C344.4 92.1 340.5 118.2 333.2 142.9L287.1 129.4C293.1 109 296.3 87.5 296.4 65.1zM198.6 309.8L175.6 267.7C214.6 246.4 246.8 214.2 268.1 175.2L310.2 198.2C284.5 245.2 245.7 284 198.6 309.8zM330.6 441.8C356.3 394.8 395.1 356 442.2 330.2L465.2 372.3C426.2 393.6 394 425.8 372.7 464.8L330.6 441.8z"/></svg>