<svg xmlns="http://www.w3.org/2000/svg" viewBox="0 0 640 640"><!--! Font Awesome Pro 7.2.0 by @fontawesome - https://fontawesome.com License - https://fontawesome.com/license (Commercial License) Copyright 2026 Fonticons, Inc. --><path fill="currentColor" d="M382 528C374.9 555.6 349.9 576 320 576C290.1 576 265.1 555.6 258 528L382 528zM352 99.2C425 114 480 178.6 480 256L480 352L560 480L80 480L160 352L160 256C160 178.6 215 114 288 99.2L288 64L352 64L352 99.2zM292 356L292 412L348 412L348 356L292 356zM288 176L300.8 320L339.2 320L352 176L288 176z"/></svg>