<svg xmlns="http://www.w3.org/2000/svg" viewBox="0 0 640 640"><!--! Font Awesome Pro 7.2.0 by @fontawesome - https://fontawesome.com License - https://fontawesome.com/license (Commercial License) Copyright 2026 Fonticons, Inc. --><path fill="currentColor" d="M320 64L320 128L368 128L368 224L320 224L320 288L396.1 288C416.4 262.7 446.2 245.2 480 241L480 224L432 224L432 64L320 64zM336 352L288 352L288 576L336 576L336 352zM96 352L96 416L144 416L144 512L96 512L96 576L256 576L256 512L208 512L208 352L96 352zM128 64L96 64L96 288L288 288L288 64L128 64zM160 224L160 128L224 128L224 224L160 224zM496 336C513.7 336 528 350.3 528 368L528 416L464 416L464 368C464 350.3 478.3 336 496 336zM416 368L416 416L384 416L384 608L608 608L608 416L576 416L576 368C576 323.8 540.2 288 496 288C451.8 288 416 323.8 416 368z"/></svg>