<svg xmlns="http://www.w3.org/2000/svg" viewBox="0 0 640 640"><!--! Font Awesome Pro 7.2.0 by @fontawesome - https://fontawesome.com License - https://fontawesome.com/license (Commercial License) Copyright 2026 Fonticons, Inc. --><path fill="currentColor" d="M64 224L64 256C64 358.3 132.5 444.5 226.1 471.4L281.5 576L335.8 576L335.2 574.8L285 480C286 480 287 480 288 480C300.6 480 313 479 325.1 476.9L377.5 576L431.8 576L431.2 574.8L372.3 463.6C454.3 430.3 512 349.9 512 256L512 234.7L576 192L511.4 148.9C505.9 101.1 465.3 64 416 64C363 64 320 107 320 160L320 224L64 224zM416 160C429.3 160 440 170.7 440 184C440 197.3 429.3 208 416 208C402.7 208 392 197.3 392 184C392 170.7 402.7 160 416 160z"/></svg>