<svg xmlns="http://www.w3.org/2000/svg" viewBox="0 0 640 640"><!--! Font Awesome Pro 7.2.0 by @fontawesome - https://fontawesome.com License - https://fontawesome.com/license (Commercial License) Copyright 2026 Fonticons, Inc. --><path fill="currentColor" d="M576 240C576 142.8 497.2 64 400 64C319.4 64 251.4 118.2 230.6 192.2C233.7 192.1 236.9 192 240 192C354.9 192 448 285.1 448 400C448 403.2 447.9 406.3 447.8 409.4C521.8 388.6 576 320.6 576 240zM240 576C337.2 576 416 497.2 416 400C416 302.8 337.2 224 240 224C142.8 224 64 302.8 64 400C64 497.2 142.8 576 240 576zM256 272L256 320L304 320L304 352L256 352L256 400L224 400L224 352L176 352L176 320L224 320L224 272L256 272zM448 128L448 160L496 160L496 192L448 192L448 240L416 240L416 192L368 192L368 160L416 160L416 112L448 112L448 128z"/></svg>