<svg xmlns="http://www.w3.org/2000/svg" viewBox="0 0 640 640"><!--! Font Awesome Pro 7.2.0 by @fontawesome - https://fontawesome.com License - https://fontawesome.com/license (Commercial License) Copyright 2026 Fonticons, Inc. --><path fill="currentColor" d="M512 216L536 152L600 128L536 104L512 40L488 104L424 128L488 152L512 216zM398.6 161.4L376 138.7C359 155.7 347.8 166.9 342.5 172.2C320.5 164.3 296.7 160 272 160C157.1 160 64 253.1 64 368C64 482.9 157.1 576 272 576C386.9 576 480 482.9 480 368C480 343.3 475.7 319.5 467.8 297.5C473.1 292.2 484.3 281 501.3 264C495.8 258.5 461.6 224.3 398.7 161.4zM272 272C219 272 176 315 176 368L176 392L128 392L128 368C128 288.5 192.5 224 272 224L296 224L296 272L272 272z"/></svg>