<svg xmlns="http://www.w3.org/2000/svg" viewBox="0 0 640 640"><!--! Font Awesome Pro 7.2.0 by @fontawesome - https://fontawesome.com License - https://fontawesome.com/license (Commercial License) Copyright 2026 Fonticons, Inc. --><path fill="currentColor" d="M256.5 337.1C237 348.4 220.8 364.6 209.6 384L431.4 384C420.2 364.6 404 348.4 384.5 337.1L352.5 318.6L352.5 128L288.5 128L288.5 318.6L256.5 337.1zM485.1 349.3C502.4 378.2 512.4 411.9 512.4 448.1C512.4 497.3 493.9 542.1 463.5 576.1L177.3 576.1C146.9 542.1 128.4 497.3 128.4 448.1C128.4 377 167 315 224.4 281.8L224.4 128.1L192.4 128.1L192.4 64.1L448.4 64.1L448.4 128.1L416.4 128.1L416.4 281.8C430.6 290 443.6 300 455.2 311.4L494.5 272C491.5 269 483.5 261 470.5 248L504.4 214.1C572.7 282.4 574.5 284.2 586.3 296L552.4 329.9C539.4 316.9 531.4 308.9 528.4 305.9L485.1 349.2z"/></svg>