<svg xmlns="http://www.w3.org/2000/svg" viewBox="0 0 640 640"><!--! Font Awesome Pro 7.2.0 by @fontawesome - https://fontawesome.com License - https://fontawesome.com/license (Commercial License) Copyright 2026 Fonticons, Inc. --><path fill="currentColor" d="M96 64L544 64L544 448L512 448L512 512L544 512L544 576L96 576L96 64zM160 480L160 512L448 512L448 448L192 448C174.3 448 160 462.3 160 480zM313.6 183.5C302.5 168.7 285.1 160 266.7 160C234.3 160 208 186.3 208 218.7L208 224C208 288 320 352 320 352C320 352 432 288 432 224L432 218.7C432 186.3 405.7 160 373.3 160C354.8 160 337.4 168.7 326.4 183.5L320 192L313.6 183.5z"/></svg>