<svg xmlns="http://www.w3.org/2000/svg" viewBox="0 0 640 640"><!--! Font Awesome Pro 7.2.0 by @fontawesome - https://fontawesome.com License - https://fontawesome.com/license (Commercial License) Copyright 2026 Fonticons, Inc. --><path fill="currentColor" d="M96 64L544 64L544 448L512 448L512 512L544 512L544 576L96 576L96 64zM160 480L160 512L448 512L448 448L192 448C174.3 448 160 462.3 160 480zM337 159L320 142L231 231L214 248L247.9 281.9C256.9 272.9 272.9 256.9 295.9 233.9L295.9 360L343.9 360L343.9 233.9C366.9 256.9 382.9 272.9 391.9 281.9L425.9 248C423.8 245.9 394.1 216.2 336.9 159z"/></svg>