<svg xmlns="http://www.w3.org/2000/svg" viewBox="0 0 640 640"><!--! Font Awesome Pro 7.2.0 by @fontawesome - https://fontawesome.com License - https://fontawesome.com/license (Commercial License) Copyright 2026 Fonticons, Inc. --><path fill="currentColor" d="M320 40C368.6 40 408 79.4 408 128C408 176.6 368.6 216 320 216C271.4 216 232 176.6 232 128C232 79.4 271.4 40 320 40zM320 514.7L320.5 514.5C375.1 491.7 433.7 480 492.8 480L512 480L512 320L492.8 320C450.6 320 408.7 328.4 369.7 344.6C352.9 351.6 336.3 358.5 320 365.3L320 514.6zM512 256L576 256L576 544L492.8 544C442.1 544 391.9 554 345.1 573.5L320 584L294.9 573.5C248.1 554 197.9 544 147.2 544L64 544L64 256L147.2 256C197.9 256 248.1 266 294.9 285.5L320 296L345.1 285.5C391.9 266 442.1 256 492.8 256L512 256z"/></svg>