<svg xmlns="http://www.w3.org/2000/svg" viewBox="0 0 640 640"><!--! Font Awesome Pro 7.2.0 by @fontawesome - https://fontawesome.com License - https://fontawesome.com/license (Commercial License) Copyright 2026 Fonticons, Inc. --><path fill="currentColor" d="M320 205.3C336.3 198.5 352.9 191.6 369.7 184.6C408.7 168.4 450.5 160 492.8 160L512 160L512 480L492.8 480C433.7 480 375.1 491.7 320.5 514.5L320 514.7L320 205.4zM576 96L492.8 96C442.1 96 391.9 106 345.1 125.5L320 136L294.9 125.5C248.1 106 197.9 96 147.2 96L64 96L64 544L147.2 544C197.9 544 248.1 554 294.9 573.5L320 584L345.1 573.5C391.9 554 442.1 544 492.8 544L576 544L576 96zM368 463.6L389.2 454.2C410.2 444.9 433 440 456 440L480 440L480 392L456 392C426.3 392 396.9 398.2 369.7 410.3L368 411.1L368 463.6zM368 367.6L389.2 358.2C410.2 348.9 433 344 456 344L480 344L480 296L456 296C426.3 296 396.9 302.2 369.7 314.3L368 315.1L368 367.6zM368 271.6L389.2 262.2C410.2 252.9 433 248 456 248L480 248L480 200L456 200C426.3 200 396.9 206.2 369.7 218.3L368 219.1L368 271.6zM128 200L152 200C187.4 200 222.5 205.6 256 216.7L256 267.7L252 266.2C220 254.2 186.1 248.1 152 248.1L128 248.1L128 200.1zM256 459.6L252 458.1C220 446.1 186.1 440 152 440L128 440L128 392L152 392C187.4 392 222.5 397.6 256 408.7L256 459.7zM256 363.6L252 362.1C220 350.1 186.1 344 152 344L128 344L128 296L152 296C187.4 296 222.5 301.6 256 312.7L256 363.7z"/></svg>