<svg xmlns="http://www.w3.org/2000/svg" viewBox="0 0 640 640"><!--! Font Awesome Pro 7.2.0 by @fontawesome - https://fontawesome.com License - https://fontawesome.com/license (Commercial License) Copyright 2026 Fonticons, Inc. --><path fill="currentColor" d="M64 64L512 64L512 278C496.7 274.1 480.6 272 464 272C363.4 272 280.8 349.4 272.7 448L160 448C142.3 448 128 462.3 128 480L128 512L278 512C284 535.3 294.3 557 308 576L64 576L64 64zM608 464C608 384.5 543.5 320 464 320C384.5 320 320 384.5 320 464C320 543.5 384.5 608 464 608C543.5 608 608 543.5 608 464zM396.7 444.7L452.7 388.7L464 377.4L475.3 388.7L531.3 444.7L542.6 456L520 478.6C515.4 474 502 460.6 480 438.6L480 544L448 544L448 438.6C426 460.6 412.6 474 408 478.6L385.4 456L396.7 444.7z"/></svg>