<svg xmlns="http://www.w3.org/2000/svg" viewBox="0 0 640 640"><!--! Font Awesome Pro 7.2.0 by @fontawesome - https://fontawesome.com License - https://fontawesome.com/license (Commercial License) Copyright 2026 Fonticons, Inc. --><path fill="currentColor" d="M544 128L544 96L480 96L480 480L96 480L96 544L544 544L544 128zM160 96L96 96L96 160L160 160L160 96zM288 160L288 96L224 96L224 160L288 160zM416 160L416 96L352 96L352 160L416 160zM160 288L160 224L96 224L96 288L160 288zM160 352L96 352L96 416L160 416L160 352z"/></svg>