<svg xmlns="http://www.w3.org/2000/svg" viewBox="0 0 640 640"><!--! Font Awesome Pro 7.2.0 by @fontawesome - https://fontawesome.com License - https://fontawesome.com/license (Commercial License) Copyright 2026 Fonticons, Inc. --><path fill="currentColor" d="M96 544L96 96L160 96L160 544L96 544zM224 544L224 480L288 480L288 544L224 544zM224 96L288 96L288 160L224 160L224 96zM352 544L352 480L416 480L416 544L352 544zM352 96L416 96L416 160L352 160L352 96zM480 544L480 480L544 480L544 544L480 544zM480 96L544 96L544 160L480 160L480 96zM480 416L480 352L544 352L544 416L480 416zM480 224L544 224L544 288L480 288L480 224z"/></svg>