<svg xmlns="http://www.w3.org/2000/svg" viewBox="0 0 640 640"><!--! Font Awesome Pro 7.2.0 by @fontawesome - https://fontawesome.com License - https://fontawesome.com/license (Commercial License) Copyright 2026 Fonticons, Inc. --><path fill="currentColor" d="M80.4 365.4L80.4 455.9L320.4 591.9L560.4 455.9L560.4 301.6L575.5 324.3L628.8 288.8C622 278.7 600 245.8 563 190.2L558.7 183.7L551.9 179.9L335.9 59.9L320.4 51.3L304.9 59.9L88.9 179.9L80.7 184.5L76.3 192.8C32.2 274.8 8.5 318.8 5.1 325C20.8 333.4 45.9 346.9 80.5 365.4zM320.4 291.3L170.2 208L320.4 124.6L470.5 208L320.4 291.4zM278.9 341.5L257.6 387.7L91.8 298.9L117.2 251.7L278.9 341.5z"/></svg>