<svg xmlns="http://www.w3.org/2000/svg" viewBox="0 0 640 640"><!--! Font Awesome Pro 7.2.0 by @fontawesome - https://fontawesome.com License - https://fontawesome.com/license (Commercial License) Copyright 2026 Fonticons, Inc. --><path fill="currentColor" d="M465.4 192L344 192L344 144L431.1 144L465.4 192zM296 192L174.6 192L208.9 144L296 144L296 192zM464 80L176 80L96 192L96 544L544 544L544 192L464 80zM313.6 295.5L320 304L326.4 295.5C337.5 280.7 354.9 272 373.3 272C405.7 272 432 298.3 432 330.7L432 336C432 400 320 464 320 464C320 464 208 400 208 336L208 330.7C208 298.3 234.3 272 266.7 272C285.2 272 302.6 280.7 313.6 295.5z"/></svg>