<svg xmlns="http://www.w3.org/2000/svg" viewBox="0 0 640 640"><!--! Font Awesome Pro 7.2.0 by @fontawesome - https://fontawesome.com License - https://fontawesome.com/license (Commercial License) Copyright 2026 Fonticons, Inc. --><path fill="currentColor" d="M320 544C196.3 544 96 443.7 96 320C96 196.3 196.3 96 320 96C443.7 96 544 196.3 544 320C544 443.7 443.7 544 320 544zM104.1 152.8L91.1 173C63.8 215.4 48 265.8 48 320C48 374.2 63.8 424.6 91.1 467L104.1 487.2L63.8 513.2L50.8 493C18.6 443.1 0 383.7 0 320C0 256.3 18.6 196.9 50.8 147L63.8 126.8L104.1 152.8zM589.3 147C621.4 196.9 640 256.3 640 320C640 383.7 621.4 443.1 589.3 493L576.3 513.2L536 487.2L549 467C576.3 424.6 592.1 374.2 592.1 320C592.1 265.8 576.3 215.4 549 173L536 152.8L576.3 126.8L589.3 147zM292 444L348 444L348 388L292 388L292 444zM300.8 352L339.2 352L352 192L288 192L300.8 352z"/></svg>