<svg xmlns="http://www.w3.org/2000/svg" viewBox="0 0 640 640"><!--! Font Awesome Pro 7.2.0 by @fontawesome - https://fontawesome.com License - https://fontawesome.com/license (Commercial License) Copyright 2026 Fonticons, Inc. --><path fill="currentColor" d="M64 320L32 320L32 256C32 185.3 89.3 128 160 128L256 128C326.7 128 384 185.3 384 256L384 320L352 320L352 544L64 544L64 320zM376.8 128L480 128C550.7 128 608 185.3 608 256L608 320L432 320L432 256C432 205.6 410.8 160.1 376.8 128zM400 544L400 368L576 368L576 544L400 544z"/></svg>