<svg xmlns="http://www.w3.org/2000/svg" viewBox="0 0 640 640"><!--! Font Awesome Pro 7.2.0 by @fontawesome - https://fontawesome.com License - https://fontawesome.com/license (Commercial License) Copyright 2026 Fonticons, Inc. --><path fill="currentColor" d="M576 128L64 128L64 176L576 176L576 128zM400 224L240 224L240 261.9C240 304.5 227.4 346.2 203.7 381.7L185.9 408.4C209.7 436.3 224 472.5 224 512L416 512C416 472.5 430.3 436.3 454.1 408.4L436.3 381.7C412.6 346.2 400 304.5 400 261.9L400 224zM448 224L448 261.9C448 295.1 457.8 327.5 476.2 355.1L490.6 376.7C515.3 361 544.6 352 576 352L576 224L448 224zM64 224L64 352C95.4 352 124.7 361 149.4 376.7L163.8 355.1C182.2 327.5 192 295.1 192 261.9L192 224L64 224z"/></svg>