<svg xmlns="http://www.w3.org/2000/svg" viewBox="0 0 640 640"><!--! Font Awesome Pro 7.2.0 by @fontawesome - https://fontawesome.com License - https://fontawesome.com/license (Commercial License) Copyright 2026 Fonticons, Inc. --><path fill="currentColor" d="M140.7 224L133.2 128L378.8 128L371.3 224L140.7 224zM104 576L240 576L240 376.2C249.6 348.1 265 323.1 286 302C316.4 271.5 364.2 243.5 434.2 240.1C440.7 157.3 445.3 98.6 448 64L64 64L104 576zM288 607.8L608 607.8L608 543.8L288 543.8L288 607.8zM608 384C608 384 576 287.9 448 287.8C320 288 288 384 288 384L288 431.8L608 431.8L608 384zM608 511.8L608 463.8L288 463.8L288 511.8L608 511.8zM432 336C432 327.2 439.2 320 448 320C456.8 320 464 327.2 464 336C464 344.8 456.8 352 448 352C439.2 352 432 344.8 432 336zM368 352C376.8 352 384 359.2 384 368C384 376.8 376.8 384 368 384C359.2 384 352 376.8 352 368C352 359.2 359.2 352 368 352zM512 368C512 359.2 519.2 352 528 352C536.8 352 544 359.2 544 368C544 376.8 536.8 384 528 384C519.2 384 512 376.8 512 368z"/></svg>