<svg xmlns="http://www.w3.org/2000/svg" viewBox="0 0 640 640"><!--! Font Awesome Pro 7.2.0 by @fontawesome - https://fontawesome.com License - https://fontawesome.com/license (Commercial License) Copyright 2026 Fonticons, Inc. --><path fill="currentColor" d="M96 544L96 464L544 464L544 544L96 544zM544 240L544 288L96 288L96 240C96 240 144 96 320 96C496 96 544 240 544 240zM312 336L384 384L456 336L576 336L576 416L64 416L64 336L312 336zM344 160C344 146.7 333.3 136 320 136C306.7 136 296 146.7 296 160C296 173.3 306.7 184 320 184C333.3 184 344 173.3 344 160zM208 216C221.3 216 232 205.3 232 192C232 178.7 221.3 168 208 168C194.7 168 184 178.7 184 192C184 205.3 194.7 216 208 216zM456 192C456 178.7 445.3 168 432 168C418.7 168 408 178.7 408 192C408 205.3 418.7 216 432 216C445.3 216 456 205.3 456 192z"/></svg>