<svg xmlns="http://www.w3.org/2000/svg" viewBox="0 0 640 640"><!--! Font Awesome Pro 7.2.0 by @fontawesome - https://fontawesome.com License - https://fontawesome.com/license (Commercial License) Copyright 2026 Fonticons, Inc. --><path fill="currentColor" d="M331.1 73.7L320 64L308.9 73.7C232.2 140.8 173.7 226.2 138.9 322C131.7 341.8 128 363 128 384.2C128 489.4 214.8 576 320 576C425.2 576 512 489.4 512 384.2C512 363.1 508.3 341.9 501.1 322C466.3 226.2 407.8 140.8 331.1 73.7zM409.8 369.9C413.9 379.2 416 389.3 416 399.4C416 452.4 373 495.9 320 495.9C267 495.9 224 452.4 224 399.4C224 389.3 226.1 379.1 230.2 369.9L231.1 367.8C247.5 331 271.6 298.2 301.9 271.7L319.9 256L337.9 271.7C368.2 298.2 392.4 331 408.7 367.8L409.6 369.9z"/></svg>