<svg xmlns="http://www.w3.org/2000/svg" viewBox="0 0 640 640"><!--! Font Awesome Pro 7.2.0 by @fontawesome - https://fontawesome.com License - https://fontawesome.com/license (Commercial License) Copyright 2026 Fonticons, Inc. --><path fill="currentColor" d="M224 96L224 64L160 64L160 128L64 128L64 240L512 240L512 128L416 128L416 64L352 64L352 128L224 128L224 96zM64 544L289.4 544C278.2 519.6 272 492.6 272 464C272 385.3 319.4 317.6 387.1 288L64 288L64 544zM464 608C543.5 608 608 543.5 608 464C608 384.5 543.5 320 464 320C384.5 320 320 384.5 320 464C320 543.5 384.5 608 464 608zM480 544L448 544L448 512L480 512L480 544zM480 368L480 480L448 480L448 368L480 368z"/></svg>