<svg xmlns="http://www.w3.org/2000/svg" viewBox="0 0 640 640"><!--! Font Awesome Pro 7.2.0 by @fontawesome - https://fontawesome.com License - https://fontawesome.com/license (Commercial License) Copyright 2026 Fonticons, Inc. --><path fill="currentColor" d="M129.3 96L446.7 96L454.2 117.4L497.1 240L496 240C479.1 240 462.7 242.2 447.1 246.3C437.6 248.8 428.2 252 419.1 256C400.7 264 383.8 274.9 369 288C329.1 323.2 304 374.7 304 432C304 448.6 306.1 464.7 310 480L128 480L128 544L32 544L32 256L73.3 256L121.8 117.4L129.3 96zM332.8 256C356.8 233.7 385.5 216.3 417.1 205.3L401.3 160L174.7 160L141.1 256L332.8 256zM128 400C145.7 400 160 385.7 160 368C160 350.3 145.7 336 128 336C110.3 336 96 350.3 96 368C96 385.7 110.3 400 128 400zM352 432C352 352.5 416.5 288 496 288C575.5 288 640 352.5 640 432C640 511.5 575.5 576 496 576C416.5 576 352 511.5 352 432zM544 336L400 448L470.9 448L448 528L592 416L521.1 416L544 336z"/></svg>