<svg xmlns="http://www.w3.org/2000/svg" viewBox="0 0 640 640"><!--! Font Awesome Pro 7.2.0 by @fontawesome - https://fontawesome.com License - https://fontawesome.com/license (Commercial License) Copyright 2026 Fonticons, Inc. --><path fill="currentColor" d="M144.3 192C108.5 192 78.2 168.5 68 136L160.3 136L160.3 88L68 88C78.2 55.5 108.5 32 144.3 32C177.1 32 205.3 51.7 217.6 80L423 80C435.3 51.7 463.5 32 496.3 32C532.1 32 562.4 55.5 572.6 88L480.3 88L480.3 136L572.6 136C562.4 168.5 532.1 192 496.3 192C463.5 192 435.3 172.3 423 144L217.7 144C205.4 172.3 177.2 192 144.4 192zM186.1 208L454.5 208L462.3 228.8L508.5 352L544.3 352L544.3 576L464.3 576L464.3 512L176.3 512L176.3 576L96.3 576L96.3 352L132.1 352L186.1 208zM410.1 272L230.5 272L200.5 352L440.1 352L410.1 272zM192.3 464C210 464 224.3 449.7 224.3 432C224.3 414.3 210 400 192.3 400C174.6 400 160.3 414.3 160.3 432C160.3 449.7 174.6 464 192.3 464zM480.3 432C480.3 414.3 466 400 448.3 400C430.6 400 416.3 414.3 416.3 432C416.3 449.7 430.6 464 448.3 464C466 464 480.3 449.7 480.3 432z"/></svg>