<svg xmlns="http://www.w3.org/2000/svg" viewBox="0 0 640 640"><!--! Font Awesome Pro 7.2.0 by @fontawesome - https://fontawesome.com License - https://fontawesome.com/license (Commercial License) Copyright 2026 Fonticons, Inc. --><path fill="currentColor" d="M284.2 68.5L265 79.6L71 191.6L51.8 202.7L55.4 224.6L77 354.4L46 372.3C123.3 506.2 136.7 529.3 158 566.3L227.3 526.3L195.3 470.9L444.7 326.9L476.7 382.3L546 342.3C500.7 263.8 463.3 199.1 434 148.3L403 166.2L301.4 82.6L284.3 68.5zM122.2 235.9L277.8 146.1L343.8 200.4L136.3 320.2L122.3 235.9zM374.8 237.8C384.7 231.7 397.2 231.5 407.3 237.2C417.4 242.9 423.6 253.7 423.5 265.4C423.4 277 417 287.6 406.8 293.2C396.9 299.3 384.4 299.5 374.3 293.8C364.2 288.1 358 277.3 358.1 265.6C358.2 254 364.6 243.4 374.8 237.8zM196.8 377.5C202.9 387.4 203.1 399.9 197.4 410C191.7 420.1 180.9 426.3 169.2 426.2C157.6 426.1 147 419.7 141.4 409.5C135.3 399.6 135.1 387.1 140.8 377C146.5 366.9 157.3 360.7 169 360.8C180.6 360.9 191.2 367.3 196.8 377.5zM496 464C434.1 464 384 514.1 384 576L608 576C608 514.1 557.9 464 496 464z"/></svg>