<svg xmlns="http://www.w3.org/2000/svg" viewBox="0 0 640 640"><!--! Font Awesome Pro 7.2.0 by @fontawesome - https://fontawesome.com License - https://fontawesome.com/license (Commercial License) Copyright 2026 Fonticons, Inc. --><path fill="currentColor" d="M24 48L0 48L0 96L76 96L136.4 428.3L140 448L304.7 448C306.1 431.3 309.6 415.2 315 400L180.1 400L171.4 352L340.1 352C375 303.5 431.8 272 496.1 272C511.9 272 527.3 273.9 542.1 277.5L576 96L124.8 96C121.1 75.7 118.2 59.7 116.1 48L24 48zM208 576C234.5 576 256 554.5 256 528C256 501.5 234.5 480 208 480C181.5 480 160 501.5 160 528C160 554.5 181.5 576 208 576zM640 464C640 384.5 575.5 320 496 320C416.5 320 352 384.5 352 464C352 543.5 416.5 608 496 608C575.5 608 640 543.5 640 464zM566.4 412.5L557 425.4L493 513.4L482 528.5C477.6 524.1 459.9 506.4 428.8 475.3L417.4 464L440 441.4C445 446.4 457.7 459.1 478.1 479.5L531.1 406.6L540.5 393.7L566.4 412.5z"/></svg>