<svg xmlns="http://www.w3.org/2000/svg" viewBox="0 0 640 640"><!--! Font Awesome Pro 7.2.0 by @fontawesome - https://fontawesome.com License - https://fontawesome.com/license (Commercial License) Copyright 2026 Fonticons, Inc. --><path fill="currentColor" d="M384 64L96 64L96 192L208 192L208 224L96 224L64 435.2L64 576L576 576L576 435.2L544 224L272 224L272 192L384 192L384 64zM160 112L336 112L336 144L144 144L144 112L160 112zM128 480L512 480L512 512L128 512L128 480zM200 280L200 328L152 328L152 280L200 280zM248 328L248 280L296 280L296 328L248 328zM248 360L248 408L200 408L200 360L248 360zM344 280L392 280L392 328L344 328L344 280zM296 360L344 360L344 408L296 408L296 360zM440 280L488 280L488 328L440 328L440 280zM440 360L440 408L392 408L392 360L440 360z"/></svg>