<svg xmlns="http://www.w3.org/2000/svg" viewBox="0 0 640 640"><!--! Font Awesome Pro 7.2.0 by @fontawesome - https://fontawesome.com License - https://fontawesome.com/license (Commercial License) Copyright 2026 Fonticons, Inc. --><path fill="currentColor" d="M432 32C529.2 32 608 110.8 608 208C608 288.6 553.9 356.4 480 377.3L480 576L416 576L416 403.2L280 512L368 512L368 576L96 576L96 256C96 238.3 81.7 224 64 224L32 224L32 160L64 160C117 160 160 203 160 256L160 341.8C184.6 304.8 221.6 276.9 265.2 264C259.3 246.4 256 227.6 256 208C256 110.8 334.8 32 432 32zM528 208C528 261 485 304 432 304C379 304 336 261 336 208L336 123.3C316.1 145.9 304 175.5 304 208C304 278.7 361.3 336 432 336C502.7 336 560 278.7 560 208C560 175.5 547.9 145.9 528 123.3L528 208zM400 188C389 188 380 197 380 208C380 219 389 228 400 228C411 228 420 219 420 208C420 197 411 188 400 188zM464 188C453 188 444 197 444 208C444 219 453 228 464 228C475 228 484 219 484 208C484 197 475 188 464 188zM179.4 76.5L232 96L179.4 115.4L160 168L140.6 115.4L88 96L140.6 76.5L160 24L179.4 76.5zM432 80C405.3 80 380.4 88.2 359.9 102.2L404.6 139.4L459.5 139.4L504.1 102.2C483.5 88.2 458.7 80 432 80z"/></svg>