<svg xmlns="http://www.w3.org/2000/svg" viewBox="0 0 640 640"><!--! Font Awesome Pro 7.2.0 by @fontawesome - https://fontawesome.com License - https://fontawesome.com/license (Commercial License) Copyright 2026 Fonticons, Inc. --><path fill="currentColor" d="M273.2 63.5L243.3 32.8C237.3 56.6 228.2 92.2 216.2 139.8C169 126.5 133.6 116.5 110 109.8C116.7 133.4 126.7 168.8 140 216C92.4 228.1 56.8 237.1 33 243.1C50.6 260.2 76.9 285.9 112.1 320.1C76.9 354.3 50.6 380 33 397.1C56.8 403.1 92.4 412.2 140 424.2C126.7 471.4 116.7 506.8 110 530.4C133.6 523.7 169 513.7 216.2 500.4C228.3 548 237.3 583.6 243.3 607.4C260.4 589.8 286.1 563.5 320.3 528.3C354.5 563.5 380.2 589.8 397.3 607.4C403.3 583.6 412.4 548 424.4 500.4C471.6 513.7 507 523.7 530.6 530.4C523.9 506.8 513.9 471.4 500.6 424.2C548.2 412.1 583.8 403.1 607.6 397.1C590 380 563.7 354.3 528.5 320.1C563.7 285.9 590 260.2 607.6 243.1C583.8 237.1 548.2 228 500.6 216C513.9 168.8 523.9 133.4 530.6 109.8C507 116.5 471.6 126.5 424.4 139.8C412.3 92.2 403.3 56.6 397.3 32.8C380.2 50.4 354.5 76.7 320.3 111.9L273.2 63.5z"/></svg>