<svg xmlns="http://www.w3.org/2000/svg" viewBox="0 0 640 640"><!--! Font Awesome Pro 7.2.0 by @fontawesome - https://fontawesome.com License - https://fontawesome.com/license (Commercial License) Copyright 2026 Fonticons, Inc. --><path fill="currentColor" d="M320 352C373 352 416 309 416 256C416 203 373 160 320 160L192 160C139 160 96 203 96 256C96 281.2 105.7 304.2 121.6 321.3C115.4 341.1 112 362.2 112 384C112 387.6 112.1 391.2 112.3 394.8C64.3 367.2 32 315.4 32 256C32 167.6 103.6 96 192 96L320 96C408.4 96 480 167.6 480 256C480 344.4 408.4 416 320 416L288 416L288 352L320 352zM544 384C544 358.8 534.3 335.8 518.4 318.7C524.6 298.9 528 277.8 528 256C528 252.4 527.9 248.8 527.7 245.2C575.7 272.8 608 324.6 608 384C608 472.4 536.4 544 448 544L320 544C231.6 544 160 472.4 160 384C160 295.6 231.6 224 320 224L352 224L352 288L320 288C267 288 224 331 224 384C224 437 267 480 320 480L448 480C501 480 544 437 544 384z"/></svg>