<svg xmlns="http://www.w3.org/2000/svg" viewBox="0 0 640 640"><!--! Font Awesome Pro 7.2.0 by @fontawesome - https://fontawesome.com License - https://fontawesome.com/license (Commercial License) Copyright 2026 Fonticons, Inc. --><path fill="currentColor" d="M128 96L128 480L576 480L576 544L64 544L64 96L128 96zM368 413.3C361.4 406.7 329.4 374.7 272 317.3C241.3 348 220 369.3 208 381.3L162.7 336C170.9 327.8 199.8 298.9 249.3 249.4L272 226.7C278.6 233.3 310.6 265.3 368 322.7L433.4 257.3L368 191.9L544 191.9L544 367.9L478.6 302.5C409.1 372.2 372.2 409.1 368 413.3z"/></svg>