<svg xmlns="http://www.w3.org/2000/svg" viewBox="0 0 640 640"><!--! Font Awesome Pro 7.2.0 by @fontawesome - https://fontawesome.com License - https://fontawesome.com/license (Commercial License) Copyright 2026 Fonticons, Inc. --><path fill="currentColor" d="M45.5 320.1L52.3 308.2L176 92.1L182.9 80L458 80L464.9 92.1L588.6 308.2L595.4 320.1L588.6 332L464.9 548.1L458 560.2L182.9 560.2L176 548.1L52.3 332L45.5 320.1zM368.5 224C368.5 197.5 347 176 320.5 176C294 176 272.5 197.5 272.5 224C272.5 230.7 273.9 237.1 276.4 242.9L230.3 304.4C228.4 304.2 226.5 304.1 224.6 304.1C198.1 304.1 176.6 325.6 176.6 352.1C176.6 378.6 198.1 400.1 224.6 400.1C239 400.1 251.9 393.8 260.7 383.8L339 399.4C345.4 418.4 363.4 432 384.5 432C411 432 432.5 410.5 432.5 384C432.5 359.8 414.6 339.8 391.3 336.5L358.2 253.7C364.6 245.5 368.5 235.2 368.5 224zM345.7 351.8L269.9 336.6C269.5 335.4 269.1 334.3 268.6 333.1L314 272.5L345.7 351.7z"/></svg>