<svg xmlns="http://www.w3.org/2000/svg" viewBox="0 0 640 640"><!--! Font Awesome Pro 7.2.0 by @fontawesome - https://fontawesome.com License - https://fontawesome.com/license (Commercial License) Copyright 2026 Fonticons, Inc. --><path fill="currentColor" d="M128 96L128 480L576 480L576 544L64 544L64 96L128 96zM478.6 273.4L544 208L544 384L368 384L433.4 318.6L368 253.2C310.6 310.6 278.6 342.6 272 349.2C263.8 341 234.9 312.1 185.4 262.6L162.7 240L208 194.7C220 206.7 241.3 228 272 258.7C329.4 201.3 361.4 169.3 368 162.7C372.2 166.9 409.1 203.8 478.6 273.3z"/></svg>