<svg xmlns="http://www.w3.org/2000/svg" viewBox="0 0 640 640"><!--! Font Awesome Pro 7.2.0 by @fontawesome - https://fontawesome.com License - https://fontawesome.com/license (Commercial License) Copyright 2026 Fonticons, Inc. --><path fill="currentColor" d="M320 86C334.9 86 347 73.9 347 59C347 44.1 334.9 32 320 32C305.1 32 293 44.1 293 59C293 73.9 305.1 86 320 86zM224 128L160 112L160 144L232.7 264L208 264L208 312L237.6 312L224 448L160 528L160 576L480 576L480 528L416 448L402.4 312L432 312L432 264L407.3 264L480 144L480 112L416 128L368 96L320 128L272 96L224 128z"/></svg>