<svg xmlns="http://www.w3.org/2000/svg" viewBox="0 0 640 640"><!--! Font Awesome Pro 7.2.0 by @fontawesome - https://fontawesome.com License - https://fontawesome.com/license (Commercial License) Copyright 2026 Fonticons, Inc. --><path fill="currentColor" d="M368 80L528 80L528 128L472 128L472 160L608 160L608 512L32 512L32 160L96 160L96 128L256 128L256 160L424 160L424 128L368 128L368 80zM560 336C560 274.1 509.9 224 448 224C386.1 224 336 274.1 336 336C336 397.9 386.1 448 448 448C509.9 448 560 397.9 560 336zM472 256L472 352L424 352L424 256L472 256zM112.8 415.2C156.5 458.9 227.5 458.9 271.2 415.2C314.9 371.5 314.9 300.5 271.2 256.8C227.5 213.1 156.5 213.1 112.8 256.8C69.1 300.5 69.1 371.5 112.8 415.2zM248.6 313.4C223.1 338.9 206.2 355.8 197.7 364.3L163.8 330.4C172.3 321.9 189.3 304.9 214.7 279.5L231.7 262.5L265.6 296.4L248.6 313.4z"/></svg>