<svg xmlns="http://www.w3.org/2000/svg" viewBox="0 0 640 640"><!--! Font Awesome Pro 7.2.0 by @fontawesome - https://fontawesome.com License - https://fontawesome.com/license (Commercial License) Copyright 2026 Fonticons, Inc. --><path fill="currentColor" d="M224 448L208.3 432.3C177.4 401.4 160 359.4 160 315.7C160 277.1 173.5 239.8 198.2 210.1L266.6 128L223.9 128L223.9 64L415.9 64L415.9 128L373.2 128L420.8 185.1L317.9 288L351.8 321.9L451.1 222.6C469.8 249.9 479.8 282.3 479.8 315.6C479.8 359.3 462.4 401.3 431.5 432.2L415.8 447.9L479.8 527.9L479.8 575.9L159.8 575.9L159.8 527.9L223.8 447.9z"/></svg>