<svg xmlns="http://www.w3.org/2000/svg" viewBox="0 0 640 640"><!--! Font Awesome Pro 7.2.0 by @fontawesome - https://fontawesome.com License - https://fontawesome.com/license (Commercial License) Copyright 2026 Fonticons, Inc. --><path fill="currentColor" d="M320 576C461.4 576 576 461.4 576 320C576 178.6 461.4 64 320 64C178.6 64 64 178.6 64 320C64 461.4 178.6 576 320 576zM304 192L304 276.5C350.6 261 375.3 252.7 378.1 251.8L388.2 282.2C387.1 282.6 359 291.9 304 310.3L304 400.1L416 400.1L416 448.1L256 448.1L256 326.3C236.1 332.9 222 337.6 213.9 340.3L203.8 309.9C210.3 307.7 227.7 301.9 256 292.5L256 192L304 192z"/></svg>