<svg xmlns="http://www.w3.org/2000/svg" viewBox="0 0 640 640"><!--! Font Awesome Pro 7.2.0 by @fontawesome - https://fontawesome.com License - https://fontawesome.com/license (Commercial License) Copyright 2026 Fonticons, Inc. --><path fill="currentColor" d="M320 576C461.4 576 576 461.4 576 320C576 178.6 461.4 64 320 64C178.6 64 64 178.6 64 320C64 461.4 178.6 576 320 576zM200 192L227.4 192C260.9 192 288 219.1 288 252.6L288 272L320 272L320 304L288 304L288 387.4C288 394.3 293.6 400 300.6 400L324.6 400C361.8 400 392 369.8 392 332.6L392 316.6C392 309.7 386.4 304 379.4 304L376 304L352 304L352 256L376 256L379.4 256C412.9 256 440 283.1 440 316.6L440 332.6C440 396.3 388.3 448 324.6 448L300.6 448C267.1 448 240 420.9 240 387.4L240 304L210.3 304L210.3 272L240 272L240 252.6C240 245.7 234.4 240 227.4 240L200 240L200 192z"/></svg>