<svg xmlns="http://www.w3.org/2000/svg" viewBox="0 0 640 640"><!--! Font Awesome Pro 7.2.0 by @fontawesome - https://fontawesome.com License - https://fontawesome.com/license (Commercial License) Copyright 2026 Fonticons, Inc. --><path fill="currentColor" d="M320 576C461.4 576 576 461.4 576 320C576 178.6 461.4 64 320 64C178.6 64 64 178.6 64 320C64 461.4 178.6 576 320 576zM408 184L408 216L440 216L440 264L391.6 264C383 264 376 271 376 279.6C376 287 381.2 293.4 388.5 294.9L404.9 298.2C434.6 304.1 456 330.2 456 360.5C456 390.2 435.6 415.2 408 422.1L408 456L376 456L376 424L336 424L336 376L392.4 376C401 376 408 369 408 360.4C408 353 402.8 346.6 395.5 345.1L379.1 341.8C349.4 335.9 328 309.8 328 279.5C328 249.8 348.4 224.8 376 217.9L376 184L408 184zM184 279.6C184 244.5 212.5 216 247.6 216L296 216L296 264L247.6 264C239 264 232 271 232 279.6C232 287 237.2 293.4 244.5 294.9L260.9 298.2C290.6 304.1 312 330.2 312 360.5C312 395.6 283.5 424.1 248.4 424.1L192 424.1L192 376.1L248.4 376.1C257 376.1 264 369.1 264 360.5C264 353.1 258.8 346.7 251.5 345.2L235.1 341.9C205.4 336 184 309.9 184 279.6z"/></svg>