<svg xmlns="http://www.w3.org/2000/svg" viewBox="0 0 640 640"><!--! Font Awesome Pro 7.2.0 by @fontawesome - https://fontawesome.com License - https://fontawesome.com/license (Commercial License) Copyright 2026 Fonticons, Inc. --><path fill="currentColor" d="M320 576C461.4 576 576 461.4 576 320C576 178.6 461.4 64 320 64C178.6 64 64 178.6 64 320C64 461.4 178.6 576 320 576zM239.5 264C239.5 217.5 277 176 327.6 176L329.8 176C349.5 176 368.6 182.4 384.3 194.2L398.5 204.8L369.7 243.2L355.5 232.6C348 227 339 224 329.7 224L327.5 224C304.5 224 287.4 242.9 287.5 264L384 264L384 296L296.5 296C298.6 303.9 299.7 312 300 320L384 320L384 352L296 352C292.8 363.3 287.7 374.1 280.9 384L416 384L416 432L216 432L216 389.5C217.1 388.1 225 377.9 239.7 359C241.4 356.8 243 354.4 244.4 352L224 352L224 320L251.9 320C251.5 313.6 250.1 307.1 247.6 301L246.2 297.5C246 297 245.8 296.5 245.6 296L224 296L224 264L239.5 264z"/></svg>