<svg xmlns="http://www.w3.org/2000/svg" viewBox="0 0 640 640"><!--! Font Awesome Pro 7.2.0 by @fontawesome - https://fontawesome.com License - https://fontawesome.com/license (Commercial License) Copyright 2026 Fonticons, Inc. --><path fill="currentColor" d="M320 576C461.4 576 576 461.4 576 320C576 178.6 461.4 64 320 64C178.6 64 64 178.6 64 320C64 461.4 178.6 576 320 576zM261.3 191.2C263.6 195.2 283.2 228.7 320 291.7C356.8 228.7 376.4 195.2 378.7 191.2L420.1 215.4C418.2 218.7 397.8 253.6 359 320L400 320L400 352L344 352L344 384L400 384L400 416L344 416L344 464L296 464L296 416L240 416L240 384L296 384L296 352L240 352L240 320L281 320C242.2 253.5 221.8 218.7 219.9 215.4L261.3 191.2z"/></svg>