<svg xmlns="http://www.w3.org/2000/svg" viewBox="0 0 640 640"><!--! Font Awesome Pro 7.2.0 by @fontawesome - https://fontawesome.com License - https://fontawesome.com/license (Commercial License) Copyright 2026 Fonticons, Inc. --><path fill="currentColor" d="M320 576C461.4 576 576 461.4 576 320C576 178.6 461.4 64 320 64C178.6 64 64 178.6 64 320C64 461.4 178.6 576 320 576zM344 396.3C360.1 391.2 374.1 381.2 384 368L422.4 396.8C403.7 421.8 375.9 439.7 344 445.7L344 479.9L296 479.9L296 445.7C236.8 434.5 192 382.5 192 320C192 257.5 236.8 205.5 296 194.2L296 160L344 160L344 194.2C375.9 200.3 403.6 218.2 422.4 243.1L384 272C374 258.7 360.1 248.7 344 243.7L344 396.4zM296 243.7C263.5 253.9 240 284.2 240 320C240 355.8 263.5 386.1 296 396.3L296 243.6z"/></svg>