<svg xmlns="http://www.w3.org/2000/svg" viewBox="0 0 640 640"><!--! Font Awesome Pro 7.2.0 by @fontawesome - https://fontawesome.com License - https://fontawesome.com/license (Commercial License) Copyright 2026 Fonticons, Inc. --><path fill="currentColor" d="M320 576C461.4 576 576 461.4 576 320C576 178.6 461.4 64 320 64C178.6 64 64 178.6 64 320C64 461.4 178.6 576 320 576zM400 232L400 344C400 392.6 360.6 432 312 432C263.4 432 224 392.6 224 344L224 320L272 320L272 344C272 366.1 289.9 384 312 384C334.1 384 352 366.1 352 344L352 208L400 208L400 232z"/></svg>