<svg xmlns="http://www.w3.org/2000/svg" viewBox="0 0 640 640"><!--! Font Awesome Pro 7.2.0 by @fontawesome - https://fontawesome.com License - https://fontawesome.com/license (Commercial License) Copyright 2026 Fonticons, Inc. --><path fill="currentColor" d="M64.3 30.2C65 30.8 97.6 63.4 162.2 128L576.2 128L576.2 512L546.2 512C582.6 548.4 604 569.8 610.3 576.1L576.4 610L559.4 593L47.4 81L30.4 64L64.3 30.1zM384.1 350L384.1 280C384.1 275.6 387.7 272 392.1 272L424.1 272C428.5 272 432.1 275.6 432.1 280L432.1 304L480.1 304L480.1 280C480.1 249.1 455 224 424.1 224L392.1 224C361.2 224 336.1 249.1 336.1 280L336.1 302L384.1 350zM445.8 411.7C466 403.2 480.1 383.3 480.1 360.1L480.1 336.1L432.1 336.1L432.1 360.1C432.1 364.5 428.5 368.1 424.1 368.1L402.1 368.1L445.7 411.7zM410.3 512L64.1 512L64.1 165.8L162.4 264.1C160.9 269.1 160.1 274.5 160.1 280L160.1 360C160.1 390.9 185.2 416 216.1 416L248.1 416C266.2 416 282.2 407.5 292.5 394.2L410.3 512zM208.1 309.8L256.1 357.8L256.1 360C256.1 364.4 252.5 368 248.1 368L216.1 368C211.7 368 208.1 364.4 208.1 360L208.1 309.8z"/></svg>