<svg xmlns="http://www.w3.org/2000/svg" viewBox="0 0 640 640"><!--! Font Awesome Pro 7.2.0 by @fontawesome - https://fontawesome.com License - https://fontawesome.com/license (Commercial License) Copyright 2026 Fonticons, Inc. --><path fill="currentColor" d="M176 544L608 544L608 416C608 368.6 582.3 327.3 544 305.1L544 256C544 203 501 160 448 160C430.3 160 413.8 164.8 399.6 173.1C375.5 127.3 327.4 96 272 96C192.5 96 128 160.5 128 240L128 264.2C72.1 284 32 337.3 32 400L32 544L176 544zM337 449L320 466C317.9 463.9 288.2 434.2 231 377L214 360L247.9 326.1C256.9 335.1 272.9 351.1 295.9 374.1L295.9 248L343.9 248L343.9 374.1C366.9 351.1 382.9 335.1 391.9 326.1L425.9 360C423.8 362.1 394.1 391.8 336.9 449z"/></svg>