<svg xmlns="http://www.w3.org/2000/svg" viewBox="0 0 640 640"><!--! Font Awesome Pro 7.2.0 by @fontawesome - https://fontawesome.com License - https://fontawesome.com/license (Commercial License) Copyright 2026 Fonticons, Inc. --><path fill="currentColor" d="M272 96C327.4 96 375.5 127.3 399.6 173.1C413.8 164.8 430.4 160 448 160C501 160 544 203 544 256L544 305.1C582.3 327.2 608 368.6 608 416L608 544L32 544L32 400C32 337.3 72.1 284 128 264.2L128 240C128 160.5 192.5 96 272 96zM377.4 265.9L291.8 383.6C272.5 363.6 258.1 348.7 248.6 338.9L214.1 372.2C220.3 378.6 241.3 400.3 277.2 437.5L297 458.1L313.8 435L416.2 294.2L430.3 274.8L391.5 246.6L377.4 266z"/></svg>