<svg xmlns="http://www.w3.org/2000/svg" viewBox="0 0 640 640"><!--! Font Awesome Pro 7.2.0 by @fontawesome - https://fontawesome.com License - https://fontawesome.com/license (Commercial License) Copyright 2026 Fonticons, Inc. --><path fill="currentColor" d="M160 384L64 384L64 288C64 246.2 90.7 210.6 128 197.5L128 176C128 114.1 178.1 64 240 64C283.1 64 320.5 88.3 339.2 124C353.9 106.9 375.7 96 400 96C444.2 96 480 131.8 480 176L480 192C533 192 576 235 576 288L576 384L160 384zM544 432L544 480L32 480L32 432L544 432zM96 528L224 528L224 576L96 576L96 528zM272 528L608 528L608 576L272 576L272 528z"/></svg>