<svg xmlns="http://www.w3.org/2000/svg" viewBox="0 0 640 640"><!--! Font Awesome Pro 7.2.0 by @fontawesome - https://fontawesome.com License - https://fontawesome.com/license (Commercial License) Copyright 2026 Fonticons, Inc. --><path fill="currentColor" d="M160 320C190.8 320 217.5 337.4 230.9 362.8C240.2 356 251.6 352 264 352C298.2 352 324.9 384 319.2 417.4C356.1 424.5 384 457 384 496L384 576L32 576L32 496C32 462.1 53.1 433.1 82.9 421.4C81 414.6 80 407.4 80 400C80 355.8 115.8 320 160 320zM432 240C464.9 240 493.1 259.9 505.4 288.2C507.6 288.1 509.8 288 512 288C565 288 608 331 608 384L608 480L430.9 480C425.7 438.3 400.5 402.8 365.1 383.5C358.4 355.8 340.7 332.5 316.8 318.4C327.2 310.6 339.9 305.5 353.6 304.3C360.9 267.6 393.2 240 432 240zM253.7 211.7C278.2 201.6 306.3 213.2 316.4 237.7C319.2 244.5 320.3 251.6 319.9 258.5C318.9 260.3 317.9 262.2 316.9 264.1C296 272.2 277.9 285.9 264.5 303.5C248.6 301 234.3 290.5 227.6 274.5C217.5 250 229.1 221.9 253.6 211.8zM285.3 39.3L332.6 109.7L415.9 93.4L439.2 88.9L434.7 112.2L418.9 192.9C396.7 195.2 376.2 203.1 358.9 215.2C337.2 169.1 282.9 147.8 235.4 167.5C192.8 185.1 169.7 229.8 177.7 273.4C172 272.6 166.1 272.2 160.1 272.2C134.3 272.2 110.3 279.8 90.3 292.9C64.5 275.5 46.3 263.3 35.7 256.2C40.4 253.1 70.4 232.8 125.8 195.6L109.5 112.3L105 89L128.2 93.5L211.5 109.8L258.9 39.4L272.1 19.7L285.4 39.4z"/></svg>