<svg xmlns="http://www.w3.org/2000/svg" viewBox="0 0 640 640"><!--! Font Awesome Pro 7.2.0 by @fontawesome - https://fontawesome.com License - https://fontawesome.com/license (Commercial License) Copyright 2026 Fonticons, Inc. --><path fill="currentColor" d="M176 544L608 544L608 416C608 368.6 582.3 327.3 544 305.1L544 256C544 203 501 160 448 160C430.3 160 413.8 164.8 399.6 173.1C375.5 127.3 327.4 96 272 96C192.5 96 128 160.5 128 240L128 264.2C72.1 284 32 337.3 32 400L32 544L176 544zM400 256L400 320L352 320L352 424C352 454.9 323.3 480 288 480C252.7 480 224 454.9 224 424C224 393.1 252.7 368 288 368C293.5 368 298.9 368.6 304 369.8L304 256L400 256z"/></svg>