<svg xmlns="http://www.w3.org/2000/svg" viewBox="0 0 640 640"><!--! Font Awesome Pro 7.2.0 by @fontawesome - https://fontawesome.com License - https://fontawesome.com/license (Commercial License) Copyright 2026 Fonticons, Inc. --><path fill="currentColor" d="M392.3 58.7C408.3 74.7 421.6 88 432.3 98.7C443 88 456.3 74.7 472.3 58.7L517.5 104C501.5 120 488.2 133.3 477.5 144C488.2 154.7 501.5 168 517.5 184L472.2 229.3L432.2 189.3L392.2 229.3L346.9 184C362.9 168 376.2 154.7 386.9 144C376.2 133.3 362.9 120 346.9 104L392.3 58.7zM184.3 120L184.3 168L232.3 168L232.3 120L184.3 120zM128.3 64L288.3 64L288.3 224L240.3 224L240.3 416L288.3 416L288.3 576L128.3 576L128.3 416L176.3 416L176.3 224L128.3 224L128.3 64zM464.3 288L464.3 416L512.3 416L512.3 576L352.3 576L352.3 416L400.3 416L400.3 288L464.3 288zM408.3 520L456.3 520L456.3 472L408.3 472L408.3 520zM232.3 472L184.3 472L184.3 520L232.3 520L232.3 472z"/></svg>