<svg xmlns="http://www.w3.org/2000/svg" viewBox="0 0 640 640"><!--! Font Awesome Pro 7.2.0 by @fontawesome - https://fontawesome.com License - https://fontawesome.com/license (Commercial License) Copyright 2026 Fonticons, Inc. --><path fill="currentColor" d="M200 120L200 168L152 168L152 120L200 120zM152 64L96 64L96 224L144 224L144 416L96 416L96 576L256 576L256 416L208 416L208 336C234.7 356.1 268 368 304 368L384 368L384 416L544 416L544 256L384 256L384 304L304 304C256.4 304 216.9 269.4 209.3 224L256 224L256 64L152 64zM200 472L200 520L152 520L152 472L200 472zM440 312L488 312L488 360L440 360L440 312z"/></svg>