<svg xmlns="http://www.w3.org/2000/svg" viewBox="0 0 640 640"><!--! Font Awesome Pro 7.2.0 by @fontawesome - https://fontawesome.com License - https://fontawesome.com/license (Commercial License) Copyright 2026 Fonticons, Inc. --><path fill="currentColor" d="M200 120L200 168L152 168L152 120L200 120zM152 64L96 64L96 224L144 224L144 240C144 301.9 194.1 352 256 352L288 352L288 416L240 416L240 576L400 576L400 416L352 416L352 352L384 352C445.9 352 496 301.9 496 240L496 224L544 224L544 64L384 64L384 224L432 224L432 240C432 266.5 410.5 288 384 288L256 288C229.5 288 208 266.5 208 240L208 224L256 224L256 64L152 64zM488 120L488 168L440 168L440 120L488 120zM296 472L344 472L344 520L296 520L296 472z"/></svg>