<svg xmlns="http://www.w3.org/2000/svg" viewBox="0 0 640 640"><!--! Font Awesome Pro 7.2.0 by @fontawesome - https://fontawesome.com License - https://fontawesome.com/license (Commercial License) Copyright 2026 Fonticons, Inc. --><path fill="currentColor" d="M96 96L64 96L64 288L128 288L128 160L181.3 160L209.1 243.3C160 278 128 335.3 128 400L128 408C128 488 200 544 200 544L504 544C504 544 576 488 576 408L576 400C576 335.3 544 278 494.9 243.3L544 96L96 96zM258 288L446 288C480.9 307.4 505.8 342.6 511 384L193 384C198.2 342.6 223.1 307.4 258 288z"/></svg>