<svg xmlns="http://www.w3.org/2000/svg" viewBox="0 0 640 640"><!--! Font Awesome Pro 7.2.0 by @fontawesome - https://fontawesome.com License - https://fontawesome.com/license (Commercial License) Copyright 2026 Fonticons, Inc. --><path fill="currentColor" d="M304 536L304 543.5C271.5 541.6 240.7 534.1 212.7 521.9L64 576L119.7 453.5C84.8 412.5 64 360.5 64 304C64 171.5 178.6 64 320 64C461.4 64 576 171.5 576 304C576 314.8 575.2 325.5 573.7 336L528 336L528 304L384 304L384 352L304 352L304 536zM480 376L480 608L432 608L432 352L480 352L480 376zM560 408L560 576L512 576L512 384L560 384L560 408zM400 424L400 560L352 560L352 400L400 400L400 424zM640 456L640 528L592 528L592 432L640 432L640 456z"/></svg>