<svg xmlns="http://www.w3.org/2000/svg" viewBox="0 0 640 640"><!--! Font Awesome Pro 7.2.0 by @fontawesome - https://fontawesome.com License - https://fontawesome.com/license (Commercial License) Copyright 2026 Fonticons, Inc. --><path fill="currentColor" d="M64 96L64 512L192 512L192 608L352 512L576 512L576 96L64 96zM192 272C209.7 272 224 286.3 224 304C224 321.7 209.7 336 192 336C174.3 336 160 321.7 160 304C160 286.3 174.3 272 192 272zM320 272C337.7 272 352 286.3 352 304C352 321.7 337.7 336 320 336C302.3 336 288 321.7 288 304C288 286.3 302.3 272 320 272zM416 304C416 286.3 430.3 272 448 272C465.7 272 480 286.3 480 304C480 321.7 465.7 336 448 336C430.3 336 416 321.7 416 304z"/></svg>