<svg xmlns="http://www.w3.org/2000/svg" viewBox="0 0 640 640"><!--! Font Awesome Pro 7.2.0 by @fontawesome - https://fontawesome.com License - https://fontawesome.com/license (Commercial License) Copyright 2026 Fonticons, Inc. --><path fill="currentColor" d="M576 304C576 436.5 461.4 544 320 544C281.7 544 245.3 536.1 212.7 521.9L64 576L119.7 453.5C84.8 412.5 64 360.5 64 304C64 171.5 178.6 64 320 64C461.4 64 576 171.5 576 304zM281.6 265.6L214.4 265.6L214.4 342.4L281.6 342.4L281.6 409.6L358.4 409.6L358.4 342.4L425.6 342.4L425.6 265.6L358.4 265.6L358.4 198.4L281.6 198.4L281.6 265.6z"/></svg>