<svg xmlns="http://www.w3.org/2000/svg" viewBox="0 0 640 640"><!--! Font Awesome Pro 7.2.0 by @fontawesome - https://fontawesome.com License - https://fontawesome.com/license (Commercial License) Copyright 2026 Fonticons, Inc. --><path fill="currentColor" d="M320 64C354 64 386.5 70.2 416.2 81.5C405.9 100 400 121.3 400 144C400 214.7 457.3 272 528 272C543.6 272 558.6 269.2 572.5 264.1C574.8 277.1 576 290.4 576 304C576 436.5 461.4 544 320 544C281.7 544 245.3 536.1 212.7 521.9L64 576L119.7 453.5C84.8 412.5 64 360.5 64 304C64 171.5 178.6 64 320 64zM528 64C572.2 64 608 99.8 608 144C608 188.2 572.2 224 528 224C483.8 224 448 188.2 448 144C448 99.8 483.8 64 528 64z"/></svg>