<svg xmlns="http://www.w3.org/2000/svg" viewBox="0 0 640 640"><!--! Font Awesome Pro 7.2.0 by @fontawesome - https://fontawesome.com License - https://fontawesome.com/license (Commercial License) Copyright 2026 Fonticons, Inc. --><path fill="currentColor" d="M224 160L224 128L160 128L160 224L64 224L64 288L224 288L224 160zM96 352L64 352L64 416L160 416L160 512L224 512L224 352L96 352zM480 160L480 128L416 128L416 288L576 288L576 224L480 224L480 160zM448 352L416 352L416 512L480 512L480 416L576 416L576 352L448 352z"/></svg>