<svg xmlns="http://www.w3.org/2000/svg" viewBox="0 0 640 640"><!--! Font Awesome Pro 7.2.0 by @fontawesome - https://fontawesome.com License - https://fontawesome.com/license (Commercial License) Copyright 2026 Fonticons, Inc. --><path fill="currentColor" d="M192 224L192 128L96 128L96 64L192 64L192 64L256 64L256 64L352 64L352 128L256 128L256 192L352 192L352 192L480 192L480 288L432 288L432 256L224 256L192 256L192 224zM416 320L512 320L512 384L544 384C597 384 640 427 640 480C640 533 597 576 544 576L96 576C43 576 0 533 0 480C0 427 43 384 96 384L96 320L192 320L192 384L256 384L256 320L352 320L352 384L416 384L416 320zM128 512C145.7 512 160 497.7 160 480C160 462.3 145.7 448 128 448C110.3 448 96 462.3 96 480C96 497.7 110.3 512 128 512zM352 480C352 462.3 337.7 448 320 448C302.3 448 288 462.3 288 480C288 497.7 302.3 512 320 512C337.7 512 352 497.7 352 480zM512 512C529.7 512 544 497.7 544 480C544 462.3 529.7 448 512 448C494.3 448 480 462.3 480 480C480 497.7 494.3 512 512 512z"/></svg>