<svg xmlns="http://www.w3.org/2000/svg" viewBox="0 0 640 640"><!--! Font Awesome Pro 7.2.0 by @fontawesome - https://fontawesome.com License - https://fontawesome.com/license (Commercial License) Copyright 2026 Fonticons, Inc. --><path fill="currentColor" d="M576 288L64 288L64 416L576 416L576 288zM576 448L64 448L64 576L576 576L576 448zM128 336C136.8 336 144 343.2 144 352C144 360.8 136.8 368 128 368C119.2 368 112 360.8 112 352C112 343.2 119.2 336 128 336zM112 512C112 503.2 119.2 496 128 496C136.8 496 144 503.2 144 512C144 520.8 136.8 528 128 528C119.2 528 112 520.8 112 512zM512 336C520.8 336 528 343.2 528 352C528 360.8 520.8 368 512 368C503.2 368 496 360.8 496 352C496 343.2 503.2 336 512 336zM496 512C496 503.2 503.2 496 512 496C520.8 496 528 503.2 528 512C528 520.8 520.8 528 512 528C503.2 528 496 520.8 496 512z"/></svg>