<svg xmlns="http://www.w3.org/2000/svg" viewBox="0 0 640 640"><!--! Font Awesome Pro 7.2.0 by @fontawesome - https://fontawesome.com License - https://fontawesome.com/license (Commercial License) Copyright 2026 Fonticons, Inc. --><path fill="currentColor" d="M456 64C483.3 64 507.7 76.5 523.9 96L592 96L640 128L640 160L544 184L544 256C544 344 484.8 418.1 404.2 440.8L459.9 576L408 576L355.3 448C354.2 448 353.2 448 352.1 448L311.2 448L363.9 576L312 576L259.3 448L128 448L51.2 505.6L12.8 454.4L368 188L368 152C368 103.4 407.4 64 456 64zM456 128C442.7 128 432 138.7 432 152C432 165.3 442.7 176 456 176C469.3 176 480 165.3 480 152C480 138.7 469.3 128 456 128z"/></svg>