<svg xmlns="http://www.w3.org/2000/svg" viewBox="0 0 640 640"><!--! Font Awesome Pro 7.2.0 by @fontawesome - https://fontawesome.com License - https://fontawesome.com/license (Commercial License) Copyright 2026 Fonticons, Inc. --><path fill="currentColor" d="M245.5 120L246.9 118.6L269.5 96L224.2 50.7L201.6 73.3L41.6 233.3L19 255.9L64.3 301.2L86.9 278.6L88.3 277.2L160.3 349.2L160.3 286.8L174.4 272.7L133.6 231.9L200.3 165.2L241.1 206L286.4 160.7L245.6 119.9zM473.6 550.6L512.2 589.2L557.5 543.9L455.4 441.8L410.1 487.1L473.5 550.5zM438.9 73.4L416.3 50.8L371 96.1L393.6 118.7L395 120.1L217.6 297.5L208.2 306.9L208.2 418.9L121.6 505.5C96.1 530.9 97.2 529.8 83 544L128.3 589.3C152.7 564.9 184.5 533.1 253.6 464L365.6 464L375 454.6L552.4 277.2L576.4 301.2L621.7 255.9L599.1 233.3L439.1 73.3zM507 232L424.3 314.7L357.6 248L440.3 165.3L507 232zM272.3 333.3L312.3 293.3L379 360L339 400L272.3 400L272.3 333.3z"/></svg>