<svg xmlns="http://www.w3.org/2000/svg" viewBox="0 0 640 640"><!--! Font Awesome Pro 7.2.0 by @fontawesome - https://fontawesome.com License - https://fontawesome.com/license (Commercial License) Copyright 2026 Fonticons, Inc. --><path fill="currentColor" d="M544 288C544 342.8 524.3 393.1 491.6 432L148.4 432C115.7 393.1 96 342.8 96 288C96 164.3 196.3 64 320 64C443.7 64 544 164.3 544 288zM273.3 190.7L256 144L238.7 190.7L192 208L238.7 225.3L256 272L273.3 225.3L320 208L273.3 190.7zM384 208L358.1 262.1L304 288L358.1 313.9L384 368L409.9 313.9L464 288L409.9 262.1L384 208zM112 544L169.6 480L470.4 480L528 544L528 576L112 576L112 544z"/></svg>