<svg xmlns="http://www.w3.org/2000/svg" viewBox="0 0 640 640"><!--! Font Awesome Pro 7.2.0 by @fontawesome - https://fontawesome.com License - https://fontawesome.com/license (Commercial License) Copyright 2026 Fonticons, Inc. --><path fill="currentColor" d="M145.4 111L128.4 94.1L94.5 128C99.1 132.6 123.9 157.4 168.8 202.3C143.5 234.8 128.5 275.7 128.5 320C128.5 364.3 143.5 405.2 168.8 437.7C123.8 482.7 99.1 507.4 94.5 512L128.4 545.9C133 541.3 157.8 516.5 202.7 471.6C235.2 496.9 276.1 511.9 320.4 511.9C364.7 511.9 405.6 496.9 438.1 471.6C483 516.5 507.8 541.3 512.4 545.9L546.4 512C541.8 507.4 517 482.6 472.1 437.7C497.4 405.2 512.4 364.3 512.4 320C512.4 275.7 497.4 234.8 472.1 202.3C517 157.3 541.8 132.6 546.4 128L512.4 94.1C507.8 98.7 483 123.5 438.1 168.4C405.6 143.1 364.7 128.1 320.4 128.1C276.1 128.1 235.2 143.1 202.7 168.4L145.4 111zM191.6 320C191.6 249.1 249.1 191.6 320.1 191.6C391 191.6 448.5 249.1 448.5 320C448.5 390.9 391 448.5 320.1 448.5C249.1 448.5 191.6 390.9 191.6 320z"/></svg>