<svg xmlns="http://www.w3.org/2000/svg" viewBox="0 0 640 640"><!--! Font Awesome Pro 7.2.0 by @fontawesome - https://fontawesome.com License - https://fontawesome.com/license (Commercial License) Copyright 2026 Fonticons, Inc. --><path fill="currentColor" d="M344 96L344 254.1C367 231.1 383 215.1 392 206.1L425.9 240C423.8 242.1 394.1 271.8 336.9 329L319.9 346C317.8 343.9 288.1 314.2 230.9 257L213.9 240L247.8 206.1L295.8 254.1L295.8 72L343.8 72L343.8 96zM64 96L240 96L240 160L128 160L128 384L512 384L512 160L400 160L400 96L576 96L576 480L368 480L384 528L480 528L480 576L160 576L160 528L256 528L272 480L64 480L64 96z"/></svg>