<svg xmlns="http://www.w3.org/2000/svg" viewBox="0 0 640 640"><!--! Font Awesome Pro 7.2.0 by @fontawesome - https://fontawesome.com License - https://fontawesome.com/license (Commercial License) Copyright 2026 Fonticons, Inc. --><path fill="currentColor" d="M272 64L368 64L368 160L272 160L272 64zM368 208L368 304L272 304L272 208L368 208zM224 352L224 448L128 448L128 352L224 352zM368 352L368 448L272 448L272 352L368 352zM416 352L512 352L512 448L416 448L416 352zM128 208L224 208L224 304L128 304L128 208zM512 208L512 304L416 304L416 208L512 208zM368 496L368 592L272 592L272 496L368 496zM128 64L224 64L224 160L128 160L128 64zM512 64L512 160L416 160L416 64L512 64z"/></svg>