<svg xmlns="http://www.w3.org/2000/svg" viewBox="0 0 640 640"><!--! Font Awesome Pro 7.2.0 by @fontawesome - https://fontawesome.com License - https://fontawesome.com/license (Commercial License) Copyright 2026 Fonticons, Inc. --><path fill="currentColor" d="M352 64L352 128L288 128L288 64L352 64zM160 128L160 192L96 192L96 128L160 128zM544 128L544 192L480 192L480 128L544 128zM544 320L608 320L608 384L544 384L544 320zM544 512L544 576L480 576L480 512L544 512zM96 512L160 512L160 576L96 576L96 512zM32 320L96 320L96 384L32 384L32 320zM480 352C480 432.2 421 498.6 344 510.2L344 328L296 328L296 510.2C219 498.6 160 432.2 160 352C160 263.6 231.6 192 320 192C408.4 192 480 263.6 480 352z"/></svg>