<svg xmlns="http://www.w3.org/2000/svg" viewBox="0 0 640 640"><!--! Font Awesome Pro 7.2.0 by @fontawesome - https://fontawesome.com License - https://fontawesome.com/license (Commercial License) Copyright 2026 Fonticons, Inc. --><path fill="currentColor" d="M352 64L352 128L288 128L288 64L352 64zM160 128L160 192L96 192L96 128L160 128zM544 128L544 192L480 192L480 128L544 128zM544 320L608 320L608 384L544 384L544 320zM544 512L544 576L480 576L480 512L544 512zM96 512L160 512L160 576L96 576L96 512zM32 320L96 320L96 384L32 384L32 320zM432.9 465C376.2 521.7 287.5 527 224.9 480.7L336.8 368.8L353.8 351.8L319.9 317.9L302.9 334.9L191 446.8C144.8 384.2 150 295.5 206.7 238.8C269.2 176.3 370.5 176.3 433 238.8C495.5 301.3 495.5 402.6 433 465.1z"/></svg>