<svg xmlns="http://www.w3.org/2000/svg" viewBox="0 0 640 640"><!--! Font Awesome Pro 7.2.0 by @fontawesome - https://fontawesome.com License - https://fontawesome.com/license (Commercial License) Copyright 2026 Fonticons, Inc. --><path fill="currentColor" d="M376.6 464.3L464.7 135.7L136.1 47.7L48 376.3L376.6 464.3zM228.6 272C222.5 262.1 222.3 249.6 228 239.5C233.7 229.4 244.5 223.2 256.2 223.3C267.8 223.4 278.4 229.8 284 240C290.1 249.9 290.3 262.4 284.6 272.5C278.9 282.6 268.1 288.8 256.4 288.7C244.8 288.6 234.2 282.2 228.6 272zM143.3 284.3C153.2 278.2 165.7 278 175.8 283.7C185.9 289.4 192.1 300.2 192 311.9C191.9 323.5 185.5 334.1 175.3 339.7C165.4 345.8 152.9 346 142.8 340.3C132.7 334.6 126.5 323.8 126.6 312.1C126.7 300.5 133.1 289.9 143.3 284.3zM328.3 380.7C318.4 386.8 305.9 387 295.8 381.3C285.7 375.6 279.5 364.8 279.6 353.1C279.7 341.5 286.1 330.9 296.3 325.3C306.2 319.2 318.7 319 328.8 324.7C338.9 330.4 345.1 341.2 345 352.9C344.9 364.5 338.5 375.1 328.3 380.7zM337.3 172.3C347.2 166.2 359.7 166 369.8 171.7C379.9 177.4 386.1 188.2 386 199.9C385.9 211.5 379.5 222.1 369.3 227.7C359.4 233.8 346.9 234 336.8 228.3C326.7 222.6 320.5 211.8 320.6 200.1C320.7 188.5 327.1 177.9 337.3 172.3zM216.3 186.7C206.4 192.8 193.9 193 183.8 187.3C173.7 181.6 167.5 170.8 167.6 159.1C167.7 147.5 174.1 136.9 184.3 131.3C194.2 125.2 206.7 125 216.8 130.7C226.9 136.4 233.1 147.2 233 158.9C232.9 170.5 226.5 181.1 216.3 186.7zM256.3 481.8L256.3 576L576.3 576L576.3 256L482.1 256L410.5 523.1L256.3 481.8z"/></svg>