<svg xmlns="http://www.w3.org/2000/svg" viewBox="0 0 640 640"><!--! Font Awesome Pro 7.2.0 by @fontawesome - https://fontawesome.com License - https://fontawesome.com/license (Commercial License) Copyright 2026 Fonticons, Inc. --><path fill="currentColor" d="M352 104C352 73.1 326.9 48 296 48C265.1 48 240 73.1 240 104C240 134.9 265.1 160 296 160C326.9 160 352 134.9 352 104zM284.7 192L132.3 192L99.4 246.9C82.4 238.4 67.1 230.7 53.3 223.8L31.8 266.7L53.3 277.5L402 451.8C369 506.8 344.2 548.2 327.5 576L632.5 576C624.3 562.3 582.6 492.8 507.4 367.5L480 321.8C461.4 352.7 443.7 382.3 426.8 410.5L333.9 364.1L286.8 199.2L284.7 192zM87.1 576L130.7 445.1L192 475.8L192 576L256 576L256 436.2L238.3 427.4C150.5 383.5 102.1 359.3 93.3 354.9L81.6 389.9L19.6 576L87.1 576z"/></svg>