<svg xmlns="http://www.w3.org/2000/svg" viewBox="0 0 640 640"><!--! Font Awesome Pro 7.2.0 by @fontawesome - https://fontawesome.com License - https://fontawesome.com/license (Commercial License) Copyright 2026 Fonticons, Inc. --><path fill="currentColor" d="M300.5 93.4L288 112C268 142 234.4 160 198.3 160L132 160C94.5 160 64.1 190.4 64.1 227.9C64.1 245.9 71.3 263.1 84 275.8L111 302.8C122 313.8 128.2 328.7 128.2 344.3C128.2 360.1 121.8 375.2 110.5 386.3L97.4 399.1C86.3 409.9 80.1 424.8 80.1 440.3C80.1 477.1 114.2 504.5 150.2 496.5L212.5 482.7C220.2 481 228.2 480.1 236.1 480.1C268.9 480.1 300.3 494.7 321.3 519.9L351.8 556.5C362.2 568.9 377.5 576.1 393.7 576.1C423.8 576.1 448.2 551.7 448.2 521.6L448.2 470.4C448.2 429 473.6 391.9 512.2 376.9L534.4 368.3C559.6 358.5 576.2 334.2 576.2 307.2C576.2 280.8 560.3 256.9 535.9 246.7L493 228.8C459.8 214.9 435.4 185.8 427.5 150.7L419.6 115.5C412.8 85.4 386.1 64 355.3 64C333.3 64 312.7 75 300.5 93.4zM256 320L192 320L192 256L256 256L256 320zM320 352L384 352L384 416L320 416L320 352zM384 288L320 288L320 224L384 224L384 288z"/></svg>