<svg xmlns="http://www.w3.org/2000/svg" viewBox="0 0 640 640"><!--! Font Awesome Pro 7.2.0 by @fontawesome - https://fontawesome.com License - https://fontawesome.com/license (Commercial License) Copyright 2026 Fonticons, Inc. --><path fill="currentColor" d="M352 88L352 258.7C369.4 241.3 385.4 225.3 400 210.7L445.3 256C439.8 261.5 405.6 295.7 342.7 358.6L320 381.3C314.5 375.8 280.3 341.6 217.4 278.7L194.7 256L240 210.7C254.6 225.3 270.6 241.3 288 258.7L288 56L352 56L352 88zM128 96L240 96L240 160L128 160L128 416L512 416L512 160L400 160L400 96L576 96L576 480L368 480L384 528L480 528L480 576L160 576L160 528L256 528L272 480L64 480L64 96L128 96z"/></svg>