<svg xmlns="http://www.w3.org/2000/svg" viewBox="0 0 640 640"><!--! Font Awesome Pro 7.2.0 by @fontawesome - https://fontawesome.com License - https://fontawesome.com/license (Commercial License) Copyright 2026 Fonticons, Inc. --><path fill="currentColor" d="M96 160L480 160L480 272.7C485.3 272.3 490.6 272 496 272C512.6 272 528.7 274.1 544 278L544 96L32 96L32 480L240 480L224 528L128 528L128 576L340 576C317.3 544.5 304 505.8 304 464C304 447.4 306.1 431.3 310 416L96 416L96 160zM448 232L448 208L320 208L320 256L366.1 256L312 310.1C262.3 260.4 235.6 233.7 232 230.1C231.2 230.9 198.9 263.2 135 327.1L118 344.1L151.9 378C155.5 374.4 182.2 347.7 231.9 298C281.6 347.7 308.3 374.4 311.9 378C323.1 366.8 334.7 355.2 346.7 343.2C355.1 332.8 364.6 323.3 375 314.9L399.9 290L399.9 297.7C414.8 289.1 430.9 282.4 447.9 278.1L447.9 232.1zM640 464C640 384.5 575.5 320 496 320C416.5 320 352 384.5 352 464C352 543.5 416.5 608 496 608C575.5 608 640 543.5 640 464zM496 496C513.7 496 528 481.7 528 464C528 446.3 513.7 432 496 432C478.3 432 464 446.3 464 464C464 481.7 478.3 496 496 496zM551.1 496.5L579.3 524.7L556.7 547.3L528.5 519.1C519 524.7 507.9 528 496 528C484.1 528 473 524.8 463.5 519.1L435.3 547.3L412.7 524.7L440.9 496.5C435.3 487 432 475.9 432 464C432 452.1 435.2 441 440.9 431.5L412.7 403.3L435.3 380.7L463.5 408.9C473 403.3 484.1 400 496 400C507.9 400 519 403.2 528.5 408.9L556.7 380.7L579.3 403.3L551.1 431.5C556.7 441 560 452.1 560 464C560 475.9 556.8 487 551.1 496.5z"/></svg>