<svg xmlns="http://www.w3.org/2000/svg" viewBox="0 0 640 640"><!--! Font Awesome Pro 7.2.0 by @fontawesome - https://fontawesome.com License - https://fontawesome.com/license (Commercial License) Copyright 2026 Fonticons, Inc. --><path fill="currentColor" d="M96 160L480 160L480 272.7C485.3 272.3 490.6 272 496 272C512.6 272 528.7 274.1 544 278L544 96L32 96L32 480L240 480L224 528L128 528L128 576L340 576C317.3 544.5 304 505.8 304 464C304 447.4 306.1 431.3 310 416L96 416L96 160zM448 232L448 208L320 208L320 256L366.1 256L312 310.1C262.3 260.4 235.6 233.7 232 230.1C231.2 230.9 198.9 263.2 135 327.1L118 344.1L151.9 378C155.5 374.4 182.2 347.7 231.9 298C281.6 347.7 308.3 374.4 311.9 378C323.1 366.8 334.7 355.2 346.7 343.2C355.1 332.8 364.6 323.3 375 314.9L399.9 290L399.9 297.7C414.8 289.1 430.9 282.4 447.9 278.1L447.9 232.1zM640 464C640 384.5 575.5 320 496 320C416.5 320 352 384.5 352 464C352 543.5 416.5 608 496 608C575.5 608 640 543.5 640 464zM512 392L544 392L544 424L482.2 424C476.6 424 472 428.6 472 434.2C472 439.1 475.5 443.3 480.3 444.2L525.3 452.4C545.3 456 559.9 473.5 559.9 493.9C559.9 517.2 541 536.1 517.7 536.1L511.9 536.1L511.9 560.1L479.9 560.1L479.9 536.1L447.9 536.1L447.9 504.1L517.7 504.1C523.3 504.1 527.9 499.5 527.9 493.9C527.9 489 524.4 484.8 519.6 483.9L474.6 475.7C454.6 472.1 440 454.6 440 434.2C440 411.6 457.7 393.2 480 392.1L480 368L512 368L512 392z"/></svg>