<svg xmlns="http://www.w3.org/2000/svg" viewBox="0 0 640 640"><!--! Font Awesome Pro 7.2.0 by @fontawesome - https://fontawesome.com License - https://fontawesome.com/license (Commercial License) Copyright 2026 Fonticons, Inc. --><path fill="currentColor" d="M96 208C96 225.7 110.3 240 128 240L307.1 240L448 300.4L448 576L352 576L352 412.7C328 425 300.8 432 272 432C243.2 432 216 425 192 412.7L192 576L96 576L96 298.4C58.7 285.2 32 249.8 32 208L32 176L96 176L96 208zM424 64L496 64L528 96L608 96L608 144C608 188.2 572.2 224 528 224L464 224L457 252L332.3 198.6L368 32L400 32L424 64zM480 108C469 108 460 117 460 128C460 139 469 148 480 148C491 148 500 139 500 128C500 117 491 108 480 108z"/></svg>