<svg xmlns="http://www.w3.org/2000/svg" viewBox="0 0 640 640"><!--! Font Awesome Pro 7.2.0 by @fontawesome - https://fontawesome.com License - https://fontawesome.com/license (Commercial License) Copyright 2026 Fonticons, Inc. --><path fill="currentColor" d="M32.5 64L183.6 64L190.9 85.9L290.3 384C320.4 384.5 347.1 398.9 364.3 421L566.4 353.6L596.8 343.5L617 404.2L586.6 414.3L384.5 481.7C383.6 533.9 341 576 288.5 576C235.5 576 192.5 533 192.5 480C192.5 449.2 207 421.8 229.5 404.2L137.4 128L32.5 128L32.5 64zM288.5 528C315 528 336.5 506.5 336.5 480C336.5 453.5 315 432 288.5 432C262 432 240.5 453.5 240.5 480C240.5 506.5 262 528 288.5 528z"/></svg>