<svg xmlns="http://www.w3.org/2000/svg" viewBox="0 0 640 640"><!--! Font Awesome Pro 7.2.0 by @fontawesome - https://fontawesome.com License - https://fontawesome.com/license (Commercial License) Copyright 2026 Fonticons, Inc. --><path fill="currentColor" d="M544 192L544 368C544 447.5 479.5 512 400 512L288 512L224 576L64 480L224 416C64 368 69.4 181.3 96 128L384 288L384 208C384 163.8 419.8 128 464 128L592 128L544 192zM464 184C450.7 184 440 194.7 440 208C440 221.3 450.7 232 464 232C477.3 232 488 221.3 488 208C488 194.7 477.3 184 464 184zM345.4 159.9C339.6 174.3 336.2 190 336 206.4L202.2 132C217.3 84.8 247.6 48.2 272 32L345.4 159.9z"/></svg>