<svg xmlns="http://www.w3.org/2000/svg" viewBox="0 0 640 640"><!--! Font Awesome Pro 7.2.0 by @fontawesome - https://fontawesome.com License - https://fontawesome.com/license (Commercial License) Copyright 2026 Fonticons, Inc. --><path fill="currentColor" d="M448 224L480 224L512 256L608 256L608 192L512 64L288 64L288 96L336 120L288 144L288 176L352 192L352 357.3L448 453.3L448 474.8L30.6 512.1L0 512.1L0 576.1L640 576.1L640 405.5L617.4 391.4L448 285.5L448 224.1zM512 136.3L512 135.7C512 135.8 512 135.9 512 136C512 136.1 512 136.2 512 136.3zM510.7 143.7C507.5 153.2 498.5 160 488 160C474.7 160 464 149.3 464 136C464 134.7 464.1 133.4 464.3 132.1L510.7 143.7zM160 160L0 320L176 304L96 384L320 384L320 256L160 160z"/></svg>