<svg xmlns="http://www.w3.org/2000/svg" viewBox="0 0 640 640"><!--! Font Awesome Pro 7.2.0 by @fontawesome - https://fontawesome.com License - https://fontawesome.com/license (Commercial License) Copyright 2026 Fonticons, Inc. --><path fill="currentColor" d="M573.5 112C539.8 145.7 514.6 170.9 504.2 181.3L459 136C492.7 102.3 517.9 77.1 528.3 66.7L573.5 112zM269.5 416L134.9 550.6L112.3 573.3L67 528C67.2 527.8 112.1 482.9 201.6 393.4L224.2 370.8L269.5 416.1zM304.2 192C242.3 192 192.2 242.1 192.2 304L128.2 304C128.2 206.8 207 128 304.2 128C401.4 128 480.2 206.8 480.2 304C480.2 358.7 455.2 407.5 416.2 439.8L416.2 464C416.2 525.9 366.1 576 304.2 576L272.2 576L272.2 512L304.2 512C330.7 512 352.2 490.5 352.2 464L352.2 406.7L366.4 397.2C396.5 377.1 416.2 342.8 416.2 304C416.2 242.1 366.1 192 304.2 192zM272.2 304L224.2 304C224.2 259.8 260 224 304.2 224C348.4 224 384.2 259.8 384.2 304L336.2 304C336.2 286.3 321.9 272 304.2 272C286.5 272 272.2 286.3 272.2 304z"/></svg>