<svg xmlns="http://www.w3.org/2000/svg" viewBox="0 0 640 640"><!--! Font Awesome Pro 7.2.0 by @fontawesome - https://fontawesome.com License - https://fontawesome.com/license (Commercial License) Copyright 2026 Fonticons, Inc. --><path fill="currentColor" d="M479.3 272.6C479.8 267.1 480 261.6 480 256C480 150 394 64 288 64C182 64 96 150 96 256L96 576L304 576L305.6 572.5C284.4 541.6 272 504.3 272 464C272 406.7 297.1 355.2 337 320L337 320C359.3 300.3 386.3 285.7 416 278L416 278C431.3 274.1 447.4 272 464 272C469.1 272 474.2 272.2 479.3 272.6zM288 128C349.6 128 401 171.5 413.2 229.4C397.2 232.8 381.8 237.9 367.1 244.4C361.5 205.7 328.2 176.1 287.9 176.1C243.7 176.1 207.9 211.9 207.9 256.1L207.9 272.5C243.9 276.5 271.9 307 271.9 344.1C271.9 383.9 239.7 416.1 199.9 416.1L159.9 416.1L159.9 368.1L199.9 368.1C213.2 368.1 223.9 357.4 223.9 344.1C223.9 330.8 213.2 320.1 199.9 320.1L159.9 320.1L159.9 256.1C159.9 185.4 217.2 128.1 287.9 128.1zM464 608C543.5 608 608 543.5 608 464C608 384.5 543.5 320 464 320C384.5 320 320 384.5 320 464C320 543.5 384.5 608 464 608zM524.9 425.4L460.9 513.4L449.9 528.5C445.5 524.1 427.8 506.4 396.7 475.3L385.4 464L408 441.4C413 446.4 425.7 459.1 446.1 479.5L499.1 406.6L508.5 393.7L534.4 412.5L525 425.4z"/></svg>