<svg xmlns="http://www.w3.org/2000/svg" viewBox="0 0 640 640"><!--! Font Awesome Pro 7.2.0 by @fontawesome - https://fontawesome.com License - https://fontawesome.com/license (Commercial License) Copyright 2026 Fonticons, Inc. --><path fill="currentColor" d="M447.2 148.6L203 576L96 576L96 256C96 150 182 64 288 64C354.3 64 412.7 97.6 447.2 148.6zM288 176C316.4 176 341.3 190.8 355.5 213.1L381.1 168.2C357.8 143.5 324.7 128 288 128C217.3 128 160 185.3 160 256L160 320L200 320C213.3 320 224 330.7 224 344C224 357.3 213.3 368 200 368L160 368L160 416L200 416C239.8 416 272 383.8 272 344C272 306.9 244 276.4 208 272.4L208 256C208 211.8 243.8 176 288 176zM240 608.1L432 272.1L624 608.1L240 608.1zM448 400.1L448 384.1L416 384.1L416 496.1L448 496.1L448 400.1zM448 527.8L416 527.8L416 559.8L448 559.8L448 527.8z"/></svg>