<svg xmlns="http://www.w3.org/2000/svg" viewBox="0 0 640 640"><!--! Font Awesome Pro 7.2.0 by @fontawesome - https://fontawesome.com License - https://fontawesome.com/license (Commercial License) Copyright 2026 Fonticons, Inc. --><path fill="currentColor" d="M320 128C249.3 128 192 185.3 192 256L192 288L224 288L224 352C224 363.6 220.9 374.6 215.4 384C220.8 393.4 224 404.4 224 416C224 427.6 220.9 438.6 215.4 448C220.8 457.4 224 468.4 224 480L224 544L144 544C108.7 544 80 515.3 80 480C80 473.5 81 467.2 82.8 461.3C71.2 449.7 64 433.7 64 416C64 398.3 71.2 382.3 82.8 370.7C81 364.8 80 358.5 80 352C80 322.2 100.4 297.1 128 290L128 256C128 150 214 64 320 64C426 64 512 150 512 256L512 290C539.6 297.1 560 322.2 560 352C560 358.5 559 364.8 557.2 370.7C568.8 382.3 576 398.3 576 416C576 433.7 568.8 449.7 557.2 461.3C559 467.2 560 473.5 560 480C560 515.3 531.3 544 496 544L416 544L416 480C416 468.4 419.1 457.4 424.6 448C419.2 438.6 416 427.6 416 416C416 404.4 419.1 393.4 424.6 384C419.2 374.6 416 363.6 416 352L416 288L448 288L448 256C448 185.3 390.7 128 320 128z"/></svg>