<svg xmlns="http://www.w3.org/2000/svg" viewBox="0 0 640 640"><!--! Font Awesome Pro 7.2.0 by @fontawesome - https://fontawesome.com License - https://fontawesome.com/license (Commercial License) Copyright 2026 Fonticons, Inc. --><path fill="currentColor" d="M128 304L160 304L160 336L128 336L128 304zM80 336L80 384L208 384L208 256L80 256L80 336zM304 304L336 304L336 336L304 336L304 304zM256 336L256 384L384 384L384 256L256 256L256 336zM480 336L480 304L512 304L512 336L480 336zM432 384L560 384L560 256L432 256L432 384z"/></svg>