<svg xmlns="http://www.w3.org/2000/svg" viewBox="0 0 640 640"><!--! Font Awesome Pro 7.2.0 by @fontawesome - https://fontawesome.com License - https://fontawesome.com/license (Commercial License) Copyright 2026 Fonticons, Inc. --><path fill="currentColor" d="M344 32L296 32L296 128L344 128L344 32zM176 432L32 384L114.3 480L229.5 480C242.7 442.7 278.2 416 320 416C361.8 416 397.4 442.7 410.5 480L525.7 480L608 384L464 432L576 64L368 360L344 192L296 192L272 368L128 256L176 432zM56 528L32 528L32 576L608 576L608 528L56 528z"/></svg>