<svg xmlns="http://www.w3.org/2000/svg" viewBox="0 0 640 640"><!--! Font Awesome Pro 7.2.0 by @fontawesome - https://fontawesome.com License - https://fontawesome.com/license (Commercial License) Copyright 2026 Fonticons, Inc. --><path fill="currentColor" d="M320 64C178.6 64 64 178.6 64 320C64 461.4 178.6 576 320 576C461.4 576 576 461.4 576 320C576 178.6 461.4 64 320 64zM320 208C281.8 208 248 227.1 227.8 256.5L188.3 229.2C217.1 187.4 265.3 160 320 160C374.7 160 422.9 187.4 451.8 229.2L412.3 256.5C392 227.1 358.2 208 320 208zM432 368C432 385.7 417.7 400 400 400C382.3 400 368 385.7 368 368C368 350.3 382.3 336 400 336C417.7 336 432 350.3 432 368zM240 400C222.3 400 208 385.7 208 368C208 350.3 222.3 336 240 336C257.7 336 272 350.3 272 368C272 385.7 257.7 400 240 400z"/></svg>