<svg xmlns="http://www.w3.org/2000/svg" viewBox="0 0 640 640"><!--! Font Awesome Pro 7.2.0 by @fontawesome - https://fontawesome.com License - https://fontawesome.com/license (Commercial License) Copyright 2026 Fonticons, Inc. --><path fill="currentColor" d="M64 320C64 178.6 178.6 64 320 64C461.4 64 576 178.6 576 320C576 461.4 461.4 576 320 576C178.6 576 64 461.4 64 320zM267.5 224.4C261.9 233.8 251.7 240 240 240C222.3 240 208 225.7 208 208C208 198.9 211.8 190.6 218 184.8C214.7 184.3 211.4 184 208 184C172.7 184 144 212.7 144 248L144 288L272 288L272 248C272 239.7 270.4 231.7 267.5 224.4zM448 240C430.3 240 416 225.7 416 208C416 199.5 419.3 191.7 424.8 186C419.4 184.7 413.8 184 408 184C368.2 184 336 216.2 336 256L336 288L480 288L480 256C480 245.6 477.8 235.8 473.9 226.9C468.1 234.9 458.7 240 448 240zM496 352L144 352L147.8 370.8C148.7 375.3 149.8 379.7 151 384C172.1 459.2 240.9 512 320.1 512C376 512 426.7 485.7 459.1 443.7L459.1 443.7C475.3 422.8 486.9 398.1 492.3 370.7L496 352zM304.1 479.1C305.8 435.1 341.9 400 386.3 400C405.9 400 423.9 406.8 438 418.3C411.8 456 368.3 480 320 480C314.6 480 309.3 479.7 304.1 479.1z"/></svg>