<svg xmlns="http://www.w3.org/2000/svg" viewBox="0 0 640 640"><!--! Font Awesome Pro 7.2.0 by @fontawesome - https://fontawesome.com License - https://fontawesome.com/license (Commercial License) Copyright 2026 Fonticons, Inc. --><path fill="currentColor" d="M360.6 572.8C350 552.9 344 530.3 344 506.2L344 478.2C336.2 479.4 328.2 480 320 480C311.8 480 303.8 479.4 296 478.2L296 506.2C296 530.3 290 553 279.4 572.8C292.6 574.9 306.2 576 320 576C333.8 576 347.4 574.9 360.6 572.8zM64 320C64 327.6 64.3 335.1 65 342.5C75.9 331.6 91.6 315.9 112 295.5C132.2 315.7 148.4 331.9 160.6 344.1L296 344.1L296 429.5C303.7 431.2 311.8 432.1 320 432.1C328.2 432.1 336.3 431.2 344 429.5L344 344.1L479.4 344.1C491.6 331.9 507.8 315.7 528 295.5C548.4 315.9 564.1 331.6 575 342.5C575.6 335.1 576 327.6 576 320C576 178.6 461.4 64 320 64C178.6 64 64 178.6 64 320zM212 272L212 300L172 300L172 272C172 234.4 202.4 204 240 204C277.6 204 308 234.4 308 272L308 300L268 300L268 272C268 256.5 255.5 244 240 244C224.5 244 212 256.5 212 272zM400 244C384.5 244 372 256.5 372 272L372 300L332 300L332 272C332 234.4 362.4 204 400 204C437.6 204 468 234.4 468 272L468 300L428 300L428 272C428 256.5 415.5 244 400 244zM256 506.2L256 384L208 384L208 448L112 352L80 384L144 448L128 464L48 384L16 416L96 496L80 512L32 464L0 496L82.2 578.2C101.3 597.3 127.2 608 154.2 608C210.4 608 256 562.4 256 506.2zM384 506.2C384 562.4 429.6 608 485.8 608C512.8 608 538.7 597.3 557.8 578.2L640 496L608 464L560 512L544 496L624 416L592 384L512 464L496 448L560 384L528 352L432 448L432 384L384 384L384 506.2z"/></svg>