<svg xmlns="http://www.w3.org/2000/svg" viewBox="0 0 640 640"><!--! Font Awesome Pro 7.2.0 by @fontawesome - https://fontawesome.com License - https://fontawesome.com/license (Commercial License) Copyright 2026 Fonticons, Inc. --><path fill="currentColor" d="M568 0L568 72L640 72L640 120L568 120L568 192L520 192L520 120L448 120L448 72L520 72L520 0L568 0zM0 336C0 203.5 107.5 96 240 96C372.5 96 480 203.5 480 336C480 468.5 372.5 576 240 576C107.5 576 0 468.5 0 336zM147.8 399.5L108.3 426.8C137.1 468.6 185.3 496 240 496C294.7 496 342.9 468.6 371.8 426.8L332.3 399.5C312 428.9 278.2 448 240 448C201.8 448 168 428.9 147.8 399.5zM160 320C177.7 320 192 305.7 192 288C192 270.3 177.7 256 160 256C142.3 256 128 270.3 128 288C128 305.7 142.3 320 160 320zM352 288C352 270.3 337.7 256 320 256C302.3 256 288 270.3 288 288C288 305.7 302.3 320 320 320C337.7 320 352 305.7 352 288z"/></svg>