<svg xmlns="http://www.w3.org/2000/svg" viewBox="0 0 640 640"><!--! Font Awesome Pro 7.2.0 by @fontawesome - https://fontawesome.com License - https://fontawesome.com/license (Commercial License) Copyright 2026 Fonticons, Inc. --><path fill="currentColor" d="M320 576C461.4 576 576 461.4 576 320C576 178.6 461.4 64 320 64C178.6 64 64 178.6 64 320C64 461.4 178.6 576 320 576zM320 364C364.2 364 400 399.8 400 444L400 448L240 448L240 444C240 399.8 275.8 364 320 364zM184 203.7C191.5 211.2 204.8 224.5 224 243.7C243.2 224.5 256.5 211.2 264 203.7L292.3 232C284.8 239.5 271.5 252.8 252.3 272C271.5 291.2 284.8 304.5 292.3 312L264 340.3C256.5 332.8 243.2 319.5 224 300.3C204.8 319.5 191.5 332.8 184 340.3L155.7 312L195.7 272C176.5 252.8 163.2 239.5 155.7 232L184 203.7zM376 203.7C383.5 211.2 396.8 224.5 416 243.7C435.2 224.5 448.5 211.2 456 203.7L484.3 232C476.8 239.5 463.5 252.8 444.3 272C463.5 291.2 476.8 304.5 484.3 312L456 340.3C448.5 332.8 435.2 319.5 416 300.3C396.8 319.5 383.5 332.8 376 340.3L347.7 312C355.2 304.5 368.5 291.2 387.7 272C368.5 252.8 355.2 239.5 347.7 232L376 203.7z"/></svg>