<svg xmlns="http://www.w3.org/2000/svg" viewBox="0 0 640 640"><!--! Font Awesome Pro 7.2.0 by @fontawesome - https://fontawesome.com License - https://fontawesome.com/license (Commercial License) Copyright 2026 Fonticons, Inc. --><path fill="currentColor" d="M139.9 501.9C129.3 491.5 119.7 480.1 111.1 468L178.5 468C187.4 502.5 218.7 528 256 528L384 528C421.3 528 452.6 502.5 461.5 468L528.9 468C520.3 480.1 510.7 491.5 500.1 501.9C479.8 545.7 435.4 576 384 576L256 576C204.6 576 160.2 545.7 139.9 501.9zM176 428L87.8 428C72.5 395.2 64 358.6 64 320C64 318.1 64 316.1 64.1 314.2L176 363.2L176 428zM552.2 428L464 428L464 363.2L575.9 314.2C575.9 316.1 576 318 576 320C576 358.6 567.5 395.2 552.2 428zM73.6 266C72.4 265.5 71.2 265.1 70 264.8C95.2 149.9 197.6 64 320 64C442.4 64 544.8 149.9 570 264.8C568.8 265.1 567.6 265.5 566.4 266.1L443 320L197 320L73.6 266zM189.3 272L212.8 254.4C225.3 245.1 240.4 240 256 240L288 240L288 192L256 192C230 192 204.8 200.4 184 216L158.4 235.2L186 272L189.3 272zM454 272L481.6 235.2L456 216C435.2 200.4 410 192 384 192L352 192L352 240L384 240C399.6 240 414.7 245.1 427.2 254.4C429.7 256.3 437.5 262.1 450.7 272L454 272zM240 364L420 364L420 404L220 404L220 364L240 364zM240 444L420 444L420 484L220 484L220 444L240 444z"/></svg>