<svg xmlns="http://www.w3.org/2000/svg" viewBox="0 0 640 640"><!--! Font Awesome Pro 7.2.0 by @fontawesome - https://fontawesome.com License - https://fontawesome.com/license (Commercial License) Copyright 2026 Fonticons, Inc. --><path fill="currentColor" d="M84.6 184L43 160C87.2 83.5 158.2 32.1 237.3 10.9L249.7 57.3C182.5 75.3 122.1 118.9 84.6 184zM555.7 456L597.3 480C553.1 556.5 482 607.9 403 629.1L390.6 582.7C457.9 564.7 518.2 521 555.8 456zM125.9 208C165.6 138.1 239.8 94.9 320.2 94.7C400.6 94.5 474.9 137.4 515 207.1C555.1 276.8 554.7 362.6 514.1 432C474.4 501.9 400.2 545.1 319.8 545.3C239.4 545.5 165.1 502.6 125 432.9C84.9 363.2 85.3 277.4 125.9 208zM302.6 254.4C308.7 244.5 308.9 232 303.2 221.9C297.5 211.8 286.7 205.6 275 205.7C263.4 205.8 252.8 212.2 247.2 222.4C241.1 232.3 240.9 244.8 246.6 254.9C252.3 265 263.1 271.2 274.8 271.1C286.4 271 297 264.6 302.6 254.4zM397.4 346.1C407.3 352.2 419.8 352.4 429.9 346.7C440 341 446.2 330.2 446.1 318.5C446 306.9 439.6 296.3 429.4 290.7C419.5 284.6 407 284.4 396.9 290.1C386.8 295.8 380.6 306.6 380.7 318.3C380.8 329.9 387.2 340.5 397.4 346.1zM327.5 435.1C339.7 415.3 340.1 390.4 328.7 370.1C317.2 349.9 295.7 337.4 272.4 337.6C249.1 337.8 227.8 350.7 216.7 371.1C204.5 390.9 204.1 415.8 215.5 436.1C227 456.3 248.5 468.8 271.8 468.6C295.1 468.4 316.4 455.5 327.5 435.1z"/></svg>