<svg xmlns="http://www.w3.org/2000/svg" viewBox="0 0 640 640"><!--! Font Awesome Pro 7.2.0 by @fontawesome - https://fontawesome.com License - https://fontawesome.com/license (Commercial License) Copyright 2026 Fonticons, Inc. --><path fill="currentColor" d="M152 500C152 504.6 152.2 509.2 152.6 513.7C98.3 466.8 64 397.4 64 320C64 178.6 178.6 64 320 64C461.4 64 576 178.6 576 320C576 388.5 549.1 450.7 505.3 496.7C500.4 491.8 484.2 475.6 456.6 448L460.3 444.3L488.6 416C446.8 374.2 411.7 339.1 400 327.4L384 343.4C372.3 331.7 356.3 315.7 336 295.4C315.8 315.6 299.6 331.8 287.4 344L152 344L152 500zM240 228C255.5 228 268 240.5 268 256L268 284L308 284L308 256C308 218.4 277.6 188 240 188C202.4 188 172 218.4 172 256L172 284L212 284L212 256C212 240.5 224.5 228 240 228zM372 256C372 240.5 384.5 228 400 228C415.5 228 428 240.5 428 256L428 284L468 284L468 256C468 218.4 437.6 188 400 188C362.4 188 332 218.4 332 256L332 284L372 284L372 256zM192 384L240 384L240 448L336 352L368 384L304 448L320 464L400 384L432 416L352 496L368 512L416 464L448 496L365.8 578.2C346.7 597.3 320.8 608 293.8 608C237.6 608 192 562.4 192 506.2L192 384z"/></svg>