<svg xmlns="http://www.w3.org/2000/svg" viewBox="0 0 640 640"><!--! Font Awesome Pro 7.2.0 by @fontawesome - https://fontawesome.com License - https://fontawesome.com/license (Commercial License) Copyright 2026 Fonticons, Inc. --><path fill="currentColor" d="M320 576C461.4 576 576 461.4 576 320C576 178.6 461.4 64 320 64C178.6 64 64 178.6 64 320C64 461.4 178.6 576 320 576zM320 496C237 496 168.8 432.9 160.8 352L479.2 352C471.2 432.9 403 496 320 496zM240 228C224.5 228 212 240.5 212 256L212 284L172 284L172 256C172 218.4 202.4 188 240 188C277.6 188 308 218.4 308 256L308 284L268 284L268 256C268 240.5 255.5 228 240 228zM372 256L372 284L332 284L332 256C332 218.4 362.4 188 400 188C437.6 188 468 218.4 468 256L468 284L428 284L428 256C428 240.5 415.5 228 400 228C384.5 228 372 240.5 372 256z"/></svg>