<svg xmlns="http://www.w3.org/2000/svg" viewBox="0 0 640 640"><!--! Font Awesome Pro 7.2.0 by @fontawesome - https://fontawesome.com License - https://fontawesome.com/license (Commercial License) Copyright 2026 Fonticons, Inc. --><path fill="currentColor" d="M64 320C64 178.6 178.6 64 320 64C461.4 64 576 178.6 576 320C576 461.4 461.4 576 320 576C178.6 576 64 461.4 64 320zM335 418C340.5 416.7 346.2 416 352 416C379.6 416 403.6 431.5 415.7 454.4L458.1 431.9C438 394 398 368 352 368C339.5 368 327.4 369.9 316.1 373.5C325.9 386.2 332.6 401.4 335 418.1zM240 304C257.7 304 272 289.7 272 272C272 254.3 257.7 240 240 240C222.3 240 208 254.3 208 272C208 289.7 222.3 304 240 304zM432 272C432 254.3 417.7 240 400 240C382.3 240 368 254.3 368 272C368 289.7 382.3 304 400 304C417.7 304 432 289.7 432 272zM199.2 402.6C195 411 192 420.3 192 429.6C192 458.3 212.7 480 240 480C267.3 480 288 458.3 288 429.6C288 420.3 284.9 411 280.8 402.6C271.1 382.9 256 366.4 240 352C224 366.4 208.9 382.9 199.2 402.6z"/></svg>