<svg xmlns="http://www.w3.org/2000/svg" viewBox="0 0 640 640"><!--! Font Awesome Pro 7.2.0 by @fontawesome - https://fontawesome.com License - https://fontawesome.com/license (Commercial License) Copyright 2026 Fonticons, Inc. --><path fill="currentColor" d="M320 576C461.4 576 576 461.4 576 320C576 178.6 461.4 64 320 64C178.6 64 64 178.6 64 320C64 461.4 178.6 576 320 576zM296 352L336 352C362.5 352 384 373.5 384 400C384 412.3 379.4 423.5 371.8 432C379.4 440.5 384 451.7 384 464C384 490.5 362.5 512 336 512L288 512L288 480L320 480C328.8 480 336 472.8 336 464C336 455.2 328.8 448 320 448L288 448L288 416L320 416C328.8 416 336 408.8 336 400C336 391.2 328.8 384 320 384L288 384L288 352L296 352zM240 244C224.5 244 212 256.5 212 272L212 300L172 300L172 272C172 234.4 202.4 204 240 204C277.6 204 308 234.4 308 272L308 300L268 300L268 272C268 256.5 255.5 244 240 244zM372 272L372 300L332 300L332 272C332 234.4 362.4 204 400 204C437.6 204 468 234.4 468 272L468 300L428 300L428 272C428 256.5 415.5 244 400 244C384.5 244 372 256.5 372 272z"/></svg>