<svg xmlns="http://www.w3.org/2000/svg" viewBox="0 0 640 640"><!--! Font Awesome Pro 7.2.0 by @fontawesome - https://fontawesome.com License - https://fontawesome.com/license (Commercial License) Copyright 2026 Fonticons, Inc. --><path fill="currentColor" d="M320 64C264.6 64 213.2 81.6 171.3 111.6C57.1 106.8 0 64 0 64C0 144.1 55.6 224.1 74.1 248.5C67.5 271.2 64 295.2 64 320C64 461.4 178.6 576 320 576C461.4 576 576 461.4 576 320C576 295.2 572.5 271.2 565.9 248.5C584.4 224.1 640 144.1 640 64C640 64 582.9 106.8 468.7 111.6C426.8 81.6 375.5 64 320 64zM320 448C292.4 448 268.4 463.5 256.3 486.4L213.9 463.9C234 425.9 274 400 320 400C366 400 406 425.9 426.1 463.9L383.7 486.4C371.6 463.5 347.6 448 320 448zM240 368C222.3 368 208 353.7 208 336C208 328.7 210.4 322 214.6 316.6C193.7 309.6 177.8 304.3 166.8 300.7L179.4 262.8L198.4 269.1L294.4 301.1L313.4 307.4L300.8 345.3C286.6 340.6 277.1 337.4 272.1 335.7L272.1 336C272.1 353.7 257.8 368 240.1 368zM432 336C432 353.7 417.7 368 400 368C382.3 368 368 353.7 368 336L368 335.7C363.1 337.3 353.5 340.5 339.3 345.3L326.7 307.4L345.7 301.1L441.7 269.1L460.7 262.8L473.3 300.7C462.3 304.4 446.3 309.7 425.5 316.6C429.6 322 432.1 328.7 432.1 336z"/></svg>