<svg xmlns="http://www.w3.org/2000/svg" viewBox="0 0 640 640"><!--! Font Awesome Pro 7.2.0 by @fontawesome - https://fontawesome.com License - https://fontawesome.com/license (Commercial License) Copyright 2026 Fonticons, Inc. --><path fill="currentColor" d="M320 576C461.4 576 576 461.4 576 320C576 178.6 461.4 64 320 64C178.6 64 64 178.6 64 320C64 461.4 178.6 576 320 576zM384 352C384 365.3 394.7 376 408 376L424 376C437.3 376 448 365.3 448 352L448 336L480 336L480 352C480 382.9 454.9 408 424 408L408 408C377.1 408 352 382.9 352 352L352 336L384 336L384 352zM216 376L232 376C245.3 376 256 365.3 256 352L256 336L288 336L288 352C288 382.9 262.9 408 232 408L216 408C185.1 408 160 382.9 160 352L160 336L192 336L192 352C192 365.3 202.7 376 216 376zM280 448L384 448L384 496L256 496L256 448L280 448zM147.9 268.9L163.5 256.4L243.5 192.4L259.1 179.9L284.1 211.1L268.5 223.6L188.5 287.6L172.9 300.1L147.9 268.9zM476.5 256.4L492.1 268.9L467.1 300.1L451.5 287.6L371.5 223.6L355.9 211.1L380.9 179.9L396.5 192.4L476.5 256.4z"/></svg>