<svg xmlns="http://www.w3.org/2000/svg" viewBox="0 0 640 640"><!--! Font Awesome Pro 7.2.0 by @fontawesome - https://fontawesome.com License - https://fontawesome.com/license (Commercial License) Copyright 2026 Fonticons, Inc. --><path fill="currentColor" d="M429.5 551.4C516.1 510.4 576 422.1 576 320C576 178.6 461.4 64 320 64C189 64 80.9 162.5 65.8 289.4C71.9 294.2 91.6 309.9 100.4 317.4L100.7 317.7C115.1 330.2 133 347.4 147.5 367.9C161.8 388 175.9 415.6 175.9 448C175.9 473.4 167.9 496.6 154.2 515.2C171.2 529.6 190 541.9 210.3 551.5C208.7 543.9 207.8 536.1 207.8 528.1L207.8 483.2C197.6 475.2 191.8 465.9 191.8 456.1C191.8 425.2 249.1 400.1 319.8 400.1C390.5 400.1 447.8 425.2 447.8 456.1C447.8 465.9 442 475.2 431.8 483.2L431.8 528.1C431.8 536.1 431 544 429.3 551.5zM400 288C417.7 288 432 302.3 432 320C432 337.7 417.7 352 400 352C382.3 352 368 337.7 368 320C368 302.3 382.3 288 400 288zM272 320C272 337.7 257.7 352 240 352C222.3 352 208 337.7 208 320C208 302.3 222.3 288 240 288C257.7 288 272 302.3 272 320zM262.1 222.1L254.7 229.5C230.5 253.7 199.4 269.7 165.7 275.3L163.2 275.7L143.5 279L136.9 239.5L156.6 236.2L159.1 235.8C184.6 231.6 208.1 219.4 226.4 201.2C230.2 197.4 237.4 190.2 247.9 179.7L276.2 208L262.1 222.1zM363.7 208L392 179.7C402.6 190.3 409.7 197.4 413.5 201.2C431.8 219.5 455.3 231.6 480.8 235.8L483.3 236.2L503 239.5L496.4 279L476.7 275.7L474.2 275.3C440.5 269.7 409.4 253.7 385.2 229.5C381.4 225.7 374.2 218.5 363.7 208zM64 349.5C59.1 353.7 54.3 357.9 49.7 362.4C38.9 372.9 20.9 392.1 9.7 413.7C4.1 424.4 .1 436.2 .1 448C.1 484.4 27.7 512 64.1 512C100.5 512 128.1 484.4 128.1 448C128.1 436.2 124 424.4 118.5 413.7C107.3 392.1 89.3 372.9 78.5 362.4C73.9 357.9 69.1 353.7 64.2 349.5zM384 512L384 448L336 448L336 472L304 472L304 448L256 448L256 512C256 547.3 284.7 576 320 576C355.3 576 384 547.3 384 512z"/></svg>