<svg xmlns="http://www.w3.org/2000/svg" viewBox="0 0 640 640"><!--! Font Awesome Pro 7.2.0 by @fontawesome - https://fontawesome.com License - https://fontawesome.com/license (Commercial License) Copyright 2026 Fonticons, Inc. --><path fill="currentColor" d="M320 576C461.4 576 576 461.4 576 320C576 178.6 461.4 64 320 64C178.6 64 64 178.6 64 320C64 461.4 178.6 576 320 576zM256.3 486.4L213.9 463.9C234 425.9 274 400 320 400C366 400 406 425.9 426.1 463.9L383.7 486.4C371.6 463.5 347.6 448 320 448C292.4 448 268.4 463.5 256.3 486.4zM184 256L248 256C270.1 256 288 273.9 288 296C288 318.1 270.1 336 248 336C228.6 336 212.5 322.3 208.8 304L160 304L160 256L184 256zM352 256L440 256C462.1 256 480 273.9 480 296C480 318.1 462.1 336 440 336C420.6 336 404.5 322.3 400.8 304L352 304L352 256z"/></svg>