<svg xmlns="http://www.w3.org/2000/svg" viewBox="0 0 640 640"><!--! Font Awesome Pro 7.2.0 by @fontawesome - https://fontawesome.com License - https://fontawesome.com/license (Commercial License) Copyright 2026 Fonticons, Inc. --><path fill="currentColor" d="M320 576C347.9 576 374.8 571.5 400 563.3L400 458.6C390 464.4 379.3 469.1 368 472.7L368 528L320 528L320 480C265.3 480 217.1 452.6 188.2 410.8L227.7 383.5C248 412.9 281.8 432 320 432C358.2 432 392 412.9 412.2 383.5L451.7 410.8C450.5 412.6 449.2 414.3 447.9 416L447.9 541.7C524.5 497.5 576 414.8 576 320C576 178.6 461.4 64 320 64C178.6 64 64 178.6 64 320C64 461.4 178.6 576 320 576zM160 280C160 231.4 199.4 192 248 192L272 192L272 240L248 240C225.9 240 208 257.9 208 280L208 304L160 304L160 280zM392 192C440.6 192 480 231.4 480 280L480 304L432 304L432 280C432 257.9 414.1 240 392 240L368 240L368 192L392 192z"/></svg>