<svg xmlns="http://www.w3.org/2000/svg" viewBox="0 0 640 640"><!--! Font Awesome Pro 7.2.0 by @fontawesome - https://fontawesome.com License - https://fontawesome.com/license (Commercial License) Copyright 2026 Fonticons, Inc. --><path fill="currentColor" d="M227 152C195.5 169.5 169.5 195.5 152 227L92.2 203C116.7 155.5 155.5 116.7 203 92.2L227 152zM368.5 134.2C353 130.1 336.7 128 320 128C303.3 128 287 130.1 271.5 134.2L247.6 74.4C270.6 67.6 294.9 64 320 64C345.1 64 369.4 67.6 392.4 74.4L368.5 134.2zM488 227C470.5 195.5 444.5 169.5 413 152L437 92.2C484.5 116.7 523.3 155.5 547.8 203L488 227zM505.8 368.5C509.8 353 512 336.8 512 320C512 303.2 509.9 287 505.8 271.5L565.6 247.6C572.4 270.6 576 294.9 576 320C576 345.1 572.4 369.4 565.6 392.4L505.8 368.5zM413 488C444.5 470.5 470.5 444.5 487.9 413.1L547.8 437C523.4 484.5 484.5 523.4 437 547.8L413 488zM271.5 505.8C287 509.8 303.2 512 320 512C336.8 512 353 509.9 368.5 505.8L392.4 565.6C369.4 572.4 345.1 576 320 576C294.9 576 270.6 572.4 247.6 565.6L271.5 505.8zM152 413C169.5 444.5 195.5 470.5 226.9 487.9L203 547.8C155.5 523.3 116.7 484.5 92.2 437L152 413zM134.2 368.5L74.4 392.4C67.6 369.4 64 345.1 64 320C64 294.9 67.6 270.6 74.4 247.6L134.2 271.5C130.1 287 128 303.3 128 320C128 336.7 130.1 353 134.2 368.5zM240 240C257.7 240 272 254.3 272 272C272 289.7 257.7 304 240 304C222.3 304 208 289.7 208 272C208 254.3 222.3 240 240 240zM400 240C417.7 240 432 254.3 432 272C432 289.7 417.7 304 400 304C382.3 304 368 289.7 368 272C368 254.3 382.3 240 400 240zM248 384L416 384L416 432L224 432L224 384L248 384z"/></svg>