<svg xmlns="http://www.w3.org/2000/svg" viewBox="0 0 640 640"><!--! Font Awesome Pro 7.2.0 by @fontawesome - https://fontawesome.com License - https://fontawesome.com/license (Commercial License) Copyright 2026 Fonticons, Inc. --><path fill="currentColor" d="M368 64L272 64L272 101.2C247.8 106.5 225.1 115.7 204.6 128L128 128L128 204.6C115.6 225.1 106.4 247.8 101.2 272L64 272L64 368L101.2 368C106.5 392.2 115.7 414.9 128 435.4L128 512L185.2 512L209.7 435.9C184.6 412 167.2 379.9 161.8 344L227 344C225 336.3 224 328.3 224 320C224 311.7 225 303.7 227 296L161.8 296C165.8 269.7 176.1 245.6 191.2 225.1L237.3 271.2C245.6 257.2 257.3 245.5 271.2 237.3L225.1 191.2C245.6 176.1 269.7 165.8 296 161.8L296 227C303.7 225 311.7 224 320 224C328.3 224 336.3 225 344 227L344 161.8C370.3 165.8 394.4 176.1 414.9 191.2L368.8 237.3C382.8 245.6 394.5 257.3 402.7 271.2L448.8 225.1C463.9 245.6 474.2 269.7 478.2 296L413 296C415 303.7 416 311.7 416 320C416 328.3 414.9 336.3 413 344L478.2 344C472.8 379.9 455.4 412 430.3 435.9L454.8 512L512 512L512 435.4C524.4 414.8 533.6 392.1 538.8 368L576 368L576 272L538.8 272C533.5 247.8 524.3 225.1 512 204.6L512 128L435.4 128C414.9 115.6 392.2 106.4 368 101.2L368 64zM230.5 528C227.7 536.7 222.6 552.7 215.1 576L424.9 576C403.9 510.7 400.2 499.3 365.7 391.7L353.6 354.2C362.5 345.5 368 333.4 368 320C368 296 350.4 276.1 327.4 272.6C325 272.2 322.5 272 320 272C317.5 272 315 272.2 312.6 272.6C289.6 276.2 272 296 272 320C272 333.4 277.5 345.5 286.4 354.2C282.9 365.2 265.8 418.2 235.3 513.3L230.5 528z"/></svg>