<svg xmlns="http://www.w3.org/2000/svg" viewBox="0 0 640 640"><!--! Font Awesome Pro 7.2.0 by @fontawesome - https://fontawesome.com License - https://fontawesome.com/license (Commercial License) Copyright 2026 Fonticons, Inc. --><path fill="currentColor" d="M304 64L64 64L64 576L208 576L208 400L448 400L448 208L304 64zM389.5 240L272 240L272 122.5L389.5 240zM296 444C271.7 444 252 463.7 252 488L252 568C252 592.3 271.7 612 296 612L312 612C336.3 612 356 592.3 356 568L356 552L316 552L316 568C316 570.2 314.2 572 312 572L296 572C293.8 572 292 570.2 292 568L292 488C292 485.8 293.8 484 296 484L312 484C314.2 484 316 485.8 316 488L316 504L356 504L356 488C356 463.7 336.3 444 312 444L296 444zM432 444C403.3 444 380 467.3 380 496C380 524.7 403.3 548 432 548C438.6 548 444 553.4 444 560C444 566.6 438.6 572 432 572L380 572L380 612L432 612C460.7 612 484 588.7 484 560C484 531.3 460.7 508 432 508C425.4 508 420 502.6 420 496C420 489.4 425.4 484 432 484L476 484L476 444L432 444zM548 444L508 444L508 499C508 520.6 511.9 542 519.5 562.2C530.2 590.7 536.4 607.3 538.2 612L581.9 612C583.7 607.3 589.9 590.7 600.6 562.2C608.2 542 612.1 520.6 612.1 499L612.1 444L572.1 444L572.1 499C572.1 515.8 569.1 532.4 563.2 548.2L560.1 556.4L557 548.2C551 532.4 548 515.8 548 499L548 444z"/></svg>