<svg xmlns="http://www.w3.org/2000/svg" viewBox="0 0 640 640"><!--! Font Awesome Pro 7.2.0 by @fontawesome - https://fontawesome.com License - https://fontawesome.com/license (Commercial License) Copyright 2026 Fonticons, Inc. --><path fill="currentColor" d="M304 64L64 64L64 576L176 576L176 400L448 400L448 208L304 64zM389.5 240L272 240L272 122.5L389.5 240zM356 464L356 444L336 444C333.3 444 327.5 444 318.4 444C317.9 445 307.6 464.3 287.7 501.9C266.9 464 256.2 444.7 255.9 444C238.2 444 238 444 220.1 444L220.1 612L260.1 612L260.1 534.6C265.9 545.1 275.3 562.2 288.4 586.1C301.1 562.1 310.4 544.7 316.1 533.9L316.1 612L356.1 612L356.1 464zM400 444L380 444L380 612L420 612L420 564L432 564C465.1 564 492 537.1 492 504C492 470.9 465.1 444 432 444L400 444zM432 524L420 524L420 484L432 484C443 484 452 493 452 504C452 515 443 524 432 524zM508 548L572 548L572 608L612 608L612 448L572 448L572 508L548 508L548 448L508 448L508 548z"/></svg>