<svg xmlns="http://www.w3.org/2000/svg" viewBox="0 0 640 640"><!--! Font Awesome Pro 7.2.0 by @fontawesome - https://fontawesome.com License - https://fontawesome.com/license (Commercial License) Copyright 2026 Fonticons, Inc. --><path fill="currentColor" d="M228 612L188 612L188 444L228 444L228 612zM312 444C336.3 444 356 463.7 356 488L356 504L316 504L316 488C316 485.8 314.2 484 312 484L296 484C293.8 484 292 485.8 292 488L292 568C292 570.2 293.8 572 296 572L312 572C314.2 572 316 570.2 316 568L316 552L356 552L356 568C356 592.3 336.3 612 312 612L296 612C271.7 612 252 592.3 252 568L252 488C252 463.7 271.7 444 296 444L312 444zM422.4 456.2L444 507L444 444L484 444L484 612L445.2 612L440 599.8L420 552.7L420 612L380 612L380 444L417.2 444L422.4 456.2zM604 484L560 484C553.4 484 548 489.4 548 496C548 502.6 553.4 508 560 508C588.7 508 612 531.3 612 560C612 588.7 588.7 612 560 612L508 612L508 572L560 572C566.6 572 572 566.6 572 560C572 553.4 566.6 548 560 548C531.3 548 508 524.7 508 496C508 467.3 531.3 444 560 444L604 444L604 484zM448 208L448 400L144 400L144 576L64 576L64 64L304 64L448 208zM272 240L389.5 240L272 122.5L272 240z"/></svg>