<svg xmlns="http://www.w3.org/2000/svg" viewBox="0 0 640 640"><!--! Font Awesome Pro 7.2.0 by @fontawesome - https://fontawesome.com License - https://fontawesome.com/license (Commercial License) Copyright 2026 Fonticons, Inc. --><path fill="currentColor" d="M128 64L368 64L512 208L512 576L128 576L128 64zM336 122.5L336 240L453.5 240L336 122.5zM216 272L192 272L192 448L240 448L240 400L272 400C274.4 400 276.8 399.9 279.2 399.6L321 438.9C302.6 456.3 288.3 469.8 278 479.5L311 514.4C320.9 505 335.9 490.8 356.1 471.8C376.1 490.5 391.1 504.6 401.1 514L433.9 479C423.5 469.3 409.2 455.9 391 438.8C409.3 421.5 423.6 408 433.9 398.2L400.9 363.3C391 372.7 376 386.9 355.9 405.8L322.8 374.8C331 364 335.9 350.6 335.9 336C335.9 300.7 307.2 272 271.9 272L215.9 272zM248 352L240 352L240 320L272 320C280.8 320 288 327.2 288 336C288 344.8 280.8 352 272 352L248 352z"/></svg>