<svg xmlns="http://www.w3.org/2000/svg" viewBox="0 0 640 640"><!--! Font Awesome Pro 7.2.0 by @fontawesome - https://fontawesome.com License - https://fontawesome.com/license (Commercial License) Copyright 2026 Fonticons, Inc. --><path fill="currentColor" d="M128 64L368 64L512 208L512 576L128 576L128 64zM336 122.5L336 240L453.5 240L336 122.5zM192 128L192 160L288 160L288 128L192 128zM192 192L192 224L288 224L288 192L192 192zM304 304L304 328C275.2 328.3 252 351.7 252 380.5C252 406.2 270.5 428.1 295.9 432.3L337.6 439.3C343.6 440.3 348 445.5 348 451.6C348 458.5 342.4 464.1 335.5 464.1L260 464.1L260 504.1L304 504.1L304 528.1L344 528.1L344 503.4C369 499.3 388 477.7 388 451.6C388 425.9 369.5 404 344.1 399.8L302.4 392.8C296.4 391.8 292 386.6 292 380.5C292 373.6 297.6 368 304.5 368L372 368L372 328L344 328L344 304L304 304z"/></svg>