<svg xmlns="http://www.w3.org/2000/svg" viewBox="0 0 640 640"><!--! Font Awesome Pro 7.2.0 by @fontawesome - https://fontawesome.com License - https://fontawesome.com/license (Commercial License) Copyright 2026 Fonticons, Inc. --><path fill="currentColor" d="M304 64L64 64L64 576L308 576C285.3 544.5 272 505.8 272 464C272 363.4 349.4 280.8 448 272.7L448 208L304 64zM389.5 240L272 240L272 122.5L389.5 240zM464 608C543.5 608 608 543.5 608 464C608 384.5 543.5 320 464 320C384.5 320 320 384.5 320 464C320 543.5 384.5 608 464 608zM480 544L448 544L448 512L480 512L480 544zM480 368L480 480L448 480L448 368L480 368z"/></svg>