<svg xmlns="http://www.w3.org/2000/svg" viewBox="0 0 640 640"><!--! Font Awesome Pro 7.2.0 by @fontawesome - https://fontawesome.com License - https://fontawesome.com/license (Commercial License) Copyright 2026 Fonticons, Inc. --><path fill="currentColor" d="M366.6 65.4L344 42.7C340 46.7 302.7 84 232 154.7C194.6 117.3 170.6 93.3 160 82.7L114.7 128C125.3 138.6 149.3 162.6 186.7 200L65.3 321.4L42.7 344L65.3 366.6L273.3 574.6L295.9 597.2L318.5 574.6L574.5 318.6L597.1 296L574.5 273.4L366.5 65.4zM265.4 278.6L288 301.3L333.3 256C320 242.7 301.3 224 277.3 200L344 133.3L506.7 296L450.7 352L141.2 352L133.2 344L231.9 245.3L265.3 278.7zM544 416L488.3 513.4C482.8 522.9 480 533.8 480 544.8C480 579.7 508.3 608 543.2 608L544.8 608C579.7 608 608 579.7 608 544.8C608 533.8 605.1 523 599.7 513.4L544 416z"/></svg>