<svg xmlns="http://www.w3.org/2000/svg" viewBox="0 0 640 640"><!--! Font Awesome Pro 7.2.0 by @fontawesome - https://fontawesome.com License - https://fontawesome.com/license (Commercial License) Copyright 2026 Fonticons, Inc. --><path fill="currentColor" d="M81.3 47.1L64.3 30.1L30.4 64L47.4 81L559.4 593L576.4 610L610.3 576.1C604.4 570.2 582.3 548.1 544.2 510L544.2 96L130.2 96L81.3 47.1zM96.1 544L442.3 544L208.1 309.8L208.1 352L144.1 352L144.1 288L186.3 288L96.1 197.8L96.1 544zM144.1 416L208.1 416L208.1 480L144.1 480L144.1 416zM432.1 288L496.1 288L496.1 352L432.1 352L432.1 288zM496.1 160L496.1 224L432.1 224L432.1 160L496.1 160z"/></svg>