<svg xmlns="http://www.w3.org/2000/svg" viewBox="0 0 640 640"><!--! Font Awesome Pro 7.2.0 by @fontawesome - https://fontawesome.com License - https://fontawesome.com/license (Commercial License) Copyright 2026 Fonticons, Inc. --><path fill="currentColor" d="M96 96L544 96L544 544L96 544L96 96zM144 416L144 480L208 480L208 416L144 416zM496 416L432 416L432 480L496 480L496 416zM144 288L144 352L208 352L208 288L144 288zM496 288L432 288L432 352L496 352L496 288zM144 160L144 224L208 224L208 160L144 160zM496 160L432 160L432 224L496 224L496 160z"/></svg>