<svg xmlns="http://www.w3.org/2000/svg" viewBox="0 0 640 640"><!--! Font Awesome Pro 7.2.0 by @fontawesome - https://fontawesome.com License - https://fontawesome.com/license (Commercial License) Copyright 2026 Fonticons, Inc. --><path fill="currentColor" d="M224 480L290.7 546.6C278.7 521.6 272 493.5 272 464C272 377.6 329.1 304.5 407.6 280.4L560 128L16 128L224 336L224 480zM608 464C608 384.5 543.5 320 464 320C384.5 320 320 384.5 320 464C320 543.5 384.5 608 464 608C543.5 608 608 543.5 608 464zM480 392L512 392L512 424L450.2 424C444.6 424 440 428.6 440 434.2C440 439.1 443.5 443.3 448.3 444.2L493.3 452.4C513.3 456 527.9 473.5 527.9 493.9C527.9 517.2 509 536.1 485.7 536.1L479.9 536.1L479.9 560.1L447.9 560.1L447.9 536.1L415.9 536.1L415.9 504.1L485.7 504.1C491.3 504.1 495.9 499.5 495.9 493.9C495.9 489 492.4 484.8 487.6 483.9L442.6 475.7C422.6 472.1 408 454.6 408 434.2C408 411.6 425.7 393.2 448 392.1L448 368L480 368L480 392z"/></svg>