<svg xmlns="http://www.w3.org/2000/svg" viewBox="0 0 640 640"><!--! Font Awesome Pro 7.2.0 by @fontawesome - https://fontawesome.com License - https://fontawesome.com/license (Commercial License) Copyright 2026 Fonticons, Inc. --><path fill="currentColor" d="M112 320C112 205.1 205.1 112 320 112C383.1 112 439.6 140.1 477.8 184.5L493.4 202.7L529.8 171.4L514.2 153.2C467.3 98.6 397.7 64 320 64C178.6 64 64 178.6 64 320L64 384L112 384L112 320zM570.5 267.1L565.6 243.6L518.6 253.5L523.5 277C526.4 290.9 528 305.3 528 320.1L528 384.1L576 384.1L576 320.1C576 302 574.1 284.3 570.5 267.2zM320 144C285.8 144 254 153.7 227 170.6L258.7 207.6C276.9 197.7 297.8 192 320 192C390.7 192 448 249.3 448 320L448 344.9C448 379.5 445.2 414 439.6 448L488.2 448C493.4 414 496 379.5 496 344.9L496 320C496 222.8 417.2 144 320 144zM190.1 201.3C161.5 232.6 144 274.3 144 320L144 344.9C144 379.9 138.5 414.7 127.8 448L177.9 448C187.2 414.5 192 379.8 192 344.9L192 320C192 288.9 203.1 260.3 221.6 238.1L190 201.3zM320 224C267 224 224 267 224 320L224 344.9C224 390.9 216.4 436.5 201.5 480L247.8 480C261.2 436.3 268.1 390.8 268.1 344.9L268.1 320C268.1 291.3 291.4 268 320.1 268C348.8 268 372.1 291.3 372.1 320L372.1 344.9C372.1 390.5 366.6 435.9 355.7 480L400.9 480C411 435.8 416.1 390.5 416.1 344.9L416.1 320C416.1 267 373.1 224 320.1 224zM344 320L296 320L296 344.9C296 404.8 285 464.2 263.5 520.1C259.2 531.4 256.1 539.4 254.3 544L305.7 544L308.3 537.3C331.9 475.9 344 410.7 344 344.9L344 320z"/></svg>