<svg xmlns="http://www.w3.org/2000/svg" viewBox="0 0 640 640"><!--! Font Awesome Pro 7.2.0 by @fontawesome - https://fontawesome.com License - https://fontawesome.com/license (Commercial License) Copyright 2026 Fonticons, Inc. --><path fill="currentColor" d="M256 128L269.5 181.9C231.8 199.4 201.6 225 178.9 249.5L64 192L32 224L80 320L32 416L64 448L178.9 390.5C201.5 414.9 231.7 440.5 269.5 458.1L256 512L304 544L377.4 479.8C531.1 473.8 608 320 608 320C608 320 531.1 166.2 377.4 160.2L304 96L256 128zM448 288C465.7 288 480 302.3 480 320C480 337.7 465.7 352 448 352C430.3 352 416 337.7 416 320C416 302.3 430.3 288 448 288z"/></svg>