<svg xmlns="http://www.w3.org/2000/svg" viewBox="0 0 640 640"><!--! Font Awesome Pro 7.2.0 by @fontawesome - https://fontawesome.com License - https://fontawesome.com/license (Commercial License) Copyright 2026 Fonticons, Inc. --><path fill="currentColor" d="M278.4 32C373 32 449.6 108.7 449.7 203.2C449.7 242.8 435.9 281.3 410.8 311.9L406.9 316.6L480.6 463.9L524.5 469.4C572.5 475.4 608.6 516.2 608.6 564.6L608.6 607.9L384.6 607.9L143.9 463.5C99.5 437 84.2 380.2 109 335L134.6 288.4C111.6 272.5 96.5 246 96.5 216L96.5 188.6C59.6 178.1 32.5 144.3 32.5 104L32.5 32L278.4 32zM80.5 104C80.5 126.1 98.4 144 120.5 144L288.5 144L288.5 192L144.5 192L144.5 216C144.5 238.1 162.4 256 184.5 256L269.6 256L269.6 304L184.5 304C183.3 304 182.1 303.9 181 303.8L162.3 337.8L272.9 404.1L373.7 281.4C391.8 259.3 401.7 231.7 401.7 203.1C401.7 135 346.5 79.9 278.4 79.9L80.5 79.9L80.5 103.9z"/></svg>