<svg xmlns="http://www.w3.org/2000/svg" viewBox="0 0 640 640"><!--! Font Awesome Pro 7.2.0 by @fontawesome - https://fontawesome.com License - https://fontawesome.com/license (Commercial License) Copyright 2026 Fonticons, Inc. --><path fill="currentColor" d="M108.6 268.3L166 222.3C161 236.9 154.5 248.5 147.3 260.7C146.5 262.1 145.7 263.4 144.8 264.8C137.7 276.6 129.6 290.2 123.5 306.5C116.4 325.3 111.9 347.2 111.9 375.9C111.9 416.3 125.7 449.6 147.7 474.6C99.2 459.6 63.9 414.4 63.9 361C63.9 324.9 80.3 290.7 108.5 268.2zM457.1 480L391.3 480C416.2 454.5 432 419.3 432 376C432 320.6 410.2 291 391.1 265L391.1 265C389.9 263.3 388.6 261.7 387.4 260C377.7 246.7 369.2 234.2 362.9 218C356.6 202 352.1 181.3 352.1 152L352.1 64L416.1 64L416.1 176L531.5 268.3C559.6 290.9 576 325 576 361.1C576 426.8 522.8 480 457.1 480zM304 152C304 186.6 309.4 213.3 318.2 235.6C326.9 257.7 338.4 274.3 348.7 288.3C349.8 289.9 351 291.4 352.1 292.9C370.5 317.9 384.1 336.5 384.1 376C384.1 440 333.8 480 272.1 480C210.4 480 160 440 160 376C160 352.7 163.6 336.6 168.4 323.6C173 311.5 178.9 301.6 186.1 289.4L188.6 285.3C196.8 271.4 206 255.3 212.8 233.7C219.7 212.1 223.9 186.1 223.9 152.1L223.9 64.1L303.9 64.1L303.9 152.1zM200 512L248 512L248 576L200 576L200 512zM264 512L312 512L312 576L264 576L264 512zM328 512L376 512L376 576L328 576L328 512zM392 512L440 512L440 576L392 576L392 512z"/></svg>