<svg xmlns="http://www.w3.org/2000/svg" viewBox="0 0 640 640"><!--! Font Awesome Pro 7.2.0 by @fontawesome - https://fontawesome.com License - https://fontawesome.com/license (Commercial License) Copyright 2026 Fonticons, Inc. --><path fill="currentColor" d="M376 444C400.3 444 420 463.7 420 488L420 612L380 612L380 564L356 564L356 612L316 612L316 488C316 463.7 335.7 444 360 444L376 444zM496 444C529.1 444 556 470.9 556 504C556 537.1 529.1 564 496 564L484 564L484 612L444 612L444 444L496 444zM612 612L572 612L572 444L612 444L612 612zM373.6 119C390.8 123.6 407.1 130.3 422.3 138.9L465.9 105.1L533.8 173L500.2 216.1C509 231.4 516 247.9 520.7 265.3L574.8 272.1L574.8 368.1L520.7 374.8C518.3 383.5 515.4 391.9 512 400.1L272 400.1L272 522.4C252.2 517.7 233.4 510.3 216.2 500.4L171.6 535.1L103.7 467.2L138.7 422.1C130.4 407.4 123.9 391.6 119.4 375L64 368.1L62.7 272.1L119.4 265C123.9 248.4 130.5 232.7 138.7 218.1L103.7 173.1L171.6 105.2L216.2 139.9C231 131.4 246.9 124.6 263.7 119.9L270.7 64.1L366.7 64.1L373.5 119.1zM360 484C357.8 484 356 485.8 356 488L356 524L380 524L380 488C380 485.8 378.2 484 376 484L360 484zM484 524L496 524C507 524 516 515 516 504C516 493 507 484 496 484L484 484L484 524zM320 236C273.6 236 236 273.6 236 320C236 331.3 238.3 342.1 242.3 352L397.6 352C401.7 342.1 404 331.3 404 320C404 273.6 366.4 236 320 236z"/></svg>