<svg xmlns="http://www.w3.org/2000/svg" viewBox="0 0 640 640"><!--! Font Awesome Pro 7.2.0 by @fontawesome - https://fontawesome.com License - https://fontawesome.com/license (Commercial License) Copyright 2026 Fonticons, Inc. --><path fill="currentColor" d="M367 64L271 64L264 119.7C247.2 124.4 231.3 131.2 216.5 139.7L171.9 105L104 172.9L139 217.9C130.7 232.6 124.2 248.3 119.6 264.9L63 272L64.3 368L119.6 375C124.1 391.6 130.7 407.4 139 422.1L104 467.1L171.9 535L216.5 500.3C231.3 508.8 247.2 515.6 264 520.3L271 576L367 576L373.9 521C391.1 516.4 407.5 509.7 422.6 501.1L466.1 535L534 467.1L500.5 424C509.4 408.7 516.3 392.2 521.1 374.7L575.1 368L575.1 272L521.1 265.3C516.4 247.9 509.4 231.3 500.5 216L534 172.9L466.1 105L422.6 138.9C407.4 130.3 391.1 123.6 373.9 119L367 64zM319.7 240C363.9 239.8 399.8 275.5 400 319.7C400.2 363.9 364.5 399.8 320.3 400C276.1 400.2 240.2 364.5 240 320.3C239.8 276.1 275.5 240.2 319.7 240z"/></svg>