<svg xmlns="http://www.w3.org/2000/svg" viewBox="0 0 640 640"><!--! Font Awesome Pro 7.2.0 by @fontawesome - https://fontawesome.com License - https://fontawesome.com/license (Commercial License) Copyright 2026 Fonticons, Inc. --><path fill="currentColor" d="M544 144C544 99.8 508.2 64 464 64C446 64 429.4 70 416 80L335 80C358.6 32.6 407.5 0 464 0C543.5 0 608 64.5 608 144C608 212.5 560.1 269.9 496 284.4L496 217.3C524.3 205 544 176.8 544 144zM96 128L448 128L448 576L96 576L96 128zM160 192L160 320L384 320L384 192L160 192z"/></svg>