<svg xmlns="http://www.w3.org/2000/svg" viewBox="0 0 640 640"><!--! Font Awesome Pro 7.2.0 by @fontawesome - https://fontawesome.com License - https://fontawesome.com/license (Commercial License) Copyright 2026 Fonticons, Inc. --><path fill="currentColor" d="M320 576C461.4 576 576 461.4 576 320C576 178.6 461.4 64 320 64C178.6 64 64 178.6 64 320C64 461.4 178.6 576 320 576zM475.3 443.3C450.5 468.1 436.1 482.5 432 486.6L409.4 464C413.5 459.9 427.9 445.5 452.7 420.7L464 409.4L486.6 432L475.3 443.3zM352 480L352 512L288 512L288 480L352 480zM512 320L512 384L480 384L480 320L512 320zM256 224L256 192L352 192L352 256L288 256L256 224zM160 416L160 352L224 288L256 288L256 320L288 320L288 288L320 288L384 352L384 448L288 448L256 416L160 416z"/></svg>