<svg xmlns="http://www.w3.org/2000/svg" viewBox="0 0 640 640"><!--! Font Awesome Pro 7.2.0 by @fontawesome - https://fontawesome.com License - https://fontawesome.com/license (Commercial License) Copyright 2026 Fonticons, Inc. --><path fill="currentColor" d="M114.4 352L192 352L224 384L288 384L288 288L336 288L336 208L368 176L368 117.6C352.6 114 336.5 112 320 112C205.1 112 112 205.1 112 320C112 330.9 112.8 341.6 114.4 352zM518 384L480 384L480 352L416 352L352 416L352 480L416 480L431.6 495.6C472 469.8 503 430.5 518 384zM64 320C64 178.6 178.6 64 320 64C461.4 64 576 178.6 576 320C576 461.4 461.4 576 320 576C178.6 576 64 461.4 64 320zM192 416L192 448L256 448L256 416L192 416zM352 320L320 320L320 384L352 384L352 320zM384 192L384 256L416 256L416 192L384 192z"/></svg>