<svg xmlns="http://www.w3.org/2000/svg" viewBox="0 0 640 640"><!--! Font Awesome Pro 7.2.0 by @fontawesome - https://fontawesome.com License - https://fontawesome.com/license (Commercial License) Copyright 2026 Fonticons, Inc. --><path fill="currentColor" d="M128 96L96 96L96 544L544 544L544 96L128 96zM160 296L160 160L200 160L200 296L160 296zM160 344L200 344L200 480L160 480L160 344zM248 480L248 344L296 344L296 480L248 480zM344 480L344 344L392 344L392 480L344 480zM440 480L440 344L480 344L480 480L440 480zM480 296L440 296L440 160L480 160L480 296zM392 160L392 296L344 296L344 160L392 160zM296 160L296 296L248 296L248 160L296 160z"/></svg>