<svg xmlns="http://www.w3.org/2000/svg" viewBox="0 0 640 640"><!--! Font Awesome Pro 7.2.0 by @fontawesome - https://fontawesome.com License - https://fontawesome.com/license (Commercial License) Copyright 2026 Fonticons, Inc. --><path fill="currentColor" d="M529.7 42.4C534.3 37.9 539.1 33.7 544 29.5C548.9 33.7 553.7 37.9 558.3 42.4C569.1 52.9 587.1 72.1 598.3 93.7C603.9 104.4 607.9 116.2 607.9 128C607.9 164.4 580.3 192 543.9 192C507.5 192 479.9 164.4 479.9 128C479.9 116.2 484 104.4 489.5 93.7C500.7 72.1 518.7 52.9 529.5 42.4zM320 64C362.5 64 402.6 74.4 437.8 92.7C434.2 103.6 432 115.4 432 128C432 190.9 481.1 240 544 240C550.4 240 556.7 239.5 562.8 238.5C571.4 264.1 576 291.5 576 320C576 461.4 461.4 576 320 576C178.6 576 64 461.4 64 320C64 178.6 178.6 64 320 64zM320 392C261.8 392 207.6 381.4 162.3 363.3C175.3 438.7 240.9 496 320 496C399.1 496 464.7 438.7 477.7 363.3C432.4 381.4 378.2 392 320 392zM240 244C255.5 244 268 256.5 268 272L268 300L308 300L308 272C308 234.4 277.6 204 240 204C202.4 204 172 234.4 172 272L172 300L212 300L212 272C212 256.5 224.5 244 240 244zM372 272C372 256.5 384.5 244 400 244C415.5 244 428 256.5 428 272L428 300L468 300L468 272C468 234.4 437.6 204 400 204C362.4 204 332 234.4 332 272L332 300L372 300L372 272z"/></svg>