<svg xmlns="http://www.w3.org/2000/svg" viewBox="0 0 640 640"><!--! Font Awesome Pro 7.2.0 by @fontawesome - https://fontawesome.com License - https://fontawesome.com/license (Commercial License) Copyright 2026 Fonticons, Inc. --><path fill="currentColor" d="M543.8 444.3C500.1 522.9 416.3 576 320 576C223.7 576 139.9 522.9 96.2 444.3C120.3 430.8 137.8 406.5 141.9 377.5C148.7 329.7 154.5 289.5 159.1 256.8C121.3 262.2 91.3 266.5 68.9 269.7C92.3 152.4 195.8 64 320 64C444.2 64 547.7 152.4 571.1 269.7C548.7 266.5 518.6 262.2 480.9 256.8C485.6 289.5 491.3 329.7 498.1 377.5C502.2 406.5 519.7 430.7 543.9 444.3zM477.6 363.3C432.4 381.4 378.2 392 320 392C261.8 392 207.6 381.4 162.3 363.3C175.3 438.7 240.9 496 320 496C399.1 496 464.7 438.7 477.7 363.3zM212 272C212 256.5 224.5 244 240 244C255.5 244 268 256.5 268 272L268 300L308 300L308 272C308 234.4 277.6 204 240 204C202.4 204 172 234.4 172 272L172 300L212 300L212 272zM400 244C415.5 244 428 256.5 428 272L428 300L468 300L468 272C468 234.4 437.6 204 400 204C362.4 204 332 234.4 332 272L332 300L372 300L372 272C372 256.5 384.5 244 400 244zM640 364.6C640 393 617 416 588.6 416C563 416 541.3 397.2 537.7 371.9L528 304L595.9 313.7C621.2 317.3 640 339 640 364.6zM0 364.6C0 339 18.8 317.3 44.1 313.7L112 304L102.3 371.9C98.7 397.2 77 416 51.4 416C23 416 0 393 0 364.6z"/></svg>