<svg xmlns="http://www.w3.org/2000/svg" viewBox="0 0 640 640"><!--! Font Awesome Pro 7.2.0 by @fontawesome - https://fontawesome.com License - https://fontawesome.com/license (Commercial License) Copyright 2026 Fonticons, Inc. --><path fill="currentColor" d="M152 64L224 64L224 149.7L221.5 154.8L200 197.7L200 242.1C250.3 250.7 288 285.9 288 328.1C288 342.1 283.8 355.4 276.4 367.2C268.2 380.2 268.9 399.1 279.3 410.6C289.1 421.5 296.4 433.9 300.4 447.4C293.1 463.5 288 482.1 288 502.3C288 508.5 288.5 514.5 289.3 520.5C267.9 553.6 225.2 576.1 176 576.1C105.3 576.1 48 529.5 48 472.1C48 449.1 57.2 427.8 72.8 410.6C83.1 399.2 83.9 380.2 75.7 367.2C68.2 355.4 64.1 342.1 64.1 328.1C64.1 286 101.8 250.8 152.1 242.1L152.1 197.7L130.6 154.8L128.1 149.7L128.1 64L152.1 64zM176 408C198.1 408 216 390.1 216 368C216 345.9 198.1 328 176 328C153.9 328 136 345.9 136 368C136 390.1 153.9 408 176 408zM440 212.6L408 176L432 64L464 64C486.1 64 504 81.9 504 104L504 108.4C504 120.8 497.6 131.7 488 138.1L488 302.8C536 295.6 536 255.9 536 255.9L568 255.9L568 293.4C568 306.3 563.7 318.8 559.5 331.2C558.1 335.2 556.8 339.1 555.6 343C553.5 349.8 552 358.1 552 367.8C552 401.3 569 438.7 580.8 460.7C587.7 473.4 592 487.6 592 502C592 542.8 559 575.8 518.2 575.8L409.8 575.8C369 575.8 336 542.8 336 502C336 487.5 340.3 473.4 347.2 460.7C359 438.7 376 401.4 376 367.8C376 358 374.5 349.8 372.4 343C371.2 339.1 369.8 335.1 368.5 331.2C364.3 318.8 360 306.2 360 293.4L360 239.9L392 239.9C392 239.9 392 292.7 440 302.4L440 212.5zM424 352L424 400L512 400L512 352L424 352zM424 432L424 480L512 480L512 432L424 432z"/></svg>