<svg xmlns="http://www.w3.org/2000/svg" viewBox="0 0 640 640"><!--! Font Awesome Pro 7.2.0 by @fontawesome - https://fontawesome.com License - https://fontawesome.com/license (Commercial License) Copyright 2026 Fonticons, Inc. --><path fill="currentColor" d="M465.7 131.4C417.1 155.7 386.3 171.1 373.1 177.7L401.7 234.9C422.6 224.4 438 216.7 448 211.7L448 447.9L384 447.9L384 511.9L576 511.9L576 447.9L512 447.9L512 127.9L472.4 127.9L465.6 131.3zM128 160L128 128L64 128L64 512L128 512L128 352L256 352L256 512L320 512L320 128L256 128L256 288L128 288L128 160z"/></svg>