<svg xmlns="http://www.w3.org/2000/svg" viewBox="0 0 640 640"><!--! Font Awesome Pro 7.2.0 by @fontawesome - https://fontawesome.com License - https://fontawesome.com/license (Commercial License) Copyright 2026 Fonticons, Inc. --><path fill="currentColor" d="M608.2 232L544.2 232L544.2 184L632.2 184L632.2 232L608.2 232zM456.2 320L456.2 408L408.2 408L408.2 320L456.2 320zM456.2 32L456.2 96L408.2 96L408.2 8L456.2 8L456.2 32zM590.6 83.5C567 107.1 529.3 144.8 528.4 145.8L494.4 111.8C518 88.2 555.7 50.5 556.6 49.6L590.5 83.5zM545.3 287.2C566 307.9 581.1 323 590.6 332.5L556.7 366.4C533.1 342.8 495.4 305.1 494.5 304.2L528.4 270.3L545.4 287.3zM32.1 320L32.1 192L128.1 96L368.1 96L368.1 320L32.1 320zM184.1 368L264.1 368L264.1 608L184.1 608L184.1 368z"/></svg>