<svg xmlns="http://www.w3.org/2000/svg" viewBox="0 0 640 640"><!--! Font Awesome Pro 7.2.0 by @fontawesome - https://fontawesome.com License - https://fontawesome.com/license (Commercial License) Copyright 2026 Fonticons, Inc. --><path fill="currentColor" d="M320 448C337.7 448 352 433.7 352 416C352 398.3 337.7 384 320 384C302.3 384 288 398.3 288 416C288 433.7 302.3 448 320 448zM64 352L160 352L160 96L240 96L240 288L280 288L280 64L360 64L360 288L400 288L400 96L480 96L480 352L576 352L576 400L480.6 505C439.5 550.2 381.2 576 320 576C258.8 576 200.6 550.2 159.4 505L64 400L64 352zM320 352C272 352 224 416 224 416C224 416 272 480 320 480C368 480 416 416 416 416C416 416 368 352 320 352z"/></svg>