<svg xmlns="http://www.w3.org/2000/svg" viewBox="0 0 640 640"><!--! Font Awesome Pro 7.2.0 by @fontawesome - https://fontawesome.com License - https://fontawesome.com/license (Commercial License) Copyright 2026 Fonticons, Inc. --><path fill="currentColor" d="M81.3 47.1L64.3 30.1L30.4 64L47.4 81L559.4 593L576.4 610L610.3 576.1L593.3 559.1L313.2 279L344.2 248L344.2 248C379 282.5 443.5 346.5 537.8 440L608.2 384L608.2 96L496.2 160L448.2 128L320.2 128L320.2 128L245.4 211.1L211.4 177.1L255.6 128L192.2 128L174.2 140L81.3 47.1zM32.1 133.8L32.1 384L224.1 544L286.2 544C283.2 541 275.2 533 262.2 520L296.1 486.1C303.4 493.4 322.7 512.7 354 544L416.1 544L430.4 532.1L32.1 133.8z"/></svg>