<svg xmlns="http://www.w3.org/2000/svg" viewBox="0 0 640 640"><!--! Font Awesome Pro 7.2.0 by @fontawesome - https://fontawesome.com License - https://fontawesome.com/license (Commercial License) Copyright 2026 Fonticons, Inc. --><path fill="currentColor" d="M320 128L320 128L448 128L496 160L608 96L608 384L537.6 440C443.3 346.5 378.8 282.5 344 248L344 248L296.6 295.4C275.1 316.9 244.5 323.6 217.3 315.5C216.9 315.4 216.5 315.3 216.2 315.2C209.2 313 202.4 309.8 196.1 305.7C195.7 305.4 195.2 305.1 194.8 304.8C190.9 302.1 187.1 299 183.6 295.4L176 288L320 128zM192 128L255.4 128C164.6 228.9 116 282.8 109.8 289.7C135.4 315.3 148.6 328.5 149.4 329.3C199.4 379.3 280.4 379.3 330.4 329.3L344 315.7L501.9 472.3L460.6 506.7C433.7 479.8 416.1 462.2 407.9 454L374.1 488C382.8 496.7 399.3 513.2 423.7 537.6L416 544L353.9 544C322.6 512.7 303.3 493.4 296 486.1L262.1 520C275.1 533 283.1 541 286.1 544L224 544L32 384L32 96L144 160L192 128z"/></svg>