<svg xmlns="http://www.w3.org/2000/svg" viewBox="0 0 640 640"><!--! Font Awesome Pro 7.2.0 by @fontawesome - https://fontawesome.com License - https://fontawesome.com/license (Commercial License) Copyright 2026 Fonticons, Inc. --><path fill="currentColor" d="M320 64L243.2 166.4C230.7 183 224 203.2 224 224C224 277 267 320 320 320C373 320 416 277 416 224C416 203.2 409.3 183 396.8 166.4L320 64zM169.4 377.4L98.8 448L32.1 448L32.1 576L428.5 576L438.7 569C539.9 499.4 593.5 462.6 599.7 458.3L554.4 392.4C542.7 400.5 500.2 429.7 426.9 480L288.1 480L288.1 432L416.1 432L416.1 368L178.8 368L169.4 377.4z"/></svg>