<svg xmlns="http://www.w3.org/2000/svg" viewBox="0 0 640 640"><!--! Font Awesome Pro 7.2.0 by @fontawesome - https://fontawesome.com License - https://fontawesome.com/license (Commercial License) Copyright 2026 Fonticons, Inc. --><path fill="currentColor" d="M311.6 87.1C297.5 67.6 274.9 56.1 250.9 56.1C209.5 56.1 176 89.6 176 131L176 133.4C176 218.7 320 312.1 320 312.1C320 312.1 464 218.8 464 133.4L464 131C464 89.6 430.5 56.1 389.1 56.1C365.1 56.1 342.5 67.6 328.4 87.1L320 98.8L311.6 87.1zM169.4 377.5L98.8 448.1L32.1 448.1L32.1 576.1L428.5 576.1L438.7 569.1C539.9 499.5 593.5 462.7 599.7 458.4L554.4 392.5C542.7 400.6 500.2 429.8 426.9 480.1L288.1 480.1L288.1 432.1L416.1 432.1L416.1 368.1L178.8 368.1L169.4 377.5z"/></svg>