<svg xmlns="http://www.w3.org/2000/svg" viewBox="0 0 640 640"><!--! Font Awesome Pro 7.2.0 by @fontawesome - https://fontawesome.com License - https://fontawesome.com/license (Commercial License) Copyright 2026 Fonticons, Inc. --><path fill="currentColor" d="M272 64L272 96C280.8 96 288 103.2 288 112L288 176C288 184.8 280.8 192 272 192L128 192L171.6 144L128 96L192 96L192 64L272 64zM192 288L192 224L272 224L272 240L352 240L352 272L432 272L432 304L512 304L512 448C512 518.7 454.7 576 384 576L265.9 576C228.5 576 192.2 562.9 163.5 538.9L158.1 534.4C128.9 510.1 112 474 112 436L112 368L160 328L160 400L192 400L192 288z"/></svg>