<svg xmlns="http://www.w3.org/2000/svg" viewBox="0 0 640 640"><!--! Font Awesome Pro 7.2.0 by @fontawesome - https://fontawesome.com License - https://fontawesome.com/license (Commercial License) Copyright 2026 Fonticons, Inc. --><path fill="currentColor" d="M544 96L96 96L96 304L544 304L544 96zM544 352L96 352L96 544L544 544L544 352zM320 448C320 430.3 334.3 416 352 416C369.7 416 384 430.3 384 448C384 465.7 369.7 480 352 480C334.3 480 320 465.7 320 448zM448 416C465.7 416 480 430.3 480 448C480 465.7 465.7 480 448 480C430.3 480 416 465.7 416 448C416 430.3 430.3 416 448 416z"/></svg>