<svg xmlns="http://www.w3.org/2000/svg" viewBox="0 0 640 640"><!--! Font Awesome Pro 7.2.0 by @fontawesome - https://fontawesome.com License - https://fontawesome.com/license (Commercial License) Copyright 2026 Fonticons, Inc. --><path fill="currentColor" d="M640 464L640 507.6L586.6 472L293.9 276.9C257.8 252.8 215.3 240 171.9 240L168 240C165.3 240 162.6 240 160 240.1L192 96L256 96L320 144L384 96L448 96L491.1 290.1C575.4 303.1 640 376 640 464zM171.9 288C205.8 288 239 298 267.3 316.9L560 512L0 512L0 459.9C0 365 77 288 171.9 288z"/></svg>