<svg xmlns="http://www.w3.org/2000/svg" viewBox="0 0 640 640"><!--! Font Awesome Pro 7.2.0 by @fontawesome - https://fontawesome.com License - https://fontawesome.com/license (Commercial License) Copyright 2026 Fonticons, Inc. --><path fill="currentColor" d="M128 464L240 192L480 64L432 256L512 464L294.9 464L312 424L368 400L312 376L288 320L264 376L208 400L264 424L281.1 464L128 464zM320 256L336 288L352 256L384 240L352 224L336 192L320 224L288 240L320 256zM96 512L576 512L576 576L64 576L64 512L96 512z"/></svg>