<svg xmlns="http://www.w3.org/2000/svg" viewBox="0 0 640 640"><!--! Font Awesome Pro 7.2.0 by @fontawesome - https://fontawesome.com License - https://fontawesome.com/license (Commercial License) Copyright 2026 Fonticons, Inc. --><path fill="currentColor" d="M288 64C402.4 64 496.7 149.7 510.3 260.4L560 320L560 384L496 384L496 512L384 512L384 576L128 576L128 444.8C88.4 404.4 64 349 64 288C64 164.3 164.3 64 288 64zM304 128C291.7 128 280.5 132.6 272 140.2C263.5 132.6 252.3 128 240 128C213.5 128 192 149.5 192 176C165.5 176 144 197.5 144 224C144 250.5 165.5 272 192 272C192.7 272 193.3 272 194 272C201.1 299.6 226.2 320 256 320C291.3 320 320 291.3 320 256L368 256C394.5 256 416 234.5 416 208C416 181.5 394.5 160 368 160L349.3 160C342.7 141.4 324.9 128 304 128z"/></svg>