<svg xmlns="http://www.w3.org/2000/svg" viewBox="0 0 640 640"><!--! Font Awesome Pro 7.2.0 by @fontawesome - https://fontawesome.com License - https://fontawesome.com/license (Commercial License) Copyright 2026 Fonticons, Inc. --><path fill="currentColor" d="M320 128C231.6 128 160 199.6 160 288L256 288L256 448L192 448C139 448 96 405 96 352L96 288C96 164.3 196.3 64 320 64C443.7 64 544 164.3 544 288L544 576.1L520 576.1C380 576 292 576 256 576L256 528C256 501.5 277.5 480 304 480L336 480C362.5 480 384 501.5 384 528L384 528L496 528.1L496 435.2C481.9 443.4 465.5 448 448 448L384 448L384 288L480 288C480 199.6 408.4 128 320 128z"/></svg>