<svg xmlns="http://www.w3.org/2000/svg" viewBox="0 0 640 640"><!--! Font Awesome Pro 7.2.0 by @fontawesome - https://fontawesome.com License - https://fontawesome.com/license (Commercial License) Copyright 2026 Fonticons, Inc. --><path fill="currentColor" d="M560 336L400 336C346.3 336 300.3 302.9 281.3 256L66.3 256C64.8 266.4 64 277.1 64 288C64 349 88.4 404.4 128 444.8L128 576L384 576L384 512L496 512L496 384L560 384L560 336zM376.5 82.2C349.4 70.5 319.4 64 288 64C211.9 64 144.6 102 104.1 160L281.3 160C297.5 120.1 333.1 90.2 376.5 82.2zM400 128C355.8 128 320 163.8 320 208C320 252.2 355.8 288 400 288L576 288L576 128L400 128z"/></svg>