<svg xmlns="http://www.w3.org/2000/svg" viewBox="0 0 640 640"><!--! Font Awesome Pro 7.2.0 by @fontawesome - https://fontawesome.com License - https://fontawesome.com/license (Commercial License) Copyright 2026 Fonticons, Inc. --><path fill="currentColor" d="M424.5 94.1C435.8 105.4 447.2 116.8 458.7 128.3C460.6 128.2 462.6 128.1 464.5 128.1L496.5 128.1C507.7 128.1 518.4 130.4 528.1 134.6C538.1 124.6 549 113.7 560.5 102.2L594.4 136C582.4 148 572.4 158 564.5 165.9C572.1 178.1 576.5 192.6 576.5 208L576.5 225.6C613 233 640.5 265.3 640.5 304C640.5 330.2 627.9 353.4 608.5 368L608.5 416L544.5 416L544.5 384L480.5 384L480.5 416L416.5 416L416.5 382.4C404.7 380 393.8 375 384.5 368C383 366.9 381.6 365.7 380.2 364.5C363.2 349.8 352.5 328.1 352.5 304L352.5 288L320.5 288L320.5 304C320.5 348.7 346.7 387.2 384.5 405.2L384.5 448L448.5 448L448.5 544L320.5 544L320.5 436C300.7 443.7 279.1 448 256.5 448C233.9 448 212.3 443.7 192.5 436L192.5 544L64.5 544L64.5 393.1L46.4 433.8L2.5 414.3L32.4 347L32.4 328.1C32.4 220.4 117.5 132.6 224.2 128.3L224.4 128.1L288.4 128.1L397.4 164.4C401.2 158.5 405.8 153.2 411 148.6L407.5 145.1L390.5 128.1L424.4 94.2zM480.5 296C480.5 282.7 469.8 272 456.5 272C443.2 272 432.5 282.7 432.5 296C432.5 309.3 443.2 320 456.5 320C469.8 320 480.5 309.3 480.5 296zM568.5 320C581.8 320 592.5 309.3 592.5 296C592.5 282.7 581.8 272 568.5 272C555.2 272 544.5 282.7 544.5 296C544.5 309.3 555.2 320 568.5 320zM480.5 208C480.5 199.2 473.3 192 464.5 192C455.7 192 448.5 199.2 448.5 208C448.5 216.8 455.7 224 464.5 224C473.3 224 480.5 216.8 480.5 208zM528.5 224C537.3 224 544.5 216.8 544.5 208C544.5 199.2 537.3 192 528.5 192C519.7 192 512.5 199.2 512.5 208C512.5 216.8 519.7 224 528.5 224z"/></svg>