<svg xmlns="http://www.w3.org/2000/svg" viewBox="0 0 640 640"><!--! Font Awesome Pro 7.2.0 by @fontawesome - https://fontawesome.com License - https://fontawesome.com/license (Commercial License) Copyright 2026 Fonticons, Inc. --><path fill="currentColor" d="M96 304C96 496 144 576 320 576C496 576 544 496 544 304L544 64L96 64L96 304zM256 120C269.3 120 280 130.7 280 144C280 157.3 269.3 168 256 168C242.7 168 232 157.3 232 144C232 130.7 242.7 120 256 120zM296 192C296 178.7 306.7 168 320 168C333.3 168 344 178.7 344 192C344 205.3 333.3 216 320 216C306.7 216 296 205.3 296 192zM272 360C285.3 360 296 370.7 296 384C296 397.3 285.3 408 272 408C258.7 408 248 397.3 248 384C248 370.7 258.7 360 272 360zM272 424C285.3 424 296 434.7 296 448C296 461.3 285.3 472 272 472C258.7 472 248 461.3 248 448C248 434.7 258.7 424 272 424zM248 512C248 498.7 258.7 488 272 488C285.3 488 296 498.7 296 512C296 525.3 285.3 536 272 536C258.7 536 248 525.3 248 512zM368 360C381.3 360 392 370.7 392 384C392 397.3 381.3 408 368 408C354.7 408 344 397.3 344 384C344 370.7 354.7 360 368 360zM360 144C360 130.7 370.7 120 384 120C397.3 120 408 130.7 408 144C408 157.3 397.3 168 384 168C370.7 168 360 157.3 360 144zM368 424C381.3 424 392 434.7 392 448C392 461.3 381.3 472 368 472C354.7 472 344 461.3 344 448C344 434.7 354.7 424 368 424zM344 512C344 498.7 354.7 488 368 488C381.3 488 392 498.7 392 512C392 525.3 381.3 536 368 536C354.7 536 344 525.3 344 512zM224 336C188.7 336 160 307.3 160 272L160 240L288 240L288 272C288 307.3 259.3 336 224 336zM480 272C480 307.3 451.3 336 416 336C380.7 336 352 307.3 352 272L352 240L480 240L480 272z"/></svg>