<svg xmlns="http://www.w3.org/2000/svg" viewBox="0 0 640 640"><!--! Font Awesome Pro 7.2.0 by @fontawesome - https://fontawesome.com License - https://fontawesome.com/license (Commercial License) Copyright 2026 Fonticons, Inc. --><path fill="currentColor" d="M320 128C214 128 128 214 128 320C128 426 214 512 320 512C360.8 512 398.6 499.3 429.7 477.6L466.3 530.1C424.8 559 374.3 576 320 576C178.6 576 64 461.4 64 320C64 178.6 178.6 64 320 64C461.4 64 576 178.6 576 320L576 416L608 416L608 464L581.7 464L572.6 528L592 528L592 576L496 576L496 528L515.4 528L506.3 464L480 464L480 416L512 416L512 320C512 214 426 128 320 128zM320 410C369.7 410 410 369.7 410 320C410 270.3 369.7 230 320 230C270.3 230 230 270.3 230 320C230 369.7 270.3 410 320 410zM320 176C399.5 176 464 240.5 464 320C464 399.5 399.5 464 320 464C240.5 464 176 399.5 176 320C176 240.5 240.5 176 320 176zM272 320C272 293.5 293.5 272 320 272C346.5 272 368 293.5 368 320C368 346.5 346.5 368 320 368C293.5 368 272 346.5 272 320z"/></svg>