<svg xmlns="http://www.w3.org/2000/svg" viewBox="0 0 640 640"><!--! Font Awesome Pro 7.2.0 by @fontawesome - https://fontawesome.com License - https://fontawesome.com/license (Commercial License) Copyright 2026 Fonticons, Inc. --><path fill="currentColor" d="M64 64L448 64L448 249.3C401.1 268.3 368 314.3 368 368C368 387.8 372.5 406.5 380.5 423.2L313.6 576L64 576L64 64zM208 416L208 528L282.2 528L304 478.2L304 416L208 416zM280 152L232 152L232 200L184 200L184 248L232 248L232 296L280 296L280 248L328 248L328 200L280 200L280 152zM416 368C416 323.8 451.8 288 496 288C540.2 288 576 323.8 576 368C576 412.2 540.2 448 496 448C451.8 448 416 412.2 416 368zM584 480L640 608L352 608L408 480L584 480z"/></svg>