<svg xmlns="http://www.w3.org/2000/svg" viewBox="0 0 640 640"><!--! Font Awesome Pro 7.2.0 by @fontawesome - https://fontawesome.com License - https://fontawesome.com/license (Commercial License) Copyright 2026 Fonticons, Inc. --><path fill="currentColor" d="M80 576L340 576C318.8 546.5 305.7 510.7 304.1 472L255.9 472L255.9 416L199.9 416L199.9 352L255.9 352L255.9 296L319.9 296L319.9 352L339.9 352C374.8 303.5 431.6 272 495.9 272C507.6 272 519 273 530.1 275L288 48L32 288L32 336L80 336L80 576zM640 464C640 384.5 575.5 320 496 320C416.5 320 352 384.5 352 464C352 543.5 416.5 608 496 608C575.5 608 640 543.5 640 464zM566.4 412.5L557 425.4L493 513.4L482 528.5C477.6 524.1 459.9 506.4 428.8 475.3L417.4 464L440 441.4C445 446.4 457.7 459.1 478.1 479.5L531.1 406.6L540.5 393.7L566.4 412.5z"/></svg>