<svg xmlns="http://www.w3.org/2000/svg" viewBox="0 0 640 640"><!--! Font Awesome Pro 7.2.0 by @fontawesome - https://fontawesome.com License - https://fontawesome.com/license (Commercial License) Copyright 2026 Fonticons, Inc. --><path fill="currentColor" d="M440 88C440 57.1 414.9 32 384 32C353.1 32 328 57.1 328 88C328 118.9 353.1 144 384 144C414.9 144 440 118.9 440 88zM336 176L322.7 176L313.3 185.4L233.3 265.4L223.9 274.8L223.9 384.1L287.9 384.1L287.9 301.4L319.9 269.4L319.9 338.7C319.9 366.7 332.1 393.4 353.4 411.6L434.1 480.7C445.1 552.3 451.5 593.6 453.2 604.6L516.5 594.9C515.1 585.9 508.2 540.7 495.6 459.3L493.8 447.6L484.8 439.9L432 394.6L432 279.4C449.6 301.4 460.4 315 464.6 320.2L576 320.2L576 256.2L495.4 256.2L441 188.2L431.4 176.2L336 176.2zM320.1 435L307.5 479.2C262.8 523.9 235.9 550.8 226.7 560L272 605.3C280.2 597.1 309.1 568.2 358.6 518.7L364.5 512.8C365.3 510.1 368.3 499.6 373.5 481.3L327.5 441.9C325 439.7 322.5 437.5 320.1 435.1zM192 72L16 225.2L16 256L48 256L48 416L176 416L176 254.9C182.2 248.7 216.7 214.2 279.4 151.5L281.2 149.7L192 72z"/></svg>