<svg xmlns="http://www.w3.org/2000/svg" viewBox="0 0 640 640"><!--! Font Awesome Pro 7.2.0 by @fontawesome - https://fontawesome.com License - https://fontawesome.com/license (Commercial License) Copyright 2026 Fonticons, Inc. --><path fill="currentColor" d="M464 213.4C464 141 396.5 87.5 326 104.1C243.9 123.5 198.6 134.2 190.1 136.2L204.8 198.5C213.3 196.5 258.6 185.8 340.7 166.4C371 159.3 400 182.2 400 213.3C400 230.9 390.4 247.1 375 255.6L374.3 256L128 256L128 304L512 304L512 256L455.6 256C461.1 242.7 464 228.2 464 213.4zM512 336L128 336L128 384L185.3 384C179.2 397.4 176 412.1 176 427.3C176 491.4 232.9 540.7 296.4 531.5C406.1 515.7 462.6 507.5 466 507L456.9 443.7C453.5 444.2 396.9 452.4 287.3 468.2C262.4 471.8 240.1 452.5 240.1 427.3C240.1 412.2 248.3 398.4 261.5 391.1L274.5 384L512.1 384L512.1 336z"/></svg>