<svg xmlns="http://www.w3.org/2000/svg" viewBox="0 0 640 640"><!--! Font Awesome Pro 7.2.0 by @fontawesome - https://fontawesome.com License - https://fontawesome.com/license (Commercial License) Copyright 2026 Fonticons, Inc. --><path fill="currentColor" d="M32 96L608 96L608 160L32 160L32 96zM32 208L608 208L608 544L32 544L32 208zM96 480L320 480L288 416L128 416L96 480zM208 376C238.9 376 264 350.9 264 320C264 289.1 238.9 264 208 264C177.1 264 152 289.1 152 320C152 350.9 177.1 376 208 376zM392 272L368 272L368 320L528 320L528 272L392 272zM392 368L368 368L368 416L528 416L528 368L392 368z"/></svg>