<svg xmlns="http://www.w3.org/2000/svg" viewBox="0 0 640 640"><!--! Font Awesome Pro 7.2.0 by @fontawesome - https://fontawesome.com License - https://fontawesome.com/license (Commercial License) Copyright 2026 Fonticons, Inc. --><path fill="currentColor" d="M352 97.8L352 224L80.5 224C132.2 146.8 220.1 96 320 96C330.8 96 341.5 96.6 352 97.8zM400 224L400 107.3C466 126.3 522.2 168.3 559.5 224L400 224zM54.6 272L128 272L128 384L32 384C32 344.3 40 306.4 54.6 272zM208 384L176 384L176 272L464 272L464 384L432 384L432 432L608 432L608 544L32 544L32 432L208 432L208 384zM512 384L512 272L585.4 272C600 306.4 608 344.3 608 384L512 384zM384 496L384 352L256 352L256 496L384 496z"/></svg>