<svg xmlns="http://www.w3.org/2000/svg" viewBox="0 0 640 640"><!--! Font Awesome Pro 7.2.0 by @fontawesome - https://fontawesome.com License - https://fontawesome.com/license (Commercial License) Copyright 2026 Fonticons, Inc. --><path fill="currentColor" d="M128 96L576 96L576 480L128 480L128 96zM80 192L80 528L480 528L480 576L32 576L32 192L80 192zM224 224C241.7 224 256 209.7 256 192C256 174.3 241.7 160 224 160C206.3 160 192 174.3 192 192C192 209.7 206.3 224 224 224zM272 272L176 416L528 416L400 208L318.1 341.1L272 272z"/></svg>