<svg xmlns="http://www.w3.org/2000/svg" viewBox="0 0 640 640"><!--! Font Awesome Pro 7.2.0 by @fontawesome - https://fontawesome.com License - https://fontawesome.com/license (Commercial License) Copyright 2026 Fonticons, Inc. --><path fill="currentColor" d="M252.5 142.1L272 64L368 64L387.5 142.1C386.3 142.7 385.1 143.3 384 143.9C364.7 133.9 343.2 128 320 128C296.8 128 275.3 133.9 256 143.9C254.8 143.3 253.7 142.7 252.5 142.1zM256 534.3C237.2 550.6 215.3 560 192 560C121.3 560 64 474 64 368C64 262 121.3 176 192 176C215.3 176 237.2 185.3 256 201.7C274.8 185.4 296.7 176 320 176C343.3 176 365.2 185.3 384 201.7C402.8 185.4 424.7 176 448 176C518.7 176 576 262 576 368C576 474 518.7 560 448 560C424.7 560 402.8 550.6 384 534.3C365.2 550.6 343.3 560 320 560C296.7 560 274.8 550.6 256 534.3zM240 256L201.6 320L278.4 320L240 256zM400 256L361.6 320L438.4 320L400 256zM160 357.1C166.4 395.9 190.1 429.6 224 451.9L224 432L272 432L272 473.6C287.2 477.8 303.3 480 320 480C336.7 480 352.8 477.7 368 473.5L368 432L416 432L416 451.9C449.9 429.6 473.6 395.8 480 357C440.7 371.1 394.2 380.1 344 382.3L344 416L296 416L296 382.3C245.8 380.1 199.3 371.1 160 357.1z"/></svg>