<svg xmlns="http://www.w3.org/2000/svg" viewBox="0 0 640 640"><!--! Font Awesome Pro 7.2.0 by @fontawesome - https://fontawesome.com License - https://fontawesome.com/license (Commercial License) Copyright 2026 Fonticons, Inc. --><path fill="currentColor" d="M161 64L150.2 120L490.3 120L479.6 64L161 64zM142.5 160L132.5 212L144.3 212C174.7 212 199.9 189.4 203.8 160L142.5 160zM244 160C239.9 211.5 196.9 252 144.3 252L124.8 252L66 557.9L254.5 594.2L300.2 356.4L300.2 160.1L243.9 160.1zM340.3 160L340.3 356.3L386 594.1L574.5 557.8L515.7 251.9L496.2 251.9C443.7 251.9 400.6 211.4 396.5 159.9L340.2 159.9zM436.8 160C440.7 189.4 465.8 212 496.3 212L508.1 212L498.1 160L436.9 160z"/></svg>