<svg xmlns="http://www.w3.org/2000/svg" viewBox="0 0 640 640"><!--! Font Awesome Pro 7.2.0 by @fontawesome - https://fontawesome.com License - https://fontawesome.com/license (Commercial License) Copyright 2026 Fonticons, Inc. --><path fill="currentColor" d="M320 238.3L483.2 176.4L320 115.3L156.8 176.4L320 238.3zM320 64L576 160L576 229.2L320 326.3L64 229.2L64 160L320 64zM64 333.2L64 280.5L311.5 374.4L320 377.6L328.5 374.4L576 280.5L576 333.2L448 381.8L448 433.1L576 384.5L576 479.9L320 575.9L64 479.9L64 384.5L192 433.1L192 381.8L64 333.2zM311.5 478.4L320 481.6L328.5 478.4L400 451.3L400 400L320 430.3L240 400L240 451.3L311.5 478.4z"/></svg>