<svg xmlns="http://www.w3.org/2000/svg" viewBox="0 0 640 640"><!--! Font Awesome Pro 7.2.0 by @fontawesome - https://fontawesome.com License - https://fontawesome.com/license (Commercial License) Copyright 2026 Fonticons, Inc. --><path fill="currentColor" d="M192 128L640 128L640 512L192 512L192 128zM240 192L240 256L304 256L304 192L240 192zM304 288L240 288L240 352L304 352L304 288zM336 192L336 256L400 256L400 192L336 192zM400 288L336 288L336 352L400 352L400 288zM336 384L336 448L496 448L496 384L336 384zM496 192L432 192L432 256L496 256L496 192zM432 288L432 352L496 352L496 288L432 288zM592 192L528 192L528 256L592 256L592 192zM528 288L528 352L592 352L592 288L528 288zM112 280L112 417.9C46.4 352.3 15.2 321.1 14.1 320C31.7 302.4 98.9 235.2 112 222.1L112 280z"/></svg>