<svg xmlns="http://www.w3.org/2000/svg" viewBox="0 0 640 640"><!--! Font Awesome Pro 7.2.0 by @fontawesome - https://fontawesome.com License - https://fontawesome.com/license (Commercial License) Copyright 2026 Fonticons, Inc. --><path fill="currentColor" d="M240 479.3C234.7 479.7 229.4 480 224 480C207.4 480 191.3 477.9 176 474L176 544L128 544L128 454.3C70.6 421.1 32 359.1 32 288C32 182 118 96 224 96C280.9 96 332 120.7 367.1 160L480 160C550.7 160 608 217.3 608 288L608 544L496 416L367.1 416C345.8 439.8 318.7 458.2 288 469.1L288 544L240 544L240 479.3zM480 312C493.3 312 504 301.3 504 288C504 274.7 493.3 264 480 264C466.7 264 456 274.7 456 288C456 301.3 466.7 312 480 312z"/></svg>