<svg xmlns="http://www.w3.org/2000/svg" viewBox="0 0 640 640"><!--! Font Awesome Pro 7.2.0 by @fontawesome - https://fontawesome.com License - https://fontawesome.com/license (Commercial License) Copyright 2026 Fonticons, Inc. --><path fill="currentColor" d="M320 576C461.4 576 576 461.4 576 320C576 178.6 461.4 64 320 64C178.6 64 64 178.6 64 320C64 461.4 178.6 576 320 576zM320 496C237 496 168.8 432.9 160.8 352L479.2 352C471.2 432.9 403 496 320 496zM208 256C208 238.3 222.3 224 240 224C257.7 224 272 238.3 272 256C272 273.7 257.7 288 240 288C222.3 288 208 273.7 208 256zM400 224C417.7 224 432 238.3 432 256C432 273.7 417.7 288 400 288C382.3 288 368 273.7 368 256C368 238.3 382.3 224 400 224z"/></svg>