<svg xmlns="http://www.w3.org/2000/svg" viewBox="0 0 640 640"><!--! Font Awesome Pro 7.2.0 by @fontawesome - https://fontawesome.com License - https://fontawesome.com/license (Commercial License) Copyright 2026 Fonticons, Inc. --><path fill="currentColor" d="M431.2 476.5C399.9 498.9 361.5 512 320 512C278.5 512 240.1 498.9 208.8 476.5L266.8 418.5C282.6 427.1 300.8 432 320.1 432C339.4 432 357.5 427.1 373.4 418.5L431.4 476.5zM522.2 477C555.9 433.7 576 379.2 576 320C576 260.8 555.9 206.4 522.2 163L541.2 144L495.9 98.7L476.9 117.7C433.6 84.1 379.2 64 320 64C260.8 64 206.4 84.1 163 117.8L144 98.8L98.7 144.1L117.7 163.1C84.1 206.4 64 260.8 64 320C64 379.2 84.1 433.6 117.8 477L98.8 496L144.1 541.3L163.1 522.3C206.4 556 260.9 576.1 320.1 576.1C379.3 576.1 433.7 556 477.1 522.3L496.1 541.3L541.4 496L522.4 477zM476.5 431.3L418.5 373.3C427.1 357.5 432 339.3 432 320C432 300.7 427.1 282.6 418.5 266.7L476.5 208.7C498.9 240.1 512 278.5 512 320C512 361.5 498.9 399.9 476.5 431.2zM431.2 163.5L373.2 221.5C357.4 212.9 339.2 208 319.9 208C300.6 208 282.5 212.9 266.6 221.5L208.6 163.5C240.1 141.1 278.5 128 320 128C361.5 128 399.9 141.1 431.2 163.5zM221.5 373.3L163.5 431.3C141.1 399.9 128 361.5 128 320C128 278.5 141.1 240.1 163.5 208.8L221.5 266.8C212.9 282.6 208 300.8 208 320.1C208 339.4 212.9 357.5 221.5 373.4zM272 320C272 293.5 293.5 272 320 272C346.5 272 368 293.5 368 320C368 346.5 346.5 368 320 368C293.5 368 272 346.5 272 320z"/></svg>