<svg xmlns="http://www.w3.org/2000/svg" viewBox="0 0 640 640"><!--! Font Awesome Pro 7.2.0 by @fontawesome - https://fontawesome.com License - https://fontawesome.com/license (Commercial License) Copyright 2026 Fonticons, Inc. --><path fill="currentColor" d="M69.3 100L49.3 86.7L22.7 126.6C31.3 132.4 54 147.5 90.7 171.9L110.7 185.2L137.3 145.3L69.3 100zM597.3 140L617.3 126.7L590.7 86.8C582.1 92.6 559.4 107.7 522.7 132.1L502.7 145.4L529.3 185.3C537.9 179.5 560.6 164.4 597.3 140zM24 256L0 256L0 304L120 304L120 256L24 256zM544 256L520 256L520 304L640 304L640 256L544 256zM320 96C231.6 96 160 167.6 160 256L160 368L480 368L480 256C480 167.6 408.4 96 320 96zM256 264L256 272L208 272L208 264C208 197.7 261.7 144 328 144L336 144L336 192L328 192C288.2 192 256 224.2 256 264zM544 416L96 416L96 544L544 544L544 416z"/></svg>