<svg xmlns="http://www.w3.org/2000/svg" viewBox="0 0 640 640"><!--! Font Awesome Pro 7.2.0 by @fontawesome - https://fontawesome.com License - https://fontawesome.com/license (Commercial License) Copyright 2026 Fonticons, Inc. --><path fill="currentColor" d="M81.3 47.1L64.3 30.1L30.4 64L47.4 81L559.4 593L576.4 610L610.3 576.1C604.2 570 582.5 548.3 545.3 511.1C583.5 481.9 608.1 435.8 608.1 384C608.1 324.7 575.8 272.9 527.8 245.2C528 248.8 528.1 252.3 528.1 256C528.1 277.9 524.7 298.9 518.5 318.7C534.4 335.8 544.1 358.8 544.1 384C544.1 418.2 526.2 448.2 499.3 465.2L417.2 383.1C455.4 353.9 480 307.8 480 256C480 167.6 408.4 96 320 96L192 96C173.4 96 155.6 99.2 139 105L81.3 47.1zM194.2 160L320.2 160C373.2 160 416.2 203 416.2 256C416.2 290.2 398.3 320.2 371.4 337.2L322.2 288L352.2 288L352.2 224L320.2 224C301.6 224 283.8 227.2 267.2 233L194.2 160zM442.3 544L378.3 480L320.1 480C267.1 480 224.1 437 224.1 384C224.1 367.2 228.4 351.4 236 337.7L189.7 291.4C171.1 317.5 160.2 349.5 160.2 384C160.2 472.4 231.8 544 320.2 544L442.4 544zM61.7 163.4C43.1 189.5 32.2 221.5 32.2 256C32.2 315.3 64.5 367.1 112.5 394.8C112.3 391.2 112.2 387.7 112.2 384C112.2 362.1 115.6 341.1 121.8 321.3C105.9 304.2 96.2 281.2 96.2 256C96.2 239.2 100.5 223.4 108.1 209.7L61.7 163.4z"/></svg>