<svg xmlns="http://www.w3.org/2000/svg" viewBox="0 0 640 640"><!--! Font Awesome Pro 7.2.0 by @fontawesome - https://fontawesome.com License - https://fontawesome.com/license (Commercial License) Copyright 2026 Fonticons, Inc. --><path fill="currentColor" d="M608 96L608 55C596.2 58 540.3 71.9 440.2 97L416 103L416 377.2C401.5 371.3 385.2 368 368 368C306.1 368 256 411 256 464C256 517 306.1 560 368 560C429.9 560 480 517 480 464L480 249C562.4 228.4 605.1 217.7 608 217L608 96zM96 128L64 128L64 192L368 192L368 128L96 128zM96 288L64 288L64 352L256 352L256 288L96 288zM96 448L64 448L64 512L208 512L208 448L96 448z"/></svg>