<svg xmlns="http://www.w3.org/2000/svg" viewBox="0 0 640 640"><!--! Font Awesome Pro 7.2.0 by @fontawesome - https://fontawesome.com License - https://fontawesome.com/license (Commercial License) Copyright 2026 Fonticons, Inc. --><path fill="currentColor" d="M544 96L544 240L96 240L96 96L544 96zM96 544L96 288L544 288L544 544L96 544zM216 344L192 344L192 392L448 392L448 344L216 344zM216 440L192 440L192 488L448 488L448 440L216 440zM408 144L369.4 144C413.6 188.2 429.5 204.1 432 206.6C444.2 194.4 484.1 154.5 494.6 144L408 144z"/></svg>