<svg xmlns="http://www.w3.org/2000/svg" viewBox="0 0 640 640"><!--! Font Awesome Pro 7.2.0 by @fontawesome - https://fontawesome.com License - https://fontawesome.com/license (Commercial License) Copyright 2026 Fonticons, Inc. --><path fill="currentColor" d="M81.3 47.1L64.3 30.1L30.4 64L47.4 81L559.4 593L576.4 610L610.3 576.1L494.7 460.5C519.3 429.9 536.1 392.7 541.9 352L592.2 352L592.2 288L541.9 288C527.9 189.9 450.3 112.3 352.2 98.3L352.2 48L288.2 48L288.2 98.3C247.5 104.1 210.3 120.9 179.7 145.5L81.3 47.1zM225.3 191.1C251.8 171.5 284.6 160 320.1 160C408.5 160 480.1 231.6 480.1 320C480.1 355.5 468.5 388.3 449 414.8L402.9 368.7C411.3 354.4 416.2 337.8 416.2 320C416.2 267 373.2 224 320.2 224C302.4 224 285.8 228.8 271.5 237.3L225.4 191.2zM370.3 472C354.5 477.2 337.7 480 320.1 480C231.7 480 160.1 408.4 160.1 320C160.1 302.5 162.9 285.6 168.1 269.8L119.1 220.8C108.9 241.6 101.8 264.2 98.4 288L48.1 288L48.1 352L98.4 352C112.4 450.1 190 527.7 288.1 541.7L288.1 592L352.1 592L352.1 541.7C375.9 538.3 398.5 531.2 419.2 520.9L370.2 471.9zM224.3 326C227.3 374.2 265.9 412.8 314.1 415.8L224.3 326z"/></svg>