<svg xmlns="http://www.w3.org/2000/svg" viewBox="0 0 640 640"><!--! Font Awesome Pro 7.2.0 by @fontawesome - https://fontawesome.com License - https://fontawesome.com/license (Commercial License) Copyright 2026 Fonticons, Inc. --><path fill="currentColor" d="M392 96C508.6 96 603.6 188.4 607.8 304L608 304L608 384C608 428.2 572.2 464 528 464L515.6 464L561.3 544L506 544L460.3 464L379.9 464L324.5 544L266.2 544L321.6 464L268.6 464L208.8 544L148.9 544L213.8 457.1L172.6 441.4L91.6 544L30.4 544L301.1 201.1L326.1 169.4C335.8 191.9 348.2 221 363.5 256.6C393.7 216.2 415.7 186.8 429.6 168.2C436.3 183.8 455.7 229 487.8 303.9L559.8 303.9C555.7 214.9 482.1 144 392 144L320 144L320 96L392 96zM88.3 409.2L64 400L64 304L172.4 304L88.2 409.2zM520 360C506.7 360 496 370.7 496 384C496 397.3 506.7 408 520 408C533.3 408 544 397.3 544 384C544 370.7 533.3 360 520 360zM281.1 304L328.3 304L330.4 301.2L313.8 262.6L281.1 304.1zM388.2 304L435.6 304L418.3 263.7L388.1 304z"/></svg>