<svg xmlns="http://www.w3.org/2000/svg" viewBox="0 0 640 640"><!--! Font Awesome Pro 7.2.0 by @fontawesome - https://fontawesome.com License - https://fontawesome.com/license (Commercial License) Copyright 2026 Fonticons, Inc. --><path fill="currentColor" d="M512 64L432 112L406.6 188.1L340.9 253.8C253.6 252.3 64 264.5 64 400C64 497.2 142.8 576 240 576C375.5 576 387.7 386.4 386.2 299.1L451.9 233.4L528 208L576 128L512 64zM272 320C298.5 320 320 341.5 320 368C320 394.5 298.5 416 272 416C245.5 416 224 394.5 224 368C224 341.5 245.5 320 272 320z"/></svg>