<svg xmlns="http://www.w3.org/2000/svg" viewBox="0 0 640 640"><!--! Font Awesome Pro 7.2.0 by @fontawesome - https://fontawesome.com License - https://fontawesome.com/license (Commercial License) Copyright 2026 Fonticons, Inc. --><path fill="currentColor" d="M512 320C512 214 426 128 320 128C214 128 128 214 128 320C128 426 214 512 320 512C426 512 512 426 512 320zM64 320C64 178.6 178.6 64 320 64C461.4 64 576 178.6 576 320C576 461.4 461.4 576 320 576C178.6 576 64 461.4 64 320zM320 208C336.5 208 350.1 195.5 351.8 179.5C416 194 464 251.4 464 320C464 388.6 416 446 351.8 460.5C350 444.5 336.5 432 320 432C303.5 432 289.9 444.5 288.2 460.5C224 446 176 388.6 176 320C176 251.4 224 194 288.2 179.5C290 195.5 303.5 208 320 208zM304 256L256 256L256 304L304 304L304 256zM304 336L256 336L256 384L304 384L304 336zM336 256L336 304L384 304L384 256L336 256zM384 336L336 336L336 384L384 384L384 336z"/></svg>