<svg xmlns="http://www.w3.org/2000/svg" viewBox="0 0 640 640"><!--! Font Awesome Pro 7.2.0 by @fontawesome - https://fontawesome.com License - https://fontawesome.com/license (Commercial License) Copyright 2026 Fonticons, Inc. --><path fill="currentColor" d="M128 252.6C128 148.4 214 64 320 64C426 64 512 148.4 512 252.6C512 403.4 320 592 320 592C320 592 128 403.4 128 252.6zM320 213.2C337.7 213.2 352 227.5 352 245.2C352 258.4 345.2 265.7 336.2 270.8C326.8 276.1 316.2 277.4 305.7 278.8C303.4 279.1 301.1 279.4 298.8 279.7L298.8 333.2L341.2 333.2L341.2 314.9C346 313.2 351.5 310.9 357 307.8C374.6 297.9 394.4 278.6 394.4 245.3C394.4 204.2 361.1 170.9 320 170.9C278.9 170.9 245.6 204.2 245.6 245.3L288 245.3C288 227.6 302.3 213.3 320 213.3zM296 360L296 408L344 408L344 360L296 360z"/></svg>