<svg xmlns="http://www.w3.org/2000/svg" viewBox="0 0 640 640"><!--! Font Awesome Pro 7.2.0 by @fontawesome - https://fontawesome.com License - https://fontawesome.com/license (Commercial License) Copyright 2026 Fonticons, Inc. --><path fill="currentColor" d="M496 0L464 0L464 64L530.7 64L467.7 127C439.3 107.5 405 96 367.9 96C270.7 96 191.9 174.8 191.9 272C191.9 358.3 254 430.1 335.9 445.1L335.9 480L271.9 480L271.9 544L335.9 544L335.9 608L399.9 608L399.9 544L463.9 544L463.9 480L399.9 480L399.9 445.1C481.8 430.1 543.9 358.3 543.9 272C543.9 235 532.5 200.6 512.9 172.2L575.9 109.2L575.9 175.9L639.9 175.9L639.9-.1L495.9-.1zM368 160C429.9 160 480 210.1 480 272C480 333.9 429.9 384 368 384C306.1 384 256 333.9 256 272C256 210.1 306.1 160 368 160zM176 32L133.8 120.5L38.4 98.3L81.3 186.4L4.4 247.2L100 268.6L99.6 366.6L150.4 325.7C146.2 308.5 143.9 290.5 143.9 272C143.9 208.3 170.5 150.9 213.1 110.1L176 32z"/></svg>