<svg xmlns="http://www.w3.org/2000/svg" viewBox="0 0 640 640"><!--! Font Awesome Pro 7.2.0 by @fontawesome - https://fontawesome.com License - https://fontawesome.com/license (Commercial License) Copyright 2026 Fonticons, Inc. --><path fill="currentColor" d="M400 0L576 0L576 176L512 176L512 109.3L449 172.3C468.5 200.7 480 235 480 272.1C480 358.4 417.9 430.2 336 445.2L336 480.1L400 480.1L400 544.1L336 544.1L336 608.1L272 608.1L272 544.1L208 544.1L208 480.1L272 480.1L272 445.2C190.1 430.2 128 358.4 128 272.1C128 174.9 206.8 96.1 304 96.1C341 96.1 375.4 107.5 403.8 127.1L466.8 64.1L400.1 64.1L400.1 .1zM416 272C416 210.1 365.9 160 304 160C242.1 160 192 210.1 192 272C192 333.9 242.1 384 304 384C365.9 384 416 333.9 416 272z"/></svg>