<svg xmlns="http://www.w3.org/2000/svg" viewBox="0 0 640 640"><!--! Font Awesome Pro 7.2.0 by @fontawesome - https://fontawesome.com License - https://fontawesome.com/license (Commercial License) Copyright 2026 Fonticons, Inc. --><path fill="currentColor" d="M576 96L512 96L512 137.1L128 246.8L128 223.9L64 223.9L64 415.9L128 415.9L128 393L198.5 413.1C194.3 423.9 192 435.6 192 447.8C192 500.8 235 543.8 288 543.8C334.9 543.8 374 510.1 382.3 465.6L512 502.6L512 543.7L576 543.7L576 95.7zM335.8 452.5C333.5 476.9 313 496 288 496C261.5 496 240 474.5 240 448C240 440.3 241.8 433 245 426.6L335.8 452.5z"/></svg>