<svg xmlns="http://www.w3.org/2000/svg" viewBox="0 0 640 640"><!--! Font Awesome Pro 7.2.0 by @fontawesome - https://fontawesome.com License - https://fontawesome.com/license (Commercial License) Copyright 2026 Fonticons, Inc. --><path fill="currentColor" d="M448 64L64 64L64 576L308 576C285.3 544.5 272 505.8 272 464C272 363.4 349.4 280.8 448 272.7L448 64zM160 192L352 192L352 240L160 240L160 192zM160 288L272 288L272 336L160 336L160 288zM160 384L240 384L240 432L160 432L160 384zM464 608C543.5 608 608 543.5 608 464C608 384.5 543.5 320 464 320C384.5 320 320 384.5 320 464C320 543.5 384.5 608 464 608zM479.3 384L479.3 416L447.3 416L447.3 384L479.3 384zM480.5 448L480.5 512L496 512L496 544L480.5 544L480 544C456 544 440 544 432 544L432 512L448 512L448.5 512L448.5 480L448 480L432 480L432 448C455.9 448 472.8 448 480.5 448z"/></svg>