<svg xmlns="http://www.w3.org/2000/svg" viewBox="0 0 640 640"><!--! Font Awesome Pro 7.2.0 by @fontawesome - https://fontawesome.com License - https://fontawesome.com/license (Commercial License) Copyright 2026 Fonticons, Inc. --><path fill="currentColor" d="M167.3 48C177.1 79.3 196.3 106.4 221.5 126.1C174.7 157.7 144 211.3 144 272C144 358.3 206.1 430.1 288 445.1L288 480L224 480L224 544L288 544L288 608L352 608L352 544L416 544L416 480L352 480L352 445.1C433.9 430.1 496 358.3 496 272C496 211.3 465.3 157.7 418.5 126.1C443.7 106.4 462.9 79.3 472.7 48L403.2 48C386.6 76.7 355.5 96 320 96C284.5 96 253.4 76.7 236.8 48L167.3 48zM320 160C381.9 160 432 210.1 432 272C432 333.9 381.9 384 320 384C258.1 384 208 333.9 208 272C208 210.1 258.1 160 320 160z"/></svg>