<svg xmlns="http://www.w3.org/2000/svg" viewBox="0 0 640 640"><!--! Font Awesome Pro 7.2.0 by @fontawesome - https://fontawesome.com License - https://fontawesome.com/license (Commercial License) Copyright 2026 Fonticons, Inc. --><path fill="currentColor" d="M576 128L64 128L64 512L576 512L576 128zM320 224C373 224 416 267 416 320C416 373 373 416 320 416C267 416 224 373 224 320C224 267 267 224 320 224zM512 256C476.7 256 448 227.3 448 192L512 192L512 256zM128 384C163.3 384 192 412.7 192 448L128 448L128 384zM192 192C192 227.3 163.3 256 128 256L128 192L192 192zM448 448C448 412.7 476.7 384 512 384L512 448L448 448z"/></svg>