<svg xmlns="http://www.w3.org/2000/svg" viewBox="0 0 640 640"><!--! Font Awesome Pro 7.2.0 by @fontawesome - https://fontawesome.com License - https://fontawesome.com/license (Commercial License) Copyright 2026 Fonticons, Inc. --><path fill="currentColor" d="M608 96L128 96L128 448L608 448L608 96zM368 192C412.2 192 448 227.8 448 272C448 316.2 412.2 352 368 352C323.8 352 288 316.2 288 272C288 227.8 323.8 192 368 192zM192 224L192 160L256 160C256 195.3 227.3 224 192 224zM192 320C227.3 320 256 348.7 256 384L192 384L192 320zM480 160L544 160L544 224C508.7 224 480 195.3 480 160zM544 320L544 384L480 384C480 348.7 508.7 320 544 320zM80 216L80 192L32 192L32 544L512 544L512 496L80 496L80 216z"/></svg>