<svg xmlns="http://www.w3.org/2000/svg" viewBox="0 0 640 640"><!--! Font Awesome Pro 7.2.0 by @fontawesome - https://fontawesome.com License - https://fontawesome.com/license (Commercial License) Copyright 2026 Fonticons, Inc. --><path fill="currentColor" d="M544 72L544 197.8L496 197.8L496 129.9L369 256.9L353.3 272.6L336.4 258.1L240 175.5L143.6 258.1L125.4 273.7L94.2 237.3L112.4 221.7L224.4 125.7L240 112.3L255.6 125.7L350.7 207.2L462 95.9L394.1 95.9L394.1 47.9L543.9 47.9L543.9 71.9zM64 320L576 320L576 576L64 576L64 320zM112 480L112 528L160 528C160 501.5 138.5 480 112 480zM160 368L112 368L112 416C138.5 416 160 394.5 160 368zM528 480C501.5 480 480 501.5 480 528L528 528L528 480zM480 368C480 394.5 501.5 416 528 416L528 368L480 368zM384 448C384 412.7 355.3 384 320 384C284.7 384 256 412.7 256 448C256 483.3 284.7 512 320 512C355.3 512 384 483.3 384 448z"/></svg>