<svg xmlns="http://www.w3.org/2000/svg" viewBox="0 0 640 640"><!--! Font Awesome Pro 7.2.0 by @fontawesome - https://fontawesome.com License - https://fontawesome.com/license (Commercial License) Copyright 2026 Fonticons, Inc. --><path fill="currentColor" d="M520.1 85.9C433 107.5 368.4 186.2 368.4 280C368.4 390.5 457.9 480 568.4 480C586.9 480 604.8 477.5 621.8 472.8C575.1 535.4 500.5 576 416.4 576C405.6 576 394.9 575.3 384.4 574L384.4 480C384.4 429.9 351.5 387.5 306.1 373.2C284.8 332.1 241.9 304 192.4 304C181.4 304 170.8 305.4 160.7 308C167 172.2 279.1 64 416.4 64C453.3 64 488.4 71.8 520.1 85.9zM272.4 544L32.4 544L32.4 472C32.4 432.2 64.6 400 104.4 400C109.2 400 113.9 400.5 118.5 401.4C130.5 372.4 159.1 352 192.4 352C231.1 352 263.4 379.5 270.8 416C271.3 416 271.9 416 272.4 416C307.7 416 336.4 444.7 336.4 480L336.4 544L272.4 544z"/></svg>