<svg xmlns="http://www.w3.org/2000/svg" viewBox="0 0 640 640"><!--! Font Awesome Pro 7.2.0 by @fontawesome - https://fontawesome.com License - https://fontawesome.com/license (Commercial License) Copyright 2026 Fonticons, Inc. --><path fill="currentColor" d="M504 456L552 456L552 416L600 416L600 456L640 456L640 504L600 504L600 552L640 552L640 600L600 600L600 640L552 640L552 600L504 600L504 640L456 640L456 600L416 600L416 552L456 552L456 504L416 504L416 456L456 456L456 416L504 416L504 456zM480.9 89.7C474 100 461 119.6 441.6 148.7L454.9 202.1L458.7 217L447.2 226.9L402.5 265.2L532.9 279.7C575.7 284.5 608 320.6 608 363.6C608 365.1 607.9 366.5 607.8 368L408 368L408 408L360.2 408L352 397.1L352 503.8L288 503.8L288 397.2L255.7 440.2L255.7 487.2L251.9 493.2L211.9 557.2L199.2 577.7L159.4 551.4C164 544 180.4 517.8 208.4 472.9L208.4 431.9L208.4 423.6L213.3 417L252.6 364.8L186.4 424.3C169.4 439.6 147.4 448 124.5 448.1L116.4 448.1C69.8 448.1 32 410.3 32 363.7C32 320.7 64.4 284.5 107.1 279.8L237.6 265.3C202.2 235 183.5 219 181.4 217.1L185.2 202.2L198.5 148.8C179.1 119.8 166 100.1 159.2 89.8L198.2 62.3C204 71 219.1 93.7 243.5 130.4L249.6 139.5L246.9 150.2L234.6 199.4L287.9 245.1L287.9 184.3L303.9 184.3L303.9 112.1L335.9 112.1L335.9 184.3L351.9 184.3L351.9 245.2L405.3 199.4L393 150.2L390.3 139.5L396.4 130.4C420.9 93.6 436 70.9 441.8 62.2L480.8 89.7zM504 552L552 552L552 504L504 504L504 552z"/></svg>