<svg xmlns="http://www.w3.org/2000/svg" viewBox="0 0 640 640"><!--! Font Awesome Pro 7.2.0 by @fontawesome - https://fontawesome.com License - https://fontawesome.com/license (Commercial License) Copyright 2026 Fonticons, Inc. --><path fill="currentColor" d="M208 48L160 48L160 72C160 110.9 183.4 131.4 199.1 145.1L200.2 146.1C216.5 160.3 224 167.9 224 184L224 208L272 208L272 184C272 145.1 248.6 124.6 232.9 110.9L231.8 109.9C215.5 95.7 208 88.1 208 72L208 48zM416 256L96 256L96 576L480 576L480 512C550.7 512 608 454.7 608 384C608 313.3 550.7 256 480 256L416 256zM480 448L480 320C515.3 320 544 348.7 544 384C544 419.3 515.3 448 480 448zM320 72L320 48L272 48L272 72C272 110.9 295.4 131.4 311.1 145.1L312.2 146.1C328.5 160.3 336 167.9 336 184L336 208L384 208L384 184C384 145.1 360.6 124.6 344.9 110.9L343.8 109.9C327.5 95.7 320 88.1 320 72z"/></svg>