<svg xmlns="http://www.w3.org/2000/svg" viewBox="0 0 640 640"><!--! Font Awesome Pro 7.2.0 by @fontawesome - https://fontawesome.com License - https://fontawesome.com/license (Commercial License) Copyright 2026 Fonticons, Inc. --><path fill="currentColor" d="M192 96L160 96L160 320L104 320L104 368L160 368L160 544L224 544L224 368L312.7 368L415.7 529.2L425.1 544L480 544L480 368L536 368L536 320L480 320L480 96L416 96L416 320L358 320L224.3 110.8L214.9 96L192 96zM388.6 368L416 368L416 410.8L388.6 368zM282 320L224 320L224 229.2L282 320z"/></svg>