<svg xmlns="http://www.w3.org/2000/svg" viewBox="0 0 640 640"><!--! Font Awesome Pro 7.2.0 by @fontawesome - https://fontawesome.com License - https://fontawesome.com/license (Commercial License) Copyright 2026 Fonticons, Inc. --><path fill="currentColor" d="M360 152L360 200L280 200L280 152L360 152zM280 96L224 96L224 256L288 256L288 288L32 288L32 352L160 352L160 384L96 384L96 544L288 544L288 384L224 384L224 352L416 352L416 384L352 384L352 544L544 544L544 384L480 384L480 352L608 352L608 288L352 288L352 256L416 256L416 96L280 96zM152 440L232 440L232 488L152 488L152 440zM488 440L488 488L408 488L408 440L488 440z"/></svg>