<svg xmlns="http://www.w3.org/2000/svg" viewBox="0 0 640 640"><!--! Font Awesome Pro 7.2.0 by @fontawesome - https://fontawesome.com License - https://fontawesome.com/license (Commercial License) Copyright 2026 Fonticons, Inc. --><path fill="currentColor" d="M64.4 96L512.4 96L512.4 276.1C493.8 261.4 472.1 250.6 448.4 244.8L448.4 159.9L264.4 159.9L264.4 278.3C250.1 286.6 240.4 302.1 240.4 319.9C240.4 331.2 244.3 341.5 250.8 349.7C244.1 367.9 240.4 387.5 240.4 408C240.4 416.1 241 424.1 242.1 431.9L176.4 431.9L176.4 207.9L216.4 207.9L216.4 159.9L128.4 159.9L128.4 479.9L256.5 479.9C268.6 505.4 287 527.4 309.6 543.9L64.4 543.9L64.4 95.9zM400.4 208L400.4 240.3C367.8 241.8 337.6 252.7 312.4 270.2L312.4 208L400.4 208zM408.4 480.1C448.2 480.1 480.4 447.9 480.4 408.1C480.4 368.3 448.2 336.1 408.4 336.1C368.6 336.1 336.4 368.3 336.4 408.1C336.4 447.9 368.6 480.1 408.4 480.1zM408.4 528.1C342.1 528.1 288.4 474.4 288.4 408.1C288.4 341.8 342.1 288.1 408.4 288.1C474.7 288.1 528.4 341.8 528.4 408.1C528.4 432.6 521.1 455.3 508.5 474.3C556.4 522.2 582.3 548.1 586.3 552.1L552.4 586C548.4 582 522.5 556.1 474.6 508.2C455.6 520.8 432.9 528.1 408.4 528.1z"/></svg>