<svg xmlns="http://www.w3.org/2000/svg" viewBox="0 0 640 640"><!--! Font Awesome Pro 7.2.0 by @fontawesome - https://fontawesome.com License - https://fontawesome.com/license (Commercial License) Copyright 2026 Fonticons, Inc. --><path fill="currentColor" d="M621.7 128L576.4 173.3L544.4 141.3L349.3 336.3L336.1 435.2L335 443.3L152.3 626L14.4 488.1L197.1 305.4L205.1 304.3L304 291.1L499 96.1L467 64.1L512.2 18.9L621.5 128.1zM626.4 488L488.5 625.9L354.4 491.9C364.7 481.5 373.5 472.8 380.6 465.7C382.2 453.6 383.3 445.5 383.8 441.5L394.8 358.7L445.9 307.6L626.3 488zM173.7 64L141.7 96L286.5 240.8L281.7 245.6L210.3 255.1L96.5 141.3L64.5 173.3L19.3 128L128.5 18.8L173.8 64z"/></svg>