<svg xmlns="http://www.w3.org/2000/svg" viewBox="0 0 640 640"><!--! Font Awesome Pro 7.2.0 by @fontawesome - https://fontawesome.com License - https://fontawesome.com/license (Commercial License) Copyright 2026 Fonticons, Inc. --><path fill="currentColor" d="M328.8 184.8L192 48L48 192L165.7 309.7C179.2 306 193.4 304 208 304L209.6 304C212.7 300.9 252.4 261.2 328.8 184.8zM362.3 506.3L392 536L592 592L536 392L487.2 343.2C410.8 419.6 371.1 459.3 368 462.4L368 464C368 478.7 366 492.9 362.3 506.3zM396.6 252.6L343.3 306C351.4 313 359 320.5 365.9 328.6L419.3 275.2L396.7 252.6zM557.2 205.2L602.5 160L512 69.5C507.7 73.8 425.8 155.7 266.5 315C307.8 331.2 340.8 364.2 357 405.5L557.3 205.3zM208 576C269.9 576 320 525.9 320 464C320 402.1 269.9 352 208 352C146.1 352 96 402.1 96 464L96 512L32 512L32 576L208 576z"/></svg>