<svg xmlns="http://www.w3.org/2000/svg" viewBox="0 0 640 640"><!--! Font Awesome Pro 7.2.0 by @fontawesome - https://fontawesome.com License - https://fontawesome.com/license (Commercial License) Copyright 2026 Fonticons, Inc. --><path fill="currentColor" d="M64 64L64 320L320 320L320 64L64 64zM64 384L32 384L32 448L96 448L96 512L32 512L32 576L608 576L608 512L544 512L544 448L608 448L608 384L64 384zM160 448L288 448L288 512L160 512L160 448zM352 448L480 448L480 512L352 512L352 448zM576 128L384 128L384 320L576 320L576 128z"/></svg>