<svg xmlns="http://www.w3.org/2000/svg" viewBox="0 0 640 640"><!--! Font Awesome Pro 7.2.0 by @fontawesome - https://fontawesome.com License - https://fontawesome.com/license (Commercial License) Copyright 2026 Fonticons, Inc. --><path fill="currentColor" d="M320 256C406.2 256 480.1 235.9 511.7 207.1C521.9 197.8 527.7 187.6 528 176.9C528 176.6 528 176.3 528 175.9C528 131.7 434.9 95.9 320 95.9C205.1 95.9 112 131.8 112 176C112 176.3 112 176.6 112 177C112.2 183.7 114.6 190.3 118.9 196.5C125.8 206.6 137.8 215.9 153.6 224C160.9 227.7 168.9 231.2 177.7 234.3C179.2 234.8 180.7 235.4 182.3 235.9C190.3 238.6 199 241.1 208 243.4L208 440L256 440L256 252.1C268.9 253.7 282.4 254.8 296.3 255.4C304.1 255.7 312 255.9 320 255.9zM320 304C314.6 304 309.3 303.9 304 303.8L304 351.8C309.3 351.9 314.6 352 320 352C452.5 352 560 317.9 560 240C560 235.3 559.6 230.7 558.8 226.3C554.2 232.5 549.1 238 543.9 242.7C527.4 257.7 506.3 268.9 484.3 277.4C439.9 294.5 381.8 304 320 304zM160.5 279.2C158.9 278.6 157.3 278 155.7 277.4C133.7 268.9 112.5 257.6 96.1 242.7C90.9 238 85.8 232.5 81.2 226.3C80.4 230.7 80 235.3 80 240C80 281.8 110.9 310.9 160 329L160 288C160 285 160.2 282.1 160.5 279.2zM160 379.6C150.1 376.6 140.7 373.2 131.7 369.4C113.4 361.7 95.5 351.6 80.1 338.7C80.7 355.9 86.6 371 97 383.9L97 383.9C110.9 401.2 132.6 414.8 160.1 424.9L160.1 379.5zM304 447.8C309.3 447.9 314.6 448 320 448C421.2 448 507.8 428.1 543.1 384L543.1 384C553.5 371 559.4 356 560 338.8C544.6 351.6 526.7 361.7 508.4 369.5C456.6 391.3 389.4 400.1 320.1 400.1C314.8 400.1 309.4 400 304.1 399.9L304.1 447.9zM320 496C250.7 496 183.5 487.2 131.7 465.4C113.4 457.7 95.5 447.6 80.1 434.7C82.6 510.6 189.1 543.9 320.1 543.9C451.1 543.9 557.5 510.6 560.1 434.7C544.7 447.5 526.8 457.6 508.5 465.4C456.7 487.2 389.5 496 320.2 496zM280 144L384 144L384 192L256 192L256 144L280 144z"/></svg>