<svg xmlns="http://www.w3.org/2000/svg" viewBox="0 0 640 640"><!--! Font Awesome Pro 7.2.0 by @fontawesome - https://fontawesome.com License - https://fontawesome.com/license (Commercial License) Copyright 2026 Fonticons, Inc. --><path fill="currentColor" d="M60.4 177.5L32 172.2L32 270.5C32.4 270.7 57.4 283.8 107 309.6C179 347.2 232.4 412.6 254.7 490.7C262.4 517.6 267.5 535.4 269.9 543.9L370.1 543.9C372.5 535.4 377.6 517.6 385.3 490.7C407.6 412.6 461 347.1 533 309.6C582.6 283.7 607.6 270.7 608 270.5L608 172.1L579.6 177.5C504.1 191.8 415.3 200 320 200C224.7 200 135.9 191.8 60.4 177.5z"/></svg>