<svg xmlns="http://www.w3.org/2000/svg" viewBox="0 0 640 640"><!--! Font Awesome Pro 7.2.0 by @fontawesome - https://fontawesome.com License - https://fontawesome.com/license (Commercial License) Copyright 2026 Fonticons, Inc. --><path fill="currentColor" d="M248.3 64C182 64 128.3 117.7 128.3 184C128.3 250.3 182 304 248.3 304L288.3 304L288.3 416L352.3 416L352.3 128L400.3 128L400.3 416L464.3 416L464.3 128L512.3 128L512.3 64L248.3 64zM246.9 470.6L269.5 448L224.2 402.7C216 410.9 187.1 439.8 137.6 489.3L115 512C123.2 520.2 152.1 549.1 201.6 598.6L224.2 621.2L269.5 575.9L237.5 543.9L512.2 543.9L512.2 479.9L237.5 479.9L246.9 470.5z"/></svg>