<svg xmlns="http://www.w3.org/2000/svg" viewBox="0 0 640 640"><!--! Font Awesome Pro 7.2.0 by @fontawesome - https://fontawesome.com License - https://fontawesome.com/license (Commercial License) Copyright 2026 Fonticons, Inc. --><path fill="currentColor" d="M192 288C192 216.2 208.3 152.4 233.5 107.4C259.1 61.6 290.6 40 320 40C349.4 40 380.9 61.6 406.5 107.4C431.7 152.4 448 216.2 448 288L344 288L344 384L384.5 384L496.5 288L496 288C496 209.6 478.3 137.4 448.4 84C442.3 73 435.5 62.6 428.2 53.1C514.7 88.9 576 168.2 576 272L576 283L567.6 290.2L416 420.2L416 576L224 576L224 420.2L72.4 290.2L64 283L64 272C64 168.2 125.3 88.9 211.8 53.1C204.5 62.6 197.7 73 191.6 84C161.7 137.4 144 209.6 144 288L143.5 288L255.5 384L296 384L296 288L192 288z"/></svg>