<svg xmlns="http://www.w3.org/2000/svg" viewBox="0 0 640 640"><!--! Font Awesome Pro 7.2.0 by @fontawesome - https://fontawesome.com License - https://fontawesome.com/license (Commercial License) Copyright 2026 Fonticons, Inc. --><path fill="currentColor" d="M512 320C512 214 426 128 320 128C214 128 128 214 128 320C128 426 214 512 320 512C426 512 512 426 512 320zM64 320C64 178.6 178.6 64 320 64C461.4 64 576 178.6 576 320C576 461.4 461.4 576 320 576C178.6 576 64 461.4 64 320zM264 192L344 192C397 192 440 235 440 288C440 341 397 384 344 384L296 384L296 448L232 448L232 192L264 192zM376 288C376 270.3 361.7 256 344 256L296 256L296 320L344 320C361.7 320 376 305.7 376 288z"/></svg>