<svg xmlns="http://www.w3.org/2000/svg" viewBox="0 0 640 640"><!--! Font Awesome Pro 7.2.0 by @fontawesome - https://fontawesome.com License - https://fontawesome.com/license (Commercial License) Copyright 2026 Fonticons, Inc. --><path fill="currentColor" d="M408 144C376.5 144 346.6 151.3 320 164.4C293.4 151.4 263.5 144 232 144C222 144 212.1 144.7 202.4 146.2C186 129 176 105.7 176 80L176 64L224 64C277 64 320 107 320 160C320 107 363 64 416 64L464 64L464 80C464 105.6 453.9 128.9 437.6 146.2C428 144.8 418.1 144 408 144zM232 176C263.9 176 293.7 184.9 319.1 200.3L320 200.8C368 230.4 400 283.4 400 343.9L432 343.9C432 279.1 401.2 221.5 353.4 185C370.5 179.1 388.9 175.9 408 175.9C500.8 175.9 576 251.1 576 343.9C576 495.9 320 575.9 320 575.9C320 575.9 64 496 64 344C64 251.2 139.2 176 232 176z"/></svg>