<svg xmlns="http://www.w3.org/2000/svg" viewBox="0 0 640 640"><!--! Font Awesome Pro 7.2.0 by @fontawesome - https://fontawesome.com License - https://fontawesome.com/license (Commercial License) Copyright 2026 Fonticons, Inc. --><path fill="currentColor" d="M64 426.9L64 576L205.7 576C248.1 576 288.8 559.1 318.8 529.1L331.7 516.2C355.3 492.6 370.9 462.3 376.4 429.4L384 384L424.4 377.3C460.6 371.3 494 354.1 519.9 328.1L524.5 323.5C557.5 290.5 576 245.7 576 199L576 64L440.9 64C394.2 64 349.5 82.5 316.4 115.5L311.8 120.1C285.9 146 268.7 179.4 262.6 215.6L255.9 256L202.7 264.9C174.7 269.6 148.4 281.6 126.6 299.8L121.6 304C85.1 334.4 64 379.5 64 426.9zM480 172.8C490.6 172.8 499.2 181.4 499.2 192C499.2 202.6 490.6 211.2 480 211.2C469.4 211.2 460.8 202.6 460.8 192C460.8 181.4 469.4 172.8 480 172.8zM480 236.8C490.6 236.8 499.2 245.4 499.2 256C499.2 266.6 490.6 275.2 480 275.2C469.4 275.2 460.8 266.6 460.8 256C460.8 245.4 469.4 236.8 480 236.8zM416 236.8C426.6 236.8 435.2 245.4 435.2 256C435.2 266.6 426.6 275.2 416 275.2C405.4 275.2 396.8 266.6 396.8 256C396.8 245.4 405.4 236.8 416 236.8zM192 460.8C202.6 460.8 211.2 469.4 211.2 480C211.2 490.6 202.6 499.2 192 499.2C181.4 499.2 172.8 490.6 172.8 480C172.8 469.4 181.4 460.8 192 460.8zM236.8 480C236.8 469.4 245.4 460.8 256 460.8C266.6 460.8 275.2 469.4 275.2 480C275.2 490.6 266.6 499.2 256 499.2C245.4 499.2 236.8 490.6 236.8 480zM236.8 416C236.8 405.4 245.4 396.8 256 396.8C266.6 396.8 275.2 405.4 275.2 416C275.2 426.6 266.6 435.2 256 435.2C245.4 435.2 236.8 426.6 236.8 416zM608 282.3C596.8 310.2 580.1 335.8 558.4 357.5L553.8 362.1C520.8 395.1 478.3 417 432.2 424.7L425.7 425.8L423.8 437.4C416.7 480.2 396.4 519.6 365.7 550.3L352.8 563.2C333.4 582.6 310.6 597.8 285.7 608.1L330.3 608.1C362.1 608.1 392.6 595.5 415.2 573L424.9 563.3C442.6 545.6 454.3 522.8 458.4 498.2L464.1 464.1L494.4 459.1C521.5 454.6 546.6 441.7 566 422.2L569.4 418.8C594.2 394 608.1 360.5 608.1 325.5L608.1 284.2C608.1 283.6 608.1 283.1 608.1 282.5z"/></svg>