<svg xmlns="http://www.w3.org/2000/svg" viewBox="0 0 640 640"><!--! Font Awesome Pro 7.2.0 by @fontawesome - https://fontawesome.com License - https://fontawesome.com/license (Commercial License) Copyright 2026 Fonticons, Inc. --><path fill="currentColor" d="M512 64L128 64L128 512L96 512L96 576L544 576L544 512L512 512L512 64zM224 136C237.3 136 248 146.7 248 160C248 173.3 237.3 184 224 184C210.7 184 200 173.3 200 160C200 146.7 210.7 136 224 136zM392 160C392 146.7 402.7 136 416 136C429.3 136 440 146.7 440 160C440 173.3 429.3 184 416 184C402.7 184 392 173.3 392 160z"/></svg>