<svg xmlns="http://www.w3.org/2000/svg" viewBox="0 0 640 640"><!--! Font Awesome Pro 7.2.0 by @fontawesome - https://fontawesome.com License - https://fontawesome.com/license (Commercial License) Copyright 2026 Fonticons, Inc. --><path fill="currentColor" d="M81.3 47.1L64.3 30.1L30.4 64L47.4 81L559.4 593L576.4 610L610.3 576.1L593.3 559.1L440.7 406.5L477.7 295.5L344.7 162.5L233.7 199.5L81.3 47.1zM303 404.7C294.6 411.7 283.9 416 272.1 416C267.8 416 263.6 415.4 259.7 414.4L113.1 561L128.1 576L387.8 489.5L303 404.7zM150.7 252.4L64.1 512L79.2 527L225.8 380.4C224.7 376.4 224.2 372.3 224.2 368C224.2 356.2 228.4 345.4 235.5 337.1L150.8 252.4zM381.1 131L509.1 259L608.1 160L480.1 32L381.1 131z"/></svg>