<svg xmlns="http://www.w3.org/2000/svg" viewBox="0 0 640 640"><!--! Font Awesome Pro 7.2.0 by @fontawesome - https://fontawesome.com License - https://fontawesome.com/license (Commercial License) Copyright 2026 Fonticons, Inc. --><path fill="currentColor" d="M104 392L48 592L248 536L471 313L327 169L104 392zM592 192L448 48L361 135L505 279L592 192zM141.3 82.7C116.3 57.7 75.8 57.7 50.8 82.7C25.8 107.7 25.8 148.2 50.8 173.2L152.9 275.3L243.4 184.8L141.3 82.7zM432 576L608 576L608 512L544 512L544 464C544 421.7 520.6 384.9 486 365.9L333.9 518C353 552.6 389.8 576 432 576z"/></svg>