<svg xmlns="http://www.w3.org/2000/svg" viewBox="0 0 640 640"><!--! Font Awesome Pro 7.2.0 by @fontawesome - https://fontawesome.com License - https://fontawesome.com/license (Commercial License) Copyright 2026 Fonticons, Inc. --><path fill="currentColor" d="M160 112C160 85.5 138.5 64 112 64C85.5 64 64 85.5 64 112C64 138.5 85.5 160 112 160C138.5 160 160 138.5 160 112zM170.8 416L200.6 550.1L204.5 573.3L205 576L269.9 576C268.7 568.9 266.7 556.5 263.7 538.7C263.6 538.1 263.5 537.6 263.4 537L206.3 280.8C297 325.3 346.8 349.7 355.7 354.1C362.8 330.5 370.4 305.6 378.4 279.3C395 271.9 407.1 266.6 414.6 263.2L397.6 326.8C392 347.9 397.5 370.4 412.3 386.5L483.2 463.9C500.1 525.9 510.2 563 513.6 575.3L575.3 558.5L542.9 439.6L540.9 432.1L535.7 426.4L483.4 369.4L501.8 307C512.4 328.2 518.6 340.6 520.3 343.9L529.8 348.7L577.8 372.7L606.4 315.5L567.9 296.3L532.7 225.8L525.7 211.8L510.4 208.7L430.4 192.7L420.4 190.7C273.6 256 344.6 224.4 325.7 232.8L321.6 246.4L315.9 263.4L177.2 195.4L170.5 192.1L32 192.1L32 416.1L90.2 416.1L116.4 573.4L116.9 576.1L181.8 576.1L179.6 562.8L155.1 416.1L170.8 416.1zM496 160C522.5 160 544 138.5 544 112C544 85.5 522.5 64 496 64C469.5 64 448 85.5 448 112C448 138.5 469.5 160 496 160zM381.7 399.6L356.7 462C324.3 494.4 302.3 516.4 290.7 528L336 573.3L411.3 498L413.7 491.9L429.4 452.6L388.7 408.2C386.2 405.5 383.9 402.6 381.7 399.6z"/></svg>