<svg xmlns="http://www.w3.org/2000/svg" viewBox="0 0 640 640"><!--! Font Awesome Pro 7.2.0 by @fontawesome - https://fontawesome.com License - https://fontawesome.com/license (Commercial License) Copyright 2026 Fonticons, Inc. --><path fill="currentColor" d="M320 64C355.3 64 384 92.7 384 128C384 163.3 355.3 192 320 192C284.7 192 256 163.3 256 128C256 92.7 284.7 64 320 64zM384 448L384 480L256 480L256 448L224 448L224 336C224 283 267 240 320 240C373 240 416 283 416 336L416 448L384 448zM176 448L176 480L96 480L96 448L64 448L64 352C64 299 107 256 160 256C172.7 256 184.8 258.5 195.9 262.9C183.3 284.3 176 309.3 176 336L176 448zM464 480L464 336C464 309.3 456.7 284.4 444.1 262.9C455.2 258.4 467.3 256 480 256C533 256 576 299 576 352L576 448L544 448L544 480L464 480zM160 96C190.9 96 216 121.1 216 152C216 182.9 190.9 208 160 208C129.1 208 104 182.9 104 152C104 121.1 129.1 96 160 96zM480 96C510.9 96 536 121.1 536 152C536 182.9 510.9 208 480 208C449.1 208 424 182.9 424 152C424 121.1 449.1 96 480 96zM56 528L608 528L608 576L32 576L32 528L56 528z"/></svg>