<svg xmlns="http://www.w3.org/2000/svg" viewBox="0 0 640 640"><!--! Font Awesome Pro 7.2.0 by @fontawesome - https://fontawesome.com License - https://fontawesome.com/license (Commercial License) Copyright 2026 Fonticons, Inc. --><path fill="currentColor" d="M208 64L208 32L144 32L144 256L240 256L240 608L304 608L304 416L336 416L336 608L400 608L400 256L496 256L496 32L432 32L432 192L208 192L208 64zM320 144C350.9 144 376 118.9 376 88C376 57.1 350.9 32 320 32C289.1 32 264 57.1 264 88C264 118.9 289.1 144 320 144z"/></svg>