<svg xmlns="http://www.w3.org/2000/svg" viewBox="0 0 640 640"><!--! Font Awesome Pro 7.2.0 by @fontawesome - https://fontawesome.com License - https://fontawesome.com/license (Commercial License) Copyright 2026 Fonticons, Inc. --><path fill="currentColor" d="M256.1 32C287 32 312.1 57.1 312.1 88C312.1 118.9 287 144 256.1 144C225.2 144 200.1 118.9 200.1 88C200.1 57.1 225.2 32 256.1 32zM192.1 269.3L160.1 301.3L160.1 384L96.1 384L96.1 274.7L105.5 265.3L185.5 185.3L194.9 175.9L302.8 175.9L312.4 186.9L416.4 306.9L428.4 320.7L421 326.2L382.6 355L377 359.2L368 348.8L304.2 275.2L304.2 394.3L357 439.6L366 447.3L367.8 459C380.3 540.4 387.3 585.6 388.7 594.6L325.4 604.3C323.7 593.3 317.4 552 306.3 480.4L225.6 411.3C204.3 393.1 192.1 366.4 192.1 338.4L192.1 269.1zM192.2 435.1C194.6 437.4 197 439.7 199.6 441.9L245.6 481.3C240.4 499.6 237.4 510.1 236.6 512.8L230.7 518.7L144.1 605.3L98.8 560C108 550.8 134.9 523.9 179.6 479.2L192.2 435zM445.1 358.5L459.4 377.8L595.4 561.8L609.7 581.1L571.1 609.6L556.8 590.3L420.8 406.3L406.5 387L445.1 358.5z"/></svg>