<svg xmlns="http://www.w3.org/2000/svg" viewBox="0 0 640 640"><!--! Font Awesome Pro 7.2.0 by @fontawesome - https://fontawesome.com License - https://fontawesome.com/license (Commercial License) Copyright 2026 Fonticons, Inc. --><path fill="currentColor" d="M248.4 88C248.4 57.1 223.3 32 192.4 32C161.5 32 136.4 57.1 136.4 88C136.4 118.9 161.5 144 192.4 144C223.3 144 248.4 118.9 248.4 88zM144.4 176L131.1 176L121.7 185.4L41.7 265.4L32.3 274.8L32.3 384.1L96.3 384.1L96.3 301.4L128.3 269.4L128.3 338.7C128.3 366.7 140.5 393.4 161.8 411.6L242.5 480.7C253.5 552.3 259.9 593.6 261.6 604.6L324.9 594.9C323.5 585.9 316.6 540.7 304 459.3L302.2 447.6L293.2 439.9L240.4 394.6L240.4 279.4C258 301.4 268.8 315 273 320.2L384.4 320.2L384.4 256.2L303.8 256.2L249.4 188.2L239.8 176.2L144.4 176.2zM128.6 435L116 479.2C71.3 523.9 44.4 550.8 35.2 560L80.5 605.3L167.1 518.7L173 512.8C173.8 510.1 176.8 499.6 182 481.3L136 441.9C133.5 439.7 131 437.5 128.6 435.1zM609.4 337L626.4 320C624.3 317.9 594.6 288.2 537.4 231L520.4 214L486.5 247.9C495.5 256.9 511.5 272.9 534.5 295.9L408.4 295.9L408.4 343.9L534.5 343.9C511.5 366.9 495.5 382.9 486.5 391.9L520.4 425.8C522.5 423.7 552.2 394 609.4 336.8z"/></svg>