<svg xmlns="http://www.w3.org/2000/svg" viewBox="0 0 640 640"><!--! Font Awesome Pro 7.2.0 by @fontawesome - https://fontawesome.com License - https://fontawesome.com/license (Commercial License) Copyright 2026 Fonticons, Inc. --><path fill="currentColor" d="M192 144C222.9 144 248 118.9 248 88C248 57.1 222.9 32 192 32C161.1 32 136 57.1 136 88C136 118.9 161.1 144 192 144zM112 608L176 608L176 400L208 400L208 608L272 608L272 240L432 240L432 176L384 176L384 128L576 128L576 320L384 320L384 288L320 288L320 384L640 384L640 64L320 64L320 176L125 176L115.4 188.7L6.5 332.7L57.5 371.3L112 299.3L112 608z"/></svg>