<svg xmlns="http://www.w3.org/2000/svg" viewBox="0 0 640 640"><!--! Font Awesome Pro 7.2.0 by @fontawesome - https://fontawesome.com License - https://fontawesome.com/license (Commercial License) Copyright 2026 Fonticons, Inc. --><path fill="currentColor" d="M240 192C270.9 192 296 166.9 296 136C296 105.1 270.9 80 240 80C209.1 80 184 105.1 184 136C184 166.9 209.1 192 240 192zM224 240L192 240L192 384C192 419.3 220.7 448 256 448L352 448L352 576L464 576L464 512L416 512L416 384L296 384L296 240L224 240zM144 224L80 224L80 560L304 560L304 496L144 496L144 224zM544 96L384 96L384 320L544 320L544 96z"/></svg>