<svg xmlns="http://www.w3.org/2000/svg" viewBox="0 0 640 640"><!--! Font Awesome Pro 7.2.0 by @fontawesome - https://fontawesome.com License - https://fontawesome.com/license (Commercial License) Copyright 2026 Fonticons, Inc. --><path fill="currentColor" d="M480.1 64L480.1 32L416.1 32L416.1 158.5L232.9 200.8L220 203.8L213 215C149.1 317.2 116.8 368.9 116 370.2L170.3 404.1C175.6 395.6 198.9 358.3 240.1 292.4L240.1 608L304.1 608L304.1 416L336.1 416L336.1 608L400.1 608L400.1 227.9C442 218.2 468.6 212.1 480.1 209.4L480.1 64zM320.1 144C351 144 376.1 118.9 376.1 88C376.1 57.1 351 32 320.1 32C289.2 32 264.1 57.1 264.1 88C264.1 118.9 289.2 144 320.1 144z"/></svg>