<svg xmlns="http://www.w3.org/2000/svg" viewBox="0 0 640 640"><!--! Font Awesome Pro 7.2.0 by @fontawesome - https://fontawesome.com License - https://fontawesome.com/license (Commercial License) Copyright 2026 Fonticons, Inc. --><path fill="currentColor" d="M352 32C382.9 32 408 57.1 408 88C408 118.9 382.9 144 352 144C321.1 144 296 118.9 296 88C296 57.1 321.1 32 352 32zM170.4 176L307.3 176C341.4 176 373 194.1 390.2 223.6L418.4 272L512 272L512 336L381.6 336C377.1 328.3 367.6 312 353.1 287.2L332.4 357.6C403.9 379.1 446.4 391.8 460 395.9C458.4 399.6 432.1 458.7 381.2 573.1L368.2 602.3L309.7 576.3C312.3 570.4 333.1 523.7 371.9 436.3L276 407.5C243.3 397.7 224 363.8 232.3 330.7L255 240.1L213.6 240.1C195.6 285.1 183.7 314.9 177.8 329.7L118.5 305.8C123.1 294.4 137.7 257.8 162.4 196.1L170.4 176zM211.2 421C224.5 435.9 241.9 447.3 262.4 453.4L267.1 454.8C256.9 483.4 251.6 498.1 251.3 499.1L244.5 504.7C168.6 567.3 128.4 600.4 123.8 604.2L83 554.8C88.7 550.1 126.7 518.8 196.9 460.9L211.2 420.9z"/></svg>