<svg xmlns="http://www.w3.org/2000/svg" viewBox="0 0 640 640"><!--! Font Awesome Pro 7.2.0 by @fontawesome - https://fontawesome.com License - https://fontawesome.com/license (Commercial License) Copyright 2026 Fonticons, Inc. --><path fill="currentColor" d="M200.5 136C200.5 105.1 225.6 80 256.5 80C287.4 80 312.5 105.1 312.5 136C312.5 166.9 287.4 192 256.5 192C225.6 192 200.5 166.9 200.5 136zM217.5 224L322.8 224L327.9 249.7L354.8 384L470.7 384L478.5 404.8L515.7 503.9C526.3 500.4 542.6 494.9 564.8 487.5L585 548.2C542.2 562.5 479.9 583.2 477.4 584.1C475.1 577.9 458.1 532.5 426.4 448L329.2 448C328.8 448 328.4 448 327.9 448L314.8 448C284.3 448 258 426.5 252 396.6C230.9 291.1 219.4 233.6 217.5 224zM159.7 248.7L217.9 496L384.6 496L384.6 560L167.3 560L161.5 535.3L97.5 263.3L90.2 232.2L152.5 217.5L159.8 248.6z"/></svg>