<svg xmlns="http://www.w3.org/2000/svg" viewBox="0 0 640 640"><!--! Font Awesome Pro 7.2.0 by @fontawesome - https://fontawesome.com License - https://fontawesome.com/license (Commercial License) Copyright 2026 Fonticons, Inc. --><path fill="currentColor" d="M176 96L64 96L64 544L176 544L176 96zM576 96L224 96L224 544L576 544L576 96zM312 408C325.3 408 336 418.7 336 432C336 445.3 325.3 456 312 456C298.7 456 288 445.3 288 432C288 418.7 298.7 408 312 408zM376 432C376 418.7 386.7 408 400 408C413.3 408 424 418.7 424 432C424 445.3 413.3 456 400 456C386.7 456 376 445.3 376 432zM488 408C501.3 408 512 418.7 512 432C512 445.3 501.3 456 488 456C474.7 456 464 445.3 464 432C464 418.7 474.7 408 488 408zM288 160L512 160L512 320L288 320L288 160z"/></svg>