<svg xmlns="http://www.w3.org/2000/svg" viewBox="0 0 640 640"><!--! Font Awesome Pro 7.2.0 by @fontawesome - https://fontawesome.com License - https://fontawesome.com/license (Commercial License) Copyright 2026 Fonticons, Inc. --><path fill="currentColor" d="M192 64L64 128L64 144C64 382.6 257.4 576 496 576L512 576L576 448L448 351.2L368 432C297.6 399 241 342.4 208 272L288.8 192L192 64zM556.9 117.1L522.9 83.1C514.4 91.6 497.4 108.6 472 134C446.5 108.5 429.6 91.6 421.1 83.1L387.2 117.1C395.7 125.6 412.7 142.6 438.1 168C412.6 193.5 395.7 210.4 387.2 218.9L421.1 252.8C429.6 244.3 446.6 227.3 472 201.9C497.5 227.4 514.4 244.3 522.9 252.8L556.8 218.9C548.3 210.4 531.3 193.4 505.9 168C531.4 142.5 548.3 125.6 556.8 117.1z"/></svg>