<svg xmlns="http://www.w3.org/2000/svg" viewBox="0 0 640 640"><!--! Font Awesome Pro 7.2.0 by @fontawesome - https://fontawesome.com License - https://fontawesome.com/license (Commercial License) Copyright 2026 Fonticons, Inc. --><path fill="currentColor" d="M64 256L64 576L576 576L576 352L448 288L448 256C448 150 362 64 256 64C150 64 64 150 64 256zM480 416L512 416L512 512L128 512L128 416L160 416L160 480L192 480L192 416L224 416L224 480L256 480L256 416L288 416L288 480L320 480L320 416L384 416L384 480L416 480L416 416L448 416L448 480L480 480L480 416z"/></svg>