<svg xmlns="http://www.w3.org/2000/svg" viewBox="0 0 640 640"><!--! Font Awesome Pro 7.2.0 by @fontawesome - https://fontawesome.com License - https://fontawesome.com/license (Commercial License) Copyright 2026 Fonticons, Inc. --><path fill="currentColor" d="M161.9 184.3L64 576L455.7 478.1C455.9 473.4 456 468.7 456 464C456 309.4 330.6 184 176 184C171.3 184 166.6 184.1 161.9 184.3zM504 466L576 448C576 235.9 404.1 64 192 64L174 136C174.7 136 175.3 136 176 136C357.1 136 504 282.9 504 464C504 464.7 504 465.3 504 466zM240 272C257.7 272 272 286.3 272 304C272 321.7 257.7 336 240 336C222.3 336 208 321.7 208 304C208 286.3 222.3 272 240 272zM304 400C304 382.3 318.3 368 336 368C353.7 368 368 382.3 368 400C368 417.7 353.7 432 336 432C318.3 432 304 417.7 304 400zM160 448C160 430.3 174.3 416 192 416C209.7 416 224 430.3 224 448C224 465.7 209.7 480 192 480C174.3 480 160 465.7 160 448z"/></svg>