<svg xmlns="http://www.w3.org/2000/svg" viewBox="0 0 640 640"><!--! Font Awesome Pro 7.2.0 by @fontawesome - https://fontawesome.com License - https://fontawesome.com/license (Commercial License) Copyright 2026 Fonticons, Inc. --><path fill="currentColor" d="M232 88C232 57.1 257.1 32 288 32C318.9 32 344 57.1 344 88L344 215.3L422 286.8C352.7 315.8 304 384.2 304 464C304 513.3 322.6 558.3 353.1 592.3L288 576L160 608L160 560L232 502.4L232 402.7L48 464L48 384L232 215.3L232 88zM496 320C575.5 320 640 384.5 640 464C640 543.5 575.5 608 496 608C416.5 608 352 543.5 352 464C352 384.5 416.5 320 496 320zM512 544L512 512L480 512L480 544L512 544zM512 368L480 368L480 480L512 480L512 368z"/></svg>