<svg xmlns="http://www.w3.org/2000/svg" viewBox="0 0 640 640"><!--! Font Awesome Pro 7.2.0 by @fontawesome - https://fontawesome.com License - https://fontawesome.com/license (Commercial License) Copyright 2026 Fonticons, Inc. --><path fill="currentColor" d="M263 376L272 448L224 448L224 512L280 512L288 576L352 576L360 512L388 512L388 540L428 540L428 420L388 420L388 448L368 448L377 376L552 376C582.9 376 608 350.9 608 320C608 289.1 582.9 264 552 264L377 264L368 192L388 192L388 220L428 220L428 100L388 100L388 128L360 128L352 64L288 64L280 128L224 128L224 192L272 192L263 264L192 264L158.5 269L128 208L88 208L65.5 283L32 288L32 352L65.5 357L88 432L128 432L158.5 371L192 376L263 376z"/></svg>