<svg xmlns="http://www.w3.org/2000/svg" viewBox="0 0 640 640"><!--! Font Awesome Pro 7.2.0 by @fontawesome - https://fontawesome.com License - https://fontawesome.com/license (Commercial License) Copyright 2026 Fonticons, Inc. --><path fill="currentColor" d="M480.1 96L480.1 258.4C496 252.4 511.3 246.7 526.1 241.1L543 286C531 290.5 510 298.4 480.1 309.6L480.1 544L416.1 544L416.1 333.6C400.2 339.6 384.9 345.3 370.1 350.9L353.2 306C365.2 301.5 386.2 293.6 416.1 282.4L416.1 96L480.1 96zM128.1 256L327.2 256C321.2 266.5 278.5 341.2 199.2 480L320.1 480L320.1 544L89 544C95 533.5 137.7 458.8 217 320L96.1 320L96.1 256L128.1 256z"/></svg>