<svg xmlns="http://www.w3.org/2000/svg" viewBox="0 0 640 640"><!--! Font Awesome Pro 7.2.0 by @fontawesome - https://fontawesome.com License - https://fontawesome.com/license (Commercial License) Copyright 2026 Fonticons, Inc. --><path fill="currentColor" d="M344 88C344 57.1 318.9 32 288 32C257.1 32 232 57.1 232 88C232 118.9 257.1 144 288 144C318.9 144 344 118.9 344 88zM128 176L106.3 176C104.9 179.4 91.6 212.8 66.3 276.1L54.4 305.8L113.8 329.6C119.7 314.8 131.7 284.9 149.6 240L191 240L168.3 330.6C160 363.8 179.3 397.6 212 407.4L308 436.2C269.1 523.7 248.4 570.3 245.8 576.2L304.3 602.2L317.3 573C368.2 458.5 394.4 399.5 396.1 395.8C382.6 391.7 340 379 268.5 357.5L289.2 287.1C303.7 311.9 313.2 328.2 317.7 335.9L448.1 335.9L448.1 271.9L354.5 271.9L326.3 223.5C309 194.1 277.4 176 243.3 176L128 176zM132.8 460.9C62.7 518.8 24.7 550.1 19 554.8L59.7 604.2C64.3 600.4 104.5 567.3 180.4 504.7L187.2 499.1C187.5 498.2 192.8 483.4 203 454.8L198.3 453.4C177.9 447.3 160.4 435.8 147.1 421L132.8 461zM512 608C565 608 608 479.1 608 320C608 160.9 565 32 512 32C470.2 32 434.6 112.1 421.5 224L496 224L496 384L453.8 384L425.8 446.9C441.5 542.3 474.2 608 512 608z"/></svg>