<svg xmlns="http://www.w3.org/2000/svg" viewBox="0 0 640 640"><!--! Font Awesome Pro 7.2.0 by @fontawesome - https://fontawesome.com License - https://fontawesome.com/license (Commercial License) Copyright 2026 Fonticons, Inc. --><path fill="currentColor" d="M288.5 64C380 64 460.2 112 505.4 184.2C517.9 184.9 529.9 187.4 541.1 191.4L558.5 174C577.2 155.3 607.6 155.3 626.4 174C645.2 192.7 645.1 223.1 626.4 241.9L612.3 256C620.1 272.4 624.5 290.7 624.5 310C624.5 337.3 615.7 363.8 599.3 385.6L523.7 486.4L516.5 496L476.5 496C471.3 489.1 467.3 483.7 464.5 480L368.5 480L368.5 456C368.5 415.2 340.7 381 303 371C292.8 297 229.3 240 152.5 240L128.5 240L128.5 288L152.5 288C209.9 288 256.5 334.6 256.5 392L256.5 416L280.5 416C302.6 416 320.5 433.9 320.5 456L320.5 480L288.5 480C247.4 480 210.1 464.5 181.7 439.1L149.6 474.8C186.4 507.8 235.1 527.9 288.4 527.9L512 527.9L512 575.9L288.4 575.9C147 575.9 32.4 461.3 32.4 319.9C32.4 178.5 147.1 64 288.5 64zM496.5 272L463.1 238.6C435.7 250.7 416.5 278.1 416.5 310C416.5 326.9 422 343.3 432.1 356.8L476.5 416L516.5 416L560.9 356.8C571 343.3 576.5 326.9 576.5 310C576.5 278.1 557.3 250.7 529.9 238.6L496.5 272zM464.5 324C453.5 324 444.5 315 444.5 304C444.5 293 453.5 284 464.5 284C475.5 284 484.5 293 484.5 304C484.5 315 475.5 324 464.5 324zM528.5 324C517.5 324 508.5 315 508.5 304C508.5 293 517.5 284 528.5 284C539.5 284 548.5 293 548.5 304C548.5 315 539.5 324 528.5 324zM434.4 174.1C415.7 155.4 385.3 155.4 366.5 174.1C347.7 192.8 347.8 223.2 366.5 242L380.6 256C394.8 226.1 420.4 202.7 451.8 191.4L434.4 174z"/></svg>