<svg xmlns="http://www.w3.org/2000/svg" viewBox="0 0 640 640"><!--! Font Awesome Pro 7.2.0 by @fontawesome - https://fontawesome.com License - https://fontawesome.com/license (Commercial License) Copyright 2026 Fonticons, Inc. --><path fill="currentColor" d="M120 64C71.4 64 32 103.4 32 152L32 304L176 304L176 160L96 160L96 152C96 138.7 106.7 128 120 128L160 128L160 64L120 64zM296 64C247.4 64 208 103.4 208 152L208 304L352 304L352 160L272 160L272 152C272 138.7 282.7 128 296 128L336 128L336 64L296 64zM520 576C568.6 576 608 536.6 608 488L608 336L464 336L464 480L544 480L544 488C544 501.3 533.3 512 520 512L480 512L480 576L520 576zM344 576C392.6 576 432 536.6 432 488L432 336L288 336L288 480L368 480L368 488C368 501.3 357.3 512 344 512L304 512L304 576L344 576z"/></svg>