<svg xmlns="http://www.w3.org/2000/svg" viewBox="0 0 640 640"><!--! Font Awesome Pro 7.2.0 by @fontawesome - https://fontawesome.com License - https://fontawesome.com/license (Commercial License) Copyright 2026 Fonticons, Inc. --><path fill="currentColor" d="M558.3 79.2L581.5 73.2L569.5 26.7L546.3 32.7L82.3 152.7L64.3 157.4L64.3 544L576.3 544L576.3 160L246 160L558.3 79.2zM448.2 344C488 344 520.2 376.2 520.2 416C520.2 455.8 488 488 448.2 488C408.4 488 376.2 455.8 376.2 416C376.2 376.2 408.4 344 448.2 344zM128.2 224L512.2 224L512.2 288L128.2 288L128.2 224zM160.2 352C177.9 352 192.2 366.3 192.2 384C192.2 401.7 177.9 416 160.2 416C142.5 416 128.2 401.7 128.2 384C128.2 366.3 142.5 352 160.2 352zM256.2 384C256.2 366.3 270.5 352 288.2 352C305.9 352 320.2 366.3 320.2 384C320.2 401.7 305.9 416 288.2 416C270.5 416 256.2 401.7 256.2 384z"/></svg>