<svg xmlns="http://www.w3.org/2000/svg" viewBox="0 0 640 640"><!--! Font Awesome Pro 7.2.0 by @fontawesome - https://fontawesome.com License - https://fontawesome.com/license (Commercial License) Copyright 2026 Fonticons, Inc. --><path fill="currentColor" d="M199 165.2C194.4 174.1 192 183.9 192 193.9C192 228.2 219.8 256 254.1 256L257.9 256C292.2 256 320 228.2 320 193.9C320 183.9 317.6 174 313 165.2L256 56L199 165.2zM103 389.2C98.4 398 96 407.9 96 417.9C96 452.2 123.8 480 158.1 480L161.9 480C196.2 480 224 452.2 224 417.9C224 407.9 221.6 398 217 389.2L160 280L103 389.2zM416 216L306.6 389.9C294.4 409.3 288 431.7 288 454.5C288 521.6 342.4 575.9 409.4 575.9L422.5 575.9C489.6 575.9 543.9 521.5 543.9 454.5C543.9 431.6 537.4 409.2 525.3 389.9L416 216z"/></svg>