<svg xmlns="http://www.w3.org/2000/svg" viewBox="0 0 640 640"><!--! Font Awesome Pro 7.2.0 by @fontawesome - https://fontawesome.com License - https://fontawesome.com/license (Commercial License) Copyright 2026 Fonticons, Inc. --><path fill="currentColor" d="M608 128L32 128L32 512L608 512L608 128zM144 248L144 296L176 296L176 224L224 224L224 416L176 416L176 344L144 344L144 416L96 416L96 224L144 224L144 248zM256 224L320 224C355.3 224 384 252.7 384 288L384 352C384 387.3 355.3 416 320 416L256 416L256 224zM304 368L320 368C328.8 368 336 360.8 336 352L336 288C336 279.2 328.8 272 320 272L304 272L304 368zM416 224L476 224C513.6 224 544 254.4 544 292C544 309.4 537.5 325.2 526.8 337.3C537.6 349.9 544 366.2 544 384L544 416L496 416L496 384C496 370.7 485.3 360 472 360L464 360L464 416L416 416L416 224zM476 312C487 312 496 303 496 292C496 281 487 272 476 272L464 272L464 312L476 312z"/></svg>