<svg xmlns="http://www.w3.org/2000/svg" viewBox="0 0 640 640"><!--! Font Awesome Pro 7.2.0 by @fontawesome - https://fontawesome.com License - https://fontawesome.com/license (Commercial License) Copyright 2026 Fonticons, Inc. --><path fill="currentColor" d="M640 512L0 512L0 128L640 128L640 512zM64 416L104 416L104 317.3L150.3 405.3L155.9 416L192 416L192 224L152 224L152 322.7L105.7 234.7L100.1 224L64 224L64 416zM240 416L368 416L368 376L280 376L280 340L356 340L356 300L280 300L280 264L368 264L368 224L240 224L240 416zM416 224L416 326.9C416 338.3 418.3 349.5 422.8 360L441.6 403.9L446.8 416L470.9 416C472.6 413.3 481 400.3 496 376.9C511 400.3 519.4 413.3 521.1 416L545.2 416L550.4 403.9L569.2 360C573.7 349.6 576 338.3 576 326.9L576 224L536 224L536 326.9C536 332.9 534.8 338.7 532.4 344.2L528.4 353.5C516.4 334.8 509.2 323.6 506.9 320L485.1 320C482.8 323.6 475.6 334.8 463.5 353.5L459.5 344.2C457.2 338.7 455.9 332.8 455.9 326.9L455.9 224L415.9 224z"/></svg>