<svg xmlns="http://www.w3.org/2000/svg" viewBox="0 0 640 640"><!--! Font Awesome Pro 7.2.0 by @fontawesome - https://fontawesome.com License - https://fontawesome.com/license (Commercial License) Copyright 2026 Fonticons, Inc. --><path fill="currentColor" d="M557.3 160C551.8 165.5 517.6 199.7 454.7 262.6L432 285.3L386.7 240C401.3 225.4 417.3 209.4 434.7 192L128 192L128 352L64 352L64 128L434.7 128C417.3 110.6 401.3 94.6 386.7 80L432 34.7C437.5 40.2 471.7 74.4 534.6 137.3L557.3 160zM82.7 480C88.2 474.5 122.4 440.3 185.3 377.4L208 354.7L253.3 400C238.7 414.6 222.7 430.6 205.3 448L512 448L512 288L576 288L576 512L205.3 512C222.7 529.4 238.7 545.4 253.3 560L208 605.3L105.4 502.6L82.7 480zM304 256L352 256L352 384L304 384L304 304L280 304L280 256L304 256z"/></svg>