<svg xmlns="http://www.w3.org/2000/svg" viewBox="0 0 640 640"><!--! Font Awesome Pro 7.2.0 by @fontawesome - https://fontawesome.com License - https://fontawesome.com/license (Commercial License) Copyright 2026 Fonticons, Inc. --><path fill="currentColor" d="M320.3 176C320.3 96.5 384.8 32 464.3 32C543.8 32 608.3 96.5 608.3 176C608.3 255.5 543.8 320 464.3 320C384.8 320 320.3 255.5 320.3 176zM480.3 96L448.3 96L448.3 192L528.3 192L528.3 160L480.3 160L480.3 96zM464.3 368C490.4 368 515.3 362.8 538 353.3C542.1 368.2 544.3 383.8 544.3 400C544.3 528 416.3 576 416.3 576C416.3 576 448.3 544 448.3 496C448.3 434.1 398.2 384 336.3 384L256.3 384L256.3 519.9L16.5 304L256.3 88.1L256.3 224L278.3 224C299.6 306.8 374.8 368 464.3 368z"/></svg>