<svg xmlns="http://www.w3.org/2000/svg" viewBox="0 0 640 640"><!--! Font Awesome Pro 7.2.0 by @fontawesome - https://fontawesome.com License - https://fontawesome.com/license (Commercial License) Copyright 2026 Fonticons, Inc. --><path fill="currentColor" d="M0 256C0 167.6 71.6 96 160 96L384 96C472.4 96 544 167.6 544 256L544 320L0 320L0 256zM152 224C152 210.7 141.3 200 128 200C114.7 200 104 210.7 104 224C104 237.3 114.7 248 128 248C141.3 248 152 237.3 152 224zM384 248C397.3 248 408 237.3 408 224C408 210.7 397.3 200 384 200C370.7 200 360 210.7 360 224C360 237.3 370.7 248 384 248zM280 224C280 210.7 269.3 200 256 200C242.7 200 232 210.7 232 224C232 237.3 242.7 248 256 248C269.3 248 280 237.3 280 224zM128 352L544 352L544 464C544 472.8 551.2 480 560 480C568.8 480 576 472.8 576 464L576 384L640 384L640 464C640 508.2 604.2 544 560 544C515.8 544 480 508.2 480 464L480 416L448 416L448 544L320 544L320 448L128 448L128 544L0 544L0 352L128 352z"/></svg>