<svg xmlns="http://www.w3.org/2000/svg" viewBox="0 0 640 640"><!--! Font Awesome Pro 7.2.0 by @fontawesome - https://fontawesome.com License - https://fontawesome.com/license (Commercial License) Copyright 2026 Fonticons, Inc. --><path fill="currentColor" d="M80 112C80 85.5 101.5 64 128 64C154.5 64 176 85.5 176 112C176 138.5 154.5 160 128 160C101.5 160 80 138.5 80 112zM53.4 192L202.6 192L209.6 214.5L254.5 358.5L200 375.5L200 576L136 576L136 416L120 416L120 576L56 576L56 375.5L1.5 358.5L46.4 214.5L53.4 192zM344 64L344 576L296 576L296 64L344 64zM464 112C464 85.5 485.5 64 512 64C538.5 64 560 85.5 560 112C560 138.5 538.5 160 512 160C485.5 160 464 138.5 464 112zM437.4 192L586.6 192L593.6 214.5L638.5 358.5L598.3 371L624 448L584 448L584 576L520 576L520 448L504 448L504 576L440 576L440 448L400 448L425.7 371L385.5 358.5L430.4 214.5L437.4 192z"/></svg>