<svg xmlns="http://www.w3.org/2000/svg" viewBox="0 0 640 640"><!--! Font Awesome Pro 7.2.0 by @fontawesome - https://fontawesome.com License - https://fontawesome.com/license (Commercial License) Copyright 2026 Fonticons, Inc. --><path fill="currentColor" d="M223 64L417 64L421.7 71.7C437.5 97.6 466.9 145.6 509.7 215.7L515.6 225.3L508.6 234.1L406.4 361.8L492.6 470.1L502.5 482.6L490 492.6L410 556.6L397.5 566.6L387.5 554.1L131.5 234.1L124.5 225.3L130.4 215.7C229.9 52.7 220.3 68.5 223 64zM320 253.2L368.6 192L271.3 192L319.9 253.2zM203 400.2L289.3 508C260.3 544.2 244.7 563.7 242.5 566.5L230 556.5L150 492.5L137.5 482.5L147.4 470L202.9 400.2z"/></svg>