<svg xmlns="http://www.w3.org/2000/svg" viewBox="0 0 640 640"><!--! Font Awesome Pro 7.2.0 by @fontawesome - https://fontawesome.com License - https://fontawesome.com/license (Commercial License) Copyright 2026 Fonticons, Inc. --><path fill="currentColor" d="M64 96L272 96L272 160L248 160L248 224L272 224L272 353.3C226.6 360.9 192 400.4 192 448L192 544L96 544L96 418C96 379.2 69.6 345.4 32 336L32 224L72 224L72 160L32 160L32 96L64 96zM120 160L120 224L200 224L200 160L120 160zM320 96L440 96L440 192L488 192L488 96L608 96L608 544L488 544L488 448L440 448L440 544L320 544L320 96zM488 256L440 256L440 384L488 384L488 256z"/></svg>