<svg xmlns="http://www.w3.org/2000/svg" viewBox="0 0 640 640"><!--! Font Awesome Pro 7.2.0 by @fontawesome - https://fontawesome.com License - https://fontawesome.com/license (Commercial License) Copyright 2026 Fonticons, Inc. --><path fill="currentColor" d="M288 96L169.4 96L64 544L288 544L288 448L336 448L336 384L288 384L288 256L352 256L352 368L368 368C368 297.3 425.3 240 496 240C498.9 240 501.7 240.1 504.5 240.3L470.6 96L352 96L352 192L288 192L288 96zM496 336C513.7 336 528 350.3 528 368L528 416L464 416L464 368C464 350.3 478.3 336 496 336zM416 368L416 416L384 416L384 608L608 608L608 416L576 416L576 368C576 323.8 540.2 288 496 288C451.8 288 416 323.8 416 368z"/></svg>