<svg xmlns="http://www.w3.org/2000/svg" viewBox="0 0 640 640"><!--! Font Awesome Pro 7.2.0 by @fontawesome - https://fontawesome.com License - https://fontawesome.com/license (Commercial License) Copyright 2026 Fonticons, Inc. --><path fill="currentColor" d="M288 96L169.4 96L64 544L321.4 544C310.2 519.6 304 492.6 304 464C304 435.4 310.2 408.4 321.4 384L288 384L288 256L352 256L352 337C387.2 297.1 438.7 272 496 272C501.4 272 506.8 272.2 512.2 272.7L470.6 96L352 96L352 192L288 192L288 96zM640 464C640 384.5 575.5 320 496 320C416.5 320 352 384.5 352 464C352 543.5 416.5 608 496 608C575.5 608 640 543.5 640 464zM566.4 412.5L557 425.4L493 513.4L482 528.5C477.6 524.1 459.9 506.4 428.8 475.3L417.4 464L440 441.4C445 446.4 457.7 459.1 478.1 479.5L531.1 406.6L540.5 393.7L566.4 412.5z"/></svg>