<svg xmlns="http://www.w3.org/2000/svg" viewBox="0 0 640 640"><!--! Font Awesome Pro 7.2.0 by @fontawesome - https://fontawesome.com License - https://fontawesome.com/license (Commercial License) Copyright 2026 Fonticons, Inc. --><path fill="currentColor" d="M352 64L352 32L288 32L288 128L96 128L96 544L544 544L544 128L352 128L352 64zM160 408L240 408L240 456L160 456L160 408zM280 408L360 408L360 456L280 456L280 408zM400 408L480 408L480 456L400 456L400 408zM224 240C250.5 240 272 261.5 272 288C272 314.5 250.5 336 224 336C197.5 336 176 314.5 176 288C176 261.5 197.5 240 224 240zM368 288C368 261.5 389.5 240 416 240C442.5 240 464 261.5 464 288C464 314.5 442.5 336 416 336C389.5 336 368 314.5 368 288zM64 288L64 256L0 256L0 416L64 416L64 288zM640 256L576 256L576 416L640 416L640 256z"/></svg>