<svg xmlns="http://www.w3.org/2000/svg" viewBox="0 0 640 640"><!--! Font Awesome Pro 7.2.0 by @fontawesome - https://fontawesome.com License - https://fontawesome.com/license (Commercial License) Copyright 2026 Fonticons, Inc. --><path fill="currentColor" d="M480 320C480 320 576 224 576 160C576 107 533 64 480 64C427 64 384 107 384 160C384 189.4 404.2 225.5 426.1 256L288 256L288 448L512 448L512 512L252.6 512C246.4 521.6 240 530.8 233.6 539.2C222.9 553.4 212.3 566.1 203.6 576L576 576L576 384L352 384L352 320L480 320zM480 128C497.7 128 512 142.3 512 160C512 177.7 497.7 192 480 192C462.3 192 448 177.7 448 160C448 142.3 462.3 128 480 128zM213.9 512C235.8 481.5 256 445.4 256 416C256 363 213 320 160 320C107 320 64 363 64 416C64 480 160 576 160 576C160 576 163.5 572.5 169.2 566.4C169.6 566 169.9 565.6 170.3 565.2C173.6 561.7 177.4 557.4 181.7 552.4C181.9 552.2 182.1 552 182.3 551.8C191.7 541 203 527.2 213.9 512zM160 384C177.7 384 192 398.3 192 416C192 433.7 177.7 448 160 448C142.3 448 128 433.7 128 416C128 398.3 142.3 384 160 384z"/></svg>