<svg xmlns="http://www.w3.org/2000/svg" viewBox="0 0 640 640"><!--! Font Awesome Pro 7.2.0 by @fontawesome - https://fontawesome.com License - https://fontawesome.com/license (Commercial License) Copyright 2026 Fonticons, Inc. --><path fill="currentColor" d="M192 64L448 64L392 176L248 176L192 64zM233.6 224L406.4 224L453.5 263.2C521 319.5 560 402.8 560 490.6L560 576L80 576L80 490.6C80 402.8 119 319.4 186.5 263.2L233.6 224zM344 288L304 288L304 312C275.2 312.3 252 335.7 252 364.5C252 390.2 270.5 412.1 295.9 416.3L337.6 423.3C343.6 424.3 348 429.5 348 435.6C348 442.5 342.4 448.1 335.5 448.1L260 448.1L260 488.1L304 488.1L304 512.1L344 512.1L344 487.4C369 483.3 388 461.7 388 435.6C388 409.9 369.5 388 344.1 383.8L302.4 376.8C296.4 375.8 292 370.6 292 364.5C292 357.6 297.6 352 304.5 352L372 352L372 312L344 312L344 288z"/></svg>