<svg xmlns="http://www.w3.org/2000/svg" viewBox="0 0 640 640"><!--! Font Awesome Pro 7.2.0 by @fontawesome - https://fontawesome.com License - https://fontawesome.com/license (Commercial License) Copyright 2026 Fonticons, Inc. --><path fill="currentColor" d="M208 32L208 112L160 112L160 32L208 32zM480 352L432 352L432 32L480 32L480 352zM384 32L384 112L352 112L352 32L384 32zM320 32L320 112L256 112L256 32L320 32zM512 32L576 32L576 352L512 352L512 32zM64 160L384 160L384 576L64 576L64 160zM136 384L136 432L200 432L200 384L136 384zM320 224L128 224L128 320L320 320L320 224zM136 464L136 512L200 512L200 464L136 464zM312 384L248 384L248 432L312 432L312 384zM248 464L248 512L312 512L312 464L248 464z"/></svg>