<svg xmlns="http://www.w3.org/2000/svg" viewBox="0 0 640 640"><!--! Font Awesome Pro 7.2.0 by @fontawesome - https://fontawesome.com License - https://fontawesome.com/license (Commercial License) Copyright 2026 Fonticons, Inc. --><path fill="currentColor" d="M544 96L96 96L96 544L544 544L544 96zM464 224C464 259.3 435.3 288 400 288C384.6 288 370.5 282.6 359.4 273.5L274.1 320L359.4 366.5C370.4 357.4 384.6 352 400 352C435.3 352 464 380.7 464 416C464 451.3 435.3 480 400 480C364.7 480 336 451.3 336 416C336 413.5 336.1 411.1 336.4 408.7L254.5 364C242.8 376.3 226.3 384 208 384C172.7 384 144 355.3 144 320C144 284.7 172.7 256 208 256C226.3 256 242.8 263.7 254.5 276L336.4 231.3C336.1 228.9 336 226.4 336 224C336 188.7 364.7 160 400 160C435.3 160 464 188.7 464 224z"/></svg>