<svg xmlns="http://www.w3.org/2000/svg" viewBox="0 0 640 640"><!--! Font Awesome Pro 7.2.0 by @fontawesome - https://fontawesome.com License - https://fontawesome.com/license (Commercial License) Copyright 2026 Fonticons, Inc. --><path fill="currentColor" d="M320 64L331.6 68.5L539.1 149L558.3 156.4L559.5 176.9C562.4 226.9 554.6 303.2 522.2 377.8C489.5 453.1 431.1 527.8 332.8 570.4L320.1 575.9L307.4 570.4C208.9 527.9 150.6 453.2 117.9 377.9C85.5 303.3 77.7 226.9 80.6 177L81.8 156.5L101 149L308.5 68.5L320 64zM313.6 247.4C302.5 232.6 285.1 223.9 266.7 223.9C234.3 223.9 208 250.2 208 282.6L208 287.9C208 351.9 320 415.9 320 415.9C320 415.9 432 351.9 432 287.9L432 282.6C432 250.2 405.7 223.9 373.3 223.9C354.8 223.9 337.4 232.6 326.4 247.4L320 255.9L313.6 247.4z"/></svg>