<svg xmlns="http://www.w3.org/2000/svg" viewBox="0 0 640 640"><!--! Font Awesome Pro 7.2.0 by @fontawesome - https://fontawesome.com License - https://fontawesome.com/license (Commercial License) Copyright 2026 Fonticons, Inc. --><path fill="currentColor" d="M320 64L331.6 68.5L539.1 149L558.3 156.4L559.5 176.9C562.4 226.9 554.6 303.2 522.2 377.8C489.5 453.1 431.1 527.8 332.8 570.4L320.1 575.9L307.4 570.4C208.9 527.9 150.6 453.2 117.9 377.9C85.5 303.3 77.7 226.9 80.6 177L81.8 156.5L101 149L308.5 68.5L320 64zM376 272C376 241.1 350.9 216 320 216C289.1 216 264 241.1 264 272C264 294.3 277.1 313.6 296 322.6L296 416L344 416L344 322.6C362.9 313.6 376 294.3 376 272z"/></svg>