<svg xmlns="http://www.w3.org/2000/svg" viewBox="0 0 640 640"><!--! Font Awesome Pro 7.2.0 by @fontawesome - https://fontawesome.com License - https://fontawesome.com/license (Commercial License) Copyright 2026 Fonticons, Inc. --><path fill="currentColor" d="M81.3 47.1L64.3 30.1L30.4 64L47.4 81L559.4 593L576.4 610L610.3 576.1C603 568.8 583.6 549.4 552.2 518L552.2 96L504.2 96L504.2 470L448.2 414L448.2 192L400.2 192L400.2 366L81.4 47.2zM344.1 445.8L296.1 397.8L296.1 544L344.1 544L344.1 445.8zM240.1 384L192.1 384L192.1 544L240.1 544L240.1 384zM136.1 448L88.1 448L88.1 544L136.1 544L136.1 448z"/></svg>