<svg xmlns="http://www.w3.org/2000/svg" viewBox="0 0 640 640"><!--! Font Awesome Pro 7.2.0 by @fontawesome - https://fontawesome.com License - https://fontawesome.com/license (Commercial License) Copyright 2026 Fonticons, Inc. --><path fill="currentColor" d="M432 320C432 283.6 414.7 251.3 387.8 230.9L437.6 189C473.5 221.2 496 268 496 320C496 372 473.4 418.8 437.6 451L387.9 409.1C414.7 388.7 432 356.4 432 320zM116.3 116.4L165.5 157.8C122.7 198.7 96 256.2 96 320C96 383.8 122.7 441.4 165.5 482.1L116.3 523.6C64.2 471.5 32 399.5 32 320C32 240.5 64.2 168.5 116.3 116.4zM252.2 409.1L202.4 451C166.6 418.8 144 372 144 320C144 268 166.6 221.2 202.4 189L252.1 230.9C225.3 251.3 208 283.6 208 320C208 356.4 225.3 388.7 252.2 409.1zM523.7 523.6L474.5 482.2C517.3 441.4 544 383.8 544 320C544 256.2 517.3 198.7 474.5 157.9L523.7 116.5C575.8 168.5 608 240.5 608 320C608 399.5 575.8 471.5 523.7 523.6zM320 272C346.5 272 368 293.5 368 320C368 346.5 346.5 368 320 368C293.5 368 272 346.5 272 320C272 293.5 293.5 272 320 272z"/></svg>