<svg xmlns="http://www.w3.org/2000/svg" viewBox="0 0 640 640"><!--! Font Awesome Pro 7.2.0 by @fontawesome - https://fontawesome.com License - https://fontawesome.com/license (Commercial License) Copyright 2026 Fonticons, Inc. --><path fill="currentColor" d="M352 160C352 142.3 366.3 128 384 128C401.7 128 416 142.3 416 160L416 192L480 192L480 160C480 107 437 64 384 64C331 64 288 107 288 160L288 352L224 352L224 256L96 256L96 304L176 304L176 352L64 352L64 416L96 416L96 480C96 533 139 576 192 576L448 576C501 576 544 533 544 480L544 416L576 416L576 352L464 352L464 304L552 304L552 256L416 256L416 352L352 352L352 160z"/></svg>