<svg xmlns="http://www.w3.org/2000/svg" viewBox="0 0 640 640"><!--! Font Awesome Pro 7.2.0 by @fontawesome - https://fontawesome.com License - https://fontawesome.com/license (Commercial License) Copyright 2026 Fonticons, Inc. --><path fill="currentColor" d="M640 488C640 536.6 600.6 576 552 576L0 576L0 528L552 528C574.1 528 592 510.1 592 488L592 456L640 456L640 488zM412 160L320 160L320 208L402 208L392 256L304 256L304 304L382 304L512 356.3L512 484.3L96 480L135.4 290.9C139.5 290.2 145 289.1 151.4 287.3C165.5 283.2 184.3 275.4 204 261C241 233.8 279 184.3 296.2 96L361.4 96L368.1 64L432.1 64L412.1 160zM255.3 96C239.2 170.6 207.3 208.9 180.3 228.7C167 238.5 154.3 244.1 144.5 247.4L176 96L255.3 96z"/></svg>