<svg xmlns="http://www.w3.org/2000/svg" viewBox="0 0 640 640"><!--! Font Awesome Pro 7.2.0 by @fontawesome - https://fontawesome.com License - https://fontawesome.com/license (Commercial License) Copyright 2026 Fonticons, Inc. --><path fill="currentColor" d="M320 576C461.4 576 576 461.4 576 320C576 178.6 461.4 64 320 64C178.6 64 64 178.6 64 320C64 461.4 178.6 576 320 576zM320 432C358.2 432 392 412.9 412.2 383.5L451.7 410.8C422.9 452.6 374.7 480 320 480C265.3 480 217.1 452.6 188.2 410.8L227.7 383.5C248 412.9 281.8 432 320 432zM208 272C208 254.3 222.3 240 240 240C257.7 240 272 254.3 272 272C272 289.7 257.7 304 240 304C222.3 304 208 289.7 208 272zM400 240C417.7 240 432 254.3 432 272C432 289.7 417.7 304 400 304C382.3 304 368 289.7 368 272C368 254.3 382.3 240 400 240z"/></svg>