<svg xmlns="http://www.w3.org/2000/svg" viewBox="0 0 640 640"><!--! Font Awesome Pro 7.2.0 by @fontawesome - https://fontawesome.com License - https://fontawesome.com/license (Commercial License) Copyright 2026 Fonticons, Inc. --><path fill="currentColor" d="M504 32L504 88L560 88L560 136L504 136L504 192L456 192L456 136L400 136L400 88L456 88L456 32L504 32zM256 128L256 195.7L265.9 185.8L294.2 214.1L256.1 252.2L256.1 296.5L294.5 274.4L308.5 222.3L347.1 232.7L343.5 246.2C364.7 234 384.2 222.7 402.1 212.3L434.1 267.7C416.2 278.1 396.6 289.3 375.5 301.6L389 305.2L378.6 343.8L326.5 329.8L288.1 351.9L326.5 374L378.6 360L389 398.6L375.5 402.2C396.7 414.4 416.2 425.7 434.1 436.1L402.1 491.5C384.2 481.1 364.6 469.9 343.5 457.6L347.1 471.1L308.5 481.5L294.5 429.4L256.1 407.3L256.1 451.6L294.2 489.7L265.9 518L256 508.1L256 575.8L192 575.8L192 508.1L182.1 518L153.8 489.7L191.9 451.6L191.9 407.3L153.5 429.4L139.5 481.5L100.9 471.1L104.5 457.6C83.5 470.1 64 481.4 46 491.7L14 436.3C31.9 425.9 51.5 414.7 72.6 402.4L59.1 398.8L69.5 360.2L121.6 374.2L160 352.1L121.6 330L69.5 344L59.1 305.4L72.6 301.8C51.5 289.4 32 278.1 14 267.7L46 212.3C63.9 222.7 83.5 233.9 104.6 246.2L101 232.7L139.6 222.3L153.6 274.4L191.9 296.5L191.9 252.2L153.8 214.1L182.1 185.8L192 195.7L192 128L256 128zM584 224L584 256L640 256L640 304L584 304L584 360L536 360L536 304L480 304L480 256L536 256L536 200L584 200L584 224z"/></svg>