<svg xmlns="http://www.w3.org/2000/svg" viewBox="0 0 640 640"><!--! Font Awesome Pro 7.2.0 by @fontawesome - https://fontawesome.com License - https://fontawesome.com/license (Commercial License) Copyright 2026 Fonticons, Inc. --><path fill="currentColor" d="M102.7 96L538 96L543.6 121.1L607.6 409.1L616.3 448L352.4 448L352.4 512L448.4 512L448.4 576L192.4 576L192.4 512L288.4 512L288.4 448L24.5 448L33.2 409.1L97.2 121.1L102.8 96zM123.8 296L104.2 384L210.9 384L218.2 296L123.7 296zM134.5 248L222.3 248L229.6 160L154 160L134.4 248zM266.5 296L259.2 384L381.7 384L374.4 296L266.6 296zM370.3 248L363 160L277.8 160L270.5 248L370.3 248zM422.5 296L429.8 384L536.5 384L516.9 296L422.4 296zM506.3 248L486.7 160L411.1 160L418.4 248L506.2 248z"/></svg>