<svg xmlns="http://www.w3.org/2000/svg" viewBox="0 0 640 640"><!--! Font Awesome Pro 7.2.0 by @fontawesome - https://fontawesome.com License - https://fontawesome.com/license (Commercial License) Copyright 2026 Fonticons, Inc. --><path fill="currentColor" d="M214.9 105.4L192.3 82.7C189.4 85.6 149.9 125.1 73.7 201.3L51 224L96.3 269.3C108.3 257.3 129.6 236 160.3 205.3L160.3 544L224.3 544L224.3 205.3C255 236 276.3 257.3 288.3 269.3L333.5 224C330.6 221.1 291.1 181.6 214.9 105.4zM384.3 96L384.3 160L432.3 160L432.3 224L384.3 224L384.3 288L544.3 288L544.3 224L496.3 224L496.3 96L384.3 96zM409.9 544L483.1 544L527.8 463.5C538.6 444.1 544.3 422.2 544.3 400C544.3 355.8 508.5 320 464.3 320C420.1 320 384.3 355.8 384.3 400C384.3 438.1 410.9 470 446.6 478L410 544zM464.3 376C477.6 376 488.3 386.7 488.3 400C488.3 413.3 477.6 424 464.3 424C451 424 440.3 413.3 440.3 400C440.3 386.7 451 376 464.3 376z"/></svg>