<svg xmlns="http://www.w3.org/2000/svg" viewBox="0 0 640 640"><!--! Font Awesome Pro 7.2.0 by @fontawesome - https://fontawesome.com License - https://fontawesome.com/license (Commercial License) Copyright 2026 Fonticons, Inc. --><path fill="currentColor" d="M425.6 73.4L448.2 50.8C451.1 53.7 490.6 93.2 566.8 169.4L589.4 192L544.1 237.3L480.1 173.3L480.1 576L416.1 576L416.1 173.3L352.1 237.3L306.8 192C309.7 189.1 349.2 149.6 425.4 73.4zM169.6 566.7C93.4 490.4 53.9 450.9 51 448L96.3 402.7C108.3 414.7 129.6 436 160.3 466.7L160.3 64L224.3 64L224.3 466.7C255 436 276.3 414.7 288.3 402.7L333.5 448C330.6 450.9 291.1 490.4 214.9 566.6L192.3 589.2L169.7 566.6z"/></svg>