<svg xmlns="http://www.w3.org/2000/svg" viewBox="0 0 640 640"><!--! Font Awesome Pro 7.2.0 by @fontawesome - https://fontawesome.com License - https://fontawesome.com/license (Commercial License) Copyright 2026 Fonticons, Inc. --><path fill="currentColor" d="M182.9 534.6L160.3 557.2C156.1 553 119.2 516.1 49.7 446.6L27 424L72.3 378.7C85.6 392 104.3 410.7 128.3 434.7L128.3 96L192.3 96L192.3 434.7C216.3 410.7 235 392 248.3 378.7L293.5 424L182.9 534.6zM352.3 96L416.3 96L416.3 160L320.3 160L320.3 96L352.3 96zM352.3 224L480.3 224L480.3 288L320.3 288L320.3 224L352.3 224zM352.3 352L544.3 352L544.3 416L320.3 416L320.3 352L352.3 352zM352.3 480L608.3 480L608.3 544L320.3 544L320.3 480L352.3 480z"/></svg>