<svg xmlns="http://www.w3.org/2000/svg" viewBox="0 0 640 640"><!--! Font Awesome Pro 7.2.0 by @fontawesome - https://fontawesome.com License - https://fontawesome.com/license (Commercial License) Copyright 2026 Fonticons, Inc. --><path fill="currentColor" d="M32 432L32 544L192 544L378.7 432L285.4 432L178.7 496L176 496L176 416L208 400L398.2 400C469.3 400 533.3 376.9 576 320C533.3 263.1 469.3 240 398.2 240L208 240L176 224L176 144L178.7 144L285.4 208L378.7 208L192 96L32 96L32 432zM128 432L128 496L80 496L80 432L128 432zM128 144L128 208L80 208L80 144L128 144zM464 288L464 352L432 352L432 288L464 288z"/></svg>