<svg xmlns="http://www.w3.org/2000/svg" viewBox="0 0 640 640"><!--! Font Awesome Pro 7.2.0 by @fontawesome - https://fontawesome.com License - https://fontawesome.com/license (Commercial License) Copyright 2026 Fonticons, Inc. --><path fill="currentColor" d="M574 351.9C575.3 341.4 576 330.8 576 320C576 309.2 575.3 298.5 574 288L512 288L512 224L416 224L416 160L480 160L480 120.1C436.2 85 380.5 64 320 64C178.6 64 64 178.6 64 320C64 330.8 64.7 341.4 66 351.9C138.4 377.1 225.6 392 320 392C414.4 392 501.6 377.1 574 351.9zM448 431C407.1 436.9 364.1 440 320 440C233 440 150.8 428 79 406.5C114.5 505.3 209 576 320 576C396.5 576 465.1 542.5 512 489.3L512 464L448 464L448 431zM256 256C273.7 256 288 241.7 288 224C288 206.3 273.7 192 256 192C238.3 192 224 206.3 224 224C224 241.7 238.3 256 256 256zM256 144C300.2 144 336 179.8 336 224C336 268.2 300.2 304 256 304C211.8 304 176 268.2 176 224C176 179.8 211.8 144 256 144z"/></svg>