<svg xmlns="http://www.w3.org/2000/svg" viewBox="0 0 640 640"><!--! Font Awesome Pro 7.2.0 by @fontawesome - https://fontawesome.com License - https://fontawesome.com/license (Commercial License) Copyright 2026 Fonticons, Inc. --><path fill="currentColor" d="M228.8 81.8L245.6 109C174.9 152.8 128 230.9 128 320C128 426 214 512 320 512C426 512 512 426 512 320C512 244.9 451.1 184 376 184C300.9 184 240 244.9 240 320C240 364.2 275.8 400 320 400C364.2 400 400 364.2 400 320C400 306.7 389.3 296 376 296C362.7 296 352 306.7 352 320L352 352L288 352L288 320C288 271.4 327.4 232 376 232C424.6 232 464 271.4 464 320C464 399.5 399.5 464 320 464C240.5 464 176 399.5 176 320C176 209.5 265.5 120 376 120C486.5 120 576 209.5 576 320C576 461.4 461.4 576 320 576C178.6 576 64 461.4 64 320C64 207.9 123.2 109.6 211.9 54.6L228.8 81.8z"/></svg>