<svg xmlns="http://www.w3.org/2000/svg" viewBox="0 0 640 640"><!--! Font Awesome Pro 7.2.0 by @fontawesome - https://fontawesome.com License - https://fontawesome.com/license (Commercial License) Copyright 2026 Fonticons, Inc. --><path fill="currentColor" d="M192 64L192 176L320 176L320 64L192 64zM192 224C139 224 96 267 96 320L96 576L416 576L416 320C416 267 373 224 320 224L192 224zM256 320C300.2 320 336 355.8 336 400C336 444.2 300.2 480 256 480C211.8 480 176 444.2 176 400C176 355.8 211.8 320 256 320zM416 96L384 112L416 128L432 160L448 128L480 112L448 96L432 64L416 96zM448 208L480 224L496 256L512 224L544 208L512 192L496 160L480 192L448 208zM560 64L544 96L512 112L544 128L560 160L576 128L608 112L576 96L560 64zM544 288L512 304L544 320L560 352L576 320L608 304L576 288L560 256L544 288z"/></svg>