<svg xmlns="http://www.w3.org/2000/svg" viewBox="0 0 640 640"><!--! Font Awesome Pro 7.2.0 by @fontawesome - https://fontawesome.com License - https://fontawesome.com/license (Commercial License) Copyright 2026 Fonticons, Inc. --><path fill="currentColor" d="M88 64C101.3 64 112 74.7 112 88C112 101.3 101.3 112 88 112C74.7 112 64 101.3 64 88C64 74.7 74.7 64 88 64zM64 192C64 178.7 74.7 168 88 168C101.3 168 112 178.7 112 192C112 205.3 101.3 216 88 216C74.7 216 64 205.3 64 192zM64 296C64 282.7 74.7 272 88 272C101.3 272 112 282.7 112 296C112 309.3 101.3 320 88 320C74.7 320 64 309.3 64 296zM128 136C128 122.7 138.7 112 152 112C165.3 112 176 122.7 176 136C176 149.3 165.3 160 152 160C138.7 160 128 149.3 128 136zM152 224C165.3 224 176 234.7 176 248C176 261.3 165.3 272 152 272C138.7 272 128 261.3 128 248C128 234.7 138.7 224 152 224zM192 192C192 178.7 202.7 168 216 168C229.3 168 240 178.7 240 192C240 205.3 229.3 216 216 216C202.7 216 192 205.3 192 192zM552 272C565.3 272 576 282.7 576 296C576 309.3 565.3 320 552 320C538.7 320 528 309.3 528 296C528 282.7 538.7 272 552 272zM576 192C576 205.3 565.3 216 552 216C538.7 216 528 205.3 528 192C528 178.7 538.7 168 552 168C565.3 168 576 178.7 576 192zM552 64C565.3 64 576 74.7 576 88C576 101.3 565.3 112 552 112C538.7 112 528 101.3 528 88C528 74.7 538.7 64 552 64zM512 136C512 149.3 501.3 160 488 160C474.7 160 464 149.3 464 136C464 122.7 474.7 112 488 112C501.3 112 512 122.7 512 136zM488 224C501.3 224 512 234.7 512 248C512 261.3 501.3 272 488 272C474.7 272 464 261.3 464 248C464 234.7 474.7 224 488 224zM448 192C448 205.3 437.3 216 424 216C410.7 216 400 205.3 400 192C400 178.7 410.7 168 424 168C437.3 168 448 178.7 448 192zM352 128L352 320L480 320L480 360L384 448L384 576L256 576L256 448L160 360L160 320L288 320L288 128L352 128z"/></svg>