<svg xmlns="http://www.w3.org/2000/svg" viewBox="0 0 640 640"><!--! Font Awesome Pro 7.2.0 by @fontawesome - https://fontawesome.com License - https://fontawesome.com/license (Commercial License) Copyright 2026 Fonticons, Inc. --><path fill="currentColor" d="M544 96L96 96L96 544L544 544L544 96zM432 192L432 216L464 216L464 264L406.2 264C398.4 264 392 270.3 392 278.2C392 284 395.5 289.2 400.9 291.3L432.9 304.1C456.5 313.5 472 336.4 472 361.8C472 388.3 455.4 411 432 419.9L432 448L400 448L400 424L352 424L352 376L409.8 376C417.6 376 424 369.7 424 361.8C424 356 420.5 350.8 415.1 348.7L383.1 335.9C359.5 326.5 344 303.6 344 278.2C344 245.9 368.6 219.4 400 216.3L400 192L432 192zM200 208L248 208C287.8 208 320 240.2 320 280C320 306.9 305.3 330.3 283.5 342.6L310.3 423.1L264.8 438.3C262 430 252.4 401.2 236 352L224 352L224 432L176 432L176 208L200 208zM248 304C261.3 304 272 293.3 272 280C272 266.7 261.3 256 248 256L224 256L224 304L248 304z"/></svg>