<svg xmlns="http://www.w3.org/2000/svg" viewBox="0 0 640 640"><!--! Font Awesome Pro 7.2.0 by @fontawesome - https://fontawesome.com License - https://fontawesome.com/license (Commercial License) Copyright 2026 Fonticons, Inc. --><path fill="currentColor" d="M544 96L96 96L96 544L544 544L544 96zM298.5 208L392 208L392 256L298.5 256C288.3 256 280 264.3 280 274.5C280 283.8 286.9 291.7 296.2 292.8L349.8 299.5C383.1 303.7 408 331.9 408 365.5C408 402.2 378.2 432 341.5 432L240 432L240 384L341.5 384C351.7 384 360 375.7 360 365.5C360 356.2 353.1 348.3 343.8 347.2L290.2 340.5C256.9 336.3 232 308.1 232 274.5C232 237.8 261.8 208 298.5 208z"/></svg>