<svg xmlns="http://www.w3.org/2000/svg" viewBox="0 0 640 640"><!--! Font Awesome Pro 7.2.0 by @fontawesome - https://fontawesome.com License - https://fontawesome.com/license (Commercial License) Copyright 2026 Fonticons, Inc. --><path fill="currentColor" d="M356.1 81.6L412.7 192.6C502.3 206.8 569.3 217.5 613.8 224.6C581.9 256.5 534 304.5 469.9 368.7C484 458.3 494.6 525.3 501.6 569.9C461.4 549.5 400.9 518.7 320.1 477.6C239.3 518.7 178.8 549.5 138.6 569.9C145.6 525.4 156.2 458.3 170.3 368.7C106.2 304.5 58.3 256.5 26.4 224.6C70.9 217.5 138 206.9 227.5 192.6C268.7 111.8 299.6 51.4 320.1 11.2L356 81.6zM402.7 255.8L370.5 250.7C364.1 238.1 347.3 205.3 320.1 152L320.1 405.7C332.7 412.1 365.6 428.8 418.8 455.9C409.5 396.9 403.7 360.4 401.5 346.5C411.5 336.5 437.6 310.4 479.8 268.1L402.5 255.8z"/></svg>