<svg xmlns="http://www.w3.org/2000/svg" viewBox="0 0 640 640"><!--! Font Awesome Pro 7.2.0 by @fontawesome - https://fontawesome.com License - https://fontawesome.com/license (Commercial License) Copyright 2026 Fonticons, Inc. --><path fill="currentColor" d="M0 128L0 192L55 192L133.6 280.5L96 288L96 352L133.6 359.5L55 448L0 448L0 512L224 512L224 448L129.9 448L197.2 372.2L223.1 377.4C218.4 359 215.9 339.8 215.9 320C215.9 300.2 218.4 280.9 223.1 262.6L197.2 267.8L129.9 192L224 192L224 128L0 128zM448 240C492.2 240 528 275.8 528 320C528 364.2 492.2 400 448 400C403.8 400 368 364.2 368 320C368 275.8 403.8 240 448 240zM448 512C554 512 640 426 640 320C640 214 554 128 448 128C342 128 256 214 256 320C256 426 342 512 448 512zM480 320C480 302.3 465.7 288 448 288C430.3 288 416 302.3 416 320C416 337.7 430.3 352 448 352C465.7 352 480 337.7 480 320z"/></svg>