<svg xmlns="http://www.w3.org/2000/svg" viewBox="0 0 640 640"><!--! Font Awesome Pro 7.2.0 by @fontawesome - https://fontawesome.com License - https://fontawesome.com/license (Commercial License) Copyright 2026 Fonticons, Inc. --><path fill="currentColor" d="M112 96L48 272L128 304L200 272L256 304L320 272L384 304L440 272L512 304L592 272L528 96L112 96zM96 544L544 544L544 342.9C535.3 346.4 524.3 350.8 511 356.1C497.7 350.2 487.3 345.6 480 342.3L480 416L160 416L160 342.3C152.7 345.6 142.3 350.2 129 356.1C115.7 350.8 104.7 346.4 96 342.9L96 544z"/></svg>