<svg xmlns="http://www.w3.org/2000/svg" viewBox="0 0 640 640"><!--! Font Awesome Pro 7.2.0 by @fontawesome - https://fontawesome.com License - https://fontawesome.com/license (Commercial License) Copyright 2026 Fonticons, Inc. --><path fill="currentColor" d="M80 96L16 272L96 304L168 272L224 304L288 272L352 304L408 272L480 304L560 272L496 96L80 96zM64 544L304 544L304 416L128 416L128 342.3C120.7 345.6 110.3 350.2 97 356.1C83.7 350.8 72.7 346.4 64 342.9L64 544zM348 464L388 464C388 457.4 393.4 452 400 452C406.6 452 412 457.4 412 464L412 465C412 469.8 410.2 474.4 407.1 478L353.1 538.8L348 544.5L348 580.1L452 580.1L452 540.1L405.4 540.1L436.9 504.6C446.6 493.7 451.9 479.6 451.9 465L451.9 464C451.9 435.3 428.6 412 399.9 412C371.2 412 347.9 435.3 347.9 464zM476 496L476 516L540 516L540 576L580 576L580 416L540 416L540 476L516 476L516 416L476 416L476 496z"/></svg>