<svg xmlns="http://www.w3.org/2000/svg" viewBox="0 0 640 640"><!--! Font Awesome Pro 7.2.0 by @fontawesome - https://fontawesome.com License - https://fontawesome.com/license (Commercial License) Copyright 2026 Fonticons, Inc. --><path fill="currentColor" d="M440 40L463.4 63.4C494.6 94.6 494.6 145.3 463.4 176.5C494.6 145.3 545.3 145.3 576.5 176.5L600 200L576.6 223.4C545.4 254.6 494.7 254.6 463.5 223.4C447.9 207.8 432.3 192.2 416.6 176.5C385.4 145.3 385.4 94.6 416.6 63.4L440 40zM64 400C64 224 160.2 128 256.2 128C288.9 128.1 321.5 140.6 346.5 165.5L474.5 293.5C499.5 318.5 512 351.3 512 384C512 480 416 576 240 576L64 576L64 400zM246.4 201.6C249.2 230.4 230.4 249.2 201.6 246.4C198.8 217.6 217.6 198.8 246.4 201.6zM214.4 297.6C217.2 326.4 198.4 345.2 169.6 342.4C166.8 313.6 185.6 294.8 214.4 297.6zM278.4 361.6C281.2 390.4 262.4 409.2 233.6 406.4C230.8 377.6 249.6 358.8 278.4 361.6zM342.4 425.6C345.2 454.4 326.4 473.2 297.6 470.4C294.8 441.6 313.6 422.8 342.4 425.6zM182.4 393.6C185.2 422.4 166.4 441.2 137.6 438.4C134.8 409.6 153.6 390.8 182.4 393.6zM246.4 457.6C249.2 486.4 230.4 505.2 201.6 502.4C198.8 473.6 217.6 454.8 246.4 457.6zM310.4 265.6C313.2 294.4 294.4 313.2 265.6 310.4C262.8 281.6 281.6 262.8 310.4 265.6zM374.4 329.6C377.2 358.4 358.4 377.2 329.6 374.4C326.8 345.6 345.6 326.8 374.4 329.6zM438.4 393.6C441.2 422.4 422.4 441.2 393.6 438.4C390.8 409.6 409.6 390.8 438.4 393.6z"/></svg>