<svg xmlns="http://www.w3.org/2000/svg" viewBox="0 0 640 640"><!--! Font Awesome Pro 7.2.0 by @fontawesome - https://fontawesome.com License - https://fontawesome.com/license (Commercial License) Copyright 2026 Fonticons, Inc. --><path fill="currentColor" d="M96 128L176.7 128L186.3 141.6L272.1 264.1L357.9 141.6L367.5 128L448.2 128L448.2 192L400.9 192L311.3 320L400.9 448L448.2 448L448.2 512L367.5 512L357.9 498.4L272.1 375.8L186.3 498.4L176.7 512L96 512L96 448L143.3 448L232.9 320L143.3 192L96 192L96 128zM480 352L576 352L576 512L608 512L608 576L480 576L480 512L512 512L512 416L480 416L480 352z"/></svg>