<svg xmlns="http://www.w3.org/2000/svg" viewBox="0 0 640 640"><!--! Font Awesome Pro 7.2.0 by @fontawesome - https://fontawesome.com License - https://fontawesome.com/license (Commercial License) Copyright 2026 Fonticons, Inc. --><path fill="currentColor" d="M224.2 576C206.5 576 192.2 561.7 192.2 544C192.2 526.3 206.5 512 224.2 512C241.9 512 256.2 526.3 256.2 544C256.2 561.7 241.9 576 224.2 576zM384.2 576C366.5 576 352.2 561.7 352.2 544C352.2 526.3 366.5 512 384.2 512C401.9 512 416.2 526.3 416.2 544C416.2 561.7 401.9 576 384.2 576zM544.2 576C526.5 576 512.2 561.7 512.2 544C512.2 526.3 526.5 512 544.2 512C561.9 512 576.2 526.3 576.2 544C576.2 561.7 561.9 576 544.2 576zM340.8 43.6L396.3 136.2C477.1 116 525 104 539.9 100.3L422 218.2C395.9 192.1 359.9 176 320.2 176C240.7 176 176.2 240.5 176.2 320C176.2 359.8 192.3 395.8 218.4 421.8L100.5 539.7C104.2 524.8 116.2 476.9 136.5 396.1C65 353.3 22.7 327.9 9.5 320C22.7 312.1 65 286.7 136.5 243.9C116.2 163.1 104.3 115.3 100.5 100.3C115.4 104 163.3 116 244.1 136.3C286.9 64.8 312.3 22.5 320.2 9.3L340.8 43.6zM304.2 496C286.5 496 272.2 481.7 272.2 464C272.2 446.3 286.5 432 304.2 432C321.9 432 336.2 446.3 336.2 464C336.2 481.7 321.9 496 304.2 496zM464.2 496C446.5 496 432.2 481.7 432.2 464C432.2 446.3 446.5 432 464.2 432C481.9 432 496.2 446.3 496.2 464C496.2 481.7 481.9 496 464.2 496zM384.2 416C366.5 416 352.2 401.7 352.2 384C352.2 366.3 366.5 352 384.2 352C401.9 352 416.2 366.3 416.2 384C416.2 401.7 401.9 416 384.2 416zM544.2 416C526.5 416 512.2 401.7 512.2 384C512.2 366.3 526.5 352 544.2 352C561.9 352 576.2 366.3 576.2 384C576.2 401.7 561.9 416 544.2 416zM320.2 224C346.7 224 370.7 234.8 388.1 252.1L252.3 387.9C234.9 370.5 224.2 346.5 224.2 320C224.2 267 267.2 224 320.2 224zM464.2 336C446.5 336 432.2 321.7 432.2 304C432.2 286.3 446.5 272 464.2 272C481.9 272 496.2 286.3 496.2 304C496.2 321.7 481.9 336 464.2 336zM544.2 256C526.5 256 512.2 241.7 512.2 224C512.2 206.3 526.5 192 544.2 192C561.9 192 576.2 206.3 576.2 224C576.2 241.7 561.9 256 544.2 256z"/></svg>