<svg xmlns="http://www.w3.org/2000/svg" viewBox="0 0 640 640"><!--! Font Awesome Pro 7.2.0 by @fontawesome - https://fontawesome.com License - https://fontawesome.com/license (Commercial License) Copyright 2026 Fonticons, Inc. --><path fill="currentColor" d="M576.3 57L576.3 240C576.3 266.5 547.6 288 512.3 288C477 288 448.3 266.5 448.3 240C448.3 213.5 477 192 512.3 192L512.3 135L416.3 154.2L416.3 272C416.3 298.5 387.6 320 352.3 320C317 320 288.3 298.5 288.3 272C288.3 245.5 317 224 352.3 224L352.3 101.8L378 96.7C504.9 71.2 571 58 576.3 57zM96.3 64L256.3 64L256.3 128L64.3 128L64.3 64L96.3 64zM96.3 176L256.3 176L256.3 240L192.3 240L192.3 288L128.3 288L128.3 240L64.3 240L64.3 176L96.3 176zM566.9 406.6L384.3 589.3L339 544L544.3 338.7L589.5 384L566.9 406.6zM392.3 352C414.4 352 432.3 369.9 432.3 392C432.3 414.1 414.4 432 392.3 432C370.2 432 352.3 414.1 352.3 392C352.3 369.9 370.2 352 392.3 352zM496.3 536C496.3 513.9 514.2 496 536.3 496C558.4 496 576.3 513.9 576.3 536C576.3 558.1 558.4 576 536.3 576C514.2 576 496.3 558.1 496.3 536zM144.3 320C179.6 320 208.3 348.7 208.3 384L208.3 385.9C208.3 403.1 201.6 419.6 189.6 432L208.3 450.7C225.7 433.3 241.7 417.3 256.3 402.7L301.5 448C286.9 462.6 270.9 478.6 253.5 496C270.9 513.4 286.9 529.4 301.5 544L256.2 589.3C241.6 574.7 225.6 558.7 208.2 541.3L196.1 553.4C181.6 567.9 162 576 141.5 576C98.8 576 64.2 541.4 64.2 498.7C64.2 478.2 72.3 458.6 86.8 444.1L99 432C87 419.7 80.3 403.2 80.3 385.9L80.3 384C80.3 348.7 109 320 144.3 320zM133 372.7C126.8 378.9 126.8 389.1 133 395.3L144.3 406.6L155.6 395.3C161.8 389.1 161.8 378.9 155.6 372.7C149.4 366.5 139.2 366.5 133 372.7zM147.1 474.4L144.3 471.6C144 471.9 139 476.9 129.4 486.5C126.2 489.7 124.3 494.1 124.3 498.7C124.3 508.2 132 516 141.6 516C146.2 516 150.6 514.2 153.8 510.9C163.4 501.3 168.4 496.3 168.7 496L165.9 493.2L147.2 474.5z"/></svg>