<svg xmlns="http://www.w3.org/2000/svg" viewBox="0 0 640 640"><!--! Font Awesome Pro 7.2.0 by @fontawesome - https://fontawesome.com License - https://fontawesome.com/license (Commercial License) Copyright 2026 Fonticons, Inc. --><path fill="currentColor" d="M544 544L96 544L96 96L544 96L544 544zM160 480L288 480L288 416L160 416L160 480zM352 480L480 480L480 416L352 416L352 480zM256 352L288 352L288 288L256 288L256 352zM448 352L480 352L480 288L448 288L448 352zM352 352L384 352L384 288L352 288L352 352zM160 352L192 352L192 288L160 288L160 352zM160 224L288 224L288 160L160 160L160 224zM352 224L480 224L480 160L352 160L352 224z"/></svg>