<svg xmlns="http://www.w3.org/2000/svg" viewBox="0 0 640 640"><!--! Font Awesome Pro 7.2.0 by @fontawesome - https://fontawesome.com License - https://fontawesome.com/license (Commercial License) Copyright 2026 Fonticons, Inc. --><path fill="currentColor" d="M161 191L228.4 123.6C266.6 85.4 318.4 64 372.4 64C484.9 64 576.1 155.2 576.1 267.6C576.1 314 560.3 358.7 531.6 394.6C508 377.8 479.2 367.9 448.1 367.9C417 367.9 388.2 377.8 364.7 394.5L161 191zM304 512C304 523 305.2 533.7 307.6 544L288 544L232 488L144 576L64 496L152 408L96 352L96 256L127 225L330.6 428.6C313.9 452.1 304 480.9 304 512zM448 416C501 416 544 459 544 512C544 565 501 608 448 608C395 608 352 565 352 512C352 459 395 416 448 416z"/></svg>