<svg xmlns="http://www.w3.org/2000/svg" viewBox="0 0 640 640"><!--! Font Awesome Pro 7.2.0 by @fontawesome - https://fontawesome.com License - https://fontawesome.com/license (Commercial License) Copyright 2026 Fonticons, Inc. --><path fill="currentColor" d="M32 128L608 128L608 512L32 512L32 128zM96 192L96 288L320 288L320 192L96 192zM120 416L96 416L96 464L280 464L280 416L120 416zM376 416L352 416L352 464L544 464L544 416L376 416zM528 256C528 220.7 499.3 192 464 192C428.7 192 400 220.7 400 256C400 291.3 428.7 320 464 320C499.3 320 528 291.3 528 256zM120 376C133.3 376 144 365.3 144 352C144 338.7 133.3 328 120 328C106.7 328 96 338.7 96 352C96 365.3 106.7 376 120 376zM224 352C224 338.7 213.3 328 200 328C186.7 328 176 338.7 176 352C176 365.3 186.7 376 200 376C213.3 376 224 365.3 224 352zM280 376C293.3 376 304 365.3 304 352C304 338.7 293.3 328 280 328C266.7 328 256 338.7 256 352C256 365.3 266.7 376 280 376z"/></svg>