<svg xmlns="http://www.w3.org/2000/svg" viewBox="0 0 640 640"><!--! Font Awesome Pro 7.2.0 by @fontawesome - https://fontawesome.com License - https://fontawesome.com/license (Commercial License) Copyright 2026 Fonticons, Inc. --><path fill="currentColor" d="M64 320C64 178.6 178.6 64 320 64C461.4 64 576 178.6 576 320C576 461.4 461.4 576 320 576C178.6 576 64 461.4 64 320zM384 416C384 380.7 355.3 352 320 352C305.5 352 292.2 356.8 281.5 364.9L172.4 299.4L147.7 340.6L256.8 406.1C256.3 409.3 256 412.7 256 416C256 451.3 284.7 480 320 480C355.3 480 384 451.3 384 416z"/></svg>