<svg xmlns="http://www.w3.org/2000/svg" viewBox="0 0 640 640"><!--! Font Awesome Pro 7.2.0 by @fontawesome - https://fontawesome.com License - https://fontawesome.com/license (Commercial License) Copyright 2026 Fonticons, Inc. --><path fill="currentColor" d="M433.4 103.1L615 287.1L631.6 304L614.9 320.9L425.2 512.9L408.3 530L374.2 496.3L391.1 479.2L564.2 304.1L399.3 137L382.4 119.9L416.6 86.2L433.5 103.3zM64.3 320L64.3 96L288.3 96L496.3 304L272.3 528L64.3 320zM208.3 208C208.3 190.3 194 176 176.3 176C158.6 176 144.3 190.3 144.3 208C144.3 225.7 158.6 240 176.3 240C194 240 208.3 225.7 208.3 208z"/></svg>