<svg xmlns="http://www.w3.org/2000/svg" viewBox="0 0 640 640"><!--! Font Awesome Pro 7.2.0 by @fontawesome - https://fontawesome.com License - https://fontawesome.com/license (Commercial License) Copyright 2026 Fonticons, Inc. --><path fill="currentColor" d="M160.3 96L160.3 327L224.3 311L224.3 96L288.3 96L288.3 295L352.3 279L352.3 96L416.3 96L416.3 263L480.3 247L480.3 96L544.3 96L544.3 231C559.3 227.2 577.8 222.6 599.6 217.2L615.1 279.3C595.9 284.1 572.3 290 544.3 297L544.3 544L480.3 544L480.3 313L416.3 329L416.3 544L352.3 544L352.3 345L288.3 361L288.3 544L224.3 544L224.3 377L160.3 393L160.3 544L96.3 544L96.3 409C81.3 412.8 62.8 417.4 41 422.8L25.5 360.7C44.7 355.9 68.4 350 96.3 343L96.3 96L160.3 96z"/></svg>