<svg xmlns="http://www.w3.org/2000/svg" viewBox="0 0 640 640"><!--! Font Awesome Pro 7.2.0 by @fontawesome - https://fontawesome.com License - https://fontawesome.com/license (Commercial License) Copyright 2026 Fonticons, Inc. --><path fill="currentColor" d="M416 64L224 64L224 128L143 128C142.3 130.9 131.6 173.6 111 256L64 256L64 544L160 544L160 480L480 480L480 544L576 544L576 256L529 256C508.4 173.6 497.7 130.9 497 128L416 128L416 64zM447 192L463 256L177 256L193 192L447 192zM160 336C177.7 336 192 350.3 192 368C192 385.7 177.7 400 160 400C142.3 400 128 385.7 128 368C128 350.3 142.3 336 160 336zM448 368C448 350.3 462.3 336 480 336C497.7 336 512 350.3 512 368C512 385.7 497.7 400 480 400C462.3 400 448 385.7 448 368z"/></svg>