<svg xmlns="http://www.w3.org/2000/svg" viewBox="0 0 640 640"><!--! Font Awesome Pro 7.2.0 by @fontawesome - https://fontawesome.com License - https://fontawesome.com/license (Commercial License) Copyright 2026 Fonticons, Inc. --><path fill="currentColor" d="M32 64L416 64L416 144L304 144L304 160L96 160L96 288L208 288L208 304.1L176 304.1L176 480L144 480L144 544L64 544L64 480L32 480L32 64zM160 384C160 366.3 145.7 352 128 352C110.3 352 96 366.3 96 384C96 401.7 110.3 416 128 416C145.7 416 160 401.7 160 384zM320.1 223.9L352 224L352 192L480 192L480 224.3C502.7 224.4 521.4 224.4 536.1 224.4C536.6 226.3 548.8 268.8 572.7 352L608 352L608 576L544 576L544 528L288 528L288 576L224 576L224 352L259.3 352C283.2 268.5 295.4 225.8 295.9 223.8L320.1 223.9zM506.1 352L487.8 288.3L344 287.9L325.7 351.9L506 351.9zM352 447.5C352 429.8 337.7 415.5 320 415.5C302.3 415.5 288 429.8 288 447.5C288 465.2 302.3 479.5 320 479.5C337.7 479.5 352 465.2 352 447.5zM512 479.5C529.7 479.5 544 465.2 544 447.5C544 429.8 529.7 415.5 512 415.5C494.3 415.5 480 429.8 480 447.5C480 465.2 494.3 479.5 512 479.5z"/></svg>