<svg xmlns="http://www.w3.org/2000/svg" viewBox="0 0 640 640"><!--! Font Awesome Pro 7.2.0 by @fontawesome - https://fontawesome.com License - https://fontawesome.com/license (Commercial License) Copyright 2026 Fonticons, Inc. --><path fill="currentColor" d="M160.2 120C160.2 143 174 162.7 193.9 171.4C192.8 178.1 192.2 185 192.2 192C192.2 262.7 249.5 320 320.2 320C390.9 320 448.2 262.7 448.2 192C448.2 185 447.6 178.1 446.5 171.4C466.3 162.8 480.2 143 480.2 120C480.2 89.1 455.1 64 424.2 64C401.9 64 382.6 77.1 373.6 96L266.9 96C257.9 77.1 238.6 64 216.3 64C185.4 64 160.3 89.1 160.3 120zM448.2 432.1C511.6 398.2 560.1 339.9 580.9 269.7L488.9 242.3C467.3 315 399.9 368 320.2 368C240.5 368 173.2 315 151.5 242.3L59.5 269.7C80.4 339.8 128.8 398.2 192.2 432.1L192.2 480L160.2 480L160.2 448L64.2 448L64.2 576L576.2 576L576.2 448L480.2 448L480.2 480L448.2 480L448.2 432.1zM256.2 480C256.2 444.7 284.9 416 320.2 416C355.5 416 384.2 444.7 384.2 480L256.2 480zM272.2 156C283.2 156 292.2 165 292.2 176C292.2 187 283.2 196 272.2 196C261.2 196 252.2 187 252.2 176C252.2 165 261.2 156 272.2 156zM348.2 176C348.2 165 357.2 156 368.2 156C379.2 156 388.2 165 388.2 176C388.2 187 379.2 196 368.2 196C357.2 196 348.2 187 348.2 176zM320.2 256C302.5 256 288.2 245.3 288.2 232C288.2 218.7 302.5 208 320.2 208C337.9 208 352.2 218.7 352.2 232C352.2 245.3 337.9 256 320.2 256z"/></svg>