<svg xmlns="http://www.w3.org/2000/svg" viewBox="0 0 640 640"><!--! Font Awesome Pro 7.2.0 by @fontawesome - https://fontawesome.com License - https://fontawesome.com/license (Commercial License) Copyright 2026 Fonticons, Inc. --><path fill="currentColor" d="M177.4 257C234.6 199.8 264.2 170.2 266.4 168L232.4 134.1C223.4 143.1 207.4 159.1 184.4 182.1L184.4 56L136.4 56L136.4 182.1C113.4 159.1 97.4 143.1 88.4 134.1L54.5 168C56.6 170.1 86.3 199.8 143.5 257L160.5 274L177.5 257zM480.4 274C482.5 271.9 512.2 242.2 569.4 185L586.4 168L552.5 134.1C543.5 143.1 527.5 159.1 504.5 182.1L504.5 56L456.5 56L456.5 182.1C433.5 159.1 417.5 143.1 408.5 134.1L374.5 168C376.6 170.1 406.3 199.8 463.5 257L480.5 274zM126.2 341.3L96.5 576L319.4 576L319.4 416L416.5 576L544.5 576L514.8 341.3L319.4 224L126.3 341.3z"/></svg>