<svg xmlns="http://www.w3.org/2000/svg" viewBox="0 0 640 640"><!--! Font Awesome Pro 7.2.0 by @fontawesome - https://fontawesome.com License - https://fontawesome.com/license (Commercial License) Copyright 2026 Fonticons, Inc. --><path fill="currentColor" d="M96 96L608 96L608 224C581.5 224 560 245.5 560 272C560 298.5 581.5 320 608 320L608 448L96 448L96 320C122.5 320 144 298.5 144 272C144 245.5 122.5 224 96 224L96 96zM464 208L464 336L240 336L240 208L464 208zM240 160L192 160L192 384L512 384L512 160L240 160zM48 216L48 496L512 496L512 544L0 544L0 192L48 192L48 216z"/></svg>