<svg xmlns="http://www.w3.org/2000/svg" viewBox="0 0 640 640"><!--! Font Awesome Pro 7.2.0 by @fontawesome - https://fontawesome.com License - https://fontawesome.com/license (Commercial License) Copyright 2026 Fonticons, Inc. --><path fill="currentColor" d="M576 128L64 128L64 512L576 512L576 128zM236.1 369.9L286.1 320C247.3 281.2 225 258.9 219.2 253.1L253.1 219.2L320 286.1C358.8 247.3 381.1 225 386.9 219.2L420.8 253.1C415 258.9 392.7 281.2 353.9 320C392.7 358.8 415 381.1 420.8 386.9L386.9 420.8C381.1 415 358.8 392.7 320 353.9C281.2 392.7 258.9 415 253.1 420.8L219.2 386.9L236.2 369.9z"/></svg>