<svg xmlns="http://www.w3.org/2000/svg" viewBox="0 0 640 640"><!--! Font Awesome Pro 7.2.0 by @fontawesome - https://fontawesome.com License - https://fontawesome.com/license (Commercial License) Copyright 2026 Fonticons, Inc. --><path fill="currentColor" d="M208.4 80L48.4 80L48.4 240L96.4 240L96.4 288L32.4 288L32.4 352L224.4 352L224.4 400L176.4 400L176.4 560L336.4 560L336.4 400L288.4 400L288.4 352L512.4 352L512.4 425.9C538.5 399.8 568.2 370.1 601.4 336.9L618.4 319.9C602.1 303.6 520.3 221.8 512.5 214L512.5 287.9L416.5 287.9L416.5 239.9L464.5 239.9L464.5 79.9L304.5 79.9L304.5 239.9L352.5 239.9L352.5 287.9L160.5 287.9L160.5 239.9L208.5 239.9L208.5 79.9z"/></svg>