<svg xmlns="http://www.w3.org/2000/svg" viewBox="0 0 640 640"><!--! Font Awesome Pro 7.2.0 by @fontawesome - https://fontawesome.com License - https://fontawesome.com/license (Commercial License) Copyright 2026 Fonticons, Inc. --><path fill="currentColor" d="M267.8 160L325.4 256L192 256L192 160L267.8 160zM332.5 448L433.7 448C427.6 460 424.1 473.6 424.1 488C424.1 536.6 463.5 576 512.1 576C560.7 576 600.1 536.6 600.1 488C600.1 455.3 582.3 426.8 555.8 411.6L608.1 368L608.1 256L512.1 256L512.1 160L464.1 160L464.1 256L400.1 256L304.1 96L128.1 96L128.1 287C126.2 287.9 124.4 288.9 122.5 289.9L107.2 274.6L50.6 331.2L65.9 346.5C60.8 355.8 56.6 365.7 53.6 376.1L32 376.1L32 456.1L53.6 456.1C56.6 466.5 60.7 476.4 65.9 485.7L50.6 501L107.2 557.6L122.5 542.3C131.8 547.4 141.7 551.6 152.1 554.6L152.1 576.2L232.1 576.2L232.1 554.6C242.5 551.6 252.4 547.5 261.7 542.3L277 557.6L333.6 501L318.3 485.7C324.7 474.1 329.6 461.5 332.6 448.1zM192 480C156.7 480 128 451.3 128 416C128 380.7 156.7 352 192 352C227.3 352 256 380.7 256 416C256 451.3 227.3 480 192 480zM552 488C552 510.1 534.1 528 512 528C489.9 528 472 510.1 472 488C472 465.9 489.9 448 512 448C534.1 448 552 465.9 552 488z"/></svg>