<svg xmlns="http://www.w3.org/2000/svg" viewBox="0 0 640 640"><!--! Font Awesome Pro 7.2.0 by @fontawesome - https://fontawesome.com License - https://fontawesome.com/license (Commercial License) Copyright 2026 Fonticons, Inc. --><path fill="currentColor" d="M264 480C264 510.9 289.1 536 320 536C350.9 536 376 510.9 376 480C376 449.1 350.9 424 320 424C289.1 424 264 449.1 264 480zM320 264C289.1 264 264 289.1 264 320C264 350.9 289.1 376 320 376C350.9 376 376 350.9 376 320C376 289.1 350.9 264 320 264zM264 160C264 190.9 289.1 216 320 216C350.9 216 376 190.9 376 160C376 129.1 350.9 104 320 104C289.1 104 264 129.1 264 160zM160 32L480 32L480 608L160 608L160 32zM296 160C296 146.7 306.7 136 320 136C333.3 136 344 146.7 344 160C344 173.3 333.3 184 320 184C306.7 184 296 173.3 296 160zM320 296C333.3 296 344 306.7 344 320C344 333.3 333.3 344 320 344C306.7 344 296 333.3 296 320C296 306.7 306.7 296 320 296z"/></svg>