<svg xmlns="http://www.w3.org/2000/svg" viewBox="0 0 640 640"><!--! Font Awesome Pro 7.2.0 by @fontawesome - https://fontawesome.com License - https://fontawesome.com/license (Commercial License) Copyright 2026 Fonticons, Inc. --><path fill="currentColor" d="M480 32L160 32L160 608L480 608L480 32zM320 424C350.9 424 376 449.1 376 480C376 510.9 350.9 536 320 536C289.1 536 264 510.9 264 480C264 449.1 289.1 424 320 424zM376 320C376 350.9 350.9 376 320 376C289.1 376 264 350.9 264 320C264 289.1 289.1 264 320 264C350.9 264 376 289.1 376 320zM320 216C289.1 216 264 190.9 264 160C264 129.1 289.1 104 320 104C350.9 104 376 129.1 376 160C376 190.9 350.9 216 320 216zM344 320C344 306.7 333.3 296 320 296C306.7 296 296 306.7 296 320C296 333.3 306.7 344 320 344C333.3 344 344 333.3 344 320zM320 504C333.3 504 344 493.3 344 480C344 466.7 333.3 456 320 456C306.7 456 296 466.7 296 480C296 493.3 306.7 504 320 504z"/></svg>