<svg xmlns="http://www.w3.org/2000/svg" viewBox="0 0 640 640"><!--! Font Awesome Pro 7.2.0 by @fontawesome - https://fontawesome.com License - https://fontawesome.com/license (Commercial License) Copyright 2026 Fonticons, Inc. --><path fill="currentColor" d="M320 64C178.6 64 64 178.6 64 320L64 576L158.1 576L222.1 512L176 512L176 192L464 192L464 512L417.9 512L481.9 576L576 576L576 320C576 178.6 461.4 64 320 64zM414.1 576L350.1 512L290 512L226 576L414.1 576zM352 448C352 430.3 337.7 416 320 416C302.3 416 288 430.3 288 448C288 465.7 302.3 480 320 480C337.7 480 352 465.7 352 448zM416 256L224 256L224 384L416 384L416 256z"/></svg>