<svg xmlns="http://www.w3.org/2000/svg" viewBox="0 0 640 640"><!--! Font Awesome Pro 7.2.0 by @fontawesome - https://fontawesome.com License - https://fontawesome.com/license (Commercial License) Copyright 2026 Fonticons, Inc. --><path fill="currentColor" d="M352.2 32C369.9 32 384.2 46.3 384.2 64C384.2 81.7 369.9 96 352.2 96C334.5 96 320.2 81.7 320.2 64C320.2 46.3 334.5 32 352.2 32zM224.2 88C224.2 70.3 238.5 56 256.2 56C273.9 56 288.2 70.3 288.2 88C288.2 105.7 273.9 120 256.2 120C238.5 120 224.2 105.7 224.2 88zM96.2 288L296.2 288L296.2 191.8L102.8 247.1L79.7 253.7L66.5 207.5L89.6 200.9C462.9 94.2 276.3 147.6 537.6 72.9L560.7 66.3L573.9 112.5L550.8 119.1L344.2 178.1L344.2 288L544.2 288L544.2 576L96.2 576L96.2 288zM360.2 352L280.2 352L280.2 448L360.2 448L360.2 352zM408.2 352L408.2 448L480.2 448L480.2 352L408.2 352zM160.2 352L160.2 448L232.2 448L232.2 352L160.2 352z"/></svg>