<svg xmlns="http://www.w3.org/2000/svg" viewBox="0 0 640 640"><!--! Font Awesome Pro 7.2.0 by @fontawesome - https://fontawesome.com License - https://fontawesome.com/license (Commercial License) Copyright 2026 Fonticons, Inc. --><path fill="currentColor" d="M264 88C264 57.1 289.1 32 320 32C350.9 32 376 57.1 376 88C376 118.9 350.9 144 320 144C289.1 144 264 118.9 264 88zM252.6 176L387.4 176L397 189.2C471.3 291.6 508.5 342.8 508.7 343.1L456.9 380.7C447.6 367.9 428.6 341.7 400 302.3L400 512L336 512L336 400L304 400L304 512L240 512L240 302.3C211.4 341.7 192.4 367.9 183.1 380.7L131.3 343.1L150.1 317.2L243 189.2L252.6 176zM336 560L480 560L480 608L160 608L160 560L336 560zM144 176L96 192L80 240L64 192L16 176L64 160L80 112L96 160L144 176zM576 96L624 112L576 128L560 176L544 128L496 112L544 96L560 48L576 96z"/></svg>