<svg xmlns="http://www.w3.org/2000/svg" viewBox="0 0 640 640"><!--! Font Awesome Pro 7.2.0 by @fontawesome - https://fontawesome.com License - https://fontawesome.com/license (Commercial License) Copyright 2026 Fonticons, Inc. --><path fill="currentColor" d="M320 144C350.9 144 376 118.9 376 88C376 57.1 350.9 32 320 32C289.1 32 264 57.1 264 88C264 118.9 289.1 144 320 144zM268.9 176L252.6 176L243 189.2L150.1 317.2L131.3 343.1L183.1 380.7C192.4 367.9 211.4 341.7 240 302.3L240 368L400 368L400 302.3C428.6 341.7 447.6 367.9 456.9 380.7L508.7 343.1C508.5 342.9 471.3 291.5 397 189.2L387.4 176L268.9 176zM400 560L160 560L160 608L480 608L480 560L400 560zM576 224L560 176L544 224L496 240L544 256L560 304L576 256L624 240L576 224zM96 416L80 368L64 416L16 432L64 448L80 496L96 448L144 432L96 416zM224 416L224 448L416 448L416 416L224 416zM224 480L224 512L416 512L416 480L224 480z"/></svg>