<svg xmlns="http://www.w3.org/2000/svg" viewBox="0 0 640 640"><!--! Font Awesome Pro 7.2.0 by @fontawesome - https://fontawesome.com License - https://fontawesome.com/license (Commercial License) Copyright 2026 Fonticons, Inc. --><path fill="currentColor" d="M400 48L416 96L544 96L544 160L96 160L96 96L224 96L240 48L400 48zM128 208L512 208L488 576L152 576L128 208zM404.9 333.1L371 299.2C362.5 307.7 345.5 324.7 320.1 350.1C294.6 324.6 277.7 307.7 269.2 299.2L235.3 333.1C243.8 341.6 260.8 358.6 286.2 384C260.7 409.5 243.8 426.4 235.3 434.9L269.2 468.8C277.7 460.3 294.7 443.3 320.1 417.9C345.6 443.4 362.5 460.3 371 468.8L404.9 434.9C396.4 426.4 379.4 409.4 354 384C379.5 358.5 396.4 341.6 404.9 333.1z"/></svg>