<svg xmlns="http://www.w3.org/2000/svg" viewBox="0 0 640 640"><!--! Font Awesome Pro 7.2.0 by @fontawesome - https://fontawesome.com License - https://fontawesome.com/license (Commercial License) Copyright 2026 Fonticons, Inc. --><path fill="currentColor" d="M64.3 30.2C70.3 36.2 92.2 58.1 130.1 96L224.1 96L240.1 48L400.1 48L416.1 96L544.1 96L544.1 160L194.1 160L242.1 208L512.1 208L512.1 478L593.3 559.2L610.3 576.2L576.4 610.1L559.4 593.1L47.4 81.1L30.4 64.1L64.3 30.2zM448.1 414L448.1 272L400.1 272L400.1 366L448.1 414zM296.1 397.9L296.1 512.1L344.1 512.1L344.1 445.9L474.3 576.1L128.1 576.1L128.1 229.9L192.1 293.9L192.1 512.1L240.1 512.1L240.1 341.9L296.1 397.9z"/></svg>