<svg xmlns="http://www.w3.org/2000/svg" viewBox="0 0 640 640"><!--! Font Awesome Pro 7.2.0 by @fontawesome - https://fontawesome.com License - https://fontawesome.com/license (Commercial License) Copyright 2026 Fonticons, Inc. --><path fill="currentColor" d="M64 96L480 96L480 192L557.3 192L566.7 201.4L630.7 265.4L640.1 274.8L640.1 512.1L572.8 512.1C562.4 549 528.4 576.1 488.1 576.1C447.8 576.1 413.9 549 403.4 512.1L300.8 512.1C290.4 549 256.4 576.1 216.1 576.1C175.8 576.1 141.9 549 131.4 512.1L64.1 512.1L64.1 400.1L.1 400.1L.1 352.1L160.1 352.1L160.1 304.1L.1 304.1L.1 256.1L224.1 256.1L224.1 208.1L.1 208.1L.1 160.1L64.1 160.1L64.1 96.1zM576 352L576 301.3L530.7 256L480 256L480 352L576 352zM256 488C256 465.9 238.1 448 216 448C193.9 448 176 465.9 176 488C176 510.1 193.9 528 216 528C238.1 528 256 510.1 256 488zM488 528C510.1 528 528 510.1 528 488C528 465.9 510.1 448 488 448C465.9 448 448 465.9 448 488C448 510.1 465.9 528 488 528z"/></svg>