<svg xmlns="http://www.w3.org/2000/svg" viewBox="0 0 640 640"><!--! Font Awesome Pro 7.2.0 by @fontawesome - https://fontawesome.com License - https://fontawesome.com/license (Commercial License) Copyright 2026 Fonticons, Inc. --><path fill="currentColor" d="M448 224L448 320L536.4 320L488.4 224L448 224zM384 320L384 160L528 160L608 320L608 480L540.7 480C530.3 516.9 496.3 544 456 544C415.7 544 381.8 516.9 371.3 480L268.7 480C258.3 516.9 224.3 544 184 544C143.7 544 109.8 516.9 99.3 480L32 480L32 320L384 320zM224 456C224 433.9 206.1 416 184 416C161.9 416 144 433.9 144 456C144 478.1 161.9 496 184 496C206.1 496 224 478.1 224 456zM456 496C478.1 496 496 478.1 496 456C496 433.9 478.1 416 456 416C433.9 416 416 433.9 416 456C416 478.1 433.9 496 456 496z"/></svg>