<svg xmlns="http://www.w3.org/2000/svg" viewBox="0 0 640 640"><!--! Font Awesome Pro 7.2.0 by @fontawesome - https://fontawesome.com License - https://fontawesome.com/license (Commercial License) Copyright 2026 Fonticons, Inc. --><path fill="currentColor" d="M608 96L32 96L32 544L608 544L608 96zM256 160C344.4 160 416 231.6 416 320C416 408.4 344.4 480 256 480C167.6 480 96 408.4 96 320C96 231.6 167.6 160 256 160zM544 176L544 358.1L541.1 363.5C503 433.3 483.2 469.7 481.6 472.6L439.5 449.6C441.6 445.8 460.4 411.2 496.1 345.9L496.1 176L544.1 176zM256 352C273.7 352 288 337.7 288 320C288 302.3 273.7 288 256 288C238.3 288 224 302.3 224 320C224 337.7 238.3 352 256 352z"/></svg>