<svg xmlns="http://www.w3.org/2000/svg" viewBox="0 0 640 640"><!--! Font Awesome Pro 7.2.0 by @fontawesome - https://fontawesome.com License - https://fontawesome.com/license (Commercial License) Copyright 2026 Fonticons, Inc. --><path fill="currentColor" d="M416 352L64 352L64 272C64 174.8 142.8 96 240 96C337.2 96 416 174.8 416 272L416 352zM608 352L512 352L512 448L384 448L384 544L256 544L256 448L224 448L224 544L96 544L96 448L32 448L32 384L448 384L448 176L512 176C565 176 608 219 608 272L608 352zM528 288C536.8 288 544 280.8 544 272C544 263.2 536.8 256 528 256C519.2 256 512 263.2 512 272C512 280.8 519.2 288 528 288z"/></svg>