<svg xmlns="http://www.w3.org/2000/svg" viewBox="0 0 640 640"><!--! Font Awesome Pro 7.2.0 by @fontawesome - https://fontawesome.com License - https://fontawesome.com/license (Commercial License) Copyright 2026 Fonticons, Inc. --><path fill="currentColor" d="M544 160L544 400L96 400L96 160L544 160zM96 96L32 96L32 464L608 464L608 96L96 96zM160 512L160 576L480 576L480 512L160 512zM408 192L320 192L320 257.8C314.9 256.6 309.5 256 304 256C268.7 256 240 281.1 240 312C240 342.9 268.7 368 304 368C339.3 368 368 342.9 368 312L368 240L408 240L408 192z"/></svg>