<svg xmlns="http://www.w3.org/2000/svg" viewBox="0 0 640 640"><!--! Font Awesome Pro 7.2.0 by @fontawesome - https://fontawesome.com License - https://fontawesome.com/license (Commercial License) Copyright 2026 Fonticons, Inc. --><path fill="currentColor" d="M352 32L352 66C478.3 81.7 576 189.5 576 320L64 320C64 189.5 161.7 81.7 288 66L288 32L352 32zM352 491.9C352 538.4 314.3 576 267.9 576C239.8 576 213.5 561.9 197.9 538.5L197.4 537.7L179.6 511.1L232.9 475.6L250.7 502.2L251.2 503C254.9 508.6 261.2 512 267.9 512C279 512 288 503 288 491.9L288 368L352 368L352 491.9z"/></svg>