<svg xmlns="http://www.w3.org/2000/svg" viewBox="0 0 640 640"><!--! Font Awesome Pro 7.2.0 by @fontawesome - https://fontawesome.com License - https://fontawesome.com/license (Commercial License) Copyright 2026 Fonticons, Inc. --><path fill="currentColor" d="M180 64L237.7 64L307.6 208.7L253 352L144 352L144 197.1L96 284.4L96 480.1L0 480.1L0 259.8L5.9 249L93.9 89L107.6 64.1L180 64.1zM144 416L144 384L496 384L496 416L349.9 416L392 479.2L400.9 492.5L374.3 510.3L365.4 497L320 428.9L274.6 497L265.7 510.3L239.1 492.5C239.5 491.9 256.5 466.4 290.1 416L144 416zM221.3 461.5L194.7 501.4L274.6 554.7C293.7 526.1 308.8 503.4 320 486.6C331.2 503.4 346.4 526.1 365.4 554.7L445.3 501.4C424.6 470.4 412.7 452.6 409.7 448L496 448L496 576L144 576L144 448L230.3 448L221.3 461.5zM496 197.1L496 352L287.2 352C321.6 261.7 358.2 165.7 396.9 64L532.3 64L546 88.9L634 248.9L639.9 259.7L639.9 480L543.9 480L543.9 284.3L495.9 197z"/></svg>