<svg xmlns="http://www.w3.org/2000/svg" viewBox="0 0 640 640"><!--! Font Awesome Pro 7.2.0 by @fontawesome - https://fontawesome.com License - https://fontawesome.com/license (Commercial License) Copyright 2026 Fonticons, Inc. --><path fill="currentColor" d="M400 160L32 160L32 480L400 480L400 160zM608 192L448 192L448 448L608 448L608 192zM528 296C514.7 296 504 285.3 504 272C504 258.7 514.7 248 528 248C541.3 248 552 258.7 552 272C552 285.3 541.3 296 528 296zM552 368C552 381.3 541.3 392 528 392C514.7 392 504 381.3 504 368C504 354.7 514.7 344 528 344C541.3 344 552 354.7 552 368z"/></svg>