<svg xmlns="http://www.w3.org/2000/svg" viewBox="0 0 640 640"><!--! Font Awesome Pro 7.2.0 by @fontawesome - https://fontawesome.com License - https://fontawesome.com/license (Commercial License) Copyright 2026 Fonticons, Inc. --><path fill="currentColor" d="M256 312C322.3 312 376 258.3 376 192C376 125.7 322.3 72 256 72C189.7 72 136 125.7 136 192C136 258.3 189.7 312 256 312zM272 419.2L272 368L112 368L48 576L330.3 576C293.4 533.2 272 477.9 272 419.2zM494 594.8C563.3 564 608 495.2 608 419.3L608 368.1L464 320.1L320 368.1L320 419.3C320 495.2 364.7 563.9 434 594.8L464 608.1L494 594.8zM464 555.6L464 370.7L560 402.7L560 419.3C560 476.2 526.5 527.8 474.5 550.9L464 555.6z"/></svg>