<svg xmlns="http://www.w3.org/2000/svg" viewBox="0 0 640 640"><!--! Font Awesome Pro 7.2.0 by @fontawesome - https://fontawesome.com License - https://fontawesome.com/license (Commercial License) Copyright 2026 Fonticons, Inc. --><path fill="currentColor" d="M192 88L192 208C192 278.7 249.3 336 320 336C390.7 336 448 278.7 448 208L448 88L320 32L192 88zM240 208L240 192L400 192L400 208C400 252.2 364.2 288 320 288C275.8 288 240 252.2 240 208zM320 448L256 384L176 384L112 576L528 576L464 384L384 384L320 448zM304 72L336 72L336 96L360 96L360 128L336 128L336 152L304 152L304 128L280 128L280 96L304 96L304 72z"/></svg>