<svg xmlns="http://www.w3.org/2000/svg" viewBox="0 0 640 640"><!--! Font Awesome Pro 7.2.0 by @fontawesome - https://fontawesome.com License - https://fontawesome.com/license (Commercial License) Copyright 2026 Fonticons, Inc. --><path fill="currentColor" d="M81.2 47.1L64.2 30.1L30.3 64L47.3 81L559.3 593L576.3 610L610.2 576.1L593.2 559.1L322.1 288C378.6 286.9 424.1 240.8 424.1 184C424.1 126.6 377.5 80 320.1 80C263.3 80 217.2 125.5 216.1 182L81.2 47.1zM485 352L453.8 352L635 533.2C636.2 534.4 637.3 535.6 638.3 536.9L592 352L485 352zM59.9 161.7C38.4 174.2 24 197.4 24 224C24 263.8 56.2 296 96 296C122.6 296 145.8 281.6 158.3 260.1L59.9 161.7zM234.2 336L208 336L160 544L442.2 544L234.2 336zM110.7 544L113.2 533.2L155 352L48 352L0 544L110.7 544zM616 224C616 184.2 583.8 152 544 152C504.2 152 472 184.2 472 224C472 263.8 504.2 296 544 296C583.8 296 616 263.8 616 224z"/></svg>