<svg xmlns="http://www.w3.org/2000/svg" viewBox="0 0 640 640"><!--! Font Awesome Pro 7.2.0 by @fontawesome - https://fontawesome.com License - https://fontawesome.com/license (Commercial License) Copyright 2026 Fonticons, Inc. --><path fill="currentColor" d="M256 320C326.7 320 384 262.7 384 192C384 121.3 326.7 64 256 64C185.3 64 128 121.3 128 192C128 262.7 185.3 320 256 320zM364.1 576L304 515.9L304 368L112 368L48 576L364.1 576zM352 352.1L352 496.1L496 640.1L640 496.1L496 352.1L352 352.1zM432 408C445.3 408 456 418.7 456 432C456 445.3 445.3 456 432 456C418.7 456 408 445.3 408 432C408 418.7 418.7 408 432 408z"/></svg>