<svg xmlns="http://www.w3.org/2000/svg" viewBox="0 0 640 640"><!--! Font Awesome Pro 7.2.0 by @fontawesome - https://fontawesome.com License - https://fontawesome.com/license (Commercial License) Copyright 2026 Fonticons, Inc. --><path fill="currentColor" d="M256 72C322.3 72 376 125.7 376 192C376 258.3 322.3 312 256 312C189.7 312 136 258.3 136 192C136 125.7 189.7 72 256 72zM272 464C272 505.8 285.4 544.5 308 576L48 576L112 368L297.7 368C281.4 396.2 272 429 272 464zM320 464C320 384.5 384.5 320 464 320C543.5 320 608 384.5 608 464C608 543.5 543.5 608 464 608C384.5 608 320 543.5 320 464zM544 480L544 448L384 448L384 480L544 480z"/></svg>