<svg xmlns="http://www.w3.org/2000/svg" viewBox="0 0 640 640"><!--! Font Awesome Pro 7.2.0 by @fontawesome - https://fontawesome.com License - https://fontawesome.com/license (Commercial License) Copyright 2026 Fonticons, Inc. --><path fill="currentColor" d="M400 192C400 174 394 157.4 384 144L384 144L320 192L240 192L240 208C240 252.2 275.8 288 320 288C364.2 288 400 252.2 400 208L400 192zM448 192L448 240L496 336L144 336L192 240L192 192C192 121.3 249.3 64 320 64C390.7 64 448 121.3 448 192zM320 448L384 384L464 384L528 576L112 576L176 384L256 384L320 448z"/></svg>