<svg xmlns="http://www.w3.org/2000/svg" viewBox="0 0 640 640"><!--! Font Awesome Pro 7.2.0 by @fontawesome - https://fontawesome.com License - https://fontawesome.com/license (Commercial License) Copyright 2026 Fonticons, Inc. --><path fill="currentColor" d="M136.4 192C136.4 125.7 190.1 72 256.4 72C322.7 72 376.4 125.7 376.4 192C376.4 258.3 322.7 312 256.4 312C190.1 312 136.4 258.3 136.4 192zM400.4 368L464.4 576L48.4 576L112.4 368L400.4 368zM528.4 181.2C510.7 181.2 496.4 195.5 496.4 213.2L454 213.2C454 172.1 487.3 138.8 528.4 138.8C569.5 138.8 602.8 172.1 602.8 213.2C602.8 246.7 580 272.2 549.6 282.8L549.6 301.1L507.2 301.1L507.2 247.6L510.5 247.1C531.6 244.1 560.4 240 560.4 213.1C560.4 195.4 546.1 181.1 528.4 181.1zM504.4 328L552.4 328L552.4 376L504.4 376L504.4 328z"/></svg>