<svg xmlns="http://www.w3.org/2000/svg" viewBox="0 0 640 640"><!--! Font Awesome Pro 7.2.0 by @fontawesome - https://fontawesome.com License - https://fontawesome.com/license (Commercial License) Copyright 2026 Fonticons, Inc. --><path fill="currentColor" d="M56 80L608 80L608 128L32 128L32 80L56 80zM56 528L608 528L608 576L32 576L32 528L56 528zM424 256C424 225.1 449.1 200 480 200C510.9 200 536 225.1 536 256C536 286.9 510.9 312 480 312C449.1 312 424 286.9 424 256zM439.9 352L528 352L576 480L482.6 480L477.5 464.8L439.9 352zM200 352L162.4 464.8L157.3 480L63.9 480L111.9 352L200 352zM104 256C104 225.1 129.1 200 160 200C190.9 200 216 225.1 216 256C216 286.9 190.9 312 160 312C129.1 312 104 286.9 104 256zM256 240C256 204.7 284.7 176 320 176C355.3 176 384 204.7 384 240C384 275.3 355.3 304 320 304C284.7 304 256 275.3 256 240zM384 336L432 480L208 480L256 336L384 336z"/></svg>