<svg xmlns="http://www.w3.org/2000/svg" viewBox="0 0 640 640"><!--! Font Awesome Pro 7.2.0 by @fontawesome - https://fontawesome.com License - https://fontawesome.com/license (Commercial License) Copyright 2026 Fonticons, Inc. --><path fill="currentColor" d="M144 80L144 112L176 131.2L176 176C176 176 181.8 178.8 192 182.7L192 240L144 336L496 336L448 240L448 182.7C458.2 178.8 464 176 464 176L464 131.2L496 112L496 80L320 32L144 80zM240 197.7C263.2 203.4 290.9 208 320 208C349.1 208 376.8 203.4 400 197.7L400 208C400 252.2 364.2 288 320 288C275.8 288 240 252.2 240 208L240 197.7zM256 384L176 384L112 576L528 576L464 384L384 384L320 448L256 384zM264.8 90.5C269.9 93.1 288.3 102.3 320 118.1C351.7 102.3 370 93.1 375.2 90.5L389.5 119.1C385.6 121.1 364.8 131.5 327.2 150.3L320 153.9L312.8 150.3C275.2 131.5 254.4 121.1 250.5 119.1L264.8 90.5zM400 480L448 480L448 512L384 512L384 480L400 480z"/></svg>