<svg xmlns="http://www.w3.org/2000/svg" viewBox="0 0 640 640"><!--! Font Awesome Pro 7.2.0 by @fontawesome - https://fontawesome.com License - https://fontawesome.com/license (Commercial License) Copyright 2026 Fonticons, Inc. --><path fill="currentColor" d="M192 88L320 32L448 88L448 240L496 336L144 336L192 240L192 88zM400 208L400 192L240 192L240 208C240 252.2 275.8 288 320 288C364.2 288 400 252.2 400 208zM320 448L384 384L464 384L528 576L112 576L176 384L256 384L320 448zM304 72L304 96L280 96L280 128L304 128L304 152L336 152L336 128L360 128L360 96L336 96L336 72L304 72z"/></svg>