<svg xmlns="http://www.w3.org/2000/svg" viewBox="0 0 640 640"><!--! Font Awesome Pro 7.2.0 by @fontawesome - https://fontawesome.com License - https://fontawesome.com/license (Commercial License) Copyright 2026 Fonticons, Inc. --><path fill="currentColor" d="M338.7 144L430 144C419.3 119.4 400.5 99.1 377.1 86.4L338.7 144zM337.8 73.3C332 72.4 326 72 320 72C270.8 72 228.5 101.6 210 144L290.6 144L337.7 73.3zM320 312C386.3 312 440 258.3 440 192L200 192C200 258.3 253.7 312 320 312zM528 576L464 384L237.5 384L282.5 464L448 464L448 576L528 576zM182.5 384L176 384L112 576L290.5 576L182.5 384zM345.5 576L400 576L400 512L309.5 512L345.5 576z"/></svg>