<svg xmlns="http://www.w3.org/2000/svg" viewBox="0 0 640 640"><!--! Font Awesome Pro 7.2.0 by @fontawesome - https://fontawesome.com License - https://fontawesome.com/license (Commercial License) Copyright 2026 Fonticons, Inc. --><path fill="currentColor" d="M240 208L240 176L304 176L320 128L336 176L400 176L400 208C400 252.2 364.2 288 320 288C275.8 288 240 252.2 240 208zM448 208L448 176L464 176L464 128L437.2 128C419.2 90.2 380.7 64 336 64L304 64C259.3 64 220.8 90.2 202.8 128L176 128L176 176L192 176L192 208C192 233.1 199.3 256.6 211.8 276.4L176 336L464 336L428.2 276.4C440.7 256.6 448 233.1 448 208zM380 431.4L380 384L260 384L260 452.4C276.5 460 288 476.7 288 496C288 522.5 266.5 544 240 544C213.5 544 192 522.5 192 496C192 476.6 203.5 459.9 220 452.4L220 384L176 384L112 576L528 576L464 384L420 384L420 431.4C443.3 439.6 460 461.9 460 488L460 540L420 540L420 488C420 477 411 468 400 468C389 468 380 477 380 488L380 540L340 540L340 488C340 461.9 356.7 439.7 380 431.4z"/></svg>