<svg xmlns="http://www.w3.org/2000/svg" viewBox="0 0 640 640"><!--! Font Awesome Pro 7.2.0 by @fontawesome - https://fontawesome.com License - https://fontawesome.com/license (Commercial License) Copyright 2026 Fonticons, Inc. --><path fill="currentColor" d="M144 80L144 112L176 131.2L176 176C176 176 181.8 178.8 192 182.7L192 240L144 336L496 336L448 240L448 182.7C458.2 178.8 464 176 464 176L464 131.2L496 112L496 80L320 32L144 80zM320.2 288L319.8 288C275.7 287.9 240 252.1 240 208L240 197.7C263.2 203.4 290.9 208 320 208C349.1 208 376.8 203.4 400 197.7L400 208C400 252.1 364.3 287.9 320.2 288zM368 368L272 368L272 392L303.4 428.7L272 544L232 384L176 384L112 576L528 576L464 384L408 384L368 544L367.4 544L336.4 428.9L368 392L368 368zM264.8 90.5C269.9 93.1 288.3 102.3 320 118.1C351.7 102.3 370 93.1 375.2 90.5L389.5 119.1C385.6 121.1 364.8 131.5 327.2 150.3L320 153.9L312.8 150.3C275.2 131.5 254.4 121.1 250.5 119.1L264.8 90.5zM432 480L464 480L464 512L416 512L416 480L432 480z"/></svg>