<svg xmlns="http://www.w3.org/2000/svg" viewBox="0 0 640 640"><!--! Font Awesome Pro 7.2.0 by @fontawesome - https://fontawesome.com License - https://fontawesome.com/license (Commercial License) Copyright 2026 Fonticons, Inc. --><path fill="currentColor" d="M81.3 47.1L64.3 30.1L30.4 64L47.4 81L559.4 593L576.4 610L610.3 576.1L593.3 559.1L298.1 263.9C302 254 304.1 243.2 304.1 231.9C304.1 225.8 303.5 219.8 302.2 213.8L288 62.5L256.1 62.5L242.8 208.7L218 183.9L208 62.7L176.1 62.7L170 136L131.1 97.1L128 62.6L96.6 62.6L81.2 47.2zM544.1 442.2L544.1 64C496.1 64 384.1 96 384.1 240L384.1 282.2L544.1 442.2zM84.6 186.3L82 213.8C80.8 219.7 80.1 225.8 80.1 231.9C80.1 277.8 115.2 315.5 160.1 319.6L160.1 576L224.1 576L224.1 325.8L84.6 186.3z"/></svg>