<svg xmlns="http://www.w3.org/2000/svg" viewBox="0 0 640 640"><!--! Font Awesome Pro 7.2.0 by @fontawesome - https://fontawesome.com License - https://fontawesome.com/license (Commercial License) Copyright 2026 Fonticons, Inc. --><path fill="currentColor" d="M352 64L352 128L448 128L448 96L496 96L496 128L528 128L528 96L576 96L576 192L507.3 192L352 295.5L352 320L448 320L448 288L496 288L496 320L528 320L528 288L576 288L576 384L507.3 384L352 487.5L352 576L288 576L288 487.5L132.7 384L64 384L64 288L112 288L112 320L144 320L144 288L192 288L192 320L288 320L288 295.5L132.7 192L64 192L64 96L112 96L112 128L144 128L144 96L192 96L192 128L288 128L288 64L352 64zM219.3 192L288 237.8L288 192L219.3 192zM352 237.8L420.7 192L352 192L352 237.8zM219.3 384L288 429.8L288 384L219.3 384zM352 429.8L420.7 384L352 384L352 429.8z"/></svg>