<svg xmlns="http://www.w3.org/2000/svg" viewBox="0 0 640 640"><!--! Font Awesome Pro 7.2.0 by @fontawesome - https://fontawesome.com License - https://fontawesome.com/license (Commercial License) Copyright 2026 Fonticons, Inc. --><path fill="currentColor" d="M400.4 160L416.4 160L512.4 256L512.4 576L128.4 576L128.4 160L176.4 160L176.4 64L400.4 64L400.4 160zM374.5 312L266.4 312L224.5 270.1L190.6 304L232.5 345.9L232.5 422L190.6 463.9L224.5 497.8L266.4 455.9L374.5 455.9L416.4 497.8L450.3 463.9L408.4 422L408.4 345.9L450.3 304L416.4 270.1L374.5 312zM360.4 408L280.4 408L280.4 360L360.4 360L360.4 408zM578.4 192L544.5 225.9L446.6 128L480.5 94.1L578.4 192zM224.4 160L352.4 160L352.4 112L224.4 112L224.4 160z"/></svg>