<svg xmlns="http://www.w3.org/2000/svg" viewBox="0 0 640 640"><!--! Font Awesome Pro 7.2.0 by @fontawesome - https://fontawesome.com License - https://fontawesome.com/license (Commercial License) Copyright 2026 Fonticons, Inc. --><path fill="currentColor" d="M512 128L249.9 128L174.5 480L224.1 480L224.1 576L128.8 576C128.4 576 127.9 576 127.5 576L0 576L0 528L48 480L109 480L192.7 89.3L198.1 64L512 64C582.7 64 640 121.3 640 192C640 234.8 619 272.7 586.7 296C600.3 322.4 608 352.3 608 384L608 576L468.7 576C495.3 552.5 512 518.2 512 480C512 409.3 454.7 352 384 352C373 352 362.2 353.4 352 356L352 192L416 192C467.2 192 513.8 212.1 548.2 244.8C565 233.3 576 213.9 576 192C576 156.7 547.3 128 512 128zM384 384C437 384 480 427 480 480C480 533 437 576 384 576C331 576 288 533 288 480C288 427 331 384 384 384zM384 512C401.7 512 416 497.7 416 480C416 462.3 401.7 448 384 448C366.3 448 352 462.3 352 480C352 497.7 366.3 512 384 512z"/></svg>