<svg xmlns="http://www.w3.org/2000/svg" viewBox="0 0 640 640"><!--! Font Awesome Pro 7.2.0 by @fontawesome - https://fontawesome.com License - https://fontawesome.com/license (Commercial License) Copyright 2026 Fonticons, Inc. --><path fill="currentColor" d="M32 128L496 128L505.6 140.8L601.6 268.8L608 277.3L608 464L543.6 464C539.6 508.9 501.9 544 456 544C410.1 544 372.4 508.9 368.4 464L271.7 464C267.7 508.9 230 544 184.1 544C138.2 544 100.5 508.9 96.5 464L32 464L32 128zM416 288L536 288L464 192L416 192L416 288zM496 456C496 433.9 478.1 416 456 416C433.9 416 416 433.9 416 456C416 478.1 433.9 496 456 496C478.1 496 496 478.1 496 456zM184 496C206.1 496 224 478.1 224 456C224 433.9 206.1 416 184 416C161.9 416 144 433.9 144 456C144 478.1 161.9 496 184 496z"/></svg>