<svg xmlns="http://www.w3.org/2000/svg" viewBox="0 0 640 640"><!--! Font Awesome Pro 7.2.0 by @fontawesome - https://fontawesome.com License - https://fontawesome.com/license (Commercial License) Copyright 2026 Fonticons, Inc. --><path fill="currentColor" d="M96 64L64 64L64 128L96 128L96 480C96 533 139 576 192 576C245 576 288 533 288 480L288 128L352 128L352 480C352 533 395 576 448 576C501 576 544 533 544 480L544 128L576 128L576 64L96 64zM224 128L224 256L160 256L160 128L224 128zM480 128L480 256L416 256L416 128L480 128z"/></svg>