<svg xmlns="http://www.w3.org/2000/svg" viewBox="0 0 640 640"><!--! Font Awesome Pro 7.2.0 by @fontawesome - https://fontawesome.com License - https://fontawesome.com/license (Commercial License) Copyright 2026 Fonticons, Inc. --><path fill="currentColor" d="M64 320C64 365.2 75.7 407.6 96.2 444.5L111.9 348.7L112.9 342.8L116.5 338L227.7 192.4L144.9 133.2C95.1 179.9 64 246.3 64 320zM199.4 545.9L210.3 434.4L210.9 427.8L214.8 422.5L292.4 317L256.2 234.3L158.3 362.5L136.1 498.2C154.5 517.2 175.8 533.4 199.4 546zM245.8 565.1C269.3 572.2 294.2 576 320.1 576C413.4 576 495 526.1 539.7 451.6L449 485.9L443.4 488L437.4 487.2L255.7 463.7L245.8 565.1zM566.3 390.2C572.6 367.9 576 344.3 576 320C576 317.2 576 314.4 575.9 311.6L474 357.9L468 360.6L461.4 359.9L331.2 345.4L277.7 418.2L437.6 438.9L566.3 390.2zM426.2 307.7L364.2 158.8L257.7 71.6C231.6 78.1 207 88.7 184.8 102.6L275.9 167.8L281.3 171.6L283.9 177.6L336.5 297.6L426.3 307.6zM569.4 261.8C543.3 149.7 443.7 65.9 324.2 64L399.2 125.4L403.8 129.2L406.1 134.7L476.6 303.8L569.3 261.7z"/></svg>