<svg xmlns="http://www.w3.org/2000/svg" viewBox="0 0 640 640"><!--! Font Awesome Pro 7.2.0 by @fontawesome - https://fontawesome.com License - https://fontawesome.com/license (Commercial License) Copyright 2026 Fonticons, Inc. --><path fill="currentColor" d="M240 32L240 128L288 128L288 96L352 96L352 128L384 128L384 96L448 96L448 128L512 128L512 352L480 416L480 576L160 576L160 416L128 352L128 128L192 128L192 32L240 32zM248 208L224 208L224 256L416 256L416 208L248 208zM248 304L224 304L224 352L416 352L416 304L248 304z"/></svg>