<svg xmlns="http://www.w3.org/2000/svg" viewBox="0 0 640 640"><!--! Font Awesome Pro 7.2.0 by @fontawesome - https://fontawesome.com License - https://fontawesome.com/license (Commercial License) Copyright 2026 Fonticons, Inc. --><path fill="currentColor" d="M449.3 481.7L561.1 526.4C590.4 516.6 611.2 509.7 623.6 505.6L638.8 551.1C629.2 554.3 602.9 563.1 559.7 577.5L551.5 574.2L440.4 529.8L320.4 577.8L200.4 529.8L89.3 574.2L81.1 577.5C37.9 563.2 11.6 554.4 2 551.2L17.2 505.7C29.6 509.8 50.4 516.7 79.6 526.5L191.4 481.8L200.3 478.2L320.3 526.2L440.3 478.2L449.2 481.8zM193.2 353C192.6 357.9 192.3 362.9 192.3 368C192.3 380.2 194 391.9 197.2 403.1L89.2 446.3L81 449.6C37.9 435.2 11.6 426.4 2 423.2L17.2 377.7C29.6 381.8 50.4 388.7 79.6 398.5L191.4 353.8L193.2 353.1zM449.2 353.7L561 398.4C590.3 388.6 611.1 381.7 623.5 377.6L638.7 423.1C629.1 426.3 602.8 435.1 559.6 449.5L551.4 446.2L443.4 403C446.6 391.9 448.3 380.1 448.3 367.9C448.3 362.8 448 357.8 447.4 352.9L449.2 353.6zM416.3 128L352.3 128L352.3 160L416.3 160L416.3 224L352.3 224L352.3 294.7C380.5 307 400.3 335.2 400.3 368C400.3 412.2 364.5 448 320.3 448C276.1 448 240.3 412.2 240.3 368C240.3 335.2 260.1 307 288.3 294.7L288.3 64L416.3 64L416.3 128z"/></svg>