<svg xmlns="http://www.w3.org/2000/svg" viewBox="0 0 640 640"><!--! Font Awesome Pro 7.2.0 by @fontawesome - https://fontawesome.com License - https://fontawesome.com/license (Commercial License) Copyright 2026 Fonticons, Inc. --><path fill="currentColor" d="M224 448C224 439 221.5 430.6 217.2 423.4L289.5 294.1L301.1 273.3L280.4 261.5C250 244.2 233.5 208.2 242.4 172.6C253.1 129.7 296.5 103.6 339.4 114.3C375 123.2 399.1 154.6 400 189.6L400.7 213.6L448.7 212.2L448 188.2C446.4 132.2 408 81.9 351 67.7C282.4 50.6 212.9 92.4 195.8 161C183.6 209.8 201.3 259 237.1 289.5L175.4 400C149.2 400.4 128.1 421.7 128.1 448C128.1 474.5 149.6 496 176.1 496C202.6 496 224.1 474.5 224.1 448zM361.3 216.5C365.6 209.3 368 201 368 192C368 165.5 346.5 144 320 144C293.5 144 272 165.5 272 192C272 218.3 293.2 239.7 319.5 240L392.1 369.1L403.9 390L424.8 378.2C455.3 361 494.7 365.5 520.6 391.4C551.8 422.6 551.8 473.3 520.6 504.5C494.7 530.4 455.3 534.9 424.8 517.7L403.9 505.9L380.3 547.7L401.2 559.5C450 587 512.9 580 554.5 538.4C604.5 488.4 604.5 407.4 554.5 357.4C519 321.9 467.8 311.6 423.3 326.5L361.3 216.3zM464 496C490.5 496 512 474.5 512 448C512 421.5 490.5 400 464 400C446.2 400 430.7 409.7 422.4 424L256 424L256 448C256 482.8 233.1 514.8 198 524.9C155.5 537.1 111.2 512.5 99 470C88.9 434.7 104.1 398.2 133.9 379.8L154.3 367.2L129.1 326.3L108.7 338.9C61 368.2 36.6 426.7 52.8 483.2C72.3 551.2 143.2 590.4 211.1 571C259.1 557.2 292.8 517.8 301.6 472L422.3 472C430.6 486.3 446.1 496 463.9 496z"/></svg>