<svg xmlns="http://www.w3.org/2000/svg" viewBox="0 0 640 640"><!--! Font Awesome Pro 7.2.0 by @fontawesome - https://fontawesome.com License - https://fontawesome.com/license (Commercial License) Copyright 2026 Fonticons, Inc. --><path fill="currentColor" d="M320.3 336C369.3 336 413.2 358.1 442.6 392.8L488.5 348C447.5 301.4 387.3 272 320.3 272C253.3 272 193.2 301.4 152.1 348L198 392.8C227.3 358.1 271.2 336 320.3 336zM320.3 160C418.7 160 507.3 202.3 568.7 269.8L614.5 225.1C541.5 145.7 436.7 96 320.3 96C203.9 96 99.1 145.7 26 225.1L71.8 269.8C133.3 202.3 221.8 160 320.3 160zM320.3 544C346.8 544 368.3 522.5 368.3 496C368.3 469.5 346.8 448 320.3 448C293.8 448 272.3 469.5 272.3 496C272.3 522.5 293.8 544 320.3 544z"/></svg>