<svg xmlns="http://www.w3.org/2000/svg" viewBox="0 0 640 640"><!--! Font Awesome Pro 7.2.0 by @fontawesome - https://fontawesome.com License - https://fontawesome.com/license (Commercial License) Copyright 2026 Fonticons, Inc. --><path fill="currentColor" d="M64.5 30.2C65.1 30.8 97.8 63.5 162.6 128.3C211 107.5 264.3 96 320.3 96C436.7 96 541.5 145.7 614.6 225.1L568.8 269.8C507.3 202.4 418.8 160 320.4 160C282.6 160 246.2 166.3 212.2 177.8L306.8 272.4C311.3 272.1 315.8 272 320.4 272C352.2 272 382.4 278.6 409.7 290.5L409.7 290.5C440.1 303.7 466.9 323.5 488.5 348L442.6 392.8L434.8 400.4L593.5 559.1L610.5 576.1L576.6 610L559.6 593L47.6 81L30.6 64L64.5 30.1zM250.5 352C230.3 361.8 212.4 375.8 198.1 392.8L152.1 348C166.9 331.2 184.2 316.6 203.4 304.9L250.5 352zM77 178.5L122.7 224.2C104.2 237.6 87.2 252.9 71.9 269.8L26 225.1C41.6 208.2 58.7 192.6 77 178.5zM272.3 496C272.3 469.5 293.8 448 320.3 448C346.8 448 368.3 469.5 368.3 496C368.3 522.5 346.8 544 320.3 544C293.8 544 272.3 522.5 272.3 496z"/></svg>