<svg xmlns="http://www.w3.org/2000/svg" viewBox="0 0 640 640"><!--! Font Awesome Pro 7.2.0 by @fontawesome - https://fontawesome.com License - https://fontawesome.com/license (Commercial License) Copyright 2026 Fonticons, Inc. --><path fill="currentColor" d="M280 224L320 184L360 224L320 264L280 224zM320 576C461.4 576 576 461.4 576 320C576 178.6 461.4 64 320 64C178.6 64 64 178.6 64 320C64 461.4 178.6 576 320 576zM320 128C373 128 416 171 416 224C416 277 373 320 320 320C267 320 224 363 224 416C224 469 267 512 320 512C214 512 128 426 128 320C128 214 214 128 320 128zM280 416L320 376L360 416L320 456L280 416z"/></svg>