<svg xmlns="http://www.w3.org/2000/svg" viewBox="0 0 640 640"><!--! Font Awesome Pro 7.2.0 by @fontawesome - https://fontawesome.com License - https://fontawesome.com/license (Commercial License) Copyright 2026 Fonticons, Inc. --><path fill="currentColor" d="M176 96C114.1 96 64 146.1 64 208L64 432C64 493.9 114.1 544 176 544C237.9 544 288 493.9 288 432L288 208C288 146.1 237.9 96 176 96zM112 208C112 172.7 140.7 144 176 144C211.3 144 240 172.7 240 208L240 432C240 467.3 211.3 496 176 496C140.7 496 112 467.3 112 432L112 208zM464 96C402.1 96 352 146.1 352 208L352 432C352 493.9 402.1 544 464 544C525.9 544 576 493.9 576 432L576 208C576 146.1 525.9 96 464 96zM400 208C400 172.7 428.7 144 464 144C499.3 144 528 172.7 528 208L528 432C528 467.3 499.3 496 464 496C428.7 496 400 467.3 400 432L400 208z"/></svg>