<svg xmlns="http://www.w3.org/2000/svg" viewBox="0 0 640 640"><!--! Font Awesome Pro 7.2.0 by @fontawesome - https://fontawesome.com License - https://fontawesome.com/license (Commercial License) Copyright 2026 Fonticons, Inc. --><path fill="currentColor" d="M356 344L208 344L208 296L356 296C398 296 432 262 432 220C432 178 398 144 356 144L160 144L160 96L356 96C424.5 96 480 151.5 480 220C480 261 460.1 297.4 429.3 320C460 342.6 480 379 480 420C480 488.5 424.5 544 356 544L160 544L160 496L356 496C398 496 432 462 432 420C432 378 398 344 356 344z"/></svg>