<svg xmlns="http://www.w3.org/2000/svg" viewBox="0 0 640 640"><!--! Font Awesome Pro 7.2.0 by @fontawesome - https://fontawesome.com License - https://fontawesome.com/license (Commercial License) Copyright 2026 Fonticons, Inc. --><path fill="currentColor" d="M192 64L320 64L320 176L192 176L192 64zM192 272C165.5 272 144 293.5 144 320L144 528L368 528L368 320C368 293.5 346.5 272 320 272L192 272zM96 320C96 267 139 224 192 224L320 224C373 224 416 267 416 320L416 576L96 576L96 320zM256 336C291.3 336 320 364.7 320 400C320 435.3 291.3 464 256 464C220.7 464 192 435.3 192 400C192 364.7 220.7 336 256 336zM416 96L432 64L448 96L480 112L448 128L432 160L416 128L384 112L416 96zM448 208L480 192L496 160L512 192L544 208L512 224L496 256L480 224L448 208zM560 64L576 96L608 112L576 128L560 160L544 128L512 112L544 96L560 64zM512 304L544 288L560 256L576 288L608 304L576 320L560 352L544 320L512 304z"/></svg>