<svg xmlns="http://www.w3.org/2000/svg" viewBox="0 0 640 640"><!--! Font Awesome Pro 7.2.0 by @fontawesome - https://fontawesome.com License - https://fontawesome.com/license (Commercial License) Copyright 2026 Fonticons, Inc. --><path fill="currentColor" d="M216.3 64L192.3 64L192.3 112L448.3 112L448.3 64L216.3 64zM168.3 160L144.3 160L144.3 208L496.3 208L496.3 160L168.3 160zM121.5 256L73 256L79.9 304L80.9 310.8L112.9 534.8L118.8 576L522.1 576L528 534.8L560 310.8L561 304L567.9 256L121.7 256zM128.4 304L512.4 304L480.4 528L160.4 528L128.4 304zM434.6 416C434.6 371.8 383.4 336 320.3 336C257.2 336 206 371.8 206 416C206 460.2 257.2 496 320.3 496C383.4 496 434.6 460.2 434.6 416zM352.3 416C352.3 428.4 338 438.4 320.3 438.4C302.6 438.4 288.3 428.4 288.3 416C288.3 403.6 302.6 393.6 320.3 393.6C338 393.6 352.3 403.6 352.3 416z"/></svg>