<svg xmlns="http://www.w3.org/2000/svg" viewBox="0 0 640 640"><!--! Font Awesome Pro 7.2.0 by @fontawesome - https://fontawesome.com License - https://fontawesome.com/license (Commercial License) Copyright 2026 Fonticons, Inc. --><path fill="currentColor" d="M84.1 224.1C91.1 214 99.7 205.2 109.6 197.9C115.2 214.5 122.2 229.7 130.2 243.4C118.9 255 112 270.8 112 288.2C112 296.4 113.6 304.5 116.6 312.1L141.9 375.4L145.4 384L142.1 392.7L121.5 447.5L118.8 454.8L120.9 462.3L139.1 527.9L188.9 527.9L171.3 464.5L169.2 457L171.9 449.7L187.7 407.6C190.5 400.1 192 392.2 192 384.1C192 383.7 192 383.2 192 382.8L191.3 350.1C202.8 353.5 242.6 365.1 310.6 385C312.7 385.6 314.8 386.1 316.9 386.6L335.9 390.6L335.9 527.8L383.9 527.8L383.9 371.9L391.2 364.8C406.3 350 415.9 329.5 415.9 306C415.9 294.8 413.7 284.3 409.7 274.6L407.9 270.2L407.9 223.7L449.8 223.7C450.9 224.8 462.7 236.6 485.2 259.1L527.9 240.1L527.9 179L483.1 111.7L439.9 111.7C386.9 111.7 343.1 151.4 336.7 202.7L334.1 223.7L289.2 223.7L283.4 220.2L181.2 157.8C190.7 196.7 211.4 224.7 232.3 244.2C246.6 257.6 260.9 267 271.7 273C277 276 281.4 278.1 284.4 279.5C285.9 280.2 287 280.6 287.7 280.9L288.4 281.2L288.4 281.2L280 303.7C271.6 326.2 271.6 326.2 271.5 326.2L271.5 326.2L271.4 326.2L271.2 326.1L270.7 325.9C270.3 325.8 269.9 325.6 269.3 325.3C268.1 324.8 266.5 324.1 264.4 323.2C260.4 321.4 254.7 318.6 248.1 314.9C234.8 307.4 217.2 295.8 199.5 279.2C163.8 245.7 127.9 191.7 127.9 111.7L127.9 68.9C136.7 74.5 192.3 108.5 294.7 171.1C313.9 109.1 371.7 64 440 64L560 64L560 112L540.8 112L551.5 128L640 128L640 144L576 165.3L576 271.6L561.7 277.9C504.2 303.5 475.2 316.3 474.6 316.6L463.9 305.9L463.9 306.2C463.9 339.4 451.7 369.1 431.9 391.7L431.9 575.9L287.9 575.9L287.9 428.4L236.1 413.3C235.1 417.1 233.9 420.8 232.5 424.5L219.5 459.3C238.2 526.1 249 565 252.1 576L102.6 576C102.4 575.2 93.1 541.6 74.6 475.3C71.5 464 69.4 456.5 68.3 452.7C69.5 449.4 82.2 415.7 93.8 384.6L72 329.9C66.7 316.6 64 302.5 64 288.2C64 285.3 64.1 282.5 64.3 279.7C54.4 287 48 298.7 48 311.9L48 399.9L0 399.9L0 311.9C0 264.6 37.3 226 84.1 224zM448 160C448 151.2 455.2 144 464 144C472.8 144 480 151.2 480 160C480 168.8 472.8 176 464 176C455.2 176 448 168.8 448 160z"/></svg>