<svg xmlns="http://www.w3.org/2000/svg" viewBox="0 0 640 640"><!--! Font Awesome Pro 7.2.0 by @fontawesome - https://fontawesome.com License - https://fontawesome.com/license (Commercial License) Copyright 2026 Fonticons, Inc. --><path fill="currentColor" d="M176 96L176 120L224 120L224 192L416 192L416 120L464 120L464 96L512 96L512 168L464 168L464 224L512 224L512 304L560 304L560 192L608 192L608 352L544 352L544 448L480 448L480 544L352 544L352 496L432 496L432 448L208 448L208 496L288 496L288 544L160 544L160 448L96 448L96 352L32 352L32 192L80 192L80 304L128 304L128 224L176 224L176 168L128 168L128 96L176 96zM224 240L224 272L176 272L176 352L144 352L144 400L496 400L496 352L464 352L464 272L416 272L416 240L224 240zM224 288L288 288L288 368L224 368L224 288zM416 288L416 368L352 368L352 288L416 288z"/></svg>