<svg xmlns="http://www.w3.org/2000/svg" viewBox="0 0 640 640"><!--! Font Awesome Pro 7.2.0 by @fontawesome - https://fontawesome.com License - https://fontawesome.com/license (Commercial License) Copyright 2026 Fonticons, Inc. --><path fill="currentColor" d="M320 112C222.8 112 144 190.8 144 288C144 355.2 187.3 415.2 240 462.2C265.5 485 291.2 502.9 310.6 515.2C313.9 517.3 317.1 519.2 320 521C322.9 519.2 326 517.3 329.4 515.2C348.8 502.9 374.5 485 400 462.2C452.7 415.2 496 355.3 496 288C496 190.8 417.2 112 320 112zM96 288C96 164.3 196.3 64 320 64C443.7 64 544 164.3 544 288C544 464 320 576 320 576C320 576 96 464 96 288zM336 368C336 323.8 371.8 288 416 288L464 288L464 304C464 348.2 428.2 384 384 384L336 384L336 368zM224 288C268.2 288 304 323.8 304 368L304 384L256 384C211.8 384 176 348.2 176 304L176 288L224 288z"/></svg>