<svg xmlns="http://www.w3.org/2000/svg" viewBox="0 0 640 640"><!--! Font Awesome Pro 7.2.0 by @fontawesome - https://fontawesome.com License - https://fontawesome.com/license (Commercial License) Copyright 2026 Fonticons, Inc. --><path fill="currentColor" d="M224.4 174.3C224.4 190 230.3 205 240.9 216.5L275.5 254L321.1 227.9C340.4 216.9 352.4 196.3 352.4 174C352.4 139.7 324.6 111.9 290.3 111.9L286.6 111.9C252.2 111.9 224.3 139.8 224.3 174.2zM345 269.6L309 290.2L413.5 403.4C459.6 361.7 485.1 338.6 490.1 334.1L522.3 369.7C517.2 374.3 491.8 397.3 446 438.7C493.3 489.9 518.7 517.5 522.3 521.3L487 553.9C483.5 550.1 457.9 522.4 410.4 470.9L336.5 537.8L329.6 544L256.4 544C185.7 544 128.4 486.7 128.4 416L128.4 413.7C128.4 366.9 153.5 323.8 194.1 300.6L232.8 278.5L205.7 249.1C186.9 228.7 176.4 202 176.4 174.3C176.4 113.4 225.8 64 286.7 64L290.4 64C351.2 64 400.5 113.3 400.5 174.1C400.5 213.6 379.3 250.1 345 269.7zM256.4 496L311.2 496L377.9 435.6L266.2 314.6L217.9 342.2C192.3 356.9 176.4 384.1 176.4 413.7L176.4 416C176.4 460.2 212.2 496 256.4 496z"/></svg>