<svg xmlns="http://www.w3.org/2000/svg" viewBox="0 0 640 640"><!--! Font Awesome Pro 7.2.0 by @fontawesome - https://fontawesome.com License - https://fontawesome.com/license (Commercial License) Copyright 2026 Fonticons, Inc. --><path fill="currentColor" d="M328 152C328 174.1 310.1 192 288 192C265.9 192 248 174.1 248 152C248 129.9 265.9 112 288 112C310.1 112 328 129.9 328 152zM288 64C239.4 64 200 103.4 200 152C200 192.3 227.1 226.2 264 236.7L264 512L136 512L136 348.9C153.2 363.9 167.2 376.2 178.3 385.9L209.9 349.8C205.5 346 178.2 322 127.8 278L112 264.1C109.5 266.3 82.9 289.6 32.2 333.9L14.1 349.7L45.7 385.8C56.7 376.2 70.8 363.8 88 348.8L88 559.9L329.7 559.9C313.4 531.7 304 498.9 304 463.9C304 444.8 306.8 426.3 312 408.9L312 236.6C348.9 226.2 376 192.2 376 151.9C376 103.3 336.6 63.9 288 63.9zM496 608C575.5 608 640 543.5 640 464C640 384.5 575.5 320 496 320C416.5 320 352 384.5 352 464C352 543.5 416.5 608 496 608zM551.3 431.3L518.6 464L562.6 508L540 530.6C536 526.6 521.4 512 496 486.6L452 530.6L429.4 508C433.4 504 448 489.4 473.4 464C448.1 438.7 433.4 424 429.4 420L452 397.4L496 441.4C521.3 416 536 401.4 540 397.4L562.6 420L551.3 431.3z"/></svg>