<svg xmlns="http://www.w3.org/2000/svg" viewBox="0 0 640 640"><!--! Font Awesome Pro 7.2.0 by @fontawesome - https://fontawesome.com License - https://fontawesome.com/license (Commercial License) Copyright 2026 Fonticons, Inc. --><path fill="currentColor" d="M320.4 112C298.3 112 280.4 129.9 280.4 152C280.4 174.1 298.3 192 320.4 192C342.5 192 360.4 174.1 360.4 152C360.4 129.9 342.5 112 320.4 112zM232.4 152C232.4 103.4 271.8 64 320.4 64C369 64 408.4 103.4 408.4 152C408.4 192.3 381.3 226.2 344.4 236.7L344.4 512L472.4 512L472.4 348.9C455.2 363.9 441.2 376.2 430.1 385.9L398.5 349.8C402.9 346 430.2 322 480.6 278L496.4 264.2C498.9 266.4 525.5 289.7 576.2 334L594.3 349.8L562.7 385.9C551.7 376.3 537.6 363.9 520.4 348.9L520.4 560L120.4 560L120.4 348.9C103.2 363.9 89.2 376.2 78.1 385.9L46.5 349.7C50.9 345.9 78.2 321.9 128.6 277.9L144.4 264.1C146.9 266.3 173.5 289.6 224.2 333.9L242.3 349.7L210.7 385.8C199.7 376.2 185.6 363.8 168.4 348.8L168.4 511.9L296.4 511.9L296.4 236.6C259.5 226.2 232.4 192.2 232.4 151.9z"/></svg>