<svg xmlns="http://www.w3.org/2000/svg" viewBox="0 0 640 640"><!--! Font Awesome Pro 7.2.0 by @fontawesome - https://fontawesome.com License - https://fontawesome.com/license (Commercial License) Copyright 2026 Fonticons, Inc. --><path fill="currentColor" d="M423.7 149.5C439 139 448 126 448 112C448 76.7 390.7 48 320 48C249.3 48 192 76.7 192 112C192 126 201 139 216.3 149.5C220.1 140.3 225 131.7 231 124C226.5 120.3 224 116.2 224 112C224 94.3 267 80 320 80C373 80 416 94.3 416 112C416 116.2 413.5 120.3 409 124C414.9 131.8 419.9 140.3 423.7 149.5zM320 256C355.3 256 384 227.3 384 192C384 156.7 355.3 128 320 128C284.7 128 256 156.7 256 192C256 227.3 284.7 256 320 256zM169.9 424.5L160.3 409.1L96 306.2L96 208L137.5 208L245.1 337.1L202.7 528L152.7 528C164.1 459.7 169.8 425.2 170 424.5zM398.8 576L544 576C539.9 551.6 532.1 504.4 520.4 434.5L592 320L592 160L480 160L373.3 288L266.7 288L160 160L48 160L48 320L119.6 434.5C107.9 504.4 100.1 551.6 96 576L398.8 576zM502.5 208L544 208L544 306.2L479.7 409.1L470.1 424.5L473.1 442.4L487.4 528L437.4 528L395 337.1L502.6 208zM294.5 336L345.5 336L388.2 528L251.9 528L294.6 336z"/></svg>