<svg xmlns="http://www.w3.org/2000/svg" viewBox="0 0 640 640"><!--! Font Awesome Pro 7.2.0 by @fontawesome - https://fontawesome.com License - https://fontawesome.com/license (Commercial License) Copyright 2026 Fonticons, Inc. --><path fill="currentColor" d="M240 192C240 234.7 263 273.6 291.4 304.6C301.3 315.4 311.3 324.7 320 332C328.7 324.6 338.7 315.4 348.6 304.6C377 273.5 400 234.7 400 192C400 147.8 364.2 112 320 112C275.8 112 240 147.8 240 192zM255.1 336C223.4 301.1 192 251.4 192 192C192 121.3 249.3 64 320 64C390.7 64 448 121.3 448 192C448 251.4 416.6 301.1 384.9 336L480 336L480 384L344 384L344 576L296 576L296 384L160 384L160 336L255.1 336z"/></svg>