<svg xmlns="http://www.w3.org/2000/svg" viewBox="0 0 640 640"><!--! Font Awesome Pro 7.2.0 by @fontawesome - https://fontawesome.com License - https://fontawesome.com/license (Commercial License) Copyright 2026 Fonticons, Inc. --><path fill="currentColor" d="M209.4 103L192.4 86L175.4 103L87.4 191L70.4 208L104.3 241.9C110.6 235.6 131.9 214.3 168.3 177.9L168.3 544L216.3 544L216.3 177.9C252.7 214.3 274 235.6 280.3 241.9L314.2 208L297.2 191L209.2 103zM520.4 96L352.4 96L352.4 144L462.5 144L359.5 247L352.5 254L352.5 287.9L544.5 287.9L544.5 239.9L434.4 239.9L537.4 136.9L544.4 129.9L544.4 96L520.4 96zM389.2 544L406 504L488.4 504C489.2 504 490 504 490.8 503.9L507.7 544L559.8 544L478.6 350.7L472.4 336L424.5 336L418.3 350.7L337.1 544L389.2 544zM426.2 456L448.5 402.9L470.8 456L426.2 456z"/></svg>