<svg xmlns="http://www.w3.org/2000/svg" viewBox="0 0 640 640"><!--! Font Awesome Pro 7.2.0 by @fontawesome - https://fontawesome.com License - https://fontawesome.com/license (Commercial License) Copyright 2026 Fonticons, Inc. --><path fill="currentColor" d="M320 22.1C322.1 24.2 351.8 53.9 409 111.1L426 128.1L392.1 162C383.1 153 367.1 137 344.1 114L344.1 240.1L296.1 240.1L296.1 114L248.1 162L214.2 128.1C216.3 126 246 96.3 303.2 39.1L320.2 22.1zM344 400L344 526.1C367 503.1 383 487.1 392 478.1L425.9 512C423.8 514.1 394.1 543.8 336.9 601L319.9 618C317.8 615.9 288.1 586.2 230.9 529L213.9 512L247.8 478.1C256.8 487.1 272.8 503.1 295.8 526.1L295.8 400L343.8 400zM128 288L192 288L192 352L128 352L128 288zM298.7 288L298.7 352L234.7 352L234.7 288L298.7 288zM341.4 288L405.4 288L405.4 352L341.4 352L341.4 288zM512 288L512 352L448 352L448 288L512 288z"/></svg>