<svg xmlns="http://www.w3.org/2000/svg" viewBox="0 0 640 640"><!--! Font Awesome Pro 7.2.0 by @fontawesome - https://fontawesome.com License - https://fontawesome.com/license (Commercial License) Copyright 2026 Fonticons, Inc. --><path fill="currentColor" d="M64 128L64 192L128 192L128 128L64 128zM182.1 320L199.1 337L335.1 473L352.1 490L386 456.1L369 439.1L274 344.1L576.1 344.1L576.1 296.1L274 296.1L369 201.1L386 184.1L352.1 150.2L335.1 167.2L199.1 303.2L182.1 320.2zM64 298.7L128 298.7L128 234.7L64 234.7L64 298.7zM64 341.4L64 405.4L128 405.4L128 341.4L64 341.4zM64 512L128 512L128 448L64 448L64 512z"/></svg>