<svg xmlns="http://www.w3.org/2000/svg" viewBox="0 0 640 640"><!--! Font Awesome Pro 7.2.0 by @fontawesome - https://fontawesome.com License - https://fontawesome.com/license (Commercial License) Copyright 2026 Fonticons, Inc. --><path fill="currentColor" d="M88 64L64 64L64 272L112 272L112 145.9L359 392.9L376 409.9L409.9 376L392.9 359L145.9 112L272 112L272 64L88 64zM352 176C449.2 176 528 254.8 528 352C528 449.2 449.2 528 352 528C254.8 528 176 449.2 176 352L128 352C128 475.7 228.3 576 352 576C475.7 576 576 475.7 576 352C576 228.3 475.7 128 352 128L352 176z"/></svg>