<svg xmlns="http://www.w3.org/2000/svg" viewBox="0 0 640 640"><!--! Font Awesome Pro 7.2.0 by @fontawesome - https://fontawesome.com License - https://fontawesome.com/license (Commercial License) Copyright 2026 Fonticons, Inc. --><path fill="currentColor" d="M497.3 103L480.3 86L463.3 103L375.3 191L358.3 208L392.2 241.9C398.5 235.6 419.8 214.3 456.2 177.9L456.2 320L320.2 320L320.2 96L96.2 96L96.2 320L32.2 320L32.2 460.3C47.3 465.4 62.6 470.4 78 475.6L80.2 474.7L80.2 368.1L560.2 368.1L560.2 474.7L562.5 475.6C577.9 470.5 593.1 465.4 608.2 460.4L608.2 320.1L504.2 320.1L504.2 178C540.6 214.4 561.9 235.7 568.2 242L602.1 208.1L585.1 191.1L497.1 103.1zM200.3 478.1L191.4 481.7L79.6 526.4C50.3 516.7 29.5 509.7 17.2 505.6L2 551.2C13 554.9 36.6 562.7 72.8 574.8L81.1 577.6L89.3 574.3L200.4 529.9L311.5 574.3L320.4 577.9L329.3 574.3L440.4 529.9L551.5 574.3L559.7 577.6L568 574.8L638.8 551.2L623.6 505.7C611.2 509.8 590.4 516.8 561.2 526.5L449.4 481.8L440.5 478.2L431.6 481.8L320.5 526.2L209.4 481.8L200.5 478.2z"/></svg>