<svg xmlns="http://www.w3.org/2000/svg" viewBox="0 0 640 640"><!--! Font Awesome Pro 7.2.0 by @fontawesome - https://fontawesome.com License - https://fontawesome.com/license (Commercial License) Copyright 2026 Fonticons, Inc. --><path fill="currentColor" d="M209.4 537L192.4 554L175.4 537L87.4 449L70.4 432L104.3 398.1C110.6 404.4 131.9 425.7 168.3 462.1L168.3 96L216.3 96L216.3 462.1C252.7 425.7 274 404.4 280.3 398.1L314.2 432L297.2 449L209.2 537zM408.4 96L488.4 96L488.4 240L544.4 240L544.4 288L384.4 288L384.4 240L440.4 240L440.4 144L384.4 144L384.4 96L408.4 96zM496.4 400C496.4 382.3 482.1 368 464.4 368C446.7 368 432.4 382.3 432.4 400C432.4 417.7 446.7 432 464.4 432C482.1 432 496.4 417.7 496.4 400zM464.4 320C508.6 320 544.4 355.8 544.4 400L544.4 400C544.4 425.5 536.9 450.5 523 471.9L475.8 544L418.4 544C421.3 539.5 435.3 518.2 460.4 479.9C418.1 477.8 384.4 442.8 384.4 400C384.4 355.8 420.2 320 464.4 320z"/></svg>