<svg xmlns="http://www.w3.org/2000/svg" viewBox="0 0 640 640"><!--! Font Awesome Pro 7.2.0 by @fontawesome - https://fontawesome.com License - https://fontawesome.com/license (Commercial License) Copyright 2026 Fonticons, Inc. --><path fill="currentColor" d="M128 64L192 64L192 128L128 128L128 64zM320 182.1L337 199.1L473 335.1L490 352.1L456.1 386L439.1 369L344.1 274L344.1 576.1L296.1 576.1L296.1 274L201.1 369L184.1 386L150.2 352.1L167.2 335.1L303.2 199.1L320.2 182.1zM298.7 64L298.7 128L234.7 128L234.7 64L298.7 64zM341.4 64L405.4 64L405.4 128L341.4 128L341.4 64zM512 64L512 128L448 128L448 64L512 64z"/></svg>