<svg xmlns="http://www.w3.org/2000/svg" viewBox="0 0 640 640"><!--! Font Awesome Pro 7.2.0 by @fontawesome - https://fontawesome.com License - https://fontawesome.com/license (Commercial License) Copyright 2026 Fonticons, Inc. --><path fill="currentColor" d="M367 55L279 143L262 160L279 177L367 265L384 282L417.9 248.1C411.6 241.8 390.3 220.5 353.9 184.1L496 184.1L496 288.1L544 288.1L544 136.1L353.9 136.1C390.3 99.7 411.6 78.4 417.9 72.1L384 38.1L367 55zM273 327L256 310L222.1 343.9C228.4 350.2 249.7 371.5 286.1 407.9L96 407.9L96 559.9L144 559.9L144 455.9L286.1 455.9C249.7 492.3 228.4 513.6 222.1 519.9L256 553.8L273 536.8L361 448.8L378 431.8L361 414.8L273 326.8zM544 432C544 396.7 515.3 368 480 368C444.7 368 416 396.7 416 432C416 467.3 444.7 496 480 496C515.3 496 544 467.3 544 432zM160 96C124.7 96 96 124.7 96 160C96 195.3 124.7 224 160 224C195.3 224 224 195.3 224 160C224 124.7 195.3 96 160 96z"/></svg>