<svg xmlns="http://www.w3.org/2000/svg" viewBox="0 0 640 640"><!--! Font Awesome Pro 7.2.0 by @fontawesome - https://fontawesome.com License - https://fontawesome.com/license (Commercial License) Copyright 2026 Fonticons, Inc. --><path fill="currentColor" d="M576 512L576 448L512 448L512 512L576 512zM457.9 320L440.9 303L304.9 167L287.9 150L254 183.9L271 200.9L366 295.9L63.9 295.9L63.9 343.9L366 343.9L271 438.9L254 455.9L287.9 489.8L304.9 472.8L440.9 336.8L457.9 319.8zM576 341.3L512 341.3L512 405.3L576 405.3L576 341.3zM576 298.6L576 234.6L512 234.6L512 298.6L576 298.6zM576 128L512 128L512 192L576 192L576 128z"/></svg>