<svg xmlns="http://www.w3.org/2000/svg" viewBox="0 0 640 640"><!--! Font Awesome Pro 7.2.0 by @fontawesome - https://fontawesome.com License - https://fontawesome.com/license (Commercial License) Copyright 2026 Fonticons, Inc. --><path fill="currentColor" d="M576.1 224L535.1 241L467 172.9C385.8 91.7 254.1 91.7 172.8 172.9C132.2 213.5 111.9 266.7 111.9 320C111.9 434.9 205 528 319.9 528C403 528 474.8 479.3 508.1 408.7C522.6 415.5 537 422.4 551.5 429.2C510.5 515.9 422.2 576 319.9 576C178.5 576 63.9 461.4 63.9 320C63.9 254.5 88.9 189 138.9 139C238.9 39 401 39 500.9 139L528 166.1L528 64L576 64L576 224zM244.1 224C277.2 224 304.1 250.9 304.1 284C304.1 297.5 299.6 310 292 320C299.6 330 304.1 342.5 304.1 356C304.1 389.1 277.2 416 244.1 416L192.1 416L192.1 368L244.1 368C250.7 368 256.1 362.6 256.1 356C256.1 349.4 250.7 344 244.1 344L200.1 344L200.1 296L244.1 296C250.7 296 256.1 290.6 256.1 284C256.1 277.4 250.7 272 244.1 272L192.1 272L192.1 224L244.1 224zM408.1 224C439 224 464.1 249.1 464.1 280L464.1 360C464.1 390.9 439 416 408.1 416L392.1 416C361.2 416 336.1 390.9 336.1 360L336.1 280C336.1 249.1 361.2 224 392.1 224L408.1 224zM392.1 272C387.7 272 384.1 275.6 384.1 280L384.1 360C384.1 364.4 387.7 368 392.1 368L408.1 368C412.5 368 416.1 364.4 416.1 360L416.1 280C416.1 275.6 412.5 272 408.1 272L392.1 272z"/></svg>