<svg xmlns="http://www.w3.org/2000/svg" viewBox="0 0 640 640"><!--! Font Awesome Pro 7.2.0 by @fontawesome - https://fontawesome.com License - https://fontawesome.com/license (Commercial License) Copyright 2026 Fonticons, Inc. --><path fill="currentColor" d="M240.4 112L112.4 112L112.4 528L400.4 528L400.4 464L448.4 464L448.4 576L64.4 576L64.4 64L288.4 64L448.4 224L448.4 320L400.4 320L400.4 272L240.4 272L240.4 112zM400.4 416L288.4 416L288.4 368L526.5 368C503.5 345 487.5 329 478.5 320L512.4 286.1C514.5 288.2 544.2 317.9 601.4 375.1L618.4 392.1C616.3 394.2 586.6 423.9 529.4 481.1L512.4 498.1L478.5 464.2C487.5 455.2 503.5 439.2 526.5 416.2L400.4 416.2zM380.6 224L288.5 131.9L288.5 224L380.6 224z"/></svg>