<svg xmlns="http://www.w3.org/2000/svg" viewBox="0 0 640 640"><!--! Font Awesome Pro 7.2.0 by @fontawesome - https://fontawesome.com License - https://fontawesome.com/license (Commercial License) Copyright 2026 Fonticons, Inc. --><path fill="currentColor" d="M96 64L544 64L544 464L512 464L512 528L544 528L544 576L96 576L96 504C96 501.3 96.1 498.6 96.4 496L96 496L96 64zM184 464C161.9 464 144 481.9 144 504L144 528L464 528L464 464L184 464zM144 425.6C156 419.5 169.6 416 184 416L496 416L496 112L144 112L144 425.6zM398.4 280L371.5 280C370.2 299.7 366.5 317.7 361.1 332.7C380 321.3 393.9 302.4 398.4 280zM241.6 280C246.1 302.3 260 321.3 278.9 332.7C273.5 317.7 269.8 299.7 268.5 280L241.6 280zM312.3 329.7C315.5 336.6 318.2 340.3 320 342.3C321.8 340.4 324.5 336.7 327.7 329.7C333.3 317.6 337.8 300.4 339.3 280L300.5 280C302.1 300.4 306.5 317.6 312.1 329.7zM300.6 248L339.4 248C337.8 227.6 333.4 210.4 327.8 198.3C324.6 191.4 321.9 187.7 320.1 185.7C318.3 187.6 315.6 191.3 312.4 198.3C306.8 210.4 302.3 227.6 300.8 248zM398.4 248C393.9 225.7 380 206.7 361.1 195.3C366.5 210.3 370.2 228.3 371.5 248L398.4 248zM268.5 248C269.8 228.3 273.5 210.3 278.9 195.3C260 206.7 246.1 225.6 241.6 248L268.5 248zM200 264C200 197.7 253.7 144 320 144C386.3 144 440 197.7 440 264C440 330.3 386.3 384 320 384C253.7 384 200 330.3 200 264z"/></svg>