<svg xmlns="http://www.w3.org/2000/svg" viewBox="0 0 640 640"><!--! Font Awesome Pro 7.2.0 by @fontawesome - https://fontawesome.com License - https://fontawesome.com/license (Commercial License) Copyright 2026 Fonticons, Inc. --><path fill="currentColor" d="M510.1 84.5C544.7 122.8 567.9 171.7 574.2 225.7L544 256L574.2 286.2C567.8 340.2 544.7 389.1 510.1 427.4C498.6 440.1 485.9 451.7 472 461.9C466.8 446.2 459.3 431.6 449.8 418.4C425.2 384.3 387.4 360.2 343.9 353.7L343.9 607.9L295.9 607.9L295.9 353.7C252.4 360.2 214.7 384.3 190 418.4C180.5 431.5 173 446.2 167.8 461.9C154 451.7 141.2 440.1 129.7 427.4C88.7 382 63.8 321.9 63.8 255.9C63.8 189.9 88.9 129.9 129.9 84.5C141.4 71.8 154.2 60.2 168 50C173.1 65.7 180.7 80.4 190.1 93.5C214.8 127.6 252.5 151.7 296 158.2L296 64L344 64L344 158.2C387.5 151.7 425.2 127.6 449.9 93.5C459.4 80.4 466.9 65.7 472.1 50C485.9 60.2 498.7 71.8 510.2 84.5zM344 206.6L344 305.3C400.8 311.8 450.5 341.2 484 383.9C502.5 360.3 515.9 332.6 522.8 302.5C517.9 297.6 502.3 282 476.2 255.9C502.4 229.7 517.9 214.2 522.8 209.3C515.9 179.2 502.5 151.5 484 127.9C450.6 170.7 400.8 200 344 206.5zM296 206.6C239.2 200.1 189.5 170.7 156 128C128.4 163.3 112 207.7 112 256C112 304.3 128.4 348.7 156 384C189.4 341.2 239.2 311.9 296 305.4L296 206.7z"/></svg>