<svg xmlns="http://www.w3.org/2000/svg" viewBox="0 0 640 640"><!--! Font Awesome Pro 7.2.0 by @fontawesome - https://fontawesome.com License - https://fontawesome.com/license (Commercial License) Copyright 2026 Fonticons, Inc. --><path fill="currentColor" d="M126 144L168 144C190.1 144 208 161.9 208 184L208 240L128 240L128 288L208 288L208 456C208 504.6 247.4 544 296 544L328 544C429.6 544 512 461.6 512 360L512 328C512 279.4 472.6 240 424 240L384 240L384 288L424 288C446.1 288 464 305.9 464 328L464 360C464 435.1 403.1 496 328 496L296 496C273.9 496 256 478.1 256 456L256 288L320 288L320 240L256 240L256 184C256 135.4 216.6 96 168 96L126 96L126 144z"/></svg>