<svg xmlns="http://www.w3.org/2000/svg" viewBox="0 0 640 640"><!--! Font Awesome Pro 7.2.0 by @fontawesome - https://fontawesome.com License - https://fontawesome.com/license (Commercial License) Copyright 2026 Fonticons, Inc. --><path fill="currentColor" d="M427.3 178.7L440 128L512 64L576 128L512 200L461.3 212.7C368 306 397.8 276.2 390.6 283.4C407.1 305.4 418.3 331.6 422.3 360L448 360L448 408L422.3 408C418.2 436.5 407 462.6 390.6 484.6L391.8 485.8L408.8 502.8L374.9 536.7L357.9 519.7L356.7 518.5C334.7 535 308.6 546.2 280.1 550.2L280.1 575.9L232.1 575.9L232.1 550.2C203.6 546.1 177.5 534.9 155.5 518.5L154.3 519.7L137.3 536.7L103.4 502.8L120.4 485.8L121.6 484.6C105 462.6 93.8 436.5 89.7 408L64 408L64 360L89.7 360C93.8 331.5 105 305.4 121.4 283.4L120.2 282.2L103.2 265.2L137.1 231.3L154.1 248.3L155.3 249.5C177.3 233 203.5 221.8 231.9 217.8L231.9 192.1L279.9 192.1L279.9 217.8C308.4 221.9 334.5 233.1 356.5 249.5L357.7 248.3C363.1 242.9 386.3 219.7 427.2 178.8zM256 512C326.7 512 384 454.7 384 384C384 313.3 326.7 256 256 256C185.3 256 128 313.3 128 384C128 454.7 185.3 512 256 512zM217 375C254.2 412.2 275.8 433.8 282 440L248 473.9C241.9 467.8 220.2 446.1 183 408.9L166 391.9L199.9 358L216.9 375z"/></svg>