<svg xmlns="http://www.w3.org/2000/svg" viewBox="0 0 640 640"><!--! Font Awesome Pro 7.2.0 by @fontawesome - https://fontawesome.com License - https://fontawesome.com/license (Commercial License) Copyright 2026 Fonticons, Inc. --><path fill="currentColor" d="M328.8 65.5L320.4 62.3L312 65.5L120 137.5L108 142L105 154.4L65 322.4L58 352L96.4 352L96.4 576L544.4 576L544.4 352L582.8 352L575.8 322.4L535.8 154.4L532.8 142L520.8 137.5L328.8 65.5zM432.4 528L432.4 352L208.4 352L208.4 528L144.4 528L144.4 304L118.8 304L148.8 178L320.4 113.6L492 178L522 304L496.4 304L496.4 528L432.4 528zM256.4 528L256.4 433.9L350.5 528L256.4 528zM368.4 288L368.4 192L272.4 192L272.4 288L368.4 288zM384.4 494.1L290.3 400L384.4 400L384.4 494.1z"/></svg>