<svg xmlns="http://www.w3.org/2000/svg" viewBox="0 0 640 640"><!--! Font Awesome Pro 7.2.0 by @fontawesome - https://fontawesome.com License - https://fontawesome.com/license (Commercial License) Copyright 2026 Fonticons, Inc. --><path fill="currentColor" d="M160 344L416 96L351.5 296L480 296L224 544L288.5 344L160 344zM80 128L314 128L264.5 176L80.1 176L80.1 464L199.5 464L184 512L32.1 512L32.1 128L80.1 128zM560 464L560 176L440.6 176L456.1 128L608 128L608 256L640 256L640 384L608 384L608 512L326 512L375.5 464L559.9 464z"/></svg>