<svg xmlns="http://www.w3.org/2000/svg" viewBox="0 0 640 640"><!--! Font Awesome Pro 7.2.0 by @fontawesome - https://fontawesome.com License - https://fontawesome.com/license (Commercial License) Copyright 2026 Fonticons, Inc. --><path fill="currentColor" d="M425.9 88L393.8 120.1C402.8 133.9 408 150.3 408 168L408 181.4C504.2 203.2 576 289.2 576 392L576 448L512 448C490.3 448 469.3 444.7 449.6 438.8C413.3 509.9 320.5 575.7 320 576C319.5 575.7 226.7 509.8 190.4 438.8C170.6 444.8 149.7 448 128 448L64 448L64 392C64 289.2 135.8 203.2 232 181.4L232 168C232 150.3 237.2 133.9 246.2 120.1L214.1 88L248 54.1L282.4 88.5C293.8 83.1 306.5 80 320 80C333.5 80 346.1 83.1 357.5 88.5L392 54.1L425.9 88zM285.8 484C297.8 495.9 309.8 506.5 320 515C330.2 506.4 342.2 495.9 354.2 484L285.8 484zM239.3 428C242.6 433.3 246.3 438.6 250.3 444L389.7 444C393.7 438.7 397.4 433.3 400.7 428C402.4 425.2 403.9 422.5 405.3 420L234.7 420C236.1 422.6 237.6 425.3 239.3 428zM280 224C187.2 224 112 299.2 112 392L112 400L128 400C220.8 400 296 324.8 296 232L296 224L280 224zM344 232C344 324.8 419.2 400 512 400L528 400L528 392C528 299.2 452.8 224 360 224L344 224L344 232zM320 330.9C310.7 348.9 299 365.4 285.2 380L354.7 380C341 365.4 329.2 348.9 320 330.9zM320 128C297.9 128 280 145.9 280 168L280 176L360 176L360 168C360 145.9 342.1 128 320 128z"/></svg>