<svg xmlns="http://www.w3.org/2000/svg" viewBox="0 0 640 640"><!--! Font Awesome Pro 7.2.0 by @fontawesome - https://fontawesome.com License - https://fontawesome.com/license (Commercial License) Copyright 2026 Fonticons, Inc. --><path fill="currentColor" d="M440 96L440 128L576 128L576 432L608 432L608 480L344 480L344 576L296 576L296 480L32 480L32 432L64 432L64 128L200 128L200 96L248 96L248 128L392 128L392 96L440 96zM528 176L440 176L440 208L480 208L480 256L352 256L352 208L392 208L392 176L248 176L248 208L288 208L288 256L160 256L160 208L200 208L200 176L112 176L112 432L528 432L528 176z"/></svg>