<svg xmlns="http://www.w3.org/2000/svg" viewBox="0 0 640 640"><!--! Font Awesome Pro 7.2.0 by @fontawesome - https://fontawesome.com License - https://fontawesome.com/license (Commercial License) Copyright 2026 Fonticons, Inc. --><path fill="currentColor" d="M32 128L608 128L608 176L574.5 176L544 512L96 512L65.5 176L32 176L32 128zM113.7 176L139.9 464L500.2 464L526.4 176L113.7 176zM291.9 208L348.2 208L355.4 217.8L395.9 273L355.1 298.5L323.9 256L316.2 256L285 298.5L244.2 273L284.7 217.8L291.9 208zM378.8 330.9L419.6 305.4L443.4 337.8L448 344.1L448 416L340 416L340 368L400 368L400 359.9L378.7 330.9zM240 368L300 368L300 416L192 416L192 344.1L196.6 337.8L220.4 305.4L261.2 330.9L239.9 359.9L239.9 368z"/></svg>