<svg xmlns="http://www.w3.org/2000/svg" viewBox="0 0 640 640"><!--! Font Awesome Pro 7.2.0 by @fontawesome - https://fontawesome.com License - https://fontawesome.com/license (Commercial License) Copyright 2026 Fonticons, Inc. --><path fill="currentColor" d="M256 96L128 96L128 160C92.7 160 64 188.7 64 224L64 240L32 240L32 288L68.6 288L96 576L544 576L571.4 288L608 288L608 240L576 240L576 224C576 188.7 547.3 160 512 160L512 96L384 96L384 160C348.7 160 320 188.7 320 224C320 188.7 291.3 160 256 160L256 96zM139.6 528L116.7 288L523.1 288L500.2 528L139.5 528z"/></svg>