<svg xmlns="http://www.w3.org/2000/svg" viewBox="0 0 640 640"><!--! Font Awesome Pro 7.2.0 by @fontawesome - https://fontawesome.com License - https://fontawesome.com/license (Commercial License) Copyright 2026 Fonticons, Inc. --><path fill="currentColor" d="M376 64L456 64L456 240L512 240L512 288L352 288L352 240L408 240L408 112L352 112L352 64L376 64zM152 352L232 352L232 528L288 528L288 576L128 576L128 528L184 528L184 400L128 400L128 352L152 352zM128 64L320 64L320 288L128 288L128 64zM176 112L176 240L272 240L272 112L176 112zM344 352L512 352L512 576L320 576L320 352L344 352zM368 528L464 528L464 400L368 400L368 528z"/></svg>