<svg xmlns="http://www.w3.org/2000/svg" viewBox="0 0 640 640"><!--! Font Awesome Pro 7.2.0 by @fontawesome - https://fontawesome.com License - https://fontawesome.com/license (Commercial License) Copyright 2026 Fonticons, Inc. --><path fill="currentColor" d="M320 64L424 64L424 240L480 240L480 272.7C474.7 272.3 469.4 272 464 272C436.7 272 410.7 277.7 387.1 288L320 288L320 240L376 240L376 112L320 112L320 64zM96 352L200 352L200 528L256 528L256 576L96 576L96 528L152 528L152 400L96 400L96 352zM120 64L288 64L288 288L96 288L96 64L120 64zM144 240L240 240L240 112L144 112L144 240zM320 464C320 384.5 384.5 320 464 320C543.5 320 608 384.5 608 464C608 543.5 543.5 608 464 608C384.5 608 320 543.5 320 464zM534.4 412.5L508.5 393.7L499.1 406.6L446.1 479.5C425.7 459 413 446.3 408 441.4L385.4 464C388.2 466.8 405.3 483.9 436.7 515.3L449.9 528.5L460.9 513.4L524.9 425.4L534.3 412.5z"/></svg>