<svg xmlns="http://www.w3.org/2000/svg" viewBox="0 0 640 640"><!--! Font Awesome Pro 7.2.0 by @fontawesome - https://fontawesome.com License - https://fontawesome.com/license (Commercial License) Copyright 2026 Fonticons, Inc. --><path fill="currentColor" d="M96 96L544 96L544 216L510 250L496 236L496 144L144 144L144 304L326 304C315.1 318.3 304.6 334.4 295.8 352L143.9 352L143.9 496L277.5 496C281.5 512.9 287.6 529 295.4 544L96 544L96 96zM272 448L192 448L192 400L278 400C274.2 415.2 272 431.2 272 447.8L272 448zM448 256L512 320L544 288C620.8 352 640 421.3 640 448C640 536.4 568.4 608 480 608C391.6 608 320 536.4 320 448C320 358.4 405.3 282.7 448 256zM544 496.2C544 448.2 480 400.2 480 400.2C480 400.2 416 448.2 416 496.2C416 531.5 444.7 560.2 480 560.2C515.3 560.2 544 531.5 544 496.2z"/></svg>