<svg xmlns="http://www.w3.org/2000/svg" viewBox="0 0 640 640"><!--! Font Awesome Pro 7.2.0 by @fontawesome - https://fontawesome.com License - https://fontawesome.com/license (Commercial License) Copyright 2026 Fonticons, Inc. --><path fill="currentColor" d="M544 96L96 96L96 144L208 144L208 416L256 416L256 144L544 144L544 96zM544 272L544 224L304 224L304 272L544 272zM160 224L96 224L96 272L160 272L160 224zM160 384L160 368L96 368L96 416L160 416L160 384zM304 384L304 416L544 416L544 368L304 368L304 384zM96 544L544 544L544 496L96 496L96 544z"/></svg>