<svg xmlns="http://www.w3.org/2000/svg" viewBox="0 0 640 640"><!--! Font Awesome Pro 7.2.0 by @fontawesome - https://fontawesome.com License - https://fontawesome.com/license (Commercial License) Copyright 2026 Fonticons, Inc. --><path fill="currentColor" d="M416.4 64L448.4 64L448.4 112L416.4 112L416.4 281.7C430.6 289.9 443.6 299.9 455.2 311.3L494.5 272C491.5 269 483.5 261 470.5 248L504.4 214.1C572.7 282.4 574.5 284.2 586.3 296L552.4 329.9C539.4 316.9 531.4 308.9 528.4 305.9L485.1 349.2C502.4 378 512.4 411.8 512.4 447.9C512.4 492.8 497 534.1 471.2 566.8L464 575.9L176.8 575.9L169.6 566.8C143.8 534.1 128.4 492.8 128.4 447.9C128.4 376.8 167 314.8 224.4 281.6L224.4 111.9L192.4 111.9L192.4 63.9L416.4 63.9zM272.4 112L272.4 311.3L258.7 317.8C229.5 331.7 205.7 355.1 191.4 384L449.5 384C435.1 355.1 411.4 331.7 382.2 317.8L368.5 311.3L368.5 112L272.5 112zM463.6 432L177.4 432C176.8 437.3 176.5 442.6 176.5 448C176.5 477.6 185.4 505.1 200.7 528L440.2 528C455.5 505.1 464.4 477.6 464.4 448C464.4 442.6 464.1 437.3 463.5 432z"/></svg>