<svg xmlns="http://www.w3.org/2000/svg" viewBox="0 0 640 640"><!--! Font Awesome Pro 7.2.0 by @fontawesome - https://fontawesome.com License - https://fontawesome.com/license (Commercial License) Copyright 2026 Fonticons, Inc. --><path fill="currentColor" d="M368 128C368 101.5 346.5 80 320 80C293.5 80 272 101.5 272 128C272 154.5 293.5 176 320 176C346.5 176 368 154.5 368 128zM224 128C224 75 267 32 320 32C373 32 416 75 416 128C416 181 373 224 320 224C267 224 224 181 224 128zM276.4 329.8C235.5 312.8 191.6 304 147.2 304L112 304L112 496L147.2 496C198 496 248.4 505 296 522.4L296 338L276.4 329.8zM492.8 496L528 496L528 304L492.8 304C448.4 304 404.5 312.8 363.6 329.8L344 338L344 522.4C391.6 505 442 496 492.8 496zM528 256L576 256L576 544L492.8 544C442.1 544 391.9 554 345.1 573.5L320 584L294.9 573.5C248.1 554 197.9 544 147.2 544L64 544L64 256L147.2 256C197.9 256 248.1 266 294.9 285.5L320 296L345.1 285.5C391.9 266 442.1 256 492.8 256L528 256z"/></svg>