<svg xmlns="http://www.w3.org/2000/svg" viewBox="0 0 640 640"><!--! Font Awesome Pro 7.2.0 by @fontawesome - https://fontawesome.com License - https://fontawesome.com/license (Commercial License) Copyright 2026 Fonticons, Inc. --><path fill="currentColor" d="M88 64L64 64L64 496L64.4 496C64.2 498.6 64 501.3 64 504L64 576L308 576C297.5 561.4 289 545.3 282.9 528L112 528L112 504C112 481.9 129.9 464 152 464L272 464C272 447.4 274.1 431.3 278 416L152 416C137.6 416 124 419.5 112 425.6L112 112L464 112L464 272C480.6 272 496.7 274.1 512 278L512 64L88 64zM608 464C608 384.5 543.5 320 464 320C384.5 320 320 384.5 320 464C320 543.5 384.5 608 464 608C543.5 608 608 543.5 608 464zM472 385.4L483.3 396.7L539.3 452.7L550.6 464L539.3 475.3L483.3 531.3L472 542.6L449.4 520C454 515.4 467.4 502 489.4 480L384 480L384 448L489.4 448C467.4 426 454 412.6 449.4 408L472 385.4z"/></svg>