<svg xmlns="http://www.w3.org/2000/svg" viewBox="0 0 640 640"><!--! Font Awesome Pro 7.2.0 by @fontawesome - https://fontawesome.com License - https://fontawesome.com/license (Commercial License) Copyright 2026 Fonticons, Inc. --><path fill="currentColor" d="M120 64L96 64L96 576L144 576L144 112L208 112L208 448C208 487.8 240.2 520 280 520C298.4 520 315.3 513.1 328 501.7C340.7 513.1 357.6 520 376 520C394.4 520 411.3 513.1 424 501.7C436.7 513.1 453.6 520 472 520C480.4 520 488.5 518.6 496 515.9L496 576L544 576L544 64L120 64zM496 128L496 448C496 461.3 485.3 472 472 472C458.7 472 448 461.3 448 448L448 112L496 112L496 128zM400 128L400 448C400 461.3 389.3 472 376 472C362.7 472 352 461.3 352 448L352 112L400 112L400 128zM256 448L256 112L304 112L304 448C304 461.3 293.3 472 280 472C266.7 472 256 461.3 256 448z"/></svg>