<svg xmlns="http://www.w3.org/2000/svg" viewBox="0 0 640 640"><!--! Font Awesome Pro 7.2.0 by @fontawesome - https://fontawesome.com License - https://fontawesome.com/license (Commercial License) Copyright 2026 Fonticons, Inc. --><path fill="currentColor" d="M144 144L144 496L496 496L496 144L144 144zM96 96L544 96L544 544L96 544L96 96zM344 192L344 240L296 240L296 192L344 192zM192 296L240 296L240 344L192 344L192 296zM344 296L344 344L296 344L296 296L344 296zM400 296L448 296L448 344L400 344L400 296zM344 400L344 448L296 448L296 400L344 400z"/></svg>