<svg xmlns="http://www.w3.org/2000/svg" viewBox="0 0 640 640"><!--! Font Awesome Pro 7.2.0 by @fontawesome - https://fontawesome.com License - https://fontawesome.com/license (Commercial License) Copyright 2026 Fonticons, Inc. --><path fill="currentColor" d="M344 72L344 276.7C367.5 286.2 384 309.2 384 336C384 371.3 355.3 400 320 400C284.7 400 256 371.3 256 336C256 309.1 272.5 286.1 296 276.7L296 72L344 72zM64 240L64 192L208 192L208 336C208 397.9 258.1 448 320 448C381.9 448 432 397.9 432 336L432 192L576 192L576 576L64 576L64 240zM528 528L528 240L480 240L480 336C480 424.4 408.4 496 320 496C231.6 496 160 424.4 160 336L160 240L112 240L112 528L528 528z"/></svg>