<svg xmlns="http://www.w3.org/2000/svg" viewBox="0 0 640 640"><!--! Font Awesome Pro 7.2.0 by @fontawesome - https://fontawesome.com License - https://fontawesome.com/license (Commercial License) Copyright 2026 Fonticons, Inc. --><path fill="currentColor" d="M400 96L400 213.4C447.8 241.1 480 292.8 480 352L480 608L160 608L160 352C160 292.8 192.2 241.1 240 213.4L240 96L224 96L224 32L416 32L416 96L400 96zM432 352C432 310.6 409.6 274.4 376 255L352 241.1L352 80L288 80L288 241.1L264 255C230.4 274.4 208 310.7 208 352L208 560L432 560L432 352zM320 480C284.7 480 256 447.6 256 416C256 384.4 320 304 320 304C320 304 384 384.4 384 416C384 447.6 355.3 480 320 480z"/></svg>