<svg xmlns="http://www.w3.org/2000/svg" viewBox="0 0 640 640"><!--! Font Awesome Pro 7.2.0 by @fontawesome - https://fontawesome.com License - https://fontawesome.com/license (Commercial License) Copyright 2026 Fonticons, Inc. --><path fill="currentColor" d="M64 192L64 160L576 64L576 112L64 192zM64 208L576 192L576 240L64 240L64 208zM240 528L400 528L400 507.1L426.7 493.9C481.8 466.6 520.6 411.5 524.5 346.4L525.1 336.1L114.9 336.1L115.5 346.4C119.3 411.5 158.2 466.7 213.3 493.9L240 507.1L240 528zM67.6 349.2C67.4 346.2 66.2 325.8 64 288L576 288C573.8 325.8 572.6 346.2 572.4 349.2C567.5 432.1 518 502.3 448 536.9L448 576L192 576L192 536.9C122 502.2 72.5 432.1 67.6 349.2z"/></svg>