<svg xmlns="http://www.w3.org/2000/svg" viewBox="0 0 640 640"><!--! Font Awesome Pro 7.2.0 by @fontawesome - https://fontawesome.com License - https://fontawesome.com/license (Commercial License) Copyright 2026 Fonticons, Inc. --><path fill="currentColor" d="M336.2 192C336.2 207.9 331.6 222.7 323.6 235.1L384.2 200.5L384.2 120C384.2 115.6 387.8 112 392.2 112L456.2 112C460.6 112 464.2 115.6 464.2 120L464.2 154.8L508.5 129.5L512.2 127.4L512.2 120C512.2 89.1 487.1 64 456.2 64L392.2 64C369.7 64 350.3 77.3 341.4 96.5C318.8 76.3 288.9 64 256.2 64C206 64 162.6 92.9 141.6 135L183.4 158.9C196 131.2 223.9 112 256.2 112C300.4 112 336.2 147.8 336.2 192zM283 457.8L294 434L296.2 429.3L296.2 527.2L128.2 433.9L128.2 369.4L260.3 444.9L283 457.9zM289.1 330.1L261.4 390.1L80.4 286.7L110.5 230.9L289.1 330.1zM560.2 448L560.2 278.6C561 279.9 566.3 288.7 576 304.9L617.2 280.2C614.9 276.4 594.8 242.8 556.9 179.6L544.5 159.2L524 171.3L320.2 292.1L116.4 171.4L94.9 158.6C94.4 159.6 71.7 201.6 27.1 284.6L16 305.2C25.6 310.7 47 322.9 80.2 341.9L80.2 462.1L92.5 469L308.5 589L320.2 595.5L331.9 589L547.9 469L560.2 462.1L560.2 448zM512.2 240.8L512.2 433.9L344.2 527.2L344.2 334.1L512.2 240.8z"/></svg>