<svg xmlns="http://www.w3.org/2000/svg" viewBox="0 0 640 640"><!--! Font Awesome Pro 7.2.0 by @fontawesome - https://fontawesome.com License - https://fontawesome.com/license (Commercial License) Copyright 2026 Fonticons, Inc. --><path fill="currentColor" d="M432 112L432 240L480 240L480 64L160 64L160 240L208 240L208 112L272 112L272 192L368 192L368 112L432 112zM400 576L576 576L576 288L400 288L400 416L480 416L480 336L528 336L528 528L400 528L400 576zM304 336L304 528L112 528L112 336L160 336L160 416L256 416L256 336L304 336zM112 288L64 288L64 576L352 576L352 288L112 288z"/></svg>