<svg xmlns="http://www.w3.org/2000/svg" viewBox="0 0 640 640"><!--! Font Awesome Pro 7.2.0 by @fontawesome - https://fontawesome.com License - https://fontawesome.com/license (Commercial License) Copyright 2026 Fonticons, Inc. --><path fill="currentColor" d="M175.5 124.7L180.2 101.2L133.1 91.8L128.4 115.3L92.2 296.1C64.9 322.3 47.9 359.2 47.9 400C47.9 479.5 112.4 544 191.9 544C241.8 544 285.8 518.6 311.7 480L328.2 480C354 518.6 398 544 448 544C527.5 544 592 479.5 592 400C592 359.2 575 322.3 547.7 296.1L511.5 115.3L506.8 91.8L459.7 101.2L464.4 124.7L501.7 311.3L399.9 352L342.8 432L297.1 432L240 352L138.2 311.3L175.5 124.7zM96 400C96 382.2 100.8 365.6 109.2 351.4L209.1 391.4L262.1 465.6C244.5 484.4 219.6 496 192 496C139 496 96 453 96 400zM544 400C544 453 501 496 448 496C420.4 496 395.4 484.3 377.9 465.6L430.9 391.4L530.8 351.4C539.2 365.7 544 382.3 544 400z"/></svg>