<svg xmlns="http://www.w3.org/2000/svg" viewBox="0 0 640 640"><!--! Font Awesome Pro 7.2.0 by @fontawesome - https://fontawesome.com License - https://fontawesome.com/license (Commercial License) Copyright 2026 Fonticons, Inc. --><path fill="currentColor" d="M187.7 99.4C146 124.2 64 201.9 64 320C64 438.1 146 515.8 187.7 540.6L212.3 499.4C179.3 479.7 112 415.3 112 320C112 224.7 179.3 160.3 212.3 140.6L187.7 99.4zM452.3 99.4L427.7 140.6C460.7 160.3 528 224.7 528 320C528 415.3 460.7 479.7 427.7 499.4L452.3 540.6C494 515.8 576 438.1 576 320C576 201.9 494 124.2 452.3 99.4z"/></svg>