<svg xmlns="http://www.w3.org/2000/svg" viewBox="0 0 640 640"><!--! Font Awesome Pro 7.2.0 by @fontawesome - https://fontawesome.com License - https://fontawesome.com/license (Commercial License) Copyright 2026 Fonticons, Inc. --><path fill="currentColor" d="M184 144L280 144C337.4 144 384 190.6 384 248L384 288L352 288L352 496L112 496L112 288L80 288L80 248C80 190.6 126.6 144 184 144zM432 288L432 248C432 207.8 416.4 171.2 390.9 144L456 144C513.4 144 560 190.6 560 248L560 288L432 288zM528 336L528 496L400 496L400 336L528 336zM88 544L576 544L576 336L608 336L608 248C608 164.1 539.9 96 456 96L184 96C100.1 96 32 164.1 32 248L32 336L64 336L64 544L88 544z"/></svg>