<svg xmlns="http://www.w3.org/2000/svg" viewBox="0 0 640 640"><!--! Font Awesome Pro 7.2.0 by @fontawesome - https://fontawesome.com License - https://fontawesome.com/license (Commercial License) Copyright 2026 Fonticons, Inc. --><path fill="currentColor" d="M208 64L432 64L432 160L576 160L576 544L64 544L64 160L208 160L208 64zM384 112L256 112L256 160L384 160L384 112zM112 208L112 496L528 496L528 208L112 208zM417 369C359.8 426.2 330.2 455.8 328 458L294.1 424C303.1 415 319.1 399 342.1 376L216 376L216 328L342.1 328C319.1 305 303.1 289 294.1 280L328 246.1C330.1 248.2 359.8 277.9 417 335.1L434 352.1L417 369.1z"/></svg>