<svg xmlns="http://www.w3.org/2000/svg" viewBox="0 0 640 640"><!--! Font Awesome Pro 7.2.0 by @fontawesome - https://fontawesome.com License - https://fontawesome.com/license (Commercial License) Copyright 2026 Fonticons, Inc. --><path fill="currentColor" d="M140.8 358.4L98.9 382.4C66.8 337.8 48 283.1 48 224C48 164.9 66.8 110.2 98.8 65.6L140.7 89.6C112.7 127 96 173.6 96 224C96 274.4 112.7 321 140.8 358.4zM414.7 137.9L457.1 113.7C481.4 143.8 496 182.2 496 224C496 265.8 481.4 304.2 457.1 334.4L414.7 310.2C435.4 287.5 448 257.2 448 224.1C448 191 435.4 160.7 414.7 138zM544 224C544 173.6 527.3 127 499.2 89.6L541.1 65.6C573.2 110.2 592 164.9 592 224C592 283.1 573.2 337.8 541.2 382.4L499.3 358.4C527.3 321 544 274.4 544 224zM192 224C192 257.2 204.6 287.4 225.3 310.1L182.9 334.3C158.6 304.2 144 265.8 144 224C144 182.2 158.6 143.8 182.9 113.6L225.3 137.8C204.6 160.6 192 190.8 192 224zM376 224C376 246.3 362.9 265.6 344 274.6L344 576L296 576L296 274.6C277.1 265.6 264 246.3 264 224C264 193.1 289.1 168 320 168C350.9 168 376 193.1 376 224z"/></svg>