<svg xmlns="http://www.w3.org/2000/svg" viewBox="0 0 640 640"><!--! Font Awesome Pro 7.2.0 by @fontawesome - https://fontawesome.com License - https://fontawesome.com/license (Commercial License) Copyright 2026 Fonticons, Inc. --><path fill="currentColor" d="M320 64C282.8 64 250.5 85.2 234.6 116.1C226.2 113.4 217.3 112 208 112C159.4 112 120 151.4 120 200L120 232.7C87 247.9 64 281.2 64 320C64 373 107 416 160 416L480 416C533 416 576 373 576 320C576 281.2 553 247.9 520 232.7L520 200C520 151.4 480.6 112 432 112C422.7 112 413.8 113.4 405.4 116.1C389.5 85.2 357.2 64 320 64zM272.4 153.7C275.5 130.2 295.6 112 320 112C344.4 112 364.5 130.2 367.6 153.7L373.2 196.6L406.6 169.1C413.5 163.4 422.3 160 432 160C454.1 160 472 177.9 472 200L472 268.9L490.7 273.1C512.1 277.9 528 297.1 528 319.9C528 346.4 506.5 367.9 480 367.9L160 368C133.5 368 112 346.5 112 320C112 297.2 127.9 278 149.3 273.2L168 269L168 200.1C168 178 185.9 160.1 208 160.1C217.7 160.1 226.5 163.5 233.4 169.2L266.8 196.7L272.4 153.8zM264 576L376 576C391.3 530.2 412 491.8 429.5 464L336 464L320 496L304 464L210.5 464C228 491.8 248.7 530.2 264 576z"/></svg>