<svg xmlns="http://www.w3.org/2000/svg" viewBox="0 0 640 640"><!--! Font Awesome Pro 7.2.0 by @fontawesome - https://fontawesome.com License - https://fontawesome.com/license (Commercial License) Copyright 2026 Fonticons, Inc. --><path fill="currentColor" d="M368 112L80 112L80 528L176 528L176 416L272 416L272 528L336 528C336 545 339.3 561.2 345.3 576L32 576L32 64L416 64L416 120L368 120L368 112zM192 160L192 224L128 224L128 160L192 160zM256 160L320 160L320 224L256 224L256 160zM192 288L192 352L128 352L128 288L192 288zM256 288L320 288L320 352L256 352L256 288zM640 288L640 304C640 348.2 604.2 384 560 384L528 384L528 368C528 323.8 563.8 288 608 288L640 288zM640 416C640 460.2 604.2 496 560 496L528 496L528 480C528 435.8 563.8 400 608 400L640 400L640 416zM640 528C640 572.2 604.2 608 560 608L528 608L528 592C528 547.8 563.8 512 608 512L640 512L640 528zM496 592L496 608L464 608C419.8 608 384 572.2 384 528L384 512L416 512C460.2 512 496 547.8 496 592zM496 496L464 496C419.8 496 384 460.2 384 416L384 400L416 400C460.2 400 496 435.8 496 480L496 496zM496 368L496 384L464 384C419.8 384 384 348.2 384 304L384 288L416 288C460.2 288 496 323.8 496 368zM536 128L536 280L488 280L488 128L536 128zM608 192L608 248L560 248L560 168L608 168L608 192zM464 168L464 248L416 248L416 168L464 168z"/></svg>