<svg xmlns="http://www.w3.org/2000/svg" viewBox="0 0 640 640"><!--! Font Awesome Pro 7.2.0 by @fontawesome - https://fontawesome.com License - https://fontawesome.com/license (Commercial License) Copyright 2026 Fonticons, Inc. --><path fill="currentColor" d="M208 64L208 128L368 128L368 64L416 64L416 128L512 128L512 278C496.7 274.1 480.6 272 464 272C436.7 272 410.7 277.7 387.1 288L112 288L112 496L274.7 496C277.5 512.8 282.5 528.9 289.5 544L64.1 544L64.1 128L160.1 128L160.1 64L208.1 64zM208 176L112 176L112 240L464 240L464 176L208 176zM464 320C543.5 320 608 384.5 608 464C608 543.5 543.5 608 464 608C384.5 608 320 543.5 320 464C320 384.5 384.5 320 464 320zM480 544L480 512L448 512L448 544L480 544zM480 368L448 368L448 480L480 480L480 368z"/></svg>