<svg xmlns="http://www.w3.org/2000/svg" viewBox="0 0 640 640"><!--! Font Awesome Pro 7.2.0 by @fontawesome - https://fontawesome.com License - https://fontawesome.com/license (Commercial License) Copyright 2026 Fonticons, Inc. --><path fill="currentColor" d="M256 64L304 64L304 128L432 128L432 64L480 64L480 128L576 128L576 480L160 480L160 128L256 128L256 64zM528 176L208 176L208 240L528 240L528 176zM208 432L528 432L528 288L208 288L208 432zM112 248L112 528L480 528L480 576L64 576L64 224L112 224L112 248z"/></svg>