<svg xmlns="http://www.w3.org/2000/svg" viewBox="0 0 640 640"><!--! Font Awesome Pro 7.2.0 by @fontawesome - https://fontawesome.com License - https://fontawesome.com/license (Commercial License) Copyright 2026 Fonticons, Inc. --><path fill="currentColor" d="M240 64L240 128L400 128L400 64L448 64L448 128L544 128L544 544L96 544L96 128L192 128L192 64L240 64zM240 176L144 176L144 240L496 240L496 176L240 176zM144 416L144 496L232 496L232 416L144 416zM144 368L232 368L232 288L144 288L144 368zM280 416L280 496L360 496L360 416L280 416zM360 368L360 288L280 288L280 368L360 368zM408 416L408 496L496 496L496 416L408 416zM496 368L496 288L408 288L408 368L496 368z"/></svg>