<svg xmlns="http://www.w3.org/2000/svg" viewBox="0 0 640 640"><!--! Font Awesome Pro 7.2.0 by @fontawesome - https://fontawesome.com License - https://fontawesome.com/license (Commercial License) Copyright 2026 Fonticons, Inc. --><path fill="currentColor" d="M157.7 110.6L92 291.1L306 369L471.9 225L157.7 110.6zM174.1 65.5L513.4 189L565 207.8L523.5 243.8L316.1 423.7L232.2 393.2C232.2 488.2 232.2 535.8 232.2 536L112.2 536L112.2 584L64.2 584L64.2 512C64.2 476 64.2 452 64.2 440L112.2 440L112.2 488L184.2 488L184.2 384L184.2 375.7C101.2 345.5 50 326.8 30.5 319.8L112.6 94.2L129 49.1L174.1 65.5zM466.5 478.5L367.7 442.6L409.2 406.6L482.9 433.4L515.7 343.2L492.1 334.6L533.6 298.6L577.2 314.5C569 337.1 552.6 382.2 527.9 449.8L511.5 494.9L466.4 478.5z"/></svg>