<svg xmlns="http://www.w3.org/2000/svg" viewBox="0 0 640 640"><!--! Font Awesome Pro 7.2.0 by @fontawesome - https://fontawesome.com License - https://fontawesome.com/license (Commercial License) Copyright 2026 Fonticons, Inc. --><path fill="currentColor" d="M417.8 93.1C413.4 98.3 391.3 124.6 351.3 172.1L570.3 432.5L575.9 439.2L575.9 544L63.9 544L63.9 439.2L69.5 432.5L288.5 172.1C248.6 124.6 226.4 98.3 222 93.1L258.9 62.2C264.2 68.5 284.5 92.7 320 134.8C355.5 92.6 375.8 68.4 381.1 62.2L417.8 93.1zM112 456.7L112 496L175.2 496L190.5 479.6L302.5 359.6L320 340.8L337.5 359.6L449.5 479.6L464.8 496L528 496L528 456.7L320 209.3L112 456.7zM240.8 496L399.1 496L319.9 411.2L240.7 496z"/></svg>