<svg xmlns="http://www.w3.org/2000/svg" viewBox="0 0 640 640"><!--! Font Awesome Pro 7.2.0 by @fontawesome - https://fontawesome.com License - https://fontawesome.com/license (Commercial License) Copyright 2026 Fonticons, Inc. --><path fill="currentColor" d="M449.2 481.7L561 526.4C590.3 516.6 611.1 509.7 623.5 505.6L638.7 551.1C629.1 554.3 602.8 563.1 559.6 577.5L551.4 574.2L440.3 529.8L320.3 577.8L200.3 529.8L89.2 574.2L81 577.5C37.9 563.2 11.6 554.4 2 551.2L17.2 505.7C29.6 509.8 50.4 516.7 79.6 526.5L191.4 481.8L200.3 478.2L320.3 526.2L440.3 478.2L449.2 481.8zM608.4 384C608.4 418 595.1 448.9 573.4 471.9L562.6 475.5L514.5 456.2C541.6 443.4 560.4 415.9 560.4 384L560.4 377.7L526.9 400L113.8 400L80.3 377.7L80.3 384C80.3 415.9 99.1 443.4 126.1 456.2L78 475.5L67.2 471.9C47.1 450.4 34.1 422 32.5 390.6L32.3 384L32.3 288L128.3 352L512.3 352L608.3 288L608.3 384zM396.4 304L319.6 304L239.6 240L208.4 240L208.4 304L160.4 304L160.4 192L256.4 192L396.4 304zM208.4 160C181.9 160 160.4 138.5 160.4 112C160.4 85.5 181.9 64 208.4 64C234.9 64 256.4 85.5 256.4 112C256.4 138.5 234.9 160 208.4 160z"/></svg>