<svg xmlns="http://www.w3.org/2000/svg" viewBox="0 0 640 640"><!--! Font Awesome Pro 7.2.0 by @fontawesome - https://fontawesome.com License - https://fontawesome.com/license (Commercial License) Copyright 2026 Fonticons, Inc. --><path fill="currentColor" d="M111.5 96L395.9 96L403.1 105.5L517.8 256L640 256L640 464L559.6 464C555.6 508.9 517.9 544 472 544C426.1 544 388.4 508.9 384.4 464L239.7 464C235.7 508.9 198 544 152.1 544C106.2 544 68.5 508.9 64.5 464L0 464L0 256L50.5 256L105.6 111.5L111.5 96zM393.6 416C408.2 387.5 437.8 368 472 368C506.2 368 535.8 387.5 550.4 416L592 416L592 304L48 304L48 416L73.6 416C88.2 387.5 117.8 368 152 368C186.2 368 215.8 387.5 230.4 416L393.6 416zM101.9 256L240 256L240 144L144.5 144L101.8 256zM288 256L457.4 256L372.1 144L288 144L288 256zM152 496C174.1 496 192 478.1 192 456C192 433.9 174.1 416 152 416C129.9 416 112 433.9 112 456C112 478.1 129.9 496 152 496zM512 456C512 433.9 494.1 416 472 416C449.9 416 432 433.9 432 456C432 478.1 449.9 496 472 496C494.1 496 512 478.1 512 456z"/></svg>