<svg xmlns="http://www.w3.org/2000/svg" viewBox="0 0 640 640"><!--! Font Awesome Pro 7.2.0 by @fontawesome - https://fontawesome.com License - https://fontawesome.com/license (Commercial License) Copyright 2026 Fonticons, Inc. --><path fill="currentColor" d="M144 96L126.7 96L121.2 112.4L73.3 256L31.9 256L31.9 544L79.9 544L79.9 480L399.9 480L399.9 432L79.9 432L79.9 304L335.9 304C335.9 287.3 338.5 271.2 343.2 256L123.8 256L161.1 144L414.5 144L420.7 162.7C434.7 155.3 449.9 149.8 466 146.8C457.4 120.9 451.7 104 449.1 96L144 96zM144 400C161.7 400 176 385.7 176 368C176 350.3 161.7 336 144 336C126.3 336 112 350.3 112 368C112 385.7 126.3 400 144 400zM608 304C608 242.1 557.9 192 496 192C434.1 192 384 242.1 384 304C384 348.7 410.2 387.2 448 405.2L448 528L496 576L560 512L528 480L560 448L530.2 410.7C575.3 396.3 608 353.9 608 304zM464 288C464 270.3 478.3 256 496 256C513.7 256 528 270.3 528 288C528 305.7 513.7 320 496 320C478.3 320 464 305.7 464 288z"/></svg>