<svg xmlns="http://www.w3.org/2000/svg" viewBox="0 0 640 640"><!--! Font Awesome Pro 7.2.0 by @fontawesome - https://fontawesome.com License - https://fontawesome.com/license (Commercial License) Copyright 2026 Fonticons, Inc. --><path fill="currentColor" d="M232 72.1L232 96.1L184 96.1L184 8.1L232 8.1L232 72.1zM32 232.1L8 232.1L8 184.1L96 184.1L96 232.1L32 232.1zM304.2 145.9L270.2 111.9C293.8 88.3 331.5 50.6 332.4 49.7L366.3 83.6C342.7 107.2 305 144.9 304.1 145.8zM100.5 349.5L83.5 366.5L49.6 332.6C73.2 309 110.9 271.3 111.8 270.4L145.7 304.3C136.3 313.7 121.2 328.8 100.4 349.6zM49.6 83.6L83.5 49.7C107.1 73.3 144.8 111 145.8 111.9L111.8 145.9C88.3 122.3 50.6 84.6 49.6 83.6zM312.6 162.3L329.6 166.9L561.4 229L578.4 233.6L579.1 251.2L583.9 367.6L628.7 379.6C621.1 407.9 611.4 444 599.7 487.8C588.7 529 571.4 593.4 566.6 611.4L520.2 599L532.6 552.6L192.6 461.5L180.2 507.9L133.8 495.5C189.7 286.9 185.6 302.3 195.9 263.7L240.7 275.7L303 177.3L312.4 162.4zM570 413.6L230 322.4C217.6 368.8 209.3 399.7 205.2 415.1L545.2 506.2C549.3 490.7 557.6 459.8 570 413.5zM532 270.9L334.3 217.9L289.4 288.7L535.4 354.6L532 270.9zM270.1 358.1C282.9 361.5 290.5 374.7 287.1 387.5C283.7 400.3 270.5 407.9 257.7 404.5C244.9 401.1 237.3 387.9 240.7 375.1C244.1 362.3 257.3 354.7 270.1 358.1zM488 441.3C491.4 428.5 504.6 420.9 517.4 424.3C530.2 427.7 537.8 440.9 534.4 453.7C531 466.5 517.8 474.1 505 470.7C492.2 467.3 484.6 454.1 488 441.3z"/></svg>