<svg xmlns="http://www.w3.org/2000/svg" viewBox="0 0 640 640"><!--! Font Awesome Pro 7.2.0 by @fontawesome - https://fontawesome.com License - https://fontawesome.com/license (Commercial License) Copyright 2026 Fonticons, Inc. --><path fill="currentColor" d="M329.7 58L585.7 170L607.7 179.6L588.5 223.6L566.5 214L320.1 106.2L73.7 214L51.7 223.6L32.5 179.6L54.5 170L310.5 58L320.1 53.8L329.7 58zM182.5 208L457.8 208L463.1 224.8L497.8 336L544.2 336L544.2 576L496.2 576L496.2 528L144.2 528L144.2 576L96.2 576L96.2 336L142.6 336L177.3 224.8L182.6 208zM496.1 384L144.1 384L144.1 480L496.1 480L496.1 384zM422.5 256L217.8 256L192.8 336L447.5 336L422.5 256zM192.1 408C205.4 408 216.1 418.7 216.1 432C216.1 445.3 205.4 456 192.1 456C178.8 456 168.1 445.3 168.1 432C168.1 418.7 178.8 408 192.1 408zM424.1 432C424.1 418.7 434.8 408 448.1 408C461.4 408 472.1 418.7 472.1 432C472.1 445.3 461.4 456 448.1 456C434.8 456 424.1 445.3 424.1 432z"/></svg>