<svg xmlns="http://www.w3.org/2000/svg" viewBox="0 0 640 640"><!--! Font Awesome Pro 7.2.0 by @fontawesome - https://fontawesome.com License - https://fontawesome.com/license (Commercial License) Copyright 2026 Fonticons, Inc. --><path fill="currentColor" d="M0 48L116 48C118.1 59.7 121 75.7 124.7 96L576 96C572.7 113.7 561.3 174.3 542 277.5C527.3 273.9 511.9 272 496 272L494.2 272L518.2 144L133.5 144L162.6 304L389.9 304C370.5 316.9 353.7 333.2 340.1 352L171.4 352L180.1 400L315 400C309.6 415.2 306.1 431.3 304.7 448L140 448L136.4 428.3L76 96L0 96L0 48zM208 480C234.5 480 256 501.5 256 528C256 554.5 234.5 576 208 576C181.5 576 160 554.5 160 528C160 501.5 181.5 480 208 480zM496 320C575.5 320 640 384.5 640 464C640 543.5 575.5 608 496 608C416.5 608 352 543.5 352 464C352 384.5 416.5 320 496 320zM512 368L480 368L480 480L512 480L512 368zM512 544L512 512L480 512L480 544L512 544z"/></svg>