<svg xmlns="http://www.w3.org/2000/svg" viewBox="0 0 640 640"><!--! Font Awesome Pro 7.2.0 by @fontawesome - https://fontawesome.com License - https://fontawesome.com/license (Commercial License) Copyright 2026 Fonticons, Inc. --><path fill="currentColor" d="M81.3 47.1L64.3 30.1L30.4 64L47.4 81L559.4 593L576.4 610L610.3 576.1L593.3 559.1L477.9 443.7C480.5 441.4 483.1 439 485.6 436.5L564.7 357.4C592.5 329.6 608.2 291.8 608.2 252.4C608.2 170.4 541.7 103.9 459.7 103.9C423.7 103.9 389 117 362 140.6C376.1 149.2 389 159.5 400.4 171.3C417.5 158.8 438.2 151.9 459.7 151.9C515.2 151.9 560.2 196.9 560.2 252.4C560.2 279 549.6 304.6 530.8 323.4L451.7 402.5C449.2 405 446.6 407.3 443.9 409.5L397.7 363.3C404.6 346 408.3 327.3 408.3 308.3C408.3 226.3 341.8 159.8 259.8 159.8C240.8 159.8 222.2 163.4 204.8 170.4L81.3 47.1zM243.5 209.3C248.8 208.4 254.2 208 259.7 208C315.2 208 360.2 253 360.2 308.5C360.2 314 359.8 319.4 358.9 324.7L243.5 209.3zM378.3 480L232.1 333.8C233.3 414 298.1 478.7 378.2 479.9zM162.2 263.9L128.3 230L75.7 282.6C47.9 310.4 32.2 348.2 32.2 387.6C32.2 469.6 98.7 536.1 180.7 536.1C216.7 536.1 251.4 523 278.4 499.4C264.3 490.8 251.4 480.5 240 468.7C222.9 481.2 202.2 488.1 180.7 488.1C125.2 488.1 80.2 443.1 80.2 387.6C80.2 361 90.8 335.4 109.6 316.6L162.2 264z"/></svg>