<svg xmlns="http://www.w3.org/2000/svg" viewBox="0 0 640 640"><!--! Font Awesome Pro 7.2.0 by @fontawesome - https://fontawesome.com License - https://fontawesome.com/license (Commercial License) Copyright 2026 Fonticons, Inc. --><path fill="currentColor" d="M384 68.8C368.5 65.7 352.4 64 336 64L336 304L576 304C576 287.6 574.3 271.5 571.2 256C552.1 162 478 87.9 384 68.8zM522 256L384 256L384 118C451.5 135.4 504.6 188.5 522 256zM288 123.7L288 94.8L259.6 100.1C148.3 121 64 218.6 64 336C64 468.6 171.5 576 304 576C421.4 576 519 491.7 539.9 380.4L545.2 352L288 352L288 123.7zM112 336C112 252.4 165.4 181.3 240 154.9L240 400L485.1 400C458.7 474.6 387.6 528 304 528C198 528 112 442 112 336z"/></svg>