<svg xmlns="http://www.w3.org/2000/svg" viewBox="0 0 640 640"><!--! Font Awesome Pro 7.2.0 by @fontawesome - https://fontawesome.com License - https://fontawesome.com/license (Commercial License) Copyright 2026 Fonticons, Inc. --><path fill="currentColor" d="M352 68.8C336.5 65.7 320.4 64 304 64L304 304L389.8 304C420.2 283.8 456.7 272 496 272C512.1 272 527.7 274 542.6 277.7C541.8 270.4 540.7 263.1 539.2 256C520.1 162 446 87.9 352 68.8zM272 576C293.6 576 314.5 573.1 334.4 567.8C325.6 554.1 318.5 539.3 313.4 523.5C300.1 526.4 286.2 528 272 528C166 528 80 442 80 336C80 252.4 133.4 181.3 208 154.9L208 400L314.9 400C321 382.7 329.5 366.6 340 352L256 352L256 94.8L227.6 100.1C116.3 121 32 218.6 32 336C32 468.6 139.5 576 272 576zM490 256L352 256L352 118C419.5 135.4 472.6 188.5 490 256zM640 464C640 384.5 575.5 320 496 320C416.5 320 352 384.5 352 464C352 543.5 416.5 608 496 608C575.5 608 640 543.5 640 464zM512 392L544 392L544 424L482.2 424C476.6 424 472 428.6 472 434.2C472 439.1 475.5 443.3 480.3 444.2L525.3 452.4C545.3 456 559.9 473.5 559.9 493.9C559.9 517.2 541 536.1 517.7 536.1L511.9 536.1L511.9 560.1L479.9 560.1L479.9 536.1L447.9 536.1L447.9 504.1L517.7 504.1C523.3 504.1 527.9 499.5 527.9 493.9C527.9 489 524.4 484.8 519.6 483.9L474.6 475.7C454.6 472.1 440 454.6 440 434.2C440 411.6 457.7 393.2 480 392.1L480 368L512 368L512 392z"/></svg>