<svg xmlns="http://www.w3.org/2000/svg" viewBox="0 0 640 640"><!--! Font Awesome Pro 7.2.0 by @fontawesome - https://fontawesome.com License - https://fontawesome.com/license (Commercial License) Copyright 2026 Fonticons, Inc. --><path fill="currentColor" d="M182.9 560.1L45.5 320.1L182.9 80L458 80L595.4 320.1L458 560.1L182.9 560.1zM100.8 320.1L210.7 512.2L430.2 512.2L540.1 320.1L430.2 128L210.7 128L100.8 320.1zM360.5 224C360.5 231.6 358.4 238.7 354.7 244.8L394.9 345.4C412 350 424.5 365.5 424.5 384C424.5 406.1 406.6 424 384.5 424C368.6 424 354.8 414.7 348.4 401.3L251.2 381.9C244.1 388.2 234.8 392.1 224.5 392.1C202.4 392.1 184.5 374.2 184.5 352.1C184.5 330 202.4 312.1 224.5 312.1L282 235.2C281 231.6 280.4 227.9 280.4 224C280.4 201.9 298.3 184 320.4 184C342.5 184 360.4 201.9 360.4 224zM266.5 335.9L345.7 351.7L314 272.5L266.5 335.9z"/></svg>