<svg xmlns="http://www.w3.org/2000/svg" viewBox="0 0 640 640"><!--! Font Awesome Pro 7.2.0 by @fontawesome - https://fontawesome.com License - https://fontawesome.com/license (Commercial License) Copyright 2026 Fonticons, Inc. --><path fill="currentColor" d="M112 120L112 96L64 96L64 544L576 544L576 496L112 496L112 120zM408 192L384 192L384 240L462.1 240L368 334.1C305 271.1 273 239.1 272 238.1L255 255.1L167 343.1L150 360.1L183.9 394C186.2 391.7 215.5 362.4 271.9 306L350.9 385L367.9 402L384.9 385L495.9 274L495.9 352.1L543.9 352.1L543.9 192.1L407.9 192.1z"/></svg>