<svg xmlns="http://www.w3.org/2000/svg" viewBox="0 0 640 640"><!--! Font Awesome Pro 7.2.0 by @fontawesome - https://fontawesome.com License - https://fontawesome.com/license (Commercial License) Copyright 2026 Fonticons, Inc. --><path fill="currentColor" d="M112 96L112 496L576 496L576 544L64 544L64 96L112 96zM240 320C266.5 320 288 341.5 288 368C288 394.5 266.5 416 240 416C213.5 416 192 394.5 192 368C192 341.5 213.5 320 240 320zM440 352C440 338.7 429.3 328 416 328C402.7 328 392 338.7 392 352C392 365.3 402.7 376 416 376C429.3 376 440 365.3 440 352zM352 352C352 316.7 380.7 288 416 288C451.3 288 480 316.7 480 352C480 387.3 451.3 416 416 416C380.7 416 352 387.3 352 352zM304 192C330.5 192 352 213.5 352 240C352 266.5 330.5 288 304 288C277.5 288 256 266.5 256 240C256 213.5 277.5 192 304 192zM472 192C472 178.7 461.3 168 448 168C434.7 168 424 178.7 424 192C424 205.3 434.7 216 448 216C461.3 216 472 205.3 472 192zM384 192C384 156.7 412.7 128 448 128C483.3 128 512 156.7 512 192C512 227.3 483.3 256 448 256C412.7 256 384 227.3 384 192z"/></svg>