<svg xmlns="http://www.w3.org/2000/svg" viewBox="0 0 640 640"><!--! Font Awesome Pro 7.2.0 by @fontawesome - https://fontawesome.com License - https://fontawesome.com/license (Commercial License) Copyright 2026 Fonticons, Inc. --><path fill="currentColor" d="M112 496L112 368L396.2 368C405 377.8 417.8 384 432 384C446.2 384 459 377.8 467.8 368L528 368L528 496L112 496zM432 288C411.1 288 393.3 301.4 386.7 320L142.2 320L260.4 228.1C268 244.6 284.7 256 304 256C330.5 256 352 234.5 352 208C352 192.9 345 179.5 334.2 170.7L367.6 144.7C457.5 152.6 528 228.1 528 320L477.3 320C470.7 301.4 452.9 288 432 288zM352 96L64 320L64 544L576 544L576 320C576 196.3 475.7 96 352 96zM240 480C266.5 480 288 458.5 288 432C288 405.5 266.5 384 240 384C213.5 384 192 405.5 192 432C192 458.5 213.5 480 240 480z"/></svg>