<svg xmlns="http://www.w3.org/2000/svg" viewBox="0 0 640 640"><!--! Font Awesome Pro 7.2.0 by @fontawesome - https://fontawesome.com License - https://fontawesome.com/license (Commercial License) Copyright 2026 Fonticons, Inc. --><path fill="currentColor" d="M392 112L360 112L409.3 171.1C429.2 194.9 440 225 440 256C440 278.5 434.2 300.5 423.5 320L432 320L432 368L400 368L400 432L464 528L464 576L176 576L176 528L240 432L240 368L208 368L208 320L216.5 320C205.8 300.5 200 278.5 200 256C200 225 210.9 195 230.7 171.1L280 112L248 112L248 64L392 64L392 112zM233.7 528L406.3 528L374.3 480L265.7 480L233.7 528zM288 368L288 432L352 432L352 368L288 368zM267.6 201.8C254.9 217 248 236.2 248 256C248 275.8 254.9 294.9 267.6 310.1L275.8 320L364.2 320L372.4 310.1C385 294.9 392 275.8 392 256C392 245 389.8 234.2 385.8 224.2L344 266L310.1 232.1L357.8 184.4L320 139.1L267.6 202z"/></svg>