<svg xmlns="http://www.w3.org/2000/svg" viewBox="0 0 640 640"><!--! Font Awesome Pro 7.2.0 by @fontawesome - https://fontawesome.com License - https://fontawesome.com/license (Commercial License) Copyright 2026 Fonticons, Inc. --><path fill="currentColor" d="M320.3 112C333.6 112 344.3 122.7 344.3 136C344.3 149.3 333.6 160 320.3 160C307 160 296.3 149.3 296.3 136C296.3 122.7 307 112 320.3 112zM320.3 208C360.1 208 392.3 175.8 392.3 136C392.3 96.2 360.1 64 320.3 64C280.5 64 248.3 96.2 248.3 136C248.3 175.8 280.5 208 320.3 208zM224.9 288L240.4 288L240.4 576L288.4 576L288.4 448L352.4 448L352.4 576L400.4 576L400.4 288L414.2 288L421.1 276.1C465.8 199.5 488.5 160.6 489.2 159.4L447.7 135.2C445.8 138.5 425.4 173.4 386.5 240L252.8 240C215.1 173.6 195.3 138.7 193.4 135.3L151.6 159C152.4 160.4 174.5 199.4 217.9 275.9L224.9 288zM352.3 400L288.3 400L288.3 288L352.3 288L352.3 400z"/></svg>