<svg xmlns="http://www.w3.org/2000/svg" viewBox="0 0 640 640"><!--! Font Awesome Pro 7.2.0 by @fontawesome - https://fontawesome.com License - https://fontawesome.com/license (Commercial License) Copyright 2026 Fonticons, Inc. --><path fill="currentColor" d="M348.2 80.3L328.2 64.6L313.7 85.4L15.8 511.8L2.8 530.4C29 551 53.3 570.1 59.9 575.3L74.9 558.3L418.7 168L435.5 148.9C430.1 144.6 401 121.8 348.3 80.4zM160.9 387.9L338.5 133.8L365.9 155.2L160.9 387.9zM568.6 138L552.1 118.8L533.8 136.3L150.1 503.1L133.7 518.8C155.4 544.2 175.2 567.2 180.8 573.7L198.8 559.9L620 236.8L640.1 221.4C635.5 216 611.7 188.3 568.7 138.1zM570.6 214.1L323.7 403.5L548.7 188.5L570.6 214.1z"/></svg>