<svg xmlns="http://www.w3.org/2000/svg" viewBox="0 0 640 640"><!--! Font Awesome Pro 7.2.0 by @fontawesome - https://fontawesome.com License - https://fontawesome.com/license (Commercial License) Copyright 2026 Fonticons, Inc. --><path fill="currentColor" d="M344 32L344 80L400 80L400 128L344 128L344 170.9L469 251.8L480 258.9L480 306.2L564.1 355.3L576 362.2L576 576L64 576L64 362.2L75.9 355.3L160 306.2L160 258.9L171 251.8L296 170.9L296 128L240 128L240 80L296 80L296 32L344 32zM208 320L208 528L256 528L256 384L384 384L384 528L432 528L432 285.1L320 212.6L208 285.1L208 320zM480 528L528 528L528 389.8L480 361.8L480 528zM160 361.8L112 389.8L112 528L160 528L160 361.8z"/></svg>