<svg xmlns="http://www.w3.org/2000/svg" viewBox="0 0 640 640"><!--! Font Awesome Pro 7.2.0 by @fontawesome - https://fontawesome.com License - https://fontawesome.com/license (Commercial License) Copyright 2026 Fonticons, Inc. --><path fill="currentColor" d="M320 112C434.9 112 528 205.1 528 320C528 434.9 434.9 528 320 528C205.1 528 112 434.9 112 320C112 205.1 205.1 112 320 112zM320 576C461.4 576 576 461.4 576 320C576 178.6 461.4 64 320 64C178.6 64 64 178.6 64 320C64 461.4 178.6 576 320 576zM200 192L200 240L227.4 240C234.3 240 240 245.6 240 252.6L240 272L210.3 272L210.3 304L240 304L240 387.4C240 420.9 267.1 448 300.6 448L324.6 448C388.3 448 440 396.3 440 332.6L440 316.6C440 283.1 412.9 256 379.4 256L376 256L352 256L352 304L376 304L379.4 304C386.3 304 392 309.6 392 316.6L392 332.6C392 369.8 361.8 400 324.6 400L300.6 400C293.7 400 288 394.4 288 387.4L288 304L320 304L320 272L288 272L288 252.6C288 219.1 260.9 192 227.4 192L200 192z"/></svg>