<svg xmlns="http://www.w3.org/2000/svg" viewBox="0 0 640 640"><!--! Font Awesome Pro 7.2.0 by @fontawesome - https://fontawesome.com License - https://fontawesome.com/license (Commercial License) Copyright 2026 Fonticons, Inc. --><path fill="currentColor" d="M320 112C434.9 112 528 205.1 528 320C528 434.9 434.9 528 320 528C205.1 528 112 434.9 112 320C112 205.1 205.1 112 320 112zM320 576C461.4 576 576 461.4 576 320C576 178.6 461.4 64 320 64C178.6 64 64 178.6 64 320C64 461.4 178.6 576 320 576zM343.2 181.1L348.3 165.9L317.9 155.8L305.6 192.8C241.7 200 192.1 254.2 192.1 320C192.1 356.7 207.5 389.7 232.2 413.1C220.3 448.8 213.5 469.2 211.8 474.2L242.2 484.3C244.4 477.7 250.1 460.5 259.4 432.8C267.8 437.3 276.7 440.9 286.1 443.5C282.6 453.9 279.2 464.1 275.9 474.2L306.3 484.3C309.3 475.2 313.4 463.1 318.4 448C319 448 319.6 448 320.2 448C362.1 448 399.3 427.9 422.6 396.8L384 368C372.2 383.8 354.7 395 334.6 398.7L378.9 265.9C380.7 267.9 382.4 269.9 384 272L422.4 243.2C414.8 233 405.7 224.1 395.4 216.6C404.4 189.6 410 172.7 412.3 166L381.9 155.8C379.3 163.5 374.3 178.5 366.9 200.9C358.1 197.4 348.8 194.9 339.1 193.5L343.2 181.1zM351.7 246.5L301.2 397.8C291.6 395.5 282.7 391.5 274.8 386.1L323.5 240.1C333.5 240.5 342.9 242.8 351.6 246.5zM287.6 246.9L250.1 359C243.6 347.5 240 334.2 240 320C240 287.4 259.5 259.3 287.5 246.9z"/></svg>