<svg xmlns="http://www.w3.org/2000/svg" viewBox="0 0 640 640"><!--! Font Awesome Pro 7.2.0 by @fontawesome - https://fontawesome.com License - https://fontawesome.com/license (Commercial License) Copyright 2026 Fonticons, Inc. --><path fill="currentColor" d="M320 112C434.9 112 528 205.1 528 320C528 434.9 434.9 528 320 528C205.1 528 112 434.9 112 320C112 205.1 205.1 112 320 112zM320 576C461.4 576 576 461.4 576 320C576 178.6 461.4 64 320 64C178.6 64 64 178.6 64 320C64 461.4 178.6 576 320 576zM336 176L336 208L288 208L288 240L336 240L336 262.7C326.2 258.4 315.4 256 304 256C259.8 256 224 291.8 224 336C224 380.2 259.8 416 304 416C315.4 416 326.2 413.6 336 409.3L336 416L384 416L384 240L416 240L416 208L384 208L384 176L336 176zM304 368C286.3 368 272 353.7 272 336C272 318.3 286.3 304 304 304C321.7 304 336 318.3 336 336C336 353.7 321.7 368 304 368zM208 472L432 472L432 440L208 440L208 472z"/></svg>