<svg xmlns="http://www.w3.org/2000/svg" viewBox="0 0 640 640"><!--! Font Awesome Pro 7.2.0 by @fontawesome - https://fontawesome.com License - https://fontawesome.com/license (Commercial License) Copyright 2026 Fonticons, Inc. --><path fill="currentColor" d="M320 112C434.9 112 528 205.1 528 320C528 434.9 434.9 528 320 528C205.1 528 112 434.9 112 320C112 205.1 205.1 112 320 112zM320 576C461.4 576 576 461.4 576 320C576 178.6 461.4 64 320 64C178.6 64 64 178.6 64 320C64 461.4 178.6 576 320 576zM232 192L232 252.7C232 271.3 239.2 289.1 252 302.5L259.3 310.2L237.4 326.3C218.9 339.9 208 361.4 208 384.4L208 448.1L348.6 448.1C352.8 442.1 358.7 433.4 366.5 422.2L391.3 448.1L457.4 448.1C456.7 447.2 456 446.3 455.2 445.5L394.3 381.9C419.8 345.1 435.5 322.5 441.3 314L401.8 286.7C395 296.5 381.2 316.4 360.4 346.5L331.8 316.6L349.8 303.4C366.2 291.3 376 272.2 376 251.8L376 192.1L232 192.1zM298.4 281.6L286.7 269.4C282.4 264.9 280 259 280 252.8L280 240.1L328 240.1L328 251.8C328 256.9 325.6 261.7 321.5 264.7L298.4 281.6zM292.8 345.2L332.6 386.7L323.4 400L256 400L256 384.3C256 376.7 259.6 369.5 265.8 364.9L292.8 345.1z"/></svg>