<svg xmlns="http://www.w3.org/2000/svg" viewBox="0 0 640 640"><!--! Font Awesome Pro 7.2.0 by @fontawesome - https://fontawesome.com License - https://fontawesome.com/license (Commercial License) Copyright 2026 Fonticons, Inc. --><path fill="currentColor" d="M320 112C434.9 112 528 205.1 528 320C528 434.9 434.9 528 320 528C205.1 528 112 434.9 112 320C112 205.1 205.1 112 320 112zM320 576C461.4 576 576 461.4 576 320C576 178.6 461.4 64 320 64C178.6 64 64 178.6 64 320C64 461.4 178.6 576 320 576zM415.4 216L415.4 192L367.4 192L367.4 312.6C352.1 318.7 340 323.6 331.2 327.1L343.1 356.8C353.9 352.5 362 349.2 367.4 347.1L367.4 448L415.4 448L415.4 327.9C431.7 321.4 444.1 316.4 452.8 313L440.9 283.3C430.3 287.5 421.8 290.9 415.4 293.5L415.4 216.1zM200 256L200 304L260.9 304C227 391.3 208.3 439.3 204.9 448L336 448L336 400L275.1 400C309 312.7 327.7 264.7 331.1 256L200 256z"/></svg>