<svg xmlns="http://www.w3.org/2000/svg" viewBox="0 0 640 640"><!--! Font Awesome Pro 7.2.0 by @fontawesome - https://fontawesome.com License - https://fontawesome.com/license (Commercial License) Copyright 2026 Fonticons, Inc. --><path fill="currentColor" d="M320 112C434.9 112 528 205.1 528 320C528 434.9 434.9 528 320 528C205.1 528 112 434.9 112 320C112 205.1 205.1 112 320 112zM320 576C461.4 576 576 461.4 576 320C576 178.6 461.4 64 320 64C178.6 64 64 178.6 64 320C64 461.4 178.6 576 320 576zM405.1 167.9L375.9 154.9C374.8 157.3 364 181.8 343.2 228.4C334.6 231.6 326.7 236.3 320 242.3C307.3 230.9 290.4 224 272 224C263.6 224 255.5 225.4 248 228.1L248 224L200 224C200 233.3 200 262.7 200 312L200 336L200 336C200 378.7 200 405.3 200 416L248 416C248 412 248 372 248 296C248 282.7 258.7 272 272 272C285.1 272 295.8 282.5 296 295.6L296 296L296 334.6L241.4 457.5L234.9 472.1L264.1 485.1C265.3 482.4 275.9 458.5 296 413.4L296 416L344 416L344 305.4L357.8 274.3C360.9 272.9 364.3 272.1 368 272.1C381.3 272.1 392 282.8 392 296.1L392 416.1L440 416.1L440 296.1C440 260.3 413.9 230.7 379.8 225.1C394.4 192.2 402.9 173.1 405.2 168z"/></svg>