<svg xmlns="http://www.w3.org/2000/svg" viewBox="0 0 640 640"><!--! Font Awesome Pro 7.2.0 by @fontawesome - https://fontawesome.com License - https://fontawesome.com/license (Commercial License) Copyright 2026 Fonticons, Inc. --><path fill="currentColor" d="M320 112C434.9 112 528 205.1 528 320C528 434.9 434.9 528 320 528C205.1 528 112 434.9 112 320C112 205.1 205.1 112 320 112zM320 576C461.4 576 576 461.4 576 320C576 178.6 461.4 64 320 64C178.6 64 64 178.6 64 320C64 461.4 178.6 576 320 576zM440 224C440 193.1 414.9 168 384 168C353.1 168 328 193.1 328 224C328 229.3 328.7 234.5 330.1 239.3L260.3 277.4C250.5 269 237.8 264 224 264C193.1 264 168 289.1 168 320C168 350.9 193.1 376 224 376C237.9 376 250.6 371 260.3 362.6L330.1 400.7C328.7 405.6 328 410.7 328 416C328 446.9 353.1 472 384 472C414.9 472 440 446.9 440 416C440 385.1 414.9 360 384 360C373.2 360 363.1 363.1 354.5 368.4L279.5 327.5C279.8 325.1 280 322.5 280 320C280 317.5 279.8 315 279.5 312.5L354.5 271.6C363.1 276.9 373.2 280 384 280C414.9 280 440 254.9 440 224z"/></svg>