<svg xmlns="http://www.w3.org/2000/svg" viewBox="0 0 640 640"><!--! Font Awesome Pro 7.2.0 by @fontawesome - https://fontawesome.com License - https://fontawesome.com/license (Commercial License) Copyright 2026 Fonticons, Inc. --><path fill="currentColor" d="M320 112C434.9 112 528 205.1 528 320C528 434.9 434.9 528 320 528C205.1 528 112 434.9 112 320C112 205.1 205.1 112 320 112zM320 576C461.4 576 576 461.4 576 320C576 178.6 461.4 64 320 64C178.6 64 64 178.6 64 320C64 461.4 178.6 576 320 576zM303 417L320 434C322.1 431.9 351.8 402.2 409 345L426 328L392.1 294.1C383.1 303.1 367.1 319.1 344.1 342.1L344.1 216L296.1 216C296.1 219 296.1 261 296.1 342.1C273.1 319.1 257.1 303.1 248.1 294.1L214.1 328C216.2 330.1 245.9 359.8 303.1 417z"/></svg>