<svg xmlns="http://www.w3.org/2000/svg" viewBox="0 0 640 640"><!--! Font Awesome Pro 7.2.0 by @fontawesome - https://fontawesome.com License - https://fontawesome.com/license (Commercial License) Copyright 2026 Fonticons, Inc. --><path fill="currentColor" d="M272 368L272 117.6C180.3 139.3 112 221.7 112 320C112 434.9 205.1 528 320 528C418.4 528 500.8 459.7 522.4 368L272 368zM571.5 368C549 486.4 445 576 320 576C178.6 576 64 461.4 64 320C64 195 153.6 91 272 68.5C287.5 65.5 303.6 64 320 64L320 320L576 320C576 336.4 574.5 352.5 571.5 368z"/></svg>