<svg xmlns="http://www.w3.org/2000/svg" viewBox="0 0 640 640"><!--! Font Awesome Pro 7.2.0 by @fontawesome - https://fontawesome.com License - https://fontawesome.com/license (Commercial License) Copyright 2026 Fonticons, Inc. --><path fill="currentColor" d="M320 112C434.9 112 528 205.1 528 320C528 434.9 434.9 528 320 528C205.1 528 112 434.9 112 320C112 205.1 205.1 112 320 112zM320 576C461.4 576 576 461.4 576 320C576 178.6 461.4 64 320 64C178.6 64 64 178.6 64 320C64 461.4 178.6 576 320 576zM184 224L160 224L160 416L208 416L208 360L226.1 360C245 393.1 257.4 414.7 263.1 424.7L304.8 400.9C297.8 388.7 288 371.5 275.3 349.3C294.2 337.2 306.7 316.1 306.7 292C306.7 254.4 276.3 224 238.7 224L184 224zM238.7 312L208 312L208 272L238.7 272C249.7 272 258.7 281 258.7 292C258.7 303 249.7 312 238.7 312zM320 416L368 416L368 316.1C375 326.1 385.7 341.3 400 361.8C414.3 341.3 425 326.1 432 316.1L432 416L480 416L480 224L437.9 224C437.1 225.2 424.4 243.3 400 278.1C375.6 243.2 362.9 225.2 362.1 224L320 224L320 416z"/></svg>