<svg xmlns="http://www.w3.org/2000/svg" viewBox="0 0 640 640"><!--! Font Awesome Pro 7.2.0 by @fontawesome - https://fontawesome.com License - https://fontawesome.com/license (Commercial License) Copyright 2026 Fonticons, Inc. --><path fill="currentColor" d="M320 112C434.9 112 528 205.1 528 320C528 434.9 434.9 528 320 528C205.1 528 112 434.9 112 320C112 205.1 205.1 112 320 112zM320 576C461.4 576 576 461.4 576 320C576 178.6 461.4 64 320 64C178.6 64 64 178.6 64 320C64 461.4 178.6 576 320 576zM239.5 264L224 264L224 296L245.6 296C245.8 296.5 246 297 246.2 297.5L247.6 301C250.1 307.1 251.6 313.6 251.9 320L224 320L224 352L244.4 352C243 354.4 241.5 356.7 239.7 359C225 377.9 217.1 388.1 216 389.5L216 432L416 432L416 384L280.9 384C287.8 374.1 292.9 363.3 296 352L384 352L384 320L300 320C299.8 312 298.6 303.9 296.5 296L384 296L384 264L287.5 264C287.5 242.9 304.5 224 327.5 224L329.7 224C339 224 348 227 355.4 232.6L369.6 243.2L398.4 204.8L384.2 194.2C368.5 182.4 349.3 176 329.7 176L327.5 176C276.9 176 239.4 217.5 239.4 264z"/></svg>