<svg xmlns="http://www.w3.org/2000/svg" viewBox="0 0 640 640"><!--! Font Awesome Pro 7.2.0 by @fontawesome - https://fontawesome.com License - https://fontawesome.com/license (Commercial License) Copyright 2026 Fonticons, Inc. --><path fill="currentColor" d="M528 320C528 205.1 434.9 112 320 112C205.1 112 112 205.1 112 320C112 380.2 137.6 434.5 178.5 472.5L208 384L432 384L461.5 472.5C502.4 434.5 528 380.3 528 320zM397.4 432L242.6 432L219.3 502C249.1 518.6 283.5 528 320 528C356.5 528 390.9 518.6 420.7 502L397.4 432zM64 320C64 178.6 178.6 64 320 64C461.4 64 576 178.6 576 320C576 461.4 461.4 576 320 576C178.6 576 64 461.4 64 320zM280 264C280 286.1 297.9 304 320 304C342.1 304 360 286.1 360 264C360 241.9 342.1 224 320 224C297.9 224 280 241.9 280 264zM320 352C271.4 352 232 312.6 232 264C232 215.4 271.4 176 320 176C368.6 176 408 215.4 408 264C408 312.6 368.6 352 320 352z"/></svg>