<svg xmlns="http://www.w3.org/2000/svg" viewBox="0 0 640 640"><!--! Font Awesome Pro 7.2.0 by @fontawesome - https://fontawesome.com License - https://fontawesome.com/license (Commercial License) Copyright 2026 Fonticons, Inc. --><path fill="currentColor" d="M320 112C434.9 112 528 205.1 528 320C528 434.9 434.9 528 320 528C205.1 528 112 434.9 112 320C112 205.1 205.1 112 320 112zM320 576C461.4 576 576 461.4 576 320C576 178.6 461.4 64 320 64C178.6 64 64 178.6 64 320C64 461.4 178.6 576 320 576zM304 201.1C245.3 208.9 200 259.2 200 320C200 380.8 245.3 431.1 304 438.9L304 464L336 464L336 438.9C394.7 431.1 440 380.8 440 320L440 296L336 296L336 249.8C349.2 252.8 361 259.4 370.4 268.6L404 234.3C386 216.6 362.3 204.6 336 201.1L336 176L304 176L304 201.1zM248 320C248 285.7 271.9 257.1 304 249.8L304 390.2C271.9 382.9 248 354.3 248 320zM387.9 344C379.7 367.1 360.2 384.7 336 390.2L336 344L387.9 344z"/></svg>