<svg xmlns="http://www.w3.org/2000/svg" viewBox="0 0 640 640"><!--! Font Awesome Pro 7.2.0 by @fontawesome - https://fontawesome.com License - https://fontawesome.com/license (Commercial License) Copyright 2026 Fonticons, Inc. --><path fill="currentColor" d="M528 320C528 205.1 434.9 112 320 112C205.1 112 112 205.1 112 320C112 434.9 205.1 528 320 528C434.9 528 528 434.9 528 320zM64 320C64 178.6 178.6 64 320 64C461.4 64 576 178.6 576 320C576 461.4 461.4 576 320 576C178.6 576 64 461.4 64 320zM208.2 304L184 304L184 272L216.1 272C235.7 220.5 285.6 184 343.9 184L400.9 184L400.9 232L343.9 232C312.9 232 285.6 247.9 269.7 272L336 272L336 304L256.7 304C255.7 309.4 255.1 315 255.1 320.8C255.1 326 255.5 331.1 256.4 336L335.9 336L335.9 368L268.7 368C284.4 392.9 312.2 409.5 343.9 409.5L400.9 409.5L400.9 457.5L343.9 457.5C285 457.5 234.8 420.2 215.5 368L184 368L184 336L208 336C207.4 331 207.2 325.9 207.2 320.8C207.2 315.1 207.5 309.5 208.2 304z"/></svg>