<svg xmlns="http://www.w3.org/2000/svg" viewBox="0 0 640 640"><!--! Font Awesome Pro 7.2.0 by @fontawesome - https://fontawesome.com License - https://fontawesome.com/license (Commercial License) Copyright 2026 Fonticons, Inc. --><path fill="currentColor" d="M320 112C434.9 112 528 205.1 528 320C528 434.9 434.9 528 320 528C205.1 528 112 434.9 112 320C112 205.1 205.1 112 320 112zM320 576C461.4 576 576 461.4 576 320C576 178.6 461.4 64 320 64C178.6 64 64 178.6 64 320C64 461.4 178.6 576 320 576zM296.1 208C296.1 208.2 287.9 245.5 271.5 320L252.8 320C229 250.6 216.4 213.8 214.9 209.5L169.5 225.1C171.9 232 182.7 263.6 202 320L175.9 320L175.9 352L212.9 352L245.7 447.8L251.3 464L288.9 464C288.9 463.8 297.1 426.5 313.5 352L326.2 352L346.7 445.1L350.8 463.9L388.4 463.9L394 447.7L426.8 351.9L463.8 351.9L463.8 319.9L437.7 319.9C457 263.5 467.9 231.9 470.2 225L424.8 209.4C423.3 213.7 410.7 250.5 386.9 319.9L368.2 319.9L347.7 226.7L343.6 207.9L295.9 207.9zM375.8 353.3L375.5 352L376.2 352L375.8 353.3zM263.8 352L264.5 352L264.2 353.3L263.8 352z"/></svg>