<svg xmlns="http://www.w3.org/2000/svg" viewBox="0 0 640 640"><!--! Font Awesome Pro 7.2.0 by @fontawesome - https://fontawesome.com License - https://fontawesome.com/license (Commercial License) Copyright 2026 Fonticons, Inc. --><path fill="currentColor" d="M320 112C434.9 112 528 205.1 528 320C528 434.9 434.9 528 320 528C205.1 528 112 434.9 112 320C112 205.1 205.1 112 320 112zM320 576C461.4 576 576 461.4 576 320C576 178.6 461.4 64 320 64C178.6 64 64 178.6 64 320C64 461.4 178.6 576 320 576zM223 303L206 320C208.1 322.1 237.8 351.8 295 409L312 426L345.9 392.1C336.9 383.1 320.9 367.1 297.9 344.1L424 344.1L424 296.1C421 296.1 379 296.1 297.9 296.1C320.9 273.1 336.9 257.1 345.9 248.1L312 214.1C309.9 216.2 280.2 245.9 223 303.1z"/></svg>