<svg xmlns="http://www.w3.org/2000/svg" viewBox="0 0 640 640"><!--! Font Awesome Pro 7.2.0 by @fontawesome - https://fontawesome.com License - https://fontawesome.com/license (Commercial License) Copyright 2026 Fonticons, Inc. --><path fill="currentColor" d="M432 96L512 96L512 576L128 576L128 96L208 96L208 64L432 64L432 96zM176 528L464 528L464 144L432 144L432 208L208 208L208 144L176 144L176 528zM348 484L292 484L292 428L348 428L348 484zM339.2 392L300.8 392L288 248L352 248L339.2 392zM256 160L384 160L384 112L256 112L256 160z"/></svg>