<svg xmlns="http://www.w3.org/2000/svg" viewBox="0 0 640 640"><!--! Font Awesome Pro 7.2.0 by @fontawesome - https://fontawesome.com License - https://fontawesome.com/license (Commercial License) Copyright 2026 Fonticons, Inc. --><path fill="currentColor" d="M81.3 47L64.3 30L30.4 63.9L47.4 80.9L559.4 592.9L576.4 609.9L610.3 576L578.3 544L608.2 544L608.2 416C608.2 368.6 582.4 327.2 544.2 305.1L544.2 264C544.2 197.7 490.5 144 424.2 144C412.7 144 401.5 145.6 390.9 148.7C361.6 116.4 319.3 96 272.2 96C232.6 96 196.4 110.4 168.5 134.2L81.3 47zM202.5 168.3C221.6 153.1 245.8 144 272.1 144C309.8 144 343.1 162.6 363.4 191.1L375.1 207.5L393.3 198.9C402.6 194.5 413 192 424.1 192C463.9 192 496.1 224.2 496.1 264L496.1 336L510.9 342.2C539.9 354.3 560.1 382.8 560.1 416.1L560.1 496.1L530.2 496.1L202.5 168.4zM394.3 496L80.1 496L80.1 400C80.1 358.2 106.8 322.6 144.1 309.5L160.1 303.8L160.1 261.8L116.6 218.3C113.7 230.4 112.1 243 112.1 256L112.1 271C64.7 294.6 32.1 343.5 32.1 400L32.1 544L442.3 544L394.3 496z"/></svg>