<svg xmlns="http://www.w3.org/2000/svg" viewBox="0 0 640 640"><!--! Font Awesome Pro 7.2.0 by @fontawesome - https://fontawesome.com License - https://fontawesome.com/license (Commercial License) Copyright 2026 Fonticons, Inc. --><path fill="currentColor" d="M248 112C208.2 112 176 144.2 176 184L176 221.2L156.8 225.1C131.2 230.3 112 252.9 112 280L112 336L221.7 336L173.7 384L64 384L64 280C64 236.7 90.4 199.7 128 184C128 117.7 181.7 64 248 64C285.9 64 319.7 81.6 341.7 109C356.6 100.7 373.8 96 392 96C442 96 483.7 131.3 493.7 178.3C540.7 188.3 576 230 576 280L576 384L466.3 384L418.3 336L528 336L528 280C528 249.1 502.9 224 472 224L448 224L448 200C448 169.1 422.9 144 392 144C376.4 144 362.4 150.3 352.2 160.6L327.9 185.1L313.4 153.8C301.9 129.1 276.9 112 248 112zM236.1 498.7L208 480L208 448L236.1 429.3L229.5 396.2L252.1 373.6L285.2 380.2L303.9 352.1L335.9 352.1L354.6 380.2L387.7 373.6L410.3 396.2L403.7 429.3L431.8 448L431.8 480L403.7 498.7L410.3 531.8L387.7 554.4L354.6 547.8L335.9 575.9L303.9 575.9L285.2 547.8L252.1 554.4L229.5 531.8L236.1 498.7zM112 416C138.5 416 160 437.5 160 464C160 490.5 138.5 512 112 512C85.5 512 64 490.5 64 464C64 437.5 85.5 416 112 416zM528 416C554.5 416 576 437.5 576 464C576 490.5 554.5 512 528 512C501.5 512 480 490.5 480 464C480 437.5 501.5 416 528 416z"/></svg>