<svg xmlns="http://www.w3.org/2000/svg" viewBox="0 0 640 640"><!--! Font Awesome Pro 7.2.0 by @fontawesome - https://fontawesome.com License - https://fontawesome.com/license (Commercial License) Copyright 2026 Fonticons, Inc. --><path fill="currentColor" d="M176.3 184C176.3 144.2 208.5 112 248.3 112C277.2 112 302.2 129.1 313.7 153.8L328.2 185.1L352.5 160.6C362.7 150.3 376.7 144 392.3 144C423.2 144 448.3 169.1 448.3 200L448.3 224L472.3 224C503.2 224 528.3 249.1 528.3 280L528.3 336L112.3 336L112.3 280C112.3 252.9 131.5 230.3 157.1 225.1L176.3 221.2L176.3 184zM248.3 64C182 64 128.3 117.7 128.3 184C90.7 199.7 64.3 236.7 64.3 280L64.3 384L576.3 384L576.3 280C576.3 230 541 188.3 494 178.3C484 131.3 442.3 96 392.3 96C374 96 356.9 100.7 342 109C320 81.6 286.3 64 248.3 64zM111 432L63 576L113.6 576L161.6 432L111 432zM409.6 432L359 432L311 576L361.6 576L409.6 432zM264.3 456L264.3 432L216.3 432L216.3 472L176.3 472L176.3 520L216.3 520L216.3 560L264.3 560L264.3 520L304.3 520L304.3 472L264.3 472L264.3 456zM512.3 432L464.3 432L464.3 472L424.3 472L424.3 520L464.3 520L464.3 560L512.3 560L512.3 520L552.3 520L552.3 472L512.3 472L512.3 432z"/></svg>