<svg xmlns="http://www.w3.org/2000/svg" viewBox="0 0 640 640"><!--! Font Awesome Pro 7.2.0 by @fontawesome - https://fontawesome.com License - https://fontawesome.com/license (Commercial License) Copyright 2026 Fonticons, Inc. --><path fill="currentColor" d="M557.8 80.4C492.5 96.6 444 155.6 444 226C444 308.8 511.2 376 594 376C607.9 376 621.3 374.1 634.1 370.6C606.8 407.2 566.7 433.8 520.5 443.7C509.3 411.4 486.2 384.7 456.6 368.5C437 312.3 383.5 271.9 320.6 271.9C313.7 271.9 306.9 272.4 300.2 273.3C296.3 270.1 292.3 267.1 288.1 264.3C288 261.5 287.9 258.7 287.9 255.9C287.9 149.9 373.9 63.9 479.9 63.9C507.6 63.9 533.9 69.8 557.7 80.3zM160.6 383.4L160.6 424L136.6 424C105.4 424 80 449.3 80 480L80 528L431.9 528L431.9 488C431.9 466.5 413.7 448.3 392.3 448L368.6 447.7L368.6 416C368.6 389.5 347.1 368 320.6 368C309.3 368 298.9 371.9 290.7 378.4L264.5 399.3L253.2 367.7C246.5 349.1 228.8 335.9 208 335.9C181.8 335.9 160.6 357.1 160.6 383.3zM208 288C239.6 288 267.6 303.3 285.1 326.8C296.1 322.4 308.1 320 320.6 320C369.3 320 409.6 356.3 415.8 403.3C452.4 413.9 479.9 447.9 479.9 487.9L479.9 575.9L32 575.9L32 479.9C32 430.5 66.8 389.5 112.7 378.7C115.1 328.2 156.8 287.9 208 287.9z"/></svg>