<svg xmlns="http://www.w3.org/2000/svg" viewBox="0 0 640 640"><!--! Font Awesome Pro 7.2.0 by @fontawesome - https://fontawesome.com License - https://fontawesome.com/license (Commercial License) Copyright 2026 Fonticons, Inc. --><path fill="currentColor" d="M362.3 208C417.8 148.9 496.6 112 584 112L608 112L608 64L584 64C470.3 64 369.3 117.9 304.9 201.4C310.6 204.9 316 208.8 321.2 213C333.6 209.7 346.6 208 360 208C360.8 208 361.5 208 362.3 208zM530.3 317.7C546.2 309 564.5 304 584 304L608 304L608 256L584 256C549.8 256 518.2 266.7 492.2 284.9C495 289.8 497.5 294.9 499.8 300.2C510.7 304.9 520.9 310.7 530.3 317.7zM462.2 247.4C496.4 222.6 538.5 208 584 208L608 208L608 160L584 160C521.3 160 463.8 182.6 419.3 220C435.1 226.7 449.6 236 462.1 247.4zM144 344C144 304.2 176.2 272 216 272C244.9 272 269.9 289.1 281.4 313.8L295.9 345.1L320.2 320.6C330.4 310.3 344.4 304 360 304C390.9 304 416 329.1 416 360L416 384L440 384C470.9 384 496 409.1 496 440L496 496L80 496L80 440C80 412.9 99.2 390.3 124.8 385.1L144 381.2L144 344zM216 224C149.7 224 96 277.7 96 344C58.4 359.7 32 396.7 32 440L32 544L544 544L544 440C544 390 508.7 348.3 461.7 338.3C451.7 291.3 410 256 360 256C341.7 256 324.6 260.7 309.7 269C287.7 241.6 254 224 216 224z"/></svg>