<svg xmlns="http://www.w3.org/2000/svg" viewBox="0 0 640 640"><!--! Font Awesome Pro 7.2.0 by @fontawesome - https://fontawesome.com License - https://fontawesome.com/license (Commercial License) Copyright 2026 Fonticons, Inc. --><path fill="currentColor" d="M176 184C176 144.2 208.2 112 248 112C276.9 112 301.9 129.1 313.4 153.8L327.9 185.1L352.2 160.6C362.4 150.3 376.4 144 392 144C422.9 144 448 169.1 448 200L448 224L472 224C502.9 224 528 249.1 528 280L528 336L112 336L112 280C112 252.9 131.2 230.3 156.8 225.1L176 221.2L176 184zM248 64C181.7 64 128 117.7 128 184C90.4 199.7 64 236.7 64 280L64 384L576 384L576 280C576 230 540.7 188.3 493.7 178.3C483.7 131.3 442 96 392 96C373.7 96 356.6 100.7 341.7 109C319.7 81.6 286 64 248 64zM176 456L176 432L128 432L128 544L176 544L176 456zM400 456L400 432L352 432L352 544L400 544L400 456zM288 488L288 464L240 464L240 576L288 576L288 488zM512 488L512 464L464 464L464 576L512 576L512 488z"/></svg>