<svg xmlns="http://www.w3.org/2000/svg" viewBox="0 0 640 640"><!--! Font Awesome Pro 7.2.0 by @fontawesome - https://fontawesome.com License - https://fontawesome.com/license (Commercial License) Copyright 2026 Fonticons, Inc. --><path fill="currentColor" d="M176 112L176 176L240 176L240 112L176 112zM128 64L288 64L288 224L232 224L232 416L288 416L288 576L128 576L128 416L184 416L184 224L128 224L128 64zM176 464L176 528L240 528L240 464L176 464zM464 464L400 464L400 528L464 528L464 464zM400 416L512 416L512 576L352 576L352 416L400 416zM392 240L472 240L472 320L392 320L392 240zM472 96L472 176L392 176L392 96L472 96z"/></svg>