<svg xmlns="http://www.w3.org/2000/svg" viewBox="0 0 640 640"><!--! Font Awesome Pro 7.2.0 by @fontawesome - https://fontawesome.com License - https://fontawesome.com/license (Commercial License) Copyright 2026 Fonticons, Inc. --><path fill="currentColor" d="M144 112L144 176L208 176L208 112L144 112zM96 64L256 64L256 224L200 224L200 296L384 296C414.9 296 440 270.9 440 240L440 224L384 224L384 64L544 64L544 224L488 224L488 240C488 297.4 441.4 344 384 344L200 344L200 416L256 416L256 576L96 576L96 416L152 416L152 224L96 224L96 64zM208 528L208 464L144 464L144 528L208 528zM496 112L432 112L432 176L496 176L496 112z"/></svg>