<svg xmlns="http://www.w3.org/2000/svg" viewBox="0 0 640 640"><!--! Font Awesome Pro 7.2.0 by @fontawesome - https://fontawesome.com License - https://fontawesome.com/license (Commercial License) Copyright 2026 Fonticons, Inc. --><path fill="currentColor" d="M403.6 424C409.8 399.2 413.9 372.2 415.4 344L463.4 344C461.9 373.1 457.8 400.1 451.7 424L403.7 424zM356 528C368.2 512.4 379 493.5 387.9 472L435.2 472C434 474.6 432.8 477.1 431.6 479.6C411 520.8 391.4 528 384 528L356 528zM128 320C128 461.4 192.5 576 272 576L384 576C454.7 576 512 461.4 512 320C512 178.6 454.7 64 384 64L272 64C192.5 64 128 178.6 128 320zM391.1 176C381.6 151.2 369.7 129.5 356 112L384 112C391.4 112 411 119.2 431.6 160.4C434 165.3 436.4 170.5 438.6 176L391.1 176zM415.4 296C414.1 270.8 410.7 246.6 405.6 224L453.7 224C458.7 245.9 462.2 270.1 463.5 296L415.5 296zM272 512C219 512 176 426 176 320C176 214 219 128 272 128C325 128 368 214 368 320C368 426 325 512 272 512zM336 320C336 240.5 307.3 176 272 176C236.7 176 208 240.5 208 320C208 399.5 236.7 464 272 464C307.3 464 336 399.5 336 320zM272 400C267 400 262.6 388.6 259.6 370.8C257.3 357 256 339.3 256 320C256 300.7 257.4 283 259.6 269.2C262.6 251.4 267 240 272 240C277 240 281.4 251.4 284.4 269.2C286.7 283 288 300.7 288 320C288 339.3 286.6 357 284.4 370.8C281.4 388.6 277 400 272 400z"/></svg>