<svg xmlns="http://www.w3.org/2000/svg" viewBox="0 0 640 640"><!--! Font Awesome Pro 7.2.0 by @fontawesome - https://fontawesome.com License - https://fontawesome.com/license (Commercial License) Copyright 2026 Fonticons, Inc. --><path fill="currentColor" d="M384.5 135.2C359 94.5 337.6 60.1 320 32C302.4 60.1 280.9 94.5 255.5 135.2C145.4 160.2 64 247.8 64 352C64 475.7 178.6 576 320 576C461.4 576 576 475.7 576 352C576 247.8 494.6 160.2 384.5 135.2zM320 122.6C338 151.5 349.5 169.8 354.4 177.6L373.9 182C466.9 203.1 528 274.7 528 352C528 443.4 441.1 528 320 528C198.9 528 112 443.4 112 352C112 274.7 173.1 203.1 266.1 182L285.6 177.6C290.5 169.8 301.9 151.5 320 122.6z"/></svg>