<svg xmlns="http://www.w3.org/2000/svg" viewBox="0 0 640 640"><!--! Font Awesome Pro 7.2.0 by @fontawesome - https://fontawesome.com License - https://fontawesome.com/license (Commercial License) Copyright 2026 Fonticons, Inc. --><path fill="currentColor" d="M384.5 504.8C359 545.5 337.6 579.9 320 608C302.4 579.9 280.9 545.5 255.5 504.8C145.4 479.8 64 392.2 64 288C64 164.3 178.6 64 320 64C461.4 64 576 164.3 576 288C576 392.2 494.6 479.8 384.5 504.8zM320 517.4C338 488.5 349.5 470.2 354.4 462.4L373.9 458C466.9 436.9 528 365.3 528 288C528 196.6 441.1 112 320 112C198.9 112 112 196.6 112 288C112 365.3 173.1 436.9 266.1 458L285.6 462.4C290.5 470.2 301.9 488.5 320 517.4z"/></svg>