<svg xmlns="http://www.w3.org/2000/svg" viewBox="0 0 640 640"><!--! Font Awesome Pro 7.2.0 by @fontawesome - https://fontawesome.com License - https://fontawesome.com/license (Commercial License) Copyright 2026 Fonticons, Inc. --><path fill="currentColor" d="M88 256L208 256L208 384L64 384L64 576L256 576L256 432L384 432L384 576L576 576L576 384L432 384L432 256L576 256L576 64L384 64L384 208L256 208L256 64L64 64L64 256L88 256zM320 384L256 384L256 256L384 256L384 384L320 384zM112 208L112 112L208 112L208 208L112 208zM208 528L112 528L112 432L208 432L208 528zM432 208L432 112L528 112L528 208L432 208zM528 432L528 528L432 528L432 432L528 432z"/></svg>