<svg xmlns="http://www.w3.org/2000/svg" viewBox="0 0 640 640"><!--! Font Awesome Pro 7.2.0 by @fontawesome - https://fontawesome.com License - https://fontawesome.com/license (Commercial License) Copyright 2026 Fonticons, Inc. --><path fill="currentColor" d="M264.7 564.4C252.1 571.9 227.9 586.5 192 608L192 512L64 512L64 96L576 96L576 512L352 512L264.7 564.4zM240 523.2C262.9 509.5 307.8 482.5 327.3 470.8L338.7 464L528 464L528 144L112 144L112 464L240 464L240 523.2zM304 224L304 344C304 383.8 271.8 416 232 416L208 416L208 368L232 368C245.3 368 256 357.3 256 344L256 336L192 336L192 224L304 224zM464 336L464 344C464 383.8 431.8 416 392 416L368 416L368 368L392 368C405.3 368 416 357.3 416 344L416 336L352 336L352 224L464 224L464 336z"/></svg>