<svg xmlns="http://www.w3.org/2000/svg" viewBox="0 0 640 640"><!--! Font Awesome Pro 7.2.0 by @fontawesome - https://fontawesome.com License - https://fontawesome.com/license (Commercial License) Copyright 2026 Fonticons, Inc. --><path fill="currentColor" d="M81.3 47.1L64.3 30.1L30.4 64L47.4 81L559.4 593L576.4 610L610.3 576.1L593.3 559.1L504.6 470.4C548.9 427.3 576.1 368.6 576.1 304C576.1 171.5 461.5 64 320.1 64C257.1 64 199.4 85.3 154.8 120.7L81.3 47.1zM189.1 154.9C224.5 128.2 269.8 112 320.2 112C438 112 528.2 200.8 528.2 304C528.2 354.5 506.6 401.6 470.7 436.5L189.1 154.9zM384.9 486.6C364.6 492.7 342.9 496 320.1 496C289.6 496 260.9 490 235 479.2L218.2 472.2C212.6 474.1 189.4 482.1 148.4 496.2C156.6 476.1 164.1 457.6 171 440.6L153.2 418.6C127.1 386.4 112 346.7 112 304C112 278 117.7 252.9 128.2 230L92.5 194.2C74.4 227.1 64.2 264.5 64.2 304C64.2 358.4 83.5 408.6 116 448.8C96.9 495.8 79.6 538.2 64.2 576C99.1 564 149.9 546.5 216.7 523.6C248.3 536.7 283.4 544 320.2 544C356.6 544 391.1 536.9 422.5 524.1L385 486.6z"/></svg>