<svg xmlns="http://www.w3.org/2000/svg" viewBox="0 0 640 640"><!--! Font Awesome Pro 7.2.0 by @fontawesome - https://fontawesome.com License - https://fontawesome.com/license (Commercial License) Copyright 2026 Fonticons, Inc. --><path fill="currentColor" d="M160.3 466.9L171 440.7L153.2 418.7C127.1 386.4 112 346.7 112 304C112 200.8 202.2 112 320 112C437.8 112 528 200.8 528 304C528 407.2 437.8 496 320 496C289.5 496 260.8 490 234.9 479.2L218.1 472.2C212.5 474.1 189.3 482.1 148.3 496.2L160.3 466.8zM64 576C98.9 564 149.7 546.5 216.5 523.6C248.1 536.7 283.2 544 320 544C461.4 544 576 436.5 576 304C576 171.5 461.4 64 320 64C178.6 64 64 171.5 64 304C64 358.4 83.3 408.6 115.8 448.8C96.7 495.8 79.4 538.2 64 576zM288 272L232 272L232 336L288 336L288 392L352 392L352 336L408 336L408 272L352 272L352 216L288 216L288 272z"/></svg>