<svg xmlns="http://www.w3.org/2000/svg" viewBox="0 0 640 640"><!--! Font Awesome Pro 7.2.0 by @fontawesome - https://fontawesome.com License - https://fontawesome.com/license (Commercial License) Copyright 2026 Fonticons, Inc. --><path fill="currentColor" d="M576 96L608 96L608 144L576 144L576 496L608 496L608 544L32 544L32 496L64 496L64 144L32 144L32 96L576 96zM112 144L112 496L528 496L528 144L112 144zM152 192L200 192L200 448L152 448L152 192zM392 192L392 448L344 448L344 192L392 192zM440 192L488 192L488 448L440 448L440 192zM296 192L296 448L248 448L248 192L296 192z"/></svg>