<svg xmlns="http://www.w3.org/2000/svg" viewBox="0 0 640 640"><!--! Font Awesome Pro 7.2.0 by @fontawesome - https://fontawesome.com License - https://fontawesome.com/license (Commercial License) Copyright 2026 Fonticons, Inc. --><path fill="currentColor" d="M182 185.7L282.5 132C301.5 184.5 344.9 225.4 398.9 241.1C414.3 294.3 454.1 337 505.4 356.6L458 454.3L353.3 510.3L236 493.7L150.6 410.8L130 293.1L182 185.7zM553.9 319.2C492.4 312.5 444 262.1 440.2 199.7C377.8 196 327.5 147.5 320.7 86L277.9 80L145.7 150.7L80 286.1L106 434.4L213.8 539L362.1 560L494.3 489.3L560 353.9L553.9 319.2zM272 272C289.7 272 304 257.7 304 240C304 222.3 289.7 208 272 208C254.3 208 240 222.3 240 240C240 257.7 254.3 272 272 272zM240 432C257.7 432 272 417.7 272 400C272 382.3 257.7 368 240 368C222.3 368 208 382.3 208 400C208 417.7 222.3 432 240 432zM432 368C432 350.3 417.7 336 400 336C382.3 336 368 350.3 368 368C368 385.7 382.3 400 400 400C417.7 400 432 385.7 432 368z"/></svg>