<svg xmlns="http://www.w3.org/2000/svg" viewBox="0 0 640 640"><!--! Font Awesome Pro 7.2.0 by @fontawesome - https://fontawesome.com License - https://fontawesome.com/license (Commercial License) Copyright 2026 Fonticons, Inc. --><path fill="currentColor" d="M528 176L528 464L112 464L112 176L528 176zM112 128L64 128L64 512L576 512L576 128L112 128zM144 384L144 432L240 432L240 384L144 384zM272 384L272 432L368 432L368 384L272 384zM400 384L400 432L496 432L496 384L400 384zM288 224L160 224L160 320L288 320L288 224z"/></svg>