<svg xmlns="http://www.w3.org/2000/svg" viewBox="0 0 640 640"><!--! Font Awesome Pro 7.2.0 by @fontawesome - https://fontawesome.com License - https://fontawesome.com/license (Commercial License) Copyright 2026 Fonticons, Inc. --><path fill="currentColor" d="M496.4 608C452.2 608 416.4 572.2 416.4 528C416.4 483.8 452.2 448 496.4 448C540.6 448 576.4 483.8 576.4 528C576.4 572.2 540.6 608 496.4 608zM618.4 56L433.4 241L512.4 320L256.4 576L240.4 576C143.2 576 64.4 497.2 64.4 400L64.4 384L320.4 128L399.4 207L584.4 22L618.3 55.9zM496.4 496C478.7 496 464.4 510.3 464.4 528C464.4 545.7 478.7 560 496.4 560C514.1 560 528.4 545.7 528.4 528C528.4 510.3 514.1 496 496.4 496zM112.5 403.8C114.5 471.5 169 525.9 236.6 527.9L364.5 400L240.4 400L240.4 275.8L112.5 403.7zM288.4 227.9L288.4 352.1L412.5 352.1L444.5 320.1L320.4 196L288.4 228z"/></svg>