<svg xmlns="http://www.w3.org/2000/svg" viewBox="0 0 640 640"><!--! Font Awesome Pro 7.2.0 by @fontawesome - https://fontawesome.com License - https://fontawesome.com/license (Commercial License) Copyright 2026 Fonticons, Inc. --><path fill="currentColor" d="M496 288C496 190.8 417.2 112 320 112C222.8 112 144 190.8 144 288C144 359 186 420.2 246.6 448L393.4 448C454 420.2 496 359 496 288zM182.9 465.2C130 424.2 96 360.1 96 288C96 164.3 196.3 64 320 64C443.7 64 544 164.3 544 288C544 360.1 510 424.2 457.1 465.2L528 544L528 576L112 576L112 544L182.9 465.2zM273.3 190.7L320 208L273.3 225.3L256 272L238.7 225.3L192 208L238.7 190.7L256 144L273.3 190.7zM384 208L409.9 262.1L464 288L409.9 313.9L384 368L358.1 313.9L304 288L358.1 262.1L384 208z"/></svg>