<svg xmlns="http://www.w3.org/2000/svg" viewBox="0 0 640 640"><!--! Font Awesome Pro 7.2.0 by @fontawesome - https://fontawesome.com License - https://fontawesome.com/license (Commercial License) Copyright 2026 Fonticons, Inc. --><path fill="currentColor" d="M317.6 48L416 48L416 96L354.4 96L337.3 160L503.9 160L503.9 208L479.9 208L447.9 576L191.9 576L159.9 208L135.9 208L135.9 160L287.6 160L312.7 65.8L317.5 48zM431.8 208L208.2 208L224.4 395C241.7 391.8 254.6 387.4 264.6 382.5C283.9 373 294.7 360.5 307.4 344.9L309.3 342.6C321.6 327.4 336.7 308.8 362.4 294.9C379.3 285.8 399.8 279.2 426 275.4L431.9 208zM421.7 324.8C405.8 327.9 394.2 332.3 385.2 337.1C368 346.4 358.3 358.3 345.3 374.3L344.6 375.1C331.3 391.5 315.1 411 285.9 425.5C270.3 433.2 251.7 439.2 228.6 443L236 528L404 528L421.7 324.8z"/></svg>