<svg xmlns="http://www.w3.org/2000/svg" viewBox="0 0 640 640"><!--! Font Awesome Pro 7.2.0 by @fontawesome - https://fontawesome.com License - https://fontawesome.com/license (Commercial License) Copyright 2026 Fonticons, Inc. --><path fill="currentColor" d="M553.4 121C516.2 158.2 494.6 179.8 488.4 186L454.5 152C460.6 145.9 482.3 124.2 519.5 87L536.5 70L570.4 103.9L553.4 120.9zM249.4 425L121.4 553L104.4 570L70.5 536.1L87.5 519.1L215.5 391.1L232.5 374.1L266.4 408L249.4 425zM304.4 176C233.7 176 176.4 233.3 176.4 304L176.4 328L128.4 328L128.4 304C128.4 206.8 207.2 128 304.4 128C401.6 128 480.4 206.8 480.4 304C480.4 354.8 458.8 400.6 424.4 432.7L424.4 440C424.4 515.1 363.5 576 288.4 576L264.4 576L264.4 528L288.4 528C337 528 376.4 488.6 376.4 440L376.4 410.5L385.2 403.3C414 379.8 432.4 344.1 432.4 304C432.4 233.3 375.1 176 304.4 176zM304.4 264C282.3 264 264.4 281.9 264.4 304L264.4 328L216.4 328L216.4 304C216.4 255.4 255.8 216 304.4 216C353 216 392.4 255.4 392.4 304L392.4 328L344.4 328L344.4 304C344.4 281.9 326.5 264 304.4 264z"/></svg>