<svg xmlns="http://www.w3.org/2000/svg" viewBox="0 0 640 640"><!--! Font Awesome Pro 7.2.0 by @fontawesome - https://fontawesome.com License - https://fontawesome.com/license (Commercial License) Copyright 2026 Fonticons, Inc. --><path fill="currentColor" d="M112.4 64C112.4 64 96.4 76.1 96.4 96C96.4 107.8 100.8 117.5 106.3 124.9L14.2 232.4L1.3 247.5L13.7 263L77.7 343L90.4 358.8C96.9 355.2 119.3 342.7 157.5 321.5L192.5 397.2L192.5 575.9L336.5 575.9L336.5 495.9L432.5 495.9L432.5 575.9L576.5 575.9L576.5 269.3L608.6 297.8L640.5 261.9L568.5 197.9L561.7 191.8L288.9 191.8L210.4 129.9C217.7 121.9 224.5 110.6 224.5 95.8C224.5 75.9 208.5 63.8 208.5 63.8L160.5 109.5L112.5 63.8zM240.4 528L240.4 416L528.4 416L528.4 528L480.4 528L480.4 448L288.4 448L288.4 528L240.4 528zM528.4 240L528.4 368L231.8 368C199 296.9 181.5 259 179.4 254.5C169.6 259.9 144 274.2 102.5 297.2L63.6 248.6L139.7 159.8L169.5 159.1L265.5 234.9L272 240.1L528.3 240.1zM272.4 328C285.7 328 296.4 317.3 296.4 304C296.4 290.7 285.7 280 272.4 280C259.1 280 248.4 290.7 248.4 304C248.4 317.3 259.1 328 272.4 328zM488.4 304C488.4 290.7 477.7 280 464.4 280C451.1 280 440.4 290.7 440.4 304C440.4 317.3 451.1 328 464.4 328C477.7 328 488.4 317.3 488.4 304zM368.4 328C381.7 328 392.4 317.3 392.4 304C392.4 290.7 381.7 280 368.4 280C355.1 280 344.4 290.7 344.4 304C344.4 317.3 355.1 328 368.4 328z"/></svg>