<svg xmlns="http://www.w3.org/2000/svg" viewBox="0 0 640 640"><!--! Font Awesome Pro 7.2.0 by @fontawesome - https://fontawesome.com License - https://fontawesome.com/license (Commercial License) Copyright 2026 Fonticons, Inc. --><path fill="currentColor" d="M288 144C288 126.3 302.3 112 320 112C337.7 112 352 126.3 352 144C352 161.7 337.7 176 320 176C302.3 176 288 161.7 288 144zM400 144C400 99.8 364.2 64 320 64C275.8 64 240 99.8 240 144C240 188.2 275.8 224 320 224C364.2 224 400 188.2 400 144zM240 256L227.6 256L220.4 266.1L140.4 378.1L135.9 384.4L135.9 480.1L183.9 480.1L183.9 399.8L223.9 343.8L223.9 480.1L271.9 480.1L271.9 304.1L367.9 304.1L367.9 480.1L415.9 480.1L415.9 343.8L455.9 399.8L455.9 480.1L503.9 480.1L503.9 384.4L499.4 378.1L419.4 266.1L412.2 256L239.8 256zM328 432C328 418.7 317.3 408 304 408C290.7 408 280 418.7 280 432C280 445.3 290.7 456 304 456C317.3 456 328 445.3 328 432zM88 528L64 528L64 576L576 576L576 528L88 528zM184 256C184 242.7 173.3 232 160 232C146.7 232 136 242.7 136 256C136 269.3 146.7 280 160 280C173.3 280 184 269.3 184 256zM544 344C557.3 344 568 333.3 568 320C568 306.7 557.3 296 544 296C530.7 296 520 306.7 520 320C520 333.3 530.7 344 544 344z"/></svg>