<svg xmlns="http://www.w3.org/2000/svg" viewBox="0 0 640 640"><!--! Font Awesome Pro 7.2.0 by @fontawesome - https://fontawesome.com License - https://fontawesome.com/license (Commercial License) Copyright 2026 Fonticons, Inc. --><path fill="currentColor" d="M352 64L288 64L288 128L352 128L352 64zM160 128L96 128L96 192L160 192L160 128zM544 128L480 128L480 192L544 192L544 128zM544 320L544 384L608 384L608 320L544 320zM544 512L480 512L480 576L544 576L544 512zM96 512L96 576L160 576L160 512L96 512zM32 320L32 384L96 384L96 320L32 320zM240.8 431.2C202.9 393.3 197.8 335 225.7 291.6C287.4 353.3 318.8 384.7 320 385.9L353.9 352L336.9 335L259.5 257.6C302.9 229.8 361.2 234.8 399.1 272.7C442.8 316.4 442.8 387.4 399.1 431.1C355.4 474.8 284.4 474.8 240.7 431.1zM206.9 238.9C164.8 278.9 147.6 338.7 162.2 395C176.8 451.3 220.7 495.2 277 509.8C333.3 524.4 393.1 507.2 433.1 465.1C475.2 425.1 492.4 365.3 477.8 309C463.2 252.7 419.3 208.8 363 194.2C306.7 179.6 246.9 196.8 206.9 238.9z"/></svg>