<svg xmlns="http://www.w3.org/2000/svg" viewBox="0 0 640 640"><!--! Font Awesome Pro 7.2.0 by @fontawesome - https://fontawesome.com License - https://fontawesome.com/license (Commercial License) Copyright 2026 Fonticons, Inc. --><path fill="currentColor" d="M144 144L144 496L496 496L496 144L144 144zM96 496L96 96L544 96L544 496L576 496L576 544L64 544L64 496L96 496zM320 416C373 416 416 373 416 320C416 267 373 224 320 224C267 224 224 267 224 320C224 373 267 416 320 416zM320 176C399.5 176 464 240.5 464 320C464 399.5 399.5 464 320 464C240.5 464 176 399.5 176 320C176 240.5 240.5 176 320 176zM320 288C337.7 288 352 302.3 352 320C352 337.7 337.7 352 320 352C302.3 352 288 337.7 288 320C288 302.3 302.3 288 320 288z"/></svg>