<svg xmlns="http://www.w3.org/2000/svg" viewBox="0 0 640 640"><!--! Font Awesome Pro 7.2.0 by @fontawesome - https://fontawesome.com License - https://fontawesome.com/license (Commercial License) Copyright 2026 Fonticons, Inc. --><path fill="currentColor" d="M528 144L528 432L112 432L112 144L528 144zM112 96L64 96L64 480L243.7 480L235.7 528L160 528L160 576L480 576L480 528L404.3 528L396.3 480L576 480L576 96L112 96zM284.3 528L292.3 480L347.6 480L355.6 528L284.3 528zM288 200L288 256L232 256L232 320L288 320L288 376L352 376L352 320L408 320L408 256L352 256L352 200L288 200z"/></svg>