<svg xmlns="http://www.w3.org/2000/svg" viewBox="0 0 640 640"><!--! Font Awesome Pro 7.2.0 by @fontawesome - https://fontawesome.com License - https://fontawesome.com/license (Commercial License) Copyright 2026 Fonticons, Inc. --><path fill="currentColor" d="M496 144L80 144L80 432L306.7 432C305 442.4 304 453.1 304 464C304 469.4 304.2 474.7 304.7 480L260.4 480L252.4 528L315 528C321.1 545.3 329.6 561.4 340.1 576L128.1 576L128.1 528L203.8 528L211.8 480L32.1 480L32.1 96L544.1 96L544.1 278C528.8 274.1 512.7 272 496.1 272L496.1 144zM346.8 343.1C328.1 361.8 313.8 376.1 304 385.9C300.4 382.3 273.7 355.6 224 305.9C167.6 362.3 138.3 391.6 136 393.9L102.1 360L119.1 343L207.1 255L224.1 238C227.7 241.6 254.4 268.3 304.1 318L382.2 239.9L336.1 239.9L336.1 191.9L464.1 191.9L464.1 274.6C447.3 277.4 431.2 282.4 416.1 289.4L416.1 273.9L375.2 314.8C364.8 323.2 355.3 332.7 346.9 343.1zM352 464C352 384.5 416.5 320 496 320C575.5 320 640 384.5 640 464C640 543.5 575.5 608 496 608C416.5 608 352 543.5 352 464zM512 392L512 368L480 368L480 392.1C457.7 393.2 440 411.6 440 434.2C440 454.6 454.6 472 474.6 475.7L519.6 483.9C524.4 484.8 527.9 489 527.9 493.9C527.9 499.5 523.3 504.1 517.7 504.1L447.9 504.1L447.9 536.1L479.9 536.1L479.9 560.1L511.9 560.1L511.9 536.1L517.7 536.1C541 536.1 559.9 517.2 559.9 493.9C559.9 473.5 545.3 456.1 525.3 452.4L480.3 444.2C475.5 443.3 472 439.1 472 434.2C472 428.6 476.6 424 482.2 424L544 424L544 392L512 392z"/></svg>