<svg xmlns="http://www.w3.org/2000/svg" viewBox="0 0 640 640"><!--! Font Awesome Pro 7.2.0 by @fontawesome - https://fontawesome.com License - https://fontawesome.com/license (Commercial License) Copyright 2026 Fonticons, Inc. --><path fill="currentColor" d="M40.4 72L177.7 72L183.2 88.4L281.8 384.2C284 384.1 286.2 384 288.4 384C322.2 384 351.9 401.5 369 427.8L568.8 361.2L591.6 353.6L606.8 399.1L584 406.7L384.2 473.3C384.3 475.5 384.4 477.7 384.4 479.9C384.4 532.9 341.4 575.9 288.4 575.9C235.4 575.9 192.4 532.9 192.4 479.9C192.4 446.1 209.9 416.4 236.2 399.3L143.1 120L40.4 120L40.4 72zM288.4 528C314.9 528 336.4 506.5 336.4 480C336.4 453.5 314.9 432 288.4 432C261.9 432 240.4 453.5 240.4 480C240.4 506.5 261.9 528 288.4 528z"/></svg>