<svg xmlns="http://www.w3.org/2000/svg" viewBox="0 0 640 640"><!--! Font Awesome Pro 7.2.0 by @fontawesome - https://fontawesome.com License - https://fontawesome.com/license (Commercial License) Copyright 2026 Fonticons, Inc. --><path fill="currentColor" d="M512 576L464 576L464 544L176 544L176 576L128 576L128 64L512 64L512 576zM368 400L368 432L272 432L272 400L176 400L176 496L464 496L464 400L368 400zM176 352L464 352L464 240L368 240L368 272L272 272L272 240L176 240L176 352zM176 192L464 192L464 112L176 112L176 192z"/></svg>