<svg xmlns="http://www.w3.org/2000/svg" viewBox="0 0 640 640"><!--! Font Awesome Pro 7.2.0 by @fontawesome - https://fontawesome.com License - https://fontawesome.com/license (Commercial License) Copyright 2026 Fonticons, Inc. --><path fill="currentColor" d="M144 112L144 528L496 528L496 112L144 112zM96 64L544 64L544 576L96 576L96 64zM200 144C213.3 144 224 154.7 224 168C224 181.3 213.3 192 200 192C186.7 192 176 181.3 176 168C176 154.7 186.7 144 200 144zM256 168C256 154.7 266.7 144 280 144C293.3 144 304 154.7 304 168C304 181.3 293.3 192 280 192C266.7 192 256 181.3 256 168zM176 352C176 272.5 240.5 208 320 208C399.5 208 464 272.5 464 352C464 431.5 399.5 496 320 496C240.5 496 176 431.5 176 352zM296 281.4L283.3 268.7L260.7 291.3L273.4 304C277.6 308.2 280 314 280 320C280 326 277.6 331.8 273.4 336L264 345.4C253.8 355.6 248 369.5 248 384C248 398.5 253.8 412.4 264 422.6L276.7 435.3L299.3 412.7L286.6 400C282.4 395.8 280 390 280 384C280 378 282.4 372.2 286.6 368L296 358.6C306.2 348.4 312 334.5 312 320C312 305.5 306.2 291.6 296 281.4zM376 281.4L363.3 268.7L340.7 291.3L353.4 304C357.6 308.2 360 314 360 320C360 326 357.6 331.8 353.4 336L344 345.4C333.8 355.6 328 369.5 328 384C328 398.5 333.8 412.4 344 422.6L356.7 435.3L379.3 412.7L366.6 400C362.4 395.8 360 390 360 384C360 378 362.4 372.2 366.6 368L376 358.6C386.2 348.4 392 334.5 392 320C392 305.5 386.2 291.6 376 281.4z"/></svg>