<svg xmlns="http://www.w3.org/2000/svg" viewBox="0 0 640 640"><!--! Font Awesome Pro 7.2.0 by @fontawesome - https://fontawesome.com License - https://fontawesome.com/license (Commercial License) Copyright 2026 Fonticons, Inc. --><path fill="currentColor" d="M64 128L32 256L138.7 256L164.3 128L64 128zM296 256L296 128L213.3 128L187.7 256L296 256zM344 256L452.3 256L426.7 128L344 128L344 256zM501.3 256L608 256L576 128L475.7 128L501.3 256zM88 304L59.9 304L64.3 331.8L96.3 531.8L98.3 544L146.9 544L139.2 496L500.8 496C497.6 516.2 495 532.2 493.1 544L541.7 544L543.7 531.8L575.7 331.8L580.1 304L88 304zM508.5 448L131.5 448L116.1 352L523.8 352L508.4 448z"/></svg>