<svg xmlns="http://www.w3.org/2000/svg" viewBox="0 0 640 640"><!--! Font Awesome Pro 7.2.0 by @fontawesome - https://fontawesome.com License - https://fontawesome.com/license (Commercial License) Copyright 2026 Fonticons, Inc. --><path fill="currentColor" d="M432 256C432 262.4 431.6 268.7 430.8 274.9C441.6 273 452.7 272 464 272C469.1 272 474.2 272.2 479.3 272.6C479.8 267.1 480 261.6 480 256C480 150 394 64 288 64C182 64 96 150 96 256L96 576L308 576C297.5 561.4 289 545.3 282.9 528L144 528L144 256C144 176.5 208.5 112 288 112C367.5 112 432 176.5 432 256zM400 264L400 256C400 194.1 349.9 144 288 144C226.1 144 176 194.1 176 256L176 320L216 320C229.3 320 240 330.7 240 344C240 357.3 229.3 368 216 368L176 368L176 416L216 416C255.8 416 288 383.8 288 344C288 306.9 260 276.4 224 272.4L224 256C224 220.7 252.7 192 288 192C323.3 192 352 220.7 352 256L352 288L387.1 288C391.3 286.2 395.6 284.5 400 282.9L400 264zM608 464C608 384.5 543.5 320 464 320C384.5 320 320 384.5 320 464C320 543.5 384.5 608 464 608C543.5 608 608 543.5 608 464zM534.4 412.5L525 425.4L461 513.4L450 528.5C445.6 524.1 427.9 506.4 396.8 475.3L385.4 464L408 441.4C413 446.4 425.7 459.1 446.1 479.5L499.1 406.6L508.5 393.7L534.4 412.5z"/></svg>