<svg xmlns="http://www.w3.org/2000/svg" viewBox="0 0 640 640"><!--! Font Awesome Pro 7.2.0 by @fontawesome - https://fontawesome.com License - https://fontawesome.com/license (Commercial License) Copyright 2026 Fonticons, Inc. --><path fill="currentColor" d="M320 112C240.5 112 176 176.5 176 256L176 288L232 288L232 360C232 369.9 230 379.4 226.3 388C229.9 396.6 232 406.1 232 416C232 425.9 230 435.4 226.3 444C229.9 452.6 232 462.1 232 472L232 544L144 544C104.2 544 72 511.8 72 472C72 468.6 72.2 465.3 72.7 462.1C62.3 449.6 56 433.6 56 416C56 398.4 62.3 382.4 72.7 369.9C72.3 366.7 72 363.3 72 360C72 325.7 95.9 297.1 128 289.8L128 256C128 150 214 64 320 64C426 64 512 150 512 256L512 289.8C544.1 297.1 568 325.8 568 360C568 363.4 567.8 366.7 567.3 369.9C577.7 382.4 584 398.4 584 416C584 433.6 577.7 449.6 567.3 462.1C567.8 465.3 568 468.7 568 472C568 511.8 535.8 544 496 544L408 544L408 472C408 462.1 410 452.6 413.7 444C410.1 435.4 408 425.9 408 416C408 406.1 410 396.6 413.7 388C410.1 379.4 408 369.9 408 360L408 288L464 288L464 256C464 176.5 399.5 112 320 112zM144 336C130.7 336 120 346.7 120 360C120 363.1 120.6 366.1 121.6 368.8L128.3 385.8L113.6 396.8C107.8 401.2 104 408.1 104 416C104 423.9 107.8 430.8 113.7 435.3L128.4 446.3L121.7 463.3C120.6 466 120.1 468.9 120.1 472.1C120.1 485.4 130.8 496.1 144.1 496.1L184.1 496.1L184.1 472.1C184.1 466.8 182.4 462 179.6 458.1L169.5 444.1L179.6 430.1C182.4 426.2 184.1 421.4 184.1 416.1C184.1 410.8 182.4 406 179.6 402.1L169.5 388.1L179.6 374.1C182.4 370.2 184.1 365.4 184.1 360.1L184.1 336.1L144.1 336.1zM520 360C520 346.7 509.3 336 496 336L456 336L456 360C456 365.3 457.7 370.1 460.5 374L470.6 388L460.5 402C457.7 405.9 456 410.7 456 416C456 421.3 457.7 426.1 460.5 430L470.6 444L460.5 458C457.7 461.9 456 466.7 456 472L456 496L496 496C509.3 496 520 485.3 520 472C520 468.9 519.4 465.9 518.4 463.2L511.7 446.2L526.4 435.2C532.3 430.8 536.1 423.8 536.1 415.9C536.1 408 532.3 401.1 526.4 396.6L511.7 385.6L518.4 368.6C519.5 365.9 520 363 520 359.8z"/></svg>