<svg xmlns="http://www.w3.org/2000/svg" viewBox="0 0 640 640"><!--! Font Awesome Pro 7.2.0 by @fontawesome - https://fontawesome.com License - https://fontawesome.com/license (Commercial License) Copyright 2026 Fonticons, Inc. --><path fill="currentColor" d="M336 527.4L336 496L272 496L224 448L224 336L368 336L416 384L448 384L480 416L504.6 416C509.9 405.8 514.4 395.1 518 384L496 384L448 336L448 256L480 256L480 224L416 224L416 272L320 272L320 304L256 304L256 272L336 192L336 176L288 176L288 144L320 112C205.1 112 112 205.1 112 320C112 434.9 205.1 528 320 528C325.4 528 330.7 527.8 336 527.4zM64 320C64 178.6 178.6 64 320 64C461.4 64 576 178.6 576 320C576 461.4 461.4 576 320 576C178.6 576 64 461.4 64 320zM251.3 187.3C226.5 212.1 212.1 226.5 208 230.6L185.4 208C189.5 203.9 203.9 189.5 228.7 164.7L240 153.4L262.6 176L251.3 187.3z"/></svg>