<svg xmlns="http://www.w3.org/2000/svg" viewBox="0 0 640 640"><!--! Font Awesome Pro 7.2.0 by @fontawesome - https://fontawesome.com License - https://fontawesome.com/license (Commercial License) Copyright 2026 Fonticons, Inc. --><path fill="currentColor" d="M253.6 342.3L394 201.9C408.7 216.6 423.4 231.3 438.1 246L297.7 386.4L247.3 392.7L253.6 342.3zM450 190L427.9 168L472 123.9L516.1 168L472 212.1L450 190zM584 168C534.8 118.8 482.2 66.2 472 56L438.1 89.9L208 320C200.8 377.5 195.5 420.2 192 448C219.8 444.5 262.5 439.2 320 432L550.1 201.9L584 168zM88 128L64 128L64 576L512 576L512 352L464 352L464 528L112 528L112 176L288 176L288 128L88 128z"/></svg>