<svg xmlns="http://www.w3.org/2000/svg" viewBox="0 0 640 640"><!--! Font Awesome Pro 7.2.0 by @fontawesome - https://fontawesome.com License - https://fontawesome.com/license (Commercial License) Copyright 2026 Fonticons, Inc. --><path fill="currentColor" d="M192.2 64L295.8 64C327.2 64 355.9 76.1 377.4 96L384.1 96C472.5 96 544.1 167.6 544.1 256L544.1 372.9C532.9 379.1 519.5 382.8 504.8 382.8C501.8 382.8 498.9 382.6 496.1 382.4L496.1 256C496.1 203 459.3 158.7 409.9 147C412.7 155.6 414.5 164.7 415.3 174L416 182L368.2 186L367.5 178C364.4 140.7 333.2 112 295.7 112L240 112L240 176C240 211.3 268.7 240 304 240L336 240L336 288L304 288C242.1 288 192 237.9 192 176L192 153.6C126.8 176.7 80 238.9 80 312L80 356.6L78.3 360.9L46.3 440.9L1.7 423.1L32 347.4L32 312C32 212.1 99.9 128 192 103.3L192 64zM528.2 445L528.2 463.7C528.2 481.5 542.7 496 560.5 496C576.3 496 589.8 484.6 592.4 469L592.6 468L639.9 475.9L639.7 476.9C633.2 515.6 599.7 544 560.5 544C516.2 544 480.2 508 480.2 463.7L480.2 444.9C456.3 441.1 434.3 431.8 416.2 417.9L416.2 576L272.2 576L272.2 475.7C251 478.5 229.4 478.5 208.2 475.7L208.2 576L64.2 576L64.2 448L112.2 448L112.2 528L160.2 528L160.2 420.3C179 423 196.2 425.4 211.9 427.7C230.7 430.4 249.7 430.4 268.5 427.7C284.2 425.5 301.4 423 320.2 420.3L320.2 528L368.2 528L368.2 368L416.2 368L416.2 372.6C434.8 398.3 467.1 414.8 504.9 414.8C535 414.8 562 403.4 581.2 385.2L603.2 408.5C583.3 427.4 557.2 440.4 528.2 445zM432.2 256C441 256 448.2 263.2 448.2 272C448.2 280.8 441 288 432.2 288C423.4 288 416.2 280.8 416.2 272C416.2 263.2 423.4 256 432.2 256z"/></svg>