<svg xmlns="http://www.w3.org/2000/svg" viewBox="0 0 640 640"><!--! Font Awesome Pro 7.2.0 by @fontawesome - https://fontawesome.com License - https://fontawesome.com/license (Commercial License) Copyright 2026 Fonticons, Inc. --><path fill="currentColor" d="M528 64C572.2 64 608 99.8 608 144C608 188.2 572.2 224 528 224C483.8 224 448 188.2 448 144C448 99.8 483.8 64 528 64zM88 128L401 128C400.3 133.2 400 138.6 400 144C400 155 401.4 165.8 404 176L112 176L112 196.1L320 353.9L456.6 250.3C472.1 260.7 489.9 267.8 509.2 270.7L334.5 403.2L320 414.2L305.5 403.2L112 256.4L112 464.1L528 464.1L528 272.1C545 272.1 561.2 268.8 576 262.8L576 512.1L64 512.1L64 128.1L88 128.1z"/></svg>