<svg xmlns="http://www.w3.org/2000/svg" viewBox="0 0 640 640"><!--! Font Awesome Pro 7.2.0 by @fontawesome - https://fontawesome.com License - https://fontawesome.com/license (Commercial License) Copyright 2026 Fonticons, Inc. --><path fill="currentColor" d="M216 104C216 73.1 241.1 48 272 48C302.9 48 328 73.1 328 104C328 134.9 302.9 160 272 160C241.1 160 216 134.9 216 104zM371.9 288L576 288L576 448L428.1 448L290 558.5C278.3 567.9 271 573.7 268.1 576L64 576L64 416L211.9 416L350 305.5C361.7 296.1 369 290.3 371.9 288zM388.7 336L379.9 343L235.2 458.7L228.6 464L111.8 464L111.8 528L251 528L259.8 521L404.5 405.3L411.1 400L527.9 400L527.9 336L388.7 336zM352 192L352 232.2C341.7 240.4 288.4 283.1 192 360.2L192 192L352 192z"/></svg>