<svg xmlns="http://www.w3.org/2000/svg" viewBox="0 0 640 640"><!--! Font Awesome Pro 7.2.0 by @fontawesome - https://fontawesome.com License - https://fontawesome.com/license (Commercial License) Copyright 2026 Fonticons, Inc. --><path fill="currentColor" d="M200 384L200 464L248 464L248 384L296 384L296 464L344 464L344 384L392 384L392 464L440 464L440 384L488 384L488 464L528 464L528 304L464 304L464 240L400 240L400 176L240 176L240 240L176 240L176 304L112 304L112 464L152 464L152 384L200 384zM112 512L64 512L64 256L128 256L128 192L192 192L192 128L448 128L448 192L512 192L512 256L576 256L576 512L112 512z"/></svg>