<svg xmlns="http://www.w3.org/2000/svg" viewBox="0 0 640 640"><!--! Font Awesome Pro 7.2.0 by @fontawesome - https://fontawesome.com License - https://fontawesome.com/license (Commercial License) Copyright 2026 Fonticons, Inc. --><path fill="currentColor" d="M200 128L224 128L224 176L112 176L112 288L64 288L64 128L200 128zM64 376L64 352L112 352L112 464L224 464L224 512L64 512L64 376zM552 128L576 128L576 288L528 288L528 176L416 176L416 128L552 128zM528 376L528 352L576 352L576 512L416 512L416 464L528 464L528 376z"/></svg>