<svg xmlns="http://www.w3.org/2000/svg" viewBox="0 0 640 640"><!--! Font Awesome Pro 7.2.0 by @fontawesome - https://fontawesome.com License - https://fontawesome.com/license (Commercial License) Copyright 2026 Fonticons, Inc. --><path fill="currentColor" d="M297 199L272 174L238.1 207.9L255.1 224.9L415.1 384.9L432.1 401.9L466 368C453.2 355.2 444.9 346.9 441 343L442 342L546.2 237.8C565.3 218.7 576 192.8 576 165.8C576 109.6 530.4 64 474.2 64C447.2 64 421.3 74.7 402.2 93.8L298 198L297 199zM408 308.1L331.9 232L436.1 127.8C446.2 117.7 459.9 112 474.2 112C503.9 112 528 136.1 528 165.8C528 180.1 522.3 193.8 512.2 203.9L408 308.1zM233.1 270.9L96 408L96 496L64 544L96 576L144 544L232 544L369.1 406.9L335.2 373L212.2 496L144.1 496L144.1 427.9L267.1 304.9L233.2 271z"/></svg>