<svg xmlns="http://www.w3.org/2000/svg" viewBox="0 0 640 640"><!--! Font Awesome Pro 7.2.0 by @fontawesome - https://fontawesome.com License - https://fontawesome.com/license (Commercial License) Copyright 2026 Fonticons, Inc. --><path fill="currentColor" d="M528 320C528 379 503.4 432.2 464 470.1L464 531.7C531.6 485.6 576 408 576 320C576 178.6 461.4 64 320 64C178.6 64 64 178.6 64 320C64 408 108.4 485.6 176 531.7L176 470.1C136.6 432.2 112 379 112 320C112 205.1 205.1 112 320 112C434.9 112 528 205.1 528 320zM216 384C202.7 384 192 394.7 192 408C192 421.3 202.7 432 216 432L224 432L224 512C224 565 267 608 320 608C373 608 416 565 416 512L416 432L424 432C437.3 432 448 421.3 448 408C448 394.7 437.3 384 424 384L216 384zM336 432L360 432L360 464L310.5 464C306.9 464 304 466.9 304 470.5C304 473.5 306 476.1 308.9 476.8L338.9 484.3C356 488.6 368 504 368 521.6C368 540.6 354.2 556.4 336 559.5L336 576L304 576L304 560L280 560L280 528L329.5 528C333.1 528 336 525.1 336 521.5C336 518.5 334 515.9 331.1 515.2L301.1 507.7C284 503.4 272 488 272 470.4C272 451.4 285.8 435.6 304 432.5L304 416L336 416L336 432zM224 168L224 192L222.2 192C201.1 192 184 209.1 184 230.2C184 248.1 196.4 263.6 213.9 267.5L251.1 275.8C253.9 276.4 256 278.9 256 281.8C256 285.2 253.2 288 249.8 288L192 288L192 320L224 320L224 344L256 344L256 319.5C274.1 316.5 288 300.8 288 281.8C288 263.9 275.6 248.4 258.1 244.5L220.9 236.2C218.1 235.6 216 233.1 216 230.2C216 226.8 218.8 224 222.2 224L280 224L280 192L256 192L256 168L224 168zM416 168L384 168L384 192L382.2 192C361.1 192 344 209.1 344 230.2C344 248.1 356.4 263.6 373.9 267.5L411.1 275.8C413.9 276.4 416 278.9 416 281.8C416 285.2 413.2 288 409.8 288L352 288L352 320L384 320L384 344L416 344L416 319.5C434.1 316.5 448 300.8 448 281.8C448 263.9 435.6 248.4 418.1 244.5L380.9 236.2C378.1 235.6 376 233.1 376 230.2C376 226.8 378.8 224 382.2 224L440 224L440 192L416 192L416 168z"/></svg>