<svg xmlns="http://www.w3.org/2000/svg" viewBox="0 0 640 640"><!--! Font Awesome Pro 7.2.0 by @fontawesome - https://fontawesome.com License - https://fontawesome.com/license (Commercial License) Copyright 2026 Fonticons, Inc. --><path fill="currentColor" d="M80 320C80 205.1 173.1 112 288 112C399.4 112 490.3 199.5 495.7 309.6C505.8 306 516.6 304 528 304C533.3 304 538.5 304.4 543.6 305.3C536 170.8 424.5 64 288 64C146.6 64 32 178.6 32 320C32 461.4 146.6 576 288 576C343.8 576 395.4 558.2 437.4 527.9C435.8 523.4 434.5 518.7 433.6 513.9L396 504.5C393.4 503.9 390.9 503 388.5 502.1C358.7 518.6 324.4 528 287.9 528C173 528 79.9 434.9 79.9 320zM328 448C328 425.9 310.1 408 288 408C265.9 408 248 425.9 248 448C248 470.1 265.9 488 288 488C310.1 488 328 470.1 328 448zM356 296L356 280L316 280L316 296C316 329.1 342.9 356 376 356L392 356C425.1 356 452 329.1 452 296L452 280L412 280L412 296C412 307 403 316 392 316L376 316C365 316 356 307 356 296zM184 316C173 316 164 307 164 296L164 280L124 280L124 296C124 329.1 150.9 356 184 356L200 356C233.1 356 260 329.1 260 296L260 280L220 280L220 296C220 307 211 316 200 316L184 316zM573.3 384.1C566.7 365.4 548.9 352 528 352C501.5 352 480 373.5 480 400C480 406.4 481.3 412.5 483.5 418.1L384 448L483.5 477.9C481.2 483.5 480 489.6 480 496C480 522.5 501.5 544 528 544C548.9 544 566.7 530.6 573.3 511.9C574.2 511.9 575.1 512 576 512C611.3 512 640 483.3 640 448C640 412.7 611.3 384 576 384C575.1 384 574.2 384 573.3 384.1z"/></svg>