<svg xmlns="http://www.w3.org/2000/svg" viewBox="0 0 640 640"><!--! Font Awesome Pro 7.2.0 by @fontawesome - https://fontawesome.com License - https://fontawesome.com/license (Commercial License) Copyright 2026 Fonticons, Inc. --><path fill="currentColor" d="M528 320C528 205.1 434.9 112 320 112C205.1 112 112 205.1 112 320C112 434.9 205.1 528 320 528C434.9 528 528 434.9 528 320zM64 320C64 178.6 178.6 64 320 64C461.4 64 576 178.6 576 320C576 461.4 461.4 576 320 576C178.6 576 64 461.4 64 320zM319.9 382.9C372.8 382.9 421.9 373.4 462.5 357.1C452.3 426.7 392.4 480.1 320 480.1C247.6 480.1 187.7 426.7 177.5 357.2C218 373.4 267 383 319.9 383zM199.2 209.7L294.8 257.7L304 262.3L304 282.5L293.8 286.8L198.2 326.8L183.5 298.5L227.7 270.9L182.4 236.9L199.2 209.8zM345.2 257.7L440.8 209.7L457.6 236.8L412.3 270.8L456.5 298.4L441.8 326.7L346.2 286.7L336 282.4L336 262.2L345.2 257.6z"/></svg>