<svg xmlns="http://www.w3.org/2000/svg" viewBox="0 0 640 640"><!--! Font Awesome Pro 7.2.0 by @fontawesome - https://fontawesome.com License - https://fontawesome.com/license (Commercial License) Copyright 2026 Fonticons, Inc. --><path fill="currentColor" d="M528 320C528 338.3 525.6 356.1 521.2 373.1C536.2 379.6 550.9 387.3 564.5 396.1C572 372.1 576 346.5 576 320C576 178.6 461.4 64 320 64C178.6 64 64 178.6 64 320C64 461.4 178.6 576 320 576C360.2 576 398.3 566.7 432.2 550.2C432.1 548.2 432 546.1 432 544C432 527.7 431.6 512 427.4 498.2C396.1 517.1 359.3 528 320 528C205.1 528 112 434.9 112 320C112 205.1 205.1 112 320 112C434.9 112 528 205.1 528 320zM320 368C274 368 234 393.9 213.9 431.9L256.3 454.4C268.4 431.5 292.4 416 320 416C342.1 416 361.9 425.9 375.1 441.6C377.3 430.2 380.6 413.3 384.9 390.9L385.6 387.4C366.7 375.2 344.2 368 320 368zM408 300C397 300 388 291 388 280L388 264L348 264L348 280C348 313.1 374.9 340 408 340L424 340C457.1 340 484 313.1 484 280L484 264L444 264L444 280C444 291 435 300 424 300L408 300zM196 280L196 264L156 264L156 280C156 313.1 182.9 340 216 340L232 340C265.1 340 292 313.1 292 280L292 264L252 264L252 280C252 291 243 300 232 300L216 300C205 300 196 291 196 280zM426.1 430.9C452.6 441.5 465.9 461.1 472.8 482.6C479.9 504.7 480 527.9 480 544.1C480 579.4 508.7 608.1 544 608.1C579.3 608.1 608 579.4 608 544.1C608 496 574.5 459.8 538.7 436.7C502.8 413.5 459.8 400.1 432 400.1L426.1 431z"/></svg>