<svg xmlns="http://www.w3.org/2000/svg" viewBox="0 0 640 640"><!--! Font Awesome Pro 7.2.0 by @fontawesome - https://fontawesome.com License - https://fontawesome.com/license (Commercial License) Copyright 2026 Fonticons, Inc. --><path fill="currentColor" d="M38.1 137.1L56.5 203.5C85.5 138.1 138.1 85.5 203.5 56.5L137.1 38.1C97.6 63.8 63.8 97.6 38.1 137.1zM27 97.3C47.2 70.8 70.8 47.2 97.3 27L0 0L27 97.3zM320 576C397.1 576 466.2 541.9 513.2 488L442.7 488C408.3 513.2 365.9 528 320 528C205.1 528 112 434.9 112 320C112 205.1 205.1 112 320 112C400.2 112 469.9 157.4 504.6 224L557.4 224C519.4 130.2 427.4 64 320 64C178.6 64 64 178.6 64 320C64 461.4 178.6 576 320 576zM212 280C212 269 221 260 232 260L248 260C259 260 268 269 268 280L268 296L308 296L308 280C308 246.9 281.1 220 248 220L232 220C198.9 220 172 246.9 172 280L172 296L212 296L212 280zM392 260L408 260C419 260 428 269 428 280L428 296L468 296L468 280C468 246.9 441.1 220 408 220L392 220C358.9 220 332 246.9 332 280L332 296L372 296L372 280C372 269 381 260 392 260zM328 336L320 336L320 368L352 368C360.8 368 368 375.2 368 384C368 392.8 360.8 400 352 400L320 400L320 432L352 432C360.8 432 368 439.2 368 448C368 456.8 360.8 464 352 464L320 464L320 496L368 496C394.5 496 416 474.5 416 448C416 445.3 415.8 442.6 415.3 440L640 440L640 272L512 272L512 352L560 352L560 320L592 320L592 392L415.3 392C415.7 389.4 416 386.7 416 384C416 357.5 394.5 336 368 336L328 336z"/></svg>