<svg xmlns="http://www.w3.org/2000/svg" viewBox="0 0 640 640"><!--! Font Awesome Pro 7.2.0 by @fontawesome - https://fontawesome.com License - https://fontawesome.com/license (Commercial License) Copyright 2026 Fonticons, Inc. --><path fill="currentColor" d="M320 112C434.9 112 528 205.1 528 320C528 434.9 434.9 528 320 528C205.1 528 112 434.9 112 320C112 205.1 205.1 112 320 112zM320 576C461.4 576 576 461.4 576 320C576 178.6 461.4 64 320 64C178.6 64 64 178.6 64 320C64 461.4 178.6 576 320 576zM216 478.6C245.1 459.3 280.9 448 319.6 448C358.3 448 394.1 459.4 423.2 478.6C418.5 425.6 373.9 384 319.6 384C265.3 384 220.7 425.6 216 478.6zM240 336C257.7 336 272 321.7 272 304L272 303.7C276.9 305.3 286.5 308.5 300.6 313.3L313.2 275.4L294.2 269.1L198.2 237.1L179.2 230.8L166.6 268.7C177.6 272.4 193.6 277.7 214.4 284.6C210.3 290 207.8 296.7 207.8 304C207.8 321.7 222.1 336 239.8 336zM432 304C432 296.7 429.6 290 425.4 284.6C446.3 277.6 462.2 272.3 473.2 268.7L460.6 230.8L441.6 237.1L345.6 269.1L326.6 275.4L339.2 313.3C353.4 308.6 362.9 305.4 367.8 303.7L367.8 304C367.8 321.7 382.1 336 399.8 336C417.5 336 431.8 321.7 431.8 304z"/></svg>