<svg xmlns="http://www.w3.org/2000/svg" viewBox="0 0 640 640"><!--! Font Awesome Pro 7.2.0 by @fontawesome - https://fontawesome.com License - https://fontawesome.com/license (Commercial License) Copyright 2026 Fonticons, Inc. --><path fill="currentColor" d="M320 112C205.1 112 112 205.1 112 320C112 434.9 205.1 528 320 528C434.9 528 528 434.9 528 320C528 205.1 434.9 112 320 112zM576 320C576 461.4 461.4 576 320 576C178.6 576 64 461.4 64 320C64 178.6 178.6 64 320 64C461.4 64 576 178.6 576 320zM208 320C208 302.3 222.3 288 240 288C257.7 288 272 302.3 272 320C272 337.7 257.7 352 240 352C222.3 352 208 337.7 208 320zM400 288C417.7 288 432 302.3 432 320C432 337.7 417.7 352 400 352C382.3 352 368 337.7 368 320C368 302.3 382.3 288 400 288zM224 400L416 400L416 448L224 448L224 400zM424.9 190.1C448.6 201.9 465.2 210.3 474.8 215L456.9 250.8C445.8 245.3 432.2 238.4 416 230.3C373.1 251.7 348.8 263.9 343.1 266.8L325.2 231C329.4 228.9 356.7 215.2 407.1 190.1L416 185.6L424.9 190.1zM192 212L276 212L276 252L172 252L172 212L192 212z"/></svg>