<svg xmlns="http://www.w3.org/2000/svg" viewBox="0 0 640 640"><!--! Font Awesome Pro 7.2.0 by @fontawesome - https://fontawesome.com License - https://fontawesome.com/license (Commercial License) Copyright 2026 Fonticons, Inc. --><path fill="currentColor" d="M528 320C528 278 515.5 238.9 494.1 206.2L480.9 220.3L466.3 206.6C451.4 192.7 432.8 183.5 412.5 180.8C408.4 180.3 404.2 180 400 180L380 180L380 140L400 140C406 140 411.9 140.4 417.7 141.2C421.8 141.7 425.8 142.5 429.8 143.4C397.9 123.5 360.3 112.1 320 112.1C279.7 112.1 242.1 123.5 210.2 143.3C214.2 142.4 218.2 141.7 222.3 141.1C228.1 140.3 234 139.9 240 139.9L260 139.9L260 179.9L240 179.9C235.8 179.9 231.6 180.2 227.5 180.7C207.2 183.4 188.6 192.6 173.7 206.5L159 220.3L145.9 206.2C124.5 238.9 112 278 112 320C112 434.9 205.1 528 320 528C434.9 528 528 434.9 528 320zM64 320C64 178.6 178.6 64 320 64C461.4 64 576 178.6 576 320C576 461.4 461.4 576 320 576C178.6 576 64 461.4 64 320zM320 384C364.2 384 400 419.8 400 464L400 480L240 480L240 464C240 419.8 275.8 384 320 384zM200 288C200 274.7 210.7 264 224 264C237.3 264 248 274.7 248 288C248 301.3 237.3 312 224 312C210.7 312 200 301.3 200 288zM416 264C429.3 264 440 274.7 440 288C440 301.3 429.3 312 416 312C402.7 312 392 301.3 392 288C392 274.7 402.7 264 416 264zM224 240C197.5 240 176 261.5 176 288C176 314.5 197.5 336 224 336C250.5 336 272 314.5 272 288C272 261.5 250.5 240 224 240zM304 288C304 332.2 268.2 368 224 368C179.8 368 144 332.2 144 288C144 243.8 179.8 208 224 208C268.2 208 304 243.8 304 288zM368 288C368 314.5 389.5 336 416 336C442.5 336 464 314.5 464 288C464 261.5 442.5 240 416 240C389.5 240 368 261.5 368 288zM416 368C371.8 368 336 332.2 336 288C336 243.8 371.8 208 416 208C460.2 208 496 243.8 496 288C496 332.2 460.2 368 416 368z"/></svg>