<svg xmlns="http://www.w3.org/2000/svg" viewBox="0 0 640 640"><!--! Font Awesome Pro 7.2.0 by @fontawesome - https://fontawesome.com License - https://fontawesome.com/license (Commercial License) Copyright 2026 Fonticons, Inc. --><path fill="currentColor" d="M528 320C528 205.1 434.9 112 320 112C205.1 112 112 205.1 112 320C112 434.9 205.1 528 320 528C434.9 528 528 434.9 528 320zM64 320C64 178.6 178.6 64 320 64C461.4 64 576 178.6 576 320C576 461.4 461.4 576 320 576C178.6 576 64 461.4 64 320zM320 380C364.2 380 400 415.8 400 460L400 464L240 464L240 460C240 415.8 275.8 380 320 380zM208 288C208 270.3 222.3 256 240 256C257.7 256 272 270.3 272 288C272 305.7 257.7 320 240 320C222.3 320 208 305.7 208 288zM400 256C417.7 256 432 270.3 432 288C432 305.7 417.7 320 400 320C382.3 320 368 305.7 368 288C368 270.3 382.3 256 400 256zM256 212C251.8 212 247.6 212.3 243.5 212.8C223.2 215.5 204.6 224.7 189.7 238.6L175 252.3L147.7 223L162.3 209.4C182.9 190.1 209.1 177 238.2 173.2C244 172.4 249.9 172 255.9 172L275.9 172L275.9 212L255.9 212zM396.5 212.8C392.4 212.3 388.2 212 384 212L364 212L364 172L384 172C390 172 395.9 172.4 401.7 173.2C430.8 177 457 190.2 477.6 209.4L492.2 223.1L464.9 252.3L450.3 238.6C435.4 224.7 416.8 215.5 396.5 212.8z"/></svg>