<svg xmlns="http://www.w3.org/2000/svg" viewBox="0 0 640 640"><!--! Font Awesome Pro 7.2.0 by @fontawesome - https://fontawesome.com License - https://fontawesome.com/license (Commercial License) Copyright 2026 Fonticons, Inc. --><path fill="currentColor" d="M528 320C528 205.1 434.9 112 320 112C205.1 112 112 205.1 112 320C112 361.8 124.3 400.7 145.6 433.3C153.8 478 192.9 511.9 239.9 512C264.6 522.3 291.6 528 320 528C434.9 528 528 434.9 528 320zM352 416C346.5 416 341.1 416.6 336 417.8C336 417.2 336 416.6 336 416C336 399.8 332 384.5 324.9 371.1C333.6 369.1 342.7 368 352 368C398 368 438 393.9 458.1 431.9L415.7 454.4C403.6 431.5 379.6 416 352 416zM64 320C64 178.6 178.6 64 320 64C461.4 64 576 178.6 576 320C576 461.4 461.4 576 320 576C178.6 576 64 461.4 64 320zM240 240C257.7 240 272 254.3 272 272C272 289.7 257.7 304 240 304C222.3 304 208 289.7 208 272C208 254.3 222.3 240 240 240zM368 272C368 254.3 382.3 240 400 240C417.7 240 432 254.3 432 272C432 289.7 417.7 304 400 304C382.3 304 368 289.7 368 272zM199.2 386.6C208.9 366.9 224 350.4 240 336C256 350.4 271.1 366.9 280.8 386.6C285 395 288 404.3 288 413.6C288 442.3 267.3 464 240 464C212.7 464 192 442.3 192 413.6C192 404.3 195.1 395 199.2 386.6z"/></svg>