<svg xmlns="http://www.w3.org/2000/svg" viewBox="0 0 640 640"><!--! Font Awesome Pro 7.2.0 by @fontawesome - https://fontawesome.com License - https://fontawesome.com/license (Commercial License) Copyright 2026 Fonticons, Inc. --><path fill="currentColor" d="M528 320C528 205.1 434.9 112 320 112C205.1 112 112 205.1 112 320C112 434.9 205.1 528 320 528C434.9 528 528 434.9 528 320zM64 320C64 178.6 178.6 64 320 64C461.4 64 576 178.6 576 320C576 461.4 461.4 576 320 576C178.6 576 64 461.4 64 320zM292.5 392.4L320 414.4C341 397.6 354 387.2 358.9 383.3C362.4 385.6 379.7 397.2 410.9 418C420 415 431.2 411.2 444.6 406.8L457.2 444.7C445.4 448.6 431.1 453.4 414.2 459L404.9 462.1C404.1 461.6 389.4 451.8 360.9 432.8C339.2 450.2 325.5 461.1 319.8 465.7C314.2 461.2 300.5 450.2 278.7 432.8C250.2 451.8 235.5 461.6 234.7 462.1C224.9 458.8 185.4 445.7 182.4 444.7L195 406.8C208.4 411.3 219.6 415 228.7 418C259.9 397.2 277.2 385.6 280.7 383.3L292.1 392.4zM199.2 241.7L294.8 289.7L304 294.3L304 314.5L293.8 318.8L198.2 358.8L183.5 330.5L227.7 302.9L182.4 268.9L199.2 241.8zM345.2 289.7L440.8 241.7L457.6 268.8L412.3 302.8L456.5 330.4L441.8 358.7L346.2 318.7L336 314.4L336 294.2L345.2 289.6z"/></svg>