<svg xmlns="http://www.w3.org/2000/svg" viewBox="0 0 640 640"><!--! Font Awesome Pro 7.2.0 by @fontawesome - https://fontawesome.com License - https://fontawesome.com/license (Commercial License) Copyright 2026 Fonticons, Inc. --><path fill="currentColor" d="M528 320C528 205.1 434.9 112 320 112C205.1 112 112 205.1 112 320C112 434.9 205.1 528 320 528C434.9 528 528 434.9 528 320zM64 320C64 178.6 178.6 64 320 64C461.4 64 576 178.6 576 320C576 461.4 461.4 576 320 576C178.6 576 64 461.4 64 320zM347.5 463.6L320 441.6C299 458.4 286 468.8 281.1 472.7C276.7 469.8 261.2 459.4 234.6 441.7C226.6 449.7 217.8 458.5 208.1 468.3L179.7 440C187.5 432.2 200.2 419.5 217.8 401.9L229.4 390.3C234.8 393.9 251.3 404.9 278.9 423.3C300.6 405.9 314.3 395 320 390.4C325.6 394.9 339.3 405.9 361.1 423.3C388.7 404.9 405.2 393.9 410.6 390.3L446.2 425.9L460.3 440L432 468.3C422.3 458.6 413.4 449.7 405.5 441.7C378.9 459.4 363.4 469.8 359 472.7L347.6 463.6zM245.7 208C225 208 205.1 216 190.6 230.2C176.1 244.4 168 263.5 168 283.4C168 297.2 173.6 310.5 183.8 320.4C194 330.3 207.8 335.9 222.3 335.9C236.8 335.9 250.7 330.3 260.8 320.4C270.9 310.5 276.6 297.2 276.6 283.4C276.6 275.6 273.4 268.1 267.7 262.5C261.9 256.9 254 253.7 245.7 253.7C237.4 253.7 229.5 256.9 223.7 262.5C218 268.1 214.8 275.6 214.8 283.4C214.8 285.1 215.5 286.8 216.8 288.1C218.2 289.4 220.1 290.2 222.2 290.2C224.3 290.2 226.2 289.4 227.6 288.1C229 286.8 229.6 285.1 229.6 283.4L261.6 283.4C261.6 293.8 257.3 303.8 249.9 311C242.5 318.2 232.5 322.2 222.2 322.2C211.9 322.2 201.9 318.2 194.5 311C187.1 303.7 182.8 293.8 182.8 283.4C182.8 266.9 189.5 251.2 201.4 239.6C213.2 228.1 229.2 221.7 245.7 221.7C262.2 221.7 278.2 228.1 290 239.6C301.8 251.1 308.6 266.9 308.6 283.4C308.6 306 299.4 327.5 283.2 343.3C267 359.1 245.1 367.9 222.3 367.9C199.5 367.9 177.6 359.1 161.4 343.3C145.2 327.5 136 305.9 136 283.4C136 254.8 147.7 227.4 168.3 207.3C188.9 187.2 216.8 176 245.7 176L245.7 208zM449.4 313.8C463.9 299.6 472 280.5 472 260.6C472 246.8 466.4 233.5 456.2 223.6C446 213.7 432.2 208.1 417.7 208.1C403.2 208.1 389.3 213.7 379.2 223.6C369.1 233.5 363.4 246.8 363.4 260.6C363.4 268.4 366.6 275.9 372.3 281.5C378.1 287.1 386 290.3 394.3 290.3C402.6 290.3 410.5 287.1 416.3 281.5C422 275.9 425.2 268.4 425.2 260.6C425.2 258.9 424.5 257.2 423.2 255.9C421.8 254.6 419.9 253.8 417.8 253.8C415.7 253.8 413.8 254.6 412.4 255.9C411 257.2 410.4 258.9 410.4 260.6L378.4 260.6C378.4 250.2 382.7 240.2 390.1 233C397.5 225.8 407.5 221.8 417.8 221.8C428.1 221.8 438.1 225.8 445.5 233C452.9 240.3 457.2 250.2 457.2 260.6C457.2 277.1 450.5 292.8 438.6 304.4C426.8 315.9 410.8 322.3 394.3 322.3C377.8 322.3 361.8 315.9 350 304.4C338.2 292.9 331.4 277.1 331.4 260.6C331.4 238 340.6 216.5 356.8 200.7C373 184.9 394.9 176.1 417.7 176.1C440.5 176.1 462.4 184.9 478.6 200.7C494.8 216.5 504 238.1 504 260.6C504 289.2 492.3 316.6 471.7 336.7C451.1 356.8 423.2 368 394.3 368L394.3 336C415 336 434.9 328 449.4 313.8z"/></svg>