<svg xmlns="http://www.w3.org/2000/svg" viewBox="0 0 640 640"><!--! Font Awesome Pro 7.2.0 by @fontawesome - https://fontawesome.com License - https://fontawesome.com/license (Commercial License) Copyright 2026 Fonticons, Inc. --><path fill="currentColor" d="M320.3 112C205.4 112 112.3 205.1 112.3 320C112.3 434.9 205.4 528 320.3 528C390.2 528 452 493.6 489.7 440.7L573.2 360.2C553.9 482.5 448 576 320.3 576C178.9 576 64.3 461.4 64.3 320C64.3 178.6 178.9 64 320.3 64C409 64 487.1 109.1 533.1 177.6C524.6 181.4 516.5 186.7 509.4 193.6L495.2 207.4C458.2 150 393.7 112 320.3 112zM413.8 455.7C393.2 431.4 362.6 416 328.3 416C294 416 263.4 431.4 242.8 455.7L206.2 424.7C235.5 390.1 279.4 368 328.4 368C346 368 362.8 370.8 378.6 376.1L537.3 222.4C553.8 206.4 580.1 206.6 596.3 222.9C612.9 239.5 612.7 266.6 595.8 282.9L582.6 295.6L555.7 268.7L533.1 291.3L559.6 317.8L533.8 342.7L507.7 316.6L485.1 339.2L510.7 364.8L484.9 389.7L459.7 364.5L437.1 387.1L461.9 411.9L449.8 423.6C450.1 423.9 450.3 424.2 450.6 424.5L414 455.5zM240.3 240C258 240 272.3 254.3 272.3 272C272.3 289.7 258 304 240.3 304C222.6 304 208.3 289.7 208.3 272C208.3 254.3 222.6 240 240.3 240zM368.3 272C368.3 254.3 382.6 240 400.3 240C418 240 432.3 254.3 432.3 272C432.3 289.7 418 304 400.3 304C382.6 304 368.3 289.7 368.3 272z"/></svg>