<svg xmlns="http://www.w3.org/2000/svg" viewBox="0 0 640 640"><!--! Font Awesome Pro 7.2.0 by @fontawesome - https://fontawesome.com License - https://fontawesome.com/license (Commercial License) Copyright 2026 Fonticons, Inc. --><path fill="currentColor" d="M528 320C528 377 505 428.7 467.8 466.3C472.7 477.8 482 487.2 494.1 492.1L505.3 496.6C549.1 450.6 576 388.4 576 320C576 178.6 461.4 64 320 64C178.6 64 64 178.6 64 320C64 388.4 90.9 450.6 134.6 496.6L145.8 492.1C157.9 487.2 167.3 477.8 172.2 466.3C135 428.7 112 377 112 320C112 205.1 205.1 112 320 112C434.9 112 528 205.1 528 320zM294.8 257.7L199.2 209.7L182.4 236.8L227.7 270.8L183.5 298.4L198.2 326.7L293.8 286.7L304 282.4L304 262.2L294.8 257.6zM440.8 209.7L345.2 257.7L336 262.3L336 282.5L346.2 286.8L441.8 326.8L456.5 298.5L412.3 270.9L457.6 236.9L440.8 209.8zM64 576C81.7 576 96 561.7 96 544C96 526.3 81.7 512 64 512C46.3 512 32 526.3 32 544C32 561.7 46.3 576 64 576zM608 512C608 494.3 593.7 480 576 480C558.3 480 544 494.3 544 512C544 529.7 558.3 544 576 544C593.7 544 608 529.7 608 512zM224 460.1C224 491.1 204.2 518.6 174.8 528.4L128 544L128 576L512 576L512 544L465.2 528.4C435.8 518.6 416 491.1 416 460.1L416 410.5C424.7 414.2 431.1 417.6 434.7 420L461.3 380C441.4 366.7 388.7 344 320 344C251.3 344 198.6 366.7 178.7 380L205.3 420C208.9 417.6 215.3 414.2 224 410.5L224 460.1zM336 480C327.2 480 320 472.8 320 464C320 455.2 327.2 448 336 448C344.8 448 352 455.2 352 464C352 472.8 344.8 480 336 480zM256 496C256 487.2 263.2 480 272 480C280.8 480 288 487.2 288 496C288 504.8 280.8 512 272 512C263.2 512 256 504.8 256 496z"/></svg>