<svg xmlns="http://www.w3.org/2000/svg" viewBox="0 0 640 640"><!--! Font Awesome Pro 7.2.0 by @fontawesome - https://fontawesome.com License - https://fontawesome.com/license (Commercial License) Copyright 2026 Fonticons, Inc. --><path fill="currentColor" d="M320 528C348.3 528 375.4 522.3 400 512.1L400 563.3C374.8 571.5 347.9 576 320 576C178.6 576 64 461.4 64 320C64 178.6 178.6 64 320 64C461.4 64 576 178.6 576 320C576 400.8 538.5 472.9 480 519.9L480 576L440 576L440 373.8C420.5 390.2 395.4 400 368 400C306.1 400 256 349.9 256 288C256 226.1 306.1 176 368 176C429.9 176 480 226.1 480 288L480 452.9C510 416.9 528 370.5 528 320C528 205.1 434.9 112 320 112C205.1 112 112 205.1 112 320C112 434.9 205.1 528 320 528zM368 360C407.8 360 440 327.8 440 288C440 248.2 407.8 216 368 216C328.2 216 296 248.2 296 288C296 327.8 328.2 360 368 360zM192 224C209.7 224 224 238.3 224 256C224 273.7 209.7 288 192 288C174.3 288 160 273.7 160 256C160 238.3 174.3 224 192 224zM320 272C320 254.3 334.3 240 352 240C369.7 240 384 254.3 384 272C384 289.7 369.7 304 352 304C334.3 304 320 289.7 320 272zM240 456L216 456L216 408L240.2 408C248.7 408 271.2 408 296.3 414.8C321.6 421.7 351.6 436.2 372 466.6L332 493.3C320.3 475.8 302.3 466.2 283.7 461.1C265 456 247.7 455.9 240 455.9z"/></svg>