<svg xmlns="http://www.w3.org/2000/svg" viewBox="0 0 640 640"><!--! Font Awesome Pro 7.2.0 by @fontawesome - https://fontawesome.com License - https://fontawesome.com/license (Commercial License) Copyright 2026 Fonticons, Inc. --><path fill="currentColor" d="M528 320C528 336.5 526.1 352.6 522.4 368L571.5 368C574.5 352.5 576 336.4 576 320C576 178.6 461.4 64 320 64C178.6 64 64 178.6 64 320C64 336.4 65.5 352.5 68.5 368L117.6 368C114 352.6 112 336.5 112 320C112 205.1 205.1 112 320 112C434.9 112 528 205.1 528 320zM320 528C270.9 528 225.8 511 190.3 482.6L203.4 547.9C238.3 565.9 278 576 320 576C362 576 401.7 565.9 436.7 547.9L449.8 482.6C414.2 511 369.1 528 320 528zM320 368C293.5 368 272 389.5 272 416L272 432C272 458.5 293.5 480 320 480C346.5 480 368 458.5 368 432L368 416C368 389.5 346.5 368 320 368zM273.4 307C295.9 270.1 292 228.2 264.7 213.3C237.4 198.4 197.1 216.2 174.6 253.1C152.1 290 156 331.9 183.3 346.8C210.6 361.7 250.9 343.9 273.4 307zM456.7 346.8C484 331.9 487.8 290 465.4 253.1C443 216.2 402.6 198.4 375.3 213.3C348 228.2 344.2 270.2 366.6 307C389 343.8 429.4 361.7 456.7 346.8zM32 416L32 576L160 576L128 416L32 416zM608 416L512 416L480 576L608 576L608 416z"/></svg>