<svg xmlns="http://www.w3.org/2000/svg" viewBox="0 0 640 640"><!--! Font Awesome Pro 7.2.0 by @fontawesome - https://fontawesome.com License - https://fontawesome.com/license (Commercial License) Copyright 2026 Fonticons, Inc. --><path fill="currentColor" d="M112 112L240 112L240 272L448 272L448 224L288 64L64 64L64 576L308 576C297.5 561.4 289 545.3 282.9 528L112 528L112 112zM288 131.9L380.1 224L288 224L288 131.9zM464 608C543.5 608 608 543.5 608 464C608 384.5 543.5 320 464 320C384.5 320 320 384.5 320 464C320 543.5 384.5 608 464 608zM480 400L480 448L544 448L544 480L480 480L480 544L448 544L448 480L384 480L384 448L448 448L448 384L480 384L480 400z"/></svg>