<svg xmlns="http://www.w3.org/2000/svg" viewBox="0 0 640 640"><!--! Font Awesome Pro 7.2.0 by @fontawesome - https://fontawesome.com License - https://fontawesome.com/license (Commercial License) Copyright 2026 Fonticons, Inc. --><path fill="currentColor" d="M176 112L304 112L304 272L464 272L464 528L176 528L176 112zM352 131.9L444.1 224L352 224L352 131.9zM352 64L128 64L128 576L512 576L512 224L352 64zM336 495.3C385.3 491.2 424 450 424 399.6C424 349.2 385.3 308 336 303.9L336 344.1C363.1 348 384 371.3 384 399.5C384 427.7 363.1 451.1 336 454.9L336 495.1zM336 434.7C352 431.1 364 416.7 364 399.6C364 382.5 352 368.1 336 364.5L336 434.7zM248 359.6L208 359.6L208 439.6L248 439.6L280 479.6L304 479.6L304 319.6L280 319.6L248 359.6z"/></svg>