<svg xmlns="http://www.w3.org/2000/svg" viewBox="0 0 640 640"><!--! Font Awesome Pro 7.2.0 by @fontawesome - https://fontawesome.com License - https://fontawesome.com/license (Commercial License) Copyright 2026 Fonticons, Inc. --><path fill="currentColor" d="M336 112L208 112L208 368L252.8 368C254.7 370.8 265.2 386.6 284.3 415.3L330.2 317.8L336.7 304L366.8 304C368.1 306.6 378.8 327.9 398.8 368L448 368L448 416L369.2 416C365.3 408.2 359.8 397.2 352.7 383L309.8 474.2L307.1 480L269.9 480L268.1 477.3L227.2 416L64 416L64 368L160 368L160 64L384 64L544 224L544 576L160 576L160 464L208 464L208 528L496 528L496 272L336 272L336 112zM476.1 224L384 131.9L384 224L476.1 224z"/></svg>