<svg xmlns="http://www.w3.org/2000/svg" viewBox="0 0 640 640"><!--! Font Awesome Pro 7.2.0 by @fontawesome - https://fontawesome.com License - https://fontawesome.com/license (Commercial License) Copyright 2026 Fonticons, Inc. --><path fill="currentColor" d="M240 112L112 112L112 528L282.9 528C289 545.3 297.5 561.4 308 576L64 576L64 64L288 64L448 224L448 272.7C431.3 274.1 415.2 277.6 400 283L400 272.1L240 272.1L240 112.1zM380.1 224L288 131.9L288 224L380.1 224zM320 464C320 384.5 384.5 320 464 320C543.5 320 608 384.5 608 464C608 543.5 543.5 608 464 608C384.5 608 320 543.5 320 464zM464 408C477.3 408 488 418.7 488 432C488 439.2 483.8 445.7 477.2 448.6C462.4 455.2 452.6 459.5 448 461.6L448 488L480 488L480 482.4L490.2 477.9C508.3 469.8 520 451.9 520 432C520 401.1 494.9 376 464 376C433.1 376 408 401.1 408 432L440 432C440 418.7 450.7 408 464 408zM448 512L448 544L480 544L480 512L448 512z"/></svg>