<svg xmlns="http://www.w3.org/2000/svg" viewBox="0 0 640 640"><!--! Font Awesome Pro 7.2.0 by @fontawesome - https://fontawesome.com License - https://fontawesome.com/license (Commercial License) Copyright 2026 Fonticons, Inc. --><path fill="currentColor" d="M240 112L112 112L112 528L176 528L176 576L64 576L64 64L288 64L448 224L448 400L400 400L400 272L240 272L240 112zM380.1 224L288 131.9L288 224L380.1 224zM356 464L356 612L316 612L316 533.9C310.3 544.7 301.1 562.1 288.3 586.1C275.2 562.2 265.7 545.1 260 534.6L260 612L220 612L220 444L240 444C241.4 444 246.6 444 255.8 444C256.2 444.7 266.8 464 287.6 501.9C307.5 464.3 317.8 445 318.3 444C336.1 444 339 444 355.9 444L355.9 464zM424 444L440 444C464.3 444 484 463.7 484 488L484 568C484 592.3 464.3 612 440 612L424 612C399.7 612 380 592.3 380 568L380 488C380 463.7 399.7 444 424 444zM420 488L420 568C420 570.2 421.8 572 424 572L440 572C442.2 572 444 570.2 444 568L444 488C444 485.8 442.2 484 440 484L424 484C421.8 484 420 485.8 420 488zM548 444L548 499C548 515.8 551 532.4 556.9 548.2L560 556.4L563.1 548.2C569 532.5 572 515.8 572 499L572 444L612 444L612 499C612 520.6 608.1 542 600.5 562.2C589.8 590.7 583.6 607.3 581.8 612L538.1 612C536.3 607.3 530.1 590.7 519.4 562.2C511.8 542 507.9 520.6 507.9 499L507.9 444L547.9 444z"/></svg>