<svg xmlns="http://www.w3.org/2000/svg" viewBox="0 0 640 640"><!--! Font Awesome Pro 7.2.0 by @fontawesome - https://fontawesome.com License - https://fontawesome.com/license (Commercial License) Copyright 2026 Fonticons, Inc. --><path fill="currentColor" d="M240 112L112 112L112 528L282.9 528C289 545.3 297.5 561.4 308 576L64 576L64 64L288 64L448 224L448 272.7C431.3 274.1 415.2 277.6 400 283L400 272.1L240 272.1L240 112.1zM380.1 224L288 131.9L288 224L380.1 224zM464 560C481.8 560 498.5 555.2 512.8 546.7L381.3 415.2C372.9 429.5 368 446.2 368 464C368 517 411 560 464 560zM415.2 381.3L546.7 512.8C555.1 498.5 560 481.8 560 464C560 411 517 368 464 368C446.2 368 429.5 372.8 415.2 381.3zM464 320C543.5 320 608 384.5 608 464C608 543.5 543.5 608 464 608C384.5 608 320 543.5 320 464C320 384.5 384.5 320 464 320z"/></svg>