<svg xmlns="http://www.w3.org/2000/svg" viewBox="0 0 640 640"><!--! Font Awesome Pro 7.2.0 by @fontawesome - https://fontawesome.com License - https://fontawesome.com/license (Commercial License) Copyright 2026 Fonticons, Inc. --><path fill="currentColor" d="M160 32L160 80L480 80L480 32L160 32zM112 128L112 176L528 176L528 128L112 128zM432 272L432 496L208 496L208 272L432 272zM432 224L64 224L64 544L576 544L576 224L432 224zM480 272L528 272L528 312L480 312L480 272zM528 360L528 408L480 408L480 360L528 360zM528 456L528 496L480 496L480 456L528 456zM160 496L112 496L112 456L160 456L160 496zM112 408L112 360L160 360L160 408L112 408zM112 312L112 272L160 272L160 312L112 312z"/></svg>