<svg xmlns="http://www.w3.org/2000/svg" viewBox="0 0 640 640"><!--! Font Awesome Pro 7.2.0 by @fontawesome - https://fontawesome.com License - https://fontawesome.com/license (Commercial License) Copyright 2026 Fonticons, Inc. --><path fill="currentColor" d="M560 144L560 200L512 200L512 144L560 144zM272 144L464 144L464 400L272 400L272 144zM560 400L512 400L512 344L560 344L560 400zM560 248L560 296L512 296L512 248L560 248zM224 344L224 400L176 400L176 344L224 344zM224 296L176 296L176 248L224 248L224 296zM224 200L176 200L176 144L224 144L224 200zM176 96L128 96L128 448L608 448L608 96L176 96zM80 216L80 192L32 192L32 544L512 544L512 496L80 496L80 216z"/></svg>