<svg xmlns="http://www.w3.org/2000/svg" viewBox="0 0 640 640"><!--! Font Awesome Pro 7.2.0 by @fontawesome - https://fontawesome.com License - https://fontawesome.com/license (Commercial License) Copyright 2026 Fonticons, Inc. --><path fill="currentColor" d="M308.9 73.7L320 64L331.1 73.7C407.8 140.8 466.3 226.2 501.1 322C508.3 341.9 512 363.1 512 384.2C512 489.4 425.2 576 320 576C214.8 576 128 489.4 128 384.2C128 363 131.7 341.8 138.9 322C173.7 226.2 232.2 140.8 308.9 73.7zM184 338.4C178.7 352.9 176 368.6 176 384.2C176 462.8 241.3 528 320 528C398.7 528 464 462.8 464 384.2C464 368.6 461.3 353 456 338.4C427.1 259 380.6 187.3 320 128.7C259.4 187.3 212.9 259 184 338.4zM333.7 224L333.7 238.4C333.7 249.7 338.1 260.6 346 268.6L386.3 309.7C405.3 329.1 415.9 355.2 415.9 382.3L415.9 383.9C415.9 436.9 372.9 479.9 319.9 479.9C266.9 479.9 223.9 436.9 223.9 383.9L223.9 379.3C223.9 357 234.2 335.9 251.8 322.2L265 311.9L265 362.2C265 383 281.9 399.9 302.7 399.9C323.5 399.9 340.4 383 340.4 362.2L340.4 360.7C340.4 350.5 336.5 340.8 329.4 333.4L315.2 318.7C305 308.1 299.2 293.9 299.2 279.1C299.2 262.1 306.8 246.1 319.8 235.2L333.7 224z"/></svg>