<svg xmlns="http://www.w3.org/2000/svg" viewBox="0 0 640 640"><!--! Font Awesome Pro 7.2.0 by @fontawesome - https://fontawesome.com License - https://fontawesome.com/license (Commercial License) Copyright 2026 Fonticons, Inc. --><path fill="currentColor" d="M240 144L240 192L400 192L400 144L240 144zM192 192L192 144L144 144L144 192L192 192zM144 240L144 296L296 296L296 240L144 240zM144 400L192 400L192 344L144 344L144 400zM144 448L144 496L277.6 496C281.6 512.9 287.7 529 295.5 544L96 544L96 96L544 96L544 220.4L541.1 222.9L541 222.8L539.7 224.1L518 243.4L476.8 191.9L496 191.9L496 143.9L448 143.9L448 189.2L387.2 239.9L344 239.9L344 282.2C339.4 287.3 334.9 292.7 330.5 298.2C319.7 311.7 309.2 327 300.1 343.9L240.1 343.9L240.1 399.9L278.1 399.9C274.3 415.1 272.1 431.1 272.1 447.7L272.1 447.9L144.1 447.9zM448 256L512 320L544 288C620.8 352 640 421.3 640 448C640 536.4 568.4 608 480 608C391.6 608 320 536.4 320 448C320 358.4 405.3 282.7 448 256zM544 496.2C544 448.2 480 400.2 480 400.2C480 400.2 416 448.2 416 496.2C416 531.5 444.7 560.2 480 560.2C515.3 560.2 544 531.5 544 496.2z"/></svg>