<svg xmlns="http://www.w3.org/2000/svg" viewBox="0 0 640 640"><!--! Font Awesome Pro 7.2.0 by @fontawesome - https://fontawesome.com License - https://fontawesome.com/license (Commercial License) Copyright 2026 Fonticons, Inc. --><path fill="currentColor" d="M304 96L377.4 160.2C531.1 166.2 608 320 608 320C608 320 531.1 473.8 377.4 479.8L304 544L256 512L256 451.4C228.5 436.6 205.5 417.7 186.9 398.9L64 448L32 416L80 320L32 224L64 192L182.7 245.4C202 225.2 226.4 204.6 256 188.6L256 128L304 96zM516.3 364.3C532 348.3 544 332.4 552.4 320C544.1 307.7 532 291.7 516.3 275.7C482.7 241.5 435.9 210.2 375.5 207.8L358.7 207.1C355.2 204 336.9 188 303.7 159L303.7 217L278.7 230.5C254.5 243.5 234 260.8 217.2 278.3L193.9 302.6C178.1 295.5 148.3 282.1 104.6 262.4C117.9 289 127.5 308.1 133.3 319.9C127.7 331 117.5 351.4 102.7 381.1C153.2 360.9 185.1 348.1 198.5 342.8L220.7 365.3C236.8 381.6 256.2 397.3 278.6 409.4L303.6 422.9L303.6 480.9C336.7 451.9 355 435.9 358.6 432.8L375.4 432.1C435.8 429.7 482.7 398.4 516.2 364.2zM448 288C465.7 288 480 302.3 480 320C480 337.7 465.7 352 448 352C430.3 352 416 337.7 416 320C416 302.3 430.3 288 448 288zM565.4 298.6L565.4 298.6L565.4 298.6L565.4 298.7zM565.4 341.4L565.4 341.4L565.4 341.4L565.4 341.3z"/></svg>