<svg xmlns="http://www.w3.org/2000/svg" viewBox="0 0 640 640"><!--! Font Awesome Pro 7.2.0 by @fontawesome - https://fontawesome.com License - https://fontawesome.com/license (Commercial License) Copyright 2026 Fonticons, Inc. --><path fill="currentColor" d="M133.4 264.4L163.9 279.7L188.3 255.9C234.5 211 299 176 351.9 176C420.8 176 472.7 213.2 509.8 255.6C528.2 276.6 541.9 297.8 551 313.7C552.2 315.9 553.4 318 554.5 319.9C553.4 321.9 552.3 324 551 326.1C541.9 342.1 528.2 363.3 509.8 384.2C472.7 426.6 420.8 463.8 351.9 463.8C295 463.8 225.2 423.5 179.6 375.1L152.4 346.2C128.3 361.5 109.5 373.5 96.1 382C107.2 343.3 113.1 322.5 113.9 319.7C113.8 319.2 106.5 293.8 92.1 243.4L133.4 264.1zM352 128C281.6 128 205.6 172.1 154.9 221.5C100.5 194.2 59.5 173.8 32 160L32 208L33.9 214.6L64 320L35.1 421.1L32 432L32 480C61.2 461.4 98.8 437.5 144.8 408.2C195.1 461.6 276.7 512 352 512C528 512 608 320 608 320C608 320 528 128 352 128zM337 257L354 240L320.1 206.1L238.2 288L272.1 321.9C278.2 315.8 299.9 294.1 337.1 256.9zM449 273L466 256L432.1 222.1L415.1 239.1L287.1 367.1L270.1 384.1L304 418L321 401L449 273zM481 369L498 352L464.1 318.1C458 324.2 436.3 345.9 399.1 383.1L382.1 400.1L416 434C422.1 427.9 443.8 406.2 481 369z"/></svg>