<svg xmlns="http://www.w3.org/2000/svg" viewBox="0 0 640 640"><!--! Font Awesome Pro 7.2.0 by @fontawesome - https://fontawesome.com License - https://fontawesome.com/license (Commercial License) Copyright 2026 Fonticons, Inc. --><path fill="currentColor" d="M144 64L144 116L229 94.8C267.1 85.3 307.3 89.7 342.5 107.3C388.8 130.5 443.3 130.5 489.6 107.3L496 104.1L544 80.1L544 448.1L488.5 468.9C442.3 486.2 390.9 483.5 346.8 461.5C308.9 442.5 265.4 437.8 224.3 448.1L144 468L144 576L96 576L96 64L144 64zM144 316.9L212.5 301.1C252.3 291.9 293.9 294.2 332.4 307.7L374.3 322.4C411.4 335.4 451.9 335 488.8 321.1L496.1 318.4L496.1 265.6C453.2 280.5 406.7 281.5 363.2 268.4L313.9 253.6C285.9 245.2 256.3 244.3 227.8 250.8L144 270.2L144 316.9zM272 137.9L272 198.6C290.8 199.2 309.5 202.2 327.6 207.6L376.9 222.4C412.1 233 449.8 231.7 484.2 218.8L496 214.4L496 157C439.6 179.9 375.8 177.6 321 150.2C305.7 142.5 288.9 138.4 272 137.9zM496 369.4C451.3 383.8 402.9 383.3 358.4 367.7L316.5 353C286.5 342.5 254.2 340.7 223.2 347.9L144 366.2L144 418.6L212.6 401.4C264.8 388.3 320 394.4 368.2 418.5C400.4 434.6 437.9 436.6 471.6 423.9L496 414.8L496 369.4zM192 168C192 159.2 184.8 152 176 152C167.2 152 160 159.2 160 168C160 176.8 167.2 184 176 184C184.8 184 192 176.8 192 168zM224 168C232.8 168 240 160.8 240 152C240 143.2 232.8 136 224 136C215.2 136 208 143.2 208 152C208 160.8 215.2 168 224 168zM192 216C192 207.2 184.8 200 176 200C167.2 200 160 207.2 160 216C160 224.8 167.2 232 176 232C184.8 232 192 224.8 192 216zM224 216C232.8 216 240 208.8 240 200C240 191.2 232.8 184 224 184C215.2 184 208 191.2 208 200C208 208.8 215.2 216 224 216z"/></svg>