<svg xmlns="http://www.w3.org/2000/svg" viewBox="0 0 640 640"><!--! Font Awesome Pro 7.2.0 by @fontawesome - https://fontawesome.com License - https://fontawesome.com/license (Commercial License) Copyright 2026 Fonticons, Inc. --><path fill="currentColor" d="M144 64L144 116L229 94.8C267.1 85.3 307.3 89.7 342.5 107.3C388.8 130.5 443.3 130.5 489.6 107.3L496 104.1L544 80.1L544 432.1L488.5 452.9C442.3 470.2 390.9 467.5 346.8 445.5C308.9 426.5 265.4 421.8 224.3 432.1L144 452L144 576L96 576L96 64L144 64zM144 214.7L224 197.3L224 145.4L144 165.4L144 214.7zM144 263.8L144 310.7L224 293.3L224 246.4L144 263.8zM144 359.8L144 402.5L212.6 385.3C216.4 384.4 220.2 383.5 224 382.8L224 342.4L144 359.8zM272 378.6C305.1 379.3 337.9 387.3 368 402.3L368 352.5L312.6 336.2C299.4 332.3 285.6 331.1 272 332.6L272 378.6zM416 415.6C434.7 417.1 453.7 414.5 471.6 407.8L496 398.7L496 352L470.3 357.9C452.4 362 434.2 363.4 416 362.2L416 415.7zM496 302.6L496 255.9L470.3 261.8C452.4 265.9 434.2 267.3 416 266.1L416 313.9C430.5 315.3 445.2 314.3 459.5 311L496 302.6zM496 206.6L496 156.8C470.4 167.2 443.2 172.4 416 172.4L416 217.9C430.5 219.3 445.2 218.3 459.5 215L496 206.6zM368 167.1C351.9 163.4 336.1 157.7 321 150.2C305.7 142.5 288.9 138.4 272 137.9L272 188.5C290.2 187.2 308.5 189.1 326.1 194.3L368 206.6L368 167.2zM368 256.6L312.6 240.3C299.4 236.4 285.6 235.2 272 236.7L272 284.5C290.2 283.2 308.5 285.1 326.1 290.3L368 302.6L368 256.6z"/></svg>