<svg xmlns="http://www.w3.org/2000/svg" viewBox="0 0 640 640"><!--! Font Awesome Pro 7.2.0 by @fontawesome - https://fontawesome.com License - https://fontawesome.com/license (Commercial License) Copyright 2026 Fonticons, Inc. --><path fill="currentColor" d="M468.1 104.2L400.8 107.5L313.8 51.5L237.9 121.8L135.3 134.8L122.3 237.4L52 313.3L108 400.3L104.7 467.6L192.8 379.5C182.3 365 176.2 347.2 176.2 328C176.2 279.4 215.6 240 264.2 240C283.4 240 301.2 246.2 315.7 256.6L468.1 104.2zM320.2 528C280.1 528 242.7 516.7 211 497.1L497.2 210.8C516.8 242.5 528.1 279.9 528.1 320C528.1 434.9 435 528 320.1 528zM139.2 501C150.6 512.4 163 522.7 176.3 531.7C217.3 559.6 266.8 575.9 320.2 575.9C461.6 575.9 576.2 461.3 576.2 319.9C576.2 266.6 559.9 217 532 176C522.9 162.7 512.6 150.2 501.3 138.9L467.4 172.8L173.2 467L139.3 500.9zM336.2 472C336.2 458.7 325.5 448 312.2 448C298.9 448 288.2 458.7 288.2 472C288.2 485.3 298.9 496 312.2 496C325.5 496 336.2 485.3 336.2 472zM392.2 480C405.5 480 416.2 469.3 416.2 456C416.2 442.7 405.5 432 392.2 432C378.9 432 368.2 442.7 368.2 456C368.2 469.3 378.9 480 392.2 480z"/></svg>