<svg xmlns="http://www.w3.org/2000/svg" viewBox="0 0 640 640"><!--! Font Awesome Pro 7.2.0 by @fontawesome - https://fontawesome.com License - https://fontawesome.com/license (Commercial License) Copyright 2026 Fonticons, Inc. --><path fill="currentColor" d="M288 96L352 144L576 144L576 512L64 512L64 96L288 96zM352 192L336 192C333.9 190.4 312.5 174.4 272 144L112 144L112 464L528 464L528 192L352 192zM310.9 270.9L320 280L329.1 270.9C338.6 261.4 351.6 256 365.1 256L368 256C394.5 256 416 277.5 416 304C416 368 320 416 320 416C320 416 224 368 224 304C224 277.5 245.5 256 272 256L274.9 256C288.4 256 301.4 261.4 310.9 270.9z"/></svg>