<svg xmlns="http://www.w3.org/2000/svg" viewBox="0 0 640 640"><!--! Font Awesome Pro 7.2.0 by @fontawesome - https://fontawesome.com License - https://fontawesome.com/license (Commercial License) Copyright 2026 Fonticons, Inc. --><path fill="currentColor" d="M80 88L80 64L32 64L32 512L272 512L272 464L80 464L80 224L272 224L272 176L80 176L80 88zM465.5 144L560 144L560 240L368 240L368 112L417.5 112C445.4 130.6 461.4 141.3 465.5 144zM560 96L480 96L432 64L320 64L320 288L608 288L608 96L560 96zM465.5 432L560 432L560 528L368 528L368 400L417.5 400C445.4 418.6 461.4 429.3 465.5 432zM560 384L480 384L432 352L320 352L320 576L608 576L608 384L560 384z"/></svg>