<svg xmlns="http://www.w3.org/2000/svg" viewBox="0 0 640 640"><!--! Font Awesome Pro 7.2.0 by @fontawesome - https://fontawesome.com License - https://fontawesome.com/license (Commercial License) Copyright 2026 Fonticons, Inc. --><path fill="currentColor" d="M443.6 227.5L424.6 256L386.1 256L416.9 209.8L403.6 200.9L494.8 64L548.1 99.5L456.9 236.4L443.6 227.5zM328.5 256L295.5 256L304.7 219.2L289.2 215.3L327 64L389.1 79.5L351.3 230.8L335.8 226.9L328.5 256zM256 336L256 384L208 384L208 336L192 336L192 416L144 416L144 336L112 336L112 384C112 445.9 162.1 496 224 496L352 496C413.9 496 464 445.9 464 384L464 336L256 336zM512 336L512 384C512 436.3 486.9 482.8 448 512L448 576L400 576L400 536.7C384.8 541.5 368.7 544 352 544L224 544C207.3 544 191.2 541.4 176 536.7L176 576L128 576L128 512C89.1 482.8 64 436.3 64 384L64 288L576 288L576 336L512 336z"/></svg>