<svg xmlns="http://www.w3.org/2000/svg" viewBox="0 0 640 640"><!--! Font Awesome Pro 7.2.0 by @fontawesome - https://fontawesome.com License - https://fontawesome.com/license (Commercial License) Copyright 2026 Fonticons, Inc. --><path fill="currentColor" d="M277.9 32C372.5 32 449.1 108.7 449.1 203.2C449.1 242.9 435.3 281.3 410.2 311.9L406.4 316.5L480.3 449.7L524.8 455.7C572.4 462.1 608 502.8 608 550.9L608 607.9L384 607.9L378.3 604.5L163.1 475.3C107.8 442.2 88.6 371.2 119.7 314.7L134.1 288.5C111.1 272.6 96 246.1 96 216L96 188.6C59.1 178.1 32 144.3 32 104L32 32L277.9 32zM80 104C80 126.1 97.9 144 120 144L288 144L288 192L144 192L144 216C144 238.1 161.9 256 184 256L269.1 256L269.1 304L184 304C182.8 304 181.6 303.9 180.4 303.8L161.7 337.8C143 371.7 154.5 414.3 187.7 434.2L397.2 559.9L559.9 559.9L559.9 550.9C559.9 526.9 542.1 506.5 518.3 503.3L461.9 495.7L449.9 494.1L444.1 483.5L373.6 356.3C363.3 368.8 353.2 381.2 343 393.6L305.9 363.1L321.1 344.5L373 281.3C391.1 259.2 401 231.6 401 203C401 134.9 345.8 79.8 277.8 79.8L80 80L80 104z"/></svg>