<svg xmlns="http://www.w3.org/2000/svg" viewBox="0 0 640 640"><!--! Font Awesome Pro 7.2.0 by @fontawesome - https://fontawesome.com License - https://fontawesome.com/license (Commercial License) Copyright 2026 Fonticons, Inc. --><path fill="currentColor" d="M542.2 165.7L576.5 200L576.5 200L479.7 329.1C458.8 357 425.4 376 388.5 376C364 376 340.4 367.9 321.2 353.2L116.7 557.7L99.7 574.7L65.8 540.8L82.8 523.8L287.3 319.3C272.6 300.1 264.5 276.5 264.5 252C264.5 215.1 283.5 181.8 311.4 160.8L440.4 64L474.7 98.3L340.1 199.2C322.9 212.1 312.4 231.7 312.4 252C312.4 268.4 318.8 284.2 330.3 296L344.4 310.1C356.2 321.6 371.9 328 388.4 328C408.6 328 428.3 317.5 441.2 300.3L542.2 165.7zM525.4 149L521.4 153L405.4 269L388.4 286L354.5 252.1L371.5 235.1L487.5 119.1L491.5 115.1L525.4 149zM447.1 412.8L586.3 552L552.4 585.9L535.4 568.9L390.4 423.9C410 423.6 429.2 419.8 447.1 412.7zM216.5 250L122.6 156.1C103.2 189.7 107.9 233.5 136.6 262.3L206.5 332.2L172.6 366.1L102.7 296.2C49.6 243.1 49.6 157 102.7 103.9L120.5 86.1L137.5 103.1L227.8 193.4C220.7 211.3 216.8 230.5 216.6 250.1z"/></svg>