<svg xmlns="http://www.w3.org/2000/svg" viewBox="0 0 640 640"><!--! Font Awesome Pro 7.2.0 by @fontawesome - https://fontawesome.com License - https://fontawesome.com/license (Commercial License) Copyright 2026 Fonticons, Inc. --><path fill="currentColor" d="M80 96L80 160L136 160L136 96L184 96L184 160L240 160L240 96L288 96L288 224L352 224L352 96L400 96L400 160L456 160L456 96L504 96L504 160L560 160L560 96L608 96L608 320L576 320L576 576L64 576L64 320L32 320L32 96L80 96zM288 296L288 320L112 320L112 528L256 528L256 384L384 384L384 528L528 528L528 320L352 320L352 272L288 272L288 296zM560 208L400 208L400 272L560 272L560 208zM80 272L240 272L240 208L80 208L80 272z"/></svg>