<svg xmlns="http://www.w3.org/2000/svg" viewBox="0 0 640 640"><!--! Font Awesome Pro 7.2.0 by @fontawesome - https://fontawesome.com License - https://fontawesome.com/license (Commercial License) Copyright 2026 Fonticons, Inc. --><path fill="currentColor" d="M304.2 48L256.2 32L256.2 273.9C270.5 280.5 286.8 285.3 304.2 287.2L304.2 48.1zM224.2 96L176.2 80L176.2 224L224.2 224L224.2 96zM464.2 96L416.2 80L416.2 224L464.2 224L464.2 96zM384.2 80L336.2 96L336.2 286.8C351.1 284.8 367.7 280.1 383.7 272.6L384.2 272.4L384.2 79.9zM171.8 266.1L129 286.2L193 526.2L197.8 544L442.7 544L447.5 526.2L511.5 286.2L468.7 266.1C454.7 285.8 431.6 303.5 404 316.2C376.5 328.9 346.4 335.9 320.3 335.9C258.9 335.9 200.8 306.9 171.9 266zM234.6 496L195.8 350.6C232.3 371.9 276 384 320.1 384C354.1 384 391 375.1 423.9 359.8C431 356.5 438 352.9 444.8 348.9L405.6 495.9L234.5 495.9z"/></svg>