<svg xmlns="http://www.w3.org/2000/svg" viewBox="0 0 640 640"><!--! Font Awesome Pro 7.2.0 by @fontawesome - https://fontawesome.com License - https://fontawesome.com/license (Commercial License) Copyright 2026 Fonticons, Inc. --><path fill="currentColor" d="M560 256L80 256L80 576L32 576L32 176L320 64L608 176L608 576L560 576L560 256zM557.9 208L320 115.5L82.1 208L557.9 208zM239.1 304L414.2 304L421.3 315.3L476.4 403.3L480.1 409.1L480.1 574L432.1 574L432.1 528L208.1 528L208.1 574L160.1 574L160.1 409.1L163.8 403.3L218.9 315.3L226 304L239.3 304zM432 480L432 448L208 448L208 480L432 480zM387.6 352L252.4 352L222.3 400L417.6 400L387.5 352z"/></svg>