<svg xmlns="http://www.w3.org/2000/svg" viewBox="0 0 640 640"><!--! Font Awesome Pro 7.2.0 by @fontawesome - https://fontawesome.com License - https://fontawesome.com/license (Commercial License) Copyright 2026 Fonticons, Inc. --><path fill="currentColor" d="M560 256L80 256L80 576L32 576L32 176L320 64L608 176L608 576L560 576L560 256zM557.9 208L320 115.5L82.1 208L557.9 208zM163.7 403.3L165.7 400L474.3 400C475.4 401.7 477.3 404.8 480 409.1L480 574L432 574L432 528L208 528L208 574L160 574L160 409.1L163.7 403.3zM432 480L432 448L208 448L208 480L432 480zM512 352L128 352L128 304L512 304L512 352z"/></svg>