<svg xmlns="http://www.w3.org/2000/svg" viewBox="0 0 640 640"><!--! Font Awesome Pro 7.2.0 by @fontawesome - https://fontawesome.com License - https://fontawesome.com/license (Commercial License) Copyright 2026 Fonticons, Inc. --><path fill="currentColor" d="M224 176L224 64L416 64L416 176L523.3 261.8C556.6 288.5 576 328.8 576 371.5C576 447.6 515.5 509.5 440 511.9L440 576L392 576L392 512L376 512L376 576L328 576L328 512L312 512L312 576L264 576L264 512L248 512L248 576L200 576L200 511.9C124.5 509.5 64 447.6 64 371.5C64 328.8 83.4 288.5 116.7 261.8L224 176zM175.4 276.4L146.7 299.4C124.8 316.9 112 343.4 112 371.5C112 412 138 446.4 174.3 459C155.3 435.1 144 404.9 144 372L144 366.8C144 336.5 153.5 307 171 282.4L175.4 276.3zM389.5 464L435.5 464C486.6 464 528 422.6 528 371.5C528 343.4 515.2 316.8 493.3 299.3L386 213.5L368 199.1L368 112L344 112L344 147.2C344 187 356.4 225.7 379.5 258.1L397 282.5C414.6 307.1 424 336.6 424 366.9L424 372.1C424 407.3 411 439.5 389.5 464.1zM296 112L272 112L272 223.7L267.5 230L210.1 310.4C198.3 326.9 192 346.6 192 366.9L192 372.1C192 422.9 233.2 464.1 284 464.1C334.8 464.1 376 422.9 376 372.1L376 366.9C376 346.6 369.7 326.9 357.9 310.4L340.5 286C311.6 245.5 296 197 296 147.2L296 112z"/></svg>