<svg xmlns="http://www.w3.org/2000/svg" viewBox="0 0 640 640"><!--! Font Awesome Pro 7.2.0 by @fontawesome - https://fontawesome.com License - https://fontawesome.com/license (Commercial License) Copyright 2026 Fonticons, Inc. --><path fill="currentColor" d="M336 112L336 256L144 256L144 112L336 112zM336 304L336 528L144 528L144 304L336 304zM96 112L96 528L80 528L80 576L400 576L400 528L384 528L384 368L432 368L432 512L576 512L576 198.7L569.8 191.8C505.8 121.4 473.8 86.2 473.7 86L438.1 118.4C447.3 128.5 461.2 143.8 480 164.5L480 256L528 256L528 464L480 464L480 320L384 320L384 64L96 64L96 112z"/></svg>