<svg xmlns="http://www.w3.org/2000/svg" viewBox="0 0 640 640"><!--! Font Awesome Pro 7.2.0 by @fontawesome - https://fontawesome.com License - https://fontawesome.com/license (Commercial License) Copyright 2026 Fonticons, Inc. --><path fill="currentColor" d="M320 112C434.9 112 528 205.1 528 320C528 434.9 434.9 528 320 528C205.1 528 112 434.9 112 320C112 205.1 205.1 112 320 112zM320 576C461.4 576 576 461.4 576 320C576 178.6 461.4 64 320 64C178.6 64 64 178.6 64 320C64 461.4 178.6 576 320 576zM376 416C376 393.7 362.9 374.4 344 365.4L344 168L296 168L296 365.4C277.1 374.4 264 393.7 264 416C264 446.9 289.1 472 320 472C350.9 472 376 446.9 376 416zM224 256C241.7 256 256 241.7 256 224C256 206.3 241.7 192 224 192C206.3 192 192 206.3 192 224C192 241.7 206.3 256 224 256zM208 320C208 302.3 193.7 288 176 288C158.3 288 144 302.3 144 320C144 337.7 158.3 352 176 352C193.7 352 208 337.7 208 320zM464 352C481.7 352 496 337.7 496 320C496 302.3 481.7 288 464 288C446.3 288 432 302.3 432 320C432 337.7 446.3 352 464 352zM448 224C448 206.3 433.7 192 416 192C398.3 192 384 206.3 384 224C384 241.7 398.3 256 416 256C433.7 256 448 241.7 448 224z"/></svg>