<svg xmlns="http://www.w3.org/2000/svg" viewBox="0 0 640 640"><!--! Font Awesome Pro 7.2.0 by @fontawesome - https://fontawesome.com License - https://fontawesome.com/license (Commercial License) Copyright 2026 Fonticons, Inc. --><path fill="currentColor" d="M385.5 132.8C393.1 119.9 406.9 112 421.8 112L424 112C446.1 112 464 129.9 464 152C464 174.1 446.1 192 424 192L350.7 192L385.5 132.8zM254.5 132.8L289.3 192L216 192C193.9 192 176 174.1 176 152C176 129.9 193.9 112 216 112L218.2 112C233.1 112 247 119.9 254.5 132.8zM344.1 108.5L320 149.5L295.9 108.5C279.7 80.9 250.1 64 218.2 64L216 64C167.4 64 128 103.4 128 152C128 166.4 131.5 180 137.6 192L64 192L64 288L96 288L96 544L544 544L544 288L576 288L576 192L502.4 192C508.5 180 512 166.4 512 152C512 103.4 472.6 64 424 64L421.8 64C389.9 64 360.3 80.9 344.1 108.4zM144 288L296 288L296 496L144 496L144 288zM344 288L496 288L496 496L344 496L344 288z"/></svg>