<svg xmlns="http://www.w3.org/2000/svg" viewBox="0 0 640 640"><!--! Font Awesome Pro 7.2.0 by @fontawesome - https://fontawesome.com License - https://fontawesome.com/license (Commercial License) Copyright 2026 Fonticons, Inc. --><path fill="currentColor" d="M320 80C271.4 80 232 119.4 232 168C232 186.7 237.8 204 247.8 218.3L274.1 256L152 256L152 336L269.5 336L253.8 370.1L173.5 544L257.2 544C288.1 482.2 309 440.3 320 418.3C331 440.3 351.9 482.2 382.8 544L466.5 544L386.2 370.1L370.5 336L488 336L488 256L365.9 256L392.2 218.3C402.1 204.1 408 186.8 408 168C408 119.4 368.6 80 320 80zM184 168C184 92.9 244.9 32 320 32C395.1 32 456 92.9 456 168C456 181.9 453.9 195.3 450 208L536 208L536 384L445.5 384L525.8 557.9L541.5 592L353.2 592C352.1 589.8 341 567.7 320 525.7C299 567.7 287.9 589.8 286.8 592L98.5 592L114.2 557.9L194.5 384L104 384L104 208L190 208C186.1 195.3 184 181.9 184 168zM268 160C268 149 277 140 288 140C299 140 308 149 308 160C308 171 299 180 288 180C277 180 268 171 268 160zM352 140C363 140 372 149 372 160C372 171 363 180 352 180C341 180 332 171 332 160C332 149 341 140 352 140zM300 288C300 277 309 268 320 268C331 268 340 277 340 288C340 299 331 308 320 308C309 308 300 299 300 288zM320 364C331 364 340 373 340 384C340 395 331 404 320 404C309 404 300 395 300 384C300 373 309 364 320 364z"/></svg>