<svg xmlns="http://www.w3.org/2000/svg" viewBox="0 0 640 640"><!--! Font Awesome Pro 7.2.0 by @fontawesome - https://fontawesome.com License - https://fontawesome.com/license (Commercial License) Copyright 2026 Fonticons, Inc. --><path fill="currentColor" d="M205.4 437.9C234.6 446.9 267 441.2 291.5 421.5C308.2 408.2 331.9 408.2 348.5 421.5C373 441.1 405.4 446.9 434.6 437.9L427.6 528L212.4 528L205.4 437.9zM201.1 382.9L179.9 112L460.1 112L438.9 382.9L429.2 388.3C413 397.3 393 395.6 378.5 384C344.3 356.6 295.7 356.6 261.5 384C247 395.6 227 397.3 210.8 388.3L201.1 382.9zM168 576L472 576L508.2 112L512 64L128 64L131.8 112L168 576zM272.1 213.9C261.7 225.6 256 240.6 256 256.3C256 291.5 284.8 320.1 320 320.1C355.2 320.1 384 291.6 384 256.3C384 240.7 378.3 225.6 367.9 213.9L320 160L272.1 213.9z"/></svg>