<svg xmlns="http://www.w3.org/2000/svg" viewBox="0 0 640 640"><!--! Font Awesome Pro 7.2.0 by @fontawesome - https://fontawesome.com License - https://fontawesome.com/license (Commercial License) Copyright 2026 Fonticons, Inc. --><path fill="currentColor" d="M528 320C528 297.7 524.5 276.2 518 256L416 256L416 288L448 320L448 384L416 384L416 432L368 480L320 480L320 384L224 384L224 296L264 256L352 256L416 192L320 192L288 224L256 224L256 122C172.4 149 112 227.5 112 320C112 434.9 205.1 528 320 528C434.9 528 528 434.9 528 320zM64 320C64 178.6 178.6 64 320 64C461.4 64 576 178.6 576 320C576 461.4 461.4 576 320 576C178.6 576 64 461.4 64 320z"/></svg>