<svg xmlns="http://www.w3.org/2000/svg" viewBox="0 0 640 640"><!--! Font Awesome Pro 7.2.0 by @fontawesome - https://fontawesome.com License - https://fontawesome.com/license (Commercial License) Copyright 2026 Fonticons, Inc. --><path fill="currentColor" d="M528 320C528 205.1 434.9 112 320 112C205.1 112 112 205.1 112 320C112 434.9 205.1 528 320 528C434.9 528 528 434.9 528 320zM64 320C64 178.6 178.6 64 320 64C461.4 64 576 178.6 576 320C576 461.4 461.4 576 320 576C178.6 576 64 461.4 64 320zM451.3 443.3C433.2 461.4 421.4 473.2 416 478.6L393.4 456C398.8 450.6 410.6 438.8 428.7 420.7L440 409.4L462.6 432L451.3 443.3zM352 464L352 496L288 496L288 464L352 464zM480 320L480 384L448 384L448 320L480 320zM256 224L256 192L352 192L352 256L288 256L256 224zM160 400L160 352L224 288L256 288L256 320L288 320L288 288L320 288L384 352L384 432L288 432L256 400L160 400z"/></svg>