<svg xmlns="http://www.w3.org/2000/svg" viewBox="0 0 640 640"><!--! Font Awesome Pro 7.2.0 by @fontawesome - https://fontawesome.com License - https://fontawesome.com/license (Commercial License) Copyright 2026 Fonticons, Inc. --><path fill="currentColor" d="M226.7 34.5L477.7 160L240 278.8L240 328.4C265.3 324.5 292.2 322.5 320 322.5C386.6 322.5 448 334.3 493.7 354.3C516.5 364.3 536.5 376.8 551.1 391.9C565.8 407.1 576.1 426.1 576.1 448.1C576.1 470.1 565.8 489.1 551.1 504.3C536.5 519.4 516.5 531.9 493.7 541.9C448 561.9 386.6 573.7 320 573.7C253.4 573.7 192 561.7 146.3 541.8C123.5 531.8 103.6 519.3 89 504.2C74.3 489 64 470 64 448C64 426 74.3 407 89 391.8C103.6 376.7 123.6 364.2 146.4 354.2C160.3 348.1 175.6 342.8 192.1 338.4L192.1 17.1L226.8 34.5zM320 370.5C291.5 370.5 264.6 372.9 240 377L240 418.6C249.8 416.9 260.6 415.9 272 415.9C316.2 415.9 352 430.2 352 447.9C352 465.6 316.2 479.9 272 479.9C230.6 479.9 196.5 467.3 192.4 451.2L192 447.9L192 388.3C182.5 391.3 173.7 394.6 165.6 398.1C146.4 406.5 132.4 415.9 123.5 425.1C114.7 434.2 112 441.8 112 447.9C112 454 114.7 461.6 123.5 470.7C132.4 479.9 146.4 489.3 165.6 497.7C203.9 514.5 258.5 525.4 320 525.4C381.5 525.4 436.1 514.4 474.4 497.7C493.6 489.3 507.6 479.9 516.5 470.7C525.3 461.6 528 454 528 447.9C528 441.8 525.3 434.2 516.5 425.1C507.6 415.9 493.6 406.5 474.4 398.1C436.1 381.3 381.5 370.4 320 370.4zM240 225.2L370.3 160L240 94.8L240 225.2z"/></svg>