<svg xmlns="http://www.w3.org/2000/svg" viewBox="0 0 640 640"><!--! Font Awesome Pro 7.2.0 by @fontawesome - https://fontawesome.com License - https://fontawesome.com/license (Commercial License) Copyright 2026 Fonticons, Inc. --><path fill="currentColor" d="M134.1 96C113.1 96 96 113.1 96 134.1C96 155.1 113.1 172.2 134.1 172.2C155.1 172.2 172.2 155.1 172.2 134.1C172.2 113.1 155.1 96 134.1 96zM258.3 96C237.3 96 220.2 113.1 220.2 134.1C220.2 155.1 237.3 172.2 258.3 172.2C279.3 172.2 296.4 155.1 296.4 134.1C296.4 113.1 279.3 96 258.3 96zM343.7 134.1C343.7 155.1 360.8 172.2 381.8 172.2C402.8 172.2 419.9 155.1 419.9 134.1C419.9 113.1 402.8 96 381.8 96C360.8 96 343.7 113.1 343.7 134.1zM505.9 96C484.9 96 467.8 113.1 467.8 134.1C467.8 155.1 484.9 172.2 505.9 172.2C526.9 172.2 544 155.1 544 134.1C544 113.1 526.9 96 505.9 96zM96 258.2C96 279.2 113.1 296.3 134.1 296.3C155.1 296.3 172.2 279.2 172.2 258.2C172.2 237.2 155.1 220.1 134.1 220.1C113.1 220.1 96 237.2 96 258.2zM258.2 220.1C237.2 220.1 220.1 237.2 220.1 258.2C220.1 279.2 237.2 296.3 258.2 296.3C279.2 296.3 296.3 279.2 296.3 258.2C296.3 237.2 279.2 220.1 258.2 220.1zM343.6 258.2C343.6 279.2 360.7 296.3 381.7 296.3C402.7 296.3 419.8 279.2 419.8 258.2C419.8 237.2 402.7 220.1 381.7 220.1C360.7 220.1 343.6 237.2 343.6 258.2zM505.8 220.1C484.8 220.1 467.7 237.2 467.7 258.2C467.7 279.2 484.8 296.3 505.8 296.3C526.8 296.3 543.9 279.2 543.9 258.2C543.9 237.2 526.8 220.1 505.8 220.1zM96 381.8C96 402.8 113.1 419.9 134.1 419.9C155.1 419.9 172.2 402.8 172.2 381.8C172.2 360.8 155.1 343.7 134.1 343.7C113.1 343.7 96 360.8 96 381.8zM258.2 343.7C237.2 343.7 220.1 360.8 220.1 381.8C220.1 402.8 237.2 419.9 258.2 419.9C279.2 419.9 296.3 402.8 296.3 381.8C296.3 360.8 279.2 343.7 258.2 343.7zM343.6 381.8C343.6 402.8 360.7 419.9 381.7 419.9C402.7 419.9 419.8 402.8 419.8 381.8C419.8 360.8 402.7 343.7 381.7 343.7C360.7 343.7 343.6 360.8 343.6 381.8zM505.8 343.7C484.8 343.7 467.7 360.8 467.7 381.8C467.7 402.8 484.8 419.9 505.8 419.9C526.8 419.9 543.9 402.8 543.9 381.8C543.9 360.8 526.8 343.7 505.8 343.7zM96 505.9C96 526.9 113.1 544 134.1 544C155.1 544 172.2 526.9 172.2 505.9C172.2 484.9 155.1 467.8 134.1 467.8C113.1 467.8 96 484.9 96 505.9zM258.2 467.8C237.2 467.8 220.1 484.9 220.1 505.9C220.1 526.9 237.2 544 258.2 544C279.2 544 296.3 526.9 296.3 505.9C296.3 484.9 279.2 467.8 258.2 467.8zM343.6 505.9C343.6 526.9 360.7 544 381.7 544C402.7 544 419.8 526.9 419.8 505.9C419.8 484.9 402.7 467.8 381.7 467.8C360.7 467.8 343.6 484.9 343.6 505.9zM505.8 467.8C484.8 467.8 467.7 484.9 467.7 505.9C467.7 526.9 484.8 544 505.8 544C526.8 544 543.9 526.9 543.9 505.9C543.9 484.9 526.8 467.8 505.8 467.8z"/></svg>