<svg xmlns="http://www.w3.org/2000/svg" viewBox="0 0 640 640"><!--! Font Awesome Pro 7.2.0 by @fontawesome - https://fontawesome.com License - https://fontawesome.com/license (Commercial License) Copyright 2026 Fonticons, Inc. --><path fill="currentColor" d="M528 320C528 205.1 434.9 112 320 112C205.1 112 112 205.1 112 320C112 394.1 150.8 459.2 209.1 496C208.4 490.8 208 485.4 208 480L208 426.5C192.2 406.9 181.4 383.1 177.5 357.1C218 373.3 267 382.9 319.9 382.9C372.8 382.9 421.9 373.4 462.5 357.1C458.7 383.2 447.9 407 432 426.6L432 480.1C432 485.5 431.6 490.9 430.9 496.1C489.3 459.3 528 394.2 528 320.1zM576 320C576 436.3 498.4 534.6 392.1 565.7C372.6 582.1 347.5 592 320 592C292.5 592 267.4 582.1 247.9 565.7C141.6 534.6 64 436.3 64 320C64 178.6 178.6 64 320 64C461.4 64 576 178.6 576 320zM240 240C257.7 240 272 254.3 272 272C272 289.7 257.7 304 240 304C222.3 304 208 289.7 208 272C208 254.3 222.3 240 240 240zM368 272C368 254.3 382.3 240 400 240C417.7 240 432 254.3 432 272C432 289.7 417.7 304 400 304C382.3 304 368 289.7 368 272zM384 480L384 416L336 416L336 440L304 440L304 416L256 416L256 480C256 515.3 284.7 544 320 544C355.3 544 384 515.3 384 480z"/></svg>