<svg xmlns="http://www.w3.org/2000/svg" viewBox="0 0 640 640"><!--! Font Awesome Pro 7.2.0 by @fontawesome - https://fontawesome.com License - https://fontawesome.com/license (Commercial License) Copyright 2026 Fonticons, Inc. --><path fill="currentColor" d="M528 320C528 205.1 434.9 112 320 112C205.1 112 112 205.1 112 320C112 395.9 152.7 462.4 213.5 498.7C209.9 487.8 208 476.1 208 464L208 426.5C192.2 406.9 181.4 383.1 177.5 357.1C218 373.3 267 382.9 319.9 382.9C372.8 382.9 421.9 373.4 462.5 357.1C458.7 383.2 447.9 407 432 426.6L432 464.1C432 476.2 430.1 487.9 426.5 498.8C487.3 462.5 528 396.1 528 320.1zM64 320C64 178.6 178.6 64 320 64C461.4 64 576 178.6 576 320C576 461.4 461.4 576 320 576C178.6 576 64 461.4 64 320zM294.8 257.7L304 262.3L304 282.5L293.8 286.8L198.2 326.8L183.5 298.5L227.7 270.9L182.4 236.9L199.2 209.8L294.8 257.8zM440.8 209.7L457.6 236.8L412.3 270.8L456.5 298.4L441.8 326.7L346.2 286.7L336 282.4L336 262.2L345.2 257.6L440.8 209.6zM384 480L384 416L336 416L336 440L304 440L304 416L256 416L256 480C256 515.3 284.7 544 320 544C355.3 544 384 515.3 384 480z"/></svg>