<svg xmlns="http://www.w3.org/2000/svg" viewBox="0 0 640 640"><!--! Font Awesome Pro 7.2.0 by @fontawesome - https://fontawesome.com License - https://fontawesome.com/license (Commercial License) Copyright 2026 Fonticons, Inc. --><path fill="currentColor" d="M344 64L344 124.6C462.7 107.6 529.3 98.1 544 96L544 368C529.3 365.9 462.7 356.4 344 339.4L344 608L296 608L296 339.4C177.3 356.4 110.7 365.9 96 368L96 96C110.7 98.1 177.3 107.6 296 124.6L296 64L344 64zM144 312.7L313.2 288.5C317.7 287.9 322.3 287.9 326.8 288.5L496 312.7L496 151.4L326.8 175.6C322.3 176.2 317.7 176.2 313.2 175.6L144 151.3L144 312.7z"/></svg>