<svg xmlns="http://www.w3.org/2000/svg" viewBox="0 0 640 640"><!--! Font Awesome Pro 7.2.0 by @fontawesome - https://fontawesome.com License - https://fontawesome.com/license (Commercial License) Copyright 2026 Fonticons, Inc. --><path fill="currentColor" d="M64.3 259.6C76.9 262.4 98.6 267.2 129.3 274C101.3 275 80.5 275.7 66.9 276.2C67.1 282.9 68.3 317.5 70.5 380.1L71.3 404.1L95.3 403.3L256 397.7L256 464.1L288 464.1L288 528.1L456 528.1C522.3 528.1 576 474.4 576 408.1L576 282.7C576 255.8 568.9 229.4 555.3 206.1C534.6 218.2 534.6 218.2 555.3 206.1L553.8 203.5C526.5 156.7 476.5 128 422.5 128L373.4 128L366.3 135.9L321.2 185.5L115.4 139.9L92 134.7C90.5 141.1 83 175 69.5 236.1L64.3 259.6zM304 416L304 347.9L279.2 348.8L117.6 354.4L116.5 322.4L314.2 315.5L328 315L328 268.8L318.3 266.7L121.5 223.1L128.4 191.9L324.3 235.3L326.7 235.8L412.3 255.5L427.9 259.1L435.1 227.9C431.6 227.1 407.4 221.5 362.5 211.1L394.5 175.9L422.4 175.9C459.4 175.9 493.6 195.5 512.2 227.5L512.2 227.5L513.7 230.1C523 246 527.9 264.1 527.9 282.5L528 408C528 447.8 495.8 480 456 480L336 480L336 416L304 416z"/></svg>