<svg xmlns="http://www.w3.org/2000/svg" viewBox="0 0 640 640"><!--! Font Awesome Pro 7.2.0 by @fontawesome - https://fontawesome.com License - https://fontawesome.com/license (Commercial License) Copyright 2026 Fonticons, Inc. --><path fill="currentColor" d="M311.9 87L320.3 98.7L328.7 87C342.8 67.5 365.3 56 389.4 56C430.8 56 464.3 89.5 464.3 130.9L464.3 133.3C464.3 218.6 320.3 312 320.3 312C320.3 312 176.3 218.7 176.3 133.3L176.3 130.9C176.3 89.5 209.8 56 251.2 56C275.2 56 297.8 67.5 311.9 87zM193.1 352L416.4 352L416.4 432L425.4 432C501 384 539.6 359.5 541.1 358.5C543.7 362.8 563.9 396.5 601.8 459.6L613.8 479.6L594.2 492.2L469.4 572.2L463.5 576L32.5 576L32.5 528L449.5 528L548.8 464.4L525.4 425.5L445.4 476.3L439.5 480L264.5 480L264.5 432L368.5 432L368.5 400L207.8 400L117.8 460L111.8 464L32.5 464L32.5 416L97.2 416L187.2 356L193.2 352z"/></svg>