<svg xmlns="http://www.w3.org/2000/svg" viewBox="0 0 640 640"><!--! Font Awesome Pro 7.2.0 by @fontawesome - https://fontawesome.com License - https://fontawesome.com/license (Commercial License) Copyright 2026 Fonticons, Inc. --><path fill="currentColor" d="M311.6 87C297.5 67.5 274.9 56 250.9 56C209.5 56 176 89.5 176 130.9L176 133.3C176 218.7 320 312 320 312C320 312 464 218.7 464 133.3L464 130.9C464 89.5 430.5 56 389.1 56C365.1 56 342.5 67.5 328.4 87L320 98.7L311.6 87zM144 128L0 128L0 465.9L7 472.9L91.8 557.7L108.8 574.7L142.7 540.8C141.6 539.6 110 508 48 446.1L48 176L96 176L96 385.9C112.3 402.2 140.3 430.2 167 456.9L183 472.9L184 473.9L200 489.9L233.9 456L217.9 440L216.9 439C207.4 429.5 194.4 416.5 177.9 400L208 369.9L296 457.9L296 576L344 576L344 457.9L432 369.9L462.1 400L439.1 423L439.1 423C428.6 433.5 417.6 444.5 406.2 455.9L440 489.9C451.5 478.4 462.5 467.4 472.9 457L512.9 417C541.7 388.2 537.1 392.8 543.9 386L543.9 176.1L591.9 176.1L591.9 446.2L514.1 524L497.1 541L531 574.9L548 557.9L632.8 473.1L639.8 466.1L639.8 128.2L495.8 128.2L495.8 366.3C459.4 329.9 438.1 308.6 431.8 302.3L414.8 319.3L319.8 414.3L224.8 319.3L207.8 302.3C201.5 308.6 180.2 329.9 143.8 366.3L144 128z"/></svg>