<svg xmlns="http://www.w3.org/2000/svg" viewBox="0 0 640 640"><!--! Font Awesome Pro 7.2.0 by @fontawesome - https://fontawesome.com License - https://fontawesome.com/license (Commercial License) Copyright 2026 Fonticons, Inc. --><path fill="currentColor" d="M280 64L256 64L256 248L184 248L184 322.5L135.9 366.3L128 373.4L128 422.5C128 476.6 156.7 526.6 203.4 553.8L206 555.3C229.2 568.9 255.7 576 282.6 576L408 576C474.3 576 528 522.3 528 456L528 288L456 288L456 256L384 256L384 64L280 64zM336 304L408 304L408 336L480 336L480 456C480 495.8 447.8 528 408 528L282.6 528C264.2 528 246.1 523.1 230.2 513.8C218.5 533.9 218.5 533.8 230.2 513.8L227.6 512.3C195.6 493.7 176 459.5 176 422.5L176 394.6L200 372.8L200 424L232 424L232 296L304 296L304 112L336 112L336 304z"/></svg>