<svg xmlns="http://www.w3.org/2000/svg" viewBox="0 0 640 640"><!--! Font Awesome Pro 7.2.0 by @fontawesome - https://fontawesome.com License - https://fontawesome.com/license (Commercial License) Copyright 2026 Fonticons, Inc. --><path fill="currentColor" d="M182.6 68.5L197.1 114.3L197.1 114.3L218 180.5L272.5 126.1C276 129.6 303 156.6 353.5 207.1L370.4 224.1L417.5 271.1C426.6 280.2 442.3 295.9 464.5 318.1C494.2 288.4 512.9 269.8 520.5 262.1L618.4 360L469.1 509.3C429.1 549.3 375.7 572.9 319.4 575.7L308.1 576C182.4 576 80.5 474.1 80.5 348.3L80.5 223.1C65.7 176.2 54 139.2 45.4 111.9L38.1 89C41.9 87.8 80.1 75.8 152.5 52.9L175.4 45.7L182.6 68.6zM98.3 120.3C100.7 127.9 110.4 158.6 127.3 212.2L128.4 215.7L128.4 348.3C128.4 447.5 208.8 528 308.1 528L317 527.8C361.4 525.6 403.5 507 435.1 475.4L550.5 360L520.4 329.9L498.3 351.9L498.3 351.9L481.3 368.9L385.3 464.9L368.3 481.9L304.3 417.9L288.3 433.9L190.4 336L206.4 320L142.4 256L176.3 222.1L176.3 208.3L175.2 204.7L175.2 204.7L151.2 128.8L143.9 105.9L98.1 120.3zM356.3 366.1L338.4 384L368.5 414.1L415.5 367.1L415.5 367L430.5 352L400.5 321.9L356.4 366.1zM289.4 305L258.4 336L288.5 366.1L366.6 288L336.5 257.9L289.5 305zM210.4 256L240.5 286.1L302.6 224L272.5 193.9L210.4 256z"/></svg>