<svg xmlns="http://www.w3.org/2000/svg" viewBox="0 0 640 640"><!--! Font Awesome Pro 7.2.0 by @fontawesome - https://fontawesome.com License - https://fontawesome.com/license (Commercial License) Copyright 2026 Fonticons, Inc. --><path fill="currentColor" d="M188.6 192L216 64L265.1 64L237.7 192L393.1 192L420.5 64L469.6 64L442.2 192L544.1 192L533.8 240L431.9 240L418.8 301.3C406.9 320.7 400 343.6 400 368L368 368L368 538.1L359.9 576L310.8 576L338.2 448L182.8 448L155.4 576L106.3 576L133.7 448L31.9 448L42.2 400L144 400L178.3 240L76.5 240L86.8 192L188.6 192zM227.4 240L193.1 400L348.5 400L382.8 240L227.4 240zM528 336C510.3 336 496 350.3 496 368L496 416L560 416L560 368C560 350.3 545.7 336 528 336zM448 368C448 323.8 483.8 288 528 288C572.2 288 608 323.8 608 368L608 416L640 416L640 608L416 608L416 416L448 416L448 368z"/></svg>