<svg xmlns="http://www.w3.org/2000/svg" viewBox="0 0 640 640"><!--! Font Awesome Pro 7.2.0 by @fontawesome - https://fontawesome.com License - https://fontawesome.com/license (Commercial License) Copyright 2026 Fonticons, Inc. --><path fill="currentColor" d="M320 69.5L346.5 96L384 96L384 133.5L410.5 160L384 186.5L384 195.7C470.5 229.8 515.2 332.6 533.6 432L576 432L576 576L64 576L64 432L106.4 432C124.8 332.6 169.5 229.8 256 195.8L256 186.6L229.5 160.1L256 133.6L256 96.1L293.5 96.1L320 69.6zM155.3 432L484.7 432C480.8 412.6 475.8 393.3 469.6 374.7C433.3 387.4 414.6 394 413.5 394.3L403.9 388.7L320 339.8L236.1 388.7L226.5 394.3C225.4 393.9 206.7 387.4 170.4 374.7C164.2 393.3 159.2 412.6 155.3 432zM221.5 341.7L307.9 291.3L320 284.2L332.1 291.3L418.5 341.7L451.6 330.1C421.3 267.9 378.9 232 320 232C261.1 232 218.7 267.9 188.4 330.1L221.5 341.7zM112 528L528 528L528 480L112 480L112 528z"/></svg>