<svg xmlns="http://www.w3.org/2000/svg" viewBox="0 0 640 640"><!--! Font Awesome Pro 7.2.0 by @fontawesome - https://fontawesome.com License - https://fontawesome.com/license (Commercial License) Copyright 2026 Fonticons, Inc. --><path fill="currentColor" d="M441.9 64L488.5 64L495.1 69.4L583.1 141.4L591.9 148.6L591.9 319.8C563 286.7 536.7 256.7 513.2 229.8C505.5 221 494.3 215.9 482.6 215.9L480.3 215.9C468.1 215.9 456.8 222 450 232.1C444.6 240.2 442.7 250.2 444.7 259.8L501.1 527.9L575.9 527.9L575.9 575.9L63.9 575.9L63.9 527.9L139.4 527.9L232.8 185.6L235.5 175.7L244.5 170.8L436.5 66.8L441.8 63.9zM438.6 464L206.7 464L189.2 528L452.1 528L438.6 464zM428.5 416L397.7 269.8C393 247.6 397.5 224.5 410.1 205.6C425.7 182.1 452.1 168 480.3 168L482.6 168C505.6 168 527.5 176.9 544 192.6L544 171.3L471.4 111.9L454 111.9L276.4 208.1L219.7 415.9L428.4 415.9z"/></svg>