<svg xmlns="http://www.w3.org/2000/svg" viewBox="0 0 640 640"><!--! Font Awesome Pro 7.2.0 by @fontawesome - https://fontawesome.com License - https://fontawesome.com/license (Commercial License) Copyright 2026 Fonticons, Inc. --><path fill="currentColor" d="M320.2 55.6C332.6 82 351.2 121.6 376.1 174.4C429.1 149.9 468.8 131.5 495.3 119.3C487.9 147.5 476.7 189.8 461.8 246.2C518.2 261.5 560.4 273 588.5 280.6C564.7 297.4 528.9 322.6 481.2 356.3C514.5 404.3 539.5 440.2 556.1 464.1C527.1 461.7 483.5 458 425.3 453.1C420 511.3 416 554.9 413.4 583.9C392.7 563.4 361.7 532.5 320.2 491.4C278.8 532.6 247.7 563.4 227 583.9C224.4 554.9 220.4 511.3 215.1 453.1C156.9 458 113.3 461.7 84.3 464.1C100.9 440.2 125.9 404.2 159.2 356.3C111.5 322.6 75.7 297.4 51.9 280.6C80 273 122.3 261.5 178.6 246.2C163.7 189.7 152.5 147.4 145.1 119.3C171.5 131.5 211.3 149.9 264.3 174.4C289.2 121.6 307.8 81.9 320.2 55.6zM320.2 168.4C303 204.9 292.1 228.1 287.4 238C277.4 233.4 254.1 222.6 217.6 205.7C227.9 244.7 234.4 269.4 237.3 280.1C226.7 283 201.9 289.7 163 300.3C195.9 323.5 216.9 338.3 225.9 344.6C219.6 353.6 205 374.7 182 407.8C222.1 404.4 247.7 402.3 258.7 401.4C259.7 412.4 262 437.9 265.7 478C294.3 449.6 312.5 431.5 320.3 423.8C328.1 431.6 346.3 449.6 374.9 478C378.5 437.9 380.9 412.3 381.9 401.4C392.9 402.3 418.4 404.5 458.6 407.8C435.6 374.7 421 353.7 414.7 344.6C423.7 338.3 444.7 323.5 477.6 300.3C438.7 289.7 414 283 403.3 280.1C406.1 269.5 412.7 244.7 423 205.7C386.4 222.6 363.2 233.4 353.2 238C348.5 228 337.6 204.8 320.4 168.4z"/></svg>