<svg xmlns="http://www.w3.org/2000/svg" viewBox="0 0 640 640"><!--! Font Awesome Pro 7.2.0 by @fontawesome - https://fontawesome.com License - https://fontawesome.com/license (Commercial License) Copyright 2026 Fonticons, Inc. --><path fill="currentColor" d="M81.3 47.1L64.3 30.1L30.4 64L47.4 81L559.4 593L576.4 610L610.3 576.1C606.6 572.4 580.1 545.9 530.9 496.7C539.3 482.4 544.2 465.8 544.2 448L544.2 288C544.2 164.3 443.9 64 320.2 64C258.9 64 203.3 88.7 162.8 128.6L81.3 47.1zM196.7 162.5C228.5 131.2 272 112 320.1 112C417.3 112 496.1 190.8 496.1 288L496.1 320L384.1 320L384.1 350L196.7 162.6zM432.1 398L432.1 368L496.1 368L496.1 448C496.1 452.3 495.5 456.4 494.5 460.4L432.1 398zM218.3 320L144.1 320L144.1 288C144.1 274.9 145.5 262.2 148.2 249.9L109.6 211.3C100.9 235.2 96.1 261.1 96.1 288L96.1 448C96.1 501 139.1 544 192.1 544L256.1 544L256.1 357.8L218.3 320zM144.1 432L144.1 368L208.1 368L208.1 496L192.1 496C165.6 496 144.1 474.5 144.1 448L144.1 432z"/></svg>