<svg xmlns="http://www.w3.org/2000/svg" viewBox="0 0 640 640"><!--! Font Awesome Pro 7.2.0 by @fontawesome - https://fontawesome.com License - https://fontawesome.com/license (Commercial License) Copyright 2026 Fonticons, Inc. --><path fill="currentColor" d="M288 64C164.3 64 64 164.3 64 288C64 349 88.4 404.4 128 444.8L128 576L176 576L176 424.2L168.3 417.1C133.6 384.9 112 339 112 288C112 190.8 190.8 112 288 112C374.6 112 446.7 174.6 461.3 257.1L462.6 264.5L467.9 269.8L527.9 329.8L527.9 367.9L463.9 367.9L463.9 479.9L351.9 479.9L351.9 575.9L399.9 575.9L399.9 527.9L511.9 527.9L511.9 415.9L575.9 415.9L575.9 310L568.9 303L507 241.1C485.5 139.9 395.7 64 288 64zM320 193.2L320 160L256 160L256 193.2C243.3 197.5 231.8 204.2 222 212.9L193.2 196.3L161.2 251.7L190 268.3C188.7 274.7 188.1 281.2 188.1 288C188.1 294.8 188.8 301.3 190 307.7L161.2 324.3L193.2 379.7L222 363.1C231.8 371.8 243.4 378.5 256.1 382.8L256.1 416L320.1 416L320.1 382.8C332.8 378.5 344.3 371.8 354.2 363.1L383 379.7L415 324.3L386.2 307.7C387.5 301.3 388.1 294.8 388.1 288C388.1 281.2 387.4 274.7 386.2 268.3L415 251.7L383 196.3L354.2 212.9C344.4 204.2 332.8 197.5 320.2 193.2zM248 288C248 265.9 265.9 248 288 248C310.1 248 328 265.9 328 288C328 310.1 310.1 328 288 328C265.9 328 248 310.1 248 288z"/></svg>