<svg xmlns="http://www.w3.org/2000/svg" viewBox="0 0 640 640"><!--! Font Awesome Pro 7.2.0 by @fontawesome - https://fontawesome.com License - https://fontawesome.com/license (Commercial License) Copyright 2026 Fonticons, Inc. --><path fill="currentColor" d="M304 112C410 112 496 198 496 304L304.5 304L298.1 318.1L260.9 400L112 400L112 304C112 198 198 112 304 112zM384 484.7L306.3 416.1L335.5 352L384 352L384 484.7zM432 527.1L432 352L576 352L576 304L544 304C544 171.5 436.5 64 304 64C171.5 64 64 171.5 64 304L64 448L269.9 448L272.2 450L408.2 570L415 576L544.1 576L544.1 528L433.2 528L432.1 527.1zM224 176L224 160L192 160L192 240C192 266.5 213.5 288 240 288C266.5 288 288 266.5 288 240L288 160L256 160L256 240C256 248.8 248.8 256 240 256C231.2 256 224 248.8 224 240L224 176zM336 160L320 160L320 288L352 288L352 228.4L383.1 280.2L387.8 288L416.1 288L416.1 160L384.1 160L384.1 219.6L353 167.8L348.3 160L336 160z"/></svg>