<svg xmlns="http://www.w3.org/2000/svg" viewBox="0 0 640 640"><!--! Font Awesome Pro 7.2.0 by @fontawesome - https://fontawesome.com License - https://fontawesome.com/license (Commercial License) Copyright 2026 Fonticons, Inc. --><path fill="currentColor" d="M182.9 560.1L45.5 320.1L182.9 80L458 80L595.4 320.1L458 560.1L182.9 560.1zM100.8 320.1L210.7 512.2L430.2 512.2L540.1 320.1L430.2 128L210.7 128L100.8 320.1zM352.5 192L352.5 256L288.5 256L288.5 192L352.5 192zM232.5 296L432.5 296L432.5 344L208.5 344L208.5 296L232.5 296zM288.5 384L352.5 384L352.5 448L288.5 448L288.5 384z"/></svg>