<svg xmlns="http://www.w3.org/2000/svg" viewBox="0 0 640 640"><!--! Font Awesome Pro 7.2.0 by @fontawesome - https://fontawesome.com License - https://fontawesome.com/license (Commercial License) Copyright 2026 Fonticons, Inc. --><path fill="currentColor" d="M480 64L494.4 78.4L569.6 153.6L584 168L572.1 184.6L367.2 470L360 480L288 480C245 523 221 547 216 552L201 537C175.5 562.5 162.5 575.5 162 576L32.1 576L32.1 526.1L39.1 519.1L111.1 447.1L96.1 432.1C101.1 427.1 125.1 403.1 168.1 360.1L168.1 288.1L178.1 280.9L463.5 76L480.1 64.1zM145 481L98 528L142.1 528L167.1 503L145 480.9zM216 312.7L216 380L209 387L163.9 432.1L216 484.2L261.1 439.1L268.1 432.1L335.4 432.1L351.6 409.6L238.6 296.6L216.1 312.8zM521.2 173.1L474.9 126.8L278 268.1L379.9 370L521.2 173.1z"/></svg>