<svg xmlns="http://www.w3.org/2000/svg" viewBox="0 0 640 640"><!--! Font Awesome Pro 7.2.0 by @fontawesome - https://fontawesome.com License - https://fontawesome.com/license (Commercial License) Copyright 2026 Fonticons, Inc. --><path fill="currentColor" d="M320 128C386.4 128 447.7 139.1 493.2 157.9C515.9 167.3 535.9 179.1 550.5 193.4C565.2 207.8 575.9 226.3 575.9 247.9L575.9 391.9C575.9 413.6 565.2 432 550.5 446.4C535.8 460.7 515.9 472.5 493.2 481.9C447.7 500.7 386.4 511.8 320 511.8C253.6 511.8 192.3 500.9 146.8 482.1C124.1 472.7 104.1 460.9 89.4 446.5C74.7 432.1 64 413.7 64 392L64 248C64 226.3 74.7 207.9 89.4 193.5C104.1 179.1 124.1 167.3 146.8 157.9C192.3 139.1 253.6 128 320 128zM528 320.2C517.5 326.9 505.8 332.9 493.2 338.1C447.7 356.9 386.4 368 320 368C253.6 368 192.3 356.9 146.8 338.1C134.2 332.9 122.5 326.9 112 320.2L112 392C112 396.8 114.3 403.7 123 412.2C131.8 420.8 145.9 429.7 165.1 437.7C203.5 453.6 258.3 464 320 464C381.7 464 436.5 453.6 474.9 437.7C494.2 429.7 508.2 420.8 517 412.2C525.7 403.6 528 396.8 528 392L528 320.2zM320 176C258.3 176 203.5 186.4 165.1 202.3C145.8 210.3 131.8 219.2 123 227.8C114.3 236.4 112 243.2 112 248C112 252.8 114.3 259.7 123 268.2C131.8 276.8 145.9 285.7 165.1 293.7C203.5 309.6 258.3 320 320 320C381.7 320 436.5 309.6 474.9 293.7C494.2 285.7 508.2 276.8 517 268.2C525.7 259.6 528 252.8 528 248C528 243.2 525.7 236.3 517 227.8C508.2 219.2 494.1 210.3 474.9 202.3C436.5 186.4 381.7 176 320 176z"/></svg>