<svg xmlns="http://www.w3.org/2000/svg" viewBox="0 0 640 640"><!--! Font Awesome Pro 7.2.0 by @fontawesome - https://fontawesome.com License - https://fontawesome.com/license (Commercial License) Copyright 2026 Fonticons, Inc. --><path fill="currentColor" d="M112 320C112 205.1 205.1 112 320 112C434.9 112 528 205.1 528 320L528 416L496 416L496 464L514.3 464L523.4 528L512 528L512 576L592 576L592 528L580.6 528L589.7 464L608 464L608 416L576 416L576 320C576 178.6 461.4 64 320 64C178.6 64 64 178.6 64 320C64 461.4 178.6 576 320 576C374.4 576 424.8 559 466.3 530.1L438.8 490.7C405.2 514.2 364.2 528 320 528C205.1 528 112 434.9 112 320zM208 320C208 258.1 258.1 208 320 208C381.9 208 432 258.1 432 320C432 381.9 381.9 432 320 432C258.1 432 208 381.9 208 320zM480 320C480 231.6 408.4 160 320 160C231.6 160 160 231.6 160 320C160 408.4 231.6 480 320 480C408.4 480 480 408.4 480 320zM320 384C355.3 384 384 355.3 384 320C384 284.7 355.3 256 320 256C284.7 256 256 284.7 256 320C256 355.3 284.7 384 320 384z"/></svg>