<svg xmlns="http://www.w3.org/2000/svg" viewBox="0 0 640 640"><!--! Font Awesome Pro 7.2.0 by @fontawesome - https://fontawesome.com License - https://fontawesome.com/license (Commercial License) Copyright 2026 Fonticons, Inc. --><path fill="currentColor" d="M336 104C336 117.6 341.8 130.5 351.8 139.6L378.3 163.4C402.3 185 416 215.7 416 248L416 272L368 272L368 248C368 229.3 360.1 211.6 346.2 199.1L319.7 175.3C299.5 157.1 288 131.2 288 104L288 80L336 80L336 104zM144 256L224 256L352 336L544 336L544 576L96 576L96 256L144 256zM352 384L344 384L344 528L392 528L392 384L352 384zM440 384L440 528L496 528L496 384L440 384zM210.2 304L144 304L144 336L261.4 336L210.2 304zM144 400L144 528L200 528L200 384L144 384L144 400zM248 528L296 528L296 384L248 384L248 528zM448 80L448 104C448 117.6 453.8 130.5 463.8 139.6L490.3 163.4C514.3 185 528 215.7 528 248L528 272L480 272L480 248C480 229.3 472.1 211.6 458.2 199.1L431.7 175.3C411.5 157.1 400 131.2 400 104L400 80L448 80zM160 104C190.9 104 216 129.1 216 160C216 190.9 190.9 216 160 216C129.1 216 104 190.9 104 160C104 129.1 129.1 104 160 104z"/></svg>