<svg xmlns="http://www.w3.org/2000/svg" viewBox="0 0 640 640"><!--! Font Awesome Pro 7.2.0 by @fontawesome - https://fontawesome.com License - https://fontawesome.com/license (Commercial License) Copyright 2026 Fonticons, Inc. --><path fill="currentColor" d="M152 64L128 64L128 112L160 112L160 193.9L167 200.9L286 319.9L167 438.9L160 445.9L160 527.8L128 527.8L128 575.8L512 575.8L512 527.8L480 527.8L480 445.9L473 438.9L354 319.9L473 200.9L480 193.9L480 112L512 112L512 64L152 64zM432 112L432 174.1L320 286.1L208 174.1L208 112L432 112zM320 353.9L432 465.9L432 528L208 528L208 465.9L320 353.9z"/></svg>