<svg xmlns="http://www.w3.org/2000/svg" viewBox="0 0 640 640"><!--! Font Awesome Pro 7.2.0 by @fontawesome - https://fontawesome.com License - https://fontawesome.com/license (Commercial License) Copyright 2026 Fonticons, Inc. --><path fill="currentColor" d="M0 320C0 160.9 128.9 32 288 32L288 80C155.5 80 48 187.5 48 320C48 452.5 155.5 560 288 560L292.7 560L433.5 520.9L441.3 518.7L448.8 521.7L560.6 566.4C589.9 556.6 610.7 549.7 623 545.6L638.2 591.1C627.2 594.8 603.6 602.6 567.4 614.7L559.1 617.5L550.9 614.2L438.4 569.2L302.2 607L299 607.9L287.7 607.9C128.9 608 0 479.1 0 320zM288 128L288 176C208.5 176 144 240.5 144 320C144 399.5 208.5 464 288 464L292.7 464L433.5 424.9L441.3 422.7L448.8 425.7L560.6 470.4C589.8 460.7 610.7 453.7 623 449.6L638.2 495.1C627.2 498.8 603.6 506.6 567.4 518.7L559.1 521.5L550.9 518.2L438.4 473.2L302.2 511L299 511.9L287.7 511.9C182 512 96 426 96 320C96 214 182 128 288 128zM368 386.7L320 405L320 256L448 160L575.4 256L575.8 400L575.8 406.3L558.2 411.9L526.9 400L527.8 400L527.5 280L448 220.1L368.1 280.1L368.1 386.8z"/></svg>