<svg xmlns="http://www.w3.org/2000/svg" viewBox="0 0 640 640"><!--! Font Awesome Pro 7.2.0 by @fontawesome - https://fontawesome.com License - https://fontawesome.com/license (Commercial License) Copyright 2026 Fonticons, Inc. --><path fill="currentColor" d="M304 69.6L288 55.2L272 69.6L40 277.6L22.1 293.6L54.1 329.3C67.7 317.1 76.3 309.4 79.9 306.1L79.9 575.4L367.9 575.4L367.9 351.4L191.9 351.4L191.9 527.4L127.9 527.4L127.9 263.1L287.9 119.6L447.9 263L447.9 267.9C462.3 256.3 479.3 247.8 497.9 243.4L304 69.6zM336 527.5L240 527.5L240 399.5L336 399.5L336 527.5zM528 336C545.7 336 560 350.3 560 368L608 368C608 323.8 572.2 288 528 288C483.8 288 448 323.8 448 368L448 416L416 416L416 608L640 608L640 416L496 416L496 368C496 350.3 510.3 336 528 336z"/></svg>