<svg xmlns="http://www.w3.org/2000/svg" viewBox="0 0 640 640"><!--! Font Awesome Pro 7.2.0 by @fontawesome - https://fontawesome.com License - https://fontawesome.com/license (Commercial License) Copyright 2026 Fonticons, Inc. --><path fill="currentColor" d="M.5 176C.5 96.5 65 32 144.5 32C224 32 288.5 96.5 288.5 176C288.5 255.5 224 320 144.5 320C65 320 .5 255.5 .5 176zM152.5 97.4L129.9 120C134.5 124.6 147.9 138 169.9 160L64.5 160L64.5 192L169.9 192C147.9 214 134.5 227.4 129.9 232L152.5 254.6L163.8 243.3L219.8 187.3L231.1 176L219.8 164.7L163.8 108.7L152.5 97.4zM336 189.8C336.3 185.2 336.5 180.6 336.5 176C336.5 160.3 334.6 145.1 331.1 130.5C386.5 82.3 415 57.5 416.5 56.2L432.2 69.9L616.2 229.9L592.5 257.2L592.5 401.6C590.7 402.2 580.8 405.5 562.8 411.5L544.5 404.2L544.5 231.1L416.5 119.8L336 189.8zM288.5 303L288.5 304L287.6 304L288.5 303zM464.5 336L368.5 336L368.5 240L464.5 240L464.5 336zM209.4 417.7L320.5 462.1L431.6 417.7L440.5 414.1L449.4 417.7L561.2 462.4C590.5 452.7 611.3 445.7 623.6 441.6L638.8 487.1L568 510.7L559.7 513.5L551.5 510.2L440.4 465.8L329.3 510.2L320.4 513.8L311.5 510.2L200.4 465.8L89.3 510.2L81.1 513.5L72.8 510.7C36.6 498.6 13 490.8 2 487.1L17.2 441.6C29.6 445.7 50.4 452.7 79.6 462.4L191.4 417.7L200.3 414.1L209.2 417.7zM200.5 510.1L209.4 513.7L320.5 558.1L431.6 513.7L440.5 510.1L449.4 513.7L561.2 558.4C590.5 548.6 611.3 541.7 623.6 537.6L638.8 583.1L568 606.7L559.7 609.5L551.5 606.2L440.4 561.8L329.3 606.2L320.4 609.8L311.5 606.2L200.4 561.8L89.3 606.2L81.1 609.5L72.8 606.7C36.6 594.6 13 586.8 2 583.1L17.2 537.6C29.6 541.7 50.4 548.7 79.6 558.4L191.4 513.7L200.3 510.1z"/></svg>