<svg xmlns="http://www.w3.org/2000/svg" viewBox="0 0 640 640"><!--! Font Awesome Pro 7.2.0 by @fontawesome - https://fontawesome.com License - https://fontawesome.com/license (Commercial License) Copyright 2026 Fonticons, Inc. --><path fill="currentColor" d="M416.3 144C447.2 144 472.3 118.9 472.3 88C472.3 57.1 447.2 32 416.3 32C385.4 32 360.3 57.1 360.3 88C360.3 118.9 385.4 144 416.3 144zM482.2 176L373.6 176L366.4 183.9L301.6 256L224.3 256L224.3 304L323 304C323.9 303 336.4 289.1 360.3 262.5L360.3 413.8L315 444L306.1 450L304.6 460.6C291.8 550 285.4 595.2 285.2 596.4L332.7 603.2C333.1 600.3 339.1 558.6 350.6 478.1L457.2 407.1C481.7 390.8 496.4 363.3 496.4 333.9L496.4 258.1L528.4 290.1L528.4 384.2L576.4 384.2L576.4 270.3L569.4 263.3L489.4 183.3L482.4 176.3zM448.3 224L448.3 333.7C448.3 347.1 441.6 359.6 430.5 367L408.3 381.8L408.3 224L448.3 224zM485.7 483.4L476.6 451.6L434.7 479.6C439.9 497.7 442.6 507.4 443 508.5L447.4 512.9L527.4 592.9L535.4 600.9L569.3 567L561.3 559L485.7 483.4zM192.5 64.2L176.6 77.7L20.8 210.1L2.5 225.6L33.6 262.2L48.3 249.7L48.3 416L270.5 416C281.4 408.7 295.3 399.4 312.3 388.1L312.3 352L272.3 352L272.3 368L96.3 368L96.3 208.9L191.7 127.8L281 207.1L313.1 171.4L208 78L192.4 64.1z"/></svg>