<svg xmlns="http://www.w3.org/2000/svg" viewBox="0 0 640 640"><!--! Font Awesome Pro 7.2.0 by @fontawesome - https://fontawesome.com License - https://fontawesome.com/license (Commercial License) Copyright 2026 Fonticons, Inc. --><path fill="currentColor" d="M576.4 58.7L576.4 240C576.4 266.5 547.7 288 512.4 288C477.1 288 448.4 266.5 448.4 240C448.4 213.5 477.1 192 512.4 192C517.9 192 523.3 192.5 528.4 193.5L528.4 117.3L416.4 139.7L416.4 272C416.4 298.5 387.7 320 352.4 320C317.1 320 288.4 298.5 288.4 272C288.4 245.5 317.1 224 352.4 224C357.9 224 363.3 224.5 368.4 225.5L368.4 100.3L387.7 96.4L547.7 64.4L576.4 58.7zM88.4 64L256.4 64L256.4 112L64.4 112L64.4 64L88.4 64zM88.4 160L256.4 160L256.4 208L184.4 208L184.4 288L136.4 288L136.4 208L64.4 208L64.4 160L88.4 160zM586.4 376L569.4 393L393.4 569L376.4 586L342.5 552.1L359.5 535.1L535.5 359.1L552.5 342.1L586.4 376zM384.5 368C402.2 368 416.5 382.3 416.5 400C416.5 417.7 402.2 432 384.5 432C366.8 432 352.5 417.7 352.5 400C352.5 382.3 366.8 368 384.5 368zM512.5 528C512.5 510.3 526.8 496 544.5 496C562.2 496 576.5 510.3 576.5 528C576.5 545.7 562.2 560 544.5 560C526.8 560 512.5 545.7 512.5 528zM143.6 320L146.3 320C180.6 320 208.4 347.8 208.4 382.1C208.4 400.5 200.2 418 186 429.8L177.8 436.6L210.6 467.7C238.4 439.9 256.4 421.9 264.4 413.9L298.4 448C290.2 456.2 272.6 473.8 245.5 500.9C272.2 526.2 289.8 543 298.4 551.1L265.3 585.9C256.9 577.9 238.9 560.9 211.5 534.8L192.3 554C178.3 568.1 159.2 575.9 139.3 575.9L137.4 575.9C97.1 575.9 64.4 543.2 64.4 502.9C64.4 481.2 74 460.7 90.7 446.8L105.7 434.3L100.1 428.9C87.5 417 80.4 400.4 80.4 383.1C80.4 348.2 108.7 319.9 143.6 319.9zM155.3 393C158.5 390.3 160.4 386.3 160.4 382.1C160.4 374.3 154.1 368 146.3 368L143.6 368C135.2 368 128.4 374.8 128.4 383.2C128.4 387.4 130.1 391.3 133.1 394.2L142.8 403.4L155.3 393zM121.5 483.7C115.8 488.5 112.5 495.5 112.5 502.9C112.5 516.7 123.7 527.9 137.5 527.9L139.4 527.9C146.5 527.9 153.4 525.1 158.4 520L176.7 501.7L140.8 467.6L121.5 483.7z"/></svg>