<svg xmlns="http://www.w3.org/2000/svg" viewBox="0 0 640 640"><!--! Font Awesome Pro 7.2.0 by @fontawesome - https://fontawesome.com License - https://fontawesome.com/license (Commercial License) Copyright 2026 Fonticons, Inc. --><path fill="currentColor" d="M81.3 47.1L64.3 30.1L30.4 64L47.4 81L559.4 593L576.4 610L610.3 576.1C604.4 570.2 582.3 548.1 544.2 510L544.2 96L130.2 96L81.3 47.1zM178.2 144L496.2 144L496.2 462L432.6 398.4L352.2 272L334.3 300.1L178.2 144zM394.3 496L144.1 496L144.1 245.8L96.1 197.8L96.1 544L442.3 544L394.3 496zM176.1 448L346.3 448L241.6 343.3L176.1 448z"/></svg>