<svg xmlns="http://www.w3.org/2000/svg" viewBox="0 0 640 640"><!--! Font Awesome Pro 7.2.0 by @fontawesome - https://fontawesome.com License - https://fontawesome.com/license (Commercial License) Copyright 2026 Fonticons, Inc. --><path fill="currentColor" d="M496 144L496 496L144 496L144 144L496 144zM144 96L96 96L96 544L544 544L544 96L144 96zM256 224C256 206.3 241.7 192 224 192C206.3 192 192 206.3 192 224C192 241.7 206.3 256 224 256C241.7 256 256 241.7 256 224zM352 272L288.4 371.9L256 320L176 448L464 448L352 272z"/></svg>