<svg xmlns="http://www.w3.org/2000/svg" viewBox="0 0 640 640"><!--! Font Awesome Pro 7.2.0 by @fontawesome - https://fontawesome.com License - https://fontawesome.com/license (Commercial License) Copyright 2026 Fonticons, Inc. --><path fill="currentColor" d="M224 144L224 240C290.7 209.7 397.3 161.2 400 160L400 240C466.7 209.7 573.3 161.2 576 160L576 544L64 544L64 96L224 96L224 144zM243.9 283.7L176 314.5L176 144L112 144L112 496L528 496L528 234.5C449.2 270.3 390.5 297 352 314.5L352 234.5L243.9 283.7zM224 384L224 448L160 448L160 384L224 384zM352 384L352 448L288 448L288 384L352 384zM416 448L416 384L480 384L480 448L416 448z"/></svg>