<svg xmlns="http://www.w3.org/2000/svg" viewBox="0 0 640 640"><!--! Font Awesome Pro 7.2.0 by @fontawesome - https://fontawesome.com License - https://fontawesome.com/license (Commercial License) Copyright 2026 Fonticons, Inc. --><path fill="currentColor" d="M560 176L560 464L80 464L80 176L560 176zM80 128L32 128L32 512L608 512L608 128L80 128zM128 288L128 416L176 416L176 368L208 368L208 416L256 416L256 288C256 252.7 227.3 224 192 224C156.7 224 128 252.7 128 288zM208 320L176 320L176 288C176 279.2 183.2 272 192 272C200.8 272 208 279.2 208 288L208 320zM304 224L304 416L380 416C413.1 416 440 389.1 440 356C440 340 433.7 325.5 423.5 314.7C428.9 305.7 432 295.2 432 284C432 250.9 405.1 224 372 224L304 224zM384 284C384 290.6 378.6 296 372 296L352 296L352 272L372 272C378.6 272 384 277.4 384 284zM352 368L352 344L380 344C386.6 344 392 349.4 392 356C392 362.6 386.6 368 380 368L352 368z"/></svg>