<svg xmlns="http://www.w3.org/2000/svg" viewBox="0 0 640 640"><!--! Font Awesome Pro 7.2.0 by @fontawesome - https://fontawesome.com License - https://fontawesome.com/license (Commercial License) Copyright 2026 Fonticons, Inc. --><path fill="currentColor" d="M224 127.6L225.2 131.5L249.8 215.6L424.6 390.4L508.8 415L512.7 416.2L638.9 542.4L542.7 638.6L416.5 512.4L415.3 508.5L390.7 424.4L215.8 249.5L131.8 225L127.9 223.8L1.7 97.6L97.9 1.4L224.1 127.6zM190.4 292.1L204.9 306.6C144.1 387.5 122.7 468.1 115.6 524.6C172.2 517.5 252.8 496 333.6 435.3L348 449.7L356.3 478.2C236.8 565.4 118.2 576 64.1 576C64.1 521.9 74.7 403.4 162 283.8L190.4 292.1zM458.9 487.1L542.5 570.7L570.8 542.4L487.2 458.8L447.1 447.1L458.8 487.2zM314.1 415.8C289 435.3 252.7 433.6 229.7 410.5C206.6 387.4 204.9 351.1 224.4 326L314.1 415.7zM576.1 64C576.1 118.1 565.5 236.6 478.3 356.2L449.8 347.9L435.4 333.5C496.2 252.6 517.6 172 524.8 115.4C468.2 122.5 387.6 144 306.7 204.8L292.2 190.3L283.9 161.9C403.5 74.6 522.1 64 576.1 64zM326.1 224.2C351.2 204.6 387.5 206.4 410.6 229.5C433.7 252.6 435.4 288.9 415.8 314L326 224.2zM69.4 97.6L153 181.2L193 192.9L181.3 152.8L97.7 69.2L69.4 97.5z"/></svg>