<svg xmlns="http://www.w3.org/2000/svg" viewBox="0 0 640 640"><!--! Font Awesome Pro 7.2.0 by @fontawesome - https://fontawesome.com License - https://fontawesome.com/license (Commercial License) Copyright 2026 Fonticons, Inc. --><path fill="currentColor" d="M480 232.9L440.5 298.6C484.1 333.8 512 387.6 512 448C512 497.2 493.5 542 463.1 576L176.9 576C146.5 542 128 497.2 128 448C128 387.6 155.9 333.8 199.4 298.6L160 232.9L160 64L480 64L480 232.9zM320 304C240.5 304 176 368.5 176 448C176 477.6 184.9 505.1 200.3 528L439.7 528C455.1 505.1 464 477.6 464 448C464 368.5 399.5 304 320 304zM208 219.6L240.2 273.4C264.5 262.3 291.5 256.1 320 256.1C348.4 256.1 375.4 262.3 399.7 273.4L432 219.6L432 112L208 112L208 219.6z"/></svg>