<svg xmlns="http://www.w3.org/2000/svg" viewBox="0 0 640 640"><!--! Font Awesome Pro 7.2.0 by @fontawesome - https://fontawesome.com License - https://fontawesome.com/license (Commercial License) Copyright 2026 Fonticons, Inc. --><path fill="currentColor" d="M80 176L80 464L560 464L560 176L80 176zM32 128L608 128L608 512L32 512L32 128zM448 384L448 432L192 432L192 384L448 384zM136 296L184 296L184 344L136 344L136 296zM184 216L184 264L136 264L136 216L184 216zM216 296L264 296L264 344L216 344L216 296zM264 216L264 264L216 264L216 216L264 216zM296 296L344 296L344 344L296 344L296 296zM344 216L344 264L296 264L296 216L344 216zM376 296L424 296L424 344L376 344L376 296zM424 216L424 264L376 264L376 216L424 216zM456 296L504 296L504 344L456 344L456 296zM504 216L504 264L456 264L456 216L504 216z"/></svg>