<svg xmlns="http://www.w3.org/2000/svg" viewBox="0 0 640 640"><!--! Font Awesome Pro 7.2.0 by @fontawesome - https://fontawesome.com License - https://fontawesome.com/license (Commercial License) Copyright 2026 Fonticons, Inc. --><path fill="currentColor" d="M256 112L320 64L384 112C384 112 377.4 122.6 369.5 139.5C406.5 157.8 432 195.9 432 240C432 284.1 406.5 322.2 369.5 340.5C377.4 357.4 384 368 384 368L336 404L336 426.6L370.5 402.9L370.6 402.8C427.8 363.5 480 320 480 244.6C480 221.6 476.5 195.8 471 172.4C465.1 147.5 456.9 125.3 448 112C448 112 476.4 124.1 506.4 149.6C540.1 178.2 576 223.8 576 288C576 384 464 480 464 480L380.6 434.7L348.2 457L394.3 488.7C396.1 488.3 398 488 400 488C413.3 488 424 498.7 424 512C424 525.3 413.3 536 400 536C387.8 536 377.7 526.9 376.2 515L336 487.4L336 516.3C345.6 521.8 352 532.2 352 544C352 561.7 337.7 576 320 576C302.3 576 288 561.7 288 544C288 532.2 294.4 521.8 304 516.3L304 487.4L263.8 515C262.3 526.8 252.2 536 240 536C226.7 536 216 525.3 216 512C216 498.7 226.7 488 240 488C242 488 243.9 488.2 245.7 488.7L291.8 457L259.4 434.7L176 480C176 480 64 384 64 288C64 223.8 99.8 178.2 133.6 149.6C163.6 124.1 192 112 192 112C183.1 125.4 174.9 147.6 169 172.4C163.5 195.8 160 221.5 160 244.6C160 320 212.2 363.5 269.4 402.8L269.5 402.9L304 426.6L304 404L256 368C256 368 262.6 357.4 270.5 340.5C233.5 322.2 208 284.1 208 240C208 195.9 233.5 157.8 270.5 139.5C262.6 122.6 256 112 256 112zM256 240C256 263.5 268.7 284.1 287.6 295.2C292.5 277.9 296 259 296 240C296 221 292.5 202.1 287.6 184.8C268.7 195.9 256 216.5 256 240zM344 240C344 258.9 347.5 277.9 352.4 295.2C371.3 284.1 384 263.5 384 240C384 216.5 371.3 195.9 352.4 184.8C347.5 202.1 344 221 344 240zM104 288C104 322.1 124.8 361 151.6 395.4C162.6 409.5 173.6 421.6 182.6 430.9L215.4 413.1C167.1 375.8 120 325 120 244.6C120 238.4 120.2 232.1 120.6 225.7C110.5 243.5 104 264.2 104 288zM536 288C536 264.2 529.5 243.5 519.4 225.7C519.8 232.1 520 238.4 520 244.6C520 325 472.9 375.8 424.6 413.1L457.4 430.9C466.4 421.6 477.4 409.5 488.4 395.4C515.2 361 536 322 536 288z"/></svg>