<svg xmlns="http://www.w3.org/2000/svg" viewBox="0 0 640 640"><!--! Font Awesome Pro 7.2.0 by @fontawesome - https://fontawesome.com License - https://fontawesome.com/license (Commercial License) Copyright 2026 Fonticons, Inc. --><path fill="currentColor" d="M345.7 368L331.4 384C305 413.5 266.7 432 224.1 432C144.6 432 80.1 367.5 80.1 288C80.1 208.5 144.5 144 224 144C266.6 144 304.9 162.5 331.3 192L345.6 208L479.9 208C524.1 208 559.9 243.8 559.9 288L559.9 368L345.6 368zM367.1 160C332 120.7 280.9 96 224 96C118 96 32 182 32 288C32 359.1 70.6 421.1 128 454.3L128 544L176 544L176 474C191.3 477.9 207.4 480 224 480C229.4 480 234.7 479.8 240 479.3L240 544L288 544L288 469.1C318.7 458.2 345.8 439.8 367.1 416L496 416L608 544L608 288C608 217.3 550.7 160 480 160L367.1 160zM504 288C504 274.7 493.3 264 480 264C466.7 264 456 274.7 456 288C456 301.3 466.7 312 480 312C493.3 312 504 301.3 504 288z"/></svg>