<svg xmlns="http://www.w3.org/2000/svg" viewBox="0 0 640 640"><!--! Font Awesome Pro 7.2.0 by @fontawesome - https://fontawesome.com License - https://fontawesome.com/license (Commercial License) Copyright 2026 Fonticons, Inc. --><path fill="currentColor" d="M320 120.6L485.4 224L154.6 224L320 120.6zM320 64L64 224L64 272L128 272L128 432L96 432L96 480L544 480L544 432L512 432L512 272L576 272L576 224L320 64zM464 272L464 432L400 432L400 272L464 272zM352 272L352 432L288 432L288 272L352 272zM240 272L240 432L176 432L176 272L240 272zM64 528L64 576L576 576L576 528L64 528z"/></svg>