<svg xmlns="http://www.w3.org/2000/svg" viewBox="0 0 640 640"><!--! Font Awesome Pro 7.2.0 by @fontawesome - https://fontawesome.com License - https://fontawesome.com/license (Commercial License) Copyright 2026 Fonticons, Inc. --><path fill="currentColor" d="M120 64L96 64L96 288L32 288L32 368L80 416L272 416L272 368L99.9 368L80 348.1L80 336L272 336L272 288L144 288L144 112L464 112L464 176L512 176L512 64L120 64zM528 352L528 528L368 528L368 272L448 272L448 352L528 352zM480 224L320 224L320 576L576 576L576 320L480 224z"/></svg>