<svg xmlns="http://www.w3.org/2000/svg" viewBox="0 0 640 640"><!--! Font Awesome Pro 7.2.0 by @fontawesome - https://fontawesome.com License - https://fontawesome.com/license (Commercial License) Copyright 2026 Fonticons, Inc. --><path fill="currentColor" d="M529.9 78.7L529.9 78.8L529.9 78.8C529.9 78.8 530 78.9 530.1 78.9L576.1 88.1L576.1 275C576 406.1 467.9 512 337.2 512C255.7 512 186 456.4 165.8 380.8C132.7 411.5 112 455.3 112 504L112 544L64 544L64 504C64 428.9 102.4 362.9 160.4 324.2C166.5 232.5 242.8 160 336 160C419.3 160 468.2 137.4 495.6 116.8C509.5 106.4 518.3 96.2 523.5 88.9C526.1 85.3 527.8 82.4 528.8 80.6C529.3 79.7 529.6 79 529.8 78.7L529.9 78.5C529.9 78.5 529.9 78.6 529.9 78.6zM524.4 155.2C487.8 182.6 428.6 208 336 208C265.3 208 208 265.3 208 336C208 406.4 266.3 464 337.2 464C441.9 464 528 379.1 528 274.9L528 152.3C526.8 153.2 525.6 154.2 524.4 155.1zM322.9 256C336.4 256 349.4 261.4 358.9 270.9L368 280L377.1 270.9C386.6 261.4 399.6 256 413.1 256L416 256C442.5 256 464 277.5 464 304C464 367.8 368.5 415.7 368 416C367.7 415.8 272 367.9 272 304C272 277.5 293.5 256 320 256L322.9 256z"/></svg>