<svg xmlns="http://www.w3.org/2000/svg" viewBox="0 0 640 640"><!--! Font Awesome Pro 7.2.0 by @fontawesome - https://fontawesome.com License - https://fontawesome.com/license (Commercial License) Copyright 2026 Fonticons, Inc. --><path fill="currentColor" d="M64 192L64 128L128 128L128 192L64 192zM64 298.7L64 234.7L128 234.7L128 298.7L64 298.7zM64 341.4L128 341.4L128 405.4L64 405.4L64 341.4zM64 512L64 448L128 448L128 512L64 512zM384 512C364 493.1 308 440.1 216 353L181.1 320C190.2 311.4 241.8 262.5 336 173.4L384 128L384 240L448 240L448 240L576 240L576 400L384 400L384 512zM448 352L528 352L528 288L448 288L448 288L336 288L336 239.5L251 320L336 400.5L336 352L448 352z"/></svg>