<svg xmlns="http://www.w3.org/2000/svg" viewBox="0 0 640 640"><!--! Font Awesome Pro 7.2.0 by @fontawesome - https://fontawesome.com License - https://fontawesome.com/license (Commercial License) Copyright 2026 Fonticons, Inc. --><path fill="currentColor" d="M256.4 512C236.4 493.1 180.4 440.1 88.4 353L53.5 320C62.6 311.4 114.2 262.5 208.4 173.4L256.4 128L256.4 240L320.4 240L320.4 240L448.4 240L448.4 400L256.4 400L256.4 512zM320.4 352L400.4 352L400.4 288L320.4 288L320.4 288L208.4 288L208.4 239.5L123.4 320L208.4 400.5L208.4 352L320.4 352zM528.4 128L576.4 128L576.4 512L528.4 512L528.4 128z"/></svg>