<svg xmlns="http://www.w3.org/2000/svg" viewBox="0 0 640 640"><!--! Font Awesome Pro 7.2.0 by @fontawesome - https://fontawesome.com License - https://fontawesome.com/license (Commercial License) Copyright 2026 Fonticons, Inc. --><path fill="currentColor" d="M576 512L64 512L64 464L576 464L576 512zM320 96C417.2 96 496 174.8 496 272C496 288.6 493.6 304.7 489.3 320L576 320L576 368L432 368L432 334.1L432.8 332.7C442.5 314.7 448 294.1 448 272.1C448 201.4 390.7 144.1 320 144.1C249.3 144.1 192 201.3 192 272C192 294 197.5 314.6 207.2 332.6L208 334L208 367.9L64 367.9L64 319.9L150.7 319.9C146.4 304.6 144 288.5 144 271.9C144 174.7 222.8 95.9 320 95.9z"/></svg>