<svg xmlns="http://www.w3.org/2000/svg" viewBox="0 0 640 640"><!--! Font Awesome Pro 7.2.0 by @fontawesome - https://fontawesome.com License - https://fontawesome.com/license (Commercial License) Copyright 2026 Fonticons, Inc. --><path fill="currentColor" d="M263.3 120C211.1 120 161.6 143.4 128.6 183.8L29.6 304.8L17.4 319.7L29.2 334.8L105.9 432.9C152.9 493 224.9 528.1 301.2 528.1L338.9 528.1C415.2 528.1 487.2 493 534.2 432.9L610.9 334.8L622.7 319.7L610.5 304.8L511.5 183.8C478.8 143.4 429.3 120 377.1 120L368.3 120L361.6 125.7L320.2 160.6L278.8 125.7L272.1 120L263.3 120zM165.7 214.2C187.9 187.1 220.2 170.6 254.8 168.2C293.8 201.1 315.5 219.4 320.1 223.3C324.7 219.4 346.5 201.1 385.4 168.2C420.1 170.5 452.4 187.1 474.5 214.2L561.3 320.3L496.4 403.2C458.5 451.6 400.4 479.9 338.9 479.9L301.2 479.9C239.7 479.9 181.6 451.6 143.7 403.2L79 320.3L165.8 214.2zM231.7 233.2L217.6 228.5L207.1 239C157.2 288.9 129 317.1 122.4 323.7C134.8 331.9 158.8 347.9 194.4 371.7C229.9 395.4 271.6 408 314.2 408L325.9 408C368.5 408 410.2 395.4 445.7 371.7C481.3 347.9 505.3 331.9 517.7 323.7C511.1 317.1 482.9 288.9 433 239L422.5 228.5L408.4 233.2L320 262.7L231.6 233.2zM197.8 316.2L230.6 283.4L312.5 310.7L320.1 313.2L327.7 310.7L409.6 283.4L442.4 316.2L419.1 331.7C391.5 350.1 359.1 359.9 325.9 359.9L314.2 359.9C281 359.9 248.6 350.1 221 331.7L197.7 316.2z"/></svg>