<svg xmlns="http://www.w3.org/2000/svg" viewBox="0 0 640 640"><!--! Font Awesome Pro 7.2.0 by @fontawesome - https://fontawesome.com License - https://fontawesome.com/license (Commercial License) Copyright 2026 Fonticons, Inc. --><path fill="currentColor" d="M344 88L344 64L296 64L296 192L344 192L344 88zM344 472L344 448L296 448L296 576L344 576L344 472zM64 296L64 344L192 344L192 296L64 296zM472 296L448 296L448 344L576 344L576 296L472 296zM518 156L484 122C479.3 126.7 454.8 151.2 410.5 195.5L393.5 212.5L427.4 246.4C432.1 241.7 456.6 217.2 500.9 172.9L517.9 155.9zM229.5 444.4L246.5 427.4L212.6 393.5C207.9 398.2 183.4 422.7 139.1 467L122 484L156 518C160.7 513.3 185.2 488.8 229.5 444.5zM156 122L122 156C126.7 160.7 151.2 185.2 195.5 229.5L212.5 246.5L246.4 212.6L172.9 139.1L155.9 122.1zM444.5 410.5L427.5 393.5L393.6 427.4C398.3 432.1 422.8 456.6 467.1 500.9L484 518L518 484C513.3 479.3 488.8 454.8 444.5 410.5z"/></svg>