<svg xmlns="http://www.w3.org/2000/svg" viewBox="0 0 640 640"><!--! Font Awesome Pro 7.2.0 by @fontawesome - https://fontawesome.com License - https://fontawesome.com/license (Commercial License) Copyright 2026 Fonticons, Inc. --><path fill="currentColor" d="M344 48L344 97.3C448.5 108.4 531.6 191.5 542.7 296L592 296L592 344L542.7 344C531.6 448.5 448.5 531.6 344 542.7L344 592L296 592L296 542.7C191.5 531.6 108.4 448.5 97.3 344L48 344L48 296L97.3 296C108.4 191.5 191.5 108.4 296 97.3L296 48L344 48zM496 320C496 222.8 417.2 144 320 144C222.8 144 144 222.8 144 320C144 417.2 222.8 496 320 496C417.2 496 496 417.2 496 320zM384 320C384 284.7 355.3 256 320 256C284.7 256 256 284.7 256 320C256 355.3 284.7 384 320 384C355.3 384 384 355.3 384 320zM208 320C208 258.1 258.1 208 320 208C381.9 208 432 258.1 432 320C432 381.9 381.9 432 320 432C258.1 432 208 381.9 208 320z"/></svg>