<svg xmlns="http://www.w3.org/2000/svg" viewBox="0 0 640 640"><!--! Font Awesome Pro 7.2.0 by @fontawesome - https://fontawesome.com License - https://fontawesome.com/license (Commercial License) Copyright 2026 Fonticons, Inc. --><path fill="currentColor" d="M81.3 47.1L64.3 30.1L30.4 64L47.4 81L559.4 593L576.4 610L610.3 576.1L593.3 559.1L454.8 420.6C486.9 366.8 512.1 307.2 512.1 252.6C512.1 148.5 426.1 64 320.1 64C259.1 64 204.8 91.9 169.6 135.5L81.3 47.1zM203.9 169.7C230 134.9 272.1 112 320.2 112C400.5 112 464.2 175.7 464.2 252.6C464.2 280.7 455.1 313.6 438.6 349.1C432.9 361.3 426.6 373.5 419.7 385.5L359.7 325.5C383.8 311.7 400.1 285.7 400.1 256C400.1 211.8 364.3 176 320.1 176C290.3 176 264.3 192.3 250.6 216.4L203.9 169.7zM322.1 287.9L288.2 254C289.2 237.3 303.1 224 320.1 224C337.8 224 352.1 238.3 352.1 256C352.1 273 338.8 286.9 322.1 287.9zM365.2 466.8C349 488 333.3 506.7 320.1 521.6C303.7 503 283.3 478.5 262.9 450.5C240 419.1 217.9 384.1 201.6 349C190.3 324.7 182.5 301.6 178.7 280.4L129.4 231.1C128.6 238.2 128.2 245.3 128.2 252.6C128.2 363.8 232.5 495.4 287.3 557C297.5 568.5 306 577.5 311.8 583.5C317.1 589 320.2 592 320.2 592C320.2 592 323.2 589 328.6 583.5C334.4 577.5 342.9 568.5 353.1 557C366.4 542.1 382.6 523 399.5 501.1L365.3 466.9z"/></svg>