<svg xmlns="http://www.w3.org/2000/svg" viewBox="0 0 640 640"><!--! Font Awesome Pro 7.2.0 by @fontawesome - https://fontawesome.com License - https://fontawesome.com/license (Commercial License) Copyright 2026 Fonticons, Inc. --><path fill="currentColor" d="M81.3 47.1L64.3 30.1L30.4 64L47.4 81L559.4 593L576.4 610L610.3 576.1L494.7 460.5C520.9 427.9 538.3 387.9 542.9 344L592.2 344L592.2 296L542.9 296C531.7 191.5 448.7 108.4 344.1 97.3L344.1 48L296.1 48L296.1 97.3C252.3 102 212.2 119.3 179.6 145.5L81.3 47.1zM213.9 179.7C243.4 157.3 280.2 144 320.2 144C417.4 144 496.2 222.8 496.2 320C496.2 359.9 482.9 396.7 460.5 426.3L414.6 380.4C425.8 363 432.2 342.3 432.2 320.1C432.2 258.2 382.1 208.1 320.2 208.1C298 208.1 277.3 214.6 259.9 225.7L214 179.8zM379.1 344.9L295.2 261C302.9 257.8 311.3 256 320.1 256C355.4 256 384.1 284.7 384.1 320C384.1 328.8 382.3 337.3 379.1 344.9zM382.8 484.5C363.3 491.9 342.2 496 320.1 496C222.9 496 144.1 417.2 144.1 320C144.1 297.9 148.2 276.8 155.6 257.3L119.2 220.9C107.8 244 100.2 269.3 97.4 296L48.1 296L48.1 344L97.4 344C108.5 448.5 191.6 531.6 296.1 542.7L296.1 592L344.1 592L344.1 542.7C370.8 539.9 396.1 532.3 419.2 520.9L382.8 484.5zM208.1 320C208.1 381.9 258.2 432 320.1 432C323.4 432 326.6 431.9 329.9 431.6L208.6 310.2C208.3 313.4 208.2 316.7 208.2 320z"/></svg>