<svg xmlns="http://www.w3.org/2000/svg" viewBox="0 0 640 640"><!--! Font Awesome Pro 7.2.0 by @fontawesome - https://fontawesome.com License - https://fontawesome.com/license (Commercial License) Copyright 2026 Fonticons, Inc. --><path fill="currentColor" d="M320 152L320 176L283.3 176C306.1 201.5 320 235.1 320 272L320 496L560 496L560 288C560 257.5 547.8 229.8 528 209.6L528 149.4C575.8 177.1 608 228.8 608 288L608 544L32 544L32 272C32 192.5 96.5 128 176 128L320 128L320 152zM176 176C123 176 80 219 80 272L80 496L272 496L272 272C272 219 229 176 176 176zM112 288L240 288L240 336L112 336L112 288zM368 296L368 128L480 128L480 224L416 224L416 320L368 320L368 296z"/></svg>