<svg xmlns="http://www.w3.org/2000/svg" viewBox="0 0 640 640"><!--! Font Awesome Pro 7.2.0 by @fontawesome - https://fontawesome.com License - https://fontawesome.com/license (Commercial License) Copyright 2026 Fonticons, Inc. --><path fill="currentColor" d="M320 64C426 64 512 148.4 512 252.6C512 403.4 320 592 320 592C320 592 128 403.4 128 252.6C128 148.4 214 64 320 64zM320 112C239.7 112 176 175.7 176 252.6C176 280.7 185.1 313.6 201.6 349.1C217.9 384.2 240 419.2 262.8 450.6C283.1 478.5 303.6 503 320 521.6C336.4 503 356.9 478.6 377.2 450.6C400.1 419.2 422.2 384.2 438.5 349.1C454.9 313.6 464.1 280.7 464.1 252.6C464.1 175.8 400.4 112 320.1 112zM409.7 224.8L395.6 244.2C335 327.6 304 370.2 302.7 372C292.1 361.1 273.5 341.8 246.9 314.3L230.2 297.1L264.7 263.7C275.9 275.3 286.8 286.6 297.5 297.6L356.8 216L370.9 196.6L409.7 224.9z"/></svg>