<svg xmlns="http://www.w3.org/2000/svg" viewBox="0 0 640 640"><!--! Font Awesome Pro 7.2.0 by @fontawesome - https://fontawesome.com License - https://fontawesome.com/license (Commercial License) Copyright 2026 Fonticons, Inc. --><path fill="currentColor" d="M296 64L344 64L344 112L512 112L576 192L512 272L344 272L344 304L544 304L544 464L344 464L344 576L296 576L296 464L128 464L64 384L128 304L296 304L296 272L96 272L96 112L296 112L296 64zM488.9 160L144 160L144 224L488.9 224L514.5 192L488.9 160zM151.1 352L125.5 384L151.1 416L496 416L496 352L151.1 352z"/></svg>