<svg xmlns="http://www.w3.org/2000/svg" viewBox="0 0 640 640"><!--! Font Awesome Pro 7.2.0 by @fontawesome - https://fontawesome.com License - https://fontawesome.com/license (Commercial License) Copyright 2026 Fonticons, Inc. --><path fill="currentColor" d="M200.7 438.4C200.2 434.1 200 429.7 200 425.3C200 398.3 209.6 368.2 222.4 341.7C235.3 315 252.8 289.3 271 271L278 264L361.9 264L368.9 271C387.2 289.3 404.6 315 417.5 341.7C430.3 368.2 439.9 398.3 439.9 425.3C439.9 429.6 439.7 433.8 439.3 438C455 416.8 463.9 391.4 463.9 364.8C463.9 323.7 443.3 260 408.5 209.6L359.9 144L280 144L231 209.6C196.4 259.9 176 323.6 176 364.8C176 391.5 184.9 417.1 200.7 438.4zM248 425.3C248 437.5 250.9 448.9 256 458.9L256 533.9C217.6 521.3 184.9 497.8 162.2 467.3L18.2 431.3L0 426.7L0 192L185.1 192C187.4 188.5 189.7 185 192 181.6L256 96L384 96L447.6 181.6C450 185 452.3 188.5 454.5 192L640 192L640 426.7L621.8 431.2L477.4 467.3C454.6 497.7 421.9 521.1 383.9 533.7L383.9 458.7C389 448.7 391.9 437.4 391.9 425.2C391.9 408.3 385.5 385.7 374.3 362.5C365 343.2 353.2 325.3 341.5 311.9L298.3 311.9C286.6 325.3 274.8 343.2 265.5 362.5C254.3 385.7 247.9 408.3 247.9 425.2zM505.6 410.8L592 389.2L592 239.9L480.7 239.9C500.5 283.1 512 328.6 512 364.7C512 380.7 509.8 396.1 505.6 410.8zM159.1 240L48 240L48 389.3L134.3 410.9C130.2 396.2 128 380.8 128 364.9C128 328.8 139.4 283.3 159.1 240.1zM296 368L344 368L344 576L296 576L296 368z"/></svg>