<svg xmlns="http://www.w3.org/2000/svg" viewBox="0 0 640 640"><!--! Font Awesome Pro 7.2.0 by @fontawesome - https://fontawesome.com License - https://fontawesome.com/license (Commercial License) Copyright 2026 Fonticons, Inc. --><path fill="currentColor" d="M274.3 368L365.6 368C370.9 378.5 386.9 410.5 413.6 464L431.9 464C469.3 464 501.1 451.6 523.1 431C544.6 410.8 559.9 379.9 559.9 336C559.9 289.2 546.9 252.5 516.5 226.3C484.8 198.9 426.1 176 319.9 176C213.7 176 155.1 198.9 123.4 226.3C93.1 252.5 80 289.2 80 336C80 379.9 95.3 410.8 116.8 431C138.8 451.6 170.5 464 208 464L226.3 464C253 410.5 269 378.5 274.3 368zM256 512L208 512C112 512 32 448 32 336C32 224 96 128 320 128C544 128 608 224 608 336C608 448 528 512 432 512L384 512L346.8 437.7L346.6 437.4L335.9 416.1L303.9 416.1L293.2 437.4L293 437.7L255.8 512zM128 320C128 284.7 156.7 256 192 256C227.3 256 256 284.7 256 320C256 355.3 227.3 384 192 384C156.7 384 128 355.3 128 320zM448 256C483.3 256 512 284.7 512 320C512 355.3 483.3 384 448 384C412.7 384 384 355.3 384 320C384 284.7 412.7 256 448 256z"/></svg>