<svg xmlns="http://www.w3.org/2000/svg" viewBox="0 0 640 640"><!--! Font Awesome Pro 7.2.0 by @fontawesome - https://fontawesome.com License - https://fontawesome.com/license (Commercial License) Copyright 2026 Fonticons, Inc. --><path fill="currentColor" d="M480.2 277.8L565.7 106.8L576.4 85.3L554.9 74.6L426.9 10.6L406.2 .2L395.1 20.5L320.2 157.9L245.3 20.5L234.2 .2L213.5 10.6L85.5 74.6L64 85.3L74.7 106.8L160.2 277.8C140 308.2 128.2 344.8 128.2 384C128.2 490 214.2 576 320.2 576C426.2 576 512.2 490 512.2 384C512.2 344.7 500.4 308.2 480.2 277.8zM446 238.9C420.5 216.8 389.2 201.3 354.7 195.1L426.2 63.8L512 106.7L445.9 238.9zM285.8 195.1C251.3 201.3 219.9 216.8 194.5 238.9L128.4 106.7L214.2 63.8L285.8 195.1zM176.2 384C176.2 304.5 240.7 240 320.2 240C399.7 240 464.2 304.5 464.2 384C464.2 463.5 399.7 528 320.2 528C240.7 528 176.2 463.5 176.2 384zM348.4 345.2L320.2 288L292 345.2L228.9 354.4L274.6 398.9L263.8 461.7L320.2 432L376.6 461.7L365.8 398.9L411.5 354.4L348.4 345.2z"/></svg>