<svg xmlns="http://www.w3.org/2000/svg" viewBox="0 0 640 640"><!--! Font Awesome Pro 7.2.0 by @fontawesome - https://fontawesome.com License - https://fontawesome.com/license (Commercial License) Copyright 2026 Fonticons, Inc. --><path fill="currentColor" d="M232 64L208 64L208 160L64 160L64 544L576 544L576 160L432 160L432 64L232 64zM384 160L256 160L256 112L384 112L384 160zM160 208L160 496L112 496L112 208L160 208zM208 208L432 208L432 496L208 496L208 208zM480 208L528 208L528 496L480 496L480 208zM348 272L292 272L292 324L240 324L240 380L292 380L292 432L348 432L348 380L400 380L400 324L348 324L348 272z"/></svg>