<svg xmlns="http://www.w3.org/2000/svg" viewBox="0 0 640 640"><!--! Font Awesome Pro 7.2.0 by @fontawesome - https://fontawesome.com License - https://fontawesome.com/license (Commercial License) Copyright 2026 Fonticons, Inc. --><path fill="currentColor" d="M528 320C528 284.4 519.1 250.9 503.3 221.6C497.5 274.9 476 346.3 411.1 411.1C346.2 475.9 274.9 497.5 221.6 503.3C250.9 519.1 284.4 528 320 528C434.9 528 528 434.9 528 320zM143.1 429.5C150.5 370.1 171.4 286.3 228.8 228.9C291 166.7 367.8 145.9 423.8 139.8C393.2 122.1 357.7 112 319.9 112C205 112 111.9 205.1 111.9 320C111.9 360.2 123.3 397.7 143 429.5zM64 320C64 178.6 178.6 64 320 64C461.4 64 576 178.6 576 320C576 461.4 461.4 576 320 576C178.6 576 64 461.4 64 320zM194.7 410C191.5 427.4 189.7 443.4 188.6 457.1C198.5 457.1 210 456.5 222.5 454.8C266.7 449 324.1 430.3 377.2 377.1C430.3 323.9 449 266.6 454.8 222.4C456.6 208.6 457.1 196.1 457 185.5C444.7 185.8 430.1 186.9 414.1 189.4C366.5 196.8 309.3 216.1 262.7 262.8C223.9 301.6 204 358.3 194.6 410z"/></svg>