<svg xmlns="http://www.w3.org/2000/svg" viewBox="0 0 640 640"><!--! Font Awesome Pro 7.2.0 by @fontawesome - https://fontawesome.com License - https://fontawesome.com/license (Commercial License) Copyright 2026 Fonticons, Inc. --><path fill="currentColor" d="M460.8 99.2L400 160C400 160 394.5 261.5 328 328C261.5 394.5 160 400 160 400C115 445 83.4 476.6 65.2 494.8C77 505.8 89.7 515.8 103.1 524.8C151.4 557.1 209.5 576 272 576C439.9 576 576 439.9 576 272C576 209.5 557.1 151.4 524.8 103.1C515.8 89.7 505.8 77 494.8 65.2L460.8 99.2zM165 462.9C198.3 483.9 237.7 496 280 496C399.3 496 496 399.3 496 280C496 237.7 483.9 198.3 462.9 165L490.1 137.8C514.2 176.8 528 222.8 528 272C528 413.4 413.4 528 272 528C222.8 528 176.8 514.1 137.8 490.1L165 462.9zM437.8 222.2C444.4 240.2 448 259.7 448 280C448 372.8 372.8 448 280 448C259.7 448 240.3 444.4 222.2 437.8C225.5 437 228.9 436 232.3 435C270.3 424.1 320.8 403 361.9 361.9C403 320.8 424.1 270.3 435 232.3C436 228.9 436.9 225.5 437.8 222.2z"/></svg>