<svg xmlns="http://www.w3.org/2000/svg" viewBox="0 0 640 640"><!--! Font Awesome Pro 7.2.0 by @fontawesome - https://fontawesome.com License - https://fontawesome.com/license (Commercial License) Copyright 2026 Fonticons, Inc. --><path fill="currentColor" d="M264.7 564.4C252.1 571.9 227.9 586.5 192 608L192 512L64 512L64 96L576 96L576 512L352 512L264.7 564.4zM240 523.2C262.9 509.5 307.8 482.5 327.3 470.8L338.7 464L528 464L528 144L112 144L112 464L240 464L240 523.2zM288 216L352 216L352 272L408 272L408 336L352 336L352 392L288 392L288 336L232 336L232 272L288 272L288 216z"/></svg>