<svg xmlns="http://www.w3.org/2000/svg" viewBox="0 0 640 640"><!--! Font Awesome Pro 7.2.0 by @fontawesome - https://fontawesome.com License - https://fontawesome.com/license (Commercial License) Copyright 2026 Fonticons, Inc. --><path fill="currentColor" d="M264.7 564.4C252.1 571.9 227.9 586.5 192 608L192 512L64 512L64 96L576 96L576 512L352 512L264.7 564.4zM240 523.2C262.9 509.5 307.8 482.5 327.3 470.8L338.7 464L528 464L528 144L112 144L112 464L240 464L240 523.2zM337 215C387.5 265.5 414.5 292.5 418 296L384 329.9C373.7 319.6 360.4 306.3 344 289.9L344 400L296 400L296 289.9C279.6 306.3 266.3 319.6 256 329.9L222.1 296L320 198.1L337 215.1z"/></svg>