<svg xmlns="http://www.w3.org/2000/svg" viewBox="0 0 640 640"><!--! Font Awesome Pro 7.2.0 by @fontawesome - https://fontawesome.com License - https://fontawesome.com/license (Commercial License) Copyright 2026 Fonticons, Inc. --><path fill="currentColor" d="M528 224C572.2 224 608 188.2 608 144C608 99.8 572.2 64 528 64C483.8 64 448 99.8 448 144C448 188.2 483.8 224 528 224zM576 464L576 262.7C561.2 268.7 545 272 528 272L528 464L338.7 464L327.3 470.8L240 523.2L240 464L112 464L112 144L400 144C400 127 403.3 110.8 409.3 96L64 96L64 512L192 512L192 608C213.3 595.2 266.7 563.2 352 512L576 512L576 464z"/></svg>