<svg xmlns="http://www.w3.org/2000/svg" viewBox="0 0 640 640"><!--! Font Awesome Pro 7.2.0 by @fontawesome - https://fontawesome.com License - https://fontawesome.com/license (Commercial License) Copyright 2026 Fonticons, Inc. --><path fill="currentColor" d="M320 528C329.5 528 338.8 527.4 348 526.1C351.7 542.4 357.8 557.8 365.9 571.9C351 574.6 335.7 576 320 576C178.6 576 64 461.4 64 320C64 178.6 178.6 64 320 64C444.7 64 548.5 153.1 571.3 271.2C569.6 269.3 568 267.4 566.4 265.7L512 210.6C508.8 213.7 505.6 216.9 502.4 220C467 155.7 398.6 112 320 112C205.1 112 112 205.1 112 320C112 434.9 205.1 528 320 528zM432 216L432 288L384 288L384 192L432 192L432 216zM344 192L344 288L296 288L296 192L344 192zM256 216L256 288L208 288L208 192L256 192L256 216zM392 490.1C392 395.9 512 278 512 278C512 278 632 395.9 632 490.1C632 555.2 578.3 608 512 608C445.7 608 392 555.2 392 490.1z"/></svg>