<svg xmlns="http://www.w3.org/2000/svg" viewBox="0 0 640 640"><!--! Font Awesome Pro 7.2.0 by @fontawesome - https://fontawesome.com License - https://fontawesome.com/license (Commercial License) Copyright 2026 Fonticons, Inc. --><path fill="currentColor" d="M528 320C528 205.1 434.9 112 320 112C205.1 112 112 205.1 112 320C112 434.9 205.1 528 320 528C434.9 528 528 434.9 528 320zM64 320C64 178.6 178.6 64 320 64C461.4 64 576 178.6 576 320C576 461.4 461.4 576 320 576C178.6 576 64 461.4 64 320zM272 304L272 176L368 176L368 304C368 330.5 346.5 352 320 352C293.5 352 272 330.5 272 304zM224 272L224 304C224 357 267 400 320 400C373 400 416 357 416 304L416 272L464 272L464 304C464 375.4 412.1 434.6 344 446L344 488L296 488L296 446C227.9 434.6 176 375.3 176 304L176 272L224 272z"/></svg>