<svg xmlns="http://www.w3.org/2000/svg" viewBox="0 0 640 640"><!--! Font Awesome Pro 7.2.0 by @fontawesome - https://fontawesome.com License - https://fontawesome.com/license (Commercial License) Copyright 2026 Fonticons, Inc. --><path fill="currentColor" d="M64.3 30.2L81.3 47.2L224.1 190L224.1 64L416.1 64L416.1 288C416.1 314 405.8 337.6 389 354.9L423 388.8C448.5 362.8 464.2 327.2 464.2 288L464.2 224L512.2 224L512.2 288C512.2 340.5 491.1 388.1 457 422.7L593.4 559.1L610.4 576.1L576.5 610L559.5 593L47.5 81L30.5 64L64.4 30.1zM355.1 320.9C363.2 312.3 368.2 300.7 368.2 288L368.2 224L320.2 224L320.2 176L368.2 176L368.2 112L272.2 112L272.2 238L355.1 320.9zM330 431.7L371.4 473.1C362.6 475.5 353.5 477.4 344.1 478.5L344.1 528L416.1 528L416.1 576L224.1 576L224.1 528L296.1 528L296.1 478.5C201.4 466.7 128.1 385.9 128.1 288L128.1 229.8L176.1 277.8L176.1 288C176.1 367.5 240.6 432 320.1 432C323.4 432 326.7 431.9 329.9 431.7z"/></svg>