<svg xmlns="http://www.w3.org/2000/svg" viewBox="0 0 640 640"><!--! Font Awesome Pro 7.2.0 by @fontawesome - https://fontawesome.com License - https://fontawesome.com/license (Commercial License) Copyright 2026 Fonticons, Inc. --><path fill="currentColor" d="M344 64L344 150.1L442 248.1L450.7 249.8L516.6 262.5C569.6 272.7 607.9 319.1 607.9 373C607.9 414.4 574.3 448 532.9 448C478.9 448 432.6 409.7 422.4 356.7L409.7 290.8L408 282.1L343.9 218L343.9 352.1L349.9 360.1L396.7 422.5C409.2 439.1 415.9 459.3 415.9 480.1C415.9 533.1 372.9 576.1 319.9 576.1C266.9 576.1 223.9 533.1 223.9 480.1C223.9 459.3 230.6 439.1 243.1 422.5L289.9 360.1L295.9 352.1L295.9 218L231.8 282.1L230.4 289.5C233.4 288.6 236.6 288.1 239.9 288.1C257.6 288.1 271.9 302.4 271.9 320.1C271.9 337.8 257.6 352.1 239.9 352.1C232.3 352.1 225.2 349.4 219.7 345L217.4 356.9C207.4 409.7 161 448 107 448C65.6 448 32 414.4 32 373C32 319 70.3 272.6 123.3 262.4L189.2 249.7L197.9 248L295.9 150L295.9 63.9L343.9 63.9zM132.4 309.6C102 315.4 80 342 80 373C80 387.9 92.1 400 107 400C137.9 400 164.5 378 170.4 347.6L179.5 300.5L132.4 309.6zM460.6 300.5L469.7 347.6C475.5 378 502.1 400 533.1 400C548 400 560.1 387.9 560.1 373C560.1 342.1 538.1 315.5 507.7 309.6L460.6 300.5zM281.6 451.2C275.4 459.5 272 469.6 272 480C272 506.5 293.5 528 320 528C346.5 528 368 506.5 368 480C368 469.6 364.6 459.5 358.4 451.2L320 400L281.6 451.2zM416 96C433.7 96 448 110.3 448 128C448 145.7 433.7 160 416 160C398.3 160 384 145.7 384 128C384 110.3 398.3 96 416 96z"/></svg>