<svg xmlns="http://www.w3.org/2000/svg" viewBox="0 0 640 640"><!--! Font Awesome Pro 7.2.0 by @fontawesome - https://fontawesome.com License - https://fontawesome.com/license (Commercial License) Copyright 2026 Fonticons, Inc. --><path fill="currentColor" d="M231.6 64C156.7 64 96 124.7 96 199.6C96 213 96.4 228.4 100.3 244.3L147.2 432L127.9 432L127.9 576L479.9 576L479.9 432L458.9 432L528.3 333.8L540.4 316.7L525.2 302.4C464.2 245.2 432.6 215.6 430.6 213.7C420.5 224.8 407.9 238.6 393 255.1L360.2 156.7C341.7 101.3 289.9 64 231.6 64zM400.3 432L196.8 432L147 232.6C144.6 222.8 144.1 212.4 144.1 199.5C144.1 151.1 183.3 111.9 231.7 111.9C269.4 111.9 302.9 136 314.8 171.8C350.8 279.8 370.4 338.5 373.5 348C391.1 328.7 411.1 306.7 433.5 282L477.3 323L404.6 425.9L400.5 431.7zM176 480L432 480L432 528L176 528L176 480z"/></svg>