<svg xmlns="http://www.w3.org/2000/svg" viewBox="0 0 640 640"><!--! Font Awesome Pro 7.2.0 by @fontawesome - https://fontawesome.com License - https://fontawesome.com/license (Commercial License) Copyright 2026 Fonticons, Inc. --><path fill="currentColor" d="M160.4 126L160.4 64L480.4 64L480.4 446L610.5 576.1L576.6 610L30.7 64.1L64.6 30.2L160.4 126zM208.4 309.8L208.4 528L426.6 528L474.6 576L160.4 576L160.4 261.8L208.4 309.8zM378.6 480L256.4 480L256.4 432L330.6 432L378.6 480zM122.5 223.9L82.4 264L120.5 302.1L120.5 338L82.4 376.1L130.4 424.1L96.5 458L14.6 376.1L70.6 320.1L14.6 264.1L88.7 190L122.6 223.9zM626.4 264L570.4 320L626.4 376L552.5 449.9L518.6 416L558.6 376L520.5 337.9L520.5 302L558.6 263.9L510.6 215.9L544.5 182L626.4 263.9zM208.4 174L432.4 398L432.4 112L208.4 112L208.4 174z"/></svg>