<svg xmlns="http://www.w3.org/2000/svg" viewBox="0 0 640 640"><!--! Font Awesome Pro 7.2.0 by @fontawesome - https://fontawesome.com License - https://fontawesome.com/license (Commercial License) Copyright 2026 Fonticons, Inc. --><path fill="currentColor" d="M240 48L224 48L224 64C224 108.2 259.8 144 304 144L320 144L320 128C320 83.8 284.2 48 240 48zM120 64L96 64L96 112L192 112L192 64L120 64zM88 136L64 136L64 184L224 184L224 136L88 136zM96 208L96 256L192 256L192 208L96 208zM336 48L336 64C336 108.2 371.8 144 416 144L432 144L432 128C432 83.8 396.2 48 352 48L336 48zM464 48L448 48L448 64C448 108.2 483.8 144 528 144L544 144L544 128C544 83.8 508.2 48 464 48zM544 176L528 176C483.8 176 448 211.8 448 256L448 272L464 272C508.2 272 544 236.2 544 192L544 176zM416 176C371.8 176 336 211.8 336 256L336 272L352 272C396.2 272 432 236.2 432 192L432 176L416 176zM320 176L304 176C259.8 176 224 211.8 224 256L224 272L240 272C284.2 272 320 236.2 320 192L320 176zM112 423.5C140.9 419.9 163.9 396.9 167.5 368L472.5 368C476.1 397 499.1 419.9 528 423.5L528 472.5C499 476.1 476.1 499.1 472.5 528L167.5 528C163.9 499 140.9 476.1 112 472.5L112 423.5zM112 320L64 320L64 576L576 576L576 320L112 320zM320 512C355.3 512 384 483.3 384 448C384 412.7 355.3 384 320 384C284.7 384 256 412.7 256 448C256 483.3 284.7 512 320 512z"/></svg>