<svg xmlns="http://www.w3.org/2000/svg" viewBox="0 0 640 640"><!--! Font Awesome Pro 7.2.0 by @fontawesome - https://fontawesome.com License - https://fontawesome.com/license (Commercial License) Copyright 2026 Fonticons, Inc. --><path fill="currentColor" d="M112 176L112 464L528 464L528 176L112 176zM64 128L576 128L576 512L64 512L64 128zM480 336L480 384L336 384L336 336L480 336zM336 256L480 256L480 304L336 304L336 256zM248 216L248 240L276 240L276 280L212.6 280C207.9 280 204 283.8 204 288.6C204 292.7 206.9 296.2 210.9 297L245 303.8C267.7 308.3 284 328.3 284 351.4C284 373.9 268.7 392.8 248 398.3L248 423.9L208 423.9L208 399.9L172 399.9L172 359.9L235.4 359.9C240.1 359.9 244 356.1 244 351.3C244 347.2 241.1 343.7 237.1 342.9L203 336.2C180.3 331.7 164 311.7 164 288.6C164 263.3 183.3 242.5 208 240.2L208 216L248 216z"/></svg>