<svg xmlns="http://www.w3.org/2000/svg" viewBox="0 0 640 640"><!--! Font Awesome Pro 7.2.0 by @fontawesome - https://fontawesome.com License - https://fontawesome.com/license (Commercial License) Copyright 2026 Fonticons, Inc. --><path fill="currentColor" d="M240 144C240 179.3 211.3 208 176 208L176 336C211.3 336 240 364.7 240 400L496 400C496 364.7 524.7 336 560 336L560 208C524.7 208 496 179.3 496 144L240 144zM128 96L608 96L608 448L128 448L128 96zM368 192C412.2 192 448 227.8 448 272C448 316.2 412.2 352 368 352C323.8 352 288 316.2 288 272C288 227.8 323.8 192 368 192zM80 192L80 496L512 496L512 544L32 544L32 192L80 192z"/></svg>