<svg xmlns="http://www.w3.org/2000/svg" viewBox="0 0 640 640"><!--! Font Awesome Pro 7.2.0 by @fontawesome - https://fontawesome.com License - https://fontawesome.com/license (Commercial License) Copyright 2026 Fonticons, Inc. --><path fill="currentColor" d="M544 72L544 48L394.2 48L394.2 96L462.1 96L350.8 207.3L255.7 125.8L240.1 112.4L224.5 125.8L112.5 221.8L94.3 237.4L125.5 273.8L143.7 258.2L240.1 175.6L336.5 258.2L353.4 272.7L369.1 257L496.1 130L496.1 197.9L544.1 197.9L544.1 72.1zM167.5 368L472.5 368C476.1 397 499.1 419.9 528 423.5L528 472.5C499 476.1 476.1 499.1 472.5 528L167.5 528C163.9 499 140.9 476.1 112 472.5L112 423.5C140.9 419.9 163.9 396.9 167.5 368zM112 320L64 320L64 576L576 576L576 320L112 320zM320 512C355.3 512 384 483.3 384 448C384 412.7 355.3 384 320 384C284.7 384 256 412.7 256 448C256 483.3 284.7 512 320 512z"/></svg>