<svg xmlns="http://www.w3.org/2000/svg" viewBox="0 0 640 640"><!--! Font Awesome Pro 7.2.0 by @fontawesome - https://fontawesome.com License - https://fontawesome.com/license (Commercial License) Copyright 2026 Fonticons, Inc. --><path fill="currentColor" d="M423.7 85.9C400 75.3 374.4 68.3 347.5 65.5C338.5 64.5 329.3 64 320 64C178.6 64 64 178.6 64 320C64 461.4 178.6 576 320 576C375.7 576 427.3 558.2 469.3 528C470.2 527.3 471.1 526.7 472 526C492.3 511 510.3 493 525.4 472.8C508.4 477.5 490.5 480 472 480C465.9 480 459.9 479.7 453.9 479.2C351.9 470 272 384.4 272 280C272 211.8 306.1 151.6 358.2 115.5C377.8 101.9 399.9 91.8 423.7 85.9zM287.2 114.6C247.9 158.5 224 216.4 224 280C224 389.2 294.6 481.9 392.6 515C370 523.4 345.6 528 320 528C205.1 528 112 434.9 112 320C112 216.3 187.9 130.3 287.2 114.6z"/></svg>