<svg xmlns="http://www.w3.org/2000/svg" viewBox="0 0 640 640"><!--! Font Awesome Pro 7.2.0 by @fontawesome - https://fontawesome.com License - https://fontawesome.com/license (Commercial License) Copyright 2026 Fonticons, Inc. --><path fill="currentColor" d="M347.5 65.5C374.3 68.4 400 75.4 423.7 85.9C399.9 91.8 377.8 102 358.2 115.5C306.1 151.6 272 211.8 272 280C272 384.4 351.9 470 453.9 479.2C459.9 479.7 465.9 480 472 480C490.5 480 508.4 477.5 525.4 472.8C510.3 493.1 492.3 511 472 526C471.1 526.7 470.2 527.3 469.3 528C427.3 558.2 375.7 576 320 576C178.6 576 64 461.4 64 320C64 178.6 178.6 64 320 64C329.3 64 338.5 64.5 347.5 65.5zM112 320C112 434.9 205.1 528 320 528C345.5 528 370 523.4 392.6 515C294.6 481.9 224 389.2 224 280C224 216.4 247.9 158.4 287.2 114.6C187.9 130.3 112 216.3 112 320zM435.2 300.8L352 272L435.2 243.2L464 160L492.8 243.2L576 272L492.8 300.8L464 384L435.2 300.8z"/></svg>