<svg xmlns="http://www.w3.org/2000/svg" viewBox="0 0 640 640"><!--! Font Awesome Pro 7.2.0 by @fontawesome - https://fontawesome.com License - https://fontawesome.com/license (Commercial License) Copyright 2026 Fonticons, Inc. --><path fill="currentColor" d="M504 456L552 456L552 416L600 416L600 456L640 456L640 504L600 504L600 552L640 552L640 600L600 600L600 640L552 640L552 600L504 600L504 640L456 640L456 600L416 600L416 552L456 552L456 504L416 504L416 456L456 456L456 416L504 416L504 456zM480.9 89.7C474 100 461 119.6 441.6 148.7L454.9 202.1L458.7 217.3L446.9 227.1L401.3 265.1L533 279.7L540.9 280.9C579.7 288.9 608.1 323.2 608.1 363.6L607.9 368L559.8 368C560 366.5 560.1 365.1 560.1 363.6C560.1 345.1 546.1 329.5 527.7 327.4L391 312.2L467.7 368L386.1 368L376.1 360.7L376.1 504L264.1 504L264.1 420.3L247.8 440.7L247.8 485.8L245.2 491L213.2 555L202.4 576.7L160.3 554.5C164.4 546.3 177.8 519.5 200.5 474.1L200.5 432L200.5 423.3L205.9 416.6L231.7 384.4L166.4 431.9L160.9 435.6C147.6 443.7 132.3 448.1 116.7 448.1L108.1 447.7C68.4 443.7 36.7 412.1 32.7 372.3L32.3 363.7C32.3 323.4 60.8 289.1 99.5 281L107.4 279.8L239.1 265.2L193.4 227.2L181.6 217.4L185.4 202.2L198.7 148.8C179.3 119.8 166.2 100.1 159.4 89.8L198.4 62.3C204.2 71 219.3 93.7 243.7 130.4L249.8 139.5L247.1 150.2L234.9 199.2L264.2 223.6L264.2 200.1L304.2 200.1L304.2 112L336.2 112L336.2 200.1L376.2 200.1L376.2 223.5L405.5 199.1L393.3 150.1L390.6 139.4L396.7 130.3C420.9 93.6 436 70.9 441.8 62.2L480.8 89.7zM504 552L552 552L552 504L504 504L504 552zM304 464L336 464L336 240L304 240L304 464zM112.4 327.4C94 329.5 80 345 80 363.6C80 383.7 96.4 400 116.5 400C124.2 400 131.8 397.6 138 393L249.2 312.1L112.4 327.3z"/></svg>