<svg xmlns="http://www.w3.org/2000/svg" viewBox="0 0 640 640"><!--! Font Awesome Pro 7.2.0 by @fontawesome - https://fontawesome.com License - https://fontawesome.com/license (Commercial License) Copyright 2026 Fonticons, Inc. --><path fill="currentColor" d="M81.3 47.1L64.3 30.1L30.4 64L47.4 81L559.4 593L576.4 610L610.3 576.1L593.3 559.1L501 466.8C527 452.5 544.1 428 544.2 400.1L544.2 58.1L515 64.6L227 128.6L208.2 132.8L208.2 174L81.4 47.2zM259.5 225.3L256.1 221.9L256.1 171.2L496.1 117.9L496.1 172.7L259.5 225.3zM299.7 265.5L496.1 221.9L496.1 330.7C482 323.9 465.6 320 448.1 320C420.9 320 396.3 329.5 378.8 344.7L299.7 265.6zM412.6 378.5C421.4 372.1 434 368 448.1 368C474.6 368 496.1 382.3 496.1 400C496.1 413.9 482.8 425.7 464.3 430.1L412.6 378.4zM208.1 309.8L208.1 394.7C194 387.9 177.6 384 160.1 384C107.1 384 64.1 419.8 64.1 464C64.1 508.2 107.1 544 160.1 544C213.1 544 256.1 508.2 256.1 464L256.1 357.8L208.1 309.8zM208.1 464L208.1 464C208.1 481.7 186.6 496 160.1 496C133.6 496 112.1 481.7 112.1 464C112.1 446.3 133.6 432 160.1 432C186.6 432 208.1 446.3 208.1 464z"/></svg>