<svg xmlns="http://www.w3.org/2000/svg" viewBox="0 0 640 640"><!--! Font Awesome Pro 7.2.0 by @fontawesome - https://fontawesome.com License - https://fontawesome.com/license (Commercial License) Copyright 2026 Fonticons, Inc. --><path fill="currentColor" d="M182.8 176L280.7 176C280.8 176.1 293.9 187 320 208.8C346.1 187.1 359.2 176.1 359.3 176L457.2 176L464 182.2L532.3 243.7C588.1 218.4 623.9 202 639.9 194.8C639.9 220.2 639.9 244 639.9 266.1L639.9 266.1C639.9 375.5 551.3 464.1 441.9 464.1C399.1 464.1 357.4 450.2 323.1 424.5L319.9 422.1L316.7 424.5C282.5 450.1 240.8 464 198 464C88.6 464 0 375.4 0 266L0 266L0 194.7C16 202 51.9 218.3 107.6 243.6L175.9 182.1L182.7 175.9zM201.2 224L128 289.8L116.3 300.3C113.4 299 90.6 288.6 48 269.2C49.7 350.5 116.2 415.9 198 415.9C230.5 415.9 262 405.4 288 385.9L320 361.9L352 385.9C378 405.4 409.5 415.9 442 415.9C523.7 415.9 590.2 350.5 592 269.2C549.4 288.6 526.6 298.9 523.7 300.3L512 289.8L438.8 224L376.7 224C344.8 250.6 325.9 266.3 320 271.2C314.1 266.3 295.2 250.5 263.3 224L201.2 224z"/></svg>