<svg xmlns="http://www.w3.org/2000/svg" viewBox="0 0 640 640"><!--! Font Awesome Pro 7.2.0 by @fontawesome - https://fontawesome.com License - https://fontawesome.com/license (Commercial License) Copyright 2026 Fonticons, Inc. --><path fill="currentColor" d="M396.1 432L528 300.1L528 112L208 112L208 432L396.1 432zM416 480L160 480L160 64L576 64L576 320L416 480zM112 160L112 528L416 528L416 576L64 576L64 160L112 160zM336 184L400 184L400 240L456 240L456 304L400 304L400 360L336 360L336 304L280 304L280 240L336 240L336 184z"/></svg>