<svg xmlns="http://www.w3.org/2000/svg" viewBox="0 0 640 640"><!--! Font Awesome Pro 7.2.0 by @fontawesome - https://fontawesome.com License - https://fontawesome.com/license (Commercial License) Copyright 2026 Fonticons, Inc. --><path fill="currentColor" d="M112 396.1L112 243.9L243.9 112L396.1 112L528 243.9L528 396.1L396.1 528L243.9 528L112 396.1zM224 64L64 224L64 416L224 576L416 576L576 416L576 224L416 64L224 64zM352 192L288 192L288 256L352 256L352 192zM232 296L208 296L208 344L432 344L432 296L232 296zM288 384L288 448L352 448L352 384L288 384z"/></svg>