<svg xmlns="http://www.w3.org/2000/svg" viewBox="0 0 640 640"><!--! Font Awesome Pro 7.2.0 by @fontawesome - https://fontawesome.com License - https://fontawesome.com/license (Commercial License) Copyright 2026 Fonticons, Inc. --><path fill="currentColor" d="M248 336C248 322.7 258.7 312 272 312C285.3 312 296 322.7 296 336C296 349.3 285.3 360 272 360C258.7 360 248 349.3 248 336zM368 360C381.3 360 392 349.3 392 336C392 322.7 381.3 312 368 312C354.7 312 344 322.7 344 336C344 349.3 354.7 360 368 360zM162.6 256.7C145.1 160.2 217.5 64 320 64C422.5 64 494.9 160.2 477.4 256.7L458.2 362.2C455.4 377.7 467.3 392 483.1 392C494.3 392 504.2 384.6 507.4 373.8L521.2 327C533.6 284.9 572.2 256 616 256L640 256L640 304L616 304C593.4 304 573.6 318.9 567.2 340.5L553.4 387.4C544.2 418.6 515.6 440 483.1 440C470.3 440 458.5 436.8 448.1 431.2C450.2 467.4 480.2 496 516.9 496C549.4 496 577.5 473.3 584.3 441.5L592.6 402.9L639.5 413L631.2 451.6C619.7 505.5 572 544 516.9 544C483.5 544 450.6 535.8 421.1 520L346 480L294 480L218.9 520C189.4 535.7 156.5 544 123.1 544C68 544 20.3 505.5 8.8 451.6L.5 413L47.5 403L55.7 441.5C62.5 473.3 90.6 496 123.1 496C159.8 496 189.8 467.3 191.9 431.2C181.6 436.8 169.7 440 156.9 440C124.4 440 95.7 418.6 86.6 387.4L72.8 340.5C66.4 318.9 46.6 304 24 304L0 304L0 256L24 256C67.8 256 106.5 284.9 118.8 327L132.6 373.9C135.8 384.7 145.7 392.1 156.9 392.1C172.7 392.1 184.6 377.8 181.8 362.3L162.6 256.7zM209.8 248.1L238 403.3C239.5 411.7 239.9 419.8 239.9 427.2C239.9 437.3 238.6 447.1 236.2 456.5L281.9 432.1L357.9 432.1L403.6 456.5C401.2 447.1 399.9 437.3 399.9 427.2C399.9 419.8 400.3 411.7 401.8 403.3L430 248.1C442.7 178.9 390.3 112 320 112C249.7 112 197.3 178.9 209.9 248.1z"/></svg>