<svg xmlns="http://www.w3.org/2000/svg" viewBox="0 0 640 640"><!--! Font Awesome Pro 7.2.0 by @fontawesome - https://fontawesome.com License - https://fontawesome.com/license (Commercial License) Copyright 2026 Fonticons, Inc. --><path fill="currentColor" d="M0 128C0 128 48 64 128 64C188.2 64 230.3 100.3 247.4 118.2L357.8 66.3C361 64.8 364.5 64 368 64L640 64L640 112L373.4 112L191.9 197.4C189.1 283.3 118.6 352 32 352L0 352L0 320C0 258.6 34.5 205.4 85.2 178.5C31.2 164.4 0 128 0 128zM399.4 491C418.7 465.3 432 427.7 432 384C432 340.3 418.7 302.7 399.4 277C380.2 251.3 357.2 240 336 240C314.8 240 291.8 251.4 272.6 277C253.3 302.7 240 340.4 240 384C240 427.6 253.3 465.3 272.6 491C291.8 516.7 314.8 528 336 528C357.2 528 380.2 516.6 399.4 491zM336 576C256.5 576 192 490 192 384C192 278 256.5 192 336 192C415.5 192 480 278 480 384C480 490 415.5 576 336 576zM465.7 535.8C475.1 522.7 483.3 508.3 490.1 492.7C493.7 493.5 497.2 494.2 500.6 494.7C531.7 499.3 555.6 491.1 570.8 475.4C586.2 459.4 594.7 433.3 590 399.4C585.3 365.6 567.8 327.8 536.8 295.7C518.8 277 499.1 263.2 479.6 254C474.7 245.2 469.3 236.8 463.4 229C452.9 215 440.7 202.5 427.2 192.1C475.4 193.7 528.5 217.9 571.4 262.4C646.4 340.2 661.6 450.5 605.3 508.8C571.2 544.2 518.5 552.3 465.7 535.8z"/></svg>