<svg xmlns="http://www.w3.org/2000/svg" viewBox="0 0 640 640"><!--! Font Awesome Pro 7.2.0 by @fontawesome - https://fontawesome.com License - https://fontawesome.com/license (Commercial License) Copyright 2026 Fonticons, Inc. --><path fill="currentColor" d="M256 496C194.1 496 144 445.9 144 384C144 304.8 181 245.6 229.9 204.9C280.3 163 339.7 144 376 144C396.8 144 427.3 157.8 454.7 185.3C482.1 212.8 496 243.2 496 264C496 300.3 477 359.7 435.1 410.1C394.4 459 335.2 496 256 496zM96 384C96 472.4 167.6 544 256 544C448 544 544 362.1 544 264C544 187.5 452.5 96 376 96C277.9 96 96 192 96 384zM367.1 272.9C397.4 303.2 454.9 294.8 454.9 294.8C454.9 294.8 463.3 237.3 433 207C402.7 176.7 345.2 185.1 345.2 185.1C345.2 185.1 336.8 242.6 367.1 272.9z"/></svg>