<svg xmlns="http://www.w3.org/2000/svg" viewBox="0 0 640 640"><!--! Font Awesome Pro 7.2.0 by @fontawesome - https://fontawesome.com License - https://fontawesome.com/license (Commercial License) Copyright 2026 Fonticons, Inc. --><path fill="currentColor" d="M432 64L400 96L432 128L464 96L432 64zM446.1 264L382.1 328L295.7 328C306 311.8 312 292.6 312 272C312 214.6 265.4 168 208 168C184.6 168 163 175.7 145.6 188.8L174.4 227.2C183.8 220.2 195.4 216 208 216C238.9 216 264 241.1 264 272C264 302.9 238.9 328 208 328L152 328L176 376L220 376C262 376 296 410 296 452C296 493.5 262.8 527.2 221.5 528C111.5 526.6 80 432 80 432C60.2 610.1 344 628.7 344 452C344 423.4 334.3 397 318 376L402 376L466 312L488.1 312C510.2 312 528.1 329.9 528.1 352L528.1 464C528.1 481.7 513.8 496 496.1 496C432.1 496 416.1 448 416.1 448L416.1 496C416.1 496 416.1 544 496.1 544C540.3 544 576.1 508.2 576.1 464L576.1 352C576.1 303.4 536.7 264 488.1 264L446.2 264zM544 176L544 128C544 128 477.5 160 432 160C386.5 160 320 128 320 128C320 128 336 208 440 208C512 208 544 176 544 176z"/></svg>