<svg xmlns="http://www.w3.org/2000/svg" viewBox="0 0 640 640"><!--! Font Awesome Pro 7.2.0 by @fontawesome - https://fontawesome.com License - https://fontawesome.com/license (Commercial License) Copyright 2026 Fonticons, Inc. --><path fill="currentColor" d="M304.5 48C407.4 48 496.9 105.2 543.1 189.5L558.6 174.1C577.3 155.4 607.7 155.4 626.5 174.1C645.3 192.8 645.2 223.2 626.5 242L612.3 256C620.1 272.4 624.5 290.7 624.5 310C624.5 337.3 615.7 363.8 599.3 385.6L523.7 486.4L516.5 496L476.5 496L469.3 486.4L393.7 385.6C377.3 363.8 368.5 337.3 368.5 310C368.5 290.7 372.9 272.4 380.6 256L366.5 241.9C347.8 223.2 347.8 192.8 366.5 174C385.2 155.2 415.6 155.3 434.4 174L451.8 191.4C461.6 187.9 472 185.5 482.8 184.5C441.9 130.7 377.3 96 304.5 96C180.8 96 80.5 196.3 80.5 320L80.8 330.7C86.4 440.6 177.2 528 288.5 528L336.5 528L336.5 520C336.5 497.9 318.6 480 296.5 480L256.5 480L256.5 408C256.5 368.2 224.3 336 184.5 336L160.5 336L160.5 288L184.5 288C250.8 288 304.5 341.7 304.5 408L304.5 432.4C349.4 436.4 384.5 474.1 384.5 520L384.5 528L512.1 528L512.1 576L288.5 576C151.5 576 39.7 468.4 32.8 333.2L32.5 320C32.5 169.8 154.3 48 304.5 48zM496.5 272L463.1 238.6C435.7 250.7 416.5 278.1 416.5 310C416.5 326.9 422 343.3 432.1 356.8L476.5 416L516.5 416L560.9 356.8C571 343.3 576.5 326.9 576.5 310C576.5 278.1 557.3 250.7 529.9 238.6L496.5 272zM464.5 324C453.5 324 444.5 315 444.5 304C444.5 293 453.5 284 464.5 284C475.5 284 484.5 293 484.5 304C484.5 315 475.5 324 464.5 324zM528.5 324C517.5 324 508.5 315 508.5 304C508.5 293 517.5 284 528.5 284C539.5 284 548.5 293 548.5 304C548.5 315 539.5 324 528.5 324z"/></svg>