<svg xmlns="http://www.w3.org/2000/svg" viewBox="0 0 640 640"><!--! Font Awesome Pro 7.2.0 by @fontawesome - https://fontawesome.com License - https://fontawesome.com/license (Commercial License) Copyright 2026 Fonticons, Inc. --><path fill="currentColor" d="M529.5 71L514.5 56L497.8 69.1L241.8 269.1L232.6 276.3L232.6 320.3C230 320.1 227.3 320.1 224.6 320.1C153.9 320.1 96.6 377.4 96.6 448.1L96.6 528.1L32.6 528.1L32.6 576.1L224.6 576.1C295.3 576.1 352.6 518.8 352.6 448.1C352.6 445.4 352.5 442.7 352.4 440.1L396.4 440.1L403.6 430.9L603.6 174.9L616.7 158.2C616.2 157.7 587.2 128.7 529.7 71.2zM339.6 392C327.1 366.3 306.2 345.4 280.5 332.9L280.5 299.7L510.5 120L552.5 162L372.8 392L339.6 392zM224.5 528L144.5 528L144.5 448C144.5 403.8 180.3 368 224.5 368C268.7 368 304.5 403.8 304.5 448C304.5 492.2 268.7 528 224.5 528z"/></svg>