<svg xmlns="http://www.w3.org/2000/svg" viewBox="0 0 640 640"><!--! Font Awesome Pro 7.2.0 by @fontawesome - https://fontawesome.com License - https://fontawesome.com/license (Commercial License) Copyright 2026 Fonticons, Inc. --><path fill="currentColor" d="M529.4 71L512.4 54L495.4 71L244.8 321.6C238.1 320.5 231.3 320 224.4 320C153.7 320 96.4 377.3 96.4 448L96.4 528L32.4 528L32.4 576L224.4 576C295.1 576 352.4 518.7 352.4 448C352.4 441 351.8 434.2 350.8 427.6L601.4 177L618.4 160C616.3 157.9 586.6 128.2 529.4 71zM332 378.5C322.2 363.3 309.2 350.3 293.9 340.4L512.4 121.9L550.5 160L332 378.5zM224.4 528L144.4 528L144.4 448C144.4 403.8 180.2 368 224.4 368C268.6 368 304.4 403.8 304.4 448C304.4 492.2 268.6 528 224.4 528z"/></svg>