<svg xmlns="http://www.w3.org/2000/svg" viewBox="0 0 640 640"><!--! Font Awesome Pro 7.2.0 by @fontawesome - https://fontawesome.com License - https://fontawesome.com/license (Commercial License) Copyright 2026 Fonticons, Inc. --><path fill="currentColor" d="M226.4 81.9L321.5 177L287.6 210.9L192.5 115.8L116.4 191.9L198.3 273.8C180 276.5 162.6 282.1 146.6 290L48.4 192L192.4 48L226.4 81.9zM417.5 493.2L523.2 522.8L493.6 417.1L461.4 384.9L495.3 351L536.4 392.1C567.9 504.7 586.6 571.4 592.4 592.1C571.6 586.3 505 567.6 392.4 536.1L382.3 526C390.2 510 395.8 492.6 398.5 474.3L417.5 493.3zM512.5 54.1C514.6 56.2 544.3 85.9 601.5 143.1L618.5 160.1L601.5 177.1L350.9 427.7C352 434.4 352.5 441.2 352.5 448.1C352.5 518.8 295.2 576.1 224.5 576.1L32.5 576.1L32.5 528.1L96.5 528.1L96.5 448.1C96.5 377.4 153.8 320.1 224.5 320.1C231.5 320.1 238.3 320.7 244.9 321.7L495.5 71L512.4 54.1zM550.5 160L512.4 121.9L293.9 340.5C309.1 350.3 322.1 363.3 332 378.6L550.5 160zM144.4 528L224.4 528C268.6 528 304.4 492.2 304.4 448C304.4 403.8 268.6 368 224.4 368C180.2 368 144.4 403.8 144.4 448L144.4 528z"/></svg>