<svg xmlns="http://www.w3.org/2000/svg" viewBox="0 0 640 640"><!--! Font Awesome Pro 7.2.0 by @fontawesome - https://fontawesome.com License - https://fontawesome.com/license (Commercial License) Copyright 2026 Fonticons, Inc. --><path fill="currentColor" d="M483.1 449.1L400 366C424.2 348.6 440 320.1 440 288C440 235 397 192 344 192L232 192L232 198.1L190.9 157C226.4 128.9 271.2 112.1 320 112.1C434.9 112.1 528 205.2 528 320.1C528 368.9 511.2 413.8 483.1 449.2zM449.2 483C413.7 511.1 368.9 527.9 320.1 527.9C205.2 527.9 112.1 434.8 112.1 319.9C112.1 271.1 128.9 226.2 157 190.8L232.1 265.9L232.1 448L280.1 448L280.1 384L344.1 384C346.1 384 348 383.9 350 383.8L449.2 483zM365.1 331.1L280 246L280 239.9L344 239.9C370.5 239.9 392 261.4 392 287.9C392 306.8 381 323.2 365.1 331zM280 313.9L302.1 336L280 336L280 313.9zM320 576C461.4 576 576 461.4 576 320C576 178.6 461.4 64 320 64C178.6 64 64 178.6 64 320C64 461.4 178.6 576 320 576z"/></svg>