<svg xmlns="http://www.w3.org/2000/svg" viewBox="0 0 640 640"><!--! Font Awesome Pro 7.2.0 by @fontawesome - https://fontawesome.com License - https://fontawesome.com/license (Commercial License) Copyright 2026 Fonticons, Inc. --><path fill="currentColor" d="M96 96C96 78.3 110.3 64 128 64C145.7 64 160 78.3 160 96C160 113.7 145.7 128 128 128C110.3 128 96 113.7 96 96zM512 224C512 206.3 526.3 192 544 192C561.7 192 576 206.3 576 224C576 241.7 561.7 256 544 256C526.3 256 512 241.7 512 224zM544 480C561.7 480 576 494.3 576 512C576 529.7 561.7 544 544 544C526.3 544 512 529.7 512 512C512 494.3 526.3 480 544 480zM214.1 200C226.9 187.2 235.3 178.8 239.3 174.8C256 158.1 266.5 136.2 269.1 112.7L272.1 85.3L319.8 90.6L316.8 118C313 152.3 297.6 184.3 273.2 208.7L248 233.9L214.1 200zM423 375L431.2 366.7C455.6 342.3 487.6 326.9 521.9 323.1L549.3 320.1L554.6 367.8L527.2 370.8C503.7 373.4 481.8 383.9 465.1 400.6C461.1 404.6 452.6 413.1 439.9 425.8L406 391.9L423 374.9zM567.5 106.3L557.5 114.8C542.7 127.3 523.8 133.9 504.5 133.4C487.9 133 473.9 145.8 472.9 162.4L471.3 189.4C468.7 233.5 431.5 267.6 387.3 266.4C381.6 266.2 376.1 268.2 371.8 271.8C364.6 277.9 354.4 286.5 341.2 297.7L310.2 261.1C323.4 249.9 333.6 241.3 340.8 235.2C354.1 223.9 371.1 217.9 388.6 218.4C406.9 218.9 422.3 204.8 423.3 186.5L424.9 159.5C427.4 117 463.2 84.2 505.7 85.3C513.3 85.5 520.7 82.9 526.4 78L536.4 69.5L567.4 106.1zM127.9 512.1L207.3 481.2L158.8 432.7L127.9 512.1zM298 445.9L194 341.9L177.7 383.8L256.1 462.2L298 445.9zM157 304.9L176 256C184.6 264.6 241.6 321.6 346.9 426.9L384 464C383.1 464.3 287.1 501.7 96 576L64 544L157 304.9z"/></svg>