<svg xmlns="http://www.w3.org/2000/svg" viewBox="0 0 640 640"><!--! Font Awesome Pro 7.2.0 by @fontawesome - https://fontawesome.com License - https://fontawesome.com/license (Commercial License) Copyright 2026 Fonticons, Inc. --><path fill="currentColor" d="M344.4 149.6C370.7 125.4 405.2 112 440.9 112L528 112L528 199.1C528 234.9 514.6 269.3 490.4 295.7C466.1 322.2 432.7 338.6 396.9 341.6C374.5 343.5 357.4 344.9 345.7 345.9C344.8 357.2 343.3 375.1 341.2 399.8C338.4 433.9 322.8 465.6 297.6 488.8L293.6 492.5C268.5 515.5 235.7 528.2 201.7 528.2L111.9 528.2L111.9 434.2C111.9 398.3 126.2 363.8 151.6 338.4C174.3 315.7 204.2 301.9 236.1 299.2C264.2 296.9 283.6 295.2 294.1 294.4C295.1 282.7 296.5 265.6 298.4 243.2C301.4 207.4 317.8 174 344.3 149.7zM440.9 64C393.1 64 347.1 81.9 311.9 114.2C276.5 146.6 254.6 191.2 250.6 239.1L249.7 249.8L232.1 251.3C189 254.8 148.4 273.6 117.7 304.3C83.3 338.7 64 385.4 64 434L64 576L201.8 576C247.8 576 292.2 558.7 326.1 527.6L330.1 523.9C364.2 492.6 385.3 449.7 389.1 403.5L390.2 390.1L400.9 389.2C448.8 385.2 493.3 363.3 525.8 327.9C558.1 292.7 576 246.7 576 198.9L576 64L440.9 64zM475.2 200C475.2 189.4 466.6 180.8 456 180.8C445.4 180.8 436.8 189.4 436.8 200C436.8 210.6 445.4 219.2 456 219.2C466.6 219.2 475.2 210.6 475.2 200zM411.2 264C411.2 253.4 402.6 244.8 392 244.8C381.4 244.8 372.8 253.4 372.8 264C372.8 274.6 381.4 283.2 392 283.2C402.6 283.2 411.2 274.6 411.2 264zM219.2 456C219.2 445.4 210.6 436.8 200 436.8C189.4 436.8 180.8 445.4 180.8 456C180.8 466.6 189.4 475.2 200 475.2C210.6 475.2 219.2 466.6 219.2 456zM264 475.2C274.6 475.2 283.2 466.6 283.2 456C283.2 445.4 274.6 436.8 264 436.8C253.4 436.8 244.8 445.4 244.8 456C244.8 466.6 253.4 475.2 264 475.2zM475.2 264C475.2 253.4 466.6 244.8 456 244.8C445.4 244.8 436.8 253.4 436.8 264C436.8 274.6 445.4 283.2 456 283.2C466.6 283.2 475.2 274.6 475.2 264zM264 411.2C274.6 411.2 283.2 402.6 283.2 392C283.2 381.4 274.6 372.8 264 372.8C253.4 372.8 244.8 381.4 244.8 392C244.8 402.6 253.4 411.2 264 411.2z"/></svg>