<svg xmlns="http://www.w3.org/2000/svg" viewBox="0 0 640 640"><!--! Font Awesome Pro 7.2.0 by @fontawesome - https://fontawesome.com License - https://fontawesome.com/license (Commercial License) Copyright 2026 Fonticons, Inc. --><path fill="currentColor" d="M63.1 537.9L48 592C68.7 586.2 135.4 567.5 248 536L558.1 225.9L592 192C576.4 176.4 539.7 139.7 481.9 81.9L448 48C429.9 66.1 398.2 97.8 353 143C315.8 105.8 294.2 84.2 288 78L271 95L143 223L126 240L159.9 273.9L176.9 256.9L287.9 145.9L318.9 176.9L103.9 391.9L63 537.8zM353 210.9L429.1 287L222.9 493.2L117.2 522.8L146.8 417L353 210.9zM463 253.1L386.9 177L448 115.9L524.1 192L463 253.1z"/></svg>