<svg xmlns="http://www.w3.org/2000/svg" viewBox="0 0 640 640"><!--! Font Awesome Pro 7.2.0 by @fontawesome - https://fontawesome.com License - https://fontawesome.com/license (Commercial License) Copyright 2026 Fonticons, Inc. --><path fill="currentColor" d="M81.3 47.1L64.3 30.1L30.4 64L47.4 81L559.4 593L576.4 610L610.3 576.1L593.3 559.1L409.2 375C527.8 256.4 588.7 195.5 592.2 192C576.6 176.4 539.9 139.7 482.1 81.9L448.1 48C444.7 51.4 383.6 112.5 265.1 231L81.3 47.1zM299.1 264.9L353.1 210.9L429.2 287L375.2 341L299.1 264.9zM307.3 408.9L223.1 493.1L117.4 522.7L147 417L231.2 332.8L197.3 298.9L104.2 392C72.7 504.6 54 571.3 48.2 592C69 586.2 135.6 567.5 248.2 536L341.3 442.9L307.4 409zM463.2 253.1L387 177L448.1 115.9L524.2 192L463.2 253.1z"/></svg>