<svg xmlns="http://www.w3.org/2000/svg" viewBox="0 0 640 640"><!--! Font Awesome Pro 7.2.0 by @fontawesome - https://fontawesome.com License - https://fontawesome.com/license (Commercial License) Copyright 2026 Fonticons, Inc. --><path fill="currentColor" d="M438.1 262.1L438.1 262.1L434.5 272.8L378.2 441.6L156.7 511.5L255.2 413C260.4 414.9 266 416 271.9 416C298.4 416 319.9 394.5 319.9 368C319.9 341.5 298.4 320 271.9 320C245.4 320 223.9 341.5 223.9 368C223.9 373.9 225 379.5 226.9 384.7L128.4 483.2L198.3 261.7L367.1 205.4L377.9 201.8L377.9 201.8L438 261.9zM112 576L416 480L480 288C539.4 228.6 576.7 191.3 592 176C573.7 157.7 542.4 126.4 497.9 81.9L464 48C448.7 63.3 411.4 100.6 352 160L160 224L64 528L112 576z"/></svg>