<svg xmlns="http://www.w3.org/2000/svg" viewBox="0 0 640 640"><!--! Font Awesome Pro 7.2.0 by @fontawesome - https://fontawesome.com License - https://fontawesome.com/license (Commercial License) Copyright 2026 Fonticons, Inc. --><path fill="currentColor" d="M81.3 47.1L64.3 30.1L30.4 64L47.4 81L559.4 593L576.4 610L610.3 576.1L593.3 559.1L409.2 375C527.8 256.4 588.7 195.5 592.2 192C576.6 176.4 539.9 139.7 482.1 81.9L448.1 48C430 66.1 398.3 97.8 353.1 143C315.9 105.8 294.3 84.2 288.1 78C285.8 80.3 256.5 109.6 200.1 166L81.3 47.1zM234.1 200L288.1 146L319.1 177L265.1 231L234.1 200zM299.1 265L353.1 211L429.2 287.1L375.2 341.1L299.1 265zM341.2 443L307.3 409.1L223.1 493.3L117.4 522.9L147 417.2L231.2 333L197.3 299.1L104.2 392.2C72.7 504.8 54 571.4 48.2 592.2C68.9 586.4 135.6 567.7 248.2 536.2L341.3 443.1zM524.2 192L463.2 253.1L387 177L448.1 115.9L524.2 192z"/></svg>