<svg xmlns="http://www.w3.org/2000/svg" viewBox="0 0 640 640"><!--! Font Awesome Pro 7.2.0 by @fontawesome - https://fontawesome.com License - https://fontawesome.com/license (Commercial License) Copyright 2026 Fonticons, Inc. --><path fill="currentColor" d="M63.1 537.9L48 592C68.7 586.2 135.4 567.5 248 536L558.1 225.9L592 192C576.4 176.4 539.7 139.7 481.9 81.9L448 48L414.1 81.9L104 392L63.1 537.9zM117.2 522.8L146.8 417L353 210.9L429.1 287L223 493.2L117.2 522.8zM524.1 192L463 253.1L386.9 177L448 115.9L524.1 192zM251 177.1L159.9 85.9C145.8 71.9 126.8 64 106.9 64C65.5 64 32 97.5 32 138.9C32 158.8 39.9 177.8 53.9 191.9L145.1 283L179 249.1L87.9 157.9C82.9 152.9 80 146 80 138.9C80 124 92 112 106.9 112C114 112 120.9 114.8 125.9 119.9L217.1 211L251 177.1zM319.6 532.3C343.1 559.1 377.6 576 416 576L608 576L608 528L544 528L544 448C544 409.6 527.1 375.1 500.2 351.6L466.1 385.7C484.4 400.4 496 422.8 496 448L496 528L416 528C390.8 528 368.4 516.4 353.7 498.2L319.6 532.3z"/></svg>