<svg xmlns="http://www.w3.org/2000/svg" viewBox="0 0 640 640"><!--! Font Awesome Pro 7.2.0 by @fontawesome - https://fontawesome.com License - https://fontawesome.com/license (Commercial License) Copyright 2026 Fonticons, Inc. --><path fill="currentColor" d="M96 32C126.9 32 152 57.1 152 88C152 118.9 126.9 144 96 144C65.1 144 40 118.9 40 88C40 57.1 65.1 32 96 32zM32 176L150.8 176L157.4 189.3L214.8 304L224 304L224 160L416 160L416 304L425.2 304L482.6 189.3L489.2 176L608 176L608 336C608 363.7 595 389.8 572.8 406.4L480 476L480 608L432 608L432 452C433.6 450.8 449.6 438.8 480 416L480 301.7C465.7 330.4 457.3 347.2 454.8 352L185.1 352C182.7 347.1 174.3 330.3 159.9 301.7L160 416C190.4 438.8 206.4 450.8 208 452L208 608L160 608L160 476L67.2 406.4C45 389.8 32 363.7 32 336L32 176zM368 304L368 208L272 208L272 304L368 304zM112 380L112 224L80 224L80 336C80 348.6 85.9 360.4 96 368L112 380zM32 433.6C35.5 437.1 39.2 440.4 43 443.5L80 473.1L80 608.1L32 608.1L32 433.7zM544 32C574.9 32 600 57.1 600 88C600 118.9 574.9 144 544 144C513.1 144 488 118.9 488 88C488 57.1 513.1 32 544 32zM528 380L544 368C554.1 360.4 560 348.6 560 336L560 224L528 224L528 380zM608 433.6L608 608L560 608L560 473L597 443.4C600.9 440.3 604.6 437 608 433.5z"/></svg>