<svg xmlns="http://www.w3.org/2000/svg" viewBox="0 0 640 640"><!--! Font Awesome Pro 7.2.0 by @fontawesome - https://fontawesome.com License - https://fontawesome.com/license (Commercial License) Copyright 2026 Fonticons, Inc. --><path fill="currentColor" d="M192.1 32C223 32 248.1 57.1 248.1 88C248.1 118.9 223 144 192.1 144C161.2 144 136.1 118.9 136.1 88C136.1 57.1 161.2 32 192.1 32zM114.1 448L64.1 448C72.4 419.9 84.1 380.1 99.2 328.7C82.3 355.4 70.5 374.2 63.6 385.1L23 359.5L35.8 339.2L131.8 187.2L138.9 176L246 176L252.9 188L320.1 304.1L387.3 188L394.2 176L501.3 176L508.4 187.2L604.4 339.2L617.2 359.5L576.6 385.1C569.7 374.2 557.9 355.4 541 328.7C556.1 380.1 567.8 419.8 576.1 447.9L512.1 447.9L512.1 607.9L464.1 607.9L464.1 447.9L432.1 447.9L432.1 607.9L384.1 607.9L384.1 447.9L256.1 447.9L256.1 607.9L208.1 607.9L208.1 447.9L176.1 447.9L176.1 607.9L128.1 607.9L128.1 447.9L114.1 447.9zM334.2 400L348.8 350.2L347.8 352L292.3 352L291.3 350.3L305.9 400L334.1 400zM128.2 400L255.9 400L204.1 224L179.9 224L128.1 400zM384.2 400L511.9 400L460.1 224L435.9 224L384.1 400zM448.1 32C479 32 504.1 57.1 504.1 88C504.1 118.9 479 144 448.1 144C417.2 144 392.1 118.9 392.1 88C392.1 57.1 417.2 32 448.1 32z"/></svg>