<svg xmlns="http://www.w3.org/2000/svg" viewBox="0 0 640 640"><!--! Font Awesome Pro 7.2.0 by @fontawesome - https://fontawesome.com License - https://fontawesome.com/license (Commercial License) Copyright 2026 Fonticons, Inc. --><path fill="currentColor" d="M320 192C355.3 192 384 163.3 384 128C384 92.7 355.3 64 320 64C284.7 64 256 92.7 256 128C256 163.3 284.7 192 320 192zM216 152C216 121.1 190.9 96 160 96C129.1 96 104 121.1 104 152C104 182.9 129.1 208 160 208C190.9 208 216 182.9 216 152zM536 152C536 121.1 510.9 96 480 96C449.1 96 424 121.1 424 152C424 182.9 449.1 208 480 208C510.9 208 536 182.9 536 152zM160 256C107 256 64 299 64 352L64 464L96 464L96 544L144 544L144 416L112 416L112 352C112 325.5 133.5 304 160 304C162.4 304 164.8 304.2 167.2 304.5C172.1 288.6 179.5 273.7 188.8 260.4C179.7 257.5 170 256 160 256zM472.8 304.5C475.1 304.2 477.5 304 480 304C506.5 304 528 325.5 528 352L528 416L496 416L496 544L544 544L544 464L576 464L576 352C576 299 533 256 480 256C470 256 460.3 257.5 451.2 260.4C460.5 273.8 467.9 288.6 472.8 304.5zM400 512L400 464L432 464L432 352C432 290.1 381.9 240 320 240C258.1 240 208 290.1 208 352L208 464L240 464L240 576L400 576L400 512zM352 528L288 528L288 416L256 416L256 352C256 316.7 284.7 288 320 288C355.3 288 384 316.7 384 352L384 416L352 416L352 528z"/></svg>