<svg xmlns="http://www.w3.org/2000/svg" viewBox="0 0 640 640"><!--! Font Awesome Pro 7.2.0 by @fontawesome - https://fontawesome.com License - https://fontawesome.com/license (Commercial License) Copyright 2026 Fonticons, Inc. --><path fill="currentColor" d="M320 64C355.3 64 384 92.7 384 128C384 163.3 355.3 192 320 192C284.7 192 256 163.3 256 128C256 92.7 284.7 64 320 64zM104 152C104 121.1 129.1 96 160 96C190.9 96 216 121.1 216 152C216 182.9 190.9 208 160 208C129.1 208 104 182.9 104 152zM424 152C424 121.1 449.1 96 480 96C510.9 96 536 121.1 536 152C536 182.9 510.9 208 480 208C449.1 208 424 182.9 424 152zM160 256C170 256 179.7 257.5 188.8 260.4C179.5 273.8 172.1 288.6 167.2 304.5C164.9 304.2 162.5 304 160 304C133.5 304 112 325.5 112 352L112 416L144 416L144 480L96 480L96 464L64 464L64 352C64 299 107 256 160 256zM544 464L544 480L496 480L496 416L528 416L528 352C528 325.5 506.5 304 480 304C477.6 304 475.2 304.2 472.8 304.5C467.9 288.6 460.5 273.7 451.2 260.4C460.3 257.5 470 256 480 256C533 256 576 299 576 352L576 464L544 464zM400 464L400 480L352 480L352 416L384 416L384 352C384 316.7 355.3 288 320 288C284.7 288 256 316.7 256 352L256 416L288 416L288 480L240 480L240 464L208 464L208 352C208 290.1 258.1 240 320 240C381.9 240 432 290.1 432 352L432 464L400 464zM56 528L608 528L608 576L32 576L32 528L56 528z"/></svg>