<svg xmlns="http://www.w3.org/2000/svg" viewBox="0 0 640 640"><!--! Font Awesome Pro 7.2.0 by @fontawesome - https://fontawesome.com License - https://fontawesome.com/license (Commercial License) Copyright 2026 Fonticons, Inc. --><path fill="currentColor" d="M344 128C344 105.9 361.9 88 384 88L408 88L408 40L384 40C335.4 40 296 79.4 296 128L296 131C282 127.4 267 126.9 251.9 130.1C243.8 131.8 236.1 134.6 228.9 138.2C208.4 128.4 184.5 125.2 160.6 130.7C104.6 143.6 69.7 199.5 82.6 255.4L130.6 463.4C143.5 519.4 199.4 554.3 255.3 541.4C262.9 539.6 270.1 537.1 276.9 533.9C295.7 543.4 317.8 546.7 340.1 542C346.8 540.6 353.1 538.5 359.2 535.8C363.6 537.7 368.2 539.3 373 540.6C428.5 555.5 485.5 522.7 500.5 467.2L556.5 259.2C571.4 203.7 538.6 146.7 483.1 131.7C458.1 125 432.8 128 411.2 138.3C403.9 134.6 396 131.9 387.7 130.1C372.8 127 357.9 127.5 344.1 131.1L344.1 128.1zM341.5 184L344 184L344 182.4C353.9 176.7 365.8 174.5 377.8 177C384.8 178.5 391.1 181.4 396.5 185.3L410.2 195.4L424.3 185.7C437.4 176.7 454.1 173.4 470.6 177.8C500.5 185.8 518.2 216.6 510.1 246.4L454.1 454.4C446.1 484.3 415.3 502 385.5 493.9C380.3 492.5 375.6 490.5 371.2 487.9L358.4 480.3L345.9 488.3C341.2 491.3 335.9 493.5 330.1 494.8C316.1 497.8 302.3 494.4 291.6 486.5L277.9 476.4L263.8 486.1C258.2 489.9 251.8 492.8 244.7 494.5C214.6 501.5 184.5 482.7 177.5 452.5L129.5 244.5C122.5 214.4 141.3 184.3 171.5 177.3C187.4 173.6 203.3 177.1 215.8 185.7L229.9 195.4L243.6 185.3C248.9 181.4 255.1 178.5 262 177C274.1 174.4 286.1 176.6 296.1 182.4L296.1 184L298.6 184C300.5 185.3 302.4 186.7 304.1 188.2L320.1 202.5L336.1 188.2C337.8 186.7 339.7 185.2 341.6 184z"/></svg>