<svg xmlns="http://www.w3.org/2000/svg" viewBox="0 0 640 640"><!--! Font Awesome Pro 7.2.0 by @fontawesome - https://fontawesome.com License - https://fontawesome.com/license (Commercial License) Copyright 2026 Fonticons, Inc. --><path fill="currentColor" d="M320.3 144C351.2 144 376.3 118.9 376.3 88C376.3 57.1 351.2 32 320.3 32C289.4 32 264.3 57.1 264.3 88C264.3 118.9 289.4 144 320.3 144zM508.3 164.8L529.1 152.8L505.1 111.2L484.3 123.2L364.9 192L275.6 192L156.2 123.2L135.4 111.2L111.4 152.8L132.2 164.8L240.2 227L240.2 388.1L185.4 552.4L177.8 575.2L223.3 590.4L230.9 567.6L281.4 416L358.8 416L409.3 567.6L416.9 590.4L462.4 575.2L454.8 552.4L400 388.1L400 227L508 164.8zM352.3 368L288.3 368L288.3 240L352.3 240L352.3 368z"/></svg>