<svg xmlns="http://www.w3.org/2000/svg" viewBox="0 0 640 640"><!--! Font Awesome Pro 7.2.0 by @fontawesome - https://fontawesome.com License - https://fontawesome.com/license (Commercial License) Copyright 2026 Fonticons, Inc. --><path fill="currentColor" d="M128 32C158.9 32 184 57.1 184 88C184 118.9 158.9 144 128 144C97.1 144 72 118.9 72 88C72 57.1 97.1 32 128 32zM64 176L182.8 176L189.4 189.3L246.8 304L320 304L320 224L368 224L368 528L576 528L576 576L381.3 576C374.7 594.6 356.9 608 336 608C309.5 608 288 586.5 288 560C288 539.1 301.4 521.3 320 514.7L320 352L217.2 352C214.8 347.1 206.4 330.3 192 301.7L192 416C222.4 438.8 238.4 450.8 240 452L240 608L192 608L192 476L99.2 406.4C77 389.8 64 363.7 64 336L64 176zM144 380L144 224L112 224L112 336C112 348.6 117.9 360.4 128 368L144 380zM64 433.6C67.5 437.1 71.2 440.4 75 443.5L112 473.1L112 608.1L64 608.1L64 433.7zM576 320L576 480L416 480L416 320L576 320z"/></svg>