<svg xmlns="http://www.w3.org/2000/svg" viewBox="0 0 640 640"><!--! Font Awesome Pro 7.2.0 by @fontawesome - https://fontawesome.com License - https://fontawesome.com/license (Commercial License) Copyright 2026 Fonticons, Inc. --><path fill="currentColor" d="M160 32C190.9 32 216 57.1 216 88C216 118.9 190.9 144 160 144C129.1 144 104 118.9 104 88C104 57.1 129.1 32 160 32zM94.1 176L202.7 176L209.9 183.9L274.7 256L352 256L352 304L253.3 304C252.4 303 239.9 289.1 216 262.5L216 413.8L261.3 444L270.2 450L271.7 460.6C284.5 550 291 595.2 291.2 596.4L243.7 603.2C243.3 600.3 237.3 558.6 225.8 478.1L119.2 407C94.7 390.6 80 363.2 80 333.7L80 257.9L48 289.9L48 384L0 384L0 270.1L7 263.1L87 183.1L94 176.1zM128 224L128 333.7C128 347.1 134.7 359.6 145.8 367L168 381.8L168 224L128 224zM90.6 483.4L99.7 451.6L141.6 479.6C136.4 497.7 133.7 507.4 133.3 508.5L128.9 512.9L48.9 592.9L40.9 600.9L7 567L15 559L90.6 483.4zM609 337C551.8 394.2 522.2 423.8 520 426L486.1 392C495.1 383 511.1 367 534.1 344L408 344L408 296L534.1 296C511.1 273 495.1 257 486.1 248L520 214.1C522.1 216.2 551.8 245.9 609 303.1L626 320.1L609 337.1zM432 48L432 128L384 128L384 48L432 48zM432 200L432 256L384 256L384 176L432 176L432 200zM432 384L432 464L384 464L384 384L432 384zM432 536L432 592L384 592L384 512L432 512L432 536z"/></svg>