<svg xmlns="http://www.w3.org/2000/svg" viewBox="0 0 640 640"><!--! Font Awesome Pro 7.2.0 by @fontawesome - https://fontawesome.com License - https://fontawesome.com/license (Commercial License) Copyright 2026 Fonticons, Inc. --><path fill="currentColor" d="M112 236.1L112 576L64 576L64 208L320 64L576 208L576 576L528 576L528 236.1L320 119.1L112 236.1zM320 192C342.1 192 360 209.9 360 232C360 254.1 342.1 272 320 272C297.9 272 280 254.1 280 232C280 209.9 297.9 192 320 192zM257.7 288L382.4 288L389.2 300.6L445.2 404.6L456.6 425.7L414.3 448.5C408 436.7 397.9 418 384.1 392.3L384.1 576L336.1 576L336.1 480L304.1 480L304.1 576L256.1 576L256.1 392.3C242.3 418 232.2 436.7 225.9 448.5L183.6 425.7L195 404.6L251 300.6L257.8 288zM304 432L336 432L336 336L304 336L304 432z"/></svg>