<svg xmlns="http://www.w3.org/2000/svg" viewBox="0 0 640 640"><!--! Font Awesome Pro 7.2.0 by @fontawesome - https://fontawesome.com License - https://fontawesome.com/license (Commercial License) Copyright 2026 Fonticons, Inc. --><path fill="currentColor" d="M272 112C289.7 112 304 126.3 304 144C304 161.7 289.7 176 272 176C254.3 176 240 161.7 240 144C240 126.3 254.3 112 272 112zM272 224C316.2 224 352 188.2 352 144C352 99.8 316.2 64 272 64C227.8 64 192 99.8 192 144C192 188.2 227.8 224 272 224zM240 304L336 304L336 256L205.5 256L198.4 263.7L102.4 367.7L96 374.6L96 512L144 512L144 393.4L192 341.4L192 576L240 576L240 304zM448 64L432 64L432 96L448 96L448 192L432 192L432 256L384 256L384 448L448 448L448 576L544 576L516 464L576 464L576 416L512 416L512 389.3L576 368L576 256L528 256L528 328L512 333.3L512 192L496 192L496 64L448 64zM464 400L432 400L432 304L464 304L464 400z"/></svg>