<svg xmlns="http://www.w3.org/2000/svg" viewBox="0 0 640 640"><!--! Font Awesome Pro 7.2.0 by @fontawesome - https://fontawesome.com License - https://fontawesome.com/license (Commercial License) Copyright 2026 Fonticons, Inc. --><path fill="currentColor" d="M228 96.1L180 96.1L180 8.1L228 8.1L228 96.1zM4 232.1L4 184.1L92 184.1L92 232.1L4 232.1zM96.5 349.5L79.5 366.5L45.6 332.6C69.2 309 106.9 271.3 107.8 270.4L141.7 304.3C132.3 313.7 117.2 328.8 96.4 349.6zM45.6 83.6L79.5 49.7L141.7 111.9L107.8 145.8C84.3 122.3 46.6 84.6 45.6 83.6zM296.4 88C296.4 57.1 321.5 32 352.4 32C383.3 32 408.4 57.1 408.4 88C408.4 118.9 383.3 144 352.4 144C321.5 144 296.4 118.9 296.4 88zM288.8 176L415.9 176L423.1 186.2L524 330.2L537.8 349.9L498.5 377.4C495.7 373.5 473.7 342 432.4 283.1L432.4 608L384.4 608L384.4 432L320.4 432L320.4 608L272.4 608L272.4 283.1C231.1 342.1 209 373.5 206.3 377.4L167 349.9L180.8 330.2L281.7 186.2L288.9 176zM384.4 224L320.4 224L320.4 384L384.4 384L384.4 224z"/></svg>