<svg xmlns="http://www.w3.org/2000/svg" viewBox="0 0 640 640"><!--! Font Awesome Pro 7.2.0 by @fontawesome - https://fontawesome.com License - https://fontawesome.com/license (Commercial License) Copyright 2026 Fonticons, Inc. --><path fill="currentColor" d="M384.5 32C415.4 32 440.5 57.1 440.5 88C440.5 118.9 415.4 144 384.5 144C353.6 144 328.5 118.9 328.5 88C328.5 57.1 353.6 32 384.5 32zM318.5 176L427.1 176L434.3 183.9L499.1 256L576.4 256L576.4 304L477.7 304C476.8 303 464.3 289.1 440.4 262.5L440.4 413.8L485.7 444L494.6 450L496.1 460.6C509 550 515.5 595.2 515.6 596.4L468.1 603.2C467.7 600.3 461.7 558.6 450.2 478.1L343.7 407C319.2 390.7 304.5 363.2 304.5 333.8L304.5 258L272.5 290L272.5 328.1L272.5 328.1L272.5 381.8L272.5 381.8L272.5 384.1L271.3 384.1L197.9 530.8L197.1 530.4L158.7 607.2L151.5 621.5L137.2 614.3L57.2 574.3L42.9 567.1L50.1 552.8L122.1 408.8L129.3 394.5C132.5 396.1 154.7 407.2 195.7 427.7L224.4 370.3L224.4 270L231.4 263L311.4 183L318.4 176zM352.4 224L352.4 333.7C352.4 347.1 359.1 359.6 370.2 367L392.4 381.8L392.4 224L352.4 224zM315.1 483.4L324.2 451.6L366.1 479.6C360.9 497.7 358.2 507.4 357.8 508.5L353.4 512.9L273.4 592.9L265.4 600.9L231.5 567L239.5 559L315.1 483.4z"/></svg>