<svg xmlns="http://www.w3.org/2000/svg" viewBox="0 0 640 640"><!--! Font Awesome Pro 7.2.0 by @fontawesome - https://fontawesome.com License - https://fontawesome.com/license (Commercial License) Copyright 2026 Fonticons, Inc. --><path fill="currentColor" d="M528.3 272C546 272 560.3 286.3 560.3 304C560.3 321.7 546 336 528.3 336L108.3 336L85 208L86.1 208L141.6 264.8L148.7 272L279.2 272C278.3 269.5 257.9 210.8 218 96L246 96L407.3 264.6L414.4 272L528.3 272zM608.3 304C608.3 259.8 572.5 224 528.3 224L434.9 224L273.6 55.4L266.5 48L150.5 48C151.4 50.5 171.8 109.2 211.7 224L168.9 224L113.4 167.2L106.3 160L27.4 160L32.5 188.3L64.5 364.3L68.1 384L528.1 384C572.3 384 608.1 348.2 608.1 304zM56.3 528L32.3 528L32.3 576L608.3 576L608.3 528L56.3 528z"/></svg>