<svg xmlns="http://www.w3.org/2000/svg" viewBox="0 0 640 640"><!--! Font Awesome Pro 7.2.0 by @fontawesome - https://fontawesome.com License - https://fontawesome.com/license (Commercial License) Copyright 2026 Fonticons, Inc. --><path fill="currentColor" d="M120 64L266.6 64L273.7 71.9L497.7 319.9L497.6 320L575.9 320L575.9 368L143.9 368L143.9 388.7C254 478.8 391.9 528 534.2 528L576 528L576 576L534.2 576C379.8 576 230.3 522.2 111.3 423.9C107.3 420.6 102.2 416.4 96 411.3L96 320L194.4 320L129 94.7L120 64zM245.3 112L183.9 112L244.3 320L433.2 320L245.3 112zM368 416L512 416L512 464L344 464L344 416L368 416z"/></svg>