<svg xmlns="http://www.w3.org/2000/svg" viewBox="0 0 640 640"><!--! Font Awesome Pro 7.2.0 by @fontawesome - https://fontawesome.com License - https://fontawesome.com/license (Commercial License) Copyright 2026 Fonticons, Inc. --><path fill="currentColor" d="M352 464C352 384.5 416.5 320 496 320C575.5 320 640 384.5 640 464C640 543.5 575.5 608 496 608C416.5 608 352 543.5 352 464zM562.6 420L540 397.4C536 401.4 521.4 416 496 441.4C470.7 416 456 401.4 452 397.4L429.4 420C433.4 424 448 438.6 473.4 464C448 489.3 433.4 504 429.4 508L452 530.6C456 526.6 470.6 512 496 486.6C521.3 512 536 526.6 540 530.6L562.6 508C558.6 504 544 489.4 518.6 464C544 438.7 558.6 424 562.6 420zM208 56L208 32L160 32L160 160L64 160L64 208L96 208L96 288C96 385.9 169.3 466.7 264 478.5L264 576L312 576L312 519C300.6 480.6 303.9 447.9 306.9 430.8C300.7 431.6 294.4 432 288 432C208.5 432 144 367.5 144 288L144 208L432 208L432 282.9C447.2 277.5 463.3 274 480 272.6L480 207.9L512 207.9L512 159.9L416 159.9L416 31.9L368 31.9L368 159.9L208 159.9L208 55.9z"/></svg>