<svg xmlns="http://www.w3.org/2000/svg" viewBox="0 0 640 640"><!--! Font Awesome Pro 7.2.0 by @fontawesome - https://fontawesome.com License - https://fontawesome.com/license (Commercial License) Copyright 2026 Fonticons, Inc. --><path fill="currentColor" d="M208 32L208 160L368 160L368 32L416 32L416 160L512 160L512 208L480 208L480 272.7C463.3 274.1 447.2 277.6 432 283L432 208.1L144 208.1L144 288.1C144 367.6 208.5 432.1 288 432.1C294.4 432.1 300.7 431.7 306.9 430.9C303.9 448.1 300.6 480.7 312 519.1L312 576.1L264 576.1L264 478.6C169.3 466.7 96 385.9 96 288L96 208L64 208L64 160L160 160L160 32L208 32zM352 464C352 384.5 416.5 320 496 320C575.5 320 640 384.5 640 464C640 543.5 575.5 608 496 608C416.5 608 352 543.5 352 464zM576 480L576 448L416 448L416 480L576 480z"/></svg>