<svg xmlns="http://www.w3.org/2000/svg" viewBox="0 0 640 640"><!--! Font Awesome Pro 7.2.0 by @fontawesome - https://fontawesome.com License - https://fontawesome.com/license (Commercial License) Copyright 2026 Fonticons, Inc. --><path fill="currentColor" d="M118.3 136.2C164.4 67.6 253.6 41 318.7 87L318.7 87C363.9 118.3 373.8 178.5 356.3 234.5C401.4 198.6 460 186.9 504.9 219L510.8 223.4C569.9 270.6 575.1 361.1 530.7 427L530.7 427C450.9 544.7 283.5 605.8 162.9 519.3L162.9 519.3C42.7 433.4 38.6 254 118.3 136.2zM291.1 125.9C253 99 192.7 110.9 157.8 162.9L157.7 163C90 263 97 405 182 474.1L190.5 480.6L190.6 480.6L199.3 486.4C288 541.8 414.8 503 484.3 409.8L491.1 400.3C526 348.5 515.9 285.3 477.3 258L477.2 257.9C451.3 239.3 403.1 246.3 365 292.4L350.8 309.6C340.1 301.8 325.3 291.2 306.5 277.6L289.4 265.3L299.6 246.8C327 197.1 319.2 150.6 296.2 129.9L291.4 126.1L291.2 125.9z"/></svg>