<svg xmlns="http://www.w3.org/2000/svg" viewBox="0 0 640 640"><!--! Font Awesome Pro 7.2.0 by @fontawesome - https://fontawesome.com License - https://fontawesome.com/license (Commercial License) Copyright 2026 Fonticons, Inc. --><path fill="currentColor" d="M528 320C528 271.1 511.1 226.1 482.9 190.6C486.3 203.8 488 217.7 488 232C488 324.8 412.8 400 320 400C227.2 400 152 324.8 152 232C152 217.7 153.8 203.8 157.1 190.6C128.8 226.1 112 271.1 112 320C112 434.9 205.1 528 320 528C434.9 528 528 434.9 528 320zM320 576C178.6 576 64 461.4 64 320C64 178.6 178.6 64 320 64C461.4 64 576 178.6 576 320C576 461.4 461.4 576 320 576zM320 112C253.7 112 200 165.7 200 232C200 298.3 253.7 352 320 352C386.3 352 440 298.3 440 232C440 165.7 386.3 112 320 112zM320 200C328.8 200 336 192.8 336 184C336 175.2 328.8 168 320 168C311.2 168 304 175.2 304 184C304 192.8 311.2 200 320 200zM363.8 218.9C373.9 229.6 380 244.1 380 260C380 293.1 353.1 320 320 320C286.9 320 260 293.1 260 260C260 244.1 266.2 229.7 276.2 218.9C268.5 209.3 264 197.2 264 184C264 153.1 289.1 128 320 128C350.9 128 376 153.1 376 184C376 197.2 371.4 209.4 363.8 218.9zM320 240C309 240 300 249 300 260C300 271 309 280 320 280C331 280 340 271 340 260C340 249 331 240 320 240z"/></svg>