<svg xmlns="http://www.w3.org/2000/svg" viewBox="0 0 640 640"><!--! Font Awesome Pro 7.2.0 by @fontawesome - https://fontawesome.com License - https://fontawesome.com/license (Commercial License) Copyright 2026 Fonticons, Inc. --><path fill="currentColor" d="M120 64L96 64L96 384L144 384L144 288L222.1 288L350.1 416L242.3 523.8L225.3 540.8L259.2 574.7L276.2 557.7L384 449.9L491.8 557.7L508.8 574.7L542.7 540.8L525.7 523.8L417.9 416L525.7 308.2L542.7 291.2L508.8 257.3L491.8 274.3L384 382.1L288.7 286.8C342.6 278.7 384 232.2 384 176C384 114.1 333.9 64 272 64L120 64zM272 240L144 240L144 112L272 112C307.3 112 336 140.7 336 176C336 211.3 307.3 240 272 240z"/></svg>