<svg xmlns="http://www.w3.org/2000/svg" viewBox="0 0 640 640"><!--! Font Awesome Pro 7.2.0 by @fontawesome - https://fontawesome.com License - https://fontawesome.com/license (Commercial License) Copyright 2026 Fonticons, Inc. --><path fill="currentColor" d="M408 56L408 136L360 136L360 32L408 32L408 56zM257 79C287.5 109.5 306.5 128.5 314 136L280.1 169.9L223.1 112.9L206.1 95.9L240 62L257 79zM545 113C514.5 143.5 495.5 162.5 488 170L454.1 136C461.6 128.5 480.6 109.5 511.1 79L528.1 62L562 95.9L545 112.9zM384 416C437 416 480 373 480 320C480 267 437 224 384 224C331 224 288 267 288 320C288 373 331 416 384 416zM384 464C304.5 464 240 399.5 240 320C240 314.6 240.3 309.3 240.9 304L80 304L80 496L560 496L560 304L527.1 304C527.7 309.3 528 314.6 528 320C528 399.5 463.5 464 384 464zM384 176C440.5 176 489.5 208.6 513 256L608 256L608 544L544 544L544 576L496 576L496 544L144 544L144 576L96 576L96 544L32 544L32 256L255 256C278.6 208.6 327.5 176 384 176zM112 336L208 336L208 384L112 384L112 336zM224 416L224 464L112 464L112 416L224 416z"/></svg>