<svg xmlns="http://www.w3.org/2000/svg" viewBox="0 0 640 640"><!--! Font Awesome Pro 7.2.0 by @fontawesome - https://fontawesome.com License - https://fontawesome.com/license (Commercial License) Copyright 2026 Fonticons, Inc. --><path fill="currentColor" d="M112 144L112 240L208 240L208 144L112 144zM64 96L256 96L256 168L384 168L384 96L576 96L576 288L384 288L384 216L256 216L256 280L310 352L448 352L448 544L256 544L256 360L202 288L64 288L64 96zM304 400L304 496L400 496L400 400L304 400zM528 144L432 144L432 240L528 240L528 144z"/></svg>