<svg xmlns="http://www.w3.org/2000/svg" viewBox="0 0 640 640"><!--! Font Awesome Pro 7.2.0 by @fontawesome - https://fontawesome.com License - https://fontawesome.com/license (Commercial License) Copyright 2026 Fonticons, Inc. --><path fill="currentColor" d="M112 128L304 128L304 177.3L295.8 184.5C290.4 189.2 288 194.8 288 200C288 209.9 298.7 224 320 224C341.3 224 352 209.9 352 200C352 194.7 349.6 189.2 344.2 184.5L336 177.3L336 128L528 128L528 246.6C538.9 237.7 552.5 232 568 232C590.5 232 609 244.2 621.1 260.3C633.2 276.4 640 297.6 640 320C640 342.4 633.2 363.5 621.1 379.7C609 395.9 590.5 408 568 408C552.5 408 538.9 402.2 528 393.4L528 512L336 512L336 462.7L344.2 455.5C349.6 450.8 352 445.2 352 440C352 430.1 341.3 416 320 416C298.7 416 288 430.1 288 440C288 445.3 290.4 450.8 295.8 455.5L304 462.7L304 512L112 512L112 393.4C101.1 402.3 87.5 408 72 408C49.5 408 31 395.8 18.9 379.7C6.8 363.6 0 342.4 0 320C0 297.6 6.8 276.5 18.9 260.3C31 244.1 49.5 232 72 232C87.5 232 101.1 237.8 112 246.6L112 128zM160 176L160 304L95.9 304L88.9 292.4C83.1 282.8 76.5 280 72 280C68 280 62.5 282.1 57.3 289.1C52.1 296.1 48 307 48 320C48 333 52 343.8 57.3 350.9C62.6 358 68 360 72 360C76.5 360 83.2 357.2 88.9 347.6L95.9 336L160 336L160 464L244.5 464C241.6 456.6 240 448.5 240 440C240 396.9 279.4 368 320 368C360.6 368 400 396.9 400 440C400 448.5 398.4 456.6 395.5 464L480 464L480 336L544.1 336L551.1 347.6C556.9 357.2 563.5 360 568 360C572 360 577.5 357.9 582.7 350.9C587.9 343.9 592 333 592 320C592 307 588 296.2 582.7 289.1C577.4 282 572 280 568 280C563.5 280 556.8 282.8 551.1 292.4L544.1 304L480 304L480 176L395.5 176C398.4 183.4 400 191.5 400 200C400 243.1 360.6 272 320 272C279.4 272 240 243.1 240 200C240 191.5 241.6 183.4 244.5 176L160 176z"/></svg>