<svg xmlns="http://www.w3.org/2000/svg" viewBox="0 0 640 640"><!--! Font Awesome Pro 7.2.0 by @fontawesome - https://fontawesome.com License - https://fontawesome.com/license (Commercial License) Copyright 2026 Fonticons, Inc. --><path fill="currentColor" d="M32 160C32 107 75 64 128 64L160 64L160 112L128 112C101.5 112 80 133.5 80 160L176 160L176 304L32 304L32 160zM80 208L80 256L128 256L128 208L80 208zM208 160C208 107 251 64 304 64L336 64L336 112L304 112C277.5 112 256 133.5 256 160L352 160L352 304L208 304L208 160zM256 232L256 256L304 256L304 208L256 208L256 232zM608 480C608 533 565 576 512 576L480 576L480 528L512 528C538.5 528 560 506.5 560 480L464 480L464 336L608 336L608 480zM560 432L560 384L512 384L512 432L560 432zM432 480C432 533 389 576 336 576L304 576L304 528L336 528C362.5 528 384 506.5 384 480L288 480L288 336L432 336L432 480zM384 408L384 384L336 384L336 432L384 432L384 408z"/></svg>