<svg xmlns="http://www.w3.org/2000/svg" viewBox="0 0 640 640"><!--! Font Awesome Pro 7.2.0 by @fontawesome - https://fontawesome.com License - https://fontawesome.com/license (Commercial License) Copyright 2026 Fonticons, Inc. --><path fill="currentColor" d="M520 64L544 64L544 496L543.6 496C543.8 498.6 544 501.3 544 504L544 576L96 576L96 528L128 528L128 464L96 464L96 64L520 64zM176 464L176 528L496 528L496 504C496 481.9 478.1 464 456 464L176 464zM456 416C470.4 416 484 419.5 496 425.6L496 112L144 112L144 416L456 416zM376 206.7L388.9 237.6L422.3 240.3L396.9 262.1L404.7 294.7L376.1 277.2L347.5 294.7L355.3 262.1L329.9 240.3L363.3 237.6L376.2 206.7zM370.9 174.1C325.7 174.1 289 210.8 289 256C289 301.2 325.7 337.9 370.9 337.9C378.3 337.9 385.5 336.9 392.3 335.1C373 353 347.2 364 318.8 364C259.2 364 210.8 315.6 210.8 256C210.8 196.4 259.2 148 318.8 148C347.2 148 373 159 392.3 176.9C385.5 175.1 378.3 174.1 370.9 174.1z"/></svg>