<svg xmlns="http://www.w3.org/2000/svg" viewBox="0 0 640 640"><!--! Font Awesome Pro 7.2.0 by @fontawesome - https://fontawesome.com License - https://fontawesome.com/license (Commercial License) Copyright 2026 Fonticons, Inc. --><path fill="currentColor" d="M533.8 231.2C516.7 217.3 507.2 209.5 505.3 208L503.3 208C484.6 157.2 442.4 118.1 389.5 103.6C381 101.3 373.7 99.3 367.7 97.6C365.1 99.1 353 106.1 331.4 118.6L315 128C317.2 135.4 323.6 156.9 334.2 192.5C335.4 196.5 336.7 200.5 338.2 204.4L281.1 183.6C267.3 178.6 252.7 176 238 176L225.7 176C195.6 176 168.2 187.7 147.8 206.9C135.7 197.6 120.5 192 104 192C64.2 192 32 224.2 32 264C32 303.8 64.2 336 104 336C109.9 336 115.5 335.3 121 334C127 348.1 135.8 361 147.1 371.8L188.7 411.6C117 466.8 103.5 477.1 94.2 484.3C102.4 494.9 115.3 511.7 132.9 534.6L140.1 544L226.5 544L233 539L282.2 501.1C298.6 516.8 308 525.8 310.3 528L511.9 528L511.9 416L607.9 416L607.9 291.7L599.1 284.5L558 251C571.7 198.4 555.8 142.4 516.2 104.8L507 96L478.4 99.3L475 111.5C474 114.9 473.2 118.4 472.5 121.8C501.1 147.1 522.1 180.8 531.8 219.1C532.8 223.1 533.5 227.2 533.8 231.2zM247.2 467.6L210.2 496L163.8 496L161.5 493.1C163.8 491.3 184.6 475.4 223.7 445.2L247.1 467.6zM104 240C110.4 240 116.2 242.5 120.5 246.5C115.4 258.9 112.4 272.4 112.1 286.6C109.6 287.5 106.9 288 104.1 288C90.8 288 80.1 277.3 80.1 264C80.1 250.7 90.8 240 104.1 240zM374.3 149.2L376.8 149.9C418.8 161.4 451.3 194.6 461.9 236.7L465.7 258.8L488.1 256.4L488.6 256.3L559.9 314.4L559.9 367.9L414 367.9C409.8 372.1 404.2 377.7 397.1 384.8C387.4 341.2 353.8 305.6 309.1 294.4L285.8 288.6L274.2 335.2L297.5 341C329.6 349 352 377.8 352 410.8L352 447.8L464 447.8L464 479.8L329.6 479.8L180.3 336.9C167.3 324.5 160 307.4 160 289.4C160 253.1 189.4 223.7 225.7 223.7L238 223.7C247.1 223.7 256.1 225.3 264.7 228.4L394.1 275.5L417.4 234.3C399.8 220 386.7 200.6 380.1 178.5L371.7 150.4L374.2 148.9zM512 320C512 311.2 504.8 304 496 304C487.2 304 480 311.2 480 320C480 328.8 487.2 336 496 336C504.8 336 512 328.8 512 320z"/></svg>