<svg xmlns="http://www.w3.org/2000/svg" viewBox="0 0 640 640"><!--! Font Awesome Pro 7.2.0 by @fontawesome - https://fontawesome.com License - https://fontawesome.com/license (Commercial License) Copyright 2026 Fonticons, Inc. --><path fill="currentColor" d="M320 128L224 128L96 64L96 138.8C58.2 156.8 32 195.3 32 240C32 301.9 82.1 352 144 352C98.8 442.4 72.1 495.7 64 512C128.5 544.3 170 565 192 576C194.8 570.4 232.1 495.7 304 352L320 352L320 384L368 384L368 96L320 96L320 128zM250.3 352L170.5 511.6L128.4 490.5L197.7 352L250.4 352zM168 304L144 304C108.7 304 80 275.3 80 240C80 204.7 108.7 176 144 176L320 176L320 304L168 304zM448 128L400 128L400 352L448 352L448 272L512 272L608 320L608 160L512 208L448 208L448 128zM144 264C157.3 264 168 253.3 168 240C168 226.7 157.3 216 144 216C130.7 216 120 226.7 120 240C120 253.3 130.7 264 144 264zM264 240C264 226.7 253.3 216 240 216C226.7 216 216 226.7 216 240C216 253.3 226.7 264 240 264C253.3 264 264 253.3 264 240z"/></svg>