<svg xmlns="http://www.w3.org/2000/svg" viewBox="0 0 640 640"><!--! Font Awesome Pro 7.2.0 by @fontawesome - https://fontawesome.com License - https://fontawesome.com/license (Commercial License) Copyright 2026 Fonticons, Inc. --><path fill="currentColor" d="M528 176L528 464L112 464L112 176L528 176zM112 128L64 128L64 512L576 512L576 128L112 128zM160 280L160 288C160 318.9 185.1 344 216 344L248 344C252.4 344 256 347.6 256 352L256 360C256 364.4 252.4 368 248 368L168 368L168 416L248 416C278.9 416 304 390.9 304 360L304 352C304 321.1 278.9 296 248 296L216 296C211.6 296 208 292.4 208 288L208 280C208 275.6 211.6 272 216 272L296 272L296 224L216 224C185.1 224 160 249.1 160 280zM360 224L336 224L336 416L408 416C447.8 416 480 383.8 480 344L480 296C480 256.2 447.8 224 408 224L360 224zM384 368L384 272L408 272C421.3 272 432 282.7 432 296L432 344C432 357.3 421.3 368 408 368L384 368z"/></svg>