<svg xmlns="http://www.w3.org/2000/svg" viewBox="0 0 640 640"><!--! Font Awesome Pro 7.2.0 by @fontawesome - https://fontawesome.com License - https://fontawesome.com/license (Commercial License) Copyright 2026 Fonticons, Inc. --><path fill="currentColor" d="M344 96L344 544L296 544L296 96L344 96zM214.1 286.1L248 320C236.7 331.3 191.4 376.6 112 456L64 504L64 136C87 159 137 209 214.1 286.1zM112 251.9L112 388.1L180.1 320L112 251.9zM392 320C403.3 308.7 448.6 263.4 528 184L576 136L576 504L392 320zM459.9 320L528 388.1L528 251.9L459.9 320z"/></svg>