<svg xmlns="http://www.w3.org/2000/svg" viewBox="0 0 640 640"><!--! Font Awesome Pro 7.2.0 by @fontawesome - https://fontawesome.com License - https://fontawesome.com/license (Commercial License) Copyright 2026 Fonticons, Inc. --><path fill="currentColor" d="M537 177L554 160L537 143L449 55L432 38L398.1 71.9C404.4 78.2 425.7 99.5 462.1 135.9L88 135.9L64 135.9L64 351.9L112 351.9L112 183.9L462.1 183.9C425.7 220.3 404.4 241.6 398.1 247.9L432 281.8L449 264.8L537 176.8zM103 463L86 480L103 497L191 585L208 602L241.9 568.1C235.6 561.8 214.3 540.5 177.9 504.1L576 504.1L576 288.1L528 288.1L528 456.1L177.9 456.1C214.3 419.7 235.6 398.4 241.9 392.1L208 358.2L191 375.2L103 463.2z"/></svg>