<svg xmlns="http://www.w3.org/2000/svg" viewBox="0 0 640 640"><!--! Font Awesome Pro 7.2.0 by @fontawesome - https://fontawesome.com License - https://fontawesome.com/license (Commercial License) Copyright 2026 Fonticons, Inc. --><path fill="currentColor" d="M480.3 544C480.3 544 522.1 528.3 558 491C584.9 463 608.3 422.9 608.3 368C608.3 270.8 529.5 192 432.3 192L384.3 192L384.3 48C368 64.3 304.6 127.7 194.3 238.1L160.3 272C164.9 276.6 223.6 335.3 336.3 448L384.3 496L384.3 352L400.3 352C411.4 352 422.2 353.6 432.3 356.6C478.6 370.4 512.3 413.2 512.3 464C512.3 465.4 512.3 466.9 512.2 468.3C510.4 513.9 480.3 544 480.3 544zM560.3 368C560.3 385 557.2 400 552.1 413.4C530.9 349.8 470.9 304 400.3 304L336.3 304L336.3 380.1L228.2 272L336.3 163.9L336.3 240L432.3 240C503 240 560.3 297.3 560.3 368zM265.3 95.6L231.3 61.7L38 255L21 272L38 289L231.3 482.3L265.3 448.4L88.9 272L265.3 95.6z"/></svg>