<svg xmlns="http://www.w3.org/2000/svg" viewBox="0 0 640 640"><!--! Font Awesome Pro 7.2.0 by @fontawesome - https://fontawesome.com License - https://fontawesome.com/license (Commercial License) Copyright 2026 Fonticons, Inc. --><path fill="currentColor" d="M128 192C163.3 192 192 163.3 192 128C192 92.7 163.3 64 128 64C92.7 64 64 92.7 64 128C64 163.3 92.7 192 128 192zM80 368L80 272L176 272L176 368L80 368zM32 224L32 416L64 416L64 576L112 576L112 416L144 416L144 576L192 576L192 416L224 416L224 224L32 224zM344 64L296 64L296 576L344 576L344 64zM576 128C576 92.7 547.3 64 512 64C476.7 64 448 92.7 448 128C448 163.3 476.7 192 512 192C547.3 192 576 163.3 576 128zM484.2 272L539.8 272L576.4 400L447.7 400L484.3 272zM576 224L448 224C408.4 362.7 387 437.3 384 448L448 448L448 576L496 576L496 448L528 448L528 576L576 576L576 448L640 448C637 437.3 615.6 362.6 576 224z"/></svg>