<svg xmlns="http://www.w3.org/2000/svg" viewBox="0 0 640 640"><!--! Font Awesome Pro 7.2.0 by @fontawesome - https://fontawesome.com License - https://fontawesome.com/license (Commercial License) Copyright 2026 Fonticons, Inc. --><path fill="currentColor" d="M145.4 103L128.4 86L39.4 175L22.4 192L56.3 225.9C65.3 216.9 81.3 200.9 104.3 177.9L104.3 544L352.3 544L352.3 496L152.3 496L152.3 177.9C175.3 200.9 191.3 216.9 200.3 225.9L234.4 192C232.3 189.9 202.6 160.2 145.4 103zM495.5 537L512.5 554C514.6 551.9 544.3 522.2 601.5 465L618.5 448L584.6 414.1C575.6 423.1 559.6 439.1 536.6 462.1L536.6 96L288.6 96L288.6 144L488.6 144L488.6 462.1C465.6 439.1 449.6 423.1 440.6 414.1L406.5 448C408.6 450.1 438.3 479.8 495.5 537z"/></svg>