<svg xmlns="http://www.w3.org/2000/svg" viewBox="0 0 640 640"><!--! Font Awesome Pro 7.2.0 by @fontawesome - https://fontawesome.com License - https://fontawesome.com/license (Commercial License) Copyright 2026 Fonticons, Inc. --><path fill="currentColor" d="M576 448L576 512L512 512L512 448L576 448zM576 341.3L576 405.3L512 405.3L512 341.3L576 341.3zM576 298.6L512 298.6L512 234.6L576 234.6L576 298.6zM576 128L576 192L512 192L512 128L576 128zM256 128C276 146.9 332 199.9 424 287L458.9 320C449.8 328.6 398.2 377.5 304 466.6L256 512L256 400L64 400L64 240L192 240L192 240L256 240L256 128zM192 288L112 288L112 352L304 352L304 400.5L389 320L304 239.5L304 288L192 288L192 288z"/></svg>