<svg xmlns="http://www.w3.org/2000/svg" viewBox="0 0 640 640"><!--! Font Awesome Pro 7.2.0 by @fontawesome - https://fontawesome.com License - https://fontawesome.com/license (Commercial License) Copyright 2026 Fonticons, Inc. --><path fill="currentColor" d="M236.5 152L216 114.5L217.7 112L262.3 112L264 114.5L243.5 152L236.5 152zM160 112L190.1 167.2C117.2 188.7 64 256.2 64 336C64 433.2 142.8 512 240 512C247.8 512 255.5 511.5 263 510.5C295.3 550.4 344.6 576 400 576C497.2 576 576 497.2 576 400C576 315.2 516 244.4 436.1 227.7C446.1 245.8 453.7 265.4 458.4 286.1C499.7 307.3 528 350.4 528 400C528 470.7 470.7 528 400 528C329.3 528 272 470.7 272 400C272 345.1 306.6 298.2 355.2 280.1C363.4 297 368 316 368 336C368 373.5 351.8 407.3 326.1 430.7C332.4 445.9 343.3 458.7 357 467.5C393.2 435.3 416 388.3 416 336C416 256.1 362.8 188.7 289.9 167.2L320 112L288 64L192 64L160 112zM325.3 240.6C265.4 268.7 224 329.5 224 400C224 422.6 228.2 444.1 236 463.9C167.2 461.8 112 405.3 112 336C112 265.3 169.3 208 240 208C272.8 208 302.7 220.3 325.3 240.6z"/></svg>