<svg xmlns="http://www.w3.org/2000/svg" viewBox="0 0 640 640"><!--! Font Awesome Pro 7.2.0 by @fontawesome - https://fontawesome.com License - https://fontawesome.com/license (Commercial License) Copyright 2026 Fonticons, Inc. --><path fill="currentColor" d="M207.4 144L124.6 496L306.6 496C309.4 512.8 314.4 528.9 321.4 544L64 544L75.3 496L169.4 96L470.6 96L512.2 272.7C506.9 272.3 501.5 272 496 272C484.9 272 474 272.9 463.3 274.8L432.5 144L343.9 144L343.9 208L295.9 208L295.9 144L207.3 144zM321.4 384L296 384L296 256L344 256L344 346.7C335.1 358.2 327.5 370.7 321.4 384zM496 320C575.5 320 640 384.5 640 464C640 543.5 575.5 608 496 608C416.5 608 352 543.5 352 464C352 384.5 416.5 320 496 320zM512 544L512 512L480 512L480 544L512 544zM512 368L480 368L480 480L512 480L512 368z"/></svg>