<svg xmlns="http://www.w3.org/2000/svg" viewBox="0 0 640 640"><!--! Font Awesome Pro 7.2.0 by @fontawesome - https://fontawesome.com License - https://fontawesome.com/license (Commercial License) Copyright 2026 Fonticons, Inc. --><path fill="currentColor" d="M320 35.2L333.3 44C371.6 69.5 424 114.3 446.3 185.9C459.4 227.9 461.6 277.2 446.5 334.6L528 416C502.5 509.3 486.5 568 480 592L376.6 488.6C375 487 373.3 485.5 371.6 484L268.4 484C266.7 485.4 265 487 263.4 488.6C216.3 535.7 181.8 570.2 160 592C153.5 568 137.5 509.3 112 416L193.5 334.5C178.4 277.1 180.5 227.9 193.6 185.9C216 114.4 268.4 69.5 306.7 44L320 35.2zM400.2 445.4C403.8 448.3 407.2 451.4 410.5 454.7L455.4 499.6L474.3 430.3L429.3 385.3C421.4 404.5 411.8 424.5 400.1 445.3zM210.6 385.4L165.6 430.4L184.5 499.7L229.4 454.8C232.7 451.5 236.2 448.4 239.7 445.5C228 424.7 218.3 404.7 210.5 385.5zM289.9 436L350.1 436C413.6 329.8 417.2 253.7 400.5 200.2C385.1 151 351.2 116.5 320 93.3C288.8 116.5 254.8 151 239.5 200.2C222.8 253.7 226.5 329.8 289.9 436zM320 184C342.1 184 360 201.9 360 224C360 246.1 342.1 264 320 264C297.9 264 280 246.1 280 224C280 201.9 297.9 184 320 184z"/></svg>