<svg xmlns="http://www.w3.org/2000/svg" viewBox="0 0 640 640"><!--! Font Awesome Pro 7.2.0 by @fontawesome - https://fontawesome.com License - https://fontawesome.com/license (Commercial License) Copyright 2026 Fonticons, Inc. --><path fill="currentColor" d="M332.6 75.4L320.2 68C311.2 73.4 304.5 77.4 299.9 80.2C261.6 103.2 214.4 105.9 173.7 87.4C167.4 84.5 156.9 79.8 142.3 73.1C138.6 79.6 124.3 104.6 99.4 148.1L93 159.2C95.1 163.4 102.4 178 115 203.2C123.7 220.6 128.2 239.8 128.2 259.2C128.2 275.1 125.2 290.9 119.2 305.7L104.9 341.7C99.2 356 96.2 371.3 96.2 386.7C96.2 433.4 123 475.9 165 496.1L309.8 565.6L320.2 570.6L330.6 565.6L475.4 496.1C517.5 475.9 544.2 433.4 544.2 386.7C544.2 371.3 541.3 356 535.5 341.6L521.1 305.7C515.2 290.9 512.1 275.1 512.1 259.2C512.1 239.7 516.6 220.6 525.3 203.2C537.9 178.1 545.2 163.4 547.3 159.2L541 148.1C516.1 104.6 501.9 79.6 498.1 73.1C483.4 79.8 472.9 84.5 466.7 87.4C426 105.9 378.8 103.2 340.5 80.2L332.5 75.4zM176.2 256L464.3 256C464.3 257.1 464.3 258.2 464.3 259.2C464.3 281.2 468.5 303.1 476.7 323.6L491 359.5C494.5 368.2 496.2 377.4 496.2 386.7C496.2 414.9 480 440.6 454.6 452.8L320.2 517.4L185.8 452.9C160.4 440.7 144.2 415 144.2 386.8C144.2 377.5 146 368.2 149.4 359.6L163.8 323.7C172 303.2 176.2 281.4 176.2 259.3C176.2 258.2 176.2 257.1 176.2 256.1z"/></svg>