<svg xmlns="http://www.w3.org/2000/svg" viewBox="0 0 640 640"><!--! Font Awesome Pro 7.2.0 by @fontawesome - https://fontawesome.com License - https://fontawesome.com/license (Commercial License) Copyright 2026 Fonticons, Inc. --><path fill="currentColor" d="M183.3 183.8C279.5 87.6 459.7 45.8 526.4 112.5C593.1 179.3 555.2 363.3 459 459.5C362.8 555.7 179.5 592.9 112.8 526.2C46 459.4 87.1 280 183.3 183.8zM508 258.8C481.5 304.2 441.9 356.5 398.9 399.5C356.1 442.3 304 481.7 258.8 508.1C261 507.7 263.3 507.4 265.6 506.9C324 495.5 384.8 465.9 425.1 425.7L432.5 417.9C469 377.8 495.8 320.7 506.7 265.7C507.2 263.4 507.5 261.1 507.9 258.9zM491.9 146.8C471.3 126.3 368.7 186.4 289.9 260.1L274.5 275C194.2 355.3 125 469.9 146.9 491.8C167.4 512.4 270.6 454 349.5 380.5L364.9 365.6C442.7 287.8 509.5 176 493.7 149.2L491.9 146.9zM376 134C322 145.7 265.5 173.3 225.1 210.3L217.2 217.8C176.5 258.5 146.1 318.7 133.8 376.1C133.8 376.2 133.7 376.3 133.7 376.4C160.3 332.5 198.9 282.6 240.4 241.1C282 199.5 332.2 160.7 376.3 133.9C376.2 133.9 376.1 134 376 134z"/></svg>