<svg xmlns="http://www.w3.org/2000/svg" viewBox="0 0 640 640"><!--! Font Awesome Pro 7.2.0 by @fontawesome - https://fontawesome.com License - https://fontawesome.com/license (Commercial License) Copyright 2026 Fonticons, Inc. --><path fill="currentColor" d="M208 32L160 32L160 112L208 112L208 32zM480 352L480 32L432 32L432 352L480 352zM384 32L352 32L352 112L384 112L384 32zM320 32L256 32L256 112L320 112L320 32zM512 32L512 352L576 352L576 32L512 32zM336 208L336 528L112 528L112 208L336 208zM112 160L64 160L64 576L384 576L384 160L112 160zM256 288L256 448L192 448L192 288L256 288zM192 240L144 240L144 496L304 496L304 240L192 240z"/></svg>