<svg xmlns="http://www.w3.org/2000/svg" viewBox="0 0 640 640"><!--! Font Awesome Pro 7.2.0 by @fontawesome - https://fontawesome.com License - https://fontawesome.com/license (Commercial License) Copyright 2026 Fonticons, Inc. --><path fill="currentColor" d="M320 65.4L334.9 77.2L480.3 192L608 192L608 576L32 576L32 192L159.7 192L305.1 77.2L320 65.4zM320 126.6L182.9 234.9L176.4 240.1L80.1 240.1L80.1 528.1L256.1 528.1L256.1 400.1L384.1 400.1L384.1 528.1L560.1 528.1L560.1 240.1L463.8 240.1L457.3 234.9L320.2 126.6zM128 480L128 416L192 416L192 480L128 480zM192 352L128 352L128 288L192 288L192 352zM448 480L448 416L512 416L512 480L448 480zM512 352L448 352L448 288L512 288L512 352zM320 192C355.3 192 384 220.7 384 256C384 291.3 355.3 320 320 320C284.7 320 256 291.3 256 256C256 220.7 284.7 192 320 192z"/></svg>