<svg xmlns="http://www.w3.org/2000/svg" viewBox="0 0 640 640"><!--! Font Awesome Pro 7.2.0 by @fontawesome - https://fontawesome.com License - https://fontawesome.com/license (Commercial License) Copyright 2026 Fonticons, Inc. --><path fill="currentColor" d="M80 184L80 224L144 224L144 144L120 144C97.9 144 80 161.9 80 184zM192 144L192 496L216 496C238.1 496 256 478.1 256 456L256 368L432 368L432 184C432 161.9 414.1 144 392 144L192 144zM480 368L576 368L576 456C576 504.6 536.6 544 488 544L224 544L224 543.6C221.4 543.8 218.7 544 216 544L144 544L144 272L32 272L32 184C32 138.1 67.1 100.4 112 96.4L112 96L392 96C440.6 96 480 135.4 480 184L480 368zM488 496C510.1 496 528 478.1 528 456L528 416L304 416L304 456C304 470.4 300.5 484 294.4 496L488 496z"/></svg>