<svg xmlns="http://www.w3.org/2000/svg" viewBox="0 0 640 640"><!--! Font Awesome Pro 7.2.0 by @fontawesome - https://fontawesome.com License - https://fontawesome.com/license (Commercial License) Copyright 2026 Fonticons, Inc. --><path fill="currentColor" d="M80 184L80 224L144 224L144 144L120 144C97.9 144 80 161.9 80 184zM192 144L192 292.5C213.9 310 232.1 324.6 246.4 336C232 347.5 213.9 362 192 379.5L192 496L216 496C238.1 496 256 478.1 256 456L256 368L363.5 368C367.3 372.7 374.1 381.3 384 393.6C393.8 381.3 400.7 372.8 404.5 368L432 368L432 299.5C410.1 282 391.9 267.4 377.6 256C392 244.5 410.1 230 432 212.5L432 184C432 161.9 414.1 144 392 144L192 144zM480 368L576 368L576 456C576 504.6 536.6 544 488 544L224 544L224 543.6C221.4 543.8 218.7 544 216 544L144 544L144 356.5C148.7 352.7 157.3 345.9 169.6 336C157.3 326.2 148.8 319.3 144 315.5L144 272L32 272L32 184C32 138.1 67.1 100.4 112 96.4L112 96L392 96C440.6 96 480 135.4 480 184L480 235.5C475.3 239.3 466.7 246.1 454.4 256C466.7 265.8 475.2 272.7 480 276.5L480 368zM488 496C510.1 496 528 478.1 528 456L528 416L427.5 416C410 437.9 395.5 456.1 384 470.4C372.5 456 358 437.9 340.5 416L304 416L304 456C304 470.4 300.5 484 294.4 496L488 496z"/></svg>