<svg xmlns="http://www.w3.org/2000/svg" viewBox="0 0 640 640"><!--! Font Awesome Pro 7.2.0 by @fontawesome - https://fontawesome.com License - https://fontawesome.com/license (Commercial License) Copyright 2026 Fonticons, Inc. --><path fill="currentColor" d="M353.9 97.9L384 128L512 128L512 256C531.4 275.4 552.7 296.7 576 320C552.7 343.3 531.4 364.6 512 384L512 512L384 512C364.6 531.4 343.3 552.7 320 576C296.7 552.7 275.4 531.4 256 512L128 512L128 384C108.6 364.6 87.3 343.3 64 320C87.3 296.7 108.6 275.4 128 256L128 128L256 128C275.4 108.6 296.7 87.3 320 64L353.9 97.9zM384 176L364.1 176C357.4 169.3 342.7 154.6 320 131.9C297.3 154.6 282.6 169.3 275.9 176L176 176L176 275.9C169.3 282.6 154.6 297.3 131.9 320C154.6 342.7 169.3 357.4 176 364.1L176 464L275.9 464C282.6 470.7 297.3 485.4 320 508.1C342.7 485.4 357.4 470.7 364.1 464L464 464L464 364.1C470.7 357.4 485.4 342.7 508.1 320C485.4 297.3 470.7 282.6 464 275.9L464 176L384 176zM320 245.2C302.3 245.2 288 259.5 288 277.2L245.6 277.2C245.6 236.1 278.9 202.8 320 202.8C361.1 202.8 394.4 236.1 394.4 277.2C394.4 310.7 371.6 336.2 341.2 346.8L341.2 365.1L298.8 365.1L298.8 311.6L302.1 311.1C323.2 308.1 352 304 352 277.1C352 259.4 337.7 245.1 320 245.1zM296 392L344 392L344 440L296 440L296 392z"/></svg>