<svg xmlns="http://www.w3.org/2000/svg" viewBox="0 0 640 640"><!--! Font Awesome Pro 7.2.0 by @fontawesome - https://fontawesome.com License - https://fontawesome.com/license (Commercial License) Copyright 2026 Fonticons, Inc. --><path fill="currentColor" d="M160.3 544C160.3 544 118.5 528.3 82.6 491C55.7 463 32.3 422.9 32.3 368C32.3 270.8 111.1 192 208.3 192L256.3 192L256.3 48C272.6 64.3 336 127.7 446.4 238.1L480.3 272C475.7 276.6 417 335.3 304.3 448L256.3 496L256.3 352L240.3 352C229.2 352 218.4 353.6 208.3 356.6C162 370.4 128.3 413.2 128.3 464C128.3 465.4 128.3 466.9 128.4 468.3C130.2 513.9 160.3 544 160.3 544zM80.3 368C80.3 385 83.4 400 88.5 413.4C109.7 349.8 169.7 304 240.3 304L304.3 304L304.3 380.1L412.4 272L304.3 163.9L304.3 240L208.3 240C137.6 240 80.3 297.3 80.3 368zM375.3 95.6L409.2 61.7L602.6 255.1L619.6 272.1L602.6 289.1L409.2 482.5L375.3 448.6L551.7 272.2L375.3 95.8z"/></svg>