<svg xmlns="http://www.w3.org/2000/svg" viewBox="0 0 640 640"><!--! Font Awesome Pro 7.2.0 by @fontawesome - https://fontawesome.com License - https://fontawesome.com/license (Commercial License) Copyright 2026 Fonticons, Inc. --><path fill="currentColor" d="M112 64L112 232L528 232L528 64L576 64L576 576L528 576L528 536L112 536L112 576L64 576L64 64L112 64zM112 488L528 488L528 280L112 280L112 488zM304 320L304 448L176 448L176 320L304 320zM336 320L464 320L464 448L336 448L336 320zM464 64L464 192L336 192L336 64L464 64z"/></svg>