<svg xmlns="http://www.w3.org/2000/svg" viewBox="0 0 640 640"><!--! Font Awesome Pro 7.2.0 by @fontawesome - https://fontawesome.com License - https://fontawesome.com/license (Commercial License) Copyright 2026 Fonticons, Inc. --><path fill="currentColor" d="M331.6 68.5L539.1 149L558.3 156.4L559.5 176.9C562.4 226.8 554.6 303.2 522.2 377.8L515.8 392C482 462.4 425 530.6 332.8 570.5L320.1 576L307.4 570.5C215.1 530.6 158 462.4 124.3 392L117.9 377.9C87.5 307.9 78.8 236.5 80.2 186.6L80.6 177L81.8 156.5L101 149L308.5 68.5L320 64L331.6 68.5zM128.1 190C127.1 233.5 135 296.9 161.9 358.8L167.6 371.3C196.5 431.7 244.2 488.7 320 523.5C401 486.4 449.9 423.8 478.1 358.8L483.3 346.2C506 288.4 512.8 230.5 511.9 190L320 115.5L128.1 190zM426.7 400L213.4 400L240.1 320L400.1 320L426.8 400zM320 288C293.5 288 272 266.5 272 240C272 213.5 293.5 192 320 192C346.5 192 368 213.5 368 240C368 266.5 346.5 288 320 288z"/></svg>