<svg xmlns="http://www.w3.org/2000/svg" viewBox="0 0 640 640"><!--! Font Awesome Pro 7.2.0 by @fontawesome - https://fontawesome.com License - https://fontawesome.com/license (Commercial License) Copyright 2026 Fonticons, Inc. --><path fill="currentColor" d="M128.1 190L320 115.5L512 190C513 233.5 505.1 296.9 478.2 358.8C450 423.7 401.1 486.5 320.1 523.6C239 486.5 190.2 423.7 162 358.8C135.1 296.9 127.2 233.5 128.2 190zM559.5 177L558.3 156.5L539.1 149L331.6 68.5L320 64L308.5 68.5L101 149L81.8 156.5L80.6 177C77.7 226.9 85.5 303.3 117.9 377.9C150.6 453.1 208.9 527.9 307.3 570.5L320 576L332.7 570.5C431.1 527.9 489.4 453.2 522.1 377.9C554.5 303.2 562.3 226.9 559.4 177zM224.9 334.2L208 368L336 432L336 368L384 368C428.2 368 464 332.2 464 288L464 240L384 240L368 208L304 208L304 272C304 307.3 275.3 336 240 336C234.8 336 229.7 335.4 224.9 334.2zM208 208L208 272C208 289.7 222.3 304 240 304C257.7 304 272 289.7 272 272L272 208L208 208zM320 256C320 247.2 327.2 240 336 240C344.8 240 352 247.2 352 256C352 264.8 344.8 272 336 272C327.2 272 320 264.8 320 256z"/></svg>