<svg xmlns="http://www.w3.org/2000/svg" viewBox="0 0 640 640"><!--! Font Awesome Pro 7.2.0 by @fontawesome - https://fontawesome.com License - https://fontawesome.com/license (Commercial License) Copyright 2026 Fonticons, Inc. --><path fill="currentColor" d="M128.1 190L320 115.5L512 190C513 233.5 505.1 296.9 478.2 358.8C450 423.7 401.1 486.5 320.1 523.6C239 486.5 190.2 423.7 162 358.8C135.1 296.9 127.2 233.5 128.2 190zM559.5 177L558.3 156.5L539.1 149L331.6 68.5L320 64L308.5 68.5L101 149L81.8 156.5L80.6 177C77.7 226.9 85.5 303.3 117.9 377.9C150.6 453.1 208.9 527.9 307.3 570.5L320 576L332.7 570.5C431.1 527.9 489.4 453.2 522.1 377.9C554.5 303.2 562.3 226.9 559.4 177zM404.9 253.1L371 219.2C362.5 227.7 345.5 244.7 320.1 270.1L269.2 219.2L235.3 253.1C243.8 261.6 260.8 278.6 286.2 304C260.7 329.5 243.8 346.4 235.3 354.9L269.2 388.8C277.7 380.3 294.7 363.3 320.1 337.9C345.6 363.4 362.5 380.3 371 388.8L404.9 354.9C396.4 346.4 379.4 329.4 354 304C379.5 278.5 396.4 261.6 404.9 253.1z"/></svg>