<svg xmlns="http://www.w3.org/2000/svg" viewBox="0 0 640 640"><!--! Font Awesome Pro 7.2.0 by @fontawesome - https://fontawesome.com License - https://fontawesome.com/license (Commercial License) Copyright 2026 Fonticons, Inc. --><path fill="currentColor" d="M416.4 64L224.4 64L224.4 128L128.4 128L128.4 316.8L80.4 336L121.2 458.3L165.8 440.4L140.2 363.7L296.4 301.2L296.4 464.9L320.4 474.5L344.4 464.9L344.4 301.2L500.6 363.7L475 440.4L519.6 458.3L560.4 336L512.4 316.8L512.4 128L416.4 128L416.4 64zM320.4 240L176.4 297.6L176.4 176L464.4 176L464.4 297.6L320.4 240zM209.3 481.7L200.4 478.1L191.5 481.7L79.7 526.4C50.4 516.6 29.6 509.7 17.3 505.6L2 551.2C13 554.9 36.6 562.7 72.8 574.8L81.1 577.6L89.3 574.3L200.4 529.9L311.5 574.3L320.4 577.9L329.3 574.3L440.4 529.9L551.5 574.3L559.7 577.6L568 574.8C604.2 562.7 627.8 554.9 638.8 551.2L623.6 505.7C611.2 509.8 590.4 516.8 561.2 526.5L449.4 481.8L440.5 478.2L431.6 481.8L320.5 526.2L209.4 481.8z"/></svg>