<svg xmlns="http://www.w3.org/2000/svg" viewBox="0 0 640 640"><!--! Font Awesome Pro 7.2.0 by @fontawesome - https://fontawesome.com License - https://fontawesome.com/license (Commercial License) Copyright 2026 Fonticons, Inc. --><path fill="currentColor" d="M240 136C240 180.2 275.8 216 320 216C364.2 216 400 180.2 400 136L400 64L448 64L448 186.3L509.5 309.2L512 314.3L512 576L128 576L128 314.3L130.5 309.2L192 186.3L192 64L240 64L240 136zM413.1 223.9C389.8 248.6 356.7 264 320 264C283.3 264 250.2 248.6 226.9 223.9L176 325.7L176 528L464 528L464 325.7L413.1 223.9z"/></svg>