<svg xmlns="http://www.w3.org/2000/svg" viewBox="0 0 640 640"><!--! Font Awesome Pro 7.2.0 by @fontawesome - https://fontawesome.com License - https://fontawesome.com/license (Commercial License) Copyright 2026 Fonticons, Inc. --><path fill="currentColor" d="M320 216C275.8 216 240 180.2 240 136L240 64L192 64L192 186.3L130.5 309.2L128 314.3L128 576L512 576L512 314.3L509.5 309.2L448 186.3L448 64L400 64L400 136C400 180.2 364.2 216 320 216zM320 264C356.7 264 389.8 248.6 413.1 223.9L435.1 267.8L434 268.6L176.1 454.9L176.1 325.7L227 223.9C250.2 248.6 283.3 264 320 264zM176 514L456.8 311.2L464 325.6L464 527.9L176 527.9L176 513.9z"/></svg>