<svg xmlns="http://www.w3.org/2000/svg" viewBox="0 0 640 640"><!--! Font Awesome Pro 7.2.0 by @fontawesome - https://fontawesome.com License - https://fontawesome.com/license (Commercial License) Copyright 2026 Fonticons, Inc. --><path fill="currentColor" d="M320 53.1L337.4 71.5L466.7 208L592 208L592 256L576 256L512 544L128 544L64 256L48 256L48 208L173.3 208L302.6 71.5L320 53.1zM446.6 256.5L446.1 256L193.9 256L193.4 256.5L192.9 256L113.2 256L166.5 496L473.5 496L526.8 256L447.1 256L446.6 256.5zM320 122.9L239.4 208L400.6 208L320 122.9zM240 328L240 448L192 448L192 304L240 304L240 328zM344 304L344 448L296 448L296 304L344 304zM448 328L448 448L400 448L400 304L448 304L448 328z"/></svg>