<svg xmlns="http://www.w3.org/2000/svg" viewBox="0 0 640 640"><!--! Font Awesome Pro 7.2.0 by @fontawesome - https://fontawesome.com License - https://fontawesome.com/license (Commercial License) Copyright 2026 Fonticons, Inc. --><path fill="currentColor" d="M256 144L256 192L384 192L384 144C384 108.7 355.3 80 320 80C284.7 80 256 108.7 256 144zM208 240L144 240L144 496L496 496L496 240L432 240L432 320L384 320L384 240L256 240L256 320L208 320L208 240zM208 192L208 144C208 82.1 258.1 32 320 32C381.9 32 432 82.1 432 144L432 192L544 192L544 544L96 544L96 192L208 192z"/></svg>