<svg xmlns="http://www.w3.org/2000/svg" viewBox="0 0 640 640"><!--! Font Awesome Pro 7.2.0 by @fontawesome - https://fontawesome.com License - https://fontawesome.com/license (Commercial License) Copyright 2026 Fonticons, Inc. --><path fill="currentColor" d="M0 48L116 48C118.1 59.7 121 75.7 124.7 96L576 96C575 101.3 559 186.7 528 352L171.3 352L180 400L496 400L496 448L140 448L136.4 428.3L76 96L0 96L0 48zM162.6 304L488.2 304L518.2 144L133.5 144L162.6 304zM208 480C234.5 480 256 501.5 256 528C256 554.5 234.5 576 208 576C181.5 576 160 554.5 160 528C160 501.5 181.5 480 208 480zM432 480C458.5 480 480 501.5 480 528C480 554.5 458.5 576 432 576C405.5 576 384 554.5 384 528C384 501.5 405.5 480 432 480z"/></svg>