<svg xmlns="http://www.w3.org/2000/svg" viewBox="0 0 640 640"><!--! Font Awesome Pro 7.2.0 by @fontawesome - https://fontawesome.com License - https://fontawesome.com/license (Commercial License) Copyright 2026 Fonticons, Inc. --><path fill="currentColor" d="M144 192C144 165.5 165.5 144 192 144C218.5 144 240 165.5 240 192L240 199.9C240 225.6 238 251.3 233.9 276.7L80.2 329.3L64 334.8L64 544L173.6 544C174.5 542.4 186.6 522.3 209.8 483.6C239.4 434.2 260.9 380.3 273.4 324.1L275.2 316L275.8 313.1L352.6 286.8L335 336L367.9 336C367.9 292.1 390 253.3 423.7 230.3L431.2 209.2C408.5 217 359.6 233.7 284.5 259.4C286.7 239.7 287.8 219.8 287.8 199.9L287.8 192C287.8 139 244.8 96 191.8 96C138.8 96 96 139 96 192L96 256L144 256L144 192zM289.5 432C282.7 448.3 275.2 464.3 266.9 480L336 480L336 432L289.5 432zM112 369.2L222.3 331.5C210.6 376.3 192.5 419.2 168.7 459L146.4 496L112 496L112 369.2zM496 304C513.7 304 528 318.3 528 336L528 384L464 384L464 336C464 318.3 478.3 304 496 304zM416 336L416 384L384 384L384 576L608 576L608 384L576 384L576 336C576 291.8 540.2 256 496 256C451.8 256 416 291.8 416 336z"/></svg>