<svg xmlns="http://www.w3.org/2000/svg" viewBox="0 0 640 640"><!--! Font Awesome Pro 7.2.0 by @fontawesome - https://fontawesome.com License - https://fontawesome.com/license (Commercial License) Copyright 2026 Fonticons, Inc. --><path fill="currentColor" d="M488.1 176C519 176 544.1 150.9 544.1 120C544.1 89.1 519 64 488.1 64C457.2 64 432.1 89.1 432.1 120C432.1 150.9 457.2 176 488.1 176zM327.8 240L294.5 268.9C263.5 295.8 271 345.7 308.4 362.4L392.1 399.6L392.1 512L440.1 512L440.1 368.4C433.5 365.5 418.2 358.7 394.1 347.9C455.4 296 487.9 268.5 491.6 265.4C484.2 258 462.1 235.9 425.2 199L418.2 192L192.3 192L192.3 240L328 240zM399.5 241.3L420 261.8L345.2 326.2L327.8 318.5C322.4 316.1 321.4 309 325.8 305.1L399.4 241.3zM238.8 351.3C175.3 414.9 143 447.1 142.2 448L176.1 481.9C177.5 480.5 208.6 449.4 269.3 388.7C255.6 378.8 245.4 365.8 238.8 351.3zM515.5 516.3L484.5 508.5C482.1 518.1 479.1 529.9 475.7 543.9L352.2 543.9L352.2 575.9L500.7 575.9C501.9 571.1 505.6 556.4 511.7 531.8L515.6 516.3zM221.6 543.2L207.3 514.6C199 518.8 187 524.8 171.3 532.6L99.5 460.8L88.2 449.5L65.6 472.1L76.9 483.4L156.9 563.4L165.1 571.6C168.4 570 182.5 562.9 207.4 550.4L221.7 543.2z"/></svg>