<svg xmlns="http://www.w3.org/2000/svg" viewBox="0 0 640 640"><!--! Font Awesome Pro 7.2.0 by @fontawesome - https://fontawesome.com License - https://fontawesome.com/license (Commercial License) Copyright 2026 Fonticons, Inc. --><path fill="currentColor" d="M344 64L344 144L512 144L512 192L344 192L344 240L576 240L576 288L344 288L344 336L480 336L480 384L344 384L344 464L416 464C464.6 464 504 503.4 504 552L504 576L456 576L456 552C456 529.9 438.1 512 416 512L224 512C201.9 512 184 529.9 184 552L184 576L136 576L136 552C136 503.4 175.4 464 224 464L296 464L296 384L160 384L160 336L296 336L296 288L64 288L64 240L296 240L296 192L128 192L128 144L296 144L296 64L344 64z"/></svg>