<svg xmlns="http://www.w3.org/2000/svg" viewBox="0 0 640 640"><!--! Font Awesome Pro 7.2.0 by @fontawesome - https://fontawesome.com License - https://fontawesome.com/license (Commercial License) Copyright 2026 Fonticons, Inc. --><path fill="currentColor" d="M344 88L344 64L296 64L296 128L201.8 128L195 140.5C129.9 259.7 96 384.8 96 520L96 544L189.4 544L194.3 541.7L296.1 493.8L296.1 576L344.1 576L344.1 493.8L445.9 541.7L450.8 544L544.2 544L544.2 520C544.2 384.8 510.3 259.7 445.3 140.5L438.5 128L344.3 128L344.3 88zM296 176L296 236.3L193.5 256.8C204.1 229.5 216.4 202.6 230.4 176L296 176zM175.2 309.4L296 285.2L296 341.9L157 382.4C161.8 357.7 167.8 333.4 175.2 309.3zM148.9 434.9L296 392L296 440.8L178.6 496L144.3 496C145 475.4 146.5 455 148.8 434.9zM344 440.8L344 392L491.1 434.9C493.4 455 495 475.4 495.6 496L461.3 496L343.9 440.8zM483 382.6L344 342.1L344 285.4L464.8 309.6C472.2 333.7 478.2 358 483 382.7zM446.5 256.8L344 236.3L344 176L409.6 176C423.6 202.7 435.9 229.6 446.5 256.8zM0 128L0 576L48 576L48 285.6L69.7 272.6C105.8 250.9 128 211.9 128 169.7L128 128L0 128zM616 128L512 128L512 169.6C512 211.8 534.1 250.8 570.3 272.5L592 285.5L592 575.9L640 575.9L640 127.9L616 127.9z"/></svg>