<svg xmlns="http://www.w3.org/2000/svg" viewBox="0 0 640 640"><!--! Font Awesome Pro 7.2.0 by @fontawesome - https://fontawesome.com License - https://fontawesome.com/license (Commercial License) Copyright 2026 Fonticons, Inc. --><path fill="currentColor" d="M456.4 80C487.3 80 512.4 105.1 512.4 136C512.4 166.9 487.3 192 456.4 192C425.5 192 400.4 166.9 400.4 136C400.4 105.1 425.5 80 456.4 80zM218.7 94.6L238.3 108.4L510.3 300.4L529.9 314.2L502.2 353.4C497.5 350.1 467.7 329.1 413 290.5L336.8 355.8C361.1 376.1 374.3 387.1 376.4 388.8L376.4 508.8L471.4 527.4C509.6 516.5 534.1 509.5 544.9 506.4L558.1 552.6C548.2 555.4 521.8 563 479 575.2C475.4 576.2 471.5 576.4 467.8 575.7L99.8 503.7C95.1 502.8 90.8 500.5 87.4 497.1C56.9 466.6 37.9 447.6 30.4 440.1L64.3 406.2C72.6 414.5 89.9 431.8 116.1 458L200.3 474.5L200.3 349.2C200.3 323.8 211.3 299.7 230.4 283L307 215.9C230 161.3 191.2 133.9 191 133.8L218.7 94.6zM248.5 483.8L328.5 499.5L328.5 411.4L248.7 344.9C248.5 346.3 248.5 347.7 248.5 349.2L248.5 483.9zM372.6 262L347.5 244.3L277 306L299.5 324.7L372.6 262z"/></svg>