<svg xmlns="http://www.w3.org/2000/svg" viewBox="0 0 640 640"><!--! Font Awesome Pro 7.2.0 by @fontawesome - https://fontawesome.com License - https://fontawesome.com/license (Commercial License) Copyright 2026 Fonticons, Inc. --><path fill="currentColor" d="M476.4 182.9L441.7 280.5L527.1 339C524.2 370.7 514.2 400.4 498.7 426.4L395.2 423.6L365.9 523C351.1 526.3 335.7 528.1 320 528.1C304.3 528.1 288.8 526.3 274.1 523L244.8 423.6L141.3 426.4C125.8 400.4 115.8 370.7 112.9 339L198.3 280.5L163.6 182.9C183.9 159.8 209.2 141.2 237.9 128.8L320 192L402.1 128.8C430.8 141.1 456.1 159.7 476.4 182.9zM320 576C461.4 576 576 461.4 576 320C576 178.6 461.4 64 320 64C178.6 64 64 178.6 64 320C64 461.4 178.6 576 320 576zM320 240L243.9 295.3L273 384.7L367 384.7L396.1 295.3L320 240z"/></svg>