<svg xmlns="http://www.w3.org/2000/svg" viewBox="0 0 640 640"><!--! Font Awesome Pro 7.2.0 by @fontawesome - https://fontawesome.com License - https://fontawesome.com/license (Commercial License) Copyright 2026 Fonticons, Inc. --><path fill="currentColor" d="M177.4 537L160.4 554L143.4 537L47.4 441L30.4 424L64.3 390.1C69.3 395.1 93.3 419.1 136.3 462.1L136.3 96L184.3 96L184.3 462.1C227.3 419.1 251.3 395.1 256.3 390.1L290.2 424L273.2 441L177.2 537zM344.4 112L416.4 112L416.4 160L320.4 160L320.4 112L344.4 112zM344.4 240L480.4 240L480.4 288L320.4 288L320.4 240L344.4 240zM344.4 368L544.4 368L544.4 416L320.4 416L320.4 368L344.4 368zM344.4 496L608.4 496L608.4 544L320.4 544L320.4 496L344.4 496z"/></svg>