<svg xmlns="http://www.w3.org/2000/svg" viewBox="0 0 640 640"><!--! Font Awesome Pro 7.2.0 by @fontawesome - https://fontawesome.com License - https://fontawesome.com/license (Commercial License) Copyright 2026 Fonticons, Inc. --><path fill="currentColor" d="M32 496L32 144C32 117.5 53.5 96 80 96L130 96C170.6 96 210.4 107 245.2 127.9L405.3 224L424 224C493.3 224 559 246.7 603.2 305.6L614 320L603.2 334.4C559 393.3 493.3 416 424 416L405.3 416L245.2 512.1C210.4 533 170.6 544 130 544L80 544C53.5 544 32 522.5 32 496zM312 416L200.4 416L176 435.5L176 489.8C191.6 485.6 206.6 479.2 220.5 470.8L312 416zM128 496L128 448L80 448L80 496L128 496zM312 224L220.5 169.1C206.5 160.7 191.6 154.4 176 150.1L176 204.4L200.4 223.9L312 223.9zM80 144L80 192L128 192L128 144L80 144zM80 248L80 400L143.6 400L177 373.3L183.6 368L424 368C456.6 368 486.4 362.2 512 349.5L512 290.4C486.4 277.8 456.6 271.9 424 271.9L183.6 271.9L177 266.6L143.6 239.9L80 239.9L80 247.9zM448 288C456.8 288 464 295.2 464 304L464 336C464 344.8 456.8 352 448 352C439.2 352 432 344.8 432 336L432 304C432 295.2 439.2 288 448 288z"/></svg>