<svg xmlns="http://www.w3.org/2000/svg" viewBox="0 0 640 640"><!--! Font Awesome Pro 7.2.0 by @fontawesome - https://fontawesome.com License - https://fontawesome.com/license (Commercial License) Copyright 2026 Fonticons, Inc. --><path fill="currentColor" d="M208 128C208 119.2 200.8 112 192 112C183.2 112 176 119.2 176 128C176 136.8 183.2 144 192 144C200.8 144 208 136.8 208 128zM197.1 191.8C195.4 191.9 193.7 192 192 192C156.7 192 128 163.3 128 128C128 92.7 156.7 64 192 64C227.3 64 256 92.7 256 128C256 144.2 250 159.1 240 170.3L255.6 201.5C274.3 195.5 295.5 192 320 192C344.5 192 365.8 195.5 384.4 201.5L400 170.3C390 159 384 144.2 384 128C384 92.7 412.7 64 448 64C483.3 64 512 92.7 512 128C512 163.3 483.3 192 448 192C446.3 192 444.6 191.9 442.9 191.8L427.8 222C448.9 235.6 465.5 252.2 479.2 268.4C486.3 276.7 492.7 285 498.5 292.4L499.9 294.2C506.2 302.3 511.5 309 516.6 314.6C527.3 326.3 532.7 328 536 328C538.5 328 540.3 327.4 543.1 324.7C546.8 321.2 550.2 315.9 555.6 307.3L556.2 306.4C560.8 299 567.2 288.8 575.6 280.7C585.3 271.4 598.5 264 616 264L640 264L640 312L616 312C613.5 312 611.7 312.6 608.9 315.3C605.2 318.8 601.8 324.1 596.4 332.7L595.8 333.6C591.2 341 584.8 351.2 576.4 359.3C566.7 368.6 553.5 376 536 376C517.5 376 503.1 367.5 491.7 357.4C488.6 361.4 485.1 365.7 481.2 370.1C483.6 377.2 485.7 384.2 487.7 390.7L487.7 390.7L489 394.9C492.4 406.1 495.4 415.2 498.8 422.7C502.2 430.2 505.4 434.2 508.2 436.5C510.5 438.3 513.7 439.9 519.9 439.9C528.6 439.9 536.8 435.7 553.6 426.7C568.6 418.7 589.3 407.9 615.9 407.9L639.9 407.9L639.9 455.9L615.9 455.9C602.5 455.9 591.2 461.1 576.2 469.1C575.2 469.6 574.1 470.2 573 470.8L573 470.8L573 470.8C559.9 477.9 541.4 487.9 519.9 487.9C503.7 487.9 489.7 483.1 478.2 474C467.3 465.3 460.2 453.8 455.2 442.9C450.2 432 446.4 420 443 408.9L442.2 406.2C425.8 418.4 406.1 429.8 383.3 437.5C386.9 448.3 391.7 461 397.7 473.7C405.2 489.6 413.9 504.1 423.5 514.2C433.1 524.4 441.2 527.9 448 527.9L472 527.9L472 575.9L448 575.9C422.8 575.9 403 562.4 388.5 547.1C374 531.7 362.8 512.2 354.3 494.1C346.3 477.1 340.2 460.3 336 447.2C330.8 447.6 325.4 447.8 320 447.8C314.6 447.8 309.2 447.6 304 447.2C299.8 460.2 293.7 477.1 285.7 494.1C277.2 512.2 265.9 531.7 251.5 547.1C237.1 562.4 217.2 575.9 192 575.9L168 575.9L168 527.9L192 527.9C198.8 527.9 207 524.4 216.5 514.2C226 504.1 234.8 489.6 242.3 473.7C248.2 461.1 253 448.3 256.7 437.5C233.9 429.8 214.2 418.5 197.8 406.2L197 408.9C193.6 419.9 189.8 432 184.8 442.9C179.7 453.8 172.7 465.3 161.8 474C150.3 483.1 136.3 487.9 120.1 487.9C98.7 487.9 80.2 477.9 67 470.8L67 470.8C65.9 470.2 64.8 469.6 63.8 469.1C48.8 461.1 37.5 455.9 24.1 455.9L.1 455.9L.1 407.9L24.1 407.9C50.7 407.9 71.4 418.7 86.4 426.7C103.2 435.7 111.4 439.9 120.1 439.9C126.4 439.9 129.6 438.3 131.8 436.5C134.6 434.3 137.8 430.2 141.2 422.7C144.7 415.2 147.6 406.1 151 394.9L152.3 390.7C154.3 384.2 156.4 377.2 158.8 370.1C154.9 365.6 151.4 361.3 148.3 357.4C136.9 367.5 122.4 376 104 376C86.5 376 73.3 368.6 63.6 359.3C55.2 351.2 48.8 341 44.2 333.6L43.6 332.7C38.2 324.1 34.8 318.8 31.1 315.3C28.3 312.6 26.5 312 24 312L0 312L0 264L24 264C41.5 264 54.7 271.4 64.4 280.7C72.8 288.8 79.2 299 83.8 306.4L84.4 307.3C89.8 315.9 93.2 321.2 96.9 324.7C99.7 327.4 101.5 328 104 328C107.3 328 112.7 326.3 123.4 314.6C128.5 309 133.8 302.3 140.1 294.2L141.5 292.4C147.3 285 153.7 276.7 160.8 268.4C174.6 252.2 191.1 235.6 212.2 222L197.1 191.8zM182 322.3C188.3 331.1 197.8 342.8 210.3 354.5C235.5 377.9 271.9 400.1 320 400.1C368.1 400.1 404.5 377.9 429.7 354.5C442.3 342.8 451.7 331.1 458 322.3C458.5 321.6 459 321 459.4 320.3C454 313.4 448.6 306.5 442.7 299.6C416.3 268.6 382.3 240 320 240C257.7 240 223.7 268.6 197.3 299.6C191.4 306.5 186 313.4 180.6 320.3C181 320.9 181.5 321.6 182 322.3zM448 144C456.8 144 464 136.8 464 128C464 119.2 456.8 112 448 112C439.2 112 432 119.2 432 128C432 136.8 439.2 144 448 144z"/></svg>