<svg xmlns="http://www.w3.org/2000/svg" viewBox="0 0 640 640"><!--! Font Awesome Pro 7.2.0 by @fontawesome - https://fontawesome.com License - https://fontawesome.com/license (Commercial License) Copyright 2026 Fonticons, Inc. --><path fill="currentColor" d="M240 80L240 464L496 464L496 80L240 80zM192 32L544 32L544 512L192 512L192 32zM368 240C421 240 464 283 464 336C464 389 421 432 368 432C315 432 272 389 272 336C272 283 315 240 368 240zM416 336C416 309.5 394.5 288 368 288C341.5 288 320 309.5 320 336C320 362.5 341.5 384 368 384C394.5 384 416 362.5 416 336zM336 144C336 126.3 350.3 112 368 112C385.7 112 400 126.3 400 144C400 161.7 385.7 176 368 176C350.3 176 336 161.7 336 144zM144 152L144 560L448 560L448 608L96 608L96 128L144 128L144 152z"/></svg>