<svg xmlns="http://www.w3.org/2000/svg" viewBox="0 0 640 640"><!--! Font Awesome Pro 7.2.0 by @fontawesome - https://fontawesome.com License - https://fontawesome.com/license (Commercial License) Copyright 2026 Fonticons, Inc. --><path fill="currentColor" d="M238 94.9C162.3 141.4 112 224.8 112 320C112 434.9 205.1 528 320 528C434.9 528 528 434.9 528 320C528 236.1 459.9 168 376 168C292.1 168 224 236.1 224 320C224 373 267 416 320 416C373 416 416 373 416 320C416 297.9 398.1 280 376 280C353.9 280 336 297.9 336 320L336 344L288 344L288 320C288 271.4 327.4 232 376 232C424.6 232 464 271.4 464 320C464 399.5 399.5 464 320 464C240.5 464 176 399.5 176 320C176 209.5 265.5 120 376 120C486.5 120 576 209.5 576 320C576 461.4 461.4 576 320 576C178.6 576 64 461.4 64 320C64 207.5 123.6 108.9 212.8 54L238 94.9z"/></svg>