<svg xmlns="http://www.w3.org/2000/svg" viewBox="0 0 640 640"><!--! Font Awesome Pro 7.2.0 by @fontawesome - https://fontawesome.com License - https://fontawesome.com/license (Commercial License) Copyright 2026 Fonticons, Inc. --><path fill="currentColor" d="M251.7 464.2C253.1 464.1 254.6 464 256 464C287.6 464 318.3 474.8 343 494.5L384.9 528L410.4 528L407.9 505.4C401.3 446.3 426.5 388.1 474.1 352.4L528.1 311.9L528.1 289.2L484.8 273C437.3 255.2 400.4 216.9 384.4 168.8L365.4 111.9L342.5 111.9L321.7 136.9C282.9 183.4 222.2 205.5 162.6 194.6L112 185.4L112 209.6L155.1 275.5C167.8 294.9 174.8 317.4 175.3 340.5C176 368.3 167.2 395.5 150.5 417.8L128 448L128 475.4L251.7 464.2zM128 523.6L80 528L80 432L112.2 389C122.4 375.4 127.8 358.7 127.4 341.6C127.1 327.4 122.8 313.6 115 301.8L64 224L64 128C94.1 133.5 129.9 140 171.1 147.5C213.6 155.2 257.1 139.5 284.8 106.3L320 64L400 64L429.9 153.7C441.3 188.1 467.7 215.4 501.6 228.1L576 256L576 336L502.8 390.9C468.8 416.4 450.8 457.9 455.5 500.2C457.2 515.4 460 540.7 463.9 576.1L367.9 576.1L312.9 532.1C296.7 519.2 276.6 512.1 255.9 512.1L128 523.6z"/></svg>