<svg xmlns="http://www.w3.org/2000/svg" viewBox="0 0 640 640"><!--! Font Awesome Pro 7.2.0 by @fontawesome - https://fontawesome.com License - https://fontawesome.com/license (Commercial License) Copyright 2026 Fonticons, Inc. --><path fill="currentColor" d="M275.1 103.3C336.6 80.5 414.1 73.3 510.8 87L530.4 90L546.6 92.7L549.9 108.8C567.7 194.9 568.5 322.3 508.2 420.6C477.7 470.4 431.7 512.2 365.8 536.7C300.2 561 216.4 567.6 110.5 549.9L94.3 547.2L91 531.1C73.3 445.1 72.5 317.7 132.7 219.3C163.2 169.5 209.2 127.7 275.1 103.3zM165.5 508.9C204.5 512.8 239.2 512.8 270 509.6C261.9 484.5 249.4 461.4 233.2 441.2L165.4 508.9zM267.3 407.1C290.1 434.4 307.4 466.4 317.7 501.4C328.8 498.7 339.3 495.4 349.1 491.8C376.3 481.7 399.3 468.2 418.6 452.1L320.4 353.9L267.2 407zM131.9 370.8C127.4 406.6 127.6 442.5 131 475.5L199.2 407.3C179.3 391.4 156.5 378.9 131.8 370.8zM354.4 320L452 417.6C457.5 410.5 462.7 403.2 467.3 395.6C482.2 371.3 492.8 344.4 500 316.7C465.7 306.4 434.3 289.3 407.5 266.9L354.4 320zM188.9 222.3C183.4 229.4 178.3 236.8 173.6 244.4C158.7 268.7 148 295.5 140.8 323.3C175.1 333.6 206.5 350.8 233.3 373.1L286.5 320L188.8 222.3zM323.2 138.6C312.1 141.3 301.6 144.6 291.8 148.3C264.6 158.4 241.6 171.9 222.3 187.9L320.5 286.1L373.6 232.9C350.8 205.6 333.5 173.6 323.2 138.6zM441.6 232.7C461.5 248.6 484.2 261 508.9 269.1C513.4 233.3 513.2 197.4 509.8 164.4L441.6 232.6zM475.5 131C436.5 127.1 401.8 127.1 371 130.3C379.1 155.4 391.6 178.5 407.8 198.7L475.5 131z"/></svg>