<svg xmlns="http://www.w3.org/2000/svg" viewBox="0 0 640 640"><!--! Font Awesome Pro 7.2.0 by @fontawesome - https://fontawesome.com License - https://fontawesome.com/license (Commercial License) Copyright 2026 Fonticons, Inc. --><path fill="currentColor" d="M320 64L192 64L192 176L320 176L320 64zM320 272C346.5 272 368 293.5 368 320L368 528L144 528L144 320C144 293.5 165.5 272 192 272L320 272zM192 224C139 224 96 267 96 320L96 576L416 576L416 320C416 267 373 224 320 224L192 224zM320 400C320 364.7 291.3 336 256 336C220.7 336 192 364.7 192 400C192 435.3 220.7 464 256 464C291.3 464 320 435.3 320 400zM416 128C416 110.3 401.7 96 384 96C366.3 96 352 110.3 352 128C352 145.7 366.3 160 384 160C401.7 160 416 145.7 416 128zM480 160C497.7 160 512 145.7 512 128C512 110.3 497.7 96 480 96C462.3 96 448 110.3 448 128C448 145.7 462.3 160 480 160zM608 128C608 110.3 593.7 96 576 96C558.3 96 544 110.3 544 128C544 145.7 558.3 160 576 160C593.7 160 608 145.7 608 128zM576 256C593.7 256 608 241.7 608 224C608 206.3 593.7 192 576 192C558.3 192 544 206.3 544 224C544 241.7 558.3 256 576 256zM608 320C608 302.3 593.7 288 576 288C558.3 288 544 302.3 544 320C544 337.7 558.3 352 576 352C593.7 352 608 337.7 608 320zM480 256C497.7 256 512 241.7 512 224C512 206.3 497.7 192 480 192C462.3 192 448 206.3 448 224C448 241.7 462.3 256 480 256z"/></svg>