<svg xmlns="http://www.w3.org/2000/svg" viewBox="0 0 640 640"><!--! Font Awesome Pro 7.2.0 by @fontawesome - https://fontawesome.com License - https://fontawesome.com/license (Commercial License) Copyright 2026 Fonticons, Inc. --><path fill="currentColor" d="M144 144L144 496L496 496L496 144L144 144zM96 96L544 96L544 544L96 544L96 96zM296 176L344 176L344 202.6C373 208.7 398.1 225.2 415.2 248L376.8 276.8C368.5 265.8 357.1 257.2 344 252.4L344 387.6C357.2 382.8 368.5 374.2 376.8 363.2L415.2 392C398.1 414.8 373 431.3 344 437.4L344 464L296 464L296 437.8C240.8 427 199.2 378.3 199.2 320C199.2 261.7 240.8 213 296 202.2L296 176zM247.2 320C247.2 351.6 267.6 378.5 296 388.2L296 251.8C267.6 261.5 247.2 288.3 247.2 320z"/></svg>