<svg xmlns="http://www.w3.org/2000/svg" viewBox="0 0 640 640"><!--! Font Awesome Pro 7.2.0 by @fontawesome - https://fontawesome.com License - https://fontawesome.com/license (Commercial License) Copyright 2026 Fonticons, Inc. --><path fill="currentColor" d="M144 144L144 496L496 496L496 144L144 144zM96 96L544 96L544 544L96 544L96 96zM281 273L234 320C270.4 356.4 291.7 377.7 298 384L264 417.9C260.5 414.4 233.5 387.4 183 336.9L166 319.9L247 238.9L264 221.9L297.9 255.8L280.9 272.8zM393 239C443.5 289.5 470.5 316.5 474 320C470.5 323.5 443.5 350.5 393 401L376 418L342.1 384.1C348.4 377.8 369.7 356.5 406.1 320.1C369.7 283.7 348.4 262.4 342.1 256.1L376 222.2L393 239.2z"/></svg>