<svg xmlns="http://www.w3.org/2000/svg" viewBox="0 0 640 640"><!--! Font Awesome Pro 7.2.0 by @fontawesome - https://fontawesome.com License - https://fontawesome.com/license (Commercial License) Copyright 2026 Fonticons, Inc. --><path fill="currentColor" d="M144 144L144 496L496 496L496 144L144 144zM96 96L544 96L544 544L96 544L96 96zM346.9 218.4L366.2 256.3C391.5 260.3 425 265.6 466.8 272.3C436.9 302.2 412.9 326.3 394.8 344.3C398.8 369.6 404.1 403.1 410.7 444.9C373 425.7 342.7 410.3 319.9 398.7C297.1 410.3 266.8 425.7 229.1 444.9C235.7 403.1 241 369.6 245 344.3C226.9 326.2 202.9 302.2 173 272.3L273.6 256.3C285.2 233.5 300.7 203.3 319.9 165.6L346.8 218.4zM358.7 303.7L334.6 299.9C325.9 282.9 321.1 273.4 320 271.2C318.9 273.3 314 282.9 305.4 299.9C286.6 302.9 276 304.6 273.6 305C275.3 306.7 282.9 314.3 296.3 327.8C293.3 346.6 291.7 357.2 291.3 359.6C293.4 358.5 303 353.6 320 345C337 353.6 346.5 358.5 348.7 359.6C348.3 357.2 346.7 346.6 343.7 327.8C357.2 314.3 364.7 306.7 366.4 305L358.7 303.8z"/></svg>