<svg xmlns="http://www.w3.org/2000/svg" viewBox="0 0 640 640"><!--! Font Awesome Pro 7.2.0 by @fontawesome - https://fontawesome.com License - https://fontawesome.com/license (Commercial License) Copyright 2026 Fonticons, Inc. --><path fill="currentColor" d="M144 144L144 496L496 496L496 144L144 144zM96 96L544 96L544 544L96 544L96 96zM239.5 280C239.5 233.5 277 192 327.6 192L329.8 192C349.5 192 368.6 198.4 384.3 210.2L398.5 220.8L369.7 259.2L355.5 248.6C348 243 339 240 329.7 240L327.5 240C304.5 240 287.4 258.9 287.5 280L384 280L384 312L296.5 312C298.6 319.9 299.7 328 300 336L384 336L384 368L296 368C292.8 379.3 287.7 390.1 280.9 400L416 400L416 448L216 448L216 405.5C217.1 404.1 225 393.9 239.7 375C241.4 372.8 243 370.4 244.4 368L224 368L224 336L251.9 336C251.5 329.6 250.1 323.1 247.6 317L246.2 313.5C246 313 245.8 312.5 245.6 312L224 312L224 280L239.5 280z"/></svg>