<svg xmlns="http://www.w3.org/2000/svg" viewBox="0 0 640 640"><!--! Font Awesome Pro 7.2.0 by @fontawesome - https://fontawesome.com License - https://fontawesome.com/license (Commercial License) Copyright 2026 Fonticons, Inc. --><path fill="currentColor" d="M120 96L208 96L208 144L144 144L144 208L96 208L96 96L120 96zM96 256L144 256L144 384L96 384L96 256zM496 256L544 256L544 384L496 384L496 256zM544 208L496 208L496 144L432 144L432 96L544 96L544 208zM544 432L544 544L432 544L432 496L496 496L496 432L544 432zM144 432L144 496L208 496L208 544L96 544L96 432L144 432zM384 544L256 544L256 496L384 496L384 544zM256 144L256 96L384 96L384 144L256 144z"/></svg>