<svg xmlns="http://www.w3.org/2000/svg" viewBox="0 0 640 640"><!--! Font Awesome Pro 7.2.0 by @fontawesome - https://fontawesome.com License - https://fontawesome.com/license (Commercial License) Copyright 2026 Fonticons, Inc. --><path fill="currentColor" d="M144 144L144 496L496 496L496 144L144 144zM96 96L544 96L544 544L96 544L96 96zM240 276C240 238.4 270.4 208 308 208L332 208C369.6 208 400 238.4 400 276C400 290.7 395.4 304.2 387.5 315.3C400.2 327.6 408 344.9 408 364C408 401.6 377.6 432 340 432L300 432C262.4 432 232 401.6 232 364C232 344.9 239.9 327.7 252.5 315.3C244.6 304.2 240 290.6 240 276zM352 276C352 265 343 256 332 256L308 256C297 256 288 265 288 276C288 287 297 296 308 296L332 296C343 296 352 287 352 276zM300 344C289 344 280 353 280 364C280 375 289 384 300 384L340 384C351 384 360 375 360 364C360 353 351 344 340 344L300 344z"/></svg>