<svg xmlns="http://www.w3.org/2000/svg" viewBox="0 0 640 640"><!--! Font Awesome Pro 7.2.0 by @fontawesome - https://fontawesome.com License - https://fontawesome.com/license (Commercial License) Copyright 2026 Fonticons, Inc. --><path fill="currentColor" d="M544 544L96 544L96 96L544 96L544 544zM144 496L496 496L496 144L144 144L144 496zM451.1 200.6L380.4 448L330.5 448L333 439.4L403.7 192L453.6 192L451.1 200.6zM304 264L255.6 264C247 264 240 271 240 279.6C240 287 245.2 293.4 252.5 294.8L268.9 298.1C298.6 304 320 330.1 320 360.4C320 395.5 291.5 424 256.4 424L200 424L200 376L256.4 376C265 376 272 369 272 360.4C272 353 266.8 346.6 259.5 345.1L243.1 341.8C213.4 335.9 192 309.8 192 279.5C192 244.4 220.5 215.9 255.6 215.9L304 215.9L304 263.9z"/></svg>