<svg xmlns="http://www.w3.org/2000/svg" viewBox="0 0 640 640"><!--! Font Awesome Pro 7.2.0 by @fontawesome - https://fontawesome.com License - https://fontawesome.com/license (Commercial License) Copyright 2026 Fonticons, Inc. --><path fill="currentColor" d="M144 144L144 496L496 496L496 144L144 144zM96 96L544 96L544 544L96 544L96 96zM223 303C280.2 245.8 309.8 216.2 312 214L345.9 248C336.9 257 320.9 273 297.9 296C378.9 296 421 296 424 296L424 344L297.9 344C320.9 367 336.9 383 345.9 392L312 425.9C309.9 423.8 280.2 394.1 223 336.9L206 319.9L223 302.9z"/></svg>