<svg xmlns="http://www.w3.org/2000/svg" viewBox="0 0 640 640"><!--! Font Awesome Pro 7.2.0 by @fontawesome - https://fontawesome.com License - https://fontawesome.com/license (Commercial License) Copyright 2026 Fonticons, Inc. --><path fill="currentColor" d="M144 144L144 496L496 496L496 144L144 144zM96 96L544 96L544 544L96 544L96 96zM342.3 189.1L338.2 201.5C346.7 202.8 354.9 205.1 362.7 208.1C370 186.3 374.9 171.5 377.5 163.8L407.9 173.9C405.6 180.7 400.1 197.4 391.2 223.9C400.3 230.7 408.4 238.8 415.3 247.9L376.9 276.7C376.1 275.7 375.4 274.7 374.6 273.7L335.7 390.1C352.4 386.2 366.8 376.5 376.8 363.2L415.2 392C393.3 421.1 358.5 440 319.2 440L319.1 440C314.1 455 310.1 467.1 307 476.2L276.6 466.1C280 456 283.4 445.8 286.8 435.6C278.5 433.3 270.7 430.1 263.2 426.2C254.4 452.7 248.8 469.4 246.5 476.3L216.1 466.2C217.8 461 224.5 441.1 236 406.6C213.3 384.8 199.1 354.1 199.1 320.1C199.1 258.8 245.1 208.2 304.5 201C309.7 185.3 313.9 172.9 316.9 163.9L347.3 174L342.2 189.2zM247.2 320C247.2 331.3 249.8 342 254.4 351.5L286.3 256C263.1 268 247.2 292.1 247.2 320zM302 389.9L347.4 253.7C339.7 250.4 331.4 248.4 322.6 248L278.8 379.6C285.8 384.3 293.6 387.9 302.1 389.9z"/></svg>