<svg xmlns="http://www.w3.org/2000/svg" viewBox="0 0 640 640"><!--! Font Awesome Pro 7.2.0 by @fontawesome - https://fontawesome.com License - https://fontawesome.com/license (Commercial License) Copyright 2026 Fonticons, Inc. --><path fill="currentColor" d="M288 96L288 32L312 32L432 96L336 147.2L336 168.2C389 169.3 438.4 175.9 480 186.8L480 48L504 48L624 112L528 163.2L528 202.7C548 211 565.4 220.9 578.9 232.5C595.2 246.5 608 265.2 608 288.1L608 469.3C608 492.4 595.7 511.6 579.3 526.4C562.9 541.2 540.7 553.4 515.2 563.1C464.1 582.7 395 594.2 320 594.2C245 594.2 175.9 582.5 124.8 563C99.3 553.2 77 541 60.7 526.3C44.4 511.6 32 492.3 32 469.2L32 288C32 265.1 44.8 246.4 61.1 232.4C70.8 224 82.7 216.5 96 209.9L96 48L120 48L240 112L144 163.2L144 191.3C184.6 179 234.2 171 288 168.7L288 96zM80 288L80 288C80 291.6 82 298.2 92.4 307.2C102.8 316.1 119.2 325.2 141.5 333.4C153 337.6 165.7 341.4 179.5 344.7C186.8 332.6 204.9 322 229.8 314.5L172.8 238.4L169.4 233.9C159.4 236.6 150.1 239.5 141.5 242.6C119.1 250.7 102.7 259.8 92.4 268.8C82 277.8 80 284.3 80 288zM221.4 223.2L282.3 304.4C294.3 303.2 306.9 302.5 320 302.5C333.1 302.5 345.7 303.1 357.7 304.4L418.6 223.2C388.5 218.6 355.2 216 320 216C284.8 216 251.5 218.6 221.4 223.2zM470.6 233.9L467.2 238.4L410.2 314.5C435.1 322 453.2 332.6 460.5 344.7C474.3 341.4 487 337.6 498.5 333.4C520.9 325.3 537.3 316.2 547.6 307.2C558 298.2 560 291.7 560 288C560 284.3 558.1 277.8 547.6 268.8C537.2 259.9 520.8 250.8 498.5 242.6C489.9 239.5 480.5 236.5 470.6 233.9zM560 357.2C546.8 365.3 531.5 372.4 514.9 378.4C463.9 397 395 408 320 408C245 408 176.1 397 125.1 378.4C108.4 372.3 93.1 365.3 80 357.2L80 469.2C80 474 82.4 481.3 92.8 490.7C103.2 500.1 119.6 509.7 141.9 518.2C172.4 529.8 211.6 538.7 256 543.1L256 448.1L384 448.1L384 543.1C428.4 538.7 467.6 529.9 498.1 518.2C520.4 509.7 536.8 500.1 547.2 490.7C557.6 481.3 560 474 560 469.2L560 357.2z"/></svg>