<svg xmlns="http://www.w3.org/2000/svg" viewBox="0 0 640 640"><!--! Font Awesome Pro 7.2.0 by @fontawesome - https://fontawesome.com License - https://fontawesome.com/license (Commercial License) Copyright 2026 Fonticons, Inc. --><path fill="currentColor" d="M341.6 53.1L320.2 11.2C314.3 22.9 283.4 83.3 227.6 192.6C106.4 211.9 39.4 222.5 26.5 224.6C35.7 233.9 83.7 281.9 170.4 368.7C151.3 489.9 140.7 556.9 138.7 569.9C150.4 564 210.9 533.2 320.2 477.6C429.5 533.2 490 564 501.7 569.9C499.7 557 489.1 489.9 470 368.7C556.7 281.9 604.7 233.9 613.9 224.6C601 222.5 533.9 211.9 412.8 192.6L341.6 53.1zM296.2 163.8L296.2 435.8L200.8 484.4L219.8 364.1L221.7 352L213.1 343.4L127 257.2L247.3 238.1L259.4 236.2L265 225.3L296.4 163.8zM344.2 435.8L344.2 163.8L375.6 225.3L381.2 236.2L393.3 238.1L513.6 257.2L427.5 343.4L418.9 352L420.8 364.1L439.8 484.4L344.4 435.9z"/></svg>