<svg xmlns="http://www.w3.org/2000/svg" viewBox="0 0 640 640"><!--! Font Awesome Pro 7.2.0 by @fontawesome - https://fontawesome.com License - https://fontawesome.com/license (Commercial License) Copyright 2026 Fonticons, Inc. --><path fill="currentColor" d="M462.4 104.3L446.1 86.7L481.3 54L497.6 71.6L601.6 183.6L608 190.5L608 432.4L602.6 439L498.6 567L483.5 585.6L446.2 555.3L461.3 536.7L559.9 415.3L559.9 383.5L454.1 407C425.6 451 376.2 480 320 480C263.8 480 214.4 451 185.8 407.2L80 383.7L80 423.1L178.1 536.3L193.8 554.4L157.5 585.8L141.8 567.7L37.8 447.7L31.9 440.9L31.9 199L37.8 192.2L141.8 72.2L157.5 54.1L193.8 85.5L178.1 103.6L80 216.8L80 256.2L185.8 232.7C214.4 189 263.8 160 320 160C376.2 160 425.6 189 454.2 232.8L560 256.3L560 209.4L462.4 104.3zM560 305.5L476.6 287C478.8 297.7 480 308.7 480 320.1C480 331.5 478.8 342.5 476.6 353.2L560 334.7L560 305.6zM163.4 353.1C161.2 342.4 160 331.4 160 320C160 308.6 161.2 297.6 163.4 286.9L80 305.4L80 334.5L163.4 353zM320 432C381.9 432 432 381.9 432 320C432 258.1 381.9 208 320 208C258.1 208 208 258.1 208 320C208 381.9 258.1 432 320 432zM320 264C350.9 264 376 289.1 376 320C376 350.9 350.9 376 320 376C289.1 376 264 350.9 264 320C264 289.1 289.1 264 320 264z"/></svg>