<svg xmlns="http://www.w3.org/2000/svg" viewBox="0 0 640 640"><!--! Font Awesome Pro 7.2.0 by @fontawesome - https://fontawesome.com License - https://fontawesome.com/license (Commercial License) Copyright 2026 Fonticons, Inc. --><path fill="currentColor" d="M411.9 401.7L351.9 324C352 322.7 352 321.3 352 320C352 267 309 224 256 224C203 224 160 267 160 320C160 367.6 194.6 407 240 414.7L298.8 490.8C285.1 494.2 270.8 496 256 496C158.8 496 80 417.2 80 320C80 222.8 158.8 144 256 144C353.2 144 432 222.8 432 320C432 349.5 424.7 377.3 411.9 401.7zM475.6 432L450 432C465.3 405.6 475.3 375.8 478.7 344L560 344L560 399.2L475.6 432zM441.8 194.9L560 240.9L560 296.1L478.7 296.1C474.7 258.9 461.7 224.5 441.8 195zM544 456.9L608 432L608 208L379.6 119.2C340.2 103.9 298.3 96 256 96C132.3 96 32 196.3 32 320C32 443.7 132.3 544 256 544C282 544 307.9 541 333.1 535.2C337.8 541.2 348.3 554.9 364.6 576L544 576L544 456.9zM208 320C208 293.5 229.5 272 256 272C282.5 272 304 293.5 304 320C304 346.5 282.5 368 256 368C229.5 368 208 346.5 208 320zM381 518.7L295.2 407.7C310.1 401 323 390.6 332.7 377.7L411.8 480L496 480L496 528L388.2 528L381 518.7z"/></svg>