<svg xmlns="http://www.w3.org/2000/svg" viewBox="0 0 640 640"><!--! Font Awesome Pro 7.2.0 by @fontawesome - https://fontawesome.com License - https://fontawesome.com/license (Commercial License) Copyright 2026 Fonticons, Inc. --><path fill="currentColor" d="M320.4 24.8C331.7 60.2 354.9 133.2 390.1 243.8L606.4 243.8C580.5 263.9 521.8 309.6 430.3 380.7C465.6 491.7 489.1 565.6 500.8 602.3C469.8 578.2 409.7 531.4 320.4 462C231.1 531.4 171 578.2 140 602.3C151.7 565.5 175.2 491.6 210.5 380.7C119 309.5 60.3 263.9 34.4 243.8L250.7 243.8C286 133.2 309.2 60.2 320.4 24.8zM320.4 183.1L291.1 275.1L285.8 291.8L174.3 291.8L253.2 353.1L266.4 363.4L261.3 379.3L232.6 469.5L305.6 412.7L320.3 401.2C320.4 401.3 349.7 424 408 469.4L379.3 379.2L374.2 363.3L387.4 353L466.3 291.7L354.8 291.7L349.5 275L320.2 183z"/></svg>