<svg xmlns="http://www.w3.org/2000/svg" viewBox="0 0 640 640"><!--! Font Awesome Pro 7.2.0 by @fontawesome - https://fontawesome.com License - https://fontawesome.com/license (Commercial License) Copyright 2026 Fonticons, Inc. --><path fill="currentColor" d="M184.5 320C184.5 209.2 271.1 118.7 380.2 112.4C384.3 112.2 388.4 112 392.5 112C436.6 112 477.5 125.7 511.1 149.1C479.7 114.1 438.8 87.8 392.5 74.2C389.9 73.4 387.3 72.7 384.7 72.1C364.2 66.8 342.7 64 320.5 64C179.1 64 64.5 178.6 64.5 320C64.5 461.4 179.1 576 320.5 576C342.7 576 364.2 573.2 384.7 567.9C387.3 567.2 389.9 566.5 392.5 565.8C438.8 552.2 479.7 525.9 511.1 490.9C477.5 514.3 436.6 528 392.5 528C388.4 528 384.3 527.9 380.2 527.6C271 521.2 184.5 430.7 184.5 320zM144.5 320C144.5 405.4 187.7 480.8 253.5 525.4C167 497.2 104.5 415.9 104.5 320C104.5 224.1 167 142.8 253.5 114.6C187.7 159.2 144.5 234.6 144.5 320zM475.3 238.2L448.5 184C428.8 223.9 414.7 252.5 406.2 269.8C387.2 272.6 355.6 277.1 311.6 283.6C343.5 314.7 366.3 336.9 380.1 350.3C376.9 369.2 371.5 400.7 363.9 444.5C403.3 423.8 431.5 408.9 448.5 400C465.5 408.9 493.7 423.8 533.1 444.5C525.6 400.6 520.2 369.2 516.9 350.3C530.7 336.9 553.5 314.6 585.4 283.6C541.3 277.2 509.8 272.6 490.8 269.8L475.2 238.3zM459 313.6L482.4 317L465.5 333.5L469.5 356.8L448.6 345.8L427.7 356.8L431.7 333.5L414.8 317L438.2 313.6L448.6 292.4L459 313.6z"/></svg>