<svg xmlns="http://www.w3.org/2000/svg" viewBox="0 0 640 640"><!--! Font Awesome Pro 7.2.0 by @fontawesome - https://fontawesome.com License - https://fontawesome.com/license (Commercial License) Copyright 2026 Fonticons, Inc. --><path fill="currentColor" d="M320 528C310.1 528 300.4 527.3 290.9 526L238.5 383.7L233.5 370.1L219.2 368.2L114.8 354.3C112.9 343.1 112 331.7 112 320C112 303.5 113.9 287.4 117.6 272L522.5 272C526.1 287.4 528.1 303.5 528.1 320C528.1 331.7 527.1 343.1 525.3 354.3L420.9 368.2L406.6 370.1L401.6 383.7L349.2 526C339.7 527.3 330 528 320.1 528zM510 404.7C489.4 450.9 452.4 488.2 406.4 509.2L441.5 413.8L510 404.7zM135.4 224C170.1 157.4 239.8 112 320 112C400.2 112 469.9 157.4 504.6 224L135.4 224zM233.6 509.3C187.6 488.3 150.6 451 130 404.8L198.5 413.9L233.6 509.3zM320 576C461.4 576 576 461.4 576 320C576 178.6 461.4 64 320 64C178.6 64 64 178.6 64 320C64 461.4 178.6 576 320 576zM320 392C342.1 392 360 374.1 360 352C360 329.9 342.1 312 320 312C297.9 312 280 329.9 280 352C280 374.1 297.9 392 320 392z"/></svg>