<svg xmlns="http://www.w3.org/2000/svg" viewBox="0 0 640 640"><!--! Font Awesome Pro 7.2.0 by @fontawesome - https://fontawesome.com License - https://fontawesome.com/license (Commercial License) Copyright 2026 Fonticons, Inc. --><path fill="currentColor" d="M400.4 64L240.4 64L240.4 112L296.4 112L296.4 137.3C188.4 149.2 104.4 240.8 104.4 352C104.4 471.3 201.1 568 320.4 568C439.7 568 536.4 471.3 536.4 352C536.4 309.2 524 269.4 502.5 235.8C522 216.3 536.6 201.7 546.3 192L512.4 158.1C502.1 168.4 488.7 181.8 472.2 198.3C438.5 165.1 394 142.8 344.4 137.3L344.4 112L400.4 112L400.4 64zM488.4 352C488.4 444.8 413.2 520 320.4 520C227.6 520 152.4 444.8 152.4 352C152.4 259.2 227.6 184 320.4 184C413.2 184 488.4 259.2 488.4 352zM204.4 304L244.4 304C244.4 297.4 249.8 292 256.4 292C263 292 268.4 297.4 268.4 304L268.4 307.8C268.4 312.1 267.2 316.2 265 319.9L207.4 413.5L204.4 418.3L204.4 452L308.4 452L308.4 412L255.3 412L299.1 340.8C305.2 330.9 308.4 319.4 308.4 307.8L308.4 304C308.4 275.3 285.1 252 256.4 252C227.7 252 204.4 275.3 204.4 304zM384.4 252C355.7 252 332.4 275.3 332.4 304L332.4 400C332.4 428.7 355.7 452 384.4 452C413.1 452 436.4 428.7 436.4 400L436.4 304C436.4 275.3 413.1 252 384.4 252zM372.4 304C372.4 297.4 377.8 292 384.4 292C391 292 396.4 297.4 396.4 304L396.4 400C396.4 406.6 391 412 384.4 412C377.8 412 372.4 406.6 372.4 400L372.4 304z"/></svg>