<svg xmlns="http://www.w3.org/2000/svg" viewBox="0 0 640 640"><!--! Font Awesome Pro 7.2.0 by @fontawesome - https://fontawesome.com License - https://fontawesome.com/license (Commercial License) Copyright 2026 Fonticons, Inc. --><path fill="currentColor" d="M320 160C333.3 160 344 149.3 344 136C344 122.7 333.3 112 320 112C306.7 112 296 122.7 296 136C296 149.3 306.7 160 320 160zM320 64C359.8 64 392 96.2 392 136C392 175.8 359.8 208 320 208C280.2 208 248 175.8 248 136C248 96.2 280.2 64 320 64zM287.4 344C290.2 369.4 294.1 404 299 448L341.1 448C346 404 349.8 369.4 352.7 344L384.1 344L384.1 304C384.1 286.3 369.8 272 352.1 272L288.1 272C270.4 272 256.1 286.3 256.1 304L256.1 344L287.5 344zM395.5 392L383.9 496L255.9 496L244.3 392L207.9 392L207.9 304C207.9 259.8 243.7 224 287.9 224L351.9 224C396.1 224 431.9 259.8 431.9 304L431.9 392L395.5 392zM119.3 483.2C115.7 485.6 115.7 490.4 119.3 492.8C128.1 498.5 142.4 504.6 162.3 510.1C201.7 521 257.4 528 320 528C382.6 528 438.3 521 477.7 510.1C497.6 504.6 511.9 498.5 520.7 492.8C524.3 490.4 524.3 485.6 520.7 483.2C518.6 481.8 515.9 480.3 512.8 478.7C497.5 471 474 463.8 443.8 458.2L452.4 411C484.8 416.9 513.3 425.2 534.4 435.8C544.9 441.1 554.7 447.5 562.2 455.4C569.8 463.5 576.2 474.5 576.2 488C576.2 509.4 560.7 524.1 547.1 533C532.4 542.6 512.8 550.3 490.7 556.4C446.1 568.7 385.9 576 320.3 576C254.7 576 194.5 568.7 149.9 556.4C127.8 550.3 108.1 542.6 93.5 533C79.8 524.1 64.4 509.4 64.4 488C64.4 474.5 70.8 463.5 78.4 455.4C85.9 447.5 95.7 441.1 106.2 435.8C127.2 425.2 155.7 416.9 188.2 411L196.8 458.2C166.6 463.7 143.1 471 127.8 478.7C124.6 480.3 122 481.8 119.9 483.2z"/></svg>