<svg xmlns="http://www.w3.org/2000/svg" viewBox="0 0 640 640"><!--! Font Awesome Pro 7.2.0 by @fontawesome - https://fontawesome.com License - https://fontawesome.com/license (Commercial License) Copyright 2026 Fonticons, Inc. --><path fill="currentColor" d="M64 464C64 525.9 114.1 576 176 576L576 576L576 352L517.8 352L469.8 400L528 400L528 528L273.9 528L528.9 273L545.9 256L528.9 239L400.9 111L383.9 94C374.9 103 358.9 119 335.9 142L336 209.9L384 161.9L478.1 256L288 446.1L288 64L64 64L64 464zM176 528C140.7 528 112 499.3 112 464L112 368L240 368L240 464C240 499.3 211.3 528 176 528zM240 320L112 320L112 240L240 240L240 320zM240 192L112 192L112 112L240 112L240 192zM176 488C189.3 488 200 477.3 200 464C200 450.7 189.3 440 176 440C162.7 440 152 450.7 152 464C152 477.3 162.7 488 176 488z"/></svg>