<svg xmlns="http://www.w3.org/2000/svg" viewBox="0 0 640 640"><!--! Font Awesome Pro 7.2.0 by @fontawesome - https://fontawesome.com License - https://fontawesome.com/license (Commercial License) Copyright 2026 Fonticons, Inc. --><path fill="currentColor" d="M496.4 272C527.3 272 552.4 246.9 552.4 216C552.4 185.1 527.3 160 496.4 160C465.5 160 440.4 185.1 440.4 216C440.4 246.9 465.5 272 496.4 272zM206.8 333.2C218.7 338 235.5 344.7 257.1 353.3L349.9 273.8L408.1 341L455.3 322.1L370.6 224.3L365.9 218.9L359 216.9L247 184.9L236.6 181.9L227.5 187.7C157.6 232.2 121.5 255.2 119.3 256.6L145 297.1C148.7 294.7 181.8 273.7 244.1 234L302.8 250.8L206.7 333.2zM209.3 385.7L200.4 382.1L191.5 385.7L79.7 430.4C50.4 420.6 29.6 413.7 17.3 409.6L2 455.2C13 458.9 36.6 466.7 72.8 478.8L81.1 481.6L89.3 478.3L200.4 433.9L311.5 478.3L320.4 481.9L329.3 478.3L440.4 433.9L551.5 478.3L559.7 481.6L568 478.8C604.2 466.7 627.8 458.9 638.8 455.2L623.6 409.7C611.2 413.8 590.4 420.8 561.2 430.5L449.4 385.8L440.5 382.2L431.6 385.8L320.5 430.2L209.4 385.8z"/></svg>