<svg xmlns="http://www.w3.org/2000/svg" viewBox="0 0 640 640"><!--! Font Awesome Pro 7.2.0 by @fontawesome - https://fontawesome.com License - https://fontawesome.com/license (Commercial License) Copyright 2026 Fonticons, Inc. --><path fill="currentColor" d="M63 7C40.3 29.7 9.7 60.3 7.2 62.9L21.9 79.8L256 347.3L256 368L272 384L494.1 606.1L528 640L640 528C638.1 526.1 574 462 448 336L433.1 336L79.9 22.1L63 7zM131.4 132L360.8 335.9L309.8 335.9L131.4 132zM458.9 503L503 458.9L572.1 528L528 572.1L458.9 503zM425 469.1L339.9 384L428.1 384L469.1 425L425 469.1zM173.1 370.9C62.8 481.2 5.1 538.9 0 544C51.9 595.9 75.1 619.1 96 640C101.1 634.9 158.8 577.2 269.1 466.9L278.1 457.9C233.8 413.6 210.4 390.2 208 387.8L208 365.3L194.3 349.7L173.1 370.9zM618 79.9L632.9 63C610.3 40.4 579.6 9.7 577 7.1L560.1 22L355.2 202.5L391.4 234.6L508.9 131.1L406.1 247.8L442 279.7L618 79.9zM195.8 416.1L223.9 444.2L204.2 463.9L176.1 435.8L195.8 416.1zM175.9 492.2L96 572.1L67.9 544L147.8 464.1L175.9 492.2z"/></svg>