<svg xmlns="http://www.w3.org/2000/svg" viewBox="0 0 640 640"><!--! Font Awesome Pro 7.2.0 by @fontawesome - https://fontawesome.com License - https://fontawesome.com/license (Commercial License) Copyright 2026 Fonticons, Inc. --><path fill="currentColor" d="M464 96C508.2 96 544 131.8 544 176L544 256L344 256L344 496L448 496L448 544L192 544L192 496L296 496L296 256L96 256L96 176C96 134.6 127.5 100.5 167.8 96.4L176 96L464 96zM176 144C158.3 144 144 158.3 144 176L144 208L496 208L496 176C496 158.3 481.7 144 464 144L176 144z"/></svg>