<svg xmlns="http://www.w3.org/2000/svg" viewBox="0 0 640 640"><!--! Font Awesome Pro 7.2.0 by @fontawesome - https://fontawesome.com License - https://fontawesome.com/license (Commercial License) Copyright 2026 Fonticons, Inc. --><path fill="currentColor" d="M544 544L96 544L96 96L544 96L544 544zM144 496L296 496L296 416L144 416L144 496zM344 496L496 496L496 416L344 416L344 496zM240 368L296 368L296 272L240 272L240 368zM448 368L496 368L496 272L448 272L448 368zM344 368L400 368L400 272L344 272L344 368zM144 368L192 368L192 272L144 272L144 368zM144 224L296 224L296 144L144 144L144 224zM344 224L496 224L496 144L344 144L344 224z"/></svg>