<svg xmlns="http://www.w3.org/2000/svg" viewBox="0 0 640 640"><!--! Font Awesome Pro 7.2.0 by @fontawesome - https://fontawesome.com License - https://fontawesome.com/license (Commercial License) Copyright 2026 Fonticons, Inc. --><path fill="currentColor" d="M64 232L64 544L368 544L368 336L376 336L376 280L412.9 280C431.5 241.9 468.3 214.4 512 209L512 96L64 96L64 232zM112 280L200 280L200 360L112 360L112 280zM112 496L112 408L200 408L200 496L112 496zM328 496L248 496L248 408L328 408L328 496zM248 280L328 280L328 360L248 360L248 280zM528 304C545.7 304 560 318.3 560 336L608 336C608 291.8 572.2 256 528 256C483.8 256 448 291.8 448 336L448 384L416 384L416 576L640 576L640 384L496 384L496 336C496 318.3 510.3 304 528 304z"/></svg>