<svg xmlns="http://www.w3.org/2000/svg" viewBox="0 0 640 640"><!--! Font Awesome Pro 7.2.0 by @fontawesome - https://fontawesome.com License - https://fontawesome.com/license (Commercial License) Copyright 2026 Fonticons, Inc. --><path fill="currentColor" d="M528 176L528 304L368 304L368 464L112 464L112 176L528 176zM508.1 352L416 444.1L416 352L508.1 352zM576 352L576 128L64 128L64 512L416 512L576 352zM192 288C209.7 288 224 273.7 224 256C224 238.3 209.7 224 192 224C174.3 224 160 238.3 160 256C160 273.7 174.3 288 192 288z"/></svg>