<svg xmlns="http://www.w3.org/2000/svg" viewBox="0 0 640 640"><!--! Font Awesome Pro 7.2.0 by @fontawesome - https://fontawesome.com License - https://fontawesome.com/license (Commercial License) Copyright 2026 Fonticons, Inc. --><path fill="currentColor" d="M204.1 133.8L217.9 114.1L178.6 86.6C173.7 93.6 155.9 119 125.2 162.8C111.6 149.2 99.3 136.9 88.5 126.1L54.6 160L111.6 217L131.8 237.2C136.1 231 160.3 196.5 204.2 133.8zM204.1 293.8L217.9 274.1L178.6 246.6C173.7 253.6 155.9 279 125.2 322.8C111.6 309.2 99.3 296.9 88.5 286.1L54.5 320C62 327.5 81 346.5 111.5 377L131.7 397.2C136 391 160.2 356.5 204.1 293.8zM256.5 136L256.5 184L576.5 184L576.5 136L256.5 136zM256.5 296L256.5 344L576.5 344L576.5 296L256.5 296zM224.5 456L224.5 504L576.5 504L576.5 456L224.5 456zM160.5 480C160.5 462.3 146.2 448 128.5 448C110.8 448 96.5 462.3 96.5 480C96.5 497.7 110.8 512 128.5 512C146.2 512 160.5 497.7 160.5 480z"/></svg>