<svg xmlns="http://www.w3.org/2000/svg" viewBox="0 0 640 640"><!--! Font Awesome Pro 7.2.0 by @fontawesome - https://fontawesome.com License - https://fontawesome.com/license (Commercial License) Copyright 2026 Fonticons, Inc. --><path fill="currentColor" d="M384 144L384 240L496 240L496 144L384 144zM144 144L144 240L158.1 240L254.1 144L144 144zM336 240L336 144L321.9 144L225.9 240L336 240zM96 96L544 96L544 288L96 288L96 96zM496 400L256 400L256 496L496 496L496 400zM144 400L144 496L208 496L208 400L144 400zM144 352L544 352L544 544L96 544L96 352L144 352z"/></svg>