<svg xmlns="http://www.w3.org/2000/svg" viewBox="0 0 640 640"><!--! Font Awesome Pro 7.2.0 by @fontawesome - https://fontawesome.com License - https://fontawesome.com/license (Commercial License) Copyright 2026 Fonticons, Inc. --><path fill="currentColor" d="M490.5 296.4L410.5 157.8L459.4 129.6L539.4 268.2L490.5 296.4zM605 285.7C598.3 274.2 563.7 214.1 501 105.6L477 64C415.8 99.3 360.8 131.1 344.9 140.2L358.9 164.4L68.7 348.8L87.9 382.1L32 414.4L81.9 500.8L137.8 468.5L154.1 496.7L270.1 434L212.3 575.9L264.1 575.9L317.2 445.7C323.2 447.2 329.5 447.9 336 447.9C342.5 447.9 348.8 447.1 354.8 445.7L407.9 575.9L459.7 575.9L396.4 420.4C408.6 406.3 416.1 388 416.1 367.9C416.1 363.7 415.8 359.7 415.2 355.7L456.6 333.3L473.1 361.9C534.2 326.6 589.3 294.8 605.2 285.7zM172.4 432.4L133.3 364.7L383 206.1L432.5 291.8L393.9 312.7C379.3 297.5 358.8 288 336.1 288C291.9 288 256.1 323.8 256.1 368C256.1 374.2 256.8 380.3 258.2 386.1L172.5 432.4zM336 336C353.7 336 368 350.3 368 368C368 385.7 353.7 400 336 400C318.3 400 304 385.7 304 368C304 350.3 318.3 336 336 336z"/></svg>