<svg xmlns="http://www.w3.org/2000/svg" viewBox="0 0 640 640"><!--! Font Awesome Pro 7.2.0 by @fontawesome - https://fontawesome.com License - https://fontawesome.com/license (Commercial License) Copyright 2026 Fonticons, Inc. --><path fill="currentColor" d="M256.4 113.6C200.8 76.7 170.6 56.7 165.9 53.6C164.8 59.1 157.6 94.6 144.4 160C79 173.2 43.5 180.4 38 181.5C41.1 186.2 61.1 216.3 98 272C61.1 327.6 41.1 357.8 38 362.5C43.5 363.6 79 370.8 144.4 384C157.6 449.4 164.8 484.9 165.9 490.4C173.2 485.5 198.1 469 240.6 440.9C240.5 438 240.4 435 240.4 432C240.4 409.5 244.3 387.9 251.4 367.9C200.7 365.3 160.4 323.4 160.4 272C160.4 219 203.4 176 256.4 176C261.9 176 267.2 176.5 272.4 177.3L272.4 102.9L256.4 113.5zM256.4 224C229.9 224 208.4 245.5 208.4 272C208.4 298.5 229.9 320 256.4 320C262 320 267.4 319 272.4 317.3L272.4 226.8C267.4 225 262 224.1 256.4 224.1zM344.4 64L320.4 64L320.4 341.5C300.4 366.2 288.4 397.7 288.4 432C288.4 511.5 352.9 576 432.4 576C511.9 576 576.4 511.5 576.4 432C576.4 397.7 564.4 366.2 544.4 341.5L544.4 64L344.4 64zM368.4 176L368.4 112L496.4 112L496.4 359.8L502.8 366.7C518.7 383.8 528.4 406.7 528.4 432C528.4 485 485.4 528 432.4 528C379.4 528 336.4 485 336.4 432C336.4 406.8 346.1 383.9 362 366.7L368.4 359.8L368.4 176zM432.4 480C458.9 480 480.4 458.5 480.4 432C480.4 414.2 470.7 398.7 456.4 390.4L456.4 152L408.4 152L408.4 390.4C394.1 398.7 384.4 414.2 384.4 432C384.4 458.5 405.9 480 432.4 480z"/></svg>