<svg xmlns="http://www.w3.org/2000/svg" viewBox="0 0 640 640"><!--! Font Awesome Pro 7.2.0 by @fontawesome - https://fontawesome.com License - https://fontawesome.com/license (Commercial License) Copyright 2026 Fonticons, Inc. --><path fill="currentColor" d="M312 527.8C312 472.6 333.1 417.4 375.3 375.2C417.5 333 472.6 312 527.8 312C523.7 203.5 436.5 116.3 328 112.2C328 167.4 306.9 222.6 264.7 264.8C222.5 307 167.4 328 112.2 328C116.3 436.5 203.5 523.7 312 527.8zM360 524.1C442.8 508 508 442.7 524.1 360C482.4 361 441 377.3 409.2 409.2C377.4 441.1 361 482.4 360 524.2zM115.9 280C157.6 279 199 262.7 230.8 230.8C262.6 198.9 279 157.6 280 115.9C197.2 132 132 197.2 115.9 280zM64 320C64 178.6 178.6 64 320 64C461.4 64 576 178.6 576 320C576 461.4 461.4 576 320 576C178.6 576 64 461.4 64 320z"/></svg>