<svg xmlns="http://www.w3.org/2000/svg" viewBox="0 0 640 640"><!--! Font Awesome Pro 7.2.0 by @fontawesome - https://fontawesome.com License - https://fontawesome.com/license (Commercial License) Copyright 2026 Fonticons, Inc. --><path fill="currentColor" d="M177.4 249C227.9 198.5 254.9 171.5 258.4 168L224.4 134.1C214.1 144.4 200.8 157.7 184.4 174.1L184.4 64L136.4 64L136.4 174.1L96.4 134.1L62.5 168L143.5 249L160.5 266L177.5 249zM480.4 266C483.9 262.5 510.9 235.5 561.4 185L578.4 168L544.5 134.1C534.2 144.4 520.9 157.7 504.5 174.1L504.5 64L456.5 64L456.5 174.1C440.1 157.7 426.8 144.4 416.5 134.1L382.5 168C386 171.5 413 198.5 463.5 249L480.5 266zM96.4 576L544.4 576C543.3 567.1 533.4 488.9 514.7 341.3L319.3 224L126.2 341.3C107.5 488.9 97.6 567.1 96.4 576zM296.4 528L150.9 528L170.9 370.3L296.5 294L296.5 528zM344.4 401.7L344.4 295.1L470 370.5L489.9 528L408.3 528L344.4 401.7z"/></svg>