<svg xmlns="http://www.w3.org/2000/svg" viewBox="0 0 640 640"><!--! Font Awesome Pro 7.2.0 by @fontawesome - https://fontawesome.com License - https://fontawesome.com/license (Commercial License) Copyright 2026 Fonticons, Inc. --><path fill="currentColor" d="M145.2 220.5C119.1 225.1 101.7 250 106.3 276.1L176.4 263.7L176.4 225.5C167.2 220.5 156.3 218.5 145.2 220.5zM129.5 399.2L176.3 390.9L176.3 316C147.5 333.2 129.2 364.7 129.5 399.1zM105.2 454.5L58.2 188.1C71.7 168.6 112 128.9 191.5 114.9C204.2 112.7 216.2 111.4 227.4 110.9C248.4 95.7 275.6 81.6 308.5 71.5C275.6 62.6 233.3 58.8 183.1 67.7C79.9 85.9 26.7 142.8 11.5 172.7L7.9 179.8L9.3 187.7L60.7 479.2L63.6 495.5L79.8 498.6L176.2 517.1L176.2 468.2L105.1 454.6zM416.3 104C311.5 104 249.2 150.8 229.1 177.6L224.3 184L224.3 495.8L238.8 502L406.8 574L416.3 578.1L425.8 574L593.8 502L608.3 495.8L608.3 184L603.5 177.6C583.4 150.8 521.1 104 416.3 104zM272.3 464.2L272.3 201C289 184.1 335.6 152 416.3 152C497 152 543.7 184.1 560.3 200.9L560.3 464.1L416.3 525.8L272.3 464.1zM304.3 354.3C305.5 415.1 355.2 464 416.3 464C477.4 464 527.1 415.1 528.3 354.3C499.4 382.6 459.9 400 416.3 400C372.7 400 333.2 382.6 304.3 354.3zM400.3 304C400.3 277.5 378.8 256 352.3 256C325.8 256 304.3 277.5 304.3 304L400.3 304zM480.3 256C453.8 256 432.3 277.5 432.3 304L528.3 304C528.3 277.5 506.8 256 480.3 256z"/></svg>