<svg xmlns="http://www.w3.org/2000/svg" viewBox="0 0 640 640"><!--! Font Awesome Pro 7.2.0 by @fontawesome - https://fontawesome.com License - https://fontawesome.com/license (Commercial License) Copyright 2026 Fonticons, Inc. --><path fill="currentColor" d="M384 54L401 71L569.1 239.1L586.1 256.1L552.2 290C539.4 277.2 531 268.8 527.1 264.9L428.9 376.3C432.1 420.9 420.9 467.4 397.1 506.3C388.7 520.1 378.7 532.9 367.3 544.3L333.4 510.4L129.8 306.8L95.9 272.9C107.4 261.4 120.2 251.5 133.9 243.1C172.8 219.3 219.3 208.1 263.9 211.3L375.2 113C371.2 109 362.9 100.7 350.1 87.9L384 54zM493 230.8L409.2 147L295.5 247.1L280.4 260.4L260.4 259C229.3 256.8 197 263.6 169 278.2L361.9 471.1C376.4 443.1 383.3 410.8 381.1 379.7L379.7 359.7L393 344.6L493.1 230.9zM71.1 535L180.6 425.5L214.5 459.4L105 568.9L88 585.9L54.1 552L71.1 535z"/></svg>