<svg xmlns="http://www.w3.org/2000/svg" viewBox="0 0 640 640"><!--! Font Awesome Pro 7.2.0 by @fontawesome - https://fontawesome.com License - https://fontawesome.com/license (Commercial License) Copyright 2026 Fonticons, Inc. --><path fill="currentColor" d="M112 176L112 464L528 464L528 176L112 176zM64 128L576 128L576 512L64 512L64 128zM415 258.9C408.2 265.7 387.8 286.1 353.9 320C387.8 353.9 408.2 374.3 415 381.1L381.1 415L320 353.9C286.1 387.8 265.7 408.2 258.9 415L225 381.1C231.8 374.3 252.2 353.9 286.1 320C252.2 286.1 231.8 265.7 225 258.9L258.9 225C265.7 231.8 286.1 252.2 320 286.1C353.9 252.2 374.3 231.8 381.1 225L415 258.9z"/></svg>