<svg xmlns="http://www.w3.org/2000/svg" viewBox="0 0 640 640"><!--! Font Awesome Pro 7.2.0 by @fontawesome - https://fontawesome.com License - https://fontawesome.com/license (Commercial License) Copyright 2026 Fonticons, Inc. --><path fill="currentColor" d="M96.4 128L96.4 192L160.4 192L160.4 128L96.4 128zM104.4 240L48.4 240L48.4 80L208.4 80L208.4 240L152.4 240L152.4 296L360.4 296L360.4 240L304.4 240L304.4 80L464.4 80L464.4 240L408.4 240L408.4 296L526.5 296C510.1 279.6 496.8 266.3 486.5 256L520.4 222.1C523.9 225.6 550.9 252.6 601.4 303.1L618.4 320.1C614.9 323.6 587.9 350.6 537.4 401.1L520.4 418.1L486.5 384.2C496.8 373.9 510.1 360.6 526.5 344.2L280.4 344.2L280.4 400.2L336.4 400.2L336.4 560.2L176.4 560.2L176.4 400.2L232.4 400.2L232.4 344.2L32.4 344.2L32.4 296.2L104.4 296.2L104.4 240.2zM280.4 448L224.4 448L224.4 512L288.4 512L288.4 448L280.4 448zM416.4 192L416.4 128L352.4 128L352.4 192L416.4 192z"/></svg>