<svg xmlns="http://www.w3.org/2000/svg" viewBox="0 0 640 640"><!--! Font Awesome Pro 7.2.0 by @fontawesome - https://fontawesome.com License - https://fontawesome.com/license (Commercial License) Copyright 2026 Fonticons, Inc. --><path fill="currentColor" d="M503.7 449.6C519.2 420.6 528 387.4 528 352C528 237.1 434.9 144 320 144C205.1 144 112 237.1 112 352C112 387.4 120.8 420.5 136.3 449.6L150.6 476.5C138.7 492.4 125.9 509.5 112 528L528 528C514.1 509.5 501.3 492.4 489.4 476.5L503.7 449.6zM546.1 472.2L576 512.1L576 576.1L64 576.1L64 512.1L93.9 472.2C74.8 436.3 64 395.4 64 352C64 210.6 178.6 96 320 96C461.4 96 576 210.6 576 352C576 395.4 565.2 436.3 546.1 472.1zM440 352C440 320.8 428.1 292.4 408.6 271.1L384.4 304.5C394.2 317.8 400 334.2 400 352L400 352.9L439.2 365.7C439.7 361.2 440 356.7 440 352.1zM385.1 398.5C375.1 412.5 360.7 423.1 343.9 428.4L343.9 469.7C378.3 462.7 407.4 441 424.3 411.4L385 398.6zM296 428.3C279.3 423 264.9 412.4 254.9 398.5L215.6 411.3C232.4 440.9 261.5 462.6 295.9 469.6L295.9 428.3zM200 352C200 356.6 200.3 361.2 200.8 365.6L240 352.8L240 351.9C240 334.1 245.8 317.7 255.6 304.4L253.9 302.1L231.3 271C211.9 292.4 200 320.8 200 352zM320 272C329 272 337.6 273.5 345.6 276.2L369.8 242.8C354.6 235.9 337.8 232 320 232C302.2 232 285.4 235.9 270.2 242.8L292.8 274L294.4 276.2C302.4 273.5 311 272 320 272zM152 352C152 259.2 227.2 184 320 184C412.8 184 488 259.2 488 352C488 444.8 412.8 520 320 520C227.2 520 152 444.8 152 352zM352 352C352 334.3 337.7 320 320 320C302.3 320 288 334.3 288 352C288 369.7 302.3 384 320 384C337.7 384 352 369.7 352 352z"/></svg>