<svg xmlns="http://www.w3.org/2000/svg" viewBox="0 0 640 640"><!--! Font Awesome Pro 7.2.0 by @fontawesome - https://fontawesome.com License - https://fontawesome.com/license (Commercial License) Copyright 2026 Fonticons, Inc. --><path fill="currentColor" d="M80 224C80 215.2 87.2 208 96 208L320 208C336.6 208 353.4 204.3 368.3 194.6C383.3 184.8 392.6 171.5 398.1 158.8C399.1 156.6 399.9 154.3 400.7 152.1C405.6 154.2 410.1 156.6 413.9 159.3C425.9 167.6 431.9 177.8 431.9 192.1C431.9 218.6 410.4 240.1 383.9 240.1L79.9 240.1L79.9 224.1zM408 103.5C392.6 98.5 376.1 96 360 96C360 126.8 357.7 160 320 160L96 160C60.7 160 32 188.7 32 224L32 288L384 288C437 288 480 245 480 192C480 145.6 447.5 116.3 408 103.5zM112 344L112 320L64 320L64 496L32 496L32 544L608 544L608 496L432 496L432 320L384 320L384 496L352 496L352 320L304 320L304 496L272 496L272 320L224 320L224 496L192 496L192 320L144 320L144 496L112 496L112 344z"/></svg>