<svg xmlns="http://www.w3.org/2000/svg" viewBox="0 0 640 640"><!--! Font Awesome Pro 7.2.0 by @fontawesome - https://fontawesome.com License - https://fontawesome.com/license (Commercial License) Copyright 2026 Fonticons, Inc. --><path fill="currentColor" d="M80 144L80 432L156.1 432C172.2 412.5 196.7 400 224 400C251.3 400 275.7 412.5 291.9 432L496 432L496 144L80 144zM328 480L311.6 480C311.8 482.6 312 485.3 312 488C312 536.6 272.6 576 224 576C175.4 576 136 536.6 136 488C136 485.3 136.1 482.6 136.4 480L32 480L32 96L544 96L544 432L640 432L640 480L328 480zM384 192L432 192L432 352L384 352L384 192zM192 192L192 352L144 352L144 192L192 192zM264 192L312 192L312 352L264 352L264 192zM224 528C246.1 528 264 510.1 264 488C264 465.9 246.1 448 224 448C201.9 448 184 465.9 184 488C184 510.1 201.9 528 224 528z"/></svg>