<svg xmlns="http://www.w3.org/2000/svg" viewBox="0 0 640 640"><!--! Font Awesome Pro 7.2.0 by @fontawesome - https://fontawesome.com License - https://fontawesome.com/license (Commercial License) Copyright 2026 Fonticons, Inc. --><path fill="currentColor" d="M168 32L192 32L192 80L113.9 80L160 126.1L192 94.1L225.9 128C214.3 139.6 203.6 150.3 193.9 160L216.1 182.2C244.1 158.4 280.4 144 320 144C359.6 144 395.9 158.4 423.8 182.2L526 80L447.9 80L447.9 32L607.9 32L607.9 192L559.9 192L559.9 113.9L455.2 218.6C470.8 243.3 479.9 272.6 479.9 304C479.9 384.2 420.9 450.6 343.9 462.2L343.9 496L407.9 496L407.9 544L343.9 544L343.9 608L295.9 608L295.9 544L231.9 544L231.9 496L295.9 496L295.9 462.2C218.9 450.6 159.9 384.2 159.9 304C159.9 272.6 168.9 243.3 184.6 218.6L160 193.9C150.3 203.6 139.6 214.3 128 225.9L94.1 192L126.1 160L80 113.9L80 192L32 192L32 32L168 32zM320 416C381.9 416 432 365.9 432 304C432 242.1 381.9 192 320 192C258.1 192 208 242.1 208 304C208 365.9 258.1 416 320 416z"/></svg>