<svg xmlns="http://www.w3.org/2000/svg" viewBox="0 0 640 640"><!--! Font Awesome Pro 7.2.0 by @fontawesome - https://fontawesome.com License - https://fontawesome.com/license (Commercial License) Copyright 2026 Fonticons, Inc. --><path fill="currentColor" d="M320 144C350.9 144 376 118.9 376 88C376 57.1 350.9 32 320 32C289.1 32 264 57.1 264 88C264 118.9 289.1 144 320 144zM268.9 176L256.4 176L249.2 186.2L148.3 330.2L134.5 349.9L173.8 377.4C176.6 373.5 198.6 342 239.9 283.1L239.9 512L287.9 512L287.9 432L351.9 432L351.9 512L399.9 512L399.9 283.1C441.2 342.1 463.3 373.5 466 377.4L505.3 349.9L491.5 330.2L390.6 186.2L383.4 176L268.8 176zM288 608L480 608L480 560L160 560L160 608L288 608zM352 384L288 384L288 224L352 224L352 384zM144 176L96 160L80 112L64 160L16 176L64 192L80 240L96 192L144 176zM576 96L560 48L544 96L496 112L544 128L560 176L576 128L624 112L576 96z"/></svg>