<svg xmlns="http://www.w3.org/2000/svg" viewBox="0 0 640 640"><!--! Font Awesome Pro 7.2.0 by @fontawesome - https://fontawesome.com License - https://fontawesome.com/license (Commercial License) Copyright 2026 Fonticons, Inc. --><path fill="currentColor" d="M400 48L240 48L216 112L96 112L96 160L544 160L544 112L424 112L400 48zM124.7 208L152 576L488 576L515.3 208L467.2 208L443.5 528L196.7 528L173 208L124.9 208zM337 263L320 246C316.5 249.5 289.5 276.5 239 327L222 344L255.9 377.9C266.2 367.6 279.5 354.3 295.9 337.9L295.9 448L343.9 448L343.9 337.9C360.3 354.3 373.6 367.6 383.9 377.9L417.9 344C414.4 340.5 387.4 313.5 336.9 263z"/></svg>