<svg xmlns="http://www.w3.org/2000/svg" viewBox="0 0 640 640"><!--! Font Awesome Pro 7.2.0 by @fontawesome - https://fontawesome.com License - https://fontawesome.com/license (Commercial License) Copyright 2026 Fonticons, Inc. --><path fill="currentColor" d="M81.3 47.1L64.3 30.1L30.4 64L47.4 81L559.4 593L576.4 610L610.3 576.1L593.3 559.1L512.1 477.9L512.1 207.9L464.1 207.9L464.1 429.9L400.1 365.9L400.1 255.9L352.1 255.9L352.1 317.9L194.1 159.9L544.1 159.9L544.1 111.9L424.1 111.9L400.1 47.9L240.1 47.9L216.1 111.9L146.1 111.9L81.2 47zM240.1 341.8L240.1 480L288.1 480L288.1 389.8L240.1 341.8zM176.1 277.8L128.1 229.8L128.1 576L474.3 576L426.3 528L176.1 528L176.1 277.8z"/></svg>