<svg xmlns="http://www.w3.org/2000/svg" viewBox="0 0 640 640"><!--! Font Awesome Pro 7.2.0 by @fontawesome - https://fontawesome.com License - https://fontawesome.com/license (Commercial License) Copyright 2026 Fonticons, Inc. --><path fill="currentColor" d="M128 144L165.2 205.9C161.2 209.4 157.2 213.1 153.2 217.1C74 296.3 96.6 386.8 130.6 420.7L268 283.3C270.7 293.9 272.8 306.5 274.1 321.3C278.4 371.2 272.4 444.7 241.1 544.9L231.4 576.1L405.2 576.1L407.8 555.1C416.2 488.2 411.9 415.7 399.6 349.7C393.4 316.8 385.1 285 375.1 256.1L483.2 256.1L512 208.1L540.8 256.1L608 256.1C608 208 560 128 448 128C404.3 128 370.4 140.2 345.2 157.8C328.5 113.4 280 64 192 64C80 64 32 144 32 192L99.2 192L128 144zM324 256C335.5 285.9 345.3 320.8 352.4 358.4C362.7 413.4 366.9 472.7 362.3 528L296.1 528C321 438.5 326.4 368.8 321.9 317.1C319.8 293.1 315.6 272.7 310 256L324.1 256z"/></svg>