<svg xmlns="http://www.w3.org/2000/svg" viewBox="0 0 640 640"><!--! Font Awesome Pro 7.2.0 by @fontawesome - https://fontawesome.com License - https://fontawesome.com/license (Commercial License) Copyright 2026 Fonticons, Inc. --><path fill="currentColor" d="M477.5 80C514.2 80 544 109.8 544 146.5C544 164.1 537 181.1 524.5 193.5L512 206.1L417.9 112L430.5 99.5C442.9 87 459.8 80 477.5 80zM478.1 240L432 286.1L338 192.1C338.6 191.5 339.3 190.8 339.9 190.2C345.7 184.4 360.4 169.7 384.1 146L478.1 240zM398.1 320L170.9 547.1C162.7 555.3 151.5 560 139.9 560C115.7 560 96 540.4 96 516.1C96 504.5 100.6 493.3 108.9 485.1L174.1 419.9L140.2 386L75 451.2C57.8 468.4 48.1 491.8 48.1 516.2C48.1 566.9 89.2 608.1 140 608.1C164.4 608.1 187.7 598.4 205 581.2L558.5 227.5C580 206 592 176.9 592 146.5C592 83.3 540.7 32 477.5 32C447.1 32 418 44.1 396.5 65.5C320.6 141.4 310.7 151.3 305.9 156.1C271.2 190.8 226.5 213.6 178 221.2C127.6 229.2 88.8 235.3 61.7 239.6C102.8 280.7 115.9 293.8 215 392.9C216.1 394 229.9 407.8 256.3 434.2C260.6 407 266.7 368.3 274.7 317.9C279.7 286.4 291.1 256.5 307.9 229.8L398.1 320zM242.7 253.3C235.6 271.7 230.4 290.8 227.3 310.4L223.6 333.6L162.3 272.3L185.5 268.6C205.1 265.5 224.3 260.3 242.6 253.2z"/></svg>