<svg xmlns="http://www.w3.org/2000/svg" viewBox="0 0 640 640"><!--! Font Awesome Pro 7.2.0 by @fontawesome - https://fontawesome.com License - https://fontawesome.com/license (Commercial License) Copyright 2026 Fonticons, Inc. --><path fill="currentColor" d="M376.4 96L352.4 96L352.4 438.1L49.5 529L26.5 535.9L40.3 581.9L63.3 575L379.9 480L432.7 480C432.5 482.6 432.3 485.3 432.3 488C432.3 536.6 471.7 576 520.3 576C568.9 576 608.3 536.6 608.3 488C608.3 439.4 568.9 400 520.3 400C493 400 468.6 412.5 452.4 432L400.3 432L400.3 144L608.3 144L608.3 96L376.3 96zM480.4 488C480.4 465.9 498.3 448 520.4 448C542.5 448 560.4 465.9 560.4 488C560.4 510.1 542.5 528 520.4 528C498.3 528 480.4 510.1 480.4 488zM92.9 222.2C62.2 231.6 43.7 261.9 48.3 292.7C56.3 286 65.7 280.7 76.4 277.5C113.4 266.2 152.3 283 170.1 315.8L304.5 274.7L304.5 157.6L93 222.3zM185.6 361.2L139.7 375.2L130.3 344.6C125.1 327.7 107.2 318.2 90.3 323.4C73.4 328.6 63.9 346.5 69.1 363.4L97.2 455.2L304.4 391.9L304.4 325L185.6 361.3z"/></svg>