<svg xmlns="http://www.w3.org/2000/svg" viewBox="0 0 640 640"><!--! Font Awesome Pro 7.2.0 by @fontawesome - https://fontawesome.com License - https://fontawesome.com/license (Commercial License) Copyright 2026 Fonticons, Inc. --><path fill="currentColor" d="M368 304L368 272C368 201.3 310.7 144 240 144C169.3 144 112 201.3 112 272L112 304L368 304zM416 304L416 352L64 352L64 272C64 174.8 142.8 96 240 96C337.2 96 416 174.8 416 272L416 304zM512 352C506.5 352 501.1 351.3 496 350L496 432L384 432L384 544L256 544L256 432L224 432L224 544L96 544L96 432L32 432L32 384L448 384L448 176L512 176C565 176 608 219 608 272L608 352L512 352zM304 432L304 496L336 496L336 432L304 432zM144 432L144 496L176 496L176 432L144 432zM528 288C536.8 288 544 280.8 544 272C544 263.2 536.8 256 528 256C519.2 256 512 263.2 512 272C512 280.8 519.2 288 528 288z"/></svg>