<svg xmlns="http://www.w3.org/2000/svg" viewBox="0 0 640 640"><!--! Font Awesome Pro 7.2.0 by @fontawesome - https://fontawesome.com License - https://fontawesome.com/license (Commercial License) Copyright 2026 Fonticons, Inc. --><path fill="currentColor" d="M184 64L160 64L160 208L208 208L208 112L382.1 112L432 161.9L432 208L480 208L480 142.1L473 135.1L409 71.1L402 64.1L184.1 64.1zM96 256L96 352L128 352L128 576L512 576L512 352L544 352L544 256L400 256L368 288L272 288L240 256L96 256zM176 528L176 352L464 352L464 528L176 528zM240 384C226.7 384 216 394.7 216 408C216 421.3 226.7 432 240 432C253.3 432 264 421.3 264 408C264 394.7 253.3 384 240 384zM296 408C296 421.3 306.7 432 320 432C333.3 432 344 421.3 344 408C344 394.7 333.3 384 320 384C306.7 384 296 394.7 296 408zM400 384C386.7 384 376 394.7 376 408C376 421.3 386.7 432 400 432C413.3 432 424 421.3 424 408C424 394.7 413.3 384 400 384zM256 472C256 485.3 266.7 496 280 496C293.3 496 304 485.3 304 472C304 458.7 293.3 448 280 448C266.7 448 256 458.7 256 472zM360 448C346.7 448 336 458.7 336 472C336 485.3 346.7 496 360 496C373.3 496 384 485.3 384 472C384 458.7 373.3 448 360 448z"/></svg>