<svg xmlns="http://www.w3.org/2000/svg" viewBox="0 0 640 640"><!--! Font Awesome Pro 7.2.0 by @fontawesome - https://fontawesome.com License - https://fontawesome.com/license (Commercial License) Copyright 2026 Fonticons, Inc. --><path fill="currentColor" d="M224 608L224 528L360 528C479.3 528 576 431.3 576 312C576 192.7 479.3 96 360 96L128 96L128 256L360 256C390.9 256 416 281.1 416 312C416 342.9 390.9 368 360 368L224 368L224 288L64 448L224 608zM163.9 416L360 416C417.4 416 464 369.4 464 312C464 254.6 417.4 208 360 208L176 208L176 144L360 144C452.8 144 528 219.2 528 312C528 404.8 452.8 480 360 480L163.9 480L131.9 448L163.9 416z"/></svg>