<svg xmlns="http://www.w3.org/2000/svg" viewBox="0 0 640 640"><!--! Font Awesome Pro 7.2.0 by @fontawesome - https://fontawesome.com License - https://fontawesome.com/license (Commercial License) Copyright 2026 Fonticons, Inc. --><path fill="currentColor" d="M528 320C528 205.1 434.9 112 320 112C256 112 198.6 140.9 160.4 186.6L522.5 367.6C526.1 352.3 528 336.4 528 320zM292.1 306.1C167.4 243.7 100.4 210.2 90.9 205.5C98.1 191 106.7 177.4 116.5 164.6C163.3 103.4 237 64 320 64C461.4 64 576 178.6 576 320C576 344.1 572.7 367.4 566.4 389.6C562 405.1 556.2 420 549.2 434.2L549 434.6L335 327.6L333.4 330.8L234.8 528.1L576 528.1L576 576.1L64 576.1L64 528.1L181.2 528.1L290.6 309.4L292.2 306.2z"/></svg>