<svg xmlns="http://www.w3.org/2000/svg" viewBox="0 0 640 640"><!--! Font Awesome Pro 7.2.0 by @fontawesome - https://fontawesome.com License - https://fontawesome.com/license (Commercial License) Copyright 2026 Fonticons, Inc. --><path fill="currentColor" d="M512 256C493.1 236 440.1 180 353 88L320 53.1C311.4 62.2 262.5 113.9 173.4 208L128 256L240 256L240 320L240 320L240 448L400 448L400 256L512 256zM352 320L352 400L288 400L288 320L288 320L288 208L239.5 208L320 123L400.5 208L352 208L352 320zM192 512L128 512L128 576L192 576L192 512zM298.7 512L234.7 512L234.7 576L298.7 576L298.7 512zM341.4 512L341.4 576L405.4 576L405.4 512L341.4 512zM512 512L448 512L448 576L512 576L512 512z"/></svg>