<svg xmlns="http://www.w3.org/2000/svg" viewBox="0 0 640 640"><!--! Font Awesome Pro 7.2.0 by @fontawesome - https://fontawesome.com License - https://fontawesome.com/license (Commercial License) Copyright 2026 Fonticons, Inc. --><path fill="currentColor" d="M232 64L280 64C337.4 64 384 110.6 384 168L384 176L416 264L416 304L384 336L384 368L336 416L304 416L272 448L240 448L208 416L176 416L128 368L128 336L96 304L96 264L128 176L128 168C128 110.6 174.6 64 232 64zM336 192C336 180.6 333.6 169.8 329.3 160L288 160L256 128L224 160L182.7 160C178.4 169.8 176 180.6 176 192L176 208C176 220.7 179 232.8 184.3 243.5C204.7 223.1 215.1 212.7 215.8 212L296.4 212C297 212.6 307.5 223.1 327.9 243.5C333.2 232.8 336.2 220.8 336.2 208L336.2 192zM296 277.3C297.9 276.2 299.8 275 301.5 273.8L279.7 252L232.3 252L210.5 273.8C212.3 275 214.1 276.2 216 277.3C227.8 284.1 241.4 288 256 288C270.6 288 284.2 284.1 296 277.3zM32 576L91 398.9L94 401.9L128.9 436.8L82.5 575.9L31.9 575.9zM360 480L560 312L527.6 448L632 448L432 616L464.4 480L360 480z"/></svg>