<svg xmlns="http://www.w3.org/2000/svg" viewBox="0 0 640 640"><!--! Font Awesome Pro 7.2.0 by @fontawesome - https://fontawesome.com License - https://fontawesome.com/license (Commercial License) Copyright 2026 Fonticons, Inc. --><path fill="currentColor" d="M344 88L344 64L296 64L296 128L160 128L160 232L112 232L112 280L160 280L160 384L480 384L480 280L528 280L528 232L480 232L480 128L344 128L344 88zM296 176L432 176L432 336L208 336L208 176L296 176zM120 416L96 416L96 576L144 576L144 464L496 464L496 576L544 576L544 416L120 416zM264 536L264 512L216 512L216 576L264 576L264 536zM344 512L296 512L296 576L344 576L344 512zM424 536L424 512L376 512L376 576L424 576L424 536zM304 240C304 222.3 289.7 208 272 208C254.3 208 240 222.3 240 240C240 257.7 254.3 272 272 272C289.7 272 304 257.7 304 240zM368 272C385.7 272 400 257.7 400 240C400 222.3 385.7 208 368 208C350.3 208 336 222.3 336 240C336 257.7 350.3 272 368 272z"/></svg>