<svg xmlns="http://www.w3.org/2000/svg" viewBox="0 0 640 640"><!--! Font Awesome Pro 7.2.0 by @fontawesome - https://fontawesome.com License - https://fontawesome.com/license (Commercial License) Copyright 2026 Fonticons, Inc. --><path fill="currentColor" d="M221 184L419 184C405.4 142 366 112 320 112C274 112 234.6 142 221 184zM215.5 220.4L214.7 233.4C253.6 249.9 282.1 286.3 287.2 329.8L296 331.4L296 235.5L215.5 220.4zM352.8 329.8C357.9 286.2 386.4 249.8 425.3 233.4L424.5 220.4L344 235.5L344 331.4L352.8 329.8zM160 335.2L160 64L208 64L208 96L192 96L192 134C219.1 91.8 266.5 64 320 64C400.1 64 466.5 126.2 471.7 206.2L480 334.4L481.4 355.8L460.2 359.5L324.2 383.5C321.4 384 318.6 384 315.9 383.5L179.9 359.5L158.7 355.8L160 335.1zM147.7 576L96 576L160 416L480 416L544 576L492.3 576L447.5 464L192.5 464L147.7 576zM256 544L320 496L384 544L384 576L256 576L256 544z"/></svg>