<svg xmlns="http://www.w3.org/2000/svg" viewBox="0 0 640 640"><!--! Font Awesome Pro 7.2.0 by @fontawesome - https://fontawesome.com License - https://fontawesome.com/license (Commercial License) Copyright 2026 Fonticons, Inc. --><path fill="currentColor" d="M176.4 192C176.4 147.8 212.2 112 256.4 112C300.6 112 336.4 147.8 336.4 192C336.4 236.2 300.6 272 256.4 272C212.2 272 176.4 236.2 176.4 192zM82.7 576L131.9 416L288.6 416C289.4 399.2 292.6 383.1 298 368L96.4 368L32.4 576L82.6 576zM256.4 320C327.1 320 384.4 262.7 384.4 192C384.4 121.3 327.1 64 256.4 64C185.7 64 128.4 121.3 128.4 192C128.4 262.7 185.7 320 256.4 320zM456.4 352C496.2 352 528.4 384.2 528.4 424C528.4 463.8 496.2 496 456.4 496C416.6 496 384.4 463.8 384.4 424C384.4 384.2 416.6 352 456.4 352zM456.4 544C480.8 544 503.5 536.7 522.5 524.2C570.5 572.1 596.4 598.1 600.4 602.1L634.3 568.1C630.3 564.1 604.3 538.2 556.4 490.3C569 471.3 576.3 448.5 576.3 424C576.3 357.7 522.6 304 456.3 304C390 304 336.3 357.7 336.3 424C336.3 490.3 390 544 456.3 544z"/></svg>