<svg xmlns="http://www.w3.org/2000/svg" viewBox="0 0 640 640"><!--! Font Awesome Pro 7.2.0 by @fontawesome - https://fontawesome.com License - https://fontawesome.com/license (Commercial License) Copyright 2026 Fonticons, Inc. --><path fill="currentColor" d="M311.6 34.3L161.7 75.2C151.3 78 144 87.5 144 98.4C144 106.8 148.4 114.7 155.7 119L176 131.2L176 155.8C176 167.2 182 177.6 192 182.5L192 208C192 278.7 249.3 336 320 336C390.7 336 448 278.7 448 208L448 182.5C458 177.5 464 167.1 464 155.8L464 131.2L484.3 119C491.5 114.7 496 106.8 496 98.4C496 87.6 488.7 78 478.3 75.2L328.4 34.3C322.9 32.8 317.1 32.8 311.6 34.3zM240 197.7C263.2 203.4 290.9 208 320 208C349.1 208 376.8 203.4 400 197.7L400 208C400 252.2 364.2 288 320 288C275.8 288 240 252.2 240 208L240 197.7zM272 368L272 392L303.4 428.7L285.4 494.6L223.9 384L159.9 384L95.9 576L146.5 576L194.5 432L195.7 432C248.7 527.3 275.3 575.3 275.7 576L364.2 576C364.6 575.3 391.3 527.3 444.2 432L445.4 432L493.4 576L544 576L480 384L416 384L354.2 495.2L336.4 428.9L368 392L368 368L272 368zM360 128L320 168L280 128L320 88L360 128z"/></svg>