<svg xmlns="http://www.w3.org/2000/svg" viewBox="0 0 640 640"><!--! Font Awesome Pro 7.2.0 by @fontawesome - https://fontawesome.com License - https://fontawesome.com/license (Commercial License) Copyright 2026 Fonticons, Inc. --><path fill="currentColor" d="M176 192C176 147.8 211.8 112 256 112C300.2 112 336 147.8 336 192C336 236.2 300.2 272 256 272C211.8 272 176 236.2 176 192zM82.2 576L131.4 416L335.9 416L335.9 368L95.9 368L31.9 576L82.1 576zM256 320C326.7 320 384 262.7 384 192C384 121.3 326.7 64 256 64C185.3 64 128 121.3 128 192C128 262.7 185.3 320 256 320zM496 336C513.7 336 528 350.3 528 368L528 416L464 416L464 368C464 350.3 478.3 336 496 336zM416 368L416 416L384 416L384 608L608 608L608 416L576 416L576 368C576 323.8 540.2 288 496 288C451.8 288 416 323.8 416 368z"/></svg>