<svg xmlns="http://www.w3.org/2000/svg" viewBox="0 0 640 640"><!--! Font Awesome Pro 7.2.0 by @fontawesome - https://fontawesome.com License - https://fontawesome.com/license (Commercial License) Copyright 2026 Fonticons, Inc. --><path fill="currentColor" d="M240 208C240 252.2 275.8 288 320 288C364.2 288 400 252.2 400 208L400 176L336 176L320 128L304 176L240 176L240 208zM448 208C448 233.1 440.7 256.6 428.2 276.4L464 336L176 336L211.8 276.4C199.3 256.6 192 233.1 192 208L192 176L176 176L176 128L202.8 128C220.8 90.2 259.3 64 304 64L336 64C380.7 64 419.2 90.2 437.2 128L464 128L464 176L448 176L448 208zM194.6 432L146.6 576L96 576L160 384L480 384L544 576L493.4 576L445.4 432L194.6 432z"/></svg>