<svg xmlns="http://www.w3.org/2000/svg" viewBox="0 0 640 640"><!--! Font Awesome Pro 7.2.0 by @fontawesome - https://fontawesome.com License - https://fontawesome.com/license (Commercial License) Copyright 2026 Fonticons, Inc. --><path fill="currentColor" d="M144 112L144 80L320 32L496 80L496 112L464 131.2L464 176C464 176 458.2 178.8 448 182.7L448 240L496 336L144 336L192 240L192 182.7C181.8 178.8 176 176 176 176L176 131.2L144 112zM320 208C290.9 208 263.2 203.4 240 197.7L240 208C240 252.2 275.8 288 320 288C364.2 288 400 252.2 400 208L400 197.7C376.8 203.4 349.1 208 320 208zM286.1 414.1L320 448C343.3 424.7 364.6 403.4 384 384L480 384L544 576L493.4 576L482.7 544L400 544L400 496L466.7 496L445.4 432L403.9 432L354 481.9L344.1 491.8L344.1 575.9L296.1 575.9L296.1 491.8L286.2 481.9L236.3 432L194.8 432L146.8 576L96.2 576L160.2 384L256.2 384L286.3 414.1zM279.2 97.7L264.9 90.5L250.6 119.1C254.5 121.1 275.3 131.5 312.9 150.3L320.1 153.9L327.3 150.3C364.9 131.5 385.7 121.1 389.6 119.1L375.2 90.5C370 93.1 351.6 102.3 320 118.1L279.2 97.7z"/></svg>