<svg xmlns="http://www.w3.org/2000/svg" viewBox="0 0 640 640"><!--! Font Awesome Pro 7.2.0 by @fontawesome - https://fontawesome.com License - https://fontawesome.com/license (Commercial License) Copyright 2026 Fonticons, Inc. --><path fill="currentColor" d="M256 272C300.2 272 336 236.2 336 192C336 147.8 300.2 112 256 112C211.8 112 176 147.8 176 192C176 236.2 211.8 272 256 272zM131.5 416L82.3 576L32.1 576L96.1 368L416.1 368L480.1 576L429.9 576L380.7 416L131.6 416zM128 192C128 121.3 185.3 64 256 64C326.7 64 384 121.3 384 192C384 262.7 326.7 320 256 320C185.3 320 128 262.7 128 192zM528 181.2C510.3 181.2 496 195.5 496 213.2L453.6 213.2C453.6 172.1 486.9 138.8 528 138.8C569.1 138.8 602.4 172.1 602.4 213.2C602.4 246.7 579.6 272.2 549.2 282.8L549.2 301.1L506.8 301.1L506.8 247.6L510.1 247.1C531.2 244.1 560 240 560 213.1C560 195.4 545.7 181.1 528 181.1zM504 328L552 328L552 376L504 376L504 328z"/></svg>