<svg xmlns="http://www.w3.org/2000/svg" viewBox="0 0 640 640"><!--! Font Awesome Pro 7.2.0 by @fontawesome - https://fontawesome.com License - https://fontawesome.com/license (Commercial License) Copyright 2026 Fonticons, Inc. --><path fill="currentColor" d="M400 192C400 147.8 364.2 112 320 112C275.8 112 240 147.8 240 192L240 208C240 246.7 267.5 279 304 286.4L304 264L336 264L336 286.4C372.5 279 400 246.7 400 208L400 192zM192 192C192 121.3 249.3 64 320 64C390.7 64 448 121.3 448 192L448 216L480 272L480 320L382 320C363.6 330.2 342.5 336 320 336C297.5 336 276.4 330.2 258 320L160 320L160 272L192 216L192 192zM320 198.1C320.6 198.4 333.7 204.9 359.2 217.7L373.5 224.9L359.2 253.5C351.4 249.6 338.4 243.1 320 233.9C301.7 243.1 288.6 249.6 280.8 253.5L266.5 224.9C273.1 221.6 288.5 213.9 312.8 201.7L320 198.1zM192 368L246.6 368C268.9 378.3 293.8 384 320 384C346.2 384 371.1 378.3 393.4 368L448 368L448 384L480 384L544 576L493.4 576L450.7 448L344 448L344 576L296 576L296 448L189.3 448L146.6 576L96 576L160 384L192 384L192 368z"/></svg>