<svg xmlns="http://www.w3.org/2000/svg" viewBox="0 0 640 640"><!--! Font Awesome Pro 7.2.0 by @fontawesome - https://fontawesome.com License - https://fontawesome.com/license (Commercial License) Copyright 2026 Fonticons, Inc. --><path fill="currentColor" d="M144 80L144 112L176 131.2L176 176C176 176 181.8 178.8 192 182.7L192 240L144 336L496 336L448 240L448 182.7C458.2 178.8 464 176 464 176L464 131.2L496 112L496 80L320 32L144 80zM240 197.7C263.2 203.4 290.9 208 320 208C349.1 208 376.8 203.4 400 197.7L400 208C400 252.2 364.2 288 320 288C275.8 288 240 252.2 240 208L240 197.7zM272 368L272 392L303.4 428.7L285.4 494.6L223.9 384L159.9 384L95.9 576L146.5 576L194.5 432L195.7 432C248.7 527.3 275.3 575.3 275.7 576L364.2 576C364.6 575.3 391.3 527.3 444.2 432L445.4 432L466.7 496L432 496L432 544L482.7 544L493.4 576L544 576L480 384L416 384L354.2 495.2L336.4 428.9L368 392L368 368L272 368zM279.2 97.7L320 118.1C351.6 102.3 370 93.1 375.2 90.5L389.5 119.1C385.6 121.1 364.8 131.4 327.2 150.3L320 153.9L312.8 150.3C275.2 131.5 254.4 121.1 250.5 119.1L264.8 90.5L279.1 97.7z"/></svg>