<svg xmlns="http://www.w3.org/2000/svg" viewBox="0 0 640 640"><!--! Font Awesome Pro 7.2.0 by @fontawesome - https://fontawesome.com License - https://fontawesome.com/license (Commercial License) Copyright 2026 Fonticons, Inc. --><path fill="currentColor" d="M48.4 14.1L14.5 48C19.3 52.8 43.6 77.1 87.5 121L104.5 138L138.4 104.1C133.6 99.3 109.3 75 65.4 31.1L48.4 14.1zM592.4 14.1C587.6 18.9 563.3 43.2 519.4 87.1L502.4 104.1L536.3 138C541.1 133.2 565.4 108.9 609.3 65L626.3 48L592.4 14.1zM65.4 609C109.2 565.2 133.6 540.8 138.4 536L104.5 502.1C99.7 506.9 75.4 531.2 31.5 575.1L14.5 592.1L48.4 626L65.4 609zM592.4 626L626.3 592.1L553.3 519.1L536.3 502.1L502.4 536C507.2 540.8 531.5 565.1 575.4 609L592.4 626zM288.4 208C288.4 190.3 302.7 176 320.4 176C338.1 176 352.4 190.3 352.4 208C352.4 225.7 338.1 240 320.4 240C302.7 240 288.4 225.7 288.4 208zM400.4 208C400.4 163.8 364.6 128 320.4 128C276.2 128 240.4 163.8 240.4 208C240.4 252.2 276.2 288 320.4 288C364.6 288 400.4 252.2 400.4 208zM257.9 464L277.9 384L362.9 384L382.9 464L432.4 464L400.4 336L240.4 336L208.4 464L257.9 464zM187 352L144.4 352L112.4 464L158.9 464L161.8 452.4L186.2 354.7C186.4 353.8 186.7 352.9 186.9 352zM481.9 464L528.4 464L496.4 352L453.8 352C454 352.9 454.3 353.8 454.5 354.7L478.9 452.4L481.8 464zM201.1 161.6C168.7 168.6 144.4 197.5 144.4 232C144.4 271.8 176.6 304 216.4 304C222.3 304 228 303.3 233.5 302C208.2 278.6 192.4 245.2 192.4 208C192.4 191.6 195.5 176 201.1 161.6zM407.4 302C412.9 303.3 418.6 304 424.5 304C464.3 304 496.5 271.8 496.5 232C496.5 197.5 472.2 168.7 439.8 161.6C445.4 176 448.5 191.6 448.5 208C448.5 245.1 432.7 278.6 407.4 302z"/></svg>