<svg xmlns="http://www.w3.org/2000/svg" viewBox="0 0 640 640"><!--! Font Awesome Pro 7.2.0 by @fontawesome - https://fontawesome.com License - https://fontawesome.com/license (Commercial License) Copyright 2026 Fonticons, Inc. --><path fill="currentColor" d="M336 224.2C336 203.1 349.5 175.3 378.7 150.9C407.3 127 444.7 112 480 112C506.5 112 528 133.5 528 160C528 195.2 513 232.6 489.1 261.3C464.7 290.6 437 304 415.8 304L396.1 304C389.7 297.6 374.4 282.3 350 257.9L335.9 243.8L335.9 224.1zM349.1 324.9L376.2 352L415.8 352C496 352 576 256 576 160C576 107 533 64 480 64C384 64 288 144 288 224.2L288 263.8L315.1 290.9L82.2 523.8L65.2 540.8L99.1 574.7L116.1 557.7L349 324.8z"/></svg>