<svg xmlns="http://www.w3.org/2000/svg" viewBox="0 0 640 640"><!--! Font Awesome Pro 7.2.0 by @fontawesome - https://fontawesome.com License - https://fontawesome.com/license (Commercial License) Copyright 2026 Fonticons, Inc. --><path fill="currentColor" d="M320 112C434.9 112 528 205.1 528 320C528 434.9 434.9 528 320 528C205.1 528 112 434.9 112 320C112 205.1 205.1 112 320 112zM320 576C461.4 576 576 461.4 576 320C576 178.6 461.4 64 320 64C178.6 64 64 178.6 64 320C64 461.4 178.6 576 320 576zM399 241C442.6 284.6 442.6 355.4 399 399.1L433 433C495.4 370.6 495.4 269.4 433 207.1C370.6 144.8 269.4 144.6 207 207L241 241C284.6 197.4 355.4 197.4 399.1 241zM289 287L272 270L238.1 303.9C241.6 307.4 268.6 334.4 319.1 384.9L336.1 401.9L370 368C366.5 364.5 339.5 337.5 289 287zM225 351L208 334L174.1 367.9C177.6 371.4 204.6 398.4 255.1 448.9L272.1 465.9L306 432C302.5 428.5 275.5 401.5 225 351z"/></svg>