<svg xmlns="http://www.w3.org/2000/svg" viewBox="0 0 640 640"><!--! Font Awesome Pro 7.2.0 by @fontawesome - https://fontawesome.com License - https://fontawesome.com/license (Commercial License) Copyright 2026 Fonticons, Inc. --><path fill="currentColor" d="M112 128L112 512L64 512L64 128L112 128zM407 199L424 182L457.9 215.9L440.9 232.9L353.9 319.9L440.9 406.9L457.9 423.9L424 457.8L407 440.8L320 353.8L233 440.8L216 457.8L182.1 423.9L199.1 406.9L286.1 319.9L199.1 232.9L182.1 215.9L216 182L233 199L320 286L407 199zM576 152L576 512L528 512L528 128L576 128L576 152z"/></svg>