<svg xmlns="http://www.w3.org/2000/svg" viewBox="0 0 640 640"><!--! Font Awesome Pro 7.2.0 by @fontawesome - https://fontawesome.com License - https://fontawesome.com/license (Commercial License) Copyright 2026 Fonticons, Inc. --><path fill="currentColor" d="M344 72L344 120L296 120L296 72L344 72zM296 32L256 32L256 80.3C170.5 103.1 103.1 170.5 80.3 256L32 256L32 384L80.3 384C103.1 469.5 170.5 536.9 256 559.7L256 608L384 608L384 559.7C469.5 536.9 536.9 469.6 559.7 384L608 384L608 256L559.7 256C536.9 170.5 469.5 103.1 384 80.3L384 32L296 32zM509.5 256L480 256L480 384L509.5 384C489.6 443 443 489.6 384 509.5L384 480L256 480L256 509.5C197 489.6 150.4 443 130.5 384L160 384L160 256L130.5 256C150.4 197 197 150.4 256 130.5L256 160L384 160L384 130.5C443 150.4 489.6 197 509.5 256zM344 520L344 568L296 568L296 520L344 520zM72 296L120 296L120 344L72 344L72 296zM520 296L568 296L568 344L520 344L520 296z"/></svg>