<svg xmlns="http://www.w3.org/2000/svg" viewBox="0 0 640 640"><!--! Font Awesome Pro 7.2.0 by @fontawesome - https://fontawesome.com License - https://fontawesome.com/license (Commercial License) Copyright 2026 Fonticons, Inc. --><path fill="currentColor" d="M192 240C192 169.3 249.3 112 320 112C390.7 112 448 169.3 448 240C448 310.7 390.7 368 320 368C249.3 368 192 310.7 192 240zM344 414.4C429.8 402.7 496 329.1 496 240C496 142.8 417.2 64 320 64C222.8 64 144 142.8 144 240C144 329.1 210.2 402.7 296 414.4L296 480L224 480L224 528L296 528L296 592L344 592L344 528L416 528L416 480L344 480L344 414.4z"/></svg>