<svg xmlns="http://www.w3.org/2000/svg" viewBox="0 0 640 640"><!--! Font Awesome Pro 7.2.0 by @fontawesome - https://fontawesome.com License - https://fontawesome.com/license (Commercial License) Copyright 2026 Fonticons, Inc. --><path fill="currentColor" d="M239 64L254.9 64L260.9 78.2L261 78.3C261.2 78.7 261.7 79.5 262.4 80.6C263.9 82.8 266.5 86 270.7 89.4C278.6 95.9 293.5 104 320 104C346.5 104 361.4 95.9 369.3 89.4C373.4 86 376.1 82.8 377.6 80.6C378.3 79.5 378.8 78.7 379 78.3L379.1 78.2L385.1 64L496 64L496 257.4L540.6 331.7L544 337.4L544 576L96 576L96 337.4L99.4 331.7L144 257.4L144 64L239 64zM320 152C303.2 152 288.8 149.6 276.6 145.8L320 276.1L363.4 145.8C351.2 149.6 336.8 152 320 152zM192 112L192 270.6L188.6 276.3L144 350.6L144 528L296 528L296 355.9L214.7 112L192 112zM425.3 112L344 355.9L344 528L496 528L496 350.6L451.4 276.3L448 270.6L448 112L425.3 112zM203.3 324.7L216 337.4C224.7 328.7 232.7 320.7 240 313.4L262.6 336C255.3 343.3 247.3 351.3 238.6 360C247.3 368.7 255.3 376.7 262.6 384L240 406.6C232.7 399.3 224.7 391.3 216 382.6C207.3 391.3 199.3 399.3 192 406.6L169.4 384C176.7 376.7 184.7 368.7 193.4 360C184.7 351.3 176.7 343.3 169.4 336L192 313.4L203.3 324.7zM384 344C384 330.7 394.7 320 408 320C421.3 320 432 330.7 432 344L432 352L440 352C453.3 352 464 362.7 464 376C464 389.3 453.3 400 440 400L384 400L384 344zM168 464C168 441.9 185.9 424 208 424C230.1 424 248 441.9 248 464C248 486.1 230.1 504 208 504C185.9 504 168 486.1 168 464z"/></svg>