<svg xmlns="http://www.w3.org/2000/svg" viewBox="0 0 640 640"><!--! Font Awesome Pro 7.2.0 by @fontawesome - https://fontawesome.com License - https://fontawesome.com/license (Commercial License) Copyright 2026 Fonticons, Inc. --><path fill="currentColor" d="M96 64L64 64L64 112L96 112L96 480C96 533 139 576 192 576C245 576 288 533 288 480L288 112L352 112L352 480C352 533 395 576 448 576C501 576 544 533 544 480L544 112L576 112L576 64L96 64zM400 112L496 112L496 256L400 256L400 112zM240 112L240 256L144 256L144 112L240 112zM144 480L144 304L240 304L240 480C240 506.5 218.5 528 192 528C165.5 528 144 506.5 144 480zM400 480L400 304L496 304L496 480C496 506.5 474.5 528 448 528C421.5 528 400 506.5 400 480z"/></svg>