<svg xmlns="http://www.w3.org/2000/svg" viewBox="0 0 640 640"><!--! Font Awesome Pro 7.2.0 by @fontawesome - https://fontawesome.com License - https://fontawesome.com/license (Commercial License) Copyright 2026 Fonticons, Inc. --><path fill="currentColor" d="M81.3 47.1L64.3 30.1L30.4 64L47.4 81L559.4 593L576.4 610L610.3 576.1L593.3 559.1L448.1 413.9L448.1 127.9L162.1 127.9L81.2 47zM210.2 176L400.2 176L400.2 366L210.2 176zM112.2 464L112.2 213.8L64.2 165.8L64.2 512L410.4 512L362.4 464L112.2 464zM560.2 448L608.2 480L608.2 160C578.9 179.6 541.5 204.4 496.2 234.7L496.2 292.4L560.2 249.7L560.2 390.3L496.2 347.6L496.2 405.3L560.2 448z"/></svg>