<svg xmlns="http://www.w3.org/2000/svg" viewBox="0 0 640 640"><!--! Font Awesome Pro 7.2.0 by @fontawesome - https://fontawesome.com License - https://fontawesome.com/license (Commercial License) Copyright 2026 Fonticons, Inc. --><path fill="currentColor" d="M224 208C188.7 208 160 179.3 160 144C160 108.7 188.7 80 224 80C239.7 80 254 85.6 265.2 95C276.4 76.4 296.8 64 320 64C343.2 64 363.6 76.4 374.8 95C385.9 85.6 400.3 80 416 80C451.3 80 480 108.7 480 144C480 179.3 451.3 208 416 208L368 208L336 256L304 256L272 208L224 208zM112 522.2L112 528L528 528L528 522.2L425.3 406.7L400 432L368 432L304 368L249.1 368L112 522.2zM256 288L384 288L576 504L576 576L64 576L64 504L256 288z"/></svg>