<svg xmlns="http://www.w3.org/2000/svg" viewBox="0 0 640 640"><!--! Font Awesome Pro 7.2.0 by @fontawesome - https://fontawesome.com License - https://fontawesome.com/license (Commercial License) Copyright 2026 Fonticons, Inc. --><path fill="currentColor" d="M288 176L264 120L208 96L264 72L288 16L312 72L368 96L312 120L288 176zM492 42.1C494.1 44.2 523.8 73.9 581 131.1L598 148.1L581 165.1L165 581.1L148 598.1C145.9 596 116.2 566.3 59 509.1L42 492.1L59 475.1L475 59.1L492 42.1zM109.9 492L148 530.1L386.1 292L348 253.9L109.9 492zM492 109.9L381.9 220L420 258.1L530.1 148L492 109.9zM96 160L128 80L160 160L240 192L160 224L128 304L96 224L16 192L96 160zM384 464L464 432L496 352L528 432L608 464L528 496L496 576L464 496L384 464z"/></svg>