<svg xmlns="http://www.w3.org/2000/svg" viewBox="0 0 640 640"><!--! Font Awesome Pro 7.2.0 by @fontawesome - https://fontawesome.com License - https://fontawesome.com/license (Commercial License) Copyright 2026 Fonticons, Inc. --><path fill="currentColor" d="M244.9 134.6C268.1 125.2 293.4 120 320 120C346.6 120 371.9 125.2 395.1 134.6L389 80L251 80L244.9 134.6zM193.2 165.3L208 32L432 32L446.8 165.3C491.5 202 520 257.7 520 320C520 382.3 491.5 438 446.8 474.7L432 608L208 608L193.2 474.7C148.5 438 120 382.3 120 320C120 257.7 148.5 202 193.2 165.3zM244.9 505.4L251 560L389.1 560L395.2 505.4C371.9 514.8 346.6 520 320 520C293.4 520 268.1 514.8 244.9 505.4zM344 216L344 310.1C375.3 341.4 394.6 360.7 401.9 368L368 401.9C361.9 395.8 340.2 374.1 303 336.9L296 329.9L296 216L344 216zM472 320C472 236.1 403.9 168 320 168C236.1 168 168 236.1 168 320C168 403.9 236.1 472 320 472C403.9 472 472 403.9 472 320z"/></svg>