<svg xmlns="http://www.w3.org/2000/svg" viewBox="0 0 640 640"><!--! Font Awesome Pro 7.2.0 by @fontawesome - https://fontawesome.com License - https://fontawesome.com/license (Commercial License) Copyright 2026 Fonticons, Inc. --><path fill="currentColor" d="M344.2 88L344.2 64L296.2 64L296.2 222.1C259.8 185.7 238.5 164.4 232.2 158.1L198.3 192L215.3 209L303.3 297L320.3 314L337.3 297L425.3 209L442.3 192L408.4 158.1C402.1 164.4 380.8 185.7 344.4 222.1L344.4 88zM200.2 350.2L191.3 353.8C108.3 386.9 66.2 403.7 65 404.2L82.8 448.8C85.5 447.7 124.6 432.1 200.2 401.8L311.3 446.2L320.2 449.8L329.1 446.2L440.2 401.8C515.7 432 554.8 447.7 557.6 448.7L575.4 404.1C574.2 403.6 532.1 386.8 449.1 353.6L440.2 350L431.3 353.6L320.2 398L209.1 353.6L200.2 350zM200.2 478.2L191.3 481.8C108.3 514.9 66.2 531.7 65 532.2L82.8 576.8C85.5 575.7 124.6 560.1 200.2 529.8L311.3 574.2L320.2 577.8L329.1 574.2L440.2 529.8C515.7 560 554.8 575.7 557.6 576.7L575.4 532.1C574.2 531.6 532.1 514.8 449.1 481.6L440.2 478L431.3 481.6L320.2 526L209.1 481.6L200.2 478z"/></svg>