<svg xmlns="http://www.w3.org/2000/svg" viewBox="0 0 640 640"><!--! Font Awesome Pro 7.2.0 by @fontawesome - https://fontawesome.com License - https://fontawesome.com/license (Commercial License) Copyright 2026 Fonticons, Inc. --><path fill="currentColor" d="M224 64L205 64L200.7 82.4L164.4 234.9C161.5 247 160 259.5 160 272C160 352.2 219 418.6 296 430.2L296 560L208 560L208 608L432 608L432 560L344 560L344 430.2C421 418.6 480 352.2 480 272C480 259.5 478.5 247.1 475.6 234.9L439.3 82.4L435 64L224 64zM211 246L243 112L397 112L429 246C431 254.5 432 263.2 432 272C432 333.9 381.8 384 320 384C258.2 384 208 333.8 208 272C208 263.3 209 254.5 211 246z"/></svg>