<svg xmlns="http://www.w3.org/2000/svg" viewBox="0 0 640 640"><!--! Font Awesome Pro 7.2.0 by @fontawesome - https://fontawesome.com License - https://fontawesome.com/license (Commercial License) Copyright 2026 Fonticons, Inc. --><path fill="currentColor" d="M24 96L0 96L0 144L640 144L640 96L24 96zM24 496L0 496L0 544L640 544L640 496L24 496zM57 247L40 230.1L6.1 264C13.7 271.6 32.4 290.3 62.1 320C32.4 349.7 13.7 368.4 6.1 376L40 409.9C47.6 402.3 66.3 383.6 96 353.9C125.7 383.6 144.4 402.3 152 409.9L185.9 376C178.3 368.4 159.6 349.7 129.9 320L185.9 264L152 230.1C144.4 237.7 125.7 256.4 96 286.1L57 247zM281 247L264 230L230.1 263.9L286.1 319.9C256.4 349.6 237.7 368.3 230.1 375.9L264 409.9C271.6 402.3 290.3 383.6 320 353.9C349.7 383.6 368.4 402.3 376 409.9L409.9 376C402.3 368.4 383.6 349.7 353.9 320C383.6 290.3 402.3 271.6 409.9 264L376 230.1C368.4 237.7 349.7 256.4 320 286.1L281 247.1zM505 247L488 230L454.1 263.9C461.7 271.5 480.4 290.2 510.1 319.9C480.4 349.6 461.7 368.3 454.1 375.9L488 409.9C495.6 402.3 514.3 383.6 544 353.9C573.7 383.6 592.4 402.3 600 409.9L633.9 376C626.3 368.4 607.6 349.7 577.9 320C607.6 290.3 626.3 271.6 633.9 264L600 230.1C592.4 237.7 573.7 256.4 544 286.1L505 247.1z"/></svg>