<svg xmlns="http://www.w3.org/2000/svg" viewBox="0 0 640 640"><!--! Font Awesome Pro 7.2.0 by @fontawesome - https://fontawesome.com License - https://fontawesome.com/license (Commercial License) Copyright 2026 Fonticons, Inc. --><path fill="currentColor" d="M464 144L464 400L176 400L176 144L464 144zM176 96L128 96L128 448L512 448L512 96L176 96zM80 352L32 352L32 544L608 544L608 352L560 352L560 496L80 496L80 352zM404.9 221.1L371 187.2C362.5 195.7 345.5 212.7 320.1 238.1C294.6 212.6 277.7 195.7 269.2 187.2L235.3 221.1C243.8 229.6 260.8 246.6 286.2 272C260.7 297.5 243.8 314.4 235.3 322.9L269.2 356.8C277.7 348.3 294.7 331.3 320.1 305.9C345.6 331.4 362.5 348.3 371 356.8L404.9 322.9C396.4 314.4 379.4 297.4 354 272C379.5 246.5 396.4 229.6 404.9 221.1z"/></svg>