<svg xmlns="http://www.w3.org/2000/svg" viewBox="0 0 640 640"><!--! Font Awesome Pro 7.2.0 by @fontawesome - https://fontawesome.com License - https://fontawesome.com/license (Commercial License) Copyright 2026 Fonticons, Inc. --><path fill="currentColor" d="M426.8 64.6C428.5 64.2 430.2 64 432 64L536 64C549.3 64 560 74.7 560 88C560 96.5 555.6 104 548.9 108.3C552.4 114.4 555.2 121 557.2 128L630.7 128C635.8 128 640 132.2 640 137.3C640 141.3 637.4 144.9 633.6 146.1L563.8 169.4L569.4 208.8C574.6 245.5 554.1 281 519.7 294.8C501.4 302.1 481.7 302.3 463.9 296.3L463.9 304.1L463.9 304.8L463.9 306.4C463.9 339.6 451.7 369.3 431.9 391.9L432 528C432 554.5 410.5 576 384 576L336 576C309.5 576 288 554.5 288 528L288 428.5L236.2 413.4C235.2 417.2 234 420.9 232.6 424.6L220.5 456.9C219.9 458.5 219.8 460.2 220.3 461.9L235.1 515.2C243.6 545.8 220.6 576 188.9 576L139.1 576C117.5 576 98.6 561.6 92.9 540.8L81.6 500.4C73 469.4 74.4 436.5 85.7 406.3L93.9 384.6L72 330C66.7 316.7 64 302.6 64 288.3C64 285.4 64.1 282.6 64.3 279.8C54.4 287.1 48 298.8 48 312L48 376C48 389.3 37.3 400 24 400C10.7 400 0 389.3 0 376L0 312C0 264.7 37.3 226.1 84.1 224.1C90.5 215 98.2 206.8 107 199.9C112.1 217.4 118.8 233.2 126.6 247.5C117.5 258.6 112 272.8 112 288.3C112 296.5 113.6 304.6 116.6 312.2L138.5 366.8C142.9 377.9 143.1 390.3 138.9 401.5L130.7 423.2C123 443.8 122 466.3 127.9 487.6L139.1 528.1L188.9 528.1L174.1 474.8C170.9 463.4 171.5 451.2 175.6 440.2L187.7 407.9C190.5 400.4 192 392.5 192 384.4C192 384 192 383.5 192 383.1C191.8 375.5 195.3 368.2 201.4 363.6C207.5 359 215.4 357.5 222.7 359.6L310.7 385.3C312.8 385.9 314.9 386.4 317 386.9C328.1 389.2 336 399 336 410.4L336 528.2L384 528.2L384 382.4C384 375.9 386.6 369.7 391.3 365.2C406.4 350.4 416 329.9 416 306.4C416 305.8 416 305.2 416 304.7C416 304.2 416 303.7 416 303.2L416 248.2C416 238 422.4 228.9 432.1 225.6C441.8 222.3 452.4 225.3 458.8 233.3L464.7 240.6C473.6 251.7 488.8 255.7 502 250.4C515.9 244.9 524.2 230.5 522 215.7L512.1 146.5C509.3 126.6 492.4 112 472.5 112L435.4 112C434.8 112.1 434.1 112.2 433.4 112.2C383.4 115.3 342.9 153.8 336.8 203C335.3 215 325.1 224 313 224L312.5 224C308.7 224.1 304.9 223.3 301.3 221.5L179.7 160.7C187.9 203.1 208.3 231.2 228.2 249.5C241.3 261.5 254.4 269.6 264.1 274.6C269 277.1 272.9 278.8 275.6 279.8C276.9 280.3 277.9 280.7 278.5 280.9L278.9 281C288.8 284 295.9 293.1 295.9 304C295.9 317.3 285.2 328 271.9 328C269.1 328 266.5 327.5 264 326.7C263.6 326.6 263.2 326.4 262.7 326.2C261.5 325.8 259.9 325.2 258 324.4C254.1 322.8 248.7 320.5 242.3 317.2C229.6 310.7 212.7 300.3 195.7 284.7C161.4 253.1 128 200.9 128 119.9C128 111.6 132.3 103.9 139.4 99.5C146.5 95.1 155.3 94.7 162.8 98.4L296.7 165.3C316 110.3 366.3 69.8 426.8 64.6zM464 144C472.8 144 480 151.2 480 160C480 168.8 472.8 176 464 176C455.2 176 448 168.8 448 160C448 151.2 455.2 144 464 144z"/></svg>