<svg xmlns="http://www.w3.org/2000/svg" viewBox="0 0 640 640"><!--! Font Awesome Pro 7.2.0 by @fontawesome - https://fontawesome.com License - https://fontawesome.com/license (Commercial License) Copyright 2026 Fonticons, Inc. --><path fill="currentColor" d="M224 174.3C224 190 229.9 205 240.5 216.5L275.1 254L320.7 227.9C340 216.9 352 196.3 352 174C352 139.7 324.2 111.9 289.9 111.9L286.2 111.9C251.9 112 224 139.9 224 174.3zM344.5 269.6L308.5 290.2L413 403.4L471.8 350.2C481.6 341.3 496.8 342.1 505.7 351.9C514.6 361.7 513.8 376.9 504 385.8L445.5 438.7L505.5 503.7C514.5 513.4 513.9 528.6 504.1 537.6C494.3 546.6 479.2 546 470.2 536.2L409.9 470.8L383.4 494.7C348.6 526.5 303.1 544 256 544C185.3 544 128 486.7 128 416L128 413.7C128 366.9 153.1 323.8 193.7 300.6L232.4 278.5L205.3 249.1C186.4 228.7 176 202 176 174.3C176 113.4 225.4 64 286.3 64L290 64C350.8 64 400.1 113.3 400.1 174.1C400.1 213.6 378.9 250.1 344.6 269.7zM256 496C291.2 496 325.2 482.9 351.4 459.3L377.5 435.7L265.8 314.7L217.5 342.3C191.8 356.9 176 384.2 176 413.7L176 416C176 460.2 211.8 496 256 496z"/></svg>