<svg xmlns="http://www.w3.org/2000/svg" viewBox="0 0 640 640"><!--! Font Awesome Pro 7.2.0 by @fontawesome - https://fontawesome.com License - https://fontawesome.com/license (Commercial License) Copyright 2026 Fonticons, Inc. --><path fill="currentColor" d="M552 96C565.3 96 576 106.7 576 120C576 133.3 565.3 144 552 144L511.6 144C511.1 144 510.6 144.2 510.1 144.4L509 145.5L500.3 160.6C560.7 166.8 607.9 217.9 607.9 280C607.9 319.8 575.7 352 535.9 352L471.9 352C463.5 352 455.4 350.8 447.7 348.8C447.6 350.6 447.5 352.4 447.3 354.2L520.8 403.2L526.5 407.3C539.2 417.4 548.8 431 553.9 446.5L579 521.7L579.9 525.6C581 534.8 575.5 543.9 566.3 546.9C557.1 549.9 547.3 546 542.7 538L541 534.3L515.9 459.1C513.2 451 508.2 443.9 501.5 438.6L498.5 436.4L433.1 392.8C431.5 395.2 429.8 397.5 428 399.7L448.4 420.1C460.1 431.8 468.1 446.8 471.4 463L483.6 524L484 528.1C484 537.4 477.4 545.7 467.9 547.6C458.4 549.5 449.1 544.3 445.5 535.8L444.3 532L432.1 471C430.4 462.5 426.2 454.6 420.1 448.5L395.9 424.3C384.9 429.2 372.8 432.1 360 432.1C356.1 432.1 352.4 431.8 348.6 431.3L289.5 537.7C284.1 547.3 272 550.8 262.3 545.5C252.7 540.1 249.2 528 254.5 518.3L310.8 416.9C301.7 410.7 293.8 402.9 287.6 393.9L207.7 537.7L205.4 541C199.3 548.1 188.9 550.1 180.5 545.4C172.1 540.7 168.3 530.8 171.1 521.9L172.7 518.2L222.7 428.2C212.8 430.6 202.6 432 191.9 432L188.1 432L129.4 537.7C124 547.3 111.9 550.8 102.2 545.5C92.6 540.1 89.1 528 94.4 518.3L142.4 432L125.3 432C73.8 432 32 390.2 32 338.6L32 334C32 246.5 104.1 176 191.1 176C249.3 176 299.3 215 314.9 268.5C328.1 260.6 343.5 256 360 256C365.5 256 370.8 256.6 376 257.5C376 257 376 256.5 376 256C376 212.9 404.4 176.4 443.5 164.3L443.2 164.1L467.4 121.7L471.2 116C480.8 103.5 495.7 96 511.7 96L552 96zM191.1 224C130.1 224 80 273.5 80 334L80 338.7C80 363.7 100.3 384 125.3 384L192 384C236.2 384 272 348.2 272 304C272 260.1 235.5 224 191.1 224zM360 304C337.9 304 320 321.9 320 344L320.2 348.1C322.3 368.3 339.3 384 360 384C382.1 384 400 366.1 400 344C400 321.9 382.1 304 360 304zM472 208C445.5 208 424 229.5 424 256C424 282.5 445.5 304 472 304L536 304C549.2 304 560 293.3 560 280C560 240.2 527.8 208 488 208L472 208zM480 280C466.7 280 456 269.3 456 256C456 242.7 466.7 232 480 232C493.3 232 504 242.7 504 256C504 269.3 493.3 280 480 280z"/></svg>