<svg xmlns="http://www.w3.org/2000/svg" viewBox="0 0 640 640"><!--! Font Awesome Pro 7.2.0 by @fontawesome - https://fontawesome.com License - https://fontawesome.com/license (Commercial License) Copyright 2026 Fonticons, Inc. --><path fill="currentColor" d="M442.5 354C449.6 351 457.7 351.4 464.4 355.5L596.4 435.5C607.7 442.4 611.4 457.1 604.5 468.5C597.6 479.8 582.9 483.5 571.5 476.6L452 404.1L332.4 476.5C324.8 481.1 315.2 481.1 307.5 476.5L188 404.1L68.4 476.5C57.1 483.4 42.3 479.7 35.4 468.4C28.5 457.1 32.2 442.3 43.5 435.4L175.5 355.4L178.4 353.9C185.5 350.9 193.6 351.3 200.3 355.4L319.9 427.8L439.5 355.4L442.4 353.9zM442.5 162C449.6 159 457.7 159.4 464.4 163.5L596.4 243.5C607.7 250.4 611.4 265.1 604.5 276.5C597.6 287.9 582.9 291.5 571.5 284.6L452 212.1L332.4 284.5C324.8 289.1 315.2 289.1 307.5 284.5L188 212.1L68.4 284.5C57.1 291.4 42.3 287.7 35.4 276.4C28.5 265.1 32.2 250.3 43.5 243.4L175.5 163.4L178.4 161.9C185.5 158.9 193.6 159.3 200.3 163.4L320 235.9L439.6 163.5L442.5 162z"/></svg>