<svg xmlns="http://www.w3.org/2000/svg" viewBox="0 0 640 640"><!--! Font Awesome Pro 7.2.0 by @fontawesome - https://fontawesome.com License - https://fontawesome.com/license (Commercial License) Copyright 2026 Fonticons, Inc. --><path fill="currentColor" d="M64 120C64 106.7 74.7 96 88 96L552 96C565.3 96 576 106.7 576 120C576 133.3 565.3 144 552 144L544 144L544 496L552 496C565.3 496 576 506.7 576 520C576 533.3 565.3 544 552 544L408 544C394.7 544 384 533.3 384 520L384 416C384 380.7 355.3 352 320 352C284.7 352 256 380.7 256 416L256 520C256 533.3 245.3 544 232 544L88 544C74.7 544 64 533.3 64 520C64 506.7 74.7 496 88 496L96 496L96 144L88 144C74.7 144 64 133.3 64 120zM144 144L144 192L496 192L496 144L144 144zM496 240L144 240L144 496L208 496L208 416C208 354.1 258.1 304 320 304C381.9 304 432 354.1 432 416L432 496L496 496L496 240z"/></svg>