<svg xmlns="http://www.w3.org/2000/svg" viewBox="0 0 640 640"><!--! Font Awesome Pro 7.2.0 by @fontawesome - https://fontawesome.com License - https://fontawesome.com/license (Commercial License) Copyright 2026 Fonticons, Inc. --><path fill="currentColor" d="M150.6 320L272 441.4L272 376C272 362.7 282.7 352 296 352L496 352L496 288L296 288C282.7 288 272 277.3 272 264L272 198.6L150.6 320zM105.4 342.6C92.9 330.1 92.9 309.8 105.4 297.3L265.4 137.3C274.6 128.1 288.3 125.4 300.3 130.4L300.3 130.4C312.3 135.4 320.1 147 320.1 160L320.1 240L496.1 240C522.6 240 544.1 261.5 544.1 288L544.1 352C544.1 378.5 522.6 400 496.1 400L320.1 400L320.1 480C320.1 492.9 312.3 504.6 300.3 509.6L300.3 509.6C288.3 514.6 274.6 511.8 265.4 502.7L105.4 342.7z"/></svg>