<svg xmlns="http://www.w3.org/2000/svg" viewBox="0 0 640 640"><!--! Font Awesome Pro 7.2.0 by @fontawesome - https://fontawesome.com License - https://fontawesome.com/license (Commercial License) Copyright 2026 Fonticons, Inc. --><path fill="currentColor" d="M177 103C167.6 93.6 152.4 93.6 143.1 103L39 207C29.6 216.4 29.6 231.6 39 240.9C48.4 250.2 63.6 250.3 72.9 240.9L135.9 177.9L135.9 520C135.9 533.3 146.6 544 159.9 544C173.2 544 183.9 533.3 183.9 520L183.9 177.9L246.9 240.9C256.3 250.3 271.5 250.3 280.8 240.9C290.1 231.5 290.2 216.3 280.8 207L177 103zM344 112C330.7 112 320 122.7 320 136C320 149.3 330.7 160 344 160L392 160C405.3 160 416 149.3 416 136C416 122.7 405.3 112 392 112L344 112zM344 240C330.7 240 320 250.7 320 264C320 277.3 330.7 288 344 288L456 288C469.3 288 480 277.3 480 264C480 250.7 469.3 240 456 240L344 240zM344 368C330.7 368 320 378.7 320 392C320 405.3 330.7 416 344 416L520 416C533.3 416 544 405.3 544 392C544 378.7 533.3 368 520 368L344 368zM344 496C330.7 496 320 506.7 320 520C320 533.3 330.7 544 344 544L584 544C597.3 544 608 533.3 608 520C608 506.7 597.3 496 584 496L344 496z"/></svg>