<svg xmlns="http://www.w3.org/2000/svg" viewBox="0 0 640 640"><!--! Font Awesome Pro 7.2.0 by @fontawesome - https://fontawesome.com License - https://fontawesome.com/license (Commercial License) Copyright 2026 Fonticons, Inc. --><path fill="currentColor" d="M160 144C151.2 144 144 151.2 144 160L144 480C144 488.8 151.2 496 160 496L480 496C488.8 496 496 488.8 496 480L496 160C496 151.2 488.8 144 480 144L160 144zM96 160C96 124.7 124.7 96 160 96L480 96C515.3 96 544 124.7 544 160L544 480C544 515.3 515.3 544 480 544L160 544C124.7 544 96 515.3 96 480L96 160zM223 303L295 231C304.4 221.6 319.6 221.6 328.9 231C338.2 240.4 338.3 255.6 328.9 264.9L297.9 295.9L400 295.9C413.3 295.9 424 306.6 424 319.9C424 333.2 413.3 343.9 400 343.9L297.9 343.9L328.9 374.9C338.3 384.3 338.3 399.5 328.9 408.8C319.5 418.1 304.3 418.2 295 408.8L223 336.8C213.6 327.4 213.6 312.2 223 302.9z"/></svg>