<svg xmlns="http://www.w3.org/2000/svg" viewBox="0 0 640 640"><!--! Font Awesome Pro 7.2.0 by @fontawesome - https://fontawesome.com License - https://fontawesome.com/license (Commercial License) Copyright 2026 Fonticons, Inc. --><path fill="currentColor" d="M152.5 96C139.2 96 128.5 106.7 128.5 120C128.5 133.3 139.2 144 152.5 144L206.6 144L71.6 279C62.2 288.4 62.2 303.6 71.6 312.9C81 322.2 96.2 322.3 105.5 312.9L240.5 177.9L240.5 232C240.5 245.3 251.2 256 264.5 256C277.8 256 288.5 245.3 288.5 232L288.5 120C288.5 106.7 277.8 96 264.5 96L152.5 96zM468.3 134.1C468.3 155.1 485.4 172.2 506.4 172.2C527.4 172.2 544.5 155.1 544.5 134.1C544.5 113.1 527.4 96 506.4 96C485.4 96 468.3 113.1 468.3 134.1zM344.2 258.2C344.2 279.2 361.3 296.3 382.3 296.3C403.3 296.3 420.4 279.2 420.4 258.2C420.4 237.2 403.3 220.1 382.3 220.1C361.3 220.1 344.2 237.2 344.2 258.2zM506.4 220.1C485.4 220.1 468.3 237.2 468.3 258.2C468.3 279.2 485.4 296.3 506.4 296.3C527.4 296.3 544.5 279.2 544.5 258.2C544.5 237.2 527.4 220.1 506.4 220.1zM220.7 381.8C220.7 402.8 237.8 419.9 258.8 419.9C279.8 419.9 296.9 402.8 296.9 381.8C296.9 360.8 279.8 343.7 258.8 343.7C237.8 343.7 220.7 360.8 220.7 381.8zM382.3 343.7C361.3 343.7 344.2 360.8 344.2 381.8C344.2 402.8 361.3 419.9 382.3 419.9C403.3 419.9 420.4 402.8 420.4 381.8C420.4 360.8 403.3 343.7 382.3 343.7zM468.4 381.8C468.4 402.8 485.5 419.9 506.5 419.9C527.5 419.9 544.6 402.8 544.6 381.8C544.6 360.8 527.5 343.7 506.5 343.7C485.5 343.7 468.4 360.8 468.4 381.8zM134.6 467.8C113.6 467.8 96.5 484.9 96.5 505.9C96.5 526.9 113.6 544 134.6 544C155.6 544 172.7 526.9 172.7 505.9C172.7 484.9 155.6 467.8 134.6 467.8zM220.7 505.9C220.7 526.9 237.8 544 258.8 544C279.8 544 296.9 526.9 296.9 505.9C296.9 484.9 279.8 467.8 258.8 467.8C237.8 467.8 220.7 484.9 220.7 505.9zM382.3 467.8C361.3 467.8 344.2 484.9 344.2 505.9C344.2 526.9 361.3 544 382.3 544C403.3 544 420.4 526.9 420.4 505.9C420.4 484.9 403.3 467.8 382.3 467.8zM468.4 505.9C468.4 526.9 485.5 544 506.5 544C527.5 544 544.6 526.9 544.6 505.9C544.6 484.9 527.5 467.8 506.5 467.8C485.5 467.8 468.4 484.9 468.4 505.9z"/></svg>