<svg xmlns="http://www.w3.org/2000/svg" viewBox="0 0 640 640"><!--! Font Awesome Pro 7.2.0 by @fontawesome - https://fontawesome.com License - https://fontawesome.com/license (Commercial License) Copyright 2026 Fonticons, Inc. --><path fill="currentColor" d="M152 64C138.7 64 128 74.7 128 88C128 101.3 138.7 112 152 112L488 112C501.3 112 512 101.3 512 88C512 74.7 501.3 64 488 64L152 64zM337 199C327.6 189.6 312.4 189.6 303.1 199L167 335C157.6 344.4 157.6 359.6 167 368.9C176.4 378.2 191.6 378.3 200.9 368.9L295.9 273.9L295.9 552C295.9 565.3 306.6 576 319.9 576C333.2 576 343.9 565.3 343.9 552L343.9 273.9L438.9 368.9C448.3 378.3 463.5 378.3 472.8 368.9C482.1 359.5 482.2 344.3 472.8 335L337 199z"/></svg>