<svg xmlns="http://www.w3.org/2000/svg" viewBox="0 0 640 640"><!--! Font Awesome Pro 7.2.0 by @fontawesome - https://fontawesome.com License - https://fontawesome.com/license (Commercial License) Copyright 2026 Fonticons, Inc. --><path fill="currentColor" d="M177 217L241 153C250.4 143.6 250.4 128.4 241 119.1C231.6 109.8 216.4 109.7 207.1 119.1L184.1 142.1L184.1 56C184.1 42.7 173.4 32 160.1 32C146.8 32 136 42.7 136 56L136 142.1L113 119.1C103.6 109.7 88.4 109.7 79.1 119.1C69.8 128.5 69.7 143.6 79 153L143 217C152.4 226.4 167.6 226.4 176.9 217zM497 217L561 153C570.4 143.6 570.4 128.4 561 119.1C551.6 109.8 536.4 109.7 527.1 119.1L504.1 142.1L504.1 56C504.1 42.7 493.4 32 480.1 32C466.8 32 456 42.7 456 56L456 142.1L433 119.1C423.6 109.7 408.4 109.7 399.1 119.1C389.8 128.5 389.7 143.7 399.1 153L463.1 217C472.5 226.4 487.7 226.4 497 217zM320 368C350.9 368 376 342.9 376 312C376 281.1 350.9 256 320 256C289.1 256 264 281.1 264 312C264 342.9 289.1 368 320 368zM320 416C258.1 416 208 466.1 208 528L208 552C208 565.3 218.7 576 232 576C245.3 576 256 565.3 256 552L256 528C256 492.7 284.7 464 320 464C355.3 464 384 492.7 384 528L384 552C384 565.3 394.7 576 408 576C421.3 576 432 565.3 432 552L432 528C432 466.1 381.9 416 320 416zM192 352C192 325.5 170.5 304 144 304C117.5 304 96 325.5 96 352C96 378.5 117.5 400 144 400C170.5 400 192 378.5 192 352zM544 352C544 325.5 522.5 304 496 304C469.5 304 448 325.5 448 352C448 378.5 469.5 400 496 400C522.5 400 544 378.5 544 352zM156 432C105.2 432 64 473.2 64 524L64 552C64 565.3 74.7 576 88 576C101.3 576 112 565.3 112 552L112 524C112 499.7 131.7 480 156 480C159.8 480 163.4 480.5 166.9 481.4C171.7 465.7 178.8 451 187.9 437.7C178 434 167.2 432 156 432zM473.1 481.4C476.6 480.5 480.2 480 484 480C508.3 480 528 499.7 528 524L528 552C528 565.3 538.7 576 552 576C565.3 576 576 565.3 576 552L576 524C576 473.2 534.8 432 484 432C472.8 432 462 434 452.1 437.7C461.2 451 468.3 465.7 473.1 481.4z"/></svg>