<svg xmlns="http://www.w3.org/2000/svg" viewBox="0 0 640 640"><!--! Font Awesome Pro 7.2.0 by @fontawesome - https://fontawesome.com License - https://fontawesome.com/license (Commercial License) Copyright 2026 Fonticons, Inc. --><path fill="currentColor" d="M400 144L528 144L528 272L400 272L400 144zM352 144L352 272C352 298.5 373.5 320 400 320L528 320C554.5 320 576 298.5 576 272L576 144C576 117.5 554.5 96 528 96L400 96C373.5 96 352 117.5 352 144zM400 432L464 432L464 496L400 496L400 432zM352 432L352 496C352 522.5 373.5 544 400 544L464 544C490.5 544 512 522.5 512 496L512 432C512 405.5 490.5 384 464 384L400 384C373.5 384 352 405.5 352 432zM209 103C199.6 93.6 184.4 93.6 175.1 103L87 191C77.6 200.4 77.6 215.6 87 224.9C96.4 234.2 111.6 234.3 120.9 224.9L167.9 177.9L167.9 520C167.9 533.3 178.6 544 191.9 544C205.2 544 215.9 533.3 215.9 520L215.9 177.9L262.9 224.9C272.3 234.3 287.5 234.3 296.8 224.9C306.1 215.5 306.2 200.3 296.8 191L209 103z"/></svg>