<svg xmlns="http://www.w3.org/2000/svg" viewBox="0 0 640 640"><!--! Font Awesome Pro 7.2.0 by @fontawesome - https://fontawesome.com License - https://fontawesome.com/license (Commercial License) Copyright 2026 Fonticons, Inc. --><path fill="currentColor" d="M320 112C434.9 112 528 205.1 528 320C528 333.3 538.7 344 552 344C565.3 344 576 333.3 576 320C576 178.6 461.4 64 320 64C178.6 64 64 178.6 64 320C64 333.3 74.7 344 88 344C101.3 344 112 333.3 112 320C112 205.1 205.1 112 320 112zM441.6 456.3C450.6 446.6 450.1 431.4 440.3 422.4C430.5 413.4 415.4 413.9 406.4 423.7L344 490.9L344 248C344 234.7 333.3 224 320 224C306.7 224 296 234.7 296 248L296 490.9L233.6 423.7C224.6 414 209.4 413.4 199.7 422.4C190 431.4 189.4 446.6 198.4 456.3L302.4 568.3C306.9 573.2 313.3 576 320 576C326.7 576 333 573.2 337.6 568.3L441.6 456.3z"/></svg>