<svg xmlns="http://www.w3.org/2000/svg" viewBox="0 0 640 640"><!--! Font Awesome Pro 7.2.0 by @fontawesome - https://fontawesome.com License - https://fontawesome.com/license (Commercial License) Copyright 2026 Fonticons, Inc. --><path fill="currentColor" d="M297 449L209 537C199.6 546.4 184.4 546.4 175.1 537L87 449C77.6 439.6 77.6 424.4 87 415.1C96.4 405.8 111.6 405.7 120.9 415.1L167.9 462.1L167.9 120C167.9 106.7 178.6 96 191.9 96C205.2 96 215.9 106.7 215.9 120L215.9 462.1L262.9 415.1C272.3 405.7 287.5 405.7 296.8 415.1C306.1 424.5 306.2 439.7 296.8 449zM400 208L464 208L464 144L400 144L400 208zM352 208L352 144C352 117.5 373.5 96 400 96L464 96C490.5 96 512 117.5 512 144L512 208C512 234.5 490.5 256 464 256L400 256C373.5 256 352 234.5 352 208zM400 496L528 496L528 368L400 368L400 496zM352 496L352 368C352 341.5 373.5 320 400 320L528 320C554.5 320 576 341.5 576 368L576 496C576 522.5 554.5 544 528 544L400 544C373.5 544 352 522.5 352 496z"/></svg>