<svg xmlns="http://www.w3.org/2000/svg" viewBox="0 0 640 640"><!--! Font Awesome Pro 7.2.0 by @fontawesome - https://fontawesome.com License - https://fontawesome.com/license (Commercial License) Copyright 2026 Fonticons, Inc. --><path fill="currentColor" d="M152 112C138.7 112 128 101.3 128 88C128 74.7 138.7 64 152 64L488 64C501.3 64 512 74.7 512 88C512 101.3 501.3 112 488 112L152 112zM473 433L337 569C327.6 578.4 312.4 578.4 303.1 569L167 433C157.6 423.6 157.6 408.4 167 399.1C176.4 389.8 191.6 389.7 200.9 399.1L295.9 494.1L295.9 216C295.9 202.7 306.6 192 319.9 192C333.2 192 343.9 202.7 343.9 216L343.9 494.1L438.9 399.1C448.3 389.7 463.5 389.7 472.8 399.1C482.1 408.5 482.2 423.7 472.8 433z"/></svg>