<svg xmlns="http://www.w3.org/2000/svg" viewBox="0 0 640 640"><!--! Font Awesome Pro 7.2.0 by @fontawesome - https://fontawesome.com License - https://fontawesome.com/license (Commercial License) Copyright 2026 Fonticons, Inc. --><path fill="currentColor" d="M489.4 320L368 198.6L368 264C368 277.3 357.3 288 344 288L144 288L144 352L344 352C357.3 352 368 362.7 368 376L368 441.4L489.4 320zM534.7 297.4C547.2 309.9 547.2 330.2 534.7 342.7L374.7 502.7C365.5 511.9 351.8 514.6 339.8 509.6L339.8 509.6C327.8 504.6 320 493 320 480L320 400L144 400C117.5 400 96 378.5 96 352L96 288C96 261.5 117.5 240 144 240L320 240L320 160C320 147.1 327.8 135.4 339.8 130.4L339.8 130.4C351.8 125.4 365.5 128.2 374.7 137.3L534.7 297.3z"/></svg>