<svg xmlns="http://www.w3.org/2000/svg" viewBox="0 0 640 640"><!--! Font Awesome Pro 7.2.0 by @fontawesome - https://fontawesome.com License - https://fontawesome.com/license (Commercial License) Copyright 2026 Fonticons, Inc. --><path fill="currentColor" d="M489.2 63.9C535.3 104.5 566.6 161.5 574.2 225.7L544 256L574.2 286.2C566.6 350.4 535.3 407.4 489.2 448C481 455.2 468.4 451.2 463.6 441.4C440.9 395.2 396.6 361.6 343.9 353.7L344 584C344 597.3 333.3 608 320 608C306.7 608 296 597.3 296 584L296 353.8C243.3 361.7 199 395.4 176.3 441.5C171.5 451.3 158.9 455.3 150.7 448.1C97.5 401.2 63.9 332.5 63.9 256C63.9 179.5 97.6 110.8 150.8 63.9C159 56.7 171.6 60.7 176.4 70.5C199.1 116.7 243.4 150.3 296.1 158.2L296 88C296 74.7 306.7 64 320 64C333.3 64 344 74.7 344 88L344 158.2C396.7 150.3 441 116.6 463.7 70.5C468.5 60.7 481.1 56.7 489.3 63.9zM344 206.6L344 305.3C400.8 311.8 450.6 341.2 484 383.9C502.5 360.3 515.9 332.6 522.8 302.5L510.1 289.8C491.4 271.1 491.4 240.7 510.1 221.9L522.8 209.2C515.9 179.1 502.5 151.4 484 127.8C450.6 170.5 400.8 199.9 344 206.4zM296 206.6C239.2 200.1 189.4 170.7 156 128C128.4 163.3 112 207.7 112 256C112 304.3 128.4 348.7 156 384C189.4 341.3 239.2 311.9 296 305.4L296 206.7z"/></svg>