<svg xmlns="http://www.w3.org/2000/svg" viewBox="0 0 640 640"><!--! Font Awesome Pro 7.2.0 by @fontawesome - https://fontawesome.com License - https://fontawesome.com/license (Commercial License) Copyright 2026 Fonticons, Inc. --><path fill="currentColor" d="M320 576C178.6 576 64 461.4 64 320C64 178.6 178.6 64 320 64C461.4 64 576 178.6 576 320C576 461.4 461.4 576 320 576zM337 126.3L336.3 128.7C332.4 140.2 320.4 147.2 308.2 144.4C295.3 141.5 287.2 128.6 290.1 115.6L290.4 114C199.1 127 127 199.1 114 290.4C114.5 290.3 115 290.2 115.6 290.1L118 289.7C130.1 288.2 141.6 296.1 144.3 308.2C147.2 321.1 139.1 334 126.2 336.9L112.8 339.6C122.1 438.7 201 517.6 300.1 526.9C300.9 522.4 301.8 518 302.8 513.6L303.5 511.2C307.4 499.7 319.4 492.7 331.6 495.5C344.5 498.4 352.6 511.3 349.7 524.2L349.4 525.7C440.7 512.7 512.9 440.6 525.8 349.3C525.3 349.4 524.8 349.5 524.3 349.6L521.9 350C509.8 351.5 498.3 343.6 495.6 331.5C492.7 318.6 500.8 305.7 513.7 302.8L527 300.1C517.7 200.9 438.8 122.1 339.6 112.8C338.8 117.3 338 121.8 337 126.2zM427 338.9C438.2 331.8 453 335.2 460.1 346.4C467.2 357.6 463.8 372.5 452.6 379.5C423.1 398.1 398.1 423.1 379.6 452.5C372.5 463.7 357.7 467.1 346.5 460C335.3 452.9 331.9 438.1 339 426.9C361.4 391.3 391.5 361.2 427.1 338.8zM260.5 187.4C267.6 176.2 282.4 172.8 293.6 179.9C304.8 187 308.2 201.8 301.1 213C278.7 248.6 248.6 278.7 213 301.1C201.8 308.2 187 304.8 179.9 293.6C172.8 282.4 176.2 267.5 187.4 260.5C216.9 241.9 241.9 216.9 260.4 187.5z"/></svg>