<svg xmlns="http://www.w3.org/2000/svg" viewBox="0 0 640 640"><!--! Font Awesome Pro 7.2.0 by @fontawesome - https://fontawesome.com License - https://fontawesome.com/license (Commercial License) Copyright 2026 Fonticons, Inc. --><path fill="currentColor" d="M445.5 49.1C476.9 23.5 523.3 25.3 552.6 54.6L590.9 93.5C614.8 122.8 614.8 165.2 590.9 194.5L409.3 376.6C402.3 383.6 394.5 389.3 386.2 394.6L246.5 478.5C241.5 481.5 236.8 485.2 232.7 489.3L135.4 586.6C137.2 594.4 135.2 602.9 129.1 608.9C120.3 617.7 106.4 618.2 97 610.6L29.4 543.2C21.7 533.8 22.3 519.9 31.1 511.1C37.2 505 45.6 503 53.4 504.8L150.7 407.5C154.7 403.2 158.5 398.7 161.5 393.7L245.3 254C250.3 245.6 256.4 237.8 263.3 230.9L445.5 49.1zM89.9 536L104 550.1L182.1 472L168 457.9L89.9 536zM518.6 88.6C506.1 76.1 485.8 76.1 473.4 88.6L297.3 264.6C293.1 268.8 289.5 273.4 286.5 278.4C257.8 326.2 230.7 375.5 200.1 422.1L217.8 439.8C264.4 409.2 313.7 382.1 361.5 353.4C366.5 350.2 371.2 346.8 375.3 342.6L551.4 166.6C563.1 154.9 563.8 136.4 553.6 123.8L518.6 88.5z"/></svg>