<svg xmlns="http://www.w3.org/2000/svg" viewBox="0 0 640 640"><!--! Font Awesome Pro 7.2.0 by @fontawesome - https://fontawesome.com License - https://fontawesome.com/license (Commercial License) Copyright 2026 Fonticons, Inc. --><path fill="currentColor" d="M160 96C124.7 96 96 124.7 96 160L96 308.1C76.5 324.3 64 348.7 64 376L64 520C64 533.3 74.7 544 88 544C101.3 544 112 533.3 112 520L112 480L528 480L528 520C528 533.3 538.7 544 552 544C565.3 544 576 533.3 576 520L576 376C576 348.7 563.5 324.3 544 308.1L544 160C544 124.7 515.3 96 480 96L160 96zM464 288L368 288C350.3 288 336 273.7 336 256L336 240C336 222.3 350.3 208 368 208L464 208C481.7 208 496 222.3 496 240L496 256C496 273.7 481.7 288 464 288zM272 288L176 288C158.3 288 144 273.7 144 256L144 240C144 222.3 158.3 208 176 208L272 208C289.7 208 304 222.3 304 240L304 256C304 273.7 289.7 288 272 288zM528 376L528 432L112 432L112 376C112 353.9 129.9 336 152 336L488 336C510.1 336 528 353.9 528 376z"/></svg>