<svg xmlns="http://www.w3.org/2000/svg" viewBox="0 0 640 640"><!--! Font Awesome Pro 7.2.0 by @fontawesome - https://fontawesome.com License - https://fontawesome.com/license (Commercial License) Copyright 2026 Fonticons, Inc. --><path fill="currentColor" d="M120 96C106.7 96 96 106.7 96 120C96 133.3 106.7 144 120 144L208 144L208 520C208 533.3 218.7 544 232 544C245.3 544 256 533.3 256 520L256 144L520 144C533.3 144 544 133.3 544 120C544 106.7 533.3 96 520 96L120 96zM120 256L160 256L160 208L120 208C106.7 208 96 218.7 96 232C96 245.3 106.7 256 120 256zM520 256C533.3 256 544 245.3 544 232C544 218.7 533.3 208 520 208L304 208L304 256L520 256z"/></svg>