<svg xmlns="http://www.w3.org/2000/svg" viewBox="0 0 640 640"><!--! Font Awesome Pro 7.2.0 by @fontawesome - https://fontawesome.com License - https://fontawesome.com/license (Commercial License) Copyright 2026 Fonticons, Inc. --><path fill="currentColor" d="M96 152C96 103.4 135.4 64 184 64L472 64C511.8 64 544 96.2 544 136L544 392C544 417 531.3 439 512 451.9L512 528L520 528C533.3 528 544 538.7 544 552C544 565.3 533.3 576 520 576L176 576C131.8 576 96 540.2 96 496L96 152zM176 464C158.3 464 144 478.3 144 496C144 513.7 158.3 528 176 528L464 528L464 464L176 464zM144 422.7C153.8 418.4 164.6 416 176 416L224 416L224 112L184 112C161.9 112 144 129.9 144 152L144 422.7zM272 112L272 416L472 416C485.3 416 496 405.3 496 392L496 136C496 122.7 485.3 112 472 112L272 112z"/></svg>