<svg xmlns="http://www.w3.org/2000/svg" viewBox="0 0 640 640"><!--! Font Awesome Pro 7.2.0 by @fontawesome - https://fontawesome.com License - https://fontawesome.com/license (Commercial License) Copyright 2026 Fonticons, Inc. --><path fill="currentColor" d="M480 144C488.8 144 496 151.2 496 160L496 296L344 296L344 144L480 144zM496 344L496 480C496 488.8 488.8 496 480 496L344 496L344 344L496 344zM296 296L144 296L144 160C144 151.2 151.2 144 160 144L296 144L296 296zM144 344L296 344L296 496L160 496C151.2 496 144 488.8 144 480L144 344zM160 96C124.7 96 96 124.7 96 160L96 480C96 515.3 124.7 544 160 544L480 544C515.3 544 544 515.3 544 480L544 160C544 124.7 515.3 96 480 96L160 96z"/></svg>