<svg xmlns="http://www.w3.org/2000/svg" viewBox="0 0 640 640"><!--! Font Awesome Pro 7.2.0 by @fontawesome - https://fontawesome.com License - https://fontawesome.com/license (Commercial License) Copyright 2026 Fonticons, Inc. --><path fill="currentColor" d="M160 142L77.1 157.6C69.5 159 64 165.6 64 173.3C64 183.1 72.8 190.6 82.5 189.1L160 177L160 205L79.7 207.5C71 207.8 64 215 64 223.7C64 232.7 71.3 240 80.2 240L160 240L160 288L112 288C85.5 288 64 309.5 64 336C64 426.8 118.1 505 195.7 540.2C203.8 561.2 224.1 576 248 576L392 576C415.8 576 436.2 561.1 444.3 540.2C522 505 576 426.8 576 336C576 309.5 554.5 288 528 288L304 288L304 104C304 90.7 293.3 80 280 80C266.7 80 256 90.7 256 104L256 288L208 288L208 120C208 106.7 197.3 96 184 96C170.7 96 160 106.7 160 120L160 142zM352 199L352 240L552.4 240C565.4 240 576 229.4 576 216.4C576 203.1 565 192.4 551.6 192.8L352 199zM352 106L352 147L556.3 115.1C567.6 113.3 576 103.6 576 92.1C576 77.5 562.7 66.5 548.4 69.2L352 106zM215.5 496.5C154.4 468.8 112 407.3 112 336L528 336C528 407.3 485.6 468.8 424.5 496.5C413 501.7 404.1 511.2 399.5 522.9C398.3 526 395.3 528 392 528L248 528C244.7 528 241.7 526 240.5 522.9C236 511.2 227 501.7 215.5 496.5z"/></svg>