<svg xmlns="http://www.w3.org/2000/svg" viewBox="0 0 640 640"><!--! Font Awesome Pro 7.2.0 by @fontawesome - https://fontawesome.com License - https://fontawesome.com/license (Commercial License) Copyright 2026 Fonticons, Inc. --><path fill="currentColor" d="M440.5 320.1C506.8 320.1 560.5 373.8 560.5 440.1C560.5 464.5 553.1 487.3 540.6 506.2L601.5 567.1C610.9 576.5 610.9 591.7 601.5 601C592.7 609.8 578.8 610.3 569.4 602.7L567.6 601L506.7 540.1C487.7 552.7 465 560 440.5 560C374.2 560 320.5 506.3 320.5 440C320.5 373.7 374.2 320 440.5 320zM399.6 80C420.3 80 439.7 90 451.7 106.8L500.6 175.3C508.3 186.1 512.5 199.2 512.5 212.5L512.5 288.2C497.6 281.1 481.4 276.2 464.5 273.8L464.5 240.1L112.5 240.1L112.5 480.1C112.5 488.9 119.7 496.1 128.5 496.1L282.1 496.1C288.3 513.6 297.3 529.8 308.6 544.1L128.5 544.1L122 543.8C91.9 540.7 67.9 516.8 64.9 486.7L64.6 480.2L64.6 212.7C64.6 201 67.8 189.6 73.8 179.7L76.5 175.5L125.4 107C135.9 92.3 152.1 82.8 169.8 80.7L177.5 80.2L399.6 80.2zM440.5 368.1C400.7 368.1 368.5 400.3 368.5 440.1C368.5 479.9 400.7 512.1 440.5 512.1C480.3 512.1 512.5 479.9 512.5 440.1C512.5 400.3 480.3 368.1 440.5 368.1zM177.4 128C172.2 128 167.4 130.5 164.4 134.7L123.5 192L453.6 192L412.7 134.7C409.7 130.5 404.8 128 399.7 128L177.4 128z"/></svg>