<svg xmlns="http://www.w3.org/2000/svg" viewBox="0 0 640 640"><!--! Font Awesome Pro 7.2.0 by @fontawesome - https://fontawesome.com License - https://fontawesome.com/license (Commercial License) Copyright 2026 Fonticons, Inc. --><path fill="currentColor" d="M384 240L384 288C384 305.7 369.7 320 352 320L288 320C270.3 320 256 305.7 256 288L256 240L144 240L144 480C144 488.8 151.2 496 160 496L480 496C488.8 496 496 488.8 496 480L496 240L384 240zM384 192L485 192L444.1 134.7C441.1 130.5 436.2 128 431.1 128L362.7 128L384 192zM277.3 128L208.9 128C203.7 128 198.9 130.5 195.9 134.7L155 192L256 192L277.3 128zM96 212.5C96 199.2 100.2 186.2 107.9 175.3L156.9 106.8C168.9 90 188.3 80 208.9 80L431 80C451.7 80 471.1 90 483.1 106.8L532 175.3C539.8 186.2 543.9 199.2 543.9 212.5L544 480C544 515.3 515.3 544 480 544L160 544C124.7 544 96 515.3 96 480L96 212.5z"/></svg>