<svg xmlns="http://www.w3.org/2000/svg" viewBox="0 0 640 640"><!--! Font Awesome Pro 7.2.0 by @fontawesome - https://fontawesome.com License - https://fontawesome.com/license (Commercial License) Copyright 2026 Fonticons, Inc. --><path fill="currentColor" d="M144 240L144 480C144 488.8 151.2 496 160 496L480 496C488.8 496 496 488.8 496 480L496 240L144 240zM344 192L485 192L444.1 134.7C441.1 130.5 436.2 128 431.1 128L344 128L344 192zM296 128L208.9 128C203.7 128 198.9 130.5 195.9 134.7L155 192L296 192L296 128zM96 212.5C96 199.2 100.2 186.2 107.9 175.3L156.9 106.8C168.9 90 188.3 80 208.9 80L431 80C451.7 80 471.1 90 483.1 106.8L532 175.3C539.8 186.2 543.9 199.2 543.9 212.5L544 480C544 515.3 515.3 544 480 544L160 544C124.7 544 96 515.3 96 480L96 212.5zM324 264C335 264 344 273 344 284L344 288L352 288C363 288 372 297 372 308C372 319 363 328 352 328L308.6 328C303.9 328 300 331.8 300 336.6C300 340.7 302.9 344.2 306.9 345L341 351.8C363.7 356.3 380 376.3 380 399.4C380 421.9 364.7 440.8 344 446.3L344 451.9C344 462.9 335 471.9 324 471.9C313 471.9 304 462.9 304 451.9L304 447.9L288 447.9C277 447.9 268 438.9 268 427.9C268 416.9 277 407.9 288 407.9L331.4 407.9C336.1 407.9 340 404.1 340 399.3C340 395.2 337.1 391.7 333.1 390.9L299 384.2C276.3 379.7 260 359.7 260 336.6C260 311.3 279.3 290.5 304 288.2L304 284C304 273 313 264 324 264z"/></svg>