<svg xmlns="http://www.w3.org/2000/svg" viewBox="0 0 640 640"><!--! Font Awesome Pro 7.2.0 by @fontawesome - https://fontawesome.com License - https://fontawesome.com/license (Commercial License) Copyright 2026 Fonticons, Inc. --><path fill="currentColor" d="M176 320L176 496L464 496L464 320C464 293.5 485.5 272 512 272C520.8 272 528 264.8 528 256C528 224.4 510.5 197.5 472.4 176.1C433.5 154.2 378.2 141.7 320 141.7C261.8 141.7 206.5 154.1 167.6 176.1C129.5 197.6 112 224.5 112 256C112 264.8 119.2 272 128 272C154.5 272 176 293.5 176 320zM512 320L512 496C512 522.5 490.5 544 464 544L176 544C149.5 544 128 522.5 128 496L128 320C92.7 320 64 291.3 64 256C64 39.5 576 39.5 576 256C576 291.3 547.3 320 512 320zM246.6 329.4L297.3 278.7C309.8 266.2 330.1 266.2 342.6 278.7L393.3 329.4C405.8 341.9 405.8 362.2 393.3 374.7L342.6 425.4C330.1 437.9 309.8 437.9 297.3 425.4L246.6 374.7C234.1 362.2 234.1 341.9 246.6 329.4z"/></svg>