<svg xmlns="http://www.w3.org/2000/svg" viewBox="0 0 640 640"><!--! Font Awesome Pro 7.2.0 by @fontawesome - https://fontawesome.com License - https://fontawesome.com/license (Commercial License) Copyright 2026 Fonticons, Inc. --><path fill="currentColor" d="M88 96C74.7 96 64 106.7 64 120C64 133.3 74.7 144 88 144L104 144L104 208L88 208C74.7 208 64 218.7 64 232L64 320C64 329.1 69.1 337.4 77.3 341.5L81.1 343.4C100.1 352.9 112.1 372.3 112.1 393.5L112 504C112 526.1 129.9 544 152 544L216 544C238.1 544 256 526.1 256 504L256 432C256 396.7 284.7 368 320 368C355.3 368 384 396.7 384 432L384 504C384 526.1 401.9 544 424 544L488 544C510.1 544 528 526.1 528 504L528 393.4C528 372.2 540 352.8 559 343.3L562.8 341.4C570.9 337.3 576.1 329 576.1 319.9L576.1 231.9C576.1 218.6 565.4 207.9 552.1 207.9L536.1 207.9L536.1 143.9L552.1 143.9C565.4 143.9 576.1 133.2 576.1 119.9C576.1 106.6 565.4 95.9 552.1 95.9L88 96zM488 144L488 208L408 208L408 144L488 144zM360 144L360 208L280 208L280 144L360 144zM232 144L232 208L152 208L152 144L232 144zM256 256L528 256L528 305.8C498.3 324.8 480 357.7 480 393.4L480 496L432 496L432 432C432 370.1 381.9 320 320 320C258.1 320 208 370.1 208 432L208 496L160 496L160 393.4C160 357.7 141.7 324.7 112 305.8L112 256L256 256z"/></svg>