<svg xmlns="http://www.w3.org/2000/svg" viewBox="0 0 640 640"><!--! Font Awesome Pro 7.2.0 by @fontawesome - https://fontawesome.com License - https://fontawesome.com/license (Commercial License) Copyright 2026 Fonticons, Inc. --><path fill="currentColor" d="M128 176C119.2 176 112 183.2 112 192L112 208L528 208L528 192C528 183.2 520.8 176 512 176L128 176zM384 256L256 256L256 262.3C256 303.1 244.4 343 222.5 377.3C236.1 393.3 247.3 411.3 255.6 430.9C260.3 441.9 266.8 451.1 273.4 457C279.8 462.6 284.6 463.9 288 463.9L352 463.9C355.4 463.9 360.2 462.6 366.6 457C373.2 451.1 379.8 441.9 384.4 430.9C392.7 411.3 403.9 393.3 417.5 377.3C395.7 342.9 384 303 384 262.3L384 256zM453.4 344C466.2 334.6 480.2 326.7 495 320.4C506 315.7 515.2 309.2 521.1 302.6C526.7 296.2 528 291.4 528 288L528 256L432 256L432 262.3C432 291 439.4 319.1 453.4 344zM112 256L112 288C112 291.4 113.3 296.2 118.9 302.6C124.8 309.2 134 315.8 145 320.4C159.8 326.7 173.8 334.6 186.6 344C200.6 319.1 208 291 208 262.3L208 256L112 256zM64 192C64 156.7 92.7 128 128 128L512 128C547.3 128 576 156.7 576 192L576 288C576 323.3 546.2 350.8 513.7 364.6C475.4 380.8 444.8 411.4 428.6 449.7C414.8 482.3 387.4 512 352 512L288 512C252.7 512 225.2 482.2 211.4 449.7C195.2 411.4 164.6 380.8 126.3 364.6C93.7 350.8 64 323.4 64 288L64 192z"/></svg>