<svg xmlns="http://www.w3.org/2000/svg" viewBox="0 0 640 640"><!--! Font Awesome Pro 7.2.0 by @fontawesome - https://fontawesome.com License - https://fontawesome.com/license (Commercial License) Copyright 2026 Fonticons, Inc. --><path fill="currentColor" d="M96 80L192 80C200.8 80 208 87.2 208 96L208 113.1C213.2 112.4 218.6 112 224 112L256 112L256 96C256 60.7 227.3 32 192 32L96 32C60.7 32 32 60.7 32 96L32 192C32 227.3 60.7 256 96 256L112 256L112 224C112 218.6 112.4 213.2 113.1 208L96 208C87.2 208 80 200.8 80 192L80 96C80 87.2 87.2 80 96 80zM384 544C384 579.3 412.7 608 448 608L544 608C579.3 608 608 579.3 608 544L608 448C608 412.7 579.3 384 544 384L528 384L528 416C528 421.4 527.6 426.8 526.9 432L544 432C552.8 432 560 439.2 560 448L560 544C560 552.8 552.8 560 544 560L448 560C439.2 560 432 552.8 432 544L432 526.9C426.8 527.6 421.4 528 416 528L384 528L384 544zM224 160C188.7 160 160 188.7 160 224L160 416C160 451.3 188.7 480 224 480L416 480C451.3 480 480 451.3 480 416L480 224C480 188.7 451.3 160 416 160L224 160z"/></svg>