<svg xmlns="http://www.w3.org/2000/svg" viewBox="0 0 640 640"><!--! Font Awesome Pro 7.2.0 by @fontawesome - https://fontawesome.com License - https://fontawesome.com/license (Commercial License) Copyright 2026 Fonticons, Inc. --><path fill="currentColor" d="M119.9 75.5C108.6 68.6 93.8 72.3 86.9 83.6C62.1 124.6 47.9 172.7 47.9 224C47.9 275.3 62.1 323.4 86.9 364.4C93.8 375.7 108.5 379.4 119.9 372.5C131.3 365.6 134.9 350.9 128 339.5C107.7 305.9 96 266.3 96 224C96 181.7 107.7 142.1 128.1 108.4C135 97.1 131.3 82.3 120 75.4zM520 75.5C508.7 82.4 505 97.1 511.9 108.5C532.3 142.2 544 181.8 544 224.1C544 266.4 532.3 306 511.9 339.7C505 351 508.7 365.8 520 372.7C531.3 379.6 546.1 375.9 553 364.6C577.8 323.6 592 275.5 592 224.2C592 172.9 577.8 124.6 553 83.6C546.1 72.3 531.4 68.6 520 75.5zM344 274.6C362.9 265.6 376 246.3 376 224C376 193.1 350.9 168 320 168C289.1 168 264 193.1 264 224C264 246.3 277.1 265.6 296 274.6L296 552C296 565.3 306.7 576 320 576C333.3 576 344 565.3 344 552L344 274.6zM212.2 155C219.4 143.8 216.1 129 205 121.8C193.9 114.6 179 117.9 171.8 129C154.2 156.4 144 189 144 224C144 259 154.2 291.6 171.8 319C179 330.2 193.8 333.4 205 326.2C216.2 319 219.4 304.2 212.2 293C199.4 273.1 192 249.4 192 224C192 198.6 199.4 174.9 212.2 155zM468.2 129C461 117.8 446.2 114.6 435 121.8C423.8 129 420.6 143.8 427.8 155C440.6 174.9 448 198.6 448 224C448 249.4 440.6 273.1 427.8 293C420.6 304.2 423.9 319 435 326.2C446.1 333.4 461 330.1 468.2 319C485.8 291.6 496 259 496 224C496 189 485.8 156.4 468.2 129z"/></svg>