<svg xmlns="http://www.w3.org/2000/svg" viewBox="0 0 640 640"><!--! Font Awesome Pro 7.2.0 by @fontawesome - https://fontawesome.com License - https://fontawesome.com/license (Commercial License) Copyright 2026 Fonticons, Inc. --><path fill="currentColor" d="M208 96L544 96C579.3 96 608 124.7 608 160L608 384C608 419.3 579.3 448 544 448L192 448C156.7 448 128 419.3 128 384L128 160C128 124.7 156.7 96 192 96L208 96zM560 256L176 256L176 384C176 392.8 183.2 400 192 400L544 400C552.8 400 560 392.8 560 384L560 256zM56 192C69.3 192 80 202.7 80 216L80 480C80 488.8 87.2 496 96 496L488 496C501.3 496 512 506.7 512 520C512 533.3 501.3 544 488 544L96 544C60.7 544 32 515.3 32 480L32 216C32 202.7 42.7 192 56 192zM256 176C256 158.3 241.7 144 224 144C206.3 144 192 158.3 192 176C192 193.7 206.3 208 224 208C241.7 208 256 193.7 256 176zM312 152C298.7 152 288 162.7 288 176C288 189.3 298.7 200 312 200L520 200C533.3 200 544 189.3 544 176C544 162.7 533.3 152 520 152L312 152z"/></svg>