<svg xmlns="http://www.w3.org/2000/svg" viewBox="0 0 640 640"><!--! Font Awesome Pro 7.2.0 by @fontawesome - https://fontawesome.com License - https://fontawesome.com/license (Commercial License) Copyright 2026 Fonticons, Inc. --><path fill="currentColor" d="M333.2 75.9C325.2 70.7 314.9 70.7 306.9 75.9L74.9 227.9C66 233.7 62 244.7 65 254.9C68 265.1 77.4 272 88 272L128 272L128 432L120 432C106.7 432 96 442.7 96 456C96 469.3 106.7 480 120 480L520 480C533.3 480 544 469.3 544 456C544 442.7 533.3 432 520 432L512 432L512 272L552 272C562.6 272 572 265 575 254.9C578 244.8 574 233.8 565.2 228L333.2 76zM240 432L176 432L176 272L240 272L240 432zM352 432L288 432L288 272L352 272L352 432zM464 432L400 432L400 272L464 272L464 432zM292.3 224L168.4 224L320 124.7L471.6 224L347.7 224C350.4 219.3 352 213.8 352 208C352 190.3 337.7 176 320 176C302.3 176 288 190.3 288 208C288 213.8 289.6 219.3 292.3 224zM64 552C64 565.3 74.7 576 88 576L552 576C565.3 576 576 565.3 576 552C576 538.7 565.3 528 552 528L88 528C74.7 528 64 538.7 64 552z"/></svg>