<svg xmlns="http://www.w3.org/2000/svg" viewBox="0 0 640 640"><!--! Font Awesome Pro 7.2.0 by @fontawesome - https://fontawesome.com License - https://fontawesome.com/license (Commercial License) Copyright 2026 Fonticons, Inc. --><path fill="currentColor" d="M416 112L160 112C151.2 112 144 119.2 144 128L144 512C144 520.8 151.2 528 160 528L240 528L240 464C240 437.5 261.5 416 288 416C298.8 416 308.8 419.6 316.8 425.6C308.8 436.3 304 449.6 304 464L304 576L160 576C124.7 576 96 547.3 96 512L96 128C96 92.7 124.7 64 160 64L416 64C451.3 64 480 92.7 480 128L480 400L432 400L432 128C432 119.2 424.8 112 416 112zM208 160L240 160C248.8 160 256 167.2 256 176L256 208C256 216.8 248.8 224 240 224L208 224C199.2 224 192 216.8 192 208L192 176C192 167.2 199.2 160 208 160zM320 176C320 167.2 327.2 160 336 160L368 160C376.8 160 384 167.2 384 176L384 208C384 216.8 376.8 224 368 224L336 224C327.2 224 320 216.8 320 208L320 176zM208 288L240 288C248.8 288 256 295.2 256 304L256 336C256 344.8 248.8 352 240 352L208 352C199.2 352 192 344.8 192 336L192 304C192 295.2 199.2 288 208 288zM320 304C320 295.2 327.2 288 336 288L368 288C376.8 288 384 295.2 384 304L384 336C384 344.8 376.8 352 368 352L336 352C327.2 352 320 344.8 320 336L320 304zM491.4 444.5C500.4 442.4 509.7 446.7 513.9 455L540 507.2L540 463.9C540 452.9 549 443.9 560 443.9C571 443.9 580 452.9 580 463.9L580 591.9C580 601.2 573.6 609.2 564.6 611.4C555.6 613.6 546.3 609.2 542.1 600.9L516 548.7L516 592C516 603 507 612 496 612C485 612 476 603 476 592L476 464C476 454.7 482.4 446.7 491.4 444.5zM388 464L388 560C388 566.6 393.4 572 400 572C406.6 572 412 566.6 412 560L412 464C412 453 421 444 432 444C443 444 452 453 452 464L452 560C452 588.7 428.7 612 400 612C371.3 612 348 588.7 348 560L348 464C348 453 357 444 368 444C379 444 388 453 388 464z"/></svg>