<svg xmlns="http://www.w3.org/2000/svg" viewBox="0 0 640 640"><!--! Font Awesome Pro 7.2.0 by @fontawesome - https://fontawesome.com License - https://fontawesome.com/license (Commercial License) Copyright 2026 Fonticons, Inc. --><path fill="currentColor" d="M296 88C296 74.7 306.7 64 320 64C333.3 64 344 74.7 344 88L344 114.6C386.6 124 420.7 157.8 429.3 202.1L475 436.3C462.8 433.4 450.4 431.9 437.9 432C433.7 432 429.5 432.2 425.4 432.6L415.9 384L224 384L214.5 432.6C209.6 432.2 204.8 432 199.9 432C188.1 432.1 176.4 433.5 164.9 436.3L210.6 202.1C219.3 157.8 253.4 124 296 114.6L296 88zM257.8 211.3L233.5 336L406.6 336L382.3 211.3C376.4 181.5 350.3 160 320 160C289.7 160 263.6 181.5 257.8 211.3zM403.4 540.1C379.1 558.3 351.1 576 320 576C288.9 576 260.9 558.3 236.6 540.1C215.3 524 186.7 524 165.4 540.1C141.6 558 111.3 575.6 77.3 575.4C56.9 575.3 36.6 568.7 17.5 554.3C6.9 546.3 4.8 531.3 12.8 520.7C20.8 510.1 35.8 508 46.4 516C57.7 524.5 68 527.4 77.6 527.5C95.2 527.6 114.9 518.1 136.5 501.8C174.9 472.8 227 472.8 265.5 501.8C289.5 519.9 306.2 528.1 320 528.1C333.8 528.1 350.5 519.9 374.5 501.8C412.9 472.8 465 472.8 503.5 501.8C520.4 514.5 536.4 523.3 551.3 526.4C565 529.2 578.7 527.3 593.6 516.1C604.2 508.1 619.2 510.2 627.2 520.8C635.2 531.4 633.1 546.4 622.5 554.4C596.1 574.3 568.3 578.8 541.8 573.5C516.5 568.4 493.7 554.6 474.6 540.2C453.3 524.1 424.7 524.1 403.4 540.2z"/></svg>