<svg xmlns="http://www.w3.org/2000/svg" viewBox="0 0 640 640"><!--! Font Awesome Pro 7.2.0 by @fontawesome - https://fontawesome.com License - https://fontawesome.com/license (Commercial License) Copyright 2026 Fonticons, Inc. --><path fill="currentColor" d="M251.5 464C252.4 465.7 253.2 467.4 253.6 469.3L266.4 519.8L302.8 482.5L304.6 480.9C308.9 477.3 314.4 475.3 320 475.3C326.5 475.3 332.7 477.9 337.2 482.6L373.5 519.9L386.3 469.4L387 467.1C387.4 466.1 387.9 465.1 388.4 464.1L515.5 464.1L524.1 494.6C526.5 503 524.1 512 518 518.1C511.9 524.2 502.9 526.6 494.5 524.2L426.7 505.1L409.5 573.3C407.4 581.7 400.9 588.3 392.5 590.6C384.1 592.9 375.2 590.4 369.1 584.1L320 533.6L270.9 584C264.8 590.2 255.9 592.7 247.5 590.5C239.1 588.3 232.6 581.6 230.4 573.2L213.2 505L145.5 524.1C137.1 526.5 128.1 524.1 122 518C115.9 511.9 113.5 502.9 115.9 494.5L124.5 464L251.5 464zM184 224C197.3 224 208 234.7 208 248L208 392C208 402.9 200.6 412.5 190 415.2C179.4 417.9 168.3 413.2 163 403.6L128 340.6L128 392C128 405.3 117.3 416 104 416C90.7 416 80 405.3 80 392L80 248L80.3 244C81.9 234.8 88.7 227.2 97.9 224.8C108.5 222.1 119.6 226.8 124.9 236.4L159.9 299.4L159.9 248C159.9 234.7 170.6 224 183.9 224zM352 224C365.3 224 376 234.7 376 248C376 261.3 365.3 272 352 272L296 272L296 296L336 296C349.3 296 360 306.7 360 320C360 333.3 349.3 344 336 344L296 344L296 368L352 368C365.3 368 376 378.7 376 392C376 405.3 365.3 416 352 416L272 416C258.7 416 248 405.3 248 392L248 248C248 234.7 258.7 224 272 224L352 224zM536 224C549.3 224 560 234.8 560 248L560 328.9C560 342.5 556.8 356 550.7 368.2L533.4 402.7C529.6 410.3 522 415.4 513.4 415.9C505.9 416.4 498.7 413.3 493.9 407.8L492 405.3L480 387.3L468 405.3C463.3 412.4 455.1 416.5 446.5 416C437.9 415.5 430.4 410.4 426.5 402.8L409.2 368.3C403.1 356.1 399.9 342.6 399.9 329L399.9 248.1C399.9 234.9 410.6 224.1 423.9 224.1C437.2 224.1 447.9 234.9 447.9 248.1L447.9 329C447.9 334.2 449 339.4 451 344.2L460 330.8C464.5 324 472 320 480 320C488 320 495.5 324 500 330.7L508.9 344.1C510.9 339.3 512 334.1 512 328.9L512 248C512 234.8 522.7 224 536 224zM369.1 56C375.2 49.8 384.1 47.3 392.5 49.5C400.9 51.7 407.4 58.4 409.6 66.8L426.8 135L494.5 115.9C502.9 113.5 511.9 115.9 518 122C524.1 128.1 526.5 137.1 524.1 145.5L515.5 176L388.5 176C387.6 174.3 386.9 172.6 386.4 170.7L373.6 120.2L337.3 157.5C332.8 162.1 326.6 164.8 320.1 164.8C313.6 164.8 307.4 162.2 302.9 157.5L266.6 120.1L253.8 170.7C253.3 172.6 252.6 174.3 251.7 176L124.6 176L116 145.5C113.6 137.1 116 128.1 122.1 122C128.2 115.9 137.2 113.5 145.6 115.9L213.3 135L230.6 66.8L231.6 63.7C234.4 56.8 240.3 51.4 247.7 49.5C256.1 47.3 265 49.7 271.1 55.9L320 106.4L369.1 56z"/></svg>