<svg xmlns="http://www.w3.org/2000/svg" viewBox="0 0 640 640"><!--! Font Awesome Pro 7.2.0 by @fontawesome - https://fontawesome.com License - https://fontawesome.com/license (Commercial License) Copyright 2026 Fonticons, Inc. --><path fill="currentColor" d="M325.8 32.2C384.9 35.1 432 84.1 432 144L432 244.2C439.5 241.5 447.6 240 456 240C495.8 240 528 272.2 528 312L528 424C528 472.6 488.6 512 440 512L432 512L432 560L431.8 564.9C429.5 587.5 411.5 605.5 389 607.7L384.1 607.9L256.1 607.9L251.2 607.7C228.6 605.4 210.6 587.4 208.4 564.9L208.2 560L208.2 416L200.2 416C151.6 416 112.2 376.6 112.2 328L112.2 216C112.2 176.2 144.4 144 184.2 144C192.6 144 200.7 145.5 208.2 148.2L208.2 144C208.2 82.1 258.3 32 320.2 32L326 32.2zM320 80C284.7 80 256 108.7 256 144L256 304C256 312.8 248.8 320 240 320L224 320C215.2 320 208 312.8 208 304L208 216C208 202.7 197.3 192 184 192C170.7 192 160 202.7 160 216L160 328C160 350.1 177.9 368 200 368L240 368C248.8 368 256 375.2 256 384L256 560L384 560L384 480C384 471.2 391.2 464 400 464L440 464C462.1 464 480 446.1 480 424L480 312C480 298.7 469.3 288 456 288C442.7 288 432 298.7 432 312L432 400C432 408.8 424.8 416 416 416L400 416C391.2 416 384 408.8 384 400L384 144C384 108.7 355.3 80 320 80zM336 408C322.7 408 312 397.3 312 384C312 370.7 322.7 360 336 360C349.3 360 360 370.7 360 384C360 397.3 349.3 408 336 408zM304 248C290.7 248 280 237.3 280 224C280 210.7 290.7 200 304 200C317.3 200 328 210.7 328 224C328 237.3 317.3 248 304 248z"/></svg>