<svg xmlns="http://www.w3.org/2000/svg" viewBox="0 0 640 640"><!--! Font Awesome Pro 7.2.0 by @fontawesome - https://fontawesome.com License - https://fontawesome.com/license (Commercial License) Copyright 2026 Fonticons, Inc. --><path fill="currentColor" d="M399.4 77.6C409.5 86.1 410.9 101.3 402.3 111.4L351.3 172.1L564.7 425.8C572 434.5 576 445.4 576 456.7L576 504C576 526.1 558.1 544 536 544L104 544C81.9 544 64 526.1 64 504L64 456.7C64 445.4 68 434.5 75.3 425.8L288.7 172.1L237.7 111.4C229.2 101.3 230.5 86.1 240.6 77.6C250.7 69.1 265.9 70.4 274.4 80.5L320 134.8L365.6 80.6C374.1 70.5 389.3 69.1 399.4 77.7zM112 456.7L112 496L175.2 496L190.5 479.6L302.5 359.6C307 354.7 313.4 352 320 352C326.6 352 333 354.8 337.5 359.6L449.5 479.6L464.8 496L528 496L528 456.7L320 209.3L112 456.7zM240.8 496L399.1 496L319.9 411.2L240.7 496z"/></svg>