<svg xmlns="http://www.w3.org/2000/svg" viewBox="0 0 640 640"><!--! Font Awesome Pro 7.2.0 by @fontawesome - https://fontawesome.com License - https://fontawesome.com/license (Commercial License) Copyright 2026 Fonticons, Inc. --><path fill="currentColor" d="M96 408.2C96 372.2 110.3 337.7 135.8 312.2L312.2 135.8C337.7 110.3 372.2 96 408.2 96C483.2 96 544 156.8 544 231.8C544 267.8 529.7 302.3 504.2 327.8L327.8 504.2C302.3 529.7 267.8 544 231.8 544C156.8 544 96 483.2 96 408.2zM365.1 399L241 274.9L169.7 346.2C153.2 362.7 144 385 144 408.3C144 456.8 183.3 496.1 231.8 496.1C255.1 496.1 277.4 486.9 293.9 470.4L365.1 399zM399 365.1L470.3 293.8C486.8 277.3 496 255 496 231.7C496 183.2 456.7 143.9 408.2 143.9C384.9 143.9 362.6 153.1 346.1 169.6L274.9 241L399 365.1z"/></svg>