<svg xmlns="http://www.w3.org/2000/svg" viewBox="0 0 640 640"><!--! Font Awesome Pro 7.2.0 by @fontawesome - https://fontawesome.com License - https://fontawesome.com/license (Commercial License) Copyright 2026 Fonticons, Inc. --><path fill="currentColor" d="M329.6 58C323.5 55.3 316.5 55.3 310.4 58L54.4 170C42.2 175.3 36.7 189.5 42 201.6C47.3 213.7 61.5 219.3 73.6 214L320 106.2L566.4 214C578.5 219.3 592.7 213.8 598 201.6C603.3 189.4 597.8 175.3 585.6 170L329.6 58zM235.3 256L404.7 256C415.2 256 424.5 262.8 427.6 272.8L447.3 336L192.6 336L212.3 272.8C215.4 262.8 224.7 256 235.2 256zM166.6 258.5L141.5 338.7C115.2 346.6 96 371.1 96 400L96 552C96 565.3 106.7 576 120 576C133.3 576 144 565.3 144 552L144 528L496 528L496 552C496 565.3 506.7 576 520 576C533.3 576 544 565.3 544 552L544 400C544 371.1 524.8 346.6 498.5 338.7L473.4 258.5C464 228.5 436.2 208 404.7 208L235.3 208C203.8 208 176 228.5 166.6 258.5zM496 448L496 480L144 480L144 400C144 391.2 151.2 384 160 384L480 384C488.8 384 496 391.2 496 400L496 448zM192 456C205.3 456 216 445.3 216 432C216 418.7 205.3 408 192 408C178.7 408 168 418.7 168 432C168 445.3 178.7 456 192 456zM472 432C472 418.7 461.3 408 448 408C434.7 408 424 418.7 424 432C424 445.3 434.7 456 448 456C461.3 456 472 445.3 472 432z"/></svg>