<svg xmlns="http://www.w3.org/2000/svg" viewBox="0 0 640 640"><!--! Font Awesome Pro 7.2.0 by @fontawesome - https://fontawesome.com License - https://fontawesome.com/license (Commercial License) Copyright 2026 Fonticons, Inc. --><path fill="currentColor" d="M144.3 192C177.1 192 205.3 172.3 217.6 144L423 144C435.3 172.3 463.5 192 496.3 192C532.1 192 562.4 168.5 572.6 136L504.3 136C491.1 136 480.4 125.3 480.3 112.1L480.3 111.9C480.4 98.7 491.1 88 504.3 88L572.6 88C562.4 55.5 532.1 32 496.3 32C463.5 32 435.3 51.7 423 80L217.7 80C205.3 51.7 177.1 32 144.3 32C108.5 32 78.2 55.5 68 88L136.3 88C149.5 88 160.2 98.6 160.3 111.8L160.3 112.2C160.2 125.4 149.5 136 136.3 136L68 136C78.2 168.5 108.5 192 144.3 192zM235.6 256L405 256C415.5 256 424.8 262.8 427.9 272.8L447.6 336L192.9 336L212.6 272.8C215.7 262.8 225 256 235.5 256zM166.9 258.5L141.8 338.7C115.5 346.6 96.3 371.1 96.3 400L96.3 552C96.3 565.3 107 576 120.3 576C133.6 576 144.3 565.3 144.3 552L144.3 528L496.3 528L496.3 552C496.3 565.3 507 576 520.3 576C533.6 576 544.3 565.3 544.3 552L544.3 400C544.3 371.1 525.1 346.6 498.8 338.7L473.7 258.5C464.4 228.5 436.5 208 405 208L235.6 208C204.1 208 176.3 228.5 166.9 258.5zM496.3 448L496.3 480L144.3 480L144.3 400C144.3 391.2 151.5 384 160.3 384L480.3 384C489.1 384 496.3 391.2 496.3 400L496.3 448zM192.3 456C205.6 456 216.3 445.3 216.3 432C216.3 418.7 205.6 408 192.3 408C179 408 168.3 418.7 168.3 432C168.3 445.3 179 456 192.3 456zM472.3 432C472.3 418.7 461.6 408 448.3 408C435 408 424.3 418.7 424.3 432C424.3 445.3 435 456 448.3 456C461.6 456 472.3 445.3 472.3 432z"/></svg>