<svg xmlns="http://www.w3.org/2000/svg" viewBox="0 0 640 640"><!--! Font Awesome Pro 7.2.0 by @fontawesome - https://fontawesome.com License - https://fontawesome.com/license (Commercial License) Copyright 2026 Fonticons, Inc. --><path fill="currentColor" d="M192 112C183.2 112 176 119.2 176 128L176 512C176 520.8 183.2 528 192 528L448 528C456.8 528 464 520.8 464 512L464 128C464 119.2 456.8 112 448 112L192 112zM128 128C128 92.7 156.7 64 192 64L448 64C483.3 64 512 92.7 512 128L512 512C512 547.3 483.3 576 448 576L192 576C156.7 576 128 547.3 128 512L128 128zM308.7 212.7C314.9 206.5 325.1 206.5 331.3 212.7L427.3 308.7C433.5 314.9 433.5 325.1 427.3 331.3L331.3 427.3C325.1 433.5 314.9 433.5 308.7 427.3L212.7 331.3C206.5 325.1 206.5 314.9 212.7 308.7L308.7 212.7z"/></svg>