<svg xmlns="http://www.w3.org/2000/svg" viewBox="0 0 640 640"><!--! Font Awesome Pro 7.2.0 by @fontawesome - https://fontawesome.com License - https://fontawesome.com/license (Commercial License) Copyright 2026 Fonticons, Inc. --><path fill="currentColor" d="M32 88C32 74.7 42.7 64 56 64L88 64C118.9 64 144 89.1 144 120L144 456C144 460.4 147.6 464 152 464L584 464C597.3 464 608 474.7 608 488C608 501.3 597.3 512 584 512L541.3 512C543.1 517 544 522.4 544 528C544 554.5 522.5 576 496 576C469.5 576 448 554.5 448 528C448 522.4 449 517 450.7 512L253.2 512C255 517 255.9 522.4 255.9 528C255.9 554.5 234.4 576 207.9 576C181.4 576 159.9 554.5 159.9 528C159.9 522.4 160.9 517 162.6 512L152 512C121.1 512 96 486.9 96 456L96 120C96 115.6 92.4 112 88 112L56 112C42.7 112 32 101.3 32 88zM320 176L256 176C247.2 176 240 183.2 240 192L240 352C240 360.8 247.2 368 256 368L320 368C328.8 368 336 360.8 336 352L336 192C336 183.2 328.8 176 320 176zM384 210C389.1 208.7 394.5 208 400 208L480 208C515.3 208 544 236.7 544 272L544 352C544 387.3 515.3 416 480 416L400 416C384.9 416 371 410.7 360 402C349 410.8 335.1 416 320 416L256 416C220.7 416 192 387.3 192 352L192 192C192 156.7 220.7 128 256 128L320 128C355.3 128 384 156.7 384 192L384 210zM384 272L384 352C384 360.8 391.2 368 400 368L480 368C488.8 368 496 360.8 496 352L496 272C496 263.2 488.8 256 480 256L400 256C391.2 256 384 263.2 384 272z"/></svg>