<svg xmlns="http://www.w3.org/2000/svg" viewBox="0 0 640 640"><!--! Font Awesome Pro 7.2.0 by @fontawesome - https://fontawesome.com License - https://fontawesome.com/license (Commercial License) Copyright 2026 Fonticons, Inc. --><path fill="currentColor" d="M432 160L432 112L144 112L144 160L432 160zM432 208L144 208C117.5 208 96 186.5 96 160L96 112C96 85.5 117.5 64 144 64L432 64C458.5 64 480 85.5 480 112L480 160C480 186.5 458.5 208 432 208zM496 304L144 304L144 352L496 352L496 304zM544 352C544 378.5 522.5 400 496 400L144 400C117.5 400 96 378.5 96 352L96 304C96 277.5 117.5 256 144 256L496 256C522.5 256 544 277.5 544 304L544 352zM304 496L144 496L144 544L304 544L304 496zM352 544C352 570.5 330.5 592 304 592L144 592C117.5 592 96 570.5 96 544L96 496C96 469.5 117.5 448 144 448L304 448C330.5 448 352 469.5 352 496L352 544z"/></svg>