<svg xmlns="http://www.w3.org/2000/svg" viewBox="0 0 640 640"><!--! Font Awesome Pro 7.2.0 by @fontawesome - https://fontawesome.com License - https://fontawesome.com/license (Commercial License) Copyright 2026 Fonticons, Inc. --><path fill="currentColor" d="M160 112C151.2 112 144 119.2 144 128L144 528L336 528L336 128C336 119.2 328.8 112 320 112L160 112zM384 528L384 529.4C393.3 532.7 400 541.6 400 552C400 565.3 389.3 576 376 576L104 576C90.7 576 80 565.3 80 552C80 541.5 86.7 532.7 96 529.4L96 128C96 92.7 124.7 64 160 64L320 64C355.3 64 384 92.7 384 128L384 352C428.2 352 464 387.8 464 432L464 444C464 455 473 464 484 464C495 464 504 455 504 444L504 316.3C471.5 306.1 448 275.8 448 240L448 208C448 199.2 455.2 192 464 192L480 192L480 144C480 135.2 487.2 128 496 128C504.8 128 512 135.2 512 144L512 192L544 192L544 144C544 135.2 551.2 128 560 128C568.8 128 576 135.2 576 144L576 192L592 192C600.8 192 608 199.2 608 208L608 240C608 275.8 584.5 306.1 552 316.3L552 444C552 481.6 521.6 512 484 512C446.4 512 416 481.6 416 444L416 432C416 414.3 401.7 400 384 400L384 528zM188.9 251.4C182.4 251.4 177.1 246.1 177.1 239.6C177.1 236.2 178.6 232.9 181.2 230.7L260.1 162.4C261.9 160.8 264.2 160 266.6 160C273.3 160 278 166.5 276 172.8L258.6 228.5L291.1 228.5C297.6 228.5 302.9 233.8 302.9 240.3C302.9 243.7 301.4 247 298.8 249.2L219.9 317.5C218.1 319.1 215.8 319.9 213.4 319.9C206.7 319.9 202 313.4 204 307.1L221.4 251.4L188.9 251.4z"/></svg>