<svg xmlns="http://www.w3.org/2000/svg" viewBox="0 0 640 640"><!--! Font Awesome Pro 7.2.0 by @fontawesome - https://fontawesome.com License - https://fontawesome.com/license (Commercial License) Copyright 2026 Fonticons, Inc. --><path fill="currentColor" d="M112 120C112 106.7 101.3 96 88 96C74.7 96 64 106.7 64 120L64 464C64 508.2 99.8 544 144 544L552 544C565.3 544 576 533.3 576 520C576 506.7 565.3 496 552 496L144 496C126.3 496 112 481.7 112 464L112 120zM448 152C448 138.7 437.3 128 424 128C410.7 128 400 138.7 400 152L400 232C400 245.3 410.7 256 424 256C437.3 256 448 245.3 448 232L448 152zM560 152C560 138.7 549.3 128 536 128C522.7 128 512 138.7 512 152L512 392C512 405.3 522.7 416 536 416C549.3 416 560 405.3 560 392L560 152zM336 216C336 202.7 325.3 192 312 192C298.7 192 288 202.7 288 216L288 296C288 309.3 298.7 320 312 320C325.3 320 336 309.3 336 296L336 216zM224 312C224 298.7 213.3 288 200 288C186.7 288 176 298.7 176 312L176 392C176 405.3 186.7 416 200 416C213.3 416 224 405.3 224 392L224 312z"/></svg>