<svg xmlns="http://www.w3.org/2000/svg" viewBox="0 0 640 640"><!--! Font Awesome Pro 7.2.0 by @fontawesome - https://fontawesome.com License - https://fontawesome.com/license (Commercial License) Copyright 2026 Fonticons, Inc. --><path fill="currentColor" d="M480 144C488.8 144 496 151.2 496 160C496 168.8 488.8 176 480 176L160 176C151.2 176 144 168.8 144 160C144 151.2 151.2 144 160 144L480 144zM160 96C124.7 96 96 124.7 96 160C96 195.3 124.7 224 160 224L296 224L296 240C292.4 243.6 279.7 256.3 257.9 278.1L248 288L192 288C143.4 288 104 327.4 104 376L104 416L96 416C78.3 416 64 430.3 64 448L64 512C64 529.7 78.3 544 96 544L160 544C177.7 544 192 529.7 192 512L192 448C192 430.3 177.7 416 160 416L152 416L152 376C152 353.9 169.9 336 192 336L248 336C251.6 339.6 264.3 352.3 286.1 374.1L296 384L296 416L288 416C270.3 416 256 430.3 256 448L256 512C256 529.7 270.3 544 288 544L352 544C369.7 544 384 529.7 384 512L384 448C384 430.3 369.7 416 352 416L344 416L344 384L392 336L448 336C470.1 336 488 353.9 488 376L488 416L480 416C462.3 416 448 430.3 448 448L448 512C448 529.7 462.3 544 480 544L544 544C561.7 544 576 529.7 576 512L576 448C576 430.3 561.7 416 544 416L536 416L536 376C536 327.4 496.6 288 448 288L392 288C388.4 284.4 375.7 271.7 353.9 249.9L344 240L344 224L480 224C515.3 224 544 195.3 544 160C544 124.7 515.3 96 480 96L160 96zM112 496L112 464L144 464L144 496L112 496zM304 496L304 464L336 464L336 496L304 496zM496 496L496 464L528 464L528 496L496 496zM291.9 312L320 283.9L348.1 312L320 340.1L291.9 312z"/></svg>