<svg xmlns="http://www.w3.org/2000/svg" viewBox="0 0 640 640"><!--! Font Awesome Pro 7.2.0 by @fontawesome - https://fontawesome.com License - https://fontawesome.com/license (Commercial License) Copyright 2026 Fonticons, Inc. --><path fill="currentColor" d="M480 496C488.8 496 496 488.8 496 480L496 160C496 151.2 488.8 144 480 144L160 144C151.2 144 144 151.2 144 160L144 480C144 488.8 151.2 496 160 496L480 496zM544 480C544 515.3 515.3 544 480 544L160 544C124.7 544 96 515.3 96 480L96 160C96 124.7 124.7 96 160 96L480 96C515.3 96 544 124.7 544 160L544 480zM303 409L199 305C189.6 295.6 189.6 280.4 199 271.1C208.4 261.8 223.6 261.7 232.9 271.1L319.9 358.1L406.9 271.1C416.3 261.7 431.5 261.7 440.8 271.1C450.1 280.5 450.2 295.7 440.8 305L337 409C327.6 418.4 312.4 418.4 303.1 409z"/></svg>