<svg xmlns="http://www.w3.org/2000/svg" viewBox="0 0 640 640"><!--! Font Awesome Pro 7.2.0 by @fontawesome - https://fontawesome.com License - https://fontawesome.com/license (Commercial License) Copyright 2026 Fonticons, Inc. --><path fill="currentColor" d="M320 112C434.9 112 528 205.1 528 320C528 434.9 434.9 528 320 528C205.1 528 112 434.9 112 320C112 205.1 205.1 112 320 112zM320 576C461.4 576 576 461.4 576 320C576 178.6 461.4 64 320 64C178.6 64 64 178.6 64 320C64 461.4 178.6 576 320 576zM336.4 220.7L307.6 288L248 288C234.7 288 224 298.7 224 312C224 325.3 234.7 336 248 336L287 336L259.4 400.4C257.4 405 252.9 408 247.8 408L224 408C210.7 408 200 418.7 200 432C200 445.3 210.7 456 224 456L247.9 456C272.1 456 294 441.6 303.6 419.3L339.3 336L392 336C405.3 336 416 325.3 416 312C416 298.7 405.3 288 392 288L359.8 288L380.5 239.6C382.5 235 387 232 392.1 232L416 232C429.3 232 440 221.3 440 208C440 194.7 429.3 184 416 184L392.1 184C367.9 184 346 198.4 336.4 220.7z"/></svg>