<svg xmlns="http://www.w3.org/2000/svg" viewBox="0 0 640 640"><!--! Font Awesome Pro 7.2.0 by @fontawesome - https://fontawesome.com License - https://fontawesome.com/license (Commercial License) Copyright 2026 Fonticons, Inc. --><path fill="currentColor" d="M467.1 467.1C385.9 548.3 254.1 548.3 172.9 467.1C91.7 385.9 91.7 254.1 172.9 172.9C254.1 91.7 385.9 91.7 467.1 172.9C548.3 254.1 548.3 385.9 467.1 467.1zM139 139C72.7 203.3 46.3 298.4 69.8 387.7C93.2 477 163 546.8 252.3 570.2C341.6 593.7 436.7 567.3 501 501C567.3 436.7 593.7 341.6 570.2 252.3C546.8 163 477 93.2 387.7 69.8C298.4 46.3 203.3 72.7 139 139zM460.9 375.1L462.3 372.6C478.9 343.5 476.3 301.9 443.6 280.6C368.6 231.8 271.3 231.8 196.3 280.6C163.6 301.9 161 343.5 177.6 372.6L179 375.1C184.1 384 194.9 387.7 204.3 383.8L253 363.7C261.3 360.3 266.3 351.8 265.5 342.9L263.6 323.5C300.1 311.5 339.9 312.1 376 325.4L374.4 343C373.5 351.9 378.6 360.4 386.9 363.8L435.6 383.9C445 387.8 455.9 384.1 460.9 375.2z"/></svg>