<svg xmlns="http://www.w3.org/2000/svg" viewBox="0 0 640 640"><!--! Font Awesome Pro 7.2.0 by @fontawesome - https://fontawesome.com License - https://fontawesome.com/license (Commercial License) Copyright 2026 Fonticons, Inc. --><path fill="currentColor" d="M320 112C434.9 112 528 205.1 528 320C528 434.9 434.9 528 320 528C205.1 528 112 434.9 112 320C112 205.1 205.1 112 320 112zM320 576C461.4 576 576 461.4 576 320C576 178.6 461.4 64 320 64C178.6 64 64 178.6 64 320C64 461.4 178.6 576 320 576zM304 184L304 193.1C245.3 200.9 200 251.2 200 312L200 408C200 421.3 210.7 432 224 432C237.3 432 248 421.3 248 408L248 312C248 277.7 271.9 249.1 304 241.8L304 416C304 424.8 311.2 432 320 432C328.8 432 336 424.8 336 416L336 241.8C368.1 249.1 392 277.8 392 312L392 408C392 421.3 402.7 432 416 432C429.3 432 440 421.3 440 408L440 312C440 251.2 394.7 200.9 336 193.1L336 184C336 175.2 328.8 168 320 168C311.2 168 304 175.2 304 184z"/></svg>