<svg xmlns="http://www.w3.org/2000/svg" viewBox="0 0 640 640"><!--! Font Awesome Pro 7.2.0 by @fontawesome - https://fontawesome.com License - https://fontawesome.com/license (Commercial License) Copyright 2026 Fonticons, Inc. --><path fill="currentColor" d="M288 112C386.4 112 468.8 180.3 490.5 272.1C492.3 272 494.2 272 496 272C511.3 272 526.2 273.8 540.4 277.2C520 156.2 414.8 64 288 64C146.6 64 32 178.6 32 320C32 461.4 146.6 576 288 576C304.7 576 321 574.4 336.8 571.4C327.5 557.6 319.9 542.5 314.4 526.4C305.8 527.5 297 528.1 288.1 528.1C173.2 528.1 80.1 435 80.1 320.1C80.1 205.2 173.1 112 288 112zM448.6 269.6C406.1 231.3 349.7 208 288 208C226.3 208 169.9 231.3 127.4 269.6C117.6 278.5 116.8 293.6 125.6 303.5C134.4 313.4 149.6 314.1 159.5 305.3C193.5 274.6 238.5 256 288 256C331.8 256 372.1 270.6 404.3 295.3C419.7 286.9 436.3 280.6 453.9 276.7C452.6 274.1 450.8 271.8 448.5 269.7zM288 304C252.9 304 220.9 317.3 196.8 339.1C187 348 186.2 363.2 195.1 373C204 382.8 219.2 383.6 229 374.7C244.6 360.6 265.3 352 288 352C304.1 352 319.2 356.3 332.1 363.9C340.6 350.1 350.7 337.4 362.3 326.2C340.9 312.2 315.4 304.1 287.9 304.1zM288 400C270.3 400 256 414.3 256 432C256 449.7 270.3 464 288 464C293.8 464 299.3 462.4 304 459.7C304.4 442.6 307 426.1 311.5 410.4C305.7 404 297.2 400 287.9 400zM640 464C640 384.5 575.5 320 496 320C416.5 320 352 384.5 352 464C352 543.5 416.5 608 496 608C575.5 608 640 543.5 640 464zM496 416C468.8 416 444.1 426.2 425.4 443.1C418.8 449 408.7 448.5 402.8 441.9C396.9 435.3 397.4 425.2 404 419.3C428.4 397.4 460.6 384 496 384C531.4 384 563.7 397.4 588 419.3C594.6 425.2 595.1 435.3 589.2 441.9C583.3 448.5 573.2 449 566.6 443.1C547.9 426.2 523.2 416 496 416zM476 528C476 517 485 508 496 508C507 508 516 517 516 528C516 539 507 548 496 548C485 548 476 539 476 528zM464.5 492.1C457.9 498 447.8 497.5 441.9 491C436 484.5 436.5 474.3 443 468.4C457 455.7 475.6 448 496 448C516.4 448 535 455.7 549 468.4C555.6 474.3 556.1 484.4 550.1 491C544.1 497.6 534.1 498.1 527.5 492.1C519.2 484.6 508.1 480 496 480C483.9 480 472.8 484.6 464.5 492.1z"/></svg>