<svg xmlns="http://www.w3.org/2000/svg" viewBox="0 0 640 640"><!--! Font Awesome Pro 7.2.0 by @fontawesome - https://fontawesome.com License - https://fontawesome.com/license (Commercial License) Copyright 2026 Fonticons, Inc. --><path fill="currentColor" d="M320 112C434.9 112 528 205.1 528 320C528 434.9 434.9 528 320 528C205.1 528 112 434.9 112 320C112 205.1 205.1 112 320 112zM320 576C461.4 576 576 461.4 576 320C576 178.6 461.4 64 320 64C178.6 64 64 178.6 64 320C64 461.4 178.6 576 320 576zM200 208C186.7 208 176 218.7 176 232L176 408C176 421.3 186.7 432 200 432L273.6 432C286.9 432 297.6 421.3 297.6 408C297.6 394.7 286.9 384 273.6 384L224 384L224 347.2L264 347.2C277.3 347.2 288 336.5 288 323.2C288 309.9 277.3 299.2 264 299.2L224 299.2L224 256L272 256C285.3 256 296 245.3 296 232C296 218.7 285.3 208 272 208L200 208zM352 208C338.7 208 328 218.7 328 232C328 245.3 338.7 256 352 256L401.2 256L330.6 397.3C326.9 404.7 327.3 413.6 331.6 420.7C335.9 427.8 343.7 432 352 432L440 432C453.3 432 464 421.3 464 408C464 394.7 453.3 384 440 384L390.8 384L461.4 242.7C465.1 235.3 464.7 226.4 460.4 219.3C456.1 212.2 448.3 208 440 208L352 208z"/></svg>