<svg xmlns="http://www.w3.org/2000/svg" viewBox="0 0 640 640"><!--! Font Awesome Pro 7.2.0 by @fontawesome - https://fontawesome.com License - https://fontawesome.com/license (Commercial License) Copyright 2026 Fonticons, Inc. --><path fill="currentColor" d="M320 112C434.9 112 528 205.1 528 320C528 434.9 434.9 528 320 528C205.1 528 112 434.9 112 320C112 205.1 205.1 112 320 112zM320 576C461.4 576 576 461.4 576 320C576 178.6 461.4 64 320 64C178.6 64 64 178.6 64 320C64 461.4 178.6 576 320 576zM248 320C248 280.2 280.2 248 320 248C338.5 248 355.2 254.9 368 266.3C377.9 275.1 393 274.3 401.9 264.4C410.8 254.5 409.9 239.4 400 230.5C378.8 211.5 350.7 199.9 320 199.9C253.7 199.9 200 253.6 200 319.9C200 386.2 253.7 439.9 320 439.9C382.9 439.9 434.5 391.5 439.6 329.9C440.2 323.2 437.9 316.6 433.3 311.7C428.7 306.8 422.4 304 415.6 304L344 304C330.7 304 320 314.7 320 328C320 341.3 330.7 352 344 352L384.5 352C372.7 375.7 348.2 392 320 392C280.2 392 248 359.8 248 320z"/></svg>