<svg xmlns="http://www.w3.org/2000/svg" viewBox="0 0 640 640"><!--! Font Awesome Pro 7.2.0 by @fontawesome - https://fontawesome.com License - https://fontawesome.com/license (Commercial License) Copyright 2026 Fonticons, Inc. --><path fill="currentColor" d="M306.7 432C309.5 415.2 314.5 399.1 321.5 384L320.1 384L256.1 384C202.6 384 156.7 416.9 137.6 463.6C102 426.3 80.1 375.7 80.1 320C80.1 205.1 173.2 112 288.1 112C386.5 112 468.9 180.3 490.6 272.1C492.4 272 494.3 272 496.1 272C511.4 272 526.3 273.8 540.5 277.2C520.1 156.2 414.9 64 288.1 64C146.7 64 32.1 178.6 32.1 320C32.1 461.4 146.6 576 288 576C304.7 576 321 574.4 336.8 571.4C327.5 557.6 319.9 542.5 314.4 526.4C305.8 527.5 297 528.1 288.1 528.1C247.5 528.1 209.7 516.5 177.6 496.4C184.9 459.7 217.3 432.1 256.1 432.1L306.8 432.1zM288 304C265.9 304 248 286.1 248 264C248 241.9 265.9 224 288 224C310.1 224 328 241.9 328 264C328 286.1 310.1 304 288 304zM200 264C200 312.6 239.4 352 288 352C336.6 352 376 312.6 376 264C376 215.4 336.6 176 288 176C239.4 176 200 215.4 200 264zM640 464C640 384.5 575.5 320 496 320C416.5 320 352 384.5 352 464C352 543.5 416.5 608 496 608C575.5 608 640 543.5 640 464zM576 464C576 472.8 568.8 480 560 480L432 480C423.2 480 416 472.8 416 464C416 455.2 423.2 448 432 448L560 448C568.8 448 576 455.2 576 464z"/></svg>