<svg xmlns="http://www.w3.org/2000/svg" viewBox="0 0 640 640"><!--! Font Awesome Pro 7.2.0 by @fontawesome - https://fontawesome.com License - https://fontawesome.com/license (Commercial License) Copyright 2026 Fonticons, Inc. --><path fill="currentColor" d="M528 320C528 205.1 434.9 112 320 112C205.1 112 112 205.1 112 320C112 434.9 205.1 528 320 528C434.9 528 528 434.9 528 320zM64 320C64 178.6 178.6 64 320 64C461.4 64 576 178.6 576 320C576 461.4 461.4 576 320 576C178.6 576 64 461.4 64 320zM337 167L417 247C423.9 253.9 425.9 264.2 422.2 273.2C418.5 282.2 409.7 288 400 288L240 288C230.3 288 221.5 282.2 217.8 273.2C214.1 264.2 216.1 253.9 223 247L303 167C312.4 157.6 327.6 157.6 336.9 167zM417 393L337 473C327.6 482.4 312.4 482.4 303.1 473L223.1 393C213.7 383.6 213.7 368.4 223.1 359.1C232.5 349.8 247.7 349.7 257 359.1L320 422.1L383 359.1C392.4 349.7 407.6 349.7 416.9 359.1C426.2 368.5 426.3 383.7 416.9 393z"/></svg>