<svg xmlns="http://www.w3.org/2000/svg" viewBox="0 0 640 640"><!--! Font Awesome Pro 7.2.0 by @fontawesome - https://fontawesome.com License - https://fontawesome.com/license (Commercial License) Copyright 2026 Fonticons, Inc. --><path fill="currentColor" d="M320 112C434.9 112 528 205.1 528 320C528 434.9 434.9 528 320 528C205.1 528 112 434.9 112 320C112 205.1 205.1 112 320 112zM320 576C461.4 576 576 461.4 576 320C576 178.6 461.4 64 320 64C178.6 64 64 178.6 64 320C64 461.4 178.6 576 320 576zM320 224C313.3 224 307 226.8 302.4 231.7L198.4 343.7C191.9 350.7 190.2 360.9 194 369.6C197.8 378.3 206.5 384 216 384L424 384C433.5 384 442.2 378.3 446 369.6C449.8 360.9 448.1 350.7 441.6 343.7L337.6 231.7C333.1 226.8 326.7 224 320 224z"/></svg>