<svg xmlns="http://www.w3.org/2000/svg" viewBox="0 0 640 640"><!--! Font Awesome Pro 7.2.0 by @fontawesome - https://fontawesome.com License - https://fontawesome.com/license (Commercial License) Copyright 2026 Fonticons, Inc. --><path fill="currentColor" d="M320 112C434.9 112 528 205.1 528 320C528 434.9 434.9 528 320 528C205.1 528 112 434.9 112 320C112 205.1 205.1 112 320 112zM320 576C461.4 576 576 461.4 576 320C576 178.6 461.4 64 320 64C178.6 64 64 178.6 64 320C64 461.4 178.6 576 320 576zM240 276C240 290.7 244.6 304.2 252.5 315.3C239.8 327.6 232 344.9 232 364C232 401.6 262.4 432 300 432L340 432C377.6 432 408 401.6 408 364C408 344.9 400.1 327.7 387.5 315.3C395.4 304.2 400 290.6 400 276C400 238.4 369.6 208 332 208L308 208C270.4 208 240 238.4 240 276zM352 276C352 287 343 296 332 296L308 296C297 296 288 287 288 276C288 265 297 256 308 256L332 256C343 256 352 265 352 276zM300 344L340 344C351 344 360 353 360 364C360 375 351 384 340 384L300 384C289 384 280 375 280 364C280 353 289 344 300 344z"/></svg>