<svg xmlns="http://www.w3.org/2000/svg" viewBox="0 0 640 640"><!--! Font Awesome Pro 7.2.0 by @fontawesome - https://fontawesome.com License - https://fontawesome.com/license (Commercial License) Copyright 2026 Fonticons, Inc. --><path fill="currentColor" d="M320 112C434.9 112 528 205.1 528 320C528 434.9 434.9 528 320 528C205.1 528 112 434.9 112 320C112 205.1 205.1 112 320 112zM320 576C461.4 576 576 461.4 576 320C576 178.6 461.4 64 320 64C178.6 64 64 178.6 64 320C64 461.4 178.6 576 320 576zM320 208C310.9 208 302.6 213.1 298.5 221.3L210.5 397.3C204.6 409.2 209.4 423.6 221.2 429.5C233 435.4 247.5 430.6 253.4 418.8L262.8 400.1L377.1 400.1L386.5 418.8C392.4 430.7 406.8 435.5 418.7 429.5C430.6 423.5 435.4 409.2 429.4 397.3L341.4 221.3C337.3 213.2 329 208 319.9 208zM320 285.7L353.2 352L286.9 352L320.1 285.7z"/></svg>