<svg xmlns="http://www.w3.org/2000/svg" viewBox="0 0 640 640"><!--! Font Awesome Pro 7.2.0 by @fontawesome - https://fontawesome.com License - https://fontawesome.com/license (Commercial License) Copyright 2026 Fonticons, Inc. --><path fill="currentColor" d="M512 128L441.9 128L440.9 129L313.9 256L406 256L407 255L531.1 130.9C525.1 129 518.7 128 512 128zM246.1 256L247.1 255L374.1 128L282 128L281 129L154 256L246.1 256zM112 256L112 230.1L214.1 128L128 128C92.7 128 64 156.7 64 192L64 448C64 483.3 92.7 512 128 512L512 512C547.3 512 576 483.3 576 448L576 192C576 181 573.2 170.6 568.3 161.6L473.9 256L528 256L528 448C528 456.8 520.8 464 512 464L128 464C119.2 464 112 456.8 112 448L112 256z"/></svg>