<svg xmlns="http://www.w3.org/2000/svg" viewBox="0 0 640 640"><!--! Font Awesome Pro 7.2.0 by @fontawesome - https://fontawesome.com License - https://fontawesome.com/license (Commercial License) Copyright 2026 Fonticons, Inc. --><path fill="currentColor" d="M112 320C112 434.9 205.1 528 320 528C434.9 528 528 434.9 528 320C528 205.1 434.9 112 320 112C205.1 112 112 205.1 112 320zM576 320C576 461.4 461.4 576 320 576C178.6 576 64 461.4 64 320C64 178.6 178.6 64 320 64C461.4 64 576 178.6 576 320zM296 456L296 364.8L237.3 403.9C226.3 411.3 211.4 408.3 204 397.2C196.6 386.1 199.6 371.3 210.7 363.9L306.7 299.9C314.1 295 323.5 294.5 331.3 298.7C339.1 302.9 344 311.1 344 320L344 456C344 469.3 333.3 480 320 480C306.7 480 296 469.3 296 456z"/></svg>