<svg xmlns="http://www.w3.org/2000/svg" viewBox="0 0 640 640"><!--! Font Awesome Pro 7.2.0 by @fontawesome - https://fontawesome.com License - https://fontawesome.com/license (Commercial License) Copyright 2026 Fonticons, Inc. --><path fill="currentColor" d="M272 96C319.1 96 361.4 116.4 390.7 148.7C401.3 145.6 412.5 144 424 144C490.3 144 544 197.7 544 264C544 277.2 541.9 289.9 537.9 301.8C579.5 322.9 608 366.1 608 416C608 486.7 550.7 544 480 544L176 544C96.5 544 32 479.5 32 400C32 343.2 64.9 294.1 112.7 270.7C112.3 265.9 112 261 112 256C112 167.6 183.6 96 272 96zM272 144C210.1 144 160 194.1 160 256C160 264.4 160.9 272.6 162.7 280.5C165.4 292.6 158.4 304.8 146.6 308.6C107.9 321 80 357.3 80 400C80 453 123 496 176 496L480 496C524.2 496 560 460.2 560 416C560 378.6 534.3 347.1 499.5 338.4C492 336.5 485.9 331.2 483.1 324.1C480.3 317 480.9 308.9 485 302.4C492 291.3 496 278.2 496 264.1C496 224.3 463.8 192.1 424 192.1C412.9 192.1 402.5 194.6 393.2 199C382.7 204 370.1 200.7 363.4 191.2C343.1 162.6 309.7 144 272.1 144zM320 464C302.3 464 288 449.7 288 432C288 414.3 302.3 400 320 400C337.7 400 352 414.3 352 432C352 449.7 337.7 464 320 464zM320 224C338.3 224 352.8 239.7 351.3 258L344 346C343 358.4 332.6 368 320.1 368C307.6 368 297.2 358.4 296.2 346L288.9 258C287.4 239.7 301.8 224 320.1 224z"/></svg>