<svg xmlns="http://www.w3.org/2000/svg" viewBox="0 0 640 640"><!--! Font Awesome Pro 7.2.0 by @fontawesome - https://fontawesome.com License - https://fontawesome.com/license (Commercial License) Copyright 2026 Fonticons, Inc. --><path fill="currentColor" d="M73 39C63.6 29.7 48.4 29.7 39 39C29.6 48.3 29.7 63.6 39 73L567 601C576.4 610.4 591.6 610.4 600.9 601C610.2 591.6 610.3 576.4 600.9 567.1L554.2 520.4C586.7 497.2 608 459.1 608 416.1C608 366.2 579.5 323.1 537.9 301.9C541.9 290 544 277.3 544 264.1C544 197.8 490.3 144.1 424 144.1C412.5 144.1 401.3 145.7 390.7 148.8C361.4 116.5 319.1 96.1 272 96.1C232.4 96.1 196.1 110.5 168.2 134.3L73 39zM202.3 168.3C221.4 153.1 245.7 144 272 144C309.7 144 343 162.6 363.3 191.1C370 200.6 382.6 203.9 393.1 198.9C402.4 194.5 412.8 192 423.9 192C463.7 192 495.9 224.2 495.9 264C495.9 278.1 491.9 291.2 484.9 302.3C480.8 308.8 480.1 316.9 482.9 324C485.7 331.1 491.9 336.5 499.4 338.3C534.2 347 559.9 378.5 559.9 415.9C559.9 445.7 543.6 471.7 519.4 485.5L202.3 168.3zM394.2 496L176 496C123 496 80 453 80 400C80 357.3 107.9 321 146.6 308.6C158.4 304.8 165.4 292.6 162.7 280.5C161.4 274.5 160.5 268.3 160.2 262L116.5 218.3C113.6 230.4 112 243 112 256C112 260.9 112.2 265.8 112.7 270.6C64.9 294 32 343.1 32 400C32 479.5 96.5 544 176 544L442.2 544L394.2 496z"/></svg>