<svg xmlns="http://www.w3.org/2000/svg" viewBox="0 0 640 640"><!--! Font Awesome Pro 7.2.0 by @fontawesome - https://fontawesome.com License - https://fontawesome.com/license (Commercial License) Copyright 2026 Fonticons, Inc. --><path fill="currentColor" d="M176 184C176 144.2 208.2 112 248 112C276.9 112 301.9 129.1 313.4 153.8C316.7 160.9 323.3 166 331 167.4C338.7 168.8 346.7 166.2 352.2 160.6C362.4 150.3 376.4 144 392 144C422.9 144 448 169.1 448 200C448 213.3 458.7 224 472 224C502.9 224 528 249.1 528 280C528 310.9 502.9 336 472 336L168 336C137.1 336 112 310.9 112 280C112 252.6 131.8 229.7 157.9 224.9C170.9 222.5 179.6 210 177.2 197C176.4 192.8 176 188.5 176 184zM248 64C181.7 64 128 117.7 128 184C90.4 199.7 64 236.7 64 280C64 337.4 110.6 384 168 384L472 384C529.4 384 576 337.4 576 280C576 230 540.7 188.3 493.7 178.3C483.7 131.3 442 96 392 96C373.7 96 356.6 100.7 341.7 109C319.7 81.6 286 64 248 64zM240 432C226.7 432 216 442.7 216 456L216 472L200 472C186.7 472 176 482.7 176 496C176 509.3 186.7 520 200 520L216 520L216 536C216 549.3 226.7 560 240 560C253.3 560 264 549.3 264 536L264 520L280 520C293.3 520 304 509.3 304 496C304 482.7 293.3 472 280 472L264 472L264 456C264 442.7 253.3 432 240 432zM512 456C512 442.7 501.3 432 488 432C474.7 432 464 442.7 464 456L464 472L448 472C434.7 472 424 482.7 424 496C424 509.3 434.7 520 448 520L464 520L464 536C464 549.3 474.7 560 488 560C501.3 560 512 549.3 512 536L512 520L528 520C541.3 520 552 509.3 552 496C552 482.7 541.3 472 528 472L512 472L512 456zM150.8 463.6C155 451 148.2 437.4 135.6 433.2C123 429 109.4 435.8 105.2 448.4L73.2 544.4C69 557 75.8 570.6 88.4 574.8C101 579 114.6 572.2 118.8 559.6L150.8 463.6zM398.8 463.6C403 451 396.2 437.4 383.6 433.2C371 429 357.4 435.8 353.2 448.4L321.2 544.4C317 557 323.8 570.6 336.4 574.8C349 579 362.6 572.2 366.8 559.6L398.8 463.6z"/></svg>