<svg xmlns="http://www.w3.org/2000/svg" viewBox="0 0 640 640"><!--! Font Awesome Pro 7.2.0 by @fontawesome - https://fontawesome.com License - https://fontawesome.com/license (Commercial License) Copyright 2026 Fonticons, Inc. --><path fill="currentColor" d="M241 169C250.4 159.6 250.4 144.4 241 135.1C231.6 125.8 216.4 125.7 207.1 135.1L39 303C29.6 312.4 29.6 327.6 39 336.9L207 505C216.4 514.4 231.6 514.4 240.9 505C250.2 495.6 250.3 480.4 240.9 471.1L89.9 320L241 169zM399 169L550 320L399 471C389.6 480.4 389.6 495.6 399 504.9C408.4 514.2 423.6 514.3 432.9 504.9L601 337C610.4 327.6 610.4 312.4 601 303.1L433 135C423.6 125.6 408.4 125.6 399.1 135C389.8 144.4 389.7 159.6 399.1 168.9z"/></svg>