<svg xmlns="http://www.w3.org/2000/svg" viewBox="0 0 640 640"><!--! Font Awesome Pro 7.2.0 by @fontawesome - https://fontawesome.com License - https://fontawesome.com/license (Commercial License) Copyright 2026 Fonticons, Inc. --><path fill="currentColor" d="M176 112C193.7 112 208 126.3 208 144C208 161.7 193.7 176 176 176C158.3 176 144 161.7 144 144C144 126.3 158.3 112 176 112zM200.7 220.1C232.8 209.7 256 179.6 256 144C256 99.8 220.2 64 176 64C131.8 64 96 99.8 96 144C96 179.8 119.5 210.1 152 220.3L152 419.6C119.5 429.8 96 460.1 96 495.9C96 540.1 131.8 575.9 176 575.9C220.2 575.9 256 540.1 256 495.9C256 460.1 232.5 429.8 200 419.6L200 318.8C227.2 344.3 263.8 359.9 304 359.9L387.7 359.9C397.9 392.4 428.2 415.9 464 415.9C508.2 415.9 544 380.1 544 335.9C544 291.7 508.2 255.9 464 255.9C428.2 255.9 397.9 279.4 387.7 311.9L304 312C250.7 312 206.7 271.8 200.7 220.1zM176 464C193.7 464 208 478.3 208 496C208 513.7 193.7 528 176 528C158.3 528 144 513.7 144 496C144 478.3 158.3 464 176 464zM432 336C432 318.3 446.3 304 464 304C481.7 304 496 318.3 496 336C496 353.7 481.7 368 464 368C446.3 368 432 353.7 432 336z"/></svg>