<svg xmlns="http://www.w3.org/2000/svg" viewBox="0 0 640 640"><!--! Font Awesome Pro 7.2.0 by @fontawesome - https://fontawesome.com License - https://fontawesome.com/license (Commercial License) Copyright 2026 Fonticons, Inc. --><path fill="currentColor" d="M320 432C381.9 432 432 381.9 432 320C432 258.1 381.9 208 320 208C258.1 208 208 258.1 208 320C208 381.9 258.1 432 320 432zM478.2 344C466.6 421 400.2 480 320 480C239.8 480 173.4 421 161.8 344L56 344C42.7 344 32 333.3 32 320C32 306.7 42.7 296 56 296L161.8 296C173.4 219 239.8 160 320 160C400.2 160 466.6 219 478.2 296L584 296C597.3 296 608 306.7 608 320C608 333.3 597.3 344 584 344L478.2 344z"/></svg>