<svg xmlns="http://www.w3.org/2000/svg" viewBox="0 0 640 640"><!--! Font Awesome Pro 7.2.0 by @fontawesome - https://fontawesome.com License - https://fontawesome.com/license (Commercial License) Copyright 2026 Fonticons, Inc. --><path fill="currentColor" d="M561.4 217.4L527.4 194.7C501.4 177.4 471 167.8 439.7 167.3C410.4 166.8 382.3 155.1 361.3 134.6L345.9 119.6C349.3 113 353.5 107.2 358.4 102.3C389.8 70.9 460.1 68.3 516.8 124.9C546.4 154.5 559.8 187.8 561.4 217.3zM550.8 268C547.6 273.8 543.8 278.9 539.4 283.3C508 314.7 437.7 317.3 381 260.7C354.5 234.2 340.9 204.6 337.2 177.5C365.7 201.2 401.5 214.6 438.7 215.3C460.8 215.7 482.3 222.4 500.7 234.7L550.7 268.1zM573.3 317.3C629.6 261 619.5 159.7 550.7 91C481.9 22.3 380.7 12.1 324.4 68.4C268.1 124.7 278.3 225.9 347 294.7C415.7 363.5 517 373.6 573.3 317.3zM192.1 558C186.7 559.3 181.4 560 176.1 560C131.6 560 80.1 512.1 80.1 432C80.1 391 93.6 358.5 112.7 336.5C115.8 377.1 131.5 415.9 157.7 447.4C180 474.1 192.1 507.8 192.1 542.5L192.1 558zM239.5 527.5C236.4 486.9 220.7 448.1 194.5 416.6C172.2 389.9 160.1 356.2 160.1 321.5L160.1 306C165.5 304.7 170.8 304 176.1 304C220.6 304 272.1 351.9 272.1 432C272.1 473 258.6 505.5 239.5 527.5zM320.1 432C320.1 334.8 255.6 256 176.1 256C96.6 256 32.1 334.8 32.1 432C32.1 529.2 96.6 608 176.1 608C255.6 608 320.1 529.2 320.1 432z"/></svg>