<svg xmlns="http://www.w3.org/2000/svg" viewBox="0 0 640 640"><!--! Font Awesome Pro 7.2.0 by @fontawesome - https://fontawesome.com License - https://fontawesome.com/license (Commercial License) Copyright 2026 Fonticons, Inc. --><path fill="currentColor" d="M83.9 448.9C51.3 408.6 32 358.4 32 304C32 171.5 146.6 64 288 64C425 64 536.9 164.9 543.7 291.9C529 281.7 511.8 275 493.2 272.8C477.2 183.5 393.7 112 288 112C170.2 112 80 200.8 80 304C80 346.8 95.1 386.4 121.2 418.7C133.4 433.8 135.3 454.8 126 471.9L108 505L166.5 479.9C178.3 474.8 191.7 474.7 203.6 479.6C227.8 489.5 254.5 495.4 282.8 496C275.5 511.3 272 527.5 272 543.6C241.4 541.8 212.2 535 185.4 524L69 573.9C65.3 575.5 61.5 576 57.5 576C43.4 576 32 564.6 32 550.5C32 546.2 33.1 542 35.1 538.3L83.9 448.9zM328.6 512C342 488.8 367.7 477.2 392.6 480.6L427.2 420.1C420.2 409.8 416 397.4 416 384C416 348.7 444.7 320 480 320C515.3 320 544 348.7 544 384C544 419.3 515.3 448 480 448C475.6 448 471.4 447.6 467.2 446.7L434.2 504.4C438 509.2 441 514.4 443.2 520L516.6 520C518.8 514.4 521.9 509.2 525.6 504.4L509.1 475.5C524.8 470.5 538.7 461.6 549.7 449.9L567.3 480.6C592.3 477.2 617.9 488.9 631.3 512C649 542.6 638.5 581.7 607.9 599.4C577.3 617.1 538.2 606.6 520.5 576C519 573.4 517.7 570.7 516.6 568L443.3 568C442.2 570.7 440.9 573.4 439.4 576C421.7 606.6 382.6 617.1 352 599.4C321.4 581.7 310.9 542.6 328.6 512z"/></svg>