<svg xmlns="http://www.w3.org/2000/svg" viewBox="0 0 640 640"><!--! Font Awesome Pro 7.2.0 by @fontawesome - https://fontawesome.com License - https://fontawesome.com/license (Commercial License) Copyright 2026 Fonticons, Inc. --><path fill="currentColor" d="M360.1 320L508.8 320C528.3 320 544.1 304.2 544.1 284.7C544.1 275.3 540.4 266.4 533.8 259.7L506 232L560.1 177.9C578.8 159.2 578.8 128.8 560.1 110L530 80C511.3 61.3 480.9 61.3 462.1 80L408 134.1L380.3 106.4C373.7 99.8 364.7 96.1 355.3 96.1C335.8 96.1 320 111.9 320 131.4L320 280.1C320 302.2 337.9 320.1 360 320.1zM455.1 249L478.1 272L368 272L368 161.9L391 184.9C400.4 194.3 415.6 194.3 424.9 184.9L495.9 113.9L526 144L455 215C445.6 224.4 445.6 239.6 455 248.9zM131.4 320C111.9 320 96.1 335.8 96.1 355.3C96.1 364.7 99.8 373.6 106.4 380.3L134.1 408L80.1 462.1C61.4 480.8 61.4 511.2 80.1 530L110.1 560C128.8 578.7 159.2 578.7 178 560L232.1 505.9L259.8 533.6C266.4 540.2 275.4 543.9 284.8 543.9C304.3 543.9 320.1 528.1 320.1 508.6L320.1 359.9C320.1 337.8 302.2 319.9 280.1 319.9L131.4 320zM185 391L162 368L272.1 368L272.1 478.1L249.1 455.1C239.7 445.7 224.5 445.7 215.2 455.1L144.2 526.1L114.1 496L185.1 425C194.5 415.6 194.5 400.4 185.1 391.1z"/></svg>