<svg xmlns="http://www.w3.org/2000/svg" viewBox="0 0 640 640"><!--! Font Awesome Pro 7.2.0 by @fontawesome - https://fontawesome.com License - https://fontawesome.com/license (Commercial License) Copyright 2026 Fonticons, Inc. --><path fill="currentColor" d="M359.5 71C368.9 61.6 384.1 61.6 393.4 71L569.4 247C578.8 256.4 578.8 271.6 569.4 280.9C560 290.2 544.8 290.3 535.5 280.9L520.5 265.9L364.2 422.2C347.7 438.7 325.3 448 302 448L243 448C232.4 448 222.2 452.2 214.7 459.7C147.6 526.8 111.2 563.2 105.4 569C96 578.4 80.8 578.4 71.5 569C62.2 559.6 62.1 544.4 71.5 535.1L95.5 511.1L95.5 511.1L180.8 425.8C188.3 418.3 192.5 408.1 192.5 397.5L192.5 338.5C192.5 315.2 201.8 292.8 218.3 276.3L374.6 120L359.5 105C350.1 95.6 350.1 80.4 359.5 71.1zM408.5 153.9L314.4 248L392.5 326.1L486.6 232L408.5 153.9zM280.5 281.9L252.2 310.2C244.7 317.7 240.5 327.9 240.5 338.5L240.5 397.5C240.5 398.3 240.5 399.2 240.5 400C241.3 400 242.2 400 243 400L302 400C312.6 400 322.8 395.8 330.3 388.3L358.6 360L280.5 281.9z"/></svg>