<svg xmlns="http://www.w3.org/2000/svg" viewBox="0 0 640 640"><!--! Font Awesome Pro 7.2.0 by @fontawesome - https://fontawesome.com License - https://fontawesome.com/license (Commercial License) Copyright 2026 Fonticons, Inc. --><path fill="currentColor" d="M320 528C205.1 528 112 434.9 112 320C112 271.2 128.8 226.3 156.9 190.9L449.1 483.1C413.7 511.2 368.8 528 320 528zM405.2 371.3L436.6 375.8C449.7 377.7 461.9 368.6 463.8 355.4C465.7 342.2 456.6 330.1 443.4 328.2L400 322L400 317.9L443.4 311.7C456.5 309.8 465.6 297.7 463.8 284.5C462 271.3 449.8 262.3 436.6 264.1L400 269.5C399.9 265.4 399.4 261.4 398.7 257.5L435.7 237C447.3 230.6 451.5 216 445 204.4C438.5 192.8 424 188.6 412.4 195.1L376.3 215.2C361.8 200.9 342 192.1 320.1 192.1C294.4 192.1 271.6 204.2 256.9 223L190.9 157C226.4 128.9 271.2 112.1 320 112.1C434.9 112.1 528 205.2 528 320.1C528 368.9 511.2 413.8 483.1 449.2L405.2 371.3zM320 576C461.4 576 576 461.4 576 320C576 178.6 461.4 64 320 64C178.6 64 64 178.6 64 320C64 461.4 178.6 576 320 576zM196.6 328.2C183.5 330.1 174.4 342.2 176.2 355.4C178 368.6 190.2 377.6 203.4 375.8L240 370.6C240.1 374.7 240.6 378.7 241.3 382.6L204.3 403.1C192.7 409.5 188.5 424.1 195 435.7C201.5 447.3 216 451.5 227.6 445L263.7 424.9C278.1 439.2 298 448 319.9 448C327.8 448 335.5 446.8 342.8 444.7L222.6 324.5L196.5 328.2z"/></svg>