<svg xmlns="http://www.w3.org/2000/svg" viewBox="0 0 640 640"><!--! Font Awesome Pro 7.2.0 by @fontawesome - https://fontawesome.com License - https://fontawesome.com/license (Commercial License) Copyright 2026 Fonticons, Inc. --><path fill="currentColor" d="M434.7 128C451.7 128 468 134.7 480 146.7L630.6 297.4C636.6 303.4 640 311.5 640 320C640 328.5 636.6 336.6 630.6 342.6L480 493.3C468 505.3 451.7 512 434.7 512L128 512C92.7 512 64 483.3 64 448L64 192C64 156.7 92.7 128 128 128L434.7 128zM112 192L112 448C112 456.8 119.2 464 128 464L434.7 464C438.9 464 443 462.3 446 459.3L585.4 320L446.1 180.7C443.1 177.7 439 176 434.8 176L128 176C119.2 176 112 183.2 112 192zM355.9 252.1C365.3 261.5 365.3 276.7 355.9 286L322 319.9L355.9 353.8C365.3 363.2 365.3 378.4 355.9 387.7C346.5 397 331.3 397.1 322 387.7L288.1 353.8L254.2 387.7C244.8 397.1 229.6 397.1 220.3 387.7C211 378.3 210.9 363.1 220.3 353.8L254.2 319.9L220.3 286C210.9 276.6 210.9 261.4 220.3 252.1C229.7 242.8 244.9 242.7 254.2 252.1L288.1 286L322 252.1C331.4 242.7 346.6 242.7 355.9 252.1z"/></svg>