<svg xmlns="http://www.w3.org/2000/svg" viewBox="0 0 640 640"><!--! Font Awesome Pro 7.2.0 by @fontawesome - https://fontawesome.com License - https://fontawesome.com/license (Commercial License) Copyright 2026 Fonticons, Inc. --><path fill="currentColor" d="M560 128C586.5 128 608 149.5 608 176L608 224C608 244.9 594.6 262.6 576 269.2L576 488C576 501.3 565.3 512 552 512C538.7 512 528 501.3 528 488L528 464L336 464L336 488C336 501.3 325.3 512 312 512C298.7 512 288 501.3 288 488L288 272L112 272L112 488C112 501.3 101.3 512 88 512C74.7 512 64 501.3 64 488L64 269.2C45.4 262.6 32 244.9 32 224L32 176C32 151.1 50.9 130.7 75.1 128.2L80 128L560 128zM336 272L336 416L528 416L528 272L336 272zM456 320C469.3 320 480 330.7 480 344C480 357.3 469.3 368 456 368L408 368C394.7 368 384 357.3 384 344C384 330.7 394.7 320 408 320L456 320zM80 224L560 224L560 176L80 176L80 224z"/></svg>