<svg xmlns="http://www.w3.org/2000/svg" viewBox="0 0 640 640"><!--! Font Awesome Pro 7.2.0 by @fontawesome - https://fontawesome.com License - https://fontawesome.com/license (Commercial License) Copyright 2026 Fonticons, Inc. --><path fill="currentColor" d="M512 144C520.8 144 528 151.2 528 160L528 416C528 424.8 520.8 432 512 432L128 432C119.2 432 112 424.8 112 416L112 160C112 151.2 119.2 144 128 144L512 144zM128 96C92.7 96 64 124.7 64 160L64 416C64 451.3 92.7 480 128 480L243.7 480L235.7 528L184 528C170.7 528 160 538.7 160 552C160 565.3 170.7 576 184 576L456 576C469.3 576 480 565.3 480 552C480 538.7 469.3 528 456 528L404.3 528L396.3 480L512 480C547.3 480 576 451.3 576 416L576 160C576 124.7 547.3 96 512 96L128 96zM284.3 528L292.3 480L347.6 480L355.6 528L284.3 528zM288 216L288 256L248 256C239.2 256 232 263.2 232 272L232 304C232 312.8 239.2 320 248 320L288 320L288 360C288 368.8 295.2 376 304 376L336 376C344.8 376 352 368.8 352 360L352 320L392 320C400.8 320 408 312.8 408 304L408 272C408 263.2 400.8 256 392 256L352 256L352 216C352 207.2 344.8 200 336 200L304 200C295.2 200 288 207.2 288 216z"/></svg>