<svg xmlns="http://www.w3.org/2000/svg" viewBox="0 0 640 640"><!--! Font Awesome Pro 7.2.0 by @fontawesome - https://fontawesome.com License - https://fontawesome.com/license (Commercial License) Copyright 2026 Fonticons, Inc. --><path fill="currentColor" d="M391 191C400.4 181.6 415.6 181.6 424.9 191L439.9 206L439.9 167.9C439.9 154.6 429.2 143.9 415.9 143.9L317.9 143.9C319.2 149 319.9 154.4 319.9 159.9L319.9 239.9C319.9 275.2 291.2 303.9 255.9 303.9L159.9 303.9C124.6 303.9 95.9 275.2 95.9 239.9L96 160C96 124.7 124.7 96 160 96L416 96C455.8 96 488 128.2 488 168L488 206.1L503 191.1C512.4 181.7 527.6 181.7 536.9 191.1C546.2 200.5 546.3 215.7 536.9 225L480.9 281C471.5 290.4 456.3 290.4 447 281L391 225C381.6 215.6 381.6 200.4 391 191.1zM496 416C496 407.2 488.8 400 480 400L160 400C151.2 400 144 407.2 144 416L144 480C144 488.8 151.2 496 160 496L480 496C488.8 496 496 488.8 496 480L496 416zM544 480C544 515.3 515.3 544 480 544L160 544C124.7 544 96 515.3 96 480L96 416C96 380.7 124.7 352 160 352L480 352C515.3 352 544 380.7 544 416L544 480zM272 160C272 151.2 264.8 144 256 144L160 144C151.2 144 144 151.2 144 160L144 240C144 248.8 151.2 256 160 256L256 256C264.8 256 272 248.8 272 240L272 160zM192 184L224 184C232.8 184 240 191.2 240 200C240 208.8 232.8 216 224 216L192 216C183.2 216 176 208.8 176 200C176 191.2 183.2 184 192 184z"/></svg>