<svg xmlns="http://www.w3.org/2000/svg" viewBox="0 0 640 640"><!--! Font Awesome Pro 7.2.0 by @fontawesome - https://fontawesome.com License - https://fontawesome.com/license (Commercial License) Copyright 2026 Fonticons, Inc. --><path fill="currentColor" d="M409.1 197C427.8 178.3 427.8 147.9 409.1 129.1L361 81C350.1 70.1 335.4 64 320 64C304.6 64 289.9 70.1 279 81L230.9 129.1C212.2 147.8 212.2 178.2 230.9 197L286 252.1C304.7 270.8 335.1 270.8 353.9 252.1L409.1 197zM313 114.9C314.9 113 317.4 112 320 112C322.6 112 325.2 113 327 114.9L375.1 163L320 218.2L264.9 163L313 114.9zM197 230.9C178.3 212.2 147.9 212.2 129.1 230.9L81 279C70.1 289.9 64 304.6 64 320C64 335.4 70.1 350.1 81 361L129.1 409.1C147.8 427.8 178.2 427.8 197 409.1L252.1 354C270.8 335.3 270.8 304.9 252.1 286.1L197 230.9zM114.9 313L163 264.9L218.1 320L163 375.1L114.9 327L114.9 327C113 325.1 112 322.6 112 320C112 317.4 113 314.8 114.9 313zM264.9 477L320 421.8L375.1 477L327 525.1C325.1 527 322.6 528 320 528C317.4 528 314.8 527 313 525.1L264.9 477zM354 387.9C335.3 369.2 304.9 369.2 286.1 387.9L230.9 443C212.2 461.7 212.2 492.1 230.9 510.9L279 559C289.9 569.9 304.6 576 320 576C335.4 576 350.1 569.9 361 559L409.1 510.9C427.8 492.2 427.8 461.8 409.1 443L354 387.9zM511 230.9C492.3 212.2 461.9 212.2 443.1 230.9L388 286C369.3 304.7 369.3 335.1 388 353.9L443 409.1C461.7 427.8 492.1 427.8 510.9 409.1L559 361C569.9 350.1 576 335.4 576 320C576 304.6 569.9 289.9 559 279L510.9 230.9zM525.1 313C527 314.9 528 317.4 528 320C528 322.6 527 325.2 525.1 327L477 375.1L421.8 320L477 264.9L525.1 313z"/></svg>