<svg xmlns="http://www.w3.org/2000/svg" viewBox="0 0 640 640"><!--! Font Awesome Pro 7.2.0 by @fontawesome - https://fontawesome.com License - https://fontawesome.com/license (Commercial License) Copyright 2026 Fonticons, Inc. --><path fill="currentColor" d="M480 144L96 144C87.2 144 80 151.2 80 160L80 416C80 424.8 87.2 432 96 432L306.7 432C305 442.4 304 453.1 304 464C304 469.4 304.2 474.7 304.7 480L260.4 480L252.4 528L315 528C321.1 545.3 329.6 561.4 340.1 576L152.1 576C138.8 576 128.1 565.3 128.1 552C128.1 538.7 138.8 528 152.1 528L203.8 528L211.8 480L96.1 480C60.8 480 32.1 451.3 32.1 416L32 160C32 124.7 60.7 96 96 96L480 96C515.3 96 544 124.7 544 160L544 278C528.7 274.1 512.6 272 496 272L496 160C496 151.2 488.8 144 480 144zM346.8 343.1L321 369C316.5 373.5 310.4 376 304 376C297.6 376 291.5 373.5 287 369L224 306L153 377C143.6 386.4 128.4 386.4 119.1 377C109.8 367.6 109.7 352.4 119.1 343.1L207.1 255.1C216.5 245.7 231.7 245.7 241 255.1L304 318.1L382.1 240L360 240C346.7 240 336 229.3 336 216C336 202.7 346.7 192 360 192L440 192C453.3 192 464 202.7 464 216L464 274.7C447.2 277.5 431.1 282.5 416 289.5L416 274L375.1 314.9C364.7 323.3 355.2 332.8 346.8 343.2zM352 464C352 384.5 416.5 320 496 320C575.5 320 640 384.5 640 464C640 543.5 575.5 608 496 608C416.5 608 352 543.5 352 464zM571.3 411.3C577.5 405.1 577.5 394.9 571.3 388.7C565.1 382.5 554.9 382.5 548.7 388.7L528.5 408.9C519 403.3 507.9 400 496 400C484.1 400 473 403.2 463.5 408.9L443.3 388.7C437.1 382.5 426.9 382.5 420.7 388.7C414.5 394.9 414.5 405.1 420.7 411.3L440.9 431.5C435.3 441 432 452.1 432 464C432 475.9 435.2 487 440.9 496.5L420.7 516.7C414.5 522.9 414.5 533.1 420.7 539.3C426.9 545.5 437.1 545.5 443.3 539.3L463.5 519.1C473 524.7 484.1 528 496 528C507.9 528 519 524.8 528.5 519.1L548.7 539.3C554.9 545.5 565.1 545.5 571.3 539.3C577.5 533.1 577.5 522.9 571.3 516.7L551.1 496.5C556.7 487 560 475.9 560 464C560 452.1 556.8 441 551.1 431.5L571.3 411.3zM496 432C513.7 432 528 446.3 528 464C528 481.7 513.7 496 496 496C478.3 496 464 481.7 464 464C464 446.3 478.3 432 496 432z"/></svg>