<svg xmlns="http://www.w3.org/2000/svg" viewBox="0 0 640 640"><!--! Font Awesome Pro 7.2.0 by @fontawesome - https://fontawesome.com License - https://fontawesome.com/license (Commercial License) Copyright 2026 Fonticons, Inc. --><path fill="currentColor" d="M480 144L96 144C87.2 144 80 151.2 80 160L80 416C80 424.8 87.2 432 96 432L306.7 432C305 442.4 304 453.1 304 464C304 469.4 304.2 474.7 304.7 480L260.4 480L252.4 528L315 528C321.1 545.3 329.6 561.4 340.1 576L152.1 576C138.8 576 128.1 565.3 128.1 552C128.1 538.7 138.8 528 152.1 528L203.8 528L211.8 480L96.1 480C60.8 480 32.1 451.3 32.1 416L32 160C32 124.7 60.7 96 96 96L480 96C515.3 96 544 124.7 544 160L544 278C528.7 274.1 512.6 272 496 272L496 160C496 151.2 488.8 144 480 144zM416 289.4L416 273.9L321 368.9C316.5 373.4 310.4 375.9 304 375.9C297.6 375.9 291.5 373.4 287 368.9L224 305.9L153 376.9C143.6 386.3 128.4 386.3 119.1 376.9C109.8 367.5 109.7 352.3 119.1 343L207.1 255C216.5 245.6 231.7 245.6 241 255L304 318L382.1 239.9L360 239.9C346.7 239.9 336 229.2 336 215.9C336 202.6 346.7 191.9 360 191.9L440 191.9C453.3 191.9 464 202.6 464 215.9L464 274.6C447.2 277.4 431.1 282.4 416 289.4zM352 464C352 384.5 416.5 320 496 320C575.5 320 640 384.5 640 464C640 543.5 575.5 608 496 608C416.5 608 352 543.5 352 464zM480 384L480 392.1C457.7 393.2 440 411.6 440 434.2C440 454.6 454.6 472 474.6 475.7L519.6 483.9C524.4 484.8 527.9 489 527.9 493.9C527.9 499.5 523.3 504.1 517.7 504.1L464 504C455.2 504 448 511.2 448 520C448 528.8 455.2 536 464 536L480 536L480 544C480 552.8 487.2 560 496 560C504.8 560 512 552.8 512 544L512 536L517.8 536C541.1 536 560 517.1 560 493.8C560 473.4 545.4 456 525.4 452.3L480.4 444.1C475.6 443.2 472.1 439 472.1 434.1C472.1 428.5 476.7 423.9 482.3 423.9L528.1 423.9C536.9 423.9 544.1 416.7 544.1 407.9C544.1 399.1 536.9 391.9 528.1 391.9L512.1 391.9L512.1 383.9C512.1 375.1 504.9 367.9 496.1 367.9C487.3 367.9 480.1 375.1 480.1 383.9z"/></svg>