<svg xmlns="http://www.w3.org/2000/svg" viewBox="0 0 640 640"><!--! Font Awesome Pro 7.2.0 by @fontawesome - https://fontawesome.com License - https://fontawesome.com/license (Commercial License) Copyright 2026 Fonticons, Inc. --><path fill="currentColor" d="M535.5 71C544.9 61.6 560.1 61.6 569.4 71C578.7 80.4 578.8 95.6 569.4 104.9L425.4 248.9L494.5 318C513.2 336.7 513.2 367.1 494.5 385.9L355.2 525.2L350.5 529.5C340.7 537.5 328.8 542.4 316.2 543.7L309.9 544L144.4 544C117.9 544 96.4 522.5 96.4 496L96.4 330.5C96.4 315.6 101.6 301.3 110.9 289.9L115.2 285.2L254.5 145.9C273.2 127.2 303.6 127.2 322.4 145.9L391.5 215L535.5 71zM149.2 319.2C147 321.4 145.4 324.3 144.8 327.4L144.5 330.5L144.5 496L310 496C314.2 496 318.3 494.3 321.3 491.3L389.6 423L217.5 250.9L149.2 319.2zM251.4 217L423.5 389.1L460.6 352L288.5 179.9L251.4 217z"/></svg>