<svg xmlns="http://www.w3.org/2000/svg" viewBox="0 0 640 640"><!--! Font Awesome Pro 7.2.0 by @fontawesome - https://fontawesome.com License - https://fontawesome.com/license (Commercial License) Copyright 2026 Fonticons, Inc. --><path fill="currentColor" d="M464 256C464 304.1 440.4 346.8 404 373C387.2 385.1 369.6 402.8 359.7 427.5L339.6 477.7C327.4 508.1 298 528 265.3 528L256 528C211.8 528 176 492.2 176 448L176 256C176 176.5 240.5 112 320 112C399.5 112 464 176.5 464 256zM404.3 445.4C409.8 431.7 420.1 420.6 432.1 412C480.5 377.1 512.1 320.3 512.1 256C512.1 150 426.1 64 320.1 64C214.1 64 128 150 128 256L128 448C128 518.7 185.3 576 256 576L265.3 576C317.6 576 364.7 544.1 384.1 495.5L404.2 445.3zM256 256C256 220.7 284.7 192 320 192C355.3 192 384 220.7 384 256L384 264C384 277.3 394.7 288 408 288C421.3 288 432 277.3 432 264L432 256C432 194.1 381.9 144 320 144C258.1 144 208 194.1 208 256L208 296C208 309.3 218.7 320 232 320L248 320C261.3 320 272 330.7 272 344C272 357.3 261.3 368 248 368L232 368C218.7 368 208 378.7 208 392C208 405.3 218.7 416 232 416L248 416C287.8 416 320 383.8 320 344C320 306.9 292 276.4 256 272.4L256 256z"/></svg>