<svg xmlns="http://www.w3.org/2000/svg" viewBox="0 0 640 640"><!--! Font Awesome Pro 7.2.0 by @fontawesome - https://fontawesome.com License - https://fontawesome.com/license (Commercial License) Copyright 2026 Fonticons, Inc. --><path fill="currentColor" d="M100.1 355.3C92.4 337.9 95.8 317.6 108.7 303.5L284.7 111.5C293.7 101.6 306.5 96 320 96C333.5 96 346.3 101.6 355.4 111.6L531.4 303.6C544.3 317.6 547.6 337.9 540 355.4C532.4 372.9 515 384 496 384L144 384C125 384 107.7 372.8 100.1 355.3zM144 336L496 336L320 144L144 336zM120 496L520 496C533.3 496 544 506.7 544 520C544 533.3 533.3 544 520 544L120 544C106.7 544 96 533.3 96 520C96 506.7 106.7 496 120 496z"/></svg>