<svg xmlns="http://www.w3.org/2000/svg" viewBox="0 0 640 640"><!--! Font Awesome Pro 7.2.0 by @fontawesome - https://fontawesome.com License - https://fontawesome.com/license (Commercial License) Copyright 2026 Fonticons, Inc. --><path fill="currentColor" d="M432 120C432 133.3 421.3 144 408 144L344 144L344 192L440 192C479.8 192 512 224.2 512 264L512 440C512 479.8 479.8 512 440 512L296 512C273.3 512 252 501.3 238.4 483.2L212 448L200 448C160.2 448 128 415.8 128 376L128 344L80 344L80 424C80 437.3 69.3 448 56 448C42.7 448 32 437.3 32 424L32 216C32 202.7 42.7 192 56 192C69.3 192 80 202.7 80 216L80 296L128 296L128 264C128 224.2 160.2 192 200 192L296 192L296 144L232 144C218.7 144 208 133.3 208 120C208 106.7 218.7 96 232 96L408 96C421.3 96 432 106.7 432 120zM584 224C597.3 224 608 234.7 608 248L608 456C608 469.3 597.3 480 584 480C570.7 480 560 469.3 560 456L560 248C560 234.7 570.7 224 584 224zM200 240C186.7 240 176 250.7 176 264L176 376C176 389.3 186.7 400 200 400L224 400C231.6 400 238.7 403.6 243.2 409.6L276.8 454.4C281.3 460.4 288.4 464 296 464L440 464C453.3 464 464 453.3 464 440L464 264C464 250.7 453.3 240 440 240L200 240zM376 336L264 336C250.7 336 240 325.3 240 312C240 298.7 250.7 288 264 288L376 288C389.3 288 400 298.7 400 312C400 325.3 389.3 336 376 336z"/></svg>