<svg xmlns="http://www.w3.org/2000/svg" viewBox="0 0 640 640"><!--! Font Awesome Pro 7.2.0 by @fontawesome - https://fontawesome.com License - https://fontawesome.com/license (Commercial License) Copyright 2026 Fonticons, Inc. --><path fill="currentColor" d="M576 228.3L576 326C567.5 322.1 558 320 548 320C541 320 534.3 321 528 323L528 288.3L373.2 405.7C341.8 429.6 298.3 429.6 266.8 405.7L112 288.3L112 480C112 488.9 119.2 496 128 496L442.2 496C444.5 499.8 447 503.5 449.8 507C441.9 517.4 436.9 530.2 436.1 544L128 544C92.6 544 64 515.3 64 480L64 228C64.1 212.5 71.8 198 84.5 189.2L270 61.3C300.1 40.6 339.8 40.6 369.9 61.3L555.5 189.2C568.3 198 575.9 212.5 576 228L576 228.3zM527.6 228.3L342.7 100.8C329 91.4 311 91.4 297.3 100.8L112.4 228.4L295.8 367.5C310.1 378.3 329.9 378.3 344.2 367.5L527.6 228.4zM548 368C559 368 568 377 568 388L568 392L576 392C587 392 596 401 596 412C596 423 587 432 576 432L528.5 432C521.6 432 516 437.6 516 444.5C516 450.6 520.4 455.8 526.4 456.8L568.1 463.8C593.4 468 612 489.9 612 515.6C612 541.7 593 563.3 568 567.4L568 572.1C568 583.1 559 592.1 548 592.1C537 592.1 528 583.1 528 572.1L528 568.1L504 568.1C493 568.1 484 559.1 484 548.1C484 537.1 493 528.1 504 528.1L559.5 528.1C566.4 528.1 572 522.5 572 515.6C572 509.5 567.6 504.3 561.6 503.3L519.9 496.3C494.6 492.1 476 470.2 476 444.5C476 415.7 499.2 392.3 528 392L528 388C528 377 537 368 548 368z"/></svg>