<svg xmlns="http://www.w3.org/2000/svg" viewBox="0 0 640 640"><!--! Font Awesome Pro 7.2.0 by @fontawesome - https://fontawesome.com License - https://fontawesome.com/license (Commercial License) Copyright 2026 Fonticons, Inc. --><path fill="currentColor" d="M160 144C151.2 144 144 151.2 144 160L144 480C144 488.8 151.2 496 160 496L480 496C488.8 496 496 488.8 496 480L496 160C496 151.2 488.8 144 480 144L160 144zM96 160C96 124.7 124.7 96 160 96L480 96C515.3 96 544 124.7 544 160L544 480C544 515.3 515.3 544 480 544L160 544C124.7 544 96 515.3 96 480L96 160zM305.1 331.9L204.4 271.4C196.7 266.8 192 258.5 192 249.5C192 235.4 203.4 224 217.5 224L422.4 224C436.5 224 447.9 235.4 447.9 249.5C447.9 258.5 443.2 266.8 435.5 271.4L334.9 331.9C330.4 334.6 325.3 336 320 336C314.7 336 309.6 334.6 305.1 331.9zM448 301.3L448 384C448 401.7 433.7 416 416 416L224 416C206.3 416 192 401.7 192 384L192 301.3L288.7 359.3C298.1 365 309 368 320 368C331 368 341.9 365 351.3 359.3L448 301.3z"/></svg>