<svg xmlns="http://www.w3.org/2000/svg" viewBox="0 0 640 640"><!--! Font Awesome Pro 7.2.0 by @fontawesome - https://fontawesome.com License - https://fontawesome.com/license (Commercial License) Copyright 2026 Fonticons, Inc. --><path fill="currentColor" d="M125.4 128C91.5 128 64 155.5 64 189.4C64 190.3 64 191.1 64.1 192L64 192L64 448C64 483.3 92.7 512 128 512L321.4 512C314.5 496.9 309.5 480.8 306.6 464L128 464C119.2 464 112 456.8 112 448L112 256.3L266.8 373.7C279.3 383.2 293.6 388.9 308.4 390.8C312.1 374 317.9 358 325.7 343.2C315.4 344.7 304.6 342.1 295.8 335.5L117.3 200.1C114 197.6 112 193.6 112 189.4C112 182 118 176 125.4 176L512 176C520.8 176 528 183.2 528 192L528 242.7C544.8 245.5 560.9 250.5 576 257.5L576 192.1C576 156.8 547.3 128.1 512 128.1L125.4 128zM640 432C640 352.5 575.5 288 496 288C416.5 288 352 352.5 352 432C352 511.5 416.5 576 496 576C575.5 576 640 511.5 640 432zM553.4 371.1C560.5 376.3 562.1 386.3 556.9 393.4L492.9 481.4C490.1 485.2 485.9 487.6 481.2 487.9C476.5 488.2 471.9 486.6 468.6 483.3L428.6 443.3C422.4 437.1 422.4 426.9 428.6 420.7C434.8 414.5 445 414.5 451.2 420.7L478 447.5L531 374.6C536.2 367.5 546.2 365.9 553.4 371.1z"/></svg>