<svg xmlns="http://www.w3.org/2000/svg" viewBox="0 0 640 640"><!--! Font Awesome Pro 7.2.0 by @fontawesome - https://fontawesome.com License - https://fontawesome.com/license (Commercial License) Copyright 2026 Fonticons, Inc. --><path fill="currentColor" d="M528 64C572.2 64 608 99.8 608 144C608 188.2 572.2 224 528 224C483.8 224 448 188.2 448 144C448 99.8 483.8 64 528 64zM125.4 128L401 128C400.3 133.2 400 138.6 400 144C400 155 401.4 165.8 404 176L125.4 176C118 176 112 182 112 189.4C112 193.6 114 197.6 117.3 200.1L295.8 335.5C310.1 346.3 329.9 346.3 344.2 335.5L456.6 250.2C472.1 260.6 489.9 267.7 509.2 270.6L373.2 373.8C341.8 397.7 298.3 397.7 266.8 373.8L112 256.3L112 448C112 456.8 119.2 464 128 464L512 464C520.8 464 528 456.8 528 448L528 272C545 272 561.2 268.7 576 262.7L576 448C576 483.3 547.3 512 512 512L128 512C92.7 512 64 483.3 64 448L64 192L64.1 192C64.1 191.1 64 190.3 64 189.4C64 155.5 91.5 128 125.4 128z"/></svg>