<svg xmlns="http://www.w3.org/2000/svg" viewBox="0 0 640 640"><!--! Font Awesome Pro 7.2.0 by @fontawesome - https://fontawesome.com License - https://fontawesome.com/license (Commercial License) Copyright 2026 Fonticons, Inc. --><path fill="currentColor" d="M555.5 189.2C562.5 194 567.9 200.5 571.5 208L498.2 208L342.8 100.8C329.1 91.4 311.1 91.4 297.4 100.8L112.4 228.4L295.8 367.5C298.4 369.4 301.1 371 304 372.3L304 422.2C290.8 419.8 278 414.3 266.8 405.8L112 288.3L112 480C112 488.9 119.2 496 128 496L304 496L304 544L128 544C92.6 544 64 515.3 64 480L64 228C64.1 212.5 71.8 198 84.5 189.2L270 61.3C300.1 40.6 339.8 40.6 369.9 61.3L555.5 189.2zM352 304C352 277.5 373.5 256 400 256L560 256C586.5 256 608 277.5 608 304L608 528C608 554.5 586.5 576 560 576L400 576C373.5 576 352 554.5 352 528L352 304zM408 344C408 357.3 418.7 368 432 368L528 368C541.3 368 552 357.3 552 344C552 330.7 541.3 320 528 320L432 320C418.7 320 408 330.7 408 344zM408 440C408 453.3 418.7 464 432 464L488 464C501.3 464 512 453.3 512 440C512 426.7 501.3 416 488 416L432 416C418.7 416 408 426.7 408 440z"/></svg>