<svg xmlns="http://www.w3.org/2000/svg" viewBox="0 0 640 640"><!--! Font Awesome Pro 7.2.0 by @fontawesome - https://fontawesome.com License - https://fontawesome.com/license (Commercial License) Copyright 2026 Fonticons, Inc. --><path fill="currentColor" d="M232 96C245.3 96 256 106.7 256 120C256 133.3 245.3 144 232 144L144 144L144 232C144 245.3 133.3 256 120 256C106.7 256 96 245.3 96 232L96 120C96 106.7 106.7 96 120 96L232 96zM96 408C96 394.7 106.7 384 120 384C133.3 384 144 394.7 144 408L144 496L232 496C245.3 496 256 506.7 256 520C256 533.3 245.3 544 232 544L120 544C106.7 544 96 533.3 96 520L96 408zM520 96C533.3 96 544 106.7 544 120L544 232C544 245.3 533.3 256 520 256C506.7 256 496 245.3 496 232L496 144L408 144C394.7 144 384 133.3 384 120C384 106.7 394.7 96 408 96L520 96zM496 408C496 394.7 506.7 384 520 384C533.3 384 544 394.7 544 408L544 520C544 533.3 533.3 544 520 544L408 544C394.7 544 384 533.3 384 520C384 506.7 394.7 496 408 496L496 496L496 408z"/></svg>