<svg xmlns="http://www.w3.org/2000/svg" viewBox="0 0 640 640"><!--! Font Awesome Pro 7.2.0 by @fontawesome - https://fontawesome.com License - https://fontawesome.com/license (Commercial License) Copyright 2026 Fonticons, Inc. --><path fill="currentColor" d="M480 144C488.8 144 496 151.2 496 160L496 480C496 488.8 488.8 496 480 496L160 496C151.2 496 144 488.8 144 480L144 160C144 151.2 151.2 144 160 144L480 144zM544 160C544 124.7 515.3 96 480 96L160 96C124.7 96 96 124.7 96 160L96 480C96 515.3 124.7 544 160 544L480 544C515.3 544 544 515.3 544 480L544 160zM368 360C368 373.3 378.7 384 392 384C405.3 384 416 373.3 416 360L416 248C416 234.7 405.3 224 392 224L280 224C266.7 224 256 234.7 256 248C256 261.3 266.7 272 280 272L334.1 272L231.1 375C221.7 384.4 221.7 399.6 231.1 408.9C240.5 418.2 255.7 418.3 265 408.9L368 305.9L368 360z"/></svg>