<svg xmlns="http://www.w3.org/2000/svg" viewBox="0 0 640 640"><!--! Font Awesome Pro 7.2.0 by @fontawesome - https://fontawesome.com License - https://fontawesome.com/license (Commercial License) Copyright 2026 Fonticons, Inc. --><path fill="currentColor" d="M297 266.9L255.1 225L255.1 225C245.7 215.6 245.7 200.4 255.1 191.1C264.5 181.8 279.7 181.7 289 191.1L297 199.1C313.4 182.7 348.5 147.6 402.2 93.9C421.3 74.8 447.2 64.1 474.2 64.1C530.4 64.1 576 109.7 576 165.9C576 192.9 565.3 218.8 546.2 237.9C492.5 291.6 457.4 326.7 441 343.1L449 351.1C458.4 360.5 458.4 375.7 449 385C439.6 394.3 424.4 394.4 415.1 385C414.1 384 400.1 370 373.2 343.1L297 266.9zM407 309.1L512.2 203.9C522.3 193.8 528 180.1 528 165.8C528 136.1 503.9 112 474.2 112C459.9 112 446.2 117.7 436.1 127.8L330.9 233L407 309.1zM236.1 273.9L270 307.8L193.9 383.9L318 383.9L332.1 369.8L366 403.7L247 522.7C233.5 536.2 215.2 543.8 196.1 543.8L143.2 543.8L101.2 571.8C91.7 578.1 79 576.9 70.9 568.8C62.8 560.7 61.6 548 67.9 538.5L95.9 496.5L95.9 443.6C95.9 424.5 103.5 406.2 117 392.7L236 273.7z"/></svg>