<svg xmlns="http://www.w3.org/2000/svg" viewBox="0 0 640 640"><!--! Font Awesome Pro 7.2.0 by @fontawesome - https://fontawesome.com License - https://fontawesome.com/license (Commercial License) Copyright 2026 Fonticons, Inc. --><path fill="currentColor" d="M294.7 526.5C303 527.5 311.5 528 320.1 528C328.7 528 337.2 527.5 345.5 526.5C347.9 543 353.1 558.7 360.7 572.8C347.5 574.9 333.9 576 320.1 576C306.3 576 292.7 574.9 279.5 572.8C287.1 558.6 292.3 543 294.7 526.5zM64.2 327.7C64.1 325.1 64.1 322.6 64.1 320C64.1 178.6 178.7 64 320.1 64C461.5 64 576.1 178.6 576.1 320C576.1 322.6 576.1 325.1 576 327.7C562.3 316.3 544.8 311.7 528 313.9C524.8 201.8 432.9 112 320.1 112C207.3 112 115.4 201.8 112.2 313.9C95.4 311.7 78 316.3 64.2 327.7zM240.1 244C224.6 244 212.1 256.5 212.1 272L212.1 280C212.1 291 203.1 300 192.1 300C181.1 300 172.1 291 172.1 280L172.1 272C172.1 234.4 202.5 204 240.1 204C277.7 204 308.1 234.4 308.1 272L308.1 280C308.1 291 299.1 300 288.1 300C277.1 300 268.1 291 268.1 280L268.1 272C268.1 256.5 255.6 244 240.1 244zM372.1 272L372.1 280C372.1 291 363.1 300 352.1 300C341.1 300 332.1 291 332.1 280L332.1 272C332.1 234.4 362.5 204 400.1 204C437.7 204 468.1 234.4 468.1 272L468.1 280C468.1 291 459.1 300 448.1 300C437.1 300 428.1 291 428.1 280L428.1 272C428.1 256.5 415.6 244 400.1 244C384.6 244 372.1 256.5 372.1 272zM207.5 382.7C217.1 373.5 232.3 373.8 241.4 383.4C256.4 399.1 282.5 416 320.1 416C357.7 416 383.8 399 398.8 383.4C408 373.8 423.2 373.5 432.7 382.7C442.2 391.9 442.6 407.1 433.4 416.6C433 417.1 432.5 417.5 432.1 418L432.1 438.4C432.1 442 436.4 443.7 438.9 441.2L520.1 360C528.9 351.2 543.3 351.2 552.1 360C560.9 368.8 560.9 383.2 552.1 392L504.1 440C499.7 444.4 499.7 451.6 504.1 456C508.5 460.4 515.7 460.4 520.1 456L584.1 392C592.9 383.2 607.3 383.2 616.1 392C624.9 400.8 624.9 415.2 616.1 424L552.1 488C547.7 492.4 547.7 499.6 552.1 504C556.5 508.4 563.7 508.4 568.1 504L600.1 472C608.9 463.2 623.3 463.2 632.1 472C640.9 480.8 640.9 495.2 632.1 504L558 578.2C538.9 597.3 513 608 486 608C429.8 608 384.2 562.4 384.2 506.2L384.2 450.9C366.2 458.8 344.8 464 320.2 464C295.6 464 274.2 458.8 256.2 450.9L256.2 506.2C256.2 562.4 210.6 608 154.4 608C127.4 608 101.5 597.3 82.4 578.2L8.1 504C-.7 495.2-.7 480.8 8.1 472C16.9 463.2 31.3 463.2 40.1 472L72.1 504C76.5 508.4 83.7 508.4 88.1 504C92.5 499.6 92.5 492.4 88.1 488L24.1 424C15.3 415.2 15.3 400.8 24.1 392C32.9 383.2 47.3 383.2 56.1 392L120.1 456C124.5 460.4 131.7 460.4 136.1 456C140.5 451.6 140.5 444.4 136.1 440L88.1 392C79.3 383.2 79.3 368.8 88.1 360C96.9 351.2 111.3 351.2 120.1 360L201.3 441.2C203.8 443.7 208.1 441.9 208.1 438.4L208.1 418C207.7 417.5 207.2 417.1 206.8 416.6C197.6 407 197.9 391.8 207.5 382.7z"/></svg>