<svg xmlns="http://www.w3.org/2000/svg" viewBox="0 0 640 640"><!--! Font Awesome Pro 7.2.0 by @fontawesome - https://fontawesome.com License - https://fontawesome.com/license (Commercial License) Copyright 2026 Fonticons, Inc. --><path fill="currentColor" d="M227.6 360.9C221.2 349.3 206.6 345.1 195 351.4C183.4 357.7 179.2 372.4 185.5 384C200.9 411.9 231.2 445.3 282.7 459.1C334.2 472.9 377.1 459.2 404.4 442.7C415.7 435.8 419.4 421.1 412.5 409.7C405.6 398.3 390.9 394.7 379.5 401.6C360.9 412.8 331.4 422.5 295.1 412.7C258.8 402.9 238 379.8 227.5 360.8zM224 256C224 238.3 238.3 224 256 224C273.7 224 288 238.3 288 256C288 273.7 273.7 288 256 288C238.3 288 224 273.7 224 256zM416 320C433.7 320 448 305.7 448 288C448 270.3 433.7 256 416 256C398.3 256 384 270.3 384 288C384 305.7 398.3 320 416 320zM568.9 380.1C561 413 587.1 432 616 432C629.3 432 640 442.7 640 456C640 469.3 629.3 480 616 480L552 480C538.7 480 528 490.7 528 504C528 517.3 538.7 528 552 528C565.3 528 576 538.7 576 552C576 565.3 565.3 576 552 576L24 576C10.7 576 0 565.3 0 552C0 538.7 10.7 528 24 528L46.6 528C85.4 528 108.3 469.2 90.9 434.4C73.7 400 64 361.1 64 320C64 178.6 178.6 64 320 64C461.4 64 576 178.6 576 320C576 340.7 573.5 360.8 568.9 380.1zM528 320C528 205.1 434.9 112 320 112C205.1 112 112 205.1 112 320C112 353.5 119.9 385 133.9 413C151.9 448.9 147 494.3 126.2 528L484.1 528C470.7 490.1 492.4 446.6 531.3 435C520.4 414.5 517.1 390.1 522.2 368.9C526 353.3 528 336.9 528 320z"/></svg>