<svg xmlns="http://www.w3.org/2000/svg" viewBox="0 0 640 640"><!--! Font Awesome Pro 7.2.0 by @fontawesome - https://fontawesome.com License - https://fontawesome.com/license (Commercial License) Copyright 2026 Fonticons, Inc. --><path fill="currentColor" d="M528 320C528 205.1 434.9 112 320 112C205.1 112 112 205.1 112 320C112 434.9 205.1 528 320 528C434.9 528 528 434.9 528 320zM64 320C64 178.6 178.6 64 320 64C461.4 64 576 178.6 576 320C576 461.4 461.4 576 320 576C178.6 576 64 461.4 64 320zM256 288L256 264C256 262 255.9 260.1 255.6 258.2C251.4 261.8 246 264 240 264C226.7 264 216 253.3 216 240C216 234 218.2 228.6 221.8 224.4C219.9 224.1 218 224 216 224C193.9 224 176 241.9 176 264L176 288L256 288zM216 192C255.8 192 288 224.2 288 264L288 288C288 305.7 273.7 320 256 320L176 320C158.3 320 144 305.7 144 288L144 264C144 224.2 176.2 192 216 192zM432 264C418.7 264 408 253.3 408 240C408 234.6 409.8 229.7 412.7 225.7C408.6 224.6 404.4 224 400 224C373.5 224 352 245.5 352 272L352 288L448 288L448 272C448 267.6 447.4 263.3 446.3 259.3C442.3 262.3 437.4 264 432 264zM400 192C444.2 192 480 227.8 480 272L480 289.9C480 306.5 466.5 320 449.9 320L350.1 320C333.5 320 320 306.5 320 289.9L320 272C320 227.8 355.8 192 400 192zM164.4 371.8C162.1 361.6 169.9 352 180.3 352L459.7 352C470.1 352 477.8 361.6 475.6 371.8C471.7 389.2 465 405.4 456.1 420L456.1 420C427.9 465.9 377.2 495.6 321.2 496L320.1 496C315.5 496 310.8 495.8 306.3 495.4C237.8 489.5 179.6 439.8 164.5 371.8zM428.2 404.2C420 401.5 411.3 400 402.3 400C363.1 400 330.4 427.3 322.1 464C366.2 463.3 405.9 439.9 428.3 404.2z"/></svg>