<svg xmlns="http://www.w3.org/2000/svg" viewBox="0 0 640 640"><!--! Font Awesome Pro 7.2.0 by @fontawesome - https://fontawesome.com License - https://fontawesome.com/license (Commercial License) Copyright 2026 Fonticons, Inc. --><path fill="currentColor" d="M320 528C205.1 528 112 434.9 112 320C112 205.1 205.1 112 320 112C434.9 112 528 205.1 528 320C528 349.3 521.9 377.2 511 402.5L471.9 363.4C470.9 354.6 465.1 346.7 456.2 343.5C443.7 339 430 345.5 425.5 358C409.9 401.2 368.6 432.1 320.1 432.1C271.6 432.1 230.2 401.3 214.7 358C210.2 345.5 196.5 339.1 184 343.5C171.5 347.9 165.1 361.7 169.5 374.2C191.7 435.9 250.7 480 320.1 480C326.4 480 332.5 479.6 338.6 478.9L379 519.5C360.3 525 340.5 528 320 528zM451.6 411L487.4 446.8C503 462.4 503 487.7 487.4 503.4C471.8 519.1 446.5 519 430.8 503.4L390.9 463.5C415.3 451.4 436.2 433.3 451.6 411.1zM320 576C356.2 576 390.7 568.5 422 554.9C454.6 570 494.5 564.2 521.3 537.3C545.8 512.8 552.8 477.5 542.4 446.8C563.8 409.4 576 366.1 576 320C576 178.6 461.4 64 320 64C178.6 64 64 178.6 64 320C64 461.4 178.6 576 320 576zM240 244C255.5 244 268 256.5 268 272L268 280C268 291 277 300 288 300C299 300 308 291 308 280L308 272C308 234.4 277.6 204 240 204C202.4 204 172 234.4 172 272L172 280C172 291 181 300 192 300C203 300 212 291 212 280L212 272C212 256.5 224.5 244 240 244zM400 244C415.5 244 428 256.5 428 272L428 280C428 291 437 300 448 300C459 300 468 291 468 280L468 272C468 234.4 437.6 204 400 204C362.4 204 332 234.4 332 272L332 280C332 291 341 300 352 300C363 300 372 291 372 280L372 272C372 256.5 384.5 244 400 244z"/></svg>