<svg xmlns="http://www.w3.org/2000/svg" viewBox="0 0 640 640"><!--! Font Awesome Pro 7.2.0 by @fontawesome - https://fontawesome.com License - https://fontawesome.com/license (Commercial License) Copyright 2026 Fonticons, Inc. --><path fill="currentColor" d="M312 120C312 106.7 301.3 96 288 96C274.7 96 264 106.7 264 120L264 136L152 136C138.7 136 128 146.7 128 160C128 173.3 138.7 184 152 184L264 184L264 224L245.3 224C230.4 224 216.2 229.9 205.7 240.4L190.1 256L88 256C74.7 256 64 266.7 64 280C64 293.3 74.7 304 88 304L200 304C206.4 304 212.5 301.5 217 297L239.6 274.4C241.1 272.9 243.1 272.1 245.3 272.1L338.8 272.1C340.9 272.1 343 272.9 344.5 274.4L367 297C371.5 301.5 377.6 304 384 304L424 304C481.4 304 528 350.6 528 408L528 424C528 428.4 524.4 432 520 432L472 432C467.6 432 464 428.4 464 424C464 393.1 438.9 368 408 368L375.7 368C367.5 368 359.9 372.2 355.5 379.1C341.2 401.4 316.4 416 288.1 416C259.8 416 234.9 401.3 220.7 379.1C216.3 372.2 208.7 368 200.5 368L88 368C74.7 368 64 378.7 64 392C64 405.3 74.7 416 88 416L188.1 416C211.5 445.2 247.6 464 288 464C328.4 464 364.5 445.2 387.9 416L408 416C412.4 416 416 419.6 416 424C416 454.9 441.1 480 472 480L520 480C550.9 480 576 454.9 576 424L576 408C576 324.1 507.9 256 424 256L393.9 256L378.3 240.4C367.8 229.9 353.6 224 338.7 224L312 224L312 184L424 184C437.3 184 448 173.3 448 160C448 146.7 437.3 136 424 136L312 136L312 120zM484.8 519.4L466.6 561.8C464.8 565.9 463.9 570.4 463.9 574.9L463.9 576.1C463.9 593.8 478.2 608.1 495.9 608.1C513.6 608.1 527.9 593.8 527.9 576.1L527.9 574.9C527.9 570.4 527 566 525.2 561.8L507 519.4C505.1 514.9 500.7 512 495.8 512C490.9 512 486.6 514.9 484.6 519.4z"/></svg>