<svg xmlns="http://www.w3.org/2000/svg" viewBox="0 0 640 640"><!--! Font Awesome Pro 7.2.0 by @fontawesome - https://fontawesome.com License - https://fontawesome.com/license (Commercial License) Copyright 2026 Fonticons, Inc. --><path fill="currentColor" d="M192 112L304 112L304 200C304 239.8 336.2 272 376 272L464 272L464 512C464 520.8 456.8 528 448 528L192 528C183.2 528 176 520.8 176 512L176 464L128 464L128 512C128 547.3 156.7 576 192 576L448 576C483.3 576 512 547.3 512 512L512 250.5C512 233.5 505.3 217.2 493.3 205.2L370.7 82.7C358.7 70.7 342.5 64 325.5 64L192 64C156.7 64 128 92.7 128 128L128 320L176 320L176 128C176 119.2 183.2 112 192 112zM352 131.9L444.1 224L376 224C362.7 224 352 213.3 352 200L352 131.9zM64 392C64 405.3 74.7 416 88 416L310.1 416L279.1 447C269.7 456.4 269.7 471.6 279.1 480.9C288.5 490.2 303.7 490.3 313 480.9L385 408.9C394.4 399.5 394.4 384.3 385 375L313 303C303.6 293.6 288.4 293.6 279.1 303C269.8 312.4 269.7 327.6 279.1 336.9L310.1 367.9L88 367.9C74.7 367.9 64 378.6 64 391.9z"/></svg>