<svg xmlns="http://www.w3.org/2000/svg" viewBox="0 0 640 640"><!--! Font Awesome Pro 7.2.0 by @fontawesome - https://fontawesome.com License - https://fontawesome.com/license (Commercial License) Copyright 2026 Fonticons, Inc. --><path fill="currentColor" d="M192 112L304 112L304 200C304 239.8 336.2 272 376 272L464 272L464 512C464 520.8 456.8 528 448 528L192 528C183.2 528 176 520.8 176 512L176 128C176 119.2 183.2 112 192 112zM352 131.9L444.1 224L376 224C362.7 224 352 213.3 352 200L352 131.9zM192 64C156.7 64 128 92.7 128 128L128 512C128 547.3 156.7 576 192 576L448 576C483.3 576 512 547.3 512 512L512 250.5C512 233.5 505.3 217.2 493.3 205.2L370.7 82.7C358.7 70.7 342.5 64 325.5 64L192 64zM303 489C312.4 498.4 327.6 498.4 336.9 489L400.9 425C410.3 415.6 410.3 400.4 400.9 391.1C391.5 381.8 376.3 381.7 367 391.1L344 414.1L344 328C344 314.7 333.3 304 320 304C306.7 304 296 314.7 296 328L296 414.1L273 391.1C263.6 381.7 248.4 381.7 239.1 391.1C229.8 400.5 229.7 415.7 239.1 425L303.1 489z"/></svg>