<svg xmlns="http://www.w3.org/2000/svg" viewBox="0 0 640 640"><!--! Font Awesome Pro 7.2.0 by @fontawesome - https://fontawesome.com License - https://fontawesome.com/license (Commercial License) Copyright 2026 Fonticons, Inc. --><path fill="currentColor" d="M304 112L192 112C183.2 112 176 119.2 176 128L176 512C176 520.8 183.2 528 192 528L448 528C456.8 528 464 520.8 464 512L464 272L376 272C336.2 272 304 239.8 304 200L304 112zM444.1 224L352 131.9L352 200C352 213.3 362.7 224 376 224L444.1 224zM128 128C128 92.7 156.7 64 192 64L325.5 64C342.5 64 358.8 70.7 370.8 82.7L493.3 205.3C505.3 217.3 512 233.6 512 250.6L512 512C512 547.3 483.3 576 448 576L192 576C156.7 576 128 547.3 128 512L128 128zM208 168C208 154.7 218.7 144 232 144L248 144C261.3 144 272 154.7 272 168C272 181.3 261.3 192 248 192L232 192C218.7 192 208 181.3 208 168zM208 248C208 234.7 218.7 224 232 224L248 224C261.3 224 272 234.7 272 248C272 261.3 261.3 272 248 272L232 272C218.7 272 208 261.3 208 248zM324 296C335 296 344 305 344 316L344 320L352 320C363 320 372 329 372 340C372 351 363 360 352 360L308.6 360C303.9 360 300 363.8 300 368.6C300 372.7 302.9 376.2 306.9 377L341 383.8C363.7 388.3 380 408.3 380 431.4C380 453.9 364.7 472.8 344 478.3L344 483.9C344 494.9 335 503.9 324 503.9C313 503.9 304 494.9 304 483.9L304 479.9L288 479.9C277 479.9 268 470.9 268 459.9C268 448.9 277 439.9 288 439.9L331.4 439.9C336.1 439.9 340 436.1 340 431.3C340 427.2 337.1 423.7 333.1 422.9L299 416.2C276.3 411.7 260 391.7 260 368.6C260 343.3 279.3 322.5 304 320.2L304 316C304 305 313 296 324 296z"/></svg>