<svg xmlns="http://www.w3.org/2000/svg" viewBox="0 0 640 640"><!--! Font Awesome Pro 7.2.0 by @fontawesome - https://fontawesome.com License - https://fontawesome.com/license (Commercial License) Copyright 2026 Fonticons, Inc. --><path fill="currentColor" d="M240 112L128 112C119.2 112 112 119.2 112 128L112 512C112 520.8 119.2 528 128 528L176 528L176 576L128 576C92.7 576 64 547.3 64 512L64 128C64 92.7 92.7 64 128 64L261.5 64C278.5 64 294.8 70.7 306.8 82.7L429.3 205.3C441.3 217.3 448 233.6 448 250.6L448 400.1L400 400.1L400 272.1L312 272.1C272.2 272.1 240 239.9 240 200.1L240 112.1zM380.1 224L288 131.9L288 200C288 213.3 298.7 224 312 224L380.1 224zM257.1 453.7L288 505.1L318.9 453.7C323.5 446 332.7 442.3 341.4 444.7C350.1 447.1 356 455 356 464L356 592C356 603 347 612 336 612C325 612 316 603 316 592L316 536.2L305.1 554.3C301.5 560.3 295 564 288 564C281 564 274.5 560.3 270.9 554.3L260 536.2L260 592C260 603 251 612 240 612C229 612 220 603 220 592L220 464C220 455 226 447.1 234.7 444.7C243.4 442.3 252.6 446 257.2 453.7zM400 444L432 444C465.1 444 492 470.9 492 504C492 537.1 465.1 564 432 564L420 564L420 592C420 603 411 612 400 612C389 612 380 603 380 592L380 464C380 453 389 444 400 444zM432 524C443 524 452 515 452 504C452 493 443 484 432 484L420 484L420 524L432 524zM513.9 542.1C510.1 538.3 508 533.3 508 528L508 464C508 453 517 444 528 444C539 444 548 453 548 464L548 508L572 508L572 464C572 453 581 444 592 444C603 444 612 453 612 464L612 592C612 603 603 612 592 612C581 612 572 603 572 592L572 548L528 548C522.7 548 517.6 545.9 513.9 542.1z"/></svg>