<svg xmlns="http://www.w3.org/2000/svg" viewBox="0 0 640 640"><!--! Font Awesome Pro 7.2.0 by @fontawesome - https://fontawesome.com License - https://fontawesome.com/license (Commercial License) Copyright 2026 Fonticons, Inc. --><path fill="currentColor" d="M337.1 72.5C410 140.5 465.8 224.9 499.8 318.6L500.5 320.5C508.1 341.4 512 363.4 512 385.6C512 490.8 425.2 576 320 576C214.8 576 128 490.7 128 385.6C128 363.4 131.9 341.4 139.5 320.5L140.2 318.6L185.3 335L184.6 336.9C178.9 352.5 176 369 176 385.6C176 463.7 240.8 528 320 528C399.2 528 464 463.7 464 385.6C464 369 461.1 352.5 455.4 336.9L455.4 336.9L454.7 335C425.7 255.2 379.7 182.8 320 122.8C260.3 182.9 214.3 255.3 185.3 335L140.2 318.6C174.2 224.8 230 140.5 302.9 72.5L306.2 69.5C309.9 66 314.9 64 320 64C325.1 64 330.1 66 333.8 69.5L337.1 72.5zM317.3 227.8C319 225.4 321.7 224 324.7 224C329.7 224 333.8 228.1 333.8 233.1L333.8 243.9C333.8 251.7 336.9 259.2 342.3 264.7L386.4 309.8C405.4 329.2 416 355.3 416 382.4L416 384C416 437 373 480 320 480C267 480 224 437 224 384L224 372.6C224 354.2 230.6 336.3 242.6 322.3L248.6 315.3C250.4 313.2 253 312 255.7 312C260.9 312 265.1 316.2 265.1 321.4L265.1 362.3C265.1 383.1 282 400 302.8 400C323.6 400 340.5 383.1 340.5 362.3L340.5 360.8C340.5 350.6 336.6 340.9 329.5 333.5L318.5 322.1C306.2 309.3 299.3 292.3 299.3 274.6C299.3 260.2 303.8 246.2 312.3 234.5L317.2 227.8z"/></svg>