<svg xmlns="http://www.w3.org/2000/svg" viewBox="0 0 640 640"><!--! Font Awesome Pro 7.2.0 by @fontawesome - https://fontawesome.com License - https://fontawesome.com/license (Commercial License) Copyright 2026 Fonticons, Inc. --><path fill="currentColor" d="M182 267.2C201.9 244.5 229.5 221.4 260 204.1C290.7 186.7 322.8 176 352 176C396.8 176 449.6 201.1 492.5 234.9C513.6 251.5 531.2 269.4 543.2 285.6C556 302.8 560 314.7 560 320C560 325.3 556 337.2 543.2 354.4C531.1 370.6 513.6 388.5 492.5 405.1C449.6 438.9 396.8 464 352 464C322.9 464 290.8 453.4 260.2 436C229.7 418.7 202.1 395.7 182.2 373C173.9 363.6 159.8 362.1 149.8 369.6L90.6 414L109.7 332.7C111.7 324.3 111.7 315.5 109.7 307L91 227.5L149.8 270.6C159.8 278 173.8 276.4 182 267.1zM352 128C311.8 128 271.5 142.4 236.3 162.3C208.1 178.3 182.2 198.4 161 219.5L88.8 166.6C83 162.3 75.9 160 68.7 160C46.7 160 30.5 180.5 35.5 201.9L62.9 318.2C63.2 319.4 63.2 320.7 62.9 321.9L33.7 446.2C31.2 457 34.4 468.3 42.2 476.1L42.2 476.1C53.4 487.3 71.2 488.6 84 479.1L161.5 421C182.7 441.9 208.5 462 236.6 477.9C271.7 497.8 312 512.1 352.1 512.1C412.3 512.1 475.5 479.9 522.3 443C546.1 424.3 566.8 403.5 581.9 383.2C596.2 363.9 608.1 341.5 608.1 320.1C608.1 298.7 596.2 276.3 581.9 257C566.9 236.7 546.1 215.9 522.3 197.2C475.4 160.3 412.3 128.1 352.1 128.1zM337 257C346.4 247.6 346.4 232.4 337 223.1C327.6 213.8 312.4 213.7 303.1 223.1L255.1 271.1C245.7 280.5 245.7 295.7 255.1 305C264.5 314.3 279.7 314.4 289 305L337 257zM449 273C458.4 263.6 458.4 248.4 449 239.1C439.6 229.8 424.4 229.7 415.1 239.1L287 367C277.6 376.4 277.6 391.6 287 400.9C296.4 410.2 311.6 410.3 320.9 400.9L449 273zM481 369C490.4 359.6 490.4 344.4 481 335.1C471.6 325.8 456.4 325.7 447.1 335.1L399.1 383.1C389.7 392.5 389.7 407.7 399.1 417C408.5 426.3 423.7 426.4 433 417L481 369z"/></svg>