<svg xmlns="http://www.w3.org/2000/svg" viewBox="0 0 640 640"><!--! Font Awesome Pro 7.2.0 by @fontawesome - https://fontawesome.com License - https://fontawesome.com/license (Commercial License) Copyright 2026 Fonticons, Inc. --><path fill="currentColor" d="M224 112L232 112C245.3 112 256 101.3 256 88C256 74.7 245.3 64 232 64L24 64C10.7 64 0 74.7 0 88C0 101.3 10.7 112 24 112L32 112L32 416C32 469 75 512 128 512C146.4 512 163.5 506.8 178.1 497.9C179.5 490.9 181.7 484 184.5 477.4L224 385.2L224 112zM80 112L176 112L176 240L80 240L80 112zM80 288L176 288L176 416C176 442.5 154.5 464 128 464C101.5 464 80 442.5 80 416L80 288zM312 64C298.7 64 288 74.7 288 88C288 101.3 298.7 112 312 112L320 112L320 281.4C320 282.5 319.8 283.6 319.4 284.6L228.6 496.3C225.5 503.4 224 511.1 224 518.8C224 550.4 249.6 576 281.2 576L550.8 576C582.4 576 608 550.4 608 518.8C608 511.1 606.4 503.4 603.4 496.3L512.6 284.6C512.2 283.6 512 282.5 512 281.4L512 112L520 112C533.3 112 544 101.3 544 88C544 74.7 533.3 64 520 64L312 64zM464 112L464 281.4C464 289 465.5 296.5 468.5 303.5L496.1 368L335.7 368L363.3 303.5C366.3 296.5 367.8 289 367.8 281.4L367.8 112L463.8 112zM272.7 515.2L315.2 416L516.7 416L559.2 515.2C559.7 516.3 559.9 517.6 559.9 518.8C559.9 523.9 555.8 528 550.7 528L281.1 528C276 528 271.9 523.9 271.9 518.8C271.9 517.6 272.2 516.3 272.6 515.2z"/></svg>