<svg xmlns="http://www.w3.org/2000/svg" viewBox="0 0 640 640"><!--! Font Awesome Pro 7.2.0 by @fontawesome - https://fontawesome.com License - https://fontawesome.com/license (Commercial License) Copyright 2026 Fonticons, Inc. --><path fill="currentColor" d="M128.1 144C119.3 144 112.1 151.2 112.1 160L112.1 480C112.1 488.8 119.3 496 128.1 496L293.6 496C289.8 504.1 287 512.6 285.2 521.5L280.7 544L128.1 544C92.8 544 64.1 515.3 64.1 480L64.1 160C64.1 124.7 92.8 96 128.1 96L370.8 96C387.8 96 404.1 102.7 416.1 114.7L493.3 192C505.3 204 512 220.3 512 237.3L512 275C502.7 279.8 493.9 286.2 486.1 294L464 316.1L464 237.4C464 233.2 462.3 229.1 459.3 226.1L384 150.8L384 240.2C384 257.9 369.7 272.2 352 272.2L192 272.2C174.3 272.2 160 257.9 160 240.2L160 144.2L128 144.2zM208.1 144L208.1 224L336.1 224L336.1 144L208.1 144zM224.1 384C224.1 348.7 252.8 320 288.1 320C323.4 320 352.1 348.7 352.1 384C352.1 419.3 323.4 448 288.1 448C252.8 448 224.1 419.3 224.1 384zM332.3 531C334.8 518.6 340.9 507.2 349.8 498.3L468.7 379.4L548.7 459.4L429.8 578.3C420.9 587.2 409.5 593.3 397.1 595.8L337.5 607.7C336.6 607.9 335.6 608 334.6 608C326.6 608 320 601.5 320 593.4C320 592.4 320.1 591.5 320.3 590.5L332.3 531zM600.1 408L571.3 436.8L491.3 356.8L520.1 328C542.2 305.9 578 305.9 600.1 328C622.2 350.1 622.2 385.9 600.1 408z"/></svg>