<svg xmlns="http://www.w3.org/2000/svg" viewBox="0 0 640 640"><!--! Font Awesome Pro 7.2.0 by @fontawesome - https://fontawesome.com License - https://fontawesome.com/license (Commercial License) Copyright 2026 Fonticons, Inc. --><path fill="currentColor" d="M544 232C544 265.6 531.8 296.3 511.7 320C531.8 343.7 544 374.4 544 408C544 483.1 483.1 544 408 544C374.4 544 343.7 531.8 320 511.7C296.3 531.8 265.6 544 232 544C156.9 544 96 483.1 96 408C96 374.4 108.2 343.7 128.3 320C108.2 296.3 96 265.6 96 232C96 156.9 156.9 96 232 96C265.6 96 296.3 108.2 320 128.3C343.7 108.2 374.4 96 408 96C483.1 96 544 156.9 544 232zM288.9 164.9C273.5 151.8 253.7 144 232 144C183.4 144 144 183.4 144 232C144 253.8 151.8 273.6 164.9 288.9C180.1 306.8 180.1 333.1 164.9 351.1C151.8 366.5 144 386.3 144 408C144 456.6 183.4 496 232 496C253.8 496 273.6 488.2 288.9 475.1C306.8 459.9 333.1 459.9 351.1 475.1C366.5 488.2 386.3 496 408 496C456.6 496 496 456.6 496 408C496 386.2 488.2 366.4 475.1 351.1C459.9 333.2 459.9 306.9 475.1 288.9C488.2 273.5 496 253.7 496 232C496 183.4 456.6 144 408 144C386.2 144 366.4 151.8 351.1 164.9C333.2 180.1 306.9 180.1 288.9 164.9zM352 320C352 302.3 337.7 288 320 288C302.3 288 288 302.3 288 320C288 337.7 302.3 352 320 352C337.7 352 352 337.7 352 320zM240 320C240 275.8 275.8 240 320 240C364.2 240 400 275.8 400 320C400 364.2 364.2 400 320 400C275.8 400 240 364.2 240 320z"/></svg>