<svg xmlns="http://www.w3.org/2000/svg" viewBox="0 0 640 640"><!--! Font Awesome Pro 7.2.0 by @fontawesome - https://fontawesome.com License - https://fontawesome.com/license (Commercial License) Copyright 2026 Fonticons, Inc. --><path fill="currentColor" d="M266.7 96C280.5 96 294 100.5 305.1 108.8L343.5 137.6C349 141.8 355.8 144 362.7 144L512 144C547.3 144 576 172.7 576 208L576 448C576 483.3 547.3 512 512 512L128 512C92.7 512 64 483.3 64 448L64 160C64 124.7 92.7 96 128 96L266.7 96zM128 144C119.2 144 112 151.2 112 160L112 448C112 456.8 119.2 464 128 464L512 464C520.8 464 528 456.8 528 448L528 208C528 199.2 520.8 192 512 192L362.7 192C345.4 192 328.5 186.4 314.7 176L276.3 147.2C273.5 145.1 270.1 144 266.7 144L128 144zM356.7 263.9C364.5 253.2 379.5 250.8 390.2 258.6C400.9 266.4 403.3 281.4 395.5 292.1L319.4 396.8C315.2 402.5 308.7 406.1 301.6 406.6C294.5 407.1 287.6 404.4 282.7 399.3L246.8 362.1C237.6 352.6 237.9 337.4 247.4 328.2C256.9 319 272.1 319.2 281.3 328.8L297.4 345.4L356.7 263.8z"/></svg>