<svg xmlns="http://www.w3.org/2000/svg" viewBox="0 0 640 640"><!--! Font Awesome Pro 7.2.0 by @fontawesome - https://fontawesome.com License - https://fontawesome.com/license (Commercial License) Copyright 2026 Fonticons, Inc. --><path fill="currentColor" d="M320 96C329.5 96 338 101.5 341.9 110.2L515.1 496L536 496C549.3 496 560 506.7 560 520C560 533.3 549.3 544 536 544L440 544C426.7 544 416 533.3 416 520C416 506.7 426.7 496 440 496L462.5 496L426.6 416L213.4 416L177.5 496L200 496C213.3 496 224 506.7 224 520C224 533.3 213.3 544 200 544L104 544C90.7 544 80 533.3 80 520C80 506.7 90.7 496 104 496L124.9 496L298.1 110.2C302 101.5 310.5 96 320 96zM320 178.6L235 368L405 368L320 178.6z"/></svg>