<svg xmlns="http://www.w3.org/2000/svg" viewBox="0 0 640 640"><!--! Font Awesome Pro 7.2.0 by @fontawesome - https://fontawesome.com License - https://fontawesome.com/license (Commercial License) Copyright 2026 Fonticons, Inc. --><path fill="currentColor" d="M136.6 212.4C197.9 118.5 313.3 59.7 507.3 86.5L511.5 87.3C532.6 91.9 550 108.9 553.6 131.5L555.9 148C566.5 232.6 559.2 342.1 503.4 427.6C444 518.6 333.9 576.5 150.7 555.7L132.7 553.5C111.2 550.5 92.7 534.8 87.3 513L86.4 508.6C72.8 422.2 77.1 303.6 136.6 212.4zM128.1 418C127.6 447 129.8 475.3 133.9 501.1L134.5 502.6C135.3 504.1 137 505.5 139.4 505.9L156 508C179.5 510.7 201.5 511.9 222 511.9L128 417.9zM354.4 132.4C265 145.7 210.1 187.6 176.8 238.6C154 273.6 140.5 314.2 133.6 355.7L285.5 507.6C374.9 494.3 429.9 452.5 463.2 401.4C486 366.4 499.5 325.8 506.4 284.3L354.4 132.4zM207 335C215.8 326.2 229.7 325.7 239.1 333.3L240.9 335L304.9 399L306.6 400.8C314.3 410.2 313.7 424.1 304.9 432.9C296.1 441.7 282.2 442.2 272.8 434.6L271 432.9L207 368.9L205.3 367.1C197.6 357.7 198.2 343.8 207 335zM271 271C279.8 262.2 293.7 261.7 303.1 269.3L304.9 271L368.9 335L370.6 336.8C378.3 346.2 377.7 360.1 368.9 368.9C360.1 377.7 346.2 378.2 336.8 370.6L335 368.9L271 304.9L269.3 303.1C261.6 293.7 262.2 279.8 271 271zM335 207C343.8 198.2 357.7 197.7 367.1 205.3L368.9 207L432.9 271L434.6 272.8C442.3 282.2 441.7 296.1 432.9 304.9C424.1 313.7 410.2 314.2 400.8 306.6L399 304.9L335 240.9L333.3 239.1C325.6 229.7 326.2 215.8 335 207zM417.9 128L511.8 221.9C512.2 198.6 510.9 175.8 508.3 154.3L506.1 138.9C505.9 137.4 504.7 135.7 502.8 134.7L500.6 134C470.8 130 443.3 128 417.9 128z"/></svg>