<svg xmlns="http://www.w3.org/2000/svg" viewBox="0 0 640 640"><!--! Font Awesome Pro 7.2.0 by @fontawesome - https://fontawesome.com License - https://fontawesome.com/license (Commercial License) Copyright 2026 Fonticons, Inc. --><path fill="currentColor" d="M256.4 204.1L228.3 176L320.4 83.9L348.5 112L256.4 204.1zM188.7 204.3L228.1 243.7C239.3 254.9 255.5 258.1 269.6 253.2L311.4 295L79.4 527C70 536.4 70 551.6 79.4 560.9C88.8 570.2 104 570.3 113.3 560.9L345.3 328.9L387.1 370.7C382.2 384.7 385.4 401 396.6 412.2L436 451.6C451.6 467.2 476.9 467.2 492.6 451.6L596.1 348.3C611.7 332.7 611.7 307.4 596.1 291.7L556.7 252.3C545.5 241.1 529.3 237.9 515.2 242.8L397.6 125.2C402.5 111.2 399.3 94.9 388.1 83.7L348.7 44.3C333.1 28.7 307.8 28.7 292.1 44.3L188.7 147.7C173.1 163.3 173.1 188.6 188.7 204.3zM478.5 274L418.4 334.1L306.4 222.1L366.5 162L478.5 274zM556.6 320L464.5 412.1L436.4 384L528.5 291.9L556.6 320z"/></svg>