<svg xmlns="http://www.w3.org/2000/svg" viewBox="0 0 640 640"><!--! Font Awesome Pro 7.2.0 by @fontawesome - https://fontawesome.com License - https://fontawesome.com/license (Commercial License) Copyright 2026 Fonticons, Inc. --><path fill="currentColor" d="M152 64C145.3 64 138.9 66.8 134.3 71.8C129.7 76.8 127.5 83.4 128.1 90.1L164.3 510.2C167.5 547.4 198.7 576 236 576L404 576C441.4 576 472.5 547.4 475.7 510.2L511.9 90.1C512.5 83.4 510.2 76.8 505.7 71.8C501.2 66.8 494.7 64 488 64L152 64zM185.1 192L178.2 112L461.9 112L455 192L185.1 192zM189.2 240L450.8 240L427.9 506.1C426.8 518.5 416.4 528 404 528L236 528C223.5 528 213.2 518.5 212.1 506.1L189.2 240z"/></svg>