<svg xmlns="http://www.w3.org/2000/svg" viewBox="0 0 640 640"><!--! Font Awesome Pro 7.2.0 by @fontawesome - https://fontawesome.com License - https://fontawesome.com/license (Commercial License) Copyright 2026 Fonticons, Inc. --><path fill="currentColor" d="M320 528C205.1 528 112 434.9 112 320C112 205.1 205.1 112 320 112C323.5 112 326.9 112.1 330.3 112.3L296.5 137.6C291.1 141.6 288 148 288 154.7L288 163.8C288 170.6 293.5 176.1 300.3 176.1C302.7 176.1 305.1 175.4 307.1 174L348.9 146.1C350.9 144.8 353.3 144 355.7 144L356.7 144C362.9 144 368 149.1 368 155.3C368 158.3 366.8 161.2 364.7 163.3L344.8 183.2C339 189 331.9 193.4 324.1 196L297.6 204.8C291.8 206.7 288 212.1 288 218.2C288 221.9 286.5 225.5 283.9 228.2L266 246.1C259.6 252.5 256.1 261.1 256.1 270.1L256.1 274.4C256.1 290.8 269.7 304.1 286 304.1C297 304.1 307.2 297.9 312.1 288.1L316.1 280C318.5 275.2 323.5 272.1 328.9 272.1C333.4 272.1 337.6 274.2 340.3 277.8L356.6 299.5C358.7 302.4 362.1 304 365.7 304C374.1 304 379.6 295.1 375.8 287.6L374.7 285.3C371.2 278.3 374.7 269.8 382.2 267.3L403.4 260.2C411 257.7 416.1 250.6 416.1 242.6C416.1 232.3 424.4 224 434.7 224L464.1 224C472.9 224 480.1 231.2 480.1 240C480.1 248.8 472.9 256 464.1 256L443.4 256C436.2 256 429.2 258.9 424.1 264L419.4 268.7C417.3 270.8 416.1 273.7 416.1 276.7C416.1 282.9 421.2 288 427.4 288L438.7 288C444.7 288 450.5 290.4 454.7 294.6L461.2 301.1C463 302.9 464 305.4 464 307.9C464 310.4 463 312.9 461.2 314.7L453.7 322.2C450 326 448 330.9 448 336C448 341.1 450 346 453.7 349.7L472 368C482.2 378.2 496.1 384 510.6 384L517.9 384C513.8 396.6 508.6 408.7 502.3 420.1C498.6 417.5 494.1 416 489.3 416C483.3 416 477.5 413.6 473.3 409.4L460 396C452.3 388.3 442 384 431.1 384C421.4 384 411.9 380.5 404.5 374.2L378 351.4C366.4 341.5 351.6 336 336.4 336L315.5 336C302.9 336 290.5 339.7 280 346.7L252.5 365C234.7 376.9 224 396.9 224 418.3L224 421.5C224 438.5 230.7 454.8 242.7 466.8L258.7 482.8C267.2 491.3 278.7 496.1 290.7 496.1L312 496.1C325.3 496.1 336 506.8 336 520.1C336 522.6 336.4 525.1 337.1 527.4C331.4 527.9 325.7 528.1 320 528.1zM320 576C461.4 576 576 461.4 576 320C576 178.6 461.4 64 320 64C178.6 64 64 178.6 64 320C64 461.4 178.6 576 320 576zM251.3 187.3C257.5 181.1 257.5 170.9 251.3 164.7C245.1 158.5 234.9 158.5 228.7 164.7L196.7 196.7C190.5 202.9 190.5 213.1 196.7 219.3C202.9 225.5 213.1 225.5 219.3 219.3L251.3 187.3z"/></svg>