<svg xmlns="http://www.w3.org/2000/svg" viewBox="0 0 640 640"><!--! Font Awesome Pro 7.2.0 by @fontawesome - https://fontawesome.com License - https://fontawesome.com/license (Commercial License) Copyright 2026 Fonticons, Inc. --><path fill="currentColor" d="M152 96C121.1 96 96 121.1 96 152L96 488C96 518.9 121.1 544 152 544L488 544C518.9 544 544 518.9 544 488L544 152C544 121.1 518.9 96 488 96L152 96zM192 144L192 296L144 296L144 152C144 147.6 147.6 144 152 144L192 144zM144 344L192 344L192 496L152 496C147.6 496 144 492.4 144 488L144 344zM240 496L240 344L296 344L296 496L240 496zM344 496L344 344L400 344L400 496L344 496zM448 496L448 344L496 344L496 488C496 492.4 492.4 496 488 496L448 496zM496 296L448 296L448 144L488 144C492.4 144 496 147.6 496 152L496 296zM400 144L400 296L344 296L344 144L400 144zM296 144L296 296L240 296L240 144L296 144z"/></svg>