<svg xmlns="http://www.w3.org/2000/svg" viewBox="0 0 640 640"><!--! Font Awesome Pro 7.2.0 by @fontawesome - https://fontawesome.com License - https://fontawesome.com/license (Commercial License) Copyright 2026 Fonticons, Inc. --><path fill="currentColor" d="M320 112C290.8 112 265.2 127.7 251.2 151.2C247.7 157.1 241.7 161.3 234.9 162.5C228.1 163.7 221.1 162 215.7 157.7C204.8 149.1 191.1 143.9 176 143.9C140.7 143.9 112 172.6 112 207.9C112 237.2 131.7 261.9 158.5 269.5C168.8 272.4 176 281.9 176 292.6L176 399.9L216 399.9L216 279.9C216 266.6 226.7 255.9 240 255.9C253.3 255.9 264 266.6 264 279.9L264 399.9L296 399.9L296 279.9C296 266.6 306.7 255.9 320 255.9C333.3 255.9 344 266.6 344 279.9L344 399.9L376 399.9L376 279.9C376 266.6 386.7 255.9 400 255.9C413.3 255.9 424 266.6 424 279.9L424 399.9L464 399.9L464 292.6C464 281.9 471.1 272.4 481.5 269.5C508.4 261.9 528 237.2 528 207.9C528 172.6 499.3 143.9 464 143.9C449 143.9 435.3 149 424.3 157.7C418.9 162 411.9 163.7 405.1 162.5C398.3 161.3 392.4 157.1 388.8 151.2C374.8 127.7 349.2 112 320 112zM464 448L176 448L176 504C176 517.3 186.7 528 200 528L440 528C453.3 528 464 517.3 464 504L464 448zM224.3 106.9C247.8 80.6 281.9 64 320 64C358.1 64 392.2 80.6 415.7 106.9C430.3 99.9 446.7 96 464 96C525.9 96 576 146.1 576 208C576 252.7 549.8 291.2 512 309.2L512 504C512 543.8 479.8 576 440 576L200 576C160.2 576 128 543.8 128 504L128 309.2C90.2 291.2 64 252.7 64 208C64 146.1 114.1 96 176 96C193.3 96 209.7 99.9 224.3 106.9z"/></svg>