<svg xmlns="http://www.w3.org/2000/svg" viewBox="0 0 640 640"><!--! Font Awesome Pro 7.2.0 by @fontawesome - https://fontawesome.com License - https://fontawesome.com/license (Commercial License) Copyright 2026 Fonticons, Inc. --><path fill="currentColor" d="M288 64C164.3 64 64 164.3 64 288C64 345.8 86 398.6 122 438.3C126.2 443 128 448 128 452.1L128 552C128 565.3 138.7 576 152 576C165.3 576 176 565.3 176 552L176 452.1C176 434 168.2 417.9 157.5 406.1C129.2 374.9 112 333.5 112 288C112 190.8 190.8 112 288 112C374.6 112 446.7 174.6 461.3 257.1C462.2 261.9 464.5 266.4 468 269.9L520.2 322.1C525.2 327.1 528.1 334 528.1 341.1C528.1 356 516.1 368 501.2 368L488 368C474.7 368 464 378.7 464 392L464 440C464 462.1 446.1 480 424 480L376 480C362.7 480 352 490.7 352 504L352 552C352 565.3 362.7 576 376 576C389.3 576 400 565.3 400 552L400 528L424 528C472.6 528 512 488.6 512 440L512 415.2C548.2 409.9 576 378.7 576 341.1C576 321.2 568.1 302.2 554.1 288.1L507.1 241.1C485.5 139.9 395.7 64 288 64zM281.6 215.5C270.5 200.7 253.1 192 234.7 192C202.3 192 176 218.3 176 250.7L176 256C176 305.1 241.8 354.1 272.5 374.3C282 380.5 294 380.5 303.4 374.3C334.1 354.1 399.9 305 399.9 256L399.9 250.7C399.9 218.3 373.6 192 341.2 192C322.7 192 305.3 200.7 294.3 215.5L287.9 224L281.5 215.5z"/></svg>