<svg xmlns="http://www.w3.org/2000/svg" viewBox="0 0 640 640"><!--! Font Awesome Pro 7.2.0 by @fontawesome - https://fontawesome.com License - https://fontawesome.com/license (Commercial License) Copyright 2026 Fonticons, Inc. --><path fill="currentColor" d="M410.9 144C383.6 144 357.9 157.1 341.9 179.2L307.5 226.8C303 233 295.8 236.7 288.1 236.7C280.4 236.7 273.2 233 268.7 226.8L234.3 179.2C218.3 157.1 192.6 144 165.3 144C118.3 144 80.2 182.1 80.2 229.1C80.2 279 112.2 327.5 148.3 371.4C189.4 421.3 239.7 465.3 274.1 491.7C276.8 510.1 282 527.6 289.5 543.9C289 543.9 288.6 543.9 288.1 543.9C272.5 543.9 257.3 539.2 245 529.8C208.5 501.9 155.3 455.4 111.2 401.9C75 358 32.1 297.7 32.1 229.1C32.1 155.6 91.7 96 165.2 96C207.9 96 248 116.5 273.1 151.1L288.1 171.8L303.1 151.1C328.1 116.5 368.3 96 411 96C484.5 96 544.1 155.6 544.1 229.1C544.1 248.6 540.6 267.4 534.8 285.4C520.1 279.6 504.5 275.5 488.2 273.5C493.2 258.9 496.1 244.1 496.1 229.1C496.1 182.1 458 144 411 144zM464 320C543.5 320 608 384.5 608 464C608 543.5 543.5 608 464 608C384.5 608 320 543.5 320 464C320 384.5 384.5 320 464 320zM480 400C480 391.2 472.8 384 464 384C455.2 384 448 391.2 448 400L448 448L400 448C391.2 448 384 455.2 384 464C384 472.8 391.2 480 400 480L448 480L448 528C448 536.8 455.2 544 464 544C472.8 544 480 536.8 480 528L480 480L528 480C536.8 480 544 472.8 544 464C544 455.2 536.8 448 528 448L480 448L480 400z"/></svg>