<svg xmlns="http://www.w3.org/2000/svg" viewBox="0 0 640 640"><!--! Font Awesome Pro 7.2.0 by @fontawesome - https://fontawesome.com License - https://fontawesome.com/license (Commercial License) Copyright 2026 Fonticons, Inc. --><path fill="currentColor" d="M320 112C434.9 112 528 205.1 528 320C528 434.9 434.9 528 320 528C205.1 528 112 434.9 112 320C112 205.1 205.1 112 320 112zM320 576C461.4 576 576 461.4 576 320C576 178.6 461.4 64 320 64C178.6 64 64 178.6 64 320C64 461.4 178.6 576 320 576zM313.6 263.5C302.5 248.7 285.1 240 266.7 240C234.3 240 208 266.3 208 298.7L208 304C208 353.1 273.8 402.1 304.5 422.3C314 428.5 326 428.5 335.4 422.3C366.1 402.1 431.9 353 431.9 304L431.9 298.7C431.9 266.3 405.6 240 373.2 240C354.7 240 337.3 248.7 326.3 263.5L319.9 272L313.5 263.5z"/></svg>