<svg xmlns="http://www.w3.org/2000/svg" viewBox="0 0 640 640"><!--! Font Awesome Pro 7.2.0 by @fontawesome - https://fontawesome.com License - https://fontawesome.com/license (Commercial License) Copyright 2026 Fonticons, Inc. --><path fill="currentColor" d="M525.6 288L574.1 288C559.6 172.2 467.8 80.4 352 66L352 114.5C441.3 128.2 511.8 198.7 525.6 288zM574 352L525.5 352C511.8 441.3 441.3 511.8 352 525.6L352 574.1C467.8 559.7 559.6 467.9 574 352.1zM66 352C80.4 467.8 172.2 559.6 288 574L288 525.5C198.8 511.8 128.2 441.3 114.5 352L66 352zM66 288L114.5 288C128.2 198.7 198.8 128.2 288 114.4L288 66C172.2 80.4 80.4 172.2 66 288zM256 224C256 210.7 245.3 200 232 200C218.7 200 208 210.7 208 224L208 416C208 429.3 218.7 440 232 440C245.3 440 256 429.3 256 416L256 344L384 344L384 416C384 429.3 394.7 440 408 440C421.3 440 432 429.3 432 416L432 224C432 210.7 421.3 200 408 200C394.7 200 384 210.7 384 224L384 296L256 296L256 224z"/></svg>