<svg xmlns="http://www.w3.org/2000/svg" viewBox="0 0 640 640"><!--! Font Awesome Pro 7.2.0 by @fontawesome - https://fontawesome.com License - https://fontawesome.com/license (Commercial License) Copyright 2026 Fonticons, Inc. --><path fill="currentColor" d="M256 128C256 92.7 284.7 64 320 64L544 64C579.3 64 608 92.7 608 128L608 512C608 547.3 579.3 576 544 576L96 576C60.7 576 32 547.3 32 512L32 224C32 188.7 60.7 160 96 160L256 160L256 128zM96 528L258 528C256.7 522.9 256 517.5 256 512L256 208L96 208C87.2 208 80 215.2 80 224L80 512C80 520.8 87.2 528 96 528zM384 528L384 448C384 430.3 398.3 416 416 416L448 416C465.7 416 480 430.3 480 448L480 528L544 528C552.8 528 560 520.8 560 512L560 128C560 119.2 552.8 112 544 112L320 112C311.2 112 304 119.2 304 128L304 512C304 520.8 311.2 528 320 528L384 528zM408 184C408 175.2 415.2 168 424 168L440 168C448.8 168 456 175.2 456 184L456 216L488 216C496.8 216 504 223.2 504 232L504 248C504 256.8 496.8 264 488 264L456 264L456 296C456 304.8 448.8 312 440 312L424 312C415.2 312 408 304.8 408 296L408 264L376 264C367.2 264 360 256.8 360 248L360 232C360 223.2 367.2 216 376 216L408 216L408 184zM168 264L184 264C192.8 264 200 271.2 200 280L200 304L224 304C232.8 304 240 311.2 240 320L240 336C240 344.8 232.8 352 224 352L200 352L200 376C200 384.8 192.8 392 184 392L168 392C159.2 392 152 384.8 152 376L152 352L128 352C119.2 352 112 344.8 112 336L112 320C112 311.2 119.2 304 128 304L152 304L152 280C152 271.2 159.2 264 168 264z"/></svg>