<svg xmlns="http://www.w3.org/2000/svg" viewBox="0 0 640 640"><!--! Font Awesome Pro 7.2.0 by @fontawesome - https://fontawesome.com License - https://fontawesome.com/license (Commercial License) Copyright 2026 Fonticons, Inc. --><path fill="currentColor" d="M335.8 69.9C326.8 62 313.3 62 304.3 69.9L120.3 229.9C110.3 238.6 109.2 253.8 117.9 263.8C124.6 271.5 135 273.9 144 270.7L144 366.4C159.4 359.3 175.6 354.8 192 353L192 231.2L320 119.9L448 231.2L448 352.1C464.2 352.2 480.4 354.9 496 360.1L496 270.7C505 273.9 515.5 271.5 522.1 263.8C530.8 253.8 529.7 238.6 519.7 229.9L335.7 69.9zM272 264L272 312C272 325.3 282.7 336 296 336L344 336C357.3 336 368 325.3 368 312L368 264C368 250.7 357.3 240 344 240L296 240C282.7 240 272 250.7 272 264zM474.6 476.1C493.6 490.5 516.5 504.3 541.8 509.4C568.3 514.8 596.1 510.2 622.5 490.3C633.1 482.3 635.2 467.3 627.2 456.7C619.2 446.1 604.2 444 593.6 452C578.7 463.2 565 465.1 551.3 462.3C536.4 459.3 520.4 450.4 503.5 437.7C465.1 408.7 413 408.7 374.5 437.7C350.5 455.8 333.8 464 320 464C306.2 464 289.5 455.8 265.5 437.7C227.1 408.7 175 408.7 136.5 437.7C114.9 454 95.2 463.5 77.6 463.4C68 463.3 57.7 460.4 46.4 451.9C35.8 443.9 20.8 446 12.8 456.6C4.8 467.2 7 482.3 17.6 490.3C36.7 504.7 57 511.3 77.4 511.4C111.3 511.6 141.7 494 165.5 476.1C186.8 460 215.4 460 236.7 476.1C260.9 494.4 289 512 320.1 512C351.2 512 379.2 494.3 403.5 476.1C424.8 460 453.4 460 474.7 476.1zM403.4 572.1C424.7 556 453.3 556 474.6 572.1C493.6 586.5 516.5 600.3 541.8 605.4C568.3 610.8 596.1 606.2 622.5 586.3C633.1 578.3 635.2 563.3 627.2 552.7C619.2 542.1 604.2 540 593.6 548C578.7 559.2 565 561.1 551.3 558.3C536.4 555.3 520.4 546.4 503.5 533.7C465.1 504.7 413 504.7 374.5 533.7C350.5 551.8 333.8 560 320 560C306.2 560 289.5 551.8 265.5 533.7C227.1 504.7 175 504.7 136.5 533.7C114.9 550 95.2 559.5 77.6 559.4C68 559.3 57.7 556.4 46.4 547.9C35.8 539.9 20.8 542 12.8 552.6C4.8 563.2 7 578.3 17.6 586.3C36.7 600.7 57 607.3 77.4 607.4C111.3 607.6 141.7 590 165.5 572.1C186.8 556 215.4 556 236.7 572.1C260.9 590.4 289 608 320.1 608C351.2 608 379.2 590.3 403.5 572.1z"/></svg>