<svg xmlns="http://www.w3.org/2000/svg" viewBox="0 0 640 640"><!--! Font Awesome Pro 7.2.0 by @fontawesome - https://fontawesome.com License - https://fontawesome.com/license (Commercial License) Copyright 2026 Fonticons, Inc. --><path fill="currentColor" d="M304 70.1C294.9 61.9 281.1 61.9 272 70.1L40 278.1C30.1 286.9 29.3 302.1 38.2 312C47.1 321.9 62.2 322.7 72.1 313.8L80.1 306.6L80.1 511.9C80.1 547.2 108.8 575.9 144.1 575.9L340.1 575.9C329.6 561.3 321.1 545.2 315 527.9L144 528C135.2 528 128 520.8 128 512L128 263.7L288 120.3L460.9 275.3C472.3 273.2 484 272.1 496 272.1C508.7 272.1 521.2 273.3 533.2 275.7L304 70.1zM305.5 439.9C311.3 393.2 334 351.7 367.1 321.6C365 320.5 362.5 319.9 360 319.9L320 319.9L320 279.9C320 271.1 312.8 263.9 304 263.9L272 263.9C263.2 263.9 256 271.1 256 279.9L256 319.9L216 319.9C207.2 319.9 200 327.1 200 335.9L200 367.9C200 376.7 207.2 383.9 216 383.9L256 383.9L256 423.9C256 432.7 263.2 439.9 272 439.9L304 439.9C304.5 439.9 305 439.9 305.5 439.8zM496 608C575.5 608 640 543.5 640 464C640 384.5 575.5 320 496 320C416.5 320 352 384.5 352 464C352 543.5 416.5 608 496 608zM496 508C507 508 516 517 516 528C516 539 507 548 496 548C485 548 476 539 476 528C476 517 485 508 496 508zM496 368C504.8 368 512 375.2 512 384L512 464C512 472.8 504.8 480 496 480C487.2 480 480 472.8 480 464L480 384C480 375.2 487.2 368 496 368z"/></svg>