<svg xmlns="http://www.w3.org/2000/svg" viewBox="0 0 640 640"><!--! Font Awesome Pro 7.2.0 by @fontawesome - https://fontawesome.com License - https://fontawesome.com/license (Commercial License) Copyright 2026 Fonticons, Inc. --><path fill="currentColor" d="M272 70.1C281.1 61.9 294.9 61.9 304 70.1L533.2 275.6C521.2 273.2 508.7 272 496 272C484 272 472.2 273.1 460.9 275.2L288 120.2L128 263.7L128 512C128 520.8 135.2 528 144 528L192 528L192 424C192 384.2 224.2 352 264 352L312 352C320.8 352 329.2 353.6 336.9 356.4C327.8 369.9 320.3 384.5 314.8 400.1C313.9 400 312.9 399.9 311.9 399.9L263.9 399.9C250.6 399.9 239.9 410.6 239.9 423.9L239.9 527.9L314.8 527.9C320.9 545.2 329.4 561.3 339.9 575.9L143.9 575.9C108.6 575.9 79.9 547.2 79.9 511.9L79.9 306.6L71.9 313.8C62 322.6 46.9 321.8 38 312C29.1 302.2 30 287 39.8 278.1L272 70.1zM496 320C575.5 320 640 384.5 640 464C640 543.5 575.5 608 496 608C416.5 608 352 543.5 352 464C352 384.5 416.5 320 496 320zM496 548C507 548 516 539 516 528C516 517 507 508 496 508C485 508 476 517 476 528C476 539 485 548 496 548zM496 368C487.2 368 480 375.2 480 384L480 464C480 472.8 487.2 480 496 480C504.8 480 512 472.8 512 464L512 384C512 375.2 504.8 368 496 368z"/></svg>