<svg xmlns="http://www.w3.org/2000/svg" viewBox="0 0 640 640"><!--! Font Awesome Pro 7.2.0 by @fontawesome - https://fontawesome.com License - https://fontawesome.com/license (Commercial License) Copyright 2026 Fonticons, Inc. --><path fill="currentColor" d="M176 272C176 197.5 227 134.8 296 117L296 169.4C296 190.6 312 206.5 330.6 209.6C406.3 222.3 464 288.1 464 367.4C464 441.9 413 504.6 344 522.4L344 470C344 448.8 328 432.9 309.4 429.8C233.7 417.1 176 351.3 176 272zM344 106.1C344 83.4 323.9 62.7 298.4 67.4C201.5 85.1 128 169.9 128 272C128 373.2 200.3 457.5 296 476.2L296 533.3C296 556 316.1 576.7 341.6 572C438.5 554.3 512 469.4 512 367.4C512 266.2 439.7 181.9 344 163.2L344 106.1zM304 320C304 311.2 311.2 304 320 304C328.8 304 336 311.2 336 320C336 328.8 328.8 336 320 336C311.2 336 304 328.8 304 320zM384 320C384 284.7 355.3 256 320 256C284.7 256 256 284.7 256 320C256 355.3 284.7 384 320 384C355.3 384 384 355.3 384 320z"/></svg>