<svg xmlns="http://www.w3.org/2000/svg" viewBox="0 0 640 640"><!--! Font Awesome Pro 7.2.0 by @fontawesome - https://fontawesome.com License - https://fontawesome.com/license (Commercial License) Copyright 2026 Fonticons, Inc. --><path fill="currentColor" d="M160 56C160 69.3 170.7 80 184 80L456 80C469.3 80 480 69.3 480 56C480 42.7 469.3 32 456 32L184 32C170.7 32 160 42.7 160 56zM112 152C112 165.3 122.7 176 136 176L504 176C517.3 176 528 165.3 528 152C528 138.7 517.3 128 504 128L136 128C122.7 128 112 138.7 112 152zM512 272C520.8 272 528 279.2 528 288L528 480C528 488.8 520.8 496 512 496L128 496C119.2 496 112 488.8 112 480L112 288C112 279.2 119.2 272 128 272L512 272zM128 224C92.7 224 64 252.7 64 288L64 480C64 515.3 92.7 544 128 544L512 544C547.3 544 576 515.3 576 480L576 288C576 252.7 547.3 224 512 224L128 224zM176 368C193.7 368 208 353.7 208 336C208 318.3 193.7 304 176 304C158.3 304 144 318.3 144 336C144 353.7 158.3 368 176 368zM384 320C376.4 320 369.3 323.6 364.8 329.6L324 384L307.2 361.6C302.7 355.6 295.6 352 288 352C280.4 352 273.3 355.6 268.8 361.6L220.8 425.6C215.3 432.9 214.5 442.6 218.5 450.7C222.5 458.8 230.9 464 240 464L456 464C465.1 464 473.4 458.9 477.5 450.7C481.6 442.5 480.7 432.8 475.2 425.6L403.2 329.6C398.7 323.6 391.6 320 384 320z"/></svg>