<svg xmlns="http://www.w3.org/2000/svg" viewBox="0 0 640 640"><!--! Font Awesome Pro 7.2.0 by @fontawesome - https://fontawesome.com License - https://fontawesome.com/license (Commercial License) Copyright 2026 Fonticons, Inc. --><path fill="currentColor" d="M155.2 144C147.2 144 140.4 150 139.3 158L114.3 352L199.5 352C212.9 352 225.4 358.7 232.8 369.8L252.9 400L387.2 400L407.3 369.8C414.7 358.7 427.2 352 440.6 352L525.8 352L500.8 158C499.8 150 493 144 484.9 144L155.2 144zM112 480C112 488.8 119.2 496 128 496L512 496C520.8 496 528 488.8 528 480L528 400L444.8 400L424.7 430.2C417.3 441.3 404.8 448 391.4 448L248.5 448C235.1 448 222.6 441.3 215.2 430.2L195.1 400L111.9 400L111.9 480zM91.7 151.8C95.8 119.9 123 96 155.2 96L484.9 96C517.1 96 544.3 119.9 548.4 151.8L575.9 364.9L576.1 366.4L576.1 479.9C576.1 515.2 547.4 543.9 512.1 543.9L128 544C92.7 544 64 515.3 64 480L64 366.5L64.2 365L91.7 151.9zM337 183L401 247C410.4 256.4 410.4 271.6 401 280.9C391.6 290.2 376.4 290.3 367.1 280.9L344.1 257.9L344.1 344C344.1 357.3 333.4 368 320.1 368C306.8 368 296.1 357.3 296.1 344L296.1 257.9L273.1 280.9C263.7 290.3 248.5 290.3 239.2 280.9C229.9 271.5 229.8 256.3 239.2 247L303.2 183C312.6 173.6 327.8 173.6 337.1 183z"/></svg>