<svg xmlns="http://www.w3.org/2000/svg" viewBox="0 0 640 640"><!--! Font Awesome Pro 7.2.0 by @fontawesome - https://fontawesome.com License - https://fontawesome.com/license (Commercial License) Copyright 2026 Fonticons, Inc. --><path fill="currentColor" d="M145.5 112L491.3 112L489.3 144L147.5 144L145.5 112zM150.5 192L223.9 192C220 219.1 196.7 240 168.5 240L153.5 240L150.5 192zM171.5 528L156.5 288L168.5 288C223.2 288 268.1 245.7 272.2 192L296.5 192L296.5 528L171.5 528zM344.5 192L368.8 192C372.9 245.7 417.8 288 472.5 288L480.3 288L465.3 528L344.5 528L344.5 192zM417.1 192L486.4 192L483.4 240L472.6 240C444.4 240 421 219.1 417.2 192zM491.3 64L145.5 64C117.8 64 95.9 87.4 97.6 115L123.6 531C125.2 556.3 146.2 576 171.5 576L465.3 576C490.6 576 511.6 556.3 513.2 531L539.2 115C540.9 87.4 519 64 491.3 64z"/></svg>