<svg xmlns="http://www.w3.org/2000/svg" viewBox="0 0 640 640"><!--! Font Awesome Pro 7.2.0 by @fontawesome - https://fontawesome.com License - https://fontawesome.com/license (Commercial License) Copyright 2026 Fonticons, Inc. --><path fill="currentColor" d="M320 256C337.7 256 352 241.7 352 224C352 206.3 337.7 192 320 192C302.3 192 288 206.3 288 224C288 241.7 302.3 256 320 256zM160 320C177.7 320 192 305.7 192 288C192 270.3 177.7 256 160 256C142.3 256 128 270.3 128 288C128 305.7 142.3 320 160 320zM512 288C512 270.3 497.7 256 480 256C462.3 256 448 270.3 448 288C448 305.7 462.3 320 480 320C497.7 320 512 305.7 512 288zM544 480C561.7 480 576 465.7 576 448C576 430.3 561.7 416 544 416C526.3 416 512 430.3 512 448C512 465.7 526.3 480 544 480zM128 448C128 430.3 113.7 416 96 416C78.3 416 64 430.3 64 448C64 465.7 78.3 480 96 480C113.7 480 128 465.7 128 448zM216 432C202.7 432 192 442.7 192 456C192 469.3 202.7 480 216 480L424 480C437.3 480 448 469.3 448 456C448 442.7 437.3 432 424 432L216 432z"/></svg>