<svg xmlns="http://www.w3.org/2000/svg" viewBox="0 0 640 640"><!--! Font Awesome Pro 7.2.0 by @fontawesome - https://fontawesome.com License - https://fontawesome.com/license (Commercial License) Copyright 2026 Fonticons, Inc. --><path fill="currentColor" d="M495.8 329.3C454.7 362.6 391.3 384 320 384C248.7 384 185.3 362.6 144.2 329.3C149.1 422.2 225.9 496 320 496C414.1 496 490.9 422.2 495.8 329.3zM544 240L544 320C544 443.7 443.7 544 320 544C196.3 544 96 443.7 96 320L96 240C96 160.5 196.3 96 320 96C443.7 96 544 160.5 544 240zM320 128C311.2 128 304 135.2 304 144L304 168C304 176.8 311.2 184 320 184C328.8 184 336 176.8 336 168L336 144C336 135.2 328.8 128 320 128zM160 240C160 248.8 167.2 256 176 256L208 256C216.8 256 224 248.8 224 240C224 231.2 216.8 224 208 224L176 224C167.2 224 160 231.2 160 240zM416 240C416 248.8 423.2 256 432 256L464 256C472.8 256 480 248.8 480 240C480 231.2 472.8 224 464 224L432 224C423.2 224 416 231.2 416 240zM320 296C311.2 296 304 303.2 304 312L304 336C304 344.8 311.2 352 320 352C328.8 352 336 344.8 336 336L336 312C336 303.2 328.8 296 320 296zM235.3 156.7C229.1 150.5 218.9 150.5 212.7 156.7C206.5 162.9 206.5 173.1 212.7 179.3L228.7 195.3C234.9 201.5 245.1 201.5 251.3 195.3C257.5 189.1 257.5 178.9 251.3 172.7L235.3 156.7zM427.3 156.7C421.1 150.5 410.9 150.5 404.7 156.7L388.7 172.7C382.5 178.9 382.5 189.1 388.7 195.3C394.9 201.5 405.1 201.5 411.3 195.3L427.3 179.3C433.5 173.1 433.5 162.9 427.3 156.7zM251.3 307.3C257.5 301.1 257.5 290.9 251.3 284.7C245.1 278.5 234.9 278.5 228.7 284.7L212.7 300.7C206.5 306.9 206.5 317.1 212.7 323.3C218.9 329.5 229.1 329.5 235.3 323.3L251.3 307.3zM411.3 284.7C405.1 278.5 394.9 278.5 388.7 284.7C382.5 290.9 382.5 301.1 388.7 307.3L404.7 323.3C410.9 329.5 421.1 329.5 427.3 323.3C433.5 317.1 433.5 306.9 427.3 300.7L411.3 284.7zM376 240C376 226.7 350.9 216 320 216C289.1 216 264 226.7 264 240C264 253.3 289.1 264 320 264C350.9 264 376 253.3 376 240z"/></svg>