<svg xmlns="http://www.w3.org/2000/svg" viewBox="0 0 640 640"><!--! Font Awesome Pro 7.2.0 by @fontawesome - https://fontawesome.com License - https://fontawesome.com/license (Commercial License) Copyright 2026 Fonticons, Inc. --><path fill="currentColor" d="M152 304L488 304L421.3 144L218.6 144L151.9 304zM240 352L128 352C117.3 352 107.3 346.7 101.4 337.8C95.5 328.9 94.4 317.6 98.5 307.7L178.5 115.7C183.4 103.8 195.1 96 208 96L432 96C444.9 96 456.6 103.8 461.5 115.7L541.5 307.7C545.6 317.6 544.5 328.9 538.6 337.8C532.7 346.7 522.7 352 512 352L400 352L400 380.1C429.3 403.6 448 439.6 448 480C448 518.2 431.2 552.5 404.7 576L235.4 576C208.8 552.5 192.1 518.2 192.1 480C192.1 439.6 210.8 403.5 240.1 380.1L240.1 352zM352 352L288 352L288 403.1L270 417.5C251.6 432.2 240 454.7 240 480C240 498 245.9 514.6 256 528L384 528C394.1 514.6 400 498 400 480C400 454.8 388.4 432.3 370 417.5L352 403.1L352 352z"/></svg>