<svg xmlns="http://www.w3.org/2000/svg" viewBox="0 0 640 640"><!--! Font Awesome Pro 7.2.0 by @fontawesome - https://fontawesome.com License - https://fontawesome.com/license (Commercial License) Copyright 2026 Fonticons, Inc. --><path fill="currentColor" d="M301.7 75.9L327.3 92.7C317 105 308.5 118.7 302.1 133.6L288.5 124.7L136.9 224L290.2 224C292.6 240.9 297.6 257.1 304.7 272L256.5 272L256.5 432L320.5 432L320.5 298.7C333.4 316.5 349.7 331.6 368.5 343.2L368.5 432.1L432.5 432.1L432.5 366.4C440.3 367.5 448.3 368.1 456.5 368.1C464.7 368.1 472.7 367.5 480.5 366.4L480.5 432.1L488.5 432.1C501.8 432.1 512.5 442.8 512.5 456.1C512.5 469.4 501.8 480.1 488.5 480.1L88.5 480.1C75.2 480.1 64.5 469.4 64.5 456.1C64.5 442.8 75.2 432.1 88.5 432.1L96.5 432.1L96.5 272.1L56.5 272.1C45.9 272.1 36.5 265.1 33.5 255C30.5 244.9 34.5 233.9 43.3 228.1L275.3 76.1C283.3 70.9 293.6 70.9 301.6 76.1zM144.5 432L208.5 432L208.5 272L144.5 272L144.5 432zM56.5 528L520.5 528C533.8 528 544.5 538.7 544.5 552C544.5 565.3 533.8 576 520.5 576L56.5 576C43.2 576 32.5 565.3 32.5 552C32.5 538.7 43.2 528 56.5 528zM456.5 272C496.3 272 528.5 239.8 528.5 200C528.5 160.2 496.3 128 456.5 128C416.7 128 384.5 160.2 384.5 200C384.5 239.8 416.7 272 456.5 272zM456.5 320C390.2 320 336.5 266.3 336.5 200C336.5 133.7 390.2 80 456.5 80C522.8 80 576.5 133.7 576.5 200C576.5 224.5 569.2 247.3 556.6 266.3L617.5 327.2C626.9 336.6 626.9 351.8 617.5 361.1C608.1 370.4 592.9 370.5 583.6 361.1L522.7 300.2C503.7 312.7 481 320 456.6 320z"/></svg>