<svg xmlns="http://www.w3.org/2000/svg" viewBox="0 0 640 640"><!--! Font Awesome Pro 7.2.0 by @fontawesome - https://fontawesome.com License - https://fontawesome.com/license (Commercial License) Copyright 2026 Fonticons, Inc. --><path fill="currentColor" d="M343.3 82.2C346.5 95.1 338.7 108.1 325.8 111.3L197.8 143.3C185 146.5 171.9 138.7 168.7 125.8C165.5 112.9 173.3 99.9 186.2 96.7L314.2 64.7C327.1 61.5 340.1 69.3 343.3 82.2zM453.8 175.3L197.8 239.3C184.9 242.5 171.9 234.7 168.7 221.8C165.5 208.9 173.3 195.9 186.2 192.7L442.2 128.7C455.1 125.5 468.1 133.3 471.3 146.2C474.5 159.1 466.7 172.1 453.8 175.3zM453.8 271.3L197.8 335.3C184.9 338.5 171.9 330.7 168.7 317.8C165.5 304.9 173.3 291.9 186.2 288.7L442.2 224.7C455.1 221.5 468.1 229.3 471.3 242.2C474.5 255.1 466.7 268.1 453.8 271.3zM256 448L256 370.2L304 358.2L304 448L336 448L336 368C336 357.2 343.2 347.7 353.7 344.8L441.7 320.8C454.5 317.3 467.7 324.9 471.2 337.6C474.7 350.3 467.1 363.6 454.4 367.1L384.1 386.3L384.1 448L392.1 448C405.4 448 416.1 458.7 416.1 472L416.1 496C416.1 540.2 380.3 576 336.1 576L304.1 576C259.9 576 224.1 540.2 224.1 496L224.1 472C224.1 458.7 234.8 448 248.1 448L256.1 448z"/></svg>