<svg xmlns="http://www.w3.org/2000/svg" viewBox="0 0 640 640"><!--! Font Awesome Pro 7.2.0 by @fontawesome - https://fontawesome.com License - https://fontawesome.com/license (Commercial License) Copyright 2026 Fonticons, Inc. --><path fill="currentColor" d="M598.8 101.1C604.6 105.6 608 112.6 608 120L608 240C608 251 600.5 260.6 589.8 263.3L480 290.7L480 448C480 501 429.9 544 368 544C306.1 544 256 501 256 448C256 395 306.1 352 368 352C391.8 352 413.9 358.4 432 369.2L432 152C432 141 439.5 131.4 450.2 128.7L578.2 96.7C585.4 94.9 593 96.5 598.8 101.1zM368 400C325.4 400 304 428.2 304 448C304 467.8 325.4 496 368 496C410.6 496 432 467.8 432 448C432 428.2 410.6 400 368 400zM480 241.3L560 221.3L560 150.8L480 170.8L480 241.3zM88 136L360 136C373.3 136 384 146.7 384 160C384 173.3 373.3 184 360 184L88 184C74.7 184 64 173.3 64 160C64 146.7 74.7 136 88 136zM88 296L232 296C245.3 296 256 306.7 256 320C256 333.3 245.3 344 232 344L88 344C74.7 344 64 333.3 64 320C64 306.7 74.7 296 88 296zM88 456L184 456C197.3 456 208 466.7 208 480C208 493.3 197.3 504 184 504L88 504C74.7 504 64 493.3 64 480C64 466.7 74.7 456 88 456z"/></svg>