<svg xmlns="http://www.w3.org/2000/svg" viewBox="0 0 640 640"><!--! Font Awesome Pro 7.2.0 by @fontawesome - https://fontawesome.com License - https://fontawesome.com/license (Commercial License) Copyright 2026 Fonticons, Inc. --><path fill="currentColor" d="M400 160C400 115.8 435.8 80 480 80C524.2 80 560 115.8 560 160L560 200C560 213.3 570.7 224 584 224C597.3 224 608 213.3 608 200L608 160C608 89.3 550.7 32 480 32C409.3 32 352 89.3 352 160L352 224L192 224C156.7 224 128 252.7 128 288L128 512C128 547.3 156.7 576 192 576L448 576C483.3 576 512 547.3 512 512L512 288C512 252.7 483.3 224 448 224L400 224L400 160zM352 272L352 272L400 272L400 272L448 272C456.8 272 464 279.2 464 288L464 512C464 520.8 456.8 528 448 528L192 528C183.2 528 176 520.8 176 512L176 288C176 279.2 183.2 272 192 272L352 272z"/></svg>