<svg xmlns="http://www.w3.org/2000/svg" viewBox="0 0 640 640"><!--! Font Awesome Pro 7.2.0 by @fontawesome - https://fontawesome.com License - https://fontawesome.com/license (Commercial License) Copyright 2026 Fonticons, Inc. --><path fill="currentColor" d="M152 144C147.6 144 144 147.6 144 152L144 224L208 224L208 152C208 147.6 204.4 144 200 144L152 144zM144 352C144 449.2 222.8 528 320 528C417.2 528 496 449.2 496 352L496 272L432 272L432 352C432 413.9 381.9 464 320 464C258.1 464 208 413.9 208 352L208 272L144 272L144 352zM496 224L496 152C496 147.6 492.4 144 488 144L440 144C435.6 144 432 147.6 432 152L432 224L496 224zM96 152C96 121.1 121.1 96 152 96L200 96C230.9 96 256 121.1 256 152L256 352C256 387.3 284.7 416 320 416C355.3 416 384 387.3 384 352L384 152C384 121.1 409.1 96 440 96L488 96C518.9 96 544 121.1 544 152L544 352C544 475.7 443.7 576 320 576C196.3 576 96 475.7 96 352L96 152z"/></svg>