<svg xmlns="http://www.w3.org/2000/svg" viewBox="0 0 640 640"><!--! Font Awesome Pro 7.2.0 by @fontawesome - https://fontawesome.com License - https://fontawesome.com/license (Commercial License) Copyright 2026 Fonticons, Inc. --><path fill="currentColor" d="M320 288C249.3 288 192 345.3 192 416C192 486.7 249.3 544 320 544C390.7 544 448 486.7 448 416C448 345.3 390.7 288 320 288zM144 416C144 326.9 210.2 253.3 296 241.6L296 208L256 208C242.7 208 232 197.3 232 184C232 170.7 242.7 160 256 160L296 160L296 104L270.4 123.2C259.8 131.2 244.8 129 236.8 118.4C228.8 107.8 231 92.8 241.6 84.8L305.6 36.8C314.1 30.4 325.9 30.4 334.4 36.8L398.4 84.8C409 92.8 411.2 107.8 403.2 118.4C395.2 129 380.2 131.2 369.6 123.2L344 104L344 160L384 160C397.3 160 408 170.7 408 184C408 197.3 397.3 208 384 208L344 208L344 241.6C429.8 253.3 496 326.9 496 416C496 513.2 417.2 592 320 592C222.8 592 144 513.2 144 416z"/></svg>