<svg xmlns="http://www.w3.org/2000/svg" viewBox="0 0 640 640"><!--! Font Awesome Pro 7.2.0 by @fontawesome - https://fontawesome.com License - https://fontawesome.com/license (Commercial License) Copyright 2026 Fonticons, Inc. --><path fill="currentColor" d="M267.7 576.9L267.7 576.9L359.6 512L480 512C533 512 576 469 576 416L576 192C576 139 533 96 480 96L160 96C107 96 64 139 64 192L64 416C64 469 107 512 160 512L192 512L192 584C192 593 197 601.2 205 605.3C213 609.4 222.6 608.8 229.9 603.6L267.7 576.9zM359.6 464C349.7 464 340 467.1 331.9 472.8C303.3 493 272.6 514.6 240 537.7L240 488C240 485.2 239.5 482.4 238.6 479.9C235.3 470.6 226.4 464 216 464L160 464C133.5 464 112 442.5 112 416L112 192C112 165.5 133.5 144 160 144L480 144C506.5 144 528 165.5 528 192L528 416C528 442.5 506.5 464 480 464L359.6 464zM320 232C336.1 232 349.2 245.1 349.2 261.2C349.2 269.9 346.1 275.1 342.3 278.9C337.8 283.3 331.6 286.4 325.5 288.4C310.6 293.4 296 307.7 296 327.9C296 341.2 306.7 351.9 320 351.9C331.5 351.9 341.2 343.8 343.5 332.9C362.7 325.8 397.2 306.6 397.2 261.1C397.2 218.5 362.6 183.9 320 183.9C277.4 183.9 242.8 218.5 242.8 261.1C242.8 274.4 253.5 285.1 266.8 285.1C280.1 285.1 290.8 274.4 290.8 261.1C290.8 245 303.9 231.9 320 231.9zM348 400C348 384.5 335.5 372 320 372C304.5 372 292 384.5 292 400C292 415.5 304.5 428 320 428C335.5 428 348 415.5 348 400z"/></svg>