<svg xmlns="http://www.w3.org/2000/svg" viewBox="0 0 640 640"><!--! Font Awesome Pro 7.2.0 by @fontawesome - https://fontawesome.com License - https://fontawesome.com/license (Commercial License) Copyright 2026 Fonticons, Inc. --><path fill="currentColor" d="M538.8 64C533.6 64 528.5 65.1 523.8 67.2L388 126.9L389.4 108.7C391.9 74.5 353.2 53.2 325.7 73.6L146.7 206.5C94.6 245.2 64 306.7 64 371.5C64 483.8 155 576 267.6 576C333.3 576 395 544.2 433.2 490.7L559.6 313.8C579.3 286.2 557.8 248.1 524 250.7L513.3 251.5L572.8 116.2C574.9 111.5 576 106.4 576 101.2C576 80.6 559.3 64 538.8 64zM370.8 186.9L517.8 122.2L453.3 268.8C449.9 276.5 450.8 285.5 455.7 292.3C460.6 299.1 468.7 303 477.1 302.4L510.6 299.8L394.2 462.8C365 503.7 317.8 528 267.6 528C181.8 528 112 457.6 112 371.5C112 321.8 135.6 274.6 175.4 245L340.2 122.6L337.2 163.2C336.6 171.6 340.4 179.7 347.3 184.6C354.2 189.5 363.1 190.4 370.8 187zM264 488C325.9 488 376 437.9 376 376C376 314.1 325.9 264 264 264C202.1 264 152 314.1 152 376C152 437.9 202.1 488 264 488zM240 328C253.3 328 264 338.7 264 352C264 365.3 253.3 376 240 376C226.7 376 216 365.3 216 352C216 338.7 226.7 328 240 328zM264 424C264 415.2 271.2 408 280 408C288.8 408 296 415.2 296 424C296 432.8 288.8 440 280 440C271.2 440 264 432.8 264 424z"/></svg>