<svg xmlns="http://www.w3.org/2000/svg" viewBox="0 0 640 640"><!--! Font Awesome Pro 7.2.0 by @fontawesome - https://fontawesome.com License - https://fontawesome.com/license (Commercial License) Copyright 2026 Fonticons, Inc. --><path fill="currentColor" d="M528 320C528 205.1 434.9 112 320 112C205.1 112 112 205.1 112 320C112 434.9 205.1 528 320 528C434.9 528 528 434.9 528 320zM64 320C64 178.6 178.6 64 320 64C461.4 64 576 178.6 576 320C576 461.4 461.4 576 320 576C178.6 576 64 461.4 64 320zM432 216L432 264C432 277.3 421.3 288 408 288C394.7 288 384 277.3 384 264L384 216C384 202.7 394.7 192 408 192C421.3 192 432 202.7 432 216zM320 192C333.3 192 344 202.7 344 216L344 264C344 277.3 333.3 288 320 288C306.7 288 296 277.3 296 264L296 216C296 202.7 306.7 192 320 192zM256 216L256 264C256 277.3 245.3 288 232 288C218.7 288 208 277.3 208 264L208 216C208 202.7 218.7 192 232 192C245.3 192 256 202.7 256 216z"/></svg>