<svg xmlns="http://www.w3.org/2000/svg" viewBox="0 0 640 640"><!--! Font Awesome Pro 7.2.0 by @fontawesome - https://fontawesome.com License - https://fontawesome.com/license (Commercial License) Copyright 2026 Fonticons, Inc. --><path fill="currentColor" d="M384 112C410.5 112 432 133.5 432 160L432 288C432 314.5 410.5 336 384 336C357.5 336 336 314.5 336 288L336 160C336 133.5 357.5 112 384 112zM288 160L288 288C288 341 331 384 384 384C437 384 480 341 480 288L480 160C480 107 437 64 384 64C331 64 288 107 288 160zM240 248C240 234.7 229.3 224 216 224C202.7 224 192 234.7 192 248L192 288C192 385.9 265.3 466.7 360 478.5L360 528L312 528C298.7 528 288 538.7 288 552C288 565.3 298.7 576 312 576L456 576C469.3 576 480 565.3 480 552C480 538.7 469.3 528 456 528L408 528L408 478.5C502.7 466.7 576 385.9 576 288L576 248C576 234.7 565.3 224 552 224C538.7 224 528 234.7 528 248L528 288C528 367.5 463.5 432 384 432C304.5 432 240 367.5 240 288L240 248zM120 128C120 110.3 105.7 96 88 96C70.3 96 56 110.3 56 128C56 145.7 70.3 160 88 160C105.7 160 120 145.7 120 128zM88 288C105.7 288 120 273.7 120 256C120 238.3 105.7 224 88 224C70.3 224 56 238.3 56 256C56 273.7 70.3 288 88 288zM120 384C120 366.3 105.7 352 88 352C70.3 352 56 366.3 56 384C56 401.7 70.3 416 88 416C105.7 416 120 401.7 120 384zM88 544C105.7 544 120 529.7 120 512C120 494.3 105.7 480 88 480C70.3 480 56 494.3 56 512C56 529.7 70.3 544 88 544z"/></svg>