<svg xmlns="http://www.w3.org/2000/svg" viewBox="0 0 640 640"><!--! Font Awesome Pro 7.2.0 by @fontawesome - https://fontawesome.com License - https://fontawesome.com/license (Commercial License) Copyright 2026 Fonticons, Inc. --><path fill="currentColor" d="M256 112C282.5 112 304 133.5 304 160L304 261.8C316.9 242.4 333.2 225.6 352 212L352 160C352 107 309 64 256 64C203 64 160 107 160 160L160 288C160 341 203 384 256 384C261.6 384 267.2 383.5 272.5 382.6C272.1 377.8 272 372.9 272 368C272 355.7 273.2 343.6 275.4 331.9C269.5 334.5 262.9 336 256 336C229.5 336 208 314.5 208 288L208 160C208 133.5 229.5 112 256 112zM303.9 474C294.8 460.3 287.5 445.5 282.1 429.7C273.6 431.3 264.9 432.1 256 432.1C176.5 432.1 112 367.6 112 288.1L112 248.1C112 234.8 101.3 224.1 88 224.1C74.7 224.1 64 234.8 64 248.1L64 288.1C64 386 137.3 466.8 232 478.6L232 528.1L184 528.1C170.7 528.1 160 538.8 160 552.1C160 565.4 170.7 576.1 184 576.1L328 576.1C341.3 576.1 352 565.4 352 552.1C352 538.8 341.3 528.1 328 528.1L280 528.1L280 478.6C288.1 477.6 296.1 476.1 303.9 474.1zM464 512C543.5 512 608 447.5 608 368C608 288.5 543.5 224 464 224C384.5 224 320 288.5 320 368C320 447.5 384.5 512 464 512zM523.3 331.3L486.6 368L523.3 404.7C529.5 410.9 529.5 421.1 523.3 427.3C517.1 433.5 506.9 433.5 500.7 427.3L464 390.6L427.3 427.3C421.1 433.5 410.9 433.5 404.7 427.3C398.5 421.1 398.5 410.9 404.7 404.7L441.4 368L404.7 331.3C398.5 325.1 398.5 314.9 404.7 308.7C410.9 302.5 421.1 302.5 427.3 308.7L464 345.4L500.7 308.7C506.9 302.5 517.1 302.5 523.3 308.7C529.5 314.9 529.5 325.1 523.3 331.3z"/></svg>