<svg xmlns="http://www.w3.org/2000/svg" viewBox="0 0 640 640"><!--! Font Awesome Pro 7.2.0 by @fontawesome - https://fontawesome.com License - https://fontawesome.com/license (Commercial License) Copyright 2026 Fonticons, Inc. --><path fill="currentColor" d="M438.2 73C443.2 60.7 437.3 46.7 425 41.7C412.7 36.7 398.8 42.7 393.8 55L352.2 157.2C339.8 164 328.9 173.2 320 184.1C300.2 159.7 269.9 144 236 144C213.5 144 192.7 150.9 175.4 162.6C172.9 152 163.4 144 152 144C138.7 144 128 154.8 128 168L128 248L128.1 248C128.1 249.3 128 250.7 128 252L128 472C128 485.3 138.7 496 152 496C165.3 496 176 485.3 176 472L176 252C176 218.9 202.9 192 236 192C269.1 192 296 218.9 296 252L296 295.6L185.8 567C180.8 579.3 186.7 593.3 199 598.3C211.3 603.3 225.3 597.4 230.3 585.1L296 423.2L296 472C296 485.3 306.7 496 320 496C333.3 496 344 485.3 344 472L344 305L389.2 193.9C393.9 192.7 398.9 192 404 192C437.1 192 464 218.9 464 252L464 472C464 485.3 474.7 496 488 496C501.3 496 512 485.3 512 472L512 252C512 194.1 466.5 146.9 409.4 144.1L438.2 73z"/></svg>