<svg xmlns="http://www.w3.org/2000/svg" viewBox="0 0 640 640"><!--! Font Awesome Pro 7.2.0 by @fontawesome - https://fontawesome.com License - https://fontawesome.com/license (Commercial License) Copyright 2026 Fonticons, Inc. --><path fill="currentColor" d="M208 112C199.2 112 192 119.2 192 128L192 512C192 520.8 199.2 528 208 528L432 528C440.8 528 448 520.8 448 512L448 128C448 119.2 440.8 112 432 112L208 112zM144 128C144 92.7 172.7 64 208 64L432 64C467.3 64 496 92.7 496 128L496 512C496 547.3 467.3 576 432 576L208 576C172.7 576 144 547.3 144 512L144 128zM280 432L360 432C373.3 432 384 442.7 384 456C384 469.3 373.3 480 360 480L280 480C266.7 480 256 469.3 256 456C256 442.7 266.7 432 280 432z"/></svg>