<svg xmlns="http://www.w3.org/2000/svg" viewBox="0 0 640 640"><!--! Font Awesome Pro 7.2.0 by @fontawesome - https://fontawesome.com License - https://fontawesome.com/license (Commercial License) Copyright 2026 Fonticons, Inc. --><path fill="currentColor" d="M376 32C504.1 32 608 135.9 608 264C608 277.3 597.3 288 584 288C570.7 288 560 277.3 560 264C560 162.4 477.6 80 376 80C362.7 80 352 69.3 352 56C352 42.7 362.7 32 376 32zM384 224C401.7 224 416 238.3 416 256C416 273.7 401.7 288 384 288C366.3 288 352 273.7 352 256C352 238.3 366.3 224 384 224zM352 152C352 138.7 362.7 128 376 128C451.1 128 512 188.9 512 264C512 277.3 501.3 288 488 288C474.7 288 464 277.3 464 264C464 215.4 424.6 176 376 176C362.7 176 352 165.3 352 152zM128 64L304 64L304 112L128 112C119.2 112 112 119.2 112 128L112 512C112 520.8 119.2 528 128 528L352 528C360.8 528 368 520.8 368 512L368 334.4C373.2 335.4 378.5 336 384 336L416 336L416 512C416 547.3 387.3 576 352 576L128 576C92.7 576 64 547.3 64 512L64 128C64 92.7 92.7 64 128 64zM200 432L280 432C293.3 432 304 442.7 304 456C304 469.3 293.3 480 280 480L200 480C186.7 480 176 469.3 176 456C176 442.7 186.7 432 200 432z"/></svg>