<svg xmlns="http://www.w3.org/2000/svg" viewBox="0 0 640 640"><!--! Font Awesome Pro 7.2.0 by @fontawesome - https://fontawesome.com License - https://fontawesome.com/license (Commercial License) Copyright 2026 Fonticons, Inc. --><path fill="currentColor" d="M208 112C199.2 112 192 119.2 192 128L192 512C192 520.8 199.2 528 208 528L432 528C440.8 528 448 520.8 448 512L448 128C448 119.2 440.8 112 432 112L208 112zM144 128C144 92.7 172.7 64 208 64L432 64C467.3 64 496 92.7 496 128L496 512C496 547.3 467.3 576 432 576L208 576C172.7 576 144 547.3 144 512L144 128zM272 160L368 160C385.7 160 400 174.3 400 192L400 256C400 273.7 385.7 288 368 288L272 288C254.3 288 240 273.7 240 256L240 192C240 174.3 254.3 160 272 160zM224 376C224 362.7 234.7 352 248 352C261.3 352 272 362.7 272 376C272 389.3 261.3 400 248 400C234.7 400 224 389.3 224 376zM248 480C234.7 480 224 469.3 224 456C224 442.7 234.7 432 248 432C261.3 432 272 442.7 272 456C272 469.3 261.3 480 248 480zM296 376C296 362.7 306.7 352 320 352C333.3 352 344 362.7 344 376C344 389.3 333.3 400 320 400C306.7 400 296 389.3 296 376zM320 480C306.7 480 296 469.3 296 456C296 442.7 306.7 432 320 432C333.3 432 344 442.7 344 456C344 469.3 333.3 480 320 480zM368 376C368 362.7 378.7 352 392 352C405.3 352 416 362.7 416 376C416 389.3 405.3 400 392 400C378.7 400 368 389.3 368 376zM392 480C378.7 480 368 469.3 368 456C368 442.7 378.7 432 392 432C405.3 432 416 442.7 416 456C416 469.3 405.3 480 392 480z"/></svg>