<svg xmlns="http://www.w3.org/2000/svg" viewBox="0 0 640 640"><!--! Font Awesome Pro 7.2.0 by @fontawesome - https://fontawesome.com License - https://fontawesome.com/license (Commercial License) Copyright 2026 Fonticons, Inc. --><path fill="currentColor" d="M320.5 64C360.8 64 398.9 73.4 432.8 90C435.5 91.3 438.1 92.7 440.8 94.1C441.6 94.5 442.5 94.9 443.3 95.4C443.5 95.5 443.7 95.7 443.9 95.8C477.4 114.3 506.3 140 528.5 170.9C529.1 171.8 529.8 172.7 530.4 173.6C535.6 181 540.4 188.7 544.7 196.6C545.1 197.3 545.5 198 545.9 198.7C565.4 234.8 576.5 276.1 576.5 319.9C576.5 364 565.3 405.4 545.7 441.5C545.6 441.7 545.5 441.9 545.4 442.1C540.8 450.6 535.6 458.8 530.1 466.8C529.7 467.4 529.3 468 528.9 468.6C506.7 499.7 477.7 525.5 444.1 544.1C443.9 544.2 443.7 544.4 443.4 544.6C442.6 545 441.8 545.4 441 545.8C437.9 547.5 434.7 549.1 431.6 550.6C427.7 552.5 423.7 554.3 419.7 556C419.2 556.2 418.7 556.4 418.2 556.6C388.1 569 355.2 576 320.6 576C276.1 576 234.3 564.6 197.9 544.6C185.4 537.7 183.2 521.2 192.4 510.2C200.3 500.8 214 498.9 224.9 504.6C252.1 518.7 282.8 526.9 315.3 527.8C250.7 481.4 208.6 405.6 208.6 320C208.6 234.4 250.6 158.6 315.1 112.2C282.6 113 251.9 121.3 224.7 135.4C213.8 141.1 200.1 139.2 192.2 129.8C183 118.9 185.2 102.3 197.7 95.4C234.1 75.4 276 64.1 320.5 64.1zM392.4 124.8C313 154.1 256.5 230.5 256.5 320C256.5 409.5 313.1 485.8 392.5 515.1C392.6 515.1 392.7 515 392.8 515C429.8 501.3 461.9 477.3 485.5 446.6C485.6 446.5 485.6 446.4 485.7 446.3C503.7 422.8 516.9 395.2 523.5 365.3C523.5 365.2 523.6 365.1 523.6 365C526.8 350.5 528.5 335.5 528.5 320C528.5 304.4 526.8 289.3 523.5 274.7C516.8 244.7 503.7 217.2 485.7 193.7C485.6 193.6 485.6 193.5 485.5 193.4C467 169.3 443.3 149.4 416.1 135.3C408.5 131.3 400.6 127.9 392.4 124.9zM92.3 344C104.6 344 114.8 353.3 117.5 365.3C124.2 395.3 137.3 422.8 155.3 446.4C162.8 456.2 163.3 470 155.4 479.4C146.2 490.4 129.5 491.1 120.5 479.9C95.4 448.6 77.6 411.2 69.4 370.3C66.6 356.3 77.9 344 92.2 344zM120.6 160C129.5 148.8 146.3 149.6 155.5 160.5C163.4 169.9 162.9 183.7 155.4 193.5C137.3 217.1 124.2 244.6 117.5 274.6C114.8 286.6 104.6 295.9 92.3 295.9C78 295.9 66.7 283.6 69.5 269.6C77.6 228.7 95.5 191.3 120.6 160z"/></svg>