<svg xmlns="http://www.w3.org/2000/svg" viewBox="0 0 640 640"><!--! Font Awesome Pro 7.2.0 by @fontawesome - https://fontawesome.com License - https://fontawesome.com/license (Commercial License) Copyright 2026 Fonticons, Inc. --><path fill="currentColor" d="M503.8 153.8L492.8 115.2L454.2 104.2C450.6 103.2 448 99.8 448 96C448 92.2 450.5 88.9 454.2 87.8L492.8 76.8L503.8 38.2C504.8 34.6 508.2 32 512 32C515.8 32 519.1 34.5 520.2 38.2L531.2 76.8L569.8 87.8C573.4 88.8 576 92.2 576 96C576 99.8 573.5 103.1 569.8 104.2L531.2 115.2L520.2 153.8C519.2 157.4 515.8 160 512 160C508.2 160 504.9 157.5 503.8 153.8zM435.8 390.8L419.2 332.8L361.2 316.2C355.7 314.6 352 309.6 352 304C352 298.4 355.8 293.3 361.2 291.8L419.2 275.2L435.8 217.2C437.4 211.7 442.4 208 448 208C453.6 208 458.7 211.8 460.2 217.2L476.8 275.2L534.8 291.8C540.3 293.4 544 298.4 544 304C544 309.6 540.2 314.7 534.8 316.2L476.8 332.8L460.2 390.8C458.6 396.3 453.6 400 448 400C442.4 400 437.3 396.2 435.8 390.8zM427 477.5C435.8 476.8 444.2 481.7 447.8 489.8C451.4 497.9 449.6 507.4 443.2 513.6C439.2 517.5 435 521.2 430.7 524.7C392 556.7 342.2 576 288 576C164.3 576 64 475.7 64 352C64 228.3 164.3 128 288 128C298.9 128 309.6 128.8 320.1 130.3C326 131.1 331.9 132.2 337.6 133.5C346.3 135.5 352.8 142.7 353.8 151.5C354.8 160.3 350.3 168.8 342.3 172.8C289.3 199.2 253 253.9 253 317C253 405.9 325.1 478 414 478C418.4 478 422.7 477.8 426.9 477.5zM205 317C205 263.9 224.8 215.5 257.3 178.7C174.7 193.2 112 265.3 112 352C112 449.2 190.8 528 288 528C310.2 528 331.5 523.9 351.1 516.4C266.4 489.7 205 410.5 205 317z"/></svg>