<svg xmlns="http://www.w3.org/2000/svg" viewBox="0 0 640 640"><!--! Font Awesome Pro 7.2.0 by @fontawesome - https://fontawesome.com License - https://fontawesome.com/license (Commercial License) Copyright 2026 Fonticons, Inc. --><path fill="currentColor" d="M288 64C302.7 64 316.2 72.1 323.2 85L539.2 485C545.9 497.4 545.6 512.4 538.4 524.5C531.2 536.6 518.1 544 504.1 544L72 544C57.9 544 44.9 536.6 37.7 524.5C30.5 512.4 30.2 497.4 36.9 485L252.9 85L255.8 80.4C263.2 70.2 275.2 64 288 64zM259.2 374.4C254.7 380.4 247.7 383.9 240.2 384C232.7 384.1 225.6 380.6 221 374.7L179.6 321.5L85.4 496L490.6 496L395.6 320L300 320L259.2 374.4zM204.6 275.3L239.7 320.4L268.9 281.6L270.7 279.4C275.2 274.7 281.5 272 288.1 272L369.7 272L288.1 120.8L204.7 275.3zM528 224C483.8 224 448 188.2 448 144C448 99.8 483.8 64 528 64C572.2 64 608 99.8 608 144C608 188.2 572.2 224 528 224z"/></svg>