<svg xmlns="http://www.w3.org/2000/svg" viewBox="0 0 640 640"><!--! Font Awesome Pro 7.2.0 by @fontawesome - https://fontawesome.com License - https://fontawesome.com/license (Commercial License) Copyright 2026 Fonticons, Inc. --><path fill="currentColor" d="M144 352C144 378.5 165.5 400 192 400L384 400C410.5 400 432 378.5 432 352L432 144L280 144L280 164.4C280 171.9 282.6 179.1 287.4 184.9L312.6 215.1C317.4 220.9 320 228.1 320 235.6L320 288C320 305.7 305.7 320 288 320L224 320C206.3 320 192 305.7 192 288L192 235.6C192 228.1 194.6 220.9 199.4 215.1L224.6 184.9C229.4 179.1 232 171.9 232 164.4L232 144L144 144L144 352zM480 144L480 288L488 288C527.8 288 560 255.8 560 216C560 176.2 527.8 144 488 144L480 144zM480 336L480 352C480 405 437 448 384 448L192 448C139 448 96 405 96 352L96 128C96 110.3 110.3 96 128 96L488 96C554.3 96 608 149.7 608 216C608 282.3 554.3 336 488 336L480 336zM64 552C64 538.7 74.7 528 88 528L488 528C501.3 528 512 538.7 512 552C512 565.3 501.3 576 488 576L88 576C74.7 576 64 565.3 64 552z"/></svg>