<svg xmlns="http://www.w3.org/2000/svg" viewBox="0 0 640 640"><!--! Font Awesome Pro 7.2.0 by @fontawesome - https://fontawesome.com License - https://fontawesome.com/license (Commercial License) Copyright 2026 Fonticons, Inc. --><path fill="currentColor" d="M512 128C547.3 128 576 156.7 576 192L576 448L575.7 454.5C572.4 486.8 545.1 512 512 512L128 512C94.9 512 67.6 486.8 64.3 454.5L64 448L64 192C64 156.7 92.7 128 128 128L512 128zM112 408L112 448C112 456.8 119.2 464 128 464L208 464L208 408L112 408zM256 464L368 464L368 176L256 176L256 464zM416 464L512 464C520.8 464 528 456.8 528 448L528 192C528 183.2 520.8 176 512 176L416 176L416 464zM128 176C119.2 176 112 183.2 112 192L112 360L208 360L208 176L128 176zM312 272C298.7 272 288 261.3 288 248C288 234.7 298.7 224 312 224C325.3 224 336 234.7 336 248C336 261.3 325.3 272 312 272zM472 272C458.7 272 448 261.3 448 248C448 234.7 458.7 224 472 224C485.3 224 496 234.7 496 248C496 261.3 485.3 272 472 272z"/></svg>