<svg xmlns="http://www.w3.org/2000/svg" viewBox="0 0 640 640"><!--! Font Awesome Pro 7.2.0 by @fontawesome - https://fontawesome.com License - https://fontawesome.com/license (Commercial License) Copyright 2026 Fonticons, Inc. --><path fill="currentColor" d="M448 144L128 144C119.2 144 112 151.2 112 160L112 480C112 488.8 119.2 496 128 496L336 496L336 544L128 544C92.7 544 64 515.3 64 480L64 160C64 124.7 92.7 96 128 96L448 96C483.3 96 512 124.7 512 160L512 241C506.8 240.3 501.4 240 496 240C485 240 474.2 241.4 464 244L464 160C464 151.2 456.8 144 448 144zM416 232L416 268.1C386.7 291.6 368 327.6 368 368L368 240L312 240L312 288C321.7 295.3 328 306.9 328 320C328 342.1 310.1 360 288 360C265.9 360 248 342.1 248 320C248 306.9 254.3 295.3 264 288L264 232C264 209.9 281.9 192 304 192L376 192C398.1 192 416 209.9 416 232zM208 400L360.4 400C348.6 413.2 340.4 429.7 337.3 448L200 448C177.9 448 160 430.1 160 408L160 232C160 209.9 177.9 192 200 192L216 192C229.3 192 240 202.7 240 216C240 229.3 229.3 240 216 240L208 240L208 400zM528 368.1C528 350.4 513.7 336.1 496 336.1C478.3 336.1 464 350.4 464 368.1L464 416L528 416L528 368.1zM384 464C384 443.1 397.4 425.3 416 418.7L416 368.1C416 323.9 451.8 288.1 496 288.1C540.2 288.1 576 323.9 576 368.1L576 418.7C594.6 425.3 608 443.1 608 464L608 560C608 586.5 586.5 608 560 608L432 608C405.5 608 384 586.5 384 560L384 464z"/></svg>