<svg xmlns="http://www.w3.org/2000/svg" viewBox="0 0 640 640"><!--! Font Awesome Pro 7.2.0 by @fontawesome - https://fontawesome.com License - https://fontawesome.com/license (Commercial License) Copyright 2026 Fonticons, Inc. --><path fill="currentColor" d="M310.9 591.8C217.9 587.1 144 510.2 144 416L144.2 406.9C148.5 322 213.1 253 296 241.7L296 193.7L241.8 225C230.3 231.6 215.6 227.7 209 216.2C202.8 205.4 205.9 191.9 215.7 184.8L217.8 183.5L272.1 152.2L217.8 120.8L215.7 119.5C205.8 112.4 202.8 98.8 209 88.1C215.2 77.4 228.6 73 239.7 77.9L241.9 79L296.1 110.3L296.1 56C296.1 42.7 306.8 32 320.1 32C333.4 32 344.1 42.7 344.1 56L344.1 110.5L398.1 79.3L400.3 78.2C411.4 73.2 424.7 77.4 430.9 88.1C437.1 98.8 434 112.5 424.2 119.6L422.1 120.9L368.3 152L422.1 183C433.6 189.6 437.5 204.3 430.9 215.8C424.7 226.6 411.4 230.7 400.3 225.7L398.1 224.6L344.1 193.4L344.1 241.6C426.9 253 491.5 322 495.8 406.9L496 416C496 513.2 417.2 592 320 592L310.9 591.8zM320 544C390.7 544 448 486.7 448 416C448 345.3 390.7 288 320 288C249.3 288 192 345.3 192 416C192 486.7 249.3 544 320 544z"/></svg>