<svg xmlns="http://www.w3.org/2000/svg" viewBox="0 0 640 640"><!--! Font Awesome Pro 7.2.0 by @fontawesome - https://fontawesome.com License - https://fontawesome.com/license (Commercial License) Copyright 2026 Fonticons, Inc. --><path fill="currentColor" d="M257.3 61C267.8 52.9 282.9 54.8 291 65.3L515.2 354.7C533.8 378.8 544 408.3 544 438.8C544 514.6 482.6 576.1 406.7 576.1L216 576C149.7 576 96 522.3 96 456C96 389.7 149.7 336 216 336L232 336C245.3 336 256 346.7 256 360C256 373.3 245.3 384 232 384L216 384C176.2 384 144 416.2 144 456C144 493.1 172 523.6 208 527.6L208 512C208 467.8 243.8 432 288 432C332.2 432 368 467.8 368 512L368 528L406.7 528C456 528 496 488 496 438.7C496 418.9 489.4 399.7 477.3 384L253 94.7C244.9 84.2 246.8 69.1 257.3 61zM320 528L320 512C320 494.3 305.7 480 288 480C270.3 480 256 494.3 256 512L256 528L320 528z"/></svg>