<svg xmlns="http://www.w3.org/2000/svg" viewBox="0 0 640 640"><!--! Font Awesome Pro 7.2.0 by @fontawesome - https://fontawesome.com License - https://fontawesome.com/license (Commercial License) Copyright 2026 Fonticons, Inc. --><path fill="currentColor" d="M224 368C250.5 368 272 389.5 272 416L272 512C272 520.8 279.2 528 288 528L512 528C520.8 528 528 520.8 528 512L528 288C528 279.2 520.8 272 512 272L416 272C389.5 272 368 250.5 368 224L368 128C368 119.2 360.8 112 352 112L128 112C119.2 112 112 119.2 112 128L112 352C112 360.8 119.2 368 128 368L224 368zM176 416L128 416C92.7 416 64 387.3 64 352L64 128C64 92.7 92.7 64 128 64L352 64C387.3 64 416 92.7 416 128L416 224L512 224C547.3 224 576 252.7 576 288L576 512C576 547.3 547.3 576 512 576L288 576C252.7 576 224 547.3 224 512L224 416L176 416z"/></svg>