<svg xmlns="http://www.w3.org/2000/svg" viewBox="0 0 640 640"><!--! Font Awesome Pro 7.2.0 by @fontawesome - https://fontawesome.com License - https://fontawesome.com/license (Commercial License) Copyright 2026 Fonticons, Inc. --><path fill="currentColor" d="M394.9 64.1C407.6 64.1 419.9 69.2 428.9 78.2L562.3 211.6C571.3 220.6 576.4 232.8 576.4 245.5L576.4 394.3C576.4 407 571.3 419.3 562.3 428.3L428.8 561.9C419.8 570.9 407.6 576 394.8 576L246 576C233.3 576 221.1 570.9 212.1 561.9L78.6 428.4C69.6 419.4 64.5 407.2 64.5 394.4L64.5 245.6C64.5 232.9 69.6 220.7 78.6 211.7L212.1 78.1C221.1 69.1 233.3 64 246 64L394.8 64zM112.5 245.6L112.5 394.4L246 527.9L394.8 527.9L528.3 394.4L528.3 245.6L394.8 112.1L246 112.1L112.5 245.6zM320.4 448C302.7 448 288.4 433.7 288.4 416C288.4 398.3 302.7 384 320.4 384C338.1 384 352.4 398.3 352.4 416C352.4 433.7 338.1 448 320.4 448zM320.4 192C338.6 192 353.1 207.5 351.8 225.7L344.4 329.7C343.5 342.3 333 352 320.5 352C307.9 352 297.5 342.3 296.6 329.7L289.2 225.7C287.9 207.5 302.3 192 320.6 192z"/></svg>