<svg xmlns="http://www.w3.org/2000/svg" viewBox="0 0 640 640"><!--! Font Awesome Pro 7.2.0 by @fontawesome - https://fontawesome.com License - https://fontawesome.com/license (Commercial License) Copyright 2026 Fonticons, Inc. --><path fill="currentColor" d="M420.7 68.7C426.9 62.5 437.1 62.5 443.3 68.7L459.3 84.7C465.5 90.9 465.5 101.1 459.3 107.3L443.3 123.3C437.1 129.5 426.9 129.5 420.7 123.3L404.7 107.3C398.5 101.1 398.5 90.9 404.7 84.7L420.7 68.7zM208 216C195.4 216 183.8 220.2 174.4 227.2C163.8 235.2 148.8 233 140.8 222.4C132.8 211.8 135 196.8 145.6 188.8C163 175.7 184.6 168 208 168C265.4 168 312 214.6 312 272C312 292.6 306 311.8 295.7 328L359 328C373.8 328 388 322.1 398.5 311.6L419.2 290.9C436.4 273.7 459.8 264 484.2 264C534.9 264 576.1 305.1 576.1 355.9L576.1 452C576.1 502.8 534.9 544 484.1 544C433.3 544 392.1 502.8 392.1 452L392.1 448C392.1 434.7 402.8 424 416.1 424C429.4 424 440.1 434.7 440.1 448L440.1 452C440.1 476.3 459.8 496 484.1 496C508.4 496 528.1 476.3 528.1 452L528.1 355.9C528.1 331.7 508.5 312 484.2 312C472.6 312 461.4 316.6 453.2 324.9L432.5 345.6C412.9 365 386.5 376 358.9 376L316.4 376C333.6 396.8 344 423 344 452C344 522.2 283.1 576 212 576C140.9 576 80 522.2 80 452C80 438.7 90.7 428 104 428C117.3 428 128 438.7 128 452C128 492.3 163.8 528 212 528C260.2 528 296 492.3 296 452C296 411.7 260.2 376 212 376L192 376C178.7 376 168 365.3 168 352C168 338.7 178.7 328 192 328L208 328C238.9 328 264 302.9 264 272C264 241.1 238.9 216 208 216zM362.8 129.1C354.6 118.7 339.5 117 329.1 125.2C318.7 133.4 317 148.5 325.2 158.9C349.2 189.2 388.7 208 432 208C475.3 208 514.8 189.2 538.8 158.9C547 148.5 545.3 133.4 534.9 125.2C524.5 117 509.4 118.7 501.2 129.1C486.9 147.1 461.8 160 432 160C402.2 160 377.1 147.1 362.8 129.1z"/></svg>