<svg xmlns="http://www.w3.org/2000/svg" viewBox="0 0 640 640"><!--! Font Awesome Pro 7.2.0 by @fontawesome - https://fontawesome.com License - https://fontawesome.com/license (Commercial License) Copyright 2026 Fonticons, Inc. --><path fill="currentColor" d="M160 144C151.2 144 144 151.2 144 160L144 480C144 488.8 151.2 496 160 496L480 496C488.8 496 496 488.8 496 480L496 160C496 151.2 488.8 144 480 144L160 144zM96 160C96 124.7 124.7 96 160 96L480 96C515.3 96 544 124.7 544 160L544 480C544 515.3 515.3 544 480 544L160 544C124.7 544 96 515.3 96 480L96 160zM176 320C176 258.9 206.8 220.9 225.7 203.4C234.5 195.2 246.4 192 258.3 192L381.6 192C393.6 192 405.5 195.3 414.2 203.4C433.1 220.9 463.9 258.9 463.9 320C463.9 381.1 433.1 419 414.2 436.6C405.4 444.8 393.5 448 381.6 448L258.3 448C246.3 448 234.4 444.7 225.7 436.6C206.8 419.1 176 381.1 176 320zM288 264C288 250.7 277.3 240 264 240C250.7 240 240 250.7 240 264L240 296C240 309.3 250.7 320 264 320C277.3 320 288 309.3 288 296L288 264zM400 264C400 250.7 389.3 240 376 240C362.7 240 352 250.7 352 264L352 296C352 309.3 362.7 320 376 320C389.3 320 400 309.3 400 296L400 264zM288 384L288 400L352 400L352 384C352 366.3 337.7 352 320 352C302.3 352 288 366.3 288 384z"/></svg>