<svg xmlns="http://www.w3.org/2000/svg" viewBox="0 0 640 640"><!--! Font Awesome Pro 7.2.0 by @fontawesome - https://fontawesome.com License - https://fontawesome.com/license (Commercial License) Copyright 2026 Fonticons, Inc. --><path fill="currentColor" d="M528 322.2C528 324.9 527 327.4 523.8 330.2C520 333.3 513.7 336 506 336L408 336C355 336 312 379 312 432C312 438.8 312.7 445.4 314.1 451.8C317.4 467.5 324.3 482.9 328.5 492.4L328.5 492.4C329.2 494 329.9 495.4 330.4 496.7C335.4 508.2 336 512.1 336 513.8C336 519.1 334.1 523.3 332.2 525.6C331.3 526.7 330.6 527.2 330.2 527.4C329.9 527.6 329.4 527.7 328.6 527.8C325.7 527.9 322.9 528 320 528C205.1 528 112 434.9 112 320C112 205.1 205.1 112 320 112C434.9 112 528 205.1 528 320C528 320.7 528 321.4 528 322.2zM576 322.7C576 321.8 576 320.9 576 320C576 178.6 461.4 64 320 64C178.6 64 64 178.6 64 320C64 461.4 178.6 576 320 576C323.5 576 327.1 575.9 330.6 575.8C362.4 574.5 384 545.7 384 513.8C384 499.3 377.9 485.5 371.9 471.8C367.6 462 363.2 452.1 361.1 441.9C360.4 438.7 360.1 435.4 360.1 432C360.1 405.5 381.6 384 408.1 384L506 384C542.5 384 575.7 359.2 576.1 322.7zM224 320C224 302.3 209.7 288 192 288C174.3 288 160 302.3 160 320C160 337.7 174.3 352 192 352C209.7 352 224 337.7 224 320zM224 256C241.7 256 256 241.7 256 224C256 206.3 241.7 192 224 192C206.3 192 192 206.3 192 224C192 241.7 206.3 256 224 256zM352 192C352 174.3 337.7 160 320 160C302.3 160 288 174.3 288 192C288 209.7 302.3 224 320 224C337.7 224 352 209.7 352 192zM416 256C433.7 256 448 241.7 448 224C448 206.3 433.7 192 416 192C398.3 192 384 206.3 384 224C384 241.7 398.3 256 416 256z"/></svg>