<svg xmlns="http://www.w3.org/2000/svg" viewBox="0 0 640 640"><!--! Font Awesome Pro 7.2.0 by @fontawesome - https://fontawesome.com License - https://fontawesome.com/license (Commercial License) Copyright 2026 Fonticons, Inc. --><path fill="currentColor" d="M147.5 112L493.3 112L490.3 160L440.4 160C427.1 160 416.4 170.7 416.4 184C416.4 197.3 427.1 208 440.4 208L487.3 208L467.3 528L344.4 528L344.4 248C344.4 234.7 333.7 224 320.4 224C307.1 224 296.4 234.7 296.4 248L296.4 528L173.5 528L153.5 208L200.4 208C213.7 208 224.4 197.3 224.4 184C224.4 170.7 213.7 160 200.4 160L150.5 160L147.5 112zM493.3 64L147.5 64C119.8 64 97.9 87.4 99.6 115L125.6 531C127.2 556.3 148.2 576 173.5 576L467.3 576C492.6 576 513.6 556.3 515.2 531L541.2 115C542.9 87.4 521 64 493.3 64z"/></svg>