<svg xmlns="http://www.w3.org/2000/svg" viewBox="0 0 640 640"><!--! Font Awesome Pro 7.2.0 by @fontawesome - https://fontawesome.com License - https://fontawesome.com/license (Commercial License) Copyright 2026 Fonticons, Inc. --><path fill="currentColor" d="M143.5 288L296 288L296 384L288 384C278.7 384 269.9 386 262 389.5L143.5 288zM344 288L496.5 288L378 389.5C370.1 386 361.2 384 352 384L344 384L344 288zM72.4 290.2L228.6 424.1C225.6 431.5 224 439.5 224 448L224 512C224 547.3 252.7 576 288 576L352 576C387.3 576 416 547.3 416 512L416 448C416 439.6 414.4 431.5 411.4 424.1L567.6 290.2C572.9 285.6 576 279 576 272C576 128.5 458.9 32 320 32C181.1 32 64 128.5 64 272C64 279 67.1 285.7 72.4 290.2zM114.5 240C125.6 171.9 171.8 119.4 235.9 95C214.7 131.9 199.7 182.6 194.2 240L114.5 240zM445.7 240C440.3 182.6 425.2 131.9 404 95C468 119.4 514.3 171.9 525.4 240L445.7 240zM272.4 128.4C293 87.2 312.6 80 320 80C327.4 80 347 87.2 367.6 128.4C381.9 156.9 392.8 195.4 397.5 240L242.5 240C247.2 195.5 258.2 157 272.4 128.4zM288 432L352 432C360.8 432 368 439.2 368 448L368 512C368 520.8 360.8 528 352 528L288 528C279.2 528 272 520.8 272 512L272 448C272 439.2 279.2 432 288 432z"/></svg>