<svg xmlns="http://www.w3.org/2000/svg" viewBox="0 0 640 640"><!--! Font Awesome Pro 7.2.0 by @fontawesome - https://fontawesome.com License - https://fontawesome.com/license (Commercial License) Copyright 2026 Fonticons, Inc. --><path fill="currentColor" d="M160 96C160 130.7 178.4 161.1 206 178C125.5 190.5 64 260.1 64 344C64 480.2 263.3 558.6 304.6 573.4C309.6 575.2 314.7 576 320 576C325.3 576 330.4 575.2 335.4 573.4C376.7 558.6 576 480.2 576 344C576 260 514.4 190.5 434 178C461.6 161.1 480 130.7 480 96L480 88C480 74.7 469.3 64 456 64L416 64C363 64 320 107 320 160C320 107 277 64 224 64L184 64C170.7 64 160 74.7 160 88L160 96zM232 224C290.1 224 338.6 265.3 349.6 320.2C352.2 333.2 362.7 344 376 344C389.3 344 400.2 333.2 398.3 320.1C393.6 287.2 379.3 257.3 358.4 233.4C362.5 232.4 366.6 231.3 370.6 229.9C382.3 226.1 394.8 224 408 224C474.3 224 528 277.7 528 344C528 387.4 495.6 428.6 443.7 464.9C394.5 499.3 339.8 520.8 320 527.9C300.2 520.8 245.5 499.3 196.3 464.9C144.4 428.6 112 387.4 112 344C112 277.7 165.7 224 232 224z"/></svg>