<svg xmlns="http://www.w3.org/2000/svg" viewBox="0 0 640 640"><!--! Font Awesome Pro 7.2.0 by @fontawesome - https://fontawesome.com License - https://fontawesome.com/license (Commercial License) Copyright 2026 Fonticons, Inc. --><path fill="currentColor" d="M344.4 149.6C370.7 125.4 405.2 112 440.9 112L488 112C510.1 112 528 129.9 528 152L528 199.1C528 234.9 514.6 269.3 490.4 295.7L487.2 299.2C465 323.5 434.4 338.5 401.6 341.2C369.4 343.9 343.8 369.5 341.1 401.7L340.9 403.9C338.3 435.3 323.9 464.6 300.7 485.9L293.6 492.4C268.5 515.4 235.7 528.1 201.7 528.1L152 528C129.9 528 112 510.1 112 488L112 434C112 398.1 126.3 363.6 151.7 338.2L152.8 337.1C174.8 315.1 203.8 301.7 234.8 299.1L238.5 298.8C270.7 296.1 296.3 270.5 299 238.3C301.7 205.5 316.7 174.9 341 152.7L344.5 149.5zM440.9 64C393.1 64 347.1 81.9 311.9 114.2L308.4 117.4C275.2 147.8 254.7 189.6 251 234.4C250.3 243.3 243.2 250.3 234.3 251.1L230.6 251.4C188.3 254.9 148.7 273.3 118.7 303.3L117.6 304.4C83.3 338.7 64 385.4 64 434L64 488C64 536.6 103.4 576 152 576L201.8 576C247.8 576 292.2 558.7 326.1 527.6L333.2 521.1C365.3 491.6 385.2 451.2 388.8 407.7L389 405.5C389.7 396.6 396.8 389.6 405.7 388.8C450.5 385.1 492.3 364.6 522.7 331.4L525.9 327.9C558.2 292.7 576.1 246.7 576.1 198.9L576 152C576 103.4 536.6 64 488 64L440.9 64zM475.2 200C475.2 189.4 466.6 180.8 456 180.8C445.4 180.8 436.8 189.4 436.8 200C436.8 210.6 445.4 219.2 456 219.2C466.6 219.2 475.2 210.6 475.2 200zM411.2 264C411.2 253.4 402.6 244.8 392 244.8C381.4 244.8 372.8 253.4 372.8 264C372.8 274.6 381.4 283.2 392 283.2C402.6 283.2 411.2 274.6 411.2 264zM219.2 456C219.2 445.4 210.6 436.8 200 436.8C189.4 436.8 180.8 445.4 180.8 456C180.8 466.6 189.4 475.2 200 475.2C210.6 475.2 219.2 466.6 219.2 456zM264 475.2C274.6 475.2 283.2 466.6 283.2 456C283.2 445.4 274.6 436.8 264 436.8C253.4 436.8 244.8 445.4 244.8 456C244.8 466.6 253.4 475.2 264 475.2zM475.2 264C475.2 253.4 466.6 244.8 456 244.8C445.4 244.8 436.8 253.4 436.8 264C436.8 274.6 445.4 283.2 456 283.2C466.6 283.2 475.2 274.6 475.2 264zM264 411.2C274.6 411.2 283.2 402.6 283.2 392C283.2 381.4 274.6 372.8 264 372.8C253.4 372.8 244.8 381.4 244.8 392C244.8 402.6 253.4 411.2 264 411.2z"/></svg>