<svg xmlns="http://www.w3.org/2000/svg" viewBox="0 0 640 640"><!--! Font Awesome Pro 7.2.0 by @fontawesome - https://fontawesome.com License - https://fontawesome.com/license (Commercial License) Copyright 2026 Fonticons, Inc. --><path fill="currentColor" d="M288 32C318.9 32 344 57.1 344 88C344 118.9 318.9 144 288 144C257.1 144 232 118.9 232 88C232 57.1 257.1 32 288 32zM224 240.4C224 204.8 252.8 176 288.4 176C311.7 176 333.1 188.5 344.5 208.8L386.6 283.6C393.7 296.2 407 304 421.5 304L456.1 304C469.4 304 480.1 314.7 480.1 328C480.1 341.3 469.4 352 456.1 352L421.5 352C394.1 352 368.6 339.3 352.1 318.1L352.1 416L364.9 425.6C387 442.2 400 468.3 400 496L400 584C400 597.3 389.3 608 376 608C362.7 608 352 597.3 352 584L352 496C352 483.4 346.1 471.6 336 464L259.2 406.4C237 389.8 224 363.7 224 336L224 240.4zM224 433.6C227.5 437.1 231.2 440.4 235 443.5L272 473.1L272 584.1C272 597.4 261.3 608.1 248 608.1C234.7 608.1 224 597.4 224 584.1L224 433.7zM288 224C279.2 224 272 231.2 272 240L272 335.4C272 346 276.2 356.2 283.7 363.7L304 384L304 240C304 231.2 296.8 224 288 224z"/></svg>