<svg xmlns="http://www.w3.org/2000/svg" viewBox="0 0 640 640"><!--! Font Awesome Pro 7.2.0 by @fontawesome - https://fontawesome.com License - https://fontawesome.com/license (Commercial License) Copyright 2026 Fonticons, Inc. --><path fill="currentColor" d="M328 144C358.9 144 384 118.9 384 88C384 57.1 358.9 32 328 32C297.1 32 272 57.1 272 88C272 118.9 297.1 144 328 144zM320 224C331.2 224 342.1 226.5 352 231.1L352 384L288 384L288 231.1C297.9 226.5 308.8 224 320 224zM352 432L352 584C352 597.3 362.7 608 376 608C389.3 608 400 597.3 400 584L400 281.6L460.5 366C468.2 376.8 483.2 379.2 494 371.5C504.8 363.8 507.2 348.8 499.5 338L420.3 227.5C397.1 195.2 359.8 176 320 176C280.2 176 242.8 195.2 219.7 227.5L140.5 338C132.8 348.8 135.3 363.8 146 371.5C156.7 379.2 171.8 376.7 179.5 366L240 281.6L240 584C240 597.3 250.7 608 264 608C277.3 608 288 597.3 288 584L288 432L352 432zM488 448C492.4 448 496 451.6 496 456L496 584C496 597.3 506.7 608 520 608C533.3 608 544 597.3 544 584L544 456C544 425.1 518.9 400 488 400C457.1 400 432 425.1 432 456C432 469.3 442.7 480 456 480C469.3 480 480 469.3 480 456C480 451.6 483.6 448 488 448z"/></svg>