<svg xmlns="http://www.w3.org/2000/svg" viewBox="0 0 640 640"><!--! Font Awesome Pro 7.2.0 by @fontawesome - https://fontawesome.com License - https://fontawesome.com/license (Commercial License) Copyright 2026 Fonticons, Inc. --><path fill="currentColor" d="M224 32C254.9 32 280 57.1 280 88C280 118.9 254.9 144 224 144C193.1 144 168 118.9 168 88C168 57.1 193.1 32 224 32zM192 384L256 384L256 231.1C246.1 226.5 235.2 224 224 224C212.8 224 201.9 226.5 192 231.1L192 384zM192 432L192 584C192 597.3 181.3 608 168 608C154.7 608 144 597.3 144 584L144 281.6L83.5 366C75.8 376.8 60.8 379.3 50 371.5C39.2 363.7 36.8 348.8 44.5 338L123.7 227.5C146.8 195.2 184.2 176 224 176C263.8 176 301.2 195.2 324.3 227.5L382.7 309C369.6 318.6 357.8 329.8 347.5 342.3L304 281.6L304 584C304 597.3 293.3 608 280 608C266.7 608 256 597.3 256 584L256 432L192 432zM496 320C575.5 320 640 384.5 640 464C640 543.5 575.5 608 496 608C416.5 608 352 543.5 352 464C352 384.5 416.5 320 496 320zM496 548C507 548 516 539 516 528C516 517 507 508 496 508C485 508 476 517 476 528C476 539 485 548 496 548zM496 368C487.2 368 480 375.2 480 384L480 464C480 472.8 487.2 480 496 480C504.8 480 512 472.8 512 464L512 384C512 375.2 504.8 368 496 368z"/></svg>