<svg xmlns="http://www.w3.org/2000/svg" viewBox="0 0 640 640"><!--! Font Awesome Pro 7.2.0 by @fontawesome - https://fontawesome.com License - https://fontawesome.com/license (Commercial License) Copyright 2026 Fonticons, Inc. --><path fill="currentColor" d="M183.5 51.3C180.9 38.3 168.3 29.9 155.3 32.5C142.3 35.1 133.9 47.7 136.5 60.7L143.4 95.2C154.6 151.4 191.3 197.1 240 221.3L240 584C240 597.3 250.7 608 264 608C277.3 608 288 597.3 288 584L288 432L352 432L352 584C352 597.3 362.7 608 376 608C389.3 608 400 597.3 400 584L400 221.3C448.7 197.1 485.4 151.4 496.6 95.2L503.5 60.7C506.1 47.7 497.7 35.1 484.7 32.5C471.7 29.9 459.1 38.3 456.5 51.3L449.6 85.8C437.2 147.5 383 192 320 192C257 192 202.8 147.5 190.4 85.8L183.5 51.3zM352 384L288 384L288 237.2C298.4 239.1 309.1 240 320 240C330.9 240 341.6 239 352 237.2L352 384zM320 144C350.9 144 376 118.9 376 88C376 57.1 350.9 32 320 32C289.1 32 264 57.1 264 88C264 118.9 289.1 144 320 144z"/></svg>