<svg xmlns="http://www.w3.org/2000/svg" viewBox="0 0 640 640"><!--! Font Awesome Pro 7.2.0 by @fontawesome - https://fontawesome.com License - https://fontawesome.com/license (Commercial License) Copyright 2026 Fonticons, Inc. --><path fill="currentColor" d="M245.6 104.9C233.7 78.7 204 65.8 176.7 74.9C114.4 95.7 60.5 158.6 74.1 235.8C104.7 409.5 230.6 535.4 404.3 566C481.5 579.6 544.4 525.6 565.2 463.4C574.3 436.1 561.3 406.4 535.2 394.5L447.9 354.8C424.5 344.2 396.9 350.8 380.8 370.8L359.6 397.4C310.7 370.1 270.7 328.6 245.2 278.6L269.4 259.3C289.5 243.2 296.1 215.6 285.4 192.2L245.6 104.9zM191.9 120.4C195.9 119.1 200.2 121 201.9 124.8L241.6 212C243.1 215.4 242.2 219.4 239.3 221.7L200.4 252.8C192 259.6 189.1 271.1 193.4 281C225.3 354.9 283.3 414.8 355.8 449.2C365.9 454 377.9 451.2 384.8 442.5L418.3 400.6C420.6 397.7 424.6 396.7 428 398.3L515.3 438C519.1 439.7 521 444 519.7 448C504.6 493.3 461.1 527.1 412.7 518.5C258.9 491.4 148.6 381.1 121.5 227.2C113 178.8 146.8 135.3 192 120.2zM555.9 84.1C546.5 74.7 531.3 74.7 522 84.1L488 118.1L454.1 84.1C444.7 74.7 429.5 74.7 420.2 84.1C410.9 93.5 410.8 108.7 420.2 118L454.1 151.9L420.2 185.8C410.8 195.2 410.8 210.4 420.2 219.7C429.6 229 444.8 229.1 454.1 219.7L488 185.9L522 219.9C531.4 229.3 546.6 229.3 555.9 219.9C565.2 210.5 565.3 195.3 555.9 186L522 152L555.9 118.1C565.3 108.7 565.3 93.5 555.9 84.2z"/></svg>