<svg xmlns="http://www.w3.org/2000/svg" viewBox="0 0 640 640"><!--! Font Awesome Pro 7.2.0 by @fontawesome - https://fontawesome.com License - https://fontawesome.com/license (Commercial License) Copyright 2026 Fonticons, Inc. --><path fill="currentColor" d="M288 32C323.3 32 352 60.7 352 96L352 208L472 208C529.4 208 576 254.6 576 312L576 512C576 547.3 547.3 576 512 576L480 576C444.7 576 416 547.3 416 512L416 496L320 496L320 512C320 547.3 291.3 576 256 576L224 576C188.7 576 160 547.3 160 512L160 270.8L112.8 247.2C82.9 232.3 64 201.7 64 168.3C64 119.5 103.5 80 152.3 80L226.1 80C233.2 52.4 258.2 32 288 32zM476.8 426.3C465.3 433.8 450.7 434.1 439 427.3L434.2 424L415.5 408.7L388.7 426.3C377.2 433.8 362.6 434.1 350.9 427.3L346.1 424L327.4 408.7L300.6 426.3C289.1 433.8 274.5 434.1 262.9 427.3L258.1 424L239.4 408.7L207.8 429.4L207.8 512C207.8 520.8 215 528 223.8 528L255.8 528C264.6 528 271.8 520.8 271.8 512L271.8 472C271.8 458.7 282.5 448 295.8 448L439.8 448C453.1 448 463.8 458.7 463.8 472L463.8 512C463.8 520.8 471 528 479.8 528L511.8 528C520.6 528 527.8 520.8 527.8 512L527.8 428.7L503.4 408.7L476.6 426.3zM476.8 338.3C465.3 345.8 450.7 346.1 439 339.3L434.2 336L415.5 320.7L388.7 338.3C377.2 345.8 362.6 346.1 350.9 339.3L346.1 336L327.4 320.7L300.6 338.3C289.1 345.8 274.5 346.1 262.9 339.3L258.1 336L239.4 320.7L207.8 341.4L207.8 381.6L219.9 373.7L225 370.9C235.5 366.2 247.7 366.9 257.6 372.7L262.4 376L281.1 391.3L307.9 373.8L313 371C323.5 366.3 335.7 367 345.6 372.8L350.4 376.1L369.1 391.4L395.9 373.9L401 371.1C411.5 366.4 423.7 367.1 433.6 372.9L438.4 376.2L457.1 391.5L483.9 374L489 371.2C499.5 366.5 511.7 367.2 521.6 373L526.4 376.3L527.8 377.4L527.8 341.1L503.4 321.1L476.6 338.7zM288 80C279.2 80 272 87.2 272 96L272 104L271.9 106.5C270.6 118.6 260.4 128 248 128L152.3 128C130.1 128 112 146 112 168.3C112 183.6 120.6 197.5 134.2 204.3L194.7 234.5L197.6 236.2C204.1 240.7 208 248 208 256L208 293.6L220.1 285.7L225.2 282.9C235.7 278.2 247.9 278.9 257.8 284.7L262.6 288L281.3 303.3L308.1 285.8L313.2 283C323.7 278.3 335.9 279 345.8 284.8L350.6 288.1L369.3 303.4L396.1 285.9L401.2 283.1C411.7 278.4 423.9 279.1 433.8 284.9L438.6 288.2L457.3 303.5L484.1 286L489.2 283.2C499.2 278.7 510.7 279.2 520.4 284.2C510.7 267.5 492.7 256.3 472 256.3L328 256.3C314.7 256.3 304 245.6 304 232.3L304 96.3C304 87.5 296.8 80.3 288 80.3zM232 208C218.7 208 208 197.3 208 184C208 170.7 218.7 160 232 160C245.3 160 256 170.7 256 184C256 197.3 245.3 208 232 208z"/></svg>