<svg xmlns="http://www.w3.org/2000/svg" viewBox="0 0 640 640"><!--! Font Awesome Pro 7.2.0 by @fontawesome - https://fontawesome.com License - https://fontawesome.com/license (Commercial License) Copyright 2026 Fonticons, Inc. --><path fill="currentColor" d="M487.1 65.7C491.3 67.8 494.4 71.6 495.5 76.2L499.1 90.5C511 83.6 524.6 80 538.5 80L544 80C552.8 80 560 87.2 560 96L560 101.5C560 115.4 556.4 129 549.6 140.9L563.9 144.5C568.5 145.6 572.3 148.7 574.4 152.9C576.5 157.1 576.6 162 574.8 166.3C568 182.2 555.3 193 540.7 197.9L555.4 212.6C561.6 218.8 561.6 229 555.4 235.2C540 250.6 520.1 258.8 499.9 259.7C507.9 278.6 512.1 299 512.1 319.9C512.1 360.9 495.8 400.2 466.8 429.2L365.3 530.7C336.3 559.7 297 576 256 576C215 576 175.7 559.7 146.7 530.7L109.2 493.2L143.1 459.3L180.6 496.8C200.6 516.8 227.7 528 255.9 528C284.1 528 311.2 516.8 331.2 496.8L432.8 395.3C452.8 375.3 464 348.2 464 320C464 291.8 452.8 264.7 432.8 244.7L395.3 207.2C375.3 187.2 348.2 176 320 176C291.8 176 264.7 187.2 244.7 207.2L143.2 308.7C123.2 328.7 112 355.8 112 384C112 412.2 123.2 439.3 143.2 459.3L109.3 493.3C80.3 464.3 64 425 64 384C64 343 80.3 303.7 109.3 274.7L210.7 173.3C239.7 144.3 279 128 320 128C340.9 128 361.3 132.2 380.2 140.2C381.1 120 389.3 100.1 404.7 84.7C410.9 78.5 421.1 78.5 427.3 84.7L442 99.4C446.9 84.8 457.8 72.1 473.6 65.3C477.9 63.5 482.8 63.6 487 65.7zM251.3 276.7L272 297.4L292.7 276.7C298.9 270.5 309.1 270.5 315.3 276.7C321.5 282.9 321.5 293.1 315.3 299.3L283.3 331.3C277.1 337.5 266.9 337.5 260.7 331.3L228.7 299.3C222.5 293.1 222.5 282.9 228.7 276.7C234.9 270.5 245.1 270.5 251.3 276.7zM171.3 356.7L192 377.4L212.7 356.7C218.9 350.5 229.1 350.5 235.3 356.7C241.5 362.9 241.5 373.1 235.3 379.3L203.3 411.3C197.1 417.5 186.9 417.5 180.7 411.3L148.7 379.3C142.5 373.1 142.5 362.9 148.7 356.7C154.9 350.5 165.1 350.5 171.3 356.7zM352 377.4L372.7 356.7C378.9 350.5 389.1 350.5 395.3 356.7C401.5 362.9 401.5 373.1 395.3 379.3L363.3 411.3C357.1 417.5 346.9 417.5 340.7 411.3L308.7 379.3C302.5 373.1 302.5 362.9 308.7 356.7C314.9 350.5 325.1 350.5 331.3 356.7L352 377.4zM228.7 436.7C234.9 430.5 245.1 430.5 251.3 436.7L272 457.4L292.7 436.7C298.9 430.5 309.1 430.5 315.3 436.7C321.5 442.9 321.5 453.1 315.3 459.3L283.3 491.3C277.1 497.5 266.9 497.5 260.7 491.3L228.7 459.3C222.5 453.1 222.5 442.9 228.7 436.7z"/></svg>