<svg xmlns="http://www.w3.org/2000/svg" viewBox="0 0 640 640"><!--! Font Awesome Pro 7.2.0 by @fontawesome - https://fontawesome.com License - https://fontawesome.com/license (Commercial License) Copyright 2026 Fonticons, Inc. --><path fill="currentColor" d="M186.2 99.6L64.5 555.9C63 561.4 64.6 567.3 68.6 571.3C72.6 575.3 78.5 576.9 84 575.4L540.4 453.8C561.2 448.3 576.7 429.1 575.1 406.3C562.5 223.5 416.5 77.5 233.7 64.9C210.9 63.3 191.8 78.9 186.2 99.6zM208.6 202C328.3 216.7 423.3 311.7 438 431.4L125.2 514.8L208.6 202zM221.1 155.2L232.4 112.9C389.6 124.7 515.3 250.4 527.1 407.7L484.8 419C465.1 282.8 357.3 175 221.1 155.3zM256 416C256 398.3 241.7 384 224 384C206.3 384 192 398.3 192 416C192 433.7 206.3 448 224 448C241.7 448 256 433.7 256 416zM352 416C369.7 416 384 401.7 384 384C384 366.3 369.7 352 352 352C334.3 352 320 366.3 320 384C320 401.7 334.3 416 352 416zM288 288C288 270.3 273.7 256 256 256C238.3 256 224 270.3 224 288C224 305.7 238.3 320 256 320C273.7 320 288 305.7 288 288z"/></svg>