<svg xmlns="http://www.w3.org/2000/svg" viewBox="0 0 640 640"><!--! Font Awesome Pro 7.2.0 by @fontawesome - https://fontawesome.com License - https://fontawesome.com/license (Commercial License) Copyright 2026 Fonticons, Inc. --><path fill="currentColor" d="M184 32C197.3 32 208 42.7 208 56L208 160L368 160L368 56C368 42.7 378.7 32 392 32C405.3 32 416 42.7 416 56L416 160L488 160C501.3 160 512 170.7 512 184C512 197.3 501.3 208 488 208L480 208L480 272.7C463.3 274.1 447.2 277.6 432 283L432 208.1L144 208.1L144 288.1C144 367.6 208.5 432.1 288 432.1C294.4 432.1 300.7 431.7 306.9 430.9C303.9 448.1 300.6 480.7 312 519.1L312 552.1C312 565.4 301.3 576.1 288 576.1C274.7 576.1 264 565.4 264 552.1L264 478.6C169.3 466.7 96 385.9 96 288L96 208L88 208C74.7 208 64 197.3 64 184C64 170.7 74.7 160 88 160L160 160L160 56C160 42.7 170.7 32 184 32zM496 320C575.5 320 640 384.5 640 464C640 543.5 575.5 608 496 608C416.5 608 352 543.5 352 464C352 384.5 416.5 320 496 320zM555.3 427.3C561.5 421.1 561.5 410.9 555.3 404.7C549.1 398.5 538.9 398.5 532.7 404.7L496 441.4L459.3 404.7C453.1 398.5 442.9 398.5 436.7 404.7C430.5 410.9 430.5 421.1 436.7 427.3L473.4 464L436.7 500.7C430.5 506.9 430.5 517.1 436.7 523.3C442.9 529.5 453.1 529.5 459.3 523.3L496 486.6L532.7 523.3C538.9 529.5 549.1 529.5 555.3 523.3C561.5 517.1 561.5 506.9 555.3 500.7L518.6 464L555.3 427.3z"/></svg>