<svg xmlns="http://www.w3.org/2000/svg" viewBox="0 0 640 640"><!--! Font Awesome Pro 7.2.0 by @fontawesome - https://fontawesome.com License - https://fontawesome.com/license (Commercial License) Copyright 2026 Fonticons, Inc. --><path fill="currentColor" d="M344 88C344 74.7 333.3 64 320 64C306.7 64 296 74.7 296 88L296 232L152 232C138.7 232 128 242.7 128 256C128 269.3 138.7 280 152 280L296 280L296 424C296 437.3 306.7 448 320 448C333.3 448 344 437.3 344 424L344 280L488 280C501.3 280 512 269.3 512 256C512 242.7 501.3 232 488 232L344 232L344 88zM128 552C128 565.3 138.7 576 152 576L488 576C501.3 576 512 565.3 512 552C512 538.7 501.3 528 488 528L152 528C138.7 528 128 538.7 128 552z"/></svg>