<svg xmlns="http://www.w3.org/2000/svg" viewBox="0 0 640 640"><!--! Font Awesome Pro 7.2.0 by @fontawesome - https://fontawesome.com License - https://fontawesome.com/license (Commercial License) Copyright 2026 Fonticons, Inc. --><path fill="currentColor" d="M320 64C333.3 64 344 74.7 344 88L344 96L416 96C433.7 96 448 110.3 448 128C465.7 128 480 142.3 480 160L480 528L488 528C501.3 528 512 538.7 512 552C512 565.3 501.3 576 488 576L152 576C138.7 576 128 565.3 128 552C128 538.7 138.7 528 152 528L160 528L160 160C160 142.3 174.3 128 192 128C192 110.3 206.3 96 224 96L296 96L296 88C296 74.7 306.7 64 320 64zM208 528L432 528L432 173.3C418.4 168.5 407.6 157.7 402.7 144L237.3 144C232.5 157.6 221.7 168.4 208 173.3L208 528zM256 208L288 208C296.8 208 304 215.2 304 224L304 256C304 264.8 296.8 272 288 272L256 272C247.2 272 240 264.8 240 256L240 224C240 215.2 247.2 208 256 208zM256 304L288 304C296.8 304 304 311.2 304 320L304 352C304 360.8 296.8 368 288 368L256 368C247.2 368 240 360.8 240 352L240 320C240 311.2 247.2 304 256 304zM336 224C336 215.2 343.2 208 352 208L384 208C392.8 208 400 215.2 400 224L400 256C400 264.8 392.8 272 384 272L352 272C343.2 272 336 264.8 336 256L336 224z"/></svg>