<svg xmlns="http://www.w3.org/2000/svg" viewBox="0 0 640 640"><!--! Font Awesome Pro 7.2.0 by @fontawesome - https://fontawesome.com License - https://fontawesome.com/license (Commercial License) Copyright 2026 Fonticons, Inc. --><path fill="currentColor" d="M326 40.8C332.3 35.1 341.2 33.2 349.3 35.8C388 48.2 416 84.5 416 127.4C416 133.1 415.5 138.6 414.6 144L424 144C472.6 144 512 183.4 512 232C512 246.8 508.3 260.8 501.8 273.1C543.8 279.7 576 316.1 576 360C576 408.6 536.6 448 488 448L477.9 448C470.8 421.2 446.9 401.2 418.1 400.1L418.1 400L488 400C510.1 400 528 382.1 528 360C528 340.1 513.4 323.5 494.4 320.5L461.2 315.3C453.5 314.1 446.9 309.3 443.5 302.3C440.1 295.3 440.1 287.2 443.7 280.3L459.4 250.6C462.3 245.1 464 238.8 464 232C464 209.9 446.1 192 424 192L386 192C378.9 192 372.2 188.9 367.6 183.4C363 177.9 361.1 170.8 362.3 163.8L367.2 135.7L367.2 135.7C367.7 133 367.9 130.2 367.9 127.3C367.9 120.8 366.6 114.5 364.2 108.8C358.3 131.6 345.4 150.7 327.4 164.7C303 183.7 271.5 191.9 239.9 191.9L215.9 191.9C193.8 191.9 175.9 209.8 175.9 231.9C175.9 238.7 177.6 245 180.5 250.5L196.2 280.2C199.8 287 199.9 295.2 196.4 302.2C192.9 309.2 186.3 314 178.7 315.2L145.5 320.4C126.5 323.4 111.9 340 111.9 359.9C111.9 382 129.8 399.9 151.9 399.9L198.5 399.9L181.4 415.2C171.6 424 164.8 435.4 161.7 447.9L152 448C103.4 448 64 408.6 64 360C64 316.1 96.1 279.7 138.2 273.1C131.7 260.8 128 246.9 128 232C128 183.4 167.4 144 216 144L240 144C264 144 284.2 137.7 298.1 127C311.5 116.6 320 101.1 320 79.4C320 73.9 319.5 68.6 318.4 63.5C316.7 55.2 319.6 46.6 325.9 40.9zM224.6 480C215.4 480 208 472.6 208 463.4C208 458.7 210 454.2 213.5 451L354.7 324.7C358.1 321.7 362.5 320 367.1 320C379.5 320 388.4 332 384.9 343.9L353.7 448L415.5 448C424.7 448 432.1 455.4 432.1 464.6C432.1 469.3 430.1 473.8 426.6 477L285.3 603.3C281.9 606.3 277.5 608 272.9 608C260.5 608 251.6 596 255.1 584.1L286.3 480L224.5 480z"/></svg>