<svg xmlns="http://www.w3.org/2000/svg" viewBox="0 0 640 640"><!--! Font Awesome Pro 7.2.0 by @fontawesome - https://fontawesome.com License - https://fontawesome.com/license (Commercial License) Copyright 2026 Fonticons, Inc. --><path fill="currentColor" d="M120 64C106.7 64 96 74.7 96 88L96 360C96 373.3 106.7 384 120 384C133.3 384 144 373.3 144 360L144 288L222.1 288L350.1 416L231.1 535C221.7 544.4 221.7 559.6 231.1 568.9C240.5 578.2 255.7 578.3 265 568.9L384 449.9L503 568.9C512.4 578.3 527.6 578.3 536.9 568.9C546.2 559.5 546.3 544.3 536.9 535L417.9 416L536.9 297C546.3 287.6 546.3 272.4 536.9 263.1C527.5 253.8 512.3 253.7 503 263.1L384 382.1L288.7 286.8C342.6 278.7 384 232.2 384 176C384 114.1 333.9 64 272 64L120 64zM272 240L144 240L144 112L272 112C307.3 112 336 140.7 336 176C336 211.3 307.3 240 272 240z"/></svg>