<svg xmlns="http://www.w3.org/2000/svg" viewBox="0 0 640 640"><!--! Font Awesome Pro 7.2.0 by @fontawesome - https://fontawesome.com License - https://fontawesome.com/license (Commercial License) Copyright 2026 Fonticons, Inc. --><path fill="currentColor" d="M120 248.2C120 300.7 140.3 348.5 173.5 384.1L192.5 357.3C167.3 328 152 289.9 152 248.2C152 208.3 184.3 176 224.2 176L228 176C270 176 304 210 304 252L304 257.1C304 273.9 298.8 290.3 289.1 304L243.2 368.9L243.1 369.1L196.9 434.3L196.8 434.5L171 470.9C165.9 478.1 167.6 488.1 174.8 493.2C182 498.3 192 496.6 197.1 489.4L227.7 446C233.9 437.3 245 433.7 255.1 437.2C275.4 444.2 297.3 448 320.1 448C331.3 448 342.4 447.1 353.1 445.3L332.1 415.6C328.2 415.9 324.2 416 320.2 416C311 416 301.9 415.3 293 413.8C284.8 412.5 277.9 407 274.7 399.4C271.5 391.8 272.5 383 277.3 376.3L300.6 343.4C305.1 337 312.4 333.3 320.2 333.3C328 333.3 335.3 337.1 339.8 343.4C347.5 354.2 355.2 365.2 363.1 376.3L363.2 376.4L412.5 445.9C412.5 445.9 412.6 446 412.6 446L443.2 489.2C448.3 496.4 458.3 498.1 465.5 493C472.7 487.9 474.4 477.9 469.3 470.7L443.5 434.3C436.2 424.1 438.1 410 447.8 401.9C492.1 365.2 520.2 309.9 520.2 248.1C520.2 190.5 473.5 143.9 416 143.9L412 144C382.7 144 356.2 155.6 336.7 174.6C327.4 183.7 312.6 183.7 303.2 174.6C283.7 155.7 257.2 144 227.9 144L224.1 144C166.7 144 120 190.7 120 248.2zM145.2 424C100.1 379.1 72 317 72 248.2C72 164.1 140.1 96 224.2 96L228 96C262.4 96 294.2 107.2 320 126C345.8 107.1 377.6 96 412 96L415.8 96C499.8 96 568 164.1 568 248.2C568 317 539.9 379.1 494.8 424L508.3 443C528.7 471.8 521.9 511.8 493.1 532.2C464.3 552.6 424.3 545.8 403.9 517L403.9 517L383.3 487.9C363 493.2 341.8 496 320 496C298.2 496 277 493.2 256.8 487.9L236.2 517C215.8 545.8 175.8 552.7 147 532.2C160.3 513.4 160.3 513.4 147 532.2C118.2 511.8 111.3 471.8 131.8 443L131.8 443L145.3 424zM200 248.2C200 273.5 207.9 297.1 221.4 316.5L249.9 276.3C253.9 270.7 256 264 256 257.2L256 252.1C256 236.6 243.5 224.1 228 224.1L224.2 224.1C210.8 224.1 200 234.9 200 248.3zM384 252L384 257.1C384 264 386.1 270.6 390.1 276.2L418.6 316.4C432.1 297 440 273.5 440 248.1C440 234.7 429.2 223.9 415.8 223.9L412 223.9C396.5 223.9 384 236.4 384 251.9zM412 176L415.8 176C455.7 176 488 208.3 488 248.2C488 297.6 466.5 342.1 432.5 372.8C427.4 377.4 420.6 379.6 413.8 378.8C407 378 400.8 374.4 396.9 368.8L350.9 304C341.2 290.3 336 273.9 336 257.1L336 252C336 210 370 176 412 176z"/></svg>