<svg xmlns="http://www.w3.org/2000/svg" viewBox="0 0 640 640"><!--! Font Awesome Pro 7.2.0 by @fontawesome - https://fontawesome.com License - https://fontawesome.com/license (Commercial License) Copyright 2026 Fonticons, Inc. --><path fill="currentColor" d="M272.9 189.4C287.5 180.7 303.4 176 320 176C336.6 176 352.6 180.8 367.1 189.4L343.5 128L296.5 128L272.9 189.4zM224.3 182.1L255.7 100.5C260.4 88.2 272.3 80 285.5 80L354.5 80C367.7 80 379.6 88.2 384.4 100.5L415.8 182.1C426.1 178.1 436.9 176 448 176C518.7 176 576 262 576 368C576 474 518.7 560 448 560C431.3 560 415.4 555.2 400.8 546.5C390.5 540.4 377.4 540.4 367.1 546.5C352.5 555.2 336.6 560 319.9 560C303.2 560 287.3 555.2 272.7 546.5C262.4 540.4 249.3 540.4 239 546.5C224.4 555.2 208.5 560 191.8 560C121.1 560 63.8 474 63.8 368C63.8 262 121.3 176 192 176C203.1 176 213.9 178.1 224.2 182.1zM214.7 505.3C240.1 490.2 272 490.2 297.4 505.3C305.3 510 312.9 512 320 512C327.1 512 334.7 510 342.6 505.3C368 490.2 399.9 490.2 425.3 505.3C433.2 510 440.8 512 447.9 512C462.2 512 481 503.3 498.5 477.1C515.7 451.3 527.9 412.8 527.9 368C527.9 323.2 515.7 284.7 498.5 258.9C481.1 232.7 462.2 224 447.9 224C440.7 224 433.2 226 425.3 230.7C399.9 245.8 368 245.8 342.6 230.7C334.7 226 327.1 224 320 224C312.9 224 305.3 226 297.4 230.7C272 245.8 240.1 245.8 214.7 230.7C206.8 226 199.2 224 192.1 224C177.8 224 159 232.7 141.5 258.9C124.3 284.7 112.1 323.2 112.1 368C112.1 412.8 124.3 451.3 141.5 477.1C158.9 503.3 177.8 512 192.1 512C199.3 512 206.8 510 214.7 505.3z"/></svg>