<svg xmlns="http://www.w3.org/2000/svg" viewBox="0 0 640 640"><!--! Font Awesome Pro 7.2.0 by @fontawesome - https://fontawesome.com License - https://fontawesome.com/license (Commercial License) Copyright 2026 Fonticons, Inc. --><path fill="currentColor" d="M265.1 121.3C258.1 126.6 256 132 256 136C256 140.2 258.4 146.1 266.4 151.6C274.2 156.9 280 166.2 280 177.2C280 194.2 266.2 207.9 249.3 207.9L120 208C115.6 208 112 211.6 112 216L112 268.5C119.4 265.6 127.5 264 136 264C179.1 264 208 303.4 208 344C208 384.6 179.1 424 136 424C127.5 424 119.4 422.4 112 419.5L112 520C112 524.4 115.6 528 120 528L220.5 528C217.6 520.6 216 512.5 216 504C216 460.9 255.4 432 296 432C336.6 432 376 460.9 376 504C376 512.5 374.4 520.6 371.5 528L424 528C428.4 528 432 524.4 432 520L432 390.7C432 373.7 445.8 360 462.7 360C473.8 360 483 365.8 488.3 373.6C493.8 381.6 499.7 384 503.9 384C507.9 384 513.4 381.9 518.6 374.9C523.8 367.9 527.9 357 527.9 344C527.9 331 523.9 320.2 518.6 313.1C513.3 306 507.9 304 503.9 304C499.7 304 493.8 306.4 488.3 314.4C483 322.2 473.7 328 462.7 328C445.7 328 432 314.2 432 297.3L432 216C432 211.6 428.4 208 424 208L342.7 208C325.7 208 312 194.2 312 177.3C312 166.2 317.8 157 325.6 151.7C333.6 146.2 336 140.3 336 136.1C336 132.1 333.9 126.6 326.9 121.4C319.9 116.2 309 112 296 112C283 112 272.2 116 265.1 121.3zM236.3 82.9C252.5 70.8 273.6 64 296 64C318.4 64 339.5 70.8 355.7 82.9C371.9 95 384 113.5 384 136C384 144.6 382.2 152.7 379.1 160L424 160C454.9 160 480 185.1 480 216L480 260.9C487.3 257.8 495.4 256 504 256C526.5 256 545 268.2 557.1 284.3C569.2 300.4 576 321.6 576 344C576 366.4 569.2 387.5 557.1 403.7C545 419.9 526.5 432 504 432C495.4 432 487.3 430.2 480 427.1L480 520C480 550.9 454.9 576 424 576L345.9 576C327.2 576 312 560.8 312 542.1C312 532 316.5 523.6 321.9 517.9C326.1 513.6 328 508.7 328 504C328 494.1 317.3 480 296 480C274.7 480 264 494.1 264 504C264 508.7 265.9 513.5 270.1 517.9C275.6 523.6 280 532 280 542.1C280 560.8 264.8 576 246.1 576L120 576C89.1 576 64 550.9 64 520L64 393.9C64 375.2 79.2 360 97.9 360C108 360 116.4 364.5 122.1 369.9C126.4 374.1 131.3 376 136 376C145.9 376 160 365.3 160 344C160 322.7 145.9 312 136 312C131.3 312 126.5 313.9 122.1 318.1C116.4 323.6 108 328 97.9 328C79.2 328 64 312.8 64 294.1L64 216C64 185.1 89.1 160 120 160L212.9 160C209.8 152.7 208 144.6 208 136C208 113.5 220.2 95 236.3 82.9z"/></svg>