<svg xmlns="http://www.w3.org/2000/svg" viewBox="0 0 640 640"><!--! Font Awesome Pro 7.2.0 by @fontawesome - https://fontawesome.com License - https://fontawesome.com/license (Commercial License) Copyright 2026 Fonticons, Inc. --><path fill="currentColor" d="M576 128C611.3 128 640 156.7 640 192L640 448C640 483.3 611.3 512 576 512L64 512C28.7 512 0 483.3 0 448L0 192C0 156.7 28.7 128 64 128L576 128zM64 176C55.2 176 48 183.2 48 192L48 448C48 456.8 55.2 464 64 464L576 464C584.8 464 592 456.8 592 448L592 192C592 183.2 584.8 176 576 176L64 176zM188 224C199 224 208 233 208 244L208 396C208 405 201.9 413 193.2 415.3C184.5 417.6 175.2 413.8 170.7 406L120 318.5L120 396C120 407 111 416 100 416C89 416 80 407 80 396L80 244C80 235 86.1 227 94.8 224.7C103.5 222.4 112.8 226.2 117.3 234L168 321.5L168 244C168 233 177 224 188 224zM348 224C359 224 368 233 368 244C368 255 359 264 348 264L280 264L280 300L336 300C347 300 356 309 356 320C356 331 347 340 336 340L280 340L280 376L348 376C359 376 368 385 368 396C368 407 359 416 348 416L260 416C249 416 240 407 240 396L240 244C240 233 249 224 260 224L348 224zM540 224C551 224 560 233 560 244L560 323.9C560 337.7 556.6 351.4 550 363.6L527.6 405.4C524.1 411.9 517.3 416 510 416C502.7 416 495.9 411.9 492.4 405.4L480 382.3L467.6 405.4C464.1 411.9 457.3 416 450 416C442.7 416 435.9 411.9 432.4 405.4L410 363.6C403.5 351.4 400 337.8 400 323.9L400 244C400 233 409 224 420 224C431 224 440 233 440 244L440 323.9C440 331.2 441.8 338.3 445.2 344.7L450 353.6L462.4 330.5L463.8 328.2C467.5 323.1 473.5 320 480 320C487.4 320 494.1 324.1 497.6 330.6L509.9 353.7L514.7 344.8C518.1 338.4 519.9 331.3 519.9 324L519.9 244.1C519.9 233.1 528.9 224.1 539.9 224.1z"/></svg>