<svg xmlns="http://www.w3.org/2000/svg" viewBox="0 0 640 640"><!--! Font Awesome Pro 7.2.0 by @fontawesome - https://fontawesome.com License - https://fontawesome.com/license (Commercial License) Copyright 2026 Fonticons, Inc. --><path fill="currentColor" d="M320 201.4L409.4 112L230.6 112L320 201.4zM162.4 83.8C167.4 71.8 179.1 64 192 64L448 64C460.9 64 472.6 71.8 477.6 83.8C482.6 95.8 479.8 109.5 470.7 118.7L342.7 246.7C330.2 259.2 309.9 259.2 297.4 246.7L169.4 118.7C160.2 109.5 157.5 95.8 162.5 83.8zM96 320C96 306.7 106.7 296 120 296L520 296C533.3 296 544 306.7 544 320C544 333.3 533.3 344 520 344L120 344C106.7 344 96 333.3 96 320zM230.6 528L409.3 528L319.9 438.6L230.5 528zM192 576C179.1 576 167.4 568.2 162.4 556.2C157.4 544.2 160.2 530.5 169.3 521.3L297.3 393.3C309.8 380.8 330.1 380.8 342.6 393.3L470.6 521.3C479.8 530.5 482.5 544.2 477.5 556.2C472.5 568.2 460.9 576 448 576L192 576z"/></svg>