<svg xmlns="http://www.w3.org/2000/svg" viewBox="0 0 640 640"><!--! Font Awesome Pro 7.2.0 by @fontawesome - https://fontawesome.com License - https://fontawesome.com/license (Commercial License) Copyright 2026 Fonticons, Inc. --><path fill="currentColor" d="M64 152C64 138.7 74.7 128 88 128L488 128C501.3 128 512 138.7 512 152C512 165.3 501.3 176 488 176L88 176C74.7 176 64 165.3 64 152zM128 320C128 306.7 138.7 296 152 296L552 296C565.3 296 576 306.7 576 320C576 333.3 565.3 344 552 344L152 344C138.7 344 128 333.3 128 320zM512 488C512 501.3 501.3 512 488 512L88 512C74.7 512 64 501.3 64 488C64 474.7 74.7 464 88 464L488 464C501.3 464 512 474.7 512 488z"/></svg>