<svg xmlns="http://www.w3.org/2000/svg" viewBox="0 0 640 640"><!--! Font Awesome Pro 7.2.0 by @fontawesome - https://fontawesome.com License - https://fontawesome.com/license (Commercial License) Copyright 2026 Fonticons, Inc. --><path fill="currentColor" d="M537 177C546.4 167.6 546.4 152.4 537 143.1L449 55C439.6 45.6 424.4 45.6 415.1 55C405.8 64.4 405.7 79.6 415.1 88.9L462.1 135.9L256 135.9C150 136 64 222 64 328C64 341.3 74.7 352 88 352C101.3 352 112 341.3 112 328C112 248.5 176.5 184 256 184L462.1 184L415.1 231C405.7 240.4 405.7 255.6 415.1 264.9C424.5 274.2 439.7 274.3 449 264.9L537 176.9zM103 463C98.5 467.5 96 473.6 96 480C96 486.4 98.5 492.5 103 497L191 585C200.4 594.4 215.6 594.4 224.9 585C234.2 575.6 234.3 560.4 224.9 551.1L177.9 504.1L384 504.1C490 504.1 576 418.1 576 312.1C576 298.8 565.3 288.1 552 288.1C538.7 288.1 528 298.8 528 312.1C528 391.6 463.5 456.1 384 456.1L177.9 456.1L224.9 409.1C234.3 399.7 234.3 384.5 224.9 375.2C215.5 365.9 200.3 365.8 191 375.2L103 463z"/></svg>