<svg xmlns="http://www.w3.org/2000/svg" viewBox="0 0 640 640"><!--! Font Awesome Pro 7.2.0 by @fontawesome - https://fontawesome.com License - https://fontawesome.com/license (Commercial License) Copyright 2026 Fonticons, Inc. --><path fill="currentColor" d="M128 160C154.5 160 176 138.5 176 112C176 85.5 154.5 64 128 64C101.5 64 80 85.5 80 112C80 138.5 101.5 160 128 160zM120.7 240L135.3 240C138.3 240 141.2 240.3 144 241L144 368L112 368L112 241C114.8 240.4 117.7 240 120.7 240zM112 552L112 416L144 416L144 552C144 565.3 154.7 576 168 576C181.3 576 192 565.3 192 552L192 315.4L209.6 360.7C214.4 373.1 228.3 379.2 240.7 374.4C253.1 369.6 259.2 355.7 254.4 343.3L217.4 248.1C204.2 214.3 171.7 192 135.4 192L120.8 192C84.5 192 51.9 214.3 38.8 248.1L1.8 343.3C-3 355.7 3.1 369.6 15.5 374.4C27.9 379.2 41.8 373.1 46.6 360.7L64 315.4L64 552C64 565.3 74.7 576 88 576C101.3 576 112 565.3 112 552zM320 64C306.7 64 296 74.7 296 88L296 552C296 565.3 306.7 576 320 576C333.3 576 344 565.3 344 552L344 88C344 74.7 333.3 64 320 64zM560 112C560 85.5 538.5 64 512 64C485.5 64 464 85.5 464 112C464 138.5 485.5 160 512 160C538.5 160 560 138.5 560 112zM512 192C471.3 192 434.8 217 420 254.9L385.6 343.3C380.8 355.7 386.9 369.6 399.3 374.4C406.9 377.4 415.1 376.2 421.4 371.9L405.7 427.7C402.8 437.9 410.5 448 421.1 448L448 448L448 552C448 565.3 458.7 576 472 576C485.3 576 496 565.3 496 552L496 448L528 448L528 552C528 565.3 538.7 576 552 576C565.3 576 576 565.3 576 552L576 448L602.9 448C613.5 448 621.2 437.9 618.3 427.7L602.6 371.9C608.9 376.1 617.1 377.3 624.7 374.4C637.1 369.6 643.2 355.7 638.4 343.3L604 254.9C589.2 217 552.7 192 512 192zM512 240C514.2 240 516 241.4 516.6 243.5L560.6 400L463.3 400L507.3 243.5C507.9 241.4 509.8 240 511.9 240z"/></svg>