<svg xmlns="http://www.w3.org/2000/svg" viewBox="0 0 640 640"><!--! Font Awesome Pro 7.2.0 by @fontawesome - https://fontawesome.com License - https://fontawesome.com/license (Commercial License) Copyright 2026 Fonticons, Inc. --><path fill="currentColor" d="M569 337C578.4 327.6 578.4 312.4 569 303.1L425 159C418.1 152.1 407.8 150.1 398.8 153.8C389.8 157.5 384 166.3 384 176L384 240L320 240L320 240L240 240C213.5 240 192 261.5 192 288L192 352C192 378.5 213.5 400 240 400L384 400L384 464C384 473.7 389.8 482.5 398.8 486.2C407.8 489.9 418.1 487.9 425 481L569 337zM320 352L240 352L240 288L320 288L320 288L408 288C421.3 288 432 277.3 432 264L432 233.9L518.1 320L432 406.1L432 376C432 362.7 421.3 352 408 352L320 352zM88 128C74.7 128 64 138.7 64 152L64 488C64 501.3 74.7 512 88 512C101.3 512 112 501.3 112 488L112 152C112 138.7 101.3 128 88 128z"/></svg>