<svg xmlns="http://www.w3.org/2000/svg" viewBox="0 0 640 640"><!--! Font Awesome Pro 7.2.0 by @fontawesome - https://fontawesome.com License - https://fontawesome.com/license (Commercial License) Copyright 2026 Fonticons, Inc. --><path fill="currentColor" d="M192 416L64 416L64 180.8C64 165 84.5 158.8 93.3 171.9C96.6 176.9 101.8 184.6 108.8 195.1L112 199.9L192 319.9L192 180.7C192 164.9 212.5 158.7 221.3 171.8C224.6 176.8 229.8 184.5 236.8 195L240 199.8L320 319.8L320 180.6C320 164.8 340.5 158.6 349.3 171.7C352.6 176.7 357.8 184.4 364.8 194.9L368 199.7L448 319.7L448 180.5C448 164.7 468.5 158.5 477.3 171.6C480.6 176.6 485.8 184.3 492.8 194.8L496 200L606.8 366.2C621 387.5 605.7 416 580.2 416L192 416zM166.3 368L112 286.5L112 368L166.3 368zM0 488C0 474.7 10.7 464 24 464L616 464C629.3 464 640 474.7 640 488C640 501.3 629.3 512 616 512L24 512C10.7 512 0 501.3 0 488zM240 286.5L240 368L294.3 368L240 286.5zM422.3 368L368 286.5L368 368L422.3 368zM496 286.5L496 368L550.3 368L496 286.5z"/></svg>