<svg xmlns="http://www.w3.org/2000/svg" viewBox="0 0 640 640"><!--! Font Awesome Pro 7.2.0 by @fontawesome - https://fontawesome.com License - https://fontawesome.com/license (Commercial License) Copyright 2026 Fonticons, Inc. --><path fill="currentColor" d="M112.8 467.7C112.2 469.7 112 471.7 112 473.8C112 486.1 122 496.1 134.3 496.1L296 496.1L296 456.1C296 442.8 306.7 432.1 320 432.1C333.3 432.1 344 442.8 344 456.1L344 496.1L505.7 496.1C518 496.1 528 486.1 528 473.8C528 471.8 527.7 469.7 527.2 467.7L439 155.6C437 148.8 430.7 144 423.6 144L344 144L344 184C344 197.3 333.3 208 320 208C306.7 208 296 197.3 296 184L296 144L216.4 144C209.2 144 203 148.8 201 155.6L112.8 467.6zM66.6 454.6L154.8 142.6C162.6 115 187.8 96 216.4 96L423.6 96C452.2 96 477.4 115 485.2 142.6L573.4 454.6C575.2 460.8 576 467.2 576 473.7C576 512.5 544.5 544 505.7 544L134.3 544C95.5 544 64 512.5 64 473.7C64 467.2 64.9 460.8 66.6 454.6zM344 280L344 360C344 373.3 333.3 384 320 384C306.7 384 296 373.3 296 360L296 280C296 266.7 306.7 256 320 256C333.3 256 344 266.7 344 280z"/></svg>