<svg xmlns="http://www.w3.org/2000/svg" viewBox="0 0 640 640"><!--! Font Awesome Pro 7.2.0 by @fontawesome - https://fontawesome.com License - https://fontawesome.com/license (Commercial License) Copyright 2026 Fonticons, Inc. --><path fill="currentColor" d="M56 96C42.7 96 32 106.7 32 120C32 133.3 42.7 144 56 144L72 144L72 208L56 208C42.7 208 32 218.7 32 232L32 320C32 329.1 37.1 337.4 45.3 341.5L49.1 343.4C68.1 352.9 80.1 372.3 80.1 393.5L80 504C80 526.1 97.9 544 120 544L184 544C206.1 544 224 526.1 224 504L224 432C224 402.2 244.4 377.1 272 370L272 321.1C217.7 328.9 176 375.5 176 432L176 496L128 496L128 393.4C128 357.7 109.7 324.7 80 305.8L80 256L272 256L272 208L248 208L248 144L272 144L272 96L56 96zM200 144L200 208L120 208L120 144L200 144zM560 144L560 496L488 496L488 456C488 442.7 477.3 432 464 432C450.7 432 440 442.7 440 456L440 496L368 496L368 144L440 144L440 184C440 197.3 450.7 208 464 208C477.3 208 488 197.3 488 184L488 144L560 144zM560 96L368 96C341.5 96 320 117.5 320 144L320 496C320 522.5 341.5 544 368 544L560 544C586.5 544 608 522.5 608 496L608 144C608 117.5 586.5 96 560 96zM464 272C450.7 272 440 282.7 440 296L440 344C440 357.3 450.7 368 464 368C477.3 368 488 357.3 488 344L488 296C488 282.7 477.3 272 464 272z"/></svg>