<svg xmlns="http://www.w3.org/2000/svg" viewBox="0 0 640 640"><!--! Font Awesome Pro 7.2.0 by @fontawesome - https://fontawesome.com License - https://fontawesome.com/license (Commercial License) Copyright 2026 Fonticons, Inc. --><path fill="currentColor" d="M320 64C249.3 64 192 121.3 192 192L192 208L152 208C121.1 208 96 233.1 96 264L96 474.9L66.1 542.2C62.8 549.6 63.5 558.2 67.9 565C72.3 571.8 79.9 576 88 576L200 576C213.3 576 224 565.3 224 552L224 479.1L246.1 503.9C250.7 509 257.2 512 264 512L376 512C382.9 512 389.4 509.1 393.9 503.9L416 479.1L416 552C416 565.3 426.7 576 440 576L552 576C560.1 576 567.7 571.9 572.1 565.1C576.5 558.3 577.2 549.7 573.9 542.3L544 474.9L544 264C544 233.1 518.9 208 488 208L448 208L448 192C448 121.3 390.7 64 320 64zM256 160C256 142.3 270.3 128 288 128C305.7 128 320 142.3 320 160C320 177.7 305.7 192 288 192C270.3 192 256 177.7 256 160zM368 160C376.8 160 384 167.2 384 176C384 184.8 376.8 192 368 192C359.2 192 352 184.8 352 176C352 167.2 359.2 160 368 160zM152 256L176 256L176 528L124.9 528L141.9 489.7C143.3 486.6 144 483.3 144 480L144 264C144 259.6 147.6 256 152 256zM224 256L416 256L416 406.9L365.2 464L274.8 464L224 406.9L224 256zM464 256L488 256C492.4 256 496 259.6 496 264L496 480C496 483.4 496.7 486.7 498.1 489.7L515.1 528L464 528L464 256zM272 288C263.2 288 256 295.2 256 304C256 312.8 263.2 320 272 320L368 320C376.8 320 384 312.8 384 304C384 295.2 376.8 288 368 288L272 288zM272 352C263.2 352 256 359.2 256 368C256 376.8 263.2 384 272 384L368 384C376.8 384 384 376.8 384 368C384 359.2 376.8 352 368 352L272 352z"/></svg>