<svg xmlns="http://www.w3.org/2000/svg" viewBox="0 0 640 640"><!--! Font Awesome Pro 7.2.0 by @fontawesome - https://fontawesome.com License - https://fontawesome.com/license (Commercial License) Copyright 2026 Fonticons, Inc. --><path fill="currentColor" d="M240 560L240 80L400 80L400 128L328 128C314.7 128 304 138.7 304 152C304 165.3 314.7 176 328 176L400 176L400 240L360 240C346.7 240 336 250.7 336 264C336 277.3 346.7 288 360 288L400 288L400 352L328 352C314.7 352 304 362.7 304 376C304 389.3 314.7 400 328 400L400 400L400 464L360 464C346.7 464 336 474.7 336 488C336 501.3 346.7 512 360 512L400 512L400 560L240 560zM192 560C192 586.5 213.5 608 240 608L400 608C426.5 608 448 586.5 448 560L448 80C448 53.5 426.5 32 400 32L240 32C213.5 32 192 53.5 192 80L192 560z"/></svg>