<svg xmlns="http://www.w3.org/2000/svg" viewBox="0 0 640 640"><!--! Font Awesome Pro 7.2.0 by @fontawesome - https://fontawesome.com License - https://fontawesome.com/license (Commercial License) Copyright 2026 Fonticons, Inc. --><path fill="currentColor" d="M96 120C96 106.7 106.7 96 120 96L216 96C291.1 96 352 156.9 352 232C352 286.4 320 333.4 273.9 355.1L319.1 513.4C322.7 526.1 315.4 539.4 302.6 543.1C289.8 546.8 276.6 539.4 272.9 526.6L227.5 367.5C223.7 367.8 219.9 368 216 368L144 368L144 520C144 533.3 133.3 544 120 544C106.7 544 96 533.3 96 520L96 120zM144 320L216 320C264.6 320 304 280.6 304 232C304 183.4 264.6 144 216 144L144 144L144 320zM437.5 288L488 288C501.3 288 512 298.7 512 312C512 325.3 501.3 336 488 336L437.5 336C425.6 336 416 345.6 416 357.5C416 366.7 421.8 374.9 430.5 377.8L493.9 399.6C523.8 409.9 544 438.1 544 469.7C544 510.7 510.8 543.9 469.8 543.9L408 544C394.7 544 384 533.3 384 520C384 506.7 394.7 496 408 496L469.8 496C484.3 496 496 484.3 496 469.8C496 458.6 488.9 448.7 478.3 445L414.9 423.2C386.8 413.5 368 387.1 368 357.5C368 319.1 399.1 288 437.5 288z"/></svg>