<svg xmlns="http://www.w3.org/2000/svg" viewBox="0 0 640 640"><!--! Font Awesome Pro 7.2.0 by @fontawesome - https://fontawesome.com License - https://fontawesome.com/license (Commercial License) Copyright 2026 Fonticons, Inc. --><path fill="currentColor" d="M296 64C282.7 64 272 74.7 272 88C272 101.3 282.7 112 296 112C424.1 112 528 215.9 528 344C528 357.3 538.7 368 552 368C565.3 368 576 357.3 576 344C576 189.4 450.6 64 296 64zM112 320C112 297 115.7 275 122.5 254.4L385.5 517.4C365 524.3 343 528 320 528C205.1 528 112 434.9 112 320zM136.8 200.8C122.7 186.7 99.2 188.8 90.3 206.6C73.4 240.8 63.9 279.2 63.9 319.9C63.9 461.3 178.5 575.9 319.9 575.9C360.6 575.9 399.1 566.4 433.2 549.5C451.1 540.7 453.1 517.1 439 503L305 369L345 329C354.4 319.6 354.4 304.4 345 295.1C335.6 285.8 320.4 285.7 311.1 295.1L271 335L136.8 200.8zM272 184C272 197.3 282.7 208 296 208C371.1 208 432 268.9 432 344C432 357.3 442.7 368 456 368C469.3 368 480 357.3 480 344C480 242.4 397.6 160 296 160C282.7 160 272 170.7 272 184z"/></svg>