<svg xmlns="http://www.w3.org/2000/svg" viewBox="0 0 640 640"><!--! Font Awesome Pro 7.2.0 by @fontawesome - https://fontawesome.com License - https://fontawesome.com/license (Commercial License) Copyright 2026 Fonticons, Inc. --><path fill="currentColor" d="M514.5 96C491.2 96 468.8 105.3 452.3 121.8L448 126.1L441 119.1C431.6 109.7 416.4 109.7 407.1 119.1C397.8 128.5 397.7 143.7 407.1 153L414.1 160L400 174.1L393 167.1C383.6 157.7 368.4 157.7 359.1 167.1C349.8 176.5 349.7 191.7 359.1 201L366.1 208L352 222.1L345 215.1C335.6 205.7 320.4 205.7 311.1 215.1C301.8 224.5 301.7 239.7 311.1 249L318.1 256L227.5 346.6L265.1 240.1C277.9 239.6 288.1 229 288.1 216.1C288.1 202.8 277.4 192.1 264.1 192.1L24 192C10.7 192 0 202.7 0 216C0 229.3 10.7 240 24 240L26.1 240L4 339.3C1.3 351.3 0 363.5 0 375.8C0 468.7 75.3 544 168.2 544L177.3 544C229.2 544 278.5 521.3 312.2 481.8L536.7 218.8C538.2 217 540.4 216 542.8 216L593.4 216C619.2 216 640 195.1 640 169.4C640 157 635.1 145.2 626.3 136.4L611.7 121.8C595.2 105.3 572.8 96 549.5 96L514.5 96zM75.3 240L214.1 240L178.5 340.7C176.8 345.4 176 350.4 176 355.5C176 380 195.9 399.9 220.4 399.9L222.7 399.9C235.1 399.9 246.9 395 255.7 386.3L367.8 274.3C368.2 273.9 368.7 273.5 369.1 273.1C369.5 272.7 369.9 272.3 370.3 271.8L416 225.9C416.3 225.6 416.7 225.3 417 224.9C417.3 224.5 417.6 224.2 418 223.9L464.4 177.6C464.6 177.4 464.9 177.2 465.1 176.9C465.3 176.6 465.5 176.5 465.7 176.2L486.3 155.6C493.8 148.1 504 143.9 514.6 143.9L549.6 143.9C560.2 143.9 570.4 148.1 577.9 155.6L590.2 167.9L542.9 167.9C526.5 167.9 510.9 175.1 500.3 187.5L275.8 450.5C251.2 479.3 215.3 495.9 177.5 495.9L168.4 495.9C102 495.9 48.2 442.1 48.2 375.7C48.2 366.9 49.2 358.2 51.1 349.6L75.3 240zM136 368C136 354.7 125.3 344 112 344C98.7 344 88 354.7 88 368C88 381.3 98.7 392 112 392C125.3 392 136 381.3 136 368zM128 312C141.3 312 152 301.3 152 288C152 274.7 141.3 264 128 264C114.7 264 104 274.7 104 288C104 301.3 114.7 312 128 312z"/></svg>