<svg xmlns="http://www.w3.org/2000/svg" viewBox="0 0 640 640"><!--! Font Awesome Pro 7.2.0 by @fontawesome - https://fontawesome.com License - https://fontawesome.com/license (Commercial License) Copyright 2026 Fonticons, Inc. --><path fill="currentColor" d="M112 176C112 140.7 140.7 112 176 112C211.3 112 240 140.7 240 176C240 211.3 211.3 240 176 240C140.7 240 112 211.3 112 176zM288 176C288 114.1 237.9 64 176 64C114.1 64 64 114.1 64 176C64 237.9 114.1 288 176 288C200 288 222.3 280.4 240.5 267.6L297.8 320L240.5 372.4C222.3 359.6 200 352 176 352C114.1 352 64 402.1 64 464C64 525.9 114.1 576 176 576C237.9 576 288 525.9 288 464C288 443.5 282.5 424.4 272.9 407.8L568.2 137.7C578 128.8 578.7 113.6 569.7 103.8C560.7 94 545.6 93.3 535.8 102.3L333.4 287.5L272.9 232.2C282.5 215.7 288 196.5 288 176zM535.8 537.7C545.6 546.6 560.8 546 569.7 536.2C578.6 526.4 578 511.2 568.2 502.3L402.6 350.8L366.7 383L535.8 537.7zM112 464C112 428.7 140.7 400 176 400C211.3 400 240 428.7 240 464C240 499.3 211.3 528 176 528C140.7 528 112 499.3 112 464z"/></svg>