<svg xmlns="http://www.w3.org/2000/svg" viewBox="0 0 640 640"><!--! Font Awesome Pro 7.2.0 by @fontawesome - https://fontawesome.com License - https://fontawesome.com/license (Commercial License) Copyright 2026 Fonticons, Inc. --><path fill="currentColor" d="M80 176C80 158.3 94.3 144 112 144C129.7 144 144 158.3 144 176L144 224L80 224L80 176zM185.3 144L392 144C414.1 144 432 161.9 432 184L432 368L312 368C281.1 368 256 393.1 256 424L256 464C256 481.7 241.7 496 224 496C206.3 496 192 481.7 192 464L192 176C192 164.6 189.6 153.8 185.3 144zM480 368L480 184C480 135.4 440.6 96 392 96L112 96C67.8 96 32 131.8 32 176L32 224C32 250.5 53.5 272 80 272L144 272L144 464C144 508.2 179.8 544 224 544L488 544C536.6 544 576 504.6 576 456L576 424C576 393.1 550.9 368 520 368L480 368zM488 496L297.3 496C301.6 486.2 304 475.4 304 464L304 424C304 419.6 307.6 416 312 416L520 416C524.4 416 528 419.6 528 424L528 456C528 478.1 510.1 496 488 496z"/></svg>