<svg xmlns="http://www.w3.org/2000/svg" viewBox="0 0 640 640"><!--! Font Awesome Pro 7.2.0 by @fontawesome - https://fontawesome.com License - https://fontawesome.com/license (Commercial License) Copyright 2026 Fonticons, Inc. --><path fill="currentColor" d="M272 112C360.4 112 432 183.6 432 272C432 360.4 360.4 432 272 432C183.6 432 112 360.4 112 272C112 183.6 183.6 112 272 112zM272 480C320.8 480 365.7 463.2 401.1 435.1L535 569C544.4 578.4 559.6 578.4 568.9 569C578.2 559.6 578.3 544.4 568.9 535.1L435.1 401.1C463.2 365.7 480 320.8 480 272C480 157.1 386.9 64 272 64C157.1 64 64 157.1 64 272C64 386.9 157.1 480 272 480zM276 160C265 160 256 169 256 180L256 184C227.2 184.3 204 207.7 204 236.5C204 262.2 222.5 284.1 247.9 288.3L289.6 295.3C295.6 296.3 300 301.5 300 307.6C300 314.5 294.4 320.1 287.5 320.1L232 320C221 320 212 329 212 340C212 351 221 360 232 360L256 360L256 364C256 375 265 384 276 384C287 384 296 375 296 364L296 359.3C321 355.2 340 333.6 340 307.5C340 281.8 321.5 259.9 296.1 255.7L254.4 248.7C248.4 247.7 244 242.5 244 236.4C244 229.5 249.6 223.9 256.5 223.9L304 223.9C315 223.9 324 214.9 324 203.9C324 192.9 315 183.9 304 183.9L296 183.9L296 179.9C296 168.9 287 159.9 276 159.9z"/></svg>