<svg xmlns="http://www.w3.org/2000/svg" viewBox="0 0 640 640"><!--! Font Awesome Pro 7.2.0 by @fontawesome - https://fontawesome.com License - https://fontawesome.com/license (Commercial License) Copyright 2026 Fonticons, Inc. --><path fill="currentColor" d="M160 144C151.2 144 144 151.2 144 160L144 480C144 488.8 151.2 496 160 496L480 496C488.8 496 496 488.8 496 480L496 160C496 151.2 488.8 144 480 144L160 144zM96 160C96 124.7 124.7 96 160 96L480 96C515.3 96 544 124.7 544 160L544 480C544 515.3 515.3 544 480 544L160 544C124.7 544 96 515.3 96 480L96 160zM240 216L240 296C240 309.3 229.3 320 216 320C202.7 320 192 309.3 192 296L192 216C192 202.7 202.7 192 216 192C229.3 192 240 202.7 240 216zM336 216L336 296C336 309.3 325.3 320 312 320C298.7 320 288 309.3 288 296L288 216C288 202.7 298.7 192 312 192C325.3 192 336 202.7 336 216z"/></svg>