<svg xmlns="http://www.w3.org/2000/svg" viewBox="0 0 640 640"><!--! Font Awesome Pro 7.2.0 by @fontawesome - https://fontawesome.com License - https://fontawesome.com/license (Commercial License) Copyright 2026 Fonticons, Inc. --><path fill="currentColor" d="M384 199.8L384 272C384 316.2 419.8 352 464 352L496 352C540.2 352 576 316.2 576 272L576 199.8L590.5 206C602.7 211.2 616.8 205.6 622 193.4C627.2 181.2 621.6 167.1 609.4 161.9L561.6 141.4C544.7 114.2 514.5 96 480 96C445.5 96 415.3 114.2 398.4 141.4L350.5 161.9C338.3 167.1 332.7 181.2 337.9 193.4C343.1 205.6 357.2 211.2 369.4 206L383.9 199.8zM464 192C472.8 192 480 199.2 480 208C480 216.8 472.8 224 464 224C455.2 224 448 216.8 448 208C448 199.2 455.2 192 464 192zM512 208C512 199.2 519.2 192 528 192C536.8 192 544 199.2 544 208C544 216.8 536.8 224 528 224C519.2 224 512 216.8 512 208zM308.9 207L308.5 206.1C301.6 190 302.8 172.6 310.3 158.2C302.9 146.4 291.8 137.2 278.6 132.2C271.6 129.5 263.9 128.1 255.9 128.1C236.7 128.1 219.4 136.6 207.7 150C196.8 141.3 182.9 136.1 167.9 136.1C137.8 136.1 112.6 156.9 105.7 184.9C102.5 184.4 99.2 184.1 95.9 184.1C60.6 184.1 31.9 212.8 31.9 248.1C31.9 253.4 32.6 258.6 33.8 263.6C13.6 274.4-.1 295.6-.1 320.1C-.1 344.6 13.6 365.8 33.8 376.6C32.6 381.6 31.9 386.8 31.9 392.1C31.9 427.4 60.6 456.1 95.9 456.1C96.4 456.1 96.9 456.1 97.4 456.1L115 550C117.8 565.1 131.1 576.1 146.5 576.1L175.9 576.1C193.6 576.1 207.9 561.8 207.9 544.1L207.9 490.4C219.6 503.7 236.8 512.1 255.9 512.1C275 512.1 292.2 503.7 303.9 490.4L303.9 544.1C303.9 561.8 318.2 576.1 335.9 576.1L365.3 576.1C380.7 576.1 393.9 565.1 396.7 550L414.5 456C415 456 415.5 456 416 456C451.3 456 480 427.3 480 392C480 389.3 479.8 386.6 479.5 384L464 384C452.2 384 440.8 382.2 430.2 378.8C430.4 381.9 430.8 385 431.6 388.1C431.9 389.3 432.1 390.6 432.1 392C432.1 400.8 424.9 408 416.1 408C415.2 408 414.4 407.9 413.6 407.8C389 404 365.6 419.7 359.7 443.8C358 450.8 351.6 455.9 344.2 455.9C340.4 455.9 337 454.6 334.3 452.5C314.2 436.5 285.2 439.2 268.3 458.5C265.3 461.9 261 464 256.2 464C251.4 464 247.1 461.9 244.1 458.5C227.2 439.2 198.2 436.6 178.1 452.5C175.4 454.7 172 455.9 168.2 455.9C160.7 455.9 154.4 450.8 152.7 443.8C146.8 419.6 123.4 404 98.8 407.8C98 407.9 97.2 408 96.3 408C87.5 408 80.3 400.8 80.3 392C80.3 390.6 80.5 389.3 80.8 388.1C86.1 366.8 76.2 344.5 56.8 334.2C51.6 331.4 48.3 326.1 48.3 320C48.3 313.9 51.6 308.6 56.8 305.8C76.2 295.4 86.1 273.2 80.8 251.9C80.5 250.7 80.3 249.4 80.3 248C80.3 239.2 87.5 232 96.3 232C97.2 232 98 232.1 98.8 232.2C123.4 236 146.8 220.3 152.7 196.2C154.4 189.2 160.8 184.1 168.2 184.1C172 184.1 175.4 185.4 178.1 187.6C198.2 203.6 227.2 200.9 244.1 181.6C247.1 178.2 251.4 176.1 256.2 176.1C262 176.1 267.1 179.1 269.9 183.9C277.9 197.2 291.9 205.8 307.3 207C307.9 207 308.5 207.1 309 207.1z"/></svg>