<svg xmlns="http://www.w3.org/2000/svg" viewBox="0 0 640 640"><!--! Font Awesome Pro 7.2.0 by @fontawesome - https://fontawesome.com License - https://fontawesome.com/license (Commercial License) Copyright 2026 Fonticons, Inc. --><path fill="currentColor" d="M137.1 191L320 113.4L503 191C508.9 193.5 512.1 198.8 512 203.8C511.6 295.2 473.6 453.1 325.7 523.9C322.1 525.6 317.9 525.6 314.4 523.9C166.4 453.1 128.5 295.2 128 203.8C128 198.8 131.1 193.6 137 191zM521.8 146.8L333.4 66.9C329.2 65 324.7 64 320 64C315.3 64 310.8 65 306.6 66.9L118.3 146.8C96.3 156.1 79.9 177.8 80 204C80.5 303.2 121.3 484.7 293.6 567.2C310.3 575.2 329.7 575.2 346.4 567.2C518.8 484.7 559.5 303.2 560 204C560.1 177.8 543.7 156.1 521.7 146.8zM224 218.4L224 336C224 389 267 432 320 432C373 432 416 389 416 336L416 218.4C416 212.6 411.3 208 405.6 208L405.4 208C402 208 398.9 209.6 396.9 212.3L356.9 265.6C353.9 269.6 349.1 272 344.1 272L296.1 272C291.1 272 286.3 269.6 283.3 265.6L243.3 212.3C241.3 209.6 238.1 208 234.8 208L234.6 208C228.8 208 224.2 212.7 224.2 218.4zM280 320C288.8 320 296 327.2 296 336C296 344.8 288.8 352 280 352C271.2 352 264 344.8 264 336C264 327.2 271.2 320 280 320zM344 336C344 327.2 351.2 320 360 320C368.8 320 376 327.2 376 336C376 344.8 368.8 352 360 352C351.2 352 344 344.8 344 336z"/></svg>