<svg xmlns="http://www.w3.org/2000/svg" viewBox="0 0 640 640"><!--! Font Awesome Pro 7.2.0 by @fontawesome - https://fontawesome.com License - https://fontawesome.com/license (Commercial License) Copyright 2026 Fonticons, Inc. --><path fill="currentColor" d="M64.4 266.5C64.1 267 64 267.6 64 268.2C64 270.3 65.7 272 67.8 272L508.2 272C510.3 272 512 270.3 512 268.2C512 267.6 511.9 267 511.6 266.5L454.8 152.8C452.1 147.4 446.6 144 440.5 144L135.6 144C129.5 144 124 147.4 121.3 152.8L64.4 266.5zM64 319.9C37.2 318 16 295.6 16 268.3C16 260.3 17.9 252.3 21.5 245.1L78.3 131.4C89.2 109.7 111.3 96 135.6 96L440.5 96C464.7 96 486.9 109.7 497.7 131.4L554.5 245.1C558.1 252.3 560 260.2 560 268.3C560 295.6 538.8 318 512 319.9L512 368L464 368L464 320L352 320L352 368L304 368L304 320L112 320L112 400L304 400L304 448L112 448L112 496L304 496L304 544L112 544C85.5 544 64 522.5 64 496L64 320L64 319.9zM348 464C348 435.3 371.3 412 400 412C428.7 412 452 435.3 452 464L452 465C452 479.6 446.6 493.7 437 504.6L405.4 540L432 540C443 540 452 549 452 560C452 571 443 580 432 580L373.8 580C359.6 580 348 568.5 348 554.2C348 547.9 350.3 541.8 354.5 537.1L407.1 478C410.3 474.4 412 469.8 412 465L412 464C412 457.4 406.6 452 400 452C393.4 452 388 457.4 388 464C388 475 379 484 368 484C357 484 348 475 348 464zM476 496L476 432C476 421 485 412 496 412C507 412 516 421 516 432L516 476L540 476L540 432C540 421 549 412 560 412C571 412 580 421 580 432L580 560C580 571 571 580 560 580C549 580 540 571 540 560L540 516L496 516C490.7 516 485.6 513.9 481.9 510.1C478.2 506.3 476 501.3 476 496z"/></svg>