<svg xmlns="http://www.w3.org/2000/svg" viewBox="0 0 640 640"><!--! Font Awesome Pro 7.2.0 by @fontawesome - https://fontawesome.com License - https://fontawesome.com/license (Commercial License) Copyright 2026 Fonticons, Inc. --><path fill="currentColor" d="M80 192L80 272L200 272L200 176L96 176C87.2 176 80 183.2 80 192zM80 320L80 400C80 408.8 87.2 416 96 416L105.6 416C120.2 387.5 149.8 368 184 368C218.2 368 247.8 387.5 262.4 416L385.6 416C400.2 387.5 429.8 368 464 368C498.2 368 527.8 387.5 542.4 416L544 416C552.8 416 560 408.8 560 400L560 320L80 320zM541.6 272L473 182.3C470 178.3 465.3 176 460.3 176L408.1 176L408.1 272L541.7 272zM360 272L360 176L248 176L248 272L360 272zM608 400C608 432.7 583.4 459.8 551.7 463.5C547.9 508.6 510.1 544 464 544C418.1 544 380.4 508.9 376.4 464L271.7 464C267.7 508.9 230 544 184.1 544C138.2 544 100.5 508.9 96.5 464L96.1 464C60.8 464 32.1 435.3 32.1 400L32 192C32 156.7 60.7 128 96 128L460.2 128C480.1 128 498.9 137.3 511 153.1L594.8 262.6C603.3 273.8 608 287.4 608 301.5L608 400zM504 456C504 433.9 486.1 416 464 416C441.9 416 424 433.9 424 456C424 478.1 441.9 496 464 496C486.1 496 504 478.1 504 456zM184 496C206.1 496 224 478.1 224 456C224 433.9 206.1 416 184 416C161.9 416 144 433.9 144 456C144 478.1 161.9 496 184 496z"/></svg>