<svg xmlns="http://www.w3.org/2000/svg" viewBox="0 0 640 640"><!--! Font Awesome Pro 7.2.0 by @fontawesome - https://fontawesome.com License - https://fontawesome.com/license (Commercial License) Copyright 2026 Fonticons, Inc. --><path fill="currentColor" d="M464 189.3L464 512C464 520.8 456.8 528 448 528L192 528C183.2 528 176 520.8 176 512L176 128C176 119.2 183.2 112 192 112L386.7 112C390.9 112 395 113.7 398 116.7L459.3 178C462.3 181 464 185.1 464 189.3zM192 64C156.7 64 128 92.7 128 128L128 512C128 547.3 156.7 576 192 576L448 576C483.3 576 512 547.3 512 512L512 189.3C512 172.3 505.3 156 493.3 144L432 82.7C420 70.7 403.7 64 386.7 64L192 64zM256 304C238.3 304 224 318.3 224 336L224 376L312 376L312 304L256 304zM224 448C224 465.7 238.3 480 256 480L280 480L280 424L224 424L224 448zM384 480C401.7 480 416 465.7 416 448L416 424L328 424L328 480L384 480zM360 376L416 376L416 336C416 318.3 401.7 304 384 304L360 304L360 376z"/></svg>