<svg xmlns="http://www.w3.org/2000/svg" viewBox="0 0 640 640"><!--! Font Awesome Pro 7.2.0 by @fontawesome - https://fontawesome.com License - https://fontawesome.com/license (Commercial License) Copyright 2026 Fonticons, Inc. --><path fill="currentColor" d="M416 104C416 73.1 441.1 48 472 48C502.9 48 528 73.1 528 104C528 134.9 502.9 160 472 160C441.1 160 416 134.9 416 104zM176 200C176 186.7 186.7 176 200 176L385.9 176C436 176 460.9 236.8 425.2 271.9L266.6 428.1L257.8 469.2L497.8 345.1C516.4 335.5 528.1 316.3 528.1 295.4L528.1 288.1C528.1 274.8 538.8 264.1 552.1 264.1C565.4 264.1 576.1 274.8 576.1 288.1L576.1 295.4C576.1 334.3 554.4 369.9 519.9 387.8L99 605.3C87.3 611.4 72.8 606.8 66.7 595C60.6 583.2 65.2 568.8 77 562.7L202.5 497.8L244.2 303C248 285.1 257.3 268.9 270.8 256.6L306.3 224L200 224C186.7 224 176 213.3 176 200zM377.3 224L303.2 291.9C297.1 297.5 292.9 304.9 291.1 313L284.7 342.7L391.4 237.7C396.5 232.7 392.9 224 385.8 224L377.3 224z"/></svg>