<svg xmlns="http://www.w3.org/2000/svg" viewBox="0 0 640 640"><!--! Font Awesome Pro 7.2.0 by @fontawesome - https://fontawesome.com License - https://fontawesome.com/license (Commercial License) Copyright 2026 Fonticons, Inc. --><path fill="currentColor" d="M144 464C126.3 464 112 449.7 112 432C112 414.3 126.3 400 144 400C161.7 400 176 414.3 176 432C176 449.7 161.7 464 144 464zM220.3 408C210.1 375.5 179.8 352 144 352C99.8 352 64 387.8 64 432C64 476.2 99.8 512 144 512C179.8 512 210.1 488.5 220.3 456L552 456C565.3 456 576 445.3 576 432C576 418.7 565.3 408 552 408L220.3 408zM528 208C528 225.7 513.7 240 496 240C478.3 240 464 225.7 464 208C464 190.3 478.3 176 496 176C513.7 176 528 190.3 528 208zM419.7 184L88 184C74.7 184 64 194.7 64 208C64 221.3 74.7 232 88 232L419.7 232C429.9 264.5 460.2 288 496 288C540.2 288 576 252.2 576 208C576 163.8 540.2 128 496 128C460.2 128 429.9 151.5 419.7 184z"/></svg>