<svg xmlns="http://www.w3.org/2000/svg" viewBox="0 0 640 640"><!--! Font Awesome Pro 7.2.0 by @fontawesome - https://fontawesome.com License - https://fontawesome.com/license (Commercial License) Copyright 2026 Fonticons, Inc. --><path fill="currentColor" d="M279.5 209C288.9 218.4 304.1 218.4 313.4 209C322.7 199.6 322.8 184.4 313.4 175.1L209.5 71C200.1 61.6 184.9 61.6 175.6 71L71.5 175C62.1 184.4 62.1 199.6 71.5 208.9C80.9 218.2 96.1 218.3 105.4 208.9L168.4 145.9L168.4 552C168.4 565.3 179.1 576 192.4 576C205.7 576 216.4 565.3 216.4 552L216.4 145.9L279.4 208.9zM535.5 431L472.5 494L472.5 87.9C472.5 74.6 461.8 63.9 448.5 63.9C435.2 63.9 424.5 74.6 424.5 87.9L424.5 494L361.5 431C352.1 421.6 336.9 421.6 327.6 431C318.3 440.4 318.2 455.6 327.6 464.9L431.6 568.9C441 578.3 456.2 578.3 465.5 568.9L569.5 464.9C578.9 455.5 578.9 440.3 569.5 431C560.1 421.7 544.9 421.6 535.6 431z"/></svg>