<svg xmlns="http://www.w3.org/2000/svg" viewBox="0 0 640 640"><!--! Font Awesome Pro 7.2.0 by @fontawesome - https://fontawesome.com License - https://fontawesome.com/license (Commercial License) Copyright 2026 Fonticons, Inc. --><path fill="currentColor" d="M297 449L209 537C199.6 546.4 184.4 546.4 175.1 537L87 449C77.6 439.6 77.6 424.4 87 415.1C96.4 405.8 111.6 405.7 120.9 415.1L167.9 462.1L167.9 120C167.9 106.7 178.6 96 191.9 96C205.2 96 215.9 106.7 215.9 120L215.9 462.1L262.9 415.1C272.3 405.7 287.5 405.7 296.8 415.1C306.1 424.5 306.2 439.7 296.8 449zM560 519C560 532.8 548.8 544.1 534.9 544.1L361 544.1C347.2 544.1 335.9 532.9 335.9 519C335.9 514.5 337.1 510 339.5 506.1L423.7 365.8C428.8 357.3 438 352.1 447.9 352.1C457.8 352.1 467 357.3 472.1 365.8L556.4 506C558.7 509.9 560 514.4 560 518.9zM400 144L400 240L496 240L496 144L400 144zM494.4 496L448 418.6L401.6 496L494.4 496zM352 144C352 117.5 373.5 96 400 96L496 96C522.5 96 544 117.5 544 144L544 240C544 266.5 522.5 288 496 288L400 288C373.5 288 352 266.5 352 240L352 144z"/></svg>