<svg xmlns="http://www.w3.org/2000/svg" viewBox="0 0 640 640"><!--! Font Awesome Pro 7.2.0 by @fontawesome - https://fontawesome.com License - https://fontawesome.com/license (Commercial License) Copyright 2026 Fonticons, Inc. --><path fill="currentColor" d="M192 96C192 78.3 206.3 64 224 64L288 64C305.7 64 320 78.3 320 96L320 176L192 176L192 96zM192 272C165.5 272 144 293.5 144 320L144 504C144 517.3 154.7 528 168 528L344 528C357.3 528 368 517.3 368 504L368 320C368 293.5 346.5 272 320 272L192 272zM96 320C96 267 139 224 192 224L320 224C373 224 416 267 416 320L416 504C416 543.8 383.8 576 344 576L168 576C128.2 576 96 543.8 96 504L96 320zM256 336C291.3 336 320 364.7 320 400C320 435.3 291.3 464 256 464C220.7 464 192 435.3 192 400C192 364.7 220.7 336 256 336zM480 112C480 113.4 479 115 477.8 115.6L448 128L435.6 157.8C435 159 433.4 160 432 160C430.6 160 429 159 428.4 157.8L416 128L386.2 115.6C385 115 384 113.4 384 112C384 110.6 385 109 386.2 108.4L416 96L428.4 66.2C429 65 430.6 64 432 64C433.4 64 435 65 435.6 66.2L448 96L477.8 108.4C479 109 480 110.6 480 112zM556.4 157.8L544 128L514.2 115.6C513 115 512 113.4 512 112C512 110.6 513 109 514.2 108.4L544 96L556.4 66.2C557 65 558.6 64 560 64C561.4 64 563 65 563.6 66.2L576 96L605.8 108.4C607 109 608 110.6 608 112C608 113.4 607 115 605.8 115.6L576 128L563.6 157.8C563 159 561.4 160 560 160C558.6 160 557 159 556.4 157.8zM563.6 258.2L576 288L605.8 300.4C607 301 608 302.6 608 304C608 305.4 607 307 605.8 307.6L576 320L563.6 349.8C563 351 561.4 352 560 352C558.6 352 557 351 556.4 349.8L544 320L514.2 307.6C513 307 512 305.4 512 304C512 302.6 513 301 514.2 300.4L544 288L556.4 258.2C557 257 558.6 256 560 256C561.4 256 563 257 563.6 258.2zM544 208C544 209.4 543 211 541.8 211.6L512 224L499.6 253.8C499 255 497.4 256 496 256C494.6 256 493 255 492.4 253.8L480 224L450.2 211.6C449 211 448 209.4 448 208C448 206.6 449 205 450.2 204.4L480 192L492.4 162.2C493 161 494.6 160 496 160C497.4 160 499 161 499.6 162.2L512 192L541.8 204.4C543 205 544 206.6 544 208z"/></svg>