<svg xmlns="http://www.w3.org/2000/svg" viewBox="0 0 640 640"><!--! Font Awesome Pro 7.2.0 by @fontawesome - https://fontawesome.com License - https://fontawesome.com/license (Commercial License) Copyright 2026 Fonticons, Inc. --><path fill="currentColor" d="M128 144L448 144C456.8 144 464 151.2 464 160L464 212C474.2 209.4 485 208 496 208C501.4 208 506.8 208.3 512 209L512 160C512 124.7 483.3 96 448 96L128 96C92.7 96 64 124.7 64 160L64 480C64 515.3 92.7 544 128 544L337.3 544C336.4 538.8 336 533.4 336 527.9L336 496L128 496C119.2 496 112 488.8 112 480L112 160C112 151.2 119.2 144 128 144zM309.5 221.3C305.4 213.2 297.1 208 288 208C278.9 208 270.6 213.1 266.5 221.3L178.5 397.3C172.6 409.2 177.4 423.6 189.2 429.5C201 435.4 215.5 430.6 221.4 418.8L230.8 400.1L341.4 400.1C346.8 384.7 356.1 371.1 368 360.5L368 338.5L309.5 221.4zM288 285.7L321.2 352L254.9 352L288.1 285.7zM528 336.1L528 384L464 384L464 336.1C464 318.4 478.3 304.1 496 304.1C513.7 304.1 528 318.4 528 336.1zM384 432L384 528C384 554.5 405.5 576 432 576L560 576C586.5 576 608 554.5 608 528L608 432C608 411.1 594.6 393.3 576 386.7L576 336.1C576 291.9 540.2 256.1 496 256.1C451.8 256.1 416 291.9 416 336.1L416 386.7C397.4 393.3 384 411.1 384 432z"/></svg>