<svg xmlns="http://www.w3.org/2000/svg" viewBox="0 0 640 640"><!--! Font Awesome Pro 7.2.0 by @fontawesome - https://fontawesome.com License - https://fontawesome.com/license (Commercial License) Copyright 2026 Fonticons, Inc. --><path fill="currentColor" d="M160 144C151.2 144 144 151.2 144 160L144 480C144 488.8 151.2 496 160 496L480 496C488.8 496 496 488.8 496 480L496 160C496 151.2 488.8 144 480 144L160 144zM96 160C96 124.7 124.7 96 160 96L480 96C515.3 96 544 124.7 544 160L544 480C544 515.3 515.3 544 480 544L160 544C124.7 544 96 515.3 96 480L96 160zM376 232C376 245.3 365.3 256 352 256L304 256C290.7 256 280 266.7 280 280L280 292.1C287.5 289.4 295.6 288 304 288L336 288C375.8 288 408 320.2 408 360C408 399.8 375.8 432 336 432L304 432C264.2 432 232 399.8 232 360L232 280C232 240.2 264.2 208 304 208L352 208C365.3 208 376 218.7 376 232zM304 384L336 384C349.3 384 360 373.3 360 360C360 346.7 349.3 336 336 336L304 336C290.7 336 280 346.7 280 360C280 373.3 290.7 384 304 384z"/></svg>