<svg xmlns="http://www.w3.org/2000/svg" viewBox="0 0 640 640"><!--! Font Awesome Pro 7.2.0 by @fontawesome - https://fontawesome.com License - https://fontawesome.com/license (Commercial License) Copyright 2026 Fonticons, Inc. --><path fill="currentColor" d="M160 144C151.2 144 144 151.2 144 160L144 480C144 488.8 151.2 496 160 496L480 496C488.8 496 496 488.8 496 480L496 160C496 151.2 488.8 144 480 144L160 144zM96 160C96 124.7 124.7 96 160 96L480 96C515.3 96 544 124.7 544 160L544 480C544 515.3 515.3 544 480 544L160 544C124.7 544 96 515.3 96 480L96 160zM216 208L264 208C303.8 208 336 240.2 336 280C336 306.9 321.3 330.3 299.5 342.6L318.8 400.4C323 413 316.2 426.6 303.6 430.8C291 435 277.4 428.2 273.2 415.6L252 352L240 352L240 408C240 421.3 229.3 432 216 432C202.7 432 192 421.3 192 408L192 232C192 218.7 202.7 208 216 208zM264 304C277.3 304 288 293.3 288 280C288 266.7 277.3 256 264 256L240 256L240 304L264 304zM344 304.1C344 273.1 369.1 248 400.1 248L440 248C453.3 248 464 258.7 464 272C464 285.3 453.3 296 440 296L400.1 296C395.6 296 392 299.6 392 304.1C392 307.7 394.3 310.8 397.8 311.9L432 322.1C455.7 329.2 472 351.1 472 375.8C472 406.8 446.9 431.9 415.9 431.9L376 432C362.7 432 352 421.3 352 408C352 394.7 362.7 384 376 384L415.9 384C420.4 384 424 380.4 424 375.9C424 372.3 421.7 369.2 418.2 368.1L384 357.9C360.3 350.8 344 328.9 344 304.2z"/></svg>