<svg xmlns="http://www.w3.org/2000/svg" viewBox="0 0 640 640"><!--! Font Awesome Pro 7.2.0 by @fontawesome - https://fontawesome.com License - https://fontawesome.com/license (Commercial License) Copyright 2026 Fonticons, Inc. --><path fill="currentColor" d="M480 144C488.8 144 496 151.2 496 160L496 480C496 488.8 488.8 496 480 496L160 496C151.2 496 144 488.8 144 480L144 160C144 151.2 151.2 144 160 144L480 144zM160 96C124.7 96 96 124.7 96 160L96 480C96 515.3 124.7 544 160 544L480 544C515.3 544 544 515.3 544 480L544 160C544 124.7 515.3 96 480 96L160 96zM240 172C215.7 172 196 191.7 196 216L196 256C196 280.3 215.7 300 240 300L272 300C296.3 300 316 280.3 316 256L316 216C316 191.7 296.3 172 272 172L240 172zM236 216C236 213.8 237.8 212 240 212L272 212C274.2 212 276 213.8 276 216L276 256C276 258.2 274.2 260 272 260L240 260C237.8 260 236 258.2 236 256L236 216zM376 172C365 172 356 181 356 192C356 201.7 362.9 209.7 372 211.6L372 280C372 291 381 300 392 300C403 300 412 291 412 280L412 192C412 181 403 172 392 172L376 172zM228 360C228 369.7 234.9 377.7 244 379.6L244 448C244 459 253 468 264 468C275 468 284 459 284 448L284 360C284 349 275 340 264 340L248 340C237 340 228 349 228 360zM324 384L324 424C324 448.3 343.7 468 368 468L400 468C424.3 468 444 448.3 444 424L444 384C444 359.7 424.3 340 400 340L368 340C343.7 340 324 359.7 324 384zM368 380L400 380C402.2 380 404 381.8 404 384L404 424C404 426.2 402.2 428 400 428L368 428C365.8 428 364 426.2 364 424L364 384C364 381.8 365.8 380 368 380z"/></svg>