<svg xmlns="http://www.w3.org/2000/svg" viewBox="0 0 640 640"><!--! Font Awesome Pro 7.2.0 by @fontawesome - https://fontawesome.com License - https://fontawesome.com/license (Commercial License) Copyright 2026 Fonticons, Inc. --><path fill="currentColor" d="M144 480C144 488.8 151.2 496 160 496L480 496C488.8 496 496 488.8 496 480L496 160C496 151.2 488.8 144 480 144L160 144C151.2 144 144 151.2 144 160L144 480zM160 544C124.7 544 96 515.3 96 480L96 160C96 124.7 124.7 96 160 96L480 96C515.3 96 544 124.7 544 160L544 480C544 515.3 515.3 544 480 544L160 544zM188.7 308.7L292.7 204.7C297.3 200.1 304.2 198.8 310.1 201.2C316 203.6 320 209.5 320 216L320 288L424 288C437.3 288 448 298.7 448 312L448 328C448 341.3 437.3 352 424 352L320 352L320 424C320 430.5 316.1 436.3 310.1 438.8C304.1 441.3 297.2 439.9 292.7 435.3L188.7 331.3C182.5 325.1 182.5 314.9 188.7 308.7z"/></svg>