<svg xmlns="http://www.w3.org/2000/svg" viewBox="0 0 640 640"><!--! Font Awesome Pro 7.2.0 by @fontawesome - https://fontawesome.com License - https://fontawesome.com/license (Commercial License) Copyright 2026 Fonticons, Inc. --><path fill="currentColor" d="M416 208C424.8 208 432 215.2 432 224L432 416C432 424.8 424.8 432 416 432L224 432C215.2 432 208 424.8 208 416L208 224C208 215.2 215.2 208 224 208L416 208zM224 160C188.7 160 160 188.7 160 224L160 416C160 451.3 188.7 480 224 480L416 480C451.3 480 480 451.3 480 416L480 224C480 188.7 451.3 160 416 160L224 160z"/></svg>