<svg xmlns="http://www.w3.org/2000/svg" viewBox="0 0 640 640"><!--! Font Awesome Pro 7.2.0 by @fontawesome - https://fontawesome.com License - https://fontawesome.com/license (Commercial License) Copyright 2026 Fonticons, Inc. --><path fill="currentColor" d="M480 96C515.3 96 544 124.7 544 160L544 480C544 515.3 515.3 544 480 544L160 544C124.7 544 96 515.3 96 480L96 160C96 124.7 124.7 96 160 96L480 96zM160 144C151.2 144 144 151.2 144 160L144 480C144 488.8 151.2 496 160 496L480 496C488.8 496 496 488.8 496 480L496 160C496 151.2 488.8 144 480 144L160 144zM400.9 201.4C404.5 188.7 417.8 181.3 430.6 184.9C443.4 188.5 450.7 201.8 447.1 214.6L383.1 438.6C379.5 451.3 366.2 458.7 353.4 455.1C340.6 451.5 333.3 438.2 336.9 425.4L400.9 201.4zM280 216C293.3 216 304 226.7 304 240C304 253.3 293.3 264 280 264L255.6 264C247 264 240 271 240 279.6C240 287 245.2 293.4 252.5 294.8L268.9 298.1C298.6 304 320 330.1 320 360.4C320 395.5 291.5 424 256.4 424L224 424C210.7 424 200 413.3 200 400C200 386.7 210.7 376 224 376L256.4 376C265 376 272 369 272 360.4C272 353 266.8 346.6 259.5 345.1L243.1 341.8C213.4 335.9 192 309.8 192 279.5C192 244.4 220.5 215.9 255.6 215.9L280 215.9z"/></svg>