<svg xmlns="http://www.w3.org/2000/svg" viewBox="0 0 640 640"><!--! Font Awesome Pro 7.2.0 by @fontawesome - https://fontawesome.com License - https://fontawesome.com/license (Commercial License) Copyright 2026 Fonticons, Inc. --><path fill="currentColor" d="M160 144C151.2 144 144 151.2 144 160L144 480C144 488.8 151.2 496 160 496L480 496C488.8 496 496 488.8 496 480L496 160C496 151.2 488.8 144 480 144L160 144zM96 160C96 124.7 124.7 96 160 96L480 96C515.3 96 544 124.7 544 160L544 480C544 515.3 515.3 544 480 544L160 544C124.7 544 96 515.3 96 480L96 160zM304 224L272 256L352 320L320 256L368 224L344 176L395.4 176C406.8 176 416 185.2 416 196.6L416 272C416 318.2 383.4 356.7 340 365.9L340 424L380 424C391 424 400 433 400 444C400 455 391 464 380 464L260 464C249 464 240 455 240 444C240 433 249 424 260 424L300 424L300 365.9C256.6 356.7 224 318.1 224 272L224 196.6C224 185.2 233.2 176 244.6 176L280 176L304 224z"/></svg>