<svg xmlns="http://www.w3.org/2000/svg" viewBox="0 0 640 640"><!--! Font Awesome Pro 7.2.0 by @fontawesome - https://fontawesome.com License - https://fontawesome.com/license (Commercial License) Copyright 2026 Fonticons, Inc. --><path fill="currentColor" d="M302.8 121.5C320.4 86.3 356.4 64 395.8 64L472 64C529.4 64 576 110.6 576 168L576 271.9C576 314.7 549.9 352.7 510.9 368.4L493.6 399.1C489.3 406.8 479.5 409.5 471.8 405.2L442.4 388.6L317.8 424.2L187 555C158.8 583 113.2 583 85.1 554.9L85.1 554.9C57 526.8 57 481.2 85.1 453.1L160 378.2L160 352C160 343.2 167.2 336 176 336L202.2 336L223.2 315C235.7 302.5 251.2 293.4 268.2 288.5L432 241.7L432 208L419.9 208C400.1 237.8 360.7 248.8 327.8 232.4C292.2 214.6 277.8 171.4 295.6 135.8L302.8 121.5zM395.8 112C374.6 112 355.2 124 345.7 143L338.5 157.3C332.6 169.2 337.4 183.6 349.2 189.5C361 195.4 375.5 190.6 381.4 178.8L384.1 173.3C388.2 165.2 396.5 160 405.6 160L456 160C469.3 160 480 170.7 480 184L480 259.8C480 270.5 472.9 279.9 462.6 282.9L281.4 334.6C272.2 337.2 263.9 342.1 257.2 348.8L119 487C109.6 496.4 109.6 511.6 119 520.9C128.4 530.2 143.6 530.3 152.9 520.9L288.2 385.8C291.1 382.9 294.7 380.8 298.6 379.7L487.4 325.7C511.4 318.8 528 296.9 528 271.9L528 168C528 137.1 502.9 112 472 112L395.8 112z"/></svg>