<svg xmlns="http://www.w3.org/2000/svg" viewBox="0 0 640 640"><!--! Font Awesome Pro 7.2.0 by @fontawesome - https://fontawesome.com License - https://fontawesome.com/license (Commercial License) Copyright 2026 Fonticons, Inc. --><path fill="currentColor" d="M320.1 32C329.1 32 337.4 37.1 341.5 45.1L415 189.3L574.9 214.7C583.8 216.1 591.2 222.4 594 231C596.8 239.6 594.5 249 588.2 255.4L473.7 369.9L499 529.8C500.4 538.7 496.7 547.7 489.4 553C482.1 558.3 472.4 559.1 464.4 555L320.1 481.6L175.8 555C167.8 559.1 158.1 558.3 150.8 553C143.5 547.7 139.8 538.8 141.2 529.8L166.4 369.9L52 255.4C45.6 249 43.4 239.6 46.2 231C49 222.4 56.4 216.1 65.3 214.7L225.1 189.3L298.7 45.1L300.4 42.2C304.8 35.9 312.2 32 320.1 32zM262.3 222C258.8 228.8 252.2 233.6 244.7 234.8L119.2 254.7L209 344.7C214.4 350.1 216.9 357.8 215.7 365.4L195.9 490.9L309.2 433.3L311.8 432.1C318 429.8 325 430.2 330.9 433.3L444.2 490.9L424.4 365.4C423.2 357.8 425.7 350.1 431.1 344.7L520.9 254.8L395.4 234.9C387.8 233.7 381.3 228.9 377.8 222.1L320.1 108.8L262.3 222zM320 408C306.7 408 296 397.3 296 384C296 370.7 306.7 360 320 360C333.3 360 344 370.7 344 384C344 397.3 333.3 408 320 408zM320 216C338.6 216 353 232.1 351 250.6L343.9 314.7C342.5 326.9 332.3 336 320.1 336C307.9 336 297.6 326.8 296.3 314.7L289.2 250.6C287.2 232.1 301.6 216 320.2 216z"/></svg>