<svg xmlns="http://www.w3.org/2000/svg" viewBox="0 0 640 640"><!--! Font Awesome Pro 7.2.0 by @fontawesome - https://fontawesome.com License - https://fontawesome.com/license (Commercial License) Copyright 2026 Fonticons, Inc. --><path fill="currentColor" d="M153.2 152.8C155.9 147.4 161.5 144 167.5 144L472.4 144C478.5 144 484 147.4 486.7 152.8L543.5 266.5C543.8 267 543.9 267.6 543.9 268.2C543.9 270.3 542.2 272 540.1 272L99.8 272C97.7 272 96 270.3 96 268.2C96 267.6 96.1 267 96.4 266.5L153.2 152.8zM48 268.2C48 295.5 69.2 317.9 96 319.8L96 319.9L96 495.9C96 522.4 117.5 543.9 144 543.9L336 543.9C362.5 543.9 384 522.4 384 495.9L384 319.9L496 319.9L496 519.9C496 533.2 506.7 543.9 520 543.9C533.3 543.9 544 533.2 544 519.9L544 319.8C570.8 317.9 592 295.5 592 268.2C592 260.2 590.1 252.2 586.5 245L529.7 131.4C518.8 109.7 496.7 96 472.4 96L167.6 96C143.4 96 121.2 109.7 110.4 131.4L53.5 245.1C49.9 252.3 48 260.2 48 268.3zM144 400L144 320L336 320L336 400L144 400zM144 448L336 448L336 496L144 496L144 448z"/></svg>