<svg xmlns="http://www.w3.org/2000/svg" viewBox="0 0 640 640"><!--! Font Awesome Pro 7.2.0 by @fontawesome - https://fontawesome.com License - https://fontawesome.com/license (Commercial License) Copyright 2026 Fonticons, Inc. --><path fill="currentColor" d="M400.4 113.9L406.9 120.4C428.8 142.3 428.8 177.7 406.9 199.6L400.4 206.1L393.9 199.6C372 177.7 372 142.3 393.9 120.4L400.4 113.9zM440.8 233.5C462.7 211.6 498.1 211.6 520 233.5L526.5 240L520 246.5C498.1 268.4 462.7 268.4 440.8 246.5L434.3 240L440.8 233.5zM470.8 169.5C473.5 139.8 463.5 109.1 440.8 86.4L428.7 74.3C413.1 58.7 387.8 58.7 372.1 74.3L360 86.5C341.9 104.6 331.9 127.6 329.9 151.2C308 135.8 282.3 128.1 256.6 128C160.6 128 64.4 224 64.4 400C64.4 528 112.4 576 240.4 576C416.4 576 512.4 480 512.4 384C512.4 358.2 504.7 332.5 489.2 310.5C512.8 308.5 535.9 298.5 553.9 280.4L566 268.3C581.6 252.7 581.6 227.4 566 211.7L553.9 199.6C531.2 176.9 500.5 166.8 470.8 169.6zM112.4 400C112.4 239 197.3 176 256.6 176C277.1 176 297.4 183.8 313 199.4L441 327.4C456.6 343 464.4 363.4 464.4 384C464.4 443.2 401.5 528 240.4 528C180.4 528 152.6 516.3 138.3 502.1C124 487.9 112.4 460 112.4 400zM253.8 218.5C247.9 212.6 231.4 215.3 219.5 227.2C207.6 239.1 204.9 255.5 210.8 261.5C216.7 267.5 233.2 264.7 245.1 252.8C257 240.9 259.7 224.5 253.8 218.5zM301.1 316.8C313 304.9 315.7 288.5 309.8 282.5C303.9 276.5 287.4 279.3 275.5 291.2C263.6 303.1 260.9 319.5 266.8 325.5C272.7 331.5 289.2 328.7 301.1 316.8zM269.1 396.8C281 384.9 283.7 368.5 277.8 362.5C271.9 356.5 255.4 359.3 243.5 371.2C231.6 383.1 228.9 399.5 234.8 405.5C240.7 411.5 257.2 408.7 269.1 396.8zM237.1 476.8C249 464.9 251.7 448.5 245.8 442.5C239.9 436.5 223.4 439.3 211.5 451.2C199.6 463.1 196.9 479.5 202.8 485.5C208.7 491.5 225.2 488.7 237.1 476.8zM333.8 410.5C327.9 404.6 311.4 407.3 299.5 419.2C287.6 431.1 284.9 447.5 290.8 453.5C296.7 459.5 313.2 456.7 325.1 444.8C337 432.9 339.7 416.5 333.8 410.5zM357.8 330.5C351.9 324.6 335.4 327.3 323.5 339.2C311.6 351.1 308.9 367.5 314.8 373.5C320.7 379.5 337.2 376.7 349.1 364.8C361 352.9 363.7 336.5 357.8 330.5zM413.1 420.8C425 408.9 427.7 392.5 421.8 386.5C415.9 380.5 399.4 383.3 387.5 395.2C375.6 407.1 372.9 423.5 378.8 429.5C384.7 435.5 401.2 432.7 413.1 420.8zM221.1 340.8C233 328.9 235.7 312.5 229.8 306.5C223.9 300.5 207.4 303.3 195.5 315.2C183.6 327.1 180.9 343.5 186.8 349.5C192.7 355.5 209.2 352.7 221.1 340.8zM197.8 394.5C191.9 388.6 175.4 391.3 163.5 403.2C151.6 415.1 148.9 431.5 154.8 437.5C160.7 443.5 177.2 440.7 189.1 428.8C201 416.9 203.7 400.5 197.8 394.5z"/></svg>