<svg xmlns="http://www.w3.org/2000/svg" viewBox="0 0 640 640"><!--! Font Awesome Pro 7.2.0 by @fontawesome - https://fontawesome.com License - https://fontawesome.com/license (Commercial License) Copyright 2026 Fonticons, Inc. --><path fill="currentColor" d="M142.2 497.2C137.1 509.4 123.1 515.2 110.9 510.2C98.7 505.2 92.9 491.1 97.9 478.9L130.6 400.1L182.6 400.1L142.3 497.3zM542.2 478.8C547.3 491 541.5 505.1 529.2 510.1C516.9 515.1 502.9 509.4 497.9 497.1L457.6 399.9L509.6 399.9L542.3 478.7zM488 128C501.3 128 512 138.7 512 152C512 165.3 501.3 176 488 176L416.6 176L469.7 304L552 304C565.3 304 576 314.7 576 328C576 341.3 565.3 352 552 352L88 352C74.7 352 64 341.3 64 328C64 314.7 74.7 304 88 304L170.3 304L223.4 176L152 176C138.7 176 128 165.3 128 152C128 138.7 138.7 128 152 128L488 128zM222.3 304L417.7 304L364.6 176L275.3 176L222.2 304z"/></svg>