<svg xmlns="http://www.w3.org/2000/svg" viewBox="0 0 640 640"><!--! Font Awesome Pro 7.2.0 by @fontawesome - https://fontawesome.com License - https://fontawesome.com/license (Commercial License) Copyright 2026 Fonticons, Inc. --><path fill="currentColor" d="M320.3 80C265.8 80 230.7 93 211.8 102.8L232.2 256L192.3 256C189.4 256 186.6 256.2 183.8 256.6L164 107.4C161.7 90.1 167.7 72.7 182.8 64C207 50 251.6 32 320.3 32C389 32 433.6 50 457.8 64C473 72.7 479 90.1 476.7 107.4L456.8 256.6C454 256.2 451.2 256 448.3 256L408.4 256L428.8 102.8C409.9 93 374.9 80 320.3 80zM380.5 256L340.2 256L356.5 125.5C357.9 114.5 367.9 106.8 378.8 108.1C389.7 109.4 397.5 119.5 396.2 130.4L380.5 256zM300.6 446.8L292.1 514.5C290.7 525.5 280.7 533.2 269.8 531.9C258.9 530.6 251.1 520.5 252.4 509.6L260.9 441.9C273.7 448 287.6 449.4 300.6 446.9zM416.3 384L448.3 384C451.2 384 454 383.8 456.8 383.4L476.7 532.5C479 549.8 473 567.2 457.9 575.9C433.7 589.9 389 607.9 320.4 607.9C251.8 607.9 207 590 182.8 576C167.7 567.3 161.7 549.9 164 532.6L183.9 383.4C186.7 383.8 189.5 384 192.4 384L224.4 384C224.4 392.3 226 400.4 229.1 408L211.8 537.2C230.7 547.1 265.8 560 320.3 560C374.8 560 409.9 547 428.8 537.2L411.6 408C414.7 400.4 416.3 392.2 416.3 384zM396.2 509.5C397.6 520.5 389.8 530.5 378.8 531.8C367.8 533.1 357.8 525.4 356.5 514.4L348.2 447.8C359.2 448.5 370.5 446.4 381 441.2C383.2 440.1 385.3 438.9 387.2 437.6L396.2 509.4zM308.5 256L268.2 256L252.5 130.5C251.1 119.5 258.9 109.5 269.9 108.2C280.9 106.9 290.9 114.6 292.2 125.6L308.5 256zM168.3 320C168.3 306.7 179 296 192.3 296L448.3 296C461.6 296 472.3 306.7 472.3 320C472.3 333.3 461.6 344 448.3 344L359.1 344L373.7 373.3C379.6 385.2 374.8 399.6 363 405.5C351.2 411.4 336.7 406.6 330.8 394.8L320.3 373.7L309.8 394.8C303.9 406.7 289.5 411.5 277.6 405.5C265.7 399.5 260.9 385.2 266.9 373.3L281.5 344L192.3 344C179 344 168.3 333.3 168.3 320z"/></svg>