<svg xmlns="http://www.w3.org/2000/svg" viewBox="0 0 640 640"><!--! Font Awesome Pro 7.2.0 by @fontawesome - https://fontawesome.com License - https://fontawesome.com/license (Commercial License) Copyright 2026 Fonticons, Inc. --><path fill="currentColor" d="M491.9 295.7L553.4 260.2L473.4 121.6L411.9 157.1L491.9 295.7zM360.5 163.6C354.3 149 359.9 131.7 374 123.5L463.3 72C478.6 63.2 498.2 68.4 507 83.7L603 250C611.8 265.3 606.6 284.9 591.3 293.7L502.1 345.2C486.8 354 467.2 348.8 458.4 333.5L457.9 332.7L415.3 355.8C415.9 359.8 416.2 363.9 416.2 368.1C416.2 388.2 408.8 406.6 396.5 420.6L446.4 543C451.4 555.3 445.5 569.3 433.2 574.3C420.9 579.3 406.9 573.4 401.9 561.1L355 445.8C349 447.3 342.7 448 336.2 448C329.7 448 323.4 447.2 317.4 445.8L270.4 561.1C265.4 573.4 251.4 579.3 239.1 574.3C226.8 569.3 220.9 555.3 225.9 543L270.2 434.2L181.6 482.1C166.4 490.3 147.3 485 138.7 470L138 468.7L93.9 494.2C82.4 500.8 67.7 496.9 61.1 485.4L35.2 440.4C28.6 428.9 32.5 414.2 44 407.6L88.1 382.1L84.2 375.3C75.6 360.5 80.3 341.5 94.8 332.3L360.5 163.6zM433.8 291.1L384.3 205.4L133.4 364.7L172.5 432.4L258.2 386.1C256.9 380.3 256.2 374.2 256.2 368C256.2 323.8 292 288 336.2 288C358.9 288 379.4 297.5 394 312.7L433.9 291.1zM336.2 400C353.9 400 368.2 385.7 368.2 368C368.2 350.3 353.9 336 336.2 336C318.5 336 304.2 350.3 304.2 368C304.2 385.7 318.5 400 336.2 400z"/></svg>