<svg xmlns="http://www.w3.org/2000/svg" viewBox="0 0 640 640"><!--! Font Awesome Pro 7.2.0 by @fontawesome - https://fontawesome.com License - https://fontawesome.com/license (Commercial License) Copyright 2026 Fonticons, Inc. --><path fill="currentColor" d="M160.5 176C160.5 140.7 189.2 112 224.5 112C259.8 112 288.5 140.7 288.5 176L288.5 350.4C288.5 356.5 290.8 362.3 294.9 366.7C310.8 383.8 320.5 406.7 320.5 432C320.5 485 277.5 528 224.5 528C171.5 528 128.5 485 128.5 432C128.5 406.8 138.2 383.9 154.1 366.7C158.2 362.3 160.5 356.4 160.5 350.4L160.5 176zM224.5 64C162.6 64 112.5 114.1 112.5 176L112.5 341.5C92.5 366.2 80.5 397.7 80.5 432C80.5 511.5 145 576 224.5 576C304 576 368.5 511.5 368.5 432C368.5 397.7 356.5 366.2 336.5 341.5L336.5 176C336.5 114.1 286.4 64 224.5 64zM224.5 480C251 480 272.5 458.5 272.5 432C272.5 414.2 262.8 398.7 248.5 390.4L248.5 352C248.5 338.7 237.8 328 224.5 328C211.2 328 200.5 338.7 200.5 352L200.5 390.4C186.2 398.7 176.5 414.2 176.5 432C176.5 458.5 198 480 224.5 480zM391.5 305L463.5 377C472.9 386.4 488.1 386.4 497.4 377L569.4 305C578.8 295.6 578.8 280.4 569.4 271.1C560 261.8 544.8 261.7 535.5 271.1L504.5 302.1L504.5 88C504.5 74.7 493.8 64 480.5 64C467.2 64 456.5 74.7 456.5 88L456.5 302.1L425.5 271.1C416.1 261.7 400.9 261.7 391.6 271.1C382.3 280.5 382.2 295.7 391.6 305z"/></svg>