<svg xmlns="http://www.w3.org/2000/svg" viewBox="0 0 640 640"><!--! Font Awesome Pro 7.2.0 by @fontawesome - https://fontawesome.com License - https://fontawesome.com/license (Commercial License) Copyright 2026 Fonticons, Inc. --><path fill="currentColor" d="M272 144L272 232L496 232L496 160C496 151.2 488.8 144 480 144L272 144zM224 144L160 144C151.2 144 144 151.2 144 160L144 232L224 232L224 144zM96 280L96 160C96 124.7 124.7 96 160 96L480 96C515.3 96 544 124.7 544 160L544 480C544 515.3 515.3 544 480 544L160 544C124.7 544 96 515.3 96 480L96 280zM144 360L224 360L224 280L144 280L144 360zM144 408L144 480C144 488.8 151.2 496 160 496L224 496L224 408L144 408zM272 496L480 496C488.8 496 496 488.8 496 480L496 408L272 408L272 496zM496 360L496 280L272 280L272 360L496 360z"/></svg>