<svg xmlns="http://www.w3.org/2000/svg" viewBox="0 0 640 640"><!--! Font Awesome Pro 7.2.0 by @fontawesome - https://fontawesome.com License - https://fontawesome.com/license (Commercial License) Copyright 2026 Fonticons, Inc. --><path fill="currentColor" d="M367.1 70.9C376.5 61.5 391.7 61.5 401 70.9C405 74.9 451.9 121.8 541.6 211.5L569.2 239C578.6 248.4 578.6 263.6 569.2 272.9C559.8 282.2 544.6 282.3 535.3 272.9L526.1 263.7L434.1 370.5C440.3 413.6 431.3 458.8 406.1 497.4L402.9 502.3C382.8 489.2 382.8 489.2 402.9 502.3C389 523.6 359.1 526.7 341.1 508.7L131.4 299C113.4 281 116.6 251.1 137.8 237.2L142.6 234C181.2 208.8 226.4 199.8 269.5 206L376.3 114L367.1 104.8C357.7 95.4 357.7 80.2 367.1 70.9zM410.3 148.1L292.3 249.9C286.6 254.8 279 256.8 271.6 255.2C238.4 248.1 202.8 253.5 172.3 272.1L368 467.8C386.6 437.3 392 401.8 384.9 368.5C383.3 361.2 385.3 353.5 390.2 347.8L492 229.7L410.4 148.1zM185.3 420.9L219.2 454.8L105.1 569C95.7 578.4 80.5 578.4 71.2 569C61.9 559.6 61.8 544.4 71.2 535.1L185.3 420.9z"/></svg>