<svg xmlns="http://www.w3.org/2000/svg" viewBox="0 0 640 640"><!--! Font Awesome Pro 7.2.0 by @fontawesome - https://fontawesome.com License - https://fontawesome.com/license (Commercial License) Copyright 2026 Fonticons, Inc. --><path fill="currentColor" d="M80 192C80 183.2 87.2 176 96 176L544 176C552.8 176 560 183.2 560 192L560 236.9C531.3 253.5 512 284.5 512 320C512 355.5 531.3 386.6 560 403.1L560 448C560 456.8 552.8 464 544 464L96 464C87.2 464 80 456.8 80 448L80 192zM96 128C60.7 128 32 156.7 32 192L32 448C32 483.3 60.7 512 96 512L544 512C579.3 512 608 483.3 608 448L608 384C608 375.2 600.6 368.3 592.3 365.4C573.5 358.9 560 341 560 320C560 299 573.5 281.1 592.3 274.6C600.6 271.7 608 264.8 608 256L608 192C608 156.7 579.3 128 544 128L96 128zM448 248C461.3 248 472 237.3 472 224C472 210.7 461.3 200 448 200C434.7 200 424 210.7 424 224C424 237.3 434.7 248 448 248zM448 344C461.3 344 472 333.3 472 320C472 306.7 461.3 296 448 296C434.7 296 424 306.7 424 320C424 333.3 434.7 344 448 344zM472 416C472 402.7 461.3 392 448 392C434.7 392 424 402.7 424 416C424 429.3 434.7 440 448 440C461.3 440 472 429.3 472 416zM184 288L164.8 262.4C161.8 258.4 157 256 152 256L138.2 256C133 256 129.2 260.9 130.4 265.9L143 316.1C143.6 318.6 143.6 321.3 143 323.9L130.5 374.1C129.2 379.1 133.1 384 138.3 384L152.1 384C157.1 384 161.9 381.6 164.9 377.6L184.1 352L224.1 352L196.5 421C194.4 426.3 198.3 432 203.9 432L235.6 432C243.4 432 250.8 428.2 255.3 421.8L304.1 352L352.1 352C369.8 352 384.1 337.7 384.1 320C384.1 302.3 369.8 288 352.1 288L304.1 288L255.3 218.2C250.8 211.8 243.5 208 235.6 208L203.9 208C198.2 208 194.4 213.7 196.5 219L224.1 288L184.1 288z"/></svg>