<svg xmlns="http://www.w3.org/2000/svg" viewBox="0 0 640 640"><!--! Font Awesome Pro 7.2.0 by @fontawesome - https://fontawesome.com License - https://fontawesome.com/license (Commercial License) Copyright 2026 Fonticons, Inc. --><path fill="currentColor" d="M488 64C474.7 64 464 74.7 464 88L464 118.5C464 148.6 468.9 178.5 478.4 207L480.9 214.4C487 232.8 495.3 250 503.1 265.9C518.1 296.4 529.4 332.2 525.1 371.2C521.1 407.9 502.8 450.4 454.6 496L185.3 496C137.1 450.4 118.9 407.9 114.8 371.2C110.5 332.2 121.8 296.4 136.8 265.9C144.6 250.1 152.9 232.9 159 214.4L161.5 207C171 178.4 175.9 148.6 175.9 118.5L176 88C176 74.7 165.3 64 152 64C138.7 64 128 74.7 128 88L128 118.5C128 143.4 124 168.2 116.1 191.9L113.6 199.3C108.6 214.3 101.7 228.9 93.9 244.7C76.7 279.6 61.5 324.9 67.2 376.5C72.7 426.2 97.2 478.6 152 530.6L152 552C152 565.3 162.7 576 176 576C189.3 576 200 565.3 200 552L200 544L248 544L248 552C248 565.3 258.7 576 272 576C285.3 576 296 565.3 296 552L296 544L344 544L344 552C344 565.3 354.7 576 368 576C381.3 576 392 565.3 392 552L392 544L440 544L440 552C440 565.3 450.7 576 464 576C477.3 576 488 565.3 488 552L488 530.5C542.8 478.6 567.3 426.2 572.8 376.4C578.5 324.9 563.3 279.5 546.1 244.6C538.3 228.8 531.4 214.2 526.4 199.2L523.9 191.8C516 168.2 512 143.4 512 118.5L512 88C512 74.7 501.3 64 488 64zM320 168C306.7 168 296 178.7 296 192L296 304C296 317.3 306.7 328 320 328C333.3 328 344 317.3 344 304L344 192C344 178.7 333.3 168 320 168zM346.7 384C347.3 374.1 342.4 364.7 333.9 359.5C325.4 354.4 314.7 354.4 306.2 359.5C297.7 364.7 292.8 374.1 293.4 384C292.8 393.9 297.7 403.3 306.2 408.5C314.7 413.6 325.4 413.6 333.9 408.5C342.4 403.3 347.3 393.9 346.7 384z"/></svg>