<svg xmlns="http://www.w3.org/2000/svg" viewBox="0 0 640 640"><!--! Font Awesome Pro 7.2.0 by @fontawesome - https://fontawesome.com License - https://fontawesome.com/license (Commercial License) Copyright 2026 Fonticons, Inc. --><path fill="currentColor" d="M96 88C96 74.7 106.7 64 120 64L520 64C533.3 64 544 74.7 544 88C544 101.3 533.3 112 520 112L512 112L512 271.1L512.4 271.5C526.5 283.4 536 299.8 536 320C536 392.7 502.6 440.2 457.6 468.3C455.9 469.4 454.1 470.4 452.4 471.5L474.7 512.2C478.2 518.5 480 525.7 480 532.9C480 556.7 460.7 576 436.9 576L203.1 576C179.3 576 160 556.7 160 532.9C160 525.7 161.8 518.5 165.3 512.2L187.6 471.5C185.8 470.5 184.1 469.4 182.4 468.3C137.4 440.2 104 392.7 104 320C104 299.7 113.5 283.4 127.6 271.5L128 271.1L128 112L120 112C106.7 112 96 101.3 96 88zM170.2 390.8C180 406.5 193.1 418.4 207.8 427.7C241 448.4 284.1 456 320 456C355.9 456 399 448.4 432.2 427.7C446.9 418.5 460 406.5 469.8 390.8C467.4 391.6 464.9 392.3 462.4 393.1C424.4 404 373.7 408 320 408C266.3 408 215.6 404 177.6 393.1C175.1 392.4 172.7 391.6 170.2 390.8zM231.7 490.8L211.3 528L428.6 528L408.2 490.8C377.7 500.5 346.4 504 320 504C293.6 504 262.3 500.5 231.7 490.8zM488 320C488 316.3 486.8 312.6 481.4 308C475.3 302.9 464.9 297.6 449.2 293C417.7 283.9 372.4 279.9 320.1 279.9C267.8 279.9 222.4 283.9 191 293C175.2 297.5 164.8 302.8 158.7 308C153.3 312.6 152.1 316.2 152.1 320C152.1 323.8 153.3 327.4 158.7 332C164.8 337.1 175.2 342.4 191 347C222.5 356.1 267.8 360.1 320.1 360.1C372.4 360.1 417.8 356.1 449.2 347C465 342.5 475.4 337.2 481.4 332C486.8 327.4 488 323.8 488 320zM464 112L176 112L176 247.4L177.6 246.9C215.6 236 266.3 232 320 232C373.7 232 424.4 236 462.4 246.9L464 247.4L464 112zM224 144L272 144C280.8 144 288 151.2 288 160C288 168.8 280.8 176 272 176L224 176C215.2 176 208 168.8 208 160C208 151.2 215.2 144 224 144z"/></svg>