<svg xmlns="http://www.w3.org/2000/svg" viewBox="0 0 640 640"><!--! Font Awesome Pro 7.2.0 by @fontawesome - https://fontawesome.com License - https://fontawesome.com/license (Commercial License) Copyright 2026 Fonticons, Inc. --><path fill="currentColor" d="M262.2 48C248.9 48 236.9 56.3 232.2 68.8L216 112L120 112C106.7 112 96 122.7 96 136C96 149.3 106.7 160 120 160L520 160C533.3 160 544 149.3 544 136C544 122.7 533.3 112 520 112L424 112L407.8 68.8C403.1 56.3 391.2 48 377.8 48L262.2 48zM128 208L128 512C128 547.3 156.7 576 192 576L448 576C483.3 576 512 547.3 512 512L512 208L464 208L464 512C464 520.8 456.8 528 448 528L192 528C183.2 528 176 520.8 176 512L176 208L128 208zM387.9 284.1C378.5 274.7 363.3 274.7 354 284.1L320.1 318L286.2 284.1C276.8 274.7 261.6 274.7 252.3 284.1C243 293.5 242.9 308.7 252.3 318L286.2 351.9L252.3 385.8C242.9 395.2 242.9 410.4 252.3 419.7C261.7 429 276.9 429.1 286.2 419.7L320.1 385.8L354 419.7C363.4 429.1 378.6 429.1 387.9 419.7C397.2 410.3 397.3 395.1 387.9 385.8L354 351.9L387.9 318C397.3 308.6 397.3 293.4 387.9 284.1z"/></svg>