<svg xmlns="http://www.w3.org/2000/svg" viewBox="0 0 640 640"><!--! Font Awesome Pro 7.2.0 by @fontawesome - https://fontawesome.com License - https://fontawesome.com/license (Commercial License) Copyright 2026 Fonticons, Inc. --><path fill="currentColor" d="M432 216C432 202.7 442.7 192 456 192L535.4 192C552.4 192 568.7 198.7 580.7 210.7L621.3 251.3C633.3 263.3 640 279.6 640 296.6L640 456C640 485.3 617.5 509.4 588.7 511.8C578.3 548.8 544.3 576 504 576C463.7 576 429.8 548.9 419.3 512L300.7 512C290.3 548.9 256.3 576 216 576C190.8 576 168 565.4 152 548.4C136 565.4 113.2 576 88 576C39.4 576 0 536.6 0 488C0 439.4 39.4 400 88 400C113.2 400 136 410.6 152 427.6C168 410.6 190.8 400 216 400C256.3 400 290.2 427.1 300.7 464L419.3 464C422 454.4 426.4 445.4 432 437.4L432 216zM592 456L592 368L480 368L480 403.3C487.6 401.1 495.7 400 504 400C543.8 400 577.5 426.4 588.3 462.7C590.5 461.3 592 458.8 592 456zM592 320L592 296.6C592 292.4 590.3 288.3 587.3 285.3L546.7 244.7C543.7 241.7 539.6 240 535.4 240L480 240L480 320L592 320zM88 528C110.1 528 128 510.1 128 488C128 465.9 110.1 448 88 448C65.9 448 48 465.9 48 488C48 510.1 65.9 528 88 528zM544 488C544 465.9 526.1 448 504 448C481.9 448 464 465.9 464 488C464 510.1 481.9 528 504 528C526.1 528 544 510.1 544 488zM216 528C238.1 528 256 510.1 256 488C256 465.9 238.1 448 216 448C193.9 448 176 465.9 176 488C176 510.1 193.9 528 216 528z"/></svg>