<svg xmlns="http://www.w3.org/2000/svg" viewBox="0 0 640 640"><!--! Font Awesome Pro 7.2.0 by @fontawesome - https://fontawesome.com License - https://fontawesome.com/license (Commercial License) Copyright 2026 Fonticons, Inc. --><path fill="currentColor" d="M406.8 152.8L458.4 256L280.1 256L280.1 144L392.5 144C398.6 144 404.1 147.4 406.8 152.8zM232 144L232 256L89 256L138 153.1C140.7 147.5 146.3 144 152.4 144L232 144zM496 304L544 304C552.8 304 560 311.2 560 320L560 384C560 392.8 552.8 400 544 400L539.9 400C523.8 380.5 499.3 368 472 368C444.7 368 420.3 380.5 404.1 400L235.9 400C219.8 380.5 195.3 368 168 368C140.7 368 116.3 380.5 100.1 400L96 400C87.2 400 80 392.8 80 384L80 304L496 304zM559.5 446.1C587.3 439.2 608 414 608 384L608 320C608 284.7 579.3 256 544 256L512 256L449.7 131.4C438.8 109.7 416.7 96 392.4 96L152.4 96C127.7 96 105.2 110.2 94.6 132.5L38.2 250.9C34.1 259.5 32 268.9 32 278.4L32 384C32 414 52.7 439.2 80.5 446.1C80.1 449.3 80 452.6 80 456C80 504.6 119.4 544 168 544C216.6 544 256 504.6 256 456C256 453.3 255.9 450.6 255.6 448L384.3 448C384.1 450.6 383.9 453.3 383.9 456C383.9 504.6 423.3 544 471.9 544C520.5 544 559.9 504.6 559.9 456C559.9 452.7 559.7 449.4 559.4 446.1zM128 456C128 433.9 145.9 416 168 416C190.1 416 208 433.9 208 456C208 478.1 190.1 496 168 496C145.9 496 128 478.1 128 456zM472 416C494.1 416 512 433.9 512 456C512 478.1 494.1 496 472 496C449.9 496 432 478.1 432 456C432 433.9 449.9 416 472 416z"/></svg>