<svg xmlns="http://www.w3.org/2000/svg" viewBox="0 0 640 640"><!--! Font Awesome Pro 7.2.0 by @fontawesome - https://fontawesome.com License - https://fontawesome.com/license (Commercial License) Copyright 2026 Fonticons, Inc. --><path fill="currentColor" d="M544 144C552.8 144 560 151.2 560 160L560 480C560 488.8 552.8 496 544 496L96 496C87.2 496 80 488.8 80 480L80 160C80 151.2 87.2 144 96 144L544 144zM96 96C60.7 96 32 124.7 32 160L32 480C32 515.3 60.7 544 96 544L544 544C579.3 544 608 515.3 608 480L608 160C608 124.7 579.3 96 544 96L96 96zM256 464C335.5 464 400 399.5 400 320C400 240.5 335.5 176 256 176C176.5 176 112 240.5 112 320C112 399.5 176.5 464 256 464zM256 288C273.7 288 288 302.3 288 320C288 337.7 273.7 352 256 352C238.3 352 224 337.7 224 320C224 302.3 238.3 288 256 288zM512 200C512 186.7 501.3 176 488 176C474.7 176 464 186.7 464 200L464 343.8C464 345.1 463.7 346.5 463 347.6L418.9 428.4C412.6 440 416.8 454.6 428.5 461C440.2 467.4 454.7 463.1 461.1 451.4L505.2 370.6C509.7 362.4 512 353.2 512 343.8L512 200z"/></svg>