<svg xmlns="http://www.w3.org/2000/svg" viewBox="0 0 640 640"><!--! Font Awesome Pro 7.2.0 by @fontawesome - https://fontawesome.com License - https://fontawesome.com/license (Commercial License) Copyright 2026 Fonticons, Inc. --><path fill="currentColor" d="M199 71C208.4 61.6 223.6 61.6 232.9 71L319.9 158L406.9 71C416.3 61.6 431.5 61.6 440.8 71C450.1 80.4 450.2 95.6 440.8 104.9L385.8 159.9L511.9 159.9C547.2 159.9 575.9 188.6 575.9 223.9L575.9 479.9C575.9 515.2 547.2 543.9 511.9 543.9L128 544C92.7 544 64 515.3 64 480L64 224C64 188.7 92.7 160 128 160L254.1 160L199.1 105C189.7 95.6 189.7 80.4 199.1 71.1zM128 208C119.2 208 112 215.2 112 224L112 480C112 488.8 119.2 496 128 496L512 496C520.8 496 528 488.8 528 480L528 224C528 215.2 520.8 208 512 208L128 208zM208 256L368 256C394.5 256 416 277.5 416 304L416 400C416 426.5 394.5 448 368 448L208 448C181.5 448 160 426.5 160 400L160 304C160 277.5 181.5 256 208 256zM448 296C448 282.7 458.7 272 472 272C485.3 272 496 282.7 496 296C496 309.3 485.3 320 472 320C458.7 320 448 309.3 448 296zM472 352C485.3 352 496 362.7 496 376C496 389.3 485.3 400 472 400C458.7 400 448 389.3 448 376C448 362.7 458.7 352 472 352z"/></svg>