<svg xmlns="http://www.w3.org/2000/svg" viewBox="0 0 640 640"><!--! Font Awesome Pro 7.2.0 by @fontawesome - https://fontawesome.com License - https://fontawesome.com/license (Commercial License) Copyright 2026 Fonticons, Inc. --><path fill="currentColor" d="M176.1 176L176.1 398.1L247.1 327.1C256.5 317.7 271.7 317.7 281 327.1L432 478.1L478.1 432L327.1 281C317.7 271.6 317.7 256.4 327.1 247.1L398.1 176.1L176 176.1zM128.1 160C128.1 142.3 142.4 128 160.1 128L436.8 128C465.3 128 479.6 162.5 459.4 182.6L378 264L512.1 398.1C530.8 416.8 530.8 447.2 512.1 466L466 512C447.3 530.7 416.9 530.7 398.1 512L264.1 377.9L182.7 459.3C162.5 479.5 128.1 465.2 128.1 436.7L128.1 160z"/></svg>