<svg xmlns="http://www.w3.org/2000/svg" viewBox="0 0 640 640"><!--! Font Awesome Pro 7.2.0 by @fontawesome - https://fontawesome.com License - https://fontawesome.com/license (Commercial License) Copyright 2026 Fonticons, Inc. --><path fill="currentColor" d="M456 0C469.3 0 480 10.7 480 24C480 37.3 469.3 48 456 48L184 48C170.7 48 160 37.3 160 24C160 10.7 170.7 0 184 0L456 0zM409.4 272L320 182.6L230.6 272L264 272C277.3 272 288 282.7 288 296L288 592L352 592L352 296C352 282.7 362.7 272 376 272L409.4 272zM297.4 137.4C309.9 124.9 330.2 124.9 342.7 137.4L470.7 265.4C479.9 274.6 482.6 288.3 477.6 300.3L477.6 300.3C472.6 312.3 461 320.1 448 320.1L400 320.1L400 592.1C400 618.6 378.5 640.1 352 640.1L288 640.1C261.5 640.1 240 618.6 240 592.1L240 320.1L192 320.1C179.1 320.1 167.4 312.3 162.4 300.3L162.4 300.3C157.4 288.3 160.2 274.6 169.3 265.4L297.3 137.4z"/></svg>