<svg xmlns="http://www.w3.org/2000/svg" viewBox="0 0 640 640"><!--! Font Awesome Pro 7.2.0 by @fontawesome - https://fontawesome.com License - https://fontawesome.com/license (Commercial License) Copyright 2026 Fonticons, Inc. --><path fill="currentColor" d="M387.3 64C367.8 64 352 79.8 352 99.3C352 108.7 355.7 117.6 362.3 124.3L390.1 152L328 214.1C309.3 232.8 309.3 263.2 328 282L358.1 312C376.8 330.7 407.2 330.7 426 312L488.1 249.9L515.8 277.6C522.4 284.2 531.4 287.9 540.8 287.9C560.3 287.9 576.1 272.1 576.1 252.6L576 104C576 81.9 558.1 64 536 64L387.3 64zM441 135L418 112L528.1 112L528.1 222.1L505.1 199.1C495.7 189.7 480.5 189.7 471.2 199.1L392.2 278.1L362.1 248L441.1 169C450.5 159.6 450.5 144.4 441.1 135.1zM252.7 576C272.2 576 288 560.2 288 540.7C288 531.3 284.3 522.4 277.7 515.7L249.9 488L312 425.9C330.7 407.2 330.7 376.8 312 358L281.9 328C263.2 309.3 232.8 309.3 214 328L152 390.1L124.3 362.3C117.7 355.7 108.7 352 99.3 352C79.8 352 64 367.8 64 387.3L64 536C64 558.1 81.9 576 104 576L252.7 576zM199 505L222 528L111.9 528L111.9 417.9L134.9 440.9C144.3 450.3 159.5 450.3 168.8 440.9L247.8 361.9L277.9 392L198.9 471C189.5 480.4 189.5 495.6 198.9 504.9z"/></svg>