<svg xmlns="http://www.w3.org/2000/svg" viewBox="0 0 640 640"><!--! Font Awesome Pro 7.2.0 by @fontawesome - https://fontawesome.com License - https://fontawesome.com/license (Commercial License) Copyright 2026 Fonticons, Inc. --><path fill="currentColor" d="M464.1 176L464.1 398.1L393.1 327.1C383.7 317.7 368.5 317.7 359.2 327.1L208.1 478.1L162 432L313 281C322.4 271.6 322.4 256.4 313 247.1L242 176.1L464.1 176.1zM512.1 160C512.1 142.3 497.8 128 480.1 128L203.4 128C174.9 128 160.6 162.5 180.8 182.6L262.1 264L128.1 398.1C109.4 416.8 109.4 447.2 128.1 466L174.1 512C192.8 530.7 223.2 530.7 242 512L376.1 377.9L457.5 459.3C477.7 479.5 512.1 465.2 512.1 436.7L512.1 160z"/></svg>