<svg xmlns="http://www.w3.org/2000/svg" viewBox="0 0 640 640"><!--! Font Awesome Pro 7.2.0 by @fontawesome - https://fontawesome.com License - https://fontawesome.com/license (Commercial License) Copyright 2026 Fonticons, Inc. --><path fill="currentColor" d="M320 150.6L198.6 272L264 272C277.3 272 288 282.7 288 296L288 496L352 496L352 296C352 282.7 362.7 272 376 272L441.4 272L320 150.6zM297.4 105.4C309.9 92.9 330.2 92.9 342.7 105.4L502.7 265.4C511.9 274.6 514.6 288.3 509.6 300.3L509.6 300.3C504.6 312.3 493 320.1 480 320.1L400 320.1L400 496.1C400 522.6 378.5 544.1 352 544.1L288 544.1C261.5 544.1 240 522.6 240 496.1L240 320.1L160 320.1C147.1 320.1 135.4 312.3 130.4 300.3L130.4 300.3C125.4 288.3 128.2 274.6 137.3 265.4L297.3 105.4z"/></svg>