<svg xmlns="http://www.w3.org/2000/svg" viewBox="0 0 640 640"><!--! Font Awesome Pro 7.2.0 by @fontawesome - https://fontawesome.com License - https://fontawesome.com/license (Commercial License) Copyright 2026 Fonticons, Inc. --><path fill="currentColor" d="M320 112C364.2 112 400 147.8 400 192C400 236.2 364.2 272 320 272C275.8 272 240 236.2 240 192C240 147.8 275.8 112 320 112zM192 192C192 262.7 249.3 320 320 320C390.7 320 448 262.7 448 192C448 121.3 390.7 64 320 64C249.3 64 192 121.3 192 192zM264 486.4L264 432L360 432L360 473C338.8 482.3 324 503.4 324 528L324 552C324 563 333 572 344 572C355 572 364 563 364 552L364 528C364 517 373 508 384 508C395 508 404 517 404 528L404 552C404 563 413 572 424 572C435 572 444 563 444 552L444 528C444 503.4 429.2 482.3 408 473L408 436.3C458.7 450.3 496 496.8 496 552C496 565.3 506.7 576 520 576C533.3 576 544 565.3 544 552C544 459.2 468.8 384 376 384L264 384C171.2 384 96 459.2 96 552C96 565.3 106.7 576 120 576C133.3 576 144 565.3 144 552C144 502.8 173.6 460.5 216 442L216 486.4C201.7 494.7 192 510.2 192 528C192 554.5 213.5 576 240 576C266.5 576 288 554.5 288 528C288 510.2 278.3 494.7 264 486.4z"/></svg>