<svg xmlns="http://www.w3.org/2000/svg" viewBox="0 0 640 640"><!--! Font Awesome Pro 7.2.0 by @fontawesome - https://fontawesome.com License - https://fontawesome.com/license (Commercial License) Copyright 2026 Fonticons, Inc. --><path fill="currentColor" d="M96 64C60.7 64 32 92.7 32 128L32 200C32 213.3 42.7 224 56 224C69.3 224 80 213.3 80 200L80 128C80 119.2 87.2 112 96 112L168 112C181.3 112 192 101.3 192 88C192 74.7 181.3 64 168 64L96 64zM472 64C458.7 64 448 74.7 448 88C448 101.3 458.7 112 472 112L544 112C552.8 112 560 119.2 560 128L560 200C560 213.3 570.7 224 584 224C597.3 224 608 213.3 608 200L608 128C608 92.7 579.3 64 544 64L472 64zM80 440C80 426.7 69.3 416 56 416C42.7 416 32 426.7 32 440L32 512C32 547.3 60.7 576 96 576L168 576C181.3 576 192 565.3 192 552C192 538.7 181.3 528 168 528L96 528C87.2 528 80 520.8 80 512L80 440zM608 440C608 426.7 597.3 416 584 416C570.7 416 560 426.7 560 440L560 512C560 520.8 552.8 528 544 528L472 528C458.7 528 448 538.7 448 552C448 565.3 458.7 576 472 576L544 576C579.3 576 608 547.3 608 512L608 440zM320 192C337.7 192 352 206.3 352 224C352 241.7 337.7 256 320 256C302.3 256 288 241.7 288 224C288 206.3 302.3 192 320 192zM320 304C364.2 304 400 268.2 400 224C400 179.8 364.2 144 320 144C275.8 144 240 179.8 240 224C240 268.2 275.8 304 320 304zM192 224C192 207.6 195.1 192 200.7 177.6C168.3 184.6 144 213.5 144 248C144 287.8 176.2 320 216 320C221.9 320 227.6 319.3 233.1 318C207.8 294.6 192 261.2 192 224zM424 320C463.8 320 496 287.8 496 248C496 213.5 471.7 184.7 439.3 177.6C444.9 192 448 207.6 448 224C448 261.1 432.2 294.6 406.9 318C412.4 319.3 418.1 320 424 320zM202.5 352.2C152.1 355 112 396.8 112 448L112 456C112 469.3 122.7 480 136 480C149.3 480 160 469.3 160 456L160 448C160 443.4 160.6 439 161.8 434.9C166.7 403.1 181.3 374.5 202.5 352.2zM478.2 434.9C479.4 439.1 480 443.5 480 448L480 456C480 469.3 490.7 480 504 480C517.3 480 528 469.3 528 456L528 448C528 396.8 487.9 355 437.5 352.2C458.7 374.5 473.3 403.1 478.2 434.9zM304 352C251 352 208 395 208 448L208 456C208 469.3 218.7 480 232 480C245.3 480 256 469.3 256 456L256 448C256 421.5 277.5 400 304 400L336 400C362.5 400 384 421.5 384 448L384 456C384 469.3 394.7 480 408 480C421.3 480 432 469.3 432 456L432 448C432 395 389 352 336 352L304 352z"/></svg>