<svg xmlns="http://www.w3.org/2000/svg" viewBox="0 0 640 640"><!--! Font Awesome Pro 7.2.0 by @fontawesome - https://fontawesome.com License - https://fontawesome.com/license (Commercial License) Copyright 2026 Fonticons, Inc. --><path fill="currentColor" d="M512 176C520.8 176 528 183.2 528 192L528 448C528 456.8 520.8 464 512 464L128 464C119.2 464 112 456.8 112 448L112 192C112 183.2 119.2 176 128 176L512 176zM128 128C92.7 128 64 156.7 64 192L64 224L32 224C14.3 224 0 238.3 0 256L0 384C0 401.7 14.3 416 32 416L64 416L64 448C64 483.3 92.7 512 128 512L512 512C547.3 512 576 483.3 576 448L576 416L608 416C625.7 416 640 401.7 640 384L640 256C640 238.3 625.7 224 608 224L576 224L576 192C576 156.7 547.3 128 512 128L128 128zM184 208C170.7 208 160 218.7 160 232C160 245.3 170.7 256 184 256L456 256C469.3 256 480 245.3 480 232C480 218.7 469.3 208 456 208L184 208zM184 296C170.7 296 160 306.7 160 320C160 333.3 170.7 344 184 344L456 344C469.3 344 480 333.3 480 320C480 306.7 469.3 296 456 296L184 296zM184 384C170.7 384 160 394.7 160 408C160 421.3 170.7 432 184 432L456 432C469.3 432 480 421.3 480 408C480 394.7 469.3 384 456 384L184 384z"/></svg>