<svg xmlns="http://www.w3.org/2000/svg" viewBox="0 0 640 640"><!--! Font Awesome Pro 7.2.0 by @fontawesome - https://fontawesome.com License - https://fontawesome.com/license (Commercial License) Copyright 2026 Fonticons, Inc. --><path fill="currentColor" d="M320 276.1L363.3 146.1C350.8 149.7 336.4 152 320 152C303.6 152 289.2 149.7 276.7 146.1L320 276.1zM431.1 112C427.7 112 424.6 114.2 423.5 117.5L345.2 352.2C344.4 354.6 344 357.2 344 359.8L344 528L488 528C492.4 528 496 524.4 496 520L496 357.3C496 352.9 494.8 348.7 492.6 345L458.3 287.8C451.6 276.6 448 263.8 448 250.8L448 120C448 116.1 445.3 112.9 441.6 112.2C441.1 112.1 440.5 112 440 112L431.1 112zM496 192L496 250.7C496 255.1 497.2 259.3 499.4 263L533.7 320.2C540.4 331.4 544 344.2 544 357.2L544 520C544 550.9 518.9 576 488 576L152 576C121.1 576 96 550.9 96 520L96 357.3C96 344.3 99.5 331.4 106.3 320.3L140.6 263.1C142.8 259.4 144 255.1 144 250.8L144 120C144 89.1 169.1 64 200 64L213.3 64C232.7 64 248.5 74 258.8 83.2C268.2 91.6 287.3 104 320 104C352.7 104 371.7 91.6 381.2 83.2C391.5 74 407.3 64 426.7 64L440 64C470.9 64 496 89.1 496 120L496 192zM208.9 112L200 112C195.6 112 192 115.6 192 120L192 250.7C192 263.7 188.5 276.6 181.7 287.7L147.4 344.9C145.2 348.6 144 352.9 144 357.2L144 520C144 524.4 147.6 528 152 528L296 528L296 359.8C296 357.2 295.6 354.7 294.8 352.2L216.5 117.5C215.4 114.2 212.4 112 208.9 112z"/></svg>