<svg xmlns="http://www.w3.org/2000/svg" viewBox="0 0 640 640"><!--! Font Awesome Pro 7.2.0 by @fontawesome - https://fontawesome.com License - https://fontawesome.com/license (Commercial License) Copyright 2026 Fonticons, Inc. --><path fill="currentColor" d="M276.7 146.1C289.2 149.7 303.6 152 320 152C336.4 152 350.8 149.7 363.3 146.1L320 276.1L276.7 146.1zM423.5 117.5C424.6 114.2 427.6 112 431.1 112L440 112C440.6 112 441.1 112.1 441.6 112.2C445.2 112.9 448 116.2 448 120L448 250.7C448 263.7 451.5 276.6 458.3 287.7L492.6 344.9C494.8 348.6 496 352.9 496 357.2L496 520C496 524.4 492.4 528 488 528L344 528L344 359.8C344 357.2 344.4 354.7 345.2 352.2L423.5 117.5zM496 250.7L496 120C496 89.1 470.9 64 440 64L426.7 64C407.3 64 391.5 74 381.2 83.2C371.8 91.6 352.7 104 320 104C287.3 104 268.3 91.6 258.8 83.2C248.5 74 232.7 64 213.3 64L200 64C169.1 64 144 89.1 144 120L144 250.7C144 255.1 142.8 259.3 140.6 263L106.3 320.3C99.5 331.4 96 344.2 96 357.3L96 520C96 550.9 121.1 576 152 576L488 576C518.9 576 544 550.9 544 520L544 357.3C544 344.3 540.5 331.4 533.7 320.3L499.4 263.1C497.2 259.4 496 255.1 496 250.8zM216.5 117.5L294.7 352.2C295.5 354.6 295.9 357.2 295.9 359.8L295.9 528L151.9 528C147.5 528 143.9 524.4 143.9 520L143.9 357.3C143.9 352.9 145.1 348.7 147.3 345L181.6 287.8C188.3 276.6 191.9 263.8 191.9 250.8L192 120C192 115.6 195.6 112 200 112L208.9 112C212.3 112 215.4 114.2 216.5 117.5zM216 337.4L203.3 324.7C197.1 318.5 186.9 318.5 180.7 324.7C174.5 330.9 174.5 341.1 180.7 347.3L193.4 360L180.7 372.7C174.5 378.9 174.5 389.1 180.7 395.3C186.9 401.5 197.1 401.5 203.3 395.3L216 382.6L228.7 395.3C234.9 401.5 245.1 401.5 251.3 395.3C257.5 389.1 257.5 378.9 251.3 372.7L238.6 360L251.3 347.3C257.5 341.1 257.5 330.9 251.3 324.7C245.1 318.5 234.9 318.5 228.7 324.7L216 337.4zM384 344L384 384C384 392.8 391.2 400 400 400L440 400C453.3 400 464 389.3 464 376C464 362.7 453.3 352 440 352L432 352L432 344C432 330.7 421.3 320 408 320C394.7 320 384 330.7 384 344zM248 464C248 441.9 230.1 424 208 424C185.9 424 168 441.9 168 464C168 486.1 185.9 504 208 504C230.1 504 248 486.1 248 464z"/></svg>