<svg xmlns="http://www.w3.org/2000/svg" viewBox="0 0 640 640"><!--! Font Awesome Pro 7.2.0 by @fontawesome - https://fontawesome.com License - https://fontawesome.com/license (Commercial License) Copyright 2026 Fonticons, Inc. --><path fill="currentColor" d="M384 176C392.8 176 400 183.2 400 192L400 448C400 456.8 392.8 464 384 464L128 464C119.2 464 112 456.8 112 448L112 192C112 183.2 119.2 176 128 176L384 176zM128 128C92.7 128 64 156.7 64 192L64 448C64 483.3 92.7 512 128 512L384 512C419.3 512 448 483.3 448 448L448 192C448 156.7 419.3 128 384 128L128 128zM496 236L496 296L560 248L560 392L496 344L496 404L569.6 459.2C573.8 462.3 578.8 464 584 464C597.3 464 608 453.3 608 440L608 200C608 186.7 597.3 176 584 176C578.8 176 573.8 177.7 569.6 180.8L496 236zM304 360C304 373.3 314.7 384 328 384C341.3 384 352 373.3 352 360L352 248C352 234.7 341.3 224 328 224L216 224C202.7 224 192 234.7 192 248C192 261.3 202.7 272 216 272L270.1 272L167.1 375C157.7 384.4 157.7 399.6 167.1 408.9C176.5 418.2 191.7 418.3 201 408.9L304 305.9L304 360z"/></svg>