<svg xmlns="http://www.w3.org/2000/svg" viewBox="0 0 640 640"><!--! Font Awesome Pro 7.2.0 by @fontawesome - https://fontawesome.com License - https://fontawesome.com/license (Commercial License) Copyright 2026 Fonticons, Inc. --><path fill="currentColor" d="M163.7 441.8C165.3 421.9 154.5 403 136.4 394.5C128.1 390.6 121.7 383.3 119.1 373.8C116.5 364.3 118.5 354.8 123.7 347.3C135.1 330.9 135.1 309.1 123.7 292.7C118.5 285.1 116.6 275.6 119.1 266.2C121.6 256.8 128.1 249.5 136.4 245.5C154.5 237 165.3 218.1 163.7 198.2C163 189 166.1 179.8 173 172.9C179.9 166 189.1 162.9 198.3 163.6C218.2 165.2 237.1 154.4 245.6 136.3C249.5 128 256.8 121.6 266.3 119C275.8 116.4 285.3 118.4 292.8 123.6C309.2 135 331 135 347.4 123.6C355 118.4 364.5 116.5 373.9 119C383.3 121.5 390.6 128 394.6 136.3C403.1 154.4 422 165.2 441.9 163.6C451.1 162.9 460.3 166 467.2 172.9C474.1 179.8 477.2 189 476.5 198.2C474.9 218.1 485.7 237 503.8 245.5C512.1 249.4 518.5 256.7 521.1 266.2C523.7 275.7 521.7 285.2 516.5 292.7C505.1 309.1 505.1 330.9 516.5 347.3C521.7 354.9 523.6 364.4 521.1 373.8C518.6 383.2 512.1 390.5 503.8 394.5C485.7 403 474.9 421.9 476.5 441.8C477.2 451 474.1 460.2 467.2 467.1C462.6 471.7 457 474.6 451.1 475.8C459.3 487 464.2 500.8 464.2 515.8L464.2 522C477.8 518.6 490.6 511.6 501.2 501C518.5 483.7 526.2 460.5 524.4 437.9C544.9 428.2 561.2 409.9 567.5 386.3C573.8 362.7 568.9 338.7 556 320C568.9 301.4 573.8 277.4 567.5 253.7C561.2 230 544.9 211.8 524.4 202.1C526.2 179.5 518.5 156.3 501.2 139C483.9 121.7 460.7 114 438.1 115.8C428.4 95.3 410.1 79 386.5 72.7C362.9 66.4 338.7 71.3 320 84.2C301.4 71.3 277.4 66.4 253.8 72.7C230.2 79 211.9 95.3 202.2 115.8C179.5 114 156.3 121.7 139 139C121.7 156.3 114 179.5 115.8 202.1C95.3 211.8 79 230.1 72.7 253.7C66.4 277.3 71.4 301.3 84.3 320C71.3 338.6 66.4 362.6 72.7 386.3C79 410 95.3 428.2 115.8 437.9C113.9 460.5 121.7 483.7 139 501C149.6 511.6 162.5 518.6 176 522L176 515.8C176 500.8 180.8 487 189.1 475.8C183.2 474.6 177.6 471.7 173 467.1C166.1 460.2 163 451 163.7 441.8zM353.2 256C349 256 344.9 254.3 341.9 251.3L331.4 240.8C325.2 234.6 315 234.6 308.8 240.8L298.3 251.3C295.3 254.3 291.2 256 287 256L272 256C263.2 256 256 263.2 256 272L256 286.9C256 291.1 254.3 295.2 251.3 298.2L240.8 308.7C234.6 314.9 234.6 325.1 240.8 331.3L251.3 341.8C254.3 344.8 256 348.9 256 353.1L256 368C256 376.8 263.2 384 272 384L286.9 384C291.1 384 295.2 385.7 298.2 388.7L308.7 399.2C314.9 405.4 325.1 405.4 331.3 399.2L341.8 388.7C344.8 385.7 348.9 384 353.1 384L368 384C376.8 384 384 376.8 384 368L384 353.1C384 348.9 385.7 344.8 388.7 341.8L399.2 331.3C405.4 325.1 405.4 314.9 399.2 308.7L388.7 298.2C385.7 295.2 384 291.1 384 286.9L384 272C384 263.2 376.8 256 368 256L353.1 256zM224 515.8L224 588.2C224 599.1 232.9 608 243.8 608C246.6 608 249.3 607.4 251.8 606.3L320 576L388.2 606.3C390.7 607.4 393.5 608 396.2 608C407.1 608 416 599.1 416 588.2L416 515.8C416 504.9 407.1 496 396.2 496C393.4 496 390.7 496.6 388.2 497.7L320 528L251.9 497.7C249.4 496.6 246.6 496 243.9 496C233 496 224.1 504.9 224.1 515.8z"/></svg>