<svg xmlns="http://www.w3.org/2000/svg" viewBox="0 0 640 640"><!--! Font Awesome Pro 7.2.0 by @fontawesome - https://fontawesome.com License - https://fontawesome.com/license (Commercial License) Copyright 2026 Fonticons, Inc. --><path opacity=".4" fill="currentColor" d="M82.7 544L128 589.3C141 576.3 160.3 557 185.9 531.5C223.3 559.5 269.7 576.1 320 576.1C370.3 576.1 416.8 559.5 454.2 531.5L512 589.3L557.3 544L499.5 486.2C527.5 448.8 544.1 402.4 544.1 352C544.1 228.3 443.8 128 320.1 128C196.4 128 96 228.3 96 352C96 402.3 112.6 448.8 140.6 486.2C115 511.7 95.7 531 82.7 544zM224 328L296 328L296 256L344 256L344 328L416 328L416 376L344 376L344 448L296 448L296 376L224 376L224 328z"/><path fill="currentColor" d="M410.2 95.3C427.6 76.1 452.8 64 480.8 64C533.4 64 576 106.6 576 159.2C576 181 568.7 201.1 556.3 217.2C524.1 160.8 472.3 117.1 410.2 95.3zM64 159.2C64 106.6 106.6 64 159.2 64C187.2 64 212.4 76.1 229.8 95.3C167.7 117.1 115.9 160.9 83.7 217.2C71.3 201.2 64 181.1 64 159.2zM296 448L296 376L224 376L224 328L296 328L296 256L344 256L344 328L416 328L416 376L344 376L344 448L296 448z"/></svg>