<svg xmlns="http://www.w3.org/2000/svg" viewBox="0 0 640 640"><!--! Font Awesome Pro 7.2.0 by @fontawesome - https://fontawesome.com License - https://fontawesome.com/license (Commercial License) Copyright 2026 Fonticons, Inc. --><path opacity=".4" fill="currentColor" d="M64 96L64 544L289.4 544C280.2 524 274.4 502.2 272.6 479.3C191.5 471.6 128 403.2 128 320C128 231.6 199.6 160 288 160C360.1 160 421.1 207.7 441.1 273.4C448.6 272.5 456.3 272 464 272C480.6 272 496.7 274.1 512 278L512 96L64 96zM256 320C256 337.7 270.3 352 288 352C305.7 352 320 337.7 320 320C320 302.3 305.7 288 288 288C270.3 288 256 302.3 256 320z"/><path fill="currentColor" d="M320 464C320 384.5 384.5 320 464 320C543.5 320 608 384.5 608 464C608 543.5 543.5 608 464 608C384.5 608 320 543.5 320 464zM480 384L448 384L448 448L384 448L384 480L448 480L448 544L480 544L480 480L544 480L544 448L480 448L480 384z"/></svg>