<svg xmlns="http://www.w3.org/2000/svg" viewBox="0 0 640 640"><!--! Font Awesome Pro 7.2.0 by @fontawesome - https://fontawesome.com License - https://fontawesome.com/license (Commercial License) Copyright 2026 Fonticons, Inc. --><path opacity=".4" fill="currentColor" d="M32 192L32 352L96 352L96 448L160 448L160 544L288 544L288 480L224 480L224 448L416 448L416 480L352 480L352 544L480 544L480 448L544 448L544 352L608 352L608 192L544 192L544 288L512 288L512 224L448 224L448 160L512 160L512 96L448 96L448 128L384 128L384 192L256 192L256 128L192 128L192 96L128 96L128 160L192 160L192 224L128 224L128 288L96 288L96 192L32 192zM192 288L256 288L256 384L192 384L192 288zM384 288L448 288L448 384L384 384L384 288z"/><path fill="currentColor" d="M256 288L192 288L192 384L256 384L256 288zM448 288L384 288L384 384L448 384L448 288z"/></svg>