<svg xmlns="http://www.w3.org/2000/svg" viewBox="0 0 640 640"><!--! Font Awesome Pro 7.2.0 by @fontawesome - https://fontawesome.com License - https://fontawesome.com/license (Commercial License) Copyright 2026 Fonticons, Inc. --><path opacity=".4" fill="currentColor" d="M304.3 144L304.3 176L336.3 176C380.5 176 416.3 140.2 416.3 96L416.3 64L384.3 64C340.1 64 304.3 99.8 304.3 144z"/><path fill="currentColor" d="M147.4 513.5C193.8 481.8 224.3 428.5 224.3 368C224.3 305.4 191.7 250.5 142.5 219.3C159.5 202.4 181.4 192 208.3 192L320.3 224L432.3 192C459.2 192 481.1 202.4 498.1 219.3C448.9 250.5 416.3 305.4 416.3 368C416.3 428.4 446.8 481.8 493.2 513.5C463.3 552.6 423.8 576 384.3 576L320.3 560L256.3 576C216.8 576 177.3 552.6 147.4 513.5z"/></svg>