<svg xmlns="http://www.w3.org/2000/svg" viewBox="0 0 640 640"><!--! Font Awesome Pro 7.2.0 by @fontawesome - https://fontawesome.com License - https://fontawesome.com/license (Commercial License) Copyright 2026 Fonticons, Inc. --><path opacity=".4" fill="currentColor" d="M96 96L96 288L160 288L160 205.3L274.7 320L320 274.7L205.3 160L288 160L288 96L96 96zM320 365.3L434.7 480L352 480L352 544L544 544L544 352L480 352L480 434.7L365.3 320C350.2 335.1 335.1 350.2 320 365.3z"/><path fill="currentColor" d="M352 96L544 96L544 288L480 288L480 205.3L205.3 480L288 480L288 544L96 544L96 352L160 352L160 434.7L434.7 160L352 160L352 96z"/></svg>