<svg xmlns="http://www.w3.org/2000/svg" viewBox="0 0 640 640"><!--! Font Awesome Pro 7.2.0 by @fontawesome - https://fontawesome.com License - https://fontawesome.com/license (Commercial License) Copyright 2026 Fonticons, Inc. --><path opacity=".4" fill="currentColor" d="M128 352C128 475.7 228.3 576 352 576C475.7 576 576 475.7 576 352C576 228.3 475.7 128 352 128L352 192C440.4 192 512 263.6 512 352C512 440.4 440.4 512 352 512C263.6 512 192 440.4 192 352L128 352z"/><path fill="currentColor" d="M64 64L288 64L288 128L173.3 128L406.6 361.4L429.3 384L384 429.3L361.4 406.6L128 173.3L128 288L64 288L64 64z"/></svg>