<svg xmlns="http://www.w3.org/2000/svg" viewBox="0 0 640 640"><!--! Font Awesome Pro 7.2.0 by @fontawesome - https://fontawesome.com License - https://fontawesome.com/license (Commercial License) Copyright 2026 Fonticons, Inc. --><path opacity=".4" fill="currentColor" d="M172.4 505.9C172.4 526.9 155.3 544 134.3 544C113.3 544 96.2 526.9 96.2 505.9C96.2 484.9 113.3 467.8 134.3 467.8C155.3 467.8 172.4 484.9 172.4 505.9zM296.6 381.8C296.6 402.8 279.5 419.9 258.5 419.9C237.5 419.9 220.4 402.8 220.4 381.8C220.4 360.8 237.5 343.7 258.5 343.7C279.5 343.7 296.6 360.8 296.6 381.8zM296.6 506C296.6 527 279.5 544.1 258.5 544.1C237.5 544.1 220.4 527 220.4 506C220.4 485 237.5 467.9 258.5 467.9C279.5 467.9 296.6 485 296.6 506zM420.1 258.2C420.1 279.2 403 296.3 382 296.3C361 296.3 343.9 279.2 343.9 258.2C343.9 237.2 361 220.1 382 220.1C403 220.1 420.1 237.2 420.1 258.2zM420.1 381.7C420.1 402.7 403 419.8 382 419.8C361 419.8 343.9 402.7 343.9 381.7C343.9 360.7 361 343.6 382 343.6C403 343.6 420.1 360.7 420.1 381.7zM420.1 505.9C420.1 526.9 403 544 382 544C361 544 343.9 526.9 343.9 505.9C343.9 484.9 361 467.8 382 467.8C403 467.8 420.1 484.9 420.1 505.9zM544.3 134.1C544.3 155.1 527.2 172.2 506.2 172.2C485.2 172.2 468.1 155.1 468.1 134.1C468.1 113.1 485.2 96 506.2 96C527.2 96 544.3 113.1 544.3 134.1zM544.3 258.3C544.3 279.3 527.2 296.4 506.2 296.4C485.2 296.4 468.1 279.3 468.1 258.3C468.1 237.3 485.2 220.2 506.2 220.2C527.2 220.2 544.3 237.3 544.3 258.3zM544.3 381.8C544.3 402.8 527.2 419.9 506.2 419.9C485.2 419.9 468.1 402.8 468.1 381.8C468.1 360.8 485.2 343.7 506.2 343.7C527.2 343.7 544.3 360.8 544.3 381.8zM544.3 506C544.3 527 527.2 544.1 506.2 544.1C485.2 544.1 468.1 527 468.1 506C468.1 485 485.2 467.9 506.2 467.9C527.2 467.9 544.3 485 544.3 506z"/><path fill="currentColor" d="M128.3 96L288.3 96L288.3 256L224.3 256L224.3 205.3C140.3 289.3 97.6 332 96.3 333.3L51 288C52.3 286.7 95 244 179 160L128.3 160L128.3 96z"/></svg>