<svg xmlns="http://www.w3.org/2000/svg" viewBox="0 0 640 640"><!--! Font Awesome Pro 7.2.0 by @fontawesome - https://fontawesome.com License - https://fontawesome.com/license (Commercial License) Copyright 2026 Fonticons, Inc. --><path opacity=".4" fill="currentColor" d="M64 128L64 192L128 192L128 128L64 128zM64 234.7L64 298.7L128 298.7L128 234.7L64 234.7zM64 341.3L64 405.3L128 405.3L128 341.3L64 341.3zM64 448L64 512L128 512L128 448L64 448z"/><path fill="currentColor" d="M178.7 320L201.3 342.6L329.3 470.6L351.9 493.2L397.2 447.9C390.6 441.3 358.6 409.3 301.2 351.9L575.9 351.9L575.9 287.9L301.2 287.9C358.6 230.5 390.6 198.5 397.2 191.9L351.9 146.6L329.3 169.2L201.3 297.2L178.7 319.8z"/></svg>