<svg xmlns="http://www.w3.org/2000/svg" viewBox="0 0 640 640"><!--! Font Awesome Pro 7.2.0 by @fontawesome - https://fontawesome.com License - https://fontawesome.com/license (Commercial License) Copyright 2026 Fonticons, Inc. --><path opacity=".4" fill="currentColor" d="M64 320C64 461.4 178.6 576 320 576C461.4 576 576 461.4 576 320C576 178.6 461.4 64 320 64C178.6 64 64 178.6 64 320zM206.1 296L303.1 199L320.1 182C320.9 182.8 353.2 215.1 417.1 279L434.1 296L400.2 329.9C392.6 322.3 373.9 303.6 344.2 273.9L344.2 448L296.2 448L296.2 273.9C266.5 303.6 247.8 322.3 240.2 329.9L206.1 296z"/><path fill="currentColor" d="M320 182.1C320.8 182.9 353.1 215.2 417 279.1L434 296.1L400.1 330C392.5 322.4 373.8 303.7 344.1 274L344.1 448.1L296.1 448.1L296.1 274C266.4 303.7 247.7 322.4 240.1 330L206.2 296.1L303.2 199.1L320.2 182.1z"/></svg>