<svg xmlns="http://www.w3.org/2000/svg" viewBox="0 0 640 640"><!--! Font Awesome Pro 7.2.0 by @fontawesome - https://fontawesome.com License - https://fontawesome.com/license (Commercial License) Copyright 2026 Fonticons, Inc. --><path opacity=".4" fill="currentColor" d="M64.3 128L64.3 192L128.3 192L128.3 128L64.3 128zM64.3 234.7L64.3 298.7L128.3 298.7L128.3 234.7L64.3 234.7zM64.3 341.4L64.3 405.4L128.3 405.4L128.3 341.4L64.3 341.4zM64.3 448.1L64.3 512.1L128.3 512.1L128.3 448.1L64.3 448.1z"/><path fill="currentColor" d="M589.5 320L566.9 297.4L438.9 169.4L416.3 146.8L371 192.1C377.6 198.7 409.6 230.7 467 288.1L192.3 288.1L192.3 352.1L467 352.1L371 448.1L416.3 493.4L566.9 342.8L589.5 320.2z"/></svg>