<svg xmlns="http://www.w3.org/2000/svg" viewBox="0 0 640 640"><!--! Font Awesome Pro 7.2.0 by @fontawesome - https://fontawesome.com License - https://fontawesome.com/license (Commercial License) Copyright 2026 Fonticons, Inc. --><path opacity=".4" fill="currentColor" d="M288 64L288 128L320 128C426 128 512 214 512 320C512 426 426 512 320 512L288 512L288 576L320 576C461.4 576 576 461.4 576 320C576 178.6 461.4 64 320 64L288 64z"/><path fill="currentColor" d="M296 453.3C300.2 449.1 337.1 412.2 406.6 342.7L429.3 320C425.1 315.8 388.2 278.9 318.7 209.4L296 186.7L250.7 232C264 245.3 282.7 264 306.7 288L64 288L64 352L306.7 352C282.7 376 264 394.7 250.7 408L296 453.3z"/></svg>