<svg xmlns="http://www.w3.org/2000/svg" viewBox="0 0 640 640"><!--! Font Awesome Pro 7.2.0 by @fontawesome - https://fontawesome.com License - https://fontawesome.com/license (Commercial License) Copyright 2026 Fonticons, Inc. --><path opacity=".4" fill="currentColor" d="M83 512L128.3 557.3C134.9 550.7 166.9 518.7 224.3 461.3L224.3 528L288.3 528L288.3 352L112.3 352L112.3 416L179 416C121.6 473.4 89.6 505.4 83 512zM352.3 112L352.3 288L528.3 288L528.3 224L461.6 224C519 166.6 551 134.6 557.6 128L512.3 82.7C505.7 89.3 473.7 121.3 416.3 178.7L416.3 112L352.3 112z"/><path fill="currentColor" d="M128.3 82.7C134.9 89.3 166.9 121.3 224.3 178.7L224.3 112L288.3 112L288.3 288L112.3 288L112.3 224L179 224C121.6 166.6 89.6 134.6 83 128L128.3 82.7zM352.3 352L528.3 352L528.3 416L461.6 416L557.6 512L512.3 557.3L416.3 461.3L416.3 528L352.3 528L352.3 352z"/></svg>