<svg xmlns="http://www.w3.org/2000/svg" viewBox="0 0 640 640"><!--! Font Awesome Pro 7.2.0 by @fontawesome - https://fontawesome.com License - https://fontawesome.com/license (Commercial License) Copyright 2026 Fonticons, Inc. --><path opacity=".4" fill="currentColor" d="M96.3 64L544.3 64L544.3 128L96.3 128L96.3 64z"/><path fill="currentColor" d="M192.3 178.7C200.5 186.9 229.4 215.8 278.9 265.3L301.5 287.9L256.2 333.2C238.9 315.9 228.2 305.2 224.2 301.2L224.2 575.9L160.2 575.9L160.2 301.2C156.2 305.2 145.5 315.9 128.2 333.2L83 288C91.2 279.8 120.1 250.9 169.6 201.4L192.2 178.8zM448.3 178.7C456.5 186.9 485.4 215.8 534.9 265.3L557.5 287.9L512.2 333.2C494.9 315.9 484.2 305.2 480.2 301.2L480.2 575.9L416.2 575.9L416.2 301.2C412.2 305.2 401.5 315.9 384.2 333.2L339 288C347.2 279.8 376.1 250.9 425.6 201.4L448.2 178.8z"/></svg>