<svg xmlns="http://www.w3.org/2000/svg" viewBox="0 0 640 640"><!--! Font Awesome Pro 7.2.0 by @fontawesome - https://fontawesome.com License - https://fontawesome.com/license (Commercial License) Copyright 2026 Fonticons, Inc. --><path opacity=".4" fill="currentColor" d="M320.3 96L416.3 96L416.3 160L320.3 160L320.3 96zM320.3 224L480.3 224L480.3 288L320.3 288L320.3 224zM320.3 352L544.3 352L544.3 416L320.3 416L320.3 352zM320.3 480L608.3 480L608.3 544L320.3 544L320.3 480z"/><path fill="currentColor" d="M160.3 82.7L270.9 193.3L293.5 215.9L248.2 261.2L192.2 205.2L192.2 543.9L128.2 543.9L128.2 205.2L72.2 261.2L26.9 215.9C31.1 211.7 68 174.8 137.5 105.3L160.1 82.7z"/></svg>