<svg xmlns="http://www.w3.org/2000/svg" viewBox="0 0 640 640"><!--! Font Awesome Pro 7.2.0 by @fontawesome - https://fontawesome.com License - https://fontawesome.com/license (Commercial License) Copyright 2026 Fonticons, Inc. --><path opacity=".4" fill="currentColor" d="M128 64L128 128L192 128L192 64L128 64zM234.7 64L234.7 128L298.7 128L298.7 64L234.7 64zM341.3 64L341.3 128L405.3 128L405.3 64L341.3 64zM448 64L448 128L512 128L512 64L448 64z"/><path fill="currentColor" d="M320 589.3L493.3 416L448 370.7L352 466.7L352 192L288 192L288 466.7C230.6 409.3 198.6 377.3 192 370.7L146.7 416L297.4 566.6L320 589.3z"/></svg>