<svg xmlns="http://www.w3.org/2000/svg" viewBox="0 0 640 640"><!--! Font Awesome Pro 7.2.0 by @fontawesome - https://fontawesome.com License - https://fontawesome.com/license (Commercial License) Copyright 2026 Fonticons, Inc. --><path opacity=".4" fill="currentColor" d="M64 322.7L64 354.7L128 354.7L128 322.7C128 216.7 214 130.7 320 130.7C426 130.7 512 216.7 512 322.7L512 354.7L576 354.7L576 322.7C576 181.3 461.4 66.7 320 66.7C178.6 66.7 64 181.4 64 322.7z"/><path fill="currentColor" d="M162.7 432L297.3 566.6L319.9 589.2L477.2 431.9L431.9 386.6L351.9 466.6L351.9 226.6L287.9 226.6L287.9 466.6C243.9 422.6 217.2 395.9 207.9 386.6L162.7 432z"/></svg>