<svg xmlns="http://www.w3.org/2000/svg" viewBox="0 0 640 640"><!--! Font Awesome Pro 7.2.0 by @fontawesome - https://fontawesome.com License - https://fontawesome.com/license (Commercial License) Copyright 2026 Fonticons, Inc. --><path opacity=".4" fill="currentColor" d="M64.3 320C64.3 461.4 178.9 576 320.3 576L352.3 576L352.3 512L320.3 512C214.3 512 128.3 426 128.3 320C128.3 214 214.3 128 320.3 128L352.3 128L352.3 64L320.3 64C178.9 64 64.3 178.6 64.3 320z"/><path fill="currentColor" d="M432.3 162.7C432.5 162.9 477.4 207.8 566.9 297.3L589.5 319.9L432.2 477.2L386.9 431.9L466.9 351.9L224.2 351.9L224.2 287.9L466.9 287.9C422.9 243.9 396.2 217.2 386.9 207.9L432.2 162.6z"/></svg>