<svg xmlns="http://www.w3.org/2000/svg" viewBox="0 0 640 640"><!--! Font Awesome Pro 7.2.0 by @fontawesome - https://fontawesome.com License - https://fontawesome.com/license (Commercial License) Copyright 2026 Fonticons, Inc. --><path opacity=".4" fill="currentColor" d="M128 512L128 576L192 576L192 512L128 512zM234.7 512L234.7 576L298.7 576L298.7 512L234.7 512zM341.4 512L341.4 576L405.4 576L405.4 512L341.4 512zM448 512L448 576L512 576L512 512L448 512z"/><path fill="currentColor" d="M320 50.7L342.6 73.3L470.6 201.3L493.2 223.9L447.9 269.2L351.9 173.2L351.9 447.9L287.9 447.9L287.9 173.2C230.5 230.6 198.5 262.6 191.9 269.2L146.7 224L169.4 201.4L297.4 73.4L320 50.7z"/></svg>