<svg xmlns="http://www.w3.org/2000/svg" viewBox="0 0 640 640"><!--! Font Awesome Pro 7.2.0 by @fontawesome - https://fontawesome.com License - https://fontawesome.com/license (Commercial License) Copyright 2026 Fonticons, Inc. --><path opacity=".4" fill="currentColor" d="M177.1 429.4L484.2 122.3L518.1 156.3L211 463.4C208.8 454.7 206.6 445.7 204.2 436.2C194.8 433.8 185.7 431.6 177.1 429.4z"/><path fill="currentColor" d="M126.2 416.7L190.2 432.7L204.2 436.2L207.7 450.2L223.7 514.2L227 527.4L217.4 537L123.4 631C116.9 605.1 109.3 574.7 100.6 539.8L9.5 517L103.5 423L113.1 413.4L126.3 416.7zM576 179.9L569.1 207.3L433.2 71.3L460.6 64.5L614.4 26L576 179.9z"/></svg>