<svg xmlns="http://www.w3.org/2000/svg" viewBox="0 0 640 640"><!--! Font Awesome Pro 7.2.0 by @fontawesome - https://fontawesome.com License - https://fontawesome.com/license (Commercial License) Copyright 2026 Fonticons, Inc. --><path opacity=".4" fill="currentColor" d="M64.4 512C64.4 467.8 100.2 432 144.4 432C159.7 432 174 436.3 186.2 443.8C179.9 460 176.4 477.6 176.4 496L176.4 576L64.4 576L64.4 512zM192.4 352C192.4 378.5 170.9 400 144.4 400C117.9 400 96.4 378.5 96.4 352C96.4 325.5 117.9 304 144.4 304C170.9 304 192.4 325.5 192.4 352zM224.4 512C224.4 459 267.4 416 320.4 416C373.4 416 416.4 459 416.4 512L416.4 576L224.4 576L224.4 512zM376.4 312C376.4 342.9 351.3 368 320.4 368C289.5 368 264.4 342.9 264.4 312C264.4 281.1 289.5 256 320.4 256C351.3 256 376.4 281.1 376.4 312zM544.4 352C544.4 378.5 522.9 400 496.4 400C469.9 400 448.4 378.5 448.4 352C448.4 325.5 469.9 304 496.4 304C522.9 304 544.4 325.5 544.4 352zM454.6 443.8C466.8 436.3 481.1 432 496.4 432C540.6 432 576.4 467.8 576.4 512L576.4 576L464.4 576L464.4 496C464.4 477.6 460.9 460 454.6 443.8z"/><path fill="currentColor" d="M143.5 217L160.5 234C164 230.5 191 203.5 241.5 153L258.5 136L224.6 102.1L184.6 142.1L184.6 32L136.6 32L136.6 142.1L96.6 102.1L62.7 136L143.7 217zM463.5 217L480.5 234C484 230.5 511 203.5 561.5 153L578.5 136L544.6 102.1C534.3 112.4 521 125.7 504.6 142.1L504.6 32L456.6 32L456.6 142.1C440.2 125.7 426.9 112.4 416.6 102.1L382.5 136C386 139.5 413 166.5 463.5 217z"/></svg>