<svg xmlns="http://www.w3.org/2000/svg" viewBox="0 0 640 640"><!--! Font Awesome Pro 7.2.0 by @fontawesome - https://fontawesome.com License - https://fontawesome.com/license (Commercial License) Copyright 2026 Fonticons, Inc. --><path opacity=".4" fill="currentColor" d="M64 320C64 461.4 178.6 576 320 576C390 576 457.1 548.2 506.6 498.7L512.1 493.2L512.1 575.9L576.1 575.9L576.1 383.9L384.1 383.9L384.1 447.9L466.8 447.9L461.3 453.4C423.8 490.9 373 512 320 512C214 512 128 426 128 320L64 320z"/><path fill="currentColor" d="M512 320C512 214 426 128 320 128C267 128 216.2 149 178.7 186.5L173.2 192L255.9 192L255.9 256L63.9 256L63.9 64L127.9 64L127.9 146.7L133.4 141.2C183 91.8 250 64 320 64C461.4 64 576 178.6 576 320L512 320z"/></svg>