<svg xmlns="http://www.w3.org/2000/svg" viewBox="0 0 640 640"><!--! Font Awesome Pro 7.2.0 by @fontawesome - https://fontawesome.com License - https://fontawesome.com/license (Commercial License) Copyright 2026 Fonticons, Inc. --><path opacity=".4" fill="currentColor" d="M104 304L205.9 304L186 352L104 352L104 304zM104 400L166.2 400L146.3 448L104 448L104 400zM215.6 448L235.5 400L404.6 400L424.5 448L215.7 448zM255.3 352L275.2 304L364.9 304L384.8 352L255.4 352zM434.1 304L536 304L536 352L454 352L434.1 304zM473.8 400L536 400L536 448L493.7 448L473.8 400z"/><path fill="currentColor" d="M313.3 96L291.9 96L283.7 115.8L106.5 544L175.8 544L319.9 195.6L464 544L533.3 544L356.1 115.8L347.9 96L313.2 96z"/></svg>