<svg xmlns="http://www.w3.org/2000/svg" viewBox="0 0 640 640"><!--! Font Awesome Pro 7.2.0 by @fontawesome - https://fontawesome.com License - https://fontawesome.com/license (Commercial License) Copyright 2026 Fonticons, Inc. --><path opacity=".4" fill="currentColor" d="M64 256C64 337.6 102.2 410.3 161.6 457.1C171.2 390.1 222.3 336.5 288 323.2L288 188.8C222.3 175.5 171.2 121.9 161.6 54.9C102.2 101.7 64 174.4 64 256zM352 188.8L352 323.2C417.7 336.5 468.8 390.1 478.4 457.1C527.8 418.1 562.5 361.4 572.8 296.5L512 256L572.8 215.5C562.5 150.6 527.8 93.9 478.4 54.9C468.8 121.9 417.7 175.5 352 188.8z"/><path fill="currentColor" d="M352 64L352 608L288 608L288 64L352 64z"/></svg>