<svg xmlns="http://www.w3.org/2000/svg" viewBox="0 0 640 640"><!--! Font Awesome Pro 7.2.0 by @fontawesome - https://fontawesome.com License - https://fontawesome.com/license (Commercial License) Copyright 2026 Fonticons, Inc. --><path opacity=".4" fill="currentColor" d="M96 311.2L96 328.9C96 365.5 100.5 402 109.4 437.5L128 512L512 512L530.6 437.5C539.5 402 544 365.5 544 328.8L544 311.1C544 274.5 539.5 238 530.6 202.4L512 128L128 128L109.4 202.5C100.5 238 96 274.5 96 311.2zM192 224L224 224C264.7 224 300.4 245.8 320 278.3C339.6 245.8 375.3 224 416 224L448 224L448 240C448 299.2 402.1 347.6 344 351.7L344 416L296 416L296 351.7C237.9 347.6 192 299.2 192 240L192 224z"/><path fill="currentColor" d="M544 64L96 64L128 128L512 128L544 64zM544 576L512 512L128 512L96 576L544 576zM224 224L192 224L192 240C192 299.2 237.9 347.6 296 351.7L296 416L344 416L344 351.7C402.1 347.6 448 299.1 448 240L448 224L416 224C375.3 224 339.6 245.8 320 278.3C300.4 245.8 264.7 224 224 224z"/></svg>