<svg xmlns="http://www.w3.org/2000/svg" viewBox="0 0 640 640"><!--! Font Awesome Pro 7.2.0 by @fontawesome - https://fontawesome.com License - https://fontawesome.com/license (Commercial License) Copyright 2026 Fonticons, Inc. --><path opacity=".4" fill="currentColor" d="M21.5 519C60.7 577.8 140.2 593.7 199 554.5L583 298.5C641.8 259.3 657.7 179.8 618.5 121C579.3 62.2 499.8 46.3 441 85.5L363.3 137.3C405.2 179.2 428.8 202.8 434 208L400 241.9C395.9 237.8 370.1 212 322.5 164.4C297.7 180.9 272.9 197.5 248 214C292.6 258.6 317.2 283.2 321.9 287.9L288 321.9C284.5 318.4 257.6 291.5 207.3 241.2C182.5 257.8 157.7 274.3 132.8 290.8C180.1 338.1 205.8 363.8 209.9 367.9L176 401.9C173 398.9 145 370.9 92.1 318C80.4 325.8 68.7 333.6 57 341.4C-1.8 380.6-17.7 460.1 21.5 518.9z"/><path fill="currentColor" d="M207.3 241.3L248 214.1C292.6 258.7 317.2 283.3 321.9 288L288 321.9C284.5 318.4 257.6 291.5 207.3 241.2zM92.1 318.1L132.8 290.9C180.1 338.2 205.8 363.9 209.9 368L176 401.9C173 398.9 145 370.9 92.1 318zM363.3 137.3C405.2 179.2 428.8 202.8 434 208L400 241.9C395.9 237.8 370.1 212 322.5 164.4L363.2 137.2z"/></svg>