<svg xmlns="http://www.w3.org/2000/svg" viewBox="0 0 640 640"><!--! Font Awesome Pro 7.2.0 by @fontawesome - https://fontawesome.com License - https://fontawesome.com/license (Commercial License) Copyright 2026 Fonticons, Inc. --><path opacity=".4" fill="currentColor" d="M65.1 296C87.4 295.9 109 292.6 129.4 286.7L142.9 332.8C118.2 340 92.1 344 65.1 344.1C76.5 466.3 173.8 563.6 296 575C296.1 548 300 521.9 307.3 497.2L353.4 510.7C347.4 531.1 344.2 552.6 344.1 575C466.3 563.6 563.6 466.3 575 344.1C552.7 344.2 531.1 347.5 510.7 353.4L497.2 307.3C521.9 300.1 548 296.1 575 296C563.6 173.8 466.3 76.5 344.1 65.1C344 92.1 340.1 118.2 332.8 142.9L286.7 129.4C292.6 109 295.9 87.5 296 65.1C173.8 76.5 76.5 173.8 65.1 296zM175.2 267.7C214.2 246.4 246.4 214.2 267.7 175.2L309.8 198.2C284.1 245.2 245.3 284 198.2 309.8L175.2 267.7zM330.2 441.8C355.9 394.8 394.7 356 441.8 330.2L464.8 372.3C425.8 393.6 393.6 425.8 372.3 464.8L330.2 441.8z"/><path fill="currentColor" d="M344 65.1C343.9 92.1 340 118.2 332.7 142.9L286.7 129.4C292.7 109 295.9 87.5 296 65.1C303.9 64.4 311.9 64 320 64C328.1 64 336.1 64.4 344 65.1zM65.1 344C64.4 336.1 64 328.1 64 320C64 311.9 64.4 303.9 65.1 296C87.4 295.9 109 292.6 129.4 286.7L142.9 332.8C118.2 340 92.1 343.9 65.1 344zM344 574.9C328.3 576.4 311.7 576.4 296 574.9C296.1 547.9 300 521.8 307.3 497.1L353.4 510.6C347.4 531 344.2 552.5 344.1 574.9zM574.9 296C576.4 311.7 576.4 328.3 574.9 344C552.6 344.1 531 347.4 510.6 353.3L497.1 307.2C521.8 300 547.9 296 574.9 295.9zM309.8 198.2C284.1 245.2 245.3 284 198.2 309.8L175.2 267.7C214.2 246.4 246.4 214.2 267.7 175.2L309.8 198.2zM330.2 441.7C355.9 394.7 394.7 355.9 441.8 330.1L464.8 372.2C425.8 393.5 393.6 425.7 372.3 464.7L330.2 441.7z"/></svg>