<svg xmlns="http://www.w3.org/2000/svg" viewBox="0 0 640 640"><!--! Font Awesome Pro 7.2.0 by @fontawesome - https://fontawesome.com License - https://fontawesome.com/license (Commercial License) Copyright 2026 Fonticons, Inc. --><path opacity=".4" fill="currentColor" d="M96 64L205.3 64C208.4 67.1 220.9 79.6 242.8 101.5C251.9 97.9 261.7 96 272 96C291.6 96 309.5 103 323.4 114.7L336 102.1L369.9 136L352.9 153L248.9 257L231.9 274L198 240.1L210.6 227.5C198.9 213.6 191.9 195.7 191.9 176.1C191.9 165.8 193.9 155.9 197.4 146.9L178.7 128L160 128L160 320L96 320L96 64z"/><path fill="currentColor" d="M96 320L64 320L64 384L96 384L96 432C96 460.4 108.4 486 128 503.6L128 576L192 576L192 528L448 528L448 576L512 576L512 503.6C531.6 486 544 460.5 544 432L544 384L576 384L576 320L96 320z"/></svg>