<svg xmlns="http://www.w3.org/2000/svg" viewBox="0 0 640 640"><!--! Font Awesome Pro 7.2.0 by @fontawesome - https://fontawesome.com License - https://fontawesome.com/license (Commercial License) Copyright 2026 Fonticons, Inc. --><path opacity=".4" fill="currentColor" d="M80 384C80 288.9 149.2 209.9 240 194.7C250.4 193 261.1 192 272 192C304 192 336 192 368 192C378.9 192 389.6 192.9 400 194.7C490.8 209.9 560 288.9 560 384L560 432L512 432C492.6 432 474 429.1 456.3 423.8C452.8 422.7 449.3 421.6 445.9 420.3C442.3 418.9 438.8 417.5 435.3 416C409.7 404.9 387.2 388.4 368.9 368C341.9 337.8 324.2 298.9 320.7 256C320.5 254 320.4 251.9 320.3 249.9L320 240C320 245.4 319.8 250.7 319.3 256C315.7 298.9 298.1 337.7 271 368C252.8 388.4 230.2 404.9 204.8 416C197.8 419 190.8 421.6 183.6 423.8C166 429.2 147.3 432 128 432L80 432L80 384z"/><path fill="currentColor" d="M394.1 512C357.6 549.3 320.4 575.7 320 576C319.6 575.7 282.4 549.3 245.9 512L394.1 512zM435.3 416C442.1 419 449.1 421.6 456.4 423.8C451.1 437.4 443.5 450.9 434.5 464L205.6 464C196.5 450.9 188.9 437.4 183.7 423.8C190.9 421.6 198 419 204.8 416L435.3 416zM320.7 256C324.2 298.9 341.9 337.7 368.9 368L271 368C298.1 337.8 315.6 298.9 319.2 256L320.6 256zM425.9 88L390.9 123C396.7 134.1 400 146.6 400 160L400 194.7C389.6 193 378.9 192 368 192L272 192C261.1 192 250.4 192.9 240 194.7L240 160C240 146.7 243.3 134.1 249.1 123L214.1 88L248 54.1L283 89.1C294.1 83.3 306.6 80 320 80C333.3 80 345.9 83.3 356.9 89.1L392 54.1L425.9 88z"/></svg>