<svg xmlns="http://www.w3.org/2000/svg" viewBox="0 0 640 640"><!--! Font Awesome Pro 7.2.0 by @fontawesome - https://fontawesome.com License - https://fontawesome.com/license (Commercial License) Copyright 2026 Fonticons, Inc. --><path opacity=".4" fill="currentColor" d="M80 480L560 480L480 352L480 256C480 178.6 425 114 352 99.2L352 64L288 64L288 99.2C215 114 160 178.6 160 256L160 352L80 480zM224 264L296 264L296 192L344 192L344 264L416 264L416 312L344 312L344 384L296 384L296 312L224 312L224 264z"/><path fill="currentColor" d="M296 384L296 312L224 312L224 264L296 264L296 192L344 192L344 264L416 264L416 312L344 312L344 384L296 384zM320 576C290.2 576 265.1 555.6 258 528L382 528C374.9 555.6 349.8 576 320 576z"/></svg>