<svg xmlns="http://www.w3.org/2000/svg" viewBox="0 0 640 640"><!--! Font Awesome Pro 7.2.0 by @fontawesome - https://fontawesome.com License - https://fontawesome.com/license (Commercial License) Copyright 2026 Fonticons, Inc. --><path opacity=".4" fill="currentColor" d="M96.1 272C96.1 386.9 189.2 480 304.1 480C326.5 480 348 476.5 368.2 469.9L106.2 207.9C99.7 228.1 96.1 249.6 96.1 272zM160.1 480L160.1 576L474.3 576L402.9 504.6C372.5 517.3 339.2 524.3 304.2 524.3C250.8 524.3 201.2 508 160.2 480z"/><path fill="currentColor" d="M64.3 30.2C65.6 31.5 96.9 62.8 158.1 124C195.7 87 247.2 64.1 304.2 64.1C419.1 64.1 512.2 157.2 512.2 272.1C512.2 329 489.3 380.6 452.3 418.2L520.2 486.1L520.2 457.7C505.9 449.4 496.2 433.9 496.2 416.1C496.2 389.6 517.7 368.1 544.2 368.1C570.7 368.1 592.2 389.6 592.2 416.1C592.2 433.9 582.5 449.4 568.2 457.7L568.2 534.1C586.3 552.2 600.4 566.3 610.3 576.2L576.4 610.1L559.4 593.1L47.4 81.1L30.4 64.1L64.3 30.2zM282.5 248.4C288.2 243.2 295.8 240 304.1 240C321.8 240 336.1 254.3 336.1 272C336.1 280.3 332.9 287.9 327.7 293.6L361.7 327.6C375.6 313.2 384.1 293.6 384.1 272.1C384.1 227.9 348.3 192.1 304.1 192.1C282.5 192.1 262.9 200.6 248.6 214.5L282.6 248.5z"/></svg>