<svg xmlns="http://www.w3.org/2000/svg" viewBox="0 0 640 640"><!--! Font Awesome Pro 7.2.0 by @fontawesome - https://fontawesome.com License - https://fontawesome.com/license (Commercial License) Copyright 2026 Fonticons, Inc. --><path opacity=".4" fill="currentColor" d="M16 416C16 345.3 73.3 288 144 288C154.8 288 165.2 289.3 175.2 291.8L149 344.1C147.3 344 145.6 343.9 143.9 343.9C104.1 343.9 71.9 376.1 71.9 415.9C71.9 455.7 104.1 487.9 143.9 487.9C178.2 487.9 206.8 464 214.1 431.9L270.9 431.9C263 495 209.2 543.9 143.9 543.9C73.2 543.9 15.9 486.6 15.9 415.9zM368 416C368 374 388.2 336.8 419.4 313.4L444.7 365.4C431.9 378.4 424 396.2 424 415.9C424 455.7 456.2 487.9 496 487.9C535.8 487.9 568 455.7 568 415.9C568 376.1 535.8 343.9 496 343.9C493.3 343.9 490.5 344.1 487.9 344.4L462.6 292.4C473.3 289.5 484.5 288 496 288C566.7 288 624 345.3 624 416C624 486.7 566.7 544 496 544C425.3 544 368 486.7 368 416z"/><path fill="currentColor" d="M313.6 96L480 96L480 144L390.4 144L517.6 405.5L528.1 427.1L484.9 448.1L474.4 426.5L399 271.6L325.4 418.8L318.8 432.1L105.1 432.1C106 430.2 138.9 364.5 203.6 235L192.1 208.1L127.9 208.1L127.9 160.1L223.7 160.1C226.5 166.6 233.4 182.6 244.3 208.1L368 208.1C339.4 149.3 321.2 111.9 313.5 96.1zM228.5 292.7L182.9 384L267.7 384L228.6 292.7zM305.7 351L353.2 256L265 256L305.7 351z"/></svg>