<svg xmlns="http://www.w3.org/2000/svg" viewBox="0 0 640 640"><!--! Font Awesome Pro 7.2.0 by @fontawesome - https://fontawesome.com License - https://fontawesome.com/license (Commercial License) Copyright 2026 Fonticons, Inc. --><path opacity=".4" fill="currentColor" d="M96 64L288 64L288 288L96 288L96 64zM96 352L208 352L208 512L256 512L256 576L96 576L96 512L144 512L144 416L96 416L96 352zM160 128L160 224L224 224L224 128L160 128zM320 64L432 64L432 224L480 224L480 272.7C474.7 272.3 469.4 272 464 272C436.7 272 410.7 277.7 387.1 288L320 288L320 224L368 224L368 128L320 128L320 64z"/><path fill="currentColor" d="M464 608C543.5 608 608 543.5 608 464C608 384.5 543.5 320 464 320C384.5 320 320 384.5 320 464C320 543.5 384.5 608 464 608zM524.9 425.4L460.9 513.4L449.9 528.5C445.5 524.1 427.8 506.4 396.7 475.3L385.4 464L408 441.4C413 446.4 425.7 459.1 446.1 479.5L499.1 406.6L508.5 393.7L534.4 412.5L525 425.4z"/></svg>