<svg xmlns="http://www.w3.org/2000/svg" viewBox="0 0 640 640"><!--! Font Awesome Pro 7.2.0 by @fontawesome - https://fontawesome.com License - https://fontawesome.com/license (Commercial License) Copyright 2026 Fonticons, Inc. --><path opacity=".4" fill="currentColor" d="M226.1 471.4C244.8 476.8 264.6 479.8 285 480L335.2 574.8L335.8 576L281.5 576L226.1 471.4zM325.1 477C341.5 474.3 357.3 469.7 372.3 463.6L431.2 574.8L431.8 576L377.5 576L325.1 476.9zM511.4 149L576 192L512 234.7L512 160C512 156.2 511.8 152.6 511.4 148.9z"/><path fill="currentColor" d="M64 224L64 256C64 379.7 164.3 480 288 480C411.7 480 512 379.7 512 256L512 160C512 107 469 64 416 64C363 64 320 107 320 160L320 224L64 224zM416 160C429.3 160 440 170.7 440 184C440 197.3 429.3 208 416 208C402.7 208 392 197.3 392 184C392 170.7 402.7 160 416 160z"/></svg>