<svg xmlns="http://www.w3.org/2000/svg" viewBox="0 0 640 640"><!--! Font Awesome Pro 7.2.0 by @fontawesome - https://fontawesome.com License - https://fontawesome.com/license (Commercial License) Copyright 2026 Fonticons, Inc. --><path opacity=".4" fill="currentColor" d="M224 64L608 64C601.6 90.7 595.2 117.3 588.8 144L448 144L448 192L577.3 192C572.2 213.3 567.1 234.7 561.9 256L448 256L448 304L550.4 304L515.8 448L254.7 448L224 64z"/><path fill="currentColor" d="M108.6 62.6L184 87.7L171.7 176L121.1 175.7C106.4 216.3 106.4 260.8 121.1 301.4L171.7 301.1L184 389.4L108.6 414.5L102.3 408.2C8.6 314.5 8.6 162.5 102.3 68.8L108.6 62.5zM588.8 144L577.3 192L448 192L448 144L588.8 144zM561.9 256L550.4 304L448 304L448 256L561.9 256zM544 448L544 576L224 576L224 448L544 448zM384 536C397.3 536 408 525.3 408 512C408 498.7 397.3 488 384 488C370.7 488 360 498.7 360 512C360 525.3 370.7 536 384 536z"/></svg>