<svg xmlns="http://www.w3.org/2000/svg" viewBox="0 0 640 640"><!--! Font Awesome Pro 7.2.0 by @fontawesome - https://fontawesome.com License - https://fontawesome.com/license (Commercial License) Copyright 2026 Fonticons, Inc. --><path opacity=".4" fill="currentColor" d="M64 64L64 144L192 144L192 64L64 64zM64 192L64 448L192 448L192 192L64 192zM64 496L64 576L192 576L192 496L64 496zM240 160L240 576L340 576C317.3 544.5 304 505.8 304 464C304 415.3 322.1 370.8 352 337L352 160L240 160zM359.9 89.3L380.6 166.6L504.2 133.5L483.5 56.2L359.9 89.3zM393 212.9L413.8 290.4C438.7 278.6 466.6 272 496 272C512.2 272 527.9 274 542.9 277.8L516.6 179.8L393 212.9z"/><path fill="currentColor" d="M352 464C352 384.5 416.5 320 496 320C575.5 320 640 384.5 640 464C640 543.5 575.5 608 496 608C416.5 608 352 543.5 352 464zM469.3 384L469.3 437.3L416 437.3L416 490.6L469.3 490.6L469.3 543.9L522.6 543.9L522.6 490.6L575.9 490.6L575.9 437.3L522.6 437.3L522.6 384L469.3 384z"/></svg>