<svg xmlns="http://www.w3.org/2000/svg" viewBox="0 0 640 640"><!--! Font Awesome Pro 7.2.0 by @fontawesome - https://fontawesome.com License - https://fontawesome.com/license (Commercial License) Copyright 2026 Fonticons, Inc. --><path opacity=".4" fill="currentColor" d="M96 64L96 576L544 576L544 512L512 512L512 448L544 448L544 64L96 64zM160 480C160 462.3 174.3 448 192 448L448 448L448 512L160 512L160 480zM216 232L342.1 232C319.1 209 303.1 193 294.1 184L328 150.1C330.1 152.2 359.8 181.9 417 239.1L434 256.1C431.9 258.2 402.2 287.9 345 345.1L328 362.1L294.1 328.2C303.1 319.2 319.1 303.2 342.1 280.2L216 280.2L216 232.2z"/><path fill="currentColor" d="M433.9 256C431.8 258.1 402.1 287.8 344.9 345L327.9 362L294 328.1C303 319.1 319 303.1 342 280.1L215.9 280.1L215.9 232.1L342 232.1C319 209.1 303 193.1 294 184.1L328 150.1C330.1 152.2 359.8 181.9 417 239.1L434 256.1z"/></svg>