<svg xmlns="http://www.w3.org/2000/svg" viewBox="0 0 640 640"><!--! Font Awesome Pro 7.2.0 by @fontawesome - https://fontawesome.com License - https://fontawesome.com/license (Commercial License) Copyright 2026 Fonticons, Inc. --><path opacity=".4" fill="currentColor" d="M320 136L369.4 118.4C410.8 103.6 454.5 96 498.5 96L608 96L608 480L498.5 480C454.5 480 410.8 487.6 369.3 502.4L320 520L320 136z"/><path fill="currentColor" d="M141.5 96C185.5 96 229.2 103.6 270.7 118.4L320.1 136L320.1 520L270.7 502.4C229.2 487.6 185.5 480 141.5 480L32 480L32 96L141.5 96zM56 528L141.5 528C188.3 528 234.7 536 278.7 551.8L320 566.5L361.3 551.8C405.3 536.1 451.8 528 498.5 528L608 528L608 576L498.5 576C457.2 576 416.3 583.1 377.4 597L328 614.6L319.9 617.5L311.8 614.6L262.4 597C223.5 583.1 182.6 576 141.3 576L32 576L32 528L56 528z"/></svg>