<svg xmlns="http://www.w3.org/2000/svg" viewBox="0 0 640 640"><!--! Font Awesome Pro 7.2.0 by @fontawesome - https://fontawesome.com License - https://fontawesome.com/license (Commercial License) Copyright 2026 Fonticons, Inc. --><path opacity=".4" fill="currentColor" d="M128 64L128 592L320 480L512 592L512 64L128 64zM224 264L296 264L296 192L344 192L344 264L416 264L416 312L344 312L344 384L296 384L296 312L224 312L224 264z"/><path fill="currentColor" d="M296 360L296 384L344 384L344 312L416 312L416 264L344 264L344 192L296 192L296 264L224 264L224 312L296 312L296 360z"/></svg>