<svg xmlns="http://www.w3.org/2000/svg" viewBox="0 0 640 640"><!--! Font Awesome Pro 7.2.0 by @fontawesome - https://fontawesome.com License - https://fontawesome.com/license (Commercial License) Copyright 2026 Fonticons, Inc. --><path opacity=".4" fill="currentColor" d="M96 176L96 480L544 480L544 448C544 377.3 486.7 320 416 320L288 320L288 272L384 272L384 224L288 224L288 176L96 176z"/><path fill="currentColor" d="M416 64L96 64L96 176L416 176L416 64zM96 480L96 544L124 576L180 576L208 544L236 576L292 576L320 544L348 576L404 576L432 544L460 576L516 576L544 544L544 480L96 480z"/></svg>