<svg xmlns="http://www.w3.org/2000/svg" viewBox="0 0 640 640"><!--! Font Awesome Pro 7.2.0 by @fontawesome - https://fontawesome.com License - https://fontawesome.com/license (Commercial License) Copyright 2026 Fonticons, Inc. --><path opacity=".4" fill="currentColor" d="M104 104L104 152L152 152L152 104L104 104zM104 200L104 248L152 248L152 200L104 200zM104 296L104 344L152 344L152 296L104 296zM104 392L104 440L152 440L152 392L104 392zM104 488L104 536L152 536L152 488L104 488zM200 104L200 152L248 152L248 104L200 104zM200 296L200 344L248 344L248 296L200 296zM200 488L200 536L248 536L248 488L200 488zM392 104L392 152L440 152L440 104L392 104zM392 296L392 344L440 344L440 296L392 296zM392 488L392 536L440 536L440 488L392 488zM488 104L488 152L536 152L536 104L488 104zM488 200L488 248L536 248L536 200L488 200zM488 296L488 344L536 344L536 296L488 296zM488 392L488 440L536 440L536 392L488 392zM488 488L488 536L536 536L536 488L488 488z"/><path fill="currentColor" d="M292 540L292 100L348 100L348 540L292 540z"/></svg>