<svg xmlns="http://www.w3.org/2000/svg" viewBox="0 0 640 640"><!--! Font Awesome Pro 7.2.0 by @fontawesome - https://fontawesome.com License - https://fontawesome.com/license (Commercial License) Copyright 2026 Fonticons, Inc. --><path opacity=".4" fill="currentColor" d="M411.1 486.2C423.4 468.5 432.9 448.8 439.3 427.7C439.5 427.1 439.7 426.5 439.8 425.9C440.3 424.2 440.8 422.4 441.3 420.5C441.9 418.1 442.4 416.2 442.7 414.7C443.1 412.9 443.5 411.2 443.8 409.4C444 408.7 444.1 407.8 444.3 407C444.7 405 445 403 445.3 401.1C446.3 395.1 446.9 389.5 447.3 384.3C447.5 381.6 447.7 378.9 447.8 376.2C447.9 373.5 448 370.8 448 368.1C448 348.8 445.3 330.2 440.5 312.4C445.3 298.9 450.1 285.5 454.9 272.1L569.2 272.1C590.2 330.7 611.1 389.4 632.1 448.1L568.1 576.1L456.1 576.1L411.2 486.3zM448 128C448 92.7 476.7 64 512 64C547.3 64 576 92.7 576 128L576 133.8C576 140.6 575 147.4 573.1 153.9L552 224.1L472 224.1L450.9 153.9C448.9 147.4 448 140.6 448 133.8L448 128z"/><path fill="currentColor" d="M240 576C125.1 576 32 482.9 32 368C32 253.1 125.1 160 240 160C354.9 160 448 253.1 448 368C448 482.9 354.9 576 240 576zM228 296C212.5 296 200 308.5 200 324C200 339.5 212.5 352 228 352C243.5 352 256 339.5 256 324C256 308.5 243.5 296 228 296zM156 256C140.5 256 128 268.5 128 284C128 299.5 140.5 312 156 312C171.5 312 184 299.5 184 284C184 268.5 171.5 256 156 256zM569.1 272L454.8 272L471.9 224L551.9 224L569 272zM228 208C212.5 208 200 220.5 200 236C200 251.5 212.5 264 228 264C243.5 264 256 251.5 256 236C256 220.5 243.5 208 228 208z"/></svg>