<svg xmlns="http://www.w3.org/2000/svg" viewBox="0 0 640 640"><!--! Font Awesome Pro 7.2.0 by @fontawesome - https://fontawesome.com License - https://fontawesome.com/license (Commercial License) Copyright 2026 Fonticons, Inc. --><path opacity=".4" fill="currentColor" d="M72 336C72 362.2 84.6 385.4 104 400C94 413.4 88 430 88 448C88 492.2 123.8 528 168 528C168.7 528 169.3 528 170 528C177.1 555.6 202.2 576 232 576L296 576L296 526.9C291.1 513 288 497.4 288 480C288 462.5 290.8 445.7 296 429.9L296 64L240 64C209.1 64 184 89.1 184 120L184 144C139.8 144 104 179.8 104 224C104 239 108.1 253 115.2 264.9C89.5 278.2 72 305 72 336zM344 64L344 358.4C372 334.5 408.3 320 448 320L464 320L464 256L529.3 256C533.6 246.2 536 235.4 536 224C536 179.8 500.2 144 456 144L456 120C456 89.1 430.9 64 400 64L344 64z"/><path fill="currentColor" d="M640 416L528 304L512 304L512 368L448 368C386.1 368 336 418.1 336 480C336 544 400 576 400 576L400 528C400 492.7 428.7 464 464 464L512 464L512 528L528 528L640 416z"/></svg>