<svg xmlns="http://www.w3.org/2000/svg" viewBox="0 0 640 640"><!--! Font Awesome Pro 7.2.0 by @fontawesome - https://fontawesome.com License - https://fontawesome.com/license (Commercial License) Copyright 2026 Fonticons, Inc. --><path opacity=".4" fill="currentColor" d="M32 96L544 96L544 160L504 160L504 224L544 224L544 289.4C519.6 278.2 492.6 272 464 272C399 272 341.5 304.3 306.7 353.8C300.6 352.6 294.4 352 288 352C235 352 192 395 192 448L192 544L96 544L96 418C96 379.2 69.6 345.4 32 336L32 224L72 224L72 160L32 160L32 96zM120 160L120 224L200 224L200 160L120 160zM248 160L248 224L328 224L328 160L248 160zM376 160L376 224L456 224L456 160L376 160z"/><path fill="currentColor" d="M320 464C320 384.5 384.5 320 464 320C543.5 320 608 384.5 608 464C608 543.5 543.5 608 464 608C384.5 608 320 543.5 320 464zM530.6 420L508 397.4C504 401.4 489.4 416 464 441.4C438.7 416 424 401.4 420 397.4L397.4 420C401.4 424 416 438.6 441.4 464C416 489.3 401.4 504 397.4 508L420 530.6C424 526.6 438.6 512 464 486.6C489.3 512 504 526.6 508 530.6L530.6 508C526.6 504 512 489.4 486.6 464C512 438.7 526.6 424 530.6 420z"/></svg>