<svg xmlns="http://www.w3.org/2000/svg" viewBox="0 0 640 640"><!--! Font Awesome Pro 7.2.0 by @fontawesome - https://fontawesome.com License - https://fontawesome.com/license (Commercial License) Copyright 2026 Fonticons, Inc. --><path opacity=".4" fill="currentColor" d="M32 96L544 96L544 160L504 160L504 224L544 224L544 289.4C519.6 278.2 492.6 272 464 272C399 272 341.5 304.3 306.7 353.8C300.6 352.6 294.4 352 288 352C235 352 192 395 192 448L192 544L96 544L96 418C96 379.2 69.6 345.4 32 336L32 224L72 224L72 160L32 160L32 96zM120 160L120 224L200 224L200 160L120 160zM248 160L248 224L328 224L328 160L248 160zM376 160L376 224L456 224L456 160L376 160z"/><path fill="currentColor" d="M320 464C320 384.5 384.5 320 464 320C543.5 320 608 384.5 608 464C608 543.5 543.5 608 464 608C384.5 608 320 543.5 320 464zM480 512L448 512L448 544L480 544L480 512zM480 384L480 368L448 368L448 480L480 480L480 384z"/></svg>