<svg xmlns="http://www.w3.org/2000/svg" viewBox="0 0 640 640"><!--! Font Awesome Pro 7.2.0 by @fontawesome - https://fontawesome.com License - https://fontawesome.com/license (Commercial License) Copyright 2026 Fonticons, Inc. --><path opacity=".4" fill="currentColor" d="M32 96L32 160L72 160L72 224L32 224L32 336C69.6 345.4 96 379.2 96 418L96 544L192 544L192 448C192 395 235 352 288 352C307.6 352 325.9 357.9 341.1 368L368 368C368 297.3 425.3 240 496 240C513 240 529.2 243.3 544 249.3L544 198.6C531.2 195 517.8 192.8 504 192.2L504 160L544 160L544 96L32 96zM120 160L200 160L200 224L120 224L120 160zM248 160L328 160L328 224L248 224L248 160zM376 160L456 160L456 196.6C433.7 201.8 413 211.2 394.8 224L376 224L376 160z"/><path fill="currentColor" d="M464 368L464 416L528 416L528 368C528 350.3 513.7 336 496 336C478.3 336 464 350.3 464 368zM416 416L416 368C416 323.8 451.8 288 496 288C540.2 288 576 323.8 576 368L576 416L608 416L608 608L384 608L384 416L416 416z"/></svg>