<svg xmlns="http://www.w3.org/2000/svg" viewBox="0 0 640 640"><!--! Font Awesome Pro 7.2.0 by @fontawesome - https://fontawesome.com License - https://fontawesome.com/license (Commercial License) Copyright 2026 Fonticons, Inc. --><path opacity=".4" fill="currentColor" d="M176 416L280 416L320 496L360 416L464 416C464 416 408 480 376 576L264 576C232 480 176 416 176 416z"/><path fill="currentColor" d="M480 416L64 416L64 320C64 274.5 95.6 236.4 138.1 226.5C131.7 216.5 128 204.7 128 192C128 156.7 156.7 128 192 128C204.7 128 216.6 131.7 226.5 138.1C236.4 95.6 274.5 64 320 64C365.5 64 403.6 95.6 413.5 138.1C423.5 131.7 435.3 128 448 128C483.3 128 512 156.7 512 192C512 204.7 508.3 216.6 501.9 226.5C544.4 236.4 576 274.5 576 320L576 416L480 416z"/></svg>