<svg xmlns="http://www.w3.org/2000/svg" viewBox="0 0 640 640"><!--! Font Awesome Pro 7.2.0 by @fontawesome - https://fontawesome.com License - https://fontawesome.com/license (Commercial License) Copyright 2026 Fonticons, Inc. --><path opacity=".4" fill="currentColor" d="M128 64L512 64L512 576L368 576L368 432L272 432L272 576L128 576L128 64zM224 160L224 224L288 224L288 160L224 160zM224 288L224 352L288 352L288 288L224 288zM352 160L352 224L416 224L416 160L352 160zM352 288L352 352L416 352L416 288L352 288z"/><path fill="currentColor" d="M224 160L288 160L288 224L224 224L224 160zM272 432L368 432L368 576L272 576L272 432zM416 160L416 224L352 224L352 160L416 160zM224 288L288 288L288 352L224 352L224 288zM416 288L416 352L352 352L352 288L416 288z"/></svg>