<svg xmlns="http://www.w3.org/2000/svg" viewBox="0 0 640 640"><!--! Font Awesome Pro 7.2.0 by @fontawesome - https://fontawesome.com License - https://fontawesome.com/license (Commercial License) Copyright 2026 Fonticons, Inc. --><path opacity=".4" fill="currentColor" d="M64.8 286.2L128.8 526.2L133.6 544L240 544L240 376.2C244.9 361.9 251.2 348.5 259 336C258 336 257 336 256 336C194.6 336 136.5 307 107.6 266.1L64.8 286.2zM112 80L112 224L160 224L160 96L112 80zM192 32L192 273.9C206.3 280.5 222.6 285.3 240 287.2L240 48L192 32zM272 96L272 286.8C286.9 284.8 303.5 280.1 319.5 272.6L320 272.4L320 79.9L272 95.9zM352 80L352 224L400 224L400 96L352 80z"/><path fill="currentColor" d="M288 543.8L288 607.8L608 607.8L608 543.8L288 543.8zM608 431.8L608 384C608 384 576 287.9 448 287.8C320 288 288 384 288 384L288 431.8L608 431.8zM608 463.8L288 463.8L288 511.8L608 511.8L608 463.8zM448 320C456.8 320 464 327.2 464 336C464 344.8 456.8 352 448 352C439.2 352 432 344.8 432 336C432 327.2 439.2 320 448 320zM352 368C352 359.2 359.2 352 368 352C376.8 352 384 359.2 384 368C384 376.8 376.8 384 368 384C359.2 384 352 376.8 352 368zM528 352C536.8 352 544 359.2 544 368C544 376.8 536.8 384 528 384C519.2 384 512 376.8 512 368C512 359.2 519.2 352 528 352z"/></svg>