<svg xmlns="http://www.w3.org/2000/svg" viewBox="0 0 640 640"><!--! Font Awesome Pro 7.2.0 by @fontawesome - https://fontawesome.com License - https://fontawesome.com/license (Commercial License) Copyright 2026 Fonticons, Inc. --><path opacity=".4" fill="currentColor" d="M96 224L96 544L544 544L544 224L96 224zM256 288C256 305.7 241.7 320 224 320C206.3 320 192 305.7 192 288C192 270.3 206.3 256 224 256C241.7 256 256 270.3 256 288zM192 432L320 320L448 432L448 480L192 480L192 432z"/><path fill="currentColor" d="M256 64L192 64L192 128L96 128L96 224L544 224L544 128L448 128L448 64L384 64L384 128L256 128L256 64zM256 288C256 270.3 241.7 256 224 256C206.3 256 192 270.3 192 288C192 305.7 206.3 320 224 320C241.7 320 256 305.7 256 288zM448 480L448 432L320 320L192 432L192 480L448 480z"/></svg>