<svg xmlns="http://www.w3.org/2000/svg" viewBox="0 0 640 640"><!--! Font Awesome Pro 7.2.0 by @fontawesome - https://fontawesome.com License - https://fontawesome.com/license (Commercial License) Copyright 2026 Fonticons, Inc. --><path opacity=".4" fill="currentColor" d="M96 224L544 224L544 544L96 544L96 224zM198.3 352.4L259.2 411.7L244.8 495.5L320 455.9L395.2 495.5L380.8 411.7L441.7 352.4L357.6 340.2L320 264L282.4 340.2L198.3 352.4z"/><path fill="currentColor" d="M256 64L192 64L192 128L96 128L96 224L544 224L544 128L448 128L448 64L384 64L384 128L256 128L256 64zM357.6 340.2L320 264L282.4 340.2L198.3 352.4L259.2 411.7L244.8 495.5L320 455.9L395.2 495.5L380.8 411.7L441.7 352.4L357.6 340.2z"/></svg>