<svg xmlns="http://www.w3.org/2000/svg" viewBox="0 0 640 640"><!--! Font Awesome Pro 7.2.0 by @fontawesome - https://fontawesome.com License - https://fontawesome.com/license (Commercial License) Copyright 2026 Fonticons, Inc. --><path opacity=".4" fill="currentColor" d="M96 224L544 224L544 544L96 544L96 224zM192 304L192 352L448 352L448 304L192 304zM192 400L192 448L352 448L352 400L192 400z"/><path fill="currentColor" d="M192 64L256 64L256 128L384 128L384 64L448 64L448 128L544 128L544 224L96 224L96 128L192 128L192 64zM192 304L448 304L448 352L192 352L192 304zM352 400L352 448L192 448L192 400L352 400z"/></svg>