<svg xmlns="http://www.w3.org/2000/svg" viewBox="0 0 640 640"><!--! Font Awesome Pro 7.2.0 by @fontawesome - https://fontawesome.com License - https://fontawesome.com/license (Commercial License) Copyright 2026 Fonticons, Inc. --><path opacity=".4" fill="currentColor" d="M96 224L544 224L544 544L96 544L96 224zM214.1 376L248 409.9C257 400.9 273 384.9 296 361.9L296 488L344 488L344 361.9C367 384.9 383 400.9 392 409.9L425.9 376C423.8 373.9 394.1 344.2 336.9 287L319.9 270C317.8 272.1 288.1 301.8 230.9 359L213.9 376z"/><path fill="currentColor" d="M256 64L192 64L192 128L96 128L96 224L544 224L544 128L448 128L448 64L384 64L384 128L256 128L256 64zM337 287L320 270C317.9 272.1 288.2 301.8 231 359L214 376L247.9 409.9C256.9 400.9 272.9 384.9 295.9 361.9L295.9 488L343.9 488L343.9 361.9C366.9 384.9 382.9 400.9 391.9 409.9L425.9 376C423.8 373.9 394.1 344.2 336.9 287z"/></svg>