<svg xmlns="http://www.w3.org/2000/svg" viewBox="0 0 640 640"><!--! Font Awesome Pro 7.2.0 by @fontawesome - https://fontawesome.com License - https://fontawesome.com/license (Commercial License) Copyright 2026 Fonticons, Inc. --><path opacity=".4" fill="currentColor" d="M64 128L256 128L320 96L576 96L576 256L427.3 256C401 226.5 362.6 208 320 208C277.4 208 239 226.5 212.7 256L64 256L64 128z"/><path fill="currentColor" d="M224 96L128 96L128 128L224 128L224 96zM64 256L64 544L576 544L576 256L427.3 256C401 226.5 362.6 208 320 208C277.4 208 239 226.5 212.7 256L64 256zM320 448C267 448 224 405 224 352C224 299 267 256 320 256C373 256 416 299 416 352C416 405 373 448 320 448z"/></svg>