<svg xmlns="http://www.w3.org/2000/svg" viewBox="0 0 640 640"><!--! Font Awesome Pro 7.2.0 by @fontawesome - https://fontawesome.com License - https://fontawesome.com/license (Commercial License) Copyright 2026 Fonticons, Inc. --><path opacity=".4" fill="currentColor" d="M192 288C192 358.7 249.3 416 320 416C390.7 416 448 358.7 448 288C448 217.3 390.7 160 320 160C249.3 160 192 217.3 192 288z"/><path fill="currentColor" d="M320 160C390.7 160 448 217.3 448 288C448 358.7 390.7 416 320 416C249.3 416 192 358.7 192 288C192 217.3 249.3 160 320 160zM344 510.7C456.4 498.8 544 403.6 544 288C544 164.3 443.7 64 320 64C196.3 64 96 164.3 96 288C96 403.6 183.6 498.8 296 510.7L296 544L192 544L192 592L448 592L448 544L344 544L344 510.7z"/></svg>