<svg xmlns="http://www.w3.org/2000/svg" viewBox="0 0 640 640"><!--! Font Awesome Pro 7.2.0 by @fontawesome - https://fontawesome.com License - https://fontawesome.com/license (Commercial License) Copyright 2026 Fonticons, Inc. --><path opacity=".4" fill="currentColor" d="M46 372.3C123.3 506.2 136.7 529.3 158 566.3L227.3 526.3L195.3 470.9L444.7 326.9L476.7 382.3L546 342.3C500.7 263.8 463.3 199.1 434 148.3L403 166.2L301.4 82.6L284.3 68.5L265.1 79.6L71.1 191.6L51.9 202.7L55.5 224.6L77.1 354.4L46.1 372.3zM122.2 235.9L277.8 146.1L343.8 200.4L136.3 320.2L122.3 235.9zM196.9 377.6C203 387.5 203.2 400 197.5 410.1C191.8 420.2 181 426.4 169.3 426.3C157.7 426.2 147.1 419.8 141.5 409.6C135.4 399.7 135.2 387.2 140.9 377.1C146.6 367 157.4 360.8 169.1 360.9C180.7 361 191.3 367.4 196.9 377.6zM418.6 249.6C424.7 259.5 424.9 272 419.2 282.1C413.5 292.2 402.7 298.4 391 298.3C379.4 298.2 368.8 291.8 363.2 281.6C357.1 271.7 356.9 259.2 362.6 249.1C368.3 239 379.1 232.8 390.8 232.9C402.4 233 413 239.4 418.6 249.6z"/><path fill="currentColor" d="M608 576C608 514.1 557.9 464 496 464C434.1 464 384 514.1 384 576L608 576z"/></svg>