<svg xmlns="http://www.w3.org/2000/svg" viewBox="0 0 640 640"><!--! Font Awesome Pro 7.2.0 by @fontawesome - https://fontawesome.com License - https://fontawesome.com/license (Commercial License) Copyright 2026 Fonticons, Inc. --><path opacity=".4" fill="currentColor" d="M124.8 96L286.1 96L230.1 152L264 185.9C273 176.9 289 160.9 312 137.9L312 264L360 264L360 137.9C383 160.9 399 176.9 408 185.9L441.9 152C434.3 144.4 415.6 125.7 385.9 96L576 96L528 352L171.3 352L124.8 96z"/><path fill="currentColor" d="M353 63C410.2 120.2 439.8 149.8 442 152L408 185.9C399 176.9 383 160.9 360 137.9L360 264L312 264L312 137.9C289 160.9 273 176.9 264 185.9L230.1 152L319.1 63L336.1 46L353.1 63zM0 48L116 48L119.6 67.7L180 400L480 400L480 448L140 448L136.4 428.3L76 96L0 96L0 48zM208 480C234.5 480 256 501.5 256 528C256 554.5 234.5 576 208 576C181.5 576 160 554.5 160 528C160 501.5 181.5 480 208 480zM432 480C458.5 480 480 501.5 480 528C480 554.5 458.5 576 432 576C405.5 576 384 554.5 384 528C384 501.5 405.5 480 432 480z"/></svg>