<svg xmlns="http://www.w3.org/2000/svg" viewBox="0 0 640 640"><!--! Font Awesome Pro 7.2.0 by @fontawesome - https://fontawesome.com License - https://fontawesome.com/license (Commercial License) Copyright 2026 Fonticons, Inc. --><path opacity=".4" fill="currentColor" d="M0 48L116 48C118.1 59.7 121 75.7 124.7 96L576 96L542 277.5C527.3 273.9 511.9 272 496 272C431.8 272 374.9 303.5 340 352L171.3 352L180 400L314.9 400C309.5 415.2 306 431.3 304.6 448L140 448L136.4 428.3L76 96L0 96L0 48zM256 528C256 554.5 234.5 576 208 576C181.5 576 160 554.5 160 528C160 501.5 181.5 480 208 480C234.5 480 256 501.5 256 528z"/><path fill="currentColor" d="M352 464C352 384.5 416.5 320 496 320C575.5 320 640 384.5 640 464C640 543.5 575.5 608 496 608C416.5 608 352 543.5 352 464zM512 512L480 512L480 544L512 544L512 512zM512 384L512 368L480 368L480 480L512 480L512 384z"/></svg>