<svg xmlns="http://www.w3.org/2000/svg" viewBox="0 0 640 640"><!--! Font Awesome Pro 7.2.0 by @fontawesome - https://fontawesome.com License - https://fontawesome.com/license (Commercial License) Copyright 2026 Fonticons, Inc. --><path opacity=".4" fill="currentColor" d="M124.8 96L171.3 352L528 352L576 96L124.8 96zM256.3 178.2L290.2 144.3C299.5 153.6 314.8 168.9 336 190.1C357.2 168.9 372.5 153.6 381.8 144.3L415.7 178.2C406.4 187.5 391.1 202.8 369.9 224C391.1 245.2 406.4 260.5 415.7 269.8L381.8 303.7C372.5 294.4 357.2 279.1 336 257.9C314.8 279.1 299.5 294.4 290.2 303.7L256.3 269.8C265.6 260.5 280.9 245.2 302.1 224C280.9 202.8 265.6 187.5 256.3 178.2z"/><path fill="currentColor" d="M24 48L0 48L0 96L76 96L136.4 428.3L140 448L480 448L480 400L180 400L119.6 67.7L116 48L24 48zM256 528C256 501.5 234.5 480 208 480C181.5 480 160 501.5 160 528C160 554.5 181.5 576 208 576C234.5 576 256 554.5 256 528zM480 528C480 501.5 458.5 480 432 480C405.5 480 384 501.5 384 528C384 554.5 405.5 576 432 576C458.5 576 480 554.5 480 528zM398.8 195.1L415.8 178.1L381.9 144.2C372.6 153.5 357.3 168.8 336.1 190C314.9 168.8 299.6 153.5 290.3 144.2L256.4 178.1C265.7 187.4 281 202.7 302.2 223.9C281 245.1 265.7 260.4 256.4 269.7L290.3 303.6C299.6 294.3 314.9 279 336.1 257.8C357.3 279 372.6 294.3 381.9 303.6L415.8 269.7C406.5 260.4 391.2 245.1 370 223.9L398.9 195.1z"/></svg>