<svg xmlns="http://www.w3.org/2000/svg" viewBox="0 0 640 640"><!--! Font Awesome Pro 7.2.0 by @fontawesome - https://fontawesome.com License - https://fontawesome.com/license (Commercial License) Copyright 2026 Fonticons, Inc. --><path opacity=".4" fill="currentColor" d="M64 96L64 544L576 544L576 480L128 480L128 96L64 96z"/><path fill="currentColor" d="M232.9 325.4L170.2 312.4C173.5 296.5 176.2 280.2 180.6 264.5C183.5 254.2 188.1 240.2 195.3 225.8C208.8 198.8 237 160.1 287.9 160.1C326.1 160.1 351.5 179.6 367.9 204.5C382.3 226.4 390.9 254.1 397.8 276.5C406 302.9 412.2 322.7 421.3 336.5C428.6 347.6 435.7 352.1 447.9 352.1C461 352.1 472.8 342.7 483.3 321.8C488.1 312.2 491.4 302.3 493.6 294.5C497.6 280.2 500 265.3 503 250.8L565.7 263.8C562.4 279.7 559.7 296 555.3 311.6C552.4 321.9 547.8 335.9 540.6 350.3C527.1 377.3 498.9 416 448 416C409.8 416 384.4 396.5 368 371.6C353.1 349 344.5 320.2 337.4 297.5C329.6 272.2 323.4 253.1 314.5 239.6C307.2 228.5 300.1 224 287.9 224C274.8 224 263 233.4 252.5 254.3C247.7 263.9 244.4 273.8 242.2 281.6C238.2 296 235.8 310.8 232.8 325.4z"/></svg>