<svg xmlns="http://www.w3.org/2000/svg" viewBox="0 0 640 640"><!--! Font Awesome Pro 7.2.0 by @fontawesome - https://fontawesome.com License - https://fontawesome.com/license (Commercial License) Copyright 2026 Fonticons, Inc. --><path opacity=".4" fill="currentColor" d="M64 96L64 544L576 544L576 480L128 480L128 96L64 96z"/><path fill="currentColor" d="M408 96L544 96L544 232L498.6 186.6C419 266.2 378.2 307 376 309.2C366.7 299.9 340 273.2 296 229.2L206.6 318.6L161.3 273.3C250.9 183.7 295.7 138.9 295.9 138.7C305.2 148 331.9 174.7 375.9 218.7L453.4 141.4L408 96zM408 416L453.4 370.6L418 335.2L463.3 289.9L498.7 325.3L544.1 279.9L544.1 415.9L408.1 415.9z"/></svg>