<svg xmlns="http://www.w3.org/2000/svg" viewBox="0 0 640 640"><!--! Font Awesome Pro 7.2.0 by @fontawesome - https://fontawesome.com License - https://fontawesome.com/license (Commercial License) Copyright 2026 Fonticons, Inc. --><path opacity=".4" fill="currentColor" d="M64 96L64 544L576 544L576 480L128 480L128 96L64 96z"/><path fill="currentColor" d="M324.6 122.6C342.7 153.6 368.6 198.1 402.4 256L483.8 256L492.6 273.7C530.2 348.9 551 390.5 554.9 398.3L497.7 426.9C492.3 416.1 474.5 380.4 444.2 320L365.6 320C362 313.9 350.6 294.3 331.4 261.4L269.1 397.4L260.5 416.1L176 416.1L176 352.1L219.5 352.1C281.4 217 316.5 140.5 324.6 122.7z"/></svg>