<svg xmlns="http://www.w3.org/2000/svg" viewBox="0 0 640 640"><!--! Font Awesome Pro 7.2.0 by @fontawesome - https://fontawesome.com License - https://fontawesome.com/license (Commercial License) Copyright 2026 Fonticons, Inc. --><path opacity=".4" fill="currentColor" d="M115 224C123.2 232.2 152.1 261.1 201.6 310.6L228.1 337.1L250.1 306.8L378.1 130.8L396.9 104.9L345.1 67.3L326.3 93.2L220.3 238.9C192.8 211.4 172.8 191.4 160.2 178.8L115 224z"/><path fill="currentColor" d="M525 240.9L506.2 266.8L314.2 530.8L292.2 561.1C286 555 245.2 514.2 169.6 438.6L147 416L192.3 370.7C199.6 378 230.3 408.7 284.4 462.8L454.4 229.1L473.2 203.2L525 240.8z"/></svg>