<svg xmlns="http://www.w3.org/2000/svg" viewBox="0 0 640 640"><!--! Font Awesome Pro 7.2.0 by @fontawesome - https://fontawesome.com License - https://fontawesome.com/license (Commercial License) Copyright 2026 Fonticons, Inc. --><path opacity=".4" fill="currentColor" d="M64 320C64 461.4 178.6 576 320 576C461.4 576 576 461.4 576 320C576 178.6 461.4 64 320 64C178.6 64 64 178.6 64 320zM214.1 320L231.1 303C265.8 268.3 300.4 233.7 335.1 199C340.8 193.3 346.4 187.7 352.1 182C363.4 193.3 374.7 204.6 386 215.9C380.3 221.6 374.7 227.2 369 232.9C340 261.9 311 290.9 282 319.9C311 348.9 340 377.9 369 406.9L386 423.9L352.1 457.8L335.1 440.8C300.4 406.1 265.8 371.5 231.1 336.8C225.4 331.1 219.8 325.5 214.1 319.8z"/><path fill="currentColor" d="M214.1 320L231.1 303L335.1 199L352.1 182L386 215.9L369 232.9L282 319.9L369 406.9L386 423.9L352.1 457.8L335.1 440.8L231.1 336.8L214.1 319.8z"/></svg>