<svg xmlns="http://www.w3.org/2000/svg" viewBox="0 0 640 640"><!--! Font Awesome Pro 7.2.0 by @fontawesome - https://fontawesome.com License - https://fontawesome.com/license (Commercial License) Copyright 2026 Fonticons, Inc. --><path opacity=".4" fill="currentColor" d="M576 320C576 461.4 461.4 576 320 576C178.6 576 64 461.4 64 320C64 178.6 178.6 64 320 64C461.4 64 576 178.6 576 320zM254.1 216C259.8 221.7 265.4 227.3 271.1 233C300.1 262 329.1 291 358.1 320L271.1 407C265.4 412.7 259.8 418.3 254.1 424C265.4 435.3 276.7 446.6 288 457.9C293.7 452.2 299.3 446.6 305 440.9C339.7 406.2 374.3 371.6 409 336.9C414.7 331.2 420.3 325.6 426 319.9C420.3 314.2 414.7 308.6 409 302.9C374.3 268.2 339.7 233.6 305 198.9L288 181.9C276.7 193.2 265.4 204.5 254.1 215.8z"/><path fill="currentColor" d="M425.9 320L408.9 337L304.9 441L287.9 458L254 424.1L271 407.1L358 320.1L271 233.1L254 216.1L287.9 182.2L304.9 199.2L408.9 303.2L425.9 320.2z"/></svg>