<svg xmlns="http://www.w3.org/2000/svg" viewBox="0 0 640 640"><!--! Font Awesome Pro 7.2.0 by @fontawesome - https://fontawesome.com License - https://fontawesome.com/license (Commercial License) Copyright 2026 Fonticons, Inc. --><path opacity=".4" fill="currentColor" d="M256 128C256 163.3 284.7 192 320 192C355.3 192 384 163.3 384 128C384 92.7 355.3 64 320 64C284.7 64 256 92.7 256 128z"/><path fill="currentColor" d="M276.9 224L260.9 224L251.3 236.8C194.4 312.5 164 353 160 358.4L211.2 396.8C225.6 377.6 235.2 364.8 240 358.4L240 576L304 576L304 448L336 448L336 576L400 576L400 358.4C404.8 364.8 414.4 377.6 428.8 396.8L480 358.4C476 353.1 445.6 312.5 388.7 236.8L379.1 224L277 224z"/></svg>