<svg xmlns="http://www.w3.org/2000/svg" viewBox="0 0 640 640"><!--! Font Awesome Pro 7.2.0 by @fontawesome - https://fontawesome.com License - https://fontawesome.com/license (Commercial License) Copyright 2026 Fonticons, Inc. --><path opacity=".4" fill="currentColor" d="M64 384L64 576C160 576 224 576 256 576L256 400L384 400L384 576L576 576L576 384L464 328L464 256L344 176L296 176L176 256L176 328L64 384z"/><path fill="currentColor" d="M344 32L344 80L400 80L400 128L344 128L344 176L296 176L296 128L240 128L240 80L296 80L296 32L344 32zM384 400L384 576L256 576L256 400L384 400z"/></svg>