<svg xmlns="http://www.w3.org/2000/svg" viewBox="0 0 640 640"><!--! Font Awesome Pro 7.2.0 by @fontawesome - https://fontawesome.com License - https://fontawesome.com/license (Commercial License) Copyright 2026 Fonticons, Inc. --><path opacity=".4" fill="currentColor" d="M64.3 320C64.3 461.4 178.9 576 320.3 576C369.4 576 415.2 562.1 454.2 538.2L450.9 534.9C427.1 510.2 397.5 479.7 362.2 443.2L465.7 343.1L494.8 373.1C534.2 319.1 559.6 284.2 571.1 268.3C547.2 151.7 444 64 320.3 64C178.9 64 64.3 178.6 64.3 320zM288.3 192L352.3 192L339.5 352L301.1 352L288.3 192zM292.3 388L348.3 388L348.3 444L292.3 444L292.3 388z"/><path fill="currentColor" d="M638.6 338.7L624.5 358.1L522.1 498.9L505.3 522C495.2 511.5 475.7 491.4 446.8 461.5L430.1 444.2L464.6 410.9C475.4 422 487.2 434.3 500 447.5L585.6 329.8L599.7 310.4L638.5 338.7zM348.3 444L292.3 444L292.3 388L348.3 388L348.3 444zM339.5 352L301.1 352L288.3 192L352.3 192L339.5 352z"/></svg>