<svg xmlns="http://www.w3.org/2000/svg" viewBox="0 0 640 640"><!--! Font Awesome Pro 7.2.0 by @fontawesome - https://fontawesome.com License - https://fontawesome.com/license (Commercial License) Copyright 2026 Fonticons, Inc. --><path opacity=".4" fill="currentColor" d="M64 320C64 461.4 178.6 576 320 576C461.4 576 576 461.4 576 320C576 178.6 461.4 64 320 64C178.6 64 64 178.6 64 320zM208 248L232 248L232 184L320 184C363.3 184 400.4 210.4 416 248L448 248L448 280L423.7 280C424.1 285.3 424.1 290.7 423.7 296L448 296L448 328L416 328C400.3 365.6 363.2 392 320 392L280 392L280 456L232 456L232 328L208 328L208 296L232 296L232 280L208 280L208 248zM280 232L280 248L359.2 248C349.1 238.1 335.3 232 320 232L280 232zM280 280L280 296L375.4 296C375.8 293.4 376 290.7 376 288C376 285.3 375.8 282.6 375.4 280L280 280zM280 328L280 344L320 344C335.3 344 349.1 337.9 359.2 328L280 328z"/><path fill="currentColor" d="M256 184L232 184L232 248L208 248L208 280L232 280L232 296L208 296L208 328L232 328L232 456L280 456L280 392L320 392C363.3 392 400.4 365.6 416 328L448 328L448 296L423.7 296C424.1 290.7 424.1 285.3 423.7 280L448 280L448 248L416 248C400.3 210.4 363.2 184 320 184L256 184zM359.2 248L280 248L280 232L320 232C335.3 232 349.1 238.1 359.2 248zM280 280L375.4 280C375.8 282.6 376 285.3 376 288C376 290.7 375.8 293.4 375.4 296L280 296L280 280zM359.2 328C349.1 337.9 335.3 344 320 344L280 344L280 328L359.2 328z"/></svg>