<svg xmlns="http://www.w3.org/2000/svg" viewBox="0 0 640 640"><!--! Font Awesome Pro 7.2.0 by @fontawesome - https://fontawesome.com License - https://fontawesome.com/license (Commercial License) Copyright 2026 Fonticons, Inc. --><path opacity=".4" fill="currentColor" d="M64 320C64 461.4 178.6 576 320 576C461.4 576 576 461.4 576 320C576 178.6 461.4 64 320 64C178.6 64 64 178.6 64 320zM240 208L396 208L396 245.7L393.5 250.8L302.9 432.1L249.2 432.1L258.6 413.4L337.2 256.1L240 256.1L240 208.1z"/><path fill="currentColor" d="M264 208L240 208L240 256L337.2 256L258.6 413.3L249.2 432L302.9 432L393.5 250.7L396 245.6L396 207.9L264 207.9z"/></svg>