<svg xmlns="http://www.w3.org/2000/svg" viewBox="0 0 640 640"><!--! Font Awesome Pro 7.2.0 by @fontawesome - https://fontawesome.com License - https://fontawesome.com/license (Commercial License) Copyright 2026 Fonticons, Inc. --><path opacity=".4" fill="currentColor" d="M64 320C64 461.4 178.6 576 320 576C461.4 576 576 461.4 576 320C576 178.6 461.4 64 320 64C178.6 64 64 178.6 64 320zM208.2 304.2L240 304.2L240 192L288 192L288 270.9C352.3 218.8 385.5 191.9 387.5 190.2L417.7 227.5C414.8 229.8 383.3 255.4 323.1 304.2L415.8 304.2L415.8 336.2L323.3 336.2C383.3 384.6 414.8 410 417.7 412.4L387.6 449.8C385.5 448.1 352.3 421.3 288 369.4L288 448L240 448L240 336.2L208.2 336.2L208.2 304.2z"/><path fill="currentColor" d="M399.1 242.6L417.7 227.5L387.5 190.2C385.4 191.9 352.3 218.8 288 270.9L288 192L240 192L240 304.2L208.2 304.2L208.2 336.2L240 336.2L240 448L288 448L288 369.4C352.3 421.3 385.5 448.1 387.6 449.8L417.7 412.4C414.8 410 383.3 384.6 323.3 336.2L415.8 336.2L415.8 304.2L323.1 304.2L399.1 242.6z"/></svg>