<svg xmlns="http://www.w3.org/2000/svg" viewBox="0 0 640 640"><!--! Font Awesome Pro 7.2.0 by @fontawesome - https://fontawesome.com License - https://fontawesome.com/license (Commercial License) Copyright 2026 Fonticons, Inc. --><path opacity=".4" fill="currentColor" d="M64 320C64 461.4 178.6 576 320 576C461.4 576 576 461.4 576 320C576 178.6 461.4 64 320 64C178.6 64 64 178.6 64 320zM224 256L272 256L272 334.1L375 231.1L392 214.1L425.9 248L408.9 265L305.9 368L384 368L384 416L224 416L224 256z"/><path fill="currentColor" d="M384 368L305.9 368L408.9 265L425.9 248L392 214.1L375 231.1L272 334.1L272 256L224 256L224 416L384 416L384 368z"/></svg>