<svg xmlns="http://www.w3.org/2000/svg" viewBox="0 0 640 640"><!--! Font Awesome Pro 7.2.0 by @fontawesome - https://fontawesome.com License - https://fontawesome.com/license (Commercial License) Copyright 2026 Fonticons, Inc. --><path opacity=".4" fill="currentColor" d="M64 320C64 461.4 178.6 576 320 576C461.4 576 576 461.4 576 320C576 178.6 461.4 64 320 64C178.6 64 64 178.6 64 320zM206.1 344L240 310.1C247.6 317.7 266.3 336.4 296 366.1L296 192L344 192L344 366.1C373.7 336.4 392.4 317.7 400 310.1L433.9 344L336.9 441L319.9 458L302.9 441C239.1 377.2 206.7 344.8 205.9 344z"/><path fill="currentColor" d="M320 457.9L303 440.9C239.2 377.1 206.8 344.7 206 343.9L240 310.1C247.6 317.7 266.3 336.4 296 366.1L296 192L344 192L344 366.1C373.7 336.4 392.4 317.7 400 310.1L433.9 344L336.9 441L319.9 458z"/></svg>