<svg xmlns="http://www.w3.org/2000/svg" viewBox="0 0 640 640"><!--! Font Awesome Pro 7.2.0 by @fontawesome - https://fontawesome.com License - https://fontawesome.com/license (Commercial License) Copyright 2026 Fonticons, Inc. --><path opacity=".4" fill="currentColor" d="M64 320C64 461.4 178.6 576 320 576C461.4 576 576 461.4 576 320C576 178.6 461.4 64 320 64C178.6 64 64 178.6 64 320zM142.5 286.5C186.4 238.3 249.7 208 320 208C390.3 208 453.6 238.3 497.5 286.5L463.5 320.5C428.4 280.9 377.1 256 320 256C262.9 256 211.6 280.9 176.5 320.5L142.5 286.5zM212.6 356.6C237.5 324.6 276.3 304 320 304C363.7 304 402.5 324.6 427.4 356.6L393 391C377.3 367.5 350.4 352 320 352C289.6 352 262.7 367.5 246.9 390.9L212.5 356.5zM288.2 428.7C288.3 427.6 288.5 426.6 288.7 425.5C289.1 423.4 289.8 421.4 290.6 419.5C292.2 415.7 294.6 412.2 297.5 409.3C303.3 403.5 311.3 399.9 320.1 399.9C337.8 399.9 352.1 414.2 352.1 431.9C352.1 449.6 337.8 463.9 320.1 463.9C311.3 463.9 303.3 460.3 297.5 454.5C294.6 451.6 292.3 448.2 290.6 444.3C289.8 442.4 289.2 440.4 288.7 438.3C288.5 437.3 288.3 436.2 288.2 435.1C288.1 434.6 288.1 434 288.1 433.5C288.1 433 288.1 432.5 288.1 432.3C288.1 431.7 288.1 432.1 288.1 431.5C288.1 431.2 288.1 430.7 288.1 430.2C288.1 429.7 288.2 429.1 288.2 428.6z"/><path fill="currentColor" d="M497.5 286.5L463.5 320.5C428.4 280.9 377.1 256 320 256C262.9 256 211.6 280.9 176.5 320.5L142.5 286.5C186.4 238.3 249.7 208 320 208C390.3 208 453.6 238.3 497.5 286.5zM320 304C363.7 304 402.5 324.6 427.4 356.6L393 391C377.3 367.4 350.4 352 320 352C289.6 352 262.7 367.4 246.9 390.9L212.5 356.5C237.4 324.5 276.2 303.9 319.9 303.9zM320 400C337.7 400 352 414.3 352 432C352 449.7 337.7 464 320 464C302.3 464 288 449.7 288 432C288 414.3 302.3 400 320 400z"/></svg>