<svg xmlns="http://www.w3.org/2000/svg" viewBox="0 0 640 640"><!--! Font Awesome Pro 7.2.0 by @fontawesome - https://fontawesome.com License - https://fontawesome.com/license (Commercial License) Copyright 2026 Fonticons, Inc. --><path opacity=".4" fill="currentColor" d="M98.9 448.6C101 450.7 103.2 452.9 105.3 455C143.5 493.2 190.9 516.3 240.3 524.8L240.3 318C237.5 317.3 234.8 316.4 232.2 315.3C187.8 359.7 143.3 404.2 98.9 448.6zM272.3 318L272.3 527.7C305.7 528.8 339.2 523.3 370.8 511C377.3 508.5 383.6 505.6 389.9 502.6L390.3 502.4C393 501.1 395.9 499.6 398.9 497.9C402.1 496.2 405.2 494.4 408.2 492.5C408.6 492.3 409 492 409.4 491.8C412.4 490 415.3 488.1 418.2 486.2C424.2 482.2 429.9 478 435.5 473.5C438.2 471.3 440.9 469.1 443.5 466.8C443.6 466.7 443.8 466.6 443.9 466.4L436.9 459.4L288.7 311.2C283.6 314.2 278.1 316.5 272.2 318zM311.4 288.5L459.6 436.7L466.6 443.7L466.9 443.3C471.5 438 475.9 432.6 480.1 426.9L480.4 426.5C484.5 420.9 488.4 415.1 492.1 409.1C492.3 408.7 492.6 408.4 492.8 408C496.4 402 499.7 395.9 502.8 389.7C520.9 352.8 529.3 312.3 528.1 272.1L318.2 272.1C316.7 278 314.4 283.5 311.4 288.6zM315.6 231.9C316.7 234.5 317.6 237.2 318.3 240L524.8 240C516.7 190.6 493.5 143.1 455.3 105C453.2 102.9 451 100.7 449.1 98.4C404.4 143.1 360 187.5 315.6 231.9z"/><path fill="currentColor" d="M98.9 448.6L105.3 455L105.3 455C202.2 551.9 358.9 552.1 455.7 455.3C552.5 358.5 552.3 201.8 455.4 104.9L449 98.6L482.9 64.6L489.3 71C604.9 186.6 605.3 373.6 489.6 489.3C373.9 605 186.9 604.5 71.4 489L71.4 489L65 482.6L98.9 448.7z"/></svg>