<svg xmlns="http://www.w3.org/2000/svg" viewBox="0 0 640 640"><!--! Font Awesome Pro 7.2.0 by @fontawesome - https://fontawesome.com License - https://fontawesome.com/license (Commercial License) Copyright 2026 Fonticons, Inc. --><path opacity=".4" fill="currentColor" d="M32 160L288 160L288 64L480 64L480 256L608 256L608 576L32 576L32 160zM96 256L96 320L160 320L160 256L96 256zM96 352L96 416L160 416L160 352L96 352zM224 256L224 320L288 320L288 256L224 256zM224 352L224 416L288 416L288 352L224 352zM352 160L352 224L416 224L416 160L352 160zM352 256L352 320L416 320L416 256L352 256zM352 352L352 416L416 416L416 352L352 352zM480 352L480 416L544 416L544 352L480 352z"/><path fill="currentColor" d="M128 64L128 160L80 160L80 64L128 64zM192 160L192 64L240 64L240 160L192 160zM416 160L416 224L352 224L352 160L416 160zM416 256L416 320L352 320L352 256L416 256zM352 352L416 352L416 416L352 416L352 352zM544 352L544 416L480 416L480 352L544 352zM224 352L288 352L288 416L224 416L224 352zM288 256L288 320L224 320L224 256L288 256zM96 416L96 352L160 352L160 416L96 416zM160 320L96 320L96 256L160 256L160 320z"/></svg>