<svg xmlns="http://www.w3.org/2000/svg" viewBox="0 0 640 640"><!--! Font Awesome Pro 7.2.0 by @fontawesome - https://fontawesome.com License - https://fontawesome.com/license (Commercial License) Copyright 2026 Fonticons, Inc. --><path opacity=".4" fill="currentColor" d="M96 288C96 411.7 196.3 512 320 512C443.7 512 544 411.7 544 288C544 164.3 443.7 64 320 64C196.3 64 96 164.3 96 288zM296 160L344 160L344 278.1C375.3 309.4 394.6 328.7 401.9 336L368 369.9C361.9 363.8 340.2 342.1 303 304.9L296 297.9L296 160z"/><path fill="currentColor" d="M344 184L344 160L296 160L296 297.9L303 304.9C340.2 342.1 361.8 363.7 368 369.9L401.9 336C394.6 328.7 375.3 309.4 344 278.1L344 184zM544 288C544 411.7 443.7 512 320 512C196.3 512 96 411.7 96 288L96 576L544 576L544 288z"/></svg>