<svg xmlns="http://www.w3.org/2000/svg" viewBox="0 0 640 640"><!--! Font Awesome Pro 7.2.0 by @fontawesome - https://fontawesome.com License - https://fontawesome.com/license (Commercial License) Copyright 2026 Fonticons, Inc. --><path opacity=".4" fill="currentColor" d="M4 256L23.7 269.2L94.1 316.6L77.8 399.9L73.3 423.1L96.6 418.6L176.5 402.9L176.5 368C176.5 355.4 178.3 343.3 181.7 331.8C168.9 321.9 158.4 308.7 151.8 292.7C131.5 243.7 154.8 187.6 203.8 167.3C238.8 152.8 277.5 160.6 304.1 184.2C316.5 179 330.2 176 344.5 176C350.5 176 356.4 176.5 362.2 177.5C371.8 168.8 382.6 161.4 394.5 155.9C400.9 123.2 405.3 100.9 407.6 88.8L384.3 93.4L301 109.7C263.8 54.3 243.6 24.3 240.4 19.6L227.1 39.3L179.7 109.7L96.4 93.4L73.1 88.9L77.6 112.2L93.9 195.4C38.7 232.6 8.7 252.8 4 256zM196.1 274.4C198.2 279.5 201.1 284 204.6 287.9C215.2 274.7 228.4 263.7 243.4 255.6C247.1 240.2 254.3 226.2 264 214.3C251.6 207.3 236.3 205.9 222.1 211.7C197.6 221.9 186 249.9 196.1 274.4zM223.1 608L273.7 608L311 496L260.4 496L223.1 608zM343.1 608L393.7 608L431 496L380.4 496L343.1 608zM463.1 608L513.7 608L551 496L500.4 496L463.1 608z"/><path fill="currentColor" d="M576.4 448L576.4 368C576.4 334.1 555.3 305.1 525.5 293.5C527.4 286.7 528.4 279.5 528.4 272C528.4 227.8 492.6 192 448.4 192C417.6 192 390.9 209.4 377.5 234.8C368.2 228 356.8 224 344.4 224C310.1 224 283.5 256 289.2 289.4C252.3 296.5 224.4 329 224.4 368L224.4 448L576.4 448z"/></svg>