<svg xmlns="http://www.w3.org/2000/svg" viewBox="0 0 640 640"><!--! Font Awesome Pro 7.2.0 by @fontawesome - https://fontawesome.com License - https://fontawesome.com/license (Commercial License) Copyright 2026 Fonticons, Inc. --><path opacity=".4" fill="currentColor" d="M320.9 211C321.3 211.7 321.7 212.5 322.1 213.2C354.2 223.3 380 247.4 392.4 278.4C438.6 293.6 473.2 334.4 479.4 384C479.7 384 480.1 384 480.4 384C533 384 579.6 358.6 608.8 319.5C598.2 322.4 587 324 575.4 324C506.4 324 450.4 268 450.4 199C450.4 140.4 490.8 91.2 545.2 77.7C525.4 68.9 503.5 64 480.4 64C396.4 64 327.6 128.7 320.9 211z"/><path fill="currentColor" d="M147.3 383.5L146.4 384L32.4 384L32.4 312C32.4 272.2 64.6 240 104.4 240C114.5 240 124.1 242.1 132.8 245.8C143.6 214.5 173.4 192 208.4 192C247.1 192 279.4 219.5 286.8 256C287.3 256 287.9 256 288.4 256C305.5 256 321 262.7 332.4 273.5C307 277.5 284.1 288.9 266 305.5C260.2 304.5 254.3 304 248.3 304C199.3 304 158.2 337.9 147.2 383.5zM480.4 496L480.4 576L128.4 576L128.4 496C128.4 457 156.3 424.5 193.2 417.4C187.5 383.9 214.2 352 248.4 352C260.8 352 272.3 356 281.5 362.8C294.9 337.3 321.6 320 352.4 320C396.6 320 432.4 355.8 432.4 400C432.4 407.4 431.4 414.6 429.5 421.5C459.3 433.1 480.4 462.1 480.4 496z"/></svg>