<svg xmlns="http://www.w3.org/2000/svg" viewBox="0 0 640 640"><!--! Font Awesome Pro 7.2.0 by @fontawesome - https://fontawesome.com License - https://fontawesome.com/license (Commercial License) Copyright 2026 Fonticons, Inc. --><path opacity=".4" fill="currentColor" d="M232.6 209.8C259.9 213.9 284.8 225 305.7 241C310.8 209.1 331.7 180.5 363.7 167.2C412.7 146.9 468.8 170.2 489.1 219.1C501.6 249.2 497.5 282 481.2 307.6C487.1 318.6 491.6 330.6 494 343.3C520.8 352.2 544 368.9 561.2 390.6L546.7 316.5L617.1 269.2L636.8 256L617.1 242.8L546.7 195.4L563 112.1L567.5 88.9L544.2 93.4L460.9 109.7L413.6 39.3L400.3 19.6L387.1 39.3L339.7 109.7L256.4 93.4L233.2 88.9L237.7 112.2L254 195.4L232.5 209.9zM355 240.6C359.4 240.1 363.9 239.9 368.5 239.9C398.2 239.9 425.4 250.1 447.1 267C449.4 257.5 448.8 247.2 444.8 237.5C434.7 213 406.6 201.4 382.1 211.5C368.8 217 359.3 227.8 355 240.5z"/><path fill="currentColor" d="M32.4 576L544.4 576L544.4 480C544.4 427 501.4 384 448.4 384L448.4 368C448.4 323.8 412.6 288 368.4 288C344.1 288 322.3 298.9 307.6 316C288.9 280.3 251.5 256 208.4 256C146.5 256 96.4 306.1 96.4 368L96.4 389.5C59.1 402.7 32.4 438.2 32.4 480L32.4 576z"/></svg>