<svg xmlns="http://www.w3.org/2000/svg" viewBox="0 0 640 640"><!--! Font Awesome Pro 7.2.0 by @fontawesome - https://fontawesome.com License - https://fontawesome.com/license (Commercial License) Copyright 2026 Fonticons, Inc. --><path opacity=".4" fill="currentColor" d="M32 400L32 544L608 544L608 416C608 368.6 582.3 327.3 544 305.1L544 256C544 203 501 160 448 160C430.3 160 413.8 164.8 399.6 173.1C375.5 127.3 327.4 96 272 96C192.5 96 128 160.5 128 240L128 264.2C72.1 284 32 337.3 32 400zM214.1 372.2L248.6 338.9C258.1 348.7 272.5 363.6 291.8 383.6L377.4 265.9L391.5 246.5L430.3 274.7L416.2 294.1L313.8 434.9L297 458C288.2 448.9 266.1 426 230.8 389.4L214.1 372.1z"/><path fill="currentColor" d="M430.3 274.7L416.2 294.1L313.8 434.9L297 458C288.2 448.9 266.1 426 230.8 389.4L214.1 372.1L248.6 338.8C258.1 348.6 272.5 363.5 291.8 383.5L377.4 265.8L391.5 246.4L430.3 274.6z"/></svg>