<svg xmlns="http://www.w3.org/2000/svg" viewBox="0 0 640 640"><!--! Font Awesome Pro 7.2.0 by @fontawesome - https://fontawesome.com License - https://fontawesome.com/license (Commercial License) Copyright 2026 Fonticons, Inc. --><path opacity=".4" fill="currentColor" d="M64 304C64 360.5 84.8 412.5 119.7 453.5L64 576L212.7 521.9C245.3 536.1 281.7 544 320 544C461.4 544 576 436.5 576 304C576 171.5 461.4 64 320 64C178.6 64 64 171.5 64 304zM224 360C224 329.1 252.7 304 288 304C293.5 304 298.9 304.6 304 305.8L304 192L400 192L400 256L352 256L352 360C352 390.9 323.3 416 288 416C252.7 416 224 390.9 224 360z"/><path fill="currentColor" d="M304 192L400 192L400 256L352 256L352 360C352 390.9 323.3 416 288 416C252.7 416 224 390.9 224 360C224 329.1 252.7 304 288 304C293.5 304 298.9 304.6 304 305.8L304 192z"/></svg>