<svg xmlns="http://www.w3.org/2000/svg" viewBox="0 0 640 640"><!--! Font Awesome Pro 7.2.0 by @fontawesome - https://fontawesome.com License - https://fontawesome.com/license (Commercial License) Copyright 2026 Fonticons, Inc. --><path opacity=".4" fill="currentColor" d="M64 304C64 360.5 84.8 412.5 119.7 453.5L64 576L212.7 521.9C245.3 536.1 281.7 544 320 544C461.4 544 576 436.5 576 304C576 171.5 461.4 64 320 64C178.6 64 64 171.5 64 304zM208 282.7C208 250.3 234.3 224 266.7 224C285.2 224 302.6 232.7 313.6 247.5L320 256L326.4 247.5C337.5 232.7 354.9 224 373.3 224C405.7 224 432 250.3 432 282.7L432 288C432 352 320 416 320 416C320 416 208 352 208 288L208 282.7z"/><path fill="currentColor" d="M266.7 224C285.2 224 302.6 232.7 313.6 247.5L320 256L326.4 247.5C337.5 232.7 354.9 224 373.3 224C405.7 224 432 250.3 432 282.7L432 288C432 352 320 416 320 416C320 416 208 352 208 288L208 282.7C208 250.3 234.3 224 266.7 224z"/></svg>