<svg xmlns="http://www.w3.org/2000/svg" viewBox="0 0 640 640"><!--! Font Awesome Pro 7.2.0 by @fontawesome - https://fontawesome.com License - https://fontawesome.com/license (Commercial License) Copyright 2026 Fonticons, Inc. --><path opacity=".4" fill="currentColor" d="M70.6 304L126 272C135.8 289 147.9 304.6 161.7 318.4C150.5 337.2 139.3 355.9 128.1 374.7C105.4 354.4 86 330.6 70.6 304.1zM219.3 429.9L252 373.5C273.5 380.3 296.3 384 320 384C343.7 384 366.6 380.3 388 373.5C422.5 362.5 453.3 343.4 478.3 318.4C492.1 304.6 504.1 289 514 272L569.4 304C554.1 330.5 534.6 354.3 511.9 374.6C485.4 398.3 454.5 417.2 420.6 429.8C389.3 441.5 355.3 447.9 319.9 447.9C284.5 447.9 250.5 441.5 219.2 429.8z"/><path fill="currentColor" d="M407.4 199.7C412.9 187.6 416 174.2 416 160C416 107 373 64 320 64C267 64 224 107 224 160C224 174.1 227.1 187.6 232.5 199.7L64 481.8L64 576L155.4 540.2L320 256L388 373.5C422.5 362.5 453.3 343.4 478.3 318.4L407.4 199.7zM512 374.7C485.5 398.4 454.6 417.3 420.7 429.9L484.6 540.2L576 576L576 481.8L512 374.7zM288 160C288 142.3 302.3 128 320 128C337.7 128 352 142.3 352 160C352 177.7 337.7 192 320 192C302.3 192 288 177.7 288 160z"/></svg>