<svg xmlns="http://www.w3.org/2000/svg" viewBox="0 0 640 640"><!--! Font Awesome Pro 7.2.0 by @fontawesome - https://fontawesome.com License - https://fontawesome.com/license (Commercial License) Copyright 2026 Fonticons, Inc. --><path opacity=".4" fill="currentColor" d="M96 64L544 64L544 480L96 480L96 64zM128 528L512 528L512 576L128 576L128 528zM160 128L160 320L480 320L480 128L160 128zM160 392C160 405.3 170.7 416 184 416C197.3 416 208 405.3 208 392C208 378.7 197.3 368 184 368C170.7 368 160 378.7 160 392zM320 368L320 416L480 416L480 368L320 368z"/><path fill="currentColor" d="M160 128L480 128L480 320L160 320L160 128z"/></svg>