<svg xmlns="http://www.w3.org/2000/svg" viewBox="0 0 640 640"><!--! Font Awesome Pro 7.2.0 by @fontawesome - https://fontawesome.com License - https://fontawesome.com/license (Commercial License) Copyright 2026 Fonticons, Inc. --><path opacity=".4" fill="currentColor" d="M144 256L144 320L496 320L496 256C496 223.1 471.2 196 439.2 192.4C444.8 182.9 448 171.8 448 160C448 89.3 390.7 32 320 32L326.1 38.1C332.5 44.5 336 53.1 336 62.1C336 80.8 320.8 96 302.1 96L256 96C220.7 96 192 124.7 192 160C192 171.8 195.2 182.9 200.8 192.4C168.8 196 144 223.1 144 256z"/><path fill="currentColor" d="M448 320L192 320L192 448L226.7 448L240 608L400 608L413.3 448L448 448L448 320z"/></svg>