<svg xmlns="http://www.w3.org/2000/svg" viewBox="0 0 640 640"><!--! Font Awesome Pro 7.2.0 by @fontawesome - https://fontawesome.com License - https://fontawesome.com/license (Commercial License) Copyright 2026 Fonticons, Inc. --><path opacity=".4" fill="currentColor" d="M96 416C106.8 367.6 117.5 319.2 128.3 270.8C154.9 263.2 181.4 255.6 208 248C245.3 258.7 282.7 269.3 320 280C357.3 269.3 394.7 258.7 432 248C458.6 255.6 485.1 263.2 511.7 270.8L544 416L96 416z"/><path fill="currentColor" d="M160 128L480 128L511.7 270.8L432 248L320 280L208 248L128.3 270.8L160 128zM88 464L576 464L576 512L64 512L64 464L88 464z"/></svg>