<svg xmlns="http://www.w3.org/2000/svg" viewBox="0 0 640 640"><!--! Font Awesome Pro 7.2.0 by @fontawesome - https://fontawesome.com License - https://fontawesome.com/license (Commercial License) Copyright 2026 Fonticons, Inc. --><path opacity=".4" fill="currentColor" d="M64 176C64 237.9 114.1 288 176 288C190.3 288 203.9 285.3 216.5 280.5L256 320L320 256L280.5 216.5C285.4 203.9 288 190.3 288 176C288 114.1 237.9 64 176 64C114.1 64 64 114.1 64 176zM224 176C224 202.5 202.5 224 176 224C149.5 224 128 202.5 128 176C128 149.5 149.5 128 176 128C202.5 128 224 149.5 224 176zM320 384L480 544L608 544L384 320L320 384z"/><path fill="currentColor" d="M280.5 423.5L608 96L480 96L216.5 359.5C203.9 354.6 190.3 352 176 352C114.1 352 64 402.1 64 464C64 525.9 114.1 576 176 576C237.9 576 288 525.9 288 464C288 449.7 285.3 436.1 280.5 423.5zM128 464C128 437.5 149.5 416 176 416C202.5 416 224 437.5 224 464C224 490.5 202.5 512 176 512C149.5 512 128 490.5 128 464z"/></svg>