<svg xmlns="http://www.w3.org/2000/svg" viewBox="0 0 640 640"><!--! Font Awesome Pro 7.2.0 by @fontawesome - https://fontawesome.com License - https://fontawesome.com/license (Commercial License) Copyright 2026 Fonticons, Inc. --><path opacity=".4" fill="currentColor" d="M64 96L64 480L272 480L256 528L160 528L160 576L480 576L480 528L384 528L368 480L576 480L576 96L64 96zM128 160L512 160L512 416L128 416L128 160z"/><path fill="currentColor" d="M512 160L128 160L128 416L512 416L512 160zM281 257L250 288C273 311 289 327 298 336L264 369.9C257.9 363.8 236.2 342.1 199 304.9L182 287.9L247 222.9L264 205.9L297.9 239.8L280.9 256.8zM393 223C430.2 260.2 451.8 281.8 458 288C451.9 294.1 430.2 315.8 393 353L376 370L342.1 336.1C351.1 327.1 367.1 311.1 390.1 288.1C367.1 265.1 351.1 249.1 342.1 240.1L376 206.2L393 223.2z"/></svg>