<svg xmlns="http://www.w3.org/2000/svg" viewBox="0 0 640 640"><!--! Font Awesome Pro 7.2.0 by @fontawesome - https://fontawesome.com License - https://fontawesome.com/license (Commercial License) Copyright 2026 Fonticons, Inc. --><path opacity=".4" fill="currentColor" d="M96 96L96 288L157.5 288C205.8 239.7 235 210.5 274.8 170.7C278.6 166.9 293.7 151.8 320.1 125.4C371.1 176.4 370.9 176.2 421.4 226.7C438.5 243.8 458.9 264.2 482.7 288L544.2 288L544.2 96L96.2 96z"/><path fill="currentColor" d="M414.6 288L352 288L352 352L544 352L544 544L96 544L96 352L288 352L288 288L225.4 288C238.8 274.6 266.6 246.8 308.7 204.7L320 193.4L331.3 204.7C373.4 246.8 401.2 274.6 414.6 288z"/></svg>