<svg xmlns="http://www.w3.org/2000/svg" viewBox="0 0 640 640"><!--! Font Awesome Pro 7.2.0 by @fontawesome - https://fontawesome.com License - https://fontawesome.com/license (Commercial License) Copyright 2026 Fonticons, Inc. --><path opacity=".4" fill="currentColor" d="M32 128L608 128L608 512L32 512L32 128zM96 192L96 288L320 288L320 192L96 192zM96 352C96 365.3 106.7 376 120 376C133.3 376 144 365.3 144 352C144 338.7 133.3 328 120 328C106.7 328 96 338.7 96 352zM96 416L96 464L280 464L280 416L96 416zM176 352C176 365.3 186.7 376 200 376C213.3 376 224 365.3 224 352C224 338.7 213.3 328 200 328C186.7 328 176 338.7 176 352zM256 352C256 365.3 266.7 376 280 376C293.3 376 304 365.3 304 352C304 338.7 293.3 328 280 328C266.7 328 256 338.7 256 352zM352 416L352 464L544 464L544 416L352 416zM400 256C400 291.3 428.7 320 464 320C499.3 320 528 291.3 528 256C528 220.7 499.3 192 464 192C428.7 192 400 220.7 400 256z"/><path fill="currentColor" d="M96 192L320 192L320 288L96 288L96 192zM400 256C400 220.7 428.7 192 464 192C499.3 192 528 220.7 528 256C528 291.3 499.3 320 464 320C428.7 320 400 291.3 400 256zM120 328C133.3 328 144 338.7 144 352C144 365.3 133.3 376 120 376C106.7 376 96 365.3 96 352C96 338.7 106.7 328 120 328zM176 352C176 338.7 186.7 328 200 328C213.3 328 224 338.7 224 352C224 365.3 213.3 376 200 376C186.7 376 176 365.3 176 352zM280 328C293.3 328 304 338.7 304 352C304 365.3 293.3 376 280 376C266.7 376 256 365.3 256 352C256 338.7 266.7 328 280 328z"/></svg>