<svg xmlns="http://www.w3.org/2000/svg" viewBox="0 0 640 640"><!--! Font Awesome Pro 7.2.0 by @fontawesome - https://fontawesome.com License - https://fontawesome.com/license (Commercial License) Copyright 2026 Fonticons, Inc. --><path opacity=".4" fill="currentColor" d="M64 285.9L64 352L272 352L352 416L384 416L384 352L390.6 352C422.3 352 448 377.7 448 409.4C448 440 424 465.2 393.5 466.7L333.5 469.7L312 416L224 416L256 496L224 576L312 576L330.3 530.3L402.8 534.3C496.9 539.5 576.1 464.3 576.1 370C576.1 288.2 543.9 213.7 491.5 158.7L544 80L528 64L399.4 92.6C360.3 74.2 316.6 64 270.5 64L240 64C160.5 64 96 128.5 96 208C96 226.6 99.5 244.4 106 260.7C86.6 272.4 72.6 280.7 64 285.9zM264 208C264 221.3 253.3 232 240 232C226.7 232 216 221.3 216 208C216 194.7 226.7 184 240 184C253.3 184 264 194.7 264 208z"/><path fill="currentColor" d="M216 208C216 194.7 226.7 184 240 184C253.3 184 264 194.7 264 208C264 221.3 253.3 232 240 232C226.7 232 216 221.3 216 208z"/></svg>