<svg xmlns="http://www.w3.org/2000/svg" viewBox="0 0 640 640"><!--! Font Awesome Pro 7.2.0 by @fontawesome - https://fontawesome.com License - https://fontawesome.com/license (Commercial License) Copyright 2026 Fonticons, Inc. --><path opacity=".4" fill="currentColor" d="M32 192L32 544L608 544L608 192L32 192zM96 480L128 416L288 416L320 480L96 480zM264 320C264 350.9 238.9 376 208 376C177.1 376 152 350.9 152 320C152 289.1 177.1 264 208 264C238.9 264 264 289.1 264 320zM368 272L528 272L528 320L368 320L368 272zM368 368L528 368L528 416L368 416L368 368z"/><path fill="currentColor" d="M608 96L32 96L32 192L608 192L608 96zM264 320C264 289.1 238.9 264 208 264C177.1 264 152 289.1 152 320C152 350.9 177.1 376 208 376C238.9 376 264 350.9 264 320zM288 416L128 416L96 480L320 480L288 416z"/></svg>