<svg xmlns="http://www.w3.org/2000/svg" viewBox="0 0 640 640"><!--! Font Awesome Pro 7.2.0 by @fontawesome - https://fontawesome.com License - https://fontawesome.com/license (Commercial License) Copyright 2026 Fonticons, Inc. --><path opacity=".4" fill="currentColor" d="M128 384C128 278 320 32 320 32C320 32 512 278 512 384C512 490 426 576 320 576C214 576 128 490 128 384zM224 360L224 408L296 408L296 480L344 480L344 408L416 408L416 360L344 360L344 288L296 288L296 360L224 360z"/><path fill="currentColor" d="M344 360L416 360L416 408L344 408L344 480L296 480L296 408L224 408L224 360L296 360L296 288L344 288L344 360z"/></svg>