<svg xmlns="http://www.w3.org/2000/svg" viewBox="0 0 640 640"><!--! Font Awesome Pro 7.2.0 by @fontawesome - https://fontawesome.com License - https://fontawesome.com/license (Commercial License) Copyright 2026 Fonticons, Inc. --><path opacity=".4" fill="currentColor" d="M136.2 382.7L136.2 510.7C150.5 517.1 166.7 522.7 184.2 527.4L184.2 399.4C166.7 394.7 150.5 389.1 136.2 382.7zM287 265.1L313.3 305.3L333.4 292.1C619.5 104.6 559.3 144.1 585.5 126.9L559.2 86.7L539.1 99.9C246.2 291.8 316.5 245.8 287 265.1zM296.2 415.6L296.2 543.6C311.9 544.2 328.5 544.2 344.2 543.6L344.2 415.6C328.5 416.2 311.9 416.2 296.2 415.6zM456.2 399.5L456.2 527.5C473.7 522.8 489.9 517.2 504.2 510.8L504.2 382.8C489.9 389.2 473.7 394.8 456.2 399.5z"/><path fill="currentColor" d="M320.2 160C361.2 160 400 162.7 434.4 168.5L371.6 209.6C355.3 208.5 338.1 208 320.2 208C252 208 194.8 215.9 156.6 230.7C117.8 245.8 112.2 261.3 112.2 272C112.2 272.8 114.9 289.2 158.2 307.9C197.1 324.7 254.2 336 320.2 336C386.2 336 443.3 324.7 482.2 307.9C525.5 289.2 528.2 272.8 528.2 272C528.2 261.4 522.6 245.8 483.8 230.7C472.3 226.2 459.1 222.4 444.4 219.2L497.4 184.5C545.9 202.4 576.2 230.9 576.2 271.9L576.2 431.9C576.2 463.2 548.8 490.7 504.2 510.6L504.2 382.6C489.9 389 473.7 394.6 456.2 399.3L456.2 527.3C423.2 536.2 385.1 541.8 344.2 543.4L344.2 415.4C328.5 416 311.9 416 296.2 415.4L296.2 543.4C255.3 541.8 217.2 536.2 184.2 527.3L184.2 399.3C166.7 394.6 150.5 389 136.2 382.6L136.2 510.6C91.6 490.7 64.2 463.2 64.2 431.9L64.2 271.9C64.2 191.9 178.8 159.9 320.2 159.9z"/></svg>