<svg xmlns="http://www.w3.org/2000/svg" viewBox="0 0 640 640"><!--! Font Awesome Pro 7.2.0 by @fontawesome - https://fontawesome.com License - https://fontawesome.com/license (Commercial License) Copyright 2026 Fonticons, Inc. --><path opacity=".4" fill="currentColor" d="M64 544C64 561.7 78.3 576 96 576C113.7 576 128 561.7 128 544C128 526.3 113.7 512 96 512C78.3 512 64 526.3 64 544zM82.7 448C90.9 456.2 119.8 485.1 169.3 534.6L192 557.3L237.3 512L150.6 425.4L128 402.7L82.7 448zM192 416C192 433.7 206.3 448 224 448C241.7 448 256 433.7 256 416C256 398.3 241.7 384 224 384C206.3 384 192 398.3 192 416zM425.8 120.6C473.1 148.7 506 198.3 511.2 256L575.4 256C570.2 175.2 524.9 105.4 459.2 66L425.8 120.6z"/><path fill="currentColor" d="M192 304C192 242.1 242.1 192 304 192C365.9 192 416 242.1 416 304C416 342.8 396.3 377 366.2 397.2L352 406.7L352 464C352 490.5 330.5 512 304 512L272 512L272 576L304 576C365.9 576 416 525.9 416 464L416 439.8C455 407.6 480 358.7 480 304C480 206.8 401.2 128 304 128C206.8 128 128 206.8 128 304L192 304zM272 304C272 286.3 286.3 272 304 272C321.7 272 336 286.3 336 304L384 304C384 259.8 348.2 224 304 224C259.8 224 224 259.8 224 304L272 304z"/></svg>