<svg xmlns="http://www.w3.org/2000/svg" viewBox="0 0 640 640"><!--! Font Awesome Pro 7.2.0 by @fontawesome - https://fontawesome.com License - https://fontawesome.com/license (Commercial License) Copyright 2026 Fonticons, Inc. --><path opacity=".4" fill="currentColor" d="M128 352C128 458 214 560 320 560C426 560 512 458 512 352C512 240 448 80 320 80C192 80 128 240 128 352zM192 352C192 323.7 197.7 290.1 208.9 258.5C220.1 227 237.3 196.1 261.2 174.3L282.8 198C264 215.1 249.2 240.7 239.1 269.2C229 297.6 224 327.5 224 352L224 368L192 368L192 352z"/><path fill="currentColor" d="M239.1 269.2C229 297.6 224 327.5 224 352L224 368L192 368L192 352C192 323.7 197.7 290.1 208.9 258.5C220.1 227 237.3 196.1 261.2 174.3L282.8 198C264 215.1 249.2 240.7 239.1 269.2z"/></svg>