<svg xmlns="http://www.w3.org/2000/svg" viewBox="0 0 640 640"><!--! Font Awesome Pro 7.2.0 by @fontawesome - https://fontawesome.com License - https://fontawesome.com/license (Commercial License) Copyright 2026 Fonticons, Inc. --><path opacity=".4" fill="currentColor" d="M160.4 113.4C146.8 119.7 134 127.5 122.3 136.6C67.9 175.8 32.4 239.8 32.4 312L32.4 354.9L2.5 422.2L46.4 441.7L64.5 401L64.5 575.9L192.5 575.9L192.5 473.9C207.8 477.8 223.9 479.9 240.5 479.9C257.1 479.9 273.2 477.8 288.5 473.9L288.5 575.9L416.5 575.9L416.5 404.6C424.7 413.9 434.3 422 444.9 428.6C422.6 414.7 404.9 394.1 394.5 369.6L424 357.2C438.6 391.7 472.7 415.9 512.5 415.9C523.7 415.9 534.5 414 544.5 410.4L544.5 255.9C544.5 167.5 472.9 95.9 384.5 95.9L382.9 95.9C362.5 76.2 334.9 64 304.4 64L192.4 64L192.4 176C192.4 237.9 242.5 288 304.4 288L320.4 288L320.4 320L304.4 320C224.9 320 160.4 255.5 160.4 176L160.4 113.4zM480.4 444L480.4 465.5C480.4 508.8 515.5 544 558.9 544C592.7 544 622.7 522.4 633.4 490.3L638.8 474.1L578.1 453.9L572.7 470.1C570.7 476 565.2 480 559 480C551 480 544.5 473.5 544.5 465.5L544.5 444C534.3 446.6 523.5 448 512.5 448C501.5 448 490.7 446.6 480.5 444zM585.5 425.1C592.1 420.5 598.2 415.3 603.8 409.6C626.2 386.7 609.4 403.9 603.8 409.6C598.2 415.3 592.1 420.5 585.5 425.1zM448.4 272C448.4 263.2 455.6 256 464.4 256C473.2 256 480.4 263.2 480.4 272C480.4 280.8 473.2 288 464.4 288C455.6 288 448.4 280.8 448.4 272z"/><path fill="currentColor" d="M464.4 288C473.2 288 480.4 280.8 480.4 272C480.4 263.2 473.2 256 464.4 256C455.6 256 448.4 263.2 448.4 272C448.4 280.8 455.6 288 464.4 288zM512.4 416C472.6 416 438.5 391.8 423.9 357.3L394.4 369.7C413.8 415.7 459.3 448 512.4 448C548.2 448 580.6 433.3 603.8 409.6L615 398.2L592.1 375.8L580.9 387.2C563.5 405 539.2 416 512.4 416z"/></svg>