<svg xmlns="http://www.w3.org/2000/svg" viewBox="0 0 640 640"><!--! Font Awesome Pro 7.2.0 by @fontawesome - https://fontawesome.com License - https://fontawesome.com/license (Commercial License) Copyright 2026 Fonticons, Inc. --><path opacity=".4" fill="currentColor" d="M64.3 320C64.3 178.6 178.9 64 320.3 64C379.5 64 433.9 84.1 477.3 117.8C462.1 133 446.8 148.3 431.6 163.5C400.2 141.1 361.8 128 320.4 128C214.4 128 128.4 214 128.4 320C128.4 361.5 141.5 399.9 163.9 431.2L118 477C84.3 433.7 64.2 379.2 64.2 320zM163.3 522.2C178.5 507 193.8 491.7 209 476.5C240.4 498.9 278.8 512 320.2 512C426.2 512 512.2 426 512.2 320C512.2 278.5 499.1 240.1 476.7 208.8L522.5 163C556.2 206.3 576.3 260.8 576.3 320C576.3 461.4 461.7 576 320.3 576C261.1 576 206.7 555.9 163.3 522.2z"/><path fill="currentColor" d="M589.5 96L566.9 118.6L118.9 566.6L96.3 589.2L51 543.9L73.6 521.3L521.6 73.3L544.2 50.7L589.5 96z"/></svg>