<svg xmlns="http://www.w3.org/2000/svg" viewBox="0 0 640 640"><!--! Font Awesome Pro 7.2.0 by @fontawesome - https://fontawesome.com License - https://fontawesome.com/license (Commercial License) Copyright 2026 Fonticons, Inc. --><path opacity=".4" fill="currentColor" d="M48 192L48 448L96 448L96 344L128 344L128 448L213.3 448L256 512L310 512C306.1 496.7 304 480.6 304 464C304 363.4 381.4 280.8 480 272.7L480 192L344 192L344 144L432 144L432 96L208 96L208 144L296 144L296 192L128 192L128 296L96 296L96 192L48 192zM528 224L528 274.7C544.8 277.5 560.9 282.5 576 289.5L576 224.1L528 224.1z"/><path fill="currentColor" d="M352 464C352 384.5 416.5 320 496 320C575.5 320 640 384.5 640 464C640 543.5 575.5 608 496 608C416.5 608 352 543.5 352 464zM512 512L480 512L480 544L512 544L512 512zM512 384L512 368L480 368L480 480L512 480L512 384z"/></svg>