<svg xmlns="http://www.w3.org/2000/svg" viewBox="0 0 640 640"><!--! Font Awesome Pro 7.2.0 by @fontawesome - https://fontawesome.com License - https://fontawesome.com/license (Commercial License) Copyright 2026 Fonticons, Inc. --><path opacity=".4" fill="currentColor" d="M64 256L128 256L128 192L192 192L192 128L448 128L448 192L512 192L512 256L576 256L576 512L512 512L512 384L464 384L464 512L400 512L400 384L352 384L352 512L288 512L288 384L240 384L240 512L176 512L176 384L128 384L128 512L64 512L64 256z"/><path fill="currentColor" d="M176 512L128 512L128 384L176 384L176 512zM288 512L240 512L240 384L288 384L288 512zM400 512L352 512L352 384L400 384L400 512zM512 512L464 512L464 384L512 384L512 512z"/></svg>