<svg xmlns="http://www.w3.org/2000/svg" viewBox="0 0 640 640"><!--! Font Awesome Pro 7.2.0 by @fontawesome - https://fontawesome.com License - https://fontawesome.com/license (Commercial License) Copyright 2026 Fonticons, Inc. --><path opacity=".4" fill="currentColor" d="M32 320C62 394.7 161.6 544 320 544C478.4 544 578 394.7 608 320C578 245.3 478.4 96 320 96C161.6 96 62 245.3 32 320zM464 320C464 399.5 399.5 464 320 464C240.5 464 176 399.5 176 320C176 240.5 240.5 176 320 176C399.5 176 464 240.5 464 320z"/><path fill="currentColor" d="M320 416C267 416 224 373 224 320L320 320L320 224C373 224 416 267 416 320C416 373 373 416 320 416z"/></svg>