<svg xmlns="http://www.w3.org/2000/svg" viewBox="0 0 640 640"><!--! Font Awesome Pro 7.2.0 by @fontawesome - https://fontawesome.com License - https://fontawesome.com/license (Commercial License) Copyright 2026 Fonticons, Inc. --><path opacity=".4" fill="currentColor" d="M64.3 320C64.3 461.4 178.9 576 320.3 576C461.7 576 576.3 461.4 576.3 320C576.3 316.8 576.2 313.6 576.1 310.4C415.2 465.6 474.8 408.1 449 433C450 434.4 451 435.8 452 437.2L425.9 455.2L425.3 455.7C421 458.5 416.7 461.5 412.5 464.4C392.3 435.1 358.5 415.9 320.3 415.9C282.1 415.9 248.3 435 228.1 464.4L188.6 437.1C217.4 395.3 265.7 367.9 320.4 367.9C342.5 367.9 363.6 372.4 382.7 380.5L521.3 246.4C532.5 235.5 548.3 232.1 562.3 236.2C527.6 136 432.4 64 320.3 64C178.9 64 64.3 178.6 64.3 320zM272.3 272C272.3 289.7 258 304 240.3 304C222.6 304 208.3 289.7 208.3 272C208.3 254.3 222.6 240 240.3 240C258 240 272.3 254.3 272.3 272zM432.3 272C432.3 289.7 418 304 400.3 304C382.6 304 368.3 289.7 368.3 272C368.3 254.3 382.6 240 400.3 240C418 240 432.3 254.3 432.3 272z"/><path fill="currentColor" d="M521.3 246.4C537.8 230.4 564.1 230.6 580.3 246.9C595.9 262.5 596.7 287.3 582.7 303.8C568.7 289.8 558.6 279.7 552.3 273.4L529.7 296C536 302.3 546 312.3 559.8 326.1L534 351C520.6 337.6 510.7 327.7 504.3 321.3L481.7 344C488.1 350.4 497.9 360.2 510.9 373.2L485.1 398.1C472.4 385.4 462.8 375.8 456.3 369.3L433.7 392C440.3 398.6 449.7 408 462.1 420.4L449 433C432.1 410.1 409.2 391.9 382.6 380.6L521.3 246.4zM208.3 272C208.3 254.3 222.6 240 240.3 240C258 240 272.3 254.3 272.3 272C272.3 289.7 258 304 240.3 304C222.6 304 208.3 289.7 208.3 272zM368.3 272C368.3 254.3 382.6 240 400.3 240C418 240 432.3 254.3 432.3 272C432.3 289.7 418 304 400.3 304C382.6 304 368.3 289.7 368.3 272z"/></svg>