<svg xmlns="http://www.w3.org/2000/svg" viewBox="0 0 640 640"><!--! Font Awesome Pro 7.2.0 by @fontawesome - https://fontawesome.com License - https://fontawesome.com/license (Commercial License) Copyright 2026 Fonticons, Inc. --><path opacity=".4" fill="currentColor" d="M160 320C160 408.4 231.6 480 320 480C408.4 480 480 408.4 480 320C480 231.6 408.4 160 320 160C231.6 160 160 231.6 160 320zM241.4 370.6L269.1 354.6C279.3 372.2 298.3 384 320 384C341.7 384 360.7 372.2 370.9 354.6L398.6 370.6C382.9 397.7 353.6 416 320 416C286.4 416 257.1 397.7 241.4 370.6zM296 280C296 293.3 285.3 304 272 304C258.7 304 248 293.3 248 280C248 266.7 258.7 256 272 256C285.3 256 296 266.7 296 280zM392 280C392 293.3 381.3 304 368 304C354.7 304 344 293.3 344 280C344 266.7 354.7 256 368 256C381.3 256 392 266.7 392 280z"/><path fill="currentColor" d="M64 64L224 64L224 112L112 112L112 224L64 224L64 64zM416 64L576 64L576 224L528 224L528 112L416 112L416 64zM112 416L112 528L224 528L224 576L64 576L64 416L112 416zM576 416L576 576L416 576L416 528L528 528L528 416L576 416zM248 280C248 266.7 258.7 256 272 256C285.3 256 296 266.7 296 280C296 293.3 285.3 304 272 304C258.7 304 248 293.3 248 280zM368 256C381.3 256 392 266.7 392 280C392 293.3 381.3 304 368 304C354.7 304 344 293.3 344 280C344 266.7 354.7 256 368 256z"/></svg>