<svg xmlns="http://www.w3.org/2000/svg" viewBox="0 0 640 640"><!--! Font Awesome Pro 7.2.0 by @fontawesome - https://fontawesome.com License - https://fontawesome.com/license (Commercial License) Copyright 2026 Fonticons, Inc. --><path opacity=".4" fill="currentColor" d="M64 320C64 393.2 94.7 459.2 144 505.9L144 368L225.3 368C232.9 322.6 272.4 288 320 288C365.3 288 403.2 319.3 413.3 361.5C440.1 388.3 486 434.2 499.8 448L467.8 480C477.4 489.6 486.4 498.6 494.8 507C544.7 460.3 575.9 393.8 575.9 320C575.9 178.6 461.3 64 319.9 64C178.5 64 64 178.6 64 320zM142.3 252.3C144.6 250.5 177.5 224.1 241 173.3L259.7 158.3L289.7 195.8C287.4 197.6 254.5 224 191 274.8L172.3 289.8L142.3 252.3zM350.3 195.8L380.3 158.3C382.6 160.1 415.5 186.5 479 237.3L497.7 252.3L467.7 289.8C465.4 288 432.5 261.6 369 210.8L350.3 195.8z"/><path fill="currentColor" d="M289.7 195.7L259.7 158.2C257.4 160 224.5 186.4 161 237.2L142.3 252.2L172.3 289.7C174.6 287.9 207.5 261.5 271 210.7L289.7 195.7zM350.2 195.7C352.5 197.5 385.4 223.9 448.9 274.7L467.6 289.7L497.6 252.2C495.3 250.4 462.4 224 398.9 173.2L380.2 158.2L350.2 195.7zM192 416L192 538.2C192 594.4 237.6 640 293.8 640C320.8 640 346.7 629.3 365.8 610.2L448 528L416 496L368 544L352 528L432 448L400 416L320 496L304 480L368 416L336 384L240 480L240 416L192 416z"/></svg>