<svg xmlns="http://www.w3.org/2000/svg" viewBox="0 0 640 640"><!--! Font Awesome Pro 7.2.0 by @fontawesome - https://fontawesome.com License - https://fontawesome.com/license (Commercial License) Copyright 2026 Fonticons, Inc. --><path opacity=".4" fill="currentColor" d="M64 320C64 389.9 92.1 453.3 137.5 499.5L141.8 498.2C159.1 493 171.8 478.6 175.1 461.3C165.4 449.9 160 437.3 160 423.9C160 375.3 231.6 335.9 320 335.9C408.4 335.9 480 375.3 480 423.9C480 437.3 474.6 450 464.9 461.3C468.2 478.6 480.9 493 498.2 498.2L502.5 499.5C547.9 453.3 576 389.9 576 320C576 178.6 461.4 64 320 64C178.6 64 64 178.6 64 320zM166.4 220.8L183.2 193.7L278.8 241.7L288 246.3L288 266.5L277.8 270.8L182.2 310.8L167.5 282.5L211.7 254.9L166.4 220.9zM352 246.3L361.2 241.7L456.8 193.7L473.6 220.8L428.3 254.8L472.5 282.4L457.8 310.7L362.2 270.7L352 266.4L352 246.2z"/><path fill="currentColor" d="M224 460.1L224 402.7C247.6 391.6 281.3 384 320 384C358.7 384 392.4 391.6 416 402.7L416 460.1C416 491.1 435.8 518.6 465.2 528.4L512 544L512 576L128 576L128 544L174.8 528.4C204.2 518.6 224 491.1 224 460.1zM336 448C327.2 448 320 455.2 320 464C320 472.8 327.2 480 336 480C344.8 480 352 472.8 352 464C352 455.2 344.8 448 336 448zM288 496C288 487.2 280.8 480 272 480C263.2 480 256 487.2 256 496C256 504.8 263.2 512 272 512C280.8 512 288 504.8 288 496zM544 512C544 494.3 558.3 480 576 480C593.7 480 608 494.3 608 512C608 529.7 593.7 544 576 544C558.3 544 544 529.7 544 512zM32 544C32 526.3 46.3 512 64 512C81.7 512 96 526.3 96 544C96 561.7 81.7 576 64 576C46.3 576 32 561.7 32 544z"/></svg>