<svg xmlns="http://www.w3.org/2000/svg" viewBox="0 0 640 640"><!--! Font Awesome Pro 7.2.0 by @fontawesome - https://fontawesome.com License - https://fontawesome.com/license (Commercial License) Copyright 2026 Fonticons, Inc. --><path opacity=".4" fill="currentColor" d="M64.5 272L575.5 272C567.2 138.1 456 32 320 32C184 32 72.8 138.1 64.5 272zM166.7 172.6L179.3 134.7L198.3 141L294.3 173L313.3 179.3L300.7 217.2L281.7 210.9C278.5 209.8 275.2 208.7 272 207.9C272 225.6 257.7 239.9 240 239.9C222.3 239.9 208 225.6 208 207.9C208 200.6 210.4 193.9 214.6 188.5C193.7 181.5 177.7 176.2 166.8 172.6zM326.7 179.3L345.7 173L441.7 141L460.7 134.7L473.3 172.6C462.3 176.3 446.4 181.6 425.5 188.5C429.6 193.9 432.1 200.6 432.1 207.9C432.1 225.6 417.8 239.9 400.1 239.9C382.4 239.9 368.1 225.6 368.1 207.6C363.2 209.2 353.6 212.4 339.5 217.2L326.9 179.3z"/><path fill="currentColor" d="M640 320L0 320L0 576L640 576L640 320zM400 432L384 432L384 464L416 464L416 496L384 496L384 528L352 528L352 496L320 496L320 528L288 528L288 496L256 496L256 464L288 464L288 432L256 432L256 400L288 400L288 368L320 368L320 400L352 400L352 368L384 368L384 400L416 400L416 432L400 432zM320 432L320 464L352 464L352 432L320 432zM582.6 390.3L572.2 402.4L476.2 514.4L465.8 526.5L441.5 505.7L451.9 493.6L547.9 381.6L558.3 369.5L582.6 390.3zM224 384L224 464L192 464L192 368L224 368L224 384zM64 422.5C64 403.5 77.8 387.7 96 384.6L96 368.1L128 368.1L128 384.1L152 384.1L152 416.1L102.5 416.1C98.9 416.1 96 419 96 422.6C96 425.6 98 428.2 100.9 428.9L130.9 436.4C148 440.7 160 456.1 160 473.7C160 492.7 146.2 508.5 128 511.6L128 528.1L96 528.1L96 512.1L64 512.1L64 480.1L121.5 480.1C125.1 480.1 128 477.2 128 473.6C128 470.6 126 468 123.1 467.3L93.1 459.8C76 455.5 64 440.1 64 422.5zM224 496L224 528L192 528L192 496L224 496zM448 376L488 376L488 416L448 416L448 376zM576 480L576 520L536 520L536 480L576 480z"/></svg>