<svg xmlns="http://www.w3.org/2000/svg" viewBox="0 0 640 640"><!--! Font Awesome Pro 7.2.0 by @fontawesome - https://fontawesome.com License - https://fontawesome.com/license (Commercial License) Copyright 2026 Fonticons, Inc. --><path opacity=".4" fill="currentColor" d="M64 320C64 461.4 178.6 576 320 576C461.4 576 576 461.4 576 320C576 178.6 461.4 64 320 64C178.6 64 64 178.6 64 320zM142.7 233.3C143.3 232.9 182 207.1 258.7 156L278.7 142.7L305.3 182.6C304.7 183 266 208.8 189.3 259.9L169.3 273.2L142.7 233.3zM174.1 416L208 382.1C221.3 395.4 228.6 402.7 229.7 403.8C238.7 412.8 252.4 415 263.7 409.3C289.9 396.2 321.3 399 344.8 416.6L372.7 437.6C374.8 439.2 377.4 440 380 440C384 440 387.8 438 390 434.7C406.2 411.1 418.1 393.7 425.7 382.6L465.3 409.7C457.7 420.8 445.8 438.2 429.6 461.8C418.4 478.2 399.8 488 380 488C367 488 354.3 483.8 343.9 476L316 455C307.1 448.3 295.1 447.2 285.2 452.2C255.4 467.1 219.4 461.3 195.8 437.7C194.7 436.6 187.4 429.3 174.1 416zM178.9 302.5C187.6 300.3 216.7 293 266.2 280.7L289.5 274.9L301.1 321.5L213.8 343.3L190.5 349.1L178.9 302.5zM352 272C352 236.7 373.5 208 400 208C426.5 208 448 236.7 448 272C448 307.3 426.5 336 400 336C373.5 336 352 307.3 352 272z"/><path fill="currentColor" d="M285.3 196L305.3 182.7L278.7 142.8C278.1 143.2 239.4 169 162.7 220.1L142.7 233.4L169.3 273.3C169.9 272.9 208.6 247.1 285.3 196zM448 272C448 236.7 426.5 208 400 208C373.5 208 352 236.7 352 272C352 307.3 373.5 336 400 336C426.5 336 448 307.3 448 272zM301.1 321.5L289.5 274.9C280.8 277.1 251.7 284.4 202.2 296.7L178.9 302.5L190.5 349.1C199.2 346.9 228.3 339.6 277.8 327.3L301.1 321.5z"/></svg>