<svg xmlns="http://www.w3.org/2000/svg" viewBox="0 0 640 640"><!--! Font Awesome Pro 7.2.0 by @fontawesome - https://fontawesome.com License - https://fontawesome.com/license (Commercial License) Copyright 2026 Fonticons, Inc. --><path opacity=".4" fill="currentColor" d="M64 320C64 397.4 98.3 466.8 152.6 513.7C152.2 509.2 152 504.6 152 500L152 344L287.4 344C299.6 331.8 315.8 315.6 336 295.4C356.3 315.7 372.3 331.7 384 343.4L400 327.4C441.8 369.2 476.9 404.3 488.6 416L460.3 444.3L456.6 448C484.2 475.6 500.4 491.8 505.3 496.7C549.1 450.8 576 388.5 576 320C576 178.6 461.4 64 320 64C178.6 64 64 178.6 64 320zM272 256C272 273.7 257.7 288 240 288C222.3 288 208 273.7 208 256C208 238.3 222.3 224 240 224C257.7 224 272 238.3 272 256zM432 256C432 273.7 417.7 288 400 288C382.3 288 368 273.7 368 256C368 238.3 382.3 224 400 224C417.7 224 432 238.3 432 256z"/><path fill="currentColor" d="M208 256C208 238.3 222.3 224 240 224C257.7 224 272 238.3 272 256C272 273.7 257.7 288 240 288C222.3 288 208 273.7 208 256zM192 506.2L192 384L240 384L240 448L336 352L368 384L304 448L320 464L400 384L432 416L352 496L368 512L416 464L448 496L365.8 578.2C346.7 597.3 320.8 608 293.8 608C237.6 608 192 562.4 192 506.2zM400 224C417.7 224 432 238.3 432 256C432 273.7 417.7 288 400 288C382.3 288 368 273.7 368 256C368 238.3 382.3 224 400 224z"/></svg>