<svg xmlns="http://www.w3.org/2000/svg" viewBox="0 0 640 640"><!--! Font Awesome Pro 7.2.0 by @fontawesome - https://fontawesome.com License - https://fontawesome.com/license (Commercial License) Copyright 2026 Fonticons, Inc. --><path opacity=".4" fill="currentColor" d="M64 320C64 461.4 178.6 576 320 576C461.4 576 576 461.4 576 320C576 178.6 461.4 64 320 64C178.6 64 64 178.6 64 320zM172 280C172 246.9 198.9 220 232 220L248 220C281.1 220 308 246.9 308 280L308 296L268 296L268 280C268 269 259 260 248 260L232 260C221 260 212 269 212 280L212 296L172 296L172 280zM188.2 410.8L227.7 383.5C248 412.9 281.8 432 320 432C358.2 432 392 412.9 412.2 383.5L451.7 410.8C422.9 452.6 374.7 480 320 480C265.3 480 217.1 452.6 188.2 410.8zM332 280C332 246.9 358.9 220 392 220L408 220C441.1 220 468 246.9 468 280L468 296L428 296L428 280C428 269 419 260 408 260L392 260C381 260 372 269 372 280L372 296L332 296L332 280z"/><path fill="currentColor" d="M212 280C212 269 221 260 232 260L248 260C259 260 268 269 268 280L268 296L308 296L308 280C308 246.9 281.1 220 248 220L232 220C198.9 220 172 246.9 172 280L172 296L212 296L212 280zM372 280C372 269 381 260 392 260L408 260C419 260 428 269 428 280L428 296L468 296L468 280C468 246.9 441.1 220 408 220L392 220C358.9 220 332 246.9 332 280L332 296L372 296L372 280z"/></svg>