<svg xmlns="http://www.w3.org/2000/svg" viewBox="0 0 640 640"><!--! Font Awesome Pro 7.2.0 by @fontawesome - https://fontawesome.com License - https://fontawesome.com/license (Commercial License) Copyright 2026 Fonticons, Inc. --><path opacity=".4" fill="currentColor" d="M64 320C64 461.4 178.6 576 320 576C461.4 576 576 461.4 576 320C576 178.6 461.4 64 320 64C178.6 64 64 178.6 64 320zM192 429.6C192 420.3 195.1 411 199.2 402.6C208.9 382.9 224 366.4 240 352C256 366.4 271.1 382.9 280.8 402.6C285 411 288 420.3 288 429.6C288 458.3 267.3 480 240 480C212.7 480 192 458.3 192 429.6zM272 272C272 289.7 257.7 304 240 304C222.3 304 208 289.7 208 272C208 254.3 222.3 240 240 240C257.7 240 272 254.3 272 272zM316.1 373.5C327.4 369.9 339.5 368 352 368C398 368 438 393.9 458.1 431.9L415.7 454.4C403.6 431.5 379.6 416 352 416C346.1 416 340.4 416.7 335 418C332.6 401.4 325.9 386.2 316.1 373.4zM432 272C432 289.7 417.7 304 400 304C382.3 304 368 289.7 368 272C368 254.3 382.3 240 400 240C417.7 240 432 254.3 432 272z"/><path fill="currentColor" d="M208 272C208 254.3 222.3 240 240 240C257.7 240 272 254.3 272 272C272 289.7 257.7 304 240 304C222.3 304 208 289.7 208 272zM368 272C368 254.3 382.3 240 400 240C417.7 240 432 254.3 432 272C432 289.7 417.7 304 400 304C382.3 304 368 289.7 368 272zM199.2 402.6C208.9 382.9 224 366.4 240 352C256 366.4 271.1 382.9 280.8 402.6C285 411 288 420.3 288 429.6C288 458.3 267.3 480 240 480C212.7 480 192 458.3 192 429.6C192 420.3 195.1 411 199.2 402.6z"/></svg>