<svg xmlns="http://www.w3.org/2000/svg" viewBox="0 0 640 640"><!--! Font Awesome Pro 7.2.0 by @fontawesome - https://fontawesome.com License - https://fontawesome.com/license (Commercial License) Copyright 2026 Fonticons, Inc. --><path opacity=".4" fill="currentColor" d="M96.4 352C96.4 300.4 113.8 252.9 143.2 215C192.6 240.8 253.4 256 319.2 256C385.8 256 447.3 240.4 497 214.1C526.7 252.1 544.5 300 544.5 352C544.5 475.7 444.2 576 320.5 576C196.8 576 96.5 475.7 96.5 352zM182.4 405.9C193.7 471.8 251.2 522 320.4 522C389.6 522 447 471.8 458.4 405.9C418.8 421.8 371.4 431 320.4 431C269.4 431 222.1 421.8 182.4 405.9zM208.4 336C208.4 353.7 222.7 368 240.4 368C258.1 368 272.4 353.7 272.4 336C272.4 318.3 258.1 304 240.4 304C222.7 304 208.4 318.3 208.4 336zM368.4 336C368.4 353.7 382.7 368 400.4 368C418.1 368 432.4 353.7 432.4 336C432.4 318.3 418.1 304 400.4 304C382.7 304 368.4 318.3 368.4 336z"/><path fill="currentColor" d="M162.6 149.9C112.3 136 66.8 115.7 28 90.3C58.3 185.2 177.2 256 319.2 256C461.2 256 580.1 185.2 610.4 90.3C571.6 115.7 526 136 475.8 149.9L425.9 0L319.2 42.7L212.5 0L162.6 149.9zM272.4 336C272.4 318.3 258.1 304 240.4 304C222.7 304 208.4 318.3 208.4 336C208.4 353.7 222.7 368 240.4 368C258.1 368 272.4 353.7 272.4 336zM400.4 368C418.1 368 432.4 353.7 432.4 336C432.4 318.3 418.1 304 400.4 304C382.7 304 368.4 318.3 368.4 336C368.4 353.7 382.7 368 400.4 368z"/></svg>