<svg xmlns="http://www.w3.org/2000/svg" viewBox="0 0 640 640"><!--! Font Awesome Pro 7.2.0 by @fontawesome - https://fontawesome.com License - https://fontawesome.com/license (Commercial License) Copyright 2026 Fonticons, Inc. --><path opacity=".4" fill="currentColor" d="M64 320C64 461.4 178.6 576 320 576C380.3 576 435.7 555.2 479.4 520.3C478.6 508.3 476.9 495.2 472.8 482.5C465.9 461 452.6 441.4 426.1 430.8L432 400C459.8 400 502.8 413.3 538.7 436.6C541 438.1 543.3 439.6 545.6 441.2C565 405.1 576 363.9 576 320C576 178.6 461.4 64 320 64C178.6 64 64 178.6 64 320zM156 296L196 296L196 312C196 323 205 332 216 332L232 332C243 332 252 323 252 312L252 296L292 296L292 312C292 345.1 265.1 372 232 372L216 372C182.9 372 156 345.1 156 312L156 296zM213.9 463.9C234 425.9 274 400 320 400C366 400 406 425.9 426.1 463.9L383.7 486.4C371.6 463.5 347.6 448 320 448C292.4 448 268.4 463.5 256.3 486.4L213.9 463.9zM348 296L388 296L388 312C388 323 397 332 408 332L424 332C435 332 444 323 444 312L444 296L484 296L484 312C484 345.1 457.1 372 424 372L408 372C374.9 372 348 345.1 348 312L348 296z"/><path fill="currentColor" d="M216 332L232 332C243 332 252 323 252 312L252 296L292 296L292 312C292 345.1 265.1 372 232 372L216 372C182.9 372 156 345.1 156 312L156 296L196 296L196 312C196 323 205 332 216 332zM408 332L424 332C435 332 444 323 444 312L444 296L484 296L484 312C484 345.1 457.1 372 424 372L408 372C374.9 372 348 345.1 348 312L348 296L388 296L388 312C388 323 397 332 408 332zM426.1 430.9L432 400C459.8 400 502.8 413.3 538.7 436.6C574.5 459.8 608 496 608 544C608 579.3 579.3 608 544 608C508.7 608 480 579.3 480 544C480 527.8 479.9 504.6 472.8 482.5C465.9 461 452.6 441.4 426.1 430.8z"/></svg>