<svg xmlns="http://www.w3.org/2000/svg" viewBox="0 0 640 640"><!--! Font Awesome Pro 7.2.0 by @fontawesome - https://fontawesome.com License - https://fontawesome.com/license (Commercial License) Copyright 2026 Fonticons, Inc. --><path opacity=".4" fill="currentColor" d="M64 320C64 461.4 178.6 576 320 576C461.4 576 576 461.4 576 320C576 178.6 461.4 64 320 64C178.6 64 64 178.6 64 320zM153 207.6L172.7 204.3L175.2 203.9C200.7 199.7 224.2 187.5 242.5 169.3C246.3 165.5 253.5 158.3 264 147.8L292.3 176C281.7 186.6 274.6 193.7 270.8 197.5C246.6 221.7 215.5 237.7 181.8 243.3L179.3 243.7L159.6 247L153 207.5zM182.4 300.8L199.2 273.7L294.8 321.7L304 326.3L304 346.5L293.8 350.8L198.2 390.8L183.5 362.5L227.7 334.9L182.4 300.9zM213.9 463.9C234 425.9 274 400 320 400C366 400 406 425.9 426.1 463.9L383.7 486.4C371.6 463.5 347.6 448 320 448C292.4 448 268.4 463.5 256.3 486.4L213.9 463.9zM336 326.3L345.2 321.7L440.8 273.7L457.6 300.8L412.3 334.8L456.5 362.4L441.8 390.7L346.2 350.7L336 346.4L336 326.2zM347.7 176L376 147.7C386.6 158.3 393.7 165.4 397.5 169.2C415.8 187.5 439.3 199.6 464.8 203.8L467.3 204.2L487 207.5L480.4 247L460.7 243.7L458.2 243.3C424.5 237.7 393.4 221.7 369.2 197.5C365.4 193.7 358.2 186.5 347.7 176z"/><path fill="currentColor" d="M278.1 190.1L270.7 197.5C246.5 221.7 215.4 237.7 181.7 243.3L179.2 243.7L159.5 247L152.9 207.5L172.6 204.2L175.1 203.8C200.6 199.6 224.1 187.4 242.4 169.2C246.2 165.4 253.4 158.2 263.9 147.7L292.2 176L278.1 190.1zM361.8 190.1L347.7 176L376 147.7C386.6 158.3 393.7 165.4 397.5 169.2C415.8 187.5 439.3 199.6 464.8 203.8L467.3 204.2L487 207.5L480.4 247L460.7 243.7L458.2 243.3C424.5 237.7 393.4 221.7 369.2 197.5L361.8 190.1zM199.2 273.7L294.8 321.7L304 326.3L304 346.5L293.8 350.8L198.2 390.8L183.5 362.5L227.7 334.9L182.4 300.9L199.2 273.8zM345.2 321.7L440.8 273.7L457.6 300.8L412.3 334.8L456.5 362.4L441.8 390.7L346.2 350.7L336 346.4L336 326.2L345.2 321.6z"/></svg>