<svg xmlns="http://www.w3.org/2000/svg" viewBox="0 0 640 640"><!--! Font Awesome Pro 7.2.0 by @fontawesome - https://fontawesome.com License - https://fontawesome.com/license (Commercial License) Copyright 2026 Fonticons, Inc. --><path opacity=".4" fill="currentColor" d="M64 320C64 295.2 67.5 271.2 74.1 248.5C90.3 192.6 125.1 144.6 171.3 111.6C213.2 81.6 264.5 64 320 64C375.5 64 426.8 81.6 468.7 111.6C514.9 144.6 549.7 192.6 565.9 248.5C572.5 271.2 576 295.2 576 320C576 461.4 461.4 576 320 576C178.6 576 64 461.4 64 320zM166.7 300.6C177.7 304.3 193.7 309.6 214.5 316.5C210.4 321.9 207.9 328.6 207.9 335.9C207.9 353.6 222.2 367.9 239.9 367.9C257.6 367.9 271.9 353.6 271.9 335.9C275.1 336.7 278.4 337.8 281.6 338.9L300.6 345.2L313.2 307.3L294.2 301L198.2 269L179.2 262.7L166.6 300.6zM188.2 434.8C217.1 476.6 265.3 504 320 504C374.7 504 422.9 476.6 451.8 434.8L412.3 407.5C392 436.9 358.2 456 320 456C281.8 456 248 436.9 227.8 407.5L188.3 434.8zM326.7 307.4L339.3 345.3C353.5 340.6 363 337.4 368 335.7C368 353.6 382.3 368 400 368C417.7 368 432 353.7 432 336C432 328.7 429.6 322 425.4 316.6C446.3 309.6 462.3 304.3 473.2 300.7L460.6 262.8L441.6 269.1L345.6 301.1L326.6 307.4z"/><path fill="currentColor" d="M0 64C0 144.1 55.6 224.1 74.1 248.5C90.3 192.6 125.1 144.6 171.3 111.6C57.1 106.8 0 64 0 64zM640 64C640 64 582.9 106.8 468.7 111.6C514.9 144.6 549.7 192.6 565.9 248.5C584.4 224.1 640 144.1 640 64zM240 368C257.7 368 272 353.7 272 336L272 335.7C276.9 337.3 286.5 340.5 300.7 345.3L313.3 307.4L294.3 301.1L198.3 269.1L179.3 262.8L166.7 300.7C177.7 304.4 193.7 309.7 214.5 316.6C210.4 322 207.9 328.7 207.9 336C207.9 353.7 222.2 368 239.9 368zM432 336C432 328.7 429.6 322 425.4 316.6C446.3 309.6 462.3 304.3 473.2 300.7L460.6 262.8L441.6 269.1L345.6 301.1L326.6 307.4L339.2 345.3C353.4 340.6 363 337.4 367.8 335.7L367.8 336C367.8 353.7 382.1 368 399.8 368C417.5 368 431.8 353.7 431.8 336z"/></svg>