<svg xmlns="http://www.w3.org/2000/svg" viewBox="0 0 640 640"><!--! Font Awesome Pro 7.2.0 by @fontawesome - https://fontawesome.com License - https://fontawesome.com/license (Commercial License) Copyright 2026 Fonticons, Inc. --><path opacity=".4" fill="currentColor" d="M64 256L64 272C64 351.5 128.5 416 208 416C224.8 416 241 413.1 256 407.8L256 576L272 576C351.5 576 416 511.5 416 432C416 415.2 413.1 399 407.8 384L576 384L576 368C576 288.5 511.5 224 432 224C415.2 224 399 226.9 384 232.2L384 64L368 64C288.5 64 224 128.5 224 208C224 224.8 226.9 241 232.2 256L64 256zM352 320C352 337.7 337.7 352 320 352C302.3 352 288 337.7 288 320C288 302.3 302.3 288 320 288C337.7 288 352 302.3 352 320z"/><path fill="currentColor" d="M288 320C288 302.3 302.3 288 320 288C337.7 288 352 302.3 352 320C352 337.7 337.7 352 320 352C302.3 352 288 337.7 288 320z"/></svg>