<svg xmlns="http://www.w3.org/2000/svg" viewBox="0 0 640 640"><!--! Font Awesome Pro 7.2.0 by @fontawesome - https://fontawesome.com License - https://fontawesome.com/license (Commercial License) Copyright 2026 Fonticons, Inc. --><path opacity=".4" fill="currentColor" d="M64 288L64 416L196.1 416C216.3 445 250 464 288 464C326 464 359.7 445 379.9 416L416 416C433.7 416 448 430.3 448 448L448 480L576 480L576 448C576 359.6 504.4 288 416 288L384 288L352 256L320 256L320 192L256 192L256 256L224 256L192 288L64 288zM256 96L256 128L320 128L320 96L256 96z"/><path fill="currentColor" d="M128 192L128 128L448 128L448 192L128 192zM512 512L539.8 560.7C542.5 565.5 544 570.9 544 576.4C544 593.9 529.8 608 512.4 608L511.6 608C494.1 608 480 593.8 480 576.4C480 570.9 481.4 565.5 484.2 560.7L512 512z"/></svg>