<svg xmlns="http://www.w3.org/2000/svg" viewBox="0 0 640 640"><!--! Font Awesome Pro 7.2.0 by @fontawesome - https://fontawesome.com License - https://fontawesome.com/license (Commercial License) Copyright 2026 Fonticons, Inc. --><path opacity=".4" fill="currentColor" d="M224 64L224 256L288 256L288 128L434.7 128L480 173.3L480 256L544 256L544 146.7L470.6 73.3L461.2 63.9L223.9 63.9zM288 352C288 365.3 298.7 376 312 376C325.3 376 336 365.3 336 352C336 338.7 325.3 328 312 328C298.7 328 288 338.7 288 352zM288 448C288 461.3 298.7 472 312 472C325.3 472 336 461.3 336 448C336 434.7 325.3 424 312 424C298.7 424 288 434.7 288 448zM376 352C376 365.3 386.7 376 400 376C413.3 376 424 365.3 424 352C424 338.7 413.3 328 400 328C386.7 328 376 338.7 376 352zM376 448C376 461.3 386.7 472 400 472C413.3 472 424 461.3 424 448C424 434.7 413.3 424 400 424C386.7 424 376 434.7 376 448zM464 352C464 365.3 474.7 376 488 376C501.3 376 512 365.3 512 352C512 338.7 501.3 328 488 328C474.7 328 464 338.7 464 352zM464 448C464 461.3 474.7 472 488 472C501.3 472 512 461.3 512 448C512 434.7 501.3 424 488 424C474.7 424 464 434.7 464 448z"/><path fill="currentColor" d="M64 192L176 192L176 544L64 544L64 192zM224 256L576 256L576 544L224 544L224 256zM336 352C336 338.7 325.3 328 312 328C298.7 328 288 338.7 288 352C288 365.3 298.7 376 312 376C325.3 376 336 365.3 336 352zM336 448C336 434.7 325.3 424 312 424C298.7 424 288 434.7 288 448C288 461.3 298.7 472 312 472C325.3 472 336 461.3 336 448zM400 376C413.3 376 424 365.3 424 352C424 338.7 413.3 328 400 328C386.7 328 376 338.7 376 352C376 365.3 386.7 376 400 376zM424 448C424 434.7 413.3 424 400 424C386.7 424 376 434.7 376 448C376 461.3 386.7 472 400 472C413.3 472 424 461.3 424 448zM488 376C501.3 376 512 365.3 512 352C512 338.7 501.3 328 488 328C474.7 328 464 338.7 464 352C464 365.3 474.7 376 488 376zM512 448C512 434.7 501.3 424 488 424C474.7 424 464 434.7 464 448C464 461.3 474.7 472 488 472C501.3 472 512 461.3 512 448z"/></svg>