<svg xmlns="http://www.w3.org/2000/svg" viewBox="0 0 640 640"><!--! Font Awesome Pro 7.2.0 by @fontawesome - https://fontawesome.com License - https://fontawesome.com/license (Commercial License) Copyright 2026 Fonticons, Inc. --><path opacity=".4" fill="currentColor" d="M208 225.4L256 225.4L256 289.4L208 289.4L208 225.4zM208 417.4L256 417.4L256 481.4L208 481.4L208 417.4zM384 225.4L432 225.4L432 289.4L384 289.4L384 225.4zM384 417.4L432 417.4L432 481.4L384 481.4L384 417.4z"/><path fill="currentColor" d="M80 176L144 96L208 176L208 544L80 544L80 176zM256 176L320 96L384 176L384 544L256 544L256 176zM496 96L560 176L560 544L432 544L432 176L496 96z"/></svg>