<svg xmlns="http://www.w3.org/2000/svg" viewBox="0 0 640 640"><!--! Font Awesome Pro 7.2.0 by @fontawesome - https://fontawesome.com License - https://fontawesome.com/license (Commercial License) Copyright 2026 Fonticons, Inc. --><path opacity=".4" fill="currentColor" d="M64 64L304 64L448 208L448 400L208 400L208 576L64 576L64 64zM272 122.5L272 240L389.5 240L272 122.5z"/><path fill="currentColor" d="M252 488C252 463.7 271.7 444 296 444L312 444C336.3 444 356 463.7 356 488L356 504L316 504L316 488C316 485.8 314.2 484 312 484L296 484C293.8 484 292 485.8 292 488L292 568C292 570.2 293.8 572 296 572L312 572C314.2 572 316 570.2 316 568L316 552L356 552L356 568C356 592.3 336.3 612 312 612L296 612C271.7 612 252 592.3 252 568L252 488zM380 488C380 463.7 399.7 444 424 444L440 444C464.3 444 484 463.7 484 488L484 608L444 608L444 564L420 564L420 608L380 608L380 488zM420 524L444 524L444 488C444 485.8 442.2 484 440 484L424 484C421.8 484 420 485.8 420 488L420 524zM528 444L560 444C588.7 444 612 467.3 612 496L612 560C612 588.7 588.7 612 560 612L508 612L508 444L528 444zM548 572L560 572C566.6 572 572 566.6 572 560L572 496C572 489.4 566.6 484 560 484L548 484L548 572z"/></svg>