<svg xmlns="http://www.w3.org/2000/svg" viewBox="0 0 640 640"><!--! Font Awesome Pro 7.2.0 by @fontawesome - https://fontawesome.com License - https://fontawesome.com/license (Commercial License) Copyright 2026 Fonticons, Inc. --><path opacity=".4" fill="currentColor" d="M128 64L128 576L512 576L512 208L368 64L128 64zM232 384L288 384L288 328L352 328L352 384L408 384L408 448L352 448L352 504L288 504L288 448L232 448L232 384zM336 122.5L453.5 240L336 240L336 122.5z"/><path fill="currentColor" d="M352 328L288 328L288 384L232 384L232 448L288 448L288 504L352 504L352 448L408 448L408 384L352 384L352 328z"/></svg>