<svg xmlns="http://www.w3.org/2000/svg" viewBox="0 0 640 640"><!--! Font Awesome Pro 7.2.0 by @fontawesome - https://fontawesome.com License - https://fontawesome.com/license (Commercial License) Copyright 2026 Fonticons, Inc. --><path opacity=".4" fill="currentColor" d="M64 64L304 64L448 208L448 272.7C349.4 280.8 272 363.4 272 464C272 505.8 285.4 544.5 308 576L64 576L64 64zM272 122.5L272 240L389.5 240L272 122.5z"/><path fill="currentColor" d="M464 608C543.5 608 608 543.5 608 464C608 384.5 543.5 320 464 320C384.5 320 320 384.5 320 464C320 543.5 384.5 608 464 608zM524.9 425.4L460.9 513.4L449.9 528.5C445.5 524.1 427.8 506.4 396.7 475.3L385.4 464L408 441.4C413 446.4 425.7 459.1 446.1 479.5L499.1 406.6L508.5 393.7L534.4 412.5L525 425.4z"/></svg>