<svg xmlns="http://www.w3.org/2000/svg" viewBox="0 0 640 640"><!--! Font Awesome Pro 7.2.0 by @fontawesome - https://fontawesome.com License - https://fontawesome.com/license (Commercial License) Copyright 2026 Fonticons, Inc. --><path opacity=".4" fill="currentColor" d="M128 64L128 576L512 576L512 208L368 64L128 64zM184.4 400C187.6 396.3 208 372.4 245.8 328.4L261.4 310.2L297.8 341.4C290.6 349.9 273.8 369.4 247.6 400C273.8 430.6 290.6 450.1 297.8 458.6L261.4 489.8C256.4 484 235.2 459.2 197.8 415.6L184.4 400zM336 122.5L453.5 240L336 240L336 122.5zM342.2 341.4L378.6 310.2C383.6 316 404.8 340.8 442.2 384.4L455.6 400C452.4 403.7 432 427.6 394.2 471.6L378.6 489.8L342.2 458.6C349.4 450.1 366.2 430.6 392.4 400C366.2 369.4 349.4 349.9 342.2 341.4z"/><path fill="currentColor" d="M297.8 341.4C290.6 349.9 273.8 369.4 247.6 400C273.8 430.6 290.6 450.1 297.8 458.6L261.4 489.8C256.4 484 235.2 459.2 197.8 415.6L184.4 400C187.6 396.3 208 372.4 245.8 328.4L261.4 310.2L297.8 341.4zM378.6 310.2C383.6 316 404.8 340.8 442.2 384.4L455.6 400C452.4 403.7 432 427.6 394.2 471.6L378.6 489.8L342.2 458.6C349.4 450.1 366.2 430.6 392.4 400C366.2 369.4 349.4 349.9 342.2 341.4L378.6 310.2z"/></svg>