<svg xmlns="http://www.w3.org/2000/svg" viewBox="0 0 640 640"><!--! Font Awesome Pro 7.2.0 by @fontawesome - https://fontawesome.com License - https://fontawesome.com/license (Commercial License) Copyright 2026 Fonticons, Inc. --><path opacity=".4" fill="currentColor" d="M128 64L128 576L512 576L512 208L368 64L128 64zM208 400C208 346.4 245.7 301.6 296 290.6L296 424L429.4 424C418.4 474.3 373.6 512 320 512C258.1 512 208 461.9 208 400zM336 122.5L453.5 240L336 240L336 122.5zM344 290.6C386.6 299.9 420.1 333.4 429.4 376L344 376L344 290.6z"/><path fill="currentColor" d="M296 290.6C245.7 301.6 208 346.4 208 400C208 461.9 258.1 512 320 512C373.6 512 418.4 474.3 429.4 424L296 424L296 290.6zM429.4 376C420.1 333.4 386.6 299.9 344 290.6L344 376L429.4 376z"/></svg>