<svg xmlns="http://www.w3.org/2000/svg" viewBox="0 0 640 640"><!--! Font Awesome Pro 7.2.0 by @fontawesome - https://fontawesome.com License - https://fontawesome.com/license (Commercial License) Copyright 2026 Fonticons, Inc. --><path opacity=".4" fill="currentColor" d="M128 64L128 576L512 576L512 208L368 64L128 64zM222.1 424L256 390.1C266.3 400.4 279.6 413.7 296 430.1L296 320L344 320L344 430.1C360.4 413.7 373.7 400.4 384 390.1L417.9 424C414.4 427.5 387.4 454.5 336.9 505L319.9 522C316.4 518.5 289.4 491.5 238.9 441L221.9 424zM336 122.5L453.5 240L336 240L336 122.5z"/><path fill="currentColor" d="M320 521.9C316.5 518.4 289.5 491.4 239 440.9L222 423.9L255.9 390C266.2 400.3 279.5 413.6 295.9 430L295.9 319.9L343.9 319.9L343.9 430C360.3 413.6 373.6 400.3 383.9 390L417.9 424C414.4 427.5 387.4 454.5 336.9 505L319.9 522z"/></svg>