<svg xmlns="http://www.w3.org/2000/svg" viewBox="0 0 640 640"><!--! Font Awesome Pro 7.2.0 by @fontawesome - https://fontawesome.com License - https://fontawesome.com/license (Commercial License) Copyright 2026 Fonticons, Inc. --><path opacity=".4" fill="currentColor" d="M64 96L64 544L273.5 544C278.1 519.7 292.9 500.4 310 487.6C322.3 478.3 336.7 471.7 352.1 467.9L352.1 291.9L512.1 262.8L512.1 96.1L64.1 96.1zM112 160L176 160L176 224L112 224L112 160zM112 288L176 288L176 352L112 352L112 288zM112 416L176 416L176 480L112 480L112 416zM400 160L464 160L464 224L400 224L400 160z"/><path fill="currentColor" d="M624 291L624 527.9C624 551.2 606 563.3 594.9 568.4C583 573.8 569.5 575.9 560 575.9C550.5 575.9 537.1 573.8 525.1 568.4C514 563.4 496 551.2 496 527.9C496 504.6 514 492.5 525.1 487.4C537 482 550.5 479.9 560 479.9C564.6 479.9 570.1 480.4 576 481.5L576 396.5L448 419.8L448 559.9C448 583.2 430 595.3 418.9 600.4C407 605.8 393.5 607.9 384 607.9C374.5 607.9 361.1 605.8 349.1 600.4C338 595.4 320 583.2 320 559.9C320 536.6 338 524.5 349.1 519.4C361 514 374.5 511.9 384 511.9C388.6 511.9 394.1 512.4 400 513.5L400 331.7L419.7 328.1L595.7 296.1L624 291z"/></svg>