<svg xmlns="http://www.w3.org/2000/svg" viewBox="0 0 640 640"><!--! Font Awesome Pro 7.2.0 by @fontawesome - https://fontawesome.com License - https://fontawesome.com/license (Commercial License) Copyright 2026 Fonticons, Inc. --><path opacity=".4" fill="currentColor" d="M189.1 445.1C189.1 371.8 258.9 309.8 293.8 288L346.2 340.4L372.4 314.2C435.2 366.6 450.9 423.3 450.9 445.1C450.9 517.4 392.3 576 320 576C247.7 576 189.1 517.4 189.1 445.1zM267.6 484.5C267.6 513.4 291 536.9 320 536.9C349 536.9 372.4 513.5 372.4 484.5C372.4 445.2 320 406 320 406C320 406 267.6 445.3 267.6 484.5z"/><path fill="currentColor" d="M608 96L32 96L32 192L64 192L64 576L128 576L128 416C128 310 214 224 320 224C426 224 512 310 512 416L512 576L576 576L576 192L608 192L608 96z"/></svg>