<svg xmlns="http://www.w3.org/2000/svg" viewBox="0 0 640 640"><!--! Font Awesome Pro 7.2.0 by @fontawesome - https://fontawesome.com License - https://fontawesome.com/license (Commercial License) Copyright 2026 Fonticons, Inc. --><path opacity=".4" fill="currentColor" d="M32 160L32 208L64 320L32 432L32 480L135.1 397.5C184.2 454.6 271.7 512 352 512C528 512 608 320 608 320C608 320 528 128 352 128C274.7 128 190.7 181.2 140.7 236.1L32 160zM238.1 288C241.6 284.5 268.6 257.5 319.1 207L336.1 190L370 223.9C366.5 227.4 339.5 254.4 289 304.9L272 321.9L238.1 288zM254.1 400L271.1 383L431.1 223L448.1 206L482 239.9L465 256.9L305 416.9L288 433.9L254.1 400zM366.1 416L447.1 335L464.1 318L498 351.9L417 432.9L400 449.9L366.1 416z"/><path fill="currentColor" d="M369.9 224C366.4 227.5 339.4 254.5 288.9 305L271.9 322L238 288.1C241.5 284.6 268.5 257.6 319 207.1L336 190.1L369.9 224zM481.9 240L464.9 257L304.9 417L287.9 434L254 400.1L271 383.1L431 223.1L448 206.1L481.9 240zM497.9 352L416.9 433L399.9 450L366 416.1L447 335.1L464 318.1L497.9 352z"/></svg>