<svg xmlns="http://www.w3.org/2000/svg" viewBox="0 0 640 640"><!--! Font Awesome Pro 7.2.0 by @fontawesome - https://fontawesome.com License - https://fontawesome.com/license (Commercial License) Copyright 2026 Fonticons, Inc. --><path opacity=".4" fill="currentColor" d="M96 384L96 416C96 504.4 167.6 576 256 576L384 576C472.4 576 544 504.4 544 416L544 384L480 384C427.7 384 381.2 409.1 352 448L352 320L288 320L288 448C258.8 409.1 212.3 384 160 384L96 384z"/><path fill="currentColor" d="M392 128L480 64L480 192C480 262.7 422.7 320 352 320L288 320C217.3 320 160 262.7 160 192L160 64L248 128L320 32L392 128z"/></svg>