<svg xmlns="http://www.w3.org/2000/svg" viewBox="0 0 640 640"><!--! Font Awesome Pro 7.2.0 by @fontawesome - https://fontawesome.com License - https://fontawesome.com/license (Commercial License) Copyright 2026 Fonticons, Inc. --><path opacity=".4" fill="currentColor" d="M64 96L64 512L576 512L576 144L352 144L288 96L64 96zM218.7 448L240 384L400 384L421.3 448L218.6 448zM376 288C376 318.9 350.9 344 320 344C289.1 344 264 318.9 264 288C264 257.1 289.1 232 320 232C350.9 232 376 257.1 376 288z"/><path fill="currentColor" d="M264 288C264 257.1 289.1 232 320 232C350.9 232 376 257.1 376 288C376 318.9 350.9 344 320 344C289.1 344 264 318.9 264 288zM400 384L421.3 448L218.6 448L239.9 384L399.9 384z"/></svg>