<svg xmlns="http://www.w3.org/2000/svg" viewBox="0 0 640 640"><!--! Font Awesome Pro 7.2.0 by @fontawesome - https://fontawesome.com License - https://fontawesome.com/license (Commercial License) Copyright 2026 Fonticons, Inc. --><path opacity=".4" fill="currentColor" d="M64 96L64 512L576 512L576 144L352 144L288 96L64 96zM214.1 336L248 302.1C257 311.1 273 327.1 296 350.1L296 224L344 224L344 350.1C367 327.1 383 311.1 392 302.1L425.9 336C423.8 338.1 394.1 367.8 336.9 425L319.9 442C317.8 439.9 288.1 410.2 230.9 353L213.9 336z"/><path fill="currentColor" d="M320 441.9C317.9 439.8 288.2 410.1 231 352.9L214 335.9L247.9 302C256.9 311 272.9 327 295.9 350L295.9 223.9L343.9 223.9L343.9 350C366.9 327 382.9 311 391.9 302L425.9 336C423.8 338.1 394.1 367.8 336.9 425L319.9 442z"/></svg>