<svg xmlns="http://www.w3.org/2000/svg" viewBox="0 0 640 640"><!--! Font Awesome Pro 7.2.0 by @fontawesome - https://fontawesome.com License - https://fontawesome.com/license (Commercial License) Copyright 2026 Fonticons, Inc. --><path opacity=".4" fill="currentColor" d="M128 288L128 384L160 384L160 320L192 320L192 352L224 352L224 288L128 288zM288 288L320.5 288L335.8 226.9L351.3 230.8L389.1 79.5L327 64L289.2 215.3L304.7 219.2L288.5 284.2C288.2 285.5 288 286.8 288 288.1zM368 288L403.2 288L443.5 227.5L456.8 236.4L548 99.5L494.7 64L403.5 200.9L416.8 209.8L370.6 279.2C368.8 281.9 367.9 285 367.9 288.1z"/><path fill="currentColor" d="M128 288L64 288L64 384C64 436.3 89.1 482.8 128 512L128 576L192 576L192 540.8C202.3 542.9 213 544 224 544L352 544C363 544 373.7 542.9 384 540.8L384 576L448 576L448 512C486.9 482.8 512 436.3 512 384L512 352L576 352L576 288L224 288L224 352L192 352L192 320L160 320L160 384L128 384L128 288z"/></svg>