<svg xmlns="http://www.w3.org/2000/svg" viewBox="0 0 640 640"><!--! Font Awesome Pro 7.2.0 by @fontawesome - https://fontawesome.com License - https://fontawesome.com/license (Commercial License) Copyright 2026 Fonticons, Inc. --><path opacity=".4" fill="currentColor" d="M32 488C32 536.6 71.4 576 120 576C168.5 576 207.9 536.6 207.9 488C207.9 439.4 168.5 400.1 120 400.1C71.4 400.1 32 439.4 32 488zM160 488C160 510.1 142.1 528 120 528C97.9 528 80 510.1 80 488C80 465.9 97.9 448 120 448C142.1 448 160 465.9 160 488zM272 488C271.9 536.6 311.3 576 359.9 576.1C408.5 576.2 447.9 536.8 448 488.2C448.1 439.6 408.7 400.2 360.1 400.1C311.5 400 272.1 439.4 272 488zM400 488C400 510.1 382.1 528 360 528C337.9 528 320 510.1 320 488C320 465.9 337.9 448 360 448C382.1 448 400 465.9 400 488zM480 64L480 544L608 544L608 480L544 480L544 64L480 64z"/><path fill="currentColor" d="M277.8 160L346.4 320L256 320L192 224L192 160L277.8 160zM128 160L128 224L32 224L32 488C32 439.4 71.4 400 120 400C168.6 400 208 439.4 208 488C208 496.3 206.8 504.4 204.7 512L275.3 512C273.1 504.4 272 496.3 272 488C272 439.4 311.4 400 360 400C381.3 400 400.8 407.5 416 420.1L416 320L320 96L128 96L128 160z"/></svg>