<svg xmlns="http://www.w3.org/2000/svg" viewBox="0 0 640 640"><!--! Font Awesome Pro 7.2.0 by @fontawesome - https://fontawesome.com License - https://fontawesome.com/license (Commercial License) Copyright 2026 Fonticons, Inc. --><path opacity=".4" fill="currentColor" d="M304.3 219.3C304.3 238.7 310.7 257.4 322.3 272.7C324.7 275.9 327.4 279 330.3 281.8L358.5 310C361.4 312.9 364.4 315.5 367.6 318C382.9 329.6 401.6 336 421 336C452.8 336 482.1 319 497.8 291.4L568.3 168L552.3 152L448.3 256L432.3 240L528.3 128L512.3 112L400.3 208L384.3 192L488.3 88L472.3 72L348.9 142.5C321.3 158.3 304.3 187.6 304.3 219.3z"/><path fill="currentColor" d="M322.2 272.8C324.6 276 327.3 279.1 330.2 281.9L358.4 310.1C361.3 313 364.3 315.6 367.5 318.1L134.9 550.6L112.3 573.3L67 528L89.6 505.4L322.2 272.8z"/></svg>