<svg xmlns="http://www.w3.org/2000/svg" viewBox="0 0 640 640"><!--! Font Awesome Pro 7.2.0 by @fontawesome - https://fontawesome.com License - https://fontawesome.com/license (Commercial License) Copyright 2026 Fonticons, Inc. --><path opacity=".4" fill="currentColor" d="M224 384C224 449.6 243.6 510.7 277.3 561.7L330.7 526.4C303.7 485.6 288 436.7 288 384C288 331.3 303.7 282.4 330.7 241.7L277.3 206.4C243.6 257.3 224 318.4 224 384zM533.3 241.7C560.3 282.4 576 331.3 576 384C576 436.7 560.3 485.6 533.3 526.3L586.7 561.6C620.4 510.7 640 449.6 640 384C640 318.4 620.4 257.3 586.7 206.3L533.3 241.6z"/><path fill="currentColor" d="M96 64L64 64L64 256L0 256L0 320L64 320L64 480L0 480L0 544L128 544L128 320L192 320L192 256L128 256L128 128L224 128L224 64L96 64zM398.6 305.4L376 282.8L330.7 328.1L386.7 384.1L330.7 440.1L376 485.4L432 429.4L488 485.4L533.3 440.1L477.3 384.1L533.3 328.1L488 282.8C474.7 296.1 456 314.8 432 338.8L398.6 305.4z"/></svg>