<svg xmlns="http://www.w3.org/2000/svg" viewBox="0 0 640 640"><!--! Font Awesome Pro 7.2.0 by @fontawesome - https://fontawesome.com License - https://fontawesome.com/license (Commercial License) Copyright 2026 Fonticons, Inc. --><path opacity=".4" fill="currentColor" d="M64 320C64 461.4 178.6 576 320 576C461.4 576 576 461.4 576 320C576 178.6 461.4 64 320 64C178.6 64 64 178.6 64 320zM147.7 340.6L172.4 299.4L281.5 364.9C292.2 356.8 305.6 352 320 352C355.3 352 384 380.7 384 416C384 451.3 355.3 480 320 480C284.7 480 256 451.3 256 416C256 412.6 256.3 409.3 256.8 406.1L147.7 340.6z"/><path fill="currentColor" d="M281.5 364.9C292.2 356.8 305.6 352 320 352C355.3 352 384 380.7 384 416C384 451.3 355.3 480 320 480C284.7 480 256 451.3 256 416C256 412.6 256.3 409.3 256.8 406.1L147.7 340.6L172.4 299.4L281.5 364.9z"/></svg>