<svg xmlns="http://www.w3.org/2000/svg" viewBox="0 0 640 640"><!--! Font Awesome Pro 7.2.0 by @fontawesome - https://fontawesome.com License - https://fontawesome.com/license (Commercial License) Copyright 2026 Fonticons, Inc. --><path opacity=".4" fill="currentColor" d="M63 272L64.3 368L119.6 375C124.1 391.6 130.7 407.4 139 422.1L104 467.1L171.9 535L216.5 500.3C231.3 508.8 247.2 515.6 264 520.3L271 576L367 576L373.9 521C391.1 516.4 407.5 509.7 422.6 501.1L466.1 535L534 467.1L500.5 424C509.4 408.7 516.3 392.2 521.1 374.7L575.1 368L575.1 272L521.1 265.3C516.4 247.9 509.4 231.3 500.5 216L534 172.9L466.1 105L422.6 138.9C407.4 130.3 391.1 123.6 373.9 119L367 64L271 64L264 119.7C247.2 124.4 231.3 131.2 216.5 139.7L171.9 105L104 172.9L139 217.9C130.7 232.6 124.2 248.3 119.6 264.9L63 272zM172 320C178.5 313.5 193.8 298.2 218.1 273.9L232.2 259.8L260.5 288.1C251.7 296.9 241 307.6 228.5 320.1C241 332.6 251.7 343.3 260.5 352.1L232.2 380.4C225.7 373.9 210.4 358.6 186.1 334.3L172 320zM272.3 439L276.8 419.5L324.8 211.5L329.3 192L368.3 201L363.8 220.5L315.8 428.5L311.3 448L272.3 439zM380 288L408.3 259.7C414.8 266.2 430.1 281.5 454.4 305.8L468.6 320C462.1 326.5 446.8 341.8 422.5 366.1L408.3 380.3L380 352C388.8 343.2 399.5 332.5 412 320C399.5 307.5 388.8 296.8 380 288z"/><path fill="currentColor" d="M368.3 201L363.8 220.5L315.8 428.5L311.3 448L272.3 439L276.8 419.5L324.8 211.5L329.3 192L368.3 201zM260.6 288C251.8 296.8 241.1 307.5 228.6 320C241.1 332.5 251.8 343.2 260.6 352L232.3 380.3C225.8 373.8 210.5 358.5 186.2 334.2L172 320C178.5 313.5 193.8 298.2 218.1 273.9L232.2 259.8L260.5 288.1zM408.3 259.7C414.8 266.2 430.1 281.5 454.4 305.8L468.6 320C462.1 326.5 446.8 341.8 422.5 366.1L408.3 380.3L380 352C388.8 343.2 399.5 332.5 412 320C399.5 307.5 388.8 296.8 380 288L408.3 259.7z"/></svg>