<svg xmlns="http://www.w3.org/2000/svg" viewBox="0 0 640 640"><!--! Font Awesome Pro 7.2.0 by @fontawesome - https://fontawesome.com License - https://fontawesome.com/license (Commercial License) Copyright 2026 Fonticons, Inc. --><path opacity=".4" fill="currentColor" d="M97.4 296L209 296C213.9 208 244.7 126.5 279.9 74.4C181.2 103.5 107.3 190.4 97.5 296zM257 296L270.1 296C273.2 295.1 308.2 284.8 375.1 265.1L366 296L447.4 296C443.5 233.7 425.1 174.8 402.1 130.5C389.1 105.5 375.5 86.8 363.8 75.1C358.4 69.7 354.5 66.9 352.2 65.4C349.9 66.9 346 69.7 340.6 75.1C328.9 86.8 315.3 105.5 302.3 130.5C279.3 174.8 260.8 233.7 257 296zM302.9 510.6C315.7 535.1 329.1 553.4 340.6 564.9C346 570.3 349.9 573.1 352.2 574.6C354.5 573.1 358.4 570.3 363.8 564.9C375.5 553.2 389.1 534.5 402.1 509.5C425.1 465.2 443.6 406.3 447.4 344L351.8 344L350.2 349.5L302.8 510.6zM424.7 74.4C459.9 126.5 490.7 208 495.6 296L607.2 296C597.3 190.4 523.4 103.5 424.7 74.4zM424.7 565.6C523.4 536.5 597.3 449.6 607.1 344L495.5 344C490.6 432 459.8 513.5 424.6 565.6z"/><path fill="currentColor" d="M304.3 336L32.3 416L128.3 464L129.7 465.4C60.1 534.9 23.2 571.8 19 576L64.3 621.3C68.5 617.1 105.4 580.2 174.9 510.7L176.3 512.1L224.3 608.1L304.3 336.1z"/></svg>