<svg xmlns="http://www.w3.org/2000/svg" viewBox="0 0 640 640"><!--! Font Awesome Pro 7.2.0 by @fontawesome - https://fontawesome.com License - https://fontawesome.com/license (Commercial License) Copyright 2026 Fonticons, Inc. --><path opacity=".4" fill="currentColor" d="M128 240L128 288L256 288L256 240L128 240zM128 352L128 400L256 400L256 352L128 352zM128 512L128 560L352 560L352 512L128 512zM320.3 327.9C321.4 344.1 326 359.3 333.2 372.8L368.5 382.2L376.5 384.3L420 359.1L420 383.5L383 420.5C396.8 427.2 412.2 431.2 428.4 431.7L454.2 405.9L460 400L460 349.7L481.2 361.9L494.7 412.5C507.7 403.7 518.8 392.2 527.1 378.8L517.7 343.6L515.5 335.6L472 310.4L493.2 298.2L543.8 311.7C542.7 295.5 538.1 280.3 530.9 266.8L495.6 257.4L487.6 255.3L444.1 280.4L444.1 256L481.1 219C467.3 212.3 451.9 208.3 435.7 207.8L409.9 233.6L404.1 239.5L404.1 289.8L382.9 277.6L369.4 227C356.4 235.8 345.3 247.3 337 260.7L346.4 295.9L348.6 303.9L392.1 329L371 341.2L320.4 327.6zM456 320C456 333.3 445.3 344 432 344C418.7 344 408 333.3 408 320C408 306.7 418.7 296 432 296C445.3 296 456 306.7 456 320z"/><path fill="currentColor" d="M96 128L528 128L608 208L608 432L528 512L48 512L48 144L0 144L0 96L96 96L96 128zM432 208C370.1 208 320 258.1 320 320C320 381.9 370.1 432 432 432C493.9 432 544 381.9 544 320C544 258.1 493.9 208 432 208zM128 400L256 400L256 352L128 352L128 400zM432 344C418.7 344 408 333.3 408 320C408 306.7 418.7 296 432 296C445.3 296 456 306.7 456 320C456 333.3 445.3 344 432 344zM128 288L256 288L256 240L128 240L128 288z"/></svg>