<svg xmlns="http://www.w3.org/2000/svg" viewBox="0 0 640 640"><!--! Font Awesome Pro 7.2.0 by @fontawesome - https://fontawesome.com License - https://fontawesome.com/license (Commercial License) Copyright 2026 Fonticons, Inc. --><path opacity=".4" fill="currentColor" d="M160 296L160 344L200 344L200 480L248 480L248 344L296 344L296 480L344 480L344 344L392 344L392 480L440 480L440 344L480 344L480 296L440 296L440 160L392 160L392 296L344 296L344 160L296 160L296 296L248 296L248 160L200 160L200 296L160 296z"/><path fill="currentColor" d="M96 96L544 96L544 544L96 544L96 96zM160 160L160 480L480 480L480 160L160 160z"/></svg>