<svg xmlns="http://www.w3.org/2000/svg" viewBox="0 0 640 640"><!--! Font Awesome Pro 7.2.0 by @fontawesome - https://fontawesome.com License - https://fontawesome.com/license (Commercial License) Copyright 2026 Fonticons, Inc. --><path opacity=".4" fill="currentColor" d="M0 128L0 429.3L9.4 438.7L137.4 566.7L146.8 576.1L288.1 576.1L288.1 402.8L278.7 393.4C125.1 239.9 201.5 316.2 160 274.7L114.7 320C163.5 368.8 179.8 385.1 205.7 411L164.1 438.8L80 354.7L80 128L0 128zM352 402.7L352 576L493.3 576L502.7 566.6L630.7 438.6L640.1 429.2L640.1 127.9L560.1 127.9L560.1 354.6L476 438.7L434.3 410.9C537.2 308 493 352.2 525.3 319.9L480 274.7C435.8 318.9 410.3 344.4 361.4 393.3L352 402.7z"/><path fill="currentColor" d="M192 192C192 121.3 249.3 64 320 64C390.7 64 448 121.3 448 192C448 262.7 390.7 320 320 320C249.3 320 192 262.7 192 192z"/></svg>