<svg xmlns="http://www.w3.org/2000/svg" viewBox="0 0 640 640"><!--! Font Awesome Pro 7.2.0 by @fontawesome - https://fontawesome.com License - https://fontawesome.com/license (Commercial License) Copyright 2026 Fonticons, Inc. --><path opacity=".4" fill="currentColor" d="M32 448L32 576L428.4 576L438.6 569C539.8 499.5 593.4 462.6 599.6 458.3L554.3 392.4C542.6 400.5 500.1 429.7 426.8 480L288 480L288 432L416 432L416 368L178.7 368L169.3 377.4L98.7 448L32 448z"/><path fill="currentColor" d="M304 320C383.5 320 448 255.5 448 176C448 96.5 383.5 32 304 32C224.5 32 160 96.5 160 176C160 255.5 224.5 320 304 320zM320 80L320 104L352 104L352 136L290.2 136C284.6 136 280 140.6 280 146.2C280 151.1 283.5 155.3 288.3 156.2L333.3 164.4C353.3 168 367.9 185.5 367.9 205.9C367.9 229.2 349 248.1 325.7 248.1L319.9 248.1L319.9 272.1L287.9 272.1L287.9 248.1L255.9 248.1L255.9 216.1L325.7 216.1C331.3 216.1 335.9 211.5 335.9 205.9C335.9 201 332.4 196.8 327.6 195.9L282.6 187.7C262.6 184.1 248 166.6 248 146.2C248 123.6 265.7 105.2 288 104.1L288 80L320 80z"/></svg>