<svg xmlns="http://www.w3.org/2000/svg" viewBox="0 0 640 640"><!--! Font Awesome Pro 7.2.0 by @fontawesome - https://fontawesome.com License - https://fontawesome.com/license (Commercial License) Copyright 2026 Fonticons, Inc. --><path opacity=".4" fill="currentColor" d="M64.3 393.4C72.5 401.2 114 440.7 188.8 512C231.9 553.1 289.2 576 348.8 576L368 576C405.8 576 440.9 564.1 469.6 543.8C448 534.5 435.5 529.2 432 527.7L432 464.4L441.7 460.2L499.4 435.5L544 331.5L544 160L480 160L480 320L448 320L448 96L384 96L384 320L352 320L352 64L288 64L288 320L256 320L256 96L192 96L192 400C192 401.5 192 403.1 192.1 404.6C160.6 374.6 136.4 351.6 119.5 335.5L64.3 393.4zM256 432L288 416L304 384L320 416L352 432L320 448L304 480L288 448L256 432z"/><path fill="currentColor" d="M80 128L56 184L0 208L56 232L80 288L104 232L160 208L104 184L80 128zM560 416L536 472L480 496L536 520L560 576L584 520L640 496L584 472L560 416z"/></svg>