<svg xmlns="http://www.w3.org/2000/svg" viewBox="0 0 640 640"><!--! Font Awesome Pro 7.2.0 by @fontawesome - https://fontawesome.com License - https://fontawesome.com/license (Commercial License) Copyright 2026 Fonticons, Inc. --><path opacity=".4" fill="currentColor" d="M128 336L128 427C128 460.9 141.5 493.5 165.5 517.5L177.1 529.1C207.1 559.1 247.8 576 290.2 576L351.9 576C440.3 576 511.9 504.4 511.9 416L511.9 128L447.9 128L447.9 384L351.9 384L351.9 448L207.9 448L207.9 416L319.9 416L319.9 336L127.9 336zM160 64L160 304L224 304L224 64L160 64z"/><path fill="currentColor" d="M320 192L256 192L256 304L320 304L320 192zM416 224L352 224L352 352L416 352L416 224z"/></svg>