<svg xmlns="http://www.w3.org/2000/svg" viewBox="0 0 640 640"><!--! Font Awesome Pro 7.2.0 by @fontawesome - https://fontawesome.com License - https://fontawesome.com/license (Commercial License) Copyright 2026 Fonticons, Inc. --><path opacity=".4" fill="currentColor" d="M64.5 393.4C72.7 401.2 114.2 440.7 189 512C232.1 553.1 289.4 576 349 576L368.2 576C465.4 576 544.2 497.2 544.2 400L544.2 160L480.2 160L480.2 320L448.2 320L448.2 96L384.2 96L384.2 320L352.2 320L352.2 64L288.2 64L288.2 320L256.2 320L256.2 96L192.2 96L192.2 400C192.2 401.5 192.2 403.1 192.3 404.6C160.8 374.6 136.6 351.6 119.7 335.5L64.5 393.4zM256.2 384L448.2 384L448.2 416L355.2 416C373.1 434.7 384.2 460.1 384.2 488L384.2 512L352.2 512L352.2 488C352.2 448.2 320 416 280.2 416L256.2 416L256.2 384z"/><path fill="currentColor" d="M272.2 384L256.2 384L256.2 416L280.2 416C320 416 352.2 448.2 352.2 488L352.2 512L384.2 512L384.2 488C384.2 460.1 373.2 434.7 355.2 416L448.2 416L448.2 384L272.2 384z"/></svg>