<svg xmlns="http://www.w3.org/2000/svg" viewBox="0 0 640 640"><!--! Font Awesome Pro 7.2.0 by @fontawesome - https://fontawesome.com License - https://fontawesome.com/license (Commercial License) Copyright 2026 Fonticons, Inc. --><path opacity=".4" fill="currentColor" d="M31.9 448L131.8 448L104.4 576L169.9 576L197.3 448L323.8 448L296.4 576L361.9 576L368 547.4L368 368L400 368C400 341.6 408 317 421.7 296.6L430.4 256L466 256C484.4 245.8 505.5 240 528 240C529.9 240 531.8 240 533.8 240.1L544.1 192L444.2 192L471.6 64L406.1 64L378.7 192L252.2 192L279.6 64L214.1 64L186.7 192L86.8 192L73.1 256L173 256L145.6 384L45.7 384L32 448zM211 384L238.4 256L364.9 256L337.5 384L211 384z"/><path fill="currentColor" d="M496 368L496 416L560 416L560 368C560 350.3 545.7 336 528 336C510.3 336 496 350.3 496 368zM448 416L448 368C448 323.8 483.8 288 528 288C572.2 288 608 323.8 608 368L608 416L640 416L640 608L416 608L416 416L448 416z"/></svg>