<svg xmlns="http://www.w3.org/2000/svg" viewBox="0 0 640 640"><!--! Font Awesome Pro 7.2.0 by @fontawesome - https://fontawesome.com License - https://fontawesome.com/license (Commercial License) Copyright 2026 Fonticons, Inc. --><path opacity=".4" fill="currentColor" d="M0 459.9C0 366.3 74.9 290.1 168 288C169.3 288 170.6 288 171.9 288C205.8 288 239 298 267.3 316.9C370.4 385.6 461.6 446.4 541.1 499.4L492.9 290.4C576.3 304.1 640 376.6 640 464L640 512L0 512L0 459.9z"/><path fill="currentColor" d="M149.1 289.1L192 96L256 96L320 144L384 96L448 96L541.1 499.4L267.3 316.9C239.1 298 205.9 288 171.9 288L168 288C161.6 288 155.3 288.4 149.1 289.1z"/></svg>