<svg xmlns="http://www.w3.org/2000/svg" viewBox="0 0 640 640"><!--! Font Awesome Pro 7.2.0 by @fontawesome - https://fontawesome.com License - https://fontawesome.com/license (Commercial License) Copyright 2026 Fonticons, Inc. --><path opacity=".4" fill="currentColor" d="M181.6 303.5C201.9 317.8 220.4 330.8 237.1 342.6C225.4 359.4 212.5 378 198.4 398.3C223.1 396.2 245.7 394.3 266 392.6C267.9 413 269.9 435.5 272.1 460.2C289.7 442.7 305.7 426.8 320.3 412.4C334.8 426.8 350.9 442.8 368.5 460.2C370.7 435.5 372.8 413 374.6 392.6C395 394.3 417.5 396.2 442.2 398.3C428 377.9 415.1 359.4 403.5 342.6C420.2 330.8 438.7 317.8 459 303.5C435.1 297 413.2 291.1 393.5 285.7C398.7 265.9 404.5 244 410.8 220.1C388.3 230.5 367.8 240 349.2 248.6C340.5 230.1 330.9 209.6 320.3 187.2C309.7 209.6 300.1 230.1 291.4 248.6C272.8 240 252.3 230.5 229.8 220.1C236.1 244.1 241.9 265.9 247.1 285.7L181.6 303.5z"/><path fill="currentColor" d="M320.2 36.8C339.2 77.2 359.1 119.5 380 163.8C424.4 143.3 466.9 123.6 507.4 104.9C496 148 484 193.3 471.5 240.6C518.7 253.4 563.9 265.7 606.9 277.4C570.4 303.1 532.2 330.1 492.2 358.3C520.1 398.5 546.8 436.9 572.3 473.5C527.8 469.8 481.2 465.8 432.4 461.7C428 510.4 423.7 557 419.7 601.5C388 570.1 354.8 537.1 320.1 502.6C285.4 537.1 252.2 570.1 220.5 601.5C216.5 557.1 212.2 510.5 207.8 461.7C159 465.8 112.4 469.7 67.9 473.5C93.4 436.9 120.1 398.4 148 358.3C108 330.1 69.8 303.1 33.3 277.4C76.4 265.7 121.5 253.4 168.7 240.6C156.2 193.3 144.2 148 132.8 104.9C173.3 123.6 215.8 143.3 260.2 163.8C281 119.5 301 77.2 320 36.8zM320.2 187.1C309.6 209.5 300 230 291.3 248.5C272.7 239.9 252.2 230.4 229.7 220C236 244 241.8 265.8 247 285.6L181.5 303.4C201.8 317.7 220.3 330.7 237 342.5C225.3 359.3 212.4 377.9 198.3 398.2C223 396.1 245.6 394.2 265.9 392.5C267.8 412.9 269.8 435.4 272 460.1C289.6 442.6 305.6 426.7 320.2 412.3C334.7 426.7 350.8 442.7 368.4 460.1C370.6 435.4 372.7 412.9 374.5 392.5C394.9 394.2 417.4 396.1 442.1 398.2C427.9 377.8 415 359.3 403.4 342.5C420.1 330.7 438.6 317.7 458.9 303.4C435 296.9 413.1 291 393.4 285.6C398.6 265.8 404.4 243.9 410.7 220C388.2 230.4 367.7 239.9 349.1 248.5C340.4 230 330.8 209.5 320.2 187.1z"/></svg>