<svg xmlns="http://www.w3.org/2000/svg" viewBox="0 0 640 640"><!--! Font Awesome Pro 7.2.0 by @fontawesome - https://fontawesome.com License - https://fontawesome.com/license (Commercial License) Copyright 2026 Fonticons, Inc. --><path opacity=".4" fill="currentColor" d="M96 288C96 164.3 196.3 64 320 64C443.7 64 544 164.3 544 288L480 288C480 199.6 408.4 128 320 128C231.6 128 160 199.6 160 288L96 288zM384 528C421.3 528.1 458.7 528.1 496 528.1L496 435.2C524.7 418.6 544 387.6 544 352L544 576.1L520 576.1C474.7 576.1 429.3 576 384 576L384 528z"/><path fill="currentColor" d="M96 288L256 288L256 448L192 448C139 448 96 405 96 352L96 288zM384 288L544 288L544 352C544 405 501 448 448 448L384 448L384 288zM304 480L336 480C362.5 480 384 501.5 384 528L384 576L256 576L256 528C256 501.5 277.5 480 304 480z"/></svg>