<svg xmlns="http://www.w3.org/2000/svg" viewBox="0 0 640 640"><!--! Font Awesome Pro 7.2.0 by @fontawesome - https://fontawesome.com License - https://fontawesome.com/license (Commercial License) Copyright 2026 Fonticons, Inc. --><path opacity=".4" fill="currentColor" d="M64 69.2L64 576L320 576L320 384L384 384L384 320L334.3 260.4C320.7 149.7 226.4 64 112 64C95.5 64 79.5 65.8 64 69.2zM240 256C240 273.7 225.7 288 208 288C190.3 288 176 273.7 176 256C176 238.3 190.3 224 208 224C225.7 224 240 238.3 240 256zM176 448L272 424L272 496L176 488L176 448z"/><path fill="currentColor" d="M520 352C520 338.7 530.7 328 544 328C557.3 328 568 338.7 568 352C568 365.3 557.3 376 544 376C530.7 376 520 365.3 520 352zM480 376C493.3 376 504 386.7 504 400C504 413.3 493.3 424 480 424C466.7 424 456 413.3 456 400C456 386.7 466.7 376 480 376zM416 424C429.3 424 440 434.7 440 448C440 461.3 429.3 472 416 472C402.7 472 392 461.3 392 448C392 434.7 402.7 424 416 424zM544 424C557.3 424 568 434.7 568 448C568 461.3 557.3 472 544 472C530.7 472 520 461.3 520 448C520 434.7 530.7 424 544 424zM520 544C520 530.7 530.7 520 544 520C557.3 520 568 530.7 568 544C568 557.3 557.3 568 544 568C530.7 568 520 557.3 520 544zM480 472C493.3 472 504 482.7 504 496C504 509.3 493.3 520 480 520C466.7 520 456 509.3 456 496C456 482.7 466.7 472 480 472z"/></svg>