<svg xmlns="http://www.w3.org/2000/svg" viewBox="0 0 640 640"><!--! Font Awesome Pro 7.2.0 by @fontawesome - https://fontawesome.com License - https://fontawesome.com/license (Commercial License) Copyright 2026 Fonticons, Inc. --><path opacity=".4" fill="currentColor" d="M32 229.1C32 365.9 185.5 489.2 288 560C290.3 558.4 292.6 556.8 295 555.2C280.3 528.1 272 497 272 464C272 358 358 272 464 272C489.3 272 513.4 276.9 535.5 285.8C541 267.3 544 248.3 544 229.2C544 155.7 484.4 96.1 410.9 96.1C368.2 96.1 328.1 116.6 303 151.2L288 171.9L273 151.2C248 116.5 207.8 96 165.1 96C91.6 96 32 155.6 32 229.1z"/><path fill="currentColor" d="M464 608C543.5 608 608 543.5 608 464C608 384.5 543.5 320 464 320C384.5 320 320 384.5 320 464C320 543.5 384.5 608 464 608zM524.9 425.4L460.9 513.4L449.9 528.5C445.5 524.1 427.8 506.4 396.7 475.3L385.4 464L408 441.4C413 446.4 425.7 459.1 446.1 479.5L499.1 406.6L508.5 393.7L534.4 412.5L525 425.4z"/></svg>