<svg xmlns="http://www.w3.org/2000/svg" viewBox="0 0 640 640"><!--! Font Awesome Pro 7.2.0 by @fontawesome - https://fontawesome.com License - https://fontawesome.com/license (Commercial License) Copyright 2026 Fonticons, Inc. --><path opacity=".4" fill="currentColor" d="M128 256C128 215.7 147 177.8 179.2 153.6L320 48L460.8 153.6C493 177.8 512 215.7 512 256L512 496L352 576L352 320L448 288L448 256L192 256L192 288L288 320L288 576L128 496L128 256z"/><path fill="currentColor" d="M96 320L32 320L64 64L96 64L96 320zM352 320L352 576L288 576L288 320L192 288L192 256L448 256L448 288L352 320zM544 64L576 64L608 320L544 320L544 64z"/></svg>