<svg xmlns="http://www.w3.org/2000/svg" viewBox="0 0 640 640"><!--! Font Awesome Pro 7.2.0 by @fontawesome - https://fontawesome.com License - https://fontawesome.com/license (Commercial License) Copyright 2026 Fonticons, Inc. --><path opacity=".4" fill="currentColor" d="M45.5 320.1L52.3 332L176 548.1L182.9 560.2L458 560.2L464.9 548.1L588.6 332L595.4 320.1L588.6 308.2L464.9 92.1L458 80L182.9 80L176 92.1L52.3 308.2L45.5 320.1zM208.5 296L296.5 296L296.5 208L344.5 208L344.5 296L432.5 296L432.5 344L344.5 344L344.5 432L296.5 432L296.5 344L208.5 344L208.5 296z"/><path fill="currentColor" d="M296.5 408L296.5 432L344.5 432L344.5 344L432.5 344L432.5 296L344.5 296L344.5 208L296.5 208L296.5 296L208.5 296L208.5 344L296.5 344L296.5 408z"/></svg>