<svg xmlns="http://www.w3.org/2000/svg" viewBox="0 0 640 640"><!--! Font Awesome Pro 7.2.0 by @fontawesome - https://fontawesome.com License - https://fontawesome.com/license (Commercial License) Copyright 2026 Fonticons, Inc. --><path opacity=".4" fill="currentColor" d="M2.6 414.3L46.5 433.8L64.6 393.1L64.6 544L192.6 544L192.6 436C212.4 443.7 234 448 256.6 448C279.2 448 300.8 443.7 320.6 436L320.6 544L448.6 544L448.6 448L384.6 448L384.6 405.2C346.8 387.2 320.6 348.7 320.6 304L320.6 288L352.6 288L352.6 304C352.6 328.9 363.9 351.1 381.7 365.7C382.6 366.5 383.6 367.2 384.6 368C393.9 375 404.8 380 416.6 382.4C421.8 383.4 427.1 384 432.6 384L560.6 384C578.6 384 595.2 378 608.6 368C628 353.4 640.6 330.2 640.6 304C640.6 265.3 613.1 233 576.6 225.6L576.6 208C576.6 192.6 572.2 178.1 564.6 165.9C572.5 158 582.5 148 594.5 136L560.5 102.1C548.9 113.7 538.1 124.5 528.1 134.5C518.4 130.3 507.7 128 496.5 128L464.5 128C462.5 128 460.6 128.1 458.7 128.2C447.2 116.7 435.8 105.3 424.5 94L390.6 127.9L407.6 144.9L411.1 148.4C405.9 153.1 401.3 158.4 397.5 164.2L288.5 127.9L224.5 127.9C117.6 132.4 32.5 220.2 32.5 327.9L32.5 346.8L2.6 414.1zM480.5 296C480.5 309.3 469.8 320 456.5 320C443.2 320 432.5 309.3 432.5 296C432.5 282.7 443.2 272 456.5 272C469.8 272 480.5 282.7 480.5 296zM480.5 208C480.5 216.8 473.3 224 464.5 224C455.7 224 448.5 216.8 448.5 208C448.5 199.2 455.7 192 464.5 192C473.3 192 480.5 199.2 480.5 208zM544.5 208C544.5 216.8 537.3 224 528.5 224C519.7 224 512.5 216.8 512.5 208C512.5 199.2 519.7 192 528.5 192C537.3 192 544.5 199.2 544.5 208zM592.5 296C592.5 309.3 581.8 320 568.5 320C555.2 320 544.5 309.3 544.5 296C544.5 282.7 555.2 272 568.5 272C581.8 272 592.5 282.7 592.5 296z"/><path fill="currentColor" d="M448.5 208C448.5 199.2 455.7 192 464.5 192C473.3 192 480.5 199.2 480.5 208C480.5 216.8 473.3 224 464.5 224C455.7 224 448.5 216.8 448.5 208zM512.5 208C512.5 199.2 519.7 192 528.5 192C537.3 192 544.5 199.2 544.5 208C544.5 216.8 537.3 224 528.5 224C519.7 224 512.5 216.8 512.5 208zM416.5 416L416.5 382.4C421.7 383.4 427 384 432.5 384L480.5 384L480.5 416L416.5 416zM544.5 416L544.5 384L560.5 384C578.5 384 595.1 378 608.5 368L608.5 416L544.5 416z"/></svg>