<svg xmlns="http://www.w3.org/2000/svg" viewBox="0 0 640 640"><!--! Font Awesome Pro 7.2.0 by @fontawesome - https://fontawesome.com License - https://fontawesome.com/license (Commercial License) Copyright 2026 Fonticons, Inc. --><path opacity=".4" fill="currentColor" d="M48 112L48 288L224 288L224 224L153.7 224C186.9 166.6 249 128 320 128C426 128 512 214 512 320C512 426 426 512 320 512C254.8 512 197.1 479.5 162.4 429.7L109.9 466.3C156.1 532.6 233 576 320 576C461.4 576 576 461.4 576 320C576 178.6 461.4 64 320 64C234.3 64 158.5 106.1 112 170.7L112 112L48 112z"/><path fill="currentColor" d="M344 192L344 310.1C388.6 354.8 413.3 379.4 417.9 384L384 417.9C380.5 414.4 353.5 387.4 303 336.9L296 329.9L296 192L344 192z"/></svg>