<svg xmlns="http://www.w3.org/2000/svg" viewBox="0 0 640 640"><!--! Font Awesome Pro 7.2.0 by @fontawesome - https://fontawesome.com License - https://fontawesome.com/license (Commercial License) Copyright 2026 Fonticons, Inc. --><path opacity=".4" fill="currentColor" d="M306.8 412.1C277.9 404.3 253.7 385.3 239 359.9L231 346.1L203.3 362.1L211.3 375.9C235.3 417.4 279.6 445.9 330.6 447.8L306.8 412z"/><path fill="currentColor" d="M64 576L64 383.2C64 273.7 133.7 176.2 237.4 140.9L416 80L448 128L400 160L504 224L576 416L512 480L432 480L373.4 409.6C361.8 413.7 349.3 416 336.2 416L336 416C329.7 416 323.5 415.5 317.4 414.5C313.8 413.9 310.2 413.1 306.7 412.2L306.7 412.2C277.8 404.4 253.6 385.4 238.9 360L230.9 346.2L203.2 362.2L211.2 376C235.2 417.5 279.5 446 330.5 447.9L416 576L64 576zM392 288C405.3 288 416 277.3 416 264C416 250.7 405.3 240 392 240C378.7 240 368 250.7 368 264C368 277.3 378.7 288 392 288z"/></svg>