<svg xmlns="http://www.w3.org/2000/svg" viewBox="0 0 640 640"><!--! Font Awesome Pro 7.2.0 by @fontawesome - https://fontawesome.com License - https://fontawesome.com/license (Commercial License) Copyright 2026 Fonticons, Inc. --><path opacity=".4" fill="currentColor" d="M32 320C32 275.4 65.2 238.5 108.3 232.8C104.4 239.2 101.3 246.2 99.2 253.6C98.1 257.3 97.3 261.1 96.8 265C96.5 266.9 96.3 268.9 96.2 270.9C96.1 272.9 96 274.9 96 276.9C96 280.5 96.2 284 96.7 287.6C86.6 294.9 80 306.7 80 320.1L80 400.1L32 400.1L32 320.1zM192 192L352 192L352 240C352 278.7 324.5 311 288 318.4L288 408L256 408L256 318.4C219.5 311 192 278.7 192 240L192 192z"/><path fill="currentColor" d="M480 302.1L480 224L496 224L528 288L608 256L608 128L576 96L608 96L608 64L480 64C409.3 64 352 121.3 352 192L352 240C352 278.7 324.5 311 288 318.4L288 393.1L339.7 407.9C343.8 409.1 347.9 410 352 410.7L352 576L448 576L448 379.7C467.2 360.5 479.5 334 480 304L480 304L480 302.1zM256 318.4C219.5 311 192 278.7 192 240L192 192L180.8 192C133.9 192 96 230 96 276.8C96 293.6 101 309.9 110.2 323.9L152.6 387.5C134 406.1 118.1 422 105 435.1C106.6 439.7 122.2 486.7 152 576.1L253.2 576.1L214.9 461.1C235.1 440.9 248.8 427.2 256 420L256 318.5zM528 128C536.8 128 544 135.2 544 144C544 152.8 536.8 160 528 160C519.2 160 512 152.8 512 144C512 135.2 519.2 128 528 128z"/></svg>