<svg xmlns="http://www.w3.org/2000/svg" viewBox="0 0 640 640"><!--! Font Awesome Pro 7.2.0 by @fontawesome - https://fontawesome.com License - https://fontawesome.com/license (Commercial License) Copyright 2026 Fonticons, Inc. --><path opacity=".4" fill="currentColor" d="M96 256L96 320L352 320L224 256L96 256zM104 160C104 190.9 129.1 216 160 216C190.9 216 216 190.9 216 160C216 129.1 190.9 104 160 104C129.1 104 104 129.1 104 160zM288 80L288 104C288 131.2 299.5 157.1 319.7 175.2L346.2 199C360.1 211.6 368 229.3 368 248L368 272L416 272L416 248C416 215.7 402.3 185 378.3 163.4L351.8 139.6C341.8 130.5 336 117.6 336 104L336 80L288 80zM400 80L400 104C400 131.2 411.5 157.1 431.7 175.2L458.2 199C472.1 211.6 480 229.3 480 248L480 272L528 272L528 248C528 215.7 514.3 185 490.3 163.4L463.8 139.6C453.8 130.5 448 117.6 448 104L448 80L400 80z"/><path fill="currentColor" d="M544 320L96 320L96 576L544 576L544 320zM216 408L216 512L168 512L168 384L216 384L216 408zM344 384L344 512L296 512L296 384L344 384zM472 408L472 512L424 512L424 384L472 384L472 408z"/></svg>