<svg xmlns="http://www.w3.org/2000/svg" viewBox="0 0 640 640"><!--! Font Awesome Pro 7.2.0 by @fontawesome - https://fontawesome.com License - https://fontawesome.com/license (Commercial License) Copyright 2026 Fonticons, Inc. --><path opacity=".4" fill="currentColor" d="M320 64L320 188.6L464 304.9L464 415.8L432 415.8L432 576L640 576L640 64L320 64zM384 160L448 160L448 224L440.2 224L384 178.6L384 160zM512 160L576 160L576 224L512 224L512 160zM512 416L576 416L576 480L512 480L512 416zM528 288L576 288L576 352L528 352L528 288z"/><path fill="currentColor" d="M416 368L384 368L384 576L32 576L32 368L0 368L0 328L208 160L416 328L416 368zM256 432L256 336L160 336L160 432L256 432z"/></svg>