<svg xmlns="http://www.w3.org/2000/svg" viewBox="0 0 640 640"><!--! Font Awesome Pro 7.2.0 by @fontawesome - https://fontawesome.com License - https://fontawesome.com/license (Commercial License) Copyright 2026 Fonticons, Inc. --><path opacity=".4" fill="currentColor" d="M16 264L16 304L66.5 304L66.5 512L208.8 512L240 480.8L240 352L208 352L208 256L304 256L304 304L496 304L496 264L256 48L16 264z"/><path fill="currentColor" d="M352 416L352 544L512 544L512 416L352 416zM288 544L288 352L576 352L576 544L624 544L624 576L592 608L272 608L240 576L240 544L288 544z"/></svg>