<svg xmlns="http://www.w3.org/2000/svg" viewBox="0 0 640 640"><!--! Font Awesome Pro 7.2.0 by @fontawesome - https://fontawesome.com License - https://fontawesome.com/license (Commercial License) Copyright 2026 Fonticons, Inc. --><path opacity=".4" fill="currentColor" d="M32 288L32 336L80 336L80 576L340 576C329.5 561.4 321 545.3 314.9 528L224 528L224 384L321.4 384C351.7 317.9 418.5 272 496 272C507.7 272 519.1 273 530.2 275L288 48L32 288z"/><path fill="currentColor" d="M352 464C352 384.5 416.5 320 496 320C575.5 320 640 384.5 640 464C640 543.5 575.5 608 496 608C416.5 608 352 543.5 352 464zM562.6 420L540 397.4C536 401.4 521.4 416 496 441.4C470.7 416 456 401.4 452 397.4L429.4 420C433.4 424 448 438.6 473.4 464C448 489.3 433.4 504 429.4 508L452 530.6C456 526.6 470.6 512 496 486.6C521.3 512 536 526.6 540 530.6L562.6 508C558.6 504 544 489.4 518.6 464C544 438.7 558.6 424 562.6 420z"/></svg>