<svg xmlns="http://www.w3.org/2000/svg" viewBox="0 0 640 640"><!--! Font Awesome Pro 7.2.0 by @fontawesome - https://fontawesome.com License - https://fontawesome.com/license (Commercial License) Copyright 2026 Fonticons, Inc. --><path opacity=".4" fill="currentColor" d="M16 225.2L16 256L48 256L48 416L176 416L176 254.9C182.2 248.7 216.7 214.2 279.4 151.5L281.2 149.7L192 72L16 225.2z"/><path fill="currentColor" d="M384 32C414.9 32 440 57.1 440 88C440 118.9 414.9 144 384 144C353.1 144 328 118.9 328 88C328 57.1 353.1 32 384 32zM322.7 176L431.3 176L440.9 188L495.3 256L575.9 256L575.9 320L464.5 320C460.3 314.8 449.5 301.2 431.9 279.2L431.9 394.4L484.7 439.7L493.7 447.4L495.5 459.1C508 540.5 515 585.7 516.4 594.7L453.1 604.4C451.4 593.4 445.1 552.1 434 480.5L353.3 411.4C332 393.2 319.8 366.5 319.8 338.5L319.8 269.2L287.8 301.2L287.8 383.9L223.8 383.9L223.8 274.6L233.2 265.2L313.2 185.2L322.6 175.8zM307.5 479.2L320.1 435C322.5 437.3 324.9 439.6 327.5 441.8L373.5 481.2C368.3 499.5 365.3 510 364.5 512.7L358.6 518.6C309 568.2 280.2 597 272 605.2L226.7 560C235.9 550.8 262.8 523.9 307.5 479.2z"/></svg>