<svg xmlns="http://www.w3.org/2000/svg" viewBox="0 0 640 640"><!--! Font Awesome Pro 7.2.0 by @fontawesome - https://fontawesome.com License - https://fontawesome.com/license (Commercial License) Copyright 2026 Fonticons, Inc. --><path opacity=".4" fill="currentColor" d="M96 128L96 480L512 480L512 336L352 288L256 288L256 240L352 240L352 208L256 208L256 160L352 160L352 64L288 64L288 96L96 128z"/><path fill="currentColor" d="M176 528L416 528L416 480L464 480L464 528L520 528C542.1 528 560 510.1 560 488L560 480L608 480L608 488C608 536.6 568.6 576 520 576L32 576L32 528L128 528L128 480L176 480L176 528zM352 288L256 288L256 240L352 240L352 288zM352 208L256 208L256 160L352 160L352 208z"/></svg>