<svg xmlns="http://www.w3.org/2000/svg" viewBox="0 0 640 640"><!--! Font Awesome Pro 7.2.0 by @fontawesome - https://fontawesome.com License - https://fontawesome.com/license (Commercial License) Copyright 2026 Fonticons, Inc. --><path opacity=".4" fill="currentColor" d="M96 96L96 544L544 544L544 96L96 96zM208 448L240 352L400 352L432 448L208 448zM376 256C376 286.9 350.9 312 320 312C289.1 312 264 286.9 264 256C264 225.1 289.1 200 320 200C350.9 200 376 225.1 376 256z"/><path fill="currentColor" d="M320 200C350.9 200 376 225.1 376 256C376 286.9 350.9 312 320 312C289.1 312 264 286.9 264 256C264 225.1 289.1 200 320 200zM208 448L240 352L400 352L432 448L208 448z"/></svg>