<svg xmlns="http://www.w3.org/2000/svg" viewBox="0 0 640 640"><!--! Font Awesome Pro 7.2.0 by @fontawesome - https://fontawesome.com License - https://fontawesome.com/license (Commercial License) Copyright 2026 Fonticons, Inc. --><path opacity=".4" fill="currentColor" d="M64 96L512 96L512 240.7C506.7 240.3 501.4 240 496 240C440 240 389.7 263.9 354.6 302.2L336 272L254.1 405.1L208 336L112 480L310 480C316 503.3 326.3 525 340 544L64 544L64 96zM144 224C144 250.5 165.5 272 192 272C218.5 272 240 250.5 240 224C240 197.5 218.5 176 192 176C165.5 176 144 197.5 144 224z"/><path fill="currentColor" d="M352 432C352 352.5 416.5 288 496 288C575.5 288 640 352.5 640 432C640 511.5 575.5 576 496 576C416.5 576 352 511.5 352 432zM512 352L480 352L480 416L416 416L416 448L480 448L480 512L512 512L512 448L576 448L576 416L512 416L512 352z"/></svg>