<svg xmlns="http://www.w3.org/2000/svg" viewBox="0 0 640 640"><!--! Font Awesome Pro 7.2.0 by @fontawesome - https://fontawesome.com License - https://fontawesome.com/license (Commercial License) Copyright 2026 Fonticons, Inc. --><path opacity=".4" fill="currentColor" d="M277.5 423.5L366.6 544L544.1 544L544.1 96L333.3 96L421.6 215.5L277.6 423.5zM336.5 422.6L402.3 327.7L496.1 480L379 480L336.6 422.6z"/><path fill="currentColor" d="M362.5 216.5L218.5 424.5L306.8 544L96 544L96 96L273.5 96L362.5 216.5zM224 176C197.5 176 176 197.5 176 224C176 250.5 197.5 272 224 272C250.5 272 272 250.5 272 224C272 197.5 250.5 176 224 176z"/></svg>