<svg xmlns="http://www.w3.org/2000/svg" viewBox="0 0 640 640"><!--! Font Awesome Pro 7.2.0 by @fontawesome - https://fontawesome.com License - https://fontawesome.com/license (Commercial License) Copyright 2026 Fonticons, Inc. --><path opacity=".4" fill="currentColor" d="M32 128L32 512L608 512L608 128L32 128zM96 192L544 192L544 448L96 448L96 192z"/><path fill="currentColor" d="M208 224C243.3 224 272 252.7 272 288L272 416L224 416L224 368L192 368L192 416L144 416L144 288C144 252.7 172.7 224 208 224zM224 288C224 279.2 216.8 272 208 272C199.2 272 192 279.2 192 288L192 320L224 320L224 288zM320 224L388 224C421.1 224 448 250.9 448 284C448 295.2 444.9 305.7 439.5 314.7C449.7 325.5 456 340 456 356C456 389.1 429.1 416 396 416L320 416L320 224zM400 284C400 277.4 394.6 272 388 272L368 272L368 296L388 296C394.6 296 400 290.6 400 284zM368 368L396 368C402.6 368 408 362.6 408 356C408 349.4 402.6 344 396 344L368 344L368 368z"/></svg>