<svg xmlns="http://www.w3.org/2000/svg" viewBox="0 0 640 640"><!--! Font Awesome Pro 7.2.0 by @fontawesome - https://fontawesome.com License - https://fontawesome.com/license (Commercial License) Copyright 2026 Fonticons, Inc. --><path opacity=".4" fill="currentColor" d="M0 448C0 518.7 57.3 576 128 576C187.6 576 237.8 535.2 252 480L480 480C480 464 480 432 480 384L480 352L416 352C416 373.3 416 394.7 416 416L384 416L384 352L320 352L320 416L252 416C237.8 360.8 187.7 320 128 320C57.3 320 0 377.3 0 448zM192 448C192 483.3 163.3 512 128 512C92.7 512 64 483.3 64 448C64 412.7 92.7 384 128 384C163.3 384 192 412.7 192 448z"/><path fill="currentColor" d="M512 256C547.3 256 576 227.3 576 192C576 156.7 547.3 128 512 128C476.7 128 448 156.7 448 192C448 227.3 476.7 256 512 256zM512 320C452.4 320 402.2 279.2 388 224L320 224L320 288L256 288L256 224L224 224L224 288L160 288L160 192L160 160L388 160C402.2 104.8 452.3 64 512 64C582.7 64 640 121.3 640 192C640 262.7 582.7 320 512 320z"/></svg>