<svg xmlns="http://www.w3.org/2000/svg" viewBox="0 0 640 640"><!--! Font Awesome Pro 7.2.0 by @fontawesome - https://fontawesome.com License - https://fontawesome.com/license (Commercial License) Copyright 2026 Fonticons, Inc. --><path opacity=".4" fill="currentColor" d="M96 240C96 319.5 196.3 384 320 384C443.7 384 544 319.5 544 240C544 160.5 443.7 96 320 96C196.3 96 96 160.5 96 240zM160 224L224 224L224 256L160 256L160 224zM201.4 168L224 145.4C240.2 161.6 260.1 181.5 262.6 184L240 206.6C223.8 190.4 203.9 170.5 201.4 168zM201.4 312C217.6 295.8 237.5 275.9 240 273.4L262.6 296C246.4 312.2 226.5 332.1 224 334.6L201.4 312zM264 240C264 226.7 289.1 216 320 216C350.9 216 376 226.7 376 240C376 253.3 350.9 264 320 264C289.1 264 264 253.3 264 240zM304 128L336 128L336 184L304 184L304 128zM304 296L336 296L336 352L304 352L304 296zM377.4 184C393.6 167.8 413.5 147.9 416 145.4L438.6 168C422.4 184.2 402.5 204.1 400 206.6L377.4 184zM377.4 296L400 273.4C416.2 289.6 436.1 309.5 438.6 312L416 334.6C399.8 318.4 379.9 298.5 377.4 296zM416 224L480 224L480 256L416 256L416 224z"/><path fill="currentColor" d="M336 128L304 128L304 184L336 184L336 128zM224 145.4L201.4 168C217.6 184.2 237.5 204.1 240 206.6L262.6 184C246.4 167.8 226.5 147.9 224 145.4zM438.6 168L416 145.4C399.8 161.6 379.9 181.5 377.4 184L400 206.6C416.2 190.4 436.1 170.5 438.6 168zM160 224L160 256L224 256L224 224L160 224zM416 224L416 256L480 256L480 224L416 224zM262.6 296L240 273.4C223.8 289.6 203.9 309.5 201.4 312L224 334.6C240.2 318.4 260.1 298.5 262.6 296zM400 273.4L377.4 296C393.6 312.2 413.5 332.1 416 334.6L438.6 312C422.4 295.8 402.5 275.9 400 273.4zM336 296L304 296L304 352L336 352L336 296zM320 544C443.7 544 544 443.7 544 320L544 240C544 319.5 443.7 384 320 384C196.3 384 96 319.5 96 240L96 320C96 443.7 196.3 544 320 544z"/></svg>