<svg xmlns="http://www.w3.org/2000/svg" viewBox="0 0 640 640"><!--! Font Awesome Pro 7.2.0 by @fontawesome - https://fontawesome.com License - https://fontawesome.com/license (Commercial License) Copyright 2026 Fonticons, Inc. --><path opacity=".4" fill="currentColor" d="M32.4 224L32.4 272L96.4 272L96.4 480L32.4 528L32.4 576L544.4 576L544.4 528L480.4 480L480.4 347.3C467.6 350.4 454.2 352.1 440.4 352.1C437.7 352.1 435 352 432.4 351.9L432.4 480L368.4 480L368.4 335.9C350.4 327.4 334.2 315.7 320.4 301.6L320.4 479.9L256.4 479.9L256.4 271.9L297.2 271.9C281.5 246.3 272.4 216.2 272.4 184C272.4 143.6 286.6 106.6 310.4 77.6L288.4 64L32.4 224zM144.4 272L208.4 272L208.4 480L144.4 480L144.4 272z"/><path fill="currentColor" d="M512.4 184.1C512.4 144.3 480.2 112.1 440.4 112.1C400.6 112.1 368.4 144.3 368.4 184.1C368.4 223.9 400.6 256.1 440.4 256.1C480.2 256.1 512.4 223.9 512.4 184.1zM506.6 284.2C487.6 296.8 464.9 304.1 440.4 304.1C374.1 304.1 320.4 250.4 320.4 184.1C320.4 117.8 374.1 64.1 440.4 64.1C506.7 64.1 560.4 117.8 560.4 184.1C560.4 208.6 553.1 231.3 540.5 250.3C588.4 298.2 614.3 324.1 618.3 328.1L584.4 362C580.4 358 554.5 332 506.6 284.2z"/></svg>