<svg xmlns="http://www.w3.org/2000/svg" viewBox="0 0 640 640"><!--! Font Awesome Pro 7.2.0 by @fontawesome - https://fontawesome.com License - https://fontawesome.com/license (Commercial License) Copyright 2026 Fonticons, Inc. --><path opacity=".4" fill="currentColor" d="M32 128L32 512L608 512L608 128L32 128zM200 256C200 278.1 182.1 296 160 296C137.9 296 120 278.1 120 256C120 233.9 137.9 216 160 216C182.1 216 200 233.9 200 256zM128 448L240 320L283.1 369.2L368 256L512 448L128 448z"/><path fill="currentColor" d="M512 448L368 256L283.1 369.2L240 320L128 448L512 448z"/></svg>