<svg xmlns="http://www.w3.org/2000/svg" viewBox="0 0 640 640"><!--! Font Awesome Pro 7.2.0 by @fontawesome - https://fontawesome.com License - https://fontawesome.com/license (Commercial License) Copyright 2026 Fonticons, Inc. --><path opacity=".4" fill="currentColor" d="M128 160L288 160L288 250.7C270.6 233.3 254.6 217.3 240 202.7L194.7 248C200.2 253.5 234.4 287.7 297.3 350.6L320 373.3C325.5 367.8 359.7 333.6 422.6 270.7L445.2 248.1L399.9 202.8L351.9 250.8L351.9 160.1L511.9 160.1L511.9 400.1L127.9 400.1L127.9 160.1z"/><path fill="currentColor" d="M288 96L64 96L64 400L128 400L128 160L288 160L288 96zM352 160L512 160L512 400L576 400L576 96L352 96L352 160zM0 488L56 544L584 544L640 488L640 448L0 448L0 488z"/></svg>