<svg xmlns="http://www.w3.org/2000/svg" viewBox="0 0 640 640"><!--! Font Awesome Pro 7.2.0 by @fontawesome - https://fontawesome.com License - https://fontawesome.com/license (Commercial License) Copyright 2026 Fonticons, Inc. --><path opacity=".4" fill="currentColor" d="M248 64L296 64L296 129.5C279.2 131.6 263.1 135.8 248 142L248 64zM248 214.2C262.2 204.5 278.5 197.6 296 194.3L296 320.1L248 320.1L248 214.3zM344 64L392 64L392 142C376.9 135.9 360.8 131.6 344 129.5L344 64zM344 194.2C361.5 197.5 377.8 204.4 392 214.1L392 319.9L344 319.9L344 194.1z"/><path fill="currentColor" d="M192 320C192 249.3 249.3 192 320 192C390.7 192 448 249.3 448 320L512 320C512 214 426 128 320 128C214 128 128 214 128 320C128 369.2 146.5 414 176.9 448L128 448L128 512L512 512L512 448L320 448C249.3 448 192 390.7 192 320z"/></svg>