<svg xmlns="http://www.w3.org/2000/svg" viewBox="0 0 640 640"><!--! Font Awesome Pro 7.2.0 by @fontawesome - https://fontawesome.com License - https://fontawesome.com/license (Commercial License) Copyright 2026 Fonticons, Inc. --><path opacity=".4" fill="currentColor" d="M64 320C64 461.4 178.6 576 320 576C461.4 576 576 461.4 576 320C576 178.6 461.4 64 320 64C178.6 64 64 178.6 64 320zM160.8 352L479.2 352C471.2 432.9 403 496 320 496C237 496 168.8 432.9 160.8 352zM272 256C272 273.7 257.7 288 240 288C222.3 288 208 273.7 208 256C208 238.3 222.3 224 240 224C257.7 224 272 238.3 272 256zM332 264C332 230.9 358.9 204 392 204L408 204C441.1 204 468 230.9 468 264L468 280L428 280L428 264C428 253 419 244 408 244L392 244C381 244 372 253 372 264L372 280L332 280L332 264z"/><path fill="currentColor" d="M372 264C372 253 381 244 392 244L408 244C419 244 428 253 428 264L428 280L468 280L468 264C468 230.9 441.1 204 408 204L392 204C358.9 204 332 230.9 332 264L332 280L372 280L372 264zM240 288C257.7 288 272 273.7 272 256C272 238.3 257.7 224 240 224C222.3 224 208 238.3 208 256C208 273.7 222.3 288 240 288z"/></svg>