<svg xmlns="http://www.w3.org/2000/svg" viewBox="0 0 640 640"><!--! Font Awesome Pro 7.2.0 by @fontawesome - https://fontawesome.com License - https://fontawesome.com/license (Commercial License) Copyright 2026 Fonticons, Inc. --><path opacity=".4" fill="currentColor" d="M32.1 320C32.1 426 118.1 512 224.1 512L288.1 512L288.1 448L224.1 448C153.4 448 96.1 390.7 96.1 320C96.1 286.1 109.3 255.3 130.7 232.4L85.5 187.2C52.4 221.7 32.1 268.5 32.1 320z"/><path fill="currentColor" d="M64.3 30.2L81.3 47.2L169.9 135.8C187.1 130.8 205.3 128 224.1 128L288.1 128L288.1 192L226.1 192L322.1 288L448.1 288L448.1 352L386.1 352L470.1 436C513.8 415.6 544 371.3 544 320C544 249.3 486.7 192 416 192L352 192L352 128L416 128C522 128 608 214 608 320C608 388.9 571.7 449.3 517.2 483.2C577.7 543.7 608.6 574.6 610.1 576.1L576.2 610L559.2 593L47.2 81L30.2 64L64.1 30.1z"/></svg>