<svg xmlns="http://www.w3.org/2000/svg" viewBox="0 0 640 640"><!--! Font Awesome Pro 7.2.0 by @fontawesome - https://fontawesome.com License - https://fontawesome.com/license (Commercial License) Copyright 2026 Fonticons, Inc. --><path opacity=".4" fill="currentColor" d="M32 320L128 320L215.5 363.7C242.2 377 271.6 384 301.4 384L333.1 384C366.5 384 399.3 375.3 428.4 358.7L496.1 320L608.1 320L515.3 431.4C472.6 482.5 409.6 512 343.1 512L296.9 512C230.4 512 167.4 482.5 124.8 431.4L32 320z"/><path fill="currentColor" d="M32 320L146.5 182.6C175.3 148 218.1 128 263.1 128L320 166.4L376.9 128C422 128 464.7 148 493.5 182.6L608 320L496 320L416 256L320 288L224 256L128 320L32 320z"/></svg>