<svg xmlns="http://www.w3.org/2000/svg" viewBox="0 0 640 640"><!--! Font Awesome Pro 7.2.0 by @fontawesome - https://fontawesome.com License - https://fontawesome.com/license (Commercial License) Copyright 2026 Fonticons, Inc. --><path opacity=".4" fill="currentColor" d="M64 128L368 128L368 192L64 192L64 128zM64 288L256 288L256 352L64 352L64 288zM64 448L208 448L208 512L64 512L64 448z"/><path fill="currentColor" d="M608 55L608 217C605.1 217.7 562.4 228.4 480 249L480 464C480 517 429.9 560 368 560C306.1 560 256 517 256 464C256 411 306.1 368 368 368C385.2 368 401.5 371.3 416 377.2L416 103L440.2 97C540.3 71.9 596.2 58 608 55z"/></svg>