<svg xmlns="http://www.w3.org/2000/svg" viewBox="0 0 640 640"><!--! Font Awesome Pro 7.2.0 by @fontawesome - https://fontawesome.com License - https://fontawesome.com/license (Commercial License) Copyright 2026 Fonticons, Inc. --><path opacity=".4" fill="currentColor" d="M224 128L576 128L576 192L224 192L224 128zM352 288L576 288L576 352L352 352L352 288zM352 448L576 448L576 512L352 512L352 448z"/><path fill="currentColor" d="M160 112L64 112L64 208L88 208L88 504L192 504L192 528L288 528L288 432L192 432L192 456L136 456L136 344L192 344L192 368L288 368L288 272L192 272L192 296L136 296L136 208L160 208L160 112z"/></svg>