<svg xmlns="http://www.w3.org/2000/svg" viewBox="0 0 640 640"><!--! Font Awesome Pro 7.2.0 by @fontawesome - https://fontawesome.com License - https://fontawesome.com/license (Commercial License) Copyright 2026 Fonticons, Inc. --><path opacity=".4" fill="currentColor" d="M224 128L576 128L576 192L224 192L224 128zM224 288L576 288L576 352L224 352L224 288zM224 448L576 448L576 512L224 512L224 448z"/><path fill="currentColor" d="M112 208C138.5 208 160 186.5 160 160C160 133.5 138.5 112 112 112C85.5 112 64 133.5 64 160C64 186.5 85.5 208 112 208zM160 320C160 293.5 138.5 272 112 272C85.5 272 64 293.5 64 320C64 346.5 85.5 368 112 368C138.5 368 160 346.5 160 320zM160 480C160 453.5 138.5 432 112 432C85.5 432 64 453.5 64 480C64 506.5 85.5 528 112 528C138.5 528 160 506.5 160 480z"/></svg>