<svg xmlns="http://www.w3.org/2000/svg" viewBox="0 0 640 640"><!--! Font Awesome Pro 7.2.0 by @fontawesome - https://fontawesome.com License - https://fontawesome.com/license (Commercial License) Copyright 2026 Fonticons, Inc. --><path opacity=".4" fill="currentColor" d="M128 252.6C128 403.4 320 592 320 592C320 592 512 403.4 512 252.6C512 148.4 426 64 320 64C214 64 128 148.4 128 252.6zM214.1 308.2L248.6 274.9C258.1 284.7 272.5 299.6 291.8 319.6L377.4 201.9L391.5 182.5L430.3 210.7L416.2 230.1L313.8 370.9L297 394C288.2 384.9 266.1 362 230.8 325.4L214.1 308.2z"/><path fill="currentColor" d="M430.3 210.7L416.2 230.1L313.8 370.9L297 394C288.2 384.9 266.1 362 230.8 325.4L214.1 308.2L248.6 274.9C258.1 284.7 272.5 299.6 291.8 319.6L377.4 201.9L391.5 182.5L430.3 210.7z"/></svg>