<svg xmlns="http://www.w3.org/2000/svg" viewBox="0 0 640 640"><!--! Font Awesome Pro 7.2.0 by @fontawesome - https://fontawesome.com License - https://fontawesome.com/license (Commercial License) Copyright 2026 Fonticons, Inc. --><path opacity=".4" fill="currentColor" d="M352 160L352 224L416 224L416 160C416 124.7 444.7 96 480 96C515.3 96 544 124.7 544 160L544 224L608 224L608 160C608 89.3 550.7 32 480 32C409.3 32 352 89.3 352 160z"/><path fill="currentColor" d="M512 224L128 224L128 576L512 576L512 224zM360 424L256 424L256 376L384 376L384 424L360 424z"/></svg>