<svg xmlns="http://www.w3.org/2000/svg" viewBox="0 0 640 640"><!--! Font Awesome Pro 7.2.0 by @fontawesome - https://fontawesome.com License - https://fontawesome.com/license (Commercial License) Copyright 2026 Fonticons, Inc. --><path opacity=".4" fill="currentColor" d="M128 224L128 576L512 576L512 224L448 224L448 160C448 89.3 390.7 32 320 32C249.3 32 192 89.3 192 160L192 224L128 224zM192 320L240 320L240 272L288 272L288 320L352 320L352 272L400 272L400 320L448 320L448 368L400 368L400 432L448 432L448 480L400 480L400 528L352 528L352 480L288 480L288 528L240 528L240 480L192 480L192 432L240 432L240 368L192 368L192 320zM256 160C256 124.7 284.7 96 320 96C355.3 96 384 124.7 384 160L384 224L256 224L256 160zM288 368L288 432L352 432L352 368L288 368z"/><path fill="currentColor" d="M288 296L288 272L240 272L240 320L192 320L192 368L240 368L240 432L192 432L192 480L240 480L240 528L288 528L288 480L352 480L352 528L400 528L400 480L448 480L448 432L400 432L400 368L448 368L448 320L400 320L400 272L352 272L352 320L288 320L288 296zM288 368L352 368L352 432L288 432L288 368z"/></svg>