<svg xmlns="http://www.w3.org/2000/svg" viewBox="0 0 640 640"><!--! Font Awesome Pro 7.2.0 by @fontawesome - https://fontawesome.com License - https://fontawesome.com/license (Commercial License) Copyright 2026 Fonticons, Inc. --><path opacity=".4" fill="currentColor" d="M32 509.9L32 576L160 576L256 512L256 343.4L159.3 396.1C143.8 404.6 124.3 398.8 115.9 383.3C107.5 367.8 113.2 348.3 128.7 339.9L256 270.5L256 96L192 96C89 209.2 32 356.8 32 509.9zM384 96L384 270.5L511.3 339.9C526.8 348.4 532.5 367.8 524.1 383.3C515.7 398.8 496.2 404.5 480.7 396.1L384 343.4L384 512L480 576L608 576L608 521.7C608 380.6 561.3 243.4 475.3 131.5L448 96L384 96z"/><path fill="currentColor" d="M352 96L352 64L288 64L288 253L128.7 339.9C113.2 348.4 107.5 367.8 115.9 383.3C124.3 398.8 143.8 404.5 159.3 396.1L320 308.5L480.7 396.1C496.2 404.6 515.7 398.8 524.1 383.3C532.5 367.8 526.8 348.3 511.3 339.9L352 253L352 96z"/></svg>