<svg xmlns="http://www.w3.org/2000/svg" viewBox="0 0 640 640"><!--! Font Awesome Pro 7.2.0 by @fontawesome - https://fontawesome.com License - https://fontawesome.com/license (Commercial License) Copyright 2026 Fonticons, Inc. --><path opacity=".4" fill="currentColor" d="M64 338.6C68.2 352.1 73.3 364.9 79.2 377.2C72.9 389.3 67.9 402.5 64.4 416.6C72.7 428.5 82.2 439.1 92.4 448C91.3 461.5 91.9 475.6 94.2 490C106.6 497.7 119.4 503.7 132.2 508C136.5 520.8 142.5 533.7 150.2 546C164.6 548.3 178.8 548.9 192.2 547.8C201.1 557.9 211.7 567.4 223.6 575.8C237.7 572.3 250.9 567.3 263 561C275.2 566.9 288.1 571.9 301.6 576.2C313.3 568.5 324.3 560.1 334.6 551.3C347.7 554.3 361.4 556.5 375.3 558C385.3 548.1 394.4 537.8 402.7 527.3C416.2 527.7 429.9 527.4 443.9 526.2C451.8 514.6 458.8 502.7 464.9 490.7C478.2 488.4 491.7 485.2 505.1 480.7C510.3 467.5 514.4 454.1 517.2 440.9C529.4 435.2 541.6 428.3 553.2 419.7C554.3 405.3 553.9 391.1 552 377.8C561.5 368.2 570.3 357.2 578 344.7C573.6 330.7 567.9 317.8 560.7 306.2C565.6 293.6 568.8 279.4 568.7 263.9C546.2 242.4 517 225.1 489.1 207.5C477.4 200.2 465.9 192.8 455.3 185.1C447.6 174.5 440.2 163 432.8 151.3C415.3 123.4 398 94.2 376.5 71.7C361 71.6 346.7 74.8 334.2 79.7C329.8 77 325.2 74.5 320.4 72.2C312.5 68.5 304.4 65.2 295.8 62.4C283.3 70 272.3 78.8 262.7 88.4C249.3 86.5 235.2 86 220.8 87.2C212.2 98.9 205.3 111 199.6 123.2C186.4 126 173.1 130 159.8 135.3C155.3 148.8 152.1 162.2 149.8 175.5C137.8 181.6 125.9 188.6 114.3 196.5C113.1 210.5 112.8 224.2 113.2 237.7C102.7 246.1 92.4 255.2 82.5 265.1C84 279 86.2 292.6 89.2 305.8C80.4 316.1 72 327 64.3 338.8zM188 442.8C190.6 429.9 194.8 408.7 200.7 379.3L203.8 363.6C210.2 362.3 228.8 358.6 259.5 352.5L283 347.8L292.4 394.9C276.8 398 260.9 401.2 244.6 404.5C241.3 420.9 238.1 436.8 235 452.4L188 442.8zM220 282.8C222.6 269.9 226.8 248.7 232.7 219.3L235.8 203.6C242.2 202.3 260.8 198.6 291.5 192.5L315 187.8L324.4 234.9C308.8 238 292.9 241.2 276.6 244.5C273.3 260.9 270.1 276.8 267 292.4L220 282.8zM348 410.8C350.6 397.9 354.8 376.7 360.7 347.3L363.8 331.6C370.2 330.3 388.8 326.6 419.5 320.5L443 315.8L452.4 362.9C436.8 366 420.9 369.2 404.6 372.5C401.3 388.9 398.1 404.8 395 420.4L348 410.8z"/><path fill="currentColor" d="M292.5 394.8C276.9 397.9 261 401.1 244.7 404.4C241.4 420.8 238.2 436.7 235.1 452.3L188 442.8C190.6 429.9 194.8 408.7 200.7 379.3L203.8 363.6C210.2 362.3 228.8 358.6 259.5 352.5L283 347.8L292.4 394.9zM452.5 362.8C436.9 365.9 421 369.1 404.7 372.4C401.4 388.8 398.2 404.7 395.1 420.3L348 410.8C350.6 397.9 354.8 376.7 360.7 347.3L363.8 331.6C370.2 330.3 388.8 326.6 419.5 320.5L443 315.8L452.4 362.9zM324.5 234.8C308.9 237.9 293 241.1 276.7 244.4C273.4 260.8 270.2 276.7 267.1 292.3L220 282.8C222.6 269.9 226.8 248.7 232.7 219.3L235.8 203.6C242.2 202.3 260.8 198.6 291.5 192.5L315 187.8L324.4 234.9zM521.5 153.3C513 167.4 502.2 185.5 489 207.4C477.3 200.1 465.8 192.7 455.2 185C447.5 174.3 440.1 162.9 432.7 151.2C454.7 138 472.7 127.2 486.8 118.7L521.5 153.4z"/></svg>