<svg xmlns="http://www.w3.org/2000/svg" viewBox="0 0 640 640"><!--! Font Awesome Pro 7.2.0 by @fontawesome - https://fontawesome.com License - https://fontawesome.com/license (Commercial License) Copyright 2026 Fonticons, Inc. --><path opacity=".4" fill="currentColor" d="M66.7 240L131.8 240C146.4 175.9 203.7 128 272.2 128C307.9 128 340.6 141 365.7 162.5C380.8 147.4 395.9 132.3 411.1 117.1C374.3 84.1 325.6 64 272.2 64C168.2 64 82 140.3 66.6 240zM133.4 426.9C170.2 459.9 218.9 480 272.3 480C318.2 480 360.6 465.1 395 440L521.7 566.7L544.3 589.3L589.6 544L567 521.4L440.3 394.7C459.5 368.5 472.7 337.5 477.9 304L412.8 304C398.2 368.1 340.9 416 272.4 416C236.7 416 204 403 178.9 381.5L133.5 426.9z"/><path fill="currentColor" d="M312.3 216L336.3 240L480.3 240L480.3 96L456.3 72L312.3 216zM232.3 328L208.3 304L64.3 304L64.3 448L88.3 472L232.3 328z"/></svg>