<svg xmlns="http://www.w3.org/2000/svg" viewBox="0 0 640 640"><!--! Font Awesome Pro 7.2.0 by @fontawesome - https://fontawesome.com License - https://fontawesome.com/license (Commercial License) Copyright 2026 Fonticons, Inc. --><path opacity=".4" fill="currentColor" d="M32 272C32 192.5 96.5 128 176 128C255.5 128 320 192.5 320 272L320 544L32 544L32 272zM96 272L96 320L256 320L256 272L96 272z"/><path fill="currentColor" d="M176 128C255.5 128 320 192.5 320 272L320 544L608 544L608 288C608 199.6 536.4 128 448 128L176 128zM384 272L544 272L544 384L464 384L464 320L384 320L384 272zM120 272L96 272L96 320L256 320L256 272L120 272z"/></svg>