<svg xmlns="http://www.w3.org/2000/svg" viewBox="0 0 640 640"><!--! Font Awesome Pro 7.2.0 by @fontawesome - https://fontawesome.com License - https://fontawesome.com/license (Commercial License) Copyright 2026 Fonticons, Inc. --><path opacity=".4" fill="currentColor" d="M0 496L0 544L384 544L384 272C384 192.5 319.5 128 240 128C160.5 128 96 192.5 96 272L96 496L0 496zM144 272C144 219 187 176 240 176C293 176 336 219 336 272L336 496L144 496L144 272z"/><path fill="currentColor" d="M480 128C568.4 128 640 199.6 640 288L640 544L384 544L384 272C384 192.5 319.5 128 240 128L480 128zM416 320L496 320L496 384L576 384L576 272L416 272L416 320z"/></svg>