<svg xmlns="http://www.w3.org/2000/svg" viewBox="0 0 640 640"><!--! Font Awesome Pro 7.2.0 by @fontawesome - https://fontawesome.com License - https://fontawesome.com/license (Commercial License) Copyright 2026 Fonticons, Inc. --><path opacity=".4" fill="currentColor" d="M296 96L344 96L344 161.5C340.1 161 336.1 160.6 332.1 160.4C328.1 160.2 324.1 160 320 160C311.9 160 303.9 160.5 296 161.5L296 96zM296 226.2C299.9 225.5 303.8 224.9 307.8 224.5C309.8 224.3 311.8 224.2 313.8 224.1C315.8 224 317.9 224 319.9 224C328.1 224 336.1 224.8 343.9 226.2L343.9 544L295.9 544L295.9 226.2z"/><path fill="currentColor" d="M128 352C128 246 214 160 320 160C426 160 512 246 512 352L512 544L448 544L448 352C448 281.3 390.7 224 320 224C249.3 224 192 281.3 192 352L192 544L128 544L128 352z"/></svg>