<svg xmlns="http://www.w3.org/2000/svg" viewBox="0 0 640 640"><!--! Font Awesome Pro 7.2.0 by @fontawesome - https://fontawesome.com License - https://fontawesome.com/license (Commercial License) Copyright 2026 Fonticons, Inc. --><path opacity=".4" fill="currentColor" d="M128 252.6C128 403.4 320 592 320 592C320 592 512 403.4 512 252.6C512 148.4 426 64 320 64C214 64 128 148.4 128 252.6zM235.1 205.1L269 171.2C277.5 179.7 294.5 196.7 319.9 222.1C345.4 196.6 362.3 179.7 370.8 171.2L404.7 205.1C396.2 213.6 379.2 230.6 353.8 256C379.3 281.5 396.2 298.4 404.7 306.9L370.8 340.8C362.3 332.3 345.3 315.3 319.9 289.9C294.4 315.4 277.5 332.3 269 340.8L235.1 306.9C243.6 298.4 260.6 281.4 286 256C260.5 230.5 243.6 213.6 235.1 205.1z"/><path fill="currentColor" d="M387.9 222.1L404.9 205.1L371 171.2C362.5 179.7 345.5 196.7 320.1 222.1C294.6 196.6 277.7 179.7 269.2 171.2L235.3 205.1C243.8 213.6 260.8 230.6 286.2 256C260.7 281.5 243.8 298.4 235.3 306.9L269.2 340.8C277.7 332.3 294.7 315.3 320.1 289.9C345.6 315.4 362.5 332.3 371 340.8L404.9 306.9C396.4 298.4 379.4 281.4 354 256L387.9 222.1z"/></svg>