<svg xmlns="http://www.w3.org/2000/svg" viewBox="0 0 640 640"><!--! Font Awesome Pro 7.2.0 by @fontawesome - https://fontawesome.com License - https://fontawesome.com/license (Commercial License) Copyright 2026 Fonticons, Inc. --><path opacity=".4" fill="currentColor" d="M64 172.2L64 563.8C83.2 554.2 137.4 527.1 226.5 482.6L387 536.1C379.9 524.2 373.2 511.8 367.2 499C361.1 485.8 355.6 471.6 351.4 456.8L256 425L256 172.5L384 215.2L384 298.5C415 262.7 461 240.1 512 240.1C534.6 240.1 556.2 244.5 576 252.6L576 76.3C556.8 85.9 502.6 113 413.5 157.5L234.1 97.7L221.5 93.5L209.6 99.4L81.6 163.4L63.9 172.2z"/><path fill="currentColor" d="M512 288C445.7 288 392 340.8 392 405.9C392 500.2 512 618 512 618C512 618 632 500.1 632 405.9C632 340.8 578.3 288 512 288z"/></svg>