<svg xmlns="http://www.w3.org/2000/svg" viewBox="0 0 640 640"><!--! Font Awesome Pro 7.2.0 by @fontawesome - https://fontawesome.com License - https://fontawesome.com/license (Commercial License) Copyright 2026 Fonticons, Inc. --><path opacity=".4" fill="currentColor" d="M64 444C64 477.1 90.9 504 124 504L136 504L136 516C136 549.1 162.9 576 196 576C229.1 576 256 549.1 256 516C256 499.8 249.6 485.1 239.2 474.3L265.6 447.9L264.1 447.9L192.1 375.9L192.1 374.4L165.7 400.7C154.9 390.4 140.2 384 124 384C90.9 384 64 410.9 64 444zM396.4 188.4C387.5 197.3 392.6 216.9 407.9 232.2C423.2 247.5 442.8 252.6 451.7 243.7C460.6 234.8 455.5 215.2 440.2 199.9C424.9 184.6 405.3 179.5 396.4 188.4z"/><path fill="currentColor" d="M307.6 83.6C347.7 43.6 435.9 66.8 504.5 135.5C573.1 204.2 596.4 292.3 556.3 332.4L440.9 448L264 448L192 376L192 199.3L307.6 83.6zM371.6 268.4C421.2 318 484.9 334.8 513.8 305.8C542.7 276.8 526 213.2 476.4 163.6C426.8 114 363.1 97.2 334.2 126.2C305.3 155.2 322 218.8 371.6 268.4z"/></svg>