<svg xmlns="http://www.w3.org/2000/svg" viewBox="0 0 640 640"><!--! Font Awesome Pro 7.2.0 by @fontawesome - https://fontawesome.com License - https://fontawesome.com/license (Commercial License) Copyright 2026 Fonticons, Inc. --><path opacity=".4" fill="currentColor" d="M64 96L64 512L192 512L192 608L352 512L576 512L576 96L64 96zM176 208L288 208L288 328C288 367.8 255.8 400 216 400L192 400L192 352L216 352C229.3 352 240 341.3 240 328L240 320L176 320L176 208zM336 208L448 208L448 328C448 367.8 415.8 400 376 400L352 400L352 352L376 352C389.3 352 400 341.3 400 328L400 320L336 320L336 208z"/><path fill="currentColor" d="M176 208L288 208L288 328C288 367.8 255.8 400 216 400L192 400L192 352L216 352C229.3 352 240 341.3 240 328L240 320L176 320L176 208zM448 328C448 367.8 415.8 400 376 400L352 400L352 352L376 352C389.3 352 400 341.3 400 328L400 320L336 320L336 208L448 208L448 328z"/></svg>