<svg xmlns="http://www.w3.org/2000/svg" viewBox="0 0 640 640"><!--! Font Awesome Pro 7.2.0 by @fontawesome - https://fontawesome.com License - https://fontawesome.com/license (Commercial License) Copyright 2026 Fonticons, Inc. --><path opacity=".4" fill="currentColor" d="M32 320C32 461.4 146.6 576 288 576C317.2 576 345.3 571.1 371.4 562.1L383.3 512L303.9 512L303.9 411.5L525.7 225.2C488.1 130.7 395.9 64 288 64C146.6 64 32 178.6 32 320zM168 192L216 192L216 288L168 288L168 192zM264 192L312 192L312 288L264 288L264 192zM360 192L408 192L408 288L360 288L360 192z"/><path fill="currentColor" d="M464.4 448L360 448L560 280L527.6 416L632 416L432 584L464.4 448z"/></svg>