<svg xmlns="http://www.w3.org/2000/svg" viewBox="0 0 640 640"><!--! Font Awesome Pro 7.2.0 by @fontawesome - https://fontawesome.com License - https://fontawesome.com/license (Commercial License) Copyright 2026 Fonticons, Inc. --><path opacity=".4" fill="currentColor" d="M128 224L128 288C128 385.9 201.3 466.7 296 478.5L296 528L224 528L224 576L416 576L416 528L344 528L344 478.5C438.7 466.7 512 385.9 512 288L512 224L464 224L464 288C464 367.5 399.5 432 320 432C240.5 432 176 367.5 176 288L176 224L128 224z"/><path fill="currentColor" d="M416 64L224 64L224 288C224 341 267 384 320 384C370.3 384 411.6 345.3 415.7 296L336 296L336 248L416 248L416 200L336 200L336 152L416 152L416 64z"/></svg>