<svg xmlns="http://www.w3.org/2000/svg" viewBox="0 0 640 640"><!--! Font Awesome Pro 7.2.0 by @fontawesome - https://fontawesome.com License - https://fontawesome.com/license (Commercial License) Copyright 2026 Fonticons, Inc. --><path opacity=".4" fill="currentColor" d="M71.5 478.2L161.9 568.8C394.1 356.8 337.8 408.2 381.9 368C345.4 331.4 308.8 294.9 272.3 258.4L71.5 478.2z"/><path fill="currentColor" d="M523.9 116.3C477 69.4 401.1 69.4 354.2 116.3L349.6 120.9L519.3 290.6L523.9 286C570.8 239.1 570.8 163.2 523.9 116.3zM491 319L321.3 149.3L301 169.6C277 193.6 267.2 226.5 271.6 257.7L382.6 368.7C413.8 373.1 446.7 363.3 470.7 339.3L491 319zM296.3 446.2L296.3 608L344.3 608L344.3 402.3L296.3 446.1z"/></svg>