<svg xmlns="http://www.w3.org/2000/svg" viewBox="0 0 640 640"><!--! Font Awesome Pro 7.2.0 by @fontawesome - https://fontawesome.com License - https://fontawesome.com/license (Commercial License) Copyright 2026 Fonticons, Inc. --><path opacity=".4" fill="currentColor" d="M192 224L192 288C192 385.9 265.3 466.7 360 478.5L360 528L288 528L288 576L480 576L480 528L408 528L408 478.5C502.7 466.7 576 385.9 576 288L576 224L528 224L528 288C528 367.5 463.5 432 384 432C304.5 432 240 367.5 240 288L240 224L192 224zM288 64L288 288C288 341 331 384 384 384C437 384 480 341 480 288L480 64L288 64z"/><path fill="currentColor" d="M128 96L64 96L64 160L128 160L128 96zM128 224L64 224L64 288L128 288L128 224zM64 352L64 416L128 416L128 352L64 352zM128 480L64 480L64 544L128 544L128 480z"/></svg>