<svg xmlns="http://www.w3.org/2000/svg" viewBox="0 0 640 640"><!--! Font Awesome Pro 7.2.0 by @fontawesome - https://fontawesome.com License - https://fontawesome.com/license (Commercial License) Copyright 2026 Fonticons, Inc. --><path opacity=".4" fill="currentColor" d="M144 64L144 576L496 576L496 64L144 64zM214.1 272L248 238.1L296 286.1L296 160L344 160L344 286.1C367 263.1 383 247.1 392 238.1L425.9 272C423.8 274.1 394.1 303.8 336.9 361L319.9 378C317.8 375.9 288.1 346.2 230.9 289L213.9 272zM256 480L384 480L384 528L256 528L256 480z"/><path fill="currentColor" d="M320 377.9C322.1 375.8 351.8 346.1 409 288.9L426 271.9L392.1 238C383.1 247 367.1 263 344.1 286L344.1 159.9L296.1 159.9L296.1 286L248.1 238L214.2 271.9C216.3 274 246 303.7 303.2 360.9L320.2 377.9z"/></svg>