<svg xmlns="http://www.w3.org/2000/svg" viewBox="0 0 640 640"><!--! Font Awesome Pro 7.2.0 by @fontawesome - https://fontawesome.com License - https://fontawesome.com/license (Commercial License) Copyright 2026 Fonticons, Inc. --><path opacity=".4" fill="currentColor" d="M208 128L208 512L432 512L432 128L384 128L384 160L256 160L256 128L208 128zM256 416L384 416L384 464L256 464L256 416z"/><path fill="currentColor" d="M256 128L256 160L384 160L384 128L432 128L432 512L208 512L208 128L256 128zM208 64L144 64L144 576L496 576L496 64L208 64zM256 416L256 464L384 464L384 416L256 416z"/></svg>