<svg xmlns="http://www.w3.org/2000/svg" viewBox="0 0 640 640"><!--! Font Awesome Pro 7.2.0 by @fontawesome - https://fontawesome.com License - https://fontawesome.com/license (Commercial License) Copyright 2026 Fonticons, Inc. --><path opacity=".4" fill="currentColor" d="M128 256L128 384C163.3 384 192 412.7 192 448L448 448C448 412.7 476.7 384 512 384L512 256C476.7 256 448 227.3 448 192L192 192C192 227.3 163.3 256 128 256zM416 320C416 373 373 416 320 416C267 416 224 373 224 320C224 267 267 224 320 224C373 224 416 267 416 320z"/><path fill="currentColor" d="M192 192C192 227.3 163.3 256 128 256L128 384C163.3 384 192 412.7 192 448L448 448C448 412.7 476.7 384 512 384L512 256C476.7 256 448 227.3 448 192L192 192zM64 128L576 128L576 512L64 512L64 128zM304 252L340 252L340 340L364 340L364 380L276 380L276 340L300 340L300 292L284 292L284 252L304 252z"/></svg>