<svg xmlns="http://www.w3.org/2000/svg" viewBox="0 0 640 640"><!--! Font Awesome Pro 7.2.0 by @fontawesome - https://fontawesome.com License - https://fontawesome.com/license (Commercial License) Copyright 2026 Fonticons, Inc. --><path opacity=".4" fill="currentColor" d="M64.4 269.8L69.5 274.9L120.4 325.8L222.2 224L174.2 176C198.7 176 218.1 176 232.4 176L232.4 128L576.4 128L576.4 370.2L571.3 365.1L520.4 314.2L418.6 416L466.6 464L408.4 464L408.4 512C513.7 512 414.4 512 64.4 512L64.4 269.8zM128.4 384L128.4 448L192.4 448C192.4 412.7 163.7 384 128.4 384zM224.4 320C223.3 354.9 241.2 387.6 271.3 405.4C301.3 423.1 338.6 423.1 368.6 405.4C398.7 387.6 416.6 354.9 415.5 320C416.6 285.1 398.7 252.4 368.6 234.6C338.6 216.9 301.3 216.9 271.3 234.6C241.2 252.4 223.3 285.1 224.4 320zM448.4 192C448.4 227.3 477.1 256 512.4 256L512.4 192L448.4 192z"/><path fill="currentColor" d="M31.5 135C88.7 77.8 118.3 48.2 120.5 46L154.4 80C145.4 89 129.4 105 106.4 128C187.4 128 229.5 128 232.5 128L232.5 176C229.5 176 187.5 176 106.4 176C129.4 199 145.4 215 154.4 224L120.5 257.9C118.4 255.8 88.7 226.1 31.5 168.9L14.5 151.9L31.5 134.9zM609.4 471L626.4 488C624.3 490.1 594.6 519.8 537.4 577L520.4 594L486.5 560.1C495.5 551.1 511.5 535.1 534.5 512.1L408.4 512.1L408.4 464.1L534.5 464.1L486.5 416.1L520.4 382.2C522.5 384.3 552.2 414 609.4 471.2z"/></svg>