<svg xmlns="http://www.w3.org/2000/svg" viewBox="0 0 640 640"><!--! Font Awesome Pro 7.2.0 by @fontawesome - https://fontawesome.com License - https://fontawesome.com/license (Commercial License) Copyright 2026 Fonticons, Inc. --><path opacity=".4" fill="currentColor" d="M64 128L64 512L576 512L576 128L64 128zM140 284.5C140 255.7 163.2 232.3 192 232L192 208L232 208L232 232L260 232L260 272L192.5 272C185.6 272 180 277.6 180 284.5C180 290.6 184.4 295.8 190.4 296.8L232.1 303.8C257.4 308 276 329.9 276 355.6C276 381.7 257 403.3 232 407.4L232 432.1L192 432.1L192 408.1L148 408.1L148 368.1L223.5 368.1C230.4 368.1 236 362.5 236 355.6C236 349.5 231.6 344.3 225.6 343.3L183.9 336.3C158.5 332 140 310.1 140 284.5zM336 240L512 240L512 288L336 288L336 240zM336 352L512 352L512 400L336 400L336 352z"/><path fill="currentColor" d="M232 208L192 208L192 232C163.2 232.3 140 255.7 140 284.5C140 310.2 158.5 332.1 183.9 336.3L225.6 343.3C231.6 344.3 236 349.5 236 355.6C236 362.5 230.4 368.1 223.5 368.1L148 368.1L148 408.1L192 408.1L192 432.1L232 432.1L232 407.4C257 403.3 276 381.7 276 355.6C276 329.9 257.5 308 232.1 303.8L190.4 296.8C184.4 295.8 180 290.6 180 284.5C180 277.6 185.6 272 192.5 272L260 272L260 232L232 232L232 208zM336 240L336 288L512 288L512 240L336 240zM336 352L336 400L512 400L512 352L336 352z"/></svg>