<svg xmlns="http://www.w3.org/2000/svg" viewBox="0 0 640 640"><!--! Font Awesome Pro 7.2.0 by @fontawesome - https://fontawesome.com License - https://fontawesome.com/license (Commercial License) Copyright 2026 Fonticons, Inc. --><path opacity=".4" fill="currentColor" d="M64 320L64 576L576 576L576 320L64 320zM112 368L160 368C160 394.5 138.5 416 112 416L112 368zM112 480C138.5 480 160 501.5 160 528L112 528L112 480zM384 448C384 483.3 355.3 512 320 512C284.7 512 256 483.3 256 448C256 412.7 284.7 384 320 384C355.3 384 384 412.7 384 448zM480 368L528 368L528 416C501.5 416 480 394.5 480 368zM480 528C480 501.5 501.5 480 528 480L528 528L480 528z"/><path fill="currentColor" d="M224 48L240 48C284.2 48 320 83.8 320 128L320 144L304 144C259.8 144 224 108.2 224 64L224 48zM96 64L192 64L192 112L96 112L96 64zM64 136L224 136L224 184L64 184L64 136zM120 208L192 208L192 256L96 256L96 208L120 208zM352 48C396.2 48 432 83.8 432 128L432 144L416 144C371.8 144 336 108.2 336 64L336 48L352 48zM448 48L464 48C508.2 48 544 83.8 544 128L544 144L528 144C483.8 144 448 108.2 448 64L448 48zM528 176L544 176L544 192C544 236.2 508.2 272 464 272L448 272L448 256C448 211.8 483.8 176 528 176zM432 176L432 192C432 236.2 396.2 272 352 272L336 272L336 256C336 211.8 371.8 176 416 176L432 176zM304 176L320 176L320 192C320 236.2 284.2 272 240 272L224 272L224 256C224 211.8 259.8 176 304 176z"/></svg>