<svg xmlns="http://www.w3.org/2000/svg" viewBox="0 0 640 640"><!--! Font Awesome Pro 7.2.0 by @fontawesome - https://fontawesome.com License - https://fontawesome.com/license (Commercial License) Copyright 2026 Fonticons, Inc. --><path opacity=".4" fill="currentColor" d="M186.4 512L453.6 512L423.9 126.2L423.2 117.3L416.9 111C353.1 47.2 320.7 14.8 319.9 14C319.1 14.8 286.8 47.1 222.9 111L216.6 117.3L215.9 126.2L186.2 512zM256 336L384 336L384 384L256 384L256 336z"/><path fill="currentColor" d="M384 336L256 336L256 384L384 384L384 336zM160 512L128 512L128 576L512 576L512 512L160 512z"/></svg>