<svg xmlns="http://www.w3.org/2000/svg" viewBox="0 0 640 640"><!--! Font Awesome Pro 7.2.0 by @fontawesome - https://fontawesome.com License - https://fontawesome.com/license (Commercial License) Copyright 2026 Fonticons, Inc. --><path opacity=".4" fill="currentColor" d="M32 320L608 320L608 576L368 576L368 416L272 416L272 576L32 576L32 320z"/><path fill="currentColor" d="M128 228.6C128 279.1 168.9 320 219.4 320L420.7 320C471.2 320 512.1 279.1 512.1 228.6C512.1 200.7 499.4 174.4 477.6 157.1L320 32L162.5 157.1C140.7 174.4 128 200.8 128 228.6zM368 576L368 416L272 416L272 576L368 576zM96 320L96 256L32 256L32 320L96 320zM544 320L608 320L608 256L544 256L544 320z"/></svg>