<svg xmlns="http://www.w3.org/2000/svg" viewBox="0 0 640 640"><!--! Font Awesome Pro 7.2.0 by @fontawesome - https://fontawesome.com License - https://fontawesome.com/license (Commercial License) Copyright 2026 Fonticons, Inc. --><path opacity=".4" fill="currentColor" d="M36.6 256.4C40.7 268.6 44.7 280.8 48.8 293C58.2 321.3 81.7 347.7 107.6 366.8C133.4 385.8 164.9 399.9 192.6 399.9C209 399.9 227 395.2 242.7 388.7C258.3 382.2 273.3 373.2 283.3 363.2L294.6 352C287.1 344.5 279.5 336.9 272 329.4L260.7 340.7C254.7 346.7 243.7 353.7 230.4 359.2C217.2 364.7 203.5 368 192.6 368C174.4 368 149.6 358.1 126.6 341.1C117.8 334.6 109.8 327.5 102.8 320L165.3 320C166.7 318.9 168.1 317.9 169.6 316.8L229.3 272L280.3 272C300.9 297.7 314.1 314.3 320 321.6C325.9 314.3 339.1 297.7 359.7 272L410.7 272L470.4 316.8L474.7 320L537.2 320C530.2 327.5 522.2 334.6 513.4 341.1C490.4 358.1 465.5 368 447.4 368C436.5 368 422.8 364.7 409.6 359.2C396.3 353.7 385.3 346.7 379.3 340.7C375.5 336.9 371.8 333.2 368 329.4L345.4 352L356.7 363.3C366.7 373.3 381.7 382.3 397.3 388.8C413 395.3 430.9 400 447.4 400C475.1 400 506.6 385.9 532.4 366.9C558.3 347.8 581.8 321.3 591.2 293.1C595.3 280.9 599.3 268.7 603.4 256.5C579.4 268.5 558.3 279 540.2 288.1L485.3 288.1C465.4 273.2 445.5 258.2 425.6 243.3C424.2 242.2 422.8 241.2 421.3 240.1L344.3 240.1C342.7 242.1 341.1 244.1 339.5 246.1L320 270.4C304.5 251.1 296.4 241 295.7 240L218.7 240C217.3 241.1 215.9 242.1 214.4 243.2L154.7 288L99.8 288C81.7 279 60.7 268.4 36.6 256.4z"/><path fill="currentColor" d="M184 176L283 176C284 177.2 296.3 191.6 320 219.1C343.6 191.5 355.9 177.2 357 176L456 176L462.4 180.8L546 243.5C588.7 219.8 620.1 202.3 640 191.3C640 218.7 640 245.4 640 271.4L640 271.4C640 377.8 553.8 464 447.4 464C400.7 464 355.7 447.1 320.5 416.3L320 415.9L319.5 416.3C284.4 447.1 239.3 464 192.6 464C86.2 464 0 377.8 0 271.4L0 271.4L0 191.3C20 202.4 51.3 219.8 94 243.5L177.5 180.8L183.9 176zM224 240L218.7 240L214.4 243.2L154.7 288L99.8 288C81.7 279 60.6 268.4 36.6 256.4L48.8 293C58.2 321.3 81.7 347.7 107.6 366.8C133.4 385.8 164.9 399.9 192.6 399.9C209 399.9 227 395.2 242.7 388.7C258.3 382.2 273.3 373.2 283.3 363.2L294.6 351.9L272 329.3L260.7 340.6C254.7 346.6 243.7 353.6 230.4 359.1C217.2 364.6 203.5 367.9 192.6 367.9C174.4 367.9 149.6 358 126.6 341C117.8 334.5 109.8 327.4 102.8 319.9L165.3 319.9L169.6 316.7L229.3 271.9L280.3 271.9C300.9 297.6 314.1 314.2 320 321.5C325.9 314.2 339.1 297.6 359.7 271.9L410.7 271.9L470.4 316.7L474.7 319.9L537.2 319.9C530.2 327.4 522.2 334.5 513.4 341C490.4 358 465.5 367.9 447.4 367.9C436.5 367.9 422.8 364.6 409.6 359.1C396.3 353.6 385.3 346.6 379.3 340.6L368 329.3L345.4 351.9L356.7 363.2C366.7 373.2 381.7 382.2 397.3 388.7C413 395.2 430.9 399.9 447.4 399.9C475.1 399.9 506.6 385.8 532.4 366.8C558.3 347.7 581.8 321.2 591.2 293L603.4 256.4C579.4 268.4 558.3 278.9 540.2 288L485.3 288L425.6 243.2L421.3 240L344.3 240C343.5 240.9 335.4 251.1 320 270.4L295.7 240L224 240z"/></svg>