<svg xmlns="http://www.w3.org/2000/svg" viewBox="0 0 640 640"><!--! Font Awesome Pro 7.2.0 by @fontawesome - https://fontawesome.com License - https://fontawesome.com/license (Commercial License) Copyright 2026 Fonticons, Inc. --><path opacity=".4" fill="currentColor" d="M0 160L0 288L64 320L64 416C64 504.4 135.6 576 224 576L464 576C561.2 576 640 497.2 640 400C640 351 619.8 306.8 587.3 274.8C566.5 254.3 540.6 239 511.7 230.7C496.2 226.3 479.9 223.9 463.1 223.9C412.2 223.9 362.4 241.4 322.9 273.5L128 432L128 320L192 288L192 160L96 208L0 160zM520 368C520 381.3 509.3 392 496 392C482.7 392 472 381.3 472 368C472 354.7 482.7 344 496 344C509.3 344 520 354.7 520 368z"/><path fill="currentColor" d="M587.3 274.8C566.5 254.3 540.6 239 511.7 230.7L640 64L587.3 274.8zM496 344C509.3 344 520 354.7 520 368C520 381.3 509.3 392 496 392C482.7 392 472 381.3 472 368C472 354.7 482.7 344 496 344z"/></svg>