<svg xmlns="http://www.w3.org/2000/svg" viewBox="0 0 640 640"><!--! Font Awesome Pro 7.2.0 by @fontawesome - https://fontawesome.com License - https://fontawesome.com/license (Commercial License) Copyright 2026 Fonticons, Inc. --><path opacity=".4" fill="currentColor" d="M64 96L64 544L281.6 544L290.8 488.9L299.7 480L128 480L128 160L216 160L216 208L176 208L176 432L347.7 432L400 379.7L400 208L312 208L312 278.4C326.3 286.7 336 302.2 336 320C336 346.5 314.5 368 288 368C261.5 368 240 346.5 240 320C240 302.2 249.7 286.7 264 278.4L264 160L448 160L448 331.7L512 267.7L512 96L64 96z"/><path fill="currentColor" d="M491.2 356.6L571.2 436.6L624 383.8L544 303.8L491.2 356.6zM468.6 379.2L336 511.8L320 607.8L416 591.8L548.6 459.2L468.6 379.2z"/></svg>