<svg xmlns="http://www.w3.org/2000/svg" viewBox="0 0 640 640"><!--! Font Awesome Pro 7.2.0 by @fontawesome - https://fontawesome.com License - https://fontawesome.com/license (Commercial License) Copyright 2026 Fonticons, Inc. --><path opacity=".4" fill="currentColor" d="M64.4 96L64.4 544L309.6 544C287 527.5 268.6 505.5 256.5 480L128.4 480L128.4 160L216.4 160L216.4 208L176.4 208L176.4 432L242.1 432C241 424.2 240.4 416.2 240.4 408.1C240.4 387.6 244.1 368 250.8 349.8C244.3 341.6 240.4 331.2 240.4 320C240.4 302.2 250.1 286.7 264.4 278.4L264.4 160L448.4 160L448.4 244.9C472.1 250.7 493.8 261.5 512.4 276.2L512.4 96.1L64.4 96.1zM312.4 208L312.4 270.2C337.6 252.6 367.8 241.8 400.4 240.3L400.4 208L312.4 208z"/><path fill="currentColor" d="M480.4 408.1C480.4 368.3 448.2 336.1 408.4 336.1C368.6 336.1 336.4 368.3 336.4 408.1C336.4 447.9 368.6 480.1 408.4 480.1C448.2 480.1 480.4 447.9 480.4 408.1zM474.6 508.2C455.6 520.8 432.9 528.1 408.4 528.1C342.1 528.1 288.4 474.4 288.4 408.1C288.4 341.8 342.1 288.1 408.4 288.1C474.7 288.1 528.4 341.8 528.4 408.1C528.4 432.6 521.1 455.3 508.5 474.3C556.4 522.2 582.3 548.1 586.3 552.1L552.4 586C548.4 582 522.5 556 474.6 508.2z"/></svg>