<svg xmlns="http://www.w3.org/2000/svg" viewBox="0 0 640 640"><!--! Font Awesome Pro 7.2.0 by @fontawesome - https://fontawesome.com License - https://fontawesome.com/license (Commercial License) Copyright 2026 Fonticons, Inc. --><path opacity=".4" fill="currentColor" d="M192 448L192 576L320 576L320 544L512 544L512 576L640 576L640 448L608 448L608 352L640 352L640 224L512 224L512 256L416 256L416 288L448 288L448 320L544 320L544 480L288 480L288 384L224 384L224 448L192 448z"/><path fill="currentColor" d="M0 64L128 64L128 96L320 96L320 64L448 64L448 192L416 192L416 288L448 288L448 416L320 416L320 384L128 384L128 416L0 416L0 288L32 288L32 192L0 192L0 64zM352 192L352 160L96 160L96 320L352 320L352 192z"/></svg>