<svg xmlns="http://www.w3.org/2000/svg" viewBox="0 0 640 640"><!--! Font Awesome Pro 7.2.0 by @fontawesome - https://fontawesome.com License - https://fontawesome.com/license (Commercial License) Copyright 2026 Fonticons, Inc. --><path opacity=".4" fill="currentColor" d="M0 288L0 432L96 474.7L96 544L432 544L640 320L608 288L448 320L443.3 317.6C446.3 328.5 448 340.1 448 352C448 422.7 390.7 480 320 480C249.3 480 192 422.7 192 352C192 328.7 198.3 306.8 209.2 288L0 288zM48 336L96 336L96 422.1L48 400.8L48 336zM544 528C544 554.5 565.5 576 592 576C618.5 576 640 560 640 528C640 496 592 432 592 432C592 432 544 496 544 528z"/><path fill="currentColor" d="M416 128L352 128L352 160L416 160L416 224L352 224L352 278.7C380.2 291 400 319.2 400 352C400 396.2 364.2 432 320 432C275.8 432 240 396.2 240 352C240 319.2 259.8 291 288 278.7L288 64L416 64L416 128z"/></svg>