<svg xmlns="http://www.w3.org/2000/svg" viewBox="0 0 640 640"><!--! Font Awesome Pro 7.2.0 by @fontawesome - https://fontawesome.com License - https://fontawesome.com/license (Commercial License) Copyright 2026 Fonticons, Inc. --><path opacity=".4" fill="currentColor" d="M512 384C512 490 426 576 320 576C214 576 128 490 128 384C128 278 214 192 320 192C426 192 512 278 512 384zM192 384C192 454.7 249.3 512 320 512C390.7 512 448 454.7 448 384C448 313.3 390.7 256 320 256C249.3 256 192 313.3 192 384z"/><path fill="currentColor" d="M128 128L512 128L512 64L128 64L128 128z"/></svg>