<svg xmlns="http://www.w3.org/2000/svg" viewBox="0 0 640 640"><!--! Font Awesome Pro 7.2.0 by @fontawesome - https://fontawesome.com License - https://fontawesome.com/license (Commercial License) Copyright 2026 Fonticons, Inc. --><path opacity=".4" fill="currentColor" d="M32 512L32 576L208 576C269.9 576 320 525.9 320 464C320 458.6 319.6 453.2 318.9 448C311.9 399 273.1 360.2 224 353.1C218.8 352.4 213.4 352 208 352C146.1 352 96 402.1 96 464C96 481.2 99.9 497.4 106.8 512L32 512z"/><path fill="currentColor" d="M224 353.1L224 272L528 64L608 144L400 448L318.9 448C311.9 399 273.1 360.2 224 353.1z"/></svg>