<svg xmlns="http://www.w3.org/2000/svg" viewBox="0 0 640 640"><!--! Font Awesome Pro 7.2.0 by @fontawesome - https://fontawesome.com License - https://fontawesome.com/license (Commercial License) Copyright 2026 Fonticons, Inc. --><path opacity=".4" fill="currentColor" d="M66 557.9C89.5 435.9 112.9 313.9 136.4 192L224.3 192L224.3 144L145.6 144C145.7 143.3 145.9 142.6 146 141.9L161 64L479.6 64L494.6 141.9L495 144L416.3 144L416.3 192L504.2 192C527.7 314 551.1 435.9 574.6 557.9L386.1 594.2L321.1 256.1L319.7 256.1L254.7 594.2L66.2 557.9z"/><path fill="currentColor" d="M136.4 192L145.6 144L224.3 144L224.3 192L136.4 192zM495 144L504.2 192L416.3 192L416.3 144L495 144z"/></svg>