<svg xmlns="http://www.w3.org/2000/svg" viewBox="0 0 640 640"><!--! Font Awesome Pro 7.2.0 by @fontawesome - https://fontawesome.com License - https://fontawesome.com/license (Commercial License) Copyright 2026 Fonticons, Inc. --><path opacity=".4" fill="currentColor" d="M96 96L96 544L544 544L544 96L96 96zM224 192L336 192C389 192 432 235 432 288C432 341 389 384 336 384L288 384L288 448L224 448L224 192zM288 256L288 320L336 320C353.7 320 368 305.7 368 288C368 270.3 353.7 256 336 256L288 256z"/><path fill="currentColor" d="M224 192L336 192C389 192 432 235 432 288C432 341 389 384 336 384L288 384L288 448L224 448L224 192zM288 320L336 320C353.7 320 368 305.7 368 288C368 270.3 353.7 256 336 256L288 256L288 320z"/></svg>