<svg xmlns="http://www.w3.org/2000/svg" viewBox="0 0 640 640"><!--! Font Awesome Pro 7.2.0 by @fontawesome - https://fontawesome.com License - https://fontawesome.com/license (Commercial License) Copyright 2026 Fonticons, Inc. --><path opacity=".4" fill="currentColor" d="M128 64L512 64L512 512L128 512L128 64zM200 160C200 173.3 210.7 184 224 184C237.3 184 248 173.3 248 160C248 146.7 237.3 136 224 136C210.7 136 200 146.7 200 160zM392 160C392 173.3 402.7 184 416 184C429.3 184 440 173.3 440 160C440 146.7 429.3 136 416 136C402.7 136 392 146.7 392 160z"/><path fill="currentColor" d="M248 160C248 146.7 237.3 136 224 136C210.7 136 200 146.7 200 160C200 173.3 210.7 184 224 184C237.3 184 248 173.3 248 160zM440 160C440 146.7 429.3 136 416 136C402.7 136 392 146.7 392 160C392 173.3 402.7 184 416 184C429.3 184 440 173.3 440 160zM128 512L96 512L96 576L544 576L544 512L128 512z"/></svg>