<svg xmlns="http://www.w3.org/2000/svg" viewBox="0 0 640 640"><!--! Font Awesome Pro 7.2.0 by @fontawesome - https://fontawesome.com License - https://fontawesome.com/license (Commercial License) Copyright 2026 Fonticons, Inc. --><path opacity=".4" fill="currentColor" d="M32 320L32 400L80 400L80 320C80 306.6 86.6 294.8 96.7 287.5C96.3 284 96 280.4 96 276.8C96 260.7 100.5 245.6 108.3 232.7C65.2 238.4 32 275.3 32 319.9z"/><path fill="currentColor" d="M480 302.1L480 224L496 224L528 288L608 256L608 128L576 96L608 96L608 64L480 64C409.3 64 352 121.3 352 192L192 96C192 96 171.8 237.7 260.1 295.7C251.4 293 243.4 289.6 235.9 285.6C213.4 273.5 197.3 256.2 186 235.8C178.7 222.6 173.3 208 169.5 192.8C128 198.4 96 233.9 96 276.9C96 293.7 101 310 110.2 324L152.6 387.6C133.9 406.2 118.1 422.1 105 435.2C106.5 439.8 122.2 486.8 152 576.2L253.2 576.2L214.9 461.2C235.1 441 248.8 427.3 256 420.1L256 384.2L339.7 408.1C343.8 409.3 347.9 410.2 352 410.9L352 576.2L448 576.2L448 379.9C467.2 360.7 479.5 334.2 480 304.2L480 304.2L480 302.3zM528 128C536.8 128 544 135.2 544 144C544 152.8 536.8 160 528 160C519.2 160 512 152.8 512 144C512 135.2 519.2 128 528 128z"/></svg>