<svg xmlns="http://www.w3.org/2000/svg" viewBox="0 0 640 640"><!--! Font Awesome Pro 7.2.0 by @fontawesome - https://fontawesome.com License - https://fontawesome.com/license (Commercial License) Copyright 2026 Fonticons, Inc. --><path opacity=".4" fill="currentColor" d="M47.5 192C60.1 204.6 91.5 236 141.8 286.3L286.4 141.8L254.5 109.9C210 154.4 186.5 177.9 184.1 180.3L155.8 152C158.2 149.6 181.7 126.1 226.2 81.6C226 81.4 214.7 70.1 192.1 47.5C183.2 56.4 144.4 95.2 75.8 163.8L47.5 192zM353.7 498.2C404 548.5 435.5 580 448 592.5L592.6 447.9L564.3 419.6L558.4 413.7C513.9 458.2 490.4 481.7 488 484.1L459.8 456C462.2 453.6 485.7 430.1 530.2 385.6L498.3 353.7L353.7 498.3z"/><path fill="currentColor" d="M48.1 592L104.1 392L327.1 169L471.1 313L248.1 536L48.1 592zM505 279L361 135L448 48L592 192L505 279z"/></svg>