<svg xmlns="http://www.w3.org/2000/svg" viewBox="0 0 640 640"><!--! Font Awesome Pro 7.2.0 by @fontawesome - https://fontawesome.com License - https://fontawesome.com/license (Commercial License) Copyright 2026 Fonticons, Inc. --><path opacity=".4" fill="currentColor" d="M64 352L64 448L96 448L96 544L208.1 544C208 542.7 208 541.3 208 540L208 496L176 496L176 336C176 309.3 183.3 284.4 195.9 262.9C184.8 258.4 172.7 256 160 256C107 256 64 299 64 352zM104 152C104 182.9 129.1 208 160 208C190.9 208 216 182.9 216 152C216 121.1 190.9 96 160 96C129.1 96 104 121.1 104 152zM424 152C424 182.9 449.1 208 480 208C510.9 208 536 182.9 536 152C536 121.1 510.9 96 480 96C449.1 96 424 121.1 424 152zM432 496L432 540C432 541.3 432 542.7 431.9 544L544 544L544 448L576 448L576 352C576 299 533 256 480 256C467.3 256 455.2 258.5 444.1 262.9C456.7 284.3 464 309.3 464 336L464 496L432 496z"/><path fill="currentColor" d="M256 128C256 92.7 284.7 64 320 64C355.3 64 384 92.7 384 128C384 163.3 355.3 192 320 192C284.7 192 256 163.3 256 128zM384 448L384 576L256 576L256 448L224 448L224 336C224 283 267 240 320 240C373 240 416 283 416 336L416 448L384 448z"/></svg>