<svg xmlns="http://www.w3.org/2000/svg" viewBox="0 0 640 640"><!--! Font Awesome Pro 7.2.0 by @fontawesome - https://fontawesome.com License - https://fontawesome.com/license (Commercial License) Copyright 2026 Fonticons, Inc. --><path opacity=".4" fill="currentColor" d="M256.3 457.4L256.3 512L448.3 512L448.3 480L278.9 480L461 297.9L455.1 288L425.6 288L256.2 457.4zM272.3 176C272.3 220.2 308.1 256 352.3 256C396.5 256 432.3 220.2 432.3 176C432.3 164.6 429.9 153.8 425.6 144L279 144C274.7 153.8 272.3 164.6 272.3 176z"/><path fill="currentColor" d="M448.3 64L448.3 144L256.3 144L256.3 96L448.3 64zM425.7 288L256.3 457.4L256.3 368L64.3 368L64.3 288L425.7 288zM256.3 512L448.3 512L448.3 576L256.3 576L256.3 512zM448.3 480L278.9 480L461 297.9L466.7 307.6L570.7 483.6L591.1 518L522.2 558.7C514.2 545.1 489.5 503.4 448.3 433.6L448.3 479.9z"/></svg>