<svg xmlns="http://www.w3.org/2000/svg" viewBox="0 0 640 640"><!--! Font Awesome Pro 7.2.0 by @fontawesome - https://fontawesome.com License - https://fontawesome.com/license (Commercial License) Copyright 2026 Fonticons, Inc. --><path opacity=".4" fill="currentColor" d="M128 389.7L128 480L192 480L192 410.3L224 365.5L224 480L416 480L416 365.5L448 410.3L448 480L512 480L512 389.7L506 381.4L426 269.4L416.4 256L223.5 256L213.9 269.4L133.9 381.4L127.9 389.7zM248 136C248 175.8 280.2 208 320 208C359.8 208 392 175.8 392 136C392 96.2 359.8 64 320 64C280.2 64 248 96.2 248 136zM320 424C320 437.3 309.3 448 296 448C282.7 448 272 437.3 272 424C272 410.7 282.7 400 296 400C309.3 400 320 410.7 320 424zM384 344C384 357.3 373.3 368 360 368C346.7 368 336 357.3 336 344C336 330.7 346.7 320 360 320C373.3 320 384 330.7 384 344z"/><path fill="currentColor" d="M128 248C128 234.7 138.7 224 152 224C165.3 224 176 234.7 176 248C176 261.3 165.3 272 152 272C138.7 272 128 261.3 128 248zM64 528L576 528L576 576L64 576L64 528zM552 320C565.3 320 576 330.7 576 344C576 357.3 565.3 368 552 368C538.7 368 528 357.3 528 344C528 330.7 538.7 320 552 320zM272 424C272 410.7 282.7 400 296 400C309.3 400 320 410.7 320 424C320 437.3 309.3 448 296 448C282.7 448 272 437.3 272 424zM360 320C373.3 320 384 330.7 384 344C384 357.3 373.3 368 360 368C346.7 368 336 357.3 336 344C336 330.7 346.7 320 360 320z"/></svg>