<svg xmlns="http://www.w3.org/2000/svg" viewBox="0 0 640 640"><!--! Font Awesome Pro 7.2.0 by @fontawesome - https://fontawesome.com License - https://fontawesome.com/license (Commercial License) Copyright 2026 Fonticons, Inc. --><path opacity=".4" fill="currentColor" d="M162.7 560L208 605.3C216.2 597.1 245.1 568.2 294.6 518.7L300.5 512.8C301.3 510.1 304.3 499.6 309.5 481.3L263.5 441.9C261 439.7 258.5 437.5 256.1 435.1L243.5 479.3C198.8 523.9 171.9 550.8 162.7 560z"/><path fill="currentColor" d="M320 32C350.9 32 376 57.1 376 88C376 118.9 350.9 144 320 144C289.1 144 264 118.9 264 88C264 57.1 289.1 32 320 32zM258.7 176L367.3 176L376.9 188L431.3 256L511.9 256L511.9 320L400.5 320C396.3 314.8 385.5 301.2 367.9 279.2L367.9 394.4L420.7 439.7L429.7 447.4L431.5 459.1C444 540.5 451 585.7 452.4 594.7L389.1 604.4C387.4 593.4 381.1 552.1 370 480.5L289.3 411.4C268 393.2 255.8 366.5 255.8 338.5L255.8 269.2L223.8 301.2L223.8 383.9L159.8 383.9L159.8 274.6L169.2 265.2L249.2 185.2L258.6 175.8z"/></svg>