<svg xmlns="http://www.w3.org/2000/svg" viewBox="0 0 640 640"><!--! Font Awesome Pro 7.2.0 by @fontawesome - https://fontawesome.com License - https://fontawesome.com/license (Commercial License) Copyright 2026 Fonticons, Inc. --><path opacity=".4" fill="currentColor" d="M448 448C448 483.3 476.7 512 512 512C547.3 512 576 483.3 576 448C576 412.7 547.3 384 512 384C476.7 384 448 412.7 448 448z"/><path fill="currentColor" d="M304 160C334.9 160 360 134.9 360 104C360 73.1 334.9 48 304 48C273.1 48 248 73.1 248 104C248 134.9 273.1 160 304 160zM160 192L141.9 192L132.6 207.5C95.3 269.6 73.8 305.4 68.1 315L123 347.9C130.3 335.8 148.7 305.1 178.1 256L199.8 256L170 335.5C162.3 356.1 161.9 378.7 168.8 399.6L185.7 450.2C114.7 494.6 75.4 519.1 67.9 523.8L101.8 578.1C105.7 575.6 152.1 546.6 240.9 491.1L262.3 477.7C258.8 467.2 249.9 440.4 235.5 397.4L324.6 438.5C346.9 527.6 358.9 575.7 360.6 582.7L422.7 567.2C421.6 562.7 408.3 509.6 382.9 408.2L379.2 393.3L365.3 386.9L286.4 350.5L303.9 291.1C320.9 315.3 330.6 329.2 333.1 332.8L345.7 335.3C407.1 347.6 444.3 355 457.1 357.6L469.7 294.8C454.8 291.8 421.9 285.2 370.9 275L322.3 205.5L312.7 191.9L160 191.9z"/></svg>