<svg xmlns="http://www.w3.org/2000/svg" viewBox="0 0 640 640"><!--! Font Awesome Pro 7.2.0 by @fontawesome - https://fontawesome.com License - https://fontawesome.com/license (Commercial License) Copyright 2026 Fonticons, Inc. --><path opacity=".4" fill="currentColor" d="M32.4 274.7L32.4 384L96.4 384L96.4 301.3L128.4 269.3L128.4 338.6C128.4 366.6 140.6 393.3 161.9 411.5L242.6 480.6C253.6 552.2 260 593.5 261.7 604.5L325 594.8C323.6 585.8 316.7 540.6 304.1 459.2L302.3 447.5L293.3 439.8L240.5 394.5L240.5 279.3C258.1 301.3 268.9 314.9 273.1 320.1L384.5 320.1L384.5 256.1L303.9 256.1L249.5 188.1L239.9 176.1L131.3 176.1L121.9 185.5L41.9 265.5L32.5 274.9zM35.2 560L80.5 605.3L167.1 518.7L173 512.8C173.8 510.1 176.8 499.6 182 481.3L136 441.9C133.5 439.7 131 437.5 128.6 435.1L116 479.2C71.3 523.9 44.4 550.8 35.2 560zM136.4 88C136.4 118.9 161.5 144 192.4 144C223.3 144 248.4 118.9 248.4 88C248.4 57.1 223.3 32 192.4 32C161.5 32 136.4 57.1 136.4 88z"/><path fill="currentColor" d="M626.4 320C624.3 322.1 594.6 351.8 537.4 409L520.4 426L486.5 392.1C495.5 383.1 511.5 367.1 534.5 344.1L408.4 344.1L408.4 296.1L534.5 296.1C511.5 273.1 495.5 257.1 486.5 248.1L520.4 214.2C522.5 216.3 552.2 246 609.4 303.2L626.4 320.2z"/></svg>