<svg xmlns="http://www.w3.org/2000/svg" viewBox="0 0 640 640"><!--! Font Awesome Pro 7.2.0 by @fontawesome - https://fontawesome.com License - https://fontawesome.com/license (Commercial License) Copyright 2026 Fonticons, Inc. --><path opacity=".4" fill="currentColor" d="M30.5 440C38 447.5 57 466.5 87.5 497C90.9 500.4 95.2 502.7 99.9 503.6L467.9 575.6C471.6 576.3 475.5 576.2 479.1 575.1C521.9 562.9 548.3 555.3 558.2 552.5L545 506.3C534.2 509.4 509.7 516.4 471.5 527.3C100.8 454.8 208.8 475.9 116.3 457.8C90.1 431.6 72.8 414.3 64.5 406L30.5 440z"/><path fill="currentColor" d="M456.4 80C487.3 80 512.4 105.1 512.4 136C512.4 166.9 487.3 192 456.4 192C425.5 192 400.4 166.9 400.4 136C400.4 105.1 425.5 80 456.4 80zM216.8 83.4L242.9 101.9L514.9 293.9L541 312.4L504.1 364.7C497.7 360.2 458.2 332.3 385.7 281.1L323.5 334.4C362.7 367.1 383 384 384.4 385.1L384.4 510.4L320.4 497.9L320.4 415.1L256.4 361.8L256.4 485.4L192.4 472.9L192.4 349.2C192.4 321.5 204.4 295.2 225.2 277L294.2 216.6C225 167.6 186.9 140.7 179.8 135.7L216.7 83.4z"/></svg>