<svg xmlns="http://www.w3.org/2000/svg" viewBox="0 0 640 640"><!--! Font Awesome Pro 7.2.0 by @fontawesome - https://fontawesome.com License - https://fontawesome.com/license (Commercial License) Copyright 2026 Fonticons, Inc. --><path opacity=".4" fill="currentColor" d="M83 554.8L123.7 604.2C128.3 600.4 168.5 567.3 244.4 504.7L251.2 499.1C251.5 498.2 256.8 483.4 267 454.8L262.3 453.4C241.9 447.3 224.4 435.8 211.1 421L196.8 461C126.6 518.8 88.7 550.1 83 554.8zM448 544C448 579.3 476.7 608 512 608C547.3 608 576 579.3 576 544C576 508.7 547.3 480 512 480C476.7 480 448 508.7 448 544z"/><path fill="currentColor" d="M352 144C382.9 144 408 118.9 408 88C408 57.1 382.9 32 352 32C321.1 32 296 57.1 296 88C296 118.9 321.1 144 352 144zM192 176L170.3 176C168.9 179.4 155.6 212.8 130.3 276.1L118.4 305.8L177.8 329.6C183.7 314.8 195.7 284.9 213.6 240L255 240L232.3 330.6C224 363.8 243.3 397.6 276 407.4L372 436.2C333.1 523.7 312.4 570.3 309.8 576.2L368.3 602.2L381.3 573C432.2 458.5 458.4 399.5 460.1 395.8C446.6 391.7 404 379 332.5 357.5L353.2 287.1C367.7 311.9 377.2 328.2 381.7 335.9L512.1 335.9L512.1 271.9L418.5 271.9L390.3 223.5C373 194.1 341.4 176 307.2 176L192 176z"/></svg>