<svg xmlns="http://www.w3.org/2000/svg" viewBox="0 0 640 640"><!--! Font Awesome Pro 7.2.0 by @fontawesome - https://fontawesome.com License - https://fontawesome.com/license (Commercial License) Copyright 2026 Fonticons, Inc. --><path opacity=".4" fill="currentColor" d="M64 192C64 192 160 96 320 96C480 96 576 192 576 192L576 288L511.7 288C468.3 217.5 445.3 180.2 442.8 176L197.2 176C194.6 180.2 171.7 217.5 128.3 288L64 288L64 192z"/><path fill="currentColor" d="M96 432L96 544L544 544L544 432L416 224L224 224L96 432zM320 304C359.8 304 392 336.2 392 376C392 415.8 359.8 448 320 448C280.2 448 248 415.8 248 376C248 336.2 280.2 304 320 304z"/></svg>