<svg xmlns="http://www.w3.org/2000/svg" viewBox="0 0 640 640"><!--! Font Awesome Pro 7.2.0 by @fontawesome - https://fontawesome.com License - https://fontawesome.com/license (Commercial License) Copyright 2026 Fonticons, Inc. --><path opacity=".4" fill="currentColor" d="M199.7 82.2C275.9 103.1 345.1 141.2 402.7 192.1C418.7 206.2 433.8 221.3 448 237.4C498.9 295 536.9 364.1 557.8 440.4C589.3 397.8 608 345.2 608 288.1C608 228.9 587.9 174.5 554.2 131.1C541.1 114.2 525.8 99 508.9 85.8C465.5 52.1 411.1 32 351.9 32C294.9 32 242.2 50.7 199.6 82.2z"/><path fill="currentColor" d="M448 237.3L118.6 566.6L96 589.3L50.7 544L73.4 521.4L402.7 192C418.7 206.1 433.8 221.2 448 237.3zM554.2 131C541.1 114.1 525.8 98.9 508.9 85.7C515.5 79.1 527.1 67.5 543.9 50.7L589.3 96C572.5 112.8 560.8 124.5 554.3 131z"/></svg>