<svg xmlns="http://www.w3.org/2000/svg" viewBox="0 0 640 640"><!--! Font Awesome Pro 7.2.0 by @fontawesome - https://fontawesome.com License - https://fontawesome.com/license (Commercial License) Copyright 2026 Fonticons, Inc. --><path opacity=".4" fill="currentColor" d="M79.1 365.2C150.6 331.1 135.8 338.2 143.2 334.7C145.3 335.5 147.4 336.2 149.5 337C177 347 204.5 357 232 367L314.5 337L320 335L325.5 337L408 367C435.5 357 463 347 490.5 337C492.6 336.2 494.7 335.5 496.8 334.7L502.9 337.6L561 365.2L512.1 512L128.1 512L79.2 365.2z"/><path fill="currentColor" d="M320 128C206.6 128 110.3 201.8 76.7 304L32 304L32 368L73.2 368L137.1 337.6L143.1 334.7L149.4 337L231.9 367L314.4 337L319.9 335L325.4 337L407.9 367L490.4 337L496.7 334.7L502.8 337.6L566.7 368L607.9 368L607.9 304L563.2 304C529.7 201.8 433.4 128 320 128zM238.3 215.2C226.2 239.5 218.4 254.9 215.1 261.5L186.5 247.2C189.8 240.6 197.5 225.2 209.7 200.9L216.9 186.6L245.5 200.9L238.3 215.2zM430.3 200.9C442.4 225.2 450.2 240.6 453.5 247.2L424.9 261.5C421.6 254.9 413.9 239.5 401.7 215.2L394.5 200.9L423.1 186.6L430.3 200.9zM336 208L336 256L304 256L304 192L336 192L336 208z"/></svg>