<svg xmlns="http://www.w3.org/2000/svg" viewBox="0 0 640 640"><!--! Font Awesome Pro 7.2.0 by @fontawesome - https://fontawesome.com License - https://fontawesome.com/license (Commercial License) Copyright 2026 Fonticons, Inc. --><path opacity=".4" fill="currentColor" d="M144 208L346.2 410.2C372.3 384.1 408.2 368 448 368C479.1 368 507.9 377.9 531.4 394.7C560.1 358.8 576 314.1 576 267.7C576 155.2 484.8 64 372.3 64C318.3 64 266.5 85.5 228.3 123.7L144 208zM352 512C352 565 395 608 448 608C501 608 544 565 544 512C544 459 501 416 448 416C395 416 352 459 352 512z"/><path fill="currentColor" d="M346.2 410.2C320.1 436.3 304 472.2 304 512C304 523 305.3 533.7 307.6 544L288 544L232 488L144 576L64 496L152 408L96 352L96 256L144 208L346.2 410.2z"/></svg>