<svg xmlns="http://www.w3.org/2000/svg" viewBox="0 0 640 640"><!--! Font Awesome Pro 7.2.0 by @fontawesome - https://fontawesome.com License - https://fontawesome.com/license (Commercial License) Copyright 2026 Fonticons, Inc. --><path opacity=".4" fill="currentColor" d="M32 512L608 512L608 576L32 576L32 512z"/><path fill="currentColor" d="M290.3 55.8L418.6 257.1L551.2 280.5C581.7 285.9 602 314.9 596.6 345.4C591.2 375.9 562.2 396.2 531.7 390.8L114.1 317.2L114.1 317.2L48 305.5L47 126.6L94.3 134.9L133.6 206.8L238.6 225.3L211.4 41.8L290.2 55.7zM224 416C224 398.3 238.3 384 256 384C273.7 384 288 398.3 288 416C288 433.7 273.7 448 256 448C238.3 448 224 433.7 224 416zM355.2 400.7C372.9 400.7 387.2 415 387.2 432.7C387.2 450.4 372.9 464.7 355.2 464.7C337.5 464.7 323.2 450.4 323.2 432.7C323.2 415 337.5 400.7 355.2 400.7z"/></svg>