<svg xmlns="http://www.w3.org/2000/svg" viewBox="0 0 640 640"><!--! Font Awesome Pro 7.2.0 by @fontawesome - https://fontawesome.com License - https://fontawesome.com/license (Commercial License) Copyright 2026 Fonticons, Inc. --><path opacity=".4" fill="currentColor" d="M48 384L48 464L232 402.7L232 502.4L160 560L160 608L288 576L353.1 592.3C322.5 558.3 304 513.3 304 464C304 384.2 352.7 315.8 422 286.8L344 215.3L344 88C344 57.1 318.9 32 288 32C257.1 32 232 57.1 232 88L232 215.3L48 384z"/><path fill="currentColor" d="M352 464C352 384.5 416.5 320 496 320C575.5 320 640 384.5 640 464C640 543.5 575.5 608 496 608C416.5 608 352 543.5 352 464zM562.6 420L540 397.4C536 401.4 521.4 416 496 441.4C470.7 416 456 401.4 452 397.4L429.4 420C433.4 424 448 438.6 473.4 464C448 489.3 433.4 504 429.4 508L452 530.6C456 526.6 470.6 512 496 486.6C521.3 512 536 526.6 540 530.6L562.6 508C558.6 504 544 489.4 518.6 464C544 438.7 558.6 424 562.6 420z"/></svg>