<svg xmlns="http://www.w3.org/2000/svg" viewBox="0 0 640 640"><!--! Font Awesome Pro 7.2.0 by @fontawesome - https://fontawesome.com License - https://fontawesome.com/license (Commercial License) Copyright 2026 Fonticons, Inc. --><path opacity=".4" fill="currentColor" d="M64 160L64 224L96 224L96 288C96 383.1 165.2 462.1 256 477.3L256 576L320 576L320 540.9C309.7 517.4 304 491.4 304 464C304 363.4 381.4 280.8 480 272.7L480 224L512 224L512 160L416 160L416 32L352 32L352 160L224 160L224 32L160 32L160 160L64 160z"/><path fill="currentColor" d="M496 608C575.5 608 640 543.5 640 464C640 384.5 575.5 320 496 320C416.5 320 352 384.5 352 464C352 543.5 416.5 608 496 608zM556.9 425.4L492.9 513.4L481.9 528.5C477.5 524.1 459.8 506.4 428.7 475.3L417.4 464L440 441.4C445 446.4 457.7 459.1 478.1 479.5L531.1 406.6L540.5 393.7L566.4 412.5L557 425.4z"/></svg>