<svg xmlns="http://www.w3.org/2000/svg" viewBox="0 0 640 640"><!--! Font Awesome Pro 7.2.0 by @fontawesome - https://fontawesome.com License - https://fontawesome.com/license (Commercial License) Copyright 2026 Fonticons, Inc. --><path opacity=".4" fill="currentColor" d="M96 288C96 375.4 146 451 218.9 488L210 425.4C169.8 393.1 144 343.6 144 288C144 190.8 222.8 112 320 112C417.2 112 496 190.8 496 288C496 343.6 470.2 393.1 430 425.4L421.1 488C494 451 544 375.4 544 288C544 164.3 443.7 64 320 64C196.3 64 96 164.3 96 288zM192 288C192 320.1 203.8 349.5 223.4 371.9L250.5 338L254.1 333.4C245.2 320.5 239.9 304.8 239.9 287.9C239.9 243.7 275.7 207.9 319.9 207.9C364.1 207.9 399.9 243.7 399.9 287.9C399.9 304.8 394.7 320.5 385.7 333.4L389.3 338L416.4 371.9C435.9 349.4 447.8 320.1 447.8 288C447.8 217.3 390.5 160 319.8 160C249.1 160 192 217.3 192 288z"/><path fill="currentColor" d="M320 248C342.1 248 360 265.9 360 288C360 310.1 342.1 328 320 328C297.9 328 280 310.1 280 288C280 265.9 297.9 248 320 248zM280 576L256 408L288 368L352 368L384 408L360 576L280 576z"/></svg>