<svg xmlns="http://www.w3.org/2000/svg" viewBox="0 0 640 640"><!--! Font Awesome Pro 7.2.0 by @fontawesome - https://fontawesome.com License - https://fontawesome.com/license (Commercial License) Copyright 2026 Fonticons, Inc. --><path opacity=".4" fill="currentColor" d="M64 504L64 544L576 544L576 504C576 468.3 550.1 438.7 516 433C516.4 432.7 516.8 432.3 517.3 432L122.7 432C123.1 432.3 123.5 432.7 124 433C89.9 438.7 64 468.3 64 504zM96 376C96 384.4 97.4 392.5 100.1 400L539.9 400C542.6 392.5 544 384.4 544 376C544 336.2 511.8 304 472 304L168 304C128.2 304 96 336.2 96 376zM160 256C160 261.5 160.7 266.9 162 272L478 272C479.3 266.9 480 261.5 480 256C480 220.7 451.3 192 416 192L410.5 192C414 182 416 171.2 416 160C416 107 373 64 320 64C314.9 64 309.8 64.4 304.9 65.2C314.4 78.4 320 94.5 320 112C320 156.2 284.2 192 240 192L224 192C188.7 192 160 220.7 160 256z"/><path fill="currentColor" d="M122.7 432L517.2 432C527.4 423.7 535.4 412.7 539.8 400L100.1 400C104.6 412.7 112.5 423.7 122.7 432zM64 544L64 576L576 576L576 544L64 544zM478 272L162 272C165.2 284.6 172.2 295.7 181.7 304L458.4 304C467.8 295.7 474.8 284.6 478.1 272z"/></svg>