<svg xmlns="http://www.w3.org/2000/svg" viewBox="0 0 640 640"><!--! Font Awesome Pro 7.2.0 by @fontawesome - https://fontawesome.com License - https://fontawesome.com/license (Commercial License) Copyright 2026 Fonticons, Inc. --><path opacity=".4" fill="currentColor" d="M64 64L64 160L448 160L448 64L64 64zM96 208L96 272L192 272L192 320L96 320L96 368L192 368L192 416L96 416L96 464L192 464L192 512L96 512L96 576L308 576C285.3 544.5 272 505.8 272 464C272 374.5 333.2 299.4 416 278L416 208L96 208z"/><path fill="currentColor" d="M547.4 346.6C523.9 329.8 495.1 320 464 320C384.5 320 320 384.5 320 464C320 495.1 329.9 523.9 346.6 547.4L547.4 346.6zM380.6 581.4C404.1 598.2 432.9 608 464 608C543.5 608 608 543.5 608 464C608 432.9 598.1 404.1 581.4 380.6L380.6 581.4z"/></svg>