<svg xmlns="http://www.w3.org/2000/svg" viewBox="0 0 640 640"><!--! Font Awesome Pro 7.2.0 by @fontawesome - https://fontawesome.com License - https://fontawesome.com/license (Commercial License) Copyright 2026 Fonticons, Inc. --><path opacity=".4" fill="currentColor" d="M64 128L576 128L576 512L64 512L64 128zM160 256C160 273.7 174.3 288 192 288C209.7 288 224 273.7 224 256C224 238.3 209.7 224 192 224C174.3 224 160 238.3 160 256zM160 384C160 401.7 174.3 416 192 416C209.7 416 224 401.7 224 384C224 366.3 209.7 352 192 352C174.3 352 160 366.3 160 384zM288 232L288 280L480 280L480 232L288 232zM288 360L288 408L480 408L480 360L288 360z"/><path fill="currentColor" d="M288 232L480 232L480 280L288 280L288 232zM288 360L480 360L480 408L288 408L288 360z"/></svg>