<svg xmlns="http://www.w3.org/2000/svg" viewBox="0 0 640 640"><!--! Font Awesome Pro 7.2.0 by @fontawesome - https://fontawesome.com License - https://fontawesome.com/license (Commercial License) Copyright 2026 Fonticons, Inc. --><path opacity=".4" fill="currentColor" d="M199.8 102C202.1 104.9 226 134.9 271.4 192L368.7 192C414.1 134.9 437.9 105 440.3 102C434.1 91.9 427.9 81.8 421.7 71.6L417 64L223 64C222.2 65.3 214.4 78 199.8 102z"/><path fill="currentColor" d="M199.8 102L214 119.9L320 253.1L426 119.9L440.2 102L452.1 121.5L509.6 215.6L515.4 225.2L508.4 234L406.2 361.7L492.4 470L502.3 482.5L489.8 492.5L409.8 556.5L397.3 566.5L387.3 554L131.3 234L124.3 225.2L130.2 215.6C176.3 140.5 199.4 102.6 199.8 102zM203 400.2L289.3 508C260.3 544.2 244.7 563.7 242.5 566.5L230 556.5L150 492.5L137.5 482.5L147.4 470L202.9 400.2z"/></svg>