<svg xmlns="http://www.w3.org/2000/svg" viewBox="0 0 640 640"><!--! Font Awesome Pro 7.2.0 by @fontawesome - https://fontawesome.com License - https://fontawesome.com/license (Commercial License) Copyright 2026 Fonticons, Inc. --><path opacity=".4" fill="currentColor" d="M64 544L64 576L192 576L192 448L256 512L384 512L448 448L448 576L576 576L576 544L528 480L528 256L112 256L112 480L64 544zM256 320L384 320L384 352L256 352L256 320zM256 384L384 384L384 416L256 416L256 384z"/><path fill="currentColor" d="M192 192C192 121.3 249.3 64 320 64C390.7 64 448 121.3 448 192L448 256L192 256L192 192zM288 192C305.7 192 320 177.7 320 160C320 142.3 305.7 128 288 128C270.3 128 256 142.3 256 160C256 177.7 270.3 192 288 192zM384 176C384 167.2 376.8 160 368 160C359.2 160 352 167.2 352 176C352 184.8 359.2 192 368 192C376.8 192 384 184.8 384 176zM272 320L384 320L384 352L256 352L256 320L272 320zM272 384L384 384L384 416L256 416L256 384L272 384z"/></svg>