<svg xmlns="http://www.w3.org/2000/svg" viewBox="0 0 640 640"><!--! Font Awesome Pro 7.2.0 by @fontawesome - https://fontawesome.com License - https://fontawesome.com/license (Commercial License) Copyright 2026 Fonticons, Inc. --><path opacity=".4" fill="currentColor" d="M32 192L104 192L104 320L152 320L152 192L200 192L200 288L248 288L248 192L296 192L296 320L344 320L344 192L392 192L392 288L440 288L440 192L488 192L488 320L536 320L536 192L608 192L608 448L32 448L32 192z"/><path fill="currentColor" d="M488 192L536 192L536 320L488 320L488 192zM392 192L440 192L440 288L392 288L392 192zM296 192L344 192L344 320L296 320L296 192zM200 192L248 192L248 288L200 288L200 192zM104 192L152 192L152 320L104 320L104 192z"/></svg>