<svg xmlns="http://www.w3.org/2000/svg" viewBox="0 0 640 640"><!--! Font Awesome Pro 7.2.0 by @fontawesome - https://fontawesome.com License - https://fontawesome.com/license (Commercial License) Copyright 2026 Fonticons, Inc. --><path opacity=".4" fill="currentColor" d="M80 490.6L80 576L560 576L560 490.6C560 402.8 521 319.4 453.5 263.2L406.4 224L233.6 224L186.5 263.2C119 319.5 80 402.8 80 490.6zM192 64L248 176L392 176L448 64L192 64zM252 364.5C252 335.7 275.2 312.3 304 312L304 288L344 288L344 312L372 312L372 352L304.5 352C297.6 352 292 357.6 292 364.5C292 370.6 296.4 375.8 302.4 376.8L344.1 383.8C369.4 388 388 409.9 388 435.6C388 461.7 369 483.3 344 487.4L344 512.1L304 512.1L304 488.1L260 488.1L260 448.1L335.5 448.1C342.4 448.1 348 442.5 348 435.6C348 429.5 343.6 424.3 337.6 423.3L295.9 416.3C270.5 412 252 390.1 252 364.5z"/><path fill="currentColor" d="M432 176L208 176L208 224L432 224L432 176zM344 288L304 288L304 312C275.2 312.3 252 335.7 252 364.5C252 390.2 270.5 412.1 295.9 416.3L337.6 423.3C343.6 424.3 348 429.5 348 435.6C348 442.5 342.4 448.1 335.5 448.1L260 448.1L260 488.1L304 488.1L304 512.1L344 512.1L344 487.4C369 483.3 388 461.7 388 435.6C388 409.9 369.5 388 344.1 383.8L302.4 376.8C296.4 375.8 292 370.6 292 364.5C292 357.6 297.6 352 304.5 352L372 352L372 312L344 312L344 288z"/></svg>