<svg xmlns="http://www.w3.org/2000/svg" viewBox="0 0 640 640"><!--! Font Awesome Pro 7.2.0 by @fontawesome - https://fontawesome.com License - https://fontawesome.com/license (Commercial License) Copyright 2026 Fonticons, Inc. --><path opacity=".4" fill="currentColor" d="M32 208C32 146.1 82.1 96 144 96L400 96L368 320L320 320L288 544L144 544L144 320C82.1 320 32 269.9 32 208z"/><path fill="currentColor" d="M608 96L448 96L448 144L608 144L608 96zM608 256L448 256L448 304L608 304L608 256zM448 496L448 544L608 544L608 496L448 496zM608 192L448 192L448 224L608 224L608 192zM448 352L448 384L608 384L608 352L448 352zM608 416L448 416L448 448L608 448L608 416z"/></svg>