<svg xmlns="http://www.w3.org/2000/svg" viewBox="0 0 640 640"><!--! Font Awesome Pro 7.2.0 by @fontawesome - https://fontawesome.com License - https://fontawesome.com/license (Commercial License) Copyright 2026 Fonticons, Inc. --><path opacity=".4" fill="currentColor" d="M32 192L32 576L256 576L256 416L384 416L384 576L608 576L608 192L480 192L320 64L160 192L32 192zM96 256L160 256L160 320L96 320L96 256zM96 384L160 384L160 448L96 448L96 384zM384 256C384 291.3 355.3 320 320 320C284.7 320 256 291.3 256 256C256 220.7 284.7 192 320 192C355.3 192 384 220.7 384 256zM480 256L544 256L544 320L480 320L480 256zM480 384L544 384L544 448L480 448L480 384z"/><path fill="currentColor" d="M96 320L96 256L160 256L160 320L96 320zM160 448L96 448L96 384L160 384L160 448zM256 416L384 416L384 576L256 576L256 416zM544 448L480 448L480 384L544 384L544 448zM480 320L480 256L544 256L544 320L480 320z"/></svg>