<svg xmlns="http://www.w3.org/2000/svg" viewBox="0 0 640 640"><!--! Font Awesome Pro 7.2.0 by @fontawesome - https://fontawesome.com License - https://fontawesome.com/license (Commercial License) Copyright 2026 Fonticons, Inc. --><path opacity=".4" fill="currentColor" d="M32 224L32 576L272 576L272 416L368 416L368 576L608 576L608 224L480 224L352 147.2L352 32L288 32L288 147.2L160 224L32 224zM96 288L160 288L160 352L96 352L96 288zM96 416L160 416L160 480L96 480L96 416zM368 288C368 314.5 346.5 336 320 336C293.5 336 272 314.5 272 288C272 261.5 293.5 240 320 240C346.5 240 368 261.5 368 288zM480 288L544 288L544 352L480 352L480 288zM480 416L544 416L544 480L480 480L480 416z"/><path fill="currentColor" d="M448 32L352 32L352 128L448 128L448 32zM160 352L160 288L96 288L96 352L160 352zM96 480L160 480L160 416L96 416L96 480zM368 416L272 416L272 576L368 576L368 416zM480 480L544 480L544 416L480 416L480 480zM544 352L544 288L480 288L480 352L544 352z"/></svg>