<svg xmlns="http://www.w3.org/2000/svg" viewBox="0 0 640 640"><!--! Font Awesome Pro 7.2.0 by @fontawesome - https://fontawesome.com License - https://fontawesome.com/license (Commercial License) Copyright 2026 Fonticons, Inc. --><path opacity=".4" fill="currentColor" d="M64 64L576 64L576 276.6C565.9 273.6 555.1 272 544 272C532.9 272 522.1 273.6 512 276.6L512 128L128 128L128 276.6C117.9 273.6 107.1 272 96 272C84.9 272 74.1 273.6 64 276.6L64 64z"/><path fill="currentColor" d="M96 448C131.3 448 160 419.3 160 384C160 348.7 131.3 320 96 320C60.7 320 32 348.7 32 384C32 419.3 60.7 448 96 448zM320 448C355.3 448 384 419.3 384 384C384 348.7 355.3 320 320 320C284.7 320 256 348.7 256 384C256 419.3 284.7 448 320 448zM608 384C608 348.7 579.3 320 544 320C508.7 320 480 348.7 480 384C480 419.3 508.7 448 544 448C579.3 448 608 419.3 608 384zM416 576L384 480L256 480L224 576L416 576zM32 480L0 576L192 576L160 480L32 480zM640 576L608 480L480 480L448 576L640 576z"/></svg>