<svg xmlns="http://www.w3.org/2000/svg" viewBox="0 0 640 640"><!--! Font Awesome Pro 7.2.0 by @fontawesome - https://fontawesome.com License - https://fontawesome.com/license (Commercial License) Copyright 2026 Fonticons, Inc. --><path opacity=".4" fill="currentColor" d="M128 162.7L128 576L512 576L512 64L226.7 64L217.3 73.4L137.3 153.4L127.9 162.8zM240 128L288 128L288 224L240 224L240 128zM328 128L376 128L376 224L328 224L328 128zM416 128L464 128L464 224L416 224L416 128z"/><path fill="currentColor" d="M288 128L288 224L240 224L240 128L288 128zM376 128L376 224L328 224L328 128L376 128zM464 128L464 224L416 224L416 128L464 128z"/></svg>