<svg xmlns="http://www.w3.org/2000/svg" viewBox="0 0 640 640"><!--! Font Awesome Pro 7.2.0 by @fontawesome - https://fontawesome.com License - https://fontawesome.com/license (Commercial License) Copyright 2026 Fonticons, Inc. --><path opacity=".4" fill="currentColor" d="M96 96L96 544L295.5 544C280.5 515.2 272 482.5 272 447.8C272 387.8 300.3 336.1 330.5 298.3C360.9 260.1 397.2 231 422.6 215.1L455 194.9L512.1 252L541.2 222.9L544.1 225.4L544.1 96L96.1 96zM160 160L208 160L208 320L160 320L160 160zM256 160L304 160L304 257.8C291.7 273.4 280.5 289.2 270.7 305.1C267.8 309.9 264.8 314.8 261.9 320L256 320L256 160z"/><path fill="currentColor" d="M320 448C320 358.4 405.3 282.7 448 256L512 320L544 288C620.8 352 640 421.3 640 448C640 536.4 568.4 608 480 608C391.6 608 320 536.4 320 448zM480 560.2C515.3 560.2 544 531.5 544 496.2C544 448.2 480 400.2 480 400.2C480 400.2 416 448.2 416 496.2C416 531.5 444.7 560.2 480 560.2z"/></svg>