<svg xmlns="http://www.w3.org/2000/svg" viewBox="0 0 640 640"><!--! Font Awesome Pro 7.2.0 by @fontawesome - https://fontawesome.com License - https://fontawesome.com/license (Commercial License) Copyright 2026 Fonticons, Inc. --><path opacity=".4" fill="currentColor" d="M96 96L96 544L208 544L208 528C208 487.5 226.8 451.5 256.1 428C258.2 359.1 314.7 304 384 304C417.3 304 447.6 316.7 470.3 337.5C476.1 336.5 482 336 488 336C508.6 336 527.8 342 544 352.3L544 96L96 96zM160 160L208 160L208 320L160 320L160 160zM256 160L304 160L304 275.2C286 284.4 269.8 296.6 256 311.2L256 160z"/><path fill="currentColor" d="M256 608L256 528C256 494.1 277.1 465.1 306.9 453.5C305 446.7 304 439.5 304 432C304 387.8 339.8 352 384 352C414.8 352 441.5 369.4 454.9 394.8C464.2 388 475.6 384 488 384C522.2 384 548.9 416 543.2 449.4C580.1 456.5 608 489 608 528L608 608L256 608z"/></svg>