<svg xmlns="http://www.w3.org/2000/svg" viewBox="0 0 640 640"><!--! Font Awesome Pro 7.2.0 by @fontawesome - https://fontawesome.com License - https://fontawesome.com/license (Commercial License) Copyright 2026 Fonticons, Inc. --><path opacity=".4" fill="currentColor" d="M80.6 177C77.7 226.9 85.5 303.3 117.9 377.9C150.6 453.1 208.9 527.9 307.3 570.5L320 576L332.7 570.5C431.1 527.9 489.4 453.2 522.1 377.9C554.5 303.2 562.3 226.9 559.4 177L558.3 156.5L539.1 149L331.6 68.5L320 64L308.5 68.5L101 149L81.8 156.5L80.6 177zM214.1 340.2C225.6 329.1 237.1 318 248.6 306.9C258.1 316.7 272.5 331.6 291.8 351.6C320.3 312.4 348.9 273.2 377.4 233.9C382.1 227.4 386.8 221 391.5 214.5C404.4 223.9 417.4 233.3 430.3 242.8C425.6 249.3 420.9 255.7 416.2 262.2C382.1 309.1 347.9 356 313.8 403C308.2 410.7 302.6 418.4 297 426.1C288.2 417 266.1 394.1 230.8 357.5C225.2 351.8 219.7 346 214.1 340.2z"/><path fill="currentColor" d="M430.3 242.7L416.3 262.1L313.8 402.9L297 426C288.2 416.9 266.1 394 230.8 357.4L214.1 340.1L248.6 306.8C258.1 316.6 272.5 331.5 291.8 351.5L377.4 233.8L391.5 214.4L430.3 242.6z"/></svg>