<svg xmlns="http://www.w3.org/2000/svg" viewBox="0 0 640 640"><!--! Font Awesome Pro 7.2.0 by @fontawesome - https://fontawesome.com License - https://fontawesome.com/license (Commercial License) Copyright 2026 Fonticons, Inc. --><path opacity=".4" fill="currentColor" d="M80.7 177C70.8 346.7 163.6 508.3 320.2 576C476.8 508.2 569.5 346.8 559.6 177L558.4 156.5L320.2 64L81.9 156.5L80.7 177zM208.2 432L240.2 336L400.2 336L432.2 432L208.2 432zM376.2 240C376.2 270.9 351.1 296 320.2 296C289.3 296 264.2 270.9 264.2 240C264.2 209.1 289.3 184 320.2 184C351.1 184 376.2 209.1 376.2 240z"/><path fill="currentColor" d="M432.2 432L208.2 432L240.2 336L400.2 336L432.2 432zM320.2 296C289.3 296 264.2 270.9 264.2 240C264.2 209.1 289.3 184 320.2 184C351.1 184 376.2 209.1 376.2 240C376.2 270.9 351.1 296 320.2 296z"/></svg>