<svg xmlns="http://www.w3.org/2000/svg" viewBox="0 0 640 640"><!--! Font Awesome Pro 7.2.0 by @fontawesome - https://fontawesome.com License - https://fontawesome.com/license (Commercial License) Copyright 2026 Fonticons, Inc. --><path opacity=".4" fill="currentColor" d="M62.6 206.7L74.4 233.6L128.4 357L128.4 455.4C161.6 442.1 185.7 432.5 200.4 426.6C211.2 430.9 243.1 443.7 296.4 465L296.4 208L344.4 208L344.4 465C397.6 443.7 429.7 430.9 440.4 426.6C455.1 432.5 479.1 442.1 512.4 455.4L512.4 357L566.4 233.6L578.2 206.7L549.4 200.5L325.4 152.5L320.4 151.4L315.4 152.5L91.4 200.5L62.7 206.7zM160.4 64L160.4 144.8L307 113.4L320.4 110.6L333.8 113.4L480.4 144.8L480.4 64L344.4 64L344.4 32L296.4 32L296.4 64L160.4 64z"/><path fill="currentColor" d="M449.3 481.7L561.1 526.4C590.4 516.6 611.2 509.7 623.6 505.6L638.8 551.1C629.2 554.3 602.9 563.1 559.7 577.5L551.5 574.2L440.4 529.8L320.4 577.8L200.4 529.8L89.3 574.2L81.1 577.5C37.9 563.2 11.6 554.4 2 551.2L17.2 505.7C29.6 509.8 50.4 516.7 79.6 526.5L191.4 481.8L200.3 478.2L320.3 526.2L440.3 478.2L449.2 481.8z"/></svg>