<svg xmlns="http://www.w3.org/2000/svg" viewBox="0 0 640 640"><!--! Font Awesome Pro 7.2.0 by @fontawesome - https://fontawesome.com License - https://fontawesome.com/license (Commercial License) Copyright 2026 Fonticons, Inc. --><path opacity=".4" fill="currentColor" d="M96 192L208 192L208 288L256 288L256 192L384 192L384 288L432 288L432 192L544 192L544 544L96 544L96 192z"/><path fill="currentColor" d="M320 80C284.7 80 256 108.7 256 144L256 288L208 288L208 144C208 82.1 258.1 32 320 32C381.9 32 432 82.1 432 144L432 288L384 288L384 144C384 108.7 355.3 80 320 80z"/></svg>