<svg xmlns="http://www.w3.org/2000/svg" viewBox="0 0 640 640"><!--! Font Awesome Pro 7.2.0 by @fontawesome - https://fontawesome.com License - https://fontawesome.com/license (Commercial License) Copyright 2026 Fonticons, Inc. --><path opacity=".4" fill="currentColor" d="M281.4 313.4L326.7 358.7L439.7 245.7C453 252.3 468.1 256 484 256C510.5 256 535.9 245.5 554.6 226.7C587.6 193.7 609.8 171.5 621.3 160C618.4 157.1 578.9 117.6 502.7 41.4L480 18.7C468.5 30.2 446.2 52.5 413.3 85.4C394.6 104.1 384 129.5 384 156C384 171.9 387.7 186.9 394.3 200.3L281.3 313.3zM448 156.1C448 146.6 451.8 137.5 458.5 130.7L480 109.3L530.7 160L509.3 181.5C502.6 188.2 493.4 192 483.9 192C464.1 192 448 175.9 448 156.1z"/><path fill="currentColor" d="M0 448L192 224L416 448L192 640L0 448zM225 385L242 368L208.1 334.1L191.1 351.1C127.3 414.9 94.9 447.3 94.1 448.1L128 482L145 465L225 385zM289 449L306 432L272.1 398.1L255.1 415.1C191.3 478.9 158.9 511.3 158.1 512.1L192 546L209 529L289 449z"/></svg>