<svg xmlns="http://www.w3.org/2000/svg" viewBox="0 0 640 640"><!--! Font Awesome Pro 7.2.0 by @fontawesome - https://fontawesome.com License - https://fontawesome.com/license (Commercial License) Copyright 2026 Fonticons, Inc. --><path opacity=".4" fill="currentColor" d="M122.5 346.9C135 332.6 147.5 318.3 160 304C218.7 362.7 277.3 421.3 336 480C321.7 492.5 307.4 505 293.1 517.5C245.2 559.4 173 557 128 512C83 467 80.6 394.8 122.5 346.9z"/><path fill="currentColor" d="M320 64L352 128L288 288L400 144L480 160L496 240L352 352L512 288L576 320L576 352L336 480L160 304L288 64L320 64z"/></svg>