<svg xmlns="http://www.w3.org/2000/svg" viewBox="0 0 640 640"><!--! Font Awesome Pro 7.2.0 by @fontawesome - https://fontawesome.com License - https://fontawesome.com/license (Commercial License) Copyright 2026 Fonticons, Inc. --><path opacity=".4" fill="currentColor" d="M0 432L0 480L96 480L96 544L210.6 544C214 538 225.6 517.7 245.4 483.2C262.5 453.3 276.6 422 287.7 389.5L196.3 298.1C135.5 316.3 102.1 326.4 96 328.2L96 432L0 432zM160 375.8L231.8 354.3C221.4 388.1 207.3 420.7 189.7 451.5L173.4 480.1L160 480.1L160 375.9zM301.5 480L378.2 480L330.2 432L323.1 432C316.6 448.3 309.4 464.3 301.5 480z"/><path fill="currentColor" d="M64.2 30.2C65.7 31.7 96.7 62.7 157.2 123.2C174.5 106.4 198.1 96.1 224.1 96.1C277.1 96.1 320.1 139.1 320.1 192.1L320.1 199.9C320.1 220.7 318.9 241.5 316.5 262.2C408.6 234.6 469.1 216.4 497.9 207.8C484.6 247.6 472.2 285 460.4 320.2L576 320.2L576 384.2L418 384.2L466 432.2L640 432.2L640 480.2L514 480.2C577.1 543.3 609.1 575.3 610.1 576.3L576.2 610.2L559.2 593.2L47.2 81.2L30.2 64.2L64.1 30.3zM255.5 221.5C255.8 214.3 256 207.1 256 199.8L256 192C256 174.3 241.7 160 224 160C215.7 160 208.1 163.2 202.4 168.4L255.5 221.5zM383.2 349.2L385.6 341.9L398.1 304.4L352.1 318.2L383.1 349.2z"/></svg>