<svg xmlns="http://www.w3.org/2000/svg" viewBox="0 0 640 640"><!--! Font Awesome Pro 7.2.0 by @fontawesome - https://fontawesome.com License - https://fontawesome.com/license (Commercial License) Copyright 2026 Fonticons, Inc. --><path opacity=".4" fill="currentColor" d="M32 320C32 399.5 64.2 471.5 116.3 523.6L165.5 482.2C122.7 441.4 96 383.8 96 320C96 256.2 122.7 198.7 165.5 157.9L116.3 116.4C64.2 168.5 32 240.5 32 320zM144 320C144 372 166.6 418.8 202.4 451L252.1 409.1C225.3 388.7 208 356.4 208 320C208 283.6 225.3 251.3 252.2 230.9L202.4 189C166.6 221.2 144 268 144 320zM387.8 230.9C414.7 251.3 432 283.6 432 320C432 356.4 414.7 388.7 387.8 409.1L437.6 451C473.5 418.8 496 372 496 320C496 268 473.4 221.2 437.6 189L387.9 230.9zM474.5 157.9C517.3 198.7 544 256.2 544 320C544 383.8 517.3 441.4 474.5 482.1L523.7 523.5C575.8 471.5 608 399.5 608 320C608 240.5 575.8 168.5 523.7 116.4L474.5 157.9z"/><path fill="currentColor" d="M272 320C272 293.5 293.5 272 320 272C346.5 272 368 293.5 368 320C368 346.5 346.5 368 320 368C293.5 368 272 346.5 272 320z"/></svg>