<svg xmlns="http://www.w3.org/2000/svg" viewBox="0 0 640 640"><!--! Font Awesome Pro 7.2.0 by @fontawesome - https://fontawesome.com License - https://fontawesome.com/license (Commercial License) Copyright 2026 Fonticons, Inc. --><path opacity=".4" fill="currentColor" d="M32.1 320C32.1 399.5 64.3 471.5 116.4 523.6L165.6 482.2C122.8 441.4 96.1 383.8 96.1 320.1C96.1 284.5 104.4 250.9 119.2 221L72 173.7C46.7 216.6 32.1 266.6 32.1 320zM144.1 320C144.1 372 166.7 418.8 202.5 451L252.2 409.1C225.4 388.6 208 356.3 208 320C208 316.7 208.1 313.5 208.4 310.2L155.5 257.3C148.1 276.8 144 297.9 144 320z"/><path fill="currentColor" d="M64.3 30.2L81.3 47.2L307.8 273.7C311.7 272.7 315.9 272.1 320.2 272.1C346.7 272.1 368.2 293.6 368.2 320.1C368.2 324.4 367.6 328.5 366.6 332.5L414.6 380.5C425.8 363.1 432.2 342.4 432.2 320.2C432.2 283.8 414.9 251.5 388 231.1L437.7 189C473.6 221.2 496.1 268 496.1 320C496.1 359.9 482.8 396.7 460.4 426.3L494.6 460.5C525.6 422.1 544.1 373.2 544.1 320C544.1 256.2 517.4 198.7 474.6 157.9L523.8 116.5C575.9 168.6 608.1 240.6 608.1 320.1C608.1 391 582.5 455.9 540.1 506C581.6 547.5 605 570.9 610.3 576.2L576.4 610.1L559.4 593.1L47.4 81.1L30.4 64.1L64.3 30.2z"/></svg>