<svg xmlns="http://www.w3.org/2000/svg" viewBox="0 0 640 640"><!--! Font Awesome Pro 7.2.0 by @fontawesome - https://fontawesome.com License - https://fontawesome.com/license (Commercial License) Copyright 2026 Fonticons, Inc. --><path opacity=".4" fill="currentColor" d="M65.5 472L76.8 483.3L156.8 563.3L165 571.5C168.3 569.9 182.4 562.8 207.3 550.3L221.6 543.1L207.3 514.5C199 518.7 187 524.7 171.3 532.5L99.4 460.7L88.1 449.4L65.5 472zM352.1 544L352.1 576L500.6 576C501.8 571.2 505.5 556.5 511.6 531.9L515.5 516.4L484.5 508.6C482.1 518.2 479.1 530 475.6 544L352.1 544z"/><path fill="currentColor" d="M432.1 120C432.1 89.1 457.2 64 488.1 64C519 64 544.1 89.1 544.1 120C544.1 150.9 519 176 488.1 176C457.2 176 432.1 150.9 432.1 120zM192.1 160L403.9 160C415.7 183.7 438.2 228.6 439.1 230.3C437.7 231.7 407.9 261.5 349.9 319.5C412.8 347.5 445.5 362 448.2 363.2L448.2 512L384.2 512L384.2 404.8L301.8 368.2C260.8 350 250.8 296.2 282.5 264.5L322.9 224.1L192.2 224.1L192.2 160.1zM153.5 425.4L229.4 349.5C237.1 369.2 251 386.8 270.4 399.1C214.5 455 183.1 486.4 176.2 493.3L130.9 448L153.5 425.4z"/></svg>