<svg xmlns="http://www.w3.org/2000/svg" viewBox="0 0 640 640"><!--! Font Awesome Pro 7.2.0 by @fontawesome - https://fontawesome.com License - https://fontawesome.com/license (Commercial License) Copyright 2026 Fonticons, Inc. --><path opacity=".4" fill="currentColor" d="M56 252.7L66.4 274.4L154.4 458.4L163 476.5C164.4 476.1 200.2 466.4 270.3 447.2L293.5 440.9L280.9 394.6C273.1 396.7 242.4 405.1 189.1 419.6L109.7 253.6L99.3 232L56 252.7zM177.2 528.9L193.8 573.9L216.3 565.6L560.3 438.5C569.7 435 576 426 576 416L576 352L528 352L528 399.3C170.5 531.4 185.1 526 177.2 528.9zM288 64L288 270.8L320 262.3L320 64L288 64z"/><path fill="currentColor" d="M128 144C128 117.5 149.5 96 176 96C202.5 96 224 117.5 224 144C224 170.5 202.5 192 176 192C149.5 192 128 170.5 128 144zM231.4 204.7C237.4 217.8 252.8 251.8 277.8 306.7L343.7 289.1L383.9 320L383.9 452.5L319.9 476.2L319.9 361.7L253.2 379.5C230.6 385.5 207 374.4 197.3 353.2C169.1 292.2 152.6 256.4 147.8 246C189.7 225.3 214.8 212.9 231.4 204.6z"/></svg>