<svg xmlns="http://www.w3.org/2000/svg" viewBox="0 0 640 640"><!--! Font Awesome Pro 7.2.0 by @fontawesome - https://fontawesome.com License - https://fontawesome.com/license (Commercial License) Copyright 2026 Fonticons, Inc. --><path opacity=".4" fill="currentColor" d="M86.5 433.2C90.9 435 141.2 456 237.1 496C141.1 536 90.9 556.9 86.5 558.8L111.1 617.9L140.6 605.6L320.3 530.7L500 605.6L529.5 617.9L554.1 558.8C549.7 557 499.4 536 403.5 496C499.5 456 549.7 435.1 554.1 433.2L529.5 374.1L500 386.4L320.3 461.3L140.6 386.4L111.1 374.1L86.5 433.2z"/><path fill="currentColor" d="M416.3 323.2C455.2 296.9 480.3 255.1 480.3 208C480.3 128.5 408.7 64 320.3 64C231.9 64 160.3 128.5 160.3 208C160.3 255.1 185.4 296.9 224.3 323.2L224.3 384L416.3 384L416.3 323.2zM224.3 224C224.3 206.3 238.6 192 256.3 192C274 192 288.3 206.3 288.3 224C288.3 241.7 274 256 256.3 256C238.6 256 224.3 241.7 224.3 224zM384.3 192C402 192 416.3 206.3 416.3 224C416.3 241.7 402 256 384.3 256C366.6 256 352.3 241.7 352.3 224C352.3 206.3 366.6 192 384.3 192z"/></svg>