<svg xmlns="http://www.w3.org/2000/svg" viewBox="0 0 640 640"><!--! Font Awesome Pro 7.2.0 by @fontawesome - https://fontawesome.com License - https://fontawesome.com/license (Commercial License) Copyright 2026 Fonticons, Inc. --><path opacity=".4" fill="currentColor" d="M136 440C136 408.2 144.2 376.8 160.1 348.8C178 317.5 204.7 292 236.9 275.7C204.7 250.8 183.9 211.8 183.9 168C183.9 92.9 244.8 32 319.9 32C395 32 456 92.9 456 168C456 211.9 435.2 250.9 403 275.7C435.2 292 462 317.5 479.8 348.8C495.8 376.8 504 408.1 504 440C504 514.8 459.3 579.3 395.2 608L244.9 608C180.7 579.3 136 514.8 136 440zM248 144C248 157.3 258.7 168 272 168C285.3 168 296 157.3 296 144C296 130.7 285.3 120 272 120C258.7 120 248 130.7 248 144zM288 223.6C288 229.1 289.4 234.5 292.2 239.3L320 288L347.9 239.3C350.6 234.5 352.1 229.1 352.1 223.6C352.1 206.1 337.9 192 320.5 192L319.7 192C302.2 192 288.1 206.2 288.1 223.6zM296 384C296 397.3 306.7 408 320 408C333.3 408 344 397.3 344 384C344 370.7 333.3 360 320 360C306.7 360 296 370.7 296 384zM296 480C296 493.3 306.7 504 320 504C333.3 504 344 493.3 344 480C344 466.7 333.3 456 320 456C306.7 456 296 466.7 296 480zM344 144C344 157.3 354.7 168 368 168C381.3 168 392 157.3 392 144C392 130.7 381.3 120 368 120C354.7 120 344 130.7 344 144z"/><path fill="currentColor" d="M272 120C285.3 120 296 130.7 296 144C296 157.3 285.3 168 272 168C258.7 168 248 157.3 248 144C248 130.7 258.7 120 272 120zM112 328.2L160.2 348.8C152.3 362.6 146.2 377.5 142 393.2C38.7 348.9 2.7 333.5 .5 332.6L19.4 288.5C34 294.8 48.9 301.1 64 307.6L64 264L112 264L112 328.2zM498 393.3C493.9 377.6 487.7 362.7 479.8 348.9L528 328.3L528 264.1L576 264.1L576 307.7C591.1 301.2 606 294.9 620.6 288.6L639.5 332.7C619 341.4 520.9 383.4 498 393.3zM320 456C333.3 456 344 466.7 344 480C344 493.3 333.3 504 320 504C306.7 504 296 493.3 296 480C296 466.7 306.7 456 320 456zM296 384C296 370.7 306.7 360 320 360C333.3 360 344 370.7 344 384C344 397.3 333.3 408 320 408C306.7 408 296 397.3 296 384zM344 144C344 130.7 354.7 120 368 120C381.3 120 392 130.7 392 144C392 157.3 381.3 168 368 168C354.7 168 344 157.3 344 144zM320 288L292.2 239.3C289.5 234.5 288 229.1 288 223.6C288 206.1 302.2 192 319.6 192L320.4 192C337.9 192 352 206.2 352 223.6C352 229.1 350.6 234.5 347.8 239.3L320 288z"/></svg>