<svg xmlns="http://www.w3.org/2000/svg" viewBox="0 0 640 640"><!--! Font Awesome Pro 7.2.0 by @fontawesome - https://fontawesome.com License - https://fontawesome.com/license (Commercial License) Copyright 2026 Fonticons, Inc. --><path opacity=".4" fill="currentColor" d="M332.1 544L400.7 544L413 512L483.5 512L495.8 544L564.4 544L486.1 340.5L478.2 320L418.2 320L410.3 340.5L332 544zM352.3 96L352.3 160L435 160L361.6 233.4L352.2 242.8L352.2 288.1L544.2 288.1L544.2 224.1L461.5 224.1L534.9 150.7L544.3 141.3L544.3 96L352.3 96zM431.5 464L448.3 420.3L465.1 464L431.5 464z"/><path fill="currentColor" d="M192.3 557.3C197.8 551.8 232 517.6 294.9 454.7L317.5 432.1L272.2 386.8C257.6 401.4 241.6 417.4 224.2 434.8L224.2 96.1L160.2 96.1L160.2 434.8C142.8 417.4 126.8 401.4 112.2 386.8L67 432C72.5 437.5 106.7 471.7 169.6 534.6L192.2 557.2z"/></svg>