<svg xmlns="http://www.w3.org/2000/svg" viewBox="0 0 640 640"><!--! Font Awesome Pro 7.2.0 by @fontawesome - https://fontawesome.com License - https://fontawesome.com/license (Commercial License) Copyright 2026 Fonticons, Inc. --><path opacity=".4" fill="currentColor" d="M102 261.5C52 311.5 52 392.5 102 442.5C152 492.5 233 492.5 283 442.5L288.5 437L288.5 320L352.5 320L352.5 437L358 442.5C408 492.5 489 492.5 539 442.5C589 392.5 589 311.5 539 261.5C447.4 169.9 374.6 97.1 320.5 43C266.4 97.1 193.6 169.9 102 261.5z"/><path fill="currentColor" d="M352.5 320L352.5 512L416.5 512L416.5 576L224.5 576L224.5 512L288.5 512L288.5 320L352.5 320z"/></svg>