<svg xmlns="http://www.w3.org/2000/svg" viewBox="0 0 640 640"><!--! Font Awesome Pro 7.2.0 by @fontawesome - https://fontawesome.com License - https://fontawesome.com/license (Commercial License) Copyright 2026 Fonticons, Inc. --><path opacity=".4" fill="currentColor" d="M192 32L192 512L544 512L544 32L192 32zM472 352C472 409.4 425.4 456 368 456C310.6 456 264 409.4 264 352C264 294.6 310.6 248 368 248C425.4 248 472 294.6 472 352zM400 128C400 145.7 385.7 160 368 160C350.3 160 336 145.7 336 128C336 110.3 350.3 96 368 96C385.7 96 400 110.3 400 128z"/><path fill="currentColor" d="M368 96C385.7 96 400 110.3 400 128C400 145.7 385.7 160 368 160C350.3 160 336 145.7 336 128C336 110.3 350.3 96 368 96zM144 160L144 560L448 560L448 608L96 608L96 160L144 160zM264 352C264 294.6 310.6 248 368 248C425.4 248 472 294.6 472 352C472 409.4 425.4 456 368 456C310.6 456 264 409.4 264 352zM368 408C398.9 408 424 382.9 424 352C424 321.1 398.9 296 368 296C337.1 296 312 321.1 312 352C312 382.9 337.1 408 368 408z"/></svg>