<svg xmlns="http://www.w3.org/2000/svg" viewBox="0 0 640 640"><!--! Font Awesome Pro 7.2.0 by @fontawesome - https://fontawesome.com License - https://fontawesome.com/license (Commercial License) Copyright 2026 Fonticons, Inc. --><path opacity=".4" fill="currentColor" d="M96 96L96 160L128 160L128 96L96 96zM96 288L96 352L128 352L128 288L96 288zM96 480L96 544L128 544L128 480L96 480zM512 96L512 160L544 160L544 96L512 96zM512 288L512 352L544 352L544 288L512 288zM512 480L512 544L544 544L544 480L512 480z"/><path fill="currentColor" d="M128 64L512 64L512 192L128 192L128 64zM128 240L512 240L512 400L128 400L128 240zM512 448L512 576L128 576L128 448L512 448z"/></svg>