<svg xmlns="http://www.w3.org/2000/svg" viewBox="0 0 640 640"><!--! Font Awesome Pro 7.2.0 by @fontawesome - https://fontawesome.com License - https://fontawesome.com/license (Commercial License) Copyright 2026 Fonticons, Inc. --><path opacity=".4" fill="currentColor" d="M105 467.1L172.9 399.2L240.8 467.1L172.9 535L105 467.1zM272 480L368 480L368 576L272 576L272 480zM399.2 172.9L467.1 105L535 172.9L467.1 240.8L399.2 172.9zM399.2 467.1L467.1 399.2L535 467.1L467.1 535L399.2 467.1zM480 272L576 272L576 368L480 368L480 272z"/><path fill="currentColor" d="M272 160L368 160L368 64L272 64L272 160zM64 272L64 368L160 368L160 272L64 272zM105 172.9L172.9 240.8L240.8 172.9L172.9 105L105 172.9z"/></svg>