<svg xmlns="http://www.w3.org/2000/svg" viewBox="0 0 640 640"><!--! Font Awesome Pro 7.2.0 by @fontawesome - https://fontawesome.com License - https://fontawesome.com/license (Commercial License) Copyright 2026 Fonticons, Inc. --><path opacity=".4" fill="currentColor" d="M82.5 360.7C126.5 364.3 166.7 381.2 199.3 407.2L87.4 519.1C87.9 521.7 88.3 524.3 88.9 526.8C79.3 480.1 74.7 420.9 82.5 360.7zM91.3 313.3C99.5 280.1 112.2 247.5 130.6 217.5C161.2 167.5 207.4 125.6 273.5 101.1C286.3 96.4 299.7 92.3 313.8 89C318.9 143.4 340.6 193.1 373.7 232.8L320.5 286.1L186.3 151.9C173.9 162.5 162.8 174 152.8 186.2L286.6 320L233.4 373.1C194.1 340.3 145.1 318.8 91.3 313.3zM121.3 553.1L233.2 441.2C259.5 474 276.3 514.6 279.8 559C296.4 557.1 312.3 554.5 327.3 550.9C322.2 496.4 300.5 446.8 267.4 407.1L320.6 354L454.8 488.2C467.2 477.6 478.3 466 488.3 453.8L354.4 320L407.6 266.8C446.9 299.6 495.9 321.1 549.7 326.6C541.5 360 528.8 392.5 510.5 422.4C479.9 472.4 433.7 514.3 367.6 538.8C303.4 562.6 222.3 569.2 121.3 553.1zM361.2 80.9C404.1 76.1 452.5 77.1 506.8 84.8C511.1 85.5 515.4 86.1 519.7 86.8L407.7 198.8C381.5 166 364.6 125.3 361.2 80.9zM441.7 232.7L553.5 120.9C554 123.6 554.6 126.5 555.1 129.3C564.8 186.1 566.8 257.8 549.7 326.6C553.6 310.9 556.4 295 558.5 279.2C514.5 275.6 474.3 258.7 441.7 232.7z"/><path fill="currentColor" d="M361.2 80.9C364.6 125.3 381.5 165.9 407.8 198.8L519.7 86.9L526 87.9L547.6 91.5L552 113L553.5 120.9L441.7 232.7C474.3 258.7 514.5 275.6 558.5 279.2C556.5 295 553.6 310.9 549.7 326.6C495.9 321.2 446.9 299.6 407.6 266.8L354.4 320L488.1 453.7C478.1 465.9 467 477.4 454.6 488.1L320.4 353.9L267.2 407C300.3 446.8 322 496.4 327.1 550.8C312.1 554.3 296.2 557 279.6 558.9C276.1 514.5 259.3 473.9 233 441.1L121.3 553.1C119.2 552.8 117.1 552.5 115 552.1L93.4 548.5L89 527C88.5 524.4 88 521.7 87.5 519L199.3 407.3C166.7 381.3 126.5 364.4 82.5 360.8C84.5 345 87.4 329.1 91.3 313.4C145.1 318.8 194.1 340.4 233.4 373.2L286.6 320L152.8 186.2C162.8 174 173.9 162.5 186.3 151.8L320.5 286L373.6 232.8C340.5 193.1 318.8 143.4 313.7 89C328.7 85.4 344.6 82.7 361.2 80.8z"/></svg>