<svg xmlns="http://www.w3.org/2000/svg" viewBox="0 0 640 640"><!--! Font Awesome Pro 7.2.0 by @fontawesome - https://fontawesome.com License - https://fontawesome.com/license (Commercial License) Copyright 2026 Fonticons, Inc. --><path opacity=".4" fill="currentColor" d="M96 96L96 544L544 544L544 96L96 96zM192 288L240 288L240 448L192 448L192 288zM296 192L344 192L344 448L296 448L296 192zM400 352L448 352L448 448L400 448L400 352z"/><path fill="currentColor" d="M296 192L344 192L344 448L296 448L296 192zM192 288L240 288L240 448L192 448L192 288zM448 352L448 448L400 448L400 352L448 352z"/></svg>