<svg xmlns="http://www.w3.org/2000/svg" viewBox="0 0 640 640"><!--! Font Awesome Pro 7.2.0 by @fontawesome - https://fontawesome.com License - https://fontawesome.com/license (Commercial License) Copyright 2026 Fonticons, Inc. --><path opacity=".4" fill="currentColor" d="M96 96L96 544L544 544L544 96L96 96zM160 216L224 216L224 160L288 160L288 216L480 216L480 264L288 264L288 320L224 320L224 264L160 264L160 216zM160 376L352 376L352 320L416 320L416 376L480 376L480 424L416 424L416 480L352 480L352 424L160 424L160 376z"/><path fill="currentColor" d="M416 448L416 480L352 480L352 320L416 320L416 448zM288 288L288 320L224 320L224 160L288 160L288 288z"/></svg>