<svg xmlns="http://www.w3.org/2000/svg" viewBox="0 0 640 640"><!--! Font Awesome Pro 7.2.0 by @fontawesome - https://fontawesome.com License - https://fontawesome.com/license (Commercial License) Copyright 2026 Fonticons, Inc. --><path opacity=".4" fill="currentColor" d="M96 96L96 544L544 544L544 96L96 96zM240 208L344 208C383.8 208 416 240.2 416 280C416 309.5 398.3 334.8 372.9 346L413.1 420.7L419.2 432.1L364.7 432.1L321.6 352.1L287.9 352.1L287.9 432.1L239.9 432.1L239.9 208.1zM288 256L288 304L344 304C357.3 304 368 293.3 368 280C368 266.7 357.3 256 344 256L288 256z"/><path fill="currentColor" d="M264 208L240 208L240 432L288 432L288 352L321.7 352L364.8 432L419.3 432L413.2 420.6L373 345.9C398.4 334.8 416.1 309.4 416.1 279.9C416.1 240.1 383.9 207.9 344.1 207.9L264.1 207.9zM383.2 464L382 464L382.3 464.5L383.2 464zM336 304L288 304L288 256L344 256C357.3 256 368 266.7 368 280C368 293.3 357.3 304 344 304L336 304z"/></svg>