<svg xmlns="http://www.w3.org/2000/svg" viewBox="0 0 640 640"><!--! Font Awesome Pro 7.2.0 by @fontawesome - https://fontawesome.com License - https://fontawesome.com/license (Commercial License) Copyright 2026 Fonticons, Inc. --><path opacity=".4" fill="currentColor" d="M96 96L544 96L544 544L96 544L96 96zM172.2 480L243.8 480C279.3 409 278.4 410.8 280.8 406L335.5 460.7C347.9 473.1 364.6 480 382.1 480C418.5 480 448 450.5 448 414.1L448 256L370.7 256C365.6 261.1 357.1 269.6 345.3 281.4L335.9 290.8L335.9 304.1L335.9 370.8L294.5 329.4L243.3 337.7C159.2 506 189.5 445.4 172.2 480zM256 208C256 234.5 277.5 256 304 256C330.5 256 352 234.5 352 208C352 181.5 330.5 160 304 160C277.5 160 256 181.5 256 208z"/><path fill="currentColor" d="M304 160C330.5 160 352 181.5 352 208C352 234.5 330.5 256 304 256C277.5 256 256 234.5 256 208C256 181.5 277.5 160 304 160zM370.7 256L448 256L448 414.1C448 450.5 418.5 480 382.1 480C364.6 480 347.8 473.1 335.5 460.7L280.8 406C254.7 458.2 248.6 470.5 243.8 480L172.2 480C230.7 363.1 219.6 385.1 243.4 337.7L294.6 329.4L336 370.8L336 304.1L336 290.8C349 277.8 370.5 256.3 370.7 256.1z"/></svg>