<svg xmlns="http://www.w3.org/2000/svg" viewBox="0 0 640 640"><!--! Font Awesome Pro 7.2.0 by @fontawesome - https://fontawesome.com License - https://fontawesome.com/license (Commercial License) Copyright 2026 Fonticons, Inc. --><path opacity=".4" fill="currentColor" d="M96 96L96 544L544 544L544 96L96 96zM192 288L256 288L256 352L192 352L192 288zM288 288L352 288L352 352L288 352L288 288zM384 288L448 288L448 352L384 352L384 288z"/><path fill="currentColor" d="M448 352L384 352L384 288L448 288L448 352zM352 352L288 352L288 288L352 288L352 352zM192 352L192 288L256 288L256 352L192 352z"/></svg>