<svg xmlns="http://www.w3.org/2000/svg" viewBox="0 0 640 640"><!--! Font Awesome Pro 7.2.0 by @fontawesome - https://fontawesome.com License - https://fontawesome.com/license (Commercial License) Copyright 2026 Fonticons, Inc. --><path opacity=".4" fill="currentColor" d="M325.3 68.7L347.4 72.2L460.3 90C410.4 104.7 370.1 121.9 337.9 140.5C331.2 102.7 327 78.8 325.2 68.7zM499.3 302.8C518.2 270.2 535.7 229.2 550.5 178.2L568.7 293.5L572.2 315.6C562.3 313.8 538 309.6 499.3 302.7z"/><path fill="currentColor" d="M221.5 288.5C229.2 213.6 307.2 108.9 576 64C531.2 333.4 426.4 410.9 351.6 418.6L388.8 455.8C395 462 405.2 462 411.4 455.8L467.5 399.7C486.5 380.7 517.4 381 536.1 400.4C557.4 422.6 569.7 435.4 573.1 438.9L564.8 449.8L562.3 453.1C534 490.1 481.3 493.2 448.7 464L434 478.4C415.3 497.1 384.9 497.1 366.1 478.4L320.8 433.1L286.9 467L319.5 499.6C339 519.1 338.1 551.1 317.4 569.4L314.6 571.9L293.4 548L296.2 545.5C303.1 539.4 303.4 528.7 296.9 522.2L240.9 466.2C239.2 472.7 236.2 478.9 232.1 484.6L212 511.9C209.5 515.4 208.1 519.5 208.1 523.8C208.1 534.9 217.1 543.9 228.2 543.9L256.1 543.9L256.1 575.9L228.2 575.9C199.4 575.9 176.1 552.6 176.1 523.8C176.1 512.7 179.7 501.9 186.2 492.9L206.3 465.6C213.1 456.4 212.1 443.6 204 435.5C195.8 427.3 182.8 426.4 173.6 433.4L147.4 453.4C138.3 460.3 127.2 464 115.9 464C87.2 464 64 440.8 64 412.1L64 384L96 384L96 412.1C96 423.1 104.9 432 115.9 432C120.3 432 124.5 430.6 127.9 427.9L154.1 407.9C159.9 403.5 166.4 400.3 173.2 398.5L117.8 343.2C111.4 336.8 101.1 337 94.9 343.5L91.6 347L68.4 325L71.7 321.5C90.3 301.9 121.4 301.5 140.4 320.6L173.8 354L207.7 320.1L162.4 274.8C143.7 256.1 143.7 225.7 162.4 206.9L177 192.4C147.6 159.7 150.5 106.9 187.4 78.3C188.6 77.3 193.5 73.5 202.1 66.9C205.6 70.3 218.6 83 241.1 105C260.2 123.7 260.4 154.4 241.5 173.3L185.2 229.6C179 235.8 179 246 185.2 252.2L221.5 288.5zM264.9 344C264.9 335.2 257.7 328 248.9 328C240.1 328 232.9 335.2 232.9 344C232.9 352.8 240.1 360 248.9 360C257.7 360 264.9 352.8 264.9 344zM296.9 408C305.7 408 312.9 400.8 312.9 392C312.9 383.2 305.7 376 296.9 376C288.1 376 280.9 383.2 280.9 392C280.9 400.8 288.1 408 296.9 408z"/></svg>