<svg xmlns="http://www.w3.org/2000/svg" viewBox="0 0 640 640"><!--! Font Awesome Pro 7.2.0 by @fontawesome - https://fontawesome.com License - https://fontawesome.com/license (Commercial License) Copyright 2026 Fonticons, Inc. --><path opacity=".4" fill="currentColor" d="M320.2 11.2L320.2 152C347.4 205.2 364.2 238.1 370.6 250.7C384.5 252.9 421 258.7 480 268.1C437.8 310.4 411.7 336.5 401.7 346.5C403.9 360.4 409.6 396.9 419 455.9C365.7 428.8 332.8 412.1 320.3 405.7L320.3 477.5C401.1 518.6 461.6 549.4 501.8 569.8C494.8 525.3 484.2 458.2 470.1 368.6C534.2 304.4 582.1 256.4 614 224.5C569.5 217.4 502.4 206.8 412.9 192.5C371.7 111.7 340.8 51.3 320.3 11.1z"/><path fill="currentColor" d="M320.2 11.2L320.2 477.5L138.7 569.8L170.4 368.6L26.5 224.5L227.6 192.5L320.2 11.1z"/></svg>