<svg xmlns="http://www.w3.org/2000/svg" viewBox="0 0 640 640"><!--! Font Awesome Pro 7.2.0 by @fontawesome - https://fontawesome.com License - https://fontawesome.com/license (Commercial License) Copyright 2026 Fonticons, Inc. --><path opacity=".4" fill="currentColor" d="M320.4 24.9C320.4 170.6 320.4 316.4 320.4 462.2C409.7 531.6 469.8 578.4 500.8 602.5C489.1 565.7 465.6 491.9 430.3 380.9C521.8 309.7 580.5 264.1 606.4 244L390.1 244C354.9 133.2 331.7 60.2 320.4 24.9z"/><path fill="currentColor" d="M320.4 24.8L320.4 24.8C309.2 60.2 286 133.2 250.8 243.9L34.5 243.9C60.4 264 119.1 309.7 210.6 380.8C175.3 491.8 151.8 565.7 140.1 602.4C171.1 578.3 231.2 531.5 320.5 462.1L320.5 462.1L320.5 24.8z"/></svg>