<svg xmlns="http://www.w3.org/2000/svg" viewBox="0 0 640 640"><!--! Font Awesome Pro 7.2.0 by @fontawesome - https://fontawesome.com License - https://fontawesome.com/license (Commercial License) Copyright 2026 Fonticons, Inc. --><path opacity=".4" fill="currentColor" d="M104.3 352C104.3 240.8 188.3 149.3 296.3 137.3C304.2 136.4 312.2 136 320.3 136C328.4 136 336.4 136.4 344.3 137.3C391.1 142.5 433.4 162.6 466.3 192.8C482.1 207.3 495.8 224.2 506.8 242.9C525.6 274.9 536.4 312.2 536.4 352.1C536.4 471.4 439.7 568.1 320.4 568.1C201.1 568.1 104.4 471.4 104.4 352.1zM204.3 304L244.3 304C244.3 297.4 249.7 292 256.3 292C262.9 292 268.3 297.4 268.3 304L268.3 307.8C268.3 312.1 267.1 316.2 264.9 319.9L207.3 413.5L204.3 418.3L204.3 452L308.3 452L308.3 412L255.2 412L299 340.8C305.1 330.9 308.3 319.4 308.3 307.8L308.3 304C308.3 275.3 285 252 256.3 252C227.6 252 204.3 275.3 204.3 304zM332.3 304L332.3 400C332.3 428.7 355.6 452 384.3 452C413 452 436.3 428.7 436.3 400L436.3 304C436.3 275.3 413 252 384.3 252C355.6 252 332.3 275.3 332.3 304zM372.3 304C372.3 297.4 377.7 292 384.3 292C390.9 292 396.3 297.4 396.3 304L396.3 400C396.3 406.6 390.9 412 384.3 412C377.7 412 372.3 406.6 372.3 400L372.3 304z"/><path fill="currentColor" d="M400.3 64L400.3 112L344.3 112L344.3 137.3C336.4 136.4 328.4 136 320.3 136C312.2 136 304.2 136.4 296.3 137.3L296.3 112L240.3 112L240.3 64L400.3 64zM506.7 242.8C495.8 224.1 482.1 207.3 466.2 192.7C481.9 177 497.3 161.6 512.2 146.7L557.5 192C543.3 206.2 526.4 223.1 506.7 242.8zM204.3 304C204.3 275.3 227.6 252 256.3 252C285 252 308.3 275.3 308.3 304L308.3 307.8C308.3 319.5 305.1 330.9 299 340.8L255.2 412L308.3 412L308.3 452L204.3 452L204.3 418.3L207.3 413.5L264.9 319.9C267.1 316.3 268.3 312.1 268.3 307.8L268.3 304C268.3 297.4 262.9 292 256.3 292C249.7 292 244.3 297.4 244.3 304L204.3 304zM384.3 252C413 252 436.3 275.3 436.3 304L436.3 400C436.3 428.7 413 452 384.3 452C355.6 452 332.3 428.7 332.3 400L332.3 304C332.3 275.3 355.6 252 384.3 252zM372.3 304L372.3 400C372.3 406.6 377.7 412 384.3 412C390.9 412 396.3 406.6 396.3 400L396.3 304C396.3 297.4 390.9 292 384.3 292C377.7 292 372.3 297.4 372.3 304z"/></svg>