<svg xmlns="http://www.w3.org/2000/svg" viewBox="0 0 640 640"><!--! Font Awesome Pro 7.2.0 by @fontawesome - https://fontawesome.com License - https://fontawesome.com/license (Commercial License) Copyright 2026 Fonticons, Inc. --><path opacity=".4" fill="currentColor" d="M104.3 352C104.3 240.8 188.3 149.3 296.3 137.3C304.2 136.4 312.2 136 320.3 136C328.4 136 336.4 136.4 344.3 137.3C391.1 142.5 433.4 162.6 466.3 192.8C482.1 207.3 495.8 224.2 506.8 242.9C525.6 274.9 536.4 312.2 536.4 352.1C536.4 471.4 439.7 568.1 320.4 568.1C201.1 568.1 104.4 471.4 104.4 352.1zM296.3 224L296.3 376L344.3 376L344.3 224L296.3 224z"/><path fill="currentColor" d="M240.3 64L400.3 64L400.3 112L344.3 112L344.3 137.3C336.4 136.4 328.4 136 320.3 136C312.2 136 304.2 136.4 296.3 137.3L296.3 112L240.3 112L240.3 64zM466.3 192.8C482 177.1 497.4 161.7 512.3 146.8L557.5 192C543.3 206.2 526.4 223.1 506.7 242.8C495.8 224.1 482.1 207.3 466.2 192.7zM344.3 248L344.3 376L296.3 376L296.3 224L344.3 224L344.3 248z"/></svg>