<svg xmlns="http://www.w3.org/2000/svg" viewBox="0 0 640 640"><!--! Font Awesome Pro 7.2.0 by @fontawesome - https://fontawesome.com License - https://fontawesome.com/license (Commercial License) Copyright 2026 Fonticons, Inc. --><path opacity=".4" fill="currentColor" d="M32.2 336L32.2 384L172.2 384L179.9 388.6L273.6 444.8L209.1 483.5C203.9 481.5 198.2 480.4 192.3 480.4C165.8 480.4 144.3 501.9 144.3 528.4C144.3 554.9 165.8 576.4 192.3 576.4C218.8 576.4 240.3 554.9 240.3 528.4C240.3 525.9 240 523.5 239.7 521.2L320.3 472.8L400.9 521.2C400.5 523.6 400.3 526 400.3 528.4C400.3 554.9 421.8 576.4 448.3 576.4C474.8 576.4 496.3 554.9 496.3 528.4C496.3 501.9 474.8 480.4 448.3 480.4C442.4 480.4 436.7 481.5 431.4 483.5L366.9 444.8L460.6 388.6L468.3 384L608.3 384L608.3 336L32.3 336zM265.5 384L374.8 384L320.1 416.8L265.4 384z"/><path fill="currentColor" d="M119.2 73.4L273.1 176L608.2 176L608.2 288L239.2 288L225.1 278.6L10.5 135.5L72.6 42.3L119.2 73.4z"/></svg>