<svg xmlns="http://www.w3.org/2000/svg" viewBox="0 0 640 640"><!--! Font Awesome Pro 7.2.0 by @fontawesome - https://fontawesome.com License - https://fontawesome.com/license (Commercial License) Copyright 2026 Fonticons, Inc. --><path opacity=".4" fill="currentColor" d="M64 64L64 144L384 464L464 384L144 64L64 64zM176 384L256 464L286.1 433.9L206.1 353.9L176 384zM353.9 206.1L433.9 286.1L576 144L576 64L496 64L353.9 206.1z"/><path fill="currentColor" d="M112 576L64 528L128 464L96 368L128 336L304 512L272 544L176 512L112 576zM528 576L464 512L368 544L336 512L512 336L544 368L512 464L576 528L528 576z"/></svg>