<svg xmlns="http://www.w3.org/2000/svg" viewBox="0 0 640 640"><!--! Font Awesome Pro 7.2.0 by @fontawesome - https://fontawesome.com License - https://fontawesome.com/license (Commercial License) Copyright 2026 Fonticons, Inc. --><path opacity=".4" fill="currentColor" d="M54.5 552L88.4 585.9C93 581.3 117.7 556.6 162.3 512L274.3 512L281.3 505L528.3 258L527.3 257C479.3 209 431.3 161 383.3 113L382.3 112C353.6 140.7 324.9 169.4 296.2 198.1C327.5 229.4 346.8 248.7 354.1 256L320.2 289.9C312.9 282.6 293.6 263.3 262.3 232C246.9 247.4 231.6 262.7 216.2 278.1C247.5 309.4 266.8 328.7 274.1 336L240.2 369.9C232.9 362.6 213.6 343.3 182.3 312C166.6 327.7 150.9 343.4 135.3 359L128.3 366L128.3 478C83.8 522.7 59.1 547.4 54.5 552z"/><path fill="currentColor" d="M529.4 47L512.4 30L478.5 63.9C490.1 75.5 500.8 86.2 510.5 95.9L472.4 134.1C429.4 91.1 405.4 67.1 400.4 62.1L366.5 96C373.6 103.1 509.8 239.3 527.5 257L544.5 274L578.4 240.1C573.4 235.1 549.4 211.1 506.4 168.1L544.5 130C554.2 139.7 564.9 150.4 576.5 162L610.4 128C589.9 107.6 540.4 58 529.4 47zM296.4 198L262.5 232C293.8 263.3 313.1 282.6 320.4 289.9L354.4 256C347.1 248.7 327.8 229.4 296.5 198.1zM216.4 278L182.5 312C213.8 343.3 233.1 362.6 240.4 369.9L274.4 336C267.1 328.7 247.8 309.4 216.5 278.1z"/></svg>