<svg xmlns="http://www.w3.org/2000/svg" viewBox="0 0 640 640"><!--! Font Awesome Pro 7.2.0 by @fontawesome - https://fontawesome.com License - https://fontawesome.com/license (Commercial License) Copyright 2026 Fonticons, Inc. --><path opacity=".4" fill="currentColor" d="M64 96L64 544L368 544L368 480L256 480L256 416L368 416L368 352L256 352L256 288L409.3 288C426.4 245.8 465.3 214.8 512 209L512 96L64 96zM256 160L448 160L448 224L256 224L256 160z"/><path fill="currentColor" d="M496 336L496 384L560 384L560 336C560 318.3 545.7 304 528 304C510.3 304 496 318.3 496 336zM448 384L448 336C448 291.8 483.8 256 528 256C572.2 256 608 291.8 608 336L608 384L640 384L640 576L416 576L416 384L448 384z"/></svg>