<svg xmlns="http://www.w3.org/2000/svg" viewBox="0 0 640 640"><!--! Font Awesome Pro 7.2.0 by @fontawesome - https://fontawesome.com License - https://fontawesome.com/license (Commercial License) Copyright 2026 Fonticons, Inc. --><path opacity=".4" fill="currentColor" d="M160 352L160 416L224 416L224 480L288 480L288 416L352 416L352 480L416 480L416 416L480 416L480 352L416 352L416 288L352 288L352 352L288 352L288 288L224 288L224 352L160 352z"/><path fill="currentColor" d="M160 288L160 480L480 480L480 288L160 288zM96 96L544 96L544 544L96 544L96 96z"/></svg>