<svg xmlns="http://www.w3.org/2000/svg" viewBox="0 0 640 640"><!--! Font Awesome Pro 7.2.0 by @fontawesome - https://fontawesome.com License - https://fontawesome.com/license (Commercial License) Copyright 2026 Fonticons, Inc. --><path opacity=".4" fill="currentColor" d="M576 320C576 461.4 461.4 576 320 576C178.6 576 64 461.4 64 320C64 178.6 178.6 64 320 64C461.4 64 576 178.6 576 320zM256 416C256 451.3 284.7 480 320 480C355.3 480 384 451.3 384 416C384 400.1 378.2 385.6 368.7 374.4L445.3 227L456.4 205.7L413.8 183.6C410.1 190.7 406.4 197.8 402.7 204.9C377.2 254 351.6 303.1 326.1 352.3C324.1 352.1 322.1 352 320 352C284.7 352 256 380.7 256 416z"/><path fill="currentColor" d="M402.7 204.9L413.8 183.6L456.4 205.7L445.3 227L368.7 374.4C378.3 385.6 384 400.1 384 416C384 451.3 355.3 480 320 480C284.7 480 256 451.3 256 416C256 380.7 284.7 352 320 352C322.1 352 324.1 352.1 326.1 352.3L402.7 204.9z"/></svg>