<svg xmlns="http://www.w3.org/2000/svg" viewBox="0 0 640 640"><!--! Font Awesome Pro 7.2.0 by @fontawesome - https://fontawesome.com License - https://fontawesome.com/license (Commercial License) Copyright 2026 Fonticons, Inc. --><path opacity=".4" fill="currentColor" d="M64.3 96L288.3 96L496.3 304L272.3 528L64.3 320L64.3 96zM144.3 208C144.3 225.7 158.6 240 176.3 240C194 240 208.3 225.7 208.3 208C208.3 190.3 194 176 176.3 176C158.6 176 144.3 190.3 144.3 208z"/><path fill="currentColor" d="M416.5 86.1L433.4 103.2L615 287.2L631.6 304.1L614.9 321L425.2 513L408.3 530.1L374.2 496.4L391.1 479.3L564.2 304.2L399.3 137.1L382.4 120L416.6 86.3z"/></svg>