<svg xmlns="http://www.w3.org/2000/svg" viewBox="0 0 640 640"><!--! Font Awesome Pro 7.2.0 by @fontawesome - https://fontawesome.com License - https://fontawesome.com/license (Commercial License) Copyright 2026 Fonticons, Inc. --><path opacity=".4" fill="currentColor" d="M62.5 544L96.4 577.9L113.4 560.9L194.4 479.9L306.4 479.9L313.4 472.9L546.2 240.1C565.6 220.7 576.4 194.5 576.4 167.1C576.4 110.1 530.2 63.9 473.2 63.9C445.8 63.9 419.6 74.8 400.2 94.1C397.6 96.7 395 99.3 392.4 101.9L441.4 150.9L407.5 184.8L358.5 135.8C343.1 151.2 327.8 166.5 312.4 181.9L361.4 230.9L327.5 264.8L278.5 215.8C263.1 231.2 247.8 246.5 232.4 261.9L281.4 310.9L247.5 344.8L198.5 295.8C188.2 306.1 177.8 316.5 167.5 326.8L160.5 333.8L160.5 445.8C95.8 510.7 63.1 543.4 62.5 544z"/><path fill="currentColor" d="M198.5 296L247.5 345L281.4 311.1L232.4 262.1L198.5 296zM278.5 216L327.5 265L361.4 231.1L312.4 182.1L278.5 216zM358.5 136L407.5 185L441.4 151.1L392.4 102.1L358.5 136z"/></svg>