<svg xmlns="http://www.w3.org/2000/svg" viewBox="0 0 640 640"><!--! Font Awesome Pro 7.2.0 by @fontawesome - https://fontawesome.com License - https://fontawesome.com/license (Commercial License) Copyright 2026 Fonticons, Inc. --><path opacity=".4" fill="currentColor" d="M95.9 272.8C276.9 453.8 265.6 442.5 367.4 544.3C413.9 497.8 431.6 433.3 420.4 373.1L510.8 267.7C516.1 273 527.2 284.1 544.3 301.2L589.6 255.9L567 233.3L407 73.3L384.4 50.7L339.1 96C356.1 113 367.3 124.2 372.6 129.5L267.1 219.8C207 208.6 142.5 226.2 95.9 272.8z"/><path fill="currentColor" d="M254.3 431.2L118.9 566.6L96.3 589.3L51 544L73.6 521.4L209.1 385.9L254.3 431.2z"/></svg>