<svg xmlns="http://www.w3.org/2000/svg" viewBox="0 0 640 640"><!--! Font Awesome Pro 7.2.0 by @fontawesome - https://fontawesome.com License - https://fontawesome.com/license (Commercial License) Copyright 2026 Fonticons, Inc. --><path opacity=".4" fill="currentColor" d="M96 96L96 448L608 448L608 320C581.5 320 560 298.5 560 272C560 245.5 581.5 224 608 224L608 96L96 96zM224 208L256 208L280 240L322.7 240L296 160L352 160L398.7 240L448 240C465.7 240 480 254.3 480 272C480 289.7 465.7 304 448 304L398.7 304L352 384L296 384L322.7 304L280 304L256 336L224 336L240 272L224 208z"/><path fill="currentColor" d="M322.7 240L280 240L256 208L224 208L240 272L224 336L256 336L280 304L322.7 304L296 384L352 384L398.7 304L448 304C465.7 304 480 289.7 480 272C480 254.3 465.7 240 448 240L398.7 240L352 160L296 160L322.7 240zM48 216L48 192L0 192L0 544L512 544L512 496L48 496L48 216z"/></svg>