<svg xmlns="http://www.w3.org/2000/svg" viewBox="0 0 640 640"><!--! Font Awesome Pro 7.2.0 by @fontawesome - https://fontawesome.com License - https://fontawesome.com/license (Commercial License) Copyright 2026 Fonticons, Inc. --><path opacity=".4" fill="currentColor" d="M32.4 288L32.4 352L224.4 352L224.4 400L288.4 400L288.4 352L512.4 352L512.4 425.9C538.5 399.8 568.2 370.1 601.4 336.9L618.4 319.9C602.1 303.6 520.3 221.8 512.5 214L512.5 287.9L416.5 287.9L416.5 239.9L352.5 239.9L352.5 287.9L160.5 287.9L160.5 239.9L96.5 239.9L96.5 287.9L32.5 287.9z"/><path fill="currentColor" d="M48.4 80L208.4 80L208.4 240L48.4 240L48.4 80zM304.4 80L464.4 80L464.4 240L304.4 240L304.4 80zM336.4 400L336.4 560L176.4 560L176.4 400L336.4 400z"/></svg>