<svg xmlns="http://www.w3.org/2000/svg" viewBox="0 0 640 640"><!--! Font Awesome Pro 7.2.0 by @fontawesome - https://fontawesome.com License - https://fontawesome.com/license (Commercial License) Copyright 2026 Fonticons, Inc. --><path opacity=".4" fill="currentColor" d="M64 320C64 461.4 178.6 576 320 576C461.4 576 576 461.4 576 320C576 178.6 461.4 64 320 64L288 64L288 192L352 192L352 130.7C442.8 145.9 512 224.9 512 320C512 426 426 512 320 512C214 512 128 426 128 320C128 266.3 150 217.7 185.6 182.9L140.8 137.1C93.5 183.6 64 248.4 64 320z"/><path fill="currentColor" d="M240 206.1C240.8 206.9 273.1 239.2 337 303.1L354 320.1L320.1 354L303.1 337C239.3 273.2 206.9 240.8 206.1 240L240 206.1z"/></svg>