<svg xmlns="http://www.w3.org/2000/svg" viewBox="0 0 640 640"><!--! Font Awesome Pro 7.2.0 by @fontawesome - https://fontawesome.com License - https://fontawesome.com/license (Commercial License) Copyright 2026 Fonticons, Inc. --><path opacity=".4" fill="currentColor" d="M64 160L64 576L112 576L112 544L240 544L240 576L288 576L288 384L240 384L240 288L288 288L288 160L64 160zM352 160L352 576L400 576L400 544L528 544L528 576L576 576L576 384L528 384L528 288L576 288L576 160L352 160z"/><path fill="currentColor" d="M64 64L288 64L288 160L64 160L64 64zM288 288L288 384L240 384L240 288L288 288zM576 288L576 384L528 384L528 288L576 288zM576 64L576 160L352 160L352 64L576 64z"/></svg>