<svg xmlns="http://www.w3.org/2000/svg" viewBox="0 0 640 640"><!--! Font Awesome Pro 7.2.0 by @fontawesome - https://fontawesome.com License - https://fontawesome.com/license (Commercial License) Copyright 2026 Fonticons, Inc. --><path opacity=".4" fill="currentColor" d="M16 432L64 448L80 496L96 448L144 432L96 416L80 368L64 416L16 432zM224 416L224 448L416 448L416 416L224 416zM224 480L224 512L416 512L416 480L224 480zM496 240L544 256L560 304L576 256L624 240L576 224L560 176L544 224L496 240z"/><path fill="currentColor" d="M264 88C264 57.1 289.1 32 320 32C350.9 32 376 57.1 376 88C376 118.9 350.9 144 320 144C289.1 144 264 118.9 264 88zM252.6 176L387.4 176L397 189.2C471.3 291.6 508.5 342.8 508.7 343.1L456.9 380.7C447.6 367.9 428.6 341.7 400 302.3L400 368L240 368L240 302.3C211.4 341.7 192.4 367.9 183.1 380.7L131.3 343.1L150.1 317.2L243 189.2L252.6 176zM336 560L480 560L480 608L160 608L160 560L336 560z"/></svg>