<svg xmlns="http://www.w3.org/2000/svg" viewBox="0 0 640 640"><!--! Font Awesome Pro 7.2.0 by @fontawesome - https://fontawesome.com License - https://fontawesome.com/license (Commercial License) Copyright 2026 Fonticons, Inc. --><path opacity=".4" fill="currentColor" d="M176 96L176 128L304 128L304 96L264 96L264 64L216 64L216 96L176 96zM176 160L176 192L304 192L304 160L176 160zM224 416L294.5 421C287 456.7 279.5 492.3 272 528L416 384L345.5 379L368 272L224 416zM336 96L336 128L464 128L464 96L424 96L424 64L376 64L376 96L336 96zM336 160L336 192L464 192L464 160L336 160z"/><path fill="currentColor" d="M128 224L512 224L512 288L480 288L480 512L512 512L512 576L128 576L128 512L160 512L160 288L128 288L128 224zM368 272L224 416L294.5 421L272 528L416 384L345.5 379L368 272z"/></svg>