<svg xmlns="http://www.w3.org/2000/svg" viewBox="0 0 640 640"><!--! Font Awesome Pro 7.2.0 by @fontawesome - https://fontawesome.com License - https://fontawesome.com/license (Commercial License) Copyright 2026 Fonticons, Inc. --><path opacity=".4" fill="currentColor" d="M128 160L512 160L512 576L128 576L128 160zM214.1 388.2C220.3 394.6 241.3 416.3 277.2 453.5L297 474.1L313.8 451L416.2 310.2L430.3 290.8L391.5 262.6L377.4 282L291.8 399.7C272.5 379.7 258.1 364.8 248.6 355L214.1 388.3z"/><path fill="currentColor" d="M430.3 290.7L416.2 310.1L313.8 450.9L297 474C288.2 464.9 266.1 442 230.8 405.4L214.1 388.1L248.6 354.8C258.1 364.6 272.5 379.5 291.8 399.5L377.4 281.8L391.5 262.4L430.3 290.6zM416 96L544 96L544 160L96 160L96 96L224 96L240 48L400 48L416 96z"/></svg>