<svg xmlns="http://www.w3.org/2000/svg" viewBox="0 0 640 640"><!--! Font Awesome Pro 7.2.0 by @fontawesome - https://fontawesome.com License - https://fontawesome.com/license (Commercial License) Copyright 2026 Fonticons, Inc. --><path opacity=".4" fill="currentColor" d="M64 160L64 576L416 576L416 160L64 160zM160 224L208 224L208 512L160 512L160 224zM272 224L320 224L320 512L272 512L272 224z"/><path fill="currentColor" d="M144 48L336 48L352 96L448 96L448 160L32 160L32 96L128 96L144 48zM640 192L640 256L480 256L480 192L640 192zM608 320L608 384L480 384L480 320L608 320zM480 448L544 448L544 512L480 512L480 448z"/></svg>