<svg xmlns="http://www.w3.org/2000/svg" viewBox="0 0 640 640"><!--! Font Awesome Pro 7.2.0 by @fontawesome - https://fontawesome.com License - https://fontawesome.com/license (Commercial License) Copyright 2026 Fonticons, Inc. --><path opacity=".4" fill="currentColor" d="M128.1 229.8L128.1 576L474.3 576L344.1 445.8L344.1 512L296.1 512L296.1 397.8L240.1 341.8L240.1 512L192.1 512L192.1 293.8L128.1 229.8z"/><path fill="currentColor" d="M81.3 47.1L64.3 30.1L30.4 64L47.4 81L559.4 593L576.4 610L610.3 576.1L593.3 559.1L512.1 477.9L512.1 207.9L242.1 207.9L194.1 159.9L544.1 159.9L544.1 95.9L416.1 95.9L400.1 47.9L240.1 47.9L224.1 95.9L130.1 95.9L81.2 47zM400.1 366L400.1 272L448.1 272L448.1 414L400.1 366z"/></svg>