<svg xmlns="http://www.w3.org/2000/svg" viewBox="0 0 640 640"><!--! Font Awesome Pro 7.2.0 by @fontawesome - https://fontawesome.com License - https://fontawesome.com/license (Commercial License) Copyright 2026 Fonticons, Inc. --><path opacity=".4" fill="currentColor" d="M128 160L512 160L488 576L152 576L128 160zM190.1 336C193.6 339.5 220.6 366.5 271.1 417L288.1 434L322 400.1C311.7 389.8 298.4 376.5 282 360.1L336.1 360.1C358.2 360.1 376.1 378 376.1 400.1L376.1 464.1L424.1 464.1L424.1 400.1C424.1 351.5 384.7 312.1 336.1 312.1L282 312.1C298.4 295.7 311.7 282.4 322 272.1L288 238.1L190.1 336z"/><path fill="currentColor" d="M240 48L224 96L96 96L96 160L544 160L544 96L416 96L400 48L240 48zM305 289L322 272L288.1 238.1L190.2 336C193.7 339.5 220.7 366.5 271.2 417L288.2 434L322.1 400.1C311.8 389.8 298.5 376.5 282.1 360.1L336.2 360.1C358.3 360.1 376.2 378 376.2 400.1L376.2 464.1L424.2 464.1L424.2 400.1C424.2 351.5 384.8 312.1 336.2 312.1L282.1 312.1L305.1 289.1z"/></svg>