<svg xmlns="http://www.w3.org/2000/svg" viewBox="0 0 640 640"><!--! Font Awesome Pro 7.2.0 by @fontawesome - https://fontawesome.com License - https://fontawesome.com/license (Commercial License) Copyright 2026 Fonticons, Inc. --><path opacity=".4" fill="currentColor" d="M60 576L288.2 576L288.2 256L352.2 256L352.2 576L580.4 576C569.3 563 523.6 509.7 443.2 416L548.3 416C535.3 400.8 493.6 352 423.3 269.8L497.2 269.8C494.7 266.8 441.4 201.6 337.1 74.2L320.2 53.5L303.3 74.2L172.4 234.2L143.2 269.8L217 269.8C146.8 352 105.1 400.8 92.1 416L197.2 416C116.8 509.7 71.1 563 60 576z"/><path fill="currentColor" d="M352.2 576L288.2 576L288.2 256L352.2 256L352.2 576z"/></svg>