<svg xmlns="http://www.w3.org/2000/svg" viewBox="0 0 640 640"><!--! Font Awesome Pro 7.2.0 by @fontawesome - https://fontawesome.com License - https://fontawesome.com/license (Commercial License) Copyright 2026 Fonticons, Inc. --><path opacity=".4" fill="currentColor" d="M48 544L592 544C581.3 524.6 532.5 435.4 445.4 276.6L398.3 323.7L484 480L156.2 480L320.1 181.1L374.3 279.9L421.4 232.8L356.6 114.6L352.1 106.4L352.1 32L288.1 32L288.1 106.4L283.6 114.6L83.2 480L48.1 544z"/><path fill="currentColor" d="M569 153L586 136L552.1 102.1L535.1 119.1L338.9 315.3C333 313.2 326.7 312.1 320.1 312.1C289.2 312.1 264.1 337.2 264.1 368.1C264.1 399 289.2 424.1 320.1 424.1C351 424.1 376.1 399 376.1 368.1C376.1 361.5 375 355.2 372.9 349.3L569 153z"/></svg>