<svg xmlns="http://www.w3.org/2000/svg" viewBox="0 0 640 640"><!--! Font Awesome Pro 7.2.0 by @fontawesome - https://fontawesome.com License - https://fontawesome.com/license (Commercial License) Copyright 2026 Fonticons, Inc. --><path opacity=".4" fill="currentColor" d="M104.5 187.1C105.2 186.8 174.6 161.5 238 168.1C229.7 186 224.3 205 224.3 224C224.3 238.5 227.6 252.2 233.4 264.5C220.3 265.8 207.2 269.8 195.1 276.8C179.7 285.7 166.7 298.7 155.7 313.5C117.4 261.6 104.5 187 104.5 187zM238 459C256.9 457 275.2 452.2 291.1 443.1C303 436.2 312.8 427.2 320.4 416.8C328 427.2 337.8 436.2 349.7 443.1C365.5 452.2 383.9 457 402.8 459C376.4 516.4 320.7 562.9 320.5 563.1C320.2 562.9 264.6 516.4 238.2 459zM402.7 168.1C466.3 161.5 536 187.1 536.2 187.2C536 188.3 523 262.1 485 313.6C474.1 298.8 461 285.8 445.6 276.9C433.4 269.9 420.4 265.9 407.2 264.6C413 252.3 416.3 238.6 416.3 224.1C416.3 205.1 410.9 186.1 402.6 168.2z"/><path fill="currentColor" d="M320.3 64C320.3 64 416.3 144 416.3 224C416.3 238.5 413 252.2 407.2 264.5C420.3 265.8 433.4 269.8 445.6 276.8C514.8 316.7 536.1 439.5 536.2 439.9C535.2 440.3 418.6 482.9 349.6 443C337.7 436.1 327.9 427.1 320.3 416.7C312.7 427.1 302.9 436.1 291 443C221.7 483 104.4 439.9 104.4 439.9C104.4 439.7 125.7 316.7 195 276.8C207.2 269.8 220.2 265.8 233.3 264.5C227.5 252.2 224.2 238.5 224.2 224C224.2 144.3 319.6 64.5 320.2 64zM320.3 264C298.2 264 280.3 281.9 280.3 304C280.3 326.1 298.2 344 320.3 344C342.4 344 360.3 326.1 360.3 304C360.3 281.9 342.4 264 320.3 264z"/></svg>