<svg xmlns="http://www.w3.org/2000/svg" viewBox="0 0 640 640"><!--! Font Awesome Pro 7.2.0 by @fontawesome - https://fontawesome.com License - https://fontawesome.com/license (Commercial License) Copyright 2026 Fonticons, Inc. --><path opacity=".4" fill="currentColor" d="M48 516.1C48 566.8 89.1 608 139.9 608C164.3 608 187.6 598.3 204.9 581.1L558.5 227.5C580 206 592 176.9 592 146.5C592 83.3 540.7 32 477.5 32C447.1 32 418 44.1 396.5 65.5C320.6 141.4 310.6 151.4 305.9 156.1C271.2 190.8 226.5 213.6 178 221.2C127.6 229.2 88.8 235.3 61.7 239.6C102.8 280.7 115.9 293.8 215 392.9C216.1 394 229.9 407.8 256.3 434.2C260.6 407 266.7 368.3 274.7 317.9C279.7 286.4 291.1 256.5 307.9 229.8C316.5 216.2 326.5 203.5 337.9 191.9C338.5 191.3 339.2 190.6 339.8 190C345.6 184.2 360.3 169.5 384 145.8L385 144.8C410.4 119.4 425.6 104.2 430.5 99.3C443 86.8 459.9 79.8 477.5 79.8C514.2 79.8 544 109.6 544 146.3C544 163.9 537 180.9 524.5 193.3C398.4 319.4 368.4 349.4 170.9 546.9C162.7 555.1 151.5 559.8 139.9 559.8C115.7 559.8 96 540.2 96 515.9C96 504.3 100.6 493.1 108.9 484.9L174.1 419.7L140.2 385.8L75 451C57.7 468.4 48 491.8 48 516.1z"/><path fill="currentColor" d="M512 206.1L417.9 112L384.9 145L383.9 146L478 240.1L511.9 206.2zM432 286.1L338 192.1C326.7 203.7 316.6 216.4 308 230L398.1 320L432 286.1z"/></svg>