<svg xmlns="http://www.w3.org/2000/svg" viewBox="0 0 640 640"><!--! Font Awesome Pro 7.2.0 by @fontawesome - https://fontawesome.com License - https://fontawesome.com/license (Commercial License) Copyright 2026 Fonticons, Inc. --><path opacity=".4" fill="currentColor" d="M0 384L0 464L144 406.4L144 464L64 528L64 576L192 544L240 556L240 112C240 85.5 218.5 64 192 64C165.5 64 144 85.5 144 112L144 225.6L0 384z"/><path fill="currentColor" d="M288 192L640 192L640 512L608 512L608 576L544 576L544 512L384 512L384 576L320 576L320 512L288 512L288 192zM368 304L368 368L560 368L560 304L368 304zM392 432C392 418.7 381.3 408 368 408C354.7 408 344 418.7 344 432C344 445.3 354.7 456 368 456C381.3 456 392 445.3 392 432zM560 456C573.3 456 584 445.3 584 432C584 418.7 573.3 408 560 408C546.7 408 536 418.7 536 432C536 445.3 546.7 456 560 456z"/></svg>