<svg xmlns="http://www.w3.org/2000/svg" viewBox="0 0 640 640"><!--! Font Awesome Pro 7.2.0 by @fontawesome - https://fontawesome.com License - https://fontawesome.com/license (Commercial License) Copyright 2026 Fonticons, Inc. --><path opacity=".4" fill="currentColor" d="M24.5 522.5L42.9 583.8L73.6 574.6L389.1 480L432.8 480C432.6 482.6 432.4 485.3 432.4 488C432.4 536.6 471.8 576 520.4 576C569 576 608.4 536.6 608.4 488L608.4 96L352.4 96L352.4 424.2L55.2 513.4L24.5 522.6zM560.3 488C560.3 510.1 542.4 528 520.3 528C498.2 528 480.3 510.1 480.3 488C480.3 465.9 498.2 448 520.3 448C542.4 448 560.3 465.9 560.3 488z"/><path fill="currentColor" d="M304.3 157.5L92.9 222.2C62.2 231.6 43.7 261.9 48.3 292.7C56.3 286 65.7 280.7 76.4 277.5C113.4 266.2 152.3 283 170.1 315.8L304.5 274.7L304.5 157.6zM304.3 324.8L185.5 361.1C170.2 365.8 154.9 370.5 139.6 375.1L130.2 344.5C125 327.6 107.1 318.1 90.2 323.3C73.3 328.5 63.8 346.4 69 363.3L97.1 455.1L304.3 391.8L304.3 324.9z"/></svg>