<svg xmlns="http://www.w3.org/2000/svg" viewBox="0 0 640 640"><!--! Font Awesome Pro 7.2.0 by @fontawesome - https://fontawesome.com License - https://fontawesome.com/license (Commercial License) Copyright 2026 Fonticons, Inc. --><path opacity=".4" fill="currentColor" d="M32 64L32 112L64 112L64 192L112 192L112 112L176 112L176 192L224 192L224 112L288 112L288 192L336 192L336 112L608 112L608 64L32 64zM96 488C96 536.6 135.3 576 184 576.1C232.6 576.1 272 536.7 272 488.1C272 439.5 232.7 400.1 184.1 400.1C135.4 400 96 439.4 96 488zM224 488C224 510.1 206.1 528 184 528C161.9 528 144 510.1 144 488C144 465.9 161.9 448 184 448C206.1 448 224 465.9 224 488zM368 488C368 536.6 407.3 576 456 576.1C504.6 576.1 544 536.7 544 488.1C544 439.5 504.7 400.1 456.1 400.1C407.4 400 368 439.4 368 488zM496 488C496 510.1 478.1 528 456 528C433.9 528 416 510.1 416 488C416 465.9 433.9 448 456 448C478.1 448 496 465.9 496 488zM448 160L448 192L512 192L512 160L448 160z"/><path fill="currentColor" d="M336 192L32 192L32 304L336 304L336 192zM384 192L384 352L32 352L32 512L99.3 512C97.1 504.4 96 496.3 96 488C96 439.4 135.4 400 184 400C232.6 400 272 439.4 272 488C272 496.3 270.8 504.4 268.7 512L371.3 512C369.1 504.4 368 496.3 368 488C368 439.4 407.4 400 456 400C504.6 400 544 439.4 544 488C544 496.3 542.8 504.4 540.7 512L608 512L608 192L384 192zM448 256L544 256L544 352L448 352L448 256z"/></svg>