<svg xmlns="http://www.w3.org/2000/svg" viewBox="0 0 640 640"><!--! Font Awesome Pro 7.2.0 by @fontawesome - https://fontawesome.com License - https://fontawesome.com/license (Commercial License) Copyright 2026 Fonticons, Inc. --><path opacity=".4" fill="currentColor" d="M96 488C96 536.6 135.3 576 184 576.1C232.6 576.1 272 536.7 272 488.1C272 439.5 232.7 400.1 184.1 400.1C135.4 400 96 439.4 96 488zM224 488C224 510.1 206.1 528 184 528C161.9 528 144 510.1 144 488C144 465.9 161.9 448 184 448C206.1 448 224 465.9 224 488zM368 488C368 536.6 407.3 576 456 576.1C504.6 576.1 544 536.7 544 488.1C544 439.5 504.7 400.1 456.1 400.1C407.4 400 368 439.4 368 488zM496 488C496 510.1 478.1 528 456 528C433.9 528 416 510.1 416 488C416 465.9 433.9 448 456 448C478.1 448 496 465.9 496 488z"/><path fill="currentColor" d="M32 96L448 96L448 192L525.3 192L534.7 201.4L598.7 265.4L608.1 274.8L608.1 512.1L540.8 512.1C543 504.5 544.1 496.4 544.1 488.1C544.1 439.5 504.7 400.1 456.1 400.1C407.5 400.1 368.1 439.5 368.1 488.1C368.1 496.4 369.3 504.5 371.4 512.1L268.8 512.1C271 504.5 272.1 496.4 272.1 488.1C272.1 439.5 232.7 400.1 184.1 400.1C135.5 400.1 96.1 439.5 96.1 488.1C96.1 496.4 97.3 504.5 99.4 512.1L32 512L32 96zM544 352L544 301.3L498.7 256L448 256L448 352L544 352z"/></svg>