<svg xmlns="http://www.w3.org/2000/svg" viewBox="0 0 640 640"><!--! Font Awesome Pro 7.2.0 by @fontawesome - https://fontawesome.com License - https://fontawesome.com/license (Commercial License) Copyright 2026 Fonticons, Inc. --><path opacity=".4" fill="currentColor" d="M162.9 302.5L174.5 349.1C178.9 348 216.7 338.6 288 320.7L288 271.2C207 291.5 165.3 301.9 162.9 302.5zM162.9 398.5L174.5 445.1C178.9 444 216.7 434.6 288 416.7L288 367.2C207 387.5 165.3 397.9 162.9 398.5zM352 255.3L352 304.8C433 284.6 474.7 274.1 477.1 273.5L465.5 226.9C461.1 228 423.3 237.4 352 255.3zM352 351.3L352 400.8C433 380.6 474.7 370.1 477.1 369.5L465.5 322.9C461.1 324 423.3 333.4 352 351.3z"/><path fill="currentColor" d="M128 96L512 96L512 160L352 160L352 544L288 544L288 160L128 160L128 96z"/></svg>