<svg xmlns="http://www.w3.org/2000/svg" viewBox="0 0 640 640"><!--! Font Awesome Pro 7.2.0 by @fontawesome - https://fontawesome.com License - https://fontawesome.com/license (Commercial License) Copyright 2026 Fonticons, Inc. --><path opacity=".4" fill="currentColor" d="M430.4 185C454.6 196.6 476.7 211.9 495.9 230.1L454.9 271.1L447.9 278.1L447.9 280.6L522.4 206.1C531.2 217.1 544.7 224.1 559.9 224.1C586.4 224.1 607.9 202.6 607.9 176.1C607.9 149.6 586.4 128.1 559.9 128.1C552.5 128.1 545.5 129.8 539.2 132.8C542.2 126.5 543.9 119.5 543.9 112.1C543.9 85.6 522.4 64.1 495.9 64.1C469.4 64.1 447.9 85.6 447.9 112.1C447.9 127.2 454.9 140.8 465.9 149.6L430.4 185z"/><path fill="currentColor" d="M320 160C178.6 160 64 274.6 64 416L64 480C64 533 107 576 160 576L480 576C533 576 576 533 576 480L576 416C576 360.1 558.1 308.4 527.7 266.3L496 297.9L496 336C496 424.4 424.4 496 336 496C247.6 496 176 424.4 176 336L224 336C224 397.9 274.1 448 336 448C397.9 448 448 397.9 448 336L448 278.1L455 271.1L496 230.1C450.1 186.6 388.2 160 320 160z"/></svg>