<svg xmlns="http://www.w3.org/2000/svg" viewBox="0 0 640 640"><!--! Font Awesome Pro 7.2.0 by @fontawesome - https://fontawesome.com License - https://fontawesome.com/license (Commercial License) Copyright 2026 Fonticons, Inc. --><path opacity=".4" fill="currentColor" d="M160 285.1C160 285.1 207.1 336 320 336C432.9 336 480 285.1 480 285.1C480 271 478.4 257.4 475.5 244.3C458.5 168.4 395.3 112.1 320 112.1C244.7 112.1 181.4 168.4 164.5 244.2C161.6 257.3 160 271 160 285z"/><path fill="currentColor" d="M320 336C432.9 336 480 285.1 480 285.1C480 271 478.4 257.4 475.5 244.3C555.2 267.1 608 306.8 608 352.1C608 422.8 479.1 480.1 320 480.1C160.9 480.1 32 422.7 32 352C32 306.8 84.8 267 164.5 244.2C161.6 257.3 160 271 160 285C160 285 207.1 335.9 320 335.9zM320 366.1L286.1 400L320 433.9L353.9 400L320 366.1zM185.9 368L152 334.1L118.1 368L152 401.9L185.9 368zM488 334.1L454.1 368L488 401.9L521.9 368L488 334.1z"/></svg>