<svg xmlns="http://www.w3.org/2000/svg" viewBox="0 0 640 640"><!--! Font Awesome Pro 7.2.0 by @fontawesome - https://fontawesome.com License - https://fontawesome.com/license (Commercial License) Copyright 2026 Fonticons, Inc. --><path opacity=".4" fill="currentColor" d="M179.6 511.1L197.4 537.7L197.9 538.5C213.5 561.9 239.8 576 267.9 576C314.4 576 352 538.3 352 491.9L352 320L288 320L288 491.9C288 503 279 512 267.9 512C261.2 512 254.9 508.6 251.2 503L250.7 502.2L232.9 475.6L179.6 511.1zM288 32L288 66C298.5 64.7 309.2 64 320 64C330.8 64 341.5 64.7 352 66L352 32L288 32z"/><path fill="currentColor" d="M320 64C178.6 64 64 178.6 64 320L576 320C576 178.6 461.4 64 320 64z"/></svg>