<svg xmlns="http://www.w3.org/2000/svg" viewBox="0 0 640 640"><!--! Font Awesome Pro 7.2.0 by @fontawesome - https://fontawesome.com License - https://fontawesome.com/license (Commercial License) Copyright 2026 Fonticons, Inc. --><path opacity=".4" fill="currentColor" d="M0 544L110.7 544L113.2 533.2L155 352L48 352L0 544zM24 224C24 263.8 56.2 296 96 296C135.8 296 168 263.8 168 224C168 184.2 135.8 152 96 152C56.2 152 24 184.2 24 224zM160 544L321.4 544C310.2 519.6 304 492.6 304 464C304 414.8 322.5 370 352.9 336L208 336L160 544zM216 184C216 241.4 262.6 288 320 288C377.4 288 424 241.4 424 184C424 126.6 377.4 80 320 80C262.6 80 216 126.6 216 184zM472 224C472 242.5 479 259.3 490.4 272.1C492.3 272 494.1 272 496 272C524.2 272 550.9 278.1 575.1 289C599.3 277.4 616 252.7 616 224C616 184.2 583.8 152 544 152C504.2 152 472 184.2 472 224z"/><path fill="currentColor" d="M352 464C352 384.5 416.5 320 496 320C575.5 320 640 384.5 640 464C640 543.5 575.5 608 496 608C416.5 608 352 543.5 352 464zM469.3 384L469.3 437.3L416 437.3L416 490.6L469.3 490.6L469.3 543.9L522.6 543.9L522.6 490.6L575.9 490.6L575.9 437.3L522.6 437.3L522.6 384L469.3 384z"/></svg>