<svg xmlns="http://www.w3.org/2000/svg" viewBox="0 0 640 640"><!--! Font Awesome Pro 7.2.0 by @fontawesome - https://fontawesome.com License - https://fontawesome.com/license (Commercial License) Copyright 2026 Fonticons, Inc. --><path opacity=".4" fill="currentColor" d="M140.3 528L152.6 480L191.9 480L191.9 481.6L195.3 470.4L189.4 463.3L164.5 433.4L177.2 383.9L185.7 383.9L225.7 431.9L239.8 431.9L239.8 383.9L287.8 383.9L287.8 431.9L351.8 431.9L351.8 383.9L399.8 383.9L399.8 431.9L413.9 431.9L453.9 383.9L462.4 383.9L475.1 433.4C455.3 457.1 445 469.5 444.3 470.4L447.7 481.6L447.7 480L487 480L499.3 528L461.9 528L476.7 576L162.6 576L177.4 528L140 528zM216 192C216 183.7 217 175.7 218.8 168L260.7 168C262.9 162.4 266 157.3 269.6 152.6L248.6 116.4C260.2 105.4 274.4 97.1 290.2 92.4L311.1 128.7C314 128.3 317 128.1 320 128.1C323 128.1 326 128.3 328.9 128.7L349.8 92.4C365.5 97.1 379.7 105.4 391.4 116.4L370.5 152.6C374.1 157.3 377.1 162.4 379.4 168L421.3 168C423.1 175.7 424.1 183.7 424.1 192C424.1 200.3 423.1 208.3 421.3 216L379.4 216C377.2 221.6 374.1 226.7 370.5 231.4L391.4 267.7C379.8 278.7 365.6 287 349.8 291.7L328.9 255.4C326 255.8 323 256 320 256C317 256 314 255.8 311.1 255.4L290.2 291.7C274.5 287 260.3 278.7 248.6 267.7L269.5 231.4C265.9 226.7 262.9 221.6 260.6 216L218.7 216C216.9 208.3 215.9 200.3 215.9 192z"/><path fill="currentColor" d="M320 320C305.3 320 291.1 317.5 277.9 312.9L311.1 255.4C314 255.8 317 256 320 256C323 256 326 255.8 328.9 255.4L362.1 312.9C348.9 317.5 334.7 320 320 320zM236.3 288.9C214.9 270.4 199.7 244.9 194.2 216L260.6 216C262.8 221.6 265.9 226.7 269.5 231.4L236.3 288.9zM379.3 168C377.1 162.4 374 157.3 370.4 152.6L403.6 95.1C425 113.6 440.2 139.1 445.7 168L379.3 168zM328.9 128.6C326 128.2 323 128 320 128C317 128 314 128.2 311.1 128.6L277.9 71.1C291.1 66.5 305.3 64 320 64C334.7 64 348.9 66.5 362.1 71.1L328.9 128.6zM194.2 168C199.7 139.1 214.9 113.6 236.3 95.1L269.5 152.6C265.9 157.3 262.9 162.4 260.6 168L194.2 168zM403.7 288.9L370.5 231.4C374.1 226.7 377.1 221.6 379.4 216L445.8 216C440.3 244.9 425.1 270.4 403.7 288.9zM240 368L240 432L225.9 432L172.6 368L240 368zM288 432L288 368L352 368L352 432L288 432zM400 368L467.4 368L414.1 432L400 432L400 368zM493.5 411.7L514.5 480L448 480L448 481.6L444.6 470.4L450.5 463.3L493.5 411.7zM529.2 528L544 576L477 576L462.2 528L529.2 528zM195.4 470.4L192 481.6L192 480L125.5 480L146.5 411.7L189.5 463.3L195.4 470.4zM177.7 528L162.9 576L95.9 576L110.7 528L177.7 528z"/></svg>