<svg xmlns="http://www.w3.org/2000/svg" viewBox="0 0 640 640"><!--! Font Awesome Pro 7.2.0 by @fontawesome - https://fontawesome.com License - https://fontawesome.com/license (Commercial License) Copyright 2026 Fonticons, Inc. --><path opacity=".4" fill="currentColor" d="M48 576L330.3 576C293.4 533.2 272 477.9 272 419.2L272 368L112 368L48 576zM136 192C136 258.3 189.7 312 256 312C322.3 312 376 258.3 376 192C376 125.7 322.3 72 256 72C189.7 72 136 125.7 136 192z"/><path fill="currentColor" d="M608 419.3C608 495.2 563.3 563.9 494 594.8L464 608.1L434 594.8C364.7 564 320 495.2 320 419.3L320 368.1L464 320.1L608 368.1L608 419.3zM474.5 550.9C526.5 527.8 560 476.2 560 419.3L560 402.7L464 370.7L464 555.6L474.5 550.9z"/></svg>