<svg xmlns="http://www.w3.org/2000/svg" viewBox="0 0 640 640"><!--! Font Awesome Pro 7.2.0 by @fontawesome - https://fontawesome.com License - https://fontawesome.com/license (Commercial License) Copyright 2026 Fonticons, Inc. --><path opacity=".4" fill="currentColor" d="M48 576L336 576L336 368L112 368L48 576zM136 192C136 258.3 189.7 312 256 312C322.3 312 376 258.3 376 192C376 125.7 322.3 72 256 72C189.7 72 136 125.7 136 192z"/><path fill="currentColor" d="M464 368L464 416L528 416L528 368C528 350.3 513.7 336 496 336C478.3 336 464 350.3 464 368zM416 416L416 368C416 323.8 451.8 288 496 288C540.2 288 576 323.8 576 368L576 416L608 416L608 608L384 608L384 416L416 416z"/></svg>