<svg xmlns="http://www.w3.org/2000/svg" viewBox="0 0 640 640"><!--! Font Awesome Pro 7.2.0 by @fontawesome - https://fontawesome.com License - https://fontawesome.com/license (Commercial License) Copyright 2026 Fonticons, Inc. --><path opacity=".4" fill="currentColor" d="M64.4 448L157.8 448L162.9 432.8L200.5 320L112.4 320L64.4 448zM104.4 224C104.4 254.9 129.5 280 160.4 280C191.3 280 216.4 254.9 216.4 224C216.4 193.1 191.3 168 160.4 168C129.5 168 104.4 193.1 104.4 224zM208.4 448L432.4 448L384.4 304L256.4 304L208.4 448zM256.4 208C256.4 243.3 285.1 272 320.4 272C355.7 272 384.4 243.3 384.4 208C384.4 172.7 355.7 144 320.4 144C285.1 144 256.4 172.7 256.4 208zM424.4 224C424.4 254.9 449.5 280 480.4 280C511.3 280 536.4 254.9 536.4 224C536.4 193.1 511.3 168 480.4 168C449.5 168 424.4 193.1 424.4 224zM440.3 320L477.9 432.8L483 448L576.4 448L528.4 320L440.3 320z"/><path fill="currentColor" d="M65.4 31L48.4 14L14.5 47.9C19.3 52.7 43.6 77 87.5 120.9L104.5 137.9L138.4 104C133.6 99.2 109.3 74.9 65.4 31zM575.5 31C531.7 74.8 507.3 99.2 502.5 104L536.4 137.9C541.2 133.1 565.5 108.8 609.4 64.9L626.4 47.9L592.5 14L575.5 31zM48.4 625.9C53.2 621.1 77.5 596.8 121.4 552.9L138.4 535.9L104.5 502C99.7 506.8 75.4 531.1 31.5 575L14.5 592L48.4 625.9zM575.4 608.9L592.4 625.9L626.3 592L553.3 519L536.3 502L502.4 535.9C507.2 540.7 531.5 565 575.4 608.9z"/></svg>