<svg xmlns="http://www.w3.org/2000/svg" viewBox="0 0 640 640"><!--! Font Awesome Pro 7.2.0 by @fontawesome - https://fontawesome.com License - https://fontawesome.com/license (Commercial License) Copyright 2026 Fonticons, Inc. --><path opacity=".4" fill="currentColor" d="M64 480L157.4 480L162.5 464.8L200.1 352L112 352L64 480zM104 256C104 286.9 129.1 312 160 312C190.9 312 216 286.9 216 256C216 225.1 190.9 200 160 200C129.1 200 104 225.1 104 256zM208 480L432 480L384 336L256 336L208 480zM256 240C256 275.3 284.7 304 320 304C355.3 304 384 275.3 384 240C384 204.7 355.3 176 320 176C284.7 176 256 204.7 256 240zM424 256C424 286.9 449.1 312 480 312C510.9 312 536 286.9 536 256C536 225.1 510.9 200 480 200C449.1 200 424 225.1 424 256zM439.9 352L477.5 464.8L482.6 480L576 480L528 352L439.9 352z"/><path fill="currentColor" d="M24 80L0 80L0 128L640 128L640 80L24 80zM24 528L0 528L0 576L640 576L640 528L24 528z"/></svg>