<svg xmlns="http://www.w3.org/2000/svg" viewBox="0 0 640 640"><!--! Font Awesome Pro 7.2.0 by @fontawesome - https://fontawesome.com License - https://fontawesome.com/license (Commercial License) Copyright 2026 Fonticons, Inc. --><path opacity=".4" fill="currentColor" d="M96 192L160 192L160 448L96 448L96 192zM192 96L448 96L448 160L192 160L192 96zM192 480L448 480L448 544L192 544L192 480zM390.7 256L448 176.7L448 192L515.9 192L513.9 194.7L448 286L448 256L390.7 256zM390.7 384L448 384L448 354L513.9 445.3L515.9 448L448 448L448 463.3L392.7 386.8L390.7 384.1z"/><path fill="currentColor" d="M448 64L576 64L576 192L448 192L448 64zM320 256L448 256L448 384L320 384L320 256zM64 448L192 448L192 576L64 576L64 448zM576 448L576 576L448 576L448 448L576 448zM192 64L192 192L64 192L64 64L192 64z"/></svg>