<svg xmlns="http://www.w3.org/2000/svg" viewBox="0 0 640 640"><!--! Font Awesome Pro 7.2.0 by @fontawesome - https://fontawesome.com License - https://fontawesome.com/license (Commercial License) Copyright 2026 Fonticons, Inc. --><path opacity=".4" fill="currentColor" d="M128 432C128 460.6 136.4 487.3 150.8 509.8C169.9 494.5 188.9 479.3 208 464C218.7 474.7 229.3 485.3 240 496C223.6 516.5 208.3 535.6 194.2 553.2C216.6 567.6 243.3 576 272 576C307.9 576 340.7 562.9 365.9 541.1C357.1 528.3 352 512.7 352 496C352 451.8 387.8 416 432 416C441.8 416 451.2 417.8 459.8 421C472.6 401.1 480 377.4 480 352C480 328.3 473.5 306 462.3 287C446.4 302.9 430.9 318.4 416 333.3C400.9 318.2 385.8 303.1 370.7 288C385.6 273.1 401 257.7 417 241.7C397.9 230.4 375.7 224 352 224C326.6 224 302.9 231.4 283 244.2C286.2 252.9 288 262.3 288 272C288 316.2 252.2 352 208 352C191.3 352 175.7 346.9 162.9 338.1C141.2 363.3 128 396.1 128 432zM448 136C448 149.3 458.7 160 472 160C485.3 160 496 149.3 496 136C496 122.7 485.3 112 472 112C458.7 112 448 122.7 448 136zM496 88C496 101.3 506.7 112 520 112C533.3 112 544 101.3 544 88C544 74.7 533.3 64 520 64C506.7 64 496 74.7 496 88zM544 232C544 245.3 554.7 256 568 256C581.3 256 592 245.3 592 232C592 218.7 581.3 208 568 208C554.7 208 544 218.7 544 232zM592 184C592 197.3 602.7 208 616 208C629.3 208 640 197.3 640 184C640 170.7 629.3 160 616 160C602.7 160 592 170.7 592 184z"/><path fill="currentColor" d="M350.7 99.2L333.7 116.2L52.1 397.8L35.1 414.8L1.2 380.9L18.2 363.9L299.8 82.3L316.8 65.3L350.7 99.2zM128 528L208 464L240 496L176 576L128 528zM614.6 134.6L438.6 310.6L416 333.2L370.7 287.9L393.3 265.3L569.3 89.3L591.9 66.7L637.2 112L614.6 134.6z"/></svg>