<svg xmlns="http://www.w3.org/2000/svg" viewBox="0 0 640 640"><!--! Font Awesome Pro 7.2.0 by @fontawesome - https://fontawesome.com License - https://fontawesome.com/license (Commercial License) Copyright 2026 Fonticons, Inc. --><path opacity=".4" fill="currentColor" d="M64 504L64 576L576 576L576 504L482.5 398.8L384 448L304 384L192 416L160.7 395.2L64 504z"/><path fill="currentColor" d="M224 208L272 208L304 256L336 256L368 208L416 208C451.3 208 480 179.3 480 144C480 108.7 451.3 80 416 80C400.3 80 386 85.6 374.8 95C363.6 76.4 343.2 64 320 64C296.8 64 276.4 76.4 265.2 95C254.1 85.6 239.7 80 224 80C188.7 80 160 108.7 160 144C160 179.3 188.7 208 224 208zM304 384L384 448L482.5 398.8L384 288L256 288L160.7 395.2L192 416L304 384z"/></svg>