<svg xmlns="http://www.w3.org/2000/svg" viewBox="0 0 640 640"><!--! Font Awesome Pro 7.2.0 by @fontawesome - https://fontawesome.com License - https://fontawesome.com/license (Commercial License) Copyright 2026 Fonticons, Inc. --><path opacity=".4" fill="currentColor" d="M128 128L512 128L512 512L128 512L128 128zM197.3 512L442.6 512L431.9 608L207.9 608L197.2 512zM208 282.7L208 288C208 352 320 416 320 416C320 416 432 352 432 288L432 282.7C432 250.3 405.7 224 373.3 224C354.8 224 337.4 232.7 326.4 247.5L320 256L313.6 247.5C302.5 232.7 285.1 224 266.7 224C234.3 224 208 250.3 208 282.7z"/><path fill="currentColor" d="M432 32L208 32L197.3 128L442.7 128L432 32zM208 608L432 608L442.7 512L197.4 512L208.1 608zM313.6 247.5C302.5 232.7 285.1 224 266.7 224C234.3 224 208 250.3 208 282.7L208 288C208 352 320 416 320 416C320 416 432 352 432 288L432 282.7C432 250.3 405.7 224 373.3 224C354.8 224 337.4 232.7 326.4 247.5L320 256L313.6 247.5z"/></svg>