<svg xmlns="http://www.w3.org/2000/svg" viewBox="0 0 640 640"><!--! Font Awesome Pro 7.2.0 by @fontawesome - https://fontawesome.com License - https://fontawesome.com/license (Commercial License) Copyright 2026 Fonticons, Inc. --><path opacity=".4" fill="currentColor" d="M128 128L512 128L512 512L128 512L128 128zM216 320C216 333.3 226.7 344 240 344C253.3 344 264 333.3 264 320C264 306.7 253.3 296 240 296C226.7 296 216 306.7 216 320zM248 240C248 253.3 258.7 264 272 264C285.3 264 296 253.3 296 240C296 226.7 285.3 216 272 216C258.7 216 248 226.7 248 240zM248 400C248 413.3 258.7 424 272 424C285.3 424 296 413.3 296 400C296 386.7 285.3 376 272 376C258.7 376 248 386.7 248 400zM288 320C288 337.7 302.3 352 320 352C337.7 352 352 337.7 352 320C352 302.3 337.7 288 320 288C302.3 288 288 302.3 288 320zM344 240C344 253.3 354.7 264 368 264C381.3 264 392 253.3 392 240C392 226.7 381.3 216 368 216C354.7 216 344 226.7 344 240zM344 400C344 413.3 354.7 424 368 424C381.3 424 392 413.3 392 400C392 386.7 381.3 376 368 376C354.7 376 344 386.7 344 400zM376 320C376 333.3 386.7 344 400 344C413.3 344 424 333.3 424 320C424 306.7 413.3 296 400 296C386.7 296 376 306.7 376 320z"/><path fill="currentColor" d="M432 32L208 32L197.3 128L442.7 128L432 32zM208 608L432 608L442.7 512L197.4 512L208.1 608zM320 352C337.7 352 352 337.7 352 320C352 302.3 337.7 288 320 288C302.3 288 288 302.3 288 320C288 337.7 302.3 352 320 352zM392 400C392 386.7 381.3 376 368 376C354.7 376 344 386.7 344 400C344 413.3 354.7 424 368 424C381.3 424 392 413.3 392 400zM272 424C285.3 424 296 413.3 296 400C296 386.7 285.3 376 272 376C258.7 376 248 386.7 248 400C248 413.3 258.7 424 272 424zM392 240C392 226.7 381.3 216 368 216C354.7 216 344 226.7 344 240C344 253.3 354.7 264 368 264C381.3 264 392 253.3 392 240zM272 264C285.3 264 296 253.3 296 240C296 226.7 285.3 216 272 216C258.7 216 248 226.7 248 240C248 253.3 258.7 264 272 264zM264 320C264 306.7 253.3 296 240 296C226.7 296 216 306.7 216 320C216 333.3 226.7 344 240 344C253.3 344 264 333.3 264 320zM400 344C413.3 344 424 333.3 424 320C424 306.7 413.3 296 400 296C386.7 296 376 306.7 376 320C376 333.3 386.7 344 400 344z"/></svg>