<svg xmlns="http://www.w3.org/2000/svg" viewBox="0 0 640 640"><!--! Font Awesome Pro 7.2.0 by @fontawesome - https://fontawesome.com License - https://fontawesome.com/license (Commercial License) Copyright 2026 Fonticons, Inc. --><path opacity=".4" fill="currentColor" d="M65 324.2L82.8 368.8C85.5 367.7 124.6 352.1 200.2 321.8L311.3 366.2L320.2 369.8L329.1 366.2L440.2 321.8C515.7 352 554.8 367.7 557.6 368.7L575.4 324.1C574.2 323.6 532.1 306.8 449.1 273.6L440.2 270L431.3 273.6L320.2 318L209.1 273.6L200.2 270L191.3 273.6C108.3 306.9 66.2 323.7 65 324.2z"/><path fill="currentColor" d="M209.1 129.7L200.2 126.1L191.3 129.7C108.3 162.9 66.2 179.7 65 180.2L82.8 224.8C85.5 223.7 124.7 208.1 200.2 177.8L311.3 222.2L320.2 225.8L329.1 222.2L440.2 177.8C515.7 208 554.8 223.7 557.6 224.7L575.4 180.1C574.2 179.6 532.1 162.8 449.1 129.6L440.2 126L431.3 129.6L320.2 174L209.1 129.6zM209.1 417.7L200.2 414.1L191.3 417.7C108.3 450.9 66.2 467.7 65 468.2L82.8 512.8C85.5 511.7 124.7 496.1 200.2 465.8L311.3 510.2L320.2 513.8L329.1 510.2L440.2 465.8C515.7 496 554.8 511.7 557.6 512.7L575.4 468.1C574.2 467.6 532.1 450.8 449.1 417.6L440.2 414L431.3 417.6L320.2 462L209.1 417.6z"/></svg>