<svg xmlns="http://www.w3.org/2000/svg" viewBox="0 0 640 640"><!--! Font Awesome Pro 7.2.0 by @fontawesome - https://fontawesome.com License - https://fontawesome.com/license (Commercial License) Copyright 2026 Fonticons, Inc. --><path opacity=".4" fill="currentColor" d="M224 160C224 171.2 225.9 182 229.5 192L310.5 192C297.8 187.6 288.5 175 288.1 161C288.1 160.7 288.1 160.3 288.1 160C288.1 142.3 302.4 128 320.1 128C337.8 128 352.1 142.3 352.1 160C352.1 160.3 352.1 160.6 352.1 160.8C351.7 174.8 342.4 187.6 329.7 192L410.7 192C414.2 182 416.2 171.2 416.2 160C416.2 107 373.2 64 320.2 64C267.2 64 224.2 107 224.2 160z"/><path fill="currentColor" d="M64 576L152 192L488 192L576 576L64 576z"/></svg>