<svg xmlns="http://www.w3.org/2000/svg" viewBox="0 0 640 640"><!--! Font Awesome Pro 7.2.0 by @fontawesome - https://fontawesome.com License - https://fontawesome.com/license (Commercial License) Copyright 2026 Fonticons, Inc. --><path opacity=".4" fill="currentColor" d="M47.5 559C38.1 568.4 38.1 583.6 47.5 592.9C56.9 602.2 72 602.3 81.4 592.9L166.1 508.2L132.2 474.3L47.5 559zM378.8 131.7L385.8 138.7L391.9 145.4C398.5 153.3 403.6 162 407.2 171.2L482.4 96L448.5 62.1L431.5 79.1L378.8 131.8zM411.1 229.3C422.8 226.5 434.8 225.9 446.6 227.4L561.2 113L578.1 96L544.2 62.1L413 193.3C414.7 205.2 414.1 217.5 411.2 229.3zM469.2 233.3C481.1 238 492.1 245.1 501.7 254.6L508.7 261.6L578.4 191.9L544.5 158L527.5 175L469.3 233.3z"/><path fill="currentColor" d="M177.8 346.7L183.9 353.4C203.6 377.2 210.2 408.4 203.1 437.3C234.8 429.6 269.3 438.3 293.7 462.6L351.1 520L332.4 538.7C294.9 576.2 234.1 576.2 196.6 538.7L101.7 443.9C64.2 406.4 64.2 345.6 101.7 308.1L120.5 289.3L177.9 346.7zM281.8 242.7L287.9 249.4C307.6 273.2 314.2 304.4 307.1 333.3C338.8 325.6 373.3 334.3 397.7 358.6L455.1 416L436.4 434.7C398.9 472.2 338.1 472.2 300.6 434.7L205.7 339.8C168.2 302.3 168.2 241.5 205.7 204L224.5 185.2L281.9 242.6zM385.8 138.7L391.9 145.4C411.6 169.2 418.2 200.4 411.2 229.3C442.9 221.6 477.4 230.3 501.8 254.6L559.2 312L540.5 330.7C503 368.2 442.2 368.2 404.7 330.7L309.8 235.8C272.3 198.3 272.3 137.5 309.8 100.1L328.6 81.3L386 138.7z"/></svg>