<svg xmlns="http://www.w3.org/2000/svg" viewBox="0 0 640 640"><!--! Font Awesome Pro 7.2.0 by @fontawesome - https://fontawesome.com License - https://fontawesome.com/license (Commercial License) Copyright 2026 Fonticons, Inc. --><path fill="currentColor" d="M288 80C257.1 80 232 105.1 232 136C232 166.9 257.1 192 288 192C318.9 192 344 166.9 344 136C344 105.1 318.9 80 288 80zM216 136C216 96.2 248.2 64 288 64C327.8 64 360 96.2 360 136C360 173.1 332 203.6 296 207.6L296 544L321.4 544C323.9 549.5 326.7 554.8 329.7 560L104 560L104 552L104 321.6L53.3 366L47.3 371.3L36.8 359.3L42.8 354L106.8 298L112.1 293.4L117.4 298L181.4 354L187.4 359.3L176.9 371.3L170.9 366L120.2 321.6L120.2 544L280.2 544L280.2 207.6C244.2 203.6 216.2 173.1 216.2 136zM624 464C624 393.3 566.7 336 496 336C425.3 336 368 393.3 368 464C368 534.7 425.3 592 496 592C566.7 592 624 534.7 624 464zM352 464C352 384.5 416.5 320 496 320C575.5 320 640 384.5 640 464C640 543.5 575.5 608 496 608C416.5 608 352 543.5 352 464zM549.7 421.7L507.4 464L555.4 512L544.1 523.3L538.4 517.6L496.1 475.3L448.1 523.3L436.8 512L442.5 506.3L484.8 464L442.5 421.7L436.8 416L448.1 404.7L496.1 452.7L538.4 410.4L544.1 404.7L555.4 416L549.7 421.7z"/></svg>