<svg xmlns="http://www.w3.org/2000/svg" viewBox="0 0 640 640"><!--! Font Awesome Pro 7.2.0 by @fontawesome - https://fontawesome.com License - https://fontawesome.com/license (Commercial License) Copyright 2026 Fonticons, Inc. --><path fill="currentColor" d="M72 96L64 96L64 112L96 112L96 528L64 528L64 544L240 544L240 416C240 371.8 275.8 336 320 336C364.2 336 400 371.8 400 416L400 544L576 544L576 528L544 528L544 112L576 112L576 96L72 96zM528 112L528 192L112 192L112 112L528 112zM528 208L528 528L416 528L416 416C416 363 373 320 320 320C267 320 224 363 224 416L224 528L112 528L112 208L528 208z"/></svg>