<svg xmlns="http://www.w3.org/2000/svg" viewBox="0 0 640 640"><!--! Font Awesome Pro 7.2.0 by @fontawesome - https://fontawesome.com License - https://fontawesome.com/license (Commercial License) Copyright 2026 Fonticons, Inc. --><path fill="currentColor" d="M480.5 64C505.1 64 529.6 73.4 548.4 92.1C585.9 129.6 585.9 190.4 548.4 227.8L517 259.2L505.7 247.9L537.1 216.5C568.3 185.3 568.3 134.6 537.1 103.4C521.5 87.8 501 80 480.5 80C438.3 80 402.4 110.6 395.7 152.2L328.4 569.2L327.3 575.9L313.7 575.9L312.6 569.2L245.4 152.2C238.6 110.6 202.7 80 160.5 80C140 80 119.6 87.8 103.9 103.4C72.7 134.7 72.7 185.3 103.9 216.6L135.3 248L124 259.3L92.6 227.9C55.1 190.4 55.1 129.6 92.6 92.1C111.4 73.4 136 64 160.5 64C210.5 64 253.2 100.3 261.1 149.7L320.5 517.7L379.9 149.7C387.8 100.3 430.5 64 480.5 64z"/></svg>