<svg xmlns="http://www.w3.org/2000/svg" viewBox="0 0 640 640"><!--! Font Awesome Pro 7.2.0 by @fontawesome - https://fontawesome.com License - https://fontawesome.com/license (Commercial License) Copyright 2026 Fonticons, Inc. --><path fill="currentColor" d="M197.7 541.7L192 547.4L186.3 541.7L82.3 437.7L76.6 432L87.9 420.7L93.6 426.4L183.9 516.7L183.9 96L199.9 96L199.9 516.7L290.2 426.4L295.9 420.7L307.2 432L301.5 437.7L197.5 541.7zM368 256L352 256L352 96L512 96L512 256L368 256zM496 240L496 112L368 112L368 240L496 240zM368 544L352 544L352 320L576 320L576 544L368 544zM368 528L560 528L560 336L368 336L368 528z"/></svg>