<svg xmlns="http://www.w3.org/2000/svg" viewBox="0 0 640 640"><!--! Font Awesome Pro 7.2.0 by @fontawesome - https://fontawesome.com License - https://fontawesome.com/license (Commercial License) Copyright 2026 Fonticons, Inc. --><path fill="currentColor" d="M560 568L560 576L576 576L576 416L416 416L416 432L548.7 432L491.9 488.8C446.3 534.4 384.5 560 320 560C258.6 560 197.2 536.6 150.3 489.7C103.4 442.8 80 381.4 80 320L64 320C64 385.5 89 451 139 501C189 551 254.5 576 320 576C388.7 576 454.6 548.7 503.2 500.1L560 443.3L560 568zM80 72L80 64L64 64L64 224L224 224L224 208L91.3 208L148.1 151.2C193.7 105.6 255.5 80 320 80L320 80C381.4 80 442.8 103.4 489.7 150.3C536.6 197.2 560 258.6 560 320L576 320C576 254.5 551 189 501 139C451 89 385.5 64 320 64C251.3 64 185.4 91.3 136.8 139.9L80 196.7L80 72z"/></svg>