<svg xmlns="http://www.w3.org/2000/svg" viewBox="0 0 640 640"><!--! Font Awesome Pro 7.2.0 by @fontawesome - https://fontawesome.com License - https://fontawesome.com/license (Commercial License) Copyright 2026 Fonticons, Inc. --><path fill="currentColor" d="M600.2 49.9L568.2 177.9L564.8 191.6L512.4 139.2L193.3 458.4L208.2 518L209.3 522.4L206.1 525.6L132.1 599.6L128.7 585.9L113.9 526.5L54.6 511.7L40.9 508.3L114.9 434.3L118.1 431.1L122.5 432.2L182.1 447.1L501.2 127.9L448.9 75.6L462.6 72.2L590.6 40.2L603.5 37L600.2 49.9zM72.1 499.7L122.4 512.3L127.1 513.5L128.3 518.2L140.9 568.5L191.7 517.7L178 462.7L123 449L72.2 499.8zM480.1 84.4L556.1 160.4L581.4 59L480 84.3z"/></svg>