<svg xmlns="http://www.w3.org/2000/svg" viewBox="0 0 640 640"><!--! Font Awesome Pro 7.2.0 by @fontawesome - https://fontawesome.com License - https://fontawesome.com/license (Commercial License) Copyright 2026 Fonticons, Inc. --><path fill="currentColor" d="M198 98.3L192.3 92.6L186.6 98.3L66.6 218.3L60.9 224L72.2 235.3L77.9 229.6L184.2 123.3L184.2 544L200.2 544L200.2 123.3L306.5 229.6L312.2 235.3L323.5 224L317.8 218.3L197.8 98.3zM408.3 96L408.3 112L456.3 112L456.3 256L408.3 256L408.3 272L520.3 272L520.3 256L472.3 256L472.3 96L408.3 96zM408.3 408C408.3 377.1 433.4 352 464.3 352C495.2 352 520.3 377.1 520.3 408C520.3 438.9 495.2 464 464.3 464C433.4 464 408.3 438.9 408.3 408zM491.1 474.9L446.4 544L465.4 544L521.9 456.5C531.2 442 536.2 425.2 536.2 408L536.2 408C536.2 368.2 504 336 464.2 336C424.4 336 392.2 368.2 392.2 408C392.2 447.8 424.4 480 464.2 480C473.7 480 482.7 478.2 491 474.9z"/></svg>