<svg xmlns="http://www.w3.org/2000/svg" viewBox="0 0 640 640"><!--! Font Awesome Pro 7.2.0 by @fontawesome - https://fontawesome.com License - https://fontawesome.com/license (Commercial License) Copyright 2026 Fonticons, Inc. --><path fill="currentColor" d="M48 168L48 480L32 480L32 160L48 160L48 168zM608 168L608 480L592 480L592 160L608 160L608 168zM531.3 320L432 419.3L420.7 408L426.4 402.3L500.7 328L139.3 328L213.6 402.3L219.3 408L208 419.3L202.3 413.6L114.3 325.6L108.6 319.9L114.3 314.2L202.3 226.2L208 220.5L219.3 231.8L213.6 237.5L139.3 311.8L500.7 311.8L426.4 237.5L420.7 231.8L432 220.5L437.7 226.2L525.7 314.2L531.4 319.9z"/></svg>