<svg xmlns="http://www.w3.org/2000/svg" viewBox="0 0 640 640"><!--! Font Awesome Pro 7.2.0 by @fontawesome - https://fontawesome.com License - https://fontawesome.com/license (Commercial License) Copyright 2026 Fonticons, Inc. --><path fill="currentColor" d="M104.3 64L96.3 64L96.3 80L544.3 80L544.3 64L104.3 64zM198 162.3L192.3 156.6L186.6 162.3L98.6 250.3L92.9 256L104.2 267.3L109.9 261.6L184.2 187.3L184.2 576L200.2 576L200.2 187.3L274.5 261.6L280.2 267.3L291.5 256L285.8 250.3L197.8 162.3zM454 162.3L448.3 156.6L442.6 162.3L354.6 250.3L348.9 256L360.2 267.3L365.9 261.6L440.2 187.3L440.2 576L456.2 576L456.2 187.3L530.5 261.6L536.2 267.3L547.5 256L541.8 250.3L453.8 162.3z"/></svg>