<svg xmlns="http://www.w3.org/2000/svg" viewBox="0 0 640 640"><!--! Font Awesome Pro 7.2.0 by @fontawesome - https://fontawesome.com License - https://fontawesome.com/license (Commercial License) Copyright 2026 Fonticons, Inc. --><path fill="currentColor" d="M80.3 320C80.3 187.5 187.8 80 320.3 80L328.3 80L328.3 64L320.3 64C178.9 64 64.3 178.6 64.3 320C64.3 461.4 178.9 576 320.3 576L328.3 576L328.3 560L320.3 560C187.8 560 80.3 452.5 80.3 320zM454 194.3L448.3 188.6L437 199.9L442.7 205.6L549 311.9L224.3 311.9L224.3 327.9L549 327.9L437 439.9L448.3 451.2L579.6 319.9L573.9 314.2L453.9 194.2z"/></svg>