<svg xmlns="http://www.w3.org/2000/svg" viewBox="0 0 640 640"><!--! Font Awesome Pro 7.2.0 by @fontawesome - https://fontawesome.com License - https://fontawesome.com/license (Commercial License) Copyright 2026 Fonticons, Inc. --><path fill="currentColor" d="M152.3 96L144.3 96L144.3 112L261 112L82.7 290.3L77 296L88.3 307.3L94 301.6L272.3 123.3L272.3 240L288.3 240L288.3 96L152.3 96zM528.3 134.1C528.3 146.3 518.4 156.2 506.2 156.2C494 156.2 484.1 146.3 484.1 134.1C484.1 121.9 494 112 506.2 112C518.4 112 528.3 121.9 528.3 134.1zM506.2 96C485.2 96 468.1 113.1 468.1 134.1C468.1 155.1 485.2 172.2 506.2 172.2C527.2 172.2 544.3 155.1 544.3 134.1C544.3 113.1 527.2 96 506.2 96zM404.2 258.2C404.2 270.4 394.3 280.3 382.1 280.3C369.9 280.3 360 270.4 360 258.2C360 246 369.9 236.1 382.1 236.1C394.3 236.1 404.2 246 404.2 258.2zM382.1 220.1C361.1 220.1 344 237.2 344 258.2C344 279.2 361.1 296.3 382.1 296.3C403.1 296.3 420.2 279.2 420.2 258.2C420.2 237.2 403.1 220.1 382.1 220.1zM506.3 236.1C518.5 236.1 528.4 246 528.4 258.2C528.4 270.4 518.5 280.3 506.3 280.3C494.1 280.3 484.2 270.4 484.2 258.2C484.2 246 494.1 236.1 506.3 236.1zM468.2 258.2C468.2 279.2 485.3 296.3 506.3 296.3C527.3 296.3 544.4 279.2 544.4 258.2C544.4 237.2 527.3 220.1 506.3 220.1C485.3 220.1 468.2 237.2 468.2 258.2zM280.6 381.8C280.6 394 270.7 403.9 258.5 403.9C246.3 403.9 236.4 394 236.4 381.8C236.4 369.6 246.3 359.7 258.5 359.7C270.7 359.7 280.6 369.6 280.6 381.8zM258.5 343.7C237.5 343.7 220.4 360.8 220.4 381.8C220.4 402.8 237.5 419.9 258.5 419.9C279.5 419.9 296.6 402.8 296.6 381.8C296.6 360.8 279.5 343.7 258.5 343.7zM382 359.7C394.2 359.7 404.1 369.6 404.1 381.8C404.1 394 394.2 403.9 382 403.9C369.8 403.9 359.9 394 359.9 381.8C359.9 369.6 369.8 359.7 382 359.7zM344 381.8C344 402.8 361.1 419.9 382.1 419.9C403.1 419.9 420.2 402.8 420.2 381.8C420.2 360.8 403.1 343.7 382.1 343.7C361.1 343.7 344 360.8 344 381.8zM528.3 381.8C528.3 394 518.4 403.9 506.2 403.9C494 403.9 484.1 394 484.1 381.8C484.1 369.6 494 359.7 506.2 359.7C518.4 359.7 528.3 369.6 528.3 381.8zM506.2 343.7C485.2 343.7 468.1 360.8 468.1 381.8C468.1 402.8 485.2 419.9 506.2 419.9C527.2 419.9 544.3 402.8 544.3 381.8C544.3 360.8 527.2 343.7 506.2 343.7zM134.4 483.8C146.6 483.8 156.5 493.7 156.5 505.9C156.5 518.1 146.6 528 134.4 528C122.2 528 112.3 518.1 112.3 505.9C112.3 493.7 122.2 483.8 134.4 483.8zM96.3 505.9C96.3 526.9 113.4 544 134.4 544C155.4 544 172.5 526.9 172.5 505.9C172.5 484.9 155.4 467.8 134.4 467.8C113.4 467.8 96.3 484.9 96.3 505.9zM280.6 505.9C280.6 518.1 270.7 528 258.5 528C246.3 528 236.4 518.1 236.4 505.9C236.4 493.7 246.3 483.8 258.5 483.8C270.7 483.8 280.6 493.7 280.6 505.9zM258.5 467.8C237.5 467.8 220.4 484.9 220.4 505.9C220.4 526.9 237.5 544 258.5 544C279.5 544 296.6 526.9 296.6 505.9C296.6 484.9 279.5 467.8 258.5 467.8zM382 483.8C394.2 483.8 404.1 493.7 404.1 505.9C404.1 518.1 394.2 528 382 528C369.8 528 359.9 518.1 359.9 505.9C359.9 493.7 369.8 483.8 382 483.8zM344 505.9C344 526.9 361.1 544 382.1 544C403.1 544 420.2 526.9 420.2 505.9C420.2 484.9 403.1 467.8 382.1 467.8C361.1 467.8 344 484.9 344 505.9zM528.3 505.9C528.3 518.1 518.4 528 506.2 528C494 528 484.1 518.1 484.1 505.9C484.1 493.7 494 483.8 506.2 483.8C518.4 483.8 528.3 493.7 528.3 505.9zM506.2 467.8C485.2 467.8 468.1 484.9 468.1 505.9C468.1 526.9 485.2 544 506.2 544C527.2 544 544.3 526.9 544.3 505.9C544.3 484.9 527.2 467.8 506.2 467.8z"/></svg>