<svg xmlns="http://www.w3.org/2000/svg" viewBox="0 0 640 640"><!--! Font Awesome Pro 7.2.0 by @fontawesome - https://fontawesome.com License - https://fontawesome.com/license (Commercial License) Copyright 2026 Fonticons, Inc. --><path fill="currentColor" d="M198 98.3L192.3 92.6L186.6 98.3L82.6 202.3L76.9 208L88.2 219.3L93.9 213.6L184.2 123.3L184.2 544L200.2 544L200.2 123.3L290.5 213.6L296.2 219.3L307.5 208L301.8 202.3L197.8 98.3zM376.3 96L368.3 96L368.3 112L496.6 112L377.8 275.3L368.6 288L528.3 288L528.3 272L400 272L518.8 108.7L528 96L376.3 96zM443.2 352L441 356.6L354.1 544L371.7 544L394 496L502.5 496L524.8 544L542.4 544L455.5 356.6L453.3 352L443.1 352zM495.1 480L401.5 480L448.3 379L495.1 480z"/></svg>