<svg xmlns="http://www.w3.org/2000/svg" viewBox="0 0 640 640"><!--! Font Awesome Pro 7.2.0 by @fontawesome - https://fontawesome.com License - https://fontawesome.com/license (Commercial License) Copyright 2026 Fonticons, Inc. --><path fill="currentColor" d="M80 196.7L136.8 139.9C185.4 91.3 251.3 64 320 64C461.4 64 576 178.6 576 320C576 385.5 551 451 501 501C401 601 238.9 601 138.9 501C114.9 477 96.6 449.3 84.1 419.8L98.9 413.6C110.6 441.2 127.7 467.2 150.2 489.7C243.9 583.4 395.9 583.4 489.6 489.7C536.5 442.8 559.9 381.4 559.9 320C559.9 187.5 452.4 80 319.9 80C255.4 80 193.6 105.6 148 151.2L64 235.3L64 64L80 64L80 196.7zM244 224C272.7 224 296 247.3 296 276C296 294.6 286.2 310.8 271.6 320C286.2 329.2 296 345.4 296 364C296 392.7 272.7 416 244 416L184 416L184 400L244 400C263.9 400 280 383.9 280 364C280 344.1 263.9 328 244 328L192 328L192 312L244 312C263.9 312 280 295.9 280 276C280 256.1 263.9 240 244 240L184 240L184 224L244 224zM400 224C430.9 224 456 249.1 456 280L456 360C456 390.9 430.9 416 400 416L384 416C353.1 416 328 390.9 328 360L328 280C328 249.1 353.1 224 384 224L400 224zM384 240C361.9 240 344 257.9 344 280L344 360C344 382.1 361.9 400 384 400L400 400C422.1 400 440 382.1 440 360L440 280C440 257.9 422.1 240 400 240L384 240z"/></svg>