<svg xmlns="http://www.w3.org/2000/svg" viewBox="0 0 640 640"><!--! Font Awesome Pro 7.2.0 by @fontawesome - https://fontawesome.com License - https://fontawesome.com/license (Commercial License) Copyright 2026 Fonticons, Inc. --><path fill="currentColor" d="M240 128L240 192L400 192L400 128C400 83.8 364.2 48 320 48C275.8 48 240 83.8 240 128zM416 208L112 208L112 528L528 528L528 208L416 208zM224 192L224 128C224 75 267 32 320 32C373 32 416 75 416 128L416 192L544 192L544 544L96 544L96 192L224 192zM312 448L312 376L240 376L240 360L312 360L312 288L328 288L328 360L400 360L400 376L328 376L328 448L312 448z"/></svg>