<svg xmlns="http://www.w3.org/2000/svg" viewBox="0 0 640 640"><!--! Font Awesome Pro 7.2.0 by @fontawesome - https://fontawesome.com License - https://fontawesome.com/license (Commercial License) Copyright 2026 Fonticons, Inc. --><path fill="currentColor" d="M383.6 94.9L339.2 125.3C347.5 151.4 352 179.2 352 208C352 248.6 343.1 287 327.2 321.6L314.9 309.9C328.5 278.7 336 244.2 336 208C336 176.6 330.4 146.7 320.1 119L385.2 74.4C443.4 127.1 480 203.3 480 288C480 305.8 478.4 323.3 475.3 340.2L457.9 345.7C461.9 327.1 464 307.8 464 288C464 212.5 433.2 144.2 383.6 94.9zM290.8 353.3L274.2 337.4L179 375.5L171.6 378.5L165.7 363.6L173.1 360.6L273.1 320.6L277.9 318.7L281.6 322.3L370.2 407L517.7 360.4L523.1 358.7L526.5 363.2L598.5 459.2L603.3 465.6L590.5 475.2L585.7 468.8L517.1 377.3L459.3 395.5C416.6 501.3 313 576 192 576L48 576L32 576L32 464L80 464C167.4 464 244.6 420.2 290.8 353.3zM439 402L370.4 423.7L365.9 425.1L362.5 421.8L302.6 364.5C253.3 434.3 172 480 80 480L48 480L48 560L192 560C301.5 560 395.9 495.3 439.1 401.9z"/></svg>