<svg xmlns="http://www.w3.org/2000/svg" viewBox="0 0 640 640"><!--! Font Awesome Pro 7.2.0 by @fontawesome - https://fontawesome.com License - https://fontawesome.com/license (Commercial License) Copyright 2026 Fonticons, Inc. --><path fill="currentColor" d="M515.9 66.2L520.8 71.1L568.8 119.1L573.7 124L569.5 129.6L518.3 196.8L516.5 199.2L513.5 199.8L435.9 215.3L358.6 292.6C382.6 319.1 397.9 353.8 399.8 391.9L416 391.9L416 407.9L399.8 407.9C397.9 446.1 382.7 480.7 358.6 507.2C362.5 511.1 366.3 514.9 370.1 518.7L358.8 530C355.1 526.3 351.2 522.4 347.3 518.5C320.8 542.5 286.1 557.8 248 559.7L248 575.9L232 575.9L232 559.7C193.8 557.8 159.2 542.6 132.7 518.5C128.8 522.4 125 526.2 121.2 530L109.9 518.8C113.6 515.1 117.5 511.2 121.4 507.3C97.4 480.8 82.1 446.1 80.2 408L64 408L64 392L80.2 392C82.1 353.8 97.3 319.2 121.4 292.7C117.5 288.8 113.7 285 109.9 281.2L121.2 269.9L132.7 281.4C159.2 257.4 193.9 242.1 232 240.2L232 224L248 224L248 240.2C286.2 242.1 320.8 257.3 347.3 281.4L424.6 204.1L440.1 126.5L440.7 123.5L443.1 121.7L510.3 70.5L515.9 66.3zM138.2 298.1L138.1 298.2C112.1 324.3 96 360.2 96 400C96 479.5 160.5 544 240 544C319.5 544 384 479.5 384 400C384 320.5 319.5 256 240 256C200.3 256 164.3 272.1 138.2 298.1zM442.2 197.8L507.5 184.7L552.6 125.5L514.5 87.4L455.3 132.5L442.2 197.8zM181.7 394.3L245.7 458.3L251.4 464L240.1 475.3L234.4 469.6L170.4 405.6L164.7 399.9L176 388.6L181.7 394.3z"/></svg>