<svg xmlns="http://www.w3.org/2000/svg" viewBox="0 0 640 640"><!--! Font Awesome Pro 7.2.0 by @fontawesome - https://fontawesome.com License - https://fontawesome.com/license (Commercial License) Copyright 2026 Fonticons, Inc. --><path fill="currentColor" d="M64 63.8L64 216C64 220.5 67.7 224.2 72.2 224.2C76.7 224.2 80.4 220.5 80.4 216L80.4 80.2L216.2 80.2C220.7 80.2 224.4 76.5 224.4 72C224.4 67.5 220.7 63.8 216.2 63.8L64 63.8zM176.2 192L160.2 192L160.2 448L176.2 448L176.2 192zM208.2 192L208.2 448L224.2 448L224.2 192L208.2 192zM272.2 192L272.2 448L288.2 448L288.2 192L272.2 192zM368.2 192L352.2 192L352.2 448L368.2 448L368.2 192zM400.2 192L400.2 448L416.2 448L416.2 192L400.2 192zM480.2 192L464.2 192L464.2 448L480.2 448L480.2 192zM568.2 63.8L424.2 63.8C419.7 63.8 416 67.5 416 72C416 76.5 419.7 80.2 424.2 80.2L560 80.2L560 216C560 220.5 563.7 224.2 568.2 224.2C572.7 224.2 576.4 220.5 576.4 216L576.4 63.8L568.2 63.8zM64 576.2L216.2 576.2C220.7 576.2 224.4 572.5 224.4 568C224.4 563.5 220.7 559.8 216.2 559.8L80.4 559.8L80.4 424C80.4 419.5 76.7 415.8 72.2 415.8C67.7 415.8 64 419.5 64 424L64 576.2zM568.2 576L576.2 576L576.2 424C576.2 419.6 572.6 416 568.2 416C563.8 416 560.2 419.6 560.2 424L560.2 560L424.2 560C419.8 560 416.2 563.6 416.2 568C416.2 572.4 419.8 576 424.2 576L568.2 576z"/></svg>