<svg xmlns="http://www.w3.org/2000/svg" viewBox="0 0 640 640"><!--! Font Awesome Pro 7.2.0 by @fontawesome - https://fontawesome.com License - https://fontawesome.com/license (Commercial License) Copyright 2026 Fonticons, Inc. --><path fill="currentColor" d="M323.3 64.6L320.3 63.4L317.3 64.6L117.3 144.6L113.3 146.2L112.4 150.4L72.4 342.4L70.4 352L112.2 352L112.2 576L528.2 576L528.2 352L570 352L568 342.4L528 150.4L527.1 146.2L523.1 144.6L323.1 64.6zM424.3 560L424.3 368L216.3 368L216.3 560L128.3 560L128.3 336L90.1 336L127.2 157.8L320.2 80.6L513.2 157.8L550.3 336L512.1 336L512.1 560L424.1 560zM232.3 560L232.3 395.3L397 560L232.3 560zM272.3 184L264.3 184L264.3 296L376.3 296L376.3 184L272.3 184zM280.3 280L280.3 200L360.3 200L360.3 280L280.3 280zM408.3 548.7L243.6 384L408.3 384L408.3 548.7z"/></svg>