<svg xmlns="http://www.w3.org/2000/svg" viewBox="0 0 640 640"><!--! Font Awesome Pro 7.2.0 by @fontawesome - https://fontawesome.com License - https://fontawesome.com/license (Commercial License) Copyright 2026 Fonticons, Inc. --><path fill="currentColor" d="M391.9 118.9L406.2 226.2L491.5 169.3L497.2 165.5L501.9 170.5L520.4 190.4C576.7 251.1 608 330.9 608 413.6L608 460.4L596.7 455.2L514.5 417.9L470.4 476.8L464.9 484.2L401 420.3L326.5 524.6L320 533.7L313.5 524.6L239 420.3L181.7 477.6L175.2 484.1L125.5 417.9L43.4 455.2L32.1 460.4L32.1 413.6C32.1 330.8 63.4 251.1 119.8 190.4L138.3 170.5L143 165.5L148.7 169.3L234 226.2L248.3 118.9L249.8 107.8L320.2 143L390.6 107.8L392.1 118.9zM323.6 159.1L320 160.9L262.4 132.1L247.9 241L246.2 253.7L235.5 246.6L145.2 186.4L131.4 201.3C77.8 259.1 48 334.9 48 413.6L48 435.5L124.7 400.7L130.5 398L134.4 403.1L176.9 459.7L241.1 395.5L246.6 403.2L320.1 506.1L393.6 403.2L399.1 395.5L463.3 459.7L505.8 403.1L509.7 398L515.5 400.7L592.2 435.5L592.2 413.6C592.2 334.9 562.4 259 508.8 201.3L494.9 186.4L404.6 246.6L393.9 253.7L392.2 241L377.7 132.1L323.7 159.1z"/></svg>