<svg xmlns="http://www.w3.org/2000/svg" viewBox="0 0 640 640"><!--! Font Awesome Pro 7.2.0 by @fontawesome - https://fontawesome.com License - https://fontawesome.com/license (Commercial License) Copyright 2026 Fonticons, Inc. --><path fill="currentColor" d="M419.3 72L381.9 109.4C393.2 123.2 400 140.8 400 160L400 192C483.2 216.2 544 293 544 384L544 448L512 448C490.3 448 469.5 444.5 450 438.2C414 509.4 320.7 575.6 320 576C319.3 575.5 226 509.4 190 438.2C170.5 444.6 149.6 448 128 448L96 448L96 384C96 293 156.8 216.2 240 192L240 160C240 140.8 246.8 123.2 258.1 109.4L220.7 72L232 60.7L269.4 98.1C283.2 86.8 300.8 80 320 80C339.2 80 356.8 86.8 370.6 98.1L408 60.7L419.3 72zM259.4 502.9C276.9 520.5 294.4 535.6 307.6 546.2C312.4 550.1 316.6 553.3 320 555.9C323.4 553.3 327.6 550.1 332.4 546.2C345.6 535.5 363.1 520.5 380.6 502.9C382.8 500.6 385 498.3 387.2 496L252.8 496C255 498.3 257.2 500.7 259.4 502.9zM206.5 432C206.1 432.2 205.6 432.3 205.2 432.5C207.3 436.6 209.6 440.7 212.2 444.8C219.6 456.8 228.7 468.6 238.4 480L401.7 480C411.4 468.7 420.5 456.9 427.9 444.8C430.5 440.7 432.7 436.5 434.8 432.5C434.4 432.3 433.9 432.2 433.5 432L206.4 432zM296 200C194.4 200 112 282.4 112 384L112 432L128 432C229.6 432 312 349.6 312 248L312 200L296 200zM328 248C328 349.6 410.4 432 512 432L528 432L528 384C528 282.4 445.6 200 344 200L328 200L328 248zM320 304C306.4 350.7 276.3 390.2 236.5 416L403.6 416C363.7 390.2 333.6 350.6 320.1 304zM320 96C284.7 96 256 124.7 256 160L256 188C268.9 185.4 282.3 184 296 184L344 184C357.7 184 371.1 185.4 384 188L384 160C384 124.7 355.3 96 320 96z"/></svg>