<svg xmlns="http://www.w3.org/2000/svg" viewBox="0 0 640 640"><!--! Font Awesome Pro 7.2.0 by @fontawesome - https://fontawesome.com License - https://fontawesome.com/license (Commercial License) Copyright 2026 Fonticons, Inc. --><path fill="currentColor" d="M144 112L144 160L240 160L240 112L144 112zM128 160L128 96L256 96L256 160C291.3 160 320 188.7 320 224C320 188.7 348.7 160 384 160L384 96L512 96L512 160C547.3 160 576 188.7 576 224L576 256L608 256L608 272L574.4 272L544 576L96 576L65.6 272L32 272L32 256L64 256L64 224C64 188.7 92.7 160 128 160zM560 224C560 197.5 538.5 176 512 176L384 176C357.5 176 336 197.5 336 224L336 256L560 256L560 224zM304 224C304 197.5 282.5 176 256 176L128 176C101.5 176 80 197.5 80 224L80 256L304 256L304 224zM400 112L400 160L496 160L496 112L400 112zM558.3 272L81.7 272L110.5 560L529.5 560L558.3 272zM299.9 328L340 328L342.4 331.3L382.2 385.5L368.6 394L331.9 344L308 344L271.3 394L257.7 385.5L297.5 331.3L299.9 328zM392.3 426.4L405.9 417.9L430.4 451.3L431.9 453.4L431.9 504L339.9 504L339.9 488L415.9 488L415.9 458.6L392.2 426.4zM224 488L300 488L300 504L208 504L208 453.4L209.5 451.3L234 417.9L247.6 426.4L223.9 458.6L223.9 488z"/></svg>