<svg xmlns="http://www.w3.org/2000/svg" viewBox="0 0 640 640"><!--! Font Awesome Pro 7.2.0 by @fontawesome - https://fontawesome.com License - https://fontawesome.com/license (Commercial License) Copyright 2026 Fonticons, Inc. --><path fill="currentColor" d="M53.7 42.4L48 36.7L36.7 48L42.4 53.7L586.6 597.7L592.3 603.4L603.6 592.1L597.9 586.4L496.1 484.6L496.1 352L363.4 352L299.4 288L304.1 288L304.1 64L144.1 64L144.1 132.7L53.8 42.4zM160 148.7L160 80L288 80L288 272L283.3 272L160 148.7zM379.3 368L480 368L480 468.6L379.3 368zM352 431.2L336 415.2L336 576L496 576L496 575.2L480 559.2L480 560L352 560L352 431.2zM352 64L352 80L432 80L432 272L352 272L352 288L512 288L512 272L448 272L448 64L352 64zM128 352L128 368L208 368L208 560L128 560L128 576L288 576L288 560L224 560L224 352L128 352z"/></svg>