<svg xmlns="http://www.w3.org/2000/svg" viewBox="0 0 640 640"><!--! Font Awesome Pro 7.2.0 by @fontawesome - https://fontawesome.com License - https://fontawesome.com/license (Commercial License) Copyright 2026 Fonticons, Inc. --><path fill="currentColor" d="M328 64L320 64L320 80L400 80L400 272L320 272L320 288L404.1 288C408.1 282.2 412.7 276.9 417.6 272L416 272L416 64L328 64zM312 352L304 352L304 576L336 576L336 560L320 560L320 368L384 368L384 352L312 352zM104 352L96 352L96 368L176 368L176 560L96 560L96 576L256 576L256 560L192 560L192 352L104 352zM112 64L112 288L272 288L272 64L112 64zM128 80L256 80L256 272L128 272L128 80zM496 304C522.5 304 544 325.5 544 352L544 416L448 416L448 352C448 325.5 469.5 304 496 304zM432 352L432 416L384 416L384 608L608 608L608 416L560 416L560 352C560 316.7 531.3 288 496 288C460.7 288 432 316.7 432 352zM400 592L400 432L592 432L592 592L400 592z"/></svg>