<svg xmlns="http://www.w3.org/2000/svg" viewBox="0 0 640 640"><!--! Font Awesome Pro 7.2.0 by @fontawesome - https://fontawesome.com License - https://fontawesome.com/license (Commercial License) Copyright 2026 Fonticons, Inc. --><path fill="currentColor" d="M96 96L96 112L224 112L224 416L240 416L240 112L544 112L544 96L96 96zM124.4 160L99.5 272L95.9 288L124.3 288L99.4 400L95.8 416L124.2 416L99.3 528L95.7 544L543.7 544L540.1 528L515.2 416L543.6 416L540 400L515.1 288L543.5 288L539.9 272L515 160L498.6 160L523.5 272L287.4 272L287.4 288L498.6 288L523.5 400L287.4 400L287.4 408C287.4 410.7 287.2 413.4 286.8 416L498.5 416L523.4 528L115.3 528L140.2 416L175.9 416C175.5 413.4 175.3 410.7 175.3 408L175.3 400L115.2 400L140.1 288L175.3 288L175.3 272L115.2 272L140.1 160L123.7 160z"/></svg>