<svg xmlns="http://www.w3.org/2000/svg" viewBox="0 0 640 640"><!--! Font Awesome Pro 7.2.0 by @fontawesome - https://fontawesome.com License - https://fontawesome.com/license (Commercial License) Copyright 2026 Fonticons, Inc. --><path fill="currentColor" d="M112 112L112 528L528 528L528 112L112 112zM96 96L544 96L544 544L96 544L96 96zM176 160C184.8 160 192 167.2 192 176C192 184.8 184.8 192 176 192C167.2 192 160 184.8 160 176C160 167.2 167.2 160 176 160zM448 176C448 167.2 455.2 160 464 160C472.8 160 480 167.2 480 176C480 184.8 472.8 192 464 192C455.2 192 448 184.8 448 176zM176 448C184.8 448 192 455.2 192 464C192 472.8 184.8 480 176 480C167.2 480 160 472.8 160 464C160 455.2 167.2 448 176 448zM448 464C448 455.2 455.2 448 464 448C472.8 448 480 455.2 480 464C480 472.8 472.8 480 464 480C455.2 480 448 472.8 448 464zM232 256C232 225.1 257.1 200 288 200L344.2 200C379.4 200 408 228.6 408 263.8C408 285.2 397.2 305.3 379.3 317.1L328 350.9L328 384L312 384L312 342.2L315.6 339.8L370.5 303.6C383.9 294.8 392 279.8 392 263.7C392 237.3 370.6 215.9 344.2 215.9L288 216C265.9 216 248 233.9 248 256L248 262.5L232 262.5L232 256zM304 408L336 408L336 440L304 440L304 408z"/></svg>