<svg xmlns="http://www.w3.org/2000/svg" viewBox="0 0 640 640"><!--! Font Awesome Pro 7.2.0 by @fontawesome - https://fontawesome.com License - https://fontawesome.com/license (Commercial License) Copyright 2026 Fonticons, Inc. --><path fill="currentColor" d="M136 96L128 96L128 112L192 112L192 528L128 528L128 544L392 544C458.3 544 512 490.3 512 424C512 367.3 472.7 319.8 419.9 307.3C455.6 288.6 480 251.2 480 208C480 146.1 429.9 96 368 96L136 96zM232 528L208 528L208 320L392 320C449.4 320 496 366.6 496 424C496 481.4 449.4 528 392 528L232 528zM208 112L368 112C421 112 464 155 464 208C464 261 421 304 368 304L208 304L208 112z"/></svg>