<svg xmlns="http://www.w3.org/2000/svg" viewBox="0 0 640 640"><!--! Font Awesome Pro 7.2.0 by @fontawesome - https://fontawesome.com License - https://fontawesome.com/license (Commercial License) Copyright 2026 Fonticons, Inc. --><path fill="currentColor" d="M256 64L608 64L608 352L576 352L576 432L608 432L608 448L256 448L256 64zM344 352C304.2 352 272 384.2 272 424L272 432L560 432L560 352L344 352zM272 373.4C287.9 350.8 314.2 336 344 336L592 336L592 80L272 80L272 373.4zM40 192L208 192L208 208L48 208L48 501.4C63.9 478.8 90.2 464 120 464L208 464L208 480L120 480C80.2 480 48 512.2 48 552L48 560L336 560L336 496L352 496L352 560L384 560L384 576L32 576L32 192L40 192z"/></svg>