<svg xmlns="http://www.w3.org/2000/svg" viewBox="0 0 640 640"><!--! Font Awesome Pro 7.2.0 by @fontawesome - https://fontawesome.com License - https://fontawesome.com/license (Commercial License) Copyright 2026 Fonticons, Inc. --><path fill="currentColor" d="M104 64L96 64L96 576L544 576L544 560L512 560L512 480L544 480L544 64L104 64zM496 480L496 560L112 560L112 528C112 501.5 133.5 480 160 480L496 480zM160 464C140.9 464 123.7 472.4 112 485.7L112 80L528 80L528 464L160 464zM248 204C248 172 279 144 320 144C361 144 392 172 392 204C392 223 381.2 240.5 363.7 251.7L360 254.1L360 280.1L280 280.1L280 254.1L276.3 251.7C258.8 240.5 248 223 248 204zM320 128C272.7 128 232 160.9 232 204C232 227.9 244.7 248.9 264 262.7L264 296L376 296L376 262.7C395.3 249 408 228 408 204C408 160.9 367.3 128 320 128zM288 224C296.8 224 304 216.8 304 208C304 199.2 296.8 192 288 192C279.2 192 272 199.2 272 208C272 216.8 279.2 224 288 224zM368 208C368 199.2 360.8 192 352 192C343.2 192 336 199.2 336 208C336 216.8 343.2 224 352 224C360.8 224 368 216.8 368 208zM412.7 312.7L320 355.2L227.3 312.7L220 309.4L213.3 323.9L220.6 327.2L300.7 363.9L220.6 400.6L213.3 403.9L220 418.4L227.3 415.1L320 372.6L412.7 415.1L420 418.4L426.7 403.9L419.4 400.6L339.3 363.9L419.4 327.2L426.7 323.9L420 309.4L412.7 312.7z"/></svg>