<svg xmlns="http://www.w3.org/2000/svg" viewBox="0 0 640 640"><!--! Font Awesome Pro 7.2.0 by @fontawesome - https://fontawesome.com License - https://fontawesome.com/license (Commercial License) Copyright 2026 Fonticons, Inc. --><path fill="currentColor" d="M104.5 64L95.5 64L96.5 72.9L128.3 351.1L96.9 445.4L96.5 446.6L96.5 575.9L240.5 575.9L240.5 517.2L348.7 574.9L350.5 575.8L544.5 575.8L544.5 459.1L540.4 456.8L360.9 355.3L384.5 72.4L385.2 63.7L104.5 63.7zM112.5 512L224.5 512L224.5 560L112.5 560L112.5 512zM232.5 496L112.5 496L112.5 449.3L144.1 354.5L144.7 352.8L144.5 351L113.5 79.9L208.5 79.9L208.5 279.9C208.5 284.3 212.1 287.9 216.5 287.9C220.9 287.9 224.5 284.3 224.5 279.9L224.5 79.9L367.8 79.9L344.5 359.2L344.1 364.3L348.6 366.8L528.5 468.5L528.5 559.8L354.5 559.8L236.3 496.7L234.5 495.8L232.5 495.8z"/></svg>