<svg xmlns="http://www.w3.org/2000/svg" viewBox="0 0 640 640"><!--! Font Awesome Pro 7.2.0 by @fontawesome - https://fontawesome.com License - https://fontawesome.com/license (Commercial License) Copyright 2026 Fonticons, Inc. --><path fill="currentColor" d="M544 120L544 112L528 112L528 528L112 528L112 544L544 544L544 120zM432 144L432 112L400 112L400 144L432 144zM240 144L240 112L208 112L208 144L240 144zM336 112L304 112L304 144L336 144L336 112zM144 144L144 112L112 112L112 144L144 144zM144 304L112 304L112 336L144 336L144 304zM144 240L144 208L112 208L112 240L144 240zM144 400L112 400L112 432L144 432L144 400z"/></svg>