<svg xmlns="http://www.w3.org/2000/svg" viewBox="0 0 640 640"><!--! Font Awesome Pro 7.2.0 by @fontawesome - https://fontawesome.com License - https://fontawesome.com/license (Commercial License) Copyright 2026 Fonticons, Inc. --><path fill="currentColor" d="M320 80C370.9 80 413.9 114 427.5 160.5C423.7 160.2 419.9 160 416 160C377.8 160 343.5 176.8 320 203.3C296.5 176.7 262.2 160 224 160C220.1 160 216.3 160.2 212.5 160.5C226.1 114 269.1 80 320 80zM320 64C259.2 64 208.3 106.4 195.2 163.2C143.5 175.1 103.7 218.4 97 272L113.1 272C120.9 217.7 167.5 176 224 176C258.6 176 289.4 191.6 310 216.2C298.9 232.5 291.6 251.5 289 272L305.1 272C312.9 217.7 359.5 176 416 176C472.5 176 519.1 217.7 526.9 272L543 272C536.3 218.4 496.5 175.1 444.7 163.2C431.7 106.4 380.7 64 319.9 64zM104 320L96 320L96 360C96 426.3 149.7 480 216 480L244.9 480L216.4 565.5L212.9 576L427.1 576L423.6 565.5L395.1 480L424 480C490.3 480 544 426.3 544 360L544 320L104 320zM112 360L112 336L528 336L528 360C528 417.4 481.4 464 424 464L372.9 464L376.4 474.5L404.9 560L235.1 560L263.6 474.5L267.1 464L216 464C158.6 464 112 417.4 112 360z"/></svg>