<svg xmlns="http://www.w3.org/2000/svg" viewBox="0 0 640 640"><!--! Font Awesome Pro 7.2.0 by @fontawesome - https://fontawesome.com License - https://fontawesome.com/license (Commercial License) Copyright 2026 Fonticons, Inc. --><path fill="currentColor" d="M224 64L416 64L416 160L576 160L576 544L64 544L64 160L224 160L224 64zM400 80L240 80L240 160L400 160L400 80zM80 176L80 528L560 528L560 176L80 176zM288 256L360 256L360 312L416 312L416 392L360 392L360 448L280 448L280 392L224 392L224 312L280 312L280 256L288 256zM296 320L296 328L240 328L240 376L296 376L296 432L344 432L344 376L400 376L400 328L344 328L344 272L296 272L296 320z"/></svg>