<svg xmlns="http://www.w3.org/2000/svg" viewBox="0 0 640 640"><!--! Font Awesome Pro 7.2.0 by @fontawesome - https://fontawesome.com License - https://fontawesome.com/license (Commercial License) Copyright 2026 Fonticons, Inc. --><path fill="currentColor" d="M48 36.8L53.7 42.5L251.3 240.1L458.7 240.1L563.2 161.7L569.6 156.9L579.2 169.7L572.8 174.5L480 244.1L480 344.1L608 344.1L608 360.1L480 360.1L480 416.1C480 432.1 477.7 447.5 473.3 462L597.8 586.5L603.5 592.2L592.2 603.5L586.5 597.8L42.3 53.8L36.6 48.1L47.9 36.8zM460.2 448.9C462.7 438.3 464 427.3 464 416L464 256L267.3 256L460.2 448.9zM429.9 509.1L441.2 520.5C411.9 554.5 368.4 576.1 320 576.1C251.5 576.1 193 533 170.2 472.4L76.8 542.5L70.4 547.3L60.8 534.5L67.2 529.7L163.2 457.7L165.1 456.3C161.8 443.5 160 430 160 416.1L160 360.1L32 360.1L32 344.1L160 344.1L160 240.1L160.8 240.1L176 255.3L176 416.1C176 492.9 236.2 555.7 312 559.9L312 391.3L328 407.3L328 559.9C368.8 557.7 405.1 538.4 429.9 509.2zM400 160C400 115.8 364.2 80 320 80C275.8 80 240 115.8 240 160L240 176L400 176L400 160zM224 160C224 107 267 64 320 64C373 64 416 107 416 160L416 192L224 192L224 160z"/></svg>