<svg xmlns="http://www.w3.org/2000/svg" viewBox="0 0 640 640"><!--! Font Awesome Pro 7.2.0 by @fontawesome - https://fontawesome.com License - https://fontawesome.com/license (Commercial License) Copyright 2026 Fonticons, Inc. --><path fill="currentColor" d="M432 80L80 80L80 560L208 560L208 432L304 432L304 576L64 576L64 64L448 64L448 249.3C442.5 251.5 437.1 254.2 432 257.1L432 80zM288 560L288 448L224 448L224 560L288 560zM168 280L232 280L232 352L160 352L160 280L168 280zM176 336L216 336L216 296L176 296L176 336zM160 160L232 160L232 232L160 232L160 160zM176 176L176 216L216 216L216 176L176 176zM288 160L352 160L352 232L280 232L280 160L288 160zM296 216L336 216L336 176L296 176L296 216zM280 280L352 280L352 352L280 352L280 280zM296 296L296 336L336 336L336 296L296 296zM369.5 608L352 608C353.6 604.3 356 598.9 359 592L403.8 489.6L408 480L584 480L588.2 489.6L633 592C636 598.9 638.4 604.3 640 608L622.5 608L573.5 496L418.4 496L369.4 608zM552 368C552 337.1 526.9 312 496 312C465.1 312 440 337.1 440 368C440 398.9 465.1 424 496 424C526.9 424 552 398.9 552 368zM496 296C535.8 296 568 328.2 568 368C568 407.8 535.8 440 496 440C456.2 440 424 407.8 424 368C424 328.2 456.2 296 496 296z"/></svg>