<svg xmlns="http://www.w3.org/2000/svg" viewBox="0 0 640 640"><!--! Font Awesome Pro 7.2.0 by @fontawesome - https://fontawesome.com License - https://fontawesome.com/license (Commercial License) Copyright 2026 Fonticons, Inc. --><path fill="currentColor" d="M560 320C560 452.5 452.5 560 320 560C311.5 560 303.1 559.6 294.9 558.7L290.2 574.3C300 575.4 309.9 576 320 576C461.4 576 576 461.4 576 320C576 178.6 461.4 64 320 64C178.6 64 64 178.6 64 320C64 332.4 64.9 344.6 66.6 356.6L82.1 351.8C80.7 341.4 80 330.8 80 320C80 187.5 187.5 80 320 80C452.5 80 560 187.5 560 320zM316.3 488C409.2 490 488 413 488 320C488 227.2 412.8 152 320 152C227.2 152 152 227.2 152 320C152 323.3 152.1 326.7 152.3 329.9L168.1 325C165.3 240.3 235.2 168 320 168C403.9 168 472 236.1 472 320C472 403.6 404.6 471.4 321.2 472L316.4 488zM392 320C392 280.2 359.8 248 320 248C287.5 248 259.9 269.6 251 299.2L270.9 293C280.4 275.7 298.8 263.9 320 263.9C350.9 263.9 376 289 376 319.9C376 338.2 367.2 354.5 353.6 364.7L346.9 386.7C373.3 376 391.9 350.1 391.9 319.9zM74.3 554.3L68.6 560L79.9 571.3L85.6 565.6L195.3 455.9C223 520.5 237.9 555.2 239.9 560L247.5 537.2L313.6 339L319.9 320L300.9 326.3L102.7 392.4L79.9 400C84.7 402.1 119.4 416.9 184 444.6L74.3 554.3zM125 401.9L294.7 345.3L238.1 515L206.7 441.7L204.2 435.8L198.3 433.3L125 401.9z"/></svg>