<svg xmlns="http://www.w3.org/2000/svg" viewBox="0 0 640 640"><!--! Font Awesome Pro 7.2.0 by @fontawesome - https://fontawesome.com License - https://fontawesome.com/license (Commercial License) Copyright 2026 Fonticons, Inc. --><path fill="currentColor" d="M352 496L320 496L320 544L304 544L304 496L80 496L80 544L64 544L64 496L32 496L32 128L352 128L352 496zM512 64C573.9 64 624 114.1 624 176C624 235.2 578.1 283.6 520 287.7L520 544L504 544L504 287.7C445.9 283.6 400 235.2 400 176C400 114.1 450.1 64 512 64zM48 480L336 480L336 336L48 336L48 480zM112 416C103.2 416 96 408.8 96 400C96 391.2 103.2 384 112 384C120.8 384 128 391.2 128 400C128 408.8 120.8 416 112 416zM272 416C263.2 416 256 408.8 256 400C256 391.2 263.2 384 272 384C280.8 384 288 391.2 288 400C288 408.8 280.8 416 272 416zM48 320L336 320L336 144L48 144L48 320zM512 80C459 80 416 123 416 176C416 229 459 272 512 272C565 272 608 229 608 176C608 123 565 80 512 80z"/></svg>