<svg xmlns="http://www.w3.org/2000/svg" viewBox="0 0 640 640"><!--! Font Awesome Pro 7.2.0 by @fontawesome - https://fontawesome.com License - https://fontawesome.com/license (Commercial License) Copyright 2026 Fonticons, Inc. --><path fill="currentColor" d="M192 72L192 64L176 64L176 128L64 128L64 544L289.4 544C287 538.8 284.8 533.4 282.9 528L80 528L80 256L512 256L512 128L400 128L400 64L384 64L384 128L192 128L192 72zM176 144L176 176L192 176L192 144L384 144L384 176L400 176L400 144L496 144L496 240L80 240L80 144L176 144zM336 464C336 393.3 393.3 336 464 336C534.7 336 592 393.3 592 464C592 534.7 534.7 592 464 592C393.3 592 336 534.7 336 464zM608 464C608 384.5 543.5 320 464 320C384.5 320 320 384.5 320 464C320 543.5 384.5 608 464 608C543.5 608 608 543.5 608 464zM472 400L472 392L456 392L456 456L392 456L392 472L456 472L456 536L472 536L472 472L536 472L536 456L472 456L472 400z"/></svg>