<svg xmlns="http://www.w3.org/2000/svg" viewBox="0 0 640 640"><!--! Font Awesome Pro 7.2.0 by @fontawesome - https://fontawesome.com License - https://fontawesome.com/license (Commercial License) Copyright 2026 Fonticons, Inc. --><path fill="currentColor" d="M256 64L272 64L272 128L464 128L464 64L480 64L480 128L576 128L576 480L160 480L160 128L256 128L256 64zM560 144L176 144L176 240L560 240L560 144zM176 464L560 464L560 256L176 256L176 464zM80 232L80 560L480 560L480 576L64 576L64 224L80 224L80 232z"/></svg>