<svg xmlns="http://www.w3.org/2000/svg" viewBox="0 0 640 640"><!--! Font Awesome Pro 7.2.0 by @fontawesome - https://fontawesome.com License - https://fontawesome.com/license (Commercial License) Copyright 2026 Fonticons, Inc. --><path fill="currentColor" d="M136 96L128 96L128 224L64 224L64 544L448 544L448 224L144 224L144 112L400 112L400 96L136 96zM80 240L432 240L432 528L80 528L80 240zM592 533.3L608 544L608 224L592 234.7L496 298.7L496 317.9L592 253.9L592 514.1L496 450.1L496 469.3L592 533.3zM128 320L384 320L384 304L128 304L128 320z"/></svg>