<svg xmlns="http://www.w3.org/2000/svg" viewBox="0 0 640 640"><!--! Font Awesome Pro 7.2.0 by @fontawesome - https://fontawesome.com License - https://fontawesome.com/license (Commercial License) Copyright 2026 Fonticons, Inc. --><path fill="currentColor" d="M53.7 42.4L48 36.7L36.7 48L42.4 53.7L586.6 597.7L592.3 603.4L603.6 592.1L597.9 586.4L555.5 544L576.1 544L576.1 160L448.1 160L416.1 96L224.1 96L192.1 160L171.4 160L53.8 42.4zM187.3 176L201.9 176L206.3 167.2L233.9 112L406.1 112L433.7 167.2L438.1 176L560 176L560 528L539.4 528L417.9 406.5C426.9 390.4 432 371.8 432 352C432 290.1 381.9 240 320 240C300.2 240 281.6 245.1 265.5 254.2L187.3 176zM406 394.7L277.3 266C290.2 259.6 304.7 256 320 256C373 256 416 299 416 352C416 367.3 412.4 381.8 406 394.7zM372 451.2L360.1 439.3C347.9 444.9 334.3 448 320 448C267 448 224 405 224 352C224 337.7 227.1 324.1 232.7 311.9L220.8 300C212.6 315.5 208 333.2 208 352C208 413.9 258.1 464 320 464C338.8 464 356.5 459.4 372 451.2zM80 176L96.8 176L80.8 160L64 160L64 544L464.8 544L448.8 528L80 528L80 176z"/></svg>