<svg xmlns="http://www.w3.org/2000/svg" viewBox="0 0 640 640"><!--! Font Awesome Pro 7.2.0 by @fontawesome - https://fontawesome.com License - https://fontawesome.com/license (Commercial License) Copyright 2026 Fonticons, Inc. --><path fill="currentColor" d="M70 42.3L64.3 36.6L53 47.9L58.7 53.6L128.4 123.3L134.1 117.6L198.1 53.6L203.8 47.9L192.5 36.6L186.8 42.3L128.5 100.6L70.2 42.3zM448.3 160L416.3 96L224.3 96L192.3 160L64.3 160L64.3 544L576.3 544L576.3 160L448.3 160zM560.3 176L560.3 528L80.3 528L80.3 176L202.2 176L206.6 167.2L234.2 112L406.4 112L434 167.2L438.4 176L560.3 176zM432.3 352C432.3 290.1 382.2 240 320.3 240C258.4 240 208.3 290.1 208.3 352C208.3 413.9 258.4 464 320.3 464C382.2 464 432.3 413.9 432.3 352zM320.3 256C373.3 256 416.3 299 416.3 352C416.3 405 373.3 448 320.3 448C267.3 448 224.3 405 224.3 352C224.3 299 267.3 256 320.3 256z"/></svg>