<svg xmlns="http://www.w3.org/2000/svg" viewBox="0 0 640 640"><!--! Font Awesome Pro 7.2.0 by @fontawesome - https://fontawesome.com License - https://fontawesome.com/license (Commercial License) Copyright 2026 Fonticons, Inc. --><path fill="currentColor" d="M256 160L80 160L80 272L243.4 272C263.3 252.9 290.3 241.2 320 241.2C349.7 241.2 376.7 252.9 396.6 272L560 272L560 112L325.3 112L265.6 156.8C262.8 158.9 259.5 160 256 160zM80 288L80 528L560 528L560 288L410.4 288C423.2 306.1 430.7 328.2 430.7 352C430.7 413.2 381.1 462.8 319.9 462.8C258.7 462.8 209.2 413.2 209.2 352C209.2 328.2 216.7 306.1 229.5 288L80 288zM256 144L320 96L576 96L576 544L64 544L64 144L256 144zM416 352C416 299 373 256 320 256C267 256 224 299 224 352C224 405 267 448 320 448C373 448 416 405 416 352zM128 96L224 96L224 112L128 112L128 96z"/></svg>