<svg xmlns="http://www.w3.org/2000/svg" viewBox="0 0 640 640"><!--! Font Awesome Pro 7.2.0 by @fontawesome - https://fontawesome.com License - https://fontawesome.com/license (Commercial License) Copyright 2026 Fonticons, Inc. --><path fill="currentColor" d="M602.1 144.2L603.3 159.3L494.2 206.1C515.7 238.8 528.1 278 528.1 320C528.1 434.9 435 528 320.1 528C278.1 528 238.9 515.5 206.2 494.1L159.5 603.1L144.4 601.9L130.5 546.3L90.7 559.6L80.6 549.5L93.9 509.7L38.3 495.8L37.1 480.7L146.1 434C124.6 401.3 112.2 362.2 112.2 320.1C112.2 205.2 205.3 112.1 320.2 112.1C362.3 112.1 401.4 124.6 434.1 146L480.9 36.9L496 38.1L509.9 93.7L549.7 80.4L559.8 90.5L546.5 130.3L602.1 144.2zM485 192.6L575.2 154C542.5 145.8 526 141.7 525.9 141.7L528.6 133.5L539.5 100.7C513.5 109.4 499.8 113.9 498.5 114.4L496.4 106L486.2 65L447.6 155.2L447.5 155.5C461.5 166.3 474 178.9 484.8 192.8L485.1 192.7zM442.5 468L130.4 290.5C128.9 300.1 128.1 310 128.1 320C128.1 426 214.1 512 320.1 512C366.6 512 409.2 495.5 442.5 468zM455 456.7C478.2 433.8 495.6 405.1 504.8 372.9L183.6 185C159.6 209.2 142.1 239.8 133.6 274L455 456.7zM508.7 356.7C511 344.8 512.2 332.6 512.2 320.1C512.2 214.1 426.2 128.1 320.2 128.1C272.8 128.1 229.5 145.3 196 173.7L508.6 356.7zM155.5 447.2L155.3 447.3L65.1 485.9L106.1 496.1L114.5 498.2C114 499.6 109.5 513.2 100.8 539.2L133.6 528.3L141.8 525.6L143.9 534L154.1 575L192.7 484.8L192.8 484.6C178.8 473.8 166.3 461.2 155.4 447.2z"/></svg>