<svg xmlns="http://www.w3.org/2000/svg" viewBox="0 0 640 640"><!--! Font Awesome Pro 7.2.0 by @fontawesome - https://fontawesome.com License - https://fontawesome.com/license (Commercial License) Copyright 2026 Fonticons, Inc. --><path fill="currentColor" d="M128 96L122.6 96L58.6 256L0 256L0 464L64.4 464C68.4 508.9 106.1 544 152 544C197.9 544 235.6 508.9 239.6 464L384.3 464C388.3 508.9 426 544 471.9 544C517.8 544 555.5 508.9 559.5 464L639.9 464L639.9 256L507.9 256L390.3 99.2L387.9 96L127.9 96zM559.6 448C555.6 403.1 517.9 368 472 368C426.1 368 388.4 403.1 384.4 448L239.7 448C235.7 403.1 198 368 152.1 368C106.2 368 68.5 403.1 64.5 448L16.1 448L16.1 272L140.2 272L156.2 256L75.9 256L133.5 112L380.1 112L488.1 256L420 256L404 272L624.1 272L624.1 448L559.7 448zM152 384C191.8 384 224 416.2 224 456C224 495.8 191.8 528 152 528C112.2 528 80 495.8 80 456C80 416.2 112.2 384 152 384zM400 456C400 416.2 432.2 384 472 384C511.8 384 544 416.2 544 456C544 495.8 511.8 528 472 528C432.2 528 400 495.8 400 456zM309.7 181.7L315.4 176L304.1 164.7L298.4 170.4L202.4 266.4L188.7 280.1L316.7 280.1L234.4 362.4L228.7 368.1L240 379.4L245.7 373.7L341.7 277.7L355.4 264L227.4 264L309.7 181.7z"/></svg>