<svg xmlns="http://www.w3.org/2000/svg" viewBox="0 0 640 640"><!--! Font Awesome Pro 7.2.0 by @fontawesome - https://fontawesome.com License - https://fontawesome.com/license (Commercial License) Copyright 2026 Fonticons, Inc. --><path fill="currentColor" d="M144 80L144 560L496 560L496 80L144 80zM128 64L512 64L512 576L128 576L128 64zM331.3 212.7L427.3 308.7L438.6 320L427.3 331.3L331.3 427.3L320 438.6L308.7 427.3L212.7 331.3L201.4 320L212.7 308.7L308.7 212.7L320 201.4L331.3 212.7zM224 320L235.3 331.3L308.7 404.7L320 416L416 320L404.7 308.7L331.3 235.3L320 224L224 320z"/></svg>