<svg xmlns="http://www.w3.org/2000/svg" viewBox="0 0 640 640"><!--! Font Awesome Pro 7.2.0 by @fontawesome - https://fontawesome.com License - https://fontawesome.com/license (Commercial License) Copyright 2026 Fonticons, Inc. --><path fill="currentColor" d="M40 64L32 64L32 80L112 80L112 496L188.2 496C180.6 504.5 176 515.7 176 528C176 554.5 197.5 576 224 576C250.5 576 272 554.5 272 528C272 515.7 267.4 504.5 259.8 496L476.2 496C468.6 504.5 464 515.7 464 528C464 554.5 485.5 576 512 576C538.5 576 560 554.5 560 528C560 515.7 555.4 504.5 547.8 496L608 496L608 480L128 480L128 64L40 64zM544 528C544 545.7 529.7 560 512 560C494.3 560 480 545.7 480 528C480 510.3 494.3 496 512 496C529.7 496 544 510.3 544 528zM224 560C206.3 560 192 545.7 192 528C192 510.3 206.3 496 224 496C241.7 496 256 510.3 256 528C256 545.7 241.7 560 224 560zM208 176L528 176L528 400L208 400L208 176zM192 160L192 416L544 416L544 160L192 160z"/></svg>