<svg xmlns="http://www.w3.org/2000/svg" viewBox="0 0 640 640"><!--! Font Awesome Pro 7.2.0 by @fontawesome - https://fontawesome.com License - https://fontawesome.com/license (Commercial License) Copyright 2026 Fonticons, Inc. --><path fill="currentColor" d="M432 32C529.2 32 608 110.8 608 208C608 276.4 569 335.6 512 364.7L512 576L432 576L432 393.2L309.9 496L384 496L384 576L96 576L96 248C96 217.1 70.9 192 40 192L32 192L32 176L40 176C79.8 176 112 208.2 112 248L112 384.3C137.4 317.1 191.2 263.9 258.8 239.1C257 229 256 218.6 256 208C256 110.8 334.8 32 432 32zM262.3 254.8C174.5 287.9 112 372.6 112 472L112 560L368 560L368 512L280 512L280 464C280 437.5 258.5 416 232 416L216 416L216 400L232 400C267.3 400 296 428.7 296 464L296 486.8L418.7 383.5C343.7 377.9 281.8 325.2 262.4 254.9zM496 371.9C480.9 377.8 464.8 381.7 448 383.2L448 559.9L496 559.9L496 371.9zM544 209.1C544 270.9 493.8 321.1 432 321.1C370.2 321.1 320 271 320 209.2L320 93.8C290.4 122.8 272 163.3 272 208C272 296.4 343.6 368 432 368C520.4 368 592 296.4 592 208C592 163.2 573.6 122.8 544 93.7L544 209.1zM469.2 158.1L467 160L397.1 160L394.9 158.1L336.1 107.7L336.1 209.1C336.1 262.1 379.1 305.1 432.1 305.1C485.1 305.1 528.1 262.1 528.1 209.1L528.1 107.7L469.3 158.1zM392 224C383.2 224 376 216.8 376 208C376 199.2 383.2 192 392 192C400.8 192 408 199.2 408 208C408 216.8 400.8 224 392 224zM472 224C463.2 224 456 216.8 456 208C456 199.2 463.2 192 472 192C480.8 192 488 199.2 488 208C488 216.8 480.8 224 472 224zM168 120L216 120L216 136L168 136L168 184L152 184L152 136L104 136L104 120L152 120L152 72L168 72L168 120zM432 48C394.1 48 359.3 61.2 331.9 83.2L333.2 84.3L403 144L461.1 144L530.9 84.3L532.2 83.2C504.7 61.2 469.9 48 432 48z"/></svg>