<svg xmlns="http://www.w3.org/2000/svg" viewBox="0 0 640 640"><!--! Font Awesome Pro 7.2.0 by @fontawesome - https://fontawesome.com License - https://fontawesome.com/license (Commercial License) Copyright 2026 Fonticons, Inc. --><path fill="currentColor" d="M576 185.2C576 231.2 550.1 271.2 512 291.3L512 576L432 576L432 407.8L312.3 496L384 496L384 576L96 576L96 248C96 217.1 70.9 192 40 192L32 192L32 176L40 176C79.8 176 112 208.2 112 248L112 384.3C147.3 291.1 237.1 224.7 342.5 224C338.3 211.8 336 198.8 336 185.2L336 24.3L348.7 33.5L434.6 96L477.3 96L563.2 33.5L575.9 24.3L575.9 185.2zM344 240C215.9 240 112 343.9 112 472L112 560L368 560L368 512L280 512L280 464C280 437.5 258.5 416 232 416L216 416L216 400L232 400C267.3 400 296 428.7 296 464L296 488.2L435.3 385.6L448 376.2L448 560L496 560L496 298.3C483.5 302.7 470 305.2 456 305.2C409.5 305.2 369.2 278.7 349.3 240L344 240zM484.7 110.5L482.6 112L429.4 112L427.3 110.5L352 55.7L352 185.1C352 242.5 398.6 289.1 456 289.1C513.4 289.1 560 242.5 560 185.1L560 55.7L484.7 110.5zM416 192C407.2 192 400 184.8 400 176C400 167.2 407.2 160 416 160C424.8 160 432 167.2 432 176C432 184.8 424.8 192 416 192zM496 192C487.2 192 480 184.8 480 176C480 167.2 487.2 160 496 160C504.8 160 512 167.2 512 176C512 184.8 504.8 192 496 192z"/></svg>