<svg xmlns="http://www.w3.org/2000/svg" viewBox="0 0 640 640"><!--! Font Awesome Pro 7.2.0 by @fontawesome - https://fontawesome.com License - https://fontawesome.com/license (Commercial License) Copyright 2026 Fonticons, Inc. --><path fill="currentColor" d="M368 80L368 560L112 560L112 80L368 80zM96 80L96 560L80 560L80 576L400 576L400 560L384 560L384 352L440 352L440 512L536 512L536 319.6C576.4 315.6 608 281.5 608 240L608 192L568 192L568 128L552 128L552 192L504 192L504 128L488 128L488 192L448 192L448 240C448 281.5 479.6 315.6 520 319.6L520 496L456 496L456 336L384 336L384 64L96 64L96 80zM552 208L592 208L592 240C592 275.3 563.3 304 528 304C492.7 304 464 275.3 464 240L464 208L552 208zM272.3 162.6L277.1 157.8L267.4 148.1L262.6 152.9L180.3 235.2L168.6 246.9L278.3 246.9L207.7 317.5L202.9 322.3L212.6 332L217.4 327.2L299.7 244.9L311.4 233.2L201.7 233.2L272.3 162.6z"/></svg>