<svg xmlns="http://www.w3.org/2000/svg" viewBox="0 0 640 640"><!--! Font Awesome Pro 7.2.0 by @fontawesome - https://fontawesome.com License - https://fontawesome.com/license (Commercial License) Copyright 2026 Fonticons, Inc. --><path fill="currentColor" d="M311.3 64L217.3 283.3C197.7 266.3 172 256 144 256C82.1 256 32 306.1 32 368C32 465.2 118 544 224 544C330 544 416 465.2 416 368C416 306.1 365.9 256 304 256C278.8 256 255.5 264.3 236.8 278.4L321.5 80.9L444.2 268.6C440.7 270.4 437.2 272.5 434 274.7C437.1 279 440 283.5 442.7 288.1C458 277.9 476.3 271.9 496 271.9C549 271.9 592 314.9 592 367.9C592 455 514.5 527.9 416 527.9C408.3 527.9 400.8 527.5 393.4 526.6C388.2 531.4 382.8 536 377.2 540.3C389.7 542.7 402.7 543.9 416 543.9C522 543.9 608 465.1 608 367.9C608 306 557.9 255.9 496 255.9C483.1 255.9 470.7 258.1 459.2 262.1L329.6 64L311.3 64zM212.6 300.8L224 312.5L235.4 300.8C252.8 283 277.1 272 304 272C357 272 400 315 400 368C400 455.1 322.5 528 224 528C125.5 528 48 455.1 48 368C48 315 91 272 144 272C170.9 272 195.1 283 212.6 300.8z"/></svg>