<svg xmlns="http://www.w3.org/2000/svg" viewBox="0 0 640 640"><!--! Font Awesome Pro 7.2.0 by @fontawesome - https://fontawesome.com License - https://fontawesome.com/license (Commercial License) Copyright 2026 Fonticons, Inc. --><path fill="currentColor" d="M328 32C429.6 32 512 114.4 512 216L512 387.6L509.3 390L452.9 439.3L512 528L512 576L128 576L128 528L192 432L192 363.9L195.3 361.5L319.2 272L259.3 272L238.4 292.9C222.2 309.1 198.6 315.5 176.6 309.8L172.2 308.5C145.8 299.7 128 275 128 247.2L128 244.3C128 229.4 132.8 214.9 141.8 203.1L224 93.3L224 32L328 32zM144 532.8L144 560L496 560L496 532.8L439.4 448L200.5 448L143.9 532.8zM240 98.7L238.4 100.9L154.5 212.7C147.7 221.7 144 232.8 144 244.2L144 247.1C144 268 157.4 286.7 177.3 293.3L180.6 294.3C197.2 298.6 214.9 293.8 227.1 281.5L252.7 255.9L368.8 255.9L348.7 270.4L208 372L208 431.9L437 431.9L496 380.2L496 215.9C496 123.1 420.8 47.9 328 47.9L240 47.9L240 98.6zM288 176C279.2 176 272 168.8 272 160C272 151.2 279.2 144 288 144C296.8 144 304 151.2 304 160C304 168.8 296.8 176 288 176z"/></svg>