<svg xmlns="http://www.w3.org/2000/svg" viewBox="0 0 640 640"><!--! Font Awesome Pro 7.2.0 by @fontawesome - https://fontawesome.com License - https://fontawesome.com/license (Commercial License) Copyright 2026 Fonticons, Inc. --><path fill="currentColor" d="M320 96C373 96 416 139 416 192C416 216.6 406.7 239 391.5 256L400 256L400 272L385.3 272L400 448L464 528L464 576L176 576L176 528L240 448L254.7 272L240 272L240 256L248.5 256C233.3 239 224 216.6 224 192C224 139 267 96 320 96zM392 464L248 464L248 463.6L192 533.6L192 560L448 560L448 533.6L392 463.6L392 464zM256.1 448L384 448L369.3 272L270.7 272L256 448zM320 112C275.8 112 240 147.8 240 192C240 218.2 252.7 241.4 272.2 256L367.9 256C387.4 241.4 400.1 218.2 400.1 192C400.1 147.8 364.3 112 320.1 112z"/></svg>