<svg xmlns="http://www.w3.org/2000/svg" viewBox="0 0 640 640"><!--! Font Awesome Pro 7.2.0 by @fontawesome - https://fontawesome.com License - https://fontawesome.com/license (Commercial License) Copyright 2026 Fonticons, Inc. --><path fill="currentColor" d="M416 128L480 112L480 144L404.4 280L416 280L416 296L400.8 296L416 448L480 528L480 576L160 576L160 528L224 448L239.2 296L224 296L224 280L235.6 280L160 144L160 112L224 128L272 96L320 128L368 96L416 128zM408 464L232 464L232 463.6L176 533.6L176 560L464 560L464 533.6L408 463.6L408 464zM240.1 448L400 448L384.8 296L255.4 296L240.2 448zM328.9 141.3L320 147.2L311.1 141.3L272 115.2L232.9 141.3L227 145.2L176 132.4L176 139.7L253.9 279.9L386.1 279.9L464 139.7L464 132.4L413 145.2L407.1 141.3L368 115.2L328.9 141.3zM320 96C302.3 96 288 81.7 288 64C288 46.3 302.3 32 320 32C337.7 32 352 46.3 352 64C352 81.7 337.7 96 320 96zM320 48C311.2 48 304 55.2 304 64C304 72.8 311.2 80 320 80C328.8 80 336 72.8 336 64C336 55.2 328.8 48 320 48z"/></svg>