<svg xmlns="http://www.w3.org/2000/svg" viewBox="0 0 640 640"><!--! Font Awesome Pro 7.2.0 by @fontawesome - https://fontawesome.com License - https://fontawesome.com/license (Commercial License) Copyright 2026 Fonticons, Inc. --><path fill="currentColor" d="M112 112L112 208L528 208L528 112L112 112zM96 96L544 96L544 224C533.3 224 522.7 224 512 224L512 544L496 544L496 448L272 448L272 544L256 544L256 448L144 448L144 544L128 544L128 224L96 224L96 96zM144 224L144 320L256 320L256 224L144 224zM272 224L272 320L496 320L496 224L272 224zM264 432L368 432L368 336L144 336L144 432L264 432zM384 432L496 432L496 336L384 336L384 432z"/></svg>