<svg xmlns="http://www.w3.org/2000/svg" viewBox="0 0 640 640"><!--! Font Awesome Pro 7.2.0 by @fontawesome - https://fontawesome.com License - https://fontawesome.com/license (Commercial License) Copyright 2026 Fonticons, Inc. --><path fill="currentColor" d="M328 32L328 80L384 80L384 96L328 96L328 163.6L476.3 257.2L480 259.6L480 315.1L571.6 360.9L576 363.1L576 576L64 576L64 363.1L68.4 360.9L160 315.1L160 259.6L163.7 257.2L312 163.6L312 96L256 96L256 80L312 80L312 32L328 32zM480 560L560 560L560 372.9L480 332.9L480 560zM464 560L464 268.4L320 177.5L176 268.4L176 560L256 560L256 384L384 384L384 560L464 560zM80 372.9L80 560L160 560L160 332.9L80 372.9zM368 560L368 400L272 400L272 560L368 560z"/></svg>