<svg xmlns="http://www.w3.org/2000/svg" viewBox="0 0 640 640"><!--! Font Awesome Pro 7.2.0 by @fontawesome - https://fontawesome.com License - https://fontawesome.com/license (Commercial License) Copyright 2026 Fonticons, Inc. --><path fill="currentColor" d="M320 80C452.5 80 560 187.5 560 320C560 452.5 452.5 560 320 560C187.5 560 80 452.5 80 320C80 187.5 187.5 80 320 80zM320 576C461.4 576 576 461.4 576 320C576 178.6 461.4 64 320 64C178.6 64 64 178.6 64 320C64 461.4 178.6 576 320 576zM312 168L312 192.3C253.9 196.4 208 244.9 208 304L208 432L224 432L224 304C224 253.7 262.7 212.4 312 208.3L312 432L328 432L328 208.3C377.3 212.4 416 253.6 416 304L416 432L432 432L432 304C432 244.8 386.1 196.4 328 192.3L328 168L312 168z"/></svg>