<svg xmlns="http://www.w3.org/2000/svg" viewBox="0 0 640 640"><!--! Font Awesome Pro 7.2.0 by @fontawesome - https://fontawesome.com License - https://fontawesome.com/license (Commercial License) Copyright 2026 Fonticons, Inc. --><path fill="currentColor" d="M320 560C187.5 560 80 452.5 80 320C80 187.5 187.5 80 320 80C452.5 80 560 187.5 560 320C560 452.5 452.5 560 320 560zM320 64C178.6 64 64 178.6 64 320C64 461.4 178.6 576 320 576C461.4 576 576 461.4 576 320C576 178.6 461.4 64 320 64zM408 416L416 416L416 272L400 272L400 388.7L245.7 234.4L240 228.7L228.7 240L234.4 245.7L388.7 400L272 400L272 416L408 416z"/></svg>