<svg xmlns="http://www.w3.org/2000/svg" viewBox="0 0 640 640"><!--! Font Awesome Pro 7.2.0 by @fontawesome - https://fontawesome.com License - https://fontawesome.com/license (Commercial License) Copyright 2026 Fonticons, Inc. --><path fill="currentColor" d="M489.7 150.3C429.2 88.8 340.5 64.5 257.1 86.6C173.8 108.7 108.7 173.8 86.6 257.1C64.5 340.5 88.8 429.2 150.3 489.7C210.8 551.2 299.5 575.5 382.9 553.4C466.2 531.3 531.3 466.2 553.4 382.9C575.5 299.5 551.2 210.8 489.7 150.3zM139 501C72.7 436.7 46.3 341.6 69.8 252.3C93.2 163 163 93.2 252.3 69.8C341.6 46.3 436.7 72.7 501 139C567.3 203.3 593.7 298.4 570.2 387.7C546.8 477 477 546.8 387.7 570.2C298.4 593.7 203.3 567.3 139 501zM274.7 353.9L184.2 376.5L161.6 297.3L167.3 291.6C251.7 207.3 388.4 207.3 472.8 291.6L478.5 297.3L455.9 376.5L365.4 353.9L365.7 314C336.7 301.1 303.6 301.1 274.7 314L275 353.9zM381.5 314.1L381.3 341.4L444.6 357.2L460.4 301.9C382.6 225.1 257.4 225.1 179.6 301.9L195.4 357.2L258.7 341.4C258.6 320.4 258.5 307.8 258.4 303.6L268 299.3C301.1 284.6 338.9 284.6 372 299.3L381.6 303.6L381.5 314.1z"/></svg>