<svg xmlns="http://www.w3.org/2000/svg" viewBox="0 0 640 640"><!--! Font Awesome Pro 7.2.0 by @fontawesome - https://fontawesome.com License - https://fontawesome.com/license (Commercial License) Copyright 2026 Fonticons, Inc. --><path fill="currentColor" d="M320 80C452.5 80 560 187.5 560 320C560 452.5 452.5 560 320 560C187.5 560 80 452.5 80 320C80 187.5 187.5 80 320 80zM320 576C461.4 576 576 461.4 576 320C576 178.6 461.4 64 320 64C178.6 64 64 178.6 64 320C64 461.4 178.6 576 320 576zM298.5 224C270.6 224 248 246.6 248 274.5C248 300 267 321.4 292.2 324.6L345.8 331.3C363.1 333.5 376 348.1 376 365.5C376 384.5 360.6 400 341.5 400L256 400L256 416L341.5 416C369.4 416 392 393.4 392 365.5C392 340 373 318.6 347.8 315.4L294.2 308.7C276.9 306.5 264 291.9 264 274.5C264 255.5 279.4 240 298.5 240L376 240L376 224L298.5 224z"/></svg>