<svg xmlns="http://www.w3.org/2000/svg" viewBox="0 0 640 640"><!--! Font Awesome Pro 7.2.0 by @fontawesome - https://fontawesome.com License - https://fontawesome.com/license (Commercial License) Copyright 2026 Fonticons, Inc. --><path fill="currentColor" d="M320 80C452.5 80 560 187.5 560 320C560 452.5 452.5 560 320 560C187.5 560 80 452.5 80 320C80 187.5 187.5 80 320 80zM320 576C461.4 576 576 461.4 576 320C576 178.6 461.4 64 320 64C178.6 64 64 178.6 64 320C64 461.4 178.6 576 320 576zM232 192L224 192L224 208L292 208C323.8 208 349.8 232.7 351.9 264L224 264L224 280L350.8 280C345.2 307.4 321 328 292 328L224 328L224 348.3L227.6 350.7L371.6 446.7L378.3 451.1L387.2 437.8L380.5 433.4L246.5 344.1L292.1 344.1C330 344.1 361.4 316.4 367.2 280.1L416.1 280.1L416.1 264.1L368 264.1C366.8 241.3 355.6 221.2 338.8 208.1L416.1 208.1L416.1 192.1L232.1 192.1z"/></svg>