<svg xmlns="http://www.w3.org/2000/svg" viewBox="0 0 640 640"><!--! Font Awesome Pro 7.2.0 by @fontawesome - https://fontawesome.com License - https://fontawesome.com/license (Commercial License) Copyright 2026 Fonticons, Inc. --><path fill="currentColor" d="M320 80C452.5 80 560 187.5 560 320C560 452.5 452.5 560 320 560C187.5 560 80 452.5 80 320C80 187.5 187.5 80 320 80zM320 576C461.4 576 576 461.4 576 320C576 178.6 461.4 64 320 64C178.6 64 64 178.6 64 320C64 461.4 178.6 576 320 576zM200 208L192 208L192 416L208 416L208 336L264 336C264.9 336 265.7 336 266.6 335.9L296.6 410.9L299.6 418.3L314.5 412.4L311.5 405L282.8 333.2C309 325.2 328.1 300.8 328.1 272C328.1 236.7 299.4 208 264.1 208L200.1 208zM264 320L208 320L208 224L264 224C290.5 224 312 245.5 312 272C312 298.5 290.5 320 264 320zM352 304L352 456L368 456L368 400L400 400C426.5 400 448 378.5 448 352C448 325.5 426.5 304 400 304L352 304zM368 384L368 320L400 320C417.7 320 432 334.3 432 352C432 369.7 417.7 384 400 384L368 384z"/></svg>