<svg xmlns="http://www.w3.org/2000/svg" viewBox="0 0 640 640"><!--! Font Awesome Pro 7.2.0 by @fontawesome - https://fontawesome.com License - https://fontawesome.com/license (Commercial License) Copyright 2026 Fonticons, Inc. --><path fill="currentColor" d="M320 560C187.5 560 80 452.5 80 320C80 187.5 187.5 80 320 80C452.5 80 560 187.5 560 320C560 452.5 452.5 560 320 560zM320 64C178.6 64 64 178.6 64 320C64 461.4 178.6 576 320 576C461.4 576 576 461.4 576 320C576 178.6 461.4 64 320 64zM263 375C244.9 393.1 231.2 406.8 222 416L415.9 416L415.9 222.1C345.3 292.7 360.5 277.5 347.9 290.1L336.6 278.8L280.9 223.1L263.9 206.1C248.1 221.9 242.9 227.1 222.9 247.1L205.9 264.1C216.4 274.6 232.2 290.4 278.6 336.8L290.1 348C283.3 354.8 274.3 363.8 263.1 375zM234.3 269.7L228.6 264C229.3 263.3 239.2 253.4 258.3 234.3L264 228.6L269.7 234.3L336.7 301.3L348 312.6C352.9 307.7 365.7 294.9 386.3 274.3L400 260.6L400 399.9L260.7 399.9C267.6 393 281.1 379.5 301.4 359.2L312.7 347.9L301.4 336.6L234.4 269.6z"/></svg>