<svg xmlns="http://www.w3.org/2000/svg" viewBox="0 0 640 640"><!--! Font Awesome Pro 7.2.0 by @fontawesome - https://fontawesome.com License - https://fontawesome.com/license (Commercial License) Copyright 2026 Fonticons, Inc. --><path fill="currentColor" d="M320 80C452.5 80 560 187.5 560 320C560 452.5 452.5 560 320 560C187.5 560 80 452.5 80 320C80 187.5 187.5 80 320 80zM320 576C461.4 576 576 461.4 576 320C576 178.6 461.4 64 320 64C178.6 64 64 178.6 64 320C64 461.4 178.6 576 320 576zM312 192L225.8 192L225.8 448L312 448L312 480L328 480L328 448L370.2 448C407.8 448 438.2 417.6 438.2 380C438.2 350.2 419 324.8 392.3 315.7C409.8 303.4 421.2 283.1 421.2 260C421.2 222.4 390.8 192 353.2 192L327.9 192L327.9 160L311.9 160L311.9 192zM241.8 208L312 208L312 312L241.8 312L241.8 208zM328 208L353.3 208C382 208 405.3 231.3 405.3 260C405.3 288.7 382 312 353.3 312L328 312L328 208zM241.8 328L312 328L312 432L241.8 432L241.8 328zM328 328L370.2 328C398.9 328 422.2 351.3 422.2 380C422.2 408.7 398.9 432 370.2 432L328 432L328 328z"/></svg>