<svg xmlns="http://www.w3.org/2000/svg" viewBox="0 0 640 640"><!--! Font Awesome Pro 7.2.0 by @fontawesome - https://fontawesome.com License - https://fontawesome.com/license (Commercial License) Copyright 2026 Fonticons, Inc. --><path fill="currentColor" d="M320 80C452.5 80 560 187.5 560 320C560 452.5 452.5 560 320 560C187.5 560 80 452.5 80 320C80 187.5 187.5 80 320 80zM320 576C461.4 576 576 461.4 576 320C576 178.6 461.4 64 320 64C178.6 64 64 178.6 64 320C64 461.4 178.6 576 320 576zM312 168L296 168L296 195.1C238.9 207.9 196.2 259 196.2 320C196.2 368.2 222.8 410.2 262.2 432L208 432L208 448L432 448L432 432L324.2 432C262.3 432 212.2 381.9 212.2 320C212.2 267.9 247.8 224.1 296 211.6L296 296L312 296L312 208.7C316 208.3 320.1 208 324.2 208C331 208 337.6 208.6 344 209.7L344 296L360 296L360 213.8C394.3 225.4 421.2 253.1 431.6 288L448.2 288C436.9 244.3 403.2 209.6 360 197.1L360 168L344 168L344 193.5C337.5 192.5 330.9 192 324.2 192C320.1 192 316 192.2 312 192.6L312 168z"/></svg>