<svg xmlns="http://www.w3.org/2000/svg" viewBox="0 0 640 640"><!--! Font Awesome Pro 7.2.0 by @fontawesome - https://fontawesome.com License - https://fontawesome.com/license (Commercial License) Copyright 2026 Fonticons, Inc. --><path fill="currentColor" d="M560 272C560 431.1 431.1 560 272 560C202.3 560 138.4 535.3 88.6 494L127.7 455C168.5 490.5 221.7 512 280 512C408.1 512 512 408.1 512 280C512 221.7 490.5 168.4 455 127.7L494 88.6C535.2 138.4 560 202.3 560 272zM248 493.6C206.7 487.5 169.2 469.6 139 443.6L238.1 344.5C241.3 346 244.6 347.3 248 348.3L248 493.6zM264 495.4L264 351.6C266.6 351.9 269.3 352 272 352C291.2 352 308.8 345.2 322.6 333.9L427 438.3C388.4 474.1 336.8 496 280 496C274.6 496 269.3 495.8 264 495.4zM333.9 322.6C345.2 308.8 352 291.2 352 272C352 269.3 351.9 266.6 351.6 264L495.4 264C495.8 269.3 496 274.6 496 280C496 336.8 474.1 388.4 438.3 427L333.9 322.6zM348.3 248C347.2 244.6 345.9 241.3 344.5 238.1L443.6 139C469.7 169.2 487.5 206.7 493.6 248L348.3 248zM332.2 250.4C334.6 257.2 335.9 264.4 335.9 272C335.9 307.3 307.2 336 271.9 336C264.3 336 257 334.7 250.3 332.3L332.2 250.4zM65.2 494.8C69.1 498.4 73.1 502 77.2 505.4C130 549.5 197.9 576 272 576C439.9 576 576 439.9 576 272C576 197.9 549.5 130 505.4 77.2C502 73.1 498.4 69.1 494.8 65.2L483.5 76.5L76.5 483.5L65.2 494.8z"/></svg>