<svg xmlns="http://www.w3.org/2000/svg" viewBox="0 0 640 640"><!--! Font Awesome Pro 7.2.0 by @fontawesome - https://fontawesome.com License - https://fontawesome.com/license (Commercial License) Copyright 2026 Fonticons, Inc. --><path fill="currentColor" d="M200.2 211.3L66.5 77.6L77.8 66.3L213.8 202.3L216.1 204.6L216.1 263.9L275.4 263.9L277.7 266.2L405.7 394.2L408 396.5L408 455.8L467.3 455.8L573.6 562.1L562.3 573.4L460.6 471.7L391.9 471.7L391.9 403L268.6 279.7L199.9 279.7L199.9 211zM168.2 403.3L66.5 301.6L77.8 290.3L181.8 394.3L184.1 396.6L184.1 455.9L243.4 455.9L245.7 458.2L349.7 562.2L338.4 573.5L236.7 471.8L168 471.8L168 403.1zM290.5 77.7L301.8 66.4L341.8 106.4L344.1 108.7L344.1 168L403.4 168L405.7 170.3L469.7 234.3L472 236.6L472 295.9L531.3 295.9L533.6 298.2L573.6 338.2L562.3 349.5L524.6 311.8L455.9 311.8L455.9 243.1L396.6 183.8L327.9 183.8L327.9 115.1L290.2 77.4z"/></svg>