<svg xmlns="http://www.w3.org/2000/svg" viewBox="0 0 640 640"><!--! Font Awesome Pro 7.2.0 by @fontawesome - https://fontawesome.com License - https://fontawesome.com/license (Commercial License) Copyright 2026 Fonticons, Inc. --><path fill="currentColor" d="M560 320C560 452.5 452.5 560 320 560C187.5 560 80 452.5 80 320C80 187.5 187.5 80 320 80C452.5 80 560 187.5 560 320zM64 320C64 461.4 178.6 576 320 576C461.4 576 576 461.4 576 320C576 178.6 461.4 64 320 64C178.6 64 64 178.6 64 320zM312 168L312 305.1L228.4 249.4L221.7 245L212.8 258.3L219.5 262.7L315.5 326.7L327.9 335L327.9 160.1L311.9 160.1L311.9 168.1z"/></svg>