<svg xmlns="http://www.w3.org/2000/svg" viewBox="0 0 640 640"><!--! Font Awesome Pro 7.2.0 by @fontawesome - https://fontawesome.com License - https://fontawesome.com/license (Commercial License) Copyright 2026 Fonticons, Inc. --><path fill="currentColor" d="M240 64C178.1 64 128 114.1 128 176L128 197.5C90.7 210.6 64 246.2 64 288L64 384L576 384L576 288C576 235 533 192 480 192L480 176C480 131.8 444.2 96 400 96C375.7 96 353.9 106.9 339.2 124C320.5 88.3 283.1 64 240 64zM144 176C144 123 187 80 240 80C281.3 80 316.6 106.1 330.1 142.8L336 158.8L344.5 144C355.6 124.8 376.3 112 400 112C435.3 112 464 140.7 464 176L464 209.1L472.7 208.3C475.1 208.1 477.5 208 480 208C524.2 208 560 243.8 560 288L560 368L80 368L80 288C80 251.4 104.6 220.5 138.2 211L144 209.4L144 176zM328 472L328 464L312 464L312 520L256 520L256 536L312 536L312 592L328 592L328 536L384 536L384 520L328 520L328 472zM144 432L128 432L128 488L72 488L72 504L128 504L128 560L144 560L144 504L200 504L200 488L144 488L144 432zM512 440L512 432L496 432L496 488L440 488L440 504L496 504L496 560L512 560L512 504L568 504L568 488L512 488L512 440z"/></svg>