<svg xmlns="http://www.w3.org/2000/svg" viewBox="0 0 640 640"><!--! Font Awesome Pro 7.2.0 by @fontawesome - https://fontawesome.com License - https://fontawesome.com/license (Commercial License) Copyright 2026 Fonticons, Inc. --><path fill="currentColor" d="M224 80L224 176L128 176L128 80L224 80zM128 64L112 64L112 192L168 192L168 448L112 448L112 576L240 576L240 448L184 448L184 336L384 336C432.6 336 472 296.6 472 248L472 192L528 192L528 64L400 64L400 192L456 192L456 248C456 287.8 423.8 320 384 320L184 320L184 192L240 192L240 64L128 64zM416 80L512 80L512 176L416 176L416 80zM128 464L224 464L224 560L128 560L128 464z"/></svg>