<svg xmlns="http://www.w3.org/2000/svg" viewBox="0 0 640 640"><!--! Font Awesome Pro 7.2.0 by @fontawesome - https://fontawesome.com License - https://fontawesome.com/license (Commercial License) Copyright 2026 Fonticons, Inc. --><path fill="currentColor" d="M92.1 549.4L134.2 446.1C101.1 405.1 80 357.5 80 304C80 181.2 186.5 80 320 80C453.5 80 560 181.2 560 304C560 426.8 453.5 528 320 528C284.3 528 249.9 520.1 217 506.5L92.1 549.4zM115.8 448.8L64 576L216.5 523.6C248.1 536.7 283.2 544 320 544C461.4 544 576 436.5 576 304C576 171.5 461.4 64 320 64C178.6 64 64 171.5 64 304C64 358.4 83.3 408.6 115.8 448.8zM262.8 378.1C280.5 393.1 299.7 405.9 320 417.1C340.2 405.9 359.5 393.1 377.2 378.1C390.5 366.8 404.1 353.3 414.4 338.3C424.7 323.3 432 306.2 432 288L432 285.3C432 251.4 404.5 224 370.7 224C350.1 224 332.2 234.4 320 250.7C307.8 234.5 290 224 269.3 224C235.4 224 208 251.5 208 285.3L208 288C208 306.2 215.4 323.2 225.6 338.3C235.9 353.3 249.5 366.9 262.8 378.1zM269.3 240C283.6 240 297 246.7 305.6 258.1L320 277.3L334.4 258.1C343 246.7 356.4 240 370.7 240C395.7 240 416 260.3 416 285.3L416 288C416 301.8 410.4 315.8 401.1 329.2C391.9 342.6 379.5 355.1 366.8 365.9C354.1 376.6 341.5 385.4 331.9 391.5C326.9 394.7 322.7 397.2 320 398.8C317.2 397.2 313.1 394.7 308.1 391.5C298.5 385.4 285.9 376.6 273.2 365.9C260.5 355.2 248.1 342.7 238.9 329.2C229.7 315.7 224 301.8 224 288L224 285.3C224 260.3 244.3 240 269.3 240z"/></svg>