<svg xmlns="http://www.w3.org/2000/svg" viewBox="0 0 640 640"><!--! Font Awesome Pro 7.2.0 by @fontawesome - https://fontawesome.com License - https://fontawesome.com/license (Commercial License) Copyright 2026 Fonticons, Inc. --><path fill="currentColor" d="M92.1 549.4L134.2 446.1C101.1 405.1 80 357.5 80 304C80 181.2 186.5 80 320 80C453.5 80 560 181.2 560 304C560 426.8 453.5 528 320 528C284.3 528 249.9 520.1 217 506.5L92.1 549.4zM115.8 448.8L64 576L216.5 523.6C248.1 536.7 283.2 544 320 544C461.4 544 576 436.5 576 304C576 171.5 461.4 64 320 64C178.6 64 64 171.5 64 304C64 358.4 83.3 408.6 115.8 448.8zM208 304C208 312.8 200.8 320 192 320C183.2 320 176 312.8 176 304C176 295.2 183.2 288 192 288C200.8 288 208 295.2 208 304zM192 272C174.3 272 160 286.3 160 304C160 321.7 174.3 336 192 336C209.7 336 224 321.7 224 304C224 286.3 209.7 272 192 272zM336 304C336 312.8 328.8 320 320 320C311.2 320 304 312.8 304 304C304 295.2 311.2 288 320 288C328.8 288 336 295.2 336 304zM320 272C302.3 272 288 286.3 288 304C288 321.7 302.3 336 320 336C337.7 336 352 321.7 352 304C352 286.3 337.7 272 320 272zM448 320C439.2 320 432 312.8 432 304C432 295.2 439.2 288 448 288C456.8 288 464 295.2 464 304C464 312.8 456.8 320 448 320zM416 304C416 321.7 430.3 336 448 336C465.7 336 480 321.7 480 304C480 286.3 465.7 272 448 272C430.3 272 416 286.3 416 304z"/></svg>