<svg xmlns="http://www.w3.org/2000/svg" viewBox="0 0 640 640"><!--! Font Awesome Pro 7.2.0 by @fontawesome - https://fontawesome.com License - https://fontawesome.com/license (Commercial License) Copyright 2026 Fonticons, Inc. --><path fill="currentColor" d="M576 512L352 512L192 608L192 512L64 512L64 96L576 96L576 512zM347.6 496L560 496L560 112L80 112L80 496L208 496L208 579.7L347.6 496zM373.7 186.3L437.7 250.3L443.4 256L437.7 261.7L293.7 405.7L291.7 407.7L288.9 408L216.9 416L207 417.1L208.1 407.2L216.1 335.2L216.4 332.4L218.4 330.4L362.4 186.4L368.1 180.7L373.8 186.4zM225.1 398.9L284.4 392.3L420.8 255.9L368.1 203.2L231.7 339.6L225.1 398.9z"/></svg>