<svg xmlns="http://www.w3.org/2000/svg" viewBox="0 0 640 640"><!--! Font Awesome Pro 7.2.0 by @fontawesome - https://fontawesome.com License - https://fontawesome.com/license (Commercial License) Copyright 2026 Fonticons, Inc. --><path fill="currentColor" d="M208 136L208 128L224 128L224 288L64 288L64 272L208 272L208 136zM216 352L224 352L224 512L208 512L208 368L64 368L64 352L216 352zM432 136L432 272L576 272L576 288L416 288L416 128L432 128L432 136zM424 352L576 352L576 368L432 368L432 512L416 512L416 352L424 352z"/></svg>