<svg xmlns="http://www.w3.org/2000/svg" viewBox="0 0 640 640"><!--! Font Awesome Pro 7.2.0 by @fontawesome - https://fontawesome.com License - https://fontawesome.com/license (Commercial License) Copyright 2026 Fonticons, Inc. --><path fill="currentColor" d="M352 560C431.5 560 496 495.5 496 416L496 80L144 80L144 416C144 495.5 208.5 560 288 560L352 560zM128 64L512 64L512 416C512 504.4 440.4 576 352 576L288 576C199.6 576 128 504.4 128 416L128 64zM304 176L304 240L336 240L336 176L304 176zM288 160L352 160L352 256L288 256L288 160z"/></svg>