<svg xmlns="http://www.w3.org/2000/svg" viewBox="0 0 640 640"><!--! Font Awesome Pro 7.2.0 by @fontawesome - https://fontawesome.com License - https://fontawesome.com/license (Commercial License) Copyright 2026 Fonticons, Inc. --><path fill="currentColor" d="M352 80L352 144L288 144L288 80L352 80zM288 64L272 64L272 160L368 160L368 64L288 64zM288 224L352 224L352 288L288 288L288 224zM272 208L272 304L368 304L368 208L272 208zM144 368L208 368L208 432L144 432L144 368zM128 352L128 448L224 448L224 352L128 352zM288 368L352 368L352 432L288 432L288 368zM272 352L272 448L368 448L368 352L272 352zM496 368L496 432L432 432L432 368L496 368zM432 352L416 352L416 448L512 448L512 352L432 352zM208 224L208 288L144 288L144 224L208 224zM144 208L128 208L128 304L224 304L224 208L144 208zM432 224L496 224L496 288L432 288L432 224zM416 208L416 304L512 304L512 208L416 208zM288 512L352 512L352 576L288 576L288 512zM272 496L272 592L368 592L368 496L272 496zM208 80L208 144L144 144L144 80L208 80zM144 64L128 64L128 160L224 160L224 64L144 64zM432 80L496 80L496 144L432 144L432 80zM416 64L416 160L512 160L512 64L416 64z"/></svg>