<svg xmlns="http://www.w3.org/2000/svg" viewBox="0 0 640 640"><!--! Font Awesome Pro 7.2.0 by @fontawesome - https://fontawesome.com License - https://fontawesome.com/license (Commercial License) Copyright 2026 Fonticons, Inc. --><path fill="currentColor" d="M528 112L528 528L112 528L112 112L528 112zM112 96L96 96L96 544L544 544L544 96L112 96zM208 224C208 215.2 215.2 208 224 208C232.8 208 240 215.2 240 224C240 232.8 232.8 240 224 240C215.2 240 208 232.8 208 224zM224 256C241.7 256 256 241.7 256 224C256 206.3 241.7 192 224 192C206.3 192 192 206.3 192 224C192 241.7 206.3 256 224 256zM224 432C215.2 432 208 424.8 208 416C208 407.2 215.2 400 224 400C232.8 400 240 407.2 240 416C240 424.8 232.8 432 224 432zM192 416C192 433.7 206.3 448 224 448C241.7 448 256 433.7 256 416C256 398.3 241.7 384 224 384C206.3 384 192 398.3 192 416zM400 224C400 215.2 407.2 208 416 208C424.8 208 432 215.2 432 224C432 232.8 424.8 240 416 240C407.2 240 400 232.8 400 224zM416 256C433.7 256 448 241.7 448 224C448 206.3 433.7 192 416 192C398.3 192 384 206.3 384 224C384 241.7 398.3 256 416 256zM416 432C407.2 432 400 424.8 400 416C400 407.2 407.2 400 416 400C424.8 400 432 407.2 432 416C432 424.8 424.8 432 416 432zM384 416C384 433.7 398.3 448 416 448C433.7 448 448 433.7 448 416C448 398.3 433.7 384 416 384C398.3 384 384 398.3 384 416z"/></svg>