<svg xmlns="http://www.w3.org/2000/svg" viewBox="0 0 640 640"><!--! Font Awesome Pro 7.2.0 by @fontawesome - https://fontawesome.com License - https://fontawesome.com/license (Commercial License) Copyright 2026 Fonticons, Inc. --><path fill="currentColor" d="M112 112L112 528L528 528L528 112L112 112zM96 96L544 96L544 544L96 544L96 96zM224 208C215.2 208 208 215.2 208 224C208 232.8 215.2 240 224 240C232.8 240 240 232.8 240 224C240 215.2 232.8 208 224 208zM256 224C256 241.7 241.7 256 224 256C206.3 256 192 241.7 192 224C192 206.3 206.3 192 224 192C241.7 192 256 206.3 256 224zM336 320C336 311.2 328.8 304 320 304C311.2 304 304 311.2 304 320C304 328.8 311.2 336 320 336C328.8 336 336 328.8 336 320zM320 288C337.7 288 352 302.3 352 320C352 337.7 337.7 352 320 352C302.3 352 288 337.7 288 320C288 302.3 302.3 288 320 288zM416 400C407.2 400 400 407.2 400 416C400 424.8 407.2 432 416 432C424.8 432 432 424.8 432 416C432 407.2 424.8 400 416 400zM448 416C448 433.7 433.7 448 416 448C398.3 448 384 433.7 384 416C384 398.3 398.3 384 416 384C433.7 384 448 398.3 448 416z"/></svg>