<svg xmlns="http://www.w3.org/2000/svg" viewBox="0 0 640 640"><!--! Font Awesome Pro 7.2.0 by @fontawesome - https://fontawesome.com License - https://fontawesome.com/license (Commercial License) Copyright 2026 Fonticons, Inc. --><path fill="currentColor" d="M192.3 384L192.3 368L448.3 368L448.3 479C454.9 472.9 518.2 414.1 600.6 337.6C604.6 333.9 610.9 328 619.5 320C617.8 318.4 581 284.3 488.6 198.4C471 182 457.5 169.6 448.3 161L448.3 272L192.3 272L192.3 161C185.7 167.1 122.4 225.9 40 302.4C36 306.1 29.7 312 21.1 320C22.8 321.6 59.6 355.7 152 441.6C169.6 458 183.1 470.4 192.3 479L192.3 384zM176.3 442.3L162.9 429.8L50.9 325.8L44.6 319.9L50.9 314L162.9 210L176.3 197.5L176.3 287.8L464.3 287.8L464.3 197.5L477.7 210L589.7 314L596 319.9L589.7 325.8L477.7 429.8L464.3 442.3L464.3 352L176.3 352L176.3 442.3z"/></svg>