<svg xmlns="http://www.w3.org/2000/svg" viewBox="0 0 640 640"><!--! Font Awesome Pro 7.2.0 by @fontawesome - https://fontawesome.com License - https://fontawesome.com/license (Commercial License) Copyright 2026 Fonticons, Inc. --><path fill="currentColor" d="M528 112L48 112L48 464L304 464C304 469.4 304.2 474.7 304.7 480L238.8 480L225.5 560L329.7 560C332.9 565.5 336.3 570.9 340 576L128 576L128 560L209.2 560L222.5 480L31.9 480L31.9 96L543.9 96L543.9 278C538.6 276.6 533.3 275.5 527.9 274.6L528 112zM448 278L448 219.3L317.7 349.6L312 355.3L306.3 349.6L232 275.3L125.7 381.6L120 387.3L108.7 376L114.4 370.3L226.4 258.3L232.1 252.6L237.8 258.3L312.1 332.6L436.8 207.9L360.1 207.9L360.1 191.9L464.1 191.9L464.1 274.6C458.7 275.5 453.4 276.6 448.1 278zM496 592C566.7 592 624 534.7 624 464C624 393.3 566.7 336 496 336C425.3 336 368 393.3 368 464C368 534.7 425.3 592 496 592zM496 320C575.5 320 640 384.5 640 464C640 543.5 575.5 608 496 608C416.5 608 352 543.5 352 464C352 384.5 416.5 320 496 320zM504 376L504 400L536 400L536 416L482.2 416C472.2 416 464 424.1 464 434.2C464 443 470.3 450.5 478.9 452.1L523.9 460.3C540.1 463.3 552 477.4 552 493.9C552 512.8 536.7 528.1 517.8 528.1L504 528.1L504 552.1L488 552.1L488 528.1L456 528.1L456 512.1L517.8 512.1C527.8 512.1 536 504 536 493.9C536 485.1 529.7 477.6 521.1 476L476.1 467.8C459.9 464.8 448 450.7 448 434.2C448 415.3 463.3 400 482.2 400L488 400L488 376L504 376z"/></svg>