<svg xmlns="http://www.w3.org/2000/svg" viewBox="0 0 640 640"><!--! Font Awesome Pro 7.2.0 by @fontawesome - https://fontawesome.com License - https://fontawesome.com/license (Commercial License) Copyright 2026 Fonticons, Inc. --><path fill="currentColor" d="M320 112C417.2 112 496 190.8 496 288C496 385.2 417.2 464 320 464C222.8 464 144 385.2 144 288C144 190.8 222.8 112 320 112zM320 480C426 480 512 394 512 288C512 182 426 96 320 96C214 96 128 182 128 288C128 394 214 480 320 480zM48 416L32 416L32 576L608 576L608 416L592 416L592 560L48 560L48 416zM328 208L328 184L312 184L312 208L306.6 208C283 208 264 227.1 264 250.6C264 271.4 279.1 289.2 299.6 292.7L337.7 299C350.6 301.1 360 312.3 360 325.3C360 340 348.1 351.9 333.4 351.9L272 351.9L272 367.9L312 367.9L312 391.9L328 391.9L328 367.9L333.4 367.9C357 367.9 376 348.8 376 325.3C376 304.5 360.9 286.7 340.4 283.2L302.3 276.9C289.5 274.8 280 263.6 280 250.6C280 235.9 291.9 224 306.6 224L360 224L360 208L328 208z"/></svg>