<svg xmlns="http://www.w3.org/2000/svg" viewBox="0 0 640 640"><!--! Font Awesome Pro 7.2.0 by @fontawesome - https://fontawesome.com License - https://fontawesome.com/license (Commercial License) Copyright 2026 Fonticons, Inc. --><path fill="currentColor" d="M384 240L368 240L368 80L272 80L272 240L165.4 240L178.1 253.5L314.1 397.5L319.9 403.7L325.7 397.5L461.7 253.5L474.4 240L383.8 240zM384 64L384 224L511.7 224C510.5 225.2 440.4 299.5 337.5 408.5C334 412.2 328.1 418.4 320.1 427C312 418.4 306.2 412.3 302.7 408.5L166.7 264.5C149.8 246.7 137.1 233.3 128.3 224L256 224L256 64L384 64zM112 392L112 560L528 560L528 384L544 384L544 568C544 572.4 540.4 576 536 576L104 576C99.6 576 96 572.4 96 568L96 384L112 384L112 392z"/></svg>