<svg xmlns="http://www.w3.org/2000/svg" viewBox="0 0 640 640"><!--! Font Awesome Pro 7.2.0 by @fontawesome - https://fontawesome.com License - https://fontawesome.com/license (Commercial License) Copyright 2026 Fonticons, Inc. --><path fill="currentColor" d="M456 576L456 224L592 224L592 208L459.3 75.3L448 64L436.7 75.3L304 208L304 224L440 224L440 576L456 576zM200 416L200 64L184 64L184 416L48 416L48 432L180.7 564.7L192 576L203.3 564.7L336 432L336 416L200 416zM326.6 208L448 86.6L569.4 208L326.6 208zM192 553.4L70.6 432L313.4 432L192 553.4z"/></svg>