<svg xmlns="http://www.w3.org/2000/svg" viewBox="0 0 640 640"><!--! Font Awesome Pro 7.2.0 by @fontawesome - https://fontawesome.com License - https://fontawesome.com/license (Commercial License) Copyright 2026 Fonticons, Inc. --><path fill="currentColor" d="M512 576L496 576L496 544L144 544L144 576L128 576L128 64L512 64L512 576zM144 368L144 528L496 528L496 368L144 368zM368 432L272 432L272 416L368 416L368 432zM144 352L496 352L496 208L144 208L144 352zM368 272L272 272L272 256L368 256L368 272zM144 192L496 192L496 80L144 80L144 192z"/></svg>