<svg xmlns="http://www.w3.org/2000/svg" viewBox="0 0 640 640"><!--! Font Awesome Pro 7.2.0 by @fontawesome - https://fontawesome.com License - https://fontawesome.com/license (Commercial License) Copyright 2026 Fonticons, Inc. --><path fill="currentColor" d="M154.5 64L160.7 101.3L191 283L67.7 529.7L44.5 576L596.1 576L572.9 529.7L449.6 283L479.8 101.3C482.3 86.2 484.4 73.8 486 64C476.1 64 463.5 64 448.2 64L241.2 64C245.5 81.1 249 95.3 251.9 106.6C259.7 138 287.9 160 320.3 160C352.7 160 380.8 138 388.7 106.6C391.5 95.3 395 81.1 399.3 64zM408.8 92.1L411.8 80C427.6 80 463.3 80 467.2 80L464.1 98.6L433.8 280.3L432.9 285.4L435.2 290.1L558.5 536.8L570.1 560L70.3 560L81.9 536.8L205.2 290.1L207.5 285.4L206.6 280.3L176.3 98.6L173.2 80L228.6 80C230.4 87 232.9 97.2 236.2 110.5C245.8 149 280.4 176 320.1 176C359.8 176 394.4 149 404 110.5L408.6 92.1z"/></svg>