<svg xmlns="http://www.w3.org/2000/svg" viewBox="0 0 640 640"><!--! Font Awesome Pro 7.2.0 by @fontawesome - https://fontawesome.com License - https://fontawesome.com/license (Commercial License) Copyright 2026 Fonticons, Inc. --><path fill="currentColor" d="M77.6 144L50.9 304L62.9 304L62.9 304L153 304L174.8 144L77.5 144zM591.8 320L575.1 320L546.2 544L530.1 544L534.2 512L105.9 512L110 544L93.9 544L65 320L32 320L34.7 304L64 128L576 128L605.3 304L608 320L591.8 320zM558.9 320L81.1 320L103.8 496L536.2 496L558.9 320zM577.1 304L577.1 304L589.1 304L562.4 144L464.8 144L486.9 304L577 304zM328 144L328 304L470.8 304L448.7 144L328 144zM191 144L169.2 304L312 304L312 144L191 144z"/></svg>