<svg xmlns="http://www.w3.org/2000/svg" viewBox="0 0 640 640"><!--! Font Awesome Pro 7.2.0 by @fontawesome - https://fontawesome.com License - https://fontawesome.com/license (Commercial License) Copyright 2026 Fonticons, Inc. --><path fill="currentColor" d="M447.8 523.2L420.6 496L351.9 496L351.9 420.7L420.6 352L495.9 352L495.9 384L551.3 384C556.9 363.6 559.9 342.2 559.9 320C559.9 203.9 477.4 107 367.9 84.8L367.9 171.3L365.6 173.6L335.9 203.3L335.9 288L287.9 288L287.9 384L212.6 384L210.3 381.7L180.6 352L82 352C97.6 469.4 198.2 560 319.9 560C366.9 560 410.7 546.5 447.7 523.2zM184 336L187.3 336L189.6 338.3L219.3 368L272 368L272 272L320 272L320 196.7L322.3 194.4L352 164.7L352 82.1C341.5 80.7 330.9 80 320 80C187.5 80 80 187.5 80 320C80 325.4 80.2 330.7 80.5 336L184 336zM461.3 514C500.1 485.7 530 446.1 546.3 400L480 400L480 368L427.3 368L368 427.3L368 480L427.3 480L429.6 482.3L461.3 514zM64 320C64 178.6 178.6 64 320 64C461.4 64 576 178.6 576 320C576 461.4 461.4 576 320 576C178.6 576 64 461.4 64 320zM400 216L400 256L384 256L384 208L400 208L400 216zM352 328L352 368L336 368L336 320L352 320L352 328zM216 416L256 416L256 432L208 432L208 416L216 416z"/></svg>