<svg xmlns="http://www.w3.org/2000/svg" viewBox="0 0 640 640"><!--! Font Awesome Pro 7.2.0 by @fontawesome - https://fontawesome.com License - https://fontawesome.com/license (Commercial License) Copyright 2026 Fonticons, Inc. --><path fill="currentColor" d="M608.9 321.9L606.4 325C604.8 326.9 597.9 335 586.7 345.7C573.9 358 555.1 374.3 530.6 390.6C530.3 390.8 530 390.9 529.7 391.1L579.2 476.9L565.3 484.9L516.1 399.7C492.2 414.3 463.8 428.2 431.3 438.6L458 538.1L442.5 542.2L416 443.1C389.2 450.4 359.9 455 328.2 455.7L328.2 559.9L312.2 559.9L312.2 455.7C280.5 455 251.2 450.3 224.4 443.1L197.9 542.2L182.4 538.1L209.1 438.6C176.6 428.3 148.2 414.3 124.3 399.8L75.2 485L61.3 477L110.8 391.3C110.5 391.1 110.1 390.9 109.8 390.7C85.3 374.4 66.5 358.1 53.7 345.8C42.5 335.1 35.6 327 34 325.1L31.5 322L43.9 311.9L46.4 315C47.7 316.5 54 324 64.7 334.2C76.9 345.9 95.1 361.6 118.6 377.3C165.7 408.7 234.2 440 320.2 440C406.2 440 474.7 408.7 521.8 377.3C545.3 361.6 563.5 345.9 575.7 334.2C586.4 324 592.8 316.5 594 315L596.5 311.9L608.9 322z"/></svg>