<svg xmlns="http://www.w3.org/2000/svg" viewBox="0 0 640 640"><!--! Font Awesome Pro 7.2.0 by @fontawesome - https://fontawesome.com License - https://fontawesome.com/license (Commercial License) Copyright 2026 Fonticons, Inc. --><path fill="currentColor" d="M349.8 558.2C350.6 563.5 351.8 568.7 353.4 573.9C342.6 575.3 331.5 576 320.3 576C309.6 576 299 575.3 288.6 574.1C290.3 569 291.5 563.7 292.3 558.4C301.5 559.5 310.8 560 320.3 560C330.3 560 340.1 559.4 349.8 558.2zM80.3 320C80.3 343.9 83.8 367 90.3 388.8C85.4 391 80.6 393.6 76 396.7C68.4 372.5 64.3 346.7 64.3 320C64.3 178.6 178.9 64 320.3 64C461.7 64 576.3 178.6 576.3 320C576.3 346.4 572.3 371.9 564.9 395.9C560.3 392.9 555.5 390.3 550.5 388.2C556.9 366.6 560.3 343.7 560.3 320C560.3 187.5 452.8 80 320.3 80C187.8 80 80.3 187.5 80.3 320zM184.3 304L272.3 304L272.3 320L176.3 320L176.3 304L184.3 304zM376.3 304L464.3 304L464.3 320L368.3 320L368.3 304L376.3 304zM443 219.6L435.8 223.2L364.6 258.8L357.4 244.5L364.6 240.9L435.8 205.3L443 219.6zM204.7 223.2L197.5 219.6L204.7 205.3L275.9 240.9L283.1 244.5L275.9 258.8L204.7 223.2zM540.9 448.2C525.3 432.6 500 432.6 484.3 448.2C479.7 452.8 476.5 458.2 474.6 464L471.6 473.2L463.1 468.6L404.5 436.4L436.7 495L441.3 503.5L432.1 506.5C426.3 508.4 420.9 511.6 416.3 516.2C400.7 531.8 400.7 557.1 416.3 572.8C428.6 585.1 447 587.7 461.9 580.6L467.2 578L471.2 582.4C471.7 583 472.3 583.6 472.8 584.1C494.7 606 530.1 606 552 584.1C573.9 562.2 573.9 526.8 552 504.9C551.4 504.3 550.9 503.8 550.3 503.3L545.9 499.3L548.5 494C555.6 479.1 553 460.7 540.7 448.4zM473 436.9C494.9 415 530.3 415 552.2 436.9C568 452.7 572.4 475.6 565.3 495.4C591.6 523.6 591 567.8 563.5 595.3C536 622.8 491.8 623.4 463.6 597.1C443.9 604.1 421 599.8 405.1 584C383.2 562.1 383.2 526.7 405.1 504.8C409.1 500.8 413.7 497.5 418.5 494.9C386.3 436.4 368.2 403.4 364 395.8C371.6 400 404.7 418.2 463.1 450.3C465.7 445.5 468.9 441 473 436.9zM157.8 448.2C142.2 432.6 116.9 432.6 101.2 448.2C88.9 460.5 86.3 478.9 93.4 493.8L96 499.1L91.6 503.1C91 503.6 90.4 504.2 89.9 504.7C68 526.6 68 562 89.9 583.9C111.8 605.8 147.2 605.8 169.1 583.9C169.7 583.3 170.2 582.8 170.7 582.2L174.7 577.8L180 580.4C194.9 587.5 213.3 584.9 225.6 572.6C241.2 557 241.2 531.7 225.6 516C220.9 511.3 215.3 508 209.3 506.1L200 503.2L204.6 494.7L236.2 436.2L178.8 468.1L170.4 472.8L167.3 463.7C165.4 458 162.2 452.7 157.7 448.2zM89.9 436.9C111.8 415 147.2 415 169.1 436.9C173.1 440.9 176.3 445.3 178.8 450C236.2 418.1 268.7 400.1 276.4 395.8C272.3 403.4 254.5 436.4 223 494.6C228 497.2 232.7 500.6 236.9 504.8C258.8 526.7 258.8 562.1 236.9 584C221.1 599.8 198.2 604.2 178.4 597.1C150.2 623.4 106 622.8 78.5 595.3C51 567.8 50.4 523.6 76.7 495.4C69.7 475.7 74 452.8 89.8 436.9z"/></svg>