<svg xmlns="http://www.w3.org/2000/svg" viewBox="0 0 640 640"><!--! Font Awesome Pro 7.2.0 by @fontawesome - https://fontawesome.com License - https://fontawesome.com/license (Commercial License) Copyright 2026 Fonticons, Inc. --><path fill="currentColor" d="M560 320C560 187.5 452.5 80 320 80C187.5 80 80 187.5 80 320C80 452.5 187.5 560 320 560C452.5 560 560 452.5 560 320zM64 320C64 178.6 178.6 64 320 64C461.4 64 576 178.6 576 320C576 461.4 461.4 576 320 576C178.6 576 64 461.4 64 320zM271.6 408C268.1 443.1 242 471.5 208 478.4L208 462C235.6 454.9 256 429.8 256 400C256 370.2 235.6 345.1 208 338L208 321.6C242 328.5 268.1 356.9 271.6 392L368.4 392C371.9 356.9 398 328.5 432 321.6L432 338C404.4 345.1 384 370.2 384 400C384 429.8 404.4 454.9 432 462L432 478.4C398 471.5 371.9 443.1 368.4 408L271.6 408zM400 256C408.8 256 416 263.2 416 272C416 280.8 408.8 288 400 288C391.2 288 384 280.8 384 272C384 263.2 391.2 256 400 256zM256 272C256 280.8 248.8 288 240 288C231.2 288 224 280.8 224 272C224 263.2 231.2 256 240 256C248.8 256 256 263.2 256 272zM243.6 199.2L172.4 234.8L165.2 220.5L172.4 216.9L243.6 181.3L250.8 195.6L243.6 199.2zM389.3 195.6L396.5 181.3L467.7 216.9L474.9 220.5L467.7 234.8L396.5 199.2L389.3 195.6z"/></svg>