<svg xmlns="http://www.w3.org/2000/svg" viewBox="0 0 640 640"><!--! Font Awesome Pro 7.2.0 by @fontawesome - https://fontawesome.com License - https://fontawesome.com/license (Commercial License) Copyright 2026 Fonticons, Inc. --><path fill="currentColor" d="M320 576C461.4 576 576 461.4 576 320C576 178.6 461.4 64 320 64C178.6 64 64 178.6 64 320C64 461.4 178.6 576 320 576zM320 560C187.5 560 80 452.5 80 320C80 300.7 82.3 282 86.6 264L144 264C143.8 266.6 143.7 269.3 143.7 272C143.7 323 185.1 364.4 236.1 364.4C239.6 364.4 243.1 364.2 246.6 363.8L216.1 379L216.1 420.9L243.7 434.7L212.9 473.2L225.4 483.2L258.4 442L278 451.8L261.8 492.4L276.7 498.3L292.4 458.9L312.2 468.8L312.2 503.9L328.2 503.9L328.2 468.8L348 458.9L363.7 498.3L378.6 492.4L362.4 451.8L382 442L415 483.2L427.5 473.2L396.7 434.7L424.3 420.9L424.3 379L393.8 363.8C397.2 364.2 400.7 364.4 404.3 364.4C455.3 364.4 496.7 323 496.7 272C496.7 269.3 496.6 266.6 496.4 264L553.8 264C558.1 282 560.4 300.7 560.4 320C560.4 452.5 452.9 560 320.4 560zM146.7 248L91 248C121.6 150.6 212.5 80 320 80C427.5 80 518.4 150.6 549 248L493.2 248C482.6 208.6 446.7 179.6 403.9 179.6C366.6 179.6 334.5 201.7 319.9 233.5C305.3 201.7 273.2 179.6 235.9 179.6C193.2 179.6 157.2 208.6 146.6 248zM310.1 257.2L260.8 343.4C253 346.1 244.7 347.6 235.9 347.6C194.1 347.6 160.3 313.8 160.3 272C160.3 230.2 194.1 196.4 235.9 196.4C272.6 196.4 303.2 222.5 310.1 257.2zM404 347.6C395.3 347.6 386.9 346.1 379.1 343.4L329.8 257.2C336.7 222.5 367.3 196.4 404 196.4C445.8 196.4 479.6 230.2 479.6 272C479.6 313.8 445.8 347.6 404 347.6zM261.7 374.1L316.6 280L323.4 280L378.3 374.1L408 389L408 411.1L320 455.1L232 411.1L232 389L261.7 374.1zM256 272C256 263.2 248.8 256 240 256C231.2 256 224 263.2 224 272C224 280.8 231.2 288 240 288C248.8 288 256 280.8 256 272zM400 288C408.8 288 416 280.8 416 272C416 263.2 408.8 256 400 256C391.2 256 384 263.2 384 272C384 280.8 391.2 288 400 288z"/></svg>