<svg xmlns="http://www.w3.org/2000/svg" viewBox="0 0 640 640"><!--! Font Awesome Pro 7.2.0 by @fontawesome - https://fontawesome.com License - https://fontawesome.com/license (Commercial License) Copyright 2026 Fonticons, Inc. --><path fill="currentColor" d="M560.3 320C560.3 318.4 560.3 316.9 560.3 315.4L444 431.7L448.1 437.3L435.2 446.7L430.5 440.2C405.8 406.2 365.7 384.1 320.4 384.1C275.1 384.1 235 406.2 210.3 440.2L205.6 446.7L192.7 437.3L197.4 430.8C225 392.8 269.8 368.1 320.4 368.1C331.8 368.1 342.8 369.3 353.5 371.7L527 198C485.2 127.4 408.3 80 320.3 80C187.8 80 80.3 187.5 80.3 320C80.3 452.5 187.8 560 320.3 560C452.8 560 560.3 452.5 560.3 320zM575.5 300.1C576 306.7 576.3 313.3 576.3 320C576.3 461.4 461.7 576 320.3 576C178.9 576 64.3 461.4 64.3 320C64.3 178.6 178.9 64 320.3 64C412.7 64 493.7 112.9 538.7 186.3C559.5 165.5 593.2 165.5 614 186.3C634.8 207.1 634.8 240.8 614 261.6L575.6 300zM433.9 419L484.9 368L460.9 344L472.2 332.7L496.2 356.7L532.9 320L530.6 317.7C518.2 305.3 511 298 508.9 296L520.2 284.7C522.2 286.7 529.5 294 541.9 306.4L544.2 308.7L580.9 272L578.6 269.7C566.2 257.3 559 250 556.9 248L568.2 236.7C570.2 238.7 577.5 246 589.9 258.4L592.2 260.7L602.5 250.4C617.1 235.9 617.1 212.3 602.5 197.7C587.9 183.1 564.4 183.2 549.8 197.7L370.8 376.7C395.3 385.4 416.9 400.1 433.8 419.1zM240.3 256C249.1 256 256.3 263.2 256.3 272C256.3 280.8 249.1 288 240.3 288C231.5 288 224.3 280.8 224.3 272C224.3 263.2 231.5 256 240.3 256zM384.3 272C384.3 263.2 391.5 256 400.3 256C409.1 256 416.3 263.2 416.3 272C416.3 280.8 409.1 288 400.3 288C391.5 288 384.3 280.8 384.3 272z"/></svg>