<svg xmlns="http://www.w3.org/2000/svg" viewBox="0 0 640 640"><!--! Font Awesome Pro 7.2.0 by @fontawesome - https://fontawesome.com License - https://fontawesome.com/license (Commercial License) Copyright 2026 Fonticons, Inc. --><path fill="currentColor" d="M430 533.4C507.2 493.5 560 412.9 560 320C560 187.5 452.5 80 320 80C187.5 80 80 187.5 80 320C80 412.9 132.8 493.5 210 533.4C211.4 540.5 213.5 547.5 216.2 554.1C126.5 514.2 64 424.4 64 320C64 178.6 178.6 64 320 64C461.4 64 576 178.6 576 320C576 424.4 513.5 514.2 423.8 554.1C426.5 547.5 428.5 540.6 429.9 533.4zM392 478.9L392 504C392 543.8 359.8 576 320 576C280.2 576 248 543.8 248 504L248 478.9C206.5 458 175.4 419.5 164.4 373.2C163 367.2 161.9 361 161.1 354.8C166.7 357.1 172.4 359.2 178.2 361.2C220.1 375.7 268.4 384 320 384C371.6 384 419.9 375.7 461.8 361.2C467.6 359.2 473.3 357 478.9 354.8C478.2 361.1 477.1 367.2 475.6 373.2C464.6 419.5 433.4 457.9 392 478.9zM392 460.7C422.8 442.9 446.4 414 457.3 379.5C416 392.6 369.3 399.9 320 399.9C270.7 399.9 224 392.6 182.7 379.5C193.6 414 217.2 442.9 248 460.7L248 432L392 432L392 460.7zM216 256C193.9 256 176 273.9 176 296L160 296C160 265.1 185.1 240 216 240L232 240C262.9 240 288 265.1 288 296L272 296C272 273.9 254.1 256 232 256L216 256zM400 256C408.8 256 416 263.2 416 272C416 280.8 408.8 288 400 288C391.2 288 384 280.8 384 272C384 263.2 391.2 256 400 256zM400 328C430.9 328 456 302.9 456 272C456 241.1 430.9 216 400 216C369.1 216 344 241.1 344 272C344 302.9 369.1 328 400 328zM400 200C439.8 200 472 232.2 472 272C472 311.8 439.8 344 400 344C360.2 344 328 311.8 328 272C328 232.2 360.2 200 400 200zM264 504C264 534.9 289.1 560 320 560C350.9 560 376 534.9 376 504L376 448L328 448L328 488L312 488L312 448L264 448L264 504z"/></svg>