<svg xmlns="http://www.w3.org/2000/svg" viewBox="0 0 640 640"><!--! Font Awesome Pro 7.2.0 by @fontawesome - https://fontawesome.com License - https://fontawesome.com/license (Commercial License) Copyright 2026 Fonticons, Inc. --><path fill="currentColor" d="M576.1 320L560.1 320C560.1 187.5 452.6 80 320.1 80C187.6 80 80.1 187.5 80.1 320L64.1 320C64.1 178.6 178.7 64 320.1 64C461.5 64 576.1 178.6 576.1 320zM391.2 549.3C386 537.2 383.1 523.9 383.1 509.9L383.1 442.4C363.9 451.2 342.6 456 320.1 456C297.6 456 276.3 451.1 257.1 442.4L257.1 509.9C257.1 523.9 254.2 537.2 249 549.3C271.5 556.3 295.4 560 320.1 560C344.8 560 368.8 556.2 391.2 549.3zM383.1 424.6L383.1 392.6L442.1 392.6L442.1 438.6L514.5 366.2L520.2 360.5L525.9 366.2L558.1 398.4C564.4 392.1 569.1 387.4 572.4 384.1L616.8 428.5L622.5 434.2C621.6 435.1 612.1 444.6 593.9 462.8L626.1 495L631.8 500.7L626.1 506.4L552.4 580.1C533.8 598.7 508.6 609.1 482.3 609.1C447.4 609.1 416.7 591 399 563.7C374.2 571.7 347.7 576.1 320.2 576.1C292.7 576.1 266.2 571.8 241.4 563.7C223.7 591 193 609.1 158.1 609.1C131.8 609.1 106.6 598.7 88 580.1L14.3 506.4L8.6 500.7L14.3 495L46.5 462.8C28.2 444.5 18.6 435 17.8 434.1L23.5 428.4L62.3 389.6L68 383.9C71.3 387.2 76 391.9 82.3 398.2L114.5 366L120.2 360.3L125.9 366L198.3 438.4L198.3 392.4L257.3 392.4L257.3 424.4C276.1 434.3 297.6 439.8 320.3 439.8C343 439.8 364.5 434.2 383.3 424.4zM240.1 232C218 232 200.1 249.9 200.1 272L200.1 296L184.1 296L184.1 272C184.1 241.1 209.2 216 240.1 216C271 216 296.1 241.1 296.1 272L296.1 296L280.1 296L280.1 272C280.1 249.9 262.2 232 240.1 232zM360.1 272L360.1 296L344.1 296L344.1 272C344.1 241.1 369.2 216 400.1 216C431 216 456.1 241.1 456.1 272L456.1 296L440.1 296L440.1 272C440.1 249.9 422.2 232 400.1 232C378 232 360.1 249.9 360.1 272zM57.7 474L31.1 500.6L99.1 568.6C114.7 584.2 135.8 592.9 157.9 592.9C203.8 592.9 241 555.7 241 509.8L241 408.5L214 408.5L214 477.1L200.3 463.4L119.9 383L93.3 409.6L152.1 468.4L140.8 479.7L76.4 415.3C72.2 411.1 69.3 408.2 67.7 406.6L40.4 434.1C62.9 456.6 69.7 463.4 113.5 507.2L102.2 518.5L57.7 474zM582.4 474L537.9 518.5L526.6 507.2L576.7 457.1C578.5 455.3 586.2 447.6 599.7 434.1L572.3 406.7C570.7 408.3 567.9 411.1 563.6 415.4L499.2 479.8L487.9 468.5L546.7 409.7L520.1 383.1L439.7 463.5L426 477.2L426 408.6L399 408.6L399 509.9C399 555.8 436.2 593 482.1 593C504.1 593 525.3 584.2 540.9 568.7L608.9 500.7L582.3 474.1z"/></svg>