<svg xmlns="http://www.w3.org/2000/svg" viewBox="0 0 640 640"><!--! Font Awesome Pro 7.2.0 by @fontawesome - https://fontawesome.com License - https://fontawesome.com/license (Commercial License) Copyright 2026 Fonticons, Inc. --><path fill="currentColor" d="M560 320C560 187.5 452.5 80 320 80C187.5 80 80 187.5 80 320C80 452.5 187.5 560 320 560C452.5 560 560 452.5 560 320zM64 320C64 178.6 178.6 64 320 64C461.4 64 576 178.6 576 320C576 461.4 461.4 576 320 576C178.6 576 64 461.4 64 320zM240 304C248.8 304 256 311.2 256 320C256 328.8 248.8 336 240 336C231.2 336 224 328.8 224 320C224 311.2 231.2 304 240 304zM384 320C384 311.2 391.2 304 400 304C408.8 304 416 311.2 416 320C416 328.8 408.8 336 400 336C391.2 336 384 328.8 384 320zM256.5 208C224 210 194.9 224.5 173.8 246.7L168.3 252.5L156.7 241.5L162.2 235.7C185.9 210.6 218.8 194.3 255.5 192L263.5 191.5L264.5 207.5L256.5 208zM375.5 207.5L376.5 191.5L384.5 192C421.2 194.3 454.1 210.6 477.8 235.7L483.3 241.5L471.7 252.5L466.2 246.7C445.1 224.5 416 210 383.5 208L375.5 207.5zM368 448C368 421.5 346.5 400 320 400C293.5 400 272 421.5 272 448C272 474.5 293.5 496 320 496C346.5 496 368 474.5 368 448zM256 448C256 412.7 284.7 384 320 384C355.3 384 384 412.7 384 448C384 483.3 355.3 512 320 512C284.7 512 256 483.3 256 448z"/></svg>