<svg xmlns="http://www.w3.org/2000/svg" viewBox="0 0 640 640"><!--! Font Awesome Pro 7.2.0 by @fontawesome - https://fontawesome.com License - https://fontawesome.com/license (Commercial License) Copyright 2026 Fonticons, Inc. --><path fill="currentColor" d="M560 320C560 187.5 452.5 80 320 80C187.5 80 80 187.5 80 320C80 452.5 187.5 560 320 560C452.5 560 560 452.5 560 320zM64 320C64 178.6 178.6 64 320 64C461.4 64 576 178.6 576 320C576 461.4 461.4 576 320 576C178.6 576 64 461.4 64 320zM244.8 474.2L231.1 465.9C249.4 436 282.4 416 320 416C357.6 416 390.6 436 408.8 465.8L395.1 474.1C379.7 448.9 351.8 432 320 432C288.2 432 260.3 448.9 244.8 474.2zM275.3 312C271.8 315.5 267.5 319.8 262.3 325C239.9 347.4 211.1 362.2 179.8 367.5C179 367.6 175.6 368.2 169.4 369.2L166.8 353.4C173 352.4 176.4 351.8 177.2 351.7C205.2 347 231 333.8 251 313.7C256.2 308.5 260.5 304.2 264 300.7L275.3 312zM370.3 317.7L364.6 312L375.9 300.7C379.4 304.2 383.7 308.5 388.9 313.7C408.9 333.7 434.7 347 462.7 351.7C463.5 351.8 466.9 352.4 473.1 353.4L470.5 369.2C464.3 368.2 460.9 367.6 460.1 367.5C428.8 362.3 400 347.4 377.6 325L370.2 317.6z"/></svg>