<svg xmlns="http://www.w3.org/2000/svg" viewBox="0 0 640 640"><!--! Font Awesome Pro 7.2.0 by @fontawesome - https://fontawesome.com License - https://fontawesome.com/license (Commercial License) Copyright 2026 Fonticons, Inc. --><path fill="currentColor" d="M560 320C560 187.5 452.5 80 320 80C187.5 80 80 187.5 80 320C80 452.5 187.5 560 320 560C452.5 560 560 452.5 560 320zM64 320C64 178.6 178.6 64 320 64C461.4 64 576 178.6 576 320C576 461.4 461.4 576 320 576C178.6 576 64 461.4 64 320zM320 400C270.7 400 224 392.7 182.7 379.6C201.2 437.8 255.7 480 320 480C384.3 480 438.8 437.8 457.3 379.6C416 392.7 369.3 400 320 400zM320 384C371.6 384 419.9 375.7 461.8 361.2C467.6 359.2 473.3 357 478.9 354.8C478.2 361.1 477.1 367.2 475.6 373.2C458.8 443.6 395.5 496 320 496C244.5 496 181.1 443.6 164.4 373.2C163 367.2 161.9 361 161.1 354.8C166.7 357.1 172.4 359.2 178.2 361.2C220.1 375.7 268.4 384 320 384zM188.4 215.2L181.2 211.6L188.4 197.3L296 251.1L296 261L291.6 263.2L188.4 314.8L181.2 300.5L188.4 296.9L270.1 256.1L188.4 215.3zM458.7 211.6L451.5 215.2L369.8 256L451.5 296.8L458.7 300.4L451.5 314.7L348.3 263.1L343.9 260.9L343.9 251L451.5 197.2L458.7 211.5z"/></svg>