<svg xmlns="http://www.w3.org/2000/svg" viewBox="0 0 640 640"><!--! Font Awesome Pro 7.2.0 by @fontawesome - https://fontawesome.com License - https://fontawesome.com/license (Commercial License) Copyright 2026 Fonticons, Inc. --><path fill="currentColor" d="M320 48C192.8 48 88.8 146.9 80.5 272L64.5 272C72.8 138.1 184 32 320 32C456 32 567.2 138.1 575.5 272L559.5 272C551.2 146.9 447.2 48 320 48zM480 384L480 416L448 416L448 384L480 384zM224 496L224 528L192 528L192 496L224 496zM544 480L576 480L576 512L544 512L544 480zM224 240C224 231.2 231.2 224 240 224C248.8 224 256 231.2 256 240C256 248.8 248.8 256 240 256C231.2 256 224 248.8 224 240zM400 224C408.8 224 416 231.2 416 240C416 248.8 408.8 256 400 256C391.2 256 384 248.8 384 240C384 231.2 391.2 224 400 224zM186.9 165.9L194.5 168.4L290.5 200.4L298.1 202.9L293 218.1L285.4 215.6L189.4 183.6L181.8 181.1L186.9 165.9zM458.1 181.1L450.5 183.6L354.5 215.6L346.9 218.1L341.8 202.9L349.4 200.4L445.4 168.4L453 165.9L458.1 181.1zM64 336C37.5 336 16 357.5 16 384L16 512C16 538.5 37.5 560 64 560L576 560C602.5 560 624 538.5 624 512L624 384C624 357.5 602.5 336 576 336L64 336zM0 384C0 348.7 28.7 320 64 320L576 320C611.3 320 640 348.7 640 384L640 512C640 547.3 611.3 576 576 576L64 576C28.7 576 0 547.3 0 512L0 384zM408 496L384 496L384 528L368 528L368 496L304 496L304 528L288 528L288 496L256 496L256 480L288 480L288 416L256 416L256 400L288 400L288 368L304 368L304 400L368 400L368 368L384 368L384 400L416 400L416 416L384 416L384 480L416 480L416 496L408 496zM368 416L304 416L304 480L368 480L368 416zM571.1 373.8L566.7 380.5L470.7 524.5L466.3 531.2L453 522.3L457.4 515.6L553.4 371.6L557.8 364.9L571.1 373.8zM216 376L216 464L200 464L200 368L216 368L216 376zM120 376L120 384L152 384L152 400L98.4 400C88.3 400 80 408.2 80 418.4C80 427.2 86.2 434.7 94.8 436.4L132.4 443.9C148.5 447.1 160 461.2 160 477.6C160 496.6 144.6 512 125.6 512L119.1 512L119.1 528L103.1 528L103.1 512L64 512L64 496L125.6 496C135.7 496 144 487.8 144 477.6C144 468.8 137.8 461.3 129.2 459.6L91.6 452.1C75.5 448.9 64 434.8 64 418.4C64 399.4 79.4 384 98.4 384L104 384L104 368L120 368L120 376z"/></svg>