<svg xmlns="http://www.w3.org/2000/svg" viewBox="0 0 640 640"><!--! Font Awesome Pro 7.2.0 by @fontawesome - https://fontawesome.com License - https://fontawesome.com/license (Commercial License) Copyright 2026 Fonticons, Inc. --><path fill="currentColor" d="M320 560C360.5 560 398.6 550 432 532.3L432 550.2C398.2 566.7 360.2 576 320 576C178.6 576 64 461.4 64 320C64 178.6 178.6 64 320 64C461.4 64 576 178.6 576 320C576 393.2 545.3 459.2 496 505.9L496 576L480 576L480 345.7C460.4 378.2 424.7 400 384 400C322.1 400 272 349.9 272 288C272 226.1 322.1 176 384 176C445.9 176 496 226.1 496 288L496 483.2C535.7 440.3 560 383 560 320C560 187.5 452.5 80 320 80C187.5 80 80 187.5 80 320C80 452.5 187.5 560 320 560zM384 384C437 384 480 341 480 288C480 235 437 192 384 192C331 192 288 235 288 288C288 341 331 384 384 384zM176 224C184.8 224 192 231.2 192 240C192 248.8 184.8 256 176 256C167.2 256 160 248.8 160 240C160 231.2 167.2 224 176 224zM320 256C320 247.2 327.2 240 336 240C344.8 240 352 247.2 352 256C352 264.8 344.8 272 336 272C327.2 272 320 264.8 320 256zM200 416L200.1 416C209.6 416 233.8 416 260.5 423.3C287.3 430.6 317.3 445.4 337.4 475.6L341.8 482.3L328.5 491.2L324.1 484.5C306.9 458.7 280.9 445.5 256.3 438.8C231.7 432.1 209.3 432.1 200.1 432.1L192.1 432.1L192.1 416.1L200.1 416.1z"/></svg>