<svg xmlns="http://www.w3.org/2000/svg" viewBox="0 0 640 640"><!--! Font Awesome Pro 7.2.0 by @fontawesome - https://fontawesome.com License - https://fontawesome.com/license (Commercial License) Copyright 2026 Fonticons, Inc. --><path fill="currentColor" d="M320 560C452.5 560 560 452.5 560 320C560 187.5 452.5 80 320 80C187.5 80 80 187.5 80 320C80 333.7 81.1 347.1 83.3 360.2L67.5 362.5C65.2 348.6 64 334.5 64 320C64 178.6 178.6 64 320 64C461.4 64 576 178.6 576 320C576 461.4 461.4 576 320 576C305.5 576 291.4 574.8 277.6 572.5L279.9 556.7C293 558.9 306.4 560 320.1 560zM368 406.4L372.4 409.4L416.5 438.8C438.5 427.8 450.2 422 451.5 421.3L458.7 435.6C458.1 435.9 445 442.4 419.5 455.2L415.3 457.3L411.4 454.7L367.8 425.7L324.2 454.7L317.5 459.1L308.6 445.8L315.3 441.4L363.3 409.4L367.7 406.4zM181.3 227.6L188.5 213.3L291.7 264.9L296.1 267.1L296.1 277L291.7 279.2L195.7 327.2L188.5 330.8L181.3 316.5L188.5 312.9L270.2 272.1L188.5 231.3L181.3 227.7zM451.6 231.2L369.9 272L451.6 312.8L458.8 316.4L451.6 330.7L444.4 327.1L348.4 279.1L344 276.9L344 267L348.4 264.8L451.6 213.2L458.8 227.5L451.6 231.1zM111.2 485.1L89.3 550.7L154.9 528.8L164.3 525.7L212.7 574.1L237.2 402.9L66 427.4L107.4 468.8L114.4 475.8L111.3 485.2zM32 416L51.8 413.2L239.5 386.4L256 384L253.6 400.5L226.8 588.2L224 608C220.5 604.5 199.2 583.2 160 544C99 564.3 67 575 64 576C65 573 75.7 541 96 480C56.8 440.8 35.5 419.5 32 416z"/></svg>