<svg xmlns="http://www.w3.org/2000/svg" viewBox="0 0 640 640"><!--! Font Awesome Pro 7.2.0 by @fontawesome - https://fontawesome.com License - https://fontawesome.com/license (Commercial License) Copyright 2026 Fonticons, Inc. --><path fill="currentColor" d="M296 104L296 96L280 96L280 144L128 144L128 208L280 208L280 240L236.7 240L234.4 242.3L188.7 288L64 288L64 304L195.3 304L197.6 301.7L243.3 256L332.7 256L378.4 301.7L380.7 304L440 304C506.3 304 560 357.7 560 424L560 464L464 464L464 440.1C464 418 446 400.1 423.9 400.1L379.8 400.2L375.6 400.2L373.2 403.6C354.4 430.5 323.2 448 287.9 448C252.6 448 221.5 430.5 202.6 403.6L200.2 400.2L196 400.2L71.8 400L63.8 400L63.8 416L71.8 416L191.9 416.2C214 445.2 248.8 464 288 464C327.2 464 362 445.2 383.9 416.2L424 416.1C437.3 416.1 448.1 426.8 448.1 440.1L448.1 480L493.4 480L465.3 522.1C459.2 531.2 456 541.8 456 552.8C456 583.3 480.7 608.1 511.3 608.1L512.8 608.1C543.3 608.1 568.1 583.4 568.1 552.8C568.1 541.9 564.9 531.2 558.8 522.1L530.7 480L576 480L576 424C576 348.9 515.1 288 440 288L387.3 288L341.6 242.3L339.3 240L296 240L296 208L448 208L448 144L296 144L296 104zM280 160L280 192L144 192L144 160L280 160zM296 192L296 160L432 160L432 192L296 192zM478.6 531L512 480.8L545.4 531C549.7 537.4 552 545 552 552.8C552 574.5 534.4 592.1 512.7 592.1L511.2 592.1C489.5 592.1 471.9 574.5 471.9 552.8C471.9 545 474.2 537.5 478.5 531z"/></svg>