<svg xmlns="http://www.w3.org/2000/svg" viewBox="0 0 640 640"><!--! Font Awesome Pro 7.2.0 by @fontawesome - https://fontawesome.com License - https://fontawesome.com/license (Commercial License) Copyright 2026 Fonticons, Inc. --><path fill="currentColor" d="M272 181.6L320 121.6L368 181.6L368 528L272 528L272 181.6zM309.8 108.8L256 176L256 240L192 240L192 176L138.2 108.8L128 96L117.8 108.8L64 176L64 544L192 544L192 448L256 448L256 544L384 544L384 448L448 448L448 544L576 544L576 176L522.2 108.8L512 96L501.8 108.8L448 176L448 240L384 240L384 176L330.2 108.8L320 96L309.8 108.8zM448 256L448 432L384 432L384 256L448 256zM256 432L192 432L192 256L256 256L256 432zM80 528L80 181.6L128 121.6L176 181.6L176 528L80 528zM464 528L464 181.6L512 121.6L560 181.6L560 528L464 528z"/></svg>