<svg xmlns="http://www.w3.org/2000/svg" viewBox="0 0 640 640"><!--! Font Awesome Pro 7.2.0 by @fontawesome - https://fontawesome.com License - https://fontawesome.com/license (Commercial License) Copyright 2026 Fonticons, Inc. --><path fill="currentColor" d="M336 80L336 240L496 240L496 560L144 560L144 80L336 80zM352 86.6L489.4 224L352 224L352 86.6zM352 64L128 64L128 576L512 576L512 224L352 64zM352 336L352 464L224 464L224 336L352 336zM368 464L368 440L432 472L432 328L368 360L368 320L208 320L208 480L368 480L368 464zM416 446.1L368 422.1L368 377.9L416 353.9L416 446.1z"/></svg>