<svg xmlns="http://www.w3.org/2000/svg" viewBox="0 0 640 640"><!--! Font Awesome Pro 7.2.0 by @fontawesome - https://fontawesome.com License - https://fontawesome.com/license (Commercial License) Copyright 2026 Fonticons, Inc. --><path fill="currentColor" d="M80 80L272 80L272 240L432 240L432 400L448 400L448 224L288 64L64 64L64 576L208 576L208 560L80 560L80 80zM425.4 224L288 224L288 86.6L425.4 224zM304 464C281.9 464 264 481.9 264 504C264 526.1 281.9 544 304 544C317.3 544 328 554.7 328 568C328 581.3 317.3 592 304 592L264 592L264 608L304 608C326.1 608 344 590.1 344 568C344 545.9 326.1 528 304 528C290.7 528 280 517.3 280 504C280 490.7 290.7 480 304 480L336 480L336 464L304 464zM408 472L408 464L392 464L392 504.3C392 526.3 396.3 548 404.7 568.4L419 603.1L421 608.1L441.2 608.1L443.3 603.3L457.9 570C467.2 548.8 472 525.8 472 502.7L472 464.2L456 464.2L456 502.7C456 523.7 451.7 544.4 443.3 563.6L431.3 591L419.5 562.4C411.9 544 408 524.3 408 504.4L408 472.1zM520 496L520 576C520 593.7 534.3 608 552 608L568 608C585.7 608 600 593.7 600 576L600 544L568 544L568 560L584 560L584 576C584 584.8 576.8 592 568 592L552 592C543.2 592 536 584.8 536 576L536 496C536 487.2 543.2 480 552 480L568 480C576.8 480 584 487.2 584 496L584 504L600 504L600 496C600 478.3 585.7 464 568 464L552 464C534.3 464 520 478.3 520 496z"/></svg>