<svg xmlns="http://www.w3.org/2000/svg" viewBox="0 0 640 640"><!--! Font Awesome Pro 7.2.0 by @fontawesome - https://fontawesome.com License - https://fontawesome.com/license (Commercial License) Copyright 2026 Fonticons, Inc. --><path fill="currentColor" d="M144 80L144 560L496 560L496 240L336 240L336 80L144 80zM489.4 224L352 86.6L352 224L489.4 224zM144 64L352 64L512 224L512 576L128 576L128 64L144 64zM208 400C208 349.3 241.7 306.4 288 292.6L288 309.4C250.7 322.6 224 358.1 224 399.9C224 452.9 267 495.9 320 495.9C361.8 495.9 397.4 469.2 410.5 431.9L427.3 431.9C413.5 478.2 370.7 511.9 319.9 511.9C258 511.9 207.9 461.8 207.9 399.9zM432 400L320 400L320 288C381.9 288 432 338.1 432 400zM414.7 384C408 343.8 376.2 312.1 336 305.3L336 384L414.7 384z"/></svg>