<svg xmlns="http://www.w3.org/2000/svg" viewBox="0 0 640 640"><!--! Font Awesome Pro 7.2.0 by @fontawesome - https://fontawesome.com License - https://fontawesome.com/license (Commercial License) Copyright 2026 Fonticons, Inc. --><path fill="currentColor" d="M336 80L336 240L496 240L496 560L144 560L144 80L336 80zM352 86.6L489.4 224L352 224L352 86.6zM352 64L128 64L128 576L512 576L512 224L352 64zM325.7 306.3L320 300.6L314.3 306.3L242.3 378.3L236.6 384L247.9 395.3L253.6 389.6L311.9 331.3L311.9 496L327.9 496L327.9 331.3L391.9 395.3L403.2 384L397.5 378.3L325.5 306.3z"/></svg>