<svg xmlns="http://www.w3.org/2000/svg" viewBox="0 0 640 640"><!--! Font Awesome Pro 7.2.0 by @fontawesome - https://fontawesome.com License - https://fontawesome.com/license (Commercial License) Copyright 2026 Fonticons, Inc. --><path fill="currentColor" d="M144 80L144 560L496 560L496 240L336 240L336 80L144 80zM489.4 224L352 86.6L352 224L489.4 224zM144 64L352 64L512 224L512 576L128 576L128 64L144 64zM192 160L288 160L288 176L192 176L192 160zM192 224L288 224L288 240L192 240L192 224zM328 296L328 320L360 320L360 336L306.6 336C291.9 336 280 347.9 280 362.6C280 375.6 289.4 386.7 302.3 388.9L340.4 395.2C361 398.6 376 416.4 376 437.3C376 460.9 356.9 479.9 333.4 479.9L328 479.9L328 503.9L312 503.9L312 479.9L272 479.9L272 463.9L333.4 463.9C348.1 463.9 360 452 360 437.3C360 424.3 350.6 413.2 337.7 411L299.6 404.7C279 401.3 264 383.5 264 362.6C264 339 283.1 320 306.6 320L312 320L312 296L328 296z"/></svg>