<svg xmlns="http://www.w3.org/2000/svg" viewBox="0 0 640 640"><!--! Font Awesome Pro 7.2.0 by @fontawesome - https://fontawesome.com License - https://fontawesome.com/license (Commercial License) Copyright 2026 Fonticons, Inc. --><path fill="currentColor" d="M184 528L232 528L232 464L248 464L248 608L232 608L232 544L184 544L184 608L168 608L168 464L184 464L184 528zM360 480L328 480L328 608L312 608L312 480L280 480L280 464L360 464L360 480zM411 468.2L447.8 535.2L483.3 468.3L485.5 464.1L503.9 464.1L503.9 608.1L487.9 608.1L487.9 493.7L455 555.9L448.1 569L441 556L408 496L408 608.2L392 608.2L392 464.2L408.7 464.2L411 468.4zM568 592L600 592L600 608L552 608L552 464L568 464L568 592zM448 224L448 400L432 400L432 240L272 240L272 80L80 80L80 560L112 560L112 576L64 576L64 64L288 64L448 224zM288 224L425.4 224L288 86.6L288 224z"/></svg>