<svg xmlns="http://www.w3.org/2000/svg" viewBox="0 0 640 640"><!--! Font Awesome Pro 7.2.0 by @fontawesome - https://fontawesome.com License - https://fontawesome.com/license (Commercial License) Copyright 2026 Fonticons, Inc. --><path fill="currentColor" d="M94.1 312L176 312L176 216L192 216L192 312L272 312L272 216L288 216L288 312L368 312L368 216L384 216L384 312L448 312L448 176L480 176L608 320L480 464L448 464L448 328L384 328L384 424L368 424L368 328L288 328L288 424L272 424L272 328L192 328L192 424L176 424L176 328L94.1 328L50.6 444L66 459.4L128 418.1L128 437.3L64 480L32 448L80 320L32 192L64 160L128 202.7L128 221.9L66 180.6L50.6 196L94.1 312zM464 328L464 448L472.8 448L586.6 320L472.8 192L464 192L464 328z"/></svg>