<svg xmlns="http://www.w3.org/2000/svg" viewBox="0 0 640 640"><!--! Font Awesome Pro 7.2.0 by @fontawesome - https://fontawesome.com License - https://fontawesome.com/license (Commercial License) Copyright 2026 Fonticons, Inc. --><path fill="currentColor" d="M112 72L112 64L96 64L96 576L112 576L112 460L224.3 431.9C265.4 421.6 308.9 426.4 346.8 445.3C391 467.4 442.3 470.1 488.5 452.7L544 432L544 80C537.1 83.5 518.9 92.5 489.6 107.2C443.3 130.4 388.8 130.4 342.5 107.2C307.4 89.6 267.1 85.2 229 94.7L112 124L112 72zM112 373.9L233.4 347.9C268.6 340.4 305.1 343.3 338.6 356.3L364.4 366.3C407.9 383.2 455.9 384.4 500.1 369.6L527.8 360.4L527.8 420.9L482.7 437.8C440.6 453.6 393.9 451.1 353.7 431C312.4 410.3 265 405.1 220.2 416.3L112 443.5L112 373.9zM112 357.5L112 301.9L228.6 276.9C266.7 268.7 306.3 272.9 341.9 288.7L355.7 294.9C404.4 316.5 459.7 317.9 509.4 298.5L528 291.3L528 343.6L495.2 354.5C454.5 368.1 410.3 367 370.3 351.4L344.5 341.4C308.1 327.2 268.3 324.1 230.1 332.2L112 357.5zM112 285.5L112 140.5L232.8 110.3C240.4 108.4 248.2 107.1 256 106.4L256 257.1C245.7 257.7 235.4 259 225.2 261.2L112 285.5zM272 256.9L272 192.9C296 193.5 319.7 198.8 341.9 208.7L355.7 214.9C404.4 236.5 459.7 237.9 509.4 218.5L528 211.3L528 274.1L503.6 283.6C457.9 301.4 407 300.2 362.2 280.3L348.4 274.1C324.2 263.3 298.2 257.6 272 256.9zM272 176.9L272 105.9C293.8 106.4 315.5 111.6 335.3 121.5C386.1 146.9 445.9 146.9 496.8 121.5L528.1 105.9L528.1 194.1L503.7 203.6C458 221.4 407.1 220.2 362.3 200.3L348.5 194.1C324.3 183.3 298.3 177.6 272.1 176.9zM168 172C168 165.4 162.6 160 156 160C149.4 160 144 165.4 144 172C144 178.6 149.4 184 156 184C162.6 184 168 178.6 168 172zM212 168C218.6 168 224 162.6 224 156C224 149.4 218.6 144 212 144C205.4 144 200 149.4 200 156C200 162.6 205.4 168 212 168zM168 228C168 221.4 162.6 216 156 216C149.4 216 144 221.4 144 228C144 234.6 149.4 240 156 240C162.6 240 168 234.6 168 228zM212 224C218.6 224 224 218.6 224 212C224 205.4 218.6 200 212 200C205.4 200 200 205.4 200 212C200 218.6 205.4 224 212 224z"/></svg>