<svg xmlns="http://www.w3.org/2000/svg" viewBox="0 0 640 640"><!--! Font Awesome Pro 7.2.0 by @fontawesome - https://fontawesome.com License - https://fontawesome.com/license (Commercial License) Copyright 2026 Fonticons, Inc. --><path fill="currentColor" d="M104 400L32 512L32 576L282.3 576L273.4 560L48.1 560L48.1 516.7L123.1 400L237.4 400L246.2 384.4L246.4 384L133.4 384L189.6 296.7L192.1 292.7L192.1 80L320.1 80L320.1 263L336.1 272.2L336.1 79.9L368.1 79.9L368.1 63.9L144.1 63.9L144.1 79.9L176.1 79.9L176.1 287.9L104.1 399.9zM496.2 333.6L496.2 287.9L400.2 287.9L400.2 333.5C390.5 337.6 381.4 342.8 373.1 349.1C354.1 338.1 340.9 330.5 333.6 326.3C333.4 326.7 318.2 353.9 288 407.8L325.1 430.9C324.3 436.4 324 442.1 324 447.9C324 453.6 324.4 459.3 325.1 464.8L288 487.8L325.8 555.5L333.6 569.5C340.9 565.3 354 557.7 373.1 546.7C381.4 553 390.5 558.3 400.2 562.3L400.2 607.9L496.2 607.9L496.2 562.2C505.9 558.1 514.9 552.9 523.1 546.6C542.3 557.7 555.5 565.3 562.7 569.5C562.9 569.1 578 541.9 608 487.8L570.9 464.7C571.6 459.2 572 453.6 572 447.9C572 442.2 571.6 436.6 570.9 431L608 407.8L570.5 340.3L562.7 326.3C555.4 330.5 542.2 338.1 523.1 349.2C514.9 342.9 505.8 337.7 496.2 333.6zM556.7 348.3L586.7 402.3C567.9 414 556.9 420.9 553.7 423L555.1 433.2C555.8 438 556.1 442.9 556.1 447.9C556.1 452.9 555.8 457.8 555.1 462.5L553.7 472.8C557 474.8 568 481.7 586.7 493.4L556.7 547.5C537 536.1 525.4 529.4 521.9 527.4L513.4 533.9C506.2 539.4 498.4 544 489.9 547.5L480.1 551.6L480.1 591.9L416.1 591.9L416.1 551.7L406.3 547.6C397.8 544.1 389.9 539.5 382.7 534L374.2 527.6C370.8 529.6 359.2 536.2 339.6 547.6L309.4 493.5C328.1 481.9 339 475.1 342.4 473.1L341 462.6C340.3 457.8 340 452.9 340 447.9C340 442.9 340.3 437.9 341 433.1L342.4 422.8C339.1 420.7 328.1 413.9 309.4 402.2L339.6 348.2C359.2 359.5 370.8 366.2 374.2 368.2L382.7 361.8C389.9 356.3 397.8 351.7 406.3 348.2L416.1 344.1L416.1 303.9L480.1 303.9L480.1 344.2L489.9 348.3C498.3 351.8 506.2 356.4 513.4 361.9L521.9 368.4C525.3 366.4 536.9 359.7 556.7 348.3zM504 447.8C504 416.9 478.9 391.8 448 391.8C417.1 391.8 392 416.9 392 447.8C392 478.7 417.1 503.8 448 503.8C478.9 503.8 504 478.7 504 447.8zM448 407.8C470.1 407.8 488 425.7 488 447.8C488 469.9 470.1 487.8 448 487.8C425.9 487.8 408 469.9 408 447.8C408 425.7 425.9 407.8 448 407.8z"/></svg>