<svg xmlns="http://www.w3.org/2000/svg" viewBox="0 0 640 640"><!--! Font Awesome Pro 7.2.0 by @fontawesome - https://fontawesome.com License - https://fontawesome.com/license (Commercial License) Copyright 2026 Fonticons, Inc. --><path fill="currentColor" d="M48 64L240 64L240 80L208 80L208 432C208 476.2 172.2 512 128 512C83.8 512 48 476.2 48 432L48 80L16 80L16 64L48 64zM192 80L64 80L64 224L192 224L192 80zM64 432C64 467.3 92.7 496 128 496C163.3 496 192 467.3 192 432L192 240L64 240L64 432zM224 560L224 512L336 288L336 80L304 80L304 64L528 64L528 80L496 80L496 288L608 512L608 576L224 576L224 560zM480 80L352 80L352 291.8L350.3 295.2L305.9 384L526.1 384L481.7 295.2L480 291.8L480 80zM240 515.8L240 560L592 560L592 515.8L534.1 400L297.9 400L240 515.8z"/></svg>