<svg xmlns="http://www.w3.org/2000/svg" viewBox="0 0 640 640"><!--! Font Awesome Pro 7.2.0 by @fontawesome - https://fontawesome.com License - https://fontawesome.com/license (Commercial License) Copyright 2026 Fonticons, Inc. --><path fill="currentColor" d="M468.1 104.2L451.3 121L401.6 123.4L396.5 123.6L392.2 120.8L315.7 71.5L248.9 133.3L245.1 136.8L240 137.4L149.7 148.8L138.3 239.1L137.7 244.2L134.2 248L72.4 314.8L121.7 391.3L124.5 395.6L124.3 400.7L121.9 450.4L105.1 467.2L108.4 399.9L52.4 312.9L122.7 237L135.7 134.4L238.3 121.4L314.2 51.1L401.2 107.1L468.5 103.8zM162.1 500.7C204.3 537.7 259.6 560.1 320.1 560.1C452.6 560.1 560.1 452.6 560.1 320.1C560.1 259.6 537.7 204.3 500.7 162.1L162.1 500.6zM150.8 512C146.8 508.5 142.9 504.8 139.2 501.1L139.2 501.1L150.5 489.8L489.9 150.4L501.2 139.1C505 142.9 508.6 146.8 512.2 150.8C552 195.9 576.2 255.2 576.2 320.2C576.2 461.6 461.6 576.2 320.2 576.2C255.3 576.2 196 552 150.8 512.2zM272.2 480C272.2 471.2 279.4 464 288.2 464C297 464 304.2 471.2 304.2 480C304.2 488.8 297 496 288.2 496C279.4 496 272.2 488.8 272.2 480zM384.2 464C393 464 400.2 471.2 400.2 480C400.2 488.8 393 496 384.2 496C375.4 496 368.2 488.8 368.2 480C368.2 471.2 375.4 464 384.2 464zM280.2 216C301.6 216 321.4 223 337.4 234.9L325.9 246.4C312.9 237.3 297.2 232 280.1 232C235.9 232 200.1 267.8 200.1 312C200.1 329 205.4 344.8 214.5 357.8L203 369.3C191.1 353.3 184.1 333.5 184.1 312.1C184.1 259.1 227.1 216.1 280.1 216.1z"/></svg>