<svg xmlns="http://www.w3.org/2000/svg" viewBox="0 0 640 640"><!--! Font Awesome Pro 7.2.0 by @fontawesome - https://fontawesome.com License - https://fontawesome.com/license (Commercial License) Copyright 2026 Fonticons, Inc. --><path fill="currentColor" d="M528 112L528 528L112 528L112 112L528 112zM112 96L96 96L96 544L544 544L544 96L112 96zM416 176C442.5 176 464 197.5 464 224C464 250.5 442.5 272 416 272C404.1 272 393.2 267.6 384.8 260.4L421.2 230.1L427.3 225L417.1 212.7L411 217.8L374.6 248.1C370.5 241 368.1 232.7 368.1 223.9C368.1 197.4 389.6 175.9 416.1 175.9zM372.3 270.8C383.7 281.5 399.1 288 416 288C451.3 288 480 259.3 480 224C480 188.7 451.3 160 416 160C380.7 160 352 188.7 352 224C352 236.7 355.7 248.6 362.1 258.5L320 293.6L277.9 258.5C284.3 248.5 288 236.7 288 224C288 188.7 259.3 160 224 160C188.7 160 160 188.7 160 224C160 259.3 188.7 288 224 288C240.9 288 256.2 281.5 267.7 270.8L312 307.8L312 352.5C280.4 356.4 256 383.4 256 416C256 451.3 284.7 480 320 480C355.3 480 384 451.3 384 416C384 383.4 359.6 356.4 328 352.5L328 307.8L372.3 270.8zM312 368.7L312 424L328 424L328 368.7C350.7 372.5 368 392.3 368 416C368 442.5 346.5 464 320 464C293.5 464 272 442.5 272 416C272 392.2 289.3 372.5 312 368.7zM255.2 260.4C246.8 267.6 235.9 272 224 272C197.5 272 176 250.5 176 224C176 197.5 197.5 176 224 176C250.5 176 272 197.5 272 224C272 232.8 269.6 241.1 265.5 248.2L229.1 217.9L223 212.8L212.8 225.1L218.9 230.2L255.3 260.5z"/></svg>