<svg xmlns="http://www.w3.org/2000/svg" viewBox="0 0 640 640"><!--! Font Awesome Pro 7.2.0 by @fontawesome - https://fontawesome.com License - https://fontawesome.com/license (Commercial License) Copyright 2026 Fonticons, Inc. --><path fill="currentColor" d="M320 64C450.6 64 558.3 161.9 574 288.2L409.8 308.7L447.2 431.9L576 431.9L576 575.9L474.1 575.9L472.4 570.2L435.3 447.9L368 447.9L368 527.9L288 527.9L99.1 449.2C76.8 411.3 64 367.2 64 320C64 178.6 178.6 64 320 64zM485.9 560L560 560L560 448L452 448L485.9 560zM320 80C187.5 80 80 187.5 80 320C80 362.3 91 402 110.3 436.6L291.2 512L352 512L352 450.9L297.9 306.7L318 304.2L555.5 274.5C534.2 163.7 436.9 80 320 80zM320 320L362 432L430.4 432L393.6 310.8L319.9 320zM224 400C215.2 400 208 392.8 208 384C208 375.2 215.2 368 224 368C232.8 368 240 375.2 240 384C240 392.8 232.8 400 224 400z"/></svg>