<svg xmlns="http://www.w3.org/2000/svg" viewBox="0 0 640 640"><!--! Font Awesome Pro 7.2.0 by @fontawesome - https://fontawesome.com License - https://fontawesome.com/license (Commercial License) Copyright 2026 Fonticons, Inc. --><path fill="currentColor" d="M375.7 76.9L373.1 64L266.9 64C266.3 67.1 262.4 86.6 255.2 122.3C245.1 125.6 235.3 129.7 226 134.4C195.7 114.2 179.2 103.2 176.5 101.4L167.2 110.7L110.6 167.3L101.3 176.6C103.1 179.3 114.1 195.8 134.3 226.1C129.6 235.5 125.5 245.2 122.2 255.3C86.5 262.4 67.1 266.3 63.9 267L64 373.1C67.1 373.7 86.6 377.6 122.3 384.8C125.6 394.9 129.7 404.7 134.4 414C114.2 444.3 103.2 460.8 101.4 463.5L110.7 472.8L167.3 529.4L176.6 538.7C179.3 536.9 195.8 525.9 226.1 505.7C235.5 510.4 245.2 514.5 255.3 517.8C262.4 553.5 266.3 572.9 267 576.1L373.2 576.1C373.8 573 377.7 553.5 384.9 517.8C395 514.5 404.8 510.4 414.1 505.7L463.6 538.7L472.9 529.4L529.5 472.8L538.8 463.5C537 460.8 526 444.3 505.8 414C510.5 404.6 514.6 394.9 517.9 384.8C553.6 377.7 573 373.8 576.2 373.1L576.2 266.9C573.1 266.3 553.6 262.4 517.9 255.2C514.6 245.1 510.5 235.3 505.8 226C526 195.7 537 179.2 538.8 176.5L529.5 167.2L472.9 110.6L463.6 101.3C460.9 103.1 444.4 114.1 414.1 134.3C404.7 129.6 395 125.5 384.9 122.2L375.8 76.8zM225.1 153C238.8 145.2 253.5 139.1 269 134.8L280 80L360 80L371 134.8C386.5 139.1 401.2 145.2 414.9 153L461.4 122L518 178.6L487 225.1C494.8 238.8 500.9 253.5 505.2 269L560 280L560 360L505.2 371C500.9 386.5 494.8 401.2 487 414.9L518 461.4L461.4 518L414.9 487C401.2 494.8 386.5 500.9 371 505.2L360 560L280 560L269 505.2C253.5 500.9 238.8 494.8 225.1 487L178.6 518L122 461.4L153 414.9C145.2 401.2 139.1 386.5 134.8 371L80 360L80 280L134.8 269C139.1 253.5 145.2 238.8 153 225.1L122 178.6L178.6 122L225.1 153zM343.9 225.3L345.2 217.4L329.4 214.8L328.1 222.7L296.1 414.7L294.8 422.6L310.6 425.2L311.9 417.3L343.9 225.3zM245.7 285.6L251.4 279.9L240.1 268.6L234.4 274.3L194.4 314.3L188.7 320L194.4 325.7L234.4 365.7L240.1 371.4L251.4 360.1L245.7 354.4L211.4 320.1L245.7 285.8zM405.7 274.3L400 268.6L388.7 279.9L394.4 285.6L428.7 319.9L388.7 359.9L400 371.2L451.3 319.9L445.6 314.2L405.6 274.2z"/></svg>