<svg xmlns="http://www.w3.org/2000/svg" viewBox="0 0 640 640"><!--! Font Awesome Pro 7.2.0 by @fontawesome - https://fontawesome.com License - https://fontawesome.com/license (Commercial License) Copyright 2026 Fonticons, Inc. --><path fill="currentColor" d="M250.7 158.2L258.4 154.9L260.1 146.7L277.1 64L363 64L380 146.7L381.7 154.9L389.4 158.2C402.3 163.7 414.4 170.8 425.5 179.1L432.2 184.1L440.1 181.5L520.3 154.9L563.3 229.3L500.2 285.4L494 290.9L495 299.2C495.8 306 496.2 313 496.2 320C496.2 327 495.8 334 495 340.8L494 349.1L500.2 354.6L563.3 410.7L520.3 485.1L440.1 458.5L432.2 455.9L425.5 460.9C414.4 469.2 402.3 476.2 389.4 481.8L381.7 485.1L380 493.3L363 576L277.1 576L260.1 493.3L258.4 485.1L250.7 481.8C237.8 476.3 225.7 469.2 214.6 460.9L207.9 455.9L200 458.5L119.8 485.1L76.8 410.7L139.9 354.6L146.1 349.1L145.1 340.8C144.3 334 143.9 327 143.9 320C143.9 313 144.3 306 145.1 299.2L146.1 290.9L139.9 285.4L76.8 229.3L119.8 154.9L200 181.5L207.9 184.1L214.6 179.1C225.7 170.8 237.8 163.8 250.7 158.2zM376.1 48L264.1 48L244.4 143.5C230.3 149.5 217.2 157.2 205.1 166.3L112.5 135.6L56.5 232.6L129.4 297.4C128.5 304.8 128.1 312.4 128.1 320.1C128.1 327.8 128.6 335.4 129.4 342.8L56.5 407.6L112.5 504.6L205.1 473.9C217.2 483 230.4 490.6 244.4 496.7L264.1 592.2L376.1 592.2L395.8 496.7C409.9 490.7 423.1 483 435.1 473.9L527.7 504.6L583.7 407.6L510.8 342.8C511.7 335.4 512.1 327.8 512.1 320.1C512.1 312.4 511.6 304.8 510.8 297.4L583.7 232.6L527.7 135.6L435.1 166.3C423 157.2 409.8 149.6 395.8 143.5L376.1 48zM343.9 225.3L345.2 217.4L329.4 214.8L328.1 222.7L296.1 414.7L294.8 422.6L310.6 425.2L311.9 417.3L343.9 225.3zM245.7 285.6L251.4 279.9L240.1 268.6L234.4 274.3L194.4 314.3L188.7 320L194.4 325.7L234.4 365.7L240.1 371.4L251.4 360.1L245.7 354.4L211.4 320.1L245.7 285.8zM405.7 274.3L400 268.6L388.7 279.9L394.4 285.6L428.7 319.9L388.7 359.9L400 371.2L451.3 319.9L445.6 314.2L405.6 274.2z"/></svg>