<svg xmlns="http://www.w3.org/2000/svg" viewBox="0 0 640 640"><!--! Font Awesome Pro 7.2.0 by @fontawesome - https://fontawesome.com License - https://fontawesome.com/license (Commercial License) Copyright 2026 Fonticons, Inc. --><path fill="currentColor" d="M80 144L80 496L560 496L560 144L80 144zM64 128L576 128L576 512L64 512L64 128zM160 280L160 360C160 382.1 177.9 400 200 400L216 400C238.1 400 256 382.1 256 360L256 336L208 336L208 320L272 320L272 360C272 390.9 246.9 416 216 416L200 416C169.1 416 144 390.9 144 360L144 280C144 249.1 169.1 224 200 224L216 224C246.9 224 272 249.1 272 280L272 288L256 288L256 280C256 257.9 238.1 240 216 240L200 240C177.9 240 160 257.9 160 280zM344 224L344 416L328 416L328 224L344 224zM408 224L496 224L496 240L416 240L416 320L480 320L480 336L416 336L416 416L400 416L400 224L408 224z"/></svg>