<svg xmlns="http://www.w3.org/2000/svg" viewBox="0 0 640 640"><!--! Font Awesome Pro 7.2.0 by @fontawesome - https://fontawesome.com License - https://fontawesome.com/license (Commercial License) Copyright 2026 Fonticons, Inc. --><path fill="currentColor" d="M320 72C267 72 224 115 224 168C224 197.7 237.5 224.2 258.7 241.8L275.7 256L128 256L128 352L252.5 352L247.2 363.4L148.5 576L259.2 576L312.9 476.2L319.9 463.1L326.9 476.2L380.6 576L491.3 576L392.6 363.4L387.3 352L511.8 352L511.8 256L364.1 256L381.1 241.8C402.3 224.2 415.8 197.6 415.8 168C415.8 115 372.8 72 319.8 72zM208 168C208 106.1 258.1 56 320 56C381.9 56 432 106.1 432 168C432 195.4 422.1 220.5 405.8 240L528 240L528 368L412.5 368L511.2 580.6L516.5 592L371.2 592L368.9 587.8L319.9 496.9L270.9 587.8L268.6 592L123.3 592L128.6 580.6L227.3 368L111.8 368L111.8 240L234 240C217.7 220.5 207.8 195.4 207.8 168zM272 160C272 151.2 279.2 144 288 144C296.8 144 304 151.2 304 160C304 168.8 296.8 176 288 176C279.2 176 272 168.8 272 160zM352 144C360.8 144 368 151.2 368 160C368 168.8 360.8 176 352 176C343.2 176 336 168.8 336 160C336 151.2 343.2 144 352 144zM304 288C304 279.2 311.2 272 320 272C328.8 272 336 279.2 336 288C336 296.8 328.8 304 320 304C311.2 304 304 296.8 304 288zM320 368C328.8 368 336 375.2 336 384C336 392.8 328.8 400 320 400C311.2 400 304 392.8 304 384C304 375.2 311.2 368 320 368z"/></svg>