<svg xmlns="http://www.w3.org/2000/svg" viewBox="0 0 640 640"><!--! Font Awesome Pro 7.2.0 by @fontawesome - https://fontawesome.com License - https://fontawesome.com/license (Commercial License) Copyright 2026 Fonticons, Inc. --><path fill="currentColor" d="M250 32.3L242.3 30.2L240.3 37.9L160.3 341.9L158.3 349.6C160.7 350.2 171.3 353 190 358L193.6 358.9L196.6 356.8C288.5 293.6 379.4 276.9 436.6 272.2C465 269.9 487.7 293.8 488.1 324.2C487.7 357.5 460.5 383.9 426.8 383.9L288.1 383.9L288.1 399.9L426.8 399.9C469.1 399.9 503.6 366.7 504.1 324.3C504.5 291 485.6 264 460.1 248C412.4 218.1 331.8 153.1 279.3 42.8L277.7 39.5L274.1 38.6L250.1 32.2zM266.3 53.2C317.5 158.8 393.5 223.6 443 256.3C440.4 256.2 437.8 256.2 435.1 256.5C376.9 261.3 284.3 278.2 190.4 341.8L177.7 338.4L253.6 49.9L266.3 53.3zM464 464L464 512L176 512L176 464L464 464zM176 448L160 448L160 512L128 512L128 576L512 576L512 512L480 512L480 448L176 448zM144 528L496 528L496 560L144 560L144 528z"/></svg>