<svg xmlns="http://www.w3.org/2000/svg" viewBox="0 0 640 640"><!--! Font Awesome Pro 7.2.0 by @fontawesome - https://fontawesome.com License - https://fontawesome.com/license (Commercial License) Copyright 2026 Fonticons, Inc. --><path fill="currentColor" d="M432.3 36.7C433.1 37.5 442.8 47.2 461.4 65.8C486.5 90.9 493.3 127.4 481.7 158.6C512.9 147 549.4 153.8 574.5 178.9C593.1 197.5 602.8 207.2 603.6 208C602.8 208.8 593.1 218.5 574.5 237.1C540.1 271.5 484.4 271.5 450.1 237.1C434.5 221.5 418.9 205.9 403.2 190.2C368.8 155.8 368.8 100.1 403.2 65.7C421.8 47.1 431.5 37.4 432.3 36.6zM450.1 178.9C478.2 150.8 478.2 105.2 450.1 77.1L432.3 59.3L414.5 77.1C386.4 105.2 386.4 150.8 414.5 178.9L432.3 196.7L450.1 178.9zM443.6 208L461.4 225.8C489.5 253.9 535.1 253.9 563.2 225.8L581 208L563.2 190.2C535.1 162.1 489.5 162.1 461.4 190.2C461.4 190.2 461.4 190.2 461.4 190.2L443.6 208zM312.3 256C334.4 256 352.3 238.1 352.3 216C352.3 193.9 334.4 176 312.3 176C290.2 176 272.3 193.9 272.3 216C272.3 238.1 290.2 256 312.3 256zM176.3 280C198.4 280 216.3 262.1 216.3 240C216.3 217.9 198.4 200 176.3 200C154.2 200 136.3 217.9 136.3 240C136.3 262.1 154.2 280 176.3 280zM152.3 416C174.4 416 192.3 398.1 192.3 376C192.3 353.9 174.4 336 152.3 336C130.2 336 112.3 353.9 112.3 376C112.3 398.1 130.2 416 152.3 416zM120.3 560C142.4 560 160.3 542.1 160.3 520C160.3 497.9 142.4 480 120.3 480C98.2 480 80.3 497.9 80.3 520C80.3 542.1 98.2 560 120.3 560zM264.3 528C286.4 528 304.3 510.1 304.3 488C304.3 465.9 286.4 448 264.3 448C242.2 448 224.3 465.9 224.3 488C224.3 510.1 242.2 528 264.3 528zM400.3 504C422.4 504 440.3 486.1 440.3 464C440.3 441.9 422.4 424 400.3 424C378.2 424 360.3 441.9 360.3 464C360.3 486.1 378.2 504 400.3 504zM288.3 392C310.4 392 328.3 374.1 328.3 352C328.3 329.9 310.4 312 288.3 312C266.2 312 248.3 329.9 248.3 352C248.3 374.1 266.2 392 288.3 392zM424.3 368C446.4 368 464.3 350.1 464.3 328C464.3 305.9 446.4 288 424.3 288C402.2 288 384.3 305.9 384.3 328C384.3 350.1 402.2 368 424.3 368zM256.3 216C256.3 185.1 281.4 160 312.3 160C343.2 160 368.3 185.1 368.3 216C368.3 246.9 343.2 272 312.3 272C281.4 272 256.3 246.9 256.3 216zM176.3 184C207.2 184 232.3 209.1 232.3 240C232.3 270.9 207.2 296 176.3 296C145.4 296 120.3 270.9 120.3 240C120.3 209.1 145.4 184 176.3 184zM96.3 376C96.3 345.1 121.4 320 152.3 320C183.2 320 208.3 345.1 208.3 376C208.3 406.9 183.2 432 152.3 432C121.4 432 96.3 406.9 96.3 376zM64.3 520C64.3 489.1 89.4 464 120.3 464C151.2 464 176.3 489.1 176.3 520C176.3 550.9 151.2 576 120.3 576C89.4 576 64.3 550.9 64.3 520zM208.3 488C208.3 457.1 233.4 432 264.3 432C295.2 432 320.3 457.1 320.3 488C320.3 518.9 295.2 544 264.3 544C233.4 544 208.3 518.9 208.3 488zM400.3 408C431.2 408 456.3 433.1 456.3 464C456.3 494.9 431.2 520 400.3 520C369.4 520 344.3 494.9 344.3 464C344.3 433.1 369.4 408 400.3 408zM232.3 352C232.3 321.1 257.4 296 288.3 296C319.2 296 344.3 321.1 344.3 352C344.3 382.9 319.2 408 288.3 408C257.4 408 232.3 382.9 232.3 352zM424.3 272C455.2 272 480.3 297.1 480.3 328C480.3 358.9 455.2 384 424.3 384C393.4 384 368.3 358.9 368.3 328C368.3 297.1 393.4 272 424.3 272z"/></svg>