<svg xmlns="http://www.w3.org/2000/svg" viewBox="0 0 640 640"><!--! Font Awesome Pro 7.2.0 by @fontawesome - https://fontawesome.com License - https://fontawesome.com/license (Commercial License) Copyright 2026 Fonticons, Inc. --><path fill="currentColor" d="M560 320C560 412.9 507.2 493.5 430 533.4C428.6 540.6 426.5 547.5 423.9 554.1C513.6 514.3 576.1 424.5 576.1 320C576.1 178.6 461.5 64 320.1 64C178.7 64 64 178.6 64 320C64 424.4 126.5 514.2 216.2 554.1C213.5 547.5 211.5 540.6 210.1 533.4C132.9 493.5 80.1 412.9 80.1 320C80.1 187.5 187.6 80 320.1 80C452.6 80 560 187.5 560 320zM392 460.7L392 432L248 432L248 460.7C217.2 442.9 193.6 414 182.7 379.5C224 392.6 270.7 399.9 320 399.9C369.3 399.9 416 392.6 457.3 379.5C446.4 414 422.8 442.9 392 460.7zM392 478.9C433.5 458 464.6 419.5 475.6 373.2C477 367.2 478.1 361 478.9 354.8C473.3 357.1 467.6 359.2 461.8 361.2C419.9 375.7 371.6 384 320 384C268.4 384 220.1 375.7 178.2 361.2C172.4 359.2 166.7 357 161.1 354.8C161.8 361.1 162.9 367.2 164.4 373.2C175.4 419.5 206.6 457.9 248 478.9L248 504C248 543.8 280.2 576 320 576C359.8 576 392 543.8 392 504L392 478.9zM240 288C248.8 288 256 280.8 256 272C256 263.2 248.8 256 240 256C231.2 256 224 263.2 224 272C224 280.8 231.2 288 240 288zM416 272C416 263.2 408.8 256 400 256C391.2 256 384 263.2 384 272C384 280.8 391.2 288 400 288C408.8 288 416 280.8 416 272zM264 504L264 448L312 448L312 488L328 488L328 448L376 448L376 504C376 534.9 350.9 560 320 560C289.1 560 264 534.9 264 504z"/></svg>