<svg xmlns="http://www.w3.org/2000/svg" viewBox="0 0 640 640"><!--! Font Awesome Pro 7.2.0 by @fontawesome - https://fontawesome.com License - https://fontawesome.com/license (Commercial License) Copyright 2026 Fonticons, Inc. --><path fill="currentColor" d="M540.1 64.6C541.7 66.2 546.4 70.9 554.4 78.9C572.7 97.2 572.7 126.8 554.4 145.1C540.7 158.8 518.8 159.5 504.3 147.2C474.1 177.4 417.7 233.8 335.1 316.3C382.6 363.6 418.2 328.1 418.2 328.1L441.9 351.8L413.1 380.6C394.2 399.5 366 404 346.8 423.1C321.9 448 306.8 489.2 299.2 514.3C289 548.4 260.9 575 224.1 576C203.6 576.5 182.9 569 167.3 553.3L86.9 472C56.2 441.7 56.6 392.7 86.9 362.4C97.7 351.7 111.4 344.4 125.9 340C165.4 328.2 212.7 309.1 232.6 270.2C234.3 266.9 235.9 263.6 237.5 260.2C243.3 248 249.3 235.6 258.7 226.2L299.4 185.5L323.2 209.3C322.8 209.7 275.9 257 323.2 304.3L323.9 305L432.3 196.6L432.3 114.8L436.9 112.6L535.1 66.8L540.2 64.4zM448.2 180.7L498.5 130.4L504.2 124.7C508.3 128.8 511.4 131.9 513.3 133.8C521.5 142 534.9 142 543.1 133.8C555.1 121.8 555.1 102.3 543.1 90.3L536.7 83.9L448.2 125.1L448.2 180.7zM216.2 364.7L221.9 370.4L269.9 418.4L275.6 424.1L264.3 435.4L258.6 429.7L210.6 381.7L204.9 376L216.2 364.7zM168.2 412.7L173.9 418.4L221.9 466.4L227.6 472.1L216.3 483.4L210.6 477.7L162.6 429.7L156.9 424L168.2 412.7zM290.1 234C293.3 224.5 297.8 216.5 301.7 210.6L299.3 208.2L270 237.5C261.8 245.7 256.7 256.6 251.7 267.3C250.1 270.8 248.5 274.2 246.8 277.5C235 300.7 215.4 317.1 194.5 329.2C173.6 341.3 150.6 349.4 130.4 355.4C117.8 359.2 106.6 365.3 98.1 373.8C74 397.9 73.9 436.9 98.2 460.8L178.7 542C191.1 554.4 207.5 560.4 223.8 560C252.4 559.3 275.3 538.6 284 509.7C291.6 484.5 307.6 439.8 335.6 411.8C347 400.4 360.9 393.5 372.2 387.9C384.8 381.6 394.4 376.8 401.9 369.3L419.4 351.8L416.4 348.8C411.5 351.5 405.2 354.1 397.6 355.6C376.9 359.7 350.8 354.5 323.8 327.5L311.9 315.6C298 301.7 290.4 287.1 287.5 272.5C284.6 258 286.6 244.8 290.2 233.9z"/></svg>