<svg xmlns="http://www.w3.org/2000/svg" viewBox="0 0 640 640"><!--! Font Awesome Pro 7.2.0 by @fontawesome - https://fontawesome.com License - https://fontawesome.com/license (Commercial License) Copyright 2026 Fonticons, Inc. --><path fill="currentColor" d="M320 320L331.3 308.7L436.7 203.3L448 192L436.7 180.7L331.3 75.3L320 64L192 192L320 320zM320 86.6L425.4 192L320 297.4L214.6 192L320 86.6zM96 136C96 131.6 92.4 128 88 128L8 128C3.6 128 0 131.6 0 136L0 448C0 450.1 .8 452.2 2.3 453.7L122.3 573.7L133.6 562.4L15.9 444.7L15.9 144L79.9 144L79.9 352C79.9 354.1 80.7 356.2 82.2 357.7L178.2 453.7C183.9 459.4 188.5 464 191.9 467.4L203.3 456C199.9 452.6 195.4 448.1 189.6 442.3L114.8 367.5L152.4 323.7L287.9 459.2L287.9 575.9L303.9 575.9L303.9 452.6L301.6 450.3L157.6 306.3L151.5 300.2L145.9 306.8L103.5 356.2L96 348.7L96 136zM552 128C547.6 128 544 131.6 544 136L544 348.7L536.5 356.2L494.1 306.8L488.5 300.2L482.4 306.3L338.4 450.3L336.1 452.6L336.1 575.9L352.1 575.9L352.1 459.2L487.6 323.7L525.2 367.5L436.8 455.9L448.1 467.2L557.8 357.5C559.3 356 560.1 354 560.1 351.8L560.1 143.8L624.1 143.8L624.1 444.5L506.4 562.2L517.7 573.5L637.7 453.5C639.2 452 640 450 640 447.8L640 135.8C640 131.4 636.4 127.8 632 127.8L552 127.8z"/></svg>