<svg xmlns="http://www.w3.org/2000/svg" viewBox="0 0 640 640"><!--! Font Awesome Pro 7.2.0 by @fontawesome - https://fontawesome.com License - https://fontawesome.com/license (Commercial License) Copyright 2026 Fonticons, Inc. --><path fill="currentColor" d="M64 128L412.2 128L414.6 131.5L574.6 363.5L576 365.6L576 512.1L560 512.1L560 370.6L403.8 144.1L80 144.1L80 208.1L304 208.1C339.3 208.1 368 236.8 368 272.1C368 307.4 339.3 336.1 304 336.1L144 336.1L144 400.1L338.6 400.1L340.7 401.6L428.7 465.6L432 468L432 512.1L416 512.1L416 476.2L333.4 416.1L128 416.1L128 320.1L304 320.1C330.5 320.1 352 298.6 352 272.1C352 245.6 330.5 224.1 304 224.1L64 224L64 128z"/></svg>