<svg xmlns="http://www.w3.org/2000/svg" viewBox="0 0 640 640"><!--! Font Awesome Pro 7.2.0 by @fontawesome - https://fontawesome.com License - https://fontawesome.com/license (Commercial License) Copyright 2026 Fonticons, Inc. --><path fill="currentColor" d="M184.1 176C184.1 211.4 204.2 243.5 236.4 264.3L240.1 266.7L240.1 320.1L400.1 320.1L400.1 266.7L403.8 264.3C436 243.5 456.1 211.5 456.1 176C456.1 115.4 396.6 64 320.1 64C243.6 64 184.1 115.4 184.1 176zM320.1 48C402.6 48 472.1 104 472.1 176C472.1 216.4 449.9 252.1 416.1 275.3L416.1 336L224.1 336L224.1 275.3C190.3 252.1 168.1 216.5 168.1 176C168.1 104 237.6 48 320.1 48zM248.1 176C248.1 189.3 258.8 200 272.1 200C285.4 200 296.1 189.3 296.1 176C296.1 162.7 285.4 152 272.1 152C258.8 152 248.1 162.7 248.1 176zM272.1 216C250 216 232.1 198.1 232.1 176C232.1 153.9 250 136 272.1 136C294.2 136 312.1 153.9 312.1 176C312.1 198.1 294.2 216 272.1 216zM368.1 152C354.8 152 344.1 162.7 344.1 176C344.1 189.3 354.8 200 368.1 200C381.4 200 392.1 189.3 392.1 176C392.1 162.7 381.4 152 368.1 152zM408.1 176C408.1 198.1 390.2 216 368.1 216C346 216 328.1 198.1 328.1 176C328.1 153.9 346 136 368.1 136C390.2 136 408.1 153.9 408.1 176zM562.1 373L566.6 379.3L606.6 435.3L611.2 441.8L604.8 446.5L428.8 574.5L426.7 576L32.1 576L32.1 560L421.5 560L589 438.2L558.1 395L433.1 478.7L431.1 480.1L272.1 480.1L272.1 464.1L400.1 464.1L400.1 400.1L202.5 400.1L108.5 462.8C107.2 463.7 105.6 464.1 104.1 464.1L32.1 464.1L32.1 448.1L101.7 448.1L195.7 385.4L197.7 384.1L416.1 384.1L416.1 464.1L426.2 464.1L555.6 377.5L562.1 373.2z"/></svg>