<svg xmlns="http://www.w3.org/2000/svg" viewBox="0 0 640 640"><!--! Font Awesome Pro 7.2.0 by @fontawesome - https://fontawesome.com License - https://fontawesome.com/license (Commercial License) Copyright 2026 Fonticons, Inc. --><path fill="currentColor" d="M427 129.2C419.7 100 395 78.4 365.1 75.1L337.3 72.1L335.6 88L363.3 91C386.6 93.6 405.8 110.4 411.4 133.1L416.6 153.9L432.1 150L426.9 129.2zM66.3 463.6C70.4 496.3 96.1 522 128.8 526.1L143.4 527.9L145.4 512L130.8 510.2C105.4 507 85.4 487 82.2 461.6L80.4 447L64.5 449L66.3 463.6zM181.3 116.4L175.6 122.1L119 178.7L113.3 184.4L135.9 207L85 257.9L79.3 263.6L85 269.3L124.6 308.9L73.7 359.8L68.1 365.4L73.7 371.1L224.9 523.7C254.7 553.8 294.1 572.1 335.9 575.6L335.9 576.2C340.1 576.2 347.7 576.3 358.9 576.4C461.1 577.2 544.3 494.6 544.3 392.4C544.3 62.8 544.3 201.7 544.3 160.3L536.3 160.3L456.3 160.3L448.3 160.3L448.3 270.6L266.1 88.4L260.4 82.7L254.7 88.4L203.8 139.3L181.2 116.7zM215.2 150.3L260.5 105L450.7 295.2L464.4 308.9L464.4 176L528.4 176L528.4 208L528.4 392.1C528.4 485.4 452.4 560.8 359.1 560.1L348.5 560L344.4 559.8C303.7 558.1 265.1 541.2 236.4 512.1L90.8 365.2L136.1 319.9L137.1 320.9L237 420.8L242.7 426.5L254 415.2L248.3 409.5L148.4 309.6L142.7 303.9L142.7 303.9L141.7 302.9L102.1 263.3L147.4 218L156.4 227L231.7 302.3L235 305.6L293.6 364.2L299.3 369.9L310.6 358.6L304.9 352.9L252.8 300.8L252.8 300.8L136.2 184.2L181.5 138.9L207.4 164.8L207.4 164.8L213.1 170.5L350.2 307.6L355.9 313.3L367.2 302C365.5 300.3 357.6 292.4 343.7 278.5L343.7 278.5L333.7 268.5L215.5 150.3z"/></svg>