<svg xmlns="http://www.w3.org/2000/svg" viewBox="0 0 640 640"><!--! Font Awesome Pro 7.2.0 by @fontawesome - https://fontawesome.com License - https://fontawesome.com/license (Commercial License) Copyright 2026 Fonticons, Inc. --><path fill="currentColor" d="M576 184L576 176L320 176L320 128L216 128C132.1 128 64 196.1 64 280L64 360C64 443.9 132.1 512 216 512L376 512L376 432L392 432L392 352L424 352L424 272L576 272L576 184zM408 272L408 336L320 336L320 272L408 272zM304 336L240 336L240 224L224 224L224 496L216 496C140.9 496 80 435.1 80 360L80 280C80 204.9 140.9 144 216 144L304 144L304 176L304 176L304 192L304 192L304 256L304 256L304 272L304 272L304 336zM304 352L376 352L376 416L240 416L240 352L304 352zM320 256L320 192L560 192L560 256L320 256zM296 496L240 496L240 432L360 432L360 496L296 496z"/></svg>