<svg xmlns="http://www.w3.org/2000/svg" viewBox="0 0 640 640"><!--! Font Awesome Pro 7.2.0 by @fontawesome - https://fontawesome.com License - https://fontawesome.com/license (Commercial License) Copyright 2026 Fonticons, Inc. --><path fill="currentColor" d="M392 72L392 64L376 64L376 152L392 152L392 72zM289.9 84.8L276.9 94.1L281.5 100.6L321.5 156.6L326.2 163.1L339.2 153.8L334.6 147.3L294.6 91.3L290 84.8zM478.2 84.8L473.5 91.3L433.5 147.3L428.9 153.8L441.9 163.1L446.5 156.6L486.5 100.6L491.1 94.1L478.1 84.8zM229.7 186.3L224 180.6L218.3 186.3L176 228.6C155 207.6 144.3 196.9 144 196.6L138.3 202.3L90.3 250.3L84.6 256L116.6 288L74.3 330.3L68.6 336L74.3 341.7L116.6 384L74.3 426.3L68.6 432L74.3 437.7L106.3 469.7L106.3 469.7C128.7 492.1 132.4 495.8 163.9 527.3C195.1 558.5 237.4 576 281.6 576C373.5 576 448 501.5 448 409.6L448 224L368 224L368 324.7L229.7 186.4zM128 276.7L107.3 256L144 219.3C165 240.3 183.2 258.5 266.3 341.6L266.3 341.6L272 347.3L283.3 336L277.6 330.3L187.3 240L224 203.3L370.3 349.6L384 343.9L384 239.9L432 239.9L432 409.5C432 492.6 364.7 559.9 281.6 559.9C241.7 559.9 203.5 544.1 175.3 515.9L139.3 479.9C136 476.6 104.5 445.1 91.3 431.9L128 395.2L170.3 437.5L176 443.2L187.3 431.9L181.6 426.2L133.6 378.2L127.9 372.5L91.2 335.8L127.9 299.1L218.2 389.4L223.9 395.1L235.2 383.8L229.5 378.1L133.5 282.1L127.8 276.4zM496 344L496 352L512 352L512 240L560 240L560 409.6C560 483.4 506.9 544.8 436.8 557.5C430.6 564 424 570.1 417 575.8C505.5 571.9 576 499 576 409.6L576 224L496 224L496 344z"/></svg>