<svg xmlns="http://www.w3.org/2000/svg" viewBox="0 0 640 640"><!--! Font Awesome Pro 7.2.0 by @fontawesome - https://fontawesome.com License - https://fontawesome.com/license (Commercial License) Copyright 2026 Fonticons, Inc. --><path fill="currentColor" d="M336.1 64L336.1 96L376.1 96L376.1 112L306.9 112C287.7 112 272.1 127.6 272.1 146.8C272.1 164.1 284.9 178.8 302 181.3L340.4 186.8C365.4 190.4 384.1 211.8 384.1 237.1C384.1 264.2 362.9 286.4 336.1 287.9L336.1 320L320.1 320L320.1 288L264.1 288L264.1 272L333.3 272C352.5 272 368.1 256.4 368.1 237.2C368.1 219.9 355.4 205.2 338.2 202.7L299.8 197.2C274.8 193.6 256.1 172.2 256.1 146.9C256.1 118.8 278.9 96.1 306.9 96.1L320.1 96.1L320.1 64.1L336.1 64.1zM562.1 373L566.6 379.3L606.6 435.3L611.2 441.8L604.8 446.5L428.8 574.5L426.7 576L32.1 576L32.1 560L421.5 560L589 438.2L558.1 395L433.1 478.7L431.1 480.1L272.1 480.1L272.1 464.1L400.1 464.1L400.1 400.1L202.5 400.1L108.5 462.8C107.2 463.7 105.6 464.1 104.1 464.1L32.1 464.1L32.1 448.1L101.7 448.1L195.7 385.4L197.7 384.1L416.1 384.1L416.1 464.1L426.2 464.1L555.6 377.5L562.1 373.2z"/></svg>