<svg xmlns="http://www.w3.org/2000/svg" viewBox="0 0 640 640"><!--! Font Awesome Pro 7.2.0 by @fontawesome - https://fontawesome.com License - https://fontawesome.com/license (Commercial License) Copyright 2026 Fonticons, Inc. --><path fill="currentColor" d="M53.7 42.3L48 36.6L36.7 47.9L42.4 53.6L586.6 597.6L592.3 603.3L603.6 592L597.9 586.3L456.2 444.6C517.3 382.7 576 304.4 576 231.7C576 158.2 517.5 96 442.9 96C400.2 96 360 116.5 335 151.1L320 171.8L305 151.1C280 116.5 239.8 96 197.1 96C171.4 96 147.6 103.4 127.4 116.1L53.7 42.3zM138.9 127.5C156 117.6 175.9 112 197.1 112C234.7 112 270 130 292 160.5L320 199.2L348 160.5C370 130 405.3 112 442.9 112C507.6 112 560 164.4 560 229.1C560 268.6 543.3 305.6 522.5 338.4C501.4 371.8 473.5 404.2 444.8 433.3L138.9 127.5zM80 229.1C80 268.6 96.7 305.6 117.5 338.4C140.6 374.9 171.7 410.2 203.2 441.3C234.7 472.3 266.2 498.7 289.9 517.4C301.7 526.7 311.6 534.1 318.4 539.1L319.9 540.2L321.4 539.1C328.3 534.1 338.1 526.7 349.9 517.4C363.8 506.5 380.3 492.9 398 477.3L409.3 488.6C360.6 532 320 560 320 560C320 560 64 383.4 64 231.7C64 206.5 70.9 182.6 82.9 162.1L94.1 173.3C85.1 189.9 80 208.9 80 229.1z"/></svg>