<svg xmlns="http://www.w3.org/2000/svg" viewBox="0 0 640 640"><!--! Font Awesome Pro 7.2.0 by @fontawesome - https://fontawesome.com License - https://fontawesome.com/license (Commercial License) Copyright 2026 Fonticons, Inc. --><path fill="currentColor" d="M496 112L496 160L336 160L336 176L416 176C477.9 176 528 226.1 528 288C528 293.4 527.9 298.8 527.6 304L112.4 304C112.2 298.8 112 293.4 112 288C112 226.1 162.1 176 224 176L224 160L144 160L144 112L248 112L248 232L304 232L304 112L496 112zM526.5 320C523.6 350 516.8 376.7 507.8 400L132.3 400C123.3 376.7 116.5 350 113.6 320L526.6 320zM501 416C490.9 438 479.1 456.8 467.3 472.3C452.1 492.2 436.9 506.9 425.6 516.6C420 521.4 415.3 525 412.1 527.3L411.1 528L228.9 528L227.9 527.3C224.7 525 220.1 521.5 214.4 516.6C203.1 506.9 187.9 492.3 172.7 472.3C160.9 456.8 149 438 139 416L501 416zM264 112L288 112L288 216L264 216L264 112zM144 176L162 176C122.6 197.8 96 239.8 96 288C96 464 224 544 224 544L416 544C416 544 544 464 544 288C544 239.8 517.4 197.8 478 176L512 176L512 96L128 96L128 176L144 176z"/></svg>