<svg xmlns="http://www.w3.org/2000/svg" viewBox="0 0 640 640"><!--! Font Awesome Pro 7.2.0 by @fontawesome - https://fontawesome.com License - https://fontawesome.com/license (Commercial License) Copyright 2026 Fonticons, Inc. --><path fill="currentColor" d="M596.7 276.7L608 288L596.7 299.3L299.3 596.7L288 608L276.7 596.7L214.3 534.3C183.9 550.8 145.1 546.3 119.5 520.6C93.9 494.9 89.2 456.1 105.8 425.8L43.3 363.3L32 352L43.3 340.7L340.7 43.3L352 32L363.3 43.3L425.7 105.7C456.1 89.2 494.9 93.7 520.5 119.4C546.1 145.1 550.8 183.9 534.2 214.2L596.6 276.6zM525.1 227.7C523.7 229.4 522.2 231 520.6 232.6L232.6 520.6C231 522.2 229.4 523.7 227.7 525.1L288 585.4L585.4 288L525.1 227.7zM412.3 114.9L352 54.6L54.6 352L114.9 412.3C116.3 410.6 117.8 409 119.4 407.4L407.4 119.4C409 117.8 410.6 116.3 412.3 114.9zM509.2 130.7C484.2 105.7 443.7 105.7 418.7 130.7L130.7 418.7C105.7 443.7 105.7 484.2 130.7 509.2C155.7 534.2 196.2 534.2 221.2 509.2L509.2 221.2C534.2 196.2 534.2 155.7 509.2 130.7z"/></svg>