<svg xmlns="http://www.w3.org/2000/svg" viewBox="0 0 640 640"><!--! Font Awesome Pro 7.2.0 by @fontawesome - https://fontawesome.com License - https://fontawesome.com/license (Commercial License) Copyright 2026 Fonticons, Inc. --><path fill="currentColor" d="M320 68.9L325.6 74.3L549.6 290.3L555.4 295.9L544.3 307.4L538.5 301.8L512.1 276.3L512.1 481.3L496.1 474.9L496.1 260.9L320.1 91.2L144.1 260.9L144.1 474.9L128.1 481.3L128.1 276.3C107 296.6 96.3 307 95.9 307.4L84.8 295.9L90.6 290.3L314.6 74.3L320.2 68.9zM272 280L376 280L376 392L264 392L264 280L272 280zM280 376L360 376L360 296L280 296L280 376zM196.2 496.5L320 543.4L443.8 496.5L446.6 495.4L449.4 496.5L573.5 543.5L621.5 528.3L629.1 525.9L633.9 541.2L626.3 543.6L575.6 559.6L573 560.4L570.4 559.4L446.6 512.5L322.8 559.4L320 560.5L317.2 559.4L193.4 512.5L69.6 559.4L67 560.4L64.4 559.6L13.7 543.6L6.1 541.2L10.9 525.9L18.5 528.3L66.5 543.5L190.6 496.5L193.4 495.4L196.2 496.5z"/></svg>