<svg xmlns="http://www.w3.org/2000/svg" viewBox="0 0 640 640"><!--! Font Awesome Pro 7.2.0 by @fontawesome - https://fontawesome.com License - https://fontawesome.com/license (Commercial License) Copyright 2026 Fonticons, Inc. --><path fill="currentColor" d="M464 64L464 96L640 96L640 256L464 256L464 576L448 576L448 256L448 256L448 96L448 96L448 64L464 64zM464 112L464 240L624 240L624 112L464 112zM245.6 106.2L400 255.1L400 277.3L240 123L64 292.7L64 559.9L400 559.9L400 575.9L48 575.9L48 308.2L21.6 333.7L15.8 339.3L4.7 327.8L10.5 322.2L234.5 106.2L240.1 100.8L245.7 106.2zM192 312L296 312L296 424L184 424L184 312L192 312zM200 408L280 408L280 328L200 328L200 408z"/></svg>