<svg xmlns="http://www.w3.org/2000/svg" viewBox="0 0 640 640"><!--! Font Awesome Pro 7.2.0 by @fontawesome - https://fontawesome.com License - https://fontawesome.com/license (Commercial License) Copyright 2026 Fonticons, Inc. --><path fill="currentColor" d="M176 224C176 144.5 240.5 80 320 80C399.5 80 464 144.5 464 224C464 233.6 463.1 242.9 461.3 251.9L460 258.5L466.2 260.9C493 271.4 512 297.5 512 328L512 368L128 368L128 328C128 297.5 147 271.4 173.8 260.9L180 258.5L178.7 251.9C176.9 242.9 176 233.5 176 224zM320 64C231.6 64 160 135.6 160 224C160 232.4 160.6 240.6 161.9 248.7C132.4 262.9 112 293.1 112 328L112 384L194 384L310.8 591.7L320 608L329.2 591.7L446 384L528 384L528 328C528 293 507.6 262.9 478.1 248.7C479.3 240.7 480 232.4 480 224C480 135.6 408.4 64 320 64zM427.6 384L320 575.4L212.4 384L427.6 384z"/></svg>