<svg xmlns="http://www.w3.org/2000/svg" viewBox="0 0 640 640"><!--! Font Awesome Pro 7.2.0 by @fontawesome - https://fontawesome.com License - https://fontawesome.com/license (Commercial License) Copyright 2026 Fonticons, Inc. --><path fill="currentColor" d="M80 64L80 240L560 240L560 64L576 64L576 576L560 576L560 512L80 512L80 576L64 576L64 64L80 64zM80 496L560 496L560 256L80 256L80 496zM192 336L192 432L288 432L288 336L192 336zM176 320L304 320L304 448L176 448L176 320zM448 336L352 336L352 432L448 432L448 336zM352 320L464 320L464 448L336 448L336 320L352 320zM352 80L352 176L448 176L448 80L352 80zM336 64L464 64L464 192L336 192L336 64z"/></svg>