<svg xmlns="http://www.w3.org/2000/svg" viewBox="0 0 640 640"><!--! Font Awesome Pro 7.2.0 by @fontawesome - https://fontawesome.com License - https://fontawesome.com/license (Commercial License) Copyright 2026 Fonticons, Inc. --><path fill="currentColor" d="M240 80L336 80L336 144L240 144L240 80zM224 144L192 144L192 160L384 160L384 144L352 144L352 64L224 64L224 144zM496 208L496 560L144 560L144 320C144 258.1 194.1 208 256 208L496 208zM256 192C185.3 192 128 249.3 128 320L128 576L512 576L512 192L256 192zM376 272L368 272L368 432L448 432L448 272L376 272zM384 416L384 288L432 288L432 416L384 416z"/></svg>