<svg xmlns="http://www.w3.org/2000/svg" viewBox="0 0 640 640"><!--! Font Awesome Pro 7.2.0 by @fontawesome - https://fontawesome.com License - https://fontawesome.com/license (Commercial License) Copyright 2026 Fonticons, Inc. --><path fill="currentColor" d="M192.8 315.4L75.5 64L93.2 64L200.1 293.1L307 64L324.6 64L207.3 315.4L205.2 320L195 320L192.8 315.4zM432.8 68.6L435 64L445.2 64L447.4 68.6L564.7 320L547 320L513.4 248L366.8 248L333.2 320L315.5 320L432.8 68.6zM374.2 232L505.9 232L440.1 90.9L374.3 232zM235.4 392L229.7 397.7L155.4 472L484.8 472L404.8 392L416.1 380.7L421.8 386.4L509.8 474.4L515.5 480.1L509.8 485.8L421.8 573.8L416.1 579.5L404.8 568.2L410.5 562.5L484.8 488.2L155.4 488.2L229.7 562.5L235.4 568.2L224.1 579.5L218.4 573.8L130.4 485.8L124.7 480.1L130.4 474.4L218.4 386.4L224.1 380.7L235.4 392z"/></svg>