<svg xmlns="http://www.w3.org/2000/svg" viewBox="0 0 640 640"><!--! Font Awesome Pro 7.2.0 by @fontawesome - https://fontawesome.com License - https://fontawesome.com/license (Commercial License) Copyright 2026 Fonticons, Inc. --><path fill="currentColor" d="M48 144L48 496L592 496L592 144L48 144zM32 128L608 128L608 512L32 512L32 128zM208 400L208 432L432 432L432 400L208 400zM192 384L448 384L448 448L192 448L192 384zM144 304L112 304L112 336L144 336L144 304zM112 288L160 288L160 352L96 352L96 288L112 288zM208 304L208 336L240 336L240 304L208 304zM192 288L256 288L256 352L192 352L192 288zM336 304L304 304L304 336L336 336L336 304zM304 288L352 288L352 352L288 352L288 288L304 288zM400 304L400 336L432 336L432 304L400 304zM384 288L448 288L448 352L384 352L384 288zM528 304L496 304L496 336L528 336L528 304zM496 288L544 288L544 352L480 352L480 288L496 288zM112 208L112 240L144 240L144 208L112 208zM96 192L160 192L160 256L96 256L96 192zM240 208L208 208L208 240L240 240L240 208zM208 192L256 192L256 256L192 256L192 192L208 192zM304 208L304 240L336 240L336 208L304 208zM288 192L352 192L352 256L288 256L288 192zM432 208L400 208L400 240L432 240L432 208zM400 192L448 192L448 256L384 256L384 192L400 192zM496 208L496 240L528 240L528 208L496 208zM480 192L544 192L544 256L480 256L480 192z"/></svg>