<svg xmlns="http://www.w3.org/2000/svg" viewBox="0 0 640 640"><!--! Font Awesome Pro 7.2.0 by @fontawesome - https://fontawesome.com License - https://fontawesome.com/license (Commercial License) Copyright 2026 Fonticons, Inc. --><path fill="currentColor" d="M113.1 352L96 352L192 96L448 96L544 352L384 352L384 369.1C422.3 391.2 448 432.6 448 480C448 518.2 431.2 552.5 404.7 576L235.4 576C208.8 552.5 192.1 518.2 192.1 480C192.1 432.6 217.8 391.3 256.1 369.1L256.1 352L113.2 352zM256 336L520.9 336L436.9 112L203.1 112L119.1 336L256 336zM272 352L272 378.4L264 383C230.5 402.4 208 438.6 208 480C208 511.3 220.9 539.7 241.6 560L398.4 560C419.2 539.7 432 511.3 432 480C432 438.6 409.5 402.4 376 383L368 378.4L368 352L272 352z"/></svg>