<svg xmlns="http://www.w3.org/2000/svg" viewBox="0 0 640 640"><!--! Font Awesome Pro 7.2.0 by @fontawesome - https://fontawesome.com License - https://fontawesome.com/license (Commercial License) Copyright 2026 Fonticons, Inc. --><path fill="currentColor" d="M240.5 256L240.5 272L400.5 272L400.5 368L240.5 368L240.5 474.6L227 461.9L83 325.9L76.8 320.1L83 314.3L227 178.3L240.5 165.6L240.5 256.2zM416.5 256L256.5 256L256.5 128.3C255.3 129.5 181 199.6 72 302.5C68.3 306 62.1 311.9 53.5 319.9L72 337.3L216 473.3C233.7 490 247.2 502.8 256.5 511.5L256.5 383.8L416.5 383.8L416.5 255.8zM392.5 528L384.5 528L384.5 544L576.5 544L576.5 96L384.5 96L384.5 112L560.5 112L560.5 528L392.5 528z"/></svg>