<svg xmlns="http://www.w3.org/2000/svg" viewBox="0 0 640 640"><!--! Font Awesome Pro 7.2.0 by @fontawesome - https://fontawesome.com License - https://fontawesome.com/license (Commercial License) Copyright 2026 Fonticons, Inc. --><path fill="currentColor" d="M400 413.1L400 464L240 464L240 413.1L232 408.5C179.4 378 144 321.1 144 256C144 158.8 222.8 80 320 80C417.2 80 496 158.8 496 256C496 321.1 460.6 378 408 408.5L400 413.1zM240 560L240 480L400 480L400 560L240 560zM416 422.3C473.4 389.1 512 327.1 512 256C512 150 426 64 320 64C214 64 128 150 128 256C128 327.1 166.6 389.1 224 422.3L224 576L416 576L416 422.3zM224 256C224 203 267 160 320 160L320 144C258.1 144 208 194.1 208 256L224 256z"/></svg>