<svg xmlns="http://www.w3.org/2000/svg" viewBox="0 0 640 640"><!--! Font Awesome Pro 7.2.0 by @fontawesome - https://fontawesome.com License - https://fontawesome.com/license (Commercial License) Copyright 2026 Fonticons, Inc. --><path fill="currentColor" d="M336.3 78L336.3 67.8L326.4 70.3L166.5 110.3L160.4 111.8L160.4 368.3L170.3 365.8L314.1 329.8L314.1 329.8L464.1 292.3L464.1 355.8L358.2 382.3L352.1 383.8L352.1 448L288.2 448L288.2 369.2L272.2 373.2L272.2 448L224.2 448L224.2 576L416.2 576L416.2 448L368.1 448L368.1 396.3L474 369.8L480.1 368.3L480.1 111.8L470.2 114.3L336.2 147.8L336.2 78zM464.3 212.3L464.3 275.8C358.4 302.3 262.5 326.3 176.5 347.7L176.5 284.2L464.3 212.3zM464.3 195.8L176.5 267.7L176.5 204.2L330.3 165.8L336.4 164.3L464.3 132.3L464.3 195.8zM320.4 151.8L176.5 187.8L176.5 124.3L320.4 88.3L320.4 151.8zM240.4 464L400.4 464L400.4 560L240.4 560L240.4 464z"/></svg>