<svg xmlns="http://www.w3.org/2000/svg" viewBox="0 0 640 640"><!--! Font Awesome Pro 7.2.0 by @fontawesome - https://fontawesome.com License - https://fontawesome.com/license (Commercial License) Copyright 2026 Fonticons, Inc. --><path fill="currentColor" d="M400 256C400 272.6 397.7 288.7 393.4 304L410 304C413.9 288.7 416 272.6 416 256C416 150 330 64 224 64C118 64 32 150 32 256C32 327.1 70.6 389.1 128 422.3L128 576L272 576L272 560L144 560L144 480L272 480L272 464L144 464L144 413.1L136 408.5C83.4 378 48 321.1 48 256C48 158.8 126.8 80 224 80C321.2 80 400 158.8 400 256zM128 256C128 203 171 160 224 160L224 144C162.1 144 112 194.1 112 256L128 256zM499.2 566.4L464 613.3L428.8 566.4L424 560L336 560L336 368L592 368L592 560L504 560L499.2 566.4zM464 640C466 637.3 482 616 512 576L608 576L608 352L320 352L320 576L416 576C446 616 462 637.3 464 640z"/></svg>