<svg xmlns="http://www.w3.org/2000/svg" viewBox="0 0 640 640"><!--! Font Awesome Pro 7.2.0 by @fontawesome - https://fontawesome.com License - https://fontawesome.com/license (Commercial License) Copyright 2026 Fonticons, Inc. --><path fill="currentColor" d="M80.5 464L559.5 464C551.2 338.9 447.2 240 320 240C192.8 240 88.8 338.9 80.5 464zM312 224.1L312 64L328 64L328 224.1C460.3 228.2 567.4 332.7 575.5 464C575.8 469.3 576 474.6 576 480L410.5 480C397.3 517.3 361.8 544 320 544C278.2 544 242.6 517.3 229.5 480L64 480C64 474.6 64.2 469.3 64.5 464C72.6 332.7 179.7 228.2 312 224.1zM246.7 480C259 508.3 287.2 528 320 528C352.8 528 381 508.3 393.3 480L246.6 480z"/></svg>