<svg xmlns="http://www.w3.org/2000/svg" viewBox="0 0 640 640"><!--! Font Awesome Pro 7.2.0 by @fontawesome - https://fontawesome.com License - https://fontawesome.com/license (Commercial License) Copyright 2026 Fonticons, Inc. --><path fill="currentColor" d="M326.9 96C242 96 184.7 182.6 217.8 260.7L229.4 288L160 288L160 304L236.2 304L237.2 306.4C245.5 326.1 249 347.2 247.7 368L160 368L160 384L245.8 384C243.2 398.4 238.2 412.5 230.9 425.6L185 508.1L184 509.9L184 544L480 544L480 528L200 528L200 514.1L244.9 433.4C253.5 417.9 259.3 401.2 262 384.1L432 384.1L432 368.1L263.7 368.1C264.9 346.5 261.5 324.7 253.4 304.1L431.9 304.1L431.9 288.1L246.7 288.1L232.5 254.6C203.8 187 253.4 112.1 326.8 112.1C361.8 112.1 395.8 124.4 422.7 146.8C425.1 148.8 428.5 151.6 433 155.3L443.3 143C438.9 139.3 435.4 136.5 433 134.5C403.2 109.7 365.6 96.1 326.8 96.1z"/></svg>