<svg xmlns="http://www.w3.org/2000/svg" viewBox="0 0 640 640"><!--! Font Awesome Pro 7.2.0 by @fontawesome - https://fontawesome.com License - https://fontawesome.com/license (Commercial License) Copyright 2026 Fonticons, Inc. --><path fill="currentColor" d="M560 144L560 496L80 496L80 144L560 144zM80 128L64 128L64 512L576 512L576 128L80 128zM256 224L256 240L480 240L480 224L256 224zM256 312L256 328L480 328L480 312L256 312zM256 400L256 416L480 416L480 400L256 400zM192 216C183.2 216 176 223.2 176 232C176 240.8 183.2 248 192 248C200.8 248 208 240.8 208 232C208 223.2 200.8 216 192 216zM208 320C208 311.2 200.8 304 192 304C183.2 304 176 311.2 176 320C176 328.8 183.2 336 192 336C200.8 336 208 328.8 208 320zM192 392C183.2 392 176 399.2 176 408C176 416.8 183.2 424 192 424C200.8 424 208 416.8 208 408C208 399.2 200.8 392 192 392z"/></svg>