<svg xmlns="http://www.w3.org/2000/svg" viewBox="0 0 640 640"><!--! Font Awesome Pro 7.2.0 by @fontawesome - https://fontawesome.com License - https://fontawesome.com/license (Commercial License) Copyright 2026 Fonticons, Inc. --><path fill="currentColor" d="M136 80C105.1 80 80 105.1 80 136L80 192C80 218.5 101.5 240 128 240C154.5 240 176 218.5 176 192L176 136L192 136L192 192C192 210.6 184.1 227.4 171.4 239.1L210.9 272L248 272C248 244.2 259.6 219.2 273.5 200.1C275.6 197.2 277.8 194.5 280 191.8L280 102.8L238.7 95.9L230.8 94.6L233.4 78.8L241.3 80.1L289.3 88.1L296 89.2L296 175.3C303.4 168.8 310.5 163.8 316.4 160.9L320 159.1L323.6 160.9C329.5 163.9 336.7 168.8 344 175.3L344 89.2L350.7 88.1L398.7 80.1L406.6 78.8L409.2 94.6L401.3 95.9L360 102.8L360 191.8C362.2 194.4 364.4 197.2 366.5 200.1C380.5 219.2 392 244.2 392 272L429.1 272L468.6 239.1C455.9 227.4 448 210.6 448 192L448 136L464 136L464 192C464 218.5 485.5 240 512 240C538.5 240 560 218.5 560 192L560 136C560 105.1 534.9 80 504 80L498.1 80L519.8 174.2L521.6 182L506 185.6L504.2 177.8L480.2 73.8L477.9 64L504 64C543.8 64 576 96.2 576 136L576 192C576 227.3 547.3 256 512 256C501.2 256 491.1 253.3 482.1 248.6L437.1 286.1L434.9 288L392 288L392 320L446.1 320L492.4 296.8L499.6 293.2L506.8 307.5L499.6 311.1L451.6 335.1L449.9 335.9L392 335.9L392 367.9L462.5 367.9L501.1 352.5L508.5 349.5L514.4 364.4L507 367.4L467 383.4L465.6 384L392.1 384L392.1 416L418.5 416L444.5 433.3L451.2 437.7L442.3 451C440.4 449.7 430.9 443.4 413.7 431.9L390.3 431.9L370.4 506.5C396.7 514.5 416 539 416 568L416 576L224 576L224 568C224 539 243.3 514.5 269.8 506.6L249.9 432L226.5 432C209.3 443.5 199.7 449.8 197.9 451.1L189 437.8C190.5 436.8 200.8 430 219.7 417.4L221.7 416.1L248.1 416.1L248.1 384.1L174.6 384.1L173.2 383.5L133.2 367.5L125.8 364.5L131.7 349.6L139.1 352.6L177.7 368L248.2 368L248.2 336L190.3 336L188.6 335.2L140.6 311.2L133.4 307.6L140.6 293.3L147.8 296.9L194.1 320.1L248.2 320.1L248.2 288.1L205.3 288.1L203.1 286.2L158.1 248.7C149.2 253.4 139 256.1 128.2 256.1C92.9 256.1 64.2 227.4 64.2 192.1L64 136C64 96.2 96.2 64 136 64L162.1 64L159.8 73.8L135.8 177.8L134 185.6L118.4 182L120.2 174.2L141.9 80L136 80zM264 320L264 361.8L320 375.8L376 361.8L376 272C376 248.6 366.2 226.9 353.5 209.5C342.3 194.1 329.2 182.8 320 177.1C310.7 182.8 297.7 194.1 286.5 209.5C273.8 226.9 264 248.6 264 272L264 320zM264 378.2L264 409.7L320 423.7L376 409.7L376 378.2L321.9 391.7L320 392.2L318.1 391.7L264 378.2zM273.4 458.3L320 471.6L366.6 458.3L375.1 426.4L322 439.7L320.1 440.2L318.2 439.7L265.1 426.4L273.6 458.3zM278.2 476.3C285.4 503.3 289.2 517.6 289.6 519.1L280.7 520.4C260.2 523.5 244 539.5 240.5 559.9L399.2 559.9C395.8 539.5 379.5 523.5 359 520.4L350.1 519.1C350.5 517.6 354.3 503.3 361.5 476.3L321.9 487.6L319.7 488.2L317.5 487.6L277.9 476.3z"/></svg>