<svg xmlns="http://www.w3.org/2000/svg" viewBox="0 0 640 640"><!--! Font Awesome Pro 7.2.0 by @fontawesome - https://fontawesome.com License - https://fontawesome.com/license (Commercial License) Copyright 2026 Fonticons, Inc. --><path fill="currentColor" d="M144 252.6C144 287.1 155 324.8 172.5 362.6C189.9 400.2 213.3 437 236.9 469.5C260.5 501.9 284.1 529.8 301.9 549.5C309 557.4 315.2 564 320 569.1C324.8 564 331 557.4 338.1 549.5C373.5 510.2 432.8 437.7 467.5 362.5C485 324.7 496 287.1 496 252.5C496 157.5 417.5 79.9 320 79.9C222.5 79.9 144 157.5 144 252.6zM512 252.6C512 381.3 372.2 537.5 331.2 580.6C330.1 581.7 329.2 582.7 328.2 583.7C323 589.1 320 592.1 320 592.1C320 592.1 317 589.2 311.8 583.7C310.9 582.7 309.9 581.7 308.8 580.6C267.8 537.6 128 381.4 128 252.6C128 148.5 214 64 320 64C426 64 512 148.4 512 252.6zM320 208C295 208 274.8 228.2 274.8 253.2L258.8 253.2C258.8 219.4 286.2 192 320 192C353.8 192 381.2 219.4 381.2 253.2C381.2 280.3 365.4 295.9 350.5 304.2C342 309 333.6 311.6 328 312.9L328 335.9L312 335.9L312 299.3L312.8 299.2C317.4 298.6 321.7 298.1 326.2 296.9C330.8 295.7 336.8 293.6 342.7 290.3C354.4 283.7 365.2 272.7 365.2 253.2C365.2 228.2 345 208 320 208zM304 400L304 368L336 368L336 400L304 400z"/></svg>