<svg xmlns="http://www.w3.org/2000/svg" viewBox="0 0 640 640"><!--! Font Awesome Pro 7.2.0 by @fontawesome - https://fontawesome.com License - https://fontawesome.com/license (Commercial License) Copyright 2026 Fonticons, Inc. --><path fill="currentColor" d="M328 48L328 96.1C445.4 100.3 539.7 194.6 543.9 312L592 312L592 328L543.9 328C539.7 445.4 445.4 539.7 328 543.9L328 592L312 592L312 543.9C194.6 539.7 100.3 445.4 96.1 328L48 328L48 312L96.1 312C100.3 194.6 194.6 100.3 312 96.1L312 48L328 48zM112 320C112 434.9 205.1 528 320 528C434.9 528 528 434.9 528 320C528 205.1 434.9 112 320 112C205.1 112 112 205.1 112 320zM320 208C381.9 208 432 258.1 432 320C432 381.9 381.9 432 320 432C258.1 432 208 381.9 208 320C208 258.1 258.1 208 320 208zM416 320C416 267 373 224 320 224C267 224 224 267 224 320C224 373 267 416 320 416C373 416 416 373 416 320z"/></svg>