<svg xmlns="http://www.w3.org/2000/svg" viewBox="0 0 640 640"><!--! Font Awesome Pro 7.2.0 by @fontawesome - https://fontawesome.com License - https://fontawesome.com/license (Commercial License) Copyright 2026 Fonticons, Inc. --><path fill="currentColor" d="M295.6 62.3C304.3 65 312.4 68.3 320.2 72.1C325.1 74.4 329.6 76.9 334 79.6C346.6 74.7 360.8 71.5 376.3 71.6C396 92.3 412.3 118.6 428.4 144.4L482.7 111.9L488.1 108.7L527.2 147.8L531.6 152.2L528.4 157.6L495.8 211.9C521.6 228 547.9 244.2 568.6 264C568.7 279.5 565.5 293.8 560.6 306.3C567.7 317.9 573.5 330.7 577.9 344.8C570.3 357.3 561.5 368.3 551.9 377.9C553.8 391.3 554.3 405.4 553.1 419.8C541.4 428.4 529.3 435.3 517.1 441C514.3 454.2 510.2 467.6 505 480.8C491.5 485.3 478.1 488.5 464.8 490.8C458.7 502.8 451.7 514.7 443.8 526.3C429.8 527.5 416.1 527.8 402.6 527.4C394.2 537.9 385.1 548.2 375.2 558.1C361.3 556.6 347.7 554.4 334.5 551.4C324.2 560.2 313.3 568.6 301.5 576.3C288 572.1 275.2 567 262.9 561.1C250.8 567.4 237.6 572.4 223.5 575.9C211.6 567.6 201 558.1 192.1 547.9C178.6 549 164.5 548.4 150.1 546.1C142.4 533.7 136.4 520.9 132.1 508.1C119.3 503.8 106.4 497.8 94.1 490.1C91.8 475.7 91.2 461.5 92.3 448.1C82.2 439.2 72.7 428.6 64.3 416.7C67.8 402.6 72.8 389.4 79.1 377.3C73.2 365.1 68.2 352.2 63.9 338.7C71.6 327 80 316 88.8 305.7C85.8 292.6 83.6 278.9 82.1 265C92 255 102.3 245.9 112.8 237.6C112.4 224.1 112.7 210.4 113.9 196.4C125.5 188.5 137.4 181.5 149.4 175.4C151.7 162.1 154.9 148.6 159.4 135.2C172.6 130 186 125.9 199.2 123.1C204.9 110.9 211.8 98.7 220.4 87.1C234.8 86 249 86.4 262.3 88.3C271.9 78.8 282.9 70 295.4 62.3zM297.7 80C288.8 86 280.9 92.5 273.8 99.6L268.1 105.3L260.2 104.1C250.4 102.7 239.9 102.2 229.2 102.6C223.2 111.5 218.1 120.5 213.8 129.8L210.4 137.1L202.6 138.8C192.7 140.9 182.6 143.8 172.5 147.4C169.5 157.6 167.1 167.9 165.3 178.1L164 186L156.8 189.6C147.6 194.3 138.4 199.5 129.4 205.4C128.7 216.1 128.6 226.7 128.9 237.1L129.1 245.1L122.8 250.1C114.6 256.6 106.7 263.5 98.9 270.9C100.3 281.5 102.1 292 104.4 302.1L106.2 309.9L101 316C94.2 323.9 87.7 332.3 81.6 341C85.1 351.1 89 360.8 93.5 370.1L97 377.3L93.3 384.4C88.7 393.3 84.8 403 81.8 413.1C88.3 421.6 95.4 429.2 102.8 435.8L108.8 441.1L108.1 449.1C107.3 459 107.5 469.4 108.8 480C115.3 483.7 121.8 486.9 128.4 489.5L137.1 492.7L144.7 495.2L147.2 502.8C150.3 512.3 154.6 521.7 159.9 531C170.5 532.2 180.9 532.5 190.8 531.7L198.8 531L204.1 537C210.7 544.5 218.3 551.5 226.8 558C237 555 246.6 551.2 255.6 546.5L262.7 542.8L269.9 546.3C279.2 550.8 288.9 554.7 299 558.2C307.8 552.1 316.1 545.6 324.1 538.8L330.2 533.6L338 535.4C348.1 537.7 358.5 539.5 369.2 540.8C376.6 533 383.6 525.1 390.1 517L395.1 510.7L403.1 510.9C413.5 511.2 424.1 511.1 434.8 510.4C440.6 501.4 445.9 492.3 450.6 483.1L454.2 475.9L462.1 474.6L471.5 472.8C478.6 471.3 485.7 469.5 492.8 467.4C496.4 457.3 499.4 447.2 501.5 437.3L503.2 429.5L510.5 426.1C519.7 421.8 528.8 416.7 537.7 410.7C538.1 400 537.6 389.6 536.2 379.8L535 371.9L540.7 366.2C547.8 359.1 554.3 351.1 560.3 342.2C556.6 332.1 552.3 322.8 547.1 314.3L542.9 307.5L545.8 300.1C549.3 291 551.7 281 552.4 270.3C538.6 258.1 522.4 247.1 504.9 236C485.6 223.8 464.4 211.1 445.8 197.7L443.7 196.2L442.2 194.1C428.7 175.5 416.1 154.3 403.9 135C392.8 117.5 381.7 101.2 369.5 87.5C358.8 88.2 348.9 90.6 339.8 94.2L332.4 97.1L325.7 92.9C323.7 91.7 321.7 90.5 319.7 89.4L313.4 86.2C308.3 83.8 303.1 81.6 297.7 79.7zM273.6 382.3L265.8 383.9L231 390.8L224 425.6L222.4 433.4L206.7 430.3L208.3 422.5L216.3 382.5L217.3 377.2L222.5 376.2L262.5 368.2L270.3 366.6L273.4 382.3zM433.6 350.3L425.8 351.9L391.1 358.8L384.1 393.6L382.5 401.4L366.8 398.3L368.4 390.5L376.4 350.5L377.4 345.2L382.7 344.2L422.7 336.2L430.5 334.6L433.6 350.3zM305.6 222.3L297.8 223.9L263 230.8L256 265.6L254.4 273.4L238.7 270.3L240.3 262.5L248.3 222.5L249.3 217.3L254.5 216.3L294.5 208.3L302.3 206.7L305.4 222.4zM437 157.9C443 167.3 449 176.4 455.2 185C463.8 191.2 472.9 197.2 482.3 203.2L511.5 154.6L485.7 128.8L437.1 158z"/></svg>