<svg xmlns="http://www.w3.org/2000/svg" viewBox="0 0 640 640"><!--! Font Awesome Pro 7.2.0 by @fontawesome - https://fontawesome.com License - https://fontawesome.com/license (Commercial License) Copyright 2026 Fonticons, Inc. --><path fill="currentColor" d="M304 48L304 80L344 80L344 96L304 96L304 136L288 136L288 96L248 96L248 80L288 80L288 40L304 40L304 48zM484.7 62.1L496 50.8L507.3 62.1L577.9 132.7L589.2 144L577.9 155.3L155.3 577.9L144 589.2L132.7 577.9L62.1 507.3L50.8 496L62.1 484.7L484.7 62.1zM496 73.4L354.3 215L425 285.7L566.6 144L496 73.4zM73.4 496L144 566.6L413.7 297L343 226.3L73.4 496zM128 104L128 176L208 176L208 192L128 192L128 272L112 272L112 192L32 192L32 176L112 176L112 96L128 96L128 104zM512 384L512 464L592 464L592 480L512 480L512 560L496 560L496 480L416 480L416 464L496 464L496 384L512 384z"/></svg>