<svg xmlns="http://www.w3.org/2000/svg" viewBox="0 0 640 640"><!--! Font Awesome Pro 7.2.0 by @fontawesome - https://fontawesome.com License - https://fontawesome.com/license (Commercial License) Copyright 2026 Fonticons, Inc. --><path fill="currentColor" d="M272.3 80C378.3 80 464.3 166 464.3 272C464.3 378 378.3 464 272.3 464C166.3 464 80.3 378 80.3 272C80.3 166 166.3 80 272.3 80zM272.3 480C326.9 480 376.5 459 413.6 424.6L568.3 579.3L579.6 568L424.9 413.3C459.3 376.2 480.3 326.5 480.3 272C480.3 157.1 387.2 64 272.3 64C157.4 64 64.3 157.1 64.3 272C64.3 386.9 157.4 480 272.3 480zM264.3 360L280.3 360L280.3 280L360.3 280L360.3 264L280.3 264L280.3 184L264.3 184L264.3 264L184.3 264L184.3 280L264.3 280L264.3 360z"/></svg>