<svg xmlns="http://www.w3.org/2000/svg" viewBox="0 0 640 640"><!--! Font Awesome Pro 7.2.0 by @fontawesome - https://fontawesome.com License - https://fontawesome.com/license (Commercial License) Copyright 2026 Fonticons, Inc. --><path fill="currentColor" d="M176 128L336 128L336 144L242 144C288.3 167.9 320 216.3 320 272L320 528L592 528L592 288C592 245.4 573.5 207 544 180.7L544 160C582.9 189.2 608 235.7 608 288L608 544L32 544L32 272C32 192.5 96.5 128 176 128zM176 144C105.3 144 48 201.3 48 272L48 528L304 528L304 272C304 201.3 246.7 144 176 144zM104 288L248 288L248 304L104 304L104 288zM384 296L384 128L496 128L496 224L400 224L400 304L384 304L384 296zM480 208L480 144L400 144L400 208L480 208z"/></svg>