<svg xmlns="http://www.w3.org/2000/svg" viewBox="0 0 640 640"><!--! Font Awesome Pro 7.2.0 by @fontawesome - https://fontawesome.com License - https://fontawesome.com/license (Commercial License) Copyright 2026 Fonticons, Inc. --><path fill="currentColor" d="M560 320C560 187.5 452.5 80 320 80C187.5 80 80 187.5 80 320C80 452.5 187.5 560 320 560C452.5 560 560 452.5 560 320zM64 320C64 178.6 178.6 64 320 64C461.4 64 576 178.6 576 320C576 461.4 461.4 576 320 576C178.6 576 64 461.4 64 320zM291.5 158.5C296.8 168.9 307.6 176 320 176C332.4 176 343.2 168.9 348.5 158.5L354.4 146.9L367 150.4C441.4 170.9 496 239.1 496 320C496 400.9 441.4 469.1 367.1 489.6L354.5 493.1L348.6 481.5C343.2 471.1 332.4 464 320 464C307.6 464 296.8 471.1 291.5 481.5L285.6 493.1L273 489.6C198.6 469.1 144 400.9 144 320C144 239.1 198.6 170.9 272.9 150.4L285.5 146.9L291.4 158.5zM160 320C160 393.5 209.6 455.5 277.2 474.2C285.1 458.6 301.3 448 320 448C338.7 448 354.8 458.7 362.8 474.2C430.4 455.5 480 393.5 480 320C480 246.5 430.4 184.5 362.8 165.8C354.8 181.3 338.7 192 320 192C301.3 192 285.2 181.3 277.2 165.8C209.6 184.5 160 246.5 160 320zM256 256L288 256L288 288L256 288L256 256zM288 352L288 384L256 384L256 352L288 352zM352 256L384 256L384 288L352 288L352 256zM384 352L384 384L352 384L352 352L384 352z"/></svg>