<svg xmlns="http://www.w3.org/2000/svg" viewBox="0 0 640 640"><!--! Font Awesome Pro 7.2.0 by @fontawesome - https://fontawesome.com License - https://fontawesome.com/license (Commercial License) Copyright 2026 Fonticons, Inc. --><path fill="currentColor" d="M440 64L432 64L432 80L548.7 80L456 172.7L413.7 130.4L408 124.7L396.7 136L402.4 141.7L444.7 184L394.4 234.3L390.7 238C359.4 209.4 317.8 192 272 192C174.8 192 96 270.8 96 368C96 465.2 174.8 544 272 544C369.2 544 448 465.2 448 368C448 322.3 430.6 280.6 402 249.3L405.7 245.6L456 195.3L498.3 237.6L504 243.3L515.3 232L509.6 226.3L467.3 184L560 91.3L560 208L576 208L576 64L440 64zM112 368C112 279.6 183.6 208 272 208C360.4 208 432 279.6 432 368C432 456.4 360.4 528 272 528C183.6 528 112 456.4 112 368z"/></svg>