<svg xmlns="http://www.w3.org/2000/svg" viewBox="0 0 640 640"><!--! Font Awesome Pro 7.2.0 by @fontawesome - https://fontawesome.com License - https://fontawesome.com/license (Commercial License) Copyright 2026 Fonticons, Inc. --><path fill="currentColor" d="M560 320C560 261.5 539.1 207.9 504.3 166.2C507.9 214.5 503 319.2 411.1 411.1C319.2 503 214.5 507.9 166.2 504.3C207.8 539.1 261.5 560 319.9 560C452.4 560 559.9 452.5 559.9 320zM139.3 478C140.8 427.7 152.7 305 228.8 228.9C314.1 143.6 426.7 136.2 475.9 137.6C434 101.7 379.5 80 319.9 80C187.4 80 79.9 187.5 79.9 320C79.9 380.5 102.3 435.8 139.2 478zM64 320C64 178.6 178.6 64 320 64C461.4 64 576 178.6 576 320C576 461.4 461.4 576 320 576C178.6 576 64 461.4 64 320zM165.8 486.6C180.6 487.8 201.6 488.2 226.4 485C275.8 478.5 339.9 457.5 398.7 398.7C457.5 339.9 478.5 275.8 485 226.4C488.3 201.6 487.8 180.6 486.6 165.8C486.3 162 485.9 158.6 485.5 155.6C482.1 155.4 478.1 155.2 473.6 155.1C457.7 154.8 435.3 155.4 409.5 159.4C357.9 167.4 293.9 188.7 241.3 241.3C196.1 286.5 174.7 350.3 164.7 404.6C159.8 431.5 157.8 455.5 157.1 472.7C156.9 477.6 156.8 482 156.7 485.7C159.4 486 162.4 486.3 165.7 486.6z"/></svg>