<svg xmlns="http://www.w3.org/2000/svg" viewBox="0 0 640 640"><!--! Font Awesome Pro 7.2.0 by @fontawesome - https://fontawesome.com License - https://fontawesome.com/license (Commercial License) Copyright 2026 Fonticons, Inc. --><path fill="currentColor" d="M48 36.8L53.7 42.4L224 212.7L224 64L416 64L416 288C416 319.8 400.6 348 376.8 365.4L433.7 422.3C471.8 390.1 496 341.9 496 288L496 224L512 224L512 288C512 346.3 486 398.5 445 433.7L597.8 586.4L603.5 592.1L592.2 603.4L586.5 597.7L42.3 53.7L36.6 48L47.9 36.7zM400 216L400 168L320 168L320 152L400 152L400 80L240 80L240 228.7L365.3 353.9C386.3 339.5 400 315.3 400 287.9L400 231.9L320 231.9L320 215.9L400 215.9zM388.3 467.5C369.4 474.7 349.2 479 328 479.8L328 560L408 560L408 576L232 576L232 560L312 560L312 479.8C209.7 475.6 128 391.4 128 288L128 224L144 224L144 288C144 385.2 222.8 464 320 464C339.5 464 358.3 460.8 375.8 455L388.3 467.5z"/></svg>