<svg xmlns="http://www.w3.org/2000/svg" viewBox="0 0 640 640"><!--! Font Awesome Pro 7.2.0 by @fontawesome - https://fontawesome.com License - https://fontawesome.com/license (Commercial License) Copyright 2026 Fonticons, Inc. --><path fill="currentColor" d="M480 80L480 560L160 560L160 80L480 80zM160 64L144 64L144 576L496 576L496 64L160 64zM272 496L272 512L368 512L368 496L272 496zM325.7 365.7L397.7 293.7L403.4 288L392.1 276.7L386.4 282.4L328.1 340.7L328.1 176L312.1 176L312.1 340.7L253.8 282.4L248.1 276.7L236.8 288L242.5 293.7L314.5 365.7L320.2 371.4L325.9 365.7z"/></svg>