<svg xmlns="http://www.w3.org/2000/svg" viewBox="0 0 640 640"><!--! Font Awesome Pro 7.2.0 by @fontawesome - https://fontawesome.com License - https://fontawesome.com/license (Commercial License) Copyright 2026 Fonticons, Inc. --><path fill="currentColor" d="M320 64C461.4 64 576 178.6 576 320C576 461.4 461.4 576 320 576L320 64zM159.4 498.3C190.6 526.4 229.2 546.5 272 555.1L272 571.3C224.6 562.3 181.8 540.3 147.5 509.1L159.4 498.3zM336 559.4C461.1 551.2 560 447.2 560 320C560 192.8 461.1 88.8 336 80.6L336 559.4zM81.2 344C85.6 388.2 102 428.9 127.1 462.8L115.2 473.6C87.6 436.8 69.7 392.4 65.2 344L81.3 344zM127.1 177.2C102 211 85.6 251.7 81.2 296L65.2 296C69.7 247.6 87.6 203.1 115.3 166.3L127.2 177.1zM272 84.8C229.2 93.5 190.6 113.5 159.4 141.6L147.5 130.8C181.8 99.6 224.6 77.6 272 68.6L272 84.8z"/></svg>