<svg xmlns="http://www.w3.org/2000/svg" viewBox="0 0 640 640"><!--! Font Awesome Pro 7.2.0 by @fontawesome - https://fontawesome.com License - https://fontawesome.com/license (Commercial License) Copyright 2026 Fonticons, Inc. --><path fill="currentColor" d="M216 144L112 144L112 496L464 496L464 144L232 144L232 181L286 242.7L288 245L288 352L160 352L160 245L162 242.7L216 181L216 144zM224 128L504 128C561.4 128 608 174.6 608 232C608 289.4 561.4 336 504 336L480 336L480 512L96 512L96 128L224 128zM480 320L504 320C552.6 320 592 280.6 592 232C592 183.4 552.6 144 504 144L480 144L480 320zM176 251L176 336L272 336L272 251L224 196.1L176 251z"/></svg>