<svg xmlns="http://www.w3.org/2000/svg" viewBox="0 0 640 640"><!--! Font Awesome Pro 7.2.0 by @fontawesome - https://fontawesome.com License - https://fontawesome.com/license (Commercial License) Copyright 2026 Fonticons, Inc. --><path fill="currentColor" d="M496 112L80 112L80 528L309.4 528C308.3 533.3 307.4 538.6 306.7 544L64 544L64 96L512 96L512 313C506.6 314.4 501.3 316 496 317.7L496 112zM432 184L432 348.2C426.5 351.7 421.2 355.4 416 359.3L416 192L296 192L296 272.7C318.7 276.5 336 296.3 336 320C336 346.5 314.5 368 288 368C261.5 368 240 346.5 240 320C240 296.2 257.3 276.5 280 272.7L280 176L432 176L432 184zM330.5 464L144 464L144 176L224 176L224 192L160 192L160 448L338.6 448C335.7 453.2 333 458.6 330.4 464zM288 288C270.3 288 256 302.3 256 320C256 337.7 270.3 352 288 352C305.7 352 320 337.7 320 320C320 302.3 305.7 288 288 288zM600 352L608 352L608 368L600 368C471.9 368 368 471.9 368 600L368 608L352 608L352 600C352 463 463 352 600 352zM560 576C560 584.8 567.2 592 576 592C584.8 592 592 584.8 592 576C592 567.2 584.8 560 576 560C567.2 560 560 567.2 560 576zM608 576C608 593.7 593.7 608 576 608C558.3 608 544 593.7 544 576C544 558.3 558.3 544 576 544C593.7 544 608 558.3 608 576zM608 448L608 464L600 464C524.9 464 464 524.9 464 600L464 608L448 608L448 600C448 516.1 516.1 448 600 448L608 448z"/></svg>