<svg xmlns="http://www.w3.org/2000/svg" viewBox="0 0 640 640"><!--! Font Awesome Pro 7.2.0 by @fontawesome - https://fontawesome.com License - https://fontawesome.com/license (Commercial License) Copyright 2026 Fonticons, Inc. --><path fill="currentColor" d="M360.2 128L398.9 128C492.1 128 571.8 194.9 588 286.6L604.8 382.1L608 400L590.7 394.3L313.8 302.4L49.2 394.1L31.9 400.1L35.1 382.1L51.9 286.8C68.2 194.9 147.9 128 241.1 128L359.8 128C359.9 128 360.1 128 360.2 128zM303.1 259.8L299.3 266.9L285.2 259.4L289 252.3L346.7 144.1L241.1 144.1C239.5 144.1 238 144.1 236.4 144.2L142.8 292.4L138.5 299.2L125 290.7L129.3 283.9L216.5 145.9C141.9 156.2 81.2 213.5 67.8 289.4L52.5 376L308.7 287.2L313.8 285.4L319 287.1L587.6 376.3L572.3 289.4C564.7 246.1 541.6 208.8 509.3 182.9L447 292L443 298.9L429.1 291L433.1 284.1L496.3 173.5C468.2 154.7 434.6 144 398.9 144L364.8 144L303.1 259.8zM160 512C109.2 512 67.7 472.6 64.2 422.7L80 417.2C80.7 460.8 116.2 496 160 496C176 496 190.8 491.3 203.3 483.3L212 477.7L220.7 483.3C233.2 491.4 248 496 264 496C281.4 496 297.5 490.4 310.7 481L320 474.3L329.3 481C342.4 490.4 358.5 496 376 496C392 496 406.8 491.3 419.3 483.3L428 477.7L436.7 483.3C449.2 491.4 464 496 480 496C523.6 496 559 461.1 560 417.8L575.8 423C572.2 472.7 530.7 512 480.1 512C460.9 512 443.1 506.4 428.1 496.7C413.1 506.4 395.3 512 376.1 512C355.2 512 335.9 505.3 320.1 494C304.3 505.3 285 512 264.1 512C244.9 512 227.1 506.4 212.1 496.7C197.1 506.4 179.3 512 160.1 512z"/></svg>