<svg xmlns="http://www.w3.org/2000/svg" viewBox="0 0 640 640"><!--! Font Awesome Pro 7.2.0 by @fontawesome - https://fontawesome.com License - https://fontawesome.com/license (Commercial License) Copyright 2026 Fonticons, Inc. --><path fill="currentColor" d="M80 409.4L80 230.6L230.6 80L409.4 80L560 230.6L560 409.4L409.4 560L230.6 560L80 409.4zM224 64L64 224L64 416L224 576L416 576L576 416L576 224L416 64L224 64zM232 220.7L220.7 232L226.4 237.7L308.7 320L226.4 402.3L220.7 408L232 419.3L237.7 413.6L320 331.3L402.3 413.6L408 419.3L419.3 408L413.6 402.3L331.3 320L413.6 237.7L419.3 232L408 220.7L402.3 226.4L320 308.7L237.7 226.4L232 220.7z"/></svg>