<svg xmlns="http://www.w3.org/2000/svg" viewBox="0 0 640 640"><!--! Font Awesome Pro 7.2.0 by @fontawesome - https://fontawesome.com License - https://fontawesome.com/license (Commercial License) Copyright 2026 Fonticons, Inc. --><path fill="currentColor" d="M159.7 64L481.2 64L482.4 70.5L574.9 567.4L576.4 575.3L568.5 576.7L403.4 606.9L395.8 608.3L394.1 600.8L320.5 268.9L246.9 600.8L245.2 608.3L237.6 606.9L72.5 576.7L64.6 575.3L66.1 567.4L158.6 70.5L159.8 64zM173 80L158.1 160L224.4 160L224.4 176L155.1 176L83.2 562.5L232.8 589.9L312.6 230.3L328.2 230.3L408 589.9L557.6 562.5L485.7 176L416.4 176L416.4 160L482.7 160L467.8 80L172.9 80z"/></svg>