<svg xmlns="http://www.w3.org/2000/svg" viewBox="0 0 640 640"><!--! Font Awesome Pro 7.2.0 by @fontawesome - https://fontawesome.com License - https://fontawesome.com/license (Commercial License) Copyright 2026 Fonticons, Inc. --><path fill="currentColor" d="M256 256L202.8 264.9C174.8 269.6 148.5 281.6 126.7 299.8L121.6 304C85.1 334.4 64 379.5 64 426.9L64 576L205.7 576C248.1 576 288.8 559.1 318.8 529.1L331.7 516.2C355.3 492.6 370.9 462.3 376.4 429.4L384 384L424.4 377.3C460.6 371.3 494 354.1 519.9 328.1L524.5 323.5C557.5 290.5 576 245.7 576 199L576 64L440.9 64C394.2 64 349.5 82.5 316.4 115.5L311.8 120.1C285.9 146 268.7 179.4 262.6 215.6L256 256zM560 80L560 199.1C560 241.5 543.1 282.2 513.1 312.2L508.5 316.8C484.9 340.4 454.6 356 421.7 361.5C389.9 366.8 372.7 369.7 370.1 370.1C369.8 371.9 366.6 390.8 360.7 426.8C355.8 456.4 341.7 483.7 320.5 505L307.6 517.9C280.6 544.9 244 560.1 205.8 560.1L80 560L80 426.9C80 384.2 99 343.6 131.8 316.3L136.9 312.1C156.5 295.7 180.2 284.9 205.4 280.7C247.9 273.6 269.4 270 269.9 270C270.3 267.3 273.2 250.1 278.5 218.4C284 185.5 299.6 155.1 323.2 131.6L327.8 127C357.8 97 398.5 80.1 440.9 80.1L560 80zM208 480C208 471.2 200.8 464 192 464C183.2 464 176 471.2 176 480C176 488.8 183.2 496 192 496C200.8 496 208 488.8 208 480zM416 272C424.8 272 432 264.8 432 256C432 247.2 424.8 240 416 240C407.2 240 400 247.2 400 256C400 264.8 407.2 272 416 272zM272 480C272 471.2 264.8 464 256 464C247.2 464 240 471.2 240 480C240 488.8 247.2 496 256 496C264.8 496 272 488.8 272 480zM480 272C488.8 272 496 264.8 496 256C496 247.2 488.8 240 480 240C471.2 240 464 247.2 464 256C464 264.8 471.2 272 480 272zM272 416C272 407.2 264.8 400 256 400C247.2 400 240 407.2 240 416C240 424.8 247.2 432 256 432C264.8 432 272 424.8 272 416zM480 208C488.8 208 496 200.8 496 192C496 183.2 488.8 176 480 176C471.2 176 464 183.2 464 192C464 200.8 471.2 208 480 208z"/></svg>