<svg xmlns="http://www.w3.org/2000/svg" viewBox="0 0 640 640"><!--! Font Awesome Pro 7.2.0 by @fontawesome - https://fontawesome.com License - https://fontawesome.com/license (Commercial License) Copyright 2026 Fonticons, Inc. --><path fill="currentColor" d="M448.2 128C470.3 128 488.2 110.1 488.2 88C488.2 65.9 470.3 48 448.2 48C426.1 48 408.2 65.9 408.2 88C408.2 110.1 426.1 128 448.2 128zM448.2 32C479.1 32 504.2 57.1 504.2 88C504.2 118.9 479.1 144 448.2 144C417.3 144 392.2 118.9 392.2 88C392.2 57.1 417.3 32 448.2 32zM376.2 448L549.4 448L496.5 274.3L494.2 266.6L509.5 261.9L511.8 269.6L567.8 453.6L570.9 463.9L528.1 463.9L528.1 607.9L464.1 607.9L464.1 463.9L432.1 463.9L432.1 607.9L368.1 607.9L368.1 463.9L325.3 463.9L328.4 453.6L384.4 269.6L386.7 261.9L402 266.6L399.7 274.3L346.8 448L376 448zM384.2 464L384.2 592L416.2 592L416.2 464L384.2 464zM480.2 464L480.2 592L512.2 592L512.2 464L480.2 464zM122.5 176L262 176L263.8 181.6L313.5 337.8L384.9 180.7L387 176L509.2 176L511.4 180.5L599.4 364.5L602.9 371.7L588.5 378.6L585 371.4L499.2 191.9L397.4 191.9L319.5 363.2L317.4 367.9L306.4 367.9L304.6 362.3L250.4 191.9L133.9 191.9L71.8 370.5L69.2 378.1L54.1 372.8L56.7 365.2L120.7 181.2L122.6 175.8zM232.2 88C232.2 65.9 214.3 48 192.2 48C170.1 48 152.2 65.9 152.2 88C152.2 110.1 170.1 128 192.2 128C214.3 128 232.2 110.1 232.2 88zM136.2 88C136.2 57.1 161.3 32 192.2 32C223.1 32 248.2 57.1 248.2 88C248.2 118.9 223.1 144 192.2 144C161.3 144 136.2 118.9 136.2 88zM128.2 320L128.2 592L160.2 592L160.2 400L224.2 400L224.2 592L256.2 592L256.2 320L272.2 320L272.2 608L208.2 608L208.2 416L176.2 416L176.2 608L112.2 608L112.2 320L128.2 320z"/></svg>