<svg xmlns="http://www.w3.org/2000/svg" viewBox="0 0 640 640"><!--! Font Awesome Pro 7.2.0 by @fontawesome - https://fontawesome.com License - https://fontawesome.com/license (Commercial License) Copyright 2026 Fonticons, Inc. --><path fill="currentColor" d="M300.4 306.2C305.6 315.2 311.4 325.1 317.8 336L448.2 336L448.2 272L354.6 272L326.4 223.6C309.2 194.1 277.6 176 243.5 176L106.5 176C105.1 179.4 91.8 212.8 66.5 276.1C62.5 286 58.6 295.9 54.6 305.8C62 308.8 76.9 314.7 99.2 323.6L114 329.6C119.9 314.8 131.9 284.9 149.8 240L191.2 240L168.5 330.6C160.2 363.8 179.5 397.6 212.2 407.4L292.7 431.5L308.1 436.1L301.5 450.8L258.8 546.9L245.8 576.1C253.1 579.3 267.7 585.8 289.7 595.6L304.3 602.1C308.6 592.3 313 582.6 317.3 572.9L381.3 428.9C387 416 392 404.9 396.1 395.7C386.5 392.8 338.1 378.3 268.5 357.4C279.5 319.9 286.4 296.4 289.2 287L300.3 306zM374.2 405.9L366.8 422.5L302.8 566.5L296.3 581.1L267.1 568.1L273.6 553.5L322.8 442.7L330.2 426.1L312.8 420.9L216.9 392.1C192.3 384.7 177.9 359.4 184.1 334.5C202.1 262.3 211.4 225.5 211.7 224L139 224L135 234.1C116 281.5 106 306.4 105.1 308.8L75.4 296.9L81.3 282L113.3 202L117.3 191.9L243.4 191.9C271.9 191.9 298.2 207 312.5 231.6L340.7 280L345.3 287.9L432.1 287.9L432.1 319.9L326.9 319.9C324.7 316.2 288.6 254.3 284.3 246.9C279 264.8 268.6 300.2 253.1 352.9L248.6 368.2L263.8 372.8L356.6 400.6L374 405.8zM288.2 48C310.3 48 328.2 65.9 328.2 88C328.2 110.1 310.3 128 288.2 128C266.1 128 248.2 110.1 248.2 88C248.2 65.9 266.1 48 288.2 48zM344.2 88C344.2 57.1 319.1 32 288.2 32C257.3 32 232.2 57.1 232.2 88C232.2 118.9 257.3 144 288.2 144C319.1 144 344.2 118.9 344.2 88zM150.4 412.3L132.8 461.5L58.9 527.2L35 548.5C40.3 554.5 51 566.4 66.9 584.4L77.5 596.4C84.1 590.5 118.7 559.7 181.4 504L187.5 498.6L190.3 490.9L205.8 447.4L200.7 445.9C197.3 444.9 193.9 443.7 190.6 442.3L175.2 485.5L173.8 489.4L170.7 492.1L90.7 563.3L78.7 573.9L57.4 550L69.4 539.4L143.3 473.7L146.4 471L147.8 467.1L162.8 425.2C158.3 421.3 154.1 417 150.4 412.5zM435.3 224C439 171.7 446 132.7 455.2 104.8C469.5 61.4 487.6 48 504.2 48C520.8 48 538.9 61.4 553.2 104.8C567.3 147.7 576.2 216.7 576.2 320C576.2 423.3 567.2 492.3 553.2 535.2C539 578.6 520.8 592 504.2 592C487.6 592 469.5 578.6 455.2 535.2C446.5 508.8 439.8 472.6 435.9 424.5C427.4 443.5 423.1 453.4 422.7 454.2C426.8 489.6 432.7 518 439.9 540.2C454.6 585 476.4 608 504.1 608C531.8 608 553.6 585 568.3 540.2C583.2 494.9 592.1 423.9 592.1 320C592.1 216.1 583.1 145.1 568.3 99.8C553.6 55 531.8 32 504.2 32C476.6 32 454.7 55 440 99.8C430.3 129.5 423 170.2 419.2 224L435.2 224z"/></svg>