<svg xmlns="http://www.w3.org/2000/svg" viewBox="0 0 640 640"><!--! Font Awesome Pro 7.2.0 by @fontawesome - https://fontawesome.com License - https://fontawesome.com/license (Commercial License) Copyright 2026 Fonticons, Inc. --><path fill="currentColor" d="M280.1 88C280.1 65.9 298 48 320.1 48C342.2 48 360.1 65.9 360.1 88C360.1 110.1 342.2 128 320.1 128C298 128 280.1 110.1 280.1 88zM376.1 88C376.1 57.1 351 32 320.1 32C289.2 32 264.1 57.1 264.1 88C264.1 118.9 289.2 144 320.1 144C351 144 376.1 118.9 376.1 88zM272.1 176L267.9 176L265.5 179.4L153.5 339.4L148.9 346L162 355.2L166.6 348.6L276.2 192L360 192L360 268.5L363.9 270.8L400.2 292.6C424.9 307.4 440 334.4 440 363.3C440 388.8 428 413 407.6 428.3C390.5 441.1 369.7 448 348.4 448L219.1 448L263.6 314.5L266.1 306.9L250.9 301.8L248.4 309.4L200.4 453.4L196.9 463.9L240 463.9L240 607.9L304 607.9L304 463.9L336 463.9L336 607.9L400 607.9L400 451.7C406 448.7 411.8 445.1 417.2 441C441.6 422.7 456 393.7 456 363.2C456 328.8 438 296.6 408.4 278.8L376 259.4L376 175.9L272 175.9zM256.1 592L256.1 464L288.1 464L288.1 592L256.1 592zM384.1 458.3L384.1 592L352.1 592L352.1 463.9C363 463.6 373.8 461.7 384.1 458.3z"/></svg>