<svg xmlns="http://www.w3.org/2000/svg" viewBox="0 0 640 640"><!--! Font Awesome Pro 7.2.0 by @fontawesome - https://fontawesome.com License - https://fontawesome.com/license (Commercial License) Copyright 2026 Fonticons, Inc. --><path fill="currentColor" d="M207.4 176L271.4 256L352 256L352 320L240.6 320C229.4 306 218.5 292.4 208 279.2L208 394.4L269.8 447.4L290 578.9L292.4 594.7C284.5 595.9 268.7 598.3 245 602L229.2 604.4L226.8 588.6L210.2 480.5L129.5 411.4C108.2 393.2 96 366.6 96 338.6L96 269.3L64 301.3L64 384L0 384L0 274.7L98.7 176L207.3 176zM271.4 272L263.7 272L258.9 266L199.7 192L105.4 192L16 281.4L16 368L48 368L48 294.6C46.7 295.9 109 233.6 112 230.6L112 338.5C112 361.9 122.2 384 139.9 399.2L220.6 468.3L225.1 472.2L226 478.1L242.6 586.2L274.2 581.3L254.9 455.6L197.6 406.5L192 401.7L192 233.5C211.1 257.4 229.9 280.8 248.3 303.9L336 303.9L336 271.9L271.4 271.9zM200 88C200 65.9 182.1 48 160 48C137.9 48 120 65.9 120 88C120 110.1 137.9 128 160 128C182.1 128 200 110.1 200 88zM160 32C190.9 32 216 57.1 216 88C216 118.9 190.9 144 160 144C129.1 144 104 118.9 104 88C104 57.1 129.1 32 160 32zM83.5 479.2L96.1 435C98.5 437.3 100.9 439.6 103.5 441.8L109.4 446.9L98.9 483.6L97.8 487.6L94.9 490.5L36.8 548.6L25.5 559.9L48.1 582.5L59.4 571.2L123.4 507.2L126.3 504.3L127.4 500.3L136.1 469.7L149.5 481.2C144.3 499.5 141.3 510 140.5 512.7L134.6 518.6L70.6 582.6C63.1 590.1 55.5 597.7 48 605.2C42.3 599.5 31 588.2 14.1 571.3L2.7 560C11.9 550.8 38.8 523.9 83.5 479.2zM356.7 416L440 332.7L451.3 344L387.3 408L552 408C591.8 408 624 375.8 624 336C624 296.2 591.8 264 552 264L416 264L416 248L552 248C600.6 248 640 287.4 640 336C640 384.6 600.6 424 552 424L387.3 424L451.3 488L440 499.3L356.7 416z"/></svg>