<svg xmlns="http://www.w3.org/2000/svg" viewBox="0 0 640 640"><!--! Font Awesome Pro 7.2.0 by @fontawesome - https://fontawesome.com License - https://fontawesome.com/license (Commercial License) Copyright 2026 Fonticons, Inc. --><path fill="currentColor" d="M272.5 102.1L432.5 82.1L432.5 128L272.5 128L272.5 102.1zM432.5 66L256.5 88L256.5 144L448.5 144L448.5 64L432.5 66zM429.8 304L272.5 482.8L272.5 352L80.5 352L80.5 304L429.8 304zM256.5 504.4L256.5 576L448.5 576L448.5 433.7C456.9 448 472.1 473.6 493.9 510.6L502 524.4C506.6 521.7 525 510.8 557.1 491.8L570.9 483.7L562.8 469.9L466.9 307.7L455.3 288L64.5 288L64.5 368L256.5 368L256.5 503.6C256.5 503.8 256.5 504.1 256.5 504.3zM272.5 512L432.5 512L432.5 560L272.5 560L272.5 512zM432.5 496L282.2 496L446.5 309.3C447.1 308.6 447.6 307.8 447.9 307L453.1 315.8L549 478L507.7 502.4L462.3 425.5L456.6 415.9L432.5 415.9L432.5 495.9zM274.1 160C273.1 165.2 272.5 170.5 272.5 176C272.5 220.2 308.3 256 352.5 256C396.7 256 432.5 220.2 432.5 176C432.5 170.5 431.9 165.2 430.9 160L414.5 160C415.8 165.1 416.5 170.5 416.5 176C416.5 211.3 387.8 240 352.5 240C317.2 240 288.5 211.3 288.5 176C288.5 170.5 289.2 165.1 290.5 160L274.1 160z"/></svg>