<svg xmlns="http://www.w3.org/2000/svg" viewBox="0 0 640 640"><!--! Font Awesome Pro 7.2.0 by @fontawesome - https://fontawesome.com License - https://fontawesome.com/license (Commercial License) Copyright 2026 Fonticons, Inc. --><path fill="currentColor" d="M360.3 88C360.3 65.9 342.4 48 320.3 48C298.2 48 280.3 65.9 280.3 88C280.3 110.1 298.2 128 320.3 128C342.4 128 360.3 110.1 360.3 88zM264.3 88C264.3 57.1 289.4 32 320.3 32C351.2 32 376.3 57.1 376.3 88C376.3 118.9 351.2 144 320.3 144C289.4 144 264.3 118.9 264.3 88zM240.3 600L240.3 464L172.6 464L176.9 453.1L248.9 269.1L251.8 261.7L266.7 267.5L263.8 274.9L196.1 448L304.4 448L304.4 464L304.4 464L304.4 608L240.4 608L240.4 600zM304.3 192L261.1 192L175.3 355.7L171.6 362.8L157.4 355.4L161.1 348.3L249.1 180.3L251.3 176L304.1 176L304.1 192zM256.3 592L288.3 592L288.3 464L256.3 464L256.3 592zM336.3 416L336.3 416L336.3 400L352.3 400L352.3 592L384.3 592L384.3 264L393 264L398.7 271.7L459.4 353.5L468.9 366.3L494.6 347.2L485.1 334.3L384.2 198.3L379.4 191.8L336.3 191.8L336.3 175.8L387.5 175.8C388.3 176.9 391.5 181.2 397.1 188.7L498 324.9C509.1 339.9 515.5 348.5 517.1 350.6L510.7 355.4L472.2 384L465.8 388.8C464.2 386.7 457.9 378.1 446.7 363.1L400.4 300.7L400.4 608L336.4 608L336.4 416z"/></svg>