<svg xmlns="http://www.w3.org/2000/svg" viewBox="0 0 640 640"><!--! Font Awesome Pro 7.2.0 by @fontawesome - https://fontawesome.com License - https://fontawesome.com/license (Commercial License) Copyright 2026 Fonticons, Inc. --><path fill="currentColor" d="M280.2 88C280.2 65.9 298.1 48 320.2 48C342.3 48 360.2 65.9 360.2 88C360.2 110.1 342.3 128 320.2 128C298.1 128 280.2 110.1 280.2 88zM376.2 88C376.2 57.1 351.1 32 320.2 32C289.3 32 264.2 57.1 264.2 88C264.2 118.9 289.3 144 320.2 144C351.1 144 376.2 118.9 376.2 88zM257 176L253 176C252.2 177.1 249 181.4 243.4 188.9L142.5 324.9C131.4 339.9 125 348.5 123.4 350.6L129.8 355.4L168.3 384L174.7 388.8C176.3 386.7 182.6 378.1 193.8 363.1L240.1 300.7L240.1 608L304.1 608L304.1 416L336.1 416L336.1 608L400.1 608L400.1 300.7C481.8 410.8 455.6 375.5 465.5 388.8L471.9 384L510.4 355.4L516.8 350.6C515.2 348.5 508.9 339.9 497.7 324.9L396.8 188.9C391.2 181.4 388 177 387.2 176L257 176zM256.2 198.5L261 192L379.3 192L384.1 198.5L485 334.5L494.5 347.4L468.8 366.5L459.3 353.7L398.6 271.9L392.9 264.2L384.2 264.2L384.2 592.2L352.2 592.2L352.2 400.2L288.2 400.2L288.2 592.2L256.2 592.2L256.2 264.2L247.5 264.2L241.8 271.9L181.1 353.7L171.6 366.5L145.9 347.4L155.4 334.5L256.3 198.5zM170.5 181.7L181.8 170.4L77.8 66.4L66.5 77.7L170.5 181.7zM469.8 181.7L573.8 77.7L562.5 66.4L458.5 170.4L469.8 181.7zM66.5 562.3L77.8 573.6L181.8 469.6L170.5 458.3L66.5 562.3zM469.8 458.3L458.5 469.6L562.5 573.6L573.8 562.3L469.8 458.3z"/></svg>