<svg xmlns="http://www.w3.org/2000/svg" viewBox="0 0 640 640"><!--! Font Awesome Pro 7.2.0 by @fontawesome - https://fontawesome.com License - https://fontawesome.com/license (Commercial License) Copyright 2026 Fonticons, Inc. --><path fill="currentColor" d="M320 96C297.9 96 280 113.9 280 136C280 158.1 297.9 176 320 176C342.1 176 360 158.1 360 136C360 113.9 342.1 96 320 96zM376 136C376 166.9 350.9 192 320 192C289.1 192 264 166.9 264 136C264 105.1 289.1 80 320 80C350.9 80 376 105.1 376 136zM256 224L368 224L368 384L480 384L480 512L528 512L528 576L416 576L416 448L320 448C284.7 448 256 419.3 256 384L256 224zM272 240L272 384C272 410.5 293.5 432 320 432L432 432L432 560L512 560L512 528L464 528L464 400L352 400L352 240L272 240zM208 232L208 496L384 496L384 512L192 512L192 224L208 224L208 232z"/></svg>