<svg xmlns="http://www.w3.org/2000/svg" viewBox="0 0 640 640"><!--! Font Awesome Pro 7.2.0 by @fontawesome - https://fontawesome.com License - https://fontawesome.com/license (Commercial License) Copyright 2026 Fonticons, Inc. --><path fill="currentColor" d="M204.2 275L272 208L192 64L64 128L64 144C64 382.6 257.4 576 496 576L512 576L576 448L432 368L365 435.8C294.5 402.3 237.7 345.5 204.2 275zM434.8 387.9L554.8 454.6L502.1 560.1L496 560.1C266.3 560 80 373.8 80 144L80 137.9L185.4 85.2L252.1 205.2L192.9 263.7L184.8 271.7L189.7 282C224.8 355.8 284.2 415.3 358 450.3L368.3 455.2L376.3 447.1L434.8 387.9z"/></svg>