<svg xmlns="http://www.w3.org/2000/svg" viewBox="0 0 640 640"><!--! Font Awesome Pro 7.2.0 by @fontawesome - https://fontawesome.com License - https://fontawesome.com/license (Commercial License) Copyright 2026 Fonticons, Inc. --><path fill="currentColor" d="M168.3 64L160.3 64L160.3 181.8L176.3 181.8L176.3 91.3L314.6 229.6L320.3 235.3L326 229.6L422 133.6L427.7 127.9L416.4 116.6L410.7 122.3L320.4 212.6L187.7 79.9L278.2 79.9L278.2 63.9L168.4 63.9zM434 429.9L433.5 525.2L591.9 570.5L637.1 434.7L625.8 423.4C457.1 254.7 183.6 254.7 14.9 423.4L3.6 434.7L48.9 570.5L207.3 525.2L206.8 429.9C280.3 403.8 360.6 403.8 434.1 429.9zM59.2 550.9L21.9 439L26.2 434.7C188.7 272.2 452.1 272.2 614.5 434.7L618.8 439L581.5 550.8L449.5 513.1L450 418.5L439.3 414.7C362.3 387.3 278.2 387.3 201.2 414.7L190.5 418.5L191 513.1L59 550.8z"/></svg>