<svg xmlns="http://www.w3.org/2000/svg" viewBox="0 0 640 640"><!--! Font Awesome Pro 7.2.0 by @fontawesome - https://fontawesome.com License - https://fontawesome.com/license (Commercial License) Copyright 2026 Fonticons, Inc. --><path fill="currentColor" d="M272 208L204.2 275C237.7 345.5 294.5 402.3 365 435.8L432 368L576 448L512 576L496 576C257.4 576 64 382.6 64 144L64 128L192 64L272 208zM376.3 447L368.3 455.1L358 450.2C284.2 415.1 224.7 355.7 189.7 281.9L184.8 271.6L192.9 263.6L252.1 205.1L185.4 85.1L80 137.8L80 143.9C80 373.6 266.3 559.9 496 559.9L502.1 559.9L554.8 454.4L434.8 387.7L376.3 446.9zM488 248L472 248L472 168L392 168L392 152L472 152L472 72L488 72L488 152L568 152L568 168L488 168L488 248z"/></svg>