<svg xmlns="http://www.w3.org/2000/svg" viewBox="0 0 640 640"><!--! Font Awesome Pro 7.2.0 by @fontawesome - https://fontawesome.com License - https://fontawesome.com/license (Commercial License) Copyright 2026 Fonticons, Inc. --><path fill="currentColor" d="M320 80C452.5 80 560 187.5 560 320C560 452.5 452.5 560 320 560C187.5 560 80 452.5 80 320C80 187.5 187.5 80 320 80zM320 576C461.4 576 576 461.4 576 320C576 178.6 461.4 64 320 64C178.6 64 64 178.6 64 320C64 461.4 178.6 576 320 576zM312 264L264 184L192 224L192 232C192 351.3 288.7 448 408 448L416 448L456 376L376 328L348 356.4C318.4 345 295 321.6 283.6 292L312 264zM359.4 367.6L378.6 348.2L434.5 381.8L406.6 432C297.3 431.2 208.8 342.8 208 233.4L258.2 205.5L291.8 261.4C276.9 276.1 267.9 285 264.9 287.9L268.7 297.7C281.7 331.5 308.4 358.2 342.3 371.3L352.1 375.1L359.5 367.6z"/></svg>