<svg xmlns="http://www.w3.org/2000/svg" viewBox="0 0 640 640"><!--! Font Awesome Pro 7.2.0 by @fontawesome - https://fontawesome.com License - https://fontawesome.com/license (Commercial License) Copyright 2026 Fonticons, Inc. --><path fill="currentColor" d="M553 288.7C574.9 288.7 592.7 306.6 592.6 328.5C592.5 350.4 574.8 368 552.9 368L86.3 368L35.4 208L68.6 208L128.4 282.8L128.4 288L136.4 288L229.9 288.1L240.9 288.1L237.6 277.6L179.4 95.9L244.9 95.9L419.6 285.8L422 288.4L425.5 288.4L553 288.6zM608.6 328.6C608.7 297.8 583.8 272.8 553 272.7L429 272.5L254.3 82.6L251.9 80L157.4 80L160.7 90.4L218.9 272.1L140.3 272L78.7 194.9L76.3 191.9L13.5 191.9L16.8 202.3L72.8 378.3L74.6 383.9L552.9 383.9C583.6 383.9 608.5 359.1 608.6 328.4zM40.4 560L32.4 560L32.4 576L608.4 576L608.4 560L40.4 560z"/></svg>