<svg xmlns="http://www.w3.org/2000/svg" viewBox="0 0 640 640"><!--! Font Awesome Pro 7.2.0 by @fontawesome - https://fontawesome.com License - https://fontawesome.com/license (Commercial License) Copyright 2026 Fonticons, Inc. --><path fill="currentColor" d="M544.2 264C575.1 264 600.2 289.1 600.2 320C600.2 350.9 575.1 376 544.2 376L435.7 376L384.4 432L416.2 432L416.2 512L311.1 512L262.1 565.4L259.7 568L165.1 568L168.6 557.5L229.1 376L156 376L94.4 453L92 456L29.9 456L32.4 446.1L63.9 320L32.4 193.9L29.9 184L92 184L94.4 187L156 264L229.1 264L168.6 82.5L165.1 72L259.7 72L262.1 74.6L311.1 128L416.2 128L416.2 208L384.4 208L435.7 264L544.2 264zM325.8 496L400.3 496L400.3 448L369.8 448L325.8 496zM369.8 192L400.3 192L400.3 144L325.8 144L369.8 192zM414.1 376L246.1 376L187.4 552L252.8 552L414.1 376zM240.2 360L544.2 360C566.3 360 584.2 342.1 584.2 320C584.2 297.9 566.3 280 544.2 280L148.4 280L146 277L84.4 200L50.5 200L80 318.1L80.5 320L50.5 440L84.4 440L146 363L148.4 360L240.2 360zM252.7 88L187.3 88L246 264L414 264L252.7 88z"/></svg>