<svg xmlns="http://www.w3.org/2000/svg" viewBox="0 0 640 640"><!--! Font Awesome Pro 7.2.0 by @fontawesome - https://fontawesome.com License - https://fontawesome.com/license (Commercial License) Copyright 2026 Fonticons, Inc. --><path fill="currentColor" d="M528 288C528 365 486.1 432.3 423.9 468.2L421.1 488C494 451 544 375.4 544 288C544 164.3 443.7 64 320 64C196.3 64 96 164.3 96 288C96 375.4 146 451 218.9 488L216.1 468.3C153.9 432.3 112 365 112 288C112 173.1 205.1 80 320 80C434.9 80 528 173.1 528 288zM432 288C432 315.1 422.4 339.9 406.4 359.2L416.6 371.9C436.1 349.4 448 320.1 448 288C448 217.3 390.7 160 320 160C249.3 160 192 217.3 192 288C192 320.1 203.8 349.5 223.4 371.9L233.6 359.2C217.6 339.8 208 315 208 288C208 226.1 258.1 176 320 176C381.9 176 432 226.1 432 288zM320 256C337.7 256 352 270.3 352 288C352 305.7 337.7 320 320 320C302.3 320 288 305.7 288 288C288 270.3 302.3 256 320 256zM320 336C346.5 336 368 314.5 368 288C368 261.5 346.5 240 320 240C293.5 240 272 261.5 272 288C272 314.5 293.5 336 320 336zM346.1 560L293.9 560L272.8 412.6L295.7 384L344.3 384L367.2 412.6L346.1 560zM256 408L280 576L360 576L384 408L352 368L288 368L256 408z"/></svg>