<svg xmlns="http://www.w3.org/2000/svg" viewBox="0 0 640 640"><!--! Font Awesome Pro 7.2.0 by @fontawesome - https://fontawesome.com License - https://fontawesome.com/license (Commercial License) Copyright 2026 Fonticons, Inc. --><path fill="currentColor" d="M104 64L96 64L96 384L112 384L112 288L244.7 288L372.7 416L226.4 562.3L237.7 573.6L384 427.3L530.3 573.6L541.6 562.3L395.3 416L541.6 269.7L530.3 258.4L384 404.7L267.3 288L272 288C333.9 288 384 237.9 384 176C384 114.1 333.9 64 272 64L104 64zM272 272L112 272L112 80L272 80C325 80 368 123 368 176C368 229 325 272 272 272z"/></svg>