<svg xmlns="http://www.w3.org/2000/svg" viewBox="0 0 640 640"><!--! Font Awesome Pro 7.2.0 by @fontawesome - https://fontawesome.com License - https://fontawesome.com/license (Commercial License) Copyright 2026 Fonticons, Inc. --><path fill="currentColor" d="M210.6 112C138.5 112 80 170.5 80 242.6C80 319.3 116.4 387.5 172.9 430.9L178.9 435.5C175.8 440 154.8 470.4 145.4 483.9L198 520.4C210.5 502.4 222 485.8 232.4 470.7L235.8 465.8L241.5 467.7C265.3 475.7 290.8 480.1 317.3 480.1L322.5 480.1C349 480.1 374.5 475.8 398.3 467.7L404 465.8L407.4 470.7C417.9 485.9 429.5 502.6 441.9 520.6L494.5 484.2C463.7 439.7 463.2 439.1 460.9 435.7L466.9 431.1C523.6 387.5 560 319.3 560 242.6C560 170.5 501.5 112 429.4 112L424 112C385.4 112 350.5 128.1 325.8 153.9L320 159.9L314.2 153.9C289.5 128.1 254.6 112 216 112L210.6 112zM64 242.6C64 161.6 129.6 96 210.6 96L216 96C256.2 96 292.8 111.6 320 137.1C347.2 111.6 383.8 96 424 96L429.4 96C510.4 96 576 161.6 576 242.6C576 321.8 539.7 392.5 482.9 438.9C484.7 441.6 494.6 455.8 512.4 481.6L517 488.2L510.4 492.8L444.6 538.3L438 542.9L433.4 536.3C416.6 512 404.7 494.8 397.7 484.8C373.9 492.2 348.7 496.1 322.5 496.1L317.3 496.1C291.1 496.1 265.9 492.1 242.1 484.8C235.2 494.7 223.4 511.9 206.5 536.2L201.9 542.8L195.3 538.2L129.5 492.7L122.9 488.1L127.5 481.5C145.6 455.6 155.4 441.4 157.1 438.9C100.3 392.4 64 321.8 64 242.6zM144 242.6C144 205.8 173.8 176 210.6 176L216 176C255.8 176 288 208.2 288 248L288 253.7C288 269.5 283.2 284.9 274.2 297.9L220.2 375.9L215.3 383L208.6 377.6C169.2 345.8 144 297.2 144 242.6zM210.6 192C182.7 192 160 214.7 160 242.6C160 289 180.1 330.8 212.1 359.6L261.1 288.9C268.2 278.6 272.1 266.3 272.1 253.8L272.1 248.1C272.1 217.2 247 192.1 216.1 192.1L210.7 192.1zM424 192C393.1 192 368 217.1 368 248L368 253.7C368 266.3 371.8 278.5 379 288.8L428 359.5C460 330.7 480.1 289 480.1 242.5C480.1 214.6 457.4 191.9 429.5 191.9L424.1 191.9zM352 248C352 208.2 384.2 176 424 176L429.4 176C466.2 176 496 205.8 496 242.6C496 297.2 470.8 345.8 431.4 377.6L424.7 383L419.8 375.9L365.8 297.9C356.8 284.9 352 269.5 352 253.7L352 248zM320 344.2L326.6 353.7C352.6 391.2 365.8 410.3 366.2 410.9L354 413.2C343.8 415.1 333.3 416 322.6 416L317.4 416C306.7 416 296.2 415 286 413.2L273.8 411C274.3 410.3 287.5 391.3 313.4 353.8L320 344.3zM301.4 399.2C306.7 399.7 312 400 317.4 400L322.6 400C328 400 333.3 399.7 338.6 399.2L320 372.3L301.4 399.2z"/></svg>