<svg xmlns="http://www.w3.org/2000/svg" viewBox="0 0 640 640"><!--! Font Awesome Pro 7.2.0 by @fontawesome - https://fontawesome.com License - https://fontawesome.com/license (Commercial License) Copyright 2026 Fonticons, Inc. --><path fill="currentColor" d="M409.4 80L480 150.6L480 208L496 208L496 144L416 64L144 64L144 208L160 208L160 80L409.4 80zM560 272L560 464L496 464L496 400L144 400L144 464L80 464L80 272L560 272zM496 480L576 480L576 256L64 256L64 480L144 480L144 576L496 576L496 480zM480 560L160 560L160 416L480 416L480 560zM500 344C506.6 344 512 338.6 512 332C512 325.4 506.6 320 500 320C493.4 320 488 325.4 488 332C488 338.6 493.4 344 500 344z"/></svg>