<svg xmlns="http://www.w3.org/2000/svg" viewBox="0 0 640 640"><!--! Font Awesome Pro 7.2.0 by @fontawesome - https://fontawesome.com License - https://fontawesome.com/license (Commercial License) Copyright 2026 Fonticons, Inc. --><path fill="currentColor" d="M256 80L256 192L384 192L384 80L256 80zM240 192L240 64L400 64L400 120L480 120L480 136L400 136L400 192L480 192L480 576L160 576L160 192L240 192zM384 208L176 208L176 560L464 560L464 208L384 208zM288 288L360 288L360 344L416 344L416 424L360 424L360 480L280 480L280 424L224 424L224 344L280 344L280 288L288 288zM296 352L296 360L240 360L240 408L296 408L296 464L344 464L344 408L400 408L400 360L344 360L344 304L296 304L296 352z"/></svg>