<svg xmlns="http://www.w3.org/2000/svg" viewBox="0 0 640 640"><!--! Font Awesome Pro 7.2.0 by @fontawesome - https://fontawesome.com License - https://fontawesome.com/license (Commercial License) Copyright 2026 Fonticons, Inc. --><path fill="currentColor" d="M96 280C96 213.7 149.7 160 216 160L240 160L240 176L216 176C158.6 176 112 222.6 112 280L112 288L288 288L288 480L96 480L96 280zM112 376L112 464L272 464L272 304L112 304L112 376zM352 280C352 213.7 405.7 160 472 160L496 160L496 176L472 176C414.6 176 368 222.6 368 280L368 288L544 288L544 480L352 480L352 280zM368 376L368 464L528 464L528 304L368 304L368 376z"/></svg>