<svg xmlns="http://www.w3.org/2000/svg" viewBox="0 0 640 640"><!--! Font Awesome Pro 7.2.0 by @fontawesome - https://fontawesome.com License - https://fontawesome.com/license (Commercial License) Copyright 2026 Fonticons, Inc. --><path fill="currentColor" d="M570 47.8L577.8 45.9L574 30.3L566.2 32.2L70.2 152.2L64.1 153.7L64.1 544L576.1 544L576.1 160L106.1 160L570 47.8zM80.2 176L560.2 176L560.2 528L80.2 528L80.2 176zM416.2 272C460.4 272 496.2 307.8 496.2 352C496.2 396.2 460.4 432 416.2 432C372 432 336.2 396.2 336.2 352C336.2 307.8 372 272 416.2 272zM416.2 448C469.2 448 512.2 405 512.2 352C512.2 299 469.2 256 416.2 256C363.2 256 320.2 299 320.2 352C320.2 405 363.2 448 416.2 448zM144.2 288L136.2 288L136.2 304L264.2 304L264.2 288L144.2 288zM144.2 344L136.2 344L136.2 360L264.2 360L264.2 344L144.2 344zM144.2 400L136.2 400L136.2 416L264.2 416L264.2 400L144.2 400z"/></svg>