<svg xmlns="http://www.w3.org/2000/svg" viewBox="0 0 640 640"><!--! Font Awesome Pro 7.2.0 by @fontawesome - https://fontawesome.com License - https://fontawesome.com/license (Commercial License) Copyright 2026 Fonticons, Inc. --><path fill="currentColor" d="M256 90.6L213.2 172.6C209.8 179.2 208 186.5 208 193.9C208 219.4 228.6 240 254.1 240L257.9 240C283.4 240 304 219.4 304 193.9C304 186.5 302.2 179.2 298.8 172.6L256 90.6zM247 73.3L256 56L265 73.3L313 165.2C317.6 174.1 320 183.9 320 193.9C320 228.2 292.2 256 257.9 256L254.1 256C219.8 256 192 228.2 192 193.9C192 183.9 194.4 174 199 165.2L247 73.3zM160 314.6L117.2 396.6C113.8 403.2 112 410.5 112 417.9C112 443.4 132.6 464 158.1 464L161.9 464C187.4 464 208 443.4 208 417.9C208 410.5 206.2 403.2 202.8 396.6L160 314.6zM151 297.3L160 280L169 297.3L216.9 389.2C221.5 398.1 223.9 407.9 223.9 417.9C223.9 452.2 196.1 480 161.8 480L158 480C123.8 480 96 452.2 96 417.9C96 407.9 98.4 398 103 389.2L151 297.3zM320.2 398.4C309.6 415.2 304 434.7 304 454.5C304 512.7 351.2 559.9 409.4 559.9L422.5 559.9C480.7 559.9 527.9 512.7 527.9 454.5C527.9 434.6 522.3 415.2 511.7 398.4L416 246.1L320.2 398.4zM306.7 389.9L406.6 231L416 216L425.4 231L525.3 389.9C537.5 409.3 543.9 431.7 543.9 454.5C543.9 521.6 489.5 575.9 422.5 575.9L409.4 575.9C342.3 575.9 288 521.5 288 454.5C288 431.6 294.5 409.2 306.6 389.9z"/></svg>