<svg xmlns="http://www.w3.org/2000/svg" viewBox="0 0 640 640"><!--! Font Awesome Pro 7.2.0 by @fontawesome - https://fontawesome.com License - https://fontawesome.com/license (Commercial License) Copyright 2026 Fonticons, Inc. --><path fill="currentColor" d="M480 448L479.8 456.2C475.5 540.8 405.6 608 320 608C234.4 608 164.5 540.8 160.2 456.2L160 448L160 32L480 32L480 448zM176 448C176 527.5 240.5 592 320 592C399.5 592 464 527.5 464 448L464 48L176 48L176 448zM320 496C328.8 496 336 503.2 336 512C336 520.8 328.8 528 320 528C311.2 528 304 520.8 304 512C304 503.2 311.2 496 320 496zM240 416C248.8 416 256 423.2 256 432C256 440.8 248.8 448 240 448C231.2 448 224 440.8 224 432C224 423.2 231.2 416 240 416zM320 416C328.8 416 336 423.2 336 432C336 440.8 328.8 448 320 448C311.2 448 304 440.8 304 432C304 423.2 311.2 416 320 416zM400 416C408.8 416 416 423.2 416 432C416 440.8 408.8 448 400 448C391.2 448 384 440.8 384 432C384 423.2 391.2 416 400 416zM240 368C231.2 368 224 360.8 224 352C224 343.2 231.2 336 240 336C248.8 336 256 343.2 256 352C256 360.8 248.8 368 240 368zM320 368C311.2 368 304 360.8 304 352C304 343.2 311.2 336 320 336C328.8 336 336 343.2 336 352C336 360.8 328.8 368 320 368zM400 368C391.2 368 384 360.8 384 352C384 343.2 391.2 336 400 336C408.8 336 416 343.2 416 352C416 360.8 408.8 368 400 368zM320 288C267 288 224 245 224 192C224 139 267 96 320 96C373 96 416 139 416 192C416 245 373 288 320 288zM320 112C275.8 112 240 147.8 240 192C240 236.2 275.8 272 320 272C364.2 272 400 236.2 400 192C400 147.8 364.2 112 320 112zM320 224C302.3 224 288 209.7 288 192C288 174.3 302.3 160 320 160C337.7 160 352 174.3 352 192C352 209.7 337.7 224 320 224zM320 176C311.2 176 304 183.2 304 192C304 200.8 311.2 208 320 208C328.8 208 336 200.8 336 192C336 183.2 328.8 176 320 176z"/></svg>