<svg xmlns="http://www.w3.org/2000/svg" viewBox="0 0 640 640"><!--! Font Awesome Pro 7.2.0 by @fontawesome - https://fontawesome.com License - https://fontawesome.com/license (Commercial License) Copyright 2026 Fonticons, Inc. --><path fill="currentColor" d="M261.1 430.5C404.2 398.7 472.2 339.7 503.3 280.2C533 223.3 530.8 162.7 522.9 117.1C477.3 109.2 416.7 107 359.8 136.7C300.3 167.8 241.3 235.7 209.5 378.9L261.2 430.6zM250.1 224C333.6 82.6 462.1 88.5 536.6 103.4C551.5 177.9 557.4 306.4 416 389.9L416 512L272 598.4L256 608L256 448L192 384L32 384L41.6 368L128 224L250.1 224zM241.2 240L137 240L60.2 368L195.5 368C207.5 316.5 223.1 274.4 241.2 240zM272 444.5L272 579.8L400 503L400 398.8C365.6 416.9 323.5 432.5 272 444.5zM416 256C433.7 256 448 241.7 448 224C448 206.3 433.7 192 416 192C398.3 192 384 206.3 384 224C384 241.7 398.3 256 416 256zM416 176C442.5 176 464 197.5 464 224C464 250.5 442.5 272 416 272C389.5 272 368 250.5 368 224C368 197.5 389.5 176 416 176z"/></svg>