<svg xmlns="http://www.w3.org/2000/svg" viewBox="0 0 640 640"><!--! Font Awesome Pro 7.2.0 by @fontawesome - https://fontawesome.com License - https://fontawesome.com/license (Commercial License) Copyright 2026 Fonticons, Inc. --><path fill="currentColor" d="M64 96L184 96C259.1 96 320 156.9 320 232C320 295.6 276.3 349 217.4 363.9L263.8 533.9L265.9 541.6L250.5 545.8L248.4 538.1L201.7 366.9C195.9 367.6 190.1 368 184.1 368L80.1 368L80.1 544L64.1 544L64.1 96zM80 352L184 352C250.3 352 304 298.3 304 232C304 165.7 250.3 112 184 112L80 112L80 352zM360 288L464 288C525.9 288 576 338.1 576 400C576 461.9 525.9 512 464 512L368 512L368 608L352 608L352 288L360 288zM464 496C517 496 560 453 560 400C560 347 517 304 464 304L368 304L368 496L464 496z"/></svg>