<svg xmlns="http://www.w3.org/2000/svg" viewBox="0 0 640 640"><!--! Font Awesome Pro 7.2.0 by @fontawesome - https://fontawesome.com License - https://fontawesome.com/license (Commercial License) Copyright 2026 Fonticons, Inc. --><path fill="currentColor" d="M193.8 64L176 64L183.9 80L241.4 196.8C155.3 275.9 80 352.7 80 480.8L80 560L80 576L560 576L560 480.8C560 352.7 484.7 275.9 398.7 196.8L456.1 80L464 64L193.8 64zM383.2 192L256.8 192L201.7 80L438.3 80L383.2 192zM96 480.8C96 360 166.4 287.4 252.8 208L387.2 208C473.6 287.4 544 360 544 480.8L544 560L96 560L96 480.8zM328 296L312 296L312 320L306.6 320C283 320 264 339.1 264 362.6C264 383.4 279.1 401.2 299.6 404.7L337.7 411C350.5 413.1 360 424.3 360 437.3C360 452 348.1 463.9 333.4 463.9L272 463.9L272 479.9L312 479.9L312 503.9L328 503.9L328 479.9L333.4 479.9C357 479.9 376 460.8 376 437.3C376 416.5 360.9 398.7 340.4 395.2L302.3 388.9C289.5 386.8 280 375.6 280 362.6C280 347.9 291.9 336 306.6 336L360 336L360 320L328 320L328 296z"/></svg>