<svg xmlns="http://www.w3.org/2000/svg" viewBox="0 0 640 640"><!--! Font Awesome Pro 7.2.0 by @fontawesome - https://fontawesome.com License - https://fontawesome.com/license (Commercial License) Copyright 2026 Fonticons, Inc. --><path fill="currentColor" d="M320 80C452.5 80 560 187.5 560 320C560 452.5 452.5 560 320 560C187.5 560 80 452.5 80 320C80 187.5 187.5 80 320 80zM320 576C461.4 576 576 461.4 576 320C576 178.6 461.4 64 320 64C178.6 64 64 178.6 64 320C64 461.4 178.6 576 320 576zM256 272C256 263.2 248.8 256 240 256C231.2 256 224 263.2 224 272C224 280.8 231.2 288 240 288C248.8 288 256 280.8 256 272zM400 288C408.8 288 416 280.8 416 272C416 263.2 408.8 256 400 256C391.2 256 384 263.2 384 272C384 280.8 391.2 288 400 288zM206.7 400.2C214.7 384.6 226.4 370.6 240 357.6C253.6 370.6 265.3 384.6 273.3 400.2C277.6 408.5 280 416.4 280 423.3C280 446.9 262.8 464 240 464C217.2 464 200 446.9 200 423.3C200 416.4 202.4 408.5 206.7 400.2zM240 336C221.4 352.2 203.8 370.8 192.4 392.9C187.5 402.4 184 412.9 184 423.3C184 455.6 208.1 480 240 480C271.9 480 296 455.6 296 423.3C296 412.9 292.4 402.4 287.6 392.9C276.3 370.8 258.7 352.2 240 336zM352 400C383.8 400 411.7 416.9 427.2 442.2L440.9 433.9C422.6 404 389.7 384.1 352.1 384.1C346.8 384.1 341.7 384.5 336.6 385.2C338.6 390.2 340.2 395.4 341.5 400.7C345 400.3 348.5 400.1 352.1 400.1z"/></svg>