<svg xmlns="http://www.w3.org/2000/svg" viewBox="0 0 640 640"><!--! Font Awesome Pro 7.2.0 by @fontawesome - https://fontawesome.com License - https://fontawesome.com/license (Commercial License) Copyright 2026 Fonticons, Inc. --><path fill="currentColor" d="M448 523.1L448 320L432 320L432 532.3C398.6 550 360.5 560 320 560C279.5 560 241.4 550 208 532.3L208 320L192 320L192 523.1C124.7 480.5 80 405.5 80 320C80 187.5 187.5 80 320 80C452.5 80 560 187.5 560 320C560 405.5 515.3 480.5 448 523.1zM320 576C461.4 576 576 461.4 576 320C576 178.6 461.4 64 320 64C178.6 64 64 178.6 64 320C64 461.4 178.6 576 320 576zM368 448C368 474.5 346.5 496 320 496C293.5 496 272 474.5 272 448L272 416C272 389.5 293.5 368 320 368C346.5 368 368 389.5 368 416L368 448zM320 352C284.7 352 256 380.7 256 416L256 448C256 483.3 284.7 512 320 512C355.3 512 384 483.3 384 448L384 416C384 380.7 355.3 352 320 352zM176 296C176 273.9 193.9 256 216 256L232 256C254.1 256 272 273.9 272 296L288 296C288 265.1 262.9 240 232 240L216 240C185.1 240 160 265.1 160 296L176 296zM408 256L424 256C446.1 256 464 273.9 464 296L480 296C480 265.1 454.9 240 424 240L408 240C377.1 240 352 265.1 352 296L368 296C368 273.9 385.9 256 408 256z"/></svg>