<svg xmlns="http://www.w3.org/2000/svg" viewBox="0 0 640 640"><!--! Font Awesome Pro 7.2.0 by @fontawesome - https://fontawesome.com License - https://fontawesome.com/license (Commercial License) Copyright 2026 Fonticons, Inc. --><path fill="currentColor" d="M296 136L296 64L312 85.7L532.2 384L544 400L312 400L312 448L576 448L568 464L512 576L128 576L72 464L64 448L296 448L296 400L96 400L108.1 384L296 136zM312 384L512.3 384L312 112.6L312 384zM296 384L296 162.5L128.2 384L296 384zM296 464L89.9 464L137.9 560L502.1 560L550.1 464L312 464L312 464L296 464L296 464z"/></svg>