<svg xmlns="http://www.w3.org/2000/svg" viewBox="0 0 640 640"><!--! Font Awesome Pro 7.2.0 by @fontawesome - https://fontawesome.com License - https://fontawesome.com/license (Commercial License) Copyright 2026 Fonticons, Inc. --><path fill="currentColor" d="M150.3 416L38.6 528L185.4 528L297.4 416L150.3 416zM463.5 102.1L166.3 400L336 400L336 400L377.4 400L570 207.4C584.1 193.3 591.9 174.2 591.9 154.3C591.7 113.3 558.1 80 516.9 80C496.9 80 477.6 88 463.6 102.1zM192 544L0 544L16 528L452.2 90.8C469.3 73.7 492.7 64 516.9 64C566.8 64 607.7 104.3 607.9 154.2C608 178.4 598.5 201.6 581.4 218.7L384 416L320 416L192 544zM328 528L448 528L448 544L320 544L320 528L328 528zM504 528L608 528L608 544L496 544L496 528L504 528z"/></svg>