<svg xmlns="http://www.w3.org/2000/svg" viewBox="0 0 640 640"><!--! Font Awesome Pro 7.2.0 by @fontawesome - https://fontawesome.com License - https://fontawesome.com/license (Commercial License) Copyright 2026 Fonticons, Inc. --><path fill="currentColor" d="M75.3 104.7L68 101.4L61.4 116L68.7 119.3L580.7 352L32 352L32 544L608 544L608 352C608 348.9 606.2 346 603.3 344.7L75.3 104.7zM592 368L592 528L48 528L48 368L592 368zM240 448C240 439.2 232.8 432 224 432C215.2 432 208 439.2 208 448C208 456.8 215.2 464 224 464C232.8 464 240 456.8 240 448zM128 464C136.8 464 144 456.8 144 448C144 439.2 136.8 432 128 432C119.2 432 112 439.2 112 448C112 456.8 119.2 464 128 464z"/></svg>