<svg xmlns="http://www.w3.org/2000/svg" viewBox="0 0 640 640"><!--! Font Awesome Pro 7.2.0 by @fontawesome - https://fontawesome.com License - https://fontawesome.com/license (Commercial License) Copyright 2026 Fonticons, Inc. --><path fill="currentColor" d="M496 336C566.7 336 624 393.3 624 464C624 534.7 566.7 592 496 592C425.3 592 368 534.7 368 464C368 393.3 425.3 336 496 336zM496 608C575.5 608 640 543.5 640 464C640 384.5 575.5 320 496 320C416.5 320 352 384.5 352 464C352 543.5 416.5 608 496 608zM508 516L484 516L484 540L508 540L508 516zM504 384L504 376L488 376L488 488L504 488L504 384zM288 61.5L293.2 65.8L443 191.9L576.1 191.9L576.1 289.3C570.9 286.9 565.5 284.7 560.1 282.8L560.1 207.9L437.2 207.9L435 206L288.2 82.3L141.4 206L139.2 207.9L16.3 207.9L16.3 559.9L240.3 559.9L240.3 415.9L310.3 415.9C308.9 421.2 307.8 426.5 306.9 431.9L256.2 431.9L256.2 559.9L304.2 559.9L304.2 559.9L329.9 559.9C333.1 565.4 336.5 570.7 340.2 575.9L0 576L0 192L133.1 192L282.8 65.9L288 61.5zM288 304C314.5 304 336 282.5 336 256C336 229.5 314.5 208 288 208C261.5 208 240 229.5 240 256C240 282.5 261.5 304 288 304zM288 192C323.3 192 352 220.7 352 256C352 291.3 323.3 320 288 320C252.7 320 224 291.3 224 256C224 220.7 252.7 192 288 192zM80 272L152 272L152 344L80 344L80 272zM96 288L96 328L136 328L136 288L96 288zM88 400L152 400L152 472L80 472L80 400L88 400zM96 456L136 456L136 416L96 416L96 456z"/></svg>