<svg xmlns="http://www.w3.org/2000/svg" viewBox="0 0 640 640"><!--! Font Awesome Pro 7.2.0 by @fontawesome - https://fontawesome.com License - https://fontawesome.com/license (Commercial License) Copyright 2026 Fonticons, Inc. --><path fill="currentColor" d="M293.2 65.9L288 61.5L282.8 65.9L133.1 192L0 192L0 576L340 576C336.3 570.9 332.8 565.5 329.7 560L304 560L304 560L256 560L256 432L306.7 432C307.6 426.6 308.7 421.3 310.1 416L240.1 416L240.1 560L16.1 560L16.1 208L139 208L141.2 206.1L288 82.4L434.8 206.1L437 208L559.9 208L559.9 282.9C565.3 284.8 570.7 287 575.9 289.4L575.9 192L442.8 192L293 65.9zM240 256C240 229.5 261.5 208 288 208C314.5 208 336 229.5 336 256C336 282.5 314.5 304 288 304C261.5 304 240 282.5 240 256zM352 256C352 220.7 323.3 192 288 192C252.7 192 224 220.7 224 256C224 291.3 252.7 320 288 320C323.3 320 352 291.3 352 256zM88 272L80 272L80 344L152 344L152 272L88 272zM96 328L96 288L136 288L136 328L96 328zM80 400L80 472L152 472L152 400L80 400zM96 416L136 416L136 456L96 456L96 416zM368 464C368 393.3 425.3 336 496 336C566.7 336 624 393.3 624 464C624 534.7 566.7 592 496 592C425.3 592 368 534.7 368 464zM640 464C640 384.5 575.5 320 496 320C416.5 320 352 384.5 352 464C352 543.5 416.5 608 496 608C575.5 608 640 543.5 640 464zM549.7 421.7L555.4 416L544.1 404.7L496.1 452.7L448.1 404.7L436.8 416L484.8 464L436.8 512L448.1 523.3L496.1 475.3L544.1 523.3L555.4 512L507.4 464L549.7 421.7z"/></svg>