<svg xmlns="http://www.w3.org/2000/svg" viewBox="0 0 640 640"><!--! Font Awesome Pro 7.2.0 by @fontawesome - https://fontawesome.com License - https://fontawesome.com/license (Commercial License) Copyright 2026 Fonticons, Inc. --><path fill="currentColor" d="M72 64L224 64L224 80L80 80L80 224L64 224L64 64L72 64zM576 64L576 224L560 224L560 80L416 80L416 64L576 64zM256 160L384 160L396 192L480 192L480 448L160 448L160 192L244 192L256 160zM396 208L384.9 208C383 203 379 192.3 372.9 176L267.1 176C261 192.3 257 203 255.1 208L176 208L176 432L464 432L464 208L396 208zM368 320C368 293.5 346.5 272 320 272C293.5 272 272 293.5 272 320C272 346.5 293.5 368 320 368C346.5 368 368 346.5 368 320zM256 320C256 284.7 284.7 256 320 256C355.3 256 384 284.7 384 320C384 355.3 355.3 384 320 384C284.7 384 256 355.3 256 320zM64 576L64 416L80 416L80 560L224 560L224 576L64 576zM568 576L416 576L416 560L560 560L560 416L576 416L576 576L568 576z"/></svg>