<svg xmlns="http://www.w3.org/2000/svg" viewBox="0 0 640 640"><!--! Font Awesome Pro 7.2.0 by @fontawesome - https://fontawesome.com License - https://fontawesome.com/license (Commercial License) Copyright 2026 Fonticons, Inc. --><path fill="currentColor" d="M392 352L560 352L560 166.6L505.4 112L446.7 112L392.1 166.6L392.1 352zM338.7 205.7L354.7 231.5L376 219.3L376 178.8L338.7 205.7zM356 249.2L349.3 253L345.2 246.4L321.2 207.7L317.3 201.4L323.4 197L379.3 156.7L440.1 95.9L512.1 95.9L572.9 156.7L628.8 197L634.9 201.4L631 207.7L607 246.4L602.9 253C600.7 251.7 591.7 246.6 576.2 237.7L576.2 367.9L376.2 367.9L376.2 237.7L356.2 249.1zM597.3 231.5L613.3 205.7L576 178.8L576 219.3L597.3 231.5zM448 208C456.8 208 464 215.2 464 224C464 232.8 456.8 240 448 240C439.2 240 432 232.8 432 224C432 215.2 439.2 208 448 208zM496 224C496 215.2 503.2 208 512 208C520.8 208 528 215.2 528 224C528 232.8 520.8 240 512 240C503.2 240 496 232.8 496 224zM304.2 133.9C315.1 125.2 329 120 344 120L344 136C332.7 136 322.3 139.9 314.2 146.4L302.2 155.9L292.1 144.4C283.3 134.3 270.4 128 256 128C241.6 128 228.7 134.3 219.9 144.4L209.8 155.9L197.8 146.4C189.6 139.9 179.3 136 168 136C145.5 136 126.5 151.6 121.4 172.5L117.9 186.7L103.4 184.5C101 184.1 98.5 183.9 96 183.9C69.5 183.9 48 205.4 48 231.9C48 235.9 48.5 239.8 49.4 243.5L52.4 255.6L41.4 261.5C26.3 269.7 16 285.7 16 304C16 322.3 26.3 338.3 41.4 346.4L52.4 352.3L49.4 364.4C48.5 368.1 48 372 48 376C48 402.5 69.5 424 96 424C98.5 424 101 423.8 103.4 423.4L117.9 421.2L121.4 435.4C126.5 456.4 145.5 472 168 472C179.3 472 189.7 468.1 197.8 461.6L209.8 452.1L219.9 463.6C228.7 473.7 241.6 480 256 480C270.4 480 283.3 473.7 292.1 463.6L302.2 452.1L314.2 461.6C322.4 468.1 332.7 472 344 472C366.5 472 385.5 456.4 390.6 435.4L394.1 421.2L408.6 423.4C411 423.8 413.5 424 416 424C433.8 424 449.3 414.3 457.6 400L475.4 400C466.7 421.6 446.5 437.3 422.5 439.7L391.9 569.9L390.4 576.1L304.1 576.1L304.1 504.1L320.1 504.1L320.1 560.1L377.8 560.1L405.5 442.2C397.7 468.7 373.2 488.1 344.1 488.1C329.1 488.1 315.2 482.9 304.3 474.2C292.6 487.6 275.3 496.1 256.1 496.1C236.9 496.1 219.6 487.6 207.9 474.2C197 482.9 183.1 488.1 168.1 488.1C139 488.1 114.5 468.7 106.7 442.2L134.4 560.1L192.1 560.1L192.1 504.1L208.1 504.1L208.1 576.1L121.8 576.1L120.3 569.9L89.7 439.7C57.4 436.5 32.1 409.2 32.1 376C32.1 370.7 32.8 365.5 34 360.5C13.8 349.7 .1 328.5 .1 304C.1 279.5 13.8 258.3 34 247.5C32.8 242.5 32.1 237.3 32.1 232C32.1 196.7 60.8 168 96.1 168C99.4 168 102.7 168.3 105.9 168.8C112.7 140.8 138 120 168.1 120C183.1 120 197 125.2 207.9 133.9C219.6 120.5 236.9 112 256.1 112C275.3 112 292.6 120.5 304.3 133.9z"/></svg>