<svg xmlns="http://www.w3.org/2000/svg" viewBox="0 0 640 640"><!--! Font Awesome Pro 7.2.0 by @fontawesome - https://fontawesome.com License - https://fontawesome.com/license (Commercial License) Copyright 2026 Fonticons, Inc. --><path fill="currentColor" d="M320 81.2L314.2 83.4L106.7 163.9L97.1 167.6L96.5 177.9C93.7 225.7 101.2 299.4 132.5 371.5C163.9 443.9 219.7 515.1 313.6 555.8L320 558.5L326.4 555.8C420.3 515.2 476.1 443.9 507.5 371.6C538.8 299.5 546.3 225.7 543.5 178L542.9 167.7L533.3 164L325.8 83.5L320 81.3zM558.3 156.5L559.5 177C562.4 227 554.6 303.3 522.2 377.9C489.5 453.2 431.1 527.9 332.8 570.5L320.1 576L307.4 570.5C208.9 527.9 150.6 453.2 117.9 377.9C85.5 303.3 77.7 226.9 80.6 177L81.8 156.5L101 149L308.5 68.5L320 64L331.6 68.5L539.1 149L558.3 156.5z"/></svg>