<svg xmlns="http://www.w3.org/2000/svg" viewBox="0 0 640 640"><!--! Font Awesome Pro 7.2.0 by @fontawesome - https://fontawesome.com License - https://fontawesome.com/license (Commercial License) Copyright 2026 Fonticons, Inc. --><path fill="currentColor" d="M314.3 83.4L320.1 81.2L325.9 83.4L533.4 163.9L543 167.6L543.6 177.9C546.4 225.7 538.9 299.4 507.6 371.5C476.1 443.9 420.4 515.1 326.5 555.7L320.1 558.4L313.7 555.7C219.8 515.1 164 443.8 132.6 371.4C101.3 299.3 93.8 225.6 96.6 177.8L97.2 167.5L106.8 163.8L314.3 83.3zM559.5 177L558.3 156.5L539.1 149L331.6 68.5L320 64L308.5 68.5L101 149L81.8 156.5L80.6 177C77.7 226.9 85.5 303.3 117.9 377.9C150.6 453.2 208.9 527.9 307.3 570.5L320 576L332.7 570.5C431.1 527.9 489.4 453.2 522.1 377.9C554.5 303.2 562.3 226.9 559.4 177zM208 192L192 192L192 280C192 302.3 207.2 321.1 227.8 326.4L208.8 364.4C206.8 368.4 208.4 373.2 212.4 375.1C216.4 377 221.2 375.5 223.1 371.5L245 327.7C269.1 325.2 287.9 304.8 287.9 280L287.9 208L371 208L384.8 235.6L387 240L463.9 240L463.9 272C463.9 311.8 431.7 344 391.9 344L335.9 344L335.9 440C335.9 444.4 339.5 448 343.9 448C348.3 448 351.9 444.4 351.9 440L351.9 360L391.9 360C440.5 360 479.9 320.6 479.9 272L479.9 224L396.8 224L383 196.4L380.8 192L207.9 192zM239.9 312C222.3 311.9 208 297.6 208 280L208 208L272 208L272 280C272 297.6 257.8 311.9 240.2 312L239.9 312zM336 272C344.8 272 352 264.8 352 256C352 247.2 344.8 240 336 240C327.2 240 320 247.2 320 256C320 264.8 327.2 272 336 272z"/></svg>