<svg xmlns="http://www.w3.org/2000/svg" viewBox="0 0 640 640"><!--! Font Awesome Pro 7.2.0 by @fontawesome - https://fontawesome.com License - https://fontawesome.com/license (Commercial License) Copyright 2026 Fonticons, Inc. --><path fill="currentColor" d="M240 80L240 128L400 128L400 80L240 80zM224 128L224 64L416 64L416 128L512 128L512 316.8L560 336L511.6 481.1L496.7 475.1L540 345.2L327.9 260.4L327.9 497.2L319.9 500.4L311.9 497.2L311.9 260.4L99.8 345.2L143.1 475.1L128.2 481.1L79.8 336L127.8 316.8L127.8 128L223.8 128zM496 144L144 144L144 310.4L320 240L496 310.4L496 144zM196.2 496.5L320 543.4L443.8 496.5L446.6 495.4L449.4 496.5L573.5 543.5L621.5 528.3L629.1 525.9L633.9 541.2L626.3 543.6L575.6 559.6L573 560.4L570.4 559.4L446.6 512.5L322.8 559.4L320 560.5L317.2 559.4L193.4 512.5L69.6 559.4L67 560.4L64.4 559.6L13.7 543.6L6.1 541.2L10.9 525.9L18.5 528.3L66.5 543.5L190.6 496.5L193.4 495.4L196.2 496.5z"/></svg>