<svg xmlns="http://www.w3.org/2000/svg" viewBox="0 0 640 640"><!--! Font Awesome Pro 7.2.0 by @fontawesome - https://fontawesome.com License - https://fontawesome.com/license (Commercial License) Copyright 2026 Fonticons, Inc. --><path fill="currentColor" d="M181 64L459.1 64L461.4 66.1L621.4 210.1L627.1 215.3L622.2 221.2L542.2 317.2L537.3 323L531.2 318.4L480 280L480 576L160 576L160 280L108.8 318.4L102.7 323L97.8 317.2L17.8 221.2L12.9 215.3L18.6 210.1L178.6 66.1L180.9 64zM187.1 80L73.2 182.5L146.4 270.3C158.3 261.3 168.2 253.9 176.1 248L176.1 560L464.1 560L464.1 248C472 253.9 481.8 261.3 493.8 270.3L566.9 182.5L453 80L414.7 80C407.1 125.4 367.6 160 320 160C272.4 160 233 125.4 225.4 80L187.1 80zM506.6 279.9L534.8 301.1L605 216.9L578.8 193.3L506.6 280zM61.3 193.2L35.1 216.8L105.3 301L133.5 279.8L61.3 193.1zM320.1 144C358.8 144 391.1 116.5 398.5 80L241.7 80C249.1 116.5 281.4 144 320.1 144zM272.1 240L272.1 368L368.1 368L368.1 240L272.1 240zM256.1 224L384.1 224L384.1 384L256.1 384L256.1 224z"/></svg>