<svg xmlns="http://www.w3.org/2000/svg" viewBox="0 0 640 640"><!--! Font Awesome Pro 7.2.0 by @fontawesome - https://fontawesome.com License - https://fontawesome.com/license (Commercial License) Copyright 2026 Fonticons, Inc. --><path fill="currentColor" d="M208 472L288 512L640 512L640 439.9C640 386.9 607.4 339.4 557.9 320.4L432 272L426.3 266.3L426 266.6L272 128L224 128L192 240L0 240L0 512L192 512L192 464L208 472zM552.2 335.4C593 351.1 620.7 388.9 623.7 432L16 432L16 256L204.1 256L207.4 244.4L236.1 144L265.9 144L347.4 217.3L298.4 266.3L292.7 272L304 283.3L309.7 277.6L359.3 228L414.8 277.9L370.4 322.3L364.7 328L376 339.3L381.7 333.6L427.8 287.5L552.2 335.4zM624 448L624 496L291.8 496L199.2 449.7L195.8 448L624 448zM176 448L176 496L16 496L16 448L176 448z"/></svg>