<svg xmlns="http://www.w3.org/2000/svg" viewBox="0 0 640 640"><!--! Font Awesome Pro 7.2.0 by @fontawesome - https://fontawesome.com License - https://fontawesome.com/license (Commercial License) Copyright 2026 Fonticons, Inc. --><path fill="currentColor" d="M53.7 42.4L48 36.7L36.7 48L42.4 53.7L586.6 597.7L592.3 603.4L603.6 592.1L597.9 586.4L544.1 532.6L544.1 96L528.1 96L528.1 516.6L432.1 420.6L432.1 192L416.1 192L416.1 404.7L53.8 42.5zM328 407.2L312 391.2L312 544L328 544L328 407.2zM224 384L208 384L208 544L224 544L224 384zM112 448L96 448L96 544L112 544L112 448z"/></svg>