<svg xmlns="http://www.w3.org/2000/svg" viewBox="0 0 640 640"><!--! Font Awesome Pro 7.2.0 by @fontawesome - https://fontawesome.com License - https://fontawesome.com/license (Commercial License) Copyright 2026 Fonticons, Inc. --><path fill="currentColor" d="M328 136C328 105.1 353.1 80 384 80C414.9 80 440 105.1 440 136L440 192L456 192L456 136C456 96.2 423.8 64 384 64C344.2 64 312 96.2 312 136L312 352L208 352L208 288L96 288L96 304L192 304L192 352L64 352L64 416L96 416L96 472C96 529.4 142.6 576 200 576L440 576C497.4 576 544 529.4 544 472L544 416L576 416L576 352L448 352L448 304L544 304L544 288L432 288L432 352L328 352L328 136zM528 416L528 472C528 520.6 488.6 560 440 560L200 560C151.4 560 112 520.6 112 472L112 416L528 416zM80 368L560 368L560 400L80 400L80 368z"/></svg>