<svg xmlns="http://www.w3.org/2000/svg" viewBox="0 0 640 640"><!--! Font Awesome Pro 7.2.0 by @fontawesome - https://fontawesome.com License - https://fontawesome.com/license (Commercial License) Copyright 2026 Fonticons, Inc. --><path fill="currentColor" d="M328 64L328 176L504 176L504 192L328 192L328 272L568 272L568 288L328 288L328 368L472 368L472 384L328 384L328 480L408 480C447.8 480 480 512.2 480 552L480 576L464 576L464 552C464 521.1 438.9 496 408 496L232 496C201.1 496 176 521.1 176 552L176 576L160 576L160 552C160 512.2 192.2 480 232 480L312 480L312 384L168 384L168 368L312 368L312 288L72 288L72 272L312 272L312 192L136 192L136 176L312 176L312 64L328 64z"/></svg>