<svg xmlns="http://www.w3.org/2000/svg" viewBox="0 0 640 640"><!--! Font Awesome Pro 7.2.0 by @fontawesome - https://fontawesome.com License - https://fontawesome.com/license (Commercial License) Copyright 2026 Fonticons, Inc. --><path fill="currentColor" d="M120.7 186.3C139 196.9 162.9 194.3 178.6 178.6C197.3 159.9 197.3 129.5 178.6 110.7C159.9 91.9 129.4 92 110.7 110.7C92.8 128.6 92 157.2 108.3 176C80.3 217 64 266.6 64 320C64 461.4 178.6 576 320 576C355.7 576 389.7 568.7 420.5 555.5C417 551.2 414 546.7 411.4 542C383.2 553.6 352.4 560 320 560C187.5 560 80 452.5 80 320C80 270.5 95 224.5 120.7 186.3zM519.3 453.7C501 443.1 477.1 445.7 461.4 461.4C442.7 480.1 442.7 510.5 461.4 529.3C480.1 548.1 510.5 548 529.3 529.3C547.2 511.4 548 482.8 531.7 464C559.7 423 576 373.4 576 320C576 178.6 461.4 64 320 64C284.3 64 250.3 71.3 219.5 84.5C223 88.8 226 93.3 228.6 98C256.8 86.4 287.6 80 320 80C452.5 80 560 187.5 560 320C560 369.5 545 415.5 519.3 453.7zM122 122C134.5 109.5 154.8 109.5 167.3 122C179.8 134.5 179.8 154.8 167.3 167.3C154.8 179.8 134.5 179.8 122 167.3C109.5 154.8 109.5 134.5 122 122zM472.7 472.7C485.2 460.2 505.5 460.2 518 472.7C530.5 485.2 530.5 505.5 518 518C505.5 530.5 485.2 530.5 472.7 518C460.2 505.5 460.2 485.2 472.7 472.7zM444.5 229.5C438.6 236.1 429.5 238.8 420.9 236.7C412.3 234.5 405.6 227.8 403.4 219.2C401.3 210.6 404 201.5 410.6 195.6C416.5 189 425.6 186.3 434.2 188.4C442.8 190.6 449.5 197.3 451.7 205.9C453.8 214.5 451.1 223.6 444.5 229.5zM320 160C231.6 160 160 231.6 160 320C160 408.4 231.6 480 320 480C408.4 480 480 408.4 480 320C480 290.3 471.9 262.5 457.8 238.6C471.4 222.9 470.7 199.1 455.8 184.2C440.9 169.3 417.1 168.6 401.4 182.2C377.5 168.1 349.7 160 320 160zM399.2 240.8C411.6 253.2 430.1 255.8 445 248.5C457.1 269.6 464 294 464 320C464 399.5 399.5 464 320 464C240.5 464 176 399.5 176 320C176 240.5 240.5 176 320 176C346 176 370.4 182.9 391.5 195C384.2 209.9 386.8 228.4 399.2 240.8zM325.7 250.3L320 244.6L314.3 250.3L250.3 314.3L244.6 320L250.3 325.7L314.3 389.7L320 395.4L395.3 320.1L389.6 314.4L325.6 250.4zM320 372.7L267.3 320L320 267.3L372.7 320L320 372.7z"/></svg>