<svg xmlns="http://www.w3.org/2000/svg" viewBox="0 0 640 640"><!--! Font Awesome Pro 7.2.0 by @fontawesome - https://fontawesome.com License - https://fontawesome.com/license (Commercial License) Copyright 2026 Fonticons, Inc. --><path fill="currentColor" d="M165.7 98.3L160 92.6L154.3 98.3L50.3 202.3L44.6 208L55.9 219.3L61.6 213.6L151.9 123.3L151.9 544L167.9 544L167.9 123.3L258.2 213.6L263.9 219.3L275.2 208L269.5 202.3L165.5 98.3zM328 128L320 128L320 144L416 144L416 128L328 128zM328 256L320 256L320 272L480 272L480 256L328 256zM328 384L320 384L320 400L544 400L544 384L328 384zM328 512L320 512L320 528L608 528L608 512L328 512z"/></svg>