<svg xmlns="http://www.w3.org/2000/svg" viewBox="0 0 640 640"><!--! Font Awesome Pro 7.2.0 by @fontawesome - https://fontawesome.com License - https://fontawesome.com/license (Commercial License) Copyright 2026 Fonticons, Inc. --><path fill="currentColor" d="M112 112L112 528L528 528L528 112L112 112zM96 96L544 96L544 544L96 544L96 96zM424 200L424 232L456 232L456 248L397.2 248C381.1 248 368 261.1 368 277.2C368 289.8 376 300.9 388 304.9L430 318.9C450.4 325.7 464.1 344.7 464.1 366.2C464.1 390.4 446.9 410.5 424.1 415.1L424.1 448.1L408.1 448.1L408.1 416.1L360.1 416.1L360.1 400.1L414.3 400.1C433 400.1 448.1 384.9 448.1 366.3C448.1 351.7 438.8 338.8 425 334.2L383 320.2C364.5 314 352.1 296.8 352.1 277.3C352.1 252.3 372.3 232.1 397.3 232.1L408.1 232.1L408.1 200.1L424.1 200.1zM200 224L264 224C299.3 224 328 252.7 328 288C328 316.8 308.9 341.2 282.7 349.2L311.4 421L314.4 428.4L299.5 434.3L296.5 426.9L266.5 351.9C265.6 351.9 264.8 352 263.9 352L207.9 352L207.9 432L191.9 432L191.9 224L199.9 224zM264 336C290.5 336 312 314.5 312 288C312 261.5 290.5 240 264 240L208 240L208 336L264 336z"/></svg>