<svg xmlns="http://www.w3.org/2000/svg" viewBox="0 0 640 640"><!--! Font Awesome Pro 7.2.0 by @fontawesome - https://fontawesome.com License - https://fontawesome.com/license (Commercial License) Copyright 2026 Fonticons, Inc. --><path fill="currentColor" d="M112 112L112 528L528 528L528 112L112 112zM96 96L544 96L544 544L96 544L96 96zM280 416L280 400L336 400C358.1 400 376 382.1 376 360L376 330.3C364.3 343.6 347.1 352 328 352L312 352C276.7 352 248 323.3 248 288C248 252.7 276.7 224 312 224L328 224C363.3 224 392 252.7 392 288L392 360C392 390.9 366.9 416 336 416L280 416zM328 240L312 240C285.5 240 264 261.5 264 288C264 314.5 285.5 336 312 336L328 336C354.5 336 376 314.5 376 288C376 261.5 354.5 240 328 240z"/></svg>