<svg xmlns="http://www.w3.org/2000/svg" viewBox="0 0 640 640"><!--! Font Awesome Pro 7.2.0 by @fontawesome - https://fontawesome.com License - https://fontawesome.com/license (Commercial License) Copyright 2026 Fonticons, Inc. --><path fill="currentColor" d="M112 112L112 528L528 528L528 112L112 112zM96 96L544 96L544 544L96 544L96 96zM308.7 356.5L288.1 427L416.2 304L325.3 304C326.8 298.7 335.7 268.4 351.8 213L223.7 336L314.6 336L308.6 356.5zM184 352L200.7 336L360.9 182.2L384 160C380.5 172.1 369.6 209.5 351.3 272L346.6 288L455.9 288L439.2 304L279 457.8L255.9 480C259.4 467.9 270.3 430.5 288.6 368L293.3 352L184 352z"/></svg>