<svg xmlns="http://www.w3.org/2000/svg" viewBox="0 0 640 640"><!--! Font Awesome Pro 7.2.0 by @fontawesome - https://fontawesome.com License - https://fontawesome.com/license (Commercial License) Copyright 2026 Fonticons, Inc. --><path fill="currentColor" d="M544 544L96 544L96 96L544 96L544 544zM112 528L528 528L528 112L112 112L112 528zM373.9 448L357.2 448L434 192L450.7 192L373.9 448zM320 240L250.8 240C231.6 240 216 255.6 216 274.8C216 292.1 228.7 306.8 245.9 309.3L284.3 314.8C309.3 318.4 328 339.8 328 365.1C328 393.2 305.2 415.9 277.2 415.9L208 415.9L208 399.9L277.2 399.9C296.4 399.9 312 384.3 312 365.1C312 347.8 299.3 333.1 282.1 330.6L243.7 325.1C218.7 321.5 200 300.1 200 274.8C200 246.7 222.8 224 250.8 224L320 224L320 240z"/></svg>