<svg xmlns="http://www.w3.org/2000/svg" viewBox="0 0 640 640"><!--! Font Awesome Pro 7.2.0 by @fontawesome - https://fontawesome.com License - https://fontawesome.com/license (Commercial License) Copyright 2026 Fonticons, Inc. --><path fill="currentColor" d="M112 112L112 528L528 528L528 112L112 112zM96 96L544 96L544 544L96 544L96 96zM384 232L384 344C384 383.8 351.8 416 312 416C272.2 416 240 383.8 240 344L240 320L256 320L256 344C256 374.9 281.1 400 312 400C342.9 400 368 374.9 368 344L368 224L384 224L384 232z"/></svg>