<svg xmlns="http://www.w3.org/2000/svg" viewBox="0 0 640 640"><!--! Font Awesome Pro 7.2.0 by @fontawesome - https://fontawesome.com License - https://fontawesome.com/license (Commercial License) Copyright 2026 Fonticons, Inc. --><path fill="currentColor" d="M112 112L112 528L528 528L528 112L112 112zM96 96L544 96L544 544L96 544L96 96zM232 320C232 368.6 271.4 408 320 408C365.9 408 403.6 372.9 407.7 328L320.1 328L320.1 312L424.1 312L424.1 320C424.1 377.4 377.5 424 320.1 424C262.7 424 216.1 377.4 216.1 320C216.1 262.6 262.7 216 320.1 216C346.7 216 371 226 389.4 242.5L378.7 254.4C363.1 240.5 342.6 232 320 232C271.4 232 232 271.4 232 320z"/></svg>