<svg xmlns="http://www.w3.org/2000/svg" viewBox="0 0 640 640"><!--! Font Awesome Pro 7.2.0 by @fontawesome - https://fontawesome.com License - https://fontawesome.com/license (Commercial License) Copyright 2026 Fonticons, Inc. --><path fill="currentColor" d="M112 112L112 528L528 528L528 112L112 112zM96 96L544 96L544 544L96 544L96 96zM205.5 224L222.1 224L264.6 379.8L312.4 229.6L314.2 224L325.9 224L327.7 229.6L375.5 379.8L418 224L434.6 224L383.8 410.1L382.2 416L370.2 416L368.4 410.4L320 258.4L271.6 410.4L269.8 416L257.8 416L256.2 410.1L205.4 224z"/></svg>