<svg xmlns="http://www.w3.org/2000/svg" viewBox="0 0 640 640"><!--! Font Awesome Pro 7.2.0 by @fontawesome - https://fontawesome.com License - https://fontawesome.com/license (Commercial License) Copyright 2026 Fonticons, Inc. --><path fill="currentColor" d="M528 112L528 528L112 528L112 112L528 112zM112 96L96 96L96 544L544 544L544 96L112 96zM384.6 192L402.9 192L402.9 219.4L448.6 219.4L448.6 237.7L392.6 237.7C373 237.7 357.2 253.6 357.2 273.1C357.2 290.4 369.7 305.2 386.8 308L422.1 313.9C448 318.2 467 340.6 467 366.9C467 396.6 443 420.6 413.3 420.6L403 420.6L403 448L384.7 448L384.7 420.6L348.1 420.6L348.1 402.3L413.3 402.3C432.9 402.3 448.7 386.4 448.7 366.9C448.7 349.6 436.2 334.8 419.1 332L383.8 326.1C357.9 321.8 338.9 299.4 338.9 273.1C338.9 246.2 358.7 223.8 384.6 220L384.6 192zM227.1 219.4L249.5 219.4L251.5 225.8L311.1 417.8L313.8 426.5L296.3 431.9C296.1 431.2 291.1 415.2 281.4 383.9L197.8 383.9C196.9 383.9 196.1 383.8 195.3 383.6C185.5 415.2 180.5 431.3 180.3 432L162.8 426.6L165.5 417.9L225.1 225.9L227.1 219.5zM200.9 365.7L275.7 365.7L238.3 245.1L200.9 365.7z"/></svg>