<svg xmlns="http://www.w3.org/2000/svg" viewBox="0 0 640 640"><!--! Font Awesome Pro 7.2.0 by @fontawesome - https://fontawesome.com License - https://fontawesome.com/license (Commercial License) Copyright 2026 Fonticons, Inc. --><path fill="currentColor" d="M112 112L112 528L528 528L528 112L112 112zM96 96L544 96L544 544L96 544L96 96zM224 208L224 358.9L306.9 289.8L313 284.7L323.2 297L317.1 302.1L271.1 340.4L319.1 436.4L322.7 443.6L308.4 450.8L304.8 443.6L258.5 351L224 379.8L224 448.1L208 448.1L208 208.1L224 208.1zM398.9 330.4C389.4 338.6 384 350.4 384 362.9L384 448L368 448L368 304L384 304L384 322.6C385.4 321.1 386.9 319.7 388.4 318.3C399.1 309.1 412.7 304 426.9 304L448 304L448 320L426.9 320C416.6 320 406.7 323.7 398.9 330.4z"/></svg>