<svg xmlns="http://www.w3.org/2000/svg" viewBox="0 0 640 640"><!--! Font Awesome Pro 7.2.0 by @fontawesome - https://fontawesome.com License - https://fontawesome.com/license (Commercial License) Copyright 2026 Fonticons, Inc. --><path fill="currentColor" d="M112 112L112 528L528 528L528 112L112 112zM96 96L544 96L544 544L96 544L96 96zM368 160L384 160L384 192L416 192L416 208L384 208L384 416L368 416L368 384C353.4 403.4 330.2 416 304 416C259.8 416 224 380.2 224 336C224 291.8 259.8 256 304 256C330.2 256 353.4 268.6 368 288L368 208L288 208L288 192L368 192L368 160zM304 272C268.7 272 240 300.7 240 336C240 371.3 268.7 400 304 400C339.3 400 368 371.3 368 336C368 300.7 339.3 272 304 272zM208 464L432 464L432 480L208 480L208 464z"/></svg>