<svg xmlns="http://www.w3.org/2000/svg" viewBox="0 0 640 640"><!--! Font Awesome Pro 7.2.0 by @fontawesome - https://fontawesome.com License - https://fontawesome.com/license (Commercial License) Copyright 2026 Fonticons, Inc. --><path fill="currentColor" d="M112 112L112 528L528 528L528 112L112 112zM96 96L544 96L544 544L96 544L96 96zM320 224C364.2 224 400 259.8 400 304L400 336C400 380.2 364.2 416 320 416C275.8 416 240 380.2 240 336L240 304C240 259.8 275.8 224 320 224zM256 304L256 336C256 371.3 284.7 400 320 400C355.3 400 384 371.3 384 336L384 304C384 268.7 355.3 240 320 240C284.7 240 256 268.7 256 304z"/></svg>