<svg xmlns="http://www.w3.org/2000/svg" viewBox="0 0 640 640"><!--! Font Awesome Pro 7.2.0 by @fontawesome - https://fontawesome.com License - https://fontawesome.com/license (Commercial License) Copyright 2026 Fonticons, Inc. --><path fill="currentColor" d="M112 112L112 528L528 528L528 112L112 112zM96 96L544 96L544 544L96 544L96 96zM232 192L416 192L416 208L338.7 208C355.6 221.1 366.8 241.2 367.9 264L416 264L416 280L367.1 280C361.3 316.3 329.9 344 292 344L246.4 344L380.4 433.3L387.1 437.7L378.2 451L371.5 446.6L227.5 350.6L223.9 348.2L223.9 327.9L291.9 327.9C320.9 327.9 345.1 307.3 350.7 279.9L223.9 279.9L223.9 263.9L351.8 263.9C349.7 232.6 323.7 207.9 291.9 207.9L223.9 207.9L223.9 191.9L231.9 191.9z"/></svg>