<svg xmlns="http://www.w3.org/2000/svg" viewBox="0 0 640 640"><!--! Font Awesome Pro 7.2.0 by @fontawesome - https://fontawesome.com License - https://fontawesome.com/license (Commercial License) Copyright 2026 Fonticons, Inc. --><path fill="currentColor" d="M112 112L112 528L528 528L528 112L112 112zM96 96L544 96L544 544L96 544L96 96zM232 320C232 368.6 271.4 408 320 408C341.4 408 361.1 400.3 376.3 387.6L339.8 351.1L334.1 345.4L345.4 334.1L351.1 339.8L387.6 376.3C400.3 361 408 341.4 408 320C408 271.4 368.6 232 320 232C271.4 232 232 271.4 232 320zM424 320C424 345.8 414.6 369.5 399 387.7C417 405.7 426.4 415.1 427.3 416L416 427.3C415.1 426.4 405.6 416.9 387.7 399C369.5 414.6 345.9 424 320 424C262.6 424 216 377.4 216 320C216 262.6 262.6 216 320 216C377.4 216 424 262.6 424 320z"/></svg>