<svg xmlns="http://www.w3.org/2000/svg" viewBox="0 0 640 640"><!--! Font Awesome Pro 7.2.0 by @fontawesome - https://fontawesome.com License - https://fontawesome.com/license (Commercial License) Copyright 2026 Fonticons, Inc. --><path fill="currentColor" d="M112 112L112 528L528 528L528 112L112 112zM96 96L544 96L544 544L96 544L96 96zM200 208L264 208C299.3 208 328 236.7 328 272C328 300.8 308.9 325.2 282.7 333.2L311.4 405L314.4 412.4L299.5 418.3L296.5 410.9L266.5 335.9C265.6 335.9 264.8 336 263.9 336L207.9 336L207.9 416L191.9 416L191.9 208L199.9 208zM264 320C290.5 320 312 298.5 312 272C312 245.5 290.5 224 264 224L208 224L208 320L264 320zM352 304L400 304C426.5 304 448 325.5 448 352C448 378.5 426.5 400 400 400L368 400L368 456L352 456L352 304zM368 384L400 384C417.7 384 432 369.7 432 352C432 334.3 417.7 320 400 320L368 320L368 384z"/></svg>