<svg xmlns="http://www.w3.org/2000/svg" viewBox="0 0 640 640"><!--! Font Awesome Pro 7.2.0 by @fontawesome - https://fontawesome.com License - https://fontawesome.com/license (Commercial License) Copyright 2026 Fonticons, Inc. --><path fill="currentColor" d="M528 112L528 528L112 528L112 112L528 112zM112 96L96 96L96 544L544 544L544 96L112 96zM256 216L256 232L464 232L464 216L256 216zM256 312L256 328L464 328L464 312L256 312zM256 408L256 424L464 424L464 408L256 408zM192 208C183.2 208 176 215.2 176 224C176 232.8 183.2 240 192 240C200.8 240 208 232.8 208 224C208 215.2 200.8 208 192 208zM208 320C208 311.2 200.8 304 192 304C183.2 304 176 311.2 176 320C176 328.8 183.2 336 192 336C200.8 336 208 328.8 208 320zM192 400C183.2 400 176 407.2 176 416C176 424.8 183.2 432 192 432C200.8 432 208 424.8 208 416C208 407.2 200.8 400 192 400z"/></svg>