<svg xmlns="http://www.w3.org/2000/svg" viewBox="0 0 640 640"><!--! Font Awesome Pro 7.2.0 by @fontawesome - https://fontawesome.com License - https://fontawesome.com/license (Commercial License) Copyright 2026 Fonticons, Inc. --><path fill="currentColor" d="M112 112L112 528L528 528L528 112L112 112zM96 96L544 96L544 544L96 544L96 96zM323.8 192L328.6 192C345.6 192 362.1 197.8 375.4 208.4L397.1 225.7L387.1 238.2L365.4 220.9C355 212.6 342 208 328.6 208L323.8 208C284.8 208 257.8 246.8 271.3 283.4L278.9 304L384.1 304L384.1 320L283.9 320C286.2 330.6 286.6 341.4 285.1 352L384 352L384 368L281.3 368C278.5 376.5 274.3 384.7 268.9 392.2L240.2 432L416 432L416 448L224 448L224 427.1L225.5 425L255.9 382.8C259.3 378.1 262 373.2 264.2 368L224 368L224 352L268.9 352C270.7 341.5 270.3 330.5 267.4 320L224 320L224 304L261.8 304L256.2 288.9C238.9 241.9 273.7 192 323.8 192z"/></svg>