<svg xmlns="http://www.w3.org/2000/svg" viewBox="0 0 640 640"><!--! Font Awesome Pro 7.2.0 by @fontawesome - https://fontawesome.com License - https://fontawesome.com/license (Commercial License) Copyright 2026 Fonticons, Inc. --><path fill="currentColor" d="M112 112L112 528L528 528L528 112L112 112zM96 96L544 96L544 544L96 544L96 96zM232 320C232 368.6 271.4 408 320 408C368.6 408 408 368.6 408 320C408 271.4 368.6 232 320 232C271.4 232 232 271.4 232 320zM320 424C262.6 424 216 377.4 216 320C216 262.6 262.6 216 320 216C377.4 216 424 262.6 424 320C424 377.4 377.4 424 320 424z"/></svg>