<svg xmlns="http://www.w3.org/2000/svg" viewBox="0 0 640 640"><!--! Font Awesome Pro 7.2.0 by @fontawesome - https://fontawesome.com License - https://fontawesome.com/license (Commercial License) Copyright 2026 Fonticons, Inc. --><path fill="currentColor" d="M528 112L528 528L112 528L112 112L528 112zM544 96L96 96L96 544L544 544L544 96zM263 265C274.2 276.2 283.2 285.2 290 292C289.9 292.1 267.5 314.5 223 359C220.2 361.8 214.5 367.5 206 376C221.8 391.8 227 397 247 417C249.8 419.8 255.5 425.5 264 434C274.5 423.5 290.3 407.7 336.7 361.3L348 349.9C390.7 392.6 410.3 412.2 416 417.9L416 224L222.1 224L263.1 265zM234.3 370.3L301.3 303.3L312.6 292C307.7 287.1 294.9 274.3 274.3 253.7L260.6 240L399.9 240L399.9 379.3C393 372.4 379.5 358.9 359.2 338.6L347.9 327.3L336.6 338.6L269.6 405.6L263.9 411.3C263.2 410.6 253.3 400.7 234.2 381.6L228.5 375.9L234.2 370.2z"/></svg>