<svg xmlns="http://www.w3.org/2000/svg" viewBox="0 0 640 640"><!--! Font Awesome Pro 7.2.0 by @fontawesome - https://fontawesome.com License - https://fontawesome.com/license (Commercial License) Copyright 2026 Fonticons, Inc. --><path fill="currentColor" d="M112 112L112 528L528 528L528 112L112 112zM96 96L544 96L544 544L96 544L96 96zM320 416L320 224C332.6 224 339.3 224 340.1 224L342.5 227.3L400 306.4L457.5 227.3L459.9 224C464.7 224 477.3 224 480 224L480 416L464 416L464 245.6L406.5 324.7L400 333.6L393.5 324.7L336 245.6L336 416L320 416zM168 224L228 224C261.1 224 288 250.9 288 284C288 314 266 338.9 237.2 343.3L271 404.1L274.9 411.1L260.9 418.9L257 411.9L219.3 344L176 344L176 416L160 416L160 224L168 224zM228 328C252.3 328 272 308.3 272 284C272 259.7 252.3 240 228 240L176 240L176 328L228 328z"/></svg>