<svg xmlns="http://www.w3.org/2000/svg" viewBox="0 0 640 640"><!--! Font Awesome Pro 7.2.0 by @fontawesome - https://fontawesome.com License - https://fontawesome.com/license (Commercial License) Copyright 2026 Fonticons, Inc. --><path fill="currentColor" d="M320 288L192 288L192 64L256 64L256 224L337.1 224C359.2 185.7 400.6 160 448 160C518.7 160 576 217.3 576 288L576 368C576 482.9 482.9 576 368 576C336 576 310.5 570.2 289.1 560.8C267.9 551.5 252.2 539.1 239.5 528.6C213.7 507.1 202.5 496 176 496L128 496L128 576L64 576L64 416L256 416C291.3 416 320 387.3 320 352L320 288zM208 272L336 272L336 320L403.8 320L467.8 400L557.3 400C559 389.6 560 378.9 560 368L560 288C560 226.1 509.9 176 448 176C406.6 176 370.4 198.5 351 232L346.4 240L240 240L240 80L208 80L208 272zM336 336L336 352C336 396.2 300.2 432 256 432L80 432L80 560L112 560L112 480L176 480C190.8 480 202.4 483 213.6 489C226.9 496.2 238.1 506.6 249.7 516.3C262 526.6 276.4 537.7 295.5 546.1C314.7 554.6 337.9 560 368 560C457.5 560 532.6 498.8 554 416L460.2 416L396.2 336L336 336z"/></svg>