<svg xmlns="http://www.w3.org/2000/svg" viewBox="0 0 640 640"><!--! Font Awesome Pro 7.2.0 by @fontawesome - https://fontawesome.com License - https://fontawesome.com/license (Commercial License) Copyright 2026 Fonticons, Inc. --><path fill="currentColor" d="M408.3 60.7C409.1 61.5 418.8 71.2 437.4 89.8C462.5 114.9 469.3 151.4 457.7 182.6C488.9 171 525.4 177.8 550.5 202.9C569.1 221.5 578.8 231.2 579.6 232C578.8 232.8 569.1 242.5 550.5 261.1C527.4 284.2 494.5 291.8 465 283.8L474.7 293.5C499.7 318.5 512.2 351.3 512.2 384C512.2 480 416.2 576 240.2 576L64.2 576L64.2 560L64.2 400C64.2 224 160.4 128 256.4 128C289.1 128.1 321.7 140.6 346.7 165.5L356.4 175.2C348.4 145.7 355.9 112.9 379.1 89.7L402.5 66.3L408.2 60.6zM426.1 101.1L408.3 83.3L390.5 101.1C362.4 129.2 362.4 174.8 390.5 202.9L408.3 220.7L426.1 202.9C454.2 174.8 454.2 129.2 426.1 101.1zM437.4 249.8C465.5 277.9 511.1 277.9 539.2 249.8L557 232L539.2 214.2C511.1 186.1 465.5 186.1 437.4 214.2L419.6 232L437.4 249.8zM256.5 144C172.8 144 80.3 229 80.3 400L80.3 560L240.3 560C411.3 560 496.3 467.7 496.3 384C496.3 355.3 485.4 326.7 463.5 304.8L335.5 176.8C313.7 155 285.1 144.1 256.5 144zM251.6 208L213.9 245.7L208.2 251.4L196.9 240.1L202.6 234.4L234.6 202.4L240.3 196.7L251.6 208zM315.6 272L309.9 277.7L277.9 309.7L272.2 315.4L260.9 304.1L266.6 298.4L298.6 266.4L304.3 260.7L315.6 272zM219.6 304L213.9 309.7L181.9 341.7L176.2 347.4L164.9 336.1L170.6 330.4L202.6 298.4L208.3 292.7L219.6 304zM379.6 336L341.9 373.7L336.2 379.4L324.9 368.1L330.6 362.4L362.6 330.4L368.3 324.7L379.6 336zM283.6 368L277.9 373.7L245.9 405.7L240.2 411.4L228.9 400.1L234.6 394.4L266.6 362.4L272.3 356.7L283.6 368zM187.6 400L181.9 405.7L149.9 437.7L144.2 443.4L132.9 432.1L138.6 426.4L170.6 394.4L176.3 388.7L187.6 400zM443.6 400L405.9 437.7L400.2 443.4L388.9 432.1L394.6 426.4L426.6 394.4L432.3 388.7L443.6 400zM347.6 432L309.9 469.7L304.2 475.4L292.9 464.1L298.6 458.4L330.6 426.4L336.3 420.7L347.6 432zM251.6 464L245.9 469.7L213.9 501.7L208.2 507.4L196.9 496.1L202.6 490.4L234.6 458.4L240.3 452.7L251.6 464z"/></svg>