<svg xmlns="http://www.w3.org/2000/svg" viewBox="0 0 640 640"><!--! Font Awesome Pro 7.2.0 by @fontawesome - https://fontawesome.com License - https://fontawesome.com/license (Commercial License) Copyright 2026 Fonticons, Inc. --><path fill="currentColor" d="M64.1 160L374.4 470.3L346.4 498.3L340.7 504L346.4 509.7L378.4 541.7L382.3 545.6L387.3 543.4L454.3 513.6L511.2 570.5L516.9 576.2L576.2 516.9L570.5 511.2L513.6 454.3L543.4 387.3L545.6 382.3L541.7 378.4L509.7 346.4L504 340.7L498.3 346.4L470.3 374.4C384.9 289 403 307.1 331.3 235.4L320.2 224.1L160.1 64L64.1 64L64.1 160zM80.1 153.4L80.1 80L153.5 80L459.1 385.7L385.8 459L80.1 153.4zM526.6 385.8L496.8 452.8L494.6 457.8L498.5 461.7L553.6 516.8L516.9 553.5L461.8 498.4L457.9 494.5L452.9 496.7L385.9 526.5L363.4 504L504.1 363.3L526.6 385.8zM576.2 160L576.2 64L480.2 64L354.1 190.1L365.4 201.4L486.8 80L560.2 80L560.2 153.4L438.8 274.8L450.1 286.1L576.2 160zM224.2 320.1L169.9 374.4L141.9 346.4L136.2 340.7L130.5 346.4L98.5 378.4L94.6 382.3L96.8 387.3L126.6 454.3L69.7 511.2L64 516.9L69.7 522.6L117.7 570.6L123.4 576.3L129.1 570.6L186 513.7L253 543.5L258 545.7L261.9 541.8L293.9 509.8L299.6 504.1L293.9 498.4L265.9 470.4L320.2 416.1L308.9 404.8L254.6 459.1L181.2 385.7L235.5 331.4L224.2 320.1zM113.8 385.8L136.3 363.3L277 504L254.5 526.5L187.5 496.7L182.5 494.5L178.6 498.4L123.5 553.5L86.8 516.8L141.9 461.7L145.8 457.8L143.6 452.8L113.8 385.8z"/></svg>