<svg xmlns="http://www.w3.org/2000/svg" viewBox="0 0 640 640"><!--! Font Awesome Pro 7.2.0 by @fontawesome - https://fontawesome.com License - https://fontawesome.com/license (Commercial License) Copyright 2026 Fonticons, Inc. --><path fill="currentColor" d="M80 112L496 112L496 212.6C501.2 211.1 506.5 209.9 512 209.1L512 96L64 96L64 544L368 544L368 256L436.1 256C440.1 250.2 444.7 244.9 449.6 240L80 240L80 112zM80 256L208 256L208 528L80 528L80 256zM224 528L224 256L352 256L352 528L224 528zM528 272C554.5 272 576 293.5 576 320L576 336L592 336L592 320C592 284.7 563.3 256 528 256C492.7 256 464 284.7 464 320L464 384L416 384L416 576L640 576L640 384L480 384L480 320C480 293.5 501.5 272 528 272zM432 400L624 400L624 560L432 560L432 400z"/></svg>