<svg xmlns="http://www.w3.org/2000/svg" viewBox="0 0 640 640"><!--! Font Awesome Pro 7.2.0 by @fontawesome - https://fontawesome.com License - https://fontawesome.com/license (Commercial License) Copyright 2026 Fonticons, Inc. --><path fill="currentColor" d="M53.7 42.4L107.3 96L544.1 96L544.1 532.6L603.6 592.1L592.3 603.4L586.6 597.7L42.4 53.7L36.7 48L48 36.7L53.7 42.4zM112 191.2L112 368L288.8 368L304.8 384L112 384L112 528L448.8 528L464.8 544L96 544L96 175.2L112 191.2zM528 516.6L528 384L395.3 384L528 516.6zM379.3 368L528 368L528 240L251.3 240L379.4 368zM235.3 224L528 224L528 112L123.2 112L235.2 224z"/></svg>