<svg xmlns="http://www.w3.org/2000/svg" viewBox="0 0 640 640"><!--! Font Awesome Pro 7.2.0 by @fontawesome - https://fontawesome.com License - https://fontawesome.com/license (Commercial License) Copyright 2026 Fonticons, Inc. --><path fill="currentColor" d="M366.8 146.1L478.8 340.1L583.1 279.9L471.1 85.9L366.8 146.1zM597 271.8L605 285.7L591.1 293.7L486.8 353.9L472.9 361.9C467.6 352.8 462.2 343.3 456.4 333.4L415 355.8C415.6 359.8 415.9 363.9 415.9 368C415.9 393.3 404.2 415.8 385.9 430.4L449.5 576L432 576L372.2 439.3C361.3 444.9 348.9 448 335.8 448C322.7 448 310.3 444.8 299.4 439.3L239.8 576L222.4 576L286 430.4C284.8 429.4 283.6 428.4 282.5 427.4L154.2 496.8L137.9 468.6C105.1 487.5 86.5 498.3 82 500.9C81 499.1 67 474.9 40.1 428.3L32 414.5C36.5 411.9 55.2 401.1 87.9 382.2L68.7 348.9L358.9 164.5C355.2 158.2 350.6 150.1 344.9 140.3L358.8 132.3L463.1 72.1L477 64.1L485 78L597 272zM95.9 396L53.9 420.3L87.8 479L129.8 454.7L95.9 396zM366.9 178.3L90.2 354.1L160.2 475.3L271.4 415.2C261.7 402 256 385.6 256 368C256 323.8 291.8 288 336 288C370.3 288 399.5 309.5 410.9 339.8L448.4 319.5L366.9 178.3zM336 432C371.3 432 400 403.3 400 368C400 332.7 371.3 304 336 304C300.7 304 272 332.7 272 368C272 403.3 300.7 432 336 432z"/></svg>