<svg xmlns="http://www.w3.org/2000/svg" viewBox="0 0 640 640"><!--! Font Awesome Pro 7.2.0 by @fontawesome - https://fontawesome.com License - https://fontawesome.com/license (Commercial License) Copyright 2026 Fonticons, Inc. --><path fill="currentColor" d="M581.8 44.3C573.7 46.3 565.9 49.2 558.6 52.9C521.8 71.4 496.5 109.5 496.5 153.5C496.5 215.6 546.9 266 609 266C619.4 266 629.5 264.6 639.1 261.9C633.8 269 627.9 275.5 621.6 281.4C596.1 304.8 562.7 318.5 528.3 319.8C528.3 314.4 528 309.1 527.3 303.8C551.8 302.9 575.8 295 596 281.3C531.2 274.7 480.6 220 480.6 153.5C480.6 110.1 502.1 71.8 535 48.5C531.2 48.2 527.4 48 523.6 48C473.5 48 430.1 76.8 409.1 118.7C404.7 115.7 400.1 112.9 395.4 110.4C419.3 63.9 467.7 32 523.6 32C535.2 32 546.4 33.4 557.2 35.9C565.8 37.9 574.1 40.8 582 44.3zM228.9 500.5L208.3 571L336.4 448L245.5 448C247.1 442.7 255.9 412.4 272 357L143.9 480L234.8 480L228.8 500.5zM104.3 496L121 480L281.2 326.2L304.3 304C300.8 316.1 289.9 353.5 271.6 416L266.9 432L376.2 432L359.5 448L199.3 601.8L176.2 624C179.7 611.9 190.6 574.5 208.9 512L213.6 496L104.3 496zM208.3 128C164.1 128 128.3 163.8 128.3 208L128.3 223.6L121 224.3C80.2 228 48.3 262.2 48.3 304L48.3 384L151.7 384L135 400L32.3 400L32.3 304C32.3 256.4 66.9 217 112.3 209.3C112.3 156.5 155 112 208.3 112C243.2 112 273.7 130.6 290.5 158.4C303.5 149.3 319.3 144 336.3 144C380.5 144 416.3 179.8 416.3 224L416.3 241.6C452.8 249 480.3 281.3 480.3 320L480.3 352L480.4 352L480.4 400L384.4 400L384.4 384L464.4 384L464.4 352L464.3 352L464.3 320C464.3 287.1 439.4 259.9 407.4 256.4L400.3 255.6L400.3 224C400.3 188.7 371.6 160 336.3 160C319.8 160 304.7 166.2 293.4 176.5L285.4 183.7L280.8 173.9C268 146.7 240.4 127.9 208.4 127.9z"/></svg>