<svg xmlns="http://www.w3.org/2000/svg" viewBox="0 0 640 640"><!--! Font Awesome Pro 7.2.0 by @fontawesome - https://fontawesome.com License - https://fontawesome.com/license (Commercial License) Copyright 2026 Fonticons, Inc. --><path fill="currentColor" d="M96 96L96 208L208 208L208 96L96 96zM80 80L224 80L224 224L160 224L160 320L480 320L480 224L416 224L416 80L560 80L560 224L496 224L496 320L608 320L608 336L328 336L328 416L392 416L392 560L248 560L248 416L312 416L312 336L32 336L32 320L144 320L144 224L80 224L80 80zM328 432L264 432L264 544L376 544L376 432L328 432zM544 96L432 96L432 208L544 208L544 96z"/></svg>