<svg xmlns="http://www.w3.org/2000/svg" viewBox="0 0 640 640"><!--! Font Awesome Pro 7.2.0 by @fontawesome - https://fontawesome.com License - https://fontawesome.com/license (Commercial License) Copyright 2026 Fonticons, Inc. --><path fill="currentColor" d="M320 80C452.5 80 560 187.5 560 320C560 452.5 452.5 560 320 560C187.5 560 80 452.5 80 320C80 187.5 187.5 80 320 80zM320 576C461.4 576 576 461.4 576 320C576 178.6 461.4 64 320 64C178.6 64 64 178.6 64 320C64 461.4 178.6 576 320 576zM232 220.7L220.7 232L226.4 237.7L308.7 320L226.4 402.3L220.7 408L232 419.3L237.7 413.6L320 331.3L402.3 413.6L408 419.3L419.3 408L413.6 402.3L331.3 320L413.6 237.7L419.3 232L408 220.7L402.3 226.4L320 308.7L237.7 226.4L232 220.7z"/></svg>