<svg xmlns="http://www.w3.org/2000/svg" viewBox="0 0 640 640"><!--! Font Awesome Pro 7.2.0 by @fontawesome - https://fontawesome.com License - https://fontawesome.com/license (Commercial License) Copyright 2026 Fonticons, Inc. --><path fill="currentColor" d="M248.1 64L392.1 64L392.1 80L328.1 80L328.1 160L546.7 160L543.8 170.2L482.7 384L512.1 384L512.1 400L480.1 400L480.1 576L464.1 576L464.1 400L176.1 400L176.1 576L160.1 576L160.1 400L128.1 400L128.1 384L157.5 384L96.4 170.2L93.5 160L312.1 160L312.1 80L248.1 80L248.1 64zM240.1 176L114.7 176L174.1 384L240.1 384L240.1 176zM256.1 384L384.1 384L384.1 176L256.1 176L256.1 384zM400.1 384L466.1 384L525.5 176L400.1 176L400.1 384z"/></svg>