<svg xmlns="http://www.w3.org/2000/svg" viewBox="0 0 640 640"><!--! Font Awesome Pro 7.2.0 by @fontawesome - https://fontawesome.com License - https://fontawesome.com/license (Commercial License) Copyright 2026 Fonticons, Inc. --><path fill="currentColor" d="M176 48L176 592L464 592L464 48L176 48zM160 32L480 32L480 608L160 608L160 32zM280 464C280 486.1 297.9 504 320 504C342.1 504 360 486.1 360 464C360 441.9 342.1 424 320 424C297.9 424 280 441.9 280 464zM264 464C264 433.1 289.1 408 320 408C350.9 408 376 433.1 376 464C376 494.9 350.9 520 320 520C289.1 520 264 494.9 264 464zM320 280C297.9 280 280 297.9 280 320C280 342.1 297.9 360 320 360C342.1 360 360 342.1 360 320C360 297.9 342.1 280 320 280zM320 376C289.1 376 264 350.9 264 320C264 289.1 289.1 264 320 264C350.9 264 376 289.1 376 320C376 350.9 350.9 376 320 376zM280 176C280 198.1 297.9 216 320 216C342.1 216 360 198.1 360 176C360 153.9 342.1 136 320 136C297.9 136 280 153.9 280 176zM376 176C376 206.9 350.9 232 320 232C289.1 232 264 206.9 264 176C264 145.1 289.1 120 320 120C350.9 120 376 145.1 376 176z"/></svg>