<svg xmlns="http://www.w3.org/2000/svg" viewBox="0 0 640 640"><!--! Font Awesome Pro 7.2.0 by @fontawesome - https://fontawesome.com License - https://fontawesome.com/license (Commercial License) Copyright 2026 Fonticons, Inc. --><path fill="currentColor" d="M568 72L568 64L552 64L552 104L512 104L512 120L552 120L552 160L568 160L568 120L608 120L608 104L568 104L568 72zM88 200L88 192L72 192L72 232L32 232L32 248L72 248L72 288L88 288L88 248L128 248L128 232L88 232L88 200zM280 64L280 80L360 80L360 64L280 64zM256 192L256 208L384 208L384 192L256 192zM152 320L152 336L488 336L488 320L152 320zM224 448L224 464L416 464L416 448L224 448zM160 592L160 608L480 608L480 592L160 592z"/></svg>