<svg xmlns="http://www.w3.org/2000/svg" viewBox="0 0 640 640"><!--! Font Awesome Pro 7.2.0 by @fontawesome - https://fontawesome.com License - https://fontawesome.com/license (Commercial License) Copyright 2026 Fonticons, Inc. --><path fill="currentColor" d="M210.6 48L365.4 48L367.4 53L397.4 128L512 128L512 144L64 144L64 128L178.6 128L210.6 48zM354.6 64L221.4 64L195.8 128L380.2 128L354.6 64zM120 576L91.6 192L107.6 192L134.9 560L297.7 560C300.9 565.5 304.3 570.9 308 576L120 576zM464 272L462.5 272L468.4 192L484.4 192L478.4 272.5C473.6 272.1 468.8 272 463.9 272zM464 592C534.7 592 592 534.7 592 464C592 393.3 534.7 336 464 336C393.3 336 336 393.3 336 464C336 534.7 393.3 592 464 592zM464 320C543.5 320 608 384.5 608 464C608 543.5 543.5 608 464 608C384.5 608 320 543.5 320 464C320 384.5 384.5 320 464 320zM472 384L472 456L528 456L528 472L456 472L456 384L472 384z"/></svg>