<svg xmlns="http://www.w3.org/2000/svg" viewBox="0 0 640 640"><!--! Font Awesome Pro 7.2.0 by @fontawesome - https://fontawesome.com License - https://fontawesome.com/license (Commercial License) Copyright 2026 Fonticons, Inc. --><path fill="currentColor" d="M242.6 48L397.4 48L399.4 53L429.4 128L544 128L544 144L96 144L96 128L210.6 128L242.6 48zM386.6 64L253.4 64L227.8 128L412.2 128L386.6 64zM152 576L123.6 192L139.6 192L166.9 560L473.2 560L500.5 192L516.5 192L488.1 576L152.1 576zM307.3 256L301.6 261.7L235.3 328L344 328C383.8 328 416 360.2 416 400L416 448L400 448L400 400C400 369.1 374.9 344 344 344L235.3 344L301.6 410.3L307.3 416L296 427.3L290.3 421.6L210.3 341.6L204.6 335.9L210.3 330.2L290.3 250.2L296 244.5L307.3 255.8z"/></svg>