<svg xmlns="http://www.w3.org/2000/svg" viewBox="0 0 640 640"><!--! Font Awesome Pro 7.2.0 by @fontawesome - https://fontawesome.com License - https://fontawesome.com/license (Commercial License) Copyright 2026 Fonticons, Inc. --><path fill="currentColor" d="M152 48L146.6 48L114.6 128L32 128L32 144L448 144L448 128L365.4 128L335.4 53L333.4 48L152 48zM348.2 128L131.8 128L157.4 64L322.6 64L348.2 128zM59.6 192L88 576L392 576L420.4 192L404.4 192L377.1 560L102.8 560L75.5 192L59.5 192zM640 192L480 192L480 208L640 208L640 192zM608 320L480 320L480 336L608 336L608 320zM480 448L480 464L544 464L544 448L480 448z"/></svg>