<svg xmlns="http://www.w3.org/2000/svg" viewBox="0 0 640 640"><!--! Font Awesome Pro 7.2.0 by @fontawesome - https://fontawesome.com License - https://fontawesome.com/license (Commercial License) Copyright 2026 Fonticons, Inc. --><path fill="currentColor" d="M53.7 42.4L48 36.7L36.7 48L42.4 53.7L586.6 597.7L592.3 603.4L603.6 592.1L597.9 586.4L512.1 500.6L512.1 192L496.1 192L496.1 484.6L432.1 420.6L432.1 256L416.1 256L416.1 404.7L328.1 316.7L328.1 256L312.1 256L312.1 300.7L155.4 144L544.1 144L544.1 128L429.5 128L399.5 53L397.5 48L242.7 48L210.7 128L139.4 128L53.8 42.4zM328 407.2L312 391.2L312 480L328 480L328 407.2zM224 303.2L208 287.2L208 480L224 480L224 303.2zM144 560L144 223.2L128 207.2L128 576L496.8 576L480.8 560L144 560zM412.2 128L227.8 128L253.4 64L386.6 64L412.2 128z"/></svg>