<svg xmlns="http://www.w3.org/2000/svg" viewBox="0 0 640 640"><!--! Font Awesome Pro 7.2.0 by @fontawesome - https://fontawesome.com License - https://fontawesome.com/license (Commercial License) Copyright 2026 Fonticons, Inc. --><path fill="currentColor" d="M326.2 66.6L502.2 258.6L514.5 272L425.8 272L539.1 402.7L550.5 416L449.6 416L574.4 562.8L585.6 576L55 576L66.2 562.8L191 416L90.1 416L101.5 402.7L214.7 272L126 272L138.3 258.6L314.3 66.6L320.2 60.2L326.1 66.6zM162.5 256L249.8 256L238.3 269.2L125.1 400L225.6 400L214.4 413.2L89.6 560L551 560L426.2 413.2L415 400L515.5 400L402.2 269.2L390.8 256L478.1 256L320.3 83.8L162.5 256z"/></svg>