<svg xmlns="http://www.w3.org/2000/svg" viewBox="0 0 640 640"><!--! Font Awesome Pro 7.2.0 by @fontawesome - https://fontawesome.com License - https://fontawesome.com/license (Commercial License) Copyright 2026 Fonticons, Inc. --><path fill="currentColor" d="M287.4 68.4L287.4 184L576 184L576 200L287.4 200L287.4 315.6L276.3 309.2L84.3 198.4L73.2 192L84.3 185.6L276.3 74.8L287.4 68.4zM102.8 192L272.6 290L272.6 94L102.8 192zM352 416L352 272L576 272L576 576L64 576L64 416L352 416zM368 416L560 416L560 288L368 288L368 416zM360 432L304 432L304 560L560 560L560 432L360 432zM80 432L80 560L288 560L288 432L80 432z"/></svg>