<svg xmlns="http://www.w3.org/2000/svg" viewBox="0 0 640 640"><!--! Font Awesome Pro 7.2.0 by @fontawesome - https://fontawesome.com License - https://fontawesome.com/license (Commercial License) Copyright 2026 Fonticons, Inc. --><path fill="currentColor" d="M8 64L0 64L0 352L384 352L384 64L8 64zM16 336L16 80L368 80L368 336L16 336zM104 128L88 128L88 288L104 288L104 128zM200 128L184 128L184 288L200 288L200 128zM296 128L280 128L280 288L296 288L296 128zM472 192L464 192L464 409.6C435.5 424.2 416 453.8 416 488C416 490.7 416.1 493.4 416.4 496L335.7 496C335.9 493.4 336.1 490.7 336.1 488C336.1 439.4 296.7 400 248.1 400C212.6 400 182 421 168.1 451.3C154.2 421 123.6 400 88.1 400C39.5 400 .1 439.4 .1 488C.1 536.6 39.5 576 88.1 576C123.6 576 154.2 555 168.1 524.7C182 555 212.6 576 248.1 576C288.4 576 322.3 548.9 332.8 512L419.4 512C429.8 548.9 463.8 576 504.1 576C544.4 576 578.3 548.9 588.8 512L640.1 512L640.1 268.7L637.8 266.4L565.8 194.4L563.5 192.1L472.2 192.1zM591.6 496C591.8 493.4 592 490.7 592 488C592 439.4 552.6 400 504 400C495.7 400 487.6 401.2 480 403.3L480 336L624 336L624 496L591.6 496zM480 320L480 208L556.7 208L624 275.3L624 320L480 320zM16 488C16 448.2 48.2 416 88 416C127.8 416 160 448.2 160 488C160 527.8 127.8 560 88 560C48.2 560 16 527.8 16 488zM248 416C287.8 416 320 448.2 320 488C320 527.8 287.8 560 248 560C208.2 560 176 527.8 176 488C176 448.2 208.2 416 248 416zM432 488C432 448.2 464.2 416 504 416C543.8 416 576 448.2 576 488C576 527.8 543.8 560 504 560C464.2 560 432 527.8 432 488z"/></svg>