<svg xmlns="http://www.w3.org/2000/svg" viewBox="0 0 640 640"><!--! Font Awesome Pro 7.2.0 by @fontawesome - https://fontawesome.com License - https://fontawesome.com/license (Commercial License) Copyright 2026 Fonticons, Inc. --><path fill="currentColor" d="M360.3 96L352.3 96L352.3 466L38 560.3L30.3 562.6L34.9 577.9L42.6 575.6L361.5 479.9L432.7 479.9C432.5 482.5 432.3 485.2 432.3 487.9C432.3 536.5 471.7 575.9 520.3 575.9C568.9 575.9 608.3 536.5 608.3 487.9C608.3 439.3 568.9 399.9 520.3 399.9C480 399.9 446.1 427 435.6 463.9L368.3 463.9L368.3 111.9L608.3 111.9L608.3 95.9L360.3 95.9zM448.3 488C448.3 448.2 480.5 416 520.3 416C560.1 416 592.3 448.2 592.3 488C592.3 527.8 560.1 560 520.3 560C480.5 560 448.3 527.8 448.3 488zM43 242.8L226.6 186.7L282.7 370.3L99.1 426.4L43 242.8zM23 232.2L27.7 247.5L83.8 431.1L88.5 446.4L103.8 441.7L287.4 385.6L302.7 380.9L298 365.6L241.9 182L237.2 166.7L221.9 171.4L38.3 227.5L23 232.2z"/></svg>