<svg xmlns="http://www.w3.org/2000/svg" viewBox="0 0 640 640"><!--! Font Awesome Pro 7.2.0 by @fontawesome - https://fontawesome.com License - https://fontawesome.com/license (Commercial License) Copyright 2026 Fonticons, Inc. --><path fill="currentColor" d="M48 112L48 528L592 528L592 112L48 112zM32 96L608 96L608 544L32 544L32 96zM112 320C112 399.5 176.5 464 256 464C335.5 464 400 399.5 400 320C400 240.5 335.5 176 256 176C176.5 176 112 240.5 112 320zM256 480C167.6 480 96 408.4 96 320C96 231.6 167.6 160 256 160C344.4 160 416 231.6 416 320C416 408.4 344.4 480 256 480zM256 336C264.8 336 272 328.8 272 320C272 311.2 264.8 304 256 304C247.2 304 240 311.2 240 320C240 328.8 247.2 336 256 336zM256 288C273.7 288 288 302.3 288 320C288 337.7 273.7 352 256 352C238.3 352 224 337.7 224 320C224 302.3 238.3 288 256 288zM512 184L512 362.2L510.9 364.1L454.9 460.1L450.9 467L437.1 458.9L441.1 452L496 357.9L496 176.1L512 176.1L512 184.1z"/></svg>