<svg xmlns="http://www.w3.org/2000/svg" viewBox="0 0 640 640"><!--! Font Awesome Pro 7.2.0 by @fontawesome - https://fontawesome.com License - https://fontawesome.com/license (Commercial License) Copyright 2026 Fonticons, Inc. --><path fill="currentColor" d="M64 48L64 224L240 224L158.5 142.5C252.7 56.7 398.7 59.3 489.7 150.3C583.4 244 583.4 396 489.7 489.7C396 583.4 244 583.4 150.3 489.7C127.7 467.1 110.6 441.2 98.9 413.6L84.2 419.8C96.7 449.4 114.9 477 139 501C239 601 401 601 501 501C601 401 601 239 501 139C403.7 41.7 247.6 39.1 147.2 131.2L64 48zM80 86.6L201.4 208L80 208L80 86.6z"/></svg>