<svg xmlns="http://www.w3.org/2000/svg" viewBox="0 0 640 640"><!--! Font Awesome Pro 7.2.0 by @fontawesome - https://fontawesome.com License - https://fontawesome.com/license (Commercial License) Copyright 2026 Fonticons, Inc. --><path fill="currentColor" d="M224 64L224 72C224 94.1 241.9 112 264 112L416 112L416 128L328 128L328 224.2C421.5 228.4 496 305.5 496 400C496 497.2 417.2 576 320 576C222.8 576 144 497.2 144 400C144 305.5 218.5 228.4 312 224.2L312 128L264 128C233.1 128 208 102.9 208 72L208 64L224 64zM312 240.2C227.4 244.4 160 314.3 160 400C160 488.4 231.6 560 320 560C408.4 560 480 488.4 480 400C480 314.3 412.6 244.4 328 240.2L328 416L312 416L312 240.2z"/></svg>