<svg xmlns="http://www.w3.org/2000/svg" viewBox="0 0 640 640"><!--! Font Awesome Pro 7.2.0 by @fontawesome - https://fontawesome.com License - https://fontawesome.com/license (Commercial License) Copyright 2026 Fonticons, Inc. --><path fill="currentColor" d="M288 32L280 32L280 46.4C231.3 62.4 195.5 106.8 192.2 160L176 160L176 176L192 176L192 208C192 278.7 249.3 336 320 336C390.7 336 448 278.7 448 208L448 176L464 176L464 160L447.8 160C444.5 106.8 408.7 62.4 360 46.4L360 32L288 32zM432 192L432 208C432 269.9 381.9 320 320 320C258.1 320 208 269.9 208 208L208 176L432 176L432 192zM208.3 160C211.4 115.7 240.3 78.6 280 63.4L280 112L296 112L296 48L344 48L344 112L360 112L360 63.4C399.7 78.6 428.6 115.8 431.7 160L208.3 160zM112.9 576L171.6 400L468.5 400L527.2 576L544.1 576L480.1 384L160.1 384L96.1 576L113 576z"/></svg>