<svg xmlns="http://www.w3.org/2000/svg" viewBox="0 0 640 640"><!--! Font Awesome Pro 7.2.0 by @fontawesome - https://fontawesome.com License - https://fontawesome.com/license (Commercial License) Copyright 2026 Fonticons, Inc. --><path fill="currentColor" d="M328 64L328 128L480 128L480 248L528 248L528 264L480 264L480 384L160 384L160 264L112 264L112 248L160 248L160 128L312 128L312 64L328 64zM176 144L176 368L464 368L464 144L176 144zM104 416L544 416L544 576L528 576L528 432L112 432L112 576L96 576L96 416L104 416zM292 240C292 224.5 279.5 212 264 212C248.5 212 236 224.5 236 240C236 255.5 248.5 268 264 268C279.5 268 292 255.5 292 240zM220 240C220 215.7 239.7 196 264 196C288.3 196 308 215.7 308 240C308 264.3 288.3 284 264 284C239.7 284 220 264.3 220 240zM376 268C391.5 268 404 255.5 404 240C404 224.5 391.5 212 376 212C360.5 212 348 224.5 348 240C348 255.5 360.5 268 376 268zM376 196C400.3 196 420 215.7 420 240C420 264.3 400.3 284 376 284C351.7 284 332 264.3 332 240C332 215.7 351.7 196 376 196zM232 512L232 576L216 576L216 504L232 504L232 512zM328 512L328 576L312 576L312 504L328 504L328 512zM424 512L424 576L408 576L408 504L424 504L424 512z"/></svg>