<svg xmlns="http://www.w3.org/2000/svg" viewBox="0 0 640 640"><!--! Font Awesome Pro 7.2.0 by @fontawesome - https://fontawesome.com License - https://fontawesome.com/license (Commercial License) Copyright 2026 Fonticons, Inc. --><path fill="currentColor" d="M432 208C432 269.9 381.9 320 320 320C258.1 320 208 269.9 208 208L208 192C208 186.6 208.4 181.2 209.1 176L274.9 176L277.1 174.1L320 138.4L362.9 174.1L365.1 176L430.9 176C431.6 181.2 432 186.6 432 192L432 208zM320 80C370.7 80 413.6 113.7 427.4 160L370.9 160L325.1 121.9L320 117.6L314.9 121.9L269.1 160L212.6 160C226.4 113.7 269.3 80 320 80zM198.4 152C194.3 164.6 192 178 192 192L192 208C192 222 194.2 235.4 198.4 248L160 248L160 152L198.4 152zM204.9 136L144 136L144 264L204.9 264C225.7 306.6 269.4 336 320 336C370.6 336 414.4 306.6 435.1 264L496 264L496 136L435.1 136C414.4 93.4 370.6 64 320 64C269.4 64 225.6 93.4 204.9 136zM480 248L441.6 248C445.7 235.4 448 222 448 208L448 192C448 178 445.8 164.6 441.6 152L480 152L480 248zM171.5 400L468.4 400L527.1 576L544 576L480 384L160 384L96 576L112.9 576L171.6 400z"/></svg>