<svg xmlns="http://www.w3.org/2000/svg" viewBox="0 0 640 640"><!--! Font Awesome Pro 7.2.0 by @fontawesome - https://fontawesome.com License - https://fontawesome.com/license (Commercial License) Copyright 2026 Fonticons, Inc. --><path fill="currentColor" d="M384.3 160L416.3 160L512.3 256L512.3 576L128.3 576L128.3 160L192.3 160L192.3 64L384.3 64L384.3 160zM144.3 560L496.3 560L496.3 262.6L409.7 176L144.3 176L144.3 560zM435.6 296L400.3 331.3L400.3 436.7L435.6 472L424.3 483.3L389 448L251.6 448L216.3 483.3L205 472L240.3 436.7L240.3 331.3L205 296L216.3 284.7L251.6 320L389 320L424.3 284.7L435.6 296zM256.3 432L384.3 432L384.3 336L256.3 336L256.3 432zM539.6 208L528.3 219.3L453 144L464.3 132.7L539.6 208zM208.3 160L368.3 160L368.3 80L208.3 80L208.3 160z"/></svg>