<svg xmlns="http://www.w3.org/2000/svg" viewBox="0 0 640 640"><!--! Font Awesome Pro 7.2.0 by @fontawesome - https://fontawesome.com License - https://fontawesome.com/license (Commercial License) Copyright 2026 Fonticons, Inc. --><path fill="currentColor" d="M328 64L328 160L472 160L472 96L488 96L488 160L511.9 160L512 160L559.9 160L559.9 96L575.9 96L575.9 176L514.7 176L327.9 323.9L327.9 576L311.9 576L311.9 323.9L125.1 176L63.9 176L63.9 96L79.9 96L79.9 160L127.8 160L127.9 160L151.8 160L151.8 96L167.8 96L167.8 160L311.8 160L311.8 64L327.8 64zM312 176L151 176L312 303.5L312 176zM328 303.5L489 176L328 176L328 303.5z"/></svg>