<svg xmlns="http://www.w3.org/2000/svg" viewBox="0 0 640 640"><!--! Font Awesome Pro 7.2.0 by @fontawesome - https://fontawesome.com License - https://fontawesome.com/license (Commercial License) Copyright 2026 Fonticons, Inc. --><path fill="currentColor" d="M208 40L208 32L192 32L192 128L128 128L128 354.1L129.1 355.9L160 410.1L160 576L480 576L480 410.1L510.9 355.9L512 354.1L512 128L208 128L208 40zM192 144L496 144L496 349.9L465.1 404.1L464 405.9L464 560L176 560L176 405.9L174.9 404.1L144 349.9L144 144L192 144zM232 240L232 256L408 256L408 240L232 240zM232 336L232 352L408 352L408 336L232 336zM304 96L320 96C328.8 96 336 103.2 336 112L352 112C352 94.3 337.7 80 320 80L304 80C286.3 80 272 94.3 272 112L288 112C288 103.2 295.2 96 304 96zM432 80L416 80C398.3 80 384 94.3 384 112L400 112C400 103.2 407.2 96 416 96L432 96C440.8 96 448 103.2 448 112L464 112C464 94.3 449.7 80 432 80z"/></svg>