<svg xmlns="http://www.w3.org/2000/svg" viewBox="0 0 640 640"><!--! Font Awesome Pro 7.2.0 by @fontawesome - https://fontawesome.com License - https://fontawesome.com/license (Commercial License) Copyright 2026 Fonticons, Inc. --><path fill="currentColor" d="M528 80L528 560L112 560L112 80L528 80zM112 64L96 64L96 576L544 576L544 64L112 64zM447.6 378.3C433.3 381.7 417.2 384 400 384C336 384 304 320 240 320C226.6 320 212.6 322.2 199.3 325.4C216.9 275.7 264.3 240 320 240C390.7 240 448 297.3 448 368C448 371.5 447.9 374.9 447.6 378.3zM445.1 395.3C432.6 452.9 381.3 496.1 320 496.1C249.3 496.1 192 438.8 192 368.1C192 359.6 192.8 351.3 194.4 343.2C209.4 339 225.3 336.1 240 336.1C266.5 336.1 286.6 349.1 311.1 365.4L312.3 366.2C335.5 381.7 363.1 400.1 399.9 400.1C416.1 400.1 431.2 398.2 445 395.3zM320 512C399.5 512 464 447.5 464 368C464 288.5 399.5 224 320 224C240.5 224 176 288.5 176 368C176 447.5 240.5 512 320 512zM208 160C208 151.2 200.8 144 192 144C183.2 144 176 151.2 176 160C176 168.8 183.2 176 192 176C200.8 176 208 168.8 208 160zM256 176C264.8 176 272 168.8 272 160C272 151.2 264.8 144 256 144C247.2 144 240 151.2 240 160C240 168.8 247.2 176 256 176z"/></svg>