<svg xmlns="http://www.w3.org/2000/svg" viewBox="0 0 640 640"><!--! Font Awesome Pro 7.2.0 by @fontawesome - https://fontawesome.com License - https://fontawesome.com/license (Commercial License) Copyright 2026 Fonticons, Inc. --><path fill="currentColor" d="M144 128L197.3 128L208 32L432 32L442.7 128L512 128L512 512L442.7 512L432 608L208 608L197.3 512L128 512L128 128L144 128zM426.6 128L417.7 48L222.3 48L213.4 128L426.5 128zM213.4 512L222.3 592L417.7 592L426.6 512L213.5 512zM496 144L144 144L144 496L496 496L496 144zM208 208L208 272L432 272L432 208L208 208zM192 192L448 192L448 288L192 288L192 192zM192 336L256 336L256 352L192 352L192 336zM352 336L352 352L288 352L288 336L352 336zM384 336L448 336L448 352L384 352L384 336zM256 416L256 432L192 432L192 416L256 416zM288 416L352 416L352 432L288 432L288 416zM448 416L448 432L384 432L384 416L448 416z"/></svg>