<svg xmlns="http://www.w3.org/2000/svg" viewBox="0 0 640 640"><!--! Font Awesome Pro 7.2.0 by @fontawesome - https://fontawesome.com License - https://fontawesome.com/license (Commercial License) Copyright 2026 Fonticons, Inc. --><path fill="currentColor" d="M211.8 163C227.8 103.3 289.2 67.8 349 83.8C408.8 99.8 444.2 161.2 428.2 221L443.7 225.1C462 156.8 421.4 86.7 353.2 68.4C285 50.1 214.7 90.6 196.4 158.9C181.7 213.9 205.1 270.1 250.4 299.5L200.2 388.8C192.7 385.8 184.6 384.1 176 384.1C140.7 384.1 112 412.8 112 448.1C112 483.4 140.7 512.1 176 512.1C211.3 512.1 240 483.4 240 448.1C240 427 229.8 408.3 214.1 396.7L268.1 300.7L272 293.7L265 289.8C221.4 265.3 198.2 213.6 211.7 163.2zM320 240C293.5 240 272 218.5 272 192C272 165.5 293.5 144 320 144C346.5 144 368 165.5 368 192C368 218.5 346.5 240 320 240zM256 192C256 227.3 284.7 256 320 256C328.6 256 336.7 254.3 344.2 251.3L398.2 347.3L402.1 354.3L409.1 350.4C451.8 326.4 506.9 332.5 543.2 368.8C586.9 412.5 586.9 483.5 543.2 527.2C499.5 570.9 428.5 570.9 384.8 527.2L373.5 538.5C423.5 588.5 504.5 588.5 554.5 538.5C604.5 488.5 604.5 407.5 554.5 357.5C515 317.9 456 309.7 408.4 332.7L358.2 243.4C373.9 231.7 384.1 213 384.1 192C384.1 156.7 355.4 128 320.1 128C284.8 128 256.1 156.7 256.1 192zM224 448C224 474.5 202.5 496 176 496C149.5 496 128 474.5 128 448C128 421.5 149.5 400 176 400C202.5 400 224 421.5 224 448zM512 448C512 474.5 490.5 496 464 496C437.5 496 416 474.5 416 448C416 421.5 437.5 400 464 400C490.5 400 512 421.5 512 448zM400.5 456C404.4 487.6 431.4 512 464 512C499.3 512 528 483.3 528 448C528 412.7 499.3 384 464 384C431.4 384 404.4 408.4 400.5 440L288 440L288 448C288 497 255.7 542 206.2 555.8C146.6 572.5 84.8 537.8 68.1 478.2C51.4 418.6 86.1 356.8 145.7 340.1L141.4 324.7C73.4 343.8 33.7 414.5 52.8 482.6C71.9 550.7 142.5 590.4 210.6 571.3C264.4 556.2 300.5 508.9 303.8 456.1L400.5 456.1z"/></svg>