<svg xmlns="http://www.w3.org/2000/svg" viewBox="0 0 640 640"><!--! Font Awesome Pro 7.2.0 by @fontawesome - https://fontawesome.com License - https://fontawesome.com/license (Commercial License) Copyright 2026 Fonticons, Inc. --><path fill="currentColor" d="M54.2 42.4L598.4 586.4L604.1 592.1L592.8 603.4L587.1 597.7L42.9 53.7L37.2 48L48.5 36.7L54.2 42.4zM170.7 347.1L176.5 353.5C199.4 381.1 203.9 419.1 189.4 451C223.9 435.3 265.5 441.9 293.4 469.7L347.8 524.1C344.4 527.5 339.9 532 334.3 537.6C298.1 573.8 239.4 573.8 203.2 537.6L158.6 493L64.5 587.1L53.2 575.8L58.9 570.1L147.3 481.6L102.7 437C66.5 400.8 66.5 342.1 102.7 305.9C108.3 300.3 112.8 295.8 116.2 292.4L170.6 346.8zM282.1 481.1C254.8 453.8 211.3 451.1 180.8 474.8L170.7 482.6L214.5 526.4C244.5 556.3 293 556.3 323 526.4L325.2 524.2L282.1 481.1zM114.1 317.5C84.2 347.5 84.2 396 114.1 426L157.9 469.8L165.7 459.8C187.9 431.2 187 391.2 164.2 363.8L159.4 358.5L116.3 315.4L114.1 317.6zM195.9 274.6C197.4 291.9 204.8 308.8 218.1 322L261.9 365.8L269.7 355.8C270.8 354.4 271.8 352.9 272.7 351.5L289 367.8C287.6 368.8 286.1 369.8 284.7 370.9L274.6 378.7L318.4 422.5C331.6 435.7 348.5 443.1 365.8 444.6L381.6 460.5C355 463.1 327.5 454.2 307.1 433.8L206.7 333.3C186.3 312.9 177.4 285.3 179.9 258.7L195.8 274.6zM555.5 96L414.2 237.3C436.1 232 459.5 234.8 479.6 245.6L538.9 186.3L544.6 180.6L555.9 191.9L550.2 197.6L493.2 254.6C496 256.8 498.8 259.2 501.4 261.8L555.8 316.2C552.4 319.6 547.9 324.1 542.3 329.7C506.1 365.9 447.4 365.9 411.2 329.7L310.7 229.3C274.5 193.1 274.5 134.4 310.7 98.2C316.3 92.6 320.8 88.1 324.2 84.7L378.6 139.1L384.4 145.5C384.9 146.1 385.3 146.7 385.7 147.3L448.3 84.7L459.6 96L394.6 160.9C405.2 180.8 408.1 203.8 403.1 225.5L538.3 90.3L544 84.6L555.3 95.9zM490.1 273.1C462.7 245.8 419.3 243.1 388.8 266.8L378.7 274.6L422.5 318.4C452.5 348.3 501 348.3 531 318.4L533.2 316.2L490.1 273.1zM322.1 109.5C292.2 139.5 292.2 188 322.1 218L365.9 261.8L373.7 251.8C395.9 223.2 395 183.2 372.2 155.8L367.4 150.5L324.3 107.4L322.1 109.6z"/></svg>