<svg xmlns="http://www.w3.org/2000/svg" viewBox="0 0 640 640"><!--! Font Awesome Pro 7.2.0 by @fontawesome - https://fontawesome.com License - https://fontawesome.com/license (Commercial License) Copyright 2026 Fonticons, Inc. --><path opacity=".4" fill="currentColor" d=""/><path fill="currentColor" d="M360 336L208 336L208 304L360 304C408.6 304 448 264.6 448 216C448 167.4 408.6 128 360 128L160 128L160 96L360 96C426.3 96 480 149.7 480 216C480 260.5 455.8 299.3 419.9 320C455.8 340.7 480 379.5 480 424C480 490.3 426.3 544 360 544L160 544L160 512L360 512C408.6 512 448 472.6 448 424C448 375.4 408.6 336 360 336z"/></svg>