<svg xmlns="http://www.w3.org/2000/svg" viewBox="0 0 640 640"><!--! Font Awesome Pro 7.2.0 by @fontawesome - https://fontawesome.com License - https://fontawesome.com/license (Commercial License) Copyright 2026 Fonticons, Inc. --><path opacity=".4" fill="currentColor" d=""/><path fill="currentColor" d="M640 96C640 78.3 625.7 64 608 64C590.3 64 576 78.3 576 96C576 113.7 590.3 128 608 128C625.7 128 640 113.7 640 96zM544 432C544 458.5 522.5 480 496 480C469.5 480 448 458.5 448 432L448 208C448 181.5 469.5 160 496 160C522.5 160 544 181.5 544 208L544 432zM496 128C451.8 128 416 163.8 416 208L416 432C416 476.2 451.8 512 496 512C540.2 512 576 476.2 576 432L576 208C576 163.8 540.2 128 496 128zM336 160L352 160L352 128L336 128C274.1 128 224 178.1 224 240L224 432C224 476.2 259.8 512 304 512C348.2 512 384 476.2 384 432L384 336C384 291.8 348.2 256 304 256C286 256 269.4 262 256 272L256 240C256 195.8 291.8 160 336 160zM304 288C330.5 288 352 309.5 352 336L352 432C352 458.5 330.5 480 304 480C277.5 480 256 458.5 256 432L256 336C256 309.5 277.5 288 304 288zM176 149.5L176 128L0 128L0 160L127.3 160L32 282.5L32 304L80 304C124.2 304 160 339.8 160 384L160 400C160 444.2 124.2 480 80 480C64.4 480 51.6 473.8 42.4 467.1C37.3 463.4 32.9 459.1 28.8 454.4L3.2 473.6C8.8 481 16.1 487.5 23.6 492.9C36.4 502.2 55.6 512 80 512C141.9 512 192 461.9 192 400L192 384C192 322.4 142.2 272.4 80.7 272L176 149.5z"/></svg>