<svg xmlns="http://www.w3.org/2000/svg" viewBox="0 0 640 640"><!--! Font Awesome Pro 7.2.0 by @fontawesome - https://fontawesome.com License - https://fontawesome.com/license (Commercial License) Copyright 2026 Fonticons, Inc. --><path opacity=".4" fill="currentColor" d="M128 224L128 255.8L160.2 255.8C266.8 256 373.4 256 480 256C490.7 255.8 501.3 255.8 512 256L512 224C512 188.7 483.3 160 448 160L192 160C156.7 160 128 188.7 128 224zM176 288L176.3 301.8C179.8 372.5 210.7 468.6 320 510C436.6 465.8 464 359.5 464 288L176 288z"/><path fill="currentColor" d="M363.3 91.3L359.4 95.2C350.2 104.4 343.4 115.7 339.6 128L447.9 128L452.8 128.1C503.7 130.7 544 172.6 544 224L544 288L496 288L495.6 303.5C491.6 383.7 455 499 320 544C185 499 148.4 383.7 144.4 303.5L144 288L96 288L96 224C96 172.6 136.3 130.7 187.1 128.1L192 128L306.6 128C311.1 107.2 321.5 87.9 336.8 72.6L340.7 68.7L363.3 91.3zM176.3 301.8C179.8 372.5 210.7 468.6 320 510C436.6 465.8 464 359.5 464 288L176 288L176.3 301.8zM192 160C156.7 160 128 188.7 128 224L128 256L512 256L512 224C512 188.7 483.3 160 448 160L192 160z"/></svg>