<svg xmlns="http://www.w3.org/2000/svg" viewBox="0 0 640 640"><!--! Font Awesome Pro 7.2.0 by @fontawesome - https://fontawesome.com License - https://fontawesome.com/license (Commercial License) Copyright 2026 Fonticons, Inc. --><path opacity=".4" fill="currentColor" d="M128 128L128 512L512 512L512 128L128 128zM480 320C480 408.4 408.4 480 320 480C231.6 480 160 408.4 160 320C160 231.6 231.6 160 320 160C408.4 160 480 231.6 480 320z"/><path fill="currentColor" d="M512 128L512 512L128 512L128 128L512 128zM128 96L96 96L96 544L544 544L544 96L128 96zM320 192C390.7 192 448 249.3 448 320C448 390.7 390.7 448 320 448C249.3 448 192 390.7 192 320C192 249.3 249.3 192 320 192zM320 480C408.4 480 480 408.4 480 320C480 231.6 408.4 160 320 160C231.6 160 160 231.6 160 320C160 408.4 231.6 480 320 480zM320 344C333.3 344 344 333.3 344 320C344 306.7 333.3 296 320 296C306.7 296 296 306.7 296 320C296 333.3 306.7 344 320 344z"/></svg>