<svg xmlns="http://www.w3.org/2000/svg" viewBox="0 0 640 640"><!--! Font Awesome Pro 7.2.0 by @fontawesome - https://fontawesome.com License - https://fontawesome.com/license (Commercial License) Copyright 2026 Fonticons, Inc. --><path opacity=".4" fill="currentColor" d="M64 208L64 352L128 352L128 416L512 416L512 352L576 352L576 208L544 208L544 320L512 320L512 256L416 256L416 160L384 160L384 224L256 224L256 160L224 160L224 256L128 256L128 320L96 320L96 208L64 208zM160 128L160 160L192 160L192 128L160 128zM192 448L192 512L272 512L272 480L224 480L224 448L192 448zM224 288L256 288L256 384L224 384L224 288zM368 480L368 512L448 512L448 448L416 448L416 480L368 480zM384 288L416 288L416 384L384 384L384 288zM448 128L448 160L480 160L480 128L448 128z"/><path fill="currentColor" d="M144 96L128 96L128 176L32 176L32 384L96 384L96 448L160 448L160 544L304 544L304 448L336 448L336 544L480 544L480 448L544 448L544 384L608 384L608 176L512 176L512 96L416 96L416 128L352 128L352 192L288 192L288 128L224 128L224 96L144 96zM128 192L192 192L192 224L128 224L128 192zM128 256L224 256L224 160L256 160L256 224L384 224L384 160L416 160L416 256L512 256L512 320L544 320L544 208L576 208L576 352L512 352L512 416L128 416L128 352L64 352L64 208L96 208L96 320L128 320L128 256zM512 224L448 224L448 192L512 192L512 224zM192 144L192 160L160 160L160 128L192 128L192 144zM480 160L448 160L448 128L480 128L480 160zM192 512L192 448L224 448L224 480L272 480L272 512L192 512zM416 464L416 448L448 448L448 512L368 512L368 480L416 480L416 464zM256 304L256 288L224 288L224 384L256 384L256 304zM416 304L416 288L384 288L384 384L416 384L416 304z"/></svg>