<svg xmlns="http://www.w3.org/2000/svg" viewBox="0 0 640 640"><!--! Font Awesome Pro 7.2.0 by @fontawesome - https://fontawesome.com License - https://fontawesome.com/license (Commercial License) Copyright 2026 Fonticons, Inc. --><path opacity=".4" fill="currentColor" d="M240 144C240 170.5 261.5 192 288 192C314.5 192 336 170.5 336 144C336 117.5 314.5 96 288 96C261.5 96 240 117.5 240 144z"/><path fill="currentColor" d="M288 96C261.5 96 240 117.5 240 144C240 170.5 261.5 192 288 192C314.5 192 336 170.5 336 144C336 117.5 314.5 96 288 96zM208 144C208 99.8 243.8 64 288 64C332.2 64 368 99.8 368 144C368 182.7 340.5 215 304 222.4L304 528L318.1 528C322.1 539.2 327 549.9 332.9 560L96 560L96 339.3C66.8 364.9 50.3 379.3 46.5 382.6L25.4 358.5L37.4 348L101.4 292L111.9 282.8L122.4 292L186.4 348L198.4 358.5L177.3 382.6C173.5 379.3 157 364.8 127.8 339.3L127.8 528L271.8 528L271.8 222.4C235.3 215 207.8 182.7 207.8 144zM608 464C608 402.1 557.9 352 496 352C434.1 352 384 402.1 384 464C384 525.9 434.1 576 496 576C557.9 576 608 525.9 608 464zM352 464C352 384.5 416.5 320 496 320C575.5 320 640 384.5 640 464C640 543.5 575.5 608 496 608C416.5 608 352 543.5 352 464zM547.3 435.3L518.6 464L558.6 504L536 526.6C531.4 522 518 508.6 496 486.6C474 508.6 460.6 522 456 526.6L433.4 504C438 499.4 451.4 486 473.4 464C451.4 442 438 428.6 433.4 424L456 401.4C460.6 406 474 419.4 496 441.4C518 419.4 531.4 406 536 401.4L558.6 424L547.3 435.3z"/></svg>