<svg xmlns="http://www.w3.org/2000/svg" viewBox="0 0 640 640"><!--! Font Awesome Pro 7.2.0 by @fontawesome - https://fontawesome.com License - https://fontawesome.com/license (Commercial License) Copyright 2026 Fonticons, Inc. --><path opacity=".4" fill="currentColor" d="M272.1 144C272.1 170.5 293.6 192 320.1 192C346.6 192 368.1 170.5 368.1 144C368.1 117.5 346.6 96 320.1 96C293.6 96 272.1 117.5 272.1 144z"/><path fill="currentColor" d="M320.1 96C293.6 96 272.1 117.5 272.1 144C272.1 170.5 293.6 192 320.1 192C346.6 192 368.1 170.5 368.1 144C368.1 117.5 346.6 96 320.1 96zM240.1 144C240.1 99.8 275.9 64 320.1 64C364.3 64 400.1 99.8 400.1 144C400.1 182.7 372.6 215 336.1 222.4L336.1 528L480.1 528L480.1 339.3C450.9 364.9 434.4 379.3 430.6 382.6L409.5 358.5L421.5 348L485.5 292L496 282.8L506.5 292L570.5 348L582.5 358.5L561.4 382.6C557.6 379.3 541.1 364.8 511.9 339.3L511.9 560L127.9 560L127.9 339.3C98.7 364.9 82.2 379.3 78.4 382.6L57.3 358.5L69.3 348L133.3 292L143.8 282.8L154.3 292L218.3 348L230.3 358.5L209.2 382.6C205.4 379.3 188.9 364.8 159.7 339.3L159.7 528L303.7 528L303.7 222.4C267.2 215 239.7 182.7 239.7 144z"/></svg>