<svg xmlns="http://www.w3.org/2000/svg" viewBox="0 0 640 640"><!--! Font Awesome Pro 7.2.0 by @fontawesome - https://fontawesome.com License - https://fontawesome.com/license (Commercial License) Copyright 2026 Fonticons, Inc. --><path opacity=".4" fill="currentColor" d="M147 512L288 216.4C301.6 223.8 314.6 232.1 327 241.2L312.5 270.3C336 288.3 356.8 309.6 374.2 333.6L401.3 316.4C410.6 329.4 419 343 426.4 357.3L399.3 374.5C413.4 402.2 423.3 432.3 428.3 464L460.7 464C462.9 479.7 464.1 495.7 464.1 512L147 512z"/><path fill="currentColor" d="M305.6 105.1L107.2 521.1L96.3 544L544.1 544L544.1 512L147.1 512L334.6 118.9L305.7 105.1zM426.4 357.3L399.3 374.5C413.4 402.2 423.3 432.3 428.3 464L460.7 464C455.3 426 443.5 390.1 426.5 357.3zM374.2 333.5L401.3 316.3C380.6 287.5 355.5 262.1 327 241.1L312.5 270.2C336 288.2 356.8 309.5 374.2 333.5z"/></svg>