<svg xmlns="http://www.w3.org/2000/svg" viewBox="0 0 640 640"><!--! Font Awesome Pro 7.2.0 by @fontawesome - https://fontawesome.com License - https://fontawesome.com/license (Commercial License) Copyright 2026 Fonticons, Inc. --><path opacity=".4" fill="currentColor" d=""/><path fill="currentColor" d="M464.5 370.2L600.5 450.2L614.3 458.3L598.1 485.9L584.3 477.8L456.4 402.5L328.5 477.8L320.4 482.6L312.3 477.8L184.4 402.5L56.5 477.8L42.7 485.9L26.5 458.3L40.3 450.2L176.3 370.2L184.4 365.4L192.5 370.2L320.4 445.4L448.3 370.2L456.4 365.4L464.5 370.2zM464.5 162.2L600.5 242.2L614.3 250.3L598.1 277.9L584.3 269.8L456.4 194.6L328.5 269.8L320.4 274.6L312.3 269.8L184.4 194.6L56.5 269.8L42.7 277.9L26.5 250.3L40.3 242.2L176.3 162.2L184.4 157.4L192.5 162.2L320.4 237.4L448.3 162.2L456.4 157.4L464.5 162.2z"/></svg>