<svg xmlns="http://www.w3.org/2000/svg" viewBox="0 0 640 640"><!--! Font Awesome Pro 7.2.0 by @fontawesome - https://fontawesome.com License - https://fontawesome.com/license (Commercial License) Copyright 2026 Fonticons, Inc. --><path opacity=".4" fill="currentColor" d="M416 448L576 448L576 576L416 576L416 448z"/><path fill="currentColor" d="M203.3 571.3L192 582.6L180.7 571.3L84.7 475.3L73.4 464L96 441.4L107.3 452.7L176 521.4L176 336L72 336L72 304L368 304L368 118.6L299.3 187.3L288 198.6L265.4 176L276.7 164.7L372.7 68.7L384 57.4L395.3 68.7L491.3 164.7L502.6 176L480 198.6L468.7 187.3L400 118.6L400 283.3C386.9 298.2 377.1 316.1 372 336L208 336L208 521.4L276.7 452.7L288 441.4L310.6 464L299.3 475.3L203.3 571.3zM176 256L176 64L208 64L208 256L176 256zM496 320C469.5 320 448 341.5 448 368L448 416L544 416L544 368C544 341.5 522.5 320 496 320zM416 368C416 323.8 451.8 288 496 288C540.2 288 576 323.8 576 368L576 416L608 416L608 608L384 608L384 416L416 416L416 368zM416 448L416 576L576 576L576 448L416 448z"/></svg>