<svg xmlns="http://www.w3.org/2000/svg" viewBox="0 0 640 640"><!--! Font Awesome Pro 7.2.0 by @fontawesome - https://fontawesome.com License - https://fontawesome.com/license (Commercial License) Copyright 2026 Fonticons, Inc. --><path opacity=".4" fill="currentColor" d=""/><path fill="currentColor" d="M96 183.8L133 144.6C181.6 93.1 249.2 64 320 64C459.7 64 575.9 180.4 576 320C576.1 459.3 459.7 575.9 320 576C219.9 576.1 126.6 515.5 86.1 424.1C95.9 419.8 105.6 415.5 115.4 411.1C150.8 490.9 232.6 544.1 320.1 544C442.2 543.9 544.2 441.6 544.1 320C544 198.1 442 96 320.1 96C258.1 96 198.9 121.5 156.3 166.6L91.7 235L64 224L64 64L96 64L96 183.8zM272 416L240 416L240 265.9C221.7 275.1 208.6 281.6 200.8 285.5L186.5 256.9L252.2 224.1L272 224.1L272 416.1zM376 224C406.9 224 432 249.1 432 280L432 360C432 390.9 406.9 416 376 416L360 416C329.1 416 304 390.9 304 360L304 280C304 249.1 329.1 224 360 224L376 224zM360 256C346.7 256 336 266.7 336 280L336 360C336 373.3 346.7 384 360 384L376 384C389.3 384 400 373.3 400 360L400 280C400 266.7 389.3 256 376 256L360 256z"/></svg>