<svg xmlns="http://www.w3.org/2000/svg" viewBox="0 0 640 640"><!--! Font Awesome Pro 7.2.0 by @fontawesome - https://fontawesome.com License - https://fontawesome.com/license (Commercial License) Copyright 2026 Fonticons, Inc. --><path opacity=".4" fill="currentColor" d=""/><path fill="currentColor" d="M436.8 292.7L425.5 304L448.1 326.6L459.4 315.3L571.4 203.3L582.7 192L571.4 180.7L459.4 68.7L448.1 57.4L425.5 80L436.8 91.3L521.5 176L64.1 176L64.1 208L521.5 208L436.8 292.7zM203.4 548.7L118.7 464L576.1 464L576.1 432L118.7 432L203.4 347.3L214.7 336L192.1 313.4L180.8 324.7L68.8 436.7L57.5 448L68.8 459.3L180.8 571.3L192.1 582.6L214.7 560L203.4 548.7z"/></svg>