<svg xmlns="http://www.w3.org/2000/svg" viewBox="0 0 640 640"><!--! Font Awesome Pro 7.2.0 by @fontawesome - https://fontawesome.com License - https://fontawesome.com/license (Commercial License) Copyright 2026 Fonticons, Inc. --><path opacity=".4" fill="currentColor" d=""/><path fill="currentColor" d="M331.4 68.7L320.1 57.4L308.8 68.7L236.8 140.7L225.5 152L248.1 174.6C250.1 172.6 268.8 153.9 304.1 118.6L304.1 304L118.7 304L174.7 248L152.1 225.4L140.8 236.7L68.8 308.7L57.5 320L68.8 331.3L140.8 403.3L152.1 414.6L174.7 392C172.7 390 154 371.3 118.7 336L304.1 336L304.1 521.4C268.7 486 250.1 467.4 248.1 465.4L225.5 488L236.8 499.3L308.8 571.3L320.1 582.6L403.4 499.3L414.7 488L392.1 465.4C390.1 467.4 371.5 486 336.1 521.4L336.1 336L521.5 336C486.1 371.4 467.5 390 465.5 392L488.1 414.6L499.4 403.3L571.4 331.3L582.7 320L571.4 308.7L499.4 236.7L488.1 225.4L465.5 248C467.5 250 486.2 268.7 521.5 304L336.1 304L336.1 118.6C371.5 154 390.1 172.6 392.1 174.6L414.7 152L403.4 140.7L331.4 68.7z"/></svg>