<svg xmlns="http://www.w3.org/2000/svg" viewBox="0 0 640 640"><!--! Font Awesome Pro 7.2.0 by @fontawesome - https://fontawesome.com License - https://fontawesome.com/license (Commercial License) Copyright 2026 Fonticons, Inc. --><path opacity=".4" fill="currentColor" d=""/><path fill="currentColor" d="M171.3 539.3L160 550.6L148.7 539.3L52.7 443.3L41.4 432L64 409.4L75.3 420.7L144 489.4L144 96L176 96L176 489.4L244.7 420.7L256 409.4L278.6 432L267.3 443.3L171.3 539.3zM336 544L320 544L320 512L416 512L416 544L336 544zM336 408L320 408L320 376L480 376L480 408L336 408zM336 264L320 264L320 232L544 232L544 264L336 264zM336 128L320 128L320 96L608 96L608 128L336 128z"/></svg>