<svg xmlns="http://www.w3.org/2000/svg" viewBox="0 0 640 640"><!--! Font Awesome Pro 7.2.0 by @fontawesome - https://fontawesome.com License - https://fontawesome.com/license (Commercial License) Copyright 2026 Fonticons, Inc. --><path opacity=".4" fill="currentColor" d=""/><path fill="currentColor" d="M320.1 96C443.8 96 544.1 196.3 544.1 320L544.1 336L576.1 336L576.1 320C576.1 178.6 461.5 64 320.1 64C178.7 64 64.1 178.6 64.1 320L64.1 336L96.1 336L96.1 320C96.1 196.3 196.4 96 320.1 96zM443.4 459.3L454.7 448L432.1 425.4L420.8 436.7L336.1 521.4L336.1 224L304.1 224L304.1 521.4L219.4 436.7L208.1 425.4L185.5 448L196.8 459.3L308.8 571.3L320.1 582.6L331.4 571.3L443.4 459.3z"/></svg>