<svg xmlns="http://www.w3.org/2000/svg" viewBox="0 0 640 640"><!--! Font Awesome Pro 7.2.0 by @fontawesome - https://fontawesome.com License - https://fontawesome.com/license (Commercial License) Copyright 2026 Fonticons, Inc. --><path opacity=".4" fill="currentColor" d="M128 224C154.7 224 181.3 224 208 224L224 224C250.7 224 277.3 224 304 224L304 384L336 384L336 224L416 224C421.3 224 426.7 224 432 224L512 224L512 544L128 544L128 224z"/><path fill="currentColor" d="M336 368L336 86.6L388.7 139.3L400 150.6L422.6 128L411.3 116.7L331.3 36.7L320 25.4L308.7 36.7L228.7 116.7L217.4 128L240 150.6L304 86.6L304 384L336 384L336 368zM112 192L96 192L96 576L544 576L544 192L416 192L416 224L512 224L512 544L128 544L128 224L224 224L224 192L112 192z"/></svg>