<svg xmlns="http://www.w3.org/2000/svg" viewBox="0 0 640 640"><!--! Font Awesome Pro 7.2.0 by @fontawesome - https://fontawesome.com License - https://fontawesome.com/license (Commercial License) Copyright 2026 Fonticons, Inc. --><path opacity=".4" fill="currentColor" d=""/><path fill="currentColor" d="M320 57.4L331.3 68.7L475.3 212.7L486.6 224L464 246.6L452.7 235.3L336 118.6L336 448L304 448L304 118.6L176 246.6L153.4 224L164.7 212.7L308.7 68.7L320 57.4zM128 528L176 528L176 576L128 576L128 528zM288 528L288 576L240 576L240 528L288 528zM352 528L400 528L400 576L352 576L352 528zM512 528L512 576L464 576L464 528L512 528z"/></svg>