<svg xmlns="http://www.w3.org/2000/svg" viewBox="0 0 640 640"><!--! Font Awesome Pro 7.2.0 by @fontawesome - https://fontawesome.com License - https://fontawesome.com/license (Commercial License) Copyright 2026 Fonticons, Inc. --><path opacity=".4" fill="currentColor" d=""/><path fill="currentColor" d="M96.1 320C96.1 196.3 196.4 96 320.1 96L336.1 96L336.1 64L320.1 64C178.7 64 64.1 178.6 64.1 320C64.1 461.4 178.7 576 320.1 576L336.1 576L336.1 544L320.1 544C196.4 544 96.1 443.7 96.1 320zM459.4 196.7L448.1 185.4L425.5 208L436.8 219.3L521.5 304L224.1 304L224.1 336L521.5 336L436.8 420.7L425.5 432L448.1 454.6L459.4 443.3L571.4 331.3L582.7 320L571.4 308.7L459.4 196.7z"/></svg>