<svg xmlns="http://www.w3.org/2000/svg" viewBox="0 0 640 640"><!--! Font Awesome Pro 7.2.0 by @fontawesome - https://fontawesome.com License - https://fontawesome.com/license (Commercial License) Copyright 2026 Fonticons, Inc. --><path opacity=".4" fill="currentColor" d="M134.4 207.6C123.6 227.1 125.3 255.5 150.4 293.2L151.2 294.4C164.2 280.2 179.2 266.2 195.9 252.6C199 226.5 203.9 202 210.5 179.9C167.9 176.6 144.8 188.8 134.4 207.6zM134.4 432.5C144.8 451.2 168 463.5 210.5 460.2C203.9 438.1 199 413.6 195.9 387.5C179.2 374 164.2 360 151.2 345.7L150.4 346.9C125.4 384.6 123.6 413 134.4 432.5zM171.1 320C177.6 327.3 184.7 334.6 192.4 341.9C191.9 327.5 191.9 312.4 192.4 298C184.7 305.3 177.6 312.6 171.1 319.9zM224 320C224 337.5 224.8 354.4 226.3 370.6C241.1 381.9 257.4 392.9 274.8 403.4C290.1 412.6 305.2 420.6 320 427.6C334.8 420.6 349.9 412.5 365.2 403.4C382.7 392.9 398.9 381.9 413.7 370.6C415.2 354.4 416 337.5 416 320C416 302.5 415.2 285.6 413.7 269.4C398.9 258.1 382.6 247.1 365.2 236.6C349.9 227.4 334.8 219.4 320 212.4C305.2 219.4 290.1 227.5 274.8 236.6C257.3 247.1 241.1 258.1 226.3 269.4C224.8 285.6 224 302.5 224 320zM232.3 225.7C249.6 214 266.8 203.9 281.1 196.2C267.7 191.4 254.7 187.6 242.4 184.9C238.4 197.5 235 211.2 232.3 225.8zM232.3 414.3C235.1 428.9 238.5 442.6 242.4 455.2C254.7 452.4 267.7 448.7 281.1 443.8C266.7 436.1 249.6 426 232.3 414.3zM254 154.7C275.1 159.7 297.3 167.3 320 177.3C342.7 167.4 364.9 159.8 386 154.7C385.7 154 385.4 153.4 385.1 152.8C365.4 111.4 342 96.1 320 96.1C298 96.1 274.6 111.4 254.9 152.8C254.6 153.4 254.3 154.1 254 154.7zM254 485.4C254.3 486.1 254.6 486.7 254.9 487.3C274.6 528.7 298 544 320 544C342 544 365.4 528.7 385.1 487.3C385.4 486.7 385.7 486 386 485.4C364.9 480.4 342.7 472.8 320 462.8C297.3 472.7 275.1 480.3 254 485.4zM288 320L320 288L352 320L320 352L288 320zM358.9 196.2C373.3 203.9 390.4 214 407.7 225.7C404.9 211.1 401.5 197.4 397.6 184.8C385.3 187.6 372.3 191.3 358.9 196.1zM358.9 443.9C372.3 448.7 385.3 452.5 397.6 455.3C401.6 442.7 405 429 407.7 414.4C390.4 426.1 373.2 436.2 358.9 443.9zM429.6 180C436.2 202.1 441.1 226.6 444.2 252.7C460.9 266.2 475.9 280.2 488.9 294.5L489.7 293.3C514.7 255.6 516.5 227.2 505.7 207.7C495.3 189 472.1 176.7 429.6 180zM429.6 460.2C472.2 463.5 495.3 451.3 505.7 432.5C516.5 413 514.8 384.6 489.7 346.9L488.9 345.7C475.9 359.9 460.9 373.9 444.2 387.5C441.1 413.6 436.2 438.1 429.6 460.2zM447.7 298.1C448.2 312.5 448.2 327.6 447.7 342C455.4 334.7 462.5 327.4 469 320.1C462.5 312.8 455.4 305.4 447.7 298.2z"/><path fill="currentColor" d="M386 485.3C385.7 486 385.4 486.6 385.1 487.2C365.4 528.6 342 543.9 320 543.9C298 543.9 274.6 528.6 254.9 487.2C254.6 486.6 254.3 485.9 254 485.3C275.1 480.3 297.3 472.7 320 462.7C342.7 472.6 364.9 480.2 386 485.3zM281.1 443.8C267.7 448.6 254.7 452.4 242.4 455.2C238.4 442.6 235 428.9 232.3 414.3C249.6 426 266.8 436.1 281.1 443.8zM397.5 455.2C385.2 452.4 372.2 448.7 358.8 443.8C373.2 436.1 390.3 426 407.6 414.3C404.8 428.9 401.4 442.6 397.5 455.2zM365.2 403.4C349.9 412.6 334.8 420.6 320 427.6C305.2 420.6 290.1 412.5 274.8 403.4C257.3 392.9 241.1 381.9 226.3 370.6C224.8 354.4 224 337.5 224 320C224 302.5 224.8 285.6 226.3 269.4C241.1 258.1 257.4 247.1 274.8 236.6C290.1 227.4 305.2 219.4 320 212.4C334.8 219.4 349.9 227.5 365.2 236.6C382.7 247.1 398.9 258.1 413.7 269.4C415.2 285.6 416 302.5 416 320C416 337.5 415.2 354.4 413.7 370.6C398.9 381.9 382.6 392.9 365.2 403.4zM429.5 460.1C436.1 438 441 413.5 444.1 387.4C460.8 373.9 475.8 359.9 488.8 345.6L489.6 346.8C514.6 384.5 516.4 412.9 505.6 432.4C495.2 451.1 472 463.4 429.5 460.1zM447.6 341.9C448.1 327.5 448.1 312.4 447.6 298C455.3 305.3 462.4 312.6 468.9 319.9C462.4 327.2 455.3 334.5 447.6 341.8zM533.6 448C554.3 410.9 543 365.2 510 320C543 274.8 554.3 229.1 533.6 192C513.4 155.7 471.1 142.7 418.4 148.8C396.4 96.7 362.7 64 320 64C277.3 64 243.6 96.7 221.6 148.8C168.9 142.7 126.6 155.6 106.4 192C85.7 229.1 97 274.8 130 320C97 365.2 85.7 410.9 106.4 448C126.6 484.3 168.9 497.3 221.6 491.2C243.6 543.3 277.3 576 320 576C362.7 576 396.4 543.3 418.4 491.2C471.1 497.3 513.4 484.4 533.6 448zM505.6 207.6C516.4 227.1 514.7 255.5 489.6 293.2L488.8 294.4C475.8 280.2 460.8 266.2 444.1 252.6C441 226.5 436.1 202 429.5 179.9C472.1 176.6 495.2 188.8 505.6 207.6zM385.1 152.7C385.4 153.3 385.7 154 386 154.6C364.9 159.6 342.7 167.2 320 177.2C297.3 167.3 275.1 159.7 254 154.6C254.3 153.9 254.6 153.3 254.9 152.7C274.6 111.3 298 96 320 96C342 96 365.4 111.3 385.1 152.7zM397.6 184.8C401.6 197.4 405 211.1 407.7 225.7C390.4 214 373.2 203.9 358.9 196.2C372.3 191.4 385.3 187.6 397.6 184.9zM242.5 184.8C254.8 187.6 267.8 191.3 281.2 196.1C266.8 203.8 249.7 213.9 232.4 225.6C235.2 211 238.6 197.3 242.5 184.7zM210.5 179.9C203.9 202 199 226.5 195.9 252.6C179.2 266.1 164.2 280.1 151.2 294.4L150.4 293.2C125.4 255.5 123.6 227.1 134.4 207.6C144.8 188.9 168 176.6 210.5 179.9zM150.3 346.8L151.1 345.6C164.1 359.8 179.1 373.8 195.8 387.4C198.9 413.5 203.8 438 210.4 460.1C167.8 463.4 144.7 451.2 134.3 432.4C123.5 412.9 125.2 384.5 150.3 346.8zM192.4 298C191.9 312.4 191.9 327.5 192.4 341.9C184.7 334.6 177.6 327.3 171.1 320C177.6 312.7 184.7 305.3 192.4 298.1zM288 320L320 352L352 320L320 288L288 320z"/></svg>