<svg xmlns="http://www.w3.org/2000/svg" viewBox="0 0 640 640"><!--! Font Awesome Pro 7.2.0 by @fontawesome - https://fontawesome.com License - https://fontawesome.com/license (Commercial License) Copyright 2026 Fonticons, Inc. --><path opacity=".4" fill="currentColor" d="M55.1 528L80.5 553.4L325.2 308.7L299.8 283.3L55.1 528zM253.7 192L407.1 345.4L416.5 354.8L416.5 448.1C522.5 448.1 608.5 362.1 608.5 256.1L515.2 256.1L505.8 246.7L352.4 93.3L253.7 192z"/><path fill="currentColor" d="M528.5 224L375.1 70.6L352.5 48C350.1 50.4 309.6 90.9 231.1 169.4L208.5 192C219.7 203.2 242.6 226.1 277.2 260.7L21.2 516.7L9.9 528C11.3 529.4 31.1 549.2 69.2 587.3L80.5 598.6L91.8 587.3L347.8 331.3L384.5 368L384.5 480L416.5 480C540.2 480 640.5 379.7 640.5 256L640.5 224L528.5 224zM55.1 528L299.8 283.3L325.2 308.7L80.5 553.4L55.1 528zM608.5 256C608.5 362 522.5 448 416.5 448L416.5 354.7L407.1 345.3L253.7 191.9L352.4 93.2L505.8 246.6L515.2 256L608.5 256zM483.8 76.7L472.5 65.4L449.9 88C451.3 89.4 471.1 109.2 509.2 147.3L520.5 158.6L543.1 136C541.7 134.6 521.9 114.8 483.8 76.7z"/></svg>