<svg xmlns="http://www.w3.org/2000/svg" viewBox="0 0 640 640"><!--! Font Awesome Pro 7.2.0 by @fontawesome - https://fontawesome.com License - https://fontawesome.com/license (Commercial License) Copyright 2026 Fonticons, Inc. --><path opacity=".4" fill="currentColor" d="M43.4 320L190.1 160L544 160L544 480L190.1 480L43.4 320zM273.4 264C275.4 266 294 284.6 329.4 320C294.1 355.3 275.4 374 273.4 376L296 398.6C298 396.6 316.6 378 352 342.6C387.3 378 406 396.6 408 398.6L430.6 376C428.6 374 410 355.4 374.6 320C409.9 284.7 428.6 266 430.6 264L408 241.4C406 243.4 387.4 262 352 297.4C316.7 262.1 298 243.4 296 241.4L273.4 264z"/><path fill="currentColor" d="M576 512L176 512L0 320L176 128L576 128L576 512zM43.4 320L190.1 480L544 480L544 160L190.1 160L43.4 320zM430.6 264C428.6 266 409.9 284.7 374.6 320C410 355.4 428.6 374 430.6 376L408 398.6C406 396.6 387.3 378 352 342.6C316.6 378 298 396.6 296 398.6L273.4 376C275.4 374 294.1 355.3 329.4 320C294 284.6 275.4 266 273.4 264L296 241.4C298 243.4 316.7 262.1 352 297.4C387.4 262 406 243.4 408 241.4L430.6 264z"/></svg>