<svg xmlns="http://www.w3.org/2000/svg" viewBox="0 0 640 640"><!--! Font Awesome Pro 7.2.0 by @fontawesome - https://fontawesome.com License - https://fontawesome.com/license (Commercial License) Copyright 2026 Fonticons, Inc. --><path opacity=".4" fill="currentColor" d="M84.4 530.3C81.3 533.4 81.3 538.5 84.4 541.6L98.5 555.7L99.7 556.7C102.8 558.7 107 558.4 109.8 555.7L179.9 485.6C182.6 482.9 183 478.6 180.9 475.5L179.9 474.2L165.8 460.1C163.1 457.4 158.8 457 155.7 459.1L154.5 460.1L84.4 530.2zM240.1 271.9L240.3 278.5C241.7 311.3 253.8 341.4 276.3 363.9C330.4 418 431.1 411.8 501.5 341.4C538.1 304.8 557.6 259.4 559.9 216.7L560.1 208.2C560.1 172.8 548 140.2 524 116.2C501.5 93.7 471.4 81.7 438.6 80.2L432 80C387 80 337.8 99.7 298.8 138.7C259.8 177.7 240.1 226.9 240.1 271.9zM480.6 528L543.8 528L535.5 490.7C533.1 479.8 523.4 472 512.2 472C502.4 472 493.7 478 490.1 486.8L488.9 490.7L480.6 528z"/><path fill="currentColor" d="M512.2 440C538.4 440 561.1 458.2 566.8 483.8L591.9 596.5L594.4 608L561.6 608L560.6 603.5L550.9 560L528.2 560L528.2 608L496.2 608L496.2 560L473.5 560L463.8 603.5L462.8 608L430 608L432.5 596.5L457.6 483.7L458.9 479C466.2 455.9 487.6 439.9 512.2 439.9zM440 48.2C479.8 49.9 517.8 64.6 546.7 93.5C577.5 124.3 592.2 165.4 592.2 208.2L591.9 218.4C589.2 269.5 565.9 322.3 524.1 364.1C449.5 438.7 337 455.2 265.5 397.3L206.3 456.4C217.1 471 216.7 491.2 205.1 505.3L202.3 508.3L132.2 578.4C117.6 593 94.4 594 78.7 581.2L75.7 578.4L61.6 564.3C46 548.7 46 523.4 61.6 507.7L131.7 437.6L134.7 434.8C148.8 423.3 169 422.9 183.6 433.6L242.7 374.5C220.9 347.5 209.6 314.3 208.1 279.8L207.9 271.8C207.9 217.7 231.4 160.5 275.9 116C320.4 71.5 377.9 48 432 48L440 48.2zM165.8 460.3C163.1 457.6 158.8 457.2 155.7 459.3L154.5 460.3L84.4 530.4C81.3 533.5 81.3 538.6 84.4 541.7L98.5 555.8L99.7 556.8C102.8 558.8 107 558.5 109.8 555.8L179.9 485.7C182.6 483 183 478.7 180.9 475.6L179.9 474.3L165.8 460.2zM512.2 472C502.4 472 493.7 478 490.1 486.8L488.9 490.7L480.6 528L543.8 528L535.5 490.7C533.1 479.8 523.4 472 512.2 472zM432 80C387 80 337.8 99.7 298.8 138.7C259.8 177.7 240.1 226.9 240.1 271.9L240.3 278.5C241.7 311.3 253.8 341.4 276.3 363.9C330.4 418 431.1 411.8 501.5 341.4C538.1 304.8 557.6 259.4 559.9 216.7L560.1 208.2C560.1 172.8 548 140.2 524 116.2C501.5 93.7 471.4 81.7 438.6 80.2L432 80z"/></svg>