<svg xmlns="http://www.w3.org/2000/svg" viewBox="0 0 640 640"><!--! Font Awesome Pro 7.2.0 by @fontawesome - https://fontawesome.com License - https://fontawesome.com/license (Commercial License) Copyright 2026 Fonticons, Inc. --><path opacity=".4" fill="currentColor" d="M64 192L448 192L448 240L176 240L176 480L64 480L64 192z"/><path fill="currentColor" d="M192 128L192 160L320 160L320 128C320 92.7 291.3 64 256 64C220.7 64 192 92.7 192 128zM160 160L160 128C160 75 203 32 256 32C309 32 352 75 352 128L352 160L480 160L480 240L448 240L448 192L64 192L64 480L176 480L176 512L32 512L32 160L160 160zM256 320L256 544L576 544L576 320L256 320zM224 288L608 288L608 576L224 576L224 288zM352 368L352 400C352 435.3 380.7 464 416 464C451.3 464 480 435.3 480 400L480 368L512 368L512 400C512 453 469 496 416 496C363 496 320 453 320 400L320 368L352 368z"/></svg>