<svg xmlns="http://www.w3.org/2000/svg" viewBox="0 0 640 640"><!--! Font Awesome Pro 7.2.0 by @fontawesome - https://fontawesome.com License - https://fontawesome.com/license (Commercial License) Copyright 2026 Fonticons, Inc. --><path opacity=".4" fill="currentColor" d="M103 256L536.9 256L485.7 512L154.2 512L103 256zM232 368L232 400L304 400L304 472L336 472L336 400L408 400L408 368L336 368L336 296L304 296L304 368L232 368z"/><path fill="currentColor" d="M320 56L331.9 69.3L470.3 224C596.1 224 576 224 592 224L592 256L569.6 256L512 544L128 544L70.4 256L48 256L48 224L64 224L64 224L169.7 224L308.1 69.3L320 56zM320 104L212.6 224L427.4 224L320 104zM103 256L154.2 512L485.7 512L536.9 256L103 256zM304 472L304 400L232 400L232 368L304 368L304 296L336 296L336 368L408 368L408 400L336 400L336 472L304 472z"/></svg>