<svg xmlns="http://www.w3.org/2000/svg" viewBox="0 0 640 640"><!--! Font Awesome Pro 7.2.0 by @fontawesome - https://fontawesome.com License - https://fontawesome.com/license (Commercial License) Copyright 2026 Fonticons, Inc. --><path opacity=".4" fill="currentColor" d="M99.4 288L125 544L515 544L540.6 288L99.4 288z"/><path fill="currentColor" d="M224 128L224 160L160 160L160 128L224 128zM128 128L128 160C92.7 160 64 188.7 64 224L64 256L32 256L32 288L67.2 288L96 576L544 576L572.8 288L608 288L608 256L576 256L576 224C576 188.7 547.3 160 512 160L512 96L384 96L384 160C348.7 160 320 188.7 320 224C320 188.7 291.3 160 256 160L256 96L128 96L128 128zM544 256L352 256L352 224C352 206.3 366.3 192 384 192L512 192C529.7 192 544 206.3 544 224L544 256zM288 256L96 256L96 224C96 206.3 110.3 192 128 192L256 192C273.7 192 288 206.3 288 224L288 256zM480 128L480 160L416 160L416 128L480 128zM125 544L99.4 288L540.6 288L515 544L125 544z"/></svg>