<svg xmlns="http://www.w3.org/2000/svg" viewBox="0 0 640 640"><!--! Font Awesome Pro 7.2.0 by @fontawesome - https://fontawesome.com License - https://fontawesome.com/license (Commercial License) Copyright 2026 Fonticons, Inc. --><path opacity=".4" fill="currentColor" d="M208.4 208L208.4 328.4C208.4 346.6 218.7 363.2 234.9 371.3L272.4 390L272.4 207.9L208.4 207.9zM232.4 88C232.4 101.3 243.1 112 256.4 112C269.7 112 280.4 101.3 280.4 88C280.4 74.7 269.7 64 256.4 64C243.1 64 232.4 74.7 232.4 88z"/><path fill="currentColor" d="M280.4 88C280.4 74.7 269.7 64 256.4 64C243.1 64 232.4 74.7 232.4 88C232.4 101.3 243.1 112 256.4 112C269.7 112 280.4 101.3 280.4 88zM200.4 88C200.4 57.1 225.5 32 256.4 32C287.3 32 312.4 57.1 312.4 88C312.4 118.9 287.3 144 256.4 144C225.5 144 200.4 118.9 200.4 88zM176.4 236.2L128.4 293.8L128.4 384L96.4 384L96.4 282.2L100.1 277.8L180.1 181.8L184.9 176L296.2 176L301 182.2L413 326.2L422.8 338.8L397.5 358.4L387.7 345.8L304.3 238.6L304.3 406.1L367.2 437.5L368.2 446.1L384.2 582.1L386.1 598L354.3 601.7L352.4 585.8L337.4 458.4L281.4 430.4C281.2 430.3 281 430.2 280.8 430.1L220.6 400C193.5 386.4 176.4 358.7 176.4 328.4L176.4 236.1zM272.4 208L208.4 208L208.4 328.4C208.4 346.6 218.7 363.2 234.9 371.3L272.4 390L272.4 207.9zM203.2 445L232.1 459.5L223.6 485.1L222.6 488L220.6 490.4L132.6 594.4L122.3 606.6L97.9 585.9L108.2 573.7L194.2 472.1L203.2 445zM443.4 369.6L453.1 382.3L605.1 582.3L614.8 595L589.3 614.4L579.6 601.7L427.6 401.7L417.9 389L443.4 369.6z"/></svg>