<svg xmlns="http://www.w3.org/2000/svg" viewBox="0 0 640 640"><!--! Font Awesome Pro 7.2.0 by @fontawesome - https://fontawesome.com License - https://fontawesome.com/license (Commercial License) Copyright 2026 Fonticons, Inc. --><path opacity=".4" fill="currentColor" d="M128 128L200 128L200 192L128 192L128 128zM128 224L304 224L304 304L128 304L128 224zM128 336L200 336L200 416L128 416L128 336zM128 448L272 448C272 470.3 275.6 491.8 282.1 512L128 512L128 448zM232 128L408 128L408 192L232 192L232 128zM232 336L304.5 336C290.7 359.7 279.5 386.6 274.6 416L232 416L232 336zM336 224L409.3 224C387.2 239.6 360.1 262.8 336 291.6L336 224zM440 128L512 128L512 192L440 192L440 128z"/><path fill="currentColor" d="M232 128L232 192L408 192L408 128L232 128zM200 192L200 128L128 128L128 192L200 192zM128 224L128 304L304 304L304 224L128 224zM128 416L200 416L200 336L128 336L128 416zM128 448L128 512L282.1 512C285.7 523.1 290.2 533.8 295.5 544L96 544L96 96L544 96L544 256L512 256L512 224L336 224L336 291.6C334.1 293.8 332.3 296.1 330.5 298.4C321.4 309.8 312.6 322.4 304.6 336.1L232.1 336.1L232.1 416.1L274.7 416.1C273 426.4 272.1 437.1 272.1 447.9L272.1 448.1L128.1 448.1zM512 192L512 128L440 128L440 192L512 192zM448 256C478.7 286.7 500 308 512 320C529.3 302.7 540 292 544 288C620.8 352 640 421.3 640 448C640 536.4 568.4 608 480 608C391.6 608 320 536.4 320 448C320 358.4 405.3 282.7 448 256zM534.6 342.6L512 365.3C500.6 353.9 478.1 331.4 444.4 297.7C428.2 310.4 409.5 327.7 393 348.4C368.7 378.9 352 413.4 352 448.1C352 481.4 364.7 511.7 385.5 534.4C384.5 529.3 384 524 384 518.6C384 448.2 480 384.2 480 384.2C480 384.2 576 448.2 576 518.6C576 524 575.5 529.2 574.5 534.4C595.3 511.6 608 481.3 608 448.1C608 434 597 384.4 545 332.3L534.6 342.7zM480 576.2C517.5 576.2 544 548.4 544 518.6C544 496.7 528.1 471.1 505 447.3C496.2 438.3 487.4 430.4 480 424.3C472.6 430.4 463.8 438.2 455 447.3C431.9 471.1 416 496.8 416 518.6C416 548.4 442.5 576.2 480 576.2z"/></svg>