<svg xmlns="http://www.w3.org/2000/svg" viewBox="0 0 640 640"><!--! Font Awesome Pro 7.2.0 by @fontawesome - https://fontawesome.com License - https://fontawesome.com/license (Commercial License) Copyright 2026 Fonticons, Inc. --><path opacity=".4" fill="currentColor" d="M128 96L128 448L480 448C491.7 448 502.6 451.1 512 456.6L512 96L128 96zM195 208L275.8 208C299.1 171.1 313.8 147.8 320 138C326.2 147.8 340.9 171.1 364.2 208L445 208C436.2 221.9 422.8 243.2 404.6 272C422.8 300.8 436.3 322.1 445 336L364.2 336C340.9 372.9 326.2 396.2 320 406C313.8 396.2 299.1 372.9 275.8 336L195 336C203.8 322.1 217.2 300.8 235.4 272C217.2 243.2 203.7 221.9 195 208z"/><path fill="currentColor" d="M544 64L96 64L96 480L128 480L128 544L96 544L96 576L544 576L544 512L544 512L544 80L544 64zM480 480C497.7 480 512 494.3 512 512L512 544L160 544L160 480L480 480zM512 456.6C502.6 451.2 491.7 448 480 448L128 448L128 96L512 96L512 456.6zM333.5 159.5L320 138C313.8 147.8 299.1 171.1 275.8 208L195 208C203.8 221.9 217.2 243.2 235.4 272C217.2 300.8 203.7 322.1 195 336L275.8 336C299.1 372.9 313.8 396.2 320 406C326.2 396.2 340.9 372.9 364.2 336L445 336C436.2 322.1 422.8 300.8 404.6 272C422.8 243.2 436.3 221.9 445 208L364.2 208L333.5 159.5zM298.1 232.6L319.9 198L341.7 232.6L346.4 240.1L386.8 240.1C375.4 258.2 368.6 268.9 366.6 272.1C368.6 275.3 375.4 286 386.8 304.1L346.4 304.1L341.7 311.6L319.9 346.2C302.5 318.6 293.6 304.6 293.4 304.2L253 304C264.4 285.9 271.2 275.2 273.2 272C271.2 268.8 264.4 258.1 253 240L293.4 240L298.1 232.5z"/></svg>