<svg xmlns="http://www.w3.org/2000/svg" viewBox="0 0 640 640"><!--! Font Awesome Pro 7.2.0 by @fontawesome - https://fontawesome.com License - https://fontawesome.com/license (Commercial License) Copyright 2026 Fonticons, Inc. --><path opacity=".4" fill="currentColor" d="M128 96L128 456.6C137.4 451.2 148.3 448 160 448L512 448L512 96L128 96zM180.4 200C192.6 192.5 208.2 182.9 227.2 171.3C238.8 152.3 248.4 136.7 255.9 124.5C263.4 136.7 273 152.3 284.6 171.3C303.6 182.9 319.2 192.5 331.4 200C319.2 207.5 303.6 217.1 284.6 228.7C273 247.7 263.4 263.3 255.9 275.5C248.4 263.3 238.8 247.7 227.2 228.7C208.2 217.1 192.6 207.5 180.4 200zM280 312C292.9 304.5 314.9 291.8 345.8 273.9C363.7 243 376.4 221 383.9 208.1C391.4 221 404.1 243 422 273.9C452.9 291.8 474.9 304.5 487.8 312C474.9 319.5 452.9 332.2 422 350.1C404.1 381 391.4 403 383.9 415.9C376.4 403 363.7 381 345.8 350.1C314.9 332.2 292.9 319.5 280 312z"/><path fill="currentColor" d="M112 64L96 64L96 80L96 512L96 512L96 576L544 576L544 544L512 544L512 480L544 480L544 64L112 64zM480 480L480 544L128 544L128 512C128 494.3 142.3 480 160 480L480 480zM160 448C148.3 448 137.4 451.1 128 456.6L128 96L512 96L512 448L160 448zM384 208.1C376.5 221 363.8 243 345.9 273.9C315 291.8 293 304.5 280.1 312C293 319.5 315 332.2 345.9 350.1C363.8 381 376.5 403 384 415.9C391.5 403 404.2 381 422.1 350.1C453 332.2 475 319.5 487.9 312C475 304.5 453 291.8 422.1 273.9C404.2 243 391.5 221 384 208.1zM384 272L396.6 293.7L398.7 297.4L402.4 299.5L424.1 312.1L402.4 324.7L398.7 326.8L396.6 330.5L384 352.2L371.4 330.5L369.3 326.8L365.6 324.7L343.9 312.1L365.6 299.5L369.3 297.4L371.4 293.7L384 272zM268.3 144.5L256 124.4C248.5 136.6 238.9 152.2 227.3 171.2C208.3 182.8 192.7 192.4 180.5 199.9C192.7 207.4 208.3 217 227.3 228.6C238.9 247.6 248.5 263.2 256 275.4C263.5 263.2 273.1 247.6 284.7 228.6C303.7 217 319.3 207.4 331.5 199.9C319.3 192.4 303.7 182.8 284.7 171.2L268.3 144.5zM250 189.3L256 179.6C260.7 187.2 263.3 191.4 263.8 192.3C264.6 192.8 268.9 195.4 276.5 200.1C268.9 204.8 264.7 207.4 263.8 207.9C263.3 208.7 260.7 213 256 220.6C251.3 213 248.7 208.8 248.2 207.9C247.4 207.4 243.1 204.8 235.5 200.1C243.1 195.4 247.3 192.8 248.2 192.3L250 189.4z"/></svg>