<svg xmlns="http://www.w3.org/2000/svg" viewBox="0 0 640 640"><!--! Font Awesome Pro 7.2.0 by @fontawesome - https://fontawesome.com License - https://fontawesome.com/license (Commercial License) Copyright 2026 Fonticons, Inc. --><path opacity=".4" fill="currentColor" d="M128 96L128 456.6C137.4 451.2 148.3 448 160 448L512 448L512 96L128 96zM218.7 384L240 320L400 320L421.3 384L218.6 384zM384 224C384 259.3 355.3 288 320 288C284.7 288 256 259.3 256 224C256 188.7 284.7 160 320 160C355.3 160 384 188.7 384 224z"/><path fill="currentColor" d="M96 64L544 64L544 480L512 480L512 544L544 544L544 576L96 576L96 512L96 512L96 80L96 64zM160 480C142.3 480 128 494.3 128 512L128 544L480 544L480 480L160 480zM128 456.6C137.4 451.2 148.3 448 160 448L512 448L512 96L128 96L128 456.6zM352 224C352 206.3 337.7 192 320 192C302.3 192 288 206.3 288 224C288 241.7 302.3 256 320 256C337.7 256 352 241.7 352 224zM256 224C256 188.7 284.7 160 320 160C355.3 160 384 188.7 384 224C384 259.3 355.3 288 320 288C284.7 288 256 259.3 256 224zM263.1 352L252.4 384L218.7 384L240 320L400 320L421.3 384L387.6 384L376.9 352L263 352z"/></svg>