<svg xmlns="http://www.w3.org/2000/svg" viewBox="0 0 640 640"><!--! Font Awesome Pro 7.2.0 by @fontawesome - https://fontawesome.com License - https://fontawesome.com/license (Commercial License) Copyright 2026 Fonticons, Inc. --><path opacity=".4" fill="currentColor" d="M96.2 384C99.1 434.8 130 478.2 173.7 498.9L192 507.6L192 544L448 544L448 507.6L466.3 498.9C510 478.1 540.9 434.8 543.8 384L96.2 384zM384 288C384 293.5 384.6 298.8 385.6 304L542.4 304C543.4 298.8 544 293.5 544 288C544 243.8 508.2 208 464 208C419.8 208 384 243.8 384 288z"/><path fill="currentColor" d="M305.1 80C267.9 80 236 102.8 222.7 135.2L218 146.7L205.7 145C201.3 144.4 196.7 144 192.1 144C139.1 144 96.1 187 96.1 240C96.1 264.6 105.3 287 120.5 304L81.2 304C70.3 285.2 64.1 263.3 64.1 240C64.1 169.3 121.4 112 192.1 112C194.2 112 196.3 112 198.3 112.1C218.7 73.9 258.9 48 305.2 48C351.5 48 391.7 74 412.1 112.1C413.4 112.1 414.8 112 416.1 112C452.1 112 484.6 126.9 507.9 150.8C477.5 141.1 451.3 143.9 437.7 146.5C430.8 144.9 423.6 144.1 416.2 144.1C412.2 144.1 408.3 144.3 404.4 144.8L392.3 146.3L387.6 135.1C374.2 102.8 342.3 80.1 305.3 80.1zM464 208C419.8 208 384 243.8 384 288C384 293.5 384.6 298.8 385.6 304L353.1 304C352.4 298.8 352 293.4 352 288C352 226.1 402.1 176 464 176C525.9 176 576 226.1 576 288C576 293.4 575.6 298.8 574.9 304L542.4 304C543.4 298.8 544 293.5 544 288C544 243.8 508.2 208 464 208zM192 527.8L192 544L448 544L448 507.6L466.3 498.9C510 478.1 540.9 434.8 543.8 384L96.2 384C99.1 434.8 130 478.2 173.7 498.9L192 507.6L192 527.8zM160 527.8C105.5 501.9 67.2 447.6 64.2 384C64.1 381.4 64 378.7 64 376L64 352L576 352L576 376C576 378.7 575.9 381.4 575.8 384C572.8 447.6 534.5 501.9 480 527.8L480 576L160 576L160 527.8zM320 160L320 304L288 304L288 144L320 144L320 160zM171.3 196.7L251.3 276.7L262.6 288L240 310.6L228.7 299.3L148.7 219.3L137.4 208L160 185.4L171.3 196.7z"/></svg>