<svg xmlns="http://www.w3.org/2000/svg" viewBox="0 0 640 640"><!--! Font Awesome Pro 7.2.0 by @fontawesome - https://fontawesome.com License - https://fontawesome.com/license (Commercial License) Copyright 2026 Fonticons, Inc. --><path opacity=".4" fill="currentColor" d="M96 144C96 174.9 127 208 176 208L256 208L256 80L176 80C174.2 80 172.5 80 170.8 80.1C124.9 82.4 96 114.2 96 144zM97.9 320L99.5 347.3C103.7 418.3 146.1 478.5 206.1 508.2L223.9 517L223.9 544L415.9 544L415.9 517L433.7 508.2C493.8 478.5 536.2 418.3 540.3 347.3L541.9 320L97.8 320z"/><path fill="currentColor" d="M176 208C127 208 96 174.9 96 144C96 113.1 127 80 176 80L256 80L256 208L176 208zM176 48C114.1 48 64 91 64 144C64 197 114.1 240 176 240L288 240L288 160L576 160L576 128L288 128L288 48L176 48zM224 517L206.2 508.2C146.1 478.5 103.7 418.3 99.5 347.3L97.9 320L542 320L540.4 347.3C536.2 418.3 493.8 478.5 433.8 508.2L416 517L416 544L224 544L224 517zM65.9 320L67.6 349.2C72.5 432.1 122 502.2 192 536.9L192 576L448 576L448 536.9C518 502.3 567.5 432.1 572.4 349.2C573.5 330.2 574.7 309.8 576 288L64 288L65.9 320z"/></svg>