<svg xmlns="http://www.w3.org/2000/svg" viewBox="0 0 640 640"><!--! Font Awesome Pro 7.2.0 by @fontawesome - https://fontawesome.com License - https://fontawesome.com/license (Commercial License) Copyright 2026 Fonticons, Inc. --><path opacity=".4" fill="currentColor" d="M128 224L128 512L512 512L512 224L128 224zM135.3 192L304 192L304 112L192.5 112L135.3 192zM225.4 360L320 265.4L414.6 360L392 382.6L336 326.6L336 464L304 464L304 326.6L248 382.6L225.4 360zM336 112L336 192L504.7 192L447.5 112L336 112z"/><path fill="currentColor" d="M544 192L544 544L96 544L96 192L176 80L464 80L544 192zM128 512L512 512L512 224L128 224L128 512zM414.6 360L392 382.6L336 326.6L336 464L304 464L304 326.6L248 382.6L225.4 360L320 265.4L414.6 360zM135.3 192L304 192L304 112L192.5 112L135.3 192zM336 192L504.7 192L447.5 112L336 112L336 192z"/></svg>