<svg xmlns="http://www.w3.org/2000/svg" viewBox="0 0 640 640"><!--! Font Awesome Pro 7.2.0 by @fontawesome - https://fontawesome.com License - https://fontawesome.com/license (Commercial License) Copyright 2026 Fonticons, Inc. --><path opacity=".4" fill="currentColor" d="M96.1 224L288.2 224C315.2 280.8 373 320.1 440.1 320.1C453.9 320.1 467.3 318.4 480.1 315.3L480.1 512.1L96.1 512.1L96.1 224.1zM103.4 192L160.6 112L277 112C273.9 124.8 272.2 138.3 272.2 152.1C272.2 165.9 273.9 179.2 277 192L103.4 192zM193.5 376L288.1 470.6L382.7 376L360.1 353.4L304.1 409.4L304.1 272L272.1 272L272.1 409.4L216.1 353.4L193.5 376z"/><path fill="currentColor" d="M288.3 80C283.5 90.1 279.7 100.9 276.9 112L160.5 112L103.3 192L276.8 192C279.5 203.1 283.3 213.9 288.1 224L96 224L96 512L480 512L480 315.2C488.5 313.1 496.7 310.4 504.6 307.1L512 314.5L512 543.9L64 543.9L64 191.9L144 79.9L288.2 79.9zM304.1 409.4L360.1 353.4L382.7 376L288.1 470.6L193.5 376L216.1 353.4L272.1 409.4L272.1 272L304.1 272L304.1 409.4zM440.1 32.1C506.4 32.1 560.1 85.8 560.1 152.1C560.1 179.5 550.9 204.6 535.5 224.8L603.4 292.8L614.7 304.1L592.1 326.7L580.8 315.4L512.9 247.4C492.7 262.8 467.5 272.1 440.1 272.1C373.8 272.1 320.1 218.4 320.1 152.1C320.1 85.8 373.8 32.1 440.1 32.1zM440.1 64.1C391.5 64.1 352.1 103.5 352.1 152.1C352.1 200.7 391.5 240.1 440.1 240.1C488.7 240.1 528.1 200.7 528.1 152.1C528.1 103.5 488.7 64.1 440.1 64.1z"/></svg>