<svg xmlns="http://www.w3.org/2000/svg" viewBox="0 0 640 640"><!--! Font Awesome Pro 7.2.0 by @fontawesome - https://fontawesome.com License - https://fontawesome.com/license (Commercial License) Copyright 2026 Fonticons, Inc. --><path opacity=".4" fill="currentColor" d="M96 416L544 416L544 544L96 544L96 416zM213.3 185.4L337.4 61.3L442.7 166.6L321.3 288L315.8 288L213.3 185.4z"/><path fill="currentColor" d="M366.6 288L480 288L480 320L334.6 320L334.6 320L302.6 320L302.6 320L160 320L160 288L270.6 288C207.7 225.1 173.5 190.9 168 185.4L190.6 162.8L314.8 38.6L337.4 16C338.7 17.3 381.4 60 465.4 144L488 166.6C485.6 169 445.1 209.5 366.6 288zM321.3 288L442.7 166.6L337.4 61.3L213.3 185.4L315.8 288L321.3 288zM544 224L498.5 224C516.6 205.9 527.3 195.2 530.5 192L576 192L576 576L64 576L64 192L106.7 192L134.1 219.4L138.7 224L96 224L96 384L544 384L544 224zM96 416L96 544L544 544L544 416L96 416z"/></svg>