<svg xmlns="http://www.w3.org/2000/svg" viewBox="0 0 640 640"><!--! Font Awesome Pro 7.2.0 by @fontawesome - https://fontawesome.com License - https://fontawesome.com/license (Commercial License) Copyright 2026 Fonticons, Inc. --><path opacity=".4" fill="currentColor" d="M64 224L512 224L512 278C496.7 274.1 480.6 272 464 272C410.8 272 362.6 293.7 327.8 328.6C315.7 323.1 302.2 320 288 320C235 320 192 363 192 416L192 512L128 512L128 398.5C128 357.5 102 321.4 64 308L64 224z"/><path fill="currentColor" d="M48 96L32 96L32 128L80 128L80 192L32 192L32 332.5C41.5 334.9 46.7 336.2 47.5 336.4C76 343.5 96 369.1 96 398.5L96 544L224 544L224 416C224 380.7 252.7 352 288 352C294.3 352 300.4 352.9 306.2 354.6C312.7 345.3 319.9 336.6 327.9 328.6C315.8 323.1 302.3 320 288.1 320C235.1 320 192.1 363 192.1 416L192.1 512L128.1 512L128.1 398.5C128.1 357.5 102.1 321.4 64.1 308L64.1 224.1L512.1 224.1L512.1 278.1C523.2 281 533.9 284.8 544.1 289.5L544.1 192.1L496.1 192.1L496.1 128.1L544.1 128.1L544.1 96.1L48.1 96.1zM464 128L464 192L368 192L368 128L464 128zM336 128L336 192L240 192L240 128L336 128zM208 128L208 192L112 192L112 128L208 128zM352 464C352 402.1 402.1 352 464 352C525.9 352 576 402.1 576 464C576 525.9 525.9 576 464 576C402.1 576 352 525.9 352 464zM608 464C608 384.5 543.5 320 464 320C384.5 320 320 384.5 320 464C320 543.5 384.5 608 464 608C543.5 608 608 543.5 608 464zM480 384L448 384L448 480L480 480L480 384zM480 544L480 512L448 512L448 544L480 544z"/></svg>