<svg xmlns="http://www.w3.org/2000/svg" viewBox="0 0 640 640"><!--! Font Awesome Pro 7.2.0 by @fontawesome - https://fontawesome.com License - https://fontawesome.com/license (Commercial License) Copyright 2026 Fonticons, Inc. --><path opacity=".4" fill="currentColor" d="M96 224L96 307.9C134 321.3 160 357.4 160 398.4L160 511.9L224 511.9L224 415.9C224 362.9 267 319.9 320 319.9C373 319.9 416 362.9 416 415.9L416 511.9L480 511.9L480 398.4C480 357.4 506 321.3 544 307.9L544 224L96 224z"/><path fill="currentColor" d="M128 88C133.9 88 139.1 91.2 141.9 96L242.2 96C245 91.2 250.1 88 256.1 88C262.1 88 267.2 91.2 270 96L370.3 96C373.1 91.2 378.2 88 384.2 88C390.2 88 395.3 91.2 398.1 96L498.4 96C501.2 91.2 506.3 88 512.3 88C518.3 88 523.4 91.2 526.2 96L576.3 96L576.3 128L528.3 128L528.3 192L576.3 192L576.3 332.5C566.8 334.9 561.6 336.2 560.8 336.4C532.3 343.5 512.3 369.1 512.3 398.5L512.3 544L384.3 544L384.3 416C384.3 380.7 355.6 352 320.3 352C285 352 256.3 380.7 256.3 416L256.3 544L128.3 544L128.3 398.5C128.3 369.1 108.3 343.5 79.8 336.4C79 336.2 73.8 334.9 64.3 332.5L64.3 192L112.3 192L112.3 128L64.3 128L64.3 96L114.4 96C117.2 91.2 122.3 88 128.3 88zM496 192L496 128L400 128L400 192L496 192zM272 128L272 192L368 192L368 128L272 128zM240 192L240 128L144 128L144 192L240 192zM128 224L96 224L96 307.9C134 321.3 160 357.4 160 398.4L160 511.9L224 511.9L224 415.9C224 362.9 267 319.9 320 319.9C373 319.9 416 362.9 416 415.9L416 511.9L480 511.9L480 398.4C480 357.4 506 321.3 544 307.9L544 224L128 224z"/></svg>