<svg xmlns="http://www.w3.org/2000/svg" viewBox="0 0 640 640"><!--! Font Awesome Pro 7.2.0 by @fontawesome - https://fontawesome.com License - https://fontawesome.com/license (Commercial License) Copyright 2026 Fonticons, Inc. --><path opacity=".4" fill="currentColor" d="M192 192L192 289.4L289.4 192L192 192zM192 334.6L192 425.3L425.4 191.9L334.7 191.9L192.1 334.5zM214.6 448L305.3 448L447.9 305.4L447.9 214.7L214.5 448.1zM350.6 448L448 448L448 350.6L350.6 448z"/><path fill="currentColor" d="M224 64L64 64L64 224L112 224L112 256L32 256L32 32L256 32L256 112L224 112L224 64zM384 528L416 528L416 576L576 576L576 416L528 416L528 384L608 384L608 608L384 608L384 528zM334.6 192L192 334.6L192 425.3L425.4 191.9L334.7 191.9zM289.3 192L191.9 192L191.9 289.4L289.3 192zM328 160L480 160L480 480L160 480L160 160L328 160zM350.6 448L448 448L448 350.6L350.6 448zM448 305.4L448 214.7L214.6 448.1L305.3 448.1L447.9 305.5z"/></svg>