<svg xmlns="http://www.w3.org/2000/svg" viewBox="0 0 640 640"><!--! Font Awesome Pro 7.2.0 by @fontawesome - https://fontawesome.com License - https://fontawesome.com/license (Commercial License) Copyright 2026 Fonticons, Inc. --><path opacity=".4" fill="currentColor" d="M256 160C298.7 160 341.3 160 384 160C384 124.7 355.3 96 320 96C284.7 96 256 124.7 256 160zM294.7 272L447.7 425C447.9 422 448 419 448 416L448 272L294.7 272z"/><path fill="currentColor" d="M56.2 33.5L67.5 44.8L262.7 240L448 240L550.4 163.2L563.2 153.6L582.4 179.2L569.6 188.8L480 256L480 336L608 336L608 368L480 368L480 416C480 428.7 478.5 441.1 475.7 453L595.3 572.6L606.6 583.9L584 606.5L572.7 595.2L44.9 67.4L33.6 56.1L56.2 33.5zM447.7 425C447.9 422 448 419 448 416L448 272L294.7 272L447.7 425zM160 250.5L192 282.5L192 416C192 481.3 240.9 535.1 304 543L304 394.5L336 426.5L336 543C366.3 539.2 393.3 524.8 413.2 503.7L435.8 526.3C406.7 556.9 365.5 575.9 320 575.9C253.8 575.9 197 535.7 172.7 478.4L89.6 540.7L76.8 550.3L57.6 524.7L70.4 515.1L162.8 445.8C161 436.1 160 426.1 160 415.9L160 367.9L32 367.9L32 335.9L160 335.9L160 250.4zM384 160C384 124.7 355.3 96 320 96C284.7 96 256 124.7 256 160L384 160zM224 160C224 107 267 64 320 64C373 64 416 107 416 160L416 192L224 192L224 160z"/></svg>