<svg xmlns="http://www.w3.org/2000/svg" viewBox="0 0 640 640"><!--! Font Awesome Pro 7.2.0 by @fontawesome - https://fontawesome.com License - https://fontawesome.com/license (Commercial License) Copyright 2026 Fonticons, Inc. --><path opacity=".4" fill="currentColor" d="M96 96L416 96L416 278C385.8 285.8 358.5 300.7 336 320.8L336 287.9L288 287.9L288 335.9L320.9 335.9C300.7 358.4 285.8 385.7 278.1 415.9L192.1 415.9L192.1 543.9L96.1 543.9L96.1 95.9zM176 176L176 224L224 224L224 176L176 176zM176 288L176 336L224 336L224 288L176 288zM288 176L288 224L336 224L336 176L288 176z"/><path fill="currentColor" d="M416 96L96 96L96 544L192 544L192 416L278 416C275.3 426.4 273.5 437 272.6 448L223.9 448L223.9 544L289.3 544C294.5 555.3 300.7 566 307.9 576L63.9 576L63.9 64L447.9 64L447.9 272.7C436.9 273.6 426.3 275.4 415.9 278.1L415.9 96.1zM336 320.9C330.7 325.7 325.6 330.7 320.9 336L288 336L288 288L336 288L336 320.9zM336 176L336 224L288 224L288 176L336 176zM224 176L224 224L176 224L176 176L224 176zM176 288L224 288L224 336L176 336L176 288zM464 576C525.9 576 576 525.9 576 464C576 402.1 525.9 352 464 352C402.1 352 352 402.1 352 464C352 525.9 402.1 576 464 576zM464 320C543.5 320 608 384.5 608 464C608 543.5 543.5 608 464 608C384.5 608 320 543.5 320 464C320 384.5 384.5 320 464 320zM472 385.4L483.3 396.7L539.3 452.7L550.6 464L539.3 475.3L483.3 531.3L472 542.6L449.4 520C454 515.4 467.4 502 489.4 480L384 480L384 448L489.4 448C467.4 426 454 412.6 449.4 408L472 385.4z"/></svg>