<svg xmlns="http://www.w3.org/2000/svg" viewBox="0 0 640 640"><!--! Font Awesome Pro 7.2.0 by @fontawesome - https://fontawesome.com License - https://fontawesome.com/license (Commercial License) Copyright 2026 Fonticons, Inc. --><path opacity=".4" fill="currentColor" d="M197.4 436.3L212.7 352L427.5 352L442.8 436.3C441.9 435.9 441 435.6 440.1 435.2L416.3 444.7L320.1 483.2L223.9 444.7L200.1 435.2C199.2 435.6 198.3 435.9 197.4 436.3zM218.5 320L253.4 128L386.7 128L421.6 320L218.5 320z"/><path fill="currentColor" d="M452.4 489L573.4 534.9L625.4 515.4L636.6 545.4L621.6 551L578.9 567L573.2 569.1L567.5 567L446.5 521.2L325.5 567L319.8 569.2L314.1 567L193.1 521.2L72.1 567L66.4 569.1L60.8 567L18.1 551L3.1 545.4L14.4 515.4C20.7 517.8 38 524.3 66.4 534.9L187.4 489L193.1 486.8L198.8 489L319.8 534.8L440.8 489L446.5 486.8L452.2 489zM336.1 96L413.4 96L415.8 109.1L477.8 450.3C469.6 447 457.9 442.4 442.7 436.3L427.4 352L212.6 352L197.3 436.3C182.1 442.4 170.4 447.1 162.2 450.3L224.2 109.1L226.6 96L303.9 96L303.9 64L335.9 64L335.9 96zM218.5 320L421.6 320L386.7 128L253.4 128L218.5 320z"/></svg>