<svg xmlns="http://www.w3.org/2000/svg" viewBox="0 0 640 640"><!--! Font Awesome Pro 7.2.0 by @fontawesome - https://fontawesome.com License - https://fontawesome.com/license (Commercial License) Copyright 2026 Fonticons, Inc. --><path opacity=".4" fill="currentColor" d="M128 246L128 272L512 272L512 246C510.7 242.9 508.6 238.3 505.6 232.7C499.4 221.1 489.4 205.6 474.8 190C446 159.5 398.1 128 320.1 128C242.1 128 194.1 159.5 165.3 190C150.6 205.5 140.7 221.1 134.5 232.7C131.5 238.3 129.4 242.9 128.1 246zM128 464L128 512L512 512L512 464L451.4 464C430.8 477.8 408.3 492.7 384 508.9C359.7 492.7 337.3 477.7 316.6 464L128 464zM244 208C244 219 235 228 224 228C213 228 204 219 204 208C204 197 213 188 224 188C235 188 244 197 244 208zM340 176C340 187 331 196 320 196C309 196 300 187 300 176C300 165 309 156 320 156C331 156 340 165 340 176zM436 208C436 219 427 228 416 228C405 228 396 219 396 208C396 197 405 188 416 188C427 188 436 197 436 208z"/><path fill="currentColor" d="M128 512L512 512L512 464L451.4 464L499.4 432L544 432L544 544L96 544L96 432L268.6 432L316.6 464L128 464L128 512zM128 304L96 304L96 240C96 240 144 96 320 96C496 96 544 240 544 240L544 304L128 304zM134.4 232.6C131.4 238.2 129.3 242.8 128 245.9L128 271.9L512 271.9L512 245.9C510.7 242.8 508.6 238.2 505.6 232.6C499.4 221 489.4 205.5 474.8 189.9C446 159.4 398.1 127.9 320.1 127.9C242.1 127.9 194.1 159.5 165.3 190C150.6 205.5 140.7 221.1 134.5 232.7zM320 156C331 156 340 165 340 176C340 187 331 196 320 196C309 196 300 187 300 176C300 165 309 156 320 156zM204 208C204 197 213 188 224 188C235 188 244 197 244 208C244 219 235 228 224 228C213 228 204 219 204 208zM416 188C427 188 436 197 436 208C436 219 427 228 416 228C405 228 396 219 396 208C396 197 405 188 416 188zM96 352L292.8 352L296.8 354.7L383.9 412.8L471 354.7L475 352L559.8 352L559.8 384L484.6 384L392.6 445.3L383.7 451.2L374.8 445.3L282.8 384L79.6 384L79.6 352L95.6 352z"/></svg>