<svg xmlns="http://www.w3.org/2000/svg" viewBox="0 0 640 640"><!--! Font Awesome Pro 7.2.0 by @fontawesome - https://fontawesome.com License - https://fontawesome.com/license (Commercial License) Copyright 2026 Fonticons, Inc. --><path opacity=".4" fill="currentColor" d="M128 96L128 160L512 160L512 96L128 96zM128 352L128 480L512 480L512 352L128 352zM216 416C216 429.3 205.3 440 192 440C178.7 440 168 429.3 168 416C168 402.7 178.7 392 192 392C205.3 392 216 402.7 216 416zM472 416C472 429.3 461.3 440 448 440C434.7 440 424 429.3 424 416C424 402.7 434.7 392 448 392C461.3 392 472 402.7 472 416z"/><path fill="currentColor" d="M128 96L128 160L512 160L512 96L128 96zM128 192L128 320L512 320L512 192L128 192zM512 352L128 352L128 480L512 480L512 352zM96 320L96 64L544 64L544 512L512 512L512 576L480 576L480 512L160 512L160 576L128 576L128 512L96 512L96 320zM168 416C168 402.7 178.7 392 192 392C205.3 392 216 402.7 216 416C216 429.3 205.3 440 192 440C178.7 440 168 429.3 168 416zM448 392C461.3 392 472 402.7 472 416C472 429.3 461.3 440 448 440C434.7 440 424 429.3 424 416C424 402.7 434.7 392 448 392z"/></svg>