<svg xmlns="http://www.w3.org/2000/svg" viewBox="0 0 640 640"><!--! Font Awesome Pro 7.2.0 by @fontawesome - https://fontawesome.com License - https://fontawesome.com/license (Commercial License) Copyright 2026 Fonticons, Inc. --><path opacity=".4" fill="currentColor" d="M64 320L64 448L320 448L320 320L64 320zM160 384C160 397.3 149.3 408 136 408C122.7 408 112 397.3 112 384C112 370.7 122.7 360 136 360C149.3 360 160 370.7 160 384zM272 384C272 397.3 261.3 408 248 408C234.7 408 224 397.3 224 384C224 370.7 234.7 360 248 360C261.3 360 272 370.7 272 384zM432 176C432 220.2 467.8 256 512 256C556.2 256 592 220.2 592 176C592 131.8 556.2 96 512 96C467.8 96 432 131.8 432 176z"/><path fill="currentColor" d="M352 480L320 480L320 544L288 544L288 480L96 480L96 544L64 544L64 480L32 480L32 128L352 128L352 480zM512 64C573.9 64 624 114.1 624 176C624 232.4 582.3 279.1 528 286.8L528 544L496 544L496 286.8C441.7 279 400 232.4 400 176C400 114.1 450.1 64 512 64zM64 448L320 448L320 320L64 320L64 448zM136 408C122.7 408 112 397.3 112 384C112 370.7 122.7 360 136 360C149.3 360 160 370.7 160 384C160 397.3 149.3 408 136 408zM248 408C234.7 408 224 397.3 224 384C224 370.7 234.7 360 248 360C261.3 360 272 370.7 272 384C272 397.3 261.3 408 248 408zM64 288L320 288L320 160L64 160L64 288zM512 96C467.8 96 432 131.8 432 176C432 220.2 467.8 256 512 256C556.2 256 592 220.2 592 176C592 131.8 556.2 96 512 96z"/></svg>