<svg xmlns="http://www.w3.org/2000/svg" viewBox="0 0 640 640"><!--! Font Awesome Pro 7.2.0 by @fontawesome - https://fontawesome.com License - https://fontawesome.com/license (Commercial License) Copyright 2026 Fonticons, Inc. --><path opacity=".4" fill="currentColor" d="M96 272L96 288L544 288L544 272L320 96L96 272zM464 128L464 168.4L512 206.1L512 127.9L464 127.9z"/><path fill="currentColor" d="M320 96L96 272L96 288L544 288L544 272L320 96zM576 256.4L576 320L64 320L64 256.4L76.2 246.8L300.2 70.8L320 55.3C321.1 56.2 358.4 85.5 432 143.3L432 96L544 96L544 231.3C558.4 242.6 569.1 251 576 256.4zM512 206.1L512 127.9L464 127.9L464 168.3L512 206zM112 416L256 416L256 448L112 448L112 416zM144 480L528 480L528 512L112 512L112 480L144 480zM112 352L256 352L256 384L112 384L112 352zM416 416L528 416L528 448L384 448L384 416L416 416zM416 352L528 352L528 384L384 384L384 352L416 352zM112 544L528 544L528 576L112 576L112 544z"/></svg>