<svg xmlns="http://www.w3.org/2000/svg" viewBox="0 0 640 640"><!--! Font Awesome Pro 7.2.0 by @fontawesome - https://fontawesome.com License - https://fontawesome.com/license (Commercial License) Copyright 2026 Fonticons, Inc. --><path opacity=".4" fill="currentColor" d="M160 224L160 544L480 544L480 224L160 224zM192 464L352 464L352 496L192 496L192 464zM248 288C248 301.3 237.3 312 224 312C210.7 312 200 301.3 200 288C200 274.7 210.7 264 224 264C237.3 264 248 274.7 248 288zM248 384C248 397.3 237.3 408 224 408C210.7 408 200 397.3 200 384C200 370.7 210.7 360 224 360C237.3 360 248 370.7 248 384zM344 288C344 301.3 333.3 312 320 312C306.7 312 296 301.3 296 288C296 274.7 306.7 264 320 264C333.3 264 344 274.7 344 288zM344 384C344 397.3 333.3 408 320 408C306.7 408 296 397.3 296 384C296 370.7 306.7 360 320 360C333.3 360 344 370.7 344 384zM440 288C440 301.3 429.3 312 416 312C402.7 312 392 301.3 392 288C392 274.7 402.7 264 416 264C429.3 264 440 274.7 440 288zM440 384C440 397.3 429.3 408 416 408C402.7 408 392 397.3 392 384C392 370.7 402.7 360 416 360C429.3 360 440 370.7 440 384zM392 480C392 466.7 402.7 456 416 456C429.3 456 440 466.7 440 480C440 493.3 429.3 504 416 504C402.7 504 392 493.3 392 480z"/><path fill="currentColor" d="M480 224L480 544L160 544L160 224L480 224zM480 192L160 192L160 96L480 96L480 192zM512 192L512 64L128 64L128 576L512 576L512 192zM200 288C200 301.3 210.7 312 224 312C237.3 312 248 301.3 248 288C248 274.7 237.3 264 224 264C210.7 264 200 274.7 200 288zM224 360C210.7 360 200 370.7 200 384C200 397.3 210.7 408 224 408C237.3 408 248 397.3 248 384C248 370.7 237.3 360 224 360zM296 288C296 301.3 306.7 312 320 312C333.3 312 344 301.3 344 288C344 274.7 333.3 264 320 264C306.7 264 296 274.7 296 288zM320 360C306.7 360 296 370.7 296 384C296 397.3 306.7 408 320 408C333.3 408 344 397.3 344 384C344 370.7 333.3 360 320 360zM392 288C392 301.3 402.7 312 416 312C429.3 312 440 301.3 440 288C440 274.7 429.3 264 416 264C402.7 264 392 274.7 392 288zM416 360C402.7 360 392 370.7 392 384C392 397.3 402.7 408 416 408C429.3 408 440 397.3 440 384C440 370.7 429.3 360 416 360zM392 480C392 493.3 402.7 504 416 504C429.3 504 440 493.3 440 480C440 466.7 429.3 456 416 456C402.7 456 392 466.7 392 480zM336 464L192 464L192 496L352 496L352 464L336 464z"/></svg>