<svg xmlns="http://www.w3.org/2000/svg" viewBox="0 0 640 640"><!--! Font Awesome Pro 7.2.0 by @fontawesome - https://fontawesome.com License - https://fontawesome.com/license (Commercial License) Copyright 2026 Fonticons, Inc. --><path opacity=".4" fill="currentColor" d="M96 192L211.8 192C215.3 185 226 163.6 243.8 128L396.2 128C414 163.6 424.7 185 428.2 192L544 192L544 278C528.7 274.1 512.6 272 496 272C466.5 272 438.6 278.6 413.6 290.5C393.6 260.1 359.1 240 320 240C258.1 240 208 290.1 208 352C208 408.4 249.7 455.1 304 462.9C304 463.3 304 463.7 304 464C304 480.6 306.1 496.7 310 512L96 512L96 192z"/><path fill="currentColor" d="M224 96L416 96L448 160L576 160L576 289.4C565.8 284.7 555.1 280.9 544 278L544 192L428.2 192C424.7 185 414 163.6 396.2 128L243.8 128C226 163.6 215.3 185 211.8 192L96 192L96 512L310 512C312.9 523.1 316.7 533.8 321.4 544L64 544L64 160L192 160L224 96zM320 240C359.1 240 393.6 260.1 413.6 290.5C403.9 295.1 394.6 300.5 385.9 306.7C371.5 285.8 347.3 272 320 272C275.8 272 240 307.8 240 352C240 391.7 268.9 424.6 306.8 430.9C305 441.3 304 452 304 462.8C249.7 455 208 408.4 208 351.9C208 290 258.1 239.9 320 239.9zM496 352C434.1 352 384 402.1 384 464C384 525.9 434.1 576 496 576C557.9 576 608 525.9 608 464C608 402.1 557.9 352 496 352zM496 608C416.5 608 352 543.5 352 464C352 384.5 416.5 320 496 320C575.5 320 640 384.5 640 464C640 543.5 575.5 608 496 608zM544 480L544 448L576 448L576 480L544 480zM448 480L416 480L416 448L448 448L448 480zM480 480L480 448L512 448L512 480L480 480z"/></svg>