<svg xmlns="http://www.w3.org/2000/svg" viewBox="0 0 640 640"><!--! Font Awesome Pro 7.2.0 by @fontawesome - https://fontawesome.com License - https://fontawesome.com/license (Commercial License) Copyright 2026 Fonticons, Inc. --><path opacity=".4" fill="currentColor" d="M96 192L96 512L544 512L544 192L428.2 192C424.7 185 414 163.6 396.2 128L243.8 128C226 163.6 215.3 185 211.8 192L96 192zM153.4 342.3L177.7 321.5C183.1 327.8 193.2 339.5 208 356.8L208 336.1C208 274.2 258.1 224.1 320 224.1C333.9 224.1 347.3 226.6 359.6 231.3L336.1 257.7C330.9 256.6 325.5 256.1 320 256.1C275.8 256.1 240 291.9 240 336.1L240 356.8C254.8 339.5 264.9 327.8 270.3 321.5L294.6 342.3C293.9 343.1 274.4 365.8 236.2 410.4L224 424.6C221.9 422.1 201.8 398.7 163.9 354.4L153.4 342.3zM280.4 440.8L303.9 414.4C309.1 415.5 314.5 416 320 416C364.2 416 400 380.2 400 336L400 315.3C385.2 332.6 375.1 344.3 369.7 350.6L345.4 329.8C346.1 329 365.6 306.3 403.8 261.7L416 247.4C418.1 249.9 438.2 273.3 476.1 317.6L486.5 329.7L462.2 350.5C456.8 344.2 446.7 332.5 431.9 315.2L431.9 335.9C431.9 397.8 381.8 447.9 319.9 447.9C306 447.9 292.6 445.4 280.3 440.7z"/><path fill="currentColor" d="M416 96L224 96L192 160L64 160L64 544L576 544L576 160L448 160L416 96zM544 192L544 512L96 512L96 192L211.8 192C215.3 185 226 163.6 243.8 128L396.2 128C414 163.6 424.7 185 428.2 192L544 192zM177.7 321.4L153.4 342.3C154.1 343.1 173.5 365.8 211.8 410.4L224 424.6C226.1 422.1 246.2 398.7 284.1 354.4L294.5 342.3L270.2 321.5C264.8 327.8 254.7 339.5 239.9 356.8L239.9 336.1C239.9 291.9 275.7 256.1 319.9 256.1C325.4 256.1 330.8 256.7 336 257.7L359.5 231.3C347.2 226.6 333.8 224.1 319.9 224.1C258 224.1 207.9 274.2 207.9 336.1L207.9 356.8C193.1 339.5 183 327.8 177.6 321.5zM380.1 338.4L400 315.2L400 335.9C400 380.1 364.2 415.9 320 415.9C314.5 415.9 309.1 415.3 303.9 414.3L280.4 440.7C292.7 445.4 306.1 447.9 320 447.9C381.9 447.9 432 397.8 432 335.9L432 315.2C446.8 332.5 456.9 344.2 462.3 350.5L486.6 329.7C485.9 328.9 466.5 306.2 428.2 261.6L416 247.4C413.9 249.9 393.8 273.3 355.9 317.6L345.5 329.7L369.8 350.5L380.2 338.4z"/></svg>