<svg xmlns="http://www.w3.org/2000/svg" viewBox="0 0 640 640"><!--! Font Awesome Pro 7.2.0 by @fontawesome - https://fontawesome.com License - https://fontawesome.com/license (Commercial License) Copyright 2026 Fonticons, Inc. --><path opacity=".4" fill="currentColor" d="M96 320C96 443.7 196.3 544 320 544C443.7 544 544 443.7 544 320C544 196.3 443.7 96 320 96C196.3 96 96 196.3 96 320zM216 320C219.9 316.8 262.9 282 344.9 215.7L352 208L354.4 208L384 184L384 456L354.3 432L352 432L344.9 424.3C262.9 358 219.9 323.2 216 320z"/><path fill="currentColor" d="M96 320C96 196.3 196.3 96 320 96C443.7 96 544 196.3 544 320C544 443.7 443.7 544 320 544C196.3 544 96 443.7 96 320zM576 320C576 178.6 461.4 64 320 64C178.6 64 64 178.6 64 320C64 461.4 178.6 576 320 576C461.4 576 576 461.4 576 320zM384 456L384 184C375.8 190.7 328.2 229.1 241.4 299.4L216 320C218.8 322.2 264.1 358.9 352 430.1L384 456zM266.9 320L352 251.1L352 388.9L266.9 320z"/></svg>