<svg xmlns="http://www.w3.org/2000/svg" viewBox="0 0 640 640"><!--! Font Awesome Pro 7.2.0 by @fontawesome - https://fontawesome.com License - https://fontawesome.com/license (Commercial License) Copyright 2026 Fonticons, Inc. --><path opacity=".4" fill="currentColor" d="M128 128L128 512L512 512L512 128L128 128zM256 184L285.7 208L288 208L295.1 215.7C377.1 282.1 420 316.8 424 320C420.1 323.2 377.1 358 295.1 424.3L288 432L285.6 432L256 456L256 184z"/><path fill="currentColor" d="M512 128L128 128L128 512L512 512L512 128zM544 96L544 544L96 544L96 96L544 96zM256 184C264.2 190.7 311.8 229.1 398.6 299.4L424 320C421.2 322.2 375.9 358.9 288 430.1L256 456L256 184zM373.1 320L288 251.1L288 388.9L373.1 320z"/></svg>