<svg xmlns="http://www.w3.org/2000/svg" viewBox="0 0 640 640"><!--! Font Awesome Pro 7.2.0 by @fontawesome - https://fontawesome.com License - https://fontawesome.com/license (Commercial License) Copyright 2026 Fonticons, Inc. --><path opacity=".4" fill="currentColor" d=""/><path fill="currentColor" d="M352.1 64L352.1 128.2C411.6 130.6 464.2 160.2 497.7 204.8L472.1 224C444.4 187.1 401.1 162.6 352.1 160.2L352.1 479.8C401.1 477.4 444.4 452.9 472.1 416L497.7 435.2C464.2 479.8 411.6 509.4 352.1 511.8L352.1 576L320.1 576L320.1 510.5C225.4 498.7 152.1 417.9 152.1 320C152.1 222.1 225.4 141.3 320.1 129.5L320.1 64L352.1 64zM184.1 320C184.1 400.2 243.1 466.6 320.1 478.2L320.1 161.8C243.1 173.4 184.1 239.8 184.1 320z"/></svg>