<svg xmlns="http://www.w3.org/2000/svg" viewBox="0 0 640 640"><!--! Font Awesome Pro 7.2.0 by @fontawesome - https://fontawesome.com License - https://fontawesome.com/license (Commercial License) Copyright 2026 Fonticons, Inc. --><path opacity=".4" fill="currentColor" d="M224.3 267.2C226 302.4 233.6 331.8 248.5 352C262.7 371.3 284.7 384 320 384C355.3 384 377.3 371.3 391.5 352C406.4 331.8 414 302.4 415.7 267.2C416.4 253.3 416.1 238.7 415 224L225 224C223.9 238.8 223.7 253.3 224.3 267.2z"/><path fill="currentColor" d="M236.4 32L403.5 32L407.3 42.6C428.7 102.2 451.2 192.4 447.5 268.8C445.7 306.9 437.3 343.6 417.1 371C398.9 395.8 372 411.7 335.9 415.2L335.9 576L415.9 576L415.9 608L223.9 608L223.9 576L303.9 576L303.9 415.2C267.9 411.7 241 395.8 222.8 371C202.6 343.5 194.2 306.9 192.4 268.8C188.8 192.4 211.2 102.2 232.6 42.6L236.4 32zM225 224C223.9 238.8 223.7 253.3 224.3 267.2C226 302.4 233.6 331.8 248.5 352C262.7 371.3 284.7 384 320 384C355.3 384 377.3 371.3 391.5 352C406.4 331.8 414 302.4 415.7 267.2C416.4 253.3 416.1 238.7 415 224L225 224zM228.4 192L411.6 192C405.4 146.4 393.4 100.6 381 64L259 64C246.6 100.6 234.6 146.4 228.4 192z"/></svg>