<svg xmlns="http://www.w3.org/2000/svg" viewBox="0 0 640 640"><!--! Font Awesome Pro 7.2.0 by @fontawesome - https://fontawesome.com License - https://fontawesome.com/license (Commercial License) Copyright 2026 Fonticons, Inc. --><path opacity=".4" fill="currentColor" d="M96 160L96 264L240 264L240 160L96 160zM96 376L96 480L240 480L240 376L96 376zM352 160L352 192L544 192L544 160L352 160zM352 304L352 336L544 336L544 304L352 304zM352 448L352 480L544 480L544 448L352 448z"/><path fill="currentColor" d="M240 160L240 264L96 264L96 160L240 160zM96 128L64 128L64 296L272 296L272 128L96 128zM240 376L240 480L96 480L96 376L240 376zM96 344L64 344L64 512L272 512L272 344L96 344zM352 160L544 160L544 192L352 192L352 160zM320 128L320 224L576 224L576 128L320 128zM544 304L544 336L352 336L352 304L544 304zM352 272L320 272L320 368L576 368L576 272L352 272zM352 448L544 448L544 480L352 480L352 448zM320 416L320 512L576 512L576 416L320 416z"/></svg>