<svg xmlns="http://www.w3.org/2000/svg" viewBox="0 0 640 640"><!--! Font Awesome Pro 7.2.0 by @fontawesome - https://fontawesome.com License - https://fontawesome.com/license (Commercial License) Copyright 2026 Fonticons, Inc. --><path opacity=".4" fill="currentColor" d="M96.5 336C96.5 450.9 189.6 544 304.5 544C338.8 544 371.2 535.7 399.7 521L269.4 363.7C266 359.6 261.7 354.4 256.5 348.2L256.5 133.6C164.8 155.2 96.5 237.6 96.5 336z"/><path fill="currentColor" d="M288.5 336.6L288.5 96.5C277.6 97.2 266.9 98.7 256.5 100.8C147 123 64.5 219.9 64.5 336C64.5 468.5 172 576 304.5 576C346.6 576 386.1 565.2 420.5 546.1C429.9 540.9 439 535 447.6 528.6L427.2 503.9L294.1 343.2L288.6 336.5zM399.7 521C371.2 535.7 338.8 544 304.5 544C189.6 544 96.5 450.9 96.5 336C96.5 237.6 164.8 155.2 256.5 133.6L256.5 348.2C261.7 354.5 266 359.7 269.4 363.7L399.7 521zM390 384L510.6 529.4C518.1 523.9 525.2 518 532 511.7C533 510.7 534.1 509.8 535.1 508.8C569.4 475.7 593.9 432.5 603.8 384C605.9 373.6 607.4 362.9 608.1 352L363.7 352L363.7 352L390.2 384zM431.6 384L570.9 384C561.8 422.6 541.9 457.1 514.5 484.1L431.6 384zM574.4 272C560.1 165 475.4 80.4 368.5 66.1C358 64.7 347.3 64 336.5 64L336.5 304L576.5 304C576.5 293.2 575.8 282.5 574.4 272zM542 272L368.4 272L368.4 98.4C457.7 112.2 528.2 182.7 542 272z"/></svg>