<svg xmlns="http://www.w3.org/2000/svg" viewBox="0 0 640 640"><!--! Font Awesome Pro 7.2.0 by @fontawesome - https://fontawesome.com License - https://fontawesome.com/license (Commercial License) Copyright 2026 Fonticons, Inc. --><path opacity=".4" fill="currentColor" d="M128 96L304 96L304 192L128 192L128 96zM128 224L304 224L304 320L128 320L128 224zM128 352L512 352L512 512L128 512L128 352zM272 416L272 448L368 448L368 416L272 416zM336 96L512 96L512 192L336 192L336 96zM336 224L512 224L512 320L336 320L336 224z"/><path fill="currentColor" d="M544 576L512 576L512 544L128 544L128 576L96 576L96 64L544 64L544 576zM128 352L128 512L512 512L512 352L128 352zM368 448L272 448L272 416L368 416L368 448zM128 320L304 320L304 224L128 224L128 320zM336 320L512 320L512 224L336 224L336 320zM128 192L304 192L304 96L128 96L128 192zM336 192L512 192L512 96L336 96L336 192z"/></svg>