<svg xmlns="http://www.w3.org/2000/svg" viewBox="0 0 640 640"><!--! Font Awesome Pro 7.2.0 by @fontawesome - https://fontawesome.com License - https://fontawesome.com/license (Commercial License) Copyright 2026 Fonticons, Inc. --><path opacity=".4" fill="currentColor" d="M192 525.3L192 544L448 544L448 525.3L393.4 470.7L386.7 464.1L253.3 464.1L246.6 470.7L192 525.3zM201.6 152.9L267.8 272L372.4 272L438.5 152.9C414.5 157.7 398.2 161 389.6 162.7C382.1 155.2 372.9 145.9 361.8 134.9L320 155.8L278.3 134.9C267.2 146 258 155.2 250.5 162.7C241.8 161 225.5 157.7 201.5 152.9zM257.8 432L382.3 432L369.5 304L270.6 304L257.8 432z"/><path fill="currentColor" d="M400 128L480 112L480 144L408.9 272L424 272L424 304L401.6 304L416 448L480 512L480 576L160 576L160 512L224 448L238.4 304L216 304L216 272L231.1 272L160 144L160 112L240 128L272 96L320 120L368 96L400 128zM253.3 464L246.6 470.6L192 525.2L192 543.9L448 543.9L448 525.2L393.4 470.6L386.7 464L253.3 464zM257.8 432L382.3 432L369.5 304L270.6 304L257.8 432zM320 155.8L278.3 134.9C267.2 146 258 155.2 250.5 162.7C241.8 161 225.5 157.7 201.5 152.9L267.7 272L372.3 272L438.4 152.9C414.4 157.7 398.1 161 389.5 162.7C382 155.2 372.8 145.9 361.7 134.9L320 155.8zM320 32C334.9 32 347 44.1 347 59C347 73.9 334.9 86 320 86C305.1 86 293 73.9 293 59C293 44.1 305.1 32 320 32z"/></svg>