<svg xmlns="http://www.w3.org/2000/svg" viewBox="0 0 640 640"><!--! Font Awesome Pro 7.2.0 by @fontawesome - https://fontawesome.com License - https://fontawesome.com/license (Commercial License) Copyright 2026 Fonticons, Inc. --><path opacity=".4" fill="currentColor" d="M96 320C96 443.7 196.3 544 320 544C443.7 544 544 443.7 544 320C544 196.3 443.7 96 320 96C196.3 96 96 196.3 96 320zM171.9 221.6L202.4 211.9L207.2 227.1L236.7 319.9L275.9 319.9L299.8 220.2L302.7 207.9L337.1 207.9L340 220.2L363.9 319.9L403.1 319.9L432.6 227.1L437.4 211.9L467.9 221.6L463.1 236.8L436.7 320L463.8 320L463.8 352L426.5 352L394.5 452.8L391 464L365.5 464L362.6 451.7L338.7 352L301.1 352L277.2 451.7L274.3 464L248.8 464L245.3 452.8L213.3 352L176 352L176 320L203.1 320L176.7 236.8L171.9 221.6zM246.9 352L259.1 390.4L268.3 352L246.9 352zM308.9 320L331.2 320L320.1 273.5L309 320zM371.8 352L381 390.4L393.2 352L371.8 352z"/><path fill="currentColor" d="M320 96C443.7 96 544 196.3 544 320C544 443.7 443.7 544 320 544C196.3 544 96 443.7 96 320C96 196.3 196.3 96 320 96zM320 576C461.4 576 576 461.4 576 320C576 178.6 461.4 64 320 64C178.6 64 64 178.6 64 320C64 461.4 178.6 576 320 576zM302.8 208L299.9 220.3L276 320L236.8 320L207.3 227.2L202.5 212L172 221.7L176.8 236.9L203.2 320.1L176.1 320.1L176.1 352.1L213.4 352.1L245.4 452.9L248.9 464.1L274.4 464.1L277.3 451.8L301.2 352.1L338.8 352.1L362.7 451.8L365.6 464.1L391.1 464.1L394.6 452.9L426.6 352.1L463.9 352.1L463.9 320.1L436.8 320.1L463.2 236.9L468 221.7L437.5 212L432.7 227.2L403.2 320L364 320L340.1 220.3L337.2 208L302.8 208zM380.9 390.4L371.7 352L393.1 352L380.9 390.4zM320 273.6L331.1 320.1L308.8 320.1L319.9 273.6zM246.9 352L268.3 352L259.1 390.4L246.9 352z"/></svg>