<svg xmlns="http://www.w3.org/2000/svg" viewBox="0 0 640 640"><!--! Font Awesome Pro 7.2.0 by @fontawesome - https://fontawesome.com License - https://fontawesome.com/license (Commercial License) Copyright 2026 Fonticons, Inc. --><path opacity=".4" fill="currentColor" d="M96 320C96 443.7 196.3 544 320 544C443.7 544 544 443.7 544 320C544 196.3 443.7 96 320 96C196.3 96 96 196.3 96 320zM203.5 224L236.5 224L266.6 344.3L304.9 234.8L308.7 224.1L331.4 224.1L335.2 234.8L373.5 344.3L403.6 224L436.6 224L391.6 403.9L388.6 416L364.8 416L361 405.3L320.1 288.4L279.2 405.3L275.4 416L251.6 416L248.6 403.9L203.6 224z"/><path fill="currentColor" d="M320 96C443.7 96 544 196.3 544 320C544 443.7 443.7 544 320 544C196.3 544 96 443.7 96 320C96 196.3 196.3 96 320 96zM320 576C461.4 576 576 461.4 576 320C576 178.6 461.4 64 320 64C178.6 64 64 178.6 64 320C64 461.4 178.6 576 320 576zM203.5 224L248.5 403.9L251.5 416L275.3 416L279.1 405.3L320 288.4L360.9 405.3L364.7 416L388.5 416L391.5 403.9L436.5 224L403.5 224L373.4 344.3L335.1 234.8L331.3 224.1L308.6 224.1L304.8 234.8L266.5 344.3L236.4 224L203.4 224z"/></svg>