<svg xmlns="http://www.w3.org/2000/svg" viewBox="0 0 640 640"><!--! Font Awesome Pro 7.2.0 by @fontawesome - https://fontawesome.com License - https://fontawesome.com/license (Commercial License) Copyright 2026 Fonticons, Inc. --><path opacity=".4" fill="currentColor" d="M96 320C96 443.7 196.3 544 320 544C443.7 544 544 443.7 544 320C544 196.3 443.7 96 320 96C196.3 96 96 196.3 96 320zM240 320L272 320L272 344C272 366.1 289.9 384 312 384C334.1 384 352 366.1 352 344L352 224L384 224L384 344C384 383.8 351.8 416 312 416C272.2 416 240 383.8 240 344L240 320z"/><path fill="currentColor" d="M320 96C443.7 96 544 196.3 544 320C544 443.7 443.7 544 320 544C196.3 544 96 443.7 96 320C96 196.3 196.3 96 320 96zM320 576C461.4 576 576 461.4 576 320C576 178.6 461.4 64 320 64C178.6 64 64 178.6 64 320C64 461.4 178.6 576 320 576zM384 240L384 224L352 224L352 344C352 366.1 334.1 384 312 384C289.9 384 272 366.1 272 344L272 320L240 320L240 344C240 383.8 272.2 416 312 416C351.8 416 384 383.8 384 344L384 240z"/></svg>