<svg xmlns="http://www.w3.org/2000/svg" viewBox="0 0 640 640"><!--! Font Awesome Pro 7.2.0 by @fontawesome - https://fontawesome.com License - https://fontawesome.com/license (Commercial License) Copyright 2026 Fonticons, Inc. --><path opacity=".4" fill="currentColor" d="M96 320C96 443.7 196.3 544 320 544C443.7 544 544 443.7 544 320C544 196.3 443.7 96 320 96C196.3 96 96 196.3 96 320zM192 304L256 304L256 192L384 192L384 304L448 304L448 336L320 464C318.7 462.7 276 420 192 336L192 304z"/><path fill="currentColor" d="M320 96C196.3 96 96 196.3 96 320C96 443.7 196.3 544 320 544C443.7 544 544 443.7 544 320C544 196.3 443.7 96 320 96zM320 576C178.6 576 64 461.4 64 320C64 178.6 178.6 64 320 64C461.4 64 576 178.6 576 320C576 461.4 461.4 576 320 576zM256 304L256 192L384 192L384 304L448 304L448 336L320 464C318.7 462.7 276 420 192 336L192 304L256 304zM256 336L237.3 336L320 418.7L402.7 336L352 336L352 224L288 224L288 336L256 336z"/></svg>