<svg xmlns="http://www.w3.org/2000/svg" viewBox="0 0 640 640"><!--! Font Awesome Pro 7.2.0 by @fontawesome - https://fontawesome.com License - https://fontawesome.com/license (Commercial License) Copyright 2026 Fonticons, Inc. --><path opacity=".4" fill="currentColor" d="M96 320C96 443.7 196.3 544 320 544C443.7 544 544 443.7 544 320C544 196.3 443.7 96 320 96C196.3 96 96 196.3 96 320zM200 320C200 259.2 245.3 208.9 304 201.1L304 168L336 168L336 201.1C362.3 204.6 386 216.7 404 234.3L415.4 245.5L393 268.4L381.6 257.2C369.3 245.2 353.6 236.7 336 233.5L336 304.1L440 304.1L440 320.1C440 380.9 394.7 431.2 336 439L336 472.1L304 472.1L304 439C245.3 431.2 200 380.9 200 320.1zM232 320C232 363.1 263 399 304 406.6L304 233.5C263 241 232 276.9 232 320zM336 336L336 406.6C371.8 400 400 371.8 406.5 336L336 336z"/><path fill="currentColor" d="M320 96C443.7 96 544 196.3 544 320C544 443.7 443.7 544 320 544C196.3 544 96 443.7 96 320C96 196.3 196.3 96 320 96zM320 576C461.4 576 576 461.4 576 320C576 178.6 461.4 64 320 64C178.6 64 64 178.6 64 320C64 461.4 178.6 576 320 576zM304 168L304 201.1C245.3 208.9 200 259.2 200 320C200 380.8 245.3 431.1 304 438.9L304 472L336 472L336 438.9C394.7 431.1 440 380.8 440 320L440 304L336 304L336 233.4C353.6 236.6 369.3 245.1 381.6 257.1L393 268.3L415.4 245.4L404 234.2C386 216.5 362.3 204.5 336 201L336 167.9L304 167.9zM232 320C232 276.9 263 241 304 233.5L304 406.6C263 399.1 232 363.2 232 320zM406.5 336C399.9 371.8 371.7 400 336 406.6L336 336L406.5 336z"/></svg>