<svg xmlns="http://www.w3.org/2000/svg" viewBox="0 0 640 640"><!--! Font Awesome Pro 7.2.0 by @fontawesome - https://fontawesome.com License - https://fontawesome.com/license (Commercial License) Copyright 2026 Fonticons, Inc. --><path opacity=".4" fill="currentColor" d="M96 320C96 443.7 196.3 544 320 544C443.7 544 544 443.7 544 320C544 196.3 443.7 96 320 96C196.3 96 96 196.3 96 320zM160 252C160 227.7 179.7 208 204 208C228.3 208 248 227.7 248 252L248 272L216 272L216 252C216 245.4 210.6 240 204 240C197.4 240 192 245.4 192 252L192 388C192 394.6 197.4 400 204 400C210.6 400 216 394.6 216 388L216 368L248 368L248 388C248 412.3 228.3 432 204 432C179.7 432 160 412.3 160 388L160 252zM272 208L304 208L304 304L336 304L336 208L368 208L368 432L336 432L336 336L304 336L304 432L272 432L272 208zM400 208L480 208L480 240L432 240L432 304L472 304L472 336L432 336L432 432L400 432L400 208z"/><path fill="currentColor" d="M320 96C443.7 96 544 196.3 544 320C544 443.7 443.7 544 320 544C196.3 544 96 443.7 96 320C96 196.3 196.3 96 320 96zM320 576C461.4 576 576 461.4 576 320C576 178.6 461.4 64 320 64C178.6 64 64 178.6 64 320C64 461.4 178.6 576 320 576zM204 208C179.7 208 160 227.7 160 252L160 388C160 412.3 179.7 432 204 432C228.3 432 248 412.3 248 388L248 368L216 368L216 388C216 394.6 210.6 400 204 400C197.4 400 192 394.6 192 388L192 252C192 245.4 197.4 240 204 240C210.6 240 216 245.4 216 252L216 272L248 272L248 252C248 227.7 228.3 208 204 208zM304 224L304 208L272 208L272 432L304 432L304 336L336 336L336 432L368 432L368 208L336 208L336 304L304 304L304 224zM416 208L400 208L400 432L432 432L432 336L472 336L472 304L432 304L432 240L480 240L480 208L416 208z"/></svg>