<svg xmlns="http://www.w3.org/2000/svg" viewBox="0 0 640 640"><!--! Font Awesome Pro 7.2.0 by @fontawesome - https://fontawesome.com License - https://fontawesome.com/license (Commercial License) Copyright 2026 Fonticons, Inc. --><path opacity=".4" fill="currentColor" d="M96 320C96 443.7 196.3 544 320 544C443.7 544 544 443.7 544 320C544 196.3 443.7 96 320 96C196.3 96 96 196.3 96 320zM176 208L205 208C206 208 207 208 208 208C240.5 208.4 272.5 216.2 301.6 230.8L320 240L338.4 230.8C367.5 216.2 399.5 208.5 432 208C433 208 434 208 435 208L464 208L464 416L435 416C401.5 416 368.4 423.8 338.4 438.8L320 448L301.6 438.8C271.6 423.8 238.5 416 205 416L176 416L176 208z"/><path fill="currentColor" d="M544 320C544 196.3 443.7 96 320 96C196.3 96 96 196.3 96 320C96 443.7 196.3 544 320 544C443.7 544 544 443.7 544 320zM64 320C64 178.6 178.6 64 320 64C461.4 64 576 178.6 576 320C576 461.4 461.4 576 320 576C178.6 576 64 461.4 64 320zM336 267.8L336 404.6C366.3 391.4 398.9 384.4 432 384L432 240C404.5 240.4 377.4 247.1 352.7 259.4L336 267.8zM304 404.6L304 267.8L287.3 259.4C262.6 247.1 235.5 240.4 208 240L208 384C241.1 384.4 273.7 391.4 304 404.6zM432 208C433 208 434 208 435 208L464 208L464 416L435 416C401.5 416 368.4 423.8 338.4 438.8L320 448L301.6 438.8C271.6 423.8 238.5 416 205 416L176 416L176 208L205 208C206 208 207 208 208 208C240.5 208.4 272.5 216.2 301.6 230.8L320 240L338.4 230.8C367.5 216.2 399.5 208.5 432 208z"/></svg>