<svg xmlns="http://www.w3.org/2000/svg" viewBox="0 0 640 640"><!--! Font Awesome Pro 7.2.0 by @fontawesome - https://fontawesome.com License - https://fontawesome.com/license (Commercial License) Copyright 2026 Fonticons, Inc. --><path opacity=".4" fill="currentColor" d="M96 288L337 288C297.1 323.2 272 374.7 272 432C272 448.6 274.1 464.7 278 480L96 480L96 288z"/><path fill="currentColor" d="M398.6 160L513.3 160L430.4 242.9C441.3 241 452.5 240 463.9 240C468.6 240 473.4 240.2 478 240.5L543.9 174.6L543.9 256L540.8 256C553.3 261.4 565 268.2 575.9 276L575.9 128L63.9 128L63.9 512L289.3 512C284.6 501.8 280.8 491.1 277.9 480L95.9 480L95.9 288L336.9 288C351.8 274.9 368.6 264 387 256L302.5 256L398.5 160zM257.4 256L142.7 256L238.7 160L353.4 160L257.4 256zM97.4 256L96 256L96 160L193.4 160L97.4 256zM464 320C525.9 320 576 370.1 576 432C576 493.9 525.9 544 464 544C402.1 544 352 493.9 352 432C352 370.1 402.1 320 464 320zM464 576C543.5 576 608 511.5 608 432C608 352.5 543.5 288 464 288C384.5 288 320 352.5 320 432C320 511.5 384.5 576 464 576zM416 355.7L416 508.2C422.9 504.1 457.6 483.2 520.2 445.7L543.1 432C537.4 428.6 503.1 408 440.2 370.3L416 355.7zM448 451.7L448 412.2L480.9 431.9L448 451.6z"/></svg>