<svg xmlns="http://www.w3.org/2000/svg" viewBox="0 0 640 640"><!--! Font Awesome Pro 7.2.0 by @fontawesome - https://fontawesome.com License - https://fontawesome.com/license (Commercial License) Copyright 2026 Fonticons, Inc. --><path opacity=".4" fill="currentColor" d="M56.5 472L152.5 568L190.1 485.3L192.5 480L196.6 475.9L501.2 171.3L453.2 123.3L148.6 427.9L144.5 432L139.2 434.4L56.5 472zM248.5 392C248.5 400.8 241.3 408 232.5 408C223.7 408 216.5 400.8 216.5 392C216.5 383.2 223.7 376 232.5 376C241.3 376 248.5 383.2 248.5 392zM312.5 328C312.5 336.8 305.3 344 296.5 344C287.7 344 280.5 336.8 280.5 328C280.5 319.2 287.7 312 296.5 312C305.3 312 312.5 319.2 312.5 328zM376.5 264C376.5 272.8 369.3 280 360.5 280C351.7 280 344.5 272.8 344.5 264C344.5 255.2 351.7 248 360.5 248C369.3 248 376.5 255.2 376.5 264zM440.5 200C440.5 208.8 433.3 216 424.5 216C415.7 216 408.5 208.8 408.5 200C408.5 191.2 415.7 184 424.5 184C433.3 184 440.5 191.2 440.5 200zM475.8 100.7L523.8 148.7L599.6 72.9L479.3 97.2L475.9 100.6z"/><path fill="currentColor" d="M640.5 77.3L219.2 498.5C186.1 571.4 167.2 612.9 162.5 623.3C161.2 622 115.5 576.3 25.4 486.2L1.2 462C11.5 457.3 53.1 438.4 126 405.3L463.4 67.8C579 44.4 638 32.5 640.5 32L640.5 77.3zM190.1 485.3L192.5 480L196.6 475.9L501.2 171.3L453.2 123.3L148.6 427.9L144.5 432L139.2 434.4L56.5 472L152.5 568L190.1 485.3zM523.8 148.7L599.6 72.9L479.3 97.2L475.9 100.6L523.9 148.6zM424.5 184C433.3 184 440.5 191.2 440.5 200C440.5 208.8 433.3 216 424.5 216C415.7 216 408.5 208.8 408.5 200C408.5 191.2 415.7 184 424.5 184zM216.5 392C216.5 383.2 223.7 376 232.5 376C241.3 376 248.5 383.2 248.5 392C248.5 400.8 241.3 408 232.5 408C223.7 408 216.5 400.8 216.5 392zM360.5 248C369.3 248 376.5 255.2 376.5 264C376.5 272.8 369.3 280 360.5 280C351.7 280 344.5 272.8 344.5 264C344.5 255.2 351.7 248 360.5 248zM280.5 328C280.5 319.2 287.7 312 296.5 312C305.3 312 312.5 319.2 312.5 328C312.5 336.8 305.3 344 296.5 344C287.7 344 280.5 336.8 280.5 328z"/></svg>