<svg xmlns="http://www.w3.org/2000/svg" viewBox="0 0 640 640"><!--! Font Awesome Pro 7.2.0 by @fontawesome - https://fontawesome.com License - https://fontawesome.com/license (Commercial License) Copyright 2026 Fonticons, Inc. --><path opacity=".4" fill="currentColor" d="M96.3 118.6L192.3 214.6L192.3 288L265.7 288L384.3 406.6L384.3 480L457.7 480L521.7 544L343 544L251.7 452.7L247 448L192.4 448L192.4 393.4L187.7 388.7L96.4 297.4L96.4 118.7zM118.9 96L297.6 96L320.2 118.6L320.2 192L393.6 192L448.2 246.6L448.2 320L521.6 320L544.2 342.6L544.2 521.3L470.8 447.9L416.2 447.9L416.2 393.3L411.5 388.6L283.5 260.6L278.8 255.9L224.2 255.9L224.2 201.3L118.8 95.9z"/><path fill="currentColor" d="M192.3 214.6L69 91.3L91.6 68.7L224.3 201.4L224.3 256L278.9 256L283.6 260.7L411.6 388.7L416.3 393.4L416.3 448L470.9 448L571.6 548.7L549 571.3L457.7 480L384.3 480L384.3 406.6L265.7 288L192.3 288L192.3 214.6zM160.3 406.6L69 315.3L91.6 292.7L187.6 388.7L192.3 393.4L192.3 448L246.9 448L251.6 452.7L347.6 548.7L325 571.3L233.7 480L160.3 480L160.3 406.6zM293 91.3L315.6 68.7L347.6 100.7L352.3 105.4L352.3 160L406.9 160L411.6 164.7L475.6 228.7L480.3 233.4L480.3 288L534.9 288L539.6 292.7L571.6 324.7L549 347.3L521.7 320L448.3 320L448.3 246.6L393.7 192L320.3 192L320.3 118.6L293 91.3z"/></svg>