<svg xmlns="http://www.w3.org/2000/svg" viewBox="0 0 640 640"><!--! Font Awesome Pro 7.2.0 by @fontawesome - https://fontawesome.com License - https://fontawesome.com/license (Commercial License) Copyright 2026 Fonticons, Inc. --><path opacity=".4" fill="currentColor" d="M96 128L144 128L144 176L368 176L368 128L416 128L416 278C333.2 299.3 272 374.5 272 464C272 492.6 278.2 519.6 289.4 544L96 544L96 128z"/><path fill="currentColor" d="M144 176L144 128L96 128L96 544L289.4 544C294.6 555.3 300.8 566 308 576L64 576L64 96L144 96L144 64L368 64L368 96L448 96L448 272.7C437 273.6 426.4 275.4 416 278.1L416 128.1L368 128.1L368 176.1L144 176.1zM336 144L336 96L176 96L176 144L336 144zM576 464C576 402.1 525.9 352 464 352C402.1 352 352 402.1 352 464C352 525.9 402.1 576 464 576C525.9 576 576 525.9 576 464zM320 464C320 384.5 384.5 320 464 320C543.5 320 608 384.5 608 464C608 543.5 543.5 608 464 608C384.5 608 320 543.5 320 464zM480 400L480 448L528 448L528 480L448 480L448 384L480 384L480 400z"/></svg>