<svg xmlns="http://www.w3.org/2000/svg" viewBox="0 0 640 640"><!--! Font Awesome Pro 7.2.0 by @fontawesome - https://fontawesome.com License - https://fontawesome.com/license (Commercial License) Copyright 2026 Fonticons, Inc. --><path opacity=".4" fill="currentColor" d="M160 128L160 544L480 544L480 128L432 128L432 176L208 176L208 128L160 128zM224 304L272 304L272 256L368 256L368 304L416 304L416 400L368 400L368 448L272 448L272 400L224 400L224 304z"/><path fill="currentColor" d="M208 176L432 176L432 128L480 128L480 544L160 544L160 128L208 128L208 176zM208 64L208 96L128 96L128 576L512 576L512 96L432 96L432 64L208 64zM400 144L240 144L240 96L400 96L400 144zM288 256L272 256L272 304L224 304L224 400L272 400L272 448L368 448L368 400L416 400L416 304L368 304L368 256L288 256zM304 336L304 288L336 288L336 336L384 336L384 368L336 368L336 416L304 416L304 368L256 368L256 336L304 336z"/></svg>