<svg xmlns="http://www.w3.org/2000/svg" viewBox="0 0 640 640"><!--! Font Awesome Pro 7.2.0 by @fontawesome - https://fontawesome.com License - https://fontawesome.com/license (Commercial License) Copyright 2026 Fonticons, Inc. --><path opacity=".4" fill="currentColor" d="M544 320C544 443.7 443.7 544 320 544C196.3 544 96 443.7 96 320C96 196.3 196.3 96 320 96C443.7 96 544 196.3 544 320zM233.8 420.4L260.4 438.2C262 435.8 276.5 414 304 372.9L304 480.1L336 480.1L336 320.1L306.7 311.2L242.7 407.2L233.8 420.5z"/><path fill="currentColor" d="M96 320C96 443.7 196.3 544 320 544C443.7 544 544 443.7 544 320C544 196.3 443.7 96 320 96C196.3 96 96 196.3 96 320zM576 320C576 461.4 461.4 576 320 576C178.6 576 64 461.4 64 320C64 178.6 178.6 64 320 64C461.4 64 576 178.6 576 320zM304 464L304 372.8C276.6 413.9 262.1 435.7 260.4 438.1L233.8 420.3L242.7 407L306.7 311L336 319.9L336 479.9L304 479.9L304 463.9z"/></svg>