<svg xmlns="http://www.w3.org/2000/svg" viewBox="0 0 640 640"><!--! Font Awesome Pro 7.2.0 by @fontawesome - https://fontawesome.com License - https://fontawesome.com/license (Commercial License) Copyright 2026 Fonticons, Inc. --><path opacity=".4" fill="currentColor" d="M96 288C96 257.1 118 231.2 147.2 225.3L160 222.7L160 176C160 131.8 195.8 96 240 96C275.3 96 305.3 118.9 315.9 150.7L326.6 182.7L344.6 154.2C354.5 138.5 372.1 128.1 392 128.1C422.9 128.1 448 153.2 448 184.1L448 229.3L467.2 225.4C471.3 224.6 475.6 224.1 480 224.1C515.3 224.1 544 252.8 544 288.1L544 352.1L434.3 352.1L403.7 321.5L376.9 326.9L361.7 304.2L278.3 304.2L263.1 326.9L236.3 321.5C226.1 331.7 215.9 341.9 205.7 352.1L96 352L96 288z"/><path fill="currentColor" d="M240 96C195.8 96 160 131.8 160 176L160 222.7L147.2 225.3C118 231.2 96 257.1 96 288L96 352L205.7 352L173.7 384L64 384L64 288C64 246.2 90.7 210.6 128 197.5L128 176C128 114.1 178.1 64 240 64C280.2 64 315.4 85.1 335.1 116.9C350.4 103.9 370.3 96 392 96C440.6 96 480 135.4 480 184L480 192C533 192 576 235 576 288L576 384L466.3 384L434.3 352L544 352L544 288C544 252.7 515.3 224 480 224C475.6 224 471.3 224.4 467.2 225.3L448 229.2L448 184C448 153.1 422.9 128 392 128C372.1 128 354.6 138.4 344.6 154.1L326.6 182.6L315.9 150.6C305.3 118.9 275.3 96 240 96zM544 480C544 471.2 536.8 464 528 464C519.2 464 512 471.2 512 480C512 488.8 519.2 496 528 496C536.8 496 544 488.8 544 480zM480 480C480 453.5 501.5 432 528 432C554.5 432 576 453.5 576 480C576 506.5 554.5 528 528 528C501.5 528 480 506.5 480 480zM112 496C120.8 496 128 488.8 128 480C128 471.2 120.8 464 112 464C103.2 464 96 471.2 96 480C96 488.8 103.2 496 112 496zM112 432C138.5 432 160 453.5 160 480C160 506.5 138.5 528 112 528C85.5 528 64 506.5 64 480C64 453.5 85.5 432 112 432zM267.5 505L264.6 519.4C273.1 517.7 284.8 515.4 300 512.3C308.6 525.1 315.2 535.1 320 542.3C324.8 535.1 331.5 525.1 340 512.3C355.1 515.3 366.9 517.7 375.4 519.4C373.7 510.9 371.3 499.2 368.3 484C381.1 475.4 391.1 468.8 398.3 464C391.1 459.2 381.1 452.5 368.3 444C371.3 428.9 373.7 417.1 375.4 408.6C366.9 410.3 355.2 412.7 340 415.7C331.4 402.9 324.8 392.9 320 385.7C315.2 392.9 308.5 402.9 300 415.7C284.9 412.7 273.1 410.3 264.6 408.6C266.3 417.1 268.6 428.8 271.7 444C258.9 452.6 248.9 459.2 241.7 464C248.9 468.8 258.9 475.5 271.7 484L267.5 505zM236.1 429.2L229.5 396.1L252.1 373.5L285.2 380.1L303.9 352L335.9 352L354.6 380.1L387.7 373.5L410.3 396.1L403.7 429.2L431.8 447.9L431.8 479.9L403.7 498.6L410.3 531.7L387.7 554.3L354.6 547.7L335.9 575.8L303.9 575.8L285.2 547.7L252.1 554.3L229.5 531.7L236.1 498.6L208 479.9L208 447.9L236.1 429.2z"/></svg>