<svg xmlns="http://www.w3.org/2000/svg" viewBox="0 0 640 640"><!--! Font Awesome Pro 7.2.0 by @fontawesome - https://fontawesome.com License - https://fontawesome.com/license (Commercial License) Copyright 2026 Fonticons, Inc. --><path opacity=".4" fill="currentColor" d="M64 400L64 512L576 512L576 416C576 377.7 553.6 344.7 521.1 329.2L512 324.9L512 264C512 215.4 472.6 176 424 176C410.4 176 397.6 179.1 386.1 184.5L373.5 190.5L365.8 178.8C345.8 148.2 311.2 128 272 128C210.1 128 160 178.1 160 240L160 288.4L148 291.5C99.7 304 64 347.8 64 400zM250.8 309.2C250.8 271 281.8 240 320 240C358.2 240 389.2 271 389.2 309.2C389.2 342 365.8 365.8 336 375.1L336 400L304 400L304 348.3L306.1 348C317.7 346.6 328.1 345.3 338.7 339.3C348.8 333.6 357.2 324.9 357.2 309.2C357.2 288.6 340.5 272 320 272C299.5 272 282.8 288.7 282.8 309.2L250.8 309.2zM300 428L340 428L340 468L300 468L300 428z"/><path fill="currentColor" d="M160 240C160 178.1 210.1 128 272 128C311.3 128 345.8 148.2 365.8 178.8L373.5 190.5L386.1 184.5C397.5 179 410.4 176 424 176C472.6 176 512 215.4 512 264L512 324.9L521.1 329.2C553.6 344.7 576 377.7 576 416L576 512L64 512L64 400C64 347.8 99.7 304 148 291.5L160 288.4L160 240zM272 96C192.5 96 128 160.5 128 240L128 264.2C72.1 284 32 337.3 32 400L32 544L608 544L608 416C608 368.6 582.2 327.2 544 305.1L544 264C544 197.7 490.3 144 424 144C410.3 144 397.1 146.3 384.8 150.5C358.4 117.3 317.7 96 272 96zM320 272C340.6 272 357.2 288.7 357.2 309.2C357.2 324.9 348.8 333.7 338.7 339.3C328.1 345.3 317.7 346.6 306.1 348L304 348.3L304 400L336 400L336 375.1C365.8 365.9 389.2 342 389.2 309.2C389.2 271 358.2 240 320 240C281.8 240 250.8 271 250.8 309.2L282.8 309.2C282.8 288.6 299.5 272 320 272zM300 428L300 468L340 468L340 428L300 428z"/></svg>