<svg xmlns="http://www.w3.org/2000/svg" viewBox="0 0 640 640"><!--! Font Awesome Pro 7.2.0 by @fontawesome - https://fontawesome.com License - https://fontawesome.com/license (Commercial License) Copyright 2026 Fonticons, Inc. --><path opacity=".4" fill="currentColor" d="M64 256L64 320L147.2 320C162 247 226.6 192 304 192C343.7 192 380 206.5 408 230.4C420.6 226.3 434 224 448 224C448 188.7 419.3 160 384 160L319.2 160L315.4 149.3C304.4 118.2 274.8 96 239.9 96C195.7 96 159.9 131.8 159.9 176L159.9 192L127.9 192C92.6 192 63.9 220.7 63.9 256zM160 456L160 512L576 512L576 448C576 412.7 547.3 384 512 384L496 384L496 352C496 325.5 474.5 304 448 304C430.9 304 415.9 312.9 407.3 326.5L390.2 353.7L378.8 323.7C367.3 293.5 338.1 272.1 304 272.1C259.8 272.1 224 307.9 224 352.1L224 398.9L209.8 400.5C181.8 403.6 160 427.3 160 456.2z"/><path fill="currentColor" d="M240 96C274.8 96 304.5 118.2 315.5 149.3L319.2 160L384 160C419.3 160 448 188.7 448 224C459 224 469.8 225.4 480 228L480 224C480 171 437 128 384 128L341.2 128C323.2 90.2 284.7 64 240 64C183.6 64 136.9 105.7 129.1 160L128 160C75 160 32 203 32 256L32 352L128.4 352C133.4 347.7 138.8 343.8 144.4 340.4C144.9 333.5 145.8 326.7 147.2 320L64 320L64 256C64 220.7 92.7 192 128 192L160 192L160 176C160 131.8 195.8 96 240 96zM224 352C224 307.8 259.8 272 304 272C338.2 272 367.4 293.4 378.8 323.6L390.2 353.6L407.3 326.4C415.8 312.9 430.9 303.9 448 303.9C474.5 303.9 496 325.4 496 351.9L496 383.9L512 383.9C547.3 383.9 576 412.6 576 447.9L576 511.9L160 511.9L160 455.9C160 427.1 181.8 403.3 209.8 400.2L224 398.6L224 351.8zM304 240C242.1 240 192 290.1 192 352L192 371.3C155.1 381.8 128 415.7 128 456L128 544L608 544L608 448C608 400.4 573.4 360.9 528 353.3C528 309.2 492.6 272 448 272C428.8 272 411.1 278.8 397.3 290.1C377.2 259.9 342.9 240 304 240z"/></svg>