<svg xmlns="http://www.w3.org/2000/svg" viewBox="0 0 640 640"><!--! Font Awesome Pro 7.2.0 by @fontawesome - https://fontawesome.com License - https://fontawesome.com/license (Commercial License) Copyright 2026 Fonticons, Inc. --><path opacity=".4" fill="currentColor" d="M64 400L64 512L576 512L576 416C576 377.7 553.6 344.6 521.1 329.2L512 324.9L512 264C512 215.4 472.6 176 424 176C410.4 176 397.5 179.1 386.1 184.5L373.5 190.5L365.8 178.8C345.8 148.2 311.3 128 272 128C210.1 128 160 178.1 160 240L160 288.4L148 291.5C99.7 304 64 347.8 64 400zM217.4 364.1L240.4 341.9C242.8 344.4 260.2 362.4 292.7 396L387.1 266.2L396.5 253.3L422.4 272.1L413 285L307.4 430.2L296.2 445.6L283 431.9L228.6 375.6L217.5 364.1z"/><path fill="currentColor" d="M272 96C317.7 96 358.4 117.4 384.7 150.6C397 146.3 410.3 144 424 144C490.3 144 544 197.7 544 264L544 305.1C582.2 327.2 608 368.6 608 416L608 544L32 544L32 400C32 337.3 72.1 284 128 264.2L128 240C128 160.5 192.5 96 272 96zM272 128C210.1 128 160 178.1 160 240L160 288.4L148 291.5C99.7 304 64 347.8 64 400L64 512L576 512L576 416C576 377.7 553.6 344.6 521.1 329.2L512 324.9L512 264C512 215.4 472.6 176 424 176C410.4 176 397.5 179.1 386.1 184.5L373.5 190.5L365.8 178.8C345.8 148.2 311.2 128 272 128zM422.3 272.1L412.9 285L307.3 430.2L296.1 445.6L282.9 431.9L228.5 375.6L217.4 364.1L240.4 341.9C242.8 344.4 260.2 362.4 292.7 396L387.1 266.2L396.5 253.3L422.4 272.1z"/></svg>