<svg xmlns="http://www.w3.org/2000/svg" viewBox="0 0 640 640"><!--! Font Awesome Pro 7.2.0 by @fontawesome - https://fontawesome.com License - https://fontawesome.com/license (Commercial License) Copyright 2026 Fonticons, Inc. --><path opacity=".4" fill="currentColor" d="M96 288L96 352L544 352L544 288C544 252.7 515.3 224 480 224C475.6 224 471.3 224.4 467.2 225.3L448 229.2L448 184C448 153.1 422.9 128 392 128C372.1 128 354.6 138.4 344.6 154.1L326.6 182.6L315.9 150.6C305.3 118.9 275.3 96 240 96C195.8 96 160 131.8 160 176L160 222.7L147.2 225.3C118 231.2 96 257.1 96 288zM160 527.7C160 536.7 167.4 544 176 544C184.6 544 192 536.7 192 527.7C192 525.1 191.4 522.6 190.3 520.3L176 491.8L161.7 520.3C160.6 522.5 160 525.1 160 527.7zM304 527.7C304 536.7 311.4 544 320 544C328.6 544 336 536.7 336 527.7C336 525.1 335.4 522.6 334.3 520.3L320 491.8L305.7 520.3C304.6 522.5 304 525.1 304 527.7zM448 527.7C448 536.7 455.4 544 464 544C472.6 544 480 536.7 480 527.7C480 525.1 479.4 522.6 478.3 520.3L464 491.8L449.7 520.3C448.6 522.5 448 525.1 448 527.7z"/><path fill="currentColor" d="M160 176C160 131.8 195.8 96 240 96C275.3 96 305.3 118.9 315.9 150.7L326.6 182.7L344.6 154.2C354.5 138.5 372.1 128.1 392 128.1C422.9 128.1 448 153.2 448 184.1L448 229.3L467.2 225.4C471.3 224.6 475.6 224.1 480 224.1C515.3 224.1 544 252.8 544 288.1L544 352.1L96 352.1L96 288.1C96 257.2 118 231.3 147.2 225.4L160 222.7L160 176zM240 64C178.1 64 128 114.1 128 176L128 197.5C90.7 210.6 64 246.2 64 288L64 384L576 384L576 288C576 235 533 192 480 192L480 184C480 135.4 440.6 96 392 96C370.3 96 350.5 103.9 335.1 116.9C315.3 85.2 280.1 64 240 64zM334.3 448.8L320 420.2C312.8 434.5 298.5 463.1 277.1 506C273.7 512.7 272 520.2 272 527.7C272 554 293.3 576 320 576C346.7 576 368 554 368 527.7C368 520.2 366.3 512.7 362.9 506L334.3 448.8zM305.7 520.3L320 491.8L334.3 520.3C335.4 522.5 336 525.1 336 527.7C336 536.7 328.6 544 320 544C311.4 544 304 536.7 304 527.7C304 525.1 304.6 522.6 305.7 520.3zM176 420.2C168.8 434.5 154.5 463.1 133.1 506C129.7 512.7 128 520.2 128 527.7C128 554 149.3 576 176 576C202.7 576 224 554 224 527.7C224 520.2 222.3 512.7 218.9 506C197.5 463.1 183.2 434.5 176 420.2zM176 491.8L190.3 520.3C191.4 522.5 192 525.1 192 527.7C192 536.7 184.6 544 176 544C167.4 544 160 536.7 160 527.7C160 525.1 160.6 522.6 161.7 520.3L176 491.8zM478.3 448.9L464 420.2C456.8 434.5 442.5 463.1 421.1 506C417.7 512.7 416 520.2 416 527.7C416 554 437.3 576 464 576C490.7 576 512 554 512 527.7C512 520.2 510.3 512.7 506.9 506L478.3 448.8zM449.7 520.4L464 491.9L478.3 520.4C479.4 522.6 480 525.2 480 527.8C480 536.8 472.6 544.1 464 544.1C455.4 544.1 448 536.8 448 527.8C448 525.2 448.6 522.7 449.7 520.4z"/></svg>