<svg xmlns="http://www.w3.org/2000/svg" viewBox="0 0 640 640"><!--! Font Awesome Pro 7.2.0 by @fontawesome - https://fontawesome.com License - https://fontawesome.com/license (Commercial License) Copyright 2026 Fonticons, Inc. --><path opacity=".4" fill="currentColor" d="M128 96L128 192L224 192L224 96L128 96zM128 448L128 544L224 544L224 448L128 448zM416 288L416 384L512 384L512 288L416 288z"/><path fill="currentColor" d="M224 96L224 192L128 192L128 96L224 96zM128 224L160 224L160 416L96 416L96 576L256 576L256 416L192 416L192 298.5C218.4 331.1 258.8 352 304 352L384 352L384 416L544 416L544 256L384 256L384 320L304 320C247.6 320 200.9 278.3 193.1 224L256 224L256 64L96 64L96 224L128 224zM416 352L416 288L512 288L512 384L416 384L416 352zM160 448L224 448L224 544L128 544L128 448L160 448z"/></svg>