<svg xmlns="http://www.w3.org/2000/svg" viewBox="0 0 640 640"><!--! Font Awesome Pro 7.2.0 by @fontawesome - https://fontawesome.com License - https://fontawesome.com/license (Commercial License) Copyright 2026 Fonticons, Inc. --><path opacity=".4" fill="currentColor" d="M96 304C96 350.6 112.5 393.7 140.7 428.7L152.5 443.4C150.8 447.6 140 474.1 120.1 522.9L206.1 493.3L217.6 489.4L228.8 494C256.6 505.5 287.4 512 320 512C445.7 512 544 417 544 304C544 191 445.7 96 320 96C194.3 96 96 191 96 304zM201.4 336L224 313.4L286.1 375.5L403.1 214.7L412.5 201.8L438.4 220.6L429 233.5L301 409.5L290 424.7L201.4 336.1z"/><path fill="currentColor" d="M320 64C461.4 64 576 171.5 576 304C576 436.5 461.4 544 320 544C283.2 544 248.2 536.6 216.6 523.5L64 576L115.8 448.7C83.3 408.5 64 358.4 64 304C64 171.5 178.6 64 320 64zM320 96C194.3 96 96 191 96 304C96 350.6 112.5 393.7 140.7 428.7L152.5 443.4C150.8 447.6 140 474.1 120.1 522.9L206.1 493.3L217.6 489.4L228.8 494C256.6 505.5 287.4 512 320 512C445.7 512 544 417 544 304C544 191 445.7 96 320 96zM438.3 220.5L428.9 233.4L300.9 409.4L289.9 424.6L201.3 336L223.9 313.4L286 375.5L403 214.7L412.4 201.8L438.3 220.6z"/></svg>