<svg xmlns="http://www.w3.org/2000/svg" viewBox="0 0 640 640"><!--! Font Awesome Pro 7.2.0 by @fontawesome - https://fontawesome.com License - https://fontawesome.com/license (Commercial License) Copyright 2026 Fonticons, Inc. --><path opacity=".4" fill="currentColor" d="M96 304C96 350.6 112.5 393.8 140.7 428.7L152.6 443.4C150.9 447.7 140.1 474.1 120.2 522.9L206.1 493.4L217.6 489.5L228.8 494.1C256.6 505.6 287.4 512.1 320 512.1C445.7 512.1 544 417.1 544 304.1C544 191.1 445.7 96 320 96C194.3 96 96 191 96 304zM208 288C208 252.7 236.7 224 272 224L274.9 224C291.6 224 307.7 230.3 320 241.5C332.3 230.3 348.4 224 365.1 224L368 224C403.3 224 432 252.7 432 288C432 327.7 402.8 359.9 378.2 380.3C365.4 390.9 352.8 399.4 343.3 405.2C335.7 409.8 327.9 414 320 417.9C312.1 413.9 304.2 409.8 296.7 405.2C287.2 399.4 274.6 391 261.8 380.3C237.3 359.9 208 327.7 208 288z"/><path fill="currentColor" d="M145.5 460.9L152.6 443.4L140.7 428.7C112.5 393.8 96 350.6 96 304C96 191 194.3 96 320 96C445.7 96 544 191 544 304C544 417 445.7 512 320 512C287.4 512 256.6 505.6 228.8 494L217.6 489.4L206.1 493.3L120.2 522.8L145.4 460.8zM64 576C78.8 570.9 129.6 553.4 216.5 523.6C248.1 536.7 283.2 544 320 544C461.4 544 576 436.5 576 304C576 171.5 461.4 64 320 64C178.6 64 64 171.5 64 304C64 358.4 83.3 408.6 115.8 448.8C88.7 515.5 71.4 557.9 64 576zM296.7 405.2C304.3 409.8 312.1 414 320 417.9C327.9 413.9 335.8 409.8 343.3 405.2C352.7 399.4 365.4 391 378.2 380.3C402.7 359.9 432 327.7 432 288C432 252.7 403.3 224 368 224L365.1 224C348.4 224 332.3 230.3 320 241.5C307.7 230.3 291.6 224 274.9 224L272 224C236.7 224 208 252.7 208 288C208 327.7 237.2 359.9 261.8 380.3C274.6 390.9 287.2 399.4 296.7 405.2zM365.1 256L368 256C385.7 256 400 270.3 400 288C400 312.3 381.2 336.1 357.8 355.7C346.6 365.1 335.2 372.6 326.7 377.8C324.2 379.3 322 380.6 320 381.7C318.1 380.6 315.8 379.3 313.3 377.8C304.8 372.6 293.4 365 282.2 355.7C258.7 336.1 240 312.3 240 288C240 270.3 254.3 256 272 256L274.9 256C284.2 256 293 259.7 299.6 266.2L320 286.6L340.4 266.2C346.9 259.7 355.8 256 365.1 256z"/></svg>