<svg xmlns="http://www.w3.org/2000/svg" viewBox="0 0 640 640"><!--! Font Awesome Pro 7.2.0 by @fontawesome - https://fontawesome.com License - https://fontawesome.com/license (Commercial License) Copyright 2026 Fonticons, Inc. --><path opacity=".4" fill="currentColor" d="M96 304C96 350.6 112.5 393.8 140.7 428.7L152.6 443.4C150.9 447.7 140.1 474.1 120.2 522.9L206.1 493.4L217.6 489.5L228.8 494.1C256.6 505.6 287.4 512.1 320 512.1C445.7 512.1 544 417.1 544 304.1C544 191.1 445.7 96 320 96C194.3 96 96 191 96 304zM192 224L304 224C304 276.1 304 263.8 304 296.2L304 344C304 379.3 275.3 408 240 408L224 408L224 376L240 376C257.7 376 272 361.7 272 344L272 336L192 336L192 224zM336 224L448 224L448 344C448 379.3 419.3 408 384 408L368 408L368 376L384 376C401.7 376 416 361.7 416 344L416 336L336 336L336 224z"/><path fill="currentColor" d="M145.5 460.9L152.6 443.4L140.7 428.7C112.5 393.8 96 350.6 96 304C96 191 194.3 96 320 96C445.7 96 544 191 544 304C544 417 445.7 512 320 512C287.4 512 256.6 505.6 228.8 494L217.6 489.4L206.1 493.3L120.2 522.8L145.4 460.8zM64 576C78.8 570.9 129.6 553.4 216.5 523.6C248.1 536.7 283.2 544 320 544C461.4 544 576 436.5 576 304C576 171.5 461.4 64 320 64C178.6 64 64 171.5 64 304C64 358.4 83.3 408.6 115.8 448.8C88.7 515.5 71.4 557.9 64 576zM224 256L272 256L272 304L224 304L224 256zM272 336L272 344C272 361.7 257.7 376 240 376L224 376L224 408L240 408C275.3 408 304 379.3 304 344L304 224L192 224L192 336L272 336zM448 336L448 224L336 224L336 336L416 336L416 344C416 361.7 401.7 376 384 376L368 376L368 408L384 408C419.3 408 448 379.3 448 344L448 336zM416 280L416 304L368 304L368 256L416 256L416 280z"/></svg>