<svg xmlns="http://www.w3.org/2000/svg" viewBox="0 0 640 640"><!--! Font Awesome Pro 7.2.0 by @fontawesome - https://fontawesome.com License - https://fontawesome.com/license (Commercial License) Copyright 2026 Fonticons, Inc. --><path opacity=".4" fill="currentColor" d="M64 208C64 238.4 74.4 266.7 92.7 290.2L103.2 303.7C101.2 309.6 94.4 330.2 82.6 365.4L148.9 343.3L159 339.9L169.1 343.2C186.2 348.8 204.7 351.9 224.1 351.9C315.1 351.9 384.1 284.9 384.1 207.9C384.1 130.9 315 64 224 64C133 64 64 131 64 208zM160 174.3C160 148.7 180.7 128 206.3 128L208 128L208 104L240 104L240 128L272 128L272 160L206.3 160C198.4 160 192 166.4 192 174.3C192 181.3 197.1 187.3 204 188.4L249.3 196C271.6 199.7 288 219 288 241.7C288 267.3 267.3 288 241.7 288L240 288L240 312L208 312L208 288L168 288L168 256L241.7 256C249.6 256 256 249.6 256 241.7C256 234.7 250.9 228.7 244 227.6L198.7 220C176.4 216.3 160 197 160 174.3zM259.4 429.5C274.4 493.3 336.8 544 416 544C435.4 544 453.9 540.9 471 535.3L481.1 532L491.2 535.4L557.5 557.5C545.8 522.3 538.9 501.8 536.9 495.8L547.4 482.3C565.6 458.8 576.1 430.5 576.1 400.1C576.1 335.3 527.2 277.6 457.5 260.9C434.6 350.4 354.6 416.3 259.5 429.6z"/><path fill="currentColor" d="M103.2 303.7C101.2 309.6 94.4 330.2 82.6 365.4L148.9 343.3L159 339.9L169.1 343.2C186.2 348.8 204.7 351.9 224.1 351.9C315.1 351.9 384.1 284.9 384.1 207.9C384.1 130.9 315 64 224 64C133 64 64 131 64 208C64 238.4 74.4 266.7 92.7 290.2L103.2 303.7zM70 403.4L32 416C38.8 395.7 50.6 360.4 67.4 309.8C45.1 281.1 32 245.9 32 208C32 110.8 118 32 224 32C330 32 416 110.8 416 208C416 305.2 330 384 224 384C201.2 384 179.3 380.4 159 373.7L70 403.4zM227.2 432C238.1 431.9 248.9 431 259.5 429.6C274.5 493.4 336.9 544.1 416.1 544.1C435.5 544.1 454 541 471.1 535.4L481.2 532.1L491.3 535.5L557.6 557.6C545.9 522.4 539 501.9 537 495.9L547.5 482.4C565.7 458.9 576.2 430.6 576.2 400.2C576.2 335.4 527.3 277.7 457.6 261C460.2 250.8 462.1 240.3 463.2 229.5C546.5 248.7 608.2 317.8 608.2 400.2C608.2 438.1 595.1 473.3 572.8 502C589.6 552.5 601.4 587.9 608.2 608.2C591.4 602.6 549.1 588.5 481.2 565.9C460.9 572.6 439 576.2 416.2 576.2C322.1 576.2 243.8 514.1 227.4 432.2zM240 104L240 128L272 128L272 160L206.3 160C198.4 160 192 166.4 192 174.3C192 181.3 197.1 187.3 204 188.4L249.3 196C271.6 199.7 288 219 288 241.7C288 267.3 267.3 288 241.7 288L240 288L240 312L208 312L208 288L168 288L168 256L241.7 256C249.6 256 256 249.6 256 241.7C256 234.7 250.9 228.7 244 227.6L198.7 220C176.4 216.3 160 197 160 174.3C160 148.7 180.7 128 206.3 128L208 128L208 104L240 104z"/></svg>