<svg xmlns="http://www.w3.org/2000/svg" viewBox="0 0 640 640"><!--! Font Awesome Pro 7.2.0 by @fontawesome - https://fontawesome.com License - https://fontawesome.com/license (Commercial License) Copyright 2026 Fonticons, Inc. --><path opacity=".4" fill="currentColor" d="M160 288L160 416C160 486.7 217.3 544 288 544L352 544C422.7 544 480 486.7 480 416L480 96L336 96L336 288L160 288z"/><path fill="currentColor" d="M336 288L336 96L480 96L480 416C480 486.7 422.7 544 352 544L288 544C217.3 544 160 486.7 160 416L160 288L336 288zM160 256L160 96L304 96L304 256L160 256zM160 64L128 64L128 416C128 504.4 199.6 576 288 576L352 576C440.4 576 512 504.4 512 416L512 64L160 64z"/></svg>