<svg xmlns="http://www.w3.org/2000/svg" viewBox="0 0 640 640"><!--! Font Awesome Pro 7.2.0 by @fontawesome - https://fontawesome.com License - https://fontawesome.com/license (Commercial License) Copyright 2026 Fonticons, Inc. --><path opacity=".4" fill="currentColor" d="M102 512L538 512L320 114.6L102 512zM183 472C213.6 410.6 228.9 379.7 229.1 379.4C231.5 380.9 256.6 396.6 304.4 426.5L311.9 431.2L311.9 472.1L279.9 472.1L279.9 449L242 425.3L218.7 472.1L183 472.1zM242.8 350.5C247.8 340.4 251.4 333.2 253.6 328.8L254 328L329.8 328L330.2 328.8L353.8 376.1L379.9 391.7C381.6 388.5 389.6 373.9 403.9 348C413.7 365.9 430.6 396.6 454.4 440L471.9 472L335.9 472C348.7 448.7 358.2 431.3 364.5 419.8L333.6 401.2L256.1 357.9L242.8 350.4zM360 264C360 281.7 345.7 296 328 296C310.3 296 296 281.7 296 264C296 246.3 310.3 232 328 232C345.7 232 360 246.3 360 264z"/><path fill="currentColor" d="M48 544L65.5 512L301.8 81.3L320 48L338.2 81.3L574.5 512L592 544L48 544zM320 114.6L102 512L538 512L320 114.6zM296 264C296 246.3 310.3 232 328 232C345.7 232 360 246.3 360 264C360 281.7 345.7 296 328 296C310.3 296 296 281.7 296 264zM329.9 328L330.3 328.8L353.9 376.1L380 391.7C381.7 388.5 389.7 373.9 404 348C413.8 365.9 430.7 396.6 454.5 440L472 472L336 472C348.8 448.7 358.3 431.3 364.6 419.8L333.7 401.2L256.2 357.9L242.9 350.4C247.9 340.3 251.5 333.1 253.7 328.7L254.1 327.9L329.9 327.9zM312 472L280 472L280 448.9L242.1 425.2L218.8 472L183.1 472C213.7 410.6 229 379.7 229.2 379.4C231.6 380.9 256.7 396.6 304.5 426.5L312 431.2L312 472.1zM418 440L404 414.6L390 440L417.9 440z"/></svg>