<svg xmlns="http://www.w3.org/2000/svg" viewBox="0 0 640 640"><!--! Font Awesome Pro 7.2.0 by @fontawesome - https://fontawesome.com License - https://fontawesome.com/license (Commercial License) Copyright 2026 Fonticons, Inc. --><path opacity=".4" fill="currentColor" d="M113.3 290.7L135.7 418.6L228.5 508.7L356.1 526.7L470 465.8L526.6 349.1L526.1 346.3C469.4 331 425.2 285.3 411.9 227.8C354.6 214.6 309.1 170.8 293.6 114.4L283.7 113L169.8 173.9L113.2 290.6zM280 416C280 429.3 269.3 440 256 440C242.7 440 232 429.3 232 416C232 402.7 242.7 392 256 392C269.3 392 280 402.7 280 416zM312 256C312 269.3 301.3 280 288 280C274.7 280 264 269.3 264 256C264 242.7 274.7 232 288 232C301.3 232 312 242.7 312 256zM440 352C440 365.3 429.3 376 416 376C402.7 376 392 365.3 392 352C392 338.7 402.7 328 416 328C429.3 328 440 338.7 440 352z"/><path fill="currentColor" d="M169.9 174L283.8 113.1L293.7 114.5C309.2 170.9 354.7 214.7 412 227.9C425.2 285.5 469.4 331.1 526.2 346.4L526.7 349.2L470.1 465.9L356.2 526.8L228.6 508.8L135.8 418.7L113.4 290.8L170 174.1zM553.9 319.2C492.4 312.5 444 262.1 440.2 199.7C377.8 196 327.5 147.5 320.7 86L277.9 80L145.7 150.7L80 286.1L106 434.4L213.8 539L362.1 560L494.3 489.3L560 353.9L553.9 319.2zM288 280C301.3 280 312 269.3 312 256C312 242.7 301.3 232 288 232C274.7 232 264 242.7 264 256C264 269.3 274.7 280 288 280zM280 416C280 402.7 269.3 392 256 392C242.7 392 232 402.7 232 416C232 429.3 242.7 440 256 440C269.3 440 280 429.3 280 416zM416 376C429.3 376 440 365.3 440 352C440 338.7 429.3 328 416 328C402.7 328 392 338.7 392 352C392 365.3 402.7 376 416 376z"/></svg>