<svg xmlns="http://www.w3.org/2000/svg" viewBox="0 0 640 640"><!--! Font Awesome Pro 7.2.0 by @fontawesome - https://fontawesome.com License - https://fontawesome.com/license (Commercial License) Copyright 2026 Fonticons, Inc. --><path opacity=".4" fill="currentColor" d="M128 208L128 480L176 480L176 416.2C176 416 176 415.9 176 415.7L176 399.9C176 346.9 219 303.9 272 303.9C325 303.9 368 346.9 368 399.9L368 415.7C368 415.9 368 416 368 416.2L368 480L416 480L416 278.1C424.6 282.4 453.7 296.9 503.2 321.7L512 326.1L512 403.3L560.8 480L608 480L608 357L590.8 332.2L588 328.1L588 256.8L564 256.8L564 293.4C546.3 267.8 523.4 234.8 495.5 194.4C480.6 172.8 456 159.9 429.7 159.9L399.9 159.9C398.6 186.1 387.5 211 368.9 229.7L365.3 233.3C340.5 258.1 307 272 272 272C237 272 203.5 258.1 178.7 233.4L175.1 229.8C159.1 213.8 148.7 193.2 145.2 171.1C134.6 179.9 127.9 193.2 127.9 208zM584 384C584 392.8 576.8 400 568 400C559.2 400 552 392.8 552 384C552 375.2 559.2 368 568 368C576.8 368 584 375.2 584 384z"/><path fill="currentColor" d="M176.2 160L367.8 160C366.5 177.7 358.9 194.5 346.2 207.2L342.6 210.8C323.9 229.5 298.5 240 272 240C245.5 240 220.1 229.5 201.4 210.7L197.8 207.1C185.1 194.4 177.5 177.7 176.2 159.9zM399.9 160L429.7 160C456 160 480.5 172.9 495.5 194.5C523.4 234.9 546.3 267.9 564 293.5L564 256.9L588 256.9L588 328.2L590.8 332.3L608 357.1L608 480.1L560.8 480.1L512 403.4L512 326.2L503.2 321.8C453.7 297.1 424.7 282.5 416 278.2L416 480.1L368 480.1L368 416.3C368 416.1 368 416 368 415.8L368 400C368 347 325 304 272 304C219 304 176 347 176 400L176 415.8C176 416 176 416.1 176 416.3L176 480.1L128 480.1L128 208.1C128 193.3 134.7 180 145.3 171.2C148.8 193.3 159.2 213.9 175.2 229.9L178.8 233.5C203.5 258.1 237 272 272 272C307 272 340.5 258.1 365.3 233.4L368.9 229.8C387.6 211.1 398.6 186.2 399.9 160zM336 439.8L336 512L448 512L448 329.9L480 345.9L480 412.7L482.5 416.6L538.5 504.6L543.2 512L640 512L640 347L637.2 342.9L620 318.1L620 224.8L555.4 224.8L521.8 176.2C500.9 146 466.5 128 429.7 128L112 128C67.8 128 32 163.8 32 208L32 296.6C12.9 307.6 0 328.3 0 352L0 384C35.3 384 64 355.3 64 320L64 208C64 181.5 85.5 160 112 160C102 173.4 96 190 96 208L96 512L208 512L208 439.8C214.6 441.8 222.6 443.6 232 445.1L232 472L264 472L264 447.9C269.1 448 274.9 448 280 447.9L280 472L312 472L312 445.1C321.4 443.6 329.4 441.8 336 439.8zM336 406C333.9 406.8 331.3 407.8 328.3 408.7C316.9 412.2 298.5 416 272 416C245.5 416 227.1 412.2 215.7 408.7C212.7 407.8 210.1 406.8 208 406L208 400C208 364.7 236.7 336 272 336C307.3 336 336 364.7 336 400L336 406zM568 400C576.8 400 584 392.8 584 384C584 375.2 576.8 368 568 368C559.2 368 552 375.2 552 384C552 392.8 559.2 400 568 400z"/></svg>