<svg xmlns="http://www.w3.org/2000/svg" viewBox="0 0 640 640"><!--! Font Awesome Pro 7.2.0 by @fontawesome - https://fontawesome.com License - https://fontawesome.com/license (Commercial License) Copyright 2026 Fonticons, Inc. --><path opacity=".4" fill="currentColor" d="M96 320L544 320L544 416L96 416L96 320zM96 448L544 448L544 544L96 544L96 448zM128 235.4C128 217.9 132.2 201.2 139 189.9C144.3 181.1 150 177.2 156.4 176.2L215.2 193L224 195.5L232.8 193L291.6 176.2C298 177.2 303.7 181.1 309 189.9C315.8 201.1 320 217.9 320 235.4C320 242.5 319.5 249.4 318.5 256C255.5 256 192.5 256 129.5 256C128.5 249.4 128 242.6 128 235.4zM128 368C128 376.8 135.2 384 144 384C152.8 384 160 376.8 160 368C160 359.2 152.8 352 144 352C135.2 352 128 359.2 128 368zM128 496C128 504.8 135.2 512 144 512C152.8 512 160 504.8 160 496C160 487.2 152.8 480 144 480C135.2 480 128 487.2 128 496zM376.1 184.2C400.6 191.2 413.9 195 416 195.6L424.8 193.1L483.6 176.3C490 177.3 495.7 181.2 501 190C507.8 201.2 512 218 512 235.5C512 242.6 511.5 249.5 510.5 256.1L383 256C383.7 249.3 384 242.4 384 235.4C384 218.8 381.6 201 376.1 184.1zM480 368C480 376.8 487.2 384 496 384C504.8 384 512 376.8 512 368C512 359.2 504.8 352 496 352C487.2 352 480 359.2 480 368zM480 496C480 504.8 487.2 512 496 512C504.8 512 512 504.8 512 496C512 487.2 504.8 480 496 480C487.2 480 480 487.2 480 496z"/><path fill="currentColor" d="M283.3 91.3L260.7 68.7L217.4 112L240 134.6L283.3 91.3zM475.3 91.3L452.7 68.7C427.9 93.5 413.5 107.9 409.4 112L432 134.6C436.1 130.5 450.5 116.1 475.3 91.3zM224 162.3L160 144C116.4 144 96 191.8 96 235.4C96 242.4 96.4 249.3 97.2 256L129.5 256C128.5 249.4 128 242.6 128 235.4C128 217.9 132.2 201.2 139 189.9C144.3 181.1 150 177.2 156.4 176.2L215.2 193L224 195.5L232.8 193L291.6 176.2C298 177.2 303.7 181.1 309 189.9C315.8 201.1 320 217.9 320 235.4C320 242.5 319.5 249.4 318.5 256L350.8 256C351.6 249.3 352 242.5 352 235.4C352 191.8 331.6 144 288 144L224 162.3zM542.8 256C543.6 249.3 544 242.5 544 235.4C544 191.8 523.6 144 480 144L416 162.3L355.4 145C358.4 148.8 361.2 152.7 363.7 156.8C368.9 165.3 373 174.6 376.1 184.2C400.6 191.2 413.9 195 416 195.6L424.8 193.1L483.6 176.3C490 177.3 495.7 181.2 501 190C507.8 201.2 512 218 512 235.5C512 242.6 511.5 249.5 510.5 256.1L542.8 256.1zM96 544L96 448L544 448L544 544L96 544zM96 320L544 320L544 416L96 416L96 320zM576 432L576 288L64 288L64 576L576 576L576 432zM144 384C152.8 384 160 376.8 160 368C160 359.2 152.8 352 144 352C135.2 352 128 359.2 128 368C128 376.8 135.2 384 144 384zM512 368C512 359.2 504.8 352 496 352C487.2 352 480 359.2 480 368C480 376.8 487.2 384 496 384C504.8 384 512 376.8 512 368zM144 512C152.8 512 160 504.8 160 496C160 487.2 152.8 480 144 480C135.2 480 128 487.2 128 496C128 504.8 135.2 512 144 512zM512 496C512 487.2 504.8 480 496 480C487.2 480 480 487.2 480 496C480 504.8 487.2 512 496 512C504.8 512 512 504.8 512 496z"/></svg>