<svg xmlns="http://www.w3.org/2000/svg" viewBox="0 0 640 640"><!--! Font Awesome Pro 7.2.0 by @fontawesome - https://fontawesome.com License - https://fontawesome.com/license (Commercial License) Copyright 2026 Fonticons, Inc. --><path opacity=".4" fill="currentColor" d="M112.5 218.5L112.5 440C176.5 476.9 240.4 513.8 304.3 550.8L304.3 329.3L112.5 218.5zM128.5 190.8L320.3 301.5L512.2 190.8C448.2 153.9 384.3 117 320.4 80C256.4 116.9 192.5 153.8 128.6 190.8z"/><path fill="currentColor" d="M80.5 181.5L320.3 43L560.1 181.5L560.1 458.5L320.3 597L80.5 458.5L80.5 181.5zM512.2 190.7L320.3 80L128.5 190.8L320.3 301.5L512.2 190.8zM112.5 218.5L112.5 440L304.3 550.8L304.3 329.3L112.5 218.5zM336.3 550.8L528.1 440L528.1 218.5L336.3 329.3L336.3 550.8z"/></svg>