<svg xmlns="http://www.w3.org/2000/svg" viewBox="0 0 640 640"><!--! Font Awesome Pro 7.2.0 by @fontawesome - https://fontawesome.com License - https://fontawesome.com/license (Commercial License) Copyright 2026 Fonticons, Inc. --><path opacity=".4" fill="currentColor" d="M112 328L112 345.4L139.3 372.7L144 377.4L144 418.6L143.2 421.1L128.9 464L155.6 544L201.9 544L176.9 469.1L173 457.5C174.9 456.2 191.4 445.2 222.6 424.5L216.3 386.7L241 370.8L285 400.1L368.2 400.1L368.2 544.1L416.2 544.1L416.2 375.1C416.2 368.9 417.1 362.7 418.9 356.7L440.9 283.4L444.3 272L544.2 272L544.2 238.6L465.6 160L420.4 160L392.5 260.3L389.2 272L168.1 272C137.2 272 112.1 297.1 112.1 328zM480 208C480 216.8 472.8 224 464 224C455.2 224 448 216.8 448 208C448 199.2 455.2 192 464 192C472.8 192 480 199.2 480 208z"/><path fill="currentColor" d="M320 80L320 64L288 64L288 104C288 134.9 313.1 160 344 160L383.2 160C352.1 180.8 334.3 192.6 329.9 195.6L347.7 222.2C356.5 216.3 365.5 210.3 374.8 204.1L364.7 240L160 240C107 240 64 283 64 336L64 400L96 400L96 374.6L112 390.6L112 413.4L96.8 458.9L95.1 464L128.8 565.1L132.4 576L246.1 576C244.9 572.5 233.2 537.4 210.9 470.5C241 450.4 256.5 440.1 257.3 439.5C256.2 432.9 255 425.7 253.7 417.7C267.4 426.8 274.5 431.6 275 431.9L335.8 431.9L335.8 575.9L447.8 575.9L447.8 374.9C447.8 371.8 448.3 368.7 449.2 365.7L467.8 303.9L575.9 303.9L575.9 225.3L571.2 220.6L504.7 154.1C523.3 145.1 536 126 536 104L536 64L504 64L504 104C504 117.3 493.3 128 480 128L410.6 128C414.1 120.7 416 112.6 416 104L416 64L384 64L384 104C384 117.3 373.3 128 360 128L344 128C330.7 128 320 117.3 320 104L320 80zM465.4 160L544 238.6L544 272L444.1 272L440.7 283.4L418.7 356.7C416.9 362.7 416 368.9 416 375.1L416 544.1L368 544.1L368 400.1L284.8 400.1L240.8 370.8L216.1 386.7L222.4 424.5C191.3 445.3 174.7 456.3 172.8 457.5L176.7 469.1L201.7 544L155.4 544L128.7 464L143 421.1L143.8 418.6L143.8 377.4L139.1 372.7L111.8 345.4L111.8 328C111.8 297.1 136.9 272 167.8 272L388.9 272L392.2 260.3L420.1 160L465.3 160zM480 208C480 199.2 472.8 192 464 192C455.2 192 448 199.2 448 208C448 216.8 455.2 224 464 224C472.8 224 480 216.8 480 208z"/></svg>