<svg xmlns="http://www.w3.org/2000/svg" viewBox="0 0 640 640"><!--! Font Awesome Pro 7.2.0 by @fontawesome - https://fontawesome.com License - https://fontawesome.com/license (Commercial License) Copyright 2026 Fonticons, Inc. --><path opacity=".4" fill="currentColor" d="M80 328L80 345.4L107.3 372.7L112 377.4L112 418.6L111.2 421.1L96.9 464L123.6 544L169.9 544L144.9 469.1L141 457.5C142.9 456.2 159.4 445.2 190.6 424.5L184.3 386.7L209 370.8L253 400.1L336.2 400.1L336.2 544.1L384.2 544.1L384.2 375.1C384.2 368.9 385.1 362.7 386.9 356.7L408.9 283.4L412.3 272L512.2 272L512.2 238.6L433.6 160L388.4 160L360.5 260.3L357.2 272L136.1 272C105.2 272 80.1 297.1 80.1 328zM448 208C448 216.8 440.8 224 432 224C423.2 224 416 216.8 416 208C416 199.2 423.2 192 432 192C440.8 192 448 199.2 448 208z"/><path fill="currentColor" d="M288 64L288 104C288 117.3 298.7 128 312 128L328 128C341.3 128 352 117.3 352 104L352 64L384 64L384 104C384 112.6 382.1 120.7 378.6 128L448 128C461.3 128 472 117.3 472 104L472 64L504 64L504 104C504 126 491.3 145.1 472.8 154.2L507.8 189.2C515.1 172 532.1 160 552 160C578.5 160 600 181.5 600 208C600 234.5 578.5 256 552 256C549.3 256 546.6 255.8 544 255.3L544 304L435.9 304L417.3 365.8C416.4 368.8 415.9 371.9 415.9 375L415.9 576L303.9 576L303.9 432L243.1 432C242.6 431.7 235.5 426.9 221.8 417.8C223.1 425.7 224.3 433 225.4 439.6C224.5 440.2 209 450.5 179 470.6C201.3 537.4 213 572.6 214.2 576.1L100.5 576.1L96.9 565.2L63.2 464.1L64.9 459L80.1 413.5L80.1 390.7L64.1 374.7L64.1 400.1L32.1 400.1L32.1 336.1C32.1 283.1 75.1 240.1 128.1 240.1L332.8 240.1L342.8 204.2C333.5 210.4 324.4 216.4 315.7 222.3L297.9 195.7C302.3 192.8 320.1 180.9 351.2 160.1L312 160C281.1 160 256 134.9 256 104L256 64L288 64zM388.2 160L360.3 260.3L357 272L135.9 272C105 272 79.9 297.1 79.9 328L79.9 345.4L107.2 372.7L111.9 377.4L111.9 418.6L111.1 421.1L96.8 464L123.5 544L169.8 544L144.8 469.1L140.9 457.5C142.8 456.2 159.3 445.2 190.5 424.5L184.2 386.7L208.9 370.8L252.9 400.1L336.1 400.1L336.1 544.1L384.1 544.1L384.1 375.1C384.1 368.9 385 362.7 386.8 356.7L408.8 283.4L412.2 272L512.1 272L512.1 238.6L433.5 160L388.3 160zM432 192C440.8 192 448 199.2 448 208C448 216.8 440.8 224 432 224C423.2 224 416 216.8 416 208C416 199.2 423.2 192 432 192zM568 208C568 199.2 560.8 192 552 192C543.2 192 536 199.2 536 208C536 216.8 543.2 224 552 224C560.8 224 568 216.8 568 208z"/></svg>