<svg xmlns="http://www.w3.org/2000/svg" viewBox="0 0 640 640"><!--! Font Awesome Pro 7.2.0 by @fontawesome - https://fontawesome.com License - https://fontawesome.com/license (Commercial License) Copyright 2026 Fonticons, Inc. --><path opacity=".4" fill="currentColor" d="M96 160L96 480L449.9 480L596.6 320L449.9 160L96 160zM209.4 264L232 241.4C234 243.4 252.6 262 288 297.4C323.3 262.1 342 243.4 344 241.4L366.6 264C364.6 266 346 284.6 310.6 320C345.9 355.3 364.6 374 366.6 376L344 398.6C342 396.6 323.4 378 288 342.6C252.7 378 234 396.6 232 398.6L209.4 376C211.4 374 230 355.4 265.4 320L209.4 264z"/><path fill="currentColor" d="M64 512L464 512L640 320L464 128L64 128L64 512zM596.6 320L449.9 480L96 480L96 160L449.9 160L596.6 320zM209.4 264L265.4 320C230 355.4 211.4 374 209.4 376L232 398.6C234 396.6 252.7 378 288 342.6C323.4 378 342 396.6 344 398.6L366.6 376C364.6 374 345.9 355.3 310.6 320C346 284.6 364.6 266 366.6 264L344 241.4C342 243.4 323.3 262.1 288 297.4C252.6 262 234 243.4 232 241.4L209.4 264z"/></svg>