<svg xmlns="http://www.w3.org/2000/svg" viewBox="0 0 640 640"><!--! Font Awesome Pro 7.2.0 by @fontawesome - https://fontawesome.com License - https://fontawesome.com/license (Commercial License) Copyright 2026 Fonticons, Inc. --><path opacity=".4" fill="currentColor" d="M128 128L128 256L512 256L512 128L128 128zM320 384L320 512L512 512L512 384L320 384z"/><path fill="currentColor" d="M512 128L512 256L128 256L128 128L512 128zM208 288L544 288L544 96L96 96L96 288L176 288L176 464L288 464L288 544L544 544L544 352L288 352L288 432L208 432L208 288zM320 432L320 384L512 384L512 512L320 512L320 432z"/></svg>