<svg xmlns="http://www.w3.org/2000/svg" viewBox="0 0 640 640"><!--! Font Awesome Pro 7.2.0 by @fontawesome - https://fontawesome.com License - https://fontawesome.com/license (Commercial License) Copyright 2026 Fonticons, Inc. --><path opacity=".4" fill="currentColor" d="M96 218L96 403.4L178.2 276.2L96 218zM108.6 442.8L290.5 462.3L199.1 302.7L108.5 442.8zM113.8 191.4L194.9 248.7L283.1 95.5L113.9 191.4zM137.9 478.2L304 572.3L304 496L137.9 478.2zM227.7 256L412.4 256L320 95.5L227.7 256zM227.6 288L320 449.4L412.4 288L227.6 288zM336 495.9L336 572.2L502.1 478.1L336 495.9zM349.4 462.3L531.3 442.8L440.7 302.7L349.3 462.3zM357 95.6L445.2 248.8L526.3 191.5L357.1 95.6zM461.8 276.2L544 403.4L544 218.2L461.8 276.3z"/><path fill="currentColor" d="M576 182.9L576 473.1L320 618.1L64 473.1L64 182.9L320 37.8L576 182.9zM304 572.3L304 496L137.9 478.2L304 572.3zM336 496L336 572.3L502.1 478.2L336 496zM108.6 442.8L290.5 462.3L199.1 302.7L108.5 442.8zM349.4 462.3L531.3 442.8L440.7 302.7L349.3 462.3zM320 449.4L412.4 288L227.6 288L320 449.4zM96 403.4L178.2 276.2L96 218L96 403.4zM461.8 276.2L544 403.4L544 218.2L461.8 276.3zM227.7 256L412.4 256L320 95.5L227.7 256zM113.8 191.5L194.9 248.8L283.1 95.6L113.9 191.5zM445.1 248.8L526.2 191.5L357 95.6L445.2 248.8z"/></svg>