<svg xmlns="http://www.w3.org/2000/svg" viewBox="0 0 640 640"><!--! Font Awesome Pro 7.2.0 by @fontawesome - https://fontawesome.com License - https://fontawesome.com/license (Commercial License) Copyright 2026 Fonticons, Inc. --><path opacity=".4" fill="currentColor" d="M68 320L160.2 234.3L160.2 288L480.2 288L480.2 234.3L572.4 320L480.2 405.7L480.2 352L160.2 352L160.2 405.7L68 320z"/><path fill="currentColor" d="M44.5 341.8L39.9 337.6L21 320C37.1 305.1 59.2 284.6 151.9 198.4C153.5 196.9 167 184.4 192.2 161L192.2 256L448.2 256L448.2 161C487.6 197.6 501.3 210.3 596 298.2C596.7 298.8 604.5 306.1 619.5 320L600.6 337.6L596 341.8L488.6 441.6C487 443.1 473.5 455.6 448.3 479L448.3 384L192.3 384L192.3 479C152.9 442.4 139.2 429.7 44.5 341.8zM68 320L160.2 405.7L160.2 352L480.2 352L480.2 405.7L572.4 320L480.2 234.3L480.2 288L160.2 288L160.2 234.3L68 320z"/></svg>