<svg xmlns="http://www.w3.org/2000/svg" viewBox="0 0 640 640"><!--! Font Awesome Pro 7.2.0 by @fontawesome - https://fontawesome.com License - https://fontawesome.com/license (Commercial License) Copyright 2026 Fonticons, Inc. --><path opacity=".4" fill="currentColor" d="M234.4 160L288.1 160L288.1 480L234.4 480L320.1 572.2L405.8 480L352.1 480L352.1 160L405.8 160L320.1 67.8L234.4 160z"/><path fill="currentColor" d="M320 20.7L479 192L384 192L384 448L479 448L320 619.3L161 448L256 448L256 192L161 192L320 20.7zM320 67.7L234.3 159.9L288 159.9L288 479.9L234.3 479.9L320 572.1L405.7 479.9L352 479.9L352 159.9L405.7 159.9L320 67.7z"/></svg>