<svg xmlns="http://www.w3.org/2000/svg" viewBox="0 0 640 640"><!--! Font Awesome Pro 7.2.0 by @fontawesome - https://fontawesome.com License - https://fontawesome.com/license (Commercial License) Copyright 2026 Fonticons, Inc. --><path opacity=".4" fill="currentColor" d="M160 96L160 544L480 544L480 96L160 96zM440 312C440 325.3 429.3 336 416 336C402.7 336 392 325.3 392 312C392 298.7 402.7 288 416 288C429.3 288 440 298.7 440 312z"/><path fill="currentColor" d="M480 96L480 544L160 544L160 96L480 96zM512 544L512 64L128 64L128 544L96 544L96 576L544 576L544 544L512 544zM416 288C402.7 288 392 298.7 392 312C392 325.3 402.7 336 416 336C429.3 336 440 325.3 440 312C440 298.7 429.3 288 416 288z"/></svg>