<svg xmlns="http://www.w3.org/2000/svg" viewBox="0 0 640 640"><!--! Font Awesome Pro 7.2.0 by @fontawesome - https://fontawesome.com License - https://fontawesome.com/license (Commercial License) Copyright 2026 Fonticons, Inc. --><path opacity=".4" fill="currentColor" d="M160 96L384 96L384 544L160 544L160 96zM296 312C296 325.3 306.7 336 320 336C333.3 336 344 325.3 344 312C344 298.7 333.3 288 320 288C306.7 288 296 298.7 296 312z"/><path fill="currentColor" d="M160 96L160 544L384 544L384 96L160 96zM416 96L416 576L96 576L96 544L128 544L128 64L512 64L512 544L544 544L544 576L480 576L480 96L416 96zM344 312C344 325.3 333.3 336 320 336C306.7 336 296 325.3 296 312C296 298.7 306.7 288 320 288C333.3 288 344 298.7 344 312z"/></svg>