<svg xmlns="http://www.w3.org/2000/svg" viewBox="0 0 640 640"><!--! Font Awesome Pro 7.2.0 by @fontawesome - https://fontawesome.com License - https://fontawesome.com/license (Commercial License) Copyright 2026 Fonticons, Inc. --><path opacity=".4" fill="currentColor" d="M96 272C96 301.2 115 332.4 155.9 358C196.4 383.3 254.3 400 320 400C385.7 400 443.6 383.3 484.1 358C525 332.4 544 301.2 544 272C544 242.8 525 211.6 484.1 186C454.5 167.5 415.6 153.6 371.2 147.5C370 148.7 356.7 162 331.4 187.3L320 198.6L297.4 176C303.4 170 314 159.4 329.3 144.1C326.2 144 323.1 144 320 144C254.3 144 196.4 160.7 155.9 186C115 211.6 96 242.8 96 272zM112 256L176 256L176 288L112 288L112 256zM169.4 224C173.5 219.9 187.9 205.5 212.7 180.7L224 169.4L246.6 192C242.5 196.1 228.1 210.5 203.3 235.3L192 246.6L169.4 224zM185.4 320L208 297.4C212.1 301.5 226.5 315.9 251.3 340.7L262.6 352L240 374.6C235.9 370.5 221.5 356.1 196.7 331.3L185.4 320zM240 256C240 229.5 275.8 208 320 208C364.2 208 400 229.5 400 256C400 282.5 364.2 304 320 304C275.8 304 240 282.5 240 256zM329.4 368C333.5 363.9 347.9 349.5 372.7 324.7L384 313.4L406.6 336C402.5 340.1 388.1 354.5 363.3 379.3L352 390.6L329.4 368zM425.4 208L448 185.4C452.1 189.5 466.5 203.9 491.3 228.7L502.6 240L480 262.6C475.9 258.5 461.5 244.1 436.7 219.3L425.4 208zM425.4 304L448 281.4C464.2 297.6 484.1 317.5 486.6 320L464 342.6C447.8 326.4 427.9 306.5 425.4 304z"/><path fill="currentColor" d="M155.9 186C196.4 160.7 254.3 144 320 144C323.1 144 326.2 144 329.3 144.1C314 159.4 303.4 170 297.4 176L320 198.6C324.1 194.5 338.5 180.1 363.3 155.3L371.1 147.5C415.5 153.6 454.4 167.5 484 186C524.9 211.6 543.9 242.8 543.9 272C543.9 301.2 524.9 332.4 484 358C443.5 383.3 385.6 400 319.9 400C254.2 400 196.4 383.3 155.9 358C115 332.4 96 301.2 96 272C96 242.8 115 211.6 155.9 186zM320 112C178.6 112 64 183.6 64 272L64 368C64 456.4 178.6 528 320 528C461.4 528 576 456.4 576 368L576 272C576 183.6 461.4 112 320 112zM544 368C544 397.2 525 428.4 484.1 454C443.6 479.3 385.7 496 320 496C254.3 496 196.4 479.3 155.9 454C115 428.4 96 397.2 96 368L96 349.5C139.7 398.7 223.6 432 320 432C416.4 432 500.3 398.7 544 349.5L544 368zM235.3 203.3L246.6 192L224 169.4C219.9 173.5 205.5 187.9 180.7 212.7L169.4 224L192 246.6C196.1 242.5 210.5 228.1 235.3 203.3zM459.3 196.7L448 185.4L425.4 208C429.5 212.1 443.9 226.5 468.7 251.3L480 262.6L502.6 240C498.5 235.9 484.1 221.5 459.3 196.7zM128 256L112 256L112 288L176 288L176 256L128 256zM459.3 292.7L448 281.4L425.4 304C441.6 320.2 461.5 340.1 464 342.6L486.6 320C479.8 313.2 470.7 304.1 459.3 292.7zM219.3 308.7L208 297.4L185.4 320C189.5 324.1 203.9 338.5 228.7 363.3L240 374.6L262.6 352C258.5 347.9 244.1 333.5 219.3 308.7zM395.3 347.3L406.6 336L384 313.4C379.9 317.5 365.5 331.9 340.7 356.7L329.4 368L352 390.6C356.1 386.5 370.5 372.1 395.3 347.3zM400 256C400 229.5 364.2 208 320 208C275.8 208 240 229.5 240 256C240 282.5 275.8 304 320 304C364.2 304 400 282.5 400 256zM320 280C293.5 280 272 269.3 272 256C272 242.7 293.5 232 320 232C346.5 232 368 242.7 368 256C368 269.3 346.5 280 320 280z"/></svg>