<svg xmlns="http://www.w3.org/2000/svg" viewBox="0 0 640 640"><!--! Font Awesome Pro 7.2.0 by @fontawesome - https://fontawesome.com License - https://fontawesome.com/license (Commercial License) Copyright 2026 Fonticons, Inc. --><path opacity=".4" fill="currentColor" d="M68 288L93.6 160L165.9 160L146.7 288L68 288zM98.6 320L315 320C291.5 355 272.4 398.6 272.4 447.8C272.4 458.7 273.2 469.5 274.9 480L118.6 480L98.6 320zM179.1 288L198.3 160L304.5 160L304.5 288L179.1 288zM336.5 160L442.4 160L448.4 199.3C440 204.6 431.5 209.9 423.1 215.1C400 229.5 368 254.8 339.6 288L336.6 288L336.6 160zM474.8 160L547.4 160L563.7 241.3C556.3 235.2 549 229 541.6 222.9L512.5 252C503.2 242.7 493.9 233.4 484.5 224L474.8 160z"/><path fill="currentColor" d="M67.4 128L573.6 128L576.2 140.9L603.4 276.8C594.8 268.1 585.4 259.5 575.2 251L563.6 241.4L547.3 160.1L474.7 160.1L484.4 224.1L455.3 195L448.3 199.4L442.3 160.1L336.4 160.1L336.4 288.1L339.4 288.1C336.5 291.5 333.6 294.9 330.8 298.4C325.4 305.2 320 312.4 314.9 320.1L98.5 320.1L118.5 480.1L274.8 480.1C276.5 491.1 279.1 501.8 282.4 512.1L122.4 512.1L126.4 544.1L94.2 544.1L66.2 320.1L28.8 320.1L32.6 301L64.6 141L67.2 128.1zM304.5 160L198.3 160L179.1 288L304.5 288L304.5 160zM165.9 160L93.6 160L68 288L146.7 288L165.9 160zM448.5 256C479.2 286.7 500.5 308 512.5 320C529.8 302.7 540.5 292 544.5 288C621.3 352 640.5 421.3 640.5 448C640.5 536.4 568.9 608 480.5 608C392.1 608 320.5 536.4 320.5 448C320.5 358.4 405.8 282.7 448.5 256zM535.1 342.6L512.5 365.2C501.1 353.8 478.6 331.3 444.9 297.6C428.7 310.3 410 327.6 393.5 348.3C369.2 378.8 352.5 413.3 352.5 448C352.5 481.3 365.2 511.6 386 534.3C385 529.2 384.5 523.9 384.5 518.5C384.5 448.1 480.5 384.1 480.5 384.1C480.5 384.1 576.5 448.1 576.5 518.5C576.5 523.9 576 529.1 575 534.3C595.8 511.5 608.5 481.2 608.5 448C608.5 433.9 597.5 384.3 545.5 332.2L535.1 342.6zM480.5 576.1C518 576.1 544.5 548.3 544.5 518.5C544.5 496.6 528.6 471 505.5 447.2C496.7 438.2 487.9 430.3 480.5 424.2C473.1 430.3 464.3 438.1 455.5 447.2C432.4 471 416.5 496.7 416.5 518.5C416.5 548.3 443 576.1 480.5 576.1z"/></svg>