<svg xmlns="http://www.w3.org/2000/svg" viewBox="0 0 640 640"><!--! Font Awesome Pro 7.2.0 by @fontawesome - https://fontawesome.com License - https://fontawesome.com/license (Commercial License) Copyright 2026 Fonticons, Inc. --><path opacity=".4" fill="currentColor" d="M96 464L96 544L254 544L265 535.2L409.7 419.5L414.1 416L544.1 416L544.1 336L386.1 336L375.1 344.8L230.4 460.5L226 464L96 464zM224 224L224 352.9C256 327.3 288 301.7 320 276.1C320 258.8 320 241.4 320 224.1L224 224.1zM248 104C248 117.3 258.7 128 272 128C285.3 128 296 117.3 296 104C296 90.7 285.3 80 272 80C258.7 80 248 90.7 248 104z"/><path fill="currentColor" d="M272 128C285.3 128 296 117.3 296 104C296 90.7 285.3 80 272 80C258.7 80 248 90.7 248 104C248 117.3 258.7 128 272 128zM272 48C302.9 48 328 73.1 328 104C328 134.9 302.9 160 272 160C241.1 160 216 134.9 216 104C216 73.1 241.1 48 272 48zM374.7 304L576 304L576 448L425.3 448L285 560.2C272.9 569.8 266.4 575.1 265.3 576L64 576L64 432L214.7 432L355 319.8C367.1 310.2 373.6 304.9 374.7 304zM386 336L375 344.8L230.3 460.5L225.9 464L95.9 464L95.9 544L253.9 544L264.9 535.2L409.6 419.5L414 416L544 416L544 336L386 336zM320 224L224 224L224 352.9L192 378.5L192 192L352 192L352 250.5L320 276.1L320 276.1L320 224z"/></svg>