<svg xmlns="http://www.w3.org/2000/svg" viewBox="0 0 640 640"><!--! Font Awesome Pro 7.2.0 by @fontawesome - https://fontawesome.com License - https://fontawesome.com/license (Commercial License) Copyright 2026 Fonticons, Inc. --><path opacity=".4" fill="currentColor" d="M73.6 388.7C82.9 382.8 92.9 378.5 103.3 375.8C98.7 358 96.3 339.3 96.3 320C96.3 196.3 196.6 96 320.3 96C444 96 544.3 196.3 544.3 320C544.3 339.1 541.9 357.7 537.4 375.4C547.8 377.9 557.9 382.1 567.2 387.9C563.5 401.3 558.8 414.3 553 426.8C527.9 406.3 490.8 407.8 467.4 431.2C464.8 433.8 462.4 436.6 460.4 439.6C411.5 412.7 372.6 391.3 343.8 375.5C359.7 404.3 381 443.2 407.9 492.1C405 494.2 402.2 496.5 399.5 499.1C380.9 517.7 376.2 544.8 385.2 567.7C372.3 571.1 359 573.5 345.3 574.8C342.1 564.5 340.6 553.8 340.8 543.1C327.1 544.3 313.6 544.3 301.4 543.2C301.5 553.9 300 564.6 296.8 574.9C283.1 573.7 269.8 571.3 256.8 568C266 545 261.2 517.7 242.6 499C239.8 496.2 236.8 493.7 233.7 491.5C260 442.8 280.9 404.1 296.5 375.3C267.8 391.2 229.5 412.5 181.6 439.1C179.6 436.3 177.3 433.6 174.8 431.1C151 407.3 113.2 406.2 88.1 427.6C82.3 415.1 77.5 402.1 73.7 388.6zM168.3 304L168.3 336L280.3 336L280.3 304L168.3 304zM186.8 231.2C188.1 231.8 214.2 244.9 265.1 270.4L279.4 277.6L293.7 249C292.4 248.4 266.3 235.3 215.4 209.8L201.1 202.6L186.8 231.2zM346.8 248.9L361.1 277.5C362.4 276.9 388.5 263.8 439.4 238.3L453.7 231.1L439.4 202.5C438.1 203.1 412 216.2 361.1 241.7L346.8 248.9zM360.3 304L360.3 336L472.3 336L472.3 304L360.3 304z"/><path fill="currentColor" d="M340.8 543.1C340.7 553.8 342.2 564.5 345.3 574.8C337.1 575.6 328.7 576 320.3 576C312.4 576 304.5 575.6 296.7 574.9C299.9 564.6 301.4 553.9 301.3 543.2C313.5 544.2 327.1 544.3 340.7 543.1zM96.3 320C96.3 339.3 98.7 357.9 103.3 375.8C92.9 378.5 82.9 382.8 73.6 388.7C67.5 366.8 64.3 343.8 64.3 320C64.3 178.6 178.9 64 320.3 64C461.7 64 576.3 178.6 576.3 320C576.3 343.5 573.1 366.3 567.2 387.9C557.8 382.1 547.8 378 537.4 375.4C541.9 357.7 544.3 339.1 544.3 320C544.3 196.3 444 96 320.3 96C196.6 96 96.3 196.3 96.3 320zM184.3 304L280.3 304L280.3 336L168.3 336L168.3 304L184.3 304zM376.3 304L472.3 304L472.3 336L360.3 336L360.3 304L376.3 304zM453.8 231.2L375.5 270.4L361.2 277.6L346.9 249L425.2 209.8L439.5 202.6L453.8 231.2zM201.2 238.4L186.9 231.2L201.2 202.6C202.5 203.2 228.6 216.3 279.5 241.8L293.8 249L279.5 277.6C278.2 277 252.1 263.9 201.2 238.4zM535.3 453.8C522.8 441.3 502.5 441.3 490 453.8C486.3 457.5 483.7 461.8 482.2 466.4L476.2 484.7C467.8 480.1 450.7 470.7 424.8 456.5C439 482.4 448.4 499.5 453 507.9L434.7 513.9C430.1 515.4 425.8 518 422.1 521.7C409.6 534.2 409.6 554.5 422.1 567C431.9 576.8 446.6 579 458.6 573.2L469.3 568.1L477.3 576.8C477.8 577.3 478.2 577.8 478.7 578.3C497.4 597 527.8 597 546.6 578.3C565.4 559.6 565.3 529.2 546.6 510.4C546.1 509.9 545.6 509.4 545.1 509L536.4 501L541.5 490.3C547.2 478.4 545.1 463.7 535.3 453.8zM467.4 431.2C492.4 406.2 532.9 406.2 557.9 431.2C574.8 448.1 580.2 472 574.4 493.4C600.4 524.8 598.7 571.5 569.3 600.9C539.9 630.3 493.2 632 461.8 606C440.4 611.9 416.4 606.4 399.6 589.5C374.6 564.5 374.6 524 399.6 499C402.2 496.4 405 494 408 492C381.1 443.1 359.7 404.2 343.9 375.4C372.7 391.3 411.6 412.6 460.5 439.5C462.6 436.6 464.9 433.8 467.5 431.1zM152.1 453.8C139.6 441.3 119.3 441.3 106.8 453.8C97 463.6 94.8 478.3 100.6 490.3L105.7 501L97 509C96.5 509.5 96 509.9 95.5 510.4C76.8 529.1 76.8 559.5 95.5 578.3C114.2 597.1 144.6 597 163.4 578.3C163.9 577.8 164.4 577.3 164.8 576.8L172.8 568.1L183.5 573.2C195.4 578.9 210.1 576.8 220 567C232.5 554.5 232.5 534.2 220 521.7C216.2 517.9 211.7 515.3 207 513.8L188.5 508C193.1 499.5 202.3 482.4 216.3 456.6C191.2 470.5 174.4 479.8 166 484.5L159.9 466.3C158.4 461.8 155.8 457.5 152.2 453.9zM84.2 431.2C109.2 406.2 149.7 406.2 174.7 431.2C177.2 433.7 179.5 436.4 181.5 439.2C229.4 412.6 267.7 391.4 296.4 375.4C280.8 404.2 259.9 442.9 233.6 491.6C236.7 493.8 239.7 496.3 242.5 499.1C267.5 524.1 267.5 564.6 242.5 589.6C225.6 606.5 201.7 611.9 180.3 606.1C148.9 632.1 102.2 630.4 72.8 601C43.4 571.6 41.8 524.8 67.8 493.4C61.9 472 67.4 448 84.3 431.2z"/></svg>