<svg xmlns="http://www.w3.org/2000/svg" viewBox="0 0 640 640"><!--! Font Awesome Pro 7.2.0 by @fontawesome - https://fontawesome.com License - https://fontawesome.com/license (Commercial License) Copyright 2026 Fonticons, Inc. --><path opacity=".4" fill="currentColor" d="M96 320C96 443.7 196.3 544 320 544C443.7 544 544 443.7 544 320C544 196.3 443.7 96 320 96C196.3 96 96 196.3 96 320zM171.8 298.1L181.9 267.7L197.1 272.8L293.1 304.8L308.3 309.9L298.2 340.3C288.9 337.2 277.1 333.3 262.9 328.5C263.7 330.9 264.1 333.4 264.1 336C264.1 349.3 253.4 360 240.1 360C226.8 360 216.1 349.3 216.1 336C216.1 327.8 220.2 320.6 226.4 316.3C196.1 306.2 178 300.2 171.9 298.1zM190.5 422L216.4 403.2C239.7 435.3 277.4 456 320 456C362.6 456 400.3 435.2 423.6 403.2L449.5 422C420.4 462 373.3 488 320 488C266.7 488 219.5 462 190.5 422zM331.8 309.9L347 304.8L443 272.8L458.2 267.7L468.3 298.1C462.2 300.1 444 306.2 413.8 316.3C420 320.6 424.1 327.8 424.1 336C424.1 349.3 413.4 360 400.1 360C386.8 360 376.1 349.3 376.1 336C376.1 333.4 376.5 330.8 377.3 328.5C363 333.3 351.3 337.2 342 340.3L331.9 309.9z"/><path fill="currentColor" d="M86 216C81.3 208.7 76.3 200.4 71.3 191.4C59.3 169.9 48.1 145.3 40.7 119.9L40.8 119.9C65 129 96.3 137.9 134.9 143.2C114.7 164.3 98 188.9 86 216zM167.4 114.5C105.4 109.7 60.6 94.7 33 82.2C11 72.3 0 64 0 64C0 77.3 1.4 90.5 3.9 103.6C14.8 161.2 46.1 214.6 67 245.3C69 248.3 71 251.1 72.8 253.6C67.1 274.8 64.1 297.1 64.1 320.1C64.1 461.5 178.7 576.1 320.1 576.1C461.5 576.1 576 461.4 576 320C576 297 573 274.7 567.3 253.5C569.1 251 571 248.2 573.1 245.2C594 214.6 625.3 161.2 636.2 103.5C638.7 90.5 640.1 77.2 640.1 63.9C640.1 63.9 629.1 72.2 607.1 82.1C579.6 94.5 534.8 109.6 472.7 114.4C430.1 82.7 377.3 63.9 320.1 63.9C262.9 63.9 210 82.8 167.4 114.5zM505.1 143.2C543.7 137.9 575 129 599.2 120L599.3 120C591.9 145.4 580.6 170 568.7 191.5C563.7 200.5 558.7 208.7 554 216.1C541.9 189 525.3 164.4 505.1 143.2zM96 320C96 196.3 196.3 96 320 96C443.7 96 544 196.3 544 320C544 443.7 443.7 544 320 544C196.3 544 96 443.7 96 320zM320 456C277.4 456 239.7 435.2 216.4 403.2L190.5 422C219.6 462 266.7 488 320 488C373.3 488 420.5 462 449.5 422L423.6 403.2C400.3 435.2 362.6 456 320 456zM264 336C264 333.4 263.6 330.8 262.8 328.5C277.1 333.3 288.8 337.2 298.1 340.3L308.2 309.9L293 304.8L197 272.8L181.8 267.7L171.7 298.1C177.8 300.1 196 306.2 226.2 316.3C220 320.6 215.9 327.8 215.9 336C215.9 349.3 226.6 360 239.9 360C253.2 360 263.9 349.3 263.9 336zM400 360C413.3 360 424 349.3 424 336C424 327.8 419.9 320.6 413.7 316.3C444 306.2 462.1 300.2 468.2 298.1L458.1 267.7L442.9 272.8L346.9 304.8L331.7 309.9L341.8 340.3C351.1 337.2 362.9 333.3 377.1 328.5C376.3 330.9 375.9 333.4 375.9 336C375.9 349.3 386.6 360 399.9 360z"/></svg>