<svg xmlns="http://www.w3.org/2000/svg" viewBox="0 0 640 640"><!--! Font Awesome Pro 7.2.0 by @fontawesome - https://fontawesome.com License - https://fontawesome.com/license (Commercial License) Copyright 2026 Fonticons, Inc. --><path opacity=".4" fill="currentColor" d="M96 320C96 196.3 196.3 96 320 96C443.7 96 544 196.3 544 320C544 340.7 541.2 360.8 535.9 379.9C545.8 384.8 555.4 390.2 564.5 396.1C559.6 411.8 553.2 426.9 545.6 441.2C543.3 439.6 541 438.1 538.7 436.6C502.8 413.4 459.8 400 432 400L426.1 430.9C452.6 441.5 465.9 461.1 472.8 482.6C476.9 495.3 478.7 508.5 479.5 520.4C465 532 449.1 542 432.2 550.3C432.1 548.2 432 546.2 432 544.1C432 534 431.9 524.2 430.7 514.9C398 533.5 360.2 544.1 320 544.1C196.3 544.1 96 443.8 96 320.1zM160 296L160 312C160 342.9 185.1 368 216 368L232 368C262.9 368 288 342.9 288 312L288 296L256 296L256 312C256 325.3 245.3 336 232 336L216 336C202.7 336 192 325.3 192 312L192 296L160 296zM223.7 445.9L248.5 466.1C265.4 445.3 291.1 432 320 432C340 432 358.5 438.4 373.6 449.2C377.8 427.4 380 416.1 380.1 415.5C362.3 405.6 341.8 400 320 400C281.1 400 246.4 417.9 223.7 445.9zM352 296L352 312C352 342.9 377.1 368 408 368L424 368C454.9 368 480 342.9 480 312L480 296L448 296L448 312C448 325.3 437.3 336 424 336L408 336C394.7 336 384 325.3 384 312L384 296L352 296z"/><path fill="currentColor" d="M544 320C544 340.7 541.2 360.8 535.9 379.9C545.8 384.8 555.4 390.2 564.5 396.1C572 372.1 576 346.5 576 320C576 178.6 461.4 64 320 64C178.6 64 64 178.6 64 320C64 461.4 178.6 576 320 576C360.2 576 398.3 566.7 432.2 550.2C432.1 548.2 432 546.1 432 544C432 533.9 431.9 524.1 430.7 514.8C398 533.4 360.2 544 320 544C196.3 544 96 443.7 96 320C96 196.3 196.3 96 320 96C443.7 96 544 196.3 544 320zM320 400C281.1 400 246.4 417.9 223.7 445.9L248.5 466.1C265.4 445.3 291.1 432 320 432C340 432 358.5 438.4 373.6 449.2C377.8 427.4 380 416.1 380.1 415.5C362.3 405.6 341.8 400 320 400zM384 312L384 296L352 296L352 312C352 342.9 377.1 368 408 368L424 368C454.9 368 480 342.9 480 312L480 296L448 296L448 312C448 325.3 437.3 336 424 336L408 336C394.7 336 384 325.3 384 312zM216 336C202.7 336 192 325.3 192 312L192 296L160 296L160 312C160 342.9 185.1 368 216 368L232 368C262.9 368 288 342.9 288 312L288 296L256 296L256 312C256 325.3 245.3 336 232 336L216 336zM432 400L426.1 430.9C452.6 441.5 465.9 461.1 472.8 482.6C479.9 504.7 480 527.9 480 544.1C480 579.4 508.7 608.1 544 608.1C579.3 608.1 608 579.4 608 544.1C608 496 574.5 459.8 538.7 436.7C502.8 413.5 459.8 400.1 432 400.1zM503.2 472.7C500.5 464.3 496.9 455.9 492.2 447.7C501.9 452 511.8 457.3 521.3 463.4C553.5 484.2 576 512 576 544C576 561.7 561.7 576 544 576C526.3 576 512 561.7 512 544L512 543.5C512 527.6 512 499.9 503.2 472.7z"/></svg>