<svg xmlns="http://www.w3.org/2000/svg" viewBox="0 0 640 640"><!--! Font Awesome Pro 7.2.0 by @fontawesome - https://fontawesome.com License - https://fontawesome.com/license (Commercial License) Copyright 2026 Fonticons, Inc. --><path opacity=".4" fill="currentColor" d="M96 320C96 443.7 196.3 544 320 544C348.2 544 375.2 538.8 400.1 529.3L348.3 477.5C339.1 479.1 329.6 480 319.9 480C242.5 480 177.9 425 163.1 352L195.9 352C210.1 407.2 260.2 448 319.9 448C379.6 448 429.7 407.2 443.9 352L476.7 352C475.2 359.4 473.2 366.6 470.7 373.6L515.6 418.5C516.9 419.8 518.1 421.1 519.2 422.4C535 391.7 543.9 356.9 543.9 320C543.9 196.3 443.6 96 319.9 96C196.2 96 96 196.3 96 320zM176 280C176 244.7 204.7 216 240 216C275.3 216 304 244.7 304 280L304 296L272 296L272 280C272 262.3 257.7 248 240 248C222.3 248 208 262.3 208 280L208 296L176 296L176 280zM336 280C336 244.7 364.7 216 400 216C435.3 216 464 244.7 464 280L464 296L432 296L432 280C432 262.3 417.7 248 400 248C382.3 248 368 262.3 368 280L368 296L336 296L336 280z"/><path fill="currentColor" d="M320 544C196.3 544 96 443.7 96 320C96 196.3 196.3 96 320 96C443.7 96 544 196.3 544 320C544 356.9 535.1 391.7 519.3 422.4C518.1 421.1 516.9 419.8 515.7 418.5L470.8 373.6C473.3 366.6 475.3 359.4 476.8 352L444 352C429.8 407.2 379.7 448 320 448C260.3 448 210.2 407.2 196 352L163.2 352C178 425 242.6 480 320 480C329.7 480 339.2 479.1 348.4 477.5L400.2 529.3C375.2 538.8 348.2 544 320 544zM456.1 404.2L493 441.1C511.7 459.8 511.7 490.2 493 509C474.3 527.8 443.9 527.7 425.1 509L383.1 467C413.4 454 438.8 431.9 456 404.1zM320 576C360.1 576 398.1 566.8 431.9 550.3C460.2 560.5 493 554.3 515.7 531.6C536.2 511.1 543.2 482.3 536.9 456.1C561.7 416.7 576.1 370 576.1 319.9C576.1 178.5 461.5 63.9 320.1 63.9C178.7 63.9 64 178.6 64 320C64 461.4 178.6 576 320 576zM240 248C257.7 248 272 262.3 272 280L272 296L304 296L304 280C304 244.7 275.3 216 240 216C204.7 216 176 244.7 176 280L176 296L208 296L208 280C208 262.3 222.3 248 240 248zM400 248C417.7 248 432 262.3 432 280L432 296L464 296L464 280C464 244.7 435.3 216 400 216C364.7 216 336 244.7 336 280L336 296L368 296L368 280C368 262.3 382.3 248 400 248z"/></svg>