<svg xmlns="http://www.w3.org/2000/svg" viewBox="0 0 640 640"><!--! Font Awesome Pro 7.2.0 by @fontawesome - https://fontawesome.com License - https://fontawesome.com/license (Commercial License) Copyright 2026 Fonticons, Inc. --><path opacity=".4" fill="currentColor" d="M98.1 349.8C98.3 351.8 98.6 353.8 98.9 355.9C109.6 355.7 120.2 354.2 130.6 351.4C145.9 460.2 239.4 544 352.4 544C476.1 544 576.4 443.7 576.4 320C576.4 196.3 476.1 96 352.4 96C339.5 96 326.9 97.1 314.7 99.2L279.1 134.8L277.8 136.1L325.8 184.1C276.2 233.7 234 275.9 199.1 310.8C171.4 338.5 134.5 351.6 98.1 349.9zM222.9 398L248.8 379.2C272.1 411.3 309.8 432 352.4 432C395 432 432.7 411.2 456 379.2L481.9 398C452.8 438 405.7 464 352.4 464C299.1 464 251.9 438 222.9 398zM296.4 272C296.4 285.3 285.7 296 272.4 296C259.1 296 248.4 285.3 248.4 272C248.4 258.7 259.1 248 272.4 248C285.7 248 296.4 258.7 296.4 272zM456.4 272C456.4 285.3 445.7 296 432.4 296C419.1 296 408.4 285.3 408.4 272C408.4 258.7 419.1 248 432.4 248C445.7 248 456.4 258.7 456.4 272z"/><path fill="currentColor" d="M211.7 12.7L200.4 1.4L189.1 12.7L37.1 164.7C4.3 197.5 4.3 250.6 37.1 283.3C69.9 316 123 316.1 155.7 283.3L235.7 203.3L247 192L199 144L259.7 83.3L271 72C269.6 70.6 249.8 50.8 211.7 12.7zM131.7 211.3L176.4 166.6L201.8 192L133.1 260.7C112.8 281 80 281 59.7 260.7C39.4 240.4 39.4 207.6 59.7 187.3L200.4 46.6L225.8 72L109.1 188.7L131.7 211.3zM98.9 355.9C116.3 480.3 223.2 576 352.4 576C493.8 576 608.4 461.4 608.4 320C608.4 178.6 493.8 64 352.4 64C350.5 64 348.7 64 346.8 64.1C323.6 87.3 311.6 99.3 311.1 99.8C324.5 97.3 338.3 96 352.4 96C476.1 96 576.4 196.3 576.4 320C576.4 443.7 476.1 544 352.4 544C239.3 544 145.9 460.2 130.6 351.4C120.2 354.2 109.6 355.7 98.9 355.9zM248.8 379.2L222.9 398C252 438 299.1 464 352.4 464C405.7 464 452.9 438 481.9 398L456 379.2C432.7 411.2 395 432 352.4 432C309.8 432 272.1 411.2 248.8 379.2zM272.4 296C285.7 296 296.4 285.3 296.4 272C296.4 258.7 285.7 248 272.4 248C259.1 248 248.4 258.7 248.4 272C248.4 285.3 259.1 296 272.4 296zM456.4 272C456.4 258.7 445.7 248 432.4 248C419.1 248 408.4 258.7 408.4 272C408.4 285.3 419.1 296 432.4 296C445.7 296 456.4 285.3 456.4 272z"/></svg>