<svg xmlns="http://www.w3.org/2000/svg" viewBox="0 0 640 640"><!--! Font Awesome Pro 7.2.0 by @fontawesome - https://fontawesome.com License - https://fontawesome.com/license (Commercial License) Copyright 2026 Fonticons, Inc. --><path opacity=".4" fill="currentColor" d="M96 320C96 302.5 98 285.4 101.8 269.1C110.2 271 118.9 272 128 272C190.9 272 240 222.9 240 160C240 143.4 236.1 128.2 230.4 114.6C257.8 102.6 288.1 96 320 96C443.7 96 544 196.3 544 320C544 443.7 443.7 544 320 544C196.3 544 96 443.7 96 320zM176 320L176 352L288 352L288 320L176 320zM223.7 461.9L248.5 482.1C265.4 461.3 291.1 448 320 448C348.9 448 374.6 461.3 391.5 482.1L416.3 461.9C393.6 433.9 358.9 416 320 416C281.1 416 246.4 433.9 223.7 461.9zM352 320L352 352L464 352L464 320L352 320z"/><path fill="currentColor" d="M128 192C146.7 192 160 178.7 160 160C160 152 156.7 142.3 148.9 130.5C143.1 121.8 135.8 113.4 128 105.3C120.2 113.4 112.9 121.8 107.1 130.5C99.3 142.2 96 152 96 160C96 178.7 109.3 192 128 192zM128 61.5C132.9 65.7 137.7 69.9 142.3 74.4C164.6 96.2 192 126.6 192 160C192 196.4 164.4 224 128 224C91.6 224 64 196.4 64 160C64 126.6 91.3 96.2 113.7 74.4C118.3 69.9 123.1 65.7 128 61.5zM64 320C64 298.2 66.7 277.1 71.8 256.9C81 262.3 91.1 266.4 101.8 268.9C98 285.3 96 302.4 96 320C96 443.7 196.3 544 320 544C443.7 544 544 443.7 544 320C544 196.3 443.7 96 320 96C287.9 96 257.3 102.8 229.7 114.9C228.3 111.8 226.9 109 225.5 106.3C221.9 99.3 217.8 92.8 213.9 86.9C246.2 72.2 282.1 64 320 64C461.4 64 576 178.6 576 320C576 461.4 461.4 576 320 576C178.6 576 64 461.4 64 320zM320 448C291.1 448 265.4 461.3 248.5 482.1L223.7 461.9C246.4 433.9 281.1 416 320 416C358.9 416 393.6 433.9 416.3 461.9L391.5 482.1C374.6 461.3 348.9 448 320 448zM192 320L288 320L288 352L176 352L176 320L192 320zM352 320L464 320L464 352L352 352L352 320z"/></svg>