<svg xmlns="http://www.w3.org/2000/svg" viewBox="0 0 640 640"><!--! Font Awesome Pro 7.2.0 by @fontawesome - https://fontawesome.com License - https://fontawesome.com/license (Commercial License) Copyright 2026 Fonticons, Inc. --><path opacity=".4" fill="currentColor" d="M64 320C64 196.3 164.3 96 288 96C370.9 96 443.3 141 482 208L518.2 208C525.6 223.2 531.6 239.3 535.9 256L448 256L448 288L542 288C543.3 298.5 544 309.2 544 320C544 330.8 543.3 341.5 542 352L448 352L448 384L535.9 384C531.6 400.7 525.6 416.8 518.2 432L482 432C443.3 499 370.9 544 288 544C164.3 544 64 443.7 64 320zM112 280L112 296L144 296L144 280C144 266.7 154.7 256 168 256L184 256C197.3 256 208 266.7 208 280L208 296L240 296L240 280C240 249.1 214.9 224 184 224L168 224C137.1 224 112 249.1 112 280zM126.5 398C155.6 438 202.7 464 256 464C309.3 464 356.5 438 385.5 398L359.6 379.2C336.3 411.2 298.6 432 256 432C213.4 432 175.7 411.2 152.4 379.2L126.5 398zM272 280L272 296L304 296L304 280C304 266.7 314.7 256 328 256L344 256C357.3 256 368 266.7 368 280L368 296L400 296L400 280C400 249.1 374.9 224 344 224L328 224C297.1 224 272 249.1 272 280z"/><path fill="currentColor" d="M288 544C370.9 544 443.3 499 482 432L518.2 432C476.7 517.3 389.2 576 287.9 576C146.5 576 31.9 461.4 31.9 320C31.9 178.6 146.6 64 288 64C389.2 64 476.7 122.7 518.3 208L482 208C443.3 141 370.9 96 288 96C164.3 96 64 196.3 64 320C64 443.7 164.3 544 288 544zM256 432C298.6 432 336.3 411.2 359.6 379.2L385.5 398C356.4 438 309.3 464 256 464C202.7 464 155.5 438 126.5 398L152.4 379.2C175.7 411.3 213.4 432 256 432zM168 256C154.7 256 144 266.7 144 280L144 296L112 296L112 280C112 249.1 137.1 224 168 224L184 224C214.9 224 240 249.1 240 280L240 296L208 296L208 280C208 266.7 197.3 256 184 256L168 256zM304 280L304 296L272 296L272 280C272 249.1 297.1 224 328 224L344 224C374.9 224 400 249.1 400 280L400 296L368 296L368 280C368 266.7 357.3 256 344 256L328 256C314.7 256 304 266.7 304 280zM544 128L560 128C604.2 128 640 163.8 640 208C640 252.2 604.2 288 560 288L448 288L448 256L560 256C586.5 256 608 234.5 608 208C608 181.5 586.5 160 560 160L544 160L544 128zM560 352C578.8 352 595.1 341.2 602.9 325.5C616.7 319.5 629.2 311.2 639.9 301C639.9 302 640 303 640 304C640 348.2 604.2 384 560 384L448 384L448 352L560 352z"/></svg>