<svg xmlns="http://www.w3.org/2000/svg" viewBox="0 0 640 640"><!--! Font Awesome Pro 7.2.0 by @fontawesome - https://fontawesome.com License - https://fontawesome.com/license (Commercial License) Copyright 2026 Fonticons, Inc. --><path opacity=".4" fill="currentColor" d="M96 320C96 443.7 196.3 544 320 544C443.7 544 544 443.7 544 320C544 196.3 443.7 96 320 96C196.3 96 96 196.3 96 320zM157.6 274.8L173.4 272.2L175.9 271.8C202.2 267.4 226.5 254.9 245.4 236.1C249.7 231.8 255.9 225.6 264.1 217.4L286.6 240C278.4 248.2 272.2 254.4 267.9 258.7C244.3 282.3 214 297.9 181.1 303.4L178.6 303.8L162.8 306.4L157.5 274.8zM205 473L206 449.3C208.5 389.1 257.2 349.9 320 349.9C382.2 349.9 434 388.7 434 449.9L434 472.6C418.9 467.2 406.3 462.7 396.2 459.1C371.7 450.4 346 445.9 320 445.9C294 445.9 268.2 450.4 243.8 459.1C233.8 462.7 220.9 467.3 205 473zM353.4 240L376 217.4C384.2 225.6 390.4 231.8 394.7 236.1C413.6 255 437.9 267.5 464.2 271.8L466.7 272.2L482.5 274.8L477.2 306.4L461.4 303.8L458.9 303.4C426 297.9 395.6 282.3 372.1 258.7C367.8 254.4 361.6 248.2 353.4 240z"/><path fill="currentColor" d="M544 320C544 196.3 443.7 96 320 96C196.3 96 96 196.3 96 320C96 443.7 196.3 544 320 544C443.7 544 544 443.7 544 320zM64 320C64 178.6 178.6 64 320 64C461.4 64 576 178.6 576 320C576 461.4 461.4 576 320 576C178.6 576 64 461.4 64 320zM320 414C346.3 414 372.4 418 397.5 425.9C386.9 399.8 358.8 382 320 382C281.9 382 254.6 399.3 243.4 425.6C268.2 417.9 294 414 320 414zM320 350C382.2 350 434 388.8 434 450L434 472.7C418.9 467.3 406.3 462.8 396.2 459.2C371.7 450.5 346 446 320 446C294 446 268.2 450.5 243.8 459.2C233.8 462.8 220.9 467.4 205 473.1L206 449.4C208.5 389.2 257.2 350 320 350zM286.6 240C278.4 248.2 272.2 254.4 267.9 258.7C244.3 282.3 214 297.9 181.1 303.4L178.6 303.8L162.8 306.4L157.5 274.8L173.3 272.2L175.8 271.8C202.1 267.4 226.4 254.9 245.3 236.1C249.6 231.8 255.8 225.6 264 217.4L286.6 240zM364.7 251.3L353.4 240L376 217.4C384.2 225.6 390.4 231.8 394.7 236.1C413.6 255 437.9 267.5 464.2 271.8L466.7 272.2L482.5 274.8L477.2 306.4L461.4 303.8L458.9 303.4C426 297.9 395.6 282.3 372.1 258.7L364.7 251.3z"/></svg>