<svg xmlns="http://www.w3.org/2000/svg" viewBox="0 0 640 640"><!--! Font Awesome Pro 7.2.0 by @fontawesome - https://fontawesome.com License - https://fontawesome.com/license (Commercial License) Copyright 2026 Fonticons, Inc. --><path opacity=".4" fill="currentColor" d="M96 320C96 443.7 196.3 544 320 544C443.7 544 544 443.7 544 320C544 196.3 443.7 96 320 96C196.3 96 96 196.3 96 320zM264 272C264 285.3 253.3 296 240 296C226.7 296 216 285.3 216 272C216 258.7 226.7 248 240 248C253.3 248 264 258.7 264 272zM223.7 429.9C246.4 401.9 281.1 384 320 384C358.9 384 393.6 401.9 416.3 429.9L391.5 450.1C374.6 429.3 348.9 416 320 416C291.1 416 265.4 429.3 248.5 450.1L223.7 429.9zM424 272C424 285.3 413.3 296 400 296C386.7 296 376 285.3 376 272C376 258.7 386.7 248 400 248C413.3 248 424 258.7 424 272z"/><path fill="currentColor" d="M544 320C544 196.3 443.7 96 320 96C196.3 96 96 196.3 96 320C96 443.7 196.3 544 320 544C443.7 544 544 443.7 544 320zM64 320C64 178.6 178.6 64 320 64C461.4 64 576 178.6 576 320C576 461.4 461.4 576 320 576C178.6 576 64 461.4 64 320zM248.5 450.1L223.7 429.9C246.4 401.9 281.1 384 320 384C358.9 384 393.6 401.9 416.3 429.9L391.5 450.1C374.6 429.3 348.9 416 320 416C291.1 416 265.4 429.3 248.5 450.1zM216 272C216 258.7 226.7 248 240 248C253.3 248 264 258.7 264 272C264 285.3 253.3 296 240 296C226.7 296 216 285.3 216 272zM400 248C413.3 248 424 258.7 424 272C424 285.3 413.3 296 400 296C386.7 296 376 285.3 376 272C376 258.7 386.7 248 400 248z"/></svg>