<svg xmlns="http://www.w3.org/2000/svg" viewBox="0 0 640 640"><!--! Font Awesome Pro 7.2.0 by @fontawesome - https://fontawesome.com License - https://fontawesome.com/license (Commercial License) Copyright 2026 Fonticons, Inc. --><path opacity=".4" fill="currentColor" d="M96.1 313.8C99.4 193 198.4 96 320 96C443.7 96 544 196.3 544 320C544 414.3 485.7 495.1 403.1 528.1C411.3 513.9 416 497.5 416 480L416 437.2C418.8 438.9 421.3 440.7 423.4 442.5L444 418.1C418.6 396.5 371.1 384 320 384C268.9 384 221.4 396.5 196 418.1L216.6 442.5C218.7 440.7 221.2 438.9 224 437.2L224 480C224 497.5 228.7 513.9 236.9 528.1C212 518.1 189.2 503.8 169.7 486.1C173.8 474.3 176.1 461.5 176.1 448.1C176.1 415.7 162 388.1 147.7 368C133.1 347.5 115.2 330.4 100.9 317.8L100.6 317.5C99.3 316.4 97.9 315.2 96.2 313.8zM141.6 258.8L146.9 290.4L162.7 287.8L165.2 287.4C198.1 281.9 228.5 266.3 252 242.7C256.3 238.4 262.5 232.2 270.7 224L248 201.4C239.8 209.6 233.6 215.8 229.3 220.1C210.4 239 186.1 251.5 159.8 255.8L157.3 256.2L141.5 258.8zM216 320C216 333.3 226.7 344 240 344C253.3 344 264 333.3 264 320C264 306.7 253.3 296 240 296C226.7 296 216 306.7 216 320zM369.4 224C377.6 232.2 383.8 238.4 388.1 242.7C411.7 266.3 442 281.9 474.9 287.4L477.4 287.8L493.2 290.4L498.5 258.8L482.7 256.2L480.2 255.8C453.9 251.4 429.6 238.9 410.7 220.1C406.4 215.8 400.2 209.6 392 201.4L369.4 224zM376 320C376 333.3 386.7 344 400 344C413.3 344 424 333.3 424 320C424 306.7 413.3 296 400 296C386.7 296 376 306.7 376 320z"/><path fill="currentColor" d="M544 320C544 414.3 485.7 495.1 403.1 528.1C411.3 514 416 497.5 416 480L416 437.2C418.8 438.9 421.3 440.7 423.4 442.5L444 418.1C418.6 396.5 371.1 384 320 384C268.9 384 221.4 396.5 196 418.1L216.6 442.5C218.7 440.7 221.2 438.9 224 437.2L224 480C224 497.5 228.7 513.9 236.9 528.1C212 518.1 189.2 503.8 169.7 486.1C166 496.7 160.8 506.4 154.4 515.2C199.1 553.2 256.9 576 320.1 576C461.5 576 576.1 461.4 576.1 320C576.1 178.6 461.4 64 320 64C189 64 80.9 162.5 65.8 289.4C71 293.5 86.3 305.7 96.1 313.8C99.4 193 198.4 96 320 96C443.7 96 544 196.3 544 320zM400 344C413.3 344 424 333.3 424 320C424 306.7 413.3 296 400 296C386.7 296 376 306.7 376 320C376 333.3 386.7 344 400 344zM216 320C216 333.3 226.7 344 240 344C253.3 344 264 333.3 264 320C264 306.7 253.3 296 240 296C226.7 296 216 306.7 216 320zM259.3 235.3L270.6 224L248 201.4C239.8 209.6 233.6 215.8 229.3 220.1C210.4 239 186.1 251.5 159.8 255.8L157.3 256.2L141.5 258.8L146.8 290.4L162.6 287.8L165.1 287.4C198 281.9 228.4 266.3 251.9 242.7L259.3 235.3zM369.4 224C377.6 232.2 383.8 238.4 388.1 242.7C411.7 266.3 442 281.9 474.9 287.4L477.4 287.8L493.2 290.4L498.5 258.8L482.7 256.2L480.2 255.8C453.9 251.4 429.6 238.9 410.7 220.1C406.4 215.8 400.2 209.6 392 201.4L369.4 224zM384 424L384 480C384 515.3 355.3 544 320 544C284.7 544 256 515.3 256 480L256 424L304 416L304 448L336 448L336 416L384 424zM64 480C45.3 480 32 466.7 32 448C32 440 35.3 430.3 43.1 418.5C48.9 409.8 56.2 401.4 64 393.3C71.8 401.4 79.1 409.8 84.9 418.5C92.7 430.2 96 440 96 448C96 466.7 82.7 480 64 480zM64 349.5C59.1 353.7 54.3 357.9 49.7 362.4C27.4 384.2 0 414.6 0 448C0 484.4 27.6 512 64 512C100.4 512 128 484.4 128 448C128 414.6 100.7 384.2 78.3 362.4C73.7 357.9 68.9 353.7 64 349.5z"/></svg>