<svg xmlns="http://www.w3.org/2000/svg" viewBox="0 0 640 640"><!--! Font Awesome Pro 7.2.0 by @fontawesome - https://fontawesome.com License - https://fontawesome.com/license (Commercial License) Copyright 2026 Fonticons, Inc. --><path opacity=".4" fill="currentColor" d="M96 320C96 196.3 196.3 96 320 96C443.7 96 544 196.3 544 320C544 427.2 468.6 516.9 368 538.8L368 432L208 432L208 368L101.2 368C97.8 352.5 96 336.5 96 320zM154.2 186L170 213.8C179.4 208.4 188.4 203.3 197 198.4C218 186.4 244.1 187.3 264.3 200.7C287.8 216.4 302.5 226.2 308.5 230.1L326.3 203.5C320.4 199.5 305.6 189.7 282.1 174.1C251.8 153.9 212.8 152.6 181.2 170.6C172.6 175.5 163.6 180.6 154.2 186zM208 384L208 416L352 416L352 384L208 384zM216 272C216 285.3 226.7 296 240 296C253.3 296 264 285.3 264 272C264 258.7 253.3 248 240 248C226.7 248 216 258.7 216 272zM376 288C376 301.3 386.7 312 400 312C413.3 312 424 301.3 424 288C424 274.7 413.3 264 400 264C386.7 264 376 274.7 376 288z"/><path fill="currentColor" d="M368 538.8C468.6 516.8 544 427.2 544 320C544 196.3 443.7 96 320 96C196.3 96 96 196.3 96 320C96 336.5 97.8 352.5 101.2 368L68.5 368C65.5 352.5 64 336.4 64 320C64 178.6 178.6 64 320 64C461.4 64 576 178.6 576 320C576 445 486.4 549 368 571.5L368 538.8zM240 248C253.3 248 264 258.7 264 272C264 285.3 253.3 296 240 296C226.7 296 216 285.3 216 272C216 258.7 226.7 248 240 248zM400 264C413.3 264 424 274.7 424 288C424 301.3 413.3 312 400 312C386.7 312 376 301.3 376 288C376 274.7 386.7 264 400 264zM197 198.4C188.4 203.3 179.4 208.4 170 213.8L154.2 186C163.6 180.6 172.6 175.5 181.2 170.6C212.8 152.6 251.8 153.9 282.1 174.1C305.6 189.8 320.3 199.6 326.3 203.5L308.5 230.1C302.5 226.1 287.8 216.3 264.3 200.7C244.1 187.3 218.1 186.4 197 198.4zM224 384L352 384L352 416L208 416L208 384L224 384zM80 416L160 416L160 480L320 480L320 576L224 576L224 640L136 640C96.2 640 64 607.8 64 568L64 416L80 416zM96 568C96 590.1 113.9 608 136 608L192 608L192 544L288 544L288 512L128 512L128 448L96 448L96 568z"/></svg>