<svg xmlns="http://www.w3.org/2000/svg" viewBox="0 0 640 640"><!--! Font Awesome Pro 7.2.0 by @fontawesome - https://fontawesome.com License - https://fontawesome.com/license (Commercial License) Copyright 2026 Fonticons, Inc. --><path opacity=".4" fill="currentColor" d="M96 320C96 196.3 196.3 96 320 96L320 64C365 64 407.3 75.6 444 96L368 96L368 128L429.6 128L372.4 189.1L368.1 193.7L368.1 224L472.1 224L472.1 192L413.5 192L467.7 134.1L472 129.5L472 114C522.8 151.6 559.3 207.5 571.5 272L538.8 272C542.2 287.5 544 303.5 544 320C544 443.7 443.7 544 320 544C196.3 544 96 443.7 96 320zM160 296L160 312C160 342.9 185.1 368 216 368L232 368C262.9 368 288 342.9 288 312L288 296L256 296L256 312C256 325.3 245.3 336 232 336L216 336C202.7 336 192 325.3 192 312L192 296L160 296zM264 448C264 478.9 289.1 504 320 504C350.9 504 376 478.9 376 448C376 417.1 350.9 392 320 392C289.1 392 264 417.1 264 448zM352 296L352 312C352 342.9 377.1 368 408 368L424 368C454.9 368 480 342.9 480 312L480 296L448 296L448 312C448 325.3 437.3 336 424 336L408 336C394.7 336 384 325.3 384 312L384 296L352 296z"/><path fill="currentColor" d="M552 0L640 0L640 33.5L635.7 38.1L581.5 96L640.1 96L640.1 128L536.1 128L536.1 97.7L540.4 93.1L597.6 32L536 32L536 0L552 0zM64 320C64 178.6 178.6 64 320 64L320 96C196.3 96 96 196.3 96 320C96 443.7 196.3 544 320 544C443.7 544 544 443.7 544 320C544 303.5 542.2 287.5 538.8 272L571.5 272C574.5 287.5 576 303.6 576 320C576 461.4 461.4 576 320 576C178.6 576 64 461.4 64 320zM296 448C296 461.3 306.7 472 320 472C333.3 472 344 461.3 344 448C344 434.7 333.3 424 320 424C306.7 424 296 434.7 296 448zM320 504C289.1 504 264 478.9 264 448C264 417.1 289.1 392 320 392C350.9 392 376 417.1 376 448C376 478.9 350.9 504 320 504zM408 336L424 336C437.3 336 448 325.3 448 312L448 296L480 296L480 312C480 342.9 454.9 368 424 368L408 368C377.1 368 352 342.9 352 312L352 296L384 296L384 312C384 325.3 394.7 336 408 336zM192 312C192 325.3 202.7 336 216 336L232 336C245.3 336 256 325.3 256 312L256 296L288 296L288 312C288 342.9 262.9 368 232 368L216 368C185.1 368 160 342.9 160 312L160 296L192 296L192 312zM368 96L472 96L472 129.5L467.7 134.1L413.5 192L472.1 192L472.1 224L368.1 224L368.1 193.7L372.4 189.1L429.6 128L368 128L368 96z"/></svg>