<svg xmlns="http://www.w3.org/2000/svg" viewBox="0 0 640 640"><!--! Font Awesome Pro 7.2.0 by @fontawesome - https://fontawesome.com License - https://fontawesome.com/license (Commercial License) Copyright 2026 Fonticons, Inc. --><path opacity=".4" fill="currentColor" d="M64 320L64 384L214.1 384L218.7 392C232.6 416 258.4 432 288 432C317.6 432 343.4 415.9 357.3 392L361.9 384L432 384C458.5 384 480 405.5 480 432L480 448L544 448L544 432C544 370.1 493.9 320 432 320L377.4 320L372.7 315.3L329.4 272L246.7 272L203.4 315.3L198.7 320L64.1 320z"/><path fill="currentColor" d="M304 112L304 96L272 96L272 160L128 160L128 192L272 192L272 240L233.4 240L228.7 244.7L185.4 288L64 288L64 320L198.6 320L203.3 315.3L246.6 272L329.3 272L372.6 315.3L377.3 320L431.9 320C493.8 320 543.9 370.1 543.9 432L543.9 448L479.9 448L479.9 432C479.9 405.5 458.4 384 431.9 384L361.8 384L357.2 392C343.3 416 317.5 432 287.9 432C258.3 432 232.4 415.9 218.6 392L214 384L63.9 384L63.9 416L196 416C216.2 445 249.8 464 287.9 464C326 464 359.6 445 379.8 416L431.9 416C440.7 416 447.9 423.2 447.9 432L447.9 480L575.9 480L575.9 432C575.9 352.5 511.4 288 431.9 288L390.5 288L347.2 244.7L342.5 240L303.9 240L303.9 192L447.9 192L447.9 160L303.9 160L303.9 112z"/></svg>