<svg xmlns="http://www.w3.org/2000/svg" viewBox="0 0 640 640"><!--! Font Awesome Pro 7.2.0 by @fontawesome - https://fontawesome.com License - https://fontawesome.com/license (Commercial License) Copyright 2026 Fonticons, Inc. --><path opacity=".4" fill="currentColor" d="M96 224L96 512L192 512L192 224L96 224zM224 288L224 512L544 512L544 288L224 288zM320 352C320 365.3 309.3 376 296 376C282.7 376 272 365.3 272 352C272 338.7 282.7 328 296 328C309.3 328 320 338.7 320 352zM320 448C320 461.3 309.3 472 296 472C282.7 472 272 461.3 272 448C272 434.7 282.7 424 296 424C309.3 424 320 434.7 320 448zM408 352C408 365.3 397.3 376 384 376C370.7 376 360 365.3 360 352C360 338.7 370.7 328 384 328C397.3 328 408 338.7 408 352zM408 448C408 461.3 397.3 472 384 472C370.7 472 360 461.3 360 448C360 434.7 370.7 424 384 424C397.3 424 408 434.7 408 448zM496 352C496 365.3 485.3 376 472 376C458.7 376 448 365.3 448 352C448 338.7 458.7 328 472 328C485.3 328 496 338.7 496 352zM496 448C496 461.3 485.3 472 472 472C458.7 472 448 461.3 448 448C448 434.7 458.7 424 472 424C485.3 424 496 434.7 496 448z"/><path fill="currentColor" d="M208 64L192 64L192 192L64 192L64 544L576 544L576 256L224 256L224 96L417.4 96L480 158.6L480 200L512 200L512 145.4L507.3 140.7L435.3 68.7L430.6 64L208 64zM192 224L192 512L96 512L96 224L192 224zM224 512L224 288L544 288L544 512L224 512zM320 352C320 338.7 309.3 328 296 328C282.7 328 272 338.7 272 352C272 365.3 282.7 376 296 376C309.3 376 320 365.3 320 352zM296 472C309.3 472 320 461.3 320 448C320 434.7 309.3 424 296 424C282.7 424 272 434.7 272 448C272 461.3 282.7 472 296 472zM408 352C408 338.7 397.3 328 384 328C370.7 328 360 338.7 360 352C360 365.3 370.7 376 384 376C397.3 376 408 365.3 408 352zM384 472C397.3 472 408 461.3 408 448C408 434.7 397.3 424 384 424C370.7 424 360 434.7 360 448C360 461.3 370.7 472 384 472zM496 352C496 338.7 485.3 328 472 328C458.7 328 448 338.7 448 352C448 365.3 458.7 376 472 376C485.3 376 496 365.3 496 352zM472 472C485.3 472 496 461.3 496 448C496 434.7 485.3 424 472 424C458.7 424 448 434.7 448 448C448 461.3 458.7 472 472 472z"/></svg>