<svg xmlns="http://www.w3.org/2000/svg" viewBox="0 0 640 640"><!--! Font Awesome Pro 7.2.0 by @fontawesome - https://fontawesome.com License - https://fontawesome.com/license (Commercial License) Copyright 2026 Fonticons, Inc. --><path opacity=".4" fill="currentColor" d="M160.1 96C213.4 96 266.8 96 320.1 96L320.1 256L480.1 256C480.1 323.1 480.1 390.2 480.1 457.3L160.1 137.3L160.1 96z"/><path fill="currentColor" d="M56.3 33.5L67.6 44.8L128.1 105.3L128.1 64L352.1 64L512.1 224L512.1 489.3L595.4 572.6L606.7 583.9L584.1 606.5L572.8 595.2L45 67.4L33.7 56.1L56.3 33.5zM480.1 256L320.1 256L320.1 96L160.1 96L160.1 137.3L480.1 457.3L480.1 256zM352.1 224L466.8 224L352.1 109.3L352.1 224zM128.1 218.5L160.1 250.5L160.1 544L453.6 544L485.6 576L128.1 576L128.1 218.5z"/></svg>