<svg xmlns="http://www.w3.org/2000/svg" viewBox="0 0 640 640"><!--! Font Awesome Pro 7.2.0 by @fontawesome - https://fontawesome.com License - https://fontawesome.com/license (Commercial License) Copyright 2026 Fonticons, Inc. --><path opacity=".4" fill="currentColor" d="M160 96L320 96L320 256L480 256L480 544L160 544L160 96zM208 320L208 480L368 480L368 448L432 480L432 320L368 352L368 320L208 320z"/><path fill="currentColor" d="M160 96L320 96L320 256L480 256L480 544L160 544L160 96zM352 109.3L466.7 224L352 224L352 109.3zM352 64L128 64L128 576L512 576L512 224L352 64zM336 352L336 448L240 448L240 352L336 352zM368 480L368 448L432 480L432 320L368 352L368 320L208 320L208 480L368 480zM400 428.2L368 412.2L368 387.8L400 371.8L400 428.2z"/></svg>