<svg xmlns="http://www.w3.org/2000/svg" viewBox="0 0 640 640"><!--! Font Awesome Pro 7.2.0 by @fontawesome - https://fontawesome.com License - https://fontawesome.com/license (Commercial License) Copyright 2026 Fonticons, Inc. --><path opacity=".4" fill="currentColor" d="M96 96L256 96L256 256L416 256L416 400L208 400L208 544L96 544L96 96z"/><path fill="currentColor" d="M256 96L96 96L96 544L208 544L208 576L64 576L64 64L288 64L448 224L448 400L416 400L416 256L256 256L256 96zM402.7 224L288 109.3L288 224L402.7 224zM304 448L344 448L344 480L304 480C295.2 480 288 487.2 288 496C288 504.8 295.2 512 304 512C330.5 512 352 533.5 352 560C352 586.5 330.5 608 304 608L256 608L256 576L304 576C312.8 576 320 568.8 320 560C320 551.2 312.8 544 304 544C277.5 544 256 522.5 256 496C256 469.5 277.5 448 304 448zM416 464L416 499C416 516.3 419.1 533.4 425.2 549.6L432 567.8L438.8 549.6C444.9 533.4 448 516.3 448 499L448 448L480 448L480 499C480 520.1 476.2 541 468.8 560.8C457.9 589.8 452 605.5 451.1 608L412.9 608C412 605.5 406.1 589.8 395.2 560.8C387.8 541 384 520.1 384 499L384 448L416 448L416 464zM512 488C512 465.9 529.9 448 552 448L568 448C590.1 448 608 465.9 608 488L608 504L576 504L576 488C576 483.6 572.4 480 568 480L552 480C547.6 480 544 483.6 544 488L544 568C544 572.4 547.6 576 552 576L568 576C572.4 576 576 572.4 576 568L576 560L560 560L560 528L608 528L608 568C608 590.1 590.1 608 568 608L552 608C529.9 608 512 590.1 512 568L512 488z"/></svg>