<svg xmlns="http://www.w3.org/2000/svg" viewBox="0 0 640 640"><!--! Font Awesome Pro 7.2.0 by @fontawesome - https://fontawesome.com License - https://fontawesome.com/license (Commercial License) Copyright 2026 Fonticons, Inc. --><path opacity=".4" fill="currentColor" d="M96 96L256 96L256 256L416 256L416 400L176 400L176 544L96 544L96 96z"/><path fill="currentColor" d="M258 456.3L287.7 510.3L316.2 456.5L320.7 448L351.9 448L351.9 608L319.9 608L319.9 517.8C307.3 541.6 296.7 561.5 288.1 577.7C279.2 561.5 268.4 542 255.9 519L255.9 608L223.9 608L223.9 448L253.4 448L258 456.3zM416 608L384 608L384 448L416 448L416 608zM496 448C522.5 448 544 469.5 544 496L544 560C544 586.5 522.5 608 496 608L448 608L448 448L496 448zM608 608L576 608L576 448L608 448L608 608zM448 224L448 400L416 400L416 256L256 256L256 96L96 96L96 544L176 544L176 576L64 576L64 64L288 64L448 224zM480 576L496 576C504.8 576 512 568.8 512 560L512 496C512 487.2 504.8 480 496 480L480 480L480 576zM288 224L402.7 224L288 109.2L288 224z"/></svg>