<svg xmlns="http://www.w3.org/2000/svg" viewBox="0 0 640 640"><!--! Font Awesome Pro 7.2.0 by @fontawesome - https://fontawesome.com License - https://fontawesome.com/license (Commercial License) Copyright 2026 Fonticons, Inc. --><path opacity=".4" fill="currentColor" d="M128 352C128 458 214 544 320 544C426 544 512 458 512 352C512 290.1 486.8 233.6 461.2 192.2C448.4 171.6 435.7 154.9 426.1 143.3C423 139.5 419.6 135.7 416 131.8C412.7 135.4 409.6 138.9 406.5 142.6C402.6 147.3 398.1 152.9 393.3 159.2C383.8 171.8 374.3 184.4 364.8 197C356.6 183.5 348.5 170 340.3 156.5C325.5 132.1 310.3 111.6 297.6 96C289.3 85.9 280.7 76.4 271.6 67.1C265.5 72.6 259.7 78.1 254 84C240 98.4 221.2 119.3 202.5 145.5C165 197.8 128 270.2 128 351.8zM192 370.8C192 332.9 210.1 300.8 226.9 279C235.4 268 243.9 259.2 250.3 253.1C257 246.7 264 241.3 271.3 235.6C272.1 234.9 273 234.3 273.8 233.6L283.7 245.9C286.6 249.5 308.4 277.2 329.4 303.9L358.8 341.3L409.6 282.2L421.6 298.1C426.7 304.9 430.1 311.7 432.8 317.1C461.4 369.7 449.1 437.5 399.7 472C376.1 487.7 350.3 495.9 321.7 495.9C286.7 495.9 254.3 484.6 230.4 462.8C206.3 440.8 192 409.1 192 370.7z"/><path fill="currentColor" d="M283.4 33.9L272.9 23.7L261.8 33.3C251.2 42.4 241.1 51.6 231.1 61.9C216.2 77.2 196.3 99.3 176.5 127C137.1 182 96 260.9 96 352C96 475.7 196.3 576 320 576C443.7 576 544 475.7 544 352C544 281.7 515.6 219.3 488.4 175.4C474.7 153.3 461 135.4 450.7 123C443.5 114.4 435.4 105.8 427.4 97.6L416 85.9L404.6 97.5C396.8 105.4 389.2 113.4 381.9 122.2C377.7 127.2 372.9 133.2 367.7 140.1C352 114.2 335.9 92.5 322.4 75.9C310 60.8 297.1 47.2 283.4 33.9zM254 84.2C259.7 78.3 265.5 72.8 271.6 67.3C280.7 76.6 289.3 86 297.6 96.2C310.4 111.8 325.6 132.3 340.3 156.7C348.5 170.2 356.6 183.7 364.8 197.2C374.3 184.6 383.8 172 393.3 159.4C398.1 153 402.6 147.4 406.5 142.8C409.6 139.1 412.7 135.5 416 132C419.6 135.9 423 139.7 426.1 143.5C435.7 155 448.4 171.7 461.2 192.4C486.8 233.8 512 290.3 512 352.2C512 458.2 426 544.2 320 544.2C214 544.2 128 458 128 352C128 270.4 165 198 202.5 145.7C221.2 119.6 239.9 98.7 254 84.2L254 84.2zM273.8 233.7C273 234.4 272.1 235 271.3 235.7C264 241.3 257 246.8 250.3 253.2C243.9 259.3 235.4 268.1 226.9 279.1C210.1 300.9 192 333 192 370.9C192 409.4 206.3 441.1 230.4 463C254.3 484.8 286.8 496.1 321.7 496.1C350.2 496.1 376.1 487.9 399.7 472.2C449.1 437.7 461.4 369.8 432.8 317.3C430.1 311.9 426.7 305.1 421.6 298.3L409.6 282.4L358.8 341.5L329.4 304.1C308.4 277.4 286.5 249.6 283.7 246.1L273.8 233.8zM252.3 298.6C258.3 290.8 264.3 284.3 269.3 279.4C294.6 311.4 319.8 343.5 345 375.6C349.3 381 353.5 386.4 357.8 391.8L406.3 335.4C425.9 374.6 415.4 422.2 381.6 445.8C363.1 458 343.8 464 321.8 464C293.6 464 269.2 455 252 439.3C235 423.8 224 400.9 224 370.8C224 343.1 237.5 317.8 252.3 298.6z"/></svg>