<svg xmlns="http://www.w3.org/2000/svg" viewBox="0 0 640 640"><!--! Font Awesome Pro 7.2.0 by @fontawesome - https://fontawesome.com License - https://fontawesome.com/license (Commercial License) Copyright 2026 Fonticons, Inc. --><path opacity=".4" fill="currentColor" d="M96 128L96 480L544 480L544 176L341.3 176L332.8 169.6L277.3 128L96 128zM192.7 308.5C193.5 307 206.7 284.3 232.1 240.2L239.5 227.4C247.7 231.3 258 236.3 270.6 242.3C271.7 228.5 272.5 217 273.2 208L366.8 208C367.5 217.1 368.4 228.5 369.4 242.3C381.9 236.3 392.3 231.3 400.5 227.4C401.3 228.9 414.5 251.6 439.9 295.7L447.3 308.5C439.8 313.6 430.3 320.1 418.9 328C430.4 335.8 439.8 342.3 447.3 347.5C446.5 349 433.3 371.7 407.9 415.8L400.5 428.6C392.3 424.7 382 419.7 369.4 413.7C368.3 427.5 367.5 439 366.8 448L273.2 448C272.5 438.9 271.6 427.5 270.6 413.7C258.1 419.7 247.7 424.7 239.5 428.6C238.7 427.1 225.5 404.4 200.1 360.3L192.7 347.5C200.2 342.4 209.7 335.9 221.1 328C209.6 320.2 200.2 313.7 192.7 308.5z"/><path fill="currentColor" d="M288 96L352 144L576 144L576 512L64 512L64 96L288 96zM352 176L341.3 176L332.8 169.6L277.3 128L96 128L96 480L544 480L544 176L352 176zM273.2 208L366.8 208C367.5 217.1 368.4 228.5 369.4 242.3C381.9 236.3 392.3 231.3 400.5 227.4C401.3 228.9 414.5 251.6 439.9 295.7L447.3 308.5C439.8 313.6 430.3 320.1 418.9 328C430.4 335.8 439.8 342.3 447.3 347.5C446.5 349 433.3 371.7 407.9 415.8L400.5 428.6C392.3 424.7 382 419.7 369.4 413.7C368.3 427.5 367.5 439 366.8 448L273.2 448C272.5 438.9 271.6 427.5 270.6 413.7C258.1 419.7 247.7 424.7 239.5 428.6C238.7 427.1 225.5 404.4 200.1 360.3L192.7 347.5C200.2 342.4 209.7 335.9 221.1 328C209.6 320.2 200.2 313.7 192.7 308.5C193.5 307 206.7 284.3 232.1 240.2L239.5 227.4C247.7 231.3 258 236.3 270.6 242.3C271.7 228.5 272.5 217 273.2 208zM302.8 240L300.8 266.2L292.5 270.2C289.5 271.7 286.6 273.3 283.8 275.2L276.2 280.5C271.8 278.4 263.9 274.6 252.5 269.1L235.3 298.9C245.8 306.1 253 311 257 313.8L256.3 323C256.2 324.7 256.1 326.3 256.1 328C256.1 329.7 256.2 331.4 256.3 333L257 342.2C253 344.9 245.8 349.9 235.3 357.1L252.5 386.9C263.9 381.4 271.8 377.6 276.2 375.5L283.8 380.8C286.6 382.7 289.5 384.4 292.5 385.8L300.8 389.8L302.8 416L337.2 416C338.2 403.4 338.8 394.6 339.2 389.8L347.5 385.8C350.5 384.4 353.4 382.7 356.2 380.8L363.8 375.5C368.2 377.6 376.1 381.4 387.5 386.9L404.7 357.1C394.2 349.9 387 345 383 342.2L383.7 333C384 329.7 384 326.2 383.7 322.9L383 313.7C387 311 394.2 306 404.7 298.8L387.5 269C376.1 274.5 368.2 278.3 363.8 280.4L356.2 275.1C353.4 273.2 350.5 271.5 347.5 270.1L339.2 266.1C338.8 261.2 338.2 252.5 337.2 239.9L302.8 239.9zM296 328C296 314.7 306.7 304 320 304C333.3 304 344 314.7 344 328C344 341.3 333.3 352 320 352C306.7 352 296 341.3 296 328z"/></svg>