<svg xmlns="http://www.w3.org/2000/svg" viewBox="0 0 640 640"><!--! Font Awesome Pro 7.2.0 by @fontawesome - https://fontawesome.com License - https://fontawesome.com/license (Commercial License) Copyright 2026 Fonticons, Inc. --><path opacity=".4" fill="currentColor" d="M112.9 135.4L243.4 265.9C245.4 276.4 248.6 286.7 252.9 296.8C237.3 312.4 221.8 327.9 206.2 343.5L122.6 259.9C88.7 226 85.5 173 112.9 135.4zM320.1 236C320.1 212.9 332.1 190.7 351.3 176.7L472.2 88.1C481.7 97.6 491.3 107.2 500.8 116.7L364.8 252.7L387.4 275.3L395.4 267.3L523.4 139.3C532.9 148.8 542.5 158.4 552 167.9L463.4 288.9C449.4 308 427.3 320 404.1 320C385.3 320 367.3 312.5 354 299.2L340.9 286.1C327.6 272.8 320.1 254.8 320.1 236z"/><path fill="currentColor" d="M332.4 150.9L449.3 65.1L472.2 88L351.3 176.7C332.2 190.7 320.1 212.8 320.1 236C320.1 254.8 327.6 272.8 340.9 286.1L354 299.2C367.3 312.5 385.3 320 404.1 320C427.2 320 449.4 308 463.4 288.9L552.1 168L575 190.9L489.2 307.8C469.7 334.4 438.3 352 404.1 352C379.1 352 355 342.9 336.3 326.5L91.4 571.3L68.8 548.7L313.7 303.8C297.3 285.1 288.2 261 288.2 236C288.2 201.8 305.8 170.4 332.4 150.9zM372.9 244.7L500.9 116.7L523.5 139.3L395.5 267.3L387.5 275.3L364.9 252.7L372.9 244.7zM241.8 219C239.9 234.5 240.4 250.3 243.4 265.8L112.9 135.4C85.5 173 88.7 226 122.6 259.9L206.2 343.5L183.6 366.1L100 282.5C50 232.5 50 151.5 100 101.5L100.8 100.7L112.1 89.4L123.4 100.7L241.7 219zM548.8 571.3L375.4 397.9L375.1 396.9C390.3 399.7 405.9 400.2 421.1 398.3L571.4 548.6L582.7 559.9L560.1 582.5L548.8 571.2z"/></svg>