<svg xmlns="http://www.w3.org/2000/svg" viewBox="0 0 640 640"><!--! Font Awesome Pro 7.2.0 by @fontawesome - https://fontawesome.com License - https://fontawesome.com/license (Commercial License) Copyright 2026 Fonticons, Inc. --><path opacity=".4" fill="currentColor" d="M32 160L608 160L608 480L32 480L32 160zM112 304L112 336L176 336L176 400L208 400L208 336L272 336L272 304L208 304L208 240L176 240L176 304L112 304zM408 368C408 381.3 418.7 392 432 392C445.3 392 456 381.3 456 368C456 354.7 445.3 344 432 344C418.7 344 408 354.7 408 368zM472 272C472 285.3 482.7 296 496 296C509.3 296 520 285.3 520 272C520 258.7 509.3 248 496 248C482.7 248 472 258.7 472 272z"/><path fill="currentColor" d="M32 160L32 480L608 480L608 160L32 160zM0 128L640 128L640 512L0 512L0 128zM208 256L208 304L272 304L272 336L208 336L208 400L176 400L176 336L112 336L112 304L176 304L176 240L208 240L208 256zM408 368C408 354.7 418.7 344 432 344C445.3 344 456 354.7 456 368C456 381.3 445.3 392 432 392C418.7 392 408 381.3 408 368zM496 248C509.3 248 520 258.7 520 272C520 285.3 509.3 296 496 296C482.7 296 472 285.3 472 272C472 258.7 482.7 248 496 248z"/></svg>