<svg xmlns="http://www.w3.org/2000/svg" viewBox="0 0 640 640"><!--! Font Awesome Pro 7.2.0 by @fontawesome - https://fontawesome.com License - https://fontawesome.com/license (Commercial License) Copyright 2026 Fonticons, Inc. --><path opacity=".4" fill="currentColor" d="M128 320L128 416C128 469 171 512 224 512L416 512C469 512 512 469 512 416L512 320L427.4 320L453.1 415.7L457.2 431.2L441.7 435.3L256.2 485L240.7 489.1L236.6 473.6L195.4 319.9L127.9 319.9z"/><path fill="currentColor" d="M112 96L96 96L96 416C96 486.7 153.3 544 224 544L416 544C486.7 544 544 486.7 544 416L544 96L112 96zM128 288L128 128L512 128L512 288L418.8 288C406.6 242.5 400.1 218.1 399.2 214.8L383.7 218.9L198.2 268.6L182.7 272.7L186.8 287.9L127.9 287.9zM195.5 320L236.7 473.7L240.8 489.2L256.3 485.1L441.8 435.4L457.3 431.3L453.2 415.8L427.5 320.1L512.1 320.1L512.1 416.1C512.1 469.1 469.1 512.1 416.1 512.1L224.1 512.1C171.1 512.1 128.1 469.1 128.1 416.1L128.1 320.1L195.6 320.1zM222 295.4L376.6 254L418 408.6L263.4 450L222 295.4z"/></svg>