<svg xmlns="http://www.w3.org/2000/svg" viewBox="0 0 640 640"><!--! Font Awesome Pro 7.2.0 by @fontawesome - https://fontawesome.com License - https://fontawesome.com/license (Commercial License) Copyright 2026 Fonticons, Inc. --><path opacity=".4" fill="currentColor" d="M64.6 304C71.4 207.5 139.3 127.9 229.9 103.6C195.5 148 164.1 223.3 160.4 304L64.6 304zM64.6 336L160.4 336C164.1 416.7 195.5 492 229.9 536.4C139.3 512.1 71.4 432.5 64.6 336zM192.4 304C195.2 248.7 212.3 196 233.9 156.3C245.7 134.5 258.4 117.8 269.7 107C276.1 100.9 280.9 97.7 284 96.1C286.7 96.1 289.4 96.1 292.1 96.1C295.2 97.7 300 100.8 306.4 107C317.7 117.8 330.3 134.6 342.2 156.3C363.8 196 380.8 248.8 383.7 304L192.5 304zM192.4 336L352.9 336C322.5 370 304 414.8 304 464C304 485.4 307.5 505.9 313.9 525.1C311.3 528 308.8 530.7 306.3 533C299.9 539.1 295.1 542.3 292 543.9C290.6 543.9 289.3 543.9 287.9 543.9C286.5 543.9 285.2 543.9 283.8 543.9C280.7 542.3 275.9 539.2 269.5 533C258.2 522.2 245.6 505.4 233.7 483.7C212.1 444 195.1 391.2 192.2 336zM346.1 103.6C426.5 125.2 489.1 190.4 506.9 272.3C503.3 272.1 499.7 272 496 272C466.9 272 439.4 278.5 414.7 290C408.2 214.6 378.5 145.4 346.1 103.6z"/><path fill="currentColor" d="M288 544C289.4 544 290.7 544 292.1 544C295.2 542.4 300 539.3 306.4 533.1C308.9 530.7 311.4 528.1 314 525.2C319.5 541.7 327.3 557.2 336.9 571.4C321.1 574.4 304.8 576 288.1 576C146.7 576 32.1 461.4 32.1 320C32.1 178.6 146.6 64 288 64C414.8 64 520.1 156.2 540.4 277.2C529.6 274.6 518.4 273 506.9 272.3C489.1 190.4 426.6 125.2 346.1 103.6C378.5 145.4 408.2 214.6 414.7 290C391.1 301.1 370.1 316.8 352.9 336L192.4 336C195.2 391.3 212.3 444 233.9 483.7C245.7 505.5 258.4 522.2 269.7 533C276.1 539.1 280.9 542.3 284 543.9C285.4 543.9 286.7 543.9 288.1 543.9zM192.4 304L383.6 304C380.8 248.7 363.7 196 342.1 156.3C330.3 134.5 317.6 117.8 306.3 107C299.9 100.9 295.1 97.7 292 96.1C289.3 96.1 286.6 96.1 283.9 96.1C280.8 97.7 276 100.8 269.6 107C258.3 117.8 245.7 134.6 233.8 156.3C212.2 196 195.2 248.8 192.3 304zM160.4 304C164.1 223.3 195.5 148 229.9 103.6C139.3 127.9 71.4 207.5 64.6 304L160.4 304zM64.6 336C71.4 432.5 139.3 512.1 229.9 536.4C195.5 492 164.1 416.7 160.4 336L64.6 336zM496 576C557.9 576 608 525.9 608 464C608 402.1 557.9 352 496 352C434.1 352 384 402.1 384 464C384 525.9 434.1 576 496 576zM496 320C575.5 320 640 384.5 640 464C640 543.5 575.5 608 496 608C416.5 608 352 543.5 352 464C352 384.5 416.5 320 496 320zM591.9 443.2L567.5 463.9C549.9 444.3 524.4 432 496 432C467.6 432 442.1 444.3 424.6 463.9L400.2 443.2C423.6 416.7 457.8 400 496 400C534.2 400 568.4 416.7 591.9 443.2zM496 456C517.3 456 536.6 464.3 550.9 477.8L526.2 498.7C518 492 507.5 488 496 488C484.5 488 474 492 465.8 498.7L441.1 477.8C455.4 464.3 474.7 456 496 456zM496 508C507 508 516 517 516 528C516 539 507 548 496 548C485 548 476 539 476 528C476 517 485 508 496 508z"/></svg>