<svg xmlns="http://www.w3.org/2000/svg" viewBox="0 0 640 640"><!--! Font Awesome Pro 7.2.0 by @fontawesome - https://fontawesome.com License - https://fontawesome.com/license (Commercial License) Copyright 2026 Fonticons, Inc. --><path opacity=".4" fill="currentColor" d="M240 318.6L240 384L336 384L336 480L361.4 480L400 441.4L400 384L448 384L448 342.6L420.7 315.3L416 310.6L416 256L534.7 256C507.2 163.5 421.4 96 320 96C303.5 96 287.5 97.8 272 101.2L272 192L281.4 192L308.7 164.7L313.4 160L400 160L400 237.6L396.5 242L364.5 282L359.7 288L270.6 288L240 318.6z"/><path fill="currentColor" d="M544 320C544 309.1 543.2 298.5 541.7 288L448 288L448 297.4L475.3 324.7L480 329.4L480 416L432 416L432 454.6L427.3 459.3L379.3 507.3L374.6 512L304 512L304 416L208 416L208 305.4L212.7 300.7L252.7 260.7L257.4 256L344.3 256L368 226.4L368 192L326.6 192L299.3 219.3L294.6 224L240 224L240 110.7C155.8 142.9 96 224.5 96 320C96 443.7 196.3 544 320 544C443.7 544 544 443.7 544 320zM534.7 256C507.2 163.5 421.4 96 320 96C303.5 96 287.5 97.8 272 101.2L272 192L281.4 192L308.7 164.7L313.4 160L400 160L400 237.6L396.5 242L364.5 282L359.7 288L270.6 288L240 318.6L240 384L336 384L336 480L361.4 480L400 441.4L400 384L448 384L448 342.6L420.7 315.3L416 310.6L416 256L534.7 256zM64 320C64 178.6 178.6 64 320 64C461.4 64 576 178.6 576 320C576 461.4 461.4 576 320 576C178.6 576 64 461.4 64 320z"/></svg>