<svg xmlns="http://www.w3.org/2000/svg" viewBox="0 0 640 640"><!--! Font Awesome Pro 7.2.0 by @fontawesome - https://fontawesome.com License - https://fontawesome.com/license (Commercial License) Copyright 2026 Fonticons, Inc. --><path opacity=".4" fill="currentColor" d="M96 384L96 544L160 544L160 384L96 384zM144 256L144 352L192 352L192 256L144 256zM192 128L192 224L272 224L272 160L368 160L368 224L448 224L448 128L192 128zM192 384L192 544L256 544L256 432L384 432L384 544L448 544L448 384L192 384zM224 256L224 352L272 352L272 288L368 288L368 352L416 352L416 256L224 256zM448 256L448 352L496 352L496 256L448 256zM480 384L480 544L544 544L544 384L480 384z"/><path fill="currentColor" d="M192 64L192 96L256 96L256 64L288 64L288 96L352 96L352 64L384 64L384 96L448 96L448 64L480 64L480 224L528 224L528 352L576 352L576 576L64 576L64 352L112 352L112 224L160 224L160 64L192 64zM368 384L192 384L192 544L256 544L256 432L384 432L384 544L448 544L448 384L368 384zM352 544L352 464L288 464L288 544L352 544zM192 128L192 224L272 224L272 160L368 160L368 224L448 224L448 128L192 128zM304 224L336 224L336 192L304 192L304 224zM272 256L224 256L224 352L272 352L272 288L368 288L368 352L416 352L416 256L272 256zM528 384L480 384L480 544L544 544L544 384L528 384zM336 352L336 320L304 320L304 352L336 352zM160 544L160 384L96 384L96 544L160 544zM448 352L496 352L496 256L448 256L448 352zM144 352L192 352L192 256L144 256L144 352z"/></svg>