<svg xmlns="http://www.w3.org/2000/svg" viewBox="0 0 640 640"><!--! Font Awesome Pro 7.2.0 by @fontawesome - https://fontawesome.com License - https://fontawesome.com/license (Commercial License) Copyright 2026 Fonticons, Inc. --><path opacity=".4" fill="currentColor" d="M192 480L192 544L448 544L448 480L192 480zM197.8 317.2C276.4 267.3 357 248.6 410.9 244.1C367.4 212.1 307.6 155.7 265.2 74.5L197.8 317.2z"/><path fill="currentColor" d="M260.1 32.5L244.8 28.5L240.6 43.7L160.6 331.7L156.3 347.3C166.7 350.1 177.2 352.8 188 355.7L195.1 357.6L201.2 353.4C293.7 289.7 391.7 274.5 439.6 275C450.4 275.1 459.2 280.3 465 288.8C469.8 295.8 472.1 304.6 472.1 314.4C472.1 339.6 451.7 360 426.5 360L288.1 360L272.1 360L272.1 392L288.1 392L426.5 392C469.4 392 504.1 357.2 504.1 314.4C504.1 299.8 500.7 284.5 491.6 271C482.7 256.3 469.9 244 455.4 235.3C415.2 211.2 335.3 147.8 286.5 45.3L283.3 38.6C280 37.7 272.3 35.7 260.1 32.5zM265.2 74.5C307.6 155.7 367.4 212.2 410.9 244.1C356.9 248.6 276.4 267.3 197.8 317.2L265.2 74.5zM448 480L448 544L192 544L192 480L448 480zM192 448L160 448L160 544L128 544L128 576L512 576L512 544L480 544L480 448L192 448z"/></svg>