<svg xmlns="http://www.w3.org/2000/svg" viewBox="0 0 640 640"><!--! Font Awesome Pro 7.2.0 by @fontawesome - https://fontawesome.com License - https://fontawesome.com/license (Commercial License) Copyright 2026 Fonticons, Inc. --><path opacity=".4" fill="currentColor" d="M128 128L256 128L256 256L128 256L128 128zM128 384L256 384L256 512L128 512L128 384zM384 128L512 128L512 256L384 256L384 128z"/><path fill="currentColor" d="M128 128L128 256L256 256L256 128L128 128zM96 96L288 96L288 288L96 288L96 96zM128 384L128 512L256 512L256 384L128 384zM96 352L288 352L288 544L96 544L96 352zM512 128L384 128L384 256L512 256L512 128zM384 96L544 96L544 288L352 288L352 96L384 96zM368 432L544 432L544 464L352 464L352 432L368 432z"/></svg>