<svg xmlns="http://www.w3.org/2000/svg" viewBox="0 0 640 640"><!--! Font Awesome Pro 7.2.0 by @fontawesome - https://fontawesome.com License - https://fontawesome.com/license (Commercial License) Copyright 2026 Fonticons, Inc. --><path opacity=".4" fill="currentColor" d="M64.3 307.8C65.5 282.4 70.4 257.9 78.5 235C70.2 258.6 65.5 283.1 64.3 307.8zM84.6 420.8C90 418.8 95.7 417.3 101.5 416.2L116.3 413.4C78.4 330.7 93.5 229.7 161.6 161.6C229.7 93.5 330.7 78.4 413.4 116.3L416.2 101.5C417.3 95.7 418.9 90 420.9 84.6C432.6 89.6 443.9 95.5 454.6 102.1C452.5 107 451 112.2 450.1 117.7C442.5 167.3 438.1 195.8 437 203.1C444.3 202 472.8 197.6 522.4 190C527.9 189.2 533.1 187.6 538 185.5C544.6 196.2 550.5 207.5 555.6 219.3C550.1 221.2 544.5 222.8 538.6 223.8L523.8 226.6C561.7 309.3 546.6 410.3 478.5 478.3C410.4 546.3 309.4 561.5 226.8 523.6L224 538.4C222.9 544.2 221.3 549.9 219.3 555.3C207.6 550.3 196.3 544.4 185.6 537.8C187.7 532.9 189.2 527.7 190.1 522.2C197.7 472.6 202.1 444.1 203.2 436.8C195.9 437.9 167.4 442.3 117.8 449.9C112.3 450.7 107.1 452.3 102.2 454.4C95.6 443.7 89.7 432.4 84.6 420.6zM152.4 332.8L162.5 363.2C166.1 362 189.3 354.3 232.2 340C217.9 382.9 210.2 406.1 209 409.7L239.4 419.8L244.5 404.6L272.8 319.7L276.1 309.9L262.4 296.2L252.6 299.5L167.7 327.8L152.5 332.9zM232.2 457C242.5 465.1 253.6 471.8 265.1 477.1C324.1 503.8 395.9 493 444.4 444.5C492.9 396 503.7 324.2 477 265.2C471.8 253.6 465.1 242.6 456.9 232.3C452.3 243.3 446.9 254.3 440.9 265.3C422.1 299.7 396.6 333.9 365.2 365.3C333.8 396.7 299.6 422.2 265.2 441C254.2 447 243.2 452.4 232.2 457zM296.1 262.3L309.8 276L319.6 272.7L404.5 244.4L419.7 239.3L409.6 208.9C406 210.1 382.8 217.8 339.9 232.1C354.2 189.2 361.9 166 363.1 162.4L332.7 152.3L327.6 167.5L299.3 252.4L296 262.2zM382.5 448.7C395.2 442.4 408.4 433.5 421.9 421.4C431.4 411.3 438.9 401 444.7 390.8C438.8 402 431.2 412.5 421.8 421.9C410.1 433.6 396.8 442.5 382.5 448.7zM561.5 405.1C569.6 382.2 574.5 357.7 575.7 332.3C574.5 357 569.8 381.5 561.5 405.1z"/><path fill="currentColor" d="M413.4 116.3C330.7 78.4 229.7 93.5 161.6 161.6C93.5 229.7 78.4 330.7 116.3 413.4L101.5 416.2C95.7 417.2 90 418.8 84.6 420.8C44.7 327.4 62.8 215.2 139 139C215.2 62.8 327.4 44.7 420.8 84.6C418.8 90 417.2 95.7 416.1 101.5L413.3 116.3zM501 501C424.8 577.2 312.5 595.3 219.2 555.4C221.2 550 222.8 544.3 223.9 538.5L226.7 523.7C309.4 561.6 410.4 546.5 478.4 478.4C546.4 410.3 561.6 309.3 523.7 226.7L538.5 223.9C544.3 222.8 550 221.2 555.4 219.2C595.3 312.6 577.2 424.8 501 501zM387.9 387.9C361.1 414.7 332.2 437.6 302.7 456.1C344.2 465.6 389.5 454.1 421.8 421.8C454.1 389.5 465.5 344.2 456.1 302.7C437.6 332.2 414.7 361.1 387.9 387.9zM365.3 365.3C396.8 333.8 422.2 299.7 441 265.3C447 254.3 452.4 243.3 457 232.3C465.1 242.6 471.8 253.7 477.1 265.2C503.8 324.2 493 396 444.5 444.5C396 493 324.2 503.8 265.2 477.1C253.6 471.9 242.6 465.2 232.3 457C243.3 452.4 254.3 447 265.3 441C299.7 422.2 333.9 396.7 365.3 365.3zM177.8 358.1L162.6 363.2L152.5 332.8L167.7 327.7L252.6 299.4L262.4 296.1L276.1 309.8L272.8 319.6L244.5 404.5L239.4 419.7L209 409.6C210.2 406 217.9 382.8 232.2 339.9L177.7 358.1zM363.1 162.5C361.9 166.1 354.2 189.3 339.9 232.2C382.8 217.9 406 210.2 409.6 209L419.7 239.4L404.5 244.5L319.6 272.8L309.8 276.1L296.1 262.4L299.4 252.6L327.7 167.7L332.8 152.5L363.2 162.6zM436.8 203.1C437.9 195.8 442.3 167.3 449.9 117.7C454.7 86.8 481.3 64 512.5 64C547.5 64 575.9 92.4 575.9 127.4C575.9 158.7 553.1 185.3 522.2 190C472.6 197.6 444.1 202 436.8 203.1zM475.1 164.8L517.4 158.3C532.7 155.9 544 142.8 544 127.3C544 110 530 95.9 512.6 95.9C497.1 95.9 484 107.2 481.6 122.5L475.1 164.8zM199.8 458.4L190 522.3C185.2 553.2 158.6 576 127.4 576C92.4 576 64 547.6 64 512.6C64 481.3 86.8 454.7 117.7 450C167.3 442.4 195.8 438 203.1 436.9L199.8 458.5zM122.6 481.6C107.3 484 96 497.1 96 512.6C96 529.9 110 544 127.4 544C142.9 544 156 532.7 158.4 517.4L164.9 475.1L122.6 481.6z"/></svg>