<svg xmlns="http://www.w3.org/2000/svg" viewBox="0 0 640 640"><!--! Font Awesome Pro 7.2.0 by @fontawesome - https://fontawesome.com License - https://fontawesome.com/license (Commercial License) Copyright 2026 Fonticons, Inc. --><path opacity=".4" fill="currentColor" d="M64 160L64 272L473.4 272L500.7 244.7L505.4 240L576 240L576 160L64 160zM105 512L215 512L267 304L157 304L105 512z"/><path fill="currentColor" d="M544 112L544 96L512 96L512 128L32 128L32 304L124 304L64 544L240 544L272 416L387.3 416L391.1 405.4L427.3 304L486.7 304L491.4 299.3L518.7 272L608.1 272L608.1 128L544.1 128L544.1 112zM280 384L300 304L393.3 304L364.7 384L280 384zM267 304L215 512L105 512L157 304L267 304zM308 272L64 272L64 160L576 160L576 240L505.4 240L500.7 244.7L473.4 272L308 272z"/></svg>