<svg xmlns="http://www.w3.org/2000/svg" viewBox="0 0 640 640"><!--! Font Awesome Pro 7.2.0 by @fontawesome - https://fontawesome.com License - https://fontawesome.com/license (Commercial License) Copyright 2026 Fonticons, Inc. --><path opacity=".4" fill="currentColor" d="M32 319C32 372.6 75.4 416 129 416L208 416C231.8 416 253.2 405.6 267.9 389.1L239.2 372.5C230.8 379.7 219.9 384 208 384C181.5 384 160 362.5 160 336C160 309.5 181.5 288 208 288C219.9 288 230.8 292.3 239.2 299.5L267.9 282.9C260.1 274.1 250.3 267 239.3 262.3L195.4 243.6C222.9 236.7 260.5 227.3 308 215.5L323.5 211.6L315.7 180.6L300.2 184.5C237.6 200.2 183.3 213.7 137.4 225.2C177.3 194 216 163.7 253.3 134.5L233.5 109.3C167.6 160.9 123 195.8 99.7 214C114.2 176.2 126.7 143.8 137.1 116.7L107.2 105.2L38.3 284.2C34.2 295.3 32 307.1 32 319zM316.6 428.4L324.4 459.4L339.9 455.5C402.5 439.8 456.8 426.3 502.7 414.8C462.8 446.1 424.1 476.3 386.8 505.5L406.5 530.7C472.4 479.1 517 444.2 540.3 426C525.8 463.8 513.3 496.2 502.9 523.3L532.8 534.8L601.7 355.8C606 344.7 608.2 332.9 608.2 321C608.2 267.4 564.8 224 511.2 224L432.2 224C408.4 224 387 234.4 372.3 250.9L401 267.5C409.4 260.3 420.3 256 432.2 256C458.7 256 480.2 277.5 480.2 304C480.2 330.5 458.7 352 432.2 352C420.3 352 409.4 347.7 401 340.5L372.3 357.1C380.1 365.9 389.9 373 400.9 377.7L444.8 396.4C417.3 403.3 379.7 412.7 332.2 424.5L316.7 428.4z"/><path fill="currentColor" d="M103.9 69.6L88.9 63.8L83.2 78.8L8.6 272.7C2.9 287.5 0 303.2 0 319C0 390.3 57.7 448 129 448L208 448C236.2 448 262 437.6 281.6 420.4L281.7 420.6C294 469.8 300.5 495.6 301.1 498.2C308.9 496.3 324.4 492.4 347.7 486.6L364.5 482.4C358.3 487.3 350.7 493.2 341.9 500.1C343.5 502.2 360 523.2 391.2 563.1L401.1 575.7C402.4 574.7 425 557 468.9 522.6C468.5 523.6 466.1 530 461.5 541.7C464 542.7 488.9 552.2 536.2 570.4L551.1 576.1L556.8 561.2L631.4 367.2C637.1 352.4 640 336.7 640 320.9C640 249.7 582.3 191.9 511 191.9L432 191.9C403.8 191.9 378 202.3 358.4 219.5L358.3 219.3C346 170.1 339.5 144.3 338.9 141.7C331.1 143.6 315.6 147.5 292.3 153.3L275.5 157.5C281.7 152.6 289.3 146.7 298.1 139.8C296.5 137.7 280 116.7 248.8 76.8L239 64.3C237.7 65.3 215.1 83 171.2 117.4C171.6 116.4 174 110 178.6 98.3C176.1 97.3 151.2 87.8 103.9 69.6zM339.7 240.6C338 243 336.5 245.5 335 248L327 261.8C329.3 263.1 352.4 276.5 396.2 301.9L399.9 304L396.2 306.1C352.3 331.5 329.3 344.8 327 346.2L335 360C340.5 369.5 347.4 378.2 355.4 385.6C333.6 391.1 315.2 395.6 300.3 399.4C302 397 303.5 394.5 305 392L313 378.2C310.7 376.9 287.6 363.5 243.8 338.1L240.1 336L243.8 333.9C287.7 308.5 310.7 295.2 313 293.8L305 280C299.5 270.5 292.6 261.8 284.6 254.4C306.4 248.9 324.8 244.4 339.7 240.6zM221.9 328L226.5 336L221.9 344C219.1 348.9 213.9 352 208 352C199.2 352 192 344.8 192 336C192 327.2 199.2 320 208 320C213.9 320 219.1 323.2 221.9 328zM38.5 284.2L107.4 105.2L137.3 116.7C126.9 143.8 114.4 176.2 99.9 214C123.2 195.8 167.8 160.9 233.7 109.3L253.4 134.5C216.1 163.7 177.4 194 137.5 225.2C183.4 213.7 237.6 200.2 300.3 184.5L315.8 180.6L323.6 211.6C321.7 212.1 294.4 218.9 241.8 232L195.5 243.6L239.4 262.3C250.4 267 260.2 274.1 268 282.9L239.3 299.5C230.9 292.3 220 288 208.1 288C181.6 288 160.1 309.5 160.1 336C160.1 362.5 181.6 384 208.1 384C220 384 230.9 379.7 239.3 372.5L268 389.1C253.4 405.6 232 416 208.1 416L129.1 416C75.5 416 32.1 372.6 32.1 319C32.1 307.1 34.3 295.3 38.6 284.2zM418.1 312L413.5 304L418.1 296C420.9 291.1 426.1 288 432 288C440.8 288 448 295.2 448 304C448 312.8 440.8 320 432 320C426.1 320 420.9 316.8 418.1 312zM601.5 355.8L532.6 534.8L502.7 523.3C513.1 496.2 525.6 463.8 540.1 426C516.8 444.2 472.2 479.1 406.3 530.7L386.6 505.5C423.9 476.3 462.6 446 502.5 414.8C456.6 426.3 402.4 439.8 339.7 455.5L324.2 459.4L316.4 428.4C318.3 427.9 345.6 421.1 398.2 408L444.5 396.4L400.6 377.7C389.6 373 379.8 365.9 372 357.1L400.7 340.5C409.1 347.7 420 352 431.9 352C458.4 352 479.9 330.5 479.9 304C479.9 277.5 458.4 256 431.9 256C420 256 409.1 260.3 400.7 267.5L372 250.9C386.6 234.4 408 224 431.9 224L510.9 224C564.5 224 607.9 267.4 607.9 321C607.9 332.9 605.7 344.7 601.4 355.8z"/></svg>