<svg xmlns="http://www.w3.org/2000/svg" viewBox="0 0 640 640"><!--! Font Awesome Pro 7.2.0 by @fontawesome - https://fontawesome.com License - https://fontawesome.com/license (Commercial License) Copyright 2026 Fonticons, Inc. --><path opacity=".4" fill="currentColor" d="M160 384L160 427.5C160 468.7 182.6 506.6 218.9 526.1L227.2 530.6C243.5 539.4 261.8 544 280.3 544L416 544C460.2 544 496 508.2 496 464L496 336L432 336L432 304L360 304L360 272L272 272L272 240L224 240L224 424L192 424L192 360L160 384zM224 96L224 128L272 128L272 96L224 96z"/><path fill="currentColor" d="M208 64L192 64L192 128L113.9 128C127.2 144.7 142.2 163.3 158.7 184C142.2 204.7 127.2 223.3 113.9 240L192 240L192 320.6C188.8 322.6 185.6 324.8 182.5 327.1L134.4 363.2L128 368L128 427.5C128 480.5 157.1 529.2 203.7 554.3L212 558.8C233 570.1 256.4 576 280.3 576L416 576C477.9 576 528 525.9 528 464L528 304L464 304L464 272L392 272L392 240L304 240L304 64L208 64zM224 240L272 240L272 272L360 272L360 304L432 304L432 336L496 336L496 464C496 508.2 460.2 544 416 544L280.3 544C261.8 544 243.5 539.4 227.2 530.6L227.2 530.6L218.9 526.1C182.6 506.6 160 468.7 160 427.5L160 384L192 360L192 424L224 424L224 240zM272 208L180.5 208C188.5 198 194.9 190 199.7 184C194.9 178 188.5 170 180.5 160L272 160L272 208zM272 128L224 128L224 96L272 96L272 128z"/></svg>