<svg xmlns="http://www.w3.org/2000/svg" viewBox="0 0 640 640"><!--! Font Awesome Pro 7.2.0 by @fontawesome - https://fontawesome.com License - https://fontawesome.com/license (Commercial License) Copyright 2026 Fonticons, Inc. --><path opacity=".4" fill="currentColor" d="M32 160L96 160L96 358.6C96.6 359.2 103.8 366.4 108.7 371.3C236.2 498.8 185.2 447.8 208 470.6L230.6 448C222.6 440 186.3 403.7 142.6 360L176 326.6L304 454.6L304 575.9C242.7 575.5 181.3 575.1 120 574.6L142.6 552L131.3 540.7L32 441.4L32 160zM336 454.6L464 326.6L497.4 360L409.4 448L432 470.6C447.4 455.1 473.5 429.1 531.3 371.3C545.2 357.4 542.4 360.2 544 358.6L544 160L608 160L608 441.4L497.4 552C504.9 559.5 512.5 567.1 520 574.7C458.7 575.1 397.3 575.5 336 576L336 454.6z"/><path fill="currentColor" d="M294.1 117.4L285.7 105.7C277.6 94.5 264.7 87.9 251 87.9C227.3 87.9 208.1 107.1 208.1 130.8L208.1 133.2C208.1 145.8 213.6 161.5 225.4 179.7C237 197.6 253.1 215.3 270 231.3C286.9 247.2 303.8 260.8 316.7 270.3C317.9 271.2 319 272 320.1 272.8C321.2 272 322.3 271.2 323.5 270.3C336.3 260.7 353.3 247.2 370.2 231.3C387.2 215.3 403.2 197.6 414.8 179.7C426.6 161.5 432.1 145.8 432.1 133.2L432.1 130.8C432.1 107.1 412.9 87.9 389.2 87.9C375.4 87.9 362.5 94.5 354.4 105.7C351.7 109.4 340.2 125.3 320 153.2L294.1 117.4zM176 133.3L176 130.9C176 89.5 209.5 56 250.9 56C268.6 56 285.5 62.3 298.8 73.3C303.6 77.3 307.8 81.8 311.5 87L320 98.7L328.4 87C332.1 81.9 336.4 77.3 341.1 73.3C354.4 62.2 371.3 56 389 56C430.4 56 463.9 89.5 463.9 130.9L463.9 133.3C464 218.7 320 312 320 312C320 312 176 218.7 176 133.3zM112 128L128 128L128 329.4L176 281.4L320 425.4L452.7 292.7L464 281.4C467.3 284.7 483.3 300.7 512 329.4L512 128L640 128L640 454.6L635.3 459.3L531.3 563.3L520 574.6L497.4 552L608 441.4L608 160L544 160L544 358.6C543.4 359.2 536.2 366.4 531.3 371.3L459.3 443.3C441.2 461.4 442.1 460.5 432 470.6L409.4 448L497.4 360L464 326.6L336 454.6L336 576L304 576L304 454.6L176 326.6L142.6 360L203.3 420.7L203.3 420.7C214.7 432.1 223.8 441.2 230.6 448L208 470.6C201.2 463.8 192.1 454.7 180.7 443.3L180.7 443.3C34.8 297.4 121.6 384.2 96 358.6L96 160L32 160L32 441.4L131.3 540.7L142.6 552L120 574.6L108.7 563.3L4.7 459.3L0 454.6L0 128L112 128z"/></svg>