<svg xmlns="http://www.w3.org/2000/svg" viewBox="0 0 640 640"><!--! Font Awesome Pro 7.2.0 by @fontawesome - https://fontawesome.com License - https://fontawesome.com/license (Commercial License) Copyright 2026 Fonticons, Inc. --><path opacity=".4" fill="currentColor" d="M96 280C96 333.3 118.6 381.3 154.9 414.9L160 419.6L160 575.9L352 575.9L352 479.9L464 479.9L464 367.9L528 367.9L528 326.5L467.1 265.6L463.2 261.7L462.5 256.3C450.9 165.9 373.6 96 280 96C178.4 96 96 178.4 96 280zM192 240L240 240L240 192L336 192L336 240L384 240L384 336L336 336L336 384L240 384L240 336L192 336L192 240z"/><path fill="currentColor" d="M96 280C96 178.4 178.4 96 280 96C373.6 96 450.9 165.9 462.5 256.4L463.2 261.8L467.1 265.7L528 326.6L528 368L464 368L464 480L352 480L352 576L384 576L384 512L496 512L496 400L560 400L560 313.4L555.3 308.7L493.5 246.9C477.5 143.3 388 64 280 64C160.7 64 64 160.7 64 280C64 340 88.5 394.3 128 433.5L128 576L160 576L160 419.7L154.9 415C118.6 381.3 96 333.3 96 280zM256 192L240 192L240 240L192 240L192 336L240 336L240 384L336 384L336 336L384 336L384 240L336 240L336 192L256 192zM272 272L272 224L304 224L304 272L352 272L352 304L304 304L304 352L272 352L272 304L224 304L224 272L272 272z"/></svg>