<svg xmlns="http://www.w3.org/2000/svg" viewBox="0 0 640 640"><!--! Font Awesome Pro 7.2.0 by @fontawesome - https://fontawesome.com License - https://fontawesome.com/license (Commercial License) Copyright 2026 Fonticons, Inc. --><path opacity=".4" fill="currentColor" d="M64.1 288L312.4 288C330 307.6 355.5 320 384 320L521.4 320L528 326.6L528 368L464 368L464 480L352 480L352 576L160 576L160 419.7L154.9 415C131.9 393.7 114.4 366.6 104.7 336.1L71.3 336C67.2 320.6 64.7 304.5 64.1 288zM140.5 160C174.2 120.8 224.2 96 280 96C318.5 96 354.2 107.8 383.7 128C355.4 128.1 329.9 140.4 312.4 160L140.5 160z"/><path fill="currentColor" d="M140.5 160L312.4 160C329.9 140.4 355.4 128.1 383.7 128C354.2 107.8 318.4 96 280 96C224.2 96 174.2 120.8 140.5 160zM293.5 192L118.4 192C107.8 211.5 100.6 233.1 97.6 256L293.5 256C290 246 288 235.2 288 224C288 212.8 289.9 202 293.5 192zM312.5 288L64.1 288C64 285.3 64 282.7 64 280C64 160.7 160.7 64 280 64C340 64 394.3 88.5 433.5 128L576 128L576 320L560 320L560 400L496 400L496 512L384 512L384 576L352 576L352 480L464 480L464 368L528 368L528 326.6L521.4 320L384 320C355.6 320 330 307.6 312.4 288zM489.4 288L544 288L544 160L384 160C348.7 160 320 188.7 320 224C320 259.3 348.7 288 384 288L489.4 288zM128 433.5C101.2 407 81.4 373.5 71.3 336L104.6 336C114.3 366.5 131.8 393.6 154.8 414.9L159.9 419.6L159.9 575.9L127.9 575.9L127.9 433.4z"/></svg>