<svg xmlns="http://www.w3.org/2000/svg" viewBox="0 0 640 640"><!--! Font Awesome Pro 7.2.0 by @fontawesome - https://fontawesome.com License - https://fontawesome.com/license (Commercial License) Copyright 2026 Fonticons, Inc. --><path opacity=".4" fill="currentColor" d="M96 229.1L96 231.7C96 261 108.6 294.4 131 329.9C132.3 331.9 133.6 334 135 336L197.7 336C225.2 275.4 241.6 239.3 246.9 227.7C249.8 233.1 274.5 279.8 321 367.7C359.8 304.7 380.9 270.4 384.5 264.6C391.1 276.1 404.7 299.9 425.3 336L505 336C506.3 334 507.7 331.9 509 329.9C531.5 294.4 544 261 544 231.7L544 229.1C544 173.2 498.7 128 442.9 128C410.4 128 380 143.6 361 169.9C352.8 181.2 339.2 200.1 320.1 226.5C301 200.1 287.3 181.2 279.2 169.9C260.2 143.6 229.7 128 197.3 128C141.4 128 96.2 173.3 96.2 229.1zM118.2 368C130.1 384.5 143.2 400.6 156.9 416L200.6 416C205.2 420.7 209.8 425.4 214.4 430C245.3 460.5 276.4 486.5 299.7 505C307.4 511.1 314.2 516.3 319.9 520.5C325.6 516.2 332.4 511 340.1 505C363.5 486.6 394.5 460.5 425.4 430C430 425.4 434.7 420.8 439.2 416L482.9 416C496.6 400.6 509.8 384.5 521.6 368L406.5 368C405.8 366.7 398 353.2 383.3 327.4C344.2 391 322.7 425.9 318.8 432.3C317.3 429.6 294.1 385.6 248.9 300.3L222.4 358.7L218.1 368.1L118 368.1zM319.8 559.9C320.6 559.6 410.1 497.8 483 416C409.8 498 320 560 319.8 559.9z"/><path fill="currentColor" d="M320 226.5C300.9 200 287.2 181.2 279.1 169.9C260.1 143.6 229.6 128 197.1 128C141.3 128 96 173.3 96 229.1L96 231.7C96 261 108.6 294.4 131 329.9C132.3 331.9 133.6 334 135 336L197.7 336C225.2 275.4 241.6 239.3 246.9 227.7C249.8 233.1 274.5 279.8 321 367.7C359.8 304.7 380.9 270.4 384.5 264.6C391.1 276.1 404.7 299.9 425.3 336L505 336C506.3 334 507.7 331.9 509 329.9C531.5 294.4 544 261 544 231.7L544 229.1C544 173.2 498.7 128 442.9 128C410.4 128 380 143.6 361 169.9C352.8 181.2 339.2 200.1 320.1 226.5zM512 368L406.7 368C406 366.7 398.2 353.2 383.5 327.4C344.4 391 322.9 425.9 319 432.3C317.5 429.6 294.3 385.6 249.1 300.3L222.6 358.7L218.3 368.1L118.2 368.1C86.5 323.9 64 276.7 64 231.7L64 229.1C64 155.6 123.6 96 197.1 96C237.1 96 274.9 114 300.1 144.8C301.8 146.9 303.4 149 305 151.2L320 171.9L335 151.2C336.6 149 338.2 146.9 339.9 144.8C365.1 114 402.8 96 442.9 96C516.4 96 576 155.6 576 229.1L576 231.7C576 276.7 553.5 323.9 521.8 368L512 368zM156.9 416L200.6 416C205.2 420.7 209.8 425.4 214.4 430C245.3 460.5 276.4 486.5 299.7 505C307.4 511.1 314.2 516.3 319.9 520.5C325.6 516.2 332.4 511 340.1 505C363.5 486.6 394.5 460.5 425.4 430C430 425.4 434.7 420.8 439.2 416L482.9 416C409.7 498 319.9 560 319.9 560C319.9 560 230.1 498 156.9 416z"/></svg>