<svg xmlns="http://www.w3.org/2000/svg" viewBox="0 0 640 640"><!--! Font Awesome Pro 7.2.0 by @fontawesome - https://fontawesome.com License - https://fontawesome.com/license (Commercial License) Copyright 2026 Fonticons, Inc. --><path opacity=".4" fill="currentColor" d="M82.4 320.1L201.5 112L439.5 112L558.6 320.1L444.5 519.5L439.4 528.2L201.5 528.2L82.4 320.1zM221 243.2L232.3 254.5L297.8 320L232.3 385.5L221 396.8L243.6 419.4L254.9 408.1L320.4 342.6L385.9 408.1L397.2 419.4L419.8 396.8L343 320L408.5 254.5L419.8 243.2L397.2 220.6L385.9 231.9L320.4 297.4L254.9 231.9L243.6 220.6L221 243.2z"/><path fill="currentColor" d="M182.9 560.1L45.5 320.1L182.9 80L458 80L595.4 320.1L458 560.1L182.9 560.1zM82.4 320.1L201.5 528.2L439.5 528.2L558.6 320.1L439.5 112L201.5 112L82.4 320.1zM419.9 243.2L408.6 254.5L343.1 320L419.9 396.8L397.3 419.4L386 408.1L320.5 342.6L255 408.1L243.7 419.4L221.1 396.8L232.4 385.5L297.9 320L232.4 254.5L221.1 243.2L243.7 220.6L255 231.9L320.5 297.4L386 231.9L397.3 220.6L419.9 243.2z"/></svg>