<svg xmlns="http://www.w3.org/2000/svg" viewBox="0 0 640 640"><!--! Font Awesome Pro 7.2.0 by @fontawesome - https://fontawesome.com License - https://fontawesome.com/license (Commercial License) Copyright 2026 Fonticons, Inc. --><path opacity=".4" fill="currentColor" d="M32 416L32 544L96 544L96 416L32 416zM128 416L128 544L245.2 544L297.2 416L128 416zM363.2 466.3L394.8 544L512.1 544L512.1 416L383.7 416L390.7 398.7C381.5 421.2 372.4 443.7 363.2 466.2zM544 416L544 544L608 544L608 416L544 416z"/><path fill="currentColor" d="M484.8 39.2L478.8 54L270.8 566L266.8 576L0 576L0 384L310.2 384L449.1 42L455.1 27.2L484.8 39.2zM640 576L373.2 576L369.2 566L345.9 508.7L363.1 466.2L394.7 543.9L512 543.9L512 415.9L383.6 415.9L396.6 383.9L640 383.9L640 575.9zM32 544L96 544L96 416L32 416L32 544zM128 544L245.2 544L297.2 416L128 416L128 544zM544 544L608 544L608 416L544 416L544 544zM190.8 42L294.1 296.2L276.8 338.7L161.2 54L155.2 39.2L184.9 27.2L190.9 42z"/></svg>