<svg xmlns="http://www.w3.org/2000/svg" viewBox="0 0 640 640"><!--! Font Awesome Pro 7.2.0 by @fontawesome - https://fontawesome.com License - https://fontawesome.com/license (Commercial License) Copyright 2026 Fonticons, Inc. --><path opacity=".4" fill="currentColor" d="M96.3 385.9L96.3 544L373.2 544L311.7 432.9L310 429.9C278.7 430.7 247.3 418.3 224.7 393.6C203 370 190 355.8 185.7 351.1L209.3 329.5C213.6 334.2 226.6 348.4 248.3 372C276.5 402.7 323.5 406.7 356.4 381.1L358.5 379.5L371.1 369.7L380.9 382.3L432.1 448.1L503.7 448.1L542.4 390L469.1 192.1L401.6 192.1C397 187.5 382.5 173 373.2 163.7C384 158.3 402.1 149.2 427.6 136.5L415.4 107.7L262 157.7C163.2 189.8 96.3 282 96.3 385.9zM424.3 272C424.3 285.3 413.6 296 400.3 296C387 296 376.3 285.3 376.3 272C376.3 258.7 387 248 400.3 248C413.6 248 424.3 258.7 424.3 272z"/><path fill="currentColor" d="M439 81.7L433.2 68.3L419.3 72.8L252 127.3C140.1 163.7 64.3 268.1 64.3 385.9L64.3 576L427.4 576L414.3 552.3L343.3 424C350.8 421.5 358.1 418.1 365 413.9L411.7 473.9L416.5 480.1L520.9 480.1L525.6 473L573.6 401L578.1 394.2L575.3 386.6L495.3 170.6L491.4 160.2L452 160.2C452.6 159.9 458.2 157.1 468.9 151.8C467.9 149.6 458 126.3 439 81.9zM224.7 393.6C247.3 418.3 278.7 430.6 310 429.9L311.7 432.9L373.2 544L96.3 544L96.3 385.9C96.3 282 163.2 189.8 262 157.7L415.4 107.8L427.7 136.5C402.3 149.2 384.1 158.3 373.3 163.7C400 190.4 397.9 188.3 401.7 192.1L469.2 192.1L542.5 390L503.8 448.1L432.2 448.1L381 382.3L371.2 369.7L358.6 379.5L356.5 381.1C323.6 406.7 276.6 402.7 248.4 372C226.7 348.4 213.7 334.2 209.4 329.5L185.7 351C190 355.7 203 369.9 224.7 393.5zM400.3 296C413.6 296 424.3 285.3 424.3 272C424.3 258.7 413.6 248 400.3 248C387 248 376.3 258.7 376.3 272C376.3 285.3 387 296 400.3 296z"/></svg>