<svg xmlns="http://www.w3.org/2000/svg" viewBox="0 0 640 640"><!--! Font Awesome Pro 7.2.0 by @fontawesome - https://fontawesome.com License - https://fontawesome.com/license (Commercial License) Copyright 2026 Fonticons, Inc. --><path opacity=".4" fill="currentColor" d="M64 192L64 544L256 544L256 192L64 192zM112 288L160 288L160 240L192 240L192 288L240 288L240 320L192 320L192 368L160 368L160 320L112 320L112 288zM288 96L288 544L368 544L368 416L496 416L496 544L576 544L576 96L288 96zM368 192L416 192L416 144L448 144L448 192L496 192L496 224L448 224L448 272L416 272L416 224L368 224L368 192z"/><path fill="currentColor" d="M272 64L256 64L256 160L32 160L32 576L608 576L608 64L272 64zM496 544L496 416L368 416L368 544L288 544L288 96L576 96L576 544L496 544zM400 544L400 448L464 448L464 544L400 544zM64 192L256 192L256 544L64 544L64 192zM416 144L416 192L368 192L368 224L416 224L416 272L448 272L448 224L496 224L496 192L448 192L448 144L416 144zM160 240L160 288L112 288L112 320L160 320L160 368L192 368L192 320L240 320L240 288L192 288L192 240L160 240z"/></svg>