<svg xmlns="http://www.w3.org/2000/svg" viewBox="0 0 640 640"><!--! Font Awesome Pro 7.2.0 by @fontawesome - https://fontawesome.com License - https://fontawesome.com/license (Commercial License) Copyright 2026 Fonticons, Inc. --><path opacity=".4" fill="currentColor" d="M128 96L512 96L512 544L384 544L384 464L416 464C416 452.8 414.1 442 410.5 432C397.3 394.7 361.8 368 320 368C278.2 368 242.6 394.7 229.5 432C226 442 224 452.8 224 464L256 464L256 544L128 544L128 96zM200 168L200 216L248 216L248 168L200 168zM200 264L200 312L248 312L248 264L200 264zM296 168L296 216L344 216L344 168L296 168zM296 264L296 312L344 312L344 264L296 264zM392 168L392 216L440 216L440 168L392 168zM392 264L392 312L440 312L440 264L392 264z"/><path fill="currentColor" d="M64 64L576 64L576 96L544 96L544 544L576 544L576 576L64 576L64 544L96 544L96 96L64 96L64 64zM128 96L128 544L256 544L256 464L224 464C224 452.8 225.9 442 229.5 432C242.7 394.7 278.2 368 320 368C361.8 368 397.4 394.7 410.5 432C414 442 416 452.8 416 464L384 464L384 544L512 544L512 96L128 96zM288 464L288 544L352 544L352 464L288 464zM344 168L344 216L296 216L296 168L344 168zM296 264L344 264L344 312L296 312L296 264zM248 168L248 216L200 216L200 168L248 168zM200 264L248 264L248 312L200 312L200 264zM440 168L440 216L392 216L392 168L440 168zM392 264L440 264L440 312L392 312L392 264zM320 400C296.3 400 275.6 412.9 264.6 432L375.5 432C364.4 412.9 343.8 400 320.1 400z"/></svg>