<svg xmlns="http://www.w3.org/2000/svg" viewBox="0 0 640 640"><!--! Font Awesome Pro 7.2.0 by @fontawesome - https://fontawesome.com License - https://fontawesome.com/license (Commercial License) Copyright 2026 Fonticons, Inc. --><path opacity=".4" fill="currentColor" d="M240.5 342.3L240.5 387.2L320.5 419.2C396.7 388.7 436.7 372.7 440.5 371.2C443.9 372.6 484.6 388.8 562.5 420C566.5 418.7 570.5 417.3 574.6 416L560.5 416L560.5 227.3L416.5 101.3C389.8 124.6 363.1 148 336.4 171.2C336.4 172.9 336.5 174.5 336.5 176.1C336.5 247.2 297.9 309.2 240.5 342.4zM360.5 232L472.5 232L472.5 344L360.5 344L360.5 232z"/><path fill="currentColor" d="M144.5 64C206.4 64 256.5 114.1 256.5 176C256.5 237.9 206.4 288 144.5 288C82.6 288 32.5 237.9 32.5 176C32.5 114.1 82.6 64 144.5 64zM144.5 320C224 320 288.5 255.5 288.5 176C288.5 96.5 224 32 144.5 32C65 32 .5 96.5 .5 176C.5 255.5 65 320 144.5 320zM152.5 97.4L129.9 120C134.5 124.6 147.9 138 169.9 160L64.5 160L64.5 192L169.9 192C147.9 214 134.5 227.4 129.9 232L152.5 254.6L163.8 243.3L219.8 187.3L231.1 176L219.8 164.7L163.8 108.7L152.5 97.4zM336.4 171.3L416.5 101.3L560.5 227.3L560.5 416L574.6 416C585.3 412.4 591.3 410.4 592.5 410L592.5 255.3L598 260L619 236L427 68L416.5 58.7L406 68L331.7 133C334.5 145.4 336.2 158.2 336.5 171.3zM376.5 232L360.5 232L360.5 344L472.5 344L472.5 232L376.5 232zM392.5 312L392.5 264L440.5 264L440.5 312L392.5 312zM199.5 425L193.8 422.9L188.1 425L67.1 470.9C38.7 460.3 21.4 453.8 15.1 451.4L3.9 481.4C9.3 483.4 28.5 490.6 61.5 503L67.1 505.1L72.7 503L193.7 457.1L314.7 503L320.4 505.1L326.1 503L447.1 457.1L568.1 503L573.7 505.1L579.3 503C612.4 490.6 631.6 483.4 636.9 481.4L625.7 451.4C619.4 453.8 602 460.3 573.7 470.9L452.7 425L447 422.9L441.3 425L320.3 470.9L199.3 425zM193.8 518.9L188.1 521L67.1 566.9C38.8 556.3 21.4 549.8 15.1 547.4L3.9 577.4C9.3 579.4 28.5 586.6 61.5 599L67.1 601.1L72.7 599L193.7 553.1L314.7 599L320.4 601.1L326.1 599L447.1 553.1L568.1 599L573.7 601.1L579.3 599C612.4 586.6 631.6 579.4 636.9 577.4L625.7 547.4C619.4 549.8 602.1 556.3 573.7 566.9L452.7 521L447 518.9L441.3 521L320.3 566.9L199.3 521L193.6 518.9z"/></svg>