<svg xmlns="http://www.w3.org/2000/svg" viewBox="0 0 640 640"><!--! Font Awesome Pro 7.2.0 by @fontawesome - https://fontawesome.com License - https://fontawesome.com/license (Commercial License) Copyright 2026 Fonticons, Inc. --><path opacity=".4" fill="currentColor" d="M176.1 227.3L320.1 101.3L464.1 227.3C464.1 278.5 464.1 329.7 463.9 380.8L440.1 371.3C436.3 372.8 396.3 388.8 320.1 419.3C243.9 388.8 203.9 372.8 200.1 371.3C192.2 374.5 184.3 377.6 176.1 380.9L176.1 227.3zM264.1 232L264.1 344L376.1 344L376.1 232L264.1 232z"/><path fill="currentColor" d="M330.6 68L320.1 58.8L309.6 68L117.6 236L138.7 260.1L144.2 255.3L144.2 393.7L176.2 380.9L176.2 227.3L320.2 101.3L464.2 227.3L464.2 380.9L496.2 393.7L496.2 255.3L501.7 260.1L522.8 236L330.8 68zM264.1 232L264.1 344L376.1 344L376.1 232L264.1 232zM296.1 264L344.1 264L344.1 312L296.1 312L296.1 264zM193.4 422.9L187.7 425L66.7 470.9C38.4 460.3 21 453.8 14.7 451.4L3.5 481.4C8.9 483.4 28.1 490.6 61.1 503L66.7 505.1L72.3 503L193.3 457.1L314.3 503L320 505.1L325.7 503L446.7 457.1L567.7 503L573.3 505.1L578.9 503C612 490.6 631.2 483.4 636.5 481.4L625.3 451.4C619 453.8 601.7 460.3 573.3 470.9L452.3 425L446.6 422.9L440.9 425L319.9 470.9L198.9 425L193.2 422.9zM199.1 521L193.4 518.9L187.7 521L66.7 566.9C38.3 556.3 21 549.8 14.7 547.4L3.5 577.4C8.9 579.4 28.1 586.6 61.1 599L66.7 601.1L72.3 599L193.3 553.1L314.3 599L320 601.1L325.7 599L446.7 553.1L567.7 599L573.3 601.1L578.9 599C612 586.6 631.2 579.4 636.5 577.4L625.3 547.4C619 549.8 601.6 556.3 573.3 566.9L452.3 521L446.6 518.9L440.9 521L319.9 566.9L198.9 521z"/></svg>