<svg xmlns="http://www.w3.org/2000/svg" viewBox="0 0 640 640"><!--! Font Awesome Pro 7.2.0 by @fontawesome - https://fontawesome.com License - https://fontawesome.com/license (Commercial License) Copyright 2026 Fonticons, Inc. --><path opacity=".4" fill="currentColor" d="M112 266.2L288 101.9L414.8 220.2C390.1 236.8 357.9 263.9 330.5 298.3C314.8 318 299.6 341.5 288.6 368L208 368L208 544L112 544L112 266.2z"/><path fill="currentColor" d="M288 58.1L298.9 68.3L442.7 202.5L422.5 215.1C420 216.7 417.4 218.3 414.7 220.2L287.9 101.9L111.9 266.2L111.9 544L207.9 544L207.9 368L288.5 368C284.3 378.2 280.6 388.9 277.9 400L239.9 400L239.9 544L295.4 544C301.3 555.3 308.2 566 316 576L80 576L80 296C64.4 310.6 53.5 320.8 47.2 326.6L25.4 303.2L37.1 292.3L277.1 68.3L288 58.1zM489.4 297.4L512 320L544 288C620.8 352 640 421.3 640 448C640 533.2 573.4 602.9 489.3 607.7C483.2 608.3 476.7 608.3 470.6 607.7C386.6 602.9 319.9 533.2 319.9 448C319.9 358.4 405.2 282.7 447.9 256L489.3 297.4zM480 576C482.4 576 484.8 575.9 487.2 575.8C520.8 572.5 544 546.4 544 518.5C544 496.6 528.1 471 505 447.2C496.2 438.2 487.4 430.3 480 424.2C472.6 430.3 463.8 438.1 455 447.2C431.9 471 416 496.7 416 518.5C416 546.3 439.2 572.5 472.8 575.8C475.2 575.9 477.6 576 480 576zM576 518.6C576 524 575.5 529.2 574.5 534.4C595.3 511.6 608 481.3 608 448.1C608 434 597 384.4 545 332.3C540.1 337.2 529.1 348.2 512 365.3C500.6 353.9 478.1 331.4 444.4 297.7C428.2 310.4 409.5 327.7 393 348.4C368.7 378.9 352 413.4 352 448.1C352 481.4 364.7 511.7 385.5 534.4C384.5 529.3 384 524 384 518.6C384 448.2 480 384.2 480 384.2C480 384.2 576 448.2 576 518.6z"/></svg>