<svg xmlns="http://www.w3.org/2000/svg" viewBox="0 0 640 640"><!--! Font Awesome Pro 7.2.0 by @fontawesome - https://fontawesome.com License - https://fontawesome.com/license (Commercial License) Copyright 2026 Fonticons, Inc. --><path opacity=".4" fill="currentColor" d="M96.1 232.5L256.1 78.2L416.1 232.5L416.1 320L320.1 320L320.1 240L192.1 240L192.1 368L240.1 368C240.1 405.3 240.1 442.7 240.1 480L96.1 480L96.1 232.5z"/><path fill="currentColor" d="M256.1 33.8L267.2 44.5L491.2 260.5L502.7 271.6L480.5 294.6C474.4 288.7 463.6 278.3 448.1 263.3L448.1 319.9L416.1 319.9L416.1 232.4L256.1 78.1L96.1 232.4L96.1 479.9L240.1 479.9L240.1 511.9L64.1 511.9L64.1 263.3L31.7 294.6L9.5 271.6L21 260.5L245 44.5L256.1 33.8zM320.1 256L320.1 320L288.1 320L288.1 272L224.1 272L224.1 336L240.1 336L240.1 368L192.1 368L192.1 240L320.1 240L320.1 256zM544.1 400L320.1 400L320.1 576L544.1 576L544.1 400zM288.1 400L288.1 368L576.1 368L576.1 576L624.1 576L624.1 608L240.1 608L240.1 576L288.1 576L288.1 400z"/></svg>