<svg xmlns="http://www.w3.org/2000/svg" viewBox="0 0 640 640"><!--! Font Awesome Pro 7.2.0 by @fontawesome - https://fontawesome.com License - https://fontawesome.com/license (Commercial License) Copyright 2026 Fonticons, Inc. --><path opacity=".4" fill="currentColor" d="M32 144C32 188.2 67.8 224 112 224C125.1 224 137.5 220.8 148.5 215.2C108.3 198.2 80 158.4 80 112C80 96.1 83.3 81 89.3 67.3C56.2 77.1 32 107.7 32 144zM208 328.5L208 576L528 576L528 328.5L368 174.2L208 328.5zM304 336L432 336L432 464L304 464L304 336z"/><path fill="currentColor" d="M288 16L256 16L256 64L208 64L208 96L256 96L256 144L288 144L288 96L336 96L336 64L288 64L288 16zM113.6 32C113.1 32 112.5 32 112 32C50.1 32 0 82.1 0 144C0 205.9 50.1 256 112 256C142.5 256 170.2 243.8 190.4 224C190.9 223.5 191.5 222.9 192 222.4C201.5 212.7 209.2 201.3 214.7 188.7C207.5 190.8 199.9 192 192 192C186.9 192 181.9 191.5 177 190.6C140 183.6 112 151.1 112 112C112 94.6 117.5 78.5 127 65.4C134.4 55.1 144.2 46.6 155.6 40.8C142.7 35.3 128.5 32.2 113.7 32zM32 144C32 107.7 56.2 77.1 89.3 67.3C83.3 81 80 96.1 80 112C80 158.4 108.2 198.2 148.5 215.2C137.6 220.8 125.2 224 112 224C67.8 224 32 188.2 32 144zM379.1 140.5L368 129.8L356.9 140.5L132.9 356.5L121.4 367.6L143.6 390.6C149.7 384.7 160.5 374.3 176 359.3L176 607.9L560 607.9L560 359.3C575.5 374.2 586.3 384.7 592.4 390.6L614.6 367.6L603.1 356.5L379.1 140.5zM528 328.5L528 576L208 576L208 328.5L368 174.2L528 328.5zM304 336L304 464L432 464L432 336L304 336zM336 368L400 368L400 432L336 432L336 368zM576 80L544 80L544 128L496 128L496 160L544 160L544 208L576 208L576 160L624 160L624 128L576 128L576 80z"/></svg>