<svg xmlns="http://www.w3.org/2000/svg" viewBox="0 0 640 640"><!--! Font Awesome Pro 7.2.0 by @fontawesome - https://fontawesome.com License - https://fontawesome.com/license (Commercial License) Copyright 2026 Fonticons, Inc. --><path opacity=".4" fill="currentColor" d="M64 224L576 224L576 512L330.7 512L304 432L144 432L117.3 512L64 512L64 224zM160 336C160 371.3 188.7 400 224 400C259.3 400 288 371.3 288 336C288 300.7 259.3 272 224 272C188.7 272 160 300.7 160 336zM368 288L368 320L528 320L528 288L368 288zM368 384L368 416L528 416L528 384L368 384z"/><path fill="currentColor" d="M64 128L64 192L576 192L576 128L64 128zM32 208L32 96L608 96L608 544L32 544L32 208zM576 224L64 224L64 512L117.3 512L144 432L304 432L330.7 512L576 512L576 224zM296.9 512L280.9 464L167 464L151 512L296.9 512zM224 368C241.7 368 256 353.7 256 336C256 318.3 241.7 304 224 304C206.3 304 192 318.3 192 336C192 353.7 206.3 368 224 368zM224 272C259.3 272 288 300.7 288 336C288 371.3 259.3 400 224 400C188.7 400 160 371.3 160 336C160 300.7 188.7 272 224 272zM368 288L528 288L528 320L368 320L368 288zM368 384L528 384L528 416L368 416L368 384z"/></svg>