<svg xmlns="http://www.w3.org/2000/svg" viewBox="0 0 640 640"><!--! Font Awesome Pro 7.2.0 by @fontawesome - https://fontawesome.com License - https://fontawesome.com/license (Commercial License) Copyright 2026 Fonticons, Inc. --><path opacity=".4" fill="currentColor" d="M192 144L192 544L448 544L448 144L192 144zM216 192L256 192C282.2 192 305.4 204.6 320 224C334.6 204.6 357.8 192 384 192L424 192L424 208C424 213.5 423.4 218.8 422.4 224C415 260.5 382.7 288 344 288L296 288C257.3 288 225 260.5 217.6 224C216.6 218.8 216 213.5 216 208L216 192zM216 296L256 296C282.2 296 305.4 308.6 320 328C334.6 308.6 357.8 296 384 296L424 296L424 312C424 317.5 423.4 322.8 422.4 328C415 364.5 382.7 392 344 392L296 392C257.3 392 225 364.5 217.6 328C216.6 322.8 216 317.5 216 312L216 296zM216 400L256 400C282.2 400 305.4 412.6 320 432C334.6 412.6 357.8 400 384 400L424 400L424 416C424 421.5 423.4 426.8 422.4 432C415 468.5 382.7 496 344 496L336 496L336 528L304 528L304 496L296 496C257.3 496 225 468.5 217.6 432C216.6 426.8 216 421.5 216 416L216 400z"/><path fill="currentColor" d="M208 32L208 64L432 64L432 32L208 32zM448 144L448 544L192 544L192 144L448 144zM192 112L160 112L160 576L480 576L480 112L192 112zM344 256L338.7 256C345.3 237.4 363.1 224 384 224L389.3 224C382.7 242.6 364.9 256 344 256zM384 192C357.8 192 334.6 204.6 320 224C305.4 204.6 282.2 192 256 192L216 192L216 208C216 213.5 216.6 218.8 217.6 224C225 260.5 257.3 288 296 288L344 288C382.7 288 415 260.5 422.4 224C423.4 218.8 424 213.5 424 208L424 192L384 192zM301.3 464L296 464C275.1 464 257.3 450.6 250.7 432L256 432C276.9 432 294.7 445.4 301.3 464zM217.6 432C225 468.5 257.3 496 296 496L304 496L304 528L336 528L336 496L344 496C382.7 496 415 468.5 422.4 432C423.4 426.8 424 421.5 424 416L424 400L384 400C357.8 400 334.6 412.6 320 432C305.4 412.6 282.2 400 256 400L216 400L216 416C216 421.5 216.6 426.8 217.6 432zM344 464L338.7 464C345.3 445.4 363.1 432 384 432L389.3 432C382.7 450.6 364.9 464 344 464zM301.3 256L296 256C275.1 256 257.3 242.6 250.7 224L256 224C276.9 224 294.7 237.4 301.3 256zM344 360L338.7 360C345.3 341.4 363.1 328 384 328L389.3 328C382.7 346.6 364.9 360 344 360zM384 296C357.8 296 334.6 308.6 320 328C305.4 308.6 282.2 296 256 296L216 296L216 312C216 317.5 216.6 322.8 217.6 328C225 364.5 257.3 392 296 392L344 392C382.7 392 415 364.5 422.4 328C423.4 322.8 424 317.5 424 312L424 296L384 296zM301.3 360L296 360C275.1 360 257.3 346.6 250.7 328L256 328C276.9 328 294.7 341.4 301.3 360z"/></svg>