<svg xmlns="http://www.w3.org/2000/svg" viewBox="0 0 640 640"><!--! Font Awesome Pro 7.2.0 by @fontawesome - https://fontawesome.com License - https://fontawesome.com/license (Commercial License) Copyright 2026 Fonticons, Inc. --><path opacity=".4" fill="currentColor" d="M80.9 282.7C81.7 283.3 82.5 283.9 83.3 284.7L139.3 340.7L150.6 352L128 374.6C124.5 371.1 108.9 355.5 81.2 327.8C93.1 449.2 195.5 544 320 544C444.5 544 546.9 449.2 558.8 327.8C531.1 355.5 515.5 371.1 512 374.6L489.4 352L500.7 340.7L556.7 284.7C557.4 284 558.2 283.3 559.1 282.7C558.2 272.3 556.6 262.2 554.4 252.2C530.4 276.2 516.2 290.4 512 294.6L489.4 272C491.6 269.8 509.8 251.6 544 217.5C531.3 184.7 511.7 155.4 486.8 131.4C487.6 138.2 488.1 145 488.1 152C488.1 205.6 463 253.4 423.9 284.1C448.8 310 464.1 345.2 464.1 384C464.1 463.5 399.6 528 320.1 528C240.6 528 176 463.5 176 384C176 345.2 191.3 310 216.2 284.1C177.1 253.4 152 205.6 152 152C152 145 152.4 138.1 153.3 131.4C128.5 155.4 108.8 184.7 96.1 217.5C130.2 251.6 148.4 269.8 150.7 272L128 294.6C123.8 290.4 109.6 276.2 85.6 252.2C83.4 262.1 81.8 272.3 80.9 282.7z"/><path fill="currentColor" d="M336 64L336 342.1L387.9 316.2L362.8 366.4L416 384.1L362.8 401.8L387.9 452L336 426.1L336 495C390.3 487.2 432 440.6 432 384.1C432 347.9 414.9 315.8 388.2 295.3L369.6 281L389.8 268.9C429.5 245.1 456 201.7 456 152.1C456 131.8 451.5 112.5 443.6 95.2L466.8 75C542 123.3 592 207.8 592 304C592 454.2 470.2 576 320 576C169.8 576 48 454.2 48 304C48 207.8 98 123.3 173.3 74.9L196.5 95.1C188.5 112.4 184.1 131.6 184.1 152C184.1 201.6 210.6 245 250.3 268.8L270.5 280.9L251.9 295.2C225.3 315.7 208.1 347.9 208.1 384C208.1 440.4 249.8 487.1 304.1 494.9L304.1 426L252.2 451.9L277.3 401.7L224.1 384L277.3 366.3L252.2 316.1L304.1 342L304.1 63.9L336.1 63.9zM96.1 217.5C130.2 251.6 148.4 269.8 150.7 272L128 294.6C123.8 290.4 109.6 276.2 85.6 252.2C83.4 262.1 81.8 272.3 80.9 282.7C81.7 283.3 82.5 283.9 83.3 284.7L139.3 340.7L150.6 352L128 374.6C124.5 371.1 108.9 355.5 81.2 327.8C93.1 449.2 195.5 544 320 544C444.5 544 546.9 449.2 558.8 327.8C531.1 355.5 515.5 371.1 512 374.6L489.4 352L500.7 340.7L556.7 284.7C557.4 284 558.2 283.3 559.1 282.7C558.2 272.3 556.6 262.2 554.4 252.2C530.4 276.2 516.2 290.4 512 294.6L489.4 272C491.6 269.8 509.8 251.6 544 217.5C531.3 184.7 511.7 155.4 486.8 131.4C487.6 138.2 488.1 145 488.1 152C488.1 205.6 463 253.4 423.9 284.1C448.8 310 464.1 345.2 464.1 384C464.1 463.5 399.6 528 320.1 528C240.6 528 176 463.5 176 384C176 345.2 191.3 310 216.2 284.1C177.1 253.4 152 205.6 152 152C152 145 152.4 138.1 153.3 131.4C128.5 155.4 108.8 184.7 96.1 217.5z"/></svg>