<svg xmlns="http://www.w3.org/2000/svg" viewBox="0 0 640 640"><!--! Font Awesome Pro 7.2.0 by @fontawesome - https://fontawesome.com License - https://fontawesome.com/license (Commercial License) Copyright 2026 Fonticons, Inc. --><path opacity=".4" fill="currentColor" d="M96 196.1L96 249.9L320 334.9L544 249.9L544 196.1L325.7 278.9L320 281.1L314.3 278.9L96 196.1zM96 284.1L96 337.9L192 374.3L192 408.5L96 372.1L96 457.8L320 541.8L544 457.8L544 372.1L448 408.5L448 374.3L544 337.9L544 284.1L325.7 366.9L320 369.1L314.3 366.9L96 284.1zM240 392.5L320 422.8L400 392.5L400 426.7L325.7 454.9L320 457.1L314.3 454.9L240 426.7L240 392.5z"/><path fill="currentColor" d="M320 541.8L544 457.8L544 372.1L448 408.5L448 374.3L544 337.9L544 284.1L325.7 366.9L320 369.1L314.3 366.9L96 284.1L96 337.9L192 374.3L192 408.5L96 372.1L96 457.8L320 541.8zM544 249.9L544 196.1L325.7 278.9L320 281.1L314.3 278.9L96 196.1L96 249.9L320 334.9L544 249.9zM517.1 172.1L320 98.2L122.9 172.1L320 246.9L517.1 172.1zM64 160L320 64L576 160L576 480L320 576L64 480L64 160zM240 426.8L240 392.6L320 422.9L400 392.6L400 426.8L325.7 455L320 457.2L314.3 455L240 426.8z"/></svg>