<svg xmlns="http://www.w3.org/2000/svg" viewBox="0 0 640 640"><!--! Font Awesome Pro 7.2.0 by @fontawesome - https://fontawesome.com License - https://fontawesome.com/license (Commercial License) Copyright 2026 Fonticons, Inc. --><path opacity=".4" fill="currentColor" d="M160 448C160 484 171.9 517.2 192 544L448 544C468.1 517.2 480 484 480 448C480 399.3 458.2 355.7 423.9 326.3C422.1 324.7 420.2 323.2 418.2 321.7C417.9 321.5 417.6 321.2 417.3 320.9C411.3 316.3 405 312.1 398.3 308.4C375.1 295.4 348.4 287.9 320 287.9C231.6 287.9 160 359.5 160 447.9z"/><path fill="currentColor" d="M480 232.9L440.5 298.6C484.1 333.8 512 387.6 512 448C512 497.2 493.5 542 463.1 576L176.9 576C146.5 542 128 497.2 128 448C128 387.6 155.9 333.8 199.4 298.6L160 232.9L160 64L480 64L480 232.9zM320 288C231.6 288 160 359.6 160 448C160 484 171.9 517.2 192 544L448 544C468.1 517.2 480 484 480 448C480 399.3 458.2 355.7 423.9 326.3C422.1 324.7 420.2 323.2 418.2 321.7C417.9 321.5 417.6 321.2 417.3 320.9C411.3 316.3 405 312.1 398.3 308.4C375.1 295.4 348.4 287.9 320 287.9zM192 224L226 280.6C253.8 265 285.9 256 320 256C354.2 256 386.2 265 414 280.6L448 224L448 96L192 96L192 224z"/></svg>