<svg xmlns="http://www.w3.org/2000/svg" viewBox="0 0 640 640"><!--! Font Awesome Pro 7.2.0 by @fontawesome - https://fontawesome.com License - https://fontawesome.com/license (Commercial License) Copyright 2026 Fonticons, Inc. --><path opacity=".4" fill="currentColor" d="M128 373.6L182.4 224L457.6 224L512 373.6L512 384L128 384L128 373.6zM288 96L384 96C392.8 96 400 103.2 400 112C400 120.8 392.8 128 384 128L288 128L288 96z"/><path fill="currentColor" d="M288 96L288 128L384 128C392.8 128 400 120.8 400 112C400 103.2 392.8 96 384 96L288 96zM256 96L256 64L384 64C410.5 64 432 85.5 432 112C432 138.5 410.5 160 384 160L256 160L256 128L192 128L192 192L480 192L544 368L544 416L336 416L336 544L416 544L416 576L224 576L224 544L304 544L304 416L96 416L96 368L160 192L160 96L256 96zM128 373.6L128 384L512 384L512 373.6L457.6 224L182.4 224L128 373.6z"/></svg>