<svg xmlns="http://www.w3.org/2000/svg" viewBox="0 0 640 640"><!--! Font Awesome Pro 7.2.0 by @fontawesome - https://fontawesome.com License - https://fontawesome.com/license (Commercial License) Copyright 2026 Fonticons, Inc. --><path opacity=".4" fill="currentColor" d="M32 464L608 464L608 474.7L570.7 512L69.2 512L31.9 474.7L31.9 464zM96 128L256 128L256 96L304 96L304 297.4C262 255.4 240.6 234 240 233.4L217.4 256L228.7 267.3L308.7 347.3L320 358.6L331.3 347.3L411.3 267.3L422.6 256L400 233.4C399.4 234 378 255.4 336 297.4L336 96L384 96L384 128L544 128L544 384L96 384L96 128z"/><path fill="currentColor" d="M336 80L336 64L304 64L304 297.4C262 255.4 240.6 234 240 233.4L217.4 256L228.7 267.3L308.7 347.3L320 358.6L331.3 347.3L411.3 267.3L422.6 256L400 233.4C399.4 234 378 255.4 336 297.4L336 80zM96 96L64 96L64 384L96 384L96 128L256 128L256 96L96 96zM544 128L544 384L576 384L576 96L384 96L384 128L544 128zM69.3 512L32 474.7L32 464L608 464L608 474.7L570.7 512L69.2 512zM640 432L0 432L0 488L56 544L584 544L640 488L640 432z"/></svg>