<svg xmlns="http://www.w3.org/2000/svg" viewBox="0 0 640 640"><!--! Font Awesome Pro 7.2.0 by @fontawesome - https://fontawesome.com License - https://fontawesome.com/license (Commercial License) Copyright 2026 Fonticons, Inc. --><path opacity=".4" fill="currentColor" d=""/><path fill="currentColor" d="M384 32L352 32L352 96L288 96L288 128L352 128L352 192L384 192L384 128L448 128L448 96L384 96L384 32zM496 160L496 182.9C526.1 207.4 544 238.4 544 272C544 311.7 519 347.7 478.4 373.8C437.9 399.9 381.9 416 320 416C262.7 416 210.4 402.2 170.7 379.4L161.4 373.7C120.9 347.6 96 311.6 96 272C96 232.3 121 196.3 161.6 170.2C183.7 156 210.3 144.8 240 137.5L240 104.6C204.1 112.5 171.5 125.8 144.3 143.3C98.2 172.9 64 217.7 64 272C64 326.3 98.2 371.1 144.3 400.7C147.6 402.8 151 404.9 154.4 406.9L227.5 451.4C242.5 460.6 251.8 477.1 251.8 494.8C251.8 522.6 229.3 545.2 201.6 545.2C194.7 545.2 187.8 543.8 181.5 541C131.3 519 105.4 507.7 103.7 506.9L90.9 536.2C92.6 536.9 118.5 548.3 168.7 570.3C179.1 574.8 190.3 577.2 201.6 577.2C247.1 577.2 283.8 540.1 283.8 494.8C283.8 476.3 277.6 458.6 266.6 444.3C283.9 446.8 301.7 448.1 319.9 448.1C387 448.1 449.2 430.7 495.6 400.8C541.8 371.1 575.9 326.3 575.9 272.1C575.9 217.9 541.9 173.2 495.9 143.6L496 160zM544 448L512 448L512 512L448 512L448 544L512 544L512 608L544 608L544 544L608 544L608 512L544 512L544 448z"/></svg>