<svg xmlns="http://www.w3.org/2000/svg" viewBox="0 0 640 640"><!--! Font Awesome Pro 7.2.0 by @fontawesome - https://fontawesome.com License - https://fontawesome.com/license (Commercial License) Copyright 2026 Fonticons, Inc. --><path opacity=".4" fill="currentColor" d="M98.3 448C113.8 339.4 207.2 256 320 256C432.8 256 526.2 339.4 541.7 448L98.3 448z"/><path fill="currentColor" d="M336 64L336 224.5C459.3 232.1 558.9 326.9 574 448C575.3 458.5 576 469.2 576 480L421.2 480C403.2 517.8 364.7 544 320 544C275.3 544 236.8 517.8 218.8 480L64 480C64 469.2 64.7 458.5 66 448C81.1 326.9 180.8 232.1 304 224.5L304 64L336 64zM251.1 480C266.3 501.8 291.5 516 320 516C348.5 516 373.8 501.8 388.9 480L251 480zM98.3 448L541.8 448C526.2 339.4 432.8 256 320 256C207.2 256 113.8 339.4 98.3 448z"/></svg>