<svg xmlns="http://www.w3.org/2000/svg" viewBox="0 0 640 640"><!--! Font Awesome Pro 7.2.0 by @fontawesome - https://fontawesome.com License - https://fontawesome.com/license (Commercial License) Copyright 2026 Fonticons, Inc. --><path opacity=".4" fill="currentColor" d="M160 96L480 96L480 544L160 544L160 96zM224 160L224 480C288 480 352 480 416 480L416 160L224 160zM256 192L384 192L384 304L256 304L256 192zM288 224L288 256L352 256L352 224L288 224z"/><path fill="currentColor" d="M160 96L160 544L480 544L480 96L160 96zM128 64L512 64L512 576L128 576L128 64zM224 304L224 160L416 160L416 480L224 480L224 304zM256 336L256 448L384 448L384 336L256 336zM256 304L384 304L384 192L256 192L256 304zM304 224L352 224L352 256L288 256L288 224L304 224z"/></svg>