<svg xmlns="http://www.w3.org/2000/svg" viewBox="0 0 640 640"><!--! Font Awesome Pro 7.2.0 by @fontawesome - https://fontawesome.com License - https://fontawesome.com/license (Commercial License) Copyright 2026 Fonticons, Inc. --><path opacity=".4" fill="currentColor" d="M128 416L128 512L512 512L512 416L128 416zM192 256L192 384L448 384L448 256C448 185.3 390.7 128 320 128C249.3 128 192 185.3 192 256zM224 272C224 210.1 274.1 160 336 160L336 192C291.8 192 256 227.8 256 272L224 272z"/><path fill="currentColor" d="M512 384L480 384L480 256C480 167.6 408.4 96 320 96C231.6 96 160 167.6 160 256L160 384L96 384L96 544L544 544L544 384L512 384zM448 256L448 384L192 384L192 256C192 185.3 249.3 128 320 128C390.7 128 448 185.3 448 256zM128 416L512 416L512 512L128 512L128 416zM256 272C256 227.8 291.8 192 336 192L336 160C274.1 160 224 210.1 224 272L256 272z"/></svg>