<svg xmlns="http://www.w3.org/2000/svg" viewBox="0 0 640 640"><!--! Font Awesome Pro 7.2.0 by @fontawesome - https://fontawesome.com License - https://fontawesome.com/license (Commercial License) Copyright 2026 Fonticons, Inc. --><path opacity=".4" fill="currentColor" d="M99.6 343.6C102.2 350.4 105 357 108 363.3L115 377.7L107.6 391.9C104.6 397.6 102 403.7 99.8 410C104.2 415.1 108.8 419.8 113.5 424L125.5 434.6L124.3 450.6C123.8 456.9 123.8 463.5 124.2 470.2C127.7 471.9 131.1 473.5 134.5 474.9L142.3 477.7L157.5 482.8L162.6 498C164.6 504 167.1 510.1 170.1 516.1C176.8 516.5 183.4 516.5 189.7 516L205.7 514.8L216.3 526.8C220.5 531.5 225.2 536.1 230.2 540.5C236.5 538.2 242.6 535.7 248.3 532.7L262.5 525.3L276.9 532.3C283.2 535.3 289.8 538.1 296.6 540.7C302.5 536.3 308.2 531.8 313.8 527.1L326 516.7L341.7 520.2L350.7 522.1C354.9 522.9 359.1 523.6 363.3 524.3C368.3 518.8 373.1 513.2 377.7 507.5L387.7 494.9L403.8 495.4C411.1 495.6 418.4 495.6 425.8 495.3C429.6 489 433.2 482.7 436.5 476.3L443.7 462L459.5 459.3C466.5 458.1 473.5 456.6 480.5 454.7C482.7 447.9 484.6 441.1 486 434.4L489.3 418.7L503.8 411.9L511.6 408.1C515.1 406.3 518.4 404.3 521.8 402.3C521.7 395.4 521.3 388.8 520.4 382.5L518.1 366.7L529.4 355.4C533.9 350.9 538.2 345.8 542.3 340.5C540.8 337 539.3 333.6 537.6 330.3L533.6 323.2L525.3 309.7L531.1 294.9C533.2 289.4 534.7 283.6 535.7 277.6C524.3 268.3 511.1 259.4 496.5 250.1C477.8 238.2 455.7 225.1 436.6 211.2L432.5 208.2L429.5 204.1C415.6 185 402.5 162.9 390.6 144.2C381.3 129.6 372.4 116.4 363.1 105C357.1 106 351.3 107.5 345.8 109.7L331 115.5L317.5 107.2C315.7 106.1 314 105.1 312.2 104.1L306.7 101.3C304.5 100.3 302.3 99.4 300.1 98.4C294.8 102.5 289.8 106.7 285.3 111.2L274 122.5L258.2 120.2C251.9 119.3 245.2 118.8 238.3 118.7C234.7 124.6 231.5 130.6 228.6 136.8L221.9 151.3L206.2 154.6C199.5 156 192.7 157.8 185.9 160C184.1 167 182.6 174 181.4 181L178.7 196.8L164.4 204.1C158 207.3 151.7 210.9 145.4 214.7C145.1 222.1 145.1 229.5 145.3 236.8L145.8 252.9L133.2 262.9C127.5 267.5 121.9 272.2 116.4 277.2C117.5 284.6 118.9 291.8 120.5 298.9L124 314.6L113.6 326.8C108.9 332.3 104.3 338 99.9 343.9zM197.4 436.6L200.5 420.9L210.6 370.4L261.1 360.3L276.8 357.2L283 388.6C274.8 390.2 259.8 393.2 237.8 397.6C233.4 419.6 230.4 434.7 228.8 442.8L197.4 436.6zM229.4 276.6L232.5 260.9L242.6 210.4L293.1 200.3L308.8 197.2L315 228.6C306.8 230.2 291.8 233.2 269.8 237.6C265.4 259.6 262.4 274.7 260.8 282.8L229.4 276.6zM357.4 404.6L360.5 388.9L370.6 338.4L421.1 328.3L436.8 325.2L443 356.6C434.9 358.2 419.8 361.2 397.8 365.6C393.4 387.6 390.4 402.7 388.8 410.8L357.4 404.6z"/><path fill="currentColor" d="M295.6 62.3C304.3 65 312.4 68.3 320.2 72.1C325.1 74.4 329.6 76.9 334 79.6C346.6 74.7 360.8 71.5 376.3 71.6C394.3 90.5 409.4 114 424.1 137.6L478.5 104.9L489.2 98.5L541.5 150.8L535.1 161.5L502.4 215.9C526 230.6 549.6 245.7 568.4 263.7C568.5 279.2 565.3 293.5 560.4 306C567.5 317.6 573.3 330.4 577.7 344.5C570.1 357 561.3 368 551.7 377.6C553.6 391 554.1 405.1 552.9 419.5C541.2 428.1 529.1 435 516.9 440.7C514.1 453.9 510 467.3 504.8 480.5C491.3 485 477.9 488.2 464.6 490.5C458.5 502.5 451.5 514.4 443.6 526C429.6 527.2 415.9 527.5 402.4 527.1C394 537.6 384.9 547.9 375 557.8C361.1 556.3 347.5 554.1 334.3 551.1C324 559.9 313.1 568.3 301.3 576C287.8 571.8 275 566.7 262.7 560.8C250.6 567.1 237.4 572.1 223.3 575.6C211.4 567.3 200.8 557.8 191.9 547.6C178.4 548.7 164.3 548.1 149.9 545.8C142.2 533.4 136.2 520.6 131.9 507.8C119.1 503.5 106.2 497.5 93.9 489.8C91.6 475.4 91 461.2 92.1 447.8C82 438.9 72.5 428.3 64.1 416.4C67.6 402.3 72.6 389.1 78.9 377C73 364.8 68 351.9 63.7 338.4C71.4 326.7 79.8 315.7 88.6 305.4C85.6 292.3 83.4 278.6 81.9 264.7C91.8 254.7 102.1 245.6 112.6 237.3C112.2 223.8 112.5 210.1 113.7 196.1C125.3 188.2 137.2 181.2 149.2 175.1C151.5 161.8 154.7 148.3 159.2 134.9C172.4 129.7 185.8 125.6 199 122.8C204.7 110.6 211.6 98.4 220.2 86.8C234.6 85.7 248.8 86.1 262.1 88C271.7 78.5 282.7 69.7 295.2 62zM299.9 98.1C294.6 102.2 289.6 106.4 285.1 110.9L273.8 122.2L258 119.9C251.7 119 245 118.5 238.1 118.4C234.5 124.3 231.3 130.3 228.4 136.5L221.7 151L206 154.3C199.3 155.7 192.5 157.5 185.7 159.7C183.9 166.7 182.4 173.7 181.2 180.7L178.5 196.5L164.2 203.8C157.8 207 151.5 210.6 145.2 214.4C144.9 221.8 144.9 229.2 145.1 236.5L145.6 252.6L133 262.6C127.3 267.2 121.7 271.9 116.2 276.9C117.3 284.3 118.7 291.5 120.3 298.6L123.8 314.3L113.4 326.5C108.7 332 104.1 337.7 99.7 343.6C102.3 350.4 105.1 357 108.1 363.3L115.1 377.7L107.7 391.9C104.7 397.6 102.1 403.7 99.9 410C104.3 415.1 108.9 419.8 113.6 424L125.6 434.6L124.4 450.6C123.9 456.9 123.9 463.5 124.3 470.2C127.8 471.9 131.2 473.5 134.6 474.9L142.4 477.7L157.6 482.8L162.7 498C164.7 504 167.2 510.1 170.2 516.1C176.9 516.5 183.5 516.5 189.8 516L205.8 514.8L216.4 526.8C220.6 531.5 225.3 536.1 230.3 540.5C236.6 538.2 242.7 535.7 248.4 532.7L262.6 525.3L277 532.3C283.3 535.3 289.9 538.1 296.7 540.7C302.6 536.3 308.3 531.8 313.9 527.1L326.1 516.7L341.8 520.2L350.8 522.1C355 522.9 359.2 523.6 363.4 524.3C368.4 518.8 373.2 513.2 377.8 507.5L387.8 494.9L403.9 495.4C411.2 495.6 418.5 495.6 425.9 495.3C429.7 489 433.3 482.7 436.6 476.3L443.8 462L459.6 459.3C466.6 458.1 473.6 456.6 480.6 454.7C482.8 447.9 484.7 441.1 486.1 434.4L489.4 418.7L503.9 411.9L511.7 408.1C515.2 406.3 518.5 404.3 521.9 402.3C521.8 395.4 521.4 388.8 520.5 382.5L518.2 366.7L529.5 355.4C534 350.9 538.3 345.8 542.4 340.5C540.9 337 539.4 333.6 537.7 330.3L533.7 323.2L525.4 309.7L531.2 294.9C533.3 289.4 534.8 283.6 535.8 277.6C524.4 268.3 511.2 259.4 496.6 250.1C477.9 238.2 455.8 225.1 436.7 211.2L432.6 208.2L429.6 204.1C415.7 185 402.6 162.9 390.7 144.2C381.4 129.6 372.5 116.4 363.2 105C357.2 106 351.4 107.5 345.9 109.7L331.1 115.5L317.6 107.2C315.8 106.1 314.1 105.1 312.3 104.1L306.8 101.3C304.6 100.3 302.4 99.4 300.2 98.4zM283 388.6C274.8 390.2 259.8 393.2 237.8 397.6C233.4 419.6 230.4 434.7 228.8 442.8L197.4 436.6L200.5 420.9L210.6 370.4L261.1 360.3L276.8 357.2L283 388.6zM443 356.6C434.9 358.2 419.8 361.2 397.8 365.6C393.4 387.6 390.4 402.7 388.8 410.8L357.4 404.6L360.5 388.9L370.6 338.4L421.1 328.3L436.8 325.2L443 356.6zM315 228.6C306.8 230.2 291.8 233.2 269.8 237.6C265.4 259.6 262.4 274.7 260.8 282.8L229.4 276.6L232.5 260.9L242.6 210.4L293.1 200.3L308.8 197.2L315 228.6zM441.3 164.7C445.8 171.7 450.4 178.6 455.1 185.1C461.6 189.8 468.5 194.4 475.4 198.9L501.2 155.9L484.2 138.9L441.2 164.7z"/></svg>