<svg xmlns="http://www.w3.org/2000/svg" viewBox="0 0 640 640"><!--! Font Awesome Pro 7.2.0 by @fontawesome - https://fontawesome.com License - https://fontawesome.com/license (Commercial License) Copyright 2026 Fonticons, Inc. --><path opacity=".4" fill="currentColor" d="M96.1 272C96.1 369.2 174.9 448 272.1 448C369.3 448 448.1 369.2 448.1 272C448.1 174.8 369.3 96 272.1 96C174.9 96 96.1 174.8 96.1 272zM192.1 256L224.1 256L224.1 352L192.1 352L192.1 256zM256.1 160L288.1 160L288.1 352L256.1 352L256.1 160zM320.1 224L352.1 224L352.1 352L320.1 352L320.1 224z"/><path fill="currentColor" d="M272.1 96C369.3 96 448.1 174.8 448.1 272C448.1 369.2 369.3 448 272.1 448C174.9 448 96.1 369.2 96.1 272C96.1 174.8 174.9 96 272.1 96zM272.1 480C323.8 480 371.1 461.2 407.4 430L548.8 571.4L560.1 582.7L582.7 560.1L571.4 548.8L430 407.4C461.2 371 480 323.7 480 272.1C480 157.2 386.9 64.1 272 64.1C157.1 64.1 64.1 157.1 64.1 272C64.1 386.9 157.3 480 272.1 480zM192.1 272L192.1 352L224.1 352L224.1 256L192.1 256L192.1 272zM256.1 176L256.1 352L288.1 352L288.1 160L256.1 160L256.1 176zM320.1 240L320.1 352L352.1 352L352.1 224L320.1 224L320.1 240z"/></svg>