<svg xmlns="http://www.w3.org/2000/svg" viewBox="0 0 640 640"><!--! Font Awesome Pro 7.2.0 by @fontawesome - https://fontawesome.com License - https://fontawesome.com/license (Commercial License) Copyright 2026 Fonticons, Inc. --><path opacity=".4" fill="currentColor" d="M266.5 160L448 160C518.7 160 576 217.3 576 288L576 512L320 512L320 272C320 226.8 299.1 186.4 266.5 160zM352 288L352 320L416 320L416 416L544 416L544 288L352 288z"/><path fill="currentColor" d="M266.5 160C299.1 186.4 320 226.8 320 272L320 512L576 512L576 288C576 217.3 518.7 160 448 160L266.5 160zM176 160C114.1 160 64 210.1 64 272L64 512L288 512L288 272C288 210.1 237.9 160 176 160zM176 128L448 128C536.4 128 608 199.6 608 288L608 544L32 544L32 272C32 192.5 96.5 128 176 128zM128 288L240 288L240 320L112 320L112 288L128 288zM352 288L544 288L544 416L416 416L416 320L352 320L352 288zM448 320L448 384L512 384L512 320L448 320z"/></svg>