<svg xmlns="http://www.w3.org/2000/svg" viewBox="0 0 640 640"><!--! Font Awesome Pro 7.2.0 by @fontawesome - https://fontawesome.com License - https://fontawesome.com/license (Commercial License) Copyright 2026 Fonticons, Inc. --><path opacity=".4" fill="currentColor" d="M96 174.2L208 123.4L208 467L96 523.4L96 174.2zM240 119.5L400 172.8L400 282.2C365.7 312.4 344 356.4 344 405.8C344 439 354.4 471.2 367.2 498.9C369.2 503.2 371.2 507.4 373.4 511.6L240 467.2L240 119.5zM432 173L544 116.6L544 243C533.6 241 522.9 240 512 240C483.1 240 455.9 247.2 432 260L432 173z"/><path fill="currentColor" d="M576 90.7L576 64.7L552.8 76.4L416.9 144.8L230.6 82.7L224.6 80.7L218.9 83.3L73.3 149.4L63.9 153.7L63.9 575.4L87.1 563.7L223 495.3L397.9 553.6C389.3 540.5 380.8 526.4 373.3 511.7L239.9 467.2L239.9 119.5L399.9 172.8L399.9 282.2C409.6 273.6 420.4 266.1 431.9 260L431.9 173L543.9 116.6L543.9 243C555 245.1 565.7 248.3 575.9 252.5L575.9 90.7zM208 467L96 523.4L96 174.2L208 123.4L208 467zM424 405.9C424 359 462.9 320 512 320C561.1 320 600 359 600 405.9C600 423.1 594.4 443.3 584.2 465.4C574.1 487.2 560.4 508.9 546.1 528.5C534 545.1 521.9 559.7 512 571.1C502 559.7 489.9 545.1 477.9 528.5C463.7 508.9 449.9 487.2 439.8 465.4C429.6 443.3 424 423.1 424 405.9zM632 405.9C632 340.8 578.3 288 512 288C445.7 288 392 340.8 392 405.9C392 474.5 455.5 555.6 490.1 594.7C497.1 602.6 502.9 608.7 506.7 612.8C510 616.3 511.9 618.1 511.9 618.1C511.9 618.1 513.8 616.2 517.1 612.8C521 608.8 526.8 602.6 533.7 594.7C568.3 555.6 631.8 474.5 631.8 405.9z"/></svg>