<svg xmlns="http://www.w3.org/2000/svg" viewBox="0 0 640 640"><!--! Font Awesome Pro 7.2.0 by @fontawesome - https://fontawesome.com License - https://fontawesome.com/license (Commercial License) Copyright 2026 Fonticons, Inc. --><path opacity=".4" fill="currentColor" d="M96 128L96 480L224 480L224 551.5C237.4 543.5 274.6 521.1 335.5 484.6L343.1 480L544 480L544 128L96 128zM256 270.3C256 244.7 276.7 224 302.3 224L304 224L304 200L336 200L336 224L368 224L368 256L302.3 256C294.4 256 288 262.4 288 270.3C288 277.3 293.1 283.3 300 284.4L345.3 292C367.6 295.7 384 315 384 337.7C384 363.3 363.3 384 337.7 384L336 384L336 408L304 408L304 384L264 384L264 352L337.7 352C345.6 352 352 345.6 352 337.7C352 330.7 346.9 324.7 340 323.6L294.7 316C272.4 312.3 256 293 256 270.3z"/><path fill="currentColor" d="M352 480L343.1 480L335.5 484.6C274.5 521.2 237.4 543.5 224 551.5L224 480L96 480L96 128L544 128L544 480L352 480zM192 551.5L192 608C229.3 585.6 259.4 567.6 352 512L576 512L576 96L64 96L64 512L192 512L192 551.5zM336 200L304 200L304 224L302.3 224C276.7 224 256 244.7 256 270.3C256 292.9 272.4 312.3 294.7 316L340 323.6C346.9 324.7 352 330.7 352 337.7C352 345.6 345.6 352 337.7 352L264 352L264 384L304 384L304 408L336 408L336 384L337.7 384C363.3 384 384 363.3 384 337.7C384 315.1 367.6 295.7 345.3 292L300 284.4C293.1 283.2 288 277.3 288 270.3C288 262.4 294.4 256 302.3 256L368 256L368 224L336 224L336 200z"/></svg>