<svg xmlns="http://www.w3.org/2000/svg" viewBox="0 0 640 640"><!--! Font Awesome Pro 7.2.0 by @fontawesome - https://fontawesome.com License - https://fontawesome.com/license (Commercial License) Copyright 2026 Fonticons, Inc. --><path opacity=".4" fill="currentColor" d="M96 128L96 480L224 480L224 551.5C237.4 543.5 274.6 521.1 335.5 484.6L343.1 480L544 480L544 128L96 128zM192 352L320 240L448 352L448 400L192 400L192 352zM248 208C248 221.3 237.3 232 224 232C210.7 232 200 221.3 200 208C200 194.7 210.7 184 224 184C237.3 184 248 194.7 248 208z"/><path fill="currentColor" d="M352 480L343.1 480L335.5 484.6C274.5 521.2 237.4 543.5 224 551.5L224 480L96 480L96 128L544 128L544 480L352 480zM192 551.5L192 608C229.3 585.6 259.4 567.6 352 512L576 512L576 96L64 96L64 512L192 512L192 551.5zM248 208C248 194.7 237.3 184 224 184C210.7 184 200 194.7 200 208C200 221.3 210.7 232 224 232C237.3 232 248 221.3 248 208zM416 366.5L416 368L224 368L224 366.5L320 282.5L416 366.5zM192 352L192 400L448 400L448 352L320 240L192 352z"/></svg>