<svg xmlns="http://www.w3.org/2000/svg" viewBox="0 0 640 640"><!--! Font Awesome Pro 7.2.0 by @fontawesome - https://fontawesome.com License - https://fontawesome.com/license (Commercial License) Copyright 2026 Fonticons, Inc. --><path opacity=".4" fill="currentColor" d="M96 128L96 480L224 480L224 551.5C237.4 543.5 274.6 521.1 335.5 484.6L343.1 480L544 480L544 128L96 128zM224 288L416 288L416 320L224 320L224 288z"/><path fill="currentColor" d="M352 480L343.1 480L335.5 484.6C274.5 521.2 237.4 543.5 224 551.5L224 480L96 480L96 128L544 128L544 480L352 480zM192 551.5L192 608C229.3 585.6 259.4 567.6 352 512L576 512L576 96L64 96L64 512L192 512L192 551.5zM240 288L224 288L224 320L416 320L416 288L240 288z"/></svg>