<svg xmlns="http://www.w3.org/2000/svg" viewBox="0 0 640 640"><!--! Font Awesome Pro 7.2.0 by @fontawesome - https://fontawesome.com License - https://fontawesome.com/license (Commercial License) Copyright 2026 Fonticons, Inc. --><path opacity=".4" fill="currentColor" d="M96 128L96 480L224 480L224 551.5C237.4 543.5 274.6 521.1 335.5 484.6L343.1 480L544 480L544 128L96 128zM163.2 278.4C163.2 255.4 181.8 236.8 204.8 236.8L240 236.8L240 268.8L204.8 268.8C199.5 268.8 195.2 273.1 195.2 278.4C195.2 283.7 199.5 288 204.8 288C227.8 288 246.4 306.6 246.4 329.6C246.4 352.6 227.8 371.2 204.8 371.2L163.2 371.2L163.2 339.2L204.8 339.2C210.1 339.2 214.4 334.9 214.4 329.6C214.4 324.3 210.1 320 204.8 320C181.8 320 163.2 301.4 163.2 278.4zM268.8 240C290.5 240 283.9 240 292.4 240L296 246.6L319.8 289.8L342.6 246.7L346.2 239.9C357.4 239.9 360.9 239.9 371.2 239.9L371.2 367.9L345.6 367.9L345.6 295.7C335.5 314.7 327.1 330.6 320.2 343.6C313.1 330.7 304.5 315 294.4 296.7L294.4 367.9L268.8 367.9L268.8 239.9zM393.6 278.4C393.6 255.4 412.2 236.8 435.2 236.8L470.4 236.8L470.4 268.8L435.2 268.8C429.9 268.8 425.6 273.1 425.6 278.4C425.6 283.7 429.9 288 435.2 288C458.2 288 476.8 306.6 476.8 329.6C476.8 352.6 458.2 371.2 435.2 371.2L393.6 371.2L393.6 339.2L435.2 339.2C440.5 339.2 444.8 334.9 444.8 329.6C444.8 324.3 440.5 320 435.2 320C412.2 320 393.6 301.4 393.6 278.4z"/><path fill="currentColor" d="M352 480L343.1 480L335.5 484.6C274.5 521.2 237.4 543.5 224 551.5L224 480L96 480L96 128L544 128L544 480L352 480zM192 551.5L192 608C229.3 585.6 259.4 567.6 352 512L576 512L576 96L64 96L64 512L192 512L192 551.5zM204.8 236.8C181.8 236.8 163.2 255.4 163.2 278.4C163.2 301.4 181.8 320 204.8 320C210.1 320 214.4 324.3 214.4 329.6C214.4 334.9 210.1 339.2 204.8 339.2L163.2 339.2L163.2 371.2L204.8 371.2C227.8 371.2 246.4 352.6 246.4 329.6C246.4 306.6 227.8 288 204.8 288C199.5 288 195.2 283.7 195.2 278.4C195.2 273.1 199.5 268.8 204.8 268.8L240 268.8L240 236.8L204.8 236.8zM393.6 278.4C393.6 301.4 412.2 320 435.2 320C440.5 320 444.8 324.3 444.8 329.6C444.8 334.9 440.5 339.2 435.2 339.2L393.6 339.2L393.6 371.2L435.2 371.2C458.2 371.2 476.8 352.6 476.8 329.6C476.8 306.6 458.2 288 435.2 288C429.9 288 425.6 283.7 425.6 278.4C425.6 273.1 429.9 268.8 435.2 268.8L470.4 268.8L470.4 236.8L435.2 236.8C412.2 236.8 393.6 255.4 393.6 278.4zM371.2 252.8L371.2 240C349.8 240 353.9 240 346.2 240L342.6 246.8L319.8 289.9L296 246.7L292.4 240.1C281.2 240.1 279.9 240.1 268.8 240.1L268.8 368.1L294.4 368.1L294.4 296.9C304.5 315.2 313.1 330.9 320.2 343.8C327.1 330.8 335.5 314.9 345.6 295.9L345.6 368.1L371.2 368.1L371.2 252.9z"/></svg>