<svg xmlns="http://www.w3.org/2000/svg" viewBox="0 0 640 640"><!--! Font Awesome Pro 7.2.0 by @fontawesome - https://fontawesome.com License - https://fontawesome.com/license (Commercial License) Copyright 2026 Fonticons, Inc. --><path opacity=".4" fill="currentColor" d="M96 320C96 196.3 196.3 96 320 96C414.1 96 494.6 154 527.8 236.2C522.5 241.5 517.3 246.7 512 252L454.9 194.9L422.5 215.1C397.1 231 360.8 260.1 330.4 298.3C300.2 336.2 271.9 387.9 271.9 447.8C271.9 481.9 280.1 514.1 294.7 542.5C182.9 530 95.9 435.1 95.9 319.9zM208 192L208 288L240 288L240 192L208 192zM304 192L304 288L336 288L336 192L304 192z"/><path fill="currentColor" d="M320 96C414.1 96 494.6 154 527.8 236.2L541.1 222.9L563.9 241.9C530.9 138.7 434.2 64 320 64C178.6 64 64 178.6 64 320C64 460.1 176.5 573.9 316.1 576C308 565.6 300.8 554.4 294.8 542.6C182.9 530.1 96 435.2 96 320C96 196.3 196.3 96 320 96zM336 192L304 192L304 288L336 288L336 192zM240 208L240 192L208 192L208 288L240 288L240 208zM448 256C405.3 282.7 320 358.4 320 448C320 536.4 391.6 608 480 608C568.4 608 640 536.4 640 448C640 421.3 620.8 352 544 288C540 292 529.3 302.7 512 320C500 308 478.7 286.7 448 256zM534.6 342.6L545 332.2C596.9 384.3 608 433.8 608 448C608 481.3 595.3 511.6 574.5 534.3C575.5 529.2 576 523.9 576 518.5C576 448.1 480 384.1 480 384.1C480 384.1 384 448.1 384 518.5C384 523.9 384.5 529.1 385.5 534.3C364.7 511.5 352 481.2 352 448C352 413.3 368.7 378.9 393 348.3C409.4 327.7 428.2 310.3 444.4 297.6C478.1 331.3 500.6 353.8 512 365.2L534.6 342.6zM480 576.2C442.5 576.2 416 548.4 416 518.6C416 496.7 431.9 471.1 455 447.3C463.8 438.3 472.6 430.4 480 424.3C487.4 430.4 496.2 438.2 505 447.3C528.1 471.1 544 496.8 544 518.6C544 548.4 517.5 576.2 480 576.2z"/></svg>