<svg xmlns="http://www.w3.org/2000/svg" viewBox="0 0 640 640"><!--! Font Awesome Pro 7.2.0 by @fontawesome - https://fontawesome.com License - https://fontawesome.com/license (Commercial License) Copyright 2026 Fonticons, Inc. --><path opacity=".4" fill="currentColor" d="M256.1 96L256.1 233.3L360.5 337.7C374.9 326 384.1 308.1 384.1 288L384.1 96L256.1 96z"/><path fill="currentColor" d="M67.6 44.8L56.3 33.5L33.7 56.1L45 67.4L572.8 595.2L584.1 606.5L606.8 583.9L595.4 572.6L451.2 428.3C488.7 393.3 512.2 343.4 512.2 288L512.2 224L480.2 224L480.2 288C480.2 334.5 460.3 376.4 428.6 405.7L383.3 360.4C403.5 342.8 416.2 316.9 416.2 288L416.2 64L224.2 64L224.2 201.3L67.7 44.8zM256.1 233.3L256.1 96L384.1 96L384.1 288C384.1 308 374.9 325.9 360.5 337.7L256.1 233.3zM133.6 224L128.1 224L128.1 288C128.1 388.7 205.5 471.2 304.1 479.3L304.1 544L224.1 544L224.1 576L416.1 576L416.1 544L336.1 544L336.1 479.3C351.3 478 366 475 380 470.4L354 444.4C343.1 446.8 331.7 448 320.1 448C231.7 448 160.1 376.4 160.1 288L160.1 250.5L133.6 224z"/></svg>