<svg xmlns="http://www.w3.org/2000/svg" viewBox="0 0 640 640"><!--! Font Awesome Pro 7.2.0 by @fontawesome - https://fontawesome.com License - https://fontawesome.com/license (Commercial License) Copyright 2026 Fonticons, Inc. --><path opacity=".4" fill="currentColor" d="M192.1 96L192.1 169.3L448.1 425.3L448.1 96L192.1 96z"/><path fill="currentColor" d="M160.1 137.3L160.1 64L480.1 64L480.1 457.3L606.7 583.9L584.1 606.5L33.7 56.1L56.3 33.5L160.1 137.3zM192.1 282.5L192.1 544L448.1 544L448.1 538.5L480.1 570.5L480.1 576L160.1 576L160.1 250.5L192.1 282.5zM368.1 496L272.1 496L272.1 464L368.1 464L368.1 496zM118.2 208.6L62.8 264L104.2 305.4L104.2 334.6L62.8 376L118.8 432L96.2 454.6L17.6 376L72.2 321.4L72.2 318.6L17.6 264L95.7 185.9L118.3 208.5zM622.7 264L568.1 318.6L568.1 321.4L622.7 376L544.1 454.6L521.5 432L577.5 376L536.1 334.6L536.1 305.4L577.5 264L521.5 208L544.1 185.4L622.7 264zM192.1 169.3L448.1 425.3L448.1 96L192.1 96L192.1 169.3z"/></svg>