<svg xmlns="http://www.w3.org/2000/svg" viewBox="0 0 640 640"><!--! Font Awesome Pro 7.2.0 by @fontawesome - https://fontawesome.com License - https://fontawesome.com/license (Commercial License) Copyright 2026 Fonticons, Inc. --><path opacity=".4" fill="currentColor" d="M82.9 256L256.1 82.8L557.4 384L384.1 557.3L82.9 256zM377.5 448L400.1 470.6L470.7 400L448.1 377.4L377.5 448z"/><path fill="currentColor" d="M602.6 384L384.1 602.5L37.6 256L256.1 37.5L602.6 384zM166.8 464L144.2 486.6L112.2 454.6L112.2 480C112.2 524.2 148 560 192.2 560C214.8 560 235.1 550.6 249.7 535.5L272.4 558.2C252.1 579.1 223.7 592 192.2 592C130.3 592 80.2 541.9 80.2 480L80.2 454.6L48.2 486.6L25.6 464L96.2 393.4L166.8 464zM82.9 256L384.1 557.3L557.4 384L256.1 82.8L82.9 256zM470.8 400L400.2 470.6L377.6 448L448.2 377.4L470.8 400zM448.1 48C510 48 560.1 98.1 560.1 160L560.1 185.4L592.1 153.4L614.7 176L544.1 246.6L473.5 176L496.1 153.4L528.1 185.4L528.1 160C528.1 115.8 492.3 80 448.1 80C425.5 80 405.2 89.4 390.6 104.5L368 81.8C388.3 61 416.7 48 448.1 48z"/></svg>