<svg xmlns="http://www.w3.org/2000/svg" viewBox="0 0 640 640"><!--! Font Awesome Pro 7.2.0 by @fontawesome - https://fontawesome.com License - https://fontawesome.com/license (Commercial License) Copyright 2026 Fonticons, Inc. --><path opacity=".4" fill="currentColor" d="M64.1 182.6C99.4 217.9 118.1 236.6 120.1 238.6L142.7 216L86.7 160C94.4 160 214.8 160 448.1 160C448.1 213 491.1 256 544.1 256L544.1 357.5L576.1 389.5L576.1 457.4C540.7 422 522.1 403.4 520.1 401.4L497.5 424C499.5 426 518.1 444.6 553.5 480C371 480 408.6 480 192.1 480C192.1 427 149.1 384 96.1 384L96.1 282.5C80.2 266.6 69.5 255.9 64.1 250.5L64.1 480C64.1 561.5 64.1 462.5 64.1 182.6zM96.1 416C131.4 416 160.1 444.7 160.1 480L96.1 480L96.1 416zM224.3 315C224.1 318.3 224.1 321.6 224.3 324.9C224.4 326.5 224.5 328.2 224.7 329.8C225 333 225.5 336.2 226.2 339.3C227.5 345.5 229.4 351.6 231.8 357.3C236.7 368.8 243.7 379.1 252.4 387.8C269.8 405.2 293.8 415.9 320.3 415.9C373.3 415.9 416.3 372.9 416.3 319.9C416.3 266.9 373.3 223.9 320.3 223.9C293.8 223.9 269.8 234.6 252.4 252C243.7 260.7 236.7 271 231.8 282.5C229.4 288.2 227.5 294.3 226.2 300.5C225.6 303.6 225.1 306.8 224.7 310C224.5 311.6 224.4 313.2 224.3 314.9zM480.1 160L544.1 160L544.1 224C508.8 224 480.1 195.3 480.1 160z"/><path fill="currentColor" d="M25.5 144L36.8 132.7L108.8 60.7L120.1 49.4L142.7 72L86.7 128L224.1 128L224.1 128L576.1 128L576.1 389.5L544.1 357.5L544.1 256C491.1 256 448.1 213 448.1 160L154.6 160L154.6 160L86.7 160L142.7 216L120.1 238.6L108.8 227.3L36.8 155.3L25.5 144zM64.1 480L64.1 250.5C69.5 255.9 80.2 266.6 96.1 282.5L96.1 384C149.1 384 192.1 427 192.1 480L416.1 480L416.1 480L553.5 480C518.1 444.6 499.5 426 497.5 424L520.1 401.4L531.4 412.7L603.4 484.7L614.7 496L603.4 507.3L531.4 579.3L520.1 590.6L497.5 568L553.5 512L485.6 512L485.6 512L64.1 512L64.1 480zM96.1 416L96.1 480L160.1 480C160.1 444.7 131.4 416 96.1 416zM544.1 224L544.1 160L480.1 160C480.1 195.3 508.8 224 544.1 224zM384.1 320C384.1 284.6 355.4 255.9 320 255.9C284.5 255.9 255.8 284.6 255.8 320C255.8 355.4 284.5 384.2 320 384.2C355.4 384.2 384.1 355.4 384.1 320zM223.8 320C223.8 266.9 266.8 223.9 320 223.9C373.1 223.9 416.1 266.9 416.1 320C416.1 373.1 373.1 416.2 320 416.2C266.8 416.2 223.8 373.1 223.8 320z"/></svg>