<svg xmlns="http://www.w3.org/2000/svg" viewBox="0 0 640 640"><!--! Font Awesome Pro 7.2.0 by @fontawesome - https://fontawesome.com License - https://fontawesome.com/license (Commercial License) Copyright 2026 Fonticons, Inc. --><path opacity=".4" fill="currentColor" d="M64.4 472L64.4 512L304.4 512L304.4 480C304.4 462.3 290.1 448 272.4 448C272.1 448 271.9 448 271.6 448L244.8 448.7L239.5 422.4C235.1 400.5 215.6 384 192.5 384C172.5 384 155.4 396.2 148.1 413.6L138.1 437.8L112.4 432.7C109.9 432.2 107.3 431.9 104.5 431.9C82.4 431.9 64.5 449.8 64.5 471.9zM193 304C242.3 304.2 284.9 332.2 306.1 373.2C351.5 387.5 384.4 429.9 384.4 480L384.4 541.7C394.9 543.2 405.5 544 416.4 544C460.2 544 501.1 531.4 535.6 509.7C423 493.8 336.4 397 336.4 280C336.4 205.2 371.8 138.7 426.8 96.2C423.4 96 419.9 96 416.4 96C298.1 96 201.2 187.8 193 304z"/><path fill="currentColor" d="M470.4 69.7C487.7 73.4 504.3 78.9 520.2 85.9C504 89.9 488.7 95.9 474.3 103.6C411.3 137.3 368.5 203.7 368.5 280.1C368.5 390.6 458 480.1 568.5 480.1C570.1 480.1 571.7 480.1 573.3 480C590.1 479.6 606.4 477.1 621.9 472.8C611.5 486.8 599.6 499.7 586.6 511.3C541.4 551.5 481.8 576 416.5 576C405.7 576 395 575.3 384.5 574L384.5 541.7C395 543.2 405.6 544 416.5 544C460.3 544 501.2 531.4 535.7 509.7C423.1 493.8 336.5 397 336.5 280C336.5 205.2 371.9 138.7 426.9 96.2C423.5 96 420 96 416.5 96C298.2 96 201.3 187.8 193.1 304L192.5 304C181.5 304 170.9 305.4 160.8 308C167.1 172.2 279.2 64 416.5 64C435 64 453.1 66 470.4 69.7zM148.1 413.6L138.1 437.8L112.4 432.7C109.9 432.2 107.3 431.9 104.5 431.9C82.4 431.9 64.5 449.8 64.5 471.9L64.5 511.9L304.5 511.9L304.5 479.9C304.5 462.2 290.2 447.9 272.5 447.9C272.2 447.9 272 447.9 271.7 447.9L244.9 448.6L239.6 422.3C235.2 400.4 215.7 383.9 192.6 383.9C172.6 383.9 155.5 396.1 148.2 413.5zM336.4 544L32.4 544L32.4 472C32.4 432.2 64.6 400 104.4 400C109.2 400 113.9 400.5 118.5 401.4C130.5 372.4 159.1 352 192.4 352C231.1 352 263.4 379.5 270.8 416C271.3 416 271.9 416 272.4 416C307.7 416 336.4 444.7 336.4 480L336.4 544z"/></svg>