<svg xmlns="http://www.w3.org/2000/svg" viewBox="0 0 640 640"><!--! Font Awesome Pro 7.2.0 by @fontawesome - https://fontawesome.com License - https://fontawesome.com/license (Commercial License) Copyright 2026 Fonticons, Inc. --><path opacity=".4" fill="currentColor" d="M96 320C96 443.7 196.3 544 320 544C363.8 544 404.7 531.4 439.2 509.7C326.6 493.8 240 397 240 280C240 205.2 275.4 138.7 330.4 96.2C327 96 323.5 96 320 96C196.3 96 96 196.3 96 320z"/><path fill="currentColor" d="M373.9 69.7C391.2 73.4 407.8 78.9 423.7 85.9C407.5 89.9 392.2 95.9 377.8 103.6C314.8 137.3 272 203.7 272 280.1C272 390.6 361.5 480.1 472 480.1C473.6 480.1 475.2 480.1 476.8 480C493.6 479.6 509.9 477.1 525.4 472.8C515 486.8 503.1 499.7 490.1 511.3C444.9 551.5 385.3 576 320 576C178.6 576 64 461.4 64 320C64 178.6 178.6 64 320 64C338.5 64 356.6 66 373.9 69.7zM320 96C196.3 96 96 196.3 96 320C96 443.7 196.3 544 320 544C363.8 544 404.7 531.4 439.2 509.7C326.6 493.8 240 397 240 280C240 205.2 275.4 138.7 330.4 96.2C327 96 323.5 96 320 96zM480 192L480 256L560 256L560 288L480 288L480 368L448 368L448 288L368 288L368 256L448 256L448 176L480 176L480 192z"/></svg>