<svg xmlns="http://www.w3.org/2000/svg" viewBox="0 0 640 640"><!--! Font Awesome Pro 7.2.0 by @fontawesome - https://fontawesome.com License - https://fontawesome.com/license (Commercial License) Copyright 2026 Fonticons, Inc. --><path opacity=".4" fill="currentColor" d="M48 416C48 469 91 512 144 512C191.6 512 231 477.4 238.7 432L112 432L112 400L238.7 400C231.1 354.6 191.6 320 144 320C91 320 48 363 48 416zM266.6 268.2C287.8 285.8 305.2 307.9 317.2 333C333.9 292.4 365.4 259.5 404.9 240.8L384.7 193L266.6 268.2zM400 416C400 469 443 512 496 512C549 512 592 469 592 416C592 363 549 320 496 320C488.4 320 481.1 320.9 474 322.6L510.7 409.8L516.9 424.5L487.4 436.9L481.2 422.1L444.5 334.9C417.8 351.9 400 381.8 400 415.9zM412.1 175.6L419 192L479.9 192L479.9 160L436.6 160L412.1 175.6z"/><path fill="currentColor" d="M382.7 105.8L399.5 145.7L423.4 130.5L427.3 128L512 128L512 224L432.5 224L461.4 292.7C472.4 289.6 484 288 495.9 288C566.6 288 623.9 345.3 623.9 416C623.9 486.7 566.6 544 495.9 544C425.2 544 367.9 486.7 367.9 416C367.9 368.6 393.6 327.3 431.9 305.2L417.2 270.4C369.2 293.7 336 343 336 400L336 432L271 432C263.1 495.1 209.3 544 144 544C73.3 544 16 486.7 16 416C16 345.3 73.3 288 144 288C209.3 288 263.1 336.9 271 400L303.3 400C295.3 319.1 227 256 144.1 256L64.1 256L64.1 224L144.1 224C178.2 224 210.2 232.9 238 248.5L247.5 242.5L372.2 163.1L357.5 128L288.1 128L288.1 96L378.7 96L382.8 105.8zM144 320C91 320 48 363 48 416C48 469 91 512 144 512C191.6 512 231 477.4 238.7 432L112 432L112 400L238.7 400C231.1 354.6 191.6 320 144 320zM496 320C488.4 320 481.1 320.9 474 322.6L510.7 409.8L516.9 424.5L487.4 436.9L481.2 422.1L444.5 334.9C417.8 351.9 400 381.8 400 415.9C400 468.9 443 511.9 496 511.9C549 511.9 592 468.9 592 415.9C592 362.9 549 319.9 496 319.9zM266.6 268.2C287.8 285.8 305.2 307.9 317.2 333C333.9 292.4 365.4 259.5 404.9 240.8L384.7 193L266.6 268.2zM412.2 175.6L419.1 192L480 192L480 160L436.7 160L412.2 175.6z"/></svg>