<svg xmlns="http://www.w3.org/2000/svg" viewBox="0 0 640 640"><!--! Font Awesome Pro 7.2.0 by @fontawesome - https://fontawesome.com License - https://fontawesome.com/license (Commercial License) Copyright 2026 Fonticons, Inc. --><path opacity=".4" fill="currentColor" d="M96 128L96 512L337 512C334.7 480 332.4 448 330.1 416L303.9 416L303.9 365.3C298.9 367.1 293.5 368 287.9 368C261.4 368 239.9 346.5 239.9 320C239.9 299.1 253.3 281.3 271.9 274.7L271.9 192L415.9 192L415.9 240L479.9 240L479.9 128L95.9 128zM160 192L224 192L224 224L192 224L192 416L304 416L304 448L160 448L160 192zM304 224L304 288L371.6 288L395.6 240L384 240L384 224L304 224z"/><path fill="currentColor" d="M96 128L480 128L480 240L512 240L512 96L64 96L64 544L339.3 544L337 512L96 512L96 128zM416 208L416 192L272 192L272 274.7C253.4 281.3 240 299.1 240 320C240 346.5 261.5 368 288 368C293.6 368 299 367 304 365.3L304 224L384 224L384 240L416 240L416 208zM192 416L192 224L224 224L224 192L160 192L160 448L304 448L304 416L192 416zM425.3 288C424.9 288.8 416.9 304.8 401.3 336L352 336L352 368L608 368L608 336L558.7 336C543.1 304.8 535.1 288.8 534.7 288L425.3 288zM445.1 320L514.9 320L522.9 336L437.1 336L445.1 320zM377.2 400.1L392.1 608L568.1 608L583 400.1L550.9 400.1L538.3 576L421.9 576L409.3 400.1L377.2 400.1z"/></svg>