<svg xmlns="http://www.w3.org/2000/svg" viewBox="0 0 640 640"><!--! Font Awesome Pro 7.2.0 by @fontawesome - https://fontawesome.com License - https://fontawesome.com/license (Commercial License) Copyright 2026 Fonticons, Inc. --><path opacity=".4" fill="currentColor" d="M96 128L480 128L480 323.5C457 332.6 435.5 344.7 416 359.3L416 192L272 192L272 274.7C253.4 281.3 240 299.1 240 320C240 346.5 261.5 368 288 368C314.5 368 336 346.5 336 320C336 299.1 322.6 281.3 304 274.7L304 224L384 224L384 387.3C375.1 396.3 366.9 405.9 359.3 416L192 416L192 224L224 224L224 192L160 192L160 448L338.6 448C327.6 468 318.9 489.4 313 512L96 512L96 128z"/><path fill="currentColor" d="M480 128L96 128L96 512L313 512C310.3 522.4 308.1 533.1 306.6 544L63.9 544L63.9 96L511.9 96L511.9 313C501 315.9 490.3 319.4 479.9 323.5L480 128zM416 208L416 359.3C404.6 367.8 393.9 377.1 384 387.2L384 223.9L304 223.9L304 274.6C322.6 281.2 336 299 336 319.9C336 346.4 314.5 367.9 288 367.9C261.5 367.9 240 346.4 240 319.9C240 299 253.4 281.2 272 274.6L272 191.9L416 191.9L416 207.9zM338.6 448L160 448L160 192L224 192L224 224L192 224L192 416L359.3 416C351.7 426.2 344.8 436.8 338.6 448zM288 304C279.2 304 272 311.2 272 320C272 328.8 279.2 336 288 336C296.8 336 304 328.8 304 320C304 311.2 296.8 304 288 304zM592 352L608 352L608 384L592 384C477.1 384 384 477.1 384 592L384 608L352 608L352 592C352 459.5 459.5 352 592 352zM576 544C593.7 544 608 558.3 608 576C608 593.7 593.7 608 576 608C558.3 608 544 593.7 544 576C544 558.3 558.3 544 576 544zM608 448L608 480L592 480C530.1 480 480 530.1 480 592L480 608L448 608L448 592C448 512.5 512.5 448 592 448L608 448z"/></svg>