<svg xmlns="http://www.w3.org/2000/svg" viewBox="0 0 640 640"><!--! Font Awesome Pro 7.2.0 by @fontawesome - https://fontawesome.com License - https://fontawesome.com/license (Commercial License) Copyright 2026 Fonticons, Inc. --><path opacity=".4" fill="currentColor" d=""/><path fill="currentColor" d="M209.8 104.1L201.1 96L190.9 101.9C115.2 145.8 64.1 225.9 64.1 320C64.1 410.9 111.9 490.3 183.6 535.2L197.2 543.7L214.2 516.6L200.6 508.1C137.8 468.8 96.1 399.4 96.1 320.1C96.1 242.4 136.1 175.4 197 135.9L373.2 299.8L384.9 310.7L406.7 287.3L395 276.4L209.9 104.2zM431.4 536.2L440.1 544.2L450.3 538.3C526 494.5 577.1 414 577.1 320C577.1 228.6 528.8 149.5 456.5 104.8L442.9 96.4L426 123.6L439.6 132C503 171.2 545.1 240.3 545.1 320C545.1 397.8 505.1 465 444.2 504.5L266.9 340.3L255.2 329.4L233.5 352.9L245.2 363.8L431.4 536.3z"/></svg>