<svg xmlns="http://www.w3.org/2000/svg" viewBox="0 0 640 640"><!--! Font Awesome Pro 7.2.0 by @fontawesome - https://fontawesome.com License - https://fontawesome.com/license (Commercial License) Copyright 2026 Fonticons, Inc. --><path opacity=".4" fill="currentColor" d="M288 96L288 544L512 544L512 96L288 96z"/><path fill="currentColor" d="M288 544L512 544L512 96L288 96L288 544zM256 544L256 96L160 96L160 176L208 176L208 208L160 208L160 304L208 304L208 336L160 336L160 432L208 432L208 464L160 464L160 544L256 544zM256 576L128 576L128 464L64 464L64 432L128 432L128 336L64 336L64 304L128 304L128 208L64 208L64 176L128 176L128 64L544 64L544 576L256 576z"/></svg>