<svg xmlns="http://www.w3.org/2000/svg" viewBox="0 0 640 640"><!--! Font Awesome Pro 7.2.0 by @fontawesome - https://fontawesome.com License - https://fontawesome.com/license (Commercial License) Copyright 2026 Fonticons, Inc. --><path opacity=".4" fill="currentColor" d="M96 96L96 384L176 384L176 176L384 176L384 96L96 96zM256 464L256 544L544 544L544 256L464 256L464 464L256 464z"/><path fill="currentColor" d="M96 96L384 96L384 176L416 176L416 64L64 64L64 416L176 416L176 384L96 384L96 96zM256 224L224 224L224 288L256 288L256 256L320 256L320 224L256 224zM224 336L224 416L272 416L272 384L256 384L256 336L224 336zM384 416L416 416L416 352L384 352L384 384L320 384L320 416L384 416zM384 304L416 304L416 224L368 224L368 256L384 256L384 304zM224 464L224 576L576 576L576 224L464 224L464 256L544 256L544 544L256 544L256 464L224 464z"/></svg>