<svg xmlns="http://www.w3.org/2000/svg" viewBox="0 0 640 640"><!--! Font Awesome Pro 7.2.0 by @fontawesome - https://fontawesome.com License - https://fontawesome.com/license (Commercial License) Copyright 2026 Fonticons, Inc. --><path opacity=".4" fill="currentColor" d="M272 368C272 394.5 293.5 416 320 416C346.5 416 368 394.5 368 368C368 341.5 346.5 320 320 320C293.5 320 272 341.5 272 368z"/><path fill="currentColor" d="M592 423.2C607.7 446.7 623.8 470.4 633.9 497C637.1 505.4 640 515.1 640 524.1C640 552.1 621.2 576.1 592 576.1C563.8 576.1 544 551 544 524.1C544 515.1 546.9 505.4 550.1 497C560.2 470.4 576.4 446.7 592 423.2zM220.1 288C212.4 297.6 206 308.4 201.3 320L128 320L128 512L418.1 512L592.6 324L447.3 355.1C446.2 344.2 443.8 333.8 440.1 323.9L607.9 288L639.9 320L431.9 544L95.9 544L95.9 480L-.1 432L-.1 288L220 288zM592 483.1C585.5 494.8 576 510.1 576 524C576 536.9 584.9 544 592 544C603.6 544 608 534.5 608 524C608 510.1 598.5 494.8 592 483.1zM416 96L336 96L336 160L416 160L416 192L336 192L336 289.6C372.5 297 400 329.3 400 368C400 412.2 364.2 448 320 448C275.8 448 240 412.2 240 368C240 329.3 267.5 297 304 289.6L304 64L416 64L416 96zM32 412.2L96 444.2L96 320L32 320L32 412.2zM320 320C293.5 320 272 341.5 272 368C272 394.5 293.5 416 320 416C346.5 416 368 394.5 368 368C368 341.5 346.5 320 320 320z"/></svg>