<svg xmlns="http://www.w3.org/2000/svg" viewBox="0 0 640 640"><!--! Font Awesome Pro 7.2.0 by @fontawesome - https://fontawesome.com License - https://fontawesome.com/license (Commercial License) Copyright 2026 Fonticons, Inc. --><path opacity=".4" fill="currentColor" d="M128 96L128 256L512 256L512 96L128 96zM128 288L128 544L512 544L512 288L128 288zM224 176C224 189.3 213.3 200 200 200C186.7 200 176 189.3 176 176C176 162.7 186.7 152 200 152C213.3 152 224 162.7 224 176zM192 352L448 352L448 384L192 384L192 352zM304 176C304 189.3 293.3 200 280 200C266.7 200 256 189.3 256 176C256 162.7 266.7 152 280 152C293.3 152 304 162.7 304 176zM384 176C384 189.3 373.3 200 360 200C346.7 200 336 189.3 336 176C336 162.7 346.7 152 360 152C373.3 152 384 162.7 384 176zM464 176C464 189.3 453.3 200 440 200C426.7 200 416 189.3 416 176C416 162.7 426.7 152 440 152C453.3 152 464 162.7 464 176z"/><path fill="currentColor" d="M512 96L512 256L128 256L128 96L512 96zM512 288L512 544L128 544L128 288L512 288zM128 64L96 64L96 576L544 576L544 64L128 64zM224 176C224 162.7 213.3 152 200 152C186.7 152 176 162.7 176 176C176 189.3 186.7 200 200 200C213.3 200 224 189.3 224 176zM280 200C293.3 200 304 189.3 304 176C304 162.7 293.3 152 280 152C266.7 152 256 162.7 256 176C256 189.3 266.7 200 280 200zM384 176C384 162.7 373.3 152 360 152C346.7 152 336 162.7 336 176C336 189.3 346.7 200 360 200C373.3 200 384 189.3 384 176zM440 200C453.3 200 464 189.3 464 176C464 162.7 453.3 152 440 152C426.7 152 416 162.7 416 176C416 189.3 426.7 200 440 200zM208 352L192 352L192 384L448 384L448 352L208 352z"/></svg>