<svg xmlns="http://www.w3.org/2000/svg" viewBox="0 0 640 640"><!--! Font Awesome Pro 7.2.0 by @fontawesome - https://fontawesome.com License - https://fontawesome.com/license (Commercial License) Copyright 2026 Fonticons, Inc. --><path opacity=".4" fill="currentColor" d="M96 160L96 480L544 480L544 160L96 160zM144 208L496 208L496 352L144 352L144 208zM144 400L240 400L240 432L144 432L144 400zM288 400L384 400L384 432L288 432L288 400z"/><path fill="currentColor" d="M544 160L544 480L96 480L96 160L544 160zM96 128L64 128L64 512L576 512L576 128L96 128zM144 400L144 432L240 432L240 400L144 400zM288 400L288 432L384 432L384 400L288 400zM176 240L464 240L464 320L176 320L176 240zM144 208L144 352L496 352L496 208L144 208z"/></svg>