<svg xmlns="http://www.w3.org/2000/svg" viewBox="0 0 640 640"><!--! Font Awesome Pro 7.2.0 by @fontawesome - https://fontawesome.com License - https://fontawesome.com/license (Commercial License) Copyright 2026 Fonticons, Inc. --><path opacity=".4" fill="currentColor" d="M272.5 280.1L272.5 329.3C304.6 342.3 330.2 367.9 343.2 400L392.4 400L571.6 153.6L518.9 100.9L272.5 280.1z"/><path fill="currentColor" d="M531.8 68.7L522.1 59L511 67L247 259L240.4 263.8L240.4 320.9C235.2 320.2 229.8 319.9 224.4 319.9C153.7 319.9 96.4 377.2 96.4 447.9L96.4 543.9L32.4 543.9L32.4 575.9L224.4 575.9C295.1 575.9 352.4 518.6 352.4 447.9C352.4 442.5 352.1 437.1 351.4 431.9L408.5 431.9L413.3 425.3L605.3 161.3L613.3 150.2L603.6 140.5L531.6 68.5zM343.2 400C330.2 367.9 304.6 342.3 272.5 329.3L272.5 280.1L518.9 100.9L571.6 153.6L392.4 400L343.2 400zM224.5 544L128.5 544L128.5 448C128.5 395 171.5 352 224.5 352C277.5 352 320.5 395 320.5 448C320.5 501 277.5 544 224.5 544z"/></svg>