<svg xmlns="http://www.w3.org/2000/svg" viewBox="0 0 640 640"><!--! Font Awesome Pro 7.2.0 by @fontawesome - https://fontawesome.com License - https://fontawesome.com/license (Commercial License) Copyright 2026 Fonticons, Inc. --><path opacity=".4" fill="currentColor" d="M131.5 399.3C78 324.3 85 219.5 152.2 152.2C219.4 84.9 324.2 78 399.2 131.4L131.5 399.3z"/><path fill="currentColor" d="M131.5 399.3L399.3 131.5C324.3 78 219.5 85 152.2 152.2C84.9 219.4 78 324.2 131.4 399.2zM129.6 129.6C209.4 49.8 334.4 42.8 422.2 108.6C430.6 114.9 438.8 121.9 446.4 129.6L423.8 152.2L152.2 423.8L129.6 446.4C121.9 438.7 114.9 430.6 108.6 422.2C42.8 334.5 49.8 209.4 129.6 129.6zM544 104C557.3 104 568 114.7 568 128C568 141.3 557.3 152 544 152C530.7 152 520 141.3 520 128C520 114.7 530.7 104 544 104zM416 520C429.3 520 440 530.7 440 544C440 557.3 429.3 568 416 568C402.7 568 392 557.3 392 544C392 530.7 402.7 520 416 520zM152 544C152 557.3 141.3 568 128 568C114.7 568 104 557.3 104 544C104 530.7 114.7 520 128 520C141.3 520 152 530.7 152 544zM440 225.4C448.1 233.5 454.6 240 459.6 245C477.6 263 501.2 274.3 526.4 277.1C546.6 279.3 561 280.9 569.7 281.9L566.2 313.7C557.5 312.7 543.1 311.1 522.9 308.9C490.4 305.3 460.1 290.7 437 267.6C432 262.6 425.5 256.1 417.4 248L440 225.4zM259.3 428.7L267.6 437C290.7 460.1 305.3 490.4 308.9 522.9C311.1 543.1 312.7 557.5 313.7 566.2L281.9 569.7C280.9 561 279.3 546.6 277.1 526.4C274.3 501.1 263 477.6 245 459.6C240 454.6 233.5 448.1 225.4 440L248 417.4L259.3 428.7zM550.1 574.6C542.9 566.1 536.6 558.7 531.3 552.4C520.1 539.1 514.1 522.1 514.6 504.7C515.2 483.7 499 466.1 478.1 464.9L448.1 463.1C409.9 460.9 380.4 428.7 381.5 390.5C381.8 381 378.5 371.7 372.3 364.4C367 358.1 360.7 350.7 353.5 342.2L377.9 321.5C385.1 330 391.4 337.4 396.7 343.7C404.4 352.8 409.7 363.7 412 375.3L413.8 375.3L413.4 391.3C412.8 412.3 429 429.9 449.9 431.1L479.9 432.9C518.1 435.1 547.6 467.3 546.5 505.5C546.2 515 549.5 524.3 555.7 531.6C561 537.9 567.3 545.3 574.5 553.8L550.1 574.5z"/></svg>