<svg xmlns="http://www.w3.org/2000/svg" viewBox="0 0 640 640"><!--! Font Awesome Pro 7.2.0 by @fontawesome - https://fontawesome.com License - https://fontawesome.com/license (Commercial License) Copyright 2026 Fonticons, Inc. --><path opacity=".4" fill="currentColor" d="M250.5 227.6L348.5 194.9L445.2 291.6L412.5 389.6L250.5 227.6z"/><path fill="currentColor" d="M67.6 44.8L56.3 33.5L33.7 56.1L45 67.4L572.8 595.2L584.1 606.5L606.8 583.9L595.4 572.6L437.8 415L480.1 288C550.8 217.3 588.1 180 592.1 176C587 170.9 551.9 135.8 486.7 70.6L464.1 48C460.1 52 422.8 89.3 352.1 160L225.2 202.3L67.6 44.8zM250.5 227.6L348.5 194.9L445.2 291.6L412.5 389.6L250.5 227.6zM64.1 536L104.1 576L395.8 486.2L370.2 460.6L127.3 535.3L239.5 423.1C249 428.7 260.1 432 272 432C291.1 432 308.2 423.7 319.9 410.4L297.2 387.7C291.3 395.2 282.2 400 272 400C254.3 400 240 385.7 240 368C240 357.8 244.8 348.6 252.3 342.8L229.6 320.1C216.4 331.8 208 348.9 208 368C208 379.9 211.2 391 216.9 400.5L104.8 512.7L179.5 269.9L153.9 244.3L64.1 536zM460.8 262.1L378.1 179.4L464.2 93.3L546.9 176L460.8 262.1z"/></svg>