<svg xmlns="http://www.w3.org/2000/svg" viewBox="0 0 640 640"><!--! Font Awesome Pro 7.2.0 by @fontawesome - https://fontawesome.com License - https://fontawesome.com/license (Commercial License) Copyright 2026 Fonticons, Inc. --><path opacity=".4" fill="currentColor" d="M94.2 545.8L231.3 507.4L446.1 292.6L347.4 193.9L132.6 408.7L94.2 545.8z"/><path fill="currentColor" d="M48 592C48.8 589.3 67.4 522.6 104 392L425.4 70.6L448 48C450.4 50.4 490.9 90.9 569.4 169.4L592 192L569.4 214.6L248 536C117.4 572.6 50.7 591.2 48 592zM231.3 507.4L446.1 292.6L347.4 193.9L132.6 408.7L94.2 545.8L231.3 507.4zM468.7 270.1L546.8 192L448.1 93.3L370 171.4L468.7 270.1z"/></svg>