<svg xmlns="http://www.w3.org/2000/svg" viewBox="0 0 640 640"><!--! Font Awesome Pro 7.2.0 by @fontawesome - https://fontawesome.com License - https://fontawesome.com/license (Commercial License) Copyright 2026 Fonticons, Inc. --><path opacity=".4" fill="currentColor" d="M224.5 512C224.5 459 267.5 416 320.5 416C373.5 416 416.5 459 416.5 512L416.5 544L224.5 544L224.5 512zM352.5 288C352.5 305.7 338.2 320 320.5 320C302.8 320 288.5 305.7 288.5 288C288.5 270.3 302.8 256 320.5 256C338.2 256 352.5 270.3 352.5 288z"/><path fill="currentColor" d="M327.6 81.7L320.4 78.1L313.2 81.7L57.2 209.7L42.9 216.9L57.2 245.5L71.5 238.3L320.3 113.9L569.1 238.3L583.4 245.5L597.7 216.9L583.4 209.7L327.4 81.7zM288.5 288C288.5 270.3 302.8 256 320.5 256C338.2 256 352.5 270.3 352.5 288C352.5 305.7 338.2 320 320.5 320C302.8 320 288.5 305.7 288.5 288zM384.5 288C384.5 252.7 355.8 224 320.5 224C285.2 224 256.5 252.7 256.5 288C256.5 323.3 285.2 352 320.5 352C355.8 352 384.5 323.3 384.5 288zM320.5 384C249.8 384 192.5 441.3 192.5 512L192.5 544L224.5 544L224.5 512C224.5 459 267.5 416 320.5 416C373.5 416 416.5 459 416.5 512L416.5 544L448.5 544L448.5 512C448.5 441.3 391.2 384 320.5 384zM160.5 288C173.8 288 184.5 298.7 184.5 312C184.5 325.3 173.8 336 160.5 336C147.2 336 136.5 325.3 136.5 312C136.5 298.7 147.2 288 160.5 288zM160.5 368C191.4 368 216.5 342.9 216.5 312C216.5 281.1 191.4 256 160.5 256C129.6 256 104.5 281.1 104.5 312C104.5 342.9 129.6 368 160.5 368zM480.5 288C493.8 288 504.5 298.7 504.5 312C504.5 325.3 493.8 336 480.5 336C467.2 336 456.5 325.3 456.5 312C456.5 298.7 467.2 288 480.5 288zM480.5 368C511.4 368 536.5 342.9 536.5 312C536.5 281.1 511.4 256 480.5 256C449.6 256 424.5 281.1 424.5 312C424.5 342.9 449.6 368 480.5 368zM160.5 416C107.5 416 64.5 459 64.5 512L64.5 544L96.5 544L96.5 512C96.5 478 123 450.2 156.4 448.1C160.7 437.1 166.1 426.5 172.4 416.7C168.5 416.2 164.5 416 160.4 416zM484.6 448.1C518.1 450.2 544.5 478 544.5 512L544.5 544L576.5 544L576.5 512C576.5 459 533.5 416 480.5 416C476.4 416 472.4 416.3 468.5 416.7C474.8 426.5 480.2 437 484.5 448.1z"/></svg>