<svg xmlns="http://www.w3.org/2000/svg" viewBox="0 0 640 640"><!--! Font Awesome Pro 7.2.0 by @fontawesome - https://fontawesome.com License - https://fontawesome.com/license (Commercial License) Copyright 2026 Fonticons, Inc. --><path opacity=".4" fill="currentColor" d="M272 224L272 384L368 384L368 224L272 224zM296 96C296 109.3 306.7 120 320 120C333.3 120 344 109.3 344 96C344 82.7 333.3 72 320 72C306.7 72 296 82.7 296 96z"/><path fill="currentColor" d="M296 96C296 82.7 306.7 72 320 72C333.3 72 344 82.7 344 96C344 109.3 333.3 120 320 120C306.7 120 296 109.3 296 96zM376 96C376 65.1 350.9 40 320 40C289.1 40 264 65.1 264 96C264 126.9 289.1 152 320 152C350.9 152 376 126.9 376 96zM136.5 114.4L122.9 105.9L105.9 133L119.5 141.5L240 216.8L240 389.2L176.9 570.6L171.6 585.7L201.8 596.2L207.1 581.1L264.6 415.8L375.4 415.8L432.9 581.1L438.2 596.2L468.4 585.7L463.1 570.6L400 389.2L400 216.8L520.5 141.5L534.1 133L517.1 105.9L503.5 114.4L379.4 192L260.6 192L136.5 114.4zM368 384L272 384L272 224L368 224L368 384z"/></svg>