<svg xmlns="http://www.w3.org/2000/svg" viewBox="0 0 640 640"><!--! Font Awesome Pro 7.2.0 by @fontawesome - https://fontawesome.com License - https://fontawesome.com/license (Commercial License) Copyright 2026 Fonticons, Inc. --><path opacity=".4" fill="currentColor" d="M124.2 293.5L293.9 382L252.5 240L153.9 240L124.2 293.5zM256.5 128C256.5 145.7 270.8 160 288.5 160C306.2 160 320.5 145.7 320.5 128C320.5 110.3 306.2 96 288.5 96C270.8 96 256.5 110.3 256.5 128zM393.5 544L567.4 544L480.5 399.1L393.6 544z"/><path fill="currentColor" d="M256.5 128C256.5 110.3 270.8 96 288.5 96C306.2 96 320.5 110.3 320.5 128C320.5 145.7 306.2 160 288.5 160C270.8 160 256.5 145.7 256.5 128zM352.5 128C352.5 92.7 323.8 64 288.5 64C253.2 64 224.5 92.7 224.5 128C224.5 163.3 253.2 192 288.5 192C323.8 192 352.5 163.3 352.5 128zM55.9 257.8L41.7 250.4L26.9 278.8L41.1 286.2L398.9 472.9C361.8 534.6 341.2 569 337 576L623.9 576L609.4 551.8L494.2 359.8L480.5 336.9C477.6 341.7 455.9 377.9 415.4 445.4L333.2 402.5L279.8 219.5L276.4 208L135 208L130.4 216.2L95.7 278.6L55.8 257.8zM252.5 240L293.9 382L124.2 293.5L153.9 240L252.5 240zM86.4 378L81.1 395.3L26.1 576L59.5 576L106.4 422L224.4 474.4L224.4 576L256.4 576L256.4 453.6L246.9 449.4L102.9 385.4L86.4 378zM480.4 399.1L567.3 544L393.4 544L480.3 399.1z"/></svg>