<svg xmlns="http://www.w3.org/2000/svg" viewBox="0 0 640 640"><!--! Font Awesome Pro 7.2.0 by @fontawesome - https://fontawesome.com License - https://fontawesome.com/license (Commercial License) Copyright 2026 Fonticons, Inc. --><path opacity=".4" fill="currentColor" d="M152 88C152 101.3 141.3 112 128 112C114.7 112 104 101.3 104 88C104 74.7 114.7 64 128 64C141.3 64 152 74.7 152 88zM256 349.1L544 291.5L544 416L256 416L256 349.1zM448 64L544 64L544 245.9L448 137.9L448 64z"/><path fill="currentColor" d="M576 608L544 608L544 448L256 448L256 608L224 608L224 340.8L135.4 208L104 208L104 362L156 421.5L160 426L160 608L128 608L128 438L76 378.6L72 374.1L72 176.1L152.6 176.1L247.4 318.3L517.5 264.3L420.1 154.7L416.1 150.2L416.1 32.1L576.1 32.1L576.1 608.1zM256 349.1L256 416L544 416L544 291.5L256 349.1zM448 137.9L544 245.9L544 64L448 64L448 137.9zM128 144C97.1 144 72 118.9 72 88C72 57.1 97.1 32 128 32C158.9 32 184 57.1 184 88C184 118.9 158.9 144 128 144zM128 64C114.7 64 104 74.7 104 88C104 101.3 114.7 112 128 112C141.3 112 152 101.3 152 88C152 74.7 141.3 64 128 64z"/></svg>