<svg xmlns="http://www.w3.org/2000/svg" viewBox="0 0 640 640"><!--! Font Awesome Pro 7.2.0 by @fontawesome - https://fontawesome.com License - https://fontawesome.com/license (Commercial License) Copyright 2026 Fonticons, Inc. --><path opacity=".4" fill="currentColor" d="M256.1 123.1L256.1 128C298.8 128 341.4 128 384.1 128L384.1 101.8L256.1 123.1zM256.1 352.3L256.1 544L365.7 544L256.1 352.3zM272.1 176C272.1 202.5 293.6 224 320.1 224C346.6 224 368.1 202.5 368.1 176C368.1 170.4 367.1 165 365.4 160L274.9 160C273.1 165 272.2 170.4 272.2 176zM274.5 320L384.1 511.8L384.1 320L274.5 320zM368.1 368C368.1 376.8 360.9 384 352.1 384C343.3 384 336.1 376.8 336.1 368C336.1 359.2 343.3 352 352.1 352C360.9 352 368.1 359.2 368.1 368zM413.3 288L418 288C419.9 291.9 424.9 301.8 433 317.9L467.3 258.5L439.6 242.5L413.4 287.9z"/><path fill="currentColor" d="M256.1 128L256.1 128L384.1 128L384.1 101.8L256.1 123.1L256.1 128zM416.1 160L398.5 160C399.5 165.2 400.1 170.5 400.1 176C400.1 220.2 364.3 256 320.1 256C275.9 256 240.1 220.2 240.1 176C240.1 170.5 240.7 165.2 241.7 160L224.1 160L224.1 96L384.1 69.3L416.1 64L416.1 160zM274.9 160C273.1 165 272.2 170.4 272.2 176C272.2 202.5 293.7 224 320.2 224C346.7 224 368.2 202.5 368.2 176C368.2 170.4 367.2 165 365.5 160L275 160zM222.3 288L376.4 288C403.3 241.4 420.4 211.7 427.9 198.9L455.6 214.9C479.6 173.3 495.6 145.6 503.6 131.8L489.7 123.8L505.7 96.1C526.5 108.1 540.3 116.1 547.3 120.1C539.3 134 523.3 161.7 499.3 203.2L483.3 230.9L511 246.9C505.1 257 484.9 292.2 450.2 352.3L534.5 520.9L541.7 535.2L513.1 549.5L416.3 355.8L416.3 576L224.3 576L224.3 355.8L134.6 535.2L127.4 549.5L98.8 535.2L106 520.9L218 296.9L222.4 288.1zM433 317.9L467.3 258.5L439.6 242.5L413.4 287.9L418.1 287.9C420 291.8 425 301.7 433.1 317.8zM384.1 511.8L384.1 320L274.5 320L384.1 511.8zM256.1 352.3L256.1 544L365.7 544L256.1 352.3zM352.1 352C360.9 352 368.1 359.2 368.1 368C368.1 376.8 360.9 384 352.1 384C343.3 384 336.1 376.8 336.1 368C336.1 359.2 343.3 352 352.1 352z"/></svg>