<svg xmlns="http://www.w3.org/2000/svg" viewBox="0 0 640 640"><!--! Font Awesome Pro 7.2.0 by @fontawesome - https://fontawesome.com License - https://fontawesome.com/license (Commercial License) Copyright 2026 Fonticons, Inc. --><path opacity=".4" fill="currentColor" d="M355 342.4L395.9 208L408.5 208C426.6 208 443.2 218.2 451.4 234.4L402.5 381.9L371 372.3C358.3 368.4 351.2 355 355 342.4zM472 88C472 101.3 461.3 112 448 112C434.7 112 424 101.3 424 88C424 74.7 434.7 64 448 64C461.3 64 472 74.7 472 88z"/><path fill="currentColor" d="M448 64C461.3 64 472 74.7 472 88C472 101.3 461.3 112 448 112C434.7 112 424 101.3 424 88C424 74.7 434.7 64 448 64zM448 144C478.9 144 504 118.9 504 88C504 57.1 478.9 32 448 32C417.1 32 392 57.1 392 88C392 118.9 417.1 144 448 144zM288 176L277.4 176L273.2 185.7L225.2 297.7L218.9 312.4L248.3 325L254.6 310.3L298.4 208L362.3 208L324.2 333.1C315.2 362.7 331.9 394 361.5 403L489.9 442.1L433.2 569.6L426.7 584.2L455.9 597.2L462.4 582.6L526.4 438.6L533.8 422.1L516.5 416.8L432.9 391.4L471.4 275.1C485.7 303.8 493.2 318.8 493.9 320.1L607.8 320.1L607.8 288.1L513.7 288.1L479.8 220.3C466.3 193.2 438.5 176.1 408.2 176.1L288 176zM355 342.4L395.9 208L408.5 208C426.6 208 443.2 218.2 451.4 234.4L402.5 381.9L371 372.3C358.3 368.4 351.2 355 355 342.4zM298.3 470.9L197.2 563.4L185.4 574.2L207 597.8L218.8 587L322.8 491.8L325.7 489.1L327 485.4L340.9 446.6C330.5 442.6 321 437.1 312.7 430.5L298.3 470.9zM48 159.8L32 159.8L32 191.8L192 191.8L192 159.8L48 159.8zM64 255.8L64 287.8L160 287.8L160 255.8L64 255.8zM48 351.8L32 351.8L32 383.8L192 383.8L192 351.8L48 351.8z"/></svg>