<svg xmlns="http://www.w3.org/2000/svg" viewBox="0 0 640 640"><!--! Font Awesome Pro 7.2.0 by @fontawesome - https://fontawesome.com License - https://fontawesome.com/license (Commercial License) Copyright 2026 Fonticons, Inc. --><path opacity=".4" fill="currentColor" d="M144.6 208C144.7 272 144.7 336 144.5 400C176.6 400 208.6 400 240.6 400.1C240.5 336 240.5 272 240.7 208C208.6 208 176.6 208 144.6 208zM150.6 125.1C153.5 145.2 170.8 160.7 191.7 160.7C211.9 160.7 228.8 146.3 232.5 127.1C222.3 137.5 208.1 143.9 192.5 143.9C175.8 143.9 160.8 136.6 150.6 125zM168.8 84.5C168.6 85.6 168.5 86.8 168.5 88C168.5 101.3 179.2 112 192.5 112C205.8 112 216.5 101.3 216.5 88C216.5 87.2 216.5 86.5 216.4 85.7C209.5 80.6 201 77.6 191.7 77.6C183.2 77.6 175.3 80.2 168.7 84.5zM320.5 208L320.5 264.5L336.5 264.5L336.5 272L352.5 272L352.5 352L608.5 352L608.5 96L352.5 96L352.5 176L416.5 176L416.5 208L336.5 208C331.2 208 325.8 208 320.5 208z"/><path fill="currentColor" d="M168.5 88C168.5 74.7 179.2 64 192.5 64C205.8 64 216.5 74.7 216.5 88C216.5 101.3 205.8 112 192.5 112C179.2 112 168.5 101.3 168.5 88zM248.5 88C248.5 57.1 223.4 32 192.5 32C161.6 32 136.5 57.1 136.5 88C136.5 118.9 161.6 144 192.5 144C223.4 144 248.5 118.9 248.5 88zM112.5 242.9L112.5 608L144.5 608L144.5 432L240.5 432L240.5 608L272.5 608L272.5 256L272.5 256L272.5 208L416.5 208L416.5 176L352.5 176L352.5 96L608.5 96L608.5 352L352.5 352L352.5 272L320.5 272L320.5 384L640.5 384L640.5 64L320.5 64L320.5 176L116.6 176L111.9 183.5L27 319.5L18.5 333.1L45.6 350L54.1 336.4L112.5 242.8zM144.5 208L240.5 208L240.5 400L144.5 400L144.5 208z"/></svg>