<svg xmlns="http://www.w3.org/2000/svg" viewBox="0 0 640 640"><!--! Font Awesome Pro 7.2.0 by @fontawesome - https://fontawesome.com License - https://fontawesome.com/license (Commercial License) Copyright 2026 Fonticons, Inc. --><path opacity=".4" fill="currentColor" d="M236.3 385.7C263.6 396.6 290.9 407.5 318.2 418.4L364.8 272L270.4 272L236.3 385.7zM296.1 152C296.1 165.3 306.8 176 320.1 176C333.4 176 344.1 165.3 344.1 152C344.1 138.7 333.4 128 320.1 128C306.8 128 296.1 138.7 296.1 152z"/><path fill="currentColor" d="M296.1 152C296.1 138.7 306.8 128 320.1 128C333.4 128 344.1 138.7 344.1 152C344.1 165.3 333.4 176 320.1 176C306.8 176 296.1 165.3 296.1 152zM376.1 152C376.1 121.1 351 96 320.1 96C289.2 96 264.1 121.1 264.1 152C264.1 182.9 289.2 208 320.1 208C351 208 376.1 182.9 376.1 152zM134.9 137.8L128.7 123L99.2 135.3L105.4 150.1L145.4 246.1L148.7 254.1L157.2 255.7L237.4 270.8L206.5 373.7C218.9 378.7 228.9 382.7 236.3 385.6L270.4 271.9L364.8 271.9L318.2 418.3L320.1 419.1L356.1 404.7L399.4 268.7L399.7 267.7L541 223.1L556.3 218.3L546.7 187.8L531.4 192.6L381.8 239.9L246.7 239.9L171.7 225.8L135 137.8zM199.1 425L193.4 422.9L187.7 425L66.7 470.9C38.3 460.3 21 453.8 14.7 451.4L3.5 481.4C8.9 483.4 28.1 490.6 61.1 503L66.7 505.1L72.3 503L193.3 457.1L314.3 503L320 505.1L325.7 503L446.7 457.1L567.7 503L573.3 505.1L578.9 503C612 490.6 631.2 483.4 636.5 481.4L625.3 451.4C619 453.8 601.6 460.3 573.3 470.9L452.3 425L446.6 422.9L440.9 425L319.9 470.9L198.9 425z"/></svg>