<svg xmlns="http://www.w3.org/2000/svg" viewBox="0 0 640 640"><!--! Font Awesome Pro 7.2.0 by @fontawesome - https://fontawesome.com License - https://fontawesome.com/license (Commercial License) Copyright 2026 Fonticons, Inc. --><path opacity=".4" fill="currentColor" d="M61 208L88 316.1L89 320L88 323.9L61 432L80.8 432L140 358L144.8 352L544.5 352C562.2 352 576.5 337.7 576.5 320C576.5 302.3 562.2 288 544.5 288L144.8 288L140 282L80.8 208L61 208zM198.7 96L252 256L396.1 256L249.4 96L198.6 96zM198.7 544L249.5 544L396.2 384L252.1 384L198.8 544z"/><path fill="currentColor" d="M544.5 256C579.8 256 608.5 284.7 608.5 320C608.5 355.3 579.8 384 544.5 384L439.5 384L268.3 570.8L263.5 576L154.3 576L161.3 554.9L218.3 384L160.2 384L101 458L96.2 464L20 464L25 444.1L56 320L25 195.9L20 176L96.2 176L101 182L160.2 256L218.3 256L161.3 85.1L154.3 64L263.5 64L268.3 69.2L439.5 256L544.5 256zM576.5 320C576.5 302.3 562.2 288 544.5 288L144.8 288L140 282L80.8 208L61 208L88 316.1L89 320L88 323.9L61 432L80.8 432L140 358L144.8 352L544.5 352C562.2 352 576.5 337.7 576.5 320zM396.1 384L252 384L198.7 544L249.5 544L396.2 384zM249.5 96L198.7 96L252 256L396.1 256L249.4 96z"/></svg>