<svg xmlns="http://www.w3.org/2000/svg" viewBox="0 0 640 640"><!--! Font Awesome Pro 7.2.0 by @fontawesome - https://fontawesome.com License - https://fontawesome.com/license (Commercial License) Copyright 2026 Fonticons, Inc. --><path opacity=".4" fill="currentColor" d=""/><path fill="currentColor" d="M224 96C224 60.7 252.7 32 288 32C323.3 32 352 60.7 352 96L352 201L436.5 278.5C429 286.2 422.5 294.8 417.1 304.1L352 244.4L352 388.5L368 393.8L368 427.5L352 422.2L352 480.3L368 493.1L368 534.1L326 500.5L320 495.7L320 96C320 78.3 305.7 64 288 64C270.3 64 256 78.3 256 96L256 495.7L250 500.5L176 559.7L176 579.5L284.1 552.5L288 551.5L291.9 552.5L368 571.5L368 604.5L288 584.5L163.9 615.5L144 620.5L144 544.3L150 539.5L224 480.3L224 422.2L53.1 479.2L32 486.2L32 377L37.2 372.2L224 201L224 96zM64 391L64 441.8L224 388.5L224 244.4L64 391.1zM528 320C501.5 320 480 341.5 480 368L480 416L576 416L576 368C576 341.5 554.5 320 528 320zM448 368C448 323.8 483.8 288 528 288C572.2 288 608 323.8 608 368L608 416L640 416L640 608L416 608L416 416L448 416L448 368zM448 448L448 576L608 576L608 448L448 448z"/></svg>