<svg xmlns="http://www.w3.org/2000/svg" viewBox="0 0 640 640"><!--! Font Awesome Pro 7.2.0 by @fontawesome - https://fontawesome.com License - https://fontawesome.com/license (Commercial License) Copyright 2026 Fonticons, Inc. --><path opacity=".4" fill="currentColor" d="M101 416C111.4 448.5 137.1 474.1 169.6 484.3L192 491.3L192 511.9L448 511.9L448 491.3L470.4 484.3C503 474.1 528.7 448.5 539 416L101 416zM256 130.7L256 136C256 156.9 269.4 174.7 288 181.3L288 176C288 155.1 274.6 137.3 256 130.7zM256 312L256 317.3C274.6 310.7 288 292.9 288 272L288 266.7C269.4 273.3 256 291.1 256 312zM368 130.7L368 136C368 156.9 381.4 174.7 400 181.3L400 176C400 155.1 386.6 137.3 368 130.7zM368 312L368 317.3C386.6 310.7 400 292.9 400 272L400 266.7C381.4 273.3 368 291.1 368 312zM480 130.7L480 136C480 156.9 493.4 174.7 512 181.3L512 176C512 155.1 498.6 137.3 480 130.7zM480 312L480 317.3C498.6 310.7 512 292.9 512 272L512 266.7C493.4 273.3 480 291.1 480 312z"/><path fill="currentColor" d="M368 130.7L368 136C368 156.9 381.4 174.7 400 181.3L400 176C400 155.1 386.6 137.3 368 130.7zM368 97.6C404.5 105 432 137.3 432 176L432 216L416 216C410.5 216 405.2 215.4 400 214.4C363.5 207 336 174.7 336 136L336 96L352 96C357.5 96 362.8 96.6 368 97.6zM112 128L192 128L192 160L96 160L96 128L112 128zM80 208L224 208L224 240L64 240L64 208L80 208zM96 288L192 288L192 320L96 320L96 288zM368 312L368 317.3C386.6 310.7 400 292.9 400 272L400 266.7C381.4 273.3 368 291.1 368 312zM432 272C432 310.7 404.5 343 368 350.4C362.8 351.4 357.5 352 352 352L336 352L336 312C336 273.3 363.5 241 400 233.6C405.2 232.6 410.5 232 416 232L432 232L432 272zM256 312L256 317.3C274.6 310.7 288 292.9 288 272L288 266.7C269.4 273.3 256 291.1 256 312zM320 272C320 310.7 292.5 343 256 350.4C250.8 351.4 245.5 352 240 352L224 352L224 312C224 273.3 251.5 241 288 233.6C293.2 232.6 298.5 232 304 232L320 232L320 272zM256 130.7L256 136C256 156.9 269.4 174.7 288 181.3L288 176C288 155.1 274.6 137.3 256 130.7zM256 97.6C292.5 105 320 137.3 320 176L320 216L304 216C298.5 216 293.2 215.4 288 214.4C251.5 207 224 174.7 224 136L224 96L240 96C245.5 96 250.8 96.6 256 97.6zM480 312L480 317.3C498.6 310.7 512 292.9 512 272L512 266.7C493.4 273.3 480 291.1 480 312zM544 272C544 310.7 516.5 343 480 350.4C474.8 351.4 469.5 352 464 352L448 352L448 312C448 273.3 475.5 241 512 233.6C517.2 232.6 522.5 232 528 232L544 232L544 272zM480 130.7L480 136C480 156.9 493.4 174.7 512 181.3L512 176C512 155.1 498.6 137.3 480 130.7zM480 97.6C516.5 105 544 137.3 544 176L544 216L528 216C522.5 216 517.2 215.4 512 214.4C475.5 207 448 174.7 448 136L448 96L464 96C469.5 96 474.8 96.6 480 97.6zM192 512L448 512L448 491.4L470.4 484.4C503 474.1 528.7 448.5 539 416L101 416C111.4 448.5 137.1 474.1 169.6 484.3L192 491.3L192 511.9zM160 514.9C114.3 500.5 79 463 67.8 416C65.3 405.7 64 395 64 384L576 384C576 395 574.7 405.7 572.2 416C561 463 525.6 500.5 480 514.9L480 544L160 544L160 514.9z"/></svg>