<svg xmlns="http://www.w3.org/2000/svg" viewBox="0 0 640 640"><!--! Font Awesome Pro 7.2.0 by @fontawesome - https://fontawesome.com License - https://fontawesome.com/license (Commercial License) Copyright 2026 Fonticons, Inc. --><path opacity=".4" fill="currentColor" d="M32 80L32 240C32 248.8 39.2 256 48 256L64 256L64 80L32 80zM96 80L96 256L112 256C120.8 256 128 248.8 128 240L128 80L96 80zM128 318.4L128 439.8C129 441.5 130 443.2 131.1 444.9L154.5 421.5C190 485.1 258 528 336 528C416.2 528 485.9 482.6 520.6 416L480 416L480 224C480 206.4 482.1 190.3 485.8 175.7C448 136.4 394.8 112 336 112C280.1 112 229.4 134 192 169.9L192 240C192 278.7 164.5 311 128 318.4zM480 320C480 399.5 415.5 464 336 464C256.5 464 192 399.5 192 320C192 240.5 256.5 176 336 176C415.5 176 480 240.5 480 320zM224 320C224 381.9 274.1 432 336 432C397.9 432 448 381.9 448 320C448 258.1 397.9 208 336 208C274.1 208 224 258.1 224 320zM544 224L544 352L608 352L608 123C603.1 125.3 598 127.9 593 131.1C568.4 146.5 544 173.1 544 224z"/><path fill="currentColor" d="M32 80L0 80L0 240C0 266.5 21.5 288 48 288L64 288L64 560L96 560L96 288L112 288C138.5 288 160 266.5 160 240L160 80L128 80L128 240C128 248.8 120.8 256 112 256L96 256L96 80L64 80L64 256L48 256C39.2 256 32 248.8 32 240L32 80zM640 80C640 80 626.4 81.7 608 88.4C570.1 102.4 512 137.8 512 224L512 384L608 384L608 560L640 560L640 80zM608 352L544 352L544 224C544 173.2 568.4 146.5 593 131.1C598 127.9 603.1 125.3 608 123L608 352zM498 142.9C455.3 103.8 398.4 80 336 80C282 80 232.1 97.9 192 128L192 169.9C229.4 134 280.1 112 336 112C394.8 112 448 136.4 485.8 175.7C488.8 163.8 493 152.9 498 142.9zM520.6 416C485.9 482.6 416.3 528 336 528C258 528 190 485.1 154.4 421.6L131.1 445C173.3 514 249.3 560 336 560C434.4 560 519 500.8 556 416L520.5 416zM480 320C480 240.5 415.5 176 336 176C256.5 176 192 240.5 192 320C192 399.5 256.5 464 336 464C415.5 464 480 399.5 480 320zM224 320C224 258.1 274.1 208 336 208C397.9 208 448 258.1 448 320C448 381.9 397.9 432 336 432C274.1 432 224 381.9 224 320z"/></svg>