<svg xmlns="http://www.w3.org/2000/svg" viewBox="0 0 640 640"><!--! Font Awesome Pro 7.2.0 by @fontawesome - https://fontawesome.com License - https://fontawesome.com/license (Commercial License) Copyright 2026 Fonticons, Inc. --><path opacity=".4" fill="currentColor" d="M289.6 417.2L307.7 544L332.2 544L350.3 417.2L336.6 400L303.4 400L289.7 417.2zM304 288C304 296.8 311.2 304 320 304C328.8 304 336 296.8 336 288C336 279.2 328.8 272 320 272C311.2 272 304 279.2 304 288z"/><path fill="currentColor" d="M512 288C512 354.5 478.2 413.1 426.8 447.6L421.1 488C494 451 544 375.4 544 288C544 164.3 443.7 64 320 64C196.3 64 96 164.3 96 288C96 375.4 146 451 218.9 488L213.1 447.6C161.8 413.1 128 354.5 128 288C128 182 214 96 320 96C426 96 512 182 512 288zM416 288C416 310 408.6 330.2 396.2 346.4L416.6 371.9C436.1 349.4 448 320.1 448 288C448 217.3 390.7 160 320 160C249.3 160 192 217.3 192 288C192 320.1 203.8 349.5 223.4 371.9L243.8 346.4C231.4 330.2 224 310 224 288C224 235 267 192 320 192C373 192 416 235 416 288zM320 272C328.8 272 336 279.2 336 288C336 296.8 328.8 304 320 304C311.2 304 304 296.8 304 288C304 279.2 311.2 272 320 272zM320 336C346.5 336 368 314.5 368 288C368 261.5 346.5 240 320 240C293.5 240 272 261.5 272 288C272 314.5 293.5 336 320 336zM332.2 544L307.7 544L289.6 417.2L303.3 400L336.5 400L350.2 417.2L332.1 544zM256 408L280 576L360 576L384 408L352 368L288 368L256 408z"/></svg>