<svg xmlns="http://www.w3.org/2000/svg" viewBox="0 0 640 640"><!--! Font Awesome Pro 7.2.0 by @fontawesome - https://fontawesome.com License - https://fontawesome.com/license (Commercial License) Copyright 2026 Fonticons, Inc. --><path opacity=".4" fill="currentColor" d="M180.3 256L205.3 544L434.6 544L459.6 256L180.2 256zM304 96L304 128L384 128C392.8 128 400 120.8 400 112C400 103.2 392.8 96 384 96L304 96z"/><path fill="currentColor" d="M304 96L304 128L384 128C392.8 128 400 120.8 400 112C400 103.2 392.8 96 384 96L304 96zM272 64L384 64C410.5 64 432 85.5 432 112C432 138.5 410.5 160 384 160L272 160L272 128L224 128L224 224L520 224L520 256L491.8 256L464 576L176 576L148.2 256L120 256L120 224L192 224L192 96L272 96L272 64zM459.7 256L180.3 256L205.3 544L434.6 544L459.6 256z"/></svg>