<svg xmlns="http://www.w3.org/2000/svg" viewBox="0 0 640 640"><!--! Font Awesome Pro 7.2.0 by @fontawesome - https://fontawesome.com License - https://fontawesome.com/license (Commercial License) Copyright 2026 Fonticons, Inc. --><path opacity=".4" fill="currentColor" d="M160 96L480 96L480 176L160 176L160 96zM192 208L448 208L448 544L192 544L192 208zM224 320L224 416L272 416L272 464L368 464L368 416L416 416L416 320L368 320L368 272L272 272L272 320L224 320z"/><path fill="currentColor" d="M480 96L480 176L160 176L160 96L480 96zM128 208L160 208L160 576L480 576L480 208L512 208L512 64L128 64L128 208zM192 208L448 208L448 544L192 544L192 208zM288 272L272 272L272 320L224 320L224 416L272 416L272 464L368 464L368 416L416 416L416 320L368 320L368 272L288 272zM304 352L304 304L336 304L336 352L384 352L384 384L336 384L336 432L304 432L304 384L256 384L256 352L304 352z"/></svg>