<svg xmlns="http://www.w3.org/2000/svg" viewBox="0 0 640 640"><!--! Font Awesome Pro 7.2.0 by @fontawesome - https://fontawesome.com License - https://fontawesome.com/license (Commercial License) Copyright 2026 Fonticons, Inc. --><path opacity=".4" fill="currentColor" d="M128 128L128 416L512 416L512 128L128 128z"/><path fill="currentColor" d="M80 96L64 96L64 128L96 128L96 448L304 448L304 495.7L230.8 546.9L217.7 556.1L236.1 582.3L249.2 573.1L320 523.5L390.8 573.1L403.9 582.3L422.2 556.1L409.1 546.9L335.9 495.7L335.9 448L543.9 448L543.9 128L575.9 128L575.9 96L79.9 96zM512 128L512 416L128 416L128 128L512 128z"/></svg>