<svg xmlns="http://www.w3.org/2000/svg" viewBox="0 0 640 640"><!--! Font Awesome Pro 7.2.0 by @fontawesome - https://fontawesome.com License - https://fontawesome.com/license (Commercial License) Copyright 2026 Fonticons, Inc. --><path opacity=".4" fill="currentColor" d="M96 416L96 544L224 544L224 416L96 416zM256 352L256 544L384 544L384 352L256 352zM269.3 174.4L288.4 193.5L294.1 199.2L292.9 207.2L288.7 233.8C307.5 224.2 317.9 218.9 320 217.9L327.3 221.6L351.3 233.8L347.1 207.2L345.9 199.2C347.5 197.6 355.7 189.3 370.6 174.3C349.8 171 338.3 169.2 336 168.8L332.3 161.6L320.1 137.6C310.5 156.4 305.2 166.8 304.2 168.8C301.9 169.2 290.4 171 269.5 174.3zM416 480L416 544L544 544L544 480L416 480z"/><path fill="currentColor" d="M416 448L576 448L576 576L64 576L64 384L224 384L224 320L416 320L416 448zM96 544L224 544L224 416L96 416L96 544zM256 544L384 544L384 352L256 352L256 544zM416 544L544 544L544 480L416 480L416 544zM334.1 95.2L356.9 139.9C393 145.7 419.8 149.9 437.3 152.7C424.8 165.2 405.6 184.5 379.8 210.4C385.5 246.6 389.7 273.4 392.5 291C376.7 282.9 352.5 270.6 319.9 254C287.3 270.6 263.1 282.9 247.3 291C250.1 273.4 254.3 246.6 260 210.4C234.2 184.5 215 165.3 202.5 152.7C220 149.9 246.8 145.6 282.9 139.9C299.5 107.4 311.9 83.1 319.9 67.2L334.1 95.2zM307.6 161.6L303.9 168.8C301.6 169.2 290.1 171 269.2 174.3L288.3 193.4L294 199.1L292.8 207.1L288.6 233.7C307.4 224.1 317.8 218.8 319.9 217.8L327.2 221.5L351.2 233.7L347 207.1L345.8 199.1C347.4 197.5 355.6 189.2 370.5 174.2C349.7 170.9 338.2 169.1 335.9 168.7L332.2 161.5L320 137.5L307.8 161.5z"/></svg>