<svg xmlns="http://www.w3.org/2000/svg" viewBox="0 0 640 640"><!--! Font Awesome Pro 7.2.0 by @fontawesome - https://fontawesome.com License - https://fontawesome.com/license (Commercial License) Copyright 2026 Fonticons, Inc. --><path opacity=".4" fill="currentColor" d="M160 113.2L160 526.7C180 517.8 194 511.6 201.8 508.1C206.7 510.9 225.1 521.4 257 539.6C295.2 520.5 316.2 510 320 508.1C323.8 510 344.8 520.5 383 539.6C414.9 521.4 433.3 510.8 438.2 508.1C446 511.6 460 517.8 480 526.7L480 113.2C460 122.1 446 128.3 438.2 131.8C433.3 129 414.9 118.5 383 100.3C344.8 119.4 323.8 129.9 320 131.8C316.2 129.9 295.2 119.4 257 100.3C225.1 118.5 206.7 129.1 201.8 131.8C194 128.3 180 122.1 160 113.2zM208 208L432 208L432 240L208 240L208 208zM208 304L432 304L432 336L208 336L208 304zM208 400L432 400L432 432L208 432L208 400z"/><path fill="currentColor" d="M215.9 516.2L201.8 508.2C194 511.7 180 517.9 160 526.8L160 113.2C180 122.1 194 128.3 201.8 131.8C206.7 129 225.1 118.5 257 100.3C295.2 119.4 316.2 129.9 320 131.8C323.8 129.9 344.8 119.4 383 100.3C414.9 118.5 433.3 129.1 438.2 131.8C446 128.3 460 122.1 480 113.2L480 526.7C460 517.8 446 511.6 438.2 508.1C433.3 510.9 414.9 521.4 383 539.6C344.8 520.5 323.8 510 320 508.1C316.2 510 295.2 520.5 257 539.6L215.9 516.2zM128 576C148 567.1 172 556.4 200 544L256 576L320 544L384 576L440 544C468 556.4 492 567.1 512 576L512 64C492 72.9 468 83.6 440 96L384 64L320 96L256 64L200 96C172 83.6 148 72.9 128 64L128 576zM224 208L208 208L208 240L432 240L432 208L224 208zM208 400L208 432L432 432L432 400L208 400zM224 304L208 304L208 336L432 336L432 304L224 304z"/></svg>