<svg xmlns="http://www.w3.org/2000/svg" viewBox="0 0 640 640"><!--! Font Awesome Pro 7.2.0 by @fontawesome - https://fontawesome.com License - https://fontawesome.com/license (Commercial License) Copyright 2026 Fonticons, Inc. --><path opacity=".4" fill="currentColor" d="M96 160L544 160L544 480L96 480L96 160zM160 224L160 416L192 416L192 224L160 224zM224 224L224 416L256 416L256 224L224 224zM320 224L320 416L352 416L352 224L320 224zM384 224L384 416L416 416L416 224L384 224zM448 224L448 416L480 416L480 224L448 224z"/><path fill="currentColor" d="M96 160L96 480L544 480L544 160L96 160zM64 128L576 128L576 512L64 512L64 128zM192 224L192 416L160 416L160 224L192 224zM224 224L256 224L256 416L224 416L224 224zM352 224L352 416L320 416L320 224L352 224zM384 224L416 224L416 416L384 416L384 224zM480 224L480 416L448 416L448 224L480 224z"/></svg>