<svg xmlns="http://www.w3.org/2000/svg" viewBox="0 0 640 640"><!--! Font Awesome Pro 7.2.0 by @fontawesome - https://fontawesome.com License - https://fontawesome.com/license (Commercial License) Copyright 2026 Fonticons, Inc. --><path opacity=".4" fill="currentColor" d="M32 160L32 480L608 480L608 160L32 160zM80 224L113.9 224L118.3 232.8L176 348.2L176 224L208 224L208 416L174.1 416L169.7 407.2L112 291.8L112 416L80 416L80 224zM248 224L376 224L376 256L280 256L280 304L360 304L360 336L280 336L280 384L376 384L376 416L248 416L248 224zM400 224L432 224L432 306.1C432 313.2 433.4 320.3 436 326.9L448 356.9L465.2 314L469.2 303.9L490.8 303.9L494.8 314L511.9 356.9L523.9 326.9C526.5 320.3 527.9 313.2 527.9 306.1L527.9 224L559.9 224L559.9 306.1C559.9 317.3 557.8 328.4 553.6 338.8L526.7 405.9L522.7 416L501.1 416L497.1 405.9L479.9 363L462.7 405.9L458.7 416L437.1 416L433.1 405.9L406.2 338.8C402 328.4 399.9 317.3 399.9 306.1L399.9 224z"/><path fill="currentColor" d="M640 512L0 512L0 128L640 128L640 512zM32 480L608 480L608 160L32 160L32 480zM118.3 232.8L176 348.2L176 224L208 224L208 416L174.1 416L169.7 407.2L112 291.8L112 416L80 416L80 224L113.9 224L118.3 232.8zM376 256L280 256L280 304L360 304L360 336L280 336L280 384L376 384L376 416L248 416L248 224L376 224L376 256zM432 224L432 306.1C432 313.2 433.4 320.3 436 326.9L448 356.9L465.2 314L469.2 303.9L490.8 303.9L494.8 314L511.9 356.9L523.9 326.9C526.5 320.3 527.9 313.2 527.9 306.1L527.9 224L559.9 224L559.9 306.1C559.9 317.3 557.8 328.4 553.6 338.8L526.7 405.9L522.7 416L501.1 416L497.1 405.9L479.9 363L462.7 405.9L458.7 416L437.1 416L433.1 405.9L406.2 338.8C402 328.4 399.9 317.3 399.9 306.1L399.9 224L431.9 224z"/></svg>