<svg xmlns="http://www.w3.org/2000/svg" viewBox="0 0 640 640"><!--! Font Awesome Pro 7.2.0 by @fontawesome - https://fontawesome.com License - https://fontawesome.com/license (Commercial License) Copyright 2026 Fonticons, Inc. --><path opacity=".4" fill="currentColor" d="M96 320C96 443.7 196.3 544 320 544C443.7 544 544 443.7 544 320C544 196.3 443.7 96 320 96C196.3 96 96 196.3 96 320zM256 224L336 224C371.3 224 400 252.7 400 288C400 314.5 383.9 337.2 360.9 347L401.2 416L364.2 416L326.9 352L288.1 352L288.1 416L256.1 416L256.1 224zM288 256L288 320L336 320C353.7 320 368 305.7 368 288C368 270.3 353.7 256 336 256L288 256z"/><path fill="currentColor" d="M320 96C443.7 96 544 196.3 544 320C544 443.7 443.7 544 320 544C196.3 544 96 443.7 96 320C96 196.3 196.3 96 320 96zM320 576C461.4 576 576 461.4 576 320C576 178.6 461.4 64 320 64C178.6 64 64 178.6 64 320C64 461.4 178.6 576 320 576zM256 224L256 416L288 416L288 352L326.8 352L364.1 416L401.1 416L360.8 347C383.8 337.3 399.9 314.5 399.9 288C399.9 252.7 371.2 224 335.9 224L255.9 224zM288 320L288 256L336 256C353.7 256 368 270.3 368 288C368 305.7 353.7 320 336 320L288 320z"/></svg>