<svg xmlns="http://www.w3.org/2000/svg" viewBox="0 0 640 640"><!--! Font Awesome Pro 7.2.0 by @fontawesome - https://fontawesome.com License - https://fontawesome.com/license (Commercial License) Copyright 2026 Fonticons, Inc. --><path opacity=".4" fill="currentColor" d="M69.3 192L186.7 192L128 133.3L69.3 192zM453.3 448L512 506.7L570.7 448L453.2 448z"/><path fill="currentColor" d="M232 192L240 200L240 224L144 224L144 512L352 512L352 544L112 544L112 224L16 224L16 200L128 88L232 192zM128 133.3L69.3 192L186.7 192L128 133.3zM408 448L400 440L400 416L496 416L496 128L288 128L288 96L528 96L528 416L624 416L624 440L512 552L408 448zM512 506.7L570.7 448L453.2 448L511.9 506.7z"/></svg>