<svg xmlns="http://www.w3.org/2000/svg" viewBox="0 0 640 640"><!--! Font Awesome Pro 7.2.0 by @fontawesome - https://fontawesome.com License - https://fontawesome.com/license (Commercial License) Copyright 2026 Fonticons, Inc. --><path opacity=".4" fill="currentColor" d="M147.8 425.5L176.4 530.4L255.2 451.6C236.7 418.7 223 388.2 213.5 359.8L147.8 425.5zM236.5 197.7C218.9 253 222.1 333.3 290 448L350 448C417.9 333.3 421 253 403.5 197.7C387.6 147.7 353.1 112.2 320 87.2C286.9 112.2 252.4 147.7 236.5 197.7zM376 224C376 254.9 350.9 280 320 280C289.1 280 264 254.9 264 224C264 193.1 289.1 168 320 168C350.9 168 376 193.1 376 224zM384.9 451.6L463.7 530.4L492.3 425.5L426.6 359.8C417.1 388.2 403.5 418.7 384.9 451.6z"/><path fill="currentColor" d="M290 448L350 448C417.9 333.3 421 253 403.5 197.7C387.6 147.7 353.1 112.2 320 87.2C286.9 112.2 252.4 147.7 236.5 197.7C218.9 253.1 222.1 333.3 290 448zM368 480L272 480C204.7 547.3 167.4 584.6 160 592C158.3 585.8 142.3 527.1 112 416L203.4 324.6C168 171.5 258.3 89.1 320 48C381.7 89.1 472 171.5 436.6 324.6L528 416C497.7 527.1 481.7 585.8 480 592L368 480zM213.4 359.8L147.7 425.5L176.3 530.4L255.1 451.6C236.6 418.7 222.9 388.2 213.4 359.8zM384.9 451.6L463.7 530.4L492.3 425.5L426.6 359.8C417.1 388.2 403.5 418.7 384.9 451.6zM296 224C296 237.3 306.7 248 320 248C333.3 248 344 237.3 344 224C344 210.7 333.3 200 320 200C306.7 200 296 210.7 296 224zM320 280C289.1 280 264 254.9 264 224C264 193.1 289.1 168 320 168C350.9 168 376 193.1 376 224C376 254.9 350.9 280 320 280z"/></svg>