<svg xmlns="http://www.w3.org/2000/svg" viewBox="0 0 640 640"><!--! Font Awesome Pro 7.2.0 by @fontawesome - https://fontawesome.com License - https://fontawesome.com/license (Commercial License) Copyright 2026 Fonticons, Inc. --><path opacity=".4" fill="currentColor" d=""/><path fill="currentColor" d="M576 320C576 461.4 461.4 576 320 576C249.2 576 181.6 546.8 133 495.4L96 456.3L96 576.1L64 576.1L64 400.1L224 400.1L224 432.1L117.1 432.1L156.2 473.5C198.8 518.5 258 544 320 544C443.7 544 544 443.7 544 320L576 320zM340 444L300 444L300 404L340 404L340 444zM331.2 368L308.8 368L296 192L344 192L331.2 368zM576 240L416 240L416 208L522.9 208L483.8 166.6C441.2 121.5 382 96 320 96C196.3 96 96 196.3 96 320L64 320C64 178.6 178.6 64 320 64C390.8 64 458.4 93.2 507 144.6L544 183.7L544 63.9L576 63.9L576 239.9z"/></svg>