<svg xmlns="http://www.w3.org/2000/svg" viewBox="0 0 640 640"><!--! Font Awesome Pro 7.2.0 by @fontawesome - https://fontawesome.com License - https://fontawesome.com/license (Commercial License) Copyright 2026 Fonticons, Inc. --><path opacity=".4" fill="currentColor" d="M96 125.3L178.7 208L96 208L96 125.3z"/><path fill="currentColor" d="M64 48L64 240L256 240L169.8 153.8C257.7 74.2 393.6 76.8 478.4 161.6C518.3 201.5 540 252.8 543.5 305.1L543.5 305.1C547 356.6 532.8 409.5 499.5 454.1C425.5 553.2 285.1 573.6 186 499.6C154.1 475.8 130.4 445.1 115.3 411.2L86.1 424.2C103.3 463 130.5 498.1 166.9 525.2C280.2 609.8 440.6 586.5 525.2 473.3C563.2 422.4 579.5 361.9 575.5 303.1C571.5 243.4 546.7 184.8 501.1 139.1C403.8 41.8 247.7 39.2 147.2 131.3L64 48zM96 125.3L178.7 208L96 208L96 125.3z"/></svg>