<svg xmlns="http://www.w3.org/2000/svg" viewBox="0 0 640 640"><!--! Font Awesome Pro 7.2.0 by @fontawesome - https://fontawesome.com License - https://fontawesome.com/license (Commercial License) Copyright 2026 Fonticons, Inc. --><path opacity=".4" fill="currentColor" d="M128 128L128 224L512 224L512 128L128 128zM128 256L128 384L512 384L512 256L128 256zM128 416L128 512L512 512L512 416L128 416z"/><path fill="currentColor" d="M544 96L96 96L96 544L544 544L544 96zM512 416L512 512L128 512L128 416L512 416zM512 384L128 384L128 256L512 256L512 384zM128 224L128 128L512 128L512 224L128 224z"/></svg>