<svg xmlns="http://www.w3.org/2000/svg" viewBox="0 0 640 640"><!--! Font Awesome Pro 7.2.0 by @fontawesome - https://fontawesome.com License - https://fontawesome.com/license (Commercial License) Copyright 2026 Fonticons, Inc. --><path opacity=".4" fill="currentColor" d="M64 128L64 394.4L111.6 453.9C127.5 431 154 416 184 416C224.1 416 258 442.9 268.6 479.6L384 479.6L384 192L576 192L576 128L384 128L384 96.1C341.3 96.1 298.7 96.1 256 96L256 128L64 128zM128 232C128 209.9 145.9 192 168 192L280 192C302.1 192 320 209.9 320 232L320 280C320 302.1 302.1 320 280 320L168 320C145.9 320 128 302.1 128 280L128 232zM416 384L416 436.1C431.2 423.5 450.7 416 472 416C512.1 416 546 442.9 556.6 479.6L576 479.6L576 384L416 384z"/><path fill="currentColor" d="M240 64L224 64L224 96L32 96L32 405.6L35.5 410L97.5 487.5C96.5 492.8 96 498.3 96 504C96 552.6 135.4 592 184 592C229.9 592 267.6 556.9 271.6 512L384.3 512C388.3 556.9 426 592 471.9 592C517.8 592 555.5 556.9 559.5 512L607.9 512L607.9 363.2L605.2 359.2L541.2 263.2L536.5 256.1L415.9 256.1L415.9 224.1L607.9 224.1L607.9 96.1L415.9 96.1L415.9 64.1L239.9 64.1zM519.4 288L562.1 352L416 352L416 288L519.4 288zM416 436.1L416 384L576 384L576 480L556.7 480C546.3 443.1 512.3 416 472 416C450.7 416 431.2 423.5 416 436.1zM384 480L268.7 480C258.3 443.1 224.3 416 184 416C154 416 127.5 431 111.6 453.9L64 394.4L64 128L256 128L256 96L384 96L384 128L576 128L576 192L384 192L384 480zM184 448C214.9 448 240 473.1 240 504C240 534.9 214.9 560 184 560C153.1 560 128 534.9 128 504C128 473.1 153.1 448 184 448zM472 448C502.9 448 528 473.1 528 504C528 534.9 502.9 560 472 560C441.1 560 416 534.9 416 504C416 473.1 441.1 448 472 448zM168 192C145.9 192 128 209.9 128 232L128 280C128 302.1 145.9 320 168 320L280 320C302.1 320 320 302.1 320 280L320 232C320 209.9 302.1 192 280 192L168 192zM160 232C160 227.6 163.6 224 168 224L280 224C284.4 224 288 227.6 288 232L288 280C288 284.4 284.4 288 280 288L168 288C163.6 288 160 284.4 160 280L160 232z"/></svg>