<svg xmlns="http://www.w3.org/2000/svg" viewBox="0 0 640 640"><!--! Font Awesome Pro 7.2.0 by @fontawesome - https://fontawesome.com License - https://fontawesome.com/license (Commercial License) Copyright 2026 Fonticons, Inc. --><path opacity=".4" fill="currentColor" d="M160 480C160 515.3 188.7 544 224 544C400.7 544 544 400.7 544 224C544 188.7 515.3 160 480 160C444.7 160 416 188.7 416 224C416 330 330 416 224 416C188.7 416 160 444.7 160 480zM240 448C354.9 448 448 354.9 448 240L480 240C480 372.5 372.5 480 240 480L240 448z"/><path fill="currentColor" d="M464 64L448 64L448 96L544 96L544 64L464 64zM96 464L96 448L64 448L64 544L96 544L96 464zM544 224C544 400.7 400.7 544 224 544C188.7 544 160 515.3 160 480C160 444.7 188.7 416 224 416C330 416 416 330 416 224C416 188.7 444.7 160 480 160C515.3 160 544 188.7 544 224zM576 224C576 171 533 128 480 128C427 128 384 171 384 224C384 312.4 312.4 384 224 384C171 384 128 427 128 480C128 533 171 576 224 576C418.4 576 576 418.4 576 224zM480 240L448 240C448 354.9 354.9 448 240 448L240 480C372.5 480 480 372.5 480 240z"/></svg>