<svg xmlns="http://www.w3.org/2000/svg" viewBox="0 0 640 640"><!--! Font Awesome Pro 7.2.0 by @fontawesome - https://fontawesome.com License - https://fontawesome.com/license (Commercial License) Copyright 2026 Fonticons, Inc. --><path opacity=".4" fill="currentColor" d="M96 128L96 512L278 512C274.1 496.7 272 480.6 272 464C272 458 272.3 452.1 272.8 446.2C244.8 439.4 224 414.1 224 384C224 348.7 252.7 320 288 320C301.7 320 314.4 324.3 324.9 331.7C359.9 294.9 409.3 272 464 272C469.4 272 474.7 272.2 480 272.7L480 224L384 128L384 272L160 272L160 128L96 128z"/><path fill="currentColor" d="M96 128L96 512L278 512C280.9 523.1 284.7 533.8 289.4 544L64 544L64 96L397.3 96L406.7 105.4L512.1 210.8L512.1 278.1C501.7 275.4 491.1 273.6 480.1 272.7L480.1 224L384.1 128L384.1 272L160.1 272L160.1 128L96.1 128zM288 320C301.7 320 314.4 324.3 324.9 331.7C317.5 339.5 310.8 347.8 304.8 356.7C299.9 353.7 294.2 352 288.1 352C270.4 352 256.1 366.3 256.1 384C256.1 398.3 265.5 410.5 278.5 414.5C275.8 424.7 273.9 435.3 272.9 446.1C244.9 439.3 224.1 414 224.1 383.9C224.1 348.6 252.8 319.9 288.1 319.9zM192 128L192 240L352 240L352 128L192 128zM464 576C525.9 576 576 525.9 576 464C576 402.1 525.9 352 464 352C402.1 352 352 402.1 352 464C352 525.9 402.1 576 464 576zM464 320C543.5 320 608 384.5 608 464C608 543.5 543.5 608 464 608C384.5 608 320 543.5 320 464C320 384.5 384.5 320 464 320zM472 385.4L483.3 396.7L539.3 452.7L550.6 464L539.3 475.3L483.3 531.3L472 542.6L449.4 520C454 515.4 467.4 502 489.4 480L384 480L384 448L489.4 448C467.4 426 454 412.6 449.4 408L472 385.4z"/></svg>