<svg xmlns="http://www.w3.org/2000/svg" viewBox="0 0 640 640"><!--! Font Awesome Pro 7.2.0 by @fontawesome - https://fontawesome.com License - https://fontawesome.com/license (Commercial License) Copyright 2026 Fonticons, Inc. --><path opacity=".4" fill="currentColor" d="M64 208C64 252.2 99.8 288 144 288L340.2 288L363.1 128L144 128C99.8 128 64 163.8 64 208zM176 320L176 508.4C180.4 510.7 185.4 512 190.7 512L244.4 512C250.4 512 256.1 510.3 260.9 507.4L287.7 320L176 320z"/><path fill="currentColor" d="M144 352L144 320C82.1 320 32 269.9 32 208C32 146.1 82.1 96 144 96L400 96L395.4 128L368 320L320 320L288 544L144 544L144 352zM287.7 320L176 320L176 512L260.2 512L287.6 320zM144 288L340.2 288L363.1 128L144 128C99.8 128 64 163.8 64 208C64 252.2 99.8 288 144 288zM608 96L608 128L448 128L448 96L608 96zM608 160L608 192L448 192L448 160L608 160zM448 256L608 256L608 288L448 288L448 256zM608 320L608 352L448 352L448 320L608 320zM448 384L608 384L608 416L448 416L448 384zM608 512L608 544L448 544L448 512L608 512z"/></svg>