<svg xmlns="http://www.w3.org/2000/svg" viewBox="0 0 640 640"><!--! Font Awesome Pro 7.2.0 by @fontawesome - https://fontawesome.com License - https://fontawesome.com/license (Commercial License) Copyright 2026 Fonticons, Inc. --><path opacity=".4" fill="currentColor" d="M192.1 96L192.1 265.4L320.1 393.4C390.6 322.9 370 343.5 393.5 320C300.8 227.3 252.8 179.3 249.5 176L368.1 176L368.1 208L326.7 208L416.1 297.4L448.1 265.4L448.1 96L192.1 96z"/><path fill="currentColor" d="M176.1 64L160.1 64L160.1 278.6L164.8 283.3L297.5 416L320.1 438.6L444.8 563.3L456.1 574.6L478.7 552L467.4 540.7L342.7 416L368.1 390.6L492.8 515.3L504.1 526.6L526.7 504L515.4 492.7L390.7 368C391.2 367.5 399.6 359.1 416.1 342.6L540.8 467.3L552.1 478.6L574.7 456L563.4 444.7L438.7 320L475.4 283.3L480.1 278.6L480.1 64L176.1 64zM393.5 320C364.4 349.1 354 359.5 320.1 393.4L192.1 265.4L192.1 96L448.1 96L448.1 265.4L416.1 297.4L326.7 208L368.1 208L368.1 176L249.5 176C252.8 179.3 300.8 227.3 393.5 320zM167.6 353.9L76.9 444.6L65.6 455.9L88.2 478.5L99.5 467.2L190.2 376.5L167.6 353.9zM215.6 401.9L124.9 492.6L113.6 503.9L136.2 526.5L147.5 515.2L238.2 424.5L215.6 401.9zM263.6 449.9L172.9 540.6L161.6 551.9L184.2 574.5L195.5 563.2L286.2 472.5L263.6 449.9z"/></svg>