<svg xmlns="http://www.w3.org/2000/svg" viewBox="0 0 640 640"><!--! Font Awesome Pro 7.2.0 by @fontawesome - https://fontawesome.com License - https://fontawesome.com/license (Commercial License) Copyright 2026 Fonticons, Inc. --><path opacity=".4" fill="currentColor" d=""/><path fill="currentColor" d="M48 96C76.6 96 101.7 111.1 115.8 133.7C133.3 110.8 160.9 96 192 96C225.4 96 254.8 113.1 272 139C289.2 113.1 318.6 96 352 96C405 96 448 139 448 192L448 544L491.1 544L585.6 448L543.9 448L543.9 416L639.9 416L639.9 512L607.9 512L607.9 470.9L509.1 571.2L504.4 576L415.9 576L415.9 192C415.9 156.7 387.2 128 351.9 128C316.6 128 287.9 156.7 287.9 192L287.9 544L255.9 544L255.9 192C255.9 156.7 227.2 128 191.9 128C156.6 128 127.9 156.7 127.9 192L127.9 544L95.9 544L95.9 176C95.9 149.5 74.4 128 47.9 128L31.9 128L31.9 96L47.9 96z"/></svg>