<svg xmlns="http://www.w3.org/2000/svg" viewBox="0 0 640 640"><!--! Font Awesome Pro 7.2.0 by @fontawesome - https://fontawesome.com License - https://fontawesome.com/license (Commercial License) Copyright 2026 Fonticons, Inc. --><path opacity=".4" fill="currentColor" d="M109.2 320L160 370.7L160 480L269.2 480L320 530.7L370.7 480L480 480L480 370.7L530.7 320L480 269.2L480 160L370.7 160L320 109.2L269.2 160L160 160L160 269.2L109.2 320zM296 192L344 192L331.2 368L308.8 368L296 192zM300 404L340 404L340 444L300 444L300 404z"/><path fill="currentColor" d="M384 128L512 128L512 256L576 320L512 384L512 512L384 512L320 576L256 512L128 512L128 384L64 320L128 256L128 128L256 128L320 64L384 128zM269.2 160L160 160L160 269.2L109.2 320L160 370.7L160 480L269.2 480L320 530.7L370.7 480L480 480L480 370.7L530.7 320L480 269.2L480 160L370.7 160L320 109.2L269.2 160zM340 444L300 444L300 404L340 404L340 444zM331.2 368L308.8 368L296 192L344 192L331.2 368z"/></svg>