<svg xmlns="http://www.w3.org/2000/svg" viewBox="0 0 640 640"><!--! Font Awesome Pro 7.2.0 by @fontawesome - https://fontawesome.com License - https://fontawesome.com/license (Commercial License) Copyright 2026 Fonticons, Inc. --><path opacity=".4" fill="currentColor" d="M96 352L544 352L544 432L96 432L96 352zM128 96L304 96L304 320L128 320L128 96zM336 96L512 96L512 320L336 320L336 96z"/><path fill="currentColor" d="M128 96L304 96L304 320L128 320L128 96zM512 320L336 320L336 96L512 96L512 320zM576 320L544 320L544 64L96 64L96 320L64 320L64 464L96 464L96 576L128 576L128 464L304 464L304 576L336 576L336 464L512 464L512 576L544 576L544 464L576 464L576 320zM544 432L96 432L96 352L544 352L544 432z"/></svg>