<svg xmlns="http://www.w3.org/2000/svg" viewBox="0 0 640 640"><!--! Font Awesome Pro 7.2.0 by @fontawesome - https://fontawesome.com License - https://fontawesome.com/license (Commercial License) Copyright 2026 Fonticons, Inc. --><path opacity=".4" fill="currentColor" d="M131.7 476.7L148.5 544L192 544L192 483.3C184.6 486.3 176.5 488 168 488C154.5 488 142 483.8 131.7 476.7zM320 483.3L320 544L363.5 544L380.3 476.7C370 483.8 357.5 488 344 488C335.5 488 327.4 486.3 320 483.3zM400 181.2L400 335.9L544 335.9L544 181.2L490.7 127.9L453.2 127.9L399.9 181.2zM464 224C464 232.8 456.8 240 448 240C439.2 240 432 232.8 432 224C432 215.2 439.2 208 448 208C456.8 208 464 215.2 464 224zM528 224C528 232.8 520.8 240 512 240C503.2 240 496 232.8 496 224C496 215.2 503.2 208 512 208C520.8 208 528 215.2 528 224z"/><path fill="currentColor" d="M544 336L400 336L400 181.3L453.3 128L490.8 128L544.1 181.3L544.1 336zM440 96L368 168L368 168.3C341.7 189.3 326.3 201.7 321.5 205.5L341.5 230.5C349.6 224 358.4 217 368 209.3L368 368L576 368L576 205.9C593.1 217.3 605.2 225.4 612.4 230.2L630.2 203.6C626.2 200.9 607.6 188.5 574.3 166.3L504 96L440 96zM464 224C464 215.2 456.8 208 448 208C439.2 208 432 215.2 432 224C432 232.8 439.2 240 448 240C456.8 240 464 232.8 464 224zM528 224C528 215.2 520.8 208 512 208C503.2 208 496 215.2 496 224C496 232.8 503.2 240 512 240C520.8 240 528 232.8 528 224zM366.6 124.1C359.6 121.4 351.9 120 344 120C329 120 315.1 125.2 304.2 133.9C292.5 120.5 275.2 112 256 112C236.8 112 219.5 120.5 207.8 133.9C196.9 125.2 183 120 168 120C137.9 120 112.7 140.8 105.8 168.8C102.6 168.3 99.3 168 96 168C60.7 168 32 196.7 32 232C32 237.3 32.7 242.5 33.9 247.5C13.7 258.3 0 279.5 0 304C0 328.5 13.7 349.7 33.9 360.5C32.7 365.5 32 370.7 32 376C32 409.1 57.2 436.4 89.4 439.7L120.5 563.9L123.5 576L224 576L224 487.4C233.4 492.8 244.3 496 256 496C267.7 496 278.6 492.9 288 487.4L288 576L388.5 576L391.5 563.9L422.6 439.7C446.6 437.2 466.7 421.5 475.4 400L437.2 400C431.6 405 424.1 408 416 408C414.3 408 412.6 407.9 411 407.6L382 403.1L375 431.6C371.6 445.6 358.9 455.9 343.9 455.9C336.3 455.9 329.5 453.3 324 449L300.1 430L280 453C274.1 459.8 265.5 464 255.9 464C246.3 464 237.7 459.8 231.8 453L211.7 430L187.8 449C182.3 453.3 175.5 455.9 167.9 455.9C152.9 455.9 140.2 445.5 136.8 431.6L129.8 403.1L100.8 407.6C99.2 407.8 97.6 408 95.8 408C78.1 408 63.8 393.7 63.8 376C63.8 373.3 64.1 370.7 64.7 368.2L70.7 344L48.7 332.2C38.5 326.8 31.7 316.1 31.7 303.9C31.7 291.7 38.5 281.1 48.7 275.6L70.7 263.8L64.7 239.6C64.1 237.1 63.8 234.5 63.8 231.8C63.8 214.1 78.1 199.8 95.8 199.8C97.5 199.8 99.2 199.9 100.8 200.2L129.8 204.7L136.8 176.2C140.2 162.2 152.9 151.9 167.9 151.9C175.5 151.9 182.3 154.5 187.8 158.8L211.7 177.8L231.8 154.8C237.7 148 246.3 143.8 255.9 143.8C265.5 143.8 274.1 148 280 154.8L300.1 177.8L324 158.8C328 155.6 332.8 153.3 338.1 152.4C340.5 150 350 140.5 366.5 124zM320 544L320 483.3C327.4 486.3 335.5 488 344 488C357.5 488 370 483.8 380.3 476.7L363.5 544L320 544zM192 483.3L192 544L148.5 544L131.7 476.7C142 483.8 154.5 488 168 488C176.5 488 184.6 486.3 192 483.3z"/></svg>