<svg xmlns="http://www.w3.org/2000/svg" viewBox="0 0 640 640"><!--! Font Awesome Pro 7.2.0 by @fontawesome - https://fontawesome.com License - https://fontawesome.com/license (Commercial License) Copyright 2026 Fonticons, Inc. --><path opacity=".4" fill="currentColor" d="M103 256L536.9 256L485.7 512L154.2 512L103 256zM192 336L192 432C192 440.8 199.2 448 208 448C216.8 448 224 440.8 224 432L224 336C224 327.2 216.8 320 208 320C199.2 320 192 327.2 192 336zM304 336L304 432C304 440.8 311.2 448 320 448C328.8 448 336 440.8 336 432L336 336C336 327.2 328.8 320 320 320C311.2 320 304 327.2 304 336zM416 336L416 432C416 440.8 423.2 448 432 448C440.8 448 448 440.8 448 432L448 336C448 327.2 440.8 320 432 320C423.2 320 416 327.2 416 336z"/><path fill="currentColor" d="M320 56L331.9 69.3L470.3 224C596.1 224 576 224 592 224L592 256L569.6 256L512 544L128 544L70.4 256L48 256L48 224L64 224L64 224L169.7 224L308.1 69.3L320 56zM320 104L212.6 224L427.4 224L320 104zM103 256L154.2 512L485.7 512L536.9 256L103 256zM224 336L224 432C224 440.8 216.8 448 208 448C199.2 448 192 440.8 192 432L192 336C192 327.2 199.2 320 208 320C216.8 320 224 327.2 224 336zM320 320C328.8 320 336 327.2 336 336L336 432C336 440.8 328.8 448 320 448C311.2 448 304 440.8 304 432L304 336C304 327.2 311.2 320 320 320zM448 336L448 432C448 440.8 440.8 448 432 448C423.2 448 416 440.8 416 432L416 336C416 327.2 423.2 320 432 320C440.8 320 448 327.2 448 336z"/></svg>