<svg xmlns="http://www.w3.org/2000/svg" viewBox="0 0 640 640"><!--! Font Awesome Pro 7.2.0 by @fontawesome - https://fontawesome.com License - https://fontawesome.com/license (Commercial License) Copyright 2026 Fonticons, Inc. --><path opacity=".4" fill="currentColor" d="M43.6 446.3L193.8 271.1L368.9 446.2L193.7 596.4L43.6 446.3zM105.4 448L128 470.6L139.3 459.3L219.3 379.3L230.6 368L208 345.4L196.7 356.7L116.7 436.7L105.4 448zM169.4 512L192 534.6L203.3 523.3L283.3 443.3L294.6 432L272 409.4L260.7 420.7L180.7 500.7L169.4 512z"/><path fill="currentColor" d="M491.3 52.7L480 41.4C477.9 43.5 459.4 62 424.6 96.8C408.9 112.5 400 133.9 400 156.1C400 173.5 405.3 189.6 414.3 203L292.7 324.7C231.5 263.5 197.9 229.9 192 224L171.1 248.4L0 448L192 640L391.6 468.9L416 448C410.1 442.1 376.5 408.5 315.3 347.3L437 225.7C450.4 234.8 466.5 240 483.9 240C506.1 240 527.5 231.2 543.2 215.4C578.1 180.5 596.6 162 598.6 160L587.3 148.7L491.3 52.7zM447.2 119.4L480 86.6L553.4 160L520.6 192.8C510.9 202.5 497.7 208 483.9 208C455.2 208 432 184.8 432 156.1C432 142.3 437.5 129.1 447.2 119.4zM43.6 446.3L193.8 271.1L368.9 446.2L193.7 596.4L43.6 446.3zM219.3 379.3L230.6 368L208 345.4L196.7 356.7L116.7 436.7L105.4 448L128 470.6L139.3 459.3L219.3 379.3zM283.3 443.3L294.6 432L272 409.4L260.7 420.7L180.7 500.7L169.4 512L192 534.6L203.3 523.3L283.3 443.3z"/></svg>