<svg xmlns="http://www.w3.org/2000/svg" viewBox="0 0 640 640"><!--! Font Awesome Pro 7.2.0 by @fontawesome - https://fontawesome.com License - https://fontawesome.com/license (Commercial License) Copyright 2026 Fonticons, Inc. --><path opacity=".4" fill="currentColor" d="M64 320L64 432L99.3 432C109.7 395.1 143.7 368 184 368C224.3 368 258.2 395.1 268.7 432L379.3 432C389.7 395.1 423.7 368 464 368C504.3 368 538.2 395.1 548.7 432L576 432L576 320L64 320z"/><path fill="currentColor" d="M48 128L32 128L32 464L96.4 464C100.4 508.9 138.1 544 184 544C229.9 544 267.6 508.9 271.6 464L376.3 464C380.3 508.9 418 544 463.9 544C509.8 544 547.5 508.9 551.5 464L607.9 464L607.9 282.5L604.5 278.2L492.5 134.2L487.7 128L47.9 128zM464 368C423.7 368 389.8 395.1 379.3 432L268.7 432C258.3 395.1 224.3 368 184 368C143.7 368 109.8 395.1 99.3 432L64 432L64 320L576 320L576 432L548.7 432C538.3 395.1 504.3 368 464 368zM64 288L64 160L192 160L192 288L64 288zM224 288L224 160L352 160L352 288L224 288zM384 288L384 160L472.2 160L571.8 288L384.1 288zM408 456C408 425.1 433.1 400 464 400C494.9 400 520 425.1 520 456C520 486.9 494.9 512 464 512C433.1 512 408 486.9 408 456zM184 400C214.9 400 240 425.1 240 456C240 486.9 214.9 512 184 512C153.1 512 128 486.9 128 456C128 425.1 153.1 400 184 400z"/></svg>