<svg xmlns="http://www.w3.org/2000/svg" viewBox="0 0 640 640"><!--! Font Awesome Pro 7.2.0 by @fontawesome - https://fontawesome.com License - https://fontawesome.com/license (Commercial License) Copyright 2026 Fonticons, Inc. --><path opacity=".4" fill="currentColor" d="M311.8 289.1C314.4 288.4 317.2 288 320 288C337.7 288 352 302.3 352 320C352 322.8 351.6 325.6 350.9 328.2L311.8 289.1z"/><path fill="currentColor" d="M67.5 44.8L56.2 33.5L33.6 56.1L44.9 67.4L572.7 595.2L584 606.5L606.6 583.9L595.3 572.6L534.7 512C580.3 461 608 393.8 608 320C608 240.5 575.8 168.5 523.7 116.4L499.2 137.1C546.6 183.6 576 248.3 576 320C576 384.9 551.8 444.2 512 489.3L455.3 432.6C480.7 402.1 496 362.8 496 320C496 268 473.4 221.2 437.6 189L412.8 209.9C444.1 236.3 464 275.8 464 320C464 354 452.2 385.2 432.6 409.8L375.2 352.4C380.8 342.9 384 331.8 384 319.9C384 284.6 355.3 255.9 320 255.9C308.2 255.9 297.1 259.1 287.5 264.7L67.5 44.7zM311.8 289.1C314.4 288.4 317.2 288 320 288C337.7 288 352 302.3 352 320C352 322.8 351.6 325.6 350.9 328.2L311.8 289.1zM32 320C32 399.5 64.2 471.5 116.3 523.6L140.9 502.9C93.4 456.4 64 391.6 64 320C64 272.5 76.9 228.1 99.4 190L76.2 166.7C48.2 211.1 32 263.6 32 320zM144 320C144 372 166.6 418.8 202.4 451L227.2 430.1C195.9 403.7 176 364.2 176 320C176 303.9 178.6 288.5 183.5 274L158.8 249.3C149.3 270.9 144 294.8 144 320z"/></svg>