<svg xmlns="http://www.w3.org/2000/svg" viewBox="0 0 640 640"><!--! Font Awesome Pro 7.2.0 by @fontawesome - https://fontawesome.com License - https://fontawesome.com/license (Commercial License) Copyright 2026 Fonticons, Inc. --><path opacity=".4" fill="currentColor" d="M96 160L96 480L544 480L544 160L96 160z"/><path fill="currentColor" d="M128 80L128 128L64 128L64 512L128 512L128 576L160 576L160 512L480 512L480 576L512 576L512 512L576 512L576 128L512 128L512 80L480 80L480 128L160 128L160 80L128 80zM544 160L544 480L96 480L96 160L544 160z"/></svg>