<svg xmlns="http://www.w3.org/2000/svg" viewBox="0 0 640 640"><!--! Font Awesome Pro 7.2.0 by @fontawesome - https://fontawesome.com License - https://fontawesome.com/license (Commercial License) Copyright 2026 Fonticons, Inc. --><path opacity=".4" fill="currentColor" d="M64 160L512 160L512 240C414.8 240 336 318.8 336 416C336 438.6 340.3 460.2 348 480L64 480L64 160z"/><path fill="currentColor" d="M96 80L96 128L32 128L32 512L96 512L96 576L128 576L128 512L364.5 512C358 502 352.4 491.3 348 480L64 480L64 160L512 160L512 240C522.9 240 533.6 241 544 242.9L544 128L480 128L480 80L448 80L448 128L128 128L128 80L96 80zM454.3 304L449.9 304L446.1 306.3C409 328.7 384.1 369.4 384.1 416C384.1 463.4 409.9 504.8 448.1 526.9L448.1 608L480.1 608L480.1 507.1L471 502.8C438.5 487.4 416.1 454.3 416.1 416C416.1 387.6 428.4 362 448.1 344.4L448.1 408.5L455.2 413.2L503.2 445.2L512.1 451.1L521 445.2L569 413.2L576.1 408.5L576.1 344.4C595.8 362 608.1 387.5 608.1 416C608.1 454.3 585.7 487.3 553.2 502.8L544.1 507.1L544.1 608L576.1 608L576.1 526.9C614.3 504.8 640.1 463.4 640.1 416C640.1 369.4 615.2 328.7 578.1 306.3L574.3 304L544.1 304L544.1 391.4L512.1 412.7L480.1 391.4L480.1 304L454.4 304z"/></svg>