<svg xmlns="http://www.w3.org/2000/svg" viewBox="0 0 640 640"><!--! Font Awesome Pro 7.2.0 by @fontawesome - https://fontawesome.com License - https://fontawesome.com/license (Commercial License) Copyright 2026 Fonticons, Inc. --><path opacity=".4" fill="currentColor" d="M32 160L32 254.1L34.1 253.1C69.9 235.2 93.3 199.6 95.8 160L32 160zM128.2 512L172.6 512L304 453.6L304 381.3L134.7 430.7C131 457.4 128.8 484.5 128.2 512zM140.5 395.7L304.1 348L304.1 275.5L164.2 303.5C154.4 333.8 146.4 364.5 140.5 395.7zM176.5 268.4L304.1 242.9L304.1 160L225.7 160C206.8 195.7 190.3 231.8 176.5 268.4zM336 160L336 242.9L463.6 268.4C449.8 231.8 433.4 195.7 414.4 160L336 160zM336 275.5L336 348L499.6 395.7C493.7 364.5 485.7 333.8 475.9 303.5L336 275.5zM336 381.3L336 453.6L467.4 512L511.8 512C511.2 484.5 509 457.4 505.3 430.7L336 381.3zM544.2 160C546.7 199.6 570.1 235.2 605.9 253.1L608 254.1L608 160L544.2 160z"/><path fill="currentColor" d="M336 80L336 64L304 64L304 128L206.5 128L202 136.4C135.4 259.3 96 387.8 96 528L96 544L179.4 544L182.5 542.6L304 488.6L304 576L336 576L336 488.6L457.5 542.6L460.6 544L544 544L544 528C544 387.8 504.6 259.3 438.1 136.4L433.6 128L336.1 128L336.1 80zM304 160L304 242.9L176.4 268.4C190.2 231.8 206.6 195.7 225.6 160L304 160zM164.1 303.5L304 275.5L304 348L140.4 395.7C146.3 364.5 154.3 333.8 164.1 303.5zM134.7 430.7L304 381.3L304 453.6L172.6 512L128.2 512C128.8 484.5 131 457.4 134.7 430.7zM336 453.6L336 381.3L505.3 430.7C509 457.4 511.2 484.5 511.8 512L467.4 512L336 453.6zM499.6 395.7L336 348L336 275.5L475.9 303.5C485.7 333.8 493.7 364.5 499.6 395.7zM463.6 268.4L336 242.9L336 160L414.4 160C433.3 195.7 449.8 231.8 463.6 268.4zM0 128L0 576L32 576L32 289.9L48.4 281.7C97.2 257.3 128 207.4 128 152.9L128 128L0 128zM32 254.1L32 160L95.8 160C93.3 199.6 69.9 235.2 34.1 253.1L32 254.1zM624 128L512 128L512 152.9C512 207.4 542.8 257.3 591.6 281.7L608 289.9L608 576L640 576L640 128L624 128zM608 160L608 254.1L605.9 253.1C570.1 235.2 546.7 199.6 544.2 160L608 160z"/></svg>