<svg xmlns="http://www.w3.org/2000/svg" viewBox="0 0 640 640"><!--! Font Awesome Pro 7.2.0 by @fontawesome - https://fontawesome.com License - https://fontawesome.com/license (Commercial License) Copyright 2026 Fonticons, Inc. --><path opacity=".4" fill="currentColor" d="M32 224L32 384L604.9 384C595.4 344.2 564.7 312.2 524.4 301.6L514.4 299.5L442.7 287.6L439.5 287.1L399.9 326.7L377.3 304.1L410.6 270.7L359.4 239.2L303.9 294.7L281.3 272.1L331.4 222L230.9 160.1L224 160.1L224 218.1C224 241.2 214.9 262.2 200 277.7L200 280.1L197.6 280.1C182.1 295 161.1 304.1 138 304.1C113.5 304.1 90.2 293.7 74 275.5L70.8 271.8L32.6 224.1L32 224.1z"/><path fill="currentColor" d="M448 256L519.7 267.9C589.1 279.5 640 339.6 640 410L640 512L0 512L0 192L48 192L95.8 251.7C106.1 264.5 121.6 272 138 272C166 272 189 250.7 191.8 223.5L192.1 218L192.1 128L240.1 128L448.1 256zM32 416L32 480L608 480L608 416L32 416zM224 218C224 265.5 185.5 304 138 304C113.5 304 90.2 293.6 74 275.4L70.8 271.7L32.6 224L32 224L32 384L604.9 384C595.4 344.2 564.7 312.2 524.4 301.6L514.4 299.5L442.7 287.6L439.5 287.1L399.9 326.7L377.3 304.1L410.6 270.7L359.4 239.2L303.9 294.7L281.3 272.1L331.4 222L230.9 160.1L224 160.1L224 218.1z"/></svg>