<svg xmlns="http://www.w3.org/2000/svg" viewBox="0 0 640 640"><!--! Font Awesome Pro 7.2.0 by @fontawesome - https://fontawesome.com License - https://fontawesome.com/license (Commercial License) Copyright 2026 Fonticons, Inc. --><path opacity=".4" fill="currentColor" d=""/><path fill="currentColor" d="M496.5 48L496.5 96L544.5 96L544.5 128L496.5 128L496.5 176L464.5 176L464.5 128L416.5 128L416.5 96L464.5 96L464.5 48L496.5 48zM240.5 128L240.5 217.4C255.9 202 266.5 191.4 272.5 185.4L295.1 208C292.9 210.2 274.7 228.4 240.5 262.6L240.5 324.3L293.9 293.5C306.4 246.8 313.1 221.9 313.9 218.9L344.8 227.2C342.6 235.4 338.7 249.9 333.1 270.9C383.8 241.7 409.5 226.8 410.5 226.2L426.5 253.9C425.5 254.5 399.7 269.4 349.1 298.6C370.1 304.2 384.6 308.1 392.8 310.3L384.5 341.2C381.5 340.4 356.6 333.7 309.9 321.2L256.5 352L309.9 382.8C356.6 370.3 381.5 363.6 384.5 362.8L392.8 393.7C384.6 395.9 370.1 399.8 349.1 405.4C399.8 434.6 425.5 449.5 426.5 450.1L410.5 477.8C409.5 477.2 383.7 462.3 333.1 433.1C338.7 454.1 342.6 468.6 344.8 476.8L313.9 485.1C313.1 482.1 306.4 457.2 293.9 410.5L240.5 379.7L240.5 441.4C274.7 475.6 292.9 493.8 295.1 496L272.5 518.6C266.5 512.6 255.9 502 240.5 486.6L240.5 576L208.5 576L208.5 486.6C193.1 502 182.5 512.6 176.5 518.6L153.9 496C156.1 493.8 174.3 475.6 208.5 441.4L208.5 379.7L155.1 410.5C142.6 457.2 135.9 482.1 135.1 485.1L104.2 476.8C106.4 468.6 110.3 454.1 115.9 433.1C65.3 462.3 39.5 477.2 38.5 477.8L22.5 450.1C23.5 449.5 49.3 434.6 99.9 405.4C78.9 399.8 64.4 395.9 56.2 393.7L64.5 362.8C67.5 363.6 92.4 370.3 139.1 382.8L192.5 352L139.1 321.2C92.4 333.7 67.5 340.4 64.5 341.2L56.2 310.3C64.4 308.1 78.9 304.2 99.9 298.6C49.3 269.4 23.5 254.5 22.5 253.9L38.5 226.2C39.5 226.8 65.3 241.7 115.9 270.9C110.3 249.9 106.4 235.3 104.2 227.2L135.1 218.9C135.9 221.9 142.6 246.8 155.1 293.5L208.5 324.3L208.5 262.6C174.3 228.4 156.1 210.2 153.9 208L176.5 185.4C182.5 191.4 193.1 202 208.5 217.4L208.5 128L240.5 128zM576.5 224L576.5 256L624.5 256L624.5 288L576.5 288L576.5 336L544.5 336L544.5 288L496.5 288L496.5 256L544.5 256L544.5 208L576.5 208L576.5 224z"/></svg>