<svg xmlns="http://www.w3.org/2000/svg" viewBox="0 0 640 640"><!--! Font Awesome Pro 7.2.0 by @fontawesome - https://fontawesome.com License - https://fontawesome.com/license (Commercial License) Copyright 2026 Fonticons, Inc. --><path opacity=".4" fill="currentColor" d="M384 128L384 224L480 224L480 128L384 128zM384 352L384 512L544 512L544 352L384 352z"/><path fill="currentColor" d="M203.3 100.7L192 89.4L180.7 100.7L73.4 208L96 230.6L107.3 219.3L176 150.6L176 544L208 544L208 150.6L276.7 219.3L288 230.6L310.6 208L203.3 100.7zM384 256L512 256L512 96L352 96L352 256L384 256zM480 224L384 224L384 128L480 128L480 224zM384 544L576 544L576 320L352 320L352 544L384 544zM544 512L384 512L384 352L544 352L544 512z"/></svg>