<svg xmlns="http://www.w3.org/2000/svg" viewBox="0 0 640 640"><!--! Font Awesome Pro 7.2.0 by @fontawesome - https://fontawesome.com License - https://fontawesome.com/license (Commercial License) Copyright 2026 Fonticons, Inc. --><path opacity=".4" fill="currentColor" d=""/><path fill="currentColor" d="M520.1 96L536.1 96L536.1 118.1L532 122.7L412 256L536.1 256L536.1 288L360.1 288L360.1 265.9L364.2 261.3L484.2 128L360.1 128L360.1 96L520.1 96zM437.9 352L458.4 352L462.7 361.3L546.7 544L511.5 544L496.8 512L399.5 512L384.8 544L349.6 544L433.6 361.3L437.9 352zM482 480L448.1 406.3L414.2 480L482 480zM203.4 539.3L192.1 550.6L180.8 539.3L84.8 443.3L73.5 432L96.1 409.4L107.4 420.7L176.1 489.4L176.1 96L208.1 96L208.1 489.4L276.8 420.7L288.1 409.4L310.7 432L299.4 443.3L203.4 539.3z"/></svg>