<svg xmlns="http://www.w3.org/2000/svg" viewBox="0 0 640 640"><!--! Font Awesome Pro 7.2.0 by @fontawesome - https://fontawesome.com License - https://fontawesome.com/license (Commercial License) Copyright 2026 Fonticons, Inc. --><path opacity=".4" fill="currentColor" d="M240.3 384L240.3 400C240.3 444.2 276.1 480 320.3 480L328.5 479.6C368.8 475.5 400.3 441.4 400.3 400L400.3 384C400.3 356.8 386.7 332.8 365.8 318.3L353.4 309.7L361.2 296.8C365.7 289.5 368.3 281 368.3 272L368.3 240L368.1 235.1C365.8 212.5 347.8 194.6 325.3 192.3L320.4 192.1C293.9 192.1 272.4 213.6 272.4 240.1L272.4 272.1C272.4 281.2 275 289.6 279.4 296.9L287.2 309.8L274.8 318.4C254 332.9 240.4 356.9 240.4 384.1zM280.3 352L360.3 352L336.3 392L360.3 432L280.3 432L304.3 392L280.3 352z"/><path fill="currentColor" d="M447.2 42.2L503.2 186.2L506.8 195.5L500 202.8L413.8 295.6L523.8 266.7C540.7 216.1 549.4 189.8 550.1 187.7L580.5 197.8L551.4 285L548.6 293.2L540.2 295.4L447 319.9L540.2 344.5L548.6 346.7L551.4 354.9L580.5 442.1L550.1 452.2C549.4 450.2 540.6 423.8 523.8 373.2L431.5 348.9L505.8 453L503.6 460.5L463.6 596.5L459.1 611.9L428.4 602.9L432.9 587.6L470.7 459.1L432.1 405C429.6 462.6 383.5 509 326 511.9L320.2 512.1C260 512.1 210.9 464.6 208.3 405.1L169.7 459.1L207.5 587.6L212 602.9L181.3 611.9L176.8 596.5L136.8 460.5L134.6 453L208.9 348.9L116.6 373.2C99.7 423.8 91 450.1 90.3 452.2L59.9 442.1L89 354.9L91.7 346.7L100.1 344.5L193.3 319.9L100.1 295.4L91.7 293.2L89 285L59.9 197.8L90.3 187.7C91 189.7 99.8 216.1 116.6 266.7L226.6 295.6L140.4 202.8L133.6 195.5L137.2 186.2L193.2 42.2L199 27.3L228.8 38.9L223 53.8L170.6 188.5L240.1 263.3L240.1 240C240.1 195.8 275.9 160 320.1 160L328.3 160.4C368.6 164.5 400.1 198.6 400.1 240L400.1 263.2L469.6 188.4L417.2 53.7L411.4 38.8L441.2 27.2L447 42.1zM320.3 192C293.8 192 272.3 213.5 272.3 240L272.3 272C272.3 281.1 274.9 289.5 279.3 296.8L287.1 309.7L274.7 318.3C253.9 332.8 240.3 356.8 240.3 384L240.3 400C240.3 444.2 276.1 480 320.3 480L328.5 479.6C368.8 475.5 400.3 441.4 400.3 400L400.3 384C400.3 356.8 386.7 332.8 365.8 318.3L353.4 309.7L361.2 296.8C365.7 289.5 368.3 281 368.3 272L368.3 240L368.1 235.1C365.8 212.5 347.8 194.6 325.3 192.3L320.4 192.1zM336.3 392L360.3 432L280.3 432L304.3 392L280.3 352L360.3 352L336.3 392z"/></svg>