<svg xmlns="http://www.w3.org/2000/svg" viewBox="0 0 640 640"><!--! Font Awesome Pro 7.2.0 by @fontawesome - https://fontawesome.com License - https://fontawesome.com/license (Commercial License) Copyright 2026 Fonticons, Inc. --><path opacity=".4" fill="currentColor" d="M128 128L128 512L512 512L512 128L128 128zM192.8 320C192.8 254.5 242 200.5 305.5 192.9C310.8 177.1 314.9 164.7 317.9 155.8L348.3 165.9C344.8 176.5 341.7 185.6 339.2 193.3C348.9 194.7 358.2 197.2 367 200.6C374.4 178.4 379.4 163.5 381.9 155.8L412.3 165.9C410 172.7 404.5 189.4 395.6 216.1C406.1 223.7 415.5 232.8 423.3 243.2L397.7 262.4C393.9 257.3 389.6 252.6 384.8 248.4L329 415.7C357 413.3 381.6 398.9 397.6 377.6L423.2 396.8C399.9 427.8 362.7 448 320.8 448C319.9 448 319.1 448 318.2 448C313.2 463 309.2 475.1 306.1 484.3L275.7 474.2C279 464.2 282.5 453.9 286 443.3C276.6 440.7 267.7 437 259.4 432.4C250 460.5 244.3 477.8 242.1 484.3L211.7 474.2C213.3 469.3 220.2 448.7 232.2 412.6C207.9 389.3 192.7 356.5 192.7 320.1zM224.8 320C224.8 341.6 231.9 361.5 244 377.5L293.9 227.8C254 239.4 224.8 276.3 224.8 320zM269.8 401.3C277.9 406.4 286.8 410.3 296.2 412.8L356.8 231C348 227.4 338.6 225.2 328.7 224.3L269.7 401.3z"/><path fill="currentColor" d="M128 128L128 512L512 512L512 128L128 128zM96 96L544 96L544 544L96 544L96 96zM343.2 181.1L339.1 193.3C348.8 194.7 358.1 197.2 366.9 200.6C374.3 178.4 379.3 163.5 381.8 155.8L412.2 165.9C409.9 172.7 404.4 189.4 395.5 216.1C406 223.7 415.4 232.8 423.2 243.2L397.6 262.4C393.8 257.3 389.5 252.6 384.7 248.4L329 415.7C357 413.3 381.6 398.9 397.6 377.6L423.2 396.8C399.9 427.8 362.7 448 320.8 448C319.9 448 319.1 448 318.2 448C313.2 463 309.2 475.1 306.1 484.3L275.7 474.2C279 464.2 282.5 453.9 286 443.3C276.6 440.7 267.7 437 259.4 432.4C250 460.5 244.3 477.8 242.1 484.3L211.7 474.2C213.3 469.3 220.2 448.7 232.2 412.6C207.9 389.3 192.7 356.5 192.7 320.1C192.7 254.6 241.9 200.6 305.4 193C310.7 177.2 314.8 164.8 317.8 155.9L348.2 166L343.1 181.2zM356.8 231C348 227.4 338.6 225.2 328.7 224.3L269.7 401.3C277.8 406.4 286.7 410.3 296.1 412.8L356.8 231zM293.8 227.9C253.9 239.5 224.7 276.4 224.7 320.1C224.7 341.7 231.8 361.6 243.9 377.6L293.8 227.9z"/></svg>