<svg xmlns="http://www.w3.org/2000/svg" viewBox="0 0 640 640"><!--! Font Awesome Pro 7.2.0 by @fontawesome - https://fontawesome.com License - https://fontawesome.com/license (Commercial License) Copyright 2026 Fonticons, Inc. --><path opacity=".4" fill="currentColor" d="M128 128L512 128L512 512L128 512L128 128zM217.4 320L228.7 331.3L300.7 403.3L312 414.6L334.6 392C332.6 390 314 371.3 278.6 336L416 336L416 304L278.6 304C314 268.6 332.6 250 334.6 248L312 225.4L300.7 236.7L228.7 308.7L217.4 320z"/><path fill="currentColor" d="M128 128L128 512L512 512L512 128L128 128zM96 96L544 96L544 544L96 544L96 96zM228.7 308.7L300.7 236.7L312 225.4L334.6 248C332.6 250 314 268.6 278.6 304L416 304L416 336L278.6 336C313.9 371.3 332.6 390 334.6 392L312 414.6L300.7 403.3L228.7 331.3L217.4 320L228.7 308.7z"/></svg>