<svg xmlns="http://www.w3.org/2000/svg" viewBox="0 0 640 640"><!--! Font Awesome Pro 7.2.0 by @fontawesome - https://fontawesome.com License - https://fontawesome.com/license (Commercial License) Copyright 2026 Fonticons, Inc. --><path opacity=".4" fill="currentColor" d="M128 128L512 128L512 512L128 512L128 128zM208 192L208 224L432 224L432 192L208 192zM208 256L208 288L304 288L304 448L336 448L336 288L432 288L432 256L208 256z"/><path fill="currentColor" d="M128 128L128 512L512 512L512 128L128 128zM96 96L544 96L544 544L96 544L96 96zM432 192L432 224L208 224L208 192L432 192zM432 256L432 288L336 288L336 448L304 448L304 288L208 288L208 256L432 256z"/></svg>