<svg xmlns="http://www.w3.org/2000/svg" viewBox="0 0 640 640"><!--! Font Awesome Pro 7.2.0 by @fontawesome - https://fontawesome.com License - https://fontawesome.com/license (Commercial License) Copyright 2026 Fonticons, Inc. --><path opacity=".4" fill="currentColor" d="M128 128L512 128L512 512L128 512L128 128zM208 272L208 304L240 304L240 448L272 448L272 384L320 384C367.6 384 407 349.4 414.7 304L448 304L448 272L414.7 272C407.1 226.6 367.6 192 320 192L240 192L240 272L208 272zM272 224L320 224C349.8 224 374.9 244.4 382 272L272 272L272 224zM272 304L382 304C374.9 331.6 349.8 352 320 352L272 352L272 304z"/><path fill="currentColor" d="M128 128L128 512L512 512L512 128L128 128zM96 96L544 96L544 544L96 544L96 96zM240 192L320 192C367.6 192 407.1 226.6 414.7 272L448 272L448 304L414.7 304C407.1 349.4 367.6 384 320 384L272 384L272 448L240 448L240 304L208 304L208 272L240 272L240 192zM320 224L272 224L272 272L382 272C374.9 244.4 349.8 224 320 224zM272 352L320 352C349.8 352 374.9 331.6 382 304L272 304L272 352z"/></svg>