<svg xmlns="http://www.w3.org/2000/svg" viewBox="0 0 640 640"><!--! Font Awesome Pro 7.2.0 by @fontawesome - https://fontawesome.com License - https://fontawesome.com/license (Commercial License) Copyright 2026 Fonticons, Inc. --><path opacity=".4" fill="currentColor" d="M128 128L512 128L512 512L128 512L128 128zM222.2 224L223.4 226.6L305.4 406.6L309.7 416L330.3 416L334.6 406.6L416.6 226.6L417.8 224L382.6 224L320 361.4L257.4 224L222.2 224z"/><path fill="currentColor" d="M128 128L128 512L512 512L512 128L128 128zM96 96L544 96L544 544L96 544L96 96zM223.4 226.6L222.2 224L257.4 224L320 361.4L382.6 224L417.8 224L416.6 226.6L334.6 406.6L330.3 416L309.7 416L305.4 406.6L223.4 226.6z"/></svg>