<svg xmlns="http://www.w3.org/2000/svg" viewBox="0 0 640 640"><!--! Font Awesome Pro 7.2.0 by @fontawesome - https://fontawesome.com License - https://fontawesome.com/license (Commercial License) Copyright 2026 Fonticons, Inc. --><path opacity=".4" fill="currentColor" d="M128 128L512 128L512 512L128 512L128 128zM224 224L224 384L256 384L256 278.6L388.7 411.3L400 422.6L422.6 400L411.3 388.7L278.6 256L384 256L384 224L224 224z"/><path fill="currentColor" d="M128 128L128 512L512 512L512 128L128 128zM96 96L544 96L544 544L96 544L96 96zM368 256L278.6 256L411.3 388.7L422.6 400L400 422.6L388.7 411.3L256 278.6L256 384L224 384L224 224L384 224L384 256L368 256z"/></svg>