<svg xmlns="http://www.w3.org/2000/svg" viewBox="0 0 640 640"><!--! Font Awesome Pro 7.2.0 by @fontawesome - https://fontawesome.com License - https://fontawesome.com/license (Commercial License) Copyright 2026 Fonticons, Inc. --><path opacity=".4" fill="currentColor" d="M128 128L128 512L512 512L512 128L128 128zM200 296L248 296L248 344L200 344L200 296zM296 296L344 296L344 344L296 344L296 296zM392 296L440 296L440 344L392 344L392 296z"/><path fill="currentColor" d="M512 128L128 128L128 512L512 512L512 128zM544 96L544 544L96 544L96 96L544 96zM248 296L248 344L200 344L200 296L248 296zM296 296L344 296L344 344L296 344L296 296zM440 296L440 344L392 344L392 296L440 296z"/></svg>