<svg xmlns="http://www.w3.org/2000/svg" viewBox="0 0 640 640"><!--! Font Awesome Pro 7.2.0 by @fontawesome - https://fontawesome.com License - https://fontawesome.com/license (Commercial License) Copyright 2026 Fonticons, Inc. --><path opacity=".4" fill="currentColor" d="M96.1 464L96.6 176L127.9 176L127.9 128L511.9 128L511.9 176L543.9 176L543.9 464L511.9 464L511.9 512L127.9 512L127.9 464L96 464zM144 224L144 416L176 416L176 291.8L233.7 407.2L238.1 416L272 416L272 224L240 224L240 348.2L182.3 232.8L177.9 224L144 224zM304 224L304 416L336 416L336 336L416 336L416 304L336 304L336 256L432 256L432 224L304 224zM456 224L456 416L488 416L488 224L456 224z"/><path fill="currentColor" d="M512 128L128 128L128 176L96 176L96 96L544 96L544 176L512 176L512 128zM96 464L128 464L128 512L512 512L512 464L544 464L544 544L96 544L96 464zM160 224L177.9 224L182.3 232.8L240 348.2L240 224L272 224L272 416L238.1 416L233.7 407.2L176 291.8L176 416L144 416L144 224L160 224zM304 224L432 224L432 256L336 256L336 304L416 304L416 336L336 336L336 416L304 416L304 224zM488 240L488 416L456 416L456 224L488 224L488 240z"/></svg>