<svg xmlns="http://www.w3.org/2000/svg" viewBox="0 0 640 640"><!--! Font Awesome Pro 7.2.0 by @fontawesome - https://fontawesome.com License - https://fontawesome.com/license (Commercial License) Copyright 2026 Fonticons, Inc. --><path opacity=".4" fill="currentColor" d="M128 128L512 128L512 512L128 512L128 128zM192 208L192 432L224 432L224 352L261.2 352C283.5 407.8 294.8 436.1 295.1 436.8L324.8 424.9C324.1 423.2 313.6 396.9 293.2 345.8C318.4 334.6 336 309.3 336 280C336 240.2 303.8 208 264 208L192 208zM224 240L264 240C286.1 240 304 257.9 304 280C304 302.1 286.1 320 264 320L224 320L224 240zM352 307.2C352 331.6 369.2 352.6 393.1 357.4L416.6 362.1C425.6 363.9 432 371.8 432 380.9C432 391.5 423.4 400.1 412.8 400.1L360 400.1L360 432.1L412.8 432.1C441.1 432.1 464 409.2 464 380.9C464 356.5 446.8 335.5 422.9 330.7L399.4 326C390.4 324.2 384 316.3 384 307.2C384 296.6 392.6 288 403.2 288L456 288L456 256L403.2 256C374.9 256 352 278.9 352 307.2z"/><path fill="currentColor" d="M128 128L128 512L512 512L512 128L128 128zM96 96L544 96L544 544L96 544L96 96zM208 208L264 208C303.8 208 336 240.2 336 280C336 309.4 318.4 334.7 293.2 345.8C313.6 396.8 324.2 423.2 324.8 424.9L295.1 436.8C294.8 436.1 283.5 407.8 261.2 352L224 352L224 432L192 432L192 208L208 208zM264 320C286.1 320 304 302.1 304 280C304 257.9 286.1 240 264 240L224 240L224 320L264 320zM352 307.2C352 278.9 374.9 256 403.2 256L456 256L456 288L403.2 288C392.6 288 384 296.6 384 307.2C384 316.3 390.4 324.2 399.4 326L422.9 330.7C446.8 335.5 464 356.5 464 380.9C464 409.2 441.1 432.1 412.8 432.1L360 432.1L360 400.1L412.8 400.1C423.4 400.1 432 391.5 432 380.9C432 371.8 425.6 363.9 416.6 362.1L393.1 357.4C369.2 352.6 352 331.6 352 307.2z"/></svg>