<svg xmlns="http://www.w3.org/2000/svg" viewBox="0 0 640 640"><!--! Font Awesome Pro 7.2.0 by @fontawesome - https://fontawesome.com License - https://fontawesome.com/license (Commercial License) Copyright 2026 Fonticons, Inc. --><path opacity=".4" fill="currentColor" d="M128 128L512 128L512 512L128 512L128 128zM217.3 320C217.3 376.7 263.3 422.7 320 422.7C343.1 422.7 364.3 415.1 381.5 402.3C393.2 414 402.1 422.9 408 428.8L428.7 408C422.7 402 413.9 393.2 402.2 381.5C415 364.4 422.6 343.1 422.6 320C422.6 263.3 376.6 217.3 319.9 217.3C263.2 217.3 217.3 263.3 217.3 320zM246.6 320C246.6 279.5 279.4 246.7 319.9 246.7C360.4 246.7 393.2 279.5 393.2 320C393.2 334.9 388.7 348.8 381 360.4C353.7 333.1 338.7 318.1 335.8 315.2L315.3 336C318.1 338.8 333.2 353.9 360.5 381.2C348.9 388.9 335 393.4 320.1 393.4C279.6 393.4 246.8 360.6 246.8 320.1z"/><path fill="currentColor" d="M128 128L128 512L512 512L512 128L128 128zM96 96L544 96L544 544L96 544L96 96zM246.7 320C246.7 360.5 279.5 393.3 320 393.3C334.9 393.3 348.8 388.8 360.4 381.1C333.1 353.8 318.1 338.8 315.2 335.9L336 315.3C338.8 318.1 353.9 333.2 381.2 360.5C388.9 348.9 393.4 335 393.4 320.1C393.4 279.6 360.6 246.8 320.1 246.8C279.6 246.8 246.8 279.6 246.8 320.1zM422.7 320C422.7 343.1 415.1 364.3 402.3 381.5C414 393.2 422.9 402.1 428.8 408L408 428.7C402 422.7 393.2 413.9 381.5 402.2C364.4 415 343.1 422.6 320 422.6C263.3 422.6 217.3 376.6 217.3 319.9C217.3 263.2 263.3 217.2 320 217.2C376.7 217.2 422.7 263.2 422.7 319.9z"/></svg>