<svg xmlns="http://www.w3.org/2000/svg" viewBox="0 0 640 640"><!--! Font Awesome Pro 7.2.0 by @fontawesome - https://fontawesome.com License - https://fontawesome.com/license (Commercial License) Copyright 2026 Fonticons, Inc. --><path opacity=".4" fill="currentColor" d="M128 128L512 128L512 512L128 512L128 128zM224 280L224 312L255.3 312L257.3 317.2C259.7 323.3 261.1 329.6 261.6 336L224 336L224 368L256.2 368C254.5 371.8 252.5 375.4 250.2 378.8L226.9 412.6L224.1 416.7L224.1 448L416.1 448L416.1 416L263.5 416L276.6 397C282.8 388 287.3 378.2 290.2 368L384.1 368L384.1 336L293.8 336C293.4 327.9 291.9 319.9 289.5 312L384.1 312L384.1 280L278.3 280C273.4 251.5 295.2 224 325.7 224L328.7 224C340.2 224 351.5 227.9 360.5 235.1L382.2 252.4L402.2 227.4L380.5 210.1C365.8 198.3 347.6 191.9 328.7 191.9L325.7 191.9C276.9 191.9 241.3 234.4 246 279.9L224 280z"/><path fill="currentColor" d="M128 128L128 512L512 512L512 128L128 128zM96 96L544 96L544 544L96 544L96 96zM245.9 280C241.2 234.5 276.8 192 325.6 192L328.6 192C347.4 192 365.7 198.4 380.4 210.2L402.1 227.5L382.1 252.5L360.4 235.2C351.4 228 340.2 224.1 328.6 224.1L325.6 224.1C295.2 224.1 273.3 251.6 278.2 280.1L384 280.1L384 312.1L289.4 312.1C291.8 320 293.3 328 293.7 336.1L384 336.1L384 368.1L290.1 368.1C287.2 378.3 282.7 388.1 276.5 397.1L263.4 416.1L416 416.1L416 448.1L224 448.1L224 416.8L226.8 412.7L250.1 378.9C252.5 375.5 254.5 371.8 256.1 368.1L223.9 368.1L223.9 336.1L261.5 336.1C261 329.7 259.6 323.4 257.2 317.3L255.2 312.1L223.9 312.1L223.9 280.1L245.8 280.1z"/></svg>