<svg xmlns="http://www.w3.org/2000/svg" viewBox="0 0 640 640"><!--! Font Awesome Pro 7.2.0 by @fontawesome - https://fontawesome.com License - https://fontawesome.com/license (Commercial License) Copyright 2026 Fonticons, Inc. --><path opacity=".4" fill="currentColor" d="M128 128L128 512L512 512L512 128L128 128zM184 279C184 248.6 208.6 224 239 224L304 224L304 256L239 256C226.3 256 216 266.3 216 279C216 290.2 224.1 299.8 235.2 301.7L266.1 306.8C292.6 311.2 312 334.2 312 361C312 391.4 287.4 416 257 416L192 416L192 384L257 384C269.7 384 280 373.7 280 361C280 349.8 271.9 340.2 260.8 338.3L229.9 333.2C203.4 328.8 184 305.9 184 279zM328 279C328 248.6 352.6 224 383 224L384 224L384 192L416 192L416 224L448 224L448 256L383 256C370.3 256 360 266.3 360 279C360 290.2 368.1 299.8 379.2 301.7L410.1 306.8C436.6 311.2 456 334.2 456 361C456 386.2 439.1 407.4 416 413.9L416 448L384 448L384 416L336 416L336 384L401 384C413.7 384 424 373.7 424 361C424 349.8 415.9 340.2 404.8 338.3L373.9 333.2C347.4 328.8 328 305.9 328 279z"/><path fill="currentColor" d="M512 128L512 512L128 512L128 128L512 128zM128 96L96 96L96 544L544 544L544 96L128 96zM184 279C184 305.9 203.4 328.8 229.9 333.2L260.8 338.3C271.9 340.1 280 349.7 280 361C280 373.7 269.7 384 257 384L192 384L192 416L257 416C287.4 416 312 391.4 312 361C312 334.1 292.6 311.2 266.1 306.8L235.2 301.7C224.1 299.9 216 290.3 216 279C216 266.3 226.3 256 239 256L304 256L304 224L239 224C208.6 224 184 248.6 184 279zM383 224C352.6 224 328 248.6 328 279C328 305.9 347.4 328.8 373.9 333.2L404.8 338.3C415.9 340.1 424 349.7 424 361C424 373.7 413.7 384 401 384L336 384L336 416L384 416L384 448L416 448L416 413.9C439.1 407.4 456 386.2 456 361C456 334.1 436.6 311.2 410.1 306.8L379.2 301.7C368.1 299.9 360 290.3 360 279C360 266.3 370.3 256 383 256L448 256L448 224L416 224L416 192L384 192L384 224L383 224z"/></svg>