<svg xmlns="http://www.w3.org/2000/svg" viewBox="0 0 640 640"><!--! Font Awesome Pro 7.2.0 by @fontawesome - https://fontawesome.com License - https://fontawesome.com/license (Commercial License) Copyright 2026 Fonticons, Inc. --><path opacity=".4" fill="currentColor" d="M128 128L512 128L512 512L128 512L128 128zM176 208L176 432L208 432L208 352L245.2 352C267.5 407.8 278.8 436.1 279.1 436.8L308.8 424.9C308.1 423.2 297.6 396.9 277.2 345.8C302.4 334.6 320 309.3 320 280C320 240.2 287.8 208 248 208L176 208zM208 240L248 240C270.1 240 288 257.9 288 280C288 302.1 270.1 320 248 320L208 320L208 240zM352 278.2C352 300.3 365.5 320.3 386 328.5L418 341.3C426.4 344.7 431.9 352.8 431.9 361.9C431.9 374.1 422 384.1 409.7 384.1L359.9 384.1L359.9 416.1L399.9 416.1L399.9 448.1L431.9 448.1L431.9 411.4C450.8 402.9 463.9 384 463.9 362C463.9 339.9 450.4 319.9 429.9 311.7L397.9 298.9C389.5 295.5 384 287.4 384 278.3C384 266.1 393.9 256.1 406.2 256.1L456 256.1L456 224.1L432 224.1L432 192.1L400 192.1L400 224.4C373 227.5 352 250.4 352 278.2z"/><path fill="currentColor" d="M128 128L128 512L512 512L512 128L128 128zM96 96L544 96L544 544L96 544L96 96zM432 192L432 224L456 224L456 256L406.2 256C394 256 384 265.9 384 278.2C384 287.3 389.5 295.4 397.9 298.8L429.9 311.6C450.5 319.8 463.9 339.7 463.9 361.9C463.9 383.9 450.8 402.9 431.9 411.3L431.9 448L399.9 448L399.9 416L359.9 416L359.9 384L409.7 384C421.9 384 431.9 374.1 431.9 361.8C431.9 352.7 426.4 344.6 418 341.2L386 328.4C365.4 320.2 352 300.3 352 278.1C352 250.3 373 227.3 400 224.3L400 192L432 192zM192 208L248 208C287.8 208 320 240.2 320 280C320 309.4 302.4 334.7 277.2 345.8C297.6 396.8 308.2 423.2 308.8 424.9L279.1 436.8C278.8 436.1 267.5 407.8 245.2 352L208 352L208 432L176 432L176 208L192 208zM248 320C270.1 320 288 302.1 288 280C288 257.9 270.1 240 248 240L208 240L208 320L248 320z"/></svg>