<svg xmlns="http://www.w3.org/2000/svg" viewBox="0 0 640 640"><!--! Font Awesome Pro 7.2.0 by @fontawesome - https://fontawesome.com License - https://fontawesome.com/license (Commercial License) Copyright 2026 Fonticons, Inc. --><path opacity=".4" fill="currentColor" d="M128 128L512 128L512 512L128 512L128 128zM224 352L224 384L256 384L256 448L288 448L288 384L352 384L352 352L288 352L288 320L376 320L376 288L288 288L288 224L408 224L408 192L256 192L256 352L224 352z"/><path fill="currentColor" d="M128 128L128 512L512 512L512 128L128 128zM96 96L544 96L544 544L96 544L96 96zM256 192L408 192L408 224L288 224L288 288L376 288L376 320L288 320L288 352L352 352L352 384L288 384L288 448L256 448L256 384L224 384L224 352L256 352L256 192z"/></svg>