<svg xmlns="http://www.w3.org/2000/svg" viewBox="0 0 640 640"><!--! Font Awesome Pro 7.2.0 by @fontawesome - https://fontawesome.com License - https://fontawesome.com/license (Commercial License) Copyright 2026 Fonticons, Inc. --><path opacity=".4" fill="currentColor" d="M113.4 504L136 526.6L147.3 515.3L306.5 356.1L312.4 350.2L320.4 347.9L416.4 320.5L429.3 316.8C434.9 320 447 326.8 465.7 337.3C476.6 318 483.5 305.7 486.5 300.5C491.4 299.1 506.8 294.7 532.6 287.3L544.2 284L544.2 95.9L390.3 95.9C389.3 97.9 382.5 111.6 369.9 136.7L362.7 151L391.3 165.3C402.3 143.1 402 143.9 409.9 128L512 128L512 259.9L488.8 266.5L299.6 320.6L295.6 321.7L292.7 324.6L242.8 374.5L233.4 383.9L192 383.9L192 425.3L182.6 434.7L124.7 492.6L113.4 503.9z"/><path fill="currentColor" d="M507.7 327.7C529.8 321.4 552.5 314.9 576 308.2L576 64L370.3 64C361.9 80.8 352.2 100.3 341 122.5C337.4 129.7 330.3 144 319.5 165.4C362.4 186.9 391.1 201.2 405.4 208.3C430 159.1 427.3 164.5 429.6 159.9L479.9 159.9L479.9 235.7L290.7 289.8L278.7 293.2L269.9 302L220 351.9L159.9 351.9L159.9 412L102 469.9C96.3 475.6 85 486.9 68.1 503.8C102 537.7 124.7 560.4 136 571.7C149.1 558.6 196.5 511.2 329.1 378.6L425.1 351.2C441 360.2 458.6 370.1 477.7 380.9C488.4 361.9 498.4 344.2 507.8 327.6zM465.5 337.4C446.9 326.9 434.7 320 429.1 316.9L416.2 320.6L320.2 348L312.2 350.3L306.3 356.2L147.1 515.4L135.8 526.7L113.2 504.1L124.5 492.8L182.4 434.9L191.8 425.5L191.8 384.1L233.2 384.1L242.6 374.7L292.5 324.8L295.4 321.9L299.4 320.8L488.6 266.7L511.8 260.1L511.8 128.2L409.7 128.2C395.1 157.3 398.1 151.5 391 165.7L362.5 151.2C365.8 144.6 373.5 129.2 385.7 104.9L390.1 96.1L544 96.1L544 284.2C539.9 285.4 524.9 289.7 499 297.1L486.4 300.7C483.4 306 476.5 318.3 465.6 337.5z"/></svg>