<svg xmlns="http://www.w3.org/2000/svg" viewBox="0 0 640 640"><!--! Font Awesome Pro 7.2.0 by @fontawesome - https://fontawesome.com License - https://fontawesome.com/license (Commercial License) Copyright 2026 Fonticons, Inc. --><path opacity=".4" fill="currentColor" d="M91.7 255L128.6 270.8L179.6 252.2L197.3 128L131.5 128L91.7 255zM128.1 416L128.1 512L512.1 512L512.1 416L128.1 416zM211.7 253.7L255.8 270.9L303.7 252.9L303.7 128L229.6 128L211.7 253.7zM336.1 128L336.1 252.9L384 270.9L428.1 253.7L410.2 128L336.1 128zM442.5 128L460.2 252.2L511.6 270.8L548.1 255L508.3 128L442.5 128z"/><path fill="currentColor" d="M520.1 96L531.9 96L535.4 107.2L583 259.2L587.3 273C581.3 275.6 566.9 281.8 544.1 291.6L544.1 544L96.1 544L96.1 291.7C73.1 281.8 58.5 275.6 52.5 273L56.8 259.2L104.4 107.2L107.9 96L520.1 96zM128.1 305L128.1 384L512.1 384L512.1 305L506.7 303L446 281L390 302.8L384.3 305L378.6 302.9L320 280.9L261.4 302.9L255.7 305L250 302.8L194 281L133.7 302.9L128.2 304.9zM384 270.9L428.1 253.7L410.2 128L336.1 128L336.1 252.9L384 270.9zM508.3 128L442.5 128L460.2 252.2L511.6 270.8L548.1 255L508.3 128zM255.8 270.9L303.7 252.9L303.7 128L229.6 128L211.7 253.7L255.8 270.9zM179.6 252.3L197.3 128.1L131.5 128.1L91.7 255.1L128.6 270.9L179.6 252.3zM128.1 512L512.1 512L512.1 416L128.1 416L128.1 512z"/></svg>