<svg xmlns="http://www.w3.org/2000/svg" viewBox="0 0 640 640"><!--! Font Awesome Pro 7.2.0 by @fontawesome - https://fontawesome.com License - https://fontawesome.com/license (Commercial License) Copyright 2026 Fonticons, Inc. --><path opacity=".4" fill="currentColor" d=""/><path fill="currentColor" d="M160 104L160 88L128 88L128 544L160 544L160 407.5L202.7 371.9L323.1 537.4L332.5 550.3L358.4 531.5L349 518.6L227.4 351.4L346.3 252.3L358.6 242.1L338.1 217.5L325.8 227.7L160 365.8L160 104zM528 256L560 256L560 224L528 224C497.7 224 468.9 236.3 448 257.6L448 224L416 224L416 544L448 544L448 336C448 318.7 453.6 301.8 464 288C479.1 267.9 502.8 256 528 256z"/></svg>