<svg xmlns="http://www.w3.org/2000/svg" viewBox="0 0 640 640"><!--! Font Awesome Pro 7.2.0 by @fontawesome - https://fontawesome.com License - https://fontawesome.com/license (Commercial License) Copyright 2026 Fonticons, Inc. --><path opacity=".4" fill="currentColor" d="M54.3 225.6L114.7 298.1C153.6 268.9 179.4 249.5 192.1 240L192.1 544L448.1 544L448.1 240C460.8 249.5 486.6 268.9 525.5 298.1L586 225.6L442 96L414.8 96C407.2 141.4 367.7 176 320.1 176C272.5 176 233 141.4 225.4 96L198.2 96L54.2 225.6z"/><path fill="currentColor" d="M192.2 64L186.1 64L181.5 68.1L21.5 212.1L10.1 222.4L20 234.2L100 330.2L109.7 341.9C113.4 339.1 130.3 326.5 160.3 304L160.3 576L480.3 576L480.3 304C510.3 326.5 527.1 339.1 530.9 341.9L540.6 330.2L620.6 234.2L630.5 222.4L619.1 212.1L459.1 68.1L454.5 64L192.4 64zM224.2 96L225.5 96C233.1 141.4 272.6 176 320.2 176C367.8 176 407.3 141.4 414.9 96L442.1 96L586.1 225.6L525.7 298.1C486.8 268.9 461 249.5 448.3 240L448.3 544L192.3 544L192.3 240C179.6 249.5 153.8 268.9 114.9 298.1L54.5 225.6L198.5 96L224.4 96zM258.2 96L382.2 96C375.1 123.6 350 144 320.2 144C290.4 144 265.3 123.6 258.2 96z"/></svg>