<svg xmlns="http://www.w3.org/2000/svg" viewBox="0 0 640 640"><!--! Font Awesome Pro 7.2.0 by @fontawesome - https://fontawesome.com License - https://fontawesome.com/license (Commercial License) Copyright 2026 Fonticons, Inc. --><path opacity=".4" fill="currentColor" d="M128 128L512 128L512 304L448 304L448 336L512 336L512 512L128 512L128 336L192 336L192 304L128 304L128 128zM225.4 328L320 422.6L414.6 328L392 305.4L336 361.4L336 224L304 224L304 361.4L248 305.4L225.4 328z"/><path fill="currentColor" d="M96 544L96 96L544 96L544 544L96 544zM128 128L128 304L192 304L192 336L128 336L128 512L512 512L512 336L448 336L448 304L512 304L512 128L128 128zM320 422.6L225.4 328L248 305.4L304 361.4L304 224L336 224L336 361.4L392 305.4L414.6 328L320 422.6z"/></svg>