<svg xmlns="http://www.w3.org/2000/svg" viewBox="0 0 640 640"><!--! Font Awesome Pro 7.2.0 by @fontawesome - https://fontawesome.com License - https://fontawesome.com/license (Commercial License) Copyright 2026 Fonticons, Inc. --><path opacity=".4" fill="currentColor" d="M128 128L128 304L192 304L192 336L128 336L128 512L512 512L512 336L448 336L448 304L512 304L512 128L128 128zM225.4 312L320 217.4L414.6 312L392 334.6L336 278.6L336 416L304 416L304 278.6L248 334.6L225.4 312z"/><path fill="currentColor" d="M96 96L96 544L544 544L544 96L96 96zM128 512L128 336L192 336L192 304L128 304L128 128L512 128L512 304L448 304L448 336L512 336L512 512L128 512zM320 217.4L225.4 312L248 334.6L304 278.6L304 416L336 416L336 278.6L392 334.6L414.6 312L320 217.4z"/></svg>