<svg xmlns="http://www.w3.org/2000/svg" viewBox="0 0 640 640"><!--! Font Awesome Pro 7.2.0 by @fontawesome - https://fontawesome.com License - https://fontawesome.com/license (Commercial License) Copyright 2026 Fonticons, Inc. --><path opacity=".4" fill="currentColor" d="M240.1 96L240.1 217.3L304.1 281.3L304.1 160L336.1 160L336.1 313.3L429.1 406.3C424.8 388 416.1 371.5 404.1 357.9L400.1 353.4L400.1 96L240.1 96z"/><path fill="currentColor" d="M67.6 44.8L56.3 33.5L33.7 56.1L45 67.4L572.8 595.2L584.1 606.5L606.8 583.9L595.4 572.6L463.8 441C464 438 464.1 435 464.1 432C464.1 397.7 452.1 366.2 432.1 341.5L432.1 64L208.1 64L208.1 185.3L67.6 44.8zM240.1 217.3L240.1 96L400.1 96L400.1 353.4L404.1 357.9C416.1 371.5 424.9 388 429.1 406.3L336.1 313.3L336.1 160L304.1 160L304.1 281.3L240.1 217.3zM208.1 341.5C188.1 366.2 176.1 397.7 176.1 432C176.1 511.5 240.6 576 320.1 576C365.3 576 405.7 555.1 432.1 522.5L409.3 499.7C388.8 526.6 356.5 544 320.1 544C258.2 544 208.1 493.9 208.1 432C208.1 403.6 218.7 377.7 236.1 357.9L240.1 353.4L240.1 330.5L208.1 298.5L208.1 341.5zM256.1 432C256.1 467.3 284.8 496 320.1 496C343.3 496 363.6 483.7 374.8 465.2L350.8 441.1C346.9 454.3 334.6 463.9 320.1 463.9C302.4 463.9 288.1 449.6 288.1 431.9C288.1 417.4 297.7 405.2 310.9 401.2L286.9 377.1C268.4 388.3 256.1 408.6 256.1 431.8z"/></svg>