<svg xmlns="http://www.w3.org/2000/svg" viewBox="0 0 640 640"><!--! Font Awesome Pro 7.2.0 by @fontawesome - https://fontawesome.com License - https://fontawesome.com/license (Commercial License) Copyright 2026 Fonticons, Inc. --><path opacity=".4" fill="currentColor" d="M132.7 544L157.8 355.8L304.1 270.4L304.1 544L132.7 544zM336.1 270.4L482.5 355.8L507.6 544L441.7 544L336.2 350L336.2 270.3z"/><path fill="currentColor" d="M171.4 251.3L254.7 168L232.1 145.4L176.1 201.4L176.1 64L144.1 64L144.1 201.4C108.8 166.1 90.1 147.4 88.1 145.4L65.5 168L76.8 179.3L148.8 251.3L160.1 262.6L171.4 251.3zM480.1 262.6L491.4 251.3L563.4 179.3L574.7 168L552.1 145.4C550.1 147.4 531.4 166.1 496.1 201.4L496.1 64L464.1 64L464.1 201.4C428.7 166 410.1 147.4 408.1 145.4L385.5 168L396.8 179.3L468.8 251.3L480.1 262.6zM96.1 576L544.1 576L539.8 544L512.1 336L320.1 224L128.1 336L100.4 544L96.1 576zM336.1 544L336.1 417L405.2 544L336.1 544zM304.1 544L132.7 544L157.8 355.8L304.1 270.4L304.1 544zM336.1 270.4L482.5 355.8L507.6 544L441.7 544L336.2 350L336.2 270.3z"/></svg>