<svg xmlns="http://www.w3.org/2000/svg" viewBox="0 0 640 640"><!--! Font Awesome Pro 7.2.0 by @fontawesome - https://fontawesome.com License - https://fontawesome.com/license (Commercial License) Copyright 2026 Fonticons, Inc. --><path opacity=".4" fill="currentColor" d="M64 243.1L64 288L576 288L576 243.1C542.9 224.2 494.9 190 456.7 135.7C452.7 140.2 448.4 144.7 443.7 149.3C416.9 175.6 374.3 206.5 320 206.5C265.7 206.5 223.1 175.7 196.3 149.3C191.6 144.7 187.3 140.1 183.3 135.7C145 190 97.1 224.2 64 243.1zM64 320L64 544L288 544L288 320L64 320zM331.4 320L457.4 544L576 544L576 320L331.4 320z"/><path fill="currentColor" d="M180.4 78.5C180.4 78.5 187.8 91.2 201.3 107.4C224.8 135.7 266.8 174.5 320.1 174.5C373.4 174.5 415.4 135.7 438.9 107.4C452.4 91.2 459.8 78.5 459.8 78.5C465.3 89.5 471.3 99.8 477.7 109.5C519.9 173.4 577.9 208.8 608.2 224L608.2 576L32.2 576L32.2 224C62.5 208.8 120.5 173.5 162.7 109.5C169.1 99.8 175.1 89.5 180.6 78.5zM196.4 149.3C191.7 144.7 187.4 140.1 183.4 135.7C145.1 190 97.2 224.2 64.1 243.1L64.1 288L576.1 288L576.1 243.1C543 224.2 495 190 456.8 135.7C452.8 140.2 448.5 144.7 443.8 149.3C417 175.6 374.4 206.5 320.1 206.5C265.8 206.5 223.2 175.7 196.4 149.3zM576 320L331.4 320L457.4 544L576 544L576 320zM288 320L64 320L64 544L288 544L288 320zM320 544L420.6 544L320 365.1L320 544z"/></svg>