<svg xmlns="http://www.w3.org/2000/svg" viewBox="0 0 640 640"><!--! Font Awesome Pro 7.2.0 by @fontawesome - https://fontawesome.com License - https://fontawesome.com/license (Commercial License) Copyright 2026 Fonticons, Inc. --><path opacity=".4" fill="currentColor" d="M64 160L576 160L576 246.7C547.7 259 528 287.2 528 320C528 352.8 547.7 381 576 393.3L576 480L64 480L64 160zM424 224C424 237.3 434.7 248 448 248C461.3 248 472 237.3 472 224C472 210.7 461.3 200 448 200C434.7 200 424 210.7 424 224zM424 320C424 333.3 434.7 344 448 344C461.3 344 472 333.3 472 320C472 306.7 461.3 296 448 296C434.7 296 424 306.7 424 320zM424 416C424 429.3 434.7 440 448 440C461.3 440 472 429.3 472 416C472 402.7 461.3 392 448 392C434.7 392 424 402.7 424 416z"/><path fill="currentColor" d="M64 160L576 160L576 246.7C547.7 259 528 287.2 528 320C528 352.8 547.7 381 576 393.3L576 480L64 480L64 160zM608 272L608 128L32 128L32 512L608 512L608 368C581.5 368 560 346.5 560 320C560 293.5 581.5 272 608 272zM448 248C461.3 248 472 237.3 472 224C472 210.7 461.3 200 448 200C434.7 200 424 210.7 424 224C424 237.3 434.7 248 448 248zM448 344C461.3 344 472 333.3 472 320C472 306.7 461.3 296 448 296C434.7 296 424 306.7 424 320C424 333.3 434.7 344 448 344zM472 416C472 402.7 461.3 392 448 392C434.7 392 424 402.7 424 416C424 429.3 434.7 440 448 440C461.3 440 472 429.3 472 416z"/></svg>