<svg xmlns="http://www.w3.org/2000/svg" viewBox="0 0 640 640"><!--! Font Awesome Pro 7.2.0 by @fontawesome - https://fontawesome.com License - https://fontawesome.com/license (Commercial License) Copyright 2026 Fonticons, Inc. --><path opacity=".4" fill="currentColor" d="M128 128L128 198.7C156.3 211 176 239.2 176 272C176 304.8 156.3 333 128 345.3L128 416L576 416L576 345.3C547.7 333 528 304.8 528 272C528 239.2 547.7 211 576 198.7L576 128L128 128z"/><path fill="currentColor" d="M96 96L96 224C122.5 224 144 245.5 144 272C144 298.5 122.5 320 96 320L96 448L608 448L608 320C581.5 320 560 298.5 560 272C560 245.5 581.5 224 608 224L608 96L96 96zM176 272C176 239.2 156.3 211 128 198.7L128 128L576 128L576 198.7C547.7 211 528 239.2 528 272C528 304.8 547.7 333 576 345.3L576 416L128 416L128 345.3C156.3 333 176 304.8 176 272zM32 208L32 192L0 192L0 544L512 544L512 512L32 512L32 208z"/></svg>