<svg xmlns="http://www.w3.org/2000/svg" viewBox="0 0 640 640"><!--! Font Awesome Pro 7.2.0 by @fontawesome - https://fontawesome.com License - https://fontawesome.com/license (Commercial License) Copyright 2026 Fonticons, Inc. --><path opacity=".4" fill="currentColor" d="M64 160L64 246.7C92.3 259 112 287.2 112 320C112 352.8 92.3 381 64 393.3L64 480L576 480L576 393.3C547.7 381 528 352.8 528 320C528 287.2 547.7 259 576 246.7L576 160L64 160zM160 224L480 224L480 416L160 416L160 224zM192 256L192 384L448 384L448 256L192 256z"/><path fill="currentColor" d="M32 128L32 272C58.5 272 80 293.5 80 320C80 346.5 58.5 368 32 368L32 512L608 512L608 368C581.5 368 560 346.5 560 320C560 293.5 581.5 272 608 272L608 128L32 128zM112 320C112 287.2 92.3 259 64 246.7L64 160L576 160L576 246.7C547.7 259 528 287.2 528 320C528 352.8 547.7 381 576 393.3L576 480L64 480L64 393.3C92.3 381 112 352.8 112 320zM192 256L448 256L448 384L192 384L192 256zM160 224L160 416L480 416L480 224L160 224z"/></svg>