<svg xmlns="http://www.w3.org/2000/svg" viewBox="0 0 640 640"><!--! Font Awesome Pro 7.2.0 by @fontawesome - https://fontawesome.com License - https://fontawesome.com/license (Commercial License) Copyright 2026 Fonticons, Inc. --><path opacity=".4" fill="currentColor" d="M128 128L512 128L512 512L128 512L128 128zM220.6 243.2L231.9 254.5L297.4 320L231.9 385.5L220.6 396.8L243.2 419.4L254.5 408.1L320 342.6L385.5 408.1L396.8 419.4L419.4 396.8L342.6 320L408.1 254.5L419.4 243.2L396.8 220.6L385.5 231.9L320 297.4L254.5 231.9L243.2 220.6L220.6 243.2z"/><path fill="currentColor" d="M128 128L128 512L512 512L512 128L128 128zM96 96L544 96L544 544L96 544L96 96zM419.4 243.2L408.1 254.5L342.6 320L419.4 396.8L396.8 419.4L385.5 408.1L320 342.6L254.5 408.1L243.2 419.4L220.6 396.8L231.9 385.5L297.4 320L231.9 254.5L220.6 243.2L243.2 220.6L254.5 231.9L320 297.4L385.5 231.9L396.8 220.6L419.4 243.2z"/></svg>