<svg xmlns="http://www.w3.org/2000/svg" viewBox="0 0 640 640"><!--! Font Awesome Pro 7.2.0 by @fontawesome - https://fontawesome.com License - https://fontawesome.com/license (Commercial License) Copyright 2026 Fonticons, Inc. --><path opacity=".4" fill="currentColor" d="M96 288L96 576L352 576L352 288C352 237.2 363.2 190.5 382.1 155.9C387.7 145.7 394.1 136.3 401.3 128L176 128C158.1 128 138.4 141.5 122.2 171.2C106.3 200.3 96 241.5 96 288zM384 288C384 334.5 394.3 375.7 410.2 404.8C426.4 434.5 446.1 448 464 448C481.9 448 501.6 434.5 517.8 404.8C533.7 375.7 544 334.5 544 288C544 241.5 533.7 200.3 517.8 171.2C501.6 141.5 481.9 128 464 128C446.1 128 426.4 141.5 410.2 171.2C394.3 200.3 384 241.5 384 288zM440 288C440 261.5 450.7 240 464 240C477.3 240 488 261.5 488 288C488 314.5 477.3 336 464 336C450.7 336 440 314.5 440 288z"/><path fill="currentColor" d="M122.2 171.2C138.4 141.5 158.1 128 176 128L401.3 128C394.1 136.2 387.7 145.7 382.1 155.9C363.2 190.5 352 237.3 352 288L352 576L96 576L96 288C96 241.5 106.3 200.3 122.2 171.2zM94.1 155.9C75.2 190.5 64 237.2 64 288L64 608L384 608L384 423.6C402.6 455.9 430.1 480 464 480C499.1 480 527.4 454.1 545.9 420.1C564.8 385.5 576 338.7 576 288C576 237.3 564.8 190.5 545.9 155.9C527.4 121.9 499.1 96 464 96L176 96C140.9 96 112.6 121.9 94.1 155.9zM410.2 404.8C394.3 375.7 384 334.5 384 288C384 241.5 394.3 200.3 410.2 171.2C426.4 141.5 446.1 128 464 128C481.9 128 501.6 141.5 517.8 171.2C533.7 200.3 544 241.5 544 288C544 334.5 533.7 375.7 517.8 404.8C501.6 434.5 481.9 448 464 448C446.1 448 426.4 434.5 410.2 404.8zM464 336C477.3 336 488 314.5 488 288C488 261.5 477.3 240 464 240C450.7 240 440 261.5 440 288C440 314.5 450.7 336 464 336z"/></svg>