<svg xmlns="http://www.w3.org/2000/svg" viewBox="0 0 640 640"><!--! Font Awesome Pro 7.2.0 by @fontawesome - https://fontawesome.com License - https://fontawesome.com/license (Commercial License) Copyright 2026 Fonticons, Inc. --><path opacity=".4" fill="currentColor" d="M65 400L88 400L88 432L65 432C67.9 455.4 77.1 476.8 90.9 494.5C93.1 492.3 98.6 486.8 107.2 478.2L129.8 500.8C121.2 509.4 115.8 514.8 113.5 517.1C131.2 530.9 152.6 540.1 176 543L176 520L208 520L208 543C231.4 540.1 252.8 530.9 270.5 517.1C268.3 514.9 262.8 509.4 254.2 500.8L276.8 478.2C285.4 486.8 290.8 492.2 293.1 494.5C306.9 476.8 316.1 455.4 319 432L296 432L296 400L319 400C316.1 376.6 306.9 355.2 293.1 337.5C290.9 339.7 285.4 345.2 276.8 353.8L254.2 331.2C262.8 322.6 268.2 317.2 270.5 314.9C252.8 301.1 231.4 291.9 208 289L208 312L176 312L176 289C152.6 291.9 131.2 301.1 113.5 314.9C115.7 317.1 121.2 322.6 129.8 331.2L107.1 353.8C98.5 345.2 93.1 339.8 90.8 337.5C77 355.2 67.8 376.6 64.9 400zM264 416C264 455.8 231.8 488 192 488C152.2 488 120 455.8 120 416C120 376.2 152.2 344 192 344C231.8 344 264 376.2 264 416zM288 288C326.9 317.2 352 363.7 352 416L461.4 416C475.7 405.9 493.2 400 512 400C514.4 400 516.9 400.1 519.3 400.3L576 353L576 288L288 288zM456 488C456 518.9 481.1 544 512 544C542.9 544 568 518.9 568 488C568 457.1 542.9 432 512 432C481.1 432 456 457.1 456 488z"/><path fill="currentColor" d="M160 128L285.9 128L362.7 256L160 256L160 128zM128 256L128 269.3C71.5 294 32 350.4 32 416C32 504.4 103.6 576 192 576C269.4 576 334 521 348.8 448L433.6 448C427.5 460 424 473.6 424 488C424 536.6 463.4 576 512 576C560.6 576 600 536.6 600 488C600 455.3 582.2 426.8 555.7 411.6L608 368L608 256L512 256L512 160L480 160L480 256L400 256L304 96L128 96L128 256zM519.3 400.3C516.9 400.1 514.5 400 512 400C493.2 400 475.7 405.9 461.4 416L352 416C352 363.7 326.9 317.2 288 288L576 288L576 353L519.3 400.3zM176 536L176 543C152.6 540.1 131.2 530.9 113.5 517.1C115.7 514.9 121.2 509.4 129.8 500.8L107.1 478.2C98.5 486.8 93.1 492.2 90.8 494.5C77 476.8 67.8 455.4 64.9 432L87.9 432L87.9 400L64.9 400C67.8 376.6 77 355.2 90.8 337.5C93 339.7 98.5 345.2 107.1 353.8L129.7 331.2C121.1 322.6 115.7 317.2 113.4 314.9C131.1 301.1 152.5 291.9 175.9 289L175.9 312L207.9 312L207.9 289C231.3 291.9 252.7 301.1 270.4 314.9C268.2 317.1 262.7 322.6 254.1 331.2L276.7 353.8C285.3 345.2 290.7 339.8 293 337.5C306.8 355.2 316 376.6 318.9 400L295.9 400L295.9 432L318.9 432C316 455.4 306.8 476.8 293 494.5C290.8 492.3 285.3 486.8 276.7 478.2L254.1 500.8C262.7 509.4 268.1 514.8 270.4 517.1C252.7 530.9 231.3 540.1 207.9 543L207.9 520L175.9 520L175.9 536zM192 488C231.8 488 264 455.8 264 416C264 376.2 231.8 344 192 344C152.2 344 120 376.2 120 416C120 455.8 152.2 488 192 488zM152 416C152 393.9 169.9 376 192 376C214.1 376 232 393.9 232 416C232 438.1 214.1 456 192 456C169.9 456 152 438.1 152 416zM456 488C456 457.1 481.1 432 512 432C542.9 432 568 457.1 568 488C568 518.9 542.9 544 512 544C481.1 544 456 518.9 456 488z"/></svg>