<svg xmlns="http://www.w3.org/2000/svg" viewBox="0 0 640 640"><!--! Font Awesome Pro 7.2.0 by @fontawesome - https://fontawesome.com License - https://fontawesome.com/license (Commercial License) Copyright 2026 Fonticons, Inc. --><path opacity=".4" fill="currentColor" d="M156.8 208L181.7 544L458.3 544L483.2 208L156.9 208zM214.4 336L304 336L304 246.4L336 246.4L336 336L425.6 336L425.6 368L336 368L336 457.6L304 457.6L304 368L214.4 368L214.4 336zM245.5 128L394.5 128L380.1 80L259.9 80L245.5 128z"/><path fill="currentColor" d="M236.1 48L403.9 48L407.3 59.4L427.9 128L544 128L544 160L96 160L96 128L212.1 128L232.7 59.4L236.1 48zM380.1 80L259.9 80L245.5 128L394.5 128L380.1 80zM152 576L124.7 208L156.8 208L181.7 544L458.3 544L483.2 208L515.3 208L488 576L152 576zM304 457.6L304 368L214.4 368L214.4 336L304 336L304 246.4L336 246.4L336 336L425.6 336L425.6 368L336 368L336 457.6L304 457.6z"/></svg>