<svg xmlns="http://www.w3.org/2000/svg" viewBox="0 0 640 640"><!--! Font Awesome Pro 7.2.0 by @fontawesome - https://fontawesome.com License - https://fontawesome.com/license (Commercial License) Copyright 2026 Fonticons, Inc. --><path opacity=".4" fill="currentColor" d="M92.8 208L117.7 544L362.3 544L387.2 208L92.9 208zM149.5 128L330.5 128L316.1 80L163.9 80L149.5 128z"/><path fill="currentColor" d="M140.1 48L339.9 48L343.3 59.4L363.9 128L448 128L448 160L32 160L32 128L116.1 128L136.7 59.4L140.1 48zM316.1 80L163.9 80L149.5 128L330.5 128L316.1 80zM88 576L60.7 208L92.8 208L117.7 544L362.3 544L387.2 208L419.3 208L392 576L88 576zM640 192L640 224L480 224L480 192L640 192zM608 320L608 352L480 352L480 320L608 320zM480 448L576 448L576 480L480 480L480 448z"/></svg>