<svg xmlns="http://www.w3.org/2000/svg" viewBox="0 0 640 640"><!--! Font Awesome Pro 7.2.0 by @fontawesome - https://fontawesome.com License - https://fontawesome.com/license (Commercial License) Copyright 2026 Fonticons, Inc. --><path opacity=".4" fill="currentColor" d="M124.8 208L451.1 208L446.3 272.8C348.5 281.7 271.9 363.9 271.9 464C271.9 492.6 278.1 519.6 289.3 544L149.6 544L124.7 208zM213.5 128L227.9 80L348.1 80L362.5 128L213.5 128z"/><path fill="currentColor" d="M216 48L204.1 48L200.7 59.4L180.1 128L64 128L64 160L512 160L512 128L395.9 128L375.3 59.4L371.9 48L216 48zM362.5 128L213.5 128L227.9 80L348.1 80L362.5 128zM92.7 208L120 576L308 576C300.8 566 294.6 555.3 289.4 544L149.7 544L124.8 208L92.7 208zM483.2 208L451.1 208L446.3 272.8C458.4 271.7 469.4 271.9 478.4 272.5L483.2 208zM464 352C525.9 352 576 402.1 576 464C576 525.9 525.9 576 464 576C402.1 576 352 525.9 352 464C352 402.1 402.1 352 464 352zM464 608C543.5 608 608 543.5 608 464C608 384.5 543.5 320 464 320C384.5 320 320 384.5 320 464C320 543.5 384.5 608 464 608zM480 384L448 384L448 480L528 480L528 448L480 448L480 384z"/></svg>