<svg xmlns="http://www.w3.org/2000/svg" viewBox="0 0 640 640"><!--! Font Awesome Pro 7.2.0 by @fontawesome - https://fontawesome.com License - https://fontawesome.com/license (Commercial License) Copyright 2026 Fonticons, Inc. --><path opacity=".4" fill="currentColor" d="M160 208L160 544L480 544L480 208L160 208zM201.4 336L212.7 324.7L284.7 252.7L296 241.4L318.6 264C316.6 266 297.9 284.7 262.6 320L336 320C380.2 320 416 355.8 416 400L416 456L384 456L384 400C384 373.5 362.5 352 336 352L262.6 352C298 387.4 316.6 406 318.6 408L296 430.6L284.7 419.3L212.7 347.3L201.4 336zM245.5 128L394.5 128L380.1 80L259.9 80L245.5 128z"/><path fill="currentColor" d="M248 48L236.1 48L232.7 59.4L212.1 128L96 128L96 160L544 160L544 128L427.9 128L407.3 59.4L403.9 48L248 48zM394.5 128L245.5 128L259.9 80L380.1 80L394.5 128zM128 208L128 576L512 576L512 208L480 208L480 544L160 544L160 208L128 208zM318.6 264L296 241.4L284.7 252.7L212.7 324.7L201.4 336L212.7 347.3L284.7 419.3L296 430.6L318.6 408C316.6 406 298 387.4 262.6 352L336 352C362.5 352 384 373.5 384 400L384 456L416 456L416 400C416 355.8 380.2 320 336 320L262.6 320C297.9 284.7 316.6 266 318.6 264z"/></svg>