<svg xmlns="http://www.w3.org/2000/svg" viewBox="0 0 640 640"><!--! Font Awesome Pro 7.2.0 by @fontawesome - https://fontawesome.com License - https://fontawesome.com/license (Commercial License) Copyright 2026 Fonticons, Inc. --><path opacity=".4" fill="currentColor" d="M156.8 208L181.7 544L458.3 544L483.2 208L156.9 208zM201.3 336L212.6 324.7L284.6 252.7L295.9 241.4L318.5 264C316.5 266 297.8 284.7 262.5 320L335.9 320C380.1 320 415.9 355.8 415.9 400L415.9 456L383.9 456L383.9 400C383.9 373.5 362.4 352 335.9 352L262.5 352C297.9 387.4 316.5 406 318.5 408L295.9 430.6L284.6 419.3L212.6 347.3L201.3 336zM245.5 128L394.5 128L380.1 80L259.9 80L245.5 128z"/><path fill="currentColor" d="M236.1 48L403.9 48L407.3 59.4L427.9 128L544 128L544 160L96 160L96 128L212.1 128L232.7 59.4L236.1 48zM380.1 80L259.9 80L245.5 128L394.5 128L380.1 80zM152 576L124.7 208L156.8 208L181.7 544L458.3 544L483.2 208L515.3 208L488 576L152 576zM318.6 264C316.6 266 297.9 284.7 262.6 320L336 320C380.2 320 416 355.8 416 400L416 456L384 456L384 400C384 373.5 362.5 352 336 352L262.6 352C298 387.4 316.6 406 318.6 408L296 430.6L284.7 419.3L212.7 347.3L201.4 336L212.7 324.7L284.7 252.7L296 241.4L318.6 264z"/></svg>