<svg xmlns="http://www.w3.org/2000/svg" viewBox="0 0 640 640"><!--! Font Awesome Pro 7.2.0 by @fontawesome - https://fontawesome.com License - https://fontawesome.com/license (Commercial License) Copyright 2026 Fonticons, Inc. --><path opacity=".4" fill="currentColor" d="M123.3 429.2C135 432.7 153.3 437.6 174.3 440.8C219.3 447.6 277.8 447.9 307.5 407.5L320.4 390L333.3 407.5C363.1 448 421.3 447.7 466.2 440.9C487.4 437.7 505.8 432.8 517.5 429.3C514.7 417.5 509.8 399.2 502 379.3C485.3 336.7 456.2 285.6 405.7 280.6L383.3 278.4L392.8 258C397.6 247.7 400.4 236.3 400.4 224.2C400.4 189.9 379.4 153.6 355.9 124.2C342.6 107.6 329.3 94.2 320.4 85.8C311.6 94.2 298.1 107.6 284.7 124.3C261.2 153.7 240.4 189.9 240.4 224.1C240.4 244 249.3 260.8 257.5 278.3L235.1 280.5C184.8 285.6 155.5 336.7 138.9 379.2C131.1 399.1 126.2 417.4 123.4 429.2zM376.4 304C376.4 334.9 351.3 360 320.4 360C289.5 360 264.4 334.9 264.4 304C264.4 273.1 289.5 248 320.4 248C351.3 248 376.4 273.1 376.4 304z"/><path fill="currentColor" d="M320.4 360C289.5 360 264.4 334.9 264.4 304C264.4 273.1 289.5 248 320.4 248C351.3 248 376.4 273.1 376.4 304C376.4 334.9 351.3 360 320.4 360zM320.4 280C307.1 280 296.4 290.7 296.4 304C296.4 317.3 307.1 328 320.4 328C333.7 328 344.4 317.3 344.4 304C344.4 290.7 333.7 280 320.4 280zM380.9 104C391.7 117.5 403 133.6 412.3 151.3C433.1 150.2 453.6 152 471.4 154.7C522.9 162.6 550.4 175.2 554.3 176.7C549.3 205.2 542.2 233.1 531.6 260.1C524.9 277.1 516 295.9 504.5 313.4C516.2 331.2 525.1 350.2 531.8 367.4C542.3 394.3 549.4 422 554.3 450.3C527.2 460.2 499.6 468 471 472.3C453.3 475 432.9 476.7 412.3 475.6C403 493.3 391.8 509.5 381 523C362.9 545.6 342.6 565.4 320.5 583.8C298.4 565.4 278.1 545.6 260 523C249.2 509.5 237.9 493.3 228.6 475.6C207.8 476.7 187.3 474.9 169.5 472.2C140.9 467.9 113.4 460.2 86.6 450.2C91.5 421.9 98.6 394.2 109.1 367.3C115.8 350.1 124.8 331.1 136.4 313.3C124.7 295.5 115.7 276.5 109 259.3C90 210.6 87.5 181.7 86.6 176.5C113.7 166.6 141.3 158.8 170 154.5C187.7 151.8 208 150.1 228.5 151.2C237.7 133.6 249 117.5 259.8 104C277.8 81.4 298.3 61.4 320.5 43C342.6 61.4 362.9 81.2 381 103.8zM320.4 441C304.3 456.4 284.2 466 262.6 471.1C280.3 501 306.2 528.1 320.4 541.6C334.6 528.2 360.5 501.1 378.2 471.2C356.7 466.1 336.5 456.4 320.4 441.1zM320.4 85.7C311.6 94.1 298.1 107.5 284.7 124.2C261.2 153.6 240.4 189.8 240.4 224C240.4 243.9 249.3 260.7 257.5 278.2L235.1 280.4C184.8 285.5 155.5 336.6 138.9 379.1C131.1 399 126.2 417.3 123.4 429.1C135.1 432.6 153.4 437.5 174.4 440.7C219.4 447.5 277.9 447.8 307.6 407.4L320.5 389.9L333.4 407.4C363.2 447.9 421.4 447.6 466.3 440.8C487.5 437.6 505.9 432.7 517.6 429.2C514.8 417.4 509.9 399.1 502.1 379.2C485.4 336.6 456.3 285.5 405.8 280.5L383.4 278.3L392.9 257.9C397.7 247.6 400.5 236.2 400.5 224.1C400.5 189.8 379.5 153.5 356 124.1C342.7 107.5 329.4 94.1 320.5 85.7zM215.1 183C184 183.1 153 189 123.3 197.9C128 217.7 139.3 255.7 157.4 286.8C172.6 270.9 191 258.5 212.2 252.4C206.1 229.4 208.1 205.5 215.2 183zM425.7 183C432.8 205.5 434.7 229.4 428.6 252.3C449.8 258.4 468.2 270.8 483.4 286.7C501.7 255.6 512.9 217.5 517.5 197.9C487.8 189 456.8 183.1 425.7 183z"/></svg>