<svg xmlns="http://www.w3.org/2000/svg" viewBox="0 0 640 640"><!--! Font Awesome Pro 7.2.0 by @fontawesome - https://fontawesome.com License - https://fontawesome.com/license (Commercial License) Copyright 2026 Fonticons, Inc. --><path opacity=".4" fill="currentColor" d="M129.9 267.3C162.8 300.2 195.7 333.1 228.6 366L236 314.2C239.9 287.2 247.8 261 259.3 236.6C234.9 248.1 208.8 256 181.7 259.9L129.9 267.3z"/><path fill="currentColor" d="M432.8 85.8C446.8 71.9 465.7 64 485.5 64C526.6 64 560 97.4 560 138.5L560 144.2C560 165.5 551.6 185.9 536.5 200.9L524 213.4L414.6 104L432.8 85.8zM392 126.6L501.4 236L444 293.4L334.6 184C334.9 183.7 335.3 183.3 335.6 183C340 178.6 354.5 164.1 379.3 139.3L379.3 139.3L392 126.6zM421.4 316L178.2 559.1C167.4 569.9 152.8 576 137.5 576C105.7 576 80 550.2 80 518.5C80 503.2 86.1 488.6 96.9 477.8L162.1 412.6L139.5 390L74.3 455.2C57.5 472 48.1 494.8 48.1 518.5C48.1 567.9 88.2 608 137.6 608C161.3 608 184.1 598.6 200.9 581.8L559.1 223.5C580.1 202.5 592 173.9 592 144.2L592 138.5C592 79.7 544.3 32 485.5 32C457.3 32 430.2 43.2 410.2 63.2C371 102.4 342.5 130.9 324.7 148.7L324.7 148.7L313.1 160.3C276.4 197 228.7 220.8 177.3 228.2C113 237.4 74.6 242.9 62.1 244.7C219.8 402.4 249 431.6 251.4 434C253.2 421.5 258.7 383.1 267.9 318.8C273.7 278.5 289.5 240.6 313.8 208.3L421.4 316zM259.4 236.7C247.9 261.1 240 287.2 236.1 314.3L228.7 366.1C195.8 333.2 162.9 300.3 130 267.4L181.8 260C208.8 256.1 235 248.2 259.4 236.7z"/></svg>