<svg xmlns="http://www.w3.org/2000/svg" viewBox="0 0 640 640"><!--! Font Awesome Pro 7.2.0 by @fontawesome - https://fontawesome.com License - https://fontawesome.com/license (Commercial License) Copyright 2026 Fonticons, Inc. --><path opacity=".4" fill="currentColor" d="M384.4 128L608.4 128L608.4 462.6L604.7 462.6C593.8 426.3 560.2 399.9 520.4 399.9C486.2 399.9 456.6 419.4 442 447.9L384.4 447.9L384.4 127.9z"/><path fill="currentColor" d="M352.4 96L608.4 96L608.4 128L384.4 128L384.4 448L442 448C456.6 419.5 486.2 400 520.4 400C569 400 608.4 439.4 608.4 488C608.4 536.6 569 576 520.4 576C471.8 576 432.4 536.6 432.4 488C432.4 485.3 432.5 482.6 432.8 480L370.8 480L53 575.3L37.7 579.9L28.5 549.2L43.8 544.6L352.4 452L352.4 95.9zM520.4 544C551.3 544 576.4 518.9 576.4 488C576.4 457.1 551.3 432 520.4 432C489.5 432 464.4 457.1 464.4 488C464.4 518.9 489.5 544 520.4 544z"/></svg>