<svg xmlns="http://www.w3.org/2000/svg" viewBox="0 0 640 640"><!--! Font Awesome Pro 7.2.0 by @fontawesome - https://fontawesome.com License - https://fontawesome.com/license (Commercial License) Copyright 2026 Fonticons, Inc. --><path opacity=".4" fill="currentColor" d="M64 128L64 480L96.4 480C100.4 435.1 138.1 400 184 400C229.9 400 267.6 435.1 271.6 480L368.3 480C371.1 449.2 389.7 423 415.9 409.6L416 128L64 128zM112 176L144 176L144 256L160 256L160 176L192 176L192 256L208 256L208 176L240 176L240 256C240 282.5 218.5 304 192 304L192 368L160 368L160 304C133.5 304 112 282.5 112 256L112 176zM256 272C256 230.2 282.7 194.6 320 181.5C330 178 340.8 176 352 176L352 416L320 416L320 352L256 352L256 272zM288 272L288 320L320 320L320 216.6C300.9 227.7 288 248.3 288 272zM448 352L448 400.4C450.6 400.2 453.3 400 456 400C501.9 400 539.6 435.1 543.6 480L576 480L576 352L448 352z"/><path fill="currentColor" d="M416 128L416 409.6C389.8 423 371.1 449.2 368.4 480L271.7 480C267.7 435.1 230 400 184.1 400C138.2 400 100.5 435.1 96.5 480L64 480L64 128L416 128zM448 400.4L448 352L576 352L576 480L543.6 480C539.6 435.1 501.9 400 456 400C453.3 400 450.6 400.1 448 400.4zM576 278.6L576 320L448 320L448 224L521.4 224L576 278.6zM64 512L99.3 512C109.7 548.9 143.7 576 184 576C224.3 576 258.2 548.9 268.7 512L371.3 512C381.7 548.9 415.7 576 456 576C496.3 576 530.2 548.9 540.7 512L608 512L608 265.4L603.3 260.7L539.3 196.7L534.6 192L448 192L448 96L32 96L32 512L64 512zM128 488C128 457.1 153.1 432 184 432C214.9 432 240 457.1 240 488C240 518.9 214.9 544 184 544C153.1 544 128 518.9 128 488zM400 488C400 457.1 425.1 432 456 432C486.9 432 512 457.1 512 488C512 518.9 486.9 544 456 544C425.1 544 400 518.9 400 488zM240 256L240 176L208 176L208 256L192 256L192 176L160 176L160 256L144 256L144 176L112 176L112 256C112 282.5 133.5 304 160 304L160 368L192 368L192 304C218.5 304 240 282.5 240 256zM352 208L352 176C340.8 176 330 177.9 320 181.5C282.7 194.7 256 230.2 256 272L256 352L320 352L320 416L352 416L352 208zM288 320L288 272C288 248.3 300.9 227.6 320 216.6L320 320L288 320z"/></svg>