<svg xmlns="http://www.w3.org/2000/svg" viewBox="0 0 640 640"><!--! Font Awesome Pro 7.2.0 by @fontawesome - https://fontawesome.com License - https://fontawesome.com/license (Commercial License) Copyright 2026 Fonticons, Inc. --><path opacity=".4" fill="currentColor" d="M32 366L160 218.8L160 349.7L32 407.3L32 366zM128 526.6L187.3 467.3L192 462.6L192 96C192 78.3 206.3 64 224 64C241.7 64 256 78.3 256 96L256 112L208 112L208 515.9L128 538.8L128 526.6zM288 192L608 192L608 336L576 336L576 240L320 240L320 336L288 336L288 192zM288 368L608 368L608 480L288 480C288 442.7 288 405.3 288 368zM328 424C328 437.3 338.7 448 352 448C365.3 448 376 437.3 376 424C376 410.7 365.3 400 352 400C338.7 400 328 410.7 328 424zM520 424C520 437.3 530.7 448 544 448C557.3 448 568 437.3 568 424C568 410.7 557.3 400 544 400C530.7 400 520 410.7 520 424z"/><path fill="currentColor" d="M224 64C241.7 64 256 78.3 256 96L256 112L288 112L288 96C288 60.7 259.3 32 224 32C188.7 32 160 60.7 160 96L160 170L3.9 349.5L0 354L0 456.7L22.6 446.5L160 384.7L160 449.3L100.7 508.6L96 513.3L96 581.1C97.7 580.6 135.1 569.9 208 549.1L208 515.8L128 538.7L128 526.5L187.3 467.2L192 462.5L192 95.9C192 78.2 206.3 63.9 224 63.9zM32 366L160 218.8L160 349.7L32 407.3L32 366zM608 192L608 336L576 336L576 240L320 240L320 336L288 336L288 192L608 192zM544 336L352 336L352 272L544 272L544 336zM640 336L640 160L256 160L256 512L288 512L288 576L320 576L320 512L576 512L576 576L608 576L608 512L640 512L640 336zM608 368L608 480L288 480L288 368L608 368zM352 448C365.3 448 376 437.3 376 424C376 410.7 365.3 400 352 400C338.7 400 328 410.7 328 424C328 437.3 338.7 448 352 448zM568 424C568 410.7 557.3 400 544 400C530.7 400 520 410.7 520 424C520 437.3 530.7 448 544 448C557.3 448 568 437.3 568 424z"/></svg>