<svg xmlns="http://www.w3.org/2000/svg" viewBox="0 0 640 640"><!--! Font Awesome Pro 7.2.0 by @fontawesome - https://fontawesome.com License - https://fontawesome.com/license (Commercial License) Copyright 2026 Fonticons, Inc. --><path opacity=".4" fill="currentColor" d="M205.3 416L320 530.7L434.7 416L352 416L352 160L480 160L480 96L288 96L288 416L205.3 416z"/><path fill="currentColor" d="M416 384L384 384L384 192L512 192L512 64L256 64L256 384L128 384C131.8 387.8 188.2 444.2 297.4 553.4L320 576L512 384L416 384zM434.7 416L320 530.7L205.3 416L288 416L288 96L480 96L480 160L352 160L352 416L434.7 416z"/></svg>