<svg xmlns="http://www.w3.org/2000/svg" viewBox="0 0 640 640"><!--! Font Awesome Pro 7.2.0 by @fontawesome - https://fontawesome.com License - https://fontawesome.com/license (Commercial License) Copyright 2026 Fonticons, Inc. --><path opacity=".4" fill="currentColor" d="M96 192L544 192L544 512L96 512L96 192zM128 224L128 480L416 480L416 224L128 224zM456 296C456 309.3 466.7 320 480 320C493.3 320 504 309.3 504 296C504 282.7 493.3 272 480 272C466.7 272 456 282.7 456 296zM456 376C456 389.3 466.7 400 480 400C493.3 400 504 389.3 504 376C504 362.7 493.3 352 480 352C466.7 352 456 362.7 456 376z"/><path fill="currentColor" d="M224 57.4L320 153.4L404.7 68.7L416 57.4L438.6 80L427.3 91.3L358.6 160L576 160L576 544L64 544L64 160L281.4 160L212.7 91.3L201.4 80L224 57.4zM96 192L96 512L544 512L544 192L96 192zM480 272C493.3 272 504 282.7 504 296C504 309.3 493.3 320 480 320C466.7 320 456 309.3 456 296C456 282.7 466.7 272 480 272zM456 376C456 362.7 466.7 352 480 352C493.3 352 504 362.7 504 376C504 389.3 493.3 400 480 400C466.7 400 456 389.3 456 376zM160 256L160 448L384 448L384 256L160 256zM128 224L416 224L416 480L128 480L128 224z"/></svg>