<svg xmlns="http://www.w3.org/2000/svg" viewBox="0 0 640 640"><!--! Font Awesome Pro 7.2.0 by @fontawesome - https://fontawesome.com License - https://fontawesome.com/license (Commercial License) Copyright 2026 Fonticons, Inc. --><path opacity=".4" fill="currentColor" d="M129.7 576L183 416L312.1 416L231.4 466.4L223.9 471.1L223.9 576L129.6 576zM192 112C192 94.3 206.3 80 224 80C241.7 80 256 94.3 256 112L288 112C288 94.3 302.3 80 320 80C337.7 80 352 94.3 352 112L384 112C384 94.3 398.3 80 416 80C433.7 80 448 94.3 448 112C448 125.9 439.1 137.8 426.7 142.2L416 146L416 192L224 192L224 146L213.3 142.2C200.9 137.8 192 125.9 192 112zM192 320L207 284.1C214.3 297.7 223.9 309.9 235.4 320L192 320zM256 488.9L372.6 416L456.9 416L510.2 576L255.9 576L255.9 488.9zM304 520C304 533.3 314.7 544 328 544C341.3 544 352 533.3 352 520C352 506.7 341.3 496 328 496C314.7 496 304 506.7 304 520zM384 520C384 533.3 394.7 544 408 544C421.3 544 432 533.3 432 520C432 506.7 421.3 496 408 496C394.7 496 384 506.7 384 520zM404.7 320C416.2 309.9 425.8 297.7 433.1 284.1L448.1 320L404.8 320z"/><path fill="currentColor" d="M192 112C192 125.9 200.9 137.8 213.3 142.2L224 146L224 192L416 192L416 146L426.7 142.2C439.1 137.8 448 125.9 448 112C448 94.3 433.7 80 416 80C398.3 80 384 94.3 384 112L352 112C352 94.3 337.7 80 320 80C302.3 80 288 94.3 288 112L256 112C256 94.3 241.7 80 224 80C206.3 80 192 94.3 192 112zM224 48C243.1 48 260.3 56.4 272 69.7C283.7 56.4 300.9 48 320 48C339.1 48 356.3 56.4 368 69.7C379.7 56.4 396.9 48 416 48C451.3 48 480 76.7 480 112C480 135.7 467.1 156.4 448 167.4L448 236.8C478.8 310.7 494.8 349 496 352L144 352C145.2 349 161.2 310.6 192 236.8L192 167.4C172.9 156.4 160 135.7 160 112C160 76.7 188.7 48 224 48zM224 224C224 277 267 320 320 320C373 320 416 277 416 224L224 224zM207 284.1L192 320L235.3 320C223.8 309.9 214.2 297.7 206.9 284.1zM404.7 320L448 320L433 284.1C425.7 297.7 416.1 309.9 404.6 320zM312.2 416L183.1 416L129.8 576L96.1 576L160.1 384L480.1 384L544.1 576L510.4 576L457.1 416L372.8 416L256.2 488.9L256.2 576L224.2 576L224.2 471.1L231.7 466.4L312.4 416zM432 520C432 533.3 421.3 544 408 544C394.7 544 384 533.3 384 520C384 506.7 394.7 496 408 496C421.3 496 432 506.7 432 520zM328 544C314.7 544 304 533.3 304 520C304 506.7 314.7 496 328 496C341.3 496 352 506.7 352 520C352 533.3 341.3 544 328 544z"/></svg>