<svg xmlns="http://www.w3.org/2000/svg" viewBox="0 0 640 640"><!--! Font Awesome Pro 7.2.0 by @fontawesome - https://fontawesome.com License - https://fontawesome.com/license (Commercial License) Copyright 2026 Fonticons, Inc. --><path opacity=".4" fill="currentColor" d="M48 576L65.7 576L119 416L360.9 416L414.2 576C493 576 370.8 576 47.9 576zM144 208L336 208C336 261 293 304 240 304C187 304 144 261 144 208z"/><path fill="currentColor" d="M240 44.3L249.3 51L298 85.7C334 70.3 357.4 60.3 368 55.7L368 208C368 278.7 310.7 336 240 336C169.3 336 112 278.7 112 208L112 55.7C122.6 60.3 146 70.3 182 85.7L230.7 51L240 44.3zM240 83.6L193.3 117L186 122.3C184.7 121.8 170.7 115.8 144 104.3L144 176L336 176L336 104.3C309.3 115.7 295.3 121.7 294 122.3L286.7 117L240 83.7zM240 304C293 304 336 261 336 208L144 208C144 261 187 304 240 304zM416 145.6L416 113.1C421.2 112.4 426.6 112 432 112C493.9 112 544 162.1 544 224C544 285.9 493.9 336 432 336C411.3 336 391.9 330.4 375.3 320.6C382.1 312.4 388.3 303.5 393.5 294.2C404.9 300.5 418 304.1 432 304.1C476.2 304.1 512 268.3 512 224.1C512 179.9 476.2 144.1 432 144.1C426.5 144.1 421.2 144.7 416 145.7zM119.1 416L65.8 576L32.1 576L96.1 384L384.1 384L448.1 576L414.4 576L361.1 416L119.2 416zM445.3 416L434.6 384L544 384L608 576L574.3 576L521 416L445.3 416z"/></svg>