<svg xmlns="http://www.w3.org/2000/svg" viewBox="0 0 640 640"><!--! Font Awesome Pro 7.2.0 by @fontawesome - https://fontawesome.com License - https://fontawesome.com/license (Commercial License) Copyright 2026 Fonticons, Inc. --><path opacity=".4" fill="currentColor" d="M96 160L96 480L416 480L416 160L96 160zM168 304L240 304L240 232L272 232L272 304L344 304L344 336L272 336L272 408L240 408L240 336L168 336L168 304zM496 273.1L496 366.8L576 420.1L576 219.7L496 273z"/><path fill="currentColor" d="M416 160L416 480L96 480L96 160L416 160zM96 128L64 128L64 512L448 512L448 128L96 128zM496 405.3C557.3 446.2 594.7 471.1 608 480L608 160C594.7 168.9 557.3 193.8 496 234.7L496 273.2L576 219.9L576 420.3L496 367L496 405.5zM240 408L272 408L272 336L344 336L344 304L272 304L272 232L240 232L240 304L168 304L168 336L240 336L240 408z"/></svg>