<svg xmlns="http://www.w3.org/2000/svg" viewBox="0 0 640 640"><!--! Font Awesome Pro 7.2.0 by @fontawesome - https://fontawesome.com License - https://fontawesome.com/license (Commercial License) Copyright 2026 Fonticons, Inc. --><path opacity=".4" fill="currentColor" d="M96 160L96 480L416 480L416 160L96 160zM186.8 277.2C186.8 239 217.8 208 256 208C294.2 208 325.2 239 325.2 277.2C325.2 310 301.8 333.8 272 343.1L272 368L240 368L240 316.3L242.1 316C253.7 314.6 264.1 313.3 274.7 307.3C284.8 301.6 293.2 292.9 293.2 277.2C293.2 256.6 276.5 240 256 240C235.5 240 218.8 256.7 218.8 277.2L186.8 277.2zM236 396L276 396L276 436L236 436L236 396zM496 273.1L496 366.8L576 420.1L576 219.7L496 273z"/><path fill="currentColor" d="M416 160L416 480L96 480L96 160L416 160zM96 128L64 128L64 512L448 512L448 128L96 128zM496 405.3C557.3 446.2 594.7 471.1 608 480L608 160C594.7 168.9 557.3 193.8 496 234.7L496 273.2L576 219.9L576 420.3L496 367L496 405.5zM256 240C276.6 240 293.2 256.7 293.2 277.2C293.2 292.9 284.8 301.7 274.7 307.3C264.1 313.3 253.7 314.6 242.1 316L240 316.3L240 368L272 368L272 343.1C301.8 333.9 325.2 310 325.2 277.2C325.2 239 294.2 208 256 208C217.8 208 186.8 239 186.8 277.2L218.8 277.2C218.8 256.6 235.5 240 256 240zM236 396L236 436L276 436L276 396L236 396z"/></svg>