<svg xmlns="http://www.w3.org/2000/svg" viewBox="0 0 640 640"><!--! Font Awesome Pro 7.2.0 by @fontawesome - https://fontawesome.com License - https://fontawesome.com/license (Commercial License) Copyright 2026 Fonticons, Inc. --><path opacity=".4" fill="currentColor" d="M96 320C96 348.8 101.4 376.3 111.3 401.6L119.7 350L120.3 346.1L122.7 342.9L239 190.7L177.7 146.9C127.9 188 96 250.3 96 320zM136.2 448C155.5 475.7 180.9 498.8 210.4 515.4L218.2 435.2L218.6 430.8L221.2 427.3L301.6 318L258.1 218.6L150.7 359.1L136.2 448zM205.6 127.4L271.2 174.3L274.8 176.9L276.6 180.9L331 305.1L438.8 317.1L370.8 153.8L301.1 96.7C266.4 99.6 234 110.4 205.7 127.3zM241.1 529.7C265.6 538.9 292.2 544 320 544C390.8 544 453.9 511.2 494.9 459.9L446 478.4L442.3 479.8L438.3 479.3L248.4 454.7L241.1 529.7zM263.1 424.3L438.5 447L522.8 415.1C536.4 386.2 544 354 544 319.9C544 319 544 318.1 544 317.1L470.6 350.4L466.6 352.2L462.2 351.7L327.4 336.7L263.1 424.1zM353.7 98.5L394.2 131.6L397.3 134.1L398.8 137.8L472.4 314.6L541 283.4C525.4 188.1 449.5 113 353.7 98.5z"/><path fill="currentColor" d="M494.9 459.9L446 478.4L442.3 479.8L438.3 479.3L248.4 454.7L241.1 529.7C265.6 538.9 292.2 544 320 544C390.8 544 453.9 511.2 494.9 459.9zM522.8 415.1C536.4 386.2 544 354 544 319.9C544 319 544 318.1 544 317.1L470.6 350.4L466.6 352.2L462.2 351.7L327.4 336.7L263.1 424.1L438.5 446.8L522.8 414.9zM541 283.4C525.4 188.1 449.5 113 353.7 98.5L394.2 131.6L397.3 134.1L398.8 137.8L472.4 314.6L541 283.4zM301 96.8C266.3 99.7 233.9 110.5 205.6 127.4L271.2 174.3L274.8 176.9L276.6 180.9L331 305.1L438.8 317.1L370.8 153.8L301.1 96.7zM177.8 146.9C127.9 188 96 250.3 96 320C96 348.8 101.4 376.3 111.3 401.6L119.7 350L120.3 346.1L122.7 342.9L239 190.7L177.7 146.9zM136.2 448C155.5 475.7 180.9 498.8 210.4 515.4L218.2 435.2L218.6 430.8L221.2 427.3L301.6 318L258.1 218.6L150.7 359.1L136.2 448zM64 320C64 178.6 178.6 64 320 64C461.4 64 576 178.6 576 320C576 461.4 461.4 576 320 576C178.6 576 64 461.4 64 320z"/></svg>