<svg xmlns="http://www.w3.org/2000/svg" viewBox="0 0 640 640"><!--! Font Awesome Pro 7.2.0 by @fontawesome - https://fontawesome.com License - https://fontawesome.com/license (Commercial License) Copyright 2026 Fonticons, Inc. --><path opacity=".4" fill="currentColor" d="M96 147.8C98 365.7 274.3 542 492.2 544L534.1 460.2L421.1 392.4C391.6 422.3 373.9 440.2 368.1 446.2L348.5 438.7C280.9 412.7 227.4 359.2 201.4 291.6L193.9 272C199.9 266.1 217.8 248.4 247.7 218.9L179.8 105.9L96 147.8z"/><path fill="currentColor" d="M368 32C500.5 32 608 139.5 608 272L608 288L576 288L576 272C576 157.1 482.9 64 368 64L352 64L352 32L368 32zM384 224C401.7 224 416 238.3 416 256C416 273.7 401.7 288 384 288C366.3 288 352 273.7 352 256C352 238.3 366.3 224 384 224zM352 128L368 128C447.5 128 512 192.5 512 272L512 288L480 288L480 272C480 210.1 429.9 160 368 160L352 160L352 128zM288 224L231.2 280C254 339.2 300.8 386 360 408.8L416 352L576 448L512 576L496 576C257.4 576 64 382.6 64 144L64 128L192 64L288 224zM382.8 431.2L368.1 446.1L348.5 438.6C280.9 412.6 227.4 359.1 201.4 291.5L193.9 271.9C199.9 266 217.8 248.3 247.7 218.8L179.8 105.9L96 147.8C98 365.7 274.3 542 492.2 544L534.1 460.2L421.1 392.4L382.8 431.3z"/></svg>