<svg xmlns="http://www.w3.org/2000/svg" viewBox="0 0 640 640"><!--! Font Awesome Pro 7.2.0 by @fontawesome - https://fontawesome.com License - https://fontawesome.com/license (Commercial License) Copyright 2026 Fonticons, Inc. --><path opacity=".4" fill="currentColor" d=""/><path fill="currentColor" d="M71.2 203.8C89.5 158 133.8 128 183.1 128C233.8 128 279 159.7 296.4 207.3L374.4 421.7C387.1 456.7 420.4 480 457.6 480C493.8 480 526.4 458 539.8 424.3L577.5 330L583.4 315.1L613.1 327L607.2 341.9L569.5 436.2C551.2 482 506.9 512 457.6 512C406.9 512 361.6 480.3 344.3 432.7L266.3 218.3C253.6 183.3 220.3 160 183.1 160C146.9 160 114.3 182 100.9 215.7L63.2 310L57.3 324.9L27.6 313L33.5 298.1L71.2 203.8z"/></svg>