<svg xmlns="http://www.w3.org/2000/svg" viewBox="0 0 640 640"><!--! Font Awesome Pro 7.2.0 by @fontawesome - https://fontawesome.com License - https://fontawesome.com/license (Commercial License) Copyright 2026 Fonticons, Inc. --><path opacity=".4" fill="currentColor" d="M64 352L64 512L416 512L416 352L64 352z"/><path fill="currentColor" d="M576 128L224 128L224 176L192 176L192 96L608 96L608 416L496 416L496 384L576 384L576 128zM416 256L64 256L64 320L416 320L416 256zM416 352L64 352L64 512L416 512L416 352zM64 224L448 224L448 544L32 544L32 224L64 224z"/></svg>